<?xml version="1.0" encoding="utf-8"?>
<svg xmlns="http://www.w3.org/2000/svg" xmlns:xlink="http://www.w3.org/1999/xlink" width="600" height="400" viewBox="0 0 2400 1600">
<defs>
  <clipPath id="clip100">
    <rect x="0" y="0" width="2400" height="1600"/>
  </clipPath>
</defs>
<path clip-path="url(#clip100)" d="M0 1600 L2400 1600 L2400 0 L0 0  Z" fill="#ffffff" fill-rule="evenodd" fill-opacity="1"/>
<defs>
  <clipPath id="clip101">
    <rect x="188" y="47" width="2166" height="1428"/>
  </clipPath>
</defs>
<path clip-path="url(#clip100)" d="M188.104 1474.16 L2352.76 1474.16 L2352.76 47.2441 L188.104 47.2441  Z" fill="#ffffff" fill-rule="evenodd" fill-opacity="1"/>
<polyline clip-path="url(#clip101)" style="stroke:#000000; stroke-linecap:round; stroke-linejoin:round; stroke-width:2; stroke-opacity:0.1; fill:none" points="249.368,1474.16 249.368,47.2441 "/>
<polyline clip-path="url(#clip101)" style="stroke:#000000; stroke-linecap:round; stroke-linejoin:round; stroke-width:2; stroke-opacity:0.1; fill:none" points="952.536,1474.16 952.536,47.2441 "/>
<polyline clip-path="url(#clip101)" style="stroke:#000000; stroke-linecap:round; stroke-linejoin:round; stroke-width:2; stroke-opacity:0.1; fill:none" points="1655.71,1474.16 1655.71,47.2441 "/>
<polyline clip-path="url(#clip101)" style="stroke:#000000; stroke-linecap:round; stroke-linejoin:round; stroke-width:2; stroke-opacity:0.1; fill:none" points="188.104,1357.15 2352.76,1357.15 "/>
<polyline clip-path="url(#clip101)" style="stroke:#000000; stroke-linecap:round; stroke-linejoin:round; stroke-width:2; stroke-opacity:0.1; fill:none" points="188.104,837.615 2352.76,837.615 "/>
<polyline clip-path="url(#clip101)" style="stroke:#000000; stroke-linecap:round; stroke-linejoin:round; stroke-width:2; stroke-opacity:0.1; fill:none" points="188.104,318.08 2352.76,318.08 "/>
<polyline clip-path="url(#clip100)" style="stroke:#000000; stroke-linecap:round; stroke-linejoin:round; stroke-width:4; stroke-opacity:1; fill:none" points="188.104,1474.16 2352.76,1474.16 "/>
<polyline clip-path="url(#clip100)" style="stroke:#000000; stroke-linecap:round; stroke-linejoin:round; stroke-width:4; stroke-opacity:1; fill:none" points="249.368,1474.16 249.368,1455.27 "/>
<polyline clip-path="url(#clip100)" style="stroke:#000000; stroke-linecap:round; stroke-linejoin:round; stroke-width:4; stroke-opacity:1; fill:none" points="952.536,1474.16 952.536,1455.27 "/>
<polyline clip-path="url(#clip100)" style="stroke:#000000; stroke-linecap:round; stroke-linejoin:round; stroke-width:4; stroke-opacity:1; fill:none" points="1655.71,1474.16 1655.71,1455.27 "/>
<path clip-path="url(#clip100)" d="M214.351 1548.29 L221.99 1548.29 L221.99 1521.92 L213.679 1523.59 L213.679 1519.33 L221.943 1517.66 L226.619 1517.66 L226.619 1548.29 L234.258 1548.29 L234.258 1552.22 L214.351 1552.22 L214.351 1548.29 Z" fill="#000000" fill-rule="nonzero" fill-opacity="1" /><path clip-path="url(#clip100)" d="M253.702 1520.74 Q250.091 1520.74 248.263 1524.31 Q246.457 1527.85 246.457 1534.98 Q246.457 1542.09 248.263 1545.65 Q250.091 1549.19 253.702 1549.19 Q257.337 1549.19 259.142 1545.65 Q260.971 1542.09 260.971 1534.98 Q260.971 1527.85 259.142 1524.31 Q257.337 1520.74 253.702 1520.74 M253.702 1517.04 Q259.512 1517.04 262.568 1521.65 Q265.647 1526.23 265.647 1534.98 Q265.647 1543.71 262.568 1548.31 Q259.512 1552.9 253.702 1552.9 Q247.892 1552.9 244.813 1548.31 Q241.758 1543.71 241.758 1534.98 Q241.758 1526.23 244.813 1521.65 Q247.892 1517.04 253.702 1517.04 Z" fill="#000000" fill-rule="nonzero" fill-opacity="1" /><path clip-path="url(#clip100)" d="M275.352 1499.24 Q272.418 1499.24 270.932 1502.13 Q269.465 1505.01 269.465 1510.8 Q269.465 1516.58 270.932 1519.47 Q272.418 1522.35 275.352 1522.35 Q278.304 1522.35 279.771 1519.47 Q281.257 1516.58 281.257 1510.8 Q281.257 1505.01 279.771 1502.13 Q278.304 1499.24 275.352 1499.24 M275.352 1496.23 Q280.072 1496.23 282.555 1499.97 Q285.056 1503.69 285.056 1510.8 Q285.056 1517.89 282.555 1521.64 Q280.072 1525.36 275.352 1525.36 Q270.631 1525.36 268.129 1521.64 Q265.647 1517.89 265.647 1510.8 Q265.647 1503.69 268.129 1499.97 Q270.631 1496.23 275.352 1496.23 Z" fill="#000000" fill-rule="nonzero" fill-opacity="1" /><path clip-path="url(#clip100)" d="M918.864 1548.29 L926.503 1548.29 L926.503 1521.92 L918.193 1523.59 L918.193 1519.33 L926.457 1517.66 L931.133 1517.66 L931.133 1548.29 L938.771 1548.29 L938.771 1552.22 L918.864 1552.22 L918.864 1548.29 Z" fill="#000000" fill-rule="nonzero" fill-opacity="1" /><path clip-path="url(#clip100)" d="M958.216 1520.74 Q954.605 1520.74 952.776 1524.31 Q950.97 1527.85 950.97 1534.98 Q950.97 1542.09 952.776 1545.65 Q954.605 1549.19 958.216 1549.19 Q961.85 1549.19 963.656 1545.65 Q965.484 1542.09 965.484 1534.98 Q965.484 1527.85 963.656 1524.31 Q961.85 1520.74 958.216 1520.74 M958.216 1517.04 Q964.026 1517.04 967.081 1521.65 Q970.16 1526.23 970.16 1534.98 Q970.16 1543.71 967.081 1548.31 Q964.026 1552.9 958.216 1552.9 Q952.406 1552.9 949.327 1548.31 Q946.271 1543.71 946.271 1534.98 Q946.271 1526.23 949.327 1521.65 Q952.406 1517.04 958.216 1517.04 Z" fill="#000000" fill-rule="nonzero" fill-opacity="1" /><path clip-path="url(#clip100)" d="M970.706 1521.62 L976.912 1521.62 L976.912 1500.19 L970.16 1501.55 L970.16 1498.09 L976.874 1496.73 L980.674 1496.73 L980.674 1521.62 L986.88 1521.62 L986.88 1524.81 L970.706 1524.81 L970.706 1521.62 Z" fill="#000000" fill-rule="nonzero" fill-opacity="1" /><path clip-path="url(#clip100)" d="M1621.48 1548.29 L1629.12 1548.29 L1629.12 1521.92 L1620.81 1523.59 L1620.81 1519.33 L1629.07 1517.66 L1633.75 1517.66 L1633.75 1548.29 L1641.39 1548.29 L1641.39 1552.22 L1621.48 1552.22 L1621.48 1548.29 Z" fill="#000000" fill-rule="nonzero" fill-opacity="1" /><path clip-path="url(#clip100)" d="M1660.83 1520.74 Q1657.22 1520.74 1655.39 1524.31 Q1653.58 1527.85 1653.58 1534.98 Q1653.58 1542.09 1655.39 1545.65 Q1657.22 1549.19 1660.83 1549.19 Q1664.46 1549.19 1666.27 1545.65 Q1668.1 1542.09 1668.1 1534.98 Q1668.1 1527.85 1666.27 1524.31 Q1664.46 1520.74 1660.83 1520.74 M1660.83 1517.04 Q1666.64 1517.04 1669.7 1521.65 Q1672.77 1526.23 1672.77 1534.98 Q1672.77 1543.71 1669.7 1548.31 Q1666.64 1552.9 1660.83 1552.9 Q1655.02 1552.9 1651.94 1548.31 Q1648.89 1543.71 1648.89 1534.98 Q1648.89 1526.23 1651.94 1521.65 Q1655.02 1517.04 1660.83 1517.04 Z" fill="#000000" fill-rule="nonzero" fill-opacity="1" /><path clip-path="url(#clip100)" d="M1677.34 1521.62 L1690.6 1521.62 L1690.6 1524.81 L1672.77 1524.81 L1672.77 1521.62 Q1674.94 1519.38 1678.66 1515.62 Q1682.4 1511.84 1683.36 1510.75 Q1685.19 1508.7 1685.9 1507.29 Q1686.64 1505.86 1686.64 1504.48 Q1686.64 1502.24 1685.06 1500.83 Q1683.49 1499.42 1680.97 1499.42 Q1679.19 1499.42 1677.19 1500.04 Q1675.22 1500.67 1672.96 1501.93 L1672.96 1498.09 Q1675.26 1497.17 1677.25 1496.7 Q1679.24 1496.23 1680.9 1496.23 Q1685.26 1496.23 1687.86 1498.41 Q1690.45 1500.59 1690.45 1504.24 Q1690.45 1505.97 1689.79 1507.53 Q1689.16 1509.07 1687.44 1511.18 Q1686.97 1511.72 1684.45 1514.34 Q1681.93 1516.93 1677.34 1521.62 Z" fill="#000000" fill-rule="nonzero" fill-opacity="1" /><polyline clip-path="url(#clip100)" style="stroke:#000000; stroke-linecap:round; stroke-linejoin:round; stroke-width:4; stroke-opacity:1; fill:none" points="188.104,1474.16 188.104,47.2441 "/>
<polyline clip-path="url(#clip100)" style="stroke:#000000; stroke-linecap:round; stroke-linejoin:round; stroke-width:4; stroke-opacity:1; fill:none" points="188.104,1357.15 207.002,1357.15 "/>
<polyline clip-path="url(#clip100)" style="stroke:#000000; stroke-linecap:round; stroke-linejoin:round; stroke-width:4; stroke-opacity:1; fill:none" points="188.104,837.615 207.002,837.615 "/>
<polyline clip-path="url(#clip100)" style="stroke:#000000; stroke-linecap:round; stroke-linejoin:round; stroke-width:4; stroke-opacity:1; fill:none" points="188.104,318.08 207.002,318.08 "/>
<path clip-path="url(#clip100)" d="M51.6634 1376.94 L59.3023 1376.94 L59.3023 1350.58 L50.9921 1352.24 L50.9921 1347.98 L59.256 1346.32 L63.9319 1346.32 L63.9319 1376.94 L71.5707 1376.94 L71.5707 1380.88 L51.6634 1380.88 L51.6634 1376.94 Z" fill="#000000" fill-rule="nonzero" fill-opacity="1" /><path clip-path="url(#clip100)" d="M91.0151 1349.4 Q87.404 1349.4 85.5753 1352.96 Q83.7697 1356.5 83.7697 1363.63 Q83.7697 1370.74 85.5753 1374.3 Q87.404 1377.84 91.0151 1377.84 Q94.6493 1377.84 96.4548 1374.3 Q98.2835 1370.74 98.2835 1363.63 Q98.2835 1356.5 96.4548 1352.96 Q94.6493 1349.4 91.0151 1349.4 M91.0151 1345.69 Q96.8252 1345.69 99.8808 1350.3 Q102.959 1354.88 102.959 1363.63 Q102.959 1372.36 99.8808 1376.97 Q96.8252 1381.55 91.0151 1381.55 Q85.2049 1381.55 82.1262 1376.97 Q79.0707 1372.36 79.0707 1363.63 Q79.0707 1354.88 82.1262 1350.3 Q85.2049 1345.69 91.0151 1345.69 Z" fill="#000000" fill-rule="nonzero" fill-opacity="1" /><path clip-path="url(#clip100)" d="M102.959 1339.79 L127.071 1339.79 L127.071 1342.99 L102.959 1342.99 L102.959 1339.79 Z" fill="#000000" fill-rule="nonzero" fill-opacity="1" /><path clip-path="url(#clip100)" d="M135.929 1350.27 L142.136 1350.27 L142.136 1328.85 L135.384 1330.2 L135.384 1326.74 L142.098 1325.39 L145.898 1325.39 L145.898 1350.27 L152.104 1350.27 L152.104 1353.47 L135.929 1353.47 L135.929 1350.27 Z" fill="#000000" fill-rule="nonzero" fill-opacity="1" /><path clip-path="url(#clip100)" d="M81.3985 857.407 L89.0374 857.407 L89.0374 831.041 L80.7272 832.708 L80.7272 828.449 L88.9911 826.782 L93.667 826.782 L93.667 857.407 L101.306 857.407 L101.306 861.342 L81.3985 861.342 L81.3985 857.407 Z" fill="#000000" fill-rule="nonzero" fill-opacity="1" /><path clip-path="url(#clip100)" d="M120.75 829.861 Q117.139 829.861 115.31 833.426 Q113.505 836.967 113.505 844.097 Q113.505 851.203 115.31 854.768 Q117.139 858.31 120.75 858.31 Q124.384 858.31 126.19 854.768 Q128.019 851.203 128.019 844.097 Q128.019 836.967 126.19 833.426 Q124.384 829.861 120.75 829.861 M120.75 826.157 Q126.56 826.157 129.616 830.764 Q132.695 835.347 132.695 844.097 Q132.695 852.824 129.616 857.43 Q126.56 862.013 120.75 862.013 Q114.94 862.013 111.861 857.43 Q108.806 852.824 108.806 844.097 Q108.806 835.347 111.861 830.764 Q114.94 826.157 120.75 826.157 Z" fill="#000000" fill-rule="nonzero" fill-opacity="1" /><path clip-path="url(#clip100)" d="M142.399 808.353 Q139.465 808.353 137.98 811.25 Q136.513 814.127 136.513 819.92 Q136.513 825.694 137.98 828.59 Q139.465 831.468 142.399 831.468 Q145.352 831.468 146.819 828.59 Q148.305 825.694 148.305 819.92 Q148.305 814.127 146.819 811.25 Q145.352 808.353 142.399 808.353 M142.399 805.344 Q147.12 805.344 149.603 809.087 Q152.104 812.811 152.104 819.92 Q152.104 827.011 149.603 830.753 Q147.12 834.477 142.399 834.477 Q137.679 834.477 135.177 830.753 Q132.695 827.011 132.695 819.92 Q132.695 812.811 135.177 809.087 Q137.679 805.344 142.399 805.344 Z" fill="#000000" fill-rule="nonzero" fill-opacity="1" /><path clip-path="url(#clip100)" d="M84.088 337.872 L91.7269 337.872 L91.7269 311.506 L83.4167 313.173 L83.4167 308.914 L91.6806 307.247 L96.3565 307.247 L96.3565 337.872 L103.995 337.872 L103.995 341.807 L84.088 341.807 L84.088 337.872 Z" fill="#000000" fill-rule="nonzero" fill-opacity="1" /><path clip-path="url(#clip100)" d="M123.44 310.326 Q119.829 310.326 118 313.891 Q116.194 317.432 116.194 324.562 Q116.194 331.668 118 335.233 Q119.829 338.775 123.44 338.775 Q127.074 338.775 128.879 335.233 Q130.708 331.668 130.708 324.562 Q130.708 317.432 128.879 313.891 Q127.074 310.326 123.44 310.326 M123.44 306.622 Q129.25 306.622 132.305 311.229 Q135.384 315.812 135.384 324.562 Q135.384 333.289 132.305 337.895 Q129.25 342.478 123.44 342.478 Q117.63 342.478 114.551 337.895 Q111.495 333.289 111.495 324.562 Q111.495 315.812 114.551 311.229 Q117.63 306.622 123.44 306.622 Z" fill="#000000" fill-rule="nonzero" fill-opacity="1" /><path clip-path="url(#clip100)" d="M135.929 311.199 L142.136 311.199 L142.136 289.777 L135.384 291.132 L135.384 287.671 L142.098 286.317 L145.898 286.317 L145.898 311.199 L152.104 311.199 L152.104 314.397 L135.929 314.397 L135.929 311.199 Z" fill="#000000" fill-rule="nonzero" fill-opacity="1" /><polyline clip-path="url(#clip101)" style="stroke:#0000ff; stroke-linecap:round; stroke-linejoin:round; stroke-width:4; stroke-opacity:1; fill:none" points="249.368,87.6286 461.043,89.9959 584.865,92.4983 672.718,95.1724 740.862,98.0707 796.539,101.267 843.614,104.838 884.392,108.865 920.361,113.413 952.536,118.554 981.643,124.288 1008.21,130.853 1032.66,138.013 1055.29,144.535 1076.36,149.69 1096.07,153.425 1114.58,155.947 1132.04,157.56 1148.55,158.599 1164.21,159.376 1179.11,160.15 1193.32,161.095 1206.89,162.301 1219.89,163.789 1232.36,165.534 1244.33,167.486 1255.86,169.583 1266.96,171.761 1277.68,173.964 1288.03,176.142 1298.05,178.258 1307.74,180.287 1317.14,182.217 1326.26,184.043 1335.11,185.772 1343.71,187.417 1352.08,188.995 1360.22,190.525 1368.15,192.026 1375.89,193.517 1383.43,195.012 1390.79,196.525 1397.97,198.061 1404.99,199.625 1411.86,201.216 1418.57,202.831 1425.13,204.465 1431.56,206.11 1437.86,207.762 1444.03,209.412 1450.08,211.056 1456.01,212.689 1461.82,214.31 1467.53,215.916 1473.14,217.509 1478.64,219.09 1484.04,220.66 1489.36,222.222 1494.58,223.78 1499.71,225.335 1504.76,226.891 1509.72,228.449 1514.61,230.01 1519.42,231.575 1524.15,233.144 1528.81,234.716 1533.41,236.29 1537.93,237.866 1542.39,239.443 1546.78,241.018 1551.11,242.592 1555.39,244.164 1559.6,245.734 1563.75,247.301 1567.85,248.866 1571.9,250.43 1575.89,251.992 1579.83,253.554 1583.72,255.116 1587.56,256.679 1591.35,258.243 1595.1,259.809 1598.8,261.376 1602.46,262.945 1606.07,264.516 1609.65,266.089 1613.18,267.662 1616.67,269.237 1620.12,270.813 1623.53,272.389 1626.9,273.966 1630.24,275.545 1633.54,277.124 1636.81,278.704 1640.04,280.286 1643.24,281.869 1646.4,283.454 1649.54,285.04 1652.64,286.629 1655.71,288.218 1658.74,289.809 1661.75,291.402 1664.73,292.995 1667.68,294.589 1670.6,296.183 1673.5,297.777 1676.37,299.371 1679.21,300.964 1682.02,302.558 1684.81,304.151 1687.57,305.743 1690.31,307.336 1693.03,308.927 1695.72,310.518 1698.39,312.108 1701.03,313.697 1703.65,315.285 1706.25,316.872 1708.83,318.458 1711.38,320.043 1713.92,321.628 1716.43,323.211 1718.92,324.794 1721.4,326.377 1723.85,327.96 1726.28,329.543 1728.7,331.127 1731.09,332.71 1733.47,334.295 1735.83,335.879 1738.17,337.465 1740.49,339.05 1742.79,340.637 1745.08,342.224 1747.35,343.812 1749.61,345.4 1751.84,346.988 1754.06,348.577 1756.27,350.166 1758.46,351.756 1760.63,353.346 1762.79,354.935 1764.93,356.525 1767.06,358.115 1769.17,359.705 1771.27,361.295 1773.36,362.885 1775.43,364.474 1777.48,366.063 1779.53,367.652 1781.56,369.24 1783.57,370.828 1785.57,372.415 1787.56,374.002 1789.54,375.588 1791.5,377.173 1793.46,378.757 1795.39,380.34 1797.32,381.923 1799.24,383.504 1801.14,385.083 1803.03,386.662 1804.91,388.238 1806.78,389.814 1808.63,391.387 1810.48,392.958 1812.31,394.528 1814.14,396.096 1815.95,397.661 1817.75,399.225 1819.54,400.787 1821.32,402.346 1823.09,403.904 1824.85,405.459 1826.6,407.013 1828.34,408.564 1830.07,410.114 1831.79,411.662 1833.5,413.208 1835.2,414.752 1836.9,416.295 1838.58,417.836 1840.25,419.375 1841.92,420.913 1843.57,422.448 1845.22,423.983 1846.86,425.515 1848.48,427.046 1850.1,428.575 1851.72,430.102 1853.32,431.628 1854.91,433.151 1856.5,434.673 1858.08,436.193 1859.65,437.71 1861.21,439.226 1862.76,440.74 1864.31,442.252 1865.85,443.762 1867.38,445.271 1868.9,446.777 1870.42,448.282 1871.93,449.785 1873.43,451.287 1874.92,452.786 1876.41,454.284 1877.89,455.781 1879.36,457.275 1880.82,458.767 1882.28,460.258 1883.73,461.746 1885.17,463.233 1886.61,464.718 1888.04,466.2 1889.47,467.681 1890.88,469.16 1892.29,470.637 1893.7,472.112 1895.09,473.585 1896.49,475.056 1897.87,476.525 1899.25,477.992 1900.62,479.457 1901.99,480.92 1903.35,482.38 1904.7,483.839 1906.05,485.295 1907.39,486.749 1908.73,488.201 1910.06,489.651 1911.39,491.099 1912.7,492.544 1914.02,493.988 1915.33,495.429 1916.63,496.868 1917.93,498.306 1919.22,499.741 1920.5,501.175 1921.78,502.606 1923.06,504.036 1924.33,505.464 1925.59,506.89 1926.85,508.314 1928.11,509.736 1929.35,511.156 1930.6,512.573 1931.84,513.988 1933.07,515.401 1934.3,516.811 1935.52,518.219 1936.74,519.623 1937.96,521.025 1939.17,522.424 1940.37,523.82 1941.57,525.213 1942.77,526.603 1943.96,527.991 1945.14,529.375 1946.32,530.757 1947.5,532.136 1948.67,533.512 1949.84,534.885 1951,536.256 1952.16,537.625 1953.32,538.991 1954.47,540.355 1955.61,541.716 1956.76,543.075 1957.89,544.431 1959.03,545.785 1960.16,547.136 1961.28,548.485 1962.4,549.832 1963.52,551.175 1964.63,552.516 1965.74,553.854 1966.84,555.19 1967.94,556.522 1969.04,557.851 1970.13,559.178 1971.22,560.501 1972.31,561.821 1973.39,563.138 1974.46,564.452 1975.54,565.762 1976.61,567.069 1977.67,568.373 1978.74,569.673 1979.79,570.97 1980.85,572.264 1981.9,573.554 1982.95,574.842 1983.99,576.126 1985.03,577.407 1986.07,578.686 1987.1,579.962 1988.13,581.235 1989.16,582.506 1990.18,583.774 1991.2,585.04 1992.22,586.304 1993.23,587.566 1994.24,588.826 1995.25,590.084 1996.25,591.341 1997.25,592.597 1998.25,593.852 1999.24,595.105 2000.23,596.356 2001.22,597.606 2002.2,598.854 2003.18,600.101 2004.16,601.346 2005.13,602.59 2006.1,603.833 2007.07,605.074 2008.03,606.313 2009,607.551 2009.95,608.788 2010.91,610.023 2011.86,611.256 2012.81,612.488 2013.76,613.717 2014.7,614.944 2015.65,616.168 2016.58,617.39 2017.52,618.609 2018.45,619.825 2019.38,621.038 2020.31,622.248 2021.23,623.455 2022.15,624.659 2023.07,625.861 2023.99,627.06 2024.9,628.256 2025.81,629.45 2026.72,630.642 2027.62,631.831 2028.52,633.018 2029.42,634.204 2030.32,635.387 2031.22,636.569 2032.11,637.748 2033,638.926 2033.88,640.102 2034.77,641.276 2035.65,642.448 2036.53,643.618 2037.4,644.787 2038.28,645.953 2039.15,647.118 2040.02,648.28 2040.88,649.441 2041.75,650.6 2042.61,651.757 2043.47,652.912 2044.32,654.065 2045.18,655.217 2046.03,656.367 2046.88,657.516 2047.73,658.663 2048.57,659.808 2049.41,660.952 2050.25,662.095 2051.09,663.236 2051.93,664.375 2052.76,665.513 2053.59,666.65 2054.42,667.785 2055.25,668.919 2056.07,670.052 2056.89,671.183 2057.71,672.313 2058.53,673.442 2059.35,674.57 2060.16,675.698 2060.97,676.823 2061.78,677.948 2062.59,679.071 2063.39,680.193 2064.19,681.311 2064.99,682.426 2065.79,683.537 2066.59,684.646 2067.38,685.753 2068.17,686.861 2068.97,687.969 2069.75,689.077 2070.54,690.184 2071.32,691.288 2072.11,692.391 2072.89,693.49 2073.66,694.588 2074.44,695.683 2075.21,696.777 2075.99,697.87 2076.76,698.962 2077.52,700.052 2078.29,701.141 2079.05,702.229 2079.82,703.315 2080.58,704.398 2081.34,705.48 2082.09,706.56 2082.85,707.637 2083.6,708.713 2084.35,709.788 2085.1,710.861 2085.85,711.933 2086.6,713.002 2087.34,714.07 2088.08,715.136 2088.82,716.2 2089.56,717.262 2090.3,718.322 2091.03,719.381 2091.77,720.438 2092.5,721.493 2093.23,722.546 2093.95,723.598 2094.68,724.648 2095.41,725.696 2096.13,726.742 2096.85,727.786 2097.57,728.829 2098.29,729.87 2099,730.909 2099.72,731.947 2100.43,732.983 2101.14,734.017 2101.85,735.05 2102.56,736.081 2103.26,737.11 2103.97,738.138 2104.67,739.165 2105.37,740.19 2106.07,741.213 2106.77,742.235 2107.47,743.256 2108.16,744.275 2108.85,745.293 2109.55,746.31 2110.24,747.325 2110.92,748.34 2111.61,749.353 2112.3,750.366 2112.98,751.377 2113.66,752.388 2114.34,753.399 2115.02,754.409 2115.7,755.42 2116.38,756.43 2117.05,757.441 2117.73,758.453 2118.4,759.465 2119.07,760.479 2119.74,761.495 2120.4,762.512 2121.07,763.53 2121.74,764.549 2122.4,765.568 2123.06,766.586 2123.72,767.6 2124.38,768.609 2125.04,769.609 2125.69,770.598 2126.35,771.576 2127,772.545 2127.65,773.512 2128.3,774.483 2128.95,775.46 2129.6,776.443 2130.25,777.428 2130.89,778.414 2131.53,779.398 2132.18,780.377 2132.82,781.353 2133.46,782.325 2134.1,783.293 2134.73,784.259 2135.37,785.223 2136,786.186 2136.64,787.15 2137.27,788.112 2137.9,789.075 2138.53,790.037 2139.15,790.999 2139.78,791.959 2140.41,792.919 2141.03,793.877 2141.65,794.833 2142.27,795.787 2142.89,796.739 2143.51,797.689 2144.13,798.638 2144.75,799.586 2145.36,800.533 2145.97,801.478 2146.59,802.423 2147.2,803.367 "/>
<polyline clip-path="url(#clip101)" style="stroke:#ff0000; stroke-linecap:round; stroke-linejoin:round; stroke-width:4; stroke-opacity:1; fill:none" points="2147.81,803.367 2148.42,803.367 2149.03,805.926 2149.63,975.785 2150.24,977.835 2150.84,998.001 2151.44,1014.23 2152.05,1017.54 2152.65,1043.98 2153.25,1049.89 2153.84,1089.93 2154.44,1112.08 2155.04,1119.83 2155.63,1124.29 2156.23,1134.89 2156.82,1139.03 2157.41,1143.89 2158,1147.89 2158.59,1151.76 2159.18,1154.62 2159.76,1161.32 2160.35,1168.87 2160.93,1175.67 2161.52,1177.66 2162.1,1181.14 2162.68,1185.9 2163.26,1186.71 2163.84,1189.11 2164.42,1191.11 2164.99,1193.54 2165.57,1199.01 2166.14,1201.67 2166.72,1204.51 2167.29,1208.05 2167.86,1212.23 2168.43,1214.87 2169,1217.58 2169.57,1218.45 2170.14,1219.79 2170.7,1220.25 2171.27,1221.83 2171.83,1225.62 2172.39,1228.6 2172.96,1230.62 2173.52,1231.77 2174.08,1233.83 2174.63,1236.82 2175.19,1238.65 2175.75,1241.91 2176.3,1243.46 2176.86,1246.82 2177.41,1248.74 2177.97,1250.86 2178.52,1252.76 2179.07,1254.61 2179.62,1255.7 2180.17,1258.86 2180.71,1259.62 2181.26,1260.83 2181.81,1261.53 2182.35,1264.13 2182.9,1266.4 2183.44,1266.87 2183.98,1269.7 2184.52,1270.26 2185.06,1271.56 2185.6,1272.23 2186.14,1272.65 2186.68,1273.23 2187.21,1273.83 2187.75,1274.39 2188.28,1275.65 2188.82,1277.45 2189.35,1279.57 2189.88,1279.91 2190.41,1280.9 2190.94,1282.88 2191.47,1284.37 2192,1285.26 2192.52,1287.05 2193.05,1289.03 2193.57,1289.7 2194.1,1290.74 2194.62,1291.66 2195.15,1293.23 2195.67,1293.82 2196.19,1294.43 2196.71,1295.04 2197.23,1299.13 2197.74,1299.5 2198.26,1300.61 2198.78,1301.3 2199.29,1302.38 2199.81,1303.64 2200.32,1305.39 2200.83,1306.56 2201.35,1307.16 2201.86,1308.83 2202.37,1309.81 2202.88,1311.13 2203.39,1312.42 2203.89,1312.7 2204.4,1313.05 2204.91,1314.07 2205.41,1315.12 2205.92,1315.88 2206.42,1318.27 2206.92,1319.6 2207.42,1321.18 2207.92,1323.01 2208.42,1325.21 2208.92,1326.2 2209.42,1326.35 2209.92,1326.54 2210.42,1326.95 2210.91,1327.62 2211.41,1329.03 2211.9,1329.59 2212.4,1331.85 2212.89,1332.63 2213.38,1334.98 2213.87,1336.9 2214.36,1338.26 2214.85,1338.75 2215.34,1340.41 2215.83,1340.88 2216.32,1342.23 2216.81,1343.02 2217.29,1344.07 2217.78,1345.89 2218.26,1347.15 2218.74,1349.86 2219.23,1351.5 2219.71,1353.09 2220.19,1353.1 2220.67,1355.58 2221.15,1356.9 2221.63,1357.89 2222.11,1359.14 2222.59,1361.21 2223.06,1362.46 2223.54,1364.44 2224.01,1365.45 2224.49,1366.33 2224.96,1367.7 2225.44,1368.76 2225.91,1369.79 2226.38,1369.86 2226.85,1370.51 2227.32,1370.84 2227.79,1371.22 2228.26,1371.61 2228.73,1372.42 2229.19,1372.83 2229.66,1373.76 2230.13,1374.24 2230.59,1375.31 2231.06,1376.07 2231.52,1377 2231.98,1378.02 2232.45,1378.58 2232.91,1379.36 2233.37,1379.77 2233.83,1380.42 2234.29,1381.05 2234.75,1381.33 2235.2,1382.31 2235.66,1382.74 2236.12,1383.03 2236.58,1383.68 2237.03,1384.79 2237.49,1385.3 2237.94,1385.54 2238.39,1386.33 2238.85,1386.63 2239.3,1387.13 2239.75,1387.9 2240.2,1388.15 2240.65,1388.76 2241.1,1389.63 2241.55,1390.82 2242,1391.99 2242.44,1392.6 2242.89,1393.19 2243.34,1393.51 2243.78,1393.89 2244.23,1394.15 2244.67,1394.65 2245.11,1395.98 2245.56,1396.33 2246,1396.98 2246.44,1397.29 2246.88,1397.69 2247.32,1398.39 2247.76,1399.57 2248.2,1400.26 2248.64,1400.98 2249.08,1401.46 2249.51,1401.74 2249.95,1402.39 2250.39,1403.26 2250.82,1403.52 2251.26,1404.15 2251.69,1404.68 2252.13,1405.35 2252.56,1405.98 2252.99,1406.59 2253.42,1406.85 2253.85,1407.23 2254.28,1407.49 2254.71,1408.07 2255.14,1408.59 2255.57,1409.03 2256,1409.47 2256.43,1409.77 2256.85,1410.11 2257.28,1411.07 2257.7,1411.47 2258.13,1411.55 2258.55,1412.66 2258.98,1412.86 2259.4,1413.34 2259.82,1413.57 2260.25,1413.86 2260.67,1414.61 2261.09,1415.23 2261.51,1415.52 2261.93,1415.8 2262.35,1416.33 2262.77,1416.83 2263.18,1417.13 2263.6,1417.46 2264.02,1417.87 2264.44,1418.13 2264.85,1418.4 2265.27,1418.87 2265.68,1419.23 2266.1,1419.65 2266.51,1419.89 2266.92,1420.02 2267.33,1420.23 2267.75,1420.59 2268.16,1420.88 2268.57,1421.05 2268.98,1421.95 2269.39,1422.15 2269.8,1422.43 2270.21,1422.71 2270.61,1423.02 2271.02,1423.35 2271.43,1423.54 2271.83,1423.72 2272.24,1423.92 2272.65,1424.18 2273.05,1424.51 2273.45,1424.6 2273.86,1424.66 2274.26,1424.76 2274.66,1424.84 2275.07,1424.99 2275.47,1425.22 2275.87,1425.54 2276.27,1425.9 2276.67,1426.07 2277.07,1426.33 2277.47,1426.58 2277.87,1426.66 2278.26,1426.9 2278.66,1427.06 2279.06,1427.14 2279.45,1427.23 2279.85,1427.53 2280.25,1427.85 2280.64,1428.1 2281.03,1428.2 2281.43,1428.37 2281.82,1428.49 2282.21,1428.72 2282.61,1429.02 2283,1429.06 2283.39,1429.48 2283.78,1429.61 2284.17,1429.68 2284.56,1429.92 2284.95,1430.16 2285.34,1430.37 2285.73,1430.65 2286.11,1430.84 2286.5,1430.98 2286.89,1431.08 2287.27,1431.45 2287.66,1431.73 2288.05,1431.84 2288.43,1432.06 2288.82,1432.31 2289.2,1432.47 2289.58,1432.83 2289.97,1432.84 2290.35,1433.33 2290.73,1433.51 2291.11,1433.63 2291.49,1433.78 "/>
<path clip-path="url(#clip100)" d="M1918.4 250.328 L2280.6 250.328 L2280.6 94.8081 L1918.4 94.8081  Z" fill="#ffffff" fill-rule="evenodd" fill-opacity="1"/>
<polyline clip-path="url(#clip100)" style="stroke:#000000; stroke-linecap:round; stroke-linejoin:round; stroke-width:4; stroke-opacity:1; fill:none" points="1918.4,250.328 2280.6,250.328 2280.6,94.8081 1918.4,94.8081 1918.4,250.328 "/>
<polyline clip-path="url(#clip100)" style="stroke:#0000ff; stroke-linecap:round; stroke-linejoin:round; stroke-width:4; stroke-opacity:1; fill:none" points="1942.45,146.648 2086.76,146.648 "/>
<path clip-path="url(#clip100)" d="M2126.64 133.975 L2120.3 151.174 L2133.01 151.174 L2126.64 133.975 M2124 129.368 L2129.3 129.368 L2142.48 163.928 L2137.61 163.928 L2134.47 155.062 L2118.89 155.062 L2115.74 163.928 L2110.81 163.928 L2124 129.368 Z" fill="#000000" fill-rule="nonzero" fill-opacity="1" /><path clip-path="url(#clip100)" d="M2163.56 141.937 L2163.56 127.91 L2167.82 127.91 L2167.82 163.928 L2163.56 163.928 L2163.56 160.039 Q2162.22 162.354 2160.16 163.488 Q2158.12 164.599 2155.25 164.599 Q2150.55 164.599 2147.59 160.849 Q2144.65 157.099 2144.65 150.988 Q2144.65 144.877 2147.59 141.127 Q2150.55 137.377 2155.25 137.377 Q2158.12 137.377 2160.16 138.512 Q2162.22 139.623 2163.56 141.937 M2149.05 150.988 Q2149.05 155.687 2150.97 158.373 Q2152.92 161.035 2156.3 161.035 Q2159.67 161.035 2161.62 158.373 Q2163.56 155.687 2163.56 150.988 Q2163.56 146.289 2161.62 143.627 Q2159.67 140.942 2156.3 140.942 Q2152.92 140.942 2150.97 143.627 Q2149.05 146.289 2149.05 150.988 Z" fill="#000000" fill-rule="nonzero" fill-opacity="1" /><path clip-path="url(#clip100)" d="M2188.38 150.896 Q2183.22 150.896 2181.23 152.076 Q2179.23 153.257 2179.23 156.104 Q2179.23 158.373 2180.72 159.715 Q2182.22 161.035 2184.79 161.035 Q2188.33 161.035 2190.46 158.535 Q2192.61 156.011 2192.61 151.845 L2192.61 150.896 L2188.38 150.896 M2196.87 149.137 L2196.87 163.928 L2192.61 163.928 L2192.61 159.993 Q2191.16 162.354 2188.98 163.488 Q2186.8 164.599 2183.66 164.599 Q2179.67 164.599 2177.31 162.377 Q2174.98 160.132 2174.98 156.382 Q2174.98 152.007 2177.89 149.785 Q2180.83 147.562 2186.64 147.562 L2192.61 147.562 L2192.61 147.146 Q2192.61 144.206 2190.67 142.609 Q2188.75 140.988 2185.25 140.988 Q2183.03 140.988 2180.92 141.521 Q2178.82 142.053 2176.87 143.118 L2176.87 139.183 Q2179.21 138.28 2181.41 137.84 Q2183.61 137.377 2185.69 137.377 Q2191.32 137.377 2194.1 140.294 Q2196.87 143.211 2196.87 149.137 Z" fill="#000000" fill-rule="nonzero" fill-opacity="1" /><path clip-path="url(#clip100)" d="M2225.83 142.979 Q2227.43 140.109 2229.65 138.743 Q2231.87 137.377 2234.88 137.377 Q2238.93 137.377 2241.13 140.225 Q2243.33 143.049 2243.33 148.28 L2243.33 163.928 L2239.05 163.928 L2239.05 148.419 Q2239.05 144.692 2237.73 142.887 Q2236.41 141.081 2233.7 141.081 Q2230.39 141.081 2228.47 143.28 Q2226.55 145.479 2226.55 149.275 L2226.55 163.928 L2222.27 163.928 L2222.27 148.419 Q2222.27 144.669 2220.95 142.887 Q2219.63 141.081 2216.87 141.081 Q2213.61 141.081 2211.69 143.303 Q2209.77 145.502 2209.77 149.275 L2209.77 163.928 L2205.48 163.928 L2205.48 138.002 L2209.77 138.002 L2209.77 142.03 Q2211.23 139.646 2213.26 138.512 Q2215.3 137.377 2218.1 137.377 Q2220.92 137.377 2222.89 138.813 Q2224.88 140.248 2225.83 142.979 Z" fill="#000000" fill-rule="nonzero" fill-opacity="1" /><polyline clip-path="url(#clip100)" style="stroke:#ff0000; stroke-linecap:round; stroke-linejoin:round; stroke-width:4; stroke-opacity:1; fill:none" points="1942.45,198.488 2086.76,198.488 "/>
<path clip-path="url(#clip100)" d="M2110.81 181.208 L2115.49 181.208 L2115.49 211.833 L2132.31 211.833 L2132.31 215.768 L2110.81 215.768 L2110.81 181.208 Z" fill="#000000" fill-rule="nonzero" fill-opacity="1" /><path clip-path="url(#clip100)" d="M2141.9 199.264 L2141.9 211.926 L2149.4 211.926 Q2153.17 211.926 2154.98 210.375 Q2156.8 208.801 2156.8 205.583 Q2156.8 202.342 2154.98 200.814 Q2153.17 199.264 2149.4 199.264 L2141.9 199.264 M2141.9 185.051 L2141.9 195.467 L2148.82 195.467 Q2152.24 195.467 2153.91 194.194 Q2155.6 192.898 2155.6 190.259 Q2155.6 187.643 2153.91 186.347 Q2152.24 185.051 2148.82 185.051 L2141.9 185.051 M2137.22 181.208 L2149.17 181.208 Q2154.51 181.208 2157.41 183.43 Q2160.3 185.653 2160.3 189.75 Q2160.3 192.921 2158.82 194.796 Q2157.34 196.671 2154.47 197.134 Q2157.92 197.875 2159.81 200.236 Q2161.73 202.574 2161.73 206.092 Q2161.73 210.722 2158.59 213.245 Q2155.44 215.768 2149.63 215.768 L2137.22 215.768 L2137.22 181.208 Z" fill="#000000" fill-rule="nonzero" fill-opacity="1" /><path clip-path="url(#clip100)" d="M2169.74 181.208 L2189.61 181.208 L2189.61 185.143 L2174.42 185.143 L2174.42 195.328 L2188.12 195.328 L2188.12 199.264 L2174.42 199.264 L2174.42 215.768 L2169.74 215.768 L2169.74 181.208 Z" fill="#000000" fill-rule="nonzero" fill-opacity="1" /><path clip-path="url(#clip100)" d="M2220.58 210.838 L2220.58 201.555 L2212.94 201.555 L2212.94 197.713 L2225.21 197.713 L2225.21 212.551 Q2222.5 214.472 2219.23 215.467 Q2215.97 216.439 2212.27 216.439 Q2204.17 216.439 2199.58 211.717 Q2195.02 206.972 2195.02 198.523 Q2195.02 190.051 2199.58 185.328 Q2204.17 180.583 2212.27 180.583 Q2215.65 180.583 2218.68 181.416 Q2221.73 182.25 2224.3 183.87 L2224.3 188.847 Q2221.71 186.648 2218.79 185.537 Q2215.88 184.426 2212.66 184.426 Q2206.32 184.426 2203.12 187.967 Q2199.95 191.509 2199.95 198.523 Q2199.95 205.514 2203.12 209.055 Q2206.32 212.597 2212.66 212.597 Q2215.14 212.597 2217.08 212.18 Q2219.03 211.74 2220.58 210.838 Z" fill="#000000" fill-rule="nonzero" fill-opacity="1" /><path clip-path="url(#clip100)" d="M2254.47 182.342 L2254.47 186.903 Q2251.8 185.629 2249.44 185.004 Q2247.08 184.379 2244.88 184.379 Q2241.06 184.379 2238.98 185.861 Q2236.92 187.342 2236.92 190.074 Q2236.92 192.365 2238.29 193.546 Q2239.67 194.703 2243.52 195.421 L2246.34 196 Q2251.57 196.995 2254.05 199.518 Q2256.55 202.018 2256.55 206.231 Q2256.55 211.254 2253.17 213.847 Q2249.81 216.439 2243.31 216.439 Q2240.85 216.439 2238.08 215.884 Q2235.32 215.328 2232.36 214.24 L2232.36 209.426 Q2235.21 211.023 2237.94 211.833 Q2240.67 212.643 2243.31 212.643 Q2247.31 212.643 2249.49 211.069 Q2251.66 209.495 2251.66 206.578 Q2251.66 204.032 2250.09 202.597 Q2248.54 201.162 2244.98 200.444 L2242.13 199.889 Q2236.9 198.847 2234.56 196.625 Q2232.22 194.402 2232.22 190.444 Q2232.22 185.861 2235.44 183.222 Q2238.68 180.583 2244.35 180.583 Q2246.78 180.583 2249.3 181.023 Q2251.83 181.463 2254.47 182.342 Z" fill="#000000" fill-rule="nonzero" fill-opacity="1" /></svg>
