<?xml version="1.0" encoding="utf-8"?>
<svg xmlns="http://www.w3.org/2000/svg" xmlns:xlink="http://www.w3.org/1999/xlink" width="600" height="400" viewBox="0 0 2400 1600">
<defs>
  <clipPath id="clip850">
    <rect x="0" y="0" width="2400" height="1600"/>
  </clipPath>
</defs>
<path clip-path="url(#clip850)" d="M0 1600 L2400 1600 L2400 0 L0 0  Z" fill="#ffffff" fill-rule="evenodd" fill-opacity="1"/>
<defs>
  <clipPath id="clip851">
    <rect x="219" y="123" width="2134" height="1301"/>
  </clipPath>
</defs>
<path clip-path="url(#clip850)" d="M219.866 1423.18 L2352.76 1423.18 L2352.76 123.472 L219.866 123.472  Z" fill="#ffffff" fill-rule="evenodd" fill-opacity="1"/>
<polyline clip-path="url(#clip851)" style="stroke:#000000; stroke-linecap:round; stroke-linejoin:round; stroke-width:2; stroke-opacity:0.1; fill:none" points="256.559,1423.18 256.559,123.472 "/>
<polyline clip-path="url(#clip851)" style="stroke:#000000; stroke-linecap:round; stroke-linejoin:round; stroke-width:2; stroke-opacity:0.1; fill:none" points="730.008,1423.18 730.008,123.472 "/>
<polyline clip-path="url(#clip851)" style="stroke:#000000; stroke-linecap:round; stroke-linejoin:round; stroke-width:2; stroke-opacity:0.1; fill:none" points="1203.46,1423.18 1203.46,123.472 "/>
<polyline clip-path="url(#clip851)" style="stroke:#000000; stroke-linecap:round; stroke-linejoin:round; stroke-width:2; stroke-opacity:0.1; fill:none" points="1676.91,1423.18 1676.91,123.472 "/>
<polyline clip-path="url(#clip851)" style="stroke:#000000; stroke-linecap:round; stroke-linejoin:round; stroke-width:2; stroke-opacity:0.1; fill:none" points="2150.36,1423.18 2150.36,123.472 "/>
<polyline clip-path="url(#clip851)" style="stroke:#000000; stroke-linecap:round; stroke-linejoin:round; stroke-width:2; stroke-opacity:0.1; fill:none" points="219.866,1386.4 2352.76,1386.4 "/>
<polyline clip-path="url(#clip851)" style="stroke:#000000; stroke-linecap:round; stroke-linejoin:round; stroke-width:2; stroke-opacity:0.1; fill:none" points="219.866,1189.26 2352.76,1189.26 "/>
<polyline clip-path="url(#clip851)" style="stroke:#000000; stroke-linecap:round; stroke-linejoin:round; stroke-width:2; stroke-opacity:0.1; fill:none" points="219.866,992.13 2352.76,992.13 "/>
<polyline clip-path="url(#clip851)" style="stroke:#000000; stroke-linecap:round; stroke-linejoin:round; stroke-width:2; stroke-opacity:0.1; fill:none" points="219.866,794.998 2352.76,794.998 "/>
<polyline clip-path="url(#clip851)" style="stroke:#000000; stroke-linecap:round; stroke-linejoin:round; stroke-width:2; stroke-opacity:0.1; fill:none" points="219.866,597.865 2352.76,597.865 "/>
<polyline clip-path="url(#clip851)" style="stroke:#000000; stroke-linecap:round; stroke-linejoin:round; stroke-width:2; stroke-opacity:0.1; fill:none" points="219.866,400.732 2352.76,400.732 "/>
<polyline clip-path="url(#clip851)" style="stroke:#000000; stroke-linecap:round; stroke-linejoin:round; stroke-width:2; stroke-opacity:0.1; fill:none" points="219.866,203.6 2352.76,203.6 "/>
<polyline clip-path="url(#clip850)" style="stroke:#000000; stroke-linecap:round; stroke-linejoin:round; stroke-width:4; stroke-opacity:1; fill:none" points="219.866,1423.18 2352.76,1423.18 "/>
<polyline clip-path="url(#clip850)" style="stroke:#000000; stroke-linecap:round; stroke-linejoin:round; stroke-width:4; stroke-opacity:1; fill:none" points="256.559,1423.18 256.559,1404.28 "/>
<polyline clip-path="url(#clip850)" style="stroke:#000000; stroke-linecap:round; stroke-linejoin:round; stroke-width:4; stroke-opacity:1; fill:none" points="730.008,1423.18 730.008,1404.28 "/>
<polyline clip-path="url(#clip850)" style="stroke:#000000; stroke-linecap:round; stroke-linejoin:round; stroke-width:4; stroke-opacity:1; fill:none" points="1203.46,1423.18 1203.46,1404.28 "/>
<polyline clip-path="url(#clip850)" style="stroke:#000000; stroke-linecap:round; stroke-linejoin:round; stroke-width:4; stroke-opacity:1; fill:none" points="1676.91,1423.18 1676.91,1404.28 "/>
<polyline clip-path="url(#clip850)" style="stroke:#000000; stroke-linecap:round; stroke-linejoin:round; stroke-width:4; stroke-opacity:1; fill:none" points="2150.36,1423.18 2150.36,1404.28 "/>
<path clip-path="url(#clip850)" d="M256.559 1454.1 Q252.948 1454.1 251.119 1457.66 Q249.313 1461.2 249.313 1468.33 Q249.313 1475.44 251.119 1479.01 Q252.948 1482.55 256.559 1482.55 Q260.193 1482.55 261.998 1479.01 Q263.827 1475.44 263.827 1468.33 Q263.827 1461.2 261.998 1457.66 Q260.193 1454.1 256.559 1454.1 M256.559 1450.39 Q262.369 1450.39 265.424 1455 Q268.503 1459.58 268.503 1468.33 Q268.503 1477.06 265.424 1481.67 Q262.369 1486.25 256.559 1486.25 Q250.748 1486.25 247.67 1481.67 Q244.614 1477.06 244.614 1468.33 Q244.614 1459.58 247.67 1455 Q250.748 1450.39 256.559 1450.39 Z" fill="#000000" fill-rule="nonzero" fill-opacity="1" /><path clip-path="url(#clip850)" d="M708.781 1481.64 L725.101 1481.64 L725.101 1485.58 L703.156 1485.58 L703.156 1481.64 Q705.818 1478.89 710.402 1474.26 Q715.008 1469.61 716.189 1468.27 Q718.434 1465.74 719.314 1464.01 Q720.216 1462.25 720.216 1460.56 Q720.216 1457.8 718.272 1456.07 Q716.351 1454.33 713.249 1454.33 Q711.05 1454.33 708.596 1455.09 Q706.166 1455.86 703.388 1457.41 L703.388 1452.69 Q706.212 1451.55 708.666 1450.97 Q711.119 1450.39 713.156 1450.39 Q718.527 1450.39 721.721 1453.08 Q724.915 1455.77 724.915 1460.26 Q724.915 1462.39 724.105 1464.31 Q723.318 1466.2 721.212 1468.8 Q720.633 1469.47 717.531 1472.69 Q714.429 1475.88 708.781 1481.64 Z" fill="#000000" fill-rule="nonzero" fill-opacity="1" /><path clip-path="url(#clip850)" d="M744.915 1454.1 Q741.304 1454.1 739.476 1457.66 Q737.67 1461.2 737.67 1468.33 Q737.67 1475.44 739.476 1479.01 Q741.304 1482.55 744.915 1482.55 Q748.55 1482.55 750.355 1479.01 Q752.184 1475.44 752.184 1468.33 Q752.184 1461.2 750.355 1457.66 Q748.55 1454.1 744.915 1454.1 M744.915 1450.39 Q750.725 1450.39 753.781 1455 Q756.86 1459.58 756.86 1468.33 Q756.86 1477.06 753.781 1481.67 Q750.725 1486.25 744.915 1486.25 Q739.105 1486.25 736.027 1481.67 Q732.971 1477.06 732.971 1468.33 Q732.971 1459.58 736.027 1455 Q739.105 1450.39 744.915 1450.39 Z" fill="#000000" fill-rule="nonzero" fill-opacity="1" /><path clip-path="url(#clip850)" d="M1191.63 1455.09 L1179.82 1473.54 L1191.63 1473.54 L1191.63 1455.09 M1190.4 1451.02 L1196.28 1451.02 L1196.28 1473.54 L1201.21 1473.54 L1201.21 1477.43 L1196.28 1477.43 L1196.28 1485.58 L1191.63 1485.58 L1191.63 1477.43 L1176.03 1477.43 L1176.03 1472.92 L1190.4 1451.02 Z" fill="#000000" fill-rule="nonzero" fill-opacity="1" /><path clip-path="url(#clip850)" d="M1218.94 1454.1 Q1215.33 1454.1 1213.5 1457.66 Q1211.7 1461.2 1211.7 1468.33 Q1211.7 1475.44 1213.5 1479.01 Q1215.33 1482.55 1218.94 1482.55 Q1222.58 1482.55 1224.38 1479.01 Q1226.21 1475.44 1226.21 1468.33 Q1226.21 1461.2 1224.38 1457.66 Q1222.58 1454.1 1218.94 1454.1 M1218.94 1450.39 Q1224.75 1450.39 1227.81 1455 Q1230.89 1459.58 1230.89 1468.33 Q1230.89 1477.06 1227.81 1481.67 Q1224.75 1486.25 1218.94 1486.25 Q1213.13 1486.25 1210.05 1481.67 Q1207 1477.06 1207 1468.33 Q1207 1459.58 1210.05 1455 Q1213.13 1450.39 1218.94 1450.39 Z" fill="#000000" fill-rule="nonzero" fill-opacity="1" /><path clip-path="url(#clip850)" d="M1662.31 1466.44 Q1659.16 1466.44 1657.31 1468.59 Q1655.48 1470.74 1655.48 1474.49 Q1655.48 1478.22 1657.31 1480.39 Q1659.16 1482.55 1662.31 1482.55 Q1665.46 1482.55 1667.29 1480.39 Q1669.14 1478.22 1669.14 1474.49 Q1669.14 1470.74 1667.29 1468.59 Q1665.46 1466.44 1662.31 1466.44 M1671.59 1451.78 L1671.59 1456.04 Q1669.84 1455.21 1668.03 1454.77 Q1666.25 1454.33 1664.49 1454.33 Q1659.86 1454.33 1657.4 1457.45 Q1654.97 1460.58 1654.63 1466.9 Q1655.99 1464.89 1658.05 1463.82 Q1660.11 1462.73 1662.59 1462.73 Q1667.8 1462.73 1670.81 1465.9 Q1673.84 1469.05 1673.84 1474.49 Q1673.84 1479.82 1670.69 1483.03 Q1667.54 1486.25 1662.31 1486.25 Q1656.32 1486.25 1653.15 1481.67 Q1649.97 1477.06 1649.97 1468.33 Q1649.97 1460.14 1653.86 1455.28 Q1657.75 1450.39 1664.3 1450.39 Q1666.06 1450.39 1667.84 1450.74 Q1669.65 1451.09 1671.59 1451.78 Z" fill="#000000" fill-rule="nonzero" fill-opacity="1" /><path clip-path="url(#clip850)" d="M1691.9 1454.1 Q1688.28 1454.1 1686.46 1457.66 Q1684.65 1461.2 1684.65 1468.33 Q1684.65 1475.44 1686.46 1479.01 Q1688.28 1482.55 1691.9 1482.55 Q1695.53 1482.55 1697.33 1479.01 Q1699.16 1475.44 1699.16 1468.33 Q1699.16 1461.2 1697.33 1457.66 Q1695.53 1454.1 1691.9 1454.1 M1691.9 1450.39 Q1697.71 1450.39 1700.76 1455 Q1703.84 1459.58 1703.84 1468.33 Q1703.84 1477.06 1700.76 1481.67 Q1697.71 1486.25 1691.9 1486.25 Q1686.09 1486.25 1683.01 1481.67 Q1679.95 1477.06 1679.95 1468.33 Q1679.95 1459.58 1683.01 1455 Q1686.09 1450.39 1691.9 1450.39 Z" fill="#000000" fill-rule="nonzero" fill-opacity="1" /><path clip-path="url(#clip850)" d="M2135.23 1469.17 Q2131.9 1469.17 2129.97 1470.95 Q2128.08 1472.73 2128.08 1475.86 Q2128.08 1478.98 2129.97 1480.77 Q2131.9 1482.55 2135.23 1482.55 Q2138.56 1482.55 2140.48 1480.77 Q2142.4 1478.96 2142.4 1475.86 Q2142.4 1472.73 2140.48 1470.95 Q2138.59 1469.17 2135.23 1469.17 M2130.55 1467.18 Q2127.54 1466.44 2125.85 1464.38 Q2124.19 1462.32 2124.19 1459.35 Q2124.19 1455.21 2127.13 1452.8 Q2130.09 1450.39 2135.23 1450.39 Q2140.39 1450.39 2143.33 1452.8 Q2146.27 1455.21 2146.27 1459.35 Q2146.27 1462.32 2144.58 1464.38 Q2142.91 1466.44 2139.93 1467.18 Q2143.31 1467.96 2145.18 1470.26 Q2147.08 1472.55 2147.08 1475.86 Q2147.08 1480.88 2144 1483.57 Q2140.95 1486.25 2135.23 1486.25 Q2129.51 1486.25 2126.43 1483.57 Q2123.38 1480.88 2123.38 1475.86 Q2123.38 1472.55 2125.28 1470.26 Q2127.17 1467.96 2130.55 1467.18 M2128.84 1459.79 Q2128.84 1462.48 2130.51 1463.98 Q2132.2 1465.49 2135.23 1465.49 Q2138.24 1465.49 2139.93 1463.98 Q2141.64 1462.48 2141.64 1459.79 Q2141.64 1457.11 2139.93 1455.6 Q2138.24 1454.1 2135.23 1454.1 Q2132.2 1454.1 2130.51 1455.6 Q2128.84 1457.11 2128.84 1459.79 Z" fill="#000000" fill-rule="nonzero" fill-opacity="1" /><path clip-path="url(#clip850)" d="M2165.39 1454.1 Q2161.78 1454.1 2159.95 1457.66 Q2158.15 1461.2 2158.15 1468.33 Q2158.15 1475.44 2159.95 1479.01 Q2161.78 1482.55 2165.39 1482.55 Q2169.03 1482.55 2170.83 1479.01 Q2172.66 1475.44 2172.66 1468.33 Q2172.66 1461.2 2170.83 1457.66 Q2169.03 1454.1 2165.39 1454.1 M2165.39 1450.39 Q2171.2 1450.39 2174.26 1455 Q2177.34 1459.58 2177.34 1468.33 Q2177.34 1477.06 2174.26 1481.67 Q2171.2 1486.25 2165.39 1486.25 Q2159.58 1486.25 2156.5 1481.67 Q2153.45 1477.06 2153.45 1468.33 Q2153.45 1459.58 2156.5 1455 Q2159.58 1450.39 2165.39 1450.39 Z" fill="#000000" fill-rule="nonzero" fill-opacity="1" /><path clip-path="url(#clip850)" d="M1208.19 1520.52 L1248.39 1520.52 L1248.39 1525.93 L1231.52 1525.93 L1231.52 1568.04 L1225.06 1568.04 L1225.06 1525.93 L1208.19 1525.93 L1208.19 1520.52 Z" fill="#000000" fill-rule="nonzero" fill-opacity="1" /><path clip-path="url(#clip850)" d="M1252.33 1532.4 L1258.19 1532.4 L1258.19 1568.04 L1252.33 1568.04 L1252.33 1532.4 M1252.33 1518.52 L1258.19 1518.52 L1258.19 1525.93 L1252.33 1525.93 L1252.33 1518.52 Z" fill="#000000" fill-rule="nonzero" fill-opacity="1" /><path clip-path="url(#clip850)" d="M1298.2 1539.24 Q1300.4 1535.29 1303.45 1533.41 Q1306.51 1531.54 1310.64 1531.54 Q1316.21 1531.54 1319.24 1535.45 Q1322.26 1539.33 1322.26 1546.53 L1322.26 1568.04 L1316.37 1568.04 L1316.37 1546.72 Q1316.37 1541.59 1314.56 1539.11 Q1312.74 1536.63 1309.02 1536.63 Q1304.47 1536.63 1301.83 1539.65 Q1299.19 1542.68 1299.19 1547.9 L1299.19 1568.04 L1293.3 1568.04 L1293.3 1546.72 Q1293.3 1541.56 1291.48 1539.11 Q1289.67 1536.63 1285.88 1536.63 Q1281.39 1536.63 1278.75 1539.68 Q1276.11 1542.71 1276.11 1547.9 L1276.11 1568.04 L1270.22 1568.04 L1270.22 1532.4 L1276.11 1532.4 L1276.11 1537.93 Q1278.12 1534.66 1280.92 1533.1 Q1283.72 1531.54 1287.57 1531.54 Q1291.45 1531.54 1294.16 1533.51 Q1296.89 1535.48 1298.2 1539.24 Z" fill="#000000" fill-rule="nonzero" fill-opacity="1" /><path clip-path="url(#clip850)" d="M1364.43 1548.76 L1364.43 1551.62 L1337.51 1551.62 Q1337.89 1557.67 1341.14 1560.85 Q1344.41 1564 1350.24 1564 Q1353.61 1564 1356.76 1563.17 Q1359.95 1562.35 1363.07 1560.69 L1363.07 1566.23 Q1359.91 1567.57 1356.6 1568.27 Q1353.29 1568.97 1349.89 1568.97 Q1341.36 1568.97 1336.36 1564 Q1331.4 1559.04 1331.4 1550.57 Q1331.4 1541.82 1336.11 1536.69 Q1340.85 1531.54 1348.87 1531.54 Q1356.06 1531.54 1360.23 1536.18 Q1364.43 1540.8 1364.43 1548.76 M1358.58 1547.04 Q1358.51 1542.23 1355.87 1539.37 Q1353.26 1536.5 1348.93 1536.5 Q1344.03 1536.5 1341.07 1539.27 Q1338.14 1542.04 1337.7 1547.07 L1358.58 1547.04 Z" fill="#000000" fill-rule="nonzero" fill-opacity="1" /><polyline clip-path="url(#clip850)" style="stroke:#000000; stroke-linecap:round; stroke-linejoin:round; stroke-width:4; stroke-opacity:1; fill:none" points="219.866,1423.18 219.866,123.472 "/>
<polyline clip-path="url(#clip850)" style="stroke:#000000; stroke-linecap:round; stroke-linejoin:round; stroke-width:4; stroke-opacity:1; fill:none" points="219.866,1386.4 238.764,1386.4 "/>
<polyline clip-path="url(#clip850)" style="stroke:#000000; stroke-linecap:round; stroke-linejoin:round; stroke-width:4; stroke-opacity:1; fill:none" points="219.866,1189.26 238.764,1189.26 "/>
<polyline clip-path="url(#clip850)" style="stroke:#000000; stroke-linecap:round; stroke-linejoin:round; stroke-width:4; stroke-opacity:1; fill:none" points="219.866,992.13 238.764,992.13 "/>
<polyline clip-path="url(#clip850)" style="stroke:#000000; stroke-linecap:round; stroke-linejoin:round; stroke-width:4; stroke-opacity:1; fill:none" points="219.866,794.998 238.764,794.998 "/>
<polyline clip-path="url(#clip850)" style="stroke:#000000; stroke-linecap:round; stroke-linejoin:round; stroke-width:4; stroke-opacity:1; fill:none" points="219.866,597.865 238.764,597.865 "/>
<polyline clip-path="url(#clip850)" style="stroke:#000000; stroke-linecap:round; stroke-linejoin:round; stroke-width:4; stroke-opacity:1; fill:none" points="219.866,400.732 238.764,400.732 "/>
<polyline clip-path="url(#clip850)" style="stroke:#000000; stroke-linecap:round; stroke-linejoin:round; stroke-width:4; stroke-opacity:1; fill:none" points="219.866,203.6 238.764,203.6 "/>
<path clip-path="url(#clip850)" d="M126.691 1372.19 Q123.08 1372.19 121.251 1375.76 Q119.445 1379.3 119.445 1386.43 Q119.445 1393.54 121.251 1397.1 Q123.08 1400.64 126.691 1400.64 Q130.325 1400.64 132.13 1397.1 Q133.959 1393.54 133.959 1386.43 Q133.959 1379.3 132.13 1375.76 Q130.325 1372.19 126.691 1372.19 M126.691 1368.49 Q132.501 1368.49 135.556 1373.1 Q138.635 1377.68 138.635 1386.43 Q138.635 1395.16 135.556 1399.76 Q132.501 1404.35 126.691 1404.35 Q120.88 1404.35 117.802 1399.76 Q114.746 1395.16 114.746 1386.43 Q114.746 1377.68 117.802 1373.1 Q120.88 1368.49 126.691 1368.49 Z" fill="#000000" fill-rule="nonzero" fill-opacity="1" /><path clip-path="url(#clip850)" d="M146.853 1397.8 L151.737 1397.8 L151.737 1403.68 L146.853 1403.68 L146.853 1397.8 Z" fill="#000000" fill-rule="nonzero" fill-opacity="1" /><path clip-path="url(#clip850)" d="M171.922 1372.19 Q168.311 1372.19 166.482 1375.76 Q164.677 1379.3 164.677 1386.43 Q164.677 1393.54 166.482 1397.1 Q168.311 1400.64 171.922 1400.64 Q175.556 1400.64 177.362 1397.1 Q179.19 1393.54 179.19 1386.43 Q179.19 1379.3 177.362 1375.76 Q175.556 1372.19 171.922 1372.19 M171.922 1368.49 Q177.732 1368.49 180.788 1373.1 Q183.866 1377.68 183.866 1386.43 Q183.866 1395.16 180.788 1399.76 Q177.732 1404.35 171.922 1404.35 Q166.112 1404.35 163.033 1399.76 Q159.978 1395.16 159.978 1386.43 Q159.978 1377.68 163.033 1373.1 Q166.112 1368.49 171.922 1368.49 Z" fill="#000000" fill-rule="nonzero" fill-opacity="1" /><path clip-path="url(#clip850)" d="M128.288 1175.06 Q124.677 1175.06 122.848 1178.63 Q121.043 1182.17 121.043 1189.3 Q121.043 1196.4 122.848 1199.97 Q124.677 1203.51 128.288 1203.51 Q131.922 1203.51 133.728 1199.97 Q135.556 1196.4 135.556 1189.3 Q135.556 1182.17 133.728 1178.63 Q131.922 1175.06 128.288 1175.06 M128.288 1171.36 Q134.098 1171.36 137.154 1175.96 Q140.232 1180.55 140.232 1189.3 Q140.232 1198.02 137.154 1202.63 Q134.098 1207.21 128.288 1207.21 Q122.478 1207.21 119.399 1202.63 Q116.343 1198.02 116.343 1189.3 Q116.343 1180.55 119.399 1175.96 Q122.478 1171.36 128.288 1171.36 Z" fill="#000000" fill-rule="nonzero" fill-opacity="1" /><path clip-path="url(#clip850)" d="M148.45 1200.66 L153.334 1200.66 L153.334 1206.54 L148.45 1206.54 L148.45 1200.66 Z" fill="#000000" fill-rule="nonzero" fill-opacity="1" /><path clip-path="url(#clip850)" d="M167.547 1202.61 L183.866 1202.61 L183.866 1206.54 L161.922 1206.54 L161.922 1202.61 Q164.584 1199.85 169.167 1195.22 Q173.774 1190.57 174.954 1189.23 Q177.2 1186.71 178.079 1184.97 Q178.982 1183.21 178.982 1181.52 Q178.982 1178.77 177.038 1177.03 Q175.116 1175.29 172.014 1175.29 Q169.815 1175.29 167.362 1176.06 Q164.931 1176.82 162.153 1178.37 L162.153 1173.65 Q164.977 1172.52 167.431 1171.94 Q169.885 1171.36 171.922 1171.36 Q177.292 1171.36 180.487 1174.04 Q183.681 1176.73 183.681 1181.22 Q183.681 1183.35 182.871 1185.27 Q182.084 1187.17 179.977 1189.76 Q179.399 1190.43 176.297 1193.65 Q173.195 1196.84 167.547 1202.61 Z" fill="#000000" fill-rule="nonzero" fill-opacity="1" /><path clip-path="url(#clip850)" d="M126.205 977.929 Q122.593 977.929 120.765 981.494 Q118.959 985.035 118.959 992.165 Q118.959 999.272 120.765 1002.84 Q122.593 1006.38 126.205 1006.38 Q129.839 1006.38 131.644 1002.84 Q133.473 999.272 133.473 992.165 Q133.473 985.035 131.644 981.494 Q129.839 977.929 126.205 977.929 M126.205 974.225 Q132.015 974.225 135.07 978.832 Q138.149 983.415 138.149 992.165 Q138.149 1000.89 135.07 1005.5 Q132.015 1010.08 126.205 1010.08 Q120.394 1010.08 117.316 1005.5 Q114.26 1000.89 114.26 992.165 Q114.26 983.415 117.316 978.832 Q120.394 974.225 126.205 974.225 Z" fill="#000000" fill-rule="nonzero" fill-opacity="1" /><path clip-path="url(#clip850)" d="M146.366 1003.53 L151.251 1003.53 L151.251 1009.41 L146.366 1009.41 L146.366 1003.53 Z" fill="#000000" fill-rule="nonzero" fill-opacity="1" /><path clip-path="url(#clip850)" d="M174.283 978.924 L162.477 997.373 L174.283 997.373 L174.283 978.924 M173.056 974.85 L178.936 974.85 L178.936 997.373 L183.866 997.373 L183.866 1001.26 L178.936 1001.26 L178.936 1009.41 L174.283 1009.41 L174.283 1001.26 L158.681 1001.26 L158.681 996.748 L173.056 974.85 Z" fill="#000000" fill-rule="nonzero" fill-opacity="1" /><path clip-path="url(#clip850)" d="M126.529 780.796 Q122.918 780.796 121.089 784.361 Q119.283 787.903 119.283 795.032 Q119.283 802.139 121.089 805.704 Q122.918 809.245 126.529 809.245 Q130.163 809.245 131.968 805.704 Q133.797 802.139 133.797 795.032 Q133.797 787.903 131.968 784.361 Q130.163 780.796 126.529 780.796 M126.529 777.093 Q132.339 777.093 135.394 781.699 Q138.473 786.282 138.473 795.032 Q138.473 803.759 135.394 808.366 Q132.339 812.949 126.529 812.949 Q120.718 812.949 117.64 808.366 Q114.584 803.759 114.584 795.032 Q114.584 786.282 117.64 781.699 Q120.718 777.093 126.529 777.093 Z" fill="#000000" fill-rule="nonzero" fill-opacity="1" /><path clip-path="url(#clip850)" d="M146.691 806.398 L151.575 806.398 L151.575 812.278 L146.691 812.278 L146.691 806.398 Z" fill="#000000" fill-rule="nonzero" fill-opacity="1" /><path clip-path="url(#clip850)" d="M172.339 793.134 Q169.19 793.134 167.339 795.287 Q165.51 797.44 165.51 801.19 Q165.51 804.917 167.339 807.093 Q169.19 809.245 172.339 809.245 Q175.487 809.245 177.315 807.093 Q179.167 804.917 179.167 801.19 Q179.167 797.44 177.315 795.287 Q175.487 793.134 172.339 793.134 M181.621 778.482 L181.621 782.741 Q179.862 781.908 178.056 781.468 Q176.274 781.028 174.514 781.028 Q169.885 781.028 167.431 784.153 Q165.001 787.278 164.653 793.597 Q166.019 791.583 168.079 790.519 Q170.139 789.431 172.616 789.431 Q177.825 789.431 180.834 792.602 Q183.866 795.75 183.866 801.19 Q183.866 806.514 180.718 809.731 Q177.57 812.949 172.339 812.949 Q166.343 812.949 163.172 808.366 Q160.001 803.759 160.001 795.032 Q160.001 786.838 163.89 781.977 Q167.778 777.093 174.329 777.093 Q176.089 777.093 177.871 777.44 Q179.676 777.787 181.621 778.482 Z" fill="#000000" fill-rule="nonzero" fill-opacity="1" /><path clip-path="url(#clip850)" d="M126.783 583.664 Q123.172 583.664 121.343 587.229 Q119.538 590.77 119.538 597.9 Q119.538 605.006 121.343 608.571 Q123.172 612.113 126.783 612.113 Q130.417 612.113 132.223 608.571 Q134.052 605.006 134.052 597.9 Q134.052 590.77 132.223 587.229 Q130.417 583.664 126.783 583.664 M126.783 579.96 Q132.593 579.96 135.649 584.567 Q138.728 589.15 138.728 597.9 Q138.728 606.627 135.649 611.233 Q132.593 615.816 126.783 615.816 Q120.973 615.816 117.894 611.233 Q114.839 606.627 114.839 597.9 Q114.839 589.15 117.894 584.567 Q120.973 579.96 126.783 579.96 Z" fill="#000000" fill-rule="nonzero" fill-opacity="1" /><path clip-path="url(#clip850)" d="M146.945 609.265 L151.829 609.265 L151.829 615.145 L146.945 615.145 L146.945 609.265 Z" fill="#000000" fill-rule="nonzero" fill-opacity="1" /><path clip-path="url(#clip850)" d="M172.014 598.733 Q168.681 598.733 166.76 600.516 Q164.862 602.298 164.862 605.423 Q164.862 608.548 166.76 610.33 Q168.681 612.113 172.014 612.113 Q175.348 612.113 177.269 610.33 Q179.19 608.525 179.19 605.423 Q179.19 602.298 177.269 600.516 Q175.371 598.733 172.014 598.733 M167.339 596.742 Q164.329 596.002 162.64 593.941 Q160.973 591.881 160.973 588.918 Q160.973 584.775 163.913 582.367 Q166.876 579.96 172.014 579.96 Q177.176 579.96 180.116 582.367 Q183.056 584.775 183.056 588.918 Q183.056 591.881 181.366 593.941 Q179.7 596.002 176.714 596.742 Q180.093 597.529 181.968 599.821 Q183.866 602.113 183.866 605.423 Q183.866 610.446 180.788 613.131 Q177.732 615.816 172.014 615.816 Q166.297 615.816 163.218 613.131 Q160.163 610.446 160.163 605.423 Q160.163 602.113 162.061 599.821 Q163.959 597.529 167.339 596.742 M165.626 589.358 Q165.626 592.043 167.292 593.548 Q168.982 595.053 172.014 595.053 Q175.024 595.053 176.714 593.548 Q178.426 592.043 178.426 589.358 Q178.426 586.673 176.714 585.168 Q175.024 583.664 172.014 583.664 Q168.982 583.664 167.292 585.168 Q165.626 586.673 165.626 589.358 Z" fill="#000000" fill-rule="nonzero" fill-opacity="1" /><path clip-path="url(#clip850)" d="M117.501 414.077 L125.14 414.077 L125.14 387.712 L116.83 389.378 L116.83 385.119 L125.093 383.452 L129.769 383.452 L129.769 414.077 L137.408 414.077 L137.408 418.012 L117.501 418.012 L117.501 414.077 Z" fill="#000000" fill-rule="nonzero" fill-opacity="1" /><path clip-path="url(#clip850)" d="M146.853 412.133 L151.737 412.133 L151.737 418.012 L146.853 418.012 L146.853 412.133 Z" fill="#000000" fill-rule="nonzero" fill-opacity="1" /><path clip-path="url(#clip850)" d="M171.922 386.531 Q168.311 386.531 166.482 390.096 Q164.677 393.638 164.677 400.767 Q164.677 407.874 166.482 411.438 Q168.311 414.98 171.922 414.98 Q175.556 414.98 177.362 411.438 Q179.19 407.874 179.19 400.767 Q179.19 393.638 177.362 390.096 Q175.556 386.531 171.922 386.531 M171.922 382.827 Q177.732 382.827 180.788 387.434 Q183.866 392.017 183.866 400.767 Q183.866 409.494 180.788 414.1 Q177.732 418.684 171.922 418.684 Q166.112 418.684 163.033 414.1 Q159.978 409.494 159.978 400.767 Q159.978 392.017 163.033 387.434 Q166.112 382.827 171.922 382.827 Z" fill="#000000" fill-rule="nonzero" fill-opacity="1" /><path clip-path="url(#clip850)" d="M119.098 216.945 L126.737 216.945 L126.737 190.579 L118.427 192.246 L118.427 187.986 L126.691 186.32 L131.367 186.32 L131.367 216.945 L139.005 216.945 L139.005 220.88 L119.098 220.88 L119.098 216.945 Z" fill="#000000" fill-rule="nonzero" fill-opacity="1" /><path clip-path="url(#clip850)" d="M148.45 215 L153.334 215 L153.334 220.88 L148.45 220.88 L148.45 215 Z" fill="#000000" fill-rule="nonzero" fill-opacity="1" /><path clip-path="url(#clip850)" d="M167.547 216.945 L183.866 216.945 L183.866 220.88 L161.922 220.88 L161.922 216.945 Q164.584 214.19 169.167 209.56 Q173.774 204.908 174.954 203.565 Q177.2 201.042 178.079 199.306 Q178.982 197.547 178.982 195.857 Q178.982 193.102 177.038 191.366 Q175.116 189.63 172.014 189.63 Q169.815 189.63 167.362 190.394 Q164.931 191.158 162.153 192.709 L162.153 187.986 Q164.977 186.852 167.431 186.273 Q169.885 185.695 171.922 185.695 Q177.292 185.695 180.487 188.38 Q183.681 191.065 183.681 195.556 Q183.681 197.685 182.871 199.607 Q182.084 201.505 179.977 204.097 Q179.399 204.769 176.297 207.986 Q173.195 211.181 167.547 216.945 Z" fill="#000000" fill-rule="nonzero" fill-opacity="1" /><path clip-path="url(#clip850)" d="M29.7248 956.945 L35.1993 956.945 Q33.8307 959.427 33.1623 961.942 Q32.4621 964.424 32.4621 966.971 Q32.4621 972.668 36.0905 975.819 Q39.6872 978.97 46.212 978.97 Q52.7369 978.97 56.3653 975.819 Q59.9619 972.668 59.9619 966.971 Q59.9619 964.424 59.2935 961.942 Q58.5933 959.427 57.2247 956.945 L62.6355 956.945 Q63.7814 959.396 64.3543 962.037 Q64.9272 964.647 64.9272 967.607 Q64.9272 975.66 59.8664 980.402 Q54.8057 985.145 46.212 985.145 Q37.491 985.145 32.4939 980.371 Q27.4968 975.564 27.4968 967.225 Q27.4968 964.52 28.0697 961.942 Q28.6108 959.364 29.7248 956.945 Z" fill="#000000" fill-rule="nonzero" fill-opacity="1" /><path clip-path="url(#clip850)" d="M16.4842 953.094 L16.4842 912.894 L21.895 912.894 L21.895 929.763 L64.0042 929.763 L64.0042 936.224 L21.895 936.224 L21.895 953.094 L16.4842 953.094 Z" fill="#000000" fill-rule="nonzero" fill-opacity="1" /><path clip-path="url(#clip850)" d="M42.4881 877.31 L64.0042 877.31 L64.0042 883.166 L42.679 883.166 Q37.6183 883.166 35.1038 885.14 Q32.5894 887.113 32.5894 891.06 Q32.5894 895.802 35.6131 898.539 Q38.6368 901.277 43.8567 901.277 L64.0042 901.277 L64.0042 907.165 L28.3562 907.165 L28.3562 901.277 L33.8944 901.277 Q30.6797 899.176 29.0883 896.343 Q27.4968 893.479 27.4968 889.755 Q27.4968 883.612 31.3163 880.461 Q35.1038 877.31 42.4881 877.31 Z" fill="#000000" fill-rule="nonzero" fill-opacity="1" /><path clip-path="url(#clip850)" d="M16.4842 871.963 L16.4842 831.763 L21.895 831.763 L21.895 848.632 L64.0042 848.632 L64.0042 855.093 L21.895 855.093 L21.895 871.963 L16.4842 871.963 Z" fill="#000000" fill-rule="nonzero" fill-opacity="1" /><path clip-path="url(#clip850)" d="M14.479 805.632 L14.479 792.137 L19.0304 792.137 L19.0304 799.775 L68.0464 799.775 L68.0464 792.137 L72.5979 792.137 L72.5979 805.632 L14.479 805.632 Z" fill="#000000" fill-rule="nonzero" fill-opacity="1" /><path clip-path="url(#clip850)" d="M42.4881 750.027 L64.0042 750.027 L64.0042 755.884 L42.679 755.884 Q37.6183 755.884 35.1038 757.857 Q32.5894 759.831 32.5894 763.777 Q32.5894 768.52 35.6131 771.257 Q38.6368 773.994 43.8567 773.994 L64.0042 773.994 L64.0042 779.883 L28.3562 779.883 L28.3562 773.994 L33.8944 773.994 Q30.6797 771.894 29.0883 769.061 Q27.4968 766.196 27.4968 762.472 Q27.4968 756.33 31.3163 753.179 Q35.1038 750.027 42.4881 750.027 Z" fill="#000000" fill-rule="nonzero" fill-opacity="1" /><path clip-path="url(#clip850)" d="M45.7664 714.889 Q39.4007 714.889 35.8996 717.531 Q32.3984 720.141 32.3984 724.883 Q32.3984 729.594 35.8996 732.235 Q39.4007 734.845 45.7664 734.845 Q52.1003 734.845 55.6014 732.235 Q59.1026 729.594 59.1026 724.883 Q59.1026 720.141 55.6014 717.531 Q52.1003 714.889 45.7664 714.889 M59.58 709.032 Q68.683 709.032 73.1071 713.075 Q77.5631 717.117 77.5631 725.456 Q77.5631 728.543 77.0857 731.28 Q76.6401 734.018 75.6852 736.596 L69.9879 736.596 Q71.3884 734.018 72.0568 731.503 Q72.7252 728.989 72.7252 726.379 Q72.7252 720.618 69.7015 717.753 Q66.7096 714.889 60.6303 714.889 L57.7339 714.889 Q60.885 716.703 62.4446 719.536 Q64.0042 722.369 64.0042 726.315 Q64.0042 732.872 59.0071 736.882 Q54.01 740.893 45.7664 740.893 Q37.491 740.893 32.4939 736.882 Q27.4968 732.872 27.4968 726.315 Q27.4968 722.369 29.0564 719.536 Q30.616 716.703 33.7671 714.889 L28.3562 714.889 L28.3562 709.032 L59.58 709.032 Z" fill="#000000" fill-rule="nonzero" fill-opacity="1" /><path clip-path="url(#clip850)" d="M16.4842 686.561 L16.4842 681.151 L70.0516 697.701 L70.0516 703.112 L16.4842 686.561 Z" fill="#000000" fill-rule="nonzero" fill-opacity="1" /><path clip-path="url(#clip850)" d="M35.1993 647.253 Q31.2526 645.057 29.3747 642.001 Q27.4968 638.946 27.4968 634.808 Q27.4968 629.238 31.4117 626.215 Q35.2948 623.191 42.4881 623.191 L64.0042 623.191 L64.0042 629.079 L42.679 629.079 Q37.5546 629.079 35.072 630.893 Q32.5894 632.708 32.5894 636.431 Q32.5894 640.983 35.6131 643.625 Q38.6368 646.266 43.8567 646.266 L64.0042 646.266 L64.0042 652.155 L42.679 652.155 Q37.5228 652.155 35.072 653.969 Q32.5894 655.783 32.5894 659.571 Q32.5894 664.059 35.6449 666.7 Q38.6686 669.342 43.8567 669.342 L64.0042 669.342 L64.0042 675.23 L28.3562 675.23 L28.3562 669.342 L33.8944 669.342 Q30.616 667.337 29.0564 664.536 Q27.4968 661.735 27.4968 657.884 Q27.4968 654.001 29.4702 651.295 Q31.4436 648.558 35.1993 647.253 Z" fill="#000000" fill-rule="nonzero" fill-opacity="1" /><path clip-path="url(#clip850)" d="M16.4842 611.255 L16.4842 604.826 L58.5933 604.826 L58.5933 581.686 L64.0042 581.686 L64.0042 611.255 L16.4842 611.255 Z" fill="#000000" fill-rule="nonzero" fill-opacity="1" /><path clip-path="url(#clip850)" d="M14.479 561.507 L72.5979 561.507 L72.5979 575.002 L68.0464 575.002 L68.0464 567.395 L19.0304 567.395 L19.0304 575.002 L14.479 575.002 L14.479 561.507 Z" fill="#000000" fill-rule="nonzero" fill-opacity="1" /><path clip-path="url(#clip850)" d="M1012.63 18.8205 L1012.63 41.5461 L1022.92 41.5461 Q1028.63 41.5461 1031.75 38.5889 Q1034.87 35.6318 1034.87 30.163 Q1034.87 24.7348 1031.75 21.7777 Q1028.63 18.8205 1022.92 18.8205 L1012.63 18.8205 M1004.45 12.096 L1022.92 12.096 Q1033.09 12.096 1038.27 16.714 Q1043.5 21.2916 1043.5 30.163 Q1043.5 39.1155 1038.27 43.6931 Q1033.09 48.2706 1022.92 48.2706 L1012.63 48.2706 L1012.63 72.576 L1004.45 72.576 L1004.45 12.096 Z" fill="#000000" fill-rule="nonzero" fill-opacity="1" /><path clip-path="url(#clip850)" d="M1071.05 49.7694 Q1062.01 49.7694 1058.53 51.8354 Q1055.04 53.9013 1055.04 58.8839 Q1055.04 62.8538 1057.64 65.2034 Q1060.27 67.5124 1064.77 67.5124 Q1070.97 67.5124 1074.69 63.1374 Q1078.46 58.7219 1078.46 51.4303 L1078.46 49.7694 L1071.05 49.7694 M1085.91 46.6907 L1085.91 72.576 L1078.46 72.576 L1078.46 65.6895 Q1075.91 69.8214 1072.1 71.8063 Q1068.29 73.7508 1062.78 73.7508 Q1055.81 73.7508 1051.68 69.8619 Q1047.59 65.9325 1047.59 59.3701 Q1047.59 51.7138 1052.7 47.825 Q1057.84 43.9361 1068.01 43.9361 L1078.46 43.9361 L1078.46 43.2069 Q1078.46 38.0623 1075.06 35.2672 Q1071.69 32.4315 1065.58 32.4315 Q1061.69 32.4315 1058 33.3632 Q1054.32 34.295 1050.91 36.1584 L1050.91 29.2718 Q1055 27.692 1058.85 26.9223 Q1062.7 26.1121 1066.35 26.1121 Q1076.19 26.1121 1081.05 31.2163 Q1085.91 36.3204 1085.91 46.6907 Z" fill="#000000" fill-rule="nonzero" fill-opacity="1" /><path clip-path="url(#clip850)" d="M1108.64 14.324 L1108.64 27.2059 L1123.99 27.2059 L1123.99 32.9987 L1108.64 32.9987 L1108.64 57.6282 Q1108.64 63.1779 1110.14 64.7578 Q1111.68 66.3376 1116.34 66.3376 L1123.99 66.3376 L1123.99 72.576 L1116.34 72.576 Q1107.71 72.576 1104.43 69.3758 Q1101.14 66.1351 1101.14 57.6282 L1101.14 32.9987 L1095.68 32.9987 L1095.68 27.2059 L1101.14 27.2059 L1101.14 14.324 L1108.64 14.324 Z" fill="#000000" fill-rule="nonzero" fill-opacity="1" /><path clip-path="url(#clip850)" d="M1133.79 27.2059 L1141.25 27.2059 L1141.25 72.576 L1133.79 72.576 L1133.79 27.2059 M1133.79 9.54393 L1141.25 9.54393 L1141.25 18.9825 L1133.79 18.9825 L1133.79 9.54393 Z" fill="#000000" fill-rule="nonzero" fill-opacity="1" /><path clip-path="url(#clip850)" d="M1195.65 48.0275 L1195.65 51.6733 L1161.38 51.6733 Q1161.87 59.3701 1166 63.421 Q1170.17 67.4314 1177.58 67.4314 Q1181.88 67.4314 1185.89 66.3781 Q1189.94 65.3249 1193.91 63.2184 L1193.91 70.267 Q1189.9 71.9684 1185.69 72.8596 Q1181.47 73.7508 1177.14 73.7508 Q1166.28 73.7508 1159.92 67.4314 Q1153.6 61.1119 1153.6 50.3365 Q1153.6 39.1965 1159.6 32.6746 Q1165.63 26.1121 1175.84 26.1121 Q1185 26.1121 1190.3 32.0264 Q1195.65 37.9003 1195.65 48.0275 M1188.2 45.84 Q1188.12 39.7232 1184.75 36.0774 Q1181.43 32.4315 1175.92 32.4315 Q1169.69 32.4315 1165.92 35.9558 Q1162.19 39.4801 1161.62 45.8805 L1188.2 45.84 Z" fill="#000000" fill-rule="nonzero" fill-opacity="1" /><path clip-path="url(#clip850)" d="M1245.6 45.1919 L1245.6 72.576 L1238.15 72.576 L1238.15 45.4349 Q1238.15 38.994 1235.63 35.7938 Q1233.12 32.5936 1228.1 32.5936 Q1222.06 32.5936 1218.58 36.4419 Q1215.1 40.2903 1215.1 46.9338 L1215.1 72.576 L1207.6 72.576 L1207.6 27.2059 L1215.1 27.2059 L1215.1 34.2544 Q1217.77 30.163 1221.38 28.1376 Q1225.02 26.1121 1229.76 26.1121 Q1237.58 26.1121 1241.59 30.9732 Q1245.6 35.7938 1245.6 45.1919 Z" fill="#000000" fill-rule="nonzero" fill-opacity="1" /><path clip-path="url(#clip850)" d="M1267.84 14.324 L1267.84 27.2059 L1283.19 27.2059 L1283.19 32.9987 L1267.84 32.9987 L1267.84 57.6282 Q1267.84 63.1779 1269.34 64.7578 Q1270.88 66.3376 1275.54 66.3376 L1283.19 66.3376 L1283.19 72.576 L1275.54 72.576 Q1266.91 72.576 1263.63 69.3758 Q1260.34 66.1351 1260.34 57.6282 L1260.34 32.9987 L1254.88 32.9987 L1254.88 27.2059 L1260.34 27.2059 L1260.34 14.324 L1267.84 14.324 Z" fill="#000000" fill-rule="nonzero" fill-opacity="1" /><path clip-path="url(#clip850)" d="M1357.08 45.1919 L1357.08 72.576 L1349.63 72.576 L1349.63 45.4349 Q1349.63 38.994 1347.12 35.7938 Q1344.6 32.5936 1339.58 32.5936 Q1333.54 32.5936 1330.06 36.4419 Q1326.58 40.2903 1326.58 46.9338 L1326.58 72.576 L1319.08 72.576 L1319.08 27.2059 L1326.58 27.2059 L1326.58 34.2544 Q1329.25 30.163 1332.86 28.1376 Q1336.5 26.1121 1341.24 26.1121 Q1349.06 26.1121 1353.07 30.9732 Q1357.08 35.7938 1357.08 45.1919 Z" fill="#000000" fill-rule="nonzero" fill-opacity="1" /><path clip-path="url(#clip850)" d="M1374.42 65.6895 L1387.79 65.6895 L1387.79 19.5497 L1373.24 22.4663 L1373.24 15.0127 L1387.71 12.096 L1395.89 12.096 L1395.89 65.6895 L1409.26 65.6895 L1409.26 72.576 L1374.42 72.576 L1374.42 65.6895 Z" fill="#000000" fill-rule="nonzero" fill-opacity="1" /><path clip-path="url(#clip850)" d="M1448.27 19.2256 L1427.61 51.5113 L1448.27 51.5113 L1448.27 19.2256 M1446.12 12.096 L1456.41 12.096 L1456.41 51.5113 L1465.04 51.5113 L1465.04 58.3168 L1456.41 58.3168 L1456.41 72.576 L1448.27 72.576 L1448.27 58.3168 L1420.96 58.3168 L1420.96 50.4176 L1446.12 12.096 Z" fill="#000000" fill-rule="nonzero" fill-opacity="1" /><path clip-path="url(#clip850)" d="M1476.5 12.096 L1515.39 12.096 L1515.39 15.5798 L1493.43 72.576 L1484.89 72.576 L1505.55 18.9825 L1476.5 18.9825 L1476.5 12.096 Z" fill="#000000" fill-rule="nonzero" fill-opacity="1" /><path clip-path="url(#clip850)" d="M1529.28 12.096 L1568.17 12.096 L1568.17 15.5798 L1546.22 72.576 L1537.67 72.576 L1558.33 18.9825 L1529.28 18.9825 L1529.28 12.096 Z" fill="#000000" fill-rule="nonzero" fill-opacity="1" /><polyline clip-path="url(#clip851)" style="stroke:#009af9; stroke-linecap:round; stroke-linejoin:round; stroke-width:8; stroke-opacity:1; fill:none" points="280.231,160.256 303.904,277.142 327.576,342.471 351.248,392.54 374.921,433.529 398.593,467.457 422.266,495.591 445.938,518.933 469.611,538.334 493.283,554.408 516.956,567.828 540.628,579.012 564.301,588.017 587.973,596.3 611.646,601.854 635.318,608.048 658.991,611.994 682.663,615.711 706.336,619.28 730.008,621.426 753.68,624.049 777.353,625.91 801.025,627.341 824.698,629.045 848.37,629.866 872.043,631.219 895.715,631.953 919.388,632.722 943.06,633.614 966.733,633.832 990.405,634.843 1014.08,634.93 1037.75,635.669 1061.42,636.048 1085.1,636.247 1108.77,636.96 1132.44,636.857 1156.11,637.597 1179.78,637.694 1203.46,638.021 1227.13,638.499 1250.8,638.405 1274.47,639.123 1298.15,639.018 1321.82,639.54 1345.49,639.781 1369.16,639.844 1392.84,640.451 1416.51,640.258 1440.18,640.928 1463.85,640.955 1487.53,641.242 1511.2,641.669 1534.87,641.546 1558.54,642.233 1582.22,642.098 1605.89,642.609 1629.56,642.822 1653.23,642.884 1676.91,643.469 1700.58,643.269 1724.25,643.935 1747.92,643.941 1771.6,644.241 1795.27,644.645 1818.94,644.533 1842.61,645.208 1866.29,645.06 1889.96,645.588 1913.63,645.775 1937.3,645.862 1960.98,646.425 1984.65,646.227 2008.32,646.9 2031.99,646.881 2055.67,647.213 2079.34,647.585 2103.01,647.497 2126.68,648.16 2150.36,647.994 2174.03,648.553 2197.7,648.701 2221.37,648.829 2245.05,649.36 2268.72,649.172 2292.39,649.291 "/>
<polyline clip-path="url(#clip851)" style="stroke:#e26f46; stroke-linecap:round; stroke-linejoin:round; stroke-width:8; stroke-opacity:1; fill:none" points="280.231,347.459 303.904,357.171 327.576,399.079 351.248,438.216 374.921,471.24 398.593,498.708 422.266,521.514 445.938,540.453 469.611,556.156 493.283,569.248 516.956,580.066 540.628,589.044 564.301,596.845 587.973,602.513 611.646,608.696 635.318,612.199 658.991,616.459 682.663,619.596 706.336,621.756 730.008,624.505 753.68,625.962 777.353,627.593 801.025,629.151 824.698,629.974 848.37,631.377 872.043,631.906 895.715,632.848 919.388,633.544 943.06,633.936 966.733,634.907 990.405,634.91 1014.08,635.806 1037.75,635.92 1061.42,636.354 1085.1,636.925 1108.77,636.899 1132.44,637.709 1156.11,637.583 1179.78,638.12 1203.46,638.389 1227.13,638.478 1250.8,639.165 1274.47,638.969 1298.15,639.645 1321.82,639.641 1345.49,639.929 1369.16,640.404 1392.84,640.29 1416.51,641.029 1440.18,640.839 1463.85,641.337 1487.53,641.553 1511.2,641.617 1534.87,642.268 1558.54,642.051 1582.22,642.712 1605.89,642.681 1629.56,642.968 1653.23,643.416 1676.91,643.303 1700.58,644.031 1724.25,643.83 1747.92,644.335 1771.6,644.525 1795.27,644.604 1818.94,645.236 1842.61,645.022 1866.29,645.692 1889.96,645.636 1913.63,645.946 1937.3,646.363 1960.98,646.269 1984.65,646.99 2008.32,646.778 2031.99,647.308 2055.67,647.46 2079.34,647.57 2103.01,648.173 2126.68,647.971 2150.36,648.656 2174.03,648.566 2197.7,648.914 2221.37,649.284 2245.05,649.223 2268.72,649.931 2292.39,649.914 "/>
<polyline clip-path="url(#clip851)" style="stroke:#3da44d; stroke-linecap:round; stroke-linejoin:round; stroke-width:8; stroke-opacity:1; fill:none" points="280.231,1386.4 303.904,1259.86 327.576,1152.81 351.248,1063.88 374.921,990.228 398.593,929.26 422.266,878.802 445.938,837.052 469.611,802.514 493.283,773.948 516.956,750.334 540.628,730.819 564.301,714.676 587.973,701.404 611.646,690.356 635.318,681.361 658.991,673.863 682.663,667.726 706.336,662.717 730.008,658.549 753.68,655.198 777.353,652.439 801.025,650.185 824.698,648.395 848.37,646.91 872.043,645.767 895.715,644.833 919.388,644.109 943.06,643.568 966.733,643.122 990.405,642.852 1014.08,642.613 1037.75,642.503 1061.42,642.434 1085.1,642.408 1108.77,642.466 1132.44,642.503 1156.11,642.632 1179.78,642.742 1203.46,642.889 1227.13,643.066 1250.8,643.216 1274.47,643.437 1298.15,643.609 1321.82,643.834 1345.49,644.047 1369.16,644.252 1392.84,644.501 1416.51,644.696 1440.18,644.957 1463.85,645.174 1487.53,645.412 1511.2,645.662 1534.87,645.874 1558.54,646.145 1582.22,646.358 1605.89,646.619 1629.56,646.859 1653.23,647.088 1676.91,647.356 1700.58,647.566 1724.25,647.841 1747.92,648.067 1771.6,648.315 1795.27,648.571 1818.94,648.789 1842.61,649.064 1866.29,649.28 1889.96,649.545 1913.63,649.785 1937.3,650.018 1960.98,650.285 1984.65,650.497 2008.32,650.772 2031.99,650.997 2055.67,651.248 2079.34,651.501 2103.01,651.721 2126.68,651.995 2150.36,652.209 2174.03,652.476 2197.7,652.712 2221.37,652.947 2245.05,653.212 2268.72,653.424 2292.39,653.481 "/>
<circle clip-path="url(#clip851)" cx="436.864" cy="794.998" r="18" fill="#c271d2" fill-rule="evenodd" fill-opacity="1" stroke="#000000" stroke-opacity="1" stroke-width="3.2"/>
<circle clip-path="url(#clip851)" cx="663.331" cy="745.715" r="18" fill="#c271d2" fill-rule="evenodd" fill-opacity="1" stroke="#000000" stroke-opacity="1" stroke-width="3.2"/>
<circle clip-path="url(#clip851)" cx="1545.92" cy="666.861" r="18" fill="#c271d2" fill-rule="evenodd" fill-opacity="1" stroke="#000000" stroke-opacity="1" stroke-width="3.2"/>
<circle clip-path="url(#clip851)" cx="1801.98" cy="578.152" r="18" fill="#c271d2" fill-rule="evenodd" fill-opacity="1" stroke="#000000" stroke-opacity="1" stroke-width="3.2"/>
<circle clip-path="url(#clip851)" cx="2013.45" cy="637.292" r="18" fill="#c271d2" fill-rule="evenodd" fill-opacity="1" stroke="#000000" stroke-opacity="1" stroke-width="3.2"/>
<path clip-path="url(#clip850)" d="M1719 425.996 L2281.66 425.996 L2281.66 166.796 L1719 166.796  Z" fill="#ffffff" fill-rule="evenodd" fill-opacity="1"/>
<polyline clip-path="url(#clip850)" style="stroke:#000000; stroke-linecap:round; stroke-linejoin:round; stroke-width:4; stroke-opacity:1; fill:none" points="1719,425.996 2281.66,425.996 2281.66,166.796 1719,166.796 1719,425.996 "/>
<polyline clip-path="url(#clip850)" style="stroke:#009af9; stroke-linecap:round; stroke-linejoin:round; stroke-width:8; stroke-opacity:1; fill:none" points="1742.7,218.636 1884.89,218.636 "/>
<path clip-path="url(#clip850)" d="M1930.83 202.49 L1930.83 207.05 Q1928.17 205.777 1925.81 205.152 Q1923.45 204.527 1921.25 204.527 Q1917.43 204.527 1915.35 206.008 Q1913.29 207.49 1913.29 210.221 Q1913.29 212.513 1914.65 213.694 Q1916.04 214.851 1919.88 215.569 L1922.71 216.147 Q1927.94 217.143 1930.42 219.666 Q1932.92 222.166 1932.92 226.379 Q1932.92 231.402 1929.54 233.994 Q1926.18 236.587 1919.68 236.587 Q1917.22 236.587 1914.44 236.031 Q1911.69 235.476 1908.73 234.388 L1908.73 229.573 Q1911.57 231.17 1914.31 231.981 Q1917.04 232.791 1919.68 232.791 Q1923.68 232.791 1925.86 231.217 Q1928.03 229.643 1928.03 226.726 Q1928.03 224.18 1926.46 222.744 Q1924.91 221.309 1921.34 220.592 L1918.5 220.036 Q1913.26 218.995 1910.93 216.772 Q1908.59 214.55 1908.59 210.592 Q1908.59 206.008 1911.81 203.37 Q1915.05 200.731 1920.72 200.731 Q1923.15 200.731 1925.67 201.171 Q1928.19 201.61 1930.83 202.49 Z" fill="#000000" fill-rule="nonzero" fill-opacity="1" /><path clip-path="url(#clip850)" d="M1951.81 222.883 Q1946.64 222.883 1944.65 224.064 Q1942.66 225.244 1942.66 228.092 Q1942.66 230.36 1944.14 231.703 Q1945.65 233.022 1948.22 233.022 Q1951.76 233.022 1953.89 230.522 Q1956.04 227.999 1956.04 223.832 L1956.04 222.883 L1951.81 222.883 M1960.3 221.124 L1960.3 235.916 L1956.04 235.916 L1956.04 231.981 Q1954.58 234.342 1952.41 235.476 Q1950.23 236.587 1947.08 236.587 Q1943.1 236.587 1940.74 234.365 Q1938.4 232.119 1938.4 228.369 Q1938.4 223.994 1941.32 221.772 Q1944.26 219.55 1950.07 219.55 L1956.04 219.55 L1956.04 219.133 Q1956.04 216.194 1954.1 214.596 Q1952.18 212.976 1948.68 212.976 Q1946.46 212.976 1944.35 213.508 Q1942.24 214.041 1940.3 215.106 L1940.3 211.17 Q1942.64 210.268 1944.84 209.828 Q1947.04 209.365 1949.12 209.365 Q1954.74 209.365 1957.52 212.282 Q1960.3 215.198 1960.3 221.124 Z" fill="#000000" fill-rule="nonzero" fill-opacity="1" /><path clip-path="url(#clip850)" d="M1984.1 213.971 Q1983.38 213.555 1982.52 213.37 Q1981.69 213.161 1980.67 213.161 Q1977.06 213.161 1975.12 215.522 Q1973.19 217.86 1973.19 222.258 L1973.19 235.916 L1968.91 235.916 L1968.91 209.99 L1973.19 209.99 L1973.19 214.018 Q1974.54 211.657 1976.69 210.522 Q1978.84 209.365 1981.92 209.365 Q1982.36 209.365 1982.89 209.434 Q1983.43 209.481 1984.07 209.596 L1984.1 213.971 Z" fill="#000000" fill-rule="nonzero" fill-opacity="1" /><path clip-path="url(#clip850)" d="M2006.18 210.985 L2006.18 214.967 Q2004.37 213.971 2002.55 213.485 Q2000.74 212.976 1998.89 212.976 Q1994.74 212.976 1992.45 215.615 Q1990.16 218.231 1990.16 222.976 Q1990.16 227.721 1992.45 230.36 Q1994.74 232.976 1998.89 232.976 Q2000.74 232.976 2002.55 232.49 Q2004.37 231.981 2006.18 230.985 L2006.18 234.92 Q2004.4 235.754 2002.48 236.17 Q2000.58 236.587 1998.43 236.587 Q1992.57 236.587 1989.12 232.906 Q1985.67 229.226 1985.67 222.976 Q1985.67 216.633 1989.14 212.999 Q1992.64 209.365 1998.7 209.365 Q2000.67 209.365 2002.55 209.782 Q2004.42 210.175 2006.18 210.985 Z" fill="#000000" fill-rule="nonzero" fill-opacity="1" /><path clip-path="url(#clip850)" d="M2023.63 212.976 Q2020.21 212.976 2018.22 215.661 Q2016.23 218.323 2016.23 222.976 Q2016.23 227.629 2018.19 230.314 Q2020.18 232.976 2023.63 232.976 Q2027.04 232.976 2029.03 230.291 Q2031.02 227.606 2031.02 222.976 Q2031.02 218.37 2029.03 215.684 Q2027.04 212.976 2023.63 212.976 M2023.63 209.365 Q2029.19 209.365 2032.36 212.976 Q2035.53 216.587 2035.53 222.976 Q2035.53 229.342 2032.36 232.976 Q2029.19 236.587 2023.63 236.587 Q2018.05 236.587 2014.88 232.976 Q2011.74 229.342 2011.74 222.976 Q2011.74 216.587 2014.88 212.976 Q2018.05 209.365 2023.63 209.365 Z" fill="#000000" fill-rule="nonzero" fill-opacity="1" /><path clip-path="url(#clip850)" d="M2062.78 214.967 Q2064.37 212.096 2066.6 210.731 Q2068.82 209.365 2071.83 209.365 Q2075.88 209.365 2078.08 212.212 Q2080.28 215.036 2080.28 220.268 L2080.28 235.916 L2075.99 235.916 L2075.99 220.407 Q2075.99 216.68 2074.67 214.874 Q2073.36 213.069 2070.65 213.069 Q2067.34 213.069 2065.42 215.268 Q2063.49 217.467 2063.49 221.263 L2063.49 235.916 L2059.21 235.916 L2059.21 220.407 Q2059.21 216.657 2057.89 214.874 Q2056.57 213.069 2053.82 213.069 Q2050.55 213.069 2048.63 215.291 Q2046.71 217.49 2046.71 221.263 L2046.71 235.916 L2042.43 235.916 L2042.43 209.99 L2046.71 209.99 L2046.71 214.018 Q2048.17 211.633 2050.21 210.499 Q2052.24 209.365 2055.05 209.365 Q2057.87 209.365 2059.84 210.8 Q2061.83 212.235 2062.78 214.967 Z" fill="#000000" fill-rule="nonzero" fill-opacity="1" /><path clip-path="url(#clip850)" d="M2110.95 221.888 L2110.95 223.971 L2091.36 223.971 Q2091.64 228.369 2094 230.684 Q2096.39 232.976 2100.62 232.976 Q2103.08 232.976 2105.37 232.374 Q2107.68 231.772 2109.95 230.569 L2109.95 234.596 Q2107.66 235.568 2105.25 236.078 Q2102.85 236.587 2100.37 236.587 Q2094.17 236.587 2090.53 232.976 Q2086.92 229.365 2086.92 223.207 Q2086.92 216.842 2090.35 213.115 Q2093.8 209.365 2099.63 209.365 Q2104.86 209.365 2107.89 212.745 Q2110.95 216.101 2110.95 221.888 M2106.69 220.638 Q2106.64 217.143 2104.72 215.059 Q2102.82 212.976 2099.67 212.976 Q2096.11 212.976 2093.96 214.99 Q2091.83 217.004 2091.5 220.661 L2106.69 220.638 Z" fill="#000000" fill-rule="nonzero" fill-opacity="1" /><path clip-path="url(#clip850)" d="M2132.96 213.971 Q2132.24 213.555 2131.39 213.37 Q2130.55 213.161 2129.54 213.161 Q2125.92 213.161 2123.98 215.522 Q2122.06 217.86 2122.06 222.258 L2122.06 235.916 L2117.78 235.916 L2117.78 209.99 L2122.06 209.99 L2122.06 214.018 Q2123.4 211.657 2125.55 210.522 Q2127.71 209.365 2130.79 209.365 Q2131.23 209.365 2131.76 209.434 Q2132.29 209.481 2132.94 209.596 L2132.96 213.971 Z" fill="#000000" fill-rule="nonzero" fill-opacity="1" /><path clip-path="url(#clip850)" d="M2158.56 221.888 L2158.56 223.971 L2138.98 223.971 Q2139.26 228.369 2141.62 230.684 Q2144 232.976 2148.24 232.976 Q2150.69 232.976 2152.98 232.374 Q2155.3 231.772 2157.57 230.569 L2157.57 234.596 Q2155.28 235.568 2152.87 236.078 Q2150.46 236.587 2147.98 236.587 Q2141.78 236.587 2138.15 232.976 Q2134.54 229.365 2134.54 223.207 Q2134.54 216.842 2137.96 213.115 Q2141.41 209.365 2147.24 209.365 Q2152.48 209.365 2155.51 212.745 Q2158.56 216.101 2158.56 221.888 M2154.3 220.638 Q2154.26 217.143 2152.34 215.059 Q2150.44 212.976 2147.29 212.976 Q2143.73 212.976 2141.57 214.99 Q2139.44 217.004 2139.12 220.661 L2154.3 220.638 Z" fill="#000000" fill-rule="nonzero" fill-opacity="1" /><polyline clip-path="url(#clip850)" style="stroke:#e26f46; stroke-linecap:round; stroke-linejoin:round; stroke-width:8; stroke-opacity:1; fill:none" points="1742.7,270.476 1884.89,270.476 "/>
<path clip-path="url(#clip850)" d="M1936.46 255.858 L1936.46 260.788 Q1934.1 258.589 1931.41 257.501 Q1928.75 256.413 1925.74 256.413 Q1919.81 256.413 1916.67 260.048 Q1913.52 263.659 1913.52 270.51 Q1913.52 277.339 1916.67 280.973 Q1919.81 284.584 1925.74 284.584 Q1928.75 284.584 1931.41 283.496 Q1934.1 282.409 1936.46 280.209 L1936.46 285.094 Q1934 286.76 1931.25 287.594 Q1928.52 288.427 1925.46 288.427 Q1917.62 288.427 1913.1 283.635 Q1908.59 278.821 1908.59 270.51 Q1908.59 262.177 1913.1 257.386 Q1917.62 252.571 1925.46 252.571 Q1928.56 252.571 1931.3 253.404 Q1934.05 254.214 1936.46 255.858 Z" fill="#000000" fill-rule="nonzero" fill-opacity="1" /><path clip-path="url(#clip850)" d="M1954.28 290.163 Q1952.48 294.793 1950.76 296.205 Q1949.05 297.617 1946.18 297.617 L1942.78 297.617 L1942.78 294.052 L1945.28 294.052 Q1947.04 294.052 1948.01 293.219 Q1948.98 292.385 1950.16 289.283 L1950.93 287.339 L1940.44 261.83 L1944.95 261.83 L1953.06 282.108 L1961.16 261.83 L1965.67 261.83 L1954.28 290.163 Z" fill="#000000" fill-rule="nonzero" fill-opacity="1" /><path clip-path="url(#clip850)" d="M1975.76 254.469 L1975.76 261.83 L1984.54 261.83 L1984.54 265.14 L1975.76 265.14 L1975.76 279.214 Q1975.76 282.385 1976.62 283.288 Q1977.5 284.191 1980.16 284.191 L1984.54 284.191 L1984.54 287.756 L1980.16 287.756 Q1975.23 287.756 1973.36 285.927 Q1971.48 284.075 1971.48 279.214 L1971.48 265.14 L1968.36 265.14 L1968.36 261.83 L1971.48 261.83 L1971.48 254.469 L1975.76 254.469 Z" fill="#000000" fill-rule="nonzero" fill-opacity="1" /><path clip-path="url(#clip850)" d="M2000.18 264.816 Q1996.76 264.816 1994.77 267.501 Q1992.78 270.163 1992.78 274.816 Q1992.78 279.469 1994.74 282.154 Q1996.74 284.816 2000.18 284.816 Q2003.59 284.816 2005.58 282.131 Q2007.57 279.446 2007.57 274.816 Q2007.57 270.21 2005.58 267.524 Q2003.59 264.816 2000.18 264.816 M2000.18 261.205 Q2005.74 261.205 2008.91 264.816 Q2012.08 268.427 2012.08 274.816 Q2012.08 281.182 2008.91 284.816 Q2005.74 288.427 2000.18 288.427 Q1994.61 288.427 1991.43 284.816 Q1988.29 281.182 1988.29 274.816 Q1988.29 268.427 1991.43 264.816 Q1994.61 261.205 2000.18 261.205 Z" fill="#000000" fill-rule="nonzero" fill-opacity="1" /><path clip-path="url(#clip850)" d="M2035.67 262.594 L2035.67 266.622 Q2033.86 265.696 2031.92 265.233 Q2029.98 264.77 2027.89 264.77 Q2024.72 264.77 2023.12 265.742 Q2021.55 266.714 2021.55 268.659 Q2021.55 270.14 2022.68 270.997 Q2023.82 271.83 2027.24 272.594 L2028.7 272.918 Q2033.24 273.89 2035.14 275.672 Q2037.06 277.432 2037.06 280.603 Q2037.06 284.214 2034.19 286.321 Q2031.34 288.427 2026.34 288.427 Q2024.26 288.427 2021.99 288.01 Q2019.74 287.617 2017.24 286.807 L2017.24 282.409 Q2019.61 283.635 2021.9 284.26 Q2024.19 284.862 2026.43 284.862 Q2029.44 284.862 2031.06 283.844 Q2032.68 282.802 2032.68 280.927 Q2032.68 279.191 2031.5 278.265 Q2030.35 277.339 2026.39 276.483 L2024.91 276.135 Q2020.95 275.302 2019.19 273.589 Q2017.43 271.853 2017.43 268.844 Q2017.43 265.186 2020.02 263.196 Q2022.61 261.205 2027.38 261.205 Q2029.74 261.205 2031.83 261.552 Q2033.91 261.899 2035.67 262.594 Z" fill="#000000" fill-rule="nonzero" fill-opacity="1" /><path clip-path="url(#clip850)" d="M2053.89 264.816 Q2050.46 264.816 2048.47 267.501 Q2046.48 270.163 2046.48 274.816 Q2046.48 279.469 2048.45 282.154 Q2050.44 284.816 2053.89 284.816 Q2057.29 284.816 2059.28 282.131 Q2061.27 279.446 2061.27 274.816 Q2061.27 270.21 2059.28 267.524 Q2057.29 264.816 2053.89 264.816 M2053.89 261.205 Q2059.44 261.205 2062.61 264.816 Q2065.79 268.427 2065.79 274.816 Q2065.79 281.182 2062.61 284.816 Q2059.44 288.427 2053.89 288.427 Q2048.31 288.427 2045.14 284.816 Q2041.99 281.182 2041.99 274.816 Q2041.99 268.427 2045.14 264.816 Q2048.31 261.205 2053.89 261.205 Z" fill="#000000" fill-rule="nonzero" fill-opacity="1" /><path clip-path="url(#clip850)" d="M2072.85 251.737 L2077.11 251.737 L2077.11 287.756 L2072.85 287.756 L2072.85 251.737 Z" fill="#000000" fill-rule="nonzero" fill-opacity="1" /><polyline clip-path="url(#clip850)" style="stroke:#3da44d; stroke-linecap:round; stroke-linejoin:round; stroke-width:8; stroke-opacity:1; fill:none" points="1742.7,322.316 1884.89,322.316 "/>
<path clip-path="url(#clip850)" d="M1913.26 323.091 L1913.26 335.753 L1920.76 335.753 Q1924.54 335.753 1926.34 334.202 Q1928.17 332.628 1928.17 329.411 Q1928.17 326.17 1926.34 324.642 Q1924.54 323.091 1920.76 323.091 L1913.26 323.091 M1913.26 308.878 L1913.26 319.295 L1920.18 319.295 Q1923.61 319.295 1925.28 318.022 Q1926.97 316.725 1926.97 314.087 Q1926.97 311.471 1925.28 310.175 Q1923.61 308.878 1920.18 308.878 L1913.26 308.878 M1908.59 305.036 L1920.53 305.036 Q1925.88 305.036 1928.77 307.258 Q1931.67 309.48 1931.67 313.577 Q1931.67 316.749 1930.18 318.624 Q1928.7 320.499 1925.83 320.962 Q1929.28 321.702 1931.18 324.063 Q1933.1 326.401 1933.1 329.92 Q1933.1 334.549 1929.95 337.073 Q1926.81 339.596 1921 339.596 L1908.59 339.596 L1908.59 305.036 Z" fill="#000000" fill-rule="nonzero" fill-opacity="1" /><path clip-path="url(#clip850)" d="M1940.93 303.577 L1945.18 303.577 L1945.18 339.596 L1940.93 339.596 L1940.93 303.577 Z" fill="#000000" fill-rule="nonzero" fill-opacity="1" /><path clip-path="url(#clip850)" d="M1964.14 316.656 Q1960.72 316.656 1958.73 319.341 Q1956.74 322.003 1956.74 326.656 Q1956.74 331.309 1958.7 333.994 Q1960.69 336.656 1964.14 336.656 Q1967.55 336.656 1969.54 333.971 Q1971.53 331.286 1971.53 326.656 Q1971.53 322.05 1969.54 319.364 Q1967.55 316.656 1964.14 316.656 M1964.14 313.045 Q1969.7 313.045 1972.87 316.656 Q1976.04 320.267 1976.04 326.656 Q1976.04 333.022 1972.87 336.656 Q1969.7 340.267 1964.14 340.267 Q1958.56 340.267 1955.39 336.656 Q1952.24 333.022 1952.24 326.656 Q1952.24 320.267 1955.39 316.656 Q1958.56 313.045 1964.14 313.045 Z" fill="#000000" fill-rule="nonzero" fill-opacity="1" /><path clip-path="url(#clip850)" d="M1993.15 316.656 Q1989.72 316.656 1987.73 319.341 Q1985.74 322.003 1985.74 326.656 Q1985.74 331.309 1987.71 333.994 Q1989.7 336.656 1993.15 336.656 Q1996.55 336.656 1998.54 333.971 Q2000.53 331.286 2000.53 326.656 Q2000.53 322.05 1998.54 319.364 Q1996.55 316.656 1993.15 316.656 M1993.15 313.045 Q1998.7 313.045 2001.87 316.656 Q2005.05 320.267 2005.05 326.656 Q2005.05 333.022 2001.87 336.656 Q1998.7 340.267 1993.15 340.267 Q1987.57 340.267 1984.4 336.656 Q1981.25 333.022 1981.25 326.656 Q1981.25 320.267 1984.4 316.656 Q1987.57 313.045 1993.15 313.045 Z" fill="#000000" fill-rule="nonzero" fill-opacity="1" /><path clip-path="url(#clip850)" d="M2029.17 317.605 L2029.17 303.577 L2033.42 303.577 L2033.42 339.596 L2029.17 339.596 L2029.17 335.707 Q2027.82 338.022 2025.76 339.156 Q2023.73 340.267 2020.86 340.267 Q2016.16 340.267 2013.19 336.517 Q2010.25 332.767 2010.25 326.656 Q2010.25 320.545 2013.19 316.795 Q2016.16 313.045 2020.86 313.045 Q2023.73 313.045 2025.76 314.179 Q2027.82 315.29 2029.17 317.605 M2014.65 326.656 Q2014.65 331.355 2016.57 334.04 Q2018.52 336.702 2021.9 336.702 Q2025.28 336.702 2027.22 334.04 Q2029.17 331.355 2029.17 326.656 Q2029.17 321.957 2027.22 319.295 Q2025.28 316.61 2021.9 316.61 Q2018.52 316.61 2016.57 319.295 Q2014.65 321.957 2014.65 326.656 Z" fill="#000000" fill-rule="nonzero" fill-opacity="1" /><circle clip-path="url(#clip850)" cx="1813.79" cy="374.156" r="20.9455" fill="#c271d2" fill-rule="evenodd" fill-opacity="1" stroke="#000000" stroke-opacity="1" stroke-width="3.72364"/>
<path clip-path="url(#clip850)" d="M1924.61 360.047 Q1919.51 360.047 1916.5 363.843 Q1913.52 367.64 1913.52 374.19 Q1913.52 380.718 1916.5 384.514 Q1919.51 388.311 1924.61 388.311 Q1929.7 388.311 1932.66 384.514 Q1935.65 380.718 1935.65 374.19 Q1935.65 367.64 1932.66 363.843 Q1929.7 360.047 1924.61 360.047 M1924.61 356.251 Q1931.87 356.251 1936.23 361.135 Q1940.58 365.996 1940.58 374.19 Q1940.58 382.362 1936.23 387.246 Q1931.87 392.107 1924.61 392.107 Q1917.31 392.107 1912.94 387.246 Q1908.59 382.385 1908.59 374.19 Q1908.59 365.996 1912.94 361.135 Q1917.31 356.251 1924.61 356.251 Z" fill="#000000" fill-rule="nonzero" fill-opacity="1" /><path clip-path="url(#clip850)" d="M1966.32 378.496 Q1966.32 373.797 1964.37 371.135 Q1962.45 368.45 1959.07 368.45 Q1955.69 368.45 1953.75 371.135 Q1951.83 373.797 1951.83 378.496 Q1951.83 383.195 1953.75 385.88 Q1955.69 388.542 1959.07 388.542 Q1962.45 388.542 1964.37 385.88 Q1966.32 383.195 1966.32 378.496 M1951.83 369.445 Q1953.17 367.13 1955.21 366.019 Q1957.27 364.885 1960.12 364.885 Q1964.84 364.885 1967.78 368.635 Q1970.74 372.385 1970.74 378.496 Q1970.74 384.607 1967.78 388.357 Q1964.84 392.107 1960.12 392.107 Q1957.27 392.107 1955.21 390.996 Q1953.17 389.862 1951.83 387.547 L1951.83 391.436 L1947.55 391.436 L1947.55 355.417 L1951.83 355.417 L1951.83 369.445 Z" fill="#000000" fill-rule="nonzero" fill-opacity="1" /><path clip-path="url(#clip850)" d="M1994.33 366.274 L1994.33 370.302 Q1992.52 369.376 1990.58 368.913 Q1988.63 368.45 1986.55 368.45 Q1983.38 368.45 1981.78 369.422 Q1980.21 370.394 1980.21 372.339 Q1980.21 373.82 1981.34 374.677 Q1982.48 375.51 1985.9 376.274 L1987.36 376.598 Q1991.9 377.57 1993.8 379.352 Q1995.72 381.112 1995.72 384.283 Q1995.72 387.894 1992.85 390.001 Q1990 392.107 1985 392.107 Q1982.92 392.107 1980.65 391.69 Q1978.4 391.297 1975.9 390.487 L1975.9 386.089 Q1978.26 387.315 1980.55 387.94 Q1982.85 388.542 1985.09 388.542 Q1988.1 388.542 1989.72 387.524 Q1991.34 386.482 1991.34 384.607 Q1991.34 382.871 1990.16 381.945 Q1989 381.019 1985.05 380.163 L1983.56 379.815 Q1979.61 378.982 1977.85 377.269 Q1976.09 375.533 1976.09 372.524 Q1976.09 368.866 1978.68 366.876 Q1981.27 364.885 1986.04 364.885 Q1988.4 364.885 1990.49 365.232 Q1992.57 365.579 1994.33 366.274 Z" fill="#000000" fill-rule="nonzero" fill-opacity="1" /><path clip-path="url(#clip850)" d="M2024.68 377.408 L2024.68 379.491 L2005.09 379.491 Q2005.37 383.889 2007.73 386.204 Q2010.11 388.496 2014.35 388.496 Q2016.8 388.496 2019.1 387.894 Q2021.41 387.292 2023.68 386.089 L2023.68 390.116 Q2021.39 391.088 2018.98 391.598 Q2016.57 392.107 2014.1 392.107 Q2007.89 392.107 2004.26 388.496 Q2000.65 384.885 2000.65 378.727 Q2000.65 372.362 2004.07 368.635 Q2007.52 364.885 2013.36 364.885 Q2018.59 364.885 2021.62 368.265 Q2024.68 371.621 2024.68 377.408 M2020.42 376.158 Q2020.37 372.663 2018.45 370.579 Q2016.55 368.496 2013.4 368.496 Q2009.84 368.496 2007.68 370.51 Q2005.55 372.524 2005.23 376.181 L2020.42 376.158 Z" fill="#000000" fill-rule="nonzero" fill-opacity="1" /><path clip-path="url(#clip850)" d="M2046.69 369.491 Q2045.97 369.075 2045.11 368.89 Q2044.28 368.681 2043.26 368.681 Q2039.65 368.681 2037.71 371.042 Q2035.79 373.38 2035.79 377.778 L2035.79 391.436 L2031.5 391.436 L2031.5 365.51 L2035.79 365.51 L2035.79 369.538 Q2037.13 367.177 2039.28 366.042 Q2041.43 364.885 2044.51 364.885 Q2044.95 364.885 2045.49 364.954 Q2046.02 365.001 2046.67 365.116 L2046.69 369.491 Z" fill="#000000" fill-rule="nonzero" fill-opacity="1" /><path clip-path="url(#clip850)" d="M2048.1 365.51 L2052.61 365.51 L2060.72 387.269 L2068.82 365.51 L2073.33 365.51 L2063.61 391.436 L2057.82 391.436 L2048.1 365.51 Z" fill="#000000" fill-rule="nonzero" fill-opacity="1" /><path clip-path="url(#clip850)" d="M2101.39 377.408 L2101.39 379.491 L2081.8 379.491 Q2082.08 383.889 2084.44 386.204 Q2086.83 388.496 2091.06 388.496 Q2093.52 388.496 2095.81 387.894 Q2098.12 387.292 2100.39 386.089 L2100.39 390.116 Q2098.1 391.088 2095.69 391.598 Q2093.29 392.107 2090.81 392.107 Q2084.61 392.107 2080.97 388.496 Q2077.36 384.885 2077.36 378.727 Q2077.36 372.362 2080.79 368.635 Q2084.23 364.885 2090.07 364.885 Q2095.3 364.885 2098.33 368.265 Q2101.39 371.621 2101.39 377.408 M2097.13 376.158 Q2097.08 372.663 2095.16 370.579 Q2093.26 368.496 2090.11 368.496 Q2086.55 368.496 2084.4 370.51 Q2082.27 372.524 2081.94 376.181 L2097.13 376.158 Z" fill="#000000" fill-rule="nonzero" fill-opacity="1" /><path clip-path="url(#clip850)" d="M2125.44 369.445 L2125.44 355.417 L2129.7 355.417 L2129.7 391.436 L2125.44 391.436 L2125.44 387.547 Q2124.1 389.862 2122.04 390.996 Q2120 392.107 2117.13 392.107 Q2112.43 392.107 2109.47 388.357 Q2106.53 384.607 2106.53 378.496 Q2106.53 372.385 2109.47 368.635 Q2112.43 364.885 2117.13 364.885 Q2120 364.885 2122.04 366.019 Q2124.1 367.13 2125.44 369.445 M2110.92 378.496 Q2110.92 383.195 2112.85 385.88 Q2114.79 388.542 2118.17 388.542 Q2121.55 388.542 2123.49 385.88 Q2125.44 383.195 2125.44 378.496 Q2125.44 373.797 2123.49 371.135 Q2121.55 368.45 2118.17 368.45 Q2114.79 368.45 2112.85 371.135 Q2110.92 373.797 2110.92 378.496 Z" fill="#000000" fill-rule="nonzero" fill-opacity="1" /><path clip-path="url(#clip850)" d="M2158.4 360.718 L2158.4 387.593 L2164.05 387.593 Q2171.2 387.593 2174.51 384.352 Q2177.85 381.112 2177.85 374.121 Q2177.85 367.177 2174.51 363.959 Q2171.2 360.718 2164.05 360.718 L2158.4 360.718 M2153.73 356.876 L2163.33 356.876 Q2173.38 356.876 2178.08 361.066 Q2182.78 365.232 2182.78 374.121 Q2182.78 383.056 2178.05 387.246 Q2173.33 391.436 2163.33 391.436 L2153.73 391.436 L2153.73 356.876 Z" fill="#000000" fill-rule="nonzero" fill-opacity="1" /><path clip-path="url(#clip850)" d="M2201.83 378.403 Q2196.66 378.403 2194.67 379.584 Q2192.68 380.764 2192.68 383.612 Q2192.68 385.88 2194.16 387.223 Q2195.67 388.542 2198.24 388.542 Q2201.78 388.542 2203.91 386.042 Q2206.06 383.519 2206.06 379.352 L2206.06 378.403 L2201.83 378.403 M2210.32 376.644 L2210.32 391.436 L2206.06 391.436 L2206.06 387.501 Q2204.6 389.862 2202.43 390.996 Q2200.25 392.107 2197.1 392.107 Q2193.12 392.107 2190.76 389.885 Q2188.42 387.639 2188.42 383.889 Q2188.42 379.514 2191.34 377.292 Q2194.28 375.07 2200.09 375.07 L2206.06 375.07 L2206.06 374.653 Q2206.06 371.714 2204.12 370.116 Q2202.2 368.496 2198.7 368.496 Q2196.48 368.496 2194.37 369.028 Q2192.27 369.561 2190.32 370.626 L2190.32 366.69 Q2192.66 365.788 2194.86 365.348 Q2197.06 364.885 2199.14 364.885 Q2204.77 364.885 2207.54 367.802 Q2210.32 370.718 2210.32 376.644 Z" fill="#000000" fill-rule="nonzero" fill-opacity="1" /><path clip-path="url(#clip850)" d="M2223.31 358.149 L2223.31 365.51 L2232.08 365.51 L2232.08 368.82 L2223.31 368.82 L2223.31 382.894 Q2223.31 386.065 2224.16 386.968 Q2225.04 387.871 2227.71 387.871 L2232.08 387.871 L2232.08 391.436 L2227.71 391.436 Q2222.78 391.436 2220.9 389.607 Q2219.03 387.755 2219.03 382.894 L2219.03 368.82 L2215.9 368.82 L2215.9 365.51 L2219.03 365.51 L2219.03 358.149 L2223.31 358.149 Z" fill="#000000" fill-rule="nonzero" fill-opacity="1" /><path clip-path="url(#clip850)" d="M2249.47 378.403 Q2244.3 378.403 2242.31 379.584 Q2240.32 380.764 2240.32 383.612 Q2240.32 385.88 2241.8 387.223 Q2243.31 388.542 2245.88 388.542 Q2249.42 388.542 2251.55 386.042 Q2253.7 383.519 2253.7 379.352 L2253.7 378.403 L2249.47 378.403 M2257.96 376.644 L2257.96 391.436 L2253.7 391.436 L2253.7 387.501 Q2252.24 389.862 2250.07 390.996 Q2247.89 392.107 2244.74 392.107 Q2240.76 392.107 2238.4 389.885 Q2236.06 387.639 2236.06 383.889 Q2236.06 379.514 2238.98 377.292 Q2241.92 375.07 2247.73 375.07 L2253.7 375.07 L2253.7 374.653 Q2253.7 371.714 2251.76 370.116 Q2249.84 368.496 2246.34 368.496 Q2244.12 368.496 2242.01 369.028 Q2239.91 369.561 2237.96 370.626 L2237.96 366.69 Q2240.3 365.788 2242.5 365.348 Q2244.7 364.885 2246.78 364.885 Q2252.41 364.885 2255.18 367.802 Q2257.96 370.718 2257.96 376.644 Z" fill="#000000" fill-rule="nonzero" fill-opacity="1" /></svg>
