<?xml version="1.0" encoding="utf-8"?>
<svg xmlns="http://www.w3.org/2000/svg" xmlns:xlink="http://www.w3.org/1999/xlink" width="600" height="400" viewBox="0 0 2400 1600">
<defs>
  <clipPath id="clip660">
    <rect x="0" y="0" width="2400" height="1600"/>
  </clipPath>
</defs>
<path clip-path="url(#clip660)" d="M0 1600 L2400 1600 L2400 0 L0 0  Z" fill="#ffffff" fill-rule="evenodd" fill-opacity="1"/>
<defs>
  <clipPath id="clip661">
    <rect x="219" y="123" width="2134" height="1301"/>
  </clipPath>
</defs>
<path clip-path="url(#clip660)" d="M203.964 1423.18 L2352.76 1423.18 L2352.76 123.472 L203.964 123.472  Z" fill="#ffffff" fill-rule="evenodd" fill-opacity="1"/>
<defs>
  <clipPath id="clip662">
    <rect x="203" y="123" width="2150" height="1301"/>
  </clipPath>
</defs>
<polyline clip-path="url(#clip662)" style="stroke:#000000; stroke-linecap:round; stroke-linejoin:round; stroke-width:2; stroke-opacity:0.1; fill:none" points="244.507,1423.18 244.507,123.472 "/>
<polyline clip-path="url(#clip662)" style="stroke:#000000; stroke-linecap:round; stroke-linejoin:round; stroke-width:2; stroke-opacity:0.1; fill:none" points="751.297,1423.18 751.297,123.472 "/>
<polyline clip-path="url(#clip662)" style="stroke:#000000; stroke-linecap:round; stroke-linejoin:round; stroke-width:2; stroke-opacity:0.1; fill:none" points="1258.09,1423.18 1258.09,123.472 "/>
<polyline clip-path="url(#clip662)" style="stroke:#000000; stroke-linecap:round; stroke-linejoin:round; stroke-width:2; stroke-opacity:0.1; fill:none" points="1764.88,1423.18 1764.88,123.472 "/>
<polyline clip-path="url(#clip662)" style="stroke:#000000; stroke-linecap:round; stroke-linejoin:round; stroke-width:2; stroke-opacity:0.1; fill:none" points="2271.67,1423.18 2271.67,123.472 "/>
<polyline clip-path="url(#clip662)" style="stroke:#000000; stroke-linecap:round; stroke-linejoin:round; stroke-width:2; stroke-opacity:0.1; fill:none" points="203.964,1386.4 2352.76,1386.4 "/>
<polyline clip-path="url(#clip662)" style="stroke:#000000; stroke-linecap:round; stroke-linejoin:round; stroke-width:2; stroke-opacity:0.1; fill:none" points="203.964,1083.46 2352.76,1083.46 "/>
<polyline clip-path="url(#clip662)" style="stroke:#000000; stroke-linecap:round; stroke-linejoin:round; stroke-width:2; stroke-opacity:0.1; fill:none" points="203.964,780.531 2352.76,780.531 "/>
<polyline clip-path="url(#clip662)" style="stroke:#000000; stroke-linecap:round; stroke-linejoin:round; stroke-width:2; stroke-opacity:0.1; fill:none" points="203.964,477.599 2352.76,477.599 "/>
<polyline clip-path="url(#clip662)" style="stroke:#000000; stroke-linecap:round; stroke-linejoin:round; stroke-width:2; stroke-opacity:0.1; fill:none" points="203.964,174.667 2352.76,174.667 "/>
<polyline clip-path="url(#clip660)" style="stroke:#000000; stroke-linecap:round; stroke-linejoin:round; stroke-width:4; stroke-opacity:1; fill:none" points="203.964,1423.18 2352.76,1423.18 "/>
<polyline clip-path="url(#clip660)" style="stroke:#000000; stroke-linecap:round; stroke-linejoin:round; stroke-width:4; stroke-opacity:1; fill:none" points="244.507,1423.18 244.507,1404.28 "/>
<polyline clip-path="url(#clip660)" style="stroke:#000000; stroke-linecap:round; stroke-linejoin:round; stroke-width:4; stroke-opacity:1; fill:none" points="751.297,1423.18 751.297,1404.28 "/>
<polyline clip-path="url(#clip660)" style="stroke:#000000; stroke-linecap:round; stroke-linejoin:round; stroke-width:4; stroke-opacity:1; fill:none" points="1258.09,1423.18 1258.09,1404.28 "/>
<polyline clip-path="url(#clip660)" style="stroke:#000000; stroke-linecap:round; stroke-linejoin:round; stroke-width:4; stroke-opacity:1; fill:none" points="1764.88,1423.18 1764.88,1404.28 "/>
<polyline clip-path="url(#clip660)" style="stroke:#000000; stroke-linecap:round; stroke-linejoin:round; stroke-width:4; stroke-opacity:1; fill:none" points="2271.67,1423.18 2271.67,1404.28 "/>
<path clip-path="url(#clip660)" d="M244.507 1454.1 Q240.896 1454.1 239.067 1457.66 Q237.261 1461.2 237.261 1468.33 Q237.261 1475.44 239.067 1479.01 Q240.896 1482.55 244.507 1482.55 Q248.141 1482.55 249.947 1479.01 Q251.775 1475.44 251.775 1468.33 Q251.775 1461.2 249.947 1457.66 Q248.141 1454.1 244.507 1454.1 M244.507 1450.39 Q250.317 1450.39 253.373 1455 Q256.451 1459.58 256.451 1468.33 Q256.451 1477.06 253.373 1481.67 Q250.317 1486.25 244.507 1486.25 Q238.697 1486.25 235.618 1481.67 Q232.562 1477.06 232.562 1468.33 Q232.562 1459.58 235.618 1455 Q238.697 1450.39 244.507 1450.39 Z" fill="#000000" fill-rule="nonzero" fill-opacity="1" /><path clip-path="url(#clip660)" d="M730.568 1481.64 L746.888 1481.64 L746.888 1485.58 L724.943 1485.58 L724.943 1481.64 Q727.605 1478.89 732.189 1474.26 Q736.795 1469.61 737.976 1468.27 Q740.221 1465.74 741.101 1464.01 Q742.004 1462.25 742.004 1460.56 Q742.004 1457.8 740.059 1456.07 Q738.138 1454.33 735.036 1454.33 Q732.837 1454.33 730.383 1455.09 Q727.953 1455.86 725.175 1457.41 L725.175 1452.69 Q727.999 1451.55 730.453 1450.97 Q732.906 1450.39 734.943 1450.39 Q740.314 1450.39 743.508 1453.08 Q746.703 1455.77 746.703 1460.26 Q746.703 1462.39 745.892 1464.31 Q745.105 1466.2 742.999 1468.8 Q742.42 1469.47 739.318 1472.69 Q736.217 1475.88 730.568 1481.64 Z" fill="#000000" fill-rule="nonzero" fill-opacity="1" /><path clip-path="url(#clip660)" d="M756.749 1451.02 L775.105 1451.02 L775.105 1454.96 L761.031 1454.96 L761.031 1463.43 Q762.05 1463.08 763.068 1462.92 Q764.087 1462.73 765.105 1462.73 Q770.892 1462.73 774.272 1465.9 Q777.651 1469.08 777.651 1474.49 Q777.651 1480.07 774.179 1483.17 Q770.707 1486.25 764.388 1486.25 Q762.212 1486.25 759.943 1485.88 Q757.698 1485.51 755.291 1484.77 L755.291 1480.07 Q757.374 1481.2 759.596 1481.76 Q761.818 1482.32 764.295 1482.32 Q768.3 1482.32 770.638 1480.21 Q772.976 1478.1 772.976 1474.49 Q772.976 1470.88 770.638 1468.77 Q768.3 1466.67 764.295 1466.67 Q762.42 1466.67 760.545 1467.08 Q758.693 1467.5 756.749 1468.38 L756.749 1451.02 Z" fill="#000000" fill-rule="nonzero" fill-opacity="1" /><path clip-path="url(#clip660)" d="M1232.79 1451.02 L1251.14 1451.02 L1251.14 1454.96 L1237.07 1454.96 L1237.07 1463.43 Q1238.09 1463.08 1239.11 1462.92 Q1240.13 1462.73 1241.14 1462.73 Q1246.93 1462.73 1250.31 1465.9 Q1253.69 1469.08 1253.69 1474.49 Q1253.69 1480.07 1250.22 1483.17 Q1246.75 1486.25 1240.43 1486.25 Q1238.25 1486.25 1235.98 1485.88 Q1233.74 1485.51 1231.33 1484.77 L1231.33 1480.07 Q1233.41 1481.2 1235.63 1481.76 Q1237.86 1482.32 1240.33 1482.32 Q1244.34 1482.32 1246.68 1480.21 Q1249.01 1478.1 1249.01 1474.49 Q1249.01 1470.88 1246.68 1468.77 Q1244.34 1466.67 1240.33 1466.67 Q1238.46 1466.67 1236.58 1467.08 Q1234.73 1467.5 1232.79 1468.38 L1232.79 1451.02 Z" fill="#000000" fill-rule="nonzero" fill-opacity="1" /><path clip-path="url(#clip660)" d="M1272.9 1454.1 Q1269.29 1454.1 1267.46 1457.66 Q1265.66 1461.2 1265.66 1468.33 Q1265.66 1475.44 1267.46 1479.01 Q1269.29 1482.55 1272.9 1482.55 Q1276.54 1482.55 1278.34 1479.01 Q1280.17 1475.44 1280.17 1468.33 Q1280.17 1461.2 1278.34 1457.66 Q1276.54 1454.1 1272.9 1454.1 M1272.9 1450.39 Q1278.71 1450.39 1281.77 1455 Q1284.85 1459.58 1284.85 1468.33 Q1284.85 1477.06 1281.77 1481.67 Q1278.71 1486.25 1272.9 1486.25 Q1267.09 1486.25 1264.01 1481.67 Q1260.96 1477.06 1260.96 1468.33 Q1260.96 1459.58 1264.01 1455 Q1267.09 1450.39 1272.9 1450.39 Z" fill="#000000" fill-rule="nonzero" fill-opacity="1" /><path clip-path="url(#clip660)" d="M1738.73 1451.02 L1760.96 1451.02 L1760.96 1453.01 L1748.41 1485.58 L1743.52 1485.58 L1755.33 1454.96 L1738.73 1454.96 L1738.73 1451.02 Z" fill="#000000" fill-rule="nonzero" fill-opacity="1" /><path clip-path="url(#clip660)" d="M1770.12 1451.02 L1788.48 1451.02 L1788.48 1454.96 L1774.4 1454.96 L1774.4 1463.43 Q1775.42 1463.08 1776.44 1462.92 Q1777.46 1462.73 1778.48 1462.73 Q1784.27 1462.73 1787.64 1465.9 Q1791.02 1469.08 1791.02 1474.49 Q1791.02 1480.07 1787.55 1483.17 Q1784.08 1486.25 1777.76 1486.25 Q1775.58 1486.25 1773.32 1485.88 Q1771.07 1485.51 1768.66 1484.77 L1768.66 1480.07 Q1770.75 1481.2 1772.97 1481.76 Q1775.19 1482.32 1777.67 1482.32 Q1781.67 1482.32 1784.01 1480.21 Q1786.35 1478.1 1786.35 1474.49 Q1786.35 1470.88 1784.01 1468.77 Q1781.67 1466.67 1777.67 1466.67 Q1775.79 1466.67 1773.92 1467.08 Q1772.07 1467.5 1770.12 1468.38 L1770.12 1451.02 Z" fill="#000000" fill-rule="nonzero" fill-opacity="1" /><path clip-path="url(#clip660)" d="M2231.28 1481.64 L2238.91 1481.64 L2238.91 1455.28 L2230.6 1456.95 L2230.6 1452.69 L2238.87 1451.02 L2243.54 1451.02 L2243.54 1481.64 L2251.18 1481.64 L2251.18 1485.58 L2231.28 1485.58 L2231.28 1481.64 Z" fill="#000000" fill-rule="nonzero" fill-opacity="1" /><path clip-path="url(#clip660)" d="M2270.63 1454.1 Q2267.02 1454.1 2265.19 1457.66 Q2263.38 1461.2 2263.38 1468.33 Q2263.38 1475.44 2265.19 1479.01 Q2267.02 1482.55 2270.63 1482.55 Q2274.26 1482.55 2276.07 1479.01 Q2277.9 1475.44 2277.9 1468.33 Q2277.9 1461.2 2276.07 1457.66 Q2274.26 1454.1 2270.63 1454.1 M2270.63 1450.39 Q2276.44 1450.39 2279.49 1455 Q2282.57 1459.58 2282.57 1468.33 Q2282.57 1477.06 2279.49 1481.67 Q2276.44 1486.25 2270.63 1486.25 Q2264.82 1486.25 2261.74 1481.67 Q2258.68 1477.06 2258.68 1468.33 Q2258.68 1459.58 2261.74 1455 Q2264.82 1450.39 2270.63 1450.39 Z" fill="#000000" fill-rule="nonzero" fill-opacity="1" /><path clip-path="url(#clip660)" d="M2300.79 1454.1 Q2297.18 1454.1 2295.35 1457.66 Q2293.54 1461.2 2293.54 1468.33 Q2293.54 1475.44 2295.35 1479.01 Q2297.18 1482.55 2300.79 1482.55 Q2304.42 1482.55 2306.23 1479.01 Q2308.06 1475.44 2308.06 1468.33 Q2308.06 1461.2 2306.23 1457.66 Q2304.42 1454.1 2300.79 1454.1 M2300.79 1450.39 Q2306.6 1450.39 2309.66 1455 Q2312.73 1459.58 2312.73 1468.33 Q2312.73 1477.06 2309.66 1481.67 Q2306.6 1486.25 2300.79 1486.25 Q2294.98 1486.25 2291.9 1481.67 Q2288.85 1477.06 2288.85 1468.33 Q2288.85 1459.58 2291.9 1455 Q2294.98 1450.39 2300.79 1450.39 Z" fill="#000000" fill-rule="nonzero" fill-opacity="1" /><path clip-path="url(#clip660)" d="M1200.24 1520.52 L1240.44 1520.52 L1240.44 1525.93 L1223.57 1525.93 L1223.57 1568.04 L1217.11 1568.04 L1217.11 1525.93 L1200.24 1525.93 L1200.24 1520.52 Z" fill="#000000" fill-rule="nonzero" fill-opacity="1" /><path clip-path="url(#clip660)" d="M1244.38 1532.4 L1250.24 1532.4 L1250.24 1568.04 L1244.38 1568.04 L1244.38 1532.4 M1244.38 1518.52 L1250.24 1518.52 L1250.24 1525.93 L1244.38 1525.93 L1244.38 1518.52 Z" fill="#000000" fill-rule="nonzero" fill-opacity="1" /><path clip-path="url(#clip660)" d="M1290.25 1539.24 Q1292.44 1535.29 1295.5 1533.41 Q1298.55 1531.54 1302.69 1531.54 Q1308.26 1531.54 1311.29 1535.45 Q1314.31 1539.33 1314.31 1546.53 L1314.31 1568.04 L1308.42 1568.04 L1308.42 1546.72 Q1308.42 1541.59 1306.61 1539.11 Q1304.79 1536.63 1301.07 1536.63 Q1296.52 1536.63 1293.88 1539.65 Q1291.23 1542.68 1291.23 1547.9 L1291.23 1568.04 L1285.35 1568.04 L1285.35 1546.72 Q1285.35 1541.56 1283.53 1539.11 Q1281.72 1536.63 1277.93 1536.63 Q1273.44 1536.63 1270.8 1539.68 Q1268.16 1542.71 1268.16 1547.9 L1268.16 1568.04 L1262.27 1568.04 L1262.27 1532.4 L1268.16 1532.4 L1268.16 1537.93 Q1270.16 1534.66 1272.96 1533.1 Q1275.77 1531.54 1279.62 1531.54 Q1283.5 1531.54 1286.21 1533.51 Q1288.94 1535.48 1290.25 1539.24 Z" fill="#000000" fill-rule="nonzero" fill-opacity="1" /><path clip-path="url(#clip660)" d="M1356.48 1548.76 L1356.48 1551.62 L1329.56 1551.62 Q1329.94 1557.67 1333.18 1560.85 Q1336.46 1564 1342.29 1564 Q1345.66 1564 1348.81 1563.17 Q1352 1562.35 1355.11 1560.69 L1355.11 1566.23 Q1351.96 1567.57 1348.65 1568.27 Q1345.34 1568.97 1341.94 1568.97 Q1333.41 1568.97 1328.41 1564 Q1323.44 1559.04 1323.44 1550.57 Q1323.44 1541.82 1328.16 1536.69 Q1332.9 1531.54 1340.92 1531.54 Q1348.11 1531.54 1352.28 1536.18 Q1356.48 1540.8 1356.48 1548.76 M1350.63 1547.04 Q1350.56 1542.23 1347.92 1539.37 Q1345.31 1536.5 1340.98 1536.5 Q1336.08 1536.5 1333.12 1539.27 Q1330.19 1542.04 1329.75 1547.07 L1350.63 1547.04 Z" fill="#000000" fill-rule="nonzero" fill-opacity="1" /><polyline clip-path="url(#clip660)" style="stroke:#000000; stroke-linecap:round; stroke-linejoin:round; stroke-width:4; stroke-opacity:1; fill:none" points="203.964,1423.18 203.964,123.472 "/>
<polyline clip-path="url(#clip660)" style="stroke:#000000; stroke-linecap:round; stroke-linejoin:round; stroke-width:4; stroke-opacity:1; fill:none" points="203.964,1386.4 222.861,1386.4 "/>
<polyline clip-path="url(#clip660)" style="stroke:#000000; stroke-linecap:round; stroke-linejoin:round; stroke-width:4; stroke-opacity:1; fill:none" points="203.964,1083.46 222.861,1083.46 "/>
<polyline clip-path="url(#clip660)" style="stroke:#000000; stroke-linecap:round; stroke-linejoin:round; stroke-width:4; stroke-opacity:1; fill:none" points="203.964,780.531 222.861,780.531 "/>
<polyline clip-path="url(#clip660)" style="stroke:#000000; stroke-linecap:round; stroke-linejoin:round; stroke-width:4; stroke-opacity:1; fill:none" points="203.964,477.599 222.861,477.599 "/>
<polyline clip-path="url(#clip660)" style="stroke:#000000; stroke-linecap:round; stroke-linejoin:round; stroke-width:4; stroke-opacity:1; fill:none" points="203.964,174.667 222.861,174.667 "/>
<path clip-path="url(#clip660)" d="M156.019 1372.19 Q152.408 1372.19 150.579 1375.76 Q148.774 1379.3 148.774 1386.43 Q148.774 1393.54 150.579 1397.1 Q152.408 1400.64 156.019 1400.64 Q159.653 1400.64 161.459 1397.1 Q163.288 1393.54 163.288 1386.43 Q163.288 1379.3 161.459 1375.76 Q159.653 1372.19 156.019 1372.19 M156.019 1368.49 Q161.829 1368.49 164.885 1373.1 Q167.964 1377.68 167.964 1386.43 Q167.964 1395.16 164.885 1399.76 Q161.829 1404.35 156.019 1404.35 Q150.209 1404.35 147.13 1399.76 Q144.075 1395.16 144.075 1386.43 Q144.075 1377.68 147.13 1373.1 Q150.209 1368.49 156.019 1368.49 Z" fill="#000000" fill-rule="nonzero" fill-opacity="1" /><path clip-path="url(#clip660)" d="M147.061 1066.18 L165.417 1066.18 L165.417 1070.12 L151.343 1070.12 L151.343 1078.59 Q152.362 1078.24 153.38 1078.08 Q154.399 1077.9 155.417 1077.9 Q161.204 1077.9 164.584 1081.07 Q167.964 1084.24 167.964 1089.66 Q167.964 1095.23 164.491 1098.34 Q161.019 1101.41 154.7 1101.41 Q152.524 1101.41 150.255 1101.04 Q148.01 1100.67 145.603 1099.93 L145.603 1095.23 Q147.686 1096.37 149.908 1096.92 Q152.13 1097.48 154.607 1097.48 Q158.612 1097.48 160.95 1095.37 Q163.288 1093.27 163.288 1089.66 Q163.288 1086.04 160.95 1083.94 Q158.612 1081.83 154.607 1081.83 Q152.732 1081.83 150.857 1082.25 Q149.005 1082.66 147.061 1083.54 L147.061 1066.18 Z" fill="#000000" fill-rule="nonzero" fill-opacity="1" /><path clip-path="url(#clip660)" d="M116.668 793.876 L124.306 793.876 L124.306 767.511 L115.996 769.177 L115.996 764.918 L124.26 763.251 L128.936 763.251 L128.936 793.876 L136.575 793.876 L136.575 797.811 L116.668 797.811 L116.668 793.876 Z" fill="#000000" fill-rule="nonzero" fill-opacity="1" /><path clip-path="url(#clip660)" d="M156.019 766.33 Q152.408 766.33 150.579 769.895 Q148.774 773.437 148.774 780.566 Q148.774 787.673 150.579 791.237 Q152.408 794.779 156.019 794.779 Q159.653 794.779 161.459 791.237 Q163.288 787.673 163.288 780.566 Q163.288 773.437 161.459 769.895 Q159.653 766.33 156.019 766.33 M156.019 762.626 Q161.829 762.626 164.885 767.233 Q167.964 771.816 167.964 780.566 Q167.964 789.293 164.885 793.899 Q161.829 798.483 156.019 798.483 Q150.209 798.483 147.13 793.899 Q144.075 789.293 144.075 780.566 Q144.075 771.816 147.13 767.233 Q150.209 762.626 156.019 762.626 Z" fill="#000000" fill-rule="nonzero" fill-opacity="1" /><path clip-path="url(#clip660)" d="M117.663 490.944 L125.302 490.944 L125.302 464.579 L116.992 466.245 L116.992 461.986 L125.255 460.319 L129.931 460.319 L129.931 490.944 L137.57 490.944 L137.57 494.879 L117.663 494.879 L117.663 490.944 Z" fill="#000000" fill-rule="nonzero" fill-opacity="1" /><path clip-path="url(#clip660)" d="M147.061 460.319 L165.417 460.319 L165.417 464.255 L151.343 464.255 L151.343 472.727 Q152.362 472.38 153.38 472.217 Q154.399 472.032 155.417 472.032 Q161.204 472.032 164.584 475.204 Q167.964 478.375 167.964 483.792 Q167.964 489.37 164.491 492.472 Q161.019 495.551 154.7 495.551 Q152.524 495.551 150.255 495.18 Q148.01 494.81 145.603 494.069 L145.603 489.37 Q147.686 490.504 149.908 491.06 Q152.13 491.616 154.607 491.616 Q158.612 491.616 160.95 489.509 Q163.288 487.403 163.288 483.792 Q163.288 480.18 160.95 478.074 Q158.612 475.967 154.607 475.967 Q152.732 475.967 150.857 476.384 Q149.005 476.801 147.061 477.68 L147.061 460.319 Z" fill="#000000" fill-rule="nonzero" fill-opacity="1" /><path clip-path="url(#clip660)" d="M119.885 188.012 L136.204 188.012 L136.204 191.947 L114.26 191.947 L114.26 188.012 Q116.922 185.258 121.505 180.628 Q126.112 175.975 127.292 174.633 Q129.538 172.109 130.417 170.373 Q131.32 168.614 131.32 166.924 Q131.32 164.17 129.376 162.434 Q127.455 160.697 124.353 160.697 Q122.154 160.697 119.7 161.461 Q117.269 162.225 114.492 163.776 L114.492 159.054 Q117.316 157.92 119.769 157.341 Q122.223 156.762 124.26 156.762 Q129.63 156.762 132.825 159.447 Q136.019 162.133 136.019 166.623 Q136.019 168.753 135.209 170.674 Q134.422 172.572 132.316 175.165 Q131.737 175.836 128.635 179.054 Q125.533 182.248 119.885 188.012 Z" fill="#000000" fill-rule="nonzero" fill-opacity="1" /><path clip-path="url(#clip660)" d="M156.019 160.466 Q152.408 160.466 150.579 164.031 Q148.774 167.572 148.774 174.702 Q148.774 181.808 150.579 185.373 Q152.408 188.915 156.019 188.915 Q159.653 188.915 161.459 185.373 Q163.288 181.808 163.288 174.702 Q163.288 167.572 161.459 164.031 Q159.653 160.466 156.019 160.466 M156.019 156.762 Q161.829 156.762 164.885 161.369 Q167.964 165.952 167.964 174.702 Q167.964 183.429 164.885 188.035 Q161.829 192.619 156.019 192.619 Q150.209 192.619 147.13 188.035 Q144.075 183.429 144.075 174.702 Q144.075 165.952 147.13 161.369 Q150.209 156.762 156.019 156.762 Z" fill="#000000" fill-rule="nonzero" fill-opacity="1" /><path clip-path="url(#clip660)" d="M20.1444 820.225 L26.9239 820.225 Q23.9002 823.472 22.4043 827.164 Q20.9083 830.824 20.9083 834.962 Q20.9083 843.11 25.9054 847.439 Q30.8707 851.767 40.2919 851.767 Q49.6813 851.767 54.6784 847.439 Q59.6436 843.11 59.6436 834.962 Q59.6436 830.824 58.1477 827.164 Q56.6518 823.472 53.6281 820.225 L60.3439 820.225 Q62.6355 823.599 63.7814 827.387 Q64.9272 831.143 64.9272 835.344 Q64.9272 846.134 58.3387 852.34 Q51.7183 858.547 40.2919 858.547 Q28.8336 858.547 22.2451 852.34 Q15.6248 846.134 15.6248 835.344 Q15.6248 831.079 16.7706 827.323 Q17.8846 823.535 20.1444 820.225 Z" fill="#000000" fill-rule="nonzero" fill-opacity="1" /><path clip-path="url(#clip660)" d="M16.4842 816.883 L16.4842 776.684 L21.895 776.684 L21.895 793.553 L64.0042 793.553 L64.0042 800.014 L21.895 800.014 L21.895 816.883 L16.4842 816.883 Z" fill="#000000" fill-rule="nonzero" fill-opacity="1" /><path clip-path="url(#clip660)" d="M16.4842 770.477 L16.4842 761.82 L56.238 740.749 L16.4842 740.749 L16.4842 734.511 L64.0042 734.511 L64.0042 743.168 L24.2503 764.239 L64.0042 764.239 L64.0042 770.477 L16.4842 770.477 Z" fill="#000000" fill-rule="nonzero" fill-opacity="1" /><path clip-path="url(#clip660)" d="M16.4842 728.305 L16.4842 688.105 L21.895 688.105 L21.895 704.974 L64.0042 704.974 L64.0042 711.435 L21.895 711.435 L21.895 728.305 L16.4842 728.305 Z" fill="#000000" fill-rule="nonzero" fill-opacity="1" /><path clip-path="url(#clip660)" d="M856.539 28.9478 L856.539 35.9153 Q853.379 34.1734 850.179 33.3227 Q847.019 32.4315 843.779 32.4315 Q836.528 32.4315 832.517 37.0496 Q828.507 41.6271 828.507 49.9314 Q828.507 58.2358 832.517 62.8538 Q836.528 67.4314 843.779 67.4314 Q847.019 67.4314 850.179 66.5807 Q853.379 65.6895 856.539 63.9476 L856.539 70.8341 Q853.42 72.2924 850.058 73.0216 Q846.736 73.7508 842.969 73.7508 Q832.72 73.7508 826.684 67.3098 Q820.648 60.8689 820.648 49.9314 Q820.648 38.832 826.724 32.472 Q832.841 26.1121 843.455 26.1121 Q846.898 26.1121 850.179 26.8413 Q853.46 27.5299 856.539 28.9478 Z" fill="#000000" fill-rule="nonzero" fill-opacity="1" /><path clip-path="url(#clip660)" d="M868.894 12.096 L877.118 12.096 L877.118 48.8377 Q877.118 58.5599 880.642 62.8538 Q884.166 67.1073 892.066 67.1073 Q899.924 67.1073 903.449 62.8538 Q906.973 58.5599 906.973 48.8377 L906.973 12.096 L915.196 12.096 L915.196 49.8504 Q915.196 61.6791 909.322 67.7149 Q903.489 73.7508 892.066 73.7508 Q880.601 73.7508 874.728 67.7149 Q868.894 61.6791 868.894 49.8504 L868.894 12.096 Z" fill="#000000" fill-rule="nonzero" fill-opacity="1" /><path clip-path="url(#clip660)" d="M938.732 18.8205 L938.732 65.8515 L948.616 65.8515 Q961.133 65.8515 966.926 60.1802 Q972.76 54.509 972.76 42.2752 Q972.76 30.1225 966.926 24.4918 Q961.133 18.8205 948.616 18.8205 L938.732 18.8205 M930.549 12.096 L947.36 12.096 Q964.941 12.096 973.165 19.4281 Q981.388 26.7198 981.388 42.2752 Q981.388 57.9117 973.124 65.2439 Q964.86 72.576 947.36 72.576 L930.549 72.576 L930.549 12.096 Z" fill="#000000" fill-rule="nonzero" fill-opacity="1" /><path clip-path="url(#clip660)" d="M994.432 12.096 L1032.67 12.096 L1032.67 18.9825 L1002.61 18.9825 L1002.61 36.8875 L1031.42 36.8875 L1031.42 43.7741 L1002.61 43.7741 L1002.61 65.6895 L1033.4 65.6895 L1033.4 72.576 L994.432 72.576 L994.432 12.096 Z" fill="#000000" fill-rule="nonzero" fill-opacity="1" /><path clip-path="url(#clip660)" d="M1073.22 12.096 L1084.24 12.096 L1111.06 62.6918 L1111.06 12.096 L1119 12.096 L1119 72.576 L1107.98 72.576 L1081.16 21.9802 L1081.16 72.576 L1073.22 72.576 L1073.22 12.096 Z" fill="#000000" fill-rule="nonzero" fill-opacity="1" /><path clip-path="url(#clip660)" d="M1135.28 12.096 L1146.3 12.096 L1173.12 62.6918 L1173.12 12.096 L1181.06 12.096 L1181.06 72.576 L1170.04 72.576 L1143.22 21.9802 L1143.22 72.576 L1135.28 72.576 L1135.28 12.096 Z" fill="#000000" fill-rule="nonzero" fill-opacity="1" /><path clip-path="url(#clip660)" d="M1231.9 18.8205 L1231.9 41.5461 L1242.19 41.5461 Q1247.9 41.5461 1251.02 38.5889 Q1254.14 35.6318 1254.14 30.163 Q1254.14 24.7348 1251.02 21.7777 Q1247.9 18.8205 1242.19 18.8205 L1231.9 18.8205 M1223.71 12.096 L1242.19 12.096 Q1252.35 12.096 1257.54 16.714 Q1262.76 21.2916 1262.76 30.163 Q1262.76 39.1155 1257.54 43.6931 Q1252.35 48.2706 1242.19 48.2706 L1231.9 48.2706 L1231.9 72.576 L1223.71 72.576 L1223.71 12.096 Z" fill="#000000" fill-rule="nonzero" fill-opacity="1" /><path clip-path="url(#clip660)" d="M1290.31 49.7694 Q1281.28 49.7694 1277.79 51.8354 Q1274.31 53.9013 1274.31 58.8839 Q1274.31 62.8538 1276.9 65.2034 Q1279.53 67.5124 1284.03 67.5124 Q1290.23 67.5124 1293.96 63.1374 Q1297.72 58.7219 1297.72 51.4303 L1297.72 49.7694 L1290.31 49.7694 M1305.18 46.6907 L1305.18 72.576 L1297.72 72.576 L1297.72 65.6895 Q1295.17 69.8214 1291.36 71.8063 Q1287.56 73.7508 1282.05 73.7508 Q1275.08 73.7508 1270.95 69.8619 Q1266.86 65.9325 1266.86 59.3701 Q1266.86 51.7138 1271.96 47.825 Q1277.1 43.9361 1287.27 43.9361 L1297.72 43.9361 L1297.72 43.2069 Q1297.72 38.0623 1294.32 35.2672 Q1290.96 32.4315 1284.84 32.4315 Q1280.95 32.4315 1277.27 33.3632 Q1273.58 34.295 1270.18 36.1584 L1270.18 29.2718 Q1274.27 27.692 1278.12 26.9223 Q1281.97 26.1121 1285.61 26.1121 Q1295.45 26.1121 1300.32 31.2163 Q1305.18 36.3204 1305.18 46.6907 Z" fill="#000000" fill-rule="nonzero" fill-opacity="1" /><path clip-path="url(#clip660)" d="M1327.9 14.324 L1327.9 27.2059 L1343.26 27.2059 L1343.26 32.9987 L1327.9 32.9987 L1327.9 57.6282 Q1327.9 63.1779 1329.4 64.7578 Q1330.94 66.3376 1335.6 66.3376 L1343.26 66.3376 L1343.26 72.576 L1335.6 72.576 Q1326.97 72.576 1323.69 69.3758 Q1320.41 66.1351 1320.41 57.6282 L1320.41 32.9987 L1314.94 32.9987 L1314.94 27.2059 L1320.41 27.2059 L1320.41 14.324 L1327.9 14.324 Z" fill="#000000" fill-rule="nonzero" fill-opacity="1" /><path clip-path="url(#clip660)" d="M1353.06 27.2059 L1360.51 27.2059 L1360.51 72.576 L1353.06 72.576 L1353.06 27.2059 M1353.06 9.54393 L1360.51 9.54393 L1360.51 18.9825 L1353.06 18.9825 L1353.06 9.54393 Z" fill="#000000" fill-rule="nonzero" fill-opacity="1" /><path clip-path="url(#clip660)" d="M1414.92 48.0275 L1414.92 51.6733 L1380.65 51.6733 Q1381.13 59.3701 1385.26 63.421 Q1389.44 67.4314 1396.85 67.4314 Q1401.14 67.4314 1405.15 66.3781 Q1409.2 65.3249 1413.17 63.2184 L1413.17 70.267 Q1409.16 71.9684 1404.95 72.8596 Q1400.74 73.7508 1396.4 73.7508 Q1385.55 73.7508 1379.19 67.4314 Q1372.87 61.1119 1372.87 50.3365 Q1372.87 39.1965 1378.86 32.6746 Q1384.9 26.1121 1395.11 26.1121 Q1404.26 26.1121 1409.57 32.0264 Q1414.92 37.9003 1414.92 48.0275 M1407.46 45.84 Q1407.38 39.7232 1404.02 36.0774 Q1400.7 32.4315 1395.19 32.4315 Q1388.95 32.4315 1385.18 35.9558 Q1381.46 39.4801 1380.89 45.8805 L1407.46 45.84 Z" fill="#000000" fill-rule="nonzero" fill-opacity="1" /><path clip-path="url(#clip660)" d="M1464.86 45.1919 L1464.86 72.576 L1457.41 72.576 L1457.41 45.4349 Q1457.41 38.994 1454.9 35.7938 Q1452.39 32.5936 1447.36 32.5936 Q1441.33 32.5936 1437.84 36.4419 Q1434.36 40.2903 1434.36 46.9338 L1434.36 72.576 L1426.87 72.576 L1426.87 27.2059 L1434.36 27.2059 L1434.36 34.2544 Q1437.03 30.163 1440.64 28.1376 Q1444.28 26.1121 1449.02 26.1121 Q1456.84 26.1121 1460.85 30.9732 Q1464.86 35.7938 1464.86 45.1919 Z" fill="#000000" fill-rule="nonzero" fill-opacity="1" /><path clip-path="url(#clip660)" d="M1487.1 14.324 L1487.1 27.2059 L1502.46 27.2059 L1502.46 32.9987 L1487.1 32.9987 L1487.1 57.6282 Q1487.1 63.1779 1488.6 64.7578 Q1490.14 66.3376 1494.8 66.3376 L1502.46 66.3376 L1502.46 72.576 L1494.8 72.576 Q1486.17 72.576 1482.89 69.3758 Q1479.61 66.1351 1479.61 57.6282 L1479.61 32.9987 L1474.14 32.9987 L1474.14 27.2059 L1479.61 27.2059 L1479.61 14.324 L1487.1 14.324 Z" fill="#000000" fill-rule="nonzero" fill-opacity="1" /><path clip-path="url(#clip660)" d="M1576.34 45.1919 L1576.34 72.576 L1568.89 72.576 L1568.89 45.4349 Q1568.89 38.994 1566.38 35.7938 Q1563.87 32.5936 1558.84 32.5936 Q1552.81 32.5936 1549.32 36.4419 Q1545.84 40.2903 1545.84 46.9338 L1545.84 72.576 L1538.35 72.576 L1538.35 27.2059 L1545.84 27.2059 L1545.84 34.2544 Q1548.51 30.163 1552.12 28.1376 Q1555.77 26.1121 1560.51 26.1121 Q1568.32 26.1121 1572.33 30.9732 Q1576.34 35.7938 1576.34 45.1919 Z" fill="#000000" fill-rule="nonzero" fill-opacity="1" /><path clip-path="url(#clip660)" d="M1590.2 12.096 L1629.09 12.096 L1629.09 15.5798 L1607.13 72.576 L1598.58 72.576 L1619.24 18.9825 L1590.2 18.9825 L1590.2 12.096 Z" fill="#000000" fill-rule="nonzero" fill-opacity="1" /><path clip-path="url(#clip660)" d="M1663.56 39.075 Q1658.05 39.075 1654.81 42.8424 Q1651.61 46.6097 1651.61 53.1722 Q1651.61 59.6941 1654.81 63.502 Q1658.05 67.2693 1663.56 67.2693 Q1669.07 67.2693 1672.27 63.502 Q1675.51 59.6941 1675.51 53.1722 Q1675.51 46.6097 1672.27 42.8424 Q1669.07 39.075 1663.56 39.075 M1679.8 13.4328 L1679.8 20.8865 Q1676.73 19.4281 1673.57 18.6585 Q1670.45 17.8888 1667.37 17.8888 Q1659.27 17.8888 1654.97 23.3575 Q1650.72 28.8262 1650.11 39.8852 Q1652.5 36.3609 1656.11 34.4975 Q1659.71 32.5936 1664.05 32.5936 Q1673.16 32.5936 1678.43 38.1433 Q1683.73 43.6525 1683.73 53.1722 Q1683.73 62.4892 1678.22 68.12 Q1672.72 73.7508 1663.56 73.7508 Q1653.07 73.7508 1647.52 65.73 Q1641.97 57.6687 1641.97 42.3968 Q1641.97 28.0566 1648.77 19.5497 Q1655.58 11.0023 1667.04 11.0023 Q1670.12 11.0023 1673.24 11.6099 Q1676.4 12.2175 1679.8 13.4328 Z" fill="#000000" fill-rule="nonzero" fill-opacity="1" /><path clip-path="url(#clip660)" d="M1715.33 43.8551 Q1709.5 43.8551 1706.14 46.9743 Q1702.81 50.0935 1702.81 55.5622 Q1702.81 61.0309 1706.14 64.1501 Q1709.5 67.2693 1715.33 67.2693 Q1721.16 67.2693 1724.53 64.1501 Q1727.89 60.9904 1727.89 55.5622 Q1727.89 50.0935 1724.53 46.9743 Q1721.2 43.8551 1715.33 43.8551 M1707.15 40.3713 Q1701.88 39.075 1698.92 35.4697 Q1696.01 31.8644 1696.01 26.6793 Q1696.01 19.4281 1701.15 15.2152 Q1706.34 11.0023 1715.33 11.0023 Q1724.36 11.0023 1729.51 15.2152 Q1734.65 19.4281 1734.65 26.6793 Q1734.65 31.8644 1731.7 35.4697 Q1728.78 39.075 1723.55 40.3713 Q1729.47 41.7486 1732.75 45.759 Q1736.07 49.7694 1736.07 55.5622 Q1736.07 64.3527 1730.68 69.0517 Q1725.34 73.7508 1715.33 73.7508 Q1705.33 73.7508 1699.94 69.0517 Q1694.59 64.3527 1694.59 55.5622 Q1694.59 49.7694 1697.91 45.759 Q1701.23 41.7486 1707.15 40.3713 M1704.15 27.4489 Q1704.15 32.148 1707.07 34.7811 Q1710.02 37.4142 1715.33 37.4142 Q1720.6 37.4142 1723.55 34.7811 Q1726.55 32.148 1726.55 27.4489 Q1726.55 22.7499 1723.55 20.1168 Q1720.6 17.4837 1715.33 17.4837 Q1710.02 17.4837 1707.07 20.1168 Q1704.15 22.7499 1704.15 27.4489 Z" fill="#000000" fill-rule="nonzero" fill-opacity="1" /><polyline clip-path="url(#clip662)" style="stroke:#009af9; stroke-linecap:round; stroke-linejoin:round; stroke-width:8; stroke-opacity:1; fill:none" points="264.778,160.256 285.05,160.868 305.322,161.479 325.593,162.089 345.865,162.699 366.137,163.308 386.408,163.917 406.68,164.526 426.951,165.133 447.223,165.741 467.495,166.347 487.766,166.954 508.038,167.559 528.31,168.165 548.581,168.769 568.853,169.374 589.124,169.978 609.396,170.581 629.668,171.184 649.939,171.786 670.211,172.388 690.483,172.989 710.754,173.59 731.026,174.19 751.297,174.79 771.569,175.389 791.841,175.988 812.112,176.587 832.384,177.184 852.656,177.782 872.927,178.379 893.199,178.975 913.47,179.571 933.742,180.167 954.014,180.762 974.285,181.357 994.557,181.951 1014.83,182.545 1035.1,183.138 1055.37,183.732 1075.64,184.325 1095.92,184.918 1116.19,185.511 1136.46,186.104 1156.73,186.696 1177,187.29 1197.27,187.883 1217.54,188.477 1237.82,189.072 1258.09,189.668 1278.36,190.265 1298.63,190.863 1318.9,191.464 1339.17,192.068 1359.45,192.675 1379.72,193.285 1399.99,193.901 1420.26,194.523 1440.53,195.152 1460.8,195.79 1481.08,196.439 1501.35,197.101 1521.62,197.78 1541.89,198.478 1562.16,199.2 1582.43,199.951 1602.71,200.739 1622.98,201.571 1643.25,202.457 1663.52,203.412 1683.79,204.452 1704.06,205.598 1724.34,206.876 1744.61,208.32 1764.88,209.974 1785.15,211.89 1805.42,214.135 1825.69,216.789 1845.97,219.943 1866.24,223.705 1886.51,228.187 1906.78,233.501 1927.05,239.748 1947.32,247.004 1967.6,255.308 1987.87,264.653 2008.14,274.978 2028.41,286.177 2048.68,298.102 2068.95,310.578 2089.22,323.419 2109.5,336.44 2129.77,349.47 2150.04,362.361 2170.31,374.989 2190.58,387.259 2210.85,399.099 2231.13,410.465 2251.4,421.328 2271.67,431.679 2291.94,439.754 "/>
<polyline clip-path="url(#clip662)" style="stroke:#e26f46; stroke-linecap:round; stroke-linejoin:round; stroke-width:8; stroke-opacity:1; fill:none" points="264.778,1386.02 285.05,1385.88 305.322,1385.62 325.593,1385.38 345.865,1385.16 366.137,1384.96 386.408,1384.77 406.68,1384.6 426.951,1384.45 447.223,1384.3 467.495,1384.17 487.766,1384.05 508.038,1383.94 528.31,1383.84 548.581,1383.75 568.853,1383.66 589.124,1383.59 609.396,1383.52 629.668,1383.45 649.939,1383.39 670.211,1383.34 690.483,1383.29 710.754,1383.24 731.026,1383.2 751.297,1383.16 771.569,1383.13 791.841,1383.1 812.112,1383.07 832.384,1383.04 852.656,1383.02 872.927,1383 893.199,1382.98 913.47,1382.96 933.742,1382.94 954.014,1382.93 974.285,1382.91 994.557,1382.9 1014.83,1382.89 1035.1,1382.88 1055.37,1382.87 1075.64,1382.87 1095.92,1382.86 1116.19,1382.85 1136.46,1382.84 1156.73,1382.84 1177,1382.83 1197.27,1382.83 1217.54,1382.82 1237.82,1382.82 1258.09,1382.82 1278.36,1382.81 1298.63,1382.8 1318.9,1382.8 1339.17,1382.79 1359.45,1382.78 1379.72,1382.77 1399.99,1382.76 1420.26,1382.75 1440.53,1382.73 1460.8,1382.71 1481.08,1382.69 1501.35,1382.66 1521.62,1382.63 1541.89,1382.58 1562.16,1382.53 1582.43,1382.47 1602.71,1382.4 1622.98,1382.31 1643.25,1382.2 1663.52,1382.06 1683.79,1381.89 1704.06,1381.68 1724.34,1381.42 1744.61,1381.09 1764.88,1380.69 1785.15,1380.18 1805.42,1379.55 1825.69,1378.76 1845.97,1377.78 1866.24,1376.57 1886.51,1375.1 1906.78,1373.32 1927.05,1371.22 1947.32,1368.79 1967.6,1366.03 1987.87,1362.97 2008.14,1359.69 2028.41,1356.24 2048.68,1352.73 2068.95,1349.24 2089.22,1345.87 2109.5,1342.7 2129.77,1339.8 2150.04,1337.21 2170.31,1334.97 2190.58,1333.08 2210.85,1331.57 2231.13,1330.41 2251.4,1329.59 2271.67,1329.1 2291.94,1328.93 "/>
<polyline clip-path="url(#clip662)" style="stroke:#3da44d; stroke-linecap:round; stroke-linejoin:round; stroke-width:8; stroke-opacity:1; fill:none" points="264.778,1386.4 285.05,1385.97 305.322,1385.72 325.593,1385.48 345.865,1385.27 366.137,1385.07 386.408,1384.89 406.68,1384.72 426.951,1384.57 447.223,1384.43 467.495,1384.31 487.766,1384.19 508.038,1384.08 528.31,1383.98 548.581,1383.89 568.853,1383.81 589.124,1383.73 609.396,1383.66 629.668,1383.6 649.939,1383.54 670.211,1383.49 690.483,1383.44 710.754,1383.4 731.026,1383.36 751.297,1383.32 771.569,1383.28 791.841,1383.25 812.112,1383.22 832.384,1383.2 852.656,1383.18 872.927,1383.15 893.199,1383.14 913.47,1383.12 933.742,1383.1 954.014,1383.09 974.285,1383.08 994.557,1383.06 1014.83,1383.05 1035.1,1383.04 1055.37,1383.03 1075.64,1383.03 1095.92,1383.02 1116.19,1383.01 1136.46,1383.01 1156.73,1383 1177,1383 1197.27,1382.99 1217.54,1382.99 1237.82,1382.98 1258.09,1382.98 1278.36,1382.97 1298.63,1382.97 1318.9,1382.96 1339.17,1382.96 1359.45,1382.95 1379.72,1382.94 1399.99,1382.93 1420.26,1382.91 1440.53,1382.9 1460.8,1382.88 1481.08,1382.86 1501.35,1382.84 1521.62,1382.8 1541.89,1382.77 1562.16,1382.72 1582.43,1382.67 1602.71,1382.6 1622.98,1382.52 1643.25,1382.41 1663.52,1382.29 1683.79,1382.14 1704.06,1381.95 1724.34,1381.71 1744.61,1381.42 1764.88,1381.06 1785.15,1380.6 1805.42,1380.03 1825.69,1379.32 1845.97,1378.43 1866.24,1377.33 1886.51,1375.99 1906.78,1374.37 1927.05,1372.45 1947.32,1370.21 1967.6,1367.65 1987.87,1364.81 2008.14,1361.74 2028.41,1358.49 2048.68,1355.15 2068.95,1351.81 2089.22,1348.56 2109.5,1345.46 2129.77,1342.61 2150.04,1340.04 2170.31,1337.8 2190.58,1335.91 2210.85,1334.38 2231.13,1333.2 2251.4,1332.36 2271.67,1331.82 2291.94,1331.58 "/>
<circle clip-path="url(#clip662)" cx="401.274" cy="1384.58" r="18" fill="#c271d2" fill-rule="evenodd" fill-opacity="1" stroke="#000000" stroke-opacity="1" stroke-width="3.2"/>
<circle clip-path="url(#clip662)" cx="590.138" cy="1383.97" r="18" fill="#c271d2" fill-rule="evenodd" fill-opacity="1" stroke="#000000" stroke-opacity="1" stroke-width="3.2"/>
<circle clip-path="url(#clip662)" cx="772.921" cy="1382.76" r="18" fill="#c271d2" fill-rule="evenodd" fill-opacity="1" stroke="#000000" stroke-opacity="1" stroke-width="3.2"/>
<circle clip-path="url(#clip662)" cx="1818.94" cy="1379.73" r="18" fill="#c271d2" fill-rule="evenodd" fill-opacity="1" stroke="#000000" stroke-opacity="1" stroke-width="3.2"/>
<circle clip-path="url(#clip662)" cx="1965.57" cy="1361.56" r="18" fill="#c271d2" fill-rule="evenodd" fill-opacity="1" stroke="#000000" stroke-opacity="1" stroke-width="3.2"/>
<circle clip-path="url(#clip662)" cx="2065.24" cy="1351.26" r="18" fill="#c271d2" fill-rule="evenodd" fill-opacity="1" stroke="#000000" stroke-opacity="1" stroke-width="3.2"/>
<path clip-path="url(#clip660)" d="M1716.88 425.996 L2281.13 425.996 L2281.13 166.796 L1716.88 166.796  Z" fill="#ffffff" fill-rule="evenodd" fill-opacity="1"/>
<polyline clip-path="url(#clip660)" style="stroke:#000000; stroke-linecap:round; stroke-linejoin:round; stroke-width:4; stroke-opacity:1; fill:none" points="1716.88,425.996 2281.13,425.996 2281.13,166.796 1716.88,166.796 1716.88,425.996 "/>
<polyline clip-path="url(#clip660)" style="stroke:#009af9; stroke-linecap:round; stroke-linejoin:round; stroke-width:8; stroke-opacity:1; fill:none" points="1740.75,218.636 1884.01,218.636 "/>
<path clip-path="url(#clip660)" d="M1930.13 202.49 L1930.13 207.05 Q1927.46 205.777 1925.1 205.152 Q1922.74 204.527 1920.54 204.527 Q1916.72 204.527 1914.64 206.008 Q1912.58 207.49 1912.58 210.221 Q1912.58 212.513 1913.95 213.694 Q1915.33 214.851 1919.18 215.569 L1922 216.147 Q1927.23 217.143 1929.71 219.666 Q1932.21 222.166 1932.21 226.379 Q1932.21 231.402 1928.83 233.994 Q1925.47 236.587 1918.97 236.587 Q1916.52 236.587 1913.74 236.031 Q1910.98 235.476 1908.02 234.388 L1908.02 229.573 Q1910.87 231.17 1913.6 231.981 Q1916.33 232.791 1918.97 232.791 Q1922.97 232.791 1925.15 231.217 Q1927.33 229.643 1927.33 226.726 Q1927.33 224.18 1925.75 222.744 Q1924.2 221.309 1920.64 220.592 L1917.79 220.036 Q1912.56 218.995 1910.22 216.772 Q1907.88 214.55 1907.88 210.592 Q1907.88 206.008 1911.1 203.37 Q1914.34 200.731 1920.01 200.731 Q1922.44 200.731 1924.96 201.171 Q1927.49 201.61 1930.13 202.49 Z" fill="#000000" fill-rule="nonzero" fill-opacity="1" /><path clip-path="url(#clip660)" d="M1951.1 222.883 Q1945.94 222.883 1943.95 224.064 Q1941.95 225.244 1941.95 228.092 Q1941.95 230.36 1943.44 231.703 Q1944.94 233.022 1947.51 233.022 Q1951.05 233.022 1953.18 230.522 Q1955.33 227.999 1955.33 223.832 L1955.33 222.883 L1951.1 222.883 M1959.59 221.124 L1959.59 235.916 L1955.33 235.916 L1955.33 231.981 Q1953.88 234.342 1951.7 235.476 Q1949.52 236.587 1946.38 236.587 Q1942.39 236.587 1940.03 234.365 Q1937.7 232.119 1937.7 228.369 Q1937.7 223.994 1940.61 221.772 Q1943.55 219.55 1949.36 219.55 L1955.33 219.55 L1955.33 219.133 Q1955.33 216.194 1953.39 214.596 Q1951.47 212.976 1947.97 212.976 Q1945.75 212.976 1943.64 213.508 Q1941.54 214.041 1939.59 215.106 L1939.59 211.17 Q1941.93 210.268 1944.13 209.828 Q1946.33 209.365 1948.41 209.365 Q1954.04 209.365 1956.82 212.282 Q1959.59 215.198 1959.59 221.124 Z" fill="#000000" fill-rule="nonzero" fill-opacity="1" /><path clip-path="url(#clip660)" d="M1983.39 213.971 Q1982.67 213.555 1981.82 213.37 Q1980.98 213.161 1979.96 213.161 Q1976.35 213.161 1974.41 215.522 Q1972.49 217.86 1972.49 222.258 L1972.49 235.916 L1968.2 235.916 L1968.2 209.99 L1972.49 209.99 L1972.49 214.018 Q1973.83 211.657 1975.98 210.522 Q1978.14 209.365 1981.21 209.365 Q1981.65 209.365 1982.19 209.434 Q1982.72 209.481 1983.37 209.596 L1983.39 213.971 Z" fill="#000000" fill-rule="nonzero" fill-opacity="1" /><path clip-path="url(#clip660)" d="M2005.47 210.985 L2005.47 214.967 Q2003.67 213.971 2001.84 213.485 Q2000.03 212.976 1998.18 212.976 Q1994.04 212.976 1991.75 215.615 Q1989.45 218.231 1989.45 222.976 Q1989.45 227.721 1991.75 230.36 Q1994.04 232.976 1998.18 232.976 Q2000.03 232.976 2001.84 232.49 Q2003.67 231.981 2005.47 230.985 L2005.47 234.92 Q2003.69 235.754 2001.77 236.17 Q1999.87 236.587 1997.72 236.587 Q1991.86 236.587 1988.41 232.906 Q1984.96 229.226 1984.96 222.976 Q1984.96 216.633 1988.44 212.999 Q1991.93 209.365 1998 209.365 Q1999.96 209.365 2001.84 209.782 Q2003.71 210.175 2005.47 210.985 Z" fill="#000000" fill-rule="nonzero" fill-opacity="1" /><path clip-path="url(#clip660)" d="M2022.93 212.976 Q2019.5 212.976 2017.51 215.661 Q2015.52 218.323 2015.52 222.976 Q2015.52 227.629 2017.49 230.314 Q2019.48 232.976 2022.93 232.976 Q2026.33 232.976 2028.32 230.291 Q2030.31 227.606 2030.31 222.976 Q2030.31 218.37 2028.32 215.684 Q2026.33 212.976 2022.93 212.976 M2022.93 209.365 Q2028.48 209.365 2031.65 212.976 Q2034.82 216.587 2034.82 222.976 Q2034.82 229.342 2031.65 232.976 Q2028.48 236.587 2022.93 236.587 Q2017.35 236.587 2014.18 232.976 Q2011.03 229.342 2011.03 222.976 Q2011.03 216.587 2014.18 212.976 Q2017.35 209.365 2022.93 209.365 Z" fill="#000000" fill-rule="nonzero" fill-opacity="1" /><path clip-path="url(#clip660)" d="M2062.07 214.967 Q2063.67 212.096 2065.89 210.731 Q2068.11 209.365 2071.12 209.365 Q2075.17 209.365 2077.37 212.212 Q2079.57 215.036 2079.57 220.268 L2079.57 235.916 L2075.29 235.916 L2075.29 220.407 Q2075.29 216.68 2073.97 214.874 Q2072.65 213.069 2069.94 213.069 Q2066.63 213.069 2064.71 215.268 Q2062.79 217.467 2062.79 221.263 L2062.79 235.916 L2058.51 235.916 L2058.51 220.407 Q2058.51 216.657 2057.19 214.874 Q2055.87 213.069 2053.11 213.069 Q2049.85 213.069 2047.93 215.291 Q2046.01 217.49 2046.01 221.263 L2046.01 235.916 L2041.72 235.916 L2041.72 209.99 L2046.01 209.99 L2046.01 214.018 Q2047.46 211.633 2049.5 210.499 Q2051.54 209.365 2054.34 209.365 Q2057.16 209.365 2059.13 210.8 Q2061.12 212.235 2062.07 214.967 Z" fill="#000000" fill-rule="nonzero" fill-opacity="1" /><path clip-path="url(#clip660)" d="M2110.24 221.888 L2110.24 223.971 L2090.66 223.971 Q2090.94 228.369 2093.3 230.684 Q2095.68 232.976 2099.92 232.976 Q2102.37 232.976 2104.66 232.374 Q2106.98 231.772 2109.25 230.569 L2109.25 234.596 Q2106.95 235.568 2104.55 236.078 Q2102.14 236.587 2099.66 236.587 Q2093.46 236.587 2089.82 232.976 Q2086.21 229.365 2086.21 223.207 Q2086.21 216.842 2089.64 213.115 Q2093.09 209.365 2098.92 209.365 Q2104.15 209.365 2107.19 212.745 Q2110.24 216.101 2110.24 221.888 M2105.98 220.638 Q2105.94 217.143 2104.01 215.059 Q2102.12 212.976 2098.97 212.976 Q2095.4 212.976 2093.25 214.99 Q2091.12 217.004 2090.8 220.661 L2105.98 220.638 Z" fill="#000000" fill-rule="nonzero" fill-opacity="1" /><path clip-path="url(#clip660)" d="M2132.25 213.971 Q2131.54 213.555 2130.68 213.37 Q2129.85 213.161 2128.83 213.161 Q2125.22 213.161 2123.27 215.522 Q2121.35 217.86 2121.35 222.258 L2121.35 235.916 L2117.07 235.916 L2117.07 209.99 L2121.35 209.99 L2121.35 214.018 Q2122.69 211.657 2124.85 210.522 Q2127 209.365 2130.08 209.365 Q2130.52 209.365 2131.05 209.434 Q2131.58 209.481 2132.23 209.596 L2132.25 213.971 Z" fill="#000000" fill-rule="nonzero" fill-opacity="1" /><path clip-path="url(#clip660)" d="M2157.86 221.888 L2157.86 223.971 L2138.27 223.971 Q2138.55 228.369 2140.91 230.684 Q2143.3 232.976 2147.53 232.976 Q2149.99 232.976 2152.28 232.374 Q2154.59 231.772 2156.86 230.569 L2156.86 234.596 Q2154.57 235.568 2152.16 236.078 Q2149.75 236.587 2147.28 236.587 Q2141.07 236.587 2137.44 232.976 Q2133.83 229.365 2133.83 223.207 Q2133.83 216.842 2137.25 213.115 Q2140.7 209.365 2146.54 209.365 Q2151.77 209.365 2154.8 212.745 Q2157.86 216.101 2157.86 221.888 M2153.6 220.638 Q2153.55 217.143 2151.63 215.059 Q2149.73 212.976 2146.58 212.976 Q2143.02 212.976 2140.87 214.99 Q2138.74 217.004 2138.41 220.661 L2153.6 220.638 Z" fill="#000000" fill-rule="nonzero" fill-opacity="1" /><polyline clip-path="url(#clip660)" style="stroke:#e26f46; stroke-linecap:round; stroke-linejoin:round; stroke-width:8; stroke-opacity:1; fill:none" points="1740.75,270.476 1884.01,270.476 "/>
<path clip-path="url(#clip660)" d="M1935.75 255.858 L1935.75 260.788 Q1933.39 258.589 1930.7 257.501 Q1928.04 256.413 1925.03 256.413 Q1919.11 256.413 1915.96 260.048 Q1912.81 263.659 1912.81 270.51 Q1912.81 277.339 1915.96 280.973 Q1919.11 284.584 1925.03 284.584 Q1928.04 284.584 1930.7 283.496 Q1933.39 282.409 1935.75 280.209 L1935.75 285.094 Q1933.3 286.76 1930.54 287.594 Q1927.81 288.427 1924.76 288.427 Q1916.91 288.427 1912.39 283.635 Q1907.88 278.821 1907.88 270.51 Q1907.88 262.177 1912.39 257.386 Q1916.91 252.571 1924.76 252.571 Q1927.86 252.571 1930.59 253.404 Q1933.34 254.214 1935.75 255.858 Z" fill="#000000" fill-rule="nonzero" fill-opacity="1" /><path clip-path="url(#clip660)" d="M1953.58 290.163 Q1951.77 294.793 1950.06 296.205 Q1948.34 297.617 1945.47 297.617 L1942.07 297.617 L1942.07 294.052 L1944.57 294.052 Q1946.33 294.052 1947.3 293.219 Q1948.27 292.385 1949.45 289.283 L1950.22 287.339 L1939.73 261.83 L1944.25 261.83 L1952.35 282.108 L1960.45 261.83 L1964.96 261.83 L1953.58 290.163 Z" fill="#000000" fill-rule="nonzero" fill-opacity="1" /><path clip-path="url(#clip660)" d="M1975.06 254.469 L1975.06 261.83 L1983.83 261.83 L1983.83 265.14 L1975.06 265.14 L1975.06 279.214 Q1975.06 282.385 1975.91 283.288 Q1976.79 284.191 1979.45 284.191 L1983.83 284.191 L1983.83 287.756 L1979.45 287.756 Q1974.52 287.756 1972.65 285.927 Q1970.77 284.075 1970.77 279.214 L1970.77 265.14 L1967.65 265.14 L1967.65 261.83 L1970.77 261.83 L1970.77 254.469 L1975.06 254.469 Z" fill="#000000" fill-rule="nonzero" fill-opacity="1" /><path clip-path="url(#clip660)" d="M1999.48 264.816 Q1996.05 264.816 1994.06 267.501 Q1992.07 270.163 1992.07 274.816 Q1992.07 279.469 1994.04 282.154 Q1996.03 284.816 1999.48 284.816 Q2002.88 284.816 2004.87 282.131 Q2006.86 279.446 2006.86 274.816 Q2006.86 270.21 2004.87 267.524 Q2002.88 264.816 1999.48 264.816 M1999.48 261.205 Q2005.03 261.205 2008.2 264.816 Q2011.38 268.427 2011.38 274.816 Q2011.38 281.182 2008.2 284.816 Q2005.03 288.427 1999.48 288.427 Q1993.9 288.427 1990.73 284.816 Q1987.58 281.182 1987.58 274.816 Q1987.58 268.427 1990.73 264.816 Q1993.9 261.205 1999.48 261.205 Z" fill="#000000" fill-rule="nonzero" fill-opacity="1" /><path clip-path="url(#clip660)" d="M2034.96 262.594 L2034.96 266.622 Q2033.16 265.696 2031.21 265.233 Q2029.27 264.77 2027.19 264.77 Q2024.01 264.77 2022.42 265.742 Q2020.84 266.714 2020.84 268.659 Q2020.84 270.14 2021.98 270.997 Q2023.11 271.83 2026.54 272.594 L2028 272.918 Q2032.53 273.89 2034.43 275.672 Q2036.35 277.432 2036.35 280.603 Q2036.35 284.214 2033.48 286.321 Q2030.63 288.427 2025.63 288.427 Q2023.55 288.427 2021.28 288.01 Q2019.04 287.617 2016.54 286.807 L2016.54 282.409 Q2018.9 283.635 2021.19 284.26 Q2023.48 284.862 2025.73 284.862 Q2028.74 284.862 2030.36 283.844 Q2031.98 282.802 2031.98 280.927 Q2031.98 279.191 2030.8 278.265 Q2029.64 277.339 2025.68 276.483 L2024.2 276.135 Q2020.24 275.302 2018.48 273.589 Q2016.72 271.853 2016.72 268.844 Q2016.72 265.186 2019.32 263.196 Q2021.91 261.205 2026.68 261.205 Q2029.04 261.205 2031.12 261.552 Q2033.2 261.899 2034.96 262.594 Z" fill="#000000" fill-rule="nonzero" fill-opacity="1" /><path clip-path="url(#clip660)" d="M2053.18 264.816 Q2049.76 264.816 2047.76 267.501 Q2045.77 270.163 2045.77 274.816 Q2045.77 279.469 2047.74 282.154 Q2049.73 284.816 2053.18 284.816 Q2056.58 284.816 2058.57 282.131 Q2060.57 279.446 2060.57 274.816 Q2060.57 270.21 2058.57 267.524 Q2056.58 264.816 2053.18 264.816 M2053.18 261.205 Q2058.74 261.205 2061.91 264.816 Q2065.08 268.427 2065.08 274.816 Q2065.08 281.182 2061.91 284.816 Q2058.74 288.427 2053.18 288.427 Q2047.6 288.427 2044.43 284.816 Q2041.28 281.182 2041.28 274.816 Q2041.28 268.427 2044.43 264.816 Q2047.6 261.205 2053.18 261.205 Z" fill="#000000" fill-rule="nonzero" fill-opacity="1" /><path clip-path="url(#clip660)" d="M2072.14 251.737 L2076.4 251.737 L2076.4 287.756 L2072.14 287.756 L2072.14 251.737 Z" fill="#000000" fill-rule="nonzero" fill-opacity="1" /><polyline clip-path="url(#clip660)" style="stroke:#3da44d; stroke-linecap:round; stroke-linejoin:round; stroke-width:8; stroke-opacity:1; fill:none" points="1740.75,322.316 1884.01,322.316 "/>
<path clip-path="url(#clip660)" d="M1912.56 323.091 L1912.56 335.753 L1920.06 335.753 Q1923.83 335.753 1925.64 334.202 Q1927.46 332.628 1927.46 329.411 Q1927.46 326.17 1925.64 324.642 Q1923.83 323.091 1920.06 323.091 L1912.56 323.091 M1912.56 308.878 L1912.56 319.295 L1919.48 319.295 Q1922.9 319.295 1924.57 318.022 Q1926.26 316.725 1926.26 314.087 Q1926.26 311.471 1924.57 310.175 Q1922.9 308.878 1919.48 308.878 L1912.56 308.878 M1907.88 305.036 L1919.83 305.036 Q1925.17 305.036 1928.07 307.258 Q1930.96 309.48 1930.96 313.577 Q1930.96 316.749 1929.48 318.624 Q1928 320.499 1925.13 320.962 Q1928.58 321.702 1930.47 324.063 Q1932.39 326.401 1932.39 329.92 Q1932.39 334.549 1929.25 337.073 Q1926.1 339.596 1920.29 339.596 L1907.88 339.596 L1907.88 305.036 Z" fill="#000000" fill-rule="nonzero" fill-opacity="1" /><path clip-path="url(#clip660)" d="M1940.22 303.577 L1944.48 303.577 L1944.48 339.596 L1940.22 339.596 L1940.22 303.577 Z" fill="#000000" fill-rule="nonzero" fill-opacity="1" /><path clip-path="url(#clip660)" d="M1963.44 316.656 Q1960.01 316.656 1958.02 319.341 Q1956.03 322.003 1956.03 326.656 Q1956.03 331.309 1958 333.994 Q1959.99 336.656 1963.44 336.656 Q1966.84 336.656 1968.83 333.971 Q1970.82 331.286 1970.82 326.656 Q1970.82 322.05 1968.83 319.364 Q1966.84 316.656 1963.44 316.656 M1963.44 313.045 Q1968.99 313.045 1972.16 316.656 Q1975.33 320.267 1975.33 326.656 Q1975.33 333.022 1972.16 336.656 Q1968.99 340.267 1963.44 340.267 Q1957.86 340.267 1954.69 336.656 Q1951.54 333.022 1951.54 326.656 Q1951.54 320.267 1954.69 316.656 Q1957.86 313.045 1963.44 313.045 Z" fill="#000000" fill-rule="nonzero" fill-opacity="1" /><path clip-path="url(#clip660)" d="M1992.44 316.656 Q1989.01 316.656 1987.02 319.341 Q1985.03 322.003 1985.03 326.656 Q1985.03 331.309 1987 333.994 Q1988.99 336.656 1992.44 336.656 Q1995.84 336.656 1997.83 333.971 Q1999.82 331.286 1999.82 326.656 Q1999.82 322.05 1997.83 319.364 Q1995.84 316.656 1992.44 316.656 M1992.44 313.045 Q1998 313.045 2001.17 316.656 Q2004.34 320.267 2004.34 326.656 Q2004.34 333.022 2001.17 336.656 Q1998 340.267 1992.44 340.267 Q1986.86 340.267 1983.69 336.656 Q1980.54 333.022 1980.54 326.656 Q1980.54 320.267 1983.69 316.656 Q1986.86 313.045 1992.44 313.045 Z" fill="#000000" fill-rule="nonzero" fill-opacity="1" /><path clip-path="url(#clip660)" d="M2028.46 317.605 L2028.46 303.577 L2032.72 303.577 L2032.72 339.596 L2028.46 339.596 L2028.46 335.707 Q2027.12 338.022 2025.06 339.156 Q2023.02 340.267 2020.15 340.267 Q2015.45 340.267 2012.49 336.517 Q2009.55 332.767 2009.55 326.656 Q2009.55 320.545 2012.49 316.795 Q2015.45 313.045 2020.15 313.045 Q2023.02 313.045 2025.06 314.179 Q2027.12 315.29 2028.46 317.605 M2013.95 326.656 Q2013.95 331.355 2015.87 334.04 Q2017.81 336.702 2021.19 336.702 Q2024.57 336.702 2026.51 334.04 Q2028.46 331.355 2028.46 326.656 Q2028.46 321.957 2026.51 319.295 Q2024.57 316.61 2021.19 316.61 Q2017.81 316.61 2015.87 319.295 Q2013.95 321.957 2013.95 326.656 Z" fill="#000000" fill-rule="nonzero" fill-opacity="1" /><circle clip-path="url(#clip660)" cx="1812.38" cy="374.156" r="20.9455" fill="#c271d2" fill-rule="evenodd" fill-opacity="1" stroke="#000000" stroke-opacity="1" stroke-width="3.72364"/>
<path clip-path="url(#clip660)" d="M1923.9 360.047 Q1918.81 360.047 1915.8 363.843 Q1912.81 367.64 1912.81 374.19 Q1912.81 380.718 1915.8 384.514 Q1918.81 388.311 1923.9 388.311 Q1928.99 388.311 1931.95 384.514 Q1934.94 380.718 1934.94 374.19 Q1934.94 367.64 1931.95 363.843 Q1928.99 360.047 1923.9 360.047 M1923.9 356.251 Q1931.17 356.251 1935.52 361.135 Q1939.87 365.996 1939.87 374.19 Q1939.87 382.362 1935.52 387.246 Q1931.17 392.107 1923.9 392.107 Q1916.61 392.107 1912.23 387.246 Q1907.88 382.385 1907.88 374.19 Q1907.88 365.996 1912.23 361.135 Q1916.61 356.251 1923.9 356.251 Z" fill="#000000" fill-rule="nonzero" fill-opacity="1" /><path clip-path="url(#clip660)" d="M1965.61 378.496 Q1965.61 373.797 1963.67 371.135 Q1961.75 368.45 1958.37 368.45 Q1954.99 368.45 1953.04 371.135 Q1951.12 373.797 1951.12 378.496 Q1951.12 383.195 1953.04 385.88 Q1954.99 388.542 1958.37 388.542 Q1961.75 388.542 1963.67 385.88 Q1965.61 383.195 1965.61 378.496 M1951.12 369.445 Q1952.46 367.13 1954.5 366.019 Q1956.56 364.885 1959.41 364.885 Q1964.13 364.885 1967.07 368.635 Q1970.03 372.385 1970.03 378.496 Q1970.03 384.607 1967.07 388.357 Q1964.13 392.107 1959.41 392.107 Q1956.56 392.107 1954.5 390.996 Q1952.46 389.862 1951.12 387.547 L1951.12 391.436 L1946.84 391.436 L1946.84 355.417 L1951.12 355.417 L1951.12 369.445 Z" fill="#000000" fill-rule="nonzero" fill-opacity="1" /><path clip-path="url(#clip660)" d="M1993.62 366.274 L1993.62 370.302 Q1991.82 369.376 1989.87 368.913 Q1987.93 368.45 1985.84 368.45 Q1982.67 368.45 1981.07 369.422 Q1979.5 370.394 1979.5 372.339 Q1979.5 373.82 1980.64 374.677 Q1981.77 375.51 1985.2 376.274 L1986.65 376.598 Q1991.19 377.57 1993.09 379.352 Q1995.01 381.112 1995.01 384.283 Q1995.01 387.894 1992.14 390.001 Q1989.29 392.107 1984.29 392.107 Q1982.21 392.107 1979.94 391.69 Q1977.7 391.297 1975.2 390.487 L1975.2 386.089 Q1977.56 387.315 1979.85 387.94 Q1982.14 388.542 1984.39 388.542 Q1987.39 388.542 1989.01 387.524 Q1990.64 386.482 1990.64 384.607 Q1990.64 382.871 1989.45 381.945 Q1988.3 381.019 1984.34 380.163 L1982.86 379.815 Q1978.9 378.982 1977.14 377.269 Q1975.38 375.533 1975.38 372.524 Q1975.38 368.866 1977.97 366.876 Q1980.57 364.885 1985.33 364.885 Q1987.7 364.885 1989.78 365.232 Q1991.86 365.579 1993.62 366.274 Z" fill="#000000" fill-rule="nonzero" fill-opacity="1" /><path clip-path="url(#clip660)" d="M2023.97 377.408 L2023.97 379.491 L2004.39 379.491 Q2004.66 383.889 2007.02 386.204 Q2009.41 388.496 2013.64 388.496 Q2016.1 388.496 2018.39 387.894 Q2020.7 387.292 2022.97 386.089 L2022.97 390.116 Q2020.68 391.088 2018.27 391.598 Q2015.87 392.107 2013.39 392.107 Q2007.19 392.107 2003.55 388.496 Q1999.94 384.885 1999.94 378.727 Q1999.94 372.362 2003.37 368.635 Q2006.82 364.885 2012.65 364.885 Q2017.88 364.885 2020.91 368.265 Q2023.97 371.621 2023.97 377.408 M2019.71 376.158 Q2019.66 372.663 2017.74 370.579 Q2015.84 368.496 2012.7 368.496 Q2009.13 368.496 2006.98 370.51 Q2004.85 372.524 2004.52 376.181 L2019.71 376.158 Z" fill="#000000" fill-rule="nonzero" fill-opacity="1" /><path clip-path="url(#clip660)" d="M2045.98 369.491 Q2045.26 369.075 2044.41 368.89 Q2043.57 368.681 2042.56 368.681 Q2038.95 368.681 2037 371.042 Q2035.08 373.38 2035.08 377.778 L2035.08 391.436 L2030.8 391.436 L2030.8 365.51 L2035.08 365.51 L2035.08 369.538 Q2036.42 367.177 2038.57 366.042 Q2040.73 364.885 2043.81 364.885 Q2044.25 364.885 2044.78 364.954 Q2045.31 365.001 2045.96 365.116 L2045.98 369.491 Z" fill="#000000" fill-rule="nonzero" fill-opacity="1" /><path clip-path="url(#clip660)" d="M2047.39 365.51 L2051.91 365.51 L2060.01 387.269 L2068.11 365.51 L2072.63 365.51 L2062.9 391.436 L2057.12 391.436 L2047.39 365.51 Z" fill="#000000" fill-rule="nonzero" fill-opacity="1" /><path clip-path="url(#clip660)" d="M2100.68 377.408 L2100.68 379.491 L2081.1 379.491 Q2081.38 383.889 2083.74 386.204 Q2086.12 388.496 2090.36 388.496 Q2092.81 388.496 2095.1 387.894 Q2097.42 387.292 2099.69 386.089 L2099.69 390.116 Q2097.39 391.088 2094.99 391.598 Q2092.58 392.107 2090.1 392.107 Q2083.9 392.107 2080.26 388.496 Q2076.65 384.885 2076.65 378.727 Q2076.65 372.362 2080.08 368.635 Q2083.53 364.885 2089.36 364.885 Q2094.59 364.885 2097.63 368.265 Q2100.68 371.621 2100.68 377.408 M2096.42 376.158 Q2096.38 372.663 2094.45 370.579 Q2092.56 368.496 2089.41 368.496 Q2085.84 368.496 2083.69 370.51 Q2081.56 372.524 2081.24 376.181 L2096.42 376.158 Z" fill="#000000" fill-rule="nonzero" fill-opacity="1" /><path clip-path="url(#clip660)" d="M2124.73 369.445 L2124.73 355.417 L2128.99 355.417 L2128.99 391.436 L2124.73 391.436 L2124.73 387.547 Q2123.39 389.862 2121.33 390.996 Q2119.29 392.107 2116.42 392.107 Q2111.72 392.107 2108.76 388.357 Q2105.82 384.607 2105.82 378.496 Q2105.82 372.385 2108.76 368.635 Q2111.72 364.885 2116.42 364.885 Q2119.29 364.885 2121.33 366.019 Q2123.39 367.13 2124.73 369.445 M2110.22 378.496 Q2110.22 383.195 2112.14 385.88 Q2114.08 388.542 2117.46 388.542 Q2120.84 388.542 2122.79 385.88 Q2124.73 383.195 2124.73 378.496 Q2124.73 373.797 2122.79 371.135 Q2120.84 368.45 2117.46 368.45 Q2114.08 368.45 2112.14 371.135 Q2110.22 373.797 2110.22 378.496 Z" fill="#000000" fill-rule="nonzero" fill-opacity="1" /><path clip-path="url(#clip660)" d="M2157.69 360.718 L2157.69 387.593 L2163.34 387.593 Q2170.5 387.593 2173.81 384.352 Q2177.14 381.112 2177.14 374.121 Q2177.14 367.177 2173.81 363.959 Q2170.5 360.718 2163.34 360.718 L2157.69 360.718 M2153.02 356.876 L2162.62 356.876 Q2172.67 356.876 2177.37 361.066 Q2182.07 365.232 2182.07 374.121 Q2182.07 383.056 2177.35 387.246 Q2172.62 391.436 2162.62 391.436 L2153.02 391.436 L2153.02 356.876 Z" fill="#000000" fill-rule="nonzero" fill-opacity="1" /><path clip-path="url(#clip660)" d="M2201.12 378.403 Q2195.96 378.403 2193.97 379.584 Q2191.98 380.764 2191.98 383.612 Q2191.98 385.88 2193.46 387.223 Q2194.96 388.542 2197.53 388.542 Q2201.07 388.542 2203.2 386.042 Q2205.36 383.519 2205.36 379.352 L2205.36 378.403 L2201.12 378.403 M2209.62 376.644 L2209.62 391.436 L2205.36 391.436 L2205.36 387.501 Q2203.9 389.862 2201.72 390.996 Q2199.55 392.107 2196.4 392.107 Q2192.42 392.107 2190.06 389.885 Q2187.72 387.639 2187.72 383.889 Q2187.72 379.514 2190.63 377.292 Q2193.57 375.07 2199.38 375.07 L2205.36 375.07 L2205.36 374.653 Q2205.36 371.714 2203.41 370.116 Q2201.49 368.496 2198 368.496 Q2195.77 368.496 2193.67 369.028 Q2191.56 369.561 2189.62 370.626 L2189.62 366.69 Q2191.95 365.788 2194.15 365.348 Q2196.35 364.885 2198.43 364.885 Q2204.06 364.885 2206.84 367.802 Q2209.62 370.718 2209.62 376.644 Z" fill="#000000" fill-rule="nonzero" fill-opacity="1" /><path clip-path="url(#clip660)" d="M2222.6 358.149 L2222.6 365.51 L2231.37 365.51 L2231.37 368.82 L2222.6 368.82 L2222.6 382.894 Q2222.6 386.065 2223.46 386.968 Q2224.34 387.871 2227 387.871 L2231.37 387.871 L2231.37 391.436 L2227 391.436 Q2222.07 391.436 2220.19 389.607 Q2218.32 387.755 2218.32 382.894 L2218.32 368.82 L2215.19 368.82 L2215.19 365.51 L2218.32 365.51 L2218.32 358.149 L2222.6 358.149 Z" fill="#000000" fill-rule="nonzero" fill-opacity="1" /><path clip-path="url(#clip660)" d="M2248.76 378.403 Q2243.6 378.403 2241.61 379.584 Q2239.62 380.764 2239.62 383.612 Q2239.62 385.88 2241.1 387.223 Q2242.6 388.542 2245.17 388.542 Q2248.71 388.542 2250.84 386.042 Q2252.99 383.519 2252.99 379.352 L2252.99 378.403 L2248.76 378.403 M2257.25 376.644 L2257.25 391.436 L2252.99 391.436 L2252.99 387.501 Q2251.54 389.862 2249.36 390.996 Q2247.18 392.107 2244.04 392.107 Q2240.06 392.107 2237.69 389.885 Q2235.36 387.639 2235.36 383.889 Q2235.36 379.514 2238.27 377.292 Q2241.21 375.07 2247.02 375.07 L2252.99 375.07 L2252.99 374.653 Q2252.99 371.714 2251.05 370.116 Q2249.13 368.496 2245.63 368.496 Q2243.41 368.496 2241.31 369.028 Q2239.2 369.561 2237.25 370.626 L2237.25 366.69 Q2239.59 365.788 2241.79 365.348 Q2243.99 364.885 2246.07 364.885 Q2251.7 364.885 2254.48 367.802 Q2257.25 370.718 2257.25 376.644 Z" fill="#000000" fill-rule="nonzero" fill-opacity="1" /></svg>
