<?xml version="1.0" encoding="utf-8"?>
<svg xmlns="http://www.w3.org/2000/svg" xmlns:xlink="http://www.w3.org/1999/xlink" width="600" height="400" viewBox="0 0 2400 1600">
<defs>
  <clipPath id="clip480">
    <rect x="0" y="0" width="2400" height="1600"/>
  </clipPath>
</defs>
<path clip-path="url(#clip480)" d="M0 1600 L2400 1600 L2400 0 L0 0  Z" fill="#ffffff" fill-rule="evenodd" fill-opacity="1"/>
<defs>
  <clipPath id="clip481">
    <rect x="219" y="123" width="2134" height="1301"/>
  </clipPath>
</defs>
<path clip-path="url(#clip480)" d="M175.445 1423.18 L2352.76 1423.18 L2352.76 123.472 L175.445 123.472  Z" fill="#ffffff" fill-rule="evenodd" fill-opacity="1"/>
<defs>
  <clipPath id="clip482">
    <rect x="175" y="123" width="2178" height="1301"/>
  </clipPath>
</defs>
<polyline clip-path="url(#clip482)" style="stroke:#000000; stroke-linecap:round; stroke-linejoin:round; stroke-width:2; stroke-opacity:0.1; fill:none" points="175.445,1423.18 175.445,123.472 "/>
<polyline clip-path="url(#clip482)" style="stroke:#000000; stroke-linecap:round; stroke-linejoin:round; stroke-width:2; stroke-opacity:0.1; fill:none" points="541.052,1423.18 541.052,123.472 "/>
<polyline clip-path="url(#clip482)" style="stroke:#000000; stroke-linecap:round; stroke-linejoin:round; stroke-width:2; stroke-opacity:0.1; fill:none" points="906.659,1423.18 906.659,123.472 "/>
<polyline clip-path="url(#clip482)" style="stroke:#000000; stroke-linecap:round; stroke-linejoin:round; stroke-width:2; stroke-opacity:0.1; fill:none" points="1272.27,1423.18 1272.27,123.472 "/>
<polyline clip-path="url(#clip482)" style="stroke:#000000; stroke-linecap:round; stroke-linejoin:round; stroke-width:2; stroke-opacity:0.1; fill:none" points="1637.87,1423.18 1637.87,123.472 "/>
<polyline clip-path="url(#clip482)" style="stroke:#000000; stroke-linecap:round; stroke-linejoin:round; stroke-width:2; stroke-opacity:0.1; fill:none" points="2003.48,1423.18 2003.48,123.472 "/>
<polyline clip-path="url(#clip482)" style="stroke:#000000; stroke-linecap:round; stroke-linejoin:round; stroke-width:2; stroke-opacity:0.1; fill:none" points="175.445,1386.4 2352.76,1386.4 "/>
<polyline clip-path="url(#clip482)" style="stroke:#000000; stroke-linecap:round; stroke-linejoin:round; stroke-width:2; stroke-opacity:0.1; fill:none" points="175.445,1077.68 2352.76,1077.68 "/>
<polyline clip-path="url(#clip482)" style="stroke:#000000; stroke-linecap:round; stroke-linejoin:round; stroke-width:2; stroke-opacity:0.1; fill:none" points="175.445,768.954 2352.76,768.954 "/>
<polyline clip-path="url(#clip482)" style="stroke:#000000; stroke-linecap:round; stroke-linejoin:round; stroke-width:2; stroke-opacity:0.1; fill:none" points="175.445,460.234 2352.76,460.234 "/>
<polyline clip-path="url(#clip482)" style="stroke:#000000; stroke-linecap:round; stroke-linejoin:round; stroke-width:2; stroke-opacity:0.1; fill:none" points="175.445,151.513 2352.76,151.513 "/>
<polyline clip-path="url(#clip480)" style="stroke:#000000; stroke-linecap:round; stroke-linejoin:round; stroke-width:4; stroke-opacity:1; fill:none" points="175.445,1423.18 2352.76,1423.18 "/>
<polyline clip-path="url(#clip480)" style="stroke:#000000; stroke-linecap:round; stroke-linejoin:round; stroke-width:4; stroke-opacity:1; fill:none" points="175.445,1423.18 175.445,1404.28 "/>
<polyline clip-path="url(#clip480)" style="stroke:#000000; stroke-linecap:round; stroke-linejoin:round; stroke-width:4; stroke-opacity:1; fill:none" points="541.052,1423.18 541.052,1404.28 "/>
<polyline clip-path="url(#clip480)" style="stroke:#000000; stroke-linecap:round; stroke-linejoin:round; stroke-width:4; stroke-opacity:1; fill:none" points="906.659,1423.18 906.659,1404.28 "/>
<polyline clip-path="url(#clip480)" style="stroke:#000000; stroke-linecap:round; stroke-linejoin:round; stroke-width:4; stroke-opacity:1; fill:none" points="1272.27,1423.18 1272.27,1404.28 "/>
<polyline clip-path="url(#clip480)" style="stroke:#000000; stroke-linecap:round; stroke-linejoin:round; stroke-width:4; stroke-opacity:1; fill:none" points="1637.87,1423.18 1637.87,1404.28 "/>
<polyline clip-path="url(#clip480)" style="stroke:#000000; stroke-linecap:round; stroke-linejoin:round; stroke-width:4; stroke-opacity:1; fill:none" points="2003.48,1423.18 2003.48,1404.28 "/>
<path clip-path="url(#clip480)" d="M175.445 1454.1 Q171.834 1454.1 170.005 1457.66 Q168.2 1461.2 168.2 1468.33 Q168.2 1475.44 170.005 1479.01 Q171.834 1482.55 175.445 1482.55 Q179.079 1482.55 180.885 1479.01 Q182.714 1475.44 182.714 1468.33 Q182.714 1461.2 180.885 1457.66 Q179.079 1454.1 175.445 1454.1 M175.445 1450.39 Q181.255 1450.39 184.311 1455 Q187.39 1459.58 187.39 1468.33 Q187.39 1477.06 184.311 1481.67 Q181.255 1486.25 175.445 1486.25 Q169.635 1486.25 166.556 1481.67 Q163.501 1477.06 163.501 1468.33 Q163.501 1459.58 166.556 1455 Q169.635 1450.39 175.445 1450.39 Z" fill="#000000" fill-rule="nonzero" fill-opacity="1" /><path clip-path="url(#clip480)" d="M520.323 1481.64 L536.642 1481.64 L536.642 1485.58 L514.698 1485.58 L514.698 1481.64 Q517.36 1478.89 521.943 1474.26 Q526.55 1469.61 527.73 1468.27 Q529.976 1465.74 530.855 1464.01 Q531.758 1462.25 531.758 1460.56 Q531.758 1457.8 529.814 1456.07 Q527.892 1454.33 524.791 1454.33 Q522.592 1454.33 520.138 1455.09 Q517.707 1455.86 514.93 1457.41 L514.93 1452.69 Q517.754 1451.55 520.207 1450.97 Q522.661 1450.39 524.698 1450.39 Q530.068 1450.39 533.263 1453.08 Q536.457 1455.77 536.457 1460.26 Q536.457 1462.39 535.647 1464.31 Q534.86 1466.2 532.753 1468.8 Q532.175 1469.47 529.073 1472.69 Q525.971 1475.88 520.323 1481.64 Z" fill="#000000" fill-rule="nonzero" fill-opacity="1" /><path clip-path="url(#clip480)" d="M546.503 1451.02 L564.86 1451.02 L564.86 1454.96 L550.786 1454.96 L550.786 1463.43 Q551.804 1463.08 552.823 1462.92 Q553.841 1462.73 554.86 1462.73 Q560.647 1462.73 564.026 1465.9 Q567.406 1469.08 567.406 1474.49 Q567.406 1480.07 563.934 1483.17 Q560.462 1486.25 554.142 1486.25 Q551.966 1486.25 549.698 1485.88 Q547.452 1485.51 545.045 1484.77 L545.045 1480.07 Q547.128 1481.2 549.351 1481.76 Q551.573 1482.32 554.05 1482.32 Q558.054 1482.32 560.392 1480.21 Q562.73 1478.1 562.73 1474.49 Q562.73 1470.88 560.392 1468.77 Q558.054 1466.67 554.05 1466.67 Q552.175 1466.67 550.3 1467.08 Q548.448 1467.5 546.503 1468.38 L546.503 1451.02 Z" fill="#000000" fill-rule="nonzero" fill-opacity="1" /><path clip-path="url(#clip480)" d="M881.358 1451.02 L899.715 1451.02 L899.715 1454.96 L885.641 1454.96 L885.641 1463.43 Q886.659 1463.08 887.678 1462.92 Q888.696 1462.73 889.715 1462.73 Q895.502 1462.73 898.881 1465.9 Q902.261 1469.08 902.261 1474.49 Q902.261 1480.07 898.789 1483.17 Q895.316 1486.25 888.997 1486.25 Q886.821 1486.25 884.553 1485.88 Q882.307 1485.51 879.9 1484.77 L879.9 1480.07 Q881.983 1481.2 884.205 1481.76 Q886.428 1482.32 888.904 1482.32 Q892.909 1482.32 895.247 1480.21 Q897.585 1478.1 897.585 1474.49 Q897.585 1470.88 895.247 1468.77 Q892.909 1466.67 888.904 1466.67 Q887.029 1466.67 885.154 1467.08 Q883.303 1467.5 881.358 1468.38 L881.358 1451.02 Z" fill="#000000" fill-rule="nonzero" fill-opacity="1" /><path clip-path="url(#clip480)" d="M921.474 1454.1 Q917.863 1454.1 916.034 1457.66 Q914.228 1461.2 914.228 1468.33 Q914.228 1475.44 916.034 1479.01 Q917.863 1482.55 921.474 1482.55 Q925.108 1482.55 926.913 1479.01 Q928.742 1475.44 928.742 1468.33 Q928.742 1461.2 926.913 1457.66 Q925.108 1454.1 921.474 1454.1 M921.474 1450.39 Q927.284 1450.39 930.339 1455 Q933.418 1459.58 933.418 1468.33 Q933.418 1477.06 930.339 1481.67 Q927.284 1486.25 921.474 1486.25 Q915.664 1486.25 912.585 1481.67 Q909.529 1477.06 909.529 1468.33 Q909.529 1459.58 912.585 1455 Q915.664 1450.39 921.474 1450.39 Z" fill="#000000" fill-rule="nonzero" fill-opacity="1" /><path clip-path="url(#clip480)" d="M1246.12 1451.02 L1268.34 1451.02 L1268.34 1453.01 L1255.8 1485.58 L1250.91 1485.58 L1262.72 1454.96 L1246.12 1454.96 L1246.12 1451.02 Z" fill="#000000" fill-rule="nonzero" fill-opacity="1" /><path clip-path="url(#clip480)" d="M1277.51 1451.02 L1295.87 1451.02 L1295.87 1454.96 L1281.79 1454.96 L1281.79 1463.43 Q1282.81 1463.08 1283.83 1462.92 Q1284.85 1462.73 1285.87 1462.73 Q1291.65 1462.73 1295.03 1465.9 Q1298.41 1469.08 1298.41 1474.49 Q1298.41 1480.07 1294.94 1483.17 Q1291.47 1486.25 1285.15 1486.25 Q1282.97 1486.25 1280.7 1485.88 Q1278.46 1485.51 1276.05 1484.77 L1276.05 1480.07 Q1278.13 1481.2 1280.36 1481.76 Q1282.58 1482.32 1285.06 1482.32 Q1289.06 1482.32 1291.4 1480.21 Q1293.74 1478.1 1293.74 1474.49 Q1293.74 1470.88 1291.4 1468.77 Q1289.06 1466.67 1285.06 1466.67 Q1283.18 1466.67 1281.31 1467.08 Q1279.45 1467.5 1277.51 1468.38 L1277.51 1451.02 Z" fill="#000000" fill-rule="nonzero" fill-opacity="1" /><path clip-path="url(#clip480)" d="M1597.48 1481.64 L1605.12 1481.64 L1605.12 1455.28 L1596.81 1456.95 L1596.81 1452.69 L1605.07 1451.02 L1609.75 1451.02 L1609.75 1481.64 L1617.39 1481.64 L1617.39 1485.58 L1597.48 1485.58 L1597.48 1481.64 Z" fill="#000000" fill-rule="nonzero" fill-opacity="1" /><path clip-path="url(#clip480)" d="M1636.83 1454.1 Q1633.22 1454.1 1631.39 1457.66 Q1629.59 1461.2 1629.59 1468.33 Q1629.59 1475.44 1631.39 1479.01 Q1633.22 1482.55 1636.83 1482.55 Q1640.47 1482.55 1642.27 1479.01 Q1644.1 1475.44 1644.1 1468.33 Q1644.1 1461.2 1642.27 1457.66 Q1640.47 1454.1 1636.83 1454.1 M1636.83 1450.39 Q1642.64 1450.39 1645.7 1455 Q1648.78 1459.58 1648.78 1468.33 Q1648.78 1477.06 1645.7 1481.67 Q1642.64 1486.25 1636.83 1486.25 Q1631.02 1486.25 1627.94 1481.67 Q1624.89 1477.06 1624.89 1468.33 Q1624.89 1459.58 1627.94 1455 Q1631.02 1450.39 1636.83 1450.39 Z" fill="#000000" fill-rule="nonzero" fill-opacity="1" /><path clip-path="url(#clip480)" d="M1666.99 1454.1 Q1663.38 1454.1 1661.55 1457.66 Q1659.75 1461.2 1659.75 1468.33 Q1659.75 1475.44 1661.55 1479.01 Q1663.38 1482.55 1666.99 1482.55 Q1670.63 1482.55 1672.43 1479.01 Q1674.26 1475.44 1674.26 1468.33 Q1674.26 1461.2 1672.43 1457.66 Q1670.63 1454.1 1666.99 1454.1 M1666.99 1450.39 Q1672.8 1450.39 1675.86 1455 Q1678.94 1459.58 1678.94 1468.33 Q1678.94 1477.06 1675.86 1481.67 Q1672.8 1486.25 1666.99 1486.25 Q1661.18 1486.25 1658.1 1481.67 Q1655.05 1477.06 1655.05 1468.33 Q1655.05 1459.58 1658.1 1455 Q1661.18 1450.39 1666.99 1450.39 Z" fill="#000000" fill-rule="nonzero" fill-opacity="1" /><path clip-path="url(#clip480)" d="M1963.58 1481.64 L1971.22 1481.64 L1971.22 1455.28 L1962.91 1456.95 L1962.91 1452.69 L1971.18 1451.02 L1975.85 1451.02 L1975.85 1481.64 L1983.49 1481.64 L1983.49 1485.58 L1963.58 1485.58 L1963.58 1481.64 Z" fill="#000000" fill-rule="nonzero" fill-opacity="1" /><path clip-path="url(#clip480)" d="M1996.96 1481.64 L2013.28 1481.64 L2013.28 1485.58 L1991.34 1485.58 L1991.34 1481.64 Q1994 1478.89 1998.58 1474.26 Q2003.19 1469.61 2004.37 1468.27 Q2006.62 1465.74 2007.5 1464.01 Q2008.4 1462.25 2008.4 1460.56 Q2008.4 1457.8 2006.45 1456.07 Q2004.53 1454.33 2001.43 1454.33 Q1999.23 1454.33 1996.78 1455.09 Q1994.35 1455.86 1991.57 1457.41 L1991.57 1452.69 Q1994.39 1451.55 1996.85 1450.97 Q1999.3 1450.39 2001.34 1450.39 Q2006.71 1450.39 2009.9 1453.08 Q2013.1 1455.77 2013.1 1460.26 Q2013.1 1462.39 2012.29 1464.31 Q2011.5 1466.2 2009.39 1468.8 Q2008.82 1469.47 2005.71 1472.69 Q2002.61 1475.88 1996.96 1481.64 Z" fill="#000000" fill-rule="nonzero" fill-opacity="1" /><path clip-path="url(#clip480)" d="M2023.14 1451.02 L2041.5 1451.02 L2041.5 1454.96 L2027.43 1454.96 L2027.43 1463.43 Q2028.44 1463.08 2029.46 1462.92 Q2030.48 1462.73 2031.5 1462.73 Q2037.29 1462.73 2040.67 1465.9 Q2044.05 1469.08 2044.05 1474.49 Q2044.05 1480.07 2040.57 1483.17 Q2037.1 1486.25 2030.78 1486.25 Q2028.61 1486.25 2026.34 1485.88 Q2024.09 1485.51 2021.69 1484.77 L2021.69 1480.07 Q2023.77 1481.2 2025.99 1481.76 Q2028.21 1482.32 2030.69 1482.32 Q2034.69 1482.32 2037.03 1480.21 Q2039.37 1478.1 2039.37 1474.49 Q2039.37 1470.88 2037.03 1468.77 Q2034.69 1466.67 2030.69 1466.67 Q2028.82 1466.67 2026.94 1467.08 Q2025.09 1467.5 2023.14 1468.38 L2023.14 1451.02 Z" fill="#000000" fill-rule="nonzero" fill-opacity="1" /><path clip-path="url(#clip480)" d="M1263.16 1522.27 L1263.16 1532.4 L1275.22 1532.4 L1275.22 1536.95 L1263.16 1536.95 L1263.16 1556.3 Q1263.16 1560.66 1264.34 1561.9 Q1265.55 1563.14 1269.21 1563.14 L1275.22 1563.14 L1275.22 1568.04 L1269.21 1568.04 Q1262.43 1568.04 1259.85 1565.53 Q1257.27 1562.98 1257.27 1556.3 L1257.27 1536.95 L1252.98 1536.95 L1252.98 1532.4 L1257.27 1532.4 L1257.27 1522.27 L1263.16 1522.27 Z" fill="#000000" fill-rule="nonzero" fill-opacity="1" /><polyline clip-path="url(#clip480)" style="stroke:#000000; stroke-linecap:round; stroke-linejoin:round; stroke-width:4; stroke-opacity:1; fill:none" points="175.445,1423.18 175.445,123.472 "/>
<polyline clip-path="url(#clip480)" style="stroke:#000000; stroke-linecap:round; stroke-linejoin:round; stroke-width:4; stroke-opacity:1; fill:none" points="175.445,1386.4 194.343,1386.4 "/>
<polyline clip-path="url(#clip480)" style="stroke:#000000; stroke-linecap:round; stroke-linejoin:round; stroke-width:4; stroke-opacity:1; fill:none" points="175.445,1077.68 194.343,1077.68 "/>
<polyline clip-path="url(#clip480)" style="stroke:#000000; stroke-linecap:round; stroke-linejoin:round; stroke-width:4; stroke-opacity:1; fill:none" points="175.445,768.954 194.343,768.954 "/>
<polyline clip-path="url(#clip480)" style="stroke:#000000; stroke-linecap:round; stroke-linejoin:round; stroke-width:4; stroke-opacity:1; fill:none" points="175.445,460.234 194.343,460.234 "/>
<polyline clip-path="url(#clip480)" style="stroke:#000000; stroke-linecap:round; stroke-linejoin:round; stroke-width:4; stroke-opacity:1; fill:none" points="175.445,151.513 194.343,151.513 "/>
<path clip-path="url(#clip480)" d="M127.501 1372.19 Q123.89 1372.19 122.061 1375.76 Q120.255 1379.3 120.255 1386.43 Q120.255 1393.54 122.061 1397.1 Q123.89 1400.64 127.501 1400.64 Q131.135 1400.64 132.941 1397.1 Q134.769 1393.54 134.769 1386.43 Q134.769 1379.3 132.941 1375.76 Q131.135 1372.19 127.501 1372.19 M127.501 1368.49 Q133.311 1368.49 136.367 1373.1 Q139.445 1377.68 139.445 1386.43 Q139.445 1395.16 136.367 1399.76 Q133.311 1404.35 127.501 1404.35 Q121.691 1404.35 118.612 1399.76 Q115.556 1395.16 115.556 1386.43 Q115.556 1377.68 118.612 1373.1 Q121.691 1368.49 127.501 1368.49 Z" fill="#000000" fill-rule="nonzero" fill-opacity="1" /><path clip-path="url(#clip480)" d="M119.538 1091.02 L127.177 1091.02 L127.177 1064.65 L118.867 1066.32 L118.867 1062.06 L127.13 1060.4 L131.806 1060.4 L131.806 1091.02 L139.445 1091.02 L139.445 1094.96 L119.538 1094.96 L119.538 1091.02 Z" fill="#000000" fill-rule="nonzero" fill-opacity="1" /><path clip-path="url(#clip480)" d="M123.126 782.299 L139.445 782.299 L139.445 786.234 L117.501 786.234 L117.501 782.299 Q120.163 779.545 124.746 774.915 Q129.353 770.262 130.533 768.92 Q132.779 766.397 133.658 764.661 Q134.561 762.901 134.561 761.211 Q134.561 758.457 132.617 756.721 Q130.695 754.985 127.593 754.985 Q125.394 754.985 122.941 755.749 Q120.51 756.512 117.732 758.063 L117.732 753.341 Q120.556 752.207 123.01 751.628 Q125.464 751.049 127.501 751.049 Q132.871 751.049 136.066 753.735 Q139.26 756.42 139.26 760.911 Q139.26 763.04 138.45 764.961 Q137.663 766.86 135.556 769.452 Q134.978 770.123 131.876 773.341 Q128.774 776.535 123.126 782.299 Z" fill="#000000" fill-rule="nonzero" fill-opacity="1" /><path clip-path="url(#clip480)" d="M132.316 458.88 Q135.672 459.597 137.547 461.866 Q139.445 464.134 139.445 467.468 Q139.445 472.583 135.927 475.384 Q132.408 478.185 125.927 478.185 Q123.751 478.185 121.436 477.745 Q119.144 477.329 116.691 476.472 L116.691 471.958 Q118.635 473.093 120.95 473.671 Q123.265 474.25 125.788 474.25 Q130.186 474.25 132.478 472.514 Q134.792 470.778 134.792 467.468 Q134.792 464.412 132.64 462.699 Q130.51 460.963 126.691 460.963 L122.663 460.963 L122.663 457.12 L126.876 457.12 Q130.325 457.12 132.154 455.755 Q133.982 454.366 133.982 451.773 Q133.982 449.111 132.084 447.699 Q130.209 446.264 126.691 446.264 Q124.769 446.264 122.57 446.681 Q120.371 447.097 117.732 447.977 L117.732 443.81 Q120.394 443.07 122.709 442.699 Q125.047 442.329 127.107 442.329 Q132.431 442.329 135.533 444.759 Q138.635 447.167 138.635 451.287 Q138.635 454.158 136.992 456.148 Q135.348 458.116 132.316 458.88 Z" fill="#000000" fill-rule="nonzero" fill-opacity="1" /><path clip-path="url(#clip480)" d="M129.862 138.307 L118.056 156.756 L129.862 156.756 L129.862 138.307 M128.635 134.233 L134.515 134.233 L134.515 156.756 L139.445 156.756 L139.445 160.645 L134.515 160.645 L134.515 168.793 L129.862 168.793 L129.862 160.645 L114.26 160.645 L114.26 156.131 L128.635 134.233 Z" fill="#000000" fill-rule="nonzero" fill-opacity="1" /><path clip-path="url(#clip480)" d="M20.1444 820.225 L26.9239 820.225 Q23.9002 823.472 22.4043 827.164 Q20.9083 830.824 20.9083 834.962 Q20.9083 843.11 25.9054 847.439 Q30.8707 851.767 40.2919 851.767 Q49.6813 851.767 54.6784 847.439 Q59.6436 843.11 59.6436 834.962 Q59.6436 830.824 58.1477 827.164 Q56.6518 823.472 53.6281 820.225 L60.3439 820.225 Q62.6355 823.599 63.7814 827.387 Q64.9272 831.143 64.9272 835.344 Q64.9272 846.134 58.3387 852.34 Q51.7183 858.547 40.2919 858.547 Q28.8336 858.547 22.2451 852.34 Q15.6248 846.134 15.6248 835.344 Q15.6248 831.079 16.7706 827.323 Q17.8846 823.535 20.1444 820.225 Z" fill="#000000" fill-rule="nonzero" fill-opacity="1" /><path clip-path="url(#clip480)" d="M16.4842 816.883 L16.4842 776.684 L21.895 776.684 L21.895 793.553 L64.0042 793.553 L64.0042 800.014 L21.895 800.014 L21.895 816.883 L16.4842 816.883 Z" fill="#000000" fill-rule="nonzero" fill-opacity="1" /><path clip-path="url(#clip480)" d="M16.4842 770.477 L16.4842 761.82 L56.238 740.749 L16.4842 740.749 L16.4842 734.511 L64.0042 734.511 L64.0042 743.168 L24.2503 764.239 L64.0042 764.239 L64.0042 770.477 L16.4842 770.477 Z" fill="#000000" fill-rule="nonzero" fill-opacity="1" /><path clip-path="url(#clip480)" d="M16.4842 728.305 L16.4842 688.105 L21.895 688.105 L21.895 704.974 L64.0042 704.974 L64.0042 711.435 L21.895 711.435 L21.895 728.305 L16.4842 728.305 Z" fill="#000000" fill-rule="nonzero" fill-opacity="1" /><path clip-path="url(#clip480)" d="M902.78 17.6457 Q893.868 17.6457 888.602 24.2892 Q883.376 30.9327 883.376 42.3968 Q883.376 53.8203 888.602 60.4638 Q893.868 67.1073 902.78 67.1073 Q911.692 67.1073 916.877 60.4638 Q922.103 53.8203 922.103 42.3968 Q922.103 30.9327 916.877 24.2892 Q911.692 17.6457 902.78 17.6457 M902.78 11.0023 Q915.5 11.0023 923.116 19.5497 Q930.731 28.0566 930.731 42.3968 Q930.731 56.6965 923.116 65.2439 Q915.5 73.7508 902.78 73.7508 Q890.02 73.7508 882.364 65.2439 Q874.748 56.737 874.748 42.3968 Q874.748 28.0566 882.364 19.5497 Q890.02 11.0023 902.78 11.0023 Z" fill="#000000" fill-rule="nonzero" fill-opacity="1" /><path clip-path="url(#clip480)" d="M951.715 18.8205 L951.715 65.8515 L961.599 65.8515 Q974.117 65.8515 979.909 60.1802 Q985.743 54.509 985.743 42.2752 Q985.743 30.1225 979.909 24.4918 Q974.117 18.8205 961.599 18.8205 L951.715 18.8205 M943.532 12.096 L960.344 12.096 Q977.924 12.096 986.148 19.4281 Q994.371 26.7198 994.371 42.2752 Q994.371 57.9117 986.107 65.2439 Q977.843 72.576 960.344 72.576 L943.532 72.576 L943.532 12.096 Z" fill="#000000" fill-rule="nonzero" fill-opacity="1" /><path clip-path="url(#clip480)" d="M1007.42 12.096 L1045.66 12.096 L1045.66 18.9825 L1015.6 18.9825 L1015.6 36.8875 L1044.4 36.8875 L1044.4 43.7741 L1015.6 43.7741 L1015.6 65.6895 L1046.38 65.6895 L1046.38 72.576 L1007.42 72.576 L1007.42 12.096 Z" fill="#000000" fill-rule="nonzero" fill-opacity="1" /><path clip-path="url(#clip480)" d="M1082.11 46.5287 L1103.95 46.5287 L1103.95 53.1722 L1082.11 53.1722 L1082.11 46.5287 Z" fill="#000000" fill-rule="nonzero" fill-opacity="1" /><path clip-path="url(#clip480)" d="M1150.7 18.8205 L1150.7 41.5461 L1160.98 41.5461 Q1166.7 41.5461 1169.82 38.5889 Q1172.93 35.6318 1172.93 30.163 Q1172.93 24.7348 1169.82 21.7777 Q1166.7 18.8205 1160.98 18.8205 L1150.7 18.8205 M1142.51 12.096 L1160.98 12.096 Q1171.15 12.096 1176.34 16.714 Q1181.56 21.2916 1181.56 30.163 Q1181.56 39.1155 1176.34 43.6931 Q1171.15 48.2706 1160.98 48.2706 L1150.7 48.2706 L1150.7 72.576 L1142.51 72.576 L1142.51 12.096 Z" fill="#000000" fill-rule="nonzero" fill-opacity="1" /><path clip-path="url(#clip480)" d="M1209.11 49.7694 Q1200.08 49.7694 1196.59 51.8354 Q1193.11 53.9013 1193.11 58.8839 Q1193.11 62.8538 1195.7 65.2034 Q1198.33 67.5124 1202.83 67.5124 Q1209.03 67.5124 1212.76 63.1374 Q1216.52 58.7219 1216.52 51.4303 L1216.52 49.7694 L1209.11 49.7694 M1223.98 46.6907 L1223.98 72.576 L1216.52 72.576 L1216.52 65.6895 Q1213.97 69.8214 1210.16 71.8063 Q1206.35 73.7508 1200.85 73.7508 Q1193.88 73.7508 1189.75 69.8619 Q1185.65 65.9325 1185.65 59.3701 Q1185.65 51.7138 1190.76 47.825 Q1195.9 43.9361 1206.07 43.9361 L1216.52 43.9361 L1216.52 43.2069 Q1216.52 38.0623 1213.12 35.2672 Q1209.76 32.4315 1203.64 32.4315 Q1199.75 32.4315 1196.07 33.3632 Q1192.38 34.295 1188.98 36.1584 L1188.98 29.2718 Q1193.07 27.692 1196.92 26.9223 Q1200.76 26.1121 1204.41 26.1121 Q1214.25 26.1121 1219.12 31.2163 Q1223.98 36.3204 1223.98 46.6907 Z" fill="#000000" fill-rule="nonzero" fill-opacity="1" /><path clip-path="url(#clip480)" d="M1246.7 14.324 L1246.7 27.2059 L1262.05 27.2059 L1262.05 32.9987 L1246.7 32.9987 L1246.7 57.6282 Q1246.7 63.1779 1248.2 64.7578 Q1249.74 66.3376 1254.4 66.3376 L1262.05 66.3376 L1262.05 72.576 L1254.4 72.576 Q1245.77 72.576 1242.49 69.3758 Q1239.21 66.1351 1239.21 57.6282 L1239.21 32.9987 L1233.74 32.9987 L1233.74 27.2059 L1239.21 27.2059 L1239.21 14.324 L1246.7 14.324 Z" fill="#000000" fill-rule="nonzero" fill-opacity="1" /><path clip-path="url(#clip480)" d="M1271.86 27.2059 L1279.31 27.2059 L1279.31 72.576 L1271.86 72.576 L1271.86 27.2059 M1271.86 9.54393 L1279.31 9.54393 L1279.31 18.9825 L1271.86 18.9825 L1271.86 9.54393 Z" fill="#000000" fill-rule="nonzero" fill-opacity="1" /><path clip-path="url(#clip480)" d="M1333.72 48.0275 L1333.72 51.6733 L1299.44 51.6733 Q1299.93 59.3701 1304.06 63.421 Q1308.24 67.4314 1315.65 67.4314 Q1319.94 67.4314 1323.95 66.3781 Q1328 65.3249 1331.97 63.2184 L1331.97 70.267 Q1327.96 71.9684 1323.75 72.8596 Q1319.54 73.7508 1315.2 73.7508 Q1304.35 73.7508 1297.99 67.4314 Q1291.67 61.1119 1291.67 50.3365 Q1291.67 39.1965 1297.66 32.6746 Q1303.7 26.1121 1313.91 26.1121 Q1323.06 26.1121 1328.37 32.0264 Q1333.72 37.9003 1333.72 48.0275 M1326.26 45.84 Q1326.18 39.7232 1322.82 36.0774 Q1319.5 32.4315 1313.99 32.4315 Q1307.75 32.4315 1303.98 35.9558 Q1300.25 39.4801 1299.69 45.8805 L1326.26 45.84 Z" fill="#000000" fill-rule="nonzero" fill-opacity="1" /><path clip-path="url(#clip480)" d="M1383.66 45.1919 L1383.66 72.576 L1376.21 72.576 L1376.21 45.4349 Q1376.21 38.994 1373.7 35.7938 Q1371.19 32.5936 1366.16 32.5936 Q1360.13 32.5936 1356.64 36.4419 Q1353.16 40.2903 1353.16 46.9338 L1353.16 72.576 L1345.67 72.576 L1345.67 27.2059 L1353.16 27.2059 L1353.16 34.2544 Q1355.83 30.163 1359.44 28.1376 Q1363.08 26.1121 1367.82 26.1121 Q1375.64 26.1121 1379.65 30.9732 Q1383.66 35.7938 1383.66 45.1919 Z" fill="#000000" fill-rule="nonzero" fill-opacity="1" /><path clip-path="url(#clip480)" d="M1405.9 14.324 L1405.9 27.2059 L1421.26 27.2059 L1421.26 32.9987 L1405.9 32.9987 L1405.9 57.6282 Q1405.9 63.1779 1407.4 64.7578 Q1408.94 66.3376 1413.6 66.3376 L1421.26 66.3376 L1421.26 72.576 L1413.6 72.576 Q1404.97 72.576 1401.69 69.3758 Q1398.41 66.1351 1398.41 57.6282 L1398.41 32.9987 L1392.94 32.9987 L1392.94 27.2059 L1398.41 27.2059 L1398.41 14.324 L1405.9 14.324 Z" fill="#000000" fill-rule="nonzero" fill-opacity="1" /><path clip-path="url(#clip480)" d="M1495.14 45.1919 L1495.14 72.576 L1487.69 72.576 L1487.69 45.4349 Q1487.69 38.994 1485.18 35.7938 Q1482.67 32.5936 1477.64 32.5936 Q1471.61 32.5936 1468.12 36.4419 Q1464.64 40.2903 1464.64 46.9338 L1464.64 72.576 L1457.15 72.576 L1457.15 27.2059 L1464.64 27.2059 L1464.64 34.2544 Q1467.31 30.163 1470.92 28.1376 Q1474.57 26.1121 1479.3 26.1121 Q1487.12 26.1121 1491.13 30.9732 Q1495.14 35.7938 1495.14 45.1919 Z" fill="#000000" fill-rule="nonzero" fill-opacity="1" /><path clip-path="url(#clip480)" d="M1518.11 65.6895 L1546.67 65.6895 L1546.67 72.576 L1508.27 72.576 L1508.27 65.6895 Q1512.93 60.8689 1520.95 52.7671 Q1529.01 44.6248 1531.08 42.2752 Q1535 37.8598 1536.54 34.8216 Q1538.12 31.7429 1538.12 28.7857 Q1538.12 23.9651 1534.72 20.927 Q1531.36 17.8888 1525.93 17.8888 Q1522.08 17.8888 1517.79 19.2256 Q1513.53 20.5624 1508.67 23.2765 L1508.67 15.0127 Q1513.62 13.0277 1517.91 12.015 Q1522.2 11.0023 1525.77 11.0023 Q1535.17 11.0023 1540.76 15.7013 Q1546.35 20.4004 1546.35 28.2591 Q1546.35 31.9859 1544.93 35.3482 Q1543.55 38.6699 1539.87 43.2069 Q1538.85 44.3817 1533.42 50.0125 Q1528 55.6027 1518.11 65.6895 Z" fill="#000000" fill-rule="nonzero" fill-opacity="1" /><path clip-path="url(#clip480)" d="M1564.09 71.3202 L1564.09 63.8666 Q1567.17 65.3249 1570.33 66.0946 Q1573.49 66.8642 1576.53 66.8642 Q1584.63 66.8642 1588.88 61.436 Q1593.18 55.9673 1593.78 44.8678 Q1591.43 48.3516 1587.83 50.215 Q1584.22 52.0784 1579.85 52.0784 Q1570.77 52.0784 1565.47 46.6097 Q1560.2 41.1005 1560.2 31.5808 Q1560.2 22.2638 1565.71 16.633 Q1571.22 11.0023 1580.37 11.0023 Q1590.87 11.0023 1596.38 19.0636 Q1601.93 27.0843 1601.93 42.3968 Q1601.93 56.6965 1595.12 65.2439 Q1588.36 73.7508 1576.89 73.7508 Q1573.81 73.7508 1570.65 73.1431 Q1567.49 72.5355 1564.09 71.3202 M1580.37 45.678 Q1585.88 45.678 1589.08 41.9107 Q1592.33 38.1433 1592.33 31.5808 Q1592.33 25.0589 1589.08 21.2916 Q1585.88 17.4837 1580.37 17.4837 Q1574.87 17.4837 1571.62 21.2916 Q1568.42 25.0589 1568.42 31.5808 Q1568.42 38.1433 1571.62 41.9107 Q1574.87 45.678 1580.37 45.678 Z" fill="#000000" fill-rule="nonzero" fill-opacity="1" /><path clip-path="url(#clip480)" d="M1614.56 12.096 L1653.45 12.096 L1653.45 15.5798 L1631.5 72.576 L1622.95 72.576 L1643.61 18.9825 L1614.56 18.9825 L1614.56 12.096 Z" fill="#000000" fill-rule="nonzero" fill-opacity="1" /><polyline clip-path="url(#clip482)" style="stroke:#009af9; stroke-linecap:round; stroke-linejoin:round; stroke-width:8; stroke-opacity:1; fill:none" points="175.445,160.256 177.625,160.256 179.804,160.256 181.984,160.256 184.163,160.256 186.343,160.256 188.522,160.256 190.702,160.256 192.881,160.256 195.061,160.256 197.24,160.256 199.42,160.256 201.599,160.256 203.779,160.256 205.958,160.256 208.138,160.256 210.317,160.257 212.497,160.257 214.676,160.257 216.856,160.257 219.035,160.257 221.215,160.257 223.394,160.257 225.573,160.257 227.753,160.258 229.932,160.258 232.112,160.258 234.291,160.258 236.471,160.259 238.65,160.259 240.83,160.26 243.009,160.26 245.189,160.261 247.368,160.261 249.548,160.262 251.727,160.263 253.907,160.264 256.086,160.265 258.266,160.266 260.445,160.267 262.625,160.268 264.804,160.27 266.984,160.271 269.163,160.273 271.343,160.275 273.522,160.276 275.702,160.279 277.881,160.281 280.061,160.283 282.24,160.286 284.42,160.289 286.599,160.292 288.779,160.295 290.958,160.298 293.138,160.302 295.317,160.306 297.497,160.31 299.676,160.315 301.856,160.319 304.035,160.324 306.215,160.33 308.394,160.335 310.574,160.341 312.753,160.348 314.933,160.355 317.112,160.362 319.292,160.369 321.471,160.377 323.651,160.386 325.83,160.394 328.01,160.404 330.189,160.413 332.369,160.424 334.548,160.434 336.727,160.446 338.907,160.457 341.086,160.47 343.266,160.483 345.445,160.496 347.625,160.511 349.804,160.525 351.984,160.541 354.163,160.557 356.343,160.574 358.522,160.592 360.702,160.61 362.881,160.629 365.061,160.649 367.24,160.67 369.42,160.692 371.599,160.714 373.779,160.738 375.958,160.762 378.138,160.788 380.317,160.814 382.497,160.841 384.676,160.869 386.856,160.899 389.035,160.929 391.215,160.961 393.394,160.994 395.574,161.027 397.753,161.063 399.933,161.099 402.112,161.136 404.292,161.175 406.471,161.215 408.651,161.257 410.83,161.3 413.01,161.344 415.189,161.39 417.369,161.437 419.548,161.486 421.728,161.536 423.907,161.588 426.087,161.641 428.266,161.696 430.446,161.753 432.625,161.812 434.805,161.872 436.984,161.934 439.164,161.998 441.343,162.063 443.523,162.131 445.702,162.201 447.881,162.272 450.061,162.346 452.24,162.422 454.42,162.499 456.599,162.579 458.779,162.661 460.958,162.745 463.138,162.832 465.317,162.921 467.497,163.012 469.676,163.106 471.856,163.202 474.035,163.3 476.215,163.401 478.394,163.505 480.574,163.611 482.753,163.72 484.933,163.831 487.112,163.946 489.292,164.063 491.471,164.183 493.651,164.305 495.83,164.431 498.01,164.56 500.189,164.692 502.369,164.826 504.548,164.964 506.728,165.105 508.907,165.25 511.087,165.397 513.266,165.548 515.446,165.703 517.625,165.86 519.805,166.022 521.984,166.186 524.164,166.355 526.343,166.527 528.523,166.702 530.702,166.882 532.882,167.065 535.061,167.252 537.241,167.443 539.42,167.637 541.6,167.836 543.779,168.039 545.959,168.246 548.138,168.457 550.318,168.673 552.497,168.893 554.677,169.117 556.856,169.345 559.035,169.578 561.215,169.815 563.394,170.057 565.574,170.304 567.753,170.555 569.933,170.811 572.112,171.072 574.292,171.337 576.471,171.608 578.651,171.883 580.83,172.164 583.01,172.449 585.189,172.74 587.369,173.036 589.548,173.337 591.728,173.644 593.907,173.956 596.087,174.273 598.266,174.596 600.446,174.925 602.625,175.259 604.805,175.599 606.984,175.944 609.164,176.296 611.343,176.653 613.523,177.016 615.702,177.385 617.882,177.76 620.061,178.142 622.241,178.529 624.42,178.923 626.6,179.323 628.779,179.729 630.959,180.142 633.138,180.561 635.318,180.987 637.497,181.42 639.677,181.859 641.856,182.305 644.036,182.757 646.215,183.217 648.395,183.683 650.574,184.156 652.754,184.637 654.933,185.124 657.113,185.619 659.292,186.121 661.472,186.63 663.651,187.146 665.831,187.67 668.01,188.202 670.189,188.74 672.369,189.287 674.548,189.841 676.728,190.403 678.907,190.972 681.087,191.55 683.266,192.135 685.446,192.728 687.625,193.33 689.805,193.939 691.984,194.556 694.164,195.182 696.343,195.816 698.523,196.458 700.702,197.108 702.882,197.767 705.061,198.435 707.241,199.11 709.42,199.795 711.6,200.488 713.779,201.19 715.959,201.9 718.138,202.619 720.318,203.347 722.497,204.085 724.677,204.83 726.856,205.585 729.036,206.349 731.215,207.123 733.395,207.905 735.574,208.696 737.754,209.497 739.933,210.307 742.113,211.127 744.292,211.955 746.472,212.794 748.651,213.642 750.831,214.499 753.01,215.366 755.19,216.242 757.369,217.129 759.549,218.025 761.728,218.93 763.908,219.846 766.087,220.771 768.267,221.707 770.446,222.652 772.626,223.607 774.805,224.573 776.984,225.548 779.164,226.534 781.343,227.529 783.523,228.535 785.702,229.551 787.882,230.578 790.061,231.614 792.241,232.661 794.42,233.719 796.6,234.787 798.779,235.865 800.959,236.953 803.138,238.052 805.318,239.162 807.497,240.282 809.677,241.413 811.856,242.554 814.036,243.706 816.215,244.869 818.395,246.042 820.574,247.226 822.754,248.42 824.933,249.626 827.113,250.842 829.292,252.068 831.472,253.306 833.651,254.554 835.831,255.813 838.01,257.083 840.19,258.364 842.369,259.656 844.549,260.958 846.728,262.271 848.908,263.596 851.087,264.931 853.267,266.277 855.446,267.633 857.626,269.001 859.805,270.38 861.985,271.769 864.164,273.17 866.344,274.581 868.523,276.003 870.703,277.436 872.882,278.88 875.062,280.335 877.241,281.8 879.421,283.277 881.6,284.764 883.78,286.263 885.959,287.772 888.138,289.292 890.318,290.822 892.497,292.364 894.677,293.916 896.856,295.479 899.036,297.053 901.215,298.637 903.395,300.233 905.574,301.839 907.754,303.455 909.933,305.082 912.113,306.72 914.292,308.368 916.472,310.027 918.651,311.697 920.831,313.377 923.01,315.067 925.19,316.768 927.369,318.479 929.549,320.201 931.728,321.933 933.908,323.675 936.087,325.427 938.267,327.19 940.446,328.962 942.626,330.745 944.805,332.538 946.985,334.34 949.164,336.153 951.344,337.976 953.523,339.808 955.703,341.65 957.882,343.502 960.062,345.364 962.241,347.235 964.421,349.116 966.6,351.006 968.78,352.906 970.959,354.815 973.139,356.733 975.318,358.661 977.498,360.598 979.677,362.544 981.857,364.499 984.036,366.462 986.216,368.435 988.395,370.417 990.575,372.407 992.754,374.406 994.934,376.413 997.113,378.429 999.292,380.454 1001.47,382.487 1003.65,384.528 1005.83,386.577 1008.01,388.634 1010.19,390.7 1012.37,392.773 1014.55,394.854 1016.73,396.943 1018.91,399.04 1021.09,401.144 1023.27,403.256 1025.45,405.375 1027.63,407.502 1029.81,409.636 1031.98,411.777 1034.16,413.925 1036.34,416.079 1038.52,418.241 1040.7,420.41 1042.88,422.585 1045.06,424.767 1047.24,426.955 1049.42,429.15 1051.6,431.351 1053.78,433.558 1055.96,435.771 1058.14,437.99 1060.32,440.215 1062.5,442.446 1064.68,444.682 1066.86,446.924 1069.04,449.171 1071.22,451.424 1073.4,453.682 1075.57,455.945 1077.75,458.213 1079.93,460.485 1082.11,462.763 1084.29,465.045 1086.47,467.331 1088.65,469.622 1090.83,471.917 1093.01,474.217 1095.19,476.52 1097.37,478.827 1099.55,481.139 1101.73,483.453 1103.91,485.771 1106.09,488.093 1108.27,490.418 1110.45,492.746 1112.63,495.077 1114.81,497.411 1116.98,499.748 1119.16,502.087 1121.34,504.429 1123.52,506.773 1125.7,509.12 1127.88,511.469 1130.06,513.82 1132.24,516.173 1134.42,518.527 1136.6,520.884 1138.78,523.242 1140.96,525.601 1143.14,527.962 1145.32,530.325 1147.5,532.688 1149.68,535.052 1151.86,537.417 1154.04,539.783 1156.22,542.15 1158.4,544.517 1160.57,546.885 1162.75,549.252 1164.93,551.621 1167.11,553.989 1169.29,556.357 1171.47,558.725 1173.65,561.092 1175.83,563.46 1178.01,565.827 1180.19,568.193 1182.37,570.558 1184.55,572.923 1186.73,575.286 1188.91,577.649 1191.09,580.01 1193.27,582.371 1195.45,584.729 1197.63,587.087 1199.81,589.442 1201.99,591.796 1204.16,594.148 1206.34,596.498 1208.52,598.846 1210.7,601.192 1212.88,603.535 1215.06,605.876 1217.24,608.215 1219.42,610.551 1221.6,612.884 1223.78,615.214 1225.96,617.542 1228.14,619.866 1230.32,622.187 1232.5,624.505 1234.68,626.82 1236.86,629.131 1239.04,631.438 1241.22,633.742 1243.4,636.042 1245.57,638.338 1247.75,640.63 1249.93,642.917 1252.11,645.201 1254.29,647.48 1256.47,649.755 1258.65,652.025 1260.83,654.291 1263.01,656.553 1265.19,658.811 1267.37,661.064 1269.55,663.313 1271.73,665.557 1273.91,667.796 1276.09,670.03 1278.27,672.26 1280.45,674.484 1282.63,676.703 1284.81,678.917 1286.99,681.125 1289.16,683.328 1291.34,685.525 1293.52,687.716 1295.7,689.902 1297.88,692.082 1300.06,694.256 1302.24,696.423 1304.42,698.585 1306.6,700.74 1308.78,702.89 1310.96,705.032 1313.14,707.169 1315.32,709.299 1317.5,711.422 1319.68,713.539 1321.86,715.649 1324.04,717.752 1326.22,719.848 1328.4,721.938 1330.58,724.021 1332.75,726.097 1334.93,728.165 1337.11,730.227 1339.29,732.282 1341.47,734.329 1343.65,736.37 1345.83,738.403 1348.01,740.429 1350.19,742.448 1352.37,744.46 1354.55,746.464 1356.73,748.461 1358.91,750.451 1361.09,752.433 1363.27,754.409 1365.45,756.376 1367.63,758.337 1369.81,760.29 1371.99,762.235 1374.16,764.174 1376.34,766.105 1378.52,768.029 1380.7,769.945 1382.88,771.854 1385.06,773.756 1387.24,775.65 1389.42,777.537 1391.6,779.417 1393.78,781.29 1395.96,783.155 1398.14,785.014 1400.32,786.865 1402.5,788.709 1404.68,790.546 1406.86,792.376 1409.04,794.199 1411.22,796.015 1413.4,797.824 1415.58,799.627 1417.75,801.423 1419.93,803.211 1422.11,804.993 1424.29,806.768 1426.47,808.536 1428.65,810.296 1430.83,812.05 1433.01,813.796 1435.19,815.535 1437.37,817.266 1439.55,818.99 1441.73,820.707 1443.91,822.416 1446.09,824.117 1448.27,825.811 1450.45,827.497 1452.63,829.176 1454.81,830.846 1456.99,832.51 1459.16,834.165 1461.34,835.813 1463.52,837.453 1465.7,839.086 1467.88,840.711 1470.06,842.328 1472.24,843.938 1474.42,845.539 1476.6,847.134 1478.78,848.72 1480.96,850.3 1483.14,851.871 1485.32,853.436 1487.5,854.992 1489.68,856.542 1491.86,858.084 1494.04,859.619 1496.22,861.146 1498.4,862.667 1500.58,864.18 1502.75,865.686 1504.93,867.186 1507.11,868.678 1509.29,870.164 1511.47,871.643 1513.65,873.116 1515.83,874.582 1518.01,876.042 1520.19,877.495 1522.37,878.943 1524.55,880.384 1526.73,881.819 1528.91,883.249 1531.09,884.673 1533.27,886.091 1535.45,887.504 1537.63,888.912 1539.81,890.315 1541.99,891.713 1544.17,893.107 1546.34,894.495 1548.52,895.879 1550.7,897.257 1552.88,898.63 1555.06,899.998 1557.24,901.36 1559.42,902.717 1561.6,904.068 1563.78,905.413 1565.96,906.752 1568.14,908.085 1570.32,909.413 1572.5,910.734 1574.68,912.049 1576.86,913.357 1579.04,914.66 1581.22,915.956 1583.4,917.246 1585.58,918.529 1587.75,919.806 1589.93,921.077 1592.11,922.341 1594.29,923.6 1596.47,924.851 1598.65,926.097 1600.83,927.336 1603.01,928.569 1605.19,929.795 1607.37,931.016 1609.55,932.231 1611.73,933.439 1613.91,934.642 1616.09,935.838 1618.27,937.029 1620.45,938.214 1622.63,939.394 1624.81,940.568 1626.99,941.737 1629.17,942.901 1631.34,944.06 1633.52,945.213 1635.7,946.362 1637.88,947.507 1640.06,948.646 1642.24,949.782 1644.42,950.913 1646.6,952.041 1648.78,953.164 1650.96,954.285 1653.14,955.402 1655.32,956.515 1657.5,957.626 1659.68,958.734 1661.86,959.84 1664.04,960.944 1666.22,962.045 1668.4,963.145 1670.58,964.243 1672.75,965.337 1674.93,966.429 1677.11,967.517 1679.29,968.603 1681.47,969.685 1683.65,970.763 1685.83,971.838 1688.01,972.909 1690.19,973.976 1692.37,975.039 1694.55,976.098 1696.73,977.153 1698.91,978.204 1701.09,979.25 1703.27,980.292 1705.45,981.33 1707.63,982.363 1709.81,983.392 1711.99,984.417 1714.17,985.436 1716.34,986.452 1718.52,987.463 1720.7,988.469 1722.88,989.471 1725.06,990.469 1727.24,991.461 1729.42,992.45 1731.6,993.434 1733.78,994.414 1735.96,995.39 1738.14,996.361 1740.32,997.328 1742.5,998.292 1744.68,999.251 1746.86,1000.21 1749.04,1001.16 1751.22,1002.11 1753.4,1003.05 1755.58,1003.99 1757.76,1004.93 1759.93,1005.86 1762.11,1006.8 1764.29,1007.72 1766.47,1008.65 1768.65,1009.57 1770.83,1010.5 1773.01,1011.42 1775.19,1012.33 1777.37,1013.25 1779.55,1014.16 1781.73,1015.08 1783.91,1015.99 1786.09,1016.9 1788.27,1017.81 1790.45,1018.72 1792.63,1019.63 1794.81,1020.54 1796.99,1021.44 1799.17,1022.35 1801.34,1023.25 1803.52,1024.15 1805.7,1025.04 1807.88,1025.94 1810.06,1026.83 1812.24,1027.72 1814.42,1028.61 1816.6,1029.49 1818.78,1030.37 1820.96,1031.25 1823.14,1032.12 1825.32,1032.99 1827.5,1033.86 1829.68,1034.72 1831.86,1035.58 1834.04,1036.43 1836.22,1037.29 1838.4,1038.14 1840.58,1038.98 1842.76,1039.82 1844.93,1040.66 1847.11,1041.49 1849.29,1042.32 1851.47,1043.15 1853.65,1043.97 1855.83,1044.79 1858.01,1045.61 1860.19,1046.42 1862.37,1047.23 1864.55,1048.04 1866.73,1048.84 1868.91,1049.64 1871.09,1050.44 1873.27,1051.23 1875.45,1052.03 1877.63,1052.81 1879.81,1053.6 1881.99,1054.39 1884.17,1055.17 1886.35,1055.95 1888.52,1056.73 1890.7,1057.51 1892.88,1058.29 1895.06,1059.06 1897.24,1059.84 1899.42,1060.61 1901.6,1061.39 1903.78,1062.16 1905.96,1062.94 1908.14,1063.72 1910.32,1064.49 1912.5,1065.27 1914.68,1066.05 1916.86,1066.82 1919.04,1067.6 1921.22,1068.37 1923.4,1069.14 1925.58,1069.91 1927.76,1070.68 1929.93,1071.45 1932.11,1072.21 1934.29,1072.97 1936.47,1073.73 1938.65,1074.49 1940.83,1075.25 1943.01,1076 1945.19,1076.75 1947.37,1077.49 1949.55,1078.23 1951.73,1078.97 1953.91,1079.71 1956.09,1080.44 1958.27,1081.17 1960.45,1081.89 1962.63,1082.62 1964.81,1083.34 1966.99,1084.05 1969.17,1084.76 1971.35,1085.47 1973.52,1086.18 1975.7,1086.88 1977.88,1087.58 1980.06,1088.27 1982.24,1088.97 1984.42,1089.66 1986.6,1090.35 1988.78,1091.03 1990.96,1091.71 1993.14,1092.39 1995.32,1093.07 1997.5,1093.75 1999.68,1094.43 2001.86,1095.1 2004.04,1095.77 2006.22,1096.44 2008.4,1097.11 2010.58,1097.78 2012.76,1098.45 2014.93,1099.13 2017.11,1099.8 2019.29,1100.47 2021.47,1101.14 2023.65,1101.81 2025.83,1102.49 2028.01,1103.17 2030.19,1103.85 2032.37,1104.52 2034.55,1105.2 2036.73,1105.88 2038.91,1106.56 2041.09,1107.24 2043.27,1107.91 2045.45,1108.59 2047.63,1109.26 2049.81,1109.93 2051.99,1110.6 2054.17,1111.27 2056.35,1111.93 2058.52,1112.59 2060.7,1113.25 2062.88,1113.9 2065.06,1114.55 2067.24,1115.2 2069.42,1115.84 2071.6,1116.48 2073.78,1117.12 2075.96,1117.75 2078.14,1118.38 2080.32,1119 2082.5,1119.63 2084.68,1120.24 2086.86,1120.86 2089.04,1121.47 2091.22,1122.08 2093.4,1122.68 2095.58,1123.28 2097.76,1123.88 2099.94,1124.47 2102.11,1125.07 2104.29,1125.66 2106.47,1126.25 2108.65,1126.83 2110.83,1127.42 2113.01,1128 2115.19,1128.58 2117.37,1129.17 2119.55,1129.75 2121.73,1130.33 2123.91,1130.91 2126.09,1131.5 2128.27,1132.08 2130.45,1132.67 2132.63,1133.26 2134.81,1133.85 2136.99,1134.45 2139.17,1135.05 2141.35,1135.65 2143.52,1136.25 2145.7,1136.86 2147.88,1137.47 2150.06,1138.08 2152.24,1138.68 2154.42,1139.29 2156.6,1139.9 2158.78,1140.5 2160.96,1141.1 2163.14,1141.7 2165.32,1142.29 2167.5,1142.89 2169.68,1143.48 2171.86,1144.06 2174.04,1144.64 2176.22,1145.22 2178.4,1145.79 2180.58,1146.36 2182.76,1146.92 2184.94,1147.48 2187.11,1148.03 2189.29,1148.58 2191.47,1149.13 2193.65,1149.67 2195.83,1150.2 2198.01,1150.74 2200.19,1151.26 2202.37,1151.79 2204.55,1152.31 2206.73,1152.83 2208.91,1153.34 2211.09,1153.85 2213.27,1154.36 2215.45,1154.87 2217.63,1155.38 2219.81,1155.88 2221.99,1156.39 2224.17,1156.89 2226.35,1157.4 2228.52,1157.91 2230.7,1158.42 2232.88,1158.94 2235.06,1159.46 2237.24,1159.98 2239.42,1160.51 2241.6,1161.04 2243.78,1161.58 2245.96,1162.13 2248.14,1162.68 2250.32,1163.23 2252.5,1163.79 2254.68,1164.34 2256.86,1164.9 2259.04,1165.45 2261.22,1166 2263.4,1166.55 2265.58,1167.1 2267.76,1167.64 2269.94,1168.18 2272.11,1168.71 2274.29,1169.24 2276.47,1169.76 2278.65,1170.28 2280.83,1170.79 2283.01,1171.29 2285.19,1171.79 2287.37,1172.29 2289.55,1172.77 2291.73,1173.25 2293.91,1173.73 2296.09,1174.2 2298.27,1174.67 2300.45,1175.13 2302.63,1175.58 2304.81,1176.03 2306.99,1176.48 2309.17,1176.93 2311.35,1177.37 2313.53,1177.82 2315.7,1178.26 2317.88,1178.7 2320.06,1179.15 2322.24,1179.59 2324.42,1180.04 2326.6,1180.5 2328.78,1180.96 2330.96,1181.42 2333.14,1181.9 2335.32,1182.38 2337.5,1182.87 2339.68,1183.37 2341.86,1183.86 2344.04,1184.35 2346.22,1184.83 2348.4,1185.32 2350.58,1185.8 2352.76,1186.27 "/>
<polyline clip-path="url(#clip482)" style="stroke:#e26f46; stroke-linecap:round; stroke-linejoin:round; stroke-width:8; stroke-opacity:1; fill:none" points="175.445,300.416 177.625,307.241 179.804,313.981 181.984,320.638 184.163,327.214 186.343,333.71 188.522,340.128 190.702,346.471 192.881,352.738 195.061,358.934 197.24,365.057 199.42,371.111 201.599,377.097 203.779,383.016 205.958,388.87 208.138,394.659 210.317,400.386 212.497,406.051 214.676,411.655 216.856,417.201 219.035,422.689 221.215,428.121 223.394,433.497 225.573,438.818 227.753,444.086 229.932,449.302 232.112,454.467 234.291,459.581 236.471,464.646 238.65,469.663 240.83,474.632 243.009,479.555 245.189,484.432 247.368,489.264 249.548,494.052 251.727,498.797 253.907,503.499 256.086,508.16 258.266,512.78 260.445,517.359 262.625,521.9 264.804,526.401 266.984,530.864 269.163,535.29 271.343,539.679 273.522,544.032 275.702,548.349 277.881,552.631 280.061,556.879 282.24,561.092 284.42,565.273 286.599,569.421 288.779,573.536 290.958,577.62 293.138,581.672 295.317,585.693 297.497,589.685 299.676,593.646 301.856,597.578 304.035,601.481 306.215,605.355 308.394,609.201 310.574,613.019 312.753,616.81 314.933,620.575 317.112,624.312 319.292,628.023 321.471,631.709 323.651,635.369 325.83,639.003 328.01,642.613 330.189,646.198 332.369,649.759 334.548,653.296 336.727,656.809 338.907,660.299 341.086,663.766 343.266,667.21 345.445,670.631 347.625,674.031 349.804,677.408 351.984,680.763 354.163,684.097 356.343,687.41 358.522,690.702 360.702,693.972 362.881,697.223 365.061,700.453 367.24,703.662 369.42,706.852 371.599,710.022 373.779,713.172 375.958,716.303 378.138,719.415 380.317,722.508 382.497,725.582 384.676,728.637 386.856,731.674 389.035,734.692 391.215,737.692 393.394,740.674 395.574,743.638 397.753,746.584 399.933,749.513 402.112,752.425 404.292,755.319 406.471,758.195 408.651,761.055 410.83,763.898 413.01,766.724 415.189,769.533 417.369,772.326 419.548,775.103 421.728,777.863 423.907,780.607 426.087,783.334 428.266,786.046 430.446,788.742 432.625,791.422 434.805,794.086 436.984,796.735 439.164,799.368 441.343,801.985 443.523,804.587 445.702,807.174 447.881,809.746 450.061,812.302 452.24,814.844 454.42,817.37 456.599,819.882 458.779,822.378 460.958,824.86 463.138,827.327 465.317,829.78 467.497,832.218 469.676,834.641 471.856,837.05 474.035,839.445 476.215,841.826 478.394,844.192 480.574,846.544 482.753,848.882 484.933,851.205 487.112,853.515 489.292,855.811 491.471,858.092 493.651,860.36 495.83,862.614 498.01,864.854 500.189,867.081 502.369,869.293 504.548,871.492 506.728,873.677 508.907,875.849 511.087,878.007 513.266,880.151 515.446,882.282 517.625,884.399 519.805,886.503 521.984,888.593 524.164,890.67 526.343,892.734 528.523,894.784 530.702,896.821 532.882,898.845 535.061,900.855 537.241,902.852 539.42,904.836 541.6,906.807 543.779,908.764 545.959,910.708 548.138,912.64 550.318,914.558 552.497,916.463 554.677,918.355 556.856,920.234 559.035,922.1 561.215,923.952 563.394,925.792 565.574,927.619 567.753,929.433 569.933,931.234 572.112,933.022 574.292,934.797 576.471,936.559 578.651,938.309 580.83,940.045 583.01,941.768 585.189,943.479 587.369,945.176 589.548,946.861 591.728,948.533 593.907,950.192 596.087,951.838 598.266,953.472 600.446,955.092 602.625,956.7 604.805,958.294 606.984,959.876 609.164,961.446 611.343,963.002 613.523,964.546 615.702,966.076 617.882,967.594 620.061,969.1 622.241,970.592 624.42,972.072 626.6,973.539 628.779,974.993 630.959,976.435 633.138,977.863 635.318,979.279 637.497,980.683 639.677,982.073 641.856,983.451 644.036,984.816 646.215,986.168 648.395,987.508 650.574,988.835 652.754,990.149 654.933,991.451 657.113,992.74 659.292,994.016 661.472,995.28 663.651,996.53 665.831,997.768 668.01,998.994 670.189,1000.21 672.369,1001.41 674.548,1002.59 676.728,1003.77 678.907,1004.93 681.087,1006.08 683.266,1007.22 685.446,1008.34 687.625,1009.45 689.805,1010.55 691.984,1011.63 694.164,1012.71 696.343,1013.77 698.523,1014.82 700.702,1015.85 702.882,1016.87 705.061,1017.88 707.241,1018.88 709.42,1019.87 711.6,1020.84 713.779,1021.8 715.959,1022.74 718.138,1023.68 720.318,1024.6 722.497,1025.51 724.677,1026.4 726.856,1027.29 729.036,1028.16 731.215,1029.02 733.395,1029.86 735.574,1030.7 737.754,1031.52 739.933,1032.33 742.113,1033.12 744.292,1033.91 746.472,1034.68 748.651,1035.44 750.831,1036.19 753.01,1036.92 755.19,1037.64 757.369,1038.35 759.549,1039.05 761.728,1039.73 763.908,1040.41 766.087,1041.07 768.267,1041.71 770.446,1042.35 772.626,1042.97 774.805,1043.58 776.984,1044.18 779.164,1044.77 781.343,1045.34 783.523,1045.9 785.702,1046.45 787.882,1046.99 790.061,1047.52 792.241,1048.03 794.42,1048.53 796.6,1049.02 798.779,1049.5 800.959,1049.96 803.138,1050.42 805.318,1050.86 807.497,1051.29 809.677,1051.7 811.856,1052.11 814.036,1052.5 816.215,1052.89 818.395,1053.26 820.574,1053.61 822.754,1053.96 824.933,1054.3 827.113,1054.62 829.292,1054.93 831.472,1055.23 833.651,1055.52 835.831,1055.8 838.01,1056.07 840.19,1056.32 842.369,1056.57 844.549,1056.8 846.728,1057.02 848.908,1057.23 851.087,1057.43 853.267,1057.62 855.446,1057.79 857.626,1057.96 859.805,1058.11 861.985,1058.26 864.164,1058.39 866.344,1058.51 868.523,1058.62 870.703,1058.72 872.882,1058.81 875.062,1058.89 877.241,1058.96 879.421,1059.02 881.6,1059.07 883.78,1059.11 885.959,1059.14 888.138,1059.15 890.318,1059.16 892.497,1059.16 894.677,1059.14 896.856,1059.12 899.036,1059.09 901.215,1059.05 903.395,1058.99 905.574,1058.93 907.754,1058.86 909.933,1058.78 912.113,1058.69 914.292,1058.58 916.472,1058.47 918.651,1058.35 920.831,1058.23 923.01,1058.09 925.19,1057.94 927.369,1057.78 929.549,1057.62 931.728,1057.45 933.908,1057.26 936.087,1057.07 938.267,1056.87 940.446,1056.66 942.626,1056.45 944.805,1056.22 946.985,1055.99 949.164,1055.74 951.344,1055.49 953.523,1055.24 955.703,1054.97 957.882,1054.7 960.062,1054.41 962.241,1054.12 964.421,1053.83 966.6,1053.52 968.78,1053.21 970.959,1052.89 973.139,1052.57 975.318,1052.23 977.498,1051.89 979.677,1051.55 981.857,1051.19 984.036,1050.83 986.216,1050.47 988.395,1050.09 990.575,1049.71 992.754,1049.33 994.934,1048.93 997.113,1048.54 999.292,1048.13 1001.47,1047.72 1003.65,1047.31 1005.83,1046.88 1008.01,1046.46 1010.19,1046.02 1012.37,1045.59 1014.55,1045.14 1016.73,1044.69 1018.91,1044.24 1021.09,1043.78 1023.27,1043.32 1025.45,1042.85 1027.63,1042.38 1029.81,1041.9 1031.98,1041.42 1034.16,1040.93 1036.34,1040.44 1038.52,1039.95 1040.7,1039.45 1042.88,1038.95 1045.06,1038.44 1047.24,1037.93 1049.42,1037.42 1051.6,1036.91 1053.78,1036.39 1055.96,1035.86 1058.14,1035.34 1060.32,1034.81 1062.5,1034.28 1064.68,1033.74 1066.86,1033.2 1069.04,1032.66 1071.22,1032.12 1073.4,1031.58 1075.57,1031.03 1077.75,1030.48 1079.93,1029.93 1082.11,1029.38 1084.29,1028.83 1086.47,1028.27 1088.65,1027.71 1090.83,1027.16 1093.01,1026.6 1095.19,1026.04 1097.37,1025.48 1099.55,1024.91 1101.73,1024.35 1103.91,1023.79 1106.09,1023.22 1108.27,1022.66 1110.45,1022.1 1112.63,1021.53 1114.81,1020.97 1116.98,1020.41 1119.16,1019.84 1121.34,1019.28 1123.52,1018.72 1125.7,1018.15 1127.88,1017.59 1130.06,1017.03 1132.24,1016.47 1134.42,1015.91 1136.6,1015.36 1138.78,1014.8 1140.96,1014.25 1143.14,1013.69 1145.32,1013.14 1147.5,1012.59 1149.68,1012.04 1151.86,1011.5 1154.04,1010.95 1156.22,1010.41 1158.4,1009.87 1160.57,1009.33 1162.75,1008.79 1164.93,1008.26 1167.11,1007.73 1169.29,1007.2 1171.47,1006.68 1173.65,1006.15 1175.83,1005.63 1178.01,1005.12 1180.19,1004.6 1182.37,1004.09 1184.55,1003.59 1186.73,1003.08 1188.91,1002.58 1191.09,1002.09 1193.27,1001.59 1195.45,1001.1 1197.63,1000.62 1199.81,1000.14 1201.99,999.66 1204.16,999.186 1206.34,998.717 1208.52,998.252 1210.7,997.792 1212.88,997.336 1215.06,996.884 1217.24,996.438 1219.42,995.995 1221.6,995.558 1223.78,995.125 1225.96,994.698 1228.14,994.275 1230.32,993.858 1232.5,993.445 1234.68,993.038 1236.86,992.636 1239.04,992.24 1241.22,991.849 1243.4,991.464 1245.57,991.084 1247.75,990.71 1249.93,990.342 1252.11,989.98 1254.29,989.623 1256.47,989.273 1258.65,988.928 1260.83,988.589 1263.01,988.256 1265.19,987.928 1267.37,987.605 1269.55,987.288 1271.73,986.977 1273.91,986.672 1276.09,986.373 1278.27,986.08 1280.45,985.793 1282.63,985.513 1284.81,985.239 1286.99,984.971 1289.16,984.71 1291.34,984.455 1293.52,984.207 1295.7,983.966 1297.88,983.732 1300.06,983.504 1302.24,983.284 1304.42,983.07 1306.6,982.864 1308.78,982.664 1310.96,982.472 1313.14,982.287 1315.32,982.109 1317.5,981.938 1319.68,981.775 1321.86,981.619 1324.04,981.47 1326.22,981.328 1328.4,981.194 1330.58,981.067 1332.75,980.948 1334.93,980.836 1337.11,980.732 1339.29,980.635 1341.47,980.545 1343.65,980.463 1345.83,980.388 1348.01,980.32 1350.19,980.26 1352.37,980.207 1354.55,980.162 1356.73,980.124 1358.91,980.093 1361.09,980.069 1363.27,980.053 1365.45,980.044 1367.63,980.042 1369.81,980.047 1371.99,980.059 1374.16,980.078 1376.34,980.104 1378.52,980.137 1380.7,980.176 1382.88,980.223 1385.06,980.276 1387.24,980.335 1389.42,980.402 1391.6,980.474 1393.78,980.554 1395.96,980.639 1398.14,980.731 1400.32,980.828 1402.5,980.932 1404.68,981.042 1406.86,981.157 1409.04,981.278 1411.22,981.405 1413.4,981.538 1415.58,981.675 1417.75,981.819 1419.93,981.967 1422.11,982.122 1424.29,982.282 1426.47,982.448 1428.65,982.62 1430.83,982.798 1433.01,982.981 1435.19,983.171 1437.37,983.367 1439.55,983.569 1441.73,983.777 1443.91,983.991 1446.09,984.212 1448.27,984.438 1450.45,984.671 1452.63,984.91 1454.81,985.155 1456.99,985.407 1459.16,985.665 1461.34,985.929 1463.52,986.199 1465.7,986.475 1467.88,986.757 1470.06,987.046 1472.24,987.341 1474.42,987.641 1476.6,987.948 1478.78,988.26 1480.96,988.579 1483.14,988.903 1485.32,989.233 1487.5,989.568 1489.68,989.909 1491.86,990.256 1494.04,990.608 1496.22,990.965 1498.4,991.328 1500.58,991.695 1502.75,992.068 1504.93,992.445 1507.11,992.827 1509.29,993.214 1511.47,993.606 1513.65,994.001 1515.83,994.401 1518.01,994.805 1520.19,995.213 1522.37,995.625 1524.55,996.04 1526.73,996.459 1528.91,996.881 1531.09,997.306 1533.27,997.733 1535.45,998.164 1537.63,998.597 1539.81,999.033 1541.99,999.47 1544.17,999.909 1546.34,1000.35 1548.52,1000.79 1550.7,1001.24 1552.88,1001.69 1555.06,1002.14 1557.24,1002.59 1559.42,1003.05 1561.6,1003.51 1563.78,1003.98 1565.96,1004.44 1568.14,1004.91 1570.32,1005.39 1572.5,1005.87 1574.68,1006.35 1576.86,1006.83 1579.04,1007.32 1581.22,1007.81 1583.4,1008.31 1585.58,1008.81 1587.75,1009.31 1589.93,1009.82 1592.11,1010.34 1594.29,1010.85 1596.47,1011.37 1598.65,1011.89 1600.83,1012.42 1603.01,1012.95 1605.19,1013.49 1607.37,1014.03 1609.55,1014.57 1611.73,1015.11 1613.91,1015.66 1616.09,1016.22 1618.27,1016.77 1620.45,1017.33 1622.63,1017.89 1624.81,1018.45 1626.99,1019.02 1629.17,1019.59 1631.34,1020.16 1633.52,1020.73 1635.7,1021.31 1637.88,1021.89 1640.06,1022.47 1642.24,1023.05 1644.42,1023.63 1646.6,1024.21 1648.78,1024.79 1650.96,1025.37 1653.14,1025.96 1655.32,1026.54 1657.5,1027.12 1659.68,1027.71 1661.86,1028.29 1664.04,1028.87 1666.22,1029.44 1668.4,1030.02 1670.58,1030.6 1672.75,1031.17 1674.93,1031.75 1677.11,1032.32 1679.29,1032.9 1681.47,1033.47 1683.65,1034.05 1685.83,1034.62 1688.01,1035.2 1690.19,1035.78 1692.37,1036.36 1694.55,1036.94 1696.73,1037.52 1698.91,1038.11 1701.09,1038.69 1703.27,1039.28 1705.45,1039.86 1707.63,1040.45 1709.81,1041.04 1711.99,1041.64 1714.17,1042.23 1716.34,1042.83 1718.52,1043.42 1720.7,1044.02 1722.88,1044.62 1725.06,1045.23 1727.24,1045.83 1729.42,1046.44 1731.6,1047.04 1733.78,1047.65 1735.96,1048.26 1738.14,1048.88 1740.32,1049.49 1742.5,1050.1 1744.68,1050.72 1746.86,1051.34 1749.04,1051.95 1751.22,1052.57 1753.4,1053.19 1755.58,1053.81 1757.76,1054.43 1759.93,1055.05 1762.11,1055.67 1764.29,1056.29 1766.47,1056.91 1768.65,1057.52 1770.83,1058.14 1773.01,1058.76 1775.19,1059.37 1777.37,1059.99 1779.55,1060.6 1781.73,1061.21 1783.91,1061.82 1786.09,1062.42 1788.27,1063.02 1790.45,1063.62 1792.63,1064.22 1794.81,1064.82 1796.99,1065.41 1799.17,1066.01 1801.34,1066.6 1803.52,1067.19 1805.7,1067.78 1807.88,1068.37 1810.06,1068.96 1812.24,1069.55 1814.42,1070.14 1816.6,1070.73 1818.78,1071.32 1820.96,1071.91 1823.14,1072.51 1825.32,1073.1 1827.5,1073.69 1829.68,1074.28 1831.86,1074.88 1834.04,1075.47 1836.22,1076.07 1838.4,1076.67 1840.58,1077.27 1842.76,1077.87 1844.93,1078.47 1847.11,1079.07 1849.29,1079.67 1851.47,1080.27 1853.65,1080.88 1855.83,1081.48 1858.01,1082.09 1860.19,1082.69 1862.37,1083.3 1864.55,1083.91 1866.73,1084.52 1868.91,1085.12 1871.09,1085.73 1873.27,1086.34 1875.45,1086.95 1877.63,1087.55 1879.81,1088.16 1881.99,1088.77 1884.17,1089.37 1886.35,1089.98 1888.52,1090.58 1890.7,1091.18 1892.88,1091.78 1895.06,1092.38 1897.24,1092.97 1899.42,1093.57 1901.6,1094.16 1903.78,1094.74 1905.96,1095.32 1908.14,1095.9 1910.32,1096.48 1912.5,1097.05 1914.68,1097.62 1916.86,1098.19 1919.04,1098.75 1921.22,1099.32 1923.4,1099.88 1925.58,1100.44 1927.76,1101 1929.93,1101.56 1932.11,1102.12 1934.29,1102.67 1936.47,1103.23 1938.65,1103.79 1940.83,1104.35 1943.01,1104.91 1945.19,1105.47 1947.37,1106.03 1949.55,1106.59 1951.73,1107.15 1953.91,1107.71 1956.09,1108.27 1958.27,1108.84 1960.45,1109.4 1962.63,1109.97 1964.81,1110.53 1966.99,1111.1 1969.17,1111.67 1971.35,1112.24 1973.52,1112.81 1975.7,1113.38 1977.88,1113.95 1980.06,1114.52 1982.24,1115.09 1984.42,1115.66 1986.6,1116.23 1988.78,1116.81 1990.96,1117.38 1993.14,1117.95 1995.32,1118.52 1997.5,1119.09 1999.68,1119.66 2001.86,1120.23 2004.04,1120.8 2006.22,1121.36 2008.4,1121.92 2010.58,1122.48 2012.76,1123.04 2014.93,1123.6 2017.11,1124.15 2019.29,1124.7 2021.47,1125.24 2023.65,1125.78 2025.83,1126.32 2028.01,1126.85 2030.19,1127.37 2032.37,1127.9 2034.55,1128.42 2036.73,1128.93 2038.91,1129.45 2041.09,1129.96 2043.27,1130.48 2045.45,1130.99 2047.63,1131.5 2049.81,1132.01 2051.99,1132.52 2054.17,1133.03 2056.35,1133.54 2058.52,1134.06 2060.7,1134.57 2062.88,1135.08 2065.06,1135.6 2067.24,1136.11 2069.42,1136.63 2071.6,1137.15 2073.78,1137.67 2075.96,1138.19 2078.14,1138.71 2080.32,1139.24 2082.5,1139.76 2084.68,1140.29 2086.86,1140.82 2089.04,1141.35 2091.22,1141.88 2093.4,1142.41 2095.58,1142.94 2097.76,1143.48 2099.94,1144.01 2102.11,1144.55 2104.29,1145.08 2106.47,1145.61 2108.65,1146.15 2110.83,1146.68 2113.01,1147.21 2115.19,1147.74 2117.37,1148.27 2119.55,1148.8 2121.73,1149.32 2123.91,1149.84 2126.09,1150.36 2128.27,1150.87 2130.45,1151.38 2132.63,1151.88 2134.81,1152.37 2136.99,1152.87 2139.17,1153.35 2141.35,1153.83 2143.52,1154.3 2145.7,1154.77 2147.88,1155.23 2150.06,1155.7 2152.24,1156.16 2154.42,1156.62 2156.6,1157.08 2158.78,1157.53 2160.96,1157.99 2163.14,1158.45 2165.32,1158.91 2167.5,1159.37 2169.68,1159.83 2171.86,1160.29 2174.04,1160.76 2176.22,1161.23 2178.4,1161.7 2180.58,1162.17 2182.76,1162.64 2184.94,1163.12 2187.11,1163.6 2189.29,1164.09 2191.47,1164.57 2193.65,1165.06 2195.83,1165.55 2198.01,1166.05 2200.19,1166.54 2202.37,1167.04 2204.55,1167.54 2206.73,1168.04 2208.91,1168.54 2211.09,1169.04 2213.27,1169.54 2215.45,1170.04 2217.63,1170.54 2219.81,1171.04 2221.99,1171.54 2224.17,1172.03 2226.35,1172.52 2228.52,1173.01 2230.7,1173.49 2232.88,1173.97 2235.06,1174.43 2237.24,1174.9 2239.42,1175.35 2241.6,1175.79 2243.78,1176.23 2245.96,1176.65 2248.14,1177.07 2250.32,1177.49 2252.5,1177.9 2254.68,1178.31 2256.86,1178.72 2259.04,1179.12 2261.22,1179.53 2263.4,1179.94 2265.58,1180.35 2267.76,1180.76 2269.94,1181.17 2272.11,1181.58 2274.29,1182 2276.47,1182.42 2278.65,1182.85 2280.83,1183.28 2283.01,1183.72 2285.19,1184.15 2287.37,1184.6 2289.55,1185.05 2291.73,1185.5 2293.91,1185.95 2296.09,1186.41 2298.27,1186.88 2300.45,1187.34 2302.63,1187.81 2304.81,1188.28 2306.99,1188.75 2309.17,1189.23 2311.35,1189.7 2313.53,1190.17 2315.7,1190.64 2317.88,1191.11 2320.06,1191.58 2322.24,1192.04 2324.42,1192.49 2326.6,1192.94 2328.78,1193.38 2330.96,1193.81 2333.14,1194.23 2335.32,1194.64 2337.5,1195.03 2339.68,1195.43 2341.86,1195.82 2344.04,1196.22 2346.22,1196.61 2348.4,1197.01 2350.58,1197.4 2352.76,1197.8 "/>
<polyline clip-path="url(#clip482)" style="stroke:#3da44d; stroke-linecap:round; stroke-linejoin:round; stroke-width:8; stroke-opacity:1; fill:none" points="175.445,1386.4 177.625,1379.64 179.804,1373.09 181.984,1366.76 184.163,1360.63 186.343,1354.7 188.522,1348.95 190.702,1343.4 192.881,1338.03 195.061,1332.83 197.24,1327.8 199.42,1322.95 201.599,1318.25 203.779,1313.71 205.958,1309.32 208.138,1305.08 210.317,1300.99 212.497,1297.03 214.676,1293.22 216.856,1289.53 219.035,1285.98 221.215,1282.54 223.394,1279.23 225.573,1276.04 227.753,1272.96 229.932,1270 232.112,1267.14 234.291,1264.39 236.471,1261.74 238.65,1259.19 240.83,1256.73 243.009,1254.37 245.189,1252.1 247.368,1249.92 249.548,1247.82 251.727,1245.81 253.907,1243.88 256.086,1242.03 258.266,1240.25 260.445,1238.55 262.625,1236.92 264.804,1235.36 266.984,1233.86 269.163,1232.44 271.343,1231.08 273.522,1229.77 275.702,1228.53 277.881,1227.35 280.061,1226.23 282.24,1225.16 284.42,1224.14 286.599,1223.18 288.779,1222.26 290.958,1221.4 293.138,1220.58 295.317,1219.81 297.497,1219.08 299.676,1218.4 301.856,1217.76 304.035,1217.16 306.215,1216.6 308.394,1216.08 310.574,1215.59 312.753,1215.15 314.933,1214.73 317.112,1214.35 319.292,1214.01 321.471,1213.69 323.651,1213.41 325.83,1213.15 328.01,1212.93 330.189,1212.73 332.369,1212.56 334.548,1212.42 336.727,1212.3 338.907,1212.21 341.086,1212.14 343.266,1212.1 345.445,1212.08 347.625,1212.08 349.804,1212.1 351.984,1212.14 354.163,1212.2 356.343,1212.28 358.522,1212.38 360.702,1212.5 362.881,1212.63 365.061,1212.78 367.24,1212.95 369.42,1213.13 371.599,1213.33 373.779,1213.54 375.958,1213.77 378.138,1214.01 380.317,1214.26 382.497,1214.53 384.676,1214.81 386.856,1215.1 389.035,1215.4 391.215,1215.72 393.394,1216.04 395.574,1216.38 397.753,1216.72 399.933,1217.07 402.112,1217.44 404.292,1217.81 406.471,1218.19 408.651,1218.58 410.83,1218.97 413.01,1219.38 415.189,1219.79 417.369,1220.21 419.548,1220.63 421.728,1221.06 423.907,1221.5 426.087,1221.94 428.266,1222.39 430.446,1222.85 432.625,1223.31 434.805,1223.77 436.984,1224.24 439.164,1224.71 441.343,1225.19 443.523,1225.67 445.702,1226.16 447.881,1226.65 450.061,1227.14 452.24,1227.64 454.42,1228.14 456.599,1228.64 458.779,1229.14 460.958,1229.65 463.138,1230.16 465.317,1230.68 467.497,1231.19 469.676,1231.71 471.856,1232.23 474.035,1232.75 476.215,1233.27 478.394,1233.79 480.574,1234.32 482.753,1234.84 484.933,1235.37 487.112,1235.9 489.292,1236.43 491.471,1236.96 493.651,1237.49 495.83,1238.02 498.01,1238.55 500.189,1239.08 502.369,1239.61 504.548,1240.14 506.728,1240.68 508.907,1241.21 511.087,1241.74 513.266,1242.27 515.446,1242.8 517.625,1243.33 519.805,1243.87 521.984,1244.4 524.164,1244.93 526.343,1245.46 528.523,1245.98 530.702,1246.51 532.882,1247.04 535.061,1247.57 537.241,1248.09 539.42,1248.62 541.6,1249.14 543.779,1249.66 545.959,1250.18 548.138,1250.7 550.318,1251.22 552.497,1251.74 554.677,1252.25 556.856,1252.77 559.035,1253.28 561.215,1253.79 563.394,1254.3 565.574,1254.81 567.753,1255.32 569.933,1255.82 572.112,1256.32 574.292,1256.82 576.471,1257.32 578.651,1257.82 580.83,1258.32 583.01,1258.81 585.189,1259.3 587.369,1259.79 589.548,1260.28 591.728,1260.77 593.907,1261.25 596.087,1261.73 598.266,1262.21 600.446,1262.69 602.625,1263.17 604.805,1263.64 606.984,1264.11 609.164,1264.58 611.343,1265.05 613.523,1265.51 615.702,1265.98 617.882,1266.44 620.061,1266.89 622.241,1267.35 624.42,1267.8 626.6,1268.25 628.779,1268.7 630.959,1269.15 633.138,1269.59 635.318,1270.03 637.497,1270.47 639.677,1270.91 641.856,1271.34 644.036,1271.77 646.215,1272.2 648.395,1272.63 650.574,1273.05 652.754,1273.47 654.933,1273.89 657.113,1274.3 659.292,1274.71 661.472,1275.12 663.651,1275.53 665.831,1275.94 668.01,1276.34 670.189,1276.74 672.369,1277.13 674.548,1277.53 676.728,1277.92 678.907,1278.31 681.087,1278.69 683.266,1279.08 685.446,1279.46 687.625,1279.84 689.805,1280.21 691.984,1280.58 694.164,1280.95 696.343,1281.32 698.523,1281.68 700.702,1282.04 702.882,1282.4 705.061,1282.76 707.241,1283.11 709.42,1283.46 711.6,1283.81 713.779,1284.15 715.959,1284.49 718.138,1284.83 720.318,1285.17 722.497,1285.5 724.677,1285.83 726.856,1286.16 729.036,1286.48 731.215,1286.81 733.395,1287.12 735.574,1287.44 737.754,1287.75 739.933,1288.06 742.113,1288.37 744.292,1288.67 746.472,1288.97 748.651,1289.27 750.831,1289.57 753.01,1289.86 755.19,1290.15 757.369,1290.43 759.549,1290.72 761.728,1291 763.908,1291.27 766.087,1291.55 768.267,1291.82 770.446,1292.09 772.626,1292.35 774.805,1292.61 776.984,1292.87 779.164,1293.13 781.343,1293.38 783.523,1293.63 785.702,1293.88 787.882,1294.13 790.061,1294.37 792.241,1294.61 794.42,1294.84 796.6,1295.08 798.779,1295.31 800.959,1295.54 803.138,1295.76 805.318,1295.98 807.497,1296.2 809.677,1296.42 811.856,1296.63 814.036,1296.84 816.215,1297.05 818.395,1297.25 820.574,1297.45 822.754,1297.65 824.933,1297.84 827.113,1298.04 829.292,1298.23 831.472,1298.41 833.651,1298.6 835.831,1298.78 838.01,1298.96 840.19,1299.13 842.369,1299.3 844.549,1299.47 846.728,1299.64 848.908,1299.8 851.087,1299.96 853.267,1300.12 855.446,1300.27 857.626,1300.43 859.805,1300.57 861.985,1300.72 864.164,1300.86 866.344,1301 868.523,1301.14 870.703,1301.27 872.882,1301.4 875.062,1301.53 877.241,1301.66 879.421,1301.78 881.6,1301.9 883.78,1302.02 885.959,1302.13 888.138,1302.24 890.318,1302.35 892.497,1302.46 894.677,1302.56 896.856,1302.66 899.036,1302.76 901.215,1302.85 903.395,1302.94 905.574,1303.03 907.754,1303.12 909.933,1303.2 912.113,1303.28 914.292,1303.36 916.472,1303.44 918.651,1303.51 920.831,1303.58 923.01,1303.65 925.19,1303.72 927.369,1303.78 929.549,1303.84 931.728,1303.9 933.908,1303.96 936.087,1304.01 938.267,1304.06 940.446,1304.11 942.626,1304.15 944.805,1304.2 946.985,1304.24 949.164,1304.27 951.344,1304.31 953.523,1304.34 955.703,1304.37 957.882,1304.4 960.062,1304.43 962.241,1304.45 964.421,1304.47 966.6,1304.49 968.78,1304.51 970.959,1304.52 973.139,1304.53 975.318,1304.54 977.498,1304.55 979.677,1304.55 981.857,1304.55 984.036,1304.55 986.216,1304.55 988.395,1304.54 990.575,1304.53 992.754,1304.52 994.934,1304.51 997.113,1304.5 999.292,1304.48 1001.47,1304.46 1003.65,1304.44 1005.83,1304.42 1008.01,1304.39 1010.19,1304.37 1012.37,1304.34 1014.55,1304.3 1016.73,1304.27 1018.91,1304.24 1021.09,1304.2 1023.27,1304.16 1025.45,1304.12 1027.63,1304.08 1029.81,1304.03 1031.98,1303.99 1034.16,1303.94 1036.34,1303.89 1038.52,1303.84 1040.7,1303.78 1042.88,1303.73 1045.06,1303.67 1047.24,1303.61 1049.42,1303.55 1051.6,1303.49 1053.78,1303.43 1055.96,1303.36 1058.14,1303.29 1060.32,1303.23 1062.5,1303.16 1064.68,1303.09 1066.86,1303.01 1069.04,1302.94 1071.22,1302.86 1073.4,1302.79 1075.57,1302.71 1077.75,1302.63 1079.93,1302.55 1082.11,1302.46 1084.29,1302.38 1086.47,1302.3 1088.65,1302.21 1090.83,1302.12 1093.01,1302.03 1095.19,1301.94 1097.37,1301.85 1099.55,1301.76 1101.73,1301.67 1103.91,1301.57 1106.09,1301.48 1108.27,1301.38 1110.45,1301.28 1112.63,1301.18 1114.81,1301.08 1116.98,1300.98 1119.16,1300.88 1121.34,1300.77 1123.52,1300.67 1125.7,1300.56 1127.88,1300.46 1130.06,1300.35 1132.24,1300.24 1134.42,1300.14 1136.6,1300.03 1138.78,1299.92 1140.96,1299.81 1143.14,1299.7 1145.32,1299.59 1147.5,1299.48 1149.68,1299.36 1151.86,1299.25 1154.04,1299.14 1156.22,1299.02 1158.4,1298.91 1160.57,1298.79 1162.75,1298.68 1164.93,1298.56 1167.11,1298.45 1169.29,1298.33 1171.47,1298.21 1173.65,1298.1 1175.83,1297.98 1178.01,1297.86 1180.19,1297.74 1182.37,1297.62 1184.55,1297.51 1186.73,1297.39 1188.91,1297.27 1191.09,1297.15 1193.27,1297.03 1195.45,1296.91 1197.63,1296.8 1199.81,1296.68 1201.99,1296.56 1204.16,1296.44 1206.34,1296.32 1208.52,1296.2 1210.7,1296.08 1212.88,1295.97 1215.06,1295.85 1217.24,1295.73 1219.42,1295.61 1221.6,1295.49 1223.78,1295.38 1225.96,1295.26 1228.14,1295.14 1230.32,1295.03 1232.5,1294.91 1234.68,1294.8 1236.86,1294.68 1239.04,1294.57 1241.22,1294.45 1243.4,1294.34 1245.57,1294.23 1247.75,1294.11 1249.93,1294 1252.11,1293.89 1254.29,1293.78 1256.47,1293.67 1258.65,1293.56 1260.83,1293.45 1263.01,1293.35 1265.19,1293.24 1267.37,1293.14 1269.55,1293.03 1271.73,1292.93 1273.91,1292.83 1276.09,1292.73 1278.27,1292.63 1280.45,1292.53 1282.63,1292.44 1284.81,1292.34 1286.99,1292.25 1289.16,1292.15 1291.34,1292.06 1293.52,1291.97 1295.7,1291.88 1297.88,1291.79 1300.06,1291.7 1302.24,1291.61 1304.42,1291.52 1306.6,1291.43 1308.78,1291.35 1310.96,1291.26 1313.14,1291.18 1315.32,1291.09 1317.5,1291.01 1319.68,1290.93 1321.86,1290.85 1324.04,1290.76 1326.22,1290.68 1328.4,1290.61 1330.58,1290.53 1332.75,1290.45 1334.93,1290.37 1337.11,1290.3 1339.29,1290.22 1341.47,1290.15 1343.65,1290.07 1345.83,1290 1348.01,1289.93 1350.19,1289.86 1352.37,1289.79 1354.55,1289.72 1356.73,1289.65 1358.91,1289.59 1361.09,1289.52 1363.27,1289.46 1365.45,1289.4 1367.63,1289.34 1369.81,1289.28 1371.99,1289.22 1374.16,1289.16 1376.34,1289.1 1378.52,1289.05 1380.7,1289 1382.88,1288.94 1385.06,1288.89 1387.24,1288.85 1389.42,1288.8 1391.6,1288.75 1393.78,1288.71 1395.96,1288.67 1398.14,1288.63 1400.32,1288.59 1402.5,1288.56 1404.68,1288.53 1406.86,1288.49 1409.04,1288.47 1411.22,1288.44 1413.4,1288.42 1415.58,1288.39 1417.75,1288.38 1419.93,1288.36 1422.11,1288.34 1424.29,1288.33 1426.47,1288.32 1428.65,1288.3 1430.83,1288.3 1433.01,1288.29 1435.19,1288.28 1437.37,1288.28 1439.55,1288.27 1441.73,1288.27 1443.91,1288.27 1446.09,1288.27 1448.27,1288.28 1450.45,1288.28 1452.63,1288.29 1454.81,1288.29 1456.99,1288.3 1459.16,1288.31 1461.34,1288.32 1463.52,1288.33 1465.7,1288.34 1467.88,1288.35 1470.06,1288.37 1472.24,1288.38 1474.42,1288.4 1476.6,1288.42 1478.78,1288.44 1480.96,1288.46 1483.14,1288.48 1485.32,1288.5 1487.5,1288.53 1489.68,1288.55 1491.86,1288.58 1494.04,1288.6 1496.22,1288.63 1498.4,1288.66 1500.58,1288.69 1502.75,1288.73 1504.93,1288.76 1507.11,1288.79 1509.29,1288.83 1511.47,1288.87 1513.65,1288.91 1515.83,1288.95 1518.01,1288.99 1520.19,1289.03 1522.37,1289.08 1524.55,1289.13 1526.73,1289.17 1528.91,1289.22 1531.09,1289.28 1533.27,1289.33 1535.45,1289.39 1537.63,1289.44 1539.81,1289.5 1541.99,1289.57 1544.17,1289.63 1546.34,1289.69 1548.52,1289.76 1550.7,1289.83 1552.88,1289.9 1555.06,1289.97 1557.24,1290.04 1559.42,1290.12 1561.6,1290.19 1563.78,1290.27 1565.96,1290.34 1568.14,1290.42 1570.32,1290.5 1572.5,1290.58 1574.68,1290.66 1576.86,1290.74 1579.04,1290.83 1581.22,1290.91 1583.4,1291 1585.58,1291.08 1587.75,1291.17 1589.93,1291.25 1592.11,1291.34 1594.29,1291.43 1596.47,1291.51 1598.65,1291.6 1600.83,1291.69 1603.01,1291.78 1605.19,1291.87 1607.37,1291.96 1609.55,1292.05 1611.73,1292.15 1613.91,1292.24 1616.09,1292.33 1618.27,1292.43 1620.45,1292.52 1622.63,1292.62 1624.81,1292.71 1626.99,1292.81 1629.17,1292.9 1631.34,1293 1633.52,1293.1 1635.7,1293.2 1637.88,1293.3 1640.06,1293.4 1642.24,1293.5 1644.42,1293.61 1646.6,1293.71 1648.78,1293.82 1650.96,1293.92 1653.14,1294.03 1655.32,1294.14 1657.5,1294.25 1659.68,1294.36 1661.86,1294.47 1664.04,1294.59 1666.22,1294.7 1668.4,1294.82 1670.58,1294.94 1672.75,1295.06 1674.93,1295.18 1677.11,1295.3 1679.29,1295.43 1681.47,1295.55 1683.65,1295.67 1685.83,1295.8 1688.01,1295.92 1690.19,1296.05 1692.37,1296.18 1694.55,1296.3 1696.73,1296.43 1698.91,1296.56 1701.09,1296.68 1703.27,1296.81 1705.45,1296.94 1707.63,1297.07 1709.81,1297.2 1711.99,1297.33 1714.17,1297.46 1716.34,1297.59 1718.52,1297.72 1720.7,1297.85 1722.88,1297.98 1725.06,1298.11 1727.24,1298.24 1729.42,1298.37 1731.6,1298.5 1733.78,1298.63 1735.96,1298.76 1738.14,1298.89 1740.32,1299.02 1742.5,1299.16 1744.68,1299.29 1746.86,1299.42 1749.04,1299.55 1751.22,1299.68 1753.4,1299.82 1755.58,1299.95 1757.76,1300.08 1759.93,1300.21 1762.11,1300.35 1764.29,1300.48 1766.47,1300.62 1768.65,1300.75 1770.83,1300.89 1773.01,1301.02 1775.19,1301.16 1777.37,1301.3 1779.55,1301.43 1781.73,1301.57 1783.91,1301.71 1786.09,1301.85 1788.27,1301.99 1790.45,1302.13 1792.63,1302.28 1794.81,1302.42 1796.99,1302.56 1799.17,1302.71 1801.34,1302.85 1803.52,1302.99 1805.7,1303.14 1807.88,1303.28 1810.06,1303.43 1812.24,1303.57 1814.42,1303.72 1816.6,1303.86 1818.78,1304.01 1820.96,1304.15 1823.14,1304.3 1825.32,1304.44 1827.5,1304.58 1829.68,1304.73 1831.86,1304.87 1834.04,1305.02 1836.22,1305.16 1838.4,1305.31 1840.58,1305.45 1842.76,1305.59 1844.93,1305.74 1847.11,1305.88 1849.29,1306.02 1851.47,1306.17 1853.65,1306.31 1855.83,1306.45 1858.01,1306.59 1860.19,1306.73 1862.37,1306.88 1864.55,1307.02 1866.73,1307.16 1868.91,1307.3 1871.09,1307.44 1873.27,1307.58 1875.45,1307.72 1877.63,1307.86 1879.81,1308.01 1881.99,1308.15 1884.17,1308.29 1886.35,1308.43 1888.52,1308.57 1890.7,1308.71 1892.88,1308.85 1895.06,1309 1897.24,1309.14 1899.42,1309.28 1901.6,1309.42 1903.78,1309.57 1905.96,1309.71 1908.14,1309.86 1910.32,1310 1912.5,1310.15 1914.68,1310.29 1916.86,1310.44 1919.04,1310.59 1921.22,1310.73 1923.4,1310.88 1925.58,1311.03 1927.76,1311.17 1929.93,1311.32 1932.11,1311.46 1934.29,1311.61 1936.47,1311.76 1938.65,1311.9 1940.83,1312.05 1943.01,1312.19 1945.19,1312.34 1947.37,1312.48 1949.55,1312.63 1951.73,1312.77 1953.91,1312.91 1956.09,1313.06 1958.27,1313.2 1960.45,1313.34 1962.63,1313.48 1964.81,1313.63 1966.99,1313.77 1969.17,1313.91 1971.35,1314.05 1973.52,1314.19 1975.7,1314.33 1977.88,1314.47 1980.06,1314.61 1982.24,1314.75 1984.42,1314.89 1986.6,1315.02 1988.78,1315.16 1990.96,1315.3 1993.14,1315.44 1995.32,1315.57 1997.5,1315.71 1999.68,1315.85 2001.86,1315.99 2004.04,1316.12 2006.22,1316.26 2008.4,1316.4 2010.58,1316.53 2012.76,1316.67 2014.93,1316.81 2017.11,1316.95 2019.29,1317.08 2021.47,1317.22 2023.65,1317.36 2025.83,1317.5 2028.01,1317.64 2030.19,1317.78 2032.37,1317.92 2034.55,1318.06 2036.73,1318.2 2038.91,1318.34 2041.09,1318.48 2043.27,1318.62 2045.45,1318.76 2047.63,1318.9 2049.81,1319.04 2051.99,1319.18 2054.17,1319.32 2056.35,1319.46 2058.52,1319.6 2060.7,1319.74 2062.88,1319.87 2065.06,1320.01 2067.24,1320.15 2069.42,1320.28 2071.6,1320.42 2073.78,1320.55 2075.96,1320.69 2078.14,1320.82 2080.32,1320.96 2082.5,1321.09 2084.68,1321.22 2086.86,1321.35 2089.04,1321.48 2091.22,1321.62 2093.4,1321.75 2095.58,1321.88 2097.76,1322.01 2099.94,1322.14 2102.11,1322.26 2104.29,1322.39 2106.47,1322.52 2108.65,1322.65 2110.83,1322.78 2113.01,1322.91 2115.19,1323.03 2117.37,1323.16 2119.55,1323.29 2121.73,1323.42 2123.91,1323.55 2126.09,1323.67 2128.27,1323.8 2130.45,1323.93 2132.63,1324.06 2134.81,1324.19 2136.99,1324.32 2139.17,1324.45 2141.35,1324.58 2143.52,1324.71 2145.7,1324.85 2147.88,1324.98 2150.06,1325.11 2152.24,1325.24 2154.42,1325.37 2156.6,1325.5 2158.78,1325.63 2160.96,1325.76 2163.14,1325.89 2165.32,1326.02 2167.5,1326.15 2169.68,1326.28 2171.86,1326.41 2174.04,1326.54 2176.22,1326.67 2178.4,1326.79 2180.58,1326.92 2182.76,1327.04 2184.94,1327.17 2187.11,1327.29 2189.29,1327.42 2191.47,1327.54 2193.65,1327.66 2195.83,1327.78 2198.01,1327.9 2200.19,1328.02 2202.37,1328.14 2204.55,1328.26 2206.73,1328.38 2208.91,1328.5 2211.09,1328.62 2213.27,1328.74 2215.45,1328.86 2217.63,1328.97 2219.81,1329.09 2221.99,1329.21 2224.17,1329.33 2226.35,1329.44 2228.52,1329.56 2230.7,1329.68 2232.88,1329.8 2235.06,1329.92 2237.24,1330.04 2239.42,1330.16 2241.6,1330.28 2243.78,1330.4 2245.96,1330.52 2248.14,1330.64 2250.32,1330.76 2252.5,1330.89 2254.68,1331.01 2256.86,1331.13 2259.04,1331.25 2261.22,1331.38 2263.4,1331.5 2265.58,1331.62 2267.76,1331.74 2269.94,1331.86 2272.11,1331.98 2274.29,1332.1 2276.47,1332.22 2278.65,1332.33 2280.83,1332.45 2283.01,1332.57 2285.19,1332.68 2287.37,1332.8 2289.55,1332.91 2291.73,1333.02 2293.91,1333.13 2296.09,1333.25 2298.27,1333.36 2300.45,1333.47 2302.63,1333.58 2304.81,1333.69 2306.99,1333.79 2309.17,1333.9 2311.35,1334.01 2313.53,1334.12 2315.7,1334.23 2317.88,1334.33 2320.06,1334.44 2322.24,1334.55 2324.42,1334.66 2326.6,1334.77 2328.78,1334.88 2330.96,1334.99 2333.14,1335.1 2335.32,1335.21 2337.5,1335.32 2339.68,1335.43 2341.86,1335.55 2344.04,1335.66 2346.22,1335.77 2348.4,1335.88 2350.58,1335.99 2352.76,1336.1 "/>
<circle clip-path="url(#clip482)" cx="260.997" cy="1244.38" r="18" fill="#c271d2" fill-rule="evenodd" fill-opacity="1" stroke="#000000" stroke-opacity="1" stroke-width="3.2"/>
<circle clip-path="url(#clip482)" cx="348.987" cy="1191.9" r="18" fill="#c271d2" fill-rule="evenodd" fill-opacity="1" stroke="#000000" stroke-opacity="1" stroke-width="3.2"/>
<circle clip-path="url(#clip482)" cx="487.917" cy="1250.56" r="18" fill="#c271d2" fill-rule="evenodd" fill-opacity="1" stroke="#000000" stroke-opacity="1" stroke-width="3.2"/>
<circle clip-path="url(#clip482)" cx="654.39" cy="1269.08" r="18" fill="#c271d2" fill-rule="evenodd" fill-opacity="1" stroke="#000000" stroke-opacity="1" stroke-width="3.2"/>
<circle clip-path="url(#clip482)" cx="1074.11" cy="1303.04" r="18" fill="#c271d2" fill-rule="evenodd" fill-opacity="1" stroke="#000000" stroke-opacity="1" stroke-width="3.2"/>
<circle clip-path="url(#clip482)" cx="1983.01" cy="1315.39" r="18" fill="#c271d2" fill-rule="evenodd" fill-opacity="1" stroke="#000000" stroke-opacity="1" stroke-width="3.2"/>
<circle clip-path="url(#clip482)" cx="2056.37" cy="1318.48" r="18" fill="#c271d2" fill-rule="evenodd" fill-opacity="1" stroke="#000000" stroke-opacity="1" stroke-width="3.2"/>
<circle clip-path="url(#clip482)" cx="2121.69" cy="1324.65" r="18" fill="#c271d2" fill-rule="evenodd" fill-opacity="1" stroke="#000000" stroke-opacity="1" stroke-width="3.2"/>
<circle clip-path="url(#clip482)" cx="2206.51" cy="1327.74" r="18" fill="#c271d2" fill-rule="evenodd" fill-opacity="1" stroke="#000000" stroke-opacity="1" stroke-width="3.2"/>
<path clip-path="url(#clip480)" d="M1713.07 425.996 L2280.18 425.996 L2280.18 166.796 L1713.07 166.796  Z" fill="#ffffff" fill-rule="evenodd" fill-opacity="1"/>
<polyline clip-path="url(#clip480)" style="stroke:#000000; stroke-linecap:round; stroke-linejoin:round; stroke-width:4; stroke-opacity:1; fill:none" points="1713.07,425.996 2280.18,425.996 2280.18,166.796 1713.07,166.796 1713.07,425.996 "/>
<polyline clip-path="url(#clip480)" style="stroke:#009af9; stroke-linecap:round; stroke-linejoin:round; stroke-width:8; stroke-opacity:1; fill:none" points="1737.27,218.636 1882.42,218.636 "/>
<path clip-path="url(#clip480)" d="M1928.86 202.49 L1928.86 207.05 Q1926.2 205.777 1923.84 205.152 Q1921.47 204.527 1919.28 204.527 Q1915.46 204.527 1913.37 206.008 Q1911.31 207.49 1911.31 210.221 Q1911.31 212.513 1912.68 213.694 Q1914.07 214.851 1917.91 215.569 L1920.73 216.147 Q1925.97 217.143 1928.44 219.666 Q1930.94 222.166 1930.94 226.379 Q1930.94 231.402 1927.56 233.994 Q1924.21 236.587 1917.7 236.587 Q1915.25 236.587 1912.47 236.031 Q1909.72 235.476 1906.75 234.388 L1906.75 229.573 Q1909.6 231.17 1912.33 231.981 Q1915.06 232.791 1917.7 232.791 Q1921.71 232.791 1923.88 231.217 Q1926.06 229.643 1926.06 226.726 Q1926.06 224.18 1924.48 222.744 Q1922.93 221.309 1919.37 220.592 L1916.52 220.036 Q1911.29 218.995 1908.95 216.772 Q1906.61 214.55 1906.61 210.592 Q1906.61 206.008 1909.83 203.37 Q1913.07 200.731 1918.74 200.731 Q1921.17 200.731 1923.7 201.171 Q1926.22 201.61 1928.86 202.49 Z" fill="#000000" fill-rule="nonzero" fill-opacity="1" /><path clip-path="url(#clip480)" d="M1949.83 222.883 Q1944.67 222.883 1942.68 224.064 Q1940.69 225.244 1940.69 228.092 Q1940.69 230.36 1942.17 231.703 Q1943.67 233.022 1946.24 233.022 Q1949.78 233.022 1951.91 230.522 Q1954.07 227.999 1954.07 223.832 L1954.07 222.883 L1949.83 222.883 M1958.33 221.124 L1958.33 235.916 L1954.07 235.916 L1954.07 231.981 Q1952.61 234.342 1950.43 235.476 Q1948.26 236.587 1945.11 236.587 Q1941.13 236.587 1938.77 234.365 Q1936.43 232.119 1936.43 228.369 Q1936.43 223.994 1939.34 221.772 Q1942.28 219.55 1948.09 219.55 L1954.07 219.55 L1954.07 219.133 Q1954.07 216.194 1952.12 214.596 Q1950.2 212.976 1946.71 212.976 Q1944.48 212.976 1942.38 213.508 Q1940.27 214.041 1938.33 215.106 L1938.33 211.17 Q1940.66 210.268 1942.86 209.828 Q1945.06 209.365 1947.15 209.365 Q1952.77 209.365 1955.55 212.282 Q1958.33 215.198 1958.33 221.124 Z" fill="#000000" fill-rule="nonzero" fill-opacity="1" /><path clip-path="url(#clip480)" d="M1982.12 213.971 Q1981.4 213.555 1980.55 213.37 Q1979.71 213.161 1978.7 213.161 Q1975.09 213.161 1973.14 215.522 Q1971.22 217.86 1971.22 222.258 L1971.22 235.916 L1966.94 235.916 L1966.94 209.99 L1971.22 209.99 L1971.22 214.018 Q1972.56 211.657 1974.71 210.522 Q1976.87 209.365 1979.95 209.365 Q1980.39 209.365 1980.92 209.434 Q1981.45 209.481 1982.1 209.596 L1982.12 213.971 Z" fill="#000000" fill-rule="nonzero" fill-opacity="1" /><path clip-path="url(#clip480)" d="M2004.21 210.985 L2004.21 214.967 Q2002.4 213.971 2000.57 213.485 Q1998.77 212.976 1996.91 212.976 Q1992.77 212.976 1990.48 215.615 Q1988.19 218.231 1988.19 222.976 Q1988.19 227.721 1990.48 230.36 Q1992.77 232.976 1996.91 232.976 Q1998.77 232.976 2000.57 232.49 Q2002.4 231.981 2004.21 230.985 L2004.21 234.92 Q2002.42 235.754 2000.5 236.17 Q1998.6 236.587 1996.45 236.587 Q1990.59 236.587 1987.15 232.906 Q1983.7 229.226 1983.7 222.976 Q1983.7 216.633 1987.17 212.999 Q1990.66 209.365 1996.73 209.365 Q1998.7 209.365 2000.57 209.782 Q2002.45 210.175 2004.21 210.985 Z" fill="#000000" fill-rule="nonzero" fill-opacity="1" /><path clip-path="url(#clip480)" d="M2021.66 212.976 Q2018.23 212.976 2016.24 215.661 Q2014.25 218.323 2014.25 222.976 Q2014.25 227.629 2016.22 230.314 Q2018.21 232.976 2021.66 232.976 Q2025.06 232.976 2027.05 230.291 Q2029.04 227.606 2029.04 222.976 Q2029.04 218.37 2027.05 215.684 Q2025.06 212.976 2021.66 212.976 M2021.66 209.365 Q2027.21 209.365 2030.39 212.976 Q2033.56 216.587 2033.56 222.976 Q2033.56 229.342 2030.39 232.976 Q2027.21 236.587 2021.66 236.587 Q2016.08 236.587 2012.91 232.976 Q2009.76 229.342 2009.76 222.976 Q2009.76 216.587 2012.91 212.976 Q2016.08 209.365 2021.66 209.365 Z" fill="#000000" fill-rule="nonzero" fill-opacity="1" /><path clip-path="url(#clip480)" d="M2060.8 214.967 Q2062.4 212.096 2064.62 210.731 Q2066.84 209.365 2069.85 209.365 Q2073.9 209.365 2076.1 212.212 Q2078.3 215.036 2078.3 220.268 L2078.3 235.916 L2074.02 235.916 L2074.02 220.407 Q2074.02 216.68 2072.7 214.874 Q2071.38 213.069 2068.67 213.069 Q2065.36 213.069 2063.44 215.268 Q2061.52 217.467 2061.52 221.263 L2061.52 235.916 L2057.24 235.916 L2057.24 220.407 Q2057.24 216.657 2055.92 214.874 Q2054.6 213.069 2051.84 213.069 Q2048.58 213.069 2046.66 215.291 Q2044.74 217.49 2044.74 221.263 L2044.74 235.916 L2040.46 235.916 L2040.46 209.99 L2044.74 209.99 L2044.74 214.018 Q2046.2 211.633 2048.23 210.499 Q2050.27 209.365 2053.07 209.365 Q2055.9 209.365 2057.86 210.8 Q2059.85 212.235 2060.8 214.967 Z" fill="#000000" fill-rule="nonzero" fill-opacity="1" /><path clip-path="url(#clip480)" d="M2108.97 221.888 L2108.97 223.971 L2089.39 223.971 Q2089.67 228.369 2092.03 230.684 Q2094.41 232.976 2098.65 232.976 Q2101.1 232.976 2103.39 232.374 Q2105.71 231.772 2107.98 230.569 L2107.98 234.596 Q2105.69 235.568 2103.28 236.078 Q2100.87 236.587 2098.39 236.587 Q2092.19 236.587 2088.56 232.976 Q2084.95 229.365 2084.95 223.207 Q2084.95 216.842 2088.37 213.115 Q2091.82 209.365 2097.65 209.365 Q2102.89 209.365 2105.92 212.745 Q2108.97 216.101 2108.97 221.888 M2104.71 220.638 Q2104.67 217.143 2102.75 215.059 Q2100.85 212.976 2097.7 212.976 Q2094.14 212.976 2091.98 214.99 Q2089.85 217.004 2089.53 220.661 L2104.71 220.638 Z" fill="#000000" fill-rule="nonzero" fill-opacity="1" /><path clip-path="url(#clip480)" d="M2130.99 213.971 Q2130.27 213.555 2129.41 213.37 Q2128.58 213.161 2127.56 213.161 Q2123.95 213.161 2122.01 215.522 Q2120.08 217.86 2120.08 222.258 L2120.08 235.916 L2115.8 235.916 L2115.8 209.99 L2120.08 209.99 L2120.08 214.018 Q2121.43 211.657 2123.58 210.522 Q2125.73 209.365 2128.81 209.365 Q2129.25 209.365 2129.78 209.434 Q2130.32 209.481 2130.96 209.596 L2130.99 213.971 Z" fill="#000000" fill-rule="nonzero" fill-opacity="1" /><path clip-path="url(#clip480)" d="M2156.59 221.888 L2156.59 223.971 L2137.01 223.971 Q2137.28 228.369 2139.64 230.684 Q2142.03 232.976 2146.26 232.976 Q2148.72 232.976 2151.01 232.374 Q2153.33 231.772 2155.59 230.569 L2155.59 234.596 Q2153.3 235.568 2150.89 236.078 Q2148.49 236.587 2146.01 236.587 Q2139.81 236.587 2136.17 232.976 Q2132.56 229.365 2132.56 223.207 Q2132.56 216.842 2135.99 213.115 Q2139.44 209.365 2145.27 209.365 Q2150.5 209.365 2153.53 212.745 Q2156.59 216.101 2156.59 221.888 M2152.33 220.638 Q2152.28 217.143 2150.36 215.059 Q2148.46 212.976 2145.32 212.976 Q2141.75 212.976 2139.6 214.99 Q2137.47 217.004 2137.14 220.661 L2152.33 220.638 Z" fill="#000000" fill-rule="nonzero" fill-opacity="1" /><polyline clip-path="url(#clip480)" style="stroke:#e26f46; stroke-linecap:round; stroke-linejoin:round; stroke-width:8; stroke-opacity:1; fill:none" points="1737.27,270.476 1882.42,270.476 "/>
<path clip-path="url(#clip480)" d="M1934.48 255.858 L1934.48 260.788 Q1932.12 258.589 1929.44 257.501 Q1926.78 256.413 1923.77 256.413 Q1917.84 256.413 1914.69 260.048 Q1911.54 263.659 1911.54 270.51 Q1911.54 277.339 1914.69 280.973 Q1917.84 284.584 1923.77 284.584 Q1926.78 284.584 1929.44 283.496 Q1932.12 282.409 1934.48 280.209 L1934.48 285.094 Q1932.03 286.76 1929.28 287.594 Q1926.54 288.427 1923.49 288.427 Q1915.64 288.427 1911.13 283.635 Q1906.61 278.821 1906.61 270.51 Q1906.61 262.177 1911.13 257.386 Q1915.64 252.571 1923.49 252.571 Q1926.59 252.571 1929.32 253.404 Q1932.08 254.214 1934.48 255.858 Z" fill="#000000" fill-rule="nonzero" fill-opacity="1" /><path clip-path="url(#clip480)" d="M1952.31 290.163 Q1950.5 294.793 1948.79 296.205 Q1947.08 297.617 1944.21 297.617 L1940.8 297.617 L1940.8 294.052 L1943.3 294.052 Q1945.06 294.052 1946.03 293.219 Q1947.01 292.385 1948.19 289.283 L1948.95 287.339 L1938.47 261.83 L1942.98 261.83 L1951.08 282.108 L1959.18 261.83 L1963.7 261.83 L1952.31 290.163 Z" fill="#000000" fill-rule="nonzero" fill-opacity="1" /><path clip-path="url(#clip480)" d="M1973.79 254.469 L1973.79 261.83 L1982.56 261.83 L1982.56 265.14 L1973.79 265.14 L1973.79 279.214 Q1973.79 282.385 1974.65 283.288 Q1975.53 284.191 1978.19 284.191 L1982.56 284.191 L1982.56 287.756 L1978.19 287.756 Q1973.26 287.756 1971.38 285.927 Q1969.51 284.075 1969.51 279.214 L1969.51 265.14 L1966.38 265.14 L1966.38 261.83 L1969.51 261.83 L1969.51 254.469 L1973.79 254.469 Z" fill="#000000" fill-rule="nonzero" fill-opacity="1" /><path clip-path="url(#clip480)" d="M1998.21 264.816 Q1994.78 264.816 1992.79 267.501 Q1990.8 270.163 1990.8 274.816 Q1990.8 279.469 1992.77 282.154 Q1994.76 284.816 1998.21 284.816 Q2001.61 284.816 2003.6 282.131 Q2005.59 279.446 2005.59 274.816 Q2005.59 270.21 2003.6 267.524 Q2001.61 264.816 1998.21 264.816 M1998.21 261.205 Q2003.77 261.205 2006.94 264.816 Q2010.11 268.427 2010.11 274.816 Q2010.11 281.182 2006.94 284.816 Q2003.77 288.427 1998.21 288.427 Q1992.63 288.427 1989.46 284.816 Q1986.31 281.182 1986.31 274.816 Q1986.31 268.427 1989.46 264.816 Q1992.63 261.205 1998.21 261.205 Z" fill="#000000" fill-rule="nonzero" fill-opacity="1" /><path clip-path="url(#clip480)" d="M2033.7 262.594 L2033.7 266.622 Q2031.89 265.696 2029.95 265.233 Q2028 264.77 2025.92 264.77 Q2022.75 264.77 2021.15 265.742 Q2019.58 266.714 2019.58 268.659 Q2019.58 270.14 2020.71 270.997 Q2021.84 271.83 2025.27 272.594 L2026.73 272.918 Q2031.27 273.89 2033.16 275.672 Q2035.08 277.432 2035.08 280.603 Q2035.08 284.214 2032.21 286.321 Q2029.37 288.427 2024.37 288.427 Q2022.28 288.427 2020.02 288.01 Q2017.77 287.617 2015.27 286.807 L2015.27 282.409 Q2017.63 283.635 2019.92 284.26 Q2022.21 284.862 2024.46 284.862 Q2027.47 284.862 2029.09 283.844 Q2030.71 282.802 2030.71 280.927 Q2030.71 279.191 2029.53 278.265 Q2028.37 277.339 2024.41 276.483 L2022.93 276.135 Q2018.97 275.302 2017.21 273.589 Q2015.46 271.853 2015.46 268.844 Q2015.46 265.186 2018.05 263.196 Q2020.64 261.205 2025.41 261.205 Q2027.77 261.205 2029.85 261.552 Q2031.94 261.899 2033.7 262.594 Z" fill="#000000" fill-rule="nonzero" fill-opacity="1" /><path clip-path="url(#clip480)" d="M2051.91 264.816 Q2048.49 264.816 2046.5 267.501 Q2044.51 270.163 2044.51 274.816 Q2044.51 279.469 2046.47 282.154 Q2048.46 284.816 2051.91 284.816 Q2055.32 284.816 2057.31 282.131 Q2059.3 279.446 2059.3 274.816 Q2059.3 270.21 2057.31 267.524 Q2055.32 264.816 2051.91 264.816 M2051.91 261.205 Q2057.47 261.205 2060.64 264.816 Q2063.81 268.427 2063.81 274.816 Q2063.81 281.182 2060.64 284.816 Q2057.47 288.427 2051.91 288.427 Q2046.33 288.427 2043.16 284.816 Q2040.02 281.182 2040.02 274.816 Q2040.02 268.427 2043.16 264.816 Q2046.33 261.205 2051.91 261.205 Z" fill="#000000" fill-rule="nonzero" fill-opacity="1" /><path clip-path="url(#clip480)" d="M2070.87 251.737 L2075.13 251.737 L2075.13 287.756 L2070.87 287.756 L2070.87 251.737 Z" fill="#000000" fill-rule="nonzero" fill-opacity="1" /><polyline clip-path="url(#clip480)" style="stroke:#3da44d; stroke-linecap:round; stroke-linejoin:round; stroke-width:8; stroke-opacity:1; fill:none" points="1737.27,322.316 1882.42,322.316 "/>
<path clip-path="url(#clip480)" d="M1911.29 323.091 L1911.29 335.753 L1918.79 335.753 Q1922.56 335.753 1924.37 334.202 Q1926.2 332.628 1926.2 329.411 Q1926.2 326.17 1924.37 324.642 Q1922.56 323.091 1918.79 323.091 L1911.29 323.091 M1911.29 308.878 L1911.29 319.295 L1918.21 319.295 Q1921.64 319.295 1923.3 318.022 Q1924.99 316.725 1924.99 314.087 Q1924.99 311.471 1923.3 310.175 Q1921.64 308.878 1918.21 308.878 L1911.29 308.878 M1906.61 305.036 L1918.56 305.036 Q1923.9 305.036 1926.8 307.258 Q1929.69 309.48 1929.69 313.577 Q1929.69 316.749 1928.21 318.624 Q1926.73 320.499 1923.86 320.962 Q1927.31 321.702 1929.21 324.063 Q1931.13 326.401 1931.13 329.92 Q1931.13 334.549 1927.98 337.073 Q1924.83 339.596 1919.02 339.596 L1906.61 339.596 L1906.61 305.036 Z" fill="#000000" fill-rule="nonzero" fill-opacity="1" /><path clip-path="url(#clip480)" d="M1938.95 303.577 L1943.21 303.577 L1943.21 339.596 L1938.95 339.596 L1938.95 303.577 Z" fill="#000000" fill-rule="nonzero" fill-opacity="1" /><path clip-path="url(#clip480)" d="M1962.17 316.656 Q1958.74 316.656 1956.75 319.341 Q1954.76 322.003 1954.76 326.656 Q1954.76 331.309 1956.73 333.994 Q1958.72 336.656 1962.17 336.656 Q1965.57 336.656 1967.56 333.971 Q1969.55 331.286 1969.55 326.656 Q1969.55 322.05 1967.56 319.364 Q1965.57 316.656 1962.17 316.656 M1962.17 313.045 Q1967.72 313.045 1970.9 316.656 Q1974.07 320.267 1974.07 326.656 Q1974.07 333.022 1970.9 336.656 Q1967.72 340.267 1962.17 340.267 Q1956.59 340.267 1953.42 336.656 Q1950.27 333.022 1950.27 326.656 Q1950.27 320.267 1953.42 316.656 Q1956.59 313.045 1962.17 313.045 Z" fill="#000000" fill-rule="nonzero" fill-opacity="1" /><path clip-path="url(#clip480)" d="M1991.17 316.656 Q1987.75 316.656 1985.76 319.341 Q1983.77 322.003 1983.77 326.656 Q1983.77 331.309 1985.73 333.994 Q1987.72 336.656 1991.17 336.656 Q1994.58 336.656 1996.57 333.971 Q1998.56 331.286 1998.56 326.656 Q1998.56 322.05 1996.57 319.364 Q1994.58 316.656 1991.17 316.656 M1991.17 313.045 Q1996.73 313.045 1999.9 316.656 Q2003.07 320.267 2003.07 326.656 Q2003.07 333.022 1999.9 336.656 Q1996.73 340.267 1991.17 340.267 Q1985.59 340.267 1982.42 336.656 Q1979.28 333.022 1979.28 326.656 Q1979.28 320.267 1982.42 316.656 Q1985.59 313.045 1991.17 313.045 Z" fill="#000000" fill-rule="nonzero" fill-opacity="1" /><path clip-path="url(#clip480)" d="M2027.19 317.605 L2027.19 303.577 L2031.45 303.577 L2031.45 339.596 L2027.19 339.596 L2027.19 335.707 Q2025.85 338.022 2023.79 339.156 Q2021.75 340.267 2018.88 340.267 Q2014.18 340.267 2011.22 336.517 Q2008.28 332.767 2008.28 326.656 Q2008.28 320.545 2011.22 316.795 Q2014.18 313.045 2018.88 313.045 Q2021.75 313.045 2023.79 314.179 Q2025.85 315.29 2027.19 317.605 M2012.68 326.656 Q2012.68 331.355 2014.6 334.04 Q2016.54 336.702 2019.92 336.702 Q2023.3 336.702 2025.25 334.04 Q2027.19 331.355 2027.19 326.656 Q2027.19 321.957 2025.25 319.295 Q2023.3 316.61 2019.92 316.61 Q2016.54 316.61 2014.6 319.295 Q2012.68 321.957 2012.68 326.656 Z" fill="#000000" fill-rule="nonzero" fill-opacity="1" /><circle clip-path="url(#clip480)" cx="1809.84" cy="374.156" r="20.9455" fill="#c271d2" fill-rule="evenodd" fill-opacity="1" stroke="#000000" stroke-opacity="1" stroke-width="3.72364"/>
<path clip-path="url(#clip480)" d="M1922.63 360.047 Q1917.54 360.047 1914.53 363.843 Q1911.54 367.64 1911.54 374.19 Q1911.54 380.718 1914.53 384.514 Q1917.54 388.311 1922.63 388.311 Q1927.72 388.311 1930.69 384.514 Q1933.67 380.718 1933.67 374.19 Q1933.67 367.64 1930.69 363.843 Q1927.72 360.047 1922.63 360.047 M1922.63 356.251 Q1929.9 356.251 1934.25 361.135 Q1938.6 365.996 1938.6 374.19 Q1938.6 382.362 1934.25 387.246 Q1929.9 392.107 1922.63 392.107 Q1915.34 392.107 1910.97 387.246 Q1906.61 382.385 1906.61 374.19 Q1906.61 365.996 1910.97 361.135 Q1915.34 356.251 1922.63 356.251 Z" fill="#000000" fill-rule="nonzero" fill-opacity="1" /><path clip-path="url(#clip480)" d="M1964.34 378.496 Q1964.34 373.797 1962.4 371.135 Q1960.48 368.45 1957.1 368.45 Q1953.72 368.45 1951.78 371.135 Q1949.85 373.797 1949.85 378.496 Q1949.85 383.195 1951.78 385.88 Q1953.72 388.542 1957.1 388.542 Q1960.48 388.542 1962.4 385.88 Q1964.34 383.195 1964.34 378.496 M1949.85 369.445 Q1951.2 367.13 1953.23 366.019 Q1955.29 364.885 1958.14 364.885 Q1962.86 364.885 1965.8 368.635 Q1968.77 372.385 1968.77 378.496 Q1968.77 384.607 1965.8 388.357 Q1962.86 392.107 1958.14 392.107 Q1955.29 392.107 1953.23 390.996 Q1951.2 389.862 1949.85 387.547 L1949.85 391.436 L1945.57 391.436 L1945.57 355.417 L1949.85 355.417 L1949.85 369.445 Z" fill="#000000" fill-rule="nonzero" fill-opacity="1" /><path clip-path="url(#clip480)" d="M1992.35 366.274 L1992.35 370.302 Q1990.55 369.376 1988.6 368.913 Q1986.66 368.45 1984.58 368.45 Q1981.4 368.45 1979.81 369.422 Q1978.23 370.394 1978.23 372.339 Q1978.23 373.82 1979.37 374.677 Q1980.5 375.51 1983.93 376.274 L1985.39 376.598 Q1989.92 377.57 1991.82 379.352 Q1993.74 381.112 1993.74 384.283 Q1993.74 387.894 1990.87 390.001 Q1988.03 392.107 1983.03 392.107 Q1980.94 392.107 1978.67 391.69 Q1976.43 391.297 1973.93 390.487 L1973.93 386.089 Q1976.29 387.315 1978.58 387.94 Q1980.87 388.542 1983.12 388.542 Q1986.13 388.542 1987.75 387.524 Q1989.37 386.482 1989.37 384.607 Q1989.37 382.871 1988.19 381.945 Q1987.03 381.019 1983.07 380.163 L1981.59 379.815 Q1977.63 378.982 1975.87 377.269 Q1974.11 375.533 1974.11 372.524 Q1974.11 368.866 1976.71 366.876 Q1979.3 364.885 1984.07 364.885 Q1986.43 364.885 1988.51 365.232 Q1990.59 365.579 1992.35 366.274 Z" fill="#000000" fill-rule="nonzero" fill-opacity="1" /><path clip-path="url(#clip480)" d="M2022.7 377.408 L2022.7 379.491 L2003.12 379.491 Q2003.4 383.889 2005.76 386.204 Q2008.14 388.496 2012.38 388.496 Q2014.83 388.496 2017.12 387.894 Q2019.44 387.292 2021.71 386.089 L2021.71 390.116 Q2019.41 391.088 2017.01 391.598 Q2014.6 392.107 2012.12 392.107 Q2005.92 392.107 2002.28 388.496 Q1998.67 384.885 1998.67 378.727 Q1998.67 372.362 2002.1 368.635 Q2005.55 364.885 2011.38 364.885 Q2016.61 364.885 2019.65 368.265 Q2022.7 371.621 2022.7 377.408 M2018.44 376.158 Q2018.4 372.663 2016.47 370.579 Q2014.58 368.496 2011.43 368.496 Q2007.86 368.496 2005.71 370.51 Q2003.58 372.524 2003.26 376.181 L2018.44 376.158 Z" fill="#000000" fill-rule="nonzero" fill-opacity="1" /><path clip-path="url(#clip480)" d="M2044.71 369.491 Q2044 369.075 2043.14 368.89 Q2042.31 368.681 2041.29 368.681 Q2037.68 368.681 2035.73 371.042 Q2033.81 373.38 2033.81 377.778 L2033.81 391.436 L2029.53 391.436 L2029.53 365.51 L2033.81 365.51 L2033.81 369.538 Q2035.15 367.177 2037.31 366.042 Q2039.46 364.885 2042.54 364.885 Q2042.98 364.885 2043.51 364.954 Q2044.04 365.001 2044.69 365.116 L2044.71 369.491 Z" fill="#000000" fill-rule="nonzero" fill-opacity="1" /><path clip-path="url(#clip480)" d="M2046.13 365.51 L2050.64 365.51 L2058.74 387.269 L2066.84 365.51 L2071.36 365.51 L2061.64 391.436 L2055.85 391.436 L2046.13 365.51 Z" fill="#000000" fill-rule="nonzero" fill-opacity="1" /><path clip-path="url(#clip480)" d="M2099.41 377.408 L2099.41 379.491 L2079.83 379.491 Q2080.11 383.889 2082.47 386.204 Q2084.85 388.496 2089.09 388.496 Q2091.54 388.496 2093.83 387.894 Q2096.15 387.292 2098.42 386.089 L2098.42 390.116 Q2096.13 391.088 2093.72 391.598 Q2091.31 392.107 2088.83 392.107 Q2082.63 392.107 2079 388.496 Q2075.39 384.885 2075.39 378.727 Q2075.39 372.362 2078.81 368.635 Q2082.26 364.885 2088.09 364.885 Q2093.33 364.885 2096.36 368.265 Q2099.41 371.621 2099.41 377.408 M2095.15 376.158 Q2095.11 372.663 2093.19 370.579 Q2091.29 368.496 2088.14 368.496 Q2084.58 368.496 2082.42 370.51 Q2080.29 372.524 2079.97 376.181 L2095.15 376.158 Z" fill="#000000" fill-rule="nonzero" fill-opacity="1" /><path clip-path="url(#clip480)" d="M2123.46 369.445 L2123.46 355.417 L2127.72 355.417 L2127.72 391.436 L2123.46 391.436 L2123.46 387.547 Q2122.12 389.862 2120.06 390.996 Q2118.02 392.107 2115.15 392.107 Q2110.45 392.107 2107.49 388.357 Q2104.55 384.607 2104.55 378.496 Q2104.55 372.385 2107.49 368.635 Q2110.45 364.885 2115.15 364.885 Q2118.02 364.885 2120.06 366.019 Q2122.12 367.13 2123.46 369.445 M2108.95 378.496 Q2108.95 383.195 2110.87 385.88 Q2112.82 388.542 2116.2 388.542 Q2119.58 388.542 2121.52 385.88 Q2123.46 383.195 2123.46 378.496 Q2123.46 373.797 2121.52 371.135 Q2119.58 368.45 2116.2 368.45 Q2112.82 368.45 2110.87 371.135 Q2108.95 373.797 2108.95 378.496 Z" fill="#000000" fill-rule="nonzero" fill-opacity="1" /><path clip-path="url(#clip480)" d="M2156.43 360.718 L2156.43 387.593 L2162.08 387.593 Q2169.23 387.593 2172.54 384.352 Q2175.87 381.112 2175.87 374.121 Q2175.87 367.177 2172.54 363.959 Q2169.23 360.718 2162.08 360.718 L2156.43 360.718 M2151.75 356.876 L2161.36 356.876 Q2171.4 356.876 2176.1 361.066 Q2180.8 365.232 2180.8 374.121 Q2180.8 383.056 2176.08 387.246 Q2171.36 391.436 2161.36 391.436 L2151.75 391.436 L2151.75 356.876 Z" fill="#000000" fill-rule="nonzero" fill-opacity="1" /><path clip-path="url(#clip480)" d="M2199.85 378.403 Q2194.69 378.403 2192.7 379.584 Q2190.71 380.764 2190.71 383.612 Q2190.71 385.88 2192.19 387.223 Q2193.7 388.542 2196.26 388.542 Q2199.81 388.542 2201.94 386.042 Q2204.09 383.519 2204.09 379.352 L2204.09 378.403 L2199.85 378.403 M2208.35 376.644 L2208.35 391.436 L2204.09 391.436 L2204.09 387.501 Q2202.63 389.862 2200.45 390.996 Q2198.28 392.107 2195.13 392.107 Q2191.15 392.107 2188.79 389.885 Q2186.45 387.639 2186.45 383.889 Q2186.45 379.514 2189.37 377.292 Q2192.31 375.07 2198.12 375.07 L2204.09 375.07 L2204.09 374.653 Q2204.09 371.714 2202.14 370.116 Q2200.22 368.496 2196.73 368.496 Q2194.51 368.496 2192.4 369.028 Q2190.29 369.561 2188.35 370.626 L2188.35 366.69 Q2190.69 365.788 2192.89 365.348 Q2195.08 364.885 2197.17 364.885 Q2202.79 364.885 2205.57 367.802 Q2208.35 370.718 2208.35 376.644 Z" fill="#000000" fill-rule="nonzero" fill-opacity="1" /><path clip-path="url(#clip480)" d="M2221.33 358.149 L2221.33 365.51 L2230.11 365.51 L2230.11 368.82 L2221.33 368.82 L2221.33 382.894 Q2221.33 386.065 2222.19 386.968 Q2223.07 387.871 2225.73 387.871 L2230.11 387.871 L2230.11 391.436 L2225.73 391.436 Q2220.8 391.436 2218.93 389.607 Q2217.05 387.755 2217.05 382.894 L2217.05 368.82 L2213.93 368.82 L2213.93 365.51 L2217.05 365.51 L2217.05 358.149 L2221.33 358.149 Z" fill="#000000" fill-rule="nonzero" fill-opacity="1" /><path clip-path="url(#clip480)" d="M2247.49 378.403 Q2242.33 378.403 2240.34 379.584 Q2238.35 380.764 2238.35 383.612 Q2238.35 385.88 2239.83 387.223 Q2241.33 388.542 2243.9 388.542 Q2247.44 388.542 2249.57 386.042 Q2251.73 383.519 2251.73 379.352 L2251.73 378.403 L2247.49 378.403 M2255.99 376.644 L2255.99 391.436 L2251.73 391.436 L2251.73 387.501 Q2250.27 389.862 2248.09 390.996 Q2245.92 392.107 2242.77 392.107 Q2238.79 392.107 2236.43 389.885 Q2234.09 387.639 2234.09 383.889 Q2234.09 379.514 2237.01 377.292 Q2239.94 375.07 2245.76 375.07 L2251.73 375.07 L2251.73 374.653 Q2251.73 371.714 2249.78 370.116 Q2247.86 368.496 2244.37 368.496 Q2242.14 368.496 2240.04 369.028 Q2237.93 369.561 2235.99 370.626 L2235.99 366.69 Q2238.32 365.788 2240.52 365.348 Q2242.72 364.885 2244.81 364.885 Q2250.43 364.885 2253.21 367.802 Q2255.99 370.718 2255.99 376.644 Z" fill="#000000" fill-rule="nonzero" fill-opacity="1" /></svg>
