<?xml version="1.0" encoding="utf-8"?>
<svg xmlns="http://www.w3.org/2000/svg" xmlns:xlink="http://www.w3.org/1999/xlink" width="600" height="400" viewBox="0 0 2400 1600">
<defs>
  <clipPath id="clip370">
    <rect x="0" y="0" width="2400" height="1600"/>
  </clipPath>
</defs>
<path clip-path="url(#clip370)" d="M0 1600 L2400 1600 L2400 0 L0 0  Z" fill="#ffffff" fill-rule="evenodd" fill-opacity="1"/>
<defs>
  <clipPath id="clip371">
    <rect x="219" y="123" width="2134" height="1301"/>
  </clipPath>
</defs>
<path clip-path="url(#clip370)" d="M249.542 1423.18 L2352.76 1423.18 L2352.76 123.472 L249.542 123.472  Z" fill="#ffffff" fill-rule="evenodd" fill-opacity="1"/>
<defs>
  <clipPath id="clip372">
    <rect x="249" y="123" width="2104" height="1301"/>
  </clipPath>
</defs>
<polyline clip-path="url(#clip372)" style="stroke:#000000; stroke-linecap:round; stroke-linejoin:round; stroke-width:2; stroke-opacity:0.1; fill:none" points="249.542,1423.18 249.542,123.472 "/>
<polyline clip-path="url(#clip372)" style="stroke:#000000; stroke-linecap:round; stroke-linejoin:round; stroke-width:2; stroke-opacity:0.1; fill:none" points="741.714,1423.18 741.714,123.472 "/>
<polyline clip-path="url(#clip372)" style="stroke:#000000; stroke-linecap:round; stroke-linejoin:round; stroke-width:2; stroke-opacity:0.1; fill:none" points="1233.89,1423.18 1233.89,123.472 "/>
<polyline clip-path="url(#clip372)" style="stroke:#000000; stroke-linecap:round; stroke-linejoin:round; stroke-width:2; stroke-opacity:0.1; fill:none" points="1726.06,1423.18 1726.06,123.472 "/>
<polyline clip-path="url(#clip372)" style="stroke:#000000; stroke-linecap:round; stroke-linejoin:round; stroke-width:2; stroke-opacity:0.1; fill:none" points="2218.23,1423.18 2218.23,123.472 "/>
<polyline clip-path="url(#clip372)" style="stroke:#000000; stroke-linecap:round; stroke-linejoin:round; stroke-width:2; stroke-opacity:0.1; fill:none" points="249.542,1386.4 2352.76,1386.4 "/>
<polyline clip-path="url(#clip372)" style="stroke:#000000; stroke-linecap:round; stroke-linejoin:round; stroke-width:2; stroke-opacity:0.1; fill:none" points="249.542,1141.17 2352.76,1141.17 "/>
<polyline clip-path="url(#clip372)" style="stroke:#000000; stroke-linecap:round; stroke-linejoin:round; stroke-width:2; stroke-opacity:0.1; fill:none" points="249.542,895.94 2352.76,895.94 "/>
<polyline clip-path="url(#clip372)" style="stroke:#000000; stroke-linecap:round; stroke-linejoin:round; stroke-width:2; stroke-opacity:0.1; fill:none" points="249.542,650.712 2352.76,650.712 "/>
<polyline clip-path="url(#clip372)" style="stroke:#000000; stroke-linecap:round; stroke-linejoin:round; stroke-width:2; stroke-opacity:0.1; fill:none" points="249.542,405.484 2352.76,405.484 "/>
<polyline clip-path="url(#clip372)" style="stroke:#000000; stroke-linecap:round; stroke-linejoin:round; stroke-width:2; stroke-opacity:0.1; fill:none" points="249.542,160.256 2352.76,160.256 "/>
<polyline clip-path="url(#clip370)" style="stroke:#000000; stroke-linecap:round; stroke-linejoin:round; stroke-width:4; stroke-opacity:1; fill:none" points="249.542,1423.18 2352.76,1423.18 "/>
<polyline clip-path="url(#clip370)" style="stroke:#000000; stroke-linecap:round; stroke-linejoin:round; stroke-width:4; stroke-opacity:1; fill:none" points="249.542,1423.18 249.542,1404.28 "/>
<polyline clip-path="url(#clip370)" style="stroke:#000000; stroke-linecap:round; stroke-linejoin:round; stroke-width:4; stroke-opacity:1; fill:none" points="741.714,1423.18 741.714,1404.28 "/>
<polyline clip-path="url(#clip370)" style="stroke:#000000; stroke-linecap:round; stroke-linejoin:round; stroke-width:4; stroke-opacity:1; fill:none" points="1233.89,1423.18 1233.89,1404.28 "/>
<polyline clip-path="url(#clip370)" style="stroke:#000000; stroke-linecap:round; stroke-linejoin:round; stroke-width:4; stroke-opacity:1; fill:none" points="1726.06,1423.18 1726.06,1404.28 "/>
<polyline clip-path="url(#clip370)" style="stroke:#000000; stroke-linecap:round; stroke-linejoin:round; stroke-width:4; stroke-opacity:1; fill:none" points="2218.23,1423.18 2218.23,1404.28 "/>
<path clip-path="url(#clip370)" d="M249.542 1454.1 Q245.931 1454.1 244.102 1457.66 Q242.297 1461.2 242.297 1468.33 Q242.297 1475.44 244.102 1479.01 Q245.931 1482.55 249.542 1482.55 Q253.176 1482.55 254.982 1479.01 Q256.811 1475.44 256.811 1468.33 Q256.811 1461.2 254.982 1457.66 Q253.176 1454.1 249.542 1454.1 M249.542 1450.39 Q255.352 1450.39 258.408 1455 Q261.486 1459.58 261.486 1468.33 Q261.486 1477.06 258.408 1481.67 Q255.352 1486.25 249.542 1486.25 Q243.732 1486.25 240.653 1481.67 Q237.598 1477.06 237.598 1468.33 Q237.598 1459.58 240.653 1455 Q243.732 1450.39 249.542 1450.39 Z" fill="#000000" fill-rule="nonzero" fill-opacity="1" /><path clip-path="url(#clip370)" d="M720.487 1481.64 L736.806 1481.64 L736.806 1485.58 L714.862 1485.58 L714.862 1481.64 Q717.524 1478.89 722.107 1474.26 Q726.714 1469.61 727.894 1468.27 Q730.14 1465.74 731.019 1464.01 Q731.922 1462.25 731.922 1460.56 Q731.922 1457.8 729.978 1456.07 Q728.056 1454.33 724.955 1454.33 Q722.756 1454.33 720.302 1455.09 Q717.871 1455.86 715.094 1457.41 L715.094 1452.69 Q717.918 1451.55 720.371 1450.97 Q722.825 1450.39 724.862 1450.39 Q730.232 1450.39 733.427 1453.08 Q736.621 1455.77 736.621 1460.26 Q736.621 1462.39 735.811 1464.31 Q735.024 1466.2 732.918 1468.8 Q732.339 1469.47 729.237 1472.69 Q726.135 1475.88 720.487 1481.64 Z" fill="#000000" fill-rule="nonzero" fill-opacity="1" /><path clip-path="url(#clip370)" d="M756.621 1454.1 Q753.01 1454.1 751.181 1457.66 Q749.376 1461.2 749.376 1468.33 Q749.376 1475.44 751.181 1479.01 Q753.01 1482.55 756.621 1482.55 Q760.255 1482.55 762.061 1479.01 Q763.89 1475.44 763.89 1468.33 Q763.89 1461.2 762.061 1457.66 Q760.255 1454.1 756.621 1454.1 M756.621 1450.39 Q762.431 1450.39 765.487 1455 Q768.565 1459.58 768.565 1468.33 Q768.565 1477.06 765.487 1481.67 Q762.431 1486.25 756.621 1486.25 Q750.811 1486.25 747.732 1481.67 Q744.677 1477.06 744.677 1468.33 Q744.677 1459.58 747.732 1455 Q750.811 1450.39 756.621 1450.39 Z" fill="#000000" fill-rule="nonzero" fill-opacity="1" /><path clip-path="url(#clip370)" d="M1222.06 1455.09 L1210.25 1473.54 L1222.06 1473.54 L1222.06 1455.09 M1220.83 1451.02 L1226.71 1451.02 L1226.71 1473.54 L1231.64 1473.54 L1231.64 1477.43 L1226.71 1477.43 L1226.71 1485.58 L1222.06 1485.58 L1222.06 1477.43 L1206.46 1477.43 L1206.46 1472.92 L1220.83 1451.02 Z" fill="#000000" fill-rule="nonzero" fill-opacity="1" /><path clip-path="url(#clip370)" d="M1249.37 1454.1 Q1245.76 1454.1 1243.93 1457.66 Q1242.13 1461.2 1242.13 1468.33 Q1242.13 1475.44 1243.93 1479.01 Q1245.76 1482.55 1249.37 1482.55 Q1253.01 1482.55 1254.81 1479.01 Q1256.64 1475.44 1256.64 1468.33 Q1256.64 1461.2 1254.81 1457.66 Q1253.01 1454.1 1249.37 1454.1 M1249.37 1450.39 Q1255.18 1450.39 1258.24 1455 Q1261.32 1459.58 1261.32 1468.33 Q1261.32 1477.06 1258.24 1481.67 Q1255.18 1486.25 1249.37 1486.25 Q1243.56 1486.25 1240.48 1481.67 Q1237.43 1477.06 1237.43 1468.33 Q1237.43 1459.58 1240.48 1455 Q1243.56 1450.39 1249.37 1450.39 Z" fill="#000000" fill-rule="nonzero" fill-opacity="1" /><path clip-path="url(#clip370)" d="M1711.46 1466.44 Q1708.31 1466.44 1706.46 1468.59 Q1704.63 1470.74 1704.63 1474.49 Q1704.63 1478.22 1706.46 1480.39 Q1708.31 1482.55 1711.46 1482.55 Q1714.61 1482.55 1716.44 1480.39 Q1718.29 1478.22 1718.29 1474.49 Q1718.29 1470.74 1716.44 1468.59 Q1714.61 1466.44 1711.46 1466.44 M1720.74 1451.78 L1720.74 1456.04 Q1718.99 1455.21 1717.18 1454.77 Q1715.4 1454.33 1713.64 1454.33 Q1709.01 1454.33 1706.56 1457.45 Q1704.12 1460.58 1703.78 1466.9 Q1705.14 1464.89 1707.2 1463.82 Q1709.26 1462.73 1711.74 1462.73 Q1716.95 1462.73 1719.96 1465.9 Q1722.99 1469.05 1722.99 1474.49 Q1722.99 1479.82 1719.84 1483.03 Q1716.69 1486.25 1711.46 1486.25 Q1705.47 1486.25 1702.3 1481.67 Q1699.12 1477.06 1699.12 1468.33 Q1699.12 1460.14 1703.01 1455.28 Q1706.9 1450.39 1713.45 1450.39 Q1715.21 1450.39 1716.99 1450.74 Q1718.8 1451.09 1720.74 1451.78 Z" fill="#000000" fill-rule="nonzero" fill-opacity="1" /><path clip-path="url(#clip370)" d="M1741.05 1454.1 Q1737.43 1454.1 1735.61 1457.66 Q1733.8 1461.2 1733.8 1468.33 Q1733.8 1475.44 1735.61 1479.01 Q1737.43 1482.55 1741.05 1482.55 Q1744.68 1482.55 1746.49 1479.01 Q1748.31 1475.44 1748.31 1468.33 Q1748.31 1461.2 1746.49 1457.66 Q1744.68 1454.1 1741.05 1454.1 M1741.05 1450.39 Q1746.86 1450.39 1749.91 1455 Q1752.99 1459.58 1752.99 1468.33 Q1752.99 1477.06 1749.91 1481.67 Q1746.86 1486.25 1741.05 1486.25 Q1735.24 1486.25 1732.16 1481.67 Q1729.1 1477.06 1729.1 1468.33 Q1729.1 1459.58 1732.16 1455 Q1735.24 1450.39 1741.05 1450.39 Z" fill="#000000" fill-rule="nonzero" fill-opacity="1" /><path clip-path="url(#clip370)" d="M2203.1 1469.17 Q2199.77 1469.17 2197.85 1470.95 Q2195.95 1472.73 2195.95 1475.86 Q2195.95 1478.98 2197.85 1480.77 Q2199.77 1482.55 2203.1 1482.55 Q2206.44 1482.55 2208.36 1480.77 Q2210.28 1478.96 2210.28 1475.86 Q2210.28 1472.73 2208.36 1470.95 Q2206.46 1469.17 2203.1 1469.17 M2198.43 1467.18 Q2195.42 1466.44 2193.73 1464.38 Q2192.06 1462.32 2192.06 1459.35 Q2192.06 1455.21 2195 1452.8 Q2197.96 1450.39 2203.1 1450.39 Q2208.26 1450.39 2211.2 1452.8 Q2214.14 1455.21 2214.14 1459.35 Q2214.14 1462.32 2212.45 1464.38 Q2210.79 1466.44 2207.8 1467.18 Q2211.18 1467.96 2213.06 1470.26 Q2214.95 1472.55 2214.95 1475.86 Q2214.95 1480.88 2211.87 1483.57 Q2208.82 1486.25 2203.1 1486.25 Q2197.38 1486.25 2194.31 1483.57 Q2191.25 1480.88 2191.25 1475.86 Q2191.25 1472.55 2193.15 1470.26 Q2195.05 1467.96 2198.43 1467.18 M2196.71 1459.79 Q2196.71 1462.48 2198.38 1463.98 Q2200.07 1465.49 2203.1 1465.49 Q2206.11 1465.49 2207.8 1463.98 Q2209.51 1462.48 2209.51 1459.79 Q2209.51 1457.11 2207.8 1455.6 Q2206.11 1454.1 2203.1 1454.1 Q2200.07 1454.1 2198.38 1455.6 Q2196.71 1457.11 2196.71 1459.79 Z" fill="#000000" fill-rule="nonzero" fill-opacity="1" /><path clip-path="url(#clip370)" d="M2233.26 1454.1 Q2229.65 1454.1 2227.82 1457.66 Q2226.02 1461.2 2226.02 1468.33 Q2226.02 1475.44 2227.82 1479.01 Q2229.65 1482.55 2233.26 1482.55 Q2236.9 1482.55 2238.7 1479.01 Q2240.53 1475.44 2240.53 1468.33 Q2240.53 1461.2 2238.7 1457.66 Q2236.9 1454.1 2233.26 1454.1 M2233.26 1450.39 Q2239.07 1450.39 2242.13 1455 Q2245.21 1459.58 2245.21 1468.33 Q2245.21 1477.06 2242.13 1481.67 Q2239.07 1486.25 2233.26 1486.25 Q2227.45 1486.25 2224.37 1481.67 Q2221.32 1477.06 2221.32 1468.33 Q2221.32 1459.58 2224.37 1455 Q2227.45 1450.39 2233.26 1450.39 Z" fill="#000000" fill-rule="nonzero" fill-opacity="1" /><path clip-path="url(#clip370)" d="M1223.03 1520.52 L1263.23 1520.52 L1263.23 1525.93 L1246.36 1525.93 L1246.36 1568.04 L1239.89 1568.04 L1239.89 1525.93 L1223.03 1525.93 L1223.03 1520.52 Z" fill="#000000" fill-rule="nonzero" fill-opacity="1" /><path clip-path="url(#clip370)" d="M1267.17 1532.4 L1273.03 1532.4 L1273.03 1568.04 L1267.17 1568.04 L1267.17 1532.4 M1267.17 1518.52 L1273.03 1518.52 L1273.03 1525.93 L1267.17 1525.93 L1267.17 1518.52 Z" fill="#000000" fill-rule="nonzero" fill-opacity="1" /><path clip-path="url(#clip370)" d="M1313.04 1539.24 Q1315.23 1535.29 1318.29 1533.41 Q1321.34 1531.54 1325.48 1531.54 Q1331.05 1531.54 1334.08 1535.45 Q1337.1 1539.33 1337.1 1546.53 L1337.1 1568.04 L1331.21 1568.04 L1331.21 1546.72 Q1331.21 1541.59 1329.4 1539.11 Q1327.58 1536.63 1323.86 1536.63 Q1319.31 1536.63 1316.67 1539.65 Q1314.02 1542.68 1314.02 1547.9 L1314.02 1568.04 L1308.14 1568.04 L1308.14 1546.72 Q1308.14 1541.56 1306.32 1539.11 Q1304.51 1536.63 1300.72 1536.63 Q1296.23 1536.63 1293.59 1539.68 Q1290.95 1542.71 1290.95 1547.9 L1290.95 1568.04 L1285.06 1568.04 L1285.06 1532.4 L1290.95 1532.4 L1290.95 1537.93 Q1292.95 1534.66 1295.75 1533.1 Q1298.55 1531.54 1302.41 1531.54 Q1306.29 1531.54 1308.99 1533.51 Q1311.73 1535.48 1313.04 1539.24 Z" fill="#000000" fill-rule="nonzero" fill-opacity="1" /><path clip-path="url(#clip370)" d="M1379.27 1548.76 L1379.27 1551.62 L1352.35 1551.62 Q1352.73 1557.67 1355.97 1560.85 Q1359.25 1564 1365.08 1564 Q1368.45 1564 1371.6 1563.17 Q1374.78 1562.35 1377.9 1560.69 L1377.9 1566.23 Q1374.75 1567.57 1371.44 1568.27 Q1368.13 1568.97 1364.73 1568.97 Q1356.2 1568.97 1351.2 1564 Q1346.23 1559.04 1346.23 1550.57 Q1346.23 1541.82 1350.94 1536.69 Q1355.69 1531.54 1363.71 1531.54 Q1370.9 1531.54 1375.07 1536.18 Q1379.27 1540.8 1379.27 1548.76 M1373.42 1547.04 Q1373.35 1542.23 1370.71 1539.37 Q1368.1 1536.5 1363.77 1536.5 Q1358.87 1536.5 1355.91 1539.27 Q1352.98 1542.04 1352.54 1547.07 L1373.42 1547.04 Z" fill="#000000" fill-rule="nonzero" fill-opacity="1" /><polyline clip-path="url(#clip370)" style="stroke:#000000; stroke-linecap:round; stroke-linejoin:round; stroke-width:4; stroke-opacity:1; fill:none" points="249.542,1423.18 249.542,123.472 "/>
<polyline clip-path="url(#clip370)" style="stroke:#000000; stroke-linecap:round; stroke-linejoin:round; stroke-width:4; stroke-opacity:1; fill:none" points="249.542,1386.4 268.44,1386.4 "/>
<polyline clip-path="url(#clip370)" style="stroke:#000000; stroke-linecap:round; stroke-linejoin:round; stroke-width:4; stroke-opacity:1; fill:none" points="249.542,1141.17 268.44,1141.17 "/>
<polyline clip-path="url(#clip370)" style="stroke:#000000; stroke-linecap:round; stroke-linejoin:round; stroke-width:4; stroke-opacity:1; fill:none" points="249.542,895.94 268.44,895.94 "/>
<polyline clip-path="url(#clip370)" style="stroke:#000000; stroke-linecap:round; stroke-linejoin:round; stroke-width:4; stroke-opacity:1; fill:none" points="249.542,650.712 268.44,650.712 "/>
<polyline clip-path="url(#clip370)" style="stroke:#000000; stroke-linecap:round; stroke-linejoin:round; stroke-width:4; stroke-opacity:1; fill:none" points="249.542,405.484 268.44,405.484 "/>
<polyline clip-path="url(#clip370)" style="stroke:#000000; stroke-linecap:round; stroke-linejoin:round; stroke-width:4; stroke-opacity:1; fill:none" points="249.542,160.256 268.44,160.256 "/>
<path clip-path="url(#clip370)" d="M126.205 1372.19 Q122.593 1372.19 120.765 1375.76 Q118.959 1379.3 118.959 1386.43 Q118.959 1393.54 120.765 1397.1 Q122.593 1400.64 126.205 1400.64 Q129.839 1400.64 131.644 1397.1 Q133.473 1393.54 133.473 1386.43 Q133.473 1379.3 131.644 1375.76 Q129.839 1372.19 126.205 1372.19 M126.205 1368.49 Q132.015 1368.49 135.07 1373.1 Q138.149 1377.68 138.149 1386.43 Q138.149 1395.16 135.07 1399.76 Q132.015 1404.35 126.205 1404.35 Q120.394 1404.35 117.316 1399.76 Q114.26 1395.16 114.26 1386.43 Q114.26 1377.68 117.316 1373.1 Q120.394 1368.49 126.205 1368.49 Z" fill="#000000" fill-rule="nonzero" fill-opacity="1" /><path clip-path="url(#clip370)" d="M146.366 1397.8 L151.251 1397.8 L151.251 1403.68 L146.366 1403.68 L146.366 1397.8 Z" fill="#000000" fill-rule="nonzero" fill-opacity="1" /><path clip-path="url(#clip370)" d="M171.436 1372.19 Q167.825 1372.19 165.996 1375.76 Q164.19 1379.3 164.19 1386.43 Q164.19 1393.54 165.996 1397.1 Q167.825 1400.64 171.436 1400.64 Q175.07 1400.64 176.876 1397.1 Q178.704 1393.54 178.704 1386.43 Q178.704 1379.3 176.876 1375.76 Q175.07 1372.19 171.436 1372.19 M171.436 1368.49 Q177.246 1368.49 180.301 1373.1 Q183.38 1377.68 183.38 1386.43 Q183.38 1395.16 180.301 1399.76 Q177.246 1404.35 171.436 1404.35 Q165.626 1404.35 162.547 1399.76 Q159.491 1395.16 159.491 1386.43 Q159.491 1377.68 162.547 1373.1 Q165.626 1368.49 171.436 1368.49 Z" fill="#000000" fill-rule="nonzero" fill-opacity="1" /><path clip-path="url(#clip370)" d="M201.598 1372.19 Q197.987 1372.19 196.158 1375.76 Q194.352 1379.3 194.352 1386.43 Q194.352 1393.54 196.158 1397.1 Q197.987 1400.64 201.598 1400.64 Q205.232 1400.64 207.037 1397.1 Q208.866 1393.54 208.866 1386.43 Q208.866 1379.3 207.037 1375.76 Q205.232 1372.19 201.598 1372.19 M201.598 1368.49 Q207.408 1368.49 210.463 1373.1 Q213.542 1377.68 213.542 1386.43 Q213.542 1395.16 210.463 1399.76 Q207.408 1404.35 201.598 1404.35 Q195.787 1404.35 192.709 1399.76 Q189.653 1395.16 189.653 1386.43 Q189.653 1377.68 192.709 1373.1 Q195.787 1368.49 201.598 1368.49 Z" fill="#000000" fill-rule="nonzero" fill-opacity="1" /><path clip-path="url(#clip370)" d="M127.2 1126.97 Q123.589 1126.97 121.76 1130.53 Q119.955 1134.07 119.955 1141.2 Q119.955 1148.31 121.76 1151.87 Q123.589 1155.42 127.2 1155.42 Q130.834 1155.42 132.64 1151.87 Q134.468 1148.31 134.468 1141.2 Q134.468 1134.07 132.64 1130.53 Q130.834 1126.97 127.2 1126.97 M127.2 1123.26 Q133.01 1123.26 136.066 1127.87 Q139.144 1132.45 139.144 1141.2 Q139.144 1149.93 136.066 1154.54 Q133.01 1159.12 127.2 1159.12 Q121.39 1159.12 118.311 1154.54 Q115.256 1149.93 115.256 1141.2 Q115.256 1132.45 118.311 1127.87 Q121.39 1123.26 127.2 1123.26 Z" fill="#000000" fill-rule="nonzero" fill-opacity="1" /><path clip-path="url(#clip370)" d="M147.362 1152.57 L152.246 1152.57 L152.246 1158.45 L147.362 1158.45 L147.362 1152.57 Z" fill="#000000" fill-rule="nonzero" fill-opacity="1" /><path clip-path="url(#clip370)" d="M172.431 1126.97 Q168.82 1126.97 166.991 1130.53 Q165.186 1134.07 165.186 1141.2 Q165.186 1148.31 166.991 1151.87 Q168.82 1155.42 172.431 1155.42 Q176.065 1155.42 177.871 1151.87 Q179.7 1148.31 179.7 1141.2 Q179.7 1134.07 177.871 1130.53 Q176.065 1126.97 172.431 1126.97 M172.431 1123.26 Q178.241 1123.26 181.297 1127.87 Q184.376 1132.45 184.376 1141.2 Q184.376 1149.93 181.297 1154.54 Q178.241 1159.12 172.431 1159.12 Q166.621 1159.12 163.542 1154.54 Q160.487 1149.93 160.487 1141.2 Q160.487 1132.45 163.542 1127.87 Q166.621 1123.26 172.431 1123.26 Z" fill="#000000" fill-rule="nonzero" fill-opacity="1" /><path clip-path="url(#clip370)" d="M192.639 1123.89 L210.996 1123.89 L210.996 1127.82 L196.922 1127.82 L196.922 1136.3 Q197.94 1135.95 198.959 1135.79 Q199.977 1135.6 200.996 1135.6 Q206.783 1135.6 210.162 1138.77 Q213.542 1141.94 213.542 1147.36 Q213.542 1152.94 210.07 1156.04 Q206.598 1159.12 200.278 1159.12 Q198.102 1159.12 195.834 1158.75 Q193.588 1158.38 191.181 1157.64 L191.181 1152.94 Q193.264 1154.07 195.487 1154.63 Q197.709 1155.18 200.186 1155.18 Q204.19 1155.18 206.528 1153.08 Q208.866 1150.97 208.866 1147.36 Q208.866 1143.75 206.528 1141.64 Q204.19 1139.54 200.186 1139.54 Q198.311 1139.54 196.436 1139.95 Q194.584 1140.37 192.639 1141.25 L192.639 1123.89 Z" fill="#000000" fill-rule="nonzero" fill-opacity="1" /><path clip-path="url(#clip370)" d="M126.205 881.739 Q122.593 881.739 120.765 885.303 Q118.959 888.845 118.959 895.975 Q118.959 903.081 120.765 906.646 Q122.593 910.188 126.205 910.188 Q129.839 910.188 131.644 906.646 Q133.473 903.081 133.473 895.975 Q133.473 888.845 131.644 885.303 Q129.839 881.739 126.205 881.739 M126.205 878.035 Q132.015 878.035 135.07 882.641 Q138.149 887.225 138.149 895.975 Q138.149 904.701 135.07 909.308 Q132.015 913.891 126.205 913.891 Q120.394 913.891 117.316 909.308 Q114.26 904.701 114.26 895.975 Q114.26 887.225 117.316 882.641 Q120.394 878.035 126.205 878.035 Z" fill="#000000" fill-rule="nonzero" fill-opacity="1" /><path clip-path="url(#clip370)" d="M146.366 907.34 L151.251 907.34 L151.251 913.22 L146.366 913.22 L146.366 907.34 Z" fill="#000000" fill-rule="nonzero" fill-opacity="1" /><path clip-path="url(#clip370)" d="M162.246 909.285 L169.885 909.285 L169.885 882.919 L161.575 884.586 L161.575 880.327 L169.839 878.66 L174.514 878.66 L174.514 909.285 L182.153 909.285 L182.153 913.22 L162.246 913.22 L162.246 909.285 Z" fill="#000000" fill-rule="nonzero" fill-opacity="1" /><path clip-path="url(#clip370)" d="M201.598 881.739 Q197.987 881.739 196.158 885.303 Q194.352 888.845 194.352 895.975 Q194.352 903.081 196.158 906.646 Q197.987 910.188 201.598 910.188 Q205.232 910.188 207.037 906.646 Q208.866 903.081 208.866 895.975 Q208.866 888.845 207.037 885.303 Q205.232 881.739 201.598 881.739 M201.598 878.035 Q207.408 878.035 210.463 882.641 Q213.542 887.225 213.542 895.975 Q213.542 904.701 210.463 909.308 Q207.408 913.891 201.598 913.891 Q195.787 913.891 192.709 909.308 Q189.653 904.701 189.653 895.975 Q189.653 887.225 192.709 882.641 Q195.787 878.035 201.598 878.035 Z" fill="#000000" fill-rule="nonzero" fill-opacity="1" /><path clip-path="url(#clip370)" d="M127.2 636.511 Q123.589 636.511 121.76 640.076 Q119.955 643.617 119.955 650.747 Q119.955 657.853 121.76 661.418 Q123.589 664.96 127.2 664.96 Q130.834 664.96 132.64 661.418 Q134.468 657.853 134.468 650.747 Q134.468 643.617 132.64 640.076 Q130.834 636.511 127.2 636.511 M127.2 632.807 Q133.01 632.807 136.066 637.414 Q139.144 641.997 139.144 650.747 Q139.144 659.474 136.066 664.08 Q133.01 668.663 127.2 668.663 Q121.39 668.663 118.311 664.08 Q115.256 659.474 115.256 650.747 Q115.256 641.997 118.311 637.414 Q121.39 632.807 127.2 632.807 Z" fill="#000000" fill-rule="nonzero" fill-opacity="1" /><path clip-path="url(#clip370)" d="M147.362 662.112 L152.246 662.112 L152.246 667.992 L147.362 667.992 L147.362 662.112 Z" fill="#000000" fill-rule="nonzero" fill-opacity="1" /><path clip-path="url(#clip370)" d="M163.241 664.057 L170.88 664.057 L170.88 637.691 L162.57 639.358 L162.57 635.099 L170.834 633.432 L175.51 633.432 L175.51 664.057 L183.149 664.057 L183.149 667.992 L163.241 667.992 L163.241 664.057 Z" fill="#000000" fill-rule="nonzero" fill-opacity="1" /><path clip-path="url(#clip370)" d="M192.639 633.432 L210.996 633.432 L210.996 637.367 L196.922 637.367 L196.922 645.839 Q197.94 645.492 198.959 645.33 Q199.977 645.145 200.996 645.145 Q206.783 645.145 210.162 648.316 Q213.542 651.488 213.542 656.904 Q213.542 662.483 210.07 665.585 Q206.598 668.663 200.278 668.663 Q198.102 668.663 195.834 668.293 Q193.588 667.923 191.181 667.182 L191.181 662.483 Q193.264 663.617 195.487 664.173 Q197.709 664.728 200.186 664.728 Q204.19 664.728 206.528 662.622 Q208.866 660.515 208.866 656.904 Q208.866 653.293 206.528 651.187 Q204.19 649.08 200.186 649.08 Q198.311 649.08 196.436 649.497 Q194.584 649.913 192.639 650.793 L192.639 633.432 Z" fill="#000000" fill-rule="nonzero" fill-opacity="1" /><path clip-path="url(#clip370)" d="M126.205 391.283 Q122.593 391.283 120.765 394.848 Q118.959 398.389 118.959 405.519 Q118.959 412.625 120.765 416.19 Q122.593 419.732 126.205 419.732 Q129.839 419.732 131.644 416.19 Q133.473 412.625 133.473 405.519 Q133.473 398.389 131.644 394.848 Q129.839 391.283 126.205 391.283 M126.205 387.579 Q132.015 387.579 135.07 392.186 Q138.149 396.769 138.149 405.519 Q138.149 414.246 135.07 418.852 Q132.015 423.435 126.205 423.435 Q120.394 423.435 117.316 418.852 Q114.26 414.246 114.26 405.519 Q114.26 396.769 117.316 392.186 Q120.394 387.579 126.205 387.579 Z" fill="#000000" fill-rule="nonzero" fill-opacity="1" /><path clip-path="url(#clip370)" d="M146.366 416.885 L151.251 416.885 L151.251 422.764 L146.366 422.764 L146.366 416.885 Z" fill="#000000" fill-rule="nonzero" fill-opacity="1" /><path clip-path="url(#clip370)" d="M165.464 418.829 L181.783 418.829 L181.783 422.764 L159.839 422.764 L159.839 418.829 Q162.501 416.074 167.084 411.445 Q171.69 406.792 172.871 405.449 Q175.116 402.926 175.996 401.19 Q176.899 399.431 176.899 397.741 Q176.899 394.987 174.954 393.25 Q173.033 391.514 169.931 391.514 Q167.732 391.514 165.278 392.278 Q162.848 393.042 160.07 394.593 L160.07 389.871 Q162.894 388.737 165.348 388.158 Q167.802 387.579 169.839 387.579 Q175.209 387.579 178.403 390.264 Q181.598 392.95 181.598 397.44 Q181.598 399.57 180.788 401.491 Q180.001 403.389 177.894 405.982 Q177.315 406.653 174.214 409.871 Q171.112 413.065 165.464 418.829 Z" fill="#000000" fill-rule="nonzero" fill-opacity="1" /><path clip-path="url(#clip370)" d="M201.598 391.283 Q197.987 391.283 196.158 394.848 Q194.352 398.389 194.352 405.519 Q194.352 412.625 196.158 416.19 Q197.987 419.732 201.598 419.732 Q205.232 419.732 207.037 416.19 Q208.866 412.625 208.866 405.519 Q208.866 398.389 207.037 394.848 Q205.232 391.283 201.598 391.283 M201.598 387.579 Q207.408 387.579 210.463 392.186 Q213.542 396.769 213.542 405.519 Q213.542 414.246 210.463 418.852 Q207.408 423.435 201.598 423.435 Q195.787 423.435 192.709 418.852 Q189.653 414.246 189.653 405.519 Q189.653 396.769 192.709 392.186 Q195.787 387.579 201.598 387.579 Z" fill="#000000" fill-rule="nonzero" fill-opacity="1" /><path clip-path="url(#clip370)" d="M127.2 146.055 Q123.589 146.055 121.76 149.62 Q119.955 153.161 119.955 160.291 Q119.955 167.397 121.76 170.962 Q123.589 174.504 127.2 174.504 Q130.834 174.504 132.64 170.962 Q134.468 167.397 134.468 160.291 Q134.468 153.161 132.64 149.62 Q130.834 146.055 127.2 146.055 M127.2 142.351 Q133.01 142.351 136.066 146.958 Q139.144 151.541 139.144 160.291 Q139.144 169.018 136.066 173.624 Q133.01 178.208 127.2 178.208 Q121.39 178.208 118.311 173.624 Q115.256 169.018 115.256 160.291 Q115.256 151.541 118.311 146.958 Q121.39 142.351 127.2 142.351 Z" fill="#000000" fill-rule="nonzero" fill-opacity="1" /><path clip-path="url(#clip370)" d="M147.362 171.657 L152.246 171.657 L152.246 177.536 L147.362 177.536 L147.362 171.657 Z" fill="#000000" fill-rule="nonzero" fill-opacity="1" /><path clip-path="url(#clip370)" d="M166.459 173.601 L182.778 173.601 L182.778 177.536 L160.834 177.536 L160.834 173.601 Q163.496 170.847 168.079 166.217 Q172.686 161.564 173.866 160.222 Q176.112 157.698 176.991 155.962 Q177.894 154.203 177.894 152.513 Q177.894 149.759 175.95 148.023 Q174.028 146.286 170.927 146.286 Q168.727 146.286 166.274 147.05 Q163.843 147.814 161.065 149.365 L161.065 144.643 Q163.89 143.509 166.343 142.93 Q168.797 142.351 170.834 142.351 Q176.204 142.351 179.399 145.036 Q182.593 147.722 182.593 152.212 Q182.593 154.342 181.783 156.263 Q180.996 158.161 178.889 160.754 Q178.311 161.425 175.209 164.643 Q172.107 167.837 166.459 173.601 Z" fill="#000000" fill-rule="nonzero" fill-opacity="1" /><path clip-path="url(#clip370)" d="M192.639 142.976 L210.996 142.976 L210.996 146.911 L196.922 146.911 L196.922 155.384 Q197.94 155.036 198.959 154.874 Q199.977 154.689 200.996 154.689 Q206.783 154.689 210.162 157.86 Q213.542 161.032 213.542 166.448 Q213.542 172.027 210.07 175.129 Q206.598 178.208 200.278 178.208 Q198.102 178.208 195.834 177.837 Q193.588 177.467 191.181 176.726 L191.181 172.027 Q193.264 173.161 195.487 173.717 Q197.709 174.272 200.186 174.272 Q204.19 174.272 206.528 172.166 Q208.866 170.059 208.866 166.448 Q208.866 162.837 206.528 160.731 Q204.19 158.624 200.186 158.624 Q198.311 158.624 196.436 159.041 Q194.584 159.458 192.639 160.337 L192.639 142.976 Z" fill="#000000" fill-rule="nonzero" fill-opacity="1" /><path clip-path="url(#clip370)" d="M29.7248 956.945 L35.1993 956.945 Q33.8307 959.427 33.1623 961.942 Q32.4621 964.424 32.4621 966.971 Q32.4621 972.668 36.0905 975.819 Q39.6872 978.97 46.212 978.97 Q52.7369 978.97 56.3653 975.819 Q59.9619 972.668 59.9619 966.971 Q59.9619 964.424 59.2935 961.942 Q58.5933 959.427 57.2247 956.945 L62.6355 956.945 Q63.7814 959.396 64.3543 962.037 Q64.9272 964.647 64.9272 967.607 Q64.9272 975.66 59.8664 980.402 Q54.8057 985.145 46.212 985.145 Q37.491 985.145 32.4939 980.371 Q27.4968 975.564 27.4968 967.225 Q27.4968 964.52 28.0697 961.942 Q28.6108 959.364 29.7248 956.945 Z" fill="#000000" fill-rule="nonzero" fill-opacity="1" /><path clip-path="url(#clip370)" d="M16.4842 953.094 L16.4842 912.894 L21.895 912.894 L21.895 929.763 L64.0042 929.763 L64.0042 936.224 L21.895 936.224 L21.895 953.094 L16.4842 953.094 Z" fill="#000000" fill-rule="nonzero" fill-opacity="1" /><path clip-path="url(#clip370)" d="M42.4881 877.31 L64.0042 877.31 L64.0042 883.166 L42.679 883.166 Q37.6183 883.166 35.1038 885.14 Q32.5894 887.113 32.5894 891.06 Q32.5894 895.802 35.6131 898.539 Q38.6368 901.277 43.8567 901.277 L64.0042 901.277 L64.0042 907.165 L28.3562 907.165 L28.3562 901.277 L33.8944 901.277 Q30.6797 899.176 29.0883 896.343 Q27.4968 893.479 27.4968 889.755 Q27.4968 883.612 31.3163 880.461 Q35.1038 877.31 42.4881 877.31 Z" fill="#000000" fill-rule="nonzero" fill-opacity="1" /><path clip-path="url(#clip370)" d="M16.4842 871.963 L16.4842 831.763 L21.895 831.763 L21.895 848.632 L64.0042 848.632 L64.0042 855.093 L21.895 855.093 L21.895 871.963 L16.4842 871.963 Z" fill="#000000" fill-rule="nonzero" fill-opacity="1" /><path clip-path="url(#clip370)" d="M14.479 805.632 L14.479 792.137 L19.0304 792.137 L19.0304 799.775 L68.0464 799.775 L68.0464 792.137 L72.5979 792.137 L72.5979 805.632 L14.479 805.632 Z" fill="#000000" fill-rule="nonzero" fill-opacity="1" /><path clip-path="url(#clip370)" d="M42.4881 750.027 L64.0042 750.027 L64.0042 755.884 L42.679 755.884 Q37.6183 755.884 35.1038 757.857 Q32.5894 759.831 32.5894 763.777 Q32.5894 768.52 35.6131 771.257 Q38.6368 773.994 43.8567 773.994 L64.0042 773.994 L64.0042 779.883 L28.3562 779.883 L28.3562 773.994 L33.8944 773.994 Q30.6797 771.894 29.0883 769.061 Q27.4968 766.196 27.4968 762.472 Q27.4968 756.33 31.3163 753.179 Q35.1038 750.027 42.4881 750.027 Z" fill="#000000" fill-rule="nonzero" fill-opacity="1" /><path clip-path="url(#clip370)" d="M45.7664 714.889 Q39.4007 714.889 35.8996 717.531 Q32.3984 720.141 32.3984 724.883 Q32.3984 729.594 35.8996 732.235 Q39.4007 734.845 45.7664 734.845 Q52.1003 734.845 55.6014 732.235 Q59.1026 729.594 59.1026 724.883 Q59.1026 720.141 55.6014 717.531 Q52.1003 714.889 45.7664 714.889 M59.58 709.032 Q68.683 709.032 73.1071 713.075 Q77.5631 717.117 77.5631 725.456 Q77.5631 728.543 77.0857 731.28 Q76.6401 734.018 75.6852 736.596 L69.9879 736.596 Q71.3884 734.018 72.0568 731.503 Q72.7252 728.989 72.7252 726.379 Q72.7252 720.618 69.7015 717.753 Q66.7096 714.889 60.6303 714.889 L57.7339 714.889 Q60.885 716.703 62.4446 719.536 Q64.0042 722.369 64.0042 726.315 Q64.0042 732.872 59.0071 736.882 Q54.01 740.893 45.7664 740.893 Q37.491 740.893 32.4939 736.882 Q27.4968 732.872 27.4968 726.315 Q27.4968 722.369 29.0564 719.536 Q30.616 716.703 33.7671 714.889 L28.3562 714.889 L28.3562 709.032 L59.58 709.032 Z" fill="#000000" fill-rule="nonzero" fill-opacity="1" /><path clip-path="url(#clip370)" d="M16.4842 686.561 L16.4842 681.151 L70.0516 697.701 L70.0516 703.112 L16.4842 686.561 Z" fill="#000000" fill-rule="nonzero" fill-opacity="1" /><path clip-path="url(#clip370)" d="M35.1993 647.253 Q31.2526 645.057 29.3747 642.001 Q27.4968 638.946 27.4968 634.808 Q27.4968 629.238 31.4117 626.215 Q35.2948 623.191 42.4881 623.191 L64.0042 623.191 L64.0042 629.079 L42.679 629.079 Q37.5546 629.079 35.072 630.893 Q32.5894 632.708 32.5894 636.431 Q32.5894 640.983 35.6131 643.625 Q38.6368 646.266 43.8567 646.266 L64.0042 646.266 L64.0042 652.155 L42.679 652.155 Q37.5228 652.155 35.072 653.969 Q32.5894 655.783 32.5894 659.571 Q32.5894 664.059 35.6449 666.7 Q38.6686 669.342 43.8567 669.342 L64.0042 669.342 L64.0042 675.23 L28.3562 675.23 L28.3562 669.342 L33.8944 669.342 Q30.616 667.337 29.0564 664.536 Q27.4968 661.735 27.4968 657.884 Q27.4968 654.001 29.4702 651.295 Q31.4436 648.558 35.1993 647.253 Z" fill="#000000" fill-rule="nonzero" fill-opacity="1" /><path clip-path="url(#clip370)" d="M16.4842 611.255 L16.4842 604.826 L58.5933 604.826 L58.5933 581.686 L64.0042 581.686 L64.0042 611.255 L16.4842 611.255 Z" fill="#000000" fill-rule="nonzero" fill-opacity="1" /><path clip-path="url(#clip370)" d="M14.479 561.507 L72.5979 561.507 L72.5979 575.002 L68.0464 575.002 L68.0464 567.395 L19.0304 567.395 L19.0304 575.002 L14.479 575.002 L14.479 561.507 Z" fill="#000000" fill-rule="nonzero" fill-opacity="1" /><path clip-path="url(#clip370)" d="M1027.25 18.8205 L1027.25 41.5461 L1037.54 41.5461 Q1043.25 41.5461 1046.37 38.5889 Q1049.49 35.6318 1049.49 30.163 Q1049.49 24.7348 1046.37 21.7777 Q1043.25 18.8205 1037.54 18.8205 L1027.25 18.8205 M1019.06 12.096 L1037.54 12.096 Q1047.7 12.096 1052.89 16.714 Q1058.11 21.2916 1058.11 30.163 Q1058.11 39.1155 1052.89 43.6931 Q1047.7 48.2706 1037.54 48.2706 L1027.25 48.2706 L1027.25 72.576 L1019.06 72.576 L1019.06 12.096 Z" fill="#000000" fill-rule="nonzero" fill-opacity="1" /><path clip-path="url(#clip370)" d="M1085.66 49.7694 Q1076.63 49.7694 1073.14 51.8354 Q1069.66 53.9013 1069.66 58.8839 Q1069.66 62.8538 1072.25 65.2034 Q1074.89 67.5124 1079.38 67.5124 Q1085.58 67.5124 1089.31 63.1374 Q1093.07 58.7219 1093.07 51.4303 L1093.07 49.7694 L1085.66 49.7694 M1100.53 46.6907 L1100.53 72.576 L1093.07 72.576 L1093.07 65.6895 Q1090.52 69.8214 1086.71 71.8063 Q1082.91 73.7508 1077.4 73.7508 Q1070.43 73.7508 1066.3 69.8619 Q1062.21 65.9325 1062.21 59.3701 Q1062.21 51.7138 1067.31 47.825 Q1072.46 43.9361 1082.62 43.9361 L1093.07 43.9361 L1093.07 43.2069 Q1093.07 38.0623 1089.67 35.2672 Q1086.31 32.4315 1080.19 32.4315 Q1076.3 32.4315 1072.62 33.3632 Q1068.93 34.295 1065.53 36.1584 L1065.53 29.2718 Q1069.62 27.692 1073.47 26.9223 Q1077.32 26.1121 1080.96 26.1121 Q1090.81 26.1121 1095.67 31.2163 Q1100.53 36.3204 1100.53 46.6907 Z" fill="#000000" fill-rule="nonzero" fill-opacity="1" /><path clip-path="url(#clip370)" d="M1123.25 14.324 L1123.25 27.2059 L1138.61 27.2059 L1138.61 32.9987 L1123.25 32.9987 L1123.25 57.6282 Q1123.25 63.1779 1124.75 64.7578 Q1126.29 66.3376 1130.95 66.3376 L1138.61 66.3376 L1138.61 72.576 L1130.95 72.576 Q1122.32 72.576 1119.04 69.3758 Q1115.76 66.1351 1115.76 57.6282 L1115.76 32.9987 L1110.29 32.9987 L1110.29 27.2059 L1115.76 27.2059 L1115.76 14.324 L1123.25 14.324 Z" fill="#000000" fill-rule="nonzero" fill-opacity="1" /><path clip-path="url(#clip370)" d="M1148.41 27.2059 L1155.86 27.2059 L1155.86 72.576 L1148.41 72.576 L1148.41 27.2059 M1148.41 9.54393 L1155.86 9.54393 L1155.86 18.9825 L1148.41 18.9825 L1148.41 9.54393 Z" fill="#000000" fill-rule="nonzero" fill-opacity="1" /><path clip-path="url(#clip370)" d="M1210.27 48.0275 L1210.27 51.6733 L1176 51.6733 Q1176.48 59.3701 1180.61 63.421 Q1184.79 67.4314 1192.2 67.4314 Q1196.49 67.4314 1200.5 66.3781 Q1204.56 65.3249 1208.53 63.2184 L1208.53 70.267 Q1204.51 71.9684 1200.3 72.8596 Q1196.09 73.7508 1191.75 73.7508 Q1180.9 73.7508 1174.54 67.4314 Q1168.22 61.1119 1168.22 50.3365 Q1168.22 39.1965 1174.21 32.6746 Q1180.25 26.1121 1190.46 26.1121 Q1199.61 26.1121 1204.92 32.0264 Q1210.27 37.9003 1210.27 48.0275 M1202.81 45.84 Q1202.73 39.7232 1199.37 36.0774 Q1196.05 32.4315 1190.54 32.4315 Q1184.3 32.4315 1180.53 35.9558 Q1176.81 39.4801 1176.24 45.8805 L1202.81 45.84 Z" fill="#000000" fill-rule="nonzero" fill-opacity="1" /><path clip-path="url(#clip370)" d="M1260.21 45.1919 L1260.21 72.576 L1252.76 72.576 L1252.76 45.4349 Q1252.76 38.994 1250.25 35.7938 Q1247.74 32.5936 1242.71 32.5936 Q1236.68 32.5936 1233.2 36.4419 Q1229.71 40.2903 1229.71 46.9338 L1229.71 72.576 L1222.22 72.576 L1222.22 27.2059 L1229.71 27.2059 L1229.71 34.2544 Q1232.38 30.163 1235.99 28.1376 Q1239.64 26.1121 1244.38 26.1121 Q1252.19 26.1121 1256.2 30.9732 Q1260.21 35.7938 1260.21 45.1919 Z" fill="#000000" fill-rule="nonzero" fill-opacity="1" /><path clip-path="url(#clip370)" d="M1282.45 14.324 L1282.45 27.2059 L1297.81 27.2059 L1297.81 32.9987 L1282.45 32.9987 L1282.45 57.6282 Q1282.45 63.1779 1283.95 64.7578 Q1285.49 66.3376 1290.15 66.3376 L1297.81 66.3376 L1297.81 72.576 L1290.15 72.576 Q1281.52 72.576 1278.24 69.3758 Q1274.96 66.1351 1274.96 57.6282 L1274.96 32.9987 L1269.49 32.9987 L1269.49 27.2059 L1274.96 27.2059 L1274.96 14.324 L1282.45 14.324 Z" fill="#000000" fill-rule="nonzero" fill-opacity="1" /><path clip-path="url(#clip370)" d="M1371.7 45.1919 L1371.7 72.576 L1364.24 72.576 L1364.24 45.4349 Q1364.24 38.994 1361.73 35.7938 Q1359.22 32.5936 1354.2 32.5936 Q1348.16 32.5936 1344.68 36.4419 Q1341.19 40.2903 1341.19 46.9338 L1341.19 72.576 L1333.7 72.576 L1333.7 27.2059 L1341.19 27.2059 L1341.19 34.2544 Q1343.87 30.163 1347.47 28.1376 Q1351.12 26.1121 1355.86 26.1121 Q1363.67 26.1121 1367.69 30.9732 Q1371.7 35.7938 1371.7 45.1919 Z" fill="#000000" fill-rule="nonzero" fill-opacity="1" /><path clip-path="url(#clip370)" d="M1389.03 65.6895 L1402.4 65.6895 L1402.4 19.5497 L1387.86 22.4663 L1387.86 15.0127 L1402.32 12.096 L1410.5 12.096 L1410.5 65.6895 L1423.87 65.6895 L1423.87 72.576 L1389.03 72.576 L1389.03 65.6895 Z" fill="#000000" fill-rule="nonzero" fill-opacity="1" /><path clip-path="url(#clip370)" d="M1440.48 12.096 L1472.6 12.096 L1472.6 18.9825 L1447.97 18.9825 L1447.97 33.8088 Q1449.76 33.2012 1451.54 32.9176 Q1453.32 32.5936 1455.1 32.5936 Q1465.23 32.5936 1471.15 38.1433 Q1477.06 43.6931 1477.06 53.1722 Q1477.06 62.9348 1470.98 68.3631 Q1464.91 73.7508 1453.85 73.7508 Q1450.04 73.7508 1446.07 73.1026 Q1442.14 72.4545 1437.93 71.1582 L1437.93 62.9348 Q1441.57 64.9198 1445.46 65.892 Q1449.35 66.8642 1453.69 66.8642 Q1460.69 66.8642 1464.79 63.1779 Q1468.88 59.4916 1468.88 53.1722 Q1468.88 46.8528 1464.79 43.1664 Q1460.69 39.4801 1453.69 39.4801 Q1450.4 39.4801 1447.12 40.2093 Q1443.88 40.9384 1440.48 42.4778 L1440.48 12.096 Z" fill="#000000" fill-rule="nonzero" fill-opacity="1" /><path clip-path="url(#clip370)" d="M1511.69 39.075 Q1506.19 39.075 1502.94 42.8424 Q1499.74 46.6097 1499.74 53.1722 Q1499.74 59.6941 1502.94 63.502 Q1506.19 67.2693 1511.69 67.2693 Q1517.2 67.2693 1520.4 63.502 Q1523.64 59.6941 1523.64 53.1722 Q1523.64 46.6097 1520.4 42.8424 Q1517.2 39.075 1511.69 39.075 M1527.94 13.4328 L1527.94 20.8865 Q1524.86 19.4281 1521.7 18.6585 Q1518.58 17.8888 1515.5 17.8888 Q1507.4 17.8888 1503.11 23.3575 Q1498.85 28.8262 1498.25 39.8852 Q1500.64 36.3609 1504.24 34.4975 Q1507.85 32.5936 1512.18 32.5936 Q1521.3 32.5936 1526.56 38.1433 Q1531.87 43.6525 1531.87 53.1722 Q1531.87 62.4892 1526.36 68.12 Q1520.85 73.7508 1511.69 73.7508 Q1501.2 73.7508 1495.65 65.73 Q1490.1 57.6687 1490.1 42.3968 Q1490.1 28.0566 1496.91 19.5497 Q1503.71 11.0023 1515.18 11.0023 Q1518.26 11.0023 1521.38 11.6099 Q1524.54 12.2175 1527.94 13.4328 Z" fill="#000000" fill-rule="nonzero" fill-opacity="1" /><path clip-path="url(#clip370)" d="M1570.76 39.9662 Q1576.63 41.222 1579.91 45.1919 Q1583.23 49.1618 1583.23 54.9951 Q1583.23 63.9476 1577.08 68.8492 Q1570.92 73.7508 1559.58 73.7508 Q1555.77 73.7508 1551.72 72.9811 Q1547.71 72.2519 1543.41 70.7531 L1543.41 62.8538 Q1546.82 64.8388 1550.87 65.8515 Q1554.92 66.8642 1559.33 66.8642 Q1567.03 66.8642 1571.04 63.826 Q1575.09 60.7879 1575.09 54.9951 Q1575.09 49.6479 1571.32 46.6502 Q1567.6 43.612 1560.91 43.612 L1553.86 43.612 L1553.86 36.8875 L1561.24 36.8875 Q1567.27 36.8875 1570.47 34.4975 Q1573.67 32.067 1573.67 27.5299 Q1573.67 22.8714 1570.35 20.4004 Q1567.07 17.8888 1560.91 17.8888 Q1557.55 17.8888 1553.7 18.618 Q1549.85 19.3471 1545.24 20.8865 L1545.24 13.5948 Q1549.89 12.2985 1553.95 11.6504 Q1558.04 11.0023 1561.64 11.0023 Q1570.96 11.0023 1576.39 15.2557 Q1581.82 19.4686 1581.82 26.6793 Q1581.82 31.7024 1578.94 35.1862 Q1576.06 38.6294 1570.76 39.9662 Z" fill="#000000" fill-rule="nonzero" fill-opacity="1" /><polyline clip-path="url(#clip372)" style="stroke:#009af9; stroke-linecap:round; stroke-linejoin:round; stroke-width:8; stroke-opacity:1; fill:none" points="249.542,1386.4 251.647,1386.31 253.753,1386.23 255.858,1386.15 257.963,1386.07 260.069,1385.99 262.174,1385.89 264.279,1385.78 266.385,1385.64 268.49,1385.45 270.595,1385.2 272.701,1384.85 274.806,1384.4 276.911,1383.79 279.017,1383 281.122,1381.99 283.227,1380.71 285.332,1379.12 287.438,1377.17 289.543,1374.82 291.648,1372 293.754,1368.69 295.859,1364.82 297.964,1360.37 300.07,1355.28 302.175,1349.54 304.28,1343.12 306.386,1336 308.491,1328.16 310.596,1319.61 312.702,1310.35 314.807,1300.4 316.912,1289.78 319.018,1278.51 321.123,1266.63 323.228,1254.18 325.334,1241.19 327.439,1227.72 329.544,1213.81 331.649,1199.52 333.755,1184.89 335.86,1169.97 337.965,1154.82 340.071,1139.49 342.176,1124.03 344.281,1108.49 346.387,1092.9 348.492,1077.28 350.597,1061.67 352.703,1046.09 354.808,1030.58 356.913,1015.18 359.019,999.908 361.124,984.806 363.229,969.906 365.335,955.212 367.44,940.725 369.545,926.453 371.651,912.406 373.756,898.593 375.861,885.022 377.967,871.699 380.072,858.633 382.177,845.825 384.282,833.272 386.388,820.972 388.493,808.924 390.598,797.127 392.704,785.58 394.809,774.283 396.914,763.236 399.02,752.441 401.125,741.896 403.23,731.59 405.336,721.521 407.441,711.683 409.546,702.072 411.652,692.684 413.757,683.515 415.862,674.563 417.968,665.822 420.073,657.292 422.178,648.966 424.284,640.839 426.389,632.907 428.494,625.164 430.599,617.607 432.705,610.231 434.81,603.032 436.915,596.007 439.021,589.151 441.126,582.463 443.231,575.937 445.337,569.573 447.442,563.364 449.547,557.306 451.653,551.396 453.758,545.63 455.863,540.005 457.969,534.517 460.074,529.162 462.179,523.939 464.285,518.843 466.39,513.871 468.495,509.023 470.601,504.293 472.706,499.681 474.811,495.183 476.917,490.795 479.022,486.515 481.127,482.341 483.232,478.269 485.338,474.297 487.443,470.422 489.548,466.643 491.654,462.957 493.759,459.361 495.864,455.854 497.97,452.433 500.075,449.097 502.18,445.844 504.286,442.671 506.391,439.578 508.496,436.562 510.602,433.621 512.707,430.752 514.812,427.955 516.918,425.227 519.023,422.566 521.128,419.971 523.234,417.44 525.339,414.971 527.444,412.563 529.549,410.215 531.655,407.925 533.76,405.692 535.865,403.514 537.971,401.391 540.076,399.321 542.181,397.303 544.287,395.336 546.392,393.418 548.497,391.549 550.603,389.727 552.708,387.95 554.813,386.217 556.919,384.528 559.024,382.88 561.129,381.273 563.235,379.706 565.34,378.178 567.445,376.688 569.551,375.234 571.656,373.817 573.761,372.434 575.867,371.087 577.972,369.773 580.077,368.492 582.182,367.244 584.288,366.028 586.393,364.843 588.498,363.69 590.604,362.567 592.709,361.473 594.814,360.407 596.92,359.368 599.025,358.355 601.13,357.368 603.236,356.405 605.341,355.465 607.446,354.548 609.552,353.654 611.657,352.781 613.762,351.929 615.868,351.098 617.973,350.288 620.078,349.497 622.184,348.727 624.289,347.976 626.394,347.245 628.499,346.534 630.605,345.842 632.71,345.171 634.815,344.519 636.921,343.886 639.026,343.272 641.131,342.675 643.237,342.093 645.342,341.526 647.447,340.972 649.553,340.431 651.658,339.903 653.763,339.386 655.869,338.88 657.974,338.385 660.079,337.901 662.185,337.427 664.29,336.965 666.395,336.513 668.501,336.072 670.606,335.644 672.711,335.228 674.817,334.824 676.922,334.435 679.027,334.061 681.132,333.702 683.238,333.358 685.343,333.025 687.448,332.702 689.554,332.388 691.659,332.081 693.764,331.779 695.87,331.483 697.975,331.192 700.08,330.905 702.186,330.621 704.291,330.342 706.396,330.066 708.502,329.796 710.607,329.53 712.712,329.271 714.818,329.019 716.923,328.776 719.028,328.544 721.134,328.324 723.239,328.118 725.344,327.925 727.449,327.743 729.555,327.568 731.66,327.398 733.765,327.232 735.871,327.069 737.976,326.907 740.081,326.746 742.187,326.585 744.292,326.423 746.397,326.262 748.503,326.102 750.608,325.942 752.713,325.785 754.819,325.631 756.924,325.482 759.029,325.339 761.135,325.206 763.24,325.085 765.345,324.977 767.451,324.879 769.556,324.787 771.661,324.699 773.767,324.614 775.872,324.53 777.977,324.445 780.082,324.36 782.188,324.274 784.293,324.186 786.398,324.096 788.504,324.005 790.609,323.914 792.714,323.823 794.82,323.733 796.925,323.647 799.03,323.565 801.136,323.491 803.241,323.426 805.346,323.372 807.452,323.326 809.557,323.284 811.662,323.245 813.768,323.207 815.873,323.169 817.978,323.131 820.084,323.091 822.189,323.049 824.294,323.005 826.399,322.959 828.505,322.911 830.61,322.863 832.715,322.814 834.821,322.766 836.926,322.721 839.031,322.679 841.137,322.643 843.242,322.614 845.347,322.595 847.453,322.581 849.558,322.57 851.663,322.56 853.769,322.551 855.874,322.542 857.979,322.531 860.085,322.518 862.19,322.504 864.295,322.487 866.401,322.468 868.506,322.448 870.611,322.426 872.717,322.403 874.822,322.382 876.927,322.362 879.032,322.344 881.138,322.332 883.243,322.326 885.348,322.327 887.454,322.333 889.559,322.341 891.664,322.35 893.77,322.36 895.875,322.368 897.98,322.375 900.086,322.38 902.191,322.383 904.296,322.383 906.402,322.382 908.507,322.378 910.612,322.373 912.718,322.367 914.823,322.361 916.928,322.356 919.034,322.353 921.139,322.355 923.244,322.361 925.349,322.375 927.455,322.393 929.56,322.413 931.665,322.434 933.771,322.456 935.876,322.476 937.981,322.495 940.087,322.511 942.192,322.526 944.297,322.538 946.403,322.547 948.508,322.554 950.613,322.559 952.719,322.563 954.824,322.567 956.929,322.571 959.035,322.576 961.14,322.585 963.245,322.598 965.351,322.618 967.456,322.643 969.561,322.671 971.667,322.7 973.772,322.729 975.877,322.758 977.982,322.785 980.088,322.81 982.193,322.832 984.298,322.852 986.404,322.869 988.509,322.883 990.614,322.895 992.72,322.905 994.825,322.914 996.93,322.923 999.036,322.934 1001.14,322.946 1003.25,322.962 1005.35,322.984 1007.46,323.013 1009.56,323.045 1011.67,323.079 1013.77,323.113 1015.88,323.148 1017.98,323.18 1020.09,323.211 1022.19,323.239 1024.3,323.264 1026.4,323.287 1028.51,323.306 1030.62,323.322 1032.72,323.337 1034.83,323.35 1036.93,323.362 1039.04,323.375 1041.14,323.389 1043.25,323.407 1045.35,323.429 1047.46,323.458 1049.56,323.492 1051.67,323.529 1053.77,323.567 1055.88,323.604 1057.98,323.641 1060.09,323.676 1062.2,323.708 1064.3,323.737 1066.41,323.763 1068.51,323.786 1070.62,323.806 1072.72,323.824 1074.83,323.839 1076.93,323.854 1079.04,323.868 1081.14,323.884 1083.25,323.901 1085.35,323.923 1087.46,323.951 1089.56,323.986 1091.67,324.024 1093.78,324.063 1095.88,324.103 1097.99,324.142 1100.09,324.18 1102.2,324.215 1104.3,324.247 1106.41,324.276 1108.51,324.302 1110.62,324.324 1112.72,324.344 1114.83,324.362 1116.93,324.378 1119.04,324.394 1121.14,324.41 1123.25,324.428 1125.35,324.449 1127.46,324.476 1129.57,324.51 1131.67,324.548 1133.78,324.588 1135.88,324.629 1137.99,324.67 1140.09,324.709 1142.2,324.746 1144.3,324.78 1146.41,324.811 1148.51,324.839 1150.62,324.863 1152.72,324.885 1154.83,324.904 1156.93,324.922 1159.04,324.938 1161.15,324.955 1163.25,324.973 1165.36,324.994 1167.46,325.02 1169.57,325.052 1171.67,325.09 1173.78,325.13 1175.88,325.171 1177.99,325.213 1180.09,325.253 1182.2,325.291 1184.3,325.327 1186.41,325.36 1188.51,325.389 1190.62,325.416 1192.73,325.439 1194.83,325.459 1196.94,325.478 1199.04,325.495 1201.15,325.512 1203.25,325.531 1205.36,325.551 1207.46,325.575 1209.57,325.606 1211.67,325.643 1213.78,325.683 1215.88,325.724 1217.99,325.766 1220.09,325.807 1222.2,325.846 1224.3,325.883 1226.41,325.917 1228.52,325.948 1230.62,325.976 1232.73,326 1234.83,326.022 1236.94,326.042 1239.04,326.06 1241.15,326.077 1243.25,326.095 1245.36,326.115 1247.46,326.138 1249.57,326.167 1251.67,326.202 1253.78,326.242 1255.88,326.283 1257.99,326.325 1260.1,326.367 1262.2,326.407 1264.31,326.445 1266.41,326.48 1268.52,326.512 1270.62,326.541 1272.73,326.567 1274.83,326.589 1276.94,326.61 1279.04,326.629 1281.15,326.646 1283.25,326.664 1285.36,326.684 1287.46,326.706 1289.57,326.733 1291.68,326.766 1293.78,326.804 1295.89,326.846 1297.99,326.888 1300.1,326.93 1302.2,326.97 1304.31,327.009 1306.41,327.045 1308.52,327.079 1310.62,327.109 1312.73,327.136 1314.83,327.16 1316.94,327.181 1319.04,327.2 1321.15,327.218 1323.25,327.236 1325.36,327.255 1327.47,327.276 1329.57,327.301 1331.68,327.332 1333.78,327.37 1335.89,327.41 1337.99,327.452 1340.1,327.494 1342.2,327.536 1344.31,327.575 1346.41,327.613 1348.52,327.647 1350.62,327.678 1352.73,327.706 1354.83,327.731 1356.94,327.753 1359.05,327.773 1361.15,327.792 1363.26,327.81 1365.36,327.828 1367.47,327.848 1369.57,327.872 1371.68,327.901 1373.78,327.936 1375.89,327.976 1377.99,328.018 1380.1,328.06 1382.2,328.102 1384.31,328.142 1386.41,328.18 1388.52,328.216 1390.63,328.248 1392.73,328.277 1394.84,328.303 1396.94,328.327 1399.05,328.347 1401.15,328.366 1403.26,328.384 1405.36,328.402 1407.47,328.422 1409.57,328.444 1411.68,328.471 1413.78,328.504 1415.89,328.543 1417.99,328.584 1420.1,328.626 1422.2,328.668 1424.31,328.709 1426.42,328.748 1428.52,328.785 1430.63,328.818 1432.73,328.849 1434.84,328.876 1436.94,328.9 1439.05,328.921 1441.15,328.941 1443.26,328.959 1445.36,328.977 1447.47,328.996 1449.57,329.017 1451.68,329.042 1453.78,329.073 1455.89,329.11 1458,329.151 1460.1,329.193 1462.21,329.235 1464.31,329.277 1466.42,329.316 1468.52,329.354 1470.63,329.388 1472.73,329.42 1474.84,329.448 1476.94,329.473 1479.05,329.495 1481.15,329.515 1483.26,329.534 1485.36,329.552 1487.47,329.57 1489.58,329.59 1491.68,329.614 1493.79,329.643 1495.89,329.678 1498,329.718 1500.1,329.759 1502.21,329.802 1504.31,329.844 1506.42,329.884 1508.52,329.922 1510.63,329.958 1512.73,329.99 1514.84,330.02 1516.94,330.046 1519.05,330.069 1521.15,330.09 1523.26,330.109 1525.37,330.127 1527.47,330.145 1529.58,330.164 1531.68,330.186 1533.79,330.213 1535.89,330.246 1538,330.285 1540.1,330.326 1542.21,330.368 1544.31,330.41 1546.42,330.451 1548.52,330.49 1550.63,330.527 1552.73,330.56 1554.84,330.591 1556.95,330.618 1559.05,330.642 1561.16,330.663 1563.26,330.683 1565.37,330.701 1567.47,330.719 1569.58,330.738 1571.68,330.759 1573.79,330.784 1575.89,330.815 1578,330.852 1580.1,330.893 1582.21,330.935 1584.31,330.977 1586.42,331.018 1588.53,331.058 1590.63,331.096 1592.74,331.13 1594.84,331.161 1596.95,331.19 1599.05,331.215 1601.16,331.237 1603.26,331.257 1605.37,331.276 1607.47,331.293 1609.58,331.312 1611.68,331.332 1613.79,331.356 1615.89,331.384 1618,331.42 1620.1,331.459 1622.21,331.501 1624.32,331.543 1626.42,331.585 1628.53,331.625 1630.63,331.664 1632.74,331.699 1634.84,331.731 1636.95,331.761 1639.05,331.787 1641.16,331.81 1643.26,331.831 1645.37,331.85 1647.47,331.868 1649.58,331.886 1651.68,331.905 1653.79,331.927 1655.9,331.954 1658,331.987 1660.11,332.026 1662.21,332.067 1664.32,332.109 1666.42,332.151 1668.53,332.192 1670.63,332.231 1672.74,332.267 1674.84,332.301 1676.95,332.331 1679.05,332.358 1681.16,332.382 1683.26,332.404 1685.37,332.423 1687.48,332.442 1689.58,332.46 1691.69,332.478 1693.79,332.499 1695.9,332.524 1698,332.555 1700.11,332.592 1702.21,332.633 1704.32,332.675 1706.42,332.717 1708.53,332.758 1710.63,332.798 1712.74,332.835 1714.84,332.87 1716.95,332.901 1719.05,332.929 1721.16,332.954 1723.27,332.977 1725.37,332.997 1727.48,333.015 1729.58,333.033 1731.69,333.051 1733.79,333.072 1735.9,333.095 1738,333.124 1740.11,333.159 1742.21,333.198 1744.32,333.24 1746.42,333.282 1748.53,333.324 1750.63,333.364 1752.74,333.403 1754.85,333.438 1756.95,333.47 1759.06,333.5 1761.16,333.526 1763.27,333.549 1765.37,333.569 1767.48,333.588 1769.58,333.606 1771.69,333.624 1773.79,333.644 1775.9,333.666 1778,333.693 1780.11,333.726 1782.21,333.764 1784.32,333.805 1786.43,333.847 1788.53,333.889 1790.64,333.93 1792.74,333.969 1794.85,334.006 1796.95,334.039 1799.06,334.069 1801.16,334.096 1803.27,334.12 1805.37,334.142 1807.48,334.161 1809.58,334.179 1811.69,334.197 1813.79,334.216 1815.9,334.237 1818,334.262 1820.11,334.293 1822.22,334.33 1824.32,334.37 1826.43,334.412 1828.53,334.454 1830.64,334.496 1832.74,334.535 1834.85,334.572 1836.95,334.607 1839.06,334.638 1841.16,334.666 1843.27,334.691 1845.37,334.714 1847.48,334.734 1849.58,334.752 1851.69,334.77 1853.8,334.788 1855.9,334.808 1858.01,334.832 1860.11,334.86 1862.22,334.895 1864.32,334.935 1866.43,334.976 1868.53,335.019 1870.64,335.06 1872.74,335.101 1874.85,335.139 1876.95,335.174 1879.06,335.206 1881.16,335.236 1883.27,335.262 1885.38,335.285 1887.48,335.305 1889.59,335.324 1891.69,335.342 1893.8,335.36 1895.9,335.38 1898.01,335.402 1900.11,335.428 1902.22,335.461 1904.32,335.5 1906.43,335.541 1908.53,335.583 1910.64,335.625 1912.74,335.666 1914.85,335.704 1916.95,335.741 1919.06,335.774 1921.17,335.804 1923.27,335.831 1925.38,335.855 1927.48,335.877 1929.59,335.896 1931.69,335.914 1933.8,335.932 1935.9,335.951 1938.01,335.972 1940.11,335.997 1942.22,336.027 1944.32,336.064 1946.43,336.105 1948.53,336.147 1950.64,336.189 1952.75,336.23 1954.85,336.27 1956.96,336.307 1959.06,336.341 1961.17,336.372 1963.27,336.4 1965.38,336.425 1967.48,336.448 1969.59,336.468 1971.69,336.486 1973.8,336.504 1975.9,336.522 1978.01,336.542 1980.11,336.566 1982.22,336.594 1984.33,336.629 1986.43,336.669 1988.54,336.71 1990.64,336.752 1992.75,336.794 1994.85,336.834 1996.96,336.872 1999.06,336.907 2001.17,336.94 2003.27,336.969 2005.38,336.995 2007.48,337.018 2009.59,337.039 2011.69,337.057 2013.8,337.075 2015.9,337.093 2018.01,337.113 2020.12,337.135 2022.22,337.161 2024.33,337.194 2026.43,337.233 2028.54,337.273 2030.64,337.315 2032.75,337.357 2034.85,337.398 2036.96,337.437 2039.06,337.473 2041.17,337.506 2043.27,337.537 2045.38,337.564 2047.48,337.588 2049.59,337.609 2051.7,337.628 2053.8,337.647 2055.91,337.664 2058.01,337.683 2060.12,337.704 2062.22,337.729 2064.33,337.759 2066.43,337.796 2068.54,337.837 2070.64,337.878 2072.75,337.92 2074.85,337.962 2076.96,338.001 2079.06,338.038 2081.17,338.073 2083.28,338.104 2085.38,338.132 2087.49,338.157 2089.59,338.179 2091.7,338.199 2093.8,338.217 2095.91,338.235 2098.01,338.253 2100.12,338.273 2102.22,338.297 2104.33,338.325 2106.43,338.36 2108.54,338.4 2110.64,338.441 2112.75,338.483 2114.85,338.525 2116.96,338.565 2119.07,338.603 2121.17,338.638 2123.28,338.67 2125.38,338.699 2127.49,338.725 2129.59,338.748 2131.7,338.769 2133.8,338.788 2135.91,338.806 2138.01,338.824 2140.12,338.843 2142.22,338.865 2144.33,338.891 2146.43,338.924 2148.54,338.962 2150.65,339.003 2152.75,339.045 2154.86,339.087 2156.96,339.128 2159.07,339.166 2161.17,339.203 2163.28,339.236 2165.38,339.266 2167.49,339.293 2169.59,339.317 2171.7,339.338 2173.8,339.358 2175.91,339.376 2178.01,339.394 2180.12,339.412 2182.23,339.433 2184.33,339.458 2186.44,339.488 2188.54,339.525 2190.65,339.566 2192.75,339.607 2194.86,339.649 2196.96,339.69 2199.07,339.73 2201.17,339.767 2203.28,339.801 2205.38,339.832 2207.49,339.86 2209.59,339.885 2211.7,339.907 2213.8,339.927 2215.91,339.946 2218.02,339.963 2220.12,339.982 2222.23,340.002 2224.33,340.025 2226.44,340.053 2228.54,340.088 2230.65,340.128 2232.75,340.169 2234.86,340.211 2236.96,340.252 2239.07,340.292 2241.17,340.33 2243.28,340.366 2245.38,340.398 2247.49,340.427 2249.6,340.453 2251.7,340.476 2253.81,340.496 2255.91,340.515 2258.02,340.533 2260.12,340.551 2262.23,340.57 2264.33,340.592 2266.44,340.619 2268.54,340.651 2270.65,340.69 2272.75,340.73 2274.86,340.772 2276.96,340.814 2279.07,340.855 2281.18,340.893 2283.28,340.929 2285.39,340.963 2287.49,340.993 2289.6,341.02 2291.7,341.044 2293.81,341.065 2295.91,341.084 2298.02,341.102 2300.12,341.12 2302.23,341.139 2304.33,341.16 2306.44,341.184 2308.54,341.215 2310.65,341.252 2312.75,341.292 2314.86,341.333 2316.97,341.375 2319.07,341.416 2321.18,341.456 2323.28,341.493 2325.39,341.527 2327.49,341.558 2329.6,341.586 2331.7,341.611 2333.81,341.633 2335.91,341.653 2338.02,341.671 2340.12,341.689 2342.23,341.707 2344.33,341.727 2346.44,341.75 2348.55,341.779 2350.65,341.813 2352.76,341.849 "/>
<circle clip-path="url(#clip372)" cx="317.216" cy="1288.3" r="18" fill="#e26f46" fill-rule="evenodd" fill-opacity="1" stroke="#000000" stroke-opacity="1" stroke-width="3.2"/>
<circle clip-path="url(#clip372)" cx="522.287" cy="356.439" r="18" fill="#e26f46" fill-rule="evenodd" fill-opacity="1" stroke="#000000" stroke-opacity="1" stroke-width="3.2"/>
<circle clip-path="url(#clip372)" cx="682.243" cy="503.575" r="18" fill="#e26f46" fill-rule="evenodd" fill-opacity="1" stroke="#000000" stroke-opacity="1" stroke-width="3.2"/>
<circle clip-path="url(#clip372)" cx="840.148" cy="552.621" r="18" fill="#e26f46" fill-rule="evenodd" fill-opacity="1" stroke="#000000" stroke-opacity="1" stroke-width="3.2"/>
<circle clip-path="url(#clip372)" cx="1583.33" cy="356.439" r="18" fill="#e26f46" fill-rule="evenodd" fill-opacity="1" stroke="#000000" stroke-opacity="1" stroke-width="3.2"/>
<circle clip-path="url(#clip372)" cx="1801.52" cy="209.302" r="18" fill="#e26f46" fill-rule="evenodd" fill-opacity="1" stroke="#000000" stroke-opacity="1" stroke-width="3.2"/>
<circle clip-path="url(#clip372)" cx="1940.56" cy="209.302" r="18" fill="#e26f46" fill-rule="evenodd" fill-opacity="1" stroke="#000000" stroke-opacity="1" stroke-width="3.2"/>
<circle clip-path="url(#clip372)" cx="2106.67" cy="160.256" r="18" fill="#e26f46" fill-rule="evenodd" fill-opacity="1" stroke="#000000" stroke-opacity="1" stroke-width="3.2"/>
<path clip-path="url(#clip370)" d="M1722.95 1379.86 L2282.65 1379.86 L2282.65 1224.34 L1722.95 1224.34  Z" fill="#ffffff" fill-rule="evenodd" fill-opacity="1"/>
<polyline clip-path="url(#clip370)" style="stroke:#000000; stroke-linecap:round; stroke-linejoin:round; stroke-width:4; stroke-opacity:1; fill:none" points="1722.95,1379.86 2282.65,1379.86 2282.65,1224.34 1722.95,1224.34 1722.95,1379.86 "/>
<polyline clip-path="url(#clip370)" style="stroke:#009af9; stroke-linecap:round; stroke-linejoin:round; stroke-width:8; stroke-opacity:1; fill:none" points="1746.32,1276.18 1886.54,1276.18 "/>
<path clip-path="url(#clip370)" d="M1914.58 1276.95 L1914.58 1289.61 L1922.08 1289.61 Q1925.86 1289.61 1927.66 1288.06 Q1929.49 1286.49 1929.49 1283.27 Q1929.49 1280.03 1927.66 1278.5 Q1925.86 1276.95 1922.08 1276.95 L1914.58 1276.95 M1914.58 1262.74 L1914.58 1273.16 L1921.5 1273.16 Q1924.93 1273.16 1926.6 1271.88 Q1928.29 1270.59 1928.29 1267.95 Q1928.29 1265.33 1926.6 1264.04 Q1924.93 1262.74 1921.5 1262.74 L1914.58 1262.74 M1909.91 1258.9 L1921.85 1258.9 Q1927.2 1258.9 1930.09 1261.12 Q1932.99 1263.34 1932.99 1267.44 Q1932.99 1270.61 1931.5 1272.48 Q1930.02 1274.36 1927.15 1274.82 Q1930.6 1275.56 1932.5 1277.92 Q1934.42 1280.26 1934.42 1283.78 Q1934.42 1288.41 1931.27 1290.93 Q1928.12 1293.46 1922.31 1293.46 L1909.91 1293.46 L1909.91 1258.9 Z" fill="#000000" fill-rule="nonzero" fill-opacity="1" /><path clip-path="url(#clip370)" d="M1942.24 1257.44 L1946.5 1257.44 L1946.5 1293.46 L1942.24 1293.46 L1942.24 1257.44 Z" fill="#000000" fill-rule="nonzero" fill-opacity="1" /><path clip-path="url(#clip370)" d="M1965.46 1270.52 Q1962.04 1270.52 1960.05 1273.2 Q1958.05 1275.86 1958.05 1280.52 Q1958.05 1285.17 1960.02 1287.85 Q1962.01 1290.52 1965.46 1290.52 Q1968.86 1290.52 1970.86 1287.83 Q1972.85 1285.15 1972.85 1280.52 Q1972.85 1275.91 1970.86 1273.22 Q1968.86 1270.52 1965.46 1270.52 M1965.46 1266.91 Q1971.02 1266.91 1974.19 1270.52 Q1977.36 1274.13 1977.36 1280.52 Q1977.36 1286.88 1974.19 1290.52 Q1971.02 1294.13 1965.46 1294.13 Q1959.88 1294.13 1956.71 1290.52 Q1953.56 1286.88 1953.56 1280.52 Q1953.56 1274.13 1956.71 1270.52 Q1959.88 1266.91 1965.46 1266.91 Z" fill="#000000" fill-rule="nonzero" fill-opacity="1" /><path clip-path="url(#clip370)" d="M1994.47 1270.52 Q1991.04 1270.52 1989.05 1273.2 Q1987.06 1275.86 1987.06 1280.52 Q1987.06 1285.17 1989.03 1287.85 Q1991.02 1290.52 1994.47 1290.52 Q1997.87 1290.52 1999.86 1287.83 Q2001.85 1285.15 2001.85 1280.52 Q2001.85 1275.91 1999.86 1273.22 Q1997.87 1270.52 1994.47 1270.52 M1994.47 1266.91 Q2000.02 1266.91 2003.19 1270.52 Q2006.36 1274.13 2006.36 1280.52 Q2006.36 1286.88 2003.19 1290.52 Q2000.02 1294.13 1994.47 1294.13 Q1988.89 1294.13 1985.72 1290.52 Q1982.57 1286.88 1982.57 1280.52 Q1982.57 1274.13 1985.72 1270.52 Q1988.89 1266.91 1994.47 1266.91 Z" fill="#000000" fill-rule="nonzero" fill-opacity="1" /><path clip-path="url(#clip370)" d="M2030.48 1271.47 L2030.48 1257.44 L2034.74 1257.44 L2034.74 1293.46 L2030.48 1293.46 L2030.48 1289.57 Q2029.14 1291.88 2027.08 1293.02 Q2025.04 1294.13 2022.17 1294.13 Q2017.48 1294.13 2014.51 1290.38 Q2011.57 1286.63 2011.57 1280.52 Q2011.57 1274.41 2014.51 1270.66 Q2017.48 1266.91 2022.17 1266.91 Q2025.04 1266.91 2027.08 1268.04 Q2029.14 1269.15 2030.48 1271.47 M2015.97 1280.52 Q2015.97 1285.22 2017.89 1287.9 Q2019.84 1290.56 2023.22 1290.56 Q2026.6 1290.56 2028.54 1287.9 Q2030.48 1285.22 2030.48 1280.52 Q2030.48 1275.82 2028.54 1273.16 Q2026.6 1270.47 2023.22 1270.47 Q2019.84 1270.47 2017.89 1273.16 Q2015.97 1275.82 2015.97 1280.52 Z" fill="#000000" fill-rule="nonzero" fill-opacity="1" /><circle clip-path="url(#clip370)" cx="1816.43" cy="1328.02" r="20.9455" fill="#e26f46" fill-rule="evenodd" fill-opacity="1" stroke="#000000" stroke-opacity="1" stroke-width="3.72364"/>
<path clip-path="url(#clip370)" d="M1925.93 1313.91 Q1920.83 1313.91 1917.82 1317.7 Q1914.84 1321.5 1914.84 1328.05 Q1914.84 1334.58 1917.82 1338.37 Q1920.83 1342.17 1925.93 1342.17 Q1931.02 1342.17 1933.98 1338.37 Q1936.97 1334.58 1936.97 1328.05 Q1936.97 1321.5 1933.98 1317.7 Q1931.02 1313.91 1925.93 1313.91 M1925.93 1310.11 Q1933.19 1310.11 1937.55 1315 Q1941.9 1319.86 1941.9 1328.05 Q1941.9 1336.22 1937.55 1341.11 Q1933.19 1345.97 1925.93 1345.97 Q1918.63 1345.97 1914.26 1341.11 Q1909.91 1336.25 1909.91 1328.05 Q1909.91 1319.86 1914.26 1315 Q1918.63 1310.11 1925.93 1310.11 Z" fill="#000000" fill-rule="nonzero" fill-opacity="1" /><path clip-path="url(#clip370)" d="M1967.64 1332.36 Q1967.64 1327.66 1965.69 1325 Q1963.77 1322.31 1960.39 1322.31 Q1957.01 1322.31 1955.07 1325 Q1953.15 1327.66 1953.15 1332.36 Q1953.15 1337.06 1955.07 1339.74 Q1957.01 1342.4 1960.39 1342.4 Q1963.77 1342.4 1965.69 1339.74 Q1967.64 1337.06 1967.64 1332.36 M1953.15 1323.31 Q1954.49 1320.99 1956.53 1319.88 Q1958.59 1318.75 1961.43 1318.75 Q1966.16 1318.75 1969.1 1322.5 Q1972.06 1326.25 1972.06 1332.36 Q1972.06 1338.47 1969.1 1342.22 Q1966.16 1345.97 1961.43 1345.97 Q1958.59 1345.97 1956.53 1344.86 Q1954.49 1343.72 1953.15 1341.41 L1953.15 1345.3 L1948.86 1345.3 L1948.86 1309.28 L1953.15 1309.28 L1953.15 1323.31 Z" fill="#000000" fill-rule="nonzero" fill-opacity="1" /><path clip-path="url(#clip370)" d="M1995.65 1320.13 L1995.65 1324.16 Q1993.84 1323.24 1991.9 1322.77 Q1989.95 1322.31 1987.87 1322.31 Q1984.7 1322.31 1983.1 1323.28 Q1981.53 1324.25 1981.53 1326.2 Q1981.53 1327.68 1982.66 1328.54 Q1983.8 1329.37 1987.22 1330.13 L1988.68 1330.46 Q1993.22 1331.43 1995.11 1333.21 Q1997.04 1334.97 1997.04 1338.14 Q1997.04 1341.75 1994.17 1343.86 Q1991.32 1345.97 1986.32 1345.97 Q1984.23 1345.97 1981.97 1345.55 Q1979.72 1345.16 1977.22 1344.35 L1977.22 1339.95 Q1979.58 1341.18 1981.87 1341.8 Q1984.17 1342.4 1986.41 1342.4 Q1989.42 1342.4 1991.04 1341.38 Q1992.66 1340.34 1992.66 1338.47 Q1992.66 1336.73 1991.48 1335.81 Q1990.32 1334.88 1986.36 1334.02 L1984.88 1333.68 Q1980.92 1332.84 1979.17 1331.13 Q1977.41 1329.39 1977.41 1326.38 Q1977.41 1322.73 1980 1320.74 Q1982.59 1318.75 1987.36 1318.75 Q1989.72 1318.75 1991.8 1319.09 Q1993.89 1319.44 1995.65 1320.13 Z" fill="#000000" fill-rule="nonzero" fill-opacity="1" /><path clip-path="url(#clip370)" d="M2025.99 1331.27 L2025.99 1333.35 L2006.41 1333.35 Q2006.69 1337.75 2009.05 1340.06 Q2011.43 1342.36 2015.67 1342.36 Q2018.12 1342.36 2020.42 1341.75 Q2022.73 1341.15 2025 1339.95 L2025 1343.98 Q2022.71 1344.95 2020.3 1345.46 Q2017.89 1345.97 2015.42 1345.97 Q2009.21 1345.97 2005.58 1342.36 Q2001.97 1338.75 2001.97 1332.59 Q2001.97 1326.22 2005.39 1322.5 Q2008.84 1318.75 2014.67 1318.75 Q2019.91 1318.75 2022.94 1322.13 Q2025.99 1325.48 2025.99 1331.27 M2021.73 1330.02 Q2021.69 1326.52 2019.77 1324.44 Q2017.87 1322.36 2014.72 1322.36 Q2011.16 1322.36 2009 1324.37 Q2006.87 1326.38 2006.55 1330.04 L2021.73 1330.02 Z" fill="#000000" fill-rule="nonzero" fill-opacity="1" /><path clip-path="url(#clip370)" d="M2048.01 1323.35 Q2047.29 1322.94 2046.43 1322.75 Q2045.6 1322.54 2044.58 1322.54 Q2040.97 1322.54 2039.03 1324.9 Q2037.1 1327.24 2037.1 1331.64 L2037.1 1345.3 L2032.82 1345.3 L2032.82 1319.37 L2037.1 1319.37 L2037.1 1323.4 Q2038.45 1321.04 2040.6 1319.9 Q2042.75 1318.75 2045.83 1318.75 Q2046.27 1318.75 2046.8 1318.81 Q2047.34 1318.86 2047.98 1318.98 L2048.01 1323.35 Z" fill="#000000" fill-rule="nonzero" fill-opacity="1" /><path clip-path="url(#clip370)" d="M2049.42 1319.37 L2053.93 1319.37 L2062.04 1341.13 L2070.14 1319.37 L2074.65 1319.37 L2064.93 1345.3 L2059.14 1345.3 L2049.42 1319.37 Z" fill="#000000" fill-rule="nonzero" fill-opacity="1" /><path clip-path="url(#clip370)" d="M2102.71 1331.27 L2102.71 1333.35 L2083.12 1333.35 Q2083.4 1337.75 2085.76 1340.06 Q2088.15 1342.36 2092.38 1342.36 Q2094.84 1342.36 2097.13 1341.75 Q2099.44 1341.15 2101.71 1339.95 L2101.71 1343.98 Q2099.42 1344.95 2097.01 1345.46 Q2094.6 1345.97 2092.13 1345.97 Q2085.92 1345.97 2082.29 1342.36 Q2078.68 1338.75 2078.68 1332.59 Q2078.68 1326.22 2082.1 1322.5 Q2085.55 1318.75 2091.39 1318.75 Q2096.62 1318.75 2099.65 1322.13 Q2102.71 1325.48 2102.71 1331.27 M2098.45 1330.02 Q2098.4 1326.52 2096.48 1324.44 Q2094.58 1322.36 2091.43 1322.36 Q2087.87 1322.36 2085.72 1324.37 Q2083.59 1326.38 2083.26 1330.04 L2098.45 1330.02 Z" fill="#000000" fill-rule="nonzero" fill-opacity="1" /><path clip-path="url(#clip370)" d="M2126.76 1323.31 L2126.76 1309.28 L2131.02 1309.28 L2131.02 1345.3 L2126.76 1345.3 L2126.76 1341.41 Q2125.41 1343.72 2123.35 1344.86 Q2121.32 1345.97 2118.45 1345.97 Q2113.75 1345.97 2110.79 1342.22 Q2107.85 1338.47 2107.85 1332.36 Q2107.85 1326.25 2110.79 1322.5 Q2113.75 1318.75 2118.45 1318.75 Q2121.32 1318.75 2123.35 1319.88 Q2125.41 1320.99 2126.76 1323.31 M2112.24 1332.36 Q2112.24 1337.06 2114.16 1339.74 Q2116.11 1342.4 2119.49 1342.4 Q2122.87 1342.4 2124.81 1339.74 Q2126.76 1337.06 2126.76 1332.36 Q2126.76 1327.66 2124.81 1325 Q2122.87 1322.31 2119.49 1322.31 Q2116.11 1322.31 2114.16 1325 Q2112.24 1327.66 2112.24 1332.36 Z" fill="#000000" fill-rule="nonzero" fill-opacity="1" /><path clip-path="url(#clip370)" d="M2159.72 1314.58 L2159.72 1341.45 L2165.37 1341.45 Q2172.52 1341.45 2175.83 1338.21 Q2179.16 1334.97 2179.16 1327.98 Q2179.16 1321.04 2175.83 1317.82 Q2172.52 1314.58 2165.37 1314.58 L2159.72 1314.58 M2155.04 1310.74 L2164.65 1310.74 Q2174.7 1310.74 2179.4 1314.93 Q2184.09 1319.09 2184.09 1327.98 Q2184.09 1336.92 2179.37 1341.11 Q2174.65 1345.3 2164.65 1345.3 L2155.04 1345.3 L2155.04 1310.74 Z" fill="#000000" fill-rule="nonzero" fill-opacity="1" /><path clip-path="url(#clip370)" d="M2203.15 1332.26 Q2197.98 1332.26 2195.99 1333.44 Q2194 1334.63 2194 1337.47 Q2194 1339.74 2195.48 1341.08 Q2196.99 1342.4 2199.56 1342.4 Q2203.1 1342.4 2205.23 1339.9 Q2207.38 1337.38 2207.38 1333.21 L2207.38 1332.26 L2203.15 1332.26 M2211.64 1330.5 L2211.64 1345.3 L2207.38 1345.3 L2207.38 1341.36 Q2205.92 1343.72 2203.75 1344.86 Q2201.57 1345.97 2198.42 1345.97 Q2194.44 1345.97 2192.08 1343.75 Q2189.74 1341.5 2189.74 1337.75 Q2189.74 1333.38 2192.66 1331.15 Q2195.6 1328.93 2201.41 1328.93 L2207.38 1328.93 L2207.38 1328.51 Q2207.38 1325.57 2205.44 1323.98 Q2203.52 1322.36 2200.02 1322.36 Q2197.8 1322.36 2195.69 1322.89 Q2193.59 1323.42 2191.64 1324.49 L2191.64 1320.55 Q2193.98 1319.65 2196.18 1319.21 Q2198.38 1318.75 2200.46 1318.75 Q2206.09 1318.75 2208.86 1321.66 Q2211.64 1324.58 2211.64 1330.5 Z" fill="#000000" fill-rule="nonzero" fill-opacity="1" /><path clip-path="url(#clip370)" d="M2224.63 1312.01 L2224.63 1319.37 L2233.4 1319.37 L2233.4 1322.68 L2224.63 1322.68 L2224.63 1336.75 Q2224.63 1339.93 2225.48 1340.83 Q2226.36 1341.73 2229.03 1341.73 L2233.4 1341.73 L2233.4 1345.3 L2229.03 1345.3 Q2224.09 1345.3 2222.22 1343.47 Q2220.34 1341.62 2220.34 1336.75 L2220.34 1322.68 L2217.22 1322.68 L2217.22 1319.37 L2220.34 1319.37 L2220.34 1312.01 L2224.63 1312.01 Z" fill="#000000" fill-rule="nonzero" fill-opacity="1" /><path clip-path="url(#clip370)" d="M2250.78 1332.26 Q2245.62 1332.26 2243.63 1333.44 Q2241.64 1334.63 2241.64 1337.47 Q2241.64 1339.74 2243.12 1341.08 Q2244.63 1342.4 2247.2 1342.4 Q2250.74 1342.4 2252.87 1339.9 Q2255.02 1337.38 2255.02 1333.21 L2255.02 1332.26 L2250.78 1332.26 M2259.28 1330.5 L2259.28 1345.3 L2255.02 1345.3 L2255.02 1341.36 Q2253.56 1343.72 2251.39 1344.86 Q2249.21 1345.97 2246.06 1345.97 Q2242.08 1345.97 2239.72 1343.75 Q2237.38 1341.5 2237.38 1337.75 Q2237.38 1333.38 2240.3 1331.15 Q2243.24 1328.93 2249.05 1328.93 L2255.02 1328.93 L2255.02 1328.51 Q2255.02 1325.57 2253.08 1323.98 Q2251.15 1322.36 2247.66 1322.36 Q2245.44 1322.36 2243.33 1322.89 Q2241.22 1323.42 2239.28 1324.49 L2239.28 1320.55 Q2241.62 1319.65 2243.82 1319.21 Q2246.02 1318.75 2248.1 1318.75 Q2253.72 1318.75 2256.5 1321.66 Q2259.28 1324.58 2259.28 1330.5 Z" fill="#000000" fill-rule="nonzero" fill-opacity="1" /></svg>
