<?xml version="1.0" encoding="utf-8"?>
<svg xmlns="http://www.w3.org/2000/svg" xmlns:xlink="http://www.w3.org/1999/xlink" width="600" height="400" viewBox="0 0 2400 1600">
<defs>
  <clipPath id="clip510">
    <rect x="0" y="0" width="2400" height="1600"/>
  </clipPath>
</defs>
<path clip-path="url(#clip510)" d="M0 1600 L2400 1600 L2400 0 L0 0  Z" fill="#ffffff" fill-rule="evenodd" fill-opacity="1"/>
<defs>
  <clipPath id="clip511">
    <rect x="174" y="123" width="2180" height="1301"/>
  </clipPath>
</defs>
<path clip-path="url(#clip510)" d="M219.866 1423.18 L2352.76 1423.18 L2352.76 123.472 L219.866 123.472  Z" fill="#ffffff" fill-rule="evenodd" fill-opacity="1"/>
<defs>
  <clipPath id="clip512">
    <rect x="219" y="123" width="2134" height="1301"/>
  </clipPath>
</defs>
<polyline clip-path="url(#clip512)" style="stroke:#000000; stroke-linecap:round; stroke-linejoin:round; stroke-width:2; stroke-opacity:0.1; fill:none" points="219.866,1423.18 219.866,123.472 "/>
<polyline clip-path="url(#clip512)" style="stroke:#000000; stroke-linecap:round; stroke-linejoin:round; stroke-width:2; stroke-opacity:0.1; fill:none" points="652.852,1423.18 652.852,123.472 "/>
<polyline clip-path="url(#clip512)" style="stroke:#000000; stroke-linecap:round; stroke-linejoin:round; stroke-width:2; stroke-opacity:0.1; fill:none" points="1085.84,1423.18 1085.84,123.472 "/>
<polyline clip-path="url(#clip512)" style="stroke:#000000; stroke-linecap:round; stroke-linejoin:round; stroke-width:2; stroke-opacity:0.1; fill:none" points="1518.82,1423.18 1518.82,123.472 "/>
<polyline clip-path="url(#clip512)" style="stroke:#000000; stroke-linecap:round; stroke-linejoin:round; stroke-width:2; stroke-opacity:0.1; fill:none" points="1951.81,1423.18 1951.81,123.472 "/>
<polyline clip-path="url(#clip512)" style="stroke:#000000; stroke-linecap:round; stroke-linejoin:round; stroke-width:2; stroke-opacity:0.1; fill:none" points="219.866,1386.4 2352.76,1386.4 "/>
<polyline clip-path="url(#clip512)" style="stroke:#000000; stroke-linecap:round; stroke-linejoin:round; stroke-width:2; stroke-opacity:0.1; fill:none" points="219.866,1175.07 2352.76,1175.07 "/>
<polyline clip-path="url(#clip512)" style="stroke:#000000; stroke-linecap:round; stroke-linejoin:round; stroke-width:2; stroke-opacity:0.1; fill:none" points="219.866,963.743 2352.76,963.743 "/>
<polyline clip-path="url(#clip512)" style="stroke:#000000; stroke-linecap:round; stroke-linejoin:round; stroke-width:2; stroke-opacity:0.1; fill:none" points="219.866,752.417 2352.76,752.417 "/>
<polyline clip-path="url(#clip512)" style="stroke:#000000; stroke-linecap:round; stroke-linejoin:round; stroke-width:2; stroke-opacity:0.1; fill:none" points="219.866,541.091 2352.76,541.091 "/>
<polyline clip-path="url(#clip512)" style="stroke:#000000; stroke-linecap:round; stroke-linejoin:round; stroke-width:2; stroke-opacity:0.1; fill:none" points="219.866,329.764 2352.76,329.764 "/>
<polyline clip-path="url(#clip510)" style="stroke:#000000; stroke-linecap:round; stroke-linejoin:round; stroke-width:4; stroke-opacity:1; fill:none" points="219.866,1423.18 2352.76,1423.18 "/>
<polyline clip-path="url(#clip510)" style="stroke:#000000; stroke-linecap:round; stroke-linejoin:round; stroke-width:4; stroke-opacity:1; fill:none" points="219.866,1423.18 219.866,1404.28 "/>
<polyline clip-path="url(#clip510)" style="stroke:#000000; stroke-linecap:round; stroke-linejoin:round; stroke-width:4; stroke-opacity:1; fill:none" points="652.852,1423.18 652.852,1404.28 "/>
<polyline clip-path="url(#clip510)" style="stroke:#000000; stroke-linecap:round; stroke-linejoin:round; stroke-width:4; stroke-opacity:1; fill:none" points="1085.84,1423.18 1085.84,1404.28 "/>
<polyline clip-path="url(#clip510)" style="stroke:#000000; stroke-linecap:round; stroke-linejoin:round; stroke-width:4; stroke-opacity:1; fill:none" points="1518.82,1423.18 1518.82,1404.28 "/>
<polyline clip-path="url(#clip510)" style="stroke:#000000; stroke-linecap:round; stroke-linejoin:round; stroke-width:4; stroke-opacity:1; fill:none" points="1951.81,1423.18 1951.81,1404.28 "/>
<path clip-path="url(#clip510)" d="M219.866 1454.1 Q216.255 1454.1 214.426 1457.66 Q212.621 1461.2 212.621 1468.33 Q212.621 1475.44 214.426 1479.01 Q216.255 1482.55 219.866 1482.55 Q223.501 1482.55 225.306 1479.01 Q227.135 1475.44 227.135 1468.33 Q227.135 1461.2 225.306 1457.66 Q223.501 1454.1 219.866 1454.1 M219.866 1450.39 Q225.676 1450.39 228.732 1455 Q231.811 1459.58 231.811 1468.33 Q231.811 1477.06 228.732 1481.67 Q225.676 1486.25 219.866 1486.25 Q214.056 1486.25 210.977 1481.67 Q207.922 1477.06 207.922 1468.33 Q207.922 1459.58 210.977 1455 Q214.056 1450.39 219.866 1450.39 Z" fill="#000000" fill-rule="nonzero" fill-opacity="1" /><path clip-path="url(#clip510)" d="M632.123 1481.64 L648.443 1481.64 L648.443 1485.58 L626.498 1485.58 L626.498 1481.64 Q629.16 1478.89 633.744 1474.26 Q638.35 1469.61 639.531 1468.27 Q641.776 1465.74 642.656 1464.01 Q643.558 1462.25 643.558 1460.56 Q643.558 1457.8 641.614 1456.07 Q639.693 1454.33 636.591 1454.33 Q634.392 1454.33 631.938 1455.09 Q629.508 1455.86 626.73 1457.41 L626.73 1452.69 Q629.554 1451.55 632.008 1450.97 Q634.461 1450.39 636.498 1450.39 Q641.869 1450.39 645.063 1453.08 Q648.258 1455.77 648.258 1460.26 Q648.258 1462.39 647.447 1464.31 Q646.66 1466.2 644.554 1468.8 Q643.975 1469.47 640.873 1472.69 Q637.771 1475.88 632.123 1481.64 Z" fill="#000000" fill-rule="nonzero" fill-opacity="1" /><path clip-path="url(#clip510)" d="M658.304 1451.02 L676.66 1451.02 L676.66 1454.96 L662.586 1454.96 L662.586 1463.43 Q663.605 1463.08 664.623 1462.92 Q665.642 1462.73 666.66 1462.73 Q672.447 1462.73 675.827 1465.9 Q679.206 1469.08 679.206 1474.49 Q679.206 1480.07 675.734 1483.17 Q672.262 1486.25 665.943 1486.25 Q663.767 1486.25 661.498 1485.88 Q659.253 1485.51 656.845 1484.77 L656.845 1480.07 Q658.929 1481.2 661.151 1481.76 Q663.373 1482.32 665.85 1482.32 Q669.855 1482.32 672.193 1480.21 Q674.531 1478.1 674.531 1474.49 Q674.531 1470.88 672.193 1468.77 Q669.855 1466.67 665.85 1466.67 Q663.975 1466.67 662.1 1467.08 Q660.248 1467.5 658.304 1468.38 L658.304 1451.02 Z" fill="#000000" fill-rule="nonzero" fill-opacity="1" /><path clip-path="url(#clip510)" d="M1060.54 1451.02 L1078.89 1451.02 L1078.89 1454.96 L1064.82 1454.96 L1064.82 1463.43 Q1065.84 1463.08 1066.86 1462.92 Q1067.88 1462.73 1068.89 1462.73 Q1074.68 1462.73 1078.06 1465.9 Q1081.44 1469.08 1081.44 1474.49 Q1081.44 1480.07 1077.97 1483.17 Q1074.5 1486.25 1068.18 1486.25 Q1066 1486.25 1063.73 1485.88 Q1061.49 1485.51 1059.08 1484.77 L1059.08 1480.07 Q1061.16 1481.2 1063.38 1481.76 Q1065.61 1482.32 1068.08 1482.32 Q1072.09 1482.32 1074.43 1480.21 Q1076.76 1478.1 1076.76 1474.49 Q1076.76 1470.88 1074.43 1468.77 Q1072.09 1466.67 1068.08 1466.67 Q1066.21 1466.67 1064.33 1467.08 Q1062.48 1467.5 1060.54 1468.38 L1060.54 1451.02 Z" fill="#000000" fill-rule="nonzero" fill-opacity="1" /><path clip-path="url(#clip510)" d="M1100.65 1454.1 Q1097.04 1454.1 1095.21 1457.66 Q1093.41 1461.2 1093.41 1468.33 Q1093.41 1475.44 1095.21 1479.01 Q1097.04 1482.55 1100.65 1482.55 Q1104.29 1482.55 1106.09 1479.01 Q1107.92 1475.44 1107.92 1468.33 Q1107.92 1461.2 1106.09 1457.66 Q1104.29 1454.1 1100.65 1454.1 M1100.65 1450.39 Q1106.46 1450.39 1109.52 1455 Q1112.6 1459.58 1112.6 1468.33 Q1112.6 1477.06 1109.52 1481.67 Q1106.46 1486.25 1100.65 1486.25 Q1094.84 1486.25 1091.76 1481.67 Q1088.71 1477.06 1088.71 1468.33 Q1088.71 1459.58 1091.76 1455 Q1094.84 1450.39 1100.65 1450.39 Z" fill="#000000" fill-rule="nonzero" fill-opacity="1" /><path clip-path="url(#clip510)" d="M1492.68 1451.02 L1514.9 1451.02 L1514.9 1453.01 L1502.35 1485.58 L1497.47 1485.58 L1509.28 1454.96 L1492.68 1454.96 L1492.68 1451.02 Z" fill="#000000" fill-rule="nonzero" fill-opacity="1" /><path clip-path="url(#clip510)" d="M1524.07 1451.02 L1542.42 1451.02 L1542.42 1454.96 L1528.35 1454.96 L1528.35 1463.43 Q1529.37 1463.08 1530.39 1462.92 Q1531.41 1462.73 1532.42 1462.73 Q1538.21 1462.73 1541.59 1465.9 Q1544.97 1469.08 1544.97 1474.49 Q1544.97 1480.07 1541.5 1483.17 Q1538.03 1486.25 1531.71 1486.25 Q1529.53 1486.25 1527.26 1485.88 Q1525.02 1485.51 1522.61 1484.77 L1522.61 1480.07 Q1524.69 1481.2 1526.91 1481.76 Q1529.14 1482.32 1531.61 1482.32 Q1535.62 1482.32 1537.96 1480.21 Q1540.29 1478.1 1540.29 1474.49 Q1540.29 1470.88 1537.96 1468.77 Q1535.62 1466.67 1531.61 1466.67 Q1529.74 1466.67 1527.86 1467.08 Q1526.01 1467.5 1524.07 1468.38 L1524.07 1451.02 Z" fill="#000000" fill-rule="nonzero" fill-opacity="1" /><path clip-path="url(#clip510)" d="M1911.42 1481.64 L1919.06 1481.64 L1919.06 1455.28 L1910.75 1456.95 L1910.75 1452.69 L1919.01 1451.02 L1923.69 1451.02 L1923.69 1481.64 L1931.32 1481.64 L1931.32 1485.58 L1911.42 1485.58 L1911.42 1481.64 Z" fill="#000000" fill-rule="nonzero" fill-opacity="1" /><path clip-path="url(#clip510)" d="M1950.77 1454.1 Q1947.16 1454.1 1945.33 1457.66 Q1943.52 1461.2 1943.52 1468.33 Q1943.52 1475.44 1945.33 1479.01 Q1947.16 1482.55 1950.77 1482.55 Q1954.4 1482.55 1956.21 1479.01 Q1958.04 1475.44 1958.04 1468.33 Q1958.04 1461.2 1956.21 1457.66 Q1954.4 1454.1 1950.77 1454.1 M1950.77 1450.39 Q1956.58 1450.39 1959.63 1455 Q1962.71 1459.58 1962.71 1468.33 Q1962.71 1477.06 1959.63 1481.67 Q1956.58 1486.25 1950.77 1486.25 Q1944.96 1486.25 1941.88 1481.67 Q1938.82 1477.06 1938.82 1468.33 Q1938.82 1459.58 1941.88 1455 Q1944.96 1450.39 1950.77 1450.39 Z" fill="#000000" fill-rule="nonzero" fill-opacity="1" /><path clip-path="url(#clip510)" d="M1980.93 1454.1 Q1977.32 1454.1 1975.49 1457.66 Q1973.69 1461.2 1973.69 1468.33 Q1973.69 1475.44 1975.49 1479.01 Q1977.32 1482.55 1980.93 1482.55 Q1984.57 1482.55 1986.37 1479.01 Q1988.2 1475.44 1988.2 1468.33 Q1988.2 1461.2 1986.37 1457.66 Q1984.57 1454.1 1980.93 1454.1 M1980.93 1450.39 Q1986.74 1450.39 1989.8 1455 Q1992.88 1459.58 1992.88 1468.33 Q1992.88 1477.06 1989.8 1481.67 Q1986.74 1486.25 1980.93 1486.25 Q1975.12 1486.25 1972.04 1481.67 Q1968.99 1477.06 1968.99 1468.33 Q1968.99 1459.58 1972.04 1455 Q1975.12 1450.39 1980.93 1450.39 Z" fill="#000000" fill-rule="nonzero" fill-opacity="1" /><path clip-path="url(#clip510)" d="M1208.19 1520.52 L1248.39 1520.52 L1248.39 1525.93 L1231.52 1525.93 L1231.52 1568.04 L1225.06 1568.04 L1225.06 1525.93 L1208.19 1525.93 L1208.19 1520.52 Z" fill="#000000" fill-rule="nonzero" fill-opacity="1" /><path clip-path="url(#clip510)" d="M1252.33 1532.4 L1258.19 1532.4 L1258.19 1568.04 L1252.33 1568.04 L1252.33 1532.4 M1252.33 1518.52 L1258.19 1518.52 L1258.19 1525.93 L1252.33 1525.93 L1252.33 1518.52 Z" fill="#000000" fill-rule="nonzero" fill-opacity="1" /><path clip-path="url(#clip510)" d="M1298.2 1539.24 Q1300.4 1535.29 1303.45 1533.41 Q1306.51 1531.54 1310.64 1531.54 Q1316.21 1531.54 1319.24 1535.45 Q1322.26 1539.33 1322.26 1546.53 L1322.26 1568.04 L1316.37 1568.04 L1316.37 1546.72 Q1316.37 1541.59 1314.56 1539.11 Q1312.74 1536.63 1309.02 1536.63 Q1304.47 1536.63 1301.83 1539.65 Q1299.19 1542.68 1299.19 1547.9 L1299.19 1568.04 L1293.3 1568.04 L1293.3 1546.72 Q1293.3 1541.56 1291.48 1539.11 Q1289.67 1536.63 1285.88 1536.63 Q1281.39 1536.63 1278.75 1539.68 Q1276.11 1542.71 1276.11 1547.9 L1276.11 1568.04 L1270.22 1568.04 L1270.22 1532.4 L1276.11 1532.4 L1276.11 1537.93 Q1278.12 1534.66 1280.92 1533.1 Q1283.72 1531.54 1287.57 1531.54 Q1291.45 1531.54 1294.16 1533.51 Q1296.89 1535.48 1298.2 1539.24 Z" fill="#000000" fill-rule="nonzero" fill-opacity="1" /><path clip-path="url(#clip510)" d="M1364.43 1548.76 L1364.43 1551.62 L1337.51 1551.62 Q1337.89 1557.67 1341.14 1560.85 Q1344.41 1564 1350.24 1564 Q1353.61 1564 1356.76 1563.17 Q1359.95 1562.35 1363.07 1560.69 L1363.07 1566.23 Q1359.91 1567.57 1356.6 1568.27 Q1353.29 1568.97 1349.89 1568.97 Q1341.36 1568.97 1336.36 1564 Q1331.4 1559.04 1331.4 1550.57 Q1331.4 1541.82 1336.11 1536.69 Q1340.85 1531.54 1348.87 1531.54 Q1356.06 1531.54 1360.23 1536.18 Q1364.43 1540.8 1364.43 1548.76 M1358.58 1547.04 Q1358.51 1542.23 1355.87 1539.37 Q1353.26 1536.5 1348.93 1536.5 Q1344.03 1536.5 1341.07 1539.27 Q1338.14 1542.04 1337.7 1547.07 L1358.58 1547.04 Z" fill="#000000" fill-rule="nonzero" fill-opacity="1" /><polyline clip-path="url(#clip510)" style="stroke:#000000; stroke-linecap:round; stroke-linejoin:round; stroke-width:4; stroke-opacity:1; fill:none" points="219.866,1423.18 219.866,123.472 "/>
<polyline clip-path="url(#clip510)" style="stroke:#000000; stroke-linecap:round; stroke-linejoin:round; stroke-width:4; stroke-opacity:1; fill:none" points="219.866,1386.4 238.764,1386.4 "/>
<polyline clip-path="url(#clip510)" style="stroke:#000000; stroke-linecap:round; stroke-linejoin:round; stroke-width:4; stroke-opacity:1; fill:none" points="219.866,1175.07 238.764,1175.07 "/>
<polyline clip-path="url(#clip510)" style="stroke:#000000; stroke-linecap:round; stroke-linejoin:round; stroke-width:4; stroke-opacity:1; fill:none" points="219.866,963.743 238.764,963.743 "/>
<polyline clip-path="url(#clip510)" style="stroke:#000000; stroke-linecap:round; stroke-linejoin:round; stroke-width:4; stroke-opacity:1; fill:none" points="219.866,752.417 238.764,752.417 "/>
<polyline clip-path="url(#clip510)" style="stroke:#000000; stroke-linecap:round; stroke-linejoin:round; stroke-width:4; stroke-opacity:1; fill:none" points="219.866,541.091 238.764,541.091 "/>
<polyline clip-path="url(#clip510)" style="stroke:#000000; stroke-linecap:round; stroke-linejoin:round; stroke-width:4; stroke-opacity:1; fill:none" points="219.866,329.764 238.764,329.764 "/>
<path clip-path="url(#clip510)" d="M126.691 1372.19 Q123.08 1372.19 121.251 1375.76 Q119.445 1379.3 119.445 1386.43 Q119.445 1393.54 121.251 1397.1 Q123.08 1400.64 126.691 1400.64 Q130.325 1400.64 132.13 1397.1 Q133.959 1393.54 133.959 1386.43 Q133.959 1379.3 132.13 1375.76 Q130.325 1372.19 126.691 1372.19 M126.691 1368.49 Q132.501 1368.49 135.556 1373.1 Q138.635 1377.68 138.635 1386.43 Q138.635 1395.16 135.556 1399.76 Q132.501 1404.35 126.691 1404.35 Q120.88 1404.35 117.802 1399.76 Q114.746 1395.16 114.746 1386.43 Q114.746 1377.68 117.802 1373.1 Q120.88 1368.49 126.691 1368.49 Z" fill="#000000" fill-rule="nonzero" fill-opacity="1" /><path clip-path="url(#clip510)" d="M146.853 1397.8 L151.737 1397.8 L151.737 1403.68 L146.853 1403.68 L146.853 1397.8 Z" fill="#000000" fill-rule="nonzero" fill-opacity="1" /><path clip-path="url(#clip510)" d="M171.922 1372.19 Q168.311 1372.19 166.482 1375.76 Q164.677 1379.3 164.677 1386.43 Q164.677 1393.54 166.482 1397.1 Q168.311 1400.64 171.922 1400.64 Q175.556 1400.64 177.362 1397.1 Q179.19 1393.54 179.19 1386.43 Q179.19 1379.3 177.362 1375.76 Q175.556 1372.19 171.922 1372.19 M171.922 1368.49 Q177.732 1368.49 180.788 1373.1 Q183.866 1377.68 183.866 1386.43 Q183.866 1395.16 180.788 1399.76 Q177.732 1404.35 171.922 1404.35 Q166.112 1404.35 163.033 1399.76 Q159.978 1395.16 159.978 1386.43 Q159.978 1377.68 163.033 1373.1 Q166.112 1368.49 171.922 1368.49 Z" fill="#000000" fill-rule="nonzero" fill-opacity="1" /><path clip-path="url(#clip510)" d="M127.917 1160.87 Q124.306 1160.87 122.478 1164.43 Q120.672 1167.97 120.672 1175.1 Q120.672 1182.21 122.478 1185.78 Q124.306 1189.32 127.917 1189.32 Q131.552 1189.32 133.357 1185.78 Q135.186 1182.21 135.186 1175.1 Q135.186 1167.97 133.357 1164.43 Q131.552 1160.87 127.917 1160.87 M127.917 1157.16 Q133.728 1157.16 136.783 1161.77 Q139.862 1166.35 139.862 1175.1 Q139.862 1183.83 136.783 1188.44 Q133.728 1193.02 127.917 1193.02 Q122.107 1193.02 119.029 1188.44 Q115.973 1183.83 115.973 1175.1 Q115.973 1166.35 119.029 1161.77 Q122.107 1157.16 127.917 1157.16 Z" fill="#000000" fill-rule="nonzero" fill-opacity="1" /><path clip-path="url(#clip510)" d="M148.079 1186.47 L152.964 1186.47 L152.964 1192.35 L148.079 1192.35 L148.079 1186.47 Z" fill="#000000" fill-rule="nonzero" fill-opacity="1" /><path clip-path="url(#clip510)" d="M163.959 1188.41 L171.598 1188.41 L171.598 1162.05 L163.288 1163.72 L163.288 1159.46 L171.552 1157.79 L176.227 1157.79 L176.227 1188.41 L183.866 1188.41 L183.866 1192.35 L163.959 1192.35 L163.959 1188.41 Z" fill="#000000" fill-rule="nonzero" fill-opacity="1" /><path clip-path="url(#clip510)" d="M128.288 949.542 Q124.677 949.542 122.848 953.107 Q121.043 956.648 121.043 963.778 Q121.043 970.884 122.848 974.449 Q124.677 977.991 128.288 977.991 Q131.922 977.991 133.728 974.449 Q135.556 970.884 135.556 963.778 Q135.556 956.648 133.728 953.107 Q131.922 949.542 128.288 949.542 M128.288 945.838 Q134.098 945.838 137.154 950.445 Q140.232 955.028 140.232 963.778 Q140.232 972.505 137.154 977.111 Q134.098 981.694 128.288 981.694 Q122.478 981.694 119.399 977.111 Q116.343 972.505 116.343 963.778 Q116.343 955.028 119.399 950.445 Q122.478 945.838 128.288 945.838 Z" fill="#000000" fill-rule="nonzero" fill-opacity="1" /><path clip-path="url(#clip510)" d="M148.45 975.144 L153.334 975.144 L153.334 981.023 L148.45 981.023 L148.45 975.144 Z" fill="#000000" fill-rule="nonzero" fill-opacity="1" /><path clip-path="url(#clip510)" d="M167.547 977.088 L183.866 977.088 L183.866 981.023 L161.922 981.023 L161.922 977.088 Q164.584 974.333 169.167 969.704 Q173.774 965.051 174.954 963.708 Q177.2 961.185 178.079 959.449 Q178.982 957.69 178.982 956 Q178.982 953.246 177.038 951.509 Q175.116 949.773 172.014 949.773 Q169.815 949.773 167.362 950.537 Q164.931 951.301 162.153 952.852 L162.153 948.13 Q164.977 946.996 167.431 946.417 Q169.885 945.838 171.922 945.838 Q177.292 945.838 180.487 948.523 Q183.681 951.209 183.681 955.699 Q183.681 957.829 182.871 959.75 Q182.084 961.648 179.977 964.241 Q179.399 964.912 176.297 968.13 Q173.195 971.324 167.547 977.088 Z" fill="#000000" fill-rule="nonzero" fill-opacity="1" /><path clip-path="url(#clip510)" d="M127.339 738.216 Q123.728 738.216 121.899 741.78 Q120.093 745.322 120.093 752.452 Q120.093 759.558 121.899 763.123 Q123.728 766.665 127.339 766.665 Q130.973 766.665 132.779 763.123 Q134.607 759.558 134.607 752.452 Q134.607 745.322 132.779 741.78 Q130.973 738.216 127.339 738.216 M127.339 734.512 Q133.149 734.512 136.204 739.118 Q139.283 743.702 139.283 752.452 Q139.283 761.178 136.204 765.785 Q133.149 770.368 127.339 770.368 Q121.529 770.368 118.45 765.785 Q115.394 761.178 115.394 752.452 Q115.394 743.702 118.45 739.118 Q121.529 734.512 127.339 734.512 Z" fill="#000000" fill-rule="nonzero" fill-opacity="1" /><path clip-path="url(#clip510)" d="M147.501 763.817 L152.385 763.817 L152.385 769.697 L147.501 769.697 L147.501 763.817 Z" fill="#000000" fill-rule="nonzero" fill-opacity="1" /><path clip-path="url(#clip510)" d="M176.737 751.063 Q180.093 751.78 181.968 754.049 Q183.866 756.317 183.866 759.651 Q183.866 764.766 180.348 767.567 Q176.829 770.368 170.348 770.368 Q168.172 770.368 165.857 769.928 Q163.565 769.512 161.112 768.655 L161.112 764.141 Q163.056 765.276 165.371 765.854 Q167.686 766.433 170.209 766.433 Q174.607 766.433 176.899 764.697 Q179.214 762.961 179.214 759.651 Q179.214 756.595 177.061 754.882 Q174.931 753.146 171.112 753.146 L167.084 753.146 L167.084 749.304 L171.297 749.304 Q174.746 749.304 176.575 747.938 Q178.403 746.549 178.403 743.956 Q178.403 741.294 176.505 739.882 Q174.63 738.447 171.112 738.447 Q169.19 738.447 166.991 738.864 Q164.792 739.28 162.153 740.16 L162.153 735.993 Q164.815 735.253 167.13 734.882 Q169.468 734.512 171.528 734.512 Q176.852 734.512 179.954 736.942 Q183.056 739.35 183.056 743.47 Q183.056 746.341 181.413 748.331 Q179.769 750.299 176.737 751.063 Z" fill="#000000" fill-rule="nonzero" fill-opacity="1" /><path clip-path="url(#clip510)" d="M126.205 526.889 Q122.593 526.889 120.765 530.454 Q118.959 533.996 118.959 541.125 Q118.959 548.232 120.765 551.797 Q122.593 555.338 126.205 555.338 Q129.839 555.338 131.644 551.797 Q133.473 548.232 133.473 541.125 Q133.473 533.996 131.644 530.454 Q129.839 526.889 126.205 526.889 M126.205 523.186 Q132.015 523.186 135.07 527.792 Q138.149 532.375 138.149 541.125 Q138.149 549.852 135.07 554.459 Q132.015 559.042 126.205 559.042 Q120.394 559.042 117.316 554.459 Q114.26 549.852 114.26 541.125 Q114.26 532.375 117.316 527.792 Q120.394 523.186 126.205 523.186 Z" fill="#000000" fill-rule="nonzero" fill-opacity="1" /><path clip-path="url(#clip510)" d="M146.366 552.491 L151.251 552.491 L151.251 558.371 L146.366 558.371 L146.366 552.491 Z" fill="#000000" fill-rule="nonzero" fill-opacity="1" /><path clip-path="url(#clip510)" d="M174.283 527.885 L162.477 546.334 L174.283 546.334 L174.283 527.885 M173.056 523.811 L178.936 523.811 L178.936 546.334 L183.866 546.334 L183.866 550.223 L178.936 550.223 L178.936 558.371 L174.283 558.371 L174.283 550.223 L158.681 550.223 L158.681 545.709 L173.056 523.811 Z" fill="#000000" fill-rule="nonzero" fill-opacity="1" /><path clip-path="url(#clip510)" d="M127.686 315.563 Q124.075 315.563 122.246 319.128 Q120.441 322.67 120.441 329.799 Q120.441 336.906 122.246 340.47 Q124.075 344.012 127.686 344.012 Q131.32 344.012 133.126 340.47 Q134.954 336.906 134.954 329.799 Q134.954 322.67 133.126 319.128 Q131.32 315.563 127.686 315.563 M127.686 311.859 Q133.496 311.859 136.552 316.466 Q139.63 321.049 139.63 329.799 Q139.63 338.526 136.552 343.132 Q133.496 347.716 127.686 347.716 Q121.876 347.716 118.797 343.132 Q115.742 338.526 115.742 329.799 Q115.742 321.049 118.797 316.466 Q121.876 311.859 127.686 311.859 Z" fill="#000000" fill-rule="nonzero" fill-opacity="1" /><path clip-path="url(#clip510)" d="M147.848 341.165 L152.732 341.165 L152.732 347.044 L147.848 347.044 L147.848 341.165 Z" fill="#000000" fill-rule="nonzero" fill-opacity="1" /><path clip-path="url(#clip510)" d="M162.964 312.484 L181.32 312.484 L181.32 316.42 L167.246 316.42 L167.246 324.892 Q168.264 324.545 169.283 324.382 Q170.302 324.197 171.32 324.197 Q177.107 324.197 180.487 327.369 Q183.866 330.54 183.866 335.957 Q183.866 341.535 180.394 344.637 Q176.922 347.716 170.602 347.716 Q168.427 347.716 166.158 347.345 Q163.913 346.975 161.505 346.234 L161.505 341.535 Q163.589 342.669 165.811 343.225 Q168.033 343.781 170.51 343.781 Q174.514 343.781 176.852 341.674 Q179.19 339.568 179.19 335.957 Q179.19 332.345 176.852 330.239 Q174.514 328.132 170.51 328.132 Q168.635 328.132 166.76 328.549 Q164.908 328.966 162.964 329.845 L162.964 312.484 Z" fill="#000000" fill-rule="nonzero" fill-opacity="1" /><path clip-path="url(#clip510)" d="M29.7248 956.945 L35.1993 956.945 Q33.8307 959.427 33.1623 961.942 Q32.4621 964.424 32.4621 966.971 Q32.4621 972.668 36.0905 975.819 Q39.6872 978.97 46.212 978.97 Q52.7369 978.97 56.3653 975.819 Q59.9619 972.668 59.9619 966.971 Q59.9619 964.424 59.2935 961.942 Q58.5933 959.427 57.2247 956.945 L62.6355 956.945 Q63.7814 959.396 64.3543 962.037 Q64.9272 964.647 64.9272 967.607 Q64.9272 975.66 59.8664 980.402 Q54.8057 985.145 46.212 985.145 Q37.491 985.145 32.4939 980.371 Q27.4968 975.564 27.4968 967.225 Q27.4968 964.52 28.0697 961.942 Q28.6108 959.364 29.7248 956.945 Z" fill="#000000" fill-rule="nonzero" fill-opacity="1" /><path clip-path="url(#clip510)" d="M16.4842 953.094 L16.4842 912.894 L21.895 912.894 L21.895 929.763 L64.0042 929.763 L64.0042 936.224 L21.895 936.224 L21.895 953.094 L16.4842 953.094 Z" fill="#000000" fill-rule="nonzero" fill-opacity="1" /><path clip-path="url(#clip510)" d="M42.4881 877.31 L64.0042 877.31 L64.0042 883.166 L42.679 883.166 Q37.6183 883.166 35.1038 885.14 Q32.5894 887.113 32.5894 891.06 Q32.5894 895.802 35.6131 898.539 Q38.6368 901.277 43.8567 901.277 L64.0042 901.277 L64.0042 907.165 L28.3562 907.165 L28.3562 901.277 L33.8944 901.277 Q30.6797 899.176 29.0883 896.343 Q27.4968 893.479 27.4968 889.755 Q27.4968 883.612 31.3163 880.461 Q35.1038 877.31 42.4881 877.31 Z" fill="#000000" fill-rule="nonzero" fill-opacity="1" /><path clip-path="url(#clip510)" d="M16.4842 871.963 L16.4842 831.763 L21.895 831.763 L21.895 848.632 L64.0042 848.632 L64.0042 855.093 L21.895 855.093 L21.895 871.963 L16.4842 871.963 Z" fill="#000000" fill-rule="nonzero" fill-opacity="1" /><path clip-path="url(#clip510)" d="M14.479 805.632 L14.479 792.137 L19.0304 792.137 L19.0304 799.775 L68.0464 799.775 L68.0464 792.137 L72.5979 792.137 L72.5979 805.632 L14.479 805.632 Z" fill="#000000" fill-rule="nonzero" fill-opacity="1" /><path clip-path="url(#clip510)" d="M42.4881 750.027 L64.0042 750.027 L64.0042 755.884 L42.679 755.884 Q37.6183 755.884 35.1038 757.857 Q32.5894 759.831 32.5894 763.777 Q32.5894 768.52 35.6131 771.257 Q38.6368 773.994 43.8567 773.994 L64.0042 773.994 L64.0042 779.883 L28.3562 779.883 L28.3562 773.994 L33.8944 773.994 Q30.6797 771.894 29.0883 769.061 Q27.4968 766.196 27.4968 762.472 Q27.4968 756.33 31.3163 753.179 Q35.1038 750.027 42.4881 750.027 Z" fill="#000000" fill-rule="nonzero" fill-opacity="1" /><path clip-path="url(#clip510)" d="M45.7664 714.889 Q39.4007 714.889 35.8996 717.531 Q32.3984 720.141 32.3984 724.883 Q32.3984 729.594 35.8996 732.235 Q39.4007 734.845 45.7664 734.845 Q52.1003 734.845 55.6014 732.235 Q59.1026 729.594 59.1026 724.883 Q59.1026 720.141 55.6014 717.531 Q52.1003 714.889 45.7664 714.889 M59.58 709.032 Q68.683 709.032 73.1071 713.075 Q77.5631 717.117 77.5631 725.456 Q77.5631 728.543 77.0857 731.28 Q76.6401 734.018 75.6852 736.596 L69.9879 736.596 Q71.3884 734.018 72.0568 731.503 Q72.7252 728.989 72.7252 726.379 Q72.7252 720.618 69.7015 717.753 Q66.7096 714.889 60.6303 714.889 L57.7339 714.889 Q60.885 716.703 62.4446 719.536 Q64.0042 722.369 64.0042 726.315 Q64.0042 732.872 59.0071 736.882 Q54.01 740.893 45.7664 740.893 Q37.491 740.893 32.4939 736.882 Q27.4968 732.872 27.4968 726.315 Q27.4968 722.369 29.0564 719.536 Q30.616 716.703 33.7671 714.889 L28.3562 714.889 L28.3562 709.032 L59.58 709.032 Z" fill="#000000" fill-rule="nonzero" fill-opacity="1" /><path clip-path="url(#clip510)" d="M16.4842 686.561 L16.4842 681.151 L70.0516 697.701 L70.0516 703.112 L16.4842 686.561 Z" fill="#000000" fill-rule="nonzero" fill-opacity="1" /><path clip-path="url(#clip510)" d="M35.1993 647.253 Q31.2526 645.057 29.3747 642.001 Q27.4968 638.946 27.4968 634.808 Q27.4968 629.238 31.4117 626.215 Q35.2948 623.191 42.4881 623.191 L64.0042 623.191 L64.0042 629.079 L42.679 629.079 Q37.5546 629.079 35.072 630.893 Q32.5894 632.708 32.5894 636.431 Q32.5894 640.983 35.6131 643.625 Q38.6368 646.266 43.8567 646.266 L64.0042 646.266 L64.0042 652.155 L42.679 652.155 Q37.5228 652.155 35.072 653.969 Q32.5894 655.783 32.5894 659.571 Q32.5894 664.059 35.6449 666.7 Q38.6686 669.342 43.8567 669.342 L64.0042 669.342 L64.0042 675.23 L28.3562 675.23 L28.3562 669.342 L33.8944 669.342 Q30.616 667.337 29.0564 664.536 Q27.4968 661.735 27.4968 657.884 Q27.4968 654.001 29.4702 651.295 Q31.4436 648.558 35.1993 647.253 Z" fill="#000000" fill-rule="nonzero" fill-opacity="1" /><path clip-path="url(#clip510)" d="M16.4842 611.255 L16.4842 604.826 L58.5933 604.826 L58.5933 581.686 L64.0042 581.686 L64.0042 611.255 L16.4842 611.255 Z" fill="#000000" fill-rule="nonzero" fill-opacity="1" /><path clip-path="url(#clip510)" d="M14.479 561.507 L72.5979 561.507 L72.5979 575.002 L68.0464 575.002 L68.0464 567.395 L19.0304 567.395 L19.0304 575.002 L14.479 575.002 L14.479 561.507 Z" fill="#000000" fill-rule="nonzero" fill-opacity="1" /><path clip-path="url(#clip510)" d="M1012 18.8205 L1012 41.5461 L1022.29 41.5461 Q1028.01 41.5461 1031.12 38.5889 Q1034.24 35.6318 1034.24 30.163 Q1034.24 24.7348 1031.12 21.7777 Q1028.01 18.8205 1022.29 18.8205 L1012 18.8205 M1003.82 12.096 L1022.29 12.096 Q1032.46 12.096 1037.65 16.714 Q1042.87 21.2916 1042.87 30.163 Q1042.87 39.1155 1037.65 43.6931 Q1032.46 48.2706 1022.29 48.2706 L1012 48.2706 L1012 72.576 L1003.82 72.576 L1003.82 12.096 Z" fill="#000000" fill-rule="nonzero" fill-opacity="1" /><path clip-path="url(#clip510)" d="M1070.42 49.7694 Q1061.38 49.7694 1057.9 51.8354 Q1054.42 53.9013 1054.42 58.8839 Q1054.42 62.8538 1057.01 65.2034 Q1059.64 67.5124 1064.14 67.5124 Q1070.34 67.5124 1074.06 63.1374 Q1077.83 58.7219 1077.83 51.4303 L1077.83 49.7694 L1070.42 49.7694 M1085.28 46.6907 L1085.28 72.576 L1077.83 72.576 L1077.83 65.6895 Q1075.28 69.8214 1071.47 71.8063 Q1067.66 73.7508 1062.15 73.7508 Q1055.19 73.7508 1051.05 69.8619 Q1046.96 65.9325 1046.96 59.3701 Q1046.96 51.7138 1052.07 47.825 Q1057.21 43.9361 1067.38 43.9361 L1077.83 43.9361 L1077.83 43.2069 Q1077.83 38.0623 1074.43 35.2672 Q1071.07 32.4315 1064.95 32.4315 Q1061.06 32.4315 1057.37 33.3632 Q1053.69 34.295 1050.29 36.1584 L1050.29 29.2718 Q1054.38 27.692 1058.22 26.9223 Q1062.07 26.1121 1065.72 26.1121 Q1075.56 26.1121 1080.42 31.2163 Q1085.28 36.3204 1085.28 46.6907 Z" fill="#000000" fill-rule="nonzero" fill-opacity="1" /><path clip-path="url(#clip510)" d="M1108.01 14.324 L1108.01 27.2059 L1123.36 27.2059 L1123.36 32.9987 L1108.01 32.9987 L1108.01 57.6282 Q1108.01 63.1779 1109.51 64.7578 Q1111.05 66.3376 1115.71 66.3376 L1123.36 66.3376 L1123.36 72.576 L1115.71 72.576 Q1107.08 72.576 1103.8 69.3758 Q1100.52 66.1351 1100.52 57.6282 L1100.52 32.9987 L1095.05 32.9987 L1095.05 27.2059 L1100.52 27.2059 L1100.52 14.324 L1108.01 14.324 Z" fill="#000000" fill-rule="nonzero" fill-opacity="1" /><path clip-path="url(#clip510)" d="M1133.17 27.2059 L1140.62 27.2059 L1140.62 72.576 L1133.17 72.576 L1133.17 27.2059 M1133.17 9.54393 L1140.62 9.54393 L1140.62 18.9825 L1133.17 18.9825 L1133.17 9.54393 Z" fill="#000000" fill-rule="nonzero" fill-opacity="1" /><path clip-path="url(#clip510)" d="M1195.02 48.0275 L1195.02 51.6733 L1160.75 51.6733 Q1161.24 59.3701 1165.37 63.421 Q1169.54 67.4314 1176.96 67.4314 Q1181.25 67.4314 1185.26 66.3781 Q1189.31 65.3249 1193.28 63.2184 L1193.28 70.267 Q1189.27 71.9684 1185.06 72.8596 Q1180.85 73.7508 1176.51 73.7508 Q1165.65 73.7508 1159.29 67.4314 Q1152.98 61.1119 1152.98 50.3365 Q1152.98 39.1965 1158.97 32.6746 Q1165.01 26.1121 1175.22 26.1121 Q1184.37 26.1121 1189.68 32.0264 Q1195.02 37.9003 1195.02 48.0275 M1187.57 45.84 Q1187.49 39.7232 1184.13 36.0774 Q1180.81 32.4315 1175.3 32.4315 Q1169.06 32.4315 1165.29 35.9558 Q1161.56 39.4801 1161 45.8805 L1187.57 45.84 Z" fill="#000000" fill-rule="nonzero" fill-opacity="1" /><path clip-path="url(#clip510)" d="M1244.97 45.1919 L1244.97 72.576 L1237.52 72.576 L1237.52 45.4349 Q1237.52 38.994 1235.01 35.7938 Q1232.49 32.5936 1227.47 32.5936 Q1221.44 32.5936 1217.95 36.4419 Q1214.47 40.2903 1214.47 46.9338 L1214.47 72.576 L1206.97 72.576 L1206.97 27.2059 L1214.47 27.2059 L1214.47 34.2544 Q1217.14 30.163 1220.75 28.1376 Q1224.39 26.1121 1229.13 26.1121 Q1236.95 26.1121 1240.96 30.9732 Q1244.97 35.7938 1244.97 45.1919 Z" fill="#000000" fill-rule="nonzero" fill-opacity="1" /><path clip-path="url(#clip510)" d="M1267.21 14.324 L1267.21 27.2059 L1282.56 27.2059 L1282.56 32.9987 L1267.21 32.9987 L1267.21 57.6282 Q1267.21 63.1779 1268.71 64.7578 Q1270.25 66.3376 1274.91 66.3376 L1282.56 66.3376 L1282.56 72.576 L1274.91 72.576 Q1266.28 72.576 1263 69.3758 Q1259.72 66.1351 1259.72 57.6282 L1259.72 32.9987 L1254.25 32.9987 L1254.25 27.2059 L1259.72 27.2059 L1259.72 14.324 L1267.21 14.324 Z" fill="#000000" fill-rule="nonzero" fill-opacity="1" /><path clip-path="url(#clip510)" d="M1356.45 45.1919 L1356.45 72.576 L1349 72.576 L1349 45.4349 Q1349 38.994 1346.49 35.7938 Q1343.98 32.5936 1338.95 32.5936 Q1332.92 32.5936 1329.43 36.4419 Q1325.95 40.2903 1325.95 46.9338 L1325.95 72.576 L1318.46 72.576 L1318.46 27.2059 L1325.95 27.2059 L1325.95 34.2544 Q1328.62 30.163 1332.23 28.1376 Q1335.87 26.1121 1340.61 26.1121 Q1348.43 26.1121 1352.44 30.9732 Q1356.45 35.7938 1356.45 45.1919 Z" fill="#000000" fill-rule="nonzero" fill-opacity="1" /><path clip-path="url(#clip510)" d="M1373.79 65.6895 L1387.16 65.6895 L1387.16 19.5497 L1372.62 22.4663 L1372.62 15.0127 L1387.08 12.096 L1395.26 12.096 L1395.26 65.6895 L1408.63 65.6895 L1408.63 72.576 L1373.79 72.576 L1373.79 65.6895 Z" fill="#000000" fill-rule="nonzero" fill-opacity="1" /><path clip-path="url(#clip510)" d="M1449.95 39.9662 Q1455.82 41.222 1459.1 45.1919 Q1462.42 49.1618 1462.42 54.9951 Q1462.42 63.9476 1456.27 68.8492 Q1450.11 73.7508 1438.77 73.7508 Q1434.96 73.7508 1430.91 72.9811 Q1426.9 72.2519 1422.6 70.7531 L1422.6 62.8538 Q1426.01 64.8388 1430.06 65.8515 Q1434.11 66.8642 1438.52 66.8642 Q1446.22 66.8642 1450.23 63.826 Q1454.28 60.7879 1454.28 54.9951 Q1454.28 49.6479 1450.51 46.6502 Q1446.79 43.612 1440.1 43.612 L1433.06 43.612 L1433.06 36.8875 L1440.43 36.8875 Q1446.46 36.8875 1449.66 34.4975 Q1452.86 32.067 1452.86 27.5299 Q1452.86 22.8714 1449.54 20.4004 Q1446.26 17.8888 1440.1 17.8888 Q1436.74 17.8888 1432.89 18.618 Q1429.04 19.3471 1424.43 20.8865 L1424.43 13.5948 Q1429.09 12.2985 1433.14 11.6504 Q1437.23 11.0023 1440.83 11.0023 Q1450.15 11.0023 1455.58 15.2557 Q1461.01 19.4686 1461.01 26.6793 Q1461.01 31.7024 1458.13 35.1862 Q1455.25 38.6294 1449.95 39.9662 Z" fill="#000000" fill-rule="nonzero" fill-opacity="1" /><path clip-path="url(#clip510)" d="M1475.87 12.096 L1514.76 12.096 L1514.76 15.5798 L1492.81 72.576 L1484.26 72.576 L1504.92 18.9825 L1475.87 18.9825 L1475.87 12.096 Z" fill="#000000" fill-rule="nonzero" fill-opacity="1" /><path clip-path="url(#clip510)" d="M1530.97 71.3202 L1530.97 63.8666 Q1534.04 65.3249 1537.2 66.0946 Q1540.36 66.8642 1543.4 66.8642 Q1551.5 66.8642 1555.76 61.436 Q1560.05 55.9673 1560.66 44.8678 Q1558.31 48.3516 1554.7 50.215 Q1551.1 52.0784 1546.72 52.0784 Q1537.65 52.0784 1532.34 46.6097 Q1527.08 41.1005 1527.08 31.5808 Q1527.08 22.2638 1532.59 16.633 Q1538.1 11.0023 1547.25 11.0023 Q1557.74 11.0023 1563.25 19.0636 Q1568.8 27.0843 1568.8 42.3968 Q1568.8 56.6965 1562 65.2439 Q1555.23 73.7508 1543.77 73.7508 Q1540.69 73.7508 1537.53 73.1431 Q1534.37 72.5355 1530.97 71.3202 M1547.25 45.678 Q1552.76 45.678 1555.96 41.9107 Q1559.2 38.1433 1559.2 31.5808 Q1559.2 25.0589 1555.96 21.2916 Q1552.76 17.4837 1547.25 17.4837 Q1541.74 17.4837 1538.5 21.2916 Q1535.3 25.0589 1535.3 31.5808 Q1535.3 38.1433 1538.5 41.9107 Q1541.74 45.678 1547.25 45.678 Z" fill="#000000" fill-rule="nonzero" fill-opacity="1" /><polyline clip-path="url(#clip512)" style="stroke:#009af9; stroke-linecap:round; stroke-linejoin:round; stroke-width:8; stroke-opacity:1; fill:none" points="219.866,1386.4 222.001,1374.36 224.136,1362.59 226.271,1351.06 228.406,1339.78 230.541,1328.74 232.676,1317.94 234.811,1307.37 236.946,1297.02 239.081,1286.89 241.217,1276.98 243.352,1267.27 245.487,1257.76 247.622,1248.44 249.757,1239.3 251.892,1230.34 254.027,1221.54 256.162,1212.89 258.297,1204.39 260.432,1196.02 262.567,1187.77 264.702,1179.63 266.837,1171.58 268.972,1163.61 271.107,1155.7 273.242,1147.84 275.377,1140.01 277.512,1132.2 279.647,1124.38 281.782,1116.55 283.917,1108.69 286.052,1100.77 288.187,1092.78 290.322,1084.71 292.457,1076.54 294.592,1068.25 296.727,1059.83 298.862,1051.26 300.997,1042.54 303.132,1033.65 305.267,1024.58 307.402,1015.32 309.537,1005.87 311.672,996.219 313.807,986.37 315.942,976.318 318.077,966.064 320.212,955.609 322.347,944.955 324.482,934.106 326.617,923.069 328.753,911.856 330.888,900.478 333.023,888.95 335.158,877.283 337.293,865.491 339.428,853.589 341.563,841.591 343.698,829.511 345.833,817.366 347.968,805.17 350.103,792.942 352.238,780.706 354.373,768.476 356.508,756.262 358.643,744.076 360.778,731.928 362.913,719.832 365.048,707.798 367.183,695.841 369.318,683.973 371.453,672.21 373.588,660.564 375.723,649.053 377.858,637.688 379.993,626.47 382.128,615.398 384.263,604.475 386.398,593.7 388.533,583.078 390.668,572.611 392.803,562.304 394.938,552.16 397.073,542.186 399.208,532.386 401.343,522.768 403.478,513.327 405.613,504.058 407.748,494.96 409.883,486.028 412.018,477.261 414.154,468.657 416.289,460.217 418.424,451.94 420.559,443.826 422.694,435.876 424.829,428.092 426.964,420.473 429.099,413.012 431.234,405.707 433.369,398.553 435.504,391.549 437.639,384.691 439.774,377.978 441.909,371.407 444.044,364.978 446.179,358.688 448.314,352.538 450.449,346.526 452.584,340.651 454.719,334.91 456.854,329.299 458.989,323.816 461.124,318.458 463.259,313.223 465.394,308.108 467.529,303.112 469.664,298.233 471.799,293.469 473.934,288.819 476.069,284.282 478.204,279.856 480.339,275.541 482.474,271.335 484.609,267.235 486.744,263.239 488.879,259.345 491.014,255.551 493.149,251.853 495.284,248.252 497.419,244.744 499.554,241.329 501.69,238.005 503.825,234.771 505.96,231.626 508.095,228.568 510.23,225.598 512.365,222.713 514.5,219.915 516.635,217.2 518.77,214.567 520.905,212.013 523.04,209.536 525.175,207.135 527.31,204.807 529.445,202.551 531.58,200.367 533.715,198.252 535.85,196.206 537.985,194.227 540.12,192.317 542.255,190.473 544.39,188.696 546.525,186.986 548.66,185.342 550.795,183.765 552.93,182.251 555.065,180.798 557.2,179.403 559.335,178.065 561.47,176.782 563.605,175.552 565.74,174.374 567.875,173.248 570.01,172.172 572.145,171.146 574.28,170.171 576.415,169.246 578.55,168.372 580.685,167.55 582.82,166.781 584.955,166.066 587.091,165.402 589.226,164.786 591.361,164.214 593.496,163.683 595.631,163.193 597.766,162.74 599.901,162.325 602.036,161.945 604.171,161.601 606.306,161.293 608.441,161.023 610.576,160.79 612.711,160.597 614.846,160.445 616.981,160.339 619.116,160.278 621.251,160.256 623.386,160.271 625.521,160.317 627.656,160.394 629.791,160.497 631.926,160.627 634.061,160.781 636.196,160.96 638.331,161.165 640.466,161.396 642.601,161.655 644.736,161.945 646.871,162.269 649.006,162.63 651.141,163.031 653.276,163.462 655.411,163.92 657.546,164.403 659.681,164.906 661.816,165.429 663.951,165.97 666.086,166.528 668.221,167.104 670.356,167.698 672.491,168.313 674.627,168.95 676.762,169.612 678.897,170.303 681.032,171.027 683.167,171.778 685.302,172.55 687.437,173.341 689.572,174.149 691.707,174.971 693.842,175.806 695.977,176.654 698.112,177.515 700.247,178.389 702.382,179.278 704.517,180.184 706.652,181.109 708.787,182.057 710.922,183.03 713.057,184.025 715.192,185.036 717.327,186.062 719.462,187.1 721.597,188.149 723.732,189.207 725.867,190.275 728.002,191.352 730.137,192.439 732.272,193.536 734.407,194.647 736.542,195.772 738.677,196.915 740.812,198.078 742.947,199.257 745.082,200.45 747.217,201.653 749.352,202.865 751.487,204.084 753.622,205.311 755.757,206.543 757.892,207.783 760.028,209.029 762.163,210.283 764.298,211.546 766.433,212.821 768.568,214.109 770.703,215.413 772.838,216.73 774.973,218.058 777.108,219.393 779.243,220.735 781.378,222.082 783.513,223.433 785.648,224.788 787.783,226.147 789.918,227.511 792.053,228.88 794.188,230.255 796.323,231.639 798.458,233.032 800.593,234.439 802.728,235.857 804.863,237.284 806.998,238.716 809.133,240.153 811.268,241.592 813.403,243.034 815.538,244.478 817.673,245.924 819.808,247.372 821.943,248.823 824.078,250.278 826.213,251.739 828.348,253.208 830.483,254.687 832.618,256.177 834.753,257.673 836.888,259.174 839.023,260.677 841.158,262.182 843.293,263.688 845.428,265.195 847.564,266.701 849.699,268.207 851.834,269.715 853.969,271.226 856.104,272.739 858.239,274.259 860.374,275.787 862.509,277.324 864.644,278.867 866.779,280.414 868.914,281.963 871.049,283.511 873.184,285.06 875.319,286.607 877.454,288.153 879.589,289.699 881.724,291.243 883.859,292.789 885.994,294.337 888.129,295.889 890.264,297.447 892.399,299.013 894.534,300.586 896.669,302.16 898.804,303.736 900.939,305.312 903.074,306.886 905.209,308.458 907.344,310.027 909.479,311.595 911.614,313.162 913.749,314.727 915.884,316.294 918.019,317.864 920.154,319.438 922.289,321.02 924.424,322.607 926.559,324.196 928.694,325.785 930.829,327.374 932.965,328.96 935.1,330.544 937.235,332.124 939.37,333.702 941.505,335.277 943.64,336.852 945.775,338.426 947.91,340.002 950.045,341.581 952.18,343.167 954.315,344.758 956.45,346.351 958.585,347.943 960.72,349.534 962.855,351.122 964.99,352.707 967.125,354.288 969.26,355.866 971.395,357.441 973.53,359.014 975.665,360.587 977.8,362.16 979.935,363.737 982.07,365.318 984.205,366.905 986.34,368.492 988.475,370.079 990.61,371.664 992.745,373.246 994.88,374.824 997.015,376.398 999.15,377.969 1001.29,379.536 1003.42,381.101 1005.56,382.665 1007.69,384.229 1009.83,385.795 1011.96,387.366 1014.1,388.941 1016.23,390.517 1018.37,392.092 1020.5,393.665 1022.64,395.234 1024.77,396.8 1026.91,398.362 1029.04,399.919 1031.18,401.473 1033.31,403.024 1035.45,404.574 1037.58,406.123 1039.72,407.674 1041.85,409.229 1043.99,410.788 1046.12,412.347 1048.26,413.905 1050.39,415.461 1052.53,417.014 1054.66,418.562 1056.8,420.106 1058.93,421.646 1061.07,423.182 1063.2,424.715 1065.34,426.246 1067.47,427.777 1069.61,429.308 1071.74,430.843 1073.88,432.382 1076.01,433.921 1078.15,435.459 1080.28,436.995 1082.42,438.527 1084.55,440.055 1086.69,441.578 1088.82,443.097 1090.96,444.612 1093.09,446.123 1095.23,447.632 1097.36,449.141 1099.5,450.65 1101.63,452.162 1103.77,453.678 1105.9,455.195 1108.04,456.71 1110.17,458.222 1112.31,459.731 1114.44,461.235 1116.58,462.735 1118.71,464.23 1120.85,465.721 1122.98,467.209 1125.12,468.695 1127.25,470.179 1129.39,471.663 1131.52,473.151 1133.66,474.642 1135.79,476.133 1137.93,477.623 1140.06,479.11 1142.2,480.593 1144.33,482.073 1146.47,483.547 1148.6,485.017 1150.74,486.483 1152.87,487.945 1155.01,489.405 1157.14,490.863 1159.28,492.322 1161.41,493.783 1163.55,495.247 1165.68,496.712 1167.82,498.175 1169.95,499.635 1172.09,501.092 1174.22,502.545 1176.36,503.993 1178.49,505.436 1180.63,506.875 1182.76,508.311 1184.9,509.744 1187.03,511.175 1189.17,512.606 1191.3,514.04 1193.44,515.476 1195.57,516.913 1197.71,518.349 1199.84,519.782 1201.98,521.211 1204.11,522.636 1206.25,524.057 1208.38,525.473 1210.52,526.884 1212.65,528.292 1214.79,529.697 1216.92,531.101 1219.06,532.504 1221.19,533.909 1223.33,535.318 1225.46,536.727 1227.6,538.134 1229.73,539.539 1231.87,540.94 1234,542.337 1236.14,543.729 1238.27,545.117 1240.41,546.5 1242.54,547.88 1244.68,549.257 1246.81,550.632 1248.95,552.007 1251.08,553.384 1253.22,554.764 1255.35,556.144 1257.49,557.523 1259.62,558.899 1261.76,560.271 1263.89,561.639 1266.03,563.003 1268.16,564.363 1270.3,565.718 1272.43,567.069 1274.57,568.418 1276.7,569.764 1278.84,571.111 1280.97,572.459 1283.11,573.81 1285.24,575.161 1287.38,576.511 1289.51,577.859 1291.65,579.202 1293.78,580.542 1295.92,581.878 1298.05,583.208 1300.19,584.535 1302.32,585.858 1304.46,587.178 1306.59,588.496 1308.73,589.814 1310.86,591.134 1313,592.456 1315.13,593.778 1317.27,595.1 1319.4,596.418 1321.54,597.733 1323.67,599.045 1325.81,600.351 1327.94,601.654 1330.08,602.952 1332.21,604.246 1334.35,605.538 1336.48,606.828 1338.62,608.118 1340.75,609.409 1342.89,610.702 1345.02,611.996 1347.16,613.289 1349.29,614.579 1351.43,615.865 1353.56,617.148 1355.7,618.426 1357.83,619.701 1359.97,620.971 1362.1,622.237 1364.24,623.501 1366.37,624.762 1368.51,626.024 1370.64,627.286 1372.78,628.551 1374.91,629.817 1377.05,631.081 1379.18,632.343 1381.32,633.601 1383.45,634.856 1385.59,636.106 1387.72,637.352 1389.86,638.594 1391.99,639.833 1394.13,641.069 1396.26,642.303 1398.4,643.536 1400.53,644.771 1402.67,646.008 1404.8,647.245 1406.94,648.481 1409.08,649.715 1411.21,650.946 1413.35,652.173 1415.48,653.395 1417.62,654.614 1419.75,655.828 1421.89,657.039 1424.02,658.247 1426.16,659.454 1428.29,660.66 1430.43,661.867 1432.56,663.076 1434.7,664.286 1436.83,665.495 1438.97,666.701 1441.1,667.904 1443.24,669.103 1445.37,670.299 1447.51,671.49 1449.64,672.677 1451.78,673.861 1453.91,675.042 1456.05,676.222 1458.18,677.4 1460.32,678.58 1462.45,679.762 1464.59,680.945 1466.72,682.126 1468.86,683.306 1470.99,684.482 1473.13,685.654 1475.26,686.822 1477.4,687.987 1479.53,689.147 1481.67,690.305 1483.8,691.459 1485.94,692.612 1488.07,693.764 1490.21,694.917 1492.34,696.073 1494.48,697.228 1496.61,698.383 1498.75,699.536 1500.88,700.685 1503.02,701.831 1505.15,702.973 1507.29,704.111 1509.42,705.245 1511.56,706.376 1513.69,707.505 1515.83,708.631 1517.96,709.757 1520.1,710.884 1522.23,712.013 1524.37,713.143 1526.5,714.271 1528.64,715.398 1530.77,716.521 1532.91,717.641 1535.04,718.757 1537.18,719.869 1539.31,720.978 1541.45,722.083 1543.58,723.186 1545.72,724.287 1547.85,725.387 1549.99,726.488 1552.12,727.592 1554.26,728.696 1556.39,729.798 1558.53,730.899 1560.66,731.997 1562.8,733.091 1564.93,734.182 1567.07,735.269 1569.2,736.352 1571.34,737.432 1573.47,738.509 1575.61,739.585 1577.74,740.661 1579.88,741.737 1582.01,742.815 1584.15,743.893 1586.28,744.971 1588.42,746.046 1590.55,747.119 1592.69,748.188 1594.82,749.254 1596.96,750.316 1599.09,751.375 1601.23,752.43 1603.36,753.483 1605.5,754.534 1607.63,755.585 1609.77,756.636 1611.9,757.69 1614.04,758.743 1616.17,759.796 1618.31,760.847 1620.44,761.895 1622.58,762.94 1624.71,763.981 1626.85,765.019 1628.98,766.053 1631.12,767.085 1633.25,768.113 1635.39,769.14 1637.52,770.167 1639.66,771.194 1641.79,772.223 1643.93,773.253 1646.06,774.282 1648.2,775.309 1650.33,776.333 1652.47,777.353 1654.6,778.371 1656.74,779.385 1658.87,780.395 1661.01,781.403 1663.14,782.408 1665.28,783.411 1667.41,784.414 1669.55,785.418 1671.68,786.423 1673.82,787.43 1675.95,788.435 1678.09,789.438 1680.22,790.438 1682.36,791.436 1684.49,792.43 1686.63,793.42 1688.76,794.408 1690.9,795.392 1693.03,796.374 1695.17,797.354 1697.3,798.334 1699.44,799.315 1701.57,800.297 1703.71,801.28 1705.84,802.262 1707.98,803.242 1710.11,804.219 1712.25,805.194 1714.38,806.165 1716.52,807.133 1718.65,808.097 1720.79,809.059 1722.92,810.018 1725.06,810.976 1727.19,811.934 1729.33,812.892 1731.46,813.851 1733.6,814.812 1735.73,815.771 1737.87,816.728 1740,817.683 1742.14,818.635 1744.27,819.584 1746.41,820.53 1748.54,821.472 1750.68,822.411 1752.81,823.349 1754.95,824.285 1757.08,825.22 1759.22,826.156 1761.35,827.093 1763.49,828.031 1765.62,828.969 1767.76,829.904 1769.89,830.837 1772.03,831.767 1774.16,832.694 1776.3,833.618 1778.43,834.538 1780.57,835.456 1782.7,836.372 1784.84,837.286 1786.97,838.2 1789.11,839.114 1791.24,840.03 1793.38,840.946 1795.51,841.862 1797.65,842.776 1799.78,843.687 1801.92,844.596 1804.05,845.501 1806.19,846.404 1808.32,847.303 1810.46,848.2 1812.59,849.094 1814.73,849.987 1816.86,850.88 1819,851.773 1821.13,852.668 1823.27,853.563 1825.4,854.458 1827.54,855.35 1829.67,856.241 1831.81,857.128 1833.94,858.013 1836.08,858.895 1838.21,859.773 1840.35,860.649 1842.49,861.523 1844.62,862.395 1846.76,863.267 1848.89,864.14 1851.03,865.014 1853.16,865.889 1855.3,866.763 1857.43,867.635 1859.57,868.504 1861.7,869.372 1863.84,870.236 1865.97,871.097 1868.11,871.955 1870.24,872.811 1872.38,873.665 1874.51,874.517 1876.65,875.369 1878.78,876.221 1880.92,877.075 1883.05,877.93 1885.19,878.783 1887.32,879.635 1889.46,880.485 1891.59,881.332 1893.73,882.176 1895.86,883.018 1898,883.856 1900.13,884.692 1902.27,885.526 1904.4,886.359 1906.54,887.191 1908.67,888.023 1910.81,888.858 1912.94,889.692 1915.08,890.526 1917.21,891.359 1919.35,892.189 1921.48,893.016 1923.62,893.841 1925.75,894.663 1927.89,895.482 1930.02,896.299 1932.16,897.113 1934.29,897.927 1936.43,898.74 1938.56,899.553 1940.7,900.368 1942.83,901.183 1944.97,901.998 1947.1,902.811 1949.24,903.622 1951.37,904.43 1953.51,905.236 1955.64,906.039 1957.78,906.839 1959.91,907.637 1962.05,908.433 1964.18,909.227 1966.32,910.021 1968.45,910.816 1970.59,911.612 1972.72,912.409 1974.86,913.204 1976.99,913.999 1979.13,914.791 1981.26,915.581 1983.4,916.368 1985.53,917.152 1987.67,917.934 1989.8,918.713 1991.94,919.49 1994.07,920.267 1996.21,921.042 1998.34,921.819 2000.48,922.596 2002.61,923.375 2004.75,924.152 2006.88,924.928 2009.02,925.702 2011.15,926.473 2013.29,927.242 2015.42,928.008 2017.56,928.772 2019.69,929.533 2021.83,930.293 2023.96,931.051 2026.1,931.809 2028.23,932.567 2030.37,933.327 2032.5,934.087 2034.64,934.846 2036.77,935.604 2038.91,936.36 2041.04,937.114 2043.18,937.865 2045.31,938.613 2047.45,939.359 2049.58,940.103 2051.72,940.845 2053.85,941.586 2055.99,942.326 2058.12,943.067 2060.26,943.809 2062.39,944.551 2064.53,945.293 2066.66,946.034 2068.8,946.772 2070.93,947.508 2073.07,948.242 2075.2,948.973 2077.34,949.702 2079.47,950.428 2081.61,951.153 2083.74,951.877 2085.88,952.6 2088.01,953.324 2090.15,954.049 2092.28,954.774 2094.42,955.499 2096.55,956.222 2098.69,956.943 2100.82,957.662 2102.96,958.379 2105.09,959.093 2107.23,959.805 2109.36,960.515 2111.5,961.223 2113.63,961.93 2115.77,962.636 2117.9,963.343 2120.04,964.051 2122.17,964.76 2124.31,965.468 2126.44,966.175 2128.58,966.879 2130.71,967.582 2132.85,968.282 2134.98,968.98 2137.12,969.675 2139.25,970.368 2141.39,971.06 2143.52,971.75 2145.66,972.441 2147.79,973.131 2149.93,973.823 2152.06,974.515 2154.2,975.207 2156.33,975.897 2158.47,976.585 2160.6,977.272 2162.74,977.956 2164.87,978.637 2167.01,979.316 2169.14,979.994 2171.28,980.669 2173.41,981.344 2175.55,982.018 2177.68,982.693 2179.82,983.368 2181.95,984.045 2184.09,984.72 2186.22,985.395 2188.36,986.067 2190.49,986.737 2192.63,987.405 2194.76,988.071 2196.9,988.735 2199.03,989.396 2201.17,990.056 2203.3,990.715 2205.44,991.374 2207.57,992.033 2209.71,992.693 2211.84,993.354 2213.98,994.014 2216.11,994.672 2218.25,995.329 2220.38,995.984 2222.52,996.637 2224.65,997.287 2226.79,997.935 2228.92,998.582 2231.06,999.226 2233.19,999.87 2235.33,1000.51 2237.46,1001.16 2239.6,1001.8 2241.73,1002.45 2243.87,1003.09 2246,1003.74 2248.14,1004.38 2250.27,1005.02 2252.41,1005.65 2254.54,1006.29 2256.68,1006.92 2258.81,1007.55 2260.95,1008.18 2263.08,1008.81 2265.22,1009.44 2267.35,1010.07 2269.49,1010.7 2271.62,1011.33 2273.76,1011.96 2275.9,1012.59 2278.03,1013.22 2280.17,1013.84 2282.3,1014.46 2284.44,1015.08 2286.57,1015.7 2288.71,1016.32 2290.84,1016.93 2292.98,1017.55 2295.11,1018.16 2297.25,1018.78 2299.38,1019.39 2301.52,1020.01 2303.65,1020.62 2305.79,1021.24 2307.92,1021.85 2310.06,1022.46 2312.19,1023.07 2314.33,1023.68 2316.46,1024.28 2318.6,1024.88 2320.73,1025.48 2322.87,1026.08 2325,1026.68 2327.14,1027.28 2329.27,1027.88 2331.41,1028.48 2333.54,1029.08 2335.68,1029.68 2337.81,1030.28 2339.95,1030.88 2342.08,1031.47 2344.22,1032.06 2346.35,1032.65 2348.49,1033.24 2350.62,1033.83 2352.76,1034.42 "/>
<circle clip-path="url(#clip512)" cx="304.732" cy="1027.14" r="18" fill="#e26f46" fill-rule="evenodd" fill-opacity="1" stroke="#000000" stroke-opacity="1" stroke-width="3.2"/>
<circle clip-path="url(#clip512)" cx="397.968" cy="519.958" r="18" fill="#e26f46" fill-rule="evenodd" fill-opacity="1" stroke="#000000" stroke-opacity="1" stroke-width="3.2"/>
<circle clip-path="url(#clip512)" cx="551.822" cy="245.234" r="18" fill="#e26f46" fill-rule="evenodd" fill-opacity="1" stroke="#000000" stroke-opacity="1" stroke-width="3.2"/>
<circle clip-path="url(#clip512)" cx="679.698" cy="287.499" r="18" fill="#e26f46" fill-rule="evenodd" fill-opacity="1" stroke="#000000" stroke-opacity="1" stroke-width="3.2"/>
<circle clip-path="url(#clip512)" cx="1061.3" cy="266.367" r="18" fill="#e26f46" fill-rule="evenodd" fill-opacity="1" stroke="#000000" stroke-opacity="1" stroke-width="3.2"/>
<circle clip-path="url(#clip512)" cx="1803.73" cy="752.417" r="18" fill="#e26f46" fill-rule="evenodd" fill-opacity="1" stroke="#000000" stroke-opacity="1" stroke-width="3.2"/>
<circle clip-path="url(#clip512)" cx="2179.56" cy="1048.27" r="18" fill="#e26f46" fill-rule="evenodd" fill-opacity="1" stroke="#000000" stroke-opacity="1" stroke-width="3.2"/>
<path clip-path="url(#clip510)" d="M1719 322.316 L2281.66 322.316 L2281.66 166.796 L1719 166.796  Z" fill="#ffffff" fill-rule="evenodd" fill-opacity="1"/>
<polyline clip-path="url(#clip510)" style="stroke:#000000; stroke-linecap:round; stroke-linejoin:round; stroke-width:4; stroke-opacity:1; fill:none" points="1719,322.316 2281.66,322.316 2281.66,166.796 1719,166.796 1719,322.316 "/>
<polyline clip-path="url(#clip510)" style="stroke:#009af9; stroke-linecap:round; stroke-linejoin:round; stroke-width:8; stroke-opacity:1; fill:none" points="1742.7,218.636 1884.89,218.636 "/>
<path clip-path="url(#clip510)" d="M1913.26 219.411 L1913.26 232.073 L1920.76 232.073 Q1924.54 232.073 1926.34 230.522 Q1928.17 228.948 1928.17 225.731 Q1928.17 222.49 1926.34 220.962 Q1924.54 219.411 1920.76 219.411 L1913.26 219.411 M1913.26 205.198 L1913.26 215.615 L1920.18 215.615 Q1923.61 215.615 1925.28 214.342 Q1926.97 213.045 1926.97 210.407 Q1926.97 207.791 1925.28 206.495 Q1923.61 205.198 1920.18 205.198 L1913.26 205.198 M1908.59 201.356 L1920.53 201.356 Q1925.88 201.356 1928.77 203.578 Q1931.67 205.8 1931.67 209.897 Q1931.67 213.069 1930.18 214.944 Q1928.7 216.819 1925.83 217.282 Q1929.28 218.022 1931.18 220.383 Q1933.1 222.721 1933.1 226.24 Q1933.1 230.869 1929.95 233.393 Q1926.81 235.916 1921 235.916 L1908.59 235.916 L1908.59 201.356 Z" fill="#000000" fill-rule="nonzero" fill-opacity="1" /><path clip-path="url(#clip510)" d="M1940.93 199.897 L1945.18 199.897 L1945.18 235.916 L1940.93 235.916 L1940.93 199.897 Z" fill="#000000" fill-rule="nonzero" fill-opacity="1" /><path clip-path="url(#clip510)" d="M1964.14 212.976 Q1960.72 212.976 1958.73 215.661 Q1956.74 218.323 1956.74 222.976 Q1956.74 227.629 1958.7 230.314 Q1960.69 232.976 1964.14 232.976 Q1967.55 232.976 1969.54 230.291 Q1971.53 227.606 1971.53 222.976 Q1971.53 218.37 1969.54 215.684 Q1967.55 212.976 1964.14 212.976 M1964.14 209.365 Q1969.7 209.365 1972.87 212.976 Q1976.04 216.587 1976.04 222.976 Q1976.04 229.342 1972.87 232.976 Q1969.7 236.587 1964.14 236.587 Q1958.56 236.587 1955.39 232.976 Q1952.24 229.342 1952.24 222.976 Q1952.24 216.587 1955.39 212.976 Q1958.56 209.365 1964.14 209.365 Z" fill="#000000" fill-rule="nonzero" fill-opacity="1" /><path clip-path="url(#clip510)" d="M1993.15 212.976 Q1989.72 212.976 1987.73 215.661 Q1985.74 218.323 1985.74 222.976 Q1985.74 227.629 1987.71 230.314 Q1989.7 232.976 1993.15 232.976 Q1996.55 232.976 1998.54 230.291 Q2000.53 227.606 2000.53 222.976 Q2000.53 218.37 1998.54 215.684 Q1996.55 212.976 1993.15 212.976 M1993.15 209.365 Q1998.7 209.365 2001.87 212.976 Q2005.05 216.587 2005.05 222.976 Q2005.05 229.342 2001.87 232.976 Q1998.7 236.587 1993.15 236.587 Q1987.57 236.587 1984.4 232.976 Q1981.25 229.342 1981.25 222.976 Q1981.25 216.587 1984.4 212.976 Q1987.57 209.365 1993.15 209.365 Z" fill="#000000" fill-rule="nonzero" fill-opacity="1" /><path clip-path="url(#clip510)" d="M2029.17 213.925 L2029.17 199.897 L2033.42 199.897 L2033.42 235.916 L2029.17 235.916 L2029.17 232.027 Q2027.82 234.342 2025.76 235.476 Q2023.73 236.587 2020.86 236.587 Q2016.16 236.587 2013.19 232.837 Q2010.25 229.087 2010.25 222.976 Q2010.25 216.865 2013.19 213.115 Q2016.16 209.365 2020.86 209.365 Q2023.73 209.365 2025.76 210.499 Q2027.82 211.61 2029.17 213.925 M2014.65 222.976 Q2014.65 227.675 2016.57 230.36 Q2018.52 233.022 2021.9 233.022 Q2025.28 233.022 2027.22 230.36 Q2029.17 227.675 2029.17 222.976 Q2029.17 218.277 2027.22 215.615 Q2025.28 212.93 2021.9 212.93 Q2018.52 212.93 2016.57 215.615 Q2014.65 218.277 2014.65 222.976 Z" fill="#000000" fill-rule="nonzero" fill-opacity="1" /><circle clip-path="url(#clip510)" cx="1813.79" cy="270.476" r="20.9455" fill="#e26f46" fill-rule="evenodd" fill-opacity="1" stroke="#000000" stroke-opacity="1" stroke-width="3.72364"/>
<path clip-path="url(#clip510)" d="M1924.61 256.367 Q1919.51 256.367 1916.5 260.163 Q1913.52 263.96 1913.52 270.51 Q1913.52 277.038 1916.5 280.834 Q1919.51 284.631 1924.61 284.631 Q1929.7 284.631 1932.66 280.834 Q1935.65 277.038 1935.65 270.51 Q1935.65 263.96 1932.66 260.163 Q1929.7 256.367 1924.61 256.367 M1924.61 252.571 Q1931.87 252.571 1936.23 257.455 Q1940.58 262.316 1940.58 270.51 Q1940.58 278.682 1936.23 283.566 Q1931.87 288.427 1924.61 288.427 Q1917.31 288.427 1912.94 283.566 Q1908.59 278.705 1908.59 270.51 Q1908.59 262.316 1912.94 257.455 Q1917.31 252.571 1924.61 252.571 Z" fill="#000000" fill-rule="nonzero" fill-opacity="1" /><path clip-path="url(#clip510)" d="M1966.32 274.816 Q1966.32 270.117 1964.37 267.455 Q1962.45 264.77 1959.07 264.77 Q1955.69 264.77 1953.75 267.455 Q1951.83 270.117 1951.83 274.816 Q1951.83 279.515 1953.75 282.2 Q1955.69 284.862 1959.07 284.862 Q1962.45 284.862 1964.37 282.2 Q1966.32 279.515 1966.32 274.816 M1951.83 265.765 Q1953.17 263.45 1955.21 262.339 Q1957.27 261.205 1960.12 261.205 Q1964.84 261.205 1967.78 264.955 Q1970.74 268.705 1970.74 274.816 Q1970.74 280.927 1967.78 284.677 Q1964.84 288.427 1960.12 288.427 Q1957.27 288.427 1955.21 287.316 Q1953.17 286.182 1951.83 283.867 L1951.83 287.756 L1947.55 287.756 L1947.55 251.737 L1951.83 251.737 L1951.83 265.765 Z" fill="#000000" fill-rule="nonzero" fill-opacity="1" /><path clip-path="url(#clip510)" d="M1994.33 262.594 L1994.33 266.622 Q1992.52 265.696 1990.58 265.233 Q1988.63 264.77 1986.55 264.77 Q1983.38 264.77 1981.78 265.742 Q1980.21 266.714 1980.21 268.659 Q1980.21 270.14 1981.34 270.997 Q1982.48 271.83 1985.9 272.594 L1987.36 272.918 Q1991.9 273.89 1993.8 275.672 Q1995.72 277.432 1995.72 280.603 Q1995.72 284.214 1992.85 286.321 Q1990 288.427 1985 288.427 Q1982.92 288.427 1980.65 288.01 Q1978.4 287.617 1975.9 286.807 L1975.9 282.409 Q1978.26 283.635 1980.55 284.26 Q1982.85 284.862 1985.09 284.862 Q1988.1 284.862 1989.72 283.844 Q1991.34 282.802 1991.34 280.927 Q1991.34 279.191 1990.16 278.265 Q1989 277.339 1985.05 276.483 L1983.56 276.135 Q1979.61 275.302 1977.85 273.589 Q1976.09 271.853 1976.09 268.844 Q1976.09 265.186 1978.68 263.196 Q1981.27 261.205 1986.04 261.205 Q1988.4 261.205 1990.49 261.552 Q1992.57 261.899 1994.33 262.594 Z" fill="#000000" fill-rule="nonzero" fill-opacity="1" /><path clip-path="url(#clip510)" d="M2024.68 273.728 L2024.68 275.811 L2005.09 275.811 Q2005.37 280.209 2007.73 282.524 Q2010.11 284.816 2014.35 284.816 Q2016.8 284.816 2019.1 284.214 Q2021.41 283.612 2023.68 282.409 L2023.68 286.436 Q2021.39 287.408 2018.98 287.918 Q2016.57 288.427 2014.1 288.427 Q2007.89 288.427 2004.26 284.816 Q2000.65 281.205 2000.65 275.047 Q2000.65 268.682 2004.07 264.955 Q2007.52 261.205 2013.36 261.205 Q2018.59 261.205 2021.62 264.585 Q2024.68 267.941 2024.68 273.728 M2020.42 272.478 Q2020.37 268.983 2018.45 266.899 Q2016.55 264.816 2013.4 264.816 Q2009.84 264.816 2007.68 266.83 Q2005.55 268.844 2005.23 272.501 L2020.42 272.478 Z" fill="#000000" fill-rule="nonzero" fill-opacity="1" /><path clip-path="url(#clip510)" d="M2046.69 265.811 Q2045.97 265.395 2045.11 265.21 Q2044.28 265.001 2043.26 265.001 Q2039.65 265.001 2037.71 267.362 Q2035.79 269.7 2035.79 274.098 L2035.79 287.756 L2031.5 287.756 L2031.5 261.83 L2035.79 261.83 L2035.79 265.858 Q2037.13 263.497 2039.28 262.362 Q2041.43 261.205 2044.51 261.205 Q2044.95 261.205 2045.49 261.274 Q2046.02 261.321 2046.67 261.436 L2046.69 265.811 Z" fill="#000000" fill-rule="nonzero" fill-opacity="1" /><path clip-path="url(#clip510)" d="M2048.1 261.83 L2052.61 261.83 L2060.72 283.589 L2068.82 261.83 L2073.33 261.83 L2063.61 287.756 L2057.82 287.756 L2048.1 261.83 Z" fill="#000000" fill-rule="nonzero" fill-opacity="1" /><path clip-path="url(#clip510)" d="M2101.39 273.728 L2101.39 275.811 L2081.8 275.811 Q2082.08 280.209 2084.44 282.524 Q2086.83 284.816 2091.06 284.816 Q2093.52 284.816 2095.81 284.214 Q2098.12 283.612 2100.39 282.409 L2100.39 286.436 Q2098.1 287.408 2095.69 287.918 Q2093.29 288.427 2090.81 288.427 Q2084.61 288.427 2080.97 284.816 Q2077.36 281.205 2077.36 275.047 Q2077.36 268.682 2080.79 264.955 Q2084.23 261.205 2090.07 261.205 Q2095.3 261.205 2098.33 264.585 Q2101.39 267.941 2101.39 273.728 M2097.13 272.478 Q2097.08 268.983 2095.16 266.899 Q2093.26 264.816 2090.11 264.816 Q2086.55 264.816 2084.4 266.83 Q2082.27 268.844 2081.94 272.501 L2097.13 272.478 Z" fill="#000000" fill-rule="nonzero" fill-opacity="1" /><path clip-path="url(#clip510)" d="M2125.44 265.765 L2125.44 251.737 L2129.7 251.737 L2129.7 287.756 L2125.44 287.756 L2125.44 283.867 Q2124.1 286.182 2122.04 287.316 Q2120 288.427 2117.13 288.427 Q2112.43 288.427 2109.47 284.677 Q2106.53 280.927 2106.53 274.816 Q2106.53 268.705 2109.47 264.955 Q2112.43 261.205 2117.13 261.205 Q2120 261.205 2122.04 262.339 Q2124.1 263.45 2125.44 265.765 M2110.92 274.816 Q2110.92 279.515 2112.85 282.2 Q2114.79 284.862 2118.17 284.862 Q2121.55 284.862 2123.49 282.2 Q2125.44 279.515 2125.44 274.816 Q2125.44 270.117 2123.49 267.455 Q2121.55 264.77 2118.17 264.77 Q2114.79 264.77 2112.85 267.455 Q2110.92 270.117 2110.92 274.816 Z" fill="#000000" fill-rule="nonzero" fill-opacity="1" /><path clip-path="url(#clip510)" d="M2158.4 257.038 L2158.4 283.913 L2164.05 283.913 Q2171.2 283.913 2174.51 280.672 Q2177.85 277.432 2177.85 270.441 Q2177.85 263.497 2174.51 260.279 Q2171.2 257.038 2164.05 257.038 L2158.4 257.038 M2153.73 253.196 L2163.33 253.196 Q2173.38 253.196 2178.08 257.386 Q2182.78 261.552 2182.78 270.441 Q2182.78 279.376 2178.05 283.566 Q2173.33 287.756 2163.33 287.756 L2153.73 287.756 L2153.73 253.196 Z" fill="#000000" fill-rule="nonzero" fill-opacity="1" /><path clip-path="url(#clip510)" d="M2201.83 274.723 Q2196.66 274.723 2194.67 275.904 Q2192.68 277.084 2192.68 279.932 Q2192.68 282.2 2194.16 283.543 Q2195.67 284.862 2198.24 284.862 Q2201.78 284.862 2203.91 282.362 Q2206.06 279.839 2206.06 275.672 L2206.06 274.723 L2201.83 274.723 M2210.32 272.964 L2210.32 287.756 L2206.06 287.756 L2206.06 283.821 Q2204.6 286.182 2202.43 287.316 Q2200.25 288.427 2197.1 288.427 Q2193.12 288.427 2190.76 286.205 Q2188.42 283.959 2188.42 280.209 Q2188.42 275.834 2191.34 273.612 Q2194.28 271.39 2200.09 271.39 L2206.06 271.39 L2206.06 270.973 Q2206.06 268.034 2204.12 266.436 Q2202.2 264.816 2198.7 264.816 Q2196.48 264.816 2194.37 265.348 Q2192.27 265.881 2190.32 266.946 L2190.32 263.01 Q2192.66 262.108 2194.86 261.668 Q2197.06 261.205 2199.14 261.205 Q2204.77 261.205 2207.54 264.122 Q2210.32 267.038 2210.32 272.964 Z" fill="#000000" fill-rule="nonzero" fill-opacity="1" /><path clip-path="url(#clip510)" d="M2223.31 254.469 L2223.31 261.83 L2232.08 261.83 L2232.08 265.14 L2223.31 265.14 L2223.31 279.214 Q2223.31 282.385 2224.16 283.288 Q2225.04 284.191 2227.71 284.191 L2232.08 284.191 L2232.08 287.756 L2227.71 287.756 Q2222.78 287.756 2220.9 285.927 Q2219.03 284.075 2219.03 279.214 L2219.03 265.14 L2215.9 265.14 L2215.9 261.83 L2219.03 261.83 L2219.03 254.469 L2223.31 254.469 Z" fill="#000000" fill-rule="nonzero" fill-opacity="1" /><path clip-path="url(#clip510)" d="M2249.47 274.723 Q2244.3 274.723 2242.31 275.904 Q2240.32 277.084 2240.32 279.932 Q2240.32 282.2 2241.8 283.543 Q2243.31 284.862 2245.88 284.862 Q2249.42 284.862 2251.55 282.362 Q2253.7 279.839 2253.7 275.672 L2253.7 274.723 L2249.47 274.723 M2257.96 272.964 L2257.96 287.756 L2253.7 287.756 L2253.7 283.821 Q2252.24 286.182 2250.07 287.316 Q2247.89 288.427 2244.74 288.427 Q2240.76 288.427 2238.4 286.205 Q2236.06 283.959 2236.06 280.209 Q2236.06 275.834 2238.98 273.612 Q2241.92 271.39 2247.73 271.39 L2253.7 271.39 L2253.7 270.973 Q2253.7 268.034 2251.76 266.436 Q2249.84 264.816 2246.34 264.816 Q2244.12 264.816 2242.01 265.348 Q2239.91 265.881 2237.96 266.946 L2237.96 263.01 Q2240.3 262.108 2242.5 261.668 Q2244.7 261.205 2246.78 261.205 Q2252.41 261.205 2255.18 264.122 Q2257.96 267.038 2257.96 272.964 Z" fill="#000000" fill-rule="nonzero" fill-opacity="1" /></svg>
