<?xml version="1.0" encoding="utf-8"?>
<svg xmlns="http://www.w3.org/2000/svg" xmlns:xlink="http://www.w3.org/1999/xlink" width="800" height="500" viewBox="0 0 3200 2000">
<defs>
  <clipPath id="clip130">
    <rect x="0" y="0" width="3200" height="2000"/>
  </clipPath>
</defs>
<path clip-path="url(#clip130)" d="M0 2000 L3200 2000 L3200 0 L0 0  Z" fill="#ffffff" fill-rule="evenodd" fill-opacity="1"/>
<defs>
  <clipPath id="clip131">
    <rect x="287" y="110" width="2803" height="1652"/>
  </clipPath>
</defs>
<path clip-path="url(#clip130)" d="M287.402 1761.32 L3089.76 1761.32 L3089.76 110.236 L287.402 110.236  Z" fill="#ffffff" fill-rule="evenodd" fill-opacity="1"/>
<polyline clip-path="url(#clip131)" style="stroke:#000000; stroke-linecap:round; stroke-linejoin:round; stroke-width:2; stroke-opacity:0.1; fill:none" points="366.714,1761.32 366.714,110.236 "/>
<polyline clip-path="url(#clip131)" style="stroke:#000000; stroke-linecap:round; stroke-linejoin:round; stroke-width:2; stroke-opacity:0.1; fill:none" points="987.31,1761.32 987.31,110.236 "/>
<polyline clip-path="url(#clip131)" style="stroke:#000000; stroke-linecap:round; stroke-linejoin:round; stroke-width:2; stroke-opacity:0.1; fill:none" points="1607.91,1761.32 1607.91,110.236 "/>
<polyline clip-path="url(#clip131)" style="stroke:#000000; stroke-linecap:round; stroke-linejoin:round; stroke-width:2; stroke-opacity:0.1; fill:none" points="2228.5,1761.32 2228.5,110.236 "/>
<polyline clip-path="url(#clip131)" style="stroke:#000000; stroke-linecap:round; stroke-linejoin:round; stroke-width:2; stroke-opacity:0.1; fill:none" points="2849.1,1761.32 2849.1,110.236 "/>
<polyline clip-path="url(#clip131)" style="stroke:#000000; stroke-linecap:round; stroke-linejoin:round; stroke-width:2; stroke-opacity:0.1; fill:none" points="287.402,1714.59 3089.76,1714.59 "/>
<polyline clip-path="url(#clip131)" style="stroke:#000000; stroke-linecap:round; stroke-linejoin:round; stroke-width:2; stroke-opacity:0.1; fill:none" points="287.402,1257.48 3089.76,1257.48 "/>
<polyline clip-path="url(#clip131)" style="stroke:#000000; stroke-linecap:round; stroke-linejoin:round; stroke-width:2; stroke-opacity:0.1; fill:none" points="287.402,800.371 3089.76,800.371 "/>
<polyline clip-path="url(#clip131)" style="stroke:#000000; stroke-linecap:round; stroke-linejoin:round; stroke-width:2; stroke-opacity:0.1; fill:none" points="287.402,343.262 3089.76,343.262 "/>
<polyline clip-path="url(#clip130)" style="stroke:#000000; stroke-linecap:round; stroke-linejoin:round; stroke-width:4; stroke-opacity:1; fill:none" points="287.402,1761.32 3089.76,1761.32 "/>
<polyline clip-path="url(#clip130)" style="stroke:#000000; stroke-linecap:round; stroke-linejoin:round; stroke-width:4; stroke-opacity:1; fill:none" points="366.714,1761.32 366.714,1742.42 "/>
<polyline clip-path="url(#clip130)" style="stroke:#000000; stroke-linecap:round; stroke-linejoin:round; stroke-width:4; stroke-opacity:1; fill:none" points="987.31,1761.32 987.31,1742.42 "/>
<polyline clip-path="url(#clip130)" style="stroke:#000000; stroke-linecap:round; stroke-linejoin:round; stroke-width:4; stroke-opacity:1; fill:none" points="1607.91,1761.32 1607.91,1742.42 "/>
<polyline clip-path="url(#clip130)" style="stroke:#000000; stroke-linecap:round; stroke-linejoin:round; stroke-width:4; stroke-opacity:1; fill:none" points="2228.5,1761.32 2228.5,1742.42 "/>
<polyline clip-path="url(#clip130)" style="stroke:#000000; stroke-linecap:round; stroke-linejoin:round; stroke-width:4; stroke-opacity:1; fill:none" points="2849.1,1761.32 2849.1,1742.42 "/>
<path clip-path="url(#clip130)" d="M366.714 1798.64 Q363.103 1798.64 361.275 1802.2 Q359.469 1805.74 359.469 1812.87 Q359.469 1819.98 361.275 1823.54 Q363.103 1827.09 366.714 1827.09 Q370.349 1827.09 372.154 1823.54 Q373.983 1819.98 373.983 1812.87 Q373.983 1805.74 372.154 1802.2 Q370.349 1798.64 366.714 1798.64 M366.714 1794.93 Q372.525 1794.93 375.58 1799.54 Q378.659 1804.12 378.659 1812.87 Q378.659 1821.6 375.58 1826.21 Q372.525 1830.79 366.714 1830.79 Q360.904 1830.79 357.826 1826.21 Q354.77 1821.6 354.77 1812.87 Q354.77 1804.12 357.826 1799.54 Q360.904 1794.93 366.714 1794.93 Z" fill="#000000" fill-rule="nonzero" fill-opacity="1" /><path clip-path="url(#clip130)" d="M966.581 1826.18 L982.9 1826.18 L982.9 1830.12 L960.956 1830.12 L960.956 1826.18 Q963.618 1823.43 968.201 1818.8 Q972.808 1814.15 973.988 1812.8 Q976.234 1810.28 977.113 1808.54 Q978.016 1806.78 978.016 1805.09 Q978.016 1802.34 976.072 1800.6 Q974.15 1798.87 971.049 1798.87 Q968.849 1798.87 966.396 1799.63 Q963.965 1800.4 961.187 1801.95 L961.187 1797.22 Q964.012 1796.09 966.465 1795.51 Q968.919 1794.93 970.956 1794.93 Q976.326 1794.93 979.521 1797.62 Q982.715 1800.3 982.715 1804.79 Q982.715 1806.92 981.905 1808.84 Q981.118 1810.74 979.011 1813.34 Q978.433 1814.01 975.331 1817.22 Q972.229 1820.42 966.581 1826.18 Z" fill="#000000" fill-rule="nonzero" fill-opacity="1" /><path clip-path="url(#clip130)" d="M992.761 1795.56 L1011.12 1795.56 L1011.12 1799.49 L997.044 1799.49 L997.044 1807.97 Q998.062 1807.62 999.081 1807.46 Q1000.1 1807.27 1001.12 1807.27 Q1006.9 1807.27 1010.28 1810.44 Q1013.66 1813.61 1013.66 1819.03 Q1013.66 1824.61 1010.19 1827.71 Q1006.72 1830.79 1000.4 1830.79 Q998.224 1830.79 995.956 1830.42 Q993.71 1830.05 991.303 1829.31 L991.303 1824.61 Q993.386 1825.74 995.609 1826.3 Q997.831 1826.85 1000.31 1826.85 Q1004.31 1826.85 1006.65 1824.75 Q1008.99 1822.64 1008.99 1819.03 Q1008.99 1815.42 1006.65 1813.31 Q1004.31 1811.21 1000.31 1811.21 Q998.433 1811.21 996.558 1811.62 Q994.706 1812.04 992.761 1812.92 L992.761 1795.56 Z" fill="#000000" fill-rule="nonzero" fill-opacity="1" /><path clip-path="url(#clip130)" d="M1582.6 1795.56 L1600.96 1795.56 L1600.96 1799.49 L1586.89 1799.49 L1586.89 1807.97 Q1587.91 1807.62 1588.92 1807.46 Q1589.94 1807.27 1590.96 1807.27 Q1596.75 1807.27 1600.13 1810.44 Q1603.51 1813.61 1603.51 1819.03 Q1603.51 1824.61 1600.04 1827.71 Q1596.56 1830.79 1590.24 1830.79 Q1588.07 1830.79 1585.8 1830.42 Q1583.55 1830.05 1581.15 1829.31 L1581.15 1824.61 Q1583.23 1825.74 1585.45 1826.3 Q1587.67 1826.85 1590.15 1826.85 Q1594.16 1826.85 1596.49 1824.75 Q1598.83 1822.64 1598.83 1819.03 Q1598.83 1815.42 1596.49 1813.31 Q1594.16 1811.21 1590.15 1811.21 Q1588.28 1811.21 1586.4 1811.62 Q1584.55 1812.04 1582.6 1812.92 L1582.6 1795.56 Z" fill="#000000" fill-rule="nonzero" fill-opacity="1" /><path clip-path="url(#clip130)" d="M1622.72 1798.64 Q1619.11 1798.64 1617.28 1802.2 Q1615.48 1805.74 1615.48 1812.87 Q1615.48 1819.98 1617.28 1823.54 Q1619.11 1827.09 1622.72 1827.09 Q1626.35 1827.09 1628.16 1823.54 Q1629.99 1819.98 1629.99 1812.87 Q1629.99 1805.74 1628.16 1802.2 Q1626.35 1798.64 1622.72 1798.64 M1622.72 1794.93 Q1628.53 1794.93 1631.59 1799.54 Q1634.66 1804.12 1634.66 1812.87 Q1634.66 1821.6 1631.59 1826.21 Q1628.53 1830.79 1622.72 1830.79 Q1616.91 1830.79 1613.83 1826.21 Q1610.78 1821.6 1610.78 1812.87 Q1610.78 1804.12 1613.83 1799.54 Q1616.91 1794.93 1622.72 1794.93 Z" fill="#000000" fill-rule="nonzero" fill-opacity="1" /><path clip-path="url(#clip130)" d="M2202.36 1795.56 L2224.58 1795.56 L2224.58 1797.55 L2212.03 1830.12 L2207.15 1830.12 L2218.95 1799.49 L2202.36 1799.49 L2202.36 1795.56 Z" fill="#000000" fill-rule="nonzero" fill-opacity="1" /><path clip-path="url(#clip130)" d="M2233.74 1795.56 L2252.1 1795.56 L2252.1 1799.49 L2238.03 1799.49 L2238.03 1807.97 Q2239.05 1807.62 2240.06 1807.46 Q2241.08 1807.27 2242.1 1807.27 Q2247.89 1807.27 2251.27 1810.44 Q2254.65 1813.61 2254.65 1819.03 Q2254.65 1824.61 2251.17 1827.71 Q2247.7 1830.79 2241.38 1830.79 Q2239.21 1830.79 2236.94 1830.42 Q2234.69 1830.05 2232.29 1829.31 L2232.29 1824.61 Q2234.37 1825.74 2236.59 1826.3 Q2238.81 1826.85 2241.29 1826.85 Q2245.3 1826.85 2247.63 1824.75 Q2249.97 1822.64 2249.97 1819.03 Q2249.97 1815.42 2247.63 1813.31 Q2245.3 1811.21 2241.29 1811.21 Q2239.42 1811.21 2237.54 1811.62 Q2235.69 1812.04 2233.74 1812.92 L2233.74 1795.56 Z" fill="#000000" fill-rule="nonzero" fill-opacity="1" /><path clip-path="url(#clip130)" d="M2808.7 1826.18 L2816.34 1826.18 L2816.34 1799.82 L2808.03 1801.48 L2808.03 1797.22 L2816.3 1795.56 L2820.97 1795.56 L2820.97 1826.18 L2828.61 1826.18 L2828.61 1830.12 L2808.7 1830.12 L2808.7 1826.18 Z" fill="#000000" fill-rule="nonzero" fill-opacity="1" /><path clip-path="url(#clip130)" d="M2848.06 1798.64 Q2844.44 1798.64 2842.62 1802.2 Q2840.81 1805.74 2840.81 1812.87 Q2840.81 1819.98 2842.62 1823.54 Q2844.44 1827.09 2848.06 1827.09 Q2851.69 1827.09 2853.49 1823.54 Q2855.32 1819.98 2855.32 1812.87 Q2855.32 1805.74 2853.49 1802.2 Q2851.69 1798.64 2848.06 1798.64 M2848.06 1794.93 Q2853.87 1794.93 2856.92 1799.54 Q2860 1804.12 2860 1812.87 Q2860 1821.6 2856.92 1826.21 Q2853.87 1830.79 2848.06 1830.79 Q2842.24 1830.79 2839.17 1826.21 Q2836.11 1821.6 2836.11 1812.87 Q2836.11 1804.12 2839.17 1799.54 Q2842.24 1794.93 2848.06 1794.93 Z" fill="#000000" fill-rule="nonzero" fill-opacity="1" /><path clip-path="url(#clip130)" d="M2878.22 1798.64 Q2874.61 1798.64 2872.78 1802.2 Q2870.97 1805.74 2870.97 1812.87 Q2870.97 1819.98 2872.78 1823.54 Q2874.61 1827.09 2878.22 1827.09 Q2881.85 1827.09 2883.66 1823.54 Q2885.49 1819.98 2885.49 1812.87 Q2885.49 1805.74 2883.66 1802.2 Q2881.85 1798.64 2878.22 1798.64 M2878.22 1794.93 Q2884.03 1794.93 2887.08 1799.54 Q2890.16 1804.12 2890.16 1812.87 Q2890.16 1821.6 2887.08 1826.21 Q2884.03 1830.79 2878.22 1830.79 Q2872.41 1830.79 2869.33 1826.21 Q2866.27 1821.6 2866.27 1812.87 Q2866.27 1804.12 2869.33 1799.54 Q2872.41 1794.93 2878.22 1794.93 Z" fill="#000000" fill-rule="nonzero" fill-opacity="1" /><path clip-path="url(#clip130)" d="M1555.08 1870.66 L1595.28 1870.66 L1595.28 1876.07 L1578.41 1876.07 L1578.41 1918.18 L1571.95 1918.18 L1571.95 1876.07 L1555.08 1876.07 L1555.08 1870.66 Z" fill="#000000" fill-rule="nonzero" fill-opacity="1" /><path clip-path="url(#clip130)" d="M1599.22 1882.53 L1605.08 1882.53 L1605.08 1918.18 L1599.22 1918.18 L1599.22 1882.53 M1599.22 1868.66 L1605.08 1868.66 L1605.08 1876.07 L1599.22 1876.07 L1599.22 1868.66 Z" fill="#000000" fill-rule="nonzero" fill-opacity="1" /><path clip-path="url(#clip130)" d="M1645.09 1889.38 Q1647.29 1885.43 1650.34 1883.55 Q1653.4 1881.67 1657.53 1881.67 Q1663.1 1881.67 1666.13 1885.59 Q1669.15 1889.47 1669.15 1896.67 L1669.15 1918.18 L1663.26 1918.18 L1663.26 1896.86 Q1663.26 1891.73 1661.45 1889.25 Q1659.63 1886.77 1655.91 1886.77 Q1651.36 1886.77 1648.72 1889.79 Q1646.08 1892.81 1646.08 1898.03 L1646.08 1918.18 L1640.19 1918.18 L1640.19 1896.86 Q1640.19 1891.7 1638.37 1889.25 Q1636.56 1886.77 1632.77 1886.77 Q1628.28 1886.77 1625.64 1889.82 Q1623 1892.85 1623 1898.03 L1623 1918.18 L1617.11 1918.18 L1617.11 1882.53 L1623 1882.53 L1623 1888.07 Q1625.01 1884.79 1627.81 1883.23 Q1630.61 1881.67 1634.46 1881.67 Q1638.34 1881.67 1641.05 1883.65 Q1643.78 1885.62 1645.09 1889.38 Z" fill="#000000" fill-rule="nonzero" fill-opacity="1" /><path clip-path="url(#clip130)" d="M1711.32 1898.89 L1711.32 1901.76 L1684.4 1901.76 Q1684.78 1907.81 1688.03 1910.99 Q1691.3 1914.14 1697.13 1914.14 Q1700.5 1914.14 1703.65 1913.31 Q1706.84 1912.48 1709.96 1910.83 L1709.96 1916.37 Q1706.8 1917.7 1703.49 1918.4 Q1700.18 1919.1 1696.78 1919.1 Q1688.25 1919.1 1683.25 1914.14 Q1678.29 1909.17 1678.29 1900.71 Q1678.29 1891.96 1683 1886.83 Q1687.74 1881.67 1695.76 1881.67 Q1702.95 1881.67 1707.12 1886.32 Q1711.32 1890.94 1711.32 1898.89 M1705.47 1897.17 Q1705.4 1892.37 1702.76 1889.5 Q1700.15 1886.64 1695.82 1886.64 Q1690.92 1886.64 1687.96 1889.41 Q1685.03 1892.18 1684.59 1897.21 L1705.47 1897.17 Z" fill="#000000" fill-rule="nonzero" fill-opacity="1" /><path clip-path="url(#clip130)" d="M1755.73 1868.72 Q1751.46 1876.04 1749.39 1883.2 Q1747.32 1890.36 1747.32 1897.72 Q1747.32 1905.07 1749.39 1912.29 Q1751.49 1919.49 1755.73 1926.78 L1750.63 1926.78 Q1745.86 1919.3 1743.47 1912.07 Q1741.12 1904.85 1741.12 1897.72 Q1741.12 1890.62 1743.47 1883.42 Q1745.83 1876.23 1750.63 1868.72 L1755.73 1868.72 Z" fill="#000000" fill-rule="nonzero" fill-opacity="1" /><path clip-path="url(#clip130)" d="M1796.72 1896.67 L1796.72 1918.18 L1790.86 1918.18 L1790.86 1896.86 Q1790.86 1891.8 1788.89 1889.28 Q1786.92 1886.77 1782.97 1886.77 Q1778.23 1886.77 1775.49 1889.79 Q1772.75 1892.81 1772.75 1898.03 L1772.75 1918.18 L1766.87 1918.18 L1766.87 1868.66 L1772.75 1868.66 L1772.75 1888.07 Q1774.85 1884.86 1777.69 1883.27 Q1780.55 1881.67 1784.28 1881.67 Q1790.42 1881.67 1793.57 1885.49 Q1796.72 1889.28 1796.72 1896.67 Z" fill="#000000" fill-rule="nonzero" fill-opacity="1" /><path clip-path="url(#clip130)" d="M1807.48 1868.72 L1812.57 1868.72 Q1817.35 1876.23 1819.7 1883.42 Q1822.09 1890.62 1822.09 1897.72 Q1822.09 1904.85 1819.7 1912.07 Q1817.35 1919.3 1812.57 1926.78 L1807.48 1926.78 Q1811.71 1919.49 1813.78 1912.29 Q1815.88 1905.07 1815.88 1897.72 Q1815.88 1890.36 1813.78 1883.2 Q1811.71 1876.04 1807.48 1868.72 Z" fill="#000000" fill-rule="nonzero" fill-opacity="1" /><polyline clip-path="url(#clip130)" style="stroke:#000000; stroke-linecap:round; stroke-linejoin:round; stroke-width:4; stroke-opacity:1; fill:none" points="287.402,1761.32 287.402,110.236 "/>
<polyline clip-path="url(#clip130)" style="stroke:#000000; stroke-linecap:round; stroke-linejoin:round; stroke-width:4; stroke-opacity:1; fill:none" points="287.402,1714.59 306.3,1714.59 "/>
<polyline clip-path="url(#clip130)" style="stroke:#000000; stroke-linecap:round; stroke-linejoin:round; stroke-width:4; stroke-opacity:1; fill:none" points="287.402,1257.48 306.3,1257.48 "/>
<polyline clip-path="url(#clip130)" style="stroke:#000000; stroke-linecap:round; stroke-linejoin:round; stroke-width:4; stroke-opacity:1; fill:none" points="287.402,800.371 306.3,800.371 "/>
<polyline clip-path="url(#clip130)" style="stroke:#000000; stroke-linecap:round; stroke-linejoin:round; stroke-width:4; stroke-opacity:1; fill:none" points="287.402,343.262 306.3,343.262 "/>
<path clip-path="url(#clip130)" d="M182.227 1700.39 Q178.616 1700.39 176.787 1703.95 Q174.981 1707.49 174.981 1714.62 Q174.981 1721.73 176.787 1725.29 Q178.616 1728.84 182.227 1728.84 Q185.861 1728.84 187.666 1725.29 Q189.495 1721.73 189.495 1714.62 Q189.495 1707.49 187.666 1703.95 Q185.861 1700.39 182.227 1700.39 M182.227 1696.68 Q188.037 1696.68 191.092 1701.29 Q194.171 1705.87 194.171 1714.62 Q194.171 1723.35 191.092 1727.96 Q188.037 1732.54 182.227 1732.54 Q176.417 1732.54 173.338 1727.96 Q170.282 1723.35 170.282 1714.62 Q170.282 1705.87 173.338 1701.29 Q176.417 1696.68 182.227 1696.68 Z" fill="#000000" fill-rule="nonzero" fill-opacity="1" /><path clip-path="url(#clip130)" d="M202.389 1725.99 L207.273 1725.99 L207.273 1731.87 L202.389 1731.87 L202.389 1725.99 Z" fill="#000000" fill-rule="nonzero" fill-opacity="1" /><path clip-path="url(#clip130)" d="M227.458 1700.39 Q223.847 1700.39 222.018 1703.95 Q220.213 1707.49 220.213 1714.62 Q220.213 1721.73 222.018 1725.29 Q223.847 1728.84 227.458 1728.84 Q231.092 1728.84 232.898 1725.29 Q234.726 1721.73 234.726 1714.62 Q234.726 1707.49 232.898 1703.95 Q231.092 1700.39 227.458 1700.39 M227.458 1696.68 Q233.268 1696.68 236.324 1701.29 Q239.402 1705.87 239.402 1714.62 Q239.402 1723.35 236.324 1727.96 Q233.268 1732.54 227.458 1732.54 Q221.648 1732.54 218.569 1727.96 Q215.514 1723.35 215.514 1714.62 Q215.514 1705.87 218.569 1701.29 Q221.648 1696.68 227.458 1696.68 Z" fill="#000000" fill-rule="nonzero" fill-opacity="1" /><path clip-path="url(#clip130)" d="M183.454 1243.28 Q179.842 1243.28 178.014 1246.84 Q176.208 1250.39 176.208 1257.51 Q176.208 1264.62 178.014 1268.19 Q179.842 1271.73 183.454 1271.73 Q187.088 1271.73 188.893 1268.19 Q190.722 1264.62 190.722 1257.51 Q190.722 1250.39 188.893 1246.84 Q187.088 1243.28 183.454 1243.28 M183.454 1239.58 Q189.264 1239.58 192.319 1244.18 Q195.398 1248.76 195.398 1257.51 Q195.398 1266.24 192.319 1270.85 Q189.264 1275.43 183.454 1275.43 Q177.643 1275.43 174.565 1270.85 Q171.509 1266.24 171.509 1257.51 Q171.509 1248.76 174.565 1244.18 Q177.643 1239.58 183.454 1239.58 Z" fill="#000000" fill-rule="nonzero" fill-opacity="1" /><path clip-path="url(#clip130)" d="M203.615 1268.88 L208.5 1268.88 L208.5 1274.76 L203.615 1274.76 L203.615 1268.88 Z" fill="#000000" fill-rule="nonzero" fill-opacity="1" /><path clip-path="url(#clip130)" d="M219.495 1270.82 L227.134 1270.82 L227.134 1244.46 L218.824 1246.13 L218.824 1241.87 L227.088 1240.2 L231.763 1240.2 L231.763 1270.82 L239.402 1270.82 L239.402 1274.76 L219.495 1274.76 L219.495 1270.82 Z" fill="#000000" fill-rule="nonzero" fill-opacity="1" /><path clip-path="url(#clip130)" d="M183.824 786.17 Q180.213 786.17 178.384 789.735 Q176.579 793.276 176.579 800.406 Q176.579 807.512 178.384 811.077 Q180.213 814.619 183.824 814.619 Q187.458 814.619 189.264 811.077 Q191.092 807.512 191.092 800.406 Q191.092 793.276 189.264 789.735 Q187.458 786.17 183.824 786.17 M183.824 782.466 Q189.634 782.466 192.69 787.073 Q195.768 791.656 195.768 800.406 Q195.768 809.133 192.69 813.739 Q189.634 818.322 183.824 818.322 Q178.014 818.322 174.935 813.739 Q171.879 809.133 171.879 800.406 Q171.879 791.656 174.935 787.073 Q178.014 782.466 183.824 782.466 Z" fill="#000000" fill-rule="nonzero" fill-opacity="1" /><path clip-path="url(#clip130)" d="M203.986 811.772 L208.87 811.772 L208.87 817.651 L203.986 817.651 L203.986 811.772 Z" fill="#000000" fill-rule="nonzero" fill-opacity="1" /><path clip-path="url(#clip130)" d="M223.083 813.716 L239.402 813.716 L239.402 817.651 L217.458 817.651 L217.458 813.716 Q220.12 810.961 224.703 806.332 Q229.31 801.679 230.49 800.336 Q232.736 797.813 233.615 796.077 Q234.518 794.318 234.518 792.628 Q234.518 789.874 232.574 788.137 Q230.652 786.401 227.55 786.401 Q225.351 786.401 222.898 787.165 Q220.467 787.929 217.689 789.48 L217.689 784.758 Q220.513 783.624 222.967 783.045 Q225.421 782.466 227.458 782.466 Q232.828 782.466 236.023 785.151 Q239.217 787.837 239.217 792.327 Q239.217 794.457 238.407 796.378 Q237.62 798.276 235.513 800.869 Q234.935 801.54 231.833 804.758 Q228.731 807.952 223.083 813.716 Z" fill="#000000" fill-rule="nonzero" fill-opacity="1" /><path clip-path="url(#clip130)" d="M182.875 329.061 Q179.264 329.061 177.435 332.626 Q175.629 336.167 175.629 343.297 Q175.629 350.403 177.435 353.968 Q179.264 357.51 182.875 357.51 Q186.509 357.51 188.315 353.968 Q190.143 350.403 190.143 343.297 Q190.143 336.167 188.315 332.626 Q186.509 329.061 182.875 329.061 M182.875 325.357 Q188.685 325.357 191.741 329.964 Q194.819 334.547 194.819 343.297 Q194.819 352.024 191.741 356.63 Q188.685 361.214 182.875 361.214 Q177.065 361.214 173.986 356.63 Q170.93 352.024 170.93 343.297 Q170.93 334.547 173.986 329.964 Q177.065 325.357 182.875 325.357 Z" fill="#000000" fill-rule="nonzero" fill-opacity="1" /><path clip-path="url(#clip130)" d="M203.037 354.663 L207.921 354.663 L207.921 360.542 L203.037 360.542 L203.037 354.663 Z" fill="#000000" fill-rule="nonzero" fill-opacity="1" /><path clip-path="url(#clip130)" d="M232.273 341.908 Q235.629 342.626 237.504 344.894 Q239.402 347.163 239.402 350.496 Q239.402 355.612 235.884 358.413 Q232.365 361.214 225.884 361.214 Q223.708 361.214 221.393 360.774 Q219.101 360.357 216.648 359.501 L216.648 354.987 Q218.592 356.121 220.907 356.7 Q223.222 357.278 225.745 357.278 Q230.143 357.278 232.435 355.542 Q234.75 353.806 234.75 350.496 Q234.75 347.44 232.597 345.728 Q230.467 343.991 226.648 343.991 L222.62 343.991 L222.62 340.149 L226.833 340.149 Q230.282 340.149 232.111 338.783 Q233.939 337.394 233.939 334.802 Q233.939 332.14 232.041 330.728 Q230.166 329.292 226.648 329.292 Q224.726 329.292 222.527 329.709 Q220.328 330.126 217.689 331.005 L217.689 326.839 Q220.351 326.098 222.666 325.728 Q225.004 325.357 227.064 325.357 Q232.388 325.357 235.49 327.788 Q238.592 330.195 238.592 334.316 Q238.592 337.186 236.949 339.177 Q235.305 341.144 232.273 341.908 Z" fill="#000000" fill-rule="nonzero" fill-opacity="1" /><path clip-path="url(#clip130)" d="M73.747 1119.4 L79.2215 1119.4 Q77.8528 1121.88 77.1844 1124.39 Q76.4842 1126.88 76.4842 1129.42 Q76.4842 1135.12 80.1127 1138.27 Q83.7093 1141.42 90.2341 1141.42 Q96.759 1141.42 100.387 1138.27 Q103.984 1135.12 103.984 1129.42 Q103.984 1126.88 103.316 1124.39 Q102.615 1121.88 101.247 1119.4 L106.658 1119.4 Q107.803 1121.85 108.376 1124.49 Q108.949 1127.1 108.949 1130.06 Q108.949 1138.11 103.889 1142.85 Q98.8278 1147.6 90.2341 1147.6 Q81.5131 1147.6 76.516 1142.82 Q71.519 1138.02 71.519 1129.68 Q71.519 1126.97 72.0919 1124.39 Q72.633 1121.81 73.747 1119.4 Z" fill="#000000" fill-rule="nonzero" fill-opacity="1" /><path clip-path="url(#clip130)" d="M60.5063 1115.54 L60.5063 1075.35 L65.9171 1075.35 L65.9171 1092.21 L108.026 1092.21 L108.026 1098.68 L65.9171 1098.68 L65.9171 1115.54 L60.5063 1115.54 Z" fill="#000000" fill-rule="nonzero" fill-opacity="1" /><path clip-path="url(#clip130)" d="M86.5102 1039.76 L108.026 1039.76 L108.026 1045.62 L86.7012 1045.62 Q81.6404 1045.62 79.126 1047.59 Q76.6115 1049.56 76.6115 1053.51 Q76.6115 1058.25 79.6352 1060.99 Q82.6589 1063.73 87.8788 1063.73 L108.026 1063.73 L108.026 1069.62 L72.3783 1069.62 L72.3783 1063.73 L77.9165 1063.73 Q74.7018 1061.63 73.1104 1058.79 Q71.519 1055.93 71.519 1052.21 Q71.519 1046.06 75.3384 1042.91 Q79.126 1039.76 86.5102 1039.76 Z" fill="#000000" fill-rule="nonzero" fill-opacity="1" /><path clip-path="url(#clip130)" d="M60.5063 1034.41 L60.5063 994.214 L65.9171 994.214 L65.9171 1011.08 L108.026 1011.08 L108.026 1017.54 L65.9171 1017.54 L65.9171 1034.41 L60.5063 1034.41 Z" fill="#000000" fill-rule="nonzero" fill-opacity="1" /><path clip-path="url(#clip130)" d="M58.5011 968.083 L58.5011 954.588 L63.0526 954.588 L63.0526 962.226 L112.069 962.226 L112.069 954.588 L116.62 954.588 L116.62 968.083 L58.5011 968.083 Z" fill="#000000" fill-rule="nonzero" fill-opacity="1" /><path clip-path="url(#clip130)" d="M86.5102 912.478 L108.026 912.478 L108.026 918.335 L86.7012 918.335 Q81.6404 918.335 79.126 920.308 Q76.6115 922.282 76.6115 926.228 Q76.6115 930.971 79.6352 933.708 Q82.6589 936.445 87.8788 936.445 L108.026 936.445 L108.026 942.334 L72.3783 942.334 L72.3783 936.445 L77.9165 936.445 Q74.7018 934.345 73.1104 931.512 Q71.519 928.647 71.519 924.923 Q71.519 918.781 75.3384 915.63 Q79.126 912.478 86.5102 912.478 Z" fill="#000000" fill-rule="nonzero" fill-opacity="1" /><path clip-path="url(#clip130)" d="M89.7885 877.34 Q83.4228 877.34 79.9217 879.982 Q76.4206 882.591 76.4206 887.334 Q76.4206 892.045 79.9217 894.686 Q83.4228 897.296 89.7885 897.296 Q96.1224 897.296 99.6236 894.686 Q103.125 892.045 103.125 887.334 Q103.125 882.591 99.6236 879.982 Q96.1224 877.34 89.7885 877.34 M103.602 871.483 Q112.705 871.483 117.129 875.526 Q121.585 879.568 121.585 887.907 Q121.585 890.994 121.108 893.731 Q120.662 896.469 119.707 899.047 L114.01 899.047 Q115.411 896.469 116.079 893.954 Q116.747 891.44 116.747 888.83 Q116.747 883.069 113.724 880.204 Q110.732 877.34 104.652 877.34 L101.756 877.34 Q104.907 879.154 106.467 881.987 Q108.026 884.819 108.026 888.766 Q108.026 895.323 103.029 899.333 Q98.0321 903.344 89.7885 903.344 Q81.5131 903.344 76.516 899.333 Q71.519 895.323 71.519 888.766 Q71.519 884.819 73.0786 881.987 Q74.6382 879.154 77.7892 877.34 L72.3783 877.34 L72.3783 871.483 L103.602 871.483 Z" fill="#000000" fill-rule="nonzero" fill-opacity="1" /><path clip-path="url(#clip130)" d="M60.5063 849.012 L60.5063 843.602 L114.074 860.152 L114.074 865.563 L60.5063 849.012 Z" fill="#000000" fill-rule="nonzero" fill-opacity="1" /><path clip-path="url(#clip130)" d="M79.2215 809.704 Q75.2747 807.508 73.3968 804.452 Q71.519 801.397 71.519 797.259 Q71.519 791.689 75.4339 788.665 Q79.3169 785.642 86.5102 785.642 L108.026 785.642 L108.026 791.53 L86.7012 791.53 Q81.5768 791.53 79.0941 793.344 Q76.6115 795.159 76.6115 798.882 Q76.6115 803.434 79.6352 806.076 Q82.6589 808.717 87.8788 808.717 L108.026 808.717 L108.026 814.606 L86.7012 814.606 Q81.5449 814.606 79.0941 816.42 Q76.6115 818.234 76.6115 822.022 Q76.6115 826.51 79.6671 829.151 Q82.6908 831.793 87.8788 831.793 L108.026 831.793 L108.026 837.681 L72.3783 837.681 L72.3783 831.793 L77.9165 831.793 Q74.6382 829.788 73.0786 826.987 Q71.519 824.186 71.519 820.335 Q71.519 816.452 73.4923 813.746 Q75.4657 811.009 79.2215 809.704 Z" fill="#000000" fill-rule="nonzero" fill-opacity="1" /><path clip-path="url(#clip130)" d="M60.5063 773.706 L60.5063 767.277 L102.615 767.277 L102.615 744.137 L108.026 744.137 L108.026 773.706 L60.5063 773.706 Z" fill="#000000" fill-rule="nonzero" fill-opacity="1" /><path clip-path="url(#clip130)" d="M58.5011 723.958 L116.62 723.958 L116.62 737.453 L112.069 737.453 L112.069 729.846 L63.0526 729.846 L63.0526 737.453 L58.5011 737.453 L58.5011 723.958 Z" fill="#000000" fill-rule="nonzero" fill-opacity="1" /><circle clip-path="url(#clip131)" cx="578.131" cy="1211.77" r="21.6" fill="#ff0000" fill-rule="evenodd" fill-opacity="1" stroke="#000000" stroke-opacity="1" stroke-width="6"/>
<circle clip-path="url(#clip131)" cx="1003.86" cy="1394.61" r="21.6" fill="#ff0000" fill-rule="evenodd" fill-opacity="1" stroke="#000000" stroke-opacity="1" stroke-width="6"/>
<circle clip-path="url(#clip131)" cx="1332.36" cy="1394.61" r="21.6" fill="#ff0000" fill-rule="evenodd" fill-opacity="1" stroke="#000000" stroke-opacity="1" stroke-width="6"/>
<circle clip-path="url(#clip131)" cx="1934.75" cy="1440.32" r="21.6" fill="#ff0000" fill-rule="evenodd" fill-opacity="1" stroke="#000000" stroke-opacity="1" stroke-width="6"/>
<circle clip-path="url(#clip131)" cx="2513.98" cy="1394.61" r="21.6" fill="#ff0000" fill-rule="evenodd" fill-opacity="1" stroke="#000000" stroke-opacity="1" stroke-width="6"/>
<polyline clip-path="url(#clip131)" style="stroke:#ff8c00; stroke-linecap:round; stroke-linejoin:round; stroke-width:8; stroke-opacity:1; fill:none" stroke-dasharray="32, 20" points="366.714,1714.59 391.538,278.633 416.362,156.965 441.186,346.447 466.01,577.234 490.834,781.945 515.657,947.951 540.481,1076.74 565.305,1173.15 590.129,1242.78 614.953,1291.24 639.776,1323.76 664.6,1344.83 689.424,1358.07 714.248,1366.19 739.072,1371.11 763.896,1374.11 788.719,1376.04 813.543,1377.42 838.367,1378.57 863.191,1379.65 888.015,1380.78 912.839,1381.98 937.662,1383.28 962.486,1384.67 987.31,1386.14 1012.13,1387.69 1036.96,1389.29 1061.78,1390.93 1086.61,1392.6 1111.43,1394.3 1136.25,1396.01 1161.08,1397.72 1185.9,1399.43 1210.72,1401.13 1235.55,1402.82 1260.37,1404.49 1285.2,1406.13 1310.02,1407.75 1334.84,1409.35 1359.67,1410.9 1384.49,1412.43 1409.32,1413.91 1434.14,1415.34 1458.96,1416.73 1483.79,1418.07 1508.61,1419.35 1533.43,1420.57 1558.26,1421.72 1583.08,1422.81 1607.91,1423.82 1632.73,1424.75 1657.55,1425.6 1682.38,1426.37 1707.2,1427.04 1732.02,1427.63 1756.85,1428.11 1781.67,1428.5 1806.5,1428.78 1831.32,1428.96 1856.14,1429.04 1880.97,1429 1905.79,1428.86 1930.62,1428.61 1955.44,1428.26 1980.26,1427.79 2005.09,1427.23 2029.91,1426.56 2054.73,1425.8 2079.56,1424.94 2104.38,1423.98 2129.21,1422.95 2154.03,1421.83 2178.85,1420.63 2203.68,1419.37 2228.5,1418.04 2253.33,1416.65 2278.15,1415.21 2302.97,1413.72 2327.8,1412.2 2352.62,1410.64 2377.44,1409.06 2402.27,1407.46 2427.09,1405.85 2451.92,1404.24 2476.74,1402.63 2501.56,1401.02 2526.39,1399.43 2551.21,1397.86 2576.03,1396.32 2600.86,1394.81 2625.68,1393.33 2650.51,1391.89 2675.33,1390.5 2700.15,1389.16 2724.98,1387.87 2749.8,1386.64 2774.63,1385.47 2799.45,1384.36 2824.27,1383.32 2849.1,1382.35 2873.92,1381.45 2898.74,1380.62 2923.57,1379.87 2948.39,1379.19 2973.22,1378.6 2998.04,1378.08 3010.45,1377.85 "/>
</svg>
