<?xml version="1.0" encoding="utf-8"?>
<svg xmlns="http://www.w3.org/2000/svg" xmlns:xlink="http://www.w3.org/1999/xlink" width="600" height="400" viewBox="0 0 2400 1600">
<defs>
  <clipPath id="clip440">
    <rect x="0" y="0" width="2400" height="1600"/>
  </clipPath>
</defs>
<path clip-path="url(#clip440)" d="M0 1600 L2400 1600 L2400 0 L0 0  Z" fill="#ffffff" fill-rule="evenodd" fill-opacity="1"/>
<defs>
  <clipPath id="clip441">
    <rect x="175" y="123" width="2178" height="1301"/>
  </clipPath>
</defs>
<path clip-path="url(#clip440)" d="M247.459 1423.18 L2352.76 1423.18 L2352.76 123.472 L247.459 123.472  Z" fill="#ffffff" fill-rule="evenodd" fill-opacity="1"/>
<defs>
  <clipPath id="clip442">
    <rect x="247" y="123" width="2106" height="1301"/>
  </clipPath>
</defs>
<polyline clip-path="url(#clip442)" style="stroke:#000000; stroke-linecap:round; stroke-linejoin:round; stroke-width:2; stroke-opacity:0.1; fill:none" points="292.856,1423.18 292.856,123.472 "/>
<polyline clip-path="url(#clip442)" style="stroke:#000000; stroke-linecap:round; stroke-linejoin:round; stroke-width:2; stroke-opacity:0.1; fill:none" points="647.522,1423.18 647.522,123.472 "/>
<polyline clip-path="url(#clip442)" style="stroke:#000000; stroke-linecap:round; stroke-linejoin:round; stroke-width:2; stroke-opacity:0.1; fill:none" points="1002.19,1423.18 1002.19,123.472 "/>
<polyline clip-path="url(#clip442)" style="stroke:#000000; stroke-linecap:round; stroke-linejoin:round; stroke-width:2; stroke-opacity:0.1; fill:none" points="1356.85,1423.18 1356.85,123.472 "/>
<polyline clip-path="url(#clip442)" style="stroke:#000000; stroke-linecap:round; stroke-linejoin:round; stroke-width:2; stroke-opacity:0.1; fill:none" points="1711.52,1423.18 1711.52,123.472 "/>
<polyline clip-path="url(#clip442)" style="stroke:#000000; stroke-linecap:round; stroke-linejoin:round; stroke-width:2; stroke-opacity:0.1; fill:none" points="2066.19,1423.18 2066.19,123.472 "/>
<polyline clip-path="url(#clip442)" style="stroke:#000000; stroke-linecap:round; stroke-linejoin:round; stroke-width:2; stroke-opacity:0.1; fill:none" points="247.459,1386.4 2352.76,1386.4 "/>
<polyline clip-path="url(#clip442)" style="stroke:#000000; stroke-linecap:round; stroke-linejoin:round; stroke-width:2; stroke-opacity:0.1; fill:none" points="247.459,1106.66 2352.76,1106.66 "/>
<polyline clip-path="url(#clip442)" style="stroke:#000000; stroke-linecap:round; stroke-linejoin:round; stroke-width:2; stroke-opacity:0.1; fill:none" points="247.459,826.921 2352.76,826.921 "/>
<polyline clip-path="url(#clip442)" style="stroke:#000000; stroke-linecap:round; stroke-linejoin:round; stroke-width:2; stroke-opacity:0.1; fill:none" points="247.459,547.183 2352.76,547.183 "/>
<polyline clip-path="url(#clip442)" style="stroke:#000000; stroke-linecap:round; stroke-linejoin:round; stroke-width:2; stroke-opacity:0.1; fill:none" points="247.459,267.446 2352.76,267.446 "/>
<polyline clip-path="url(#clip440)" style="stroke:#000000; stroke-linecap:round; stroke-linejoin:round; stroke-width:4; stroke-opacity:1; fill:none" points="247.459,1423.18 2352.76,1423.18 "/>
<polyline clip-path="url(#clip440)" style="stroke:#000000; stroke-linecap:round; stroke-linejoin:round; stroke-width:4; stroke-opacity:1; fill:none" points="292.856,1423.18 292.856,1404.28 "/>
<polyline clip-path="url(#clip440)" style="stroke:#000000; stroke-linecap:round; stroke-linejoin:round; stroke-width:4; stroke-opacity:1; fill:none" points="647.522,1423.18 647.522,1404.28 "/>
<polyline clip-path="url(#clip440)" style="stroke:#000000; stroke-linecap:round; stroke-linejoin:round; stroke-width:4; stroke-opacity:1; fill:none" points="1002.19,1423.18 1002.19,1404.28 "/>
<polyline clip-path="url(#clip440)" style="stroke:#000000; stroke-linecap:round; stroke-linejoin:round; stroke-width:4; stroke-opacity:1; fill:none" points="1356.85,1423.18 1356.85,1404.28 "/>
<polyline clip-path="url(#clip440)" style="stroke:#000000; stroke-linecap:round; stroke-linejoin:round; stroke-width:4; stroke-opacity:1; fill:none" points="1711.52,1423.18 1711.52,1404.28 "/>
<polyline clip-path="url(#clip440)" style="stroke:#000000; stroke-linecap:round; stroke-linejoin:round; stroke-width:4; stroke-opacity:1; fill:none" points="2066.19,1423.18 2066.19,1404.28 "/>
<path clip-path="url(#clip440)" d="M292.856 1454.1 Q289.245 1454.1 287.416 1457.66 Q285.611 1461.2 285.611 1468.33 Q285.611 1475.44 287.416 1479.01 Q289.245 1482.55 292.856 1482.55 Q296.49 1482.55 298.296 1479.01 Q300.124 1475.44 300.124 1468.33 Q300.124 1461.2 298.296 1457.66 Q296.49 1454.1 292.856 1454.1 M292.856 1450.39 Q298.666 1450.39 301.722 1455 Q304.8 1459.58 304.8 1468.33 Q304.8 1477.06 301.722 1481.67 Q298.666 1486.25 292.856 1486.25 Q287.046 1486.25 283.967 1481.67 Q280.912 1477.06 280.912 1468.33 Q280.912 1459.58 283.967 1455 Q287.046 1450.39 292.856 1450.39 Z" fill="#000000" fill-rule="nonzero" fill-opacity="1" /><path clip-path="url(#clip440)" d="M626.793 1481.64 L643.112 1481.64 L643.112 1485.58 L621.168 1485.58 L621.168 1481.64 Q623.83 1478.89 628.413 1474.26 Q633.02 1469.61 634.2 1468.27 Q636.446 1465.74 637.325 1464.01 Q638.228 1462.25 638.228 1460.56 Q638.228 1457.8 636.284 1456.07 Q634.362 1454.33 631.26 1454.33 Q629.061 1454.33 626.608 1455.09 Q624.177 1455.86 621.399 1457.41 L621.399 1452.69 Q624.223 1451.55 626.677 1450.97 Q629.131 1450.39 631.168 1450.39 Q636.538 1450.39 639.733 1453.08 Q642.927 1455.77 642.927 1460.26 Q642.927 1462.39 642.117 1464.31 Q641.33 1466.2 639.223 1468.8 Q638.645 1469.47 635.543 1472.69 Q632.441 1475.88 626.793 1481.64 Z" fill="#000000" fill-rule="nonzero" fill-opacity="1" /><path clip-path="url(#clip440)" d="M652.973 1451.02 L671.33 1451.02 L671.33 1454.96 L657.256 1454.96 L657.256 1463.43 Q658.274 1463.08 659.293 1462.92 Q660.311 1462.73 661.33 1462.73 Q667.117 1462.73 670.496 1465.9 Q673.876 1469.08 673.876 1474.49 Q673.876 1480.07 670.404 1483.17 Q666.932 1486.25 660.612 1486.25 Q658.436 1486.25 656.168 1485.88 Q653.922 1485.51 651.515 1484.77 L651.515 1480.07 Q653.598 1481.2 655.82 1481.76 Q658.043 1482.32 660.52 1482.32 Q664.524 1482.32 666.862 1480.21 Q669.2 1478.1 669.2 1474.49 Q669.2 1470.88 666.862 1468.77 Q664.524 1466.67 660.52 1466.67 Q658.645 1466.67 656.77 1467.08 Q654.918 1467.5 652.973 1468.38 L652.973 1451.02 Z" fill="#000000" fill-rule="nonzero" fill-opacity="1" /><path clip-path="url(#clip440)" d="M976.887 1451.02 L995.243 1451.02 L995.243 1454.96 L981.169 1454.96 L981.169 1463.43 Q982.188 1463.08 983.207 1462.92 Q984.225 1462.73 985.244 1462.73 Q991.031 1462.73 994.41 1465.9 Q997.79 1469.08 997.79 1474.49 Q997.79 1480.07 994.318 1483.17 Q990.845 1486.25 984.526 1486.25 Q982.35 1486.25 980.082 1485.88 Q977.836 1485.51 975.429 1484.77 L975.429 1480.07 Q977.512 1481.2 979.734 1481.76 Q981.957 1482.32 984.433 1482.32 Q988.438 1482.32 990.776 1480.21 Q993.114 1478.1 993.114 1474.49 Q993.114 1470.88 990.776 1468.77 Q988.438 1466.67 984.433 1466.67 Q982.558 1466.67 980.683 1467.08 Q978.832 1467.5 976.887 1468.38 L976.887 1451.02 Z" fill="#000000" fill-rule="nonzero" fill-opacity="1" /><path clip-path="url(#clip440)" d="M1017 1454.1 Q1013.39 1454.1 1011.56 1457.66 Q1009.76 1461.2 1009.76 1468.33 Q1009.76 1475.44 1011.56 1479.01 Q1013.39 1482.55 1017 1482.55 Q1020.64 1482.55 1022.44 1479.01 Q1024.27 1475.44 1024.27 1468.33 Q1024.27 1461.2 1022.44 1457.66 Q1020.64 1454.1 1017 1454.1 M1017 1450.39 Q1022.81 1450.39 1025.87 1455 Q1028.95 1459.58 1028.95 1468.33 Q1028.95 1477.06 1025.87 1481.67 Q1022.81 1486.25 1017 1486.25 Q1011.19 1486.25 1008.11 1481.67 Q1005.06 1477.06 1005.06 1468.33 Q1005.06 1459.58 1008.11 1455 Q1011.19 1450.39 1017 1450.39 Z" fill="#000000" fill-rule="nonzero" fill-opacity="1" /><path clip-path="url(#clip440)" d="M1330.71 1451.02 L1352.93 1451.02 L1352.93 1453.01 L1340.38 1485.58 L1335.5 1485.58 L1347.31 1454.96 L1330.71 1454.96 L1330.71 1451.02 Z" fill="#000000" fill-rule="nonzero" fill-opacity="1" /><path clip-path="url(#clip440)" d="M1362.1 1451.02 L1380.45 1451.02 L1380.45 1454.96 L1366.38 1454.96 L1366.38 1463.43 Q1367.4 1463.08 1368.42 1462.92 Q1369.43 1462.73 1370.45 1462.73 Q1376.24 1462.73 1379.62 1465.9 Q1383 1469.08 1383 1474.49 Q1383 1480.07 1379.53 1483.17 Q1376.06 1486.25 1369.74 1486.25 Q1367.56 1486.25 1365.29 1485.88 Q1363.05 1485.51 1360.64 1484.77 L1360.64 1480.07 Q1362.72 1481.2 1364.94 1481.76 Q1367.17 1482.32 1369.64 1482.32 Q1373.65 1482.32 1375.99 1480.21 Q1378.32 1478.1 1378.32 1474.49 Q1378.32 1470.88 1375.99 1468.77 Q1373.65 1466.67 1369.64 1466.67 Q1367.77 1466.67 1365.89 1467.08 Q1364.04 1467.5 1362.1 1468.38 L1362.1 1451.02 Z" fill="#000000" fill-rule="nonzero" fill-opacity="1" /><path clip-path="url(#clip440)" d="M1671.13 1481.64 L1678.77 1481.64 L1678.77 1455.28 L1670.46 1456.95 L1670.46 1452.69 L1678.72 1451.02 L1683.39 1451.02 L1683.39 1481.64 L1691.03 1481.64 L1691.03 1485.58 L1671.13 1485.58 L1671.13 1481.64 Z" fill="#000000" fill-rule="nonzero" fill-opacity="1" /><path clip-path="url(#clip440)" d="M1710.48 1454.1 Q1706.87 1454.1 1705.04 1457.66 Q1703.23 1461.2 1703.23 1468.33 Q1703.23 1475.44 1705.04 1479.01 Q1706.87 1482.55 1710.48 1482.55 Q1714.11 1482.55 1715.92 1479.01 Q1717.75 1475.44 1717.75 1468.33 Q1717.75 1461.2 1715.92 1457.66 Q1714.11 1454.1 1710.48 1454.1 M1710.48 1450.39 Q1716.29 1450.39 1719.34 1455 Q1722.42 1459.58 1722.42 1468.33 Q1722.42 1477.06 1719.34 1481.67 Q1716.29 1486.25 1710.48 1486.25 Q1704.67 1486.25 1701.59 1481.67 Q1698.53 1477.06 1698.53 1468.33 Q1698.53 1459.58 1701.59 1455 Q1704.67 1450.39 1710.48 1450.39 Z" fill="#000000" fill-rule="nonzero" fill-opacity="1" /><path clip-path="url(#clip440)" d="M1740.64 1454.1 Q1737.03 1454.1 1735.2 1457.66 Q1733.39 1461.2 1733.39 1468.33 Q1733.39 1475.44 1735.2 1479.01 Q1737.03 1482.55 1740.64 1482.55 Q1744.27 1482.55 1746.08 1479.01 Q1747.91 1475.44 1747.91 1468.33 Q1747.91 1461.2 1746.08 1457.66 Q1744.27 1454.1 1740.64 1454.1 M1740.64 1450.39 Q1746.45 1450.39 1749.51 1455 Q1752.58 1459.58 1752.58 1468.33 Q1752.58 1477.06 1749.51 1481.67 Q1746.45 1486.25 1740.64 1486.25 Q1734.83 1486.25 1731.75 1481.67 Q1728.7 1477.06 1728.7 1468.33 Q1728.7 1459.58 1731.75 1455 Q1734.83 1450.39 1740.64 1450.39 Z" fill="#000000" fill-rule="nonzero" fill-opacity="1" /><path clip-path="url(#clip440)" d="M2026.29 1481.64 L2033.93 1481.64 L2033.93 1455.28 L2025.62 1456.95 L2025.62 1452.69 L2033.88 1451.02 L2038.56 1451.02 L2038.56 1481.64 L2046.2 1481.64 L2046.2 1485.58 L2026.29 1485.58 L2026.29 1481.64 Z" fill="#000000" fill-rule="nonzero" fill-opacity="1" /><path clip-path="url(#clip440)" d="M2059.67 1481.64 L2075.99 1481.64 L2075.99 1485.58 L2054.04 1485.58 L2054.04 1481.64 Q2056.71 1478.89 2061.29 1474.26 Q2065.9 1469.61 2067.08 1468.27 Q2069.32 1465.74 2070.2 1464.01 Q2071.1 1462.25 2071.1 1460.56 Q2071.1 1457.8 2069.16 1456.07 Q2067.24 1454.33 2064.14 1454.33 Q2061.94 1454.33 2059.48 1455.09 Q2057.05 1455.86 2054.28 1457.41 L2054.28 1452.69 Q2057.1 1451.55 2059.55 1450.97 Q2062.01 1450.39 2064.04 1450.39 Q2069.41 1450.39 2072.61 1453.08 Q2075.8 1455.77 2075.8 1460.26 Q2075.8 1462.39 2074.99 1464.31 Q2074.21 1466.2 2072.1 1468.8 Q2071.52 1469.47 2068.42 1472.69 Q2065.32 1475.88 2059.67 1481.64 Z" fill="#000000" fill-rule="nonzero" fill-opacity="1" /><path clip-path="url(#clip440)" d="M2085.85 1451.02 L2104.21 1451.02 L2104.21 1454.96 L2090.13 1454.96 L2090.13 1463.43 Q2091.15 1463.08 2092.17 1462.92 Q2093.19 1462.73 2094.21 1462.73 Q2099.99 1462.73 2103.37 1465.9 Q2106.75 1469.08 2106.75 1474.49 Q2106.75 1480.07 2103.28 1483.17 Q2099.81 1486.25 2093.49 1486.25 Q2091.31 1486.25 2089.04 1485.88 Q2086.8 1485.51 2084.39 1484.77 L2084.39 1480.07 Q2086.48 1481.2 2088.7 1481.76 Q2090.92 1482.32 2093.4 1482.32 Q2097.4 1482.32 2099.74 1480.21 Q2102.08 1478.1 2102.08 1474.49 Q2102.08 1470.88 2099.74 1468.77 Q2097.4 1466.67 2093.4 1466.67 Q2091.52 1466.67 2089.65 1467.08 Q2087.79 1467.5 2085.85 1468.38 L2085.85 1451.02 Z" fill="#000000" fill-rule="nonzero" fill-opacity="1" /><path clip-path="url(#clip440)" d="M1221.98 1520.52 L1262.18 1520.52 L1262.18 1525.93 L1245.31 1525.93 L1245.31 1568.04 L1238.85 1568.04 L1238.85 1525.93 L1221.98 1525.93 L1221.98 1520.52 Z" fill="#000000" fill-rule="nonzero" fill-opacity="1" /><path clip-path="url(#clip440)" d="M1266.13 1532.4 L1271.99 1532.4 L1271.99 1568.04 L1266.13 1568.04 L1266.13 1532.4 M1266.13 1518.52 L1271.99 1518.52 L1271.99 1525.93 L1266.13 1525.93 L1266.13 1518.52 Z" fill="#000000" fill-rule="nonzero" fill-opacity="1" /><path clip-path="url(#clip440)" d="M1312 1539.24 Q1314.19 1535.29 1317.25 1533.41 Q1320.3 1531.54 1324.44 1531.54 Q1330.01 1531.54 1333.03 1535.45 Q1336.06 1539.33 1336.06 1546.53 L1336.06 1568.04 L1330.17 1568.04 L1330.17 1546.72 Q1330.17 1541.59 1328.36 1539.11 Q1326.54 1536.63 1322.82 1536.63 Q1318.27 1536.63 1315.62 1539.65 Q1312.98 1542.68 1312.98 1547.9 L1312.98 1568.04 L1307.09 1568.04 L1307.09 1546.72 Q1307.09 1541.56 1305.28 1539.11 Q1303.47 1536.63 1299.68 1536.63 Q1295.19 1536.63 1292.55 1539.68 Q1289.91 1542.71 1289.91 1547.9 L1289.91 1568.04 L1284.02 1568.04 L1284.02 1532.4 L1289.91 1532.4 L1289.91 1537.93 Q1291.91 1534.66 1294.71 1533.1 Q1297.51 1531.54 1301.36 1531.54 Q1305.25 1531.54 1307.95 1533.51 Q1310.69 1535.48 1312 1539.24 Z" fill="#000000" fill-rule="nonzero" fill-opacity="1" /><path clip-path="url(#clip440)" d="M1378.23 1548.76 L1378.23 1551.62 L1351.3 1551.62 Q1351.69 1557.67 1354.93 1560.85 Q1358.21 1564 1364.03 1564 Q1367.41 1564 1370.56 1563.17 Q1373.74 1562.35 1376.86 1560.69 L1376.86 1566.23 Q1373.71 1567.57 1370.4 1568.27 Q1367.09 1568.97 1363.68 1568.97 Q1355.15 1568.97 1350.16 1564 Q1345.19 1559.04 1345.19 1550.57 Q1345.19 1541.82 1349.9 1536.69 Q1354.65 1531.54 1362.67 1531.54 Q1369.86 1531.54 1374.03 1536.18 Q1378.23 1540.8 1378.23 1548.76 M1372.37 1547.04 Q1372.31 1542.23 1369.67 1539.37 Q1367.06 1536.5 1362.73 1536.5 Q1357.83 1536.5 1354.87 1539.27 Q1351.94 1542.04 1351.49 1547.07 L1372.37 1547.04 Z" fill="#000000" fill-rule="nonzero" fill-opacity="1" /><polyline clip-path="url(#clip440)" style="stroke:#000000; stroke-linecap:round; stroke-linejoin:round; stroke-width:4; stroke-opacity:1; fill:none" points="247.459,1423.18 247.459,123.472 "/>
<polyline clip-path="url(#clip440)" style="stroke:#000000; stroke-linecap:round; stroke-linejoin:round; stroke-width:4; stroke-opacity:1; fill:none" points="247.459,1386.4 266.356,1386.4 "/>
<polyline clip-path="url(#clip440)" style="stroke:#000000; stroke-linecap:round; stroke-linejoin:round; stroke-width:4; stroke-opacity:1; fill:none" points="247.459,1106.66 266.356,1106.66 "/>
<polyline clip-path="url(#clip440)" style="stroke:#000000; stroke-linecap:round; stroke-linejoin:round; stroke-width:4; stroke-opacity:1; fill:none" points="247.459,826.921 266.356,826.921 "/>
<polyline clip-path="url(#clip440)" style="stroke:#000000; stroke-linecap:round; stroke-linejoin:round; stroke-width:4; stroke-opacity:1; fill:none" points="247.459,547.183 266.356,547.183 "/>
<polyline clip-path="url(#clip440)" style="stroke:#000000; stroke-linecap:round; stroke-linejoin:round; stroke-width:4; stroke-opacity:1; fill:none" points="247.459,267.446 266.356,267.446 "/>
<path clip-path="url(#clip440)" d="M154.283 1372.19 Q150.672 1372.19 148.843 1375.76 Q147.038 1379.3 147.038 1386.43 Q147.038 1393.54 148.843 1397.1 Q150.672 1400.64 154.283 1400.64 Q157.917 1400.64 159.723 1397.1 Q161.552 1393.54 161.552 1386.43 Q161.552 1379.3 159.723 1375.76 Q157.917 1372.19 154.283 1372.19 M154.283 1368.49 Q160.093 1368.49 163.149 1373.1 Q166.227 1377.68 166.227 1386.43 Q166.227 1395.16 163.149 1399.76 Q160.093 1404.35 154.283 1404.35 Q148.473 1404.35 145.394 1399.76 Q142.339 1395.16 142.339 1386.43 Q142.339 1377.68 145.394 1373.1 Q148.473 1368.49 154.283 1368.49 Z" fill="#000000" fill-rule="nonzero" fill-opacity="1" /><path clip-path="url(#clip440)" d="M174.445 1397.8 L179.329 1397.8 L179.329 1403.68 L174.445 1403.68 L174.445 1397.8 Z" fill="#000000" fill-rule="nonzero" fill-opacity="1" /><path clip-path="url(#clip440)" d="M199.514 1372.19 Q195.903 1372.19 194.075 1375.76 Q192.269 1379.3 192.269 1386.43 Q192.269 1393.54 194.075 1397.1 Q195.903 1400.64 199.514 1400.64 Q203.149 1400.64 204.954 1397.1 Q206.783 1393.54 206.783 1386.43 Q206.783 1379.3 204.954 1375.76 Q203.149 1372.19 199.514 1372.19 M199.514 1368.49 Q205.324 1368.49 208.38 1373.1 Q211.459 1377.68 211.459 1386.43 Q211.459 1395.16 208.38 1399.76 Q205.324 1404.35 199.514 1404.35 Q193.704 1404.35 190.625 1399.76 Q187.57 1395.16 187.57 1386.43 Q187.57 1377.68 190.625 1373.1 Q193.704 1368.49 199.514 1368.49 Z" fill="#000000" fill-rule="nonzero" fill-opacity="1" /><path clip-path="url(#clip440)" d="M149.306 1120 L165.626 1120 L165.626 1123.94 L143.681 1123.94 L143.681 1120 Q146.343 1117.25 150.927 1112.62 Q155.533 1107.97 156.714 1106.62 Q158.959 1104.1 159.839 1102.36 Q160.741 1100.6 160.741 1098.92 Q160.741 1096.16 158.797 1094.42 Q156.876 1092.69 153.774 1092.69 Q151.575 1092.69 149.121 1093.45 Q146.691 1094.22 143.913 1095.77 L143.913 1091.04 Q146.737 1089.91 149.191 1089.33 Q151.644 1088.75 153.681 1088.75 Q159.052 1088.75 162.246 1091.44 Q165.44 1094.12 165.44 1098.61 Q165.44 1100.74 164.63 1102.67 Q163.843 1104.56 161.737 1107.16 Q161.158 1107.83 158.056 1111.04 Q154.954 1114.24 149.306 1120 Z" fill="#000000" fill-rule="nonzero" fill-opacity="1" /><path clip-path="url(#clip440)" d="M175.44 1118.06 L180.325 1118.06 L180.325 1123.94 L175.44 1123.94 L175.44 1118.06 Z" fill="#000000" fill-rule="nonzero" fill-opacity="1" /><path clip-path="url(#clip440)" d="M190.556 1089.38 L208.912 1089.38 L208.912 1093.31 L194.838 1093.31 L194.838 1101.79 Q195.857 1101.44 196.875 1101.28 Q197.894 1101.09 198.912 1101.09 Q204.699 1101.09 208.079 1104.26 Q211.459 1107.43 211.459 1112.85 Q211.459 1118.43 207.987 1121.53 Q204.514 1124.61 198.195 1124.61 Q196.019 1124.61 193.75 1124.24 Q191.505 1123.87 189.098 1123.13 L189.098 1118.43 Q191.181 1119.56 193.403 1120.12 Q195.625 1120.67 198.102 1120.67 Q202.107 1120.67 204.445 1118.57 Q206.783 1116.46 206.783 1112.85 Q206.783 1109.24 204.445 1107.13 Q202.107 1105.03 198.102 1105.03 Q196.227 1105.03 194.352 1105.44 Q192.5 1105.86 190.556 1106.74 L190.556 1089.38 Z" fill="#000000" fill-rule="nonzero" fill-opacity="1" /><path clip-path="url(#clip440)" d="M144.329 809.641 L162.686 809.641 L162.686 813.576 L148.612 813.576 L148.612 822.048 Q149.63 821.701 150.649 821.539 Q151.667 821.354 152.686 821.354 Q158.473 821.354 161.852 824.525 Q165.232 827.696 165.232 833.113 Q165.232 838.691 161.76 841.793 Q158.288 844.872 151.968 844.872 Q149.792 844.872 147.524 844.502 Q145.279 844.131 142.871 843.39 L142.871 838.691 Q144.954 839.826 147.177 840.381 Q149.399 840.937 151.876 840.937 Q155.88 840.937 158.218 838.83 Q160.556 836.724 160.556 833.113 Q160.556 829.502 158.218 827.395 Q155.88 825.289 151.876 825.289 Q150.001 825.289 148.126 825.705 Q146.274 826.122 144.329 827.002 L144.329 809.641 Z" fill="#000000" fill-rule="nonzero" fill-opacity="1" /><path clip-path="url(#clip440)" d="M174.445 838.321 L179.329 838.321 L179.329 844.201 L174.445 844.201 L174.445 838.321 Z" fill="#000000" fill-rule="nonzero" fill-opacity="1" /><path clip-path="url(#clip440)" d="M199.514 812.719 Q195.903 812.719 194.075 816.284 Q192.269 819.826 192.269 826.955 Q192.269 834.062 194.075 837.627 Q195.903 841.168 199.514 841.168 Q203.149 841.168 204.954 837.627 Q206.783 834.062 206.783 826.955 Q206.783 819.826 204.954 816.284 Q203.149 812.719 199.514 812.719 M199.514 809.016 Q205.324 809.016 208.38 813.622 Q211.459 818.205 211.459 826.955 Q211.459 835.682 208.38 840.289 Q205.324 844.872 199.514 844.872 Q193.704 844.872 190.625 840.289 Q187.57 835.682 187.57 826.955 Q187.57 818.205 190.625 813.622 Q193.704 809.016 199.514 809.016 Z" fill="#000000" fill-rule="nonzero" fill-opacity="1" /><path clip-path="url(#clip440)" d="M144.098 529.903 L166.32 529.903 L166.32 531.894 L153.774 564.463 L148.89 564.463 L160.695 533.838 L144.098 533.838 L144.098 529.903 Z" fill="#000000" fill-rule="nonzero" fill-opacity="1" /><path clip-path="url(#clip440)" d="M175.44 558.584 L180.325 558.584 L180.325 564.463 L175.44 564.463 L175.44 558.584 Z" fill="#000000" fill-rule="nonzero" fill-opacity="1" /><path clip-path="url(#clip440)" d="M190.556 529.903 L208.912 529.903 L208.912 533.838 L194.838 533.838 L194.838 542.31 Q195.857 541.963 196.875 541.801 Q197.894 541.616 198.912 541.616 Q204.699 541.616 208.079 544.787 Q211.459 547.959 211.459 553.375 Q211.459 558.954 207.987 562.056 Q204.514 565.134 198.195 565.134 Q196.019 565.134 193.75 564.764 Q191.505 564.394 189.098 563.653 L189.098 558.954 Q191.181 560.088 193.403 560.644 Q195.625 561.199 198.102 561.199 Q202.107 561.199 204.445 559.093 Q206.783 556.986 206.783 553.375 Q206.783 549.764 204.445 547.658 Q202.107 545.551 198.102 545.551 Q196.227 545.551 194.352 545.968 Q192.5 546.384 190.556 547.264 L190.556 529.903 Z" fill="#000000" fill-rule="nonzero" fill-opacity="1" /><path clip-path="url(#clip440)" d="M114.931 280.79 L122.57 280.79 L122.57 254.425 L114.26 256.091 L114.26 251.832 L122.524 250.166 L127.2 250.166 L127.2 280.79 L134.839 280.79 L134.839 284.726 L114.931 284.726 L114.931 280.79 Z" fill="#000000" fill-rule="nonzero" fill-opacity="1" /><path clip-path="url(#clip440)" d="M154.283 253.244 Q150.672 253.244 148.843 256.809 Q147.038 260.351 147.038 267.48 Q147.038 274.587 148.843 278.152 Q150.672 281.693 154.283 281.693 Q157.917 281.693 159.723 278.152 Q161.552 274.587 161.552 267.48 Q161.552 260.351 159.723 256.809 Q157.917 253.244 154.283 253.244 M154.283 249.541 Q160.093 249.541 163.149 254.147 Q166.227 258.73 166.227 267.48 Q166.227 276.207 163.149 280.814 Q160.093 285.397 154.283 285.397 Q148.473 285.397 145.394 280.814 Q142.339 276.207 142.339 267.48 Q142.339 258.73 145.394 254.147 Q148.473 249.541 154.283 249.541 Z" fill="#000000" fill-rule="nonzero" fill-opacity="1" /><path clip-path="url(#clip440)" d="M174.445 278.846 L179.329 278.846 L179.329 284.726 L174.445 284.726 L174.445 278.846 Z" fill="#000000" fill-rule="nonzero" fill-opacity="1" /><path clip-path="url(#clip440)" d="M199.514 253.244 Q195.903 253.244 194.075 256.809 Q192.269 260.351 192.269 267.48 Q192.269 274.587 194.075 278.152 Q195.903 281.693 199.514 281.693 Q203.149 281.693 204.954 278.152 Q206.783 274.587 206.783 267.48 Q206.783 260.351 204.954 256.809 Q203.149 253.244 199.514 253.244 M199.514 249.541 Q205.324 249.541 208.38 254.147 Q211.459 258.73 211.459 267.48 Q211.459 276.207 208.38 280.814 Q205.324 285.397 199.514 285.397 Q193.704 285.397 190.625 280.814 Q187.57 276.207 187.57 267.48 Q187.57 258.73 190.625 254.147 Q193.704 249.541 199.514 249.541 Z" fill="#000000" fill-rule="nonzero" fill-opacity="1" /><path clip-path="url(#clip440)" d="M29.7248 956.945 L35.1993 956.945 Q33.8307 959.427 33.1623 961.942 Q32.4621 964.424 32.4621 966.971 Q32.4621 972.668 36.0905 975.819 Q39.6872 978.97 46.212 978.97 Q52.7369 978.97 56.3653 975.819 Q59.9619 972.668 59.9619 966.971 Q59.9619 964.424 59.2935 961.942 Q58.5933 959.427 57.2247 956.945 L62.6355 956.945 Q63.7814 959.396 64.3543 962.037 Q64.9272 964.647 64.9272 967.607 Q64.9272 975.66 59.8664 980.402 Q54.8057 985.145 46.212 985.145 Q37.491 985.145 32.4939 980.371 Q27.4968 975.564 27.4968 967.225 Q27.4968 964.52 28.0697 961.942 Q28.6108 959.364 29.7248 956.945 Z" fill="#000000" fill-rule="nonzero" fill-opacity="1" /><path clip-path="url(#clip440)" d="M16.4842 953.094 L16.4842 912.894 L21.895 912.894 L21.895 929.763 L64.0042 929.763 L64.0042 936.224 L21.895 936.224 L21.895 953.094 L16.4842 953.094 Z" fill="#000000" fill-rule="nonzero" fill-opacity="1" /><path clip-path="url(#clip440)" d="M42.4881 877.31 L64.0042 877.31 L64.0042 883.166 L42.679 883.166 Q37.6183 883.166 35.1038 885.14 Q32.5894 887.113 32.5894 891.06 Q32.5894 895.802 35.6131 898.539 Q38.6368 901.277 43.8567 901.277 L64.0042 901.277 L64.0042 907.165 L28.3562 907.165 L28.3562 901.277 L33.8944 901.277 Q30.6797 899.176 29.0883 896.343 Q27.4968 893.479 27.4968 889.755 Q27.4968 883.612 31.3163 880.461 Q35.1038 877.31 42.4881 877.31 Z" fill="#000000" fill-rule="nonzero" fill-opacity="1" /><path clip-path="url(#clip440)" d="M16.4842 871.963 L16.4842 831.763 L21.895 831.763 L21.895 848.632 L64.0042 848.632 L64.0042 855.093 L21.895 855.093 L21.895 871.963 L16.4842 871.963 Z" fill="#000000" fill-rule="nonzero" fill-opacity="1" /><path clip-path="url(#clip440)" d="M14.479 805.632 L14.479 792.137 L19.0304 792.137 L19.0304 799.775 L68.0464 799.775 L68.0464 792.137 L72.5979 792.137 L72.5979 805.632 L14.479 805.632 Z" fill="#000000" fill-rule="nonzero" fill-opacity="1" /><path clip-path="url(#clip440)" d="M42.4881 750.027 L64.0042 750.027 L64.0042 755.884 L42.679 755.884 Q37.6183 755.884 35.1038 757.857 Q32.5894 759.831 32.5894 763.777 Q32.5894 768.52 35.6131 771.257 Q38.6368 773.994 43.8567 773.994 L64.0042 773.994 L64.0042 779.883 L28.3562 779.883 L28.3562 773.994 L33.8944 773.994 Q30.6797 771.894 29.0883 769.061 Q27.4968 766.196 27.4968 762.472 Q27.4968 756.33 31.3163 753.179 Q35.1038 750.027 42.4881 750.027 Z" fill="#000000" fill-rule="nonzero" fill-opacity="1" /><path clip-path="url(#clip440)" d="M45.7664 714.889 Q39.4007 714.889 35.8996 717.531 Q32.3984 720.141 32.3984 724.883 Q32.3984 729.594 35.8996 732.235 Q39.4007 734.845 45.7664 734.845 Q52.1003 734.845 55.6014 732.235 Q59.1026 729.594 59.1026 724.883 Q59.1026 720.141 55.6014 717.531 Q52.1003 714.889 45.7664 714.889 M59.58 709.032 Q68.683 709.032 73.1071 713.075 Q77.5631 717.117 77.5631 725.456 Q77.5631 728.543 77.0857 731.28 Q76.6401 734.018 75.6852 736.596 L69.9879 736.596 Q71.3884 734.018 72.0568 731.503 Q72.7252 728.989 72.7252 726.379 Q72.7252 720.618 69.7015 717.753 Q66.7096 714.889 60.6303 714.889 L57.7339 714.889 Q60.885 716.703 62.4446 719.536 Q64.0042 722.369 64.0042 726.315 Q64.0042 732.872 59.0071 736.882 Q54.01 740.893 45.7664 740.893 Q37.491 740.893 32.4939 736.882 Q27.4968 732.872 27.4968 726.315 Q27.4968 722.369 29.0564 719.536 Q30.616 716.703 33.7671 714.889 L28.3562 714.889 L28.3562 709.032 L59.58 709.032 Z" fill="#000000" fill-rule="nonzero" fill-opacity="1" /><path clip-path="url(#clip440)" d="M16.4842 686.561 L16.4842 681.151 L70.0516 697.701 L70.0516 703.112 L16.4842 686.561 Z" fill="#000000" fill-rule="nonzero" fill-opacity="1" /><path clip-path="url(#clip440)" d="M35.1993 647.253 Q31.2526 645.057 29.3747 642.001 Q27.4968 638.946 27.4968 634.808 Q27.4968 629.238 31.4117 626.215 Q35.2948 623.191 42.4881 623.191 L64.0042 623.191 L64.0042 629.079 L42.679 629.079 Q37.5546 629.079 35.072 630.893 Q32.5894 632.708 32.5894 636.431 Q32.5894 640.983 35.6131 643.625 Q38.6368 646.266 43.8567 646.266 L64.0042 646.266 L64.0042 652.155 L42.679 652.155 Q37.5228 652.155 35.072 653.969 Q32.5894 655.783 32.5894 659.571 Q32.5894 664.059 35.6449 666.7 Q38.6686 669.342 43.8567 669.342 L64.0042 669.342 L64.0042 675.23 L28.3562 675.23 L28.3562 669.342 L33.8944 669.342 Q30.616 667.337 29.0564 664.536 Q27.4968 661.735 27.4968 657.884 Q27.4968 654.001 29.4702 651.295 Q31.4436 648.558 35.1993 647.253 Z" fill="#000000" fill-rule="nonzero" fill-opacity="1" /><path clip-path="url(#clip440)" d="M16.4842 611.255 L16.4842 604.826 L58.5933 604.826 L58.5933 581.686 L64.0042 581.686 L64.0042 611.255 L16.4842 611.255 Z" fill="#000000" fill-rule="nonzero" fill-opacity="1" /><path clip-path="url(#clip440)" d="M14.479 561.507 L72.5979 561.507 L72.5979 575.002 L68.0464 575.002 L68.0464 567.395 L19.0304 567.395 L19.0304 575.002 L14.479 575.002 L14.479 561.507 Z" fill="#000000" fill-rule="nonzero" fill-opacity="1" /><path clip-path="url(#clip440)" d="M1025.5 18.8205 L1025.5 41.5461 L1035.79 41.5461 Q1041.5 41.5461 1044.62 38.5889 Q1047.74 35.6318 1047.74 30.163 Q1047.74 24.7348 1044.62 21.7777 Q1041.5 18.8205 1035.79 18.8205 L1025.5 18.8205 M1017.31 12.096 L1035.79 12.096 Q1045.95 12.096 1051.14 16.714 Q1056.36 21.2916 1056.36 30.163 Q1056.36 39.1155 1051.14 43.6931 Q1045.95 48.2706 1035.79 48.2706 L1025.5 48.2706 L1025.5 72.576 L1017.31 72.576 L1017.31 12.096 Z" fill="#000000" fill-rule="nonzero" fill-opacity="1" /><path clip-path="url(#clip440)" d="M1083.91 49.7694 Q1074.88 49.7694 1071.39 51.8354 Q1067.91 53.9013 1067.91 58.8839 Q1067.91 62.8538 1070.5 65.2034 Q1073.14 67.5124 1077.63 67.5124 Q1083.83 67.5124 1087.56 63.1374 Q1091.32 58.7219 1091.32 51.4303 L1091.32 49.7694 L1083.91 49.7694 M1098.78 46.6907 L1098.78 72.576 L1091.32 72.576 L1091.32 65.6895 Q1088.77 69.8214 1084.96 71.8063 Q1081.16 73.7508 1075.65 73.7508 Q1068.68 73.7508 1064.55 69.8619 Q1060.46 65.9325 1060.46 59.3701 Q1060.46 51.7138 1065.56 47.825 Q1070.7 43.9361 1080.87 43.9361 L1091.32 43.9361 L1091.32 43.2069 Q1091.32 38.0623 1087.92 35.2672 Q1084.56 32.4315 1078.44 32.4315 Q1074.55 32.4315 1070.87 33.3632 Q1067.18 34.295 1063.78 36.1584 L1063.78 29.2718 Q1067.87 27.692 1071.72 26.9223 Q1075.57 26.1121 1079.21 26.1121 Q1089.06 26.1121 1093.92 31.2163 Q1098.78 36.3204 1098.78 46.6907 Z" fill="#000000" fill-rule="nonzero" fill-opacity="1" /><path clip-path="url(#clip440)" d="M1121.5 14.324 L1121.5 27.2059 L1136.86 27.2059 L1136.86 32.9987 L1121.5 32.9987 L1121.5 57.6282 Q1121.5 63.1779 1123 64.7578 Q1124.54 66.3376 1129.2 66.3376 L1136.86 66.3376 L1136.86 72.576 L1129.2 72.576 Q1120.57 72.576 1117.29 69.3758 Q1114.01 66.1351 1114.01 57.6282 L1114.01 32.9987 L1108.54 32.9987 L1108.54 27.2059 L1114.01 27.2059 L1114.01 14.324 L1121.5 14.324 Z" fill="#000000" fill-rule="nonzero" fill-opacity="1" /><path clip-path="url(#clip440)" d="M1146.66 27.2059 L1154.11 27.2059 L1154.11 72.576 L1146.66 72.576 L1146.66 27.2059 M1146.66 9.54393 L1154.11 9.54393 L1154.11 18.9825 L1146.66 18.9825 L1146.66 9.54393 Z" fill="#000000" fill-rule="nonzero" fill-opacity="1" /><path clip-path="url(#clip440)" d="M1208.52 48.0275 L1208.52 51.6733 L1174.25 51.6733 Q1174.73 59.3701 1178.86 63.421 Q1183.04 67.4314 1190.45 67.4314 Q1194.74 67.4314 1198.75 66.3781 Q1202.8 65.3249 1206.77 63.2184 L1206.77 70.267 Q1202.76 71.9684 1198.55 72.8596 Q1194.34 73.7508 1190 73.7508 Q1179.15 73.7508 1172.79 67.4314 Q1166.47 61.1119 1166.47 50.3365 Q1166.47 39.1965 1172.46 32.6746 Q1178.5 26.1121 1188.71 26.1121 Q1197.86 26.1121 1203.17 32.0264 Q1208.52 37.9003 1208.52 48.0275 M1201.06 45.84 Q1200.98 39.7232 1197.62 36.0774 Q1194.3 32.4315 1188.79 32.4315 Q1182.55 32.4315 1178.78 35.9558 Q1175.06 39.4801 1174.49 45.8805 L1201.06 45.84 Z" fill="#000000" fill-rule="nonzero" fill-opacity="1" /><path clip-path="url(#clip440)" d="M1258.46 45.1919 L1258.46 72.576 L1251.01 72.576 L1251.01 45.4349 Q1251.01 38.994 1248.5 35.7938 Q1245.99 32.5936 1240.96 32.5936 Q1234.93 32.5936 1231.44 36.4419 Q1227.96 40.2903 1227.96 46.9338 L1227.96 72.576 L1220.47 72.576 L1220.47 27.2059 L1227.96 27.2059 L1227.96 34.2544 Q1230.63 30.163 1234.24 28.1376 Q1237.89 26.1121 1242.62 26.1121 Q1250.44 26.1121 1254.45 30.9732 Q1258.46 35.7938 1258.46 45.1919 Z" fill="#000000" fill-rule="nonzero" fill-opacity="1" /><path clip-path="url(#clip440)" d="M1280.7 14.324 L1280.7 27.2059 L1296.06 27.2059 L1296.06 32.9987 L1280.7 32.9987 L1280.7 57.6282 Q1280.7 63.1779 1282.2 64.7578 Q1283.74 66.3376 1288.4 66.3376 L1296.06 66.3376 L1296.06 72.576 L1288.4 72.576 Q1279.77 72.576 1276.49 69.3758 Q1273.21 66.1351 1273.21 57.6282 L1273.21 32.9987 L1267.74 32.9987 L1267.74 27.2059 L1273.21 27.2059 L1273.21 14.324 L1280.7 14.324 Z" fill="#000000" fill-rule="nonzero" fill-opacity="1" /><path clip-path="url(#clip440)" d="M1369.94 45.1919 L1369.94 72.576 L1362.49 72.576 L1362.49 45.4349 Q1362.49 38.994 1359.98 35.7938 Q1357.47 32.5936 1352.44 32.5936 Q1346.41 32.5936 1342.93 36.4419 Q1339.44 40.2903 1339.44 46.9338 L1339.44 72.576 L1331.95 72.576 L1331.95 27.2059 L1339.44 27.2059 L1339.44 34.2544 Q1342.12 30.163 1345.72 28.1376 Q1349.37 26.1121 1354.11 26.1121 Q1361.92 26.1121 1365.93 30.9732 Q1369.94 35.7938 1369.94 45.1919 Z" fill="#000000" fill-rule="nonzero" fill-opacity="1" /><path clip-path="url(#clip440)" d="M1387.28 65.6895 L1400.65 65.6895 L1400.65 19.5497 L1386.11 22.4663 L1386.11 15.0127 L1400.57 12.096 L1408.75 12.096 L1408.75 65.6895 L1422.12 65.6895 L1422.12 72.576 L1387.28 72.576 L1387.28 65.6895 Z" fill="#000000" fill-rule="nonzero" fill-opacity="1" /><path clip-path="url(#clip440)" d="M1440.07 65.6895 L1453.43 65.6895 L1453.43 19.5497 L1438.89 22.4663 L1438.89 15.0127 L1453.35 12.096 L1461.54 12.096 L1461.54 65.6895 L1474.9 65.6895 L1474.9 72.576 L1440.07 72.576 L1440.07 65.6895 Z" fill="#000000" fill-rule="nonzero" fill-opacity="1" /><path clip-path="url(#clip440)" d="M1508.93 43.8551 Q1503.1 43.8551 1499.74 46.9743 Q1496.41 50.0935 1496.41 55.5622 Q1496.41 61.0309 1499.74 64.1501 Q1503.1 67.2693 1508.93 67.2693 Q1514.76 67.2693 1518.13 64.1501 Q1521.49 60.9904 1521.49 55.5622 Q1521.49 50.0935 1518.13 46.9743 Q1514.81 43.8551 1508.93 43.8551 M1500.75 40.3713 Q1495.48 39.075 1492.53 35.4697 Q1489.61 31.8644 1489.61 26.6793 Q1489.61 19.4281 1494.75 15.2152 Q1499.94 11.0023 1508.93 11.0023 Q1517.96 11.0023 1523.11 15.2152 Q1528.25 19.4281 1528.25 26.6793 Q1528.25 31.8644 1525.3 35.4697 Q1522.38 39.075 1517.15 40.3713 Q1523.07 41.7486 1526.35 45.759 Q1529.67 49.7694 1529.67 55.5622 Q1529.67 64.3527 1524.28 69.0517 Q1518.94 73.7508 1508.93 73.7508 Q1498.93 73.7508 1493.54 69.0517 Q1488.19 64.3527 1488.19 55.5622 Q1488.19 49.7694 1491.51 45.759 Q1494.83 41.7486 1500.75 40.3713 M1497.75 27.4489 Q1497.75 32.148 1500.67 34.7811 Q1503.62 37.4142 1508.93 37.4142 Q1514.2 37.4142 1517.15 34.7811 Q1520.15 32.148 1520.15 27.4489 Q1520.15 22.7499 1517.15 20.1168 Q1514.2 17.4837 1508.93 17.4837 Q1503.62 17.4837 1500.67 20.1168 Q1497.75 22.7499 1497.75 27.4489 Z" fill="#000000" fill-rule="nonzero" fill-opacity="1" /><path clip-path="url(#clip440)" d="M1562.73 39.075 Q1557.22 39.075 1553.98 42.8424 Q1550.78 46.6097 1550.78 53.1722 Q1550.78 59.6941 1553.98 63.502 Q1557.22 67.2693 1562.73 67.2693 Q1568.24 67.2693 1571.44 63.502 Q1574.68 59.6941 1574.68 53.1722 Q1574.68 46.6097 1571.44 42.8424 Q1568.24 39.075 1562.73 39.075 M1578.97 13.4328 L1578.97 20.8865 Q1575.89 19.4281 1572.73 18.6585 Q1569.61 17.8888 1566.54 17.8888 Q1558.43 17.8888 1554.14 23.3575 Q1549.89 28.8262 1549.28 39.8852 Q1551.67 36.3609 1555.27 34.4975 Q1558.88 32.5936 1563.21 32.5936 Q1572.33 32.5936 1577.59 38.1433 Q1582.9 43.6525 1582.9 53.1722 Q1582.9 62.4892 1577.39 68.12 Q1571.88 73.7508 1562.73 73.7508 Q1552.24 73.7508 1546.69 65.73 Q1541.14 57.6687 1541.14 42.3968 Q1541.14 28.0566 1547.94 19.5497 Q1554.75 11.0023 1566.21 11.0023 Q1569.29 11.0023 1572.41 11.6099 Q1575.57 12.2175 1578.97 13.4328 Z" fill="#000000" fill-rule="nonzero" fill-opacity="1" /><polyline clip-path="url(#clip442)" style="stroke:#009af9; stroke-linecap:round; stroke-linejoin:round; stroke-width:8; stroke-opacity:1; fill:none" points="307.043,160.256 321.229,173.596 335.416,187.44 349.603,201.464 363.789,215.652 377.976,229.987 392.162,244.448 406.349,259.017 420.536,273.675 434.722,288.399 448.909,303.168 463.096,317.962 477.282,332.756 491.469,347.53 505.656,362.262 519.842,376.928 534.029,391.508 548.215,405.98 562.402,420.325 576.589,434.523 590.775,448.554 604.962,462.403 619.149,476.052 633.335,489.487 647.522,502.695 661.709,515.664 675.895,528.383 690.082,540.843 704.268,553.037 718.455,564.959 732.642,576.606 746.828,587.973 761.015,599.06 775.202,609.866 789.388,620.393 803.575,630.641 817.762,640.615 831.948,650.32 846.135,659.758 860.322,668.937 874.508,677.863 888.695,686.542 902.881,694.983 917.068,703.192 931.255,711.176 945.441,718.946 959.628,726.508 973.815,733.871 988.001,741.043 1002.19,748.031 1016.37,754.845 1030.56,761.493 1044.75,767.98 1058.93,774.316 1073.12,780.507 1087.31,786.56 1101.49,792.482 1115.68,798.28 1129.87,803.958 1144.05,809.524 1158.24,814.984 1172.43,820.341 1186.61,825.601 1200.8,830.77 1214.99,835.85 1229.17,840.848 1243.36,845.765 1257.55,850.607 1271.73,855.378 1285.92,860.079 1300.11,864.714 1314.29,869.287 1328.48,873.799 1342.67,878.254 1356.85,882.655 1371.04,887.001 1385.23,891.298 1399.41,895.545 1413.6,899.746 1427.79,903.901 1441.97,908.012 1456.16,912.081 1470.35,916.109 1484.53,920.098 1498.72,924.048 1512.91,927.962 1527.09,931.839 1541.28,935.68 1555.47,939.488 1569.65,943.262 1583.84,947.003 1598.03,950.712 1612.21,954.39 1626.4,958.037 1640.59,961.654 1654.77,965.241 1668.96,968.8 1683.15,972.33 1697.33,975.831 1711.52,979.304 1725.71,982.751 1739.89,986.17 1754.08,989.562 1768.27,992.928 1782.45,996.267 1796.64,999.58 1810.83,1002.87 1825.01,1006.13 1839.2,1009.37 1853.39,1012.58 1867.57,1015.77 1881.76,1018.93 1895.95,1022.06 1910.13,1025.18 1924.32,1028.26 1938.51,1031.33 1952.69,1034.37 1966.88,1037.38 1981.07,1040.38 1995.25,1043.34 2009.44,1046.29 2023.63,1049.21 2037.81,1052.11 2052,1054.98 2066.19,1057.83 2080.37,1060.66 2094.56,1063.46 2108.75,1066.24 2122.93,1069 2137.12,1071.74 2151.31,1074.45 2165.49,1077.14 2179.68,1079.81 2193.87,1082.46 2208.05,1085.08 2222.24,1087.68 2236.43,1090.26 2250.61,1092.82 2264.8,1095.36 2278.99,1097.87 2293.17,1100.24 "/>
<polyline clip-path="url(#clip442)" style="stroke:#e26f46; stroke-linecap:round; stroke-linejoin:round; stroke-width:8; stroke-opacity:1; fill:none" points="307.043,206.441 321.229,796.886 335.416,797.227 349.603,797.696 363.789,798.334 377.976,798.339 392.162,798.713 406.349,799.062 420.536,798.866 434.722,799.219 448.909,799.362 463.096,799.114 477.282,799.5 491.469,799.534 505.656,799.386 519.842,799.852 534.029,799.882 548.215,799.962 562.402,800.56 576.589,800.687 590.775,801.095 604.962,801.874 619.149,802.196 633.335,802.999 647.522,804.003 661.709,804.6 675.895,805.835 690.082,807.092 704.268,808.031 718.455,809.698 732.642,811.225 746.828,812.561 761.015,814.625 775.202,816.423 789.388,818.179 803.575,820.593 817.762,822.654 831.948,824.825 846.135,827.536 860.322,829.84 874.508,832.4 888.695,835.353 902.881,837.875 917.068,840.782 931.255,843.92 945.441,846.635 959.628,849.837 973.815,853.108 988.001,855.99 1002.19,859.429 1016.37,862.787 1030.56,865.815 1044.75,869.429 1058.93,872.834 1073.12,875.995 1087.31,879.72 1101.49,883.138 1115.68,886.415 1129.87,890.197 1144.05,893.603 1158.24,896.979 1172.43,900.773 1186.61,904.148 1200.8,907.603 1214.99,911.374 1229.17,914.704 1243.36,918.221 1257.55,921.938 1271.73,925.218 1285.92,928.776 1300.11,932.419 1314.29,935.646 1328.48,939.226 1342.67,942.779 1356.85,945.954 1371.04,949.537 1385.23,952.989 1399.41,956.119 1413.6,959.682 1427.79,963.028 1441.97,966.124 1456.16,969.644 1470.35,972.88 1484.53,975.951 1498.72,979.409 1512.91,982.535 1527.09,985.586 1541.28,988.967 1555.47,991.987 1569.65,995.021 1583.84,998.314 1598.03,1001.23 1612.21,1004.25 1626.4,1007.45 1640.59,1010.27 1654.77,1013.27 1668.96,1016.37 1683.15,1019.1 1697.33,1022.08 1711.52,1025.07 1725.71,1027.73 1739.89,1030.68 1754.08,1033.57 1768.27,1036.16 1782.45,1039.08 1796.64,1041.87 1810.83,1044.4 1825.01,1047.28 1839.2,1049.96 1853.39,1052.45 1867.57,1055.27 1881.76,1057.86 1895.95,1060.32 1910.13,1063.08 1924.32,1065.57 1938.51,1068 1952.69,1070.69 1966.88,1073.1 1981.07,1075.51 1995.25,1078.13 2009.44,1080.46 2023.63,1082.84 2037.81,1085.38 2052,1087.64 2066.19,1090 2080.37,1092.47 2094.56,1094.65 2108.75,1096.99 2122.93,1099.39 2137.12,1101.51 2151.31,1103.82 2165.49,1106.15 2179.68,1108.21 2193.87,1110.5 2208.05,1112.75 2222.24,1114.76 2236.43,1117.02 2250.61,1119.2 2264.8,1121.17 2278.99,1123.39 2293.17,1125.33 "/>
<polyline clip-path="url(#clip442)" style="stroke:#3da44d; stroke-linecap:round; stroke-linejoin:round; stroke-width:8; stroke-opacity:1; fill:none" points="307.043,1386.4 321.229,797.256 335.416,798.068 349.603,798.557 363.789,798.704 377.976,799.328 392.162,799.448 406.349,799.48 420.536,799.964 434.722,799.831 448.909,799.858 463.096,800.251 477.282,800.007 491.469,800.133 505.656,800.482 519.842,800.279 534.029,800.595 548.215,800.964 562.402,800.935 576.589,801.516 590.775,801.973 604.962,802.229 619.149,803.128 633.335,803.742 647.522,804.365 661.709,805.611 675.895,806.445 690.082,807.487 704.268,809.081 718.455,810.187 732.642,811.672 746.828,813.587 761.015,815.012 775.202,816.937 789.388,819.136 803.575,820.903 817.762,823.242 831.948,825.684 846.135,827.792 860.322,830.503 874.508,833.147 888.695,835.578 902.881,838.608 917.068,841.414 931.255,844.138 945.441,847.425 959.628,850.357 973.815,853.339 988.001,856.821 1002.19,859.848 1016.37,863.047 1030.56,866.659 1044.75,869.76 1058.93,873.136 1073.12,876.814 1087.31,879.978 1101.49,883.493 1115.68,887.184 1129.87,890.4 1144.05,894.016 1158.24,897.679 1172.43,900.936 1186.61,904.62 1200.8,908.225 1214.99,911.513 1229.17,915.235 1243.36,918.76 1257.55,922.07 1271.73,925.801 1285.92,929.233 1300.11,932.557 1314.29,936.272 1328.48,939.606 1342.67,942.936 1356.85,946.611 1371.04,949.845 1385.23,953.174 1399.41,956.787 1413.6,959.929 1427.79,963.249 1441.97,966.777 1456.16,969.84 1470.35,973.144 1484.53,976.569 1498.72,979.564 1512.91,982.845 1527.09,986.156 1541.28,989.093 1555.47,992.344 1569.65,995.535 1583.84,998.421 1598.03,1001.64 1612.21,1004.7 1626.4,1007.55 1640.59,1010.72 1654.77,1013.66 1668.96,1016.47 1683.15,1019.58 1697.33,1022.42 1711.52,1025.19 1725.71,1028.24 1739.89,1030.96 1754.08,1033.7 1768.27,1036.69 1782.45,1039.31 1796.64,1042.02 1810.83,1044.93 1825.01,1047.46 1839.2,1050.14 1853.39,1052.97 1867.57,1055.43 1881.76,1058.07 1895.95,1060.81 1910.13,1063.2 1924.32,1065.81 1938.51,1068.46 1952.69,1070.8 1966.88,1073.38 1981.07,1075.92 1995.25,1078.22 2009.44,1080.76 2023.63,1083.21 2037.81,1085.46 2052,1087.97 2066.19,1090.33 2080.37,1092.55 2094.56,1095.01 2108.75,1097.29 2122.93,1099.47 2137.12,1101.89 2151.31,1104.08 2165.49,1106.23 2179.68,1108.6 2193.87,1110.72 2208.05,1112.84 2222.24,1115.17 2236.43,1117.21 2250.61,1119.31 2264.8,1121.57 2278.99,1123.56 2293.17,1125.59 "/>
<circle clip-path="url(#clip442)" cx="398.546" cy="791.114" r="18" fill="#c271d2" fill-rule="evenodd" fill-opacity="1" stroke="#000000" stroke-opacity="1" stroke-width="3.2"/>
<circle clip-path="url(#clip442)" cx="510.857" cy="814.612" r="18" fill="#c271d2" fill-rule="evenodd" fill-opacity="1" stroke="#000000" stroke-opacity="1" stroke-width="3.2"/>
<circle clip-path="url(#clip442)" cx="984.455" cy="840.348" r="18" fill="#c271d2" fill-rule="evenodd" fill-opacity="1" stroke="#000000" stroke-opacity="1" stroke-width="3.2"/>
<circle clip-path="url(#clip442)" cx="1139.33" cy="904.128" r="18" fill="#c271d2" fill-rule="evenodd" fill-opacity="1" stroke="#000000" stroke-opacity="1" stroke-width="3.2"/>
<circle clip-path="url(#clip442)" cx="1906.82" cy="1073.09" r="18" fill="#c271d2" fill-rule="evenodd" fill-opacity="1" stroke="#000000" stroke-opacity="1" stroke-width="3.2"/>
<circle clip-path="url(#clip442)" cx="2032.14" cy="1099.94" r="18" fill="#c271d2" fill-rule="evenodd" fill-opacity="1" stroke="#000000" stroke-opacity="1" stroke-width="3.2"/>
<circle clip-path="url(#clip442)" cx="2136.41" cy="1086.52" r="18" fill="#c271d2" fill-rule="evenodd" fill-opacity="1" stroke="#000000" stroke-opacity="1" stroke-width="3.2"/>
<path clip-path="url(#clip440)" d="M1722.68 425.996 L2282.58 425.996 L2282.58 166.796 L1722.68 166.796  Z" fill="#ffffff" fill-rule="evenodd" fill-opacity="1"/>
<polyline clip-path="url(#clip440)" style="stroke:#000000; stroke-linecap:round; stroke-linejoin:round; stroke-width:4; stroke-opacity:1; fill:none" points="1722.68,425.996 2282.58,425.996 2282.58,166.796 1722.68,166.796 1722.68,425.996 "/>
<polyline clip-path="url(#clip440)" style="stroke:#009af9; stroke-linecap:round; stroke-linejoin:round; stroke-width:8; stroke-opacity:1; fill:none" points="1746.07,218.636 1886.42,218.636 "/>
<path clip-path="url(#clip440)" d="M1932.06 202.49 L1932.06 207.05 Q1929.4 205.777 1927.04 205.152 Q1924.68 204.527 1922.48 204.527 Q1918.66 204.527 1916.57 206.008 Q1914.51 207.49 1914.51 210.221 Q1914.51 212.513 1915.88 213.694 Q1917.27 214.851 1921.11 215.569 L1923.93 216.147 Q1929.17 217.143 1931.64 219.666 Q1934.14 222.166 1934.14 226.379 Q1934.14 231.402 1930.76 233.994 Q1927.41 236.587 1920.9 236.587 Q1918.45 236.587 1915.67 236.031 Q1912.92 235.476 1909.95 234.388 L1909.95 229.573 Q1912.8 231.17 1915.53 231.981 Q1918.26 232.791 1920.9 232.791 Q1924.91 232.791 1927.08 231.217 Q1929.26 229.643 1929.26 226.726 Q1929.26 224.18 1927.68 222.744 Q1926.13 221.309 1922.57 220.592 L1919.72 220.036 Q1914.49 218.995 1912.15 216.772 Q1909.81 214.55 1909.81 210.592 Q1909.81 206.008 1913.03 203.37 Q1916.27 200.731 1921.94 200.731 Q1924.37 200.731 1926.9 201.171 Q1929.42 201.61 1932.06 202.49 Z" fill="#000000" fill-rule="nonzero" fill-opacity="1" /><path clip-path="url(#clip440)" d="M1953.03 222.883 Q1947.87 222.883 1945.88 224.064 Q1943.89 225.244 1943.89 228.092 Q1943.89 230.36 1945.37 231.703 Q1946.87 233.022 1949.44 233.022 Q1952.99 233.022 1955.11 230.522 Q1957.27 227.999 1957.27 223.832 L1957.27 222.883 L1953.03 222.883 M1961.53 221.124 L1961.53 235.916 L1957.27 235.916 L1957.27 231.981 Q1955.81 234.342 1953.63 235.476 Q1951.46 236.587 1948.31 236.587 Q1944.33 236.587 1941.97 234.365 Q1939.63 232.119 1939.63 228.369 Q1939.63 223.994 1942.55 221.772 Q1945.49 219.55 1951.3 219.55 L1957.27 219.55 L1957.27 219.133 Q1957.27 216.194 1955.32 214.596 Q1953.4 212.976 1949.91 212.976 Q1947.68 212.976 1945.58 213.508 Q1943.47 214.041 1941.53 215.106 L1941.53 211.17 Q1943.86 210.268 1946.06 209.828 Q1948.26 209.365 1950.35 209.365 Q1955.97 209.365 1958.75 212.282 Q1961.53 215.198 1961.53 221.124 Z" fill="#000000" fill-rule="nonzero" fill-opacity="1" /><path clip-path="url(#clip440)" d="M1985.32 213.971 Q1984.61 213.555 1983.75 213.37 Q1982.92 213.161 1981.9 213.161 Q1978.29 213.161 1976.34 215.522 Q1974.42 217.86 1974.42 222.258 L1974.42 235.916 L1970.14 235.916 L1970.14 209.99 L1974.42 209.99 L1974.42 214.018 Q1975.76 211.657 1977.92 210.522 Q1980.07 209.365 1983.15 209.365 Q1983.59 209.365 1984.12 209.434 Q1984.65 209.481 1985.3 209.596 L1985.32 213.971 Z" fill="#000000" fill-rule="nonzero" fill-opacity="1" /><path clip-path="url(#clip440)" d="M2007.41 210.985 L2007.41 214.967 Q2005.6 213.971 2003.77 213.485 Q2001.97 212.976 2000.11 212.976 Q1995.97 212.976 1993.68 215.615 Q1991.39 218.231 1991.39 222.976 Q1991.39 227.721 1993.68 230.36 Q1995.97 232.976 2000.11 232.976 Q2001.97 232.976 2003.77 232.49 Q2005.6 231.981 2007.41 230.985 L2007.41 234.92 Q2005.62 235.754 2003.7 236.17 Q2001.8 236.587 1999.65 236.587 Q1993.8 236.587 1990.35 232.906 Q1986.9 229.226 1986.9 222.976 Q1986.9 216.633 1990.37 212.999 Q1993.86 209.365 1999.93 209.365 Q2001.9 209.365 2003.77 209.782 Q2005.65 210.175 2007.41 210.985 Z" fill="#000000" fill-rule="nonzero" fill-opacity="1" /><path clip-path="url(#clip440)" d="M2024.86 212.976 Q2021.43 212.976 2019.44 215.661 Q2017.45 218.323 2017.45 222.976 Q2017.45 227.629 2019.42 230.314 Q2021.41 232.976 2024.86 232.976 Q2028.26 232.976 2030.25 230.291 Q2032.24 227.606 2032.24 222.976 Q2032.24 218.37 2030.25 215.684 Q2028.26 212.976 2024.86 212.976 M2024.86 209.365 Q2030.42 209.365 2033.59 212.976 Q2036.76 216.587 2036.76 222.976 Q2036.76 229.342 2033.59 232.976 Q2030.42 236.587 2024.86 236.587 Q2019.28 236.587 2016.11 232.976 Q2012.96 229.342 2012.96 222.976 Q2012.96 216.587 2016.11 212.976 Q2019.28 209.365 2024.86 209.365 Z" fill="#000000" fill-rule="nonzero" fill-opacity="1" /><path clip-path="url(#clip440)" d="M2064 214.967 Q2065.6 212.096 2067.82 210.731 Q2070.04 209.365 2073.05 209.365 Q2077.1 209.365 2079.3 212.212 Q2081.5 215.036 2081.5 220.268 L2081.5 235.916 L2077.22 235.916 L2077.22 220.407 Q2077.22 216.68 2075.9 214.874 Q2074.58 213.069 2071.87 213.069 Q2068.56 213.069 2066.64 215.268 Q2064.72 217.467 2064.72 221.263 L2064.72 235.916 L2060.44 235.916 L2060.44 220.407 Q2060.44 216.657 2059.12 214.874 Q2057.8 213.069 2055.04 213.069 Q2051.78 213.069 2049.86 215.291 Q2047.94 217.49 2047.94 221.263 L2047.94 235.916 L2043.66 235.916 L2043.66 209.99 L2047.94 209.99 L2047.94 214.018 Q2049.4 211.633 2051.43 210.499 Q2053.47 209.365 2056.27 209.365 Q2059.1 209.365 2061.06 210.8 Q2063.05 212.235 2064 214.967 Z" fill="#000000" fill-rule="nonzero" fill-opacity="1" /><path clip-path="url(#clip440)" d="M2112.17 221.888 L2112.17 223.971 L2092.59 223.971 Q2092.87 228.369 2095.23 230.684 Q2097.61 232.976 2101.85 232.976 Q2104.3 232.976 2106.6 232.374 Q2108.91 231.772 2111.18 230.569 L2111.18 234.596 Q2108.89 235.568 2106.48 236.078 Q2104.07 236.587 2101.6 236.587 Q2095.39 236.587 2091.76 232.976 Q2088.15 229.365 2088.15 223.207 Q2088.15 216.842 2091.57 213.115 Q2095.02 209.365 2100.85 209.365 Q2106.09 209.365 2109.12 212.745 Q2112.17 216.101 2112.17 221.888 M2107.91 220.638 Q2107.87 217.143 2105.95 215.059 Q2104.05 212.976 2100.9 212.976 Q2097.34 212.976 2095.18 214.99 Q2093.05 217.004 2092.73 220.661 L2107.91 220.638 Z" fill="#000000" fill-rule="nonzero" fill-opacity="1" /><path clip-path="url(#clip440)" d="M2134.19 213.971 Q2133.47 213.555 2132.61 213.37 Q2131.78 213.161 2130.76 213.161 Q2127.15 213.161 2125.21 215.522 Q2123.29 217.86 2123.29 222.258 L2123.29 235.916 L2119 235.916 L2119 209.99 L2123.29 209.99 L2123.29 214.018 Q2124.63 211.657 2126.78 210.522 Q2128.93 209.365 2132.01 209.365 Q2132.45 209.365 2132.98 209.434 Q2133.52 209.481 2134.16 209.596 L2134.19 213.971 Z" fill="#000000" fill-rule="nonzero" fill-opacity="1" /><path clip-path="url(#clip440)" d="M2159.79 221.888 L2159.79 223.971 L2140.21 223.971 Q2140.48 228.369 2142.85 230.684 Q2145.23 232.976 2149.47 232.976 Q2151.92 232.976 2154.21 232.374 Q2156.53 231.772 2158.79 230.569 L2158.79 234.596 Q2156.5 235.568 2154.1 236.078 Q2151.69 236.587 2149.21 236.587 Q2143.01 236.587 2139.37 232.976 Q2135.76 229.365 2135.76 223.207 Q2135.76 216.842 2139.19 213.115 Q2142.64 209.365 2148.47 209.365 Q2153.7 209.365 2156.73 212.745 Q2159.79 216.101 2159.79 221.888 M2155.53 220.638 Q2155.48 217.143 2153.56 215.059 Q2151.66 212.976 2148.52 212.976 Q2144.95 212.976 2142.8 214.99 Q2140.67 217.004 2140.35 220.661 L2155.53 220.638 Z" fill="#000000" fill-rule="nonzero" fill-opacity="1" /><polyline clip-path="url(#clip440)" style="stroke:#e26f46; stroke-linecap:round; stroke-linejoin:round; stroke-width:8; stroke-opacity:1; fill:none" points="1746.07,270.476 1886.42,270.476 "/>
<path clip-path="url(#clip440)" d="M1937.68 255.858 L1937.68 260.788 Q1935.32 258.589 1932.64 257.501 Q1929.98 256.413 1926.97 256.413 Q1921.04 256.413 1917.89 260.048 Q1914.74 263.659 1914.74 270.51 Q1914.74 277.339 1917.89 280.973 Q1921.04 284.584 1926.97 284.584 Q1929.98 284.584 1932.64 283.496 Q1935.32 282.409 1937.68 280.209 L1937.68 285.094 Q1935.23 286.76 1932.48 287.594 Q1929.74 288.427 1926.69 288.427 Q1918.84 288.427 1914.33 283.635 Q1909.81 278.821 1909.81 270.51 Q1909.81 262.177 1914.33 257.386 Q1918.84 252.571 1926.69 252.571 Q1929.79 252.571 1932.52 253.404 Q1935.28 254.214 1937.68 255.858 Z" fill="#000000" fill-rule="nonzero" fill-opacity="1" /><path clip-path="url(#clip440)" d="M1955.51 290.163 Q1953.7 294.793 1951.99 296.205 Q1950.28 297.617 1947.41 297.617 L1944 297.617 L1944 294.052 L1946.5 294.052 Q1948.26 294.052 1949.24 293.219 Q1950.21 292.385 1951.39 289.283 L1952.15 287.339 L1941.67 261.83 L1946.18 261.83 L1954.28 282.108 L1962.38 261.83 L1966.9 261.83 L1955.51 290.163 Z" fill="#000000" fill-rule="nonzero" fill-opacity="1" /><path clip-path="url(#clip440)" d="M1976.99 254.469 L1976.99 261.83 L1985.76 261.83 L1985.76 265.14 L1976.99 265.14 L1976.99 279.214 Q1976.99 282.385 1977.85 283.288 Q1978.73 284.191 1981.39 284.191 L1985.76 284.191 L1985.76 287.756 L1981.39 287.756 Q1976.46 287.756 1974.58 285.927 Q1972.71 284.075 1972.71 279.214 L1972.71 265.14 L1969.58 265.14 L1969.58 261.83 L1972.71 261.83 L1972.71 254.469 L1976.99 254.469 Z" fill="#000000" fill-rule="nonzero" fill-opacity="1" /><path clip-path="url(#clip440)" d="M2001.41 264.816 Q1997.98 264.816 1995.99 267.501 Q1994 270.163 1994 274.816 Q1994 279.469 1995.97 282.154 Q1997.96 284.816 2001.41 284.816 Q2004.81 284.816 2006.8 282.131 Q2008.79 279.446 2008.79 274.816 Q2008.79 270.21 2006.8 267.524 Q2004.81 264.816 2001.41 264.816 M2001.41 261.205 Q2006.97 261.205 2010.14 264.816 Q2013.31 268.427 2013.31 274.816 Q2013.31 281.182 2010.14 284.816 Q2006.97 288.427 2001.41 288.427 Q1995.83 288.427 1992.66 284.816 Q1989.51 281.182 1989.51 274.816 Q1989.51 268.427 1992.66 264.816 Q1995.83 261.205 2001.41 261.205 Z" fill="#000000" fill-rule="nonzero" fill-opacity="1" /><path clip-path="url(#clip440)" d="M2036.9 262.594 L2036.9 266.622 Q2035.09 265.696 2033.15 265.233 Q2031.2 264.77 2029.12 264.77 Q2025.95 264.77 2024.35 265.742 Q2022.78 266.714 2022.78 268.659 Q2022.78 270.14 2023.91 270.997 Q2025.04 271.83 2028.47 272.594 L2029.93 272.918 Q2034.47 273.89 2036.36 275.672 Q2038.29 277.432 2038.29 280.603 Q2038.29 284.214 2035.42 286.321 Q2032.57 288.427 2027.57 288.427 Q2025.48 288.427 2023.22 288.01 Q2020.97 287.617 2018.47 286.807 L2018.47 282.409 Q2020.83 283.635 2023.12 284.26 Q2025.42 284.862 2027.66 284.862 Q2030.67 284.862 2032.29 283.844 Q2033.91 282.802 2033.91 280.927 Q2033.91 279.191 2032.73 278.265 Q2031.57 277.339 2027.61 276.483 L2026.13 276.135 Q2022.17 275.302 2020.42 273.589 Q2018.66 271.853 2018.66 268.844 Q2018.66 265.186 2021.25 263.196 Q2023.84 261.205 2028.61 261.205 Q2030.97 261.205 2033.05 261.552 Q2035.14 261.899 2036.9 262.594 Z" fill="#000000" fill-rule="nonzero" fill-opacity="1" /><path clip-path="url(#clip440)" d="M2055.11 264.816 Q2051.69 264.816 2049.7 267.501 Q2047.71 270.163 2047.71 274.816 Q2047.71 279.469 2049.67 282.154 Q2051.67 284.816 2055.11 284.816 Q2058.52 284.816 2060.51 282.131 Q2062.5 279.446 2062.5 274.816 Q2062.5 270.21 2060.51 267.524 Q2058.52 264.816 2055.11 264.816 M2055.11 261.205 Q2060.67 261.205 2063.84 264.816 Q2067.01 268.427 2067.01 274.816 Q2067.01 281.182 2063.84 284.816 Q2060.67 288.427 2055.11 288.427 Q2049.54 288.427 2046.36 284.816 Q2043.22 281.182 2043.22 274.816 Q2043.22 268.427 2046.36 264.816 Q2049.54 261.205 2055.11 261.205 Z" fill="#000000" fill-rule="nonzero" fill-opacity="1" /><path clip-path="url(#clip440)" d="M2074.07 251.737 L2078.33 251.737 L2078.33 287.756 L2074.07 287.756 L2074.07 251.737 Z" fill="#000000" fill-rule="nonzero" fill-opacity="1" /><polyline clip-path="url(#clip440)" style="stroke:#3da44d; stroke-linecap:round; stroke-linejoin:round; stroke-width:8; stroke-opacity:1; fill:none" points="1746.07,322.316 1886.42,322.316 "/>
<path clip-path="url(#clip440)" d="M1914.49 323.091 L1914.49 335.753 L1921.99 335.753 Q1925.76 335.753 1927.57 334.202 Q1929.4 332.628 1929.4 329.411 Q1929.4 326.17 1927.57 324.642 Q1925.76 323.091 1921.99 323.091 L1914.49 323.091 M1914.49 308.878 L1914.49 319.295 L1921.41 319.295 Q1924.84 319.295 1926.5 318.022 Q1928.19 316.725 1928.19 314.087 Q1928.19 311.471 1926.5 310.175 Q1924.84 308.878 1921.41 308.878 L1914.49 308.878 M1909.81 305.036 L1921.76 305.036 Q1927.11 305.036 1930 307.258 Q1932.89 309.48 1932.89 313.577 Q1932.89 316.749 1931.41 318.624 Q1929.93 320.499 1927.06 320.962 Q1930.51 321.702 1932.41 324.063 Q1934.33 326.401 1934.33 329.92 Q1934.33 334.549 1931.18 337.073 Q1928.03 339.596 1922.22 339.596 L1909.81 339.596 L1909.81 305.036 Z" fill="#000000" fill-rule="nonzero" fill-opacity="1" /><path clip-path="url(#clip440)" d="M1942.15 303.577 L1946.41 303.577 L1946.41 339.596 L1942.15 339.596 L1942.15 303.577 Z" fill="#000000" fill-rule="nonzero" fill-opacity="1" /><path clip-path="url(#clip440)" d="M1965.37 316.656 Q1961.94 316.656 1959.95 319.341 Q1957.96 322.003 1957.96 326.656 Q1957.96 331.309 1959.93 333.994 Q1961.92 336.656 1965.37 336.656 Q1968.77 336.656 1970.76 333.971 Q1972.75 331.286 1972.75 326.656 Q1972.75 322.05 1970.76 319.364 Q1968.77 316.656 1965.37 316.656 M1965.37 313.045 Q1970.92 313.045 1974.1 316.656 Q1977.27 320.267 1977.27 326.656 Q1977.27 333.022 1974.1 336.656 Q1970.92 340.267 1965.37 340.267 Q1959.79 340.267 1956.62 336.656 Q1953.47 333.022 1953.47 326.656 Q1953.47 320.267 1956.62 316.656 Q1959.79 313.045 1965.37 313.045 Z" fill="#000000" fill-rule="nonzero" fill-opacity="1" /><path clip-path="url(#clip440)" d="M1994.37 316.656 Q1990.95 316.656 1988.96 319.341 Q1986.97 322.003 1986.97 326.656 Q1986.97 331.309 1988.93 333.994 Q1990.92 336.656 1994.37 336.656 Q1997.78 336.656 1999.77 333.971 Q2001.76 331.286 2001.76 326.656 Q2001.76 322.05 1999.77 319.364 Q1997.78 316.656 1994.37 316.656 M1994.37 313.045 Q1999.93 313.045 2003.1 316.656 Q2006.27 320.267 2006.27 326.656 Q2006.27 333.022 2003.1 336.656 Q1999.93 340.267 1994.37 340.267 Q1988.8 340.267 1985.62 336.656 Q1982.48 333.022 1982.48 326.656 Q1982.48 320.267 1985.62 316.656 Q1988.8 313.045 1994.37 313.045 Z" fill="#000000" fill-rule="nonzero" fill-opacity="1" /><path clip-path="url(#clip440)" d="M2030.39 317.605 L2030.39 303.577 L2034.65 303.577 L2034.65 339.596 L2030.39 339.596 L2030.39 335.707 Q2029.05 338.022 2026.99 339.156 Q2024.95 340.267 2022.08 340.267 Q2017.38 340.267 2014.42 336.517 Q2011.48 332.767 2011.48 326.656 Q2011.48 320.545 2014.42 316.795 Q2017.38 313.045 2022.08 313.045 Q2024.95 313.045 2026.99 314.179 Q2029.05 315.29 2030.39 317.605 M2015.88 326.656 Q2015.88 331.355 2017.8 334.04 Q2019.74 336.702 2023.12 336.702 Q2026.5 336.702 2028.45 334.04 Q2030.39 331.355 2030.39 326.656 Q2030.39 321.957 2028.45 319.295 Q2026.5 316.61 2023.12 316.61 Q2019.74 316.61 2017.8 319.295 Q2015.88 321.957 2015.88 326.656 Z" fill="#000000" fill-rule="nonzero" fill-opacity="1" /><circle clip-path="url(#clip440)" cx="1816.25" cy="374.156" r="20.9455" fill="#c271d2" fill-rule="evenodd" fill-opacity="1" stroke="#000000" stroke-opacity="1" stroke-width="3.72364"/>
<path clip-path="url(#clip440)" d="M1925.83 360.047 Q1920.74 360.047 1917.73 363.843 Q1914.74 367.64 1914.74 374.19 Q1914.74 380.718 1917.73 384.514 Q1920.74 388.311 1925.83 388.311 Q1930.93 388.311 1933.89 384.514 Q1936.87 380.718 1936.87 374.19 Q1936.87 367.64 1933.89 363.843 Q1930.93 360.047 1925.83 360.047 M1925.83 356.251 Q1933.1 356.251 1937.45 361.135 Q1941.8 365.996 1941.8 374.19 Q1941.8 382.362 1937.45 387.246 Q1933.1 392.107 1925.83 392.107 Q1918.54 392.107 1914.17 387.246 Q1909.81 382.385 1909.81 374.19 Q1909.81 365.996 1914.17 361.135 Q1918.54 356.251 1925.83 356.251 Z" fill="#000000" fill-rule="nonzero" fill-opacity="1" /><path clip-path="url(#clip440)" d="M1967.55 378.496 Q1967.55 373.797 1965.6 371.135 Q1963.68 368.45 1960.3 368.45 Q1956.92 368.45 1954.98 371.135 Q1953.05 373.797 1953.05 378.496 Q1953.05 383.195 1954.98 385.88 Q1956.92 388.542 1960.3 388.542 Q1963.68 388.542 1965.6 385.88 Q1967.55 383.195 1967.55 378.496 M1953.05 369.445 Q1954.4 367.13 1956.43 366.019 Q1958.49 364.885 1961.34 364.885 Q1966.06 364.885 1969 368.635 Q1971.97 372.385 1971.97 378.496 Q1971.97 384.607 1969 388.357 Q1966.06 392.107 1961.34 392.107 Q1958.49 392.107 1956.43 390.996 Q1954.4 389.862 1953.05 387.547 L1953.05 391.436 L1948.77 391.436 L1948.77 355.417 L1953.05 355.417 L1953.05 369.445 Z" fill="#000000" fill-rule="nonzero" fill-opacity="1" /><path clip-path="url(#clip440)" d="M1995.55 366.274 L1995.55 370.302 Q1993.75 369.376 1991.8 368.913 Q1989.86 368.45 1987.78 368.45 Q1984.61 368.45 1983.01 369.422 Q1981.43 370.394 1981.43 372.339 Q1981.43 373.82 1982.57 374.677 Q1983.7 375.51 1987.13 376.274 L1988.59 376.598 Q1993.12 377.57 1995.02 379.352 Q1996.94 381.112 1996.94 384.283 Q1996.94 387.894 1994.07 390.001 Q1991.23 392.107 1986.23 392.107 Q1984.14 392.107 1981.87 391.69 Q1979.63 391.297 1977.13 390.487 L1977.13 386.089 Q1979.49 387.315 1981.78 387.94 Q1984.07 388.542 1986.32 388.542 Q1989.33 388.542 1990.95 387.524 Q1992.57 386.482 1992.57 384.607 Q1992.57 382.871 1991.39 381.945 Q1990.23 381.019 1986.27 380.163 L1984.79 379.815 Q1980.83 378.982 1979.07 377.269 Q1977.31 375.533 1977.31 372.524 Q1977.31 368.866 1979.91 366.876 Q1982.5 364.885 1987.27 364.885 Q1989.63 364.885 1991.71 365.232 Q1993.8 365.579 1995.55 366.274 Z" fill="#000000" fill-rule="nonzero" fill-opacity="1" /><path clip-path="url(#clip440)" d="M2025.9 377.408 L2025.9 379.491 L2006.32 379.491 Q2006.6 383.889 2008.96 386.204 Q2011.34 388.496 2015.58 388.496 Q2018.03 388.496 2020.32 387.894 Q2022.64 387.292 2024.91 386.089 L2024.91 390.116 Q2022.61 391.088 2020.21 391.598 Q2017.8 392.107 2015.32 392.107 Q2009.12 392.107 2005.48 388.496 Q2001.87 384.885 2001.87 378.727 Q2001.87 372.362 2005.3 368.635 Q2008.75 364.885 2014.58 364.885 Q2019.81 364.885 2022.85 368.265 Q2025.9 371.621 2025.9 377.408 M2021.64 376.158 Q2021.6 372.663 2019.67 370.579 Q2017.78 368.496 2014.63 368.496 Q2011.06 368.496 2008.91 370.51 Q2006.78 372.524 2006.46 376.181 L2021.64 376.158 Z" fill="#000000" fill-rule="nonzero" fill-opacity="1" /><path clip-path="url(#clip440)" d="M2047.92 369.491 Q2047.2 369.075 2046.34 368.89 Q2045.51 368.681 2044.49 368.681 Q2040.88 368.681 2038.93 371.042 Q2037.01 373.38 2037.01 377.778 L2037.01 391.436 L2032.73 391.436 L2032.73 365.51 L2037.01 365.51 L2037.01 369.538 Q2038.35 367.177 2040.51 366.042 Q2042.66 364.885 2045.74 364.885 Q2046.18 364.885 2046.71 364.954 Q2047.24 365.001 2047.89 365.116 L2047.92 369.491 Z" fill="#000000" fill-rule="nonzero" fill-opacity="1" /><path clip-path="url(#clip440)" d="M2049.33 365.51 L2053.84 365.51 L2061.94 387.269 L2070.04 365.51 L2074.56 365.51 L2064.84 391.436 L2059.05 391.436 L2049.33 365.51 Z" fill="#000000" fill-rule="nonzero" fill-opacity="1" /><path clip-path="url(#clip440)" d="M2102.61 377.408 L2102.61 379.491 L2083.03 379.491 Q2083.31 383.889 2085.67 386.204 Q2088.05 388.496 2092.29 388.496 Q2094.74 388.496 2097.04 387.894 Q2099.35 387.292 2101.62 386.089 L2101.62 390.116 Q2099.33 391.088 2096.92 391.598 Q2094.51 392.107 2092.04 392.107 Q2085.83 392.107 2082.2 388.496 Q2078.59 384.885 2078.59 378.727 Q2078.59 372.362 2082.01 368.635 Q2085.46 364.885 2091.29 364.885 Q2096.53 364.885 2099.56 368.265 Q2102.61 371.621 2102.61 377.408 M2098.35 376.158 Q2098.31 372.663 2096.39 370.579 Q2094.49 368.496 2091.34 368.496 Q2087.78 368.496 2085.62 370.51 Q2083.49 372.524 2083.17 376.181 L2098.35 376.158 Z" fill="#000000" fill-rule="nonzero" fill-opacity="1" /><path clip-path="url(#clip440)" d="M2126.66 369.445 L2126.66 355.417 L2130.92 355.417 L2130.92 391.436 L2126.66 391.436 L2126.66 387.547 Q2125.32 389.862 2123.26 390.996 Q2121.22 392.107 2118.35 392.107 Q2113.66 392.107 2110.69 388.357 Q2107.75 384.607 2107.75 378.496 Q2107.75 372.385 2110.69 368.635 Q2113.66 364.885 2118.35 364.885 Q2121.22 364.885 2123.26 366.019 Q2125.32 367.13 2126.66 369.445 M2112.15 378.496 Q2112.15 383.195 2114.07 385.88 Q2116.02 388.542 2119.4 388.542 Q2122.78 388.542 2124.72 385.88 Q2126.66 383.195 2126.66 378.496 Q2126.66 373.797 2124.72 371.135 Q2122.78 368.45 2119.4 368.45 Q2116.02 368.45 2114.07 371.135 Q2112.15 373.797 2112.15 378.496 Z" fill="#000000" fill-rule="nonzero" fill-opacity="1" /><path clip-path="url(#clip440)" d="M2159.63 360.718 L2159.63 387.593 L2165.28 387.593 Q2172.43 387.593 2175.74 384.352 Q2179.07 381.112 2179.07 374.121 Q2179.07 367.177 2175.74 363.959 Q2172.43 360.718 2165.28 360.718 L2159.63 360.718 M2154.95 356.876 L2164.56 356.876 Q2174.6 356.876 2179.3 361.066 Q2184 365.232 2184 374.121 Q2184 383.056 2179.28 387.246 Q2174.56 391.436 2164.56 391.436 L2154.95 391.436 L2154.95 356.876 Z" fill="#000000" fill-rule="nonzero" fill-opacity="1" /><path clip-path="url(#clip440)" d="M2203.05 378.403 Q2197.89 378.403 2195.9 379.584 Q2193.91 380.764 2193.91 383.612 Q2193.91 385.88 2195.39 387.223 Q2196.9 388.542 2199.47 388.542 Q2203.01 388.542 2205.14 386.042 Q2207.29 383.519 2207.29 379.352 L2207.29 378.403 L2203.05 378.403 M2211.55 376.644 L2211.55 391.436 L2207.29 391.436 L2207.29 387.501 Q2205.83 389.862 2203.66 390.996 Q2201.48 392.107 2198.33 392.107 Q2194.35 392.107 2191.99 389.885 Q2189.65 387.639 2189.65 383.889 Q2189.65 379.514 2192.57 377.292 Q2195.51 375.07 2201.32 375.07 L2207.29 375.07 L2207.29 374.653 Q2207.29 371.714 2205.34 370.116 Q2203.42 368.496 2199.93 368.496 Q2197.71 368.496 2195.6 369.028 Q2193.49 369.561 2191.55 370.626 L2191.55 366.69 Q2193.89 365.788 2196.09 365.348 Q2198.28 364.885 2200.37 364.885 Q2205.99 364.885 2208.77 367.802 Q2211.55 370.718 2211.55 376.644 Z" fill="#000000" fill-rule="nonzero" fill-opacity="1" /><path clip-path="url(#clip440)" d="M2224.53 358.149 L2224.53 365.51 L2233.31 365.51 L2233.31 368.82 L2224.53 368.82 L2224.53 382.894 Q2224.53 386.065 2225.39 386.968 Q2226.27 387.871 2228.93 387.871 L2233.31 387.871 L2233.31 391.436 L2228.93 391.436 Q2224 391.436 2222.13 389.607 Q2220.25 387.755 2220.25 382.894 L2220.25 368.82 L2217.13 368.82 L2217.13 365.51 L2220.25 365.51 L2220.25 358.149 L2224.53 358.149 Z" fill="#000000" fill-rule="nonzero" fill-opacity="1" /><path clip-path="url(#clip440)" d="M2250.69 378.403 Q2245.53 378.403 2243.54 379.584 Q2241.55 380.764 2241.55 383.612 Q2241.55 385.88 2243.03 387.223 Q2244.53 388.542 2247.1 388.542 Q2250.65 388.542 2252.78 386.042 Q2254.93 383.519 2254.93 379.352 L2254.93 378.403 L2250.69 378.403 M2259.19 376.644 L2259.19 391.436 L2254.93 391.436 L2254.93 387.501 Q2253.47 389.862 2251.29 390.996 Q2249.12 392.107 2245.97 392.107 Q2241.99 392.107 2239.63 389.885 Q2237.29 387.639 2237.29 383.889 Q2237.29 379.514 2240.21 377.292 Q2243.15 375.07 2248.96 375.07 L2254.93 375.07 L2254.93 374.653 Q2254.93 371.714 2252.98 370.116 Q2251.06 368.496 2247.57 368.496 Q2245.34 368.496 2243.24 369.028 Q2241.13 369.561 2239.19 370.626 L2239.19 366.69 Q2241.53 365.788 2243.72 365.348 Q2245.92 364.885 2248.01 364.885 Q2253.63 364.885 2256.41 367.802 Q2259.19 370.718 2259.19 376.644 Z" fill="#000000" fill-rule="nonzero" fill-opacity="1" /></svg>
