<?xml version="1.0" encoding="utf-8"?>
<svg xmlns="http://www.w3.org/2000/svg" xmlns:xlink="http://www.w3.org/1999/xlink" width="600" height="400" viewBox="0 0 2400 1600">
<defs>
  <clipPath id="clip710">
    <rect x="0" y="0" width="2400" height="1600"/>
  </clipPath>
</defs>
<path clip-path="url(#clip710)" d="M0 1600 L2400 1600 L2400 0 L0 0  Z" fill="#ffffff" fill-rule="evenodd" fill-opacity="1"/>
<defs>
  <clipPath id="clip711">
    <rect x="480" y="0" width="1681" height="1600"/>
  </clipPath>
</defs>
<path clip-path="url(#clip710)" d="M202.227 1423.18 L2352.76 1423.18 L2352.76 123.472 L202.227 123.472  Z" fill="#ffffff" fill-rule="evenodd" fill-opacity="1"/>
<defs>
  <clipPath id="clip712">
    <rect x="202" y="123" width="2152" height="1301"/>
  </clipPath>
</defs>
<polyline clip-path="url(#clip712)" style="stroke:#000000; stroke-linecap:round; stroke-linejoin:round; stroke-width:2; stroke-opacity:0.1; fill:none" points="238.648,1423.18 238.648,123.472 "/>
<polyline clip-path="url(#clip712)" style="stroke:#000000; stroke-linecap:round; stroke-linejoin:round; stroke-width:2; stroke-opacity:0.1; fill:none" points="727.516,1423.18 727.516,123.472 "/>
<polyline clip-path="url(#clip712)" style="stroke:#000000; stroke-linecap:round; stroke-linejoin:round; stroke-width:2; stroke-opacity:0.1; fill:none" points="1216.38,1423.18 1216.38,123.472 "/>
<polyline clip-path="url(#clip712)" style="stroke:#000000; stroke-linecap:round; stroke-linejoin:round; stroke-width:2; stroke-opacity:0.1; fill:none" points="1705.25,1423.18 1705.25,123.472 "/>
<polyline clip-path="url(#clip712)" style="stroke:#000000; stroke-linecap:round; stroke-linejoin:round; stroke-width:2; stroke-opacity:0.1; fill:none" points="2194.12,1423.18 2194.12,123.472 "/>
<polyline clip-path="url(#clip712)" style="stroke:#000000; stroke-linecap:round; stroke-linejoin:round; stroke-width:2; stroke-opacity:0.1; fill:none" points="202.227,1386.4 2352.76,1386.4 "/>
<polyline clip-path="url(#clip712)" style="stroke:#000000; stroke-linecap:round; stroke-linejoin:round; stroke-width:2; stroke-opacity:0.1; fill:none" points="202.227,1013.23 2352.76,1013.23 "/>
<polyline clip-path="url(#clip712)" style="stroke:#000000; stroke-linecap:round; stroke-linejoin:round; stroke-width:2; stroke-opacity:0.1; fill:none" points="202.227,640.062 2352.76,640.062 "/>
<polyline clip-path="url(#clip712)" style="stroke:#000000; stroke-linecap:round; stroke-linejoin:round; stroke-width:2; stroke-opacity:0.1; fill:none" points="202.227,266.895 2352.76,266.895 "/>
<polyline clip-path="url(#clip710)" style="stroke:#000000; stroke-linecap:round; stroke-linejoin:round; stroke-width:4; stroke-opacity:1; fill:none" points="202.227,1423.18 2352.76,1423.18 "/>
<polyline clip-path="url(#clip710)" style="stroke:#000000; stroke-linecap:round; stroke-linejoin:round; stroke-width:4; stroke-opacity:1; fill:none" points="238.648,1423.18 238.648,1404.28 "/>
<polyline clip-path="url(#clip710)" style="stroke:#000000; stroke-linecap:round; stroke-linejoin:round; stroke-width:4; stroke-opacity:1; fill:none" points="727.516,1423.18 727.516,1404.28 "/>
<polyline clip-path="url(#clip710)" style="stroke:#000000; stroke-linecap:round; stroke-linejoin:round; stroke-width:4; stroke-opacity:1; fill:none" points="1216.38,1423.18 1216.38,1404.28 "/>
<polyline clip-path="url(#clip710)" style="stroke:#000000; stroke-linecap:round; stroke-linejoin:round; stroke-width:4; stroke-opacity:1; fill:none" points="1705.25,1423.18 1705.25,1404.28 "/>
<polyline clip-path="url(#clip710)" style="stroke:#000000; stroke-linecap:round; stroke-linejoin:round; stroke-width:4; stroke-opacity:1; fill:none" points="2194.12,1423.18 2194.12,1404.28 "/>
<path clip-path="url(#clip710)" d="M238.648 1454.1 Q235.037 1454.1 233.208 1457.66 Q231.403 1461.2 231.403 1468.33 Q231.403 1475.44 233.208 1479.01 Q235.037 1482.55 238.648 1482.55 Q242.282 1482.55 244.088 1479.01 Q245.917 1475.44 245.917 1468.33 Q245.917 1461.2 244.088 1457.66 Q242.282 1454.1 238.648 1454.1 M238.648 1450.39 Q244.458 1450.39 247.514 1455 Q250.592 1459.58 250.592 1468.33 Q250.592 1477.06 247.514 1481.67 Q244.458 1486.25 238.648 1486.25 Q232.838 1486.25 229.759 1481.67 Q226.704 1477.06 226.704 1468.33 Q226.704 1459.58 229.759 1455 Q232.838 1450.39 238.648 1450.39 Z" fill="#000000" fill-rule="nonzero" fill-opacity="1" /><path clip-path="url(#clip710)" d="M706.289 1481.64 L722.608 1481.64 L722.608 1485.58 L700.664 1485.58 L700.664 1481.64 Q703.326 1478.89 707.909 1474.26 Q712.516 1469.61 713.696 1468.27 Q715.942 1465.74 716.821 1464.01 Q717.724 1462.25 717.724 1460.56 Q717.724 1457.8 715.78 1456.07 Q713.858 1454.33 710.757 1454.33 Q708.557 1454.33 706.104 1455.09 Q703.673 1455.86 700.895 1457.41 L700.895 1452.69 Q703.72 1451.55 706.173 1450.97 Q708.627 1450.39 710.664 1450.39 Q716.034 1450.39 719.229 1453.08 Q722.423 1455.77 722.423 1460.26 Q722.423 1462.39 721.613 1464.31 Q720.826 1466.2 718.719 1468.8 Q718.141 1469.47 715.039 1472.69 Q711.937 1475.88 706.289 1481.64 Z" fill="#000000" fill-rule="nonzero" fill-opacity="1" /><path clip-path="url(#clip710)" d="M742.423 1454.1 Q738.812 1454.1 736.983 1457.66 Q735.178 1461.2 735.178 1468.33 Q735.178 1475.44 736.983 1479.01 Q738.812 1482.55 742.423 1482.55 Q746.057 1482.55 747.863 1479.01 Q749.691 1475.44 749.691 1468.33 Q749.691 1461.2 747.863 1457.66 Q746.057 1454.1 742.423 1454.1 M742.423 1450.39 Q748.233 1450.39 751.289 1455 Q754.367 1459.58 754.367 1468.33 Q754.367 1477.06 751.289 1481.67 Q748.233 1486.25 742.423 1486.25 Q736.613 1486.25 733.534 1481.67 Q730.479 1477.06 730.479 1468.33 Q730.479 1459.58 733.534 1455 Q736.613 1450.39 742.423 1450.39 Z" fill="#000000" fill-rule="nonzero" fill-opacity="1" /><path clip-path="url(#clip710)" d="M1204.55 1455.09 L1192.75 1473.54 L1204.55 1473.54 L1204.55 1455.09 M1203.33 1451.02 L1209.21 1451.02 L1209.21 1473.54 L1214.14 1473.54 L1214.14 1477.43 L1209.21 1477.43 L1209.21 1485.58 L1204.55 1485.58 L1204.55 1477.43 L1188.95 1477.43 L1188.95 1472.92 L1203.33 1451.02 Z" fill="#000000" fill-rule="nonzero" fill-opacity="1" /><path clip-path="url(#clip710)" d="M1231.87 1454.1 Q1228.26 1454.1 1226.43 1457.66 Q1224.62 1461.2 1224.62 1468.33 Q1224.62 1475.44 1226.43 1479.01 Q1228.26 1482.55 1231.87 1482.55 Q1235.5 1482.55 1237.31 1479.01 Q1239.14 1475.44 1239.14 1468.33 Q1239.14 1461.2 1237.31 1457.66 Q1235.5 1454.1 1231.87 1454.1 M1231.87 1450.39 Q1237.68 1450.39 1240.73 1455 Q1243.81 1459.58 1243.81 1468.33 Q1243.81 1477.06 1240.73 1481.67 Q1237.68 1486.25 1231.87 1486.25 Q1226.06 1486.25 1222.98 1481.67 Q1219.92 1477.06 1219.92 1468.33 Q1219.92 1459.58 1222.98 1455 Q1226.06 1450.39 1231.87 1450.39 Z" fill="#000000" fill-rule="nonzero" fill-opacity="1" /><path clip-path="url(#clip710)" d="M1690.66 1466.44 Q1687.51 1466.44 1685.66 1468.59 Q1683.83 1470.74 1683.83 1474.49 Q1683.83 1478.22 1685.66 1480.39 Q1687.51 1482.55 1690.66 1482.55 Q1693.8 1482.55 1695.63 1480.39 Q1697.48 1478.22 1697.48 1474.49 Q1697.48 1470.74 1695.63 1468.59 Q1693.8 1466.44 1690.66 1466.44 M1699.94 1451.78 L1699.94 1456.04 Q1698.18 1455.21 1696.37 1454.77 Q1694.59 1454.33 1692.83 1454.33 Q1688.2 1454.33 1685.75 1457.45 Q1683.32 1460.58 1682.97 1466.9 Q1684.34 1464.89 1686.4 1463.82 Q1688.46 1462.73 1690.93 1462.73 Q1696.14 1462.73 1699.15 1465.9 Q1702.18 1469.05 1702.18 1474.49 Q1702.18 1479.82 1699.04 1483.03 Q1695.89 1486.25 1690.66 1486.25 Q1684.66 1486.25 1681.49 1481.67 Q1678.32 1477.06 1678.32 1468.33 Q1678.32 1460.14 1682.21 1455.28 Q1686.1 1450.39 1692.65 1450.39 Q1694.41 1450.39 1696.19 1450.74 Q1697.99 1451.09 1699.94 1451.78 Z" fill="#000000" fill-rule="nonzero" fill-opacity="1" /><path clip-path="url(#clip710)" d="M1720.24 1454.1 Q1716.63 1454.1 1714.8 1457.66 Q1712.99 1461.2 1712.99 1468.33 Q1712.99 1475.44 1714.8 1479.01 Q1716.63 1482.55 1720.24 1482.55 Q1723.87 1482.55 1725.68 1479.01 Q1727.51 1475.44 1727.51 1468.33 Q1727.51 1461.2 1725.68 1457.66 Q1723.87 1454.1 1720.24 1454.1 M1720.24 1450.39 Q1726.05 1450.39 1729.1 1455 Q1732.18 1459.58 1732.18 1468.33 Q1732.18 1477.06 1729.1 1481.67 Q1726.05 1486.25 1720.24 1486.25 Q1714.43 1486.25 1711.35 1481.67 Q1708.29 1477.06 1708.29 1468.33 Q1708.29 1459.58 1711.35 1455 Q1714.43 1450.39 1720.24 1450.39 Z" fill="#000000" fill-rule="nonzero" fill-opacity="1" /><path clip-path="url(#clip710)" d="M2178.99 1469.17 Q2175.66 1469.17 2173.74 1470.95 Q2171.84 1472.73 2171.84 1475.86 Q2171.84 1478.98 2173.74 1480.77 Q2175.66 1482.55 2178.99 1482.55 Q2182.32 1482.55 2184.25 1480.77 Q2186.17 1478.96 2186.17 1475.86 Q2186.17 1472.73 2184.25 1470.95 Q2182.35 1469.17 2178.99 1469.17 M2174.32 1467.18 Q2171.31 1466.44 2169.62 1464.38 Q2167.95 1462.32 2167.95 1459.35 Q2167.95 1455.21 2170.89 1452.8 Q2173.85 1450.39 2178.99 1450.39 Q2184.15 1450.39 2187.09 1452.8 Q2190.03 1455.21 2190.03 1459.35 Q2190.03 1462.32 2188.34 1464.38 Q2186.68 1466.44 2183.69 1467.18 Q2187.07 1467.96 2188.94 1470.26 Q2190.84 1472.55 2190.84 1475.86 Q2190.84 1480.88 2187.76 1483.57 Q2184.71 1486.25 2178.99 1486.25 Q2173.27 1486.25 2170.19 1483.57 Q2167.14 1480.88 2167.14 1475.86 Q2167.14 1472.55 2169.04 1470.26 Q2170.94 1467.96 2174.32 1467.18 M2172.6 1459.79 Q2172.6 1462.48 2174.27 1463.98 Q2175.96 1465.49 2178.99 1465.49 Q2182 1465.49 2183.69 1463.98 Q2185.4 1462.48 2185.4 1459.79 Q2185.4 1457.11 2183.69 1455.6 Q2182 1454.1 2178.99 1454.1 Q2175.96 1454.1 2174.27 1455.6 Q2172.6 1457.11 2172.6 1459.79 Z" fill="#000000" fill-rule="nonzero" fill-opacity="1" /><path clip-path="url(#clip710)" d="M2209.15 1454.1 Q2205.54 1454.1 2203.71 1457.66 Q2201.91 1461.2 2201.91 1468.33 Q2201.91 1475.44 2203.71 1479.01 Q2205.54 1482.55 2209.15 1482.55 Q2212.79 1482.55 2214.59 1479.01 Q2216.42 1475.44 2216.42 1468.33 Q2216.42 1461.2 2214.59 1457.66 Q2212.79 1454.1 2209.15 1454.1 M2209.15 1450.39 Q2214.96 1450.39 2218.02 1455 Q2221.1 1459.58 2221.1 1468.33 Q2221.1 1477.06 2218.02 1481.67 Q2214.96 1486.25 2209.15 1486.25 Q2203.34 1486.25 2200.26 1481.67 Q2197.21 1477.06 2197.21 1468.33 Q2197.21 1459.58 2200.26 1455 Q2203.34 1450.39 2209.15 1450.39 Z" fill="#000000" fill-rule="nonzero" fill-opacity="1" /><path clip-path="url(#clip710)" d="M1199.37 1520.52 L1239.57 1520.52 L1239.57 1525.93 L1222.7 1525.93 L1222.7 1568.04 L1216.24 1568.04 L1216.24 1525.93 L1199.37 1525.93 L1199.37 1520.52 Z" fill="#000000" fill-rule="nonzero" fill-opacity="1" /><path clip-path="url(#clip710)" d="M1243.51 1532.4 L1249.37 1532.4 L1249.37 1568.04 L1243.51 1568.04 L1243.51 1532.4 M1243.51 1518.52 L1249.37 1518.52 L1249.37 1525.93 L1243.51 1525.93 L1243.51 1518.52 Z" fill="#000000" fill-rule="nonzero" fill-opacity="1" /><path clip-path="url(#clip710)" d="M1289.38 1539.24 Q1291.58 1535.29 1294.63 1533.41 Q1297.69 1531.54 1301.82 1531.54 Q1307.39 1531.54 1310.42 1535.45 Q1313.44 1539.33 1313.44 1546.53 L1313.44 1568.04 L1307.55 1568.04 L1307.55 1546.72 Q1307.55 1541.59 1305.74 1539.11 Q1303.93 1536.63 1300.2 1536.63 Q1295.65 1536.63 1293.01 1539.65 Q1290.37 1542.68 1290.37 1547.9 L1290.37 1568.04 L1284.48 1568.04 L1284.48 1546.72 Q1284.48 1541.56 1282.66 1539.11 Q1280.85 1536.63 1277.06 1536.63 Q1272.57 1536.63 1269.93 1539.68 Q1267.29 1542.71 1267.29 1547.9 L1267.29 1568.04 L1261.4 1568.04 L1261.4 1532.4 L1267.29 1532.4 L1267.29 1537.93 Q1269.3 1534.66 1272.1 1533.1 Q1274.9 1531.54 1278.75 1531.54 Q1282.63 1531.54 1285.34 1533.51 Q1288.07 1535.48 1289.38 1539.24 Z" fill="#000000" fill-rule="nonzero" fill-opacity="1" /><path clip-path="url(#clip710)" d="M1355.61 1548.76 L1355.61 1551.62 L1328.69 1551.62 Q1329.07 1557.67 1332.32 1560.85 Q1335.59 1564 1341.42 1564 Q1344.79 1564 1347.94 1563.17 Q1351.13 1562.35 1354.25 1560.69 L1354.25 1566.23 Q1351.1 1567.57 1347.79 1568.27 Q1344.47 1568.97 1341.07 1568.97 Q1332.54 1568.97 1327.54 1564 Q1322.58 1559.04 1322.58 1550.57 Q1322.58 1541.82 1327.29 1536.69 Q1332.03 1531.54 1340.05 1531.54 Q1347.24 1531.54 1351.41 1536.18 Q1355.61 1540.8 1355.61 1548.76 M1349.76 1547.04 Q1349.69 1542.23 1347.05 1539.37 Q1344.44 1536.5 1340.11 1536.5 Q1335.21 1536.5 1332.25 1539.27 Q1329.32 1542.04 1328.88 1547.07 L1349.76 1547.04 Z" fill="#000000" fill-rule="nonzero" fill-opacity="1" /><polyline clip-path="url(#clip710)" style="stroke:#000000; stroke-linecap:round; stroke-linejoin:round; stroke-width:4; stroke-opacity:1; fill:none" points="202.227,1423.18 202.227,123.472 "/>
<polyline clip-path="url(#clip710)" style="stroke:#000000; stroke-linecap:round; stroke-linejoin:round; stroke-width:4; stroke-opacity:1; fill:none" points="202.227,1386.4 221.125,1386.4 "/>
<polyline clip-path="url(#clip710)" style="stroke:#000000; stroke-linecap:round; stroke-linejoin:round; stroke-width:4; stroke-opacity:1; fill:none" points="202.227,1013.23 221.125,1013.23 "/>
<polyline clip-path="url(#clip710)" style="stroke:#000000; stroke-linecap:round; stroke-linejoin:round; stroke-width:4; stroke-opacity:1; fill:none" points="202.227,640.062 221.125,640.062 "/>
<polyline clip-path="url(#clip710)" style="stroke:#000000; stroke-linecap:round; stroke-linejoin:round; stroke-width:4; stroke-opacity:1; fill:none" points="202.227,266.895 221.125,266.895 "/>
<path clip-path="url(#clip710)" d="M154.283 1372.19 Q150.672 1372.19 148.843 1375.76 Q147.038 1379.3 147.038 1386.43 Q147.038 1393.54 148.843 1397.1 Q150.672 1400.64 154.283 1400.64 Q157.917 1400.64 159.723 1397.1 Q161.552 1393.54 161.552 1386.43 Q161.552 1379.3 159.723 1375.76 Q157.917 1372.19 154.283 1372.19 M154.283 1368.49 Q160.093 1368.49 163.149 1373.1 Q166.227 1377.68 166.227 1386.43 Q166.227 1395.16 163.149 1399.76 Q160.093 1404.35 154.283 1404.35 Q148.473 1404.35 145.394 1399.76 Q142.339 1395.16 142.339 1386.43 Q142.339 1377.68 145.394 1373.1 Q148.473 1368.49 154.283 1368.49 Z" fill="#000000" fill-rule="nonzero" fill-opacity="1" /><path clip-path="url(#clip710)" d="M145.325 995.949 L163.681 995.949 L163.681 999.884 L149.607 999.884 L149.607 1008.36 Q150.626 1008.01 151.644 1007.85 Q152.663 1007.66 153.681 1007.66 Q159.468 1007.66 162.848 1010.83 Q166.227 1014 166.227 1019.42 Q166.227 1025 162.755 1028.1 Q159.283 1031.18 152.964 1031.18 Q150.788 1031.18 148.519 1030.81 Q146.274 1030.44 143.866 1029.7 L143.866 1025 Q145.95 1026.13 148.172 1026.69 Q150.394 1027.24 152.871 1027.24 Q156.876 1027.24 159.214 1025.14 Q161.552 1023.03 161.552 1019.42 Q161.552 1015.81 159.214 1013.7 Q156.876 1011.6 152.871 1011.6 Q150.996 1011.6 149.121 1012.01 Q147.269 1012.43 145.325 1013.31 L145.325 995.949 Z" fill="#000000" fill-rule="nonzero" fill-opacity="1" /><path clip-path="url(#clip710)" d="M114.931 653.407 L122.57 653.407 L122.57 627.041 L114.26 628.708 L114.26 624.449 L122.524 622.782 L127.2 622.782 L127.2 653.407 L134.839 653.407 L134.839 657.342 L114.931 657.342 L114.931 653.407 Z" fill="#000000" fill-rule="nonzero" fill-opacity="1" /><path clip-path="url(#clip710)" d="M154.283 625.861 Q150.672 625.861 148.843 629.425 Q147.038 632.967 147.038 640.097 Q147.038 647.203 148.843 650.768 Q150.672 654.31 154.283 654.31 Q157.917 654.31 159.723 650.768 Q161.552 647.203 161.552 640.097 Q161.552 632.967 159.723 629.425 Q157.917 625.861 154.283 625.861 M154.283 622.157 Q160.093 622.157 163.149 626.763 Q166.227 631.347 166.227 640.097 Q166.227 648.823 163.149 653.43 Q160.093 658.013 154.283 658.013 Q148.473 658.013 145.394 653.43 Q142.339 648.823 142.339 640.097 Q142.339 631.347 145.394 626.763 Q148.473 622.157 154.283 622.157 Z" fill="#000000" fill-rule="nonzero" fill-opacity="1" /><path clip-path="url(#clip710)" d="M115.927 280.24 L123.566 280.24 L123.566 253.874 L115.256 255.541 L115.256 251.282 L123.519 249.615 L128.195 249.615 L128.195 280.24 L135.834 280.24 L135.834 284.175 L115.927 284.175 L115.927 280.24 Z" fill="#000000" fill-rule="nonzero" fill-opacity="1" /><path clip-path="url(#clip710)" d="M145.325 249.615 L163.681 249.615 L163.681 253.55 L149.607 253.55 L149.607 262.022 Q150.626 261.675 151.644 261.513 Q152.663 261.328 153.681 261.328 Q159.468 261.328 162.848 264.499 Q166.227 267.671 166.227 273.087 Q166.227 278.666 162.755 281.768 Q159.283 284.846 152.964 284.846 Q150.788 284.846 148.519 284.476 Q146.274 284.106 143.866 283.365 L143.866 278.666 Q145.95 279.8 148.172 280.356 Q150.394 280.911 152.871 280.911 Q156.876 280.911 159.214 278.805 Q161.552 276.698 161.552 273.087 Q161.552 269.476 159.214 267.37 Q156.876 265.263 152.871 265.263 Q150.996 265.263 149.121 265.68 Q147.269 266.096 145.325 266.976 L145.325 249.615 Z" fill="#000000" fill-rule="nonzero" fill-opacity="1" /><path clip-path="url(#clip710)" d="M20.1444 820.225 L26.9239 820.225 Q23.9002 823.472 22.4043 827.164 Q20.9083 830.824 20.9083 834.962 Q20.9083 843.11 25.9054 847.439 Q30.8707 851.767 40.2919 851.767 Q49.6813 851.767 54.6784 847.439 Q59.6436 843.11 59.6436 834.962 Q59.6436 830.824 58.1477 827.164 Q56.6518 823.472 53.6281 820.225 L60.3439 820.225 Q62.6355 823.599 63.7814 827.387 Q64.9272 831.143 64.9272 835.344 Q64.9272 846.134 58.3387 852.34 Q51.7183 858.547 40.2919 858.547 Q28.8336 858.547 22.2451 852.34 Q15.6248 846.134 15.6248 835.344 Q15.6248 831.079 16.7706 827.323 Q17.8846 823.535 20.1444 820.225 Z" fill="#000000" fill-rule="nonzero" fill-opacity="1" /><path clip-path="url(#clip710)" d="M16.4842 816.883 L16.4842 776.684 L21.895 776.684 L21.895 793.553 L64.0042 793.553 L64.0042 800.014 L21.895 800.014 L21.895 816.883 L16.4842 816.883 Z" fill="#000000" fill-rule="nonzero" fill-opacity="1" /><path clip-path="url(#clip710)" d="M16.4842 770.477 L16.4842 761.82 L56.238 740.749 L16.4842 740.749 L16.4842 734.511 L64.0042 734.511 L64.0042 743.168 L24.2503 764.239 L64.0042 764.239 L64.0042 770.477 L16.4842 770.477 Z" fill="#000000" fill-rule="nonzero" fill-opacity="1" /><path clip-path="url(#clip710)" d="M16.4842 728.305 L16.4842 688.105 L21.895 688.105 L21.895 704.974 L64.0042 704.974 L64.0042 711.435 L21.895 711.435 L21.895 728.305 L16.4842 728.305 Z" fill="#000000" fill-rule="nonzero" fill-opacity="1" /><path clip-path="url(#clip710)" d="M1056.68 18.8205 L1056.68 41.5461 L1066.97 41.5461 Q1072.68 41.5461 1075.8 38.5889 Q1078.92 35.6318 1078.92 30.163 Q1078.92 24.7348 1075.8 21.7777 Q1072.68 18.8205 1066.97 18.8205 L1056.68 18.8205 M1048.49 12.096 L1066.97 12.096 Q1077.13 12.096 1082.32 16.714 Q1087.54 21.2916 1087.54 30.163 Q1087.54 39.1155 1082.32 43.6931 Q1077.13 48.2706 1066.97 48.2706 L1056.68 48.2706 L1056.68 72.576 L1048.49 72.576 L1048.49 12.096 Z" fill="#000000" fill-rule="nonzero" fill-opacity="1" /><path clip-path="url(#clip710)" d="M1115.09 49.7694 Q1106.06 49.7694 1102.57 51.8354 Q1099.09 53.9013 1099.09 58.8839 Q1099.09 62.8538 1101.68 65.2034 Q1104.32 67.5124 1108.81 67.5124 Q1115.01 67.5124 1118.74 63.1374 Q1122.5 58.7219 1122.5 51.4303 L1122.5 49.7694 L1115.09 49.7694 M1129.96 46.6907 L1129.96 72.576 L1122.5 72.576 L1122.5 65.6895 Q1119.95 69.8214 1116.14 71.8063 Q1112.34 73.7508 1106.83 73.7508 Q1099.86 73.7508 1095.73 69.8619 Q1091.64 65.9325 1091.64 59.3701 Q1091.64 51.7138 1096.74 47.825 Q1101.88 43.9361 1112.05 43.9361 L1122.5 43.9361 L1122.5 43.2069 Q1122.5 38.0623 1119.1 35.2672 Q1115.74 32.4315 1109.62 32.4315 Q1105.73 32.4315 1102.05 33.3632 Q1098.36 34.295 1094.96 36.1584 L1094.96 29.2718 Q1099.05 27.692 1102.9 26.9223 Q1106.75 26.1121 1110.39 26.1121 Q1120.24 26.1121 1125.1 31.2163 Q1129.96 36.3204 1129.96 46.6907 Z" fill="#000000" fill-rule="nonzero" fill-opacity="1" /><path clip-path="url(#clip710)" d="M1152.68 14.324 L1152.68 27.2059 L1168.04 27.2059 L1168.04 32.9987 L1152.68 32.9987 L1152.68 57.6282 Q1152.68 63.1779 1154.18 64.7578 Q1155.72 66.3376 1160.38 66.3376 L1168.04 66.3376 L1168.04 72.576 L1160.38 72.576 Q1151.75 72.576 1148.47 69.3758 Q1145.19 66.1351 1145.19 57.6282 L1145.19 32.9987 L1139.72 32.9987 L1139.72 27.2059 L1145.19 27.2059 L1145.19 14.324 L1152.68 14.324 Z" fill="#000000" fill-rule="nonzero" fill-opacity="1" /><path clip-path="url(#clip710)" d="M1177.84 27.2059 L1185.29 27.2059 L1185.29 72.576 L1177.84 72.576 L1177.84 27.2059 M1177.84 9.54393 L1185.29 9.54393 L1185.29 18.9825 L1177.84 18.9825 L1177.84 9.54393 Z" fill="#000000" fill-rule="nonzero" fill-opacity="1" /><path clip-path="url(#clip710)" d="M1239.7 48.0275 L1239.7 51.6733 L1205.43 51.6733 Q1205.91 59.3701 1210.04 63.421 Q1214.22 67.4314 1221.63 67.4314 Q1225.92 67.4314 1229.93 66.3781 Q1233.98 65.3249 1237.95 63.2184 L1237.95 70.267 Q1233.94 71.9684 1229.73 72.8596 Q1225.52 73.7508 1221.18 73.7508 Q1210.33 73.7508 1203.97 67.4314 Q1197.65 61.1119 1197.65 50.3365 Q1197.65 39.1965 1203.64 32.6746 Q1209.68 26.1121 1219.89 26.1121 Q1229.04 26.1121 1234.35 32.0264 Q1239.7 37.9003 1239.7 48.0275 M1232.24 45.84 Q1232.16 39.7232 1228.8 36.0774 Q1225.48 32.4315 1219.97 32.4315 Q1213.73 32.4315 1209.96 35.9558 Q1206.24 39.4801 1205.67 45.8805 L1232.24 45.84 Z" fill="#000000" fill-rule="nonzero" fill-opacity="1" /><path clip-path="url(#clip710)" d="M1289.64 45.1919 L1289.64 72.576 L1282.19 72.576 L1282.19 45.4349 Q1282.19 38.994 1279.68 35.7938 Q1277.17 32.5936 1272.14 32.5936 Q1266.11 32.5936 1262.62 36.4419 Q1259.14 40.2903 1259.14 46.9338 L1259.14 72.576 L1251.65 72.576 L1251.65 27.2059 L1259.14 27.2059 L1259.14 34.2544 Q1261.81 30.163 1265.42 28.1376 Q1269.07 26.1121 1273.81 26.1121 Q1281.62 26.1121 1285.63 30.9732 Q1289.64 35.7938 1289.64 45.1919 Z" fill="#000000" fill-rule="nonzero" fill-opacity="1" /><path clip-path="url(#clip710)" d="M1311.88 14.324 L1311.88 27.2059 L1327.24 27.2059 L1327.24 32.9987 L1311.88 32.9987 L1311.88 57.6282 Q1311.88 63.1779 1313.38 64.7578 Q1314.92 66.3376 1319.58 66.3376 L1327.24 66.3376 L1327.24 72.576 L1319.58 72.576 Q1310.95 72.576 1307.67 69.3758 Q1304.39 66.1351 1304.39 57.6282 L1304.39 32.9987 L1298.92 32.9987 L1298.92 27.2059 L1304.39 27.2059 L1304.39 14.324 L1311.88 14.324 Z" fill="#000000" fill-rule="nonzero" fill-opacity="1" /><path clip-path="url(#clip710)" d="M1401.13 45.1919 L1401.13 72.576 L1393.67 72.576 L1393.67 45.4349 Q1393.67 38.994 1391.16 35.7938 Q1388.65 32.5936 1383.63 32.5936 Q1377.59 32.5936 1374.11 36.4419 Q1370.62 40.2903 1370.62 46.9338 L1370.62 72.576 L1363.13 72.576 L1363.13 27.2059 L1370.62 27.2059 L1370.62 34.2544 Q1373.3 30.163 1376.9 28.1376 Q1380.55 26.1121 1385.29 26.1121 Q1393.1 26.1121 1397.11 30.9732 Q1401.13 35.7938 1401.13 45.1919 Z" fill="#000000" fill-rule="nonzero" fill-opacity="1" /><path clip-path="url(#clip710)" d="M1434.55 43.8551 Q1428.71 43.8551 1425.35 46.9743 Q1422.03 50.0935 1422.03 55.5622 Q1422.03 61.0309 1425.35 64.1501 Q1428.71 67.2693 1434.55 67.2693 Q1440.38 67.2693 1443.74 64.1501 Q1447.1 60.9904 1447.1 55.5622 Q1447.1 50.0935 1443.74 46.9743 Q1440.42 43.8551 1434.55 43.8551 M1426.36 40.3713 Q1421.1 39.075 1418.14 35.4697 Q1415.22 31.8644 1415.22 26.6793 Q1415.22 19.4281 1420.37 15.2152 Q1425.55 11.0023 1434.55 11.0023 Q1443.58 11.0023 1448.72 15.2152 Q1453.87 19.4281 1453.87 26.6793 Q1453.87 31.8644 1450.91 35.4697 Q1447.99 39.075 1442.77 40.3713 Q1448.68 41.7486 1451.96 45.759 Q1455.29 49.7694 1455.29 55.5622 Q1455.29 64.3527 1449.9 69.0517 Q1444.55 73.7508 1434.55 73.7508 Q1424.54 73.7508 1419.15 69.0517 Q1413.8 64.3527 1413.8 55.5622 Q1413.8 49.7694 1417.13 45.759 Q1420.45 41.7486 1426.36 40.3713 M1423.36 27.4489 Q1423.36 32.148 1426.28 34.7811 Q1429.24 37.4142 1434.55 37.4142 Q1439.81 37.4142 1442.77 34.7811 Q1445.77 32.148 1445.77 27.4489 Q1445.77 22.7499 1442.77 20.1168 Q1439.81 17.4837 1434.55 17.4837 Q1429.24 17.4837 1426.28 20.1168 Q1423.36 22.7499 1423.36 27.4489 Z" fill="#000000" fill-rule="nonzero" fill-opacity="1" /><path clip-path="url(#clip710)" d="M1469.91 12.096 L1502.03 12.096 L1502.03 18.9825 L1477.4 18.9825 L1477.4 33.8088 Q1479.19 33.2012 1480.97 32.9176 Q1482.75 32.5936 1484.53 32.5936 Q1494.66 32.5936 1500.57 38.1433 Q1506.49 43.6931 1506.49 53.1722 Q1506.49 62.9348 1500.41 68.3631 Q1494.34 73.7508 1483.28 73.7508 Q1479.47 73.7508 1475.5 73.1026 Q1471.57 72.4545 1467.36 71.1582 L1467.36 62.9348 Q1471 64.9198 1474.89 65.892 Q1478.78 66.8642 1483.12 66.8642 Q1490.12 66.8642 1494.22 63.1779 Q1498.31 59.4916 1498.31 53.1722 Q1498.31 46.8528 1494.22 43.1664 Q1490.12 39.4801 1483.12 39.4801 Q1479.83 39.4801 1476.55 40.2093 Q1473.31 40.9384 1469.91 42.4778 L1469.91 12.096 Z" fill="#000000" fill-rule="nonzero" fill-opacity="1" /><polyline clip-path="url(#clip712)" style="stroke:#009af9; stroke-linecap:round; stroke-linejoin:round; stroke-width:8; stroke-opacity:1; fill:none" points="263.091,1386.4 287.535,792.105 311.978,479.118 336.422,306.967 360.865,216.846 385.308,174.613 409.752,160.256 434.195,162.061 458.639,173.153 483.082,189.468 507.525,208.695 531.969,229.397 556.412,250.812 580.855,272.451 605.299,294.031 629.742,315.433 654.186,336.534 678.629,357.295 703.072,377.714 727.516,397.769 751.959,417.447 776.402,436.765 800.846,455.736 825.289,474.364 849.733,492.651 874.176,510.609 898.619,528.246 923.063,545.563 947.506,562.563 971.949,579.251 996.393,595.61 1020.84,611.559 1045.28,627.182 1069.72,642.553 1094.17,657.708 1118.61,672.641 1143.05,687.305 1167.5,701.612 1191.94,715.435 1216.38,728.762 1240.83,741.803 1265.27,754.659 1289.71,767.344 1314.16,779.782 1338.6,791.812 1363.04,803.415 1387.49,814.758 1411.93,825.906 1436.37,836.873 1460.82,847.614 1485.26,858.032 1509.7,868.083 1534.15,877.889 1558.59,887.517 1583.03,896.989 1607.48,906.285 1631.92,915.341 1656.36,924.067 1680.81,932.528 1705.25,940.818 1729.69,948.986 1754.14,957.034 1778.58,964.921 1803.02,972.562 1827.47,979.893 1851.91,987.029 1876.35,994.055 1900.8,1001.01 1925.24,1007.87 1949.68,1014.57 1974.13,1021 1998.57,1027.18 2023.01,1033.23 2047.46,1039.22 2071.9,1045.16 2096.34,1051.02 2120.79,1056.7 2145.23,1062.11 2169.68,1067.36 2194.12,1072.54 2218.56,1077.68 2243.01,1082.76 2267.45,1087.74 2291.89,1090.94 "/>
<circle clip-path="url(#clip712)" cx="305.46" cy="1376.69" r="18" fill="#e26f46" fill-rule="evenodd" fill-opacity="1" stroke="#000000" stroke-opacity="1" stroke-width="3.2"/>
<circle clip-path="url(#clip712)" cx="446.417" cy="1370.2" r="18" fill="#e26f46" fill-rule="evenodd" fill-opacity="1" stroke="#000000" stroke-opacity="1" stroke-width="3.2"/>
<circle clip-path="url(#clip712)" cx="509.155" cy="1375.42" r="18" fill="#e26f46" fill-rule="evenodd" fill-opacity="1" stroke="#000000" stroke-opacity="1" stroke-width="3.2"/>
<circle clip-path="url(#clip712)" cx="1087.65" cy="1378.93" r="18" fill="#e26f46" fill-rule="evenodd" fill-opacity="1" stroke="#000000" stroke-opacity="1" stroke-width="3.2"/>
<circle clip-path="url(#clip712)" cx="1818.1" cy="1379.31" r="18" fill="#e26f46" fill-rule="evenodd" fill-opacity="1" stroke="#000000" stroke-opacity="1" stroke-width="3.2"/>
<circle clip-path="url(#clip712)" cx="2259.3" cy="1380.72" r="18" fill="#e26f46" fill-rule="evenodd" fill-opacity="1" stroke="#000000" stroke-opacity="1" stroke-width="3.2"/>
<path clip-path="url(#clip710)" d="M1681.78 322.316 L2281.07 322.316 L2281.07 166.796 L1681.78 166.796  Z" fill="#ffffff" fill-rule="evenodd" fill-opacity="1"/>
<polyline clip-path="url(#clip710)" style="stroke:#000000; stroke-linecap:round; stroke-linejoin:round; stroke-width:4; stroke-opacity:1; fill:none" points="1681.78,322.316 2281.07,322.316 2281.07,166.796 1681.78,166.796 1681.78,322.316 "/>
<polyline clip-path="url(#clip710)" style="stroke:#009af9; stroke-linecap:round; stroke-linejoin:round; stroke-width:8; stroke-opacity:1; fill:none" points="1705.68,218.636 1849.05,218.636 "/>
<path clip-path="url(#clip710)" d="M1872.94 201.356 L1879.91 201.356 L1888.73 224.874 L1897.6 201.356 L1904.56 201.356 L1904.56 235.916 L1900 235.916 L1900 205.569 L1891.09 229.272 L1886.39 229.272 L1877.48 205.569 L1877.48 235.916 L1872.94 235.916 L1872.94 201.356 Z" fill="#000000" fill-rule="nonzero" fill-opacity="1" /><path clip-path="url(#clip710)" d="M1923.71 212.976 Q1920.28 212.976 1918.29 215.661 Q1916.3 218.323 1916.3 222.976 Q1916.3 227.629 1918.27 230.314 Q1920.26 232.976 1923.71 232.976 Q1927.11 232.976 1929.1 230.291 Q1931.09 227.606 1931.09 222.976 Q1931.09 218.37 1929.1 215.684 Q1927.11 212.976 1923.71 212.976 M1923.71 209.365 Q1929.26 209.365 1932.43 212.976 Q1935.6 216.587 1935.6 222.976 Q1935.6 229.342 1932.43 232.976 Q1929.26 236.587 1923.71 236.587 Q1918.13 236.587 1914.96 232.976 Q1911.81 229.342 1911.81 222.976 Q1911.81 216.587 1914.96 212.976 Q1918.13 209.365 1923.71 209.365 Z" fill="#000000" fill-rule="nonzero" fill-opacity="1" /><path clip-path="url(#clip710)" d="M1959.72 213.925 L1959.72 199.897 L1963.98 199.897 L1963.98 235.916 L1959.72 235.916 L1959.72 232.027 Q1958.38 234.342 1956.32 235.476 Q1954.28 236.587 1951.41 236.587 Q1946.72 236.587 1943.75 232.837 Q1940.81 229.087 1940.81 222.976 Q1940.81 216.865 1943.75 213.115 Q1946.72 209.365 1951.41 209.365 Q1954.28 209.365 1956.32 210.499 Q1958.38 211.61 1959.72 213.925 M1945.21 222.976 Q1945.21 227.675 1947.13 230.36 Q1949.08 233.022 1952.46 233.022 Q1955.84 233.022 1957.78 230.36 Q1959.72 227.675 1959.72 222.976 Q1959.72 218.277 1957.78 215.615 Q1955.84 212.93 1952.46 212.93 Q1949.08 212.93 1947.13 215.615 Q1945.21 218.277 1945.21 222.976 Z" fill="#000000" fill-rule="nonzero" fill-opacity="1" /><path clip-path="url(#clip710)" d="M1994.93 221.888 L1994.93 223.971 L1975.35 223.971 Q1975.63 228.369 1977.99 230.684 Q1980.37 232.976 1984.61 232.976 Q1987.06 232.976 1989.35 232.374 Q1991.67 231.772 1993.94 230.569 L1993.94 234.596 Q1991.65 235.568 1989.24 236.078 Q1986.83 236.587 1984.35 236.587 Q1978.15 236.587 1974.52 232.976 Q1970.91 229.365 1970.91 223.207 Q1970.91 216.842 1974.33 213.115 Q1977.78 209.365 1983.61 209.365 Q1988.84 209.365 1991.88 212.745 Q1994.93 216.101 1994.93 221.888 M1990.67 220.638 Q1990.63 217.143 1988.71 215.059 Q1986.81 212.976 1983.66 212.976 Q1980.1 212.976 1977.94 214.99 Q1975.81 217.004 1975.49 220.661 L1990.67 220.638 Z" fill="#000000" fill-rule="nonzero" fill-opacity="1" /><path clip-path="url(#clip710)" d="M2001.92 199.897 L2006.18 199.897 L2006.18 235.916 L2001.92 235.916 L2001.92 199.897 Z" fill="#000000" fill-rule="nonzero" fill-opacity="1" /><path clip-path="url(#clip710)" d="M2035.03 205.198 L2035.03 218.184 L2040.9 218.184 Q2044.17 218.184 2045.95 216.495 Q2047.73 214.805 2047.73 211.68 Q2047.73 208.578 2045.95 206.888 Q2044.17 205.198 2040.9 205.198 L2035.03 205.198 M2030.35 201.356 L2040.9 201.356 Q2046.72 201.356 2049.68 203.995 Q2052.66 206.61 2052.66 211.68 Q2052.66 216.795 2049.68 219.411 Q2046.72 222.027 2040.9 222.027 L2035.03 222.027 L2035.03 235.916 L2030.35 235.916 L2030.35 201.356 Z" fill="#000000" fill-rule="nonzero" fill-opacity="1" /><path clip-path="url(#clip710)" d="M2072.94 213.971 Q2072.22 213.555 2071.37 213.37 Q2070.53 213.161 2069.52 213.161 Q2065.9 213.161 2063.96 215.522 Q2062.04 217.86 2062.04 222.258 L2062.04 235.916 L2057.76 235.916 L2057.76 209.99 L2062.04 209.99 L2062.04 214.018 Q2063.38 211.657 2065.53 210.522 Q2067.69 209.365 2070.77 209.365 Q2071.21 209.365 2071.74 209.434 Q2072.27 209.481 2072.92 209.596 L2072.94 213.971 Z" fill="#000000" fill-rule="nonzero" fill-opacity="1" /><path clip-path="url(#clip710)" d="M2098.54 221.888 L2098.54 223.971 L2078.96 223.971 Q2079.24 228.369 2081.6 230.684 Q2083.98 232.976 2088.22 232.976 Q2090.67 232.976 2092.96 232.374 Q2095.28 231.772 2097.55 230.569 L2097.55 234.596 Q2095.26 235.568 2092.85 236.078 Q2090.44 236.587 2087.96 236.587 Q2081.76 236.587 2078.13 232.976 Q2074.52 229.365 2074.52 223.207 Q2074.52 216.842 2077.94 213.115 Q2081.39 209.365 2087.22 209.365 Q2092.46 209.365 2095.49 212.745 Q2098.54 216.101 2098.54 221.888 M2094.28 220.638 Q2094.24 217.143 2092.32 215.059 Q2090.42 212.976 2087.27 212.976 Q2083.71 212.976 2081.55 214.99 Q2079.42 217.004 2079.1 220.661 L2094.28 220.638 Z" fill="#000000" fill-rule="nonzero" fill-opacity="1" /><path clip-path="url(#clip710)" d="M2122.59 213.925 L2122.59 199.897 L2126.85 199.897 L2126.85 235.916 L2122.59 235.916 L2122.59 232.027 Q2121.25 234.342 2119.19 235.476 Q2117.15 236.587 2114.28 236.587 Q2109.59 236.587 2106.62 232.837 Q2103.68 229.087 2103.68 222.976 Q2103.68 216.865 2106.62 213.115 Q2109.59 209.365 2114.28 209.365 Q2117.15 209.365 2119.19 210.499 Q2121.25 211.61 2122.59 213.925 M2108.08 222.976 Q2108.08 227.675 2110 230.36 Q2111.95 233.022 2115.33 233.022 Q2118.71 233.022 2120.65 230.36 Q2122.59 227.675 2122.59 222.976 Q2122.59 218.277 2120.65 215.615 Q2118.71 212.93 2115.33 212.93 Q2111.95 212.93 2110 215.615 Q2108.08 218.277 2108.08 222.976 Z" fill="#000000" fill-rule="nonzero" fill-opacity="1" /><path clip-path="url(#clip710)" d="M2135.63 209.99 L2139.89 209.99 L2139.89 235.916 L2135.63 235.916 L2135.63 209.99 M2135.63 199.897 L2139.89 199.897 L2139.89 205.291 L2135.63 205.291 L2135.63 199.897 Z" fill="#000000" fill-rule="nonzero" fill-opacity="1" /><path clip-path="url(#clip710)" d="M2167.46 210.985 L2167.46 214.967 Q2165.65 213.971 2163.82 213.485 Q2162.02 212.976 2160.16 212.976 Q2156.02 212.976 2153.73 215.615 Q2151.44 218.231 2151.44 222.976 Q2151.44 227.721 2153.73 230.36 Q2156.02 232.976 2160.16 232.976 Q2162.02 232.976 2163.82 232.49 Q2165.65 231.981 2167.46 230.985 L2167.46 234.92 Q2165.67 235.754 2163.75 236.17 Q2161.85 236.587 2159.7 236.587 Q2153.84 236.587 2150.4 232.906 Q2146.95 229.226 2146.95 222.976 Q2146.95 216.633 2150.42 212.999 Q2153.91 209.365 2159.98 209.365 Q2161.95 209.365 2163.82 209.782 Q2165.7 210.175 2167.46 210.985 Z" fill="#000000" fill-rule="nonzero" fill-opacity="1" /><path clip-path="url(#clip710)" d="M2179.08 202.629 L2179.08 209.99 L2187.85 209.99 L2187.85 213.3 L2179.08 213.3 L2179.08 227.374 Q2179.08 230.545 2179.93 231.448 Q2180.81 232.351 2183.47 232.351 L2187.85 232.351 L2187.85 235.916 L2183.47 235.916 Q2178.54 235.916 2176.67 234.087 Q2174.79 232.235 2174.79 227.374 L2174.79 213.3 L2171.67 213.3 L2171.67 209.99 L2174.79 209.99 L2174.79 202.629 L2179.08 202.629 Z" fill="#000000" fill-rule="nonzero" fill-opacity="1" /><path clip-path="url(#clip710)" d="M2193.45 209.99 L2197.71 209.99 L2197.71 235.916 L2193.45 235.916 L2193.45 209.99 M2193.45 199.897 L2197.71 199.897 L2197.71 205.291 L2193.45 205.291 L2193.45 199.897 Z" fill="#000000" fill-rule="nonzero" fill-opacity="1" /><path clip-path="url(#clip710)" d="M2216.67 212.976 Q2213.24 212.976 2211.25 215.661 Q2209.26 218.323 2209.26 222.976 Q2209.26 227.629 2211.23 230.314 Q2213.22 232.976 2216.67 232.976 Q2220.07 232.976 2222.06 230.291 Q2224.05 227.606 2224.05 222.976 Q2224.05 218.37 2222.06 215.684 Q2220.07 212.976 2216.67 212.976 M2216.67 209.365 Q2222.22 209.365 2225.39 212.976 Q2228.57 216.587 2228.57 222.976 Q2228.57 229.342 2225.39 232.976 Q2222.22 236.587 2216.67 236.587 Q2211.09 236.587 2207.92 232.976 Q2204.77 229.342 2204.77 222.976 Q2204.77 216.587 2207.92 212.976 Q2211.09 209.365 2216.67 209.365 Z" fill="#000000" fill-rule="nonzero" fill-opacity="1" /><path clip-path="url(#clip710)" d="M2257.18 220.268 L2257.18 235.916 L2252.92 235.916 L2252.92 220.407 Q2252.92 216.726 2251.48 214.897 Q2250.05 213.069 2247.18 213.069 Q2243.73 213.069 2241.74 215.268 Q2239.75 217.467 2239.75 221.263 L2239.75 235.916 L2235.46 235.916 L2235.46 209.99 L2239.75 209.99 L2239.75 214.018 Q2241.27 211.68 2243.33 210.522 Q2245.42 209.365 2248.13 209.365 Q2252.59 209.365 2254.89 212.143 Q2257.18 214.897 2257.18 220.268 Z" fill="#000000" fill-rule="nonzero" fill-opacity="1" /><circle clip-path="url(#clip710)" cx="1777.36" cy="270.476" r="20.9455" fill="#e26f46" fill-rule="evenodd" fill-opacity="1" stroke="#000000" stroke-opacity="1" stroke-width="3.72364"/>
<path clip-path="url(#clip710)" d="M1888.96 256.367 Q1883.87 256.367 1880.86 260.163 Q1877.87 263.96 1877.87 270.51 Q1877.87 277.038 1880.86 280.834 Q1883.87 284.631 1888.96 284.631 Q1894.05 284.631 1897.02 280.834 Q1900 277.038 1900 270.51 Q1900 263.96 1897.02 260.163 Q1894.05 256.367 1888.96 256.367 M1888.96 252.571 Q1896.23 252.571 1900.58 257.455 Q1904.93 262.316 1904.93 270.51 Q1904.93 278.682 1900.58 283.566 Q1896.23 288.427 1888.96 288.427 Q1881.67 288.427 1877.29 283.566 Q1872.94 278.705 1872.94 270.51 Q1872.94 262.316 1877.29 257.455 Q1881.67 252.571 1888.96 252.571 Z" fill="#000000" fill-rule="nonzero" fill-opacity="1" /><path clip-path="url(#clip710)" d="M1930.67 274.816 Q1930.67 270.117 1928.73 267.455 Q1926.81 264.77 1923.43 264.77 Q1920.05 264.77 1918.1 267.455 Q1916.18 270.117 1916.18 274.816 Q1916.18 279.515 1918.1 282.2 Q1920.05 284.862 1923.43 284.862 Q1926.81 284.862 1928.73 282.2 Q1930.67 279.515 1930.67 274.816 M1916.18 265.765 Q1917.53 263.45 1919.56 262.339 Q1921.62 261.205 1924.47 261.205 Q1929.19 261.205 1932.13 264.955 Q1935.1 268.705 1935.1 274.816 Q1935.1 280.927 1932.13 284.677 Q1929.19 288.427 1924.47 288.427 Q1921.62 288.427 1919.56 287.316 Q1917.53 286.182 1916.18 283.867 L1916.18 287.756 L1911.9 287.756 L1911.9 251.737 L1916.18 251.737 L1916.18 265.765 Z" fill="#000000" fill-rule="nonzero" fill-opacity="1" /><path clip-path="url(#clip710)" d="M1958.68 262.594 L1958.68 266.622 Q1956.88 265.696 1954.93 265.233 Q1952.99 264.77 1950.91 264.77 Q1947.73 264.77 1946.14 265.742 Q1944.56 266.714 1944.56 268.659 Q1944.56 270.14 1945.7 270.997 Q1946.83 271.83 1950.26 272.594 L1951.72 272.918 Q1956.25 273.89 1958.15 275.672 Q1960.07 277.432 1960.07 280.603 Q1960.07 284.214 1957.2 286.321 Q1954.35 288.427 1949.35 288.427 Q1947.27 288.427 1945 288.01 Q1942.76 287.617 1940.26 286.807 L1940.26 282.409 Q1942.62 283.635 1944.91 284.26 Q1947.2 284.862 1949.45 284.862 Q1952.46 284.862 1954.08 283.844 Q1955.7 282.802 1955.7 280.927 Q1955.7 279.191 1954.52 278.265 Q1953.36 277.339 1949.4 276.483 L1947.92 276.135 Q1943.96 275.302 1942.2 273.589 Q1940.44 271.853 1940.44 268.844 Q1940.44 265.186 1943.04 263.196 Q1945.63 261.205 1950.4 261.205 Q1952.76 261.205 1954.84 261.552 Q1956.92 261.899 1958.68 262.594 Z" fill="#000000" fill-rule="nonzero" fill-opacity="1" /><path clip-path="url(#clip710)" d="M1989.03 273.728 L1989.03 275.811 L1969.45 275.811 Q1969.72 280.209 1972.09 282.524 Q1974.47 284.816 1978.71 284.816 Q1981.16 284.816 1983.45 284.214 Q1985.77 283.612 1988.03 282.409 L1988.03 286.436 Q1985.74 287.408 1983.34 287.918 Q1980.93 288.427 1978.45 288.427 Q1972.25 288.427 1968.61 284.816 Q1965 281.205 1965 275.047 Q1965 268.682 1968.43 264.955 Q1971.88 261.205 1977.71 261.205 Q1982.94 261.205 1985.97 264.585 Q1989.03 267.941 1989.03 273.728 M1984.77 272.478 Q1984.72 268.983 1982.8 266.899 Q1980.91 264.816 1977.76 264.816 Q1974.19 264.816 1972.04 266.83 Q1969.91 268.844 1969.59 272.501 L1984.77 272.478 Z" fill="#000000" fill-rule="nonzero" fill-opacity="1" /><path clip-path="url(#clip710)" d="M2011.04 265.811 Q2010.33 265.395 2009.47 265.21 Q2008.64 265.001 2007.62 265.001 Q2004.01 265.001 2002.06 267.362 Q2000.14 269.7 2000.14 274.098 L2000.14 287.756 L1995.86 287.756 L1995.86 261.83 L2000.14 261.83 L2000.14 265.858 Q2001.48 263.497 2003.64 262.362 Q2005.79 261.205 2008.87 261.205 Q2009.31 261.205 2009.84 261.274 Q2010.37 261.321 2011.02 261.436 L2011.04 265.811 Z" fill="#000000" fill-rule="nonzero" fill-opacity="1" /><path clip-path="url(#clip710)" d="M2012.46 261.83 L2016.97 261.83 L2025.07 283.589 L2033.17 261.83 L2037.69 261.83 L2027.97 287.756 L2022.18 287.756 L2012.46 261.83 Z" fill="#000000" fill-rule="nonzero" fill-opacity="1" /><path clip-path="url(#clip710)" d="M2065.74 273.728 L2065.74 275.811 L2046.16 275.811 Q2046.44 280.209 2048.8 282.524 Q2051.18 284.816 2055.42 284.816 Q2057.87 284.816 2060.16 284.214 Q2062.48 283.612 2064.75 282.409 L2064.75 286.436 Q2062.46 287.408 2060.05 287.918 Q2057.64 288.427 2055.16 288.427 Q2048.96 288.427 2045.33 284.816 Q2041.72 281.205 2041.72 275.047 Q2041.72 268.682 2045.14 264.955 Q2048.59 261.205 2054.42 261.205 Q2059.65 261.205 2062.69 264.585 Q2065.74 267.941 2065.74 273.728 M2061.48 272.478 Q2061.44 268.983 2059.52 266.899 Q2057.62 264.816 2054.47 264.816 Q2050.9 264.816 2048.75 266.83 Q2046.62 268.844 2046.3 272.501 L2061.48 272.478 Z" fill="#000000" fill-rule="nonzero" fill-opacity="1" /><path clip-path="url(#clip710)" d="M2089.79 265.765 L2089.79 251.737 L2094.05 251.737 L2094.05 287.756 L2089.79 287.756 L2089.79 283.867 Q2088.45 286.182 2086.39 287.316 Q2084.35 288.427 2081.48 288.427 Q2076.78 288.427 2073.82 284.677 Q2070.88 280.927 2070.88 274.816 Q2070.88 268.705 2073.82 264.955 Q2076.78 261.205 2081.48 261.205 Q2084.35 261.205 2086.39 262.339 Q2088.45 263.45 2089.79 265.765 M2075.28 274.816 Q2075.28 279.515 2077.2 282.2 Q2079.15 284.862 2082.53 284.862 Q2085.9 284.862 2087.85 282.2 Q2089.79 279.515 2089.79 274.816 Q2089.79 270.117 2087.85 267.455 Q2085.9 264.77 2082.53 264.77 Q2079.15 264.77 2077.2 267.455 Q2075.28 270.117 2075.28 274.816 Z" fill="#000000" fill-rule="nonzero" fill-opacity="1" /><path clip-path="url(#clip710)" d="M2122.76 257.038 L2122.76 283.913 L2128.4 283.913 Q2135.56 283.913 2138.87 280.672 Q2142.2 277.432 2142.2 270.441 Q2142.2 263.497 2138.87 260.279 Q2135.56 257.038 2128.4 257.038 L2122.76 257.038 M2118.08 253.196 L2127.69 253.196 Q2137.73 253.196 2142.43 257.386 Q2147.13 261.552 2147.13 270.441 Q2147.13 279.376 2142.41 283.566 Q2137.69 287.756 2127.69 287.756 L2118.08 287.756 L2118.08 253.196 Z" fill="#000000" fill-rule="nonzero" fill-opacity="1" /><path clip-path="url(#clip710)" d="M2166.18 274.723 Q2161.02 274.723 2159.03 275.904 Q2157.04 277.084 2157.04 279.932 Q2157.04 282.2 2158.52 283.543 Q2160.02 284.862 2162.59 284.862 Q2166.14 284.862 2168.27 282.362 Q2170.42 279.839 2170.42 275.672 L2170.42 274.723 L2166.18 274.723 M2174.68 272.964 L2174.68 287.756 L2170.42 287.756 L2170.42 283.821 Q2168.96 286.182 2166.78 287.316 Q2164.61 288.427 2161.46 288.427 Q2157.48 288.427 2155.12 286.205 Q2152.78 283.959 2152.78 280.209 Q2152.78 275.834 2155.7 273.612 Q2158.64 271.39 2164.45 271.39 L2170.42 271.39 L2170.42 270.973 Q2170.42 268.034 2168.47 266.436 Q2166.55 264.816 2163.06 264.816 Q2160.83 264.816 2158.73 265.348 Q2156.62 265.881 2154.68 266.946 L2154.68 263.01 Q2157.02 262.108 2159.21 261.668 Q2161.41 261.205 2163.5 261.205 Q2169.12 261.205 2171.9 264.122 Q2174.68 267.038 2174.68 272.964 Z" fill="#000000" fill-rule="nonzero" fill-opacity="1" /><path clip-path="url(#clip710)" d="M2187.66 254.469 L2187.66 261.83 L2196.44 261.83 L2196.44 265.14 L2187.66 265.14 L2187.66 279.214 Q2187.66 282.385 2188.52 283.288 Q2189.4 284.191 2192.06 284.191 L2196.44 284.191 L2196.44 287.756 L2192.06 287.756 Q2187.13 287.756 2185.26 285.927 Q2183.38 284.075 2183.38 279.214 L2183.38 265.14 L2180.26 265.14 L2180.26 261.83 L2183.38 261.83 L2183.38 254.469 L2187.66 254.469 Z" fill="#000000" fill-rule="nonzero" fill-opacity="1" /><path clip-path="url(#clip710)" d="M2213.82 274.723 Q2208.66 274.723 2206.67 275.904 Q2204.68 277.084 2204.68 279.932 Q2204.68 282.2 2206.16 283.543 Q2207.66 284.862 2210.23 284.862 Q2213.77 284.862 2215.9 282.362 Q2218.06 279.839 2218.06 275.672 L2218.06 274.723 L2213.82 274.723 M2222.32 272.964 L2222.32 287.756 L2218.06 287.756 L2218.06 283.821 Q2216.6 286.182 2214.42 287.316 Q2212.25 288.427 2209.1 288.427 Q2205.12 288.427 2202.76 286.205 Q2200.42 283.959 2200.42 280.209 Q2200.42 275.834 2203.33 273.612 Q2206.27 271.39 2212.08 271.39 L2218.06 271.39 L2218.06 270.973 Q2218.06 268.034 2216.11 266.436 Q2214.19 264.816 2210.7 264.816 Q2208.47 264.816 2206.37 265.348 Q2204.26 265.881 2202.32 266.946 L2202.32 263.01 Q2204.65 262.108 2206.85 261.668 Q2209.05 261.205 2211.14 261.205 Q2216.76 261.205 2219.54 264.122 Q2222.32 267.038 2222.32 272.964 Z" fill="#000000" fill-rule="nonzero" fill-opacity="1" /></svg>
