<?xml version="1.0" encoding="utf-8"?>
<svg xmlns="http://www.w3.org/2000/svg" xmlns:xlink="http://www.w3.org/1999/xlink" width="800" height="500" viewBox="0 0 3200 2000">
<defs>
  <clipPath id="clip600">
    <rect x="0" y="0" width="3200" height="2000"/>
  </clipPath>
</defs>
<path clip-path="url(#clip600)" d="M0 2000 L3200 2000 L3200 0 L0 0  Z" fill="#ffffff" fill-rule="evenodd" fill-opacity="1"/>
<defs>
  <clipPath id="clip601">
    <rect x="318" y="182" width="2773" height="1580"/>
  </clipPath>
</defs>
<path clip-path="url(#clip600)" d="M317.564 1761.32 L3089.76 1761.32 L3089.76 182.684 L317.564 182.684  Z" fill="#ffffff" fill-rule="evenodd" fill-opacity="1"/>
<defs>
  <clipPath id="clip602">
    <rect x="317" y="182" width="2773" height="1580"/>
  </clipPath>
</defs>
<polyline clip-path="url(#clip602)" style="stroke:#000000; stroke-linecap:round; stroke-linejoin:round; stroke-width:2; stroke-opacity:0.1; fill:none" points="396.023,1761.32 396.023,182.684 "/>
<polyline clip-path="url(#clip602)" style="stroke:#000000; stroke-linecap:round; stroke-linejoin:round; stroke-width:2; stroke-opacity:0.1; fill:none" points="1086.25,1761.32 1086.25,182.684 "/>
<polyline clip-path="url(#clip602)" style="stroke:#000000; stroke-linecap:round; stroke-linejoin:round; stroke-width:2; stroke-opacity:0.1; fill:none" points="1776.48,1761.32 1776.48,182.684 "/>
<polyline clip-path="url(#clip602)" style="stroke:#000000; stroke-linecap:round; stroke-linejoin:round; stroke-width:2; stroke-opacity:0.1; fill:none" points="2466.71,1761.32 2466.71,182.684 "/>
<polyline clip-path="url(#clip602)" style="stroke:#000000; stroke-linecap:round; stroke-linejoin:round; stroke-width:2; stroke-opacity:0.1; fill:none" points="317.564,1716.64 3089.76,1716.64 "/>
<polyline clip-path="url(#clip602)" style="stroke:#000000; stroke-linecap:round; stroke-linejoin:round; stroke-width:2; stroke-opacity:0.1; fill:none" points="317.564,1452.58 3089.76,1452.58 "/>
<polyline clip-path="url(#clip602)" style="stroke:#000000; stroke-linecap:round; stroke-linejoin:round; stroke-width:2; stroke-opacity:0.1; fill:none" points="317.564,1188.53 3089.76,1188.53 "/>
<polyline clip-path="url(#clip602)" style="stroke:#000000; stroke-linecap:round; stroke-linejoin:round; stroke-width:2; stroke-opacity:0.1; fill:none" points="317.564,924.471 3089.76,924.471 "/>
<polyline clip-path="url(#clip602)" style="stroke:#000000; stroke-linecap:round; stroke-linejoin:round; stroke-width:2; stroke-opacity:0.1; fill:none" points="317.564,660.415 3089.76,660.415 "/>
<polyline clip-path="url(#clip602)" style="stroke:#000000; stroke-linecap:round; stroke-linejoin:round; stroke-width:2; stroke-opacity:0.1; fill:none" points="317.564,396.359 3089.76,396.359 "/>
<polyline clip-path="url(#clip600)" style="stroke:#000000; stroke-linecap:round; stroke-linejoin:round; stroke-width:4; stroke-opacity:1; fill:none" points="317.564,1761.32 3089.76,1761.32 "/>
<polyline clip-path="url(#clip600)" style="stroke:#000000; stroke-linecap:round; stroke-linejoin:round; stroke-width:4; stroke-opacity:1; fill:none" points="396.023,1761.32 396.023,1742.42 "/>
<polyline clip-path="url(#clip600)" style="stroke:#000000; stroke-linecap:round; stroke-linejoin:round; stroke-width:4; stroke-opacity:1; fill:none" points="1086.25,1761.32 1086.25,1742.42 "/>
<polyline clip-path="url(#clip600)" style="stroke:#000000; stroke-linecap:round; stroke-linejoin:round; stroke-width:4; stroke-opacity:1; fill:none" points="1776.48,1761.32 1776.48,1742.42 "/>
<polyline clip-path="url(#clip600)" style="stroke:#000000; stroke-linecap:round; stroke-linejoin:round; stroke-width:4; stroke-opacity:1; fill:none" points="2466.71,1761.32 2466.71,1742.42 "/>
<path clip-path="url(#clip600)" d="M396.023 1798.64 Q392.412 1798.64 390.583 1802.2 Q388.777 1805.74 388.777 1812.87 Q388.777 1819.98 390.583 1823.54 Q392.412 1827.09 396.023 1827.09 Q399.657 1827.09 401.462 1823.54 Q403.291 1819.98 403.291 1812.87 Q403.291 1805.74 401.462 1802.2 Q399.657 1798.64 396.023 1798.64 M396.023 1794.93 Q401.833 1794.93 404.888 1799.54 Q407.967 1804.12 407.967 1812.87 Q407.967 1821.6 404.888 1826.21 Q401.833 1830.79 396.023 1830.79 Q390.212 1830.79 387.134 1826.21 Q384.078 1821.6 384.078 1812.87 Q384.078 1804.12 387.134 1799.54 Q390.212 1794.93 396.023 1794.93 Z" fill="#000000" fill-rule="nonzero" fill-opacity="1" /><path clip-path="url(#clip600)" d="M1060.95 1795.56 L1079.31 1795.56 L1079.31 1799.49 L1065.23 1799.49 L1065.23 1807.97 Q1066.25 1807.62 1067.27 1807.46 Q1068.29 1807.27 1069.31 1807.27 Q1075.1 1807.27 1078.48 1810.44 Q1081.85 1813.61 1081.85 1819.03 Q1081.85 1824.61 1078.38 1827.71 Q1074.91 1830.79 1068.59 1830.79 Q1066.42 1830.79 1064.15 1830.42 Q1061.9 1830.05 1059.49 1829.31 L1059.49 1824.61 Q1061.58 1825.74 1063.8 1826.3 Q1066.02 1826.85 1068.5 1826.85 Q1072.5 1826.85 1074.84 1824.75 Q1077.18 1822.64 1077.18 1819.03 Q1077.18 1815.42 1074.84 1813.31 Q1072.5 1811.21 1068.5 1811.21 Q1066.62 1811.21 1064.75 1811.62 Q1062.9 1812.04 1060.95 1812.92 L1060.95 1795.56 Z" fill="#000000" fill-rule="nonzero" fill-opacity="1" /><path clip-path="url(#clip600)" d="M1101.07 1798.64 Q1097.46 1798.64 1095.63 1802.2 Q1093.82 1805.74 1093.82 1812.87 Q1093.82 1819.98 1095.63 1823.54 Q1097.46 1827.09 1101.07 1827.09 Q1104.7 1827.09 1106.51 1823.54 Q1108.34 1819.98 1108.34 1812.87 Q1108.34 1805.74 1106.51 1802.2 Q1104.7 1798.64 1101.07 1798.64 M1101.07 1794.93 Q1106.88 1794.93 1109.93 1799.54 Q1113.01 1804.12 1113.01 1812.87 Q1113.01 1821.6 1109.93 1826.21 Q1106.88 1830.79 1101.07 1830.79 Q1095.26 1830.79 1092.18 1826.21 Q1089.12 1821.6 1089.12 1812.87 Q1089.12 1804.12 1092.18 1799.54 Q1095.26 1794.93 1101.07 1794.93 Z" fill="#000000" fill-rule="nonzero" fill-opacity="1" /><path clip-path="url(#clip600)" d="M1736.09 1826.18 L1743.73 1826.18 L1743.73 1799.82 L1735.42 1801.48 L1735.42 1797.22 L1743.68 1795.56 L1748.36 1795.56 L1748.36 1826.18 L1756 1826.18 L1756 1830.12 L1736.09 1830.12 L1736.09 1826.18 Z" fill="#000000" fill-rule="nonzero" fill-opacity="1" /><path clip-path="url(#clip600)" d="M1775.44 1798.64 Q1771.83 1798.64 1770 1802.2 Q1768.2 1805.74 1768.2 1812.87 Q1768.2 1819.98 1770 1823.54 Q1771.83 1827.09 1775.44 1827.09 Q1779.08 1827.09 1780.88 1823.54 Q1782.71 1819.98 1782.71 1812.87 Q1782.71 1805.74 1780.88 1802.2 Q1779.08 1798.64 1775.44 1798.64 M1775.44 1794.93 Q1781.25 1794.93 1784.31 1799.54 Q1787.39 1804.12 1787.39 1812.87 Q1787.39 1821.6 1784.31 1826.21 Q1781.25 1830.79 1775.44 1830.79 Q1769.63 1830.79 1766.55 1826.21 Q1763.5 1821.6 1763.5 1812.87 Q1763.5 1804.12 1766.55 1799.54 Q1769.63 1794.93 1775.44 1794.93 Z" fill="#000000" fill-rule="nonzero" fill-opacity="1" /><path clip-path="url(#clip600)" d="M1805.6 1798.64 Q1801.99 1798.64 1800.16 1802.2 Q1798.36 1805.74 1798.36 1812.87 Q1798.36 1819.98 1800.16 1823.54 Q1801.99 1827.09 1805.6 1827.09 Q1809.24 1827.09 1811.04 1823.54 Q1812.87 1819.98 1812.87 1812.87 Q1812.87 1805.74 1811.04 1802.2 Q1809.24 1798.64 1805.6 1798.64 M1805.6 1794.93 Q1811.41 1794.93 1814.47 1799.54 Q1817.55 1804.12 1817.55 1812.87 Q1817.55 1821.6 1814.47 1826.21 Q1811.41 1830.79 1805.6 1830.79 Q1799.79 1830.79 1796.71 1826.21 Q1793.66 1821.6 1793.66 1812.87 Q1793.66 1804.12 1796.71 1799.54 Q1799.79 1794.93 1805.6 1794.93 Z" fill="#000000" fill-rule="nonzero" fill-opacity="1" /><path clip-path="url(#clip600)" d="M2426.32 1826.18 L2433.96 1826.18 L2433.96 1799.82 L2425.65 1801.48 L2425.65 1797.22 L2433.91 1795.56 L2438.59 1795.56 L2438.59 1826.18 L2446.23 1826.18 L2446.23 1830.12 L2426.32 1830.12 L2426.32 1826.18 Z" fill="#000000" fill-rule="nonzero" fill-opacity="1" /><path clip-path="url(#clip600)" d="M2455.72 1795.56 L2474.07 1795.56 L2474.07 1799.49 L2460 1799.49 L2460 1807.97 Q2461.02 1807.62 2462.04 1807.46 Q2463.06 1807.27 2464.07 1807.27 Q2469.86 1807.27 2473.24 1810.44 Q2476.62 1813.61 2476.62 1819.03 Q2476.62 1824.61 2473.15 1827.71 Q2469.68 1830.79 2463.36 1830.79 Q2461.18 1830.79 2458.91 1830.42 Q2456.67 1830.05 2454.26 1829.31 L2454.26 1824.61 Q2456.34 1825.74 2458.57 1826.3 Q2460.79 1826.85 2463.26 1826.85 Q2467.27 1826.85 2469.61 1824.75 Q2471.95 1822.64 2471.95 1819.03 Q2471.95 1815.42 2469.61 1813.31 Q2467.27 1811.21 2463.26 1811.21 Q2461.39 1811.21 2459.51 1811.62 Q2457.66 1812.04 2455.72 1812.92 L2455.72 1795.56 Z" fill="#000000" fill-rule="nonzero" fill-opacity="1" /><path clip-path="url(#clip600)" d="M2495.83 1798.64 Q2492.22 1798.64 2490.39 1802.2 Q2488.59 1805.74 2488.59 1812.87 Q2488.59 1819.98 2490.39 1823.54 Q2492.22 1827.09 2495.83 1827.09 Q2499.47 1827.09 2501.27 1823.54 Q2503.1 1819.98 2503.1 1812.87 Q2503.1 1805.74 2501.27 1802.2 Q2499.47 1798.64 2495.83 1798.64 M2495.83 1794.93 Q2501.64 1794.93 2504.7 1799.54 Q2507.78 1804.12 2507.78 1812.87 Q2507.78 1821.6 2504.7 1826.21 Q2501.64 1830.79 2495.83 1830.79 Q2490.02 1830.79 2486.94 1826.21 Q2483.89 1821.6 2483.89 1812.87 Q2483.89 1804.12 2486.94 1799.54 Q2490.02 1794.93 2495.83 1794.93 Z" fill="#000000" fill-rule="nonzero" fill-opacity="1" /><path clip-path="url(#clip600)" d="M1570.16 1870.66 L1610.36 1870.66 L1610.36 1876.07 L1593.49 1876.07 L1593.49 1918.18 L1587.03 1918.18 L1587.03 1876.07 L1570.16 1876.07 L1570.16 1870.66 Z" fill="#000000" fill-rule="nonzero" fill-opacity="1" /><path clip-path="url(#clip600)" d="M1614.31 1882.53 L1620.16 1882.53 L1620.16 1918.18 L1614.31 1918.18 L1614.31 1882.53 M1614.31 1868.66 L1620.16 1868.66 L1620.16 1876.07 L1614.31 1876.07 L1614.31 1868.66 Z" fill="#000000" fill-rule="nonzero" fill-opacity="1" /><path clip-path="url(#clip600)" d="M1660.17 1889.38 Q1662.37 1885.43 1665.42 1883.55 Q1668.48 1881.67 1672.62 1881.67 Q1678.19 1881.67 1681.21 1885.59 Q1684.23 1889.47 1684.23 1896.67 L1684.23 1918.18 L1678.34 1918.18 L1678.34 1896.86 Q1678.34 1891.73 1676.53 1889.25 Q1674.72 1886.77 1670.99 1886.77 Q1666.44 1886.77 1663.8 1889.79 Q1661.16 1892.81 1661.16 1898.03 L1661.16 1918.18 L1655.27 1918.18 L1655.27 1896.86 Q1655.27 1891.7 1653.45 1889.25 Q1651.64 1886.77 1647.85 1886.77 Q1643.36 1886.77 1640.72 1889.82 Q1638.08 1892.85 1638.08 1898.03 L1638.08 1918.18 L1632.19 1918.18 L1632.19 1882.53 L1638.08 1882.53 L1638.08 1888.07 Q1640.09 1884.79 1642.89 1883.23 Q1645.69 1881.67 1649.54 1881.67 Q1653.42 1881.67 1656.13 1883.65 Q1658.87 1885.62 1660.17 1889.38 Z" fill="#000000" fill-rule="nonzero" fill-opacity="1" /><path clip-path="url(#clip600)" d="M1726.41 1898.89 L1726.41 1901.76 L1699.48 1901.76 Q1699.86 1907.81 1703.11 1910.99 Q1706.39 1914.14 1712.21 1914.14 Q1715.58 1914.14 1718.73 1913.31 Q1721.92 1912.48 1725.04 1910.83 L1725.04 1916.37 Q1721.89 1917.7 1718.58 1918.4 Q1715.27 1919.1 1711.86 1919.1 Q1703.33 1919.1 1698.33 1914.14 Q1693.37 1909.17 1693.37 1900.71 Q1693.37 1891.96 1698.08 1886.83 Q1702.82 1881.67 1710.84 1881.67 Q1718.03 1881.67 1722.2 1886.32 Q1726.41 1890.94 1726.41 1898.89 M1720.55 1897.17 Q1720.49 1892.37 1717.84 1889.5 Q1715.23 1886.64 1710.9 1886.64 Q1706 1886.64 1703.04 1889.41 Q1700.12 1892.18 1699.67 1897.21 L1720.55 1897.17 Z" fill="#000000" fill-rule="nonzero" fill-opacity="1" /><path clip-path="url(#clip600)" d="M1770.81 1868.72 Q1766.54 1876.04 1764.47 1883.2 Q1762.4 1890.36 1762.4 1897.72 Q1762.4 1905.07 1764.47 1912.29 Q1766.57 1919.49 1770.81 1926.78 L1765.71 1926.78 Q1760.94 1919.3 1758.55 1912.07 Q1756.2 1904.85 1756.2 1897.72 Q1756.2 1890.62 1758.55 1883.42 Q1760.91 1876.23 1765.71 1868.72 L1770.81 1868.72 Z" fill="#000000" fill-rule="nonzero" fill-opacity="1" /><path clip-path="url(#clip600)" d="M1811.8 1896.67 L1811.8 1918.18 L1805.94 1918.18 L1805.94 1896.86 Q1805.94 1891.8 1803.97 1889.28 Q1802 1886.77 1798.05 1886.77 Q1793.31 1886.77 1790.57 1889.79 Q1787.83 1892.81 1787.83 1898.03 L1787.83 1918.18 L1781.95 1918.18 L1781.95 1868.66 L1787.83 1868.66 L1787.83 1888.07 Q1789.94 1884.86 1792.77 1883.27 Q1795.63 1881.67 1799.36 1881.67 Q1805.5 1881.67 1808.65 1885.49 Q1811.8 1889.28 1811.8 1896.67 Z" fill="#000000" fill-rule="nonzero" fill-opacity="1" /><path clip-path="url(#clip600)" d="M1822.56 1868.72 L1827.65 1868.72 Q1832.43 1876.23 1834.78 1883.42 Q1837.17 1890.62 1837.17 1897.72 Q1837.17 1904.85 1834.78 1912.07 Q1832.43 1919.3 1827.65 1926.78 L1822.56 1926.78 Q1826.79 1919.49 1828.86 1912.29 Q1830.96 1905.07 1830.96 1897.72 Q1830.96 1890.36 1828.86 1883.2 Q1826.79 1876.04 1822.56 1868.72 Z" fill="#000000" fill-rule="nonzero" fill-opacity="1" /><polyline clip-path="url(#clip600)" style="stroke:#000000; stroke-linecap:round; stroke-linejoin:round; stroke-width:4; stroke-opacity:1; fill:none" points="317.564,1761.32 317.564,182.684 "/>
<polyline clip-path="url(#clip600)" style="stroke:#000000; stroke-linecap:round; stroke-linejoin:round; stroke-width:4; stroke-opacity:1; fill:none" points="317.564,1716.64 336.462,1716.64 "/>
<polyline clip-path="url(#clip600)" style="stroke:#000000; stroke-linecap:round; stroke-linejoin:round; stroke-width:4; stroke-opacity:1; fill:none" points="317.564,1452.58 336.462,1452.58 "/>
<polyline clip-path="url(#clip600)" style="stroke:#000000; stroke-linecap:round; stroke-linejoin:round; stroke-width:4; stroke-opacity:1; fill:none" points="317.564,1188.53 336.462,1188.53 "/>
<polyline clip-path="url(#clip600)" style="stroke:#000000; stroke-linecap:round; stroke-linejoin:round; stroke-width:4; stroke-opacity:1; fill:none" points="317.564,924.471 336.462,924.471 "/>
<polyline clip-path="url(#clip600)" style="stroke:#000000; stroke-linecap:round; stroke-linejoin:round; stroke-width:4; stroke-opacity:1; fill:none" points="317.564,660.415 336.462,660.415 "/>
<polyline clip-path="url(#clip600)" style="stroke:#000000; stroke-linecap:round; stroke-linejoin:round; stroke-width:4; stroke-opacity:1; fill:none" points="317.564,396.359 336.462,396.359 "/>
<path clip-path="url(#clip600)" d="M182.227 1702.44 Q178.616 1702.44 176.787 1706 Q174.981 1709.54 174.981 1716.67 Q174.981 1723.78 176.787 1727.35 Q178.616 1730.89 182.227 1730.89 Q185.861 1730.89 187.666 1727.35 Q189.495 1723.78 189.495 1716.67 Q189.495 1709.54 187.666 1706 Q185.861 1702.44 182.227 1702.44 M182.227 1698.73 Q188.037 1698.73 191.092 1703.34 Q194.171 1707.92 194.171 1716.67 Q194.171 1725.4 191.092 1730.01 Q188.037 1734.59 182.227 1734.59 Q176.417 1734.59 173.338 1730.01 Q170.282 1725.4 170.282 1716.67 Q170.282 1707.92 173.338 1703.34 Q176.417 1698.73 182.227 1698.73 Z" fill="#000000" fill-rule="nonzero" fill-opacity="1" /><path clip-path="url(#clip600)" d="M202.389 1728.04 L207.273 1728.04 L207.273 1733.92 L202.389 1733.92 L202.389 1728.04 Z" fill="#000000" fill-rule="nonzero" fill-opacity="1" /><path clip-path="url(#clip600)" d="M227.458 1702.44 Q223.847 1702.44 222.018 1706 Q220.213 1709.54 220.213 1716.67 Q220.213 1723.78 222.018 1727.35 Q223.847 1730.89 227.458 1730.89 Q231.092 1730.89 232.898 1727.35 Q234.726 1723.78 234.726 1716.67 Q234.726 1709.54 232.898 1706 Q231.092 1702.44 227.458 1702.44 M227.458 1698.73 Q233.268 1698.73 236.324 1703.34 Q239.402 1707.92 239.402 1716.67 Q239.402 1725.4 236.324 1730.01 Q233.268 1734.59 227.458 1734.59 Q221.648 1734.59 218.569 1730.01 Q215.514 1725.4 215.514 1716.67 Q215.514 1707.92 218.569 1703.34 Q221.648 1698.73 227.458 1698.73 Z" fill="#000000" fill-rule="nonzero" fill-opacity="1" /><path clip-path="url(#clip600)" d="M257.62 1702.44 Q254.009 1702.44 252.18 1706 Q250.374 1709.54 250.374 1716.67 Q250.374 1723.78 252.18 1727.35 Q254.009 1730.89 257.62 1730.89 Q261.254 1730.89 263.06 1727.35 Q264.888 1723.78 264.888 1716.67 Q264.888 1709.54 263.06 1706 Q261.254 1702.44 257.62 1702.44 M257.62 1698.73 Q263.43 1698.73 266.485 1703.34 Q269.564 1707.92 269.564 1716.67 Q269.564 1725.4 266.485 1730.01 Q263.43 1734.59 257.62 1734.59 Q251.81 1734.59 248.731 1730.01 Q245.675 1725.4 245.675 1716.67 Q245.675 1707.92 248.731 1703.34 Q251.81 1698.73 257.62 1698.73 Z" fill="#000000" fill-rule="nonzero" fill-opacity="1" /><path clip-path="url(#clip600)" d="M183.222 1438.38 Q179.611 1438.38 177.782 1441.95 Q175.977 1445.49 175.977 1452.62 Q175.977 1459.72 177.782 1463.29 Q179.611 1466.83 183.222 1466.83 Q186.856 1466.83 188.662 1463.29 Q190.491 1459.72 190.491 1452.62 Q190.491 1445.49 188.662 1441.95 Q186.856 1438.38 183.222 1438.38 M183.222 1434.68 Q189.032 1434.68 192.088 1439.28 Q195.166 1443.87 195.166 1452.62 Q195.166 1461.34 192.088 1465.95 Q189.032 1470.53 183.222 1470.53 Q177.412 1470.53 174.333 1465.95 Q171.278 1461.34 171.278 1452.62 Q171.278 1443.87 174.333 1439.28 Q177.412 1434.68 183.222 1434.68 Z" fill="#000000" fill-rule="nonzero" fill-opacity="1" /><path clip-path="url(#clip600)" d="M203.384 1463.98 L208.268 1463.98 L208.268 1469.86 L203.384 1469.86 L203.384 1463.98 Z" fill="#000000" fill-rule="nonzero" fill-opacity="1" /><path clip-path="url(#clip600)" d="M222.481 1465.93 L238.8 1465.93 L238.8 1469.86 L216.856 1469.86 L216.856 1465.93 Q219.518 1463.17 224.101 1458.54 Q228.708 1453.89 229.888 1452.55 Q232.134 1450.03 233.013 1448.29 Q233.916 1446.53 233.916 1444.84 Q233.916 1442.09 231.972 1440.35 Q230.05 1438.61 226.949 1438.61 Q224.75 1438.61 222.296 1439.38 Q219.865 1440.14 217.088 1441.69 L217.088 1436.97 Q219.912 1435.84 222.365 1435.26 Q224.819 1434.68 226.856 1434.68 Q232.226 1434.68 235.421 1437.36 Q238.615 1440.05 238.615 1444.54 Q238.615 1446.67 237.805 1448.59 Q237.018 1450.49 234.912 1453.08 Q234.333 1453.75 231.231 1456.97 Q228.129 1460.16 222.481 1465.93 Z" fill="#000000" fill-rule="nonzero" fill-opacity="1" /><path clip-path="url(#clip600)" d="M248.661 1435.3 L267.018 1435.3 L267.018 1439.24 L252.944 1439.24 L252.944 1447.71 Q253.962 1447.36 254.981 1447.2 Q255.999 1447.02 257.018 1447.02 Q262.805 1447.02 266.185 1450.19 Q269.564 1453.36 269.564 1458.78 Q269.564 1464.35 266.092 1467.46 Q262.62 1470.53 256.3 1470.53 Q254.124 1470.53 251.856 1470.16 Q249.611 1469.79 247.203 1469.05 L247.203 1464.35 Q249.286 1465.49 251.509 1466.04 Q253.731 1466.6 256.208 1466.6 Q260.212 1466.6 262.55 1464.49 Q264.888 1462.39 264.888 1458.78 Q264.888 1455.16 262.55 1453.06 Q260.212 1450.95 256.208 1450.95 Q254.333 1450.95 252.458 1451.37 Q250.606 1451.78 248.661 1452.66 L248.661 1435.3 Z" fill="#000000" fill-rule="nonzero" fill-opacity="1" /><path clip-path="url(#clip600)" d="M182.227 1174.33 Q178.616 1174.33 176.787 1177.89 Q174.981 1181.43 174.981 1188.56 Q174.981 1195.67 176.787 1199.23 Q178.616 1202.77 182.227 1202.77 Q185.861 1202.77 187.666 1199.23 Q189.495 1195.67 189.495 1188.56 Q189.495 1181.43 187.666 1177.89 Q185.861 1174.33 182.227 1174.33 M182.227 1170.62 Q188.037 1170.62 191.092 1175.23 Q194.171 1179.81 194.171 1188.56 Q194.171 1197.29 191.092 1201.9 Q188.037 1206.48 182.227 1206.48 Q176.417 1206.48 173.338 1201.9 Q170.282 1197.29 170.282 1188.56 Q170.282 1179.81 173.338 1175.23 Q176.417 1170.62 182.227 1170.62 Z" fill="#000000" fill-rule="nonzero" fill-opacity="1" /><path clip-path="url(#clip600)" d="M202.389 1199.93 L207.273 1199.93 L207.273 1205.81 L202.389 1205.81 L202.389 1199.93 Z" fill="#000000" fill-rule="nonzero" fill-opacity="1" /><path clip-path="url(#clip600)" d="M217.504 1171.25 L235.861 1171.25 L235.861 1175.18 L221.787 1175.18 L221.787 1183.65 Q222.805 1183.31 223.824 1183.15 Q224.842 1182.96 225.861 1182.96 Q231.648 1182.96 235.027 1186.13 Q238.407 1189.3 238.407 1194.72 Q238.407 1200.3 234.935 1203.4 Q231.463 1206.48 225.143 1206.48 Q222.967 1206.48 220.699 1206.11 Q218.453 1205.74 216.046 1205 L216.046 1200.3 Q218.129 1201.43 220.351 1201.99 Q222.574 1202.54 225.051 1202.54 Q229.055 1202.54 231.393 1200.44 Q233.731 1198.33 233.731 1194.72 Q233.731 1191.11 231.393 1189 Q229.055 1186.9 225.051 1186.9 Q223.176 1186.9 221.301 1187.31 Q219.449 1187.73 217.504 1188.61 L217.504 1171.25 Z" fill="#000000" fill-rule="nonzero" fill-opacity="1" /><path clip-path="url(#clip600)" d="M257.62 1174.33 Q254.009 1174.33 252.18 1177.89 Q250.374 1181.43 250.374 1188.56 Q250.374 1195.67 252.18 1199.23 Q254.009 1202.77 257.62 1202.77 Q261.254 1202.77 263.06 1199.23 Q264.888 1195.67 264.888 1188.56 Q264.888 1181.43 263.06 1177.89 Q261.254 1174.33 257.62 1174.33 M257.62 1170.62 Q263.43 1170.62 266.485 1175.23 Q269.564 1179.81 269.564 1188.56 Q269.564 1197.29 266.485 1201.9 Q263.43 1206.48 257.62 1206.48 Q251.81 1206.48 248.731 1201.9 Q245.675 1197.29 245.675 1188.56 Q245.675 1179.81 248.731 1175.23 Q251.81 1170.62 257.62 1170.62 Z" fill="#000000" fill-rule="nonzero" fill-opacity="1" /><path clip-path="url(#clip600)" d="M183.222 910.27 Q179.611 910.27 177.782 913.834 Q175.977 917.376 175.977 924.506 Q175.977 931.612 177.782 935.177 Q179.611 938.718 183.222 938.718 Q186.856 938.718 188.662 935.177 Q190.491 931.612 190.491 924.506 Q190.491 917.376 188.662 913.834 Q186.856 910.27 183.222 910.27 M183.222 906.566 Q189.032 906.566 192.088 911.172 Q195.166 915.756 195.166 924.506 Q195.166 933.232 192.088 937.839 Q189.032 942.422 183.222 942.422 Q177.412 942.422 174.333 937.839 Q171.278 933.232 171.278 924.506 Q171.278 915.756 174.333 911.172 Q177.412 906.566 183.222 906.566 Z" fill="#000000" fill-rule="nonzero" fill-opacity="1" /><path clip-path="url(#clip600)" d="M203.384 935.871 L208.268 935.871 L208.268 941.751 L203.384 941.751 L203.384 935.871 Z" fill="#000000" fill-rule="nonzero" fill-opacity="1" /><path clip-path="url(#clip600)" d="M217.273 907.191 L239.495 907.191 L239.495 909.182 L226.949 941.751 L222.064 941.751 L233.87 911.126 L217.273 911.126 L217.273 907.191 Z" fill="#000000" fill-rule="nonzero" fill-opacity="1" /><path clip-path="url(#clip600)" d="M248.661 907.191 L267.018 907.191 L267.018 911.126 L252.944 911.126 L252.944 919.598 Q253.962 919.251 254.981 919.089 Q255.999 918.904 257.018 918.904 Q262.805 918.904 266.185 922.075 Q269.564 925.246 269.564 930.663 Q269.564 936.242 266.092 939.343 Q262.62 942.422 256.3 942.422 Q254.124 942.422 251.856 942.052 Q249.611 941.681 247.203 940.941 L247.203 936.242 Q249.286 937.376 251.509 937.931 Q253.731 938.487 256.208 938.487 Q260.212 938.487 262.55 936.381 Q264.888 934.274 264.888 930.663 Q264.888 927.052 262.55 924.945 Q260.212 922.839 256.208 922.839 Q254.333 922.839 252.458 923.256 Q250.606 923.672 248.661 924.552 L248.661 907.191 Z" fill="#000000" fill-rule="nonzero" fill-opacity="1" /><path clip-path="url(#clip600)" d="M173.037 673.76 L180.676 673.76 L180.676 647.394 L172.366 649.061 L172.366 644.801 L180.629 643.135 L185.305 643.135 L185.305 673.76 L192.944 673.76 L192.944 677.695 L173.037 677.695 L173.037 673.76 Z" fill="#000000" fill-rule="nonzero" fill-opacity="1" /><path clip-path="url(#clip600)" d="M202.389 671.815 L207.273 671.815 L207.273 677.695 L202.389 677.695 L202.389 671.815 Z" fill="#000000" fill-rule="nonzero" fill-opacity="1" /><path clip-path="url(#clip600)" d="M227.458 646.213 Q223.847 646.213 222.018 649.778 Q220.213 653.32 220.213 660.449 Q220.213 667.556 222.018 671.121 Q223.847 674.662 227.458 674.662 Q231.092 674.662 232.898 671.121 Q234.726 667.556 234.726 660.449 Q234.726 653.32 232.898 649.778 Q231.092 646.213 227.458 646.213 M227.458 642.51 Q233.268 642.51 236.324 647.116 Q239.402 651.699 239.402 660.449 Q239.402 669.176 236.324 673.783 Q233.268 678.366 227.458 678.366 Q221.648 678.366 218.569 673.783 Q215.514 669.176 215.514 660.449 Q215.514 651.699 218.569 647.116 Q221.648 642.51 227.458 642.51 Z" fill="#000000" fill-rule="nonzero" fill-opacity="1" /><path clip-path="url(#clip600)" d="M257.62 646.213 Q254.009 646.213 252.18 649.778 Q250.374 653.32 250.374 660.449 Q250.374 667.556 252.18 671.121 Q254.009 674.662 257.62 674.662 Q261.254 674.662 263.06 671.121 Q264.888 667.556 264.888 660.449 Q264.888 653.32 263.06 649.778 Q261.254 646.213 257.62 646.213 M257.62 642.51 Q263.43 642.51 266.485 647.116 Q269.564 651.699 269.564 660.449 Q269.564 669.176 266.485 673.783 Q263.43 678.366 257.62 678.366 Q251.81 678.366 248.731 673.783 Q245.675 669.176 245.675 660.449 Q245.675 651.699 248.731 647.116 Q251.81 642.51 257.62 642.51 Z" fill="#000000" fill-rule="nonzero" fill-opacity="1" /><path clip-path="url(#clip600)" d="M174.032 409.703 L181.671 409.703 L181.671 383.338 L173.361 385.004 L173.361 380.745 L181.625 379.079 L186.301 379.079 L186.301 409.703 L193.94 409.703 L193.94 413.639 L174.032 413.639 L174.032 409.703 Z" fill="#000000" fill-rule="nonzero" fill-opacity="1" /><path clip-path="url(#clip600)" d="M203.384 407.759 L208.268 407.759 L208.268 413.639 L203.384 413.639 L203.384 407.759 Z" fill="#000000" fill-rule="nonzero" fill-opacity="1" /><path clip-path="url(#clip600)" d="M222.481 409.703 L238.8 409.703 L238.8 413.639 L216.856 413.639 L216.856 409.703 Q219.518 406.949 224.101 402.319 Q228.708 397.666 229.888 396.324 Q232.134 393.801 233.013 392.065 Q233.916 390.305 233.916 388.615 Q233.916 385.861 231.972 384.125 Q230.05 382.389 226.949 382.389 Q224.75 382.389 222.296 383.153 Q219.865 383.916 217.088 385.467 L217.088 380.745 Q219.912 379.611 222.365 379.032 Q224.819 378.454 226.856 378.454 Q232.226 378.454 235.421 381.139 Q238.615 383.824 238.615 388.315 Q238.615 390.444 237.805 392.365 Q237.018 394.264 234.912 396.856 Q234.333 397.527 231.231 400.745 Q228.129 403.939 222.481 409.703 Z" fill="#000000" fill-rule="nonzero" fill-opacity="1" /><path clip-path="url(#clip600)" d="M248.661 379.079 L267.018 379.079 L267.018 383.014 L252.944 383.014 L252.944 391.486 Q253.962 391.139 254.981 390.977 Q255.999 390.791 257.018 390.791 Q262.805 390.791 266.185 393.963 Q269.564 397.134 269.564 402.551 Q269.564 408.129 266.092 411.231 Q262.62 414.31 256.3 414.31 Q254.124 414.31 251.856 413.939 Q249.611 413.569 247.203 412.828 L247.203 408.129 Q249.286 409.264 251.509 409.819 Q253.731 410.375 256.208 410.375 Q260.212 410.375 262.55 408.268 Q264.888 406.162 264.888 402.551 Q264.888 398.94 262.55 396.833 Q260.212 394.727 256.208 394.727 Q254.333 394.727 252.458 395.143 Q250.606 395.56 248.661 396.44 L248.661 379.079 Z" fill="#000000" fill-rule="nonzero" fill-opacity="1" /><path clip-path="url(#clip600)" d="M73.747 1155.62 L79.2215 1155.62 Q77.8528 1158.1 77.1844 1160.62 Q76.4842 1163.1 76.4842 1165.65 Q76.4842 1171.34 80.1127 1174.49 Q83.7093 1177.65 90.2341 1177.65 Q96.759 1177.65 100.387 1174.49 Q103.984 1171.34 103.984 1165.65 Q103.984 1163.1 103.316 1160.62 Q102.615 1158.1 101.247 1155.62 L106.658 1155.62 Q107.803 1158.07 108.376 1160.71 Q108.949 1163.32 108.949 1166.28 Q108.949 1174.33 103.889 1179.08 Q98.8278 1183.82 90.2341 1183.82 Q81.5131 1183.82 76.516 1179.05 Q71.519 1174.24 71.519 1165.9 Q71.519 1163.19 72.0919 1160.62 Q72.633 1158.04 73.747 1155.62 Z" fill="#000000" fill-rule="nonzero" fill-opacity="1" /><path clip-path="url(#clip600)" d="M60.5063 1151.77 L60.5063 1111.57 L65.9171 1111.57 L65.9171 1128.44 L108.026 1128.44 L108.026 1134.9 L65.9171 1134.9 L65.9171 1151.77 L60.5063 1151.77 Z" fill="#000000" fill-rule="nonzero" fill-opacity="1" /><path clip-path="url(#clip600)" d="M86.5102 1075.98 L108.026 1075.98 L108.026 1081.84 L86.7012 1081.84 Q81.6404 1081.84 79.126 1083.81 Q76.6115 1085.79 76.6115 1089.73 Q76.6115 1094.48 79.6352 1097.21 Q82.6589 1099.95 87.8788 1099.95 L108.026 1099.95 L108.026 1105.84 L72.3783 1105.84 L72.3783 1099.95 L77.9165 1099.95 Q74.7018 1097.85 73.1104 1095.02 Q71.519 1092.15 71.519 1088.43 Q71.519 1082.29 75.3384 1079.14 Q79.126 1075.98 86.5102 1075.98 Z" fill="#000000" fill-rule="nonzero" fill-opacity="1" /><path clip-path="url(#clip600)" d="M60.5063 1070.64 L60.5063 1030.44 L65.9171 1030.44 L65.9171 1047.31 L108.026 1047.31 L108.026 1053.77 L65.9171 1053.77 L65.9171 1070.64 L60.5063 1070.64 Z" fill="#000000" fill-rule="nonzero" fill-opacity="1" /><path clip-path="url(#clip600)" d="M58.5011 1004.31 L58.5011 990.812 L63.0526 990.812 L63.0526 998.45 L112.069 998.45 L112.069 990.812 L116.62 990.812 L116.62 1004.31 L58.5011 1004.31 Z" fill="#000000" fill-rule="nonzero" fill-opacity="1" /><path clip-path="url(#clip600)" d="M86.5102 948.702 L108.026 948.702 L108.026 954.559 L86.7012 954.559 Q81.6404 954.559 79.126 956.532 Q76.6115 958.506 76.6115 962.452 Q76.6115 967.195 79.6352 969.932 Q82.6589 972.669 87.8788 972.669 L108.026 972.669 L108.026 978.558 L72.3783 978.558 L72.3783 972.669 L77.9165 972.669 Q74.7018 970.569 73.1104 967.736 Q71.519 964.871 71.519 961.147 Q71.519 955.005 75.3384 951.854 Q79.126 948.702 86.5102 948.702 Z" fill="#000000" fill-rule="nonzero" fill-opacity="1" /><path clip-path="url(#clip600)" d="M89.7885 913.564 Q83.4228 913.564 79.9217 916.206 Q76.4206 918.816 76.4206 923.558 Q76.4206 928.269 79.9217 930.91 Q83.4228 933.52 89.7885 933.52 Q96.1224 933.52 99.6236 930.91 Q103.125 928.269 103.125 923.558 Q103.125 918.816 99.6236 916.206 Q96.1224 913.564 89.7885 913.564 M103.602 907.707 Q112.705 907.707 117.129 911.75 Q121.585 915.792 121.585 924.131 Q121.585 927.218 121.108 929.955 Q120.662 932.693 119.707 935.271 L114.01 935.271 Q115.411 932.693 116.079 930.178 Q116.747 927.664 116.747 925.054 Q116.747 919.293 113.724 916.428 Q110.732 913.564 104.652 913.564 L101.756 913.564 Q104.907 915.378 106.467 918.211 Q108.026 921.044 108.026 924.99 Q108.026 931.547 103.029 935.557 Q98.0321 939.568 89.7885 939.568 Q81.5131 939.568 76.516 935.557 Q71.519 931.547 71.519 924.99 Q71.519 921.044 73.0786 918.211 Q74.6382 915.378 77.7892 913.564 L72.3783 913.564 L72.3783 907.707 L103.602 907.707 Z" fill="#000000" fill-rule="nonzero" fill-opacity="1" /><path clip-path="url(#clip600)" d="M60.5063 885.236 L60.5063 879.826 L114.074 896.376 L114.074 901.787 L60.5063 885.236 Z" fill="#000000" fill-rule="nonzero" fill-opacity="1" /><path clip-path="url(#clip600)" d="M79.2215 845.928 Q75.2747 843.732 73.3968 840.676 Q71.519 837.621 71.519 833.483 Q71.519 827.913 75.4339 824.89 Q79.3169 821.866 86.5102 821.866 L108.026 821.866 L108.026 827.754 L86.7012 827.754 Q81.5768 827.754 79.0941 829.568 Q76.6115 831.383 76.6115 835.106 Q76.6115 839.658 79.6352 842.3 Q82.6589 844.941 87.8788 844.941 L108.026 844.941 L108.026 850.83 L86.7012 850.83 Q81.5449 850.83 79.0941 852.644 Q76.6115 854.458 76.6115 858.246 Q76.6115 862.734 79.6671 865.375 Q82.6908 868.017 87.8788 868.017 L108.026 868.017 L108.026 873.905 L72.3783 873.905 L72.3783 868.017 L77.9165 868.017 Q74.6382 866.012 73.0786 863.211 Q71.519 860.41 71.519 856.559 Q71.519 852.676 73.4923 849.97 Q75.4657 847.233 79.2215 845.928 Z" fill="#000000" fill-rule="nonzero" fill-opacity="1" /><path clip-path="url(#clip600)" d="M60.5063 809.93 L60.5063 803.501 L102.615 803.501 L102.615 780.361 L108.026 780.361 L108.026 809.93 L60.5063 809.93 Z" fill="#000000" fill-rule="nonzero" fill-opacity="1" /><path clip-path="url(#clip600)" d="M58.5011 760.182 L116.62 760.182 L116.62 773.677 L112.069 773.677 L112.069 766.07 L63.0526 766.07 L63.0526 773.677 L58.5011 773.677 L58.5011 760.182 Z" fill="#000000" fill-rule="nonzero" fill-opacity="1" /><path clip-path="url(#clip600)" d="M1358.93 18.8205 L1358.93 41.5461 L1369.22 41.5461 Q1374.93 41.5461 1378.05 38.5889 Q1381.17 35.6318 1381.17 30.163 Q1381.17 24.7348 1378.05 21.7777 Q1374.93 18.8205 1369.22 18.8205 L1358.93 18.8205 M1350.75 12.096 L1369.22 12.096 Q1379.39 12.096 1384.57 16.714 Q1389.8 21.2916 1389.8 30.163 Q1389.8 39.1155 1384.57 43.6931 Q1379.39 48.2706 1369.22 48.2706 L1358.93 48.2706 L1358.93 72.576 L1350.75 72.576 L1350.75 12.096 Z" fill="#000000" fill-rule="nonzero" fill-opacity="1" /><path clip-path="url(#clip600)" d="M1417.35 49.7694 Q1408.31 49.7694 1404.83 51.8354 Q1401.34 53.9013 1401.34 58.8839 Q1401.34 62.8538 1403.94 65.2034 Q1406.57 67.5124 1411.07 67.5124 Q1417.27 67.5124 1420.99 63.1374 Q1424.76 58.7219 1424.76 51.4303 L1424.76 49.7694 L1417.35 49.7694 M1432.21 46.6907 L1432.21 72.576 L1424.76 72.576 L1424.76 65.6895 Q1422.21 69.8214 1418.4 71.8063 Q1414.59 73.7508 1409.08 73.7508 Q1402.11 73.7508 1397.98 69.8619 Q1393.89 65.9325 1393.89 59.3701 Q1393.89 51.7138 1399 47.825 Q1404.14 43.9361 1414.31 43.9361 L1424.76 43.9361 L1424.76 43.2069 Q1424.76 38.0623 1421.36 35.2672 Q1417.99 32.4315 1411.88 32.4315 Q1407.99 32.4315 1404.3 33.3632 Q1400.62 34.295 1397.21 36.1584 L1397.21 29.2718 Q1401.3 27.692 1405.15 26.9223 Q1409 26.1121 1412.65 26.1121 Q1422.49 26.1121 1427.35 31.2163 Q1432.21 36.3204 1432.21 46.6907 Z" fill="#000000" fill-rule="nonzero" fill-opacity="1" /><path clip-path="url(#clip600)" d="M1454.94 14.324 L1454.94 27.2059 L1470.29 27.2059 L1470.29 32.9987 L1454.94 32.9987 L1454.94 57.6282 Q1454.94 63.1779 1456.44 64.7578 Q1457.98 66.3376 1462.64 66.3376 L1470.29 66.3376 L1470.29 72.576 L1462.64 72.576 Q1454.01 72.576 1450.73 69.3758 Q1447.44 66.1351 1447.44 57.6282 L1447.44 32.9987 L1441.98 32.9987 L1441.98 27.2059 L1447.44 27.2059 L1447.44 14.324 L1454.94 14.324 Z" fill="#000000" fill-rule="nonzero" fill-opacity="1" /><path clip-path="url(#clip600)" d="M1480.09 27.2059 L1487.55 27.2059 L1487.55 72.576 L1480.09 72.576 L1480.09 27.2059 M1480.09 9.54393 L1487.55 9.54393 L1487.55 18.9825 L1480.09 18.9825 L1480.09 9.54393 Z" fill="#000000" fill-rule="nonzero" fill-opacity="1" /><path clip-path="url(#clip600)" d="M1541.95 48.0275 L1541.95 51.6733 L1507.68 51.6733 Q1508.17 59.3701 1512.3 63.421 Q1516.47 67.4314 1523.88 67.4314 Q1528.18 67.4314 1532.19 66.3781 Q1536.24 65.3249 1540.21 63.2184 L1540.21 70.267 Q1536.2 71.9684 1531.99 72.8596 Q1527.77 73.7508 1523.44 73.7508 Q1512.58 73.7508 1506.22 67.4314 Q1499.9 61.1119 1499.9 50.3365 Q1499.9 39.1965 1505.9 32.6746 Q1511.93 26.1121 1522.14 26.1121 Q1531.3 26.1121 1536.6 32.0264 Q1541.95 37.9003 1541.95 48.0275 M1534.5 45.84 Q1534.42 39.7232 1531.05 36.0774 Q1527.73 32.4315 1522.22 32.4315 Q1515.99 32.4315 1512.22 35.9558 Q1508.49 39.4801 1507.92 45.8805 L1534.5 45.84 Z" fill="#000000" fill-rule="nonzero" fill-opacity="1" /><path clip-path="url(#clip600)" d="M1591.9 45.1919 L1591.9 72.576 L1584.45 72.576 L1584.45 45.4349 Q1584.45 38.994 1581.93 35.7938 Q1579.42 32.5936 1574.4 32.5936 Q1568.36 32.5936 1564.88 36.4419 Q1561.4 40.2903 1561.4 46.9338 L1561.4 72.576 L1553.9 72.576 L1553.9 27.2059 L1561.4 27.2059 L1561.4 34.2544 Q1564.07 30.163 1567.68 28.1376 Q1571.32 26.1121 1576.06 26.1121 Q1583.88 26.1121 1587.89 30.9732 Q1591.9 35.7938 1591.9 45.1919 Z" fill="#000000" fill-rule="nonzero" fill-opacity="1" /><path clip-path="url(#clip600)" d="M1614.14 14.324 L1614.14 27.2059 L1629.49 27.2059 L1629.49 32.9987 L1614.14 32.9987 L1614.14 57.6282 Q1614.14 63.1779 1615.64 64.7578 Q1617.18 66.3376 1621.84 66.3376 L1629.49 66.3376 L1629.49 72.576 L1621.84 72.576 Q1613.21 72.576 1609.93 69.3758 Q1606.64 66.1351 1606.64 57.6282 L1606.64 32.9987 L1601.18 32.9987 L1601.18 27.2059 L1606.64 27.2059 L1606.64 14.324 L1614.14 14.324 Z" fill="#000000" fill-rule="nonzero" fill-opacity="1" /><path clip-path="url(#clip600)" d="M1665.99 12.096 L1674.17 12.096 L1674.17 72.576 L1665.99 72.576 L1665.99 12.096 Z" fill="#000000" fill-rule="nonzero" fill-opacity="1" /><path clip-path="url(#clip600)" d="M1698.64 18.8205 L1698.64 65.8515 L1708.53 65.8515 Q1721.04 65.8515 1726.84 60.1802 Q1732.67 54.509 1732.67 42.2752 Q1732.67 30.1225 1726.84 24.4918 Q1721.04 18.8205 1708.53 18.8205 L1698.64 18.8205 M1690.46 12.096 L1707.27 12.096 Q1724.85 12.096 1733.07 19.4281 Q1741.3 26.7198 1741.3 42.2752 Q1741.3 57.9117 1733.03 65.2439 Q1724.77 72.576 1707.27 72.576 L1690.46 72.576 L1690.46 12.096 Z" fill="#000000" fill-rule="nonzero" fill-opacity="1" /><path clip-path="url(#clip600)" d="M1755.92 62.2867 L1764.47 62.2867 L1764.47 72.576 L1755.92 72.576 L1755.92 62.2867 M1755.92 29.6769 L1764.47 29.6769 L1764.47 39.9662 L1755.92 39.9662 L1755.92 29.6769 Z" fill="#000000" fill-rule="nonzero" fill-opacity="1" /><path clip-path="url(#clip600)" d="M1846.05 45.1919 L1846.05 72.576 L1838.6 72.576 L1838.6 45.4349 Q1838.6 38.994 1836.09 35.7938 Q1833.58 32.5936 1828.55 32.5936 Q1822.52 32.5936 1819.03 36.4419 Q1815.55 40.2903 1815.55 46.9338 L1815.55 72.576 L1808.06 72.576 L1808.06 27.2059 L1815.55 27.2059 L1815.55 34.2544 Q1818.22 30.163 1821.83 28.1376 Q1825.47 26.1121 1830.21 26.1121 Q1838.03 26.1121 1842.04 30.9732 Q1846.05 35.7938 1846.05 45.1919 Z" fill="#000000" fill-rule="nonzero" fill-opacity="1" /><path clip-path="url(#clip600)" d="M1863.39 65.6895 L1876.76 65.6895 L1876.76 19.5497 L1862.22 22.4663 L1862.22 15.0127 L1876.68 12.096 L1884.86 12.096 L1884.86 65.6895 L1898.23 65.6895 L1898.23 72.576 L1863.39 72.576 L1863.39 65.6895 Z" fill="#000000" fill-rule="nonzero" fill-opacity="1" /><path clip-path="url(#clip600)" d="M1914.84 12.096 L1946.96 12.096 L1946.96 18.9825 L1922.33 18.9825 L1922.33 33.8088 Q1924.11 33.2012 1925.9 32.9176 Q1927.68 32.5936 1929.46 32.5936 Q1939.59 32.5936 1945.5 38.1433 Q1951.42 43.6931 1951.42 53.1722 Q1951.42 62.9348 1945.34 68.3631 Q1939.26 73.7508 1928.21 73.7508 Q1924.4 73.7508 1920.43 73.1026 Q1916.5 72.4545 1912.29 71.1582 L1912.29 62.9348 Q1915.93 64.9198 1919.82 65.892 Q1923.71 66.8642 1928.04 66.8642 Q1935.05 66.8642 1939.14 63.1779 Q1943.23 59.4916 1943.23 53.1722 Q1943.23 46.8528 1939.14 43.1664 Q1935.05 39.4801 1928.04 39.4801 Q1924.76 39.4801 1921.48 40.2093 Q1918.24 40.9384 1914.84 42.4778 L1914.84 12.096 Z" fill="#000000" fill-rule="nonzero" fill-opacity="1" /><path clip-path="url(#clip600)" d="M1985.04 17.4837 Q1978.72 17.4837 1975.52 23.7221 Q1972.36 29.92 1972.36 42.3968 Q1972.36 54.833 1975.52 61.0714 Q1978.72 67.2693 1985.04 67.2693 Q1991.4 67.2693 1994.56 61.0714 Q1997.76 54.833 1997.76 42.3968 Q1997.76 29.92 1994.56 23.7221 Q1991.4 17.4837 1985.04 17.4837 M1985.04 11.0023 Q1995.21 11.0023 2000.55 19.0636 Q2005.94 27.0843 2005.94 42.3968 Q2005.94 57.6687 2000.55 65.73 Q1995.21 73.7508 1985.04 73.7508 Q1974.87 73.7508 1969.48 65.73 Q1964.14 57.6687 1964.14 42.3968 Q1964.14 27.0843 1969.48 19.0636 Q1974.87 11.0023 1985.04 11.0023 Z" fill="#000000" fill-rule="nonzero" fill-opacity="1" /><path clip-path="url(#clip600)" d="M2021.74 65.6895 L2035.11 65.6895 L2035.11 19.5497 L2020.57 22.4663 L2020.57 15.0127 L2035.03 12.096 L2043.21 12.096 L2043.21 65.6895 L2056.58 65.6895 L2056.58 72.576 L2021.74 72.576 L2021.74 65.6895 Z" fill="#000000" fill-rule="nonzero" fill-opacity="1" /><circle clip-path="url(#clip602)" cx="407.526" cy="1209.65" r="21.6" fill="#ff0000" fill-rule="evenodd" fill-opacity="1" stroke="#000000" stroke-opacity="1" stroke-width="6"/>
<circle clip-path="url(#clip602)" cx="490.124" cy="1125.15" r="21.6" fill="#ff0000" fill-rule="evenodd" fill-opacity="1" stroke="#000000" stroke-opacity="1" stroke-width="6"/>
<circle clip-path="url(#clip602)" cx="615.056" cy="1061.78" r="21.6" fill="#ff0000" fill-rule="evenodd" fill-opacity="1" stroke="#000000" stroke-opacity="1" stroke-width="6"/>
<circle clip-path="url(#clip602)" cx="821.205" cy="1156.84" r="21.6" fill="#ff0000" fill-rule="evenodd" fill-opacity="1" stroke="#000000" stroke-opacity="1" stroke-width="6"/>
<circle clip-path="url(#clip602)" cx="1656.15" cy="459.732" r="21.6" fill="#ff0000" fill-rule="evenodd" fill-opacity="1" stroke="#000000" stroke-opacity="1" stroke-width="6"/>
<circle clip-path="url(#clip602)" cx="2088.7" cy="396.359" r="21.6" fill="#ff0000" fill-rule="evenodd" fill-opacity="1" stroke="#000000" stroke-opacity="1" stroke-width="6"/>
<circle clip-path="url(#clip602)" cx="2197.75" cy="227.363" r="21.6" fill="#ff0000" fill-rule="evenodd" fill-opacity="1" stroke="#000000" stroke-opacity="1" stroke-width="6"/>
<circle clip-path="url(#clip602)" cx="2303.82" cy="396.359" r="21.6" fill="#ff0000" fill-rule="evenodd" fill-opacity="1" stroke="#000000" stroke-opacity="1" stroke-width="6"/>
<circle clip-path="url(#clip602)" cx="2422.54" cy="512.543" r="21.6" fill="#ff0000" fill-rule="evenodd" fill-opacity="1" stroke="#000000" stroke-opacity="1" stroke-width="6"/>
<circle clip-path="url(#clip602)" cx="2559.43" cy="734.35" r="21.6" fill="#ff0000" fill-rule="evenodd" fill-opacity="1" stroke="#000000" stroke-opacity="1" stroke-width="6"/>
<circle clip-path="url(#clip602)" cx="2735.21" cy="692.101" r="21.6" fill="#ff0000" fill-rule="evenodd" fill-opacity="1" stroke="#000000" stroke-opacity="1" stroke-width="6"/>
<polyline clip-path="url(#clip602)" style="stroke:#0000ff; stroke-linecap:round; stroke-linejoin:round; stroke-width:8; stroke-opacity:1; fill:none" points="396.023,1716.64 409.827,1165.9 423.632,1052.38 437.436,1033.54 451.241,1035.14 465.046,1041.1 478.85,1047.95 492.655,1054.92 506.459,1061.84 520.264,1068.68 534.069,1075.42 547.873,1082.06 561.678,1088.59 575.483,1094.99 589.287,1101.27 603.092,1107.42 616.896,1113.41 630.701,1119.26 644.506,1124.93 658.31,1130.43 672.115,1135.74 685.919,1140.84 699.724,1145.73 713.529,1150.39 727.333,1154.8 741.138,1158.95 754.942,1162.83 768.747,1166.42 782.552,1169.69 796.356,1172.65 810.161,1175.25 823.965,1177.5 837.77,1179.38 851.575,1180.85 865.379,1181.91 879.184,1182.54 892.988,1182.72 906.793,1182.43 920.598,1181.66 934.402,1180.38 948.207,1178.59 962.011,1176.25 975.816,1173.36 989.621,1169.91 1003.43,1165.87 1017.23,1161.23 1031.03,1155.99 1044.84,1150.12 1058.64,1143.62 1072.45,1136.48 1086.25,1128.7 1100.06,1120.26 1113.86,1111.16 1127.67,1101.4 1141.47,1090.99 1155.28,1079.91 1169.08,1068.18 1182.89,1055.81 1196.69,1042.79 1210.49,1029.15 1224.3,1014.9 1238.1,1000.04 1251.91,984.608 1265.71,968.618 1279.52,952.095 1293.32,935.063 1307.13,917.555 1320.93,899.602 1334.74,881.237 1348.54,862.499 1362.35,843.424 1376.15,824.055 1389.95,804.437 1403.76,784.612 1417.56,764.628 1431.37,744.534 1445.17,724.38 1458.98,704.214 1472.78,684.09 1486.59,664.059 1500.39,644.172 1514.2,624.482 1528,605.04 1541.8,585.898 1555.61,567.104 1569.41,548.709 1583.22,530.758 1597.02,513.296 1610.83,496.369 1624.63,480.015 1638.44,464.273 1652.24,449.178 1666.05,434.762 1679.85,421.055 1693.66,408.083 1707.46,395.866 1721.26,384.424 1735.07,373.772 1748.87,363.92 1762.68,354.878 1776.48,346.648 1790.29,339.232 1804.09,332.625 1817.9,326.822 1831.7,321.813 1845.51,317.586 1859.31,314.125 1873.12,311.413 1886.92,309.428 1900.72,308.149 1914.53,307.552 1928.33,307.61 1942.14,308.295 1955.94,309.579 1969.75,311.433 1983.55,313.827 1997.36,316.731 2011.16,320.114 2024.97,323.945 2038.77,328.195 2052.58,332.834 2066.38,337.833 2080.18,343.163 2093.99,348.798 2107.79,354.71 2121.6,360.875 2135.4,367.268 2149.21,373.867 2163.01,380.65 2176.82,387.597 2190.62,394.688 2204.43,401.906 2218.23,409.235 2232.04,416.659 2245.84,424.164 2259.64,431.737 2273.45,439.367 2287.25,447.043 2301.06,454.755 2314.86,462.494 2328.67,470.252 2342.47,478.024 2356.28,485.8 2370.08,493.577 2383.89,501.349 2397.69,509.112 2411.5,516.861 2425.3,524.593 2439.1,532.306 2452.91,539.996 2466.71,547.66 2480.52,555.298 2494.32,562.906 2508.13,570.484 2521.93,578.029 2535.74,585.541 2549.54,593.019 2563.35,600.461 2577.15,607.868 2590.96,615.237 2604.76,622.57 2618.56,629.864 2632.37,637.12 2646.17,644.337 2659.98,651.516 2673.78,658.655 2687.59,665.754 2701.39,672.814 2715.2,679.833 2729,686.813 2742.81,693.752 2756.61,700.651 2770.41,707.51 2784.22,714.329 2798.02,721.107 2811.83,727.844 2825.63,734.542 2839.44,741.199 2853.24,747.816 2867.05,754.392 2880.85,760.929 2894.66,767.425 2908.46,773.882 2922.27,780.298 2936.07,786.675 2949.87,793.012 2963.68,799.308 2977.48,805.566 2991.29,811.784 3005.09,817.963 3011.31,820.731 "/>
<path clip-path="url(#clip600)" d="M2481.59 332.61 Q2475.86 332.61 2472.47 336.881 Q2469.11 341.152 2469.11 348.521 Q2469.11 355.865 2472.47 360.136 Q2475.86 364.407 2481.59 364.407 Q2487.32 364.407 2490.65 360.136 Q2494.01 355.865 2494.01 348.521 Q2494.01 341.152 2490.65 336.881 Q2487.32 332.61 2481.59 332.61 M2481.59 328.339 Q2489.76 328.339 2494.66 333.834 Q2499.55 339.303 2499.55 348.521 Q2499.55 357.714 2494.66 363.209 Q2489.76 368.678 2481.59 368.678 Q2473.38 368.678 2468.46 363.209 Q2463.57 357.74 2463.57 348.521 Q2463.57 339.303 2468.46 333.834 Q2473.38 328.339 2481.59 328.339 Z" fill="#000000" fill-rule="nonzero" fill-opacity="1" /><path clip-path="url(#clip600)" d="M2513.04 333.365 L2513.04 363.6 L2519.4 363.6 Q2527.45 363.6 2531.17 359.954 Q2534.92 356.308 2534.92 348.443 Q2534.92 340.631 2531.17 337.011 Q2527.45 333.365 2519.4 333.365 L2513.04 333.365 M2507.78 329.042 L2518.59 329.042 Q2529.89 329.042 2535.18 333.756 Q2540.47 338.443 2540.47 348.443 Q2540.47 358.495 2535.15 363.209 Q2529.84 367.922 2518.59 367.922 L2507.78 367.922 L2507.78 329.042 Z" fill="#000000" fill-rule="nonzero" fill-opacity="1" /><path clip-path="url(#clip600)" d="M2548.85 329.042 L2573.43 329.042 L2573.43 333.469 L2554.11 333.469 L2554.11 344.98 L2572.63 344.98 L2572.63 349.407 L2554.11 349.407 L2554.11 363.495 L2573.9 363.495 L2573.9 367.922 L2548.85 367.922 L2548.85 329.042 Z" fill="#000000" fill-rule="nonzero" fill-opacity="1" /><path clip-path="url(#clip600)" d="M2599.5 329.042 L2607.34 329.042 L2617.26 355.501 L2627.24 329.042 L2635.08 329.042 L2635.08 367.922 L2629.94 367.922 L2629.94 333.782 L2619.92 360.448 L2614.63 360.448 L2604.61 333.782 L2604.61 367.922 L2599.5 367.922 L2599.5 329.042 Z" fill="#000000" fill-rule="nonzero" fill-opacity="1" /><path clip-path="url(#clip600)" d="M2656.61 342.115 Q2652.76 342.115 2650.52 345.136 Q2648.28 348.131 2648.28 353.365 Q2648.28 358.6 2650.49 361.62 Q2652.73 364.615 2656.61 364.615 Q2660.44 364.615 2662.68 361.594 Q2664.92 358.573 2664.92 353.365 Q2664.92 348.183 2662.68 345.162 Q2660.44 342.115 2656.61 342.115 M2656.61 338.053 Q2662.86 338.053 2666.43 342.115 Q2670 346.178 2670 353.365 Q2670 360.527 2666.43 364.615 Q2662.86 368.678 2656.61 368.678 Q2650.34 368.678 2646.77 364.615 Q2643.23 360.527 2643.23 353.365 Q2643.23 346.178 2646.77 342.115 Q2650.34 338.053 2656.61 338.053 Z" fill="#000000" fill-rule="nonzero" fill-opacity="1" /><path clip-path="url(#clip600)" d="M2697.13 343.183 L2697.13 327.402 L2701.92 327.402 L2701.92 367.922 L2697.13 367.922 L2697.13 363.547 Q2695.62 366.152 2693.3 367.428 Q2691.01 368.678 2687.78 368.678 Q2682.5 368.678 2679.16 364.459 Q2675.86 360.24 2675.86 353.365 Q2675.86 346.49 2679.16 342.271 Q2682.5 338.053 2687.78 338.053 Q2691.01 338.053 2693.3 339.329 Q2695.62 340.579 2697.13 343.183 M2680.8 353.365 Q2680.8 358.652 2682.97 361.672 Q2685.15 364.667 2688.96 364.667 Q2692.76 364.667 2694.94 361.672 Q2697.13 358.652 2697.13 353.365 Q2697.13 348.079 2694.94 345.084 Q2692.76 342.063 2688.96 342.063 Q2685.15 342.063 2682.97 345.084 Q2680.8 348.079 2680.8 353.365 Z" fill="#000000" fill-rule="nonzero" fill-opacity="1" /><path clip-path="url(#clip600)" d="M2736.74 352.141 L2736.74 354.485 L2714.71 354.485 Q2715.02 359.433 2717.68 362.037 Q2720.36 364.615 2725.13 364.615 Q2727.89 364.615 2730.47 363.938 Q2733.07 363.261 2735.62 361.907 L2735.62 366.438 Q2733.04 367.532 2730.34 368.105 Q2727.63 368.678 2724.84 368.678 Q2717.86 368.678 2713.77 364.615 Q2709.71 360.553 2709.71 353.626 Q2709.71 346.464 2713.56 342.271 Q2717.44 338.053 2724.01 338.053 Q2729.89 338.053 2733.3 341.855 Q2736.74 345.631 2736.74 352.141 M2731.95 350.735 Q2731.9 346.803 2729.74 344.459 Q2727.6 342.115 2724.06 342.115 Q2720.05 342.115 2717.63 344.381 Q2715.23 346.646 2714.87 350.761 L2731.95 350.735 Z" fill="#000000" fill-rule="nonzero" fill-opacity="1" /><path clip-path="url(#clip600)" d="M2744.61 327.402 L2749.4 327.402 L2749.4 367.922 L2744.61 367.922 L2744.61 327.402 Z" fill="#000000" fill-rule="nonzero" fill-opacity="1" /><path clip-path="url(#clip600)" d="M2395.47 397.935 L2395.47 402.466 Q2393.44 401.425 2391.25 400.904 Q2389.06 400.383 2386.72 400.383 Q2383.15 400.383 2381.35 401.477 Q2379.58 402.571 2379.58 404.758 Q2379.58 406.425 2380.86 407.388 Q2382.13 408.326 2385.99 409.185 L2387.63 409.55 Q2392.73 410.644 2394.87 412.649 Q2397.03 414.628 2397.03 418.196 Q2397.03 422.258 2393.8 424.628 Q2390.6 426.998 2384.97 426.998 Q2382.63 426.998 2380.08 426.529 Q2377.55 426.086 2374.74 425.175 L2374.74 420.227 Q2377.39 421.607 2379.97 422.31 Q2382.55 422.987 2385.08 422.987 Q2388.46 422.987 2390.28 421.841 Q2392.11 420.67 2392.11 418.56 Q2392.11 416.607 2390.78 415.565 Q2389.48 414.524 2385.02 413.56 L2383.36 413.17 Q2378.9 412.232 2376.93 410.305 Q2374.95 408.352 2374.95 404.966 Q2374.95 400.852 2377.86 398.612 Q2380.78 396.373 2386.14 396.373 Q2388.8 396.373 2391.14 396.763 Q2393.49 397.154 2395.47 397.935 Z" fill="#000000" fill-rule="nonzero" fill-opacity="1" /><path clip-path="url(#clip600)" d="M2404.87 387.362 L2412.71 387.362 L2422.63 413.821 L2432.6 387.362 L2440.44 387.362 L2440.44 426.242 L2435.31 426.242 L2435.31 392.102 L2425.28 418.768 L2420 418.768 L2409.97 392.102 L2409.97 426.242 L2404.87 426.242 L2404.87 387.362 Z" fill="#000000" fill-rule="nonzero" fill-opacity="1" /><path clip-path="url(#clip600)" d="M2463.88 392.545 L2456.74 411.894 L2471.04 411.894 L2463.88 392.545 M2460.91 387.362 L2466.87 387.362 L2481.69 426.242 L2476.22 426.242 L2472.68 416.268 L2455.15 416.268 L2451.61 426.242 L2446.07 426.242 L2460.91 387.362 Z" fill="#000000" fill-rule="nonzero" fill-opacity="1" /><path clip-path="url(#clip600)" d="M2492.63 391.685 L2492.63 406.295 L2499.24 406.295 Q2502.91 406.295 2504.92 404.394 Q2506.92 402.493 2506.92 398.977 Q2506.92 395.487 2504.92 393.586 Q2502.91 391.685 2499.24 391.685 L2492.63 391.685 M2487.37 387.362 L2499.24 387.362 Q2505.78 387.362 2509.11 390.331 Q2512.47 393.274 2512.47 398.977 Q2512.47 404.732 2509.11 407.675 Q2505.78 410.617 2499.24 410.617 L2492.63 410.617 L2492.63 426.242 L2487.37 426.242 L2487.37 387.362 Z" fill="#000000" fill-rule="nonzero" fill-opacity="1" /><path clip-path="url(#clip600)" d="M2519.53 387.362 L2544.11 387.362 L2544.11 391.789 L2524.79 391.789 L2524.79 403.3 L2543.3 403.3 L2543.3 407.727 L2524.79 407.727 L2524.79 421.815 L2544.58 421.815 L2544.58 426.242 L2519.53 426.242 L2519.53 387.362 Z" fill="#000000" fill-rule="nonzero" fill-opacity="1" /><path clip-path="url(#clip600)" d="M2554.24 419.628 L2559.74 419.628 L2559.74 426.242 L2554.24 426.242 L2554.24 419.628 M2554.24 398.664 L2559.74 398.664 L2559.74 405.279 L2554.24 405.279 L2554.24 398.664 Z" fill="#000000" fill-rule="nonzero" fill-opacity="1" /><path clip-path="url(#clip600)" d="M2588.67 387.362 L2609.32 387.362 L2609.32 391.789 L2593.49 391.789 L2593.49 401.321 Q2594.63 400.93 2595.78 400.748 Q2596.92 400.539 2598.07 400.539 Q2604.58 400.539 2608.38 404.107 Q2612.18 407.675 2612.18 413.769 Q2612.18 420.045 2608.28 423.534 Q2604.37 426.998 2597.26 426.998 Q2594.81 426.998 2592.26 426.581 Q2589.74 426.164 2587.03 425.331 L2587.03 420.045 Q2589.37 421.321 2591.87 421.946 Q2594.37 422.571 2597.16 422.571 Q2601.66 422.571 2604.29 420.201 Q2606.92 417.831 2606.92 413.769 Q2606.92 409.706 2604.29 407.336 Q2601.66 404.966 2597.16 404.966 Q2595.05 404.966 2592.94 405.435 Q2590.86 405.904 2588.67 406.894 L2588.67 387.362 Z" fill="#000000" fill-rule="nonzero" fill-opacity="1" /><path clip-path="url(#clip600)" d="M2622.55 419.628 L2628.04 419.628 L2628.04 426.242 L2622.55 426.242 L2622.55 419.628 Z" fill="#000000" fill-rule="nonzero" fill-opacity="1" /><path clip-path="url(#clip600)" d="M2655.44 405.279 Q2659.22 406.086 2661.32 408.638 Q2663.46 411.19 2663.46 414.94 Q2663.46 420.696 2659.5 423.847 Q2655.54 426.998 2648.25 426.998 Q2645.8 426.998 2643.2 426.503 Q2640.62 426.034 2637.86 425.071 L2637.86 419.992 Q2640.05 421.268 2642.65 421.92 Q2645.26 422.571 2648.1 422.571 Q2653.04 422.571 2655.62 420.617 Q2658.23 418.664 2658.23 414.94 Q2658.23 411.503 2655.8 409.576 Q2653.41 407.623 2649.11 407.623 L2644.58 407.623 L2644.58 403.3 L2649.32 403.3 Q2653.2 403.3 2655.26 401.763 Q2657.31 400.201 2657.31 397.284 Q2657.31 394.289 2655.18 392.701 Q2653.07 391.086 2649.11 391.086 Q2646.95 391.086 2644.48 391.555 Q2642 392.024 2639.03 393.013 L2639.03 388.326 Q2642.03 387.493 2644.63 387.076 Q2647.26 386.659 2649.58 386.659 Q2655.57 386.659 2659.06 389.394 Q2662.55 392.102 2662.55 396.737 Q2662.55 399.966 2660.7 402.206 Q2658.85 404.42 2655.44 405.279 Z" fill="#000000" fill-rule="nonzero" fill-opacity="1" /><path clip-path="url(#clip600)" d="M2685.34 404.706 Q2681.79 404.706 2679.71 407.128 Q2677.65 409.55 2677.65 413.769 Q2677.65 417.961 2679.71 420.409 Q2681.79 422.831 2685.34 422.831 Q2688.88 422.831 2690.93 420.409 Q2693.02 417.961 2693.02 413.769 Q2693.02 409.55 2690.93 407.128 Q2688.88 404.706 2685.34 404.706 M2695.78 388.222 L2695.78 393.013 Q2693.8 392.076 2691.77 391.581 Q2689.76 391.086 2687.78 391.086 Q2682.57 391.086 2679.81 394.602 Q2677.08 398.118 2676.69 405.227 Q2678.23 402.961 2680.54 401.763 Q2682.86 400.539 2685.65 400.539 Q2691.51 400.539 2694.89 404.107 Q2698.3 407.649 2698.3 413.769 Q2698.3 419.758 2694.76 423.378 Q2691.22 426.998 2685.34 426.998 Q2678.59 426.998 2675.02 421.841 Q2671.46 416.659 2671.46 406.841 Q2671.46 397.623 2675.83 392.154 Q2680.21 386.659 2687.57 386.659 Q2689.55 386.659 2691.56 387.05 Q2693.59 387.441 2695.78 388.222 Z" fill="#000000" fill-rule="nonzero" fill-opacity="1" /><path clip-path="url(#clip600)" d="M2740.44 409.133 Q2738.17 409.133 2736.87 411.06 Q2735.6 412.987 2735.6 416.425 Q2735.6 419.81 2736.87 421.763 Q2738.17 423.69 2740.44 423.69 Q2742.65 423.69 2743.93 421.763 Q2745.23 419.81 2745.23 416.425 Q2745.23 413.013 2743.93 411.086 Q2742.65 409.133 2740.44 409.133 M2740.44 405.826 Q2744.55 405.826 2746.98 408.69 Q2749.4 411.555 2749.4 416.425 Q2749.4 421.295 2746.95 424.159 Q2744.53 426.998 2740.44 426.998 Q2736.27 426.998 2733.85 424.159 Q2731.43 421.295 2731.43 416.425 Q2731.43 411.529 2733.85 408.69 Q2736.3 405.826 2740.44 405.826 M2713.56 389.967 Q2711.32 389.967 2710.02 391.92 Q2708.75 393.847 2708.75 397.232 Q2708.75 400.67 2710.02 402.597 Q2711.3 404.524 2713.56 404.524 Q2715.83 404.524 2717.11 402.597 Q2718.41 400.67 2718.41 397.232 Q2718.41 393.873 2717.11 391.92 Q2715.8 389.967 2713.56 389.967 M2737.08 386.659 L2741.25 386.659 L2716.92 426.998 L2712.76 426.998 L2737.08 386.659 M2713.56 386.659 Q2717.68 386.659 2720.13 389.524 Q2722.57 392.362 2722.57 397.232 Q2722.57 402.154 2720.13 404.993 Q2717.7 407.831 2713.56 407.831 Q2709.42 407.831 2707 404.993 Q2704.61 402.128 2704.61 397.232 Q2704.61 392.388 2707.03 389.524 Q2709.45 386.659 2713.56 386.659 Z" fill="#000000" fill-rule="nonzero" fill-opacity="1" /><path clip-path="url(#clip600)" d="M2374.19 466.333 Q2375.88 466.906 2377.47 468.781 Q2379.09 470.656 2380.7 473.937 L2386.04 484.562 L2380.39 484.562 L2375.42 474.588 Q2373.49 470.682 2371.67 469.406 Q2369.87 468.13 2366.74 468.13 L2361.01 468.13 L2361.01 484.562 L2355.75 484.562 L2355.75 445.682 L2367.63 445.682 Q2374.3 445.682 2377.58 448.469 Q2380.86 451.255 2380.86 456.88 Q2380.86 460.552 2379.14 462.974 Q2377.45 465.396 2374.19 466.333 M2361.01 450.005 L2361.01 463.807 L2367.63 463.807 Q2371.43 463.807 2373.36 462.063 Q2375.31 460.292 2375.31 456.88 Q2375.31 453.469 2373.36 451.75 Q2371.43 450.005 2367.63 450.005 L2361.01 450.005 Z" fill="#000000" fill-rule="nonzero" fill-opacity="1" /><path clip-path="url(#clip600)" d="M2392.81 445.682 L2400.65 445.682 L2410.57 472.141 L2420.55 445.682 L2428.38 445.682 L2428.38 484.562 L2423.25 484.562 L2423.25 450.422 L2413.23 477.088 L2407.94 477.088 L2397.91 450.422 L2397.91 484.562 L2392.81 484.562 L2392.81 445.682 Z" fill="#000000" fill-rule="nonzero" fill-opacity="1" /><path clip-path="url(#clip600)" d="M2462.13 446.958 L2462.13 452.089 Q2459.14 450.656 2456.48 449.953 Q2453.83 449.25 2451.35 449.25 Q2447.06 449.25 2444.71 450.917 Q2442.39 452.583 2442.39 455.656 Q2442.39 458.234 2443.93 459.563 Q2445.49 460.865 2449.82 461.672 L2452.99 462.323 Q2458.88 463.443 2461.66 466.281 Q2464.48 469.094 2464.48 473.833 Q2464.48 479.484 2460.67 482.401 Q2456.9 485.318 2449.58 485.318 Q2446.82 485.318 2443.7 484.693 Q2440.6 484.068 2437.26 482.844 L2437.26 477.427 Q2440.47 479.224 2443.54 480.135 Q2446.61 481.047 2449.58 481.047 Q2454.09 481.047 2456.53 479.276 Q2458.98 477.505 2458.98 474.224 Q2458.98 471.359 2457.21 469.745 Q2455.47 468.13 2451.46 467.323 L2448.25 466.698 Q2442.37 465.526 2439.74 463.026 Q2437.11 460.526 2437.11 456.073 Q2437.11 450.917 2440.73 447.948 Q2444.37 444.979 2450.75 444.979 Q2453.49 444.979 2456.33 445.474 Q2459.16 445.969 2462.13 446.958 Z" fill="#000000" fill-rule="nonzero" fill-opacity="1" /><path clip-path="url(#clip600)" d="M2472.68 445.682 L2477.94 445.682 L2477.94 480.135 L2496.87 480.135 L2496.87 484.562 L2472.68 484.562 L2472.68 445.682 Z" fill="#000000" fill-rule="nonzero" fill-opacity="1" /><path clip-path="url(#clip600)" d="M2502.39 445.682 L2526.98 445.682 L2526.98 450.109 L2507.65 450.109 L2507.65 461.62 L2526.17 461.62 L2526.17 466.047 L2507.65 466.047 L2507.65 480.135 L2527.45 480.135 L2527.45 484.562 L2502.39 484.562 L2502.39 445.682 Z" fill="#000000" fill-rule="nonzero" fill-opacity="1" /><path clip-path="url(#clip600)" d="M2537.11 477.948 L2542.6 477.948 L2542.6 484.562 L2537.11 484.562 L2537.11 477.948 M2537.11 456.984 L2542.6 456.984 L2542.6 463.599 L2537.11 463.599 L2537.11 456.984 Z" fill="#000000" fill-rule="nonzero" fill-opacity="1" /><path clip-path="url(#clip600)" d="M2582.73 449.146 Q2578.67 449.146 2576.61 453.156 Q2574.58 457.141 2574.58 465.161 Q2574.58 473.156 2576.61 477.167 Q2578.67 481.151 2582.73 481.151 Q2586.82 481.151 2588.85 477.167 Q2590.91 473.156 2590.91 465.161 Q2590.91 457.141 2588.85 453.156 Q2586.82 449.146 2582.73 449.146 M2582.73 444.979 Q2589.27 444.979 2592.71 450.162 Q2596.17 455.318 2596.17 465.161 Q2596.17 474.979 2592.71 480.161 Q2589.27 485.318 2582.73 485.318 Q2576.2 485.318 2572.73 480.161 Q2569.29 474.979 2569.29 465.161 Q2569.29 455.318 2572.73 450.162 Q2576.2 444.979 2582.73 444.979 Z" fill="#000000" fill-rule="nonzero" fill-opacity="1" /><path clip-path="url(#clip600)" d="M2605.41 477.948 L2610.91 477.948 L2610.91 484.562 L2605.41 484.562 L2605.41 477.948 Z" fill="#000000" fill-rule="nonzero" fill-opacity="1" /><path clip-path="url(#clip600)" d="M2633.62 449.146 Q2629.55 449.146 2627.5 453.156 Q2625.47 457.141 2625.47 465.161 Q2625.47 473.156 2627.5 477.167 Q2629.55 481.151 2633.62 481.151 Q2637.71 481.151 2639.74 477.167 Q2641.79 473.156 2641.79 465.161 Q2641.79 457.141 2639.74 453.156 Q2637.71 449.146 2633.62 449.146 M2633.62 444.979 Q2640.15 444.979 2643.59 450.162 Q2647.05 455.318 2647.05 465.161 Q2647.05 474.979 2643.59 480.161 Q2640.15 485.318 2633.62 485.318 Q2627.08 485.318 2623.62 480.161 Q2620.18 474.979 2620.18 465.161 Q2620.18 455.318 2623.62 450.162 Q2627.08 444.979 2633.62 444.979 Z" fill="#000000" fill-rule="nonzero" fill-opacity="1" /><path clip-path="url(#clip600)" d="M2672.24 463.599 Q2676.01 464.406 2678.12 466.958 Q2680.26 469.51 2680.26 473.26 Q2680.26 479.016 2676.3 482.167 Q2672.34 485.318 2665.05 485.318 Q2662.6 485.318 2660 484.823 Q2657.42 484.354 2654.66 483.391 L2654.66 478.312 Q2656.85 479.588 2659.45 480.24 Q2662.05 480.891 2664.89 480.891 Q2669.84 480.891 2672.42 478.937 Q2675.02 476.984 2675.02 473.26 Q2675.02 469.823 2672.6 467.896 Q2670.21 465.943 2665.91 465.943 L2661.38 465.943 L2661.38 461.62 L2666.12 461.62 Q2670 461.62 2672.05 460.083 Q2674.11 458.521 2674.11 455.604 Q2674.11 452.609 2671.98 451.021 Q2669.87 449.406 2665.91 449.406 Q2663.75 449.406 2661.27 449.875 Q2658.8 450.344 2655.83 451.333 L2655.83 446.646 Q2658.82 445.813 2661.43 445.396 Q2664.06 444.979 2666.38 444.979 Q2672.37 444.979 2675.86 447.714 Q2679.35 450.422 2679.35 455.057 Q2679.35 458.286 2677.5 460.526 Q2675.65 462.74 2672.24 463.599 Z" fill="#000000" fill-rule="nonzero" fill-opacity="1" /><path clip-path="url(#clip600)" d="M2704.68 450.266 L2691.4 471.021 L2704.68 471.021 L2704.68 450.266 M2703.3 445.682 L2709.92 445.682 L2709.92 471.021 L2715.47 471.021 L2715.47 475.396 L2709.92 475.396 L2709.92 484.562 L2704.68 484.562 L2704.68 475.396 L2687.13 475.396 L2687.13 470.318 L2703.3 445.682 Z" fill="#000000" fill-rule="nonzero" fill-opacity="1" /><path clip-path="url(#clip600)" d="M2738.62 450.266 L2725.34 471.021 L2738.62 471.021 L2738.62 450.266 M2737.24 445.682 L2743.85 445.682 L2743.85 471.021 L2749.4 471.021 L2749.4 475.396 L2743.85 475.396 L2743.85 484.562 L2738.62 484.562 L2738.62 475.396 L2721.06 475.396 L2721.06 470.318 L2737.24 445.682 Z" fill="#000000" fill-rule="nonzero" fill-opacity="1" /></svg>
