<?xml version="1.0" encoding="utf-8"?>
<svg xmlns="http://www.w3.org/2000/svg" xmlns:xlink="http://www.w3.org/1999/xlink" width="600" height="400" viewBox="0 0 2400 1600">
<defs>
  <clipPath id="clip150">
    <rect x="0" y="0" width="2400" height="1600"/>
  </clipPath>
</defs>
<path clip-path="url(#clip150)" d="M0 1600 L2400 1600 L2400 0 L0 0  Z" fill="#ffffff" fill-rule="evenodd" fill-opacity="1"/>
<defs>
  <clipPath id="clip151">
    <rect x="174" y="123" width="2180" height="1301"/>
  </clipPath>
</defs>
<path clip-path="url(#clip150)" d="M249.542 1423.18 L2352.76 1423.18 L2352.76 123.472 L249.542 123.472  Z" fill="#ffffff" fill-rule="evenodd" fill-opacity="1"/>
<defs>
  <clipPath id="clip152">
    <rect x="249" y="123" width="2104" height="1301"/>
  </clipPath>
</defs>
<polyline clip-path="url(#clip152)" style="stroke:#000000; stroke-linecap:round; stroke-linejoin:round; stroke-width:2; stroke-opacity:0.1; fill:none" points="297.395,1423.18 297.395,123.472 "/>
<polyline clip-path="url(#clip152)" style="stroke:#000000; stroke-linecap:round; stroke-linejoin:round; stroke-width:2; stroke-opacity:0.1; fill:none" points="880.973,1423.18 880.973,123.472 "/>
<polyline clip-path="url(#clip152)" style="stroke:#000000; stroke-linecap:round; stroke-linejoin:round; stroke-width:2; stroke-opacity:0.1; fill:none" points="1464.55,1423.18 1464.55,123.472 "/>
<polyline clip-path="url(#clip152)" style="stroke:#000000; stroke-linecap:round; stroke-linejoin:round; stroke-width:2; stroke-opacity:0.1; fill:none" points="2048.13,1423.18 2048.13,123.472 "/>
<polyline clip-path="url(#clip152)" style="stroke:#000000; stroke-linecap:round; stroke-linejoin:round; stroke-width:2; stroke-opacity:0.1; fill:none" points="249.542,1386.4 2352.76,1386.4 "/>
<polyline clip-path="url(#clip152)" style="stroke:#000000; stroke-linecap:round; stroke-linejoin:round; stroke-width:2; stroke-opacity:0.1; fill:none" points="249.542,1107.73 2352.76,1107.73 "/>
<polyline clip-path="url(#clip152)" style="stroke:#000000; stroke-linecap:round; stroke-linejoin:round; stroke-width:2; stroke-opacity:0.1; fill:none" points="249.542,829.06 2352.76,829.06 "/>
<polyline clip-path="url(#clip152)" style="stroke:#000000; stroke-linecap:round; stroke-linejoin:round; stroke-width:2; stroke-opacity:0.1; fill:none" points="249.542,550.392 2352.76,550.392 "/>
<polyline clip-path="url(#clip152)" style="stroke:#000000; stroke-linecap:round; stroke-linejoin:round; stroke-width:2; stroke-opacity:0.1; fill:none" points="249.542,271.724 2352.76,271.724 "/>
<polyline clip-path="url(#clip150)" style="stroke:#000000; stroke-linecap:round; stroke-linejoin:round; stroke-width:4; stroke-opacity:1; fill:none" points="249.542,1423.18 2352.76,1423.18 "/>
<polyline clip-path="url(#clip150)" style="stroke:#000000; stroke-linecap:round; stroke-linejoin:round; stroke-width:4; stroke-opacity:1; fill:none" points="297.395,1423.18 297.395,1404.28 "/>
<polyline clip-path="url(#clip150)" style="stroke:#000000; stroke-linecap:round; stroke-linejoin:round; stroke-width:4; stroke-opacity:1; fill:none" points="880.973,1423.18 880.973,1404.28 "/>
<polyline clip-path="url(#clip150)" style="stroke:#000000; stroke-linecap:round; stroke-linejoin:round; stroke-width:4; stroke-opacity:1; fill:none" points="1464.55,1423.18 1464.55,1404.28 "/>
<polyline clip-path="url(#clip150)" style="stroke:#000000; stroke-linecap:round; stroke-linejoin:round; stroke-width:4; stroke-opacity:1; fill:none" points="2048.13,1423.18 2048.13,1404.28 "/>
<path clip-path="url(#clip150)" d="M297.395 1454.1 Q293.784 1454.1 291.956 1457.66 Q290.15 1461.2 290.15 1468.33 Q290.15 1475.44 291.956 1479.01 Q293.784 1482.55 297.395 1482.55 Q301.03 1482.55 302.835 1479.01 Q304.664 1475.44 304.664 1468.33 Q304.664 1461.2 302.835 1457.66 Q301.03 1454.1 297.395 1454.1 M297.395 1450.39 Q303.206 1450.39 306.261 1455 Q309.34 1459.58 309.34 1468.33 Q309.34 1477.06 306.261 1481.67 Q303.206 1486.25 297.395 1486.25 Q291.585 1486.25 288.507 1481.67 Q285.451 1477.06 285.451 1468.33 Q285.451 1459.58 288.507 1455 Q291.585 1450.39 297.395 1450.39 Z" fill="#000000" fill-rule="nonzero" fill-opacity="1" /><path clip-path="url(#clip150)" d="M855.672 1451.02 L874.029 1451.02 L874.029 1454.96 L859.955 1454.96 L859.955 1463.43 Q860.973 1463.08 861.992 1462.92 Q863.01 1462.73 864.029 1462.73 Q869.816 1462.73 873.195 1465.9 Q876.575 1469.08 876.575 1474.49 Q876.575 1480.07 873.103 1483.17 Q869.631 1486.25 863.311 1486.25 Q861.135 1486.25 858.867 1485.88 Q856.621 1485.51 854.214 1484.77 L854.214 1480.07 Q856.297 1481.2 858.519 1481.76 Q860.742 1482.32 863.219 1482.32 Q867.223 1482.32 869.561 1480.21 Q871.899 1478.1 871.899 1474.49 Q871.899 1470.88 869.561 1468.77 Q867.223 1466.67 863.219 1466.67 Q861.344 1466.67 859.469 1467.08 Q857.617 1467.5 855.672 1468.38 L855.672 1451.02 Z" fill="#000000" fill-rule="nonzero" fill-opacity="1" /><path clip-path="url(#clip150)" d="M895.788 1454.1 Q892.177 1454.1 890.348 1457.66 Q888.542 1461.2 888.542 1468.33 Q888.542 1475.44 890.348 1479.01 Q892.177 1482.55 895.788 1482.55 Q899.422 1482.55 901.228 1479.01 Q903.056 1475.44 903.056 1468.33 Q903.056 1461.2 901.228 1457.66 Q899.422 1454.1 895.788 1454.1 M895.788 1450.39 Q901.598 1450.39 904.653 1455 Q907.732 1459.58 907.732 1468.33 Q907.732 1477.06 904.653 1481.67 Q901.598 1486.25 895.788 1486.25 Q889.978 1486.25 886.899 1481.67 Q883.843 1477.06 883.843 1468.33 Q883.843 1459.58 886.899 1455 Q889.978 1450.39 895.788 1450.39 Z" fill="#000000" fill-rule="nonzero" fill-opacity="1" /><path clip-path="url(#clip150)" d="M1424.16 1481.64 L1431.8 1481.64 L1431.8 1455.28 L1423.49 1456.95 L1423.49 1452.69 L1431.75 1451.02 L1436.43 1451.02 L1436.43 1481.64 L1444.06 1481.64 L1444.06 1485.58 L1424.16 1485.58 L1424.16 1481.64 Z" fill="#000000" fill-rule="nonzero" fill-opacity="1" /><path clip-path="url(#clip150)" d="M1463.51 1454.1 Q1459.9 1454.1 1458.07 1457.66 Q1456.26 1461.2 1456.26 1468.33 Q1456.26 1475.44 1458.07 1479.01 Q1459.9 1482.55 1463.51 1482.55 Q1467.14 1482.55 1468.95 1479.01 Q1470.78 1475.44 1470.78 1468.33 Q1470.78 1461.2 1468.95 1457.66 Q1467.14 1454.1 1463.51 1454.1 M1463.51 1450.39 Q1469.32 1450.39 1472.37 1455 Q1475.45 1459.58 1475.45 1468.33 Q1475.45 1477.06 1472.37 1481.67 Q1469.32 1486.25 1463.51 1486.25 Q1457.7 1486.25 1454.62 1481.67 Q1451.56 1477.06 1451.56 1468.33 Q1451.56 1459.58 1454.62 1455 Q1457.7 1450.39 1463.51 1450.39 Z" fill="#000000" fill-rule="nonzero" fill-opacity="1" /><path clip-path="url(#clip150)" d="M1493.67 1454.1 Q1490.06 1454.1 1488.23 1457.66 Q1486.43 1461.2 1486.43 1468.33 Q1486.43 1475.44 1488.23 1479.01 Q1490.06 1482.55 1493.67 1482.55 Q1497.31 1482.55 1499.11 1479.01 Q1500.94 1475.44 1500.94 1468.33 Q1500.94 1461.2 1499.11 1457.66 Q1497.31 1454.1 1493.67 1454.1 M1493.67 1450.39 Q1499.48 1450.39 1502.54 1455 Q1505.62 1459.58 1505.62 1468.33 Q1505.62 1477.06 1502.54 1481.67 Q1499.48 1486.25 1493.67 1486.25 Q1487.86 1486.25 1484.78 1481.67 Q1481.73 1477.06 1481.73 1468.33 Q1481.73 1459.58 1484.78 1455 Q1487.86 1450.39 1493.67 1450.39 Z" fill="#000000" fill-rule="nonzero" fill-opacity="1" /><path clip-path="url(#clip150)" d="M2007.74 1481.64 L2015.37 1481.64 L2015.37 1455.28 L2007.06 1456.95 L2007.06 1452.69 L2015.33 1451.02 L2020 1451.02 L2020 1481.64 L2027.64 1481.64 L2027.64 1485.58 L2007.74 1485.58 L2007.74 1481.64 Z" fill="#000000" fill-rule="nonzero" fill-opacity="1" /><path clip-path="url(#clip150)" d="M2037.13 1451.02 L2055.49 1451.02 L2055.49 1454.96 L2041.42 1454.96 L2041.42 1463.43 Q2042.43 1463.08 2043.45 1462.92 Q2044.47 1462.73 2045.49 1462.73 Q2051.28 1462.73 2054.66 1465.9 Q2058.04 1469.08 2058.04 1474.49 Q2058.04 1480.07 2054.56 1483.17 Q2051.09 1486.25 2044.77 1486.25 Q2042.6 1486.25 2040.33 1485.88 Q2038.08 1485.51 2035.67 1484.77 L2035.67 1480.07 Q2037.76 1481.2 2039.98 1481.76 Q2042.2 1482.32 2044.68 1482.32 Q2048.68 1482.32 2051.02 1480.21 Q2053.36 1478.1 2053.36 1474.49 Q2053.36 1470.88 2051.02 1468.77 Q2048.68 1466.67 2044.68 1466.67 Q2042.8 1466.67 2040.93 1467.08 Q2039.08 1467.5 2037.13 1468.38 L2037.13 1451.02 Z" fill="#000000" fill-rule="nonzero" fill-opacity="1" /><path clip-path="url(#clip150)" d="M2077.25 1454.1 Q2073.64 1454.1 2071.81 1457.66 Q2070 1461.2 2070 1468.33 Q2070 1475.44 2071.81 1479.01 Q2073.64 1482.55 2077.25 1482.55 Q2080.88 1482.55 2082.69 1479.01 Q2084.52 1475.44 2084.52 1468.33 Q2084.52 1461.2 2082.69 1457.66 Q2080.88 1454.1 2077.25 1454.1 M2077.25 1450.39 Q2083.06 1450.39 2086.11 1455 Q2089.19 1459.58 2089.19 1468.33 Q2089.19 1477.06 2086.11 1481.67 Q2083.06 1486.25 2077.25 1486.25 Q2071.44 1486.25 2068.36 1481.67 Q2065.3 1477.06 2065.3 1468.33 Q2065.3 1459.58 2068.36 1455 Q2071.44 1450.39 2077.25 1450.39 Z" fill="#000000" fill-rule="nonzero" fill-opacity="1" /><path clip-path="url(#clip150)" d="M1223.03 1520.52 L1263.23 1520.52 L1263.23 1525.93 L1246.36 1525.93 L1246.36 1568.04 L1239.89 1568.04 L1239.89 1525.93 L1223.03 1525.93 L1223.03 1520.52 Z" fill="#000000" fill-rule="nonzero" fill-opacity="1" /><path clip-path="url(#clip150)" d="M1267.17 1532.4 L1273.03 1532.4 L1273.03 1568.04 L1267.17 1568.04 L1267.17 1532.4 M1267.17 1518.52 L1273.03 1518.52 L1273.03 1525.93 L1267.17 1525.93 L1267.17 1518.52 Z" fill="#000000" fill-rule="nonzero" fill-opacity="1" /><path clip-path="url(#clip150)" d="M1313.04 1539.24 Q1315.23 1535.29 1318.29 1533.41 Q1321.34 1531.54 1325.48 1531.54 Q1331.05 1531.54 1334.08 1535.45 Q1337.1 1539.33 1337.1 1546.53 L1337.1 1568.04 L1331.21 1568.04 L1331.21 1546.72 Q1331.21 1541.59 1329.4 1539.11 Q1327.58 1536.63 1323.86 1536.63 Q1319.31 1536.63 1316.67 1539.65 Q1314.02 1542.68 1314.02 1547.9 L1314.02 1568.04 L1308.14 1568.04 L1308.14 1546.72 Q1308.14 1541.56 1306.32 1539.11 Q1304.51 1536.63 1300.72 1536.63 Q1296.23 1536.63 1293.59 1539.68 Q1290.95 1542.71 1290.95 1547.9 L1290.95 1568.04 L1285.06 1568.04 L1285.06 1532.4 L1290.95 1532.4 L1290.95 1537.93 Q1292.95 1534.66 1295.75 1533.1 Q1298.55 1531.54 1302.41 1531.54 Q1306.29 1531.54 1308.99 1533.51 Q1311.73 1535.48 1313.04 1539.24 Z" fill="#000000" fill-rule="nonzero" fill-opacity="1" /><path clip-path="url(#clip150)" d="M1379.27 1548.76 L1379.27 1551.62 L1352.35 1551.62 Q1352.73 1557.67 1355.97 1560.85 Q1359.25 1564 1365.08 1564 Q1368.45 1564 1371.6 1563.17 Q1374.78 1562.35 1377.9 1560.69 L1377.9 1566.23 Q1374.75 1567.57 1371.44 1568.27 Q1368.13 1568.97 1364.73 1568.97 Q1356.2 1568.97 1351.2 1564 Q1346.23 1559.04 1346.23 1550.57 Q1346.23 1541.82 1350.94 1536.69 Q1355.69 1531.54 1363.71 1531.54 Q1370.9 1531.54 1375.07 1536.18 Q1379.27 1540.8 1379.27 1548.76 M1373.42 1547.04 Q1373.35 1542.23 1370.71 1539.37 Q1368.1 1536.5 1363.77 1536.5 Q1358.87 1536.5 1355.91 1539.27 Q1352.98 1542.04 1352.54 1547.07 L1373.42 1547.04 Z" fill="#000000" fill-rule="nonzero" fill-opacity="1" /><polyline clip-path="url(#clip150)" style="stroke:#000000; stroke-linecap:round; stroke-linejoin:round; stroke-width:4; stroke-opacity:1; fill:none" points="249.542,1423.18 249.542,123.472 "/>
<polyline clip-path="url(#clip150)" style="stroke:#000000; stroke-linecap:round; stroke-linejoin:round; stroke-width:4; stroke-opacity:1; fill:none" points="249.542,1386.4 268.44,1386.4 "/>
<polyline clip-path="url(#clip150)" style="stroke:#000000; stroke-linecap:round; stroke-linejoin:round; stroke-width:4; stroke-opacity:1; fill:none" points="249.542,1107.73 268.44,1107.73 "/>
<polyline clip-path="url(#clip150)" style="stroke:#000000; stroke-linecap:round; stroke-linejoin:round; stroke-width:4; stroke-opacity:1; fill:none" points="249.542,829.06 268.44,829.06 "/>
<polyline clip-path="url(#clip150)" style="stroke:#000000; stroke-linecap:round; stroke-linejoin:round; stroke-width:4; stroke-opacity:1; fill:none" points="249.542,550.392 268.44,550.392 "/>
<polyline clip-path="url(#clip150)" style="stroke:#000000; stroke-linecap:round; stroke-linejoin:round; stroke-width:4; stroke-opacity:1; fill:none" points="249.542,271.724 268.44,271.724 "/>
<path clip-path="url(#clip150)" d="M126.205 1372.19 Q122.593 1372.19 120.765 1375.76 Q118.959 1379.3 118.959 1386.43 Q118.959 1393.54 120.765 1397.1 Q122.593 1400.64 126.205 1400.64 Q129.839 1400.64 131.644 1397.1 Q133.473 1393.54 133.473 1386.43 Q133.473 1379.3 131.644 1375.76 Q129.839 1372.19 126.205 1372.19 M126.205 1368.49 Q132.015 1368.49 135.07 1373.1 Q138.149 1377.68 138.149 1386.43 Q138.149 1395.16 135.07 1399.76 Q132.015 1404.35 126.205 1404.35 Q120.394 1404.35 117.316 1399.76 Q114.26 1395.16 114.26 1386.43 Q114.26 1377.68 117.316 1373.1 Q120.394 1368.49 126.205 1368.49 Z" fill="#000000" fill-rule="nonzero" fill-opacity="1" /><path clip-path="url(#clip150)" d="M146.366 1397.8 L151.251 1397.8 L151.251 1403.68 L146.366 1403.68 L146.366 1397.8 Z" fill="#000000" fill-rule="nonzero" fill-opacity="1" /><path clip-path="url(#clip150)" d="M171.436 1372.19 Q167.825 1372.19 165.996 1375.76 Q164.19 1379.3 164.19 1386.43 Q164.19 1393.54 165.996 1397.1 Q167.825 1400.64 171.436 1400.64 Q175.07 1400.64 176.876 1397.1 Q178.704 1393.54 178.704 1386.43 Q178.704 1379.3 176.876 1375.76 Q175.07 1372.19 171.436 1372.19 M171.436 1368.49 Q177.246 1368.49 180.301 1373.1 Q183.38 1377.68 183.38 1386.43 Q183.38 1395.16 180.301 1399.76 Q177.246 1404.35 171.436 1404.35 Q165.626 1404.35 162.547 1399.76 Q159.491 1395.16 159.491 1386.43 Q159.491 1377.68 162.547 1373.1 Q165.626 1368.49 171.436 1368.49 Z" fill="#000000" fill-rule="nonzero" fill-opacity="1" /><path clip-path="url(#clip150)" d="M201.598 1372.19 Q197.987 1372.19 196.158 1375.76 Q194.352 1379.3 194.352 1386.43 Q194.352 1393.54 196.158 1397.1 Q197.987 1400.64 201.598 1400.64 Q205.232 1400.64 207.037 1397.1 Q208.866 1393.54 208.866 1386.43 Q208.866 1379.3 207.037 1375.76 Q205.232 1372.19 201.598 1372.19 M201.598 1368.49 Q207.408 1368.49 210.463 1373.1 Q213.542 1377.68 213.542 1386.43 Q213.542 1395.16 210.463 1399.76 Q207.408 1404.35 201.598 1404.35 Q195.787 1404.35 192.709 1399.76 Q189.653 1395.16 189.653 1386.43 Q189.653 1377.68 192.709 1373.1 Q195.787 1368.49 201.598 1368.49 Z" fill="#000000" fill-rule="nonzero" fill-opacity="1" /><path clip-path="url(#clip150)" d="M127.2 1093.53 Q123.589 1093.53 121.76 1097.09 Q119.955 1100.63 119.955 1107.76 Q119.955 1114.87 121.76 1118.43 Q123.589 1121.98 127.2 1121.98 Q130.834 1121.98 132.64 1118.43 Q134.468 1114.87 134.468 1107.76 Q134.468 1100.63 132.64 1097.09 Q130.834 1093.53 127.2 1093.53 M127.2 1089.82 Q133.01 1089.82 136.066 1094.43 Q139.144 1099.01 139.144 1107.76 Q139.144 1116.49 136.066 1121.1 Q133.01 1125.68 127.2 1125.68 Q121.39 1125.68 118.311 1121.1 Q115.256 1116.49 115.256 1107.76 Q115.256 1099.01 118.311 1094.43 Q121.39 1089.82 127.2 1089.82 Z" fill="#000000" fill-rule="nonzero" fill-opacity="1" /><path clip-path="url(#clip150)" d="M147.362 1119.13 L152.246 1119.13 L152.246 1125.01 L147.362 1125.01 L147.362 1119.13 Z" fill="#000000" fill-rule="nonzero" fill-opacity="1" /><path clip-path="url(#clip150)" d="M172.431 1093.53 Q168.82 1093.53 166.991 1097.09 Q165.186 1100.63 165.186 1107.76 Q165.186 1114.87 166.991 1118.43 Q168.82 1121.98 172.431 1121.98 Q176.065 1121.98 177.871 1118.43 Q179.7 1114.87 179.7 1107.76 Q179.7 1100.63 177.871 1097.09 Q176.065 1093.53 172.431 1093.53 M172.431 1089.82 Q178.241 1089.82 181.297 1094.43 Q184.376 1099.01 184.376 1107.76 Q184.376 1116.49 181.297 1121.1 Q178.241 1125.68 172.431 1125.68 Q166.621 1125.68 163.542 1121.1 Q160.487 1116.49 160.487 1107.76 Q160.487 1099.01 163.542 1094.43 Q166.621 1089.82 172.431 1089.82 Z" fill="#000000" fill-rule="nonzero" fill-opacity="1" /><path clip-path="url(#clip150)" d="M192.639 1090.45 L210.996 1090.45 L210.996 1094.38 L196.922 1094.38 L196.922 1102.85 Q197.94 1102.51 198.959 1102.35 Q199.977 1102.16 200.996 1102.16 Q206.783 1102.16 210.162 1105.33 Q213.542 1108.5 213.542 1113.92 Q213.542 1119.5 210.07 1122.6 Q206.598 1125.68 200.278 1125.68 Q198.102 1125.68 195.834 1125.31 Q193.588 1124.94 191.181 1124.2 L191.181 1119.5 Q193.264 1120.63 195.487 1121.19 Q197.709 1121.74 200.186 1121.74 Q204.19 1121.74 206.528 1119.64 Q208.866 1117.53 208.866 1113.92 Q208.866 1110.31 206.528 1108.2 Q204.19 1106.1 200.186 1106.1 Q198.311 1106.1 196.436 1106.51 Q194.584 1106.93 192.639 1107.81 L192.639 1090.45 Z" fill="#000000" fill-rule="nonzero" fill-opacity="1" /><path clip-path="url(#clip150)" d="M126.205 814.858 Q122.593 814.858 120.765 818.423 Q118.959 821.965 118.959 829.094 Q118.959 836.201 120.765 839.766 Q122.593 843.307 126.205 843.307 Q129.839 843.307 131.644 839.766 Q133.473 836.201 133.473 829.094 Q133.473 821.965 131.644 818.423 Q129.839 814.858 126.205 814.858 M126.205 811.155 Q132.015 811.155 135.07 815.761 Q138.149 820.344 138.149 829.094 Q138.149 837.821 135.07 842.428 Q132.015 847.011 126.205 847.011 Q120.394 847.011 117.316 842.428 Q114.26 837.821 114.26 829.094 Q114.26 820.344 117.316 815.761 Q120.394 811.155 126.205 811.155 Z" fill="#000000" fill-rule="nonzero" fill-opacity="1" /><path clip-path="url(#clip150)" d="M146.366 840.46 L151.251 840.46 L151.251 846.34 L146.366 846.34 L146.366 840.46 Z" fill="#000000" fill-rule="nonzero" fill-opacity="1" /><path clip-path="url(#clip150)" d="M162.246 842.404 L169.885 842.404 L169.885 816.039 L161.575 817.705 L161.575 813.446 L169.839 811.78 L174.514 811.78 L174.514 842.404 L182.153 842.404 L182.153 846.34 L162.246 846.34 L162.246 842.404 Z" fill="#000000" fill-rule="nonzero" fill-opacity="1" /><path clip-path="url(#clip150)" d="M201.598 814.858 Q197.987 814.858 196.158 818.423 Q194.352 821.965 194.352 829.094 Q194.352 836.201 196.158 839.766 Q197.987 843.307 201.598 843.307 Q205.232 843.307 207.037 839.766 Q208.866 836.201 208.866 829.094 Q208.866 821.965 207.037 818.423 Q205.232 814.858 201.598 814.858 M201.598 811.155 Q207.408 811.155 210.463 815.761 Q213.542 820.344 213.542 829.094 Q213.542 837.821 210.463 842.428 Q207.408 847.011 201.598 847.011 Q195.787 847.011 192.709 842.428 Q189.653 837.821 189.653 829.094 Q189.653 820.344 192.709 815.761 Q195.787 811.155 201.598 811.155 Z" fill="#000000" fill-rule="nonzero" fill-opacity="1" /><path clip-path="url(#clip150)" d="M127.2 536.19 Q123.589 536.19 121.76 539.755 Q119.955 543.297 119.955 550.426 Q119.955 557.533 121.76 561.098 Q123.589 564.639 127.2 564.639 Q130.834 564.639 132.64 561.098 Q134.468 557.533 134.468 550.426 Q134.468 543.297 132.64 539.755 Q130.834 536.19 127.2 536.19 M127.2 532.487 Q133.01 532.487 136.066 537.093 Q139.144 541.676 139.144 550.426 Q139.144 559.153 136.066 563.76 Q133.01 568.343 127.2 568.343 Q121.39 568.343 118.311 563.76 Q115.256 559.153 115.256 550.426 Q115.256 541.676 118.311 537.093 Q121.39 532.487 127.2 532.487 Z" fill="#000000" fill-rule="nonzero" fill-opacity="1" /><path clip-path="url(#clip150)" d="M147.362 561.792 L152.246 561.792 L152.246 567.672 L147.362 567.672 L147.362 561.792 Z" fill="#000000" fill-rule="nonzero" fill-opacity="1" /><path clip-path="url(#clip150)" d="M163.241 563.736 L170.88 563.736 L170.88 537.371 L162.57 539.037 L162.57 534.778 L170.834 533.112 L175.51 533.112 L175.51 563.736 L183.149 563.736 L183.149 567.672 L163.241 567.672 L163.241 563.736 Z" fill="#000000" fill-rule="nonzero" fill-opacity="1" /><path clip-path="url(#clip150)" d="M192.639 533.112 L210.996 533.112 L210.996 537.047 L196.922 537.047 L196.922 545.519 Q197.94 545.172 198.959 545.01 Q199.977 544.824 200.996 544.824 Q206.783 544.824 210.162 547.996 Q213.542 551.167 213.542 556.584 Q213.542 562.162 210.07 565.264 Q206.598 568.343 200.278 568.343 Q198.102 568.343 195.834 567.972 Q193.588 567.602 191.181 566.861 L191.181 562.162 Q193.264 563.297 195.487 563.852 Q197.709 564.408 200.186 564.408 Q204.19 564.408 206.528 562.301 Q208.866 560.195 208.866 556.584 Q208.866 552.973 206.528 550.866 Q204.19 548.76 200.186 548.76 Q198.311 548.76 196.436 549.176 Q194.584 549.593 192.639 550.473 L192.639 533.112 Z" fill="#000000" fill-rule="nonzero" fill-opacity="1" /><path clip-path="url(#clip150)" d="M126.205 257.522 Q122.593 257.522 120.765 261.087 Q118.959 264.629 118.959 271.758 Q118.959 278.865 120.765 282.429 Q122.593 285.971 126.205 285.971 Q129.839 285.971 131.644 282.429 Q133.473 278.865 133.473 271.758 Q133.473 264.629 131.644 261.087 Q129.839 257.522 126.205 257.522 M126.205 253.819 Q132.015 253.819 135.07 258.425 Q138.149 263.008 138.149 271.758 Q138.149 280.485 135.07 285.092 Q132.015 289.675 126.205 289.675 Q120.394 289.675 117.316 285.092 Q114.26 280.485 114.26 271.758 Q114.26 263.008 117.316 258.425 Q120.394 253.819 126.205 253.819 Z" fill="#000000" fill-rule="nonzero" fill-opacity="1" /><path clip-path="url(#clip150)" d="M146.366 283.124 L151.251 283.124 L151.251 289.004 L146.366 289.004 L146.366 283.124 Z" fill="#000000" fill-rule="nonzero" fill-opacity="1" /><path clip-path="url(#clip150)" d="M165.464 285.068 L181.783 285.068 L181.783 289.004 L159.839 289.004 L159.839 285.068 Q162.501 282.314 167.084 277.684 Q171.69 273.031 172.871 271.689 Q175.116 269.166 175.996 267.43 Q176.899 265.67 176.899 263.981 Q176.899 261.226 174.954 259.49 Q173.033 257.754 169.931 257.754 Q167.732 257.754 165.278 258.518 Q162.848 259.281 160.07 260.832 L160.07 256.11 Q162.894 254.976 165.348 254.397 Q167.802 253.819 169.839 253.819 Q175.209 253.819 178.403 256.504 Q181.598 259.189 181.598 263.68 Q181.598 265.809 180.788 267.73 Q180.001 269.629 177.894 272.221 Q177.315 272.892 174.214 276.11 Q171.112 279.304 165.464 285.068 Z" fill="#000000" fill-rule="nonzero" fill-opacity="1" /><path clip-path="url(#clip150)" d="M201.598 257.522 Q197.987 257.522 196.158 261.087 Q194.352 264.629 194.352 271.758 Q194.352 278.865 196.158 282.429 Q197.987 285.971 201.598 285.971 Q205.232 285.971 207.037 282.429 Q208.866 278.865 208.866 271.758 Q208.866 264.629 207.037 261.087 Q205.232 257.522 201.598 257.522 M201.598 253.819 Q207.408 253.819 210.463 258.425 Q213.542 263.008 213.542 271.758 Q213.542 280.485 210.463 285.092 Q207.408 289.675 201.598 289.675 Q195.787 289.675 192.709 285.092 Q189.653 280.485 189.653 271.758 Q189.653 263.008 192.709 258.425 Q195.787 253.819 201.598 253.819 Z" fill="#000000" fill-rule="nonzero" fill-opacity="1" /><path clip-path="url(#clip150)" d="M20.1444 820.225 L26.9239 820.225 Q23.9002 823.472 22.4043 827.164 Q20.9083 830.824 20.9083 834.962 Q20.9083 843.11 25.9054 847.439 Q30.8707 851.767 40.2919 851.767 Q49.6813 851.767 54.6784 847.439 Q59.6436 843.11 59.6436 834.962 Q59.6436 830.824 58.1477 827.164 Q56.6518 823.472 53.6281 820.225 L60.3439 820.225 Q62.6355 823.599 63.7814 827.387 Q64.9272 831.143 64.9272 835.344 Q64.9272 846.134 58.3387 852.34 Q51.7183 858.547 40.2919 858.547 Q28.8336 858.547 22.2451 852.34 Q15.6248 846.134 15.6248 835.344 Q15.6248 831.079 16.7706 827.323 Q17.8846 823.535 20.1444 820.225 Z" fill="#000000" fill-rule="nonzero" fill-opacity="1" /><path clip-path="url(#clip150)" d="M16.4842 816.883 L16.4842 776.684 L21.895 776.684 L21.895 793.553 L64.0042 793.553 L64.0042 800.014 L21.895 800.014 L21.895 816.883 L16.4842 816.883 Z" fill="#000000" fill-rule="nonzero" fill-opacity="1" /><path clip-path="url(#clip150)" d="M16.4842 770.477 L16.4842 761.82 L56.238 740.749 L16.4842 740.749 L16.4842 734.511 L64.0042 734.511 L64.0042 743.168 L24.2503 764.239 L64.0042 764.239 L64.0042 770.477 L16.4842 770.477 Z" fill="#000000" fill-rule="nonzero" fill-opacity="1" /><path clip-path="url(#clip150)" d="M16.4842 728.305 L16.4842 688.105 L21.895 688.105 L21.895 704.974 L64.0042 704.974 L64.0042 711.435 L21.895 711.435 L21.895 728.305 L16.4842 728.305 Z" fill="#000000" fill-rule="nonzero" fill-opacity="1" /><path clip-path="url(#clip150)" d="M1052.65 18.8205 L1052.65 41.5461 L1062.94 41.5461 Q1068.65 41.5461 1071.77 38.5889 Q1074.89 35.6318 1074.89 30.163 Q1074.89 24.7348 1071.77 21.7777 Q1068.65 18.8205 1062.94 18.8205 L1052.65 18.8205 M1044.46 12.096 L1062.94 12.096 Q1073.1 12.096 1078.29 16.714 Q1083.51 21.2916 1083.51 30.163 Q1083.51 39.1155 1078.29 43.6931 Q1073.1 48.2706 1062.94 48.2706 L1052.65 48.2706 L1052.65 72.576 L1044.46 72.576 L1044.46 12.096 Z" fill="#000000" fill-rule="nonzero" fill-opacity="1" /><path clip-path="url(#clip150)" d="M1111.06 49.7694 Q1102.03 49.7694 1098.54 51.8354 Q1095.06 53.9013 1095.06 58.8839 Q1095.06 62.8538 1097.65 65.2034 Q1100.28 67.5124 1104.78 67.5124 Q1110.98 67.5124 1114.71 63.1374 Q1118.47 58.7219 1118.47 51.4303 L1118.47 49.7694 L1111.06 49.7694 M1125.93 46.6907 L1125.93 72.576 L1118.47 72.576 L1118.47 65.6895 Q1115.92 69.8214 1112.11 71.8063 Q1108.31 73.7508 1102.8 73.7508 Q1095.83 73.7508 1091.7 69.8619 Q1087.61 65.9325 1087.61 59.3701 Q1087.61 51.7138 1092.71 47.825 Q1097.85 43.9361 1108.02 43.9361 L1118.47 43.9361 L1118.47 43.2069 Q1118.47 38.0623 1115.07 35.2672 Q1111.71 32.4315 1105.59 32.4315 Q1101.7 32.4315 1098.02 33.3632 Q1094.33 34.295 1090.93 36.1584 L1090.93 29.2718 Q1095.02 27.692 1098.87 26.9223 Q1102.72 26.1121 1106.36 26.1121 Q1116.2 26.1121 1121.07 31.2163 Q1125.93 36.3204 1125.93 46.6907 Z" fill="#000000" fill-rule="nonzero" fill-opacity="1" /><path clip-path="url(#clip150)" d="M1148.65 14.324 L1148.65 27.2059 L1164.01 27.2059 L1164.01 32.9987 L1148.65 32.9987 L1148.65 57.6282 Q1148.65 63.1779 1150.15 64.7578 Q1151.69 66.3376 1156.35 66.3376 L1164.01 66.3376 L1164.01 72.576 L1156.35 72.576 Q1147.72 72.576 1144.44 69.3758 Q1141.16 66.1351 1141.16 57.6282 L1141.16 32.9987 L1135.69 32.9987 L1135.69 27.2059 L1141.16 27.2059 L1141.16 14.324 L1148.65 14.324 Z" fill="#000000" fill-rule="nonzero" fill-opacity="1" /><path clip-path="url(#clip150)" d="M1173.81 27.2059 L1181.26 27.2059 L1181.26 72.576 L1173.81 72.576 L1173.81 27.2059 M1173.81 9.54393 L1181.26 9.54393 L1181.26 18.9825 L1173.81 18.9825 L1173.81 9.54393 Z" fill="#000000" fill-rule="nonzero" fill-opacity="1" /><path clip-path="url(#clip150)" d="M1235.67 48.0275 L1235.67 51.6733 L1201.4 51.6733 Q1201.88 59.3701 1206.01 63.421 Q1210.19 67.4314 1217.6 67.4314 Q1221.89 67.4314 1225.9 66.3781 Q1229.95 65.3249 1233.92 63.2184 L1233.92 70.267 Q1229.91 71.9684 1225.7 72.8596 Q1221.49 73.7508 1217.15 73.7508 Q1206.3 73.7508 1199.94 67.4314 Q1193.62 61.1119 1193.62 50.3365 Q1193.62 39.1965 1199.61 32.6746 Q1205.65 26.1121 1215.86 26.1121 Q1225.01 26.1121 1230.32 32.0264 Q1235.67 37.9003 1235.67 48.0275 M1228.21 45.84 Q1228.13 39.7232 1224.77 36.0774 Q1221.45 32.4315 1215.94 32.4315 Q1209.7 32.4315 1205.93 35.9558 Q1202.21 39.4801 1201.64 45.8805 L1228.21 45.84 Z" fill="#000000" fill-rule="nonzero" fill-opacity="1" /><path clip-path="url(#clip150)" d="M1285.61 45.1919 L1285.61 72.576 L1278.16 72.576 L1278.16 45.4349 Q1278.16 38.994 1275.65 35.7938 Q1273.14 32.5936 1268.11 32.5936 Q1262.08 32.5936 1258.59 36.4419 Q1255.11 40.2903 1255.11 46.9338 L1255.11 72.576 L1247.62 72.576 L1247.62 27.2059 L1255.11 27.2059 L1255.11 34.2544 Q1257.78 30.163 1261.39 28.1376 Q1265.04 26.1121 1269.77 26.1121 Q1277.59 26.1121 1281.6 30.9732 Q1285.61 35.7938 1285.61 45.1919 Z" fill="#000000" fill-rule="nonzero" fill-opacity="1" /><path clip-path="url(#clip150)" d="M1307.85 14.324 L1307.85 27.2059 L1323.21 27.2059 L1323.21 32.9987 L1307.85 32.9987 L1307.85 57.6282 Q1307.85 63.1779 1309.35 64.7578 Q1310.89 66.3376 1315.55 66.3376 L1323.21 66.3376 L1323.21 72.576 L1315.55 72.576 Q1306.92 72.576 1303.64 69.3758 Q1300.36 66.1351 1300.36 57.6282 L1300.36 32.9987 L1294.89 32.9987 L1294.89 27.2059 L1300.36 27.2059 L1300.36 14.324 L1307.85 14.324 Z" fill="#000000" fill-rule="nonzero" fill-opacity="1" /><path clip-path="url(#clip150)" d="M1397.09 45.1919 L1397.09 72.576 L1389.64 72.576 L1389.64 45.4349 Q1389.64 38.994 1387.13 35.7938 Q1384.62 32.5936 1379.59 32.5936 Q1373.56 32.5936 1370.08 36.4419 Q1366.59 40.2903 1366.59 46.9338 L1366.59 72.576 L1359.1 72.576 L1359.1 27.2059 L1366.59 27.2059 L1366.59 34.2544 Q1369.26 30.163 1372.87 28.1376 Q1376.52 26.1121 1381.26 26.1121 Q1389.07 26.1121 1393.08 30.9732 Q1397.09 35.7938 1397.09 45.1919 Z" fill="#000000" fill-rule="nonzero" fill-opacity="1" /><path clip-path="url(#clip150)" d="M1435.5 19.2256 L1414.84 51.5113 L1435.5 51.5113 L1435.5 19.2256 M1433.35 12.096 L1443.64 12.096 L1443.64 51.5113 L1452.27 51.5113 L1452.27 58.3168 L1443.64 58.3168 L1443.64 72.576 L1435.5 72.576 L1435.5 58.3168 L1408.19 58.3168 L1408.19 50.4176 L1433.35 12.096 Z" fill="#000000" fill-rule="nonzero" fill-opacity="1" /><path clip-path="url(#clip150)" d="M1463.73 12.096 L1502.62 12.096 L1502.62 15.5798 L1480.66 72.576 L1472.12 72.576 L1492.78 18.9825 L1463.73 18.9825 L1463.73 12.096 Z" fill="#000000" fill-rule="nonzero" fill-opacity="1" /><path clip-path="url(#clip150)" d="M1541.06 19.2256 L1520.4 51.5113 L1541.06 51.5113 L1541.06 19.2256 M1538.92 12.096 L1549.21 12.096 L1549.21 51.5113 L1557.83 51.5113 L1557.83 58.3168 L1549.21 58.3168 L1549.21 72.576 L1541.06 72.576 L1541.06 58.3168 L1513.76 58.3168 L1513.76 50.4176 L1538.92 12.096 Z" fill="#000000" fill-rule="nonzero" fill-opacity="1" /><polyline clip-path="url(#clip152)" style="stroke:#009af9; stroke-linecap:round; stroke-linejoin:round; stroke-width:8; stroke-opacity:1; fill:none" points="309.067,1386.4 320.739,1386.23 332.41,1385.85 344.082,1385.06 355.753,1383.67 367.425,1381.51 379.096,1378.46 390.768,1374.47 402.439,1369.54 414.111,1363.69 425.782,1356.96 437.454,1349.42 449.126,1341.12 460.797,1332.12 472.469,1322.48 484.14,1312.26 495.812,1301.52 507.483,1290.29 519.155,1278.64 530.826,1266.61 542.498,1254.23 554.17,1241.56 565.841,1228.62 577.513,1215.45 589.184,1202.07 600.856,1188.53 612.527,1174.85 624.199,1161.05 635.87,1147.15 647.542,1133.18 659.214,1119.16 670.885,1105.11 682.557,1091.04 694.228,1076.97 705.9,1062.91 717.571,1048.88 729.243,1034.89 740.914,1020.95 752.586,1007.08 764.258,993.278 775.929,979.558 787.601,965.928 799.272,952.393 810.944,938.962 822.615,925.64 834.287,912.433 845.958,899.347 857.63,886.386 869.302,873.556 880.973,860.859 892.645,848.299 904.316,835.878 915.988,823.599 927.659,811.463 939.331,799.472 951.002,787.629 962.674,775.934 974.345,764.389 986.017,752.996 997.689,741.754 1009.36,730.666 1021.03,719.731 1032.7,708.951 1044.37,698.324 1056.05,687.851 1067.72,677.53 1079.39,667.362 1091.06,657.346 1102.73,647.48 1114.4,637.766 1126.08,628.2 1137.75,618.784 1149.42,609.517 1161.09,600.396 1172.76,591.423 1184.43,582.595 1196.1,573.913 1207.78,565.374 1219.45,556.979 1231.12,548.725 1242.79,540.611 1254.46,532.635 1266.13,524.797 1277.81,517.093 1289.48,509.524 1301.15,502.088 1312.82,494.783 1324.49,487.607 1336.16,480.56 1347.84,473.64 1359.51,466.845 1371.18,460.175 1382.85,453.628 1394.52,447.203 1406.19,440.898 1417.86,434.713 1429.54,428.645 1441.21,422.695 1452.88,416.859 1464.55,411.137 1476.22,405.527 1487.89,400.027 1499.57,394.637 1511.24,389.353 1522.91,384.176 1534.58,379.103 1546.25,374.134 1557.92,369.266 1569.59,364.499 1581.27,359.831 1592.94,355.26 1604.61,350.787 1616.28,346.408 1627.95,342.123 1639.62,337.932 1651.3,333.832 1662.97,329.822 1674.64,325.902 1686.31,322.07 1697.98,318.325 1709.65,314.666 1721.32,311.092 1733,307.602 1744.67,304.194 1756.34,300.868 1768.01,297.621 1779.68,294.453 1791.35,291.362 1803.03,288.348 1814.7,285.41 1826.37,282.546 1838.04,279.755 1849.71,277.036 1861.38,274.389 1873.06,271.811 1884.73,269.303 1896.4,266.862 1908.07,264.489 1919.74,262.182 1931.41,259.94 1943.08,257.763 1954.76,255.648 1966.43,253.597 1978.1,251.607 1989.77,249.677 2001.44,247.808 2013.11,245.997 2024.79,244.245 2036.46,242.551 2048.13,240.913 2059.8,239.33 2071.47,237.804 2083.14,236.331 2094.81,234.912 2106.49,233.546 2118.16,232.231 2129.83,230.967 2141.5,229.754 2153.17,228.59 2164.84,227.474 2176.52,226.407 2188.19,225.387 2199.86,224.413 2211.53,223.485 2223.2,222.603 2234.87,221.765 2246.54,220.971 2258.22,220.22 2269.89,219.512 2281.56,218.846 2293.23,218.591 "/>
<circle clip-path="url(#clip152)" cx="1153.5" cy="717.592" r="18" fill="#e26f46" fill-rule="evenodd" fill-opacity="1" stroke="#000000" stroke-opacity="1" stroke-width="3.2"/>
<circle clip-path="url(#clip152)" cx="1262.44" cy="383.191" r="18" fill="#e26f46" fill-rule="evenodd" fill-opacity="1" stroke="#000000" stroke-opacity="1" stroke-width="3.2"/>
<circle clip-path="url(#clip152)" cx="1517.27" cy="271.724" r="18" fill="#e26f46" fill-rule="evenodd" fill-opacity="1" stroke="#000000" stroke-opacity="1" stroke-width="3.2"/>
<circle clip-path="url(#clip152)" cx="1713.74" cy="383.191" r="18" fill="#e26f46" fill-rule="evenodd" fill-opacity="1" stroke="#000000" stroke-opacity="1" stroke-width="3.2"/>
<circle clip-path="url(#clip152)" cx="1993.86" cy="215.99" r="18" fill="#e26f46" fill-rule="evenodd" fill-opacity="1" stroke="#000000" stroke-opacity="1" stroke-width="3.2"/>
<circle clip-path="url(#clip152)" cx="2144.61" cy="160.256" r="18" fill="#e26f46" fill-rule="evenodd" fill-opacity="1" stroke="#000000" stroke-opacity="1" stroke-width="3.2"/>
<circle clip-path="url(#clip152)" cx="2274.56" cy="327.457" r="18" fill="#e26f46" fill-rule="evenodd" fill-opacity="1" stroke="#000000" stroke-opacity="1" stroke-width="3.2"/>
<path clip-path="url(#clip150)" d="M319.649 322.316 L914.205 322.316 L914.205 166.796 L319.649 166.796  Z" fill="#ffffff" fill-rule="evenodd" fill-opacity="1"/>
<polyline clip-path="url(#clip150)" style="stroke:#000000; stroke-linecap:round; stroke-linejoin:round; stroke-width:4; stroke-opacity:1; fill:none" points="319.649,322.316 914.205,322.316 914.205,166.796 319.649,166.796 319.649,322.316 "/>
<polyline clip-path="url(#clip150)" style="stroke:#009af9; stroke-linecap:round; stroke-linejoin:round; stroke-width:8; stroke-opacity:1; fill:none" points="343.018,218.636 483.232,218.636 "/>
<path clip-path="url(#clip150)" d="M506.602 201.356 L513.569 201.356 L522.388 224.874 L531.254 201.356 L538.222 201.356 L538.222 235.916 L533.662 235.916 L533.662 205.569 L524.75 229.272 L520.051 229.272 L511.139 205.569 L511.139 235.916 L506.602 235.916 L506.602 201.356 Z" fill="#000000" fill-rule="nonzero" fill-opacity="1" /><path clip-path="url(#clip150)" d="M557.365 212.976 Q553.939 212.976 551.948 215.661 Q549.958 218.323 549.958 222.976 Q549.958 227.629 551.925 230.314 Q553.916 232.976 557.365 232.976 Q560.768 232.976 562.759 230.291 Q564.749 227.606 564.749 222.976 Q564.749 218.37 562.759 215.684 Q560.768 212.976 557.365 212.976 M557.365 209.365 Q562.921 209.365 566.092 212.976 Q569.263 216.587 569.263 222.976 Q569.263 229.342 566.092 232.976 Q562.921 236.587 557.365 236.587 Q551.786 236.587 548.615 232.976 Q545.467 229.342 545.467 222.976 Q545.467 216.587 548.615 212.976 Q551.786 209.365 557.365 209.365 Z" fill="#000000" fill-rule="nonzero" fill-opacity="1" /><path clip-path="url(#clip150)" d="M593.383 213.925 L593.383 199.897 L597.643 199.897 L597.643 235.916 L593.383 235.916 L593.383 232.027 Q592.041 234.342 589.981 235.476 Q587.944 236.587 585.073 236.587 Q580.374 236.587 577.411 232.837 Q574.472 229.087 574.472 222.976 Q574.472 216.865 577.411 213.115 Q580.374 209.365 585.073 209.365 Q587.944 209.365 589.981 210.499 Q592.041 211.61 593.383 213.925 M578.87 222.976 Q578.87 227.675 580.791 230.36 Q582.735 233.022 586.115 233.022 Q589.495 233.022 591.439 230.36 Q593.383 227.675 593.383 222.976 Q593.383 218.277 591.439 215.615 Q589.495 212.93 586.115 212.93 Q582.735 212.93 580.791 215.615 Q578.87 218.277 578.87 222.976 Z" fill="#000000" fill-rule="nonzero" fill-opacity="1" /><path clip-path="url(#clip150)" d="M628.592 221.888 L628.592 223.971 L609.008 223.971 Q609.286 228.369 611.647 230.684 Q614.031 232.976 618.268 232.976 Q620.721 232.976 623.013 232.374 Q625.328 231.772 627.596 230.569 L627.596 234.596 Q625.305 235.568 622.897 236.078 Q620.49 236.587 618.013 236.587 Q611.809 236.587 608.175 232.976 Q604.564 229.365 604.564 223.207 Q604.564 216.842 607.99 213.115 Q611.439 209.365 617.272 209.365 Q622.504 209.365 625.536 212.745 Q628.592 216.101 628.592 221.888 M624.332 220.638 Q624.286 217.143 622.365 215.059 Q620.467 212.976 617.319 212.976 Q613.754 212.976 611.601 214.99 Q609.471 217.004 609.147 220.661 L624.332 220.638 Z" fill="#000000" fill-rule="nonzero" fill-opacity="1" /><path clip-path="url(#clip150)" d="M635.582 199.897 L639.842 199.897 L639.842 235.916 L635.582 235.916 L635.582 199.897 Z" fill="#000000" fill-rule="nonzero" fill-opacity="1" /><path clip-path="url(#clip150)" d="M668.684 205.198 L668.684 218.184 L674.564 218.184 Q677.827 218.184 679.61 216.495 Q681.392 214.805 681.392 211.68 Q681.392 208.578 679.61 206.888 Q677.827 205.198 674.564 205.198 L668.684 205.198 M664.008 201.356 L674.564 201.356 Q680.374 201.356 683.337 203.995 Q686.323 206.61 686.323 211.68 Q686.323 216.795 683.337 219.411 Q680.374 222.027 674.564 222.027 L668.684 222.027 L668.684 235.916 L664.008 235.916 L664.008 201.356 Z" fill="#000000" fill-rule="nonzero" fill-opacity="1" /><path clip-path="url(#clip150)" d="M706.6 213.971 Q705.883 213.555 705.026 213.37 Q704.193 213.161 703.175 213.161 Q699.563 213.161 697.619 215.522 Q695.698 217.86 695.698 222.258 L695.698 235.916 L691.415 235.916 L691.415 209.99 L695.698 209.99 L695.698 214.018 Q697.04 211.657 699.193 210.522 Q701.346 209.365 704.425 209.365 Q704.864 209.365 705.397 209.434 Q705.929 209.481 706.577 209.596 L706.6 213.971 Z" fill="#000000" fill-rule="nonzero" fill-opacity="1" /><path clip-path="url(#clip150)" d="M732.202 221.888 L732.202 223.971 L712.619 223.971 Q712.897 228.369 715.258 230.684 Q717.642 232.976 721.878 232.976 Q724.332 232.976 726.623 232.374 Q728.938 231.772 731.207 230.569 L731.207 234.596 Q728.915 235.568 726.508 236.078 Q724.1 236.587 721.624 236.587 Q715.42 236.587 711.786 232.976 Q708.175 229.365 708.175 223.207 Q708.175 216.842 711.6 213.115 Q715.049 209.365 720.883 209.365 Q726.114 209.365 729.147 212.745 Q732.202 216.101 732.202 221.888 M727.943 220.638 Q727.897 217.143 725.975 215.059 Q724.077 212.976 720.929 212.976 Q717.364 212.976 715.211 214.99 Q713.082 217.004 712.758 220.661 L727.943 220.638 Z" fill="#000000" fill-rule="nonzero" fill-opacity="1" /><path clip-path="url(#clip150)" d="M756.253 213.925 L756.253 199.897 L760.512 199.897 L760.512 235.916 L756.253 235.916 L756.253 232.027 Q754.91 234.342 752.85 235.476 Q750.813 236.587 747.943 236.587 Q743.244 236.587 740.281 232.837 Q737.341 229.087 737.341 222.976 Q737.341 216.865 740.281 213.115 Q743.244 209.365 747.943 209.365 Q750.813 209.365 752.85 210.499 Q754.91 211.61 756.253 213.925 M741.739 222.976 Q741.739 227.675 743.66 230.36 Q745.605 233.022 748.984 233.022 Q752.364 233.022 754.309 230.36 Q756.253 227.675 756.253 222.976 Q756.253 218.277 754.309 215.615 Q752.364 212.93 748.984 212.93 Q745.605 212.93 743.66 215.615 Q741.739 218.277 741.739 222.976 Z" fill="#000000" fill-rule="nonzero" fill-opacity="1" /><path clip-path="url(#clip150)" d="M769.285 209.99 L773.545 209.99 L773.545 235.916 L769.285 235.916 L769.285 209.99 M769.285 199.897 L773.545 199.897 L773.545 205.291 L769.285 205.291 L769.285 199.897 Z" fill="#000000" fill-rule="nonzero" fill-opacity="1" /><path clip-path="url(#clip150)" d="M801.114 210.985 L801.114 214.967 Q799.308 213.971 797.48 213.485 Q795.674 212.976 793.822 212.976 Q789.679 212.976 787.387 215.615 Q785.095 218.231 785.095 222.976 Q785.095 227.721 787.387 230.36 Q789.679 232.976 793.822 232.976 Q795.674 232.976 797.48 232.49 Q799.308 231.981 801.114 230.985 L801.114 234.92 Q799.331 235.754 797.41 236.17 Q795.512 236.587 793.359 236.587 Q787.503 236.587 784.054 232.906 Q780.605 229.226 780.605 222.976 Q780.605 216.633 784.077 212.999 Q787.572 209.365 793.637 209.365 Q795.605 209.365 797.48 209.782 Q799.355 210.175 801.114 210.985 Z" fill="#000000" fill-rule="nonzero" fill-opacity="1" /><path clip-path="url(#clip150)" d="M812.734 202.629 L812.734 209.99 L821.507 209.99 L821.507 213.3 L812.734 213.3 L812.734 227.374 Q812.734 230.545 813.591 231.448 Q814.47 232.351 817.132 232.351 L821.507 232.351 L821.507 235.916 L817.132 235.916 Q812.202 235.916 810.327 234.087 Q808.452 232.235 808.452 227.374 L808.452 213.3 L805.327 213.3 L805.327 209.99 L808.452 209.99 L808.452 202.629 L812.734 202.629 Z" fill="#000000" fill-rule="nonzero" fill-opacity="1" /><path clip-path="url(#clip150)" d="M827.109 209.99 L831.368 209.99 L831.368 235.916 L827.109 235.916 L827.109 209.99 M827.109 199.897 L831.368 199.897 L831.368 205.291 L827.109 205.291 L827.109 199.897 Z" fill="#000000" fill-rule="nonzero" fill-opacity="1" /><path clip-path="url(#clip150)" d="M850.327 212.976 Q846.901 212.976 844.91 215.661 Q842.919 218.323 842.919 222.976 Q842.919 227.629 844.887 230.314 Q846.877 232.976 850.327 232.976 Q853.729 232.976 855.72 230.291 Q857.711 227.606 857.711 222.976 Q857.711 218.37 855.72 215.684 Q853.729 212.976 850.327 212.976 M850.327 209.365 Q855.882 209.365 859.053 212.976 Q862.225 216.587 862.225 222.976 Q862.225 229.342 859.053 232.976 Q855.882 236.587 850.327 236.587 Q844.748 236.587 841.577 232.976 Q838.428 229.342 838.428 222.976 Q838.428 216.587 841.577 212.976 Q844.748 209.365 850.327 209.365 Z" fill="#000000" fill-rule="nonzero" fill-opacity="1" /><path clip-path="url(#clip150)" d="M890.836 220.268 L890.836 235.916 L886.576 235.916 L886.576 220.407 Q886.576 216.726 885.141 214.897 Q883.706 213.069 880.836 213.069 Q877.387 213.069 875.396 215.268 Q873.405 217.467 873.405 221.263 L873.405 235.916 L869.123 235.916 L869.123 209.99 L873.405 209.99 L873.405 214.018 Q874.933 211.68 876.993 210.522 Q879.076 209.365 881.785 209.365 Q886.252 209.365 888.544 212.143 Q890.836 214.897 890.836 220.268 Z" fill="#000000" fill-rule="nonzero" fill-opacity="1" /><circle clip-path="url(#clip150)" cx="413.125" cy="270.476" r="20.9455" fill="#e26f46" fill-rule="evenodd" fill-opacity="1" stroke="#000000" stroke-opacity="1" stroke-width="3.72364"/>
<path clip-path="url(#clip150)" d="M522.62 256.367 Q517.527 256.367 514.518 260.163 Q511.532 263.96 511.532 270.51 Q511.532 277.038 514.518 280.834 Q517.527 284.631 522.62 284.631 Q527.713 284.631 530.675 280.834 Q533.662 277.038 533.662 270.51 Q533.662 263.96 530.675 260.163 Q527.713 256.367 522.62 256.367 M522.62 252.571 Q529.888 252.571 534.24 257.455 Q538.592 262.316 538.592 270.51 Q538.592 278.682 534.24 283.566 Q529.888 288.427 522.62 288.427 Q515.328 288.427 510.953 283.566 Q506.602 278.705 506.602 270.51 Q506.602 262.316 510.953 257.455 Q515.328 252.571 522.62 252.571 Z" fill="#000000" fill-rule="nonzero" fill-opacity="1" /><path clip-path="url(#clip150)" d="M564.333 274.816 Q564.333 270.117 562.388 267.455 Q560.467 264.77 557.087 264.77 Q553.708 264.77 551.763 267.455 Q549.842 270.117 549.842 274.816 Q549.842 279.515 551.763 282.2 Q553.708 284.862 557.087 284.862 Q560.467 284.862 562.388 282.2 Q564.333 279.515 564.333 274.816 M549.842 265.765 Q551.185 263.45 553.222 262.339 Q555.282 261.205 558.129 261.205 Q562.851 261.205 565.791 264.955 Q568.754 268.705 568.754 274.816 Q568.754 280.927 565.791 284.677 Q562.851 288.427 558.129 288.427 Q555.282 288.427 553.222 287.316 Q551.185 286.182 549.842 283.867 L549.842 287.756 L545.56 287.756 L545.56 251.737 L549.842 251.737 L549.842 265.765 Z" fill="#000000" fill-rule="nonzero" fill-opacity="1" /><path clip-path="url(#clip150)" d="M592.342 262.594 L592.342 266.622 Q590.536 265.696 588.592 265.233 Q586.647 264.77 584.564 264.77 Q581.393 264.77 579.796 265.742 Q578.221 266.714 578.221 268.659 Q578.221 270.14 579.356 270.997 Q580.49 271.83 583.916 272.594 L585.374 272.918 Q589.911 273.89 591.809 275.672 Q593.731 277.432 593.731 280.603 Q593.731 284.214 590.86 286.321 Q588.013 288.427 583.013 288.427 Q580.93 288.427 578.661 288.01 Q576.416 287.617 573.916 286.807 L573.916 282.409 Q576.277 283.635 578.569 284.26 Q580.86 284.862 583.106 284.862 Q586.115 284.862 587.735 283.844 Q589.356 282.802 589.356 280.927 Q589.356 279.191 588.175 278.265 Q587.018 277.339 583.059 276.483 L581.578 276.135 Q577.62 275.302 575.86 273.589 Q574.101 271.853 574.101 268.844 Q574.101 265.186 576.694 263.196 Q579.286 261.205 584.055 261.205 Q586.416 261.205 588.499 261.552 Q590.583 261.899 592.342 262.594 Z" fill="#000000" fill-rule="nonzero" fill-opacity="1" /><path clip-path="url(#clip150)" d="M622.689 273.728 L622.689 275.811 L603.106 275.811 Q603.383 280.209 605.744 282.524 Q608.129 284.816 612.365 284.816 Q614.819 284.816 617.11 284.214 Q619.425 283.612 621.693 282.409 L621.693 286.436 Q619.402 287.408 616.994 287.918 Q614.587 288.427 612.11 288.427 Q605.907 288.427 602.272 284.816 Q598.661 281.205 598.661 275.047 Q598.661 268.682 602.087 264.955 Q605.536 261.205 611.369 261.205 Q616.601 261.205 619.633 264.585 Q622.689 267.941 622.689 273.728 M618.43 272.478 Q618.383 268.983 616.462 266.899 Q614.564 264.816 611.416 264.816 Q607.851 264.816 605.698 266.83 Q603.569 268.844 603.245 272.501 L618.43 272.478 Z" fill="#000000" fill-rule="nonzero" fill-opacity="1" /><path clip-path="url(#clip150)" d="M644.703 265.811 Q643.985 265.395 643.129 265.21 Q642.295 265.001 641.277 265.001 Q637.666 265.001 635.721 267.362 Q633.8 269.7 633.8 274.098 L633.8 287.756 L629.518 287.756 L629.518 261.83 L633.8 261.83 L633.8 265.858 Q635.142 263.497 637.295 262.362 Q639.448 261.205 642.527 261.205 Q642.967 261.205 643.499 261.274 Q644.031 261.321 644.679 261.436 L644.703 265.811 Z" fill="#000000" fill-rule="nonzero" fill-opacity="1" /><path clip-path="url(#clip150)" d="M646.115 261.83 L650.629 261.83 L658.73 283.589 L666.832 261.83 L671.346 261.83 L661.624 287.756 L655.837 287.756 L646.115 261.83 Z" fill="#000000" fill-rule="nonzero" fill-opacity="1" /><path clip-path="url(#clip150)" d="M699.401 273.728 L699.401 275.811 L679.818 275.811 Q680.096 280.209 682.457 282.524 Q684.841 284.816 689.077 284.816 Q691.531 284.816 693.823 284.214 Q696.138 283.612 698.406 282.409 L698.406 286.436 Q696.114 287.408 693.707 287.918 Q691.3 288.427 688.823 288.427 Q682.619 288.427 678.985 284.816 Q675.374 281.205 675.374 275.047 Q675.374 268.682 678.8 264.955 Q682.249 261.205 688.082 261.205 Q693.313 261.205 696.346 264.585 Q699.401 267.941 699.401 273.728 M695.142 272.478 Q695.096 268.983 693.175 266.899 Q691.276 264.816 688.128 264.816 Q684.564 264.816 682.411 266.83 Q680.281 268.844 679.957 272.501 L695.142 272.478 Z" fill="#000000" fill-rule="nonzero" fill-opacity="1" /><path clip-path="url(#clip150)" d="M723.452 265.765 L723.452 251.737 L727.711 251.737 L727.711 287.756 L723.452 287.756 L723.452 283.867 Q722.11 286.182 720.049 287.316 Q718.012 288.427 715.142 288.427 Q710.443 288.427 707.48 284.677 Q704.54 280.927 704.54 274.816 Q704.54 268.705 707.48 264.955 Q710.443 261.205 715.142 261.205 Q718.012 261.205 720.049 262.339 Q722.11 263.45 723.452 265.765 M708.938 274.816 Q708.938 279.515 710.86 282.2 Q712.804 284.862 716.184 284.862 Q719.563 284.862 721.508 282.2 Q723.452 279.515 723.452 274.816 Q723.452 270.117 721.508 267.455 Q719.563 264.77 716.184 264.77 Q712.804 264.77 710.86 267.455 Q708.938 270.117 708.938 274.816 Z" fill="#000000" fill-rule="nonzero" fill-opacity="1" /><path clip-path="url(#clip150)" d="M756.415 257.038 L756.415 283.913 L762.063 283.913 Q769.216 283.913 772.526 280.672 Q775.859 277.432 775.859 270.441 Q775.859 263.497 772.526 260.279 Q769.216 257.038 762.063 257.038 L756.415 257.038 M751.739 253.196 L761.346 253.196 Q771.392 253.196 776.091 257.386 Q780.79 261.552 780.79 270.441 Q780.79 279.376 776.068 283.566 Q771.345 287.756 761.346 287.756 L751.739 287.756 L751.739 253.196 Z" fill="#000000" fill-rule="nonzero" fill-opacity="1" /><path clip-path="url(#clip150)" d="M799.841 274.723 Q794.679 274.723 792.688 275.904 Q790.697 277.084 790.697 279.932 Q790.697 282.2 792.179 283.543 Q793.683 284.862 796.253 284.862 Q799.794 284.862 801.924 282.362 Q804.077 279.839 804.077 275.672 L804.077 274.723 L799.841 274.723 M808.336 272.964 L808.336 287.756 L804.077 287.756 L804.077 283.821 Q802.618 286.182 800.443 287.316 Q798.267 288.427 795.118 288.427 Q791.137 288.427 788.776 286.205 Q786.438 283.959 786.438 280.209 Q786.438 275.834 789.355 273.612 Q792.294 271.39 798.105 271.39 L804.077 271.39 L804.077 270.973 Q804.077 268.034 802.132 266.436 Q800.211 264.816 796.716 264.816 Q794.493 264.816 792.387 265.348 Q790.281 265.881 788.336 266.946 L788.336 263.01 Q790.674 262.108 792.873 261.668 Q795.072 261.205 797.156 261.205 Q802.78 261.205 805.558 264.122 Q808.336 267.038 808.336 272.964 Z" fill="#000000" fill-rule="nonzero" fill-opacity="1" /><path clip-path="url(#clip150)" d="M821.322 254.469 L821.322 261.83 L830.095 261.83 L830.095 265.14 L821.322 265.14 L821.322 279.214 Q821.322 282.385 822.179 283.288 Q823.058 284.191 825.72 284.191 L830.095 284.191 L830.095 287.756 L825.72 287.756 Q820.79 287.756 818.915 285.927 Q817.04 284.075 817.04 279.214 L817.04 265.14 L813.915 265.14 L813.915 261.83 L817.04 261.83 L817.04 254.469 L821.322 254.469 Z" fill="#000000" fill-rule="nonzero" fill-opacity="1" /><path clip-path="url(#clip150)" d="M847.479 274.723 Q842.317 274.723 840.327 275.904 Q838.336 277.084 838.336 279.932 Q838.336 282.2 839.817 283.543 Q841.322 284.862 843.891 284.862 Q847.433 284.862 849.563 282.362 Q851.715 279.839 851.715 275.672 L851.715 274.723 L847.479 274.723 M855.975 272.964 L855.975 287.756 L851.715 287.756 L851.715 283.821 Q850.257 286.182 848.081 287.316 Q845.905 288.427 842.757 288.427 Q838.776 288.427 836.415 286.205 Q834.077 283.959 834.077 280.209 Q834.077 275.834 836.993 273.612 Q839.933 271.39 845.743 271.39 L851.715 271.39 L851.715 270.973 Q851.715 268.034 849.771 266.436 Q847.85 264.816 844.354 264.816 Q842.132 264.816 840.026 265.348 Q837.919 265.881 835.975 266.946 L835.975 263.01 Q838.313 262.108 840.512 261.668 Q842.711 261.205 844.794 261.205 Q850.419 261.205 853.197 264.122 Q855.975 267.038 855.975 272.964 Z" fill="#000000" fill-rule="nonzero" fill-opacity="1" /></svg>
