<?xml version="1.0" encoding="utf-8"?>
<svg xmlns="http://www.w3.org/2000/svg" xmlns:xlink="http://www.w3.org/1999/xlink" width="600" height="400" viewBox="0 0 2400 1600">
<defs>
  <clipPath id="clip100">
    <rect x="0" y="0" width="2400" height="1600"/>
  </clipPath>
</defs>
<path clip-path="url(#clip100)" d="M0 1600 L2400 1600 L2400 0 L0 0  Z" fill="#ffffff" fill-rule="evenodd" fill-opacity="1"/>
<defs>
  <clipPath id="clip101">
    <rect x="249" y="123" width="2104" height="1301"/>
  </clipPath>
</defs>
<path clip-path="url(#clip100)" d="M174.149 1423.18 L2352.76 1423.18 L2352.76 123.472 L174.149 123.472  Z" fill="#ffffff" fill-rule="evenodd" fill-opacity="1"/>
<defs>
  <clipPath id="clip102">
    <rect x="174" y="123" width="2180" height="1301"/>
  </clipPath>
</defs>
<polyline clip-path="url(#clip102)" style="stroke:#000000; stroke-linecap:round; stroke-linejoin:round; stroke-width:2; stroke-opacity:0.1; fill:none" points="197.747,1423.18 197.747,123.472 "/>
<polyline clip-path="url(#clip102)" style="stroke:#000000; stroke-linecap:round; stroke-linejoin:round; stroke-width:2; stroke-opacity:0.1; fill:none" points="578.356,1423.18 578.356,123.472 "/>
<polyline clip-path="url(#clip102)" style="stroke:#000000; stroke-linecap:round; stroke-linejoin:round; stroke-width:2; stroke-opacity:0.1; fill:none" points="958.965,1423.18 958.965,123.472 "/>
<polyline clip-path="url(#clip102)" style="stroke:#000000; stroke-linecap:round; stroke-linejoin:round; stroke-width:2; stroke-opacity:0.1; fill:none" points="1339.57,1423.18 1339.57,123.472 "/>
<polyline clip-path="url(#clip102)" style="stroke:#000000; stroke-linecap:round; stroke-linejoin:round; stroke-width:2; stroke-opacity:0.1; fill:none" points="1720.18,1423.18 1720.18,123.472 "/>
<polyline clip-path="url(#clip102)" style="stroke:#000000; stroke-linecap:round; stroke-linejoin:round; stroke-width:2; stroke-opacity:0.1; fill:none" points="2100.79,1423.18 2100.79,123.472 "/>
<polyline clip-path="url(#clip102)" style="stroke:#000000; stroke-linecap:round; stroke-linejoin:round; stroke-width:2; stroke-opacity:0.1; fill:none" points="174.149,1386.4 2352.76,1386.4 "/>
<polyline clip-path="url(#clip102)" style="stroke:#000000; stroke-linecap:round; stroke-linejoin:round; stroke-width:2; stroke-opacity:0.1; fill:none" points="174.149,985.961 2352.76,985.961 "/>
<polyline clip-path="url(#clip102)" style="stroke:#000000; stroke-linecap:round; stroke-linejoin:round; stroke-width:2; stroke-opacity:0.1; fill:none" points="174.149,585.526 2352.76,585.526 "/>
<polyline clip-path="url(#clip102)" style="stroke:#000000; stroke-linecap:round; stroke-linejoin:round; stroke-width:2; stroke-opacity:0.1; fill:none" points="174.149,185.091 2352.76,185.091 "/>
<polyline clip-path="url(#clip100)" style="stroke:#000000; stroke-linecap:round; stroke-linejoin:round; stroke-width:4; stroke-opacity:1; fill:none" points="174.149,1423.18 2352.76,1423.18 "/>
<polyline clip-path="url(#clip100)" style="stroke:#000000; stroke-linecap:round; stroke-linejoin:round; stroke-width:4; stroke-opacity:1; fill:none" points="197.747,1423.18 197.747,1404.28 "/>
<polyline clip-path="url(#clip100)" style="stroke:#000000; stroke-linecap:round; stroke-linejoin:round; stroke-width:4; stroke-opacity:1; fill:none" points="578.356,1423.18 578.356,1404.28 "/>
<polyline clip-path="url(#clip100)" style="stroke:#000000; stroke-linecap:round; stroke-linejoin:round; stroke-width:4; stroke-opacity:1; fill:none" points="958.965,1423.18 958.965,1404.28 "/>
<polyline clip-path="url(#clip100)" style="stroke:#000000; stroke-linecap:round; stroke-linejoin:round; stroke-width:4; stroke-opacity:1; fill:none" points="1339.57,1423.18 1339.57,1404.28 "/>
<polyline clip-path="url(#clip100)" style="stroke:#000000; stroke-linecap:round; stroke-linejoin:round; stroke-width:4; stroke-opacity:1; fill:none" points="1720.18,1423.18 1720.18,1404.28 "/>
<polyline clip-path="url(#clip100)" style="stroke:#000000; stroke-linecap:round; stroke-linejoin:round; stroke-width:4; stroke-opacity:1; fill:none" points="2100.79,1423.18 2100.79,1404.28 "/>
<path clip-path="url(#clip100)" d="M197.747 1454.1 Q194.136 1454.1 192.307 1457.66 Q190.501 1461.2 190.501 1468.33 Q190.501 1475.44 192.307 1479.01 Q194.136 1482.55 197.747 1482.55 Q201.381 1482.55 203.186 1479.01 Q205.015 1475.44 205.015 1468.33 Q205.015 1461.2 203.186 1457.66 Q201.381 1454.1 197.747 1454.1 M197.747 1450.39 Q203.557 1450.39 206.612 1455 Q209.691 1459.58 209.691 1468.33 Q209.691 1477.06 206.612 1481.67 Q203.557 1486.25 197.747 1486.25 Q191.937 1486.25 188.858 1481.67 Q185.802 1477.06 185.802 1468.33 Q185.802 1459.58 188.858 1455 Q191.937 1450.39 197.747 1450.39 Z" fill="#000000" fill-rule="nonzero" fill-opacity="1" /><path clip-path="url(#clip100)" d="M553.044 1481.64 L560.682 1481.64 L560.682 1455.28 L552.372 1456.95 L552.372 1452.69 L560.636 1451.02 L565.312 1451.02 L565.312 1481.64 L572.951 1481.64 L572.951 1485.58 L553.044 1485.58 L553.044 1481.64 Z" fill="#000000" fill-rule="nonzero" fill-opacity="1" /><path clip-path="url(#clip100)" d="M592.395 1454.1 Q588.784 1454.1 586.955 1457.66 Q585.15 1461.2 585.15 1468.33 Q585.15 1475.44 586.955 1479.01 Q588.784 1482.55 592.395 1482.55 Q596.029 1482.55 597.835 1479.01 Q599.664 1475.44 599.664 1468.33 Q599.664 1461.2 597.835 1457.66 Q596.029 1454.1 592.395 1454.1 M592.395 1450.39 Q598.205 1450.39 601.261 1455 Q604.34 1459.58 604.34 1468.33 Q604.34 1477.06 601.261 1481.67 Q598.205 1486.25 592.395 1486.25 Q586.585 1486.25 583.506 1481.67 Q580.451 1477.06 580.451 1468.33 Q580.451 1459.58 583.506 1455 Q586.585 1450.39 592.395 1450.39 Z" fill="#000000" fill-rule="nonzero" fill-opacity="1" /><path clip-path="url(#clip100)" d="M937.738 1481.64 L954.058 1481.64 L954.058 1485.58 L932.113 1485.58 L932.113 1481.64 Q934.775 1478.89 939.359 1474.26 Q943.965 1469.61 945.146 1468.27 Q947.391 1465.74 948.271 1464.01 Q949.173 1462.25 949.173 1460.56 Q949.173 1457.8 947.229 1456.07 Q945.308 1454.33 942.206 1454.33 Q940.007 1454.33 937.553 1455.09 Q935.123 1455.86 932.345 1457.41 L932.345 1452.69 Q935.169 1451.55 937.623 1450.97 Q940.076 1450.39 942.113 1450.39 Q947.484 1450.39 950.678 1453.08 Q953.872 1455.77 953.872 1460.26 Q953.872 1462.39 953.062 1464.31 Q952.275 1466.2 950.169 1468.8 Q949.59 1469.47 946.488 1472.69 Q943.386 1475.88 937.738 1481.64 Z" fill="#000000" fill-rule="nonzero" fill-opacity="1" /><path clip-path="url(#clip100)" d="M973.872 1454.1 Q970.261 1454.1 968.433 1457.66 Q966.627 1461.2 966.627 1468.33 Q966.627 1475.44 968.433 1479.01 Q970.261 1482.55 973.872 1482.55 Q977.507 1482.55 979.312 1479.01 Q981.141 1475.44 981.141 1468.33 Q981.141 1461.2 979.312 1457.66 Q977.507 1454.1 973.872 1454.1 M973.872 1450.39 Q979.683 1450.39 982.738 1455 Q985.817 1459.58 985.817 1468.33 Q985.817 1477.06 982.738 1481.67 Q979.683 1486.25 973.872 1486.25 Q968.062 1486.25 964.984 1481.67 Q961.928 1477.06 961.928 1468.33 Q961.928 1459.58 964.984 1455 Q968.062 1450.39 973.872 1450.39 Z" fill="#000000" fill-rule="nonzero" fill-opacity="1" /><path clip-path="url(#clip100)" d="M1328.42 1466.95 Q1331.77 1467.66 1333.65 1469.93 Q1335.55 1472.2 1335.55 1475.53 Q1335.55 1480.65 1332.03 1483.45 Q1328.51 1486.25 1322.03 1486.25 Q1319.85 1486.25 1317.54 1485.81 Q1315.25 1485.39 1312.79 1484.54 L1312.79 1480.02 Q1314.74 1481.16 1317.05 1481.74 Q1319.37 1482.32 1321.89 1482.32 Q1326.29 1482.32 1328.58 1480.58 Q1330.89 1478.84 1330.89 1475.53 Q1330.89 1472.48 1328.74 1470.77 Q1326.61 1469.03 1322.79 1469.03 L1318.76 1469.03 L1318.76 1465.19 L1322.98 1465.19 Q1326.43 1465.19 1328.25 1463.82 Q1330.08 1462.43 1330.08 1459.84 Q1330.08 1457.18 1328.19 1455.77 Q1326.31 1454.33 1322.79 1454.33 Q1320.87 1454.33 1318.67 1454.75 Q1316.47 1455.16 1313.83 1456.04 L1313.83 1451.88 Q1316.5 1451.14 1318.81 1450.77 Q1321.15 1450.39 1323.21 1450.39 Q1328.53 1450.39 1331.63 1452.83 Q1334.74 1455.23 1334.74 1459.35 Q1334.74 1462.22 1333.09 1464.21 Q1331.45 1466.18 1328.42 1466.95 Z" fill="#000000" fill-rule="nonzero" fill-opacity="1" /><path clip-path="url(#clip100)" d="M1354.41 1454.1 Q1350.8 1454.1 1348.97 1457.66 Q1347.17 1461.2 1347.17 1468.33 Q1347.17 1475.44 1348.97 1479.01 Q1350.8 1482.55 1354.41 1482.55 Q1358.05 1482.55 1359.85 1479.01 Q1361.68 1475.44 1361.68 1468.33 Q1361.68 1461.2 1359.85 1457.66 Q1358.05 1454.1 1354.41 1454.1 M1354.41 1450.39 Q1360.22 1450.39 1363.28 1455 Q1366.36 1459.58 1366.36 1468.33 Q1366.36 1477.06 1363.28 1481.67 Q1360.22 1486.25 1354.41 1486.25 Q1348.6 1486.25 1345.52 1481.67 Q1342.47 1477.06 1342.47 1468.33 Q1342.47 1459.58 1345.52 1455 Q1348.6 1450.39 1354.41 1450.39 Z" fill="#000000" fill-rule="nonzero" fill-opacity="1" /><path clip-path="url(#clip100)" d="M1708.35 1455.09 L1696.55 1473.54 L1708.35 1473.54 L1708.35 1455.09 M1707.13 1451.02 L1713.01 1451.02 L1713.01 1473.54 L1717.94 1473.54 L1717.94 1477.43 L1713.01 1477.43 L1713.01 1485.58 L1708.35 1485.58 L1708.35 1477.43 L1692.75 1477.43 L1692.75 1472.92 L1707.13 1451.02 Z" fill="#000000" fill-rule="nonzero" fill-opacity="1" /><path clip-path="url(#clip100)" d="M1735.67 1454.1 Q1732.06 1454.1 1730.23 1457.66 Q1728.42 1461.2 1728.42 1468.33 Q1728.42 1475.44 1730.23 1479.01 Q1732.06 1482.55 1735.67 1482.55 Q1739.3 1482.55 1741.11 1479.01 Q1742.94 1475.44 1742.94 1468.33 Q1742.94 1461.2 1741.11 1457.66 Q1739.3 1454.1 1735.67 1454.1 M1735.67 1450.39 Q1741.48 1450.39 1744.54 1455 Q1747.61 1459.58 1747.61 1468.33 Q1747.61 1477.06 1744.54 1481.67 Q1741.48 1486.25 1735.67 1486.25 Q1729.86 1486.25 1726.78 1481.67 Q1723.73 1477.06 1723.73 1468.33 Q1723.73 1459.58 1726.78 1455 Q1729.86 1450.39 1735.67 1450.39 Z" fill="#000000" fill-rule="nonzero" fill-opacity="1" /><path clip-path="url(#clip100)" d="M2075.49 1451.02 L2093.85 1451.02 L2093.85 1454.96 L2079.77 1454.96 L2079.77 1463.43 Q2080.79 1463.08 2081.81 1462.92 Q2082.83 1462.73 2083.85 1462.73 Q2089.64 1462.73 2093.01 1465.9 Q2096.39 1469.08 2096.39 1474.49 Q2096.39 1480.07 2092.92 1483.17 Q2089.45 1486.25 2083.13 1486.25 Q2080.95 1486.25 2078.69 1485.88 Q2076.44 1485.51 2074.03 1484.77 L2074.03 1480.07 Q2076.12 1481.2 2078.34 1481.76 Q2080.56 1482.32 2083.04 1482.32 Q2087.04 1482.32 2089.38 1480.21 Q2091.72 1478.1 2091.72 1474.49 Q2091.72 1470.88 2089.38 1468.77 Q2087.04 1466.67 2083.04 1466.67 Q2081.16 1466.67 2079.29 1467.08 Q2077.44 1467.5 2075.49 1468.38 L2075.49 1451.02 Z" fill="#000000" fill-rule="nonzero" fill-opacity="1" /><path clip-path="url(#clip100)" d="M2115.61 1454.1 Q2112 1454.1 2110.17 1457.66 Q2108.36 1461.2 2108.36 1468.33 Q2108.36 1475.44 2110.17 1479.01 Q2112 1482.55 2115.61 1482.55 Q2119.24 1482.55 2121.05 1479.01 Q2122.88 1475.44 2122.88 1468.33 Q2122.88 1461.2 2121.05 1457.66 Q2119.24 1454.1 2115.61 1454.1 M2115.61 1450.39 Q2121.42 1450.39 2124.47 1455 Q2127.55 1459.58 2127.55 1468.33 Q2127.55 1477.06 2124.47 1481.67 Q2121.42 1486.25 2115.61 1486.25 Q2109.8 1486.25 2106.72 1481.67 Q2103.66 1477.06 2103.66 1468.33 Q2103.66 1459.58 2106.72 1455 Q2109.8 1450.39 2115.61 1450.39 Z" fill="#000000" fill-rule="nonzero" fill-opacity="1" /><path clip-path="url(#clip100)" d="M1185.33 1520.52 L1225.53 1520.52 L1225.53 1525.93 L1208.66 1525.93 L1208.66 1568.04 L1202.2 1568.04 L1202.2 1525.93 L1185.33 1525.93 L1185.33 1520.52 Z" fill="#000000" fill-rule="nonzero" fill-opacity="1" /><path clip-path="url(#clip100)" d="M1229.48 1532.4 L1235.33 1532.4 L1235.33 1568.04 L1229.48 1568.04 L1229.48 1532.4 M1229.48 1518.52 L1235.33 1518.52 L1235.33 1525.93 L1229.48 1525.93 L1229.48 1518.52 Z" fill="#000000" fill-rule="nonzero" fill-opacity="1" /><path clip-path="url(#clip100)" d="M1275.34 1539.24 Q1277.54 1535.29 1280.59 1533.41 Q1283.65 1531.54 1287.79 1531.54 Q1293.36 1531.54 1296.38 1535.45 Q1299.4 1539.33 1299.4 1546.53 L1299.4 1568.04 L1293.51 1568.04 L1293.51 1546.72 Q1293.51 1541.59 1291.7 1539.11 Q1289.89 1536.63 1286.16 1536.63 Q1281.61 1536.63 1278.97 1539.65 Q1276.33 1542.68 1276.33 1547.9 L1276.33 1568.04 L1270.44 1568.04 L1270.44 1546.72 Q1270.44 1541.56 1268.62 1539.11 Q1266.81 1536.63 1263.02 1536.63 Q1258.53 1536.63 1255.89 1539.68 Q1253.25 1542.71 1253.25 1547.9 L1253.25 1568.04 L1247.36 1568.04 L1247.36 1532.4 L1253.25 1532.4 L1253.25 1537.93 Q1255.26 1534.66 1258.06 1533.1 Q1260.86 1531.54 1264.71 1531.54 Q1268.59 1531.54 1271.3 1533.51 Q1274.04 1535.48 1275.34 1539.24 Z" fill="#000000" fill-rule="nonzero" fill-opacity="1" /><path clip-path="url(#clip100)" d="M1341.58 1548.76 L1341.58 1551.62 L1314.65 1551.62 Q1315.03 1557.67 1318.28 1560.85 Q1321.56 1564 1327.38 1564 Q1330.75 1564 1333.9 1563.17 Q1337.09 1562.35 1340.21 1560.69 L1340.21 1566.23 Q1337.06 1567.57 1333.75 1568.27 Q1330.44 1568.97 1327.03 1568.97 Q1318.5 1568.97 1313.5 1564 Q1308.54 1559.04 1308.54 1550.57 Q1308.54 1541.82 1313.25 1536.69 Q1317.99 1531.54 1326.01 1531.54 Q1333.2 1531.54 1337.37 1536.18 Q1341.58 1540.8 1341.58 1548.76 M1335.72 1547.04 Q1335.66 1542.23 1333.01 1539.37 Q1330.4 1536.5 1326.08 1536.5 Q1321.17 1536.5 1318.21 1539.27 Q1315.29 1542.04 1314.84 1547.07 L1335.72 1547.04 Z" fill="#000000" fill-rule="nonzero" fill-opacity="1" /><polyline clip-path="url(#clip100)" style="stroke:#000000; stroke-linecap:round; stroke-linejoin:round; stroke-width:4; stroke-opacity:1; fill:none" points="174.149,1423.18 174.149,123.472 "/>
<polyline clip-path="url(#clip100)" style="stroke:#000000; stroke-linecap:round; stroke-linejoin:round; stroke-width:4; stroke-opacity:1; fill:none" points="174.149,1386.4 193.047,1386.4 "/>
<polyline clip-path="url(#clip100)" style="stroke:#000000; stroke-linecap:round; stroke-linejoin:round; stroke-width:4; stroke-opacity:1; fill:none" points="174.149,985.961 193.047,985.961 "/>
<polyline clip-path="url(#clip100)" style="stroke:#000000; stroke-linecap:round; stroke-linejoin:round; stroke-width:4; stroke-opacity:1; fill:none" points="174.149,585.526 193.047,585.526 "/>
<polyline clip-path="url(#clip100)" style="stroke:#000000; stroke-linecap:round; stroke-linejoin:round; stroke-width:4; stroke-opacity:1; fill:none" points="174.149,185.091 193.047,185.091 "/>
<path clip-path="url(#clip100)" d="M126.205 1372.19 Q122.593 1372.19 120.765 1375.76 Q118.959 1379.3 118.959 1386.43 Q118.959 1393.54 120.765 1397.1 Q122.593 1400.64 126.205 1400.64 Q129.839 1400.64 131.644 1397.1 Q133.473 1393.54 133.473 1386.43 Q133.473 1379.3 131.644 1375.76 Q129.839 1372.19 126.205 1372.19 M126.205 1368.49 Q132.015 1368.49 135.07 1373.1 Q138.149 1377.68 138.149 1386.43 Q138.149 1395.16 135.07 1399.76 Q132.015 1404.35 126.205 1404.35 Q120.394 1404.35 117.316 1399.76 Q114.26 1395.16 114.26 1386.43 Q114.26 1377.68 117.316 1373.1 Q120.394 1368.49 126.205 1368.49 Z" fill="#000000" fill-rule="nonzero" fill-opacity="1" /><path clip-path="url(#clip100)" d="M118.242 999.305 L125.88 999.305 L125.88 972.94 L117.57 974.607 L117.57 970.347 L125.834 968.681 L130.51 968.681 L130.51 999.305 L138.149 999.305 L138.149 1003.24 L118.242 1003.24 L118.242 999.305 Z" fill="#000000" fill-rule="nonzero" fill-opacity="1" /><path clip-path="url(#clip100)" d="M121.83 598.87 L138.149 598.87 L138.149 602.806 L116.205 602.806 L116.205 598.87 Q118.867 596.116 123.45 591.486 Q128.056 586.833 129.237 585.491 Q131.482 582.968 132.362 581.232 Q133.265 579.472 133.265 577.783 Q133.265 575.028 131.32 573.292 Q129.399 571.556 126.297 571.556 Q124.098 571.556 121.644 572.32 Q119.214 573.084 116.436 574.634 L116.436 569.912 Q119.26 568.778 121.714 568.199 Q124.168 567.621 126.205 567.621 Q131.575 567.621 134.769 570.306 Q137.964 572.991 137.964 577.482 Q137.964 579.611 137.154 581.533 Q136.367 583.431 134.26 586.023 Q133.681 586.695 130.58 589.912 Q127.478 593.107 121.83 598.87 Z" fill="#000000" fill-rule="nonzero" fill-opacity="1" /><path clip-path="url(#clip100)" d="M131.019 183.736 Q134.376 184.454 136.251 186.723 Q138.149 188.991 138.149 192.324 Q138.149 197.44 134.63 200.241 Q131.112 203.042 124.63 203.042 Q122.455 203.042 120.14 202.602 Q117.848 202.185 115.394 201.329 L115.394 196.815 Q117.339 197.949 119.654 198.528 Q121.968 199.107 124.492 199.107 Q128.89 199.107 131.181 197.371 Q133.496 195.634 133.496 192.324 Q133.496 189.269 131.343 187.556 Q129.214 185.82 125.394 185.82 L121.367 185.82 L121.367 181.977 L125.58 181.977 Q129.029 181.977 130.857 180.611 Q132.686 179.223 132.686 176.63 Q132.686 173.968 130.788 172.556 Q128.913 171.121 125.394 171.121 Q123.473 171.121 121.274 171.537 Q119.075 171.954 116.436 172.834 L116.436 168.667 Q119.098 167.926 121.413 167.556 Q123.751 167.186 125.811 167.186 Q131.135 167.186 134.237 169.616 Q137.339 172.024 137.339 176.144 Q137.339 179.014 135.695 181.005 Q134.052 182.973 131.019 183.736 Z" fill="#000000" fill-rule="nonzero" fill-opacity="1" /><path clip-path="url(#clip100)" d="M20.1444 820.225 L26.9239 820.225 Q23.9002 823.472 22.4043 827.164 Q20.9083 830.824 20.9083 834.962 Q20.9083 843.11 25.9054 847.439 Q30.8707 851.767 40.2919 851.767 Q49.6813 851.767 54.6784 847.439 Q59.6436 843.11 59.6436 834.962 Q59.6436 830.824 58.1477 827.164 Q56.6518 823.472 53.6281 820.225 L60.3439 820.225 Q62.6355 823.599 63.7814 827.387 Q64.9272 831.143 64.9272 835.344 Q64.9272 846.134 58.3387 852.34 Q51.7183 858.547 40.2919 858.547 Q28.8336 858.547 22.2451 852.34 Q15.6248 846.134 15.6248 835.344 Q15.6248 831.079 16.7706 827.323 Q17.8846 823.535 20.1444 820.225 Z" fill="#000000" fill-rule="nonzero" fill-opacity="1" /><path clip-path="url(#clip100)" d="M16.4842 816.883 L16.4842 776.684 L21.895 776.684 L21.895 793.553 L64.0042 793.553 L64.0042 800.014 L21.895 800.014 L21.895 816.883 L16.4842 816.883 Z" fill="#000000" fill-rule="nonzero" fill-opacity="1" /><path clip-path="url(#clip100)" d="M16.4842 770.477 L16.4842 761.82 L56.238 740.749 L16.4842 740.749 L16.4842 734.511 L64.0042 734.511 L64.0042 743.168 L24.2503 764.239 L64.0042 764.239 L64.0042 770.477 L16.4842 770.477 Z" fill="#000000" fill-rule="nonzero" fill-opacity="1" /><path clip-path="url(#clip100)" d="M16.4842 728.305 L16.4842 688.105 L21.895 688.105 L21.895 704.974 L64.0042 704.974 L64.0042 711.435 L21.895 711.435 L21.895 728.305 L16.4842 728.305 Z" fill="#000000" fill-rule="nonzero" fill-opacity="1" /><path clip-path="url(#clip100)" d="M990.381 18.8205 L990.381 41.5461 L1000.67 41.5461 Q1006.38 41.5461 1009.5 38.5889 Q1012.62 35.6318 1012.62 30.163 Q1012.62 24.7348 1009.5 21.7777 Q1006.38 18.8205 1000.67 18.8205 L990.381 18.8205 M982.198 12.096 L1000.67 12.096 Q1010.84 12.096 1016.02 16.714 Q1021.25 21.2916 1021.25 30.163 Q1021.25 39.1155 1016.02 43.6931 Q1010.84 48.2706 1000.67 48.2706 L990.381 48.2706 L990.381 72.576 L982.198 72.576 L982.198 12.096 Z" fill="#000000" fill-rule="nonzero" fill-opacity="1" /><path clip-path="url(#clip100)" d="M1048.79 49.7694 Q1039.76 49.7694 1036.28 51.8354 Q1032.79 53.9013 1032.79 58.8839 Q1032.79 62.8538 1035.39 65.2034 Q1038.02 67.5124 1042.52 67.5124 Q1048.71 67.5124 1052.44 63.1374 Q1056.21 58.7219 1056.21 51.4303 L1056.21 49.7694 L1048.79 49.7694 M1063.66 46.6907 L1063.66 72.576 L1056.21 72.576 L1056.21 65.6895 Q1053.66 69.8214 1049.85 71.8063 Q1046.04 73.7508 1040.53 73.7508 Q1033.56 73.7508 1029.43 69.8619 Q1025.34 65.9325 1025.34 59.3701 Q1025.34 51.7138 1030.44 47.825 Q1035.59 43.9361 1045.76 43.9361 L1056.21 43.9361 L1056.21 43.2069 Q1056.21 38.0623 1052.81 35.2672 Q1049.44 32.4315 1043.33 32.4315 Q1039.44 32.4315 1035.75 33.3632 Q1032.06 34.295 1028.66 36.1584 L1028.66 29.2718 Q1032.75 27.692 1036.6 26.9223 Q1040.45 26.1121 1044.1 26.1121 Q1053.94 26.1121 1058.8 31.2163 Q1063.66 36.3204 1063.66 46.6907 Z" fill="#000000" fill-rule="nonzero" fill-opacity="1" /><path clip-path="url(#clip100)" d="M1086.39 14.324 L1086.39 27.2059 L1101.74 27.2059 L1101.74 32.9987 L1086.39 32.9987 L1086.39 57.6282 Q1086.39 63.1779 1087.89 64.7578 Q1089.43 66.3376 1094.08 66.3376 L1101.74 66.3376 L1101.74 72.576 L1094.08 72.576 Q1085.46 72.576 1082.17 69.3758 Q1078.89 66.1351 1078.89 57.6282 L1078.89 32.9987 L1073.42 32.9987 L1073.42 27.2059 L1078.89 27.2059 L1078.89 14.324 L1086.39 14.324 Z" fill="#000000" fill-rule="nonzero" fill-opacity="1" /><path clip-path="url(#clip100)" d="M1111.54 27.2059 L1119 27.2059 L1119 72.576 L1111.54 72.576 L1111.54 27.2059 M1111.54 9.54393 L1119 9.54393 L1119 18.9825 L1111.54 18.9825 L1111.54 9.54393 Z" fill="#000000" fill-rule="nonzero" fill-opacity="1" /><path clip-path="url(#clip100)" d="M1173.4 48.0275 L1173.4 51.6733 L1139.13 51.6733 Q1139.62 59.3701 1143.75 63.421 Q1147.92 67.4314 1155.33 67.4314 Q1159.63 67.4314 1163.64 66.3781 Q1167.69 65.3249 1171.66 63.2184 L1171.66 70.267 Q1167.65 71.9684 1163.44 72.8596 Q1159.22 73.7508 1154.89 73.7508 Q1144.03 73.7508 1137.67 67.4314 Q1131.35 61.1119 1131.35 50.3365 Q1131.35 39.1965 1137.35 32.6746 Q1143.38 26.1121 1153.59 26.1121 Q1162.75 26.1121 1168.05 32.0264 Q1173.4 37.9003 1173.4 48.0275 M1165.95 45.84 Q1165.87 39.7232 1162.5 36.0774 Q1159.18 32.4315 1153.67 32.4315 Q1147.43 32.4315 1143.67 35.9558 Q1139.94 39.4801 1139.37 45.8805 L1165.95 45.84 Z" fill="#000000" fill-rule="nonzero" fill-opacity="1" /><path clip-path="url(#clip100)" d="M1223.35 45.1919 L1223.35 72.576 L1215.89 72.576 L1215.89 45.4349 Q1215.89 38.994 1213.38 35.7938 Q1210.87 32.5936 1205.85 32.5936 Q1199.81 32.5936 1196.33 36.4419 Q1192.85 40.2903 1192.85 46.9338 L1192.85 72.576 L1185.35 72.576 L1185.35 27.2059 L1192.85 27.2059 L1192.85 34.2544 Q1195.52 30.163 1199.12 28.1376 Q1202.77 26.1121 1207.51 26.1121 Q1215.33 26.1121 1219.34 30.9732 Q1223.35 35.7938 1223.35 45.1919 Z" fill="#000000" fill-rule="nonzero" fill-opacity="1" /><path clip-path="url(#clip100)" d="M1245.59 14.324 L1245.59 27.2059 L1260.94 27.2059 L1260.94 32.9987 L1245.59 32.9987 L1245.59 57.6282 Q1245.59 63.1779 1247.09 64.7578 Q1248.63 66.3376 1253.28 66.3376 L1260.94 66.3376 L1260.94 72.576 L1253.28 72.576 Q1244.66 72.576 1241.37 69.3758 Q1238.09 66.1351 1238.09 57.6282 L1238.09 32.9987 L1232.63 32.9987 L1232.63 27.2059 L1238.09 27.2059 L1238.09 14.324 L1245.59 14.324 Z" fill="#000000" fill-rule="nonzero" fill-opacity="1" /><path clip-path="url(#clip100)" d="M1334.83 45.1919 L1334.83 72.576 L1327.38 72.576 L1327.38 45.4349 Q1327.38 38.994 1324.86 35.7938 Q1322.35 32.5936 1317.33 32.5936 Q1311.29 32.5936 1307.81 36.4419 Q1304.33 40.2903 1304.33 46.9338 L1304.33 72.576 L1296.83 72.576 L1296.83 27.2059 L1304.33 27.2059 L1304.33 34.2544 Q1307 30.163 1310.6 28.1376 Q1314.25 26.1121 1318.99 26.1121 Q1326.81 26.1121 1330.82 30.9732 Q1334.83 35.7938 1334.83 45.1919 Z" fill="#000000" fill-rule="nonzero" fill-opacity="1" /><path clip-path="url(#clip100)" d="M1352.17 65.6895 L1365.54 65.6895 L1365.54 19.5497 L1350.99 22.4663 L1350.99 15.0127 L1365.45 12.096 L1373.64 12.096 L1373.64 65.6895 L1387 65.6895 L1387 72.576 L1352.17 72.576 L1352.17 65.6895 Z" fill="#000000" fill-rule="nonzero" fill-opacity="1" /><path clip-path="url(#clip100)" d="M1426.02 19.2256 L1405.36 51.5113 L1426.02 51.5113 L1426.02 19.2256 M1423.87 12.096 L1434.16 12.096 L1434.16 51.5113 L1442.79 51.5113 L1442.79 58.3168 L1434.16 58.3168 L1434.16 72.576 L1426.02 72.576 L1426.02 58.3168 L1398.71 58.3168 L1398.71 50.4176 L1423.87 12.096 Z" fill="#000000" fill-rule="nonzero" fill-opacity="1" /><path clip-path="url(#clip100)" d="M1473.82 17.4837 Q1467.5 17.4837 1464.3 23.7221 Q1461.14 29.92 1461.14 42.3968 Q1461.14 54.833 1464.3 61.0714 Q1467.5 67.2693 1473.82 67.2693 Q1480.18 67.2693 1483.34 61.0714 Q1486.54 54.833 1486.54 42.3968 Q1486.54 29.92 1483.34 23.7221 Q1480.18 17.4837 1473.82 17.4837 M1473.82 11.0023 Q1483.98 11.0023 1489.33 19.0636 Q1494.72 27.0843 1494.72 42.3968 Q1494.72 57.6687 1489.33 65.73 Q1483.98 73.7508 1473.82 73.7508 Q1463.65 73.7508 1458.26 65.73 Q1452.91 57.6687 1452.91 42.3968 Q1452.91 27.0843 1458.26 19.0636 Q1463.65 11.0023 1473.82 11.0023 Z" fill="#000000" fill-rule="nonzero" fill-opacity="1" /><path clip-path="url(#clip100)" d="M1516.15 65.6895 L1544.71 65.6895 L1544.71 72.576 L1506.3 72.576 L1506.3 65.6895 Q1510.96 60.8689 1518.98 52.7671 Q1527.04 44.6248 1529.11 42.2752 Q1533.04 37.8598 1534.58 34.8216 Q1536.16 31.7429 1536.16 28.7857 Q1536.16 23.9651 1532.76 20.927 Q1529.39 17.8888 1523.97 17.8888 Q1520.12 17.8888 1515.82 19.2256 Q1511.57 20.5624 1506.71 23.2765 L1506.71 15.0127 Q1511.65 13.0277 1515.95 12.015 Q1520.24 11.0023 1523.8 11.0023 Q1533.2 11.0023 1538.79 15.7013 Q1544.38 20.4004 1544.38 28.2591 Q1544.38 31.9859 1542.96 35.3482 Q1541.59 38.6699 1537.9 43.2069 Q1536.89 44.3817 1531.46 50.0125 Q1526.03 55.6027 1516.15 65.6895 Z" fill="#000000" fill-rule="nonzero" fill-opacity="1" /><polyline clip-path="url(#clip102)" style="stroke:#009af9; stroke-linecap:round; stroke-linejoin:round; stroke-width:8; stroke-opacity:1; fill:none" points="235.808,1386.4 273.869,160.256 311.929,272.718 349.99,365.144 388.051,440.938 426.112,501.311 464.173,550.258 502.234,590.394 540.295,623.849 578.356,652.314 616.417,676.996 654.478,698.735 692.539,718.104 730.6,735.5 768.66,751.199 806.721,765.387 844.782,778.182 882.843,789.647 920.904,799.972 958.965,809.349 997.026,817.926 1035.09,825.815 1073.15,833.095 1111.21,839.811 1149.27,845.984 1187.33,851.594 1225.39,856.634 1263.45,861.224 1301.51,865.467 1339.57,869.44 1377.64,873.191 1415.7,876.742 1453.76,880.094 1491.82,883.219 1529.88,886.055 1567.94,888.623 1606,891.013 1644.06,893.293 1682.12,895.507 1720.18,897.675 1758.24,899.794 1796.31,901.839 1834.37,903.76 1872.43,905.49 1910.49,907.092 1948.55,908.634 1986.61,910.165 2024.67,911.71 2062.73,913.271 2100.79,914.832 2138.85,916.353 2176.91,917.763 2214.98,919.041 2253.04,920.261 2291.1,920.826 "/>
<circle clip-path="url(#clip102)" cx="488.278" cy="665.613" r="18" fill="#e26f46" fill-rule="evenodd" fill-opacity="1" stroke="#000000" stroke-opacity="1" stroke-width="3.2"/>
<circle clip-path="url(#clip102)" cx="686.829" cy="605.547" r="18" fill="#e26f46" fill-rule="evenodd" fill-opacity="1" stroke="#000000" stroke-opacity="1" stroke-width="3.2"/>
<circle clip-path="url(#clip102)" cx="943.741" cy="861.826" r="18" fill="#e26f46" fill-rule="evenodd" fill-opacity="1" stroke="#000000" stroke-opacity="1" stroke-width="3.2"/>
<circle clip-path="url(#clip102)" cx="1182.89" cy="901.869" r="18" fill="#e26f46" fill-rule="evenodd" fill-opacity="1" stroke="#000000" stroke-opacity="1" stroke-width="3.2"/>
<circle clip-path="url(#clip102)" cx="1820.41" cy="885.852" r="18" fill="#e26f46" fill-rule="evenodd" fill-opacity="1" stroke="#000000" stroke-opacity="1" stroke-width="3.2"/>
<circle clip-path="url(#clip102)" cx="2229.57" cy="905.874" r="18" fill="#e26f46" fill-rule="evenodd" fill-opacity="1" stroke="#000000" stroke-opacity="1" stroke-width="3.2"/>
<path clip-path="url(#clip100)" d="M1678.04 322.316 L2280.14 322.316 L2280.14 166.796 L1678.04 166.796  Z" fill="#ffffff" fill-rule="evenodd" fill-opacity="1"/>
<polyline clip-path="url(#clip100)" style="stroke:#000000; stroke-linecap:round; stroke-linejoin:round; stroke-width:4; stroke-opacity:1; fill:none" points="1678.04,322.316 2280.14,322.316 2280.14,166.796 1678.04,166.796 1678.04,322.316 "/>
<polyline clip-path="url(#clip100)" style="stroke:#009af9; stroke-linecap:round; stroke-linejoin:round; stroke-width:8; stroke-opacity:1; fill:none" points="1702.25,218.636 1847.49,218.636 "/>
<path clip-path="url(#clip100)" d="M1871.69 201.356 L1878.66 201.356 L1887.48 224.874 L1896.35 201.356 L1903.32 201.356 L1903.32 235.916 L1898.75 235.916 L1898.75 205.569 L1889.84 229.272 L1885.14 229.272 L1876.23 205.569 L1876.23 235.916 L1871.69 235.916 L1871.69 201.356 Z" fill="#000000" fill-rule="nonzero" fill-opacity="1" /><path clip-path="url(#clip100)" d="M1922.46 212.976 Q1919.03 212.976 1917.04 215.661 Q1915.05 218.323 1915.05 222.976 Q1915.05 227.629 1917.02 230.314 Q1919.01 232.976 1922.46 232.976 Q1925.86 232.976 1927.85 230.291 Q1929.84 227.606 1929.84 222.976 Q1929.84 218.37 1927.85 215.684 Q1925.86 212.976 1922.46 212.976 M1922.46 209.365 Q1928.01 209.365 1931.19 212.976 Q1934.36 216.587 1934.36 222.976 Q1934.36 229.342 1931.19 232.976 Q1928.01 236.587 1922.46 236.587 Q1916.88 236.587 1913.71 232.976 Q1910.56 229.342 1910.56 222.976 Q1910.56 216.587 1913.71 212.976 Q1916.88 209.365 1922.46 209.365 Z" fill="#000000" fill-rule="nonzero" fill-opacity="1" /><path clip-path="url(#clip100)" d="M1958.48 213.925 L1958.48 199.897 L1962.74 199.897 L1962.74 235.916 L1958.48 235.916 L1958.48 232.027 Q1957.13 234.342 1955.07 235.476 Q1953.04 236.587 1950.17 236.587 Q1945.47 236.587 1942.5 232.837 Q1939.56 229.087 1939.56 222.976 Q1939.56 216.865 1942.5 213.115 Q1945.47 209.365 1950.17 209.365 Q1953.04 209.365 1955.07 210.499 Q1957.13 211.61 1958.48 213.925 M1943.96 222.976 Q1943.96 227.675 1945.88 230.36 Q1947.83 233.022 1951.21 233.022 Q1954.59 233.022 1956.53 230.36 Q1958.48 227.675 1958.48 222.976 Q1958.48 218.277 1956.53 215.615 Q1954.59 212.93 1951.21 212.93 Q1947.83 212.93 1945.88 215.615 Q1943.96 218.277 1943.96 222.976 Z" fill="#000000" fill-rule="nonzero" fill-opacity="1" /><path clip-path="url(#clip100)" d="M1993.68 221.888 L1993.68 223.971 L1974.1 223.971 Q1974.38 228.369 1976.74 230.684 Q1979.12 232.976 1983.36 232.976 Q1985.81 232.976 1988.11 232.374 Q1990.42 231.772 1992.69 230.569 L1992.69 234.596 Q1990.4 235.568 1987.99 236.078 Q1985.58 236.587 1983.11 236.587 Q1976.9 236.587 1973.27 232.976 Q1969.66 229.365 1969.66 223.207 Q1969.66 216.842 1973.08 213.115 Q1976.53 209.365 1982.37 209.365 Q1987.6 209.365 1990.63 212.745 Q1993.68 216.101 1993.68 221.888 M1989.43 220.638 Q1989.38 217.143 1987.46 215.059 Q1985.56 212.976 1982.41 212.976 Q1978.85 212.976 1976.69 214.99 Q1974.56 217.004 1974.24 220.661 L1989.43 220.638 Z" fill="#000000" fill-rule="nonzero" fill-opacity="1" /><path clip-path="url(#clip100)" d="M2000.68 199.897 L2004.93 199.897 L2004.93 235.916 L2000.68 235.916 L2000.68 199.897 Z" fill="#000000" fill-rule="nonzero" fill-opacity="1" /><path clip-path="url(#clip100)" d="M2033.78 205.198 L2033.78 218.184 L2039.66 218.184 Q2042.92 218.184 2044.7 216.495 Q2046.49 214.805 2046.49 211.68 Q2046.49 208.578 2044.7 206.888 Q2042.92 205.198 2039.66 205.198 L2033.78 205.198 M2029.1 201.356 L2039.66 201.356 Q2045.47 201.356 2048.43 203.995 Q2051.42 206.61 2051.42 211.68 Q2051.42 216.795 2048.43 219.411 Q2045.47 222.027 2039.66 222.027 L2033.78 222.027 L2033.78 235.916 L2029.1 235.916 L2029.1 201.356 Z" fill="#000000" fill-rule="nonzero" fill-opacity="1" /><path clip-path="url(#clip100)" d="M2071.69 213.971 Q2070.98 213.555 2070.12 213.37 Q2069.29 213.161 2068.27 213.161 Q2064.66 213.161 2062.71 215.522 Q2060.79 217.86 2060.79 222.258 L2060.79 235.916 L2056.51 235.916 L2056.51 209.99 L2060.79 209.99 L2060.79 214.018 Q2062.13 211.657 2064.29 210.522 Q2066.44 209.365 2069.52 209.365 Q2069.96 209.365 2070.49 209.434 Q2071.02 209.481 2071.67 209.596 L2071.69 213.971 Z" fill="#000000" fill-rule="nonzero" fill-opacity="1" /><path clip-path="url(#clip100)" d="M2097.3 221.888 L2097.3 223.971 L2077.71 223.971 Q2077.99 228.369 2080.35 230.684 Q2082.74 232.976 2086.97 232.976 Q2089.43 232.976 2091.72 232.374 Q2094.03 231.772 2096.3 230.569 L2096.3 234.596 Q2094.01 235.568 2091.6 236.078 Q2089.19 236.587 2086.72 236.587 Q2080.51 236.587 2076.88 232.976 Q2073.27 229.365 2073.27 223.207 Q2073.27 216.842 2076.69 213.115 Q2080.14 209.365 2085.98 209.365 Q2091.21 209.365 2094.24 212.745 Q2097.3 216.101 2097.3 221.888 M2093.04 220.638 Q2092.99 217.143 2091.07 215.059 Q2089.17 212.976 2086.02 212.976 Q2082.46 212.976 2080.3 214.99 Q2078.18 217.004 2077.85 220.661 L2093.04 220.638 Z" fill="#000000" fill-rule="nonzero" fill-opacity="1" /><path clip-path="url(#clip100)" d="M2121.35 213.925 L2121.35 199.897 L2125.61 199.897 L2125.61 235.916 L2121.35 235.916 L2121.35 232.027 Q2120 234.342 2117.94 235.476 Q2115.91 236.587 2113.04 236.587 Q2108.34 236.587 2105.37 232.837 Q2102.43 229.087 2102.43 222.976 Q2102.43 216.865 2105.37 213.115 Q2108.34 209.365 2113.04 209.365 Q2115.91 209.365 2117.94 210.499 Q2120 211.61 2121.35 213.925 M2106.83 222.976 Q2106.83 227.675 2108.75 230.36 Q2110.7 233.022 2114.08 233.022 Q2117.46 233.022 2119.4 230.36 Q2121.35 227.675 2121.35 222.976 Q2121.35 218.277 2119.4 215.615 Q2117.46 212.93 2114.08 212.93 Q2110.7 212.93 2108.75 215.615 Q2106.83 218.277 2106.83 222.976 Z" fill="#000000" fill-rule="nonzero" fill-opacity="1" /><path clip-path="url(#clip100)" d="M2134.38 209.99 L2138.64 209.99 L2138.64 235.916 L2134.38 235.916 L2134.38 209.99 M2134.38 199.897 L2138.64 199.897 L2138.64 205.291 L2134.38 205.291 L2134.38 199.897 Z" fill="#000000" fill-rule="nonzero" fill-opacity="1" /><path clip-path="url(#clip100)" d="M2166.21 210.985 L2166.21 214.967 Q2164.4 213.971 2162.57 213.485 Q2160.77 212.976 2158.92 212.976 Q2154.77 212.976 2152.48 215.615 Q2150.19 218.231 2150.19 222.976 Q2150.19 227.721 2152.48 230.36 Q2154.77 232.976 2158.92 232.976 Q2160.77 232.976 2162.57 232.49 Q2164.4 231.981 2166.21 230.985 L2166.21 234.92 Q2164.42 235.754 2162.5 236.17 Q2160.61 236.587 2158.45 236.587 Q2152.6 236.587 2149.15 232.906 Q2145.7 229.226 2145.7 222.976 Q2145.7 216.633 2149.17 212.999 Q2152.67 209.365 2158.73 209.365 Q2160.7 209.365 2162.57 209.782 Q2164.45 210.175 2166.21 210.985 Z" fill="#000000" fill-rule="nonzero" fill-opacity="1" /><path clip-path="url(#clip100)" d="M2177.83 202.629 L2177.83 209.99 L2186.6 209.99 L2186.6 213.3 L2177.83 213.3 L2177.83 227.374 Q2177.83 230.545 2178.68 231.448 Q2179.56 232.351 2182.23 232.351 L2186.6 232.351 L2186.6 235.916 L2182.23 235.916 Q2177.3 235.916 2175.42 234.087 Q2173.55 232.235 2173.55 227.374 L2173.55 213.3 L2170.42 213.3 L2170.42 209.99 L2173.55 209.99 L2173.55 202.629 L2177.83 202.629 Z" fill="#000000" fill-rule="nonzero" fill-opacity="1" /><path clip-path="url(#clip100)" d="M2192.2 209.99 L2196.46 209.99 L2196.46 235.916 L2192.2 235.916 L2192.2 209.99 M2192.2 199.897 L2196.46 199.897 L2196.46 205.291 L2192.2 205.291 L2192.2 199.897 Z" fill="#000000" fill-rule="nonzero" fill-opacity="1" /><path clip-path="url(#clip100)" d="M2215.42 212.976 Q2211.99 212.976 2210 215.661 Q2208.01 218.323 2208.01 222.976 Q2208.01 227.629 2209.98 230.314 Q2211.97 232.976 2215.42 232.976 Q2218.82 232.976 2220.81 230.291 Q2222.8 227.606 2222.8 222.976 Q2222.8 218.37 2220.81 215.684 Q2218.82 212.976 2215.42 212.976 M2215.42 209.365 Q2220.98 209.365 2224.15 212.976 Q2227.32 216.587 2227.32 222.976 Q2227.32 229.342 2224.15 232.976 Q2220.98 236.587 2215.42 236.587 Q2209.84 236.587 2206.67 232.976 Q2203.52 229.342 2203.52 222.976 Q2203.52 216.587 2206.67 212.976 Q2209.84 209.365 2215.42 209.365 Z" fill="#000000" fill-rule="nonzero" fill-opacity="1" /><path clip-path="url(#clip100)" d="M2255.93 220.268 L2255.93 235.916 L2251.67 235.916 L2251.67 220.407 Q2251.67 216.726 2250.23 214.897 Q2248.8 213.069 2245.93 213.069 Q2242.48 213.069 2240.49 215.268 Q2238.5 217.467 2238.5 221.263 L2238.5 235.916 L2234.22 235.916 L2234.22 209.99 L2238.5 209.99 L2238.5 214.018 Q2240.03 211.68 2242.09 210.522 Q2244.17 209.365 2246.88 209.365 Q2251.35 209.365 2253.64 212.143 Q2255.93 214.897 2255.93 220.268 Z" fill="#000000" fill-rule="nonzero" fill-opacity="1" /><circle clip-path="url(#clip100)" cx="1774.87" cy="270.476" r="20.9455" fill="#e26f46" fill-rule="evenodd" fill-opacity="1" stroke="#000000" stroke-opacity="1" stroke-width="3.72364"/>
<path clip-path="url(#clip100)" d="M1887.71 256.367 Q1882.62 256.367 1879.61 260.163 Q1876.63 263.96 1876.63 270.51 Q1876.63 277.038 1879.61 280.834 Q1882.62 284.631 1887.71 284.631 Q1892.81 284.631 1895.77 280.834 Q1898.75 277.038 1898.75 270.51 Q1898.75 263.96 1895.77 260.163 Q1892.81 256.367 1887.71 256.367 M1887.71 252.571 Q1894.98 252.571 1899.33 257.455 Q1903.69 262.316 1903.69 270.51 Q1903.69 278.682 1899.33 283.566 Q1894.98 288.427 1887.71 288.427 Q1880.42 288.427 1876.05 283.566 Q1871.69 278.705 1871.69 270.51 Q1871.69 262.316 1876.05 257.455 Q1880.42 252.571 1887.71 252.571 Z" fill="#000000" fill-rule="nonzero" fill-opacity="1" /><path clip-path="url(#clip100)" d="M1929.43 274.816 Q1929.43 270.117 1927.48 267.455 Q1925.56 264.77 1922.18 264.77 Q1918.8 264.77 1916.86 267.455 Q1914.94 270.117 1914.94 274.816 Q1914.94 279.515 1916.86 282.2 Q1918.8 284.862 1922.18 284.862 Q1925.56 284.862 1927.48 282.2 Q1929.43 279.515 1929.43 274.816 M1914.94 265.765 Q1916.28 263.45 1918.31 262.339 Q1920.38 261.205 1923.22 261.205 Q1927.94 261.205 1930.88 264.955 Q1933.85 268.705 1933.85 274.816 Q1933.85 280.927 1930.88 284.677 Q1927.94 288.427 1923.22 288.427 Q1920.38 288.427 1918.31 287.316 Q1916.28 286.182 1914.94 283.867 L1914.94 287.756 L1910.65 287.756 L1910.65 251.737 L1914.94 251.737 L1914.94 265.765 Z" fill="#000000" fill-rule="nonzero" fill-opacity="1" /><path clip-path="url(#clip100)" d="M1957.44 262.594 L1957.44 266.622 Q1955.63 265.696 1953.69 265.233 Q1951.74 264.77 1949.66 264.77 Q1946.49 264.77 1944.89 265.742 Q1943.31 266.714 1943.31 268.659 Q1943.31 270.14 1944.45 270.997 Q1945.58 271.83 1949.01 272.594 L1950.47 272.918 Q1955 273.89 1956.9 275.672 Q1958.82 277.432 1958.82 280.603 Q1958.82 284.214 1955.95 286.321 Q1953.11 288.427 1948.11 288.427 Q1946.02 288.427 1943.75 288.01 Q1941.51 287.617 1939.01 286.807 L1939.01 282.409 Q1941.37 283.635 1943.66 284.26 Q1945.95 284.862 1948.2 284.862 Q1951.21 284.862 1952.83 283.844 Q1954.45 282.802 1954.45 280.927 Q1954.45 279.191 1953.27 278.265 Q1952.11 277.339 1948.15 276.483 L1946.67 276.135 Q1942.71 275.302 1940.95 273.589 Q1939.19 271.853 1939.19 268.844 Q1939.19 265.186 1941.79 263.196 Q1944.38 261.205 1949.15 261.205 Q1951.51 261.205 1953.59 261.552 Q1955.68 261.899 1957.44 262.594 Z" fill="#000000" fill-rule="nonzero" fill-opacity="1" /><path clip-path="url(#clip100)" d="M1987.78 273.728 L1987.78 275.811 L1968.2 275.811 Q1968.48 280.209 1970.84 282.524 Q1973.22 284.816 1977.46 284.816 Q1979.91 284.816 1982.2 284.214 Q1984.52 283.612 1986.79 282.409 L1986.79 286.436 Q1984.5 287.408 1982.09 287.918 Q1979.68 288.427 1977.2 288.427 Q1971 288.427 1967.37 284.816 Q1963.75 281.205 1963.75 275.047 Q1963.75 268.682 1967.18 264.955 Q1970.63 261.205 1976.46 261.205 Q1981.69 261.205 1984.73 264.585 Q1987.78 267.941 1987.78 273.728 M1983.52 272.478 Q1983.48 268.983 1981.56 266.899 Q1979.66 264.816 1976.51 264.816 Q1972.94 264.816 1970.79 266.83 Q1968.66 268.844 1968.34 272.501 L1983.52 272.478 Z" fill="#000000" fill-rule="nonzero" fill-opacity="1" /><path clip-path="url(#clip100)" d="M2009.8 265.811 Q2009.08 265.395 2008.22 265.21 Q2007.39 265.001 2006.37 265.001 Q2002.76 265.001 2000.81 267.362 Q1998.89 269.7 1998.89 274.098 L1998.89 287.756 L1994.61 287.756 L1994.61 261.83 L1998.89 261.83 L1998.89 265.858 Q2000.24 263.497 2002.39 262.362 Q2004.54 261.205 2007.62 261.205 Q2008.06 261.205 2008.59 261.274 Q2009.12 261.321 2009.77 261.436 L2009.8 265.811 Z" fill="#000000" fill-rule="nonzero" fill-opacity="1" /><path clip-path="url(#clip100)" d="M2011.21 261.83 L2015.72 261.83 L2023.82 283.589 L2031.93 261.83 L2036.44 261.83 L2026.72 287.756 L2020.93 287.756 L2011.21 261.83 Z" fill="#000000" fill-rule="nonzero" fill-opacity="1" /><path clip-path="url(#clip100)" d="M2064.49 273.728 L2064.49 275.811 L2044.91 275.811 Q2045.19 280.209 2047.55 282.524 Q2049.93 284.816 2054.17 284.816 Q2056.62 284.816 2058.92 284.214 Q2061.23 283.612 2063.5 282.409 L2063.5 286.436 Q2061.21 287.408 2058.8 287.918 Q2056.39 288.427 2053.92 288.427 Q2047.71 288.427 2044.08 284.816 Q2040.47 281.205 2040.47 275.047 Q2040.47 268.682 2043.89 264.955 Q2047.34 261.205 2053.18 261.205 Q2058.41 261.205 2061.44 264.585 Q2064.49 267.941 2064.49 273.728 M2060.24 272.478 Q2060.19 268.983 2058.27 266.899 Q2056.37 264.816 2053.22 264.816 Q2049.66 264.816 2047.5 266.83 Q2045.37 268.844 2045.05 272.501 L2060.24 272.478 Z" fill="#000000" fill-rule="nonzero" fill-opacity="1" /><path clip-path="url(#clip100)" d="M2088.55 265.765 L2088.55 251.737 L2092.8 251.737 L2092.8 287.756 L2088.55 287.756 L2088.55 283.867 Q2087.2 286.182 2085.14 287.316 Q2083.11 288.427 2080.24 288.427 Q2075.54 288.427 2072.57 284.677 Q2069.63 280.927 2069.63 274.816 Q2069.63 268.705 2072.57 264.955 Q2075.54 261.205 2080.24 261.205 Q2083.11 261.205 2085.14 262.339 Q2087.2 263.45 2088.55 265.765 M2074.03 274.816 Q2074.03 279.515 2075.95 282.2 Q2077.9 284.862 2081.28 284.862 Q2084.66 284.862 2086.6 282.2 Q2088.55 279.515 2088.55 274.816 Q2088.55 270.117 2086.6 267.455 Q2084.66 264.77 2081.28 264.77 Q2077.9 264.77 2075.95 267.455 Q2074.03 270.117 2074.03 274.816 Z" fill="#000000" fill-rule="nonzero" fill-opacity="1" /><path clip-path="url(#clip100)" d="M2121.51 257.038 L2121.51 283.913 L2127.16 283.913 Q2134.31 283.913 2137.62 280.672 Q2140.95 277.432 2140.95 270.441 Q2140.95 263.497 2137.62 260.279 Q2134.31 257.038 2127.16 257.038 L2121.51 257.038 M2116.83 253.196 L2126.44 253.196 Q2136.49 253.196 2141.18 257.386 Q2145.88 261.552 2145.88 270.441 Q2145.88 279.376 2141.16 283.566 Q2136.44 287.756 2126.44 287.756 L2116.83 287.756 L2116.83 253.196 Z" fill="#000000" fill-rule="nonzero" fill-opacity="1" /><path clip-path="url(#clip100)" d="M2164.93 274.723 Q2159.77 274.723 2157.78 275.904 Q2155.79 277.084 2155.79 279.932 Q2155.79 282.2 2157.27 283.543 Q2158.78 284.862 2161.35 284.862 Q2164.89 284.862 2167.02 282.362 Q2169.17 279.839 2169.17 275.672 L2169.17 274.723 L2164.93 274.723 M2173.43 272.964 L2173.43 287.756 L2169.17 287.756 L2169.17 283.821 Q2167.71 286.182 2165.54 287.316 Q2163.36 288.427 2160.21 288.427 Q2156.23 288.427 2153.87 286.205 Q2151.53 283.959 2151.53 280.209 Q2151.53 275.834 2154.45 273.612 Q2157.39 271.39 2163.2 271.39 L2169.17 271.39 L2169.17 270.973 Q2169.17 268.034 2167.23 266.436 Q2165.3 264.816 2161.81 264.816 Q2159.59 264.816 2157.48 265.348 Q2155.37 265.881 2153.43 266.946 L2153.43 263.01 Q2155.77 262.108 2157.97 261.668 Q2160.17 261.205 2162.25 261.205 Q2167.87 261.205 2170.65 264.122 Q2173.43 267.038 2173.43 272.964 Z" fill="#000000" fill-rule="nonzero" fill-opacity="1" /><path clip-path="url(#clip100)" d="M2186.42 254.469 L2186.42 261.83 L2195.19 261.83 L2195.19 265.14 L2186.42 265.14 L2186.42 279.214 Q2186.42 282.385 2187.27 283.288 Q2188.15 284.191 2190.81 284.191 L2195.19 284.191 L2195.19 287.756 L2190.81 287.756 Q2185.88 287.756 2184.01 285.927 Q2182.13 284.075 2182.13 279.214 L2182.13 265.14 L2179.01 265.14 L2179.01 261.83 L2182.13 261.83 L2182.13 254.469 L2186.42 254.469 Z" fill="#000000" fill-rule="nonzero" fill-opacity="1" /><path clip-path="url(#clip100)" d="M2212.57 274.723 Q2207.41 274.723 2205.42 275.904 Q2203.43 277.084 2203.43 279.932 Q2203.43 282.2 2204.91 283.543 Q2206.42 284.862 2208.98 284.862 Q2212.53 284.862 2214.66 282.362 Q2216.81 279.839 2216.81 275.672 L2216.81 274.723 L2212.57 274.723 M2221.07 272.964 L2221.07 287.756 L2216.81 287.756 L2216.81 283.821 Q2215.35 286.182 2213.17 287.316 Q2211 288.427 2207.85 288.427 Q2203.87 288.427 2201.51 286.205 Q2199.17 283.959 2199.17 280.209 Q2199.17 275.834 2202.09 273.612 Q2205.03 271.39 2210.84 271.39 L2216.81 271.39 L2216.81 270.973 Q2216.81 268.034 2214.86 266.436 Q2212.94 264.816 2209.45 264.816 Q2207.23 264.816 2205.12 265.348 Q2203.01 265.881 2201.07 266.946 L2201.07 263.01 Q2203.41 262.108 2205.61 261.668 Q2207.8 261.205 2209.89 261.205 Q2215.51 261.205 2218.29 264.122 Q2221.07 267.038 2221.07 272.964 Z" fill="#000000" fill-rule="nonzero" fill-opacity="1" /></svg>
