<?xml version="1.0" encoding="utf-8"?>
<svg xmlns="http://www.w3.org/2000/svg" xmlns:xlink="http://www.w3.org/1999/xlink" width="600" height="400" viewBox="0 0 2400 1600">
<defs>
  <clipPath id="clip140">
    <rect x="0" y="0" width="2400" height="1600"/>
  </clipPath>
</defs>
<path clip-path="url(#clip140)" d="M0 1600 L2400 1600 L2400 0 L0 0  Z" fill="#ffffff" fill-rule="evenodd" fill-opacity="1"/>
<defs>
  <clipPath id="clip141">
    <rect x="480" y="0" width="1681" height="1600"/>
  </clipPath>
</defs>
<path clip-path="url(#clip140)" d="M174.149 1423.18 L2352.76 1423.18 L2352.76 123.472 L174.149 123.472  Z" fill="#ffffff" fill-rule="evenodd" fill-opacity="1"/>
<defs>
  <clipPath id="clip142">
    <rect x="174" y="123" width="2180" height="1301"/>
  </clipPath>
</defs>
<polyline clip-path="url(#clip142)" style="stroke:#000000; stroke-linecap:round; stroke-linejoin:round; stroke-width:2; stroke-opacity:0.1; fill:none" points="220.47,1423.18 220.47,123.472 "/>
<polyline clip-path="url(#clip142)" style="stroke:#000000; stroke-linecap:round; stroke-linejoin:round; stroke-width:2; stroke-opacity:0.1; fill:none" points="527.229,1423.18 527.229,123.472 "/>
<polyline clip-path="url(#clip142)" style="stroke:#000000; stroke-linecap:round; stroke-linejoin:round; stroke-width:2; stroke-opacity:0.1; fill:none" points="833.989,1423.18 833.989,123.472 "/>
<polyline clip-path="url(#clip142)" style="stroke:#000000; stroke-linecap:round; stroke-linejoin:round; stroke-width:2; stroke-opacity:0.1; fill:none" points="1140.75,1423.18 1140.75,123.472 "/>
<polyline clip-path="url(#clip142)" style="stroke:#000000; stroke-linecap:round; stroke-linejoin:round; stroke-width:2; stroke-opacity:0.1; fill:none" points="1447.51,1423.18 1447.51,123.472 "/>
<polyline clip-path="url(#clip142)" style="stroke:#000000; stroke-linecap:round; stroke-linejoin:round; stroke-width:2; stroke-opacity:0.1; fill:none" points="1754.27,1423.18 1754.27,123.472 "/>
<polyline clip-path="url(#clip142)" style="stroke:#000000; stroke-linecap:round; stroke-linejoin:round; stroke-width:2; stroke-opacity:0.1; fill:none" points="2061.03,1423.18 2061.03,123.472 "/>
<polyline clip-path="url(#clip142)" style="stroke:#000000; stroke-linecap:round; stroke-linejoin:round; stroke-width:2; stroke-opacity:0.1; fill:none" points="174.149,1386.4 2352.76,1386.4 "/>
<polyline clip-path="url(#clip142)" style="stroke:#000000; stroke-linecap:round; stroke-linejoin:round; stroke-width:2; stroke-opacity:0.1; fill:none" points="174.149,1051.11 2352.76,1051.11 "/>
<polyline clip-path="url(#clip142)" style="stroke:#000000; stroke-linecap:round; stroke-linejoin:round; stroke-width:2; stroke-opacity:0.1; fill:none" points="174.149,715.82 2352.76,715.82 "/>
<polyline clip-path="url(#clip142)" style="stroke:#000000; stroke-linecap:round; stroke-linejoin:round; stroke-width:2; stroke-opacity:0.1; fill:none" points="174.149,380.533 2352.76,380.533 "/>
<polyline clip-path="url(#clip140)" style="stroke:#000000; stroke-linecap:round; stroke-linejoin:round; stroke-width:4; stroke-opacity:1; fill:none" points="174.149,1423.18 2352.76,1423.18 "/>
<polyline clip-path="url(#clip140)" style="stroke:#000000; stroke-linecap:round; stroke-linejoin:round; stroke-width:4; stroke-opacity:1; fill:none" points="220.47,1423.18 220.47,1404.28 "/>
<polyline clip-path="url(#clip140)" style="stroke:#000000; stroke-linecap:round; stroke-linejoin:round; stroke-width:4; stroke-opacity:1; fill:none" points="527.229,1423.18 527.229,1404.28 "/>
<polyline clip-path="url(#clip140)" style="stroke:#000000; stroke-linecap:round; stroke-linejoin:round; stroke-width:4; stroke-opacity:1; fill:none" points="833.989,1423.18 833.989,1404.28 "/>
<polyline clip-path="url(#clip140)" style="stroke:#000000; stroke-linecap:round; stroke-linejoin:round; stroke-width:4; stroke-opacity:1; fill:none" points="1140.75,1423.18 1140.75,1404.28 "/>
<polyline clip-path="url(#clip140)" style="stroke:#000000; stroke-linecap:round; stroke-linejoin:round; stroke-width:4; stroke-opacity:1; fill:none" points="1447.51,1423.18 1447.51,1404.28 "/>
<polyline clip-path="url(#clip140)" style="stroke:#000000; stroke-linecap:round; stroke-linejoin:round; stroke-width:4; stroke-opacity:1; fill:none" points="1754.27,1423.18 1754.27,1404.28 "/>
<polyline clip-path="url(#clip140)" style="stroke:#000000; stroke-linecap:round; stroke-linejoin:round; stroke-width:4; stroke-opacity:1; fill:none" points="2061.03,1423.18 2061.03,1404.28 "/>
<path clip-path="url(#clip140)" d="M220.47 1454.1 Q216.859 1454.1 215.03 1457.66 Q213.224 1461.2 213.224 1468.33 Q213.224 1475.44 215.03 1479.01 Q216.859 1482.55 220.47 1482.55 Q224.104 1482.55 225.909 1479.01 Q227.738 1475.44 227.738 1468.33 Q227.738 1461.2 225.909 1457.66 Q224.104 1454.1 220.47 1454.1 M220.47 1450.39 Q226.28 1450.39 229.335 1455 Q232.414 1459.58 232.414 1468.33 Q232.414 1477.06 229.335 1481.67 Q226.28 1486.25 220.47 1486.25 Q214.659 1486.25 211.581 1481.67 Q208.525 1477.06 208.525 1468.33 Q208.525 1459.58 211.581 1455 Q214.659 1450.39 220.47 1450.39 Z" fill="#000000" fill-rule="nonzero" fill-opacity="1" /><path clip-path="url(#clip140)" d="M506.003 1481.64 L522.322 1481.64 L522.322 1485.58 L500.378 1485.58 L500.378 1481.64 Q503.04 1478.89 507.623 1474.26 Q512.229 1469.61 513.41 1468.27 Q515.655 1465.74 516.535 1464.01 Q517.438 1462.25 517.438 1460.56 Q517.438 1457.8 515.493 1456.07 Q513.572 1454.33 510.47 1454.33 Q508.271 1454.33 505.817 1455.09 Q503.387 1455.86 500.609 1457.41 L500.609 1452.69 Q503.433 1451.55 505.887 1450.97 Q508.34 1450.39 510.378 1450.39 Q515.748 1450.39 518.942 1453.08 Q522.137 1455.77 522.137 1460.26 Q522.137 1462.39 521.327 1464.31 Q520.539 1466.2 518.433 1468.8 Q517.854 1469.47 514.752 1472.69 Q511.651 1475.88 506.003 1481.64 Z" fill="#000000" fill-rule="nonzero" fill-opacity="1" /><path clip-path="url(#clip140)" d="M542.137 1454.1 Q538.526 1454.1 536.697 1457.66 Q534.891 1461.2 534.891 1468.33 Q534.891 1475.44 536.697 1479.01 Q538.526 1482.55 542.137 1482.55 Q545.771 1482.55 547.576 1479.01 Q549.405 1475.44 549.405 1468.33 Q549.405 1461.2 547.576 1457.66 Q545.771 1454.1 542.137 1454.1 M542.137 1450.39 Q547.947 1450.39 551.002 1455 Q554.081 1459.58 554.081 1468.33 Q554.081 1477.06 551.002 1481.67 Q547.947 1486.25 542.137 1486.25 Q536.326 1486.25 533.248 1481.67 Q530.192 1477.06 530.192 1468.33 Q530.192 1459.58 533.248 1455 Q536.326 1450.39 542.137 1450.39 Z" fill="#000000" fill-rule="nonzero" fill-opacity="1" /><path clip-path="url(#clip140)" d="M822.16 1455.09 L810.355 1473.54 L822.16 1473.54 L822.16 1455.09 M820.933 1451.02 L826.813 1451.02 L826.813 1473.54 L831.744 1473.54 L831.744 1477.43 L826.813 1477.43 L826.813 1485.58 L822.16 1485.58 L822.16 1477.43 L806.559 1477.43 L806.559 1472.92 L820.933 1451.02 Z" fill="#000000" fill-rule="nonzero" fill-opacity="1" /><path clip-path="url(#clip140)" d="M849.475 1454.1 Q845.864 1454.1 844.035 1457.66 Q842.23 1461.2 842.23 1468.33 Q842.23 1475.44 844.035 1479.01 Q845.864 1482.55 849.475 1482.55 Q853.109 1482.55 854.915 1479.01 Q856.743 1475.44 856.743 1468.33 Q856.743 1461.2 854.915 1457.66 Q853.109 1454.1 849.475 1454.1 M849.475 1450.39 Q855.285 1450.39 858.341 1455 Q861.419 1459.58 861.419 1468.33 Q861.419 1477.06 858.341 1481.67 Q855.285 1486.25 849.475 1486.25 Q843.665 1486.25 840.586 1481.67 Q837.531 1477.06 837.531 1468.33 Q837.531 1459.58 840.586 1455 Q843.665 1450.39 849.475 1450.39 Z" fill="#000000" fill-rule="nonzero" fill-opacity="1" /><path clip-path="url(#clip140)" d="M1126.15 1466.44 Q1123.01 1466.44 1121.15 1468.59 Q1119.33 1470.74 1119.33 1474.49 Q1119.33 1478.22 1121.15 1480.39 Q1123.01 1482.55 1126.15 1482.55 Q1129.3 1482.55 1131.13 1480.39 Q1132.98 1478.22 1132.98 1474.49 Q1132.98 1470.74 1131.13 1468.59 Q1129.3 1466.44 1126.15 1466.44 M1135.44 1451.78 L1135.44 1456.04 Q1133.68 1455.21 1131.87 1454.77 Q1130.09 1454.33 1128.33 1454.33 Q1123.7 1454.33 1121.25 1457.45 Q1118.82 1460.58 1118.47 1466.9 Q1119.83 1464.89 1121.89 1463.82 Q1123.95 1462.73 1126.43 1462.73 Q1131.64 1462.73 1134.65 1465.9 Q1137.68 1469.05 1137.68 1474.49 Q1137.68 1479.82 1134.53 1483.03 Q1131.39 1486.25 1126.15 1486.25 Q1120.16 1486.25 1116.99 1481.67 Q1113.82 1477.06 1113.82 1468.33 Q1113.82 1460.14 1117.7 1455.28 Q1121.59 1450.39 1128.14 1450.39 Q1129.9 1450.39 1131.69 1450.74 Q1133.49 1451.09 1135.44 1451.78 Z" fill="#000000" fill-rule="nonzero" fill-opacity="1" /><path clip-path="url(#clip140)" d="M1155.74 1454.1 Q1152.13 1454.1 1150.3 1457.66 Q1148.49 1461.2 1148.49 1468.33 Q1148.49 1475.44 1150.3 1479.01 Q1152.13 1482.55 1155.74 1482.55 Q1159.37 1482.55 1161.18 1479.01 Q1163.01 1475.44 1163.01 1468.33 Q1163.01 1461.2 1161.18 1457.66 Q1159.37 1454.1 1155.74 1454.1 M1155.74 1450.39 Q1161.55 1450.39 1164.6 1455 Q1167.68 1459.58 1167.68 1468.33 Q1167.68 1477.06 1164.6 1481.67 Q1161.55 1486.25 1155.74 1486.25 Q1149.93 1486.25 1146.85 1481.67 Q1143.79 1477.06 1143.79 1468.33 Q1143.79 1459.58 1146.85 1455 Q1149.93 1450.39 1155.74 1450.39 Z" fill="#000000" fill-rule="nonzero" fill-opacity="1" /><path clip-path="url(#clip140)" d="M1432.38 1469.17 Q1429.05 1469.17 1427.13 1470.95 Q1425.23 1472.73 1425.23 1475.86 Q1425.23 1478.98 1427.13 1480.77 Q1429.05 1482.55 1432.38 1482.55 Q1435.71 1482.55 1437.64 1480.77 Q1439.56 1478.96 1439.56 1475.86 Q1439.56 1472.73 1437.64 1470.95 Q1435.74 1469.17 1432.38 1469.17 M1427.71 1467.18 Q1424.7 1466.44 1423.01 1464.38 Q1421.34 1462.32 1421.34 1459.35 Q1421.34 1455.21 1424.28 1452.8 Q1427.24 1450.39 1432.38 1450.39 Q1437.54 1450.39 1440.48 1452.8 Q1443.42 1455.21 1443.42 1459.35 Q1443.42 1462.32 1441.73 1464.38 Q1440.07 1466.44 1437.08 1467.18 Q1440.46 1467.96 1442.33 1470.26 Q1444.23 1472.55 1444.23 1475.86 Q1444.23 1480.88 1441.15 1483.57 Q1438.1 1486.25 1432.38 1486.25 Q1426.66 1486.25 1423.58 1483.57 Q1420.53 1480.88 1420.53 1475.86 Q1420.53 1472.55 1422.43 1470.26 Q1424.33 1467.96 1427.71 1467.18 M1425.99 1459.79 Q1425.99 1462.48 1427.66 1463.98 Q1429.35 1465.49 1432.38 1465.49 Q1435.39 1465.49 1437.08 1463.98 Q1438.79 1462.48 1438.79 1459.79 Q1438.79 1457.11 1437.08 1455.6 Q1435.39 1454.1 1432.38 1454.1 Q1429.35 1454.1 1427.66 1455.6 Q1425.99 1457.11 1425.99 1459.79 Z" fill="#000000" fill-rule="nonzero" fill-opacity="1" /><path clip-path="url(#clip140)" d="M1462.54 1454.1 Q1458.93 1454.1 1457.1 1457.66 Q1455.3 1461.2 1455.3 1468.33 Q1455.3 1475.44 1457.1 1479.01 Q1458.93 1482.55 1462.54 1482.55 Q1466.18 1482.55 1467.98 1479.01 Q1469.81 1475.44 1469.81 1468.33 Q1469.81 1461.2 1467.98 1457.66 Q1466.18 1454.1 1462.54 1454.1 M1462.54 1450.39 Q1468.35 1450.39 1471.41 1455 Q1474.49 1459.58 1474.49 1468.33 Q1474.49 1477.06 1471.41 1481.67 Q1468.35 1486.25 1462.54 1486.25 Q1456.73 1486.25 1453.65 1481.67 Q1450.6 1477.06 1450.6 1468.33 Q1450.6 1459.58 1453.65 1455 Q1456.73 1450.39 1462.54 1450.39 Z" fill="#000000" fill-rule="nonzero" fill-opacity="1" /><path clip-path="url(#clip140)" d="M1713.87 1481.64 L1721.51 1481.64 L1721.51 1455.28 L1713.2 1456.95 L1713.2 1452.69 L1721.47 1451.02 L1726.14 1451.02 L1726.14 1481.64 L1733.78 1481.64 L1733.78 1485.58 L1713.87 1485.58 L1713.87 1481.64 Z" fill="#000000" fill-rule="nonzero" fill-opacity="1" /><path clip-path="url(#clip140)" d="M1753.23 1454.1 Q1749.62 1454.1 1747.79 1457.66 Q1745.98 1461.2 1745.98 1468.33 Q1745.98 1475.44 1747.79 1479.01 Q1749.62 1482.55 1753.23 1482.55 Q1756.86 1482.55 1758.67 1479.01 Q1760.49 1475.44 1760.49 1468.33 Q1760.49 1461.2 1758.67 1457.66 Q1756.86 1454.1 1753.23 1454.1 M1753.23 1450.39 Q1759.04 1450.39 1762.09 1455 Q1765.17 1459.58 1765.17 1468.33 Q1765.17 1477.06 1762.09 1481.67 Q1759.04 1486.25 1753.23 1486.25 Q1747.42 1486.25 1744.34 1481.67 Q1741.28 1477.06 1741.28 1468.33 Q1741.28 1459.58 1744.34 1455 Q1747.42 1450.39 1753.23 1450.39 Z" fill="#000000" fill-rule="nonzero" fill-opacity="1" /><path clip-path="url(#clip140)" d="M1783.39 1454.1 Q1779.78 1454.1 1777.95 1457.66 Q1776.14 1461.2 1776.14 1468.33 Q1776.14 1475.44 1777.95 1479.01 Q1779.78 1482.55 1783.39 1482.55 Q1787.02 1482.55 1788.83 1479.01 Q1790.66 1475.44 1790.66 1468.33 Q1790.66 1461.2 1788.83 1457.66 Q1787.02 1454.1 1783.39 1454.1 M1783.39 1450.39 Q1789.2 1450.39 1792.25 1455 Q1795.33 1459.58 1795.33 1468.33 Q1795.33 1477.06 1792.25 1481.67 Q1789.2 1486.25 1783.39 1486.25 Q1777.58 1486.25 1774.5 1481.67 Q1771.44 1477.06 1771.44 1468.33 Q1771.44 1459.58 1774.5 1455 Q1777.58 1450.39 1783.39 1450.39 Z" fill="#000000" fill-rule="nonzero" fill-opacity="1" /><path clip-path="url(#clip140)" d="M2020.63 1481.64 L2028.27 1481.64 L2028.27 1455.28 L2019.96 1456.95 L2019.96 1452.69 L2028.23 1451.02 L2032.9 1451.02 L2032.9 1481.64 L2040.54 1481.64 L2040.54 1485.58 L2020.63 1485.58 L2020.63 1481.64 Z" fill="#000000" fill-rule="nonzero" fill-opacity="1" /><path clip-path="url(#clip140)" d="M2054.01 1481.64 L2070.33 1481.64 L2070.33 1485.58 L2048.39 1485.58 L2048.39 1481.64 Q2051.05 1478.89 2055.63 1474.26 Q2060.24 1469.61 2061.42 1468.27 Q2063.67 1465.74 2064.55 1464.01 Q2065.45 1462.25 2065.45 1460.56 Q2065.45 1457.8 2063.5 1456.07 Q2061.58 1454.33 2058.48 1454.33 Q2056.28 1454.33 2053.83 1455.09 Q2051.4 1455.86 2048.62 1457.41 L2048.62 1452.69 Q2051.44 1451.55 2053.9 1450.97 Q2056.35 1450.39 2058.39 1450.39 Q2063.76 1450.39 2066.95 1453.08 Q2070.15 1455.77 2070.15 1460.26 Q2070.15 1462.39 2069.34 1464.31 Q2068.55 1466.2 2066.44 1468.8 Q2065.87 1469.47 2062.76 1472.69 Q2059.66 1475.88 2054.01 1481.64 Z" fill="#000000" fill-rule="nonzero" fill-opacity="1" /><path clip-path="url(#clip140)" d="M2090.15 1454.1 Q2086.54 1454.1 2084.71 1457.66 Q2082.9 1461.2 2082.9 1468.33 Q2082.9 1475.44 2084.71 1479.01 Q2086.54 1482.55 2090.15 1482.55 Q2093.78 1482.55 2095.59 1479.01 Q2097.42 1475.44 2097.42 1468.33 Q2097.42 1461.2 2095.59 1457.66 Q2093.78 1454.1 2090.15 1454.1 M2090.15 1450.39 Q2095.96 1450.39 2099.01 1455 Q2102.09 1459.58 2102.09 1468.33 Q2102.09 1477.06 2099.01 1481.67 Q2095.96 1486.25 2090.15 1486.25 Q2084.34 1486.25 2081.26 1481.67 Q2078.2 1477.06 2078.2 1468.33 Q2078.2 1459.58 2081.26 1455 Q2084.34 1450.39 2090.15 1450.39 Z" fill="#000000" fill-rule="nonzero" fill-opacity="1" /><path clip-path="url(#clip140)" d="M1185.33 1520.52 L1225.53 1520.52 L1225.53 1525.93 L1208.66 1525.93 L1208.66 1568.04 L1202.2 1568.04 L1202.2 1525.93 L1185.33 1525.93 L1185.33 1520.52 Z" fill="#000000" fill-rule="nonzero" fill-opacity="1" /><path clip-path="url(#clip140)" d="M1229.48 1532.4 L1235.33 1532.4 L1235.33 1568.04 L1229.48 1568.04 L1229.48 1532.4 M1229.48 1518.52 L1235.33 1518.52 L1235.33 1525.93 L1229.48 1525.93 L1229.48 1518.52 Z" fill="#000000" fill-rule="nonzero" fill-opacity="1" /><path clip-path="url(#clip140)" d="M1275.34 1539.24 Q1277.54 1535.29 1280.59 1533.41 Q1283.65 1531.54 1287.79 1531.54 Q1293.36 1531.54 1296.38 1535.45 Q1299.4 1539.33 1299.4 1546.53 L1299.4 1568.04 L1293.51 1568.04 L1293.51 1546.72 Q1293.51 1541.59 1291.7 1539.11 Q1289.89 1536.63 1286.16 1536.63 Q1281.61 1536.63 1278.97 1539.65 Q1276.33 1542.68 1276.33 1547.9 L1276.33 1568.04 L1270.44 1568.04 L1270.44 1546.72 Q1270.44 1541.56 1268.62 1539.11 Q1266.81 1536.63 1263.02 1536.63 Q1258.53 1536.63 1255.89 1539.68 Q1253.25 1542.71 1253.25 1547.9 L1253.25 1568.04 L1247.36 1568.04 L1247.36 1532.4 L1253.25 1532.4 L1253.25 1537.93 Q1255.26 1534.66 1258.06 1533.1 Q1260.86 1531.54 1264.71 1531.54 Q1268.59 1531.54 1271.3 1533.51 Q1274.04 1535.48 1275.34 1539.24 Z" fill="#000000" fill-rule="nonzero" fill-opacity="1" /><path clip-path="url(#clip140)" d="M1341.58 1548.76 L1341.58 1551.62 L1314.65 1551.62 Q1315.03 1557.67 1318.28 1560.85 Q1321.56 1564 1327.38 1564 Q1330.75 1564 1333.9 1563.17 Q1337.09 1562.35 1340.21 1560.69 L1340.21 1566.23 Q1337.06 1567.57 1333.75 1568.27 Q1330.44 1568.97 1327.03 1568.97 Q1318.5 1568.97 1313.5 1564 Q1308.54 1559.04 1308.54 1550.57 Q1308.54 1541.82 1313.25 1536.69 Q1317.99 1531.54 1326.01 1531.54 Q1333.2 1531.54 1337.37 1536.18 Q1341.58 1540.8 1341.58 1548.76 M1335.72 1547.04 Q1335.66 1542.23 1333.01 1539.37 Q1330.4 1536.5 1326.08 1536.5 Q1321.17 1536.5 1318.21 1539.27 Q1315.29 1542.04 1314.84 1547.07 L1335.72 1547.04 Z" fill="#000000" fill-rule="nonzero" fill-opacity="1" /><polyline clip-path="url(#clip140)" style="stroke:#000000; stroke-linecap:round; stroke-linejoin:round; stroke-width:4; stroke-opacity:1; fill:none" points="174.149,1423.18 174.149,123.472 "/>
<polyline clip-path="url(#clip140)" style="stroke:#000000; stroke-linecap:round; stroke-linejoin:round; stroke-width:4; stroke-opacity:1; fill:none" points="174.149,1386.4 193.047,1386.4 "/>
<polyline clip-path="url(#clip140)" style="stroke:#000000; stroke-linecap:round; stroke-linejoin:round; stroke-width:4; stroke-opacity:1; fill:none" points="174.149,1051.11 193.047,1051.11 "/>
<polyline clip-path="url(#clip140)" style="stroke:#000000; stroke-linecap:round; stroke-linejoin:round; stroke-width:4; stroke-opacity:1; fill:none" points="174.149,715.82 193.047,715.82 "/>
<polyline clip-path="url(#clip140)" style="stroke:#000000; stroke-linecap:round; stroke-linejoin:round; stroke-width:4; stroke-opacity:1; fill:none" points="174.149,380.533 193.047,380.533 "/>
<path clip-path="url(#clip140)" d="M126.205 1372.19 Q122.593 1372.19 120.765 1375.76 Q118.959 1379.3 118.959 1386.43 Q118.959 1393.54 120.765 1397.1 Q122.593 1400.64 126.205 1400.64 Q129.839 1400.64 131.644 1397.1 Q133.473 1393.54 133.473 1386.43 Q133.473 1379.3 131.644 1375.76 Q129.839 1372.19 126.205 1372.19 M126.205 1368.49 Q132.015 1368.49 135.07 1373.1 Q138.149 1377.68 138.149 1386.43 Q138.149 1395.16 135.07 1399.76 Q132.015 1404.35 126.205 1404.35 Q120.394 1404.35 117.316 1399.76 Q114.26 1395.16 114.26 1386.43 Q114.26 1377.68 117.316 1373.1 Q120.394 1368.49 126.205 1368.49 Z" fill="#000000" fill-rule="nonzero" fill-opacity="1" /><path clip-path="url(#clip140)" d="M118.242 1064.45 L125.88 1064.45 L125.88 1038.09 L117.57 1039.75 L117.57 1035.49 L125.834 1033.83 L130.51 1033.83 L130.51 1064.45 L138.149 1064.45 L138.149 1068.39 L118.242 1068.39 L118.242 1064.45 Z" fill="#000000" fill-rule="nonzero" fill-opacity="1" /><path clip-path="url(#clip140)" d="M121.83 729.165 L138.149 729.165 L138.149 733.1 L116.205 733.1 L116.205 729.165 Q118.867 726.41 123.45 721.781 Q128.056 717.128 129.237 715.786 Q131.482 713.262 132.362 711.526 Q133.265 709.767 133.265 708.077 Q133.265 705.323 131.32 703.587 Q129.399 701.85 126.297 701.85 Q124.098 701.85 121.644 702.614 Q119.214 703.378 116.436 704.929 L116.436 700.207 Q119.26 699.073 121.714 698.494 Q124.168 697.915 126.205 697.915 Q131.575 697.915 134.769 700.6 Q137.964 703.286 137.964 707.776 Q137.964 709.906 137.154 711.827 Q136.367 713.725 134.26 716.318 Q133.681 716.989 130.58 720.207 Q127.478 723.401 121.83 729.165 Z" fill="#000000" fill-rule="nonzero" fill-opacity="1" /><path clip-path="url(#clip140)" d="M131.019 379.178 Q134.376 379.896 136.251 382.164 Q138.149 384.433 138.149 387.766 Q138.149 392.882 134.63 395.683 Q131.112 398.484 124.63 398.484 Q122.455 398.484 120.14 398.044 Q117.848 397.627 115.394 396.771 L115.394 392.257 Q117.339 393.391 119.654 393.97 Q121.968 394.549 124.492 394.549 Q128.89 394.549 131.181 392.813 Q133.496 391.076 133.496 387.766 Q133.496 384.711 131.343 382.998 Q129.214 381.262 125.394 381.262 L121.367 381.262 L121.367 377.419 L125.58 377.419 Q129.029 377.419 130.857 376.053 Q132.686 374.664 132.686 372.072 Q132.686 369.41 130.788 367.998 Q128.913 366.563 125.394 366.563 Q123.473 366.563 121.274 366.979 Q119.075 367.396 116.436 368.276 L116.436 364.109 Q119.098 363.368 121.413 362.998 Q123.751 362.628 125.811 362.628 Q131.135 362.628 134.237 365.058 Q137.339 367.465 137.339 371.586 Q137.339 374.456 135.695 376.447 Q134.052 378.414 131.019 379.178 Z" fill="#000000" fill-rule="nonzero" fill-opacity="1" /><path clip-path="url(#clip140)" d="M20.1444 820.225 L26.9239 820.225 Q23.9002 823.472 22.4043 827.164 Q20.9083 830.824 20.9083 834.962 Q20.9083 843.11 25.9054 847.439 Q30.8707 851.767 40.2919 851.767 Q49.6813 851.767 54.6784 847.439 Q59.6436 843.11 59.6436 834.962 Q59.6436 830.824 58.1477 827.164 Q56.6518 823.472 53.6281 820.225 L60.3439 820.225 Q62.6355 823.599 63.7814 827.387 Q64.9272 831.143 64.9272 835.344 Q64.9272 846.134 58.3387 852.34 Q51.7183 858.547 40.2919 858.547 Q28.8336 858.547 22.2451 852.34 Q15.6248 846.134 15.6248 835.344 Q15.6248 831.079 16.7706 827.323 Q17.8846 823.535 20.1444 820.225 Z" fill="#000000" fill-rule="nonzero" fill-opacity="1" /><path clip-path="url(#clip140)" d="M16.4842 816.883 L16.4842 776.684 L21.895 776.684 L21.895 793.553 L64.0042 793.553 L64.0042 800.014 L21.895 800.014 L21.895 816.883 L16.4842 816.883 Z" fill="#000000" fill-rule="nonzero" fill-opacity="1" /><path clip-path="url(#clip140)" d="M16.4842 770.477 L16.4842 761.82 L56.238 740.749 L16.4842 740.749 L16.4842 734.511 L64.0042 734.511 L64.0042 743.168 L24.2503 764.239 L64.0042 764.239 L64.0042 770.477 L16.4842 770.477 Z" fill="#000000" fill-rule="nonzero" fill-opacity="1" /><path clip-path="url(#clip140)" d="M16.4842 728.305 L16.4842 688.105 L21.895 688.105 L21.895 704.974 L64.0042 704.974 L64.0042 711.435 L21.895 711.435 L21.895 728.305 L16.4842 728.305 Z" fill="#000000" fill-rule="nonzero" fill-opacity="1" /><path clip-path="url(#clip140)" d="M679.231 18.8205 L679.231 41.5461 L689.52 41.5461 Q695.232 41.5461 698.351 38.5889 Q701.47 35.6318 701.47 30.163 Q701.47 24.7348 698.351 21.7777 Q695.232 18.8205 689.52 18.8205 L679.231 18.8205 M671.048 12.096 L689.52 12.096 Q699.688 12.096 704.873 16.714 Q710.099 21.2916 710.099 30.163 Q710.099 39.1155 704.873 43.6931 Q699.688 48.2706 689.52 48.2706 L679.231 48.2706 L679.231 72.576 L671.048 72.576 L671.048 12.096 Z" fill="#000000" fill-rule="nonzero" fill-opacity="1" /><path clip-path="url(#clip140)" d="M737.645 49.7694 Q728.612 49.7694 725.128 51.8354 Q721.644 53.9013 721.644 58.8839 Q721.644 62.8538 724.237 65.2034 Q726.87 67.5124 731.366 67.5124 Q737.564 67.5124 741.291 63.1374 Q745.058 58.7219 745.058 51.4303 L745.058 49.7694 L737.645 49.7694 M752.512 46.6907 L752.512 72.576 L745.058 72.576 L745.058 65.6895 Q742.506 69.8214 738.698 71.8063 Q734.89 73.7508 729.381 73.7508 Q722.414 73.7508 718.282 69.8619 Q714.19 65.9325 714.19 59.3701 Q714.19 51.7138 719.294 47.825 Q724.439 43.9361 734.607 43.9361 L745.058 43.9361 L745.058 43.2069 Q745.058 38.0623 741.655 35.2672 Q738.293 32.4315 732.176 32.4315 Q728.287 32.4315 724.601 33.3632 Q720.915 34.295 717.512 36.1584 L717.512 29.2718 Q721.603 27.692 725.452 26.9223 Q729.3 26.1121 732.946 26.1121 Q742.79 26.1121 747.651 31.2163 Q752.512 36.3204 752.512 46.6907 Z" fill="#000000" fill-rule="nonzero" fill-opacity="1" /><path clip-path="url(#clip140)" d="M775.237 14.324 L775.237 27.2059 L790.59 27.2059 L790.59 32.9987 L775.237 32.9987 L775.237 57.6282 Q775.237 63.1779 776.736 64.7578 Q778.276 66.3376 782.934 66.3376 L790.59 66.3376 L790.59 72.576 L782.934 72.576 Q774.306 72.576 771.024 69.3758 Q767.743 66.1351 767.743 57.6282 L767.743 32.9987 L762.275 32.9987 L762.275 27.2059 L767.743 27.2059 L767.743 14.324 L775.237 14.324 Z" fill="#000000" fill-rule="nonzero" fill-opacity="1" /><path clip-path="url(#clip140)" d="M800.394 27.2059 L807.847 27.2059 L807.847 72.576 L800.394 72.576 L800.394 27.2059 M800.394 9.54393 L807.847 9.54393 L807.847 18.9825 L800.394 18.9825 L800.394 9.54393 Z" fill="#000000" fill-rule="nonzero" fill-opacity="1" /><path clip-path="url(#clip140)" d="M862.251 48.0275 L862.251 51.6733 L827.98 51.6733 Q828.466 59.3701 832.598 63.421 Q836.771 67.4314 844.184 67.4314 Q848.478 67.4314 852.488 66.3781 Q856.539 65.3249 860.509 63.2184 L860.509 70.267 Q856.499 71.9684 852.286 72.8596 Q848.073 73.7508 843.738 73.7508 Q832.882 73.7508 826.522 67.4314 Q820.202 61.1119 820.202 50.3365 Q820.202 39.1965 826.198 32.6746 Q832.234 26.1121 842.442 26.1121 Q851.597 26.1121 856.904 32.0264 Q862.251 37.9003 862.251 48.0275 M854.797 45.84 Q854.716 39.7232 851.354 36.0774 Q848.032 32.4315 842.523 32.4315 Q836.285 32.4315 832.517 35.9558 Q828.79 39.4801 828.223 45.8805 L854.797 45.84 Z" fill="#000000" fill-rule="nonzero" fill-opacity="1" /><path clip-path="url(#clip140)" d="M912.199 45.1919 L912.199 72.576 L904.745 72.576 L904.745 45.4349 Q904.745 38.994 902.233 35.7938 Q899.722 32.5936 894.699 32.5936 Q888.663 32.5936 885.179 36.4419 Q881.695 40.2903 881.695 46.9338 L881.695 72.576 L874.201 72.576 L874.201 27.2059 L881.695 27.2059 L881.695 34.2544 Q884.369 30.163 887.974 28.1376 Q891.62 26.1121 896.359 26.1121 Q904.178 26.1121 908.188 30.9732 Q912.199 35.7938 912.199 45.1919 Z" fill="#000000" fill-rule="nonzero" fill-opacity="1" /><path clip-path="url(#clip140)" d="M934.438 14.324 L934.438 27.2059 L949.791 27.2059 L949.791 32.9987 L934.438 32.9987 L934.438 57.6282 Q934.438 63.1779 935.937 64.7578 Q937.476 66.3376 942.135 66.3376 L949.791 66.3376 L949.791 72.576 L942.135 72.576 Q933.506 72.576 930.225 69.3758 Q926.944 66.1351 926.944 57.6282 L926.944 32.9987 L921.475 32.9987 L921.475 27.2059 L926.944 27.2059 L926.944 14.324 L934.438 14.324 Z" fill="#000000" fill-rule="nonzero" fill-opacity="1" /><path clip-path="url(#clip140)" d="M988.437 65.6895 L1001.8 65.6895 L1001.8 19.5497 L987.262 22.4663 L987.262 15.0127 L1001.72 12.096 L1009.91 12.096 L1009.91 65.6895 L1023.27 65.6895 L1023.27 72.576 L988.437 72.576 L988.437 65.6895 Z" fill="#000000" fill-rule="nonzero" fill-opacity="1" /><path clip-path="url(#clip140)" d="M1037.74 12.096 L1076.62 12.096 L1076.62 15.5798 L1054.67 72.576 L1046.12 72.576 L1066.78 18.9825 L1037.74 18.9825 L1037.74 12.096 Z" fill="#000000" fill-rule="nonzero" fill-opacity="1" /><path clip-path="url(#clip140)" d="M1092.67 12.096 L1124.79 12.096 L1124.79 18.9825 L1100.16 18.9825 L1100.16 33.8088 Q1101.94 33.2012 1103.73 32.9176 Q1105.51 32.5936 1107.29 32.5936 Q1117.42 32.5936 1123.33 38.1433 Q1129.25 43.6931 1129.25 53.1722 Q1129.25 62.9348 1123.17 68.3631 Q1117.09 73.7508 1106.03 73.7508 Q1102.23 73.7508 1098.26 73.1026 Q1094.33 72.4545 1090.11 71.1582 L1090.11 62.9348 Q1093.76 64.9198 1097.65 65.892 Q1101.54 66.8642 1105.87 66.8642 Q1112.88 66.8642 1116.97 63.1779 Q1121.06 59.4916 1121.06 53.1722 Q1121.06 46.8528 1116.97 43.1664 Q1112.88 39.4801 1105.87 39.4801 Q1102.59 39.4801 1099.31 40.2093 Q1096.07 40.9384 1092.67 42.4778 L1092.67 12.096 Z" fill="#000000" fill-rule="nonzero" fill-opacity="1" /><path clip-path="url(#clip140)" d="M1145.45 12.096 L1177.57 12.096 L1177.57 18.9825 L1152.94 18.9825 L1152.94 33.8088 Q1154.73 33.2012 1156.51 32.9176 Q1158.29 32.5936 1160.07 32.5936 Q1170.2 32.5936 1176.11 38.1433 Q1182.03 43.6931 1182.03 53.1722 Q1182.03 62.9348 1175.95 68.3631 Q1169.88 73.7508 1158.82 73.7508 Q1155.01 73.7508 1151.04 73.1026 Q1147.11 72.4545 1142.9 71.1582 L1142.9 62.9348 Q1146.54 64.9198 1150.43 65.892 Q1154.32 66.8642 1158.66 66.8642 Q1165.66 66.8642 1169.75 63.1779 Q1173.85 59.4916 1173.85 53.1722 Q1173.85 46.8528 1169.75 43.1664 Q1165.66 39.4801 1158.66 39.4801 Q1155.37 39.4801 1152.09 40.2093 Q1148.85 40.9384 1145.45 42.4778 L1145.45 12.096 Z" fill="#000000" fill-rule="nonzero" fill-opacity="1" /><path clip-path="url(#clip140)" d="M1199.57 65.6895 L1212.94 65.6895 L1212.94 19.5497 L1198.39 22.4663 L1198.39 15.0127 L1212.86 12.096 L1221.04 12.096 L1221.04 65.6895 L1234.41 65.6895 L1234.41 72.576 L1199.57 72.576 L1199.57 65.6895 Z" fill="#000000" fill-rule="nonzero" fill-opacity="1" /><path clip-path="url(#clip140)" d="M1251.18 71.3202 L1251.18 63.8666 Q1254.26 65.3249 1257.42 66.0946 Q1260.58 66.8642 1263.61 66.8642 Q1271.72 66.8642 1275.97 61.436 Q1280.26 55.9673 1280.87 44.8678 Q1278.52 48.3516 1274.92 50.215 Q1271.31 52.0784 1266.94 52.0784 Q1257.86 52.0784 1252.56 46.6097 Q1247.29 41.1005 1247.29 31.5808 Q1247.29 22.2638 1252.8 16.633 Q1258.31 11.0023 1267.46 11.0023 Q1277.95 11.0023 1283.46 19.0636 Q1289.01 27.0843 1289.01 42.3968 Q1289.01 56.6965 1282.21 65.2439 Q1275.44 73.7508 1263.98 73.7508 Q1260.9 73.7508 1257.74 73.1431 Q1254.58 72.5355 1251.18 71.3202 M1267.46 45.678 Q1272.97 45.678 1276.17 41.9107 Q1279.41 38.1433 1279.41 31.5808 Q1279.41 25.0589 1276.17 21.2916 Q1272.97 17.4837 1267.46 17.4837 Q1261.95 17.4837 1258.71 21.2916 Q1255.51 25.0589 1255.51 31.5808 Q1255.51 38.1433 1258.71 41.9107 Q1261.95 45.678 1267.46 45.678 Z" fill="#000000" fill-rule="nonzero" fill-opacity="1" /><path clip-path="url(#clip140)" d="M1328.51 39.9662 Q1334.38 41.222 1337.66 45.1919 Q1340.99 49.1618 1340.99 54.9951 Q1340.99 63.9476 1334.83 68.8492 Q1328.67 73.7508 1317.33 73.7508 Q1313.52 73.7508 1309.47 72.9811 Q1305.46 72.2519 1301.17 70.7531 L1301.17 62.8538 Q1304.57 64.8388 1308.62 65.8515 Q1312.67 66.8642 1317.09 66.8642 Q1324.78 66.8642 1328.79 63.826 Q1332.84 60.7879 1332.84 54.9951 Q1332.84 49.6479 1329.08 46.6502 Q1325.35 43.612 1318.67 43.612 L1311.62 43.612 L1311.62 36.8875 L1318.99 36.8875 Q1325.03 36.8875 1328.23 34.4975 Q1331.43 32.067 1331.43 27.5299 Q1331.43 22.8714 1328.1 20.4004 Q1324.82 17.8888 1318.67 17.8888 Q1315.3 17.8888 1311.46 18.618 Q1307.61 19.3471 1302.99 20.8865 L1302.99 13.5948 Q1307.65 12.2985 1311.7 11.6504 Q1315.79 11.0023 1319.4 11.0023 Q1328.71 11.0023 1334.14 15.2557 Q1339.57 19.4686 1339.57 26.6793 Q1339.57 31.7024 1336.69 35.1862 Q1333.82 38.6294 1328.51 39.9662 Z" fill="#000000" fill-rule="nonzero" fill-opacity="1" /><path clip-path="url(#clip140)" d="M1375.01 39.075 Q1369.51 39.075 1366.26 42.8424 Q1363.06 46.6097 1363.06 53.1722 Q1363.06 59.6941 1366.26 63.502 Q1369.51 67.2693 1375.01 67.2693 Q1380.52 67.2693 1383.72 63.502 Q1386.96 59.6941 1386.96 53.1722 Q1386.96 46.6097 1383.72 42.8424 Q1380.52 39.075 1375.01 39.075 M1391.26 13.4328 L1391.26 20.8865 Q1388.18 19.4281 1385.02 18.6585 Q1381.9 17.8888 1378.82 17.8888 Q1370.72 17.8888 1366.43 23.3575 Q1362.17 28.8262 1361.57 39.8852 Q1363.96 36.3609 1367.56 34.4975 Q1371.17 32.5936 1375.5 32.5936 Q1384.61 32.5936 1389.88 38.1433 Q1395.19 43.6525 1395.19 53.1722 Q1395.19 62.4892 1389.68 68.12 Q1384.17 73.7508 1375.01 73.7508 Q1364.52 73.7508 1358.97 65.73 Q1353.42 57.6687 1353.42 42.3968 Q1353.42 28.0566 1360.23 19.5497 Q1367.03 11.0023 1378.5 11.0023 Q1381.58 11.0023 1384.7 11.6099 Q1387.86 12.2175 1391.26 13.4328 Z" fill="#000000" fill-rule="nonzero" fill-opacity="1" /><path clip-path="url(#clip140)" d="M1442.7 86.3491 L1442.7 92.1419 L1399.6 92.1419 L1399.6 86.3491 L1442.7 86.3491 Z" fill="#000000" fill-rule="nonzero" fill-opacity="1" /><path clip-path="url(#clip140)" d="M1457.81 65.6895 L1486.37 65.6895 L1486.37 72.576 L1447.97 72.576 L1447.97 65.6895 Q1452.63 60.8689 1460.65 52.7671 Q1468.71 44.6248 1470.78 42.2752 Q1474.71 37.8598 1476.25 34.8216 Q1477.83 31.7429 1477.83 28.7857 Q1477.83 23.9651 1474.42 20.927 Q1471.06 17.8888 1465.63 17.8888 Q1461.78 17.8888 1457.49 19.2256 Q1453.24 20.5624 1448.38 23.2765 L1448.38 15.0127 Q1453.32 13.0277 1457.61 12.015 Q1461.91 11.0023 1465.47 11.0023 Q1474.87 11.0023 1480.46 15.7013 Q1486.05 20.4004 1486.05 28.2591 Q1486.05 31.9859 1484.63 35.3482 Q1483.25 38.6699 1479.57 43.2069 Q1478.56 44.3817 1473.13 50.0125 Q1467.7 55.6027 1457.81 65.6895 Z" fill="#000000" fill-rule="nonzero" fill-opacity="1" /><path clip-path="url(#clip140)" d="M1521.05 43.8551 Q1515.22 43.8551 1511.85 46.9743 Q1508.53 50.0935 1508.53 55.5622 Q1508.53 61.0309 1511.85 64.1501 Q1515.22 67.2693 1521.05 67.2693 Q1526.88 67.2693 1530.24 64.1501 Q1533.61 60.9904 1533.61 55.5622 Q1533.61 50.0935 1530.24 46.9743 Q1526.92 43.8551 1521.05 43.8551 M1512.87 40.3713 Q1507.6 39.075 1504.64 35.4697 Q1501.73 31.8644 1501.73 26.6793 Q1501.73 19.4281 1506.87 15.2152 Q1512.06 11.0023 1521.05 11.0023 Q1530.08 11.0023 1535.23 15.2152 Q1540.37 19.4281 1540.37 26.6793 Q1540.37 31.8644 1537.42 35.4697 Q1534.5 39.075 1529.27 40.3713 Q1535.19 41.7486 1538.47 45.759 Q1541.79 49.7694 1541.79 55.5622 Q1541.79 64.3527 1536.4 69.0517 Q1531.06 73.7508 1521.05 73.7508 Q1511.04 73.7508 1505.66 69.0517 Q1500.31 64.3527 1500.31 55.5622 Q1500.31 49.7694 1503.63 45.759 Q1506.95 41.7486 1512.87 40.3713 M1509.87 27.4489 Q1509.87 32.148 1512.79 34.7811 Q1515.74 37.4142 1521.05 37.4142 Q1526.32 37.4142 1529.27 34.7811 Q1532.27 32.148 1532.27 27.4489 Q1532.27 22.7499 1529.27 20.1168 Q1526.32 17.4837 1521.05 17.4837 Q1515.74 17.4837 1512.79 20.1168 Q1509.87 22.7499 1509.87 27.4489 Z" fill="#000000" fill-rule="nonzero" fill-opacity="1" /><path clip-path="url(#clip140)" d="M1554.27 12.096 L1593.16 12.096 L1593.16 15.5798 L1571.2 72.576 L1562.65 72.576 L1583.31 18.9825 L1554.27 18.9825 L1554.27 12.096 Z" fill="#000000" fill-rule="nonzero" fill-opacity="1" /><path clip-path="url(#clip140)" d="M1609.36 71.3202 L1609.36 63.8666 Q1612.44 65.3249 1615.6 66.0946 Q1618.76 66.8642 1621.8 66.8642 Q1629.9 66.8642 1634.15 61.436 Q1638.44 55.9673 1639.05 44.8678 Q1636.7 48.3516 1633.1 50.215 Q1629.49 52.0784 1625.12 52.0784 Q1616.04 52.0784 1610.74 46.6097 Q1605.47 41.1005 1605.47 31.5808 Q1605.47 22.2638 1610.98 16.633 Q1616.49 11.0023 1625.64 11.0023 Q1636.14 11.0023 1641.64 19.0636 Q1647.19 27.0843 1647.19 42.3968 Q1647.19 56.6965 1640.39 65.2439 Q1633.62 73.7508 1622.16 73.7508 Q1619.08 73.7508 1615.92 73.1431 Q1612.76 72.5355 1609.36 71.3202 M1625.64 45.678 Q1631.15 45.678 1634.35 41.9107 Q1637.59 38.1433 1637.59 31.5808 Q1637.59 25.0589 1634.35 21.2916 Q1631.15 17.4837 1625.64 17.4837 Q1620.13 17.4837 1616.89 21.2916 Q1613.69 25.0589 1613.69 31.5808 Q1613.69 38.1433 1616.89 41.9107 Q1620.13 45.678 1625.64 45.678 Z" fill="#000000" fill-rule="nonzero" fill-opacity="1" /><path clip-path="url(#clip140)" d="M1662.14 71.3202 L1662.14 63.8666 Q1665.22 65.3249 1668.38 66.0946 Q1671.54 66.8642 1674.58 66.8642 Q1682.68 66.8642 1686.93 61.436 Q1691.23 55.9673 1691.84 44.8678 Q1689.49 48.3516 1685.88 50.215 Q1682.28 52.0784 1677.9 52.0784 Q1668.83 52.0784 1663.52 46.6097 Q1658.25 41.1005 1658.25 31.5808 Q1658.25 22.2638 1663.76 16.633 Q1669.27 11.0023 1678.43 11.0023 Q1688.92 11.0023 1694.43 19.0636 Q1699.98 27.0843 1699.98 42.3968 Q1699.98 56.6965 1693.17 65.2439 Q1686.41 73.7508 1674.94 73.7508 Q1671.86 73.7508 1668.7 73.1431 Q1665.55 72.5355 1662.14 71.3202 M1678.43 45.678 Q1683.94 45.678 1687.14 41.9107 Q1690.38 38.1433 1690.38 31.5808 Q1690.38 25.0589 1687.14 21.2916 Q1683.94 17.4837 1678.43 17.4837 Q1672.92 17.4837 1669.68 21.2916 Q1666.48 25.0589 1666.48 31.5808 Q1666.48 38.1433 1669.68 41.9107 Q1672.92 45.678 1678.43 45.678 Z" fill="#000000" fill-rule="nonzero" fill-opacity="1" /><path clip-path="url(#clip140)" d="M1739.47 39.9662 Q1745.35 41.222 1748.63 45.1919 Q1751.95 49.1618 1751.95 54.9951 Q1751.95 63.9476 1745.79 68.8492 Q1739.64 73.7508 1728.29 73.7508 Q1724.49 73.7508 1720.43 72.9811 Q1716.42 72.2519 1712.13 70.7531 L1712.13 62.8538 Q1715.53 64.8388 1719.58 65.8515 Q1723.64 66.8642 1728.05 66.8642 Q1735.75 66.8642 1739.76 63.826 Q1743.81 60.7879 1743.81 54.9951 Q1743.81 49.6479 1740.04 46.6502 Q1736.31 43.612 1729.63 43.612 L1722.58 43.612 L1722.58 36.8875 L1729.95 36.8875 Q1735.99 36.8875 1739.19 34.4975 Q1742.39 32.067 1742.39 27.5299 Q1742.39 22.8714 1739.07 20.4004 Q1735.79 17.8888 1729.63 17.8888 Q1726.27 17.8888 1722.42 18.618 Q1718.57 19.3471 1713.95 20.8865 L1713.95 13.5948 Q1718.61 12.2985 1722.66 11.6504 Q1726.75 11.0023 1730.36 11.0023 Q1739.68 11.0023 1745.1 15.2557 Q1750.53 19.4686 1750.53 26.6793 Q1750.53 31.7024 1747.66 35.1862 Q1744.78 38.6294 1739.47 39.9662 Z" fill="#000000" fill-rule="nonzero" fill-opacity="1" /><path clip-path="url(#clip140)" d="M1792.26 39.9662 Q1798.13 41.222 1801.41 45.1919 Q1804.73 49.1618 1804.73 54.9951 Q1804.73 63.9476 1798.58 68.8492 Q1792.42 73.7508 1781.08 73.7508 Q1777.27 73.7508 1773.22 72.9811 Q1769.21 72.2519 1764.91 70.7531 L1764.91 62.8538 Q1768.32 64.8388 1772.37 65.8515 Q1776.42 66.8642 1780.83 66.8642 Q1788.53 66.8642 1792.54 63.826 Q1796.59 60.7879 1796.59 54.9951 Q1796.59 49.6479 1792.82 46.6502 Q1789.1 43.612 1782.41 43.612 L1775.37 43.612 L1775.37 36.8875 L1782.74 36.8875 Q1788.77 36.8875 1791.97 34.4975 Q1795.17 32.067 1795.17 27.5299 Q1795.17 22.8714 1791.85 20.4004 Q1788.57 17.8888 1782.41 17.8888 Q1779.05 17.8888 1775.2 18.618 Q1771.35 19.3471 1766.74 20.8865 L1766.74 13.5948 Q1771.4 12.2985 1775.45 11.6504 Q1779.54 11.0023 1783.14 11.0023 Q1792.46 11.0023 1797.89 15.2557 Q1803.32 19.4686 1803.32 26.6793 Q1803.32 31.7024 1800.44 35.1862 Q1797.56 38.6294 1792.26 39.9662 Z" fill="#000000" fill-rule="nonzero" fill-opacity="1" /><path clip-path="url(#clip140)" d="M1827.3 65.6895 L1855.86 65.6895 L1855.86 72.576 L1817.45 72.576 L1817.45 65.6895 Q1822.11 60.8689 1830.13 52.7671 Q1838.19 44.6248 1840.26 42.2752 Q1844.19 37.8598 1845.73 34.8216 Q1847.31 31.7429 1847.31 28.7857 Q1847.31 23.9651 1843.91 20.927 Q1840.54 17.8888 1835.12 17.8888 Q1831.27 17.8888 1826.97 19.2256 Q1822.72 20.5624 1817.86 23.2765 L1817.86 15.0127 Q1822.8 13.0277 1827.1 12.015 Q1831.39 11.0023 1834.95 11.0023 Q1844.35 11.0023 1849.94 15.7013 Q1855.53 20.4004 1855.53 28.2591 Q1855.53 31.9859 1854.11 35.3482 Q1852.74 38.6699 1849.05 43.2069 Q1848.04 44.3817 1842.61 50.0125 Q1837.18 55.6027 1827.3 65.6895 Z" fill="#000000" fill-rule="nonzero" fill-opacity="1" /><polyline clip-path="url(#clip142)" style="stroke:#009af9; stroke-linecap:round; stroke-linejoin:round; stroke-width:8; stroke-opacity:1; fill:none" points="235.808,1386.4 251.146,1244.03 266.484,1115.23 281.822,998.881 297.16,893.944 312.498,799.473 327.835,714.596 343.173,638.511 358.511,570.479 373.849,509.826 389.187,455.928 404.525,408.212 419.863,366.152 435.201,329.269 450.539,297.121 465.877,269.299 481.215,245.429 496.553,225.166 511.891,208.2 527.229,194.244 542.567,183.032 557.905,174.321 573.243,167.884 588.581,163.514 603.919,161.028 619.257,160.256 634.595,161.042 649.933,163.24 665.271,166.713 680.609,171.338 695.947,177.001 711.285,183.6 726.623,191.045 741.961,199.254 757.299,208.145 772.637,217.646 787.975,227.687 803.313,238.206 818.651,249.144 833.989,260.449 849.327,272.077 864.665,283.989 880.003,296.146 895.341,308.512 910.679,321.053 926.017,333.738 941.355,346.537 956.693,359.422 972.031,372.37 987.369,385.358 1002.71,398.37 1018.04,411.39 1033.38,424.405 1048.72,437.4 1064.06,450.361 1079.4,463.276 1094.73,476.133 1110.07,488.922 1125.41,501.632 1140.75,514.252 1156.09,526.777 1171.42,539.199 1186.76,551.516 1202.1,563.724 1217.44,575.818 1232.78,587.796 1248.11,599.655 1263.45,611.39 1278.79,622.998 1294.13,634.478 1309.47,645.826 1324.8,657.04 1340.14,668.117 1355.48,679.056 1370.82,689.856 1386.16,700.519 1401.49,711.045 1416.83,721.434 1432.17,731.687 1447.51,741.804 1462.85,751.787 1478.18,761.635 1493.52,771.349 1508.86,780.93 1524.2,790.377 1539.54,799.692 1554.87,808.874 1570.21,817.924 1585.55,826.842 1600.89,835.63 1616.23,844.29 1631.56,852.823 1646.9,861.231 1662.24,869.516 1677.58,877.679 1692.92,885.722 1708.25,893.647 1723.59,901.455 1738.93,909.147 1754.27,916.724 1769.61,924.189 1784.94,931.541 1800.28,938.783 1815.62,945.915 1830.96,952.938 1846.3,959.854 1861.63,966.663 1876.97,973.366 1892.31,979.965 1907.65,986.463 1922.99,992.86 1938.32,999.159 1953.66,1005.36 1969,1011.47 1984.34,1017.48 1999.68,1023.4 2015.01,1029.22 2030.35,1034.96 2045.69,1040.61 2061.03,1046.17 2076.37,1051.64 2091.7,1057.03 2107.04,1062.33 2122.38,1067.55 2137.72,1072.68 2153.06,1077.74 2168.39,1082.71 2183.73,1087.6 2199.07,1092.41 2214.41,1097.14 2229.75,1101.79 2245.08,1106.37 2260.42,1110.88 2275.76,1115.31 2291.1,1116.48 "/>
<circle clip-path="url(#clip142)" cx="415.518" cy="333.592" r="18" fill="#e26f46" fill-rule="evenodd" fill-opacity="1" stroke="#000000" stroke-opacity="1" stroke-width="3.2"/>
<circle clip-path="url(#clip142)" cx="549.725" cy="283.299" r="18" fill="#e26f46" fill-rule="evenodd" fill-opacity="1" stroke="#000000" stroke-opacity="1" stroke-width="3.2"/>
<circle clip-path="url(#clip142)" cx="639.197" cy="176.007" r="18" fill="#e26f46" fill-rule="evenodd" fill-opacity="1" stroke="#000000" stroke-opacity="1" stroke-width="3.2"/>
<circle clip-path="url(#clip142)" cx="778.517" cy="169.301" r="18" fill="#e26f46" fill-rule="evenodd" fill-opacity="1" stroke="#000000" stroke-opacity="1" stroke-width="3.2"/>
<circle clip-path="url(#clip142)" cx="928.062" cy="259.829" r="18" fill="#e26f46" fill-rule="evenodd" fill-opacity="1" stroke="#000000" stroke-opacity="1" stroke-width="3.2"/>
<circle clip-path="url(#clip142)" cx="2182.2" cy="1067.87" r="18" fill="#e26f46" fill-rule="evenodd" fill-opacity="1" stroke="#000000" stroke-opacity="1" stroke-width="3.2"/>
<circle clip-path="url(#clip142)" cx="2264.51" cy="1144.99" r="18" fill="#e26f46" fill-rule="evenodd" fill-opacity="1" stroke="#000000" stroke-opacity="1" stroke-width="3.2"/>
<path clip-path="url(#clip140)" d="M1678.04 322.316 L2280.14 322.316 L2280.14 166.796 L1678.04 166.796  Z" fill="#ffffff" fill-rule="evenodd" fill-opacity="1"/>
<polyline clip-path="url(#clip140)" style="stroke:#000000; stroke-linecap:round; stroke-linejoin:round; stroke-width:4; stroke-opacity:1; fill:none" points="1678.04,322.316 2280.14,322.316 2280.14,166.796 1678.04,166.796 1678.04,322.316 "/>
<polyline clip-path="url(#clip140)" style="stroke:#009af9; stroke-linecap:round; stroke-linejoin:round; stroke-width:8; stroke-opacity:1; fill:none" points="1702.25,218.636 1847.49,218.636 "/>
<path clip-path="url(#clip140)" d="M1871.69 201.356 L1878.66 201.356 L1887.48 224.874 L1896.35 201.356 L1903.32 201.356 L1903.32 235.916 L1898.75 235.916 L1898.75 205.569 L1889.84 229.272 L1885.14 229.272 L1876.23 205.569 L1876.23 235.916 L1871.69 235.916 L1871.69 201.356 Z" fill="#000000" fill-rule="nonzero" fill-opacity="1" /><path clip-path="url(#clip140)" d="M1922.46 212.976 Q1919.03 212.976 1917.04 215.661 Q1915.05 218.323 1915.05 222.976 Q1915.05 227.629 1917.02 230.314 Q1919.01 232.976 1922.46 232.976 Q1925.86 232.976 1927.85 230.291 Q1929.84 227.606 1929.84 222.976 Q1929.84 218.37 1927.85 215.684 Q1925.86 212.976 1922.46 212.976 M1922.46 209.365 Q1928.01 209.365 1931.19 212.976 Q1934.36 216.587 1934.36 222.976 Q1934.36 229.342 1931.19 232.976 Q1928.01 236.587 1922.46 236.587 Q1916.88 236.587 1913.71 232.976 Q1910.56 229.342 1910.56 222.976 Q1910.56 216.587 1913.71 212.976 Q1916.88 209.365 1922.46 209.365 Z" fill="#000000" fill-rule="nonzero" fill-opacity="1" /><path clip-path="url(#clip140)" d="M1958.48 213.925 L1958.48 199.897 L1962.74 199.897 L1962.74 235.916 L1958.48 235.916 L1958.48 232.027 Q1957.13 234.342 1955.07 235.476 Q1953.04 236.587 1950.17 236.587 Q1945.47 236.587 1942.5 232.837 Q1939.56 229.087 1939.56 222.976 Q1939.56 216.865 1942.5 213.115 Q1945.47 209.365 1950.17 209.365 Q1953.04 209.365 1955.07 210.499 Q1957.13 211.61 1958.48 213.925 M1943.96 222.976 Q1943.96 227.675 1945.88 230.36 Q1947.83 233.022 1951.21 233.022 Q1954.59 233.022 1956.53 230.36 Q1958.48 227.675 1958.48 222.976 Q1958.48 218.277 1956.53 215.615 Q1954.59 212.93 1951.21 212.93 Q1947.83 212.93 1945.88 215.615 Q1943.96 218.277 1943.96 222.976 Z" fill="#000000" fill-rule="nonzero" fill-opacity="1" /><path clip-path="url(#clip140)" d="M1993.68 221.888 L1993.68 223.971 L1974.1 223.971 Q1974.38 228.369 1976.74 230.684 Q1979.12 232.976 1983.36 232.976 Q1985.81 232.976 1988.11 232.374 Q1990.42 231.772 1992.69 230.569 L1992.69 234.596 Q1990.4 235.568 1987.99 236.078 Q1985.58 236.587 1983.11 236.587 Q1976.9 236.587 1973.27 232.976 Q1969.66 229.365 1969.66 223.207 Q1969.66 216.842 1973.08 213.115 Q1976.53 209.365 1982.37 209.365 Q1987.6 209.365 1990.63 212.745 Q1993.68 216.101 1993.68 221.888 M1989.43 220.638 Q1989.38 217.143 1987.46 215.059 Q1985.56 212.976 1982.41 212.976 Q1978.85 212.976 1976.69 214.99 Q1974.56 217.004 1974.24 220.661 L1989.43 220.638 Z" fill="#000000" fill-rule="nonzero" fill-opacity="1" /><path clip-path="url(#clip140)" d="M2000.68 199.897 L2004.93 199.897 L2004.93 235.916 L2000.68 235.916 L2000.68 199.897 Z" fill="#000000" fill-rule="nonzero" fill-opacity="1" /><path clip-path="url(#clip140)" d="M2033.78 205.198 L2033.78 218.184 L2039.66 218.184 Q2042.92 218.184 2044.7 216.495 Q2046.49 214.805 2046.49 211.68 Q2046.49 208.578 2044.7 206.888 Q2042.92 205.198 2039.66 205.198 L2033.78 205.198 M2029.1 201.356 L2039.66 201.356 Q2045.47 201.356 2048.43 203.995 Q2051.42 206.61 2051.42 211.68 Q2051.42 216.795 2048.43 219.411 Q2045.47 222.027 2039.66 222.027 L2033.78 222.027 L2033.78 235.916 L2029.1 235.916 L2029.1 201.356 Z" fill="#000000" fill-rule="nonzero" fill-opacity="1" /><path clip-path="url(#clip140)" d="M2071.69 213.971 Q2070.98 213.555 2070.12 213.37 Q2069.29 213.161 2068.27 213.161 Q2064.66 213.161 2062.71 215.522 Q2060.79 217.86 2060.79 222.258 L2060.79 235.916 L2056.51 235.916 L2056.51 209.99 L2060.79 209.99 L2060.79 214.018 Q2062.13 211.657 2064.29 210.522 Q2066.44 209.365 2069.52 209.365 Q2069.96 209.365 2070.49 209.434 Q2071.02 209.481 2071.67 209.596 L2071.69 213.971 Z" fill="#000000" fill-rule="nonzero" fill-opacity="1" /><path clip-path="url(#clip140)" d="M2097.3 221.888 L2097.3 223.971 L2077.71 223.971 Q2077.99 228.369 2080.35 230.684 Q2082.74 232.976 2086.97 232.976 Q2089.43 232.976 2091.72 232.374 Q2094.03 231.772 2096.3 230.569 L2096.3 234.596 Q2094.01 235.568 2091.6 236.078 Q2089.19 236.587 2086.72 236.587 Q2080.51 236.587 2076.88 232.976 Q2073.27 229.365 2073.27 223.207 Q2073.27 216.842 2076.69 213.115 Q2080.14 209.365 2085.98 209.365 Q2091.21 209.365 2094.24 212.745 Q2097.3 216.101 2097.3 221.888 M2093.04 220.638 Q2092.99 217.143 2091.07 215.059 Q2089.17 212.976 2086.02 212.976 Q2082.46 212.976 2080.3 214.99 Q2078.18 217.004 2077.85 220.661 L2093.04 220.638 Z" fill="#000000" fill-rule="nonzero" fill-opacity="1" /><path clip-path="url(#clip140)" d="M2121.35 213.925 L2121.35 199.897 L2125.61 199.897 L2125.61 235.916 L2121.35 235.916 L2121.35 232.027 Q2120 234.342 2117.94 235.476 Q2115.91 236.587 2113.04 236.587 Q2108.34 236.587 2105.37 232.837 Q2102.43 229.087 2102.43 222.976 Q2102.43 216.865 2105.37 213.115 Q2108.34 209.365 2113.04 209.365 Q2115.91 209.365 2117.94 210.499 Q2120 211.61 2121.35 213.925 M2106.83 222.976 Q2106.83 227.675 2108.75 230.36 Q2110.7 233.022 2114.08 233.022 Q2117.46 233.022 2119.4 230.36 Q2121.35 227.675 2121.35 222.976 Q2121.35 218.277 2119.4 215.615 Q2117.46 212.93 2114.08 212.93 Q2110.7 212.93 2108.75 215.615 Q2106.83 218.277 2106.83 222.976 Z" fill="#000000" fill-rule="nonzero" fill-opacity="1" /><path clip-path="url(#clip140)" d="M2134.38 209.99 L2138.64 209.99 L2138.64 235.916 L2134.38 235.916 L2134.38 209.99 M2134.38 199.897 L2138.64 199.897 L2138.64 205.291 L2134.38 205.291 L2134.38 199.897 Z" fill="#000000" fill-rule="nonzero" fill-opacity="1" /><path clip-path="url(#clip140)" d="M2166.21 210.985 L2166.21 214.967 Q2164.4 213.971 2162.57 213.485 Q2160.77 212.976 2158.92 212.976 Q2154.77 212.976 2152.48 215.615 Q2150.19 218.231 2150.19 222.976 Q2150.19 227.721 2152.48 230.36 Q2154.77 232.976 2158.92 232.976 Q2160.77 232.976 2162.57 232.49 Q2164.4 231.981 2166.21 230.985 L2166.21 234.92 Q2164.42 235.754 2162.5 236.17 Q2160.61 236.587 2158.45 236.587 Q2152.6 236.587 2149.15 232.906 Q2145.7 229.226 2145.7 222.976 Q2145.7 216.633 2149.17 212.999 Q2152.67 209.365 2158.73 209.365 Q2160.7 209.365 2162.57 209.782 Q2164.45 210.175 2166.21 210.985 Z" fill="#000000" fill-rule="nonzero" fill-opacity="1" /><path clip-path="url(#clip140)" d="M2177.83 202.629 L2177.83 209.99 L2186.6 209.99 L2186.6 213.3 L2177.83 213.3 L2177.83 227.374 Q2177.83 230.545 2178.68 231.448 Q2179.56 232.351 2182.23 232.351 L2186.6 232.351 L2186.6 235.916 L2182.23 235.916 Q2177.3 235.916 2175.42 234.087 Q2173.55 232.235 2173.55 227.374 L2173.55 213.3 L2170.42 213.3 L2170.42 209.99 L2173.55 209.99 L2173.55 202.629 L2177.83 202.629 Z" fill="#000000" fill-rule="nonzero" fill-opacity="1" /><path clip-path="url(#clip140)" d="M2192.2 209.99 L2196.46 209.99 L2196.46 235.916 L2192.2 235.916 L2192.2 209.99 M2192.2 199.897 L2196.46 199.897 L2196.46 205.291 L2192.2 205.291 L2192.2 199.897 Z" fill="#000000" fill-rule="nonzero" fill-opacity="1" /><path clip-path="url(#clip140)" d="M2215.42 212.976 Q2211.99 212.976 2210 215.661 Q2208.01 218.323 2208.01 222.976 Q2208.01 227.629 2209.98 230.314 Q2211.97 232.976 2215.42 232.976 Q2218.82 232.976 2220.81 230.291 Q2222.8 227.606 2222.8 222.976 Q2222.8 218.37 2220.81 215.684 Q2218.82 212.976 2215.42 212.976 M2215.42 209.365 Q2220.98 209.365 2224.15 212.976 Q2227.32 216.587 2227.32 222.976 Q2227.32 229.342 2224.15 232.976 Q2220.98 236.587 2215.42 236.587 Q2209.84 236.587 2206.67 232.976 Q2203.52 229.342 2203.52 222.976 Q2203.52 216.587 2206.67 212.976 Q2209.84 209.365 2215.42 209.365 Z" fill="#000000" fill-rule="nonzero" fill-opacity="1" /><path clip-path="url(#clip140)" d="M2255.93 220.268 L2255.93 235.916 L2251.67 235.916 L2251.67 220.407 Q2251.67 216.726 2250.23 214.897 Q2248.8 213.069 2245.93 213.069 Q2242.48 213.069 2240.49 215.268 Q2238.5 217.467 2238.5 221.263 L2238.5 235.916 L2234.22 235.916 L2234.22 209.99 L2238.5 209.99 L2238.5 214.018 Q2240.03 211.68 2242.09 210.522 Q2244.17 209.365 2246.88 209.365 Q2251.35 209.365 2253.64 212.143 Q2255.93 214.897 2255.93 220.268 Z" fill="#000000" fill-rule="nonzero" fill-opacity="1" /><circle clip-path="url(#clip140)" cx="1774.87" cy="270.476" r="20.9455" fill="#e26f46" fill-rule="evenodd" fill-opacity="1" stroke="#000000" stroke-opacity="1" stroke-width="3.72364"/>
<path clip-path="url(#clip140)" d="M1887.71 256.367 Q1882.62 256.367 1879.61 260.163 Q1876.63 263.96 1876.63 270.51 Q1876.63 277.038 1879.61 280.834 Q1882.62 284.631 1887.71 284.631 Q1892.81 284.631 1895.77 280.834 Q1898.75 277.038 1898.75 270.51 Q1898.75 263.96 1895.77 260.163 Q1892.81 256.367 1887.71 256.367 M1887.71 252.571 Q1894.98 252.571 1899.33 257.455 Q1903.69 262.316 1903.69 270.51 Q1903.69 278.682 1899.33 283.566 Q1894.98 288.427 1887.71 288.427 Q1880.42 288.427 1876.05 283.566 Q1871.69 278.705 1871.69 270.51 Q1871.69 262.316 1876.05 257.455 Q1880.42 252.571 1887.71 252.571 Z" fill="#000000" fill-rule="nonzero" fill-opacity="1" /><path clip-path="url(#clip140)" d="M1929.43 274.816 Q1929.43 270.117 1927.48 267.455 Q1925.56 264.77 1922.18 264.77 Q1918.8 264.77 1916.86 267.455 Q1914.94 270.117 1914.94 274.816 Q1914.94 279.515 1916.86 282.2 Q1918.8 284.862 1922.18 284.862 Q1925.56 284.862 1927.48 282.2 Q1929.43 279.515 1929.43 274.816 M1914.94 265.765 Q1916.28 263.45 1918.31 262.339 Q1920.38 261.205 1923.22 261.205 Q1927.94 261.205 1930.88 264.955 Q1933.85 268.705 1933.85 274.816 Q1933.85 280.927 1930.88 284.677 Q1927.94 288.427 1923.22 288.427 Q1920.38 288.427 1918.31 287.316 Q1916.28 286.182 1914.94 283.867 L1914.94 287.756 L1910.65 287.756 L1910.65 251.737 L1914.94 251.737 L1914.94 265.765 Z" fill="#000000" fill-rule="nonzero" fill-opacity="1" /><path clip-path="url(#clip140)" d="M1957.44 262.594 L1957.44 266.622 Q1955.63 265.696 1953.69 265.233 Q1951.74 264.77 1949.66 264.77 Q1946.49 264.77 1944.89 265.742 Q1943.31 266.714 1943.31 268.659 Q1943.31 270.14 1944.45 270.997 Q1945.58 271.83 1949.01 272.594 L1950.47 272.918 Q1955 273.89 1956.9 275.672 Q1958.82 277.432 1958.82 280.603 Q1958.82 284.214 1955.95 286.321 Q1953.11 288.427 1948.11 288.427 Q1946.02 288.427 1943.75 288.01 Q1941.51 287.617 1939.01 286.807 L1939.01 282.409 Q1941.37 283.635 1943.66 284.26 Q1945.95 284.862 1948.2 284.862 Q1951.21 284.862 1952.83 283.844 Q1954.45 282.802 1954.45 280.927 Q1954.45 279.191 1953.27 278.265 Q1952.11 277.339 1948.15 276.483 L1946.67 276.135 Q1942.71 275.302 1940.95 273.589 Q1939.19 271.853 1939.19 268.844 Q1939.19 265.186 1941.79 263.196 Q1944.38 261.205 1949.15 261.205 Q1951.51 261.205 1953.59 261.552 Q1955.68 261.899 1957.44 262.594 Z" fill="#000000" fill-rule="nonzero" fill-opacity="1" /><path clip-path="url(#clip140)" d="M1987.78 273.728 L1987.78 275.811 L1968.2 275.811 Q1968.48 280.209 1970.84 282.524 Q1973.22 284.816 1977.46 284.816 Q1979.91 284.816 1982.2 284.214 Q1984.52 283.612 1986.79 282.409 L1986.79 286.436 Q1984.5 287.408 1982.09 287.918 Q1979.68 288.427 1977.2 288.427 Q1971 288.427 1967.37 284.816 Q1963.75 281.205 1963.75 275.047 Q1963.75 268.682 1967.18 264.955 Q1970.63 261.205 1976.46 261.205 Q1981.69 261.205 1984.73 264.585 Q1987.78 267.941 1987.78 273.728 M1983.52 272.478 Q1983.48 268.983 1981.56 266.899 Q1979.66 264.816 1976.51 264.816 Q1972.94 264.816 1970.79 266.83 Q1968.66 268.844 1968.34 272.501 L1983.52 272.478 Z" fill="#000000" fill-rule="nonzero" fill-opacity="1" /><path clip-path="url(#clip140)" d="M2009.8 265.811 Q2009.08 265.395 2008.22 265.21 Q2007.39 265.001 2006.37 265.001 Q2002.76 265.001 2000.81 267.362 Q1998.89 269.7 1998.89 274.098 L1998.89 287.756 L1994.61 287.756 L1994.61 261.83 L1998.89 261.83 L1998.89 265.858 Q2000.24 263.497 2002.39 262.362 Q2004.54 261.205 2007.62 261.205 Q2008.06 261.205 2008.59 261.274 Q2009.12 261.321 2009.77 261.436 L2009.8 265.811 Z" fill="#000000" fill-rule="nonzero" fill-opacity="1" /><path clip-path="url(#clip140)" d="M2011.21 261.83 L2015.72 261.83 L2023.82 283.589 L2031.93 261.83 L2036.44 261.83 L2026.72 287.756 L2020.93 287.756 L2011.21 261.83 Z" fill="#000000" fill-rule="nonzero" fill-opacity="1" /><path clip-path="url(#clip140)" d="M2064.49 273.728 L2064.49 275.811 L2044.91 275.811 Q2045.19 280.209 2047.55 282.524 Q2049.93 284.816 2054.17 284.816 Q2056.62 284.816 2058.92 284.214 Q2061.23 283.612 2063.5 282.409 L2063.5 286.436 Q2061.21 287.408 2058.8 287.918 Q2056.39 288.427 2053.92 288.427 Q2047.71 288.427 2044.08 284.816 Q2040.47 281.205 2040.47 275.047 Q2040.47 268.682 2043.89 264.955 Q2047.34 261.205 2053.18 261.205 Q2058.41 261.205 2061.44 264.585 Q2064.49 267.941 2064.49 273.728 M2060.24 272.478 Q2060.19 268.983 2058.27 266.899 Q2056.37 264.816 2053.22 264.816 Q2049.66 264.816 2047.5 266.83 Q2045.37 268.844 2045.05 272.501 L2060.24 272.478 Z" fill="#000000" fill-rule="nonzero" fill-opacity="1" /><path clip-path="url(#clip140)" d="M2088.55 265.765 L2088.55 251.737 L2092.8 251.737 L2092.8 287.756 L2088.55 287.756 L2088.55 283.867 Q2087.2 286.182 2085.14 287.316 Q2083.11 288.427 2080.24 288.427 Q2075.54 288.427 2072.57 284.677 Q2069.63 280.927 2069.63 274.816 Q2069.63 268.705 2072.57 264.955 Q2075.54 261.205 2080.24 261.205 Q2083.11 261.205 2085.14 262.339 Q2087.2 263.45 2088.55 265.765 M2074.03 274.816 Q2074.03 279.515 2075.95 282.2 Q2077.9 284.862 2081.28 284.862 Q2084.66 284.862 2086.6 282.2 Q2088.55 279.515 2088.55 274.816 Q2088.55 270.117 2086.6 267.455 Q2084.66 264.77 2081.28 264.77 Q2077.9 264.77 2075.95 267.455 Q2074.03 270.117 2074.03 274.816 Z" fill="#000000" fill-rule="nonzero" fill-opacity="1" /><path clip-path="url(#clip140)" d="M2121.51 257.038 L2121.51 283.913 L2127.16 283.913 Q2134.31 283.913 2137.62 280.672 Q2140.95 277.432 2140.95 270.441 Q2140.95 263.497 2137.62 260.279 Q2134.31 257.038 2127.16 257.038 L2121.51 257.038 M2116.83 253.196 L2126.44 253.196 Q2136.49 253.196 2141.18 257.386 Q2145.88 261.552 2145.88 270.441 Q2145.88 279.376 2141.16 283.566 Q2136.44 287.756 2126.44 287.756 L2116.83 287.756 L2116.83 253.196 Z" fill="#000000" fill-rule="nonzero" fill-opacity="1" /><path clip-path="url(#clip140)" d="M2164.93 274.723 Q2159.77 274.723 2157.78 275.904 Q2155.79 277.084 2155.79 279.932 Q2155.79 282.2 2157.27 283.543 Q2158.78 284.862 2161.35 284.862 Q2164.89 284.862 2167.02 282.362 Q2169.17 279.839 2169.17 275.672 L2169.17 274.723 L2164.93 274.723 M2173.43 272.964 L2173.43 287.756 L2169.17 287.756 L2169.17 283.821 Q2167.71 286.182 2165.54 287.316 Q2163.36 288.427 2160.21 288.427 Q2156.23 288.427 2153.87 286.205 Q2151.53 283.959 2151.53 280.209 Q2151.53 275.834 2154.45 273.612 Q2157.39 271.39 2163.2 271.39 L2169.17 271.39 L2169.17 270.973 Q2169.17 268.034 2167.23 266.436 Q2165.3 264.816 2161.81 264.816 Q2159.59 264.816 2157.48 265.348 Q2155.37 265.881 2153.43 266.946 L2153.43 263.01 Q2155.77 262.108 2157.97 261.668 Q2160.17 261.205 2162.25 261.205 Q2167.87 261.205 2170.65 264.122 Q2173.43 267.038 2173.43 272.964 Z" fill="#000000" fill-rule="nonzero" fill-opacity="1" /><path clip-path="url(#clip140)" d="M2186.42 254.469 L2186.42 261.83 L2195.19 261.83 L2195.19 265.14 L2186.42 265.14 L2186.42 279.214 Q2186.42 282.385 2187.27 283.288 Q2188.15 284.191 2190.81 284.191 L2195.19 284.191 L2195.19 287.756 L2190.81 287.756 Q2185.88 287.756 2184.01 285.927 Q2182.13 284.075 2182.13 279.214 L2182.13 265.14 L2179.01 265.14 L2179.01 261.83 L2182.13 261.83 L2182.13 254.469 L2186.42 254.469 Z" fill="#000000" fill-rule="nonzero" fill-opacity="1" /><path clip-path="url(#clip140)" d="M2212.57 274.723 Q2207.41 274.723 2205.42 275.904 Q2203.43 277.084 2203.43 279.932 Q2203.43 282.2 2204.91 283.543 Q2206.42 284.862 2208.98 284.862 Q2212.53 284.862 2214.66 282.362 Q2216.81 279.839 2216.81 275.672 L2216.81 274.723 L2212.57 274.723 M2221.07 272.964 L2221.07 287.756 L2216.81 287.756 L2216.81 283.821 Q2215.35 286.182 2213.17 287.316 Q2211 288.427 2207.85 288.427 Q2203.87 288.427 2201.51 286.205 Q2199.17 283.959 2199.17 280.209 Q2199.17 275.834 2202.09 273.612 Q2205.03 271.39 2210.84 271.39 L2216.81 271.39 L2216.81 270.973 Q2216.81 268.034 2214.86 266.436 Q2212.94 264.816 2209.45 264.816 Q2207.23 264.816 2205.12 265.348 Q2203.01 265.881 2201.07 266.946 L2201.07 263.01 Q2203.41 262.108 2205.61 261.668 Q2207.8 261.205 2209.89 261.205 Q2215.51 261.205 2218.29 264.122 Q2221.07 267.038 2221.07 272.964 Z" fill="#000000" fill-rule="nonzero" fill-opacity="1" /></svg>
