<?xml version="1.0" encoding="utf-8"?>
<svg xmlns="http://www.w3.org/2000/svg" xmlns:xlink="http://www.w3.org/1999/xlink" width="600" height="400" viewBox="0 0 2400 1600">
<defs>
  <clipPath id="clip480">
    <rect x="0" y="0" width="2400" height="1600"/>
  </clipPath>
</defs>
<path clip-path="url(#clip480)" d="M0 1600 L2400 1600 L2400 0 L0 0  Z" fill="#ffffff" fill-rule="evenodd" fill-opacity="1"/>
<defs>
  <clipPath id="clip481">
    <rect x="480" y="0" width="1681" height="1600"/>
  </clipPath>
</defs>
<path clip-path="url(#clip480)" d="M174.149 1423.18 L2352.76 1423.18 L2352.76 123.472 L174.149 123.472  Z" fill="#ffffff" fill-rule="evenodd" fill-opacity="1"/>
<defs>
  <clipPath id="clip482">
    <rect x="174" y="123" width="2180" height="1301"/>
  </clipPath>
</defs>
<polyline clip-path="url(#clip482)" style="stroke:#000000; stroke-linecap:round; stroke-linejoin:round; stroke-width:2; stroke-opacity:0.1; fill:none" points="233.169,1423.18 233.169,123.472 "/>
<polyline clip-path="url(#clip482)" style="stroke:#000000; stroke-linecap:round; stroke-linejoin:round; stroke-width:2; stroke-opacity:0.1; fill:none" points="549.774,1423.18 549.774,123.472 "/>
<polyline clip-path="url(#clip482)" style="stroke:#000000; stroke-linecap:round; stroke-linejoin:round; stroke-width:2; stroke-opacity:0.1; fill:none" points="866.378,1423.18 866.378,123.472 "/>
<polyline clip-path="url(#clip482)" style="stroke:#000000; stroke-linecap:round; stroke-linejoin:round; stroke-width:2; stroke-opacity:0.1; fill:none" points="1182.98,1423.18 1182.98,123.472 "/>
<polyline clip-path="url(#clip482)" style="stroke:#000000; stroke-linecap:round; stroke-linejoin:round; stroke-width:2; stroke-opacity:0.1; fill:none" points="1499.59,1423.18 1499.59,123.472 "/>
<polyline clip-path="url(#clip482)" style="stroke:#000000; stroke-linecap:round; stroke-linejoin:round; stroke-width:2; stroke-opacity:0.1; fill:none" points="1816.19,1423.18 1816.19,123.472 "/>
<polyline clip-path="url(#clip482)" style="stroke:#000000; stroke-linecap:round; stroke-linejoin:round; stroke-width:2; stroke-opacity:0.1; fill:none" points="2132.8,1423.18 2132.8,123.472 "/>
<polyline clip-path="url(#clip482)" style="stroke:#000000; stroke-linecap:round; stroke-linejoin:round; stroke-width:2; stroke-opacity:0.1; fill:none" points="174.149,1386.4 2352.76,1386.4 "/>
<polyline clip-path="url(#clip482)" style="stroke:#000000; stroke-linecap:round; stroke-linejoin:round; stroke-width:2; stroke-opacity:0.1; fill:none" points="174.149,1041.97 2352.76,1041.97 "/>
<polyline clip-path="url(#clip482)" style="stroke:#000000; stroke-linecap:round; stroke-linejoin:round; stroke-width:2; stroke-opacity:0.1; fill:none" points="174.149,697.548 2352.76,697.548 "/>
<polyline clip-path="url(#clip482)" style="stroke:#000000; stroke-linecap:round; stroke-linejoin:round; stroke-width:2; stroke-opacity:0.1; fill:none" points="174.149,353.124 2352.76,353.124 "/>
<polyline clip-path="url(#clip480)" style="stroke:#000000; stroke-linecap:round; stroke-linejoin:round; stroke-width:4; stroke-opacity:1; fill:none" points="174.149,1423.18 2352.76,1423.18 "/>
<polyline clip-path="url(#clip480)" style="stroke:#000000; stroke-linecap:round; stroke-linejoin:round; stroke-width:4; stroke-opacity:1; fill:none" points="233.169,1423.18 233.169,1404.28 "/>
<polyline clip-path="url(#clip480)" style="stroke:#000000; stroke-linecap:round; stroke-linejoin:round; stroke-width:4; stroke-opacity:1; fill:none" points="549.774,1423.18 549.774,1404.28 "/>
<polyline clip-path="url(#clip480)" style="stroke:#000000; stroke-linecap:round; stroke-linejoin:round; stroke-width:4; stroke-opacity:1; fill:none" points="866.378,1423.18 866.378,1404.28 "/>
<polyline clip-path="url(#clip480)" style="stroke:#000000; stroke-linecap:round; stroke-linejoin:round; stroke-width:4; stroke-opacity:1; fill:none" points="1182.98,1423.18 1182.98,1404.28 "/>
<polyline clip-path="url(#clip480)" style="stroke:#000000; stroke-linecap:round; stroke-linejoin:round; stroke-width:4; stroke-opacity:1; fill:none" points="1499.59,1423.18 1499.59,1404.28 "/>
<polyline clip-path="url(#clip480)" style="stroke:#000000; stroke-linecap:round; stroke-linejoin:round; stroke-width:4; stroke-opacity:1; fill:none" points="1816.19,1423.18 1816.19,1404.28 "/>
<polyline clip-path="url(#clip480)" style="stroke:#000000; stroke-linecap:round; stroke-linejoin:round; stroke-width:4; stroke-opacity:1; fill:none" points="2132.8,1423.18 2132.8,1404.28 "/>
<path clip-path="url(#clip480)" d="M233.169 1454.1 Q229.558 1454.1 227.729 1457.66 Q225.924 1461.2 225.924 1468.33 Q225.924 1475.44 227.729 1479.01 Q229.558 1482.55 233.169 1482.55 Q236.803 1482.55 238.609 1479.01 Q240.438 1475.44 240.438 1468.33 Q240.438 1461.2 238.609 1457.66 Q236.803 1454.1 233.169 1454.1 M233.169 1450.39 Q238.979 1450.39 242.035 1455 Q245.114 1459.58 245.114 1468.33 Q245.114 1477.06 242.035 1481.67 Q238.979 1486.25 233.169 1486.25 Q227.359 1486.25 224.28 1481.67 Q221.225 1477.06 221.225 1468.33 Q221.225 1459.58 224.28 1455 Q227.359 1450.39 233.169 1450.39 Z" fill="#000000" fill-rule="nonzero" fill-opacity="1" /><path clip-path="url(#clip480)" d="M528.547 1481.64 L544.866 1481.64 L544.866 1485.58 L522.922 1485.58 L522.922 1481.64 Q525.584 1478.89 530.167 1474.26 Q534.774 1469.61 535.954 1468.27 Q538.2 1465.74 539.079 1464.01 Q539.982 1462.25 539.982 1460.56 Q539.982 1457.8 538.037 1456.07 Q536.116 1454.33 533.014 1454.33 Q530.815 1454.33 528.362 1455.09 Q525.931 1455.86 523.153 1457.41 L523.153 1452.69 Q525.977 1451.55 528.431 1450.97 Q530.885 1450.39 532.922 1450.39 Q538.292 1450.39 541.487 1453.08 Q544.681 1455.77 544.681 1460.26 Q544.681 1462.39 543.871 1464.31 Q543.084 1466.2 540.977 1468.8 Q540.399 1469.47 537.297 1472.69 Q534.195 1475.88 528.547 1481.64 Z" fill="#000000" fill-rule="nonzero" fill-opacity="1" /><path clip-path="url(#clip480)" d="M564.681 1454.1 Q561.07 1454.1 559.241 1457.66 Q557.436 1461.2 557.436 1468.33 Q557.436 1475.44 559.241 1479.01 Q561.07 1482.55 564.681 1482.55 Q568.315 1482.55 570.121 1479.01 Q571.949 1475.44 571.949 1468.33 Q571.949 1461.2 570.121 1457.66 Q568.315 1454.1 564.681 1454.1 M564.681 1450.39 Q570.491 1450.39 573.547 1455 Q576.625 1459.58 576.625 1468.33 Q576.625 1477.06 573.547 1481.67 Q570.491 1486.25 564.681 1486.25 Q558.871 1486.25 555.792 1481.67 Q552.736 1477.06 552.736 1468.33 Q552.736 1459.58 555.792 1455 Q558.871 1450.39 564.681 1450.39 Z" fill="#000000" fill-rule="nonzero" fill-opacity="1" /><path clip-path="url(#clip480)" d="M854.549 1455.09 L842.744 1473.54 L854.549 1473.54 L854.549 1455.09 M853.322 1451.02 L859.202 1451.02 L859.202 1473.54 L864.132 1473.54 L864.132 1477.43 L859.202 1477.43 L859.202 1485.58 L854.549 1485.58 L854.549 1477.43 L838.947 1477.43 L838.947 1472.92 L853.322 1451.02 Z" fill="#000000" fill-rule="nonzero" fill-opacity="1" /><path clip-path="url(#clip480)" d="M881.864 1454.1 Q878.253 1454.1 876.424 1457.66 Q874.619 1461.2 874.619 1468.33 Q874.619 1475.44 876.424 1479.01 Q878.253 1482.55 881.864 1482.55 Q885.498 1482.55 887.304 1479.01 Q889.132 1475.44 889.132 1468.33 Q889.132 1461.2 887.304 1457.66 Q885.498 1454.1 881.864 1454.1 M881.864 1450.39 Q887.674 1450.39 890.73 1455 Q893.808 1459.58 893.808 1468.33 Q893.808 1477.06 890.73 1481.67 Q887.674 1486.25 881.864 1486.25 Q876.054 1486.25 872.975 1481.67 Q869.919 1477.06 869.919 1468.33 Q869.919 1459.58 872.975 1455 Q876.054 1450.39 881.864 1450.39 Z" fill="#000000" fill-rule="nonzero" fill-opacity="1" /><path clip-path="url(#clip480)" d="M1168.39 1466.44 Q1165.24 1466.44 1163.39 1468.59 Q1161.56 1470.74 1161.56 1474.49 Q1161.56 1478.22 1163.39 1480.39 Q1165.24 1482.55 1168.39 1482.55 Q1171.54 1482.55 1173.36 1480.39 Q1175.22 1478.22 1175.22 1474.49 Q1175.22 1470.74 1173.36 1468.59 Q1171.54 1466.44 1168.39 1466.44 M1177.67 1451.78 L1177.67 1456.04 Q1175.91 1455.21 1174.1 1454.77 Q1172.32 1454.33 1170.56 1454.33 Q1165.93 1454.33 1163.48 1457.45 Q1161.05 1460.58 1160.7 1466.9 Q1162.07 1464.89 1164.13 1463.82 Q1166.19 1462.73 1168.67 1462.73 Q1173.87 1462.73 1176.88 1465.9 Q1179.92 1469.05 1179.92 1474.49 Q1179.92 1479.82 1176.77 1483.03 Q1173.62 1486.25 1168.39 1486.25 Q1162.39 1486.25 1159.22 1481.67 Q1156.05 1477.06 1156.05 1468.33 Q1156.05 1460.14 1159.94 1455.28 Q1163.83 1450.39 1170.38 1450.39 Q1172.14 1450.39 1173.92 1450.74 Q1175.73 1451.09 1177.67 1451.78 Z" fill="#000000" fill-rule="nonzero" fill-opacity="1" /><path clip-path="url(#clip480)" d="M1197.97 1454.1 Q1194.36 1454.1 1192.53 1457.66 Q1190.73 1461.2 1190.73 1468.33 Q1190.73 1475.44 1192.53 1479.01 Q1194.36 1482.55 1197.97 1482.55 Q1201.6 1482.55 1203.41 1479.01 Q1205.24 1475.44 1205.24 1468.33 Q1205.24 1461.2 1203.41 1457.66 Q1201.6 1454.1 1197.97 1454.1 M1197.97 1450.39 Q1203.78 1450.39 1206.84 1455 Q1209.91 1459.58 1209.91 1468.33 Q1209.91 1477.06 1206.84 1481.67 Q1203.78 1486.25 1197.97 1486.25 Q1192.16 1486.25 1189.08 1481.67 Q1186.03 1477.06 1186.03 1468.33 Q1186.03 1459.58 1189.08 1455 Q1192.16 1450.39 1197.97 1450.39 Z" fill="#000000" fill-rule="nonzero" fill-opacity="1" /><path clip-path="url(#clip480)" d="M1484.46 1469.17 Q1481.13 1469.17 1479.2 1470.95 Q1477.31 1472.73 1477.31 1475.86 Q1477.31 1478.98 1479.2 1480.77 Q1481.13 1482.55 1484.46 1482.55 Q1487.79 1482.55 1489.71 1480.77 Q1491.64 1478.96 1491.64 1475.86 Q1491.64 1472.73 1489.71 1470.95 Q1487.82 1469.17 1484.46 1469.17 M1479.78 1467.18 Q1476.77 1466.44 1475.08 1464.38 Q1473.42 1462.32 1473.42 1459.35 Q1473.42 1455.21 1476.36 1452.8 Q1479.32 1450.39 1484.46 1450.39 Q1489.62 1450.39 1492.56 1452.8 Q1495.5 1455.21 1495.5 1459.35 Q1495.5 1462.32 1493.81 1464.38 Q1492.14 1466.44 1489.16 1467.18 Q1492.54 1467.96 1494.41 1470.26 Q1496.31 1472.55 1496.31 1475.86 Q1496.31 1480.88 1493.23 1483.57 Q1490.18 1486.25 1484.46 1486.25 Q1478.74 1486.25 1475.66 1483.57 Q1472.61 1480.88 1472.61 1475.86 Q1472.61 1472.55 1474.51 1470.26 Q1476.4 1467.96 1479.78 1467.18 M1478.07 1459.79 Q1478.07 1462.48 1479.74 1463.98 Q1481.43 1465.49 1484.46 1465.49 Q1487.47 1465.49 1489.16 1463.98 Q1490.87 1462.48 1490.87 1459.79 Q1490.87 1457.11 1489.16 1455.6 Q1487.47 1454.1 1484.46 1454.1 Q1481.43 1454.1 1479.74 1455.6 Q1478.07 1457.11 1478.07 1459.79 Z" fill="#000000" fill-rule="nonzero" fill-opacity="1" /><path clip-path="url(#clip480)" d="M1514.62 1454.1 Q1511.01 1454.1 1509.18 1457.66 Q1507.38 1461.2 1507.38 1468.33 Q1507.38 1475.44 1509.18 1479.01 Q1511.01 1482.55 1514.62 1482.55 Q1518.26 1482.55 1520.06 1479.01 Q1521.89 1475.44 1521.89 1468.33 Q1521.89 1461.2 1520.06 1457.66 Q1518.26 1454.1 1514.62 1454.1 M1514.62 1450.39 Q1520.43 1450.39 1523.49 1455 Q1526.57 1459.58 1526.57 1468.33 Q1526.57 1477.06 1523.49 1481.67 Q1520.43 1486.25 1514.62 1486.25 Q1508.81 1486.25 1505.73 1481.67 Q1502.68 1477.06 1502.68 1468.33 Q1502.68 1459.58 1505.73 1455 Q1508.81 1450.39 1514.62 1450.39 Z" fill="#000000" fill-rule="nonzero" fill-opacity="1" /><path clip-path="url(#clip480)" d="M1775.8 1481.64 L1783.44 1481.64 L1783.44 1455.28 L1775.13 1456.95 L1775.13 1452.69 L1783.39 1451.02 L1788.07 1451.02 L1788.07 1481.64 L1795.7 1481.64 L1795.7 1485.58 L1775.8 1485.58 L1775.8 1481.64 Z" fill="#000000" fill-rule="nonzero" fill-opacity="1" /><path clip-path="url(#clip480)" d="M1815.15 1454.1 Q1811.54 1454.1 1809.71 1457.66 Q1807.9 1461.2 1807.9 1468.33 Q1807.9 1475.44 1809.71 1479.01 Q1811.54 1482.55 1815.15 1482.55 Q1818.78 1482.55 1820.59 1479.01 Q1822.42 1475.44 1822.42 1468.33 Q1822.42 1461.2 1820.59 1457.66 Q1818.78 1454.1 1815.15 1454.1 M1815.15 1450.39 Q1820.96 1450.39 1824.01 1455 Q1827.09 1459.58 1827.09 1468.33 Q1827.09 1477.06 1824.01 1481.67 Q1820.96 1486.25 1815.15 1486.25 Q1809.34 1486.25 1806.26 1481.67 Q1803.2 1477.06 1803.2 1468.33 Q1803.2 1459.58 1806.26 1455 Q1809.34 1450.39 1815.15 1450.39 Z" fill="#000000" fill-rule="nonzero" fill-opacity="1" /><path clip-path="url(#clip480)" d="M1845.31 1454.1 Q1841.7 1454.1 1839.87 1457.66 Q1838.07 1461.2 1838.07 1468.33 Q1838.07 1475.44 1839.87 1479.01 Q1841.7 1482.55 1845.31 1482.55 Q1848.95 1482.55 1850.75 1479.01 Q1852.58 1475.44 1852.58 1468.33 Q1852.58 1461.2 1850.75 1457.66 Q1848.95 1454.1 1845.31 1454.1 M1845.31 1450.39 Q1851.12 1450.39 1854.18 1455 Q1857.26 1459.58 1857.26 1468.33 Q1857.26 1477.06 1854.18 1481.67 Q1851.12 1486.25 1845.31 1486.25 Q1839.5 1486.25 1836.42 1481.67 Q1833.37 1477.06 1833.37 1468.33 Q1833.37 1459.58 1836.42 1455 Q1839.5 1450.39 1845.31 1450.39 Z" fill="#000000" fill-rule="nonzero" fill-opacity="1" /><path clip-path="url(#clip480)" d="M2092.4 1481.64 L2100.04 1481.64 L2100.04 1455.28 L2091.73 1456.95 L2091.73 1452.69 L2099.99 1451.02 L2104.67 1451.02 L2104.67 1481.64 L2112.31 1481.64 L2112.31 1485.58 L2092.4 1485.58 L2092.4 1481.64 Z" fill="#000000" fill-rule="nonzero" fill-opacity="1" /><path clip-path="url(#clip480)" d="M2125.78 1481.64 L2142.1 1481.64 L2142.1 1485.58 L2120.16 1485.58 L2120.16 1481.64 Q2122.82 1478.89 2127.4 1474.26 Q2132.01 1469.61 2133.19 1468.27 Q2135.43 1465.74 2136.31 1464.01 Q2137.22 1462.25 2137.22 1460.56 Q2137.22 1457.8 2135.27 1456.07 Q2133.35 1454.33 2130.25 1454.33 Q2128.05 1454.33 2125.6 1455.09 Q2123.17 1455.86 2120.39 1457.41 L2120.39 1452.69 Q2123.21 1451.55 2125.67 1450.97 Q2128.12 1450.39 2130.16 1450.39 Q2135.53 1450.39 2138.72 1453.08 Q2141.92 1455.77 2141.92 1460.26 Q2141.92 1462.39 2141.11 1464.31 Q2140.32 1466.2 2138.21 1468.8 Q2137.63 1469.47 2134.53 1472.69 Q2131.43 1475.88 2125.78 1481.64 Z" fill="#000000" fill-rule="nonzero" fill-opacity="1" /><path clip-path="url(#clip480)" d="M2161.92 1454.1 Q2158.3 1454.1 2156.48 1457.66 Q2154.67 1461.2 2154.67 1468.33 Q2154.67 1475.44 2156.48 1479.01 Q2158.3 1482.55 2161.92 1482.55 Q2165.55 1482.55 2167.36 1479.01 Q2169.18 1475.44 2169.18 1468.33 Q2169.18 1461.2 2167.36 1457.66 Q2165.55 1454.1 2161.92 1454.1 M2161.92 1450.39 Q2167.73 1450.39 2170.78 1455 Q2173.86 1459.58 2173.86 1468.33 Q2173.86 1477.06 2170.78 1481.67 Q2167.73 1486.25 2161.92 1486.25 Q2156.11 1486.25 2153.03 1481.67 Q2149.97 1477.06 2149.97 1468.33 Q2149.97 1459.58 2153.03 1455 Q2156.11 1450.39 2161.92 1450.39 Z" fill="#000000" fill-rule="nonzero" fill-opacity="1" /><path clip-path="url(#clip480)" d="M1185.33 1520.52 L1225.53 1520.52 L1225.53 1525.93 L1208.66 1525.93 L1208.66 1568.04 L1202.2 1568.04 L1202.2 1525.93 L1185.33 1525.93 L1185.33 1520.52 Z" fill="#000000" fill-rule="nonzero" fill-opacity="1" /><path clip-path="url(#clip480)" d="M1229.48 1532.4 L1235.33 1532.4 L1235.33 1568.04 L1229.48 1568.04 L1229.48 1532.4 M1229.48 1518.52 L1235.33 1518.52 L1235.33 1525.93 L1229.48 1525.93 L1229.48 1518.52 Z" fill="#000000" fill-rule="nonzero" fill-opacity="1" /><path clip-path="url(#clip480)" d="M1275.34 1539.24 Q1277.54 1535.29 1280.59 1533.41 Q1283.65 1531.54 1287.79 1531.54 Q1293.36 1531.54 1296.38 1535.45 Q1299.4 1539.33 1299.4 1546.53 L1299.4 1568.04 L1293.51 1568.04 L1293.51 1546.72 Q1293.51 1541.59 1291.7 1539.11 Q1289.89 1536.63 1286.16 1536.63 Q1281.61 1536.63 1278.97 1539.65 Q1276.33 1542.68 1276.33 1547.9 L1276.33 1568.04 L1270.44 1568.04 L1270.44 1546.72 Q1270.44 1541.56 1268.62 1539.11 Q1266.81 1536.63 1263.02 1536.63 Q1258.53 1536.63 1255.89 1539.68 Q1253.25 1542.71 1253.25 1547.9 L1253.25 1568.04 L1247.36 1568.04 L1247.36 1532.4 L1253.25 1532.4 L1253.25 1537.93 Q1255.26 1534.66 1258.06 1533.1 Q1260.86 1531.54 1264.71 1531.54 Q1268.59 1531.54 1271.3 1533.51 Q1274.04 1535.48 1275.34 1539.24 Z" fill="#000000" fill-rule="nonzero" fill-opacity="1" /><path clip-path="url(#clip480)" d="M1341.58 1548.76 L1341.58 1551.62 L1314.65 1551.62 Q1315.03 1557.67 1318.28 1560.85 Q1321.56 1564 1327.38 1564 Q1330.75 1564 1333.9 1563.17 Q1337.09 1562.35 1340.21 1560.69 L1340.21 1566.23 Q1337.06 1567.57 1333.75 1568.27 Q1330.44 1568.97 1327.03 1568.97 Q1318.5 1568.97 1313.5 1564 Q1308.54 1559.04 1308.54 1550.57 Q1308.54 1541.82 1313.25 1536.69 Q1317.99 1531.54 1326.01 1531.54 Q1333.2 1531.54 1337.37 1536.18 Q1341.58 1540.8 1341.58 1548.76 M1335.72 1547.04 Q1335.66 1542.23 1333.01 1539.37 Q1330.4 1536.5 1326.08 1536.5 Q1321.17 1536.5 1318.21 1539.27 Q1315.29 1542.04 1314.84 1547.07 L1335.72 1547.04 Z" fill="#000000" fill-rule="nonzero" fill-opacity="1" /><polyline clip-path="url(#clip480)" style="stroke:#000000; stroke-linecap:round; stroke-linejoin:round; stroke-width:4; stroke-opacity:1; fill:none" points="174.149,1423.18 174.149,123.472 "/>
<polyline clip-path="url(#clip480)" style="stroke:#000000; stroke-linecap:round; stroke-linejoin:round; stroke-width:4; stroke-opacity:1; fill:none" points="174.149,1386.4 193.047,1386.4 "/>
<polyline clip-path="url(#clip480)" style="stroke:#000000; stroke-linecap:round; stroke-linejoin:round; stroke-width:4; stroke-opacity:1; fill:none" points="174.149,1041.97 193.047,1041.97 "/>
<polyline clip-path="url(#clip480)" style="stroke:#000000; stroke-linecap:round; stroke-linejoin:round; stroke-width:4; stroke-opacity:1; fill:none" points="174.149,697.548 193.047,697.548 "/>
<polyline clip-path="url(#clip480)" style="stroke:#000000; stroke-linecap:round; stroke-linejoin:round; stroke-width:4; stroke-opacity:1; fill:none" points="174.149,353.124 193.047,353.124 "/>
<path clip-path="url(#clip480)" d="M126.205 1372.19 Q122.593 1372.19 120.765 1375.76 Q118.959 1379.3 118.959 1386.43 Q118.959 1393.54 120.765 1397.1 Q122.593 1400.64 126.205 1400.64 Q129.839 1400.64 131.644 1397.1 Q133.473 1393.54 133.473 1386.43 Q133.473 1379.3 131.644 1375.76 Q129.839 1372.19 126.205 1372.19 M126.205 1368.49 Q132.015 1368.49 135.07 1373.1 Q138.149 1377.68 138.149 1386.43 Q138.149 1395.16 135.07 1399.76 Q132.015 1404.35 126.205 1404.35 Q120.394 1404.35 117.316 1399.76 Q114.26 1395.16 114.26 1386.43 Q114.26 1377.68 117.316 1373.1 Q120.394 1368.49 126.205 1368.49 Z" fill="#000000" fill-rule="nonzero" fill-opacity="1" /><path clip-path="url(#clip480)" d="M118.242 1055.32 L125.88 1055.32 L125.88 1028.95 L117.57 1030.62 L117.57 1026.36 L125.834 1024.69 L130.51 1024.69 L130.51 1055.32 L138.149 1055.32 L138.149 1059.25 L118.242 1059.25 L118.242 1055.32 Z" fill="#000000" fill-rule="nonzero" fill-opacity="1" /><path clip-path="url(#clip480)" d="M121.83 710.893 L138.149 710.893 L138.149 714.828 L116.205 714.828 L116.205 710.893 Q118.867 708.138 123.45 703.508 Q128.056 698.856 129.237 697.513 Q131.482 694.99 132.362 693.254 Q133.265 691.495 133.265 689.805 Q133.265 687.05 131.32 685.314 Q129.399 683.578 126.297 683.578 Q124.098 683.578 121.644 684.342 Q119.214 685.106 116.436 686.657 L116.436 681.934 Q119.26 680.8 121.714 680.222 Q124.168 679.643 126.205 679.643 Q131.575 679.643 134.769 682.328 Q137.964 685.013 137.964 689.504 Q137.964 691.633 137.154 693.555 Q136.367 695.453 134.26 698.045 Q133.681 698.717 130.58 701.934 Q127.478 705.129 121.83 710.893 Z" fill="#000000" fill-rule="nonzero" fill-opacity="1" /><path clip-path="url(#clip480)" d="M131.019 351.77 Q134.376 352.487 136.251 354.756 Q138.149 357.024 138.149 360.358 Q138.149 365.473 134.63 368.274 Q131.112 371.075 124.63 371.075 Q122.455 371.075 120.14 370.635 Q117.848 370.219 115.394 369.362 L115.394 364.848 Q117.339 365.983 119.654 366.561 Q121.968 367.14 124.492 367.14 Q128.89 367.14 131.181 365.404 Q133.496 363.668 133.496 360.358 Q133.496 357.302 131.343 355.589 Q129.214 353.853 125.394 353.853 L121.367 353.853 L121.367 350.01 L125.58 350.01 Q129.029 350.01 130.857 348.645 Q132.686 347.256 132.686 344.663 Q132.686 342.001 130.788 340.589 Q128.913 339.154 125.394 339.154 Q123.473 339.154 121.274 339.571 Q119.075 339.987 116.436 340.867 L116.436 336.7 Q119.098 335.96 121.413 335.589 Q123.751 335.219 125.811 335.219 Q131.135 335.219 134.237 337.649 Q137.339 340.057 137.339 344.177 Q137.339 347.048 135.695 349.038 Q134.052 351.006 131.019 351.77 Z" fill="#000000" fill-rule="nonzero" fill-opacity="1" /><path clip-path="url(#clip480)" d="M20.1444 820.225 L26.9239 820.225 Q23.9002 823.472 22.4043 827.164 Q20.9083 830.824 20.9083 834.962 Q20.9083 843.11 25.9054 847.439 Q30.8707 851.767 40.2919 851.767 Q49.6813 851.767 54.6784 847.439 Q59.6436 843.11 59.6436 834.962 Q59.6436 830.824 58.1477 827.164 Q56.6518 823.472 53.6281 820.225 L60.3439 820.225 Q62.6355 823.599 63.7814 827.387 Q64.9272 831.143 64.9272 835.344 Q64.9272 846.134 58.3387 852.34 Q51.7183 858.547 40.2919 858.547 Q28.8336 858.547 22.2451 852.34 Q15.6248 846.134 15.6248 835.344 Q15.6248 831.079 16.7706 827.323 Q17.8846 823.535 20.1444 820.225 Z" fill="#000000" fill-rule="nonzero" fill-opacity="1" /><path clip-path="url(#clip480)" d="M16.4842 816.883 L16.4842 776.684 L21.895 776.684 L21.895 793.553 L64.0042 793.553 L64.0042 800.014 L21.895 800.014 L21.895 816.883 L16.4842 816.883 Z" fill="#000000" fill-rule="nonzero" fill-opacity="1" /><path clip-path="url(#clip480)" d="M16.4842 770.477 L16.4842 761.82 L56.238 740.749 L16.4842 740.749 L16.4842 734.511 L64.0042 734.511 L64.0042 743.168 L24.2503 764.239 L64.0042 764.239 L64.0042 770.477 L16.4842 770.477 Z" fill="#000000" fill-rule="nonzero" fill-opacity="1" /><path clip-path="url(#clip480)" d="M16.4842 728.305 L16.4842 688.105 L21.895 688.105 L21.895 704.974 L64.0042 704.974 L64.0042 711.435 L21.895 711.435 L21.895 728.305 L16.4842 728.305 Z" fill="#000000" fill-rule="nonzero" fill-opacity="1" /><path clip-path="url(#clip480)" d="M677.833 18.8205 L677.833 41.5461 L688.123 41.5461 Q693.835 41.5461 696.954 38.5889 Q700.073 35.6318 700.073 30.163 Q700.073 24.7348 696.954 21.7777 Q693.835 18.8205 688.123 18.8205 L677.833 18.8205 M669.651 12.096 L688.123 12.096 Q698.291 12.096 703.476 16.714 Q708.701 21.2916 708.701 30.163 Q708.701 39.1155 703.476 43.6931 Q698.291 48.2706 688.123 48.2706 L677.833 48.2706 L677.833 72.576 L669.651 72.576 L669.651 12.096 Z" fill="#000000" fill-rule="nonzero" fill-opacity="1" /><path clip-path="url(#clip480)" d="M736.247 49.7694 Q727.214 49.7694 723.73 51.8354 Q720.246 53.9013 720.246 58.8839 Q720.246 62.8538 722.839 65.2034 Q725.472 67.5124 729.969 67.5124 Q736.166 67.5124 739.893 63.1374 Q743.661 58.7219 743.661 51.4303 L743.661 49.7694 L736.247 49.7694 M751.114 46.6907 L751.114 72.576 L743.661 72.576 L743.661 65.6895 Q741.109 69.8214 737.301 71.8063 Q733.493 73.7508 727.984 73.7508 Q721.016 73.7508 716.884 69.8619 Q712.793 65.9325 712.793 59.3701 Q712.793 51.7138 717.897 47.825 Q723.042 43.9361 733.209 43.9361 L743.661 43.9361 L743.661 43.2069 Q743.661 38.0623 740.258 35.2672 Q736.896 32.4315 730.779 32.4315 Q726.89 32.4315 723.204 33.3632 Q719.517 34.295 716.114 36.1584 L716.114 29.2718 Q720.206 27.692 724.054 26.9223 Q727.903 26.1121 731.548 26.1121 Q741.392 26.1121 746.253 31.2163 Q751.114 36.3204 751.114 46.6907 Z" fill="#000000" fill-rule="nonzero" fill-opacity="1" /><path clip-path="url(#clip480)" d="M773.84 14.324 L773.84 27.2059 L789.193 27.2059 L789.193 32.9987 L773.84 32.9987 L773.84 57.6282 Q773.84 63.1779 775.339 64.7578 Q776.878 66.3376 781.537 66.3376 L789.193 66.3376 L789.193 72.576 L781.537 72.576 Q772.908 72.576 769.627 69.3758 Q766.346 66.1351 766.346 57.6282 L766.346 32.9987 L760.877 32.9987 L760.877 27.2059 L766.346 27.2059 L766.346 14.324 L773.84 14.324 Z" fill="#000000" fill-rule="nonzero" fill-opacity="1" /><path clip-path="url(#clip480)" d="M798.996 27.2059 L806.45 27.2059 L806.45 72.576 L798.996 72.576 L798.996 27.2059 M798.996 9.54393 L806.45 9.54393 L806.45 18.9825 L798.996 18.9825 L798.996 9.54393 Z" fill="#000000" fill-rule="nonzero" fill-opacity="1" /><path clip-path="url(#clip480)" d="M860.853 48.0275 L860.853 51.6733 L826.583 51.6733 Q827.069 59.3701 831.201 63.421 Q835.373 67.4314 842.786 67.4314 Q847.08 67.4314 851.091 66.3781 Q855.142 65.3249 859.111 63.2184 L859.111 70.267 Q855.101 71.9684 850.888 72.8596 Q846.675 73.7508 842.341 73.7508 Q831.484 73.7508 825.124 67.4314 Q818.805 61.1119 818.805 50.3365 Q818.805 39.1965 824.8 32.6746 Q830.836 26.1121 841.044 26.1121 Q850.199 26.1121 855.506 32.0264 Q860.853 37.9003 860.853 48.0275 M853.4 45.84 Q853.319 39.7232 849.956 36.0774 Q846.635 32.4315 841.125 32.4315 Q834.887 32.4315 831.12 35.9558 Q827.393 39.4801 826.826 45.8805 L853.4 45.84 Z" fill="#000000" fill-rule="nonzero" fill-opacity="1" /><path clip-path="url(#clip480)" d="M910.801 45.1919 L910.801 72.576 L903.347 72.576 L903.347 45.4349 Q903.347 38.994 900.836 35.7938 Q898.324 32.5936 893.301 32.5936 Q887.265 32.5936 883.781 36.4419 Q880.298 40.2903 880.298 46.9338 L880.298 72.576 L872.803 72.576 L872.803 27.2059 L880.298 27.2059 L880.298 34.2544 Q882.971 30.163 886.577 28.1376 Q890.222 26.1121 894.962 26.1121 Q902.78 26.1121 906.791 30.9732 Q910.801 35.7938 910.801 45.1919 Z" fill="#000000" fill-rule="nonzero" fill-opacity="1" /><path clip-path="url(#clip480)" d="M933.04 14.324 L933.04 27.2059 L948.393 27.2059 L948.393 32.9987 L933.04 32.9987 L933.04 57.6282 Q933.04 63.1779 934.539 64.7578 Q936.079 66.3376 940.737 66.3376 L948.393 66.3376 L948.393 72.576 L940.737 72.576 Q932.109 72.576 928.827 69.3758 Q925.546 66.1351 925.546 57.6282 L925.546 32.9987 L920.078 32.9987 L920.078 27.2059 L925.546 27.2059 L925.546 14.324 L933.04 14.324 Z" fill="#000000" fill-rule="nonzero" fill-opacity="1" /><path clip-path="url(#clip480)" d="M987.039 65.6895 L1000.41 65.6895 L1000.41 19.5497 L985.864 22.4663 L985.864 15.0127 L1000.33 12.096 L1008.51 12.096 L1008.51 65.6895 L1021.88 65.6895 L1021.88 72.576 L987.039 72.576 L987.039 65.6895 Z" fill="#000000" fill-rule="nonzero" fill-opacity="1" /><path clip-path="url(#clip480)" d="M1038.65 71.3202 L1038.65 63.8666 Q1041.73 65.3249 1044.89 66.0946 Q1048.05 66.8642 1051.08 66.8642 Q1059.19 66.8642 1063.44 61.436 Q1067.73 55.9673 1068.34 44.8678 Q1065.99 48.3516 1062.39 50.215 Q1058.78 52.0784 1054.41 52.0784 Q1045.33 52.0784 1040.02 46.6097 Q1034.76 41.1005 1034.76 31.5808 Q1034.76 22.2638 1040.27 16.633 Q1045.78 11.0023 1054.93 11.0023 Q1065.42 11.0023 1070.93 19.0636 Q1076.48 27.0843 1076.48 42.3968 Q1076.48 56.6965 1069.68 65.2439 Q1062.91 73.7508 1051.45 73.7508 Q1048.37 73.7508 1045.21 73.1431 Q1042.05 72.5355 1038.65 71.3202 M1054.93 45.678 Q1060.44 45.678 1063.64 41.9107 Q1066.88 38.1433 1066.88 31.5808 Q1066.88 25.0589 1063.64 21.2916 Q1060.44 17.4837 1054.93 17.4837 Q1049.42 17.4837 1046.18 21.2916 Q1042.98 25.0589 1042.98 31.5808 Q1042.98 38.1433 1046.18 41.9107 Q1049.42 45.678 1054.93 45.678 Z" fill="#000000" fill-rule="nonzero" fill-opacity="1" /><path clip-path="url(#clip480)" d="M1089.12 12.096 L1128.01 12.096 L1128.01 15.5798 L1106.05 72.576 L1097.51 72.576 L1118.17 18.9825 L1089.12 18.9825 L1089.12 12.096 Z" fill="#000000" fill-rule="nonzero" fill-opacity="1" /><path clip-path="url(#clip480)" d="M1161.47 43.8551 Q1155.64 43.8551 1152.28 46.9743 Q1148.95 50.0935 1148.95 55.5622 Q1148.95 61.0309 1152.28 64.1501 Q1155.64 67.2693 1161.47 67.2693 Q1167.3 67.2693 1170.67 64.1501 Q1174.03 60.9904 1174.03 55.5622 Q1174.03 50.0935 1170.67 46.9743 Q1167.34 43.8551 1161.47 43.8551 M1153.29 40.3713 Q1148.02 39.075 1145.06 35.4697 Q1142.15 31.8644 1142.15 26.6793 Q1142.15 19.4281 1147.29 15.2152 Q1152.48 11.0023 1161.47 11.0023 Q1170.5 11.0023 1175.65 15.2152 Q1180.79 19.4281 1180.79 26.6793 Q1180.79 31.8644 1177.84 35.4697 Q1174.92 39.075 1169.69 40.3713 Q1175.61 41.7486 1178.89 45.759 Q1182.21 49.7694 1182.21 55.5622 Q1182.21 64.3527 1176.82 69.0517 Q1171.48 73.7508 1161.47 73.7508 Q1151.47 73.7508 1146.08 69.0517 Q1140.73 64.3527 1140.73 55.5622 Q1140.73 49.7694 1144.05 45.759 Q1147.37 41.7486 1153.29 40.3713 M1150.29 27.4489 Q1150.29 32.148 1153.21 34.7811 Q1156.16 37.4142 1161.47 37.4142 Q1166.74 37.4142 1169.69 34.7811 Q1172.69 32.148 1172.69 27.4489 Q1172.69 22.7499 1169.69 20.1168 Q1166.74 17.4837 1161.47 17.4837 Q1156.16 17.4837 1153.21 20.1168 Q1150.29 22.7499 1150.29 27.4489 Z" fill="#000000" fill-rule="nonzero" fill-opacity="1" /><path clip-path="url(#clip480)" d="M1194.69 12.096 L1233.58 12.096 L1233.58 15.5798 L1211.62 72.576 L1203.07 72.576 L1223.73 18.9825 L1194.69 18.9825 L1194.69 12.096 Z" fill="#000000" fill-rule="nonzero" fill-opacity="1" /><path clip-path="url(#clip480)" d="M1267.04 17.4837 Q1260.72 17.4837 1257.52 23.7221 Q1254.36 29.92 1254.36 42.3968 Q1254.36 54.833 1257.52 61.0714 Q1260.72 67.2693 1267.04 67.2693 Q1273.4 67.2693 1276.56 61.0714 Q1279.76 54.833 1279.76 42.3968 Q1279.76 29.92 1276.56 23.7221 Q1273.4 17.4837 1267.04 17.4837 M1267.04 11.0023 Q1277.21 11.0023 1282.55 19.0636 Q1287.94 27.0843 1287.94 42.3968 Q1287.94 57.6687 1282.55 65.73 Q1277.21 73.7508 1267.04 73.7508 Q1256.87 73.7508 1251.48 65.73 Q1246.13 57.6687 1246.13 42.3968 Q1246.13 27.0843 1251.48 19.0636 Q1256.87 11.0023 1267.04 11.0023 Z" fill="#000000" fill-rule="nonzero" fill-opacity="1" /><path clip-path="url(#clip480)" d="M1302.56 71.3202 L1302.56 63.8666 Q1305.64 65.3249 1308.8 66.0946 Q1311.96 66.8642 1315 66.8642 Q1323.1 66.8642 1327.36 61.436 Q1331.65 55.9673 1332.26 44.8678 Q1329.91 48.3516 1326.3 50.215 Q1322.7 52.0784 1318.32 52.0784 Q1309.25 52.0784 1303.94 46.6097 Q1298.68 41.1005 1298.68 31.5808 Q1298.68 22.2638 1304.18 16.633 Q1309.69 11.0023 1318.85 11.0023 Q1329.34 11.0023 1334.85 19.0636 Q1340.4 27.0843 1340.4 42.3968 Q1340.4 56.6965 1333.59 65.2439 Q1326.83 73.7508 1315.36 73.7508 Q1312.29 73.7508 1309.13 73.1431 Q1305.97 72.5355 1302.56 71.3202 M1318.85 45.678 Q1324.36 45.678 1327.56 41.9107 Q1330.8 38.1433 1330.8 31.5808 Q1330.8 25.0589 1327.56 21.2916 Q1324.36 17.4837 1318.85 17.4837 Q1313.34 17.4837 1310.1 21.2916 Q1306.9 25.0589 1306.9 31.5808 Q1306.9 38.1433 1310.1 41.9107 Q1313.34 45.678 1318.85 45.678 Z" fill="#000000" fill-rule="nonzero" fill-opacity="1" /><path clip-path="url(#clip480)" d="M1355.19 12.096 L1387.31 12.096 L1387.31 18.9825 L1362.68 18.9825 L1362.68 33.8088 Q1364.46 33.2012 1366.24 32.9176 Q1368.03 32.5936 1369.81 32.5936 Q1379.94 32.5936 1385.85 38.1433 Q1391.76 43.6931 1391.76 53.1722 Q1391.76 62.9348 1385.69 68.3631 Q1379.61 73.7508 1368.55 73.7508 Q1364.75 73.7508 1360.78 73.1026 Q1356.85 72.4545 1352.63 71.1582 L1352.63 62.9348 Q1356.28 64.9198 1360.17 65.892 Q1364.06 66.8642 1368.39 66.8642 Q1375.4 66.8642 1379.49 63.1779 Q1383.58 59.4916 1383.58 53.1722 Q1383.58 46.8528 1379.49 43.1664 Q1375.4 39.4801 1368.39 39.4801 Q1365.11 39.4801 1361.83 40.2093 Q1358.59 40.9384 1355.19 42.4778 L1355.19 12.096 Z" fill="#000000" fill-rule="nonzero" fill-opacity="1" /><path clip-path="url(#clip480)" d="M1441.31 86.3491 L1441.31 92.1419 L1398.21 92.1419 L1398.21 86.3491 L1441.31 86.3491 Z" fill="#000000" fill-rule="nonzero" fill-opacity="1" /><path clip-path="url(#clip480)" d="M1456.42 65.6895 L1484.98 65.6895 L1484.98 72.576 L1446.57 72.576 L1446.57 65.6895 Q1451.23 60.8689 1459.25 52.7671 Q1467.31 44.6248 1469.38 42.2752 Q1473.31 37.8598 1474.85 34.8216 Q1476.43 31.7429 1476.43 28.7857 Q1476.43 23.9651 1473.03 20.927 Q1469.66 17.8888 1464.24 17.8888 Q1460.39 17.8888 1456.09 19.2256 Q1451.84 20.5624 1446.98 23.2765 L1446.98 15.0127 Q1451.92 13.0277 1456.21 12.015 Q1460.51 11.0023 1464.07 11.0023 Q1473.47 11.0023 1479.06 15.7013 Q1484.65 20.4004 1484.65 28.2591 Q1484.65 31.9859 1483.23 35.3482 Q1481.86 38.6699 1478.17 43.2069 Q1477.16 44.3817 1471.73 50.0125 Q1466.3 55.6027 1456.42 65.6895 Z" fill="#000000" fill-rule="nonzero" fill-opacity="1" /><path clip-path="url(#clip480)" d="M1509.2 65.6895 L1537.76 65.6895 L1537.76 72.576 L1499.36 72.576 L1499.36 65.6895 Q1504.02 60.8689 1512.04 52.7671 Q1520.1 44.6248 1522.16 42.2752 Q1526.09 37.8598 1527.63 34.8216 Q1529.21 31.7429 1529.21 28.7857 Q1529.21 23.9651 1525.81 20.927 Q1522.45 17.8888 1517.02 17.8888 Q1513.17 17.8888 1508.88 19.2256 Q1504.62 20.5624 1499.76 23.2765 L1499.76 15.0127 Q1504.7 13.0277 1509 12.015 Q1513.29 11.0023 1516.86 11.0023 Q1526.25 11.0023 1531.85 15.7013 Q1537.44 20.4004 1537.44 28.2591 Q1537.44 31.9859 1536.02 35.3482 Q1534.64 38.6699 1530.95 43.2069 Q1529.94 44.3817 1524.51 50.0125 Q1519.08 55.6027 1509.2 65.6895 Z" fill="#000000" fill-rule="nonzero" fill-opacity="1" /><path clip-path="url(#clip480)" d="M1577.42 19.2256 L1556.76 51.5113 L1577.42 51.5113 L1577.42 19.2256 M1575.27 12.096 L1585.56 12.096 L1585.56 51.5113 L1594.19 51.5113 L1594.19 58.3168 L1585.56 58.3168 L1585.56 72.576 L1577.42 72.576 L1577.42 58.3168 L1550.11 58.3168 L1550.11 50.4176 L1575.27 12.096 Z" fill="#000000" fill-rule="nonzero" fill-opacity="1" /><path clip-path="url(#clip480)" d="M1632.51 39.9662 Q1638.38 41.222 1641.67 45.1919 Q1644.99 49.1618 1644.99 54.9951 Q1644.99 63.9476 1638.83 68.8492 Q1632.67 73.7508 1621.33 73.7508 Q1617.52 73.7508 1613.47 72.9811 Q1609.46 72.2519 1605.17 70.7531 L1605.17 62.8538 Q1608.57 64.8388 1612.62 65.8515 Q1616.67 66.8642 1621.09 66.8642 Q1628.78 66.8642 1632.79 63.826 Q1636.84 60.7879 1636.84 54.9951 Q1636.84 49.6479 1633.08 46.6502 Q1629.35 43.612 1622.67 43.612 L1615.62 43.612 L1615.62 36.8875 L1622.99 36.8875 Q1629.03 36.8875 1632.23 34.4975 Q1635.43 32.067 1635.43 27.5299 Q1635.43 22.8714 1632.1 20.4004 Q1628.82 17.8888 1622.67 17.8888 Q1619.3 17.8888 1615.46 18.618 Q1611.61 19.3471 1606.99 20.8865 L1606.99 13.5948 Q1611.65 12.2985 1615.7 11.6504 Q1619.79 11.0023 1623.4 11.0023 Q1632.71 11.0023 1638.14 15.2557 Q1643.57 19.4686 1643.57 26.6793 Q1643.57 31.7024 1640.69 35.1862 Q1637.82 38.6294 1632.51 39.9662 Z" fill="#000000" fill-rule="nonzero" fill-opacity="1" /><path clip-path="url(#clip480)" d="M1685.29 39.9662 Q1691.17 41.222 1694.45 45.1919 Q1697.77 49.1618 1697.77 54.9951 Q1697.77 63.9476 1691.61 68.8492 Q1685.46 73.7508 1674.11 73.7508 Q1670.3 73.7508 1666.25 72.9811 Q1662.24 72.2519 1657.95 70.7531 L1657.95 62.8538 Q1661.35 64.8388 1665.4 65.8515 Q1669.45 66.8642 1673.87 66.8642 Q1681.57 66.8642 1685.58 63.826 Q1689.63 60.7879 1689.63 54.9951 Q1689.63 49.6479 1685.86 46.6502 Q1682.13 43.612 1675.45 43.612 L1668.4 43.612 L1668.4 36.8875 L1675.77 36.8875 Q1681.81 36.8875 1685.01 34.4975 Q1688.21 32.067 1688.21 27.5299 Q1688.21 22.8714 1684.89 20.4004 Q1681.61 17.8888 1675.45 17.8888 Q1672.09 17.8888 1668.24 18.618 Q1664.39 19.3471 1659.77 20.8865 L1659.77 13.5948 Q1664.43 12.2985 1668.48 11.6504 Q1672.57 11.0023 1676.18 11.0023 Q1685.5 11.0023 1690.92 15.2557 Q1696.35 19.4686 1696.35 26.6793 Q1696.35 31.7024 1693.48 35.1862 Q1690.6 38.6294 1685.29 39.9662 Z" fill="#000000" fill-rule="nonzero" fill-opacity="1" /><path clip-path="url(#clip480)" d="M1713.53 71.3202 L1713.53 63.8666 Q1716.61 65.3249 1719.77 66.0946 Q1722.93 66.8642 1725.96 66.8642 Q1734.07 66.8642 1738.32 61.436 Q1742.61 55.9673 1743.22 44.8678 Q1740.87 48.3516 1737.27 50.215 Q1733.66 52.0784 1729.29 52.0784 Q1720.21 52.0784 1714.91 46.6097 Q1709.64 41.1005 1709.64 31.5808 Q1709.64 22.2638 1715.15 16.633 Q1720.66 11.0023 1729.81 11.0023 Q1740.3 11.0023 1745.81 19.0636 Q1751.36 27.0843 1751.36 42.3968 Q1751.36 56.6965 1744.56 65.2439 Q1737.79 73.7508 1726.33 73.7508 Q1723.25 73.7508 1720.09 73.1431 Q1716.93 72.5355 1713.53 71.3202 M1729.81 45.678 Q1735.32 45.678 1738.52 41.9107 Q1741.76 38.1433 1741.76 31.5808 Q1741.76 25.0589 1738.52 21.2916 Q1735.32 17.4837 1729.81 17.4837 Q1724.3 17.4837 1721.06 21.2916 Q1717.86 25.0589 1717.86 31.5808 Q1717.86 38.1433 1721.06 41.9107 Q1724.3 45.678 1729.81 45.678 Z" fill="#000000" fill-rule="nonzero" fill-opacity="1" /><path clip-path="url(#clip480)" d="M1767.49 65.6895 L1780.85 65.6895 L1780.85 19.5497 L1766.31 22.4663 L1766.31 15.0127 L1780.77 12.096 L1788.96 12.096 L1788.96 65.6895 L1802.32 65.6895 L1802.32 72.576 L1767.49 72.576 L1767.49 65.6895 Z" fill="#000000" fill-rule="nonzero" fill-opacity="1" /><path clip-path="url(#clip480)" d="M1836.35 17.4837 Q1830.03 17.4837 1826.83 23.7221 Q1823.67 29.92 1823.67 42.3968 Q1823.67 54.833 1826.83 61.0714 Q1830.03 67.2693 1836.35 67.2693 Q1842.71 67.2693 1845.87 61.0714 Q1849.07 54.833 1849.07 42.3968 Q1849.07 29.92 1845.87 23.7221 Q1842.71 17.4837 1836.35 17.4837 M1836.35 11.0023 Q1846.52 11.0023 1851.87 19.0636 Q1857.25 27.0843 1857.25 42.3968 Q1857.25 57.6687 1851.87 65.73 Q1846.52 73.7508 1836.35 73.7508 Q1826.18 73.7508 1820.8 65.73 Q1815.45 57.6687 1815.45 42.3968 Q1815.45 27.0843 1820.8 19.0636 Q1826.18 11.0023 1836.35 11.0023 Z" fill="#000000" fill-rule="nonzero" fill-opacity="1" /><polyline clip-path="url(#clip482)" style="stroke:#009af9; stroke-linecap:round; stroke-linejoin:round; stroke-width:8; stroke-opacity:1; fill:none" points="248.999,1386.4 264.83,1352.09 280.66,1349.15 296.49,1346.16 312.32,1343.18 328.151,1340.12 343.981,1337 359.811,1333.79 375.641,1330.49 391.471,1327.09 407.302,1323.57 423.132,1319.93 438.962,1316.15 454.792,1312.23 470.622,1308.17 486.453,1303.94 502.283,1299.55 518.113,1295 533.943,1290.28 549.774,1285.38 565.604,1280.31 581.434,1275.06 597.264,1269.64 613.094,1264.05 628.925,1258.28 644.755,1252.34 660.585,1246.23 676.415,1239.96 692.245,1233.52 708.076,1226.92 723.906,1220.17 739.736,1213.27 755.566,1206.22 771.397,1199.04 787.227,1191.71 803.057,1184.26 818.887,1176.67 834.717,1168.96 850.548,1161.14 866.378,1153.2 882.208,1145.15 898.038,1136.99 913.868,1128.74 929.699,1120.38 945.529,1111.94 961.359,1103.4 977.189,1094.77 993.02,1086.06 1008.85,1077.27 1024.68,1068.4 1040.51,1059.46 1056.34,1050.44 1072.17,1041.35 1088,1032.19 1103.83,1022.96 1119.66,1013.67 1135.49,1004.32 1151.32,994.897 1167.15,985.417 1182.98,975.876 1198.81,966.274 1214.64,956.615 1230.47,946.897 1246.3,937.121 1262.13,927.287 1277.96,917.396 1293.79,907.448 1309.62,897.443 1325.45,887.381 1341.28,877.261 1357.11,867.083 1372.94,856.848 1388.77,846.556 1404.61,836.204 1420.44,825.793 1436.27,815.321 1452.1,804.79 1467.93,794.199 1483.76,783.545 1499.59,772.828 1515.42,762.048 1531.25,751.204 1547.08,740.297 1562.91,729.323 1578.74,718.282 1594.57,707.174 1610.4,695.999 1626.23,684.757 1642.06,673.443 1657.89,662.059 1673.72,650.604 1689.55,639.078 1705.38,627.481 1721.21,615.81 1737.04,604.065 1752.87,592.246 1768.7,580.353 1784.53,568.387 1800.36,556.344 1816.19,544.227 1832.02,532.033 1847.85,519.763 1863.68,507.418 1879.51,494.997 1895.34,482.501 1911.17,469.929 1927,457.281 1942.83,444.558 1958.66,431.759 1974.49,418.887 1990.32,405.942 2006.15,392.924 2021.98,379.833 2037.81,366.668 2053.64,353.433 2069.47,340.129 2085.3,326.759 2101.13,313.32 2116.96,299.814 2132.8,286.239 2148.63,272.603 2164.46,258.907 2180.29,245.152 2196.12,231.337 2211.95,217.462 2227.78,203.531 2243.61,189.549 2259.44,175.516 2275.27,161.432 2291.1,160.256 "/>
<circle clip-path="url(#clip482)" cx="235.808" cy="1351.95" r="18" fill="#e26f46" fill-rule="evenodd" fill-opacity="1" stroke="#000000" stroke-opacity="1" stroke-width="3.2"/>
<circle clip-path="url(#clip482)" cx="397.012" cy="1351.95" r="18" fill="#e26f46" fill-rule="evenodd" fill-opacity="1" stroke="#000000" stroke-opacity="1" stroke-width="3.2"/>
<circle clip-path="url(#clip482)" cx="788.546" cy="1200.41" r="18" fill="#e26f46" fill-rule="evenodd" fill-opacity="1" stroke="#000000" stroke-opacity="1" stroke-width="3.2"/>
<circle clip-path="url(#clip482)" cx="901.468" cy="1110.86" r="18" fill="#e26f46" fill-rule="evenodd" fill-opacity="1" stroke="#000000" stroke-opacity="1" stroke-width="3.2"/>
<circle clip-path="url(#clip482)" cx="1003.57" cy="1066.08" r="18" fill="#e26f46" fill-rule="evenodd" fill-opacity="1" stroke="#000000" stroke-opacity="1" stroke-width="3.2"/>
<circle clip-path="url(#clip482)" cx="1057.92" cy="1010.97" r="18" fill="#e26f46" fill-rule="evenodd" fill-opacity="1" stroke="#000000" stroke-opacity="1" stroke-width="3.2"/>
<circle clip-path="url(#clip482)" cx="1159.76" cy="911.091" r="18" fill="#e26f46" fill-rule="evenodd" fill-opacity="1" stroke="#000000" stroke-opacity="1" stroke-width="3.2"/>
<circle clip-path="url(#clip482)" cx="1289.84" cy="869.76" r="18" fill="#e26f46" fill-rule="evenodd" fill-opacity="1" stroke="#000000" stroke-opacity="1" stroke-width="3.2"/>
<circle clip-path="url(#clip482)" cx="1598.53" cy="587.332" r="18" fill="#e26f46" fill-rule="evenodd" fill-opacity="1" stroke="#000000" stroke-opacity="1" stroke-width="3.2"/>
<circle clip-path="url(#clip482)" cx="1815.4" cy="349.68" r="18" fill="#e26f46" fill-rule="evenodd" fill-opacity="1" stroke="#000000" stroke-opacity="1" stroke-width="3.2"/>
<circle clip-path="url(#clip482)" cx="2007.21" cy="391.011" r="18" fill="#e26f46" fill-rule="evenodd" fill-opacity="1" stroke="#000000" stroke-opacity="1" stroke-width="3.2"/>
<circle clip-path="url(#clip482)" cx="2260.76" cy="456.451" r="18" fill="#e26f46" fill-rule="evenodd" fill-opacity="1" stroke="#000000" stroke-opacity="1" stroke-width="3.2"/>
<path clip-path="url(#clip480)" d="M246.769 322.316 L848.864 322.316 L848.864 166.796 L246.769 166.796  Z" fill="#ffffff" fill-rule="evenodd" fill-opacity="1"/>
<polyline clip-path="url(#clip480)" style="stroke:#000000; stroke-linecap:round; stroke-linejoin:round; stroke-width:4; stroke-opacity:1; fill:none" points="246.769,322.316 848.864,322.316 848.864,166.796 246.769,166.796 246.769,322.316 "/>
<polyline clip-path="url(#clip480)" style="stroke:#009af9; stroke-linecap:round; stroke-linejoin:round; stroke-width:8; stroke-opacity:1; fill:none" points="270.976,218.636 416.216,218.636 "/>
<path clip-path="url(#clip480)" d="M440.423 201.356 L447.391 201.356 L456.21 224.874 L465.076 201.356 L472.043 201.356 L472.043 235.916 L467.483 235.916 L467.483 205.569 L458.571 229.272 L453.872 229.272 L444.96 205.569 L444.96 235.916 L440.423 235.916 L440.423 201.356 Z" fill="#000000" fill-rule="nonzero" fill-opacity="1" /><path clip-path="url(#clip480)" d="M491.187 212.976 Q487.761 212.976 485.77 215.661 Q483.779 218.323 483.779 222.976 Q483.779 227.629 485.747 230.314 Q487.738 232.976 491.187 232.976 Q494.589 232.976 496.58 230.291 Q498.571 227.606 498.571 222.976 Q498.571 218.37 496.58 215.684 Q494.589 212.976 491.187 212.976 M491.187 209.365 Q496.742 209.365 499.914 212.976 Q503.085 216.587 503.085 222.976 Q503.085 229.342 499.914 232.976 Q496.742 236.587 491.187 236.587 Q485.608 236.587 482.437 232.976 Q479.289 229.342 479.289 222.976 Q479.289 216.587 482.437 212.976 Q485.608 209.365 491.187 209.365 Z" fill="#000000" fill-rule="nonzero" fill-opacity="1" /><path clip-path="url(#clip480)" d="M527.205 213.925 L527.205 199.897 L531.464 199.897 L531.464 235.916 L527.205 235.916 L527.205 232.027 Q525.862 234.342 523.802 235.476 Q521.765 236.587 518.895 236.587 Q514.196 236.587 511.233 232.837 Q508.293 229.087 508.293 222.976 Q508.293 216.865 511.233 213.115 Q514.196 209.365 518.895 209.365 Q521.765 209.365 523.802 210.499 Q525.862 211.61 527.205 213.925 M512.691 222.976 Q512.691 227.675 514.613 230.36 Q516.557 233.022 519.937 233.022 Q523.316 233.022 525.261 230.36 Q527.205 227.675 527.205 222.976 Q527.205 218.277 525.261 215.615 Q523.316 212.93 519.937 212.93 Q516.557 212.93 514.613 215.615 Q512.691 218.277 512.691 222.976 Z" fill="#000000" fill-rule="nonzero" fill-opacity="1" /><path clip-path="url(#clip480)" d="M562.413 221.888 L562.413 223.971 L542.83 223.971 Q543.108 228.369 545.469 230.684 Q547.853 232.976 552.089 232.976 Q554.543 232.976 556.835 232.374 Q559.149 231.772 561.418 230.569 L561.418 234.596 Q559.126 235.568 556.719 236.078 Q554.311 236.587 551.835 236.587 Q545.631 236.587 541.997 232.976 Q538.386 229.365 538.386 223.207 Q538.386 216.842 541.811 213.115 Q545.261 209.365 551.094 209.365 Q556.325 209.365 559.358 212.745 Q562.413 216.101 562.413 221.888 M558.154 220.638 Q558.108 217.143 556.186 215.059 Q554.288 212.976 551.14 212.976 Q547.575 212.976 545.423 214.99 Q543.293 217.004 542.969 220.661 L558.154 220.638 Z" fill="#000000" fill-rule="nonzero" fill-opacity="1" /><path clip-path="url(#clip480)" d="M569.404 199.897 L573.663 199.897 L573.663 235.916 L569.404 235.916 L569.404 199.897 Z" fill="#000000" fill-rule="nonzero" fill-opacity="1" /><path clip-path="url(#clip480)" d="M602.506 205.198 L602.506 218.184 L608.385 218.184 Q611.649 218.184 613.431 216.495 Q615.214 214.805 615.214 211.68 Q615.214 208.578 613.431 206.888 Q611.649 205.198 608.385 205.198 L602.506 205.198 M597.83 201.356 L608.385 201.356 Q614.195 201.356 617.158 203.995 Q620.144 206.61 620.144 211.68 Q620.144 216.795 617.158 219.411 Q614.195 222.027 608.385 222.027 L602.506 222.027 L602.506 235.916 L597.83 235.916 L597.83 201.356 Z" fill="#000000" fill-rule="nonzero" fill-opacity="1" /><path clip-path="url(#clip480)" d="M640.422 213.971 Q639.704 213.555 638.848 213.37 Q638.015 213.161 636.996 213.161 Q633.385 213.161 631.441 215.522 Q629.519 217.86 629.519 222.258 L629.519 235.916 L625.237 235.916 L625.237 209.99 L629.519 209.99 L629.519 214.018 Q630.862 211.657 633.015 210.522 Q635.167 209.365 638.246 209.365 Q638.686 209.365 639.218 209.434 Q639.751 209.481 640.399 209.596 L640.422 213.971 Z" fill="#000000" fill-rule="nonzero" fill-opacity="1" /><path clip-path="url(#clip480)" d="M666.024 221.888 L666.024 223.971 L646.441 223.971 Q646.718 228.369 649.079 230.684 Q651.464 232.976 655.7 232.976 Q658.153 232.976 660.445 232.374 Q662.76 231.772 665.028 230.569 L665.028 234.596 Q662.737 235.568 660.329 236.078 Q657.922 236.587 655.445 236.587 Q649.241 236.587 645.607 232.976 Q641.996 229.365 641.996 223.207 Q641.996 216.842 645.422 213.115 Q648.871 209.365 654.704 209.365 Q659.936 209.365 662.968 212.745 Q666.024 216.101 666.024 221.888 M661.765 220.638 Q661.718 217.143 659.797 215.059 Q657.899 212.976 654.751 212.976 Q651.186 212.976 649.033 214.99 Q646.903 217.004 646.579 220.661 L661.765 220.638 Z" fill="#000000" fill-rule="nonzero" fill-opacity="1" /><path clip-path="url(#clip480)" d="M690.075 213.925 L690.075 199.897 L694.334 199.897 L694.334 235.916 L690.075 235.916 L690.075 232.027 Q688.732 234.342 686.672 235.476 Q684.635 236.587 681.764 236.587 Q677.065 236.587 674.102 232.837 Q671.163 229.087 671.163 222.976 Q671.163 216.865 674.102 213.115 Q677.065 209.365 681.764 209.365 Q684.635 209.365 686.672 210.499 Q688.732 211.61 690.075 213.925 M675.561 222.976 Q675.561 227.675 677.482 230.36 Q679.426 233.022 682.806 233.022 Q686.186 233.022 688.13 230.36 Q690.075 227.675 690.075 222.976 Q690.075 218.277 688.13 215.615 Q686.186 212.93 682.806 212.93 Q679.426 212.93 677.482 215.615 Q675.561 218.277 675.561 222.976 Z" fill="#000000" fill-rule="nonzero" fill-opacity="1" /><path clip-path="url(#clip480)" d="M703.107 209.99 L707.366 209.99 L707.366 235.916 L703.107 235.916 L703.107 209.99 M703.107 199.897 L707.366 199.897 L707.366 205.291 L703.107 205.291 L703.107 199.897 Z" fill="#000000" fill-rule="nonzero" fill-opacity="1" /><path clip-path="url(#clip480)" d="M734.935 210.985 L734.935 214.967 Q733.13 213.971 731.301 213.485 Q729.496 212.976 727.644 212.976 Q723.5 212.976 721.209 215.615 Q718.917 218.231 718.917 222.976 Q718.917 227.721 721.209 230.36 Q723.5 232.976 727.644 232.976 Q729.496 232.976 731.301 232.49 Q733.13 231.981 734.935 230.985 L734.935 234.92 Q733.153 235.754 731.232 236.17 Q729.334 236.587 727.181 236.587 Q721.324 236.587 717.875 232.906 Q714.426 229.226 714.426 222.976 Q714.426 216.633 717.898 212.999 Q721.394 209.365 727.459 209.365 Q729.426 209.365 731.301 209.782 Q733.176 210.175 734.935 210.985 Z" fill="#000000" fill-rule="nonzero" fill-opacity="1" /><path clip-path="url(#clip480)" d="M746.556 202.629 L746.556 209.99 L755.329 209.99 L755.329 213.3 L746.556 213.3 L746.556 227.374 Q746.556 230.545 747.412 231.448 Q748.292 232.351 750.954 232.351 L755.329 232.351 L755.329 235.916 L750.954 235.916 Q746.023 235.916 744.148 234.087 Q742.273 232.235 742.273 227.374 L742.273 213.3 L739.148 213.3 L739.148 209.99 L742.273 209.99 L742.273 202.629 L746.556 202.629 Z" fill="#000000" fill-rule="nonzero" fill-opacity="1" /><path clip-path="url(#clip480)" d="M760.931 209.99 L765.19 209.99 L765.19 235.916 L760.931 235.916 L760.931 209.99 M760.931 199.897 L765.19 199.897 L765.19 205.291 L760.931 205.291 L760.931 199.897 Z" fill="#000000" fill-rule="nonzero" fill-opacity="1" /><path clip-path="url(#clip480)" d="M784.148 212.976 Q780.722 212.976 778.731 215.661 Q776.741 218.323 776.741 222.976 Q776.741 227.629 778.708 230.314 Q780.699 232.976 784.148 232.976 Q787.551 232.976 789.542 230.291 Q791.532 227.606 791.532 222.976 Q791.532 218.37 789.542 215.684 Q787.551 212.976 784.148 212.976 M784.148 209.365 Q789.704 209.365 792.875 212.976 Q796.046 216.587 796.046 222.976 Q796.046 229.342 792.875 232.976 Q789.704 236.587 784.148 236.587 Q778.569 236.587 775.398 232.976 Q772.25 229.342 772.25 222.976 Q772.25 216.587 775.398 212.976 Q778.569 209.365 784.148 209.365 Z" fill="#000000" fill-rule="nonzero" fill-opacity="1" /><path clip-path="url(#clip480)" d="M824.657 220.268 L824.657 235.916 L820.398 235.916 L820.398 220.407 Q820.398 216.726 818.963 214.897 Q817.528 213.069 814.657 213.069 Q811.208 213.069 809.217 215.268 Q807.227 217.467 807.227 221.263 L807.227 235.916 L802.944 235.916 L802.944 209.99 L807.227 209.99 L807.227 214.018 Q808.754 211.68 810.815 210.522 Q812.898 209.365 815.606 209.365 Q820.074 209.365 822.366 212.143 Q824.657 214.897 824.657 220.268 Z" fill="#000000" fill-rule="nonzero" fill-opacity="1" /><circle clip-path="url(#clip480)" cx="343.596" cy="270.476" r="20.9455" fill="#e26f46" fill-rule="evenodd" fill-opacity="1" stroke="#000000" stroke-opacity="1" stroke-width="3.72364"/>
<path clip-path="url(#clip480)" d="M456.442 256.367 Q451.349 256.367 448.34 260.163 Q445.354 263.96 445.354 270.51 Q445.354 277.038 448.34 280.834 Q451.349 284.631 456.442 284.631 Q461.534 284.631 464.497 280.834 Q467.483 277.038 467.483 270.51 Q467.483 263.96 464.497 260.163 Q461.534 256.367 456.442 256.367 M456.442 252.571 Q463.71 252.571 468.062 257.455 Q472.414 262.316 472.414 270.51 Q472.414 278.682 468.062 283.566 Q463.71 288.427 456.442 288.427 Q449.15 288.427 444.775 283.566 Q440.423 278.705 440.423 270.51 Q440.423 262.316 444.775 257.455 Q449.15 252.571 456.442 252.571 Z" fill="#000000" fill-rule="nonzero" fill-opacity="1" /><path clip-path="url(#clip480)" d="M498.154 274.816 Q498.154 270.117 496.21 267.455 Q494.289 264.77 490.909 264.77 Q487.529 264.77 485.585 267.455 Q483.664 270.117 483.664 274.816 Q483.664 279.515 485.585 282.2 Q487.529 284.862 490.909 284.862 Q494.289 284.862 496.21 282.2 Q498.154 279.515 498.154 274.816 M483.664 265.765 Q485.006 263.45 487.043 262.339 Q489.103 261.205 491.951 261.205 Q496.673 261.205 499.613 264.955 Q502.576 268.705 502.576 274.816 Q502.576 280.927 499.613 284.677 Q496.673 288.427 491.951 288.427 Q489.103 288.427 487.043 287.316 Q485.006 286.182 483.664 283.867 L483.664 287.756 L479.381 287.756 L479.381 251.737 L483.664 251.737 L483.664 265.765 Z" fill="#000000" fill-rule="nonzero" fill-opacity="1" /><path clip-path="url(#clip480)" d="M526.163 262.594 L526.163 266.622 Q524.358 265.696 522.413 265.233 Q520.469 264.77 518.386 264.77 Q515.214 264.77 513.617 265.742 Q512.043 266.714 512.043 268.659 Q512.043 270.14 513.177 270.997 Q514.312 271.83 517.738 272.594 L519.196 272.918 Q523.733 273.89 525.631 275.672 Q527.552 277.432 527.552 280.603 Q527.552 284.214 524.682 286.321 Q521.835 288.427 516.835 288.427 Q514.751 288.427 512.483 288.01 Q510.238 287.617 507.738 286.807 L507.738 282.409 Q510.099 283.635 512.39 284.26 Q514.682 284.862 516.927 284.862 Q519.937 284.862 521.557 283.844 Q523.177 282.802 523.177 280.927 Q523.177 279.191 521.997 278.265 Q520.839 277.339 516.881 276.483 L515.4 276.135 Q511.441 275.302 509.682 273.589 Q507.923 271.853 507.923 268.844 Q507.923 265.186 510.515 263.196 Q513.108 261.205 517.876 261.205 Q520.237 261.205 522.321 261.552 Q524.404 261.899 526.163 262.594 Z" fill="#000000" fill-rule="nonzero" fill-opacity="1" /><path clip-path="url(#clip480)" d="M556.51 273.728 L556.51 275.811 L536.927 275.811 Q537.205 280.209 539.566 282.524 Q541.95 284.816 546.186 284.816 Q548.64 284.816 550.932 284.214 Q553.247 283.612 555.515 282.409 L555.515 286.436 Q553.223 287.408 550.816 287.918 Q548.409 288.427 545.932 288.427 Q539.728 288.427 536.094 284.816 Q532.483 281.205 532.483 275.047 Q532.483 268.682 535.909 264.955 Q539.358 261.205 545.191 261.205 Q550.423 261.205 553.455 264.585 Q556.51 267.941 556.51 273.728 M552.251 272.478 Q552.205 268.983 550.284 266.899 Q548.385 264.816 545.237 264.816 Q541.673 264.816 539.52 266.83 Q537.39 268.844 537.066 272.501 L552.251 272.478 Z" fill="#000000" fill-rule="nonzero" fill-opacity="1" /><path clip-path="url(#clip480)" d="M578.524 265.811 Q577.807 265.395 576.95 265.21 Q576.117 265.001 575.098 265.001 Q571.487 265.001 569.543 267.362 Q567.621 269.7 567.621 274.098 L567.621 287.756 L563.339 287.756 L563.339 261.83 L567.621 261.83 L567.621 265.858 Q568.964 263.497 571.117 262.362 Q573.27 261.205 576.348 261.205 Q576.788 261.205 577.321 261.274 Q577.853 261.321 578.501 261.436 L578.524 265.811 Z" fill="#000000" fill-rule="nonzero" fill-opacity="1" /><path clip-path="url(#clip480)" d="M579.936 261.83 L584.45 261.83 L592.552 283.589 L600.654 261.83 L605.168 261.83 L595.445 287.756 L589.658 287.756 L579.936 261.83 Z" fill="#000000" fill-rule="nonzero" fill-opacity="1" /><path clip-path="url(#clip480)" d="M633.223 273.728 L633.223 275.811 L613.64 275.811 Q613.918 280.209 616.279 282.524 Q618.663 284.816 622.899 284.816 Q625.353 284.816 627.644 284.214 Q629.959 283.612 632.228 282.409 L632.228 286.436 Q629.936 287.408 627.529 287.918 Q625.121 288.427 622.644 288.427 Q616.441 288.427 612.806 284.816 Q609.195 281.205 609.195 275.047 Q609.195 268.682 612.621 264.955 Q616.07 261.205 621.904 261.205 Q627.135 261.205 630.167 264.585 Q633.223 267.941 633.223 273.728 M628.964 272.478 Q628.917 268.983 626.996 266.899 Q625.098 264.816 621.95 264.816 Q618.385 264.816 616.232 266.83 Q614.103 268.844 613.779 272.501 L628.964 272.478 Z" fill="#000000" fill-rule="nonzero" fill-opacity="1" /><path clip-path="url(#clip480)" d="M657.274 265.765 L657.274 251.737 L661.533 251.737 L661.533 287.756 L657.274 287.756 L657.274 283.867 Q655.931 286.182 653.871 287.316 Q651.834 288.427 648.964 288.427 Q644.265 288.427 641.302 284.677 Q638.362 280.927 638.362 274.816 Q638.362 268.705 641.302 264.955 Q644.265 261.205 648.964 261.205 Q651.834 261.205 653.871 262.339 Q655.931 263.45 657.274 265.765 M642.76 274.816 Q642.76 279.515 644.681 282.2 Q646.626 284.862 650.005 284.862 Q653.385 284.862 655.329 282.2 Q657.274 279.515 657.274 274.816 Q657.274 270.117 655.329 267.455 Q653.385 264.77 650.005 264.77 Q646.626 264.77 644.681 267.455 Q642.76 270.117 642.76 274.816 Z" fill="#000000" fill-rule="nonzero" fill-opacity="1" /><path clip-path="url(#clip480)" d="M690.237 257.038 L690.237 283.913 L695.885 283.913 Q703.037 283.913 706.348 280.672 Q709.681 277.432 709.681 270.441 Q709.681 263.497 706.348 260.279 Q703.037 257.038 695.885 257.038 L690.237 257.038 M685.561 253.196 L695.167 253.196 Q705.213 253.196 709.912 257.386 Q714.611 261.552 714.611 270.441 Q714.611 279.376 709.889 283.566 Q705.167 287.756 695.167 287.756 L685.561 287.756 L685.561 253.196 Z" fill="#000000" fill-rule="nonzero" fill-opacity="1" /><path clip-path="url(#clip480)" d="M733.662 274.723 Q728.5 274.723 726.51 275.904 Q724.519 277.084 724.519 279.932 Q724.519 282.2 726 283.543 Q727.505 284.862 730.074 284.862 Q733.616 284.862 735.746 282.362 Q737.898 279.839 737.898 275.672 L737.898 274.723 L733.662 274.723 M742.158 272.964 L742.158 287.756 L737.898 287.756 L737.898 283.821 Q736.44 286.182 734.264 287.316 Q732.088 288.427 728.94 288.427 Q724.959 288.427 722.598 286.205 Q720.26 283.959 720.26 280.209 Q720.26 275.834 723.176 273.612 Q726.116 271.39 731.926 271.39 L737.898 271.39 L737.898 270.973 Q737.898 268.034 735.954 266.436 Q734.033 264.816 730.537 264.816 Q728.315 264.816 726.209 265.348 Q724.102 265.881 722.158 266.946 L722.158 263.01 Q724.496 262.108 726.695 261.668 Q728.894 261.205 730.977 261.205 Q736.602 261.205 739.38 264.122 Q742.158 267.038 742.158 272.964 Z" fill="#000000" fill-rule="nonzero" fill-opacity="1" /><path clip-path="url(#clip480)" d="M755.144 254.469 L755.144 261.83 L763.917 261.83 L763.917 265.14 L755.144 265.14 L755.144 279.214 Q755.144 282.385 756 283.288 Q756.88 284.191 759.542 284.191 L763.917 284.191 L763.917 287.756 L759.542 287.756 Q754.611 287.756 752.736 285.927 Q750.861 284.075 750.861 279.214 L750.861 265.14 L747.736 265.14 L747.736 261.83 L750.861 261.83 L750.861 254.469 L755.144 254.469 Z" fill="#000000" fill-rule="nonzero" fill-opacity="1" /><path clip-path="url(#clip480)" d="M781.301 274.723 Q776.139 274.723 774.148 275.904 Q772.157 277.084 772.157 279.932 Q772.157 282.2 773.639 283.543 Q775.144 284.862 777.713 284.862 Q781.255 284.862 783.384 282.362 Q785.537 279.839 785.537 275.672 L785.537 274.723 L781.301 274.723 M789.796 272.964 L789.796 287.756 L785.537 287.756 L785.537 283.821 Q784.079 286.182 781.903 287.316 Q779.727 288.427 776.579 288.427 Q772.597 288.427 770.236 286.205 Q767.898 283.959 767.898 280.209 Q767.898 275.834 770.815 273.612 Q773.755 271.39 779.565 271.39 L785.537 271.39 L785.537 270.973 Q785.537 268.034 783.593 266.436 Q781.671 264.816 778.176 264.816 Q775.954 264.816 773.847 265.348 Q771.741 265.881 769.796 266.946 L769.796 263.01 Q772.134 262.108 774.333 261.668 Q776.532 261.205 778.616 261.205 Q784.241 261.205 787.018 264.122 Q789.796 267.038 789.796 272.964 Z" fill="#000000" fill-rule="nonzero" fill-opacity="1" /></svg>
