<?xml version="1.0" encoding="utf-8"?>
<svg xmlns="http://www.w3.org/2000/svg" xmlns:xlink="http://www.w3.org/1999/xlink" width="600" height="400" viewBox="0 0 2400 1600">
<defs>
  <clipPath id="clip630">
    <rect x="0" y="0" width="2400" height="1600"/>
  </clipPath>
</defs>
<path clip-path="url(#clip630)" d="M0 1600 L2400 1600 L2400 0 L0 0  Z" fill="#ffffff" fill-rule="evenodd" fill-opacity="1"/>
<defs>
  <clipPath id="clip631">
    <rect x="480" y="0" width="1681" height="1600"/>
  </clipPath>
</defs>
<path clip-path="url(#clip630)" d="M174.149 1423.18 L2352.76 1423.18 L2352.76 123.472 L174.149 123.472  Z" fill="#ffffff" fill-rule="evenodd" fill-opacity="1"/>
<defs>
  <clipPath id="clip632">
    <rect x="174" y="123" width="2180" height="1301"/>
  </clipPath>
</defs>
<polyline clip-path="url(#clip632)" style="stroke:#000000; stroke-linecap:round; stroke-linejoin:round; stroke-width:2; stroke-opacity:0.1; fill:none" points="224.119,1423.18 224.119,123.472 "/>
<polyline clip-path="url(#clip632)" style="stroke:#000000; stroke-linecap:round; stroke-linejoin:round; stroke-width:2; stroke-opacity:0.1; fill:none" points="593.223,1423.18 593.223,123.472 "/>
<polyline clip-path="url(#clip632)" style="stroke:#000000; stroke-linecap:round; stroke-linejoin:round; stroke-width:2; stroke-opacity:0.1; fill:none" points="962.326,1423.18 962.326,123.472 "/>
<polyline clip-path="url(#clip632)" style="stroke:#000000; stroke-linecap:round; stroke-linejoin:round; stroke-width:2; stroke-opacity:0.1; fill:none" points="1331.43,1423.18 1331.43,123.472 "/>
<polyline clip-path="url(#clip632)" style="stroke:#000000; stroke-linecap:round; stroke-linejoin:round; stroke-width:2; stroke-opacity:0.1; fill:none" points="1700.53,1423.18 1700.53,123.472 "/>
<polyline clip-path="url(#clip632)" style="stroke:#000000; stroke-linecap:round; stroke-linejoin:round; stroke-width:2; stroke-opacity:0.1; fill:none" points="2069.64,1423.18 2069.64,123.472 "/>
<polyline clip-path="url(#clip632)" style="stroke:#000000; stroke-linecap:round; stroke-linejoin:round; stroke-width:2; stroke-opacity:0.1; fill:none" points="174.149,1386.4 2352.76,1386.4 "/>
<polyline clip-path="url(#clip632)" style="stroke:#000000; stroke-linecap:round; stroke-linejoin:round; stroke-width:2; stroke-opacity:0.1; fill:none" points="174.149,981.459 2352.76,981.459 "/>
<polyline clip-path="url(#clip632)" style="stroke:#000000; stroke-linecap:round; stroke-linejoin:round; stroke-width:2; stroke-opacity:0.1; fill:none" points="174.149,576.522 2352.76,576.522 "/>
<polyline clip-path="url(#clip632)" style="stroke:#000000; stroke-linecap:round; stroke-linejoin:round; stroke-width:2; stroke-opacity:0.1; fill:none" points="174.149,171.586 2352.76,171.586 "/>
<polyline clip-path="url(#clip630)" style="stroke:#000000; stroke-linecap:round; stroke-linejoin:round; stroke-width:4; stroke-opacity:1; fill:none" points="174.149,1423.18 2352.76,1423.18 "/>
<polyline clip-path="url(#clip630)" style="stroke:#000000; stroke-linecap:round; stroke-linejoin:round; stroke-width:4; stroke-opacity:1; fill:none" points="224.119,1423.18 224.119,1404.28 "/>
<polyline clip-path="url(#clip630)" style="stroke:#000000; stroke-linecap:round; stroke-linejoin:round; stroke-width:4; stroke-opacity:1; fill:none" points="593.223,1423.18 593.223,1404.28 "/>
<polyline clip-path="url(#clip630)" style="stroke:#000000; stroke-linecap:round; stroke-linejoin:round; stroke-width:4; stroke-opacity:1; fill:none" points="962.326,1423.18 962.326,1404.28 "/>
<polyline clip-path="url(#clip630)" style="stroke:#000000; stroke-linecap:round; stroke-linejoin:round; stroke-width:4; stroke-opacity:1; fill:none" points="1331.43,1423.18 1331.43,1404.28 "/>
<polyline clip-path="url(#clip630)" style="stroke:#000000; stroke-linecap:round; stroke-linejoin:round; stroke-width:4; stroke-opacity:1; fill:none" points="1700.53,1423.18 1700.53,1404.28 "/>
<polyline clip-path="url(#clip630)" style="stroke:#000000; stroke-linecap:round; stroke-linejoin:round; stroke-width:4; stroke-opacity:1; fill:none" points="2069.64,1423.18 2069.64,1404.28 "/>
<path clip-path="url(#clip630)" d="M224.119 1454.1 Q220.508 1454.1 218.68 1457.66 Q216.874 1461.2 216.874 1468.33 Q216.874 1475.44 218.68 1479.01 Q220.508 1482.55 224.119 1482.55 Q227.754 1482.55 229.559 1479.01 Q231.388 1475.44 231.388 1468.33 Q231.388 1461.2 229.559 1457.66 Q227.754 1454.1 224.119 1454.1 M224.119 1450.39 Q229.929 1450.39 232.985 1455 Q236.064 1459.58 236.064 1468.33 Q236.064 1477.06 232.985 1481.67 Q229.929 1486.25 224.119 1486.25 Q218.309 1486.25 215.23 1481.67 Q212.175 1477.06 212.175 1468.33 Q212.175 1459.58 215.23 1455 Q218.309 1450.39 224.119 1450.39 Z" fill="#000000" fill-rule="nonzero" fill-opacity="1" /><path clip-path="url(#clip630)" d="M567.91 1481.64 L575.549 1481.64 L575.549 1455.28 L567.239 1456.95 L567.239 1452.69 L575.503 1451.02 L580.179 1451.02 L580.179 1481.64 L587.817 1481.64 L587.817 1485.58 L567.91 1485.58 L567.91 1481.64 Z" fill="#000000" fill-rule="nonzero" fill-opacity="1" /><path clip-path="url(#clip630)" d="M607.262 1454.1 Q603.651 1454.1 601.822 1457.66 Q600.016 1461.2 600.016 1468.33 Q600.016 1475.44 601.822 1479.01 Q603.651 1482.55 607.262 1482.55 Q610.896 1482.55 612.702 1479.01 Q614.53 1475.44 614.53 1468.33 Q614.53 1461.2 612.702 1457.66 Q610.896 1454.1 607.262 1454.1 M607.262 1450.39 Q613.072 1450.39 616.128 1455 Q619.206 1459.58 619.206 1468.33 Q619.206 1477.06 616.128 1481.67 Q613.072 1486.25 607.262 1486.25 Q601.452 1486.25 598.373 1481.67 Q595.317 1477.06 595.317 1468.33 Q595.317 1459.58 598.373 1455 Q601.452 1450.39 607.262 1450.39 Z" fill="#000000" fill-rule="nonzero" fill-opacity="1" /><path clip-path="url(#clip630)" d="M941.099 1481.64 L957.418 1481.64 L957.418 1485.58 L935.474 1485.58 L935.474 1481.64 Q938.136 1478.89 942.719 1474.26 Q947.326 1469.61 948.506 1468.27 Q950.752 1465.74 951.631 1464.01 Q952.534 1462.25 952.534 1460.56 Q952.534 1457.8 950.59 1456.07 Q948.668 1454.33 945.567 1454.33 Q943.367 1454.33 940.914 1455.09 Q938.483 1455.86 935.705 1457.41 L935.705 1452.69 Q938.53 1451.55 940.983 1450.97 Q943.437 1450.39 945.474 1450.39 Q950.844 1450.39 954.039 1453.08 Q957.233 1455.77 957.233 1460.26 Q957.233 1462.39 956.423 1464.31 Q955.636 1466.2 953.529 1468.8 Q952.951 1469.47 949.849 1472.69 Q946.747 1475.88 941.099 1481.64 Z" fill="#000000" fill-rule="nonzero" fill-opacity="1" /><path clip-path="url(#clip630)" d="M977.233 1454.1 Q973.622 1454.1 971.793 1457.66 Q969.988 1461.2 969.988 1468.33 Q969.988 1475.44 971.793 1479.01 Q973.622 1482.55 977.233 1482.55 Q980.867 1482.55 982.673 1479.01 Q984.502 1475.44 984.502 1468.33 Q984.502 1461.2 982.673 1457.66 Q980.867 1454.1 977.233 1454.1 M977.233 1450.39 Q983.043 1450.39 986.099 1455 Q989.177 1459.58 989.177 1468.33 Q989.177 1477.06 986.099 1481.67 Q983.043 1486.25 977.233 1486.25 Q971.423 1486.25 968.344 1481.67 Q965.289 1477.06 965.289 1468.33 Q965.289 1459.58 968.344 1455 Q971.423 1450.39 977.233 1450.39 Z" fill="#000000" fill-rule="nonzero" fill-opacity="1" /><path clip-path="url(#clip630)" d="M1320.27 1466.95 Q1323.63 1467.66 1325.5 1469.93 Q1327.4 1472.2 1327.4 1475.53 Q1327.4 1480.65 1323.88 1483.45 Q1320.36 1486.25 1313.88 1486.25 Q1311.71 1486.25 1309.39 1485.81 Q1307.1 1485.39 1304.65 1484.54 L1304.65 1480.02 Q1306.59 1481.16 1308.91 1481.74 Q1311.22 1482.32 1313.74 1482.32 Q1318.14 1482.32 1320.43 1480.58 Q1322.75 1478.84 1322.75 1475.53 Q1322.75 1472.48 1320.6 1470.77 Q1318.47 1469.03 1314.65 1469.03 L1310.62 1469.03 L1310.62 1465.19 L1314.83 1465.19 Q1318.28 1465.19 1320.11 1463.82 Q1321.94 1462.43 1321.94 1459.84 Q1321.94 1457.18 1320.04 1455.77 Q1318.17 1454.33 1314.65 1454.33 Q1312.73 1454.33 1310.53 1454.75 Q1308.33 1455.16 1305.69 1456.04 L1305.69 1451.88 Q1308.35 1451.14 1310.67 1450.77 Q1313 1450.39 1315.06 1450.39 Q1320.39 1450.39 1323.49 1452.83 Q1326.59 1455.23 1326.59 1459.35 Q1326.59 1462.22 1324.95 1464.21 Q1323.3 1466.18 1320.27 1466.95 Z" fill="#000000" fill-rule="nonzero" fill-opacity="1" /><path clip-path="url(#clip630)" d="M1346.27 1454.1 Q1342.66 1454.1 1340.83 1457.66 Q1339.02 1461.2 1339.02 1468.33 Q1339.02 1475.44 1340.83 1479.01 Q1342.66 1482.55 1346.27 1482.55 Q1349.9 1482.55 1351.71 1479.01 Q1353.54 1475.44 1353.54 1468.33 Q1353.54 1461.2 1351.71 1457.66 Q1349.9 1454.1 1346.27 1454.1 M1346.27 1450.39 Q1352.08 1450.39 1355.13 1455 Q1358.21 1459.58 1358.21 1468.33 Q1358.21 1477.06 1355.13 1481.67 Q1352.08 1486.25 1346.27 1486.25 Q1340.46 1486.25 1337.38 1481.67 Q1334.32 1477.06 1334.32 1468.33 Q1334.32 1459.58 1337.38 1455 Q1340.46 1450.39 1346.27 1450.39 Z" fill="#000000" fill-rule="nonzero" fill-opacity="1" /><path clip-path="url(#clip630)" d="M1688.7 1455.09 L1676.9 1473.54 L1688.7 1473.54 L1688.7 1455.09 M1687.48 1451.02 L1693.36 1451.02 L1693.36 1473.54 L1698.29 1473.54 L1698.29 1477.43 L1693.36 1477.43 L1693.36 1485.58 L1688.7 1485.58 L1688.7 1477.43 L1673.1 1477.43 L1673.1 1472.92 L1687.48 1451.02 Z" fill="#000000" fill-rule="nonzero" fill-opacity="1" /><path clip-path="url(#clip630)" d="M1716.02 1454.1 Q1712.41 1454.1 1710.58 1457.66 Q1708.77 1461.2 1708.77 1468.33 Q1708.77 1475.44 1710.58 1479.01 Q1712.41 1482.55 1716.02 1482.55 Q1719.65 1482.55 1721.46 1479.01 Q1723.29 1475.44 1723.29 1468.33 Q1723.29 1461.2 1721.46 1457.66 Q1719.65 1454.1 1716.02 1454.1 M1716.02 1450.39 Q1721.83 1450.39 1724.88 1455 Q1727.96 1459.58 1727.96 1468.33 Q1727.96 1477.06 1724.88 1481.67 Q1721.83 1486.25 1716.02 1486.25 Q1710.21 1486.25 1707.13 1481.67 Q1704.07 1477.06 1704.07 1468.33 Q1704.07 1459.58 1707.13 1455 Q1710.21 1450.39 1716.02 1450.39 Z" fill="#000000" fill-rule="nonzero" fill-opacity="1" /><path clip-path="url(#clip630)" d="M2044.33 1451.02 L2062.69 1451.02 L2062.69 1454.96 L2048.62 1454.96 L2048.62 1463.43 Q2049.64 1463.08 2050.65 1462.92 Q2051.67 1462.73 2052.69 1462.73 Q2058.48 1462.73 2061.86 1465.9 Q2065.24 1469.08 2065.24 1474.49 Q2065.24 1480.07 2061.76 1483.17 Q2058.29 1486.25 2051.97 1486.25 Q2049.8 1486.25 2047.53 1485.88 Q2045.28 1485.51 2042.88 1484.77 L2042.88 1480.07 Q2044.96 1481.2 2047.18 1481.76 Q2049.4 1482.32 2051.88 1482.32 Q2055.89 1482.32 2058.22 1480.21 Q2060.56 1478.1 2060.56 1474.49 Q2060.56 1470.88 2058.22 1468.77 Q2055.89 1466.67 2051.88 1466.67 Q2050.01 1466.67 2048.13 1467.08 Q2046.28 1467.5 2044.33 1468.38 L2044.33 1451.02 Z" fill="#000000" fill-rule="nonzero" fill-opacity="1" /><path clip-path="url(#clip630)" d="M2084.45 1454.1 Q2080.84 1454.1 2079.01 1457.66 Q2077.2 1461.2 2077.2 1468.33 Q2077.2 1475.44 2079.01 1479.01 Q2080.84 1482.55 2084.45 1482.55 Q2088.08 1482.55 2089.89 1479.01 Q2091.72 1475.44 2091.72 1468.33 Q2091.72 1461.2 2089.89 1457.66 Q2088.08 1454.1 2084.45 1454.1 M2084.45 1450.39 Q2090.26 1450.39 2093.32 1455 Q2096.39 1459.58 2096.39 1468.33 Q2096.39 1477.06 2093.32 1481.67 Q2090.26 1486.25 2084.45 1486.25 Q2078.64 1486.25 2075.56 1481.67 Q2072.51 1477.06 2072.51 1468.33 Q2072.51 1459.58 2075.56 1455 Q2078.64 1450.39 2084.45 1450.39 Z" fill="#000000" fill-rule="nonzero" fill-opacity="1" /><path clip-path="url(#clip630)" d="M1185.33 1520.52 L1225.53 1520.52 L1225.53 1525.93 L1208.66 1525.93 L1208.66 1568.04 L1202.2 1568.04 L1202.2 1525.93 L1185.33 1525.93 L1185.33 1520.52 Z" fill="#000000" fill-rule="nonzero" fill-opacity="1" /><path clip-path="url(#clip630)" d="M1229.48 1532.4 L1235.33 1532.4 L1235.33 1568.04 L1229.48 1568.04 L1229.48 1532.4 M1229.48 1518.52 L1235.33 1518.52 L1235.33 1525.93 L1229.48 1525.93 L1229.48 1518.52 Z" fill="#000000" fill-rule="nonzero" fill-opacity="1" /><path clip-path="url(#clip630)" d="M1275.34 1539.24 Q1277.54 1535.29 1280.59 1533.41 Q1283.65 1531.54 1287.79 1531.54 Q1293.36 1531.54 1296.38 1535.45 Q1299.4 1539.33 1299.4 1546.53 L1299.4 1568.04 L1293.51 1568.04 L1293.51 1546.72 Q1293.51 1541.59 1291.7 1539.11 Q1289.89 1536.63 1286.16 1536.63 Q1281.61 1536.63 1278.97 1539.65 Q1276.33 1542.68 1276.33 1547.9 L1276.33 1568.04 L1270.44 1568.04 L1270.44 1546.72 Q1270.44 1541.56 1268.62 1539.11 Q1266.81 1536.63 1263.02 1536.63 Q1258.53 1536.63 1255.89 1539.68 Q1253.25 1542.71 1253.25 1547.9 L1253.25 1568.04 L1247.36 1568.04 L1247.36 1532.4 L1253.25 1532.4 L1253.25 1537.93 Q1255.26 1534.66 1258.06 1533.1 Q1260.86 1531.54 1264.71 1531.54 Q1268.59 1531.54 1271.3 1533.51 Q1274.04 1535.48 1275.34 1539.24 Z" fill="#000000" fill-rule="nonzero" fill-opacity="1" /><path clip-path="url(#clip630)" d="M1341.58 1548.76 L1341.58 1551.62 L1314.65 1551.62 Q1315.03 1557.67 1318.28 1560.85 Q1321.56 1564 1327.38 1564 Q1330.75 1564 1333.9 1563.17 Q1337.09 1562.35 1340.21 1560.69 L1340.21 1566.23 Q1337.06 1567.57 1333.75 1568.27 Q1330.44 1568.97 1327.03 1568.97 Q1318.5 1568.97 1313.5 1564 Q1308.54 1559.04 1308.54 1550.57 Q1308.54 1541.82 1313.25 1536.69 Q1317.99 1531.54 1326.01 1531.54 Q1333.2 1531.54 1337.37 1536.18 Q1341.58 1540.8 1341.58 1548.76 M1335.72 1547.04 Q1335.66 1542.23 1333.01 1539.37 Q1330.4 1536.5 1326.08 1536.5 Q1321.17 1536.5 1318.21 1539.27 Q1315.29 1542.04 1314.84 1547.07 L1335.72 1547.04 Z" fill="#000000" fill-rule="nonzero" fill-opacity="1" /><polyline clip-path="url(#clip630)" style="stroke:#000000; stroke-linecap:round; stroke-linejoin:round; stroke-width:4; stroke-opacity:1; fill:none" points="174.149,1423.18 174.149,123.472 "/>
<polyline clip-path="url(#clip630)" style="stroke:#000000; stroke-linecap:round; stroke-linejoin:round; stroke-width:4; stroke-opacity:1; fill:none" points="174.149,1386.4 193.047,1386.4 "/>
<polyline clip-path="url(#clip630)" style="stroke:#000000; stroke-linecap:round; stroke-linejoin:round; stroke-width:4; stroke-opacity:1; fill:none" points="174.149,981.459 193.047,981.459 "/>
<polyline clip-path="url(#clip630)" style="stroke:#000000; stroke-linecap:round; stroke-linejoin:round; stroke-width:4; stroke-opacity:1; fill:none" points="174.149,576.522 193.047,576.522 "/>
<polyline clip-path="url(#clip630)" style="stroke:#000000; stroke-linecap:round; stroke-linejoin:round; stroke-width:4; stroke-opacity:1; fill:none" points="174.149,171.586 193.047,171.586 "/>
<path clip-path="url(#clip630)" d="M126.205 1372.19 Q122.593 1372.19 120.765 1375.76 Q118.959 1379.3 118.959 1386.43 Q118.959 1393.54 120.765 1397.1 Q122.593 1400.64 126.205 1400.64 Q129.839 1400.64 131.644 1397.1 Q133.473 1393.54 133.473 1386.43 Q133.473 1379.3 131.644 1375.76 Q129.839 1372.19 126.205 1372.19 M126.205 1368.49 Q132.015 1368.49 135.07 1373.1 Q138.149 1377.68 138.149 1386.43 Q138.149 1395.16 135.07 1399.76 Q132.015 1404.35 126.205 1404.35 Q120.394 1404.35 117.316 1399.76 Q114.26 1395.16 114.26 1386.43 Q114.26 1377.68 117.316 1373.1 Q120.394 1368.49 126.205 1368.49 Z" fill="#000000" fill-rule="nonzero" fill-opacity="1" /><path clip-path="url(#clip630)" d="M118.242 994.804 L125.88 994.804 L125.88 968.438 L117.57 970.105 L117.57 965.846 L125.834 964.179 L130.51 964.179 L130.51 994.804 L138.149 994.804 L138.149 998.739 L118.242 998.739 L118.242 994.804 Z" fill="#000000" fill-rule="nonzero" fill-opacity="1" /><path clip-path="url(#clip630)" d="M121.83 589.867 L138.149 589.867 L138.149 593.802 L116.205 593.802 L116.205 589.867 Q118.867 587.113 123.45 582.483 Q128.056 577.83 129.237 576.488 Q131.482 573.964 132.362 572.228 Q133.265 570.469 133.265 568.779 Q133.265 566.025 131.32 564.289 Q129.399 562.553 126.297 562.553 Q124.098 562.553 121.644 563.316 Q119.214 564.08 116.436 565.631 L116.436 560.909 Q119.26 559.775 121.714 559.196 Q124.168 558.617 126.205 558.617 Q131.575 558.617 134.769 561.303 Q137.964 563.988 137.964 568.478 Q137.964 570.608 137.154 572.529 Q136.367 574.427 134.26 577.02 Q133.681 577.691 130.58 580.909 Q127.478 584.103 121.83 589.867 Z" fill="#000000" fill-rule="nonzero" fill-opacity="1" /><path clip-path="url(#clip630)" d="M131.019 170.232 Q134.376 170.949 136.251 173.218 Q138.149 175.486 138.149 178.819 Q138.149 183.935 134.63 186.736 Q131.112 189.537 124.63 189.537 Q122.455 189.537 120.14 189.097 Q117.848 188.68 115.394 187.824 L115.394 183.31 Q117.339 184.444 119.654 185.023 Q121.968 185.602 124.492 185.602 Q128.89 185.602 131.181 183.866 Q133.496 182.13 133.496 178.819 Q133.496 175.764 131.343 174.051 Q129.214 172.315 125.394 172.315 L121.367 172.315 L121.367 168.472 L125.58 168.472 Q129.029 168.472 130.857 167.107 Q132.686 165.718 132.686 163.125 Q132.686 160.463 130.788 159.051 Q128.913 157.616 125.394 157.616 Q123.473 157.616 121.274 158.033 Q119.075 158.449 116.436 159.329 L116.436 155.162 Q119.098 154.421 121.413 154.051 Q123.751 153.681 125.811 153.681 Q131.135 153.681 134.237 156.111 Q137.339 158.519 137.339 162.639 Q137.339 165.509 135.695 167.5 Q134.052 169.468 131.019 170.232 Z" fill="#000000" fill-rule="nonzero" fill-opacity="1" /><path clip-path="url(#clip630)" d="M20.1444 820.225 L26.9239 820.225 Q23.9002 823.472 22.4043 827.164 Q20.9083 830.824 20.9083 834.962 Q20.9083 843.11 25.9054 847.439 Q30.8707 851.767 40.2919 851.767 Q49.6813 851.767 54.6784 847.439 Q59.6436 843.11 59.6436 834.962 Q59.6436 830.824 58.1477 827.164 Q56.6518 823.472 53.6281 820.225 L60.3439 820.225 Q62.6355 823.599 63.7814 827.387 Q64.9272 831.143 64.9272 835.344 Q64.9272 846.134 58.3387 852.34 Q51.7183 858.547 40.2919 858.547 Q28.8336 858.547 22.2451 852.34 Q15.6248 846.134 15.6248 835.344 Q15.6248 831.079 16.7706 827.323 Q17.8846 823.535 20.1444 820.225 Z" fill="#000000" fill-rule="nonzero" fill-opacity="1" /><path clip-path="url(#clip630)" d="M16.4842 816.883 L16.4842 776.684 L21.895 776.684 L21.895 793.553 L64.0042 793.553 L64.0042 800.014 L21.895 800.014 L21.895 816.883 L16.4842 816.883 Z" fill="#000000" fill-rule="nonzero" fill-opacity="1" /><path clip-path="url(#clip630)" d="M16.4842 770.477 L16.4842 761.82 L56.238 740.749 L16.4842 740.749 L16.4842 734.511 L64.0042 734.511 L64.0042 743.168 L24.2503 764.239 L64.0042 764.239 L64.0042 770.477 L16.4842 770.477 Z" fill="#000000" fill-rule="nonzero" fill-opacity="1" /><path clip-path="url(#clip630)" d="M16.4842 728.305 L16.4842 688.105 L21.895 688.105 L21.895 704.974 L64.0042 704.974 L64.0042 711.435 L21.895 711.435 L21.895 728.305 L16.4842 728.305 Z" fill="#000000" fill-rule="nonzero" fill-opacity="1" /><path clip-path="url(#clip630)" d="M677.833 18.8205 L677.833 41.5461 L688.123 41.5461 Q693.835 41.5461 696.954 38.5889 Q700.073 35.6318 700.073 30.163 Q700.073 24.7348 696.954 21.7777 Q693.835 18.8205 688.123 18.8205 L677.833 18.8205 M669.651 12.096 L688.123 12.096 Q698.291 12.096 703.476 16.714 Q708.701 21.2916 708.701 30.163 Q708.701 39.1155 703.476 43.6931 Q698.291 48.2706 688.123 48.2706 L677.833 48.2706 L677.833 72.576 L669.651 72.576 L669.651 12.096 Z" fill="#000000" fill-rule="nonzero" fill-opacity="1" /><path clip-path="url(#clip630)" d="M736.247 49.7694 Q727.214 49.7694 723.73 51.8354 Q720.246 53.9013 720.246 58.8839 Q720.246 62.8538 722.839 65.2034 Q725.472 67.5124 729.969 67.5124 Q736.166 67.5124 739.893 63.1374 Q743.661 58.7219 743.661 51.4303 L743.661 49.7694 L736.247 49.7694 M751.114 46.6907 L751.114 72.576 L743.661 72.576 L743.661 65.6895 Q741.109 69.8214 737.301 71.8063 Q733.493 73.7508 727.984 73.7508 Q721.016 73.7508 716.884 69.8619 Q712.793 65.9325 712.793 59.3701 Q712.793 51.7138 717.897 47.825 Q723.042 43.9361 733.209 43.9361 L743.661 43.9361 L743.661 43.2069 Q743.661 38.0623 740.258 35.2672 Q736.896 32.4315 730.779 32.4315 Q726.89 32.4315 723.204 33.3632 Q719.517 34.295 716.114 36.1584 L716.114 29.2718 Q720.206 27.692 724.054 26.9223 Q727.903 26.1121 731.548 26.1121 Q741.392 26.1121 746.253 31.2163 Q751.114 36.3204 751.114 46.6907 Z" fill="#000000" fill-rule="nonzero" fill-opacity="1" /><path clip-path="url(#clip630)" d="M773.84 14.324 L773.84 27.2059 L789.193 27.2059 L789.193 32.9987 L773.84 32.9987 L773.84 57.6282 Q773.84 63.1779 775.339 64.7578 Q776.878 66.3376 781.537 66.3376 L789.193 66.3376 L789.193 72.576 L781.537 72.576 Q772.908 72.576 769.627 69.3758 Q766.346 66.1351 766.346 57.6282 L766.346 32.9987 L760.877 32.9987 L760.877 27.2059 L766.346 27.2059 L766.346 14.324 L773.84 14.324 Z" fill="#000000" fill-rule="nonzero" fill-opacity="1" /><path clip-path="url(#clip630)" d="M798.996 27.2059 L806.45 27.2059 L806.45 72.576 L798.996 72.576 L798.996 27.2059 M798.996 9.54393 L806.45 9.54393 L806.45 18.9825 L798.996 18.9825 L798.996 9.54393 Z" fill="#000000" fill-rule="nonzero" fill-opacity="1" /><path clip-path="url(#clip630)" d="M860.853 48.0275 L860.853 51.6733 L826.583 51.6733 Q827.069 59.3701 831.201 63.421 Q835.373 67.4314 842.786 67.4314 Q847.08 67.4314 851.091 66.3781 Q855.142 65.3249 859.111 63.2184 L859.111 70.267 Q855.101 71.9684 850.888 72.8596 Q846.675 73.7508 842.341 73.7508 Q831.484 73.7508 825.124 67.4314 Q818.805 61.1119 818.805 50.3365 Q818.805 39.1965 824.8 32.6746 Q830.836 26.1121 841.044 26.1121 Q850.199 26.1121 855.506 32.0264 Q860.853 37.9003 860.853 48.0275 M853.4 45.84 Q853.319 39.7232 849.956 36.0774 Q846.635 32.4315 841.125 32.4315 Q834.887 32.4315 831.12 35.9558 Q827.393 39.4801 826.826 45.8805 L853.4 45.84 Z" fill="#000000" fill-rule="nonzero" fill-opacity="1" /><path clip-path="url(#clip630)" d="M910.801 45.1919 L910.801 72.576 L903.347 72.576 L903.347 45.4349 Q903.347 38.994 900.836 35.7938 Q898.324 32.5936 893.301 32.5936 Q887.265 32.5936 883.781 36.4419 Q880.298 40.2903 880.298 46.9338 L880.298 72.576 L872.803 72.576 L872.803 27.2059 L880.298 27.2059 L880.298 34.2544 Q882.971 30.163 886.577 28.1376 Q890.222 26.1121 894.962 26.1121 Q902.78 26.1121 906.791 30.9732 Q910.801 35.7938 910.801 45.1919 Z" fill="#000000" fill-rule="nonzero" fill-opacity="1" /><path clip-path="url(#clip630)" d="M933.04 14.324 L933.04 27.2059 L948.393 27.2059 L948.393 32.9987 L933.04 32.9987 L933.04 57.6282 Q933.04 63.1779 934.539 64.7578 Q936.079 66.3376 940.737 66.3376 L948.393 66.3376 L948.393 72.576 L940.737 72.576 Q932.109 72.576 928.827 69.3758 Q925.546 66.1351 925.546 57.6282 L925.546 32.9987 L920.078 32.9987 L920.078 27.2059 L925.546 27.2059 L925.546 14.324 L933.04 14.324 Z" fill="#000000" fill-rule="nonzero" fill-opacity="1" /><path clip-path="url(#clip630)" d="M987.039 65.6895 L1000.41 65.6895 L1000.41 19.5497 L985.864 22.4663 L985.864 15.0127 L1000.33 12.096 L1008.51 12.096 L1008.51 65.6895 L1021.88 65.6895 L1021.88 72.576 L987.039 72.576 L987.039 65.6895 Z" fill="#000000" fill-rule="nonzero" fill-opacity="1" /><path clip-path="url(#clip630)" d="M1045.45 65.6895 L1074.01 65.6895 L1074.01 72.576 L1035.61 72.576 L1035.61 65.6895 Q1040.27 60.8689 1048.29 52.7671 Q1056.35 44.6248 1058.42 42.2752 Q1062.35 37.8598 1063.88 34.8216 Q1065.46 31.7429 1065.46 28.7857 Q1065.46 23.9651 1062.06 20.927 Q1058.7 17.8888 1053.27 17.8888 Q1049.42 17.8888 1045.13 19.2256 Q1040.88 20.5624 1036.01 23.2765 L1036.01 15.0127 Q1040.96 13.0277 1045.25 12.015 Q1049.54 11.0023 1053.11 11.0023 Q1062.51 11.0023 1068.1 15.7013 Q1073.69 20.4004 1073.69 28.2591 Q1073.69 31.9859 1072.27 35.3482 Q1070.89 38.6699 1067.21 43.2069 Q1066.19 44.3817 1060.77 50.0125 Q1055.34 55.6027 1045.45 65.6895 Z" fill="#000000" fill-rule="nonzero" fill-opacity="1" /><path clip-path="url(#clip630)" d="M1108.69 43.8551 Q1102.85 43.8551 1099.49 46.9743 Q1096.17 50.0935 1096.17 55.5622 Q1096.17 61.0309 1099.49 64.1501 Q1102.85 67.2693 1108.69 67.2693 Q1114.52 67.2693 1117.88 64.1501 Q1121.25 60.9904 1121.25 55.5622 Q1121.25 50.0935 1117.88 46.9743 Q1114.56 43.8551 1108.69 43.8551 M1100.5 40.3713 Q1095.24 39.075 1092.28 35.4697 Q1089.36 31.8644 1089.36 26.6793 Q1089.36 19.4281 1094.51 15.2152 Q1099.69 11.0023 1108.69 11.0023 Q1117.72 11.0023 1122.87 15.2152 Q1128.01 19.4281 1128.01 26.6793 Q1128.01 31.8644 1125.05 35.4697 Q1122.14 39.075 1116.91 40.3713 Q1122.83 41.7486 1126.11 45.759 Q1129.43 49.7694 1129.43 55.5622 Q1129.43 64.3527 1124.04 69.0517 Q1118.69 73.7508 1108.69 73.7508 Q1098.68 73.7508 1093.29 69.0517 Q1087.95 64.3527 1087.95 55.5622 Q1087.95 49.7694 1091.27 45.759 Q1094.59 41.7486 1100.5 40.3713 M1097.51 27.4489 Q1097.51 32.148 1100.42 34.7811 Q1103.38 37.4142 1108.69 37.4142 Q1113.95 37.4142 1116.91 34.7811 Q1119.91 32.148 1119.91 27.4489 Q1119.91 22.7499 1116.91 20.1168 Q1113.95 17.4837 1108.69 17.4837 Q1103.38 17.4837 1100.42 20.1168 Q1097.51 22.7499 1097.51 27.4489 Z" fill="#000000" fill-rule="nonzero" fill-opacity="1" /><path clip-path="url(#clip630)" d="M1161.47 17.4837 Q1155.15 17.4837 1151.95 23.7221 Q1148.79 29.92 1148.79 42.3968 Q1148.79 54.833 1151.95 61.0714 Q1155.15 67.2693 1161.47 67.2693 Q1167.83 67.2693 1170.99 61.0714 Q1174.19 54.833 1174.19 42.3968 Q1174.19 29.92 1170.99 23.7221 Q1167.83 17.4837 1161.47 17.4837 M1161.47 11.0023 Q1171.64 11.0023 1176.99 19.0636 Q1182.37 27.0843 1182.37 42.3968 Q1182.37 57.6687 1176.99 65.73 Q1171.64 73.7508 1161.47 73.7508 Q1151.3 73.7508 1145.92 65.73 Q1140.57 57.6687 1140.57 42.3968 Q1140.57 27.0843 1145.92 19.0636 Q1151.3 11.0023 1161.47 11.0023 Z" fill="#000000" fill-rule="nonzero" fill-opacity="1" /><path clip-path="url(#clip630)" d="M1196.84 12.096 L1228.96 12.096 L1228.96 18.9825 L1204.33 18.9825 L1204.33 33.8088 Q1206.11 33.2012 1207.89 32.9176 Q1209.68 32.5936 1211.46 32.5936 Q1221.59 32.5936 1227.5 38.1433 Q1233.41 43.6931 1233.41 53.1722 Q1233.41 62.9348 1227.34 68.3631 Q1221.26 73.7508 1210.2 73.7508 Q1206.4 73.7508 1202.43 73.1026 Q1198.5 72.4545 1194.28 71.1582 L1194.28 62.9348 Q1197.93 64.9198 1201.82 65.892 Q1205.71 66.8642 1210.04 66.8642 Q1217.05 66.8642 1221.14 63.1779 Q1225.23 59.4916 1225.23 53.1722 Q1225.23 46.8528 1221.14 43.1664 Q1217.05 39.4801 1210.04 39.4801 Q1206.76 39.4801 1203.48 40.2093 Q1200.24 40.9384 1196.84 42.4778 L1196.84 12.096 Z" fill="#000000" fill-rule="nonzero" fill-opacity="1" /><path clip-path="url(#clip630)" d="M1267.04 43.8551 Q1261.2 43.8551 1257.84 46.9743 Q1254.52 50.0935 1254.52 55.5622 Q1254.52 61.0309 1257.84 64.1501 Q1261.2 67.2693 1267.04 67.2693 Q1272.87 67.2693 1276.23 64.1501 Q1279.6 60.9904 1279.6 55.5622 Q1279.6 50.0935 1276.23 46.9743 Q1272.91 43.8551 1267.04 43.8551 M1258.85 40.3713 Q1253.59 39.075 1250.63 35.4697 Q1247.71 31.8644 1247.71 26.6793 Q1247.71 19.4281 1252.86 15.2152 Q1258.04 11.0023 1267.04 11.0023 Q1276.07 11.0023 1281.22 15.2152 Q1286.36 19.4281 1286.36 26.6793 Q1286.36 31.8644 1283.4 35.4697 Q1280.49 39.075 1275.26 40.3713 Q1281.18 41.7486 1284.46 45.759 Q1287.78 49.7694 1287.78 55.5622 Q1287.78 64.3527 1282.39 69.0517 Q1277.04 73.7508 1267.04 73.7508 Q1257.03 73.7508 1251.64 69.0517 Q1246.3 64.3527 1246.3 55.5622 Q1246.3 49.7694 1249.62 45.759 Q1252.94 41.7486 1258.85 40.3713 M1255.86 27.4489 Q1255.86 32.148 1258.77 34.7811 Q1261.73 37.4142 1267.04 37.4142 Q1272.3 37.4142 1275.26 34.7811 Q1278.26 32.148 1278.26 27.4489 Q1278.26 22.7499 1275.26 20.1168 Q1272.3 17.4837 1267.04 17.4837 Q1261.73 17.4837 1258.77 20.1168 Q1255.86 22.7499 1255.86 27.4489 Z" fill="#000000" fill-rule="nonzero" fill-opacity="1" /><path clip-path="url(#clip630)" d="M1303.74 65.6895 L1317.11 65.6895 L1317.11 19.5497 L1302.56 22.4663 L1302.56 15.0127 L1317.03 12.096 L1325.21 12.096 L1325.21 65.6895 L1338.58 65.6895 L1338.58 72.576 L1303.74 72.576 L1303.74 65.6895 Z" fill="#000000" fill-rule="nonzero" fill-opacity="1" /><path clip-path="url(#clip630)" d="M1356.52 65.6895 L1369.89 65.6895 L1369.89 19.5497 L1355.35 22.4663 L1355.35 15.0127 L1369.81 12.096 L1377.99 12.096 L1377.99 65.6895 L1391.36 65.6895 L1391.36 72.576 L1356.52 72.576 L1356.52 65.6895 Z" fill="#000000" fill-rule="nonzero" fill-opacity="1" /><path clip-path="url(#clip630)" d="M1441.31 86.3491 L1441.31 92.1419 L1398.21 92.1419 L1398.21 86.3491 L1441.31 86.3491 Z" fill="#000000" fill-rule="nonzero" fill-opacity="1" /><path clip-path="url(#clip630)" d="M1456.42 65.6895 L1484.98 65.6895 L1484.98 72.576 L1446.57 72.576 L1446.57 65.6895 Q1451.23 60.8689 1459.25 52.7671 Q1467.31 44.6248 1469.38 42.2752 Q1473.31 37.8598 1474.85 34.8216 Q1476.43 31.7429 1476.43 28.7857 Q1476.43 23.9651 1473.03 20.927 Q1469.66 17.8888 1464.24 17.8888 Q1460.39 17.8888 1456.09 19.2256 Q1451.84 20.5624 1446.98 23.2765 L1446.98 15.0127 Q1451.92 13.0277 1456.21 12.015 Q1460.51 11.0023 1464.07 11.0023 Q1473.47 11.0023 1479.06 15.7013 Q1484.65 20.4004 1484.65 28.2591 Q1484.65 31.9859 1483.23 35.3482 Q1481.86 38.6699 1478.17 43.2069 Q1477.16 44.3817 1471.73 50.0125 Q1466.3 55.6027 1456.42 65.6895 Z" fill="#000000" fill-rule="nonzero" fill-opacity="1" /><path clip-path="url(#clip630)" d="M1526.94 39.9662 Q1532.82 41.222 1536.1 45.1919 Q1539.42 49.1618 1539.42 54.9951 Q1539.42 63.9476 1533.26 68.8492 Q1527.11 73.7508 1515.76 73.7508 Q1511.96 73.7508 1507.9 72.9811 Q1503.89 72.2519 1499.6 70.7531 L1499.6 62.8538 Q1503 64.8388 1507.05 65.8515 Q1511.1 66.8642 1515.52 66.8642 Q1523.22 66.8642 1527.23 63.826 Q1531.28 60.7879 1531.28 54.9951 Q1531.28 49.6479 1527.51 46.6502 Q1523.78 43.612 1517.1 43.612 L1510.05 43.612 L1510.05 36.8875 L1517.42 36.8875 Q1523.46 36.8875 1526.66 34.4975 Q1529.86 32.067 1529.86 27.5299 Q1529.86 22.8714 1526.54 20.4004 Q1523.26 17.8888 1517.1 17.8888 Q1513.74 17.8888 1509.89 18.618 Q1506.04 19.3471 1501.42 20.8865 L1501.42 13.5948 Q1506.08 12.2985 1510.13 11.6504 Q1514.22 11.0023 1517.83 11.0023 Q1527.15 11.0023 1532.57 15.2557 Q1538 19.4686 1538 26.6793 Q1538 31.7024 1535.13 35.1862 Q1532.25 38.6294 1526.94 39.9662 Z" fill="#000000" fill-rule="nonzero" fill-opacity="1" /><path clip-path="url(#clip630)" d="M1572.44 17.4837 Q1566.12 17.4837 1562.92 23.7221 Q1559.76 29.92 1559.76 42.3968 Q1559.76 54.833 1562.92 61.0714 Q1566.12 67.2693 1572.44 67.2693 Q1578.8 67.2693 1581.95 61.0714 Q1585.15 54.833 1585.15 42.3968 Q1585.15 29.92 1581.95 23.7221 Q1578.8 17.4837 1572.44 17.4837 M1572.44 11.0023 Q1582.6 11.0023 1587.95 19.0636 Q1593.34 27.0843 1593.34 42.3968 Q1593.34 57.6687 1587.95 65.73 Q1582.6 73.7508 1572.44 73.7508 Q1562.27 73.7508 1556.88 65.73 Q1551.53 57.6687 1551.53 42.3968 Q1551.53 27.0843 1556.88 19.0636 Q1562.27 11.0023 1572.44 11.0023 Z" fill="#000000" fill-rule="nonzero" fill-opacity="1" /><path clip-path="url(#clip630)" d="M1625.22 17.4837 Q1618.9 17.4837 1615.7 23.7221 Q1612.54 29.92 1612.54 42.3968 Q1612.54 54.833 1615.7 61.0714 Q1618.9 67.2693 1625.22 67.2693 Q1631.58 67.2693 1634.74 61.0714 Q1637.94 54.833 1637.94 42.3968 Q1637.94 29.92 1634.74 23.7221 Q1631.58 17.4837 1625.22 17.4837 M1625.22 11.0023 Q1635.39 11.0023 1640.73 19.0636 Q1646.12 27.0843 1646.12 42.3968 Q1646.12 57.6687 1640.73 65.73 Q1635.39 73.7508 1625.22 73.7508 Q1615.05 73.7508 1609.66 65.73 Q1604.32 57.6687 1604.32 42.3968 Q1604.32 27.0843 1609.66 19.0636 Q1615.05 11.0023 1625.22 11.0023 Z" fill="#000000" fill-rule="nonzero" fill-opacity="1" /><path clip-path="url(#clip630)" d="M1658.44 12.096 L1697.32 12.096 L1697.32 15.5798 L1675.37 72.576 L1666.82 72.576 L1687.48 18.9825 L1658.44 18.9825 L1658.44 12.096 Z" fill="#000000" fill-rule="nonzero" fill-opacity="1" /><path clip-path="url(#clip630)" d="M1731.8 39.075 Q1726.29 39.075 1723.05 42.8424 Q1719.85 46.6097 1719.85 53.1722 Q1719.85 59.6941 1723.05 63.502 Q1726.29 67.2693 1731.8 67.2693 Q1737.31 67.2693 1740.51 63.502 Q1743.75 59.6941 1743.75 53.1722 Q1743.75 46.6097 1740.51 42.8424 Q1737.31 39.075 1731.8 39.075 M1748.04 13.4328 L1748.04 20.8865 Q1744.96 19.4281 1741.8 18.6585 Q1738.68 17.8888 1735.61 17.8888 Q1727.5 17.8888 1723.21 23.3575 Q1718.96 28.8262 1718.35 39.8852 Q1720.74 36.3609 1724.34 34.4975 Q1727.95 32.5936 1732.28 32.5936 Q1741.4 32.5936 1746.66 38.1433 Q1751.97 43.6525 1751.97 53.1722 Q1751.97 62.4892 1746.46 68.12 Q1740.95 73.7508 1731.8 73.7508 Q1721.31 73.7508 1715.76 65.73 Q1710.21 57.6687 1710.21 42.3968 Q1710.21 28.0566 1717.01 19.5497 Q1723.82 11.0023 1735.28 11.0023 Q1738.36 11.0023 1741.48 11.6099 Q1744.64 12.2175 1748.04 13.4328 Z" fill="#000000" fill-rule="nonzero" fill-opacity="1" /><path clip-path="url(#clip630)" d="M1788.55 19.2256 L1767.89 51.5113 L1788.55 51.5113 L1788.55 19.2256 M1786.4 12.096 L1796.69 12.096 L1796.69 51.5113 L1805.32 51.5113 L1805.32 58.3168 L1796.69 58.3168 L1796.69 72.576 L1788.55 72.576 L1788.55 58.3168 L1761.25 58.3168 L1761.25 50.4176 L1786.4 12.096 Z" fill="#000000" fill-rule="nonzero" fill-opacity="1" /><path clip-path="url(#clip630)" d="M1836.35 17.4837 Q1830.03 17.4837 1826.83 23.7221 Q1823.67 29.92 1823.67 42.3968 Q1823.67 54.833 1826.83 61.0714 Q1830.03 67.2693 1836.35 67.2693 Q1842.71 67.2693 1845.87 61.0714 Q1849.07 54.833 1849.07 42.3968 Q1849.07 29.92 1845.87 23.7221 Q1842.71 17.4837 1836.35 17.4837 M1836.35 11.0023 Q1846.52 11.0023 1851.87 19.0636 Q1857.25 27.0843 1857.25 42.3968 Q1857.25 57.6687 1851.87 65.73 Q1846.52 73.7508 1836.35 73.7508 Q1826.18 73.7508 1820.8 65.73 Q1815.45 57.6687 1815.45 42.3968 Q1815.45 27.0843 1820.8 19.0636 Q1826.18 11.0023 1836.35 11.0023 Z" fill="#000000" fill-rule="nonzero" fill-opacity="1" /><polyline clip-path="url(#clip632)" style="stroke:#009af9; stroke-linecap:round; stroke-linejoin:round; stroke-width:8; stroke-opacity:1; fill:none" points="261.03,1386.4 297.94,1246.25 334.85,1221.71 371.761,1197.28 408.671,1172.67 445.581,1148.18 482.492,1123.78 519.402,1099.39 556.312,1075.05 593.223,1050.77 630.133,1026.56 667.043,1002.42 703.953,978.361 740.864,954.397 777.774,930.533 814.684,906.778 851.595,883.142 888.505,859.631 925.415,836.258 962.326,813.027 999.236,789.954 1036.15,767.041 1073.06,744.304 1109.97,721.747 1146.88,699.386 1183.79,677.222 1220.7,655.273 1257.61,633.543 1294.52,612.044 1331.43,590.788 1368.34,569.776 1405.25,549.028 1442.16,528.546 1479.07,508.339 1515.98,488.424 1552.89,468.798 1589.8,449.478 1626.71,430.473 1663.62,411.782 1700.53,393.422 1737.44,375.401 1774.35,357.716 1811.26,340.383 1848.17,323.409 1885.08,306.797 1921.99,290.547 1958.9,274.677 1995.81,259.187 2032.72,244.075 2069.64,229.352 2106.55,215.025 2143.46,201.094 2180.37,187.562 2217.28,174.436 2254.19,161.714 2291.1,160.256 "/>
<circle clip-path="url(#clip632)" cx="235.808" cy="1264.91" r="18" fill="#e26f46" fill-rule="evenodd" fill-opacity="1" stroke="#000000" stroke-opacity="1" stroke-width="3.2"/>
<circle clip-path="url(#clip632)" cx="507.714" cy="1098.89" r="18" fill="#e26f46" fill-rule="evenodd" fill-opacity="1" stroke="#000000" stroke-opacity="1" stroke-width="3.2"/>
<circle clip-path="url(#clip632)" cx="702.108" cy="993.607" r="18" fill="#e26f46" fill-rule="evenodd" fill-opacity="1" stroke="#000000" stroke-opacity="1" stroke-width="3.2"/>
<circle clip-path="url(#clip632)" cx="1135.8" cy="637.263" r="18" fill="#e26f46" fill-rule="evenodd" fill-opacity="1" stroke="#000000" stroke-opacity="1" stroke-width="3.2"/>
<circle clip-path="url(#clip632)" cx="1383.1" cy="406.449" r="18" fill="#e26f46" fill-rule="evenodd" fill-opacity="1" stroke="#000000" stroke-opacity="1" stroke-width="3.2"/>
<circle clip-path="url(#clip632)" cx="2221.58" cy="264.721" r="18" fill="#e26f46" fill-rule="evenodd" fill-opacity="1" stroke="#000000" stroke-opacity="1" stroke-width="3.2"/>
<path clip-path="url(#clip630)" d="M246.769 322.316 L848.864 322.316 L848.864 166.796 L246.769 166.796  Z" fill="#ffffff" fill-rule="evenodd" fill-opacity="1"/>
<polyline clip-path="url(#clip630)" style="stroke:#000000; stroke-linecap:round; stroke-linejoin:round; stroke-width:4; stroke-opacity:1; fill:none" points="246.769,322.316 848.864,322.316 848.864,166.796 246.769,166.796 246.769,322.316 "/>
<polyline clip-path="url(#clip630)" style="stroke:#009af9; stroke-linecap:round; stroke-linejoin:round; stroke-width:8; stroke-opacity:1; fill:none" points="270.976,218.636 416.216,218.636 "/>
<path clip-path="url(#clip630)" d="M440.423 201.356 L447.391 201.356 L456.21 224.874 L465.076 201.356 L472.043 201.356 L472.043 235.916 L467.483 235.916 L467.483 205.569 L458.571 229.272 L453.872 229.272 L444.96 205.569 L444.96 235.916 L440.423 235.916 L440.423 201.356 Z" fill="#000000" fill-rule="nonzero" fill-opacity="1" /><path clip-path="url(#clip630)" d="M491.187 212.976 Q487.761 212.976 485.77 215.661 Q483.779 218.323 483.779 222.976 Q483.779 227.629 485.747 230.314 Q487.738 232.976 491.187 232.976 Q494.589 232.976 496.58 230.291 Q498.571 227.606 498.571 222.976 Q498.571 218.37 496.58 215.684 Q494.589 212.976 491.187 212.976 M491.187 209.365 Q496.742 209.365 499.914 212.976 Q503.085 216.587 503.085 222.976 Q503.085 229.342 499.914 232.976 Q496.742 236.587 491.187 236.587 Q485.608 236.587 482.437 232.976 Q479.289 229.342 479.289 222.976 Q479.289 216.587 482.437 212.976 Q485.608 209.365 491.187 209.365 Z" fill="#000000" fill-rule="nonzero" fill-opacity="1" /><path clip-path="url(#clip630)" d="M527.205 213.925 L527.205 199.897 L531.464 199.897 L531.464 235.916 L527.205 235.916 L527.205 232.027 Q525.862 234.342 523.802 235.476 Q521.765 236.587 518.895 236.587 Q514.196 236.587 511.233 232.837 Q508.293 229.087 508.293 222.976 Q508.293 216.865 511.233 213.115 Q514.196 209.365 518.895 209.365 Q521.765 209.365 523.802 210.499 Q525.862 211.61 527.205 213.925 M512.691 222.976 Q512.691 227.675 514.613 230.36 Q516.557 233.022 519.937 233.022 Q523.316 233.022 525.261 230.36 Q527.205 227.675 527.205 222.976 Q527.205 218.277 525.261 215.615 Q523.316 212.93 519.937 212.93 Q516.557 212.93 514.613 215.615 Q512.691 218.277 512.691 222.976 Z" fill="#000000" fill-rule="nonzero" fill-opacity="1" /><path clip-path="url(#clip630)" d="M562.413 221.888 L562.413 223.971 L542.83 223.971 Q543.108 228.369 545.469 230.684 Q547.853 232.976 552.089 232.976 Q554.543 232.976 556.835 232.374 Q559.149 231.772 561.418 230.569 L561.418 234.596 Q559.126 235.568 556.719 236.078 Q554.311 236.587 551.835 236.587 Q545.631 236.587 541.997 232.976 Q538.386 229.365 538.386 223.207 Q538.386 216.842 541.811 213.115 Q545.261 209.365 551.094 209.365 Q556.325 209.365 559.358 212.745 Q562.413 216.101 562.413 221.888 M558.154 220.638 Q558.108 217.143 556.186 215.059 Q554.288 212.976 551.14 212.976 Q547.575 212.976 545.423 214.99 Q543.293 217.004 542.969 220.661 L558.154 220.638 Z" fill="#000000" fill-rule="nonzero" fill-opacity="1" /><path clip-path="url(#clip630)" d="M569.404 199.897 L573.663 199.897 L573.663 235.916 L569.404 235.916 L569.404 199.897 Z" fill="#000000" fill-rule="nonzero" fill-opacity="1" /><path clip-path="url(#clip630)" d="M602.506 205.198 L602.506 218.184 L608.385 218.184 Q611.649 218.184 613.431 216.495 Q615.214 214.805 615.214 211.68 Q615.214 208.578 613.431 206.888 Q611.649 205.198 608.385 205.198 L602.506 205.198 M597.83 201.356 L608.385 201.356 Q614.195 201.356 617.158 203.995 Q620.144 206.61 620.144 211.68 Q620.144 216.795 617.158 219.411 Q614.195 222.027 608.385 222.027 L602.506 222.027 L602.506 235.916 L597.83 235.916 L597.83 201.356 Z" fill="#000000" fill-rule="nonzero" fill-opacity="1" /><path clip-path="url(#clip630)" d="M640.422 213.971 Q639.704 213.555 638.848 213.37 Q638.015 213.161 636.996 213.161 Q633.385 213.161 631.441 215.522 Q629.519 217.86 629.519 222.258 L629.519 235.916 L625.237 235.916 L625.237 209.99 L629.519 209.99 L629.519 214.018 Q630.862 211.657 633.015 210.522 Q635.167 209.365 638.246 209.365 Q638.686 209.365 639.218 209.434 Q639.751 209.481 640.399 209.596 L640.422 213.971 Z" fill="#000000" fill-rule="nonzero" fill-opacity="1" /><path clip-path="url(#clip630)" d="M666.024 221.888 L666.024 223.971 L646.441 223.971 Q646.718 228.369 649.079 230.684 Q651.464 232.976 655.7 232.976 Q658.153 232.976 660.445 232.374 Q662.76 231.772 665.028 230.569 L665.028 234.596 Q662.737 235.568 660.329 236.078 Q657.922 236.587 655.445 236.587 Q649.241 236.587 645.607 232.976 Q641.996 229.365 641.996 223.207 Q641.996 216.842 645.422 213.115 Q648.871 209.365 654.704 209.365 Q659.936 209.365 662.968 212.745 Q666.024 216.101 666.024 221.888 M661.765 220.638 Q661.718 217.143 659.797 215.059 Q657.899 212.976 654.751 212.976 Q651.186 212.976 649.033 214.99 Q646.903 217.004 646.579 220.661 L661.765 220.638 Z" fill="#000000" fill-rule="nonzero" fill-opacity="1" /><path clip-path="url(#clip630)" d="M690.075 213.925 L690.075 199.897 L694.334 199.897 L694.334 235.916 L690.075 235.916 L690.075 232.027 Q688.732 234.342 686.672 235.476 Q684.635 236.587 681.764 236.587 Q677.065 236.587 674.102 232.837 Q671.163 229.087 671.163 222.976 Q671.163 216.865 674.102 213.115 Q677.065 209.365 681.764 209.365 Q684.635 209.365 686.672 210.499 Q688.732 211.61 690.075 213.925 M675.561 222.976 Q675.561 227.675 677.482 230.36 Q679.426 233.022 682.806 233.022 Q686.186 233.022 688.13 230.36 Q690.075 227.675 690.075 222.976 Q690.075 218.277 688.13 215.615 Q686.186 212.93 682.806 212.93 Q679.426 212.93 677.482 215.615 Q675.561 218.277 675.561 222.976 Z" fill="#000000" fill-rule="nonzero" fill-opacity="1" /><path clip-path="url(#clip630)" d="M703.107 209.99 L707.366 209.99 L707.366 235.916 L703.107 235.916 L703.107 209.99 M703.107 199.897 L707.366 199.897 L707.366 205.291 L703.107 205.291 L703.107 199.897 Z" fill="#000000" fill-rule="nonzero" fill-opacity="1" /><path clip-path="url(#clip630)" d="M734.935 210.985 L734.935 214.967 Q733.13 213.971 731.301 213.485 Q729.496 212.976 727.644 212.976 Q723.5 212.976 721.209 215.615 Q718.917 218.231 718.917 222.976 Q718.917 227.721 721.209 230.36 Q723.5 232.976 727.644 232.976 Q729.496 232.976 731.301 232.49 Q733.13 231.981 734.935 230.985 L734.935 234.92 Q733.153 235.754 731.232 236.17 Q729.334 236.587 727.181 236.587 Q721.324 236.587 717.875 232.906 Q714.426 229.226 714.426 222.976 Q714.426 216.633 717.898 212.999 Q721.394 209.365 727.459 209.365 Q729.426 209.365 731.301 209.782 Q733.176 210.175 734.935 210.985 Z" fill="#000000" fill-rule="nonzero" fill-opacity="1" /><path clip-path="url(#clip630)" d="M746.556 202.629 L746.556 209.99 L755.329 209.99 L755.329 213.3 L746.556 213.3 L746.556 227.374 Q746.556 230.545 747.412 231.448 Q748.292 232.351 750.954 232.351 L755.329 232.351 L755.329 235.916 L750.954 235.916 Q746.023 235.916 744.148 234.087 Q742.273 232.235 742.273 227.374 L742.273 213.3 L739.148 213.3 L739.148 209.99 L742.273 209.99 L742.273 202.629 L746.556 202.629 Z" fill="#000000" fill-rule="nonzero" fill-opacity="1" /><path clip-path="url(#clip630)" d="M760.931 209.99 L765.19 209.99 L765.19 235.916 L760.931 235.916 L760.931 209.99 M760.931 199.897 L765.19 199.897 L765.19 205.291 L760.931 205.291 L760.931 199.897 Z" fill="#000000" fill-rule="nonzero" fill-opacity="1" /><path clip-path="url(#clip630)" d="M784.148 212.976 Q780.722 212.976 778.731 215.661 Q776.741 218.323 776.741 222.976 Q776.741 227.629 778.708 230.314 Q780.699 232.976 784.148 232.976 Q787.551 232.976 789.542 230.291 Q791.532 227.606 791.532 222.976 Q791.532 218.37 789.542 215.684 Q787.551 212.976 784.148 212.976 M784.148 209.365 Q789.704 209.365 792.875 212.976 Q796.046 216.587 796.046 222.976 Q796.046 229.342 792.875 232.976 Q789.704 236.587 784.148 236.587 Q778.569 236.587 775.398 232.976 Q772.25 229.342 772.25 222.976 Q772.25 216.587 775.398 212.976 Q778.569 209.365 784.148 209.365 Z" fill="#000000" fill-rule="nonzero" fill-opacity="1" /><path clip-path="url(#clip630)" d="M824.657 220.268 L824.657 235.916 L820.398 235.916 L820.398 220.407 Q820.398 216.726 818.963 214.897 Q817.528 213.069 814.657 213.069 Q811.208 213.069 809.217 215.268 Q807.227 217.467 807.227 221.263 L807.227 235.916 L802.944 235.916 L802.944 209.99 L807.227 209.99 L807.227 214.018 Q808.754 211.68 810.815 210.522 Q812.898 209.365 815.606 209.365 Q820.074 209.365 822.366 212.143 Q824.657 214.897 824.657 220.268 Z" fill="#000000" fill-rule="nonzero" fill-opacity="1" /><circle clip-path="url(#clip630)" cx="343.596" cy="270.476" r="20.9455" fill="#e26f46" fill-rule="evenodd" fill-opacity="1" stroke="#000000" stroke-opacity="1" stroke-width="3.72364"/>
<path clip-path="url(#clip630)" d="M456.442 256.367 Q451.349 256.367 448.34 260.163 Q445.354 263.96 445.354 270.51 Q445.354 277.038 448.34 280.834 Q451.349 284.631 456.442 284.631 Q461.534 284.631 464.497 280.834 Q467.483 277.038 467.483 270.51 Q467.483 263.96 464.497 260.163 Q461.534 256.367 456.442 256.367 M456.442 252.571 Q463.71 252.571 468.062 257.455 Q472.414 262.316 472.414 270.51 Q472.414 278.682 468.062 283.566 Q463.71 288.427 456.442 288.427 Q449.15 288.427 444.775 283.566 Q440.423 278.705 440.423 270.51 Q440.423 262.316 444.775 257.455 Q449.15 252.571 456.442 252.571 Z" fill="#000000" fill-rule="nonzero" fill-opacity="1" /><path clip-path="url(#clip630)" d="M498.154 274.816 Q498.154 270.117 496.21 267.455 Q494.289 264.77 490.909 264.77 Q487.529 264.77 485.585 267.455 Q483.664 270.117 483.664 274.816 Q483.664 279.515 485.585 282.2 Q487.529 284.862 490.909 284.862 Q494.289 284.862 496.21 282.2 Q498.154 279.515 498.154 274.816 M483.664 265.765 Q485.006 263.45 487.043 262.339 Q489.103 261.205 491.951 261.205 Q496.673 261.205 499.613 264.955 Q502.576 268.705 502.576 274.816 Q502.576 280.927 499.613 284.677 Q496.673 288.427 491.951 288.427 Q489.103 288.427 487.043 287.316 Q485.006 286.182 483.664 283.867 L483.664 287.756 L479.381 287.756 L479.381 251.737 L483.664 251.737 L483.664 265.765 Z" fill="#000000" fill-rule="nonzero" fill-opacity="1" /><path clip-path="url(#clip630)" d="M526.163 262.594 L526.163 266.622 Q524.358 265.696 522.413 265.233 Q520.469 264.77 518.386 264.77 Q515.214 264.77 513.617 265.742 Q512.043 266.714 512.043 268.659 Q512.043 270.14 513.177 270.997 Q514.312 271.83 517.738 272.594 L519.196 272.918 Q523.733 273.89 525.631 275.672 Q527.552 277.432 527.552 280.603 Q527.552 284.214 524.682 286.321 Q521.835 288.427 516.835 288.427 Q514.751 288.427 512.483 288.01 Q510.238 287.617 507.738 286.807 L507.738 282.409 Q510.099 283.635 512.39 284.26 Q514.682 284.862 516.927 284.862 Q519.937 284.862 521.557 283.844 Q523.177 282.802 523.177 280.927 Q523.177 279.191 521.997 278.265 Q520.839 277.339 516.881 276.483 L515.4 276.135 Q511.441 275.302 509.682 273.589 Q507.923 271.853 507.923 268.844 Q507.923 265.186 510.515 263.196 Q513.108 261.205 517.876 261.205 Q520.237 261.205 522.321 261.552 Q524.404 261.899 526.163 262.594 Z" fill="#000000" fill-rule="nonzero" fill-opacity="1" /><path clip-path="url(#clip630)" d="M556.51 273.728 L556.51 275.811 L536.927 275.811 Q537.205 280.209 539.566 282.524 Q541.95 284.816 546.186 284.816 Q548.64 284.816 550.932 284.214 Q553.247 283.612 555.515 282.409 L555.515 286.436 Q553.223 287.408 550.816 287.918 Q548.409 288.427 545.932 288.427 Q539.728 288.427 536.094 284.816 Q532.483 281.205 532.483 275.047 Q532.483 268.682 535.909 264.955 Q539.358 261.205 545.191 261.205 Q550.423 261.205 553.455 264.585 Q556.51 267.941 556.51 273.728 M552.251 272.478 Q552.205 268.983 550.284 266.899 Q548.385 264.816 545.237 264.816 Q541.673 264.816 539.52 266.83 Q537.39 268.844 537.066 272.501 L552.251 272.478 Z" fill="#000000" fill-rule="nonzero" fill-opacity="1" /><path clip-path="url(#clip630)" d="M578.524 265.811 Q577.807 265.395 576.95 265.21 Q576.117 265.001 575.098 265.001 Q571.487 265.001 569.543 267.362 Q567.621 269.7 567.621 274.098 L567.621 287.756 L563.339 287.756 L563.339 261.83 L567.621 261.83 L567.621 265.858 Q568.964 263.497 571.117 262.362 Q573.27 261.205 576.348 261.205 Q576.788 261.205 577.321 261.274 Q577.853 261.321 578.501 261.436 L578.524 265.811 Z" fill="#000000" fill-rule="nonzero" fill-opacity="1" /><path clip-path="url(#clip630)" d="M579.936 261.83 L584.45 261.83 L592.552 283.589 L600.654 261.83 L605.168 261.83 L595.445 287.756 L589.658 287.756 L579.936 261.83 Z" fill="#000000" fill-rule="nonzero" fill-opacity="1" /><path clip-path="url(#clip630)" d="M633.223 273.728 L633.223 275.811 L613.64 275.811 Q613.918 280.209 616.279 282.524 Q618.663 284.816 622.899 284.816 Q625.353 284.816 627.644 284.214 Q629.959 283.612 632.228 282.409 L632.228 286.436 Q629.936 287.408 627.529 287.918 Q625.121 288.427 622.644 288.427 Q616.441 288.427 612.806 284.816 Q609.195 281.205 609.195 275.047 Q609.195 268.682 612.621 264.955 Q616.07 261.205 621.904 261.205 Q627.135 261.205 630.167 264.585 Q633.223 267.941 633.223 273.728 M628.964 272.478 Q628.917 268.983 626.996 266.899 Q625.098 264.816 621.95 264.816 Q618.385 264.816 616.232 266.83 Q614.103 268.844 613.779 272.501 L628.964 272.478 Z" fill="#000000" fill-rule="nonzero" fill-opacity="1" /><path clip-path="url(#clip630)" d="M657.274 265.765 L657.274 251.737 L661.533 251.737 L661.533 287.756 L657.274 287.756 L657.274 283.867 Q655.931 286.182 653.871 287.316 Q651.834 288.427 648.964 288.427 Q644.265 288.427 641.302 284.677 Q638.362 280.927 638.362 274.816 Q638.362 268.705 641.302 264.955 Q644.265 261.205 648.964 261.205 Q651.834 261.205 653.871 262.339 Q655.931 263.45 657.274 265.765 M642.76 274.816 Q642.76 279.515 644.681 282.2 Q646.626 284.862 650.005 284.862 Q653.385 284.862 655.329 282.2 Q657.274 279.515 657.274 274.816 Q657.274 270.117 655.329 267.455 Q653.385 264.77 650.005 264.77 Q646.626 264.77 644.681 267.455 Q642.76 270.117 642.76 274.816 Z" fill="#000000" fill-rule="nonzero" fill-opacity="1" /><path clip-path="url(#clip630)" d="M690.237 257.038 L690.237 283.913 L695.885 283.913 Q703.037 283.913 706.348 280.672 Q709.681 277.432 709.681 270.441 Q709.681 263.497 706.348 260.279 Q703.037 257.038 695.885 257.038 L690.237 257.038 M685.561 253.196 L695.167 253.196 Q705.213 253.196 709.912 257.386 Q714.611 261.552 714.611 270.441 Q714.611 279.376 709.889 283.566 Q705.167 287.756 695.167 287.756 L685.561 287.756 L685.561 253.196 Z" fill="#000000" fill-rule="nonzero" fill-opacity="1" /><path clip-path="url(#clip630)" d="M733.662 274.723 Q728.5 274.723 726.51 275.904 Q724.519 277.084 724.519 279.932 Q724.519 282.2 726 283.543 Q727.505 284.862 730.074 284.862 Q733.616 284.862 735.746 282.362 Q737.898 279.839 737.898 275.672 L737.898 274.723 L733.662 274.723 M742.158 272.964 L742.158 287.756 L737.898 287.756 L737.898 283.821 Q736.44 286.182 734.264 287.316 Q732.088 288.427 728.94 288.427 Q724.959 288.427 722.598 286.205 Q720.26 283.959 720.26 280.209 Q720.26 275.834 723.176 273.612 Q726.116 271.39 731.926 271.39 L737.898 271.39 L737.898 270.973 Q737.898 268.034 735.954 266.436 Q734.033 264.816 730.537 264.816 Q728.315 264.816 726.209 265.348 Q724.102 265.881 722.158 266.946 L722.158 263.01 Q724.496 262.108 726.695 261.668 Q728.894 261.205 730.977 261.205 Q736.602 261.205 739.38 264.122 Q742.158 267.038 742.158 272.964 Z" fill="#000000" fill-rule="nonzero" fill-opacity="1" /><path clip-path="url(#clip630)" d="M755.144 254.469 L755.144 261.83 L763.917 261.83 L763.917 265.14 L755.144 265.14 L755.144 279.214 Q755.144 282.385 756 283.288 Q756.88 284.191 759.542 284.191 L763.917 284.191 L763.917 287.756 L759.542 287.756 Q754.611 287.756 752.736 285.927 Q750.861 284.075 750.861 279.214 L750.861 265.14 L747.736 265.14 L747.736 261.83 L750.861 261.83 L750.861 254.469 L755.144 254.469 Z" fill="#000000" fill-rule="nonzero" fill-opacity="1" /><path clip-path="url(#clip630)" d="M781.301 274.723 Q776.139 274.723 774.148 275.904 Q772.157 277.084 772.157 279.932 Q772.157 282.2 773.639 283.543 Q775.144 284.862 777.713 284.862 Q781.255 284.862 783.384 282.362 Q785.537 279.839 785.537 275.672 L785.537 274.723 L781.301 274.723 M789.796 272.964 L789.796 287.756 L785.537 287.756 L785.537 283.821 Q784.079 286.182 781.903 287.316 Q779.727 288.427 776.579 288.427 Q772.597 288.427 770.236 286.205 Q767.898 283.959 767.898 280.209 Q767.898 275.834 770.815 273.612 Q773.755 271.39 779.565 271.39 L785.537 271.39 L785.537 270.973 Q785.537 268.034 783.593 266.436 Q781.671 264.816 778.176 264.816 Q775.954 264.816 773.847 265.348 Q771.741 265.881 769.796 266.946 L769.796 263.01 Q772.134 262.108 774.333 261.668 Q776.532 261.205 778.616 261.205 Q784.241 261.205 787.018 264.122 Q789.796 267.038 789.796 272.964 Z" fill="#000000" fill-rule="nonzero" fill-opacity="1" /></svg>
