<?xml version="1.0" encoding="utf-8"?>
<svg xmlns="http://www.w3.org/2000/svg" xmlns:xlink="http://www.w3.org/1999/xlink" width="600" height="400" viewBox="0 0 2400 1600">
<defs>
  <clipPath id="clip050">
    <rect x="0" y="0" width="2400" height="1600"/>
  </clipPath>
</defs>
<path clip-path="url(#clip050)" d="M0 1600 L2400 1600 L2400 0 L0 0  Z" fill="#ffffff" fill-rule="evenodd" fill-opacity="1"/>
<defs>
  <clipPath id="clip051">
    <rect x="211" y="106" width="1531" height="1314"/>
  </clipPath>
</defs>
<path clip-path="url(#clip050)" d="M211.226 1419.54 L1741.55 1419.54 L1741.55 106.192 L211.226 106.192  Z" fill="#ffffff" fill-rule="evenodd" fill-opacity="1"/>
<polyline clip-path="url(#clip051)" style="stroke:#000000; stroke-linecap:round; stroke-linejoin:round; stroke-width:2; stroke-opacity:0.2; fill:none" points="254.537,1419.54 254.537,106.192 "/>
<polyline clip-path="url(#clip051)" style="stroke:#000000; stroke-linecap:round; stroke-linejoin:round; stroke-width:2; stroke-opacity:0.2; fill:none" points="858.945,1419.54 858.945,106.192 "/>
<polyline clip-path="url(#clip051)" style="stroke:#000000; stroke-linecap:round; stroke-linejoin:round; stroke-width:2; stroke-opacity:0.2; fill:none" points="1463.35,1419.54 1463.35,106.192 "/>
<polyline clip-path="url(#clip051)" style="stroke:#000000; stroke-linecap:round; stroke-linejoin:round; stroke-width:2; stroke-opacity:0.2; fill:none" points="254.537,1419.54 254.537,106.192 "/>
<polyline clip-path="url(#clip051)" style="stroke:#000000; stroke-linecap:round; stroke-linejoin:round; stroke-width:2; stroke-opacity:0.2; fill:none" points="858.945,1419.54 858.945,106.192 "/>
<polyline clip-path="url(#clip051)" style="stroke:#000000; stroke-linecap:round; stroke-linejoin:round; stroke-width:2; stroke-opacity:0.2; fill:none" points="1463.35,1419.54 1463.35,106.192 "/>
<polyline clip-path="url(#clip051)" style="stroke:#000000; stroke-linecap:round; stroke-linejoin:round; stroke-width:2; stroke-opacity:0.2; fill:none" points="211.226,1382.37 1741.55,1382.37 "/>
<polyline clip-path="url(#clip051)" style="stroke:#000000; stroke-linecap:round; stroke-linejoin:round; stroke-width:2; stroke-opacity:0.2; fill:none" points="211.226,1124.34 1741.55,1124.34 "/>
<polyline clip-path="url(#clip051)" style="stroke:#000000; stroke-linecap:round; stroke-linejoin:round; stroke-width:2; stroke-opacity:0.2; fill:none" points="211.226,866.311 1741.55,866.311 "/>
<polyline clip-path="url(#clip051)" style="stroke:#000000; stroke-linecap:round; stroke-linejoin:round; stroke-width:2; stroke-opacity:0.2; fill:none" points="211.226,608.283 1741.55,608.283 "/>
<polyline clip-path="url(#clip051)" style="stroke:#000000; stroke-linecap:round; stroke-linejoin:round; stroke-width:2; stroke-opacity:0.2; fill:none" points="211.226,350.255 1741.55,350.255 "/>
<polyline clip-path="url(#clip051)" style="stroke:#000000; stroke-linecap:round; stroke-linejoin:round; stroke-width:2; stroke-opacity:0.2; fill:none" points="211.226,1382.37 1741.55,1382.37 "/>
<polyline clip-path="url(#clip051)" style="stroke:#000000; stroke-linecap:round; stroke-linejoin:round; stroke-width:2; stroke-opacity:0.2; fill:none" points="211.226,1124.34 1741.55,1124.34 "/>
<polyline clip-path="url(#clip051)" style="stroke:#000000; stroke-linecap:round; stroke-linejoin:round; stroke-width:2; stroke-opacity:0.2; fill:none" points="211.226,866.311 1741.55,866.311 "/>
<polyline clip-path="url(#clip051)" style="stroke:#000000; stroke-linecap:round; stroke-linejoin:round; stroke-width:2; stroke-opacity:0.2; fill:none" points="211.226,608.283 1741.55,608.283 "/>
<polyline clip-path="url(#clip051)" style="stroke:#000000; stroke-linecap:round; stroke-linejoin:round; stroke-width:2; stroke-opacity:0.2; fill:none" points="211.226,350.255 1741.55,350.255 "/>
<polyline clip-path="url(#clip050)" style="stroke:#000000; stroke-linecap:round; stroke-linejoin:round; stroke-width:4; stroke-opacity:1; fill:none" points="211.226,1419.54 1741.55,1419.54 "/>
<polyline clip-path="url(#clip050)" style="stroke:#000000; stroke-linecap:round; stroke-linejoin:round; stroke-width:4; stroke-opacity:1; fill:none" points="211.226,106.192 1741.55,106.192 "/>
<polyline clip-path="url(#clip050)" style="stroke:#000000; stroke-linecap:round; stroke-linejoin:round; stroke-width:4; stroke-opacity:1; fill:none" points="254.537,1419.54 254.537,1400.64 "/>
<polyline clip-path="url(#clip050)" style="stroke:#000000; stroke-linecap:round; stroke-linejoin:round; stroke-width:4; stroke-opacity:1; fill:none" points="858.945,1419.54 858.945,1400.64 "/>
<polyline clip-path="url(#clip050)" style="stroke:#000000; stroke-linecap:round; stroke-linejoin:round; stroke-width:4; stroke-opacity:1; fill:none" points="1463.35,1419.54 1463.35,1400.64 "/>
<polyline clip-path="url(#clip050)" style="stroke:#000000; stroke-linecap:round; stroke-linejoin:round; stroke-width:4; stroke-opacity:1; fill:none" points="254.537,106.192 254.537,125.09 "/>
<polyline clip-path="url(#clip050)" style="stroke:#000000; stroke-linecap:round; stroke-linejoin:round; stroke-width:4; stroke-opacity:1; fill:none" points="858.945,106.192 858.945,125.09 "/>
<polyline clip-path="url(#clip050)" style="stroke:#000000; stroke-linecap:round; stroke-linejoin:round; stroke-width:4; stroke-opacity:1; fill:none" points="1463.35,106.192 1463.35,125.09 "/>
<path clip-path="url(#clip050)" d="M204.417 1493.66 L212.056 1493.66 L212.056 1467.3 L203.746 1468.96 L203.746 1464.7 L212.01 1463.04 L216.686 1463.04 L216.686 1493.66 L224.325 1493.66 L224.325 1497.6 L204.417 1497.6 L204.417 1493.66 Z" fill="#000000" fill-rule="nonzero" fill-opacity="1" /><path clip-path="url(#clip050)" d="M243.769 1466.12 Q240.158 1466.12 238.329 1469.68 Q236.524 1473.22 236.524 1480.35 Q236.524 1487.46 238.329 1491.02 Q240.158 1494.56 243.769 1494.56 Q247.403 1494.56 249.209 1491.02 Q251.038 1487.46 251.038 1480.35 Q251.038 1473.22 249.209 1469.68 Q247.403 1466.12 243.769 1466.12 M243.769 1462.41 Q249.579 1462.41 252.635 1467.02 Q255.713 1471.6 255.713 1480.35 Q255.713 1489.08 252.635 1493.68 Q249.579 1498.27 243.769 1498.27 Q237.959 1498.27 234.88 1493.68 Q231.825 1489.08 231.825 1480.35 Q231.825 1471.6 234.88 1467.02 Q237.959 1462.41 243.769 1462.41 Z" fill="#000000" fill-rule="nonzero" fill-opacity="1" /><path clip-path="url(#clip050)" d="M255.713 1456.51 L279.825 1456.51 L279.825 1459.71 L255.713 1459.71 L255.713 1456.51 Z" fill="#000000" fill-rule="nonzero" fill-opacity="1" /><path clip-path="url(#clip050)" d="M299.536 1455.05 Q302.263 1455.63 303.786 1457.47 Q305.328 1459.32 305.328 1462.02 Q305.328 1466.18 302.47 1468.46 Q299.611 1470.73 294.345 1470.73 Q292.577 1470.73 290.696 1470.37 Q288.834 1470.04 286.84 1469.34 L286.84 1465.67 Q288.42 1466.59 290.301 1467.06 Q292.182 1467.53 294.232 1467.53 Q297.805 1467.53 299.667 1466.12 Q301.548 1464.71 301.548 1462.02 Q301.548 1459.54 299.799 1458.15 Q298.069 1456.74 294.965 1456.74 L291.693 1456.74 L291.693 1453.62 L295.116 1453.62 Q297.918 1453.62 299.404 1452.51 Q300.89 1451.38 300.89 1449.27 Q300.89 1447.11 299.348 1445.96 Q297.824 1444.8 294.965 1444.8 Q293.404 1444.8 291.618 1445.13 Q289.831 1445.47 287.687 1446.19 L287.687 1442.8 Q289.85 1442.2 291.73 1441.9 Q293.63 1441.6 295.304 1441.6 Q299.63 1441.6 302.15 1443.57 Q304.67 1445.53 304.67 1448.88 Q304.67 1451.21 303.335 1452.83 Q301.999 1454.43 299.536 1455.05 Z" fill="#000000" fill-rule="nonzero" fill-opacity="1" /><path clip-path="url(#clip050)" d="M809.211 1493.66 L816.85 1493.66 L816.85 1467.3 L808.54 1468.96 L808.54 1464.7 L816.804 1463.04 L821.479 1463.04 L821.479 1493.66 L829.118 1493.66 L829.118 1497.6 L809.211 1497.6 L809.211 1493.66 Z" fill="#000000" fill-rule="nonzero" fill-opacity="1" /><path clip-path="url(#clip050)" d="M848.563 1466.12 Q844.952 1466.12 843.123 1469.68 Q841.317 1473.22 841.317 1480.35 Q841.317 1487.46 843.123 1491.02 Q844.952 1494.56 848.563 1494.56 Q852.197 1494.56 854.002 1491.02 Q855.831 1487.46 855.831 1480.35 Q855.831 1473.22 854.002 1469.68 Q852.197 1466.12 848.563 1466.12 M848.563 1462.41 Q854.373 1462.41 857.428 1467.02 Q860.507 1471.6 860.507 1480.35 Q860.507 1489.08 857.428 1493.68 Q854.373 1498.27 848.563 1498.27 Q842.752 1498.27 839.674 1493.68 Q836.618 1489.08 836.618 1480.35 Q836.618 1471.6 839.674 1467.02 Q842.752 1462.41 848.563 1462.41 Z" fill="#000000" fill-rule="nonzero" fill-opacity="1" /><path clip-path="url(#clip050)" d="M860.507 1456.51 L884.619 1456.51 L884.619 1459.71 L860.507 1459.71 L860.507 1456.51 Z" fill="#000000" fill-rule="nonzero" fill-opacity="1" /><path clip-path="url(#clip050)" d="M896.091 1466.99 L909.351 1466.99 L909.351 1470.19 L891.521 1470.19 L891.521 1466.99 Q893.684 1464.75 897.408 1460.99 Q901.151 1457.21 902.11 1456.12 Q903.934 1454.07 904.649 1452.66 Q905.382 1451.23 905.382 1449.86 Q905.382 1447.62 903.803 1446.21 Q902.241 1444.8 899.721 1444.8 Q897.934 1444.8 895.941 1445.42 Q893.966 1446.04 891.709 1447.3 L891.709 1443.46 Q894.004 1442.54 895.997 1442.07 Q897.991 1441.6 899.646 1441.6 Q904.009 1441.6 906.605 1443.78 Q909.2 1445.96 909.2 1449.61 Q909.2 1451.34 908.542 1452.9 Q907.903 1454.44 906.191 1456.55 Q905.721 1457.1 903.201 1459.71 Q900.68 1462.31 896.091 1466.99 Z" fill="#000000" fill-rule="nonzero" fill-opacity="1" /><path clip-path="url(#clip050)" d="M1413.47 1493.66 L1421.11 1493.66 L1421.11 1467.3 L1412.8 1468.96 L1412.8 1464.7 L1421.06 1463.04 L1425.74 1463.04 L1425.74 1493.66 L1433.38 1493.66 L1433.38 1497.6 L1413.47 1497.6 L1413.47 1493.66 Z" fill="#000000" fill-rule="nonzero" fill-opacity="1" /><path clip-path="url(#clip050)" d="M1452.82 1466.12 Q1449.21 1466.12 1447.38 1469.68 Q1445.57 1473.22 1445.57 1480.35 Q1445.57 1487.46 1447.38 1491.02 Q1449.21 1494.56 1452.82 1494.56 Q1456.45 1494.56 1458.26 1491.02 Q1460.09 1487.46 1460.09 1480.35 Q1460.09 1473.22 1458.26 1469.68 Q1456.45 1466.12 1452.82 1466.12 M1452.82 1462.41 Q1458.63 1462.41 1461.69 1467.02 Q1464.76 1471.6 1464.76 1480.35 Q1464.76 1489.08 1461.69 1493.68 Q1458.63 1498.27 1452.82 1498.27 Q1447.01 1498.27 1443.93 1493.68 Q1440.88 1489.08 1440.88 1480.35 Q1440.88 1471.6 1443.93 1467.02 Q1447.01 1462.41 1452.82 1462.41 Z" fill="#000000" fill-rule="nonzero" fill-opacity="1" /><path clip-path="url(#clip050)" d="M1464.76 1456.51 L1488.88 1456.51 L1488.88 1459.71 L1464.76 1459.71 L1464.76 1456.51 Z" fill="#000000" fill-rule="nonzero" fill-opacity="1" /><path clip-path="url(#clip050)" d="M1497.73 1466.99 L1503.94 1466.99 L1503.94 1445.57 L1497.19 1446.92 L1497.19 1443.46 L1503.9 1442.11 L1507.7 1442.11 L1507.7 1466.99 L1513.91 1466.99 L1513.91 1470.19 L1497.73 1470.19 L1497.73 1466.99 Z" fill="#000000" fill-rule="nonzero" fill-opacity="1" /><path clip-path="url(#clip050)" d="M746.168 1536.57 L746.168 1542.12 Q743.511 1539.65 740.49 1538.42 Q737.496 1537.2 734.11 1537.2 Q727.444 1537.2 723.902 1541.29 Q720.36 1545.35 720.36 1553.06 Q720.36 1560.74 723.902 1564.83 Q727.444 1568.89 734.11 1568.89 Q737.496 1568.89 740.49 1567.67 Q743.511 1566.44 746.168 1563.97 L746.168 1569.46 Q743.407 1571.34 740.308 1572.28 Q737.235 1573.21 733.798 1573.21 Q724.97 1573.21 719.892 1567.82 Q714.814 1562.41 714.814 1553.06 Q714.814 1543.68 719.892 1538.29 Q724.97 1532.87 733.798 1532.87 Q737.287 1532.87 740.36 1533.81 Q743.459 1534.72 746.168 1536.57 Z" fill="#000000" fill-rule="nonzero" fill-opacity="1" /><path clip-path="url(#clip050)" d="M776.246 1581.31 L776.246 1585.04 L748.537 1585.04 L748.537 1581.31 L776.246 1581.31 Z" fill="#000000" fill-rule="nonzero" fill-opacity="1" /><path clip-path="url(#clip050)" d="M801.74 1544.41 L801.74 1548.89 Q799.709 1547.77 797.652 1547.22 Q795.62 1546.65 793.537 1546.65 Q788.876 1546.65 786.298 1549.62 Q783.719 1552.56 783.719 1557.9 Q783.719 1563.24 786.298 1566.21 Q788.876 1569.15 793.537 1569.15 Q795.62 1569.15 797.652 1568.6 Q799.709 1568.03 801.74 1566.91 L801.74 1571.34 Q799.735 1572.28 797.574 1572.74 Q795.438 1573.21 793.016 1573.21 Q786.428 1573.21 782.548 1569.07 Q778.667 1564.93 778.667 1557.9 Q778.667 1550.76 782.574 1546.68 Q786.506 1542.59 793.329 1542.59 Q795.542 1542.59 797.652 1543.06 Q799.761 1543.5 801.74 1544.41 Z" fill="#000000" fill-rule="nonzero" fill-opacity="1" /><path clip-path="url(#clip050)" d="M822 1537.04 Q817.938 1537.04 815.881 1541.05 Q813.849 1545.04 813.849 1553.06 Q813.849 1561.05 815.881 1565.06 Q817.938 1569.05 822 1569.05 Q826.089 1569.05 828.12 1565.06 Q830.178 1561.05 830.178 1553.06 Q830.178 1545.04 828.12 1541.05 Q826.089 1537.04 822 1537.04 M822 1532.87 Q828.537 1532.87 831.974 1538.06 Q835.438 1543.21 835.438 1553.06 Q835.438 1562.87 831.974 1568.06 Q828.537 1573.21 822 1573.21 Q815.464 1573.21 812.001 1568.06 Q808.563 1562.87 808.563 1553.06 Q808.563 1543.21 812.001 1538.06 Q815.464 1532.87 822 1532.87 Z" fill="#000000" fill-rule="nonzero" fill-opacity="1" /><path clip-path="url(#clip050)" d="M872.469 1531.99 Q868.979 1537.98 867.287 1543.84 Q865.594 1549.7 865.594 1555.71 Q865.594 1561.73 867.287 1567.64 Q869.005 1573.53 872.469 1579.49 L868.302 1579.49 Q864.396 1573.37 862.443 1567.46 Q860.516 1561.55 860.516 1555.71 Q860.516 1549.91 862.443 1544.02 Q864.37 1538.13 868.302 1531.99 L872.469 1531.99 Z" fill="#000000" fill-rule="nonzero" fill-opacity="1" /><path clip-path="url(#clip050)" d="M906.01 1554.85 L906.01 1572.46 L901.219 1572.46 L901.219 1555.01 Q901.219 1550.87 899.604 1548.81 Q897.99 1546.75 894.761 1546.75 Q890.88 1546.75 888.641 1549.23 Q886.401 1551.7 886.401 1555.97 L886.401 1572.46 L881.583 1572.46 L881.583 1543.29 L886.401 1543.29 L886.401 1547.82 Q888.12 1545.19 890.438 1543.89 Q892.781 1542.59 895.828 1542.59 Q900.854 1542.59 903.432 1545.71 Q906.01 1548.81 906.01 1554.85 Z" fill="#000000" fill-rule="nonzero" fill-opacity="1" /><path clip-path="url(#clip050)" d="M928.823 1557.8 Q923.016 1557.8 920.776 1559.12 Q918.536 1560.45 918.536 1563.66 Q918.536 1566.21 920.203 1567.72 Q921.896 1569.2 924.786 1569.2 Q928.771 1569.2 931.167 1566.39 Q933.588 1563.55 933.588 1558.86 L933.588 1557.8 L928.823 1557.8 M938.38 1555.82 L938.38 1572.46 L933.588 1572.46 L933.588 1568.03 Q931.948 1570.69 929.5 1571.96 Q927.052 1573.21 923.51 1573.21 Q919.031 1573.21 916.375 1570.71 Q913.745 1568.19 913.745 1563.97 Q913.745 1559.05 917.026 1556.55 Q920.333 1554.05 926.87 1554.05 L933.588 1554.05 L933.588 1553.58 Q933.588 1550.27 931.401 1548.47 Q929.239 1546.65 925.307 1546.65 Q922.807 1546.65 920.437 1547.25 Q918.068 1547.85 915.88 1549.05 L915.88 1544.62 Q918.51 1543.6 920.984 1543.11 Q923.458 1542.59 925.802 1542.59 Q932.13 1542.59 935.255 1545.87 Q938.38 1549.15 938.38 1555.82 Z" fill="#000000" fill-rule="nonzero" fill-opacity="1" /><path clip-path="url(#clip050)" d="M952.989 1535.01 L952.989 1543.29 L962.859 1543.29 L962.859 1547.01 L952.989 1547.01 L952.989 1562.85 Q952.989 1566.42 953.953 1567.43 Q954.942 1568.45 957.937 1568.45 L962.859 1568.45 L962.859 1572.46 L957.937 1572.46 Q952.39 1572.46 950.281 1570.4 Q948.172 1568.32 948.172 1562.85 L948.172 1547.01 L944.656 1547.01 L944.656 1543.29 L948.172 1543.29 L948.172 1535.01 L952.989 1535.01 Z" fill="#000000" fill-rule="nonzero" fill-opacity="1" /><path clip-path="url(#clip050)" d="M968.666 1560.95 L968.666 1543.29 L973.458 1543.29 L973.458 1560.76 Q973.458 1564.91 975.073 1566.99 Q976.687 1569.05 979.916 1569.05 Q983.796 1569.05 986.036 1566.57 Q988.302 1564.1 988.302 1559.83 L988.302 1543.29 L993.093 1543.29 L993.093 1572.46 L988.302 1572.46 L988.302 1567.98 Q986.557 1570.63 984.239 1571.94 Q981.948 1573.21 978.901 1573.21 Q973.875 1573.21 971.271 1570.09 Q968.666 1566.96 968.666 1560.95 M980.724 1542.59 L980.724 1542.59 Z" fill="#000000" fill-rule="nonzero" fill-opacity="1" /><path clip-path="url(#clip050)" d="M1019.86 1547.77 Q1019.06 1547.3 1018.09 1547.09 Q1017.16 1546.86 1016.01 1546.86 Q1011.95 1546.86 1009.76 1549.51 Q1007.6 1552.15 1007.6 1557.09 L1007.6 1572.46 L1002.78 1572.46 L1002.78 1543.29 L1007.6 1543.29 L1007.6 1547.82 Q1009.11 1545.17 1011.53 1543.89 Q1013.95 1542.59 1017.42 1542.59 Q1017.91 1542.59 1018.51 1542.67 Q1019.11 1542.72 1019.84 1542.85 L1019.86 1547.77 Z" fill="#000000" fill-rule="nonzero" fill-opacity="1" /><path clip-path="url(#clip050)" d="M1038.15 1557.8 Q1032.34 1557.8 1030.1 1559.12 Q1027.86 1560.45 1027.86 1563.66 Q1027.86 1566.21 1029.53 1567.72 Q1031.22 1569.2 1034.11 1569.2 Q1038.09 1569.2 1040.49 1566.39 Q1042.91 1563.55 1042.91 1558.86 L1042.91 1557.8 L1038.15 1557.8 M1047.7 1555.82 L1047.7 1572.46 L1042.91 1572.46 L1042.91 1568.03 Q1041.27 1570.69 1038.82 1571.96 Q1036.37 1573.21 1032.83 1573.21 Q1028.35 1573.21 1025.7 1570.71 Q1023.07 1568.19 1023.07 1563.97 Q1023.07 1559.05 1026.35 1556.55 Q1029.66 1554.05 1036.19 1554.05 L1042.91 1554.05 L1042.91 1553.58 Q1042.91 1550.27 1040.72 1548.47 Q1038.56 1546.65 1034.63 1546.65 Q1032.13 1546.65 1029.76 1547.25 Q1027.39 1547.85 1025.2 1549.05 L1025.2 1544.62 Q1027.83 1543.6 1030.31 1543.11 Q1032.78 1542.59 1035.12 1542.59 Q1041.45 1542.59 1044.58 1545.87 Q1047.7 1549.15 1047.7 1555.82 Z" fill="#000000" fill-rule="nonzero" fill-opacity="1" /><path clip-path="url(#clip050)" d="M1057.57 1531.94 L1062.36 1531.94 L1062.36 1572.46 L1057.57 1572.46 L1057.57 1531.94 Z" fill="#000000" fill-rule="nonzero" fill-opacity="1" /><path clip-path="url(#clip050)" d="M1107.94 1544.15 L1107.94 1548.68 Q1105.91 1547.64 1103.72 1547.12 Q1101.53 1546.6 1099.19 1546.6 Q1095.62 1546.6 1093.82 1547.69 Q1092.05 1548.79 1092.05 1550.97 Q1092.05 1552.64 1093.33 1553.6 Q1094.6 1554.54 1098.46 1555.4 L1100.1 1555.76 Q1105.2 1556.86 1107.34 1558.86 Q1109.5 1560.84 1109.5 1564.41 Q1109.5 1568.47 1106.27 1570.84 Q1103.07 1573.21 1097.44 1573.21 Q1095.1 1573.21 1092.55 1572.74 Q1090.02 1572.3 1087.21 1571.39 L1087.21 1566.44 Q1089.86 1567.82 1092.44 1568.53 Q1095.02 1569.2 1097.55 1569.2 Q1100.93 1569.2 1102.75 1568.06 Q1104.58 1566.88 1104.58 1564.78 Q1104.58 1562.82 1103.25 1561.78 Q1101.95 1560.74 1097.49 1559.78 L1095.83 1559.38 Q1091.37 1558.45 1089.39 1556.52 Q1087.42 1554.57 1087.42 1551.18 Q1087.42 1547.07 1090.33 1544.83 Q1093.25 1542.59 1098.61 1542.59 Q1101.27 1542.59 1103.61 1542.98 Q1105.96 1543.37 1107.94 1544.15 Z" fill="#000000" fill-rule="nonzero" fill-opacity="1" /><path clip-path="url(#clip050)" d="M1138.12 1544.41 L1138.12 1548.89 Q1136.09 1547.77 1134.03 1547.22 Q1132 1546.65 1129.92 1546.65 Q1125.25 1546.65 1122.68 1549.62 Q1120.1 1552.56 1120.1 1557.9 Q1120.1 1563.24 1122.68 1566.21 Q1125.25 1569.15 1129.92 1569.15 Q1132 1569.15 1134.03 1568.6 Q1136.09 1568.03 1138.12 1566.91 L1138.12 1571.34 Q1136.11 1572.28 1133.95 1572.74 Q1131.82 1573.21 1129.39 1573.21 Q1122.81 1573.21 1118.93 1569.07 Q1115.05 1564.93 1115.05 1557.9 Q1115.05 1550.76 1118.95 1546.68 Q1122.88 1542.59 1129.71 1542.59 Q1131.92 1542.59 1134.03 1543.06 Q1136.14 1543.5 1138.12 1544.41 Z" fill="#000000" fill-rule="nonzero" fill-opacity="1" /><path clip-path="url(#clip050)" d="M1159.71 1557.8 Q1153.9 1557.8 1151.66 1559.12 Q1149.42 1560.45 1149.42 1563.66 Q1149.42 1566.21 1151.09 1567.72 Q1152.78 1569.2 1155.67 1569.2 Q1159.65 1569.2 1162.05 1566.39 Q1164.47 1563.55 1164.47 1558.86 L1164.47 1557.8 L1159.71 1557.8 M1169.26 1555.82 L1169.26 1572.46 L1164.47 1572.46 L1164.47 1568.03 Q1162.83 1570.69 1160.38 1571.96 Q1157.94 1573.21 1154.39 1573.21 Q1149.92 1573.21 1147.26 1570.71 Q1144.63 1568.19 1144.63 1563.97 Q1144.63 1559.05 1147.91 1556.55 Q1151.22 1554.05 1157.75 1554.05 L1164.47 1554.05 L1164.47 1553.58 Q1164.47 1550.27 1162.29 1548.47 Q1160.12 1546.65 1156.19 1546.65 Q1153.69 1546.65 1151.32 1547.25 Q1148.95 1547.85 1146.76 1549.05 L1146.76 1544.62 Q1149.39 1543.6 1151.87 1543.11 Q1154.34 1542.59 1156.69 1542.59 Q1163.01 1542.59 1166.14 1545.87 Q1169.26 1549.15 1169.26 1555.82 Z" fill="#000000" fill-rule="nonzero" fill-opacity="1" /><path clip-path="url(#clip050)" d="M1179.13 1531.94 L1183.93 1531.94 L1183.93 1572.46 L1179.13 1572.46 L1179.13 1531.94 Z" fill="#000000" fill-rule="nonzero" fill-opacity="1" /><path clip-path="url(#clip050)" d="M1218.9 1556.68 L1218.9 1559.02 L1196.87 1559.02 Q1197.18 1563.97 1199.84 1566.57 Q1202.52 1569.15 1207.28 1569.15 Q1210.05 1569.15 1212.62 1568.47 Q1215.23 1567.8 1217.78 1566.44 L1217.78 1570.97 Q1215.2 1572.07 1212.49 1572.64 Q1209.78 1573.21 1207 1573.21 Q1200.02 1573.21 1195.93 1569.15 Q1191.87 1565.09 1191.87 1558.16 Q1191.87 1551 1195.72 1546.81 Q1199.6 1542.59 1206.17 1542.59 Q1212.05 1542.59 1215.46 1546.39 Q1218.9 1550.17 1218.9 1556.68 M1214.11 1555.27 Q1214.06 1551.34 1211.89 1548.99 Q1209.76 1546.65 1206.22 1546.65 Q1202.21 1546.65 1199.78 1548.92 Q1197.39 1551.18 1197.02 1555.3 L1214.11 1555.27 Z" fill="#000000" fill-rule="nonzero" fill-opacity="1" /><path clip-path="url(#clip050)" d="M1226.01 1531.99 L1230.18 1531.99 Q1234.08 1538.13 1236.01 1544.02 Q1237.96 1549.91 1237.96 1555.71 Q1237.96 1561.55 1236.01 1567.46 Q1234.08 1573.37 1230.18 1579.49 L1226.01 1579.49 Q1229.47 1573.53 1231.16 1567.64 Q1232.88 1561.73 1232.88 1555.71 Q1232.88 1549.7 1231.16 1543.84 Q1229.47 1537.98 1226.01 1531.99 Z" fill="#000000" fill-rule="nonzero" fill-opacity="1" /><polyline clip-path="url(#clip050)" style="stroke:#000000; stroke-linecap:round; stroke-linejoin:round; stroke-width:4; stroke-opacity:1; fill:none" points="211.226,1419.54 211.226,106.192 "/>
<polyline clip-path="url(#clip050)" style="stroke:#000000; stroke-linecap:round; stroke-linejoin:round; stroke-width:4; stroke-opacity:1; fill:none" points="1741.55,1419.54 1741.55,106.192 "/>
<polyline clip-path="url(#clip050)" style="stroke:#000000; stroke-linecap:round; stroke-linejoin:round; stroke-width:4; stroke-opacity:1; fill:none" points="211.226,1382.37 224.73,1382.37 "/>
<polyline clip-path="url(#clip050)" style="stroke:#000000; stroke-linecap:round; stroke-linejoin:round; stroke-width:4; stroke-opacity:1; fill:none" points="211.226,1124.34 224.73,1124.34 "/>
<polyline clip-path="url(#clip050)" style="stroke:#000000; stroke-linecap:round; stroke-linejoin:round; stroke-width:4; stroke-opacity:1; fill:none" points="211.226,866.311 224.73,866.311 "/>
<polyline clip-path="url(#clip050)" style="stroke:#000000; stroke-linecap:round; stroke-linejoin:round; stroke-width:4; stroke-opacity:1; fill:none" points="211.226,608.283 224.73,608.283 "/>
<polyline clip-path="url(#clip050)" style="stroke:#000000; stroke-linecap:round; stroke-linejoin:round; stroke-width:4; stroke-opacity:1; fill:none" points="211.226,350.255 224.73,350.255 "/>
<polyline clip-path="url(#clip050)" style="stroke:#000000; stroke-linecap:round; stroke-linejoin:round; stroke-width:4; stroke-opacity:1; fill:none" points="1741.55,1382.37 1728.04,1382.37 "/>
<polyline clip-path="url(#clip050)" style="stroke:#000000; stroke-linecap:round; stroke-linejoin:round; stroke-width:4; stroke-opacity:1; fill:none" points="1741.55,1124.34 1728.04,1124.34 "/>
<polyline clip-path="url(#clip050)" style="stroke:#000000; stroke-linecap:round; stroke-linejoin:round; stroke-width:4; stroke-opacity:1; fill:none" points="1741.55,866.311 1728.04,866.311 "/>
<polyline clip-path="url(#clip050)" style="stroke:#000000; stroke-linecap:round; stroke-linejoin:round; stroke-width:4; stroke-opacity:1; fill:none" points="1741.55,608.283 1728.04,608.283 "/>
<polyline clip-path="url(#clip050)" style="stroke:#000000; stroke-linecap:round; stroke-linejoin:round; stroke-width:4; stroke-opacity:1; fill:none" points="1741.55,350.255 1728.04,350.255 "/>
<path clip-path="url(#clip050)" d="M118.051 1368.17 Q114.44 1368.17 112.611 1371.73 Q110.805 1375.27 110.805 1382.4 Q110.805 1389.51 112.611 1393.07 Q114.44 1396.61 118.051 1396.61 Q121.685 1396.61 123.49 1393.07 Q125.319 1389.51 125.319 1382.4 Q125.319 1375.27 123.49 1371.73 Q121.685 1368.17 118.051 1368.17 M118.051 1364.46 Q123.861 1364.46 126.916 1369.07 Q129.995 1373.65 129.995 1382.4 Q129.995 1391.13 126.916 1395.73 Q123.861 1400.32 118.051 1400.32 Q112.24 1400.32 109.162 1395.73 Q106.106 1391.13 106.106 1382.4 Q106.106 1373.65 109.162 1369.07 Q112.24 1364.46 118.051 1364.46 Z" fill="#000000" fill-rule="nonzero" fill-opacity="1" /><path clip-path="url(#clip050)" d="M138.213 1393.77 L143.097 1393.77 L143.097 1399.65 L138.213 1399.65 L138.213 1393.77 Z" fill="#000000" fill-rule="nonzero" fill-opacity="1" /><path clip-path="url(#clip050)" d="M163.282 1368.17 Q159.671 1368.17 157.842 1371.73 Q156.037 1375.27 156.037 1382.4 Q156.037 1389.51 157.842 1393.07 Q159.671 1396.61 163.282 1396.61 Q166.916 1396.61 168.722 1393.07 Q170.55 1389.51 170.55 1382.4 Q170.55 1375.27 168.722 1371.73 Q166.916 1368.17 163.282 1368.17 M163.282 1364.46 Q169.092 1364.46 172.148 1369.07 Q175.226 1373.65 175.226 1382.4 Q175.226 1391.13 172.148 1395.73 Q169.092 1400.32 163.282 1400.32 Q157.472 1400.32 154.393 1395.73 Q151.338 1391.13 151.338 1382.4 Q151.338 1373.65 154.393 1369.07 Q157.472 1364.46 163.282 1364.46 Z" fill="#000000" fill-rule="nonzero" fill-opacity="1" /><path clip-path="url(#clip050)" d="M119.277 1110.14 Q115.666 1110.14 113.838 1113.7 Q112.032 1117.24 112.032 1124.37 Q112.032 1131.48 113.838 1135.04 Q115.666 1138.59 119.277 1138.59 Q122.912 1138.59 124.717 1135.04 Q126.546 1131.48 126.546 1124.37 Q126.546 1117.24 124.717 1113.7 Q122.912 1110.14 119.277 1110.14 M119.277 1106.43 Q125.088 1106.43 128.143 1111.04 Q131.222 1115.62 131.222 1124.37 Q131.222 1133.1 128.143 1137.71 Q125.088 1142.29 119.277 1142.29 Q113.467 1142.29 110.389 1137.71 Q107.333 1133.1 107.333 1124.37 Q107.333 1115.62 110.389 1111.04 Q113.467 1106.43 119.277 1106.43 Z" fill="#000000" fill-rule="nonzero" fill-opacity="1" /><path clip-path="url(#clip050)" d="M139.439 1135.74 L144.324 1135.74 L144.324 1141.62 L139.439 1141.62 L139.439 1135.74 Z" fill="#000000" fill-rule="nonzero" fill-opacity="1" /><path clip-path="url(#clip050)" d="M155.319 1137.68 L162.958 1137.68 L162.958 1111.32 L154.648 1112.98 L154.648 1108.73 L162.912 1107.06 L167.587 1107.06 L167.587 1137.68 L175.226 1137.68 L175.226 1141.62 L155.319 1141.62 L155.319 1137.68 Z" fill="#000000" fill-rule="nonzero" fill-opacity="1" /><path clip-path="url(#clip050)" d="M119.648 852.109 Q116.037 852.109 114.208 855.674 Q112.403 859.216 112.403 866.346 Q112.403 873.452 114.208 877.017 Q116.037 880.558 119.648 880.558 Q123.282 880.558 125.088 877.017 Q126.916 873.452 126.916 866.346 Q126.916 859.216 125.088 855.674 Q123.282 852.109 119.648 852.109 M119.648 848.406 Q125.458 848.406 128.514 853.012 Q131.592 857.596 131.592 866.346 Q131.592 875.072 128.514 879.679 Q125.458 884.262 119.648 884.262 Q113.838 884.262 110.759 879.679 Q107.703 875.072 107.703 866.346 Q107.703 857.596 110.759 853.012 Q113.838 848.406 119.648 848.406 Z" fill="#000000" fill-rule="nonzero" fill-opacity="1" /><path clip-path="url(#clip050)" d="M139.81 877.711 L144.694 877.711 L144.694 883.591 L139.81 883.591 L139.81 877.711 Z" fill="#000000" fill-rule="nonzero" fill-opacity="1" /><path clip-path="url(#clip050)" d="M158.907 879.656 L175.226 879.656 L175.226 883.591 L153.282 883.591 L153.282 879.656 Q155.944 876.901 160.527 872.271 Q165.134 867.619 166.314 866.276 Q168.56 863.753 169.439 862.017 Q170.342 860.258 170.342 858.568 Q170.342 855.813 168.398 854.077 Q166.476 852.341 163.374 852.341 Q161.175 852.341 158.722 853.105 Q156.291 853.869 153.513 855.42 L153.513 850.697 Q156.337 849.563 158.791 848.984 Q161.245 848.406 163.282 848.406 Q168.652 848.406 171.847 851.091 Q175.041 853.776 175.041 858.267 Q175.041 860.396 174.231 862.318 Q173.444 864.216 171.337 866.808 Q170.759 867.48 167.657 870.697 Q164.555 873.892 158.907 879.656 Z" fill="#000000" fill-rule="nonzero" fill-opacity="1" /><path clip-path="url(#clip050)" d="M118.699 594.082 Q115.088 594.082 113.259 597.646 Q111.453 601.188 111.453 608.318 Q111.453 615.424 113.259 618.989 Q115.088 622.531 118.699 622.531 Q122.333 622.531 124.139 618.989 Q125.967 615.424 125.967 608.318 Q125.967 601.188 124.139 597.646 Q122.333 594.082 118.699 594.082 M118.699 590.378 Q124.509 590.378 127.564 594.984 Q130.643 599.568 130.643 608.318 Q130.643 617.044 127.564 621.651 Q124.509 626.234 118.699 626.234 Q112.889 626.234 109.81 621.651 Q106.754 617.044 106.754 608.318 Q106.754 599.568 109.81 594.984 Q112.889 590.378 118.699 590.378 Z" fill="#000000" fill-rule="nonzero" fill-opacity="1" /><path clip-path="url(#clip050)" d="M138.861 619.683 L143.745 619.683 L143.745 625.563 L138.861 625.563 L138.861 619.683 Z" fill="#000000" fill-rule="nonzero" fill-opacity="1" /><path clip-path="url(#clip050)" d="M168.097 606.929 Q171.453 607.646 173.328 609.915 Q175.226 612.183 175.226 615.517 Q175.226 620.632 171.708 623.433 Q168.189 626.234 161.708 626.234 Q159.532 626.234 157.217 625.794 Q154.925 625.378 152.472 624.521 L152.472 620.007 Q154.416 621.142 156.731 621.72 Q159.046 622.299 161.569 622.299 Q165.967 622.299 168.259 620.563 Q170.574 618.827 170.574 615.517 Q170.574 612.461 168.421 610.748 Q166.291 609.012 162.472 609.012 L158.444 609.012 L158.444 605.17 L162.657 605.17 Q166.106 605.17 167.935 603.804 Q169.763 602.415 169.763 599.822 Q169.763 597.16 167.865 595.748 Q165.99 594.313 162.472 594.313 Q160.55 594.313 158.351 594.73 Q156.152 595.146 153.513 596.026 L153.513 591.859 Q156.175 591.119 158.49 590.748 Q160.828 590.378 162.888 590.378 Q168.212 590.378 171.314 592.808 Q174.416 595.216 174.416 599.336 Q174.416 602.207 172.773 604.197 Q171.129 606.165 168.097 606.929 Z" fill="#000000" fill-rule="nonzero" fill-opacity="1" /><path clip-path="url(#clip050)" d="M117.565 336.054 Q113.953 336.054 112.125 339.619 Q110.319 343.16 110.319 350.29 Q110.319 357.396 112.125 360.961 Q113.953 364.503 117.565 364.503 Q121.199 364.503 123.004 360.961 Q124.833 357.396 124.833 350.29 Q124.833 343.16 123.004 339.619 Q121.199 336.054 117.565 336.054 M117.565 332.35 Q123.375 332.35 126.43 336.957 Q129.509 341.54 129.509 350.29 Q129.509 359.017 126.43 363.623 Q123.375 368.206 117.565 368.206 Q111.754 368.206 108.676 363.623 Q105.62 359.017 105.62 350.29 Q105.62 341.54 108.676 336.957 Q111.754 332.35 117.565 332.35 Z" fill="#000000" fill-rule="nonzero" fill-opacity="1" /><path clip-path="url(#clip050)" d="M137.726 361.655 L142.611 361.655 L142.611 367.535 L137.726 367.535 L137.726 361.655 Z" fill="#000000" fill-rule="nonzero" fill-opacity="1" /><path clip-path="url(#clip050)" d="M165.643 337.049 L153.837 355.498 L165.643 355.498 L165.643 337.049 M164.416 332.975 L170.296 332.975 L170.296 355.498 L175.226 355.498 L175.226 359.387 L170.296 359.387 L170.296 367.535 L165.643 367.535 L165.643 359.387 L150.041 359.387 L150.041 354.873 L164.416 332.975 Z" fill="#000000" fill-rule="nonzero" fill-opacity="1" /><path clip-path="url(#clip050)" d="M24.2584 821.77 L53.5812 832.447 L53.5812 811.067 L24.2584 821.77 M57.9562 839.583 L19.0762 824.739 L19.0762 818.776 L57.9562 803.958 L57.9562 839.583 Z" fill="#000000" fill-rule="nonzero" fill-opacity="1" /><path clip-path="url(#clip050)" d="M17.4355 781.536 L17.4355 776.745 L57.9562 776.745 L57.9562 781.536 L17.4355 781.536 Z" fill="#000000" fill-rule="nonzero" fill-opacity="1" /><path clip-path="url(#clip050)" d="M32.149 755.417 Q32.149 759.271 35.1698 761.51 Q38.1646 763.75 43.3989 763.75 Q48.6333 763.75 51.6541 761.536 Q54.6489 759.297 54.6489 755.417 Q54.6489 751.588 51.6281 749.349 Q48.6072 747.109 43.3989 747.109 Q38.2167 747.109 35.1959 749.349 Q32.149 751.588 32.149 755.417 M28.0865 755.417 Q28.0865 749.167 32.149 745.599 Q36.2115 742.031 43.3989 742.031 Q50.5604 742.031 54.6489 745.599 Q58.7114 749.167 58.7114 755.417 Q58.7114 761.693 54.6489 765.26 Q50.5604 768.802 43.3989 768.802 Q36.2115 768.802 32.149 765.26 Q28.0865 761.693 28.0865 755.417 Z" fill="#000000" fill-rule="nonzero" fill-opacity="1" /><path clip-path="url(#clip050)" d="M29.649 715.495 L34.1802 715.495 Q33.1386 717.526 32.6178 719.714 Q32.0969 721.901 32.0969 724.245 Q32.0969 727.812 33.1907 729.609 Q34.2844 731.38 36.4719 731.38 Q38.1386 731.38 39.1021 730.104 Q40.0396 728.828 40.899 724.974 L41.2635 723.333 Q42.3573 718.229 44.3625 716.094 Q46.3416 713.932 49.9093 713.932 Q53.9718 713.932 56.3416 717.162 Q58.7114 720.365 58.7114 725.99 Q58.7114 728.333 58.2426 730.885 Q57.7999 733.411 56.8885 736.224 L51.9406 736.224 Q53.3208 733.568 54.0239 730.99 Q54.701 728.411 54.701 725.885 Q54.701 722.5 53.5551 720.677 Q52.3833 718.854 50.2739 718.854 Q48.3208 718.854 47.2791 720.182 Q46.2375 721.484 45.2739 725.937 L44.8833 727.604 Q43.9458 732.057 42.0187 734.036 Q40.0656 736.016 36.6802 736.016 Q32.5657 736.016 30.3261 733.099 Q28.0865 730.182 28.0865 724.818 Q28.0865 722.161 28.4771 719.818 Q28.8678 717.474 29.649 715.495 Z" fill="#000000" fill-rule="nonzero" fill-opacity="1" /><path clip-path="url(#clip050)" d="M29.649 687.709 L34.1802 687.709 Q33.1386 689.74 32.6178 691.927 Q32.0969 694.115 32.0969 696.458 Q32.0969 700.026 33.1907 701.823 Q34.2844 703.594 36.4719 703.594 Q38.1386 703.594 39.1021 702.318 Q40.0396 701.042 40.899 697.188 L41.2635 695.547 Q42.3573 690.443 44.3625 688.307 Q46.3416 686.146 49.9093 686.146 Q53.9718 686.146 56.3416 689.375 Q58.7114 692.578 58.7114 698.203 Q58.7114 700.547 58.2426 703.099 Q57.7999 705.625 56.8885 708.438 L51.9406 708.438 Q53.3208 705.781 54.0239 703.203 Q54.701 700.625 54.701 698.099 Q54.701 694.714 53.5551 692.891 Q52.3833 691.068 50.2739 691.068 Q48.3208 691.068 47.2791 692.396 Q46.2375 693.698 45.2739 698.151 L44.8833 699.818 Q43.9458 704.271 42.0187 706.25 Q40.0656 708.229 36.6802 708.229 Q32.5657 708.229 30.3261 705.313 Q28.0865 702.396 28.0865 697.031 Q28.0865 694.375 28.4771 692.031 Q28.8678 689.688 29.649 687.709 Z" fill="#000000" fill-rule="nonzero" fill-opacity="1" /><path clip-path="url(#clip050)" d="M399.25 13.4432 L399.25 29.6758 L406.599 29.6758 Q410.679 29.6758 412.907 27.5635 Q415.135 25.4513 415.135 21.545 Q415.135 17.6677 412.907 15.5555 Q410.679 13.4432 406.599 13.4432 L399.25 13.4432 M393.405 8.64 L406.599 8.64 Q413.862 8.64 417.565 11.9386 Q421.298 15.2083 421.298 21.545 Q421.298 27.9397 417.565 31.2093 Q413.862 34.479 406.599 34.479 L399.25 34.479 L399.25 51.84 L393.405 51.84 L393.405 8.64 Z" fill="#000000" fill-rule="nonzero" fill-opacity="1" /><path clip-path="url(#clip050)" d="M429.139 8.64 L434.984 8.64 L434.984 46.921 L456.02 46.921 L456.02 51.84 L429.139 51.84 L429.139 8.64 Z" fill="#000000" fill-rule="nonzero" fill-opacity="1" /><path clip-path="url(#clip050)" d="M477.953 14.3981 L470.025 35.8968 L485.91 35.8968 L477.953 14.3981 M474.654 8.64 L481.28 8.64 L497.744 51.84 L491.668 51.84 L487.733 40.7579 L468.26 40.7579 L464.324 51.84 L458.161 51.84 L474.654 8.64 Z" fill="#000000" fill-rule="nonzero" fill-opacity="1" /><path clip-path="url(#clip050)" d="M555.238 11.9675 L555.238 18.1307 Q552.287 15.3819 548.93 14.0219 Q545.603 12.662 541.841 12.662 Q534.434 12.662 530.499 17.2048 Q526.564 21.7186 526.564 30.2834 Q526.564 38.8192 530.499 43.362 Q534.434 47.8759 541.841 47.8759 Q545.603 47.8759 548.93 46.516 Q552.287 45.156 555.238 42.4072 L555.238 48.5125 Q552.171 50.5958 548.728 51.6375 Q545.314 52.6791 541.494 52.6791 Q531.685 52.6791 526.043 46.6896 Q520.401 40.6711 520.401 30.2834 Q520.401 19.8668 526.043 13.8772 Q531.685 7.85875 541.494 7.85875 Q545.371 7.85875 548.786 8.90042 Q552.229 9.91314 555.238 11.9675 Z" fill="#000000" fill-rule="nonzero" fill-opacity="1" /><path clip-path="url(#clip050)" d="M588.658 61.6779 L588.658 65.8156 L557.871 65.8156 L557.871 61.6779 L588.658 61.6779 Z" fill="#000000" fill-rule="nonzero" fill-opacity="1" /><path clip-path="url(#clip050)" d="M616.986 20.677 L616.986 25.6538 Q614.729 24.4096 612.443 23.802 Q610.186 23.1654 607.871 23.1654 Q602.692 23.1654 599.827 26.464 Q596.963 29.7336 596.963 35.6653 Q596.963 41.597 599.827 44.8956 Q602.692 48.1653 607.871 48.1653 Q610.186 48.1653 612.443 47.5576 Q614.729 46.921 616.986 45.6768 L616.986 50.5958 Q614.758 51.6375 612.356 52.1583 Q609.983 52.6791 607.292 52.6791 Q599.972 52.6791 595.661 48.0784 Q591.349 43.4778 591.349 35.6653 Q591.349 27.7371 595.689 23.1943 Q600.059 18.6515 607.64 18.6515 Q610.099 18.6515 612.443 19.1724 Q614.787 19.6642 616.986 20.677 Z" fill="#000000" fill-rule="nonzero" fill-opacity="1" /><path clip-path="url(#clip050)" d="M639.497 12.4884 Q634.983 12.4884 632.697 16.9444 Q630.44 21.3714 630.44 30.2834 Q630.44 39.1665 632.697 43.6225 Q634.983 48.0495 639.497 48.0495 Q644.04 48.0495 646.297 43.6225 Q648.583 39.1665 648.583 30.2834 Q648.583 21.3714 646.297 16.9444 Q644.04 12.4884 639.497 12.4884 M639.497 7.85875 Q646.76 7.85875 650.579 13.6168 Q654.428 19.346 654.428 30.2834 Q654.428 41.1919 650.579 46.95 Q646.76 52.6791 639.497 52.6791 Q632.234 52.6791 628.386 46.95 Q624.567 41.1919 624.567 30.2834 Q624.567 19.346 628.386 13.6168 Q632.234 7.85875 639.497 7.85875 Z" fill="#000000" fill-rule="nonzero" fill-opacity="1" /><path clip-path="url(#clip050)" d="M680.093 33.2348 L695.689 33.2348 L695.689 37.9801 L680.093 37.9801 L680.093 33.2348 Z" fill="#000000" fill-rule="nonzero" fill-opacity="1" /><path clip-path="url(#clip050)" d="M728.154 46.9789 L728.154 64.1663 L722.801 64.1663 L722.801 19.4328 L728.154 19.4328 L728.154 24.3517 Q729.832 21.4582 732.379 20.0693 Q734.954 18.6515 738.513 18.6515 Q744.416 18.6515 748.09 23.339 Q751.794 28.0265 751.794 35.6653 Q751.794 43.3042 748.09 47.9916 Q744.416 52.6791 738.513 52.6791 Q734.954 52.6791 732.379 51.2902 Q729.832 49.8724 728.154 46.9789 M746.267 35.6653 Q746.267 29.7915 743.837 26.464 Q741.435 23.1075 737.211 23.1075 Q732.986 23.1075 730.556 26.464 Q728.154 29.7915 728.154 35.6653 Q728.154 41.5391 730.556 44.8956 Q732.986 48.2231 737.211 48.2231 Q741.435 48.2231 743.837 44.8956 Q746.267 41.5391 746.267 35.6653 Z" fill="#000000" fill-rule="nonzero" fill-opacity="1" /><path clip-path="url(#clip050)" d="M775.347 35.5496 Q768.895 35.5496 766.406 37.0253 Q763.918 38.501 763.918 42.06 Q763.918 44.8956 765.77 46.5738 Q767.65 48.2231 770.862 48.2231 Q775.289 48.2231 777.951 45.0981 Q780.642 41.9442 780.642 36.7359 L780.642 35.5496 L775.347 35.5496 M785.966 33.3505 L785.966 51.84 L780.642 51.84 L780.642 46.921 Q778.819 49.8724 776.099 51.2902 Q773.379 52.6791 769.444 52.6791 Q764.468 52.6791 761.516 49.9014 Q758.594 47.0947 758.594 42.4072 Q758.594 36.9385 762.24 34.1607 Q765.914 31.3829 773.177 31.3829 L780.642 31.3829 L780.642 30.8621 Q780.642 27.1874 778.212 25.1908 Q775.81 23.1654 771.441 23.1654 Q768.663 23.1654 766.03 23.8309 Q763.397 24.4964 760.966 25.8274 L760.966 20.9085 Q763.889 19.78 766.638 19.2302 Q769.386 18.6515 771.991 18.6515 Q779.022 18.6515 782.494 22.2973 Q785.966 25.9431 785.966 33.3505 Z" fill="#000000" fill-rule="nonzero" fill-opacity="1" /><path clip-path="url(#clip050)" d="M802.199 10.2314 L802.199 19.4328 L813.165 19.4328 L813.165 23.5705 L802.199 23.5705 L802.199 41.163 Q802.199 45.1271 803.269 46.2555 Q804.369 47.384 807.696 47.384 L813.165 47.384 L813.165 51.84 L807.696 51.84 Q801.533 51.84 799.19 49.5541 Q796.846 47.2393 796.846 41.163 L796.846 23.5705 L792.94 23.5705 L792.94 19.4328 L796.846 19.4328 L796.846 10.2314 L802.199 10.2314 Z" fill="#000000" fill-rule="nonzero" fill-opacity="1" /><path clip-path="url(#clip050)" d="M820.167 19.4328 L825.491 19.4328 L825.491 51.84 L820.167 51.84 L820.167 19.4328 M820.167 6.81709 L825.491 6.81709 L825.491 13.559 L820.167 13.559 L820.167 6.81709 Z" fill="#000000" fill-rule="nonzero" fill-opacity="1" /><path clip-path="url(#clip050)" d="M864.351 34.3054 L864.351 36.9095 L839.872 36.9095 Q840.219 42.4072 843.171 45.3007 Q846.151 48.1653 851.446 48.1653 Q854.513 48.1653 857.378 47.4129 Q860.271 46.6606 863.107 45.156 L863.107 50.1907 Q860.242 51.406 857.233 52.0425 Q854.224 52.6791 851.128 52.6791 Q843.373 52.6791 838.831 48.1653 Q834.317 43.6514 834.317 35.9547 Q834.317 27.9975 838.599 23.339 Q842.91 18.6515 850.202 18.6515 Q856.741 18.6515 860.532 22.876 Q864.351 27.0716 864.351 34.3054 M859.027 32.7429 Q858.969 28.3737 856.568 25.7695 Q854.195 23.1654 850.26 23.1654 Q845.804 23.1654 843.113 25.6827 Q840.451 28.2001 840.046 32.7718 L859.027 32.7429 Z" fill="#000000" fill-rule="nonzero" fill-opacity="1" /><path clip-path="url(#clip050)" d="M900.028 32.2799 L900.028 51.84 L894.704 51.84 L894.704 32.4535 Q894.704 27.8529 892.91 25.567 Q891.116 23.2811 887.528 23.2811 Q883.217 23.2811 880.728 26.03 Q878.24 28.7788 878.24 33.5241 L878.24 51.84 L872.887 51.84 L872.887 19.4328 L878.24 19.4328 L878.24 24.4675 Q880.15 21.545 882.725 20.0983 Q885.329 18.6515 888.715 18.6515 Q894.299 18.6515 897.164 22.1237 Q900.028 25.567 900.028 32.2799 Z" fill="#000000" fill-rule="nonzero" fill-opacity="1" /><path clip-path="url(#clip050)" d="M915.913 10.2314 L915.913 19.4328 L926.88 19.4328 L926.88 23.5705 L915.913 23.5705 L915.913 41.163 Q915.913 45.1271 916.984 46.2555 Q918.084 47.384 921.411 47.384 L926.88 47.384 L926.88 51.84 L921.411 51.84 Q915.248 51.84 912.904 49.5541 Q910.56 47.2393 910.56 41.163 L910.56 23.5705 L906.654 23.5705 L906.654 19.4328 L910.56 19.4328 L910.56 10.2314 L915.913 10.2314 Z" fill="#000000" fill-rule="nonzero" fill-opacity="1" /><path clip-path="url(#clip050)" d="M979.657 32.2799 L979.657 51.84 L974.333 51.84 L974.333 32.4535 Q974.333 27.8529 972.539 25.567 Q970.745 23.2811 967.157 23.2811 Q962.846 23.2811 960.358 26.03 Q957.869 28.7788 957.869 33.5241 L957.869 51.84 L952.516 51.84 L952.516 19.4328 L957.869 19.4328 L957.869 24.4675 Q959.779 21.545 962.354 20.0983 Q964.958 18.6515 968.344 18.6515 Q973.928 18.6515 976.793 22.1237 Q979.657 25.567 979.657 32.2799 Z" fill="#000000" fill-rule="nonzero" fill-opacity="1" /><path clip-path="url(#clip050)" d="M989.553 8.64 L1017.33 8.64 L1017.33 11.1284 L1001.65 51.84 L995.543 51.84 L1010.3 13.559 L989.553 13.559 L989.553 8.64 Z" fill="#000000" fill-rule="nonzero" fill-opacity="1" /><path clip-path="url(#clip050)" d="M1046.44 28.5473 Q1050.63 29.4443 1052.98 32.2799 Q1055.35 35.1156 1055.35 39.2822 Q1055.35 45.6768 1050.95 49.178 Q1046.56 52.6791 1038.45 52.6791 Q1035.73 52.6791 1032.84 52.1294 Q1029.98 51.6085 1026.91 50.5379 L1026.91 44.8956 Q1029.34 46.3134 1032.23 47.0368 Q1035.13 47.7602 1038.28 47.7602 Q1043.78 47.7602 1046.64 45.59 Q1049.54 43.4199 1049.54 39.2822 Q1049.54 35.4628 1046.84 33.3216 Q1044.18 31.1515 1039.41 31.1515 L1034.37 31.1515 L1034.37 26.3482 L1039.64 26.3482 Q1043.95 26.3482 1046.24 24.6411 Q1048.52 22.905 1048.52 19.6642 Q1048.52 16.3367 1046.15 14.5717 Q1043.81 12.7777 1039.41 12.7777 Q1037.01 12.7777 1034.26 13.2985 Q1031.51 13.8194 1028.21 14.9189 L1028.21 9.7106 Q1031.54 8.78468 1034.43 8.32171 Q1037.35 7.85875 1039.93 7.85875 Q1046.58 7.85875 1050.46 10.8969 Q1054.34 13.9062 1054.34 19.0566 Q1054.34 22.6446 1052.28 25.133 Q1050.23 27.5924 1046.44 28.5473 Z" fill="#000000" fill-rule="nonzero" fill-opacity="1" /><path clip-path="url(#clip050)" d="M1079.66 27.9107 Q1075.72 27.9107 1073.41 30.6017 Q1071.12 33.2926 1071.12 37.9801 Q1071.12 42.6387 1073.41 45.3586 Q1075.72 48.0495 1079.66 48.0495 Q1083.59 48.0495 1085.88 45.3586 Q1088.19 42.6387 1088.19 37.9801 Q1088.19 33.2926 1085.88 30.6017 Q1083.59 27.9107 1079.66 27.9107 M1091.26 9.59486 L1091.26 14.9189 Q1089.06 13.8772 1086.8 13.3275 Q1084.58 12.7777 1082.38 12.7777 Q1076.59 12.7777 1073.52 16.6839 Q1070.48 20.5902 1070.05 28.4894 Q1071.76 25.9721 1074.33 24.6411 Q1076.91 23.2811 1080 23.2811 Q1086.51 23.2811 1090.28 27.2452 Q1094.07 31.1804 1094.07 37.9801 Q1094.07 44.6352 1090.13 48.6571 Q1086.2 52.6791 1079.66 52.6791 Q1072.16 52.6791 1068.2 46.95 Q1064.23 41.1919 1064.23 30.2834 Q1064.23 20.0404 1069.1 13.964 Q1073.96 7.85875 1082.15 7.85875 Q1084.34 7.85875 1086.57 8.29278 Q1088.83 8.72681 1091.26 9.59486 Z" fill="#000000" fill-rule="nonzero" fill-opacity="1" /><path clip-path="url(#clip050)" d="M1129.08 6.55668 L1129.08 65.8156 L1124.16 65.8156 L1124.16 6.55668 L1129.08 6.55668 Z" fill="#000000" fill-rule="nonzero" fill-opacity="1" /><path clip-path="url(#clip050)" d="M1160.47 39.0507 L1160.47 19.4328 L1165.8 19.4328 L1165.8 38.8482 Q1165.8 43.4488 1167.59 45.7636 Q1169.38 48.0495 1172.97 48.0495 Q1177.28 48.0495 1179.77 45.3007 Q1182.29 42.5519 1182.29 37.8065 L1182.29 19.4328 L1187.61 19.4328 L1187.61 51.84 L1182.29 51.84 L1182.29 46.8632 Q1180.35 49.8145 1177.78 51.2613 Q1175.23 52.6791 1171.84 52.6791 Q1166.26 52.6791 1163.37 49.2069 Q1160.47 45.7347 1160.47 39.0507 M1173.87 18.6515 L1173.87 18.6515 Z" fill="#000000" fill-rule="nonzero" fill-opacity="1" /><path clip-path="url(#clip050)" d="M1225.52 32.2799 L1225.52 51.84 L1220.19 51.84 L1220.19 32.4535 Q1220.19 27.8529 1218.4 25.567 Q1216.61 23.2811 1213.02 23.2811 Q1208.71 23.2811 1206.22 26.03 Q1203.73 28.7788 1203.73 33.5241 L1203.73 51.84 L1198.38 51.84 L1198.38 19.4328 L1203.73 19.4328 L1203.73 24.4675 Q1205.64 21.545 1208.22 20.0983 Q1210.82 18.6515 1214.2 18.6515 Q1219.79 18.6515 1222.65 22.1237 Q1225.52 25.567 1225.52 32.2799 Z" fill="#000000" fill-rule="nonzero" fill-opacity="1" /><path clip-path="url(#clip050)" d="M1236.14 19.4328 L1241.46 19.4328 L1241.46 51.84 L1236.14 51.84 L1236.14 19.4328 M1236.14 6.81709 L1241.46 6.81709 L1241.46 13.559 L1236.14 13.559 L1236.14 6.81709 Z" fill="#000000" fill-rule="nonzero" fill-opacity="1" /><path clip-path="url(#clip050)" d="M1273.93 24.3517 L1273.93 6.81709 L1279.25 6.81709 L1279.25 51.84 L1273.93 51.84 L1273.93 46.9789 Q1272.25 49.8724 1269.67 51.2902 Q1267.13 52.6791 1263.54 52.6791 Q1257.67 52.6791 1253.96 47.9916 Q1250.29 43.3042 1250.29 35.6653 Q1250.29 28.0265 1253.96 23.339 Q1257.67 18.6515 1263.54 18.6515 Q1267.13 18.6515 1269.67 20.0693 Q1272.25 21.4582 1273.93 24.3517 M1255.78 35.6653 Q1255.78 41.5391 1258.19 44.8956 Q1260.62 48.2231 1264.84 48.2231 Q1269.07 48.2231 1271.5 44.8956 Q1273.93 41.5391 1273.93 35.6653 Q1273.93 29.7915 1271.5 26.464 Q1269.07 23.1075 1264.84 23.1075 Q1260.62 23.1075 1258.19 26.464 Q1255.78 29.7915 1255.78 35.6653 Z" fill="#000000" fill-rule="nonzero" fill-opacity="1" /><path clip-path="url(#clip050)" d="M1317.94 34.3054 L1317.94 36.9095 L1293.46 36.9095 Q1293.8 42.4072 1296.76 45.3007 Q1299.74 48.1653 1305.03 48.1653 Q1308.1 48.1653 1310.96 47.4129 Q1313.86 46.6606 1316.69 45.156 L1316.69 50.1907 Q1313.83 51.406 1310.82 52.0425 Q1307.81 52.6791 1304.71 52.6791 Q1296.96 52.6791 1292.42 48.1653 Q1287.9 43.6514 1287.9 35.9547 Q1287.9 27.9975 1292.18 23.339 Q1296.5 18.6515 1303.79 18.6515 Q1310.33 18.6515 1314.12 22.876 Q1317.94 27.0716 1317.94 34.3054 M1312.61 32.7429 Q1312.55 28.3737 1310.15 25.7695 Q1307.78 23.1654 1303.85 23.1654 Q1299.39 23.1654 1296.7 25.6827 Q1294.04 28.2001 1293.63 32.7718 L1312.61 32.7429 Z" fill="#000000" fill-rule="nonzero" fill-opacity="1" /><path clip-path="url(#clip050)" d="M1353.61 32.2799 L1353.61 51.84 L1348.29 51.84 L1348.29 32.4535 Q1348.29 27.8529 1346.5 25.567 Q1344.7 23.2811 1341.11 23.2811 Q1336.8 23.2811 1334.31 26.03 Q1331.83 28.7788 1331.83 33.5241 L1331.83 51.84 L1326.47 51.84 L1326.47 19.4328 L1331.83 19.4328 L1331.83 24.4675 Q1333.74 21.545 1336.31 20.0983 Q1338.91 18.6515 1342.3 18.6515 Q1347.88 18.6515 1350.75 22.1237 Q1353.61 25.567 1353.61 32.2799 Z" fill="#000000" fill-rule="nonzero" fill-opacity="1" /><path clip-path="url(#clip050)" d="M1369.5 10.2314 L1369.5 19.4328 L1380.47 19.4328 L1380.47 23.5705 L1369.5 23.5705 L1369.5 41.163 Q1369.5 45.1271 1370.57 46.2555 Q1371.67 47.384 1375 47.384 L1380.47 47.384 L1380.47 51.84 L1375 51.84 Q1368.83 51.84 1366.49 49.5541 Q1364.15 47.2393 1364.15 41.163 L1364.15 23.5705 L1360.24 23.5705 L1360.24 19.4328 L1364.15 19.4328 L1364.15 10.2314 L1369.5 10.2314 Z" fill="#000000" fill-rule="nonzero" fill-opacity="1" /><path clip-path="url(#clip050)" d="M1387.47 19.4328 L1392.79 19.4328 L1392.79 51.84 L1387.47 51.84 L1387.47 19.4328 M1387.47 6.81709 L1392.79 6.81709 L1392.79 13.559 L1387.47 13.559 L1387.47 6.81709 Z" fill="#000000" fill-rule="nonzero" fill-opacity="1" /><path clip-path="url(#clip050)" d="M1420.34 6.81709 L1420.34 11.2442 L1415.25 11.2442 Q1412.38 11.2442 1411.25 12.4016 Q1410.15 13.559 1410.15 16.5682 L1410.15 19.4328 L1418.92 19.4328 L1418.92 23.5705 L1410.15 23.5705 L1410.15 51.84 L1404.8 51.84 L1404.8 23.5705 L1399.71 23.5705 L1399.71 19.4328 L1404.8 19.4328 L1404.8 17.1758 Q1404.8 11.765 1407.32 9.30551 Q1409.83 6.81709 1415.3 6.81709 L1420.34 6.81709 Z" fill="#000000" fill-rule="nonzero" fill-opacity="1" /><path clip-path="url(#clip050)" d="M1424.79 19.4328 L1430.12 19.4328 L1430.12 51.84 L1424.79 51.84 L1424.79 19.4328 M1424.79 6.81709 L1430.12 6.81709 L1430.12 13.559 L1424.79 13.559 L1424.79 6.81709 Z" fill="#000000" fill-rule="nonzero" fill-opacity="1" /><path clip-path="url(#clip050)" d="M1455.99 35.5496 Q1449.53 35.5496 1447.04 37.0253 Q1444.56 38.501 1444.56 42.06 Q1444.56 44.8956 1446.41 46.5738 Q1448.29 48.2231 1451.5 48.2231 Q1455.93 48.2231 1458.59 45.0981 Q1461.28 41.9442 1461.28 36.7359 L1461.28 35.5496 L1455.99 35.5496 M1466.6 33.3505 L1466.6 51.84 L1461.28 51.84 L1461.28 46.921 Q1459.46 49.8724 1456.74 51.2902 Q1454.02 52.6791 1450.08 52.6791 Q1445.11 52.6791 1442.15 49.9014 Q1439.23 47.0947 1439.23 42.4072 Q1439.23 36.9385 1442.88 34.1607 Q1446.55 31.3829 1453.82 31.3829 L1461.28 31.3829 L1461.28 30.8621 Q1461.28 27.1874 1458.85 25.1908 Q1456.45 23.1654 1452.08 23.1654 Q1449.3 23.1654 1446.67 23.8309 Q1444.04 24.4964 1441.61 25.8274 L1441.61 20.9085 Q1444.53 19.78 1447.28 19.2302 Q1450.03 18.6515 1452.63 18.6515 Q1459.66 18.6515 1463.13 22.2973 Q1466.6 25.9431 1466.6 33.3505 Z" fill="#000000" fill-rule="nonzero" fill-opacity="1" /><path clip-path="url(#clip050)" d="M1500.84 35.6653 Q1500.84 29.7915 1498.4 26.464 Q1496 23.1075 1491.78 23.1075 Q1487.55 23.1075 1485.12 26.464 Q1482.72 29.7915 1482.72 35.6653 Q1482.72 41.5391 1485.12 44.8956 Q1487.55 48.2231 1491.78 48.2231 Q1496 48.2231 1498.4 44.8956 Q1500.84 41.5391 1500.84 35.6653 M1482.72 24.3517 Q1484.4 21.4582 1486.95 20.0693 Q1489.52 18.6515 1493.08 18.6515 Q1498.98 18.6515 1502.66 23.339 Q1506.36 28.0265 1506.36 35.6653 Q1506.36 43.3042 1502.66 47.9916 Q1498.98 52.6791 1493.08 52.6791 Q1489.52 52.6791 1486.95 51.2902 Q1484.4 49.8724 1482.72 46.9789 L1482.72 51.84 L1477.37 51.84 L1477.37 6.81709 L1482.72 6.81709 L1482.72 24.3517 Z" fill="#000000" fill-rule="nonzero" fill-opacity="1" /><path clip-path="url(#clip050)" d="M1515.19 6.81709 L1520.51 6.81709 L1520.51 51.84 L1515.19 51.84 L1515.19 6.81709 Z" fill="#000000" fill-rule="nonzero" fill-opacity="1" /><path clip-path="url(#clip050)" d="M1559.37 34.3054 L1559.37 36.9095 L1534.89 36.9095 Q1535.24 42.4072 1538.19 45.3007 Q1541.17 48.1653 1546.47 48.1653 Q1549.53 48.1653 1552.4 47.4129 Q1555.29 46.6606 1558.13 45.156 L1558.13 50.1907 Q1555.26 51.406 1552.25 52.0425 Q1549.24 52.6791 1546.15 52.6791 Q1538.39 52.6791 1533.85 48.1653 Q1529.34 43.6514 1529.34 35.9547 Q1529.34 27.9975 1533.62 23.339 Q1537.93 18.6515 1545.22 18.6515 Q1551.76 18.6515 1555.55 22.876 Q1559.37 27.0716 1559.37 34.3054 M1554.05 32.7429 Q1553.99 28.3737 1551.59 25.7695 Q1549.21 23.1654 1545.28 23.1654 Q1540.82 23.1654 1538.13 25.6827 Q1535.47 28.2001 1535.07 32.7718 L1554.05 32.7429 Z" fill="#000000" fill-rule="nonzero" fill-opacity="1" /><polyline clip-path="url(#clip051)" style="stroke:#4682b4; stroke-linecap:round; stroke-linejoin:round; stroke-width:7.2; stroke-opacity:1; fill:none" points="254.537,1382.37 254.537,1382.37 "/>
<circle clip-path="url(#clip051)" cx="254.537" cy="1382.37" r="10.08" fill="#4682b4" fill-rule="evenodd" fill-opacity="1" stroke="#000000" stroke-opacity="1" stroke-width="3.2"/>
<circle clip-path="url(#clip051)" cx="254.537" cy="1382.37" r="10.08" fill="#4682b4" fill-rule="evenodd" fill-opacity="1" stroke="#000000" stroke-opacity="1" stroke-width="3.2"/>
<polyline clip-path="url(#clip051)" style="stroke:#2e8b57; stroke-linecap:round; stroke-linejoin:round; stroke-width:7.2; stroke-opacity:1; fill:none" points="254.537,1382.37 320.16,1381.99 517.028,1380.1 713.897,1376.08 910.765,1367.53 1107.63,1350.83 1304.5,1328.88 1501.37,1299.63 1698.24,1250.63 "/>
<circle clip-path="url(#clip051)" cx="254.537" cy="1382.37" r="10.08" fill="#2e8b57" fill-rule="evenodd" fill-opacity="1" stroke="#000000" stroke-opacity="1" stroke-width="3.2"/>
<circle clip-path="url(#clip051)" cx="320.16" cy="1381.99" r="10.08" fill="#2e8b57" fill-rule="evenodd" fill-opacity="1" stroke="#000000" stroke-opacity="1" stroke-width="3.2"/>
<circle clip-path="url(#clip051)" cx="517.028" cy="1380.1" r="10.08" fill="#2e8b57" fill-rule="evenodd" fill-opacity="1" stroke="#000000" stroke-opacity="1" stroke-width="3.2"/>
<circle clip-path="url(#clip051)" cx="713.897" cy="1376.08" r="10.08" fill="#2e8b57" fill-rule="evenodd" fill-opacity="1" stroke="#000000" stroke-opacity="1" stroke-width="3.2"/>
<circle clip-path="url(#clip051)" cx="910.765" cy="1367.53" r="10.08" fill="#2e8b57" fill-rule="evenodd" fill-opacity="1" stroke="#000000" stroke-opacity="1" stroke-width="3.2"/>
<circle clip-path="url(#clip051)" cx="1107.63" cy="1350.83" r="10.08" fill="#2e8b57" fill-rule="evenodd" fill-opacity="1" stroke="#000000" stroke-opacity="1" stroke-width="3.2"/>
<circle clip-path="url(#clip051)" cx="1304.5" cy="1328.88" r="10.08" fill="#2e8b57" fill-rule="evenodd" fill-opacity="1" stroke="#000000" stroke-opacity="1" stroke-width="3.2"/>
<circle clip-path="url(#clip051)" cx="1501.37" cy="1299.63" r="10.08" fill="#2e8b57" fill-rule="evenodd" fill-opacity="1" stroke="#000000" stroke-opacity="1" stroke-width="3.2"/>
<circle clip-path="url(#clip051)" cx="1698.24" cy="1250.63" r="10.08" fill="#2e8b57" fill-rule="evenodd" fill-opacity="1" stroke="#000000" stroke-opacity="1" stroke-width="3.2"/>
<polyline clip-path="url(#clip051)" style="stroke:#800080; stroke-linecap:round; stroke-linejoin:round; stroke-width:8; stroke-opacity:1; fill:none" stroke-dasharray="32, 20" points="-1319.1,143.362 3271.87,143.362 "/>
<path clip-path="url(#clip051)" d="M254.537 1362.37 L234.537 1382.37 L254.537 1402.37 L274.537 1382.37 L254.537 1362.37 Z" fill="#000000" fill-rule="evenodd" fill-opacity="1" stroke="none"/>
<path clip-path="url(#clip050)" d="M1812.93 409.17 L2352.76 409.17 L2352.76 149.97 L1812.93 149.97  Z" fill="#ffffff" fill-rule="evenodd" fill-opacity="1"/>
<polyline clip-path="url(#clip050)" style="stroke:#000000; stroke-linecap:round; stroke-linejoin:round; stroke-width:4; stroke-opacity:1; fill:none" points="1812.93,409.17 2352.76,409.17 2352.76,149.97 1812.93,149.97 1812.93,409.17 "/>
<polyline clip-path="url(#clip050)" style="stroke:#4682b4; stroke-linecap:round; stroke-linejoin:round; stroke-width:7.2; stroke-opacity:1; fill:none" points="1836.73,201.81 1979.5,201.81 "/>
<circle clip-path="url(#clip050)" cx="1908.11" cy="201.81" r="19.5491" fill="#4682b4" fill-rule="evenodd" fill-opacity="1" stroke="#000000" stroke-opacity="1" stroke-width="6.20606"/>
<path clip-path="url(#clip050)" d="M2021.72 193.928 L2021.72 197.956 Q2019.91 197.03 2017.97 196.567 Q2016.02 196.104 2013.94 196.104 Q2010.77 196.104 2009.17 197.077 Q2007.6 198.049 2007.6 199.993 Q2007.6 201.475 2008.73 202.331 Q2009.87 203.164 2013.29 203.928 L2014.75 204.252 Q2019.29 205.225 2021.19 207.007 Q2023.11 208.766 2023.11 211.938 Q2023.11 215.549 2020.24 217.655 Q2017.39 219.762 2012.39 219.762 Q2010.31 219.762 2008.04 219.345 Q2005.79 218.951 2003.29 218.141 L2003.29 213.743 Q2005.65 214.97 2007.94 215.595 Q2010.24 216.197 2012.48 216.197 Q2015.49 216.197 2017.11 215.178 Q2018.73 214.137 2018.73 212.262 Q2018.73 210.526 2017.55 209.6 Q2016.39 208.674 2012.44 207.817 L2010.95 207.47 Q2007 206.637 2005.24 204.924 Q2003.48 203.188 2003.48 200.178 Q2003.48 196.521 2006.07 194.53 Q2008.66 192.539 2013.43 192.539 Q2015.79 192.539 2017.87 192.887 Q2019.96 193.234 2021.72 193.928 Z" fill="#000000" fill-rule="nonzero" fill-opacity="1" /><path clip-path="url(#clip050)" d="M2048.55 194.16 L2048.55 198.141 Q2046.74 197.146 2044.91 196.66 Q2043.11 196.151 2041.25 196.151 Q2037.11 196.151 2034.82 198.789 Q2032.53 201.405 2032.53 206.151 Q2032.53 210.896 2034.82 213.535 Q2037.11 216.15 2041.25 216.15 Q2043.11 216.15 2044.91 215.664 Q2046.74 215.155 2048.55 214.16 L2048.55 218.095 Q2046.76 218.928 2044.84 219.345 Q2042.94 219.762 2040.79 219.762 Q2034.93 219.762 2031.49 216.081 Q2028.04 212.4 2028.04 206.151 Q2028.04 199.808 2031.51 196.174 Q2035 192.539 2041.07 192.539 Q2043.04 192.539 2044.91 192.956 Q2046.79 193.35 2048.55 194.16 Z" fill="#000000" fill-rule="nonzero" fill-opacity="1" /><path clip-path="url(#clip050)" d="M2067.74 206.058 Q2062.57 206.058 2060.58 207.238 Q2058.59 208.419 2058.59 211.266 Q2058.59 213.535 2060.07 214.877 Q2061.58 216.197 2064.15 216.197 Q2067.69 216.197 2069.82 213.697 Q2071.97 211.174 2071.97 207.007 L2071.97 206.058 L2067.74 206.058 M2076.23 204.299 L2076.23 219.09 L2071.97 219.09 L2071.97 215.155 Q2070.51 217.516 2068.34 218.65 Q2066.16 219.762 2063.01 219.762 Q2059.03 219.762 2056.67 217.539 Q2054.33 215.294 2054.33 211.544 Q2054.33 207.169 2057.25 204.947 Q2060.19 202.725 2066 202.725 L2071.97 202.725 L2071.97 202.308 Q2071.97 199.368 2070.03 197.771 Q2068.11 196.151 2064.61 196.151 Q2062.39 196.151 2060.28 196.683 Q2058.18 197.215 2056.23 198.28 L2056.23 194.345 Q2058.57 193.442 2060.77 193.002 Q2062.97 192.539 2065.05 192.539 Q2070.68 192.539 2073.45 195.456 Q2076.23 198.373 2076.23 204.299 Z" fill="#000000" fill-rule="nonzero" fill-opacity="1" /><path clip-path="url(#clip050)" d="M2106.55 203.442 L2106.55 219.09 L2102.3 219.09 L2102.3 203.581 Q2102.3 199.901 2100.86 198.072 Q2099.43 196.243 2096.55 196.243 Q2093.11 196.243 2091.12 198.442 Q2089.12 200.641 2089.12 204.438 L2089.12 219.09 L2084.84 219.09 L2084.84 193.164 L2089.12 193.164 L2089.12 197.192 Q2090.65 194.854 2092.71 193.697 Q2094.8 192.539 2097.5 192.539 Q2101.97 192.539 2104.26 195.317 Q2106.55 198.072 2106.55 203.442 Z" fill="#000000" fill-rule="nonzero" fill-opacity="1" /><path clip-path="url(#clip050)" d="M2130.12 183.072 L2134.38 183.072 L2134.38 219.09 L2130.12 219.09 L2130.12 183.072 Z" fill="#000000" fill-rule="nonzero" fill-opacity="1" /><path clip-path="url(#clip050)" d="M2165.47 205.063 L2165.47 207.146 L2145.88 207.146 Q2146.16 211.544 2148.52 213.859 Q2150.91 216.15 2155.14 216.15 Q2157.6 216.15 2159.89 215.549 Q2162.2 214.947 2164.47 213.743 L2164.47 217.771 Q2162.18 218.743 2159.77 219.252 Q2157.36 219.762 2154.89 219.762 Q2148.68 219.762 2145.05 216.15 Q2141.44 212.539 2141.44 206.382 Q2141.44 200.016 2144.86 196.289 Q2148.31 192.539 2154.15 192.539 Q2159.38 192.539 2162.41 195.919 Q2165.47 199.276 2165.47 205.063 M2161.21 203.813 Q2161.16 200.317 2159.24 198.234 Q2157.34 196.151 2154.19 196.151 Q2150.63 196.151 2148.48 198.164 Q2146.35 200.178 2146.02 203.836 L2161.21 203.813 Z" fill="#000000" fill-rule="nonzero" fill-opacity="1" /><path clip-path="url(#clip050)" d="M2185.58 183.072 L2185.58 186.614 L2181.51 186.614 Q2179.22 186.614 2178.31 187.54 Q2177.43 188.465 2177.43 190.873 L2177.43 193.164 L2184.45 193.164 L2184.45 196.475 L2177.43 196.475 L2177.43 219.09 L2173.15 219.09 L2173.15 196.475 L2169.08 196.475 L2169.08 193.164 L2173.15 193.164 L2173.15 191.359 Q2173.15 187.03 2175.17 185.063 Q2177.18 183.072 2181.55 183.072 L2185.58 183.072 Z" fill="#000000" fill-rule="nonzero" fill-opacity="1" /><path clip-path="url(#clip050)" d="M2192.53 185.803 L2192.53 193.164 L2201.3 193.164 L2201.3 196.475 L2192.53 196.475 L2192.53 210.549 Q2192.53 213.72 2193.38 214.623 Q2194.26 215.525 2196.92 215.525 L2201.3 215.525 L2201.3 219.09 L2196.92 219.09 Q2191.99 219.09 2190.12 217.262 Q2188.24 215.41 2188.24 210.549 L2188.24 196.475 L2185.12 196.475 L2185.12 193.164 L2188.24 193.164 L2188.24 185.803 L2192.53 185.803 Z" fill="#000000" fill-rule="nonzero" fill-opacity="1" /><polyline clip-path="url(#clip050)" style="stroke:#2e8b57; stroke-linecap:round; stroke-linejoin:round; stroke-width:7.2; stroke-opacity:1; fill:none" points="1836.73,253.65 1979.5,253.65 "/>
<circle clip-path="url(#clip050)" cx="1908.11" cy="253.65" r="19.5491" fill="#2e8b57" fill-rule="evenodd" fill-opacity="1" stroke="#000000" stroke-opacity="1" stroke-width="6.20606"/>
<path clip-path="url(#clip050)" d="M2021.72 245.768 L2021.72 249.796 Q2019.91 248.87 2017.97 248.407 Q2016.02 247.944 2013.94 247.944 Q2010.77 247.944 2009.17 248.917 Q2007.6 249.889 2007.6 251.833 Q2007.6 253.315 2008.73 254.171 Q2009.87 255.004 2013.29 255.768 L2014.75 256.092 Q2019.29 257.065 2021.19 258.847 Q2023.11 260.606 2023.11 263.778 Q2023.11 267.389 2020.24 269.495 Q2017.39 271.602 2012.39 271.602 Q2010.31 271.602 2008.04 271.185 Q2005.79 270.791 2003.29 269.981 L2003.29 265.583 Q2005.65 266.81 2007.94 267.435 Q2010.24 268.037 2012.48 268.037 Q2015.49 268.037 2017.11 267.018 Q2018.73 265.977 2018.73 264.102 Q2018.73 262.366 2017.55 261.44 Q2016.39 260.514 2012.44 259.657 L2010.95 259.31 Q2007 258.477 2005.24 256.764 Q2003.48 255.028 2003.48 252.018 Q2003.48 248.361 2006.07 246.37 Q2008.66 244.379 2013.43 244.379 Q2015.79 244.379 2017.87 244.727 Q2019.96 245.074 2021.72 245.768 Z" fill="#000000" fill-rule="nonzero" fill-opacity="1" /><path clip-path="url(#clip050)" d="M2048.55 246 L2048.55 249.981 Q2046.74 248.986 2044.91 248.5 Q2043.11 247.991 2041.25 247.991 Q2037.11 247.991 2034.82 250.629 Q2032.53 253.245 2032.53 257.991 Q2032.53 262.736 2034.82 265.375 Q2037.11 267.99 2041.25 267.99 Q2043.11 267.99 2044.91 267.504 Q2046.74 266.995 2048.55 266 L2048.55 269.935 Q2046.76 270.768 2044.84 271.185 Q2042.94 271.602 2040.79 271.602 Q2034.93 271.602 2031.49 267.921 Q2028.04 264.24 2028.04 257.991 Q2028.04 251.648 2031.51 248.014 Q2035 244.379 2041.07 244.379 Q2043.04 244.379 2044.91 244.796 Q2046.79 245.19 2048.55 246 Z" fill="#000000" fill-rule="nonzero" fill-opacity="1" /><path clip-path="url(#clip050)" d="M2067.74 257.898 Q2062.57 257.898 2060.58 259.078 Q2058.59 260.259 2058.59 263.106 Q2058.59 265.375 2060.07 266.717 Q2061.58 268.037 2064.15 268.037 Q2067.69 268.037 2069.82 265.537 Q2071.97 263.014 2071.97 258.847 L2071.97 257.898 L2067.74 257.898 M2076.23 256.139 L2076.23 270.93 L2071.97 270.93 L2071.97 266.995 Q2070.51 269.356 2068.34 270.49 Q2066.16 271.602 2063.01 271.602 Q2059.03 271.602 2056.67 269.379 Q2054.33 267.134 2054.33 263.384 Q2054.33 259.009 2057.25 256.787 Q2060.19 254.565 2066 254.565 L2071.97 254.565 L2071.97 254.148 Q2071.97 251.208 2070.03 249.611 Q2068.11 247.991 2064.61 247.991 Q2062.39 247.991 2060.28 248.523 Q2058.18 249.055 2056.23 250.12 L2056.23 246.185 Q2058.57 245.282 2060.77 244.842 Q2062.97 244.379 2065.05 244.379 Q2070.68 244.379 2073.45 247.296 Q2076.23 250.213 2076.23 256.139 Z" fill="#000000" fill-rule="nonzero" fill-opacity="1" /><path clip-path="url(#clip050)" d="M2106.55 255.282 L2106.55 270.93 L2102.3 270.93 L2102.3 255.421 Q2102.3 251.741 2100.86 249.912 Q2099.43 248.083 2096.55 248.083 Q2093.11 248.083 2091.12 250.282 Q2089.12 252.481 2089.12 256.278 L2089.12 270.93 L2084.84 270.93 L2084.84 245.004 L2089.12 245.004 L2089.12 249.032 Q2090.65 246.694 2092.71 245.537 Q2094.8 244.379 2097.5 244.379 Q2101.97 244.379 2104.26 247.157 Q2106.55 249.912 2106.55 255.282 Z" fill="#000000" fill-rule="nonzero" fill-opacity="1" /><path clip-path="url(#clip050)" d="M2145.14 248.986 Q2144.43 248.569 2143.57 248.384 Q2142.74 248.176 2141.72 248.176 Q2138.11 248.176 2136.16 250.537 Q2134.24 252.875 2134.24 257.273 L2134.24 270.93 L2129.96 270.93 L2129.96 245.004 L2134.24 245.004 L2134.24 249.032 Q2135.58 246.671 2137.74 245.537 Q2139.89 244.379 2142.97 244.379 Q2143.41 244.379 2143.94 244.449 Q2144.47 244.495 2145.12 244.611 L2145.14 248.986 Z" fill="#000000" fill-rule="nonzero" fill-opacity="1" /><path clip-path="url(#clip050)" d="M2149.61 245.004 L2153.87 245.004 L2153.87 270.93 L2149.61 270.93 L2149.61 245.004 M2149.61 234.912 L2153.87 234.912 L2153.87 240.305 L2149.61 240.305 L2149.61 234.912 Z" fill="#000000" fill-rule="nonzero" fill-opacity="1" /><path clip-path="url(#clip050)" d="M2179.84 257.666 Q2179.84 253.037 2177.92 250.491 Q2176.02 247.944 2172.57 247.944 Q2169.15 247.944 2167.23 250.491 Q2165.33 253.037 2165.33 257.666 Q2165.33 262.273 2167.23 264.819 Q2169.15 267.365 2172.57 267.365 Q2176.02 267.365 2177.92 264.819 Q2179.84 262.273 2179.84 257.666 M2184.1 267.713 Q2184.1 274.333 2181.16 277.551 Q2178.22 280.791 2172.16 280.791 Q2169.91 280.791 2167.92 280.444 Q2165.93 280.12 2164.05 279.426 L2164.05 275.282 Q2165.93 276.301 2167.76 276.787 Q2169.59 277.273 2171.49 277.273 Q2175.67 277.273 2177.76 275.074 Q2179.84 272.898 2179.84 268.477 L2179.84 266.37 Q2178.52 268.662 2176.46 269.796 Q2174.4 270.93 2171.53 270.93 Q2166.76 270.93 2163.85 267.296 Q2160.93 263.662 2160.93 257.666 Q2160.93 251.648 2163.85 248.014 Q2166.76 244.379 2171.53 244.379 Q2174.4 244.379 2176.46 245.514 Q2178.52 246.648 2179.84 248.94 L2179.84 245.004 L2184.1 245.004 L2184.1 267.713 Z" fill="#000000" fill-rule="nonzero" fill-opacity="1" /><path clip-path="url(#clip050)" d="M2214.42 255.282 L2214.42 270.93 L2210.17 270.93 L2210.17 255.421 Q2210.17 251.741 2208.73 249.912 Q2207.3 248.083 2204.42 248.083 Q2200.98 248.083 2198.98 250.282 Q2196.99 252.481 2196.99 256.278 L2196.99 270.93 L2192.71 270.93 L2192.71 234.912 L2196.99 234.912 L2196.99 249.032 Q2198.52 246.694 2200.58 245.537 Q2202.67 244.379 2205.37 244.379 Q2209.84 244.379 2212.13 247.157 Q2214.42 249.912 2214.42 255.282 Z" fill="#000000" fill-rule="nonzero" fill-opacity="1" /><path clip-path="url(#clip050)" d="M2227.13 237.643 L2227.13 245.004 L2235.91 245.004 L2235.91 248.315 L2227.13 248.315 L2227.13 262.389 Q2227.13 265.56 2227.99 266.463 Q2228.87 267.365 2231.53 267.365 L2235.91 267.365 L2235.91 270.93 L2231.53 270.93 Q2226.6 270.93 2224.73 269.102 Q2222.85 267.25 2222.85 262.389 L2222.85 248.315 L2219.73 248.315 L2219.73 245.004 L2222.85 245.004 L2222.85 237.643 L2227.13 237.643 Z" fill="#000000" fill-rule="nonzero" fill-opacity="1" /><polyline clip-path="url(#clip050)" style="stroke:#800080; stroke-linecap:round; stroke-linejoin:round; stroke-width:8; stroke-opacity:1; fill:none" stroke-dasharray="32, 20" points="1836.73,305.49 1979.5,305.49 "/>
<path clip-path="url(#clip050)" d="M2010.7 289.483 L2010.7 296.844 L2019.47 296.844 L2019.47 300.155 L2010.7 300.155 L2010.7 314.229 Q2010.7 317.4 2011.56 318.303 Q2012.44 319.205 2015.1 319.205 L2019.47 319.205 L2019.47 322.77 L2015.1 322.77 Q2010.17 322.77 2008.29 320.942 Q2006.42 319.09 2006.42 314.229 L2006.42 300.155 L2003.29 300.155 L2003.29 296.844 L2006.42 296.844 L2006.42 289.483 L2010.7 289.483 Z" fill="#000000" fill-rule="nonzero" fill-opacity="1" /><path clip-path="url(#clip050)" d="M2046.62 307.122 L2046.62 322.77 L2042.37 322.77 L2042.37 307.261 Q2042.37 303.581 2040.93 301.752 Q2039.5 299.923 2036.62 299.923 Q2033.18 299.923 2031.18 302.122 Q2029.19 304.321 2029.19 308.118 L2029.19 322.77 L2024.91 322.77 L2024.91 286.752 L2029.19 286.752 L2029.19 300.872 Q2030.72 298.534 2032.78 297.377 Q2034.87 296.219 2037.57 296.219 Q2042.04 296.219 2044.33 298.997 Q2046.62 301.752 2046.62 307.122 Z" fill="#000000" fill-rule="nonzero" fill-opacity="1" /><path clip-path="url(#clip050)" d="M2070.14 300.826 Q2069.43 300.409 2068.57 300.224 Q2067.74 300.016 2066.72 300.016 Q2063.11 300.016 2061.16 302.377 Q2059.24 304.715 2059.24 309.113 L2059.24 322.77 L2054.96 322.77 L2054.96 296.844 L2059.24 296.844 L2059.24 300.872 Q2060.58 298.511 2062.74 297.377 Q2064.89 296.219 2067.97 296.219 Q2068.41 296.219 2068.94 296.289 Q2069.47 296.335 2070.12 296.451 L2070.14 300.826 Z" fill="#000000" fill-rule="nonzero" fill-opacity="1" /><path clip-path="url(#clip050)" d="M2095.74 308.743 L2095.74 310.826 L2076.16 310.826 Q2076.44 315.224 2078.8 317.539 Q2081.18 319.83 2085.42 319.83 Q2087.87 319.83 2090.17 319.229 Q2092.48 318.627 2094.75 317.423 L2094.75 321.451 Q2092.46 322.423 2090.05 322.932 Q2087.64 323.442 2085.17 323.442 Q2078.96 323.442 2075.33 319.83 Q2071.72 316.219 2071.72 310.062 Q2071.72 303.696 2075.14 299.969 Q2078.59 296.219 2084.43 296.219 Q2089.66 296.219 2092.69 299.599 Q2095.74 302.956 2095.74 308.743 M2091.49 307.493 Q2091.44 303.997 2089.52 301.914 Q2087.62 299.831 2084.47 299.831 Q2080.91 299.831 2078.75 301.844 Q2076.62 303.858 2076.3 307.516 L2091.49 307.493 Z" fill="#000000" fill-rule="nonzero" fill-opacity="1" /><path clip-path="url(#clip050)" d="M2119.26 297.608 L2119.26 301.636 Q2117.46 300.71 2115.51 300.247 Q2113.57 299.784 2111.49 299.784 Q2108.31 299.784 2106.72 300.757 Q2105.14 301.729 2105.14 303.673 Q2105.14 305.155 2106.28 306.011 Q2107.41 306.844 2110.84 307.608 L2112.3 307.932 Q2116.83 308.905 2118.73 310.687 Q2120.65 312.446 2120.65 315.618 Q2120.65 319.229 2117.78 321.335 Q2114.93 323.442 2109.93 323.442 Q2107.85 323.442 2105.58 323.025 Q2103.34 322.631 2100.84 321.821 L2100.84 317.423 Q2103.2 318.65 2105.49 319.275 Q2107.78 319.877 2110.03 319.877 Q2113.04 319.877 2114.66 318.858 Q2116.28 317.817 2116.28 315.942 Q2116.28 314.206 2115.1 313.28 Q2113.94 312.354 2109.98 311.497 L2108.5 311.15 Q2104.54 310.317 2102.78 308.604 Q2101.02 306.868 2101.02 303.858 Q2101.02 300.201 2103.62 298.21 Q2106.21 296.219 2110.98 296.219 Q2113.34 296.219 2115.42 296.567 Q2117.5 296.914 2119.26 297.608 Z" fill="#000000" fill-rule="nonzero" fill-opacity="1" /><path clip-path="url(#clip050)" d="M2148.99 307.122 L2148.99 322.77 L2144.73 322.77 L2144.73 307.261 Q2144.73 303.581 2143.29 301.752 Q2141.86 299.923 2138.99 299.923 Q2135.54 299.923 2133.55 302.122 Q2131.55 304.321 2131.55 308.118 L2131.55 322.77 L2127.27 322.77 L2127.27 286.752 L2131.55 286.752 L2131.55 300.872 Q2133.08 298.534 2135.14 297.377 Q2137.23 296.219 2139.93 296.219 Q2144.4 296.219 2146.69 298.997 Q2148.99 301.752 2148.99 307.122 Z" fill="#000000" fill-rule="nonzero" fill-opacity="1" /><path clip-path="url(#clip050)" d="M2167.53 299.831 Q2164.1 299.831 2162.11 302.516 Q2160.12 305.178 2160.12 309.831 Q2160.12 314.483 2162.09 317.168 Q2164.08 319.83 2167.53 319.83 Q2170.93 319.83 2172.92 317.145 Q2174.91 314.46 2174.91 309.831 Q2174.91 305.224 2172.92 302.539 Q2170.93 299.831 2167.53 299.831 M2167.53 296.219 Q2173.08 296.219 2176.25 299.831 Q2179.42 303.442 2179.42 309.831 Q2179.42 316.196 2176.25 319.83 Q2173.08 323.442 2167.53 323.442 Q2161.95 323.442 2158.78 319.83 Q2155.63 316.196 2155.63 309.831 Q2155.63 303.442 2158.78 299.831 Q2161.95 296.219 2167.53 296.219 Z" fill="#000000" fill-rule="nonzero" fill-opacity="1" /><path clip-path="url(#clip050)" d="M2186.49 286.752 L2190.74 286.752 L2190.74 322.77 L2186.49 322.77 L2186.49 286.752 Z" fill="#000000" fill-rule="nonzero" fill-opacity="1" /><path clip-path="url(#clip050)" d="M2216.72 300.78 L2216.72 286.752 L2220.98 286.752 L2220.98 322.77 L2216.72 322.77 L2216.72 318.881 Q2215.37 321.196 2213.31 322.33 Q2211.28 323.442 2208.41 323.442 Q2203.71 323.442 2200.74 319.692 Q2197.8 315.942 2197.8 309.831 Q2197.8 303.719 2200.74 299.969 Q2203.71 296.219 2208.41 296.219 Q2211.28 296.219 2213.31 297.354 Q2215.37 298.465 2216.72 300.78 M2202.2 309.831 Q2202.2 314.53 2204.12 317.215 Q2206.07 319.877 2209.45 319.877 Q2212.83 319.877 2214.77 317.215 Q2216.72 314.53 2216.72 309.831 Q2216.72 305.131 2214.77 302.469 Q2212.83 299.784 2209.45 299.784 Q2206.07 299.784 2204.12 302.469 Q2202.2 305.131 2202.2 309.831 Z" fill="#000000" fill-rule="nonzero" fill-opacity="1" /><path clip-path="url(#clip050)" d="M2256.55 292.817 L2247.06 318.881 L2266.07 318.881 L2256.55 292.817 M2240.72 322.77 L2253.92 288.21 L2259.22 288.21 L2272.39 322.77 L2240.72 322.77 Z" fill="#000000" fill-rule="nonzero" fill-opacity="1" /><path clip-path="url(#clip050)" d="M2277.99 322.053 L2277.99 317.793 Q2279.75 318.627 2281.55 319.067 Q2283.36 319.506 2285.1 319.506 Q2289.73 319.506 2292.16 316.405 Q2294.61 313.28 2294.96 306.937 Q2293.61 308.928 2291.55 309.993 Q2289.49 311.057 2286.99 311.057 Q2281.81 311.057 2278.78 307.932 Q2275.77 304.784 2275.77 299.344 Q2275.77 294.02 2278.92 290.803 Q2282.06 287.585 2287.29 287.585 Q2293.29 287.585 2296.44 292.192 Q2299.61 296.775 2299.61 305.525 Q2299.61 313.696 2295.72 318.58 Q2291.85 323.442 2285.3 323.442 Q2283.54 323.442 2281.74 323.094 Q2279.93 322.747 2277.99 322.053 M2287.29 307.4 Q2290.44 307.4 2292.27 305.247 Q2294.12 303.094 2294.12 299.344 Q2294.12 295.618 2292.27 293.465 Q2290.44 291.289 2287.29 291.289 Q2284.15 291.289 2282.29 293.465 Q2280.47 295.618 2280.47 299.344 Q2280.47 303.094 2282.29 305.247 Q2284.15 307.4 2287.29 307.4 Z" fill="#000000" fill-rule="nonzero" fill-opacity="1" /><path clip-path="url(#clip050)" d="M2308.06 288.21 L2326.41 288.21 L2326.41 292.145 L2312.34 292.145 L2312.34 300.618 Q2313.36 300.27 2314.38 300.108 Q2315.4 299.923 2316.41 299.923 Q2322.2 299.923 2325.58 303.094 Q2328.96 306.266 2328.96 311.682 Q2328.96 317.261 2325.49 320.363 Q2322.02 323.442 2315.7 323.442 Q2313.52 323.442 2311.25 323.071 Q2309.01 322.701 2306.6 321.96 L2306.6 317.261 Q2308.68 318.395 2310.91 318.951 Q2313.13 319.506 2315.6 319.506 Q2319.61 319.506 2321.95 317.4 Q2324.29 315.293 2324.29 311.682 Q2324.29 308.071 2321.95 305.965 Q2319.61 303.858 2315.6 303.858 Q2313.73 303.858 2311.85 304.275 Q2310 304.692 2308.06 305.571 L2308.06 288.21 Z" fill="#000000" fill-rule="nonzero" fill-opacity="1" /><path clip-path="url(#clip050)" d="M1908.11 334.058 L1884.84 357.33 L1908.11 380.603 L1931.39 357.33 L1908.11 334.058 Z" fill="#000000" fill-rule="evenodd" fill-opacity="1" stroke="none"/>
<path clip-path="url(#clip050)" d="M2010.7 341.323 L2010.7 348.684 L2019.47 348.684 L2019.47 351.995 L2010.7 351.995 L2010.7 366.069 Q2010.7 369.24 2011.56 370.143 Q2012.44 371.045 2015.1 371.045 L2019.47 371.045 L2019.47 374.61 L2015.1 374.61 Q2010.17 374.61 2008.29 372.782 Q2006.42 370.93 2006.42 366.069 L2006.42 351.995 L2003.29 351.995 L2003.29 348.684 L2006.42 348.684 L2006.42 341.323 L2010.7 341.323 Z" fill="#000000" fill-rule="nonzero" fill-opacity="1" /><path clip-path="url(#clip050)" d="M2046.62 358.962 L2046.62 374.61 L2042.37 374.61 L2042.37 359.101 Q2042.37 355.421 2040.93 353.592 Q2039.5 351.763 2036.62 351.763 Q2033.18 351.763 2031.18 353.962 Q2029.19 356.161 2029.19 359.958 L2029.19 374.61 L2024.91 374.61 L2024.91 338.592 L2029.19 338.592 L2029.19 352.712 Q2030.72 350.374 2032.78 349.217 Q2034.87 348.059 2037.57 348.059 Q2042.04 348.059 2044.33 350.837 Q2046.62 353.592 2046.62 358.962 Z" fill="#000000" fill-rule="nonzero" fill-opacity="1" /><path clip-path="url(#clip050)" d="M2077.3 360.583 L2077.3 362.666 L2057.71 362.666 Q2057.99 367.064 2060.35 369.379 Q2062.74 371.67 2066.97 371.67 Q2069.43 371.67 2071.72 371.069 Q2074.03 370.467 2076.3 369.263 L2076.3 373.291 Q2074.01 374.263 2071.6 374.772 Q2069.19 375.282 2066.72 375.282 Q2060.51 375.282 2056.88 371.67 Q2053.27 368.059 2053.27 361.902 Q2053.27 355.536 2056.69 351.809 Q2060.14 348.059 2065.98 348.059 Q2071.21 348.059 2074.24 351.439 Q2077.3 354.796 2077.3 360.583 M2073.04 359.333 Q2072.99 355.837 2071.07 353.754 Q2069.17 351.671 2066.02 351.671 Q2062.46 351.671 2060.31 353.684 Q2058.18 355.698 2057.85 359.356 L2073.04 359.333 Z" fill="#000000" fill-rule="nonzero" fill-opacity="1" /><path clip-path="url(#clip050)" d="M2088.5 341.323 L2088.5 348.684 L2097.27 348.684 L2097.27 351.995 L2088.5 351.995 L2088.5 366.069 Q2088.5 369.24 2089.36 370.143 Q2090.24 371.045 2092.9 371.045 L2097.27 371.045 L2097.27 374.61 L2092.9 374.61 Q2087.97 374.61 2086.09 372.782 Q2084.22 370.93 2084.22 366.069 L2084.22 351.995 L2081.09 351.995 L2081.09 348.684 L2084.22 348.684 L2084.22 341.323 L2088.5 341.323 Z" fill="#000000" fill-rule="nonzero" fill-opacity="1" /><path clip-path="url(#clip050)" d="M2114.66 361.578 Q2109.49 361.578 2107.5 362.758 Q2105.51 363.939 2105.51 366.786 Q2105.51 369.055 2106.99 370.397 Q2108.5 371.717 2111.07 371.717 Q2114.61 371.717 2116.74 369.217 Q2118.89 366.694 2118.89 362.527 L2118.89 361.578 L2114.66 361.578 M2123.15 359.819 L2123.15 374.61 L2118.89 374.61 L2118.89 370.675 Q2117.43 373.036 2115.26 374.17 Q2113.08 375.282 2109.93 375.282 Q2105.95 375.282 2103.59 373.059 Q2101.25 370.814 2101.25 367.064 Q2101.25 362.689 2104.17 360.467 Q2107.11 358.245 2112.92 358.245 L2118.89 358.245 L2118.89 357.828 Q2118.89 354.888 2116.95 353.291 Q2115.03 351.671 2111.53 351.671 Q2109.31 351.671 2107.2 352.203 Q2105.1 352.735 2103.15 353.8 L2103.15 349.865 Q2105.49 348.962 2107.69 348.522 Q2109.89 348.059 2111.97 348.059 Q2117.6 348.059 2120.37 350.976 Q2123.15 353.893 2123.15 359.819 Z" fill="#000000" fill-rule="nonzero" fill-opacity="1" /><path clip-path="url(#clip050)" d="M2168.55 358.962 L2168.55 374.61 L2164.29 374.61 L2164.29 359.101 Q2164.29 355.421 2162.85 353.592 Q2161.42 351.763 2158.55 351.763 Q2155.1 351.763 2153.11 353.962 Q2151.11 356.161 2151.11 359.958 L2151.11 374.61 L2146.83 374.61 L2146.83 338.592 L2151.11 338.592 L2151.11 352.712 Q2152.64 350.374 2154.7 349.217 Q2156.79 348.059 2159.49 348.059 Q2163.96 348.059 2166.25 350.837 Q2168.55 353.592 2168.55 358.962 Z" fill="#000000" fill-rule="nonzero" fill-opacity="1" /><path clip-path="url(#clip050)" d="M2188.82 361.578 Q2183.66 361.578 2181.67 362.758 Q2179.68 363.939 2179.68 366.786 Q2179.68 369.055 2181.16 370.397 Q2182.67 371.717 2185.24 371.717 Q2188.78 371.717 2190.91 369.217 Q2193.06 366.694 2193.06 362.527 L2193.06 361.578 L2188.82 361.578 M2197.32 359.819 L2197.32 374.61 L2193.06 374.61 L2193.06 370.675 Q2191.6 373.036 2189.42 374.17 Q2187.25 375.282 2184.1 375.282 Q2180.12 375.282 2177.76 373.059 Q2175.42 370.814 2175.42 367.064 Q2175.42 362.689 2178.34 360.467 Q2181.28 358.245 2187.09 358.245 L2193.06 358.245 L2193.06 357.828 Q2193.06 354.888 2191.11 353.291 Q2189.19 351.671 2185.7 351.671 Q2183.48 351.671 2181.37 352.203 Q2179.26 352.735 2177.32 353.8 L2177.32 349.865 Q2179.66 348.962 2181.86 348.522 Q2184.05 348.059 2186.14 348.059 Q2191.76 348.059 2194.54 350.976 Q2197.32 353.893 2197.32 359.819 Z" fill="#000000" fill-rule="nonzero" fill-opacity="1" /><path clip-path="url(#clip050)" d="M2210.3 341.323 L2210.3 348.684 L2219.08 348.684 L2219.08 351.995 L2210.3 351.995 L2210.3 366.069 Q2210.3 369.24 2211.16 370.143 Q2212.04 371.045 2214.7 371.045 L2219.08 371.045 L2219.08 374.61 L2214.7 374.61 Q2209.77 374.61 2207.9 372.782 Q2206.02 370.93 2206.02 366.069 L2206.02 351.995 L2202.9 351.995 L2202.9 348.684 L2206.02 348.684 L2206.02 341.323 L2210.3 341.323 Z" fill="#000000" fill-rule="nonzero" fill-opacity="1" /></svg>
