<?xml version="1.0" encoding="utf-8"?>
<svg xmlns="http://www.w3.org/2000/svg" xmlns:xlink="http://www.w3.org/1999/xlink" width="600" height="400" viewBox="0 0 2400 1600">
<defs>
  <clipPath id="clip080">
    <rect x="0" y="0" width="2400" height="1600"/>
  </clipPath>
</defs>
<path clip-path="url(#clip080)" d="M0 1600 L2400 1600 L2400 0 L0 0  Z" fill="#ffffff" fill-rule="evenodd" fill-opacity="1"/>
<defs>
  <clipPath id="clip081">
    <rect x="480" y="0" width="1681" height="1600"/>
  </clipPath>
</defs>
<path clip-path="url(#clip080)" d="M232.389 1423.18 L2352.76 1423.18 L2352.76 123.472 L232.389 123.472  Z" fill="#ffffff" fill-rule="evenodd" fill-opacity="1"/>
<defs>
  <clipPath id="clip082">
    <rect x="232" y="123" width="2121" height="1301"/>
  </clipPath>
</defs>
<polyline clip-path="url(#clip082)" style="stroke:#000000; stroke-linecap:round; stroke-linejoin:round; stroke-width:2; stroke-opacity:0.1; fill:none" points="286.429,1423.18 286.429,123.472 "/>
<polyline clip-path="url(#clip082)" style="stroke:#000000; stroke-linecap:round; stroke-linejoin:round; stroke-width:2; stroke-opacity:0.1; fill:none" points="883.547,1423.18 883.547,123.472 "/>
<polyline clip-path="url(#clip082)" style="stroke:#000000; stroke-linecap:round; stroke-linejoin:round; stroke-width:2; stroke-opacity:0.1; fill:none" points="1480.66,1423.18 1480.66,123.472 "/>
<polyline clip-path="url(#clip082)" style="stroke:#000000; stroke-linecap:round; stroke-linejoin:round; stroke-width:2; stroke-opacity:0.1; fill:none" points="2077.78,1423.18 2077.78,123.472 "/>
<polyline clip-path="url(#clip082)" style="stroke:#000000; stroke-linecap:round; stroke-linejoin:round; stroke-width:2; stroke-opacity:0.1; fill:none" points="232.389,1386.4 2352.76,1386.4 "/>
<polyline clip-path="url(#clip082)" style="stroke:#000000; stroke-linecap:round; stroke-linejoin:round; stroke-width:2; stroke-opacity:0.1; fill:none" points="232.389,1200.43 2352.76,1200.43 "/>
<polyline clip-path="url(#clip082)" style="stroke:#000000; stroke-linecap:round; stroke-linejoin:round; stroke-width:2; stroke-opacity:0.1; fill:none" points="232.389,1014.47 2352.76,1014.47 "/>
<polyline clip-path="url(#clip082)" style="stroke:#000000; stroke-linecap:round; stroke-linejoin:round; stroke-width:2; stroke-opacity:0.1; fill:none" points="232.389,828.511 2352.76,828.511 "/>
<polyline clip-path="url(#clip082)" style="stroke:#000000; stroke-linecap:round; stroke-linejoin:round; stroke-width:2; stroke-opacity:0.1; fill:none" points="232.389,642.55 2352.76,642.55 "/>
<polyline clip-path="url(#clip082)" style="stroke:#000000; stroke-linecap:round; stroke-linejoin:round; stroke-width:2; stroke-opacity:0.1; fill:none" points="232.389,456.588 2352.76,456.588 "/>
<polyline clip-path="url(#clip082)" style="stroke:#000000; stroke-linecap:round; stroke-linejoin:round; stroke-width:2; stroke-opacity:0.1; fill:none" points="232.389,270.627 2352.76,270.627 "/>
<polyline clip-path="url(#clip080)" style="stroke:#000000; stroke-linecap:round; stroke-linejoin:round; stroke-width:4; stroke-opacity:1; fill:none" points="232.389,1423.18 2352.76,1423.18 "/>
<polyline clip-path="url(#clip080)" style="stroke:#000000; stroke-linecap:round; stroke-linejoin:round; stroke-width:4; stroke-opacity:1; fill:none" points="286.429,1423.18 286.429,1404.28 "/>
<polyline clip-path="url(#clip080)" style="stroke:#000000; stroke-linecap:round; stroke-linejoin:round; stroke-width:4; stroke-opacity:1; fill:none" points="883.547,1423.18 883.547,1404.28 "/>
<polyline clip-path="url(#clip080)" style="stroke:#000000; stroke-linecap:round; stroke-linejoin:round; stroke-width:4; stroke-opacity:1; fill:none" points="1480.66,1423.18 1480.66,1404.28 "/>
<polyline clip-path="url(#clip080)" style="stroke:#000000; stroke-linecap:round; stroke-linejoin:round; stroke-width:4; stroke-opacity:1; fill:none" points="2077.78,1423.18 2077.78,1404.28 "/>
<path clip-path="url(#clip080)" d="M286.429 1454.1 Q282.817 1454.1 280.989 1457.66 Q279.183 1461.2 279.183 1468.33 Q279.183 1475.44 280.989 1479.01 Q282.817 1482.55 286.429 1482.55 Q290.063 1482.55 291.868 1479.01 Q293.697 1475.44 293.697 1468.33 Q293.697 1461.2 291.868 1457.66 Q290.063 1454.1 286.429 1454.1 M286.429 1450.39 Q292.239 1450.39 295.294 1455 Q298.373 1459.58 298.373 1468.33 Q298.373 1477.06 295.294 1481.67 Q292.239 1486.25 286.429 1486.25 Q280.618 1486.25 277.54 1481.67 Q274.484 1477.06 274.484 1468.33 Q274.484 1459.58 277.54 1455 Q280.618 1450.39 286.429 1450.39 Z" fill="#000000" fill-rule="nonzero" fill-opacity="1" /><path clip-path="url(#clip080)" d="M843.153 1481.64 L850.792 1481.64 L850.792 1455.28 L842.482 1456.95 L842.482 1452.69 L850.746 1451.02 L855.422 1451.02 L855.422 1481.64 L863.061 1481.64 L863.061 1485.58 L843.153 1485.58 L843.153 1481.64 Z" fill="#000000" fill-rule="nonzero" fill-opacity="1" /><path clip-path="url(#clip080)" d="M882.505 1454.1 Q878.894 1454.1 877.065 1457.66 Q875.26 1461.2 875.26 1468.33 Q875.26 1475.44 877.065 1479.01 Q878.894 1482.55 882.505 1482.55 Q886.139 1482.55 887.945 1479.01 Q889.774 1475.44 889.774 1468.33 Q889.774 1461.2 887.945 1457.66 Q886.139 1454.1 882.505 1454.1 M882.505 1450.39 Q888.315 1450.39 891.371 1455 Q894.449 1459.58 894.449 1468.33 Q894.449 1477.06 891.371 1481.67 Q888.315 1486.25 882.505 1486.25 Q876.695 1486.25 873.616 1481.67 Q870.561 1477.06 870.561 1468.33 Q870.561 1459.58 873.616 1455 Q876.695 1450.39 882.505 1450.39 Z" fill="#000000" fill-rule="nonzero" fill-opacity="1" /><path clip-path="url(#clip080)" d="M912.667 1454.1 Q909.056 1454.1 907.227 1457.66 Q905.422 1461.2 905.422 1468.33 Q905.422 1475.44 907.227 1479.01 Q909.056 1482.55 912.667 1482.55 Q916.301 1482.55 918.107 1479.01 Q919.935 1475.44 919.935 1468.33 Q919.935 1461.2 918.107 1457.66 Q916.301 1454.1 912.667 1454.1 M912.667 1450.39 Q918.477 1450.39 921.533 1455 Q924.611 1459.58 924.611 1468.33 Q924.611 1477.06 921.533 1481.67 Q918.477 1486.25 912.667 1486.25 Q906.857 1486.25 903.778 1481.67 Q900.723 1477.06 900.723 1468.33 Q900.723 1459.58 903.778 1455 Q906.857 1450.39 912.667 1450.39 Z" fill="#000000" fill-rule="nonzero" fill-opacity="1" /><path clip-path="url(#clip080)" d="M1444.36 1481.64 L1460.68 1481.64 L1460.68 1485.58 L1438.73 1485.58 L1438.73 1481.64 Q1441.39 1478.89 1445.98 1474.26 Q1450.58 1469.61 1451.76 1468.27 Q1454.01 1465.74 1454.89 1464.01 Q1455.79 1462.25 1455.79 1460.56 Q1455.79 1457.8 1453.85 1456.07 Q1451.93 1454.33 1448.82 1454.33 Q1446.63 1454.33 1444.17 1455.09 Q1441.74 1455.86 1438.96 1457.41 L1438.96 1452.69 Q1441.79 1451.55 1444.24 1450.97 Q1446.7 1450.39 1448.73 1450.39 Q1454.1 1450.39 1457.3 1453.08 Q1460.49 1455.77 1460.49 1460.26 Q1460.49 1462.39 1459.68 1464.31 Q1458.89 1466.2 1456.79 1468.8 Q1456.21 1469.47 1453.11 1472.69 Q1450.01 1475.88 1444.36 1481.64 Z" fill="#000000" fill-rule="nonzero" fill-opacity="1" /><path clip-path="url(#clip080)" d="M1480.49 1454.1 Q1476.88 1454.1 1475.05 1457.66 Q1473.25 1461.2 1473.25 1468.33 Q1473.25 1475.44 1475.05 1479.01 Q1476.88 1482.55 1480.49 1482.55 Q1484.13 1482.55 1485.93 1479.01 Q1487.76 1475.44 1487.76 1468.33 Q1487.76 1461.2 1485.93 1457.66 Q1484.13 1454.1 1480.49 1454.1 M1480.49 1450.39 Q1486.3 1450.39 1489.36 1455 Q1492.44 1459.58 1492.44 1468.33 Q1492.44 1477.06 1489.36 1481.67 Q1486.3 1486.25 1480.49 1486.25 Q1474.68 1486.25 1471.6 1481.67 Q1468.55 1477.06 1468.55 1468.33 Q1468.55 1459.58 1471.6 1455 Q1474.68 1450.39 1480.49 1450.39 Z" fill="#000000" fill-rule="nonzero" fill-opacity="1" /><path clip-path="url(#clip080)" d="M1510.65 1454.1 Q1507.04 1454.1 1505.21 1457.66 Q1503.41 1461.2 1503.41 1468.33 Q1503.41 1475.44 1505.21 1479.01 Q1507.04 1482.55 1510.65 1482.55 Q1514.29 1482.55 1516.09 1479.01 Q1517.92 1475.44 1517.92 1468.33 Q1517.92 1461.2 1516.09 1457.66 Q1514.29 1454.1 1510.65 1454.1 M1510.65 1450.39 Q1516.46 1450.39 1519.52 1455 Q1522.6 1459.58 1522.6 1468.33 Q1522.6 1477.06 1519.52 1481.67 Q1516.46 1486.25 1510.65 1486.25 Q1504.84 1486.25 1501.76 1481.67 Q1498.71 1477.06 1498.71 1468.33 Q1498.71 1459.58 1501.76 1455 Q1504.84 1450.39 1510.65 1450.39 Z" fill="#000000" fill-rule="nonzero" fill-opacity="1" /><path clip-path="url(#clip080)" d="M2051.54 1466.95 Q2054.9 1467.66 2056.78 1469.93 Q2058.67 1472.2 2058.67 1475.53 Q2058.67 1480.65 2055.16 1483.45 Q2051.64 1486.25 2045.16 1486.25 Q2042.98 1486.25 2040.67 1485.81 Q2038.37 1485.39 2035.92 1484.54 L2035.92 1480.02 Q2037.86 1481.16 2040.18 1481.74 Q2042.49 1482.32 2045.02 1482.32 Q2049.42 1482.32 2051.71 1480.58 Q2054.02 1478.84 2054.02 1475.53 Q2054.02 1472.48 2051.87 1470.77 Q2049.74 1469.03 2045.92 1469.03 L2041.89 1469.03 L2041.89 1465.19 L2046.1 1465.19 Q2049.55 1465.19 2051.38 1463.82 Q2053.21 1462.43 2053.21 1459.84 Q2053.21 1457.18 2051.31 1455.77 Q2049.44 1454.33 2045.92 1454.33 Q2044 1454.33 2041.8 1454.75 Q2039.6 1455.16 2036.96 1456.04 L2036.96 1451.88 Q2039.62 1451.14 2041.94 1450.77 Q2044.28 1450.39 2046.34 1450.39 Q2051.66 1450.39 2054.76 1452.83 Q2057.86 1455.23 2057.86 1459.35 Q2057.86 1462.22 2056.22 1464.21 Q2054.58 1466.18 2051.54 1466.95 Z" fill="#000000" fill-rule="nonzero" fill-opacity="1" /><path clip-path="url(#clip080)" d="M2077.54 1454.1 Q2073.93 1454.1 2072.1 1457.66 Q2070.29 1461.2 2070.29 1468.33 Q2070.29 1475.44 2072.1 1479.01 Q2073.93 1482.55 2077.54 1482.55 Q2081.17 1482.55 2082.98 1479.01 Q2084.81 1475.44 2084.81 1468.33 Q2084.81 1461.2 2082.98 1457.66 Q2081.17 1454.1 2077.54 1454.1 M2077.54 1450.39 Q2083.35 1450.39 2086.41 1455 Q2089.48 1459.58 2089.48 1468.33 Q2089.48 1477.06 2086.41 1481.67 Q2083.35 1486.25 2077.54 1486.25 Q2071.73 1486.25 2068.65 1481.67 Q2065.6 1477.06 2065.6 1468.33 Q2065.6 1459.58 2068.65 1455 Q2071.73 1450.39 2077.54 1450.39 Z" fill="#000000" fill-rule="nonzero" fill-opacity="1" /><path clip-path="url(#clip080)" d="M2107.7 1454.1 Q2104.09 1454.1 2102.26 1457.66 Q2100.46 1461.2 2100.46 1468.33 Q2100.46 1475.44 2102.26 1479.01 Q2104.09 1482.55 2107.7 1482.55 Q2111.34 1482.55 2113.14 1479.01 Q2114.97 1475.44 2114.97 1468.33 Q2114.97 1461.2 2113.14 1457.66 Q2111.34 1454.1 2107.7 1454.1 M2107.7 1450.39 Q2113.51 1450.39 2116.57 1455 Q2119.65 1459.58 2119.65 1468.33 Q2119.65 1477.06 2116.57 1481.67 Q2113.51 1486.25 2107.7 1486.25 Q2101.89 1486.25 2098.81 1481.67 Q2095.76 1477.06 2095.76 1468.33 Q2095.76 1459.58 2098.81 1455 Q2101.89 1450.39 2107.7 1450.39 Z" fill="#000000" fill-rule="nonzero" fill-opacity="1" /><path clip-path="url(#clip080)" d="M1214.45 1520.52 L1254.65 1520.52 L1254.65 1525.93 L1237.78 1525.93 L1237.78 1568.04 L1231.32 1568.04 L1231.32 1525.93 L1214.45 1525.93 L1214.45 1520.52 Z" fill="#000000" fill-rule="nonzero" fill-opacity="1" /><path clip-path="url(#clip080)" d="M1258.6 1532.4 L1264.45 1532.4 L1264.45 1568.04 L1258.6 1568.04 L1258.6 1532.4 M1258.6 1518.52 L1264.45 1518.52 L1264.45 1525.93 L1258.6 1525.93 L1258.6 1518.52 Z" fill="#000000" fill-rule="nonzero" fill-opacity="1" /><path clip-path="url(#clip080)" d="M1304.46 1539.24 Q1306.66 1535.29 1309.71 1533.41 Q1312.77 1531.54 1316.91 1531.54 Q1322.48 1531.54 1325.5 1535.45 Q1328.52 1539.33 1328.52 1546.53 L1328.52 1568.04 L1322.63 1568.04 L1322.63 1546.72 Q1322.63 1541.59 1320.82 1539.11 Q1319.01 1536.63 1315.28 1536.63 Q1310.73 1536.63 1308.09 1539.65 Q1305.45 1542.68 1305.45 1547.9 L1305.45 1568.04 L1299.56 1568.04 L1299.56 1546.72 Q1299.56 1541.56 1297.74 1539.11 Q1295.93 1536.63 1292.14 1536.63 Q1287.66 1536.63 1285.01 1539.68 Q1282.37 1542.71 1282.37 1547.9 L1282.37 1568.04 L1276.48 1568.04 L1276.48 1532.4 L1282.37 1532.4 L1282.37 1537.93 Q1284.38 1534.66 1287.18 1533.1 Q1289.98 1531.54 1293.83 1531.54 Q1297.71 1531.54 1300.42 1533.51 Q1303.16 1535.48 1304.46 1539.24 Z" fill="#000000" fill-rule="nonzero" fill-opacity="1" /><path clip-path="url(#clip080)" d="M1370.7 1548.76 L1370.7 1551.62 L1343.77 1551.62 Q1344.15 1557.67 1347.4 1560.85 Q1350.68 1564 1356.5 1564 Q1359.87 1564 1363.03 1563.17 Q1366.21 1562.35 1369.33 1560.69 L1369.33 1566.23 Q1366.18 1567.57 1362.87 1568.27 Q1359.56 1568.97 1356.15 1568.97 Q1347.62 1568.97 1342.62 1564 Q1337.66 1559.04 1337.66 1550.57 Q1337.66 1541.82 1342.37 1536.69 Q1347.11 1531.54 1355.13 1531.54 Q1362.32 1531.54 1366.49 1536.18 Q1370.7 1540.8 1370.7 1548.76 M1364.84 1547.04 Q1364.78 1542.23 1362.13 1539.37 Q1359.52 1536.5 1355.2 1536.5 Q1350.29 1536.5 1347.33 1539.27 Q1344.41 1542.04 1343.96 1547.07 L1364.84 1547.04 Z" fill="#000000" fill-rule="nonzero" fill-opacity="1" /><polyline clip-path="url(#clip080)" style="stroke:#000000; stroke-linecap:round; stroke-linejoin:round; stroke-width:4; stroke-opacity:1; fill:none" points="232.389,1423.18 232.389,123.472 "/>
<polyline clip-path="url(#clip080)" style="stroke:#000000; stroke-linecap:round; stroke-linejoin:round; stroke-width:4; stroke-opacity:1; fill:none" points="232.389,1386.4 251.287,1386.4 "/>
<polyline clip-path="url(#clip080)" style="stroke:#000000; stroke-linecap:round; stroke-linejoin:round; stroke-width:4; stroke-opacity:1; fill:none" points="232.389,1200.43 251.287,1200.43 "/>
<polyline clip-path="url(#clip080)" style="stroke:#000000; stroke-linecap:round; stroke-linejoin:round; stroke-width:4; stroke-opacity:1; fill:none" points="232.389,1014.47 251.287,1014.47 "/>
<polyline clip-path="url(#clip080)" style="stroke:#000000; stroke-linecap:round; stroke-linejoin:round; stroke-width:4; stroke-opacity:1; fill:none" points="232.389,828.511 251.287,828.511 "/>
<polyline clip-path="url(#clip080)" style="stroke:#000000; stroke-linecap:round; stroke-linejoin:round; stroke-width:4; stroke-opacity:1; fill:none" points="232.389,642.55 251.287,642.55 "/>
<polyline clip-path="url(#clip080)" style="stroke:#000000; stroke-linecap:round; stroke-linejoin:round; stroke-width:4; stroke-opacity:1; fill:none" points="232.389,456.588 251.287,456.588 "/>
<polyline clip-path="url(#clip080)" style="stroke:#000000; stroke-linecap:round; stroke-linejoin:round; stroke-width:4; stroke-opacity:1; fill:none" points="232.389,270.627 251.287,270.627 "/>
<path clip-path="url(#clip080)" d="M184.445 1372.19 Q180.834 1372.19 179.005 1375.76 Q177.2 1379.3 177.2 1386.43 Q177.2 1393.54 179.005 1397.1 Q180.834 1400.64 184.445 1400.64 Q188.079 1400.64 189.885 1397.1 Q191.713 1393.54 191.713 1386.43 Q191.713 1379.3 189.885 1375.76 Q188.079 1372.19 184.445 1372.19 M184.445 1368.49 Q190.255 1368.49 193.311 1373.1 Q196.389 1377.68 196.389 1386.43 Q196.389 1395.16 193.311 1399.76 Q190.255 1404.35 184.445 1404.35 Q178.635 1404.35 175.556 1399.76 Q172.501 1395.16 172.501 1386.43 Q172.501 1377.68 175.556 1373.1 Q178.635 1368.49 184.445 1368.49 Z" fill="#000000" fill-rule="nonzero" fill-opacity="1" /><path clip-path="url(#clip080)" d="M148.311 1213.78 L164.63 1213.78 L164.63 1217.71 L142.686 1217.71 L142.686 1213.78 Q145.348 1211.02 149.931 1206.39 Q154.538 1201.74 155.718 1200.4 Q157.964 1197.88 158.843 1196.14 Q159.746 1194.38 159.746 1192.69 Q159.746 1189.94 157.802 1188.2 Q155.88 1186.46 152.778 1186.46 Q150.579 1186.46 148.126 1187.23 Q145.695 1187.99 142.917 1189.54 L142.917 1184.82 Q145.741 1183.69 148.195 1183.11 Q150.649 1182.53 152.686 1182.53 Q158.056 1182.53 161.251 1185.21 Q164.445 1187.9 164.445 1192.39 Q164.445 1194.52 163.635 1196.44 Q162.848 1198.34 160.741 1200.93 Q160.163 1201.6 157.061 1204.82 Q153.959 1208.02 148.311 1213.78 Z" fill="#000000" fill-rule="nonzero" fill-opacity="1" /><path clip-path="url(#clip080)" d="M184.445 1186.23 Q180.834 1186.23 179.005 1189.8 Q177.2 1193.34 177.2 1200.47 Q177.2 1207.58 179.005 1211.14 Q180.834 1214.68 184.445 1214.68 Q188.079 1214.68 189.885 1211.14 Q191.713 1207.58 191.713 1200.47 Q191.713 1193.34 189.885 1189.8 Q188.079 1186.23 184.445 1186.23 M184.445 1182.53 Q190.255 1182.53 193.311 1187.14 Q196.389 1191.72 196.389 1200.47 Q196.389 1209.2 193.311 1213.8 Q190.255 1218.39 184.445 1218.39 Q178.635 1218.39 175.556 1213.8 Q172.501 1209.2 172.501 1200.47 Q172.501 1191.72 175.556 1187.14 Q178.635 1182.53 184.445 1182.53 Z" fill="#000000" fill-rule="nonzero" fill-opacity="1" /><path clip-path="url(#clip080)" d="M157.13 1001.27 L145.325 1019.72 L157.13 1019.72 L157.13 1001.27 M155.903 997.193 L161.783 997.193 L161.783 1019.72 L166.714 1019.72 L166.714 1023.6 L161.783 1023.6 L161.783 1031.75 L157.13 1031.75 L157.13 1023.6 L141.529 1023.6 L141.529 1019.09 L155.903 997.193 Z" fill="#000000" fill-rule="nonzero" fill-opacity="1" /><path clip-path="url(#clip080)" d="M184.445 1000.27 Q180.834 1000.27 179.005 1003.84 Q177.2 1007.38 177.2 1014.51 Q177.2 1021.61 179.005 1025.18 Q180.834 1028.72 184.445 1028.72 Q188.079 1028.72 189.885 1025.18 Q191.713 1021.61 191.713 1014.51 Q191.713 1007.38 189.885 1003.84 Q188.079 1000.27 184.445 1000.27 M184.445 996.568 Q190.255 996.568 193.311 1001.17 Q196.389 1005.76 196.389 1014.51 Q196.389 1023.23 193.311 1027.84 Q190.255 1032.42 184.445 1032.42 Q178.635 1032.42 175.556 1027.84 Q172.501 1023.23 172.501 1014.51 Q172.501 1005.76 175.556 1001.17 Q178.635 996.568 184.445 996.568 Z" fill="#000000" fill-rule="nonzero" fill-opacity="1" /><path clip-path="url(#clip080)" d="M154.862 826.648 Q151.714 826.648 149.862 828.801 Q148.033 830.953 148.033 834.703 Q148.033 838.43 149.862 840.606 Q151.714 842.759 154.862 842.759 Q158.01 842.759 159.839 840.606 Q161.69 838.43 161.69 834.703 Q161.69 830.953 159.839 828.801 Q158.01 826.648 154.862 826.648 M164.144 811.995 L164.144 816.254 Q162.385 815.421 160.579 814.981 Q158.797 814.542 157.038 814.542 Q152.408 814.542 149.954 817.667 Q147.524 820.791 147.177 827.111 Q148.542 825.097 150.603 824.032 Q152.663 822.944 155.14 822.944 Q160.348 822.944 163.357 826.116 Q166.39 829.264 166.39 834.703 Q166.39 840.028 163.241 843.245 Q160.093 846.463 154.862 846.463 Q148.866 846.463 145.695 841.879 Q142.524 837.273 142.524 828.546 Q142.524 820.352 146.413 815.491 Q150.302 810.606 156.853 810.606 Q158.612 810.606 160.394 810.954 Q162.2 811.301 164.144 811.995 Z" fill="#000000" fill-rule="nonzero" fill-opacity="1" /><path clip-path="url(#clip080)" d="M184.445 814.31 Q180.834 814.31 179.005 817.875 Q177.2 821.416 177.2 828.546 Q177.2 835.653 179.005 839.217 Q180.834 842.759 184.445 842.759 Q188.079 842.759 189.885 839.217 Q191.713 835.653 191.713 828.546 Q191.713 821.416 189.885 817.875 Q188.079 814.31 184.445 814.31 M184.445 810.606 Q190.255 810.606 193.311 815.213 Q196.389 819.796 196.389 828.546 Q196.389 837.273 193.311 841.879 Q190.255 846.463 184.445 846.463 Q178.635 846.463 175.556 841.879 Q172.501 837.273 172.501 828.546 Q172.501 819.796 175.556 815.213 Q178.635 810.606 184.445 810.606 Z" fill="#000000" fill-rule="nonzero" fill-opacity="1" /><path clip-path="url(#clip080)" d="M154.283 643.418 Q150.95 643.418 149.028 645.2 Q147.13 646.983 147.13 650.108 Q147.13 653.233 149.028 655.015 Q150.95 656.798 154.283 656.798 Q157.616 656.798 159.538 655.015 Q161.459 653.21 161.459 650.108 Q161.459 646.983 159.538 645.2 Q157.64 643.418 154.283 643.418 M149.607 641.427 Q146.598 640.687 144.908 638.626 Q143.241 636.566 143.241 633.603 Q143.241 629.46 146.181 627.052 Q149.144 624.645 154.283 624.645 Q159.445 624.645 162.385 627.052 Q165.325 629.46 165.325 633.603 Q165.325 636.566 163.635 638.626 Q161.968 640.687 158.982 641.427 Q162.362 642.214 164.237 644.506 Q166.135 646.798 166.135 650.108 Q166.135 655.131 163.056 657.816 Q160.001 660.501 154.283 660.501 Q148.566 660.501 145.487 657.816 Q142.431 655.131 142.431 650.108 Q142.431 646.798 144.329 644.506 Q146.228 642.214 149.607 641.427 M147.894 634.043 Q147.894 636.728 149.561 638.233 Q151.251 639.737 154.283 639.737 Q157.292 639.737 158.982 638.233 Q160.695 636.728 160.695 634.043 Q160.695 631.358 158.982 629.853 Q157.292 628.349 154.283 628.349 Q151.251 628.349 149.561 629.853 Q147.894 631.358 147.894 634.043 Z" fill="#000000" fill-rule="nonzero" fill-opacity="1" /><path clip-path="url(#clip080)" d="M184.445 628.349 Q180.834 628.349 179.005 631.913 Q177.2 635.455 177.2 642.585 Q177.2 649.691 179.005 653.256 Q180.834 656.798 184.445 656.798 Q188.079 656.798 189.885 653.256 Q191.713 649.691 191.713 642.585 Q191.713 635.455 189.885 631.913 Q188.079 628.349 184.445 628.349 M184.445 624.645 Q190.255 624.645 193.311 629.251 Q196.389 633.835 196.389 642.585 Q196.389 651.311 193.311 655.918 Q190.255 660.501 184.445 660.501 Q178.635 660.501 175.556 655.918 Q172.501 651.311 172.501 642.585 Q172.501 633.835 175.556 629.251 Q178.635 624.645 184.445 624.645 Z" fill="#000000" fill-rule="nonzero" fill-opacity="1" /><path clip-path="url(#clip080)" d="M114.931 469.933 L122.57 469.933 L122.57 443.568 L114.26 445.234 L114.26 440.975 L122.524 439.308 L127.2 439.308 L127.2 469.933 L134.839 469.933 L134.839 473.868 L114.931 473.868 L114.931 469.933 Z" fill="#000000" fill-rule="nonzero" fill-opacity="1" /><path clip-path="url(#clip080)" d="M154.283 442.387 Q150.672 442.387 148.843 445.952 Q147.038 449.494 147.038 456.623 Q147.038 463.73 148.843 467.294 Q150.672 470.836 154.283 470.836 Q157.917 470.836 159.723 467.294 Q161.552 463.73 161.552 456.623 Q161.552 449.494 159.723 445.952 Q157.917 442.387 154.283 442.387 M154.283 438.684 Q160.093 438.684 163.149 443.29 Q166.227 447.873 166.227 456.623 Q166.227 465.35 163.149 469.956 Q160.093 474.54 154.283 474.54 Q148.473 474.54 145.394 469.956 Q142.339 465.35 142.339 456.623 Q142.339 447.873 145.394 443.29 Q148.473 438.684 154.283 438.684 Z" fill="#000000" fill-rule="nonzero" fill-opacity="1" /><path clip-path="url(#clip080)" d="M184.445 442.387 Q180.834 442.387 179.005 445.952 Q177.2 449.494 177.2 456.623 Q177.2 463.73 179.005 467.294 Q180.834 470.836 184.445 470.836 Q188.079 470.836 189.885 467.294 Q191.713 463.73 191.713 456.623 Q191.713 449.494 189.885 445.952 Q188.079 442.387 184.445 442.387 M184.445 438.684 Q190.255 438.684 193.311 443.29 Q196.389 447.873 196.389 456.623 Q196.389 465.35 193.311 469.956 Q190.255 474.54 184.445 474.54 Q178.635 474.54 175.556 469.956 Q172.501 465.35 172.501 456.623 Q172.501 447.873 175.556 443.29 Q178.635 438.684 184.445 438.684 Z" fill="#000000" fill-rule="nonzero" fill-opacity="1" /><path clip-path="url(#clip080)" d="M114.931 283.972 L122.57 283.972 L122.57 257.606 L114.26 259.273 L114.26 255.014 L122.524 253.347 L127.2 253.347 L127.2 283.972 L134.839 283.972 L134.839 287.907 L114.931 287.907 L114.931 283.972 Z" fill="#000000" fill-rule="nonzero" fill-opacity="1" /><path clip-path="url(#clip080)" d="M148.311 283.972 L164.63 283.972 L164.63 287.907 L142.686 287.907 L142.686 283.972 Q145.348 281.217 149.931 276.588 Q154.538 271.935 155.718 270.592 Q157.964 268.069 158.843 266.333 Q159.746 264.574 159.746 262.884 Q159.746 260.129 157.802 258.393 Q155.88 256.657 152.778 256.657 Q150.579 256.657 148.126 257.421 Q145.695 258.185 142.917 259.736 L142.917 255.014 Q145.741 253.879 148.195 253.301 Q150.649 252.722 152.686 252.722 Q158.056 252.722 161.251 255.407 Q164.445 258.092 164.445 262.583 Q164.445 264.713 163.635 266.634 Q162.848 268.532 160.741 271.125 Q160.163 271.796 157.061 275.014 Q153.959 278.208 148.311 283.972 Z" fill="#000000" fill-rule="nonzero" fill-opacity="1" /><path clip-path="url(#clip080)" d="M184.445 256.426 Q180.834 256.426 179.005 259.991 Q177.2 263.532 177.2 270.662 Q177.2 277.768 179.005 281.333 Q180.834 284.875 184.445 284.875 Q188.079 284.875 189.885 281.333 Q191.713 277.768 191.713 270.662 Q191.713 263.532 189.885 259.991 Q188.079 256.426 184.445 256.426 M184.445 252.722 Q190.255 252.722 193.311 257.329 Q196.389 261.912 196.389 270.662 Q196.389 279.389 193.311 283.995 Q190.255 288.578 184.445 288.578 Q178.635 288.578 175.556 283.995 Q172.501 279.389 172.501 270.662 Q172.501 261.912 175.556 257.329 Q178.635 252.722 184.445 252.722 Z" fill="#000000" fill-rule="nonzero" fill-opacity="1" /><path clip-path="url(#clip080)" d="M20.1444 820.225 L26.9239 820.225 Q23.9002 823.472 22.4043 827.164 Q20.9083 830.824 20.9083 834.962 Q20.9083 843.11 25.9054 847.439 Q30.8707 851.767 40.2919 851.767 Q49.6813 851.767 54.6784 847.439 Q59.6436 843.11 59.6436 834.962 Q59.6436 830.824 58.1477 827.164 Q56.6518 823.472 53.6281 820.225 L60.3439 820.225 Q62.6355 823.599 63.7814 827.387 Q64.9272 831.143 64.9272 835.344 Q64.9272 846.134 58.3387 852.34 Q51.7183 858.547 40.2919 858.547 Q28.8336 858.547 22.2451 852.34 Q15.6248 846.134 15.6248 835.344 Q15.6248 831.079 16.7706 827.323 Q17.8846 823.535 20.1444 820.225 Z" fill="#000000" fill-rule="nonzero" fill-opacity="1" /><path clip-path="url(#clip080)" d="M16.4842 816.883 L16.4842 776.684 L21.895 776.684 L21.895 793.553 L64.0042 793.553 L64.0042 800.014 L21.895 800.014 L21.895 816.883 L16.4842 816.883 Z" fill="#000000" fill-rule="nonzero" fill-opacity="1" /><path clip-path="url(#clip080)" d="M16.4842 770.477 L16.4842 761.82 L56.238 740.749 L16.4842 740.749 L16.4842 734.511 L64.0042 734.511 L64.0042 743.168 L24.2503 764.239 L64.0042 764.239 L64.0042 770.477 L16.4842 770.477 Z" fill="#000000" fill-rule="nonzero" fill-opacity="1" /><path clip-path="url(#clip080)" d="M16.4842 728.305 L16.4842 688.105 L21.895 688.105 L21.895 704.974 L64.0042 704.974 L64.0042 711.435 L21.895 711.435 L21.895 728.305 L16.4842 728.305 Z" fill="#000000" fill-rule="nonzero" fill-opacity="1" /><path clip-path="url(#clip080)" d="M1071.45 18.8205 L1071.45 41.5461 L1081.74 41.5461 Q1087.46 41.5461 1090.57 38.5889 Q1093.69 35.6318 1093.69 30.163 Q1093.69 24.7348 1090.57 21.7777 Q1087.46 18.8205 1081.74 18.8205 L1071.45 18.8205 M1063.27 12.096 L1081.74 12.096 Q1091.91 12.096 1097.1 16.714 Q1102.32 21.2916 1102.32 30.163 Q1102.32 39.1155 1097.1 43.6931 Q1091.91 48.2706 1081.74 48.2706 L1071.45 48.2706 L1071.45 72.576 L1063.27 72.576 L1063.27 12.096 Z" fill="#000000" fill-rule="nonzero" fill-opacity="1" /><path clip-path="url(#clip080)" d="M1129.87 49.7694 Q1120.83 49.7694 1117.35 51.8354 Q1113.87 53.9013 1113.87 58.8839 Q1113.87 62.8538 1116.46 65.2034 Q1119.09 67.5124 1123.59 67.5124 Q1129.79 67.5124 1133.51 63.1374 Q1137.28 58.7219 1137.28 51.4303 L1137.28 49.7694 L1129.87 49.7694 M1144.73 46.6907 L1144.73 72.576 L1137.28 72.576 L1137.28 65.6895 Q1134.73 69.8214 1130.92 71.8063 Q1127.11 73.7508 1121.6 73.7508 Q1114.64 73.7508 1110.5 69.8619 Q1106.41 65.9325 1106.41 59.3701 Q1106.41 51.7138 1111.52 47.825 Q1116.66 43.9361 1126.83 43.9361 L1137.28 43.9361 L1137.28 43.2069 Q1137.28 38.0623 1133.88 35.2672 Q1130.52 32.4315 1124.4 32.4315 Q1120.51 32.4315 1116.82 33.3632 Q1113.14 34.295 1109.74 36.1584 L1109.74 29.2718 Q1113.83 27.692 1117.67 26.9223 Q1121.52 26.1121 1125.17 26.1121 Q1135.01 26.1121 1139.87 31.2163 Q1144.73 36.3204 1144.73 46.6907 Z" fill="#000000" fill-rule="nonzero" fill-opacity="1" /><path clip-path="url(#clip080)" d="M1167.46 14.324 L1167.46 27.2059 L1182.81 27.2059 L1182.81 32.9987 L1167.46 32.9987 L1167.46 57.6282 Q1167.46 63.1779 1168.96 64.7578 Q1170.5 66.3376 1175.16 66.3376 L1182.81 66.3376 L1182.81 72.576 L1175.16 72.576 Q1166.53 72.576 1163.25 69.3758 Q1159.97 66.1351 1159.97 57.6282 L1159.97 32.9987 L1154.5 32.9987 L1154.5 27.2059 L1159.97 27.2059 L1159.97 14.324 L1167.46 14.324 Z" fill="#000000" fill-rule="nonzero" fill-opacity="1" /><path clip-path="url(#clip080)" d="M1192.62 27.2059 L1200.07 27.2059 L1200.07 72.576 L1192.62 72.576 L1192.62 27.2059 M1192.62 9.54393 L1200.07 9.54393 L1200.07 18.9825 L1192.62 18.9825 L1192.62 9.54393 Z" fill="#000000" fill-rule="nonzero" fill-opacity="1" /><path clip-path="url(#clip080)" d="M1254.47 48.0275 L1254.47 51.6733 L1220.2 51.6733 Q1220.69 59.3701 1224.82 63.421 Q1228.99 67.4314 1236.41 67.4314 Q1240.7 67.4314 1244.71 66.3781 Q1248.76 65.3249 1252.73 63.2184 L1252.73 70.267 Q1248.72 71.9684 1244.51 72.8596 Q1240.3 73.7508 1235.96 73.7508 Q1225.1 73.7508 1218.74 67.4314 Q1212.43 61.1119 1212.43 50.3365 Q1212.43 39.1965 1218.42 32.6746 Q1224.46 26.1121 1234.66 26.1121 Q1243.82 26.1121 1249.13 32.0264 Q1254.47 37.9003 1254.47 48.0275 M1247.02 45.84 Q1246.94 39.7232 1243.58 36.0774 Q1240.26 32.4315 1234.75 32.4315 Q1228.51 32.4315 1224.74 35.9558 Q1221.01 39.4801 1220.45 45.8805 L1247.02 45.84 Z" fill="#000000" fill-rule="nonzero" fill-opacity="1" /><path clip-path="url(#clip080)" d="M1304.42 45.1919 L1304.42 72.576 L1296.97 72.576 L1296.97 45.4349 Q1296.97 38.994 1294.46 35.7938 Q1291.94 32.5936 1286.92 32.5936 Q1280.89 32.5936 1277.4 36.4419 Q1273.92 40.2903 1273.92 46.9338 L1273.92 72.576 L1266.42 72.576 L1266.42 27.2059 L1273.92 27.2059 L1273.92 34.2544 Q1276.59 30.163 1280.2 28.1376 Q1283.84 26.1121 1288.58 26.1121 Q1296.4 26.1121 1300.41 30.9732 Q1304.42 35.7938 1304.42 45.1919 Z" fill="#000000" fill-rule="nonzero" fill-opacity="1" /><path clip-path="url(#clip080)" d="M1326.66 14.324 L1326.66 27.2059 L1342.01 27.2059 L1342.01 32.9987 L1326.66 32.9987 L1326.66 57.6282 Q1326.66 63.1779 1328.16 64.7578 Q1329.7 66.3376 1334.36 66.3376 L1342.01 66.3376 L1342.01 72.576 L1334.36 72.576 Q1325.73 72.576 1322.45 69.3758 Q1319.17 66.1351 1319.17 57.6282 L1319.17 32.9987 L1313.7 32.9987 L1313.7 27.2059 L1319.17 27.2059 L1319.17 14.324 L1326.66 14.324 Z" fill="#000000" fill-rule="nonzero" fill-opacity="1" /><path clip-path="url(#clip080)" d="M1415.9 45.1919 L1415.9 72.576 L1408.45 72.576 L1408.45 45.4349 Q1408.45 38.994 1405.94 35.7938 Q1403.43 32.5936 1398.4 32.5936 Q1392.37 32.5936 1388.88 36.4419 Q1385.4 40.2903 1385.4 46.9338 L1385.4 72.576 L1377.9 72.576 L1377.9 27.2059 L1385.4 27.2059 L1385.4 34.2544 Q1388.07 30.163 1391.68 28.1376 Q1395.32 26.1121 1400.06 26.1121 Q1407.88 26.1121 1411.89 30.9732 Q1415.9 35.7938 1415.9 45.1919 Z" fill="#000000" fill-rule="nonzero" fill-opacity="1" /><path clip-path="url(#clip080)" d="M1431.9 12.096 L1464.03 12.096 L1464.03 18.9825 L1439.4 18.9825 L1439.4 33.8088 Q1441.18 33.2012 1442.96 32.9176 Q1444.74 32.5936 1446.53 32.5936 Q1456.65 32.5936 1462.57 38.1433 Q1468.48 43.6931 1468.48 53.1722 Q1468.48 62.9348 1462.41 68.3631 Q1456.33 73.7508 1445.27 73.7508 Q1441.46 73.7508 1437.49 73.1026 Q1433.56 72.4545 1429.35 71.1582 L1429.35 62.9348 Q1433 64.9198 1436.89 65.892 Q1440.77 66.8642 1445.11 66.8642 Q1452.12 66.8642 1456.21 63.1779 Q1460.3 59.4916 1460.3 53.1722 Q1460.3 46.8528 1456.21 43.1664 Q1452.12 39.4801 1445.11 39.4801 Q1441.83 39.4801 1438.55 40.2093 Q1435.31 40.9384 1431.9 42.4778 L1431.9 12.096 Z" fill="#000000" fill-rule="nonzero" fill-opacity="1" /><path clip-path="url(#clip080)" d="M1509.4 39.9662 Q1515.27 41.222 1518.55 45.1919 Q1521.87 49.1618 1521.87 54.9951 Q1521.87 63.9476 1515.72 68.8492 Q1509.56 73.7508 1498.22 73.7508 Q1494.41 73.7508 1490.36 72.9811 Q1486.35 72.2519 1482.05 70.7531 L1482.05 62.8538 Q1485.46 64.8388 1489.51 65.8515 Q1493.56 66.8642 1497.97 66.8642 Q1505.67 66.8642 1509.68 63.826 Q1513.73 60.7879 1513.73 54.9951 Q1513.73 49.6479 1509.96 46.6502 Q1506.24 43.612 1499.55 43.612 L1492.51 43.612 L1492.51 36.8875 L1499.88 36.8875 Q1505.91 36.8875 1509.11 34.4975 Q1512.31 32.067 1512.31 27.5299 Q1512.31 22.8714 1508.99 20.4004 Q1505.71 17.8888 1499.55 17.8888 Q1496.19 17.8888 1492.34 18.618 Q1488.49 19.3471 1483.88 20.8865 L1483.88 13.5948 Q1488.54 12.2985 1492.59 11.6504 Q1496.68 11.0023 1500.28 11.0023 Q1509.6 11.0023 1515.03 15.2557 Q1520.46 19.4686 1520.46 26.6793 Q1520.46 31.7024 1517.58 35.1862 Q1514.7 38.6294 1509.4 39.9662 Z" fill="#000000" fill-rule="nonzero" fill-opacity="1" /><polyline clip-path="url(#clip082)" style="stroke:#009af9; stroke-linecap:round; stroke-linejoin:round; stroke-width:8; stroke-opacity:1; fill:none" points="292.4,1386.4 298.371,837.154 304.342,527.251 310.313,342.383 316.284,236.2 322.256,181.407 328.227,160.256 334.198,160.973 340.169,175.768 346.14,199.422 352.112,228.518 358.083,260.74 364.054,294.692 370.025,329.101 375.996,363.952 381.967,397.825 387.939,431.686 393.91,464.317 399.881,496.079 405.852,527.098 411.823,556.92 417.795,585.829 423.766,613.865 429.737,640.814 435.708,666.926 441.679,692.143 447.65,716.401 453.622,739.953 459.593,762.541 465.564,784.448 471.535,805.521 477.506,825.891 483.478,845.556 489.449,864.514 495.42,882.834 501.391,900.516 507.362,917.559 513.333,933.972 519.305,949.851 525.276,965.196 531.247,980.007 537.218,994.284 543.189,1008.02 549.161,1021.29 555.132,1034.12 561.103,1046.5 567.074,1058.44 573.045,1069.93 579.016,1081.02 584.988,1091.74 590.959,1102.11 596.93,1112.11 602.901,1121.76 608.872,1131.03 614.844,1139.98 620.815,1148.63 626.786,1157 632.757,1165.07 638.728,1172.85 644.699,1180.33 650.671,1187.54 656.642,1194.53 662.613,1201.28 668.584,1207.8 674.555,1214.08 680.527,1220.14 686.498,1225.95 692.469,1231.58 698.44,1237.03 704.411,1242.28 710.382,1247.36 716.354,1252.25 722.325,1256.94 728.296,1261.48 734.267,1265.87 740.238,1270.11 746.21,1274.2 752.181,1278.15 758.152,1281.96 764.123,1285.61 770.094,1289.15 776.065,1292.56 782.037,1295.87 788.008,1299.06 793.979,1302.13 799.95,1305.09 805.921,1307.93 811.893,1310.69 817.864,1313.35 823.835,1315.92 829.806,1318.4 835.777,1320.8 841.748,1323.1 847.72,1325.32 853.691,1327.46 859.662,1329.53 865.633,1331.53 871.604,1333.47 877.576,1335.33 883.547,1337.12 889.518,1338.85 895.489,1340.51 901.46,1342.13 907.431,1343.69 913.403,1345.19 919.374,1346.64 925.345,1348.04 931.316,1349.38 937.287,1350.68 943.259,1351.94 949.23,1353.15 955.201,1354.32 961.172,1355.45 967.143,1356.54 973.114,1357.58 979.086,1358.59 985.057,1359.57 991.028,1360.51 996.999,1361.43 1002.97,1362.31 1008.94,1363.15 1014.91,1363.97 1020.88,1364.75 1026.86,1365.51 1032.83,1366.25 1038.8,1366.96 1044.77,1367.64 1050.74,1368.3 1056.71,1368.94 1062.68,1369.55 1068.65,1370.14 1074.62,1370.71 1080.6,1371.27 1086.57,1371.8 1092.54,1372.31 1098.51,1372.81 1104.48,1373.28 1110.45,1373.74 1116.42,1374.19 1122.39,1374.62 1128.37,1375.03 1134.34,1375.43 1140.31,1375.82 1146.28,1376.19 1152.25,1376.55 1158.22,1376.89 1164.19,1377.23 1170.16,1377.55 1176.13,1377.86 1182.11,1378.16 1188.08,1378.45 1194.05,1378.73 1200.02,1379 1205.99,1379.26 1211.96,1379.51 1217.93,1379.75 1223.9,1379.99 1229.88,1380.21 1235.85,1380.43 1241.82,1380.64 1247.79,1380.84 1253.76,1381.04 1259.73,1381.22 1265.7,1381.41 1271.67,1381.58 1277.64,1381.75 1283.62,1381.91 1289.59,1382.07 1295.56,1382.22 1301.53,1382.37 1307.5,1382.51 1313.47,1382.65 1319.44,1382.78 1325.41,1382.91 1331.39,1383.03 1337.36,1383.15 1343.33,1383.26 1349.3,1383.37 1355.27,1383.48 1361.24,1383.58 1367.21,1383.68 1373.18,1383.78 1379.15,1383.87 1385.13,1383.96 1391.1,1384.04 1397.07,1384.13 1403.04,1384.21 1409.01,1384.28 1414.98,1384.36 1420.95,1384.43 1426.92,1384.5 1432.9,1384.56 1438.87,1384.63 1444.84,1384.69 1450.81,1384.75 1456.78,1384.81 1462.75,1384.86 1468.72,1384.92 1474.69,1384.97 1480.66,1385.02 1486.64,1385.07 1492.61,1385.12 1498.58,1385.16 1504.55,1385.2 1510.52,1385.25 1516.49,1385.29 1522.46,1385.32 1528.43,1385.36 1534.41,1385.4 1540.38,1385.43 1546.35,1385.47 1552.32,1385.5 1558.29,1385.53 1564.26,1385.56 1570.23,1385.59 1576.2,1385.62 1582.17,1385.65 1588.15,1385.67 1594.12,1385.7 1600.09,1385.72 1606.06,1385.75 1612.03,1385.77 1618,1385.79 1623.97,1385.81 1629.94,1385.83 1635.92,1385.85 1641.89,1385.87 1647.86,1385.89 1653.83,1385.91 1659.8,1385.93 1665.77,1385.94 1671.74,1385.96 1677.71,1385.97 1683.69,1385.99 1689.66,1386 1695.63,1386.02 1701.6,1386.03 1707.57,1386.04 1713.54,1386.06 1719.51,1386.07 1725.48,1386.08 1731.45,1386.09 1737.43,1386.1 1743.4,1386.11 1749.37,1386.12 1755.34,1386.13 1761.31,1386.14 1767.28,1386.15 1773.25,1386.16 1779.22,1386.17 1785.2,1386.17 1791.17,1386.18 1797.14,1386.19 1803.11,1386.2 1809.08,1386.2 1815.05,1386.21 1821.02,1386.22 1826.99,1386.22 1832.96,1386.23 1838.94,1386.23 1844.91,1386.24 1850.88,1386.25 1856.85,1386.25 1862.82,1386.26 1868.79,1386.26 1874.76,1386.27 1880.73,1386.27 1886.71,1386.28 1892.68,1386.28 1898.65,1386.28 1904.62,1386.29 1910.59,1386.29 1916.56,1386.29 1922.53,1386.3 1928.5,1386.3 1934.47,1386.31 1940.45,1386.31 1946.42,1386.31 1952.39,1386.31 1958.36,1386.32 1964.33,1386.32 1970.3,1386.32 1976.27,1386.33 1982.24,1386.33 1988.22,1386.33 1994.19,1386.33 2000.16,1386.33 2006.13,1386.34 2012.1,1386.34 2018.07,1386.34 2024.04,1386.34 2030.01,1386.34 2035.98,1386.35 2041.96,1386.35 2047.93,1386.35 2053.9,1386.35 2059.87,1386.35 2065.84,1386.35 2071.81,1386.36 2077.78,1386.36 2083.75,1386.36 2089.73,1386.36 2095.7,1386.36 2101.67,1386.36 2107.64,1386.36 2113.61,1386.36 2119.58,1386.37 2125.55,1386.37 2131.52,1386.37 2137.49,1386.37 2143.47,1386.37 2149.44,1386.37 2155.41,1386.37 2161.38,1386.37 2167.35,1386.37 2173.32,1386.37 2179.29,1386.37 2185.26,1386.38 2191.24,1386.38 2197.21,1386.38 2203.18,1386.38 2209.15,1386.38 2215.12,1386.38 2221.09,1386.38 2227.06,1386.38 2233.03,1386.38 2239,1386.38 2244.98,1386.38 2250.95,1386.38 2256.92,1386.38 2262.89,1386.38 2268.86,1386.38 2274.83,1386.38 2280.8,1386.38 2286.77,1386.38 2292.75,1386.39 "/>
<circle clip-path="url(#clip082)" cx="1585.56" cy="1385.98" r="18" fill="#e26f46" fill-rule="evenodd" fill-opacity="1" stroke="#000000" stroke-opacity="1" stroke-width="3.2"/>
<circle clip-path="url(#clip082)" cx="1613.13" cy="1385.98" r="18" fill="#e26f46" fill-rule="evenodd" fill-opacity="1" stroke="#000000" stroke-opacity="1" stroke-width="3.2"/>
<circle clip-path="url(#clip082)" cx="1707.57" cy="1385.65" r="18" fill="#e26f46" fill-rule="evenodd" fill-opacity="1" stroke="#000000" stroke-opacity="1" stroke-width="3.2"/>
<circle clip-path="url(#clip082)" cx="1852.77" cy="1385.85" r="18" fill="#e26f46" fill-rule="evenodd" fill-opacity="1" stroke="#000000" stroke-opacity="1" stroke-width="3.2"/>
<circle clip-path="url(#clip082)" cx="1990.21" cy="1385.88" r="18" fill="#e26f46" fill-rule="evenodd" fill-opacity="1" stroke="#000000" stroke-opacity="1" stroke-width="3.2"/>
<circle clip-path="url(#clip082)" cx="2066.64" cy="1385.88" r="18" fill="#e26f46" fill-rule="evenodd" fill-opacity="1" stroke="#000000" stroke-opacity="1" stroke-width="3.2"/>
<circle clip-path="url(#clip082)" cx="2134.61" cy="1385.78" r="18" fill="#e26f46" fill-rule="evenodd" fill-opacity="1" stroke="#000000" stroke-opacity="1" stroke-width="3.2"/>
<circle clip-path="url(#clip082)" cx="2286.58" cy="1385.88" r="18" fill="#e26f46" fill-rule="evenodd" fill-opacity="1" stroke="#000000" stroke-opacity="1" stroke-width="3.2"/>
<path clip-path="url(#clip080)" d="M1685.81 322.316 L2282.08 322.316 L2282.08 166.796 L1685.81 166.796  Z" fill="#ffffff" fill-rule="evenodd" fill-opacity="1"/>
<polyline clip-path="url(#clip080)" style="stroke:#000000; stroke-linecap:round; stroke-linejoin:round; stroke-width:4; stroke-opacity:1; fill:none" points="1685.81,322.316 2282.08,322.316 2282.08,166.796 1685.81,166.796 1685.81,322.316 "/>
<polyline clip-path="url(#clip080)" style="stroke:#009af9; stroke-linecap:round; stroke-linejoin:round; stroke-width:8; stroke-opacity:1; fill:none" points="1709.37,218.636 1850.72,218.636 "/>
<path clip-path="url(#clip080)" d="M1874.28 201.356 L1881.25 201.356 L1890.07 224.874 L1898.94 201.356 L1905.9 201.356 L1905.9 235.916 L1901.34 235.916 L1901.34 205.569 L1892.43 229.272 L1887.73 229.272 L1878.82 205.569 L1878.82 235.916 L1874.28 235.916 L1874.28 201.356 Z" fill="#000000" fill-rule="nonzero" fill-opacity="1" /><path clip-path="url(#clip080)" d="M1925.05 212.976 Q1921.62 212.976 1919.63 215.661 Q1917.64 218.323 1917.64 222.976 Q1917.64 227.629 1919.61 230.314 Q1921.6 232.976 1925.05 232.976 Q1928.45 232.976 1930.44 230.291 Q1932.43 227.606 1932.43 222.976 Q1932.43 218.37 1930.44 215.684 Q1928.45 212.976 1925.05 212.976 M1925.05 209.365 Q1930.6 209.365 1933.77 212.976 Q1936.95 216.587 1936.95 222.976 Q1936.95 229.342 1933.77 232.976 Q1930.6 236.587 1925.05 236.587 Q1919.47 236.587 1916.3 232.976 Q1913.15 229.342 1913.15 222.976 Q1913.15 216.587 1916.3 212.976 Q1919.47 209.365 1925.05 209.365 Z" fill="#000000" fill-rule="nonzero" fill-opacity="1" /><path clip-path="url(#clip080)" d="M1961.07 213.925 L1961.07 199.897 L1965.32 199.897 L1965.32 235.916 L1961.07 235.916 L1961.07 232.027 Q1959.72 234.342 1957.66 235.476 Q1955.63 236.587 1952.76 236.587 Q1948.06 236.587 1945.09 232.837 Q1942.15 229.087 1942.15 222.976 Q1942.15 216.865 1945.09 213.115 Q1948.06 209.365 1952.76 209.365 Q1955.63 209.365 1957.66 210.499 Q1959.72 211.61 1961.07 213.925 M1946.55 222.976 Q1946.55 227.675 1948.47 230.36 Q1950.42 233.022 1953.8 233.022 Q1957.18 233.022 1959.12 230.36 Q1961.07 227.675 1961.07 222.976 Q1961.07 218.277 1959.12 215.615 Q1957.18 212.93 1953.8 212.93 Q1950.42 212.93 1948.47 215.615 Q1946.55 218.277 1946.55 222.976 Z" fill="#000000" fill-rule="nonzero" fill-opacity="1" /><path clip-path="url(#clip080)" d="M1996.27 221.888 L1996.27 223.971 L1976.69 223.971 Q1976.97 228.369 1979.33 230.684 Q1981.71 232.976 1985.95 232.976 Q1988.4 232.976 1990.69 232.374 Q1993.01 231.772 1995.28 230.569 L1995.28 234.596 Q1992.99 235.568 1990.58 236.078 Q1988.17 236.587 1985.69 236.587 Q1979.49 236.587 1975.86 232.976 Q1972.25 229.365 1972.25 223.207 Q1972.25 216.842 1975.67 213.115 Q1979.12 209.365 1984.95 209.365 Q1990.19 209.365 1993.22 212.745 Q1996.27 216.101 1996.27 221.888 M1992.01 220.638 Q1991.97 217.143 1990.05 215.059 Q1988.15 212.976 1985 212.976 Q1981.44 212.976 1979.28 214.99 Q1977.15 217.004 1976.83 220.661 L1992.01 220.638 Z" fill="#000000" fill-rule="nonzero" fill-opacity="1" /><path clip-path="url(#clip080)" d="M2003.26 199.897 L2007.52 199.897 L2007.52 235.916 L2003.26 235.916 L2003.26 199.897 Z" fill="#000000" fill-rule="nonzero" fill-opacity="1" /><path clip-path="url(#clip080)" d="M2036.37 205.198 L2036.37 218.184 L2042.25 218.184 Q2045.51 218.184 2047.29 216.495 Q2049.07 214.805 2049.07 211.68 Q2049.07 208.578 2047.29 206.888 Q2045.51 205.198 2042.25 205.198 L2036.37 205.198 M2031.69 201.356 L2042.25 201.356 Q2048.06 201.356 2051.02 203.995 Q2054 206.61 2054 211.68 Q2054 216.795 2051.02 219.411 Q2048.06 222.027 2042.25 222.027 L2036.37 222.027 L2036.37 235.916 L2031.69 235.916 L2031.69 201.356 Z" fill="#000000" fill-rule="nonzero" fill-opacity="1" /><path clip-path="url(#clip080)" d="M2074.28 213.971 Q2073.56 213.555 2072.71 213.37 Q2071.87 213.161 2070.86 213.161 Q2067.25 213.161 2065.3 215.522 Q2063.38 217.86 2063.38 222.258 L2063.38 235.916 L2059.1 235.916 L2059.1 209.99 L2063.38 209.99 L2063.38 214.018 Q2064.72 211.657 2066.87 210.522 Q2069.03 209.365 2072.11 209.365 Q2072.55 209.365 2073.08 209.434 Q2073.61 209.481 2074.26 209.596 L2074.28 213.971 Z" fill="#000000" fill-rule="nonzero" fill-opacity="1" /><path clip-path="url(#clip080)" d="M2099.88 221.888 L2099.88 223.971 L2080.3 223.971 Q2080.58 228.369 2082.94 230.684 Q2085.32 232.976 2089.56 232.976 Q2092.01 232.976 2094.31 232.374 Q2096.62 231.772 2098.89 230.569 L2098.89 234.596 Q2096.6 235.568 2094.19 236.078 Q2091.78 236.587 2089.31 236.587 Q2083.1 236.587 2079.47 232.976 Q2075.86 229.365 2075.86 223.207 Q2075.86 216.842 2079.28 213.115 Q2082.73 209.365 2088.56 209.365 Q2093.8 209.365 2096.83 212.745 Q2099.88 216.101 2099.88 221.888 M2095.62 220.638 Q2095.58 217.143 2093.66 215.059 Q2091.76 212.976 2088.61 212.976 Q2085.05 212.976 2082.89 214.99 Q2080.76 217.004 2080.44 220.661 L2095.62 220.638 Z" fill="#000000" fill-rule="nonzero" fill-opacity="1" /><path clip-path="url(#clip080)" d="M2123.93 213.925 L2123.93 199.897 L2128.19 199.897 L2128.19 235.916 L2123.93 235.916 L2123.93 232.027 Q2122.59 234.342 2120.53 235.476 Q2118.49 236.587 2115.62 236.587 Q2110.93 236.587 2107.96 232.837 Q2105.02 229.087 2105.02 222.976 Q2105.02 216.865 2107.96 213.115 Q2110.93 209.365 2115.62 209.365 Q2118.49 209.365 2120.53 210.499 Q2122.59 211.61 2123.93 213.925 M2109.42 222.976 Q2109.42 227.675 2111.34 230.36 Q2113.29 233.022 2116.67 233.022 Q2120.05 233.022 2121.99 230.36 Q2123.93 227.675 2123.93 222.976 Q2123.93 218.277 2121.99 215.615 Q2120.05 212.93 2116.67 212.93 Q2113.29 212.93 2111.34 215.615 Q2109.42 218.277 2109.42 222.976 Z" fill="#000000" fill-rule="nonzero" fill-opacity="1" /><path clip-path="url(#clip080)" d="M2136.97 209.99 L2141.23 209.99 L2141.23 235.916 L2136.97 235.916 L2136.97 209.99 M2136.97 199.897 L2141.23 199.897 L2141.23 205.291 L2136.97 205.291 L2136.97 199.897 Z" fill="#000000" fill-rule="nonzero" fill-opacity="1" /><path clip-path="url(#clip080)" d="M2168.8 210.985 L2168.8 214.967 Q2166.99 213.971 2165.16 213.485 Q2163.36 212.976 2161.5 212.976 Q2157.36 212.976 2155.07 215.615 Q2152.78 218.231 2152.78 222.976 Q2152.78 227.721 2155.07 230.36 Q2157.36 232.976 2161.5 232.976 Q2163.36 232.976 2165.16 232.49 Q2166.99 231.981 2168.8 230.985 L2168.8 234.92 Q2167.01 235.754 2165.09 236.17 Q2163.19 236.587 2161.04 236.587 Q2155.18 236.587 2151.74 232.906 Q2148.29 229.226 2148.29 222.976 Q2148.29 216.633 2151.76 212.999 Q2155.25 209.365 2161.32 209.365 Q2163.29 209.365 2165.16 209.782 Q2167.04 210.175 2168.8 210.985 Z" fill="#000000" fill-rule="nonzero" fill-opacity="1" /><path clip-path="url(#clip080)" d="M2180.42 202.629 L2180.42 209.99 L2189.19 209.99 L2189.19 213.3 L2180.42 213.3 L2180.42 227.374 Q2180.42 230.545 2181.27 231.448 Q2182.15 232.351 2184.81 232.351 L2189.19 232.351 L2189.19 235.916 L2184.81 235.916 Q2179.88 235.916 2178.01 234.087 Q2176.13 232.235 2176.13 227.374 L2176.13 213.3 L2173.01 213.3 L2173.01 209.99 L2176.13 209.99 L2176.13 202.629 L2180.42 202.629 Z" fill="#000000" fill-rule="nonzero" fill-opacity="1" /><path clip-path="url(#clip080)" d="M2194.79 209.99 L2199.05 209.99 L2199.05 235.916 L2194.79 235.916 L2194.79 209.99 M2194.79 199.897 L2199.05 199.897 L2199.05 205.291 L2194.79 205.291 L2194.79 199.897 Z" fill="#000000" fill-rule="nonzero" fill-opacity="1" /><path clip-path="url(#clip080)" d="M2218.01 212.976 Q2214.58 212.976 2212.59 215.661 Q2210.6 218.323 2210.6 222.976 Q2210.6 227.629 2212.57 230.314 Q2214.56 232.976 2218.01 232.976 Q2221.41 232.976 2223.4 230.291 Q2225.39 227.606 2225.39 222.976 Q2225.39 218.37 2223.4 215.684 Q2221.41 212.976 2218.01 212.976 M2218.01 209.365 Q2223.56 209.365 2226.74 212.976 Q2229.91 216.587 2229.91 222.976 Q2229.91 229.342 2226.74 232.976 Q2223.56 236.587 2218.01 236.587 Q2212.43 236.587 2209.26 232.976 Q2206.11 229.342 2206.11 222.976 Q2206.11 216.587 2209.26 212.976 Q2212.43 209.365 2218.01 209.365 Z" fill="#000000" fill-rule="nonzero" fill-opacity="1" /><path clip-path="url(#clip080)" d="M2258.52 220.268 L2258.52 235.916 L2254.26 235.916 L2254.26 220.407 Q2254.26 216.726 2252.82 214.897 Q2251.39 213.069 2248.52 213.069 Q2245.07 213.069 2243.08 215.268 Q2241.09 217.467 2241.09 221.263 L2241.09 235.916 L2236.8 235.916 L2236.8 209.99 L2241.09 209.99 L2241.09 214.018 Q2242.61 211.68 2244.67 210.522 Q2246.76 209.365 2249.47 209.365 Q2253.93 209.365 2256.23 212.143 Q2258.52 214.897 2258.52 220.268 Z" fill="#000000" fill-rule="nonzero" fill-opacity="1" /><circle clip-path="url(#clip080)" cx="1780.04" cy="270.476" r="20.9455" fill="#e26f46" fill-rule="evenodd" fill-opacity="1" stroke="#000000" stroke-opacity="1" stroke-width="3.72364"/>
<path clip-path="url(#clip080)" d="M1890.3 256.367 Q1885.21 256.367 1882.2 260.163 Q1879.21 263.96 1879.21 270.51 Q1879.21 277.038 1882.2 280.834 Q1885.21 284.631 1890.3 284.631 Q1895.39 284.631 1898.36 280.834 Q1901.34 277.038 1901.34 270.51 Q1901.34 263.96 1898.36 260.163 Q1895.39 256.367 1890.3 256.367 M1890.3 252.571 Q1897.57 252.571 1901.92 257.455 Q1906.27 262.316 1906.27 270.51 Q1906.27 278.682 1901.92 283.566 Q1897.57 288.427 1890.3 288.427 Q1883.01 288.427 1878.64 283.566 Q1874.28 278.705 1874.28 270.51 Q1874.28 262.316 1878.64 257.455 Q1883.01 252.571 1890.3 252.571 Z" fill="#000000" fill-rule="nonzero" fill-opacity="1" /><path clip-path="url(#clip080)" d="M1932.01 274.816 Q1932.01 270.117 1930.07 267.455 Q1928.15 264.77 1924.77 264.77 Q1921.39 264.77 1919.45 267.455 Q1917.52 270.117 1917.52 274.816 Q1917.52 279.515 1919.45 282.2 Q1921.39 284.862 1924.77 284.862 Q1928.15 284.862 1930.07 282.2 Q1932.01 279.515 1932.01 274.816 M1917.52 265.765 Q1918.87 263.45 1920.9 262.339 Q1922.96 261.205 1925.81 261.205 Q1930.53 261.205 1933.47 264.955 Q1936.44 268.705 1936.44 274.816 Q1936.44 280.927 1933.47 284.677 Q1930.53 288.427 1925.81 288.427 Q1922.96 288.427 1920.9 287.316 Q1918.87 286.182 1917.52 283.867 L1917.52 287.756 L1913.24 287.756 L1913.24 251.737 L1917.52 251.737 L1917.52 265.765 Z" fill="#000000" fill-rule="nonzero" fill-opacity="1" /><path clip-path="url(#clip080)" d="M1960.02 262.594 L1960.02 266.622 Q1958.22 265.696 1956.27 265.233 Q1954.33 264.77 1952.25 264.77 Q1949.07 264.77 1947.48 265.742 Q1945.9 266.714 1945.9 268.659 Q1945.9 270.14 1947.04 270.997 Q1948.17 271.83 1951.6 272.594 L1953.06 272.918 Q1957.59 273.89 1959.49 275.672 Q1961.41 277.432 1961.41 280.603 Q1961.41 284.214 1958.54 286.321 Q1955.69 288.427 1950.69 288.427 Q1948.61 288.427 1946.34 288.01 Q1944.1 287.617 1941.6 286.807 L1941.6 282.409 Q1943.96 283.635 1946.25 284.26 Q1948.54 284.862 1950.79 284.862 Q1953.8 284.862 1955.42 283.844 Q1957.04 282.802 1957.04 280.927 Q1957.04 279.191 1955.86 278.265 Q1954.7 277.339 1950.74 276.483 L1949.26 276.135 Q1945.3 275.302 1943.54 273.589 Q1941.78 271.853 1941.78 268.844 Q1941.78 265.186 1944.38 263.196 Q1946.97 261.205 1951.74 261.205 Q1954.1 261.205 1956.18 261.552 Q1958.26 261.899 1960.02 262.594 Z" fill="#000000" fill-rule="nonzero" fill-opacity="1" /><path clip-path="url(#clip080)" d="M1990.37 273.728 L1990.37 275.811 L1970.79 275.811 Q1971.07 280.209 1973.43 282.524 Q1975.81 284.816 1980.05 284.816 Q1982.5 284.816 1984.79 284.214 Q1987.11 283.612 1989.38 282.409 L1989.38 286.436 Q1987.08 287.408 1984.68 287.918 Q1982.27 288.427 1979.79 288.427 Q1973.59 288.427 1969.95 284.816 Q1966.34 281.205 1966.34 275.047 Q1966.34 268.682 1969.77 264.955 Q1973.22 261.205 1979.05 261.205 Q1984.28 261.205 1987.32 264.585 Q1990.37 267.941 1990.37 273.728 M1986.11 272.478 Q1986.07 268.983 1984.14 266.899 Q1982.25 264.816 1979.1 264.816 Q1975.53 264.816 1973.38 266.83 Q1971.25 268.844 1970.93 272.501 L1986.11 272.478 Z" fill="#000000" fill-rule="nonzero" fill-opacity="1" /><path clip-path="url(#clip080)" d="M2012.38 265.811 Q2011.67 265.395 2010.81 265.21 Q2009.98 265.001 2008.96 265.001 Q2005.35 265.001 2003.4 267.362 Q2001.48 269.7 2001.48 274.098 L2001.48 287.756 L1997.2 287.756 L1997.2 261.83 L2001.48 261.83 L2001.48 265.858 Q2002.82 263.497 2004.98 262.362 Q2007.13 261.205 2010.21 261.205 Q2010.65 261.205 2011.18 261.274 Q2011.71 261.321 2012.36 261.436 L2012.38 265.811 Z" fill="#000000" fill-rule="nonzero" fill-opacity="1" /><path clip-path="url(#clip080)" d="M2013.8 261.83 L2018.31 261.83 L2026.41 283.589 L2034.51 261.83 L2039.03 261.83 L2029.31 287.756 L2023.52 287.756 L2013.8 261.83 Z" fill="#000000" fill-rule="nonzero" fill-opacity="1" /><path clip-path="url(#clip080)" d="M2067.08 273.728 L2067.08 275.811 L2047.5 275.811 Q2047.78 280.209 2050.14 282.524 Q2052.52 284.816 2056.76 284.816 Q2059.21 284.816 2061.5 284.214 Q2063.82 283.612 2066.09 282.409 L2066.09 286.436 Q2063.8 287.408 2061.39 287.918 Q2058.98 288.427 2056.5 288.427 Q2050.3 288.427 2046.67 284.816 Q2043.06 281.205 2043.06 275.047 Q2043.06 268.682 2046.48 264.955 Q2049.93 261.205 2055.76 261.205 Q2061 261.205 2064.03 264.585 Q2067.08 267.941 2067.08 273.728 M2062.82 272.478 Q2062.78 268.983 2060.86 266.899 Q2058.96 264.816 2055.81 264.816 Q2052.25 264.816 2050.09 266.83 Q2047.96 268.844 2047.64 272.501 L2062.82 272.478 Z" fill="#000000" fill-rule="nonzero" fill-opacity="1" /><path clip-path="url(#clip080)" d="M2091.13 265.765 L2091.13 251.737 L2095.39 251.737 L2095.39 287.756 L2091.13 287.756 L2091.13 283.867 Q2089.79 286.182 2087.73 287.316 Q2085.69 288.427 2082.82 288.427 Q2078.12 288.427 2075.16 284.677 Q2072.22 280.927 2072.22 274.816 Q2072.22 268.705 2075.16 264.955 Q2078.12 261.205 2082.82 261.205 Q2085.69 261.205 2087.73 262.339 Q2089.79 263.45 2091.13 265.765 M2076.62 274.816 Q2076.62 279.515 2078.54 282.2 Q2080.49 284.862 2083.87 284.862 Q2087.25 284.862 2089.19 282.2 Q2091.13 279.515 2091.13 274.816 Q2091.13 270.117 2089.19 267.455 Q2087.25 264.77 2083.87 264.77 Q2080.49 264.77 2078.54 267.455 Q2076.62 270.117 2076.62 274.816 Z" fill="#000000" fill-rule="nonzero" fill-opacity="1" /><path clip-path="url(#clip080)" d="M2124.1 257.038 L2124.1 283.913 L2129.74 283.913 Q2136.9 283.913 2140.21 280.672 Q2143.54 277.432 2143.54 270.441 Q2143.54 263.497 2140.21 260.279 Q2136.9 257.038 2129.74 257.038 L2124.1 257.038 M2119.42 253.196 L2129.03 253.196 Q2139.07 253.196 2143.77 257.386 Q2148.47 261.552 2148.47 270.441 Q2148.47 279.376 2143.75 283.566 Q2139.03 287.756 2129.03 287.756 L2119.42 287.756 L2119.42 253.196 Z" fill="#000000" fill-rule="nonzero" fill-opacity="1" /><path clip-path="url(#clip080)" d="M2167.52 274.723 Q2162.36 274.723 2160.37 275.904 Q2158.38 277.084 2158.38 279.932 Q2158.38 282.2 2159.86 283.543 Q2161.37 284.862 2163.93 284.862 Q2167.48 284.862 2169.61 282.362 Q2171.76 279.839 2171.76 275.672 L2171.76 274.723 L2167.52 274.723 M2176.02 272.964 L2176.02 287.756 L2171.76 287.756 L2171.76 283.821 Q2170.3 286.182 2168.12 287.316 Q2165.95 288.427 2162.8 288.427 Q2158.82 288.427 2156.46 286.205 Q2154.12 283.959 2154.12 280.209 Q2154.12 275.834 2157.04 273.612 Q2159.98 271.39 2165.79 271.39 L2171.76 271.39 L2171.76 270.973 Q2171.76 268.034 2169.81 266.436 Q2167.89 264.816 2164.4 264.816 Q2162.18 264.816 2160.07 265.348 Q2157.96 265.881 2156.02 266.946 L2156.02 263.01 Q2158.36 262.108 2160.55 261.668 Q2162.75 261.205 2164.84 261.205 Q2170.46 261.205 2173.24 264.122 Q2176.02 267.038 2176.02 272.964 Z" fill="#000000" fill-rule="nonzero" fill-opacity="1" /><path clip-path="url(#clip080)" d="M2189 254.469 L2189 261.83 L2197.78 261.83 L2197.78 265.14 L2189 265.14 L2189 279.214 Q2189 282.385 2189.86 283.288 Q2190.74 284.191 2193.4 284.191 L2197.78 284.191 L2197.78 287.756 L2193.4 287.756 Q2188.47 287.756 2186.6 285.927 Q2184.72 284.075 2184.72 279.214 L2184.72 265.14 L2181.6 265.14 L2181.6 261.83 L2184.72 261.83 L2184.72 254.469 L2189 254.469 Z" fill="#000000" fill-rule="nonzero" fill-opacity="1" /><path clip-path="url(#clip080)" d="M2215.16 274.723 Q2210 274.723 2208.01 275.904 Q2206.02 277.084 2206.02 279.932 Q2206.02 282.2 2207.5 283.543 Q2209 284.862 2211.57 284.862 Q2215.11 284.862 2217.24 282.362 Q2219.4 279.839 2219.4 275.672 L2219.4 274.723 L2215.16 274.723 M2223.66 272.964 L2223.66 287.756 L2219.4 287.756 L2219.4 283.821 Q2217.94 286.182 2215.76 287.316 Q2213.59 288.427 2210.44 288.427 Q2206.46 288.427 2204.1 286.205 Q2201.76 283.959 2201.76 280.209 Q2201.76 275.834 2204.68 273.612 Q2207.61 271.39 2213.43 271.39 L2219.4 271.39 L2219.4 270.973 Q2219.4 268.034 2217.45 266.436 Q2215.53 264.816 2212.04 264.816 Q2209.81 264.816 2207.71 265.348 Q2205.6 265.881 2203.66 266.946 L2203.66 263.01 Q2205.99 262.108 2208.19 261.668 Q2210.39 261.205 2212.48 261.205 Q2218.1 261.205 2220.88 264.122 Q2223.66 267.038 2223.66 272.964 Z" fill="#000000" fill-rule="nonzero" fill-opacity="1" /></svg>
