<?xml version="1.0" encoding="utf-8"?>
<svg xmlns="http://www.w3.org/2000/svg" xmlns:xlink="http://www.w3.org/1999/xlink" width="600" height="400" viewBox="0 0 2400 1600">
<defs>
  <clipPath id="clip880">
    <rect x="0" y="0" width="2400" height="1600"/>
  </clipPath>
</defs>
<path clip-path="url(#clip880)" d="M0 1600 L2400 1600 L2400 0 L0 0  Z" fill="#ffffff" fill-rule="evenodd" fill-opacity="1"/>
<defs>
  <clipPath id="clip881">
    <rect x="480" y="0" width="1681" height="1600"/>
  </clipPath>
</defs>
<path clip-path="url(#clip880)" d="M250.028 1423.18 L2352.76 1423.18 L2352.76 123.472 L250.028 123.472  Z" fill="#ffffff" fill-rule="evenodd" fill-opacity="1"/>
<defs>
  <clipPath id="clip882">
    <rect x="250" y="123" width="2104" height="1301"/>
  </clipPath>
</defs>
<polyline clip-path="url(#clip882)" style="stroke:#000000; stroke-linecap:round; stroke-linejoin:round; stroke-width:2; stroke-opacity:0.1; fill:none" points="303.618,1423.18 303.618,123.472 "/>
<polyline clip-path="url(#clip882)" style="stroke:#000000; stroke-linecap:round; stroke-linejoin:round; stroke-width:2; stroke-opacity:0.1; fill:none" points="895.769,1423.18 895.769,123.472 "/>
<polyline clip-path="url(#clip882)" style="stroke:#000000; stroke-linecap:round; stroke-linejoin:round; stroke-width:2; stroke-opacity:0.1; fill:none" points="1487.92,1423.18 1487.92,123.472 "/>
<polyline clip-path="url(#clip882)" style="stroke:#000000; stroke-linecap:round; stroke-linejoin:round; stroke-width:2; stroke-opacity:0.1; fill:none" points="2080.07,1423.18 2080.07,123.472 "/>
<polyline clip-path="url(#clip882)" style="stroke:#000000; stroke-linecap:round; stroke-linejoin:round; stroke-width:2; stroke-opacity:0.1; fill:none" points="250.028,1386.4 2352.76,1386.4 "/>
<polyline clip-path="url(#clip882)" style="stroke:#000000; stroke-linecap:round; stroke-linejoin:round; stroke-width:2; stroke-opacity:0.1; fill:none" points="250.028,1079.86 2352.76,1079.86 "/>
<polyline clip-path="url(#clip882)" style="stroke:#000000; stroke-linecap:round; stroke-linejoin:round; stroke-width:2; stroke-opacity:0.1; fill:none" points="250.028,773.326 2352.76,773.326 "/>
<polyline clip-path="url(#clip882)" style="stroke:#000000; stroke-linecap:round; stroke-linejoin:round; stroke-width:2; stroke-opacity:0.1; fill:none" points="250.028,466.791 2352.76,466.791 "/>
<polyline clip-path="url(#clip882)" style="stroke:#000000; stroke-linecap:round; stroke-linejoin:round; stroke-width:2; stroke-opacity:0.1; fill:none" points="250.028,160.256 2352.76,160.256 "/>
<polyline clip-path="url(#clip880)" style="stroke:#000000; stroke-linecap:round; stroke-linejoin:round; stroke-width:4; stroke-opacity:1; fill:none" points="250.028,1423.18 2352.76,1423.18 "/>
<polyline clip-path="url(#clip880)" style="stroke:#000000; stroke-linecap:round; stroke-linejoin:round; stroke-width:4; stroke-opacity:1; fill:none" points="303.618,1423.18 303.618,1404.28 "/>
<polyline clip-path="url(#clip880)" style="stroke:#000000; stroke-linecap:round; stroke-linejoin:round; stroke-width:4; stroke-opacity:1; fill:none" points="895.769,1423.18 895.769,1404.28 "/>
<polyline clip-path="url(#clip880)" style="stroke:#000000; stroke-linecap:round; stroke-linejoin:round; stroke-width:4; stroke-opacity:1; fill:none" points="1487.92,1423.18 1487.92,1404.28 "/>
<polyline clip-path="url(#clip880)" style="stroke:#000000; stroke-linecap:round; stroke-linejoin:round; stroke-width:4; stroke-opacity:1; fill:none" points="2080.07,1423.18 2080.07,1404.28 "/>
<path clip-path="url(#clip880)" d="M303.618 1454.1 Q300.007 1454.1 298.178 1457.66 Q296.372 1461.2 296.372 1468.33 Q296.372 1475.44 298.178 1479.01 Q300.007 1482.55 303.618 1482.55 Q307.252 1482.55 309.058 1479.01 Q310.886 1475.44 310.886 1468.33 Q310.886 1461.2 309.058 1457.66 Q307.252 1454.1 303.618 1454.1 M303.618 1450.39 Q309.428 1450.39 312.483 1455 Q315.562 1459.58 315.562 1468.33 Q315.562 1477.06 312.483 1481.67 Q309.428 1486.25 303.618 1486.25 Q297.808 1486.25 294.729 1481.67 Q291.673 1477.06 291.673 1468.33 Q291.673 1459.58 294.729 1455 Q297.808 1450.39 303.618 1450.39 Z" fill="#000000" fill-rule="nonzero" fill-opacity="1" /><path clip-path="url(#clip880)" d="M855.375 1481.64 L863.014 1481.64 L863.014 1455.28 L854.704 1456.95 L854.704 1452.69 L862.968 1451.02 L867.644 1451.02 L867.644 1481.64 L875.283 1481.64 L875.283 1485.58 L855.375 1485.58 L855.375 1481.64 Z" fill="#000000" fill-rule="nonzero" fill-opacity="1" /><path clip-path="url(#clip880)" d="M894.727 1454.1 Q891.116 1454.1 889.287 1457.66 Q887.482 1461.2 887.482 1468.33 Q887.482 1475.44 889.287 1479.01 Q891.116 1482.55 894.727 1482.55 Q898.361 1482.55 900.167 1479.01 Q901.995 1475.44 901.995 1468.33 Q901.995 1461.2 900.167 1457.66 Q898.361 1454.1 894.727 1454.1 M894.727 1450.39 Q900.537 1450.39 903.593 1455 Q906.671 1459.58 906.671 1468.33 Q906.671 1477.06 903.593 1481.67 Q900.537 1486.25 894.727 1486.25 Q888.917 1486.25 885.838 1481.67 Q882.783 1477.06 882.783 1468.33 Q882.783 1459.58 885.838 1455 Q888.917 1450.39 894.727 1450.39 Z" fill="#000000" fill-rule="nonzero" fill-opacity="1" /><path clip-path="url(#clip880)" d="M924.889 1454.1 Q921.278 1454.1 919.449 1457.66 Q917.644 1461.2 917.644 1468.33 Q917.644 1475.44 919.449 1479.01 Q921.278 1482.55 924.889 1482.55 Q928.523 1482.55 930.329 1479.01 Q932.157 1475.44 932.157 1468.33 Q932.157 1461.2 930.329 1457.66 Q928.523 1454.1 924.889 1454.1 M924.889 1450.39 Q930.699 1450.39 933.755 1455 Q936.833 1459.58 936.833 1468.33 Q936.833 1477.06 933.755 1481.67 Q930.699 1486.25 924.889 1486.25 Q919.079 1486.25 916 1481.67 Q912.945 1477.06 912.945 1468.33 Q912.945 1459.58 916 1455 Q919.079 1450.39 924.889 1450.39 Z" fill="#000000" fill-rule="nonzero" fill-opacity="1" /><path clip-path="url(#clip880)" d="M1451.61 1481.64 L1467.93 1481.64 L1467.93 1485.58 L1445.99 1485.58 L1445.99 1481.64 Q1448.65 1478.89 1453.23 1474.26 Q1457.84 1469.61 1459.02 1468.27 Q1461.26 1465.74 1462.14 1464.01 Q1463.05 1462.25 1463.05 1460.56 Q1463.05 1457.8 1461.1 1456.07 Q1459.18 1454.33 1456.08 1454.33 Q1453.88 1454.33 1451.43 1455.09 Q1449 1455.86 1446.22 1457.41 L1446.22 1452.69 Q1449.04 1451.55 1451.5 1450.97 Q1453.95 1450.39 1455.99 1450.39 Q1461.36 1450.39 1464.55 1453.08 Q1467.75 1455.77 1467.75 1460.26 Q1467.75 1462.39 1466.94 1464.31 Q1466.15 1466.2 1464.04 1468.8 Q1463.46 1469.47 1460.36 1472.69 Q1457.26 1475.88 1451.61 1481.64 Z" fill="#000000" fill-rule="nonzero" fill-opacity="1" /><path clip-path="url(#clip880)" d="M1487.75 1454.1 Q1484.13 1454.1 1482.31 1457.66 Q1480.5 1461.2 1480.5 1468.33 Q1480.5 1475.44 1482.31 1479.01 Q1484.13 1482.55 1487.75 1482.55 Q1491.38 1482.55 1493.19 1479.01 Q1495.01 1475.44 1495.01 1468.33 Q1495.01 1461.2 1493.19 1457.66 Q1491.38 1454.1 1487.75 1454.1 M1487.75 1450.39 Q1493.56 1450.39 1496.61 1455 Q1499.69 1459.58 1499.69 1468.33 Q1499.69 1477.06 1496.61 1481.67 Q1493.56 1486.25 1487.75 1486.25 Q1481.94 1486.25 1478.86 1481.67 Q1475.8 1477.06 1475.8 1468.33 Q1475.8 1459.58 1478.86 1455 Q1481.94 1450.39 1487.75 1450.39 Z" fill="#000000" fill-rule="nonzero" fill-opacity="1" /><path clip-path="url(#clip880)" d="M1517.91 1454.1 Q1514.3 1454.1 1512.47 1457.66 Q1510.66 1461.2 1510.66 1468.33 Q1510.66 1475.44 1512.47 1479.01 Q1514.3 1482.55 1517.91 1482.55 Q1521.54 1482.55 1523.35 1479.01 Q1525.18 1475.44 1525.18 1468.33 Q1525.18 1461.2 1523.35 1457.66 Q1521.54 1454.1 1517.91 1454.1 M1517.91 1450.39 Q1523.72 1450.39 1526.77 1455 Q1529.85 1459.58 1529.85 1468.33 Q1529.85 1477.06 1526.77 1481.67 Q1523.72 1486.25 1517.91 1486.25 Q1512.1 1486.25 1509.02 1481.67 Q1505.96 1477.06 1505.96 1468.33 Q1505.96 1459.58 1509.02 1455 Q1512.1 1450.39 1517.91 1450.39 Z" fill="#000000" fill-rule="nonzero" fill-opacity="1" /><path clip-path="url(#clip880)" d="M2053.83 1466.95 Q2057.19 1467.66 2059.06 1469.93 Q2060.96 1472.2 2060.96 1475.53 Q2060.96 1480.65 2057.44 1483.45 Q2053.92 1486.25 2047.44 1486.25 Q2045.27 1486.25 2042.95 1485.81 Q2040.66 1485.39 2038.21 1484.54 L2038.21 1480.02 Q2040.15 1481.16 2042.47 1481.74 Q2044.78 1482.32 2047.3 1482.32 Q2051.7 1482.32 2053.99 1480.58 Q2056.31 1478.84 2056.31 1475.53 Q2056.31 1472.48 2054.16 1470.77 Q2052.03 1469.03 2048.21 1469.03 L2044.18 1469.03 L2044.18 1465.19 L2048.39 1465.19 Q2051.84 1465.19 2053.67 1463.82 Q2055.5 1462.43 2055.5 1459.84 Q2055.5 1457.18 2053.6 1455.77 Q2051.73 1454.33 2048.21 1454.33 Q2046.29 1454.33 2044.09 1454.75 Q2041.89 1455.16 2039.25 1456.04 L2039.25 1451.88 Q2041.91 1451.14 2044.23 1450.77 Q2046.56 1450.39 2048.62 1450.39 Q2053.95 1450.39 2057.05 1452.83 Q2060.15 1455.23 2060.15 1459.35 Q2060.15 1462.22 2058.51 1464.21 Q2056.86 1466.18 2053.83 1466.95 Z" fill="#000000" fill-rule="nonzero" fill-opacity="1" /><path clip-path="url(#clip880)" d="M2079.83 1454.1 Q2076.22 1454.1 2074.39 1457.66 Q2072.58 1461.2 2072.58 1468.33 Q2072.58 1475.44 2074.39 1479.01 Q2076.22 1482.55 2079.83 1482.55 Q2083.46 1482.55 2085.27 1479.01 Q2087.1 1475.44 2087.1 1468.33 Q2087.1 1461.2 2085.27 1457.66 Q2083.46 1454.1 2079.83 1454.1 M2079.83 1450.39 Q2085.64 1450.39 2088.69 1455 Q2091.77 1459.58 2091.77 1468.33 Q2091.77 1477.06 2088.69 1481.67 Q2085.64 1486.25 2079.83 1486.25 Q2074.02 1486.25 2070.94 1481.67 Q2067.88 1477.06 2067.88 1468.33 Q2067.88 1459.58 2070.94 1455 Q2074.02 1450.39 2079.83 1450.39 Z" fill="#000000" fill-rule="nonzero" fill-opacity="1" /><path clip-path="url(#clip880)" d="M2109.99 1454.1 Q2106.38 1454.1 2104.55 1457.66 Q2102.74 1461.2 2102.74 1468.33 Q2102.74 1475.44 2104.55 1479.01 Q2106.38 1482.55 2109.99 1482.55 Q2113.62 1482.55 2115.43 1479.01 Q2117.26 1475.44 2117.26 1468.33 Q2117.26 1461.2 2115.43 1457.66 Q2113.62 1454.1 2109.99 1454.1 M2109.99 1450.39 Q2115.8 1450.39 2118.85 1455 Q2121.93 1459.58 2121.93 1468.33 Q2121.93 1477.06 2118.85 1481.67 Q2115.8 1486.25 2109.99 1486.25 Q2104.18 1486.25 2101.1 1481.67 Q2098.04 1477.06 2098.04 1468.33 Q2098.04 1459.58 2101.1 1455 Q2104.18 1450.39 2109.99 1450.39 Z" fill="#000000" fill-rule="nonzero" fill-opacity="1" /><path clip-path="url(#clip880)" d="M1223.27 1520.52 L1263.47 1520.52 L1263.47 1525.93 L1246.6 1525.93 L1246.6 1568.04 L1240.14 1568.04 L1240.14 1525.93 L1223.27 1525.93 L1223.27 1520.52 Z" fill="#000000" fill-rule="nonzero" fill-opacity="1" /><path clip-path="url(#clip880)" d="M1267.42 1532.4 L1273.27 1532.4 L1273.27 1568.04 L1267.42 1568.04 L1267.42 1532.4 M1267.42 1518.52 L1273.27 1518.52 L1273.27 1525.93 L1267.42 1525.93 L1267.42 1518.52 Z" fill="#000000" fill-rule="nonzero" fill-opacity="1" /><path clip-path="url(#clip880)" d="M1313.28 1539.24 Q1315.48 1535.29 1318.53 1533.41 Q1321.59 1531.54 1325.72 1531.54 Q1331.29 1531.54 1334.32 1535.45 Q1337.34 1539.33 1337.34 1546.53 L1337.34 1568.04 L1331.45 1568.04 L1331.45 1546.72 Q1331.45 1541.59 1329.64 1539.11 Q1327.83 1536.63 1324.1 1536.63 Q1319.55 1536.63 1316.91 1539.65 Q1314.27 1542.68 1314.27 1547.9 L1314.27 1568.04 L1308.38 1568.04 L1308.38 1546.72 Q1308.38 1541.56 1306.56 1539.11 Q1304.75 1536.63 1300.96 1536.63 Q1296.47 1536.63 1293.83 1539.68 Q1291.19 1542.71 1291.19 1547.9 L1291.19 1568.04 L1285.3 1568.04 L1285.3 1532.4 L1291.19 1532.4 L1291.19 1537.93 Q1293.2 1534.66 1296 1533.1 Q1298.8 1531.54 1302.65 1531.54 Q1306.53 1531.54 1309.24 1533.51 Q1311.98 1535.48 1313.28 1539.24 Z" fill="#000000" fill-rule="nonzero" fill-opacity="1" /><path clip-path="url(#clip880)" d="M1379.52 1548.76 L1379.52 1551.62 L1352.59 1551.62 Q1352.97 1557.67 1356.22 1560.85 Q1359.5 1564 1365.32 1564 Q1368.69 1564 1371.84 1563.17 Q1375.03 1562.35 1378.15 1560.69 L1378.15 1566.23 Q1375 1567.57 1371.69 1568.27 Q1368.38 1568.97 1364.97 1568.97 Q1356.44 1568.97 1351.44 1564 Q1346.48 1559.04 1346.48 1550.57 Q1346.48 1541.82 1351.19 1536.69 Q1355.93 1531.54 1363.95 1531.54 Q1371.14 1531.54 1375.31 1536.18 Q1379.52 1540.8 1379.52 1548.76 M1373.66 1547.04 Q1373.6 1542.23 1370.95 1539.37 Q1368.34 1536.5 1364.01 1536.5 Q1359.11 1536.5 1356.15 1539.27 Q1353.22 1542.04 1352.78 1547.07 L1373.66 1547.04 Z" fill="#000000" fill-rule="nonzero" fill-opacity="1" /><polyline clip-path="url(#clip880)" style="stroke:#000000; stroke-linecap:round; stroke-linejoin:round; stroke-width:4; stroke-opacity:1; fill:none" points="250.028,1423.18 250.028,123.472 "/>
<polyline clip-path="url(#clip880)" style="stroke:#000000; stroke-linecap:round; stroke-linejoin:round; stroke-width:4; stroke-opacity:1; fill:none" points="250.028,1386.4 268.926,1386.4 "/>
<polyline clip-path="url(#clip880)" style="stroke:#000000; stroke-linecap:round; stroke-linejoin:round; stroke-width:4; stroke-opacity:1; fill:none" points="250.028,1079.86 268.926,1079.86 "/>
<polyline clip-path="url(#clip880)" style="stroke:#000000; stroke-linecap:round; stroke-linejoin:round; stroke-width:4; stroke-opacity:1; fill:none" points="250.028,773.326 268.926,773.326 "/>
<polyline clip-path="url(#clip880)" style="stroke:#000000; stroke-linecap:round; stroke-linejoin:round; stroke-width:4; stroke-opacity:1; fill:none" points="250.028,466.791 268.926,466.791 "/>
<polyline clip-path="url(#clip880)" style="stroke:#000000; stroke-linecap:round; stroke-linejoin:round; stroke-width:4; stroke-opacity:1; fill:none" points="250.028,160.256 268.926,160.256 "/>
<path clip-path="url(#clip880)" d="M126.691 1372.19 Q123.08 1372.19 121.251 1375.76 Q119.445 1379.3 119.445 1386.43 Q119.445 1393.54 121.251 1397.1 Q123.08 1400.64 126.691 1400.64 Q130.325 1400.64 132.13 1397.1 Q133.959 1393.54 133.959 1386.43 Q133.959 1379.3 132.13 1375.76 Q130.325 1372.19 126.691 1372.19 M126.691 1368.49 Q132.501 1368.49 135.556 1373.1 Q138.635 1377.68 138.635 1386.43 Q138.635 1395.16 135.556 1399.76 Q132.501 1404.35 126.691 1404.35 Q120.88 1404.35 117.802 1399.76 Q114.746 1395.16 114.746 1386.43 Q114.746 1377.68 117.802 1373.1 Q120.88 1368.49 126.691 1368.49 Z" fill="#000000" fill-rule="nonzero" fill-opacity="1" /><path clip-path="url(#clip880)" d="M146.853 1397.8 L151.737 1397.8 L151.737 1403.68 L146.853 1403.68 L146.853 1397.8 Z" fill="#000000" fill-rule="nonzero" fill-opacity="1" /><path clip-path="url(#clip880)" d="M171.922 1372.19 Q168.311 1372.19 166.482 1375.76 Q164.677 1379.3 164.677 1386.43 Q164.677 1393.54 166.482 1397.1 Q168.311 1400.64 171.922 1400.64 Q175.556 1400.64 177.362 1397.1 Q179.19 1393.54 179.19 1386.43 Q179.19 1379.3 177.362 1375.76 Q175.556 1372.19 171.922 1372.19 M171.922 1368.49 Q177.732 1368.49 180.788 1373.1 Q183.866 1377.68 183.866 1386.43 Q183.866 1395.16 180.788 1399.76 Q177.732 1404.35 171.922 1404.35 Q166.112 1404.35 163.033 1399.76 Q159.978 1395.16 159.978 1386.43 Q159.978 1377.68 163.033 1373.1 Q166.112 1368.49 171.922 1368.49 Z" fill="#000000" fill-rule="nonzero" fill-opacity="1" /><path clip-path="url(#clip880)" d="M202.084 1372.19 Q198.473 1372.19 196.644 1375.76 Q194.838 1379.3 194.838 1386.43 Q194.838 1393.54 196.644 1397.1 Q198.473 1400.64 202.084 1400.64 Q205.718 1400.64 207.524 1397.1 Q209.352 1393.54 209.352 1386.43 Q209.352 1379.3 207.524 1375.76 Q205.718 1372.19 202.084 1372.19 M202.084 1368.49 Q207.894 1368.49 210.949 1373.1 Q214.028 1377.68 214.028 1386.43 Q214.028 1395.16 210.949 1399.76 Q207.894 1404.35 202.084 1404.35 Q196.274 1404.35 193.195 1399.76 Q190.139 1395.16 190.139 1386.43 Q190.139 1377.68 193.195 1373.1 Q196.274 1368.49 202.084 1368.49 Z" fill="#000000" fill-rule="nonzero" fill-opacity="1" /><path clip-path="url(#clip880)" d="M128.288 1065.66 Q124.677 1065.66 122.848 1069.22 Q121.043 1072.77 121.043 1079.9 Q121.043 1087 122.848 1090.57 Q124.677 1094.11 128.288 1094.11 Q131.922 1094.11 133.728 1090.57 Q135.556 1087 135.556 1079.9 Q135.556 1072.77 133.728 1069.22 Q131.922 1065.66 128.288 1065.66 M128.288 1061.96 Q134.098 1061.96 137.154 1066.56 Q140.232 1071.15 140.232 1079.9 Q140.232 1088.62 137.154 1093.23 Q134.098 1097.81 128.288 1097.81 Q122.478 1097.81 119.399 1093.23 Q116.343 1088.62 116.343 1079.9 Q116.343 1071.15 119.399 1066.56 Q122.478 1061.96 128.288 1061.96 Z" fill="#000000" fill-rule="nonzero" fill-opacity="1" /><path clip-path="url(#clip880)" d="M148.45 1091.26 L153.334 1091.26 L153.334 1097.14 L148.45 1097.14 L148.45 1091.26 Z" fill="#000000" fill-rule="nonzero" fill-opacity="1" /><path clip-path="url(#clip880)" d="M173.519 1065.66 Q169.908 1065.66 168.079 1069.22 Q166.274 1072.77 166.274 1079.9 Q166.274 1087 168.079 1090.57 Q169.908 1094.11 173.519 1094.11 Q177.153 1094.11 178.959 1090.57 Q180.788 1087 180.788 1079.9 Q180.788 1072.77 178.959 1069.22 Q177.153 1065.66 173.519 1065.66 M173.519 1061.96 Q179.329 1061.96 182.385 1066.56 Q185.463 1071.15 185.463 1079.9 Q185.463 1088.62 182.385 1093.23 Q179.329 1097.81 173.519 1097.81 Q167.709 1097.81 164.63 1093.23 Q161.575 1088.62 161.575 1079.9 Q161.575 1071.15 164.63 1066.56 Q167.709 1061.96 173.519 1061.96 Z" fill="#000000" fill-rule="nonzero" fill-opacity="1" /><path clip-path="url(#clip880)" d="M197.709 1093.21 L214.028 1093.21 L214.028 1097.14 L192.084 1097.14 L192.084 1093.21 Q194.746 1090.45 199.329 1085.82 Q203.936 1081.17 205.116 1079.83 Q207.362 1077.3 208.241 1075.57 Q209.144 1073.81 209.144 1072.12 Q209.144 1069.36 207.199 1067.63 Q205.278 1065.89 202.176 1065.89 Q199.977 1065.89 197.524 1066.65 Q195.093 1067.42 192.315 1068.97 L192.315 1064.25 Q195.139 1063.11 197.593 1062.53 Q200.047 1061.96 202.084 1061.96 Q207.454 1061.96 210.649 1064.64 Q213.843 1067.33 213.843 1071.82 Q213.843 1073.95 213.033 1075.87 Q212.246 1077.77 210.139 1080.36 Q209.561 1081.03 206.459 1084.25 Q203.357 1087.44 197.709 1093.21 Z" fill="#000000" fill-rule="nonzero" fill-opacity="1" /><path clip-path="url(#clip880)" d="M126.205 759.125 Q122.593 759.125 120.765 762.689 Q118.959 766.231 118.959 773.361 Q118.959 780.467 120.765 784.032 Q122.593 787.574 126.205 787.574 Q129.839 787.574 131.644 784.032 Q133.473 780.467 133.473 773.361 Q133.473 766.231 131.644 762.689 Q129.839 759.125 126.205 759.125 M126.205 755.421 Q132.015 755.421 135.07 760.027 Q138.149 764.611 138.149 773.361 Q138.149 782.088 135.07 786.694 Q132.015 791.277 126.205 791.277 Q120.394 791.277 117.316 786.694 Q114.26 782.088 114.26 773.361 Q114.26 764.611 117.316 760.027 Q120.394 755.421 126.205 755.421 Z" fill="#000000" fill-rule="nonzero" fill-opacity="1" /><path clip-path="url(#clip880)" d="M146.366 784.726 L151.251 784.726 L151.251 790.606 L146.366 790.606 L146.366 784.726 Z" fill="#000000" fill-rule="nonzero" fill-opacity="1" /><path clip-path="url(#clip880)" d="M171.436 759.125 Q167.825 759.125 165.996 762.689 Q164.19 766.231 164.19 773.361 Q164.19 780.467 165.996 784.032 Q167.825 787.574 171.436 787.574 Q175.07 787.574 176.876 784.032 Q178.704 780.467 178.704 773.361 Q178.704 766.231 176.876 762.689 Q175.07 759.125 171.436 759.125 M171.436 755.421 Q177.246 755.421 180.301 760.027 Q183.38 764.611 183.38 773.361 Q183.38 782.088 180.301 786.694 Q177.246 791.277 171.436 791.277 Q165.626 791.277 162.547 786.694 Q159.491 782.088 159.491 773.361 Q159.491 764.611 162.547 760.027 Q165.626 755.421 171.436 755.421 Z" fill="#000000" fill-rule="nonzero" fill-opacity="1" /><path clip-path="url(#clip880)" d="M204.445 760.12 L192.639 778.569 L204.445 778.569 L204.445 760.12 M203.218 756.046 L209.098 756.046 L209.098 778.569 L214.028 778.569 L214.028 782.458 L209.098 782.458 L209.098 790.606 L204.445 790.606 L204.445 782.458 L188.843 782.458 L188.843 777.944 L203.218 756.046 Z" fill="#000000" fill-rule="nonzero" fill-opacity="1" /><path clip-path="url(#clip880)" d="M126.529 452.59 Q122.918 452.59 121.089 456.155 Q119.283 459.696 119.283 466.826 Q119.283 473.932 121.089 477.497 Q122.918 481.039 126.529 481.039 Q130.163 481.039 131.968 477.497 Q133.797 473.932 133.797 466.826 Q133.797 459.696 131.968 456.155 Q130.163 452.59 126.529 452.59 M126.529 448.886 Q132.339 448.886 135.394 453.493 Q138.473 458.076 138.473 466.826 Q138.473 475.553 135.394 480.159 Q132.339 484.742 126.529 484.742 Q120.718 484.742 117.64 480.159 Q114.584 475.553 114.584 466.826 Q114.584 458.076 117.64 453.493 Q120.718 448.886 126.529 448.886 Z" fill="#000000" fill-rule="nonzero" fill-opacity="1" /><path clip-path="url(#clip880)" d="M146.691 478.192 L151.575 478.192 L151.575 484.071 L146.691 484.071 L146.691 478.192 Z" fill="#000000" fill-rule="nonzero" fill-opacity="1" /><path clip-path="url(#clip880)" d="M171.76 452.59 Q168.149 452.59 166.32 456.155 Q164.515 459.696 164.515 466.826 Q164.515 473.932 166.32 477.497 Q168.149 481.039 171.76 481.039 Q175.394 481.039 177.2 477.497 Q179.028 473.932 179.028 466.826 Q179.028 459.696 177.2 456.155 Q175.394 452.59 171.76 452.59 M171.76 448.886 Q177.57 448.886 180.626 453.493 Q183.704 458.076 183.704 466.826 Q183.704 475.553 180.626 480.159 Q177.57 484.742 171.76 484.742 Q165.95 484.742 162.871 480.159 Q159.815 475.553 159.815 466.826 Q159.815 458.076 162.871 453.493 Q165.95 448.886 171.76 448.886 Z" fill="#000000" fill-rule="nonzero" fill-opacity="1" /><path clip-path="url(#clip880)" d="M202.5 464.928 Q199.352 464.928 197.5 467.08 Q195.672 469.233 195.672 472.983 Q195.672 476.71 197.5 478.886 Q199.352 481.039 202.5 481.039 Q205.649 481.039 207.477 478.886 Q209.329 476.71 209.329 472.983 Q209.329 469.233 207.477 467.08 Q205.649 464.928 202.5 464.928 M211.783 450.275 L211.783 454.534 Q210.024 453.701 208.218 453.261 Q206.436 452.821 204.676 452.821 Q200.047 452.821 197.593 455.946 Q195.163 459.071 194.815 465.391 Q196.181 463.377 198.241 462.312 Q200.301 461.224 202.778 461.224 Q207.987 461.224 210.996 464.395 Q214.028 467.543 214.028 472.983 Q214.028 478.307 210.88 481.525 Q207.732 484.742 202.5 484.742 Q196.505 484.742 193.334 480.159 Q190.163 475.553 190.163 466.826 Q190.163 458.631 194.051 453.77 Q197.94 448.886 204.491 448.886 Q206.25 448.886 208.033 449.233 Q209.838 449.581 211.783 450.275 Z" fill="#000000" fill-rule="nonzero" fill-opacity="1" /><path clip-path="url(#clip880)" d="M126.783 146.055 Q123.172 146.055 121.343 149.62 Q119.538 153.161 119.538 160.291 Q119.538 167.397 121.343 170.962 Q123.172 174.504 126.783 174.504 Q130.417 174.504 132.223 170.962 Q134.052 167.397 134.052 160.291 Q134.052 153.161 132.223 149.62 Q130.417 146.055 126.783 146.055 M126.783 142.351 Q132.593 142.351 135.649 146.958 Q138.728 151.541 138.728 160.291 Q138.728 169.018 135.649 173.624 Q132.593 178.208 126.783 178.208 Q120.973 178.208 117.894 173.624 Q114.839 169.018 114.839 160.291 Q114.839 151.541 117.894 146.958 Q120.973 142.351 126.783 142.351 Z" fill="#000000" fill-rule="nonzero" fill-opacity="1" /><path clip-path="url(#clip880)" d="M146.945 171.657 L151.829 171.657 L151.829 177.536 L146.945 177.536 L146.945 171.657 Z" fill="#000000" fill-rule="nonzero" fill-opacity="1" /><path clip-path="url(#clip880)" d="M172.014 146.055 Q168.403 146.055 166.575 149.62 Q164.769 153.161 164.769 160.291 Q164.769 167.397 166.575 170.962 Q168.403 174.504 172.014 174.504 Q175.649 174.504 177.454 170.962 Q179.283 167.397 179.283 160.291 Q179.283 153.161 177.454 149.62 Q175.649 146.055 172.014 146.055 M172.014 142.351 Q177.825 142.351 180.88 146.958 Q183.959 151.541 183.959 160.291 Q183.959 169.018 180.88 173.624 Q177.825 178.208 172.014 178.208 Q166.204 178.208 163.126 173.624 Q160.07 169.018 160.07 160.291 Q160.07 151.541 163.126 146.958 Q166.204 142.351 172.014 142.351 Z" fill="#000000" fill-rule="nonzero" fill-opacity="1" /><path clip-path="url(#clip880)" d="M202.176 161.124 Q198.843 161.124 196.922 162.907 Q195.024 164.689 195.024 167.814 Q195.024 170.939 196.922 172.722 Q198.843 174.504 202.176 174.504 Q205.51 174.504 207.431 172.722 Q209.352 170.916 209.352 167.814 Q209.352 164.689 207.431 162.907 Q205.533 161.124 202.176 161.124 M197.5 159.134 Q194.491 158.393 192.801 156.333 Q191.135 154.273 191.135 151.31 Q191.135 147.166 194.075 144.759 Q197.037 142.351 202.176 142.351 Q207.338 142.351 210.278 144.759 Q213.218 147.166 213.218 151.31 Q213.218 154.273 211.528 156.333 Q209.861 158.393 206.875 159.134 Q210.255 159.921 212.13 162.212 Q214.028 164.504 214.028 167.814 Q214.028 172.837 210.949 175.522 Q207.894 178.208 202.176 178.208 Q196.459 178.208 193.38 175.522 Q190.325 172.837 190.325 167.814 Q190.325 164.504 192.223 162.212 Q194.121 159.921 197.5 159.134 M195.787 151.749 Q195.787 154.435 197.454 155.939 Q199.144 157.444 202.176 157.444 Q205.186 157.444 206.875 155.939 Q208.588 154.435 208.588 151.749 Q208.588 149.064 206.875 147.56 Q205.186 146.055 202.176 146.055 Q199.144 146.055 197.454 147.56 Q195.787 149.064 195.787 151.749 Z" fill="#000000" fill-rule="nonzero" fill-opacity="1" /><path clip-path="url(#clip880)" d="M20.1444 820.225 L26.9239 820.225 Q23.9002 823.472 22.4043 827.164 Q20.9083 830.824 20.9083 834.962 Q20.9083 843.11 25.9054 847.439 Q30.8707 851.767 40.2919 851.767 Q49.6813 851.767 54.6784 847.439 Q59.6436 843.11 59.6436 834.962 Q59.6436 830.824 58.1477 827.164 Q56.6518 823.472 53.6281 820.225 L60.3439 820.225 Q62.6355 823.599 63.7814 827.387 Q64.9272 831.143 64.9272 835.344 Q64.9272 846.134 58.3387 852.34 Q51.7183 858.547 40.2919 858.547 Q28.8336 858.547 22.2451 852.34 Q15.6248 846.134 15.6248 835.344 Q15.6248 831.079 16.7706 827.323 Q17.8846 823.535 20.1444 820.225 Z" fill="#000000" fill-rule="nonzero" fill-opacity="1" /><path clip-path="url(#clip880)" d="M16.4842 816.883 L16.4842 776.684 L21.895 776.684 L21.895 793.553 L64.0042 793.553 L64.0042 800.014 L21.895 800.014 L21.895 816.883 L16.4842 816.883 Z" fill="#000000" fill-rule="nonzero" fill-opacity="1" /><path clip-path="url(#clip880)" d="M16.4842 770.477 L16.4842 761.82 L56.238 740.749 L16.4842 740.749 L16.4842 734.511 L64.0042 734.511 L64.0042 743.168 L24.2503 764.239 L64.0042 764.239 L64.0042 770.477 L16.4842 770.477 Z" fill="#000000" fill-rule="nonzero" fill-opacity="1" /><path clip-path="url(#clip880)" d="M16.4842 728.305 L16.4842 688.105 L21.895 688.105 L21.895 704.974 L64.0042 704.974 L64.0042 711.435 L21.895 711.435 L21.895 728.305 L16.4842 728.305 Z" fill="#000000" fill-rule="nonzero" fill-opacity="1" /><path clip-path="url(#clip880)" d="M1080.27 18.8205 L1080.27 41.5461 L1090.56 41.5461 Q1096.27 41.5461 1099.39 38.5889 Q1102.51 35.6318 1102.51 30.163 Q1102.51 24.7348 1099.39 21.7777 Q1096.27 18.8205 1090.56 18.8205 L1080.27 18.8205 M1072.09 12.096 L1090.56 12.096 Q1100.73 12.096 1105.92 16.714 Q1111.14 21.2916 1111.14 30.163 Q1111.14 39.1155 1105.92 43.6931 Q1100.73 48.2706 1090.56 48.2706 L1080.27 48.2706 L1080.27 72.576 L1072.09 72.576 L1072.09 12.096 Z" fill="#000000" fill-rule="nonzero" fill-opacity="1" /><path clip-path="url(#clip880)" d="M1138.69 49.7694 Q1129.65 49.7694 1126.17 51.8354 Q1122.69 53.9013 1122.69 58.8839 Q1122.69 62.8538 1125.28 65.2034 Q1127.91 67.5124 1132.41 67.5124 Q1138.61 67.5124 1142.33 63.1374 Q1146.1 58.7219 1146.1 51.4303 L1146.1 49.7694 L1138.69 49.7694 M1153.55 46.6907 L1153.55 72.576 L1146.1 72.576 L1146.1 65.6895 Q1143.55 69.8214 1139.74 71.8063 Q1135.93 73.7508 1130.42 73.7508 Q1123.46 73.7508 1119.32 69.8619 Q1115.23 65.9325 1115.23 59.3701 Q1115.23 51.7138 1120.34 47.825 Q1125.48 43.9361 1135.65 43.9361 L1146.1 43.9361 L1146.1 43.2069 Q1146.1 38.0623 1142.7 35.2672 Q1139.34 32.4315 1133.22 32.4315 Q1129.33 32.4315 1125.64 33.3632 Q1121.96 34.295 1118.55 36.1584 L1118.55 29.2718 Q1122.65 27.692 1126.49 26.9223 Q1130.34 26.1121 1133.99 26.1121 Q1143.83 26.1121 1148.69 31.2163 Q1153.55 36.3204 1153.55 46.6907 Z" fill="#000000" fill-rule="nonzero" fill-opacity="1" /><path clip-path="url(#clip880)" d="M1176.28 14.324 L1176.28 27.2059 L1191.63 27.2059 L1191.63 32.9987 L1176.28 32.9987 L1176.28 57.6282 Q1176.28 63.1779 1177.78 64.7578 Q1179.32 66.3376 1183.98 66.3376 L1191.63 66.3376 L1191.63 72.576 L1183.98 72.576 Q1175.35 72.576 1172.07 69.3758 Q1168.79 66.1351 1168.79 57.6282 L1168.79 32.9987 L1163.32 32.9987 L1163.32 27.2059 L1168.79 27.2059 L1168.79 14.324 L1176.28 14.324 Z" fill="#000000" fill-rule="nonzero" fill-opacity="1" /><path clip-path="url(#clip880)" d="M1201.44 27.2059 L1208.89 27.2059 L1208.89 72.576 L1201.44 72.576 L1201.44 27.2059 M1201.44 9.54393 L1208.89 9.54393 L1208.89 18.9825 L1201.44 18.9825 L1201.44 9.54393 Z" fill="#000000" fill-rule="nonzero" fill-opacity="1" /><path clip-path="url(#clip880)" d="M1263.29 48.0275 L1263.29 51.6733 L1229.02 51.6733 Q1229.51 59.3701 1233.64 63.421 Q1237.81 67.4314 1245.23 67.4314 Q1249.52 67.4314 1253.53 66.3781 Q1257.58 65.3249 1261.55 63.2184 L1261.55 70.267 Q1257.54 71.9684 1253.33 72.8596 Q1249.12 73.7508 1244.78 73.7508 Q1233.92 73.7508 1227.56 67.4314 Q1221.24 61.1119 1221.24 50.3365 Q1221.24 39.1965 1227.24 32.6746 Q1233.28 26.1121 1243.48 26.1121 Q1252.64 26.1121 1257.95 32.0264 Q1263.29 37.9003 1263.29 48.0275 M1255.84 45.84 Q1255.76 39.7232 1252.4 36.0774 Q1249.07 32.4315 1243.57 32.4315 Q1237.33 32.4315 1233.56 35.9558 Q1229.83 39.4801 1229.27 45.8805 L1255.84 45.84 Z" fill="#000000" fill-rule="nonzero" fill-opacity="1" /><path clip-path="url(#clip880)" d="M1313.24 45.1919 L1313.24 72.576 L1305.79 72.576 L1305.79 45.4349 Q1305.79 38.994 1303.28 35.7938 Q1300.76 32.5936 1295.74 32.5936 Q1289.71 32.5936 1286.22 36.4419 Q1282.74 40.2903 1282.74 46.9338 L1282.74 72.576 L1275.24 72.576 L1275.24 27.2059 L1282.74 27.2059 L1282.74 34.2544 Q1285.41 30.163 1289.02 28.1376 Q1292.66 26.1121 1297.4 26.1121 Q1305.22 26.1121 1309.23 30.9732 Q1313.24 35.7938 1313.24 45.1919 Z" fill="#000000" fill-rule="nonzero" fill-opacity="1" /><path clip-path="url(#clip880)" d="M1335.48 14.324 L1335.48 27.2059 L1350.83 27.2059 L1350.83 32.9987 L1335.48 32.9987 L1335.48 57.6282 Q1335.48 63.1779 1336.98 64.7578 Q1338.52 66.3376 1343.18 66.3376 L1350.83 66.3376 L1350.83 72.576 L1343.18 72.576 Q1334.55 72.576 1331.27 69.3758 Q1327.99 66.1351 1327.99 57.6282 L1327.99 32.9987 L1322.52 32.9987 L1322.52 27.2059 L1327.99 27.2059 L1327.99 14.324 L1335.48 14.324 Z" fill="#000000" fill-rule="nonzero" fill-opacity="1" /><path clip-path="url(#clip880)" d="M1424.72 45.1919 L1424.72 72.576 L1417.27 72.576 L1417.27 45.4349 Q1417.27 38.994 1414.76 35.7938 Q1412.25 32.5936 1407.22 32.5936 Q1401.19 32.5936 1397.7 36.4419 Q1394.22 40.2903 1394.22 46.9338 L1394.22 72.576 L1386.72 72.576 L1386.72 27.2059 L1394.22 27.2059 L1394.22 34.2544 Q1396.89 30.163 1400.5 28.1376 Q1404.14 26.1121 1408.88 26.1121 Q1416.7 26.1121 1420.71 30.9732 Q1424.72 35.7938 1424.72 45.1919 Z" fill="#000000" fill-rule="nonzero" fill-opacity="1" /><path clip-path="url(#clip880)" d="M1440.72 12.096 L1472.85 12.096 L1472.85 18.9825 L1448.22 18.9825 L1448.22 33.8088 Q1450 33.2012 1451.78 32.9176 Q1453.56 32.5936 1455.35 32.5936 Q1465.47 32.5936 1471.39 38.1433 Q1477.3 43.6931 1477.3 53.1722 Q1477.3 62.9348 1471.23 68.3631 Q1465.15 73.7508 1454.09 73.7508 Q1450.28 73.7508 1446.31 73.1026 Q1442.38 72.4545 1438.17 71.1582 L1438.17 62.9348 Q1441.82 64.9198 1445.71 65.892 Q1449.59 66.8642 1453.93 66.8642 Q1460.94 66.8642 1465.03 63.1779 Q1469.12 59.4916 1469.12 53.1722 Q1469.12 46.8528 1465.03 43.1664 Q1460.94 39.4801 1453.93 39.4801 Q1450.65 39.4801 1447.37 40.2093 Q1444.13 40.9384 1440.72 42.4778 L1440.72 12.096 Z" fill="#000000" fill-rule="nonzero" fill-opacity="1" /><path clip-path="url(#clip880)" d="M1518.22 39.9662 Q1524.09 41.222 1527.37 45.1919 Q1530.69 49.1618 1530.69 54.9951 Q1530.69 63.9476 1524.54 68.8492 Q1518.38 73.7508 1507.04 73.7508 Q1503.23 73.7508 1499.18 72.9811 Q1495.17 72.2519 1490.87 70.7531 L1490.87 62.8538 Q1494.28 64.8388 1498.33 65.8515 Q1502.38 66.8642 1506.79 66.8642 Q1514.49 66.8642 1518.5 63.826 Q1522.55 60.7879 1522.55 54.9951 Q1522.55 49.6479 1518.78 46.6502 Q1515.06 43.612 1508.37 43.612 L1501.32 43.612 L1501.32 36.8875 L1508.7 36.8875 Q1514.73 36.8875 1517.93 34.4975 Q1521.13 32.067 1521.13 27.5299 Q1521.13 22.8714 1517.81 20.4004 Q1514.53 17.8888 1508.37 17.8888 Q1505.01 17.8888 1501.16 18.618 Q1497.31 19.3471 1492.7 20.8865 L1492.7 13.5948 Q1497.35 12.2985 1501.41 11.6504 Q1505.5 11.0023 1509.1 11.0023 Q1518.42 11.0023 1523.85 15.2557 Q1529.28 19.4686 1529.28 26.6793 Q1529.28 31.7024 1526.4 35.1862 Q1523.52 38.6294 1518.22 39.9662 Z" fill="#000000" fill-rule="nonzero" fill-opacity="1" /><polyline clip-path="url(#clip882)" style="stroke:#009af9; stroke-linecap:round; stroke-linejoin:round; stroke-width:8; stroke-opacity:1; fill:none" points="309.539,1386.4 315.461,896.199 321.382,706.832 327.304,598.242 333.225,527.642 339.147,480.469 345.068,448.817 350.99,427.609 356.911,413.441 362.833,404.044 368.754,397.844 374.676,393.846 380.597,391.235 386.519,389.757 392.44,388.709 398.362,388.421 404.283,388.151 410.205,388.412 416.126,388.409 422.048,389.032 427.969,389.115 433.891,389.65 439.812,390.068 445.734,390.45 451.656,391.042 457.577,391.387 463.499,391.986 469.42,392.418 475.342,392.88 481.263,393.373 487.185,393.882 493.106,394.383 499.028,394.881 504.949,395.375 510.871,395.866 516.792,396.357 522.714,396.849 528.635,397.341 534.557,397.834 540.478,398.326 546.4,398.818 552.321,399.31 558.243,399.803 564.164,400.295 570.086,400.787 576.007,401.279 581.929,401.77 587.85,402.261 593.772,402.752 599.693,403.242 605.615,403.732 611.536,404.222 617.458,404.712 623.379,405.201 629.301,405.69 635.222,406.179 641.144,406.668 647.065,407.156 652.987,407.644 658.908,408.132 664.83,408.62 670.751,409.107 676.673,409.594 682.594,410.081 688.516,410.568 694.437,411.054 700.359,411.54 706.28,412.026 712.202,412.512 718.123,412.997 724.045,413.482 729.966,413.967 735.888,414.452 741.809,414.936 747.731,415.421 753.652,415.905 759.574,416.388 765.495,416.872 771.417,417.355 777.338,417.838 783.26,418.321 789.182,418.804 795.103,419.286 801.025,419.768 806.946,420.25 812.868,420.732 818.789,421.213 824.711,421.694 830.632,422.175 836.554,422.656 842.475,423.136 848.397,423.616 854.318,424.096 860.24,424.576 866.161,425.055 872.083,425.535 878.004,426.014 883.926,426.492 889.847,426.971 895.769,427.449 901.69,427.927 907.612,428.405 913.533,428.883 919.455,429.36 925.376,429.837 931.298,430.314 937.219,430.791 943.141,431.267 949.062,431.743 954.984,432.219 960.905,432.695 966.827,433.17 972.748,433.645 978.67,434.12 984.591,434.595 990.513,435.07 996.434,435.544 1002.36,436.018 1008.28,436.492 1014.2,436.965 1020.12,437.439 1026.04,437.912 1031.96,438.385 1037.88,438.857 1043.81,439.329 1049.73,439.802 1055.65,440.273 1061.57,440.745 1067.49,441.217 1073.41,441.688 1079.34,442.159 1085.26,442.629 1091.18,443.1 1097.1,443.57 1103.02,444.04 1108.94,444.51 1114.86,444.979 1120.79,445.448 1126.71,445.917 1132.63,446.385 1138.55,446.854 1144.47,447.322 1150.39,447.79 1156.32,448.257 1162.24,448.725 1168.16,449.192 1174.08,449.659 1180,450.126 1185.92,450.592 1191.84,451.059 1197.77,451.525 1203.69,451.991 1209.61,452.456 1215.53,452.922 1221.45,453.387 1227.37,453.852 1233.29,454.317 1239.22,454.781 1245.14,455.246 1251.06,455.71 1256.98,456.174 1262.9,456.637 1268.82,457.101 1274.75,457.564 1280.67,458.027 1286.59,458.49 1292.51,458.952 1298.43,459.415 1304.35,459.877 1310.27,460.339 1316.2,460.8 1322.12,461.262 1328.04,461.723 1333.96,462.184 1339.88,462.645 1345.8,463.105 1351.72,463.566 1357.65,464.026 1363.57,464.486 1369.49,464.945 1375.41,465.405 1381.33,465.864 1387.25,466.323 1393.18,466.782 1399.1,467.24 1405.02,467.698 1410.94,468.156 1416.86,468.614 1422.78,469.072 1428.7,469.529 1434.63,469.987 1440.55,470.444 1446.47,470.9 1452.39,471.357 1458.31,471.813 1464.23,472.269 1470.16,472.725 1476.08,473.181 1482,473.636 1487.92,474.091 1493.84,474.546 1499.76,475.001 1505.68,475.456 1511.61,475.91 1517.53,476.364 1523.45,476.818 1529.37,477.271 1535.29,477.725 1541.21,478.178 1547.13,478.631 1553.06,479.084 1558.98,479.536 1564.9,479.989 1570.82,480.441 1576.74,480.892 1582.66,481.344 1588.59,481.795 1594.51,482.247 1600.43,482.698 1606.35,483.148 1612.27,483.599 1618.19,484.049 1624.11,484.499 1630.04,484.949 1635.96,485.399 1641.88,485.848 1647.8,486.297 1653.72,486.746 1659.64,487.195 1665.56,487.643 1671.49,488.092 1677.41,488.54 1683.33,488.988 1689.25,489.435 1695.17,489.883 1701.09,490.33 1707.02,490.777 1712.94,491.223 1718.86,491.67 1724.78,492.116 1730.7,492.562 1736.62,493.008 1742.54,493.454 1748.47,493.899 1754.39,494.344 1760.31,494.789 1766.23,495.234 1772.15,495.678 1778.07,496.123 1783.99,496.567 1789.92,497.011 1795.84,497.454 1801.76,497.898 1807.68,498.341 1813.6,498.784 1819.52,499.226 1825.45,499.669 1831.37,500.111 1837.29,500.553 1843.21,500.995 1849.13,501.437 1855.05,501.878 1860.97,502.319 1866.9,502.76 1872.82,503.201 1878.74,503.641 1884.66,504.081 1890.58,504.522 1896.5,504.961 1902.43,505.401 1908.35,505.84 1914.27,506.279 1920.19,506.718 1926.11,507.157 1932.03,507.596 1937.95,508.034 1943.88,508.472 1949.8,508.91 1955.72,509.347 1961.64,509.785 1967.56,510.222 1973.48,510.659 1979.4,511.095 1985.33,511.532 1991.25,511.968 1997.17,512.404 2003.09,512.84 2009.01,513.275 2014.93,513.711 2020.86,514.146 2026.78,514.581 2032.7,515.016 2038.62,515.45 2044.54,515.884 2050.46,516.318 2056.38,516.752 2062.31,517.186 2068.23,517.619 2074.15,518.052 2080.07,518.485 2085.99,518.918 2091.91,519.35 2097.83,519.782 2103.76,520.214 2109.68,520.646 2115.6,521.078 2121.52,521.509 2127.44,521.94 2133.36,522.371 2139.29,522.802 2145.21,523.232 2151.13,523.663 2157.05,524.093 2162.97,524.523 2168.89,524.952 2174.81,525.382 2180.74,525.811 2186.66,526.24 2192.58,526.669 2198.5,527.097 2204.42,527.525 2210.34,527.954 2216.27,528.381 2222.19,528.809 2228.11,529.237 2234.03,529.664 2239.95,530.091 2245.87,530.518 2251.79,530.945 2257.72,531.371 2263.64,531.797 2269.56,532.223 2275.48,532.649 2281.4,533.075 2287.32,533.5 2293.24,533.911 "/>
<circle clip-path="url(#clip882)" cx="1591.94" cy="696.692" r="18" fill="#e26f46" fill-rule="evenodd" fill-opacity="1" stroke="#000000" stroke-opacity="1" stroke-width="3.2"/>
<circle clip-path="url(#clip882)" cx="1619.28" cy="696.692" r="18" fill="#e26f46" fill-rule="evenodd" fill-opacity="1" stroke="#000000" stroke-opacity="1" stroke-width="3.2"/>
<circle clip-path="url(#clip882)" cx="1712.94" cy="160.256" r="18" fill="#e26f46" fill-rule="evenodd" fill-opacity="1" stroke="#000000" stroke-opacity="1" stroke-width="3.2"/>
<circle clip-path="url(#clip882)" cx="1856.93" cy="482.118" r="18" fill="#e26f46" fill-rule="evenodd" fill-opacity="1" stroke="#000000" stroke-opacity="1" stroke-width="3.2"/>
<circle clip-path="url(#clip882)" cx="1993.22" cy="543.425" r="18" fill="#e26f46" fill-rule="evenodd" fill-opacity="1" stroke="#000000" stroke-opacity="1" stroke-width="3.2"/>
<circle clip-path="url(#clip882)" cx="2069.02" cy="543.425" r="18" fill="#e26f46" fill-rule="evenodd" fill-opacity="1" stroke="#000000" stroke-opacity="1" stroke-width="3.2"/>
<circle clip-path="url(#clip882)" cx="2136.42" cy="374.831" r="18" fill="#e26f46" fill-rule="evenodd" fill-opacity="1" stroke="#000000" stroke-opacity="1" stroke-width="3.2"/>
<circle clip-path="url(#clip882)" cx="2287.13" cy="543.425" r="18" fill="#e26f46" fill-rule="evenodd" fill-opacity="1" stroke="#000000" stroke-opacity="1" stroke-width="3.2"/>
<path clip-path="url(#clip880)" d="M1688.16 1379.86 L2282.66 1379.86 L2282.66 1224.34 L1688.16 1224.34  Z" fill="#ffffff" fill-rule="evenodd" fill-opacity="1"/>
<polyline clip-path="url(#clip880)" style="stroke:#000000; stroke-linecap:round; stroke-linejoin:round; stroke-width:4; stroke-opacity:1; fill:none" points="1688.16,1379.86 2282.66,1379.86 2282.66,1224.34 1688.16,1224.34 1688.16,1379.86 "/>
<polyline clip-path="url(#clip880)" style="stroke:#009af9; stroke-linecap:round; stroke-linejoin:round; stroke-width:8; stroke-opacity:1; fill:none" points="1711.52,1276.18 1851.7,1276.18 "/>
<path clip-path="url(#clip880)" d="M1875.07 1258.9 L1882.03 1258.9 L1890.85 1282.41 L1899.72 1258.9 L1906.69 1258.9 L1906.69 1293.46 L1902.13 1293.46 L1902.13 1263.11 L1893.22 1286.81 L1888.52 1286.81 L1879.6 1263.11 L1879.6 1293.46 L1875.07 1293.46 L1875.07 1258.9 Z" fill="#000000" fill-rule="nonzero" fill-opacity="1" /><path clip-path="url(#clip880)" d="M1925.83 1270.52 Q1922.4 1270.52 1920.41 1273.2 Q1918.42 1275.86 1918.42 1280.52 Q1918.42 1285.17 1920.39 1287.85 Q1922.38 1290.52 1925.83 1290.52 Q1929.23 1290.52 1931.22 1287.83 Q1933.22 1285.15 1933.22 1280.52 Q1933.22 1275.91 1931.22 1273.22 Q1929.23 1270.52 1925.83 1270.52 M1925.83 1266.91 Q1931.39 1266.91 1934.56 1270.52 Q1937.73 1274.13 1937.73 1280.52 Q1937.73 1286.88 1934.56 1290.52 Q1931.39 1294.13 1925.83 1294.13 Q1920.25 1294.13 1917.08 1290.52 Q1913.93 1286.88 1913.93 1280.52 Q1913.93 1274.13 1917.08 1270.52 Q1920.25 1266.91 1925.83 1266.91 Z" fill="#000000" fill-rule="nonzero" fill-opacity="1" /><path clip-path="url(#clip880)" d="M1961.85 1271.47 L1961.85 1257.44 L1966.11 1257.44 L1966.11 1293.46 L1961.85 1293.46 L1961.85 1289.57 Q1960.51 1291.88 1958.45 1293.02 Q1956.41 1294.13 1953.54 1294.13 Q1948.84 1294.13 1945.88 1290.38 Q1942.94 1286.63 1942.94 1280.52 Q1942.94 1274.41 1945.88 1270.66 Q1948.84 1266.91 1953.54 1266.91 Q1956.41 1266.91 1958.45 1268.04 Q1960.51 1269.15 1961.85 1271.47 M1947.34 1280.52 Q1947.34 1285.22 1949.26 1287.9 Q1951.2 1290.56 1954.58 1290.56 Q1957.96 1290.56 1959.9 1287.9 Q1961.85 1285.22 1961.85 1280.52 Q1961.85 1275.82 1959.9 1273.16 Q1957.96 1270.47 1954.58 1270.47 Q1951.2 1270.47 1949.26 1273.16 Q1947.34 1275.82 1947.34 1280.52 Z" fill="#000000" fill-rule="nonzero" fill-opacity="1" /><path clip-path="url(#clip880)" d="M1997.06 1279.43 L1997.06 1281.51 L1977.47 1281.51 Q1977.75 1285.91 1980.11 1288.22 Q1982.5 1290.52 1986.73 1290.52 Q1989.19 1290.52 1991.48 1289.91 Q1993.79 1289.31 1996.06 1288.11 L1996.06 1292.14 Q1993.77 1293.11 1991.36 1293.62 Q1988.96 1294.13 1986.48 1294.13 Q1980.28 1294.13 1976.64 1290.52 Q1973.03 1286.91 1973.03 1280.75 Q1973.03 1274.38 1976.46 1270.66 Q1979.9 1266.91 1985.74 1266.91 Q1990.97 1266.91 1994 1270.29 Q1997.06 1273.64 1997.06 1279.43 M1992.8 1278.18 Q1992.75 1274.68 1990.83 1272.6 Q1988.93 1270.52 1985.78 1270.52 Q1982.22 1270.52 1980.07 1272.53 Q1977.94 1274.54 1977.61 1278.2 L1992.8 1278.18 Z" fill="#000000" fill-rule="nonzero" fill-opacity="1" /><path clip-path="url(#clip880)" d="M2004.05 1257.44 L2008.31 1257.44 L2008.31 1293.46 L2004.05 1293.46 L2004.05 1257.44 Z" fill="#000000" fill-rule="nonzero" fill-opacity="1" /><path clip-path="url(#clip880)" d="M2037.15 1262.74 L2037.15 1275.72 L2043.03 1275.72 Q2046.29 1275.72 2048.08 1274.04 Q2049.86 1272.35 2049.86 1269.22 Q2049.86 1266.12 2048.08 1264.43 Q2046.29 1262.74 2043.03 1262.74 L2037.15 1262.74 M2032.47 1258.9 L2043.03 1258.9 Q2048.84 1258.9 2051.8 1261.54 Q2054.79 1264.15 2054.79 1269.22 Q2054.79 1274.34 2051.8 1276.95 Q2048.84 1279.57 2043.03 1279.57 L2037.15 1279.57 L2037.15 1293.46 L2032.47 1293.46 L2032.47 1258.9 Z" fill="#000000" fill-rule="nonzero" fill-opacity="1" /><path clip-path="url(#clip880)" d="M2075.07 1271.51 Q2074.35 1271.1 2073.49 1270.91 Q2072.66 1270.7 2071.64 1270.7 Q2068.03 1270.7 2066.08 1273.06 Q2064.16 1275.4 2064.16 1279.8 L2064.16 1293.46 L2059.88 1293.46 L2059.88 1267.53 L2064.16 1267.53 L2064.16 1271.56 Q2065.51 1269.2 2067.66 1268.06 Q2069.81 1266.91 2072.89 1266.91 Q2073.33 1266.91 2073.86 1266.97 Q2074.39 1267.02 2075.04 1267.14 L2075.07 1271.51 Z" fill="#000000" fill-rule="nonzero" fill-opacity="1" /><path clip-path="url(#clip880)" d="M2100.67 1279.43 L2100.67 1281.51 L2081.08 1281.51 Q2081.36 1285.91 2083.72 1288.22 Q2086.11 1290.52 2090.34 1290.52 Q2092.8 1290.52 2095.09 1289.91 Q2097.4 1289.31 2099.67 1288.11 L2099.67 1292.14 Q2097.38 1293.11 2094.97 1293.62 Q2092.57 1294.13 2090.09 1294.13 Q2083.89 1294.13 2080.25 1290.52 Q2076.64 1286.91 2076.64 1280.75 Q2076.64 1274.38 2080.07 1270.66 Q2083.52 1266.91 2089.35 1266.91 Q2094.58 1266.91 2097.61 1270.29 Q2100.67 1273.64 2100.67 1279.43 M2096.41 1278.18 Q2096.36 1274.68 2094.44 1272.6 Q2092.54 1270.52 2089.39 1270.52 Q2085.83 1270.52 2083.68 1272.53 Q2081.55 1274.54 2081.22 1278.2 L2096.41 1278.18 Z" fill="#000000" fill-rule="nonzero" fill-opacity="1" /><path clip-path="url(#clip880)" d="M2124.72 1271.47 L2124.72 1257.44 L2128.98 1257.44 L2128.98 1293.46 L2124.72 1293.46 L2124.72 1289.57 Q2123.38 1291.88 2121.32 1293.02 Q2119.28 1294.13 2116.41 1294.13 Q2111.71 1294.13 2108.75 1290.38 Q2105.81 1286.63 2105.81 1280.52 Q2105.81 1274.41 2108.75 1270.66 Q2111.71 1266.91 2116.41 1266.91 Q2119.28 1266.91 2121.32 1268.04 Q2123.38 1269.15 2124.72 1271.47 M2110.2 1280.52 Q2110.2 1285.22 2112.13 1287.9 Q2114.07 1290.56 2117.45 1290.56 Q2120.83 1290.56 2122.77 1287.9 Q2124.72 1285.22 2124.72 1280.52 Q2124.72 1275.82 2122.77 1273.16 Q2120.83 1270.47 2117.45 1270.47 Q2114.07 1270.47 2112.13 1273.16 Q2110.2 1275.82 2110.2 1280.52 Z" fill="#000000" fill-rule="nonzero" fill-opacity="1" /><path clip-path="url(#clip880)" d="M2137.75 1267.53 L2142.01 1267.53 L2142.01 1293.46 L2137.75 1293.46 L2137.75 1267.53 M2137.75 1257.44 L2142.01 1257.44 L2142.01 1262.83 L2137.75 1262.83 L2137.75 1257.44 Z" fill="#000000" fill-rule="nonzero" fill-opacity="1" /><path clip-path="url(#clip880)" d="M2169.58 1268.53 L2169.58 1272.51 Q2167.77 1271.51 2165.95 1271.03 Q2164.14 1270.52 2162.29 1270.52 Q2158.14 1270.52 2155.85 1273.16 Q2153.56 1275.77 2153.56 1280.52 Q2153.56 1285.26 2155.85 1287.9 Q2158.14 1290.52 2162.29 1290.52 Q2164.14 1290.52 2165.95 1290.03 Q2167.77 1289.52 2169.58 1288.53 L2169.58 1292.46 Q2167.8 1293.29 2165.88 1293.71 Q2163.98 1294.13 2161.83 1294.13 Q2155.97 1294.13 2152.52 1290.45 Q2149.07 1286.77 2149.07 1280.52 Q2149.07 1274.17 2152.54 1270.54 Q2156.04 1266.91 2162.1 1266.91 Q2164.07 1266.91 2165.95 1267.32 Q2167.82 1267.72 2169.58 1268.53 Z" fill="#000000" fill-rule="nonzero" fill-opacity="1" /><path clip-path="url(#clip880)" d="M2181.2 1260.17 L2181.2 1267.53 L2189.97 1267.53 L2189.97 1270.84 L2181.2 1270.84 L2181.2 1284.91 Q2181.2 1288.09 2182.06 1288.99 Q2182.94 1289.89 2185.6 1289.89 L2189.97 1289.89 L2189.97 1293.46 L2185.6 1293.46 Q2180.67 1293.46 2178.79 1291.63 Q2176.92 1289.78 2176.92 1284.91 L2176.92 1270.84 L2173.79 1270.84 L2173.79 1267.53 L2176.92 1267.53 L2176.92 1260.17 L2181.2 1260.17 Z" fill="#000000" fill-rule="nonzero" fill-opacity="1" /><path clip-path="url(#clip880)" d="M2195.57 1267.53 L2199.83 1267.53 L2199.83 1293.46 L2195.57 1293.46 L2195.57 1267.53 M2195.57 1257.44 L2199.83 1257.44 L2199.83 1262.83 L2195.57 1262.83 L2195.57 1257.44 Z" fill="#000000" fill-rule="nonzero" fill-opacity="1" /><path clip-path="url(#clip880)" d="M2218.79 1270.52 Q2215.37 1270.52 2213.38 1273.2 Q2211.38 1275.86 2211.38 1280.52 Q2211.38 1285.17 2213.35 1287.85 Q2215.34 1290.52 2218.79 1290.52 Q2222.2 1290.52 2224.19 1287.83 Q2226.18 1285.15 2226.18 1280.52 Q2226.18 1275.91 2224.19 1273.22 Q2222.2 1270.52 2218.79 1270.52 M2218.79 1266.91 Q2224.35 1266.91 2227.52 1270.52 Q2230.69 1274.13 2230.69 1280.52 Q2230.69 1286.88 2227.52 1290.52 Q2224.35 1294.13 2218.79 1294.13 Q2213.21 1294.13 2210.04 1290.52 Q2206.89 1286.88 2206.89 1280.52 Q2206.89 1274.13 2210.04 1270.52 Q2213.21 1266.91 2218.79 1266.91 Z" fill="#000000" fill-rule="nonzero" fill-opacity="1" /><path clip-path="url(#clip880)" d="M2259.3 1277.81 L2259.3 1293.46 L2255.04 1293.46 L2255.04 1277.95 Q2255.04 1274.27 2253.61 1272.44 Q2252.17 1270.61 2249.3 1270.61 Q2245.85 1270.61 2243.86 1272.81 Q2241.87 1275.01 2241.87 1278.8 L2241.87 1293.46 L2237.59 1293.46 L2237.59 1267.53 L2241.87 1267.53 L2241.87 1271.56 Q2243.4 1269.22 2245.46 1268.06 Q2247.54 1266.91 2250.25 1266.91 Q2254.72 1266.91 2257.01 1269.68 Q2259.3 1272.44 2259.3 1277.81 Z" fill="#000000" fill-rule="nonzero" fill-opacity="1" /><circle clip-path="url(#clip880)" cx="1781.61" cy="1328.02" r="20.9455" fill="#e26f46" fill-rule="evenodd" fill-opacity="1" stroke="#000000" stroke-opacity="1" stroke-width="3.72364"/>
<path clip-path="url(#clip880)" d="M1891.09 1313.91 Q1885.99 1313.91 1882.98 1317.7 Q1880 1321.5 1880 1328.05 Q1880 1334.58 1882.98 1338.37 Q1885.99 1342.17 1891.09 1342.17 Q1896.18 1342.17 1899.14 1338.37 Q1902.13 1334.58 1902.13 1328.05 Q1902.13 1321.5 1899.14 1317.7 Q1896.18 1313.91 1891.09 1313.91 M1891.09 1310.11 Q1898.35 1310.11 1902.71 1315 Q1907.06 1319.86 1907.06 1328.05 Q1907.06 1336.22 1902.71 1341.11 Q1898.35 1345.97 1891.09 1345.97 Q1883.79 1345.97 1879.42 1341.11 Q1875.07 1336.25 1875.07 1328.05 Q1875.07 1319.86 1879.42 1315 Q1883.79 1310.11 1891.09 1310.11 Z" fill="#000000" fill-rule="nonzero" fill-opacity="1" /><path clip-path="url(#clip880)" d="M1932.8 1332.36 Q1932.8 1327.66 1930.85 1325 Q1928.93 1322.31 1925.55 1322.31 Q1922.17 1322.31 1920.23 1325 Q1918.31 1327.66 1918.31 1332.36 Q1918.31 1337.06 1920.23 1339.74 Q1922.17 1342.4 1925.55 1342.4 Q1928.93 1342.4 1930.85 1339.74 Q1932.8 1337.06 1932.8 1332.36 M1918.31 1323.31 Q1919.65 1320.99 1921.69 1319.88 Q1923.75 1318.75 1926.59 1318.75 Q1931.32 1318.75 1934.26 1322.5 Q1937.22 1326.25 1937.22 1332.36 Q1937.22 1338.47 1934.26 1342.22 Q1931.32 1345.97 1926.59 1345.97 Q1923.75 1345.97 1921.69 1344.86 Q1919.65 1343.72 1918.31 1341.41 L1918.31 1345.3 L1914.03 1345.3 L1914.03 1309.28 L1918.31 1309.28 L1918.31 1323.31 Z" fill="#000000" fill-rule="nonzero" fill-opacity="1" /><path clip-path="url(#clip880)" d="M1960.81 1320.13 L1960.81 1324.16 Q1959 1323.24 1957.06 1322.77 Q1955.11 1322.31 1953.03 1322.31 Q1949.86 1322.31 1948.26 1323.28 Q1946.69 1324.25 1946.69 1326.2 Q1946.69 1327.68 1947.82 1328.54 Q1948.96 1329.37 1952.38 1330.13 L1953.84 1330.46 Q1958.38 1331.43 1960.28 1333.21 Q1962.2 1334.97 1962.2 1338.14 Q1962.2 1341.75 1959.33 1343.86 Q1956.48 1345.97 1951.48 1345.97 Q1949.4 1345.97 1947.13 1345.55 Q1944.88 1345.16 1942.38 1344.35 L1942.38 1339.95 Q1944.74 1341.18 1947.03 1341.8 Q1949.33 1342.4 1951.57 1342.4 Q1954.58 1342.4 1956.2 1341.38 Q1957.82 1340.34 1957.82 1338.47 Q1957.82 1336.73 1956.64 1335.81 Q1955.48 1334.88 1951.53 1334.02 L1950.04 1333.68 Q1946.09 1332.84 1944.33 1331.13 Q1942.57 1329.39 1942.57 1326.38 Q1942.57 1322.73 1945.16 1320.74 Q1947.75 1318.75 1952.52 1318.75 Q1954.88 1318.75 1956.96 1319.09 Q1959.05 1319.44 1960.81 1320.13 Z" fill="#000000" fill-rule="nonzero" fill-opacity="1" /><path clip-path="url(#clip880)" d="M1991.15 1331.27 L1991.15 1333.35 L1971.57 1333.35 Q1971.85 1337.75 1974.21 1340.06 Q1976.59 1342.36 1980.83 1342.36 Q1983.28 1342.36 1985.58 1341.75 Q1987.89 1341.15 1990.16 1339.95 L1990.16 1343.98 Q1987.87 1344.95 1985.46 1345.46 Q1983.05 1345.97 1980.58 1345.97 Q1974.37 1345.97 1970.74 1342.36 Q1967.13 1338.75 1967.13 1332.59 Q1967.13 1326.22 1970.55 1322.5 Q1974 1318.75 1979.84 1318.75 Q1985.07 1318.75 1988.1 1322.13 Q1991.15 1325.48 1991.15 1331.27 M1986.9 1330.02 Q1986.85 1326.52 1984.93 1324.44 Q1983.03 1322.36 1979.88 1322.36 Q1976.32 1322.36 1974.16 1324.37 Q1972.03 1326.38 1971.71 1330.04 L1986.9 1330.02 Z" fill="#000000" fill-rule="nonzero" fill-opacity="1" /><path clip-path="url(#clip880)" d="M2013.17 1323.35 Q2012.45 1322.94 2011.59 1322.75 Q2010.76 1322.54 2009.74 1322.54 Q2006.13 1322.54 2004.19 1324.9 Q2002.27 1327.24 2002.27 1331.64 L2002.27 1345.3 L1997.98 1345.3 L1997.98 1319.37 L2002.27 1319.37 L2002.27 1323.4 Q2003.61 1321.04 2005.76 1319.9 Q2007.91 1318.75 2010.99 1318.75 Q2011.43 1318.75 2011.96 1318.81 Q2012.5 1318.86 2013.15 1318.98 L2013.17 1323.35 Z" fill="#000000" fill-rule="nonzero" fill-opacity="1" /><path clip-path="url(#clip880)" d="M2014.58 1319.37 L2019.09 1319.37 L2027.2 1341.13 L2035.3 1319.37 L2039.81 1319.37 L2030.09 1345.3 L2024.3 1345.3 L2014.58 1319.37 Z" fill="#000000" fill-rule="nonzero" fill-opacity="1" /><path clip-path="url(#clip880)" d="M2067.87 1331.27 L2067.87 1333.35 L2048.28 1333.35 Q2048.56 1337.75 2050.92 1340.06 Q2053.31 1342.36 2057.54 1342.36 Q2060 1342.36 2062.29 1341.75 Q2064.6 1341.15 2066.87 1339.95 L2066.87 1343.98 Q2064.58 1344.95 2062.17 1345.46 Q2059.77 1345.97 2057.29 1345.97 Q2051.08 1345.97 2047.45 1342.36 Q2043.84 1338.75 2043.84 1332.59 Q2043.84 1326.22 2047.27 1322.5 Q2050.71 1318.75 2056.55 1318.75 Q2061.78 1318.75 2064.81 1322.13 Q2067.87 1325.48 2067.87 1331.27 M2063.61 1330.02 Q2063.56 1326.52 2061.64 1324.44 Q2059.74 1322.36 2056.59 1322.36 Q2053.03 1322.36 2050.88 1324.37 Q2048.75 1326.38 2048.42 1330.04 L2063.61 1330.02 Z" fill="#000000" fill-rule="nonzero" fill-opacity="1" /><path clip-path="url(#clip880)" d="M2091.92 1323.31 L2091.92 1309.28 L2096.18 1309.28 L2096.18 1345.3 L2091.92 1345.3 L2091.92 1341.41 Q2090.58 1343.72 2088.52 1344.86 Q2086.48 1345.97 2083.61 1345.97 Q2078.91 1345.97 2075.95 1342.22 Q2073.01 1338.47 2073.01 1332.36 Q2073.01 1326.25 2075.95 1322.5 Q2078.91 1318.75 2083.61 1318.75 Q2086.48 1318.75 2088.52 1319.88 Q2090.58 1320.99 2091.92 1323.31 M2077.4 1332.36 Q2077.4 1337.06 2079.33 1339.74 Q2081.27 1342.4 2084.65 1342.4 Q2088.03 1342.4 2089.97 1339.74 Q2091.92 1337.06 2091.92 1332.36 Q2091.92 1327.66 2089.97 1325 Q2088.03 1322.31 2084.65 1322.31 Q2081.27 1322.31 2079.33 1325 Q2077.4 1327.66 2077.4 1332.36 Z" fill="#000000" fill-rule="nonzero" fill-opacity="1" /><path clip-path="url(#clip880)" d="M2124.88 1314.58 L2124.88 1341.45 L2130.53 1341.45 Q2137.68 1341.45 2140.99 1338.21 Q2144.33 1334.97 2144.33 1327.98 Q2144.33 1321.04 2140.99 1317.82 Q2137.68 1314.58 2130.53 1314.58 L2124.88 1314.58 M2120.2 1310.74 L2129.81 1310.74 Q2139.86 1310.74 2144.56 1314.93 Q2149.26 1319.09 2149.26 1327.98 Q2149.26 1336.92 2144.53 1341.11 Q2139.81 1345.3 2129.81 1345.3 L2120.2 1345.3 L2120.2 1310.74 Z" fill="#000000" fill-rule="nonzero" fill-opacity="1" /><path clip-path="url(#clip880)" d="M2168.31 1332.26 Q2163.14 1332.26 2161.15 1333.44 Q2159.16 1334.63 2159.16 1337.47 Q2159.16 1339.74 2160.64 1341.08 Q2162.15 1342.4 2164.72 1342.4 Q2168.26 1342.4 2170.39 1339.9 Q2172.54 1337.38 2172.54 1333.21 L2172.54 1332.26 L2168.31 1332.26 M2176.8 1330.5 L2176.8 1345.3 L2172.54 1345.3 L2172.54 1341.36 Q2171.08 1343.72 2168.91 1344.86 Q2166.73 1345.97 2163.58 1345.97 Q2159.6 1345.97 2157.24 1343.75 Q2154.9 1341.5 2154.9 1337.75 Q2154.9 1333.38 2157.82 1331.15 Q2160.76 1328.93 2166.57 1328.93 L2172.54 1328.93 L2172.54 1328.51 Q2172.54 1325.57 2170.6 1323.98 Q2168.68 1322.36 2165.18 1322.36 Q2162.96 1322.36 2160.85 1322.89 Q2158.75 1323.42 2156.8 1324.49 L2156.8 1320.55 Q2159.14 1319.65 2161.34 1319.21 Q2163.54 1318.75 2165.62 1318.75 Q2171.25 1318.75 2174.02 1321.66 Q2176.8 1324.58 2176.8 1330.5 Z" fill="#000000" fill-rule="nonzero" fill-opacity="1" /><path clip-path="url(#clip880)" d="M2189.79 1312.01 L2189.79 1319.37 L2198.56 1319.37 L2198.56 1322.68 L2189.79 1322.68 L2189.79 1336.75 Q2189.79 1339.93 2190.64 1340.83 Q2191.52 1341.73 2194.19 1341.73 L2198.56 1341.73 L2198.56 1345.3 L2194.19 1345.3 Q2189.26 1345.3 2187.38 1343.47 Q2185.51 1341.62 2185.51 1336.75 L2185.51 1322.68 L2182.38 1322.68 L2182.38 1319.37 L2185.51 1319.37 L2185.51 1312.01 L2189.79 1312.01 Z" fill="#000000" fill-rule="nonzero" fill-opacity="1" /><path clip-path="url(#clip880)" d="M2215.95 1332.26 Q2210.78 1332.26 2208.79 1333.44 Q2206.8 1334.63 2206.8 1337.47 Q2206.8 1339.74 2208.28 1341.08 Q2209.79 1342.4 2212.36 1342.4 Q2215.9 1342.4 2218.03 1339.9 Q2220.18 1337.38 2220.18 1333.21 L2220.18 1332.26 L2215.95 1332.26 M2224.44 1330.5 L2224.44 1345.3 L2220.18 1345.3 L2220.18 1341.36 Q2218.72 1343.72 2216.55 1344.86 Q2214.37 1345.97 2211.22 1345.97 Q2207.24 1345.97 2204.88 1343.75 Q2202.54 1341.5 2202.54 1337.75 Q2202.54 1333.38 2205.46 1331.15 Q2208.4 1328.93 2214.21 1328.93 L2220.18 1328.93 L2220.18 1328.51 Q2220.18 1325.57 2218.24 1323.98 Q2216.32 1322.36 2212.82 1322.36 Q2210.6 1322.36 2208.49 1322.89 Q2206.38 1323.42 2204.44 1324.49 L2204.44 1320.55 Q2206.78 1319.65 2208.98 1319.21 Q2211.18 1318.75 2213.26 1318.75 Q2218.88 1318.75 2221.66 1321.66 Q2224.44 1324.58 2224.44 1330.5 Z" fill="#000000" fill-rule="nonzero" fill-opacity="1" /></svg>
