<?xml version="1.0" encoding="utf-8"?>
<svg xmlns="http://www.w3.org/2000/svg" xmlns:xlink="http://www.w3.org/1999/xlink" width="600" height="400" viewBox="0 0 2400 1600">
<defs>
  <clipPath id="clip060">
    <rect x="0" y="0" width="2400" height="1600"/>
  </clipPath>
</defs>
<path clip-path="url(#clip060)" d="M0 1600 L2400 1600 L2400 0 L0 0  Z" fill="#ffffff" fill-rule="evenodd" fill-opacity="1"/>
<defs>
  <clipPath id="clip061">
    <rect x="480" y="0" width="1681" height="1600"/>
  </clipPath>
</defs>
<path clip-path="url(#clip060)" d="M219.866 1423.18 L2352.76 1423.18 L2352.76 123.472 L219.866 123.472  Z" fill="#ffffff" fill-rule="evenodd" fill-opacity="1"/>
<defs>
  <clipPath id="clip062">
    <rect x="219" y="123" width="2134" height="1301"/>
  </clipPath>
</defs>
<polyline clip-path="url(#clip062)" style="stroke:#000000; stroke-linecap:round; stroke-linejoin:round; stroke-width:2; stroke-opacity:0.1; fill:none" points="278.902,1423.18 278.902,123.472 "/>
<polyline clip-path="url(#clip062)" style="stroke:#000000; stroke-linecap:round; stroke-linejoin:round; stroke-width:2; stroke-opacity:0.1; fill:none" points="777.29,1423.18 777.29,123.472 "/>
<polyline clip-path="url(#clip062)" style="stroke:#000000; stroke-linecap:round; stroke-linejoin:round; stroke-width:2; stroke-opacity:0.1; fill:none" points="1275.68,1423.18 1275.68,123.472 "/>
<polyline clip-path="url(#clip062)" style="stroke:#000000; stroke-linecap:round; stroke-linejoin:round; stroke-width:2; stroke-opacity:0.1; fill:none" points="1774.07,1423.18 1774.07,123.472 "/>
<polyline clip-path="url(#clip062)" style="stroke:#000000; stroke-linecap:round; stroke-linejoin:round; stroke-width:2; stroke-opacity:0.1; fill:none" points="2272.46,1423.18 2272.46,123.472 "/>
<polyline clip-path="url(#clip062)" style="stroke:#000000; stroke-linecap:round; stroke-linejoin:round; stroke-width:2; stroke-opacity:0.1; fill:none" points="219.866,1386.4 2352.76,1386.4 "/>
<polyline clip-path="url(#clip062)" style="stroke:#000000; stroke-linecap:round; stroke-linejoin:round; stroke-width:2; stroke-opacity:0.1; fill:none" points="219.866,1180.03 2352.76,1180.03 "/>
<polyline clip-path="url(#clip062)" style="stroke:#000000; stroke-linecap:round; stroke-linejoin:round; stroke-width:2; stroke-opacity:0.1; fill:none" points="219.866,973.672 2352.76,973.672 "/>
<polyline clip-path="url(#clip062)" style="stroke:#000000; stroke-linecap:round; stroke-linejoin:round; stroke-width:2; stroke-opacity:0.1; fill:none" points="219.866,767.31 2352.76,767.31 "/>
<polyline clip-path="url(#clip062)" style="stroke:#000000; stroke-linecap:round; stroke-linejoin:round; stroke-width:2; stroke-opacity:0.1; fill:none" points="219.866,560.949 2352.76,560.949 "/>
<polyline clip-path="url(#clip062)" style="stroke:#000000; stroke-linecap:round; stroke-linejoin:round; stroke-width:2; stroke-opacity:0.1; fill:none" points="219.866,354.587 2352.76,354.587 "/>
<polyline clip-path="url(#clip062)" style="stroke:#000000; stroke-linecap:round; stroke-linejoin:round; stroke-width:2; stroke-opacity:0.1; fill:none" points="219.866,148.225 2352.76,148.225 "/>
<polyline clip-path="url(#clip060)" style="stroke:#000000; stroke-linecap:round; stroke-linejoin:round; stroke-width:4; stroke-opacity:1; fill:none" points="219.866,1423.18 2352.76,1423.18 "/>
<polyline clip-path="url(#clip060)" style="stroke:#000000; stroke-linecap:round; stroke-linejoin:round; stroke-width:4; stroke-opacity:1; fill:none" points="278.902,1423.18 278.902,1404.28 "/>
<polyline clip-path="url(#clip060)" style="stroke:#000000; stroke-linecap:round; stroke-linejoin:round; stroke-width:4; stroke-opacity:1; fill:none" points="777.29,1423.18 777.29,1404.28 "/>
<polyline clip-path="url(#clip060)" style="stroke:#000000; stroke-linecap:round; stroke-linejoin:round; stroke-width:4; stroke-opacity:1; fill:none" points="1275.68,1423.18 1275.68,1404.28 "/>
<polyline clip-path="url(#clip060)" style="stroke:#000000; stroke-linecap:round; stroke-linejoin:round; stroke-width:4; stroke-opacity:1; fill:none" points="1774.07,1423.18 1774.07,1404.28 "/>
<polyline clip-path="url(#clip060)" style="stroke:#000000; stroke-linecap:round; stroke-linejoin:round; stroke-width:4; stroke-opacity:1; fill:none" points="2272.46,1423.18 2272.46,1404.28 "/>
<path clip-path="url(#clip060)" d="M278.902 1454.1 Q275.291 1454.1 273.462 1457.66 Q271.657 1461.2 271.657 1468.33 Q271.657 1475.44 273.462 1479.01 Q275.291 1482.55 278.902 1482.55 Q282.536 1482.55 284.342 1479.01 Q286.171 1475.44 286.171 1468.33 Q286.171 1461.2 284.342 1457.66 Q282.536 1454.1 278.902 1454.1 M278.902 1450.39 Q284.712 1450.39 287.768 1455 Q290.846 1459.58 290.846 1468.33 Q290.846 1477.06 287.768 1481.67 Q284.712 1486.25 278.902 1486.25 Q273.092 1486.25 270.013 1481.67 Q266.958 1477.06 266.958 1468.33 Q266.958 1459.58 270.013 1455 Q273.092 1450.39 278.902 1450.39 Z" fill="#000000" fill-rule="nonzero" fill-opacity="1" /><path clip-path="url(#clip060)" d="M756.561 1481.64 L772.881 1481.64 L772.881 1485.58 L750.936 1485.58 L750.936 1481.64 Q753.598 1478.89 758.182 1474.26 Q762.788 1469.61 763.969 1468.27 Q766.214 1465.74 767.094 1464.01 Q767.996 1462.25 767.996 1460.56 Q767.996 1457.8 766.052 1456.07 Q764.131 1454.33 761.029 1454.33 Q758.83 1454.33 756.376 1455.09 Q753.946 1455.86 751.168 1457.41 L751.168 1452.69 Q753.992 1451.55 756.446 1450.97 Q758.899 1450.39 760.936 1450.39 Q766.307 1450.39 769.501 1453.08 Q772.696 1455.77 772.696 1460.26 Q772.696 1462.39 771.885 1464.31 Q771.098 1466.2 768.992 1468.8 Q768.413 1469.47 765.311 1472.69 Q762.209 1475.88 756.561 1481.64 Z" fill="#000000" fill-rule="nonzero" fill-opacity="1" /><path clip-path="url(#clip060)" d="M782.742 1451.02 L801.098 1451.02 L801.098 1454.96 L787.024 1454.96 L787.024 1463.43 Q788.043 1463.08 789.061 1462.92 Q790.08 1462.73 791.098 1462.73 Q796.885 1462.73 800.265 1465.9 Q803.644 1469.08 803.644 1474.49 Q803.644 1480.07 800.172 1483.17 Q796.7 1486.25 790.381 1486.25 Q788.205 1486.25 785.936 1485.88 Q783.691 1485.51 781.283 1484.77 L781.283 1480.07 Q783.367 1481.2 785.589 1481.76 Q787.811 1482.32 790.288 1482.32 Q794.293 1482.32 796.631 1480.21 Q798.969 1478.1 798.969 1474.49 Q798.969 1470.88 796.631 1468.77 Q794.293 1466.67 790.288 1466.67 Q788.413 1466.67 786.538 1467.08 Q784.686 1467.5 782.742 1468.38 L782.742 1451.02 Z" fill="#000000" fill-rule="nonzero" fill-opacity="1" /><path clip-path="url(#clip060)" d="M1250.38 1451.02 L1268.73 1451.02 L1268.73 1454.96 L1254.66 1454.96 L1254.66 1463.43 Q1255.68 1463.08 1256.7 1462.92 Q1257.72 1462.73 1258.73 1462.73 Q1264.52 1462.73 1267.9 1465.9 Q1271.28 1469.08 1271.28 1474.49 Q1271.28 1480.07 1267.81 1483.17 Q1264.34 1486.25 1258.02 1486.25 Q1255.84 1486.25 1253.57 1485.88 Q1251.33 1485.51 1248.92 1484.77 L1248.92 1480.07 Q1251 1481.2 1253.23 1481.76 Q1255.45 1482.32 1257.92 1482.32 Q1261.93 1482.32 1264.27 1480.21 Q1266.6 1478.1 1266.6 1474.49 Q1266.6 1470.88 1264.27 1468.77 Q1261.93 1466.67 1257.92 1466.67 Q1256.05 1466.67 1254.17 1467.08 Q1252.32 1467.5 1250.38 1468.38 L1250.38 1451.02 Z" fill="#000000" fill-rule="nonzero" fill-opacity="1" /><path clip-path="url(#clip060)" d="M1290.49 1454.1 Q1286.88 1454.1 1285.05 1457.66 Q1283.25 1461.2 1283.25 1468.33 Q1283.25 1475.44 1285.05 1479.01 Q1286.88 1482.55 1290.49 1482.55 Q1294.13 1482.55 1295.93 1479.01 Q1297.76 1475.44 1297.76 1468.33 Q1297.76 1461.2 1295.93 1457.66 Q1294.13 1454.1 1290.49 1454.1 M1290.49 1450.39 Q1296.3 1450.39 1299.36 1455 Q1302.44 1459.58 1302.44 1468.33 Q1302.44 1477.06 1299.36 1481.67 Q1296.3 1486.25 1290.49 1486.25 Q1284.68 1486.25 1281.6 1481.67 Q1278.55 1477.06 1278.55 1468.33 Q1278.55 1459.58 1281.6 1455 Q1284.68 1450.39 1290.49 1450.39 Z" fill="#000000" fill-rule="nonzero" fill-opacity="1" /><path clip-path="url(#clip060)" d="M1747.92 1451.02 L1770.14 1451.02 L1770.14 1453.01 L1757.6 1485.58 L1752.71 1485.58 L1764.52 1454.96 L1747.92 1454.96 L1747.92 1451.02 Z" fill="#000000" fill-rule="nonzero" fill-opacity="1" /><path clip-path="url(#clip060)" d="M1779.31 1451.02 L1797.67 1451.02 L1797.67 1454.96 L1783.59 1454.96 L1783.59 1463.43 Q1784.61 1463.08 1785.63 1462.92 Q1786.65 1462.73 1787.67 1462.73 Q1793.45 1462.73 1796.83 1465.9 Q1800.21 1469.08 1800.21 1474.49 Q1800.21 1480.07 1796.74 1483.17 Q1793.27 1486.25 1786.95 1486.25 Q1784.77 1486.25 1782.5 1485.88 Q1780.26 1485.51 1777.85 1484.77 L1777.85 1480.07 Q1779.94 1481.2 1782.16 1481.76 Q1784.38 1482.32 1786.86 1482.32 Q1790.86 1482.32 1793.2 1480.21 Q1795.54 1478.1 1795.54 1474.49 Q1795.54 1470.88 1793.2 1468.77 Q1790.86 1466.67 1786.86 1466.67 Q1784.98 1466.67 1783.11 1467.08 Q1781.25 1467.5 1779.31 1468.38 L1779.31 1451.02 Z" fill="#000000" fill-rule="nonzero" fill-opacity="1" /><path clip-path="url(#clip060)" d="M2232.06 1481.64 L2239.7 1481.64 L2239.7 1455.28 L2231.39 1456.95 L2231.39 1452.69 L2239.65 1451.02 L2244.33 1451.02 L2244.33 1481.64 L2251.97 1481.64 L2251.97 1485.58 L2232.06 1485.58 L2232.06 1481.64 Z" fill="#000000" fill-rule="nonzero" fill-opacity="1" /><path clip-path="url(#clip060)" d="M2271.41 1454.1 Q2267.8 1454.1 2265.97 1457.66 Q2264.17 1461.2 2264.17 1468.33 Q2264.17 1475.44 2265.97 1479.01 Q2267.8 1482.55 2271.41 1482.55 Q2275.05 1482.55 2276.85 1479.01 Q2278.68 1475.44 2278.68 1468.33 Q2278.68 1461.2 2276.85 1457.66 Q2275.05 1454.1 2271.41 1454.1 M2271.41 1450.39 Q2277.22 1450.39 2280.28 1455 Q2283.36 1459.58 2283.36 1468.33 Q2283.36 1477.06 2280.28 1481.67 Q2277.22 1486.25 2271.41 1486.25 Q2265.6 1486.25 2262.53 1481.67 Q2259.47 1477.06 2259.47 1468.33 Q2259.47 1459.58 2262.53 1455 Q2265.6 1450.39 2271.41 1450.39 Z" fill="#000000" fill-rule="nonzero" fill-opacity="1" /><path clip-path="url(#clip060)" d="M2301.58 1454.1 Q2297.96 1454.1 2296.14 1457.66 Q2294.33 1461.2 2294.33 1468.33 Q2294.33 1475.44 2296.14 1479.01 Q2297.96 1482.55 2301.58 1482.55 Q2305.21 1482.55 2307.02 1479.01 Q2308.84 1475.44 2308.84 1468.33 Q2308.84 1461.2 2307.02 1457.66 Q2305.21 1454.1 2301.58 1454.1 M2301.58 1450.39 Q2307.39 1450.39 2310.44 1455 Q2313.52 1459.58 2313.52 1468.33 Q2313.52 1477.06 2310.44 1481.67 Q2307.39 1486.25 2301.58 1486.25 Q2295.77 1486.25 2292.69 1481.67 Q2289.63 1477.06 2289.63 1468.33 Q2289.63 1459.58 2292.69 1455 Q2295.77 1450.39 2301.58 1450.39 Z" fill="#000000" fill-rule="nonzero" fill-opacity="1" /><path clip-path="url(#clip060)" d="M1208.19 1520.52 L1248.39 1520.52 L1248.39 1525.93 L1231.52 1525.93 L1231.52 1568.04 L1225.06 1568.04 L1225.06 1525.93 L1208.19 1525.93 L1208.19 1520.52 Z" fill="#000000" fill-rule="nonzero" fill-opacity="1" /><path clip-path="url(#clip060)" d="M1252.33 1532.4 L1258.19 1532.4 L1258.19 1568.04 L1252.33 1568.04 L1252.33 1532.4 M1252.33 1518.52 L1258.19 1518.52 L1258.19 1525.93 L1252.33 1525.93 L1252.33 1518.52 Z" fill="#000000" fill-rule="nonzero" fill-opacity="1" /><path clip-path="url(#clip060)" d="M1298.2 1539.24 Q1300.4 1535.29 1303.45 1533.41 Q1306.51 1531.54 1310.64 1531.54 Q1316.21 1531.54 1319.24 1535.45 Q1322.26 1539.33 1322.26 1546.53 L1322.26 1568.04 L1316.37 1568.04 L1316.37 1546.72 Q1316.37 1541.59 1314.56 1539.11 Q1312.74 1536.63 1309.02 1536.63 Q1304.47 1536.63 1301.83 1539.65 Q1299.19 1542.68 1299.19 1547.9 L1299.19 1568.04 L1293.3 1568.04 L1293.3 1546.72 Q1293.3 1541.56 1291.48 1539.11 Q1289.67 1536.63 1285.88 1536.63 Q1281.39 1536.63 1278.75 1539.68 Q1276.11 1542.71 1276.11 1547.9 L1276.11 1568.04 L1270.22 1568.04 L1270.22 1532.4 L1276.11 1532.4 L1276.11 1537.93 Q1278.12 1534.66 1280.92 1533.1 Q1283.72 1531.54 1287.57 1531.54 Q1291.45 1531.54 1294.16 1533.51 Q1296.89 1535.48 1298.2 1539.24 Z" fill="#000000" fill-rule="nonzero" fill-opacity="1" /><path clip-path="url(#clip060)" d="M1364.43 1548.76 L1364.43 1551.62 L1337.51 1551.62 Q1337.89 1557.67 1341.14 1560.85 Q1344.41 1564 1350.24 1564 Q1353.61 1564 1356.76 1563.17 Q1359.95 1562.35 1363.07 1560.69 L1363.07 1566.23 Q1359.91 1567.57 1356.6 1568.27 Q1353.29 1568.97 1349.89 1568.97 Q1341.36 1568.97 1336.36 1564 Q1331.4 1559.04 1331.4 1550.57 Q1331.4 1541.82 1336.11 1536.69 Q1340.85 1531.54 1348.87 1531.54 Q1356.06 1531.54 1360.23 1536.18 Q1364.43 1540.8 1364.43 1548.76 M1358.58 1547.04 Q1358.51 1542.23 1355.87 1539.37 Q1353.26 1536.5 1348.93 1536.5 Q1344.03 1536.5 1341.07 1539.27 Q1338.14 1542.04 1337.7 1547.07 L1358.58 1547.04 Z" fill="#000000" fill-rule="nonzero" fill-opacity="1" /><polyline clip-path="url(#clip060)" style="stroke:#000000; stroke-linecap:round; stroke-linejoin:round; stroke-width:4; stroke-opacity:1; fill:none" points="219.866,1423.18 219.866,123.472 "/>
<polyline clip-path="url(#clip060)" style="stroke:#000000; stroke-linecap:round; stroke-linejoin:round; stroke-width:4; stroke-opacity:1; fill:none" points="219.866,1386.4 238.764,1386.4 "/>
<polyline clip-path="url(#clip060)" style="stroke:#000000; stroke-linecap:round; stroke-linejoin:round; stroke-width:4; stroke-opacity:1; fill:none" points="219.866,1180.03 238.764,1180.03 "/>
<polyline clip-path="url(#clip060)" style="stroke:#000000; stroke-linecap:round; stroke-linejoin:round; stroke-width:4; stroke-opacity:1; fill:none" points="219.866,973.672 238.764,973.672 "/>
<polyline clip-path="url(#clip060)" style="stroke:#000000; stroke-linecap:round; stroke-linejoin:round; stroke-width:4; stroke-opacity:1; fill:none" points="219.866,767.31 238.764,767.31 "/>
<polyline clip-path="url(#clip060)" style="stroke:#000000; stroke-linecap:round; stroke-linejoin:round; stroke-width:4; stroke-opacity:1; fill:none" points="219.866,560.949 238.764,560.949 "/>
<polyline clip-path="url(#clip060)" style="stroke:#000000; stroke-linecap:round; stroke-linejoin:round; stroke-width:4; stroke-opacity:1; fill:none" points="219.866,354.587 238.764,354.587 "/>
<polyline clip-path="url(#clip060)" style="stroke:#000000; stroke-linecap:round; stroke-linejoin:round; stroke-width:4; stroke-opacity:1; fill:none" points="219.866,148.225 238.764,148.225 "/>
<path clip-path="url(#clip060)" d="M126.691 1372.19 Q123.08 1372.19 121.251 1375.76 Q119.445 1379.3 119.445 1386.43 Q119.445 1393.54 121.251 1397.1 Q123.08 1400.64 126.691 1400.64 Q130.325 1400.64 132.13 1397.1 Q133.959 1393.54 133.959 1386.43 Q133.959 1379.3 132.13 1375.76 Q130.325 1372.19 126.691 1372.19 M126.691 1368.49 Q132.501 1368.49 135.556 1373.1 Q138.635 1377.68 138.635 1386.43 Q138.635 1395.16 135.556 1399.76 Q132.501 1404.35 126.691 1404.35 Q120.88 1404.35 117.802 1399.76 Q114.746 1395.16 114.746 1386.43 Q114.746 1377.68 117.802 1373.1 Q120.88 1368.49 126.691 1368.49 Z" fill="#000000" fill-rule="nonzero" fill-opacity="1" /><path clip-path="url(#clip060)" d="M146.853 1397.8 L151.737 1397.8 L151.737 1403.68 L146.853 1403.68 L146.853 1397.8 Z" fill="#000000" fill-rule="nonzero" fill-opacity="1" /><path clip-path="url(#clip060)" d="M171.922 1372.19 Q168.311 1372.19 166.482 1375.76 Q164.677 1379.3 164.677 1386.43 Q164.677 1393.54 166.482 1397.1 Q168.311 1400.64 171.922 1400.64 Q175.556 1400.64 177.362 1397.1 Q179.19 1393.54 179.19 1386.43 Q179.19 1379.3 177.362 1375.76 Q175.556 1372.19 171.922 1372.19 M171.922 1368.49 Q177.732 1368.49 180.788 1373.1 Q183.866 1377.68 183.866 1386.43 Q183.866 1395.16 180.788 1399.76 Q177.732 1404.35 171.922 1404.35 Q166.112 1404.35 163.033 1399.76 Q159.978 1395.16 159.978 1386.43 Q159.978 1377.68 163.033 1373.1 Q166.112 1368.49 171.922 1368.49 Z" fill="#000000" fill-rule="nonzero" fill-opacity="1" /><path clip-path="url(#clip060)" d="M127.917 1165.83 Q124.306 1165.83 122.478 1169.4 Q120.672 1172.94 120.672 1180.07 Q120.672 1187.18 122.478 1190.74 Q124.306 1194.28 127.917 1194.28 Q131.552 1194.28 133.357 1190.74 Q135.186 1187.18 135.186 1180.07 Q135.186 1172.94 133.357 1169.4 Q131.552 1165.83 127.917 1165.83 M127.917 1162.13 Q133.728 1162.13 136.783 1166.74 Q139.862 1171.32 139.862 1180.07 Q139.862 1188.8 136.783 1193.4 Q133.728 1197.99 127.917 1197.99 Q122.107 1197.99 119.029 1193.4 Q115.973 1188.8 115.973 1180.07 Q115.973 1171.32 119.029 1166.74 Q122.107 1162.13 127.917 1162.13 Z" fill="#000000" fill-rule="nonzero" fill-opacity="1" /><path clip-path="url(#clip060)" d="M148.079 1191.43 L152.964 1191.43 L152.964 1197.31 L148.079 1197.31 L148.079 1191.43 Z" fill="#000000" fill-rule="nonzero" fill-opacity="1" /><path clip-path="url(#clip060)" d="M163.959 1193.38 L171.598 1193.38 L171.598 1167.01 L163.288 1168.68 L163.288 1164.42 L171.552 1162.75 L176.227 1162.75 L176.227 1193.38 L183.866 1193.38 L183.866 1197.31 L163.959 1197.31 L163.959 1193.38 Z" fill="#000000" fill-rule="nonzero" fill-opacity="1" /><path clip-path="url(#clip060)" d="M128.288 959.471 Q124.677 959.471 122.848 963.036 Q121.043 966.577 121.043 973.707 Q121.043 980.813 122.848 984.378 Q124.677 987.92 128.288 987.92 Q131.922 987.92 133.728 984.378 Q135.556 980.813 135.556 973.707 Q135.556 966.577 133.728 963.036 Q131.922 959.471 128.288 959.471 M128.288 955.767 Q134.098 955.767 137.154 960.374 Q140.232 964.957 140.232 973.707 Q140.232 982.434 137.154 987.04 Q134.098 991.623 128.288 991.623 Q122.478 991.623 119.399 987.04 Q116.343 982.434 116.343 973.707 Q116.343 964.957 119.399 960.374 Q122.478 955.767 128.288 955.767 Z" fill="#000000" fill-rule="nonzero" fill-opacity="1" /><path clip-path="url(#clip060)" d="M148.45 985.073 L153.334 985.073 L153.334 990.952 L148.45 990.952 L148.45 985.073 Z" fill="#000000" fill-rule="nonzero" fill-opacity="1" /><path clip-path="url(#clip060)" d="M167.547 987.017 L183.866 987.017 L183.866 990.952 L161.922 990.952 L161.922 987.017 Q164.584 984.262 169.167 979.633 Q173.774 974.98 174.954 973.637 Q177.2 971.114 178.079 969.378 Q178.982 967.619 178.982 965.929 Q178.982 963.175 177.038 961.438 Q175.116 959.702 172.014 959.702 Q169.815 959.702 167.362 960.466 Q164.931 961.23 162.153 962.781 L162.153 958.059 Q164.977 956.925 167.431 956.346 Q169.885 955.767 171.922 955.767 Q177.292 955.767 180.487 958.452 Q183.681 961.138 183.681 965.628 Q183.681 967.758 182.871 969.679 Q182.084 971.577 179.977 974.17 Q179.399 974.841 176.297 978.059 Q173.195 981.253 167.547 987.017 Z" fill="#000000" fill-rule="nonzero" fill-opacity="1" /><path clip-path="url(#clip060)" d="M127.339 753.109 Q123.728 753.109 121.899 756.674 Q120.093 760.216 120.093 767.345 Q120.093 774.452 121.899 778.016 Q123.728 781.558 127.339 781.558 Q130.973 781.558 132.779 778.016 Q134.607 774.452 134.607 767.345 Q134.607 760.216 132.779 756.674 Q130.973 753.109 127.339 753.109 M127.339 749.405 Q133.149 749.405 136.204 754.012 Q139.283 758.595 139.283 767.345 Q139.283 776.072 136.204 780.678 Q133.149 785.262 127.339 785.262 Q121.529 785.262 118.45 780.678 Q115.394 776.072 115.394 767.345 Q115.394 758.595 118.45 754.012 Q121.529 749.405 127.339 749.405 Z" fill="#000000" fill-rule="nonzero" fill-opacity="1" /><path clip-path="url(#clip060)" d="M147.501 778.711 L152.385 778.711 L152.385 784.59 L147.501 784.59 L147.501 778.711 Z" fill="#000000" fill-rule="nonzero" fill-opacity="1" /><path clip-path="url(#clip060)" d="M176.737 765.956 Q180.093 766.674 181.968 768.942 Q183.866 771.211 183.866 774.544 Q183.866 779.66 180.348 782.461 Q176.829 785.262 170.348 785.262 Q168.172 785.262 165.857 784.822 Q163.565 784.405 161.112 783.549 L161.112 779.035 Q163.056 780.169 165.371 780.748 Q167.686 781.327 170.209 781.327 Q174.607 781.327 176.899 779.59 Q179.214 777.854 179.214 774.544 Q179.214 771.489 177.061 769.776 Q174.931 768.04 171.112 768.04 L167.084 768.04 L167.084 764.197 L171.297 764.197 Q174.746 764.197 176.575 762.831 Q178.403 761.442 178.403 758.85 Q178.403 756.188 176.505 754.776 Q174.63 753.341 171.112 753.341 Q169.19 753.341 166.991 753.757 Q164.792 754.174 162.153 755.054 L162.153 750.887 Q164.815 750.146 167.13 749.776 Q169.468 749.405 171.528 749.405 Q176.852 749.405 179.954 751.836 Q183.056 754.243 183.056 758.364 Q183.056 761.234 181.413 763.225 Q179.769 765.192 176.737 765.956 Z" fill="#000000" fill-rule="nonzero" fill-opacity="1" /><path clip-path="url(#clip060)" d="M126.205 546.747 Q122.593 546.747 120.765 550.312 Q118.959 553.854 118.959 560.983 Q118.959 568.09 120.765 571.655 Q122.593 575.196 126.205 575.196 Q129.839 575.196 131.644 571.655 Q133.473 568.09 133.473 560.983 Q133.473 553.854 131.644 550.312 Q129.839 546.747 126.205 546.747 M126.205 543.044 Q132.015 543.044 135.07 547.65 Q138.149 552.233 138.149 560.983 Q138.149 569.71 135.07 574.317 Q132.015 578.9 126.205 578.9 Q120.394 578.9 117.316 574.317 Q114.26 569.71 114.26 560.983 Q114.26 552.233 117.316 547.65 Q120.394 543.044 126.205 543.044 Z" fill="#000000" fill-rule="nonzero" fill-opacity="1" /><path clip-path="url(#clip060)" d="M146.366 572.349 L151.251 572.349 L151.251 578.229 L146.366 578.229 L146.366 572.349 Z" fill="#000000" fill-rule="nonzero" fill-opacity="1" /><path clip-path="url(#clip060)" d="M174.283 547.743 L162.477 566.192 L174.283 566.192 L174.283 547.743 M173.056 543.669 L178.936 543.669 L178.936 566.192 L183.866 566.192 L183.866 570.081 L178.936 570.081 L178.936 578.229 L174.283 578.229 L174.283 570.081 L158.681 570.081 L158.681 565.567 L173.056 543.669 Z" fill="#000000" fill-rule="nonzero" fill-opacity="1" /><path clip-path="url(#clip060)" d="M127.686 340.386 Q124.075 340.386 122.246 343.95 Q120.441 347.492 120.441 354.622 Q120.441 361.728 122.246 365.293 Q124.075 368.835 127.686 368.835 Q131.32 368.835 133.126 365.293 Q134.954 361.728 134.954 354.622 Q134.954 347.492 133.126 343.95 Q131.32 340.386 127.686 340.386 M127.686 336.682 Q133.496 336.682 136.552 341.288 Q139.63 345.872 139.63 354.622 Q139.63 363.348 136.552 367.955 Q133.496 372.538 127.686 372.538 Q121.876 372.538 118.797 367.955 Q115.742 363.348 115.742 354.622 Q115.742 345.872 118.797 341.288 Q121.876 336.682 127.686 336.682 Z" fill="#000000" fill-rule="nonzero" fill-opacity="1" /><path clip-path="url(#clip060)" d="M147.848 365.987 L152.732 365.987 L152.732 371.867 L147.848 371.867 L147.848 365.987 Z" fill="#000000" fill-rule="nonzero" fill-opacity="1" /><path clip-path="url(#clip060)" d="M162.964 337.307 L181.32 337.307 L181.32 341.242 L167.246 341.242 L167.246 349.714 Q168.264 349.367 169.283 349.205 Q170.302 349.02 171.32 349.02 Q177.107 349.02 180.487 352.191 Q183.866 355.362 183.866 360.779 Q183.866 366.358 180.394 369.46 Q176.922 372.538 170.602 372.538 Q168.427 372.538 166.158 372.168 Q163.913 371.798 161.505 371.057 L161.505 366.358 Q163.589 367.492 165.811 368.048 Q168.033 368.603 170.51 368.603 Q174.514 368.603 176.852 366.497 Q179.19 364.39 179.19 360.779 Q179.19 357.168 176.852 355.061 Q174.514 352.955 170.51 352.955 Q168.635 352.955 166.76 353.372 Q164.908 353.788 162.964 354.668 L162.964 337.307 Z" fill="#000000" fill-rule="nonzero" fill-opacity="1" /><path clip-path="url(#clip060)" d="M126.529 134.024 Q122.918 134.024 121.089 137.589 Q119.283 141.13 119.283 148.26 Q119.283 155.366 121.089 158.931 Q122.918 162.473 126.529 162.473 Q130.163 162.473 131.968 158.931 Q133.797 155.366 133.797 148.26 Q133.797 141.13 131.968 137.589 Q130.163 134.024 126.529 134.024 M126.529 130.32 Q132.339 130.32 135.394 134.927 Q138.473 139.51 138.473 148.26 Q138.473 156.987 135.394 161.593 Q132.339 166.177 126.529 166.177 Q120.718 166.177 117.64 161.593 Q114.584 156.987 114.584 148.26 Q114.584 139.51 117.64 134.927 Q120.718 130.32 126.529 130.32 Z" fill="#000000" fill-rule="nonzero" fill-opacity="1" /><path clip-path="url(#clip060)" d="M146.691 159.626 L151.575 159.626 L151.575 165.505 L146.691 165.505 L146.691 159.626 Z" fill="#000000" fill-rule="nonzero" fill-opacity="1" /><path clip-path="url(#clip060)" d="M172.339 146.362 Q169.19 146.362 167.339 148.515 Q165.51 150.667 165.51 154.417 Q165.51 158.144 167.339 160.32 Q169.19 162.473 172.339 162.473 Q175.487 162.473 177.315 160.32 Q179.167 158.144 179.167 154.417 Q179.167 150.667 177.315 148.515 Q175.487 146.362 172.339 146.362 M181.621 131.709 L181.621 135.968 Q179.862 135.135 178.056 134.695 Q176.274 134.255 174.514 134.255 Q169.885 134.255 167.431 137.38 Q165.001 140.505 164.653 146.825 Q166.019 144.811 168.079 143.746 Q170.139 142.658 172.616 142.658 Q177.825 142.658 180.834 145.829 Q183.866 148.978 183.866 154.417 Q183.866 159.741 180.718 162.959 Q177.57 166.177 172.339 166.177 Q166.343 166.177 163.172 161.593 Q160.001 156.987 160.001 148.26 Q160.001 140.066 163.89 135.204 Q167.778 130.32 174.329 130.32 Q176.089 130.32 177.871 130.667 Q179.676 131.015 181.621 131.709 Z" fill="#000000" fill-rule="nonzero" fill-opacity="1" /><path clip-path="url(#clip060)" d="M20.1444 820.225 L26.9239 820.225 Q23.9002 823.472 22.4043 827.164 Q20.9083 830.824 20.9083 834.962 Q20.9083 843.11 25.9054 847.439 Q30.8707 851.767 40.2919 851.767 Q49.6813 851.767 54.6784 847.439 Q59.6436 843.11 59.6436 834.962 Q59.6436 830.824 58.1477 827.164 Q56.6518 823.472 53.6281 820.225 L60.3439 820.225 Q62.6355 823.599 63.7814 827.387 Q64.9272 831.143 64.9272 835.344 Q64.9272 846.134 58.3387 852.34 Q51.7183 858.547 40.2919 858.547 Q28.8336 858.547 22.2451 852.34 Q15.6248 846.134 15.6248 835.344 Q15.6248 831.079 16.7706 827.323 Q17.8846 823.535 20.1444 820.225 Z" fill="#000000" fill-rule="nonzero" fill-opacity="1" /><path clip-path="url(#clip060)" d="M16.4842 816.883 L16.4842 776.684 L21.895 776.684 L21.895 793.553 L64.0042 793.553 L64.0042 800.014 L21.895 800.014 L21.895 816.883 L16.4842 816.883 Z" fill="#000000" fill-rule="nonzero" fill-opacity="1" /><path clip-path="url(#clip060)" d="M16.4842 770.477 L16.4842 761.82 L56.238 740.749 L16.4842 740.749 L16.4842 734.511 L64.0042 734.511 L64.0042 743.168 L24.2503 764.239 L64.0042 764.239 L64.0042 770.477 L16.4842 770.477 Z" fill="#000000" fill-rule="nonzero" fill-opacity="1" /><path clip-path="url(#clip060)" d="M16.4842 728.305 L16.4842 688.105 L21.895 688.105 L21.895 704.974 L64.0042 704.974 L64.0042 711.435 L21.895 711.435 L21.895 728.305 L16.4842 728.305 Z" fill="#000000" fill-rule="nonzero" fill-opacity="1" /><path clip-path="url(#clip060)" d="M1038.23 18.8205 L1038.23 41.5461 L1048.52 41.5461 Q1054.23 41.5461 1057.35 38.5889 Q1060.47 35.6318 1060.47 30.163 Q1060.47 24.7348 1057.35 21.7777 Q1054.23 18.8205 1048.52 18.8205 L1038.23 18.8205 M1030.05 12.096 L1048.52 12.096 Q1058.69 12.096 1063.88 16.714 Q1069.1 21.2916 1069.1 30.163 Q1069.1 39.1155 1063.88 43.6931 Q1058.69 48.2706 1048.52 48.2706 L1038.23 48.2706 L1038.23 72.576 L1030.05 72.576 L1030.05 12.096 Z" fill="#000000" fill-rule="nonzero" fill-opacity="1" /><path clip-path="url(#clip060)" d="M1096.65 49.7694 Q1087.61 49.7694 1084.13 51.8354 Q1080.65 53.9013 1080.65 58.8839 Q1080.65 62.8538 1083.24 65.2034 Q1085.87 67.5124 1090.37 67.5124 Q1096.57 67.5124 1100.29 63.1374 Q1104.06 58.7219 1104.06 51.4303 L1104.06 49.7694 L1096.65 49.7694 M1111.51 46.6907 L1111.51 72.576 L1104.06 72.576 L1104.06 65.6895 Q1101.51 69.8214 1097.7 71.8063 Q1093.89 73.7508 1088.38 73.7508 Q1081.42 73.7508 1077.28 69.8619 Q1073.19 65.9325 1073.19 59.3701 Q1073.19 51.7138 1078.3 47.825 Q1083.44 43.9361 1093.61 43.9361 L1104.06 43.9361 L1104.06 43.2069 Q1104.06 38.0623 1100.66 35.2672 Q1097.3 32.4315 1091.18 32.4315 Q1087.29 32.4315 1083.6 33.3632 Q1079.92 34.295 1076.51 36.1584 L1076.51 29.2718 Q1080.61 27.692 1084.45 26.9223 Q1088.3 26.1121 1091.95 26.1121 Q1101.79 26.1121 1106.65 31.2163 Q1111.51 36.3204 1111.51 46.6907 Z" fill="#000000" fill-rule="nonzero" fill-opacity="1" /><path clip-path="url(#clip060)" d="M1134.24 14.324 L1134.24 27.2059 L1149.59 27.2059 L1149.59 32.9987 L1134.24 32.9987 L1134.24 57.6282 Q1134.24 63.1779 1135.74 64.7578 Q1137.28 66.3376 1141.94 66.3376 L1149.59 66.3376 L1149.59 72.576 L1141.94 72.576 Q1133.31 72.576 1130.03 69.3758 Q1126.75 66.1351 1126.75 57.6282 L1126.75 32.9987 L1121.28 32.9987 L1121.28 27.2059 L1126.75 27.2059 L1126.75 14.324 L1134.24 14.324 Z" fill="#000000" fill-rule="nonzero" fill-opacity="1" /><path clip-path="url(#clip060)" d="M1159.4 27.2059 L1166.85 27.2059 L1166.85 72.576 L1159.4 72.576 L1159.4 27.2059 M1159.4 9.54393 L1166.85 9.54393 L1166.85 18.9825 L1159.4 18.9825 L1159.4 9.54393 Z" fill="#000000" fill-rule="nonzero" fill-opacity="1" /><path clip-path="url(#clip060)" d="M1221.25 48.0275 L1221.25 51.6733 L1186.98 51.6733 Q1187.47 59.3701 1191.6 63.421 Q1195.77 67.4314 1203.19 67.4314 Q1207.48 67.4314 1211.49 66.3781 Q1215.54 65.3249 1219.51 63.2184 L1219.51 70.267 Q1215.5 71.9684 1211.29 72.8596 Q1207.08 73.7508 1202.74 73.7508 Q1191.88 73.7508 1185.52 67.4314 Q1179.21 61.1119 1179.21 50.3365 Q1179.21 39.1965 1185.2 32.6746 Q1191.24 26.1121 1201.44 26.1121 Q1210.6 26.1121 1215.91 32.0264 Q1221.25 37.9003 1221.25 48.0275 M1213.8 45.84 Q1213.72 39.7232 1210.36 36.0774 Q1207.03 32.4315 1201.53 32.4315 Q1195.29 32.4315 1191.52 35.9558 Q1187.79 39.4801 1187.23 45.8805 L1213.8 45.84 Z" fill="#000000" fill-rule="nonzero" fill-opacity="1" /><path clip-path="url(#clip060)" d="M1271.2 45.1919 L1271.2 72.576 L1263.75 72.576 L1263.75 45.4349 Q1263.75 38.994 1261.24 35.7938 Q1258.72 32.5936 1253.7 32.5936 Q1247.67 32.5936 1244.18 36.4419 Q1240.7 40.2903 1240.7 46.9338 L1240.7 72.576 L1233.2 72.576 L1233.2 27.2059 L1240.7 27.2059 L1240.7 34.2544 Q1243.37 30.163 1246.98 28.1376 Q1250.62 26.1121 1255.36 26.1121 Q1263.18 26.1121 1267.19 30.9732 Q1271.2 35.7938 1271.2 45.1919 Z" fill="#000000" fill-rule="nonzero" fill-opacity="1" /><path clip-path="url(#clip060)" d="M1293.44 14.324 L1293.44 27.2059 L1308.79 27.2059 L1308.79 32.9987 L1293.44 32.9987 L1293.44 57.6282 Q1293.44 63.1779 1294.94 64.7578 Q1296.48 66.3376 1301.14 66.3376 L1308.79 66.3376 L1308.79 72.576 L1301.14 72.576 Q1292.51 72.576 1289.23 69.3758 Q1285.95 66.1351 1285.95 57.6282 L1285.95 32.9987 L1280.48 32.9987 L1280.48 27.2059 L1285.95 27.2059 L1285.95 14.324 L1293.44 14.324 Z" fill="#000000" fill-rule="nonzero" fill-opacity="1" /><path clip-path="url(#clip060)" d="M1382.68 45.1919 L1382.68 72.576 L1375.23 72.576 L1375.23 45.4349 Q1375.23 38.994 1372.72 35.7938 Q1370.21 32.5936 1365.18 32.5936 Q1359.15 32.5936 1355.66 36.4419 Q1352.18 40.2903 1352.18 46.9338 L1352.18 72.576 L1344.68 72.576 L1344.68 27.2059 L1352.18 27.2059 L1352.18 34.2544 Q1354.85 30.163 1358.46 28.1376 Q1362.1 26.1121 1366.84 26.1121 Q1374.66 26.1121 1378.67 30.9732 Q1382.68 35.7938 1382.68 45.1919 Z" fill="#000000" fill-rule="nonzero" fill-opacity="1" /><path clip-path="url(#clip060)" d="M1400.02 65.6895 L1413.39 65.6895 L1413.39 19.5497 L1398.85 22.4663 L1398.85 15.0127 L1413.31 12.096 L1421.49 12.096 L1421.49 65.6895 L1434.86 65.6895 L1434.86 72.576 L1400.02 72.576 L1400.02 65.6895 Z" fill="#000000" fill-rule="nonzero" fill-opacity="1" /><path clip-path="url(#clip060)" d="M1468.89 17.4837 Q1462.57 17.4837 1459.37 23.7221 Q1456.21 29.92 1456.21 42.3968 Q1456.21 54.833 1459.37 61.0714 Q1462.57 67.2693 1468.89 67.2693 Q1475.25 67.2693 1478.4 61.0714 Q1481.61 54.833 1481.61 42.3968 Q1481.61 29.92 1478.4 23.7221 Q1475.25 17.4837 1468.89 17.4837 M1468.89 11.0023 Q1479.05 11.0023 1484.4 19.0636 Q1489.79 27.0843 1489.79 42.3968 Q1489.79 57.6687 1484.4 65.73 Q1479.05 73.7508 1468.89 73.7508 Q1458.72 73.7508 1453.33 65.73 Q1447.98 57.6687 1447.98 42.3968 Q1447.98 27.0843 1453.33 19.0636 Q1458.72 11.0023 1468.89 11.0023 Z" fill="#000000" fill-rule="nonzero" fill-opacity="1" /><path clip-path="url(#clip060)" d="M1521.67 17.4837 Q1515.35 17.4837 1512.15 23.7221 Q1508.99 29.92 1508.99 42.3968 Q1508.99 54.833 1512.15 61.0714 Q1515.35 67.2693 1521.67 67.2693 Q1528.03 67.2693 1531.19 61.0714 Q1534.39 54.833 1534.39 42.3968 Q1534.39 29.92 1531.19 23.7221 Q1528.03 17.4837 1521.67 17.4837 M1521.67 11.0023 Q1531.84 11.0023 1537.18 19.0636 Q1542.57 27.0843 1542.57 42.3968 Q1542.57 57.6687 1537.18 65.73 Q1531.84 73.7508 1521.67 73.7508 Q1511.5 73.7508 1506.11 65.73 Q1500.77 57.6687 1500.77 42.3968 Q1500.77 27.0843 1506.11 19.0636 Q1511.5 11.0023 1521.67 11.0023 Z" fill="#000000" fill-rule="nonzero" fill-opacity="1" /><polyline clip-path="url(#clip062)" style="stroke:#009af9; stroke-linecap:round; stroke-linejoin:round; stroke-width:8; stroke-opacity:1; fill:none" points="298.838,1386.4 318.773,426.979 338.709,403.066 358.644,408.238 378.58,414.482 398.515,420.922 418.451,427.488 438.386,434.387 458.322,441.331 478.257,447.882 498.193,454.83 518.128,462.156 538.064,469.496 558,476.804 577.935,484.103 597.871,491.369 617.806,498.617 637.742,506.033 657.677,513.378 677.613,520.661 697.548,527.928 717.484,535.144 737.419,542.308 757.355,549.427 777.29,556.482 797.226,563.422 817.161,570.247 837.097,576.956 857.033,583.555 876.968,590.075 896.904,596.355 916.839,602.396 936.775,608.198 956.71,613.761 976.646,619.085 996.581,624.056 1016.52,628.504 1036.45,632.429 1056.39,635.829 1076.32,638.408 1096.26,640.074 1116.19,640.679 1136.13,639.766 1156.07,637.105 1176,632.1 1195.94,624.045 1215.87,612.099 1235.81,595.056 1255.74,571.354 1275.68,539.153 1295.61,496.441 1315.55,441.655 1335.49,375.378 1355.42,302.15 1375.36,233.709 1395.29,182.8 1415.23,160.256 1435.16,161.189 1455.1,172.027 1475.03,188.829 1494.97,204.906 1514.91,221.002 1534.84,236.856 1554.78,252.441 1574.71,267.792 1594.65,282.978 1614.58,298.019 1634.52,312.883 1654.45,327.541 1674.39,341.988 1694.33,356.224 1714.26,370.637 1734.2,384.263 1754.13,398.017 1774.07,411.529 1794,424.795 1813.94,437.865 1833.87,450.768 1853.81,463.499 1873.74,476.059 1893.68,488.449 1913.62,500.654 1933.55,512.694 1953.49,524.577 1973.42,536.302 1993.36,547.869 2013.29,559.278 2033.23,570.531 2053.16,581.625 2073.1,592.562 2093.04,603.337 2112.97,613.962 2132.91,624.45 2152.84,634.801 2172.78,645.013 2192.71,655.088 2212.65,665.025 2232.58,674.825 2252.52,684.487 2272.46,694.011 2292.39,700.909 "/>
<circle clip-path="url(#clip062)" cx="280.231" cy="1180.65" r="18" fill="#e26f46" fill-rule="evenodd" fill-opacity="1" stroke="#000000" stroke-opacity="1" stroke-width="3.2"/>
<circle clip-path="url(#clip062)" cx="471.612" cy="434.243" r="18" fill="#e26f46" fill-rule="evenodd" fill-opacity="1" stroke="#000000" stroke-opacity="1" stroke-width="3.2"/>
<circle clip-path="url(#clip062)" cx="590.561" cy="599.745" r="18" fill="#e26f46" fill-rule="evenodd" fill-opacity="1" stroke="#000000" stroke-opacity="1" stroke-width="3.2"/>
<circle clip-path="url(#clip062)" cx="835.768" cy="479.436" r="18" fill="#e26f46" fill-rule="evenodd" fill-opacity="1" stroke="#000000" stroke-opacity="1" stroke-width="3.2"/>
<circle clip-path="url(#clip062)" cx="1317.54" cy="368.207" r="18" fill="#e26f46" fill-rule="evenodd" fill-opacity="1" stroke="#000000" stroke-opacity="1" stroke-width="3.2"/>
<circle clip-path="url(#clip062)" cx="1788.02" cy="416.083" r="18" fill="#e26f46" fill-rule="evenodd" fill-opacity="1" stroke="#000000" stroke-opacity="1" stroke-width="3.2"/>
<circle clip-path="url(#clip062)" cx="2267.14" cy="735.118" r="18" fill="#e26f46" fill-rule="evenodd" fill-opacity="1" stroke="#000000" stroke-opacity="1" stroke-width="3.2"/>
<path clip-path="url(#clip060)" d="M1684.14 322.316 L2281.66 322.316 L2281.66 166.796 L1684.14 166.796  Z" fill="#ffffff" fill-rule="evenodd" fill-opacity="1"/>
<polyline clip-path="url(#clip060)" style="stroke:#000000; stroke-linecap:round; stroke-linejoin:round; stroke-width:4; stroke-opacity:1; fill:none" points="1684.14,322.316 2281.66,322.316 2281.66,166.796 1684.14,166.796 1684.14,322.316 "/>
<polyline clip-path="url(#clip060)" style="stroke:#009af9; stroke-linecap:round; stroke-linejoin:round; stroke-width:8; stroke-opacity:1; fill:none" points="1707.84,218.636 1850.03,218.636 "/>
<path clip-path="url(#clip060)" d="M1873.73 201.356 L1880.69 201.356 L1889.51 224.874 L1898.38 201.356 L1905.35 201.356 L1905.35 235.916 L1900.79 235.916 L1900.79 205.569 L1891.87 229.272 L1887.18 229.272 L1878.26 205.569 L1878.26 235.916 L1873.73 235.916 L1873.73 201.356 Z" fill="#000000" fill-rule="nonzero" fill-opacity="1" /><path clip-path="url(#clip060)" d="M1924.49 212.976 Q1921.06 212.976 1919.07 215.661 Q1917.08 218.323 1917.08 222.976 Q1917.08 227.629 1919.05 230.314 Q1921.04 232.976 1924.49 232.976 Q1927.89 232.976 1929.88 230.291 Q1931.87 227.606 1931.87 222.976 Q1931.87 218.37 1929.88 215.684 Q1927.89 212.976 1924.49 212.976 M1924.49 209.365 Q1930.05 209.365 1933.22 212.976 Q1936.39 216.587 1936.39 222.976 Q1936.39 229.342 1933.22 232.976 Q1930.05 236.587 1924.49 236.587 Q1918.91 236.587 1915.74 232.976 Q1912.59 229.342 1912.59 222.976 Q1912.59 216.587 1915.74 212.976 Q1918.91 209.365 1924.49 209.365 Z" fill="#000000" fill-rule="nonzero" fill-opacity="1" /><path clip-path="url(#clip060)" d="M1960.51 213.925 L1960.51 199.897 L1964.77 199.897 L1964.77 235.916 L1960.51 235.916 L1960.51 232.027 Q1959.17 234.342 1957.11 235.476 Q1955.07 236.587 1952.2 236.587 Q1947.5 236.587 1944.54 232.837 Q1941.6 229.087 1941.6 222.976 Q1941.6 216.865 1944.54 213.115 Q1947.5 209.365 1952.2 209.365 Q1955.07 209.365 1957.11 210.499 Q1959.17 211.61 1960.51 213.925 M1945.99 222.976 Q1945.99 227.675 1947.92 230.36 Q1949.86 233.022 1953.24 233.022 Q1956.62 233.022 1958.56 230.36 Q1960.51 227.675 1960.51 222.976 Q1960.51 218.277 1958.56 215.615 Q1956.62 212.93 1953.24 212.93 Q1949.86 212.93 1947.92 215.615 Q1945.99 218.277 1945.99 222.976 Z" fill="#000000" fill-rule="nonzero" fill-opacity="1" /><path clip-path="url(#clip060)" d="M1995.72 221.888 L1995.72 223.971 L1976.13 223.971 Q1976.41 228.369 1978.77 230.684 Q1981.16 232.976 1985.39 232.976 Q1987.85 232.976 1990.14 232.374 Q1992.45 231.772 1994.72 230.569 L1994.72 234.596 Q1992.43 235.568 1990.02 236.078 Q1987.62 236.587 1985.14 236.587 Q1978.93 236.587 1975.3 232.976 Q1971.69 229.365 1971.69 223.207 Q1971.69 216.842 1975.12 213.115 Q1978.56 209.365 1984.4 209.365 Q1989.63 209.365 1992.66 212.745 Q1995.72 216.101 1995.72 221.888 M1991.46 220.638 Q1991.41 217.143 1989.49 215.059 Q1987.59 212.976 1984.44 212.976 Q1980.88 212.976 1978.73 214.99 Q1976.6 217.004 1976.27 220.661 L1991.46 220.638 Z" fill="#000000" fill-rule="nonzero" fill-opacity="1" /><path clip-path="url(#clip060)" d="M2002.71 199.897 L2006.97 199.897 L2006.97 235.916 L2002.71 235.916 L2002.71 199.897 Z" fill="#000000" fill-rule="nonzero" fill-opacity="1" /><path clip-path="url(#clip060)" d="M2035.81 205.198 L2035.81 218.184 L2041.69 218.184 Q2044.95 218.184 2046.74 216.495 Q2048.52 214.805 2048.52 211.68 Q2048.52 208.578 2046.74 206.888 Q2044.95 205.198 2041.69 205.198 L2035.81 205.198 M2031.13 201.356 L2041.69 201.356 Q2047.5 201.356 2050.46 203.995 Q2053.45 206.61 2053.45 211.68 Q2053.45 216.795 2050.46 219.411 Q2047.5 222.027 2041.69 222.027 L2035.81 222.027 L2035.81 235.916 L2031.13 235.916 L2031.13 201.356 Z" fill="#000000" fill-rule="nonzero" fill-opacity="1" /><path clip-path="url(#clip060)" d="M2073.73 213.971 Q2073.01 213.555 2072.15 213.37 Q2071.32 213.161 2070.3 213.161 Q2066.69 213.161 2064.74 215.522 Q2062.82 217.86 2062.82 222.258 L2062.82 235.916 L2058.54 235.916 L2058.54 209.99 L2062.82 209.99 L2062.82 214.018 Q2064.17 211.657 2066.32 210.522 Q2068.47 209.365 2071.55 209.365 Q2071.99 209.365 2072.52 209.434 Q2073.05 209.481 2073.7 209.596 L2073.73 213.971 Z" fill="#000000" fill-rule="nonzero" fill-opacity="1" /><path clip-path="url(#clip060)" d="M2099.33 221.888 L2099.33 223.971 L2079.74 223.971 Q2080.02 228.369 2082.38 230.684 Q2084.77 232.976 2089 232.976 Q2091.46 232.976 2093.75 232.374 Q2096.06 231.772 2098.33 230.569 L2098.33 234.596 Q2096.04 235.568 2093.63 236.078 Q2091.23 236.587 2088.75 236.587 Q2082.55 236.587 2078.91 232.976 Q2075.3 229.365 2075.3 223.207 Q2075.3 216.842 2078.73 213.115 Q2082.17 209.365 2088.01 209.365 Q2093.24 209.365 2096.27 212.745 Q2099.33 216.101 2099.33 221.888 M2095.07 220.638 Q2095.02 217.143 2093.1 215.059 Q2091.2 212.976 2088.05 212.976 Q2084.49 212.976 2082.34 214.99 Q2080.21 217.004 2079.88 220.661 L2095.07 220.638 Z" fill="#000000" fill-rule="nonzero" fill-opacity="1" /><path clip-path="url(#clip060)" d="M2123.38 213.925 L2123.38 199.897 L2127.64 199.897 L2127.64 235.916 L2123.38 235.916 L2123.38 232.027 Q2122.04 234.342 2119.98 235.476 Q2117.94 236.587 2115.07 236.587 Q2110.37 236.587 2107.41 232.837 Q2104.47 229.087 2104.47 222.976 Q2104.47 216.865 2107.41 213.115 Q2110.37 209.365 2115.07 209.365 Q2117.94 209.365 2119.98 210.499 Q2122.04 211.61 2123.38 213.925 M2108.86 222.976 Q2108.86 227.675 2110.79 230.36 Q2112.73 233.022 2116.11 233.022 Q2119.49 233.022 2121.43 230.36 Q2123.38 227.675 2123.38 222.976 Q2123.38 218.277 2121.43 215.615 Q2119.49 212.93 2116.11 212.93 Q2112.73 212.93 2110.79 215.615 Q2108.86 218.277 2108.86 222.976 Z" fill="#000000" fill-rule="nonzero" fill-opacity="1" /><path clip-path="url(#clip060)" d="M2136.41 209.99 L2140.67 209.99 L2140.67 235.916 L2136.41 235.916 L2136.41 209.99 M2136.41 199.897 L2140.67 199.897 L2140.67 205.291 L2136.41 205.291 L2136.41 199.897 Z" fill="#000000" fill-rule="nonzero" fill-opacity="1" /><path clip-path="url(#clip060)" d="M2168.24 210.985 L2168.24 214.967 Q2166.43 213.971 2164.6 213.485 Q2162.8 212.976 2160.95 212.976 Q2156.8 212.976 2154.51 215.615 Q2152.22 218.231 2152.22 222.976 Q2152.22 227.721 2154.51 230.36 Q2156.8 232.976 2160.95 232.976 Q2162.8 232.976 2164.6 232.49 Q2166.43 231.981 2168.24 230.985 L2168.24 234.92 Q2166.46 235.754 2164.54 236.17 Q2162.64 236.587 2160.48 236.587 Q2154.63 236.587 2151.18 232.906 Q2147.73 229.226 2147.73 222.976 Q2147.73 216.633 2151.2 212.999 Q2154.7 209.365 2160.76 209.365 Q2162.73 209.365 2164.6 209.782 Q2166.48 210.175 2168.24 210.985 Z" fill="#000000" fill-rule="nonzero" fill-opacity="1" /><path clip-path="url(#clip060)" d="M2179.86 202.629 L2179.86 209.99 L2188.63 209.99 L2188.63 213.3 L2179.86 213.3 L2179.86 227.374 Q2179.86 230.545 2180.72 231.448 Q2181.6 232.351 2184.26 232.351 L2188.63 232.351 L2188.63 235.916 L2184.26 235.916 Q2179.33 235.916 2177.45 234.087 Q2175.58 232.235 2175.58 227.374 L2175.58 213.3 L2172.45 213.3 L2172.45 209.99 L2175.58 209.99 L2175.58 202.629 L2179.86 202.629 Z" fill="#000000" fill-rule="nonzero" fill-opacity="1" /><path clip-path="url(#clip060)" d="M2194.23 209.99 L2198.49 209.99 L2198.49 235.916 L2194.23 235.916 L2194.23 209.99 M2194.23 199.897 L2198.49 199.897 L2198.49 205.291 L2194.23 205.291 L2194.23 199.897 Z" fill="#000000" fill-rule="nonzero" fill-opacity="1" /><path clip-path="url(#clip060)" d="M2217.45 212.976 Q2214.03 212.976 2212.04 215.661 Q2210.04 218.323 2210.04 222.976 Q2210.04 227.629 2212.01 230.314 Q2214 232.976 2217.45 232.976 Q2220.85 232.976 2222.85 230.291 Q2224.84 227.606 2224.84 222.976 Q2224.84 218.37 2222.85 215.684 Q2220.85 212.976 2217.45 212.976 M2217.45 209.365 Q2223.01 209.365 2226.18 212.976 Q2229.35 216.587 2229.35 222.976 Q2229.35 229.342 2226.18 232.976 Q2223.01 236.587 2217.45 236.587 Q2211.87 236.587 2208.7 232.976 Q2205.55 229.342 2205.55 222.976 Q2205.55 216.587 2208.7 212.976 Q2211.87 209.365 2217.45 209.365 Z" fill="#000000" fill-rule="nonzero" fill-opacity="1" /><path clip-path="url(#clip060)" d="M2257.96 220.268 L2257.96 235.916 L2253.7 235.916 L2253.7 220.407 Q2253.7 216.726 2252.27 214.897 Q2250.83 213.069 2247.96 213.069 Q2244.51 213.069 2242.52 215.268 Q2240.53 217.467 2240.53 221.263 L2240.53 235.916 L2236.25 235.916 L2236.25 209.99 L2240.53 209.99 L2240.53 214.018 Q2242.06 211.68 2244.12 210.522 Q2246.2 209.365 2248.91 209.365 Q2253.38 209.365 2255.67 212.143 Q2257.96 214.897 2257.96 220.268 Z" fill="#000000" fill-rule="nonzero" fill-opacity="1" /><circle clip-path="url(#clip060)" cx="1778.93" cy="270.476" r="20.9455" fill="#e26f46" fill-rule="evenodd" fill-opacity="1" stroke="#000000" stroke-opacity="1" stroke-width="3.72364"/>
<path clip-path="url(#clip060)" d="M1889.75 256.367 Q1884.65 256.367 1881.64 260.163 Q1878.66 263.96 1878.66 270.51 Q1878.66 277.038 1881.64 280.834 Q1884.65 284.631 1889.75 284.631 Q1894.84 284.631 1897.8 280.834 Q1900.79 277.038 1900.79 270.51 Q1900.79 263.96 1897.8 260.163 Q1894.84 256.367 1889.75 256.367 M1889.75 252.571 Q1897.01 252.571 1901.37 257.455 Q1905.72 262.316 1905.72 270.51 Q1905.72 278.682 1901.37 283.566 Q1897.01 288.427 1889.75 288.427 Q1882.45 288.427 1878.08 283.566 Q1873.73 278.705 1873.73 270.51 Q1873.73 262.316 1878.08 257.455 Q1882.45 252.571 1889.75 252.571 Z" fill="#000000" fill-rule="nonzero" fill-opacity="1" /><path clip-path="url(#clip060)" d="M1931.46 274.816 Q1931.46 270.117 1929.51 267.455 Q1927.59 264.77 1924.21 264.77 Q1920.83 264.77 1918.89 267.455 Q1916.97 270.117 1916.97 274.816 Q1916.97 279.515 1918.89 282.2 Q1920.83 284.862 1924.21 284.862 Q1927.59 284.862 1929.51 282.2 Q1931.46 279.515 1931.46 274.816 M1916.97 265.765 Q1918.31 263.45 1920.35 262.339 Q1922.41 261.205 1925.25 261.205 Q1929.98 261.205 1932.92 264.955 Q1935.88 268.705 1935.88 274.816 Q1935.88 280.927 1932.92 284.677 Q1929.98 288.427 1925.25 288.427 Q1922.41 288.427 1920.35 287.316 Q1918.31 286.182 1916.97 283.867 L1916.97 287.756 L1912.68 287.756 L1912.68 251.737 L1916.97 251.737 L1916.97 265.765 Z" fill="#000000" fill-rule="nonzero" fill-opacity="1" /><path clip-path="url(#clip060)" d="M1959.47 262.594 L1959.47 266.622 Q1957.66 265.696 1955.72 265.233 Q1953.77 264.77 1951.69 264.77 Q1948.52 264.77 1946.92 265.742 Q1945.35 266.714 1945.35 268.659 Q1945.35 270.14 1946.48 270.997 Q1947.62 271.83 1951.04 272.594 L1952.5 272.918 Q1957.04 273.89 1958.93 275.672 Q1960.86 277.432 1960.86 280.603 Q1960.86 284.214 1957.99 286.321 Q1955.14 288.427 1950.14 288.427 Q1948.06 288.427 1945.79 288.01 Q1943.54 287.617 1941.04 286.807 L1941.04 282.409 Q1943.4 283.635 1945.69 284.26 Q1947.99 284.862 1950.23 284.862 Q1953.24 284.862 1954.86 283.844 Q1956.48 282.802 1956.48 280.927 Q1956.48 279.191 1955.3 278.265 Q1954.14 277.339 1950.18 276.483 L1948.7 276.135 Q1944.74 275.302 1942.99 273.589 Q1941.23 271.853 1941.23 268.844 Q1941.23 265.186 1943.82 263.196 Q1946.41 261.205 1951.18 261.205 Q1953.54 261.205 1955.62 261.552 Q1957.71 261.899 1959.47 262.594 Z" fill="#000000" fill-rule="nonzero" fill-opacity="1" /><path clip-path="url(#clip060)" d="M1989.81 273.728 L1989.81 275.811 L1970.23 275.811 Q1970.51 280.209 1972.87 282.524 Q1975.25 284.816 1979.49 284.816 Q1981.94 284.816 1984.24 284.214 Q1986.55 283.612 1988.82 282.409 L1988.82 286.436 Q1986.53 287.408 1984.12 287.918 Q1981.71 288.427 1979.24 288.427 Q1973.03 288.427 1969.4 284.816 Q1965.79 281.205 1965.79 275.047 Q1965.79 268.682 1969.21 264.955 Q1972.66 261.205 1978.49 261.205 Q1983.73 261.205 1986.76 264.585 Q1989.81 267.941 1989.81 273.728 M1985.55 272.478 Q1985.51 268.983 1983.59 266.899 Q1981.69 264.816 1978.54 264.816 Q1974.98 264.816 1972.82 266.83 Q1970.69 268.844 1970.37 272.501 L1985.55 272.478 Z" fill="#000000" fill-rule="nonzero" fill-opacity="1" /><path clip-path="url(#clip060)" d="M2011.83 265.811 Q2011.11 265.395 2010.25 265.21 Q2009.42 265.001 2008.4 265.001 Q2004.79 265.001 2002.85 267.362 Q2000.93 269.7 2000.93 274.098 L2000.93 287.756 L1996.64 287.756 L1996.64 261.83 L2000.93 261.83 L2000.93 265.858 Q2002.27 263.497 2004.42 262.362 Q2006.57 261.205 2009.65 261.205 Q2010.09 261.205 2010.62 261.274 Q2011.16 261.321 2011.8 261.436 L2011.83 265.811 Z" fill="#000000" fill-rule="nonzero" fill-opacity="1" /><path clip-path="url(#clip060)" d="M2013.24 261.83 L2017.75 261.83 L2025.86 283.589 L2033.96 261.83 L2038.47 261.83 L2028.75 287.756 L2022.96 287.756 L2013.24 261.83 Z" fill="#000000" fill-rule="nonzero" fill-opacity="1" /><path clip-path="url(#clip060)" d="M2066.53 273.728 L2066.53 275.811 L2046.94 275.811 Q2047.22 280.209 2049.58 282.524 Q2051.97 284.816 2056.2 284.816 Q2058.66 284.816 2060.95 284.214 Q2063.26 283.612 2065.53 282.409 L2065.53 286.436 Q2063.24 287.408 2060.83 287.918 Q2058.42 288.427 2055.95 288.427 Q2049.74 288.427 2046.11 284.816 Q2042.5 281.205 2042.5 275.047 Q2042.5 268.682 2045.92 264.955 Q2049.37 261.205 2055.21 261.205 Q2060.44 261.205 2063.47 264.585 Q2066.53 267.941 2066.53 273.728 M2062.27 272.478 Q2062.22 268.983 2060.3 266.899 Q2058.4 264.816 2055.25 264.816 Q2051.69 264.816 2049.54 266.83 Q2047.41 268.844 2047.08 272.501 L2062.27 272.478 Z" fill="#000000" fill-rule="nonzero" fill-opacity="1" /><path clip-path="url(#clip060)" d="M2090.58 265.765 L2090.58 251.737 L2094.84 251.737 L2094.84 287.756 L2090.58 287.756 L2090.58 283.867 Q2089.23 286.182 2087.17 287.316 Q2085.14 288.427 2082.27 288.427 Q2077.57 288.427 2074.61 284.677 Q2071.67 280.927 2071.67 274.816 Q2071.67 268.705 2074.61 264.955 Q2077.57 261.205 2082.27 261.205 Q2085.14 261.205 2087.17 262.339 Q2089.23 263.45 2090.58 265.765 M2076.06 274.816 Q2076.06 279.515 2077.98 282.2 Q2079.93 284.862 2083.31 284.862 Q2086.69 284.862 2088.63 282.2 Q2090.58 279.515 2090.58 274.816 Q2090.58 270.117 2088.63 267.455 Q2086.69 264.77 2083.31 264.77 Q2079.93 264.77 2077.98 267.455 Q2076.06 270.117 2076.06 274.816 Z" fill="#000000" fill-rule="nonzero" fill-opacity="1" /><path clip-path="url(#clip060)" d="M2123.54 257.038 L2123.54 283.913 L2129.19 283.913 Q2136.34 283.913 2139.65 280.672 Q2142.98 277.432 2142.98 270.441 Q2142.98 263.497 2139.65 260.279 Q2136.34 257.038 2129.19 257.038 L2123.54 257.038 M2118.86 253.196 L2128.47 253.196 Q2138.52 253.196 2143.22 257.386 Q2147.92 261.552 2147.92 270.441 Q2147.92 279.376 2143.19 283.566 Q2138.47 287.756 2128.47 287.756 L2118.86 287.756 L2118.86 253.196 Z" fill="#000000" fill-rule="nonzero" fill-opacity="1" /><path clip-path="url(#clip060)" d="M2166.97 274.723 Q2161.8 274.723 2159.81 275.904 Q2157.82 277.084 2157.82 279.932 Q2157.82 282.2 2159.3 283.543 Q2160.81 284.862 2163.38 284.862 Q2166.92 284.862 2169.05 282.362 Q2171.2 279.839 2171.2 275.672 L2171.2 274.723 L2166.97 274.723 M2175.46 272.964 L2175.46 287.756 L2171.2 287.756 L2171.2 283.821 Q2169.74 286.182 2167.57 287.316 Q2165.39 288.427 2162.24 288.427 Q2158.26 288.427 2155.9 286.205 Q2153.56 283.959 2153.56 280.209 Q2153.56 275.834 2156.48 273.612 Q2159.42 271.39 2165.23 271.39 L2171.2 271.39 L2171.2 270.973 Q2171.2 268.034 2169.26 266.436 Q2167.34 264.816 2163.84 264.816 Q2161.62 264.816 2159.51 265.348 Q2157.41 265.881 2155.46 266.946 L2155.46 263.01 Q2157.8 262.108 2160 261.668 Q2162.2 261.205 2164.28 261.205 Q2169.91 261.205 2172.68 264.122 Q2175.46 267.038 2175.46 272.964 Z" fill="#000000" fill-rule="nonzero" fill-opacity="1" /><path clip-path="url(#clip060)" d="M2188.45 254.469 L2188.45 261.83 L2197.22 261.83 L2197.22 265.14 L2188.45 265.14 L2188.45 279.214 Q2188.45 282.385 2189.3 283.288 Q2190.18 284.191 2192.85 284.191 L2197.22 284.191 L2197.22 287.756 L2192.85 287.756 Q2187.91 287.756 2186.04 285.927 Q2184.16 284.075 2184.16 279.214 L2184.16 265.14 L2181.04 265.14 L2181.04 261.83 L2184.16 261.83 L2184.16 254.469 L2188.45 254.469 Z" fill="#000000" fill-rule="nonzero" fill-opacity="1" /><path clip-path="url(#clip060)" d="M2214.6 274.723 Q2209.44 274.723 2207.45 275.904 Q2205.46 277.084 2205.46 279.932 Q2205.46 282.2 2206.94 283.543 Q2208.45 284.862 2211.02 284.862 Q2214.56 284.862 2216.69 282.362 Q2218.84 279.839 2218.84 275.672 L2218.84 274.723 L2214.6 274.723 M2223.1 272.964 L2223.1 287.756 L2218.84 287.756 L2218.84 283.821 Q2217.38 286.182 2215.21 287.316 Q2213.03 288.427 2209.88 288.427 Q2205.9 288.427 2203.54 286.205 Q2201.2 283.959 2201.2 280.209 Q2201.2 275.834 2204.12 273.612 Q2207.06 271.39 2212.87 271.39 L2218.84 271.39 L2218.84 270.973 Q2218.84 268.034 2216.9 266.436 Q2214.97 264.816 2211.48 264.816 Q2209.26 264.816 2207.15 265.348 Q2205.04 265.881 2203.1 266.946 L2203.1 263.01 Q2205.44 262.108 2207.64 261.668 Q2209.84 261.205 2211.92 261.205 Q2217.54 261.205 2220.32 264.122 Q2223.1 267.038 2223.1 272.964 Z" fill="#000000" fill-rule="nonzero" fill-opacity="1" /></svg>
