<?xml version="1.0" encoding="utf-8"?>
<svg xmlns="http://www.w3.org/2000/svg" xmlns:xlink="http://www.w3.org/1999/xlink" width="800" height="400" viewBox="0 0 3200 1600">
<defs>
  <clipPath id="clip690">
    <rect x="0" y="0" width="3200" height="1600"/>
  </clipPath>
</defs>
<path clip-path="url(#clip690)" d="M0 1600 L3200 1600 L3200 0 L0 0  Z" fill="#ffffff" fill-rule="evenodd" fill-opacity="1"/>
<defs>
  <clipPath id="clip691">
    <rect x="640" y="0" width="2241" height="1600"/>
  </clipPath>
</defs>
<path clip-path="url(#clip690)" d="M215.5 1495.09 L1600.42 1495.09 L1600.42 47.2441 L215.5 47.2441  Z" fill="#ffffff" fill-rule="evenodd" fill-opacity="1"/>
<defs>
  <clipPath id="clip692">
    <rect x="215" y="47" width="1386" height="1449"/>
  </clipPath>
</defs>
<polyline clip-path="url(#clip692)" style="stroke:#000000; stroke-linecap:round; stroke-linejoin:round; stroke-width:2; stroke-opacity:0.1; fill:none" points="441.342,1495.09 441.342,47.2441 "/>
<polyline clip-path="url(#clip692)" style="stroke:#000000; stroke-linecap:round; stroke-linejoin:round; stroke-width:2; stroke-opacity:0.1; fill:none" points="674.651,1495.09 674.651,47.2441 "/>
<polyline clip-path="url(#clip692)" style="stroke:#000000; stroke-linecap:round; stroke-linejoin:round; stroke-width:2; stroke-opacity:0.1; fill:none" points="907.959,1495.09 907.959,47.2441 "/>
<polyline clip-path="url(#clip692)" style="stroke:#000000; stroke-linecap:round; stroke-linejoin:round; stroke-width:2; stroke-opacity:0.1; fill:none" points="1141.27,1495.09 1141.27,47.2441 "/>
<polyline clip-path="url(#clip692)" style="stroke:#000000; stroke-linecap:round; stroke-linejoin:round; stroke-width:2; stroke-opacity:0.1; fill:none" points="1374.58,1495.09 1374.58,47.2441 "/>
<polyline clip-path="url(#clip692)" style="stroke:#000000; stroke-linecap:round; stroke-linejoin:round; stroke-width:2; stroke-opacity:0.1; fill:none" points="215.5,1454.65 1600.42,1454.65 "/>
<polyline clip-path="url(#clip692)" style="stroke:#000000; stroke-linecap:round; stroke-linejoin:round; stroke-width:2; stroke-opacity:0.1; fill:none" points="215.5,1185.4 1600.42,1185.4 "/>
<polyline clip-path="url(#clip692)" style="stroke:#000000; stroke-linecap:round; stroke-linejoin:round; stroke-width:2; stroke-opacity:0.1; fill:none" points="215.5,916.141 1600.42,916.141 "/>
<polyline clip-path="url(#clip692)" style="stroke:#000000; stroke-linecap:round; stroke-linejoin:round; stroke-width:2; stroke-opacity:0.1; fill:none" points="215.5,646.887 1600.42,646.887 "/>
<polyline clip-path="url(#clip692)" style="stroke:#000000; stroke-linecap:round; stroke-linejoin:round; stroke-width:2; stroke-opacity:0.1; fill:none" points="215.5,377.632 1600.42,377.632 "/>
<polyline clip-path="url(#clip692)" style="stroke:#000000; stroke-linecap:round; stroke-linejoin:round; stroke-width:2; stroke-opacity:0.1; fill:none" points="215.5,108.378 1600.42,108.378 "/>
<polyline clip-path="url(#clip690)" style="stroke:#000000; stroke-linecap:round; stroke-linejoin:round; stroke-width:4; stroke-opacity:1; fill:none" points="215.5,1495.09 1600.42,1495.09 "/>
<polyline clip-path="url(#clip690)" style="stroke:#000000; stroke-linecap:round; stroke-linejoin:round; stroke-width:4; stroke-opacity:1; fill:none" points="441.342,1495.09 441.342,1476.19 "/>
<polyline clip-path="url(#clip690)" style="stroke:#000000; stroke-linecap:round; stroke-linejoin:round; stroke-width:4; stroke-opacity:1; fill:none" points="674.651,1495.09 674.651,1476.19 "/>
<polyline clip-path="url(#clip690)" style="stroke:#000000; stroke-linecap:round; stroke-linejoin:round; stroke-width:4; stroke-opacity:1; fill:none" points="907.959,1495.09 907.959,1476.19 "/>
<polyline clip-path="url(#clip690)" style="stroke:#000000; stroke-linecap:round; stroke-linejoin:round; stroke-width:4; stroke-opacity:1; fill:none" points="1141.27,1495.09 1141.27,1476.19 "/>
<polyline clip-path="url(#clip690)" style="stroke:#000000; stroke-linecap:round; stroke-linejoin:round; stroke-width:4; stroke-opacity:1; fill:none" points="1374.58,1495.09 1374.58,1476.19 "/>
<path clip-path="url(#clip690)" d="M408.495 1559.95 L416.134 1559.95 L416.134 1533.59 L407.824 1535.25 L407.824 1530.99 L416.088 1529.33 L420.764 1529.33 L420.764 1559.95 L428.403 1559.95 L428.403 1563.89 L408.495 1563.89 L408.495 1559.95 Z" fill="#000000" fill-rule="nonzero" fill-opacity="1" /><path clip-path="url(#clip690)" d="M437.847 1558.01 L442.731 1558.01 L442.731 1563.89 L437.847 1563.89 L437.847 1558.01 Z" fill="#000000" fill-rule="nonzero" fill-opacity="1" /><path clip-path="url(#clip690)" d="M462.916 1532.41 Q459.305 1532.41 457.477 1535.97 Q455.671 1539.51 455.671 1546.64 Q455.671 1553.75 457.477 1557.31 Q459.305 1560.86 462.916 1560.86 Q466.551 1560.86 468.356 1557.31 Q470.185 1553.75 470.185 1546.64 Q470.185 1539.51 468.356 1535.97 Q466.551 1532.41 462.916 1532.41 M462.916 1528.7 Q468.727 1528.7 471.782 1533.31 Q474.861 1537.89 474.861 1546.64 Q474.861 1555.37 471.782 1559.98 Q468.727 1564.56 462.916 1564.56 Q457.106 1564.56 454.028 1559.98 Q450.972 1555.37 450.972 1546.64 Q450.972 1537.89 454.028 1533.31 Q457.106 1528.7 462.916 1528.7 Z" fill="#000000" fill-rule="nonzero" fill-opacity="1" /><path clip-path="url(#clip690)" d="M642.301 1559.95 L649.94 1559.95 L649.94 1533.59 L641.63 1535.25 L641.63 1530.99 L649.894 1529.33 L654.57 1529.33 L654.57 1559.95 L662.209 1559.95 L662.209 1563.89 L642.301 1563.89 L642.301 1559.95 Z" fill="#000000" fill-rule="nonzero" fill-opacity="1" /><path clip-path="url(#clip690)" d="M671.653 1558.01 L676.537 1558.01 L676.537 1563.89 L671.653 1563.89 L671.653 1558.01 Z" fill="#000000" fill-rule="nonzero" fill-opacity="1" /><path clip-path="url(#clip690)" d="M686.769 1529.33 L705.125 1529.33 L705.125 1533.26 L691.051 1533.26 L691.051 1541.74 Q692.07 1541.39 693.088 1541.23 Q694.107 1541.04 695.125 1541.04 Q700.912 1541.04 704.292 1544.21 Q707.671 1547.38 707.671 1552.8 Q707.671 1558.38 704.199 1561.48 Q700.727 1564.56 694.407 1564.56 Q692.232 1564.56 689.963 1564.19 Q687.718 1563.82 685.31 1563.08 L685.31 1558.38 Q687.394 1559.51 689.616 1560.07 Q691.838 1560.62 694.315 1560.62 Q698.319 1560.62 700.657 1558.52 Q702.995 1556.41 702.995 1552.8 Q702.995 1549.19 700.657 1547.08 Q698.319 1544.98 694.315 1544.98 Q692.44 1544.98 690.565 1545.39 Q688.713 1545.81 686.769 1546.69 L686.769 1529.33 Z" fill="#000000" fill-rule="nonzero" fill-opacity="1" /><path clip-path="url(#clip690)" d="M879.197 1559.95 L895.517 1559.95 L895.517 1563.89 L873.572 1563.89 L873.572 1559.95 Q876.234 1557.2 880.818 1552.57 Q885.424 1547.92 886.605 1546.57 Q888.85 1544.05 889.73 1542.31 Q890.632 1540.55 890.632 1538.86 Q890.632 1536.11 888.688 1534.37 Q886.767 1532.64 883.665 1532.64 Q881.466 1532.64 879.012 1533.4 Q876.582 1534.17 873.804 1535.72 L873.804 1530.99 Q876.628 1529.86 879.082 1529.28 Q881.535 1528.7 883.572 1528.7 Q888.943 1528.7 892.137 1531.39 Q895.332 1534.07 895.332 1538.56 Q895.332 1540.69 894.521 1542.61 Q893.734 1544.51 891.628 1547.11 Q891.049 1547.78 887.947 1550.99 Q884.845 1554.19 879.197 1559.95 Z" fill="#000000" fill-rule="nonzero" fill-opacity="1" /><path clip-path="url(#clip690)" d="M905.331 1558.01 L910.216 1558.01 L910.216 1563.89 L905.331 1563.89 L905.331 1558.01 Z" fill="#000000" fill-rule="nonzero" fill-opacity="1" /><path clip-path="url(#clip690)" d="M930.401 1532.41 Q926.79 1532.41 924.961 1535.97 Q923.155 1539.51 923.155 1546.64 Q923.155 1553.75 924.961 1557.31 Q926.79 1560.86 930.401 1560.86 Q934.035 1560.86 935.841 1557.31 Q937.669 1553.75 937.669 1546.64 Q937.669 1539.51 935.841 1535.97 Q934.035 1532.41 930.401 1532.41 M930.401 1528.7 Q936.211 1528.7 939.266 1533.31 Q942.345 1537.89 942.345 1546.64 Q942.345 1555.37 939.266 1559.98 Q936.211 1564.56 930.401 1564.56 Q924.591 1564.56 921.512 1559.98 Q918.456 1555.37 918.456 1546.64 Q918.456 1537.89 921.512 1533.31 Q924.591 1528.7 930.401 1528.7 Z" fill="#000000" fill-rule="nonzero" fill-opacity="1" /><path clip-path="url(#clip690)" d="M1113 1559.95 L1129.32 1559.95 L1129.32 1563.89 L1107.38 1563.89 L1107.38 1559.95 Q1110.04 1557.2 1114.62 1552.57 Q1119.23 1547.92 1120.41 1546.57 Q1122.66 1544.05 1123.54 1542.31 Q1124.44 1540.55 1124.44 1538.86 Q1124.44 1536.11 1122.49 1534.37 Q1120.57 1532.64 1117.47 1532.64 Q1115.27 1532.64 1112.82 1533.4 Q1110.39 1534.17 1107.61 1535.72 L1107.61 1530.99 Q1110.43 1529.86 1112.89 1529.28 Q1115.34 1528.7 1117.38 1528.7 Q1122.75 1528.7 1125.94 1531.39 Q1129.14 1534.07 1129.14 1538.56 Q1129.14 1540.69 1128.33 1542.61 Q1127.54 1544.51 1125.43 1547.11 Q1124.85 1547.78 1121.75 1550.99 Q1118.65 1554.19 1113 1559.95 Z" fill="#000000" fill-rule="nonzero" fill-opacity="1" /><path clip-path="url(#clip690)" d="M1139.14 1558.01 L1144.02 1558.01 L1144.02 1563.89 L1139.14 1563.89 L1139.14 1558.01 Z" fill="#000000" fill-rule="nonzero" fill-opacity="1" /><path clip-path="url(#clip690)" d="M1154.25 1529.33 L1172.61 1529.33 L1172.61 1533.26 L1158.54 1533.26 L1158.54 1541.74 Q1159.55 1541.39 1160.57 1541.23 Q1161.59 1541.04 1162.61 1541.04 Q1168.4 1541.04 1171.78 1544.21 Q1175.16 1547.38 1175.16 1552.8 Q1175.16 1558.38 1171.68 1561.48 Q1168.21 1564.56 1161.89 1564.56 Q1159.72 1564.56 1157.45 1564.19 Q1155.2 1563.82 1152.79 1563.08 L1152.79 1558.38 Q1154.88 1559.51 1157.1 1560.07 Q1159.32 1560.62 1161.8 1560.62 Q1165.8 1560.62 1168.14 1558.52 Q1170.48 1556.41 1170.48 1552.8 Q1170.48 1549.19 1168.14 1547.08 Q1165.8 1544.98 1161.8 1544.98 Q1159.92 1544.98 1158.05 1545.39 Q1156.2 1545.81 1154.25 1546.69 L1154.25 1529.33 Z" fill="#000000" fill-rule="nonzero" fill-opacity="1" /><path clip-path="url(#clip690)" d="M1355.88 1545.25 Q1359.24 1545.97 1361.11 1548.24 Q1363.01 1550.51 1363.01 1553.84 Q1363.01 1558.96 1359.49 1561.76 Q1355.98 1564.56 1349.49 1564.56 Q1347.32 1564.56 1345 1564.12 Q1342.71 1563.7 1340.26 1562.85 L1340.26 1558.33 Q1342.2 1559.47 1344.52 1560.05 Q1346.83 1560.62 1349.36 1560.62 Q1353.75 1560.62 1356.05 1558.89 Q1358.36 1557.15 1358.36 1553.84 Q1358.36 1550.79 1356.21 1549.07 Q1354.08 1547.34 1350.26 1547.34 L1346.23 1547.34 L1346.23 1543.49 L1350.44 1543.49 Q1353.89 1543.49 1355.72 1542.13 Q1357.55 1540.74 1357.55 1538.15 Q1357.55 1535.49 1355.65 1534.07 Q1353.78 1532.64 1350.26 1532.64 Q1348.34 1532.64 1346.14 1533.05 Q1343.94 1533.47 1341.3 1534.35 L1341.3 1530.18 Q1343.96 1529.44 1346.28 1529.07 Q1348.61 1528.7 1350.67 1528.7 Q1356 1528.7 1359.1 1531.13 Q1362.2 1533.54 1362.2 1537.66 Q1362.2 1540.53 1360.56 1542.52 Q1358.92 1544.49 1355.88 1545.25 Z" fill="#000000" fill-rule="nonzero" fill-opacity="1" /><path clip-path="url(#clip690)" d="M1371.88 1558.01 L1376.76 1558.01 L1376.76 1563.89 L1371.88 1563.89 L1371.88 1558.01 Z" fill="#000000" fill-rule="nonzero" fill-opacity="1" /><path clip-path="url(#clip690)" d="M1396.95 1532.41 Q1393.34 1532.41 1391.51 1535.97 Q1389.7 1539.51 1389.7 1546.64 Q1389.7 1553.75 1391.51 1557.31 Q1393.34 1560.86 1396.95 1560.86 Q1400.58 1560.86 1402.39 1557.31 Q1404.22 1553.75 1404.22 1546.64 Q1404.22 1539.51 1402.39 1535.97 Q1400.58 1532.41 1396.95 1532.41 M1396.95 1528.7 Q1402.76 1528.7 1405.81 1533.31 Q1408.89 1537.89 1408.89 1546.64 Q1408.89 1555.37 1405.81 1559.98 Q1402.76 1564.56 1396.95 1564.56 Q1391.14 1564.56 1388.06 1559.98 Q1385 1555.37 1385 1546.64 Q1385 1537.89 1388.06 1533.31 Q1391.14 1528.7 1396.95 1528.7 Z" fill="#000000" fill-rule="nonzero" fill-opacity="1" /><polyline clip-path="url(#clip690)" style="stroke:#000000; stroke-linecap:round; stroke-linejoin:round; stroke-width:4; stroke-opacity:1; fill:none" points="215.5,1495.09 215.5,47.2441 "/>
<polyline clip-path="url(#clip690)" style="stroke:#000000; stroke-linecap:round; stroke-linejoin:round; stroke-width:4; stroke-opacity:1; fill:none" points="215.5,1454.65 234.398,1454.65 "/>
<polyline clip-path="url(#clip690)" style="stroke:#000000; stroke-linecap:round; stroke-linejoin:round; stroke-width:4; stroke-opacity:1; fill:none" points="215.5,1185.4 234.398,1185.4 "/>
<polyline clip-path="url(#clip690)" style="stroke:#000000; stroke-linecap:round; stroke-linejoin:round; stroke-width:4; stroke-opacity:1; fill:none" points="215.5,916.141 234.398,916.141 "/>
<polyline clip-path="url(#clip690)" style="stroke:#000000; stroke-linecap:round; stroke-linejoin:round; stroke-width:4; stroke-opacity:1; fill:none" points="215.5,646.887 234.398,646.887 "/>
<polyline clip-path="url(#clip690)" style="stroke:#000000; stroke-linecap:round; stroke-linejoin:round; stroke-width:4; stroke-opacity:1; fill:none" points="215.5,377.632 234.398,377.632 "/>
<polyline clip-path="url(#clip690)" style="stroke:#000000; stroke-linecap:round; stroke-linejoin:round; stroke-width:4; stroke-opacity:1; fill:none" points="215.5,108.378 234.398,108.378 "/>
<path clip-path="url(#clip690)" d="M110.325 1440.45 Q106.713 1440.45 104.885 1444.01 Q103.079 1447.55 103.079 1454.68 Q103.079 1461.79 104.885 1465.36 Q106.713 1468.9 110.325 1468.9 Q113.959 1468.9 115.764 1465.36 Q117.593 1461.79 117.593 1454.68 Q117.593 1447.55 115.764 1444.01 Q113.959 1440.45 110.325 1440.45 M110.325 1436.74 Q116.135 1436.74 119.19 1441.35 Q122.269 1445.93 122.269 1454.68 Q122.269 1463.41 119.19 1468.02 Q116.135 1472.6 110.325 1472.6 Q104.514 1472.6 101.436 1468.02 Q98.3802 1463.41 98.3802 1454.68 Q98.3802 1445.93 101.436 1441.35 Q104.514 1436.74 110.325 1436.74 Z" fill="#000000" fill-rule="nonzero" fill-opacity="1" /><path clip-path="url(#clip690)" d="M130.486 1466.05 L135.371 1466.05 L135.371 1471.93 L130.486 1471.93 L130.486 1466.05 Z" fill="#000000" fill-rule="nonzero" fill-opacity="1" /><path clip-path="url(#clip690)" d="M155.556 1440.45 Q151.945 1440.45 150.116 1444.01 Q148.31 1447.55 148.31 1454.68 Q148.31 1461.79 150.116 1465.36 Q151.945 1468.9 155.556 1468.9 Q159.19 1468.9 160.996 1465.36 Q162.824 1461.79 162.824 1454.68 Q162.824 1447.55 160.996 1444.01 Q159.19 1440.45 155.556 1440.45 M155.556 1436.74 Q161.366 1436.74 164.421 1441.35 Q167.5 1445.93 167.5 1454.68 Q167.5 1463.41 164.421 1468.02 Q161.366 1472.6 155.556 1472.6 Q149.746 1472.6 146.667 1468.02 Q143.611 1463.41 143.611 1454.68 Q143.611 1445.93 146.667 1441.35 Q149.746 1436.74 155.556 1436.74 Z" fill="#000000" fill-rule="nonzero" fill-opacity="1" /><path clip-path="url(#clip690)" d="M111.32 1171.19 Q107.709 1171.19 105.88 1174.76 Q104.075 1178.3 104.075 1185.43 Q104.075 1192.54 105.88 1196.1 Q107.709 1199.64 111.32 1199.64 Q114.954 1199.64 116.76 1196.1 Q118.588 1192.54 118.588 1185.43 Q118.588 1178.3 116.76 1174.76 Q114.954 1171.19 111.32 1171.19 M111.32 1167.49 Q117.13 1167.49 120.186 1172.1 Q123.264 1176.68 123.264 1185.43 Q123.264 1194.16 120.186 1198.76 Q117.13 1203.35 111.32 1203.35 Q105.51 1203.35 102.431 1198.76 Q99.3755 1194.16 99.3755 1185.43 Q99.3755 1176.68 102.431 1172.1 Q105.51 1167.49 111.32 1167.49 Z" fill="#000000" fill-rule="nonzero" fill-opacity="1" /><path clip-path="url(#clip690)" d="M131.482 1196.8 L136.366 1196.8 L136.366 1202.68 L131.482 1202.68 L131.482 1196.8 Z" fill="#000000" fill-rule="nonzero" fill-opacity="1" /><path clip-path="url(#clip690)" d="M146.597 1168.12 L164.954 1168.12 L164.954 1172.05 L150.88 1172.05 L150.88 1180.52 Q151.898 1180.18 152.917 1180.01 Q153.935 1179.83 154.954 1179.83 Q160.741 1179.83 164.121 1183 Q167.5 1186.17 167.5 1191.59 Q167.5 1197.17 164.028 1200.27 Q160.556 1203.35 154.236 1203.35 Q152.06 1203.35 149.792 1202.98 Q147.547 1202.61 145.139 1201.87 L145.139 1197.17 Q147.222 1198.3 149.445 1198.86 Q151.667 1199.41 154.144 1199.41 Q158.148 1199.41 160.486 1197.3 Q162.824 1195.2 162.824 1191.59 Q162.824 1187.98 160.486 1185.87 Q158.148 1183.76 154.144 1183.76 Q152.269 1183.76 150.394 1184.18 Q148.542 1184.6 146.597 1185.48 L146.597 1168.12 Z" fill="#000000" fill-rule="nonzero" fill-opacity="1" /><path clip-path="url(#clip690)" d="M101.135 929.486 L108.774 929.486 L108.774 903.12 L100.463 904.787 L100.463 900.528 L108.727 898.861 L113.403 898.861 L113.403 929.486 L121.042 929.486 L121.042 933.421 L101.135 933.421 L101.135 929.486 Z" fill="#000000" fill-rule="nonzero" fill-opacity="1" /><path clip-path="url(#clip690)" d="M130.486 927.541 L135.371 927.541 L135.371 933.421 L130.486 933.421 L130.486 927.541 Z" fill="#000000" fill-rule="nonzero" fill-opacity="1" /><path clip-path="url(#clip690)" d="M155.556 901.94 Q151.945 901.94 150.116 905.504 Q148.31 909.046 148.31 916.176 Q148.31 923.282 150.116 926.847 Q151.945 930.389 155.556 930.389 Q159.19 930.389 160.996 926.847 Q162.824 923.282 162.824 916.176 Q162.824 909.046 160.996 905.504 Q159.19 901.94 155.556 901.94 M155.556 898.236 Q161.366 898.236 164.421 902.842 Q167.5 907.426 167.5 916.176 Q167.5 924.902 164.421 929.509 Q161.366 934.092 155.556 934.092 Q149.746 934.092 146.667 929.509 Q143.611 924.902 143.611 916.176 Q143.611 907.426 146.667 902.842 Q149.746 898.236 155.556 898.236 Z" fill="#000000" fill-rule="nonzero" fill-opacity="1" /><path clip-path="url(#clip690)" d="M102.13 660.231 L109.769 660.231 L109.769 633.866 L101.459 635.532 L101.459 631.273 L109.723 629.607 L114.399 629.607 L114.399 660.231 L122.037 660.231 L122.037 664.167 L102.13 664.167 L102.13 660.231 Z" fill="#000000" fill-rule="nonzero" fill-opacity="1" /><path clip-path="url(#clip690)" d="M131.482 658.287 L136.366 658.287 L136.366 664.167 L131.482 664.167 L131.482 658.287 Z" fill="#000000" fill-rule="nonzero" fill-opacity="1" /><path clip-path="url(#clip690)" d="M146.597 629.607 L164.954 629.607 L164.954 633.542 L150.88 633.542 L150.88 642.014 Q151.898 641.667 152.917 641.505 Q153.935 641.319 154.954 641.319 Q160.741 641.319 164.121 644.491 Q167.5 647.662 167.5 653.079 Q167.5 658.657 164.028 661.759 Q160.556 664.838 154.236 664.838 Q152.06 664.838 149.792 664.467 Q147.547 664.097 145.139 663.356 L145.139 658.657 Q147.222 659.792 149.445 660.347 Q151.667 660.903 154.144 660.903 Q158.148 660.903 160.486 658.796 Q162.824 656.69 162.824 653.079 Q162.824 649.468 160.486 647.361 Q158.148 645.255 154.144 645.255 Q152.269 645.255 150.394 645.671 Q148.542 646.088 146.597 646.968 L146.597 629.607 Z" fill="#000000" fill-rule="nonzero" fill-opacity="1" /><path clip-path="url(#clip690)" d="M104.352 390.977 L120.672 390.977 L120.672 394.912 L98.7274 394.912 L98.7274 390.977 Q101.389 388.222 105.973 383.593 Q110.579 378.94 111.76 377.597 Q114.005 375.074 114.885 373.338 Q115.787 371.579 115.787 369.889 Q115.787 367.134 113.843 365.398 Q111.922 363.662 108.82 363.662 Q106.621 363.662 104.167 364.426 Q101.737 365.19 98.9589 366.741 L98.9589 362.019 Q101.783 360.885 104.237 360.306 Q106.69 359.727 108.727 359.727 Q114.098 359.727 117.292 362.412 Q120.487 365.097 120.487 369.588 Q120.487 371.718 119.676 373.639 Q118.889 375.537 116.783 378.13 Q116.204 378.801 113.102 382.019 Q110 385.213 104.352 390.977 Z" fill="#000000" fill-rule="nonzero" fill-opacity="1" /><path clip-path="url(#clip690)" d="M130.486 389.033 L135.371 389.033 L135.371 394.912 L130.486 394.912 L130.486 389.033 Z" fill="#000000" fill-rule="nonzero" fill-opacity="1" /><path clip-path="url(#clip690)" d="M155.556 363.431 Q151.945 363.431 150.116 366.996 Q148.31 370.537 148.31 377.667 Q148.31 384.773 150.116 388.338 Q151.945 391.88 155.556 391.88 Q159.19 391.88 160.996 388.338 Q162.824 384.773 162.824 377.667 Q162.824 370.537 160.996 366.996 Q159.19 363.431 155.556 363.431 M155.556 359.727 Q161.366 359.727 164.421 364.334 Q167.5 368.917 167.5 377.667 Q167.5 386.394 164.421 391 Q161.366 395.583 155.556 395.583 Q149.746 395.583 146.667 391 Q143.611 386.394 143.611 377.667 Q143.611 368.917 146.667 364.334 Q149.746 359.727 155.556 359.727 Z" fill="#000000" fill-rule="nonzero" fill-opacity="1" /><path clip-path="url(#clip690)" d="M105.348 121.723 L121.667 121.723 L121.667 125.658 L99.7227 125.658 L99.7227 121.723 Q102.385 118.968 106.968 114.338 Q111.575 109.686 112.755 108.343 Q115 105.82 115.88 104.084 Q116.783 102.325 116.783 100.635 Q116.783 97.8801 114.838 96.144 Q112.917 94.4079 109.815 94.4079 Q107.616 94.4079 105.163 95.1718 Q102.732 95.9357 99.9542 97.4866 L99.9542 92.7644 Q102.778 91.6301 105.232 91.0514 Q107.686 90.4727 109.723 90.4727 Q115.093 90.4727 118.287 93.1579 Q121.482 95.8431 121.482 100.334 Q121.482 102.463 120.672 104.385 Q119.885 106.283 117.778 108.875 Q117.2 109.547 114.098 112.764 Q110.996 115.959 105.348 121.723 Z" fill="#000000" fill-rule="nonzero" fill-opacity="1" /><path clip-path="url(#clip690)" d="M131.482 119.778 L136.366 119.778 L136.366 125.658 L131.482 125.658 L131.482 119.778 Z" fill="#000000" fill-rule="nonzero" fill-opacity="1" /><path clip-path="url(#clip690)" d="M146.597 91.0977 L164.954 91.0977 L164.954 95.0329 L150.88 95.0329 L150.88 103.505 Q151.898 103.158 152.917 102.996 Q153.935 102.811 154.954 102.811 Q160.741 102.811 164.121 105.982 Q167.5 109.153 167.5 114.57 Q167.5 120.149 164.028 123.25 Q160.556 126.329 154.236 126.329 Q152.06 126.329 149.792 125.959 Q147.547 125.588 145.139 124.848 L145.139 120.149 Q147.222 121.283 149.445 121.838 Q151.667 122.394 154.144 122.394 Q158.148 122.394 160.486 120.287 Q162.824 118.181 162.824 114.57 Q162.824 110.959 160.486 108.852 Q158.148 106.746 154.144 106.746 Q152.269 106.746 150.394 107.162 Q148.542 107.579 146.597 108.459 L146.597 91.0977 Z" fill="#000000" fill-rule="nonzero" fill-opacity="1" /><path clip-path="url(#clip690)" d="M36.1242 857.66 L-11.3958 875.802 L-11.3958 869.086 L28.6126 854.032 L-11.3958 838.945 L-11.3958 832.261 L36.1242 850.371 L36.1242 857.66 Z" fill="#000000" fill-rule="nonzero" fill-opacity="1" /><path clip-path="url(#clip690)" d="M18.2047 814.437 Q18.2047 821.535 19.8279 824.272 Q21.4512 827.009 25.3661 827.009 Q28.4853 827.009 30.3314 824.972 Q32.1456 822.903 32.1456 819.37 Q32.1456 814.501 28.7081 811.572 Q25.2388 808.612 19.5097 808.612 L18.2047 808.612 L18.2047 814.437 M15.7857 802.756 L36.1242 802.756 L36.1242 808.612 L30.7133 808.612 Q33.9598 810.617 35.5194 813.609 Q37.0472 816.601 37.0472 820.93 Q37.0472 826.404 33.9916 829.651 Q30.9043 832.866 25.7481 832.866 Q19.7325 832.866 16.6769 828.855 Q13.6214 824.813 13.6214 816.824 L13.6214 808.612 L13.0485 808.612 Q9.00625 808.612 6.81008 811.286 Q4.58208 813.928 4.58208 818.734 Q4.58208 821.789 5.31414 824.686 Q6.04619 827.582 7.51031 830.256 L2.09946 830.256 Q0.858143 827.041 0.253401 824.017 Q-0.38317 820.994 -0.38317 818.129 Q-0.38317 810.395 3.62723 806.575 Q7.63762 802.756 15.7857 802.756 Z" fill="#000000" fill-rule="nonzero" fill-opacity="1" /><path clip-path="url(#clip690)" d="M-13.401 790.693 L-13.401 784.836 L36.1242 784.836 L36.1242 790.693 L-13.401 790.693 Z" fill="#000000" fill-rule="nonzero" fill-opacity="1" /><path clip-path="url(#clip690)" d="M22.0559 773.187 L0.4762 773.187 L0.4762 767.331 L21.8331 767.331 Q26.8939 767.331 29.4402 765.357 Q31.9546 763.384 31.9546 759.437 Q31.9546 754.695 28.9309 751.957 Q25.9072 749.188 20.6873 749.188 L0.4762 749.188 L0.4762 743.332 L36.1242 743.332 L36.1242 749.188 L30.6496 749.188 Q33.8962 751.321 35.4876 754.154 Q37.0472 756.955 37.0472 760.678 Q37.0472 766.821 33.2278 770.004 Q29.4083 773.187 22.0559 773.187 M-0.38317 758.45 L-0.38317 758.45 Z" fill="#000000" fill-rule="nonzero" fill-opacity="1" /><path clip-path="url(#clip690)" d="M16.8361 700.777 L19.7006 700.777 L19.7006 727.704 Q25.7481 727.322 28.9309 724.076 Q32.0819 720.797 32.0819 714.973 Q32.0819 711.599 31.2544 708.448 Q30.4269 705.265 28.7718 702.146 L34.3099 702.146 Q35.6467 705.297 36.347 708.607 Q37.0472 711.917 37.0472 715.323 Q37.0472 723.853 32.0819 728.85 Q27.1167 733.815 18.6503 733.815 Q9.89745 733.815 4.77305 729.105 Q-0.38317 724.362 -0.38317 716.341 Q-0.38317 709.148 4.2638 704.979 Q8.87893 700.777 16.8361 700.777 M15.1173 706.634 Q10.3112 706.697 7.44665 709.339 Q4.58208 711.949 4.58208 716.278 Q4.58208 721.179 7.35116 724.139 Q10.1202 727.068 15.1492 727.513 L15.1173 706.634 Z" fill="#000000" fill-rule="nonzero" fill-opacity="1" /><path clip-path="url(#clip690)" d="M1.52654 668.439 L7.06471 668.439 Q5.79157 670.922 5.15499 673.596 Q4.51842 676.269 4.51842 679.134 Q4.51842 683.494 5.85522 685.69 Q7.19202 687.855 9.86562 687.855 Q11.9026 687.855 13.0803 686.295 Q14.2261 684.736 15.2765 680.025 L15.7221 678.02 Q17.0589 671.781 19.5097 669.171 Q21.9286 666.53 26.2891 666.53 Q31.2544 666.53 34.1508 670.476 Q37.0472 674.391 37.0472 681.266 Q37.0472 684.131 36.4743 687.25 Q35.9332 690.337 34.8192 693.775 L28.7718 693.775 Q30.4587 690.528 31.318 687.377 Q32.1456 684.226 32.1456 681.139 Q32.1456 677.001 30.7451 674.773 Q29.3129 672.545 26.7347 672.545 Q24.3476 672.545 23.0745 674.169 Q21.8013 675.76 20.6237 681.203 L20.1462 683.24 Q19.0004 688.682 16.6451 691.101 Q14.258 693.52 10.1202 693.52 Q5.09134 693.52 2.35408 689.955 Q-0.38317 686.391 -0.38317 679.834 Q-0.38317 676.587 0.0942579 673.723 Q0.571686 670.858 1.52654 668.439 Z" fill="#000000" fill-rule="nonzero" fill-opacity="1" /><path clip-path="url(#clip692)" d="M441.342 1454.11 L348.019 1454.11 L534.666 1454.11 L441.342 1454.11 L441.342 1420.4 L441.342 1454.11  Z" fill="#009af9" fill-rule="evenodd" fill-opacity="0.6"/>
<polyline clip-path="url(#clip692)" style="stroke:#000000; stroke-linecap:round; stroke-linejoin:round; stroke-width:4; stroke-opacity:1; fill:none" points="441.342,1454.11 348.019,1454.11 534.666,1454.11 441.342,1454.11 441.342,1420.4 441.342,1454.11 "/>
<path clip-path="url(#clip692)" d="M627.989 1420.4 L627.989 1310.79 L254.696 1310.79 L254.696 1420.4 L627.989 1420.4 L627.989 1310.79 L627.989 1420.4  Z" fill="#009af9" fill-rule="evenodd" fill-opacity="0.6"/>
<polyline clip-path="url(#clip692)" style="stroke:#000000; stroke-linecap:round; stroke-linejoin:round; stroke-width:4; stroke-opacity:1; fill:none" points="627.989,1420.4 627.989,1310.79 254.696,1310.79 254.696,1420.4 627.989,1420.4 627.989,1310.79 627.989,1420.4 "/>
<path clip-path="url(#clip692)" d="M627.989 436.874 L254.696 436.874 L254.696 1310.79 L627.989 1310.79 L627.989 436.874 L441.342 436.874 L627.989 436.874  Z" fill="#009af9" fill-rule="evenodd" fill-opacity="0.6"/>
<polyline clip-path="url(#clip692)" style="stroke:#000000; stroke-linecap:round; stroke-linejoin:round; stroke-width:4; stroke-opacity:1; fill:none" points="627.989,436.874 254.696,436.874 254.696,1310.79 627.989,1310.79 627.989,436.874 441.342,436.874 627.989,436.874 "/>
<path clip-path="url(#clip692)" d="M441.342 88.2208 L348.019 88.2208 L534.666 88.2208 L441.342 88.2208 L441.342 436.874 L441.342 88.2208  Z" fill="#009af9" fill-rule="evenodd" fill-opacity="0.6"/>
<polyline clip-path="url(#clip692)" style="stroke:#000000; stroke-linecap:round; stroke-linejoin:round; stroke-width:4; stroke-opacity:1; fill:none" points="441.342,88.2208 348.019,88.2208 534.666,88.2208 441.342,88.2208 441.342,436.874 441.342,88.2208 "/>
<polyline clip-path="url(#clip692)" style="stroke:#009af9; stroke-linecap:round; stroke-linejoin:round; stroke-width:0; stroke-opacity:1; fill:none" points="441.342,1454.11 348.019,1454.11 534.666,1454.11 441.342,1454.11 441.342,1420.4 "/>
<polyline clip-path="url(#clip692)" style="stroke:#009af9; stroke-linecap:round; stroke-linejoin:round; stroke-width:0; stroke-opacity:1; fill:none" points="627.989,1420.4 627.989,1310.79 254.696,1310.79 254.696,1420.4 627.989,1420.4 627.989,1310.79 "/>
<polyline clip-path="url(#clip692)" style="stroke:#009af9; stroke-linecap:round; stroke-linejoin:round; stroke-width:0; stroke-opacity:1; fill:none" points="627.989,436.874 254.696,436.874 254.696,1310.79 627.989,1310.79 627.989,436.874 441.342,436.874 "/>
<polyline clip-path="url(#clip692)" style="stroke:#009af9; stroke-linecap:round; stroke-linejoin:round; stroke-width:0; stroke-opacity:1; fill:none" points="441.342,88.2208 348.019,88.2208 534.666,88.2208 441.342,88.2208 441.342,436.874 "/>
<path clip-path="url(#clip692)" d="M907.959 1454.11 L814.636 1454.11 L1001.28 1454.11 L907.959 1454.11 L907.959 1447.73 L907.959 1454.11  Z" fill="#e26f46" fill-rule="evenodd" fill-opacity="0.6"/>
<polyline clip-path="url(#clip692)" style="stroke:#000000; stroke-linecap:round; stroke-linejoin:round; stroke-width:4; stroke-opacity:1; fill:none" points="907.959,1454.11 814.636,1454.11 1001.28,1454.11 907.959,1454.11 907.959,1447.73 907.959,1454.11 "/>
<path clip-path="url(#clip692)" d="M1094.61 1447.73 L1094.61 1436.82 L721.312 1436.82 L721.312 1447.73 L1094.61 1447.73 L1094.61 1436.82 L1094.61 1447.73  Z" fill="#e26f46" fill-rule="evenodd" fill-opacity="0.6"/>
<polyline clip-path="url(#clip692)" style="stroke:#000000; stroke-linecap:round; stroke-linejoin:round; stroke-width:4; stroke-opacity:1; fill:none" points="1094.61,1447.73 1094.61,1436.82 721.312,1436.82 721.312,1447.73 1094.61,1447.73 1094.61,1436.82 1094.61,1447.73 "/>
<path clip-path="url(#clip692)" d="M1094.61 1405.66 L721.312 1405.66 L721.312 1436.82 L1094.61 1436.82 L1094.61 1405.66 L907.959 1405.66 L1094.61 1405.66  Z" fill="#e26f46" fill-rule="evenodd" fill-opacity="0.6"/>
<polyline clip-path="url(#clip692)" style="stroke:#000000; stroke-linecap:round; stroke-linejoin:round; stroke-width:4; stroke-opacity:1; fill:none" points="1094.61,1405.66 721.312,1405.66 721.312,1436.82 1094.61,1436.82 1094.61,1405.66 907.959,1405.66 1094.61,1405.66 "/>
<path clip-path="url(#clip692)" d="M907.959 1368.26 L814.636 1368.26 L1001.28 1368.26 L907.959 1368.26 L907.959 1405.66 L907.959 1368.26  Z" fill="#e26f46" fill-rule="evenodd" fill-opacity="0.6"/>
<polyline clip-path="url(#clip692)" style="stroke:#000000; stroke-linecap:round; stroke-linejoin:round; stroke-width:4; stroke-opacity:1; fill:none" points="907.959,1368.26 814.636,1368.26 1001.28,1368.26 907.959,1368.26 907.959,1405.66 907.959,1368.26 "/>
<polyline clip-path="url(#clip692)" style="stroke:#e26f46; stroke-linecap:round; stroke-linejoin:round; stroke-width:0; stroke-opacity:1; fill:none" points="907.959,1454.11 814.636,1454.11 1001.28,1454.11 907.959,1454.11 907.959,1447.73 "/>
<polyline clip-path="url(#clip692)" style="stroke:#e26f46; stroke-linecap:round; stroke-linejoin:round; stroke-width:0; stroke-opacity:1; fill:none" points="1094.61,1447.73 1094.61,1436.82 721.312,1436.82 721.312,1447.73 1094.61,1447.73 1094.61,1436.82 "/>
<polyline clip-path="url(#clip692)" style="stroke:#e26f46; stroke-linecap:round; stroke-linejoin:round; stroke-width:0; stroke-opacity:1; fill:none" points="1094.61,1405.66 721.312,1405.66 721.312,1436.82 1094.61,1436.82 1094.61,1405.66 907.959,1405.66 "/>
<polyline clip-path="url(#clip692)" style="stroke:#e26f46; stroke-linecap:round; stroke-linejoin:round; stroke-width:0; stroke-opacity:1; fill:none" points="907.959,1368.26 814.636,1368.26 1001.28,1368.26 907.959,1368.26 907.959,1405.66 "/>
<path clip-path="url(#clip692)" d="M1374.58 1454.11 L1281.25 1454.11 L1467.9 1454.11 L1374.58 1454.11 L1374.58 1435.46 L1374.58 1454.11  Z" fill="#3da44d" fill-rule="evenodd" fill-opacity="0.6"/>
<polyline clip-path="url(#clip692)" style="stroke:#000000; stroke-linecap:round; stroke-linejoin:round; stroke-width:4; stroke-opacity:1; fill:none" points="1374.58,1454.11 1281.25,1454.11 1467.9,1454.11 1374.58,1454.11 1374.58,1435.46 1374.58,1454.11 "/>
<path clip-path="url(#clip692)" d="M1561.22 1435.46 L1561.22 1297.4 L1187.93 1297.4 L1187.93 1435.46 L1561.22 1435.46 L1561.22 1297.4 L1561.22 1435.46  Z" fill="#3da44d" fill-rule="evenodd" fill-opacity="0.6"/>
<polyline clip-path="url(#clip692)" style="stroke:#000000; stroke-linecap:round; stroke-linejoin:round; stroke-width:4; stroke-opacity:1; fill:none" points="1561.22,1435.46 1561.22,1297.4 1187.93,1297.4 1187.93,1435.46 1561.22,1435.46 1561.22,1297.4 1561.22,1435.46 "/>
<path clip-path="url(#clip692)" d="M1561.22 1149.06 L1187.93 1149.06 L1187.93 1297.4 L1561.22 1297.4 L1561.22 1149.06 L1374.58 1149.06 L1561.22 1149.06  Z" fill="#3da44d" fill-rule="evenodd" fill-opacity="0.6"/>
<polyline clip-path="url(#clip692)" style="stroke:#000000; stroke-linecap:round; stroke-linejoin:round; stroke-width:4; stroke-opacity:1; fill:none" points="1561.22,1149.06 1187.93,1149.06 1187.93,1297.4 1561.22,1297.4 1561.22,1149.06 1374.58,1149.06 1561.22,1149.06 "/>
<path clip-path="url(#clip692)" d="M1374.58 770.936 L1281.25 770.936 L1467.9 770.936 L1374.58 770.936 L1374.58 1149.06 L1374.58 770.936  Z" fill="#3da44d" fill-rule="evenodd" fill-opacity="0.6"/>
<polyline clip-path="url(#clip692)" style="stroke:#000000; stroke-linecap:round; stroke-linejoin:round; stroke-width:4; stroke-opacity:1; fill:none" points="1374.58,770.936 1281.25,770.936 1467.9,770.936 1374.58,770.936 1374.58,1149.06 1374.58,770.936 "/>
<polyline clip-path="url(#clip692)" style="stroke:#3da44d; stroke-linecap:round; stroke-linejoin:round; stroke-width:0; stroke-opacity:1; fill:none" points="1374.58,1454.11 1281.25,1454.11 1467.9,1454.11 1374.58,1454.11 1374.58,1435.46 "/>
<polyline clip-path="url(#clip692)" style="stroke:#3da44d; stroke-linecap:round; stroke-linejoin:round; stroke-width:0; stroke-opacity:1; fill:none" points="1561.22,1435.46 1561.22,1297.4 1187.93,1297.4 1187.93,1435.46 1561.22,1435.46 1561.22,1297.4 "/>
<polyline clip-path="url(#clip692)" style="stroke:#3da44d; stroke-linecap:round; stroke-linejoin:round; stroke-width:0; stroke-opacity:1; fill:none" points="1561.22,1149.06 1187.93,1149.06 1187.93,1297.4 1561.22,1297.4 1561.22,1149.06 1374.58,1149.06 "/>
<polyline clip-path="url(#clip692)" style="stroke:#3da44d; stroke-linecap:round; stroke-linejoin:round; stroke-width:0; stroke-opacity:1; fill:none" points="1374.58,770.936 1281.25,770.936 1467.9,770.936 1374.58,770.936 1374.58,1149.06 "/>
<path clip-path="url(#clip690)" d="M1106.41 302.866 L1554.25 302.866 L1554.25 95.5056 L1106.41 95.5056  Z" fill="#ffffff" fill-rule="evenodd" fill-opacity="1"/>
<polyline clip-path="url(#clip690)" style="stroke:#000000; stroke-linecap:round; stroke-linejoin:round; stroke-width:4; stroke-opacity:1; fill:none" points="1106.41,302.866 1554.25,302.866 1554.25,95.5056 1106.41,95.5056 1106.41,302.866 "/>
<path clip-path="url(#clip690)" d="M1121.8 168.082 L1214.13 168.082 L1214.13 126.61 L1121.8 126.61 L1121.8 168.082  Z" fill="#009af9" fill-rule="evenodd" fill-opacity="0.6"/>
<polyline clip-path="url(#clip690)" style="stroke:#000000; stroke-linecap:round; stroke-linejoin:round; stroke-width:4; stroke-opacity:1; fill:none" points="1121.8,168.082 1214.13,168.082 1214.13,126.61 1121.8,126.61 1121.8,168.082 "/>
<path clip-path="url(#clip690)" d="M1229.52 128.607 L1239.33 128.607 L1239.33 131.917 L1233.77 131.917 L1233.77 167.565 L1239.33 167.565 L1239.33 170.876 L1229.52 170.876 L1229.52 128.607 Z" fill="#000000" fill-rule="nonzero" fill-opacity="1" /><path clip-path="url(#clip690)" d="M1252.43 130.066 L1252.43 142.913 L1248.5 142.913 L1248.5 130.066 L1252.43 130.066 M1261.18 130.066 L1261.18 142.913 L1257.25 142.913 L1257.25 130.066 L1261.18 130.066 Z" fill="#000000" fill-rule="nonzero" fill-opacity="1" /><path clip-path="url(#clip690)" d="M1281.99 151.593 Q1276.83 151.593 1274.84 152.774 Q1272.85 153.954 1272.85 156.802 Q1272.85 159.07 1274.33 160.413 Q1275.83 161.732 1278.4 161.732 Q1281.95 161.732 1284.08 159.232 Q1286.23 156.709 1286.23 152.542 L1286.23 151.593 L1281.99 151.593 M1290.49 149.834 L1290.49 164.626 L1286.23 164.626 L1286.23 160.69 Q1284.77 163.051 1282.59 164.186 Q1280.42 165.297 1277.27 165.297 Q1273.29 165.297 1270.93 163.075 Q1268.59 160.829 1268.59 157.079 Q1268.59 152.704 1271.51 150.482 Q1274.45 148.26 1280.26 148.26 L1286.23 148.26 L1286.23 147.843 Q1286.23 144.903 1284.28 143.306 Q1282.36 141.686 1278.87 141.686 Q1276.64 141.686 1274.54 142.218 Q1272.43 142.751 1270.49 143.815 L1270.49 139.88 Q1272.83 138.978 1275.02 138.538 Q1277.22 138.075 1279.31 138.075 Q1284.93 138.075 1287.71 140.991 Q1290.49 143.908 1290.49 149.834 Z" fill="#000000" fill-rule="nonzero" fill-opacity="1" /><path clip-path="url(#clip690)" d="M1303.29 130.066 L1303.29 142.913 L1299.35 142.913 L1299.35 130.066 L1303.29 130.066 M1312.04 130.066 L1312.04 142.913 L1308.1 142.913 L1308.1 130.066 L1312.04 130.066 Z" fill="#000000" fill-rule="nonzero" fill-opacity="1" /><path clip-path="url(#clip690)" d="M1322.15 158.746 L1327.04 158.746 L1327.04 162.727 L1323.24 170.135 L1320.26 170.135 L1322.15 162.727 L1322.15 158.746 Z" fill="#000000" fill-rule="nonzero" fill-opacity="1" /><path clip-path="url(#clip690)" d="M1355.23 130.066 L1355.23 142.913 L1351.3 142.913 L1351.3 130.066 L1355.23 130.066 M1363.98 130.066 L1363.98 142.913 L1360.05 142.913 L1360.05 130.066 L1363.98 130.066 Z" fill="#000000" fill-rule="nonzero" fill-opacity="1" /><path clip-path="url(#clip690)" d="M1391.62 151.686 Q1391.62 146.987 1389.68 144.325 Q1387.76 141.64 1384.38 141.64 Q1381 141.64 1379.05 144.325 Q1377.13 146.987 1377.13 151.686 Q1377.13 156.385 1379.05 159.07 Q1381 161.732 1384.38 161.732 Q1387.76 161.732 1389.68 159.07 Q1391.62 156.385 1391.62 151.686 M1377.13 142.635 Q1378.47 140.32 1380.51 139.209 Q1382.57 138.075 1385.42 138.075 Q1390.14 138.075 1393.08 141.825 Q1396.04 145.575 1396.04 151.686 Q1396.04 157.797 1393.08 161.547 Q1390.14 165.297 1385.42 165.297 Q1382.57 165.297 1380.51 164.186 Q1378.47 163.051 1377.13 160.737 L1377.13 164.626 L1372.85 164.626 L1372.85 128.607 L1377.13 128.607 L1377.13 142.635 Z" fill="#000000" fill-rule="nonzero" fill-opacity="1" /><path clip-path="url(#clip690)" d="M1407.13 130.066 L1407.13 142.913 L1403.19 142.913 L1403.19 130.066 L1407.13 130.066 M1415.88 130.066 L1415.88 142.913 L1411.94 142.913 L1411.94 130.066 L1415.88 130.066 Z" fill="#000000" fill-rule="nonzero" fill-opacity="1" /><path clip-path="url(#clip690)" d="M1426 158.746 L1430.88 158.746 L1430.88 162.727 L1427.08 170.135 L1424.1 170.135 L1426 162.727 L1426 158.746 Z" fill="#000000" fill-rule="nonzero" fill-opacity="1" /><path clip-path="url(#clip690)" d="M1459.07 130.066 L1459.07 142.913 L1455.14 142.913 L1455.14 130.066 L1459.07 130.066 M1467.82 130.066 L1467.82 142.913 L1463.89 142.913 L1463.89 130.066 L1467.82 130.066 Z" fill="#000000" fill-rule="nonzero" fill-opacity="1" /><path clip-path="url(#clip690)" d="M1481.11 163.028 L1481.11 174.487 L1476.83 174.487 L1476.83 138.862 Q1476.83 128.306 1486.69 128.306 Q1496.74 128.306 1496.74 137.218 Q1496.74 143.561 1492.75 145.876 Q1499.24 147.959 1499.24 154.139 Q1499.24 165.112 1488.08 165.112 Q1483.17 165.112 1481.11 163.028 M1481.11 157.473 Q1483.68 161.477 1488.24 161.477 Q1494.91 161.477 1494.91 154.209 Q1494.91 147.681 1484.17 148.19 L1484.17 144.255 Q1492.57 144.255 1492.57 136.848 Q1492.57 131.779 1487.15 131.779 Q1481.11 131.779 1481.11 139.001 L1481.11 157.473 Z" fill="#000000" fill-rule="nonzero" fill-opacity="1" /><path clip-path="url(#clip690)" d="M1511.13 130.066 L1511.13 142.913 L1507.2 142.913 L1507.2 130.066 L1511.13 130.066 M1519.88 130.066 L1519.88 142.913 L1515.95 142.913 L1515.95 130.066 L1519.88 130.066 Z" fill="#000000" fill-rule="nonzero" fill-opacity="1" /><path clip-path="url(#clip690)" d="M1538.87 128.607 L1538.87 170.876 L1529.05 170.876 L1529.05 167.565 L1534.58 167.565 L1534.58 131.917 L1529.05 131.917 L1529.05 128.607 L1538.87 128.607 Z" fill="#000000" fill-rule="nonzero" fill-opacity="1" /><path clip-path="url(#clip690)" d="M1121.8 219.922 L1214.13 219.922 L1214.13 178.45 L1121.8 178.45 L1121.8 219.922  Z" fill="#e26f46" fill-rule="evenodd" fill-opacity="0.6"/>
<polyline clip-path="url(#clip690)" style="stroke:#000000; stroke-linecap:round; stroke-linejoin:round; stroke-width:4; stroke-opacity:1; fill:none" points="1121.8,219.922 1214.13,219.922 1214.13,178.45 1121.8,178.45 1121.8,219.922 "/>
<path clip-path="url(#clip690)" d="M1229.52 180.447 L1239.33 180.447 L1239.33 183.757 L1233.77 183.757 L1233.77 219.405 L1239.33 219.405 L1239.33 222.716 L1229.52 222.716 L1229.52 180.447 Z" fill="#000000" fill-rule="nonzero" fill-opacity="1" /><path clip-path="url(#clip690)" d="M1252.43 181.906 L1252.43 194.753 L1248.5 194.753 L1248.5 181.906 L1252.43 181.906 M1261.18 181.906 L1261.18 194.753 L1257.25 194.753 L1257.25 181.906 L1261.18 181.906 Z" fill="#000000" fill-rule="nonzero" fill-opacity="1" /><path clip-path="url(#clip690)" d="M1281.99 203.433 Q1276.83 203.433 1274.84 204.614 Q1272.85 205.794 1272.85 208.642 Q1272.85 210.91 1274.33 212.253 Q1275.83 213.572 1278.4 213.572 Q1281.95 213.572 1284.08 211.072 Q1286.23 208.549 1286.23 204.382 L1286.23 203.433 L1281.99 203.433 M1290.49 201.674 L1290.49 216.466 L1286.23 216.466 L1286.23 212.53 Q1284.77 214.891 1282.59 216.026 Q1280.42 217.137 1277.27 217.137 Q1273.29 217.137 1270.93 214.915 Q1268.59 212.669 1268.59 208.919 Q1268.59 204.544 1271.51 202.322 Q1274.45 200.1 1280.26 200.1 L1286.23 200.1 L1286.23 199.683 Q1286.23 196.743 1284.28 195.146 Q1282.36 193.526 1278.87 193.526 Q1276.64 193.526 1274.54 194.058 Q1272.43 194.591 1270.49 195.655 L1270.49 191.72 Q1272.83 190.818 1275.02 190.378 Q1277.22 189.915 1279.31 189.915 Q1284.93 189.915 1287.71 192.831 Q1290.49 195.748 1290.49 201.674 Z" fill="#000000" fill-rule="nonzero" fill-opacity="1" /><path clip-path="url(#clip690)" d="M1303.29 181.906 L1303.29 194.753 L1299.35 194.753 L1299.35 181.906 L1303.29 181.906 M1312.04 181.906 L1312.04 194.753 L1308.1 194.753 L1308.1 181.906 L1312.04 181.906 Z" fill="#000000" fill-rule="nonzero" fill-opacity="1" /><path clip-path="url(#clip690)" d="M1322.15 210.586 L1327.04 210.586 L1327.04 214.567 L1323.24 221.975 L1320.26 221.975 L1322.15 214.567 L1322.15 210.586 Z" fill="#000000" fill-rule="nonzero" fill-opacity="1" /><path clip-path="url(#clip690)" d="M1355.23 181.906 L1355.23 194.753 L1351.3 194.753 L1351.3 181.906 L1355.23 181.906 M1363.98 181.906 L1363.98 194.753 L1360.05 194.753 L1360.05 181.906 L1363.98 181.906 Z" fill="#000000" fill-rule="nonzero" fill-opacity="1" /><path clip-path="url(#clip690)" d="M1391.62 203.526 Q1391.62 198.827 1389.68 196.165 Q1387.76 193.48 1384.38 193.48 Q1381 193.48 1379.05 196.165 Q1377.13 198.827 1377.13 203.526 Q1377.13 208.225 1379.05 210.91 Q1381 213.572 1384.38 213.572 Q1387.76 213.572 1389.68 210.91 Q1391.62 208.225 1391.62 203.526 M1377.13 194.475 Q1378.47 192.16 1380.51 191.049 Q1382.57 189.915 1385.42 189.915 Q1390.14 189.915 1393.08 193.665 Q1396.04 197.415 1396.04 203.526 Q1396.04 209.637 1393.08 213.387 Q1390.14 217.137 1385.42 217.137 Q1382.57 217.137 1380.51 216.026 Q1378.47 214.891 1377.13 212.577 L1377.13 216.466 L1372.85 216.466 L1372.85 180.447 L1377.13 180.447 L1377.13 194.475 Z" fill="#000000" fill-rule="nonzero" fill-opacity="1" /><path clip-path="url(#clip690)" d="M1407.13 181.906 L1407.13 194.753 L1403.19 194.753 L1403.19 181.906 L1407.13 181.906 M1415.88 181.906 L1415.88 194.753 L1411.94 194.753 L1411.94 181.906 L1415.88 181.906 Z" fill="#000000" fill-rule="nonzero" fill-opacity="1" /><path clip-path="url(#clip690)" d="M1426 210.586 L1430.88 210.586 L1430.88 214.567 L1427.08 221.975 L1424.1 221.975 L1426 214.567 L1426 210.586 Z" fill="#000000" fill-rule="nonzero" fill-opacity="1" /><path clip-path="url(#clip690)" d="M1459.07 181.906 L1459.07 194.753 L1455.14 194.753 L1455.14 181.906 L1459.07 181.906 M1467.82 181.906 L1467.82 194.753 L1463.89 194.753 L1463.89 181.906 L1467.82 181.906 Z" fill="#000000" fill-rule="nonzero" fill-opacity="1" /><path clip-path="url(#clip690)" d="M1481.11 214.868 L1481.11 226.327 L1476.83 226.327 L1476.83 190.702 Q1476.83 180.146 1486.69 180.146 Q1496.74 180.146 1496.74 189.058 Q1496.74 195.401 1492.75 197.716 Q1499.24 199.799 1499.24 205.979 Q1499.24 216.952 1488.08 216.952 Q1483.17 216.952 1481.11 214.868 M1481.11 209.313 Q1483.68 213.317 1488.24 213.317 Q1494.91 213.317 1494.91 206.049 Q1494.91 199.521 1484.17 200.03 L1484.17 196.095 Q1492.57 196.095 1492.57 188.688 Q1492.57 183.619 1487.15 183.619 Q1481.11 183.619 1481.11 190.841 L1481.11 209.313 Z" fill="#000000" fill-rule="nonzero" fill-opacity="1" /><path clip-path="url(#clip690)" d="M1511.13 181.906 L1511.13 194.753 L1507.2 194.753 L1507.2 181.906 L1511.13 181.906 M1519.88 181.906 L1519.88 194.753 L1515.95 194.753 L1515.95 181.906 L1519.88 181.906 Z" fill="#000000" fill-rule="nonzero" fill-opacity="1" /><path clip-path="url(#clip690)" d="M1538.87 180.447 L1538.87 222.716 L1529.05 222.716 L1529.05 219.405 L1534.58 219.405 L1534.58 183.757 L1529.05 183.757 L1529.05 180.447 L1538.87 180.447 Z" fill="#000000" fill-rule="nonzero" fill-opacity="1" /><path clip-path="url(#clip690)" d="M1121.8 271.762 L1214.13 271.762 L1214.13 230.29 L1121.8 230.29 L1121.8 271.762  Z" fill="#3da44d" fill-rule="evenodd" fill-opacity="0.6"/>
<polyline clip-path="url(#clip690)" style="stroke:#000000; stroke-linecap:round; stroke-linejoin:round; stroke-width:4; stroke-opacity:1; fill:none" points="1121.8,271.762 1214.13,271.762 1214.13,230.29 1121.8,230.29 1121.8,271.762 "/>
<path clip-path="url(#clip690)" d="M1229.52 232.287 L1239.33 232.287 L1239.33 235.597 L1233.77 235.597 L1233.77 271.245 L1239.33 271.245 L1239.33 274.556 L1229.52 274.556 L1229.52 232.287 Z" fill="#000000" fill-rule="nonzero" fill-opacity="1" /><path clip-path="url(#clip690)" d="M1252.43 233.746 L1252.43 246.593 L1248.5 246.593 L1248.5 233.746 L1252.43 233.746 M1261.18 233.746 L1261.18 246.593 L1257.25 246.593 L1257.25 233.746 L1261.18 233.746 Z" fill="#000000" fill-rule="nonzero" fill-opacity="1" /><path clip-path="url(#clip690)" d="M1281.99 255.273 Q1276.83 255.273 1274.84 256.454 Q1272.85 257.634 1272.85 260.482 Q1272.85 262.75 1274.33 264.093 Q1275.83 265.412 1278.4 265.412 Q1281.95 265.412 1284.08 262.912 Q1286.23 260.389 1286.23 256.222 L1286.23 255.273 L1281.99 255.273 M1290.49 253.514 L1290.49 268.306 L1286.23 268.306 L1286.23 264.37 Q1284.77 266.731 1282.59 267.866 Q1280.42 268.977 1277.27 268.977 Q1273.29 268.977 1270.93 266.755 Q1268.59 264.509 1268.59 260.759 Q1268.59 256.384 1271.51 254.162 Q1274.45 251.94 1280.26 251.94 L1286.23 251.94 L1286.23 251.523 Q1286.23 248.583 1284.28 246.986 Q1282.36 245.366 1278.87 245.366 Q1276.64 245.366 1274.54 245.898 Q1272.43 246.431 1270.49 247.495 L1270.49 243.56 Q1272.83 242.658 1275.02 242.218 Q1277.22 241.755 1279.31 241.755 Q1284.93 241.755 1287.71 244.671 Q1290.49 247.588 1290.49 253.514 Z" fill="#000000" fill-rule="nonzero" fill-opacity="1" /><path clip-path="url(#clip690)" d="M1303.29 233.746 L1303.29 246.593 L1299.35 246.593 L1299.35 233.746 L1303.29 233.746 M1312.04 233.746 L1312.04 246.593 L1308.1 246.593 L1308.1 233.746 L1312.04 233.746 Z" fill="#000000" fill-rule="nonzero" fill-opacity="1" /><path clip-path="url(#clip690)" d="M1322.15 262.426 L1327.04 262.426 L1327.04 266.407 L1323.24 273.815 L1320.26 273.815 L1322.15 266.407 L1322.15 262.426 Z" fill="#000000" fill-rule="nonzero" fill-opacity="1" /><path clip-path="url(#clip690)" d="M1355.23 233.746 L1355.23 246.593 L1351.3 246.593 L1351.3 233.746 L1355.23 233.746 M1363.98 233.746 L1363.98 246.593 L1360.05 246.593 L1360.05 233.746 L1363.98 233.746 Z" fill="#000000" fill-rule="nonzero" fill-opacity="1" /><path clip-path="url(#clip690)" d="M1391.62 255.366 Q1391.62 250.667 1389.68 248.005 Q1387.76 245.32 1384.38 245.32 Q1381 245.32 1379.05 248.005 Q1377.13 250.667 1377.13 255.366 Q1377.13 260.065 1379.05 262.75 Q1381 265.412 1384.38 265.412 Q1387.76 265.412 1389.68 262.75 Q1391.62 260.065 1391.62 255.366 M1377.13 246.315 Q1378.47 244 1380.51 242.889 Q1382.57 241.755 1385.42 241.755 Q1390.14 241.755 1393.08 245.505 Q1396.04 249.255 1396.04 255.366 Q1396.04 261.477 1393.08 265.227 Q1390.14 268.977 1385.42 268.977 Q1382.57 268.977 1380.51 267.866 Q1378.47 266.731 1377.13 264.417 L1377.13 268.306 L1372.85 268.306 L1372.85 232.287 L1377.13 232.287 L1377.13 246.315 Z" fill="#000000" fill-rule="nonzero" fill-opacity="1" /><path clip-path="url(#clip690)" d="M1407.13 233.746 L1407.13 246.593 L1403.19 246.593 L1403.19 233.746 L1407.13 233.746 M1415.88 233.746 L1415.88 246.593 L1411.94 246.593 L1411.94 233.746 L1415.88 233.746 Z" fill="#000000" fill-rule="nonzero" fill-opacity="1" /><path clip-path="url(#clip690)" d="M1426 262.426 L1430.88 262.426 L1430.88 266.407 L1427.08 273.815 L1424.1 273.815 L1426 266.407 L1426 262.426 Z" fill="#000000" fill-rule="nonzero" fill-opacity="1" /><path clip-path="url(#clip690)" d="M1459.07 233.746 L1459.07 246.593 L1455.14 246.593 L1455.14 233.746 L1459.07 233.746 M1467.82 233.746 L1467.82 246.593 L1463.89 246.593 L1463.89 233.746 L1467.82 233.746 Z" fill="#000000" fill-rule="nonzero" fill-opacity="1" /><path clip-path="url(#clip690)" d="M1481.11 266.708 L1481.11 278.167 L1476.83 278.167 L1476.83 242.542 Q1476.83 231.986 1486.69 231.986 Q1496.74 231.986 1496.74 240.898 Q1496.74 247.241 1492.75 249.556 Q1499.24 251.639 1499.24 257.819 Q1499.24 268.792 1488.08 268.792 Q1483.17 268.792 1481.11 266.708 M1481.11 261.153 Q1483.68 265.157 1488.24 265.157 Q1494.91 265.157 1494.91 257.889 Q1494.91 251.361 1484.17 251.87 L1484.17 247.935 Q1492.57 247.935 1492.57 240.528 Q1492.57 235.459 1487.15 235.459 Q1481.11 235.459 1481.11 242.681 L1481.11 261.153 Z" fill="#000000" fill-rule="nonzero" fill-opacity="1" /><path clip-path="url(#clip690)" d="M1511.13 233.746 L1511.13 246.593 L1507.2 246.593 L1507.2 233.746 L1511.13 233.746 M1519.88 233.746 L1519.88 246.593 L1515.95 246.593 L1515.95 233.746 L1519.88 233.746 Z" fill="#000000" fill-rule="nonzero" fill-opacity="1" /><path clip-path="url(#clip690)" d="M1538.87 232.287 L1538.87 274.556 L1529.05 274.556 L1529.05 271.245 L1534.58 271.245 L1534.58 235.597 L1529.05 235.597 L1529.05 232.287 L1538.87 232.287 Z" fill="#000000" fill-rule="nonzero" fill-opacity="1" /><path clip-path="url(#clip690)" d="M1767.84 1495.09 L3152.76 1495.09 L3152.76 47.2441 L1767.84 47.2441  Z" fill="#ffffff" fill-rule="evenodd" fill-opacity="1"/>
<defs>
  <clipPath id="clip693">
    <rect x="1767" y="47" width="1386" height="1449"/>
  </clipPath>
</defs>
<polyline clip-path="url(#clip693)" style="stroke:#000000; stroke-linecap:round; stroke-linejoin:round; stroke-width:2; stroke-opacity:0.1; fill:none" points="1915.91,1495.09 1915.91,47.2441 "/>
<polyline clip-path="url(#clip693)" style="stroke:#000000; stroke-linecap:round; stroke-linejoin:round; stroke-width:2; stroke-opacity:0.1; fill:none" points="2097.37,1495.09 2097.37,47.2441 "/>
<polyline clip-path="url(#clip693)" style="stroke:#000000; stroke-linecap:round; stroke-linejoin:round; stroke-width:2; stroke-opacity:0.1; fill:none" points="2278.84,1495.09 2278.84,47.2441 "/>
<polyline clip-path="url(#clip693)" style="stroke:#000000; stroke-linecap:round; stroke-linejoin:round; stroke-width:2; stroke-opacity:0.1; fill:none" points="2460.3,1495.09 2460.3,47.2441 "/>
<polyline clip-path="url(#clip693)" style="stroke:#000000; stroke-linecap:round; stroke-linejoin:round; stroke-width:2; stroke-opacity:0.1; fill:none" points="2641.76,1495.09 2641.76,47.2441 "/>
<polyline clip-path="url(#clip693)" style="stroke:#000000; stroke-linecap:round; stroke-linejoin:round; stroke-width:2; stroke-opacity:0.1; fill:none" points="2823.22,1495.09 2823.22,47.2441 "/>
<polyline clip-path="url(#clip693)" style="stroke:#000000; stroke-linecap:round; stroke-linejoin:round; stroke-width:2; stroke-opacity:0.1; fill:none" points="3004.68,1495.09 3004.68,47.2441 "/>
<polyline clip-path="url(#clip693)" style="stroke:#000000; stroke-linecap:round; stroke-linejoin:round; stroke-width:2; stroke-opacity:0.1; fill:none" points="1767.84,1456.08 3152.76,1456.08 "/>
<polyline clip-path="url(#clip693)" style="stroke:#000000; stroke-linecap:round; stroke-linejoin:round; stroke-width:2; stroke-opacity:0.1; fill:none" points="1767.84,1062.86 3152.76,1062.86 "/>
<polyline clip-path="url(#clip693)" style="stroke:#000000; stroke-linecap:round; stroke-linejoin:round; stroke-width:2; stroke-opacity:0.1; fill:none" points="1767.84,669.65 3152.76,669.65 "/>
<polyline clip-path="url(#clip693)" style="stroke:#000000; stroke-linecap:round; stroke-linejoin:round; stroke-width:2; stroke-opacity:0.1; fill:none" points="1767.84,276.436 3152.76,276.436 "/>
<polyline clip-path="url(#clip690)" style="stroke:#000000; stroke-linecap:round; stroke-linejoin:round; stroke-width:4; stroke-opacity:1; fill:none" points="1767.84,1495.09 3152.76,1495.09 "/>
<polyline clip-path="url(#clip690)" style="stroke:#000000; stroke-linecap:round; stroke-linejoin:round; stroke-width:4; stroke-opacity:1; fill:none" points="1915.91,1495.09 1915.91,1476.19 "/>
<polyline clip-path="url(#clip690)" style="stroke:#000000; stroke-linecap:round; stroke-linejoin:round; stroke-width:4; stroke-opacity:1; fill:none" points="2097.37,1495.09 2097.37,1476.19 "/>
<polyline clip-path="url(#clip690)" style="stroke:#000000; stroke-linecap:round; stroke-linejoin:round; stroke-width:4; stroke-opacity:1; fill:none" points="2278.84,1495.09 2278.84,1476.19 "/>
<polyline clip-path="url(#clip690)" style="stroke:#000000; stroke-linecap:round; stroke-linejoin:round; stroke-width:4; stroke-opacity:1; fill:none" points="2460.3,1495.09 2460.3,1476.19 "/>
<polyline clip-path="url(#clip690)" style="stroke:#000000; stroke-linecap:round; stroke-linejoin:round; stroke-width:4; stroke-opacity:1; fill:none" points="2641.76,1495.09 2641.76,1476.19 "/>
<polyline clip-path="url(#clip690)" style="stroke:#000000; stroke-linecap:round; stroke-linejoin:round; stroke-width:4; stroke-opacity:1; fill:none" points="2823.22,1495.09 2823.22,1476.19 "/>
<polyline clip-path="url(#clip690)" style="stroke:#000000; stroke-linecap:round; stroke-linejoin:round; stroke-width:4; stroke-opacity:1; fill:none" points="3004.68,1495.09 3004.68,1476.19 "/>
<path clip-path="url(#clip690)" d="M1878.71 1532.41 Q1875.1 1532.41 1873.27 1535.97 Q1871.47 1539.51 1871.47 1546.64 Q1871.47 1553.75 1873.27 1557.31 Q1875.1 1560.86 1878.71 1560.86 Q1882.35 1560.86 1884.15 1557.31 Q1885.98 1553.75 1885.98 1546.64 Q1885.98 1539.51 1884.15 1535.97 Q1882.35 1532.41 1878.71 1532.41 M1878.71 1528.7 Q1884.52 1528.7 1887.58 1533.31 Q1890.66 1537.89 1890.66 1546.64 Q1890.66 1555.37 1887.58 1559.98 Q1884.52 1564.56 1878.71 1564.56 Q1872.9 1564.56 1869.82 1559.98 Q1866.77 1555.37 1866.77 1546.64 Q1866.77 1537.89 1869.82 1533.31 Q1872.9 1528.7 1878.71 1528.7 Z" fill="#000000" fill-rule="nonzero" fill-opacity="1" /><path clip-path="url(#clip690)" d="M1898.87 1558.01 L1903.76 1558.01 L1903.76 1563.89 L1898.87 1563.89 L1898.87 1558.01 Z" fill="#000000" fill-rule="nonzero" fill-opacity="1" /><path clip-path="url(#clip690)" d="M1912.76 1529.33 L1934.99 1529.33 L1934.99 1531.32 L1922.44 1563.89 L1917.56 1563.89 L1929.36 1533.26 L1912.76 1533.26 L1912.76 1529.33 Z" fill="#000000" fill-rule="nonzero" fill-opacity="1" /><path clip-path="url(#clip690)" d="M1944.15 1529.33 L1962.51 1529.33 L1962.51 1533.26 L1948.43 1533.26 L1948.43 1541.74 Q1949.45 1541.39 1950.47 1541.23 Q1951.49 1541.04 1952.51 1541.04 Q1958.3 1541.04 1961.68 1544.21 Q1965.05 1547.38 1965.05 1552.8 Q1965.05 1558.38 1961.58 1561.48 Q1958.11 1564.56 1951.79 1564.56 Q1949.62 1564.56 1947.35 1564.19 Q1945.1 1563.82 1942.69 1563.08 L1942.69 1558.38 Q1944.78 1559.51 1947 1560.07 Q1949.22 1560.62 1951.7 1560.62 Q1955.7 1560.62 1958.04 1558.52 Q1960.38 1556.41 1960.38 1552.8 Q1960.38 1549.19 1958.04 1547.08 Q1955.7 1544.98 1951.7 1544.98 Q1949.82 1544.98 1947.95 1545.39 Q1946.1 1545.81 1944.15 1546.69 L1944.15 1529.33 Z" fill="#000000" fill-rule="nonzero" fill-opacity="1" /><path clip-path="url(#clip690)" d="M2049.45 1559.95 L2057.08 1559.95 L2057.08 1533.59 L2048.77 1535.25 L2048.77 1530.99 L2057.04 1529.33 L2061.71 1529.33 L2061.71 1559.95 L2069.35 1559.95 L2069.35 1563.89 L2049.45 1563.89 L2049.45 1559.95 Z" fill="#000000" fill-rule="nonzero" fill-opacity="1" /><path clip-path="url(#clip690)" d="M2078.8 1558.01 L2083.68 1558.01 L2083.68 1563.89 L2078.8 1563.89 L2078.8 1558.01 Z" fill="#000000" fill-rule="nonzero" fill-opacity="1" /><path clip-path="url(#clip690)" d="M2103.87 1532.41 Q2100.26 1532.41 2098.43 1535.97 Q2096.62 1539.51 2096.62 1546.64 Q2096.62 1553.75 2098.43 1557.31 Q2100.26 1560.86 2103.87 1560.86 Q2107.5 1560.86 2109.31 1557.31 Q2111.13 1553.75 2111.13 1546.64 Q2111.13 1539.51 2109.31 1535.97 Q2107.5 1532.41 2103.87 1532.41 M2103.87 1528.7 Q2109.68 1528.7 2112.73 1533.31 Q2115.81 1537.89 2115.81 1546.64 Q2115.81 1555.37 2112.73 1559.98 Q2109.68 1564.56 2103.87 1564.56 Q2098.06 1564.56 2094.98 1559.98 Q2091.92 1555.37 2091.92 1546.64 Q2091.92 1537.89 2094.98 1533.31 Q2098.06 1528.7 2103.87 1528.7 Z" fill="#000000" fill-rule="nonzero" fill-opacity="1" /><path clip-path="url(#clip690)" d="M2134.03 1532.41 Q2130.42 1532.41 2128.59 1535.97 Q2126.78 1539.51 2126.78 1546.64 Q2126.78 1553.75 2128.59 1557.31 Q2130.42 1560.86 2134.03 1560.86 Q2137.66 1560.86 2139.47 1557.31 Q2141.3 1553.75 2141.3 1546.64 Q2141.3 1539.51 2139.47 1535.97 Q2137.66 1532.41 2134.03 1532.41 M2134.03 1528.7 Q2139.84 1528.7 2142.89 1533.31 Q2145.97 1537.89 2145.97 1546.64 Q2145.97 1555.37 2142.89 1559.98 Q2139.84 1564.56 2134.03 1564.56 Q2128.22 1564.56 2125.14 1559.98 Q2122.08 1555.37 2122.08 1546.64 Q2122.08 1537.89 2125.14 1533.31 Q2128.22 1528.7 2134.03 1528.7 Z" fill="#000000" fill-rule="nonzero" fill-opacity="1" /><path clip-path="url(#clip690)" d="M2231.41 1559.95 L2239.04 1559.95 L2239.04 1533.59 L2230.73 1535.25 L2230.73 1530.99 L2239 1529.33 L2243.67 1529.33 L2243.67 1559.95 L2251.31 1559.95 L2251.31 1563.89 L2231.41 1563.89 L2231.41 1559.95 Z" fill="#000000" fill-rule="nonzero" fill-opacity="1" /><path clip-path="url(#clip690)" d="M2260.76 1558.01 L2265.64 1558.01 L2265.64 1563.89 L2260.76 1563.89 L2260.76 1558.01 Z" fill="#000000" fill-rule="nonzero" fill-opacity="1" /><path clip-path="url(#clip690)" d="M2279.85 1559.95 L2296.17 1559.95 L2296.17 1563.89 L2274.23 1563.89 L2274.23 1559.95 Q2276.89 1557.2 2281.47 1552.57 Q2286.08 1547.92 2287.26 1546.57 Q2289.51 1544.05 2290.39 1542.31 Q2291.29 1540.55 2291.29 1538.86 Q2291.29 1536.11 2289.34 1534.37 Q2287.42 1532.64 2284.32 1532.64 Q2282.12 1532.64 2279.67 1533.4 Q2277.24 1534.17 2274.46 1535.72 L2274.46 1530.99 Q2277.28 1529.86 2279.74 1529.28 Q2282.19 1528.7 2284.23 1528.7 Q2289.6 1528.7 2292.79 1531.39 Q2295.99 1534.07 2295.99 1538.56 Q2295.99 1540.69 2295.18 1542.61 Q2294.39 1544.51 2292.28 1547.11 Q2291.71 1547.78 2288.6 1550.99 Q2285.5 1554.19 2279.85 1559.95 Z" fill="#000000" fill-rule="nonzero" fill-opacity="1" /><path clip-path="url(#clip690)" d="M2306.03 1529.33 L2324.39 1529.33 L2324.39 1533.26 L2310.32 1533.26 L2310.32 1541.74 Q2311.34 1541.39 2312.35 1541.23 Q2313.37 1541.04 2314.39 1541.04 Q2320.18 1541.04 2323.56 1544.21 Q2326.94 1547.38 2326.94 1552.8 Q2326.94 1558.38 2323.46 1561.48 Q2319.99 1564.56 2313.67 1564.56 Q2311.5 1564.56 2309.23 1564.19 Q2306.98 1563.82 2304.58 1563.08 L2304.58 1558.38 Q2306.66 1559.51 2308.88 1560.07 Q2311.1 1560.62 2313.58 1560.62 Q2317.59 1560.62 2319.92 1558.52 Q2322.26 1556.41 2322.26 1552.8 Q2322.26 1549.19 2319.92 1547.08 Q2317.59 1544.98 2313.58 1544.98 Q2311.71 1544.98 2309.83 1545.39 Q2307.98 1545.81 2306.03 1546.69 L2306.03 1529.33 Z" fill="#000000" fill-rule="nonzero" fill-opacity="1" /><path clip-path="url(#clip690)" d="M2412.37 1559.95 L2420.01 1559.95 L2420.01 1533.59 L2411.7 1535.25 L2411.7 1530.99 L2419.96 1529.33 L2424.64 1529.33 L2424.64 1559.95 L2432.28 1559.95 L2432.28 1563.89 L2412.37 1563.89 L2412.37 1559.95 Z" fill="#000000" fill-rule="nonzero" fill-opacity="1" /><path clip-path="url(#clip690)" d="M2441.72 1558.01 L2446.61 1558.01 L2446.61 1563.89 L2441.72 1563.89 L2441.72 1558.01 Z" fill="#000000" fill-rule="nonzero" fill-opacity="1" /><path clip-path="url(#clip690)" d="M2456.84 1529.33 L2475.19 1529.33 L2475.19 1533.26 L2461.12 1533.26 L2461.12 1541.74 Q2462.14 1541.39 2463.16 1541.23 Q2464.17 1541.04 2465.19 1541.04 Q2470.98 1541.04 2474.36 1544.21 Q2477.74 1547.38 2477.74 1552.8 Q2477.74 1558.38 2474.27 1561.48 Q2470.79 1564.56 2464.48 1564.56 Q2462.3 1564.56 2460.03 1564.19 Q2457.79 1563.82 2455.38 1563.08 L2455.38 1558.38 Q2457.46 1559.51 2459.68 1560.07 Q2461.91 1560.62 2464.38 1560.62 Q2468.39 1560.62 2470.73 1558.52 Q2473.06 1556.41 2473.06 1552.8 Q2473.06 1549.19 2470.73 1547.08 Q2468.39 1544.98 2464.38 1544.98 Q2462.51 1544.98 2460.63 1545.39 Q2458.78 1545.81 2456.84 1546.69 L2456.84 1529.33 Z" fill="#000000" fill-rule="nonzero" fill-opacity="1" /><path clip-path="url(#clip690)" d="M2496.95 1532.41 Q2493.34 1532.41 2491.51 1535.97 Q2489.71 1539.51 2489.71 1546.64 Q2489.71 1553.75 2491.51 1557.31 Q2493.34 1560.86 2496.95 1560.86 Q2500.59 1560.86 2502.39 1557.31 Q2504.22 1553.75 2504.22 1546.64 Q2504.22 1539.51 2502.39 1535.97 Q2500.59 1532.41 2496.95 1532.41 M2496.95 1528.7 Q2502.76 1528.7 2505.82 1533.31 Q2508.9 1537.89 2508.9 1546.64 Q2508.9 1555.37 2505.82 1559.98 Q2502.76 1564.56 2496.95 1564.56 Q2491.14 1564.56 2488.06 1559.98 Q2485.01 1555.37 2485.01 1546.64 Q2485.01 1537.89 2488.06 1533.31 Q2491.14 1528.7 2496.95 1528.7 Z" fill="#000000" fill-rule="nonzero" fill-opacity="1" /><path clip-path="url(#clip690)" d="M2594.33 1559.95 L2601.97 1559.95 L2601.97 1533.59 L2593.66 1535.25 L2593.66 1530.99 L2601.92 1529.33 L2606.6 1529.33 L2606.6 1559.95 L2614.24 1559.95 L2614.24 1563.89 L2594.33 1563.89 L2594.33 1559.95 Z" fill="#000000" fill-rule="nonzero" fill-opacity="1" /><path clip-path="url(#clip690)" d="M2623.68 1558.01 L2628.56 1558.01 L2628.56 1563.89 L2623.68 1563.89 L2623.68 1558.01 Z" fill="#000000" fill-rule="nonzero" fill-opacity="1" /><path clip-path="url(#clip690)" d="M2637.57 1529.33 L2659.79 1529.33 L2659.79 1531.32 L2647.25 1563.89 L2642.36 1563.89 L2654.17 1533.26 L2637.57 1533.26 L2637.57 1529.33 Z" fill="#000000" fill-rule="nonzero" fill-opacity="1" /><path clip-path="url(#clip690)" d="M2668.96 1529.33 L2687.31 1529.33 L2687.31 1533.26 L2673.24 1533.26 L2673.24 1541.74 Q2674.26 1541.39 2675.28 1541.23 Q2676.3 1541.04 2677.31 1541.04 Q2683.1 1541.04 2686.48 1544.21 Q2689.86 1547.38 2689.86 1552.8 Q2689.86 1558.38 2686.39 1561.48 Q2682.92 1564.56 2676.6 1564.56 Q2674.42 1564.56 2672.15 1564.19 Q2669.91 1563.82 2667.5 1563.08 L2667.5 1558.38 Q2669.58 1559.51 2671.81 1560.07 Q2674.03 1560.62 2676.5 1560.62 Q2680.51 1560.62 2682.85 1558.52 Q2685.18 1556.41 2685.18 1552.8 Q2685.18 1549.19 2682.85 1547.08 Q2680.51 1544.98 2676.5 1544.98 Q2674.63 1544.98 2672.75 1545.39 Q2670.9 1545.81 2668.96 1546.69 L2668.96 1529.33 Z" fill="#000000" fill-rule="nonzero" fill-opacity="1" /><path clip-path="url(#clip690)" d="M2779.38 1559.95 L2795.7 1559.95 L2795.7 1563.89 L2773.75 1563.89 L2773.75 1559.95 Q2776.42 1557.2 2781 1552.57 Q2785.61 1547.92 2786.79 1546.57 Q2789.03 1544.05 2789.91 1542.31 Q2790.81 1540.55 2790.81 1538.86 Q2790.81 1536.11 2788.87 1534.37 Q2786.95 1532.64 2783.85 1532.64 Q2781.65 1532.64 2779.19 1533.4 Q2776.76 1534.17 2773.99 1535.72 L2773.99 1530.99 Q2776.81 1529.86 2779.26 1529.28 Q2781.72 1528.7 2783.75 1528.7 Q2789.12 1528.7 2792.32 1531.39 Q2795.51 1534.07 2795.51 1538.56 Q2795.51 1540.69 2794.7 1542.61 Q2793.92 1544.51 2791.81 1547.11 Q2791.23 1547.78 2788.13 1550.99 Q2785.03 1554.19 2779.38 1559.95 Z" fill="#000000" fill-rule="nonzero" fill-opacity="1" /><path clip-path="url(#clip690)" d="M2805.51 1558.01 L2810.4 1558.01 L2810.4 1563.89 L2805.51 1563.89 L2805.51 1558.01 Z" fill="#000000" fill-rule="nonzero" fill-opacity="1" /><path clip-path="url(#clip690)" d="M2830.58 1532.41 Q2826.97 1532.41 2825.14 1535.97 Q2823.34 1539.51 2823.34 1546.64 Q2823.34 1553.75 2825.14 1557.31 Q2826.97 1560.86 2830.58 1560.86 Q2834.22 1560.86 2836.02 1557.31 Q2837.85 1553.75 2837.85 1546.64 Q2837.85 1539.51 2836.02 1535.97 Q2834.22 1532.41 2830.58 1532.41 M2830.58 1528.7 Q2836.39 1528.7 2839.45 1533.31 Q2842.53 1537.89 2842.53 1546.64 Q2842.53 1555.37 2839.45 1559.98 Q2836.39 1564.56 2830.58 1564.56 Q2824.77 1564.56 2821.69 1559.98 Q2818.64 1555.37 2818.64 1546.64 Q2818.64 1537.89 2821.69 1533.31 Q2824.77 1528.7 2830.58 1528.7 Z" fill="#000000" fill-rule="nonzero" fill-opacity="1" /><path clip-path="url(#clip690)" d="M2860.74 1532.41 Q2857.13 1532.41 2855.3 1535.97 Q2853.5 1539.51 2853.5 1546.64 Q2853.5 1553.75 2855.3 1557.31 Q2857.13 1560.86 2860.74 1560.86 Q2864.38 1560.86 2866.18 1557.31 Q2868.01 1553.75 2868.01 1546.64 Q2868.01 1539.51 2866.18 1535.97 Q2864.38 1532.41 2860.74 1532.41 M2860.74 1528.7 Q2866.55 1528.7 2869.61 1533.31 Q2872.69 1537.89 2872.69 1546.64 Q2872.69 1555.37 2869.61 1559.98 Q2866.55 1564.56 2860.74 1564.56 Q2854.93 1564.56 2851.86 1559.98 Q2848.8 1555.37 2848.8 1546.64 Q2848.8 1537.89 2851.86 1533.31 Q2854.93 1528.7 2860.74 1528.7 Z" fill="#000000" fill-rule="nonzero" fill-opacity="1" /><path clip-path="url(#clip690)" d="M2961.34 1559.95 L2977.66 1559.95 L2977.66 1563.89 L2955.71 1563.89 L2955.71 1559.95 Q2958.38 1557.2 2962.96 1552.57 Q2967.57 1547.92 2968.75 1546.57 Q2970.99 1544.05 2971.87 1542.31 Q2972.77 1540.55 2972.77 1538.86 Q2972.77 1536.11 2970.83 1534.37 Q2968.91 1532.64 2965.81 1532.64 Q2963.61 1532.64 2961.15 1533.4 Q2958.72 1534.17 2955.94 1535.72 L2955.94 1530.99 Q2958.77 1529.86 2961.22 1529.28 Q2963.68 1528.7 2965.71 1528.7 Q2971.08 1528.7 2974.28 1531.39 Q2977.47 1534.07 2977.47 1538.56 Q2977.47 1540.69 2976.66 1542.61 Q2975.88 1544.51 2973.77 1547.11 Q2973.19 1547.78 2970.09 1550.99 Q2966.99 1554.19 2961.34 1559.95 Z" fill="#000000" fill-rule="nonzero" fill-opacity="1" /><path clip-path="url(#clip690)" d="M2987.47 1558.01 L2992.36 1558.01 L2992.36 1563.89 L2987.47 1563.89 L2987.47 1558.01 Z" fill="#000000" fill-rule="nonzero" fill-opacity="1" /><path clip-path="url(#clip690)" d="M3006.57 1559.95 L3022.89 1559.95 L3022.89 1563.89 L3000.94 1563.89 L3000.94 1559.95 Q3003.61 1557.2 3008.19 1552.57 Q3012.8 1547.92 3013.98 1546.57 Q3016.22 1544.05 3017.1 1542.31 Q3018 1540.55 3018 1538.86 Q3018 1536.11 3016.06 1534.37 Q3014.14 1532.64 3011.04 1532.64 Q3008.84 1532.64 3006.38 1533.4 Q3003.95 1534.17 3001.18 1535.72 L3001.18 1530.99 Q3004 1529.86 3006.45 1529.28 Q3008.91 1528.7 3010.94 1528.7 Q3016.31 1528.7 3019.51 1531.39 Q3022.7 1534.07 3022.7 1538.56 Q3022.7 1540.69 3021.89 1542.61 Q3021.11 1544.51 3019 1547.11 Q3018.42 1547.78 3015.32 1550.99 Q3012.22 1554.19 3006.57 1559.95 Z" fill="#000000" fill-rule="nonzero" fill-opacity="1" /><path clip-path="url(#clip690)" d="M3032.75 1529.33 L3051.11 1529.33 L3051.11 1533.26 L3037.03 1533.26 L3037.03 1541.74 Q3038.05 1541.39 3039.07 1541.23 Q3040.09 1541.04 3041.11 1541.04 Q3046.89 1541.04 3050.27 1544.21 Q3053.65 1547.38 3053.65 1552.8 Q3053.65 1558.38 3050.18 1561.48 Q3046.71 1564.56 3040.39 1564.56 Q3038.21 1564.56 3035.94 1564.19 Q3033.7 1563.82 3031.29 1563.08 L3031.29 1558.38 Q3033.37 1559.51 3035.6 1560.07 Q3037.82 1560.62 3040.3 1560.62 Q3044.3 1560.62 3046.64 1558.52 Q3048.98 1556.41 3048.98 1552.8 Q3048.98 1549.19 3046.64 1547.08 Q3044.3 1544.98 3040.3 1544.98 Q3038.42 1544.98 3036.55 1545.39 Q3034.69 1545.81 3032.75 1546.69 L3032.75 1529.33 Z" fill="#000000" fill-rule="nonzero" fill-opacity="1" /><polyline clip-path="url(#clip690)" style="stroke:#000000; stroke-linecap:round; stroke-linejoin:round; stroke-width:4; stroke-opacity:1; fill:none" points="1767.84,1495.09 1767.84,47.2441 "/>
<polyline clip-path="url(#clip690)" style="stroke:#000000; stroke-linecap:round; stroke-linejoin:round; stroke-width:4; stroke-opacity:1; fill:none" points="1767.84,1456.08 1786.74,1456.08 "/>
<polyline clip-path="url(#clip690)" style="stroke:#000000; stroke-linecap:round; stroke-linejoin:round; stroke-width:4; stroke-opacity:1; fill:none" points="1767.84,1062.86 1786.74,1062.86 "/>
<polyline clip-path="url(#clip690)" style="stroke:#000000; stroke-linecap:round; stroke-linejoin:round; stroke-width:4; stroke-opacity:1; fill:none" points="1767.84,669.65 1786.74,669.65 "/>
<polyline clip-path="url(#clip690)" style="stroke:#000000; stroke-linecap:round; stroke-linejoin:round; stroke-width:4; stroke-opacity:1; fill:none" points="1767.84,276.436 1786.74,276.436 "/>
<path clip-path="url(#clip690)" d="M1707.89 1441.88 Q1704.28 1441.88 1702.45 1445.44 Q1700.65 1448.98 1700.65 1456.11 Q1700.65 1463.22 1702.45 1466.78 Q1704.28 1470.32 1707.89 1470.32 Q1711.53 1470.32 1713.33 1466.78 Q1715.16 1463.22 1715.16 1456.11 Q1715.16 1448.98 1713.33 1445.44 Q1711.53 1441.88 1707.89 1441.88 M1707.89 1438.17 Q1713.7 1438.17 1716.76 1442.78 Q1719.84 1447.36 1719.84 1456.11 Q1719.84 1464.84 1716.76 1469.45 Q1713.7 1474.03 1707.89 1474.03 Q1702.08 1474.03 1699.01 1469.45 Q1695.95 1464.84 1695.95 1456.11 Q1695.95 1447.36 1699.01 1442.78 Q1702.08 1438.17 1707.89 1438.17 Z" fill="#000000" fill-rule="nonzero" fill-opacity="1" /><path clip-path="url(#clip690)" d="M1703.52 1076.21 L1719.84 1076.21 L1719.84 1080.14 L1697.89 1080.14 L1697.89 1076.21 Q1700.56 1073.45 1705.14 1068.82 Q1709.75 1064.17 1710.93 1062.83 Q1713.17 1060.31 1714.05 1058.57 Q1714.95 1056.81 1714.95 1055.12 Q1714.95 1052.37 1713.01 1050.63 Q1711.09 1048.89 1707.99 1048.89 Q1705.79 1048.89 1703.33 1049.66 Q1700.9 1050.42 1698.13 1051.97 L1698.13 1047.25 Q1700.95 1046.12 1703.4 1045.54 Q1705.86 1044.96 1707.89 1044.96 Q1713.26 1044.96 1716.46 1047.64 Q1719.65 1050.33 1719.65 1054.82 Q1719.65 1056.95 1718.84 1058.87 Q1718.06 1060.77 1715.95 1063.36 Q1715.37 1064.03 1712.27 1067.25 Q1709.17 1070.44 1703.52 1076.21 Z" fill="#000000" fill-rule="nonzero" fill-opacity="1" /><path clip-path="url(#clip690)" d="M1710.26 656.444 L1698.45 674.893 L1710.26 674.893 L1710.26 656.444 M1709.03 652.37 L1714.91 652.37 L1714.91 674.893 L1719.84 674.893 L1719.84 678.782 L1714.91 678.782 L1714.91 686.93 L1710.26 686.93 L1710.26 678.782 L1694.65 678.782 L1694.65 674.268 L1709.03 652.37 Z" fill="#000000" fill-rule="nonzero" fill-opacity="1" /><path clip-path="url(#clip690)" d="M1708.31 274.573 Q1705.16 274.573 1703.31 276.726 Q1701.48 278.879 1701.48 282.628 Q1701.48 286.355 1703.31 288.531 Q1705.16 290.684 1708.31 290.684 Q1711.46 290.684 1713.29 288.531 Q1715.14 286.355 1715.14 282.628 Q1715.14 278.879 1713.29 276.726 Q1711.46 274.573 1708.31 274.573 M1717.59 259.92 L1717.59 264.18 Q1715.83 263.346 1714.03 262.906 Q1712.25 262.467 1710.49 262.467 Q1705.86 262.467 1703.4 265.592 Q1700.97 268.717 1700.63 275.036 Q1701.99 273.022 1704.05 271.957 Q1706.11 270.869 1708.59 270.869 Q1713.8 270.869 1716.81 274.041 Q1719.84 277.189 1719.84 282.628 Q1719.84 287.953 1716.69 291.17 Q1713.54 294.388 1708.31 294.388 Q1702.32 294.388 1699.14 289.804 Q1695.97 285.198 1695.97 276.471 Q1695.97 268.277 1699.86 263.416 Q1703.75 258.531 1710.3 258.531 Q1712.06 258.531 1713.84 258.879 Q1715.65 259.226 1717.59 259.92 Z" fill="#000000" fill-rule="nonzero" fill-opacity="1" /><path clip-path="url(#clip693)" d="M2097.37 1454.11 L1952.2 1454.11 L2242.54 1454.11 L2097.37 1454.11 L2097.37 1436.37 L2097.37 1454.11  Z" fill="#009af9" fill-rule="evenodd" fill-opacity="0.6"/>
<polyline clip-path="url(#clip693)" style="stroke:#000000; stroke-linecap:round; stroke-linejoin:round; stroke-width:4; stroke-opacity:1; fill:none" points="2097.37,1454.11 1952.2,1454.11 2242.54,1454.11 2097.37,1454.11 2097.37,1436.37 2097.37,1454.11 "/>
<path clip-path="url(#clip693)" d="M2387.71 1436.37 L2387.71 1260.82 L1807.03 1260.82 L1807.03 1436.37 L2387.71 1436.37 L2387.71 1260.82 L2387.71 1436.37  Z" fill="#009af9" fill-rule="evenodd" fill-opacity="0.6"/>
<polyline clip-path="url(#clip693)" style="stroke:#000000; stroke-linecap:round; stroke-linejoin:round; stroke-width:4; stroke-opacity:1; fill:none" points="2387.71,1436.37 2387.71,1260.82 1807.03,1260.82 1807.03,1436.37 2387.71,1436.37 2387.71,1260.82 2387.71,1436.37 "/>
<path clip-path="url(#clip693)" d="M2387.71 863.966 L1807.03 863.966 L1807.03 1260.82 L2387.71 1260.82 L2387.71 863.966 L2097.37 863.966 L2387.71 863.966  Z" fill="#009af9" fill-rule="evenodd" fill-opacity="0.6"/>
<polyline clip-path="url(#clip693)" style="stroke:#000000; stroke-linecap:round; stroke-linejoin:round; stroke-width:4; stroke-opacity:1; fill:none" points="2387.71,863.966 1807.03,863.966 1807.03,1260.82 2387.71,1260.82 2387.71,863.966 2097.37,863.966 2387.71,863.966 "/>
<path clip-path="url(#clip693)" d="M2097.37 143.135 L1952.2 143.135 L2242.54 143.135 L2097.37 143.135 L2097.37 863.966 L2097.37 143.135  Z" fill="#009af9" fill-rule="evenodd" fill-opacity="0.6"/>
<polyline clip-path="url(#clip693)" style="stroke:#000000; stroke-linecap:round; stroke-linejoin:round; stroke-width:4; stroke-opacity:1; fill:none" points="2097.37,143.135 1952.2,143.135 2242.54,143.135 2097.37,143.135 2097.37,863.966 2097.37,143.135 "/>
<polyline clip-path="url(#clip693)" style="stroke:#009af9; stroke-linecap:round; stroke-linejoin:round; stroke-width:0; stroke-opacity:1; fill:none" points="2097.37,1454.11 1952.2,1454.11 2242.54,1454.11 2097.37,1454.11 2097.37,1436.37 "/>
<polyline clip-path="url(#clip693)" style="stroke:#009af9; stroke-linecap:round; stroke-linejoin:round; stroke-width:0; stroke-opacity:1; fill:none" points="2387.71,1436.37 2387.71,1260.82 1807.03,1260.82 1807.03,1436.37 2387.71,1436.37 2387.71,1260.82 "/>
<polyline clip-path="url(#clip693)" style="stroke:#009af9; stroke-linecap:round; stroke-linejoin:round; stroke-width:0; stroke-opacity:1; fill:none" points="2387.71,863.966 1807.03,863.966 1807.03,1260.82 2387.71,1260.82 2387.71,863.966 2097.37,863.966 "/>
<polyline clip-path="url(#clip693)" style="stroke:#009af9; stroke-linecap:round; stroke-linejoin:round; stroke-width:0; stroke-opacity:1; fill:none" points="2097.37,143.135 1952.2,143.135 2242.54,143.135 2097.37,143.135 2097.37,863.966 "/>
<path clip-path="url(#clip693)" d="M2823.22 1451.93 L2678.05 1451.93 L2968.39 1451.93 L2823.22 1451.93 L2823.22 1399.03 L2823.22 1451.93  Z" fill="#e26f46" fill-rule="evenodd" fill-opacity="0.6"/>
<polyline clip-path="url(#clip693)" style="stroke:#000000; stroke-linecap:round; stroke-linejoin:round; stroke-width:4; stroke-opacity:1; fill:none" points="2823.22,1451.93 2678.05,1451.93 2968.39,1451.93 2823.22,1451.93 2823.22,1399.03 2823.22,1451.93 "/>
<path clip-path="url(#clip693)" d="M3113.56 1399.03 L3113.56 1206.26 L2532.88 1206.26 L2532.88 1399.03 L3113.56 1399.03 L3113.56 1206.26 L3113.56 1399.03  Z" fill="#e26f46" fill-rule="evenodd" fill-opacity="0.6"/>
<polyline clip-path="url(#clip693)" style="stroke:#000000; stroke-linecap:round; stroke-linejoin:round; stroke-width:4; stroke-opacity:1; fill:none" points="3113.56,1399.03 3113.56,1206.26 2532.88,1206.26 2532.88,1399.03 3113.56,1399.03 3113.56,1206.26 3113.56,1399.03 "/>
<path clip-path="url(#clip693)" d="M3113.56 837.589 L2532.88 837.589 L2532.88 1206.26 L3113.56 1206.26 L3113.56 837.589 L2823.22 837.589 L3113.56 837.589  Z" fill="#e26f46" fill-rule="evenodd" fill-opacity="0.6"/>
<polyline clip-path="url(#clip693)" style="stroke:#000000; stroke-linecap:round; stroke-linejoin:round; stroke-width:4; stroke-opacity:1; fill:none" points="3113.56,837.589 2532.88,837.589 2532.88,1206.26 3113.56,1206.26 3113.56,837.589 2823.22,837.589 3113.56,837.589 "/>
<path clip-path="url(#clip693)" d="M2823.22 88.2208 L2678.05 88.2208 L2968.39 88.2208 L2823.22 88.2208 L2823.22 837.589 L2823.22 88.2208  Z" fill="#e26f46" fill-rule="evenodd" fill-opacity="0.6"/>
<polyline clip-path="url(#clip693)" style="stroke:#000000; stroke-linecap:round; stroke-linejoin:round; stroke-width:4; stroke-opacity:1; fill:none" points="2823.22,88.2208 2678.05,88.2208 2968.39,88.2208 2823.22,88.2208 2823.22,837.589 2823.22,88.2208 "/>
<polyline clip-path="url(#clip693)" style="stroke:#e26f46; stroke-linecap:round; stroke-linejoin:round; stroke-width:0; stroke-opacity:1; fill:none" points="2823.22,1451.93 2678.05,1451.93 2968.39,1451.93 2823.22,1451.93 2823.22,1399.03 "/>
<polyline clip-path="url(#clip693)" style="stroke:#e26f46; stroke-linecap:round; stroke-linejoin:round; stroke-width:0; stroke-opacity:1; fill:none" points="3113.56,1399.03 3113.56,1206.26 2532.88,1206.26 2532.88,1399.03 3113.56,1399.03 3113.56,1206.26 "/>
<polyline clip-path="url(#clip693)" style="stroke:#e26f46; stroke-linecap:round; stroke-linejoin:round; stroke-width:0; stroke-opacity:1; fill:none" points="3113.56,837.589 2532.88,837.589 2532.88,1206.26 3113.56,1206.26 3113.56,837.589 2823.22,837.589 "/>
<polyline clip-path="url(#clip693)" style="stroke:#e26f46; stroke-linecap:round; stroke-linejoin:round; stroke-width:0; stroke-opacity:1; fill:none" points="2823.22,88.2208 2678.05,88.2208 2968.39,88.2208 2823.22,88.2208 2823.22,837.589 "/>
<path clip-path="url(#clip690)" d="M1814 251.026 L2275.99 251.026 L2275.99 95.5056 L1814 95.5056  Z" fill="#ffffff" fill-rule="evenodd" fill-opacity="1"/>
<polyline clip-path="url(#clip690)" style="stroke:#000000; stroke-linecap:round; stroke-linejoin:round; stroke-width:4; stroke-opacity:1; fill:none" points="1814,251.026 2275.99,251.026 2275.99,95.5056 1814,95.5056 1814,251.026 "/>
<path clip-path="url(#clip690)" d="M1829.39 168.082 L1921.72 168.082 L1921.72 126.61 L1829.39 126.61 L1829.39 168.082  Z" fill="#009af9" fill-rule="evenodd" fill-opacity="0.6"/>
<polyline clip-path="url(#clip690)" style="stroke:#000000; stroke-linecap:round; stroke-linejoin:round; stroke-width:4; stroke-opacity:1; fill:none" points="1829.39,168.082 1921.72,168.082 1921.72,126.61 1829.39,126.61 1829.39,168.082 "/>
<path clip-path="url(#clip690)" d="M1937.11 128.607 L1946.92 128.607 L1946.92 131.917 L1941.37 131.917 L1941.37 167.565 L1946.92 167.565 L1946.92 170.876 L1937.11 170.876 L1937.11 128.607 Z" fill="#000000" fill-rule="nonzero" fill-opacity="1" /><path clip-path="url(#clip690)" d="M1960.02 130.066 L1960.02 142.913 L1956.09 142.913 L1956.09 130.066 L1960.02 130.066 M1968.77 130.066 L1968.77 142.913 L1964.84 142.913 L1964.84 130.066 L1968.77 130.066 Z" fill="#000000" fill-rule="nonzero" fill-opacity="1" /><path clip-path="url(#clip690)" d="M2003.87 132.728 L2003.87 137.658 Q2001.5 135.459 1998.82 134.371 Q1996.16 133.283 1993.15 133.283 Q1987.22 133.283 1984.07 136.917 Q1980.93 140.528 1980.93 147.38 Q1980.93 154.209 1984.07 157.843 Q1987.22 161.454 1993.15 161.454 Q1996.16 161.454 1998.82 160.366 Q2001.5 159.278 2003.87 157.079 L2003.87 161.964 Q2001.41 163.63 1998.66 164.464 Q1995.93 165.297 1992.87 165.297 Q1985.02 165.297 1980.51 160.505 Q1976 155.69 1976 147.38 Q1976 139.047 1980.51 134.255 Q1985.02 129.441 1992.87 129.441 Q1995.97 129.441 1998.7 130.274 Q2001.46 131.084 2003.87 132.728 Z" fill="#000000" fill-rule="nonzero" fill-opacity="1" /><path clip-path="url(#clip690)" d="M2027.43 139.464 L2027.43 143.491 Q2025.62 142.565 2023.68 142.103 Q2021.74 141.64 2019.65 141.64 Q2016.48 141.64 2014.88 142.612 Q2013.31 143.584 2013.31 145.528 Q2013.31 147.01 2014.44 147.866 Q2015.58 148.7 2019 149.464 L2020.46 149.788 Q2025 150.76 2026.9 152.542 Q2028.82 154.302 2028.82 157.473 Q2028.82 161.084 2025.95 163.19 Q2023.1 165.297 2018.1 165.297 Q2016.02 165.297 2013.75 164.88 Q2011.5 164.487 2009 163.676 L2009 159.278 Q2011.37 160.505 2013.66 161.13 Q2015.95 161.732 2018.19 161.732 Q2021.2 161.732 2022.82 160.714 Q2024.44 159.672 2024.44 157.797 Q2024.44 156.061 2023.26 155.135 Q2022.11 154.209 2018.15 153.352 L2016.67 153.005 Q2012.71 152.172 2010.95 150.459 Q2009.19 148.723 2009.19 145.714 Q2009.19 142.056 2011.78 140.066 Q2014.37 138.075 2019.14 138.075 Q2021.5 138.075 2023.59 138.422 Q2025.67 138.769 2027.43 139.464 Z" fill="#000000" fill-rule="nonzero" fill-opacity="1" /><path clip-path="url(#clip690)" d="M2046.2 133.144 Q2042.59 133.144 2040.76 136.709 Q2038.96 140.251 2038.96 147.38 Q2038.96 154.487 2040.76 158.052 Q2042.59 161.593 2046.2 161.593 Q2049.84 161.593 2051.64 158.052 Q2053.47 154.487 2053.47 147.38 Q2053.47 140.251 2051.64 136.709 Q2049.84 133.144 2046.2 133.144 M2046.2 129.441 Q2052.01 129.441 2055.07 134.047 Q2058.15 138.63 2058.15 147.38 Q2058.15 156.107 2055.07 160.714 Q2052.01 165.297 2046.2 165.297 Q2040.39 165.297 2037.31 160.714 Q2034.26 156.107 2034.26 147.38 Q2034.26 138.63 2037.31 134.047 Q2040.39 129.441 2046.2 129.441 Z" fill="#000000" fill-rule="nonzero" fill-opacity="1" /><path clip-path="url(#clip690)" d="M2069.79 130.066 L2069.79 142.913 L2065.86 142.913 L2065.86 130.066 L2069.79 130.066 M2078.54 130.066 L2078.54 142.913 L2074.61 142.913 L2074.61 130.066 L2078.54 130.066 Z" fill="#000000" fill-rule="nonzero" fill-opacity="1" /><path clip-path="url(#clip690)" d="M2088.66 158.746 L2093.54 158.746 L2093.54 162.727 L2089.74 170.135 L2086.76 170.135 L2088.66 162.727 L2088.66 158.746 Z" fill="#000000" fill-rule="nonzero" fill-opacity="1" /><path clip-path="url(#clip690)" d="M2121.73 130.066 L2121.73 142.913 L2117.8 142.913 L2117.8 130.066 L2121.73 130.066 M2130.48 130.066 L2130.48 142.913 L2126.55 142.913 L2126.55 130.066 L2130.48 130.066 Z" fill="#000000" fill-rule="nonzero" fill-opacity="1" /><path clip-path="url(#clip690)" d="M2165.58 132.728 L2165.58 137.658 Q2163.22 135.459 2160.53 134.371 Q2157.87 133.283 2154.86 133.283 Q2148.93 133.283 2145.79 136.917 Q2142.64 140.528 2142.64 147.38 Q2142.64 154.209 2145.79 157.843 Q2148.93 161.454 2154.86 161.454 Q2157.87 161.454 2160.53 160.366 Q2163.22 159.278 2165.58 157.079 L2165.58 161.964 Q2163.12 163.63 2160.37 164.464 Q2157.64 165.297 2154.58 165.297 Q2146.73 165.297 2142.22 160.505 Q2137.71 155.69 2137.71 147.38 Q2137.71 139.047 2142.22 134.255 Q2146.73 129.441 2154.58 129.441 Q2157.68 129.441 2160.42 130.274 Q2163.17 131.084 2165.58 132.728 Z" fill="#000000" fill-rule="nonzero" fill-opacity="1" /><path clip-path="url(#clip690)" d="M2191.27 139.695 L2191.27 143.677 Q2189.47 142.681 2187.64 142.195 Q2185.83 141.686 2183.98 141.686 Q2179.84 141.686 2177.54 144.325 Q2175.25 146.94 2175.25 151.686 Q2175.25 156.431 2177.54 159.07 Q2179.84 161.686 2183.98 161.686 Q2185.83 161.686 2187.64 161.2 Q2189.47 160.69 2191.27 159.695 L2191.27 163.63 Q2189.49 164.464 2187.57 164.88 Q2185.67 165.297 2183.52 165.297 Q2177.66 165.297 2174.21 161.616 Q2170.76 157.936 2170.76 151.686 Q2170.76 145.343 2174.23 141.709 Q2177.73 138.075 2183.79 138.075 Q2185.76 138.075 2187.64 138.491 Q2189.51 138.885 2191.27 139.695 Z" fill="#000000" fill-rule="nonzero" fill-opacity="1" /><path clip-path="url(#clip690)" d="M2209.28 133.144 Q2205.67 133.144 2203.84 136.709 Q2202.04 140.251 2202.04 147.38 Q2202.04 154.487 2203.84 158.052 Q2205.67 161.593 2209.28 161.593 Q2212.92 161.593 2214.72 158.052 Q2216.55 154.487 2216.55 147.38 Q2216.55 140.251 2214.72 136.709 Q2212.92 133.144 2209.28 133.144 M2209.28 129.441 Q2215.09 129.441 2218.15 134.047 Q2221.23 138.63 2221.23 147.38 Q2221.23 156.107 2218.15 160.714 Q2215.09 165.297 2209.28 165.297 Q2203.47 165.297 2200.39 160.714 Q2197.34 156.107 2197.34 147.38 Q2197.34 138.63 2200.39 134.047 Q2203.47 129.441 2209.28 129.441 Z" fill="#000000" fill-rule="nonzero" fill-opacity="1" /><path clip-path="url(#clip690)" d="M2232.87 130.066 L2232.87 142.913 L2228.93 142.913 L2228.93 130.066 L2232.87 130.066 M2241.62 130.066 L2241.62 142.913 L2237.68 142.913 L2237.68 130.066 L2241.62 130.066 Z" fill="#000000" fill-rule="nonzero" fill-opacity="1" /><path clip-path="url(#clip690)" d="M2260.6 128.607 L2260.6 170.876 L2250.79 170.876 L2250.79 167.565 L2256.32 167.565 L2256.32 131.917 L2250.79 131.917 L2250.79 128.607 L2260.6 128.607 Z" fill="#000000" fill-rule="nonzero" fill-opacity="1" /><path clip-path="url(#clip690)" d="M1829.39 219.922 L1921.72 219.922 L1921.72 178.45 L1829.39 178.45 L1829.39 219.922  Z" fill="#e26f46" fill-rule="evenodd" fill-opacity="0.6"/>
<polyline clip-path="url(#clip690)" style="stroke:#000000; stroke-linecap:round; stroke-linejoin:round; stroke-width:4; stroke-opacity:1; fill:none" points="1829.39,219.922 1921.72,219.922 1921.72,178.45 1829.39,178.45 1829.39,219.922 "/>
<path clip-path="url(#clip690)" d="M1937.11 180.447 L1946.92 180.447 L1946.92 183.757 L1941.37 183.757 L1941.37 219.405 L1946.92 219.405 L1946.92 222.716 L1937.11 222.716 L1937.11 180.447 Z" fill="#000000" fill-rule="nonzero" fill-opacity="1" /><path clip-path="url(#clip690)" d="M1960.02 181.906 L1960.02 194.753 L1956.09 194.753 L1956.09 181.906 L1960.02 181.906 M1968.77 181.906 L1968.77 194.753 L1964.84 194.753 L1964.84 181.906 L1968.77 181.906 Z" fill="#000000" fill-rule="nonzero" fill-opacity="1" /><path clip-path="url(#clip690)" d="M2003.87 184.568 L2003.87 189.498 Q2001.5 187.299 1998.82 186.211 Q1996.16 185.123 1993.15 185.123 Q1987.22 185.123 1984.07 188.757 Q1980.93 192.368 1980.93 199.22 Q1980.93 206.049 1984.07 209.683 Q1987.22 213.294 1993.15 213.294 Q1996.16 213.294 1998.82 212.206 Q2001.5 211.118 2003.87 208.919 L2003.87 213.804 Q2001.41 215.47 1998.66 216.304 Q1995.93 217.137 1992.87 217.137 Q1985.02 217.137 1980.51 212.345 Q1976 207.53 1976 199.22 Q1976 190.887 1980.51 186.095 Q1985.02 181.281 1992.87 181.281 Q1995.97 181.281 1998.7 182.114 Q2001.46 182.924 2003.87 184.568 Z" fill="#000000" fill-rule="nonzero" fill-opacity="1" /><path clip-path="url(#clip690)" d="M2027.43 191.304 L2027.43 195.331 Q2025.62 194.405 2023.68 193.943 Q2021.74 193.48 2019.65 193.48 Q2016.48 193.48 2014.88 194.452 Q2013.31 195.424 2013.31 197.368 Q2013.31 198.85 2014.44 199.706 Q2015.58 200.54 2019 201.304 L2020.46 201.628 Q2025 202.6 2026.9 204.382 Q2028.82 206.142 2028.82 209.313 Q2028.82 212.924 2025.95 215.03 Q2023.1 217.137 2018.1 217.137 Q2016.02 217.137 2013.75 216.72 Q2011.5 216.327 2009 215.516 L2009 211.118 Q2011.37 212.345 2013.66 212.97 Q2015.95 213.572 2018.19 213.572 Q2021.2 213.572 2022.82 212.554 Q2024.44 211.512 2024.44 209.637 Q2024.44 207.901 2023.26 206.975 Q2022.11 206.049 2018.15 205.192 L2016.67 204.845 Q2012.71 204.012 2010.95 202.299 Q2009.19 200.563 2009.19 197.554 Q2009.19 193.896 2011.78 191.906 Q2014.37 189.915 2019.14 189.915 Q2021.5 189.915 2023.59 190.262 Q2025.67 190.609 2027.43 191.304 Z" fill="#000000" fill-rule="nonzero" fill-opacity="1" /><path clip-path="url(#clip690)" d="M2046.2 184.984 Q2042.59 184.984 2040.76 188.549 Q2038.96 192.091 2038.96 199.22 Q2038.96 206.327 2040.76 209.892 Q2042.59 213.433 2046.2 213.433 Q2049.84 213.433 2051.64 209.892 Q2053.47 206.327 2053.47 199.22 Q2053.47 192.091 2051.64 188.549 Q2049.84 184.984 2046.2 184.984 M2046.2 181.281 Q2052.01 181.281 2055.07 185.887 Q2058.15 190.47 2058.15 199.22 Q2058.15 207.947 2055.07 212.554 Q2052.01 217.137 2046.2 217.137 Q2040.39 217.137 2037.31 212.554 Q2034.26 207.947 2034.26 199.22 Q2034.26 190.47 2037.31 185.887 Q2040.39 181.281 2046.2 181.281 Z" fill="#000000" fill-rule="nonzero" fill-opacity="1" /><path clip-path="url(#clip690)" d="M2069.79 181.906 L2069.79 194.753 L2065.86 194.753 L2065.86 181.906 L2069.79 181.906 M2078.54 181.906 L2078.54 194.753 L2074.61 194.753 L2074.61 181.906 L2078.54 181.906 Z" fill="#000000" fill-rule="nonzero" fill-opacity="1" /><path clip-path="url(#clip690)" d="M2088.66 210.586 L2093.54 210.586 L2093.54 214.567 L2089.74 221.975 L2086.76 221.975 L2088.66 214.567 L2088.66 210.586 Z" fill="#000000" fill-rule="nonzero" fill-opacity="1" /><path clip-path="url(#clip690)" d="M2121.73 181.906 L2121.73 194.753 L2117.8 194.753 L2117.8 181.906 L2121.73 181.906 M2130.48 181.906 L2130.48 194.753 L2126.55 194.753 L2126.55 181.906 L2130.48 181.906 Z" fill="#000000" fill-rule="nonzero" fill-opacity="1" /><path clip-path="url(#clip690)" d="M2165.58 184.568 L2165.58 189.498 Q2163.22 187.299 2160.53 186.211 Q2157.87 185.123 2154.86 185.123 Q2148.93 185.123 2145.79 188.757 Q2142.64 192.368 2142.64 199.22 Q2142.64 206.049 2145.79 209.683 Q2148.93 213.294 2154.86 213.294 Q2157.87 213.294 2160.53 212.206 Q2163.22 211.118 2165.58 208.919 L2165.58 213.804 Q2163.12 215.47 2160.37 216.304 Q2157.64 217.137 2154.58 217.137 Q2146.73 217.137 2142.22 212.345 Q2137.71 207.53 2137.71 199.22 Q2137.71 190.887 2142.22 186.095 Q2146.73 181.281 2154.58 181.281 Q2157.68 181.281 2160.42 182.114 Q2163.17 182.924 2165.58 184.568 Z" fill="#000000" fill-rule="nonzero" fill-opacity="1" /><path clip-path="url(#clip690)" d="M2191.27 191.535 L2191.27 195.517 Q2189.47 194.521 2187.64 194.035 Q2185.83 193.526 2183.98 193.526 Q2179.84 193.526 2177.54 196.165 Q2175.25 198.78 2175.25 203.526 Q2175.25 208.271 2177.54 210.91 Q2179.84 213.526 2183.98 213.526 Q2185.83 213.526 2187.64 213.04 Q2189.47 212.53 2191.27 211.535 L2191.27 215.47 Q2189.49 216.304 2187.57 216.72 Q2185.67 217.137 2183.52 217.137 Q2177.66 217.137 2174.21 213.456 Q2170.76 209.776 2170.76 203.526 Q2170.76 197.183 2174.23 193.549 Q2177.73 189.915 2183.79 189.915 Q2185.76 189.915 2187.64 190.331 Q2189.51 190.725 2191.27 191.535 Z" fill="#000000" fill-rule="nonzero" fill-opacity="1" /><path clip-path="url(#clip690)" d="M2209.28 184.984 Q2205.67 184.984 2203.84 188.549 Q2202.04 192.091 2202.04 199.22 Q2202.04 206.327 2203.84 209.892 Q2205.67 213.433 2209.28 213.433 Q2212.92 213.433 2214.72 209.892 Q2216.55 206.327 2216.55 199.22 Q2216.55 192.091 2214.72 188.549 Q2212.92 184.984 2209.28 184.984 M2209.28 181.281 Q2215.09 181.281 2218.15 185.887 Q2221.23 190.47 2221.23 199.22 Q2221.23 207.947 2218.15 212.554 Q2215.09 217.137 2209.28 217.137 Q2203.47 217.137 2200.39 212.554 Q2197.34 207.947 2197.34 199.22 Q2197.34 190.47 2200.39 185.887 Q2203.47 181.281 2209.28 181.281 Z" fill="#000000" fill-rule="nonzero" fill-opacity="1" /><path clip-path="url(#clip690)" d="M2232.87 181.906 L2232.87 194.753 L2228.93 194.753 L2228.93 181.906 L2232.87 181.906 M2241.62 181.906 L2241.62 194.753 L2237.68 194.753 L2237.68 181.906 L2241.62 181.906 Z" fill="#000000" fill-rule="nonzero" fill-opacity="1" /><path clip-path="url(#clip690)" d="M2260.6 180.447 L2260.6 222.716 L2250.79 222.716 L2250.79 219.405 L2256.32 219.405 L2256.32 183.757 L2250.79 183.757 L2250.79 180.447 L2260.6 180.447 Z" fill="#000000" fill-rule="nonzero" fill-opacity="1" /></svg>
