<?xml version="1.0" encoding="utf-8"?>
<svg xmlns="http://www.w3.org/2000/svg" xmlns:xlink="http://www.w3.org/1999/xlink" width="1000" height="620" viewBox="0 0 4000 2480">
<defs>
  <clipPath id="clip800">
    <rect x="0" y="0" width="4000" height="2480"/>
  </clipPath>
</defs>
<path clip-path="url(#clip800)" d="M0 2480 L4000 2480 L4000 0 L0 0  Z" fill="#ffffff" fill-rule="evenodd" fill-opacity="1"/>
<defs>
  <clipPath id="clip801">
    <rect x="285" y="148" width="3621" height="2086"/>
  </clipPath>
</defs>
<path clip-path="url(#clip800)" d="M288.5 2233.75 L3905.51 2233.75 L3905.51 148.313 L288.5 148.313  Z" fill="#ffffff" fill-rule="evenodd" fill-opacity="1"/>
<defs>
  <clipPath id="clip802">
    <rect x="288" y="148" width="3618" height="2086"/>
  </clipPath>
</defs>
<polyline clip-path="url(#clip802)" style="stroke:#000000; stroke-linecap:round; stroke-linejoin:round; stroke-width:2; stroke-opacity:0.15; fill:none" points="1018.24,2233.75 1018.24,148.313 "/>
<polyline clip-path="url(#clip802)" style="stroke:#000000; stroke-linecap:round; stroke-linejoin:round; stroke-width:2; stroke-opacity:0.15; fill:none" points="2710.73,2233.75 2710.73,148.313 "/>
<polyline clip-path="url(#clip802)" style="stroke:#000000; stroke-linecap:round; stroke-linejoin:round; stroke-width:2; stroke-opacity:0.15; fill:none" points="288.5,2233.75 3905.51,2233.75 "/>
<polyline clip-path="url(#clip802)" style="stroke:#000000; stroke-linecap:round; stroke-linejoin:round; stroke-width:2; stroke-opacity:0.15; fill:none" points="288.5,1817.38 3905.51,1817.38 "/>
<polyline clip-path="url(#clip802)" style="stroke:#000000; stroke-linecap:round; stroke-linejoin:round; stroke-width:2; stroke-opacity:0.15; fill:none" points="288.5,1401.01 3905.51,1401.01 "/>
<polyline clip-path="url(#clip802)" style="stroke:#000000; stroke-linecap:round; stroke-linejoin:round; stroke-width:2; stroke-opacity:0.15; fill:none" points="288.5,984.638 3905.51,984.638 "/>
<polyline clip-path="url(#clip802)" style="stroke:#000000; stroke-linecap:round; stroke-linejoin:round; stroke-width:2; stroke-opacity:0.15; fill:none" points="288.5,568.27 3905.51,568.27 "/>
<polyline clip-path="url(#clip802)" style="stroke:#000000; stroke-linecap:round; stroke-linejoin:round; stroke-width:2; stroke-opacity:0.15; fill:none" points="288.5,151.901 3905.51,151.901 "/>
<polyline clip-path="url(#clip800)" style="stroke:#000000; stroke-linecap:round; stroke-linejoin:round; stroke-width:4; stroke-opacity:1; fill:none" points="288.5,2233.75 3905.51,2233.75 "/>
<polyline clip-path="url(#clip800)" style="stroke:#000000; stroke-linecap:round; stroke-linejoin:round; stroke-width:4; stroke-opacity:1; fill:none" points="1018.24,2233.75 1018.24,2214.85 "/>
<polyline clip-path="url(#clip800)" style="stroke:#000000; stroke-linecap:round; stroke-linejoin:round; stroke-width:4; stroke-opacity:1; fill:none" points="2710.73,2233.75 2710.73,2214.85 "/>
<path clip-path="url(#clip800)" d="M968.502 2320.67 L976.141 2320.67 L976.141 2294.3 L967.831 2295.97 L967.831 2291.71 L976.095 2290.05 L980.771 2290.05 L980.771 2320.67 L988.409 2320.67 L988.409 2324.61 L968.502 2324.61 L968.502 2320.67 Z" fill="#000000" fill-rule="nonzero" fill-opacity="1" /><path clip-path="url(#clip800)" d="M1007.85 2293.12 Q1004.24 2293.12 1002.41 2296.69 Q1000.61 2300.23 1000.61 2307.36 Q1000.61 2314.47 1002.41 2318.03 Q1004.24 2321.57 1007.85 2321.57 Q1011.49 2321.57 1013.29 2318.03 Q1015.12 2314.47 1015.12 2307.36 Q1015.12 2300.23 1013.29 2296.69 Q1011.49 2293.12 1007.85 2293.12 M1007.85 2289.42 Q1013.66 2289.42 1016.72 2294.03 Q1019.8 2298.61 1019.8 2307.36 Q1019.8 2316.09 1016.72 2320.69 Q1013.66 2325.28 1007.85 2325.28 Q1002.04 2325.28 998.965 2320.69 Q995.909 2316.09 995.909 2307.36 Q995.909 2298.61 998.965 2294.03 Q1002.04 2289.42 1007.85 2289.42 Z" fill="#000000" fill-rule="nonzero" fill-opacity="1" /><path clip-path="url(#clip800)" d="M1019.8 2283.52 L1043.91 2283.52 L1043.91 2286.72 L1019.8 2286.72 L1019.8 2283.52 Z" fill="#000000" fill-rule="nonzero" fill-opacity="1" /><path clip-path="url(#clip800)" d="M1055.38 2294 L1068.64 2294 L1068.64 2297.19 L1050.81 2297.19 L1050.81 2294 Q1052.98 2291.76 1056.7 2288 Q1060.44 2284.22 1061.4 2283.13 Q1063.23 2281.08 1063.94 2279.67 Q1064.67 2278.24 1064.67 2276.86 Q1064.67 2274.63 1063.09 2273.21 Q1061.53 2271.8 1059.01 2271.8 Q1057.23 2271.8 1055.23 2272.42 Q1053.26 2273.05 1051 2274.31 L1051 2270.47 Q1053.29 2269.55 1055.29 2269.08 Q1057.28 2268.61 1058.94 2268.61 Q1063.3 2268.61 1065.9 2270.79 Q1068.49 2272.97 1068.49 2276.62 Q1068.49 2278.35 1067.83 2279.91 Q1067.19 2281.45 1065.48 2283.56 Q1065.01 2284.1 1062.49 2286.72 Q1059.97 2289.31 1055.38 2294 Z" fill="#000000" fill-rule="nonzero" fill-opacity="1" /><path clip-path="url(#clip800)" d="M2675.71 2320.67 L2683.35 2320.67 L2683.35 2294.3 L2675.04 2295.97 L2675.04 2291.71 L2683.31 2290.05 L2687.98 2290.05 L2687.98 2320.67 L2695.62 2320.67 L2695.62 2324.61 L2675.71 2324.61 L2675.71 2320.67 Z" fill="#000000" fill-rule="nonzero" fill-opacity="1" /><path clip-path="url(#clip800)" d="M2715.07 2293.12 Q2711.46 2293.12 2709.63 2296.69 Q2707.82 2300.23 2707.82 2307.36 Q2707.82 2314.47 2709.63 2318.03 Q2711.46 2321.57 2715.07 2321.57 Q2718.7 2321.57 2720.51 2318.03 Q2722.33 2314.47 2722.33 2307.36 Q2722.33 2300.23 2720.51 2296.69 Q2718.7 2293.12 2715.07 2293.12 M2715.07 2289.42 Q2720.88 2289.42 2723.93 2294.03 Q2727.01 2298.61 2727.01 2307.36 Q2727.01 2316.09 2723.93 2320.69 Q2720.88 2325.28 2715.07 2325.28 Q2709.26 2325.28 2706.18 2320.69 Q2703.12 2316.09 2703.12 2307.36 Q2703.12 2298.61 2706.18 2294.03 Q2709.26 2289.42 2715.07 2289.42 Z" fill="#000000" fill-rule="nonzero" fill-opacity="1" /><path clip-path="url(#clip800)" d="M2736.72 2271.62 Q2733.78 2271.62 2732.3 2274.51 Q2730.83 2277.39 2730.83 2283.18 Q2730.83 2288.96 2732.3 2291.85 Q2733.78 2294.73 2736.72 2294.73 Q2739.67 2294.73 2741.14 2291.85 Q2742.62 2288.96 2742.62 2283.18 Q2742.62 2277.39 2741.14 2274.51 Q2739.67 2271.62 2736.72 2271.62 M2736.72 2268.61 Q2741.44 2268.61 2743.92 2272.35 Q2746.42 2276.07 2746.42 2283.18 Q2746.42 2290.27 2743.92 2294.02 Q2741.44 2297.74 2736.72 2297.74 Q2731.99 2297.74 2729.49 2294.02 Q2727.01 2290.27 2727.01 2283.18 Q2727.01 2276.07 2729.49 2272.35 Q2731.99 2268.61 2736.72 2268.61 Z" fill="#000000" fill-rule="nonzero" fill-opacity="1" /><path clip-path="url(#clip800)" d="M2099.77 2396 Q2093.96 2396 2091.72 2397.33 Q2089.48 2398.66 2089.48 2401.86 Q2089.48 2404.42 2091.15 2405.93 Q2092.84 2407.41 2095.73 2407.41 Q2099.71 2407.41 2102.11 2404.6 Q2104.53 2401.76 2104.53 2397.07 L2104.53 2396 L2099.77 2396 M2109.32 2394.03 L2109.32 2410.67 L2104.53 2410.67 L2104.53 2406.24 Q2102.89 2408.9 2100.44 2410.17 Q2098 2411.42 2094.45 2411.42 Q2089.97 2411.42 2087.32 2408.92 Q2084.69 2406.4 2084.69 2402.18 Q2084.69 2397.25 2087.97 2394.75 Q2091.28 2392.25 2097.81 2392.25 L2104.53 2392.25 L2104.53 2391.79 Q2104.53 2388.48 2102.34 2386.68 Q2100.18 2384.86 2096.25 2384.86 Q2093.75 2384.86 2091.38 2385.46 Q2089.01 2386.06 2086.82 2387.25 L2086.82 2382.83 Q2089.45 2381.81 2091.93 2381.32 Q2094.4 2380.8 2096.75 2380.8 Q2103.07 2380.8 2106.2 2384.08 Q2109.32 2387.36 2109.32 2394.03 Z" fill="#000000" fill-rule="nonzero" fill-opacity="1" /><polyline clip-path="url(#clip800)" style="stroke:#000000; stroke-linecap:round; stroke-linejoin:round; stroke-width:4; stroke-opacity:1; fill:none" points="288.5,2233.75 288.5,148.313 "/>
<polyline clip-path="url(#clip800)" style="stroke:#000000; stroke-linecap:round; stroke-linejoin:round; stroke-width:4; stroke-opacity:1; fill:none" points="288.5,2233.75 307.397,2233.75 "/>
<polyline clip-path="url(#clip800)" style="stroke:#000000; stroke-linecap:round; stroke-linejoin:round; stroke-width:4; stroke-opacity:1; fill:none" points="288.5,1817.38 307.397,1817.38 "/>
<polyline clip-path="url(#clip800)" style="stroke:#000000; stroke-linecap:round; stroke-linejoin:round; stroke-width:4; stroke-opacity:1; fill:none" points="288.5,1401.01 307.397,1401.01 "/>
<polyline clip-path="url(#clip800)" style="stroke:#000000; stroke-linecap:round; stroke-linejoin:round; stroke-width:4; stroke-opacity:1; fill:none" points="288.5,984.638 307.397,984.638 "/>
<polyline clip-path="url(#clip800)" style="stroke:#000000; stroke-linecap:round; stroke-linejoin:round; stroke-width:4; stroke-opacity:1; fill:none" points="288.5,568.27 307.397,568.27 "/>
<polyline clip-path="url(#clip800)" style="stroke:#000000; stroke-linecap:round; stroke-linejoin:round; stroke-width:4; stroke-opacity:1; fill:none" points="288.5,151.901 307.397,151.901 "/>
<path clip-path="url(#clip800)" d="M216.555 2219.54 Q212.944 2219.54 211.115 2223.11 Q209.31 2226.65 209.31 2233.78 Q209.31 2240.89 211.115 2244.45 Q212.944 2247.99 216.555 2247.99 Q220.189 2247.99 221.995 2244.45 Q223.824 2240.89 223.824 2233.78 Q223.824 2226.65 221.995 2223.11 Q220.189 2219.54 216.555 2219.54 M216.555 2215.84 Q222.365 2215.84 225.421 2220.45 Q228.5 2225.03 228.5 2233.78 Q228.5 2242.51 225.421 2247.11 Q222.365 2251.7 216.555 2251.7 Q210.745 2251.7 207.666 2247.11 Q204.611 2242.51 204.611 2233.78 Q204.611 2225.03 207.666 2220.45 Q210.745 2215.84 216.555 2215.84 Z" fill="#000000" fill-rule="nonzero" fill-opacity="1" /><path clip-path="url(#clip800)" d="M177.204 1830.72 L184.842 1830.72 L184.842 1804.36 L176.532 1806.02 L176.532 1801.76 L184.796 1800.1 L189.472 1800.1 L189.472 1830.72 L197.111 1830.72 L197.111 1834.66 L177.204 1834.66 L177.204 1830.72 Z" fill="#000000" fill-rule="nonzero" fill-opacity="1" /><path clip-path="url(#clip800)" d="M216.555 1803.17 Q212.944 1803.17 211.115 1806.74 Q209.31 1810.28 209.31 1817.41 Q209.31 1824.52 211.115 1828.08 Q212.944 1831.62 216.555 1831.62 Q220.189 1831.62 221.995 1828.08 Q223.824 1824.52 223.824 1817.41 Q223.824 1810.28 221.995 1806.74 Q220.189 1803.17 216.555 1803.17 M216.555 1799.47 Q222.365 1799.47 225.421 1804.08 Q228.5 1808.66 228.5 1817.41 Q228.5 1826.14 225.421 1830.74 Q222.365 1835.33 216.555 1835.33 Q210.745 1835.33 207.666 1830.74 Q204.611 1826.14 204.611 1817.41 Q204.611 1808.66 207.666 1804.08 Q210.745 1799.47 216.555 1799.47 Z" fill="#000000" fill-rule="nonzero" fill-opacity="1" /><path clip-path="url(#clip800)" d="M180.421 1414.35 L196.74 1414.35 L196.74 1418.29 L174.796 1418.29 L174.796 1414.35 Q177.458 1411.6 182.041 1406.97 Q186.648 1402.32 187.828 1400.97 Q190.074 1398.45 190.953 1396.71 Q191.856 1394.95 191.856 1393.26 Q191.856 1390.51 189.912 1388.77 Q187.99 1387.04 184.889 1387.04 Q182.69 1387.04 180.236 1387.8 Q177.805 1388.57 175.028 1390.12 L175.028 1385.39 Q177.852 1384.26 180.305 1383.68 Q182.759 1383.1 184.796 1383.1 Q190.166 1383.1 193.361 1385.79 Q196.555 1388.47 196.555 1392.96 Q196.555 1395.09 195.745 1397.01 Q194.958 1398.91 192.852 1401.51 Q192.273 1402.18 189.171 1405.39 Q186.069 1408.59 180.421 1414.35 Z" fill="#000000" fill-rule="nonzero" fill-opacity="1" /><path clip-path="url(#clip800)" d="M216.555 1386.81 Q212.944 1386.81 211.115 1390.37 Q209.31 1393.91 209.31 1401.04 Q209.31 1408.15 211.115 1411.71 Q212.944 1415.25 216.555 1415.25 Q220.189 1415.25 221.995 1411.71 Q223.824 1408.15 223.824 1401.04 Q223.824 1393.91 221.995 1390.37 Q220.189 1386.81 216.555 1386.81 M216.555 1383.1 Q222.365 1383.1 225.421 1387.71 Q228.5 1392.29 228.5 1401.04 Q228.5 1409.77 225.421 1414.38 Q222.365 1418.96 216.555 1418.96 Q210.745 1418.96 207.666 1414.38 Q204.611 1409.77 204.611 1401.04 Q204.611 1392.29 207.666 1387.71 Q210.745 1383.1 216.555 1383.1 Z" fill="#000000" fill-rule="nonzero" fill-opacity="1" /><path clip-path="url(#clip800)" d="M190.56 983.284 Q193.916 984.002 195.791 986.27 Q197.69 988.539 197.69 991.872 Q197.69 996.988 194.171 999.789 Q190.653 1002.59 184.171 1002.59 Q181.995 1002.59 179.68 1002.15 Q177.389 1001.73 174.935 1000.88 L174.935 996.363 Q176.879 997.497 179.194 998.076 Q181.509 998.655 184.032 998.655 Q188.43 998.655 190.722 996.918 Q193.037 995.182 193.037 991.872 Q193.037 988.817 190.884 987.104 Q188.754 985.368 184.935 985.368 L180.907 985.368 L180.907 981.525 L185.12 981.525 Q188.569 981.525 190.398 980.159 Q192.227 978.77 192.227 976.178 Q192.227 973.516 190.328 972.104 Q188.453 970.669 184.935 970.669 Q183.014 970.669 180.815 971.085 Q178.616 971.502 175.977 972.382 L175.977 968.215 Q178.639 967.474 180.953 967.104 Q183.291 966.733 185.352 966.733 Q190.676 966.733 193.777 969.164 Q196.879 971.571 196.879 975.692 Q196.879 978.562 195.236 980.553 Q193.592 982.52 190.56 983.284 Z" fill="#000000" fill-rule="nonzero" fill-opacity="1" /><path clip-path="url(#clip800)" d="M216.555 970.437 Q212.944 970.437 211.115 974.002 Q209.31 977.544 209.31 984.673 Q209.31 991.78 211.115 995.344 Q212.944 998.886 216.555 998.886 Q220.189 998.886 221.995 995.344 Q223.824 991.78 223.824 984.673 Q223.824 977.544 221.995 974.002 Q220.189 970.437 216.555 970.437 M216.555 966.733 Q222.365 966.733 225.421 971.34 Q228.5 975.923 228.5 984.673 Q228.5 993.4 225.421 998.006 Q222.365 1002.59 216.555 1002.59 Q210.745 1002.59 207.666 998.006 Q204.611 993.4 204.611 984.673 Q204.611 975.923 207.666 971.34 Q210.745 966.733 216.555 966.733 Z" fill="#000000" fill-rule="nonzero" fill-opacity="1" /><path clip-path="url(#clip800)" d="M189.24 555.064 L177.435 573.513 L189.24 573.513 L189.24 555.064 M188.014 550.99 L193.893 550.99 L193.893 573.513 L198.824 573.513 L198.824 577.401 L193.893 577.401 L193.893 585.55 L189.24 585.55 L189.24 577.401 L173.639 577.401 L173.639 572.888 L188.014 550.99 Z" fill="#000000" fill-rule="nonzero" fill-opacity="1" /><path clip-path="url(#clip800)" d="M216.555 554.068 Q212.944 554.068 211.115 557.633 Q209.31 561.175 209.31 568.304 Q209.31 575.411 211.115 578.976 Q212.944 582.517 216.555 582.517 Q220.189 582.517 221.995 578.976 Q223.824 575.411 223.824 568.304 Q223.824 561.175 221.995 557.633 Q220.189 554.068 216.555 554.068 M216.555 550.365 Q222.365 550.365 225.421 554.971 Q228.5 559.554 228.5 568.304 Q228.5 577.031 225.421 581.638 Q222.365 586.221 216.555 586.221 Q210.745 586.221 207.666 581.638 Q204.611 577.031 204.611 568.304 Q204.611 559.554 207.666 554.971 Q210.745 550.365 216.555 550.365 Z" fill="#000000" fill-rule="nonzero" fill-opacity="1" /><path clip-path="url(#clip800)" d="M176.44 134.621 L194.796 134.621 L194.796 138.556 L180.722 138.556 L180.722 147.028 Q181.741 146.681 182.759 146.519 Q183.778 146.334 184.796 146.334 Q190.583 146.334 193.963 149.505 Q197.342 152.676 197.342 158.093 Q197.342 163.671 193.87 166.773 Q190.398 169.852 184.078 169.852 Q181.903 169.852 179.634 169.482 Q177.389 169.111 174.981 168.37 L174.981 163.671 Q177.065 164.806 179.287 165.361 Q181.509 165.917 183.986 165.917 Q187.99 165.917 190.328 163.81 Q192.666 161.704 192.666 158.093 Q192.666 154.482 190.328 152.375 Q187.99 150.269 183.986 150.269 Q182.111 150.269 180.236 150.685 Q178.384 151.102 176.44 151.982 L176.44 134.621 Z" fill="#000000" fill-rule="nonzero" fill-opacity="1" /><path clip-path="url(#clip800)" d="M216.555 137.699 Q212.944 137.699 211.115 141.264 Q209.31 144.806 209.31 151.935 Q209.31 159.042 211.115 162.607 Q212.944 166.148 216.555 166.148 Q220.189 166.148 221.995 162.607 Q223.824 159.042 223.824 151.935 Q223.824 144.806 221.995 141.264 Q220.189 137.699 216.555 137.699 M216.555 133.996 Q222.365 133.996 225.421 138.602 Q228.5 143.185 228.5 151.935 Q228.5 160.662 225.421 165.269 Q222.365 169.852 216.555 169.852 Q210.745 169.852 207.666 165.269 Q204.611 160.662 204.611 151.935 Q204.611 143.185 207.666 138.602 Q210.745 133.996 216.555 133.996 Z" fill="#000000" fill-rule="nonzero" fill-opacity="1" /><path clip-path="url(#clip800)" d="M68.277 1320.08 L97.5997 1330.75 L97.5997 1309.37 L68.277 1320.08 M101.975 1337.89 L63.0947 1323.05 L63.0947 1317.08 L101.975 1302.27 L101.975 1337.89 Z" fill="#000000" fill-rule="nonzero" fill-opacity="1" /><path clip-path="url(#clip800)" d="M76.1676 1268.54 Q76.1676 1272.4 79.1884 1274.64 Q82.1832 1276.87 87.4175 1276.87 Q92.6518 1276.87 95.6727 1274.66 Q98.6674 1272.42 98.6674 1268.54 Q98.6674 1264.71 95.6466 1262.47 Q92.6258 1260.23 87.4175 1260.23 Q82.2352 1260.23 79.2144 1262.47 Q76.1676 1264.71 76.1676 1268.54 M72.1051 1268.54 Q72.1051 1262.29 76.1676 1258.72 Q80.23 1255.16 87.4175 1255.16 Q94.5789 1255.16 98.6674 1258.72 Q102.73 1262.29 102.73 1268.54 Q102.73 1274.82 98.6674 1278.39 Q94.5789 1281.93 87.4175 1281.93 Q80.23 1281.93 76.1676 1278.39 Q72.1051 1274.82 72.1051 1268.54 Z" fill="#000000" fill-rule="nonzero" fill-opacity="1" /><path clip-path="url(#clip800)" d="M87.4175 1226.28 Q82.1311 1226.28 79.1363 1228.46 Q76.1155 1230.63 76.1155 1234.43 Q76.1155 1238.23 79.1363 1240.42 Q82.1311 1242.58 87.4175 1242.58 Q92.7039 1242.58 95.7247 1240.42 Q98.7195 1238.23 98.7195 1234.43 Q98.7195 1230.63 95.7247 1228.46 Q92.7039 1226.28 87.4175 1226.28 M77.2353 1242.58 Q74.6311 1241.07 73.3811 1238.78 Q72.1051 1236.46 72.1051 1233.26 Q72.1051 1227.94 76.3238 1224.64 Q80.5425 1221.3 87.4175 1221.3 Q94.2925 1221.3 98.5112 1224.64 Q102.73 1227.94 102.73 1233.26 Q102.73 1236.46 101.48 1238.78 Q100.204 1241.07 97.5997 1242.58 L101.975 1242.58 L101.975 1247.4 L61.4541 1247.4 L61.4541 1242.58 L77.2353 1242.58 Z" fill="#000000" fill-rule="nonzero" fill-opacity="1" /><path clip-path="url(#clip800)" d="M72.8082 1213.36 L72.8082 1208.57 L102.496 1208.57 Q108.068 1208.57 110.568 1210.7 Q113.068 1212.81 113.068 1217.53 L113.068 1219.35 L109.006 1219.35 L109.006 1218.07 Q109.006 1215.34 107.73 1214.35 Q106.48 1213.36 102.496 1213.36 L72.8082 1213.36 M61.4541 1213.36 L61.4541 1208.57 L67.5218 1208.57 L67.5218 1213.36 L61.4541 1213.36 Z" fill="#000000" fill-rule="nonzero" fill-opacity="1" /><path clip-path="url(#clip800)" d="M86.1935 1173.59 L88.5373 1173.59 L88.5373 1195.63 Q93.4852 1195.31 96.0893 1192.66 Q98.6674 1189.97 98.6674 1185.21 Q98.6674 1182.45 97.9904 1179.87 Q97.3133 1177.27 95.9591 1174.71 L100.49 1174.71 Q101.584 1177.29 102.157 1180 Q102.73 1182.71 102.73 1185.5 Q102.73 1192.47 98.6674 1196.56 Q94.605 1200.63 87.6779 1200.63 Q80.5165 1200.63 76.3238 1196.77 Q72.1051 1192.89 72.1051 1186.33 Q72.1051 1180.44 75.9071 1177.03 Q79.6832 1173.59 86.1935 1173.59 M84.7873 1178.39 Q80.855 1178.44 78.5113 1180.6 Q76.1676 1182.73 76.1676 1186.28 Q76.1676 1190.29 78.4332 1192.71 Q80.6988 1195.1 84.8133 1195.47 L84.7873 1178.39 Z" fill="#000000" fill-rule="nonzero" fill-opacity="1" /><path clip-path="url(#clip800)" d="M73.928 1144.74 L78.4071 1144.74 Q77.2873 1146.77 76.7405 1148.83 Q76.1676 1150.86 76.1676 1152.94 Q76.1676 1157.6 79.1363 1160.18 Q82.079 1162.76 87.4175 1162.76 Q92.756 1162.76 95.7247 1160.18 Q98.6674 1157.6 98.6674 1152.94 Q98.6674 1150.86 98.1206 1148.83 Q97.5477 1146.77 96.4279 1144.74 L100.855 1144.74 Q101.792 1146.75 102.261 1148.91 Q102.73 1151.04 102.73 1153.46 Q102.73 1160.05 98.5893 1163.93 Q94.4487 1167.81 87.4175 1167.81 Q80.2821 1167.81 76.1936 1163.91 Q72.1051 1159.97 72.1051 1153.15 Q72.1051 1150.94 72.5738 1148.83 Q73.0165 1146.72 73.928 1144.74 Z" fill="#000000" fill-rule="nonzero" fill-opacity="1" /><path clip-path="url(#clip800)" d="M64.527 1131.67 L72.8082 1131.67 L72.8082 1121.8 L76.5321 1121.8 L76.5321 1131.67 L92.3654 1131.67 Q95.9331 1131.67 96.9487 1130.7 Q97.9643 1129.71 97.9643 1126.72 L97.9643 1121.8 L101.975 1121.8 L101.975 1126.72 Q101.975 1132.27 99.9174 1134.38 Q97.8341 1136.49 92.3654 1136.49 L76.5321 1136.49 L76.5321 1140 L72.8082 1140 L72.8082 1136.49 L64.527 1136.49 L64.527 1131.67 Z" fill="#000000" fill-rule="nonzero" fill-opacity="1" /><path clip-path="url(#clip800)" d="M72.8082 1115.5 L72.8082 1110.7 L101.975 1110.7 L101.975 1115.5 L72.8082 1115.5 M61.4541 1115.5 L61.4541 1110.7 L67.5218 1110.7 L67.5218 1115.5 L61.4541 1115.5 Z" fill="#000000" fill-rule="nonzero" fill-opacity="1" /><path clip-path="url(#clip800)" d="M72.8082 1104.12 L72.8082 1099.04 L97.2872 1089.92 L72.8082 1080.81 L72.8082 1075.73 L101.975 1086.67 L101.975 1093.18 L72.8082 1104.12 Z" fill="#000000" fill-rule="nonzero" fill-opacity="1" /><path clip-path="url(#clip800)" d="M86.1935 1044.17 L88.5373 1044.17 L88.5373 1066.2 Q93.4852 1065.89 96.0893 1063.23 Q98.6674 1060.55 98.6674 1055.78 Q98.6674 1053.02 97.9904 1050.44 Q97.3133 1047.84 95.9591 1045.29 L100.49 1045.29 Q101.584 1047.87 102.157 1050.57 Q102.73 1053.28 102.73 1056.07 Q102.73 1063.05 98.6674 1067.14 Q94.605 1071.2 87.6779 1071.2 Q80.5165 1071.2 76.3238 1067.34 Q72.1051 1063.46 72.1051 1056.9 Q72.1051 1051.02 75.9071 1047.61 Q79.6832 1044.17 86.1935 1044.17 M84.7873 1048.96 Q80.855 1049.01 78.5113 1051.17 Q76.1676 1053.31 76.1676 1056.85 Q76.1676 1060.86 78.4332 1063.28 Q80.6988 1065.68 84.8133 1066.04 L84.7873 1048.96 Z" fill="#000000" fill-rule="nonzero" fill-opacity="1" /><g clip-path="url(#clip800)">
<text style="fill:#000000; fill-opacity:1; font-family:Century Gothic,CenturyGothic,AppleGothic,sans-serif; font-size:58px; text-anchor:middle;" transform="rotate(0, 2097.01, 51.6)" x="2097.01" y="51.6">a | Practically identifiable</text>
</g>
<polyline clip-path="url(#clip802)" style="stroke:#595959; stroke-linecap:round; stroke-linejoin:round; stroke-width:6.8; stroke-opacity:0.95; fill:none" points="288.5,1930.54 321.89,1979.56 329.236,1988.11 380.38,2023.96 413.77,2026.54 427.588,2023.99 429.394,2023.49 472.26,2005.04 505.651,1984.77 506.213,1984.41 558.681,2188.01 564.14,1945.11 650.562,2233.75 3721.75,247.619 3813.63,247.664 3905.51,247.642 "/>
<polyline clip-path="url(#clip802)" style="stroke:#595959; stroke-linecap:round; stroke-linejoin:round; stroke-width:6.8; stroke-opacity:0.95; fill:none" points="650.562,2233.75 742.442,2168.05 789.258,2086.33 795.056,2076.52 796.669,2073.28 874.268,1902.65 "/>
<polyline clip-path="url(#clip802)" style="stroke:#3cb371; stroke-linecap:round; stroke-linejoin:round; stroke-width:7.2; stroke-opacity:1; fill:none" stroke-dasharray="29, 18" points="-3328.51,2073.8 7522.52,2073.8 "/>
<polyline clip-path="url(#clip802)" style="stroke:#000000; stroke-linecap:round; stroke-linejoin:round; stroke-width:4.8; stroke-opacity:1; fill:none" stroke-dasharray="2, 5" points="796.669,4319.18 796.669,-1937.12 "/>
<path clip-path="url(#clip802)" d="M650.562 2215.75 L632.562 2233.75 L650.562 2251.75 L668.562 2233.75 L650.562 2215.75 Z" fill="#000000" fill-rule="evenodd" fill-opacity="1" stroke="none"/>
</svg>
