<?xml version="1.0" encoding="utf-8"?>
<svg xmlns="http://www.w3.org/2000/svg" xmlns:xlink="http://www.w3.org/1999/xlink" width="1000" height="620" viewBox="0 0 4000 2480">
<defs>
  <clipPath id="clip670">
    <rect x="0" y="0" width="4000" height="2480"/>
  </clipPath>
</defs>
<path clip-path="url(#clip670)" d="M0 2480 L4000 2480 L4000 0 L0 0  Z" fill="#ffffff" fill-rule="evenodd" fill-opacity="1"/>
<defs>
  <clipPath id="clip671">
    <rect x="330" y="148" width="3576" height="2086"/>
  </clipPath>
</defs>
<path clip-path="url(#clip670)" d="M258.824 2233.75 L3905.51 2233.75 L3905.51 148.313 L258.824 148.313  Z" fill="#ffffff" fill-rule="evenodd" fill-opacity="1"/>
<defs>
  <clipPath id="clip672">
    <rect x="258" y="148" width="3648" height="2086"/>
  </clipPath>
</defs>
<polyline clip-path="url(#clip672)" style="stroke:#000000; stroke-linecap:round; stroke-linejoin:round; stroke-width:2; stroke-opacity:0.15; fill:none" points="753.154,2233.75 753.154,148.313 "/>
<polyline clip-path="url(#clip672)" style="stroke:#000000; stroke-linecap:round; stroke-linejoin:round; stroke-width:2; stroke-opacity:0.15; fill:none" points="1390.21,2233.75 1390.21,148.313 "/>
<polyline clip-path="url(#clip672)" style="stroke:#000000; stroke-linecap:round; stroke-linejoin:round; stroke-width:2; stroke-opacity:0.15; fill:none" points="2027.26,2233.75 2027.26,148.313 "/>
<polyline clip-path="url(#clip672)" style="stroke:#000000; stroke-linecap:round; stroke-linejoin:round; stroke-width:2; stroke-opacity:0.15; fill:none" points="2664.31,2233.75 2664.31,148.313 "/>
<polyline clip-path="url(#clip672)" style="stroke:#000000; stroke-linecap:round; stroke-linejoin:round; stroke-width:2; stroke-opacity:0.15; fill:none" points="3301.36,2233.75 3301.36,148.313 "/>
<polyline clip-path="url(#clip672)" style="stroke:#000000; stroke-linecap:round; stroke-linejoin:round; stroke-width:2; stroke-opacity:0.15; fill:none" points="258.824,2233.75 3905.51,2233.75 "/>
<polyline clip-path="url(#clip672)" style="stroke:#000000; stroke-linecap:round; stroke-linejoin:round; stroke-width:2; stroke-opacity:0.15; fill:none" points="258.824,1868.16 3905.51,1868.16 "/>
<polyline clip-path="url(#clip672)" style="stroke:#000000; stroke-linecap:round; stroke-linejoin:round; stroke-width:2; stroke-opacity:0.15; fill:none" points="258.824,1502.57 3905.51,1502.57 "/>
<polyline clip-path="url(#clip672)" style="stroke:#000000; stroke-linecap:round; stroke-linejoin:round; stroke-width:2; stroke-opacity:0.15; fill:none" points="258.824,1136.98 3905.51,1136.98 "/>
<polyline clip-path="url(#clip672)" style="stroke:#000000; stroke-linecap:round; stroke-linejoin:round; stroke-width:2; stroke-opacity:0.15; fill:none" points="258.824,771.394 3905.51,771.394 "/>
<polyline clip-path="url(#clip672)" style="stroke:#000000; stroke-linecap:round; stroke-linejoin:round; stroke-width:2; stroke-opacity:0.15; fill:none" points="258.824,405.806 3905.51,405.806 "/>
<polyline clip-path="url(#clip670)" style="stroke:#000000; stroke-linecap:round; stroke-linejoin:round; stroke-width:4; stroke-opacity:1; fill:none" points="258.824,2233.75 3905.51,2233.75 "/>
<polyline clip-path="url(#clip670)" style="stroke:#000000; stroke-linecap:round; stroke-linejoin:round; stroke-width:4; stroke-opacity:1; fill:none" points="753.154,2233.75 753.154,2214.85 "/>
<polyline clip-path="url(#clip670)" style="stroke:#000000; stroke-linecap:round; stroke-linejoin:round; stroke-width:4; stroke-opacity:1; fill:none" points="1390.21,2233.75 1390.21,2214.85 "/>
<polyline clip-path="url(#clip670)" style="stroke:#000000; stroke-linecap:round; stroke-linejoin:round; stroke-width:4; stroke-opacity:1; fill:none" points="2027.26,2233.75 2027.26,2214.85 "/>
<polyline clip-path="url(#clip670)" style="stroke:#000000; stroke-linecap:round; stroke-linejoin:round; stroke-width:4; stroke-opacity:1; fill:none" points="2664.31,2233.75 2664.31,2214.85 "/>
<polyline clip-path="url(#clip670)" style="stroke:#000000; stroke-linecap:round; stroke-linejoin:round; stroke-width:4; stroke-opacity:1; fill:none" points="3301.36,2233.75 3301.36,2214.85 "/>
<path clip-path="url(#clip670)" d="M718.137 2320.67 L725.775 2320.67 L725.775 2294.3 L717.465 2295.97 L717.465 2291.71 L725.729 2290.05 L730.405 2290.05 L730.405 2320.67 L738.044 2320.67 L738.044 2324.61 L718.137 2324.61 L718.137 2320.67 Z" fill="#000000" fill-rule="nonzero" fill-opacity="1" /><path clip-path="url(#clip670)" d="M757.488 2293.12 Q753.877 2293.12 752.048 2296.69 Q750.243 2300.23 750.243 2307.36 Q750.243 2314.47 752.048 2318.03 Q753.877 2321.57 757.488 2321.57 Q761.122 2321.57 762.928 2318.03 Q764.757 2314.47 764.757 2307.36 Q764.757 2300.23 762.928 2296.69 Q761.122 2293.12 757.488 2293.12 M757.488 2289.42 Q763.298 2289.42 766.354 2294.03 Q769.433 2298.61 769.433 2307.36 Q769.433 2316.09 766.354 2320.69 Q763.298 2325.28 757.488 2325.28 Q751.678 2325.28 748.599 2320.69 Q745.544 2316.09 745.544 2307.36 Q745.544 2298.61 748.599 2294.03 Q751.678 2289.42 757.488 2289.42 Z" fill="#000000" fill-rule="nonzero" fill-opacity="1" /><path clip-path="url(#clip670)" d="M779.137 2271.62 Q776.203 2271.62 774.718 2274.51 Q773.251 2277.39 773.251 2283.18 Q773.251 2288.96 774.718 2291.85 Q776.203 2294.73 779.137 2294.73 Q782.09 2294.73 783.557 2291.85 Q785.043 2288.96 785.043 2283.18 Q785.043 2277.39 783.557 2274.51 Q782.09 2271.62 779.137 2271.62 M779.137 2268.61 Q783.858 2268.61 786.341 2272.35 Q788.842 2276.07 788.842 2283.18 Q788.842 2290.27 786.341 2294.02 Q783.858 2297.74 779.137 2297.74 Q774.417 2297.74 771.915 2294.02 Q769.433 2290.27 769.433 2283.18 Q769.433 2276.07 771.915 2272.35 Q774.417 2268.61 779.137 2268.61 Z" fill="#000000" fill-rule="nonzero" fill-opacity="1" /><path clip-path="url(#clip670)" d="M1356.53 2320.67 L1364.17 2320.67 L1364.17 2294.3 L1355.86 2295.97 L1355.86 2291.71 L1364.13 2290.05 L1368.8 2290.05 L1368.8 2320.67 L1376.44 2320.67 L1376.44 2324.61 L1356.53 2324.61 L1356.53 2320.67 Z" fill="#000000" fill-rule="nonzero" fill-opacity="1" /><path clip-path="url(#clip670)" d="M1395.88 2293.12 Q1392.27 2293.12 1390.44 2296.69 Q1388.64 2300.23 1388.64 2307.36 Q1388.64 2314.47 1390.44 2318.03 Q1392.27 2321.57 1395.88 2321.57 Q1399.52 2321.57 1401.32 2318.03 Q1403.15 2314.47 1403.15 2307.36 Q1403.15 2300.23 1401.32 2296.69 Q1399.52 2293.12 1395.88 2293.12 M1395.88 2289.42 Q1401.69 2289.42 1404.75 2294.03 Q1407.83 2298.61 1407.83 2307.36 Q1407.83 2316.09 1404.75 2320.69 Q1401.69 2325.28 1395.88 2325.28 Q1390.07 2325.28 1387 2320.69 Q1383.94 2316.09 1383.94 2307.36 Q1383.94 2298.61 1387 2294.03 Q1390.07 2289.42 1395.88 2289.42 Z" fill="#000000" fill-rule="nonzero" fill-opacity="1" /><path clip-path="url(#clip670)" d="M1408.37 2294 L1414.58 2294 L1414.58 2272.58 L1407.83 2273.93 L1407.83 2270.47 L1414.54 2269.11 L1418.34 2269.11 L1418.34 2294 L1424.55 2294 L1424.55 2297.19 L1408.37 2297.19 L1408.37 2294 Z" fill="#000000" fill-rule="nonzero" fill-opacity="1" /><path clip-path="url(#clip670)" d="M1993.03 2320.67 L2000.67 2320.67 L2000.67 2294.3 L1992.36 2295.97 L1992.36 2291.71 L2000.62 2290.05 L2005.3 2290.05 L2005.3 2320.67 L2012.94 2320.67 L2012.94 2324.61 L1993.03 2324.61 L1993.03 2320.67 Z" fill="#000000" fill-rule="nonzero" fill-opacity="1" /><path clip-path="url(#clip670)" d="M2032.38 2293.12 Q2028.77 2293.12 2026.94 2296.69 Q2025.14 2300.23 2025.14 2307.36 Q2025.14 2314.47 2026.94 2318.03 Q2028.77 2321.57 2032.38 2321.57 Q2036.02 2321.57 2037.82 2318.03 Q2039.65 2314.47 2039.65 2307.36 Q2039.65 2300.23 2037.82 2296.69 Q2036.02 2293.12 2032.38 2293.12 M2032.38 2289.42 Q2038.19 2289.42 2041.25 2294.03 Q2044.33 2298.61 2044.33 2307.36 Q2044.33 2316.09 2041.25 2320.69 Q2038.19 2325.28 2032.38 2325.28 Q2026.57 2325.28 2023.49 2320.69 Q2020.44 2316.09 2020.44 2307.36 Q2020.44 2298.61 2023.49 2294.03 Q2026.57 2289.42 2032.38 2289.42 Z" fill="#000000" fill-rule="nonzero" fill-opacity="1" /><path clip-path="url(#clip670)" d="M2048.9 2294 L2062.16 2294 L2062.16 2297.19 L2044.33 2297.19 L2044.33 2294 Q2046.49 2291.76 2050.21 2288 Q2053.96 2284.22 2054.91 2283.13 Q2056.74 2281.08 2057.45 2279.67 Q2058.19 2278.24 2058.19 2276.86 Q2058.19 2274.63 2056.61 2273.21 Q2055.05 2271.8 2052.53 2271.8 Q2050.74 2271.8 2048.75 2272.42 Q2046.77 2273.05 2044.51 2274.31 L2044.51 2270.47 Q2046.81 2269.55 2048.8 2269.08 Q2050.8 2268.61 2052.45 2268.61 Q2056.81 2268.61 2059.41 2270.79 Q2062.01 2272.97 2062.01 2276.62 Q2062.01 2278.35 2061.35 2279.91 Q2060.71 2281.45 2059 2283.56 Q2058.53 2284.1 2056.01 2286.72 Q2053.49 2289.31 2048.9 2294 Z" fill="#000000" fill-rule="nonzero" fill-opacity="1" /><path clip-path="url(#clip670)" d="M2629.75 2320.67 L2637.39 2320.67 L2637.39 2294.3 L2629.08 2295.97 L2629.08 2291.71 L2637.35 2290.05 L2642.02 2290.05 L2642.02 2320.67 L2649.66 2320.67 L2649.66 2324.61 L2629.75 2324.61 L2629.75 2320.67 Z" fill="#000000" fill-rule="nonzero" fill-opacity="1" /><path clip-path="url(#clip670)" d="M2669.1 2293.12 Q2665.49 2293.12 2663.66 2296.69 Q2661.86 2300.23 2661.86 2307.36 Q2661.86 2314.47 2663.66 2318.03 Q2665.49 2321.57 2669.1 2321.57 Q2672.74 2321.57 2674.54 2318.03 Q2676.37 2314.47 2676.37 2307.36 Q2676.37 2300.23 2674.54 2296.69 Q2672.74 2293.12 2669.1 2293.12 M2669.1 2289.42 Q2674.91 2289.42 2677.97 2294.03 Q2681.05 2298.61 2681.05 2307.36 Q2681.05 2316.09 2677.97 2320.69 Q2674.91 2325.28 2669.1 2325.28 Q2663.29 2325.28 2660.22 2320.69 Q2657.16 2316.09 2657.16 2307.36 Q2657.16 2298.61 2660.22 2294.03 Q2663.29 2289.42 2669.1 2289.42 Z" fill="#000000" fill-rule="nonzero" fill-opacity="1" /><path clip-path="url(#clip670)" d="M2693.74 2282.05 Q2696.47 2282.64 2697.99 2284.48 Q2699.54 2286.32 2699.54 2289.03 Q2699.54 2293.19 2696.68 2295.46 Q2693.82 2297.74 2688.55 2297.74 Q2686.79 2297.74 2684.9 2297.38 Q2683.04 2297.04 2681.05 2296.35 L2681.05 2292.68 Q2682.63 2293.6 2684.51 2294.07 Q2686.39 2294.54 2688.44 2294.54 Q2692.01 2294.54 2693.88 2293.13 Q2695.76 2291.72 2695.76 2289.03 Q2695.76 2286.55 2694.01 2285.16 Q2692.28 2283.75 2689.17 2283.75 L2685.9 2283.75 L2685.9 2280.63 L2689.32 2280.63 Q2692.13 2280.63 2693.61 2279.52 Q2695.1 2278.39 2695.1 2276.28 Q2695.1 2274.12 2693.56 2272.97 Q2692.03 2271.8 2689.17 2271.8 Q2687.61 2271.8 2685.83 2272.14 Q2684.04 2272.48 2681.9 2273.2 L2681.9 2269.81 Q2684.06 2269.21 2685.94 2268.91 Q2687.84 2268.61 2689.51 2268.61 Q2693.84 2268.61 2696.36 2270.58 Q2698.88 2272.54 2698.88 2275.89 Q2698.88 2278.22 2697.54 2279.84 Q2696.21 2281.43 2693.74 2282.05 Z" fill="#000000" fill-rule="nonzero" fill-opacity="1" /><path clip-path="url(#clip670)" d="M3265.82 2320.67 L3273.46 2320.67 L3273.46 2294.3 L3265.15 2295.97 L3265.15 2291.71 L3273.41 2290.05 L3278.09 2290.05 L3278.09 2320.67 L3285.72 2320.67 L3285.72 2324.61 L3265.82 2324.61 L3265.82 2320.67 Z" fill="#000000" fill-rule="nonzero" fill-opacity="1" /><path clip-path="url(#clip670)" d="M3305.17 2293.12 Q3301.56 2293.12 3299.73 2296.69 Q3297.92 2300.23 3297.92 2307.36 Q3297.92 2314.47 3299.73 2318.03 Q3301.56 2321.57 3305.17 2321.57 Q3308.8 2321.57 3310.61 2318.03 Q3312.44 2314.47 3312.44 2307.36 Q3312.44 2300.23 3310.61 2296.69 Q3308.8 2293.12 3305.17 2293.12 M3305.17 2289.42 Q3310.98 2289.42 3314.03 2294.03 Q3317.11 2298.61 3317.11 2307.36 Q3317.11 2316.09 3314.03 2320.69 Q3310.98 2325.28 3305.17 2325.28 Q3299.36 2325.28 3296.28 2320.69 Q3293.22 2316.09 3293.22 2307.36 Q3293.22 2298.61 3296.28 2294.03 Q3299.36 2289.42 3305.17 2289.42 Z" fill="#000000" fill-rule="nonzero" fill-opacity="1" /><path clip-path="url(#clip670)" d="M3329.79 2272.42 L3320.2 2287.41 L3329.79 2287.41 L3329.79 2272.42 M3328.79 2269.11 L3333.57 2269.11 L3333.57 2287.41 L3337.58 2287.41 L3337.58 2290.57 L3333.57 2290.57 L3333.57 2297.19 L3329.79 2297.19 L3329.79 2290.57 L3317.11 2290.57 L3317.11 2286.91 L3328.79 2269.11 Z" fill="#000000" fill-rule="nonzero" fill-opacity="1" /><path clip-path="url(#clip670)" d="M2001.57 2396.11 Q2001.57 2390.82 1999.38 2387.83 Q1997.22 2384.81 1993.42 2384.81 Q1989.62 2384.81 1987.43 2387.83 Q1985.27 2390.82 1985.27 2396.11 Q1985.27 2401.4 1987.43 2404.42 Q1989.62 2407.41 1993.42 2407.41 Q1997.22 2407.41 1999.38 2404.42 Q2001.57 2401.4 2001.57 2396.11 M1985.27 2385.93 Q1986.78 2383.32 1989.07 2382.07 Q1991.39 2380.8 1994.59 2380.8 Q1999.9 2380.8 2003.21 2385.02 Q2006.54 2389.23 2006.54 2396.11 Q2006.54 2402.98 2003.21 2407.2 Q1999.9 2411.42 1994.59 2411.42 Q1991.39 2411.42 1989.07 2410.17 Q1986.78 2408.9 1985.27 2406.29 L1985.27 2410.67 L1980.45 2410.67 L1980.45 2370.15 L1985.27 2370.15 L1985.27 2385.93 Z" fill="#000000" fill-rule="nonzero" fill-opacity="1" /><path clip-path="url(#clip670)" d="M2039.43 2394.88 L2039.43 2397.23 L2017.4 2397.23 Q2017.72 2402.18 2020.37 2404.78 Q2023.05 2407.36 2027.82 2407.36 Q2030.58 2407.36 2033.16 2406.68 Q2035.76 2406 2038.31 2404.65 L2038.31 2409.18 Q2035.74 2410.28 2033.03 2410.85 Q2030.32 2411.42 2027.53 2411.42 Q2020.55 2411.42 2016.47 2407.36 Q2012.4 2403.3 2012.4 2396.37 Q2012.4 2389.21 2016.26 2385.02 Q2020.14 2380.8 2026.7 2380.8 Q2032.58 2380.8 2036 2384.6 Q2039.43 2388.37 2039.43 2394.88 M2034.64 2393.48 Q2034.59 2389.55 2032.43 2387.2 Q2030.29 2384.86 2026.75 2384.86 Q2022.74 2384.86 2020.32 2387.12 Q2017.92 2389.39 2017.56 2393.5 L2034.64 2393.48 Z" fill="#000000" fill-rule="nonzero" fill-opacity="1" /><path clip-path="url(#clip670)" d="M2052.04 2373.22 L2052.04 2381.5 L2061.91 2381.5 L2061.91 2385.22 L2052.04 2385.22 L2052.04 2401.06 Q2052.04 2404.62 2053 2405.64 Q2053.99 2406.66 2056.99 2406.66 L2061.91 2406.66 L2061.91 2410.67 L2056.99 2410.67 Q2051.44 2410.67 2049.33 2408.61 Q2047.22 2406.53 2047.22 2401.06 L2047.22 2385.22 L2043.7 2385.22 L2043.7 2381.5 L2047.22 2381.5 L2047.22 2373.22 L2052.04 2373.22 Z" fill="#000000" fill-rule="nonzero" fill-opacity="1" /><path clip-path="url(#clip670)" d="M2081.46 2396 Q2075.66 2396 2073.42 2397.33 Q2071.18 2398.66 2071.18 2401.86 Q2071.18 2404.42 2072.84 2405.93 Q2074.54 2407.41 2077.43 2407.41 Q2081.41 2407.41 2083.81 2404.6 Q2086.23 2401.76 2086.23 2397.07 L2086.23 2396 L2081.46 2396 M2091.02 2394.03 L2091.02 2410.67 L2086.23 2410.67 L2086.23 2406.24 Q2084.59 2408.9 2082.14 2410.17 Q2079.69 2411.42 2076.15 2411.42 Q2071.67 2411.42 2069.02 2408.92 Q2066.39 2406.4 2066.39 2402.18 Q2066.39 2397.25 2069.67 2394.75 Q2072.98 2392.25 2079.51 2392.25 L2086.23 2392.25 L2086.23 2391.79 Q2086.23 2388.48 2084.04 2386.68 Q2081.88 2384.86 2077.95 2384.86 Q2075.45 2384.86 2073.08 2385.46 Q2070.71 2386.06 2068.52 2387.25 L2068.52 2382.83 Q2071.15 2381.81 2073.63 2381.32 Q2076.1 2380.8 2078.44 2380.8 Q2084.77 2380.8 2087.9 2384.08 Q2091.02 2387.36 2091.02 2394.03 Z" fill="#000000" fill-rule="nonzero" fill-opacity="1" /><path clip-path="url(#clip670)" d="M2129.36 2370.2 Q2125.87 2376.19 2124.17 2382.05 Q2122.48 2387.91 2122.48 2393.92 Q2122.48 2399.94 2124.17 2405.85 Q2125.89 2411.73 2129.36 2417.7 L2125.19 2417.7 Q2121.28 2411.58 2119.33 2405.67 Q2117.4 2399.75 2117.4 2393.92 Q2117.4 2388.11 2119.33 2382.23 Q2121.26 2376.34 2125.19 2370.2 L2129.36 2370.2 Z" fill="#000000" fill-rule="nonzero" fill-opacity="1" /><path clip-path="url(#clip670)" d="M2143.44 2408.87 L2143.44 2421.76 L2138.63 2421.76 L2138.63 2381.68 Q2138.63 2369.81 2149.72 2369.81 Q2161.02 2369.81 2161.02 2379.83 Q2161.02 2386.97 2156.54 2389.57 Q2163.83 2391.92 2163.83 2398.87 Q2163.83 2411.21 2151.28 2411.21 Q2145.76 2411.21 2143.44 2408.87 M2143.44 2402.62 Q2146.33 2407.12 2151.46 2407.12 Q2158.96 2407.12 2158.96 2398.95 Q2158.96 2391.6 2146.88 2392.18 L2146.88 2387.75 Q2156.33 2387.75 2156.33 2379.42 Q2156.33 2373.71 2150.24 2373.71 Q2143.44 2373.71 2143.44 2381.84 L2143.44 2402.62 Z" fill="#000000" fill-rule="nonzero" fill-opacity="1" /><path clip-path="url(#clip670)" d="M2171.93 2370.2 L2176.1 2370.2 Q2180.01 2376.34 2181.93 2382.23 Q2183.89 2388.11 2183.89 2393.92 Q2183.89 2399.75 2181.93 2405.67 Q2180.01 2411.58 2176.1 2417.7 L2171.93 2417.7 Q2175.4 2411.73 2177.09 2405.85 Q2178.81 2399.94 2178.81 2393.92 Q2178.81 2387.91 2177.09 2382.05 Q2175.4 2376.19 2171.93 2370.2 Z" fill="#000000" fill-rule="nonzero" fill-opacity="1" /><polyline clip-path="url(#clip670)" style="stroke:#000000; stroke-linecap:round; stroke-linejoin:round; stroke-width:4; stroke-opacity:1; fill:none" points="258.824,2233.75 258.824,148.313 "/>
<polyline clip-path="url(#clip670)" style="stroke:#000000; stroke-linecap:round; stroke-linejoin:round; stroke-width:4; stroke-opacity:1; fill:none" points="258.824,2233.75 277.721,2233.75 "/>
<polyline clip-path="url(#clip670)" style="stroke:#000000; stroke-linecap:round; stroke-linejoin:round; stroke-width:4; stroke-opacity:1; fill:none" points="258.824,1868.16 277.721,1868.16 "/>
<polyline clip-path="url(#clip670)" style="stroke:#000000; stroke-linecap:round; stroke-linejoin:round; stroke-width:4; stroke-opacity:1; fill:none" points="258.824,1502.57 277.721,1502.57 "/>
<polyline clip-path="url(#clip670)" style="stroke:#000000; stroke-linecap:round; stroke-linejoin:round; stroke-width:4; stroke-opacity:1; fill:none" points="258.824,1136.98 277.721,1136.98 "/>
<polyline clip-path="url(#clip670)" style="stroke:#000000; stroke-linecap:round; stroke-linejoin:round; stroke-width:4; stroke-opacity:1; fill:none" points="258.824,771.394 277.721,771.394 "/>
<polyline clip-path="url(#clip670)" style="stroke:#000000; stroke-linecap:round; stroke-linejoin:round; stroke-width:4; stroke-opacity:1; fill:none" points="258.824,405.806 277.721,405.806 "/>
<path clip-path="url(#clip670)" d="M186.879 2219.54 Q183.268 2219.54 181.44 2223.11 Q179.634 2226.65 179.634 2233.78 Q179.634 2240.89 181.44 2244.45 Q183.268 2247.99 186.879 2247.99 Q190.514 2247.99 192.319 2244.45 Q194.148 2240.89 194.148 2233.78 Q194.148 2226.65 192.319 2223.11 Q190.514 2219.54 186.879 2219.54 M186.879 2215.84 Q192.69 2215.84 195.745 2220.45 Q198.824 2225.03 198.824 2233.78 Q198.824 2242.51 195.745 2247.11 Q192.69 2251.7 186.879 2251.7 Q181.069 2251.7 177.991 2247.11 Q174.935 2242.51 174.935 2233.78 Q174.935 2225.03 177.991 2220.45 Q181.069 2215.84 186.879 2215.84 Z" fill="#000000" fill-rule="nonzero" fill-opacity="1" /><path clip-path="url(#clip670)" d="M178.916 1881.5 L186.555 1881.5 L186.555 1855.14 L178.245 1856.8 L178.245 1852.54 L186.509 1850.88 L191.185 1850.88 L191.185 1881.5 L198.824 1881.5 L198.824 1885.44 L178.916 1885.44 L178.916 1881.5 Z" fill="#000000" fill-rule="nonzero" fill-opacity="1" /><path clip-path="url(#clip670)" d="M182.504 1515.91 L198.824 1515.91 L198.824 1519.85 L176.879 1519.85 L176.879 1515.91 Q179.541 1513.16 184.125 1508.53 Q188.731 1503.88 189.912 1502.53 Q192.157 1500.01 193.037 1498.28 Q193.94 1496.52 193.94 1494.83 Q193.94 1492.07 191.995 1490.34 Q190.074 1488.6 186.972 1488.6 Q184.773 1488.6 182.319 1489.36 Q179.889 1490.13 177.111 1491.68 L177.111 1486.96 Q179.935 1485.82 182.389 1485.24 Q184.842 1484.66 186.879 1484.66 Q192.25 1484.66 195.444 1487.35 Q198.639 1490.03 198.639 1494.53 Q198.639 1496.66 197.828 1498.58 Q197.041 1500.47 194.935 1503.07 Q194.356 1503.74 191.254 1506.96 Q188.153 1510.15 182.504 1515.91 Z" fill="#000000" fill-rule="nonzero" fill-opacity="1" /><path clip-path="url(#clip670)" d="M191.694 1135.63 Q195.051 1136.35 196.926 1138.61 Q198.824 1140.88 198.824 1144.22 Q198.824 1149.33 195.305 1152.13 Q191.787 1154.93 185.305 1154.93 Q183.129 1154.93 180.815 1154.49 Q178.523 1154.08 176.069 1153.22 L176.069 1148.71 Q178.014 1149.84 180.328 1150.42 Q182.643 1151 185.166 1151 Q189.565 1151 191.856 1149.26 Q194.171 1147.53 194.171 1144.22 Q194.171 1141.16 192.018 1139.45 Q189.889 1137.71 186.069 1137.71 L182.041 1137.71 L182.041 1133.87 L186.254 1133.87 Q189.703 1133.87 191.532 1132.5 Q193.361 1131.11 193.361 1128.52 Q193.361 1125.86 191.463 1124.45 Q189.588 1123.01 186.069 1123.01 Q184.148 1123.01 181.949 1123.43 Q179.75 1123.85 177.111 1124.72 L177.111 1120.56 Q179.773 1119.82 182.088 1119.45 Q184.426 1119.08 186.486 1119.08 Q191.81 1119.08 194.912 1121.51 Q198.014 1123.91 198.014 1128.04 Q198.014 1130.91 196.37 1132.9 Q194.727 1134.86 191.694 1135.63 Z" fill="#000000" fill-rule="nonzero" fill-opacity="1" /><path clip-path="url(#clip670)" d="M189.24 758.188 L177.435 776.637 L189.24 776.637 L189.24 758.188 M188.014 754.114 L193.893 754.114 L193.893 776.637 L198.824 776.637 L198.824 780.526 L193.893 780.526 L193.893 788.674 L189.24 788.674 L189.24 780.526 L173.639 780.526 L173.639 776.012 L188.014 754.114 Z" fill="#000000" fill-rule="nonzero" fill-opacity="1" /><path clip-path="url(#clip670)" d="M177.921 388.526 L196.277 388.526 L196.277 392.461 L182.203 392.461 L182.203 400.934 Q183.222 400.586 184.241 400.424 Q185.259 400.239 186.278 400.239 Q192.065 400.239 195.444 403.41 Q198.824 406.582 198.824 411.998 Q198.824 417.577 195.352 420.679 Q191.879 423.757 185.56 423.757 Q183.384 423.757 181.116 423.387 Q178.87 423.017 176.463 422.276 L176.463 417.577 Q178.546 418.711 180.768 419.267 Q182.991 419.822 185.467 419.822 Q189.472 419.822 191.81 417.716 Q194.148 415.609 194.148 411.998 Q194.148 408.387 191.81 406.281 Q189.472 404.174 185.467 404.174 Q183.592 404.174 181.717 404.591 Q179.866 405.008 177.921 405.887 L177.921 388.526 Z" fill="#000000" fill-rule="nonzero" fill-opacity="1" /><path clip-path="url(#clip670)" d="M68.277 1320.08 L97.5997 1330.75 L97.5997 1309.37 L68.277 1320.08 M101.975 1337.89 L63.0947 1323.05 L63.0947 1317.08 L101.975 1302.27 L101.975 1337.89 Z" fill="#000000" fill-rule="nonzero" fill-opacity="1" /><path clip-path="url(#clip670)" d="M76.1676 1268.54 Q76.1676 1272.4 79.1884 1274.64 Q82.1832 1276.87 87.4175 1276.87 Q92.6518 1276.87 95.6727 1274.66 Q98.6674 1272.42 98.6674 1268.54 Q98.6674 1264.71 95.6466 1262.47 Q92.6258 1260.23 87.4175 1260.23 Q82.2352 1260.23 79.2144 1262.47 Q76.1676 1264.71 76.1676 1268.54 M72.1051 1268.54 Q72.1051 1262.29 76.1676 1258.72 Q80.23 1255.16 87.4175 1255.16 Q94.5789 1255.16 98.6674 1258.72 Q102.73 1262.29 102.73 1268.54 Q102.73 1274.82 98.6674 1278.39 Q94.5789 1281.93 87.4175 1281.93 Q80.23 1281.93 76.1676 1278.39 Q72.1051 1274.82 72.1051 1268.54 Z" fill="#000000" fill-rule="nonzero" fill-opacity="1" /><path clip-path="url(#clip670)" d="M87.4175 1226.28 Q82.1311 1226.28 79.1363 1228.46 Q76.1155 1230.63 76.1155 1234.43 Q76.1155 1238.23 79.1363 1240.42 Q82.1311 1242.58 87.4175 1242.58 Q92.7039 1242.58 95.7247 1240.42 Q98.7195 1238.23 98.7195 1234.43 Q98.7195 1230.63 95.7247 1228.46 Q92.7039 1226.28 87.4175 1226.28 M77.2353 1242.58 Q74.6311 1241.07 73.3811 1238.78 Q72.1051 1236.46 72.1051 1233.26 Q72.1051 1227.94 76.3238 1224.64 Q80.5425 1221.3 87.4175 1221.3 Q94.2925 1221.3 98.5112 1224.64 Q102.73 1227.94 102.73 1233.26 Q102.73 1236.46 101.48 1238.78 Q100.204 1241.07 97.5997 1242.58 L101.975 1242.58 L101.975 1247.4 L61.4541 1247.4 L61.4541 1242.58 L77.2353 1242.58 Z" fill="#000000" fill-rule="nonzero" fill-opacity="1" /><path clip-path="url(#clip670)" d="M72.8082 1213.36 L72.8082 1208.57 L102.496 1208.57 Q108.068 1208.57 110.568 1210.7 Q113.068 1212.81 113.068 1217.53 L113.068 1219.35 L109.006 1219.35 L109.006 1218.07 Q109.006 1215.34 107.73 1214.35 Q106.48 1213.36 102.496 1213.36 L72.8082 1213.36 M61.4541 1213.36 L61.4541 1208.57 L67.5218 1208.57 L67.5218 1213.36 L61.4541 1213.36 Z" fill="#000000" fill-rule="nonzero" fill-opacity="1" /><path clip-path="url(#clip670)" d="M86.1935 1173.59 L88.5373 1173.59 L88.5373 1195.63 Q93.4852 1195.31 96.0893 1192.66 Q98.6674 1189.97 98.6674 1185.21 Q98.6674 1182.45 97.9904 1179.87 Q97.3133 1177.27 95.9591 1174.71 L100.49 1174.71 Q101.584 1177.29 102.157 1180 Q102.73 1182.71 102.73 1185.5 Q102.73 1192.47 98.6674 1196.56 Q94.605 1200.63 87.6779 1200.63 Q80.5165 1200.63 76.3238 1196.77 Q72.1051 1192.89 72.1051 1186.33 Q72.1051 1180.44 75.9071 1177.03 Q79.6832 1173.59 86.1935 1173.59 M84.7873 1178.39 Q80.855 1178.44 78.5113 1180.6 Q76.1676 1182.73 76.1676 1186.28 Q76.1676 1190.29 78.4332 1192.71 Q80.6988 1195.1 84.8133 1195.47 L84.7873 1178.39 Z" fill="#000000" fill-rule="nonzero" fill-opacity="1" /><path clip-path="url(#clip670)" d="M73.928 1144.74 L78.4071 1144.74 Q77.2873 1146.77 76.7405 1148.83 Q76.1676 1150.86 76.1676 1152.94 Q76.1676 1157.6 79.1363 1160.18 Q82.079 1162.76 87.4175 1162.76 Q92.756 1162.76 95.7247 1160.18 Q98.6674 1157.6 98.6674 1152.94 Q98.6674 1150.86 98.1206 1148.83 Q97.5477 1146.77 96.4279 1144.74 L100.855 1144.74 Q101.792 1146.75 102.261 1148.91 Q102.73 1151.04 102.73 1153.46 Q102.73 1160.05 98.5893 1163.93 Q94.4487 1167.81 87.4175 1167.81 Q80.2821 1167.81 76.1936 1163.91 Q72.1051 1159.97 72.1051 1153.15 Q72.1051 1150.94 72.5738 1148.83 Q73.0165 1146.72 73.928 1144.74 Z" fill="#000000" fill-rule="nonzero" fill-opacity="1" /><path clip-path="url(#clip670)" d="M64.527 1131.67 L72.8082 1131.67 L72.8082 1121.8 L76.5321 1121.8 L76.5321 1131.67 L92.3654 1131.67 Q95.9331 1131.67 96.9487 1130.7 Q97.9643 1129.71 97.9643 1126.72 L97.9643 1121.8 L101.975 1121.8 L101.975 1126.72 Q101.975 1132.27 99.9174 1134.38 Q97.8341 1136.49 92.3654 1136.49 L76.5321 1136.49 L76.5321 1140 L72.8082 1140 L72.8082 1136.49 L64.527 1136.49 L64.527 1131.67 Z" fill="#000000" fill-rule="nonzero" fill-opacity="1" /><path clip-path="url(#clip670)" d="M72.8082 1115.5 L72.8082 1110.7 L101.975 1110.7 L101.975 1115.5 L72.8082 1115.5 M61.4541 1115.5 L61.4541 1110.7 L67.5218 1110.7 L67.5218 1115.5 L61.4541 1115.5 Z" fill="#000000" fill-rule="nonzero" fill-opacity="1" /><path clip-path="url(#clip670)" d="M72.8082 1104.12 L72.8082 1099.04 L97.2872 1089.92 L72.8082 1080.81 L72.8082 1075.73 L101.975 1086.67 L101.975 1093.18 L72.8082 1104.12 Z" fill="#000000" fill-rule="nonzero" fill-opacity="1" /><path clip-path="url(#clip670)" d="M86.1935 1044.17 L88.5373 1044.17 L88.5373 1066.2 Q93.4852 1065.89 96.0893 1063.23 Q98.6674 1060.55 98.6674 1055.78 Q98.6674 1053.02 97.9904 1050.44 Q97.3133 1047.84 95.9591 1045.29 L100.49 1045.29 Q101.584 1047.87 102.157 1050.57 Q102.73 1053.28 102.73 1056.07 Q102.73 1063.05 98.6674 1067.14 Q94.605 1071.2 87.6779 1071.2 Q80.5165 1071.2 76.3238 1067.34 Q72.1051 1063.46 72.1051 1056.9 Q72.1051 1051.02 75.9071 1047.61 Q79.6832 1044.17 86.1935 1044.17 M84.7873 1048.96 Q80.855 1049.01 78.5113 1051.17 Q76.1676 1053.31 76.1676 1056.85 Q76.1676 1060.86 78.4332 1063.28 Q80.6988 1065.68 84.8133 1066.04 L84.7873 1048.96 Z" fill="#000000" fill-rule="nonzero" fill-opacity="1" /><g clip-path="url(#clip670)">
<text style="fill:#000000; fill-opacity:1; font-family:Century Gothic,CenturyGothic,AppleGothic,sans-serif; font-size:58px; text-anchor:middle;" transform="rotate(0, 2082.17, 51.6)" x="2082.17" y="51.6">beta (β) | Practically identifiable</text>
</g>
<polyline clip-path="url(#clip672)" style="stroke:#595959; stroke-linecap:round; stroke-linejoin:round; stroke-width:6.8; stroke-opacity:0.95; fill:none" points="258.824,247.619 274.591,442.891 286.944,567.671 309.936,741.058 318.342,1478.9 321.644,771.624 343.758,717.797 371.826,473.486 387.509,2233.75 1502.83,587.386 3905.51,587.386 "/>
<polyline clip-path="url(#clip672)" style="stroke:#595959; stroke-linecap:round; stroke-linejoin:round; stroke-width:6.8; stroke-opacity:0.95; fill:none" points="387.509,2233.75 456.676,1344.06 482.484,842.423 483.111,830.284 496.691,546.025 "/>
<polyline clip-path="url(#clip672)" style="stroke:#3cb371; stroke-linecap:round; stroke-linejoin:round; stroke-width:7.2; stroke-opacity:1; fill:none" stroke-dasharray="29, 18" points="-3387.86,829.355 7552.2,829.355 "/>
<polyline clip-path="url(#clip672)" style="stroke:#000000; stroke-linecap:round; stroke-linejoin:round; stroke-width:4.8; stroke-opacity:1; fill:none" stroke-dasharray="2, 5" points="483.111,4319.18 483.111,-1937.12 "/>
<path clip-path="url(#clip672)" d="M387.509 2215.75 L369.509 2233.75 L387.509 2251.75 L405.509 2233.75 L387.509 2215.75 Z" fill="#000000" fill-rule="evenodd" fill-opacity="1" stroke="none"/>
</svg>
