<?xml version="1.0" encoding="utf-8"?>
<svg xmlns="http://www.w3.org/2000/svg" xmlns:xlink="http://www.w3.org/1999/xlink" width="1000" height="620" viewBox="0 0 4000 2480">
<defs>
  <clipPath id="clip880">
    <rect x="0" y="0" width="4000" height="2480"/>
  </clipPath>
</defs>
<path clip-path="url(#clip880)" d="M0 2480 L4000 2480 L4000 0 L0 0  Z" fill="#ffffff" fill-rule="evenodd" fill-opacity="1"/>
<defs>
  <clipPath id="clip881">
    <rect x="258" y="148" width="3648" height="2086"/>
  </clipPath>
</defs>
<path clip-path="url(#clip880)" d="M258.824 2233.75 L3905.51 2233.75 L3905.51 148.313 L258.824 148.313  Z" fill="#ffffff" fill-rule="evenodd" fill-opacity="1"/>
<polyline clip-path="url(#clip881)" style="stroke:#000000; stroke-linecap:round; stroke-linejoin:round; stroke-width:2; stroke-opacity:0.15; fill:none" points="258.824,2233.75 258.824,148.313 "/>
<polyline clip-path="url(#clip881)" style="stroke:#000000; stroke-linecap:round; stroke-linejoin:round; stroke-width:2; stroke-opacity:0.15; fill:none" points="2469.05,2233.75 2469.05,148.313 "/>
<polyline clip-path="url(#clip881)" style="stroke:#000000; stroke-linecap:round; stroke-linejoin:round; stroke-width:2; stroke-opacity:0.15; fill:none" points="258.824,2233.75 3905.51,2233.75 "/>
<polyline clip-path="url(#clip881)" style="stroke:#000000; stroke-linecap:round; stroke-linejoin:round; stroke-width:2; stroke-opacity:0.15; fill:none" points="258.824,1823.76 3905.51,1823.76 "/>
<polyline clip-path="url(#clip881)" style="stroke:#000000; stroke-linecap:round; stroke-linejoin:round; stroke-width:2; stroke-opacity:0.15; fill:none" points="258.824,1413.77 3905.51,1413.77 "/>
<polyline clip-path="url(#clip881)" style="stroke:#000000; stroke-linecap:round; stroke-linejoin:round; stroke-width:2; stroke-opacity:0.15; fill:none" points="258.824,1003.78 3905.51,1003.78 "/>
<polyline clip-path="url(#clip881)" style="stroke:#000000; stroke-linecap:round; stroke-linejoin:round; stroke-width:2; stroke-opacity:0.15; fill:none" points="258.824,593.798 3905.51,593.798 "/>
<polyline clip-path="url(#clip881)" style="stroke:#000000; stroke-linecap:round; stroke-linejoin:round; stroke-width:2; stroke-opacity:0.15; fill:none" points="258.824,183.811 3905.51,183.811 "/>
<polyline clip-path="url(#clip880)" style="stroke:#000000; stroke-linecap:round; stroke-linejoin:round; stroke-width:4; stroke-opacity:1; fill:none" points="258.824,2233.75 3905.51,2233.75 "/>
<polyline clip-path="url(#clip880)" style="stroke:#000000; stroke-linecap:round; stroke-linejoin:round; stroke-width:4; stroke-opacity:1; fill:none" points="258.824,2233.75 258.824,2214.85 "/>
<polyline clip-path="url(#clip880)" style="stroke:#000000; stroke-linecap:round; stroke-linejoin:round; stroke-width:4; stroke-opacity:1; fill:none" points="2469.05,2233.75 2469.05,2214.85 "/>
<path clip-path="url(#clip880)" d="M208.704 2320.67 L216.343 2320.67 L216.343 2294.3 L208.033 2295.97 L208.033 2291.71 L216.297 2290.05 L220.972 2290.05 L220.972 2320.67 L228.611 2320.67 L228.611 2324.61 L208.704 2324.61 L208.704 2320.67 Z" fill="#000000" fill-rule="nonzero" fill-opacity="1" /><path clip-path="url(#clip880)" d="M248.056 2293.12 Q244.445 2293.12 242.616 2296.69 Q240.81 2300.23 240.81 2307.36 Q240.81 2314.47 242.616 2318.03 Q244.445 2321.57 248.056 2321.57 Q251.69 2321.57 253.495 2318.03 Q255.324 2314.47 255.324 2307.36 Q255.324 2300.23 253.495 2296.69 Q251.69 2293.12 248.056 2293.12 M248.056 2289.42 Q253.866 2289.42 256.921 2294.03 Q260 2298.61 260 2307.36 Q260 2316.09 256.921 2320.69 Q253.866 2325.28 248.056 2325.28 Q242.245 2325.28 239.167 2320.69 Q236.111 2316.09 236.111 2307.36 Q236.111 2298.61 239.167 2294.03 Q242.245 2289.42 248.056 2289.42 Z" fill="#000000" fill-rule="nonzero" fill-opacity="1" /><path clip-path="url(#clip880)" d="M260 2283.52 L284.112 2283.52 L284.112 2286.72 L260 2286.72 L260 2283.52 Z" fill="#000000" fill-rule="nonzero" fill-opacity="1" /><path clip-path="url(#clip880)" d="M303.822 2282.05 Q306.549 2282.64 308.073 2284.48 Q309.615 2286.32 309.615 2289.03 Q309.615 2293.19 306.756 2295.46 Q303.897 2297.74 298.631 2297.74 Q296.863 2297.74 294.982 2297.38 Q293.12 2297.04 291.127 2296.35 L291.127 2292.68 Q292.707 2293.6 294.587 2294.07 Q296.468 2294.54 298.518 2294.54 Q302.092 2294.54 303.954 2293.13 Q305.835 2291.72 305.835 2289.03 Q305.835 2286.55 304.085 2285.16 Q302.355 2283.75 299.252 2283.75 L295.979 2283.75 L295.979 2280.63 L299.402 2280.63 Q302.205 2280.63 303.69 2279.52 Q305.176 2278.39 305.176 2276.28 Q305.176 2274.12 303.634 2272.97 Q302.111 2271.8 299.252 2271.8 Q297.691 2271.8 295.904 2272.14 Q294.117 2272.48 291.973 2273.2 L291.973 2269.81 Q294.136 2269.21 296.017 2268.91 Q297.916 2268.61 299.59 2268.61 Q303.916 2268.61 306.436 2270.58 Q308.957 2272.54 308.957 2275.89 Q308.957 2278.22 307.621 2279.84 Q306.286 2281.43 303.822 2282.05 Z" fill="#000000" fill-rule="nonzero" fill-opacity="1" /><path clip-path="url(#clip880)" d="M2419.32 2320.67 L2426.95 2320.67 L2426.95 2294.3 L2418.64 2295.97 L2418.64 2291.71 L2426.91 2290.05 L2431.58 2290.05 L2431.58 2320.67 L2439.22 2320.67 L2439.22 2324.61 L2419.32 2324.61 L2419.32 2320.67 Z" fill="#000000" fill-rule="nonzero" fill-opacity="1" /><path clip-path="url(#clip880)" d="M2458.67 2293.12 Q2455.06 2293.12 2453.23 2296.69 Q2451.42 2300.23 2451.42 2307.36 Q2451.42 2314.47 2453.23 2318.03 Q2455.06 2321.57 2458.67 2321.57 Q2462.3 2321.57 2464.11 2318.03 Q2465.94 2314.47 2465.94 2307.36 Q2465.94 2300.23 2464.11 2296.69 Q2462.3 2293.12 2458.67 2293.12 M2458.67 2289.42 Q2464.48 2289.42 2467.53 2294.03 Q2470.61 2298.61 2470.61 2307.36 Q2470.61 2316.09 2467.53 2320.69 Q2464.48 2325.28 2458.67 2325.28 Q2452.86 2325.28 2449.78 2320.69 Q2446.72 2316.09 2446.72 2307.36 Q2446.72 2298.61 2449.78 2294.03 Q2452.86 2289.42 2458.67 2289.42 Z" fill="#000000" fill-rule="nonzero" fill-opacity="1" /><path clip-path="url(#clip880)" d="M2470.61 2283.52 L2494.72 2283.52 L2494.72 2286.72 L2470.61 2286.72 L2470.61 2283.52 Z" fill="#000000" fill-rule="nonzero" fill-opacity="1" /><path clip-path="url(#clip880)" d="M2506.2 2294 L2519.45 2294 L2519.45 2297.19 L2501.63 2297.19 L2501.63 2294 Q2503.79 2291.76 2507.51 2288 Q2511.25 2284.22 2512.21 2283.13 Q2514.04 2281.08 2514.75 2279.67 Q2515.49 2278.24 2515.49 2276.86 Q2515.49 2274.63 2513.91 2273.21 Q2512.35 2271.8 2509.83 2271.8 Q2508.04 2271.8 2506.04 2272.42 Q2504.07 2273.05 2501.81 2274.31 L2501.81 2270.47 Q2504.11 2269.55 2506.1 2269.08 Q2508.1 2268.61 2509.75 2268.61 Q2514.11 2268.61 2516.71 2270.79 Q2519.3 2272.97 2519.3 2276.62 Q2519.3 2278.35 2518.65 2279.91 Q2518.01 2281.45 2516.3 2283.56 Q2515.83 2284.1 2513.3 2286.72 Q2510.78 2289.31 2506.2 2294 Z" fill="#000000" fill-rule="nonzero" fill-opacity="1" /><path clip-path="url(#clip880)" d="M2090.24 2396.11 Q2090.24 2390.82 2088.05 2387.83 Q2085.89 2384.81 2082.09 2384.81 Q2078.29 2384.81 2076.1 2387.83 Q2073.94 2390.82 2073.94 2396.11 Q2073.94 2401.4 2076.1 2404.42 Q2078.29 2407.41 2082.09 2407.41 Q2085.89 2407.41 2088.05 2404.42 Q2090.24 2401.4 2090.24 2396.11 M2073.94 2385.93 Q2075.45 2383.32 2077.74 2382.07 Q2080.06 2380.8 2083.26 2380.8 Q2088.57 2380.8 2091.88 2385.02 Q2095.21 2389.23 2095.21 2396.11 Q2095.21 2402.98 2091.88 2407.2 Q2088.57 2411.42 2083.26 2411.42 Q2080.06 2411.42 2077.74 2410.17 Q2075.45 2408.9 2073.94 2406.29 L2073.94 2410.67 L2069.12 2410.67 L2069.12 2370.15 L2073.94 2370.15 L2073.94 2385.93 Z" fill="#000000" fill-rule="nonzero" fill-opacity="1" /><polyline clip-path="url(#clip880)" style="stroke:#000000; stroke-linecap:round; stroke-linejoin:round; stroke-width:4; stroke-opacity:1; fill:none" points="258.824,2233.75 258.824,148.313 "/>
<polyline clip-path="url(#clip880)" style="stroke:#000000; stroke-linecap:round; stroke-linejoin:round; stroke-width:4; stroke-opacity:1; fill:none" points="258.824,2233.75 277.721,2233.75 "/>
<polyline clip-path="url(#clip880)" style="stroke:#000000; stroke-linecap:round; stroke-linejoin:round; stroke-width:4; stroke-opacity:1; fill:none" points="258.824,1823.76 277.721,1823.76 "/>
<polyline clip-path="url(#clip880)" style="stroke:#000000; stroke-linecap:round; stroke-linejoin:round; stroke-width:4; stroke-opacity:1; fill:none" points="258.824,1413.77 277.721,1413.77 "/>
<polyline clip-path="url(#clip880)" style="stroke:#000000; stroke-linecap:round; stroke-linejoin:round; stroke-width:4; stroke-opacity:1; fill:none" points="258.824,1003.78 277.721,1003.78 "/>
<polyline clip-path="url(#clip880)" style="stroke:#000000; stroke-linecap:round; stroke-linejoin:round; stroke-width:4; stroke-opacity:1; fill:none" points="258.824,593.798 277.721,593.798 "/>
<polyline clip-path="url(#clip880)" style="stroke:#000000; stroke-linecap:round; stroke-linejoin:round; stroke-width:4; stroke-opacity:1; fill:none" points="258.824,183.811 277.721,183.811 "/>
<path clip-path="url(#clip880)" d="M186.879 2219.54 Q183.268 2219.54 181.44 2223.11 Q179.634 2226.65 179.634 2233.78 Q179.634 2240.89 181.44 2244.45 Q183.268 2247.99 186.879 2247.99 Q190.514 2247.99 192.319 2244.45 Q194.148 2240.89 194.148 2233.78 Q194.148 2226.65 192.319 2223.11 Q190.514 2219.54 186.879 2219.54 M186.879 2215.84 Q192.69 2215.84 195.745 2220.45 Q198.824 2225.03 198.824 2233.78 Q198.824 2242.51 195.745 2247.11 Q192.69 2251.7 186.879 2251.7 Q181.069 2251.7 177.991 2247.11 Q174.935 2242.51 174.935 2233.78 Q174.935 2225.03 177.991 2220.45 Q181.069 2215.84 186.879 2215.84 Z" fill="#000000" fill-rule="nonzero" fill-opacity="1" /><path clip-path="url(#clip880)" d="M178.916 1837.1 L186.555 1837.1 L186.555 1810.74 L178.245 1812.4 L178.245 1808.14 L186.509 1806.48 L191.185 1806.48 L191.185 1837.1 L198.824 1837.1 L198.824 1841.04 L178.916 1841.04 L178.916 1837.1 Z" fill="#000000" fill-rule="nonzero" fill-opacity="1" /><path clip-path="url(#clip880)" d="M182.504 1427.12 L198.824 1427.12 L198.824 1431.05 L176.879 1431.05 L176.879 1427.12 Q179.541 1424.36 184.125 1419.73 Q188.731 1415.08 189.912 1413.74 Q192.157 1411.21 193.037 1409.48 Q193.94 1407.72 193.94 1406.03 Q193.94 1403.27 191.995 1401.54 Q190.074 1399.8 186.972 1399.8 Q184.773 1399.8 182.319 1400.57 Q179.889 1401.33 177.111 1402.88 L177.111 1398.16 Q179.935 1397.02 182.389 1396.45 Q184.842 1395.87 186.879 1395.87 Q192.25 1395.87 195.444 1398.55 Q198.639 1401.24 198.639 1405.73 Q198.639 1407.86 197.828 1409.78 Q197.041 1411.68 194.935 1414.27 Q194.356 1414.94 191.254 1418.16 Q188.153 1421.35 182.504 1427.12 Z" fill="#000000" fill-rule="nonzero" fill-opacity="1" /><path clip-path="url(#clip880)" d="M191.694 1002.43 Q195.051 1003.15 196.926 1005.42 Q198.824 1007.69 198.824 1011.02 Q198.824 1016.13 195.305 1018.94 Q191.787 1021.74 185.305 1021.74 Q183.129 1021.74 180.815 1021.3 Q178.523 1020.88 176.069 1020.02 L176.069 1015.51 Q178.014 1016.64 180.328 1017.22 Q182.643 1017.8 185.166 1017.8 Q189.565 1017.8 191.856 1016.06 Q194.171 1014.33 194.171 1011.02 Q194.171 1007.96 192.018 1006.25 Q189.889 1004.51 186.069 1004.51 L182.041 1004.51 L182.041 1000.67 L186.254 1000.67 Q189.703 1000.67 191.532 999.306 Q193.361 997.917 193.361 995.324 Q193.361 992.662 191.463 991.25 Q189.588 989.815 186.069 989.815 Q184.148 989.815 181.949 990.232 Q179.75 990.648 177.111 991.528 L177.111 987.361 Q179.773 986.62 182.088 986.25 Q184.426 985.88 186.486 985.88 Q191.81 985.88 194.912 988.31 Q198.014 990.718 198.014 994.838 Q198.014 997.708 196.37 999.699 Q194.727 1001.67 191.694 1002.43 Z" fill="#000000" fill-rule="nonzero" fill-opacity="1" /><path clip-path="url(#clip880)" d="M189.24 580.592 L177.435 599.041 L189.24 599.041 L189.24 580.592 M188.014 576.518 L193.893 576.518 L193.893 599.041 L198.824 599.041 L198.824 602.93 L193.893 602.93 L193.893 611.078 L189.24 611.078 L189.24 602.93 L173.639 602.93 L173.639 598.416 L188.014 576.518 Z" fill="#000000" fill-rule="nonzero" fill-opacity="1" /><path clip-path="url(#clip880)" d="M177.921 166.531 L196.277 166.531 L196.277 170.466 L182.203 170.466 L182.203 178.938 Q183.222 178.591 184.241 178.429 Q185.259 178.244 186.278 178.244 Q192.065 178.244 195.444 181.415 Q198.824 184.587 198.824 190.003 Q198.824 195.582 195.352 198.684 Q191.879 201.762 185.56 201.762 Q183.384 201.762 181.116 201.392 Q178.87 201.022 176.463 200.281 L176.463 195.582 Q178.546 196.716 180.768 197.272 Q182.991 197.827 185.467 197.827 Q189.472 197.827 191.81 195.721 Q194.148 193.614 194.148 190.003 Q194.148 186.392 191.81 184.286 Q189.472 182.179 185.467 182.179 Q183.592 182.179 181.717 182.596 Q179.866 183.012 177.921 183.892 L177.921 166.531 Z" fill="#000000" fill-rule="nonzero" fill-opacity="1" /><path clip-path="url(#clip880)" d="M68.277 1320.08 L97.5997 1330.75 L97.5997 1309.37 L68.277 1320.08 M101.975 1337.89 L63.0947 1323.05 L63.0947 1317.08 L101.975 1302.27 L101.975 1337.89 Z" fill="#000000" fill-rule="nonzero" fill-opacity="1" /><path clip-path="url(#clip880)" d="M76.1676 1268.54 Q76.1676 1272.4 79.1884 1274.64 Q82.1832 1276.87 87.4175 1276.87 Q92.6518 1276.87 95.6727 1274.66 Q98.6674 1272.42 98.6674 1268.54 Q98.6674 1264.71 95.6466 1262.47 Q92.6258 1260.23 87.4175 1260.23 Q82.2352 1260.23 79.2144 1262.47 Q76.1676 1264.71 76.1676 1268.54 M72.1051 1268.54 Q72.1051 1262.29 76.1676 1258.72 Q80.23 1255.16 87.4175 1255.16 Q94.5789 1255.16 98.6674 1258.72 Q102.73 1262.29 102.73 1268.54 Q102.73 1274.82 98.6674 1278.39 Q94.5789 1281.93 87.4175 1281.93 Q80.23 1281.93 76.1676 1278.39 Q72.1051 1274.82 72.1051 1268.54 Z" fill="#000000" fill-rule="nonzero" fill-opacity="1" /><path clip-path="url(#clip880)" d="M87.4175 1226.28 Q82.1311 1226.28 79.1363 1228.46 Q76.1155 1230.63 76.1155 1234.43 Q76.1155 1238.23 79.1363 1240.42 Q82.1311 1242.58 87.4175 1242.58 Q92.7039 1242.58 95.7247 1240.42 Q98.7195 1238.23 98.7195 1234.43 Q98.7195 1230.63 95.7247 1228.46 Q92.7039 1226.28 87.4175 1226.28 M77.2353 1242.58 Q74.6311 1241.07 73.3811 1238.78 Q72.1051 1236.46 72.1051 1233.26 Q72.1051 1227.94 76.3238 1224.64 Q80.5425 1221.3 87.4175 1221.3 Q94.2925 1221.3 98.5112 1224.64 Q102.73 1227.94 102.73 1233.26 Q102.73 1236.46 101.48 1238.78 Q100.204 1241.07 97.5997 1242.58 L101.975 1242.58 L101.975 1247.4 L61.4541 1247.4 L61.4541 1242.58 L77.2353 1242.58 Z" fill="#000000" fill-rule="nonzero" fill-opacity="1" /><path clip-path="url(#clip880)" d="M72.8082 1213.36 L72.8082 1208.57 L102.496 1208.57 Q108.068 1208.57 110.568 1210.7 Q113.068 1212.81 113.068 1217.53 L113.068 1219.35 L109.006 1219.35 L109.006 1218.07 Q109.006 1215.34 107.73 1214.35 Q106.48 1213.36 102.496 1213.36 L72.8082 1213.36 M61.4541 1213.36 L61.4541 1208.57 L67.5218 1208.57 L67.5218 1213.36 L61.4541 1213.36 Z" fill="#000000" fill-rule="nonzero" fill-opacity="1" /><path clip-path="url(#clip880)" d="M86.1935 1173.59 L88.5373 1173.59 L88.5373 1195.63 Q93.4852 1195.31 96.0893 1192.66 Q98.6674 1189.97 98.6674 1185.21 Q98.6674 1182.45 97.9904 1179.87 Q97.3133 1177.27 95.9591 1174.71 L100.49 1174.71 Q101.584 1177.29 102.157 1180 Q102.73 1182.71 102.73 1185.5 Q102.73 1192.47 98.6674 1196.56 Q94.605 1200.63 87.6779 1200.63 Q80.5165 1200.63 76.3238 1196.77 Q72.1051 1192.89 72.1051 1186.33 Q72.1051 1180.44 75.9071 1177.03 Q79.6832 1173.59 86.1935 1173.59 M84.7873 1178.39 Q80.855 1178.44 78.5113 1180.6 Q76.1676 1182.73 76.1676 1186.28 Q76.1676 1190.29 78.4332 1192.71 Q80.6988 1195.1 84.8133 1195.47 L84.7873 1178.39 Z" fill="#000000" fill-rule="nonzero" fill-opacity="1" /><path clip-path="url(#clip880)" d="M73.928 1144.74 L78.4071 1144.74 Q77.2873 1146.77 76.7405 1148.83 Q76.1676 1150.86 76.1676 1152.94 Q76.1676 1157.6 79.1363 1160.18 Q82.079 1162.76 87.4175 1162.76 Q92.756 1162.76 95.7247 1160.18 Q98.6674 1157.6 98.6674 1152.94 Q98.6674 1150.86 98.1206 1148.83 Q97.5477 1146.77 96.4279 1144.74 L100.855 1144.74 Q101.792 1146.75 102.261 1148.91 Q102.73 1151.04 102.73 1153.46 Q102.73 1160.05 98.5893 1163.93 Q94.4487 1167.81 87.4175 1167.81 Q80.2821 1167.81 76.1936 1163.91 Q72.1051 1159.97 72.1051 1153.15 Q72.1051 1150.94 72.5738 1148.83 Q73.0165 1146.72 73.928 1144.74 Z" fill="#000000" fill-rule="nonzero" fill-opacity="1" /><path clip-path="url(#clip880)" d="M64.527 1131.67 L72.8082 1131.67 L72.8082 1121.8 L76.5321 1121.8 L76.5321 1131.67 L92.3654 1131.67 Q95.9331 1131.67 96.9487 1130.7 Q97.9643 1129.71 97.9643 1126.72 L97.9643 1121.8 L101.975 1121.8 L101.975 1126.72 Q101.975 1132.27 99.9174 1134.38 Q97.8341 1136.49 92.3654 1136.49 L76.5321 1136.49 L76.5321 1140 L72.8082 1140 L72.8082 1136.49 L64.527 1136.49 L64.527 1131.67 Z" fill="#000000" fill-rule="nonzero" fill-opacity="1" /><path clip-path="url(#clip880)" d="M72.8082 1115.5 L72.8082 1110.7 L101.975 1110.7 L101.975 1115.5 L72.8082 1115.5 M61.4541 1115.5 L61.4541 1110.7 L67.5218 1110.7 L67.5218 1115.5 L61.4541 1115.5 Z" fill="#000000" fill-rule="nonzero" fill-opacity="1" /><path clip-path="url(#clip880)" d="M72.8082 1104.12 L72.8082 1099.04 L97.2872 1089.92 L72.8082 1080.81 L72.8082 1075.73 L101.975 1086.67 L101.975 1093.18 L72.8082 1104.12 Z" fill="#000000" fill-rule="nonzero" fill-opacity="1" /><path clip-path="url(#clip880)" d="M86.1935 1044.17 L88.5373 1044.17 L88.5373 1066.2 Q93.4852 1065.89 96.0893 1063.23 Q98.6674 1060.55 98.6674 1055.78 Q98.6674 1053.02 97.9904 1050.44 Q97.3133 1047.84 95.9591 1045.29 L100.49 1045.29 Q101.584 1047.87 102.157 1050.57 Q102.73 1053.28 102.73 1056.07 Q102.73 1063.05 98.6674 1067.14 Q94.605 1071.2 87.6779 1071.2 Q80.5165 1071.2 76.3238 1067.34 Q72.1051 1063.46 72.1051 1056.9 Q72.1051 1051.02 75.9071 1047.61 Q79.6832 1044.17 86.1935 1044.17 M84.7873 1048.96 Q80.855 1049.01 78.5113 1051.17 Q76.1676 1053.31 76.1676 1056.85 Q76.1676 1060.86 78.4332 1063.28 Q80.6988 1065.68 84.8133 1066.04 L84.7873 1048.96 Z" fill="#000000" fill-rule="nonzero" fill-opacity="1" /><g clip-path="url(#clip880)">
<text style="fill:#000000; fill-opacity:1; font-family:Century Gothic,CenturyGothic,AppleGothic,sans-serif; font-size:58px; text-anchor:middle;" transform="rotate(0, 2082.17, 51.6)" x="2082.17" y="51.6">b | Practically identifiable</text>
</g>
<polyline clip-path="url(#clip881)" style="stroke:#595959; stroke-linecap:round; stroke-linejoin:round; stroke-width:6.8; stroke-opacity:0.95; fill:none" points="258.824,1350.78 545.901,1388.69 1265.82,1543.52 1985.73,1825.9 2705.65,2181.9 2945.62,2233.75 "/>
<polyline clip-path="url(#clip881)" style="stroke:#595959; stroke-linecap:round; stroke-linejoin:round; stroke-width:6.8; stroke-opacity:0.95; fill:none" points="2945.62,2233.75 3185.6,2158.89 3750.63,1087.11 3829.65,828.412 3878.67,659.042 3881.46,649.154 3905.51,247.619 "/>
<polyline clip-path="url(#clip881)" style="stroke:#3cb371; stroke-linecap:round; stroke-linejoin:round; stroke-width:7.2; stroke-opacity:1; fill:none" stroke-dasharray="29, 18" points="-3387.86,658.798 7552.2,658.798 "/>
<polyline clip-path="url(#clip881)" style="stroke:#000000; stroke-linecap:round; stroke-linejoin:round; stroke-width:4.8; stroke-opacity:1; fill:none" stroke-dasharray="2, 5" points="3878.67,4319.18 3878.67,-1937.12 "/>
<path clip-path="url(#clip881)" d="M2945.62 2215.75 L2927.62 2233.75 L2945.62 2251.75 L2963.62 2233.75 L2945.62 2215.75 Z" fill="#000000" fill-rule="evenodd" fill-opacity="1" stroke="none"/>
</svg>
