<?xml version="1.0" encoding="utf-8"?>
<svg xmlns="http://www.w3.org/2000/svg" xmlns:xlink="http://www.w3.org/1999/xlink" width="1000" height="620" viewBox="0 0 4000 2480">
<defs>
  <clipPath id="clip940">
    <rect x="0" y="0" width="4000" height="2480"/>
  </clipPath>
</defs>
<path clip-path="url(#clip940)" d="M0 2480 L4000 2480 L4000 0 L0 0  Z" fill="#ffffff" fill-rule="evenodd" fill-opacity="1"/>
<defs>
  <clipPath id="clip941">
    <rect x="258" y="148" width="3648" height="2086"/>
  </clipPath>
</defs>
<path clip-path="url(#clip940)" d="M258.824 2233.75 L3905.51 2233.75 L3905.51 148.313 L258.824 148.313  Z" fill="#ffffff" fill-rule="evenodd" fill-opacity="1"/>
<polyline clip-path="url(#clip941)" style="stroke:#000000; stroke-linecap:round; stroke-linejoin:round; stroke-width:2; stroke-opacity:0.15; fill:none" points="602.61,2233.75 602.61,148.313 "/>
<polyline clip-path="url(#clip941)" style="stroke:#000000; stroke-linecap:round; stroke-linejoin:round; stroke-width:2; stroke-opacity:0.15; fill:none" points="2281.97,2233.75 2281.97,148.313 "/>
<polyline clip-path="url(#clip941)" style="stroke:#000000; stroke-linecap:round; stroke-linejoin:round; stroke-width:2; stroke-opacity:0.15; fill:none" points="258.824,2233.75 3905.51,2233.75 "/>
<polyline clip-path="url(#clip941)" style="stroke:#000000; stroke-linecap:round; stroke-linejoin:round; stroke-width:2; stroke-opacity:0.15; fill:none" points="258.824,1702.47 3905.51,1702.47 "/>
<polyline clip-path="url(#clip941)" style="stroke:#000000; stroke-linecap:round; stroke-linejoin:round; stroke-width:2; stroke-opacity:0.15; fill:none" points="258.824,1171.2 3905.51,1171.2 "/>
<polyline clip-path="url(#clip941)" style="stroke:#000000; stroke-linecap:round; stroke-linejoin:round; stroke-width:2; stroke-opacity:0.15; fill:none" points="258.824,639.931 3905.51,639.931 "/>
<polyline clip-path="url(#clip940)" style="stroke:#000000; stroke-linecap:round; stroke-linejoin:round; stroke-width:4; stroke-opacity:1; fill:none" points="258.824,2233.75 3905.51,2233.75 "/>
<polyline clip-path="url(#clip940)" style="stroke:#000000; stroke-linecap:round; stroke-linejoin:round; stroke-width:4; stroke-opacity:1; fill:none" points="602.61,2233.75 602.61,2214.85 "/>
<polyline clip-path="url(#clip940)" style="stroke:#000000; stroke-linecap:round; stroke-linejoin:round; stroke-width:4; stroke-opacity:1; fill:none" points="2281.97,2233.75 2281.97,2214.85 "/>
<path clip-path="url(#clip940)" d="M533.927 2320.67 L541.566 2320.67 L541.566 2294.3 L533.255 2295.97 L533.255 2291.71 L541.519 2290.05 L546.195 2290.05 L546.195 2320.67 L553.834 2320.67 L553.834 2324.61 L533.927 2324.61 L533.927 2320.67 Z" fill="#000000" fill-rule="nonzero" fill-opacity="1" /><path clip-path="url(#clip940)" d="M573.278 2293.12 Q569.667 2293.12 567.839 2296.69 Q566.033 2300.23 566.033 2307.36 Q566.033 2314.47 567.839 2318.03 Q569.667 2321.57 573.278 2321.57 Q576.913 2321.57 578.718 2318.03 Q580.547 2314.47 580.547 2307.36 Q580.547 2300.23 578.718 2296.69 Q576.913 2293.12 573.278 2293.12 M573.278 2289.42 Q579.089 2289.42 582.144 2294.03 Q585.223 2298.61 585.223 2307.36 Q585.223 2316.09 582.144 2320.69 Q579.089 2325.28 573.278 2325.28 Q567.468 2325.28 564.39 2320.69 Q561.334 2316.09 561.334 2307.36 Q561.334 2298.61 564.39 2294.03 Q567.468 2289.42 573.278 2289.42 Z" fill="#000000" fill-rule="nonzero" fill-opacity="1" /><path clip-path="url(#clip940)" d="M585.223 2283.52 L609.334 2283.52 L609.334 2286.72 L585.223 2286.72 L585.223 2283.52 Z" fill="#000000" fill-rule="nonzero" fill-opacity="1" /><path clip-path="url(#clip940)" d="M625.659 2271.62 Q622.725 2271.62 621.24 2274.51 Q619.773 2277.39 619.773 2283.18 Q619.773 2288.96 621.24 2291.85 Q622.725 2294.73 625.659 2294.73 Q628.612 2294.73 630.079 2291.85 Q631.565 2288.96 631.565 2283.18 Q631.565 2277.39 630.079 2274.51 Q628.612 2271.62 625.659 2271.62 M625.659 2268.61 Q630.38 2268.61 632.863 2272.35 Q635.364 2276.07 635.364 2283.18 Q635.364 2290.27 632.863 2294.02 Q630.38 2297.74 625.659 2297.74 Q620.939 2297.74 618.437 2294.02 Q615.955 2290.27 615.955 2283.18 Q615.955 2276.07 618.437 2272.35 Q620.939 2268.61 625.659 2268.61 Z" fill="#000000" fill-rule="nonzero" fill-opacity="1" /><path clip-path="url(#clip940)" d="M642.041 2292.42 L646.009 2292.42 L646.009 2297.19 L642.041 2297.19 L642.041 2292.42 Z" fill="#000000" fill-rule="nonzero" fill-opacity="1" /><path clip-path="url(#clip940)" d="M654.398 2296.61 L654.398 2293.15 Q655.827 2293.83 657.294 2294.19 Q658.761 2294.54 660.172 2294.54 Q663.933 2294.54 665.908 2292.02 Q667.902 2289.48 668.184 2284.33 Q667.093 2285.95 665.419 2286.81 Q663.745 2287.68 661.714 2287.68 Q657.501 2287.68 655.037 2285.14 Q652.592 2282.58 652.592 2278.16 Q652.592 2273.84 655.15 2271.22 Q657.708 2268.61 661.958 2268.61 Q666.83 2268.61 669.388 2272.35 Q671.964 2276.07 671.964 2283.18 Q671.964 2289.82 668.804 2293.79 Q665.664 2297.74 660.341 2297.74 Q658.912 2297.74 657.445 2297.46 Q655.978 2297.18 654.398 2296.61 M661.958 2284.71 Q664.516 2284.71 666.002 2282.96 Q667.507 2281.21 667.507 2278.16 Q667.507 2275.13 666.002 2273.38 Q664.516 2271.62 661.958 2271.62 Q659.401 2271.62 657.896 2273.38 Q656.41 2275.13 656.41 2278.16 Q656.41 2281.21 657.896 2282.96 Q659.401 2284.71 661.958 2284.71 Z" fill="#000000" fill-rule="nonzero" fill-opacity="1" /><path clip-path="url(#clip940)" d="M2213.25 2320.67 L2220.89 2320.67 L2220.89 2294.3 L2212.58 2295.97 L2212.58 2291.71 L2220.84 2290.05 L2225.52 2290.05 L2225.52 2320.67 L2233.16 2320.67 L2233.16 2324.61 L2213.25 2324.61 L2213.25 2320.67 Z" fill="#000000" fill-rule="nonzero" fill-opacity="1" /><path clip-path="url(#clip940)" d="M2252.6 2293.12 Q2248.99 2293.12 2247.16 2296.69 Q2245.36 2300.23 2245.36 2307.36 Q2245.36 2314.47 2247.16 2318.03 Q2248.99 2321.57 2252.6 2321.57 Q2256.24 2321.57 2258.04 2318.03 Q2259.87 2314.47 2259.87 2307.36 Q2259.87 2300.23 2258.04 2296.69 Q2256.24 2293.12 2252.6 2293.12 M2252.6 2289.42 Q2258.41 2289.42 2261.47 2294.03 Q2264.55 2298.61 2264.55 2307.36 Q2264.55 2316.09 2261.47 2320.69 Q2258.41 2325.28 2252.6 2325.28 Q2246.79 2325.28 2243.71 2320.69 Q2240.66 2316.09 2240.66 2307.36 Q2240.66 2298.61 2243.71 2294.03 Q2246.79 2289.42 2252.6 2289.42 Z" fill="#000000" fill-rule="nonzero" fill-opacity="1" /><path clip-path="url(#clip940)" d="M2264.55 2283.52 L2288.66 2283.52 L2288.66 2286.72 L2264.55 2286.72 L2264.55 2283.52 Z" fill="#000000" fill-rule="nonzero" fill-opacity="1" /><path clip-path="url(#clip940)" d="M2304.98 2271.62 Q2302.05 2271.62 2300.56 2274.51 Q2299.1 2277.39 2299.1 2283.18 Q2299.1 2288.96 2300.56 2291.85 Q2302.05 2294.73 2304.98 2294.73 Q2307.94 2294.73 2309.4 2291.85 Q2310.89 2288.96 2310.89 2283.18 Q2310.89 2277.39 2309.4 2274.51 Q2307.94 2271.62 2304.98 2271.62 M2304.98 2268.61 Q2309.7 2268.61 2312.19 2272.35 Q2314.69 2276.07 2314.69 2283.18 Q2314.69 2290.27 2312.19 2294.02 Q2309.7 2297.74 2304.98 2297.74 Q2300.26 2297.74 2297.76 2294.02 Q2295.28 2290.27 2295.28 2283.18 Q2295.28 2276.07 2297.76 2272.35 Q2300.26 2268.61 2304.98 2268.61 Z" fill="#000000" fill-rule="nonzero" fill-opacity="1" /><path clip-path="url(#clip940)" d="M2321.37 2292.42 L2325.33 2292.42 L2325.33 2297.19 L2321.37 2297.19 L2321.37 2292.42 Z" fill="#000000" fill-rule="nonzero" fill-opacity="1" /><path clip-path="url(#clip940)" d="M2341.73 2283.86 Q2339.03 2283.86 2337.46 2285.31 Q2335.92 2286.76 2335.92 2289.3 Q2335.92 2291.83 2337.46 2293.28 Q2339.03 2294.73 2341.73 2294.73 Q2344.44 2294.73 2346 2293.28 Q2347.56 2291.82 2347.56 2289.3 Q2347.56 2286.76 2346 2285.31 Q2344.46 2283.86 2341.73 2283.86 M2337.93 2282.24 Q2335.49 2281.64 2334.12 2279.97 Q2332.76 2278.29 2332.76 2275.89 Q2332.76 2272.52 2335.15 2270.56 Q2337.56 2268.61 2341.73 2268.61 Q2345.93 2268.61 2348.32 2270.56 Q2350.71 2272.52 2350.71 2275.89 Q2350.71 2278.29 2349.33 2279.97 Q2347.98 2281.64 2345.55 2282.24 Q2348.3 2282.88 2349.82 2284.74 Q2351.36 2286.61 2351.36 2289.3 Q2351.36 2293.38 2348.86 2295.56 Q2346.38 2297.74 2341.73 2297.74 Q2337.09 2297.74 2334.59 2295.56 Q2332.1 2293.38 2332.1 2289.3 Q2332.1 2286.61 2333.65 2284.74 Q2335.19 2282.88 2337.93 2282.24 M2336.54 2276.24 Q2336.54 2278.42 2337.9 2279.65 Q2339.27 2280.87 2341.73 2280.87 Q2344.18 2280.87 2345.55 2279.65 Q2346.94 2278.42 2346.94 2276.24 Q2346.94 2274.06 2345.55 2272.84 Q2344.18 2271.62 2341.73 2271.62 Q2339.27 2271.62 2337.9 2272.84 Q2336.54 2274.06 2336.54 2276.24 Z" fill="#000000" fill-rule="nonzero" fill-opacity="1" /><path clip-path="url(#clip940)" d="M2053.21 2374.78 L2053.21 2380.33 Q2050.55 2377.85 2047.53 2376.63 Q2044.54 2375.41 2041.15 2375.41 Q2034.49 2375.41 2030.94 2379.49 Q2027.4 2383.56 2027.4 2391.27 Q2027.4 2398.95 2030.94 2403.04 Q2034.49 2407.1 2041.15 2407.1 Q2044.54 2407.1 2047.53 2405.87 Q2050.55 2404.65 2053.21 2402.18 L2053.21 2407.67 Q2050.45 2409.55 2047.35 2410.48 Q2044.28 2411.42 2040.84 2411.42 Q2032.01 2411.42 2026.93 2406.03 Q2021.86 2400.61 2021.86 2391.27 Q2021.86 2381.89 2026.93 2376.5 Q2032.01 2371.08 2040.84 2371.08 Q2044.33 2371.08 2047.4 2372.02 Q2050.5 2372.93 2053.21 2374.78 Z" fill="#000000" fill-rule="nonzero" fill-opacity="1" /><path clip-path="url(#clip940)" d="M2083.29 2419.52 L2083.29 2423.24 L2055.58 2423.24 L2055.58 2419.52 L2083.29 2419.52 Z" fill="#000000" fill-rule="nonzero" fill-opacity="1" /><path clip-path="url(#clip940)" d="M2108.78 2382.62 L2108.78 2387.1 Q2106.75 2385.98 2104.69 2385.43 Q2102.66 2384.86 2100.58 2384.86 Q2095.92 2384.86 2093.34 2387.83 Q2090.76 2390.77 2090.76 2396.11 Q2090.76 2401.45 2093.34 2404.42 Q2095.92 2407.36 2100.58 2407.36 Q2102.66 2407.36 2104.69 2406.81 Q2106.75 2406.24 2108.78 2405.12 L2108.78 2409.55 Q2106.78 2410.48 2104.62 2410.95 Q2102.48 2411.42 2100.06 2411.42 Q2093.47 2411.42 2089.59 2407.28 Q2085.71 2403.14 2085.71 2396.11 Q2085.71 2388.97 2089.62 2384.88 Q2093.55 2380.8 2100.37 2380.8 Q2102.58 2380.8 2104.69 2381.27 Q2106.8 2381.71 2108.78 2382.62 Z" fill="#000000" fill-rule="nonzero" fill-opacity="1" /><path clip-path="url(#clip940)" d="M2129.04 2375.25 Q2124.98 2375.25 2122.92 2379.26 Q2120.89 2383.24 2120.89 2391.27 Q2120.89 2399.26 2122.92 2403.27 Q2124.98 2407.25 2129.04 2407.25 Q2133.13 2407.25 2135.16 2403.27 Q2137.22 2399.26 2137.22 2391.27 Q2137.22 2383.24 2135.16 2379.26 Q2133.13 2375.25 2129.04 2375.25 M2129.04 2371.08 Q2135.58 2371.08 2139.02 2376.27 Q2142.48 2381.42 2142.48 2391.27 Q2142.48 2401.08 2139.02 2406.26 Q2135.58 2411.42 2129.04 2411.42 Q2122.51 2411.42 2119.04 2406.26 Q2115.61 2401.08 2115.61 2391.27 Q2115.61 2381.42 2119.04 2376.27 Q2122.51 2371.08 2129.04 2371.08 Z" fill="#000000" fill-rule="nonzero" fill-opacity="1" /><polyline clip-path="url(#clip940)" style="stroke:#000000; stroke-linecap:round; stroke-linejoin:round; stroke-width:4; stroke-opacity:1; fill:none" points="258.824,2233.75 258.824,148.313 "/>
<polyline clip-path="url(#clip940)" style="stroke:#000000; stroke-linecap:round; stroke-linejoin:round; stroke-width:4; stroke-opacity:1; fill:none" points="258.824,2233.75 277.721,2233.75 "/>
<polyline clip-path="url(#clip940)" style="stroke:#000000; stroke-linecap:round; stroke-linejoin:round; stroke-width:4; stroke-opacity:1; fill:none" points="258.824,1702.47 277.721,1702.47 "/>
<polyline clip-path="url(#clip940)" style="stroke:#000000; stroke-linecap:round; stroke-linejoin:round; stroke-width:4; stroke-opacity:1; fill:none" points="258.824,1171.2 277.721,1171.2 "/>
<polyline clip-path="url(#clip940)" style="stroke:#000000; stroke-linecap:round; stroke-linejoin:round; stroke-width:4; stroke-opacity:1; fill:none" points="258.824,639.931 277.721,639.931 "/>
<path clip-path="url(#clip940)" d="M186.879 2219.54 Q183.268 2219.54 181.44 2223.11 Q179.634 2226.65 179.634 2233.78 Q179.634 2240.89 181.44 2244.45 Q183.268 2247.99 186.879 2247.99 Q190.514 2247.99 192.319 2244.45 Q194.148 2240.89 194.148 2233.78 Q194.148 2226.65 192.319 2223.11 Q190.514 2219.54 186.879 2219.54 M186.879 2215.84 Q192.69 2215.84 195.745 2220.45 Q198.824 2225.03 198.824 2233.78 Q198.824 2242.51 195.745 2247.11 Q192.69 2251.7 186.879 2251.7 Q181.069 2251.7 177.991 2247.11 Q174.935 2242.51 174.935 2233.78 Q174.935 2225.03 177.991 2220.45 Q181.069 2215.84 186.879 2215.84 Z" fill="#000000" fill-rule="nonzero" fill-opacity="1" /><path clip-path="url(#clip940)" d="M182.504 1715.82 L198.824 1715.82 L198.824 1719.75 L176.879 1719.75 L176.879 1715.82 Q179.541 1713.06 184.125 1708.43 Q188.731 1703.78 189.912 1702.44 Q192.157 1699.92 193.037 1698.18 Q193.94 1696.42 193.94 1694.73 Q193.94 1691.98 191.995 1690.24 Q190.074 1688.5 186.972 1688.5 Q184.773 1688.5 182.319 1689.27 Q179.889 1690.03 177.111 1691.58 L177.111 1686.86 Q179.935 1685.73 182.389 1685.15 Q184.842 1684.57 186.879 1684.57 Q192.25 1684.57 195.444 1687.25 Q198.639 1689.94 198.639 1694.43 Q198.639 1696.56 197.828 1698.48 Q197.041 1700.38 194.935 1702.97 Q194.356 1703.64 191.254 1706.86 Q188.153 1710.05 182.504 1715.82 Z" fill="#000000" fill-rule="nonzero" fill-opacity="1" /><path clip-path="url(#clip940)" d="M189.24 1158 L177.435 1176.45 L189.24 1176.45 L189.24 1158 M188.014 1153.92 L193.893 1153.92 L193.893 1176.45 L198.824 1176.45 L198.824 1180.33 L193.893 1180.33 L193.893 1188.48 L189.24 1188.48 L189.24 1180.33 L173.639 1180.33 L173.639 1175.82 L188.014 1153.92 Z" fill="#000000" fill-rule="nonzero" fill-opacity="1" /><path clip-path="url(#clip940)" d="M187.296 638.067 Q184.148 638.067 182.296 640.22 Q180.467 642.373 180.467 646.123 Q180.467 649.85 182.296 652.026 Q184.148 654.178 187.296 654.178 Q190.444 654.178 192.273 652.026 Q194.125 649.85 194.125 646.123 Q194.125 642.373 192.273 640.22 Q190.444 638.067 187.296 638.067 M196.578 623.415 L196.578 627.674 Q194.819 626.841 193.014 626.401 Q191.231 625.961 189.472 625.961 Q184.842 625.961 182.389 629.086 Q179.958 632.211 179.611 638.53 Q180.977 636.516 183.037 635.452 Q185.097 634.364 187.574 634.364 Q192.782 634.364 195.791 637.535 Q198.824 640.683 198.824 646.123 Q198.824 651.447 195.676 654.664 Q192.528 657.882 187.296 657.882 Q181.301 657.882 178.129 653.299 Q174.958 648.692 174.958 639.965 Q174.958 631.771 178.847 626.91 Q182.736 622.026 189.287 622.026 Q191.046 622.026 192.828 622.373 Q194.634 622.72 196.578 623.415 Z" fill="#000000" fill-rule="nonzero" fill-opacity="1" /><path clip-path="url(#clip940)" d="M68.277 1320.08 L97.5997 1330.75 L97.5997 1309.37 L68.277 1320.08 M101.975 1337.89 L63.0947 1323.05 L63.0947 1317.08 L101.975 1302.27 L101.975 1337.89 Z" fill="#000000" fill-rule="nonzero" fill-opacity="1" /><path clip-path="url(#clip940)" d="M76.1676 1268.54 Q76.1676 1272.4 79.1884 1274.64 Q82.1832 1276.87 87.4175 1276.87 Q92.6518 1276.87 95.6727 1274.66 Q98.6674 1272.42 98.6674 1268.54 Q98.6674 1264.71 95.6466 1262.47 Q92.6258 1260.23 87.4175 1260.23 Q82.2352 1260.23 79.2144 1262.47 Q76.1676 1264.71 76.1676 1268.54 M72.1051 1268.54 Q72.1051 1262.29 76.1676 1258.72 Q80.23 1255.16 87.4175 1255.16 Q94.5789 1255.16 98.6674 1258.72 Q102.73 1262.29 102.73 1268.54 Q102.73 1274.82 98.6674 1278.39 Q94.5789 1281.93 87.4175 1281.93 Q80.23 1281.93 76.1676 1278.39 Q72.1051 1274.82 72.1051 1268.54 Z" fill="#000000" fill-rule="nonzero" fill-opacity="1" /><path clip-path="url(#clip940)" d="M87.4175 1226.28 Q82.1311 1226.28 79.1363 1228.46 Q76.1155 1230.63 76.1155 1234.43 Q76.1155 1238.23 79.1363 1240.42 Q82.1311 1242.58 87.4175 1242.58 Q92.7039 1242.58 95.7247 1240.42 Q98.7195 1238.23 98.7195 1234.43 Q98.7195 1230.63 95.7247 1228.46 Q92.7039 1226.28 87.4175 1226.28 M77.2353 1242.58 Q74.6311 1241.07 73.3811 1238.78 Q72.1051 1236.46 72.1051 1233.26 Q72.1051 1227.94 76.3238 1224.64 Q80.5425 1221.3 87.4175 1221.3 Q94.2925 1221.3 98.5112 1224.64 Q102.73 1227.94 102.73 1233.26 Q102.73 1236.46 101.48 1238.78 Q100.204 1241.07 97.5997 1242.58 L101.975 1242.58 L101.975 1247.4 L61.4541 1247.4 L61.4541 1242.58 L77.2353 1242.58 Z" fill="#000000" fill-rule="nonzero" fill-opacity="1" /><path clip-path="url(#clip940)" d="M72.8082 1213.36 L72.8082 1208.57 L102.496 1208.57 Q108.068 1208.57 110.568 1210.7 Q113.068 1212.81 113.068 1217.53 L113.068 1219.35 L109.006 1219.35 L109.006 1218.07 Q109.006 1215.34 107.73 1214.35 Q106.48 1213.36 102.496 1213.36 L72.8082 1213.36 M61.4541 1213.36 L61.4541 1208.57 L67.5218 1208.57 L67.5218 1213.36 L61.4541 1213.36 Z" fill="#000000" fill-rule="nonzero" fill-opacity="1" /><path clip-path="url(#clip940)" d="M86.1935 1173.59 L88.5373 1173.59 L88.5373 1195.63 Q93.4852 1195.31 96.0893 1192.66 Q98.6674 1189.97 98.6674 1185.21 Q98.6674 1182.45 97.9904 1179.87 Q97.3133 1177.27 95.9591 1174.71 L100.49 1174.71 Q101.584 1177.29 102.157 1180 Q102.73 1182.71 102.73 1185.5 Q102.73 1192.47 98.6674 1196.56 Q94.605 1200.63 87.6779 1200.63 Q80.5165 1200.63 76.3238 1196.77 Q72.1051 1192.89 72.1051 1186.33 Q72.1051 1180.44 75.9071 1177.03 Q79.6832 1173.59 86.1935 1173.59 M84.7873 1178.39 Q80.855 1178.44 78.5113 1180.6 Q76.1676 1182.73 76.1676 1186.28 Q76.1676 1190.29 78.4332 1192.71 Q80.6988 1195.1 84.8133 1195.47 L84.7873 1178.39 Z" fill="#000000" fill-rule="nonzero" fill-opacity="1" /><path clip-path="url(#clip940)" d="M73.928 1144.74 L78.4071 1144.74 Q77.2873 1146.77 76.7405 1148.83 Q76.1676 1150.86 76.1676 1152.94 Q76.1676 1157.6 79.1363 1160.18 Q82.079 1162.76 87.4175 1162.76 Q92.756 1162.76 95.7247 1160.18 Q98.6674 1157.6 98.6674 1152.94 Q98.6674 1150.86 98.1206 1148.83 Q97.5477 1146.77 96.4279 1144.74 L100.855 1144.74 Q101.792 1146.75 102.261 1148.91 Q102.73 1151.04 102.73 1153.46 Q102.73 1160.05 98.5893 1163.93 Q94.4487 1167.81 87.4175 1167.81 Q80.2821 1167.81 76.1936 1163.91 Q72.1051 1159.97 72.1051 1153.15 Q72.1051 1150.94 72.5738 1148.83 Q73.0165 1146.72 73.928 1144.74 Z" fill="#000000" fill-rule="nonzero" fill-opacity="1" /><path clip-path="url(#clip940)" d="M64.527 1131.67 L72.8082 1131.67 L72.8082 1121.8 L76.5321 1121.8 L76.5321 1131.67 L92.3654 1131.67 Q95.9331 1131.67 96.9487 1130.7 Q97.9643 1129.71 97.9643 1126.72 L97.9643 1121.8 L101.975 1121.8 L101.975 1126.72 Q101.975 1132.27 99.9174 1134.38 Q97.8341 1136.49 92.3654 1136.49 L76.5321 1136.49 L76.5321 1140 L72.8082 1140 L72.8082 1136.49 L64.527 1136.49 L64.527 1131.67 Z" fill="#000000" fill-rule="nonzero" fill-opacity="1" /><path clip-path="url(#clip940)" d="M72.8082 1115.5 L72.8082 1110.7 L101.975 1110.7 L101.975 1115.5 L72.8082 1115.5 M61.4541 1115.5 L61.4541 1110.7 L67.5218 1110.7 L67.5218 1115.5 L61.4541 1115.5 Z" fill="#000000" fill-rule="nonzero" fill-opacity="1" /><path clip-path="url(#clip940)" d="M72.8082 1104.12 L72.8082 1099.04 L97.2872 1089.92 L72.8082 1080.81 L72.8082 1075.73 L101.975 1086.67 L101.975 1093.18 L72.8082 1104.12 Z" fill="#000000" fill-rule="nonzero" fill-opacity="1" /><path clip-path="url(#clip940)" d="M86.1935 1044.17 L88.5373 1044.17 L88.5373 1066.2 Q93.4852 1065.89 96.0893 1063.23 Q98.6674 1060.55 98.6674 1055.78 Q98.6674 1053.02 97.9904 1050.44 Q97.3133 1047.84 95.9591 1045.29 L100.49 1045.29 Q101.584 1047.87 102.157 1050.57 Q102.73 1053.28 102.73 1056.07 Q102.73 1063.05 98.6674 1067.14 Q94.605 1071.2 87.6779 1071.2 Q80.5165 1071.2 76.3238 1067.34 Q72.1051 1063.46 72.1051 1056.9 Q72.1051 1051.02 75.9071 1047.61 Q79.6832 1044.17 86.1935 1044.17 M84.7873 1048.96 Q80.855 1049.01 78.5113 1051.17 Q76.1676 1053.31 76.1676 1056.85 Q76.1676 1060.86 78.4332 1063.28 Q80.6988 1065.68 84.8133 1066.04 L84.7873 1048.96 Z" fill="#000000" fill-rule="nonzero" fill-opacity="1" /><g clip-path="url(#clip940)">
<text style="fill:#000000; fill-opacity:1; font-family:Century Gothic,CenturyGothic,AppleGothic,sans-serif; font-size:58px; text-anchor:middle;" transform="rotate(0, 2082.17, 51.6)" x="2082.17" y="51.6">C_c0 | Identifiable</text>
</g>
<polyline clip-path="url(#clip941)" style="stroke:#595959; stroke-linecap:round; stroke-linejoin:round; stroke-width:6.8; stroke-opacity:0.95; fill:none" points="258.824,247.619 870.134,1211.96 888.218,1239.24 1145.37,1607.88 2082.17,2233.75 "/>
<polyline clip-path="url(#clip941)" style="stroke:#595959; stroke-linecap:round; stroke-linejoin:round; stroke-width:6.8; stroke-opacity:0.95; fill:none" points="2082.17,2233.75 3812.1,1222.57 3825.53,1213.53 3905.51,1158.21 "/>
<polyline clip-path="url(#clip941)" style="stroke:#3cb371; stroke-linecap:round; stroke-linejoin:round; stroke-width:7.2; stroke-opacity:1; fill:none" stroke-dasharray="29, 18" points="-3387.86,1213.32 7552.2,1213.32 "/>
<polyline clip-path="url(#clip941)" style="stroke:#000000; stroke-linecap:round; stroke-linejoin:round; stroke-width:4.8; stroke-opacity:1; fill:none" stroke-dasharray="2, 5" points="870.134,4319.18 870.134,-1937.12 "/>
<polyline clip-path="url(#clip941)" style="stroke:#000000; stroke-linecap:round; stroke-linejoin:round; stroke-width:4.8; stroke-opacity:1; fill:none" stroke-dasharray="2, 5" points="3825.53,4319.18 3825.53,-1937.12 "/>
<path clip-path="url(#clip941)" d="M2082.17 2215.75 L2064.17 2233.75 L2082.17 2251.75 L2100.17 2233.75 L2082.17 2215.75 Z" fill="#000000" fill-rule="evenodd" fill-opacity="1" stroke="none"/>
</svg>
