<?xml version="1.0" encoding="utf-8"?>
<svg xmlns="http://www.w3.org/2000/svg" xmlns:xlink="http://www.w3.org/1999/xlink" width="1000" height="620" viewBox="0 0 4000 2480">
<defs>
  <clipPath id="clip260">
    <rect x="0" y="0" width="4000" height="2480"/>
  </clipPath>
</defs>
<path clip-path="url(#clip260)" d="M0 2480 L4000 2480 L4000 0 L0 0  Z" fill="#ffffff" fill-rule="evenodd" fill-opacity="1"/>
<defs>
  <clipPath id="clip261">
    <rect x="258" y="148" width="3648" height="2086"/>
  </clipPath>
</defs>
<path clip-path="url(#clip260)" d="M258.824 2233.75 L3905.51 2233.75 L3905.51 148.313 L258.824 148.313  Z" fill="#ffffff" fill-rule="evenodd" fill-opacity="1"/>
<polyline clip-path="url(#clip261)" style="stroke:#000000; stroke-linecap:round; stroke-linejoin:round; stroke-width:2; stroke-opacity:0.15; fill:none" points="980.955,2233.75 980.955,148.313 "/>
<polyline clip-path="url(#clip261)" style="stroke:#000000; stroke-linecap:round; stroke-linejoin:round; stroke-width:2; stroke-opacity:0.15; fill:none" points="2064.54,2233.75 2064.54,148.313 "/>
<polyline clip-path="url(#clip261)" style="stroke:#000000; stroke-linecap:round; stroke-linejoin:round; stroke-width:2; stroke-opacity:0.15; fill:none" points="3148.12,2233.75 3148.12,148.313 "/>
<polyline clip-path="url(#clip261)" style="stroke:#000000; stroke-linecap:round; stroke-linejoin:round; stroke-width:2; stroke-opacity:0.15; fill:none" points="258.824,2233.75 3905.51,2233.75 "/>
<polyline clip-path="url(#clip261)" style="stroke:#000000; stroke-linecap:round; stroke-linejoin:round; stroke-width:2; stroke-opacity:0.15; fill:none" points="258.824,1912.82 3905.51,1912.82 "/>
<polyline clip-path="url(#clip261)" style="stroke:#000000; stroke-linecap:round; stroke-linejoin:round; stroke-width:2; stroke-opacity:0.15; fill:none" points="258.824,1591.89 3905.51,1591.89 "/>
<polyline clip-path="url(#clip261)" style="stroke:#000000; stroke-linecap:round; stroke-linejoin:round; stroke-width:2; stroke-opacity:0.15; fill:none" points="258.824,1270.97 3905.51,1270.97 "/>
<polyline clip-path="url(#clip261)" style="stroke:#000000; stroke-linecap:round; stroke-linejoin:round; stroke-width:2; stroke-opacity:0.15; fill:none" points="258.824,950.038 3905.51,950.038 "/>
<polyline clip-path="url(#clip261)" style="stroke:#000000; stroke-linecap:round; stroke-linejoin:round; stroke-width:2; stroke-opacity:0.15; fill:none" points="258.824,629.112 3905.51,629.112 "/>
<polyline clip-path="url(#clip261)" style="stroke:#000000; stroke-linecap:round; stroke-linejoin:round; stroke-width:2; stroke-opacity:0.15; fill:none" points="258.824,308.185 3905.51,308.185 "/>
<polyline clip-path="url(#clip260)" style="stroke:#000000; stroke-linecap:round; stroke-linejoin:round; stroke-width:4; stroke-opacity:1; fill:none" points="258.824,2233.75 3905.51,2233.75 "/>
<polyline clip-path="url(#clip260)" style="stroke:#000000; stroke-linecap:round; stroke-linejoin:round; stroke-width:4; stroke-opacity:1; fill:none" points="980.955,2233.75 980.955,2214.85 "/>
<polyline clip-path="url(#clip260)" style="stroke:#000000; stroke-linecap:round; stroke-linejoin:round; stroke-width:4; stroke-opacity:1; fill:none" points="2064.54,2233.75 2064.54,2214.85 "/>
<polyline clip-path="url(#clip260)" style="stroke:#000000; stroke-linecap:round; stroke-linejoin:round; stroke-width:4; stroke-opacity:1; fill:none" points="3148.12,2233.75 3148.12,2214.85 "/>
<path clip-path="url(#clip260)" d="M945.938 2320.67 L953.577 2320.67 L953.577 2294.3 L945.266 2295.97 L945.266 2291.71 L953.53 2290.05 L958.206 2290.05 L958.206 2320.67 L965.845 2320.67 L965.845 2324.61 L945.938 2324.61 L945.938 2320.67 Z" fill="#000000" fill-rule="nonzero" fill-opacity="1" /><path clip-path="url(#clip260)" d="M985.289 2293.12 Q981.678 2293.12 979.85 2296.69 Q978.044 2300.23 978.044 2307.36 Q978.044 2314.47 979.85 2318.03 Q981.678 2321.57 985.289 2321.57 Q988.924 2321.57 990.729 2318.03 Q992.558 2314.47 992.558 2307.36 Q992.558 2300.23 990.729 2296.69 Q988.924 2293.12 985.289 2293.12 M985.289 2289.42 Q991.1 2289.42 994.155 2294.03 Q997.234 2298.61 997.234 2307.36 Q997.234 2316.09 994.155 2320.69 Q991.1 2325.28 985.289 2325.28 Q979.479 2325.28 976.401 2320.69 Q973.345 2316.09 973.345 2307.36 Q973.345 2298.61 976.401 2294.03 Q979.479 2289.42 985.289 2289.42 Z" fill="#000000" fill-rule="nonzero" fill-opacity="1" /><path clip-path="url(#clip260)" d="M1006.94 2271.62 Q1004 2271.62 1002.52 2274.51 Q1001.05 2277.39 1001.05 2283.18 Q1001.05 2288.96 1002.52 2291.85 Q1004 2294.73 1006.94 2294.73 Q1009.89 2294.73 1011.36 2291.85 Q1012.84 2288.96 1012.84 2283.18 Q1012.84 2277.39 1011.36 2274.51 Q1009.89 2271.62 1006.94 2271.62 M1006.94 2268.61 Q1011.66 2268.61 1014.14 2272.35 Q1016.64 2276.07 1016.64 2283.18 Q1016.64 2290.27 1014.14 2294.02 Q1011.66 2297.74 1006.94 2297.74 Q1002.22 2297.74 999.716 2294.02 Q997.234 2290.27 997.234 2283.18 Q997.234 2276.07 999.716 2272.35 Q1002.22 2268.61 1006.94 2268.61 Z" fill="#000000" fill-rule="nonzero" fill-opacity="1" /><path clip-path="url(#clip260)" d="M2030.87 2320.67 L2038.5 2320.67 L2038.5 2294.3 L2030.19 2295.97 L2030.19 2291.71 L2038.46 2290.05 L2043.13 2290.05 L2043.13 2320.67 L2050.77 2320.67 L2050.77 2324.61 L2030.87 2324.61 L2030.87 2320.67 Z" fill="#000000" fill-rule="nonzero" fill-opacity="1" /><path clip-path="url(#clip260)" d="M2070.22 2293.12 Q2066.61 2293.12 2064.78 2296.69 Q2062.97 2300.23 2062.97 2307.36 Q2062.97 2314.47 2064.78 2318.03 Q2066.61 2321.57 2070.22 2321.57 Q2073.85 2321.57 2075.66 2318.03 Q2077.49 2314.47 2077.49 2307.36 Q2077.49 2300.23 2075.66 2296.69 Q2073.85 2293.12 2070.22 2293.12 M2070.22 2289.42 Q2076.03 2289.42 2079.08 2294.03 Q2082.16 2298.61 2082.16 2307.36 Q2082.16 2316.09 2079.08 2320.69 Q2076.03 2325.28 2070.22 2325.28 Q2064.41 2325.28 2061.33 2320.69 Q2058.27 2316.09 2058.27 2307.36 Q2058.27 2298.61 2061.33 2294.03 Q2064.41 2289.42 2070.22 2289.42 Z" fill="#000000" fill-rule="nonzero" fill-opacity="1" /><path clip-path="url(#clip260)" d="M2082.71 2294 L2088.91 2294 L2088.91 2272.58 L2082.16 2273.93 L2082.16 2270.47 L2088.88 2269.11 L2092.67 2269.11 L2092.67 2294 L2098.88 2294 L2098.88 2297.19 L2082.71 2297.19 L2082.71 2294 Z" fill="#000000" fill-rule="nonzero" fill-opacity="1" /><path clip-path="url(#clip260)" d="M3113.89 2320.67 L3121.53 2320.67 L3121.53 2294.3 L3113.22 2295.97 L3113.22 2291.71 L3121.49 2290.05 L3126.16 2290.05 L3126.16 2320.67 L3133.8 2320.67 L3133.8 2324.61 L3113.89 2324.61 L3113.89 2320.67 Z" fill="#000000" fill-rule="nonzero" fill-opacity="1" /><path clip-path="url(#clip260)" d="M3153.24 2293.12 Q3149.63 2293.12 3147.8 2296.69 Q3146 2300.23 3146 2307.36 Q3146 2314.47 3147.8 2318.03 Q3149.63 2321.57 3153.24 2321.57 Q3156.88 2321.57 3158.68 2318.03 Q3160.51 2314.47 3160.51 2307.36 Q3160.51 2300.23 3158.68 2296.69 Q3156.88 2293.12 3153.24 2293.12 M3153.24 2289.42 Q3159.05 2289.42 3162.11 2294.03 Q3165.19 2298.61 3165.19 2307.36 Q3165.19 2316.09 3162.11 2320.69 Q3159.05 2325.28 3153.24 2325.28 Q3147.43 2325.28 3144.36 2320.69 Q3141.3 2316.09 3141.3 2307.36 Q3141.3 2298.61 3144.36 2294.03 Q3147.43 2289.42 3153.24 2289.42 Z" fill="#000000" fill-rule="nonzero" fill-opacity="1" /><path clip-path="url(#clip260)" d="M3169.76 2294 L3183.02 2294 L3183.02 2297.19 L3165.19 2297.19 L3165.19 2294 Q3167.35 2291.76 3171.08 2288 Q3174.82 2284.22 3175.78 2283.13 Q3177.6 2281.08 3178.32 2279.67 Q3179.05 2278.24 3179.05 2276.86 Q3179.05 2274.63 3177.47 2273.21 Q3175.91 2271.8 3173.39 2271.8 Q3171.6 2271.8 3169.61 2272.42 Q3167.63 2273.05 3165.38 2274.31 L3165.38 2270.47 Q3167.67 2269.55 3169.67 2269.08 Q3171.66 2268.61 3173.31 2268.61 Q3177.68 2268.61 3180.27 2270.79 Q3182.87 2272.97 3182.87 2276.62 Q3182.87 2278.35 3182.21 2279.91 Q3181.57 2281.45 3179.86 2283.56 Q3179.39 2284.1 3176.87 2286.72 Q3174.35 2289.31 3169.76 2294 Z" fill="#000000" fill-rule="nonzero" fill-opacity="1" /><path clip-path="url(#clip260)" d="M2053.98 2374.78 L2053.98 2380.33 Q2051.32 2377.85 2048.3 2376.63 Q2045.31 2375.41 2041.92 2375.41 Q2035.25 2375.41 2031.71 2379.49 Q2028.17 2383.56 2028.17 2391.27 Q2028.17 2398.95 2031.71 2403.04 Q2035.25 2407.1 2041.92 2407.1 Q2045.31 2407.1 2048.3 2405.87 Q2051.32 2404.65 2053.98 2402.18 L2053.98 2407.67 Q2051.22 2409.55 2048.12 2410.48 Q2045.05 2411.42 2041.61 2411.42 Q2032.78 2411.42 2027.7 2406.03 Q2022.62 2400.61 2022.62 2391.27 Q2022.62 2381.89 2027.7 2376.5 Q2032.78 2371.08 2041.61 2371.08 Q2045.1 2371.08 2048.17 2372.02 Q2051.27 2372.93 2053.98 2374.78 Z" fill="#000000" fill-rule="nonzero" fill-opacity="1" /><path clip-path="url(#clip260)" d="M2084.06 2419.52 L2084.06 2423.24 L2056.35 2423.24 L2056.35 2419.52 L2084.06 2419.52 Z" fill="#000000" fill-rule="nonzero" fill-opacity="1" /><path clip-path="url(#clip260)" d="M2107.15 2382.36 L2107.15 2386.89 Q2105.12 2385.85 2102.94 2385.33 Q2100.75 2384.81 2098.4 2384.81 Q2094.84 2384.81 2093.04 2385.9 Q2091.27 2386.99 2091.27 2389.18 Q2091.27 2390.85 2092.55 2391.81 Q2093.82 2392.75 2097.68 2393.61 L2099.32 2393.97 Q2104.42 2395.07 2106.56 2397.07 Q2108.72 2399.05 2108.72 2402.62 Q2108.72 2406.68 2105.49 2409.05 Q2102.28 2411.42 2096.66 2411.42 Q2094.32 2411.42 2091.76 2410.95 Q2089.24 2410.51 2086.43 2409.6 L2086.43 2404.65 Q2089.08 2406.03 2091.66 2406.73 Q2094.24 2407.41 2096.76 2407.41 Q2100.15 2407.41 2101.97 2406.26 Q2103.8 2405.09 2103.8 2402.98 Q2103.8 2401.03 2102.47 2399.99 Q2101.17 2398.95 2096.71 2397.98 L2095.05 2397.59 Q2090.59 2396.66 2088.61 2394.73 Q2086.63 2392.78 2086.63 2389.39 Q2086.63 2385.28 2089.55 2383.04 Q2092.47 2380.8 2097.83 2380.8 Q2100.49 2380.8 2102.83 2381.19 Q2105.18 2381.58 2107.15 2382.36 Z" fill="#000000" fill-rule="nonzero" fill-opacity="1" /><path clip-path="url(#clip260)" d="M2128.27 2375.25 Q2124.21 2375.25 2122.15 2379.26 Q2120.12 2383.24 2120.12 2391.27 Q2120.12 2399.26 2122.15 2403.27 Q2124.21 2407.25 2128.27 2407.25 Q2132.36 2407.25 2134.39 2403.27 Q2136.45 2399.26 2136.45 2391.27 Q2136.45 2383.24 2134.39 2379.26 Q2132.36 2375.25 2128.27 2375.25 M2128.27 2371.08 Q2134.81 2371.08 2138.25 2376.27 Q2141.71 2381.42 2141.71 2391.27 Q2141.71 2401.08 2138.25 2406.26 Q2134.81 2411.42 2128.27 2411.42 Q2121.74 2411.42 2118.27 2406.26 Q2114.84 2401.08 2114.84 2391.27 Q2114.84 2381.42 2118.27 2376.27 Q2121.74 2371.08 2128.27 2371.08 Z" fill="#000000" fill-rule="nonzero" fill-opacity="1" /><polyline clip-path="url(#clip260)" style="stroke:#000000; stroke-linecap:round; stroke-linejoin:round; stroke-width:4; stroke-opacity:1; fill:none" points="258.824,2233.75 258.824,148.313 "/>
<polyline clip-path="url(#clip260)" style="stroke:#000000; stroke-linecap:round; stroke-linejoin:round; stroke-width:4; stroke-opacity:1; fill:none" points="258.824,2233.75 277.721,2233.75 "/>
<polyline clip-path="url(#clip260)" style="stroke:#000000; stroke-linecap:round; stroke-linejoin:round; stroke-width:4; stroke-opacity:1; fill:none" points="258.824,1912.82 277.721,1912.82 "/>
<polyline clip-path="url(#clip260)" style="stroke:#000000; stroke-linecap:round; stroke-linejoin:round; stroke-width:4; stroke-opacity:1; fill:none" points="258.824,1591.89 277.721,1591.89 "/>
<polyline clip-path="url(#clip260)" style="stroke:#000000; stroke-linecap:round; stroke-linejoin:round; stroke-width:4; stroke-opacity:1; fill:none" points="258.824,1270.97 277.721,1270.97 "/>
<polyline clip-path="url(#clip260)" style="stroke:#000000; stroke-linecap:round; stroke-linejoin:round; stroke-width:4; stroke-opacity:1; fill:none" points="258.824,950.038 277.721,950.038 "/>
<polyline clip-path="url(#clip260)" style="stroke:#000000; stroke-linecap:round; stroke-linejoin:round; stroke-width:4; stroke-opacity:1; fill:none" points="258.824,629.112 277.721,629.112 "/>
<polyline clip-path="url(#clip260)" style="stroke:#000000; stroke-linecap:round; stroke-linejoin:round; stroke-width:4; stroke-opacity:1; fill:none" points="258.824,308.185 277.721,308.185 "/>
<path clip-path="url(#clip260)" d="M186.879 2219.54 Q183.268 2219.54 181.44 2223.11 Q179.634 2226.65 179.634 2233.78 Q179.634 2240.89 181.44 2244.45 Q183.268 2247.99 186.879 2247.99 Q190.514 2247.99 192.319 2244.45 Q194.148 2240.89 194.148 2233.78 Q194.148 2226.65 192.319 2223.11 Q190.514 2219.54 186.879 2219.54 M186.879 2215.84 Q192.69 2215.84 195.745 2220.45 Q198.824 2225.03 198.824 2233.78 Q198.824 2242.51 195.745 2247.11 Q192.69 2251.7 186.879 2251.7 Q181.069 2251.7 177.991 2247.11 Q174.935 2242.51 174.935 2233.78 Q174.935 2225.03 177.991 2220.45 Q181.069 2215.84 186.879 2215.84 Z" fill="#000000" fill-rule="nonzero" fill-opacity="1" /><path clip-path="url(#clip260)" d="M178.916 1926.16 L186.555 1926.16 L186.555 1899.8 L178.245 1901.46 L178.245 1897.21 L186.509 1895.54 L191.185 1895.54 L191.185 1926.16 L198.824 1926.16 L198.824 1930.1 L178.916 1930.1 L178.916 1926.16 Z" fill="#000000" fill-rule="nonzero" fill-opacity="1" /><path clip-path="url(#clip260)" d="M182.504 1605.24 L198.824 1605.24 L198.824 1609.17 L176.879 1609.17 L176.879 1605.24 Q179.541 1602.48 184.125 1597.85 Q188.731 1593.2 189.912 1591.86 Q192.157 1589.33 193.037 1587.6 Q193.94 1585.84 193.94 1584.15 Q193.94 1581.39 191.995 1579.66 Q190.074 1577.92 186.972 1577.92 Q184.773 1577.92 182.319 1578.69 Q179.889 1579.45 177.111 1581 L177.111 1576.28 Q179.935 1575.14 182.389 1574.57 Q184.842 1573.99 186.879 1573.99 Q192.25 1573.99 195.444 1576.67 Q198.639 1579.36 198.639 1583.85 Q198.639 1585.98 197.828 1587.9 Q197.041 1589.8 194.935 1592.39 Q194.356 1593.06 191.254 1596.28 Q188.153 1599.47 182.504 1605.24 Z" fill="#000000" fill-rule="nonzero" fill-opacity="1" /><path clip-path="url(#clip260)" d="M191.694 1269.61 Q195.051 1270.33 196.926 1272.6 Q198.824 1274.87 198.824 1278.2 Q198.824 1283.31 195.305 1286.12 Q191.787 1288.92 185.305 1288.92 Q183.129 1288.92 180.815 1288.48 Q178.523 1288.06 176.069 1287.2 L176.069 1282.69 Q178.014 1283.82 180.328 1284.4 Q182.643 1284.98 185.166 1284.98 Q189.565 1284.98 191.856 1283.25 Q194.171 1281.51 194.171 1278.2 Q194.171 1275.14 192.018 1273.43 Q189.889 1271.69 186.069 1271.69 L182.041 1271.69 L182.041 1267.85 L186.254 1267.85 Q189.703 1267.85 191.532 1266.49 Q193.361 1265.1 193.361 1262.5 Q193.361 1259.84 191.463 1258.43 Q189.588 1257 186.069 1257 Q184.148 1257 181.949 1257.41 Q179.75 1257.83 177.111 1258.71 L177.111 1254.54 Q179.773 1253.8 182.088 1253.43 Q184.426 1253.06 186.486 1253.06 Q191.81 1253.06 194.912 1255.49 Q198.014 1257.9 198.014 1262.02 Q198.014 1264.89 196.37 1266.88 Q194.727 1268.85 191.694 1269.61 Z" fill="#000000" fill-rule="nonzero" fill-opacity="1" /><path clip-path="url(#clip260)" d="M189.24 936.832 L177.435 955.281 L189.24 955.281 L189.24 936.832 M188.014 932.758 L193.893 932.758 L193.893 955.281 L198.824 955.281 L198.824 959.17 L193.893 959.17 L193.893 967.318 L189.24 967.318 L189.24 959.17 L173.639 959.17 L173.639 954.656 L188.014 932.758 Z" fill="#000000" fill-rule="nonzero" fill-opacity="1" /><path clip-path="url(#clip260)" d="M177.921 611.832 L196.277 611.832 L196.277 615.767 L182.203 615.767 L182.203 624.239 Q183.222 623.892 184.241 623.73 Q185.259 623.545 186.278 623.545 Q192.065 623.545 195.444 626.716 Q198.824 629.887 198.824 635.304 Q198.824 640.882 195.352 643.984 Q191.879 647.063 185.56 647.063 Q183.384 647.063 181.116 646.693 Q178.87 646.322 176.463 645.582 L176.463 640.882 Q178.546 642.017 180.768 642.572 Q182.991 643.128 185.467 643.128 Q189.472 643.128 191.81 641.021 Q194.148 638.915 194.148 635.304 Q194.148 631.693 191.81 629.586 Q189.472 627.48 185.467 627.48 Q183.592 627.48 181.717 627.896 Q179.866 628.313 177.921 629.193 L177.921 611.832 Z" fill="#000000" fill-rule="nonzero" fill-opacity="1" /><path clip-path="url(#clip260)" d="M187.296 306.322 Q184.148 306.322 182.296 308.474 Q180.467 310.627 180.467 314.377 Q180.467 318.104 182.296 320.28 Q184.148 322.433 187.296 322.433 Q190.444 322.433 192.273 320.28 Q194.125 318.104 194.125 314.377 Q194.125 310.627 192.273 308.474 Q190.444 306.322 187.296 306.322 M196.578 291.669 L196.578 295.928 Q194.819 295.095 193.014 294.655 Q191.231 294.215 189.472 294.215 Q184.842 294.215 182.389 297.34 Q179.958 300.465 179.611 306.785 Q180.977 304.771 183.037 303.706 Q185.097 302.618 187.574 302.618 Q192.782 302.618 195.791 305.789 Q198.824 308.937 198.824 314.377 Q198.824 319.701 195.676 322.919 Q192.528 326.136 187.296 326.136 Q181.301 326.136 178.129 321.553 Q174.958 316.947 174.958 308.22 Q174.958 300.025 178.847 295.164 Q182.736 290.28 189.287 290.28 Q191.046 290.28 192.828 290.627 Q194.634 290.974 196.578 291.669 Z" fill="#000000" fill-rule="nonzero" fill-opacity="1" /><path clip-path="url(#clip260)" d="M68.277 1320.08 L97.5997 1330.75 L97.5997 1309.37 L68.277 1320.08 M101.975 1337.89 L63.0947 1323.05 L63.0947 1317.08 L101.975 1302.27 L101.975 1337.89 Z" fill="#000000" fill-rule="nonzero" fill-opacity="1" /><path clip-path="url(#clip260)" d="M76.1676 1268.54 Q76.1676 1272.4 79.1884 1274.64 Q82.1832 1276.87 87.4175 1276.87 Q92.6518 1276.87 95.6727 1274.66 Q98.6674 1272.42 98.6674 1268.54 Q98.6674 1264.71 95.6466 1262.47 Q92.6258 1260.23 87.4175 1260.23 Q82.2352 1260.23 79.2144 1262.47 Q76.1676 1264.71 76.1676 1268.54 M72.1051 1268.54 Q72.1051 1262.29 76.1676 1258.72 Q80.23 1255.16 87.4175 1255.16 Q94.5789 1255.16 98.6674 1258.72 Q102.73 1262.29 102.73 1268.54 Q102.73 1274.82 98.6674 1278.39 Q94.5789 1281.93 87.4175 1281.93 Q80.23 1281.93 76.1676 1278.39 Q72.1051 1274.82 72.1051 1268.54 Z" fill="#000000" fill-rule="nonzero" fill-opacity="1" /><path clip-path="url(#clip260)" d="M87.4175 1226.28 Q82.1311 1226.28 79.1363 1228.46 Q76.1155 1230.63 76.1155 1234.43 Q76.1155 1238.23 79.1363 1240.42 Q82.1311 1242.58 87.4175 1242.58 Q92.7039 1242.58 95.7247 1240.42 Q98.7195 1238.23 98.7195 1234.43 Q98.7195 1230.63 95.7247 1228.46 Q92.7039 1226.28 87.4175 1226.28 M77.2353 1242.58 Q74.6311 1241.07 73.3811 1238.78 Q72.1051 1236.46 72.1051 1233.26 Q72.1051 1227.94 76.3238 1224.64 Q80.5425 1221.3 87.4175 1221.3 Q94.2925 1221.3 98.5112 1224.64 Q102.73 1227.94 102.73 1233.26 Q102.73 1236.46 101.48 1238.78 Q100.204 1241.07 97.5997 1242.58 L101.975 1242.58 L101.975 1247.4 L61.4541 1247.4 L61.4541 1242.58 L77.2353 1242.58 Z" fill="#000000" fill-rule="nonzero" fill-opacity="1" /><path clip-path="url(#clip260)" d="M72.8082 1213.36 L72.8082 1208.57 L102.496 1208.57 Q108.068 1208.57 110.568 1210.7 Q113.068 1212.81 113.068 1217.53 L113.068 1219.35 L109.006 1219.35 L109.006 1218.07 Q109.006 1215.34 107.73 1214.35 Q106.48 1213.36 102.496 1213.36 L72.8082 1213.36 M61.4541 1213.36 L61.4541 1208.57 L67.5218 1208.57 L67.5218 1213.36 L61.4541 1213.36 Z" fill="#000000" fill-rule="nonzero" fill-opacity="1" /><path clip-path="url(#clip260)" d="M86.1935 1173.59 L88.5373 1173.59 L88.5373 1195.63 Q93.4852 1195.31 96.0893 1192.66 Q98.6674 1189.97 98.6674 1185.21 Q98.6674 1182.45 97.9904 1179.87 Q97.3133 1177.27 95.9591 1174.71 L100.49 1174.71 Q101.584 1177.29 102.157 1180 Q102.73 1182.71 102.73 1185.5 Q102.73 1192.47 98.6674 1196.56 Q94.605 1200.63 87.6779 1200.63 Q80.5165 1200.63 76.3238 1196.77 Q72.1051 1192.89 72.1051 1186.33 Q72.1051 1180.44 75.9071 1177.03 Q79.6832 1173.59 86.1935 1173.59 M84.7873 1178.39 Q80.855 1178.44 78.5113 1180.6 Q76.1676 1182.73 76.1676 1186.28 Q76.1676 1190.29 78.4332 1192.71 Q80.6988 1195.1 84.8133 1195.47 L84.7873 1178.39 Z" fill="#000000" fill-rule="nonzero" fill-opacity="1" /><path clip-path="url(#clip260)" d="M73.928 1144.74 L78.4071 1144.74 Q77.2873 1146.77 76.7405 1148.83 Q76.1676 1150.86 76.1676 1152.94 Q76.1676 1157.6 79.1363 1160.18 Q82.079 1162.76 87.4175 1162.76 Q92.756 1162.76 95.7247 1160.18 Q98.6674 1157.6 98.6674 1152.94 Q98.6674 1150.86 98.1206 1148.83 Q97.5477 1146.77 96.4279 1144.74 L100.855 1144.74 Q101.792 1146.75 102.261 1148.91 Q102.73 1151.04 102.73 1153.46 Q102.73 1160.05 98.5893 1163.93 Q94.4487 1167.81 87.4175 1167.81 Q80.2821 1167.81 76.1936 1163.91 Q72.1051 1159.97 72.1051 1153.15 Q72.1051 1150.94 72.5738 1148.83 Q73.0165 1146.72 73.928 1144.74 Z" fill="#000000" fill-rule="nonzero" fill-opacity="1" /><path clip-path="url(#clip260)" d="M64.527 1131.67 L72.8082 1131.67 L72.8082 1121.8 L76.5321 1121.8 L76.5321 1131.67 L92.3654 1131.67 Q95.9331 1131.67 96.9487 1130.7 Q97.9643 1129.71 97.9643 1126.72 L97.9643 1121.8 L101.975 1121.8 L101.975 1126.72 Q101.975 1132.27 99.9174 1134.38 Q97.8341 1136.49 92.3654 1136.49 L76.5321 1136.49 L76.5321 1140 L72.8082 1140 L72.8082 1136.49 L64.527 1136.49 L64.527 1131.67 Z" fill="#000000" fill-rule="nonzero" fill-opacity="1" /><path clip-path="url(#clip260)" d="M72.8082 1115.5 L72.8082 1110.7 L101.975 1110.7 L101.975 1115.5 L72.8082 1115.5 M61.4541 1115.5 L61.4541 1110.7 L67.5218 1110.7 L67.5218 1115.5 L61.4541 1115.5 Z" fill="#000000" fill-rule="nonzero" fill-opacity="1" /><path clip-path="url(#clip260)" d="M72.8082 1104.12 L72.8082 1099.04 L97.2872 1089.92 L72.8082 1080.81 L72.8082 1075.73 L101.975 1086.67 L101.975 1093.18 L72.8082 1104.12 Z" fill="#000000" fill-rule="nonzero" fill-opacity="1" /><path clip-path="url(#clip260)" d="M86.1935 1044.17 L88.5373 1044.17 L88.5373 1066.2 Q93.4852 1065.89 96.0893 1063.23 Q98.6674 1060.55 98.6674 1055.78 Q98.6674 1053.02 97.9904 1050.44 Q97.3133 1047.84 95.9591 1045.29 L100.49 1045.29 Q101.584 1047.87 102.157 1050.57 Q102.73 1053.28 102.73 1056.07 Q102.73 1063.05 98.6674 1067.14 Q94.605 1071.2 87.6779 1071.2 Q80.5165 1071.2 76.3238 1067.34 Q72.1051 1063.46 72.1051 1056.9 Q72.1051 1051.02 75.9071 1047.61 Q79.6832 1044.17 86.1935 1044.17 M84.7873 1048.96 Q80.855 1049.01 78.5113 1051.17 Q76.1676 1053.31 76.1676 1056.85 Q76.1676 1060.86 78.4332 1063.28 Q80.6988 1065.68 84.8133 1066.04 L84.7873 1048.96 Z" fill="#000000" fill-rule="nonzero" fill-opacity="1" /><g clip-path="url(#clip260)">
<text style="fill:#000000; fill-opacity:1; font-family:Century Gothic,CenturyGothic,AppleGothic,sans-serif; font-size:58px; text-anchor:middle;" transform="rotate(0, 2082.17, 51.6)" x="2082.17" y="51.6">C_s0 | Practically identifiable</text>
</g>
<polyline clip-path="url(#clip261)" style="stroke:#595959; stroke-linecap:round; stroke-linejoin:round; stroke-width:6.8; stroke-opacity:0.95; fill:none" points="258.824,1663.72 611.769,1703.49 964.715,1767.33 1317.66,1872.19 1669.89,963.07 1670.61,1966.85 1688.91,1969.78 2022.84,1665.38 2375.78,2205.09 2728.73,2232.72 2846.38,2233.75 "/>
<polyline clip-path="url(#clip261)" style="stroke:#595959; stroke-linecap:round; stroke-linejoin:round; stroke-width:6.8; stroke-opacity:0.95; fill:none" points="2846.38,2233.75 2964.02,2232.84 3316.97,2226.87 3669.91,2218.88 3815.48,1735.56 3859.93,1029.05 3861.7,999.131 3905.51,247.619 "/>
<polyline clip-path="url(#clip261)" style="stroke:#3cb371; stroke-linecap:round; stroke-linejoin:round; stroke-width:7.2; stroke-opacity:1; fill:none" stroke-dasharray="29, 18" points="-3387.86,1000.92 7552.2,1000.92 "/>
<polyline clip-path="url(#clip261)" style="stroke:#000000; stroke-linecap:round; stroke-linejoin:round; stroke-width:4.8; stroke-opacity:1; fill:none" stroke-dasharray="2, 5" points="3861.7,4319.18 3861.7,-1937.12 "/>
<path clip-path="url(#clip261)" d="M2846.38 2215.75 L2828.38 2233.75 L2846.38 2251.75 L2864.38 2233.75 L2846.38 2215.75 Z" fill="#000000" fill-rule="evenodd" fill-opacity="1" stroke="none"/>
</svg>
