<?xml version="1.0" encoding="utf-8"?>
<svg xmlns="http://www.w3.org/2000/svg" xmlns:xlink="http://www.w3.org/1999/xlink" width="1000" height="620" viewBox="0 0 4000 2480">
<defs>
  <clipPath id="clip010">
    <rect x="0" y="0" width="4000" height="2480"/>
  </clipPath>
</defs>
<path clip-path="url(#clip010)" d="M0 2480 L4000 2480 L4000 0 L0 0  Z" fill="#ffffff" fill-rule="evenodd" fill-opacity="1"/>
<defs>
  <clipPath id="clip011">
    <rect x="258" y="148" width="3648" height="2086"/>
  </clipPath>
</defs>
<path clip-path="url(#clip010)" d="M258.824 2233.75 L3905.51 2233.75 L3905.51 148.313 L258.824 148.313  Z" fill="#ffffff" fill-rule="evenodd" fill-opacity="1"/>
<polyline clip-path="url(#clip011)" style="stroke:#000000; stroke-linecap:round; stroke-linejoin:round; stroke-width:2; stroke-opacity:0.15; fill:none" points="1444.6,2233.75 1444.6,148.313 "/>
<polyline clip-path="url(#clip011)" style="stroke:#000000; stroke-linecap:round; stroke-linejoin:round; stroke-width:2; stroke-opacity:0.15; fill:none" points="2893.07,2233.75 2893.07,148.313 "/>
<polyline clip-path="url(#clip011)" style="stroke:#000000; stroke-linecap:round; stroke-linejoin:round; stroke-width:2; stroke-opacity:0.15; fill:none" points="258.824,2233.75 3905.51,2233.75 "/>
<polyline clip-path="url(#clip011)" style="stroke:#000000; stroke-linecap:round; stroke-linejoin:round; stroke-width:2; stroke-opacity:0.15; fill:none" points="258.824,1747.73 3905.51,1747.73 "/>
<polyline clip-path="url(#clip011)" style="stroke:#000000; stroke-linecap:round; stroke-linejoin:round; stroke-width:2; stroke-opacity:0.15; fill:none" points="258.824,1261.71 3905.51,1261.71 "/>
<polyline clip-path="url(#clip011)" style="stroke:#000000; stroke-linecap:round; stroke-linejoin:round; stroke-width:2; stroke-opacity:0.15; fill:none" points="258.824,775.69 3905.51,775.69 "/>
<polyline clip-path="url(#clip011)" style="stroke:#000000; stroke-linecap:round; stroke-linejoin:round; stroke-width:2; stroke-opacity:0.15; fill:none" points="258.824,289.672 3905.51,289.672 "/>
<polyline clip-path="url(#clip010)" style="stroke:#000000; stroke-linecap:round; stroke-linejoin:round; stroke-width:4; stroke-opacity:1; fill:none" points="258.824,2233.75 3905.51,2233.75 "/>
<polyline clip-path="url(#clip010)" style="stroke:#000000; stroke-linecap:round; stroke-linejoin:round; stroke-width:4; stroke-opacity:1; fill:none" points="1444.6,2233.75 1444.6,2214.85 "/>
<polyline clip-path="url(#clip010)" style="stroke:#000000; stroke-linecap:round; stroke-linejoin:round; stroke-width:4; stroke-opacity:1; fill:none" points="2893.07,2233.75 2893.07,2214.85 "/>
<path clip-path="url(#clip010)" d="M1410.93 2320.67 L1418.57 2320.67 L1418.57 2294.3 L1410.26 2295.97 L1410.26 2291.71 L1418.52 2290.05 L1423.2 2290.05 L1423.2 2320.67 L1430.84 2320.67 L1430.84 2324.61 L1410.93 2324.61 L1410.93 2320.67 Z" fill="#000000" fill-rule="nonzero" fill-opacity="1" /><path clip-path="url(#clip010)" d="M1450.28 2293.12 Q1446.67 2293.12 1444.84 2296.69 Q1443.04 2300.23 1443.04 2307.36 Q1443.04 2314.47 1444.84 2318.03 Q1446.67 2321.57 1450.28 2321.57 Q1453.92 2321.57 1455.72 2318.03 Q1457.55 2314.47 1457.55 2307.36 Q1457.55 2300.23 1455.72 2296.69 Q1453.92 2293.12 1450.28 2293.12 M1450.28 2289.42 Q1456.09 2289.42 1459.15 2294.03 Q1462.23 2298.61 1462.23 2307.36 Q1462.23 2316.09 1459.15 2320.69 Q1456.09 2325.28 1450.28 2325.28 Q1444.47 2325.28 1441.39 2320.69 Q1438.34 2316.09 1438.34 2307.36 Q1438.34 2298.61 1441.39 2294.03 Q1444.47 2289.42 1450.28 2289.42 Z" fill="#000000" fill-rule="nonzero" fill-opacity="1" /><path clip-path="url(#clip010)" d="M1462.77 2294 L1468.98 2294 L1468.98 2272.58 L1462.23 2273.93 L1462.23 2270.47 L1468.94 2269.11 L1472.74 2269.11 L1472.74 2294 L1478.95 2294 L1478.95 2297.19 L1462.77 2297.19 L1462.77 2294 Z" fill="#000000" fill-rule="nonzero" fill-opacity="1" /><path clip-path="url(#clip010)" d="M2858.85 2320.67 L2866.49 2320.67 L2866.49 2294.3 L2858.18 2295.97 L2858.18 2291.71 L2866.44 2290.05 L2871.12 2290.05 L2871.12 2320.67 L2878.75 2320.67 L2878.75 2324.61 L2858.85 2324.61 L2858.85 2320.67 Z" fill="#000000" fill-rule="nonzero" fill-opacity="1" /><path clip-path="url(#clip010)" d="M2898.2 2293.12 Q2894.59 2293.12 2892.76 2296.69 Q2890.95 2300.23 2890.95 2307.36 Q2890.95 2314.47 2892.76 2318.03 Q2894.59 2321.57 2898.2 2321.57 Q2901.83 2321.57 2903.64 2318.03 Q2905.47 2314.47 2905.47 2307.36 Q2905.47 2300.23 2903.64 2296.69 Q2901.83 2293.12 2898.2 2293.12 M2898.2 2289.42 Q2904.01 2289.42 2907.06 2294.03 Q2910.14 2298.61 2910.14 2307.36 Q2910.14 2316.09 2907.06 2320.69 Q2904.01 2325.28 2898.2 2325.28 Q2892.39 2325.28 2889.31 2320.69 Q2886.25 2316.09 2886.25 2307.36 Q2886.25 2298.61 2889.31 2294.03 Q2892.39 2289.42 2898.2 2289.42 Z" fill="#000000" fill-rule="nonzero" fill-opacity="1" /><path clip-path="url(#clip010)" d="M2914.71 2294 L2927.97 2294 L2927.97 2297.19 L2910.14 2297.19 L2910.14 2294 Q2912.31 2291.76 2916.03 2288 Q2919.77 2284.22 2920.73 2283.13 Q2922.56 2281.08 2923.27 2279.67 Q2924 2278.24 2924 2276.86 Q2924 2274.63 2922.42 2273.21 Q2920.86 2271.8 2918.34 2271.8 Q2916.56 2271.8 2914.56 2272.42 Q2912.59 2273.05 2910.33 2274.31 L2910.33 2270.47 Q2912.63 2269.55 2914.62 2269.08 Q2916.61 2268.61 2918.27 2268.61 Q2922.63 2268.61 2925.23 2270.79 Q2927.82 2272.97 2927.82 2276.62 Q2927.82 2278.35 2927.16 2279.91 Q2926.52 2281.45 2924.81 2283.56 Q2924.34 2284.1 2921.82 2286.72 Q2919.3 2289.31 2914.71 2294 Z" fill="#000000" fill-rule="nonzero" fill-opacity="1" /><path clip-path="url(#clip010)" d="M2053.98 2374.78 L2053.98 2380.33 Q2051.32 2377.85 2048.3 2376.63 Q2045.31 2375.41 2041.92 2375.41 Q2035.25 2375.41 2031.71 2379.49 Q2028.17 2383.56 2028.17 2391.27 Q2028.17 2398.95 2031.71 2403.04 Q2035.25 2407.1 2041.92 2407.1 Q2045.31 2407.1 2048.3 2405.87 Q2051.32 2404.65 2053.98 2402.18 L2053.98 2407.67 Q2051.22 2409.55 2048.12 2410.48 Q2045.05 2411.42 2041.61 2411.42 Q2032.78 2411.42 2027.7 2406.03 Q2022.62 2400.61 2022.62 2391.27 Q2022.62 2381.89 2027.7 2376.5 Q2032.78 2371.08 2041.61 2371.08 Q2045.1 2371.08 2048.17 2372.02 Q2051.27 2372.93 2053.98 2374.78 Z" fill="#000000" fill-rule="nonzero" fill-opacity="1" /><path clip-path="url(#clip010)" d="M2084.06 2419.52 L2084.06 2423.24 L2056.35 2423.24 L2056.35 2419.52 L2084.06 2419.52 Z" fill="#000000" fill-rule="nonzero" fill-opacity="1" /><path clip-path="url(#clip010)" d="M2107.15 2382.36 L2107.15 2386.89 Q2105.12 2385.85 2102.94 2385.33 Q2100.75 2384.81 2098.4 2384.81 Q2094.84 2384.81 2093.04 2385.9 Q2091.27 2386.99 2091.27 2389.18 Q2091.27 2390.85 2092.55 2391.81 Q2093.82 2392.75 2097.68 2393.61 L2099.32 2393.97 Q2104.42 2395.07 2106.56 2397.07 Q2108.72 2399.05 2108.72 2402.62 Q2108.72 2406.68 2105.49 2409.05 Q2102.28 2411.42 2096.66 2411.42 Q2094.32 2411.42 2091.76 2410.95 Q2089.24 2410.51 2086.43 2409.6 L2086.43 2404.65 Q2089.08 2406.03 2091.66 2406.73 Q2094.24 2407.41 2096.76 2407.41 Q2100.15 2407.41 2101.97 2406.26 Q2103.8 2405.09 2103.8 2402.98 Q2103.8 2401.03 2102.47 2399.99 Q2101.17 2398.95 2096.71 2397.98 L2095.05 2397.59 Q2090.59 2396.66 2088.61 2394.73 Q2086.63 2392.78 2086.63 2389.39 Q2086.63 2385.28 2089.55 2383.04 Q2092.47 2380.8 2097.83 2380.8 Q2100.49 2380.8 2102.83 2381.19 Q2105.18 2381.58 2107.15 2382.36 Z" fill="#000000" fill-rule="nonzero" fill-opacity="1" /><path clip-path="url(#clip010)" d="M2128.27 2375.25 Q2124.21 2375.25 2122.15 2379.26 Q2120.12 2383.24 2120.12 2391.27 Q2120.12 2399.26 2122.15 2403.27 Q2124.21 2407.25 2128.27 2407.25 Q2132.36 2407.25 2134.39 2403.27 Q2136.45 2399.26 2136.45 2391.27 Q2136.45 2383.24 2134.39 2379.26 Q2132.36 2375.25 2128.27 2375.25 M2128.27 2371.08 Q2134.81 2371.08 2138.25 2376.27 Q2141.71 2381.42 2141.71 2391.27 Q2141.71 2401.08 2138.25 2406.26 Q2134.81 2411.42 2128.27 2411.42 Q2121.74 2411.42 2118.27 2406.26 Q2114.84 2401.08 2114.84 2391.27 Q2114.84 2381.42 2118.27 2376.27 Q2121.74 2371.08 2128.27 2371.08 Z" fill="#000000" fill-rule="nonzero" fill-opacity="1" /><polyline clip-path="url(#clip010)" style="stroke:#000000; stroke-linecap:round; stroke-linejoin:round; stroke-width:4; stroke-opacity:1; fill:none" points="258.824,2233.75 258.824,148.313 "/>
<polyline clip-path="url(#clip010)" style="stroke:#000000; stroke-linecap:round; stroke-linejoin:round; stroke-width:4; stroke-opacity:1; fill:none" points="258.824,2233.75 277.721,2233.75 "/>
<polyline clip-path="url(#clip010)" style="stroke:#000000; stroke-linecap:round; stroke-linejoin:round; stroke-width:4; stroke-opacity:1; fill:none" points="258.824,1747.73 277.721,1747.73 "/>
<polyline clip-path="url(#clip010)" style="stroke:#000000; stroke-linecap:round; stroke-linejoin:round; stroke-width:4; stroke-opacity:1; fill:none" points="258.824,1261.71 277.721,1261.71 "/>
<polyline clip-path="url(#clip010)" style="stroke:#000000; stroke-linecap:round; stroke-linejoin:round; stroke-width:4; stroke-opacity:1; fill:none" points="258.824,775.69 277.721,775.69 "/>
<polyline clip-path="url(#clip010)" style="stroke:#000000; stroke-linecap:round; stroke-linejoin:round; stroke-width:4; stroke-opacity:1; fill:none" points="258.824,289.672 277.721,289.672 "/>
<path clip-path="url(#clip010)" d="M186.879 2219.54 Q183.268 2219.54 181.44 2223.11 Q179.634 2226.65 179.634 2233.78 Q179.634 2240.89 181.44 2244.45 Q183.268 2247.99 186.879 2247.99 Q190.514 2247.99 192.319 2244.45 Q194.148 2240.89 194.148 2233.78 Q194.148 2226.65 192.319 2223.11 Q190.514 2219.54 186.879 2219.54 M186.879 2215.84 Q192.69 2215.84 195.745 2220.45 Q198.824 2225.03 198.824 2233.78 Q198.824 2242.51 195.745 2247.11 Q192.69 2251.7 186.879 2251.7 Q181.069 2251.7 177.991 2247.11 Q174.935 2242.51 174.935 2233.78 Q174.935 2225.03 177.991 2220.45 Q181.069 2215.84 186.879 2215.84 Z" fill="#000000" fill-rule="nonzero" fill-opacity="1" /><path clip-path="url(#clip010)" d="M178.916 1761.07 L186.555 1761.07 L186.555 1734.71 L178.245 1736.37 L178.245 1732.11 L186.509 1730.45 L191.185 1730.45 L191.185 1761.07 L198.824 1761.07 L198.824 1765.01 L178.916 1765.01 L178.916 1761.07 Z" fill="#000000" fill-rule="nonzero" fill-opacity="1" /><path clip-path="url(#clip010)" d="M182.504 1275.05 L198.824 1275.05 L198.824 1278.99 L176.879 1278.99 L176.879 1275.05 Q179.541 1272.3 184.125 1267.67 Q188.731 1263.02 189.912 1261.67 Q192.157 1259.15 193.037 1257.41 Q193.94 1255.66 193.94 1253.97 Q193.94 1251.21 191.995 1249.47 Q190.074 1247.74 186.972 1247.74 Q184.773 1247.74 182.319 1248.5 Q179.889 1249.27 177.111 1250.82 L177.111 1246.1 Q179.935 1244.96 182.389 1244.38 Q184.842 1243.8 186.879 1243.8 Q192.25 1243.8 195.444 1246.49 Q198.639 1249.17 198.639 1253.66 Q198.639 1255.79 197.828 1257.72 Q197.041 1259.61 194.935 1262.21 Q194.356 1262.88 191.254 1266.09 Q188.153 1269.29 182.504 1275.05 Z" fill="#000000" fill-rule="nonzero" fill-opacity="1" /><path clip-path="url(#clip010)" d="M191.694 774.336 Q195.051 775.053 196.926 777.322 Q198.824 779.59 198.824 782.924 Q198.824 788.04 195.305 790.84 Q191.787 793.641 185.305 793.641 Q183.129 793.641 180.815 793.202 Q178.523 792.785 176.069 791.928 L176.069 787.415 Q178.014 788.549 180.328 789.127 Q182.643 789.706 185.166 789.706 Q189.565 789.706 191.856 787.97 Q194.171 786.234 194.171 782.924 Q194.171 779.868 192.018 778.155 Q189.889 776.419 186.069 776.419 L182.041 776.419 L182.041 772.577 L186.254 772.577 Q189.703 772.577 191.532 771.211 Q193.361 769.822 193.361 767.229 Q193.361 764.567 191.463 763.155 Q189.588 761.72 186.069 761.72 Q184.148 761.72 181.949 762.137 Q179.75 762.554 177.111 763.433 L177.111 759.267 Q179.773 758.526 182.088 758.155 Q184.426 757.785 186.486 757.785 Q191.81 757.785 194.912 760.216 Q198.014 762.623 198.014 766.743 Q198.014 769.614 196.37 771.604 Q194.727 773.572 191.694 774.336 Z" fill="#000000" fill-rule="nonzero" fill-opacity="1" /><path clip-path="url(#clip010)" d="M189.24 276.466 L177.435 294.915 L189.24 294.915 L189.24 276.466 M188.014 272.392 L193.893 272.392 L193.893 294.915 L198.824 294.915 L198.824 298.804 L193.893 298.804 L193.893 306.952 L189.24 306.952 L189.24 298.804 L173.639 298.804 L173.639 294.29 L188.014 272.392 Z" fill="#000000" fill-rule="nonzero" fill-opacity="1" /><path clip-path="url(#clip010)" d="M68.277 1320.08 L97.5997 1330.75 L97.5997 1309.37 L68.277 1320.08 M101.975 1337.89 L63.0947 1323.05 L63.0947 1317.08 L101.975 1302.27 L101.975 1337.89 Z" fill="#000000" fill-rule="nonzero" fill-opacity="1" /><path clip-path="url(#clip010)" d="M76.1676 1268.54 Q76.1676 1272.4 79.1884 1274.64 Q82.1832 1276.87 87.4175 1276.87 Q92.6518 1276.87 95.6727 1274.66 Q98.6674 1272.42 98.6674 1268.54 Q98.6674 1264.71 95.6466 1262.47 Q92.6258 1260.23 87.4175 1260.23 Q82.2352 1260.23 79.2144 1262.47 Q76.1676 1264.71 76.1676 1268.54 M72.1051 1268.54 Q72.1051 1262.29 76.1676 1258.72 Q80.23 1255.16 87.4175 1255.16 Q94.5789 1255.16 98.6674 1258.72 Q102.73 1262.29 102.73 1268.54 Q102.73 1274.82 98.6674 1278.39 Q94.5789 1281.93 87.4175 1281.93 Q80.23 1281.93 76.1676 1278.39 Q72.1051 1274.82 72.1051 1268.54 Z" fill="#000000" fill-rule="nonzero" fill-opacity="1" /><path clip-path="url(#clip010)" d="M87.4175 1226.28 Q82.1311 1226.28 79.1363 1228.46 Q76.1155 1230.63 76.1155 1234.43 Q76.1155 1238.23 79.1363 1240.42 Q82.1311 1242.58 87.4175 1242.58 Q92.7039 1242.58 95.7247 1240.42 Q98.7195 1238.23 98.7195 1234.43 Q98.7195 1230.63 95.7247 1228.46 Q92.7039 1226.28 87.4175 1226.28 M77.2353 1242.58 Q74.6311 1241.07 73.3811 1238.78 Q72.1051 1236.46 72.1051 1233.26 Q72.1051 1227.94 76.3238 1224.64 Q80.5425 1221.3 87.4175 1221.3 Q94.2925 1221.3 98.5112 1224.64 Q102.73 1227.94 102.73 1233.26 Q102.73 1236.46 101.48 1238.78 Q100.204 1241.07 97.5997 1242.58 L101.975 1242.58 L101.975 1247.4 L61.4541 1247.4 L61.4541 1242.58 L77.2353 1242.58 Z" fill="#000000" fill-rule="nonzero" fill-opacity="1" /><path clip-path="url(#clip010)" d="M72.8082 1213.36 L72.8082 1208.57 L102.496 1208.57 Q108.068 1208.57 110.568 1210.7 Q113.068 1212.81 113.068 1217.53 L113.068 1219.35 L109.006 1219.35 L109.006 1218.07 Q109.006 1215.34 107.73 1214.35 Q106.48 1213.36 102.496 1213.36 L72.8082 1213.36 M61.4541 1213.36 L61.4541 1208.57 L67.5218 1208.57 L67.5218 1213.36 L61.4541 1213.36 Z" fill="#000000" fill-rule="nonzero" fill-opacity="1" /><path clip-path="url(#clip010)" d="M86.1935 1173.59 L88.5373 1173.59 L88.5373 1195.63 Q93.4852 1195.31 96.0893 1192.66 Q98.6674 1189.97 98.6674 1185.21 Q98.6674 1182.45 97.9904 1179.87 Q97.3133 1177.27 95.9591 1174.71 L100.49 1174.71 Q101.584 1177.29 102.157 1180 Q102.73 1182.71 102.73 1185.5 Q102.73 1192.47 98.6674 1196.56 Q94.605 1200.63 87.6779 1200.63 Q80.5165 1200.63 76.3238 1196.77 Q72.1051 1192.89 72.1051 1186.33 Q72.1051 1180.44 75.9071 1177.03 Q79.6832 1173.59 86.1935 1173.59 M84.7873 1178.39 Q80.855 1178.44 78.5113 1180.6 Q76.1676 1182.73 76.1676 1186.28 Q76.1676 1190.29 78.4332 1192.71 Q80.6988 1195.1 84.8133 1195.47 L84.7873 1178.39 Z" fill="#000000" fill-rule="nonzero" fill-opacity="1" /><path clip-path="url(#clip010)" d="M73.928 1144.74 L78.4071 1144.74 Q77.2873 1146.77 76.7405 1148.83 Q76.1676 1150.86 76.1676 1152.94 Q76.1676 1157.6 79.1363 1160.18 Q82.079 1162.76 87.4175 1162.76 Q92.756 1162.76 95.7247 1160.18 Q98.6674 1157.6 98.6674 1152.94 Q98.6674 1150.86 98.1206 1148.83 Q97.5477 1146.77 96.4279 1144.74 L100.855 1144.74 Q101.792 1146.75 102.261 1148.91 Q102.73 1151.04 102.73 1153.46 Q102.73 1160.05 98.5893 1163.93 Q94.4487 1167.81 87.4175 1167.81 Q80.2821 1167.81 76.1936 1163.91 Q72.1051 1159.97 72.1051 1153.15 Q72.1051 1150.94 72.5738 1148.83 Q73.0165 1146.72 73.928 1144.74 Z" fill="#000000" fill-rule="nonzero" fill-opacity="1" /><path clip-path="url(#clip010)" d="M64.527 1131.67 L72.8082 1131.67 L72.8082 1121.8 L76.5321 1121.8 L76.5321 1131.67 L92.3654 1131.67 Q95.9331 1131.67 96.9487 1130.7 Q97.9643 1129.71 97.9643 1126.72 L97.9643 1121.8 L101.975 1121.8 L101.975 1126.72 Q101.975 1132.27 99.9174 1134.38 Q97.8341 1136.49 92.3654 1136.49 L76.5321 1136.49 L76.5321 1140 L72.8082 1140 L72.8082 1136.49 L64.527 1136.49 L64.527 1131.67 Z" fill="#000000" fill-rule="nonzero" fill-opacity="1" /><path clip-path="url(#clip010)" d="M72.8082 1115.5 L72.8082 1110.7 L101.975 1110.7 L101.975 1115.5 L72.8082 1115.5 M61.4541 1115.5 L61.4541 1110.7 L67.5218 1110.7 L67.5218 1115.5 L61.4541 1115.5 Z" fill="#000000" fill-rule="nonzero" fill-opacity="1" /><path clip-path="url(#clip010)" d="M72.8082 1104.12 L72.8082 1099.04 L97.2872 1089.92 L72.8082 1080.81 L72.8082 1075.73 L101.975 1086.67 L101.975 1093.18 L72.8082 1104.12 Z" fill="#000000" fill-rule="nonzero" fill-opacity="1" /><path clip-path="url(#clip010)" d="M86.1935 1044.17 L88.5373 1044.17 L88.5373 1066.2 Q93.4852 1065.89 96.0893 1063.23 Q98.6674 1060.55 98.6674 1055.78 Q98.6674 1053.02 97.9904 1050.44 Q97.3133 1047.84 95.9591 1045.29 L100.49 1045.29 Q101.584 1047.87 102.157 1050.57 Q102.73 1053.28 102.73 1056.07 Q102.73 1063.05 98.6674 1067.14 Q94.605 1071.2 87.6779 1071.2 Q80.5165 1071.2 76.3238 1067.34 Q72.1051 1063.46 72.1051 1056.9 Q72.1051 1051.02 75.9071 1047.61 Q79.6832 1044.17 86.1935 1044.17 M84.7873 1048.96 Q80.855 1049.01 78.5113 1051.17 Q76.1676 1053.31 76.1676 1056.85 Q76.1676 1060.86 78.4332 1063.28 Q80.6988 1065.68 84.8133 1066.04 L84.7873 1048.96 Z" fill="#000000" fill-rule="nonzero" fill-opacity="1" /><g clip-path="url(#clip010)">
<text style="fill:#000000; fill-opacity:1; font-family:Century Gothic,CenturyGothic,AppleGothic,sans-serif; font-size:58px; text-anchor:middle;" transform="rotate(0, 2082.17, 51.6)" x="2082.17" y="51.6">C_s0 | Practically identifiable</text>
</g>
<polyline clip-path="url(#clip011)" style="stroke:#595959; stroke-linecap:round; stroke-linejoin:round; stroke-width:6.8; stroke-opacity:0.95; fill:none" points="258.824,247.619 292.176,367.899 308.372,424.568 730.621,1381.74 1202.42,1496.78 1674.22,2092.17 2146.01,2228.12 2303.28,2233.75 "/>
<polyline clip-path="url(#clip011)" style="stroke:#595959; stroke-linecap:round; stroke-linejoin:round; stroke-width:6.8; stroke-opacity:0.95; fill:none" points="2303.28,2233.75 2460.54,2229.56 2932.34,2193.54 3404.14,2157.29 3875.94,2134.26 3905.51,2133.16 "/>
<polyline clip-path="url(#clip011)" style="stroke:#3cb371; stroke-linecap:round; stroke-linejoin:round; stroke-width:7.2; stroke-opacity:1; fill:none" stroke-dasharray="29, 18" points="-3387.86,366.726 7552.2,366.726 "/>
<polyline clip-path="url(#clip011)" style="stroke:#000000; stroke-linecap:round; stroke-linejoin:round; stroke-width:4.8; stroke-opacity:1; fill:none" stroke-dasharray="2, 5" points="292.176,4319.18 292.176,-1937.12 "/>
<path clip-path="url(#clip011)" d="M2303.28 2215.75 L2285.28 2233.75 L2303.28 2251.75 L2321.28 2233.75 L2303.28 2215.75 Z" fill="#000000" fill-rule="evenodd" fill-opacity="1" stroke="none"/>
</svg>
