<?xml version="1.0" encoding="utf-8"?>
<svg xmlns="http://www.w3.org/2000/svg" xmlns:xlink="http://www.w3.org/1999/xlink" width="1000" height="620" viewBox="0 0 4000 2480">
<defs>
  <clipPath id="clip740">
    <rect x="0" y="0" width="4000" height="2480"/>
  </clipPath>
</defs>
<path clip-path="url(#clip740)" d="M0 2480 L4000 2480 L4000 0 L0 0  Z" fill="#ffffff" fill-rule="evenodd" fill-opacity="1"/>
<defs>
  <clipPath id="clip741">
    <rect x="258" y="148" width="3648" height="2086"/>
  </clipPath>
</defs>
<path clip-path="url(#clip740)" d="M258.824 2233.75 L3905.51 2233.75 L3905.51 148.313 L258.824 148.313  Z" fill="#ffffff" fill-rule="evenodd" fill-opacity="1"/>
<polyline clip-path="url(#clip741)" style="stroke:#000000; stroke-linecap:round; stroke-linejoin:round; stroke-width:2; stroke-opacity:0.15; fill:none" points="1868.42,2233.75 1868.42,148.313 "/>
<polyline clip-path="url(#clip741)" style="stroke:#000000; stroke-linecap:round; stroke-linejoin:round; stroke-width:2; stroke-opacity:0.15; fill:none" points="3558.6,2233.75 3558.6,148.313 "/>
<polyline clip-path="url(#clip741)" style="stroke:#000000; stroke-linecap:round; stroke-linejoin:round; stroke-width:2; stroke-opacity:0.15; fill:none" points="258.824,2233.75 3905.51,2233.75 "/>
<polyline clip-path="url(#clip741)" style="stroke:#000000; stroke-linecap:round; stroke-linejoin:round; stroke-width:2; stroke-opacity:0.15; fill:none" points="258.824,1716.55 3905.51,1716.55 "/>
<polyline clip-path="url(#clip741)" style="stroke:#000000; stroke-linecap:round; stroke-linejoin:round; stroke-width:2; stroke-opacity:0.15; fill:none" points="258.824,1199.36 3905.51,1199.36 "/>
<polyline clip-path="url(#clip741)" style="stroke:#000000; stroke-linecap:round; stroke-linejoin:round; stroke-width:2; stroke-opacity:0.15; fill:none" points="258.824,682.165 3905.51,682.165 "/>
<polyline clip-path="url(#clip741)" style="stroke:#000000; stroke-linecap:round; stroke-linejoin:round; stroke-width:2; stroke-opacity:0.15; fill:none" points="258.824,164.972 3905.51,164.972 "/>
<polyline clip-path="url(#clip740)" style="stroke:#000000; stroke-linecap:round; stroke-linejoin:round; stroke-width:4; stroke-opacity:1; fill:none" points="258.824,2233.75 3905.51,2233.75 "/>
<polyline clip-path="url(#clip740)" style="stroke:#000000; stroke-linecap:round; stroke-linejoin:round; stroke-width:4; stroke-opacity:1; fill:none" points="1868.42,2233.75 1868.42,2214.85 "/>
<polyline clip-path="url(#clip740)" style="stroke:#000000; stroke-linecap:round; stroke-linejoin:round; stroke-width:4; stroke-opacity:1; fill:none" points="3558.6,2233.75 3558.6,2214.85 "/>
<path clip-path="url(#clip740)" d="M1799.93 2320.67 L1807.56 2320.67 L1807.56 2294.3 L1799.25 2295.97 L1799.25 2291.71 L1807.52 2290.05 L1812.19 2290.05 L1812.19 2320.67 L1819.83 2320.67 L1819.83 2324.61 L1799.93 2324.61 L1799.93 2320.67 Z" fill="#000000" fill-rule="nonzero" fill-opacity="1" /><path clip-path="url(#clip740)" d="M1839.28 2293.12 Q1835.67 2293.12 1833.84 2296.69 Q1832.03 2300.23 1832.03 2307.36 Q1832.03 2314.47 1833.84 2318.03 Q1835.67 2321.57 1839.28 2321.57 Q1842.91 2321.57 1844.72 2318.03 Q1846.55 2314.47 1846.55 2307.36 Q1846.55 2300.23 1844.72 2296.69 Q1842.91 2293.12 1839.28 2293.12 M1839.28 2289.42 Q1845.09 2289.42 1848.14 2294.03 Q1851.22 2298.61 1851.22 2307.36 Q1851.22 2316.09 1848.14 2320.69 Q1845.09 2325.28 1839.28 2325.28 Q1833.47 2325.28 1830.39 2320.69 Q1827.33 2316.09 1827.33 2307.36 Q1827.33 2298.61 1830.39 2294.03 Q1833.47 2289.42 1839.28 2289.42 Z" fill="#000000" fill-rule="nonzero" fill-opacity="1" /><path clip-path="url(#clip740)" d="M1851.22 2283.52 L1875.33 2283.52 L1875.33 2286.72 L1851.22 2286.72 L1851.22 2283.52 Z" fill="#000000" fill-rule="nonzero" fill-opacity="1" /><path clip-path="url(#clip740)" d="M1891.66 2271.62 Q1888.72 2271.62 1887.24 2274.51 Q1885.77 2277.39 1885.77 2283.18 Q1885.77 2288.96 1887.24 2291.85 Q1888.72 2294.73 1891.66 2294.73 Q1894.61 2294.73 1896.08 2291.85 Q1897.56 2288.96 1897.56 2283.18 Q1897.56 2277.39 1896.08 2274.51 Q1894.61 2271.62 1891.66 2271.62 M1891.66 2268.61 Q1896.38 2268.61 1898.86 2272.35 Q1901.36 2276.07 1901.36 2283.18 Q1901.36 2290.27 1898.86 2294.02 Q1896.38 2297.74 1891.66 2297.74 Q1886.94 2297.74 1884.44 2294.02 Q1881.95 2290.27 1881.95 2283.18 Q1881.95 2276.07 1884.44 2272.35 Q1886.94 2268.61 1891.66 2268.61 Z" fill="#000000" fill-rule="nonzero" fill-opacity="1" /><path clip-path="url(#clip740)" d="M1908.04 2292.42 L1912.01 2292.42 L1912.01 2297.19 L1908.04 2297.19 L1908.04 2292.42 Z" fill="#000000" fill-rule="nonzero" fill-opacity="1" /><path clip-path="url(#clip740)" d="M1931.79 2282.05 Q1934.52 2282.64 1936.04 2284.48 Q1937.59 2286.32 1937.59 2289.03 Q1937.59 2293.19 1934.73 2295.46 Q1931.87 2297.74 1926.6 2297.74 Q1924.84 2297.74 1922.95 2297.38 Q1921.09 2297.04 1919.1 2296.35 L1919.1 2292.68 Q1920.68 2293.6 1922.56 2294.07 Q1924.44 2294.54 1926.49 2294.54 Q1930.06 2294.54 1931.93 2293.13 Q1933.81 2291.72 1933.81 2289.03 Q1933.81 2286.55 1932.06 2285.16 Q1930.33 2283.75 1927.22 2283.75 L1923.95 2283.75 L1923.95 2280.63 L1927.37 2280.63 Q1930.18 2280.63 1931.66 2279.52 Q1933.15 2278.39 1933.15 2276.28 Q1933.15 2274.12 1931.61 2272.97 Q1930.08 2271.8 1927.22 2271.8 Q1925.66 2271.8 1923.88 2272.14 Q1922.09 2272.48 1919.95 2273.2 L1919.95 2269.81 Q1922.11 2269.21 1923.99 2268.91 Q1925.89 2268.61 1927.56 2268.61 Q1931.89 2268.61 1934.41 2270.58 Q1936.93 2272.54 1936.93 2275.89 Q1936.93 2278.22 1935.59 2279.84 Q1934.26 2281.43 1931.79 2282.05 Z" fill="#000000" fill-rule="nonzero" fill-opacity="1" /><path clip-path="url(#clip740)" d="M3505.2 2320.67 L3512.84 2320.67 L3512.84 2294.3 L3504.53 2295.97 L3504.53 2291.71 L3512.8 2290.05 L3517.47 2290.05 L3517.47 2320.67 L3525.11 2320.67 L3525.11 2324.61 L3505.2 2324.61 L3505.2 2320.67 Z" fill="#000000" fill-rule="nonzero" fill-opacity="1" /><path clip-path="url(#clip740)" d="M3544.56 2293.12 Q3540.94 2293.12 3539.12 2296.69 Q3537.31 2300.23 3537.31 2307.36 Q3537.31 2314.47 3539.12 2318.03 Q3540.94 2321.57 3544.56 2321.57 Q3548.19 2321.57 3550 2318.03 Q3551.82 2314.47 3551.82 2307.36 Q3551.82 2300.23 3550 2296.69 Q3548.19 2293.12 3544.56 2293.12 M3544.56 2289.42 Q3550.37 2289.42 3553.42 2294.03 Q3556.5 2298.61 3556.5 2307.36 Q3556.5 2316.09 3553.42 2320.69 Q3550.37 2325.28 3544.56 2325.28 Q3538.75 2325.28 3535.67 2320.69 Q3532.61 2316.09 3532.61 2307.36 Q3532.61 2298.61 3535.67 2294.03 Q3538.75 2289.42 3544.56 2289.42 Z" fill="#000000" fill-rule="nonzero" fill-opacity="1" /><path clip-path="url(#clip740)" d="M3566.21 2271.62 Q3563.27 2271.62 3561.79 2274.51 Q3560.32 2277.39 3560.32 2283.18 Q3560.32 2288.96 3561.79 2291.85 Q3563.27 2294.73 3566.21 2294.73 Q3569.16 2294.73 3570.63 2291.85 Q3572.11 2288.96 3572.11 2283.18 Q3572.11 2277.39 3570.63 2274.51 Q3569.16 2271.62 3566.21 2271.62 M3566.21 2268.61 Q3570.93 2268.61 3573.41 2272.35 Q3575.91 2276.07 3575.91 2283.18 Q3575.91 2290.27 3573.41 2294.02 Q3570.93 2297.74 3566.21 2297.74 Q3561.48 2297.74 3558.98 2294.02 Q3556.5 2290.27 3556.5 2283.18 Q3556.5 2276.07 3558.98 2272.35 Q3561.48 2268.61 3566.21 2268.61 Z" fill="#000000" fill-rule="nonzero" fill-opacity="1" /><path clip-path="url(#clip740)" d="M3582.59 2292.42 L3586.56 2292.42 L3586.56 2297.19 L3582.59 2297.19 L3582.59 2292.42 Z" fill="#000000" fill-rule="nonzero" fill-opacity="1" /><path clip-path="url(#clip740)" d="M3602.96 2271.62 Q3600.02 2271.62 3598.54 2274.51 Q3597.07 2277.39 3597.07 2283.18 Q3597.07 2288.96 3598.54 2291.85 Q3600.02 2294.73 3602.96 2294.73 Q3605.91 2294.73 3607.38 2291.85 Q3608.86 2288.96 3608.86 2283.18 Q3608.86 2277.39 3607.38 2274.51 Q3605.91 2271.62 3602.96 2271.62 M3602.96 2268.61 Q3607.68 2268.61 3610.16 2272.35 Q3612.66 2276.07 3612.66 2283.18 Q3612.66 2290.27 3610.16 2294.02 Q3607.68 2297.74 3602.96 2297.74 Q3598.23 2297.74 3595.73 2294.02 Q3593.25 2290.27 3593.25 2283.18 Q3593.25 2276.07 3595.73 2272.35 Q3598.23 2268.61 3602.96 2268.61 Z" fill="#000000" fill-rule="nonzero" fill-opacity="1" /><path clip-path="url(#clip740)" d="M2053.21 2374.78 L2053.21 2380.33 Q2050.55 2377.85 2047.53 2376.63 Q2044.54 2375.41 2041.15 2375.41 Q2034.49 2375.41 2030.94 2379.49 Q2027.4 2383.56 2027.4 2391.27 Q2027.4 2398.95 2030.94 2403.04 Q2034.49 2407.1 2041.15 2407.1 Q2044.54 2407.1 2047.53 2405.87 Q2050.55 2404.65 2053.21 2402.18 L2053.21 2407.67 Q2050.45 2409.55 2047.35 2410.48 Q2044.28 2411.42 2040.84 2411.42 Q2032.01 2411.42 2026.93 2406.03 Q2021.86 2400.61 2021.86 2391.27 Q2021.86 2381.89 2026.93 2376.5 Q2032.01 2371.08 2040.84 2371.08 Q2044.33 2371.08 2047.4 2372.02 Q2050.5 2372.93 2053.21 2374.78 Z" fill="#000000" fill-rule="nonzero" fill-opacity="1" /><path clip-path="url(#clip740)" d="M2083.29 2419.52 L2083.29 2423.24 L2055.58 2423.24 L2055.58 2419.52 L2083.29 2419.52 Z" fill="#000000" fill-rule="nonzero" fill-opacity="1" /><path clip-path="url(#clip740)" d="M2108.78 2382.62 L2108.78 2387.1 Q2106.75 2385.98 2104.69 2385.43 Q2102.66 2384.86 2100.58 2384.86 Q2095.92 2384.86 2093.34 2387.83 Q2090.76 2390.77 2090.76 2396.11 Q2090.76 2401.45 2093.34 2404.42 Q2095.92 2407.36 2100.58 2407.36 Q2102.66 2407.36 2104.69 2406.81 Q2106.75 2406.24 2108.78 2405.12 L2108.78 2409.55 Q2106.78 2410.48 2104.62 2410.95 Q2102.48 2411.42 2100.06 2411.42 Q2093.47 2411.42 2089.59 2407.28 Q2085.71 2403.14 2085.71 2396.11 Q2085.71 2388.97 2089.62 2384.88 Q2093.55 2380.8 2100.37 2380.8 Q2102.58 2380.8 2104.69 2381.27 Q2106.8 2381.71 2108.78 2382.62 Z" fill="#000000" fill-rule="nonzero" fill-opacity="1" /><path clip-path="url(#clip740)" d="M2129.04 2375.25 Q2124.98 2375.25 2122.92 2379.26 Q2120.89 2383.24 2120.89 2391.27 Q2120.89 2399.26 2122.92 2403.27 Q2124.98 2407.25 2129.04 2407.25 Q2133.13 2407.25 2135.16 2403.27 Q2137.22 2399.26 2137.22 2391.27 Q2137.22 2383.24 2135.16 2379.26 Q2133.13 2375.25 2129.04 2375.25 M2129.04 2371.08 Q2135.58 2371.08 2139.02 2376.27 Q2142.48 2381.42 2142.48 2391.27 Q2142.48 2401.08 2139.02 2406.26 Q2135.58 2411.42 2129.04 2411.42 Q2122.51 2411.42 2119.04 2406.26 Q2115.61 2401.08 2115.61 2391.27 Q2115.61 2381.42 2119.04 2376.27 Q2122.51 2371.08 2129.04 2371.08 Z" fill="#000000" fill-rule="nonzero" fill-opacity="1" /><polyline clip-path="url(#clip740)" style="stroke:#000000; stroke-linecap:round; stroke-linejoin:round; stroke-width:4; stroke-opacity:1; fill:none" points="258.824,2233.75 258.824,148.313 "/>
<polyline clip-path="url(#clip740)" style="stroke:#000000; stroke-linecap:round; stroke-linejoin:round; stroke-width:4; stroke-opacity:1; fill:none" points="258.824,2233.75 277.721,2233.75 "/>
<polyline clip-path="url(#clip740)" style="stroke:#000000; stroke-linecap:round; stroke-linejoin:round; stroke-width:4; stroke-opacity:1; fill:none" points="258.824,1716.55 277.721,1716.55 "/>
<polyline clip-path="url(#clip740)" style="stroke:#000000; stroke-linecap:round; stroke-linejoin:round; stroke-width:4; stroke-opacity:1; fill:none" points="258.824,1199.36 277.721,1199.36 "/>
<polyline clip-path="url(#clip740)" style="stroke:#000000; stroke-linecap:round; stroke-linejoin:round; stroke-width:4; stroke-opacity:1; fill:none" points="258.824,682.165 277.721,682.165 "/>
<polyline clip-path="url(#clip740)" style="stroke:#000000; stroke-linecap:round; stroke-linejoin:round; stroke-width:4; stroke-opacity:1; fill:none" points="258.824,164.972 277.721,164.972 "/>
<path clip-path="url(#clip740)" d="M186.879 2219.54 Q183.268 2219.54 181.44 2223.11 Q179.634 2226.65 179.634 2233.78 Q179.634 2240.89 181.44 2244.45 Q183.268 2247.99 186.879 2247.99 Q190.514 2247.99 192.319 2244.45 Q194.148 2240.89 194.148 2233.78 Q194.148 2226.65 192.319 2223.11 Q190.514 2219.54 186.879 2219.54 M186.879 2215.84 Q192.69 2215.84 195.745 2220.45 Q198.824 2225.03 198.824 2233.78 Q198.824 2242.51 195.745 2247.11 Q192.69 2251.7 186.879 2251.7 Q181.069 2251.7 177.991 2247.11 Q174.935 2242.51 174.935 2233.78 Q174.935 2225.03 177.991 2220.45 Q181.069 2215.84 186.879 2215.84 Z" fill="#000000" fill-rule="nonzero" fill-opacity="1" /><path clip-path="url(#clip740)" d="M182.504 1729.9 L198.824 1729.9 L198.824 1733.83 L176.879 1733.83 L176.879 1729.9 Q179.541 1727.14 184.125 1722.51 Q188.731 1717.86 189.912 1716.52 Q192.157 1713.99 193.037 1712.26 Q193.94 1710.5 193.94 1708.81 Q193.94 1706.05 191.995 1704.32 Q190.074 1702.58 186.972 1702.58 Q184.773 1702.58 182.319 1703.35 Q179.889 1704.11 177.111 1705.66 L177.111 1700.94 Q179.935 1699.8 182.389 1699.23 Q184.842 1698.65 186.879 1698.65 Q192.25 1698.65 195.444 1701.33 Q198.639 1704.02 198.639 1708.51 Q198.639 1710.64 197.828 1712.56 Q197.041 1714.46 194.935 1717.05 Q194.356 1717.72 191.254 1720.94 Q188.153 1724.13 182.504 1729.9 Z" fill="#000000" fill-rule="nonzero" fill-opacity="1" /><path clip-path="url(#clip740)" d="M189.24 1186.15 L177.435 1204.6 L189.24 1204.6 L189.24 1186.15 M188.014 1182.08 L193.893 1182.08 L193.893 1204.6 L198.824 1204.6 L198.824 1208.49 L193.893 1208.49 L193.893 1216.64 L189.24 1216.64 L189.24 1208.49 L173.639 1208.49 L173.639 1203.98 L188.014 1182.08 Z" fill="#000000" fill-rule="nonzero" fill-opacity="1" /><path clip-path="url(#clip740)" d="M187.296 680.302 Q184.148 680.302 182.296 682.455 Q180.467 684.608 180.467 688.357 Q180.467 692.084 182.296 694.26 Q184.148 696.413 187.296 696.413 Q190.444 696.413 192.273 694.26 Q194.125 692.084 194.125 688.357 Q194.125 684.608 192.273 682.455 Q190.444 680.302 187.296 680.302 M196.578 665.649 L196.578 669.909 Q194.819 669.075 193.014 668.635 Q191.231 668.196 189.472 668.196 Q184.842 668.196 182.389 671.321 Q179.958 674.446 179.611 680.765 Q180.977 678.751 183.037 677.686 Q185.097 676.598 187.574 676.598 Q192.782 676.598 195.791 679.77 Q198.824 682.918 198.824 688.357 Q198.824 693.682 195.676 696.899 Q192.528 700.117 187.296 700.117 Q181.301 700.117 178.129 695.533 Q174.958 690.927 174.958 682.2 Q174.958 674.006 178.847 669.145 Q182.736 664.26 189.287 664.26 Q191.046 664.26 192.828 664.608 Q194.634 664.955 196.578 665.649 Z" fill="#000000" fill-rule="nonzero" fill-opacity="1" /><path clip-path="url(#clip740)" d="M186.972 165.84 Q183.639 165.84 181.717 167.623 Q179.819 169.405 179.819 172.53 Q179.819 175.655 181.717 177.437 Q183.639 179.22 186.972 179.22 Q190.305 179.22 192.227 177.437 Q194.148 175.632 194.148 172.53 Q194.148 169.405 192.227 167.623 Q190.328 165.84 186.972 165.84 M182.296 163.849 Q179.287 163.109 177.597 161.049 Q175.93 158.988 175.93 156.025 Q175.93 151.882 178.87 149.475 Q181.833 147.067 186.972 147.067 Q192.134 147.067 195.074 149.475 Q198.014 151.882 198.014 156.025 Q198.014 158.988 196.324 161.049 Q194.657 163.109 191.671 163.849 Q195.051 164.636 196.926 166.928 Q198.824 169.22 198.824 172.53 Q198.824 177.553 195.745 180.238 Q192.69 182.923 186.972 182.923 Q181.254 182.923 178.176 180.238 Q175.12 177.553 175.12 172.53 Q175.12 169.22 177.018 166.928 Q178.916 164.636 182.296 163.849 M180.583 156.465 Q180.583 159.15 182.25 160.655 Q183.94 162.16 186.972 162.16 Q189.981 162.16 191.671 160.655 Q193.384 159.15 193.384 156.465 Q193.384 153.78 191.671 152.275 Q189.981 150.771 186.972 150.771 Q183.94 150.771 182.25 152.275 Q180.583 153.78 180.583 156.465 Z" fill="#000000" fill-rule="nonzero" fill-opacity="1" /><path clip-path="url(#clip740)" d="M68.277 1320.08 L97.5997 1330.75 L97.5997 1309.37 L68.277 1320.08 M101.975 1337.89 L63.0947 1323.05 L63.0947 1317.08 L101.975 1302.27 L101.975 1337.89 Z" fill="#000000" fill-rule="nonzero" fill-opacity="1" /><path clip-path="url(#clip740)" d="M76.1676 1268.54 Q76.1676 1272.4 79.1884 1274.64 Q82.1832 1276.87 87.4175 1276.87 Q92.6518 1276.87 95.6727 1274.66 Q98.6674 1272.42 98.6674 1268.54 Q98.6674 1264.71 95.6466 1262.47 Q92.6258 1260.23 87.4175 1260.23 Q82.2352 1260.23 79.2144 1262.47 Q76.1676 1264.71 76.1676 1268.54 M72.1051 1268.54 Q72.1051 1262.29 76.1676 1258.72 Q80.23 1255.16 87.4175 1255.16 Q94.5789 1255.16 98.6674 1258.72 Q102.73 1262.29 102.73 1268.54 Q102.73 1274.82 98.6674 1278.39 Q94.5789 1281.93 87.4175 1281.93 Q80.23 1281.93 76.1676 1278.39 Q72.1051 1274.82 72.1051 1268.54 Z" fill="#000000" fill-rule="nonzero" fill-opacity="1" /><path clip-path="url(#clip740)" d="M87.4175 1226.28 Q82.1311 1226.28 79.1363 1228.46 Q76.1155 1230.63 76.1155 1234.43 Q76.1155 1238.23 79.1363 1240.42 Q82.1311 1242.58 87.4175 1242.58 Q92.7039 1242.58 95.7247 1240.42 Q98.7195 1238.23 98.7195 1234.43 Q98.7195 1230.63 95.7247 1228.46 Q92.7039 1226.28 87.4175 1226.28 M77.2353 1242.58 Q74.6311 1241.07 73.3811 1238.78 Q72.1051 1236.46 72.1051 1233.26 Q72.1051 1227.94 76.3238 1224.64 Q80.5425 1221.3 87.4175 1221.3 Q94.2925 1221.3 98.5112 1224.64 Q102.73 1227.94 102.73 1233.26 Q102.73 1236.46 101.48 1238.78 Q100.204 1241.07 97.5997 1242.58 L101.975 1242.58 L101.975 1247.4 L61.4541 1247.4 L61.4541 1242.58 L77.2353 1242.58 Z" fill="#000000" fill-rule="nonzero" fill-opacity="1" /><path clip-path="url(#clip740)" d="M72.8082 1213.36 L72.8082 1208.57 L102.496 1208.57 Q108.068 1208.57 110.568 1210.7 Q113.068 1212.81 113.068 1217.53 L113.068 1219.35 L109.006 1219.35 L109.006 1218.07 Q109.006 1215.34 107.73 1214.35 Q106.48 1213.36 102.496 1213.36 L72.8082 1213.36 M61.4541 1213.36 L61.4541 1208.57 L67.5218 1208.57 L67.5218 1213.36 L61.4541 1213.36 Z" fill="#000000" fill-rule="nonzero" fill-opacity="1" /><path clip-path="url(#clip740)" d="M86.1935 1173.59 L88.5373 1173.59 L88.5373 1195.63 Q93.4852 1195.31 96.0893 1192.66 Q98.6674 1189.97 98.6674 1185.21 Q98.6674 1182.45 97.9904 1179.87 Q97.3133 1177.27 95.9591 1174.71 L100.49 1174.71 Q101.584 1177.29 102.157 1180 Q102.73 1182.71 102.73 1185.5 Q102.73 1192.47 98.6674 1196.56 Q94.605 1200.63 87.6779 1200.63 Q80.5165 1200.63 76.3238 1196.77 Q72.1051 1192.89 72.1051 1186.33 Q72.1051 1180.44 75.9071 1177.03 Q79.6832 1173.59 86.1935 1173.59 M84.7873 1178.39 Q80.855 1178.44 78.5113 1180.6 Q76.1676 1182.73 76.1676 1186.28 Q76.1676 1190.29 78.4332 1192.71 Q80.6988 1195.1 84.8133 1195.47 L84.7873 1178.39 Z" fill="#000000" fill-rule="nonzero" fill-opacity="1" /><path clip-path="url(#clip740)" d="M73.928 1144.74 L78.4071 1144.74 Q77.2873 1146.77 76.7405 1148.83 Q76.1676 1150.86 76.1676 1152.94 Q76.1676 1157.6 79.1363 1160.18 Q82.079 1162.76 87.4175 1162.76 Q92.756 1162.76 95.7247 1160.18 Q98.6674 1157.6 98.6674 1152.94 Q98.6674 1150.86 98.1206 1148.83 Q97.5477 1146.77 96.4279 1144.74 L100.855 1144.74 Q101.792 1146.75 102.261 1148.91 Q102.73 1151.04 102.73 1153.46 Q102.73 1160.05 98.5893 1163.93 Q94.4487 1167.81 87.4175 1167.81 Q80.2821 1167.81 76.1936 1163.91 Q72.1051 1159.97 72.1051 1153.15 Q72.1051 1150.94 72.5738 1148.83 Q73.0165 1146.72 73.928 1144.74 Z" fill="#000000" fill-rule="nonzero" fill-opacity="1" /><path clip-path="url(#clip740)" d="M64.527 1131.67 L72.8082 1131.67 L72.8082 1121.8 L76.5321 1121.8 L76.5321 1131.67 L92.3654 1131.67 Q95.9331 1131.67 96.9487 1130.7 Q97.9643 1129.71 97.9643 1126.72 L97.9643 1121.8 L101.975 1121.8 L101.975 1126.72 Q101.975 1132.27 99.9174 1134.38 Q97.8341 1136.49 92.3654 1136.49 L76.5321 1136.49 L76.5321 1140 L72.8082 1140 L72.8082 1136.49 L64.527 1136.49 L64.527 1131.67 Z" fill="#000000" fill-rule="nonzero" fill-opacity="1" /><path clip-path="url(#clip740)" d="M72.8082 1115.5 L72.8082 1110.7 L101.975 1110.7 L101.975 1115.5 L72.8082 1115.5 M61.4541 1115.5 L61.4541 1110.7 L67.5218 1110.7 L67.5218 1115.5 L61.4541 1115.5 Z" fill="#000000" fill-rule="nonzero" fill-opacity="1" /><path clip-path="url(#clip740)" d="M72.8082 1104.12 L72.8082 1099.04 L97.2872 1089.92 L72.8082 1080.81 L72.8082 1075.73 L101.975 1086.67 L101.975 1093.18 L72.8082 1104.12 Z" fill="#000000" fill-rule="nonzero" fill-opacity="1" /><path clip-path="url(#clip740)" d="M86.1935 1044.17 L88.5373 1044.17 L88.5373 1066.2 Q93.4852 1065.89 96.0893 1063.23 Q98.6674 1060.55 98.6674 1055.78 Q98.6674 1053.02 97.9904 1050.44 Q97.3133 1047.84 95.9591 1045.29 L100.49 1045.29 Q101.584 1047.87 102.157 1050.57 Q102.73 1053.28 102.73 1056.07 Q102.73 1063.05 98.6674 1067.14 Q94.605 1071.2 87.6779 1071.2 Q80.5165 1071.2 76.3238 1067.34 Q72.1051 1063.46 72.1051 1056.9 Q72.1051 1051.02 75.9071 1047.61 Q79.6832 1044.17 86.1935 1044.17 M84.7873 1048.96 Q80.855 1049.01 78.5113 1051.17 Q76.1676 1053.31 76.1676 1056.85 Q76.1676 1060.86 78.4332 1063.28 Q80.6988 1065.68 84.8133 1066.04 L84.7873 1048.96 Z" fill="#000000" fill-rule="nonzero" fill-opacity="1" /><g clip-path="url(#clip740)">
<text style="fill:#000000; fill-opacity:1; font-family:Century Gothic,CenturyGothic,AppleGothic,sans-serif; font-size:58px; text-anchor:middle;" transform="rotate(0, 2082.17, 51.6)" x="2082.17" y="51.6">C_c0 | Identifiable</text>
</g>
<polyline clip-path="url(#clip741)" style="stroke:#595959; stroke-linecap:round; stroke-linejoin:round; stroke-width:6.8; stroke-opacity:0.95; fill:none" points="258.824,1177.91 353.071,1222.15 388.33,1240.39 391.862,1242.18 1296.18,1865.26 1907.88,2233.75 "/>
<polyline clip-path="url(#clip741)" style="stroke:#595959; stroke-linecap:round; stroke-linejoin:round; stroke-width:6.8; stroke-opacity:0.95; fill:none" points="1907.88,2233.75 2519.57,1929.56 3087.48,1259.92 3103.29,1267.54 3124.42,1240.3 3714.99,480.569 3905.51,247.619 "/>
<polyline clip-path="url(#clip741)" style="stroke:#3cb371; stroke-linecap:round; stroke-linejoin:round; stroke-width:7.2; stroke-opacity:1; fill:none" stroke-dasharray="29, 18" points="-3387.86,1240.36 7552.2,1240.36 "/>
<polyline clip-path="url(#clip741)" style="stroke:#000000; stroke-linecap:round; stroke-linejoin:round; stroke-width:4.8; stroke-opacity:1; fill:none" stroke-dasharray="2, 5" points="388.33,4319.18 388.33,-1937.12 "/>
<polyline clip-path="url(#clip741)" style="stroke:#000000; stroke-linecap:round; stroke-linejoin:round; stroke-width:4.8; stroke-opacity:1; fill:none" stroke-dasharray="2, 5" points="3124.42,4319.18 3124.42,-1937.12 "/>
<path clip-path="url(#clip741)" d="M1907.88 2215.75 L1889.88 2233.75 L1907.88 2251.75 L1925.88 2233.75 L1907.88 2215.75 Z" fill="#000000" fill-rule="evenodd" fill-opacity="1" stroke="none"/>
</svg>
