<?xml version="1.0" encoding="utf-8"?>
<svg xmlns="http://www.w3.org/2000/svg" xmlns:xlink="http://www.w3.org/1999/xlink" width="600" height="400" viewBox="0 0 2400 1600">
<defs>
  <clipPath id="clip530">
    <rect x="0" y="0" width="2400" height="1600"/>
  </clipPath>
</defs>
<path clip-path="url(#clip530)" d="M0 1600 L2400 1600 L2400 0 L0 0  Z" fill="#ffffff" fill-rule="evenodd" fill-opacity="1"/>
<defs>
  <clipPath id="clip531">
    <rect x="480" y="0" width="1681" height="1600"/>
  </clipPath>
</defs>
<path clip-path="url(#clip530)" d="M249.542 1423.18 L2352.76 1423.18 L2352.76 123.472 L249.542 123.472  Z" fill="#ffffff" fill-rule="evenodd" fill-opacity="1"/>
<defs>
  <clipPath id="clip532">
    <rect x="249" y="123" width="2104" height="1301"/>
  </clipPath>
</defs>
<polyline clip-path="url(#clip532)" style="stroke:#000000; stroke-linecap:round; stroke-linejoin:round; stroke-width:2; stroke-opacity:0.1; fill:none" points="271.521,1423.18 271.521,123.472 "/>
<polyline clip-path="url(#clip532)" style="stroke:#000000; stroke-linecap:round; stroke-linejoin:round; stroke-width:2; stroke-opacity:0.1; fill:none" points="849.152,1423.18 849.152,123.472 "/>
<polyline clip-path="url(#clip532)" style="stroke:#000000; stroke-linecap:round; stroke-linejoin:round; stroke-width:2; stroke-opacity:0.1; fill:none" points="1426.78,1423.18 1426.78,123.472 "/>
<polyline clip-path="url(#clip532)" style="stroke:#000000; stroke-linecap:round; stroke-linejoin:round; stroke-width:2; stroke-opacity:0.1; fill:none" points="2004.42,1423.18 2004.42,123.472 "/>
<polyline clip-path="url(#clip532)" style="stroke:#000000; stroke-linecap:round; stroke-linejoin:round; stroke-width:2; stroke-opacity:0.1; fill:none" points="249.542,1386.4 2352.76,1386.4 "/>
<polyline clip-path="url(#clip532)" style="stroke:#000000; stroke-linecap:round; stroke-linejoin:round; stroke-width:2; stroke-opacity:0.1; fill:none" points="249.542,1005.42 2352.76,1005.42 "/>
<polyline clip-path="url(#clip532)" style="stroke:#000000; stroke-linecap:round; stroke-linejoin:round; stroke-width:2; stroke-opacity:0.1; fill:none" points="249.542,624.438 2352.76,624.438 "/>
<polyline clip-path="url(#clip532)" style="stroke:#000000; stroke-linecap:round; stroke-linejoin:round; stroke-width:2; stroke-opacity:0.1; fill:none" points="249.542,243.459 2352.76,243.459 "/>
<polyline clip-path="url(#clip530)" style="stroke:#000000; stroke-linecap:round; stroke-linejoin:round; stroke-width:4; stroke-opacity:1; fill:none" points="249.542,1423.18 2352.76,1423.18 "/>
<polyline clip-path="url(#clip530)" style="stroke:#000000; stroke-linecap:round; stroke-linejoin:round; stroke-width:4; stroke-opacity:1; fill:none" points="271.521,1423.18 271.521,1404.28 "/>
<polyline clip-path="url(#clip530)" style="stroke:#000000; stroke-linecap:round; stroke-linejoin:round; stroke-width:4; stroke-opacity:1; fill:none" points="849.152,1423.18 849.152,1404.28 "/>
<polyline clip-path="url(#clip530)" style="stroke:#000000; stroke-linecap:round; stroke-linejoin:round; stroke-width:4; stroke-opacity:1; fill:none" points="1426.78,1423.18 1426.78,1404.28 "/>
<polyline clip-path="url(#clip530)" style="stroke:#000000; stroke-linecap:round; stroke-linejoin:round; stroke-width:4; stroke-opacity:1; fill:none" points="2004.42,1423.18 2004.42,1404.28 "/>
<path clip-path="url(#clip530)" d="M271.521 1454.1 Q267.91 1454.1 266.081 1457.66 Q264.276 1461.2 264.276 1468.33 Q264.276 1475.44 266.081 1479.01 Q267.91 1482.55 271.521 1482.55 Q275.155 1482.55 276.961 1479.01 Q278.789 1475.44 278.789 1468.33 Q278.789 1461.2 276.961 1457.66 Q275.155 1454.1 271.521 1454.1 M271.521 1450.39 Q277.331 1450.39 280.387 1455 Q283.465 1459.58 283.465 1468.33 Q283.465 1477.06 280.387 1481.67 Q277.331 1486.25 271.521 1486.25 Q265.711 1486.25 262.632 1481.67 Q259.577 1477.06 259.577 1468.33 Q259.577 1459.58 262.632 1455 Q265.711 1450.39 271.521 1450.39 Z" fill="#000000" fill-rule="nonzero" fill-opacity="1" /><path clip-path="url(#clip530)" d="M823.84 1481.64 L831.479 1481.64 L831.479 1455.28 L823.169 1456.95 L823.169 1452.69 L831.433 1451.02 L836.108 1451.02 L836.108 1481.64 L843.747 1481.64 L843.747 1485.58 L823.84 1485.58 L823.84 1481.64 Z" fill="#000000" fill-rule="nonzero" fill-opacity="1" /><path clip-path="url(#clip530)" d="M863.192 1454.1 Q859.581 1454.1 857.752 1457.66 Q855.946 1461.2 855.946 1468.33 Q855.946 1475.44 857.752 1479.01 Q859.581 1482.55 863.192 1482.55 Q866.826 1482.55 868.631 1479.01 Q870.46 1475.44 870.46 1468.33 Q870.46 1461.2 868.631 1457.66 Q866.826 1454.1 863.192 1454.1 M863.192 1450.39 Q869.002 1450.39 872.057 1455 Q875.136 1459.58 875.136 1468.33 Q875.136 1477.06 872.057 1481.67 Q869.002 1486.25 863.192 1486.25 Q857.381 1486.25 854.303 1481.67 Q851.247 1477.06 851.247 1468.33 Q851.247 1459.58 854.303 1455 Q857.381 1450.39 863.192 1450.39 Z" fill="#000000" fill-rule="nonzero" fill-opacity="1" /><path clip-path="url(#clip530)" d="M1405.56 1481.64 L1421.88 1481.64 L1421.88 1485.58 L1399.93 1485.58 L1399.93 1481.64 Q1402.59 1478.89 1407.18 1474.26 Q1411.78 1469.61 1412.96 1468.27 Q1415.21 1465.74 1416.09 1464.01 Q1416.99 1462.25 1416.99 1460.56 Q1416.99 1457.8 1415.05 1456.07 Q1413.13 1454.33 1410.02 1454.33 Q1407.83 1454.33 1405.37 1455.09 Q1402.94 1455.86 1400.16 1457.41 L1400.16 1452.69 Q1402.99 1451.55 1405.44 1450.97 Q1407.9 1450.39 1409.93 1450.39 Q1415.3 1450.39 1418.5 1453.08 Q1421.69 1455.77 1421.69 1460.26 Q1421.69 1462.39 1420.88 1464.31 Q1420.09 1466.2 1417.99 1468.8 Q1417.41 1469.47 1414.31 1472.69 Q1411.21 1475.88 1405.56 1481.64 Z" fill="#000000" fill-rule="nonzero" fill-opacity="1" /><path clip-path="url(#clip530)" d="M1441.69 1454.1 Q1438.08 1454.1 1436.25 1457.66 Q1434.45 1461.2 1434.45 1468.33 Q1434.45 1475.44 1436.25 1479.01 Q1438.08 1482.55 1441.69 1482.55 Q1445.33 1482.55 1447.13 1479.01 Q1448.96 1475.44 1448.96 1468.33 Q1448.96 1461.2 1447.13 1457.66 Q1445.33 1454.1 1441.69 1454.1 M1441.69 1450.39 Q1447.5 1450.39 1450.56 1455 Q1453.64 1459.58 1453.64 1468.33 Q1453.64 1477.06 1450.56 1481.67 Q1447.5 1486.25 1441.69 1486.25 Q1435.88 1486.25 1432.8 1481.67 Q1429.75 1477.06 1429.75 1468.33 Q1429.75 1459.58 1432.8 1455 Q1435.88 1450.39 1441.69 1450.39 Z" fill="#000000" fill-rule="nonzero" fill-opacity="1" /><path clip-path="url(#clip530)" d="M1993.26 1466.95 Q1996.61 1467.66 1998.49 1469.93 Q2000.39 1472.2 2000.39 1475.53 Q2000.39 1480.65 1996.87 1483.45 Q1993.35 1486.25 1986.87 1486.25 Q1984.69 1486.25 1982.38 1485.81 Q1980.09 1485.39 1977.63 1484.54 L1977.63 1480.02 Q1979.58 1481.16 1981.89 1481.74 Q1984.21 1482.32 1986.73 1482.32 Q1991.13 1482.32 1993.42 1480.58 Q1995.73 1478.84 1995.73 1475.53 Q1995.73 1472.48 1993.58 1470.77 Q1991.45 1469.03 1987.63 1469.03 L1983.61 1469.03 L1983.61 1465.19 L1987.82 1465.19 Q1991.27 1465.19 1993.1 1463.82 Q1994.92 1462.43 1994.92 1459.84 Q1994.92 1457.18 1993.03 1455.77 Q1991.15 1454.33 1987.63 1454.33 Q1985.71 1454.33 1983.51 1454.75 Q1981.31 1455.16 1978.67 1456.04 L1978.67 1451.88 Q1981.34 1451.14 1983.65 1450.77 Q1985.99 1450.39 1988.05 1450.39 Q1993.37 1450.39 1996.48 1452.83 Q1999.58 1455.23 1999.58 1459.35 Q1999.58 1462.22 1997.93 1464.21 Q1996.29 1466.18 1993.26 1466.95 Z" fill="#000000" fill-rule="nonzero" fill-opacity="1" /><path clip-path="url(#clip530)" d="M2019.25 1454.1 Q2015.64 1454.1 2013.81 1457.66 Q2012.01 1461.2 2012.01 1468.33 Q2012.01 1475.44 2013.81 1479.01 Q2015.64 1482.55 2019.25 1482.55 Q2022.89 1482.55 2024.69 1479.01 Q2026.52 1475.44 2026.52 1468.33 Q2026.52 1461.2 2024.69 1457.66 Q2022.89 1454.1 2019.25 1454.1 M2019.25 1450.39 Q2025.06 1450.39 2028.12 1455 Q2031.2 1459.58 2031.2 1468.33 Q2031.2 1477.06 2028.12 1481.67 Q2025.06 1486.25 2019.25 1486.25 Q2013.44 1486.25 2010.36 1481.67 Q2007.31 1477.06 2007.31 1468.33 Q2007.31 1459.58 2010.36 1455 Q2013.44 1450.39 2019.25 1450.39 Z" fill="#000000" fill-rule="nonzero" fill-opacity="1" /><path clip-path="url(#clip530)" d="M1223.03 1520.52 L1263.23 1520.52 L1263.23 1525.93 L1246.36 1525.93 L1246.36 1568.04 L1239.89 1568.04 L1239.89 1525.93 L1223.03 1525.93 L1223.03 1520.52 Z" fill="#000000" fill-rule="nonzero" fill-opacity="1" /><path clip-path="url(#clip530)" d="M1267.17 1532.4 L1273.03 1532.4 L1273.03 1568.04 L1267.17 1568.04 L1267.17 1532.4 M1267.17 1518.52 L1273.03 1518.52 L1273.03 1525.93 L1267.17 1525.93 L1267.17 1518.52 Z" fill="#000000" fill-rule="nonzero" fill-opacity="1" /><path clip-path="url(#clip530)" d="M1313.04 1539.24 Q1315.23 1535.29 1318.29 1533.41 Q1321.34 1531.54 1325.48 1531.54 Q1331.05 1531.54 1334.08 1535.45 Q1337.1 1539.33 1337.1 1546.53 L1337.1 1568.04 L1331.21 1568.04 L1331.21 1546.72 Q1331.21 1541.59 1329.4 1539.11 Q1327.58 1536.63 1323.86 1536.63 Q1319.31 1536.63 1316.67 1539.65 Q1314.02 1542.68 1314.02 1547.9 L1314.02 1568.04 L1308.14 1568.04 L1308.14 1546.72 Q1308.14 1541.56 1306.32 1539.11 Q1304.51 1536.63 1300.72 1536.63 Q1296.23 1536.63 1293.59 1539.68 Q1290.95 1542.71 1290.95 1547.9 L1290.95 1568.04 L1285.06 1568.04 L1285.06 1532.4 L1290.95 1532.4 L1290.95 1537.93 Q1292.95 1534.66 1295.75 1533.1 Q1298.55 1531.54 1302.41 1531.54 Q1306.29 1531.54 1308.99 1533.51 Q1311.73 1535.48 1313.04 1539.24 Z" fill="#000000" fill-rule="nonzero" fill-opacity="1" /><path clip-path="url(#clip530)" d="M1379.27 1548.76 L1379.27 1551.62 L1352.35 1551.62 Q1352.73 1557.67 1355.97 1560.85 Q1359.25 1564 1365.08 1564 Q1368.45 1564 1371.6 1563.17 Q1374.78 1562.35 1377.9 1560.69 L1377.9 1566.23 Q1374.75 1567.57 1371.44 1568.27 Q1368.13 1568.97 1364.73 1568.97 Q1356.2 1568.97 1351.2 1564 Q1346.23 1559.04 1346.23 1550.57 Q1346.23 1541.82 1350.94 1536.69 Q1355.69 1531.54 1363.71 1531.54 Q1370.9 1531.54 1375.07 1536.18 Q1379.27 1540.8 1379.27 1548.76 M1373.42 1547.04 Q1373.35 1542.23 1370.71 1539.37 Q1368.1 1536.5 1363.77 1536.5 Q1358.87 1536.5 1355.91 1539.27 Q1352.98 1542.04 1352.54 1547.07 L1373.42 1547.04 Z" fill="#000000" fill-rule="nonzero" fill-opacity="1" /><polyline clip-path="url(#clip530)" style="stroke:#000000; stroke-linecap:round; stroke-linejoin:round; stroke-width:4; stroke-opacity:1; fill:none" points="249.542,1423.18 249.542,123.472 "/>
<polyline clip-path="url(#clip530)" style="stroke:#000000; stroke-linecap:round; stroke-linejoin:round; stroke-width:4; stroke-opacity:1; fill:none" points="249.542,1386.4 268.44,1386.4 "/>
<polyline clip-path="url(#clip530)" style="stroke:#000000; stroke-linecap:round; stroke-linejoin:round; stroke-width:4; stroke-opacity:1; fill:none" points="249.542,1005.42 268.44,1005.42 "/>
<polyline clip-path="url(#clip530)" style="stroke:#000000; stroke-linecap:round; stroke-linejoin:round; stroke-width:4; stroke-opacity:1; fill:none" points="249.542,624.438 268.44,624.438 "/>
<polyline clip-path="url(#clip530)" style="stroke:#000000; stroke-linecap:round; stroke-linejoin:round; stroke-width:4; stroke-opacity:1; fill:none" points="249.542,243.459 268.44,243.459 "/>
<path clip-path="url(#clip530)" d="M126.205 1372.19 Q122.593 1372.19 120.765 1375.76 Q118.959 1379.3 118.959 1386.43 Q118.959 1393.54 120.765 1397.1 Q122.593 1400.64 126.205 1400.64 Q129.839 1400.64 131.644 1397.1 Q133.473 1393.54 133.473 1386.43 Q133.473 1379.3 131.644 1375.76 Q129.839 1372.19 126.205 1372.19 M126.205 1368.49 Q132.015 1368.49 135.07 1373.1 Q138.149 1377.68 138.149 1386.43 Q138.149 1395.16 135.07 1399.76 Q132.015 1404.35 126.205 1404.35 Q120.394 1404.35 117.316 1399.76 Q114.26 1395.16 114.26 1386.43 Q114.26 1377.68 117.316 1373.1 Q120.394 1368.49 126.205 1368.49 Z" fill="#000000" fill-rule="nonzero" fill-opacity="1" /><path clip-path="url(#clip530)" d="M146.366 1397.8 L151.251 1397.8 L151.251 1403.68 L146.366 1403.68 L146.366 1397.8 Z" fill="#000000" fill-rule="nonzero" fill-opacity="1" /><path clip-path="url(#clip530)" d="M171.436 1372.19 Q167.825 1372.19 165.996 1375.76 Q164.19 1379.3 164.19 1386.43 Q164.19 1393.54 165.996 1397.1 Q167.825 1400.64 171.436 1400.64 Q175.07 1400.64 176.876 1397.1 Q178.704 1393.54 178.704 1386.43 Q178.704 1379.3 176.876 1375.76 Q175.07 1372.19 171.436 1372.19 M171.436 1368.49 Q177.246 1368.49 180.301 1373.1 Q183.38 1377.68 183.38 1386.43 Q183.38 1395.16 180.301 1399.76 Q177.246 1404.35 171.436 1404.35 Q165.626 1404.35 162.547 1399.76 Q159.491 1395.16 159.491 1386.43 Q159.491 1377.68 162.547 1373.1 Q165.626 1368.49 171.436 1368.49 Z" fill="#000000" fill-rule="nonzero" fill-opacity="1" /><path clip-path="url(#clip530)" d="M201.598 1372.19 Q197.987 1372.19 196.158 1375.76 Q194.352 1379.3 194.352 1386.43 Q194.352 1393.54 196.158 1397.1 Q197.987 1400.64 201.598 1400.64 Q205.232 1400.64 207.037 1397.1 Q208.866 1393.54 208.866 1386.43 Q208.866 1379.3 207.037 1375.76 Q205.232 1372.19 201.598 1372.19 M201.598 1368.49 Q207.408 1368.49 210.463 1373.1 Q213.542 1377.68 213.542 1386.43 Q213.542 1395.16 210.463 1399.76 Q207.408 1404.35 201.598 1404.35 Q195.787 1404.35 192.709 1399.76 Q189.653 1395.16 189.653 1386.43 Q189.653 1377.68 192.709 1373.1 Q195.787 1368.49 201.598 1368.49 Z" fill="#000000" fill-rule="nonzero" fill-opacity="1" /><path clip-path="url(#clip530)" d="M127.2 991.216 Q123.589 991.216 121.76 994.78 Q119.955 998.322 119.955 1005.45 Q119.955 1012.56 121.76 1016.12 Q123.589 1019.66 127.2 1019.66 Q130.834 1019.66 132.64 1016.12 Q134.468 1012.56 134.468 1005.45 Q134.468 998.322 132.64 994.78 Q130.834 991.216 127.2 991.216 M127.2 987.512 Q133.01 987.512 136.066 992.118 Q139.144 996.702 139.144 1005.45 Q139.144 1014.18 136.066 1018.78 Q133.01 1023.37 127.2 1023.37 Q121.39 1023.37 118.311 1018.78 Q115.256 1014.18 115.256 1005.45 Q115.256 996.702 118.311 992.118 Q121.39 987.512 127.2 987.512 Z" fill="#000000" fill-rule="nonzero" fill-opacity="1" /><path clip-path="url(#clip530)" d="M147.362 1016.82 L152.246 1016.82 L152.246 1022.7 L147.362 1022.7 L147.362 1016.82 Z" fill="#000000" fill-rule="nonzero" fill-opacity="1" /><path clip-path="url(#clip530)" d="M172.431 991.216 Q168.82 991.216 166.991 994.78 Q165.186 998.322 165.186 1005.45 Q165.186 1012.56 166.991 1016.12 Q168.82 1019.66 172.431 1019.66 Q176.065 1019.66 177.871 1016.12 Q179.7 1012.56 179.7 1005.45 Q179.7 998.322 177.871 994.78 Q176.065 991.216 172.431 991.216 M172.431 987.512 Q178.241 987.512 181.297 992.118 Q184.376 996.702 184.376 1005.45 Q184.376 1014.18 181.297 1018.78 Q178.241 1023.37 172.431 1023.37 Q166.621 1023.37 163.542 1018.78 Q160.487 1014.18 160.487 1005.45 Q160.487 996.702 163.542 992.118 Q166.621 987.512 172.431 987.512 Z" fill="#000000" fill-rule="nonzero" fill-opacity="1" /><path clip-path="url(#clip530)" d="M192.639 988.137 L210.996 988.137 L210.996 992.072 L196.922 992.072 L196.922 1000.54 Q197.94 1000.2 198.959 1000.03 Q199.977 999.85 200.996 999.85 Q206.783 999.85 210.162 1003.02 Q213.542 1006.19 213.542 1011.61 Q213.542 1017.19 210.07 1020.29 Q206.598 1023.37 200.278 1023.37 Q198.102 1023.37 195.834 1023 Q193.588 1022.63 191.181 1021.89 L191.181 1017.19 Q193.264 1018.32 195.487 1018.88 Q197.709 1019.43 200.186 1019.43 Q204.19 1019.43 206.528 1017.33 Q208.866 1015.22 208.866 1011.61 Q208.866 1008 206.528 1005.89 Q204.19 1003.78 200.186 1003.78 Q198.311 1003.78 196.436 1004.2 Q194.584 1004.62 192.639 1005.5 L192.639 988.137 Z" fill="#000000" fill-rule="nonzero" fill-opacity="1" /><path clip-path="url(#clip530)" d="M126.205 610.237 Q122.593 610.237 120.765 613.802 Q118.959 617.343 118.959 624.473 Q118.959 631.579 120.765 635.144 Q122.593 638.686 126.205 638.686 Q129.839 638.686 131.644 635.144 Q133.473 631.579 133.473 624.473 Q133.473 617.343 131.644 613.802 Q129.839 610.237 126.205 610.237 M126.205 606.533 Q132.015 606.533 135.07 611.14 Q138.149 615.723 138.149 624.473 Q138.149 633.2 135.07 637.806 Q132.015 642.389 126.205 642.389 Q120.394 642.389 117.316 637.806 Q114.26 633.2 114.26 624.473 Q114.26 615.723 117.316 611.14 Q120.394 606.533 126.205 606.533 Z" fill="#000000" fill-rule="nonzero" fill-opacity="1" /><path clip-path="url(#clip530)" d="M146.366 635.839 L151.251 635.839 L151.251 641.718 L146.366 641.718 L146.366 635.839 Z" fill="#000000" fill-rule="nonzero" fill-opacity="1" /><path clip-path="url(#clip530)" d="M162.246 637.783 L169.885 637.783 L169.885 611.417 L161.575 613.084 L161.575 608.825 L169.839 607.158 L174.514 607.158 L174.514 637.783 L182.153 637.783 L182.153 641.718 L162.246 641.718 L162.246 637.783 Z" fill="#000000" fill-rule="nonzero" fill-opacity="1" /><path clip-path="url(#clip530)" d="M201.598 610.237 Q197.987 610.237 196.158 613.802 Q194.352 617.343 194.352 624.473 Q194.352 631.579 196.158 635.144 Q197.987 638.686 201.598 638.686 Q205.232 638.686 207.037 635.144 Q208.866 631.579 208.866 624.473 Q208.866 617.343 207.037 613.802 Q205.232 610.237 201.598 610.237 M201.598 606.533 Q207.408 606.533 210.463 611.14 Q213.542 615.723 213.542 624.473 Q213.542 633.2 210.463 637.806 Q207.408 642.389 201.598 642.389 Q195.787 642.389 192.709 637.806 Q189.653 633.2 189.653 624.473 Q189.653 615.723 192.709 611.14 Q195.787 606.533 201.598 606.533 Z" fill="#000000" fill-rule="nonzero" fill-opacity="1" /><path clip-path="url(#clip530)" d="M127.2 229.258 Q123.589 229.258 121.76 232.823 Q119.955 236.364 119.955 243.494 Q119.955 250.601 121.76 254.165 Q123.589 257.707 127.2 257.707 Q130.834 257.707 132.64 254.165 Q134.468 250.601 134.468 243.494 Q134.468 236.364 132.64 232.823 Q130.834 229.258 127.2 229.258 M127.2 225.554 Q133.01 225.554 136.066 230.161 Q139.144 234.744 139.144 243.494 Q139.144 252.221 136.066 256.827 Q133.01 261.411 127.2 261.411 Q121.39 261.411 118.311 256.827 Q115.256 252.221 115.256 243.494 Q115.256 234.744 118.311 230.161 Q121.39 225.554 127.2 225.554 Z" fill="#000000" fill-rule="nonzero" fill-opacity="1" /><path clip-path="url(#clip530)" d="M147.362 254.86 L152.246 254.86 L152.246 260.739 L147.362 260.739 L147.362 254.86 Z" fill="#000000" fill-rule="nonzero" fill-opacity="1" /><path clip-path="url(#clip530)" d="M163.241 256.804 L170.88 256.804 L170.88 230.439 L162.57 232.105 L162.57 227.846 L170.834 226.179 L175.51 226.179 L175.51 256.804 L183.149 256.804 L183.149 260.739 L163.241 260.739 L163.241 256.804 Z" fill="#000000" fill-rule="nonzero" fill-opacity="1" /><path clip-path="url(#clip530)" d="M192.639 226.179 L210.996 226.179 L210.996 230.115 L196.922 230.115 L196.922 238.587 Q197.94 238.239 198.959 238.077 Q199.977 237.892 200.996 237.892 Q206.783 237.892 210.162 241.064 Q213.542 244.235 213.542 249.651 Q213.542 255.23 210.07 258.332 Q206.598 261.411 200.278 261.411 Q198.102 261.411 195.834 261.04 Q193.588 260.67 191.181 259.929 L191.181 255.23 Q193.264 256.364 195.487 256.92 Q197.709 257.475 200.186 257.475 Q204.19 257.475 206.528 255.369 Q208.866 253.263 208.866 249.651 Q208.866 246.04 206.528 243.934 Q204.19 241.827 200.186 241.827 Q198.311 241.827 196.436 242.244 Q194.584 242.661 192.639 243.54 L192.639 226.179 Z" fill="#000000" fill-rule="nonzero" fill-opacity="1" /><path clip-path="url(#clip530)" d="M20.1444 820.225 L26.9239 820.225 Q23.9002 823.472 22.4043 827.164 Q20.9083 830.824 20.9083 834.962 Q20.9083 843.11 25.9054 847.439 Q30.8707 851.767 40.2919 851.767 Q49.6813 851.767 54.6784 847.439 Q59.6436 843.11 59.6436 834.962 Q59.6436 830.824 58.1477 827.164 Q56.6518 823.472 53.6281 820.225 L60.3439 820.225 Q62.6355 823.599 63.7814 827.387 Q64.9272 831.143 64.9272 835.344 Q64.9272 846.134 58.3387 852.34 Q51.7183 858.547 40.2919 858.547 Q28.8336 858.547 22.2451 852.34 Q15.6248 846.134 15.6248 835.344 Q15.6248 831.079 16.7706 827.323 Q17.8846 823.535 20.1444 820.225 Z" fill="#000000" fill-rule="nonzero" fill-opacity="1" /><path clip-path="url(#clip530)" d="M16.4842 816.883 L16.4842 776.684 L21.895 776.684 L21.895 793.553 L64.0042 793.553 L64.0042 800.014 L21.895 800.014 L21.895 816.883 L16.4842 816.883 Z" fill="#000000" fill-rule="nonzero" fill-opacity="1" /><path clip-path="url(#clip530)" d="M16.4842 770.477 L16.4842 761.82 L56.238 740.749 L16.4842 740.749 L16.4842 734.511 L64.0042 734.511 L64.0042 743.168 L24.2503 764.239 L64.0042 764.239 L64.0042 770.477 L16.4842 770.477 Z" fill="#000000" fill-rule="nonzero" fill-opacity="1" /><path clip-path="url(#clip530)" d="M16.4842 728.305 L16.4842 688.105 L21.895 688.105 L21.895 704.974 L64.0042 704.974 L64.0042 711.435 L21.895 711.435 L21.895 728.305 L16.4842 728.305 Z" fill="#000000" fill-rule="nonzero" fill-opacity="1" /><path clip-path="url(#clip530)" d="M1026.68 18.8205 L1026.68 41.5461 L1036.97 41.5461 Q1042.68 41.5461 1045.8 38.5889 Q1048.92 35.6318 1048.92 30.163 Q1048.92 24.7348 1045.8 21.7777 Q1042.68 18.8205 1036.97 18.8205 L1026.68 18.8205 M1018.5 12.096 L1036.97 12.096 Q1047.14 12.096 1052.32 16.714 Q1057.55 21.2916 1057.55 30.163 Q1057.55 39.1155 1052.32 43.6931 Q1047.14 48.2706 1036.97 48.2706 L1026.68 48.2706 L1026.68 72.576 L1018.5 72.576 L1018.5 12.096 Z" fill="#000000" fill-rule="nonzero" fill-opacity="1" /><path clip-path="url(#clip530)" d="M1085.09 49.7694 Q1076.06 49.7694 1072.58 51.8354 Q1069.09 53.9013 1069.09 58.8839 Q1069.09 62.8538 1071.69 65.2034 Q1074.32 67.5124 1078.82 67.5124 Q1085.01 67.5124 1088.74 63.1374 Q1092.51 58.7219 1092.51 51.4303 L1092.51 49.7694 L1085.09 49.7694 M1099.96 46.6907 L1099.96 72.576 L1092.51 72.576 L1092.51 65.6895 Q1089.96 69.8214 1086.15 71.8063 Q1082.34 73.7508 1076.83 73.7508 Q1069.86 73.7508 1065.73 69.8619 Q1061.64 65.9325 1061.64 59.3701 Q1061.64 51.7138 1066.74 47.825 Q1071.89 43.9361 1082.06 43.9361 L1092.51 43.9361 L1092.51 43.2069 Q1092.51 38.0623 1089.1 35.2672 Q1085.74 32.4315 1079.63 32.4315 Q1075.74 32.4315 1072.05 33.3632 Q1068.36 34.295 1064.96 36.1584 L1064.96 29.2718 Q1069.05 27.692 1072.9 26.9223 Q1076.75 26.1121 1080.39 26.1121 Q1090.24 26.1121 1095.1 31.2163 Q1099.96 36.3204 1099.96 46.6907 Z" fill="#000000" fill-rule="nonzero" fill-opacity="1" /><path clip-path="url(#clip530)" d="M1122.69 14.324 L1122.69 27.2059 L1138.04 27.2059 L1138.04 32.9987 L1122.69 32.9987 L1122.69 57.6282 Q1122.69 63.1779 1124.19 64.7578 Q1125.72 66.3376 1130.38 66.3376 L1138.04 66.3376 L1138.04 72.576 L1130.38 72.576 Q1121.75 72.576 1118.47 69.3758 Q1115.19 66.1351 1115.19 57.6282 L1115.19 32.9987 L1109.72 32.9987 L1109.72 27.2059 L1115.19 27.2059 L1115.19 14.324 L1122.69 14.324 Z" fill="#000000" fill-rule="nonzero" fill-opacity="1" /><path clip-path="url(#clip530)" d="M1147.84 27.2059 L1155.3 27.2059 L1155.3 72.576 L1147.84 72.576 L1147.84 27.2059 M1147.84 9.54393 L1155.3 9.54393 L1155.3 18.9825 L1147.84 18.9825 L1147.84 9.54393 Z" fill="#000000" fill-rule="nonzero" fill-opacity="1" /><path clip-path="url(#clip530)" d="M1209.7 48.0275 L1209.7 51.6733 L1175.43 51.6733 Q1175.92 59.3701 1180.05 63.421 Q1184.22 67.4314 1191.63 67.4314 Q1195.93 67.4314 1199.94 66.3781 Q1203.99 65.3249 1207.96 63.2184 L1207.96 70.267 Q1203.95 71.9684 1199.73 72.8596 Q1195.52 73.7508 1191.19 73.7508 Q1180.33 73.7508 1173.97 67.4314 Q1167.65 61.1119 1167.65 50.3365 Q1167.65 39.1965 1173.65 32.6746 Q1179.68 26.1121 1189.89 26.1121 Q1199.05 26.1121 1204.35 32.0264 Q1209.7 37.9003 1209.7 48.0275 M1202.25 45.84 Q1202.17 39.7232 1198.8 36.0774 Q1195.48 32.4315 1189.97 32.4315 Q1183.73 32.4315 1179.97 35.9558 Q1176.24 39.4801 1175.67 45.8805 L1202.25 45.84 Z" fill="#000000" fill-rule="nonzero" fill-opacity="1" /><path clip-path="url(#clip530)" d="M1259.65 45.1919 L1259.65 72.576 L1252.19 72.576 L1252.19 45.4349 Q1252.19 38.994 1249.68 35.7938 Q1247.17 32.5936 1242.15 32.5936 Q1236.11 32.5936 1232.63 36.4419 Q1229.14 40.2903 1229.14 46.9338 L1229.14 72.576 L1221.65 72.576 L1221.65 27.2059 L1229.14 27.2059 L1229.14 34.2544 Q1231.82 30.163 1235.42 28.1376 Q1239.07 26.1121 1243.81 26.1121 Q1251.63 26.1121 1255.64 30.9732 Q1259.65 35.7938 1259.65 45.1919 Z" fill="#000000" fill-rule="nonzero" fill-opacity="1" /><path clip-path="url(#clip530)" d="M1281.89 14.324 L1281.89 27.2059 L1297.24 27.2059 L1297.24 32.9987 L1281.89 32.9987 L1281.89 57.6282 Q1281.89 63.1779 1283.39 64.7578 Q1284.93 66.3376 1289.58 66.3376 L1297.24 66.3376 L1297.24 72.576 L1289.58 72.576 Q1280.96 72.576 1277.67 69.3758 Q1274.39 66.1351 1274.39 57.6282 L1274.39 32.9987 L1268.92 32.9987 L1268.92 27.2059 L1274.39 27.2059 L1274.39 14.324 L1281.89 14.324 Z" fill="#000000" fill-rule="nonzero" fill-opacity="1" /><path clip-path="url(#clip530)" d="M1371.13 45.1919 L1371.13 72.576 L1363.67 72.576 L1363.67 45.4349 Q1363.67 38.994 1361.16 35.7938 Q1358.65 32.5936 1353.63 32.5936 Q1347.59 32.5936 1344.11 36.4419 Q1340.63 40.2903 1340.63 46.9338 L1340.63 72.576 L1333.13 72.576 L1333.13 27.2059 L1340.63 27.2059 L1340.63 34.2544 Q1343.3 30.163 1346.9 28.1376 Q1350.55 26.1121 1355.29 26.1121 Q1363.11 26.1121 1367.12 30.9732 Q1371.13 35.7938 1371.13 45.1919 Z" fill="#000000" fill-rule="nonzero" fill-opacity="1" /><path clip-path="url(#clip530)" d="M1388.47 65.6895 L1401.83 65.6895 L1401.83 19.5497 L1387.29 22.4663 L1387.29 15.0127 L1401.75 12.096 L1409.94 12.096 L1409.94 65.6895 L1423.3 65.6895 L1423.3 72.576 L1388.47 72.576 L1388.47 65.6895 Z" fill="#000000" fill-rule="nonzero" fill-opacity="1" /><path clip-path="url(#clip530)" d="M1446.88 65.6895 L1475.44 65.6895 L1475.44 72.576 L1437.04 72.576 L1437.04 65.6895 Q1441.7 60.8689 1449.72 52.7671 Q1457.78 44.6248 1459.84 42.2752 Q1463.77 37.8598 1465.31 34.8216 Q1466.89 31.7429 1466.89 28.7857 Q1466.89 23.9651 1463.49 20.927 Q1460.13 17.8888 1454.7 17.8888 Q1450.85 17.8888 1446.56 19.2256 Q1442.3 20.5624 1437.44 23.2765 L1437.44 15.0127 Q1442.38 13.0277 1446.68 12.015 Q1450.97 11.0023 1454.54 11.0023 Q1463.93 11.0023 1469.52 15.7013 Q1475.12 20.4004 1475.12 28.2591 Q1475.12 31.9859 1473.7 35.3482 Q1472.32 38.6699 1468.63 43.2069 Q1467.62 44.3817 1462.19 50.0125 Q1456.76 55.6027 1446.88 65.6895 Z" fill="#000000" fill-rule="nonzero" fill-opacity="1" /><path clip-path="url(#clip530)" d="M1492.86 71.3202 L1492.86 63.8666 Q1495.94 65.3249 1499.1 66.0946 Q1502.26 66.8642 1505.29 66.8642 Q1513.4 66.8642 1517.65 61.436 Q1521.94 55.9673 1522.55 44.8678 Q1520.2 48.3516 1516.6 50.215 Q1512.99 52.0784 1508.62 52.0784 Q1499.54 52.0784 1494.24 46.6097 Q1488.97 41.1005 1488.97 31.5808 Q1488.97 22.2638 1494.48 16.633 Q1499.99 11.0023 1509.14 11.0023 Q1519.63 11.0023 1525.14 19.0636 Q1530.69 27.0843 1530.69 42.3968 Q1530.69 56.6965 1523.89 65.2439 Q1517.12 73.7508 1505.66 73.7508 Q1502.58 73.7508 1499.42 73.1431 Q1496.26 72.5355 1492.86 71.3202 M1509.14 45.678 Q1514.65 45.678 1517.85 41.9107 Q1521.09 38.1433 1521.09 31.5808 Q1521.09 25.0589 1517.85 21.2916 Q1514.65 17.4837 1509.14 17.4837 Q1503.63 17.4837 1500.39 21.2916 Q1497.19 25.0589 1497.19 31.5808 Q1497.19 38.1433 1500.39 41.9107 Q1503.63 45.678 1509.14 45.678 Z" fill="#000000" fill-rule="nonzero" fill-opacity="1" /><path clip-path="url(#clip530)" d="M1562.9 17.4837 Q1556.58 17.4837 1553.38 23.7221 Q1550.22 29.92 1550.22 42.3968 Q1550.22 54.833 1553.38 61.0714 Q1556.58 67.2693 1562.9 67.2693 Q1569.26 67.2693 1572.42 61.0714 Q1575.62 54.833 1575.62 42.3968 Q1575.62 29.92 1572.42 23.7221 Q1569.26 17.4837 1562.9 17.4837 M1562.9 11.0023 Q1573.07 11.0023 1578.41 19.0636 Q1583.8 27.0843 1583.8 42.3968 Q1583.8 57.6687 1578.41 65.73 Q1573.07 73.7508 1562.9 73.7508 Q1552.73 73.7508 1547.34 65.73 Q1542 57.6687 1542 42.3968 Q1542 27.0843 1547.34 19.0636 Q1552.73 11.0023 1562.9 11.0023 Z" fill="#000000" fill-rule="nonzero" fill-opacity="1" /><polyline clip-path="url(#clip532)" style="stroke:#009af9; stroke-linecap:round; stroke-linejoin:round; stroke-width:8; stroke-opacity:1; fill:none" points="329.284,1386.4 387.047,1044.05 444.81,781.864 502.573,583.612 560.337,436.275 618.1,329.408 675.863,254.615 733.626,205.186 791.389,175.709 849.152,161.89 906.916,160.256 964.679,168.034 1022.44,183.047 1080.2,203.508 1137.97,228.003 1195.73,255.454 1253.49,284.966 1311.26,315.812 1369.02,347.461 1426.78,379.503 1484.55,411.59 1542.31,443.438 1600.07,474.86 1657.84,505.726 1715.6,535.926 1773.36,565.362 1831.13,593.966 1888.89,621.713 1946.65,648.594 2004.42,674.599 2062.18,699.722 2119.94,723.957 2177.7,747.321 2235.47,769.833 2293.23,778.604 "/>
<circle clip-path="url(#clip532)" cx="309.067" cy="1157.81" r="18" fill="#e26f46" fill-rule="evenodd" fill-opacity="1" stroke="#000000" stroke-opacity="1" stroke-width="3.2"/>
<circle clip-path="url(#clip532)" cx="655.646" cy="167.264" r="18" fill="#e26f46" fill-rule="evenodd" fill-opacity="1" stroke="#000000" stroke-opacity="1" stroke-width="3.2"/>
<circle clip-path="url(#clip532)" cx="1035.92" cy="243.459" r="18" fill="#e26f46" fill-rule="evenodd" fill-opacity="1" stroke="#000000" stroke-opacity="1" stroke-width="3.2"/>
<circle clip-path="url(#clip532)" cx="2200.81" cy="776.83" r="18" fill="#e26f46" fill-rule="evenodd" fill-opacity="1" stroke="#000000" stroke-opacity="1" stroke-width="3.2"/>
<path clip-path="url(#clip530)" d="M1688.09 322.316 L2282.65 322.316 L2282.65 166.796 L1688.09 166.796  Z" fill="#ffffff" fill-rule="evenodd" fill-opacity="1"/>
<polyline clip-path="url(#clip530)" style="stroke:#000000; stroke-linecap:round; stroke-linejoin:round; stroke-width:4; stroke-opacity:1; fill:none" points="1688.09,322.316 2282.65,322.316 2282.65,166.796 1688.09,166.796 1688.09,322.316 "/>
<polyline clip-path="url(#clip530)" style="stroke:#009af9; stroke-linecap:round; stroke-linejoin:round; stroke-width:8; stroke-opacity:1; fill:none" points="1711.46,218.636 1851.68,218.636 "/>
<path clip-path="url(#clip530)" d="M1875.05 201.356 L1882.01 201.356 L1890.83 224.874 L1899.7 201.356 L1906.67 201.356 L1906.67 235.916 L1902.11 235.916 L1902.11 205.569 L1893.19 229.272 L1888.49 229.272 L1879.58 205.569 L1879.58 235.916 L1875.05 235.916 L1875.05 201.356 Z" fill="#000000" fill-rule="nonzero" fill-opacity="1" /><path clip-path="url(#clip530)" d="M1925.81 212.976 Q1922.38 212.976 1920.39 215.661 Q1918.4 218.323 1918.4 222.976 Q1918.4 227.629 1920.37 230.314 Q1922.36 232.976 1925.81 232.976 Q1929.21 232.976 1931.2 230.291 Q1933.19 227.606 1933.19 222.976 Q1933.19 218.37 1931.2 215.684 Q1929.21 212.976 1925.81 212.976 M1925.81 209.365 Q1931.36 209.365 1934.54 212.976 Q1937.71 216.587 1937.71 222.976 Q1937.71 229.342 1934.54 232.976 Q1931.36 236.587 1925.81 236.587 Q1920.23 236.587 1917.06 232.976 Q1913.91 229.342 1913.91 222.976 Q1913.91 216.587 1917.06 212.976 Q1920.23 209.365 1925.81 209.365 Z" fill="#000000" fill-rule="nonzero" fill-opacity="1" /><path clip-path="url(#clip530)" d="M1961.83 213.925 L1961.83 199.897 L1966.09 199.897 L1966.09 235.916 L1961.83 235.916 L1961.83 232.027 Q1960.49 234.342 1958.42 235.476 Q1956.39 236.587 1953.52 236.587 Q1948.82 236.587 1945.86 232.837 Q1942.92 229.087 1942.92 222.976 Q1942.92 216.865 1945.86 213.115 Q1948.82 209.365 1953.52 209.365 Q1956.39 209.365 1958.42 210.499 Q1960.49 211.61 1961.83 213.925 M1947.31 222.976 Q1947.31 227.675 1949.24 230.36 Q1951.18 233.022 1954.56 233.022 Q1957.94 233.022 1959.88 230.36 Q1961.83 227.675 1961.83 222.976 Q1961.83 218.277 1959.88 215.615 Q1957.94 212.93 1954.56 212.93 Q1951.18 212.93 1949.24 215.615 Q1947.31 218.277 1947.31 222.976 Z" fill="#000000" fill-rule="nonzero" fill-opacity="1" /><path clip-path="url(#clip530)" d="M1997.04 221.888 L1997.04 223.971 L1977.45 223.971 Q1977.73 228.369 1980.09 230.684 Q1982.48 232.976 1986.71 232.976 Q1989.17 232.976 1991.46 232.374 Q1993.77 231.772 1996.04 230.569 L1996.04 234.596 Q1993.75 235.568 1991.34 236.078 Q1988.93 236.587 1986.46 236.587 Q1980.25 236.587 1976.62 232.976 Q1973.01 229.365 1973.01 223.207 Q1973.01 216.842 1976.43 213.115 Q1979.88 209.365 1985.72 209.365 Q1990.95 209.365 1993.98 212.745 Q1997.04 216.101 1997.04 221.888 M1992.78 220.638 Q1992.73 217.143 1990.81 215.059 Q1988.91 212.976 1985.76 212.976 Q1982.2 212.976 1980.05 214.99 Q1977.92 217.004 1977.59 220.661 L1992.78 220.638 Z" fill="#000000" fill-rule="nonzero" fill-opacity="1" /><path clip-path="url(#clip530)" d="M2004.03 199.897 L2008.29 199.897 L2008.29 235.916 L2004.03 235.916 L2004.03 199.897 Z" fill="#000000" fill-rule="nonzero" fill-opacity="1" /><path clip-path="url(#clip530)" d="M2037.13 205.198 L2037.13 218.184 L2043.01 218.184 Q2046.27 218.184 2048.05 216.495 Q2049.84 214.805 2049.84 211.68 Q2049.84 208.578 2048.05 206.888 Q2046.27 205.198 2043.01 205.198 L2037.13 205.198 M2032.45 201.356 L2043.01 201.356 Q2048.82 201.356 2051.78 203.995 Q2054.77 206.61 2054.77 211.68 Q2054.77 216.795 2051.78 219.411 Q2048.82 222.027 2043.01 222.027 L2037.13 222.027 L2037.13 235.916 L2032.45 235.916 L2032.45 201.356 Z" fill="#000000" fill-rule="nonzero" fill-opacity="1" /><path clip-path="url(#clip530)" d="M2075.04 213.971 Q2074.33 213.555 2073.47 213.37 Q2072.64 213.161 2071.62 213.161 Q2068.01 213.161 2066.06 215.522 Q2064.14 217.86 2064.14 222.258 L2064.14 235.916 L2059.86 235.916 L2059.86 209.99 L2064.14 209.99 L2064.14 214.018 Q2065.48 211.657 2067.64 210.522 Q2069.79 209.365 2072.87 209.365 Q2073.31 209.365 2073.84 209.434 Q2074.37 209.481 2075.02 209.596 L2075.04 213.971 Z" fill="#000000" fill-rule="nonzero" fill-opacity="1" /><path clip-path="url(#clip530)" d="M2100.65 221.888 L2100.65 223.971 L2081.06 223.971 Q2081.34 228.369 2083.7 230.684 Q2086.09 232.976 2090.32 232.976 Q2092.78 232.976 2095.07 232.374 Q2097.38 231.772 2099.65 230.569 L2099.65 234.596 Q2097.36 235.568 2094.95 236.078 Q2092.54 236.587 2090.07 236.587 Q2083.86 236.587 2080.23 232.976 Q2076.62 229.365 2076.62 223.207 Q2076.62 216.842 2080.04 213.115 Q2083.49 209.365 2089.33 209.365 Q2094.56 209.365 2097.59 212.745 Q2100.65 216.101 2100.65 221.888 M2096.39 220.638 Q2096.34 217.143 2094.42 215.059 Q2092.52 212.976 2089.37 212.976 Q2085.81 212.976 2083.66 214.99 Q2081.53 217.004 2081.2 220.661 L2096.39 220.638 Z" fill="#000000" fill-rule="nonzero" fill-opacity="1" /><path clip-path="url(#clip530)" d="M2124.7 213.925 L2124.7 199.897 L2128.96 199.897 L2128.96 235.916 L2124.7 235.916 L2124.7 232.027 Q2123.35 234.342 2121.29 235.476 Q2119.26 236.587 2116.39 236.587 Q2111.69 236.587 2108.72 232.837 Q2105.79 229.087 2105.79 222.976 Q2105.79 216.865 2108.72 213.115 Q2111.69 209.365 2116.39 209.365 Q2119.26 209.365 2121.29 210.499 Q2123.35 211.61 2124.7 213.925 M2110.18 222.976 Q2110.18 227.675 2112.1 230.36 Q2114.05 233.022 2117.43 233.022 Q2120.81 233.022 2122.75 230.36 Q2124.7 227.675 2124.7 222.976 Q2124.7 218.277 2122.75 215.615 Q2120.81 212.93 2117.43 212.93 Q2114.05 212.93 2112.1 215.615 Q2110.18 218.277 2110.18 222.976 Z" fill="#000000" fill-rule="nonzero" fill-opacity="1" /><path clip-path="url(#clip530)" d="M2137.73 209.99 L2141.99 209.99 L2141.99 235.916 L2137.73 235.916 L2137.73 209.99 M2137.73 199.897 L2141.99 199.897 L2141.99 205.291 L2137.73 205.291 L2137.73 199.897 Z" fill="#000000" fill-rule="nonzero" fill-opacity="1" /><path clip-path="url(#clip530)" d="M2169.56 210.985 L2169.56 214.967 Q2167.75 213.971 2165.92 213.485 Q2164.12 212.976 2162.27 212.976 Q2158.12 212.976 2155.83 215.615 Q2153.54 218.231 2153.54 222.976 Q2153.54 227.721 2155.83 230.36 Q2158.12 232.976 2162.27 232.976 Q2164.12 232.976 2165.92 232.49 Q2167.75 231.981 2169.56 230.985 L2169.56 234.92 Q2167.78 235.754 2165.85 236.17 Q2163.96 236.587 2161.8 236.587 Q2155.95 236.587 2152.5 232.906 Q2149.05 229.226 2149.05 222.976 Q2149.05 216.633 2152.52 212.999 Q2156.02 209.365 2162.08 209.365 Q2164.05 209.365 2165.92 209.782 Q2167.8 210.175 2169.56 210.985 Z" fill="#000000" fill-rule="nonzero" fill-opacity="1" /><path clip-path="url(#clip530)" d="M2181.18 202.629 L2181.18 209.99 L2189.95 209.99 L2189.95 213.3 L2181.18 213.3 L2181.18 227.374 Q2181.18 230.545 2182.03 231.448 Q2182.91 232.351 2185.58 232.351 L2189.95 232.351 L2189.95 235.916 L2185.58 235.916 Q2180.65 235.916 2178.77 234.087 Q2176.9 232.235 2176.9 227.374 L2176.9 213.3 L2173.77 213.3 L2173.77 209.99 L2176.9 209.99 L2176.9 202.629 L2181.18 202.629 Z" fill="#000000" fill-rule="nonzero" fill-opacity="1" /><path clip-path="url(#clip530)" d="M2195.55 209.99 L2199.81 209.99 L2199.81 235.916 L2195.55 235.916 L2195.55 209.99 M2195.55 199.897 L2199.81 199.897 L2199.81 205.291 L2195.55 205.291 L2195.55 199.897 Z" fill="#000000" fill-rule="nonzero" fill-opacity="1" /><path clip-path="url(#clip530)" d="M2218.77 212.976 Q2215.34 212.976 2213.35 215.661 Q2211.36 218.323 2211.36 222.976 Q2211.36 227.629 2213.33 230.314 Q2215.32 232.976 2218.77 232.976 Q2222.17 232.976 2224.16 230.291 Q2226.15 227.606 2226.15 222.976 Q2226.15 218.37 2224.16 215.684 Q2222.17 212.976 2218.77 212.976 M2218.77 209.365 Q2224.33 209.365 2227.5 212.976 Q2230.67 216.587 2230.67 222.976 Q2230.67 229.342 2227.5 232.976 Q2224.33 236.587 2218.77 236.587 Q2213.19 236.587 2210.02 232.976 Q2206.87 229.342 2206.87 222.976 Q2206.87 216.587 2210.02 212.976 Q2213.19 209.365 2218.77 209.365 Z" fill="#000000" fill-rule="nonzero" fill-opacity="1" /><path clip-path="url(#clip530)" d="M2259.28 220.268 L2259.28 235.916 L2255.02 235.916 L2255.02 220.407 Q2255.02 216.726 2253.59 214.897 Q2252.15 213.069 2249.28 213.069 Q2245.83 213.069 2243.84 215.268 Q2241.85 217.467 2241.85 221.263 L2241.85 235.916 L2237.57 235.916 L2237.57 209.99 L2241.85 209.99 L2241.85 214.018 Q2243.38 211.68 2245.44 210.522 Q2247.52 209.365 2250.23 209.365 Q2254.7 209.365 2256.99 212.143 Q2259.28 214.897 2259.28 220.268 Z" fill="#000000" fill-rule="nonzero" fill-opacity="1" /><circle clip-path="url(#clip530)" cx="1781.57" cy="270.476" r="20.9455" fill="#e26f46" fill-rule="evenodd" fill-opacity="1" stroke="#000000" stroke-opacity="1" stroke-width="3.72364"/>
<path clip-path="url(#clip530)" d="M1891.06 256.367 Q1885.97 256.367 1882.96 260.163 Q1879.98 263.96 1879.98 270.51 Q1879.98 277.038 1882.96 280.834 Q1885.97 284.631 1891.06 284.631 Q1896.16 284.631 1899.12 280.834 Q1902.11 277.038 1902.11 270.51 Q1902.11 263.96 1899.12 260.163 Q1896.16 256.367 1891.06 256.367 M1891.06 252.571 Q1898.33 252.571 1902.68 257.455 Q1907.04 262.316 1907.04 270.51 Q1907.04 278.682 1902.68 283.566 Q1898.33 288.427 1891.06 288.427 Q1883.77 288.427 1879.4 283.566 Q1875.05 278.705 1875.05 270.51 Q1875.05 262.316 1879.4 257.455 Q1883.77 252.571 1891.06 252.571 Z" fill="#000000" fill-rule="nonzero" fill-opacity="1" /><path clip-path="url(#clip530)" d="M1932.78 274.816 Q1932.78 270.117 1930.83 267.455 Q1928.91 264.77 1925.53 264.77 Q1922.15 264.77 1920.21 267.455 Q1918.29 270.117 1918.29 274.816 Q1918.29 279.515 1920.21 282.2 Q1922.15 284.862 1925.53 284.862 Q1928.91 284.862 1930.83 282.2 Q1932.78 279.515 1932.78 274.816 M1918.29 265.765 Q1919.63 263.45 1921.67 262.339 Q1923.73 261.205 1926.57 261.205 Q1931.3 261.205 1934.24 264.955 Q1937.2 268.705 1937.2 274.816 Q1937.2 280.927 1934.24 284.677 Q1931.3 288.427 1926.57 288.427 Q1923.73 288.427 1921.67 287.316 Q1919.63 286.182 1918.29 283.867 L1918.29 287.756 L1914 287.756 L1914 251.737 L1918.29 251.737 L1918.29 265.765 Z" fill="#000000" fill-rule="nonzero" fill-opacity="1" /><path clip-path="url(#clip530)" d="M1960.79 262.594 L1960.79 266.622 Q1958.98 265.696 1957.04 265.233 Q1955.09 264.77 1953.01 264.77 Q1949.84 264.77 1948.24 265.742 Q1946.67 266.714 1946.67 268.659 Q1946.67 270.14 1947.8 270.997 Q1948.93 271.83 1952.36 272.594 L1953.82 272.918 Q1958.36 273.89 1960.25 275.672 Q1962.17 277.432 1962.17 280.603 Q1962.17 284.214 1959.3 286.321 Q1956.46 288.427 1951.46 288.427 Q1949.37 288.427 1947.11 288.01 Q1944.86 287.617 1942.36 286.807 L1942.36 282.409 Q1944.72 283.635 1947.01 284.26 Q1949.3 284.862 1951.55 284.862 Q1954.56 284.862 1956.18 283.844 Q1957.8 282.802 1957.8 280.927 Q1957.8 279.191 1956.62 278.265 Q1955.46 277.339 1951.5 276.483 L1950.02 276.135 Q1946.06 275.302 1944.3 273.589 Q1942.55 271.853 1942.55 268.844 Q1942.55 265.186 1945.14 263.196 Q1947.73 261.205 1952.5 261.205 Q1954.86 261.205 1956.94 261.552 Q1959.03 261.899 1960.79 262.594 Z" fill="#000000" fill-rule="nonzero" fill-opacity="1" /><path clip-path="url(#clip530)" d="M1991.13 273.728 L1991.13 275.811 L1971.55 275.811 Q1971.83 280.209 1974.19 282.524 Q1976.57 284.816 1980.81 284.816 Q1983.26 284.816 1985.55 284.214 Q1987.87 283.612 1990.14 282.409 L1990.14 286.436 Q1987.85 287.408 1985.44 287.918 Q1983.03 288.427 1980.55 288.427 Q1974.35 288.427 1970.72 284.816 Q1967.11 281.205 1967.11 275.047 Q1967.11 268.682 1970.53 264.955 Q1973.98 261.205 1979.81 261.205 Q1985.05 261.205 1988.08 264.585 Q1991.13 267.941 1991.13 273.728 M1986.87 272.478 Q1986.83 268.983 1984.91 266.899 Q1983.01 264.816 1979.86 264.816 Q1976.3 264.816 1974.14 266.83 Q1972.01 268.844 1971.69 272.501 L1986.87 272.478 Z" fill="#000000" fill-rule="nonzero" fill-opacity="1" /><path clip-path="url(#clip530)" d="M2013.15 265.811 Q2012.43 265.395 2011.57 265.21 Q2010.74 265.001 2009.72 265.001 Q2006.11 265.001 2004.17 267.362 Q2002.24 269.7 2002.24 274.098 L2002.24 287.756 L1997.96 287.756 L1997.96 261.83 L2002.24 261.83 L2002.24 265.858 Q2003.59 263.497 2005.74 262.362 Q2007.89 261.205 2010.97 261.205 Q2011.41 261.205 2011.94 261.274 Q2012.48 261.321 2013.12 261.436 L2013.15 265.811 Z" fill="#000000" fill-rule="nonzero" fill-opacity="1" /><path clip-path="url(#clip530)" d="M2014.56 261.83 L2019.07 261.83 L2027.17 283.589 L2035.28 261.83 L2039.79 261.83 L2030.07 287.756 L2024.28 287.756 L2014.56 261.83 Z" fill="#000000" fill-rule="nonzero" fill-opacity="1" /><path clip-path="url(#clip530)" d="M2067.85 273.728 L2067.85 275.811 L2048.26 275.811 Q2048.54 280.209 2050.9 282.524 Q2053.29 284.816 2057.52 284.816 Q2059.98 284.816 2062.27 284.214 Q2064.58 283.612 2066.85 282.409 L2066.85 286.436 Q2064.56 287.408 2062.15 287.918 Q2059.74 288.427 2057.27 288.427 Q2051.06 288.427 2047.43 284.816 Q2043.82 281.205 2043.82 275.047 Q2043.82 268.682 2047.24 264.955 Q2050.69 261.205 2056.53 261.205 Q2061.76 261.205 2064.79 264.585 Q2067.85 267.941 2067.85 273.728 M2063.59 272.478 Q2063.54 268.983 2061.62 266.899 Q2059.72 264.816 2056.57 264.816 Q2053.01 264.816 2050.85 266.83 Q2048.73 268.844 2048.4 272.501 L2063.59 272.478 Z" fill="#000000" fill-rule="nonzero" fill-opacity="1" /><path clip-path="url(#clip530)" d="M2091.9 265.765 L2091.9 251.737 L2096.16 251.737 L2096.16 287.756 L2091.9 287.756 L2091.9 283.867 Q2090.55 286.182 2088.49 287.316 Q2086.46 288.427 2083.59 288.427 Q2078.89 288.427 2075.92 284.677 Q2072.98 280.927 2072.98 274.816 Q2072.98 268.705 2075.92 264.955 Q2078.89 261.205 2083.59 261.205 Q2086.46 261.205 2088.49 262.339 Q2090.55 263.45 2091.9 265.765 M2077.38 274.816 Q2077.38 279.515 2079.3 282.2 Q2081.25 284.862 2084.63 284.862 Q2088.01 284.862 2089.95 282.2 Q2091.9 279.515 2091.9 274.816 Q2091.9 270.117 2089.95 267.455 Q2088.01 264.77 2084.63 264.77 Q2081.25 264.77 2079.3 267.455 Q2077.38 270.117 2077.38 274.816 Z" fill="#000000" fill-rule="nonzero" fill-opacity="1" /><path clip-path="url(#clip530)" d="M2124.86 257.038 L2124.86 283.913 L2130.51 283.913 Q2137.66 283.913 2140.97 280.672 Q2144.3 277.432 2144.3 270.441 Q2144.3 263.497 2140.97 260.279 Q2137.66 257.038 2130.51 257.038 L2124.86 257.038 M2120.18 253.196 L2129.79 253.196 Q2139.84 253.196 2144.53 257.386 Q2149.23 261.552 2149.23 270.441 Q2149.23 279.376 2144.51 283.566 Q2139.79 287.756 2129.79 287.756 L2120.18 287.756 L2120.18 253.196 Z" fill="#000000" fill-rule="nonzero" fill-opacity="1" /><path clip-path="url(#clip530)" d="M2168.28 274.723 Q2163.12 274.723 2161.13 275.904 Q2159.14 277.084 2159.14 279.932 Q2159.14 282.2 2160.62 283.543 Q2162.13 284.862 2164.7 284.862 Q2168.24 284.862 2170.37 282.362 Q2172.52 279.839 2172.52 275.672 L2172.52 274.723 L2168.28 274.723 M2176.78 272.964 L2176.78 287.756 L2172.52 287.756 L2172.52 283.821 Q2171.06 286.182 2168.89 287.316 Q2166.71 288.427 2163.56 288.427 Q2159.58 288.427 2157.22 286.205 Q2154.88 283.959 2154.88 280.209 Q2154.88 275.834 2157.8 273.612 Q2160.74 271.39 2166.55 271.39 L2172.52 271.39 L2172.52 270.973 Q2172.52 268.034 2170.58 266.436 Q2168.66 264.816 2165.16 264.816 Q2162.94 264.816 2160.83 265.348 Q2158.72 265.881 2156.78 266.946 L2156.78 263.01 Q2159.12 262.108 2161.32 261.668 Q2163.52 261.205 2165.6 261.205 Q2171.22 261.205 2174 264.122 Q2176.78 267.038 2176.78 272.964 Z" fill="#000000" fill-rule="nonzero" fill-opacity="1" /><path clip-path="url(#clip530)" d="M2189.77 254.469 L2189.77 261.83 L2198.54 261.83 L2198.54 265.14 L2189.77 265.14 L2189.77 279.214 Q2189.77 282.385 2190.62 283.288 Q2191.5 284.191 2194.16 284.191 L2198.54 284.191 L2198.54 287.756 L2194.16 287.756 Q2189.23 287.756 2187.36 285.927 Q2185.48 284.075 2185.48 279.214 L2185.48 265.14 L2182.36 265.14 L2182.36 261.83 L2185.48 261.83 L2185.48 254.469 L2189.77 254.469 Z" fill="#000000" fill-rule="nonzero" fill-opacity="1" /><path clip-path="url(#clip530)" d="M2215.92 274.723 Q2210.76 274.723 2208.77 275.904 Q2206.78 277.084 2206.78 279.932 Q2206.78 282.2 2208.26 283.543 Q2209.77 284.862 2212.34 284.862 Q2215.88 284.862 2218.01 282.362 Q2220.16 279.839 2220.16 275.672 L2220.16 274.723 L2215.92 274.723 M2224.42 272.964 L2224.42 287.756 L2220.16 287.756 L2220.16 283.821 Q2218.7 286.182 2216.53 287.316 Q2214.35 288.427 2211.2 288.427 Q2207.22 288.427 2204.86 286.205 Q2202.52 283.959 2202.52 280.209 Q2202.52 275.834 2205.44 273.612 Q2208.38 271.39 2214.19 271.39 L2220.16 271.39 L2220.16 270.973 Q2220.16 268.034 2218.22 266.436 Q2216.29 264.816 2212.8 264.816 Q2210.58 264.816 2208.47 265.348 Q2206.36 265.881 2204.42 266.946 L2204.42 263.01 Q2206.76 262.108 2208.96 261.668 Q2211.15 261.205 2213.24 261.205 Q2218.86 261.205 2221.64 264.122 Q2224.42 267.038 2224.42 272.964 Z" fill="#000000" fill-rule="nonzero" fill-opacity="1" /></svg>
