<?xml version="1.0" encoding="utf-8"?>
<svg xmlns="http://www.w3.org/2000/svg" xmlns:xlink="http://www.w3.org/1999/xlink" width="600" height="400" viewBox="0 0 2400 1600">
<defs>
  <clipPath id="clip240">
    <rect x="0" y="0" width="2400" height="1600"/>
  </clipPath>
</defs>
<path clip-path="url(#clip240)" d="M0 1600 L2400 1600 L2400 0 L0 0  Z" fill="#ffffff" fill-rule="evenodd" fill-opacity="1"/>
<defs>
  <clipPath id="clip241">
    <rect x="480" y="0" width="1681" height="1600"/>
  </clipPath>
</defs>
<path clip-path="url(#clip240)" d="M219.38 1423.18 L2352.76 1423.18 L2352.76 123.472 L219.38 123.472  Z" fill="#ffffff" fill-rule="evenodd" fill-opacity="1"/>
<defs>
  <clipPath id="clip242">
    <rect x="219" y="123" width="2134" height="1301"/>
  </clipPath>
</defs>
<polyline clip-path="url(#clip242)" style="stroke:#000000; stroke-linecap:round; stroke-linejoin:round; stroke-width:2; stroke-opacity:0.1; fill:none" points="262.846,1423.18 262.846,123.472 "/>
<polyline clip-path="url(#clip242)" style="stroke:#000000; stroke-linecap:round; stroke-linejoin:round; stroke-width:2; stroke-opacity:0.1; fill:none" points="685.665,1423.18 685.665,123.472 "/>
<polyline clip-path="url(#clip242)" style="stroke:#000000; stroke-linecap:round; stroke-linejoin:round; stroke-width:2; stroke-opacity:0.1; fill:none" points="1108.48,1423.18 1108.48,123.472 "/>
<polyline clip-path="url(#clip242)" style="stroke:#000000; stroke-linecap:round; stroke-linejoin:round; stroke-width:2; stroke-opacity:0.1; fill:none" points="1531.3,1423.18 1531.3,123.472 "/>
<polyline clip-path="url(#clip242)" style="stroke:#000000; stroke-linecap:round; stroke-linejoin:round; stroke-width:2; stroke-opacity:0.1; fill:none" points="1954.12,1423.18 1954.12,123.472 "/>
<polyline clip-path="url(#clip242)" style="stroke:#000000; stroke-linecap:round; stroke-linejoin:round; stroke-width:2; stroke-opacity:0.1; fill:none" points="219.38,1386.4 2352.76,1386.4 "/>
<polyline clip-path="url(#clip242)" style="stroke:#000000; stroke-linecap:round; stroke-linejoin:round; stroke-width:2; stroke-opacity:0.1; fill:none" points="219.38,1152.26 2352.76,1152.26 "/>
<polyline clip-path="url(#clip242)" style="stroke:#000000; stroke-linecap:round; stroke-linejoin:round; stroke-width:2; stroke-opacity:0.1; fill:none" points="219.38,918.13 2352.76,918.13 "/>
<polyline clip-path="url(#clip242)" style="stroke:#000000; stroke-linecap:round; stroke-linejoin:round; stroke-width:2; stroke-opacity:0.1; fill:none" points="219.38,683.997 2352.76,683.997 "/>
<polyline clip-path="url(#clip242)" style="stroke:#000000; stroke-linecap:round; stroke-linejoin:round; stroke-width:2; stroke-opacity:0.1; fill:none" points="219.38,449.864 2352.76,449.864 "/>
<polyline clip-path="url(#clip242)" style="stroke:#000000; stroke-linecap:round; stroke-linejoin:round; stroke-width:2; stroke-opacity:0.1; fill:none" points="219.38,215.731 2352.76,215.731 "/>
<polyline clip-path="url(#clip240)" style="stroke:#000000; stroke-linecap:round; stroke-linejoin:round; stroke-width:4; stroke-opacity:1; fill:none" points="219.38,1423.18 2352.76,1423.18 "/>
<polyline clip-path="url(#clip240)" style="stroke:#000000; stroke-linecap:round; stroke-linejoin:round; stroke-width:4; stroke-opacity:1; fill:none" points="262.846,1423.18 262.846,1404.28 "/>
<polyline clip-path="url(#clip240)" style="stroke:#000000; stroke-linecap:round; stroke-linejoin:round; stroke-width:4; stroke-opacity:1; fill:none" points="685.665,1423.18 685.665,1404.28 "/>
<polyline clip-path="url(#clip240)" style="stroke:#000000; stroke-linecap:round; stroke-linejoin:round; stroke-width:4; stroke-opacity:1; fill:none" points="1108.48,1423.18 1108.48,1404.28 "/>
<polyline clip-path="url(#clip240)" style="stroke:#000000; stroke-linecap:round; stroke-linejoin:round; stroke-width:4; stroke-opacity:1; fill:none" points="1531.3,1423.18 1531.3,1404.28 "/>
<polyline clip-path="url(#clip240)" style="stroke:#000000; stroke-linecap:round; stroke-linejoin:round; stroke-width:4; stroke-opacity:1; fill:none" points="1954.12,1423.18 1954.12,1404.28 "/>
<path clip-path="url(#clip240)" d="M262.846 1454.1 Q259.235 1454.1 257.406 1457.66 Q255.601 1461.2 255.601 1468.33 Q255.601 1475.44 257.406 1479.01 Q259.235 1482.55 262.846 1482.55 Q266.48 1482.55 268.286 1479.01 Q270.114 1475.44 270.114 1468.33 Q270.114 1461.2 268.286 1457.66 Q266.48 1454.1 262.846 1454.1 M262.846 1450.39 Q268.656 1450.39 271.712 1455 Q274.79 1459.58 274.79 1468.33 Q274.79 1477.06 271.712 1481.67 Q268.656 1486.25 262.846 1486.25 Q257.036 1486.25 253.957 1481.67 Q250.902 1477.06 250.902 1468.33 Q250.902 1459.58 253.957 1455 Q257.036 1450.39 262.846 1450.39 Z" fill="#000000" fill-rule="nonzero" fill-opacity="1" /><path clip-path="url(#clip240)" d="M664.936 1481.64 L681.255 1481.64 L681.255 1485.58 L659.311 1485.58 L659.311 1481.64 Q661.973 1478.89 666.556 1474.26 Q671.163 1469.61 672.343 1468.27 Q674.589 1465.74 675.468 1464.01 Q676.371 1462.25 676.371 1460.56 Q676.371 1457.8 674.427 1456.07 Q672.505 1454.33 669.404 1454.33 Q667.204 1454.33 664.751 1455.09 Q662.32 1455.86 659.542 1457.41 L659.542 1452.69 Q662.367 1451.55 664.82 1450.97 Q667.274 1450.39 669.311 1450.39 Q674.681 1450.39 677.876 1453.08 Q681.07 1455.77 681.07 1460.26 Q681.07 1462.39 680.26 1464.31 Q679.473 1466.2 677.366 1468.8 Q676.788 1469.47 673.686 1472.69 Q670.584 1475.88 664.936 1481.64 Z" fill="#000000" fill-rule="nonzero" fill-opacity="1" /><path clip-path="url(#clip240)" d="M691.116 1451.02 L709.473 1451.02 L709.473 1454.96 L695.399 1454.96 L695.399 1463.43 Q696.417 1463.08 697.436 1462.92 Q698.454 1462.73 699.473 1462.73 Q705.26 1462.73 708.639 1465.9 Q712.019 1469.08 712.019 1474.49 Q712.019 1480.07 708.547 1483.17 Q705.075 1486.25 698.755 1486.25 Q696.579 1486.25 694.311 1485.88 Q692.065 1485.51 689.658 1484.77 L689.658 1480.07 Q691.741 1481.2 693.964 1481.76 Q696.186 1482.32 698.663 1482.32 Q702.667 1482.32 705.005 1480.21 Q707.343 1478.1 707.343 1474.49 Q707.343 1470.88 705.005 1468.77 Q702.667 1466.67 698.663 1466.67 Q696.788 1466.67 694.913 1467.08 Q693.061 1467.5 691.116 1468.38 L691.116 1451.02 Z" fill="#000000" fill-rule="nonzero" fill-opacity="1" /><path clip-path="url(#clip240)" d="M1083.18 1451.02 L1101.54 1451.02 L1101.54 1454.96 L1087.47 1454.96 L1087.47 1463.43 Q1088.48 1463.08 1089.5 1462.92 Q1090.52 1462.73 1091.54 1462.73 Q1097.33 1462.73 1100.71 1465.9 Q1104.09 1469.08 1104.09 1474.49 Q1104.09 1480.07 1100.61 1483.17 Q1097.14 1486.25 1090.82 1486.25 Q1088.65 1486.25 1086.38 1485.88 Q1084.13 1485.51 1081.72 1484.77 L1081.72 1480.07 Q1083.81 1481.2 1086.03 1481.76 Q1088.25 1482.32 1090.73 1482.32 Q1094.73 1482.32 1097.07 1480.21 Q1099.41 1478.1 1099.41 1474.49 Q1099.41 1470.88 1097.07 1468.77 Q1094.73 1466.67 1090.73 1466.67 Q1088.85 1466.67 1086.98 1467.08 Q1085.13 1467.5 1083.18 1468.38 L1083.18 1451.02 Z" fill="#000000" fill-rule="nonzero" fill-opacity="1" /><path clip-path="url(#clip240)" d="M1123.3 1454.1 Q1119.69 1454.1 1117.86 1457.66 Q1116.05 1461.2 1116.05 1468.33 Q1116.05 1475.44 1117.86 1479.01 Q1119.69 1482.55 1123.3 1482.55 Q1126.93 1482.55 1128.74 1479.01 Q1130.57 1475.44 1130.57 1468.33 Q1130.57 1461.2 1128.74 1457.66 Q1126.93 1454.1 1123.3 1454.1 M1123.3 1450.39 Q1129.11 1450.39 1132.16 1455 Q1135.24 1459.58 1135.24 1468.33 Q1135.24 1477.06 1132.16 1481.67 Q1129.11 1486.25 1123.3 1486.25 Q1117.49 1486.25 1114.41 1481.67 Q1111.35 1477.06 1111.35 1468.33 Q1111.35 1459.58 1114.41 1455 Q1117.49 1450.39 1123.3 1450.39 Z" fill="#000000" fill-rule="nonzero" fill-opacity="1" /><path clip-path="url(#clip240)" d="M1505.16 1451.02 L1527.38 1451.02 L1527.38 1453.01 L1514.83 1485.58 L1509.95 1485.58 L1521.75 1454.96 L1505.16 1454.96 L1505.16 1451.02 Z" fill="#000000" fill-rule="nonzero" fill-opacity="1" /><path clip-path="url(#clip240)" d="M1536.55 1451.02 L1554.9 1451.02 L1554.9 1454.96 L1540.83 1454.96 L1540.83 1463.43 Q1541.85 1463.08 1542.87 1462.92 Q1543.88 1462.73 1544.9 1462.73 Q1550.69 1462.73 1554.07 1465.9 Q1557.45 1469.08 1557.45 1474.49 Q1557.45 1480.07 1553.98 1483.17 Q1550.5 1486.25 1544.18 1486.25 Q1542.01 1486.25 1539.74 1485.88 Q1537.5 1485.51 1535.09 1484.77 L1535.09 1480.07 Q1537.17 1481.2 1539.39 1481.76 Q1541.62 1482.32 1544.09 1482.32 Q1548.1 1482.32 1550.43 1480.21 Q1552.77 1478.1 1552.77 1474.49 Q1552.77 1470.88 1550.43 1468.77 Q1548.1 1466.67 1544.09 1466.67 Q1542.22 1466.67 1540.34 1467.08 Q1538.49 1467.5 1536.55 1468.38 L1536.55 1451.02 Z" fill="#000000" fill-rule="nonzero" fill-opacity="1" /><path clip-path="url(#clip240)" d="M1913.73 1481.64 L1921.37 1481.64 L1921.37 1455.28 L1913.06 1456.95 L1913.06 1452.69 L1921.32 1451.02 L1926 1451.02 L1926 1481.64 L1933.64 1481.64 L1933.64 1485.58 L1913.73 1485.58 L1913.73 1481.64 Z" fill="#000000" fill-rule="nonzero" fill-opacity="1" /><path clip-path="url(#clip240)" d="M1953.08 1454.1 Q1949.47 1454.1 1947.64 1457.66 Q1945.84 1461.2 1945.84 1468.33 Q1945.84 1475.44 1947.64 1479.01 Q1949.47 1482.55 1953.08 1482.55 Q1956.71 1482.55 1958.52 1479.01 Q1960.35 1475.44 1960.35 1468.33 Q1960.35 1461.2 1958.52 1457.66 Q1956.71 1454.1 1953.08 1454.1 M1953.08 1450.39 Q1958.89 1450.39 1961.95 1455 Q1965.02 1459.58 1965.02 1468.33 Q1965.02 1477.06 1961.95 1481.67 Q1958.89 1486.25 1953.08 1486.25 Q1947.27 1486.25 1944.19 1481.67 Q1941.14 1477.06 1941.14 1468.33 Q1941.14 1459.58 1944.19 1455 Q1947.27 1450.39 1953.08 1450.39 Z" fill="#000000" fill-rule="nonzero" fill-opacity="1" /><path clip-path="url(#clip240)" d="M1983.24 1454.1 Q1979.63 1454.1 1977.8 1457.66 Q1976 1461.2 1976 1468.33 Q1976 1475.44 1977.8 1479.01 Q1979.63 1482.55 1983.24 1482.55 Q1986.88 1482.55 1988.68 1479.01 Q1990.51 1475.44 1990.51 1468.33 Q1990.51 1461.2 1988.68 1457.66 Q1986.88 1454.1 1983.24 1454.1 M1983.24 1450.39 Q1989.05 1450.39 1992.11 1455 Q1995.19 1459.58 1995.19 1468.33 Q1995.19 1477.06 1992.11 1481.67 Q1989.05 1486.25 1983.24 1486.25 Q1977.43 1486.25 1974.35 1481.67 Q1971.3 1477.06 1971.3 1468.33 Q1971.3 1459.58 1974.35 1455 Q1977.43 1450.39 1983.24 1450.39 Z" fill="#000000" fill-rule="nonzero" fill-opacity="1" /><path clip-path="url(#clip240)" d="M1207.94 1520.52 L1248.14 1520.52 L1248.14 1525.93 L1231.28 1525.93 L1231.28 1568.04 L1224.81 1568.04 L1224.81 1525.93 L1207.94 1525.93 L1207.94 1520.52 Z" fill="#000000" fill-rule="nonzero" fill-opacity="1" /><path clip-path="url(#clip240)" d="M1252.09 1532.4 L1257.95 1532.4 L1257.95 1568.04 L1252.09 1568.04 L1252.09 1532.4 M1252.09 1518.52 L1257.95 1518.52 L1257.95 1525.93 L1252.09 1525.93 L1252.09 1518.52 Z" fill="#000000" fill-rule="nonzero" fill-opacity="1" /><path clip-path="url(#clip240)" d="M1297.96 1539.24 Q1300.15 1535.29 1303.21 1533.41 Q1306.26 1531.54 1310.4 1531.54 Q1315.97 1531.54 1318.99 1535.45 Q1322.02 1539.33 1322.02 1546.53 L1322.02 1568.04 L1316.13 1568.04 L1316.13 1546.72 Q1316.13 1541.59 1314.32 1539.11 Q1312.5 1536.63 1308.78 1536.63 Q1304.23 1536.63 1301.58 1539.65 Q1298.94 1542.68 1298.94 1547.9 L1298.94 1568.04 L1293.05 1568.04 L1293.05 1546.72 Q1293.05 1541.56 1291.24 1539.11 Q1289.43 1536.63 1285.64 1536.63 Q1281.15 1536.63 1278.51 1539.68 Q1275.87 1542.71 1275.87 1547.9 L1275.87 1568.04 L1269.98 1568.04 L1269.98 1532.4 L1275.87 1532.4 L1275.87 1537.93 Q1277.87 1534.66 1280.67 1533.1 Q1283.47 1531.54 1287.33 1531.54 Q1291.21 1531.54 1293.91 1533.51 Q1296.65 1535.48 1297.96 1539.24 Z" fill="#000000" fill-rule="nonzero" fill-opacity="1" /><path clip-path="url(#clip240)" d="M1364.19 1548.76 L1364.19 1551.62 L1337.26 1551.62 Q1337.65 1557.67 1340.89 1560.85 Q1344.17 1564 1350 1564 Q1353.37 1564 1356.52 1563.17 Q1359.7 1562.35 1362.82 1560.69 L1362.82 1566.23 Q1359.67 1567.57 1356.36 1568.27 Q1353.05 1568.97 1349.65 1568.97 Q1341.12 1568.97 1336.12 1564 Q1331.15 1559.04 1331.15 1550.57 Q1331.15 1541.82 1335.86 1536.69 Q1340.61 1531.54 1348.63 1531.54 Q1355.82 1531.54 1359.99 1536.18 Q1364.19 1540.8 1364.19 1548.76 M1358.33 1547.04 Q1358.27 1542.23 1355.63 1539.37 Q1353.02 1536.5 1348.69 1536.5 Q1343.79 1536.5 1340.83 1539.27 Q1337.9 1542.04 1337.46 1547.07 L1358.33 1547.04 Z" fill="#000000" fill-rule="nonzero" fill-opacity="1" /><polyline clip-path="url(#clip240)" style="stroke:#000000; stroke-linecap:round; stroke-linejoin:round; stroke-width:4; stroke-opacity:1; fill:none" points="219.38,1423.18 219.38,123.472 "/>
<polyline clip-path="url(#clip240)" style="stroke:#000000; stroke-linecap:round; stroke-linejoin:round; stroke-width:4; stroke-opacity:1; fill:none" points="219.38,1386.4 238.278,1386.4 "/>
<polyline clip-path="url(#clip240)" style="stroke:#000000; stroke-linecap:round; stroke-linejoin:round; stroke-width:4; stroke-opacity:1; fill:none" points="219.38,1152.26 238.278,1152.26 "/>
<polyline clip-path="url(#clip240)" style="stroke:#000000; stroke-linecap:round; stroke-linejoin:round; stroke-width:4; stroke-opacity:1; fill:none" points="219.38,918.13 238.278,918.13 "/>
<polyline clip-path="url(#clip240)" style="stroke:#000000; stroke-linecap:round; stroke-linejoin:round; stroke-width:4; stroke-opacity:1; fill:none" points="219.38,683.997 238.278,683.997 "/>
<polyline clip-path="url(#clip240)" style="stroke:#000000; stroke-linecap:round; stroke-linejoin:round; stroke-width:4; stroke-opacity:1; fill:none" points="219.38,449.864 238.278,449.864 "/>
<polyline clip-path="url(#clip240)" style="stroke:#000000; stroke-linecap:round; stroke-linejoin:round; stroke-width:4; stroke-opacity:1; fill:none" points="219.38,215.731 238.278,215.731 "/>
<path clip-path="url(#clip240)" d="M126.205 1372.19 Q122.593 1372.19 120.765 1375.76 Q118.959 1379.3 118.959 1386.43 Q118.959 1393.54 120.765 1397.1 Q122.593 1400.64 126.205 1400.64 Q129.839 1400.64 131.644 1397.1 Q133.473 1393.54 133.473 1386.43 Q133.473 1379.3 131.644 1375.76 Q129.839 1372.19 126.205 1372.19 M126.205 1368.49 Q132.015 1368.49 135.07 1373.1 Q138.149 1377.68 138.149 1386.43 Q138.149 1395.16 135.07 1399.76 Q132.015 1404.35 126.205 1404.35 Q120.394 1404.35 117.316 1399.76 Q114.26 1395.16 114.26 1386.43 Q114.26 1377.68 117.316 1373.1 Q120.394 1368.49 126.205 1368.49 Z" fill="#000000" fill-rule="nonzero" fill-opacity="1" /><path clip-path="url(#clip240)" d="M146.366 1397.8 L151.251 1397.8 L151.251 1403.68 L146.366 1403.68 L146.366 1397.8 Z" fill="#000000" fill-rule="nonzero" fill-opacity="1" /><path clip-path="url(#clip240)" d="M171.436 1372.19 Q167.825 1372.19 165.996 1375.76 Q164.19 1379.3 164.19 1386.43 Q164.19 1393.54 165.996 1397.1 Q167.825 1400.64 171.436 1400.64 Q175.07 1400.64 176.876 1397.1 Q178.704 1393.54 178.704 1386.43 Q178.704 1379.3 176.876 1375.76 Q175.07 1372.19 171.436 1372.19 M171.436 1368.49 Q177.246 1368.49 180.301 1373.1 Q183.38 1377.68 183.38 1386.43 Q183.38 1395.16 180.301 1399.76 Q177.246 1404.35 171.436 1404.35 Q165.626 1404.35 162.547 1399.76 Q159.491 1395.16 159.491 1386.43 Q159.491 1377.68 162.547 1373.1 Q165.626 1368.49 171.436 1368.49 Z" fill="#000000" fill-rule="nonzero" fill-opacity="1" /><path clip-path="url(#clip240)" d="M127.2 1138.06 Q123.589 1138.06 121.76 1141.63 Q119.955 1145.17 119.955 1152.3 Q119.955 1159.4 121.76 1162.97 Q123.589 1166.51 127.2 1166.51 Q130.834 1166.51 132.64 1162.97 Q134.468 1159.4 134.468 1152.3 Q134.468 1145.17 132.64 1141.63 Q130.834 1138.06 127.2 1138.06 M127.2 1134.36 Q133.01 1134.36 136.066 1138.96 Q139.144 1143.55 139.144 1152.3 Q139.144 1161.02 136.066 1165.63 Q133.01 1170.21 127.2 1170.21 Q121.39 1170.21 118.311 1165.63 Q115.256 1161.02 115.256 1152.3 Q115.256 1143.55 118.311 1138.96 Q121.39 1134.36 127.2 1134.36 Z" fill="#000000" fill-rule="nonzero" fill-opacity="1" /><path clip-path="url(#clip240)" d="M147.362 1163.66 L152.246 1163.66 L152.246 1169.54 L147.362 1169.54 L147.362 1163.66 Z" fill="#000000" fill-rule="nonzero" fill-opacity="1" /><path clip-path="url(#clip240)" d="M162.477 1134.98 L180.834 1134.98 L180.834 1138.92 L166.76 1138.92 L166.76 1147.39 Q167.778 1147.04 168.797 1146.88 Q169.815 1146.7 170.834 1146.7 Q176.621 1146.7 180.001 1149.87 Q183.38 1153.04 183.38 1158.45 Q183.38 1164.03 179.908 1167.14 Q176.436 1170.21 170.116 1170.21 Q167.94 1170.21 165.672 1169.84 Q163.427 1169.47 161.019 1168.73 L161.019 1164.03 Q163.102 1165.17 165.325 1165.72 Q167.547 1166.28 170.024 1166.28 Q174.028 1166.28 176.366 1164.17 Q178.704 1162.07 178.704 1158.45 Q178.704 1154.84 176.366 1152.74 Q174.028 1150.63 170.024 1150.63 Q168.149 1150.63 166.274 1151.05 Q164.422 1151.46 162.477 1152.34 L162.477 1134.98 Z" fill="#000000" fill-rule="nonzero" fill-opacity="1" /><path clip-path="url(#clip240)" d="M117.015 931.475 L124.654 931.475 L124.654 905.109 L116.343 906.776 L116.343 902.517 L124.607 900.85 L129.283 900.85 L129.283 931.475 L136.922 931.475 L136.922 935.41 L117.015 935.41 L117.015 931.475 Z" fill="#000000" fill-rule="nonzero" fill-opacity="1" /><path clip-path="url(#clip240)" d="M146.366 929.53 L151.251 929.53 L151.251 935.41 L146.366 935.41 L146.366 929.53 Z" fill="#000000" fill-rule="nonzero" fill-opacity="1" /><path clip-path="url(#clip240)" d="M171.436 903.929 Q167.825 903.929 165.996 907.493 Q164.19 911.035 164.19 918.165 Q164.19 925.271 165.996 928.836 Q167.825 932.378 171.436 932.378 Q175.07 932.378 176.876 928.836 Q178.704 925.271 178.704 918.165 Q178.704 911.035 176.876 907.493 Q175.07 903.929 171.436 903.929 M171.436 900.225 Q177.246 900.225 180.301 904.831 Q183.38 909.415 183.38 918.165 Q183.38 926.892 180.301 931.498 Q177.246 936.081 171.436 936.081 Q165.626 936.081 162.547 931.498 Q159.491 926.892 159.491 918.165 Q159.491 909.415 162.547 904.831 Q165.626 900.225 171.436 900.225 Z" fill="#000000" fill-rule="nonzero" fill-opacity="1" /><path clip-path="url(#clip240)" d="M118.01 697.342 L125.649 697.342 L125.649 670.976 L117.339 672.643 L117.339 668.384 L125.603 666.717 L130.279 666.717 L130.279 697.342 L137.917 697.342 L137.917 701.277 L118.01 701.277 L118.01 697.342 Z" fill="#000000" fill-rule="nonzero" fill-opacity="1" /><path clip-path="url(#clip240)" d="M147.362 695.398 L152.246 695.398 L152.246 701.277 L147.362 701.277 L147.362 695.398 Z" fill="#000000" fill-rule="nonzero" fill-opacity="1" /><path clip-path="url(#clip240)" d="M162.477 666.717 L180.834 666.717 L180.834 670.652 L166.76 670.652 L166.76 679.124 Q167.778 678.777 168.797 678.615 Q169.815 678.43 170.834 678.43 Q176.621 678.43 180.001 681.601 Q183.38 684.773 183.38 690.189 Q183.38 695.768 179.908 698.87 Q176.436 701.948 170.116 701.948 Q167.94 701.948 165.672 701.578 Q163.427 701.208 161.019 700.467 L161.019 695.768 Q163.102 696.902 165.325 697.458 Q167.547 698.013 170.024 698.013 Q174.028 698.013 176.366 695.907 Q178.704 693.8 178.704 690.189 Q178.704 686.578 176.366 684.472 Q174.028 682.365 170.024 682.365 Q168.149 682.365 166.274 682.782 Q164.422 683.199 162.477 684.078 L162.477 666.717 Z" fill="#000000" fill-rule="nonzero" fill-opacity="1" /><path clip-path="url(#clip240)" d="M120.232 463.209 L136.552 463.209 L136.552 467.144 L114.607 467.144 L114.607 463.209 Q117.269 460.455 121.853 455.825 Q126.459 451.172 127.64 449.83 Q129.885 447.306 130.765 445.57 Q131.667 443.811 131.667 442.121 Q131.667 439.367 129.723 437.631 Q127.802 435.894 124.7 435.894 Q122.501 435.894 120.047 436.658 Q117.617 437.422 114.839 438.973 L114.839 434.251 Q117.663 433.117 120.117 432.538 Q122.57 431.959 124.607 431.959 Q129.978 431.959 133.172 434.644 Q136.367 437.33 136.367 441.82 Q136.367 443.95 135.556 445.871 Q134.769 447.769 132.663 450.362 Q132.084 451.033 128.982 454.251 Q125.88 457.445 120.232 463.209 Z" fill="#000000" fill-rule="nonzero" fill-opacity="1" /><path clip-path="url(#clip240)" d="M146.366 461.265 L151.251 461.265 L151.251 467.144 L146.366 467.144 L146.366 461.265 Z" fill="#000000" fill-rule="nonzero" fill-opacity="1" /><path clip-path="url(#clip240)" d="M171.436 435.663 Q167.825 435.663 165.996 439.228 Q164.19 442.769 164.19 449.899 Q164.19 457.005 165.996 460.57 Q167.825 464.112 171.436 464.112 Q175.07 464.112 176.876 460.57 Q178.704 457.005 178.704 449.899 Q178.704 442.769 176.876 439.228 Q175.07 435.663 171.436 435.663 M171.436 431.959 Q177.246 431.959 180.301 436.566 Q183.38 441.149 183.38 449.899 Q183.38 458.626 180.301 463.232 Q177.246 467.816 171.436 467.816 Q165.626 467.816 162.547 463.232 Q159.491 458.626 159.491 449.899 Q159.491 441.149 162.547 436.566 Q165.626 431.959 171.436 431.959 Z" fill="#000000" fill-rule="nonzero" fill-opacity="1" /><path clip-path="url(#clip240)" d="M121.228 229.076 L137.547 229.076 L137.547 233.011 L115.603 233.011 L115.603 229.076 Q118.265 226.322 122.848 221.692 Q127.455 217.039 128.635 215.697 Q130.88 213.174 131.76 211.437 Q132.663 209.678 132.663 207.988 Q132.663 205.234 130.718 203.498 Q128.797 201.762 125.695 201.762 Q123.496 201.762 121.043 202.526 Q118.612 203.289 115.834 204.84 L115.834 200.118 Q118.658 198.984 121.112 198.405 Q123.566 197.826 125.603 197.826 Q130.973 197.826 134.167 200.512 Q137.362 203.197 137.362 207.688 Q137.362 209.817 136.552 211.738 Q135.765 213.637 133.658 216.229 Q133.08 216.9 129.978 220.118 Q126.876 223.312 121.228 229.076 Z" fill="#000000" fill-rule="nonzero" fill-opacity="1" /><path clip-path="url(#clip240)" d="M147.362 227.132 L152.246 227.132 L152.246 233.011 L147.362 233.011 L147.362 227.132 Z" fill="#000000" fill-rule="nonzero" fill-opacity="1" /><path clip-path="url(#clip240)" d="M162.477 198.451 L180.834 198.451 L180.834 202.387 L166.76 202.387 L166.76 210.859 Q167.778 210.512 168.797 210.35 Q169.815 210.164 170.834 210.164 Q176.621 210.164 180.001 213.336 Q183.38 216.507 183.38 221.924 Q183.38 227.502 179.908 230.604 Q176.436 233.683 170.116 233.683 Q167.94 233.683 165.672 233.312 Q163.427 232.942 161.019 232.201 L161.019 227.502 Q163.102 228.636 165.325 229.192 Q167.547 229.748 170.024 229.748 Q174.028 229.748 176.366 227.641 Q178.704 225.535 178.704 221.924 Q178.704 218.312 176.366 216.206 Q174.028 214.1 170.024 214.1 Q168.149 214.1 166.274 214.516 Q164.422 214.933 162.477 215.812 L162.477 198.451 Z" fill="#000000" fill-rule="nonzero" fill-opacity="1" /><path clip-path="url(#clip240)" d="M20.1444 820.225 L26.9239 820.225 Q23.9002 823.472 22.4043 827.164 Q20.9083 830.824 20.9083 834.962 Q20.9083 843.11 25.9054 847.439 Q30.8707 851.767 40.2919 851.767 Q49.6813 851.767 54.6784 847.439 Q59.6436 843.11 59.6436 834.962 Q59.6436 830.824 58.1477 827.164 Q56.6518 823.472 53.6281 820.225 L60.3439 820.225 Q62.6355 823.599 63.7814 827.387 Q64.9272 831.143 64.9272 835.344 Q64.9272 846.134 58.3387 852.34 Q51.7183 858.547 40.2919 858.547 Q28.8336 858.547 22.2451 852.34 Q15.6248 846.134 15.6248 835.344 Q15.6248 831.079 16.7706 827.323 Q17.8846 823.535 20.1444 820.225 Z" fill="#000000" fill-rule="nonzero" fill-opacity="1" /><path clip-path="url(#clip240)" d="M16.4842 816.883 L16.4842 776.684 L21.895 776.684 L21.895 793.553 L64.0042 793.553 L64.0042 800.014 L21.895 800.014 L21.895 816.883 L16.4842 816.883 Z" fill="#000000" fill-rule="nonzero" fill-opacity="1" /><path clip-path="url(#clip240)" d="M16.4842 770.477 L16.4842 761.82 L56.238 740.749 L16.4842 740.749 L16.4842 734.511 L64.0042 734.511 L64.0042 743.168 L24.2503 764.239 L64.0042 764.239 L64.0042 770.477 L16.4842 770.477 Z" fill="#000000" fill-rule="nonzero" fill-opacity="1" /><path clip-path="url(#clip240)" d="M16.4842 728.305 L16.4842 688.105 L21.895 688.105 L21.895 704.974 L64.0042 704.974 L64.0042 711.435 L21.895 711.435 L21.895 728.305 L16.4842 728.305 Z" fill="#000000" fill-rule="nonzero" fill-opacity="1" /><path clip-path="url(#clip240)" d="M1065.25 18.8205 L1065.25 41.5461 L1075.54 41.5461 Q1081.25 41.5461 1084.37 38.5889 Q1087.49 35.6318 1087.49 30.163 Q1087.49 24.7348 1084.37 21.7777 Q1081.25 18.8205 1075.54 18.8205 L1065.25 18.8205 M1057.07 12.096 L1075.54 12.096 Q1085.71 12.096 1090.9 16.714 Q1096.12 21.2916 1096.12 30.163 Q1096.12 39.1155 1090.9 43.6931 Q1085.71 48.2706 1075.54 48.2706 L1065.25 48.2706 L1065.25 72.576 L1057.07 72.576 L1057.07 12.096 Z" fill="#000000" fill-rule="nonzero" fill-opacity="1" /><path clip-path="url(#clip240)" d="M1123.67 49.7694 Q1114.63 49.7694 1111.15 51.8354 Q1107.67 53.9013 1107.67 58.8839 Q1107.67 62.8538 1110.26 65.2034 Q1112.89 67.5124 1117.39 67.5124 Q1123.59 67.5124 1127.31 63.1374 Q1131.08 58.7219 1131.08 51.4303 L1131.08 49.7694 L1123.67 49.7694 M1138.53 46.6907 L1138.53 72.576 L1131.08 72.576 L1131.08 65.6895 Q1128.53 69.8214 1124.72 71.8063 Q1120.91 73.7508 1115.4 73.7508 Q1108.44 73.7508 1104.3 69.8619 Q1100.21 65.9325 1100.21 59.3701 Q1100.21 51.7138 1105.32 47.825 Q1110.46 43.9361 1120.63 43.9361 L1131.08 43.9361 L1131.08 43.2069 Q1131.08 38.0623 1127.68 35.2672 Q1124.32 32.4315 1118.2 32.4315 Q1114.31 32.4315 1110.62 33.3632 Q1106.94 34.295 1103.53 36.1584 L1103.53 29.2718 Q1107.63 27.692 1111.47 26.9223 Q1115.32 26.1121 1118.97 26.1121 Q1128.81 26.1121 1133.67 31.2163 Q1138.53 36.3204 1138.53 46.6907 Z" fill="#000000" fill-rule="nonzero" fill-opacity="1" /><path clip-path="url(#clip240)" d="M1161.26 14.324 L1161.26 27.2059 L1176.61 27.2059 L1176.61 32.9987 L1161.26 32.9987 L1161.26 57.6282 Q1161.26 63.1779 1162.76 64.7578 Q1164.3 66.3376 1168.96 66.3376 L1176.61 66.3376 L1176.61 72.576 L1168.96 72.576 Q1160.33 72.576 1157.05 69.3758 Q1153.77 66.1351 1153.77 57.6282 L1153.77 32.9987 L1148.3 32.9987 L1148.3 27.2059 L1153.77 27.2059 L1153.77 14.324 L1161.26 14.324 Z" fill="#000000" fill-rule="nonzero" fill-opacity="1" /><path clip-path="url(#clip240)" d="M1186.42 27.2059 L1193.87 27.2059 L1193.87 72.576 L1186.42 72.576 L1186.42 27.2059 M1186.42 9.54393 L1193.87 9.54393 L1193.87 18.9825 L1186.42 18.9825 L1186.42 9.54393 Z" fill="#000000" fill-rule="nonzero" fill-opacity="1" /><path clip-path="url(#clip240)" d="M1248.27 48.0275 L1248.27 51.6733 L1214 51.6733 Q1214.49 59.3701 1218.62 63.421 Q1222.79 67.4314 1230.21 67.4314 Q1234.5 67.4314 1238.51 66.3781 Q1242.56 65.3249 1246.53 63.2184 L1246.53 70.267 Q1242.52 71.9684 1238.31 72.8596 Q1234.09 73.7508 1229.76 73.7508 Q1218.9 73.7508 1212.54 67.4314 Q1206.22 61.1119 1206.22 50.3365 Q1206.22 39.1965 1212.22 32.6746 Q1218.26 26.1121 1228.46 26.1121 Q1237.62 26.1121 1242.93 32.0264 Q1248.27 37.9003 1248.27 48.0275 M1240.82 45.84 Q1240.74 39.7232 1237.38 36.0774 Q1234.05 32.4315 1228.55 32.4315 Q1222.31 32.4315 1218.54 35.9558 Q1214.81 39.4801 1214.25 45.8805 L1240.82 45.84 Z" fill="#000000" fill-rule="nonzero" fill-opacity="1" /><path clip-path="url(#clip240)" d="M1298.22 45.1919 L1298.22 72.576 L1290.77 72.576 L1290.77 45.4349 Q1290.77 38.994 1288.26 35.7938 Q1285.74 32.5936 1280.72 32.5936 Q1274.68 32.5936 1271.2 36.4419 Q1267.72 40.2903 1267.72 46.9338 L1267.72 72.576 L1260.22 72.576 L1260.22 27.2059 L1267.72 27.2059 L1267.72 34.2544 Q1270.39 30.163 1274 28.1376 Q1277.64 26.1121 1282.38 26.1121 Q1290.2 26.1121 1294.21 30.9732 Q1298.22 35.7938 1298.22 45.1919 Z" fill="#000000" fill-rule="nonzero" fill-opacity="1" /><path clip-path="url(#clip240)" d="M1320.46 14.324 L1320.46 27.2059 L1335.81 27.2059 L1335.81 32.9987 L1320.46 32.9987 L1320.46 57.6282 Q1320.46 63.1779 1321.96 64.7578 Q1323.5 66.3376 1328.16 66.3376 L1335.81 66.3376 L1335.81 72.576 L1328.16 72.576 Q1319.53 72.576 1316.25 69.3758 Q1312.97 66.1351 1312.97 57.6282 L1312.97 32.9987 L1307.5 32.9987 L1307.5 27.2059 L1312.97 27.2059 L1312.97 14.324 L1320.46 14.324 Z" fill="#000000" fill-rule="nonzero" fill-opacity="1" /><path clip-path="url(#clip240)" d="M1409.7 45.1919 L1409.7 72.576 L1402.25 72.576 L1402.25 45.4349 Q1402.25 38.994 1399.74 35.7938 Q1397.22 32.5936 1392.2 32.5936 Q1386.17 32.5936 1382.68 36.4419 Q1379.2 40.2903 1379.2 46.9338 L1379.2 72.576 L1371.7 72.576 L1371.7 27.2059 L1379.2 27.2059 L1379.2 34.2544 Q1381.87 30.163 1385.48 28.1376 Q1389.12 26.1121 1393.86 26.1121 Q1401.68 26.1121 1405.69 30.9732 Q1409.7 35.7938 1409.7 45.1919 Z" fill="#000000" fill-rule="nonzero" fill-opacity="1" /><path clip-path="url(#clip240)" d="M1448.1 19.2256 L1427.44 51.5113 L1448.1 51.5113 L1448.1 19.2256 M1445.96 12.096 L1456.25 12.096 L1456.25 51.5113 L1464.87 51.5113 L1464.87 58.3168 L1456.25 58.3168 L1456.25 72.576 L1448.1 72.576 L1448.1 58.3168 L1420.8 58.3168 L1420.8 50.4176 L1445.96 12.096 Z" fill="#000000" fill-rule="nonzero" fill-opacity="1" /><path clip-path="url(#clip240)" d="M1478.49 12.096 L1510.61 12.096 L1510.61 18.9825 L1485.98 18.9825 L1485.98 33.8088 Q1487.76 33.2012 1489.54 32.9176 Q1491.33 32.5936 1493.11 32.5936 Q1503.24 32.5936 1509.15 38.1433 Q1515.07 43.6931 1515.07 53.1722 Q1515.07 62.9348 1508.99 68.3631 Q1502.91 73.7508 1491.85 73.7508 Q1488.05 73.7508 1484.08 73.1026 Q1480.15 72.4545 1475.93 71.1582 L1475.93 62.9348 Q1479.58 64.9198 1483.47 65.892 Q1487.36 66.8642 1491.69 66.8642 Q1498.7 66.8642 1502.79 63.1779 Q1506.88 59.4916 1506.88 53.1722 Q1506.88 46.8528 1502.79 43.1664 Q1498.7 39.4801 1491.69 39.4801 Q1488.41 39.4801 1485.13 40.2093 Q1481.89 40.9384 1478.49 42.4778 L1478.49 12.096 Z" fill="#000000" fill-rule="nonzero" fill-opacity="1" /><polyline clip-path="url(#clip242)" style="stroke:#009af9; stroke-linecap:round; stroke-linejoin:round; stroke-width:8; stroke-opacity:1; fill:none" points="279.759,1386.4 296.671,1053.59 313.584,800.872 330.497,610.36 347.41,468.146 364.323,363.401 381.235,287.713 398.148,234.509 415.061,198.717 431.974,176.342 448.886,164.323 465.799,160.256 482.712,162.253 499.625,168.901 516.537,179.059 533.45,191.827 550.363,206.559 567.276,222.733 584.188,239.912 601.101,257.78 618.014,276.12 634.927,294.741 651.839,313.478 668.752,332.208 685.665,350.867 702.578,369.392 719.491,387.723 736.403,405.796 753.316,423.553 770.229,440.972 787.142,458.007 804.054,474.569 820.967,490.53 837.88,505.717 854.793,519.911 871.705,532.881 888.618,544.438 905.531,554.435 922.444,562.766 939.356,569.37 956.269,574.257 973.182,577.618 990.095,579.641 1007.01,580.505 1023.92,580.386 1040.83,579.453 1057.75,577.876 1074.66,575.937 1091.57,573.725 1108.48,571.194 1125.4,568.338 1142.31,565.193 1159.22,561.837 1176.14,558.389 1193.05,555.009 1209.96,551.898 1226.87,549.075 1243.79,546.335 1260.7,543.687 1277.61,541.141 1294.52,538.71 1311.44,536.412 1328.35,534.263 1345.26,532.27 1362.18,530.422 1379.09,528.708 1396,527.122 1412.91,525.66 1429.83,524.322 1446.74,523.114 1463.65,522.043 1480.56,521.12 1497.48,520.349 1514.39,519.707 1531.3,519.187 1548.22,518.782 1565.13,518.49 1582.04,518.308 1598.95,518.232 1615.87,518.261 1632.78,518.396 1649.69,518.637 1666.61,518.982 1683.52,519.426 1700.43,519.964 1717.34,520.591 1734.26,521.305 1751.17,522.1 1768.08,522.976 1784.99,523.928 1801.91,524.956 1818.82,526.057 1835.73,527.231 1852.65,528.478 1869.56,529.796 1886.47,531.187 1903.38,532.649 1920.3,534.176 1937.21,535.765 1954.12,537.411 1971.03,539.109 1987.95,540.858 2004.86,542.654 2021.77,544.496 2038.69,546.382 2055.6,548.312 2072.51,550.285 2089.42,552.302 2106.34,554.363 2123.25,556.471 2140.16,558.628 2157.08,560.833 2173.99,563.077 2190.9,565.354 2207.81,567.663 2224.73,570.004 2241.64,572.374 2258.55,574.774 2275.46,577.203 2292.38,579.496 "/>
<circle clip-path="url(#clip242)" cx="448.604" cy="1229.53" r="18" fill="#e26f46" fill-rule="evenodd" fill-opacity="1" stroke="#000000" stroke-opacity="1" stroke-width="3.2"/>
<circle clip-path="url(#clip242)" cx="647.048" cy="1247.79" r="18" fill="#e26f46" fill-rule="evenodd" fill-opacity="1" stroke="#000000" stroke-opacity="1" stroke-width="3.2"/>
<circle clip-path="url(#clip242)" cx="867.477" cy="1275.88" r="18" fill="#e26f46" fill-rule="evenodd" fill-opacity="1" stroke="#000000" stroke-opacity="1" stroke-width="3.2"/>
<circle clip-path="url(#clip242)" cx="1025.89" cy="1275.42" r="18" fill="#e26f46" fill-rule="evenodd" fill-opacity="1" stroke="#000000" stroke-opacity="1" stroke-width="3.2"/>
<circle clip-path="url(#clip242)" cx="1449.56" cy="1193.94" r="18" fill="#e26f46" fill-rule="evenodd" fill-opacity="1" stroke="#000000" stroke-opacity="1" stroke-width="3.2"/>
<circle clip-path="url(#clip242)" cx="1544.27" cy="1266.99" r="18" fill="#e26f46" fill-rule="evenodd" fill-opacity="1" stroke="#000000" stroke-opacity="1" stroke-width="3.2"/>
<circle clip-path="url(#clip242)" cx="1854.05" cy="1246.85" r="18" fill="#e26f46" fill-rule="evenodd" fill-opacity="1" stroke="#000000" stroke-opacity="1" stroke-width="3.2"/>
<circle clip-path="url(#clip242)" cx="1962.58" cy="1222.03" r="18" fill="#e26f46" fill-rule="evenodd" fill-opacity="1" stroke="#000000" stroke-opacity="1" stroke-width="3.2"/>
<circle clip-path="url(#clip242)" cx="2274.34" cy="1226.72" r="18" fill="#e26f46" fill-rule="evenodd" fill-opacity="1" stroke="#000000" stroke-opacity="1" stroke-width="3.2"/>
<path clip-path="url(#clip240)" d="M1684.07 322.316 L2281.64 322.316 L2281.64 166.796 L1684.07 166.796  Z" fill="#ffffff" fill-rule="evenodd" fill-opacity="1"/>
<polyline clip-path="url(#clip240)" style="stroke:#000000; stroke-linecap:round; stroke-linejoin:round; stroke-width:4; stroke-opacity:1; fill:none" points="1684.07,322.316 2281.64,322.316 2281.64,166.796 1684.07,166.796 1684.07,322.316 "/>
<polyline clip-path="url(#clip240)" style="stroke:#009af9; stroke-linecap:round; stroke-linejoin:round; stroke-width:8; stroke-opacity:1; fill:none" points="1707.78,218.636 1850,218.636 "/>
<path clip-path="url(#clip240)" d="M1873.71 201.356 L1880.67 201.356 L1889.49 224.874 L1898.36 201.356 L1905.33 201.356 L1905.33 235.916 L1900.77 235.916 L1900.77 205.569 L1891.85 229.272 L1887.15 229.272 L1878.24 205.569 L1878.24 235.916 L1873.71 235.916 L1873.71 201.356 Z" fill="#000000" fill-rule="nonzero" fill-opacity="1" /><path clip-path="url(#clip240)" d="M1924.47 212.976 Q1921.04 212.976 1919.05 215.661 Q1917.06 218.323 1917.06 222.976 Q1917.06 227.629 1919.03 230.314 Q1921.02 232.976 1924.47 232.976 Q1927.87 232.976 1929.86 230.291 Q1931.85 227.606 1931.85 222.976 Q1931.85 218.37 1929.86 215.684 Q1927.87 212.976 1924.47 212.976 M1924.47 209.365 Q1930.02 209.365 1933.2 212.976 Q1936.37 216.587 1936.37 222.976 Q1936.37 229.342 1933.2 232.976 Q1930.02 236.587 1924.47 236.587 Q1918.89 236.587 1915.72 232.976 Q1912.57 229.342 1912.57 222.976 Q1912.57 216.587 1915.72 212.976 Q1918.89 209.365 1924.47 209.365 Z" fill="#000000" fill-rule="nonzero" fill-opacity="1" /><path clip-path="url(#clip240)" d="M1960.49 213.925 L1960.49 199.897 L1964.75 199.897 L1964.75 235.916 L1960.49 235.916 L1960.49 232.027 Q1959.14 234.342 1957.08 235.476 Q1955.05 236.587 1952.18 236.587 Q1947.48 236.587 1944.51 232.837 Q1941.58 229.087 1941.58 222.976 Q1941.58 216.865 1944.51 213.115 Q1947.48 209.365 1952.18 209.365 Q1955.05 209.365 1957.08 210.499 Q1959.14 211.61 1960.49 213.925 M1945.97 222.976 Q1945.97 227.675 1947.89 230.36 Q1949.84 233.022 1953.22 233.022 Q1956.6 233.022 1958.54 230.36 Q1960.49 227.675 1960.49 222.976 Q1960.49 218.277 1958.54 215.615 Q1956.6 212.93 1953.22 212.93 Q1949.84 212.93 1947.89 215.615 Q1945.97 218.277 1945.97 222.976 Z" fill="#000000" fill-rule="nonzero" fill-opacity="1" /><path clip-path="url(#clip240)" d="M1995.7 221.888 L1995.7 223.971 L1976.11 223.971 Q1976.39 228.369 1978.75 230.684 Q1981.14 232.976 1985.37 232.976 Q1987.82 232.976 1990.12 232.374 Q1992.43 231.772 1994.7 230.569 L1994.7 234.596 Q1992.41 235.568 1990 236.078 Q1987.59 236.587 1985.12 236.587 Q1978.91 236.587 1975.28 232.976 Q1971.67 229.365 1971.67 223.207 Q1971.67 216.842 1975.09 213.115 Q1978.54 209.365 1984.38 209.365 Q1989.61 209.365 1992.64 212.745 Q1995.7 216.101 1995.7 221.888 M1991.44 220.638 Q1991.39 217.143 1989.47 215.059 Q1987.57 212.976 1984.42 212.976 Q1980.86 212.976 1978.7 214.99 Q1976.57 217.004 1976.25 220.661 L1991.44 220.638 Z" fill="#000000" fill-rule="nonzero" fill-opacity="1" /><path clip-path="url(#clip240)" d="M2002.69 199.897 L2006.95 199.897 L2006.95 235.916 L2002.69 235.916 L2002.69 199.897 Z" fill="#000000" fill-rule="nonzero" fill-opacity="1" /><path clip-path="url(#clip240)" d="M2035.79 205.198 L2035.79 218.184 L2041.67 218.184 Q2044.93 218.184 2046.71 216.495 Q2048.5 214.805 2048.5 211.68 Q2048.5 208.578 2046.71 206.888 Q2044.93 205.198 2041.67 205.198 L2035.79 205.198 M2031.11 201.356 L2041.67 201.356 Q2047.48 201.356 2050.44 203.995 Q2053.43 206.61 2053.43 211.68 Q2053.43 216.795 2050.44 219.411 Q2047.48 222.027 2041.67 222.027 L2035.79 222.027 L2035.79 235.916 L2031.11 235.916 L2031.11 201.356 Z" fill="#000000" fill-rule="nonzero" fill-opacity="1" /><path clip-path="url(#clip240)" d="M2073.7 213.971 Q2072.99 213.555 2072.13 213.37 Q2071.3 213.161 2070.28 213.161 Q2066.67 213.161 2064.72 215.522 Q2062.8 217.86 2062.8 222.258 L2062.8 235.916 L2058.52 235.916 L2058.52 209.99 L2062.8 209.99 L2062.8 214.018 Q2064.14 211.657 2066.3 210.522 Q2068.45 209.365 2071.53 209.365 Q2071.97 209.365 2072.5 209.434 Q2073.03 209.481 2073.68 209.596 L2073.7 213.971 Z" fill="#000000" fill-rule="nonzero" fill-opacity="1" /><path clip-path="url(#clip240)" d="M2099.31 221.888 L2099.31 223.971 L2079.72 223.971 Q2080 228.369 2082.36 230.684 Q2084.75 232.976 2088.98 232.976 Q2091.44 232.976 2093.73 232.374 Q2096.04 231.772 2098.31 230.569 L2098.31 234.596 Q2096.02 235.568 2093.61 236.078 Q2091.2 236.587 2088.73 236.587 Q2082.52 236.587 2078.89 232.976 Q2075.28 229.365 2075.28 223.207 Q2075.28 216.842 2078.7 213.115 Q2082.15 209.365 2087.99 209.365 Q2093.22 209.365 2096.25 212.745 Q2099.31 216.101 2099.31 221.888 M2095.05 220.638 Q2095 217.143 2093.08 215.059 Q2091.18 212.976 2088.03 212.976 Q2084.47 212.976 2082.32 214.99 Q2080.19 217.004 2079.86 220.661 L2095.05 220.638 Z" fill="#000000" fill-rule="nonzero" fill-opacity="1" /><path clip-path="url(#clip240)" d="M2123.36 213.925 L2123.36 199.897 L2127.62 199.897 L2127.62 235.916 L2123.36 235.916 L2123.36 232.027 Q2122.01 234.342 2119.95 235.476 Q2117.92 236.587 2115.05 236.587 Q2110.35 236.587 2107.38 232.837 Q2104.44 229.087 2104.44 222.976 Q2104.44 216.865 2107.38 213.115 Q2110.35 209.365 2115.05 209.365 Q2117.92 209.365 2119.95 210.499 Q2122.01 211.61 2123.36 213.925 M2108.84 222.976 Q2108.84 227.675 2110.76 230.36 Q2112.71 233.022 2116.09 233.022 Q2119.47 233.022 2121.41 230.36 Q2123.36 227.675 2123.36 222.976 Q2123.36 218.277 2121.41 215.615 Q2119.47 212.93 2116.09 212.93 Q2112.71 212.93 2110.76 215.615 Q2108.84 218.277 2108.84 222.976 Z" fill="#000000" fill-rule="nonzero" fill-opacity="1" /><path clip-path="url(#clip240)" d="M2136.39 209.99 L2140.65 209.99 L2140.65 235.916 L2136.39 235.916 L2136.39 209.99 M2136.39 199.897 L2140.65 199.897 L2140.65 205.291 L2136.39 205.291 L2136.39 199.897 Z" fill="#000000" fill-rule="nonzero" fill-opacity="1" /><path clip-path="url(#clip240)" d="M2168.22 210.985 L2168.22 214.967 Q2166.41 213.971 2164.58 213.485 Q2162.78 212.976 2160.93 212.976 Q2156.78 212.976 2154.49 215.615 Q2152.2 218.231 2152.2 222.976 Q2152.2 227.721 2154.49 230.36 Q2156.78 232.976 2160.93 232.976 Q2162.78 232.976 2164.58 232.49 Q2166.41 231.981 2168.22 230.985 L2168.22 234.92 Q2166.44 235.754 2164.51 236.17 Q2162.62 236.587 2160.46 236.587 Q2154.61 236.587 2151.16 232.906 Q2147.71 229.226 2147.71 222.976 Q2147.71 216.633 2151.18 212.999 Q2154.68 209.365 2160.74 209.365 Q2162.71 209.365 2164.58 209.782 Q2166.46 210.175 2168.22 210.985 Z" fill="#000000" fill-rule="nonzero" fill-opacity="1" /><path clip-path="url(#clip240)" d="M2179.84 202.629 L2179.84 209.99 L2188.61 209.99 L2188.61 213.3 L2179.84 213.3 L2179.84 227.374 Q2179.84 230.545 2180.69 231.448 Q2181.57 232.351 2184.24 232.351 L2188.61 232.351 L2188.61 235.916 L2184.24 235.916 Q2179.31 235.916 2177.43 234.087 Q2175.56 232.235 2175.56 227.374 L2175.56 213.3 L2172.43 213.3 L2172.43 209.99 L2175.56 209.99 L2175.56 202.629 L2179.84 202.629 Z" fill="#000000" fill-rule="nonzero" fill-opacity="1" /><path clip-path="url(#clip240)" d="M2194.21 209.99 L2198.47 209.99 L2198.47 235.916 L2194.21 235.916 L2194.21 209.99 M2194.21 199.897 L2198.47 199.897 L2198.47 205.291 L2194.21 205.291 L2194.21 199.897 Z" fill="#000000" fill-rule="nonzero" fill-opacity="1" /><path clip-path="url(#clip240)" d="M2217.43 212.976 Q2214 212.976 2212.01 215.661 Q2210.02 218.323 2210.02 222.976 Q2210.02 227.629 2211.99 230.314 Q2213.98 232.976 2217.43 232.976 Q2220.83 232.976 2222.82 230.291 Q2224.81 227.606 2224.81 222.976 Q2224.81 218.37 2222.82 215.684 Q2220.83 212.976 2217.43 212.976 M2217.43 209.365 Q2222.99 209.365 2226.16 212.976 Q2229.33 216.587 2229.33 222.976 Q2229.33 229.342 2226.16 232.976 Q2222.99 236.587 2217.43 236.587 Q2211.85 236.587 2208.68 232.976 Q2205.53 229.342 2205.53 222.976 Q2205.53 216.587 2208.68 212.976 Q2211.85 209.365 2217.43 209.365 Z" fill="#000000" fill-rule="nonzero" fill-opacity="1" /><path clip-path="url(#clip240)" d="M2257.94 220.268 L2257.94 235.916 L2253.68 235.916 L2253.68 220.407 Q2253.68 216.726 2252.24 214.897 Q2250.81 213.069 2247.94 213.069 Q2244.49 213.069 2242.5 215.268 Q2240.51 217.467 2240.51 221.263 L2240.51 235.916 L2236.23 235.916 L2236.23 209.99 L2240.51 209.99 L2240.51 214.018 Q2242.04 211.68 2244.1 210.522 Q2246.18 209.365 2248.89 209.365 Q2253.36 209.365 2255.65 212.143 Q2257.94 214.897 2257.94 220.268 Z" fill="#000000" fill-rule="nonzero" fill-opacity="1" /><circle clip-path="url(#clip240)" cx="1778.89" cy="270.476" r="20.9455" fill="#e26f46" fill-rule="evenodd" fill-opacity="1" stroke="#000000" stroke-opacity="1" stroke-width="3.72364"/>
<path clip-path="url(#clip240)" d="M1889.72 256.367 Q1884.63 256.367 1881.62 260.163 Q1878.64 263.96 1878.64 270.51 Q1878.64 277.038 1881.62 280.834 Q1884.63 284.631 1889.72 284.631 Q1894.82 284.631 1897.78 280.834 Q1900.77 277.038 1900.77 270.51 Q1900.77 263.96 1897.78 260.163 Q1894.82 256.367 1889.72 256.367 M1889.72 252.571 Q1896.99 252.571 1901.34 257.455 Q1905.7 262.316 1905.7 270.51 Q1905.7 278.682 1901.34 283.566 Q1896.99 288.427 1889.72 288.427 Q1882.43 288.427 1878.06 283.566 Q1873.71 278.705 1873.71 270.51 Q1873.71 262.316 1878.06 257.455 Q1882.43 252.571 1889.72 252.571 Z" fill="#000000" fill-rule="nonzero" fill-opacity="1" /><path clip-path="url(#clip240)" d="M1931.44 274.816 Q1931.44 270.117 1929.49 267.455 Q1927.57 264.77 1924.19 264.77 Q1920.81 264.77 1918.87 267.455 Q1916.95 270.117 1916.95 274.816 Q1916.95 279.515 1918.87 282.2 Q1920.81 284.862 1924.19 284.862 Q1927.57 284.862 1929.49 282.2 Q1931.44 279.515 1931.44 274.816 M1916.95 265.765 Q1918.29 263.45 1920.33 262.339 Q1922.39 261.205 1925.23 261.205 Q1929.95 261.205 1932.89 264.955 Q1935.86 268.705 1935.86 274.816 Q1935.86 280.927 1932.89 284.677 Q1929.95 288.427 1925.23 288.427 Q1922.39 288.427 1920.33 287.316 Q1918.29 286.182 1916.95 283.867 L1916.95 287.756 L1912.66 287.756 L1912.66 251.737 L1916.95 251.737 L1916.95 265.765 Z" fill="#000000" fill-rule="nonzero" fill-opacity="1" /><path clip-path="url(#clip240)" d="M1959.45 262.594 L1959.45 266.622 Q1957.64 265.696 1955.7 265.233 Q1953.75 264.77 1951.67 264.77 Q1948.5 264.77 1946.9 265.742 Q1945.33 266.714 1945.33 268.659 Q1945.33 270.14 1946.46 270.997 Q1947.59 271.83 1951.02 272.594 L1952.48 272.918 Q1957.01 273.89 1958.91 275.672 Q1960.83 277.432 1960.83 280.603 Q1960.83 284.214 1957.96 286.321 Q1955.12 288.427 1950.12 288.427 Q1948.03 288.427 1945.76 288.01 Q1943.52 287.617 1941.02 286.807 L1941.02 282.409 Q1943.38 283.635 1945.67 284.26 Q1947.96 284.862 1950.21 284.862 Q1953.22 284.862 1954.84 283.844 Q1956.46 282.802 1956.46 280.927 Q1956.46 279.191 1955.28 278.265 Q1954.12 277.339 1950.16 276.483 L1948.68 276.135 Q1944.72 275.302 1942.96 273.589 Q1941.2 271.853 1941.2 268.844 Q1941.2 265.186 1943.8 263.196 Q1946.39 261.205 1951.16 261.205 Q1953.52 261.205 1955.6 261.552 Q1957.69 261.899 1959.45 262.594 Z" fill="#000000" fill-rule="nonzero" fill-opacity="1" /><path clip-path="url(#clip240)" d="M1989.79 273.728 L1989.79 275.811 L1970.21 275.811 Q1970.49 280.209 1972.85 282.524 Q1975.23 284.816 1979.47 284.816 Q1981.92 284.816 1984.21 284.214 Q1986.53 283.612 1988.8 282.409 L1988.8 286.436 Q1986.51 287.408 1984.1 287.918 Q1981.69 288.427 1979.21 288.427 Q1973.01 288.427 1969.38 284.816 Q1965.76 281.205 1965.76 275.047 Q1965.76 268.682 1969.19 264.955 Q1972.64 261.205 1978.47 261.205 Q1983.7 261.205 1986.74 264.585 Q1989.79 267.941 1989.79 273.728 M1985.53 272.478 Q1985.49 268.983 1983.57 266.899 Q1981.67 264.816 1978.52 264.816 Q1974.95 264.816 1972.8 266.83 Q1970.67 268.844 1970.35 272.501 L1985.53 272.478 Z" fill="#000000" fill-rule="nonzero" fill-opacity="1" /><path clip-path="url(#clip240)" d="M2011.81 265.811 Q2011.09 265.395 2010.23 265.21 Q2009.4 265.001 2008.38 265.001 Q2004.77 265.001 2002.82 267.362 Q2000.9 269.7 2000.9 274.098 L2000.9 287.756 L1996.62 287.756 L1996.62 261.83 L2000.9 261.83 L2000.9 265.858 Q2002.25 263.497 2004.4 262.362 Q2006.55 261.205 2009.63 261.205 Q2010.07 261.205 2010.6 261.274 Q2011.13 261.321 2011.78 261.436 L2011.81 265.811 Z" fill="#000000" fill-rule="nonzero" fill-opacity="1" /><path clip-path="url(#clip240)" d="M2013.22 261.83 L2017.73 261.83 L2025.83 283.589 L2033.94 261.83 L2038.45 261.83 L2028.73 287.756 L2022.94 287.756 L2013.22 261.83 Z" fill="#000000" fill-rule="nonzero" fill-opacity="1" /><path clip-path="url(#clip240)" d="M2066.51 273.728 L2066.51 275.811 L2046.92 275.811 Q2047.2 280.209 2049.56 282.524 Q2051.94 284.816 2056.18 284.816 Q2058.63 284.816 2060.93 284.214 Q2063.24 283.612 2065.51 282.409 L2065.51 286.436 Q2063.22 287.408 2060.81 287.918 Q2058.4 288.427 2055.93 288.427 Q2049.72 288.427 2046.09 284.816 Q2042.48 281.205 2042.48 275.047 Q2042.48 268.682 2045.9 264.955 Q2049.35 261.205 2055.19 261.205 Q2060.42 261.205 2063.45 264.585 Q2066.51 267.941 2066.51 273.728 M2062.25 272.478 Q2062.2 268.983 2060.28 266.899 Q2058.38 264.816 2055.23 264.816 Q2051.67 264.816 2049.51 266.83 Q2047.38 268.844 2047.06 272.501 L2062.25 272.478 Z" fill="#000000" fill-rule="nonzero" fill-opacity="1" /><path clip-path="url(#clip240)" d="M2090.56 265.765 L2090.56 251.737 L2094.82 251.737 L2094.82 287.756 L2090.56 287.756 L2090.56 283.867 Q2089.21 286.182 2087.15 287.316 Q2085.12 288.427 2082.25 288.427 Q2077.55 288.427 2074.58 284.677 Q2071.64 280.927 2071.64 274.816 Q2071.64 268.705 2074.58 264.955 Q2077.55 261.205 2082.25 261.205 Q2085.12 261.205 2087.15 262.339 Q2089.21 263.45 2090.56 265.765 M2076.04 274.816 Q2076.04 279.515 2077.96 282.2 Q2079.91 284.862 2083.29 284.862 Q2086.67 284.862 2088.61 282.2 Q2090.56 279.515 2090.56 274.816 Q2090.56 270.117 2088.61 267.455 Q2086.67 264.77 2083.29 264.77 Q2079.91 264.77 2077.96 267.455 Q2076.04 270.117 2076.04 274.816 Z" fill="#000000" fill-rule="nonzero" fill-opacity="1" /><path clip-path="url(#clip240)" d="M2123.52 257.038 L2123.52 283.913 L2129.17 283.913 Q2136.32 283.913 2139.63 280.672 Q2142.96 277.432 2142.96 270.441 Q2142.96 263.497 2139.63 260.279 Q2136.32 257.038 2129.17 257.038 L2123.52 257.038 M2118.84 253.196 L2128.45 253.196 Q2138.5 253.196 2143.19 257.386 Q2147.89 261.552 2147.89 270.441 Q2147.89 279.376 2143.17 283.566 Q2138.45 287.756 2128.45 287.756 L2118.84 287.756 L2118.84 253.196 Z" fill="#000000" fill-rule="nonzero" fill-opacity="1" /><path clip-path="url(#clip240)" d="M2166.94 274.723 Q2161.78 274.723 2159.79 275.904 Q2157.8 277.084 2157.8 279.932 Q2157.8 282.2 2159.28 283.543 Q2160.79 284.862 2163.36 284.862 Q2166.9 284.862 2169.03 282.362 Q2171.18 279.839 2171.18 275.672 L2171.18 274.723 L2166.94 274.723 M2175.44 272.964 L2175.44 287.756 L2171.18 287.756 L2171.18 283.821 Q2169.72 286.182 2167.55 287.316 Q2165.37 288.427 2162.22 288.427 Q2158.24 288.427 2155.88 286.205 Q2153.54 283.959 2153.54 280.209 Q2153.54 275.834 2156.46 273.612 Q2159.4 271.39 2165.21 271.39 L2171.18 271.39 L2171.18 270.973 Q2171.18 268.034 2169.24 266.436 Q2167.31 264.816 2163.82 264.816 Q2161.6 264.816 2159.49 265.348 Q2157.38 265.881 2155.44 266.946 L2155.44 263.01 Q2157.78 262.108 2159.98 261.668 Q2162.18 261.205 2164.26 261.205 Q2169.88 261.205 2172.66 264.122 Q2175.44 267.038 2175.44 272.964 Z" fill="#000000" fill-rule="nonzero" fill-opacity="1" /><path clip-path="url(#clip240)" d="M2188.43 254.469 L2188.43 261.83 L2197.2 261.83 L2197.2 265.14 L2188.43 265.14 L2188.43 279.214 Q2188.43 282.385 2189.28 283.288 Q2190.16 284.191 2192.82 284.191 L2197.2 284.191 L2197.2 287.756 L2192.82 287.756 Q2187.89 287.756 2186.02 285.927 Q2184.14 284.075 2184.14 279.214 L2184.14 265.14 L2181.02 265.14 L2181.02 261.83 L2184.14 261.83 L2184.14 254.469 L2188.43 254.469 Z" fill="#000000" fill-rule="nonzero" fill-opacity="1" /><path clip-path="url(#clip240)" d="M2214.58 274.723 Q2209.42 274.723 2207.43 275.904 Q2205.44 277.084 2205.44 279.932 Q2205.44 282.2 2206.92 283.543 Q2208.43 284.862 2211 284.862 Q2214.54 284.862 2216.67 282.362 Q2218.82 279.839 2218.82 275.672 L2218.82 274.723 L2214.58 274.723 M2223.08 272.964 L2223.08 287.756 L2218.82 287.756 L2218.82 283.821 Q2217.36 286.182 2215.18 287.316 Q2213.01 288.427 2209.86 288.427 Q2205.88 288.427 2203.52 286.205 Q2201.18 283.959 2201.18 280.209 Q2201.18 275.834 2204.1 273.612 Q2207.04 271.39 2212.85 271.39 L2218.82 271.39 L2218.82 270.973 Q2218.82 268.034 2216.87 266.436 Q2214.95 264.816 2211.46 264.816 Q2209.24 264.816 2207.13 265.348 Q2205.02 265.881 2203.08 266.946 L2203.08 263.01 Q2205.42 262.108 2207.62 261.668 Q2209.81 261.205 2211.9 261.205 Q2217.52 261.205 2220.3 264.122 Q2223.08 267.038 2223.08 272.964 Z" fill="#000000" fill-rule="nonzero" fill-opacity="1" /></svg>
