<?xml version="1.0" encoding="utf-8"?>
<svg xmlns="http://www.w3.org/2000/svg" xmlns:xlink="http://www.w3.org/1999/xlink" width="800" height="500" viewBox="0 0 3200 2000">
<defs>
  <clipPath id="clip730">
    <rect x="0" y="0" width="3200" height="2000"/>
  </clipPath>
</defs>
<path clip-path="url(#clip730)" d="M0 2000 L3200 2000 L3200 0 L0 0  Z" fill="#ffffff" fill-rule="evenodd" fill-opacity="1"/>
<defs>
  <clipPath id="clip731">
    <rect x="315" y="110" width="2775" height="1652"/>
  </clipPath>
</defs>
<path clip-path="url(#clip730)" d="M271.986 1761.32 L3089.76 1761.32 L3089.76 110.236 L271.986 110.236  Z" fill="#ffffff" fill-rule="evenodd" fill-opacity="1"/>
<defs>
  <clipPath id="clip732">
    <rect x="271" y="110" width="2819" height="1652"/>
  </clipPath>
</defs>
<polyline clip-path="url(#clip732)" style="stroke:#000000; stroke-linecap:round; stroke-linejoin:round; stroke-width:2; stroke-opacity:0.1; fill:none" points="351.734,1761.32 351.734,110.236 "/>
<polyline clip-path="url(#clip732)" style="stroke:#000000; stroke-linecap:round; stroke-linejoin:round; stroke-width:2; stroke-opacity:0.1; fill:none" points="925.877,1761.32 925.877,110.236 "/>
<polyline clip-path="url(#clip732)" style="stroke:#000000; stroke-linecap:round; stroke-linejoin:round; stroke-width:2; stroke-opacity:0.1; fill:none" points="1500.02,1761.32 1500.02,110.236 "/>
<polyline clip-path="url(#clip732)" style="stroke:#000000; stroke-linecap:round; stroke-linejoin:round; stroke-width:2; stroke-opacity:0.1; fill:none" points="2074.16,1761.32 2074.16,110.236 "/>
<polyline clip-path="url(#clip732)" style="stroke:#000000; stroke-linecap:round; stroke-linejoin:round; stroke-width:2; stroke-opacity:0.1; fill:none" points="2648.31,1761.32 2648.31,110.236 "/>
<polyline clip-path="url(#clip732)" style="stroke:#000000; stroke-linecap:round; stroke-linejoin:round; stroke-width:2; stroke-opacity:0.1; fill:none" points="271.986,1714.59 3089.76,1714.59 "/>
<polyline clip-path="url(#clip732)" style="stroke:#000000; stroke-linecap:round; stroke-linejoin:round; stroke-width:2; stroke-opacity:0.1; fill:none" points="271.986,1224.79 3089.76,1224.79 "/>
<polyline clip-path="url(#clip732)" style="stroke:#000000; stroke-linecap:round; stroke-linejoin:round; stroke-width:2; stroke-opacity:0.1; fill:none" points="271.986,734.994 3089.76,734.994 "/>
<polyline clip-path="url(#clip732)" style="stroke:#000000; stroke-linecap:round; stroke-linejoin:round; stroke-width:2; stroke-opacity:0.1; fill:none" points="271.986,245.197 3089.76,245.197 "/>
<polyline clip-path="url(#clip730)" style="stroke:#000000; stroke-linecap:round; stroke-linejoin:round; stroke-width:4; stroke-opacity:1; fill:none" points="271.986,1761.32 3089.76,1761.32 "/>
<polyline clip-path="url(#clip730)" style="stroke:#000000; stroke-linecap:round; stroke-linejoin:round; stroke-width:4; stroke-opacity:1; fill:none" points="351.734,1761.32 351.734,1742.42 "/>
<polyline clip-path="url(#clip730)" style="stroke:#000000; stroke-linecap:round; stroke-linejoin:round; stroke-width:4; stroke-opacity:1; fill:none" points="925.877,1761.32 925.877,1742.42 "/>
<polyline clip-path="url(#clip730)" style="stroke:#000000; stroke-linecap:round; stroke-linejoin:round; stroke-width:4; stroke-opacity:1; fill:none" points="1500.02,1761.32 1500.02,1742.42 "/>
<polyline clip-path="url(#clip730)" style="stroke:#000000; stroke-linecap:round; stroke-linejoin:round; stroke-width:4; stroke-opacity:1; fill:none" points="2074.16,1761.32 2074.16,1742.42 "/>
<polyline clip-path="url(#clip730)" style="stroke:#000000; stroke-linecap:round; stroke-linejoin:round; stroke-width:4; stroke-opacity:1; fill:none" points="2648.31,1761.32 2648.31,1742.42 "/>
<path clip-path="url(#clip730)" d="M351.734 1798.64 Q348.123 1798.64 346.294 1802.2 Q344.489 1805.74 344.489 1812.87 Q344.489 1819.98 346.294 1823.54 Q348.123 1827.09 351.734 1827.09 Q355.368 1827.09 357.174 1823.54 Q359.003 1819.98 359.003 1812.87 Q359.003 1805.74 357.174 1802.2 Q355.368 1798.64 351.734 1798.64 M351.734 1794.93 Q357.544 1794.93 360.6 1799.54 Q363.679 1804.12 363.679 1812.87 Q363.679 1821.6 360.6 1826.21 Q357.544 1830.79 351.734 1830.79 Q345.924 1830.79 342.845 1826.21 Q339.79 1821.6 339.79 1812.87 Q339.79 1804.12 342.845 1799.54 Q345.924 1794.93 351.734 1794.93 Z" fill="#000000" fill-rule="nonzero" fill-opacity="1" /><path clip-path="url(#clip730)" d="M905.148 1826.18 L921.467 1826.18 L921.467 1830.12 L899.523 1830.12 L899.523 1826.18 Q902.185 1823.43 906.768 1818.8 Q911.375 1814.15 912.555 1812.8 Q914.801 1810.28 915.68 1808.54 Q916.583 1806.78 916.583 1805.09 Q916.583 1802.34 914.639 1800.6 Q912.717 1798.87 909.615 1798.87 Q907.416 1798.87 904.963 1799.63 Q902.532 1800.4 899.754 1801.95 L899.754 1797.22 Q902.578 1796.09 905.032 1795.51 Q907.486 1794.93 909.523 1794.93 Q914.893 1794.93 918.088 1797.62 Q921.282 1800.3 921.282 1804.79 Q921.282 1806.92 920.472 1808.84 Q919.685 1810.74 917.578 1813.34 Q917 1814.01 913.898 1817.22 Q910.796 1820.42 905.148 1826.18 Z" fill="#000000" fill-rule="nonzero" fill-opacity="1" /><path clip-path="url(#clip730)" d="M931.328 1795.56 L949.685 1795.56 L949.685 1799.49 L935.611 1799.49 L935.611 1807.97 Q936.629 1807.62 937.648 1807.46 Q938.666 1807.27 939.685 1807.27 Q945.472 1807.27 948.851 1810.44 Q952.231 1813.61 952.231 1819.03 Q952.231 1824.61 948.759 1827.71 Q945.287 1830.79 938.967 1830.79 Q936.791 1830.79 934.523 1830.42 Q932.277 1830.05 929.87 1829.31 L929.87 1824.61 Q931.953 1825.74 934.176 1826.3 Q936.398 1826.85 938.875 1826.85 Q942.879 1826.85 945.217 1824.75 Q947.555 1822.64 947.555 1819.03 Q947.555 1815.42 945.217 1813.31 Q942.879 1811.21 938.875 1811.21 Q937 1811.21 935.125 1811.62 Q933.273 1812.04 931.328 1812.92 L931.328 1795.56 Z" fill="#000000" fill-rule="nonzero" fill-opacity="1" /><path clip-path="url(#clip730)" d="M1474.72 1795.56 L1493.08 1795.56 L1493.08 1799.49 L1479 1799.49 L1479 1807.97 Q1480.02 1807.62 1481.04 1807.46 Q1482.06 1807.27 1483.08 1807.27 Q1488.86 1807.27 1492.24 1810.44 Q1495.62 1813.61 1495.62 1819.03 Q1495.62 1824.61 1492.15 1827.71 Q1488.68 1830.79 1482.36 1830.79 Q1480.18 1830.79 1477.91 1830.42 Q1475.67 1830.05 1473.26 1829.31 L1473.26 1824.61 Q1475.34 1825.74 1477.57 1826.3 Q1479.79 1826.85 1482.27 1826.85 Q1486.27 1826.85 1488.61 1824.75 Q1490.95 1822.64 1490.95 1819.03 Q1490.95 1815.42 1488.61 1813.31 Q1486.27 1811.21 1482.27 1811.21 Q1480.39 1811.21 1478.52 1811.62 Q1476.66 1812.04 1474.72 1812.92 L1474.72 1795.56 Z" fill="#000000" fill-rule="nonzero" fill-opacity="1" /><path clip-path="url(#clip730)" d="M1514.83 1798.64 Q1511.22 1798.64 1509.39 1802.2 Q1507.59 1805.74 1507.59 1812.87 Q1507.59 1819.98 1509.39 1823.54 Q1511.22 1827.09 1514.83 1827.09 Q1518.47 1827.09 1520.27 1823.54 Q1522.1 1819.98 1522.1 1812.87 Q1522.1 1805.74 1520.27 1802.2 Q1518.47 1798.64 1514.83 1798.64 M1514.83 1794.93 Q1520.64 1794.93 1523.7 1799.54 Q1526.78 1804.12 1526.78 1812.87 Q1526.78 1821.6 1523.7 1826.21 Q1520.64 1830.79 1514.83 1830.79 Q1509.02 1830.79 1505.95 1826.21 Q1502.89 1821.6 1502.89 1812.87 Q1502.89 1804.12 1505.95 1799.54 Q1509.02 1794.93 1514.83 1794.93 Z" fill="#000000" fill-rule="nonzero" fill-opacity="1" /><path clip-path="url(#clip730)" d="M2048.02 1795.56 L2070.24 1795.56 L2070.24 1797.55 L2057.69 1830.12 L2052.81 1830.12 L2064.61 1799.49 L2048.02 1799.49 L2048.02 1795.56 Z" fill="#000000" fill-rule="nonzero" fill-opacity="1" /><path clip-path="url(#clip730)" d="M2079.41 1795.56 L2097.76 1795.56 L2097.76 1799.49 L2083.69 1799.49 L2083.69 1807.97 Q2084.71 1807.62 2085.73 1807.46 Q2086.74 1807.27 2087.76 1807.27 Q2093.55 1807.27 2096.93 1810.44 Q2100.31 1813.61 2100.31 1819.03 Q2100.31 1824.61 2096.84 1827.71 Q2093.36 1830.79 2087.04 1830.79 Q2084.87 1830.79 2082.6 1830.42 Q2080.35 1830.05 2077.95 1829.31 L2077.95 1824.61 Q2080.03 1825.74 2082.25 1826.3 Q2084.48 1826.85 2086.95 1826.85 Q2090.96 1826.85 2093.29 1824.75 Q2095.63 1822.64 2095.63 1819.03 Q2095.63 1815.42 2093.29 1813.31 Q2090.96 1811.21 2086.95 1811.21 Q2085.08 1811.21 2083.2 1811.62 Q2081.35 1812.04 2079.41 1812.92 L2079.41 1795.56 Z" fill="#000000" fill-rule="nonzero" fill-opacity="1" /><path clip-path="url(#clip730)" d="M2607.91 1826.18 L2615.55 1826.18 L2615.55 1799.82 L2607.24 1801.48 L2607.24 1797.22 L2615.5 1795.56 L2620.18 1795.56 L2620.18 1826.18 L2627.82 1826.18 L2627.82 1830.12 L2607.91 1830.12 L2607.91 1826.18 Z" fill="#000000" fill-rule="nonzero" fill-opacity="1" /><path clip-path="url(#clip730)" d="M2647.26 1798.64 Q2643.65 1798.64 2641.82 1802.2 Q2640.02 1805.74 2640.02 1812.87 Q2640.02 1819.98 2641.82 1823.54 Q2643.65 1827.09 2647.26 1827.09 Q2650.9 1827.09 2652.7 1823.54 Q2654.53 1819.98 2654.53 1812.87 Q2654.53 1805.74 2652.7 1802.2 Q2650.9 1798.64 2647.26 1798.64 M2647.26 1794.93 Q2653.07 1794.93 2656.13 1799.54 Q2659.21 1804.12 2659.21 1812.87 Q2659.21 1821.6 2656.13 1826.21 Q2653.07 1830.79 2647.26 1830.79 Q2641.45 1830.79 2638.37 1826.21 Q2635.32 1821.6 2635.32 1812.87 Q2635.32 1804.12 2638.37 1799.54 Q2641.45 1794.93 2647.26 1794.93 Z" fill="#000000" fill-rule="nonzero" fill-opacity="1" /><path clip-path="url(#clip730)" d="M2677.43 1798.64 Q2673.81 1798.64 2671.99 1802.2 Q2670.18 1805.74 2670.18 1812.87 Q2670.18 1819.98 2671.99 1823.54 Q2673.81 1827.09 2677.43 1827.09 Q2681.06 1827.09 2682.87 1823.54 Q2684.69 1819.98 2684.69 1812.87 Q2684.69 1805.74 2682.87 1802.2 Q2681.06 1798.64 2677.43 1798.64 M2677.43 1794.93 Q2683.24 1794.93 2686.29 1799.54 Q2689.37 1804.12 2689.37 1812.87 Q2689.37 1821.6 2686.29 1826.21 Q2683.24 1830.79 2677.43 1830.79 Q2671.62 1830.79 2668.54 1826.21 Q2665.48 1821.6 2665.48 1812.87 Q2665.48 1804.12 2668.54 1799.54 Q2671.62 1794.93 2677.43 1794.93 Z" fill="#000000" fill-rule="nonzero" fill-opacity="1" /><path clip-path="url(#clip730)" d="M1547.37 1870.66 L1587.57 1870.66 L1587.57 1876.07 L1570.7 1876.07 L1570.7 1918.18 L1564.24 1918.18 L1564.24 1876.07 L1547.37 1876.07 L1547.37 1870.66 Z" fill="#000000" fill-rule="nonzero" fill-opacity="1" /><path clip-path="url(#clip730)" d="M1591.52 1882.53 L1597.37 1882.53 L1597.37 1918.18 L1591.52 1918.18 L1591.52 1882.53 M1591.52 1868.66 L1597.37 1868.66 L1597.37 1876.07 L1591.52 1876.07 L1591.52 1868.66 Z" fill="#000000" fill-rule="nonzero" fill-opacity="1" /><path clip-path="url(#clip730)" d="M1637.38 1889.38 Q1639.58 1885.43 1642.63 1883.55 Q1645.69 1881.67 1649.83 1881.67 Q1655.4 1881.67 1658.42 1885.59 Q1661.44 1889.47 1661.44 1896.67 L1661.44 1918.18 L1655.56 1918.18 L1655.56 1896.86 Q1655.56 1891.73 1653.74 1889.25 Q1651.93 1886.77 1648.2 1886.77 Q1643.65 1886.77 1641.01 1889.79 Q1638.37 1892.81 1638.37 1898.03 L1638.37 1918.18 L1632.48 1918.18 L1632.48 1896.86 Q1632.48 1891.7 1630.67 1889.25 Q1628.85 1886.77 1625.06 1886.77 Q1620.58 1886.77 1617.93 1889.82 Q1615.29 1892.85 1615.29 1898.03 L1615.29 1918.18 L1609.4 1918.18 L1609.4 1882.53 L1615.29 1882.53 L1615.29 1888.07 Q1617.3 1884.79 1620.1 1883.23 Q1622.9 1881.67 1626.75 1881.67 Q1630.63 1881.67 1633.34 1883.65 Q1636.08 1885.62 1637.38 1889.38 Z" fill="#000000" fill-rule="nonzero" fill-opacity="1" /><path clip-path="url(#clip730)" d="M1703.62 1898.89 L1703.62 1901.76 L1676.69 1901.76 Q1677.07 1907.81 1680.32 1910.99 Q1683.6 1914.14 1689.42 1914.14 Q1692.79 1914.14 1695.95 1913.31 Q1699.13 1912.48 1702.25 1910.83 L1702.25 1916.37 Q1699.1 1917.7 1695.79 1918.4 Q1692.48 1919.1 1689.07 1919.1 Q1680.54 1919.1 1675.54 1914.14 Q1670.58 1909.17 1670.58 1900.71 Q1670.58 1891.96 1675.29 1886.83 Q1680.03 1881.67 1688.05 1881.67 Q1695.25 1881.67 1699.41 1886.32 Q1703.62 1890.94 1703.62 1898.89 M1697.76 1897.17 Q1697.7 1892.37 1695.05 1889.5 Q1692.44 1886.64 1688.12 1886.64 Q1683.21 1886.64 1680.25 1889.41 Q1677.33 1892.18 1676.88 1897.21 L1697.76 1897.17 Z" fill="#000000" fill-rule="nonzero" fill-opacity="1" /><path clip-path="url(#clip730)" d="M1748.02 1868.72 Q1743.75 1876.04 1741.68 1883.2 Q1739.61 1890.36 1739.61 1897.72 Q1739.61 1905.07 1741.68 1912.29 Q1743.78 1919.49 1748.02 1926.78 L1742.92 1926.78 Q1738.15 1919.3 1735.76 1912.07 Q1733.41 1904.85 1733.41 1897.72 Q1733.41 1890.62 1735.76 1883.42 Q1738.12 1876.23 1742.92 1868.72 L1748.02 1868.72 Z" fill="#000000" fill-rule="nonzero" fill-opacity="1" /><path clip-path="url(#clip730)" d="M1789.01 1896.67 L1789.01 1918.18 L1783.16 1918.18 L1783.16 1896.86 Q1783.16 1891.8 1781.18 1889.28 Q1779.21 1886.77 1775.26 1886.77 Q1770.52 1886.77 1767.78 1889.79 Q1765.05 1892.81 1765.05 1898.03 L1765.05 1918.18 L1759.16 1918.18 L1759.16 1868.66 L1765.05 1868.66 L1765.05 1888.07 Q1767.15 1884.86 1769.98 1883.27 Q1772.84 1881.67 1776.57 1881.67 Q1782.71 1881.67 1785.86 1885.49 Q1789.01 1889.28 1789.01 1896.67 Z" fill="#000000" fill-rule="nonzero" fill-opacity="1" /><path clip-path="url(#clip730)" d="M1799.77 1868.72 L1804.86 1868.72 Q1809.64 1876.23 1811.99 1883.42 Q1814.38 1890.62 1814.38 1897.72 Q1814.38 1904.85 1811.99 1912.07 Q1809.64 1919.3 1804.86 1926.78 L1799.77 1926.78 Q1804 1919.49 1806.07 1912.29 Q1808.17 1905.07 1808.17 1897.72 Q1808.17 1890.36 1806.07 1883.2 Q1804 1876.04 1799.77 1868.72 Z" fill="#000000" fill-rule="nonzero" fill-opacity="1" /><polyline clip-path="url(#clip730)" style="stroke:#000000; stroke-linecap:round; stroke-linejoin:round; stroke-width:4; stroke-opacity:1; fill:none" points="271.986,1761.32 271.986,110.236 "/>
<polyline clip-path="url(#clip730)" style="stroke:#000000; stroke-linecap:round; stroke-linejoin:round; stroke-width:4; stroke-opacity:1; fill:none" points="271.986,1714.59 290.883,1714.59 "/>
<polyline clip-path="url(#clip730)" style="stroke:#000000; stroke-linecap:round; stroke-linejoin:round; stroke-width:4; stroke-opacity:1; fill:none" points="271.986,1224.79 290.883,1224.79 "/>
<polyline clip-path="url(#clip730)" style="stroke:#000000; stroke-linecap:round; stroke-linejoin:round; stroke-width:4; stroke-opacity:1; fill:none" points="271.986,734.994 290.883,734.994 "/>
<polyline clip-path="url(#clip730)" style="stroke:#000000; stroke-linecap:round; stroke-linejoin:round; stroke-width:4; stroke-opacity:1; fill:none" points="271.986,245.197 290.883,245.197 "/>
<path clip-path="url(#clip730)" d="M212.041 1700.39 Q208.43 1700.39 206.602 1703.95 Q204.796 1707.49 204.796 1714.62 Q204.796 1721.73 206.602 1725.29 Q208.43 1728.84 212.041 1728.84 Q215.676 1728.84 217.481 1725.29 Q219.31 1721.73 219.31 1714.62 Q219.31 1707.49 217.481 1703.95 Q215.676 1700.39 212.041 1700.39 M212.041 1696.68 Q217.851 1696.68 220.907 1701.29 Q223.986 1705.87 223.986 1714.62 Q223.986 1723.35 220.907 1727.96 Q217.851 1732.54 212.041 1732.54 Q206.231 1732.54 203.152 1727.96 Q200.097 1723.35 200.097 1714.62 Q200.097 1705.87 203.152 1701.29 Q206.231 1696.68 212.041 1696.68 Z" fill="#000000" fill-rule="nonzero" fill-opacity="1" /><path clip-path="url(#clip730)" d="M172.69 1238.14 L180.329 1238.14 L180.329 1211.77 L172.018 1213.44 L172.018 1209.18 L180.282 1207.51 L184.958 1207.51 L184.958 1238.14 L192.597 1238.14 L192.597 1242.07 L172.69 1242.07 L172.69 1238.14 Z" fill="#000000" fill-rule="nonzero" fill-opacity="1" /><path clip-path="url(#clip730)" d="M212.041 1210.59 Q208.43 1210.59 206.602 1214.16 Q204.796 1217.7 204.796 1224.83 Q204.796 1231.93 206.602 1235.5 Q208.43 1239.04 212.041 1239.04 Q215.676 1239.04 217.481 1235.5 Q219.31 1231.93 219.31 1224.83 Q219.31 1217.7 217.481 1214.16 Q215.676 1210.59 212.041 1210.59 M212.041 1206.89 Q217.851 1206.89 220.907 1211.49 Q223.986 1216.08 223.986 1224.83 Q223.986 1233.55 220.907 1238.16 Q217.851 1242.74 212.041 1242.74 Q206.231 1242.74 203.152 1238.16 Q200.097 1233.55 200.097 1224.83 Q200.097 1216.08 203.152 1211.49 Q206.231 1206.89 212.041 1206.89 Z" fill="#000000" fill-rule="nonzero" fill-opacity="1" /><path clip-path="url(#clip730)" d="M175.907 748.339 L192.227 748.339 L192.227 752.274 L170.282 752.274 L170.282 748.339 Q172.944 745.585 177.528 740.955 Q182.134 736.302 183.315 734.96 Q185.56 732.437 186.44 730.701 Q187.342 728.941 187.342 727.251 Q187.342 724.497 185.398 722.761 Q183.477 721.025 180.375 721.025 Q178.176 721.025 175.722 721.789 Q173.292 722.552 170.514 724.103 L170.514 719.381 Q173.338 718.247 175.792 717.668 Q178.245 717.089 180.282 717.089 Q185.653 717.089 188.847 719.775 Q192.041 722.46 192.041 726.951 Q192.041 729.08 191.231 731.001 Q190.444 732.9 188.338 735.492 Q187.759 736.163 184.657 739.381 Q181.555 742.575 175.907 748.339 Z" fill="#000000" fill-rule="nonzero" fill-opacity="1" /><path clip-path="url(#clip730)" d="M212.041 720.793 Q208.43 720.793 206.602 724.358 Q204.796 727.9 204.796 735.029 Q204.796 742.136 206.602 745.7 Q208.43 749.242 212.041 749.242 Q215.676 749.242 217.481 745.7 Q219.31 742.136 219.31 735.029 Q219.31 727.9 217.481 724.358 Q215.676 720.793 212.041 720.793 M212.041 717.089 Q217.851 717.089 220.907 721.696 Q223.986 726.279 223.986 735.029 Q223.986 743.756 220.907 748.362 Q217.851 752.946 212.041 752.946 Q206.231 752.946 203.152 748.362 Q200.097 743.756 200.097 735.029 Q200.097 726.279 203.152 721.696 Q206.231 717.089 212.041 717.089 Z" fill="#000000" fill-rule="nonzero" fill-opacity="1" /><path clip-path="url(#clip730)" d="M186.046 243.843 Q189.403 244.561 191.278 246.829 Q193.176 249.098 193.176 252.431 Q193.176 257.547 189.657 260.348 Q186.139 263.148 179.657 263.148 Q177.481 263.148 175.167 262.709 Q172.875 262.292 170.421 261.436 L170.421 256.922 Q172.366 258.056 174.68 258.635 Q176.995 259.213 179.518 259.213 Q183.916 259.213 186.208 257.477 Q188.523 255.741 188.523 252.431 Q188.523 249.375 186.37 247.662 Q184.241 245.926 180.421 245.926 L176.393 245.926 L176.393 242.084 L180.606 242.084 Q184.055 242.084 185.884 240.718 Q187.713 239.329 187.713 236.737 Q187.713 234.075 185.815 232.663 Q183.94 231.227 180.421 231.227 Q178.5 231.227 176.301 231.644 Q174.102 232.061 171.463 232.94 L171.463 228.774 Q174.125 228.033 176.44 227.663 Q178.778 227.292 180.838 227.292 Q186.162 227.292 189.264 229.723 Q192.365 232.13 192.365 236.25 Q192.365 239.121 190.722 241.112 Q189.078 243.079 186.046 243.843 Z" fill="#000000" fill-rule="nonzero" fill-opacity="1" /><path clip-path="url(#clip730)" d="M212.041 230.996 Q208.43 230.996 206.602 234.561 Q204.796 238.102 204.796 245.232 Q204.796 252.338 206.602 255.903 Q208.43 259.445 212.041 259.445 Q215.676 259.445 217.481 255.903 Q219.31 252.338 219.31 245.232 Q219.31 238.102 217.481 234.561 Q215.676 230.996 212.041 230.996 M212.041 227.292 Q217.851 227.292 220.907 231.899 Q223.986 236.482 223.986 245.232 Q223.986 253.959 220.907 258.565 Q217.851 263.148 212.041 263.148 Q206.231 263.148 203.152 258.565 Q200.097 253.959 200.097 245.232 Q200.097 236.482 203.152 231.899 Q206.231 227.292 212.041 227.292 Z" fill="#000000" fill-rule="nonzero" fill-opacity="1" /><path clip-path="url(#clip730)" d="M73.747 1119.4 L79.2215 1119.4 Q77.8528 1121.88 77.1844 1124.39 Q76.4842 1126.88 76.4842 1129.42 Q76.4842 1135.12 80.1127 1138.27 Q83.7093 1141.42 90.2341 1141.42 Q96.759 1141.42 100.387 1138.27 Q103.984 1135.12 103.984 1129.42 Q103.984 1126.88 103.316 1124.39 Q102.615 1121.88 101.247 1119.4 L106.658 1119.4 Q107.803 1121.85 108.376 1124.49 Q108.949 1127.1 108.949 1130.06 Q108.949 1138.11 103.889 1142.85 Q98.8278 1147.6 90.2341 1147.6 Q81.5131 1147.6 76.516 1142.82 Q71.519 1138.02 71.519 1129.68 Q71.519 1126.97 72.0919 1124.39 Q72.633 1121.81 73.747 1119.4 Z" fill="#000000" fill-rule="nonzero" fill-opacity="1" /><path clip-path="url(#clip730)" d="M60.5063 1115.54 L60.5063 1075.35 L65.9171 1075.35 L65.9171 1092.21 L108.026 1092.21 L108.026 1098.68 L65.9171 1098.68 L65.9171 1115.54 L60.5063 1115.54 Z" fill="#000000" fill-rule="nonzero" fill-opacity="1" /><path clip-path="url(#clip730)" d="M86.5102 1039.76 L108.026 1039.76 L108.026 1045.62 L86.7012 1045.62 Q81.6404 1045.62 79.126 1047.59 Q76.6115 1049.56 76.6115 1053.51 Q76.6115 1058.25 79.6352 1060.99 Q82.6589 1063.73 87.8788 1063.73 L108.026 1063.73 L108.026 1069.62 L72.3783 1069.62 L72.3783 1063.73 L77.9165 1063.73 Q74.7018 1061.63 73.1104 1058.79 Q71.519 1055.93 71.519 1052.21 Q71.519 1046.06 75.3384 1042.91 Q79.126 1039.76 86.5102 1039.76 Z" fill="#000000" fill-rule="nonzero" fill-opacity="1" /><path clip-path="url(#clip730)" d="M60.5063 1034.41 L60.5063 994.214 L65.9171 994.214 L65.9171 1011.08 L108.026 1011.08 L108.026 1017.54 L65.9171 1017.54 L65.9171 1034.41 L60.5063 1034.41 Z" fill="#000000" fill-rule="nonzero" fill-opacity="1" /><path clip-path="url(#clip730)" d="M58.5011 968.083 L58.5011 954.588 L63.0526 954.588 L63.0526 962.226 L112.069 962.226 L112.069 954.588 L116.62 954.588 L116.62 968.083 L58.5011 968.083 Z" fill="#000000" fill-rule="nonzero" fill-opacity="1" /><path clip-path="url(#clip730)" d="M86.5102 912.478 L108.026 912.478 L108.026 918.335 L86.7012 918.335 Q81.6404 918.335 79.126 920.308 Q76.6115 922.282 76.6115 926.228 Q76.6115 930.971 79.6352 933.708 Q82.6589 936.445 87.8788 936.445 L108.026 936.445 L108.026 942.334 L72.3783 942.334 L72.3783 936.445 L77.9165 936.445 Q74.7018 934.345 73.1104 931.512 Q71.519 928.647 71.519 924.923 Q71.519 918.781 75.3384 915.63 Q79.126 912.478 86.5102 912.478 Z" fill="#000000" fill-rule="nonzero" fill-opacity="1" /><path clip-path="url(#clip730)" d="M89.7885 877.34 Q83.4228 877.34 79.9217 879.982 Q76.4206 882.591 76.4206 887.334 Q76.4206 892.045 79.9217 894.686 Q83.4228 897.296 89.7885 897.296 Q96.1224 897.296 99.6236 894.686 Q103.125 892.045 103.125 887.334 Q103.125 882.591 99.6236 879.982 Q96.1224 877.34 89.7885 877.34 M103.602 871.483 Q112.705 871.483 117.129 875.526 Q121.585 879.568 121.585 887.907 Q121.585 890.994 121.108 893.731 Q120.662 896.469 119.707 899.047 L114.01 899.047 Q115.411 896.469 116.079 893.954 Q116.747 891.44 116.747 888.83 Q116.747 883.069 113.724 880.204 Q110.732 877.34 104.652 877.34 L101.756 877.34 Q104.907 879.154 106.467 881.987 Q108.026 884.819 108.026 888.766 Q108.026 895.323 103.029 899.333 Q98.0321 903.344 89.7885 903.344 Q81.5131 903.344 76.516 899.333 Q71.519 895.323 71.519 888.766 Q71.519 884.819 73.0786 881.987 Q74.6382 879.154 77.7892 877.34 L72.3783 877.34 L72.3783 871.483 L103.602 871.483 Z" fill="#000000" fill-rule="nonzero" fill-opacity="1" /><path clip-path="url(#clip730)" d="M60.5063 849.012 L60.5063 843.602 L114.074 860.152 L114.074 865.563 L60.5063 849.012 Z" fill="#000000" fill-rule="nonzero" fill-opacity="1" /><path clip-path="url(#clip730)" d="M79.2215 809.704 Q75.2747 807.508 73.3968 804.452 Q71.519 801.397 71.519 797.259 Q71.519 791.689 75.4339 788.665 Q79.3169 785.642 86.5102 785.642 L108.026 785.642 L108.026 791.53 L86.7012 791.53 Q81.5768 791.53 79.0941 793.344 Q76.6115 795.159 76.6115 798.882 Q76.6115 803.434 79.6352 806.076 Q82.6589 808.717 87.8788 808.717 L108.026 808.717 L108.026 814.606 L86.7012 814.606 Q81.5449 814.606 79.0941 816.42 Q76.6115 818.234 76.6115 822.022 Q76.6115 826.51 79.6671 829.151 Q82.6908 831.793 87.8788 831.793 L108.026 831.793 L108.026 837.681 L72.3783 837.681 L72.3783 831.793 L77.9165 831.793 Q74.6382 829.788 73.0786 826.987 Q71.519 824.186 71.519 820.335 Q71.519 816.452 73.4923 813.746 Q75.4657 811.009 79.2215 809.704 Z" fill="#000000" fill-rule="nonzero" fill-opacity="1" /><path clip-path="url(#clip730)" d="M60.5063 773.706 L60.5063 767.277 L102.615 767.277 L102.615 744.137 L108.026 744.137 L108.026 773.706 L60.5063 773.706 Z" fill="#000000" fill-rule="nonzero" fill-opacity="1" /><path clip-path="url(#clip730)" d="M58.5011 723.958 L116.62 723.958 L116.62 737.453 L112.069 737.453 L112.069 729.846 L63.0526 729.846 L63.0526 737.453 L58.5011 737.453 L58.5011 723.958 Z" fill="#000000" fill-rule="nonzero" fill-opacity="1" /><circle clip-path="url(#clip732)" cx="529.718" cy="1670.75" r="21.6" fill="#ff0000" fill-rule="evenodd" fill-opacity="1" stroke="#000000" stroke-opacity="1" stroke-width="6"/>
<circle clip-path="url(#clip732)" cx="844.808" cy="1603.41" r="21.6" fill="#ff0000" fill-rule="evenodd" fill-opacity="1" stroke="#000000" stroke-opacity="1" stroke-width="6"/>
<circle clip-path="url(#clip732)" cx="1138.31" cy="1636.22" r="21.6" fill="#ff0000" fill-rule="evenodd" fill-opacity="1" stroke="#000000" stroke-opacity="1" stroke-width="6"/>
<circle clip-path="url(#clip732)" cx="1467.18" cy="1639.65" r="21.6" fill="#ff0000" fill-rule="evenodd" fill-opacity="1" stroke="#000000" stroke-opacity="1" stroke-width="6"/>
<circle clip-path="url(#clip732)" cx="1996.54" cy="1627.89" r="21.6" fill="#ff0000" fill-rule="evenodd" fill-opacity="1" stroke="#000000" stroke-opacity="1" stroke-width="6"/>
<circle clip-path="url(#clip732)" cx="2299.92" cy="1624.47" r="21.6" fill="#ff0000" fill-rule="evenodd" fill-opacity="1" stroke="#000000" stroke-opacity="1" stroke-width="6"/>
<circle clip-path="url(#clip732)" cx="2550.7" cy="1629.36" r="21.6" fill="#ff0000" fill-rule="evenodd" fill-opacity="1" stroke="#000000" stroke-opacity="1" stroke-width="6"/>
<polyline clip-path="url(#clip732)" style="stroke:#ff8c00; stroke-linecap:round; stroke-linejoin:round; stroke-width:8; stroke-opacity:1; fill:none" stroke-dasharray="32, 20" points="351.734,1714.59 374.7,156.965 397.666,921.877 420.631,1309.32 443.597,1504.64 466.563,1601.66 489.528,1647.7 512.494,1666.66 535.46,1670.85 558.426,1667.1 581.391,1659.57 604.357,1650.92 627.323,1642.75 650.288,1635.88 673.254,1630.54 696.22,1626.67 719.186,1624.03 742.151,1622.35 765.117,1621.39 788.083,1620.93 811.048,1620.82 834.014,1620.94 856.98,1621.23 879.946,1621.61 902.911,1622.06 925.877,1622.54 948.843,1623.05 971.808,1623.56 994.774,1624.09 1017.74,1624.61 1040.71,1625.13 1063.67,1625.64 1086.64,1626.15 1109.6,1626.65 1132.57,1627.14 1155.53,1627.63 1178.5,1628.11 1201.47,1628.57 1224.43,1629.03 1247.4,1629.47 1270.36,1629.91 1293.33,1630.33 1316.29,1630.73 1339.26,1631.12 1362.23,1631.5 1385.19,1631.86 1408.16,1632.2 1431.12,1632.53 1454.09,1632.83 1477.05,1633.11 1500.02,1633.37 1522.99,1633.61 1545.95,1633.82 1568.92,1634 1591.88,1634.16 1614.85,1634.3 1637.81,1634.4 1660.78,1634.48 1683.75,1634.53 1706.71,1634.55 1729.68,1634.54 1752.64,1634.5 1775.61,1634.44 1798.57,1634.34 1821.54,1634.22 1844.51,1634.07 1867.47,1633.89 1890.44,1633.69 1913.4,1633.47 1936.37,1633.22 1959.33,1632.95 1982.3,1632.66 2005.27,1632.35 2028.23,1632.02 2051.2,1631.68 2074.16,1631.32 2097.13,1630.95 2120.09,1630.58 2143.06,1630.19 2166.03,1629.79 2188.99,1629.39 2211.96,1628.99 2234.92,1628.59 2257.89,1628.18 2280.85,1627.78 2303.82,1627.38 2326.79,1626.98 2349.75,1626.59 2372.72,1626.2 2395.68,1625.83 2418.65,1625.46 2441.61,1625.11 2464.58,1624.76 2487.55,1624.43 2510.51,1624.11 2533.48,1623.81 2556.44,1623.52 2579.41,1623.25 2602.37,1622.99 2625.34,1622.75 2648.31,1622.53 2671.27,1622.33 2694.24,1622.14 2717.2,1621.98 2740.17,1621.83 2763.13,1621.7 2786.1,1621.6 2809.07,1621.51 2832.03,1621.44 2855,1621.4 2877.96,1621.37 2900.93,1621.37 2923.89,1621.39 2946.86,1621.42 2969.83,1621.48 2992.79,1621.56 3010.02,1621.63 "/>
</svg>
