<?xml version="1.0" encoding="utf-8"?>
<svg xmlns="http://www.w3.org/2000/svg" xmlns:xlink="http://www.w3.org/1999/xlink" width="800" height="500" viewBox="0 0 3200 2000">
<defs>
  <clipPath id="clip980">
    <rect x="0" y="0" width="3200" height="2000"/>
  </clipPath>
</defs>
<path clip-path="url(#clip980)" d="M0 2000 L3200 2000 L3200 0 L0 0  Z" fill="#ffffff" fill-rule="evenodd" fill-opacity="1"/>
<defs>
  <clipPath id="clip981">
    <rect x="287" y="110" width="2803" height="1652"/>
  </clipPath>
</defs>
<path clip-path="url(#clip980)" d="M243.467 1761.32 L3089.76 1761.32 L3089.76 110.236 L243.467 110.236  Z" fill="#ffffff" fill-rule="evenodd" fill-opacity="1"/>
<defs>
  <clipPath id="clip982">
    <rect x="243" y="110" width="2847" height="1652"/>
  </clipPath>
</defs>
<polyline clip-path="url(#clip982)" style="stroke:#000000; stroke-linecap:round; stroke-linejoin:round; stroke-width:2; stroke-opacity:0.1; fill:none" points="324.023,1761.32 324.023,110.236 "/>
<polyline clip-path="url(#clip982)" style="stroke:#000000; stroke-linecap:round; stroke-linejoin:round; stroke-width:2; stroke-opacity:0.1; fill:none" points="800.909,1761.32 800.909,110.236 "/>
<polyline clip-path="url(#clip982)" style="stroke:#000000; stroke-linecap:round; stroke-linejoin:round; stroke-width:2; stroke-opacity:0.1; fill:none" points="1277.79,1761.32 1277.79,110.236 "/>
<polyline clip-path="url(#clip982)" style="stroke:#000000; stroke-linecap:round; stroke-linejoin:round; stroke-width:2; stroke-opacity:0.1; fill:none" points="1754.68,1761.32 1754.68,110.236 "/>
<polyline clip-path="url(#clip982)" style="stroke:#000000; stroke-linecap:round; stroke-linejoin:round; stroke-width:2; stroke-opacity:0.1; fill:none" points="2231.57,1761.32 2231.57,110.236 "/>
<polyline clip-path="url(#clip982)" style="stroke:#000000; stroke-linecap:round; stroke-linejoin:round; stroke-width:2; stroke-opacity:0.1; fill:none" points="2708.45,1761.32 2708.45,110.236 "/>
<polyline clip-path="url(#clip982)" style="stroke:#000000; stroke-linecap:round; stroke-linejoin:round; stroke-width:2; stroke-opacity:0.1; fill:none" points="243.467,1714.59 3089.76,1714.59 "/>
<polyline clip-path="url(#clip982)" style="stroke:#000000; stroke-linecap:round; stroke-linejoin:round; stroke-width:2; stroke-opacity:0.1; fill:none" points="243.467,1334.89 3089.76,1334.89 "/>
<polyline clip-path="url(#clip982)" style="stroke:#000000; stroke-linecap:round; stroke-linejoin:round; stroke-width:2; stroke-opacity:0.1; fill:none" points="243.467,955.196 3089.76,955.196 "/>
<polyline clip-path="url(#clip982)" style="stroke:#000000; stroke-linecap:round; stroke-linejoin:round; stroke-width:2; stroke-opacity:0.1; fill:none" points="243.467,575.499 3089.76,575.499 "/>
<polyline clip-path="url(#clip982)" style="stroke:#000000; stroke-linecap:round; stroke-linejoin:round; stroke-width:2; stroke-opacity:0.1; fill:none" points="243.467,195.803 3089.76,195.803 "/>
<polyline clip-path="url(#clip980)" style="stroke:#000000; stroke-linecap:round; stroke-linejoin:round; stroke-width:4; stroke-opacity:1; fill:none" points="243.467,1761.32 3089.76,1761.32 "/>
<polyline clip-path="url(#clip980)" style="stroke:#000000; stroke-linecap:round; stroke-linejoin:round; stroke-width:4; stroke-opacity:1; fill:none" points="324.023,1761.32 324.023,1742.42 "/>
<polyline clip-path="url(#clip980)" style="stroke:#000000; stroke-linecap:round; stroke-linejoin:round; stroke-width:4; stroke-opacity:1; fill:none" points="800.909,1761.32 800.909,1742.42 "/>
<polyline clip-path="url(#clip980)" style="stroke:#000000; stroke-linecap:round; stroke-linejoin:round; stroke-width:4; stroke-opacity:1; fill:none" points="1277.79,1761.32 1277.79,1742.42 "/>
<polyline clip-path="url(#clip980)" style="stroke:#000000; stroke-linecap:round; stroke-linejoin:round; stroke-width:4; stroke-opacity:1; fill:none" points="1754.68,1761.32 1754.68,1742.42 "/>
<polyline clip-path="url(#clip980)" style="stroke:#000000; stroke-linecap:round; stroke-linejoin:round; stroke-width:4; stroke-opacity:1; fill:none" points="2231.57,1761.32 2231.57,1742.42 "/>
<polyline clip-path="url(#clip980)" style="stroke:#000000; stroke-linecap:round; stroke-linejoin:round; stroke-width:4; stroke-opacity:1; fill:none" points="2708.45,1761.32 2708.45,1742.42 "/>
<path clip-path="url(#clip980)" d="M324.023 1798.64 Q320.412 1798.64 318.583 1802.2 Q316.778 1805.74 316.778 1812.87 Q316.778 1819.98 318.583 1823.54 Q320.412 1827.09 324.023 1827.09 Q327.657 1827.09 329.463 1823.54 Q331.291 1819.98 331.291 1812.87 Q331.291 1805.74 329.463 1802.2 Q327.657 1798.64 324.023 1798.64 M324.023 1794.93 Q329.833 1794.93 332.889 1799.54 Q335.967 1804.12 335.967 1812.87 Q335.967 1821.6 332.889 1826.21 Q329.833 1830.79 324.023 1830.79 Q318.213 1830.79 315.134 1826.21 Q312.079 1821.6 312.079 1812.87 Q312.079 1804.12 315.134 1799.54 Q318.213 1794.93 324.023 1794.93 Z" fill="#000000" fill-rule="nonzero" fill-opacity="1" /><path clip-path="url(#clip980)" d="M780.18 1826.18 L796.499 1826.18 L796.499 1830.12 L774.555 1830.12 L774.555 1826.18 Q777.217 1823.43 781.8 1818.8 Q786.407 1814.15 787.587 1812.8 Q789.832 1810.28 790.712 1808.54 Q791.615 1806.78 791.615 1805.09 Q791.615 1802.34 789.67 1800.6 Q787.749 1798.87 784.647 1798.87 Q782.448 1798.87 779.995 1799.63 Q777.564 1800.4 774.786 1801.95 L774.786 1797.22 Q777.61 1796.09 780.064 1795.51 Q782.518 1794.93 784.555 1794.93 Q789.925 1794.93 793.119 1797.62 Q796.314 1800.3 796.314 1804.79 Q796.314 1806.92 795.504 1808.84 Q794.717 1810.74 792.61 1813.34 Q792.031 1814.01 788.93 1817.22 Q785.828 1820.42 780.18 1826.18 Z" fill="#000000" fill-rule="nonzero" fill-opacity="1" /><path clip-path="url(#clip980)" d="M806.36 1795.56 L824.716 1795.56 L824.716 1799.49 L810.642 1799.49 L810.642 1807.97 Q811.661 1807.62 812.68 1807.46 Q813.698 1807.27 814.717 1807.27 Q820.504 1807.27 823.883 1810.44 Q827.263 1813.61 827.263 1819.03 Q827.263 1824.61 823.791 1827.71 Q820.318 1830.79 813.999 1830.79 Q811.823 1830.79 809.555 1830.42 Q807.309 1830.05 804.902 1829.31 L804.902 1824.61 Q806.985 1825.74 809.207 1826.3 Q811.43 1826.85 813.906 1826.85 Q817.911 1826.85 820.249 1824.75 Q822.587 1822.64 822.587 1819.03 Q822.587 1815.42 820.249 1813.31 Q817.911 1811.21 813.906 1811.21 Q812.031 1811.21 810.156 1811.62 Q808.305 1812.04 806.36 1812.92 L806.36 1795.56 Z" fill="#000000" fill-rule="nonzero" fill-opacity="1" /><path clip-path="url(#clip980)" d="M1252.49 1795.56 L1270.85 1795.56 L1270.85 1799.49 L1256.78 1799.49 L1256.78 1807.97 Q1257.79 1807.62 1258.81 1807.46 Q1259.83 1807.27 1260.85 1807.27 Q1266.64 1807.27 1270.02 1810.44 Q1273.4 1813.61 1273.4 1819.03 Q1273.4 1824.61 1269.92 1827.71 Q1266.45 1830.79 1260.13 1830.79 Q1257.96 1830.79 1255.69 1830.42 Q1253.44 1830.05 1251.04 1829.31 L1251.04 1824.61 Q1253.12 1825.74 1255.34 1826.3 Q1257.56 1826.85 1260.04 1826.85 Q1264.04 1826.85 1266.38 1824.75 Q1268.72 1822.64 1268.72 1819.03 Q1268.72 1815.42 1266.38 1813.31 Q1264.04 1811.21 1260.04 1811.21 Q1258.17 1811.21 1256.29 1811.62 Q1254.44 1812.04 1252.49 1812.92 L1252.49 1795.56 Z" fill="#000000" fill-rule="nonzero" fill-opacity="1" /><path clip-path="url(#clip980)" d="M1292.61 1798.64 Q1289 1798.64 1287.17 1802.2 Q1285.36 1805.74 1285.36 1812.87 Q1285.36 1819.98 1287.17 1823.54 Q1289 1827.09 1292.61 1827.09 Q1296.24 1827.09 1298.05 1823.54 Q1299.88 1819.98 1299.88 1812.87 Q1299.88 1805.74 1298.05 1802.2 Q1296.24 1798.64 1292.61 1798.64 M1292.61 1794.93 Q1298.42 1794.93 1301.48 1799.54 Q1304.55 1804.12 1304.55 1812.87 Q1304.55 1821.6 1301.48 1826.21 Q1298.42 1830.79 1292.61 1830.79 Q1286.8 1830.79 1283.72 1826.21 Q1280.66 1821.6 1280.66 1812.87 Q1280.66 1804.12 1283.72 1799.54 Q1286.8 1794.93 1292.61 1794.93 Z" fill="#000000" fill-rule="nonzero" fill-opacity="1" /><path clip-path="url(#clip980)" d="M1728.53 1795.56 L1750.76 1795.56 L1750.76 1797.55 L1738.21 1830.12 L1733.33 1830.12 L1745.13 1799.49 L1728.53 1799.49 L1728.53 1795.56 Z" fill="#000000" fill-rule="nonzero" fill-opacity="1" /><path clip-path="url(#clip980)" d="M1759.92 1795.56 L1778.28 1795.56 L1778.28 1799.49 L1764.21 1799.49 L1764.21 1807.97 Q1765.22 1807.62 1766.24 1807.46 Q1767.26 1807.27 1768.28 1807.27 Q1774.07 1807.27 1777.45 1810.44 Q1780.83 1813.61 1780.83 1819.03 Q1780.83 1824.61 1777.35 1827.71 Q1773.88 1830.79 1767.56 1830.79 Q1765.39 1830.79 1763.12 1830.42 Q1760.87 1830.05 1758.47 1829.31 L1758.47 1824.61 Q1760.55 1825.74 1762.77 1826.3 Q1764.99 1826.85 1767.47 1826.85 Q1771.47 1826.85 1773.81 1824.75 Q1776.15 1822.64 1776.15 1819.03 Q1776.15 1815.42 1773.81 1813.31 Q1771.47 1811.21 1767.47 1811.21 Q1765.59 1811.21 1763.72 1811.62 Q1761.87 1812.04 1759.92 1812.92 L1759.92 1795.56 Z" fill="#000000" fill-rule="nonzero" fill-opacity="1" /><path clip-path="url(#clip980)" d="M2191.17 1826.18 L2198.81 1826.18 L2198.81 1799.82 L2190.5 1801.48 L2190.5 1797.22 L2198.77 1795.56 L2203.44 1795.56 L2203.44 1826.18 L2211.08 1826.18 L2211.08 1830.12 L2191.17 1830.12 L2191.17 1826.18 Z" fill="#000000" fill-rule="nonzero" fill-opacity="1" /><path clip-path="url(#clip980)" d="M2230.52 1798.64 Q2226.91 1798.64 2225.08 1802.2 Q2223.28 1805.74 2223.28 1812.87 Q2223.28 1819.98 2225.08 1823.54 Q2226.91 1827.09 2230.52 1827.09 Q2234.16 1827.09 2235.96 1823.54 Q2237.79 1819.98 2237.79 1812.87 Q2237.79 1805.74 2235.96 1802.2 Q2234.16 1798.64 2230.52 1798.64 M2230.52 1794.93 Q2236.33 1794.93 2239.39 1799.54 Q2242.47 1804.12 2242.47 1812.87 Q2242.47 1821.6 2239.39 1826.21 Q2236.33 1830.79 2230.52 1830.79 Q2224.71 1830.79 2221.64 1826.21 Q2218.58 1821.6 2218.58 1812.87 Q2218.58 1804.12 2221.64 1799.54 Q2224.71 1794.93 2230.52 1794.93 Z" fill="#000000" fill-rule="nonzero" fill-opacity="1" /><path clip-path="url(#clip980)" d="M2260.69 1798.64 Q2257.08 1798.64 2255.25 1802.2 Q2253.44 1805.74 2253.44 1812.87 Q2253.44 1819.98 2255.25 1823.54 Q2257.08 1827.09 2260.69 1827.09 Q2264.32 1827.09 2266.13 1823.54 Q2267.96 1819.98 2267.96 1812.87 Q2267.96 1805.74 2266.13 1802.2 Q2264.32 1798.64 2260.69 1798.64 M2260.69 1794.93 Q2266.5 1794.93 2269.55 1799.54 Q2272.63 1804.12 2272.63 1812.87 Q2272.63 1821.6 2269.55 1826.21 Q2266.5 1830.79 2260.69 1830.79 Q2254.88 1830.79 2251.8 1826.21 Q2248.74 1821.6 2248.74 1812.87 Q2248.74 1804.12 2251.8 1799.54 Q2254.88 1794.93 2260.69 1794.93 Z" fill="#000000" fill-rule="nonzero" fill-opacity="1" /><path clip-path="url(#clip980)" d="M2668.56 1826.18 L2676.2 1826.18 L2676.2 1799.82 L2667.89 1801.48 L2667.89 1797.22 L2676.15 1795.56 L2680.83 1795.56 L2680.83 1826.18 L2688.46 1826.18 L2688.46 1830.12 L2668.56 1830.12 L2668.56 1826.18 Z" fill="#000000" fill-rule="nonzero" fill-opacity="1" /><path clip-path="url(#clip980)" d="M2701.94 1826.18 L2718.26 1826.18 L2718.26 1830.12 L2696.31 1830.12 L2696.31 1826.18 Q2698.97 1823.43 2703.56 1818.8 Q2708.16 1814.15 2709.34 1812.8 Q2711.59 1810.28 2712.47 1808.54 Q2713.37 1806.78 2713.37 1805.09 Q2713.37 1802.34 2711.43 1800.6 Q2709.51 1798.87 2706.4 1798.87 Q2704.2 1798.87 2701.75 1799.63 Q2699.32 1800.4 2696.54 1801.95 L2696.54 1797.22 Q2699.37 1796.09 2701.82 1795.51 Q2704.27 1794.93 2706.31 1794.93 Q2711.68 1794.93 2714.88 1797.62 Q2718.07 1800.3 2718.07 1804.79 Q2718.07 1806.92 2717.26 1808.84 Q2716.47 1810.74 2714.37 1813.34 Q2713.79 1814.01 2710.69 1817.22 Q2707.58 1820.42 2701.94 1826.18 Z" fill="#000000" fill-rule="nonzero" fill-opacity="1" /><path clip-path="url(#clip980)" d="M2728.12 1795.56 L2746.47 1795.56 L2746.47 1799.49 L2732.4 1799.49 L2732.4 1807.97 Q2733.42 1807.62 2734.44 1807.46 Q2735.45 1807.27 2736.47 1807.27 Q2742.26 1807.27 2745.64 1810.44 Q2749.02 1813.61 2749.02 1819.03 Q2749.02 1824.61 2745.55 1827.71 Q2742.07 1830.79 2735.76 1830.79 Q2733.58 1830.79 2731.31 1830.42 Q2729.07 1830.05 2726.66 1829.31 L2726.66 1824.61 Q2728.74 1825.74 2730.96 1826.3 Q2733.19 1826.85 2735.66 1826.85 Q2739.67 1826.85 2742.01 1824.75 Q2744.34 1822.64 2744.34 1819.03 Q2744.34 1815.42 2742.01 1813.31 Q2739.67 1811.21 2735.66 1811.21 Q2733.79 1811.21 2731.91 1811.62 Q2730.06 1812.04 2728.12 1812.92 L2728.12 1795.56 Z" fill="#000000" fill-rule="nonzero" fill-opacity="1" /><path clip-path="url(#clip980)" d="M1533.11 1870.66 L1573.31 1870.66 L1573.31 1876.07 L1556.44 1876.07 L1556.44 1918.18 L1549.98 1918.18 L1549.98 1876.07 L1533.11 1876.07 L1533.11 1870.66 Z" fill="#000000" fill-rule="nonzero" fill-opacity="1" /><path clip-path="url(#clip980)" d="M1577.26 1882.53 L1583.11 1882.53 L1583.11 1918.18 L1577.26 1918.18 L1577.26 1882.53 M1577.26 1868.66 L1583.11 1868.66 L1583.11 1876.07 L1577.26 1876.07 L1577.26 1868.66 Z" fill="#000000" fill-rule="nonzero" fill-opacity="1" /><path clip-path="url(#clip980)" d="M1623.12 1889.38 Q1625.32 1885.43 1628.37 1883.55 Q1631.43 1881.67 1635.57 1881.67 Q1641.14 1881.67 1644.16 1885.59 Q1647.18 1889.47 1647.18 1896.67 L1647.18 1918.18 L1641.3 1918.18 L1641.3 1896.86 Q1641.3 1891.73 1639.48 1889.25 Q1637.67 1886.77 1633.94 1886.77 Q1629.39 1886.77 1626.75 1889.79 Q1624.11 1892.81 1624.11 1898.03 L1624.11 1918.18 L1618.22 1918.18 L1618.22 1896.86 Q1618.22 1891.7 1616.41 1889.25 Q1614.59 1886.77 1610.8 1886.77 Q1606.32 1886.77 1603.67 1889.82 Q1601.03 1892.85 1601.03 1898.03 L1601.03 1918.18 L1595.14 1918.18 L1595.14 1882.53 L1601.03 1882.53 L1601.03 1888.07 Q1603.04 1884.79 1605.84 1883.23 Q1608.64 1881.67 1612.49 1881.67 Q1616.37 1881.67 1619.08 1883.65 Q1621.82 1885.62 1623.12 1889.38 Z" fill="#000000" fill-rule="nonzero" fill-opacity="1" /><path clip-path="url(#clip980)" d="M1689.36 1898.89 L1689.36 1901.76 L1662.43 1901.76 Q1662.81 1907.81 1666.06 1910.99 Q1669.34 1914.14 1675.16 1914.14 Q1678.54 1914.14 1681.69 1913.31 Q1684.87 1912.48 1687.99 1910.83 L1687.99 1916.37 Q1684.84 1917.7 1681.53 1918.4 Q1678.22 1919.1 1674.81 1919.1 Q1666.28 1919.1 1661.28 1914.14 Q1656.32 1909.17 1656.32 1900.71 Q1656.32 1891.96 1661.03 1886.83 Q1665.77 1881.67 1673.79 1881.67 Q1680.99 1881.67 1685.16 1886.32 Q1689.36 1890.94 1689.36 1898.89 M1683.5 1897.17 Q1683.44 1892.37 1680.8 1889.5 Q1678.19 1886.64 1673.86 1886.64 Q1668.95 1886.64 1665.99 1889.41 Q1663.07 1892.18 1662.62 1897.21 L1683.5 1897.17 Z" fill="#000000" fill-rule="nonzero" fill-opacity="1" /><path clip-path="url(#clip980)" d="M1733.76 1868.72 Q1729.49 1876.04 1727.42 1883.2 Q1725.36 1890.36 1725.36 1897.72 Q1725.36 1905.07 1727.42 1912.29 Q1729.52 1919.49 1733.76 1926.78 L1728.67 1926.78 Q1723.89 1919.3 1721.5 1912.07 Q1719.15 1904.85 1719.15 1897.72 Q1719.15 1890.62 1721.5 1883.42 Q1723.86 1876.23 1728.67 1868.72 L1733.76 1868.72 Z" fill="#000000" fill-rule="nonzero" fill-opacity="1" /><path clip-path="url(#clip980)" d="M1774.75 1896.67 L1774.75 1918.18 L1768.9 1918.18 L1768.9 1896.86 Q1768.9 1891.8 1766.92 1889.28 Q1764.95 1886.77 1761 1886.77 Q1756.26 1886.77 1753.52 1889.79 Q1750.79 1892.81 1750.79 1898.03 L1750.79 1918.18 L1744.9 1918.18 L1744.9 1868.66 L1750.79 1868.66 L1750.79 1888.07 Q1752.89 1884.86 1755.72 1883.27 Q1758.58 1881.67 1762.31 1881.67 Q1768.45 1881.67 1771.6 1885.49 Q1774.75 1889.28 1774.75 1896.67 Z" fill="#000000" fill-rule="nonzero" fill-opacity="1" /><path clip-path="url(#clip980)" d="M1785.51 1868.72 L1790.6 1868.72 Q1795.38 1876.23 1797.73 1883.42 Q1800.12 1890.62 1800.12 1897.72 Q1800.12 1904.85 1797.73 1912.07 Q1795.38 1919.3 1790.6 1926.78 L1785.51 1926.78 Q1789.74 1919.49 1791.81 1912.29 Q1793.91 1905.07 1793.91 1897.72 Q1793.91 1890.36 1791.81 1883.2 Q1789.74 1876.04 1785.51 1868.72 Z" fill="#000000" fill-rule="nonzero" fill-opacity="1" /><polyline clip-path="url(#clip980)" style="stroke:#000000; stroke-linecap:round; stroke-linejoin:round; stroke-width:4; stroke-opacity:1; fill:none" points="243.467,1761.32 243.467,110.236 "/>
<polyline clip-path="url(#clip980)" style="stroke:#000000; stroke-linecap:round; stroke-linejoin:round; stroke-width:4; stroke-opacity:1; fill:none" points="243.467,1714.59 262.365,1714.59 "/>
<polyline clip-path="url(#clip980)" style="stroke:#000000; stroke-linecap:round; stroke-linejoin:round; stroke-width:4; stroke-opacity:1; fill:none" points="243.467,1334.89 262.365,1334.89 "/>
<polyline clip-path="url(#clip980)" style="stroke:#000000; stroke-linecap:round; stroke-linejoin:round; stroke-width:4; stroke-opacity:1; fill:none" points="243.467,955.196 262.365,955.196 "/>
<polyline clip-path="url(#clip980)" style="stroke:#000000; stroke-linecap:round; stroke-linejoin:round; stroke-width:4; stroke-opacity:1; fill:none" points="243.467,575.499 262.365,575.499 "/>
<polyline clip-path="url(#clip980)" style="stroke:#000000; stroke-linecap:round; stroke-linejoin:round; stroke-width:4; stroke-opacity:1; fill:none" points="243.467,195.803 262.365,195.803 "/>
<path clip-path="url(#clip980)" d="M183.523 1700.39 Q179.912 1700.39 178.083 1703.95 Q176.278 1707.49 176.278 1714.62 Q176.278 1721.73 178.083 1725.29 Q179.912 1728.84 183.523 1728.84 Q187.157 1728.84 188.963 1725.29 Q190.791 1721.73 190.791 1714.62 Q190.791 1707.49 188.963 1703.95 Q187.157 1700.39 183.523 1700.39 M183.523 1696.68 Q189.333 1696.68 192.389 1701.29 Q195.467 1705.87 195.467 1714.62 Q195.467 1723.35 192.389 1727.96 Q189.333 1732.54 183.523 1732.54 Q177.713 1732.54 174.634 1727.96 Q171.579 1723.35 171.579 1714.62 Q171.579 1705.87 174.634 1701.29 Q177.713 1696.68 183.523 1696.68 Z" fill="#000000" fill-rule="nonzero" fill-opacity="1" /><path clip-path="url(#clip980)" d="M175.56 1348.24 L183.199 1348.24 L183.199 1321.87 L174.889 1323.54 L174.889 1319.28 L183.153 1317.61 L187.828 1317.61 L187.828 1348.24 L195.467 1348.24 L195.467 1352.17 L175.56 1352.17 L175.56 1348.24 Z" fill="#000000" fill-rule="nonzero" fill-opacity="1" /><path clip-path="url(#clip980)" d="M179.148 968.541 L195.467 968.541 L195.467 972.476 L173.523 972.476 L173.523 968.541 Q176.185 965.786 180.768 961.156 Q185.375 956.504 186.555 955.161 Q188.801 952.638 189.68 950.902 Q190.583 949.143 190.583 947.453 Q190.583 944.698 188.639 942.962 Q186.717 941.226 183.616 941.226 Q181.416 941.226 178.963 941.99 Q176.532 942.754 173.754 944.305 L173.754 939.583 Q176.579 938.448 179.032 937.87 Q181.486 937.291 183.523 937.291 Q188.893 937.291 192.088 939.976 Q195.282 942.661 195.282 947.152 Q195.282 949.282 194.472 951.203 Q193.685 953.101 191.578 955.694 Q191 956.365 187.898 959.582 Q184.796 962.777 179.148 968.541 Z" fill="#000000" fill-rule="nonzero" fill-opacity="1" /><path clip-path="url(#clip980)" d="M188.338 574.145 Q191.694 574.863 193.569 577.131 Q195.467 579.4 195.467 582.733 Q195.467 587.849 191.949 590.65 Q188.43 593.451 181.949 593.451 Q179.773 593.451 177.458 593.011 Q175.167 592.594 172.713 591.738 L172.713 587.224 Q174.657 588.358 176.972 588.937 Q179.287 589.515 181.81 589.515 Q186.208 589.515 188.5 587.779 Q190.815 586.043 190.815 582.733 Q190.815 579.678 188.662 577.965 Q186.532 576.228 182.713 576.228 L178.685 576.228 L178.685 572.386 L182.898 572.386 Q186.347 572.386 188.176 571.02 Q190.004 569.631 190.004 567.039 Q190.004 564.377 188.106 562.965 Q186.231 561.529 182.713 561.529 Q180.791 561.529 178.592 561.946 Q176.393 562.363 173.754 563.242 L173.754 559.076 Q176.417 558.335 178.731 557.965 Q181.069 557.594 183.129 557.594 Q188.453 557.594 191.555 560.025 Q194.657 562.432 194.657 566.553 Q194.657 569.423 193.014 571.414 Q191.37 573.381 188.338 574.145 Z" fill="#000000" fill-rule="nonzero" fill-opacity="1" /><path clip-path="url(#clip980)" d="M185.884 182.597 L174.079 201.046 L185.884 201.046 L185.884 182.597 M184.657 178.523 L190.537 178.523 L190.537 201.046 L195.467 201.046 L195.467 204.935 L190.537 204.935 L190.537 213.083 L185.884 213.083 L185.884 204.935 L170.282 204.935 L170.282 200.421 L184.657 178.523 Z" fill="#000000" fill-rule="nonzero" fill-opacity="1" /><path clip-path="url(#clip980)" d="M73.747 1119.4 L79.2215 1119.4 Q77.8528 1121.88 77.1844 1124.39 Q76.4842 1126.88 76.4842 1129.42 Q76.4842 1135.12 80.1127 1138.27 Q83.7093 1141.42 90.2341 1141.42 Q96.759 1141.42 100.387 1138.27 Q103.984 1135.12 103.984 1129.42 Q103.984 1126.88 103.316 1124.39 Q102.615 1121.88 101.247 1119.4 L106.658 1119.4 Q107.803 1121.85 108.376 1124.49 Q108.949 1127.1 108.949 1130.06 Q108.949 1138.11 103.889 1142.85 Q98.8278 1147.6 90.2341 1147.6 Q81.5131 1147.6 76.516 1142.82 Q71.519 1138.02 71.519 1129.68 Q71.519 1126.97 72.0919 1124.39 Q72.633 1121.81 73.747 1119.4 Z" fill="#000000" fill-rule="nonzero" fill-opacity="1" /><path clip-path="url(#clip980)" d="M60.5063 1115.54 L60.5063 1075.35 L65.9171 1075.35 L65.9171 1092.21 L108.026 1092.21 L108.026 1098.68 L65.9171 1098.68 L65.9171 1115.54 L60.5063 1115.54 Z" fill="#000000" fill-rule="nonzero" fill-opacity="1" /><path clip-path="url(#clip980)" d="M86.5102 1039.76 L108.026 1039.76 L108.026 1045.62 L86.7012 1045.62 Q81.6404 1045.62 79.126 1047.59 Q76.6115 1049.56 76.6115 1053.51 Q76.6115 1058.25 79.6352 1060.99 Q82.6589 1063.73 87.8788 1063.73 L108.026 1063.73 L108.026 1069.62 L72.3783 1069.62 L72.3783 1063.73 L77.9165 1063.73 Q74.7018 1061.63 73.1104 1058.79 Q71.519 1055.93 71.519 1052.21 Q71.519 1046.06 75.3384 1042.91 Q79.126 1039.76 86.5102 1039.76 Z" fill="#000000" fill-rule="nonzero" fill-opacity="1" /><path clip-path="url(#clip980)" d="M60.5063 1034.41 L60.5063 994.214 L65.9171 994.214 L65.9171 1011.08 L108.026 1011.08 L108.026 1017.54 L65.9171 1017.54 L65.9171 1034.41 L60.5063 1034.41 Z" fill="#000000" fill-rule="nonzero" fill-opacity="1" /><path clip-path="url(#clip980)" d="M58.5011 968.083 L58.5011 954.588 L63.0526 954.588 L63.0526 962.226 L112.069 962.226 L112.069 954.588 L116.62 954.588 L116.62 968.083 L58.5011 968.083 Z" fill="#000000" fill-rule="nonzero" fill-opacity="1" /><path clip-path="url(#clip980)" d="M86.5102 912.478 L108.026 912.478 L108.026 918.335 L86.7012 918.335 Q81.6404 918.335 79.126 920.308 Q76.6115 922.282 76.6115 926.228 Q76.6115 930.971 79.6352 933.708 Q82.6589 936.445 87.8788 936.445 L108.026 936.445 L108.026 942.334 L72.3783 942.334 L72.3783 936.445 L77.9165 936.445 Q74.7018 934.345 73.1104 931.512 Q71.519 928.647 71.519 924.923 Q71.519 918.781 75.3384 915.63 Q79.126 912.478 86.5102 912.478 Z" fill="#000000" fill-rule="nonzero" fill-opacity="1" /><path clip-path="url(#clip980)" d="M89.7885 877.34 Q83.4228 877.34 79.9217 879.982 Q76.4206 882.591 76.4206 887.334 Q76.4206 892.045 79.9217 894.686 Q83.4228 897.296 89.7885 897.296 Q96.1224 897.296 99.6236 894.686 Q103.125 892.045 103.125 887.334 Q103.125 882.591 99.6236 879.982 Q96.1224 877.34 89.7885 877.34 M103.602 871.483 Q112.705 871.483 117.129 875.526 Q121.585 879.568 121.585 887.907 Q121.585 890.994 121.108 893.731 Q120.662 896.469 119.707 899.047 L114.01 899.047 Q115.411 896.469 116.079 893.954 Q116.747 891.44 116.747 888.83 Q116.747 883.069 113.724 880.204 Q110.732 877.34 104.652 877.34 L101.756 877.34 Q104.907 879.154 106.467 881.987 Q108.026 884.819 108.026 888.766 Q108.026 895.323 103.029 899.333 Q98.0321 903.344 89.7885 903.344 Q81.5131 903.344 76.516 899.333 Q71.519 895.323 71.519 888.766 Q71.519 884.819 73.0786 881.987 Q74.6382 879.154 77.7892 877.34 L72.3783 877.34 L72.3783 871.483 L103.602 871.483 Z" fill="#000000" fill-rule="nonzero" fill-opacity="1" /><path clip-path="url(#clip980)" d="M60.5063 849.012 L60.5063 843.602 L114.074 860.152 L114.074 865.563 L60.5063 849.012 Z" fill="#000000" fill-rule="nonzero" fill-opacity="1" /><path clip-path="url(#clip980)" d="M79.2215 809.704 Q75.2747 807.508 73.3968 804.452 Q71.519 801.397 71.519 797.259 Q71.519 791.689 75.4339 788.665 Q79.3169 785.642 86.5102 785.642 L108.026 785.642 L108.026 791.53 L86.7012 791.53 Q81.5768 791.53 79.0941 793.344 Q76.6115 795.159 76.6115 798.882 Q76.6115 803.434 79.6352 806.076 Q82.6589 808.717 87.8788 808.717 L108.026 808.717 L108.026 814.606 L86.7012 814.606 Q81.5449 814.606 79.0941 816.42 Q76.6115 818.234 76.6115 822.022 Q76.6115 826.51 79.6671 829.151 Q82.6908 831.793 87.8788 831.793 L108.026 831.793 L108.026 837.681 L72.3783 837.681 L72.3783 831.793 L77.9165 831.793 Q74.6382 829.788 73.0786 826.987 Q71.519 824.186 71.519 820.335 Q71.519 816.452 73.4923 813.746 Q75.4657 811.009 79.2215 809.704 Z" fill="#000000" fill-rule="nonzero" fill-opacity="1" /><path clip-path="url(#clip980)" d="M60.5063 773.706 L60.5063 767.277 L102.615 767.277 L102.615 744.137 L108.026 744.137 L108.026 773.706 L60.5063 773.706 Z" fill="#000000" fill-rule="nonzero" fill-opacity="1" /><path clip-path="url(#clip980)" d="M58.5011 723.958 L116.62 723.958 L116.62 737.453 L112.069 737.453 L112.069 729.846 L63.0526 729.846 L63.0526 737.453 L58.5011 737.453 L58.5011 723.958 Z" fill="#000000" fill-rule="nonzero" fill-opacity="1" /><circle clip-path="url(#clip982)" cx="328.792" cy="1435.89" r="21.6" fill="#ff0000" fill-rule="evenodd" fill-opacity="1" stroke="#000000" stroke-opacity="1" stroke-width="6"/>
<circle clip-path="url(#clip982)" cx="345.006" cy="1027.34" r="21.6" fill="#ff0000" fill-rule="evenodd" fill-opacity="1" stroke="#000000" stroke-opacity="1" stroke-width="6"/>
<circle clip-path="url(#clip982)" cx="641.311" cy="742.566" r="21.6" fill="#ff0000" fill-rule="evenodd" fill-opacity="1" stroke="#000000" stroke-opacity="1" stroke-width="6"/>
<circle clip-path="url(#clip982)" cx="802.18" cy="1160.23" r="21.6" fill="#ff0000" fill-rule="evenodd" fill-opacity="1" stroke="#000000" stroke-opacity="1" stroke-width="6"/>
<circle clip-path="url(#clip982)" cx="1259.99" cy="1202" r="21.6" fill="#ff0000" fill-rule="evenodd" fill-opacity="1" stroke="#000000" stroke-opacity="1" stroke-width="6"/>
<circle clip-path="url(#clip982)" cx="1715.58" cy="1202" r="21.6" fill="#ff0000" fill-rule="evenodd" fill-opacity="1" stroke="#000000" stroke-opacity="1" stroke-width="6"/>
<circle clip-path="url(#clip982)" cx="2178.47" cy="1327.3" r="21.6" fill="#ff0000" fill-rule="evenodd" fill-opacity="1" stroke="#000000" stroke-opacity="1" stroke-width="6"/>
<circle clip-path="url(#clip982)" cx="2627.7" cy="1495.12" r="21.6" fill="#ff0000" fill-rule="evenodd" fill-opacity="1" stroke="#000000" stroke-opacity="1" stroke-width="6"/>
<polyline clip-path="url(#clip982)" style="stroke:#ff8c00; stroke-linecap:round; stroke-linejoin:round; stroke-width:8; stroke-opacity:1; fill:none" stroke-dasharray="32, 20" points="324.023,1714.59 343.098,931.072 362.174,494.322 381.249,270.138 400.325,174.986 419.4,156.965 438.476,183.918 457.551,235.999 476.626,301.038 495.702,371.64 514.777,443.375 533.853,513.653 552.928,581.015 572.004,644.696 591.079,704.351 610.154,759.886 629.23,811.349 648.305,858.872 667.381,902.621 686.456,942.784 705.532,979.545 724.607,1013.08 743.682,1043.57 762.758,1071.15 781.833,1095.99 800.909,1118.2 819.984,1137.91 839.06,1155.26 858.135,1170.34 877.21,1183.28 896.286,1194.2 915.361,1203.21 934.437,1210.46 953.512,1216.07 972.588,1220.19 991.663,1222.96 1010.74,1224.55 1029.81,1225.09 1048.89,1224.74 1067.96,1223.66 1087.04,1221.99 1106.12,1219.86 1125.19,1217.4 1144.27,1214.73 1163.34,1211.96 1182.42,1209.18 1201.49,1206.47 1220.57,1203.9 1239.64,1201.53 1258.72,1199.41 1277.79,1197.58 1296.87,1196.07 1315.95,1194.89 1335.02,1194.07 1354.1,1193.6 1373.17,1193.5 1392.25,1193.77 1411.32,1194.39 1430.4,1195.35 1449.47,1196.66 1468.55,1198.28 1487.62,1200.22 1506.7,1202.45 1525.78,1204.96 1544.85,1207.73 1563.93,1210.74 1583,1213.98 1602.08,1217.43 1621.15,1221.07 1640.23,1224.9 1659.3,1228.88 1678.38,1233.02 1697.45,1237.28 1716.53,1241.67 1735.61,1246.17 1754.68,1250.76 1773.76,1255.43 1792.83,1260.18 1811.91,1264.99 1830.98,1269.85 1850.06,1274.75 1869.13,1279.69 1888.21,1284.66 1907.28,1289.65 1926.36,1294.65 1945.43,1299.66 1964.51,1304.68 1983.59,1309.68 2002.66,1314.68 2021.74,1319.67 2040.81,1324.64 2059.89,1329.58 2078.96,1334.51 2098.04,1339.4 2117.11,1344.27 2136.19,1349.1 2155.26,1353.9 2174.34,1358.66 2193.42,1363.38 2212.49,1368.06 2231.57,1372.7 2250.64,1377.3 2269.72,1381.85 2288.79,1386.35 2307.87,1390.81 2326.94,1395.22 2346.02,1399.59 2365.09,1403.91 2384.17,1408.18 2403.25,1412.4 2422.32,1416.57 2441.4,1420.69 2460.47,1424.76 2479.55,1428.79 2498.62,1432.77 2517.7,1436.7 2536.77,1440.58 2555.85,1444.42 2574.92,1448.2 2594,1451.94 2613.08,1455.64 2632.15,1459.29 2651.23,1462.89 2670.3,1466.46 2689.38,1469.97 2708.45,1473.45 2727.53,1476.88 2746.6,1480.27 2765.68,1483.62 2784.75,1486.93 2803.83,1490.2 2822.9,1493.43 2841.98,1496.62 2861.06,1499.78 2880.13,1502.9 2899.21,1505.98 2918.28,1509.03 2937.36,1512.05 2956.43,1515.03 2975.51,1517.98 2994.58,1520.91 3009.21,1523.12 "/>
</svg>
