<?xml version="1.0" encoding="utf-8"?>
<svg xmlns="http://www.w3.org/2000/svg" xmlns:xlink="http://www.w3.org/1999/xlink" width="800" height="500" viewBox="0 0 3200 2000">
<defs>
  <clipPath id="clip480">
    <rect x="0" y="0" width="3200" height="2000"/>
  </clipPath>
</defs>
<path clip-path="url(#clip480)" d="M0 2000 L3200 2000 L3200 0 L0 0  Z" fill="#ffffff" fill-rule="evenodd" fill-opacity="1"/>
<defs>
  <clipPath id="clip481">
    <rect x="347" y="110" width="2743" height="1652"/>
  </clipPath>
</defs>
<path clip-path="url(#clip480)" d="M287.888 1761.32 L3089.76 1761.32 L3089.76 110.236 L287.888 110.236  Z" fill="#ffffff" fill-rule="evenodd" fill-opacity="1"/>
<defs>
  <clipPath id="clip482">
    <rect x="287" y="110" width="2803" height="1652"/>
  </clipPath>
</defs>
<polyline clip-path="url(#clip482)" style="stroke:#000000; stroke-linecap:round; stroke-linejoin:round; stroke-width:2; stroke-opacity:0.1; fill:none" points="367.187,1761.32 367.187,110.236 "/>
<polyline clip-path="url(#clip482)" style="stroke:#000000; stroke-linecap:round; stroke-linejoin:round; stroke-width:2; stroke-opacity:0.1; fill:none" points="790.055,1761.32 790.055,110.236 "/>
<polyline clip-path="url(#clip482)" style="stroke:#000000; stroke-linecap:round; stroke-linejoin:round; stroke-width:2; stroke-opacity:0.1; fill:none" points="1212.92,1761.32 1212.92,110.236 "/>
<polyline clip-path="url(#clip482)" style="stroke:#000000; stroke-linecap:round; stroke-linejoin:round; stroke-width:2; stroke-opacity:0.1; fill:none" points="1635.79,1761.32 1635.79,110.236 "/>
<polyline clip-path="url(#clip482)" style="stroke:#000000; stroke-linecap:round; stroke-linejoin:round; stroke-width:2; stroke-opacity:0.1; fill:none" points="2058.66,1761.32 2058.66,110.236 "/>
<polyline clip-path="url(#clip482)" style="stroke:#000000; stroke-linecap:round; stroke-linejoin:round; stroke-width:2; stroke-opacity:0.1; fill:none" points="2481.53,1761.32 2481.53,110.236 "/>
<polyline clip-path="url(#clip482)" style="stroke:#000000; stroke-linecap:round; stroke-linejoin:round; stroke-width:2; stroke-opacity:0.1; fill:none" points="2904.4,1761.32 2904.4,110.236 "/>
<polyline clip-path="url(#clip482)" style="stroke:#000000; stroke-linecap:round; stroke-linejoin:round; stroke-width:2; stroke-opacity:0.1; fill:none" points="287.888,1714.59 3089.76,1714.59 "/>
<polyline clip-path="url(#clip482)" style="stroke:#000000; stroke-linecap:round; stroke-linejoin:round; stroke-width:2; stroke-opacity:0.1; fill:none" points="287.888,1263.1 3089.76,1263.1 "/>
<polyline clip-path="url(#clip482)" style="stroke:#000000; stroke-linecap:round; stroke-linejoin:round; stroke-width:2; stroke-opacity:0.1; fill:none" points="287.888,811.619 3089.76,811.619 "/>
<polyline clip-path="url(#clip482)" style="stroke:#000000; stroke-linecap:round; stroke-linejoin:round; stroke-width:2; stroke-opacity:0.1; fill:none" points="287.888,360.133 3089.76,360.133 "/>
<polyline clip-path="url(#clip480)" style="stroke:#000000; stroke-linecap:round; stroke-linejoin:round; stroke-width:4; stroke-opacity:1; fill:none" points="287.888,1761.32 3089.76,1761.32 "/>
<polyline clip-path="url(#clip480)" style="stroke:#000000; stroke-linecap:round; stroke-linejoin:round; stroke-width:4; stroke-opacity:1; fill:none" points="367.187,1761.32 367.187,1742.42 "/>
<polyline clip-path="url(#clip480)" style="stroke:#000000; stroke-linecap:round; stroke-linejoin:round; stroke-width:4; stroke-opacity:1; fill:none" points="790.055,1761.32 790.055,1742.42 "/>
<polyline clip-path="url(#clip480)" style="stroke:#000000; stroke-linecap:round; stroke-linejoin:round; stroke-width:4; stroke-opacity:1; fill:none" points="1212.92,1761.32 1212.92,1742.42 "/>
<polyline clip-path="url(#clip480)" style="stroke:#000000; stroke-linecap:round; stroke-linejoin:round; stroke-width:4; stroke-opacity:1; fill:none" points="1635.79,1761.32 1635.79,1742.42 "/>
<polyline clip-path="url(#clip480)" style="stroke:#000000; stroke-linecap:round; stroke-linejoin:round; stroke-width:4; stroke-opacity:1; fill:none" points="2058.66,1761.32 2058.66,1742.42 "/>
<polyline clip-path="url(#clip480)" style="stroke:#000000; stroke-linecap:round; stroke-linejoin:round; stroke-width:4; stroke-opacity:1; fill:none" points="2481.53,1761.32 2481.53,1742.42 "/>
<polyline clip-path="url(#clip480)" style="stroke:#000000; stroke-linecap:round; stroke-linejoin:round; stroke-width:4; stroke-opacity:1; fill:none" points="2904.4,1761.32 2904.4,1742.42 "/>
<path clip-path="url(#clip480)" d="M367.187 1798.64 Q363.576 1798.64 361.747 1802.2 Q359.941 1805.74 359.941 1812.87 Q359.941 1819.98 361.747 1823.54 Q363.576 1827.09 367.187 1827.09 Q370.821 1827.09 372.627 1823.54 Q374.455 1819.98 374.455 1812.87 Q374.455 1805.74 372.627 1802.2 Q370.821 1798.64 367.187 1798.64 M367.187 1794.93 Q372.997 1794.93 376.052 1799.54 Q379.131 1804.12 379.131 1812.87 Q379.131 1821.6 376.052 1826.21 Q372.997 1830.79 367.187 1830.79 Q361.377 1830.79 358.298 1826.21 Q355.242 1821.6 355.242 1812.87 Q355.242 1804.12 358.298 1799.54 Q361.377 1794.93 367.187 1794.93 Z" fill="#000000" fill-rule="nonzero" fill-opacity="1" /><path clip-path="url(#clip480)" d="M768.828 1826.18 L785.148 1826.18 L785.148 1830.12 L763.203 1830.12 L763.203 1826.18 Q765.865 1823.43 770.449 1818.8 Q775.055 1814.15 776.236 1812.8 Q778.481 1810.28 779.361 1808.54 Q780.263 1806.78 780.263 1805.09 Q780.263 1802.34 778.319 1800.6 Q776.398 1798.87 773.296 1798.87 Q771.097 1798.87 768.643 1799.63 Q766.212 1800.4 763.435 1801.95 L763.435 1797.22 Q766.259 1796.09 768.712 1795.51 Q771.166 1794.93 773.203 1794.93 Q778.574 1794.93 781.768 1797.62 Q784.962 1800.3 784.962 1804.79 Q784.962 1806.92 784.152 1808.84 Q783.365 1810.74 781.259 1813.34 Q780.68 1814.01 777.578 1817.22 Q774.476 1820.42 768.828 1826.18 Z" fill="#000000" fill-rule="nonzero" fill-opacity="1" /><path clip-path="url(#clip480)" d="M804.962 1798.64 Q801.351 1798.64 799.522 1802.2 Q797.717 1805.74 797.717 1812.87 Q797.717 1819.98 799.522 1823.54 Q801.351 1827.09 804.962 1827.09 Q808.597 1827.09 810.402 1823.54 Q812.231 1819.98 812.231 1812.87 Q812.231 1805.74 810.402 1802.2 Q808.597 1798.64 804.962 1798.64 M804.962 1794.93 Q810.772 1794.93 813.828 1799.54 Q816.907 1804.12 816.907 1812.87 Q816.907 1821.6 813.828 1826.21 Q810.772 1830.79 804.962 1830.79 Q799.152 1830.79 796.073 1826.21 Q793.018 1821.6 793.018 1812.87 Q793.018 1804.12 796.073 1799.54 Q799.152 1794.93 804.962 1794.93 Z" fill="#000000" fill-rule="nonzero" fill-opacity="1" /><path clip-path="url(#clip480)" d="M1201.09 1799.63 L1189.29 1818.08 L1201.09 1818.08 L1201.09 1799.63 M1199.87 1795.56 L1205.75 1795.56 L1205.75 1818.08 L1210.68 1818.08 L1210.68 1821.97 L1205.75 1821.97 L1205.75 1830.12 L1201.09 1830.12 L1201.09 1821.97 L1185.49 1821.97 L1185.49 1817.46 L1199.87 1795.56 Z" fill="#000000" fill-rule="nonzero" fill-opacity="1" /><path clip-path="url(#clip480)" d="M1228.41 1798.64 Q1224.8 1798.64 1222.97 1802.2 Q1221.16 1805.74 1221.16 1812.87 Q1221.16 1819.98 1222.97 1823.54 Q1224.8 1827.09 1228.41 1827.09 Q1232.04 1827.09 1233.85 1823.54 Q1235.68 1819.98 1235.68 1812.87 Q1235.68 1805.74 1233.85 1802.2 Q1232.04 1798.64 1228.41 1798.64 M1228.41 1794.93 Q1234.22 1794.93 1237.27 1799.54 Q1240.35 1804.12 1240.35 1812.87 Q1240.35 1821.6 1237.27 1826.21 Q1234.22 1830.79 1228.41 1830.79 Q1222.6 1830.79 1219.52 1826.21 Q1216.46 1821.6 1216.46 1812.87 Q1216.46 1804.12 1219.52 1799.54 Q1222.6 1794.93 1228.41 1794.93 Z" fill="#000000" fill-rule="nonzero" fill-opacity="1" /><path clip-path="url(#clip480)" d="M1621.2 1810.97 Q1618.05 1810.97 1616.2 1813.13 Q1614.37 1815.28 1614.37 1819.03 Q1614.37 1822.76 1616.2 1824.93 Q1618.05 1827.09 1621.2 1827.09 Q1624.34 1827.09 1626.17 1824.93 Q1628.03 1822.76 1628.03 1819.03 Q1628.03 1815.28 1626.17 1813.13 Q1624.34 1810.97 1621.2 1810.97 M1630.48 1796.32 L1630.48 1800.58 Q1628.72 1799.75 1626.91 1799.31 Q1625.13 1798.87 1623.37 1798.87 Q1618.74 1798.87 1616.29 1801.99 Q1613.86 1805.12 1613.51 1811.44 Q1614.88 1809.42 1616.94 1808.36 Q1619 1807.27 1621.47 1807.27 Q1626.68 1807.27 1629.69 1810.44 Q1632.72 1813.59 1632.72 1819.03 Q1632.72 1824.35 1629.58 1827.57 Q1626.43 1830.79 1621.2 1830.79 Q1615.2 1830.79 1612.03 1826.21 Q1608.86 1821.6 1608.86 1812.87 Q1608.86 1804.68 1612.75 1799.82 Q1616.64 1794.93 1623.19 1794.93 Q1624.95 1794.93 1626.73 1795.28 Q1628.53 1795.63 1630.48 1796.32 Z" fill="#000000" fill-rule="nonzero" fill-opacity="1" /><path clip-path="url(#clip480)" d="M1650.78 1798.64 Q1647.17 1798.64 1645.34 1802.2 Q1643.53 1805.74 1643.53 1812.87 Q1643.53 1819.98 1645.34 1823.54 Q1647.17 1827.09 1650.78 1827.09 Q1654.41 1827.09 1656.22 1823.54 Q1658.05 1819.98 1658.05 1812.87 Q1658.05 1805.74 1656.22 1802.2 Q1654.41 1798.64 1650.78 1798.64 M1650.78 1794.93 Q1656.59 1794.93 1659.65 1799.54 Q1662.72 1804.12 1662.72 1812.87 Q1662.72 1821.6 1659.65 1826.21 Q1656.59 1830.79 1650.78 1830.79 Q1644.97 1830.79 1641.89 1826.21 Q1638.84 1821.6 1638.84 1812.87 Q1638.84 1804.12 1641.89 1799.54 Q1644.97 1794.93 1650.78 1794.93 Z" fill="#000000" fill-rule="nonzero" fill-opacity="1" /><path clip-path="url(#clip480)" d="M2043.53 1813.71 Q2040.2 1813.71 2038.28 1815.49 Q2036.38 1817.27 2036.38 1820.4 Q2036.38 1823.52 2038.28 1825.3 Q2040.2 1827.09 2043.53 1827.09 Q2046.87 1827.09 2048.79 1825.3 Q2050.71 1823.5 2050.71 1820.4 Q2050.71 1817.27 2048.79 1815.49 Q2046.89 1813.71 2043.53 1813.71 M2038.86 1811.72 Q2035.85 1810.97 2034.16 1808.91 Q2032.49 1806.85 2032.49 1803.89 Q2032.49 1799.75 2035.43 1797.34 Q2038.39 1794.93 2043.53 1794.93 Q2048.69 1794.93 2051.63 1797.34 Q2054.57 1799.75 2054.57 1803.89 Q2054.57 1806.85 2052.88 1808.91 Q2051.22 1810.97 2048.23 1811.72 Q2051.61 1812.5 2053.49 1814.79 Q2055.38 1817.09 2055.38 1820.4 Q2055.38 1825.42 2052.31 1828.1 Q2049.25 1830.79 2043.53 1830.79 Q2037.81 1830.79 2034.74 1828.1 Q2031.68 1825.42 2031.68 1820.4 Q2031.68 1817.09 2033.58 1814.79 Q2035.48 1812.5 2038.86 1811.72 M2037.14 1804.33 Q2037.14 1807.02 2038.81 1808.52 Q2040.5 1810.03 2043.53 1810.03 Q2046.54 1810.03 2048.23 1808.52 Q2049.94 1807.02 2049.94 1804.33 Q2049.94 1801.65 2048.23 1800.14 Q2046.54 1798.64 2043.53 1798.64 Q2040.5 1798.64 2038.81 1800.14 Q2037.14 1801.65 2037.14 1804.33 Z" fill="#000000" fill-rule="nonzero" fill-opacity="1" /><path clip-path="url(#clip480)" d="M2073.69 1798.64 Q2070.08 1798.64 2068.25 1802.2 Q2066.45 1805.74 2066.45 1812.87 Q2066.45 1819.98 2068.25 1823.54 Q2070.08 1827.09 2073.69 1827.09 Q2077.33 1827.09 2079.13 1823.54 Q2080.96 1819.98 2080.96 1812.87 Q2080.96 1805.74 2079.13 1802.2 Q2077.33 1798.64 2073.69 1798.64 M2073.69 1794.93 Q2079.5 1794.93 2082.56 1799.54 Q2085.64 1804.12 2085.64 1812.87 Q2085.64 1821.6 2082.56 1826.21 Q2079.5 1830.79 2073.69 1830.79 Q2067.88 1830.79 2064.81 1826.21 Q2061.75 1821.6 2061.75 1812.87 Q2061.75 1804.12 2064.81 1799.54 Q2067.88 1794.93 2073.69 1794.93 Z" fill="#000000" fill-rule="nonzero" fill-opacity="1" /><path clip-path="url(#clip480)" d="M2441.13 1826.18 L2448.77 1826.18 L2448.77 1799.82 L2440.46 1801.48 L2440.46 1797.22 L2448.73 1795.56 L2453.4 1795.56 L2453.4 1826.18 L2461.04 1826.18 L2461.04 1830.12 L2441.13 1830.12 L2441.13 1826.18 Z" fill="#000000" fill-rule="nonzero" fill-opacity="1" /><path clip-path="url(#clip480)" d="M2480.49 1798.64 Q2476.88 1798.64 2475.05 1802.2 Q2473.24 1805.74 2473.24 1812.87 Q2473.24 1819.98 2475.05 1823.54 Q2476.88 1827.09 2480.49 1827.09 Q2484.12 1827.09 2485.93 1823.54 Q2487.75 1819.98 2487.75 1812.87 Q2487.75 1805.74 2485.93 1802.2 Q2484.12 1798.64 2480.49 1798.64 M2480.49 1794.93 Q2486.3 1794.93 2489.35 1799.54 Q2492.43 1804.12 2492.43 1812.87 Q2492.43 1821.6 2489.35 1826.21 Q2486.3 1830.79 2480.49 1830.79 Q2474.68 1830.79 2471.6 1826.21 Q2468.54 1821.6 2468.54 1812.87 Q2468.54 1804.12 2471.6 1799.54 Q2474.68 1794.93 2480.49 1794.93 Z" fill="#000000" fill-rule="nonzero" fill-opacity="1" /><path clip-path="url(#clip480)" d="M2510.65 1798.64 Q2507.04 1798.64 2505.21 1802.2 Q2503.4 1805.74 2503.4 1812.87 Q2503.4 1819.98 2505.21 1823.54 Q2507.04 1827.09 2510.65 1827.09 Q2514.28 1827.09 2516.09 1823.54 Q2517.92 1819.98 2517.92 1812.87 Q2517.92 1805.74 2516.09 1802.2 Q2514.28 1798.64 2510.65 1798.64 M2510.65 1794.93 Q2516.46 1794.93 2519.51 1799.54 Q2522.59 1804.12 2522.59 1812.87 Q2522.59 1821.6 2519.51 1826.21 Q2516.46 1830.79 2510.65 1830.79 Q2504.84 1830.79 2501.76 1826.21 Q2498.7 1821.6 2498.7 1812.87 Q2498.7 1804.12 2501.76 1799.54 Q2504.84 1794.93 2510.65 1794.93 Z" fill="#000000" fill-rule="nonzero" fill-opacity="1" /><path clip-path="url(#clip480)" d="M2864 1826.18 L2871.64 1826.18 L2871.64 1799.82 L2863.33 1801.48 L2863.33 1797.22 L2871.6 1795.56 L2876.27 1795.56 L2876.27 1826.18 L2883.91 1826.18 L2883.91 1830.12 L2864 1830.12 L2864 1826.18 Z" fill="#000000" fill-rule="nonzero" fill-opacity="1" /><path clip-path="url(#clip480)" d="M2897.38 1826.18 L2913.7 1826.18 L2913.7 1830.12 L2891.76 1830.12 L2891.76 1826.18 Q2894.42 1823.43 2899 1818.8 Q2903.61 1814.15 2904.79 1812.8 Q2907.03 1810.28 2907.91 1808.54 Q2908.82 1806.78 2908.82 1805.09 Q2908.82 1802.34 2906.87 1800.6 Q2904.95 1798.87 2901.85 1798.87 Q2899.65 1798.87 2897.2 1799.63 Q2894.77 1800.4 2891.99 1801.95 L2891.99 1797.22 Q2894.81 1796.09 2897.27 1795.51 Q2899.72 1794.93 2901.76 1794.93 Q2907.13 1794.93 2910.32 1797.62 Q2913.52 1800.3 2913.52 1804.79 Q2913.52 1806.92 2912.71 1808.84 Q2911.92 1810.74 2909.81 1813.34 Q2909.23 1814.01 2906.13 1817.22 Q2903.03 1820.42 2897.38 1826.18 Z" fill="#000000" fill-rule="nonzero" fill-opacity="1" /><path clip-path="url(#clip480)" d="M2933.52 1798.64 Q2929.91 1798.64 2928.08 1802.2 Q2926.27 1805.74 2926.27 1812.87 Q2926.27 1819.98 2928.08 1823.54 Q2929.91 1827.09 2933.52 1827.09 Q2937.15 1827.09 2938.96 1823.54 Q2940.78 1819.98 2940.78 1812.87 Q2940.78 1805.74 2938.96 1802.2 Q2937.15 1798.64 2933.52 1798.64 M2933.52 1794.93 Q2939.33 1794.93 2942.38 1799.54 Q2945.46 1804.12 2945.46 1812.87 Q2945.46 1821.6 2942.38 1826.21 Q2939.33 1830.79 2933.52 1830.79 Q2927.71 1830.79 2924.63 1826.21 Q2921.57 1821.6 2921.57 1812.87 Q2921.57 1804.12 2924.63 1799.54 Q2927.71 1794.93 2933.52 1794.93 Z" fill="#000000" fill-rule="nonzero" fill-opacity="1" /><path clip-path="url(#clip480)" d="M1555.32 1870.66 L1595.52 1870.66 L1595.52 1876.07 L1578.65 1876.07 L1578.65 1918.18 L1572.19 1918.18 L1572.19 1876.07 L1555.32 1876.07 L1555.32 1870.66 Z" fill="#000000" fill-rule="nonzero" fill-opacity="1" /><path clip-path="url(#clip480)" d="M1599.47 1882.53 L1605.32 1882.53 L1605.32 1918.18 L1599.47 1918.18 L1599.47 1882.53 M1599.47 1868.66 L1605.32 1868.66 L1605.32 1876.07 L1599.47 1876.07 L1599.47 1868.66 Z" fill="#000000" fill-rule="nonzero" fill-opacity="1" /><path clip-path="url(#clip480)" d="M1645.33 1889.38 Q1647.53 1885.43 1650.58 1883.55 Q1653.64 1881.67 1657.78 1881.67 Q1663.35 1881.67 1666.37 1885.59 Q1669.39 1889.47 1669.39 1896.67 L1669.39 1918.18 L1663.51 1918.18 L1663.51 1896.86 Q1663.51 1891.73 1661.69 1889.25 Q1659.88 1886.77 1656.15 1886.77 Q1651.6 1886.77 1648.96 1889.79 Q1646.32 1892.81 1646.32 1898.03 L1646.32 1918.18 L1640.43 1918.18 L1640.43 1896.86 Q1640.43 1891.7 1638.62 1889.25 Q1636.8 1886.77 1633.01 1886.77 Q1628.53 1886.77 1625.89 1889.82 Q1623.24 1892.85 1623.24 1898.03 L1623.24 1918.18 L1617.36 1918.18 L1617.36 1882.53 L1623.24 1882.53 L1623.24 1888.07 Q1625.25 1884.79 1628.05 1883.23 Q1630.85 1881.67 1634.7 1881.67 Q1638.58 1881.67 1641.29 1883.65 Q1644.03 1885.62 1645.33 1889.38 Z" fill="#000000" fill-rule="nonzero" fill-opacity="1" /><path clip-path="url(#clip480)" d="M1711.57 1898.89 L1711.57 1901.76 L1684.64 1901.76 Q1685.02 1907.81 1688.27 1910.99 Q1691.55 1914.14 1697.37 1914.14 Q1700.75 1914.14 1703.9 1913.31 Q1707.08 1912.48 1710.2 1910.83 L1710.2 1916.37 Q1707.05 1917.7 1703.74 1918.4 Q1700.43 1919.1 1697.02 1919.1 Q1688.49 1919.1 1683.49 1914.14 Q1678.53 1909.17 1678.53 1900.71 Q1678.53 1891.96 1683.24 1886.83 Q1687.98 1881.67 1696 1881.67 Q1703.2 1881.67 1707.37 1886.32 Q1711.57 1890.94 1711.57 1898.89 M1705.71 1897.17 Q1705.65 1892.37 1703.01 1889.5 Q1700.4 1886.64 1696.07 1886.64 Q1691.17 1886.64 1688.21 1889.41 Q1685.28 1892.18 1684.83 1897.21 L1705.71 1897.17 Z" fill="#000000" fill-rule="nonzero" fill-opacity="1" /><path clip-path="url(#clip480)" d="M1755.97 1868.72 Q1751.7 1876.04 1749.63 1883.2 Q1747.57 1890.36 1747.57 1897.72 Q1747.57 1905.07 1749.63 1912.29 Q1751.74 1919.49 1755.97 1926.78 L1750.88 1926.78 Q1746.1 1919.3 1743.71 1912.07 Q1741.36 1904.85 1741.36 1897.72 Q1741.36 1890.62 1743.71 1883.42 Q1746.07 1876.23 1750.88 1868.72 L1755.97 1868.72 Z" fill="#000000" fill-rule="nonzero" fill-opacity="1" /><path clip-path="url(#clip480)" d="M1796.96 1896.67 L1796.96 1918.18 L1791.11 1918.18 L1791.11 1896.86 Q1791.11 1891.8 1789.13 1889.28 Q1787.16 1886.77 1783.21 1886.77 Q1778.47 1886.77 1775.73 1889.79 Q1773 1892.81 1773 1898.03 L1773 1918.18 L1767.11 1918.18 L1767.11 1868.66 L1773 1868.66 L1773 1888.07 Q1775.1 1884.86 1777.93 1883.27 Q1780.79 1881.67 1784.52 1881.67 Q1790.66 1881.67 1793.81 1885.49 Q1796.96 1889.28 1796.96 1896.67 Z" fill="#000000" fill-rule="nonzero" fill-opacity="1" /><path clip-path="url(#clip480)" d="M1807.72 1868.72 L1812.81 1868.72 Q1817.59 1876.23 1819.94 1883.42 Q1822.33 1890.62 1822.33 1897.72 Q1822.33 1904.85 1819.94 1912.07 Q1817.59 1919.3 1812.81 1926.78 L1807.72 1926.78 Q1811.95 1919.49 1814.02 1912.29 Q1816.12 1905.07 1816.12 1897.72 Q1816.12 1890.36 1814.02 1883.2 Q1811.95 1876.04 1807.72 1868.72 Z" fill="#000000" fill-rule="nonzero" fill-opacity="1" /><polyline clip-path="url(#clip480)" style="stroke:#000000; stroke-linecap:round; stroke-linejoin:round; stroke-width:4; stroke-opacity:1; fill:none" points="287.888,1761.32 287.888,110.236 "/>
<polyline clip-path="url(#clip480)" style="stroke:#000000; stroke-linecap:round; stroke-linejoin:round; stroke-width:4; stroke-opacity:1; fill:none" points="287.888,1714.59 306.786,1714.59 "/>
<polyline clip-path="url(#clip480)" style="stroke:#000000; stroke-linecap:round; stroke-linejoin:round; stroke-width:4; stroke-opacity:1; fill:none" points="287.888,1263.1 306.786,1263.1 "/>
<polyline clip-path="url(#clip480)" style="stroke:#000000; stroke-linecap:round; stroke-linejoin:round; stroke-width:4; stroke-opacity:1; fill:none" points="287.888,811.619 306.786,811.619 "/>
<polyline clip-path="url(#clip480)" style="stroke:#000000; stroke-linecap:round; stroke-linejoin:round; stroke-width:4; stroke-opacity:1; fill:none" points="287.888,360.133 306.786,360.133 "/>
<path clip-path="url(#clip480)" d="M182.713 1700.39 Q179.102 1700.39 177.273 1703.95 Q175.467 1707.49 175.467 1714.62 Q175.467 1721.73 177.273 1725.29 Q179.102 1728.84 182.713 1728.84 Q186.347 1728.84 188.153 1725.29 Q189.981 1721.73 189.981 1714.62 Q189.981 1707.49 188.153 1703.95 Q186.347 1700.39 182.713 1700.39 M182.713 1696.68 Q188.523 1696.68 191.578 1701.29 Q194.657 1705.87 194.657 1714.62 Q194.657 1723.35 191.578 1727.96 Q188.523 1732.54 182.713 1732.54 Q176.903 1732.54 173.824 1727.96 Q170.768 1723.35 170.768 1714.62 Q170.768 1705.87 173.824 1701.29 Q176.903 1696.68 182.713 1696.68 Z" fill="#000000" fill-rule="nonzero" fill-opacity="1" /><path clip-path="url(#clip480)" d="M202.875 1725.99 L207.759 1725.99 L207.759 1731.87 L202.875 1731.87 L202.875 1725.99 Z" fill="#000000" fill-rule="nonzero" fill-opacity="1" /><path clip-path="url(#clip480)" d="M227.944 1700.39 Q224.333 1700.39 222.504 1703.95 Q220.699 1707.49 220.699 1714.62 Q220.699 1721.73 222.504 1725.29 Q224.333 1728.84 227.944 1728.84 Q231.578 1728.84 233.384 1725.29 Q235.212 1721.73 235.212 1714.62 Q235.212 1707.49 233.384 1703.95 Q231.578 1700.39 227.944 1700.39 M227.944 1696.68 Q233.754 1696.68 236.81 1701.29 Q239.888 1705.87 239.888 1714.62 Q239.888 1723.35 236.81 1727.96 Q233.754 1732.54 227.944 1732.54 Q222.134 1732.54 219.055 1727.96 Q216 1723.35 216 1714.62 Q216 1705.87 219.055 1701.29 Q222.134 1696.68 227.944 1696.68 Z" fill="#000000" fill-rule="nonzero" fill-opacity="1" /><path clip-path="url(#clip480)" d="M184.31 1248.9 Q180.699 1248.9 178.87 1252.47 Q177.065 1256.01 177.065 1263.14 Q177.065 1270.24 178.87 1273.81 Q180.699 1277.35 184.31 1277.35 Q187.944 1277.35 189.75 1273.81 Q191.578 1270.24 191.578 1263.14 Q191.578 1256.01 189.75 1252.47 Q187.944 1248.9 184.31 1248.9 M184.31 1245.2 Q190.12 1245.2 193.176 1249.81 Q196.254 1254.39 196.254 1263.14 Q196.254 1271.87 193.176 1276.47 Q190.12 1281.06 184.31 1281.06 Q178.5 1281.06 175.421 1276.47 Q172.366 1271.87 172.366 1263.14 Q172.366 1254.39 175.421 1249.81 Q178.5 1245.2 184.31 1245.2 Z" fill="#000000" fill-rule="nonzero" fill-opacity="1" /><path clip-path="url(#clip480)" d="M204.472 1274.5 L209.356 1274.5 L209.356 1280.38 L204.472 1280.38 L204.472 1274.5 Z" fill="#000000" fill-rule="nonzero" fill-opacity="1" /><path clip-path="url(#clip480)" d="M223.569 1276.45 L239.888 1276.45 L239.888 1280.38 L217.944 1280.38 L217.944 1276.45 Q220.606 1273.69 225.189 1269.06 Q229.796 1264.41 230.976 1263.07 Q233.222 1260.55 234.101 1258.81 Q235.004 1257.05 235.004 1255.36 Q235.004 1252.61 233.06 1250.87 Q231.138 1249.13 228.037 1249.13 Q225.838 1249.13 223.384 1249.9 Q220.953 1250.66 218.176 1252.21 L218.176 1247.49 Q221 1246.36 223.453 1245.78 Q225.907 1245.2 227.944 1245.2 Q233.314 1245.2 236.509 1247.88 Q239.703 1250.57 239.703 1255.06 Q239.703 1257.19 238.893 1259.11 Q238.106 1261.01 236 1263.6 Q235.421 1264.27 232.319 1267.49 Q229.217 1270.68 223.569 1276.45 Z" fill="#000000" fill-rule="nonzero" fill-opacity="1" /><path clip-path="url(#clip480)" d="M182.227 797.417 Q178.616 797.417 176.787 800.982 Q174.981 804.524 174.981 811.653 Q174.981 818.76 176.787 822.324 Q178.616 825.866 182.227 825.866 Q185.861 825.866 187.666 822.324 Q189.495 818.76 189.495 811.653 Q189.495 804.524 187.666 800.982 Q185.861 797.417 182.227 797.417 M182.227 793.714 Q188.037 793.714 191.092 798.32 Q194.171 802.903 194.171 811.653 Q194.171 820.38 191.092 824.987 Q188.037 829.57 182.227 829.57 Q176.417 829.57 173.338 824.987 Q170.282 820.38 170.282 811.653 Q170.282 802.903 173.338 798.32 Q176.417 793.714 182.227 793.714 Z" fill="#000000" fill-rule="nonzero" fill-opacity="1" /><path clip-path="url(#clip480)" d="M202.389 823.019 L207.273 823.019 L207.273 828.899 L202.389 828.899 L202.389 823.019 Z" fill="#000000" fill-rule="nonzero" fill-opacity="1" /><path clip-path="url(#clip480)" d="M230.305 798.413 L218.5 816.862 L230.305 816.862 L230.305 798.413 M229.078 794.339 L234.958 794.339 L234.958 816.862 L239.888 816.862 L239.888 820.75 L234.958 820.75 L234.958 828.899 L230.305 828.899 L230.305 820.75 L214.703 820.75 L214.703 816.237 L229.078 794.339 Z" fill="#000000" fill-rule="nonzero" fill-opacity="1" /><path clip-path="url(#clip480)" d="M182.551 345.932 Q178.94 345.932 177.111 349.497 Q175.305 353.038 175.305 360.168 Q175.305 367.274 177.111 370.839 Q178.94 374.381 182.551 374.381 Q186.185 374.381 187.991 370.839 Q189.819 367.274 189.819 360.168 Q189.819 353.038 187.991 349.497 Q186.185 345.932 182.551 345.932 M182.551 342.228 Q188.361 342.228 191.416 346.835 Q194.495 351.418 194.495 360.168 Q194.495 368.895 191.416 373.501 Q188.361 378.085 182.551 378.085 Q176.741 378.085 173.662 373.501 Q170.606 368.895 170.606 360.168 Q170.606 351.418 173.662 346.835 Q176.741 342.228 182.551 342.228 Z" fill="#000000" fill-rule="nonzero" fill-opacity="1" /><path clip-path="url(#clip480)" d="M202.713 371.534 L207.597 371.534 L207.597 377.413 L202.713 377.413 L202.713 371.534 Z" fill="#000000" fill-rule="nonzero" fill-opacity="1" /><path clip-path="url(#clip480)" d="M228.361 358.27 Q225.213 358.27 223.361 360.423 Q221.532 362.575 221.532 366.325 Q221.532 370.052 223.361 372.228 Q225.213 374.381 228.361 374.381 Q231.509 374.381 233.338 372.228 Q235.189 370.052 235.189 366.325 Q235.189 362.575 233.338 360.423 Q231.509 358.27 228.361 358.27 M237.643 343.617 L237.643 347.876 Q235.884 347.043 234.078 346.603 Q232.296 346.163 230.537 346.163 Q225.907 346.163 223.453 349.288 Q221.023 352.413 220.676 358.733 Q222.041 356.719 224.101 355.654 Q226.162 354.566 228.638 354.566 Q233.847 354.566 236.856 357.737 Q239.888 360.886 239.888 366.325 Q239.888 371.649 236.74 374.867 Q233.592 378.085 228.361 378.085 Q222.365 378.085 219.194 373.501 Q216.023 368.895 216.023 360.168 Q216.023 351.974 219.912 347.113 Q223.801 342.228 230.351 342.228 Q232.111 342.228 233.893 342.576 Q235.699 342.923 237.643 343.617 Z" fill="#000000" fill-rule="nonzero" fill-opacity="1" /><path clip-path="url(#clip480)" d="M73.747 1119.4 L79.2215 1119.4 Q77.8528 1121.88 77.1844 1124.39 Q76.4842 1126.88 76.4842 1129.42 Q76.4842 1135.12 80.1127 1138.27 Q83.7093 1141.42 90.2341 1141.42 Q96.759 1141.42 100.387 1138.27 Q103.984 1135.12 103.984 1129.42 Q103.984 1126.88 103.316 1124.39 Q102.615 1121.88 101.247 1119.4 L106.658 1119.4 Q107.803 1121.85 108.376 1124.49 Q108.949 1127.1 108.949 1130.06 Q108.949 1138.11 103.889 1142.85 Q98.8278 1147.6 90.2341 1147.6 Q81.5131 1147.6 76.516 1142.82 Q71.519 1138.02 71.519 1129.68 Q71.519 1126.97 72.0919 1124.39 Q72.633 1121.81 73.747 1119.4 Z" fill="#000000" fill-rule="nonzero" fill-opacity="1" /><path clip-path="url(#clip480)" d="M60.5063 1115.54 L60.5063 1075.35 L65.9171 1075.35 L65.9171 1092.21 L108.026 1092.21 L108.026 1098.68 L65.9171 1098.68 L65.9171 1115.54 L60.5063 1115.54 Z" fill="#000000" fill-rule="nonzero" fill-opacity="1" /><path clip-path="url(#clip480)" d="M86.5102 1039.76 L108.026 1039.76 L108.026 1045.62 L86.7012 1045.62 Q81.6404 1045.62 79.126 1047.59 Q76.6115 1049.56 76.6115 1053.51 Q76.6115 1058.25 79.6352 1060.99 Q82.6589 1063.73 87.8788 1063.73 L108.026 1063.73 L108.026 1069.62 L72.3783 1069.62 L72.3783 1063.73 L77.9165 1063.73 Q74.7018 1061.63 73.1104 1058.79 Q71.519 1055.93 71.519 1052.21 Q71.519 1046.06 75.3384 1042.91 Q79.126 1039.76 86.5102 1039.76 Z" fill="#000000" fill-rule="nonzero" fill-opacity="1" /><path clip-path="url(#clip480)" d="M60.5063 1034.41 L60.5063 994.214 L65.9171 994.214 L65.9171 1011.08 L108.026 1011.08 L108.026 1017.54 L65.9171 1017.54 L65.9171 1034.41 L60.5063 1034.41 Z" fill="#000000" fill-rule="nonzero" fill-opacity="1" /><path clip-path="url(#clip480)" d="M58.5011 968.083 L58.5011 954.588 L63.0526 954.588 L63.0526 962.226 L112.069 962.226 L112.069 954.588 L116.62 954.588 L116.62 968.083 L58.5011 968.083 Z" fill="#000000" fill-rule="nonzero" fill-opacity="1" /><path clip-path="url(#clip480)" d="M86.5102 912.478 L108.026 912.478 L108.026 918.335 L86.7012 918.335 Q81.6404 918.335 79.126 920.308 Q76.6115 922.282 76.6115 926.228 Q76.6115 930.971 79.6352 933.708 Q82.6589 936.445 87.8788 936.445 L108.026 936.445 L108.026 942.334 L72.3783 942.334 L72.3783 936.445 L77.9165 936.445 Q74.7018 934.345 73.1104 931.512 Q71.519 928.647 71.519 924.923 Q71.519 918.781 75.3384 915.63 Q79.126 912.478 86.5102 912.478 Z" fill="#000000" fill-rule="nonzero" fill-opacity="1" /><path clip-path="url(#clip480)" d="M89.7885 877.34 Q83.4228 877.34 79.9217 879.982 Q76.4206 882.591 76.4206 887.334 Q76.4206 892.045 79.9217 894.686 Q83.4228 897.296 89.7885 897.296 Q96.1224 897.296 99.6236 894.686 Q103.125 892.045 103.125 887.334 Q103.125 882.591 99.6236 879.982 Q96.1224 877.34 89.7885 877.34 M103.602 871.483 Q112.705 871.483 117.129 875.526 Q121.585 879.568 121.585 887.907 Q121.585 890.994 121.108 893.731 Q120.662 896.469 119.707 899.047 L114.01 899.047 Q115.411 896.469 116.079 893.954 Q116.747 891.44 116.747 888.83 Q116.747 883.069 113.724 880.204 Q110.732 877.34 104.652 877.34 L101.756 877.34 Q104.907 879.154 106.467 881.987 Q108.026 884.819 108.026 888.766 Q108.026 895.323 103.029 899.333 Q98.0321 903.344 89.7885 903.344 Q81.5131 903.344 76.516 899.333 Q71.519 895.323 71.519 888.766 Q71.519 884.819 73.0786 881.987 Q74.6382 879.154 77.7892 877.34 L72.3783 877.34 L72.3783 871.483 L103.602 871.483 Z" fill="#000000" fill-rule="nonzero" fill-opacity="1" /><path clip-path="url(#clip480)" d="M60.5063 849.012 L60.5063 843.602 L114.074 860.152 L114.074 865.563 L60.5063 849.012 Z" fill="#000000" fill-rule="nonzero" fill-opacity="1" /><path clip-path="url(#clip480)" d="M79.2215 809.704 Q75.2747 807.508 73.3968 804.452 Q71.519 801.397 71.519 797.259 Q71.519 791.689 75.4339 788.665 Q79.3169 785.642 86.5102 785.642 L108.026 785.642 L108.026 791.53 L86.7012 791.53 Q81.5768 791.53 79.0941 793.344 Q76.6115 795.159 76.6115 798.882 Q76.6115 803.434 79.6352 806.076 Q82.6589 808.717 87.8788 808.717 L108.026 808.717 L108.026 814.606 L86.7012 814.606 Q81.5449 814.606 79.0941 816.42 Q76.6115 818.234 76.6115 822.022 Q76.6115 826.51 79.6671 829.151 Q82.6908 831.793 87.8788 831.793 L108.026 831.793 L108.026 837.681 L72.3783 837.681 L72.3783 831.793 L77.9165 831.793 Q74.6382 829.788 73.0786 826.987 Q71.519 824.186 71.519 820.335 Q71.519 816.452 73.4923 813.746 Q75.4657 811.009 79.2215 809.704 Z" fill="#000000" fill-rule="nonzero" fill-opacity="1" /><path clip-path="url(#clip480)" d="M60.5063 773.706 L60.5063 767.277 L102.615 767.277 L102.615 744.137 L108.026 744.137 L108.026 773.706 L60.5063 773.706 Z" fill="#000000" fill-rule="nonzero" fill-opacity="1" /><path clip-path="url(#clip480)" d="M58.5011 723.958 L116.62 723.958 L116.62 737.453 L112.069 737.453 L112.069 729.846 L63.0526 729.846 L63.0526 737.453 L58.5011 737.453 L58.5011 723.958 Z" fill="#000000" fill-rule="nonzero" fill-opacity="1" /><circle clip-path="url(#clip482)" cx="400.311" cy="1646.87" r="21.6" fill="#ff0000" fill-rule="evenodd" fill-opacity="1" stroke="#000000" stroke-opacity="1" stroke-width="6"/>
<circle clip-path="url(#clip482)" cx="578.973" cy="1669.44" r="21.6" fill="#ff0000" fill-rule="evenodd" fill-opacity="1" stroke="#000000" stroke-opacity="1" stroke-width="6"/>
<circle clip-path="url(#clip482)" cx="1793.31" cy="1353.4" r="21.6" fill="#ff0000" fill-rule="evenodd" fill-opacity="1" stroke="#000000" stroke-opacity="1" stroke-width="6"/>
<circle clip-path="url(#clip482)" cx="1901.14" cy="156.965" r="21.6" fill="#ff0000" fill-rule="evenodd" fill-opacity="1" stroke="#000000" stroke-opacity="1" stroke-width="6"/>
<circle clip-path="url(#clip482)" cx="2077.34" cy="202.113" r="21.6" fill="#ff0000" fill-rule="evenodd" fill-opacity="1" stroke="#000000" stroke-opacity="1" stroke-width="6"/>
<circle clip-path="url(#clip482)" cx="2587.6" cy="879.341" r="21.6" fill="#ff0000" fill-rule="evenodd" fill-opacity="1" stroke="#000000" stroke-opacity="1" stroke-width="6"/>
<polyline clip-path="url(#clip482)" style="stroke:#ff8c00; stroke-linecap:round; stroke-linejoin:round; stroke-width:8; stroke-opacity:1; fill:none" stroke-dasharray="32, 20" points="367.187,1714.59 388.33,1599.66 409.474,1662.58 430.617,1674.95 451.76,1677.54 472.904,1678.23 494.047,1678.55 515.191,1678.8 536.334,1679.05 557.477,1679.29 578.621,1679.53 599.764,1679.78 620.908,1680.02 642.051,1680.27 663.194,1680.52 684.338,1680.77 705.481,1681.02 726.625,1681.28 747.768,1681.53 768.912,1681.78 790.055,1682.04 811.198,1682.29 832.342,1682.55 853.485,1682.8 874.629,1683.06 895.772,1683.31 916.915,1683.56 938.059,1683.82 959.202,1684.07 980.346,1684.32 1001.49,1684.56 1022.63,1684.81 1043.78,1685.05 1064.92,1685.29 1086.06,1685.52 1107.21,1685.76 1128.35,1685.98 1149.49,1686.21 1170.64,1686.43 1191.78,1686.64 1212.92,1686.85 1234.07,1687.05 1255.21,1687.25 1276.35,1687.44 1297.5,1687.62 1318.64,1687.8 1339.78,1687.96 1360.93,1688.12 1382.07,1688.26 1403.21,1688.4 1424.36,1688.51 1445.5,1688.6 1466.64,1688.67 1487.79,1688.68 1508.93,1688.64 1530.07,1688.5 1551.22,1688.22 1572.36,1687.71 1593.5,1686.83 1614.65,1685.37 1635.79,1682.92 1656.93,1678.77 1678.08,1671.64 1699.22,1659.03 1720.37,1636.3 1741.51,1595.2 1762.65,1523.35 1783.8,1407.69 1804.94,1243.86 1826.08,1044.99 1847.23,838.607 1868.37,652.624 1889.51,503.567 1910.66,394.794 1931.8,321.237 1952.94,274.782 1974.09,247.592 1995.23,233.418 2016.37,227.755 2037.52,227.536 2058.66,230.744 2079.8,236.082 2100.95,242.729 2122.09,250.164 2143.23,258.063 2164.38,266.223 2185.52,274.518 2206.66,282.866 2227.81,291.223 2248.95,299.556 2270.09,307.848 2291.24,316.09 2312.38,324.272 2333.52,332.396 2354.67,340.456 2375.81,348.456 2396.95,356.392 2418.1,364.269 2439.24,372.083 2460.38,379.84 2481.53,387.537 2502.67,395.178 2523.81,402.762 2544.96,410.291 2566.1,417.766 2587.24,425.186 2608.39,432.555 2629.53,439.871 2650.68,447.137 2671.82,454.351 2692.96,461.518 2714.11,468.634 2735.25,475.703 2756.39,482.724 2777.54,489.698 2798.68,496.627 2819.82,503.509 2840.97,510.348 2862.11,517.141 2883.25,523.893 2904.4,530.6 2925.54,537.267 2946.68,543.89 2967.83,550.473 2988.97,557.015 3010.11,563.518 3010.47,563.626 "/>
</svg>
