<?xml version="1.0" encoding="utf-8"?>
<svg xmlns="http://www.w3.org/2000/svg" xmlns:xlink="http://www.w3.org/1999/xlink" width="600" height="400" viewBox="0 0 2400 1600">
<defs>
  <clipPath id="clip430">
    <rect x="0" y="0" width="2400" height="1600"/>
  </clipPath>
</defs>
<path clip-path="url(#clip430)" d="M0 1600 L2400 1600 L2400 0 L0 0  Z" fill="#ffffff" fill-rule="evenodd" fill-opacity="1"/>
<defs>
  <clipPath id="clip431">
    <rect x="156" y="47" width="2197" height="1377"/>
  </clipPath>
</defs>
<path clip-path="url(#clip430)" d="M156.598 1423.18 L2352.76 1423.18 L2352.76 47.2441 L156.598 47.2441  Z" fill="#ffffff" fill-rule="evenodd" fill-opacity="1"/>
<polyline clip-path="url(#clip431)" style="stroke:#000000; stroke-linecap:round; stroke-linejoin:round; stroke-width:2; stroke-opacity:0.1; fill:none" points="156.598,1423.18 156.598,47.2441 "/>
<polyline clip-path="url(#clip431)" style="stroke:#000000; stroke-linecap:round; stroke-linejoin:round; stroke-width:2; stroke-opacity:0.1; fill:none" points="647.268,1423.18 647.268,47.2441 "/>
<polyline clip-path="url(#clip431)" style="stroke:#000000; stroke-linecap:round; stroke-linejoin:round; stroke-width:2; stroke-opacity:0.1; fill:none" points="1137.94,1423.18 1137.94,47.2441 "/>
<polyline clip-path="url(#clip431)" style="stroke:#000000; stroke-linecap:round; stroke-linejoin:round; stroke-width:2; stroke-opacity:0.1; fill:none" points="1628.61,1423.18 1628.61,47.2441 "/>
<polyline clip-path="url(#clip431)" style="stroke:#000000; stroke-linecap:round; stroke-linejoin:round; stroke-width:2; stroke-opacity:0.1; fill:none" points="2119.28,1423.18 2119.28,47.2441 "/>
<polyline clip-path="url(#clip431)" style="stroke:#000000; stroke-linecap:round; stroke-linejoin:round; stroke-width:2; stroke-opacity:0.1; fill:none" points="156.598,1384.24 2352.76,1384.24 "/>
<polyline clip-path="url(#clip431)" style="stroke:#000000; stroke-linecap:round; stroke-linejoin:round; stroke-width:2; stroke-opacity:0.1; fill:none" points="156.598,1083.22 2352.76,1083.22 "/>
<polyline clip-path="url(#clip431)" style="stroke:#000000; stroke-linecap:round; stroke-linejoin:round; stroke-width:2; stroke-opacity:0.1; fill:none" points="156.598,782.193 2352.76,782.193 "/>
<polyline clip-path="url(#clip431)" style="stroke:#000000; stroke-linecap:round; stroke-linejoin:round; stroke-width:2; stroke-opacity:0.1; fill:none" points="156.598,481.17 2352.76,481.17 "/>
<polyline clip-path="url(#clip431)" style="stroke:#000000; stroke-linecap:round; stroke-linejoin:round; stroke-width:2; stroke-opacity:0.1; fill:none" points="156.598,180.148 2352.76,180.148 "/>
<polyline clip-path="url(#clip430)" style="stroke:#000000; stroke-linecap:round; stroke-linejoin:round; stroke-width:4; stroke-opacity:1; fill:none" points="156.598,1423.18 2352.76,1423.18 "/>
<polyline clip-path="url(#clip430)" style="stroke:#000000; stroke-linecap:round; stroke-linejoin:round; stroke-width:4; stroke-opacity:1; fill:none" points="156.598,1423.18 156.598,1404.28 "/>
<polyline clip-path="url(#clip430)" style="stroke:#000000; stroke-linecap:round; stroke-linejoin:round; stroke-width:4; stroke-opacity:1; fill:none" points="647.268,1423.18 647.268,1404.28 "/>
<polyline clip-path="url(#clip430)" style="stroke:#000000; stroke-linecap:round; stroke-linejoin:round; stroke-width:4; stroke-opacity:1; fill:none" points="1137.94,1423.18 1137.94,1404.28 "/>
<polyline clip-path="url(#clip430)" style="stroke:#000000; stroke-linecap:round; stroke-linejoin:round; stroke-width:4; stroke-opacity:1; fill:none" points="1628.61,1423.18 1628.61,1404.28 "/>
<polyline clip-path="url(#clip430)" style="stroke:#000000; stroke-linecap:round; stroke-linejoin:round; stroke-width:4; stroke-opacity:1; fill:none" points="2119.28,1423.18 2119.28,1404.28 "/>
<path clip-path="url(#clip430)" d="M156.598 1454.1 Q152.987 1454.1 151.158 1457.66 Q149.353 1461.2 149.353 1468.33 Q149.353 1475.44 151.158 1479.01 Q152.987 1482.55 156.598 1482.55 Q160.232 1482.55 162.038 1479.01 Q163.867 1475.44 163.867 1468.33 Q163.867 1461.2 162.038 1457.66 Q160.232 1454.1 156.598 1454.1 M156.598 1450.39 Q162.408 1450.39 165.464 1455 Q168.543 1459.58 168.543 1468.33 Q168.543 1477.06 165.464 1481.67 Q162.408 1486.25 156.598 1486.25 Q150.788 1486.25 147.709 1481.67 Q144.654 1477.06 144.654 1468.33 Q144.654 1459.58 147.709 1455 Q150.788 1450.39 156.598 1450.39 Z" fill="#000000" fill-rule="nonzero" fill-opacity="1" /><path clip-path="url(#clip430)" d="M626.042 1481.64 L642.361 1481.64 L642.361 1485.58 L620.417 1485.58 L620.417 1481.64 Q623.079 1478.89 627.662 1474.26 Q632.268 1469.61 633.449 1468.27 Q635.694 1465.74 636.574 1464.01 Q637.477 1462.25 637.477 1460.56 Q637.477 1457.8 635.532 1456.07 Q633.611 1454.33 630.509 1454.33 Q628.31 1454.33 625.856 1455.09 Q623.426 1455.86 620.648 1457.41 L620.648 1452.69 Q623.472 1451.55 625.926 1450.97 Q628.38 1450.39 630.417 1450.39 Q635.787 1450.39 638.981 1453.08 Q642.176 1455.77 642.176 1460.26 Q642.176 1462.39 641.366 1464.31 Q640.579 1466.2 638.472 1468.8 Q637.893 1469.47 634.792 1472.69 Q631.69 1475.88 626.042 1481.64 Z" fill="#000000" fill-rule="nonzero" fill-opacity="1" /><path clip-path="url(#clip430)" d="M662.176 1454.1 Q658.565 1454.1 656.736 1457.66 Q654.93 1461.2 654.93 1468.33 Q654.93 1475.44 656.736 1479.01 Q658.565 1482.55 662.176 1482.55 Q665.81 1482.55 667.615 1479.01 Q669.444 1475.44 669.444 1468.33 Q669.444 1461.2 667.615 1457.66 Q665.81 1454.1 662.176 1454.1 M662.176 1450.39 Q667.986 1450.39 671.041 1455 Q674.12 1459.58 674.12 1468.33 Q674.12 1477.06 671.041 1481.67 Q667.986 1486.25 662.176 1486.25 Q656.366 1486.25 653.287 1481.67 Q650.231 1477.06 650.231 1468.33 Q650.231 1459.58 653.287 1455 Q656.366 1450.39 662.176 1450.39 Z" fill="#000000" fill-rule="nonzero" fill-opacity="1" /><path clip-path="url(#clip430)" d="M1126.11 1455.09 L1114.3 1473.54 L1126.11 1473.54 L1126.11 1455.09 M1124.88 1451.02 L1130.76 1451.02 L1130.76 1473.54 L1135.69 1473.54 L1135.69 1477.43 L1130.76 1477.43 L1130.76 1485.58 L1126.11 1485.58 L1126.11 1477.43 L1110.51 1477.43 L1110.51 1472.92 L1124.88 1451.02 Z" fill="#000000" fill-rule="nonzero" fill-opacity="1" /><path clip-path="url(#clip430)" d="M1153.42 1454.1 Q1149.81 1454.1 1147.98 1457.66 Q1146.18 1461.2 1146.18 1468.33 Q1146.18 1475.44 1147.98 1479.01 Q1149.81 1482.55 1153.42 1482.55 Q1157.06 1482.55 1158.86 1479.01 Q1160.69 1475.44 1160.69 1468.33 Q1160.69 1461.2 1158.86 1457.66 Q1157.06 1454.1 1153.42 1454.1 M1153.42 1450.39 Q1159.23 1450.39 1162.29 1455 Q1165.37 1459.58 1165.37 1468.33 Q1165.37 1477.06 1162.29 1481.67 Q1159.23 1486.25 1153.42 1486.25 Q1147.61 1486.25 1144.54 1481.67 Q1141.48 1477.06 1141.48 1468.33 Q1141.48 1459.58 1144.54 1455 Q1147.61 1450.39 1153.42 1450.39 Z" fill="#000000" fill-rule="nonzero" fill-opacity="1" /><path clip-path="url(#clip430)" d="M1614.01 1466.44 Q1610.87 1466.44 1609.01 1468.59 Q1607.19 1470.74 1607.19 1474.49 Q1607.19 1478.22 1609.01 1480.39 Q1610.87 1482.55 1614.01 1482.55 Q1617.16 1482.55 1618.99 1480.39 Q1620.84 1478.22 1620.84 1474.49 Q1620.84 1470.74 1618.99 1468.59 Q1617.16 1466.44 1614.01 1466.44 M1623.3 1451.78 L1623.3 1456.04 Q1621.54 1455.21 1619.73 1454.77 Q1617.95 1454.33 1616.19 1454.33 Q1611.56 1454.33 1609.11 1457.45 Q1606.68 1460.58 1606.33 1466.9 Q1607.69 1464.89 1609.75 1463.82 Q1611.81 1462.73 1614.29 1462.73 Q1619.5 1462.73 1622.51 1465.9 Q1625.54 1469.05 1625.54 1474.49 Q1625.54 1479.82 1622.39 1483.03 Q1619.25 1486.25 1614.01 1486.25 Q1608.02 1486.25 1604.85 1481.67 Q1601.68 1477.06 1601.68 1468.33 Q1601.68 1460.14 1605.56 1455.28 Q1609.45 1450.39 1616 1450.39 Q1617.76 1450.39 1619.55 1450.74 Q1621.35 1451.09 1623.3 1451.78 Z" fill="#000000" fill-rule="nonzero" fill-opacity="1" /><path clip-path="url(#clip430)" d="M1643.6 1454.1 Q1639.99 1454.1 1638.16 1457.66 Q1636.35 1461.2 1636.35 1468.33 Q1636.35 1475.44 1638.16 1479.01 Q1639.99 1482.55 1643.6 1482.55 Q1647.23 1482.55 1649.04 1479.01 Q1650.87 1475.44 1650.87 1468.33 Q1650.87 1461.2 1649.04 1457.66 Q1647.23 1454.1 1643.6 1454.1 M1643.6 1450.39 Q1649.41 1450.39 1652.46 1455 Q1655.54 1459.58 1655.54 1468.33 Q1655.54 1477.06 1652.46 1481.67 Q1649.41 1486.25 1643.6 1486.25 Q1637.79 1486.25 1634.71 1481.67 Q1631.65 1477.06 1631.65 1468.33 Q1631.65 1459.58 1634.71 1455 Q1637.79 1450.39 1643.6 1450.39 Z" fill="#000000" fill-rule="nonzero" fill-opacity="1" /><path clip-path="url(#clip430)" d="M2104.15 1469.17 Q2100.82 1469.17 2098.9 1470.95 Q2097 1472.73 2097 1475.86 Q2097 1478.98 2098.9 1480.77 Q2100.82 1482.55 2104.15 1482.55 Q2107.48 1482.55 2109.41 1480.77 Q2111.33 1478.96 2111.33 1475.86 Q2111.33 1472.73 2109.41 1470.95 Q2107.51 1469.17 2104.15 1469.17 M2099.48 1467.18 Q2096.47 1466.44 2094.78 1464.38 Q2093.11 1462.32 2093.11 1459.35 Q2093.11 1455.21 2096.05 1452.8 Q2099.01 1450.39 2104.15 1450.39 Q2109.31 1450.39 2112.25 1452.8 Q2115.19 1455.21 2115.19 1459.35 Q2115.19 1462.32 2113.5 1464.38 Q2111.84 1466.44 2108.85 1467.18 Q2112.23 1467.96 2114.11 1470.26 Q2116 1472.55 2116 1475.86 Q2116 1480.88 2112.92 1483.57 Q2109.87 1486.25 2104.15 1486.25 Q2098.43 1486.25 2095.36 1483.57 Q2092.3 1480.88 2092.3 1475.86 Q2092.3 1472.55 2094.2 1470.26 Q2096.1 1467.96 2099.48 1467.18 M2097.76 1459.79 Q2097.76 1462.48 2099.43 1463.98 Q2101.12 1465.49 2104.15 1465.49 Q2107.16 1465.49 2108.85 1463.98 Q2110.56 1462.48 2110.56 1459.79 Q2110.56 1457.11 2108.85 1455.6 Q2107.16 1454.1 2104.15 1454.1 Q2101.12 1454.1 2099.43 1455.6 Q2097.76 1457.11 2097.76 1459.79 Z" fill="#000000" fill-rule="nonzero" fill-opacity="1" /><path clip-path="url(#clip430)" d="M2134.31 1454.1 Q2130.7 1454.1 2128.87 1457.66 Q2127.07 1461.2 2127.07 1468.33 Q2127.07 1475.44 2128.87 1479.01 Q2130.7 1482.55 2134.31 1482.55 Q2137.95 1482.55 2139.75 1479.01 Q2141.58 1475.44 2141.58 1468.33 Q2141.58 1461.2 2139.75 1457.66 Q2137.95 1454.1 2134.31 1454.1 M2134.31 1450.39 Q2140.12 1450.39 2143.18 1455 Q2146.26 1459.58 2146.26 1468.33 Q2146.26 1477.06 2143.18 1481.67 Q2140.12 1486.25 2134.31 1486.25 Q2128.5 1486.25 2125.42 1481.67 Q2122.37 1477.06 2122.37 1468.33 Q2122.37 1459.58 2125.42 1455 Q2128.5 1450.39 2134.31 1450.39 Z" fill="#000000" fill-rule="nonzero" fill-opacity="1" /><path clip-path="url(#clip430)" d="M1253.74 1522.27 L1253.74 1532.4 L1265.8 1532.4 L1265.8 1536.95 L1253.74 1536.95 L1253.74 1556.3 Q1253.74 1560.66 1254.92 1561.9 Q1256.13 1563.14 1259.79 1563.14 L1265.8 1563.14 L1265.8 1568.04 L1259.79 1568.04 Q1253.01 1568.04 1250.43 1565.53 Q1247.85 1562.98 1247.85 1556.3 L1247.85 1536.95 L1243.55 1536.95 L1243.55 1532.4 L1247.85 1532.4 L1247.85 1522.27 L1253.74 1522.27 Z" fill="#000000" fill-rule="nonzero" fill-opacity="1" /><polyline clip-path="url(#clip430)" style="stroke:#000000; stroke-linecap:round; stroke-linejoin:round; stroke-width:4; stroke-opacity:1; fill:none" points="156.598,1423.18 156.598,47.2441 "/>
<polyline clip-path="url(#clip430)" style="stroke:#000000; stroke-linecap:round; stroke-linejoin:round; stroke-width:4; stroke-opacity:1; fill:none" points="156.598,1384.24 175.496,1384.24 "/>
<polyline clip-path="url(#clip430)" style="stroke:#000000; stroke-linecap:round; stroke-linejoin:round; stroke-width:4; stroke-opacity:1; fill:none" points="156.598,1083.22 175.496,1083.22 "/>
<polyline clip-path="url(#clip430)" style="stroke:#000000; stroke-linecap:round; stroke-linejoin:round; stroke-width:4; stroke-opacity:1; fill:none" points="156.598,782.193 175.496,782.193 "/>
<polyline clip-path="url(#clip430)" style="stroke:#000000; stroke-linecap:round; stroke-linejoin:round; stroke-width:4; stroke-opacity:1; fill:none" points="156.598,481.17 175.496,481.17 "/>
<polyline clip-path="url(#clip430)" style="stroke:#000000; stroke-linecap:round; stroke-linejoin:round; stroke-width:4; stroke-opacity:1; fill:none" points="156.598,180.148 175.496,180.148 "/>
<path clip-path="url(#clip430)" d="M63.4226 1370.04 Q59.8115 1370.04 57.9828 1373.6 Q56.1773 1377.14 56.1773 1384.27 Q56.1773 1391.38 57.9828 1394.94 Q59.8115 1398.49 63.4226 1398.49 Q67.0569 1398.49 68.8624 1394.94 Q70.6911 1391.38 70.6911 1384.27 Q70.6911 1377.14 68.8624 1373.6 Q67.0569 1370.04 63.4226 1370.04 M63.4226 1366.33 Q69.2328 1366.33 72.2883 1370.94 Q75.367 1375.52 75.367 1384.27 Q75.367 1393 72.2883 1397.61 Q69.2328 1402.19 63.4226 1402.19 Q57.6125 1402.19 54.5338 1397.61 Q51.4782 1393 51.4782 1384.27 Q51.4782 1375.52 54.5338 1370.94 Q57.6125 1366.33 63.4226 1366.33 Z" fill="#000000" fill-rule="nonzero" fill-opacity="1" /><path clip-path="url(#clip430)" d="M83.5845 1395.64 L88.4688 1395.64 L88.4688 1401.52 L83.5845 1401.52 L83.5845 1395.64 Z" fill="#000000" fill-rule="nonzero" fill-opacity="1" /><path clip-path="url(#clip430)" d="M108.654 1370.04 Q105.043 1370.04 103.214 1373.6 Q101.409 1377.14 101.409 1384.27 Q101.409 1391.38 103.214 1394.94 Q105.043 1398.49 108.654 1398.49 Q112.288 1398.49 114.094 1394.94 Q115.922 1391.38 115.922 1384.27 Q115.922 1377.14 114.094 1373.6 Q112.288 1370.04 108.654 1370.04 M108.654 1366.33 Q114.464 1366.33 117.52 1370.94 Q120.598 1375.52 120.598 1384.27 Q120.598 1393 117.52 1397.61 Q114.464 1402.19 108.654 1402.19 Q102.844 1402.19 99.765 1397.61 Q96.7095 1393 96.7095 1384.27 Q96.7095 1375.52 99.765 1370.94 Q102.844 1366.33 108.654 1366.33 Z" fill="#000000" fill-rule="nonzero" fill-opacity="1" /><path clip-path="url(#clip430)" d="M65.0198 1069.01 Q61.4087 1069.01 59.58 1072.58 Q57.7745 1076.12 57.7745 1083.25 Q57.7745 1090.36 59.58 1093.92 Q61.4087 1097.46 65.0198 1097.46 Q68.6541 1097.46 70.4596 1093.92 Q72.2883 1090.36 72.2883 1083.25 Q72.2883 1076.12 70.4596 1072.58 Q68.6541 1069.01 65.0198 1069.01 M65.0198 1065.31 Q70.83 1065.31 73.8855 1069.92 Q76.9642 1074.5 76.9642 1083.25 Q76.9642 1091.98 73.8855 1096.58 Q70.83 1101.17 65.0198 1101.17 Q59.2097 1101.17 56.131 1096.58 Q53.0754 1091.98 53.0754 1083.25 Q53.0754 1074.5 56.131 1069.92 Q59.2097 1065.31 65.0198 1065.31 Z" fill="#000000" fill-rule="nonzero" fill-opacity="1" /><path clip-path="url(#clip430)" d="M85.1818 1094.62 L90.066 1094.62 L90.066 1100.5 L85.1818 1100.5 L85.1818 1094.62 Z" fill="#000000" fill-rule="nonzero" fill-opacity="1" /><path clip-path="url(#clip430)" d="M104.279 1096.56 L120.598 1096.56 L120.598 1100.5 L98.6539 1100.5 L98.6539 1096.56 Q101.316 1093.81 105.899 1089.18 Q110.506 1084.52 111.686 1083.18 Q113.932 1080.66 114.811 1078.92 Q115.714 1077.16 115.714 1075.47 Q115.714 1072.72 113.77 1070.98 Q111.848 1069.25 108.746 1069.25 Q106.547 1069.25 104.094 1070.01 Q101.663 1070.77 98.8854 1072.32 L98.8854 1067.6 Q101.709 1066.47 104.163 1065.89 Q106.617 1065.31 108.654 1065.31 Q114.024 1065.31 117.219 1068 Q120.413 1070.68 120.413 1075.17 Q120.413 1077.3 119.603 1079.22 Q118.816 1081.12 116.709 1083.71 Q116.131 1084.38 113.029 1087.6 Q109.927 1090.8 104.279 1096.56 Z" fill="#000000" fill-rule="nonzero" fill-opacity="1" /><path clip-path="url(#clip430)" d="M62.9365 767.992 Q59.3254 767.992 57.4967 771.557 Q55.6912 775.098 55.6912 782.228 Q55.6912 789.334 57.4967 792.899 Q59.3254 796.441 62.9365 796.441 Q66.5707 796.441 68.3763 792.899 Q70.205 789.334 70.205 782.228 Q70.205 775.098 68.3763 771.557 Q66.5707 767.992 62.9365 767.992 M62.9365 764.288 Q68.7467 764.288 71.8022 768.894 Q74.8809 773.478 74.8809 782.228 Q74.8809 790.955 71.8022 795.561 Q68.7467 800.144 62.9365 800.144 Q57.1264 800.144 54.0477 795.561 Q50.9921 790.955 50.9921 782.228 Q50.9921 773.478 54.0477 768.894 Q57.1264 764.288 62.9365 764.288 Z" fill="#000000" fill-rule="nonzero" fill-opacity="1" /><path clip-path="url(#clip430)" d="M83.0984 793.593 L87.9827 793.593 L87.9827 799.473 L83.0984 799.473 L83.0984 793.593 Z" fill="#000000" fill-rule="nonzero" fill-opacity="1" /><path clip-path="url(#clip430)" d="M111.015 768.987 L99.2095 787.436 L111.015 787.436 L111.015 768.987 M109.788 764.913 L115.668 764.913 L115.668 787.436 L120.598 787.436 L120.598 791.325 L115.668 791.325 L115.668 799.473 L111.015 799.473 L111.015 791.325 L95.4132 791.325 L95.4132 786.811 L109.788 764.913 Z" fill="#000000" fill-rule="nonzero" fill-opacity="1" /><path clip-path="url(#clip430)" d="M63.2606 466.969 Q59.6495 466.969 57.8208 470.534 Q56.0152 474.076 56.0152 481.205 Q56.0152 488.312 57.8208 491.876 Q59.6495 495.418 63.2606 495.418 Q66.8948 495.418 68.7004 491.876 Q70.5291 488.312 70.5291 481.205 Q70.5291 474.076 68.7004 470.534 Q66.8948 466.969 63.2606 466.969 M63.2606 463.265 Q69.0707 463.265 72.1263 467.872 Q75.205 472.455 75.205 481.205 Q75.205 489.932 72.1263 494.538 Q69.0707 499.122 63.2606 499.122 Q57.4504 499.122 54.3717 494.538 Q51.3162 489.932 51.3162 481.205 Q51.3162 472.455 54.3717 467.872 Q57.4504 463.265 63.2606 463.265 Z" fill="#000000" fill-rule="nonzero" fill-opacity="1" /><path clip-path="url(#clip430)" d="M83.4225 492.571 L88.3067 492.571 L88.3067 498.45 L83.4225 498.45 L83.4225 492.571 Z" fill="#000000" fill-rule="nonzero" fill-opacity="1" /><path clip-path="url(#clip430)" d="M109.071 479.307 Q105.922 479.307 104.071 481.46 Q102.242 483.613 102.242 487.363 Q102.242 491.089 104.071 493.265 Q105.922 495.418 109.071 495.418 Q112.219 495.418 114.047 493.265 Q115.899 491.089 115.899 487.363 Q115.899 483.613 114.047 481.46 Q112.219 479.307 109.071 479.307 M118.353 464.654 L118.353 468.914 Q116.594 468.08 114.788 467.64 Q113.006 467.201 111.246 467.201 Q106.617 467.201 104.163 470.326 Q101.733 473.451 101.385 479.77 Q102.751 477.756 104.811 476.691 Q106.871 475.603 109.348 475.603 Q114.557 475.603 117.566 478.775 Q120.598 481.923 120.598 487.363 Q120.598 492.687 117.45 495.904 Q114.302 499.122 109.071 499.122 Q103.075 499.122 99.9039 494.538 Q96.7326 489.932 96.7326 481.205 Q96.7326 473.011 100.621 468.15 Q104.51 463.265 111.061 463.265 Q112.82 463.265 114.603 463.613 Q116.408 463.96 118.353 464.654 Z" fill="#000000" fill-rule="nonzero" fill-opacity="1" /><path clip-path="url(#clip430)" d="M63.5152 165.946 Q59.9041 165.946 58.0754 169.511 Q56.2699 173.053 56.2699 180.183 Q56.2699 187.289 58.0754 190.854 Q59.9041 194.395 63.5152 194.395 Q67.1494 194.395 68.955 190.854 Q70.7837 187.289 70.7837 180.183 Q70.7837 173.053 68.955 169.511 Q67.1494 165.946 63.5152 165.946 M63.5152 162.243 Q69.3254 162.243 72.3809 166.849 Q75.4596 171.433 75.4596 180.183 Q75.4596 188.909 72.3809 193.516 Q69.3254 198.099 63.5152 198.099 Q57.7051 198.099 54.6264 193.516 Q51.5708 188.909 51.5708 180.183 Q51.5708 171.433 54.6264 166.849 Q57.7051 162.243 63.5152 162.243 Z" fill="#000000" fill-rule="nonzero" fill-opacity="1" /><path clip-path="url(#clip430)" d="M83.6771 191.548 L88.5614 191.548 L88.5614 197.428 L83.6771 197.428 L83.6771 191.548 Z" fill="#000000" fill-rule="nonzero" fill-opacity="1" /><path clip-path="url(#clip430)" d="M108.746 181.016 Q105.413 181.016 103.492 182.798 Q101.594 184.581 101.594 187.706 Q101.594 190.831 103.492 192.613 Q105.413 194.395 108.746 194.395 Q112.08 194.395 114.001 192.613 Q115.922 190.807 115.922 187.706 Q115.922 184.581 114.001 182.798 Q112.103 181.016 108.746 181.016 M104.071 179.025 Q101.061 178.284 99.3715 176.224 Q97.7048 174.164 97.7048 171.201 Q97.7048 167.058 100.645 164.65 Q103.608 162.243 108.746 162.243 Q113.908 162.243 116.848 164.65 Q119.788 167.058 119.788 171.201 Q119.788 174.164 118.098 176.224 Q116.432 178.284 113.445 179.025 Q116.825 179.812 118.7 182.104 Q120.598 184.395 120.598 187.706 Q120.598 192.729 117.52 195.414 Q114.464 198.099 108.746 198.099 Q103.029 198.099 99.9502 195.414 Q96.8947 192.729 96.8947 187.706 Q96.8947 184.395 98.7928 182.104 Q100.691 179.812 104.071 179.025 M102.358 171.641 Q102.358 174.326 104.024 175.831 Q105.714 177.335 108.746 177.335 Q111.756 177.335 113.445 175.831 Q115.158 174.326 115.158 171.641 Q115.158 168.956 113.445 167.451 Q111.756 165.946 108.746 165.946 Q105.714 165.946 104.024 167.451 Q102.358 168.956 102.358 171.641 Z" fill="#000000" fill-rule="nonzero" fill-opacity="1" /><polyline clip-path="url(#clip431)" style="stroke:#009af9; stroke-linecap:round; stroke-linejoin:round; stroke-width:4; stroke-opacity:1; fill:none" points="156.598,1384.24 157.702,1328.33 158.807,1274.62 159.911,1223 161.015,1173.41 162.119,1125.77 163.223,1080.01 164.327,1036.05 165.431,993.826 166.536,953.275 167.64,914.334 168.744,876.942 169.848,841.04 170.952,806.573 172.056,773.486 173.161,741.728 174.265,711.249 175.369,682 176.473,653.936 177.577,627.011 178.681,601.184 179.785,576.412 180.89,552.656 181.994,529.878 183.098,508.041 184.202,487.109 185.306,467.049 186.41,447.827 187.514,429.412 188.619,411.774 189.723,394.884 190.827,378.712 191.931,363.233 193.035,348.42 194.139,334.247 195.244,320.692 196.348,307.73 197.452,295.339 198.556,283.497 199.66,272.185 200.764,261.381 201.868,251.067 202.973,241.224 204.077,231.834 205.181,222.881 206.285,214.347 207.389,206.217 208.493,198.476 209.598,191.108 210.702,184.1 211.806,177.439 212.91,171.11 214.014,165.102 215.118,159.402 216.222,153.998 217.327,148.88 218.431,144.036 219.535,139.456 220.639,135.131 221.743,131.049 222.847,127.203 223.951,123.583 225.056,120.18 226.16,116.986 227.264,113.994 228.368,111.195 229.472,108.582 230.576,106.149 231.681,103.887 232.785,101.791 233.889,99.8549 234.993,98.0716 236.097,96.4356 237.201,94.9412 238.305,93.583 239.41,92.3558 240.514,91.2545 241.618,90.2743 242.722,89.4106 243.826,88.6587 244.93,88.0144 246.035,87.4736 247.139,87.0321 248.243,86.6863 249.347,86.4323 250.451,86.2666 251.555,86.1857 252.659,86.1863 253.764,86.2653 254.868,86.4196 255.972,86.6462 257.076,86.9423 258.18,87.3052 259.284,87.7322 260.388,88.2208 261.493,88.7686 262.597,89.3731 263.701,90.0323 264.805,90.7438 265.909,91.5057 267.013,92.3158 268.118,93.1722 269.222,94.0732 270.326,95.0169 271.43,96.0015 272.534,97.0254 273.638,98.087 274.742,99.1848 275.847,100.317 276.951,101.483 278.055,102.681 279.159,103.909 280.263,105.166 281.367,106.452 282.472,107.765 283.576,109.103 284.68,110.466 285.784,111.852 286.888,113.262 287.992,114.692 289.096,116.144 290.201,117.615 291.305,119.106 292.409,120.614 293.513,122.14 294.617,123.682 295.721,125.24 296.825,126.814 297.93,128.401 299.034,130.002 300.138,131.617 301.242,133.244 302.346,134.883 303.45,136.533 304.555,138.194 305.659,139.865 306.763,141.546 307.867,143.236 308.971,144.935 310.075,146.643 311.179,148.358 312.284,150.081 313.388,151.811 314.492,153.547 315.596,155.29 316.7,157.039 317.804,158.794 318.909,160.553 320.013,162.318 321.117,164.088 322.221,165.862 323.325,167.64 324.429,169.422 325.533,171.207 326.638,172.996 327.742,174.788 328.846,176.583 329.95,178.38 331.054,180.18 332.158,181.982 333.263,183.786 334.367,185.591 335.471,187.399 336.575,189.207 337.679,191.017 338.783,192.829 339.887,194.641 340.992,196.454 342.096,198.267 343.2,200.081 344.304,201.895 345.408,203.71 346.512,205.525 347.616,207.34 348.721,209.154 349.825,210.969 350.929,212.783 352.033,214.596 353.137,216.409 354.241,218.222 355.346,220.033 356.45,221.844 357.554,223.654 358.658,225.463 359.762,227.271 360.866,229.078 361.97,230.883 363.075,232.688 364.179,234.491 365.283,236.292 366.387,238.092 367.491,239.891 368.595,241.688 369.7,243.483 370.804,245.276 371.908,247.068 373.012,248.858 374.116,250.646 375.22,252.433 376.324,254.217 377.429,256 378.533,257.78 379.637,259.558 380.741,261.335 381.845,263.109 382.949,264.881 384.053,266.65 385.158,268.418 386.262,270.183 387.366,271.946 388.47,273.707 389.574,275.466 390.678,277.222 391.783,278.975 392.887,280.727 393.991,282.475 395.095,284.222 396.199,285.966 397.303,287.707 398.407,289.446 399.512,291.183 400.616,292.917 401.72,294.648 402.824,296.377 403.928,298.103 405.032,299.826 406.137,301.547 407.241,303.266 408.345,304.981 409.449,306.694 410.553,308.405 411.657,310.112 412.761,311.817 413.866,313.52 414.97,315.219 416.074,316.916 417.178,318.61 418.282,320.301 419.386,321.99 420.49,323.676 421.595,325.359 422.699,327.039 423.803,328.717 424.907,330.392 426.011,332.064 427.115,333.733 428.22,335.399 429.324,337.063 430.428,338.724 431.532,340.382 432.636,342.037 433.74,343.689 434.844,345.339 435.949,346.986 437.053,348.629 438.157,350.27 439.261,351.909 440.365,353.544 441.469,355.176 442.574,356.806 443.678,358.433 444.782,360.057 445.886,361.678 446.99,363.296 448.094,364.911 449.198,366.524 450.303,368.134 451.407,369.74 452.511,371.344 453.615,372.945 454.719,374.543 455.823,376.139 456.927,377.731 458.032,379.321 459.136,380.907 460.24,382.491 461.344,384.072 462.448,385.65 463.552,387.225 464.657,388.797 465.761,390.367 466.865,391.933 467.969,393.497 469.073,395.057 470.177,396.615 471.281,398.17 472.386,399.722 473.49,401.271 474.594,402.818 475.698,404.361 476.802,405.902 477.906,407.439 479.011,408.974 480.115,410.506 481.219,412.035 482.323,413.561 483.427,415.084 484.531,416.604 485.635,418.122 486.74,419.636 487.844,421.148 488.948,422.657 490.052,424.163 491.156,425.666 492.26,427.166 493.364,428.663 494.469,430.157 495.573,431.649 496.677,433.138 497.781,434.623 498.885,436.106 499.989,437.586 501.094,439.063 502.198,440.537 503.302,442.008 504.406,443.477 505.51,444.942 506.614,446.405 507.718,447.865 508.823,449.322 509.927,450.776 511.031,452.227 512.135,453.675 513.239,455.12 514.343,456.563 515.448,458.003 516.552,459.439 517.656,460.873 518.76,462.304 519.864,463.732 520.968,465.157 522.072,466.58 523.177,467.999 524.281,469.416 525.385,470.83 526.489,472.24 527.593,473.648 528.697,475.054 529.801,476.456 530.906,477.855 532.01,479.252 533.114,480.645 534.218,482.036 535.322,483.424 536.426,484.809 537.531,486.191 538.635,487.57 539.739,488.947 540.843,490.32 541.947,491.691 543.051,493.058 544.155,494.423 545.26,495.785 546.364,497.145 547.468,498.501 548.572,499.854 549.676,501.205 550.78,502.552 551.885,503.897 552.989,505.239 554.093,506.578 555.197,507.914 556.301,509.248 557.405,510.578 558.509,511.906 559.614,513.23 560.718,514.552 561.822,515.871 562.926,517.187 564.03,518.501 565.134,519.811 566.239,521.118 567.343,522.423 568.447,523.725 569.551,525.024 570.655,526.32 571.759,527.613 572.863,528.903 573.968,530.191 575.072,531.475 576.176,532.757 577.28,534.036 578.384,535.312 579.488,536.585 580.592,537.855 581.697,539.122 582.801,540.387 583.905,541.648 585.009,542.907 586.113,544.163 587.217,545.416 588.322,546.666 589.426,547.913 590.53,549.157 591.634,550.399 592.738,551.638 593.842,552.873 594.946,554.106 596.051,555.336 597.155,556.563 598.259,557.788 599.363,559.009 600.467,560.227 601.571,561.443 602.676,562.656 603.78,563.866 604.884,565.073 605.988,566.277 607.092,567.478 608.196,568.676 609.3,569.872 610.405,571.064 611.509,572.254 612.613,573.441 613.717,574.625 614.821,575.806 615.925,576.984 617.029,578.16 618.134,579.332 619.238,580.502 620.342,581.668 621.446,582.832 622.55,583.993 623.654,585.151 624.759,586.306 625.863,587.458 626.967,588.608 628.071,589.754 629.175,590.898 630.279,592.039 631.383,593.176 632.488,594.311 633.592,595.443 634.696,596.573 635.8,597.699 636.904,598.822 638.008,599.943 639.113,601.06 640.217,602.175 641.321,603.287 642.425,604.396 643.529,605.502 644.633,606.605 645.737,607.705 646.842,608.802 647.946,609.897 649.05,610.988 650.154,612.077 651.258,613.162 652.362,614.245 653.466,615.325 654.571,616.402 655.675,617.476 656.779,618.547 657.883,619.615 658.987,620.681 660.091,621.743 661.196,622.803 662.3,623.859 663.404,624.913 664.508,625.964 665.612,627.012 666.716,628.057 667.82,629.099 668.925,630.138 670.029,631.174 671.133,632.208 672.237,633.238 673.341,634.265 674.445,635.29 675.55,636.312 676.654,637.33 677.758,638.346 678.862,639.359 679.966,640.369 681.07,641.376 682.174,642.38 683.279,643.381 684.383,644.379 685.487,645.374 686.591,646.367 687.695,647.356 688.799,648.343 689.903,649.326 691.008,650.307 692.112,651.284 693.216,652.259 694.32,653.231 695.424,654.2 696.528,655.166 697.633,656.129 698.737,657.089 699.841,658.046 700.945,659 702.049,659.951 703.153,660.899 704.257,661.844 705.362,662.787 706.466,663.726 707.57,664.663 708.674,665.596 709.778,666.527 710.882,667.454 711.987,668.379 713.091,669.3 714.195,670.219 715.299,671.135 716.403,672.047 717.507,672.957 718.611,673.864 719.716,674.768 720.82,675.669 721.924,676.567 723.028,677.461 724.132,678.353 725.236,679.242 726.34,680.128 727.445,681.011 728.549,681.891 729.653,682.769 730.757,683.643 731.861,684.514 732.965,685.382 734.07,686.247 735.174,687.109 736.278,687.968 737.382,688.825 738.486,689.678 739.59,690.528 740.694,691.375 741.799,692.219 742.903,693.061 744.007,693.899 745.111,694.734 746.215,695.566 747.319,696.396 748.424,697.222 749.528,698.045 750.632,698.865 751.736,699.683 752.84,700.497 753.944,701.308 755.048,702.116 756.153,702.921 757.257,703.724 758.361,704.523 759.465,705.319 760.569,706.112 761.673,706.902 762.778,707.689 763.882,708.473 764.986,709.254 766.09,710.032 767.194,710.807 768.298,711.579 769.402,712.348 770.507,713.114 771.611,713.877 772.715,714.637 773.819,715.394 774.923,716.148 776.027,716.899 777.131,717.646 778.236,718.391 779.34,719.133 780.444,719.871 781.548,720.607 782.652,721.34 783.756,722.069 784.861,722.796 785.965,723.519 787.069,724.239 788.173,724.957 789.277,725.671 790.381,726.382 791.485,727.09 792.59,727.796 793.694,728.498 794.798,729.197 795.902,729.893 797.006,730.585 798.11,731.275 799.215,731.962 800.319,732.646 801.423,733.326 802.527,734.004 803.631,734.679 804.735,735.35 805.839,736.018 806.944,736.684 808.048,737.346 809.152,738.005 810.256,738.661 811.36,739.314 812.464,739.964 813.568,740.611 814.673,741.255 815.777,741.895 816.881,742.533 817.985,743.167 819.089,743.799 820.193,744.427 821.298,745.053 822.402,745.675 823.506,746.294 824.61,746.91 825.714,747.523 826.818,748.133 827.922,748.739 829.027,749.343 830.131,749.943 831.235,750.541 832.339,751.135 833.443,751.726 834.547,752.314 835.652,752.899 836.756,753.481 837.86,754.06 838.964,754.636 840.068,755.209 841.172,755.778 842.276,756.344 843.381,756.908 844.485,757.468 845.589,758.025 846.693,758.579 847.797,759.13 848.901,759.677 850.005,760.222 851.11,760.763 852.214,761.302 853.318,761.837 854.422,762.369 855.526,762.898 856.63,763.424 857.735,763.947 858.839,764.466 859.943,764.983 861.047,765.496 862.151,766.006 863.255,766.513 864.359,767.017 865.464,767.518 866.568,768.016 867.672,768.51 868.776,769.002 869.88,769.49 870.984,769.975 872.089,770.457 873.193,770.936 874.297,771.412 875.401,771.884 876.505,772.354 877.609,772.82 878.713,773.283 879.818,773.743 880.922,774.2 882.026,774.654 883.13,775.104 884.234,775.552 885.338,775.996 886.442,776.437 887.547,776.875 888.651,777.31 889.755,777.742 890.859,778.17 891.963,778.596 893.067,779.018 894.172,779.437 895.276,779.853 896.38,780.266 897.484,780.676 898.588,781.082 899.692,781.485 900.796,781.885 901.901,782.282 903.005,782.676 904.109,783.067 905.213,783.454 906.317,783.839 907.421,784.22 908.526,784.598 909.63,784.973 910.734,785.345 911.838,785.713 912.942,786.079 914.046,786.441 915.15,786.8 916.255,787.156 917.359,787.509 918.463,787.858 919.567,788.204 920.671,788.548 921.775,788.888 922.879,789.225 923.984,789.558 925.088,789.889 926.192,790.216 927.296,790.541 928.4,790.862 929.504,791.18 930.609,791.494 931.713,791.806 932.817,792.114 933.921,792.419 935.025,792.721 936.129,793.02 937.233,793.316 938.338,793.609 939.442,793.898 940.546,794.184 941.65,794.467 942.754,794.747 943.858,795.024 944.963,795.297 946.067,795.568 947.171,795.835 948.275,796.099 949.379,796.36 950.483,796.617 951.587,796.872 952.692,797.123 953.796,797.371 954.9,797.616 956.004,797.858 957.108,798.097 958.212,798.332 959.316,798.565 960.421,798.794 961.525,799.02 962.629,799.243 963.733,799.462 964.837,799.679 965.941,799.892 967.046,800.102 968.15,800.309 969.254,800.513 970.358,800.714 971.462,800.911 972.566,801.105 973.67,801.297 974.775,801.485 975.879,801.669 976.983,801.851 978.087,802.03 979.191,802.205 980.295,802.377 981.4,802.546 982.504,802.712 983.608,802.875 984.712,803.034 985.816,803.191 986.92,803.344 988.024,803.494 989.129,803.641 990.233,803.785 991.337,803.925 992.441,804.063 993.545,804.197 994.649,804.328 995.754,804.456 996.858,804.581 997.962,804.703 999.066,804.822 1000.17,804.937 1001.27,805.049 1002.38,805.159 1003.48,805.265 1004.59,805.367 1005.69,805.467 1006.8,805.564 1007.9,805.657 1009,805.748 1010.11,805.835 1011.21,805.919 1012.32,806 1013.42,806.078 1014.52,806.152 1015.63,806.224 1016.73,806.292 1017.84,806.358 1018.94,806.42 1020.04,806.479 1021.15,806.535 1022.25,806.588 1023.36,806.637 1024.46,806.684 1025.57,806.727 1026.67,806.768 1027.77,806.805 1028.88,806.839 1029.98,806.87 1031.09,806.898 1032.19,806.923 1033.29,806.944 1034.4,806.963 1035.5,806.979 1036.61,806.991 1037.71,807 1038.82,807.007 1039.92,807.01 1041.02,807.01 1042.13,807.007 1043.23,807.001 1044.34,806.991 1045.44,806.979 1046.54,806.964 1047.65,806.945 1048.75,806.924 1049.86,806.899 1050.96,806.872 1052.07,806.841 1053.17,806.807 1054.27,806.77 1055.38,806.73 1056.48,806.687 1057.59,806.641 1058.69,806.592 1059.79,806.54 1060.9,806.485 1062,806.427 1063.11,806.366 1064.21,806.301 1065.32,806.234 1066.42,806.164 1067.52,806.09 1068.63,806.014 1069.73,805.934 1070.84,805.852 1071.94,805.766 1073.04,805.678 1074.15,805.586 1075.25,805.492 1076.36,805.394 1077.46,805.294 1078.56,805.19 1079.67,805.084 1080.77,804.974 1081.88,804.862 1082.98,804.746 1084.09,804.628 1085.19,804.506 1086.29,804.382 1087.4,804.254 1088.5,804.124 1089.61,803.99 1090.71,803.854 1091.81,803.715 1092.92,803.572 1094.02,803.427 1095.13,803.279 1096.23,803.128 1097.34,802.973 1098.44,802.816 1099.54,802.656 1100.65,802.493 1101.75,802.328 1102.86,802.159 1103.96,801.987 1105.06,801.812 1106.17,801.635 1107.27,801.454 1108.38,801.271 1109.48,801.085 1110.59,800.896 1111.69,800.703 1112.79,800.508 1113.9,800.311 1115,800.11 1116.11,799.906 1117.21,799.7 1118.31,799.49 1119.42,799.278 1120.52,799.063 1121.63,798.845 1122.73,798.624 1123.84,798.4 1124.94,798.174 1126.04,797.944 1127.15,797.712 1128.25,797.477 1129.36,797.239 1130.46,796.999 1131.56,796.755 1132.67,796.509 1133.77,796.259 1134.88,796.008 1135.98,795.753 1137.08,795.495 1138.19,795.235 1139.29,794.972 1140.4,794.706 1141.5,794.437 1142.61,794.166 1143.71,793.891 1144.81,793.614 1145.92,793.335 1147.02,793.052 1148.13,792.767 1149.23,792.479 1150.33,792.188 1151.44,791.895 1152.54,791.598 1153.65,791.299 1154.75,790.998 1155.86,790.693 1156.96,790.386 1158.06,790.077 1159.17,789.764 1160.27,789.449 1161.38,789.131 1162.48,788.811 1163.58,788.487 1164.69,788.162 1165.79,787.833 1166.9,787.502 1168,787.168 1169.11,786.832 1170.21,786.493 1171.31,786.151 1172.42,785.807 1173.52,785.46 1174.63,785.11 1175.73,784.758 1176.83,784.403 1177.94,784.046 1179.04,783.686 1180.15,783.323 1181.25,782.958 1182.36,782.59 1183.46,782.22 1184.56,781.847 1185.67,781.472 1186.77,781.094 1187.88,780.713 1188.98,780.33 1190.08,779.945 1191.19,779.557 1192.29,779.166 1193.4,778.773 1194.5,778.378 1195.6,777.98 1196.71,777.579 1197.81,777.176 1198.92,776.771 1200.02,776.363 1201.13,775.952 1202.23,775.539 1203.33,775.124 1204.44,774.706 1205.54,774.286 1206.65,773.863 1207.75,773.438 1208.85,773.011 1209.96,772.581 1211.06,772.149 1212.17,771.714 1213.27,771.277 1214.38,770.838 1215.48,770.396 1216.58,769.952 1217.69,769.505 1218.79,769.057 1219.9,768.605 1221,768.152 1222.1,767.696 1223.21,767.238 1224.31,766.778 1225.42,766.315 1226.52,765.85 1227.63,765.383 1228.73,764.913 1229.83,764.441 1230.94,763.967 1232.04,763.491 1233.15,763.012 1234.25,762.531 1235.35,762.048 1236.46,761.563 1237.56,761.075 1238.67,760.586 1239.77,760.094 1240.88,759.6 1241.98,759.103 1243.08,758.605 1244.19,758.104 1245.29,757.601 1246.4,757.097 1247.5,756.589 1248.6,756.08 1249.71,755.569 1250.81,755.056 1251.92,754.54 1253.02,754.022 1254.12,753.503 1255.23,752.981 1256.33,752.457 1257.44,751.931 1258.54,751.403 1259.65,750.873 1260.75,750.341 1261.85,749.807 1262.96,749.271 1264.06,748.733 1265.17,748.192 1266.27,747.65 1267.37,747.106 1268.48,746.56 1269.58,746.012 1270.69,745.462 1271.79,744.91 1272.9,744.356 1274,743.8 1275.1,743.243 1276.21,742.683 1277.31,742.121 1278.42,741.558 1279.52,740.993 1280.62,740.425 1281.73,739.856 1282.83,739.285 1283.94,738.713 1285.04,738.138 1286.15,737.562 1287.25,736.983 1288.35,736.403 1289.46,735.821 1290.56,735.238 1291.67,734.652 1292.77,734.065 1293.87,733.476 1294.98,732.886 1296.08,732.293 1297.19,731.699 1298.29,731.103 1299.4,730.506 1300.5,729.906 1301.6,729.305 1302.71,728.703 1303.81,728.098 1304.92,727.492 1306.02,726.885 1307.12,726.275 1308.23,725.665 1309.33,725.052 1310.44,724.438 1311.54,723.822 1312.65,723.205 1313.75,722.586 1314.85,721.965 1315.96,721.343 1317.06,720.72 1318.17,720.095 1319.27,719.468 1320.37,718.84 1321.48,718.21 1322.58,717.579 1323.69,716.947 1324.79,716.313 1325.89,715.677 1327,715.04 1328.1,714.401 1329.21,713.762 1330.31,713.12 1331.42,712.478 1332.52,711.833 1333.62,711.188 1334.73,710.541 1335.83,709.893 1336.94,709.243 1338.04,708.592 1339.14,707.94 1340.25,707.286 1341.35,706.631 1342.46,705.975 1343.56,705.318 1344.67,704.659 1345.77,703.999 1346.87,703.338 1347.98,702.675 1349.08,702.011 1350.19,701.346 1351.29,700.68 1352.39,700.013 1353.5,699.344 1354.6,698.674 1355.71,698.003 1356.81,697.331 1357.92,696.658 1359.02,695.984 1360.12,695.308 1361.23,694.631 1362.33,693.954 1363.44,693.275 1364.54,692.595 1365.64,691.914 1366.75,691.232 1367.85,690.549 1368.96,689.865 1370.06,689.18 1371.17,688.494 1372.27,687.807 1373.37,687.119 1374.48,686.43 1375.58,685.74 1376.69,685.049 1377.79,684.357 1378.89,683.664 1380,682.97 1381.1,682.276 1382.21,681.58 1383.31,680.884 1384.41,680.186 1385.52,679.488 1386.62,678.789 1387.73,678.09 1388.83,677.389 1389.94,676.687 1391.04,675.985 1392.14,675.282 1393.25,674.579 1394.35,673.874 1395.46,673.169 1396.56,672.463 1397.66,671.756 1398.77,671.049 1399.87,670.34 1400.98,669.632 1402.08,668.922 1403.19,668.212 1404.29,667.501 1405.39,666.79 1406.5,666.078 1407.6,665.365 1408.71,664.652 1409.81,663.938 1410.91,663.223 1412.02,662.508 1413.12,661.793 1414.23,661.077 1415.33,660.36 1416.44,659.643 1417.54,658.925 1418.64,658.207 1419.75,657.489 1420.85,656.769 1421.96,656.05 1423.06,655.33 1424.16,654.609 1425.27,653.889 1426.37,653.167 1427.48,652.446 1428.58,651.724 1429.69,651.001 1430.79,650.279 1431.89,649.556 1433,648.832 1434.1,648.108 1435.21,647.384 1436.31,646.66 1437.41,645.935 1438.52,645.211 1439.62,644.485 1440.73,643.76 1441.83,643.034 1442.93,642.309 1444.04,641.583 1445.14,640.856 1446.25,640.13 1447.35,639.403 1448.46,638.677 1449.56,637.95 1450.66,637.223 1451.77,636.496 1452.87,635.768 1453.98,635.041 1455.08,634.314 1456.18,633.586 1457.29,632.859 1458.39,632.131 1459.5,631.403 1460.6,630.676 1461.71,629.948 1462.81,629.22 1463.91,628.493 1465.02,627.765 1466.12,627.038 1467.23,626.31 1468.33,625.583 1469.43,624.855 1470.54,624.128 1471.64,623.401 1472.75,622.674 1473.85,621.947 1474.96,621.22 1476.06,620.494 1477.16,619.767 1478.27,619.041 1479.37,618.315 1480.48,617.589 1481.58,616.864 1482.68,616.138 1483.79,615.413 1484.89,614.688 1486,613.964 1487.1,613.239 1488.21,612.515 1489.31,611.791 1490.41,611.068 1491.52,610.345 1492.62,609.622 1493.73,608.9 1494.83,608.178 1495.93,607.456 1497.04,606.735 1498.14,606.014 1499.25,605.294 1500.35,604.574 1501.45,603.854 1502.56,603.135 1503.66,602.416 1504.77,601.698 1505.87,600.98 1506.98,600.263 1508.08,599.547 1509.18,598.831 1510.29,598.115 1511.39,597.4 1512.5,596.686 1513.6,595.972 1514.7,595.258 1515.81,594.546 1516.91,593.834 1518.02,593.122 1519.12,592.411 1520.23,591.701 1521.33,590.992 1522.43,590.283 1523.54,589.575 1524.64,588.867 1525.75,588.161 1526.85,587.455 1527.95,586.75 1529.06,586.045 1530.16,585.341 1531.27,584.638 1532.37,583.936 1533.48,583.235 1534.58,582.534 1535.68,581.834 1536.79,581.136 1537.89,580.437 1539,579.74 1540.1,579.044 1541.2,578.348 1542.31,577.654 1543.41,576.96 1544.52,576.267 1545.62,575.576 1546.73,574.885 1547.83,574.195 1548.93,573.506 1550.04,572.818 1551.14,572.131 1552.25,571.445 1553.35,570.76 1554.45,570.076 1555.56,569.393 1556.66,568.711 1557.77,568.03 1558.87,567.35 1559.98,566.672 1561.08,565.994 1562.18,565.317 1563.29,564.642 1564.39,563.968 1565.5,563.295 1566.6,562.623 1567.7,561.952 1568.81,561.282 1569.91,560.614 1571.02,559.946 1572.12,559.28 1573.22,558.615 1574.33,557.952 1575.43,557.289 1576.54,556.628 1577.64,555.968 1578.75,555.31 1579.85,554.652 1580.95,553.996 1582.06,553.342 1583.16,552.688 1584.27,552.036 1585.37,551.385 1586.47,550.736 1587.58,550.088 1588.68,549.441 1589.79,548.796 1590.89,548.152 1592,547.51 1593.1,546.868 1594.2,546.229 1595.31,545.59 1596.41,544.954 1597.52,544.318 1598.62,543.684 1599.72,543.052 1600.83,542.421 1601.93,541.792 1603.04,541.164 1604.14,540.537 1605.25,539.913 1606.35,539.289 1607.45,538.668 1608.56,538.047 1609.66,537.429 1610.77,536.812 1611.87,536.196 1612.97,535.582 1614.08,534.97 1615.18,534.359 1616.29,533.75 1617.39,533.143 1618.5,532.537 1619.6,531.933 1620.7,531.331 1621.81,530.73 1622.91,530.131 1624.02,529.534 1625.12,528.938 1626.22,528.344 1627.33,527.752 1628.43,527.162 1629.54,526.573 1630.64,525.986 1631.74,525.401 1632.85,524.817 1633.95,524.236 1635.06,523.656 1636.16,523.078 1637.27,522.502 1638.37,521.927 1639.47,521.355 1640.58,520.784 1641.68,520.215 1642.79,519.648 1643.89,519.083 1644.99,518.52 1646.1,517.958 1647.2,517.399 1648.31,516.841 1649.41,516.286 1650.52,515.732 1651.62,515.18 1652.72,514.63 1653.83,514.082 1654.93,513.536 1656.04,512.992 1657.14,512.45 1658.24,511.91 1659.35,511.372 1660.45,510.836 1661.56,510.302 1662.66,509.77 1663.77,509.24 1664.87,508.712 1665.97,508.186 1667.08,507.662 1668.18,507.14 1669.29,506.62 1670.39,506.102 1671.49,505.587 1672.6,505.073 1673.7,504.562 1674.81,504.052 1675.91,503.545 1677.02,503.04 1678.12,502.537 1679.22,502.036 1680.33,501.537 1681.43,501.041 1682.54,500.546 1683.64,500.054 1684.74,499.564 1685.85,499.076 1686.95,498.59 1688.06,498.106 1689.16,497.625 1690.26,497.146 1691.37,496.669 1692.47,496.194 1693.58,495.721 1694.68,495.251 1695.79,494.783 1696.89,494.317 1697.99,493.854 1699.1,493.392 1700.2,492.933 1701.31,492.477 1702.41,492.022 1703.51,491.57 1704.62,491.12 1705.72,490.673 1706.83,490.227 1707.93,489.784 1709.04,489.344 1710.14,488.905 1711.24,488.469 1712.35,488.036 1713.45,487.604 1714.56,487.175 1715.66,486.749 1716.76,486.324 1717.87,485.902 1718.97,485.483 1720.08,485.066 1721.18,484.651 1722.29,484.239 1723.39,483.829 1724.49,483.421 1725.6,483.016 1726.7,482.613 1727.81,482.213 1728.91,481.815 1730.01,481.419 1731.12,481.026 1732.22,480.636 1733.33,480.247 1734.43,479.862 1735.54,479.478 1736.64,479.097 1737.74,478.719 1738.85,478.343 1739.95,477.97 1741.06,477.599 1742.16,477.23 1743.26,476.864 1744.37,476.501 1745.47,476.14 1746.58,475.781 1747.68,475.425 1748.78,475.072 1749.89,474.721 1750.99,474.372 1752.1,474.026 1753.2,473.683 1754.31,473.342 1755.41,473.003 1756.51,472.668 1757.62,472.334 1758.72,472.003 1759.83,471.675 1760.93,471.35 1762.03,471.026 1763.14,470.706 1764.24,470.388 1765.35,470.073 1766.45,469.76 1767.56,469.449 1768.66,469.142 1769.76,468.837 1770.87,468.534 1771.97,468.234 1773.08,467.937 1774.18,467.642 1775.28,467.35 1776.39,467.06 1777.49,466.773 1778.6,466.489 1779.7,466.207 1780.81,465.928 1781.91,465.651 1783.01,465.377 1784.12,465.106 1785.22,464.837 1786.33,464.571 1787.43,464.308 1788.53,464.047 1789.64,463.789 1790.74,463.533 1791.85,463.28 1792.95,463.03 1794.06,462.782 1795.16,462.537 1796.26,462.295 1797.37,462.055 1798.47,461.818 1799.58,461.583 1800.68,461.352 1801.78,461.123 1802.89,460.896 1803.99,460.672 1805.1,460.451 1806.2,460.232 1807.3,460.017 1808.41,459.803 1809.51,459.593 1810.62,459.385 1811.72,459.18 1812.83,458.977 1813.93,458.777 1815.03,458.58 1816.14,458.386 1817.24,458.194 1818.35,458.004 1819.45,457.818 1820.55,457.634 1821.66,457.453 1822.76,457.274 1823.87,457.099 1824.97,456.925 1826.08,456.755 1827.18,456.587 1828.28,456.422 1829.39,456.259 1830.49,456.1 1831.6,455.943 1832.7,455.788 1833.8,455.636 1834.91,455.487 1836.01,455.341 1837.12,455.197 1838.22,455.056 1839.33,454.918 1840.43,454.782 1841.53,454.649 1842.64,454.519 1843.74,454.391 1844.85,454.266 1845.95,454.144 1847.05,454.024 1848.16,453.907 1849.26,453.793 1850.37,453.681 1851.47,453.572 1852.58,453.466 1853.68,453.363 1854.78,453.262 1855.89,453.164 1856.99,453.068 1858.1,452.975 1859.2,452.885 1860.3,452.797 1861.41,452.712 1862.51,452.63 1863.62,452.551 1864.72,452.474 1865.83,452.399 1866.93,452.328 1868.03,452.259 1869.14,452.193 1870.24,452.129 1871.35,452.068 1872.45,452.01 1873.55,451.954 1874.66,451.901 1875.76,451.851 1876.87,451.803 1877.97,451.758 1879.07,451.716 1880.18,451.676 1881.28,451.639 1882.39,451.604 1883.49,451.572 1884.6,451.543 1885.7,451.517 1886.8,451.493 1887.91,451.471 1889.01,451.452 1890.12,451.436 1891.22,451.423 1892.32,451.412 1893.43,451.404 1894.53,451.398 1895.64,451.395 1896.74,451.395 1897.85,451.397 1898.95,451.402 1900.05,451.409 1901.16,451.419 1902.26,451.432 1903.37,451.447 1904.47,451.464 1905.57,451.485 1906.68,451.508 1907.78,451.533 1908.89,451.561 1909.99,451.592 1911.1,451.625 1912.2,451.661 1913.3,451.699 1914.41,451.74 1915.51,451.784 1916.62,451.83 1917.72,451.878 1918.82,451.929 1919.93,451.983 1921.03,452.039 1922.14,452.098 1923.24,452.159 1924.35,452.223 1925.45,452.289 1926.55,452.358 1927.66,452.429 1928.76,452.503 1929.87,452.58 1930.97,452.659 1932.07,452.74 1933.18,452.824 1934.28,452.91 1935.39,452.999 1936.49,453.09 1937.59,453.184 1938.7,453.281 1939.8,453.379 1940.91,453.481 1942.01,453.584 1943.12,453.691 1944.22,453.799 1945.32,453.91 1946.43,454.024 1947.53,454.14 1948.64,454.258 1949.74,454.379 1950.84,454.503 1951.95,454.628 1953.05,454.756 1954.16,454.887 1955.26,455.02 1956.37,455.155 1957.47,455.293 1958.57,455.433 1959.68,455.576 1960.78,455.721 1961.89,455.868 1962.99,456.018 1964.09,456.17 1965.2,456.325 1966.3,456.482 1967.41,456.641 1968.51,456.802 1969.62,456.966 1970.72,457.133 1971.82,457.301 1972.93,457.472 1974.03,457.645 1975.14,457.821 1976.24,457.999 1977.34,458.179 1978.45,458.362 1979.55,458.547 1980.66,458.734 1981.76,458.923 1982.87,459.115 1983.97,459.309 1985.07,459.505 1986.18,459.704 1987.28,459.905 1988.39,460.108 1989.49,460.313 1990.59,460.521 1991.7,460.731 1992.8,460.943 1993.91,461.157 1995.01,461.374 1996.11,461.592 1997.22,461.813 1998.32,462.036 1999.43,462.262 2000.53,462.489 2001.64,462.719 2002.74,462.951 2003.84,463.185 2004.95,463.422 2006.05,463.66 2007.16,463.901 2008.26,464.144 2009.36,464.389 2010.47,464.636 2011.57,464.885 2012.68,465.136 2013.78,465.39 2014.89,465.646 2015.99,465.903 2017.09,466.163 2018.2,466.425 2019.3,466.689 2020.41,466.955 2021.51,467.224 2022.61,467.494 2023.72,467.766 2024.82,468.041 2025.93,468.317 2027.03,468.596 2028.14,468.876 2029.24,469.159 2030.34,469.444 2031.45,469.731 2032.55,470.019 2033.66,470.31 2034.76,470.603 2035.86,470.898 2036.97,471.194 2038.07,471.493 2039.18,471.794 2040.28,472.097 2041.39,472.401 2042.49,472.708 2043.59,473.017 2044.7,473.327 2045.8,473.64 2046.91,473.954 2048.01,474.27 2049.11,474.589 2050.22,474.909 2051.32,475.231 2052.43,475.555 2053.53,475.881 2054.63,476.209 2055.74,476.539 2056.84,476.87 2057.95,477.204 2059.05,477.539 2060.16,477.876 2061.26,478.215 2062.36,478.556 2063.47,478.899 2064.57,479.244 2065.68,479.59 2066.78,479.938 2067.88,480.288 2068.99,480.64 2070.09,480.994 2071.2,481.349 2072.3,481.706 2073.41,482.065 2074.51,482.426 2075.61,482.788 2076.72,483.153 2077.82,483.519 2078.93,483.886 2080.03,484.256 2081.13,484.627 2082.24,485 2083.34,485.375 2084.45,485.751 2085.55,486.129 2086.66,486.509 2087.76,486.891 2088.86,487.274 2089.97,487.658 2091.07,488.045 2092.18,488.433 2093.28,488.823 2094.38,489.214 2095.49,489.607 2096.59,490.002 2097.7,490.399 2098.8,490.796 2099.91,491.196 2101.01,491.597 2102.11,492 2103.22,492.404 2104.32,492.81 2105.43,493.218 2106.53,493.627 2107.63,494.038 2108.74,494.45 2109.84,494.864 2110.95,495.279 2112.05,495.696 2113.15,496.114 2114.26,496.534 2115.36,496.956 2116.47,497.379 2117.57,497.803 2118.68,498.229 2119.78,498.656 2120.88,499.085 2121.99,499.516 2123.09,499.947 2124.2,500.381 2125.3,500.815 2126.4,501.252 2127.51,501.689 2128.61,502.128 2129.72,502.569 2130.82,503.011 2131.93,503.454 2133.03,503.899 2134.13,504.345 2135.24,504.792 2136.34,505.241 2137.45,505.692 2138.55,506.143 2139.65,506.596 2140.76,507.051 2141.86,507.506 2142.97,507.963 2144.07,508.422 2145.18,508.881 2146.28,509.342 2147.38,509.805 2148.49,510.268 2149.59,510.733 2150.7,511.2 2151.8,511.667 2152.9,512.136 2154.01,512.606 2155.11,513.077 2156.22,513.55 2157.32,514.024 2158.43,514.499 2159.53,514.975 2160.63,515.453 2161.74,515.932 2162.84,516.412 2163.95,516.893 2165.05,517.375 2166.15,517.859 2167.26,518.344 2168.36,518.83 2169.47,519.317 2170.57,519.805 2171.68,520.295 2172.78,520.786 2173.88,521.277 2174.99,521.77 2176.09,522.265 2177.2,522.76 2178.3,523.256 2179.4,523.754 2180.51,524.252 2181.61,524.752 2182.72,525.253 2183.82,525.755 2184.92,526.258 2186.03,526.762 2187.13,527.267 2188.24,527.773 2189.34,528.28 2190.45,528.788 2191.55,529.298 2192.65,529.808 2193.76,530.32 2194.86,530.832 2195.97,531.345 2197.07,531.86 2198.17,532.375 2199.28,532.892 2200.38,533.409 2201.49,533.928 2202.59,534.447 2203.7,534.967 2204.8,535.489 2205.9,536.011 2207.01,536.534 2208.11,537.059 2209.22,537.584 2210.32,538.11 2211.42,538.637 2212.53,539.165 2213.63,539.694 2214.74,540.223 2215.84,540.754 2216.95,541.286 2218.05,541.818 2219.15,542.351 2220.26,542.886 2221.36,543.421 2222.47,543.957 2223.57,544.493 2224.67,545.031 2225.78,545.57 2226.88,546.109 2227.99,546.649 2229.09,547.19 2230.2,547.732 2231.3,548.275 2232.4,548.818 2233.51,549.362 2234.61,549.907 2235.72,550.453 2236.82,551 2237.92,551.547 2239.03,552.095 2240.13,552.644 2241.24,553.194 2242.34,553.745 2243.44,554.296 2244.55,554.848 2245.65,555.4 2246.76,555.954 2247.86,556.508 2248.97,557.063 2250.07,557.619 2251.17,558.175 2252.28,558.732 2253.38,559.29 2254.49,559.848 2255.59,560.407 2256.69,560.967 2257.8,561.527 2258.9,562.088 2260.01,562.65 2261.11,563.212 2262.22,563.775 2263.32,564.339 2264.42,564.904 2265.53,565.469 2266.63,566.034 2267.74,566.6 2268.84,567.167 2269.94,567.735 2271.05,568.303 2272.15,568.871 2273.26,569.441 2274.36,570.01 2275.47,570.581 2276.57,571.152 2277.67,571.724 2278.78,572.296 2279.88,572.868 2280.99,573.442 2282.09,574.015 2283.19,574.59 2284.3,575.165 2285.4,575.74 2286.51,576.316 2287.61,576.893 2288.72,577.47 2289.82,578.047 2290.92,578.625 2292.03,579.204 2293.13,579.783 2294.24,580.362 2295.34,580.942 2296.44,581.523 2297.55,582.104 2298.65,582.685 2299.76,583.267 2300.86,583.85 2301.96,584.432 2303.07,585.016 2304.17,585.599 2305.28,586.184 2306.38,586.768 2307.49,587.353 2308.59,587.939 2309.69,588.525 2310.8,589.111 2311.9,589.698 2313.01,590.285 2314.11,590.872 2315.21,591.46 2316.32,592.049 2317.42,592.638 2318.53,593.227 2319.63,593.816 2320.74,594.406 2321.84,594.996 2322.94,595.587 2324.05,596.178 2325.15,596.769 2326.26,597.361 2327.36,597.953 2328.46,598.545 2329.57,599.138 2330.67,599.731 2331.78,600.324 2332.88,600.918 2333.99,601.512 2335.09,602.106 2336.19,602.701 2337.3,603.296 2338.4,603.891 2339.51,604.486 2340.61,605.082 2341.71,605.678 2342.82,606.275 2343.92,606.871 2345.03,607.468 2346.13,608.065 2347.24,608.663 2348.34,609.261 2349.44,609.859 2350.55,610.457 2351.65,611.055 2352.76,611.654 "/>
<circle clip-path="url(#clip431)" cx="343.462" cy="195.199" r="14.4" fill="#e26f46" fill-rule="evenodd" fill-opacity="1" stroke="#000000" stroke-opacity="1" stroke-width="3.2"/>
<circle clip-path="url(#clip431)" cx="606.788" cy="571.477" r="14.4" fill="#e26f46" fill-rule="evenodd" fill-opacity="1" stroke="#000000" stroke-opacity="1" stroke-width="3.2"/>
<circle clip-path="url(#clip431)" cx="1721.84" cy="451.068" r="14.4" fill="#e26f46" fill-rule="evenodd" fill-opacity="1" stroke="#000000" stroke-opacity="1" stroke-width="3.2"/>
<circle clip-path="url(#clip431)" cx="1893.98" cy="511.273" r="14.4" fill="#e26f46" fill-rule="evenodd" fill-opacity="1" stroke="#000000" stroke-opacity="1" stroke-width="3.2"/>
<circle clip-path="url(#clip431)" cx="2107.42" cy="466.119" r="14.4" fill="#e26f46" fill-rule="evenodd" fill-opacity="1" stroke="#000000" stroke-opacity="1" stroke-width="3.2"/>
<path clip-path="url(#clip430)" d="M1339.45 248.629 L2279.55 248.629 L2279.55 93.1086 L1339.45 93.1086  Z" fill="#ffffff" fill-rule="evenodd" fill-opacity="1"/>
<polyline clip-path="url(#clip430)" style="stroke:#000000; stroke-linecap:round; stroke-linejoin:round; stroke-width:4; stroke-opacity:1; fill:none" points="1339.45,248.629 2279.55,248.629 2279.55,93.1086 1339.45,93.1086 1339.45,248.629 "/>
<polyline clip-path="url(#clip430)" style="stroke:#009af9; stroke-linecap:round; stroke-linejoin:round; stroke-width:4; stroke-opacity:1; fill:none" points="1363.85,144.949 1510.26,144.949 "/>
<path clip-path="url(#clip430)" d="M1555.18 137.298 L1555.18 141.28 Q1553.37 140.284 1551.54 139.798 Q1549.74 139.289 1547.88 139.289 Q1543.74 139.289 1541.45 141.928 Q1539.16 144.544 1539.16 149.289 Q1539.16 154.034 1541.45 156.673 Q1543.74 159.289 1547.88 159.289 Q1549.74 159.289 1551.54 158.803 Q1553.37 158.293 1555.18 157.298 L1555.18 161.233 Q1553.39 162.067 1551.47 162.483 Q1549.57 162.9 1547.42 162.9 Q1541.56 162.9 1538.12 159.219 Q1534.67 155.539 1534.67 149.289 Q1534.67 142.946 1538.14 139.312 Q1541.63 135.678 1547.7 135.678 Q1549.67 135.678 1551.54 136.095 Q1553.42 136.488 1555.18 137.298 Z" fill="#000000" fill-rule="nonzero" fill-opacity="1" /><path clip-path="url(#clip430)" d="M1557.98 127.669 L1587.21 127.669 L1587.21 131.604 L1574.94 131.604 L1574.94 162.229 L1570.25 162.229 L1570.25 131.604 L1557.98 131.604 L1557.98 127.669 Z" fill="#000000" fill-rule="nonzero" fill-opacity="1" /><path clip-path="url(#clip430)" d="M1613.09 146.581 L1613.09 162.229 L1608.83 162.229 L1608.83 146.719 Q1608.83 143.039 1607.4 141.21 Q1605.96 139.382 1603.09 139.382 Q1599.64 139.382 1597.65 141.581 Q1595.66 143.78 1595.66 147.576 L1595.66 162.229 L1591.38 162.229 L1591.38 136.303 L1595.66 136.303 L1595.66 140.331 Q1597.19 137.993 1599.25 136.835 Q1601.33 135.678 1604.04 135.678 Q1608.51 135.678 1610.8 138.456 Q1613.09 141.21 1613.09 146.581 Z" fill="#000000" fill-rule="nonzero" fill-opacity="1" /><path clip-path="url(#clip430)" d="M1616.98 127.669 L1646.22 127.669 L1646.22 131.604 L1633.95 131.604 L1633.95 162.229 L1629.25 162.229 L1629.25 131.604 L1616.98 131.604 L1616.98 127.669 Z" fill="#000000" fill-rule="nonzero" fill-opacity="1" /><path clip-path="url(#clip430)" d="M1682.14 137.067 L1682.14 141.094 Q1680.34 140.169 1678.39 139.706 Q1676.45 139.243 1674.36 139.243 Q1671.19 139.243 1669.6 140.215 Q1668.02 141.187 1668.02 143.131 Q1668.02 144.613 1669.16 145.469 Q1670.29 146.303 1673.72 147.067 L1675.18 147.391 Q1679.71 148.363 1681.61 150.145 Q1683.53 151.905 1683.53 155.076 Q1683.53 158.687 1680.66 160.793 Q1677.81 162.9 1672.81 162.9 Q1670.73 162.9 1668.46 162.483 Q1666.22 162.09 1663.72 161.28 L1663.72 156.881 Q1666.08 158.108 1668.37 158.733 Q1670.66 159.335 1672.91 159.335 Q1675.92 159.335 1677.54 158.317 Q1679.16 157.275 1679.16 155.4 Q1679.16 153.664 1677.98 152.738 Q1676.82 151.812 1672.86 150.956 L1671.38 150.608 Q1667.42 149.775 1665.66 148.062 Q1663.9 146.326 1663.9 143.317 Q1663.9 139.659 1666.49 137.669 Q1669.09 135.678 1673.86 135.678 Q1676.22 135.678 1678.3 136.025 Q1680.38 136.372 1682.14 137.067 Z" fill="#000000" fill-rule="nonzero" fill-opacity="1" /><path clip-path="url(#clip430)" d="M1690.31 136.303 L1694.57 136.303 L1694.57 162.229 L1690.31 162.229 L1690.31 136.303 M1690.31 126.21 L1694.57 126.21 L1694.57 131.604 L1690.31 131.604 L1690.31 126.21 Z" fill="#000000" fill-rule="nonzero" fill-opacity="1" /><path clip-path="url(#clip430)" d="M1723.67 141.28 Q1725.27 138.409 1727.49 137.044 Q1729.71 135.678 1732.72 135.678 Q1736.77 135.678 1738.97 138.525 Q1741.17 141.349 1741.17 146.581 L1741.17 162.229 L1736.89 162.229 L1736.89 146.719 Q1736.89 142.993 1735.57 141.187 Q1734.25 139.382 1731.54 139.382 Q1728.23 139.382 1726.31 141.581 Q1724.39 143.78 1724.39 147.576 L1724.39 162.229 L1720.11 162.229 L1720.11 146.719 Q1720.11 142.969 1718.79 141.187 Q1717.47 139.382 1714.71 139.382 Q1711.45 139.382 1709.53 141.604 Q1707.61 143.803 1707.61 147.576 L1707.61 162.229 L1703.32 162.229 L1703.32 136.303 L1707.61 136.303 L1707.61 140.331 Q1709.06 137.946 1711.1 136.812 Q1713.14 135.678 1715.94 135.678 Q1718.76 135.678 1720.73 137.113 Q1722.72 138.548 1723.67 141.28 Z" fill="#000000" fill-rule="nonzero" fill-opacity="1" /><path clip-path="url(#clip430)" d="M1749.23 151.997 L1749.23 136.303 L1753.48 136.303 L1753.48 151.835 Q1753.48 155.516 1754.92 157.368 Q1756.36 159.196 1759.23 159.196 Q1762.67 159.196 1764.67 156.997 Q1766.68 154.798 1766.68 151.002 L1766.68 136.303 L1770.94 136.303 L1770.94 162.229 L1766.68 162.229 L1766.68 158.247 Q1765.13 160.608 1763.07 161.766 Q1761.03 162.9 1758.32 162.9 Q1753.86 162.9 1751.54 160.122 Q1749.23 157.344 1749.23 151.997 M1759.94 135.678 L1759.94 135.678 Z" fill="#000000" fill-rule="nonzero" fill-opacity="1" /><path clip-path="url(#clip430)" d="M1779.71 126.21 L1783.97 126.21 L1783.97 162.229 L1779.71 162.229 L1779.71 126.21 Z" fill="#000000" fill-rule="nonzero" fill-opacity="1" /><path clip-path="url(#clip430)" d="M1804.67 149.196 Q1799.5 149.196 1797.51 150.377 Q1795.52 151.557 1795.52 154.405 Q1795.52 156.673 1797 158.016 Q1798.51 159.335 1801.08 159.335 Q1804.62 159.335 1806.75 156.835 Q1808.9 154.312 1808.9 150.145 L1808.9 149.196 L1804.67 149.196 M1813.16 147.437 L1813.16 162.229 L1808.9 162.229 L1808.9 158.293 Q1807.44 160.655 1805.27 161.789 Q1803.09 162.9 1799.94 162.9 Q1795.96 162.9 1793.6 160.678 Q1791.26 158.432 1791.26 154.682 Q1791.26 150.307 1794.18 148.085 Q1797.12 145.863 1802.93 145.863 L1808.9 145.863 L1808.9 145.446 Q1808.9 142.507 1806.96 140.909 Q1805.04 139.289 1801.54 139.289 Q1799.32 139.289 1797.21 139.821 Q1795.11 140.354 1793.16 141.419 L1793.16 137.483 Q1795.5 136.581 1797.7 136.141 Q1799.9 135.678 1801.98 135.678 Q1807.6 135.678 1810.38 138.594 Q1813.16 141.511 1813.16 147.437 Z" fill="#000000" fill-rule="nonzero" fill-opacity="1" /><path clip-path="url(#clip430)" d="M1826.15 128.942 L1826.15 136.303 L1834.92 136.303 L1834.92 139.613 L1826.15 139.613 L1826.15 153.687 Q1826.15 156.858 1827 157.761 Q1827.88 158.664 1830.54 158.664 L1834.92 158.664 L1834.92 162.229 L1830.54 162.229 Q1825.61 162.229 1823.74 160.4 Q1821.86 158.548 1821.86 153.687 L1821.86 139.613 L1818.74 139.613 L1818.74 136.303 L1821.86 136.303 L1821.86 128.942 L1826.15 128.942 Z" fill="#000000" fill-rule="nonzero" fill-opacity="1" /><path clip-path="url(#clip430)" d="M1840.52 136.303 L1844.78 136.303 L1844.78 162.229 L1840.52 162.229 L1840.52 136.303 M1840.52 126.21 L1844.78 126.21 L1844.78 131.604 L1840.52 131.604 L1840.52 126.21 Z" fill="#000000" fill-rule="nonzero" fill-opacity="1" /><path clip-path="url(#clip430)" d="M1863.74 139.289 Q1860.31 139.289 1858.32 141.974 Q1856.33 144.636 1856.33 149.289 Q1856.33 153.942 1858.3 156.627 Q1860.29 159.289 1863.74 159.289 Q1867.14 159.289 1869.13 156.604 Q1871.12 153.918 1871.12 149.289 Q1871.12 144.682 1869.13 141.997 Q1867.14 139.289 1863.74 139.289 M1863.74 135.678 Q1869.29 135.678 1872.47 139.289 Q1875.64 142.9 1875.64 149.289 Q1875.64 155.655 1872.47 159.289 Q1869.29 162.9 1863.74 162.9 Q1858.16 162.9 1854.99 159.289 Q1851.84 155.655 1851.84 149.289 Q1851.84 142.9 1854.99 139.289 Q1858.16 135.678 1863.74 135.678 Z" fill="#000000" fill-rule="nonzero" fill-opacity="1" /><path clip-path="url(#clip430)" d="M1904.25 146.581 L1904.25 162.229 L1899.99 162.229 L1899.99 146.719 Q1899.99 143.039 1898.55 141.21 Q1897.12 139.382 1894.25 139.382 Q1890.8 139.382 1888.81 141.581 Q1886.82 143.78 1886.82 147.576 L1886.82 162.229 L1882.54 162.229 L1882.54 136.303 L1886.82 136.303 L1886.82 140.331 Q1888.35 137.993 1890.41 136.835 Q1892.49 135.678 1895.2 135.678 Q1899.66 135.678 1901.96 138.456 Q1904.25 141.21 1904.25 146.581 Z" fill="#000000" fill-rule="nonzero" fill-opacity="1" /><path clip-path="url(#clip430)" d="M1931.93 158.34 L1931.93 172.09 L1927.65 172.09 L1927.65 136.303 L1931.93 136.303 L1931.93 140.238 Q1933.28 137.923 1935.31 136.812 Q1937.37 135.678 1940.22 135.678 Q1944.94 135.678 1947.88 139.428 Q1950.84 143.178 1950.84 149.289 Q1950.84 155.4 1947.88 159.15 Q1944.94 162.9 1940.22 162.9 Q1937.37 162.9 1935.31 161.789 Q1933.28 160.655 1931.93 158.34 M1946.42 149.289 Q1946.42 144.59 1944.48 141.928 Q1942.56 139.243 1939.18 139.243 Q1935.8 139.243 1933.85 141.928 Q1931.93 144.59 1931.93 149.289 Q1931.93 153.988 1933.85 156.673 Q1935.8 159.335 1939.18 159.335 Q1942.56 159.335 1944.48 156.673 Q1946.42 153.988 1946.42 149.289 Z" fill="#000000" fill-rule="nonzero" fill-opacity="1" /><path clip-path="url(#clip430)" d="M1969.69 149.196 Q1964.53 149.196 1962.53 150.377 Q1960.54 151.557 1960.54 154.405 Q1960.54 156.673 1962.03 158.016 Q1963.53 159.335 1966.1 159.335 Q1969.64 159.335 1971.77 156.835 Q1973.92 154.312 1973.92 150.145 L1973.92 149.196 L1969.69 149.196 M1978.18 147.437 L1978.18 162.229 L1973.92 162.229 L1973.92 158.293 Q1972.47 160.655 1970.29 161.789 Q1968.11 162.9 1964.97 162.9 Q1960.98 162.9 1958.62 160.678 Q1956.28 158.432 1956.28 154.682 Q1956.28 150.307 1959.2 148.085 Q1962.14 145.863 1967.95 145.863 L1973.92 145.863 L1973.92 145.446 Q1973.92 142.507 1971.98 140.909 Q1970.06 139.289 1966.56 139.289 Q1964.34 139.289 1962.23 139.821 Q1960.13 140.354 1958.18 141.419 L1958.18 137.483 Q1960.52 136.581 1962.72 136.141 Q1964.92 135.678 1967 135.678 Q1972.63 135.678 1975.41 138.594 Q1978.18 141.511 1978.18 147.437 Z" fill="#000000" fill-rule="nonzero" fill-opacity="1" /><path clip-path="url(#clip430)" d="M1991.17 128.942 L1991.17 136.303 L1999.94 136.303 L1999.94 139.613 L1991.17 139.613 L1991.17 153.687 Q1991.17 156.858 1992.03 157.761 Q1992.9 158.664 1995.57 158.664 L1999.94 158.664 L1999.94 162.229 L1995.57 162.229 Q1990.64 162.229 1988.76 160.4 Q1986.89 158.548 1986.89 153.687 L1986.89 139.613 L1983.76 139.613 L1983.76 136.303 L1986.89 136.303 L1986.89 128.942 L1991.17 128.942 Z" fill="#000000" fill-rule="nonzero" fill-opacity="1" /><path clip-path="url(#clip430)" d="M2005.54 136.303 L2009.8 136.303 L2009.8 162.229 L2005.54 162.229 L2005.54 136.303 M2005.54 126.21 L2009.8 126.21 L2009.8 131.604 L2005.54 131.604 L2005.54 126.21 Z" fill="#000000" fill-rule="nonzero" fill-opacity="1" /><path clip-path="url(#clip430)" d="M2040.89 148.201 L2040.89 150.284 L2021.31 150.284 Q2021.59 154.682 2023.95 156.997 Q2026.33 159.289 2030.57 159.289 Q2033.02 159.289 2035.31 158.687 Q2037.63 158.085 2039.9 156.881 L2039.9 160.909 Q2037.6 161.881 2035.2 162.391 Q2032.79 162.9 2030.31 162.9 Q2024.11 162.9 2020.47 159.289 Q2016.86 155.678 2016.86 149.52 Q2016.86 143.155 2020.29 139.428 Q2023.74 135.678 2029.57 135.678 Q2034.8 135.678 2037.84 139.057 Q2040.89 142.414 2040.89 148.201 M2036.63 146.951 Q2036.59 143.456 2034.66 141.372 Q2032.77 139.289 2029.62 139.289 Q2026.05 139.289 2023.9 141.303 Q2021.77 143.317 2021.45 146.974 L2036.63 146.951 Z" fill="#000000" fill-rule="nonzero" fill-opacity="1" /><path clip-path="url(#clip430)" d="M2069.43 146.581 L2069.43 162.229 L2065.17 162.229 L2065.17 146.719 Q2065.17 143.039 2063.74 141.21 Q2062.3 139.382 2059.43 139.382 Q2055.98 139.382 2053.99 141.581 Q2052 143.78 2052 147.576 L2052 162.229 L2047.72 162.229 L2047.72 136.303 L2052 136.303 L2052 140.331 Q2053.53 137.993 2055.59 136.835 Q2057.67 135.678 2060.38 135.678 Q2064.85 135.678 2067.14 138.456 Q2069.43 141.21 2069.43 146.581 Z" fill="#000000" fill-rule="nonzero" fill-opacity="1" /><path clip-path="url(#clip430)" d="M2082.14 128.942 L2082.14 136.303 L2090.91 136.303 L2090.91 139.613 L2082.14 139.613 L2082.14 153.687 Q2082.14 156.858 2083 157.761 Q2083.88 158.664 2086.54 158.664 L2090.91 158.664 L2090.91 162.229 L2086.54 162.229 Q2081.61 162.229 2079.73 160.4 Q2077.86 158.548 2077.86 153.687 L2077.86 139.613 L2074.73 139.613 L2074.73 136.303 L2077.86 136.303 L2077.86 128.942 L2082.14 128.942 Z" fill="#000000" fill-rule="nonzero" fill-opacity="1" /><path clip-path="url(#clip430)" d="M2133.14 146.581 L2133.14 162.229 L2128.88 162.229 L2128.88 146.719 Q2128.88 143.039 2127.44 141.21 Q2126.01 139.382 2123.14 139.382 Q2119.69 139.382 2117.7 141.581 Q2115.71 143.78 2115.71 147.576 L2115.71 162.229 L2111.42 162.229 L2111.42 136.303 L2115.71 136.303 L2115.71 140.331 Q2117.23 137.993 2119.29 136.835 Q2121.38 135.678 2124.08 135.678 Q2128.55 135.678 2130.84 138.456 Q2133.14 141.21 2133.14 146.581 Z" fill="#000000" fill-rule="nonzero" fill-opacity="1" /><path clip-path="url(#clip430)" d="M2143.04 158.293 L2150.68 158.293 L2150.68 131.928 L2142.37 133.595 L2142.37 129.335 L2150.64 127.669 L2155.31 127.669 L2155.31 158.293 L2162.95 158.293 L2162.95 162.229 L2143.04 162.229 L2143.04 158.293 Z" fill="#000000" fill-rule="nonzero" fill-opacity="1" /><path clip-path="url(#clip430)" d="M2186.56 143.594 Q2189.92 144.312 2191.79 146.581 Q2193.69 148.849 2193.69 152.182 Q2193.69 157.298 2190.17 160.099 Q2186.65 162.9 2180.17 162.9 Q2178 162.9 2175.68 162.46 Q2173.39 162.043 2170.94 161.187 L2170.94 156.673 Q2172.88 157.807 2175.2 158.386 Q2177.51 158.965 2180.03 158.965 Q2184.43 158.965 2186.72 157.229 Q2189.04 155.493 2189.04 152.182 Q2189.04 149.127 2186.89 147.414 Q2184.76 145.678 2180.94 145.678 L2176.91 145.678 L2176.91 141.835 L2181.12 141.835 Q2184.57 141.835 2186.4 140.469 Q2188.23 139.081 2188.23 136.488 Q2188.23 133.826 2186.33 132.414 Q2184.45 130.979 2180.94 130.979 Q2179.02 130.979 2176.82 131.395 Q2174.62 131.812 2171.98 132.692 L2171.98 128.525 Q2174.64 127.784 2176.95 127.414 Q2179.29 127.044 2181.35 127.044 Q2186.68 127.044 2189.78 129.474 Q2192.88 131.882 2192.88 136.002 Q2192.88 138.872 2191.24 140.863 Q2189.59 142.831 2186.56 143.594 Z" fill="#000000" fill-rule="nonzero" fill-opacity="1" /><path clip-path="url(#clip430)" d="M2215.4 131.743 L2203.6 150.192 L2215.4 150.192 L2215.4 131.743 M2214.18 127.669 L2220.06 127.669 L2220.06 150.192 L2224.99 150.192 L2224.99 154.081 L2220.06 154.081 L2220.06 162.229 L2215.4 162.229 L2215.4 154.081 L2199.8 154.081 L2199.8 149.567 L2214.18 127.669 Z" fill="#000000" fill-rule="nonzero" fill-opacity="1" /><path clip-path="url(#clip430)" d="M2245.57 131.743 L2233.76 150.192 L2245.57 150.192 L2245.57 131.743 M2244.34 127.669 L2250.22 127.669 L2250.22 150.192 L2255.15 150.192 L2255.15 154.081 L2250.22 154.081 L2250.22 162.229 L2245.57 162.229 L2245.57 154.081 L2229.96 154.081 L2229.96 149.567 L2244.34 127.669 Z" fill="#000000" fill-rule="nonzero" fill-opacity="1" /><circle clip-path="url(#clip430)" cx="1437.06" cy="196.789" r="20.48" fill="#e26f46" fill-rule="evenodd" fill-opacity="1" stroke="#000000" stroke-opacity="1" stroke-width="4.55111"/>
<path clip-path="url(#clip430)" d="M1539.34 183.351 L1539.34 210.226 L1544.99 210.226 Q1552.14 210.226 1555.45 206.985 Q1558.79 203.745 1558.79 196.754 Q1558.79 189.809 1555.45 186.592 Q1552.14 183.351 1544.99 183.351 L1539.34 183.351 M1534.67 179.509 L1544.27 179.509 Q1554.32 179.509 1559.02 183.698 Q1563.72 187.865 1563.72 196.754 Q1563.72 205.689 1559 209.879 Q1554.27 214.069 1544.27 214.069 L1534.67 214.069 L1534.67 179.509 Z" fill="#000000" fill-rule="nonzero" fill-opacity="1" /><path clip-path="url(#clip430)" d="M1582.77 201.036 Q1577.61 201.036 1575.62 202.217 Q1573.62 203.397 1573.62 206.245 Q1573.62 208.513 1575.11 209.856 Q1576.61 211.175 1579.18 211.175 Q1582.72 211.175 1584.85 208.675 Q1587 206.152 1587 201.985 L1587 201.036 L1582.77 201.036 M1591.26 199.277 L1591.26 214.069 L1587 214.069 L1587 210.133 Q1585.55 212.495 1583.37 213.629 Q1581.19 214.74 1578.05 214.74 Q1574.06 214.74 1571.7 212.518 Q1569.37 210.272 1569.37 206.522 Q1569.37 202.147 1572.28 199.925 Q1575.22 197.703 1581.03 197.703 L1587 197.703 L1587 197.286 Q1587 194.347 1585.06 192.749 Q1583.14 191.129 1579.64 191.129 Q1577.42 191.129 1575.31 191.661 Q1573.21 192.194 1571.26 193.259 L1571.26 189.323 Q1573.6 188.421 1575.8 187.981 Q1578 187.518 1580.08 187.518 Q1585.71 187.518 1588.49 190.434 Q1591.26 193.351 1591.26 199.277 Z" fill="#000000" fill-rule="nonzero" fill-opacity="1" /><path clip-path="url(#clip430)" d="M1604.25 180.782 L1604.25 188.143 L1613.02 188.143 L1613.02 191.453 L1604.25 191.453 L1604.25 205.527 Q1604.25 208.698 1605.11 209.601 Q1605.99 210.504 1608.65 210.504 L1613.02 210.504 L1613.02 214.069 L1608.65 214.069 Q1603.72 214.069 1601.84 212.24 Q1599.97 210.388 1599.97 205.527 L1599.97 191.453 L1596.84 191.453 L1596.84 188.143 L1599.97 188.143 L1599.97 180.782 L1604.25 180.782 Z" fill="#000000" fill-rule="nonzero" fill-opacity="1" /><path clip-path="url(#clip430)" d="M1630.41 201.036 Q1625.24 201.036 1623.25 202.217 Q1621.26 203.397 1621.26 206.245 Q1621.26 208.513 1622.74 209.856 Q1624.25 211.175 1626.82 211.175 Q1630.36 211.175 1632.49 208.675 Q1634.64 206.152 1634.64 201.985 L1634.64 201.036 L1630.41 201.036 M1638.9 199.277 L1638.9 214.069 L1634.64 214.069 L1634.64 210.133 Q1633.18 212.495 1631.01 213.629 Q1628.83 214.74 1625.68 214.74 Q1621.7 214.74 1619.34 212.518 Q1617 210.272 1617 206.522 Q1617 202.147 1619.92 199.925 Q1622.86 197.703 1628.67 197.703 L1634.64 197.703 L1634.64 197.286 Q1634.64 194.347 1632.7 192.749 Q1630.78 191.129 1627.28 191.129 Q1625.06 191.129 1622.95 191.661 Q1620.85 192.194 1618.9 193.259 L1618.9 189.323 Q1621.24 188.421 1623.44 187.981 Q1625.64 187.518 1627.72 187.518 Q1633.35 187.518 1636.12 190.434 Q1638.9 193.351 1638.9 199.277 Z" fill="#000000" fill-rule="nonzero" fill-opacity="1" /></svg>
