<?xml version="1.0" encoding="utf-8"?>
<svg xmlns="http://www.w3.org/2000/svg" xmlns:xlink="http://www.w3.org/1999/xlink" width="600" height="400" viewBox="0 0 2400 1600">
<defs>
  <clipPath id="clip450">
    <rect x="0" y="0" width="2400" height="1600"/>
  </clipPath>
</defs>
<path clip-path="url(#clip450)" d="M0 1600 L2400 1600 L2400 0 L0 0  Z" fill="#ffffff" fill-rule="evenodd" fill-opacity="1"/>
<defs>
  <clipPath id="clip451">
    <rect x="156" y="47" width="2197" height="1377"/>
  </clipPath>
</defs>
<path clip-path="url(#clip450)" d="M156.598 1423.18 L2352.76 1423.18 L2352.76 47.2441 L156.598 47.2441  Z" fill="#ffffff" fill-rule="evenodd" fill-opacity="1"/>
<polyline clip-path="url(#clip451)" style="stroke:#000000; stroke-linecap:round; stroke-linejoin:round; stroke-width:2; stroke-opacity:0.1; fill:none" points="156.598,1423.18 156.598,47.2441 "/>
<polyline clip-path="url(#clip451)" style="stroke:#000000; stroke-linecap:round; stroke-linejoin:round; stroke-width:2; stroke-opacity:0.1; fill:none" points="789.801,1423.18 789.801,47.2441 "/>
<polyline clip-path="url(#clip451)" style="stroke:#000000; stroke-linecap:round; stroke-linejoin:round; stroke-width:2; stroke-opacity:0.1; fill:none" points="1423,1423.18 1423,47.2441 "/>
<polyline clip-path="url(#clip451)" style="stroke:#000000; stroke-linecap:round; stroke-linejoin:round; stroke-width:2; stroke-opacity:0.1; fill:none" points="2056.21,1423.18 2056.21,47.2441 "/>
<polyline clip-path="url(#clip451)" style="stroke:#000000; stroke-linecap:round; stroke-linejoin:round; stroke-width:2; stroke-opacity:0.1; fill:none" points="156.598,1384.24 2352.76,1384.24 "/>
<polyline clip-path="url(#clip451)" style="stroke:#000000; stroke-linecap:round; stroke-linejoin:round; stroke-width:2; stroke-opacity:0.1; fill:none" points="156.598,1156.51 2352.76,1156.51 "/>
<polyline clip-path="url(#clip451)" style="stroke:#000000; stroke-linecap:round; stroke-linejoin:round; stroke-width:2; stroke-opacity:0.1; fill:none" points="156.598,928.781 2352.76,928.781 "/>
<polyline clip-path="url(#clip451)" style="stroke:#000000; stroke-linecap:round; stroke-linejoin:round; stroke-width:2; stroke-opacity:0.1; fill:none" points="156.598,701.053 2352.76,701.053 "/>
<polyline clip-path="url(#clip451)" style="stroke:#000000; stroke-linecap:round; stroke-linejoin:round; stroke-width:2; stroke-opacity:0.1; fill:none" points="156.598,473.324 2352.76,473.324 "/>
<polyline clip-path="url(#clip451)" style="stroke:#000000; stroke-linecap:round; stroke-linejoin:round; stroke-width:2; stroke-opacity:0.1; fill:none" points="156.598,245.596 2352.76,245.596 "/>
<polyline clip-path="url(#clip450)" style="stroke:#000000; stroke-linecap:round; stroke-linejoin:round; stroke-width:4; stroke-opacity:1; fill:none" points="156.598,1423.18 2352.76,1423.18 "/>
<polyline clip-path="url(#clip450)" style="stroke:#000000; stroke-linecap:round; stroke-linejoin:round; stroke-width:4; stroke-opacity:1; fill:none" points="156.598,1423.18 156.598,1404.28 "/>
<polyline clip-path="url(#clip450)" style="stroke:#000000; stroke-linecap:round; stroke-linejoin:round; stroke-width:4; stroke-opacity:1; fill:none" points="789.801,1423.18 789.801,1404.28 "/>
<polyline clip-path="url(#clip450)" style="stroke:#000000; stroke-linecap:round; stroke-linejoin:round; stroke-width:4; stroke-opacity:1; fill:none" points="1423,1423.18 1423,1404.28 "/>
<polyline clip-path="url(#clip450)" style="stroke:#000000; stroke-linecap:round; stroke-linejoin:round; stroke-width:4; stroke-opacity:1; fill:none" points="2056.21,1423.18 2056.21,1404.28 "/>
<path clip-path="url(#clip450)" d="M156.598 1454.1 Q152.987 1454.1 151.158 1457.66 Q149.353 1461.2 149.353 1468.33 Q149.353 1475.44 151.158 1479.01 Q152.987 1482.55 156.598 1482.55 Q160.232 1482.55 162.038 1479.01 Q163.867 1475.44 163.867 1468.33 Q163.867 1461.2 162.038 1457.66 Q160.232 1454.1 156.598 1454.1 M156.598 1450.39 Q162.408 1450.39 165.464 1455 Q168.543 1459.58 168.543 1468.33 Q168.543 1477.06 165.464 1481.67 Q162.408 1486.25 156.598 1486.25 Q150.788 1486.25 147.709 1481.67 Q144.654 1477.06 144.654 1468.33 Q144.654 1459.58 147.709 1455 Q150.788 1450.39 156.598 1450.39 Z" fill="#000000" fill-rule="nonzero" fill-opacity="1" /><path clip-path="url(#clip450)" d="M764.5 1451.02 L782.856 1451.02 L782.856 1454.96 L768.782 1454.96 L768.782 1463.43 Q769.801 1463.08 770.819 1462.92 Q771.838 1462.73 772.856 1462.73 Q778.643 1462.73 782.023 1465.9 Q785.403 1469.08 785.403 1474.49 Q785.403 1480.07 781.931 1483.17 Q778.458 1486.25 772.139 1486.25 Q769.963 1486.25 767.694 1485.88 Q765.449 1485.51 763.042 1484.77 L763.042 1480.07 Q765.125 1481.2 767.347 1481.76 Q769.569 1482.32 772.046 1482.32 Q776.051 1482.32 778.389 1480.21 Q780.727 1478.1 780.727 1474.49 Q780.727 1470.88 778.389 1468.77 Q776.051 1466.67 772.046 1466.67 Q770.171 1466.67 768.296 1467.08 Q766.444 1467.5 764.5 1468.38 L764.5 1451.02 Z" fill="#000000" fill-rule="nonzero" fill-opacity="1" /><path clip-path="url(#clip450)" d="M804.616 1454.1 Q801.004 1454.1 799.176 1457.66 Q797.37 1461.2 797.37 1468.33 Q797.37 1475.44 799.176 1479.01 Q801.004 1482.55 804.616 1482.55 Q808.25 1482.55 810.055 1479.01 Q811.884 1475.44 811.884 1468.33 Q811.884 1461.2 810.055 1457.66 Q808.25 1454.1 804.616 1454.1 M804.616 1450.39 Q810.426 1450.39 813.481 1455 Q816.56 1459.58 816.56 1468.33 Q816.56 1477.06 813.481 1481.67 Q810.426 1486.25 804.616 1486.25 Q798.805 1486.25 795.727 1481.67 Q792.671 1477.06 792.671 1468.33 Q792.671 1459.58 795.727 1455 Q798.805 1450.39 804.616 1450.39 Z" fill="#000000" fill-rule="nonzero" fill-opacity="1" /><path clip-path="url(#clip450)" d="M1382.61 1481.64 L1390.25 1481.64 L1390.25 1455.28 L1381.94 1456.95 L1381.94 1452.69 L1390.2 1451.02 L1394.88 1451.02 L1394.88 1481.64 L1402.52 1481.64 L1402.52 1485.58 L1382.61 1485.58 L1382.61 1481.64 Z" fill="#000000" fill-rule="nonzero" fill-opacity="1" /><path clip-path="url(#clip450)" d="M1421.96 1454.1 Q1418.35 1454.1 1416.52 1457.66 Q1414.72 1461.2 1414.72 1468.33 Q1414.72 1475.44 1416.52 1479.01 Q1418.35 1482.55 1421.96 1482.55 Q1425.6 1482.55 1427.4 1479.01 Q1429.23 1475.44 1429.23 1468.33 Q1429.23 1461.2 1427.4 1457.66 Q1425.6 1454.1 1421.96 1454.1 M1421.96 1450.39 Q1427.77 1450.39 1430.83 1455 Q1433.91 1459.58 1433.91 1468.33 Q1433.91 1477.06 1430.83 1481.67 Q1427.77 1486.25 1421.96 1486.25 Q1416.15 1486.25 1413.07 1481.67 Q1410.02 1477.06 1410.02 1468.33 Q1410.02 1459.58 1413.07 1455 Q1416.15 1450.39 1421.96 1450.39 Z" fill="#000000" fill-rule="nonzero" fill-opacity="1" /><path clip-path="url(#clip450)" d="M1452.12 1454.1 Q1448.51 1454.1 1446.68 1457.66 Q1444.88 1461.2 1444.88 1468.33 Q1444.88 1475.44 1446.68 1479.01 Q1448.51 1482.55 1452.12 1482.55 Q1455.76 1482.55 1457.56 1479.01 Q1459.39 1475.44 1459.39 1468.33 Q1459.39 1461.2 1457.56 1457.66 Q1455.76 1454.1 1452.12 1454.1 M1452.12 1450.39 Q1457.93 1450.39 1460.99 1455 Q1464.07 1459.58 1464.07 1468.33 Q1464.07 1477.06 1460.99 1481.67 Q1457.93 1486.25 1452.12 1486.25 Q1446.31 1486.25 1443.23 1481.67 Q1440.18 1477.06 1440.18 1468.33 Q1440.18 1459.58 1443.23 1455 Q1446.31 1450.39 1452.12 1450.39 Z" fill="#000000" fill-rule="nonzero" fill-opacity="1" /><path clip-path="url(#clip450)" d="M2015.81 1481.64 L2023.45 1481.64 L2023.45 1455.28 L2015.14 1456.95 L2015.14 1452.69 L2023.41 1451.02 L2028.08 1451.02 L2028.08 1481.64 L2035.72 1481.64 L2035.72 1485.58 L2015.81 1485.58 L2015.81 1481.64 Z" fill="#000000" fill-rule="nonzero" fill-opacity="1" /><path clip-path="url(#clip450)" d="M2045.21 1451.02 L2063.57 1451.02 L2063.57 1454.96 L2049.49 1454.96 L2049.49 1463.43 Q2050.51 1463.08 2051.53 1462.92 Q2052.55 1462.73 2053.57 1462.73 Q2059.35 1462.73 2062.73 1465.9 Q2066.11 1469.08 2066.11 1474.49 Q2066.11 1480.07 2062.64 1483.17 Q2059.17 1486.25 2052.85 1486.25 Q2050.67 1486.25 2048.41 1485.88 Q2046.16 1485.51 2043.75 1484.77 L2043.75 1480.07 Q2045.84 1481.2 2048.06 1481.76 Q2050.28 1482.32 2052.76 1482.32 Q2056.76 1482.32 2059.1 1480.21 Q2061.44 1478.1 2061.44 1474.49 Q2061.44 1470.88 2059.1 1468.77 Q2056.76 1466.67 2052.76 1466.67 Q2050.88 1466.67 2049.01 1467.08 Q2047.16 1467.5 2045.21 1468.38 L2045.21 1451.02 Z" fill="#000000" fill-rule="nonzero" fill-opacity="1" /><path clip-path="url(#clip450)" d="M2085.33 1454.1 Q2081.72 1454.1 2079.89 1457.66 Q2078.08 1461.2 2078.08 1468.33 Q2078.08 1475.44 2079.89 1479.01 Q2081.72 1482.55 2085.33 1482.55 Q2088.96 1482.55 2090.77 1479.01 Q2092.59 1475.44 2092.59 1468.33 Q2092.59 1461.2 2090.77 1457.66 Q2088.96 1454.1 2085.33 1454.1 M2085.33 1450.39 Q2091.14 1450.39 2094.19 1455 Q2097.27 1459.58 2097.27 1468.33 Q2097.27 1477.06 2094.19 1481.67 Q2091.14 1486.25 2085.33 1486.25 Q2079.52 1486.25 2076.44 1481.67 Q2073.38 1477.06 2073.38 1468.33 Q2073.38 1459.58 2076.44 1455 Q2079.52 1450.39 2085.33 1450.39 Z" fill="#000000" fill-rule="nonzero" fill-opacity="1" /><path clip-path="url(#clip450)" d="M1253.74 1522.27 L1253.74 1532.4 L1265.8 1532.4 L1265.8 1536.95 L1253.74 1536.95 L1253.74 1556.3 Q1253.74 1560.66 1254.92 1561.9 Q1256.13 1563.14 1259.79 1563.14 L1265.8 1563.14 L1265.8 1568.04 L1259.79 1568.04 Q1253.01 1568.04 1250.43 1565.53 Q1247.85 1562.98 1247.85 1556.3 L1247.85 1536.95 L1243.55 1536.95 L1243.55 1532.4 L1247.85 1532.4 L1247.85 1522.27 L1253.74 1522.27 Z" fill="#000000" fill-rule="nonzero" fill-opacity="1" /><polyline clip-path="url(#clip450)" style="stroke:#000000; stroke-linecap:round; stroke-linejoin:round; stroke-width:4; stroke-opacity:1; fill:none" points="156.598,1423.18 156.598,47.2441 "/>
<polyline clip-path="url(#clip450)" style="stroke:#000000; stroke-linecap:round; stroke-linejoin:round; stroke-width:4; stroke-opacity:1; fill:none" points="156.598,1384.24 175.496,1384.24 "/>
<polyline clip-path="url(#clip450)" style="stroke:#000000; stroke-linecap:round; stroke-linejoin:round; stroke-width:4; stroke-opacity:1; fill:none" points="156.598,1156.51 175.496,1156.51 "/>
<polyline clip-path="url(#clip450)" style="stroke:#000000; stroke-linecap:round; stroke-linejoin:round; stroke-width:4; stroke-opacity:1; fill:none" points="156.598,928.781 175.496,928.781 "/>
<polyline clip-path="url(#clip450)" style="stroke:#000000; stroke-linecap:round; stroke-linejoin:round; stroke-width:4; stroke-opacity:1; fill:none" points="156.598,701.053 175.496,701.053 "/>
<polyline clip-path="url(#clip450)" style="stroke:#000000; stroke-linecap:round; stroke-linejoin:round; stroke-width:4; stroke-opacity:1; fill:none" points="156.598,473.324 175.496,473.324 "/>
<polyline clip-path="url(#clip450)" style="stroke:#000000; stroke-linecap:round; stroke-linejoin:round; stroke-width:4; stroke-opacity:1; fill:none" points="156.598,245.596 175.496,245.596 "/>
<path clip-path="url(#clip450)" d="M63.4226 1370.04 Q59.8115 1370.04 57.9828 1373.6 Q56.1773 1377.14 56.1773 1384.27 Q56.1773 1391.38 57.9828 1394.94 Q59.8115 1398.49 63.4226 1398.49 Q67.0569 1398.49 68.8624 1394.94 Q70.6911 1391.38 70.6911 1384.27 Q70.6911 1377.14 68.8624 1373.6 Q67.0569 1370.04 63.4226 1370.04 M63.4226 1366.33 Q69.2328 1366.33 72.2883 1370.94 Q75.367 1375.52 75.367 1384.27 Q75.367 1393 72.2883 1397.61 Q69.2328 1402.19 63.4226 1402.19 Q57.6125 1402.19 54.5338 1397.61 Q51.4782 1393 51.4782 1384.27 Q51.4782 1375.52 54.5338 1370.94 Q57.6125 1366.33 63.4226 1366.33 Z" fill="#000000" fill-rule="nonzero" fill-opacity="1" /><path clip-path="url(#clip450)" d="M83.5845 1395.64 L88.4688 1395.64 L88.4688 1401.52 L83.5845 1401.52 L83.5845 1395.64 Z" fill="#000000" fill-rule="nonzero" fill-opacity="1" /><path clip-path="url(#clip450)" d="M108.654 1370.04 Q105.043 1370.04 103.214 1373.6 Q101.409 1377.14 101.409 1384.27 Q101.409 1391.38 103.214 1394.94 Q105.043 1398.49 108.654 1398.49 Q112.288 1398.49 114.094 1394.94 Q115.922 1391.38 115.922 1384.27 Q115.922 1377.14 114.094 1373.6 Q112.288 1370.04 108.654 1370.04 M108.654 1366.33 Q114.464 1366.33 117.52 1370.94 Q120.598 1375.52 120.598 1384.27 Q120.598 1393 117.52 1397.61 Q114.464 1402.19 108.654 1402.19 Q102.844 1402.19 99.765 1397.61 Q96.7095 1393 96.7095 1384.27 Q96.7095 1375.52 99.765 1370.94 Q102.844 1366.33 108.654 1366.33 Z" fill="#000000" fill-rule="nonzero" fill-opacity="1" /><path clip-path="url(#clip450)" d="M64.6495 1142.31 Q61.0384 1142.31 59.2097 1145.87 Q57.4041 1149.41 57.4041 1156.54 Q57.4041 1163.65 59.2097 1167.22 Q61.0384 1170.76 64.6495 1170.76 Q68.2837 1170.76 70.0892 1167.22 Q71.9179 1163.65 71.9179 1156.54 Q71.9179 1149.41 70.0892 1145.87 Q68.2837 1142.31 64.6495 1142.31 M64.6495 1138.6 Q70.4596 1138.6 73.5152 1143.21 Q76.5938 1147.79 76.5938 1156.54 Q76.5938 1165.27 73.5152 1169.88 Q70.4596 1174.46 64.6495 1174.46 Q58.8393 1174.46 55.7606 1169.88 Q52.7051 1165.27 52.7051 1156.54 Q52.7051 1147.79 55.7606 1143.21 Q58.8393 1138.6 64.6495 1138.6 Z" fill="#000000" fill-rule="nonzero" fill-opacity="1" /><path clip-path="url(#clip450)" d="M84.8114 1167.91 L89.6956 1167.91 L89.6956 1173.79 L84.8114 1173.79 L84.8114 1167.91 Z" fill="#000000" fill-rule="nonzero" fill-opacity="1" /><path clip-path="url(#clip450)" d="M100.691 1169.85 L108.33 1169.85 L108.33 1143.49 L100.02 1145.16 L100.02 1140.9 L108.283 1139.23 L112.959 1139.23 L112.959 1169.85 L120.598 1169.85 L120.598 1173.79 L100.691 1173.79 L100.691 1169.85 Z" fill="#000000" fill-rule="nonzero" fill-opacity="1" /><path clip-path="url(#clip450)" d="M65.0198 914.58 Q61.4087 914.58 59.58 918.145 Q57.7745 921.686 57.7745 928.816 Q57.7745 935.922 59.58 939.487 Q61.4087 943.029 65.0198 943.029 Q68.6541 943.029 70.4596 939.487 Q72.2883 935.922 72.2883 928.816 Q72.2883 921.686 70.4596 918.145 Q68.6541 914.58 65.0198 914.58 M65.0198 910.876 Q70.83 910.876 73.8855 915.483 Q76.9642 920.066 76.9642 928.816 Q76.9642 937.543 73.8855 942.149 Q70.83 946.733 65.0198 946.733 Q59.2097 946.733 56.131 942.149 Q53.0754 937.543 53.0754 928.816 Q53.0754 920.066 56.131 915.483 Q59.2097 910.876 65.0198 910.876 Z" fill="#000000" fill-rule="nonzero" fill-opacity="1" /><path clip-path="url(#clip450)" d="M85.1818 940.182 L90.066 940.182 L90.066 946.061 L85.1818 946.061 L85.1818 940.182 Z" fill="#000000" fill-rule="nonzero" fill-opacity="1" /><path clip-path="url(#clip450)" d="M104.279 942.126 L120.598 942.126 L120.598 946.061 L98.6539 946.061 L98.6539 942.126 Q101.316 939.371 105.899 934.742 Q110.506 930.089 111.686 928.746 Q113.932 926.223 114.811 924.487 Q115.714 922.728 115.714 921.038 Q115.714 918.284 113.77 916.547 Q111.848 914.811 108.746 914.811 Q106.547 914.811 104.094 915.575 Q101.663 916.339 98.8854 917.89 L98.8854 913.168 Q101.709 912.034 104.163 911.455 Q106.617 910.876 108.654 910.876 Q114.024 910.876 117.219 913.561 Q120.413 916.247 120.413 920.737 Q120.413 922.867 119.603 924.788 Q118.816 926.686 116.709 929.279 Q116.131 929.95 113.029 933.168 Q109.927 936.362 104.279 942.126 Z" fill="#000000" fill-rule="nonzero" fill-opacity="1" /><path clip-path="url(#clip450)" d="M64.0708 686.851 Q60.4597 686.851 58.631 690.416 Q56.8254 693.958 56.8254 701.087 Q56.8254 708.194 58.631 711.759 Q60.4597 715.3 64.0708 715.3 Q67.705 715.3 69.5105 711.759 Q71.3392 708.194 71.3392 701.087 Q71.3392 693.958 69.5105 690.416 Q67.705 686.851 64.0708 686.851 M64.0708 683.148 Q69.8809 683.148 72.9365 687.754 Q76.0151 692.337 76.0151 701.087 Q76.0151 709.814 72.9365 714.421 Q69.8809 719.004 64.0708 719.004 Q58.2606 719.004 55.1819 714.421 Q52.1264 709.814 52.1264 701.087 Q52.1264 692.337 55.1819 687.754 Q58.2606 683.148 64.0708 683.148 Z" fill="#000000" fill-rule="nonzero" fill-opacity="1" /><path clip-path="url(#clip450)" d="M84.2327 712.453 L89.1169 712.453 L89.1169 718.333 L84.2327 718.333 L84.2327 712.453 Z" fill="#000000" fill-rule="nonzero" fill-opacity="1" /><path clip-path="url(#clip450)" d="M113.469 699.699 Q116.825 700.416 118.7 702.685 Q120.598 704.953 120.598 708.286 Q120.598 713.402 117.08 716.203 Q113.561 719.004 107.08 719.004 Q104.904 719.004 102.589 718.564 Q100.297 718.148 97.8437 717.291 L97.8437 712.777 Q99.7882 713.911 102.103 714.49 Q104.418 715.069 106.941 715.069 Q111.339 715.069 113.631 713.333 Q115.945 711.597 115.945 708.286 Q115.945 705.231 113.793 703.518 Q111.663 701.782 107.844 701.782 L103.816 701.782 L103.816 697.939 L108.029 697.939 Q111.478 697.939 113.307 696.574 Q115.135 695.185 115.135 692.592 Q115.135 689.93 113.237 688.518 Q111.362 687.083 107.844 687.083 Q105.922 687.083 103.723 687.5 Q101.524 687.916 98.8854 688.796 L98.8854 684.629 Q101.547 683.888 103.862 683.518 Q106.2 683.148 108.26 683.148 Q113.584 683.148 116.686 685.578 Q119.788 687.986 119.788 692.106 Q119.788 694.976 118.145 696.967 Q116.501 698.935 113.469 699.699 Z" fill="#000000" fill-rule="nonzero" fill-opacity="1" /><path clip-path="url(#clip450)" d="M62.9365 459.123 Q59.3254 459.123 57.4967 462.688 Q55.6912 466.229 55.6912 473.359 Q55.6912 480.465 57.4967 484.03 Q59.3254 487.572 62.9365 487.572 Q66.5707 487.572 68.3763 484.03 Q70.205 480.465 70.205 473.359 Q70.205 466.229 68.3763 462.688 Q66.5707 459.123 62.9365 459.123 M62.9365 455.419 Q68.7467 455.419 71.8022 460.026 Q74.8809 464.609 74.8809 473.359 Q74.8809 482.086 71.8022 486.692 Q68.7467 491.275 62.9365 491.275 Q57.1264 491.275 54.0477 486.692 Q50.9921 482.086 50.9921 473.359 Q50.9921 464.609 54.0477 460.026 Q57.1264 455.419 62.9365 455.419 Z" fill="#000000" fill-rule="nonzero" fill-opacity="1" /><path clip-path="url(#clip450)" d="M83.0984 484.725 L87.9827 484.725 L87.9827 490.604 L83.0984 490.604 L83.0984 484.725 Z" fill="#000000" fill-rule="nonzero" fill-opacity="1" /><path clip-path="url(#clip450)" d="M111.015 460.118 L99.2095 478.567 L111.015 478.567 L111.015 460.118 M109.788 456.044 L115.668 456.044 L115.668 478.567 L120.598 478.567 L120.598 482.456 L115.668 482.456 L115.668 490.604 L111.015 490.604 L111.015 482.456 L95.4132 482.456 L95.4132 477.942 L109.788 456.044 Z" fill="#000000" fill-rule="nonzero" fill-opacity="1" /><path clip-path="url(#clip450)" d="M64.418 231.394 Q60.8069 231.394 58.9782 234.959 Q57.1726 238.501 57.1726 245.63 Q57.1726 252.737 58.9782 256.302 Q60.8069 259.843 64.418 259.843 Q68.0522 259.843 69.8578 256.302 Q71.6865 252.737 71.6865 245.63 Q71.6865 238.501 69.8578 234.959 Q68.0522 231.394 64.418 231.394 M64.418 227.691 Q70.2281 227.691 73.2837 232.297 Q76.3624 236.88 76.3624 245.63 Q76.3624 254.357 73.2837 258.964 Q70.2281 263.547 64.418 263.547 Q58.6078 263.547 55.5291 258.964 Q52.4736 254.357 52.4736 245.63 Q52.4736 236.88 55.5291 232.297 Q58.6078 227.691 64.418 227.691 Z" fill="#000000" fill-rule="nonzero" fill-opacity="1" /><path clip-path="url(#clip450)" d="M84.5799 256.996 L89.4641 256.996 L89.4641 262.876 L84.5799 262.876 L84.5799 256.996 Z" fill="#000000" fill-rule="nonzero" fill-opacity="1" /><path clip-path="url(#clip450)" d="M99.6956 228.316 L118.052 228.316 L118.052 232.251 L103.978 232.251 L103.978 240.723 Q104.996 240.376 106.015 240.214 Q107.033 240.029 108.052 240.029 Q113.839 240.029 117.219 243.2 Q120.598 246.371 120.598 251.788 Q120.598 257.366 117.126 260.468 Q113.654 263.547 107.334 263.547 Q105.159 263.547 102.89 263.177 Q100.645 262.806 98.2372 262.065 L98.2372 257.366 Q100.321 258.501 102.543 259.056 Q104.765 259.612 107.242 259.612 Q111.246 259.612 113.584 257.505 Q115.922 255.399 115.922 251.788 Q115.922 248.177 113.584 246.07 Q111.246 243.964 107.242 243.964 Q105.367 243.964 103.492 244.38 Q101.64 244.797 99.6956 245.677 L99.6956 228.316 Z" fill="#000000" fill-rule="nonzero" fill-opacity="1" /><polyline clip-path="url(#clip451)" style="stroke:#009af9; stroke-linecap:round; stroke-linejoin:round; stroke-width:4; stroke-opacity:1; fill:none" points="156.598,1384.24 158.4,1371.49 160.201,1358.92 162.003,1346.53 163.805,1334.32 165.606,1322.29 167.408,1310.43 169.209,1298.74 171.011,1287.22 172.813,1275.87 174.614,1264.68 176.416,1253.66 178.218,1242.8 180.019,1232.09 181.821,1221.55 183.622,1211.16 185.424,1200.92 187.226,1190.83 189.027,1180.9 190.829,1171.11 192.63,1161.46 194.432,1151.96 196.234,1142.61 198.035,1133.39 199.837,1124.31 201.638,1115.37 203.44,1106.56 205.242,1097.88 207.043,1089.34 208.845,1080.93 210.646,1072.64 212.448,1064.48 214.25,1056.45 216.051,1048.54 217.853,1040.75 219.654,1033.08 221.456,1025.53 223.258,1018.1 225.059,1010.79 226.861,1003.58 228.662,996.496 230.464,989.518 232.266,982.651 234.067,975.892 235.869,969.24 237.671,962.694 239.472,956.253 241.274,949.915 243.075,943.679 244.877,937.543 246.679,931.507 248.48,925.569 250.282,919.727 252.083,913.981 253.885,908.329 255.687,902.771 257.488,897.304 259.29,891.928 261.091,886.641 262.893,881.443 264.695,876.333 266.496,871.308 268.298,866.369 270.099,861.513 271.901,856.74 273.703,852.05 275.504,847.439 277.306,842.909 279.107,838.457 280.909,834.083 282.711,829.786 284.512,825.565 286.314,821.418 288.115,817.344 289.917,813.344 291.719,809.415 293.52,805.558 295.322,801.77 297.123,798.051 298.925,794.401 300.727,790.818 302.528,787.301 304.33,783.85 306.132,780.463 307.933,777.14 309.735,773.881 311.536,770.683 313.338,767.547 315.14,764.471 316.941,761.455 318.743,758.498 320.544,755.6 322.346,752.759 324.148,749.974 325.949,747.245 327.751,744.572 329.552,741.953 331.354,739.388 333.156,736.875 334.957,734.415 336.759,732.007 338.56,729.65 340.362,727.343 342.164,725.085 343.965,722.877 345.767,720.716 347.568,718.604 349.37,716.538 351.172,714.519 352.973,712.545 354.775,710.617 356.576,708.733 358.378,706.893 360.18,705.096 361.981,703.342 363.783,701.63 365.585,699.96 367.386,698.33 369.188,696.742 370.989,695.193 372.791,693.683 374.593,692.212 376.394,690.78 378.196,689.385 379.997,688.027 381.799,686.706 383.601,685.422 385.402,684.173 387.204,682.959 389.005,681.78 390.807,680.635 392.609,679.524 394.41,678.447 396.212,677.402 398.013,676.389 399.815,675.409 401.617,674.459 403.418,673.541 405.22,672.654 407.021,671.796 408.823,670.968 410.625,670.17 412.426,669.4 414.228,668.659 416.029,667.946 417.831,667.26 419.633,666.602 421.434,665.97 423.236,665.365 425.038,664.786 426.839,664.232 428.641,663.704 430.442,663.201 432.244,662.722 434.046,662.268 435.847,661.837 437.649,661.43 439.45,661.046 441.252,660.685 443.054,660.346 444.855,660.029 446.657,659.734 448.458,659.461 450.26,659.208 452.062,658.976 453.863,658.765 455.665,658.574 457.466,658.403 459.268,658.251 461.07,658.118 462.871,658.004 464.673,657.909 466.474,657.832 468.276,657.773 470.078,657.732 471.879,657.709 473.681,657.702 475.482,657.712 477.284,657.739 479.086,657.783 480.887,657.842 482.689,657.917 484.491,658.008 486.292,658.113 488.094,658.234 489.895,658.37 491.697,658.52 493.499,658.684 495.3,658.863 497.102,659.055 498.903,659.261 500.705,659.479 502.507,659.711 504.308,659.956 506.11,660.214 507.911,660.483 509.713,660.765 511.515,661.059 513.316,661.364 515.118,661.681 516.919,662.009 518.721,662.348 520.523,662.698 522.324,663.059 524.126,663.429 525.927,663.811 527.729,664.202 529.531,664.603 531.332,665.013 533.134,665.433 534.935,665.862 536.737,666.3 538.539,666.747 540.34,667.203 542.142,667.667 543.944,668.139 545.745,668.62 547.547,669.108 549.348,669.604 551.15,670.108 552.952,670.619 554.753,671.137 556.555,671.662 558.356,672.194 560.158,672.733 561.96,673.278 563.761,673.83 565.563,674.388 567.364,674.952 569.166,675.522 570.968,676.097 572.769,676.678 574.571,677.265 576.372,677.857 578.174,678.454 579.976,679.056 581.777,679.662 583.579,680.274 585.38,680.89 587.182,681.51 588.984,682.135 590.785,682.763 592.587,683.396 594.388,684.032 596.19,684.673 597.992,685.316 599.793,685.963 601.595,686.614 603.397,687.267 605.198,687.924 607,688.583 608.801,689.246 610.603,689.911 612.405,690.578 614.206,691.248 616.008,691.92 617.809,692.594 619.611,693.27 621.413,693.949 623.214,694.629 625.016,695.31 626.817,695.993 628.619,696.678 630.421,697.364 632.222,698.051 634.024,698.739 635.825,699.429 637.627,700.119 639.429,700.81 641.23,701.501 643.032,702.194 644.833,702.886 646.635,703.579 648.437,704.273 650.238,704.966 652.04,705.659 653.841,706.353 655.643,707.046 657.445,707.739 659.246,708.431 661.048,709.124 662.85,709.815 664.651,710.506 666.453,711.196 668.254,711.886 670.056,712.574 671.858,713.261 673.659,713.948 675.461,714.633 677.262,715.317 679.064,715.999 680.866,716.68 682.667,717.359 684.469,718.037 686.27,718.713 688.072,719.387 689.874,720.06 691.675,720.73 693.477,721.398 695.278,722.064 697.08,722.728 698.882,723.389 700.683,724.049 702.485,724.705 704.286,725.359 706.088,726.011 707.89,726.659 709.691,727.305 711.493,727.948 713.294,728.589 715.096,729.226 716.898,729.86 718.699,730.491 720.501,731.118 722.303,731.742 724.104,732.363 725.906,732.981 727.707,733.595 729.509,734.205 731.311,734.812 733.112,735.415 734.914,736.014 736.715,736.609 738.517,737.2 740.319,737.787 742.12,738.371 743.922,738.95 745.723,739.524 747.525,740.095 749.327,740.661 751.128,741.223 752.93,741.78 754.731,742.333 756.533,742.881 758.335,743.425 760.136,743.964 761.938,744.498 763.739,745.027 765.541,745.552 767.343,746.071 769.144,746.585 770.946,747.095 772.747,747.599 774.549,748.098 776.351,748.592 778.152,749.08 779.954,749.563 781.756,750.041 783.557,750.513 785.359,750.98 787.16,751.441 788.962,751.897 790.764,752.347 792.565,752.791 794.367,753.229 796.168,753.662 797.97,754.088 799.772,754.509 801.573,754.924 803.375,755.332 805.176,755.735 806.978,756.131 808.78,756.522 810.581,756.906 812.383,757.283 814.184,757.655 815.986,758.02 817.788,758.378 819.589,758.731 821.391,759.076 823.192,759.415 824.994,759.748 826.796,760.074 828.597,760.393 830.399,760.706 832.2,761.011 834.002,761.31 835.804,761.602 837.605,761.887 839.407,762.166 841.209,762.437 843.01,762.701 844.812,762.958 846.613,763.208 848.415,763.451 850.217,763.687 852.018,763.916 853.82,764.137 855.621,764.351 857.423,764.558 859.225,764.757 861.026,764.949 862.828,765.134 864.629,765.311 866.431,765.48 868.233,765.642 870.034,765.797 871.836,765.944 873.637,766.083 875.439,766.215 877.241,766.338 879.042,766.455 880.844,766.563 882.645,766.664 884.447,766.757 886.249,766.842 888.05,766.919 889.852,766.988 891.653,767.049 893.455,767.103 895.257,767.148 897.058,767.185 898.86,767.214 900.661,767.236 902.463,767.249 904.265,767.254 906.066,767.251 907.868,767.239 909.67,767.22 911.471,767.192 913.273,767.156 915.074,767.112 916.876,767.06 918.678,766.999 920.479,766.93 922.281,766.852 924.082,766.767 925.884,766.672 927.686,766.57 929.487,766.459 931.289,766.339 933.09,766.212 934.892,766.075 936.694,765.93 938.495,765.777 940.297,765.615 942.098,765.445 943.9,765.266 945.702,765.078 947.503,764.882 949.305,764.677 951.106,764.464 952.908,764.242 954.71,764.011 956.511,763.772 958.313,763.524 960.114,763.268 961.916,763.002 963.718,762.728 965.519,762.446 967.321,762.154 969.123,761.854 970.924,761.546 972.726,761.228 974.527,760.902 976.329,760.567 978.131,760.223 979.932,759.87 981.734,759.509 983.535,759.139 985.337,758.76 987.139,758.373 988.94,757.976 990.742,757.571 992.543,757.157 994.345,756.735 996.147,756.303 997.948,755.863 999.75,755.414 1001.55,754.956 1003.35,754.489 1005.15,754.014 1006.96,753.53 1008.76,753.037 1010.56,752.535 1012.36,752.025 1014.16,751.505 1015.96,750.977 1017.77,750.44 1019.57,749.895 1021.37,749.341 1023.17,748.778 1024.97,748.206 1026.77,747.625 1028.58,747.036 1030.38,746.438 1032.18,745.832 1033.98,745.216 1035.78,744.592 1037.58,743.96 1039.39,743.319 1041.19,742.669 1042.99,742.01 1044.79,741.343 1046.59,740.667 1048.39,739.983 1050.19,739.29 1052,738.588 1053.8,737.878 1055.6,737.16 1057.4,736.433 1059.2,735.697 1061,734.953 1062.81,734.201 1064.61,733.44 1066.41,732.671 1068.21,731.893 1070.01,731.107 1071.81,730.312 1073.62,729.509 1075.42,728.698 1077.22,727.879 1079.02,727.051 1080.82,726.215 1082.62,725.371 1084.43,724.519 1086.23,723.658 1088.03,722.79 1089.83,721.913 1091.63,721.028 1093.43,720.135 1095.23,719.234 1097.04,718.325 1098.84,717.408 1100.64,716.483 1102.44,715.551 1104.24,714.61 1106.04,713.661 1107.85,712.705 1109.65,711.741 1111.45,710.769 1113.25,709.789 1115.05,708.802 1116.85,707.807 1118.66,706.804 1120.46,705.794 1122.26,704.776 1124.06,703.751 1125.86,702.718 1127.66,701.678 1129.47,700.63 1131.27,699.575 1133.07,698.513 1134.87,697.444 1136.67,696.367 1138.47,695.283 1140.28,694.192 1142.08,693.093 1143.88,691.988 1145.68,690.875 1147.48,689.756 1149.28,688.63 1151.08,687.496 1152.89,686.356 1154.69,685.209 1156.49,684.056 1158.29,682.895 1160.09,681.728 1161.89,680.554 1163.7,679.374 1165.5,678.187 1167.3,676.994 1169.1,675.794 1170.9,674.588 1172.7,673.375 1174.51,672.156 1176.31,670.931 1178.11,669.7 1179.91,668.462 1181.71,667.219 1183.51,665.969 1185.32,664.714 1187.12,663.453 1188.92,662.185 1190.72,660.912 1192.52,659.633 1194.32,658.349 1196.12,657.059 1197.93,655.763 1199.73,654.461 1201.53,653.155 1203.33,651.842 1205.13,650.525 1206.93,649.202 1208.74,647.874 1210.54,646.54 1212.34,645.202 1214.14,643.858 1215.94,642.51 1217.74,641.156 1219.55,639.798 1221.35,638.435 1223.15,637.067 1224.95,635.694 1226.75,634.317 1228.55,632.935 1230.36,631.549 1232.16,630.158 1233.96,628.763 1235.76,627.363 1237.56,625.959 1239.36,624.551 1241.17,623.139 1242.97,621.723 1244.77,620.303 1246.57,618.879 1248.37,617.451 1250.17,616.019 1251.97,614.584 1253.78,613.145 1255.58,611.702 1257.38,610.256 1259.18,608.806 1260.98,607.353 1262.78,605.897 1264.59,604.437 1266.39,602.974 1268.19,601.508 1269.99,600.039 1271.79,598.567 1273.59,597.093 1275.4,595.615 1277.2,594.135 1279,592.652 1280.8,591.166 1282.6,589.678 1284.4,588.187 1286.21,586.694 1288.01,585.198 1289.81,583.701 1291.61,582.201 1293.41,580.699 1295.21,579.195 1297.01,577.689 1298.82,576.181 1300.62,574.672 1302.42,573.16 1304.22,571.647 1306.02,570.133 1307.82,568.616 1309.63,567.099 1311.43,565.58 1313.23,564.06 1315.03,562.538 1316.83,561.015 1318.63,559.492 1320.44,557.967 1322.24,556.441 1324.04,554.915 1325.84,553.388 1327.64,551.86 1329.44,550.331 1331.25,548.802 1333.05,547.273 1334.85,545.743 1336.65,544.212 1338.45,542.682 1340.25,541.151 1342.05,539.62 1343.86,538.089 1345.66,536.559 1347.46,535.028 1349.26,533.497 1351.06,531.967 1352.86,530.437 1354.67,528.908 1356.47,527.379 1358.27,525.851 1360.07,524.323 1361.87,522.796 1363.67,521.27 1365.48,519.745 1367.28,518.221 1369.08,516.697 1370.88,515.175 1372.68,513.654 1374.48,512.135 1376.29,510.616 1378.09,509.099 1379.89,507.584 1381.69,506.07 1383.49,504.557 1385.29,503.047 1387.1,501.538 1388.9,500.031 1390.7,498.526 1392.5,497.023 1394.3,495.522 1396.1,494.023 1397.9,492.526 1399.71,491.031 1401.51,489.539 1403.31,488.05 1405.11,486.562 1406.91,485.078 1408.71,483.596 1410.52,482.116 1412.32,480.64 1414.12,479.166 1415.92,477.696 1417.72,476.228 1419.52,474.763 1421.33,473.301 1423.13,471.843 1424.93,470.388 1426.73,468.936 1428.53,467.488 1430.33,466.043 1432.14,464.601 1433.94,463.163 1435.74,461.729 1437.54,460.299 1439.34,458.872 1441.14,457.449 1442.94,456.031 1444.75,454.616 1446.55,453.205 1448.35,451.798 1450.15,450.396 1451.95,448.997 1453.75,447.604 1455.56,446.214 1457.36,444.829 1459.16,443.448 1460.96,442.072 1462.76,440.701 1464.56,439.334 1466.37,437.972 1468.17,436.615 1469.97,435.263 1471.77,433.915 1473.57,432.573 1475.37,431.235 1477.18,429.903 1478.98,428.576 1480.78,427.254 1482.58,425.938 1484.38,424.626 1486.18,423.32 1487.99,422.02 1489.79,420.725 1491.59,419.435 1493.39,418.151 1495.19,416.873 1496.99,415.601 1498.79,414.334 1500.6,413.073 1502.4,411.818 1504.2,410.569 1506,409.326 1507.8,408.088 1509.6,406.857 1511.41,405.632 1513.21,404.413 1515.01,403.201 1516.81,401.994 1518.61,400.794 1520.41,399.6 1522.22,398.413 1524.02,397.232 1525.82,396.057 1527.62,394.889 1529.42,393.728 1531.22,392.573 1533.03,391.425 1534.83,390.283 1536.63,389.149 1538.43,388.021 1540.23,386.9 1542.03,385.785 1543.83,384.678 1545.64,383.577 1547.44,382.484 1549.24,381.397 1551.04,380.318 1552.84,379.246 1554.64,378.18 1556.45,377.122 1558.25,376.071 1560.05,375.027 1561.85,373.991 1563.65,372.962 1565.45,371.94 1567.26,370.925 1569.06,369.918 1570.86,368.918 1572.66,367.926 1574.46,366.941 1576.26,365.964 1578.07,364.994 1579.87,364.031 1581.67,363.077 1583.47,362.129 1585.27,361.19 1587.07,360.258 1588.87,359.334 1590.68,358.417 1592.48,357.508 1594.28,356.607 1596.08,355.714 1597.88,354.829 1599.68,353.951 1601.49,353.081 1603.29,352.219 1605.09,351.365 1606.89,350.519 1608.69,349.68 1610.49,348.85 1612.3,348.027 1614.1,347.213 1615.9,346.406 1617.7,345.608 1619.5,344.817 1621.3,344.035 1623.11,343.26 1624.91,342.493 1626.71,341.735 1628.51,340.985 1630.31,340.242 1632.11,339.508 1633.92,338.782 1635.72,338.064 1637.52,337.354 1639.32,336.652 1641.12,335.958 1642.92,335.273 1644.72,334.595 1646.53,333.926 1648.33,333.265 1650.13,332.612 1651.93,331.967 1653.73,331.331 1655.53,330.702 1657.34,330.082 1659.14,329.47 1660.94,328.866 1662.74,328.27 1664.54,327.682 1666.34,327.103 1668.15,326.532 1669.95,325.969 1671.75,325.414 1673.55,324.867 1675.35,324.328 1677.15,323.798 1678.96,323.276 1680.76,322.762 1682.56,322.256 1684.36,321.758 1686.16,321.269 1687.96,320.787 1689.76,320.314 1691.57,319.849 1693.37,319.392 1695.17,318.943 1696.97,318.502 1698.77,318.069 1700.57,317.644 1702.38,317.228 1704.18,316.819 1705.98,316.419 1707.78,316.026 1709.58,315.642 1711.38,315.265 1713.19,314.897 1714.99,314.537 1716.79,314.184 1718.59,313.84 1720.39,313.503 1722.19,313.175 1724,312.854 1725.8,312.541 1727.6,312.237 1729.4,311.94 1731.2,311.651 1733,311.369 1734.81,311.096 1736.61,310.831 1738.41,310.573 1740.21,310.323 1742.01,310.081 1743.81,309.846 1745.61,309.619 1747.42,309.4 1749.22,309.189 1751.02,308.985 1752.82,308.789 1754.62,308.601 1756.42,308.42 1758.23,308.246 1760.03,308.081 1761.83,307.922 1763.63,307.772 1765.43,307.629 1767.23,307.493 1769.04,307.364 1770.84,307.244 1772.64,307.13 1774.44,307.024 1776.24,306.925 1778.04,306.834 1779.85,306.75 1781.65,306.673 1783.45,306.603 1785.25,306.541 1787.05,306.485 1788.85,306.437 1790.65,306.396 1792.46,306.362 1794.26,306.336 1796.06,306.316 1797.86,306.303 1799.66,306.298 1801.46,306.299 1803.27,306.307 1805.07,306.322 1806.87,306.345 1808.67,306.374 1810.47,306.409 1812.27,306.452 1814.08,306.501 1815.88,306.557 1817.68,306.62 1819.48,306.69 1821.28,306.766 1823.08,306.848 1824.89,306.938 1826.69,307.034 1828.49,307.136 1830.29,307.245 1832.09,307.361 1833.89,307.482 1835.69,307.611 1837.5,307.745 1839.3,307.886 1841.1,308.034 1842.9,308.187 1844.7,308.347 1846.5,308.513 1848.31,308.685 1850.11,308.864 1851.91,309.048 1853.71,309.239 1855.51,309.436 1857.31,309.638 1859.12,309.847 1860.92,310.062 1862.72,310.282 1864.52,310.509 1866.32,310.741 1868.12,310.98 1869.93,311.224 1871.73,311.473 1873.53,311.729 1875.33,311.99 1877.13,312.257 1878.93,312.529 1880.74,312.807 1882.54,313.091 1884.34,313.38 1886.14,313.675 1887.94,313.975 1889.74,314.281 1891.54,314.592 1893.35,314.908 1895.15,315.23 1896.95,315.557 1898.75,315.889 1900.55,316.227 1902.35,316.569 1904.16,316.917 1905.96,317.27 1907.76,317.628 1909.56,317.991 1911.36,318.36 1913.16,318.733 1914.97,319.111 1916.77,319.494 1918.57,319.882 1920.37,320.275 1922.17,320.673 1923.97,321.075 1925.78,321.482 1927.58,321.894 1929.38,322.311 1931.18,322.733 1932.98,323.159 1934.78,323.589 1936.58,324.024 1938.39,324.464 1940.19,324.908 1941.99,325.357 1943.79,325.81 1945.59,326.268 1947.39,326.73 1949.2,327.196 1951,327.667 1952.8,328.141 1954.6,328.621 1956.4,329.104 1958.2,329.591 1960.01,330.083 1961.81,330.579 1963.61,331.079 1965.41,331.583 1967.21,332.091 1969.01,332.603 1970.82,333.119 1972.62,333.638 1974.42,334.162 1976.22,334.69 1978.02,335.221 1979.82,335.756 1981.63,336.295 1983.43,336.838 1985.23,337.385 1987.03,337.935 1988.83,338.489 1990.63,339.046 1992.43,339.607 1994.24,340.172 1996.04,340.74 1997.84,341.312 1999.64,341.887 2001.44,342.465 2003.24,343.047 2005.05,343.633 2006.85,344.221 2008.65,344.813 2010.45,345.409 2012.25,346.007 2014.05,346.609 2015.86,347.214 2017.66,347.822 2019.46,348.434 2021.26,349.048 2023.06,349.666 2024.86,350.287 2026.67,350.91 2028.47,351.537 2030.27,352.167 2032.07,352.799 2033.87,353.435 2035.67,354.074 2037.47,354.715 2039.28,355.359 2041.08,356.006 2042.88,356.656 2044.68,357.309 2046.48,357.964 2048.28,358.622 2050.09,359.283 2051.89,359.947 2053.69,360.613 2055.49,361.281 2057.29,361.953 2059.09,362.627 2060.9,363.303 2062.7,363.982 2064.5,364.663 2066.3,365.347 2068.1,366.033 2069.9,366.722 2071.71,367.413 2073.51,368.107 2075.31,368.802 2077.11,369.501 2078.91,370.201 2080.71,370.904 2082.52,371.609 2084.32,372.316 2086.12,373.025 2087.92,373.737 2089.72,374.45 2091.52,375.166 2093.32,375.884 2095.13,376.604 2096.93,377.326 2098.73,378.05 2100.53,378.776 2102.33,379.504 2104.13,380.234 2105.94,380.966 2107.74,381.7 2109.54,382.436 2111.34,383.174 2113.14,383.913 2114.94,384.654 2116.75,385.398 2118.55,386.143 2120.35,386.89 2122.15,387.638 2123.95,388.388 2125.75,389.14 2127.56,389.894 2129.36,390.649 2131.16,391.406 2132.96,392.165 2134.76,392.925 2136.56,393.687 2138.36,394.451 2140.17,395.216 2141.97,395.982 2143.77,396.75 2145.57,397.52 2147.37,398.291 2149.17,399.064 2150.98,399.838 2152.78,400.613 2154.58,401.39 2156.38,402.168 2158.18,402.947 2159.98,403.728 2161.79,404.511 2163.59,405.294 2165.39,406.079 2167.19,406.865 2168.99,407.653 2170.79,408.441 2172.6,409.231 2174.4,410.022 2176.2,410.815 2178,411.608 2179.8,412.403 2181.6,413.199 2183.4,413.995 2185.21,414.794 2187.01,415.593 2188.81,416.393 2190.61,417.194 2192.41,417.997 2194.21,418.8 2196.02,419.604 2197.82,420.41 2199.62,421.216 2201.42,422.024 2203.22,422.832 2205.02,423.641 2206.83,424.452 2208.63,425.263 2210.43,426.075 2212.23,426.888 2214.03,427.701 2215.83,428.516 2217.64,429.332 2219.44,430.148 2221.24,430.965 2223.04,431.783 2224.84,432.602 2226.64,433.421 2228.45,434.242 2230.25,435.063 2232.05,435.885 2233.85,436.707 2235.65,437.53 2237.45,438.354 2239.25,439.179 2241.06,440.004 2242.86,440.83 2244.66,441.657 2246.46,442.484 2248.26,443.312 2250.06,444.14 2251.87,444.969 2253.67,445.799 2255.47,446.629 2257.27,447.46 2259.07,448.291 2260.87,449.123 2262.68,449.955 2264.48,450.788 2266.28,451.621 2268.08,452.455 2269.88,453.29 2271.68,454.125 2273.49,454.96 2275.29,455.796 2277.09,456.632 2278.89,457.468 2280.69,458.305 2282.49,459.143 2284.29,459.981 2286.1,460.819 2287.9,461.658 2289.7,462.496 2291.5,463.336 2293.3,464.175 2295.1,465.015 2296.91,465.856 2298.71,466.696 2300.51,467.537 2302.31,468.379 2304.11,469.22 2305.91,470.062 2307.72,470.904 2309.52,471.746 2311.32,472.589 2313.12,473.432 2314.92,474.275 2316.72,475.118 2318.53,475.962 2320.33,476.805 2322.13,477.649 2323.93,478.493 2325.73,479.337 2327.53,480.182 2329.34,481.027 2331.14,481.871 2332.94,482.716 2334.74,483.561 2336.54,484.406 2338.34,485.252 2340.14,486.097 2341.95,486.942 2343.75,487.788 2345.55,488.634 2347.35,489.48 2349.15,490.325 2350.95,491.171 2352.76,492.017 "/>
<circle clip-path="url(#clip451)" cx="269.519" cy="883.236" r="14.4" fill="#e26f46" fill-rule="evenodd" fill-opacity="1" stroke="#000000" stroke-opacity="1" stroke-width="3.2"/>
<circle clip-path="url(#clip451)" cx="366.188" cy="655.507" r="14.4" fill="#e26f46" fill-rule="evenodd" fill-opacity="1" stroke="#000000" stroke-opacity="1" stroke-width="3.2"/>
<circle clip-path="url(#clip451)" cx="389.828" cy="723.826" r="14.4" fill="#e26f46" fill-rule="evenodd" fill-opacity="1" stroke="#000000" stroke-opacity="1" stroke-width="3.2"/>
<circle clip-path="url(#clip451)" cx="700.097" cy="678.28" r="14.4" fill="#e26f46" fill-rule="evenodd" fill-opacity="1" stroke="#000000" stroke-opacity="1" stroke-width="3.2"/>
<circle clip-path="url(#clip451)" cx="1006.15" cy="746.598" r="14.4" fill="#e26f46" fill-rule="evenodd" fill-opacity="1" stroke="#000000" stroke-opacity="1" stroke-width="3.2"/>
<circle clip-path="url(#clip451)" cx="1303.75" cy="701.053" r="14.4" fill="#e26f46" fill-rule="evenodd" fill-opacity="1" stroke="#000000" stroke-opacity="1" stroke-width="3.2"/>
<circle clip-path="url(#clip451)" cx="1628.79" cy="86.1857" r="14.4" fill="#e26f46" fill-rule="evenodd" fill-opacity="1" stroke="#000000" stroke-opacity="1" stroke-width="3.2"/>
<circle clip-path="url(#clip451)" cx="1855.27" cy="268.368" r="14.4" fill="#e26f46" fill-rule="evenodd" fill-opacity="1" stroke="#000000" stroke-opacity="1" stroke-width="3.2"/>
<circle clip-path="url(#clip451)" cx="2226.12" cy="541.643" r="14.4" fill="#e26f46" fill-rule="evenodd" fill-opacity="1" stroke="#000000" stroke-opacity="1" stroke-width="3.2"/>
<path clip-path="url(#clip450)" d="M229.803 248.629 L1168.77 248.629 L1168.77 93.1086 L229.803 93.1086  Z" fill="#ffffff" fill-rule="evenodd" fill-opacity="1"/>
<polyline clip-path="url(#clip450)" style="stroke:#000000; stroke-linecap:round; stroke-linejoin:round; stroke-width:4; stroke-opacity:1; fill:none" points="229.803,248.629 1168.77,248.629 1168.77,93.1086 229.803,93.1086 229.803,248.629 "/>
<polyline clip-path="url(#clip450)" style="stroke:#009af9; stroke-linecap:round; stroke-linejoin:round; stroke-width:4; stroke-opacity:1; fill:none" points="254.205,144.949 400.616,144.949 "/>
<path clip-path="url(#clip450)" d="M445.527 137.298 L445.527 141.28 Q443.721 140.284 441.892 139.798 Q440.087 139.289 438.235 139.289 Q434.092 139.289 431.8 141.928 Q429.508 144.544 429.508 149.289 Q429.508 154.034 431.8 156.673 Q434.092 159.289 438.235 159.289 Q440.087 159.289 441.892 158.803 Q443.721 158.293 445.527 157.298 L445.527 161.233 Q443.744 162.067 441.823 162.483 Q439.925 162.9 437.772 162.9 Q431.916 162.9 428.467 159.219 Q425.018 155.539 425.018 149.289 Q425.018 142.946 428.49 139.312 Q431.985 135.678 438.05 135.678 Q440.017 135.678 441.892 136.095 Q443.767 136.488 445.527 137.298 Z" fill="#000000" fill-rule="nonzero" fill-opacity="1" /><path clip-path="url(#clip450)" d="M448.328 127.669 L477.564 127.669 L477.564 131.604 L465.295 131.604 L465.295 162.229 L460.596 162.229 L460.596 131.604 L448.328 131.604 L448.328 127.669 Z" fill="#000000" fill-rule="nonzero" fill-opacity="1" /><path clip-path="url(#clip450)" d="M503.443 146.581 L503.443 162.229 L499.184 162.229 L499.184 146.719 Q499.184 143.039 497.749 141.21 Q496.313 139.382 493.443 139.382 Q489.994 139.382 488.003 141.581 Q486.013 143.78 486.013 147.576 L486.013 162.229 L481.73 162.229 L481.73 136.303 L486.013 136.303 L486.013 140.331 Q487.54 137.993 489.6 136.835 Q491.684 135.678 494.392 135.678 Q498.86 135.678 501.151 138.456 Q503.443 141.21 503.443 146.581 Z" fill="#000000" fill-rule="nonzero" fill-opacity="1" /><path clip-path="url(#clip450)" d="M507.332 127.669 L536.568 127.669 L536.568 131.604 L524.299 131.604 L524.299 162.229 L519.6 162.229 L519.6 131.604 L507.332 131.604 L507.332 127.669 Z" fill="#000000" fill-rule="nonzero" fill-opacity="1" /><path clip-path="url(#clip450)" d="M572.494 137.067 L572.494 141.094 Q570.688 140.169 568.744 139.706 Q566.799 139.243 564.716 139.243 Q561.545 139.243 559.947 140.215 Q558.373 141.187 558.373 143.131 Q558.373 144.613 559.508 145.469 Q560.642 146.303 564.068 147.067 L565.526 147.391 Q570.063 148.363 571.961 150.145 Q573.882 151.905 573.882 155.076 Q573.882 158.687 571.012 160.793 Q568.165 162.9 563.165 162.9 Q561.082 162.9 558.813 162.483 Q556.568 162.09 554.068 161.28 L554.068 156.881 Q556.429 158.108 558.72 158.733 Q561.012 159.335 563.258 159.335 Q566.267 159.335 567.887 158.317 Q569.507 157.275 569.507 155.4 Q569.507 153.664 568.327 152.738 Q567.17 151.812 563.211 150.956 L561.73 150.608 Q557.771 149.775 556.012 148.062 Q554.253 146.326 554.253 143.317 Q554.253 139.659 556.846 137.669 Q559.438 135.678 564.207 135.678 Q566.568 135.678 568.651 136.025 Q570.734 136.372 572.494 137.067 Z" fill="#000000" fill-rule="nonzero" fill-opacity="1" /><path clip-path="url(#clip450)" d="M580.665 136.303 L584.924 136.303 L584.924 162.229 L580.665 162.229 L580.665 136.303 M580.665 126.21 L584.924 126.21 L584.924 131.604 L580.665 131.604 L580.665 126.21 Z" fill="#000000" fill-rule="nonzero" fill-opacity="1" /><path clip-path="url(#clip450)" d="M614.021 141.28 Q615.618 138.409 617.841 137.044 Q620.063 135.678 623.072 135.678 Q627.123 135.678 629.322 138.525 Q631.521 141.349 631.521 146.581 L631.521 162.229 L627.239 162.229 L627.239 146.719 Q627.239 142.993 625.919 141.187 Q624.6 139.382 621.891 139.382 Q618.581 139.382 616.66 141.581 Q614.739 143.78 614.739 147.576 L614.739 162.229 L610.456 162.229 L610.456 146.719 Q610.456 142.969 609.137 141.187 Q607.817 139.382 605.063 139.382 Q601.799 139.382 599.878 141.604 Q597.956 143.803 597.956 147.576 L597.956 162.229 L593.674 162.229 L593.674 136.303 L597.956 136.303 L597.956 140.331 Q599.415 137.946 601.452 136.812 Q603.489 135.678 606.29 135.678 Q609.114 135.678 611.081 137.113 Q613.072 138.548 614.021 141.28 Z" fill="#000000" fill-rule="nonzero" fill-opacity="1" /><path clip-path="url(#clip450)" d="M639.577 151.997 L639.577 136.303 L643.836 136.303 L643.836 151.835 Q643.836 155.516 645.271 157.368 Q646.706 159.196 649.576 159.196 Q653.026 159.196 655.016 156.997 Q657.03 154.798 657.03 151.002 L657.03 136.303 L661.289 136.303 L661.289 162.229 L657.03 162.229 L657.03 158.247 Q655.479 160.608 653.419 161.766 Q651.382 162.9 648.674 162.9 Q644.206 162.9 641.891 160.122 Q639.577 157.344 639.577 151.997 M650.294 135.678 L650.294 135.678 Z" fill="#000000" fill-rule="nonzero" fill-opacity="1" /><path clip-path="url(#clip450)" d="M670.062 126.21 L674.322 126.21 L674.322 162.229 L670.062 162.229 L670.062 126.21 Z" fill="#000000" fill-rule="nonzero" fill-opacity="1" /><path clip-path="url(#clip450)" d="M695.016 149.196 Q689.854 149.196 687.863 150.377 Q685.873 151.557 685.873 154.405 Q685.873 156.673 687.354 158.016 Q688.859 159.335 691.428 159.335 Q694.97 159.335 697.099 156.835 Q699.252 154.312 699.252 150.145 L699.252 149.196 L695.016 149.196 M703.511 147.437 L703.511 162.229 L699.252 162.229 L699.252 158.293 Q697.794 160.655 695.618 161.789 Q693.442 162.9 690.294 162.9 Q686.312 162.9 683.951 160.678 Q681.613 158.432 681.613 154.682 Q681.613 150.307 684.53 148.085 Q687.47 145.863 693.28 145.863 L699.252 145.863 L699.252 145.446 Q699.252 142.507 697.308 140.909 Q695.386 139.289 691.891 139.289 Q689.669 139.289 687.562 139.821 Q685.456 140.354 683.511 141.419 L683.511 137.483 Q685.849 136.581 688.049 136.141 Q690.248 135.678 692.331 135.678 Q697.956 135.678 700.734 138.594 Q703.511 141.511 703.511 147.437 Z" fill="#000000" fill-rule="nonzero" fill-opacity="1" /><path clip-path="url(#clip450)" d="M716.497 128.942 L716.497 136.303 L725.271 136.303 L725.271 139.613 L716.497 139.613 L716.497 153.687 Q716.497 156.858 717.354 157.761 Q718.234 158.664 720.896 158.664 L725.271 158.664 L725.271 162.229 L720.896 162.229 Q715.965 162.229 714.09 160.4 Q712.215 158.548 712.215 153.687 L712.215 139.613 L709.09 139.613 L709.09 136.303 L712.215 136.303 L712.215 128.942 L716.497 128.942 Z" fill="#000000" fill-rule="nonzero" fill-opacity="1" /><path clip-path="url(#clip450)" d="M730.872 136.303 L735.132 136.303 L735.132 162.229 L730.872 162.229 L730.872 136.303 M730.872 126.21 L735.132 126.21 L735.132 131.604 L730.872 131.604 L730.872 126.21 Z" fill="#000000" fill-rule="nonzero" fill-opacity="1" /><path clip-path="url(#clip450)" d="M754.09 139.289 Q750.664 139.289 748.673 141.974 Q746.682 144.636 746.682 149.289 Q746.682 153.942 748.65 156.627 Q750.641 159.289 754.09 159.289 Q757.493 159.289 759.483 156.604 Q761.474 153.918 761.474 149.289 Q761.474 144.682 759.483 141.997 Q757.493 139.289 754.09 139.289 M754.09 135.678 Q759.645 135.678 762.817 139.289 Q765.988 142.9 765.988 149.289 Q765.988 155.655 762.817 159.289 Q759.645 162.9 754.09 162.9 Q748.511 162.9 745.34 159.289 Q742.192 155.655 742.192 149.289 Q742.192 142.9 745.34 139.289 Q748.511 135.678 754.09 135.678 Z" fill="#000000" fill-rule="nonzero" fill-opacity="1" /><path clip-path="url(#clip450)" d="M794.599 146.581 L794.599 162.229 L790.34 162.229 L790.34 146.719 Q790.34 143.039 788.904 141.21 Q787.469 139.382 784.599 139.382 Q781.15 139.382 779.159 141.581 Q777.168 143.78 777.168 147.576 L777.168 162.229 L772.886 162.229 L772.886 136.303 L777.168 136.303 L777.168 140.331 Q778.696 137.993 780.756 136.835 Q782.84 135.678 785.548 135.678 Q790.016 135.678 792.307 138.456 Q794.599 141.21 794.599 146.581 Z" fill="#000000" fill-rule="nonzero" fill-opacity="1" /><path clip-path="url(#clip450)" d="M822.284 158.34 L822.284 172.09 L818.002 172.09 L818.002 136.303 L822.284 136.303 L822.284 140.238 Q823.626 137.923 825.664 136.812 Q827.724 135.678 830.571 135.678 Q835.293 135.678 838.233 139.428 Q841.196 143.178 841.196 149.289 Q841.196 155.4 838.233 159.15 Q835.293 162.9 830.571 162.9 Q827.724 162.9 825.664 161.789 Q823.626 160.655 822.284 158.34 M836.775 149.289 Q836.775 144.59 834.83 141.928 Q832.909 139.243 829.529 139.243 Q826.15 139.243 824.205 141.928 Q822.284 144.59 822.284 149.289 Q822.284 153.988 824.205 156.673 Q826.15 159.335 829.529 159.335 Q832.909 159.335 834.83 156.673 Q836.775 153.988 836.775 149.289 Z" fill="#000000" fill-rule="nonzero" fill-opacity="1" /><path clip-path="url(#clip450)" d="M860.038 149.196 Q854.876 149.196 852.886 150.377 Q850.895 151.557 850.895 154.405 Q850.895 156.673 852.376 158.016 Q853.881 159.335 856.45 159.335 Q859.992 159.335 862.122 156.835 Q864.274 154.312 864.274 150.145 L864.274 149.196 L860.038 149.196 M868.534 147.437 L868.534 162.229 L864.274 162.229 L864.274 158.293 Q862.816 160.655 860.64 161.789 Q858.464 162.9 855.316 162.9 Q851.335 162.9 848.974 160.678 Q846.636 158.432 846.636 154.682 Q846.636 150.307 849.552 148.085 Q852.492 145.863 858.302 145.863 L864.274 145.863 L864.274 145.446 Q864.274 142.507 862.33 140.909 Q860.409 139.289 856.913 139.289 Q854.691 139.289 852.585 139.821 Q850.478 140.354 848.534 141.419 L848.534 137.483 Q850.872 136.581 853.071 136.141 Q855.27 135.678 857.353 135.678 Q862.978 135.678 865.756 138.594 Q868.534 141.511 868.534 147.437 Z" fill="#000000" fill-rule="nonzero" fill-opacity="1" /><path clip-path="url(#clip450)" d="M881.52 128.942 L881.52 136.303 L890.293 136.303 L890.293 139.613 L881.52 139.613 L881.52 153.687 Q881.52 156.858 882.376 157.761 Q883.256 158.664 885.918 158.664 L890.293 158.664 L890.293 162.229 L885.918 162.229 Q880.987 162.229 879.112 160.4 Q877.237 158.548 877.237 153.687 L877.237 139.613 L874.112 139.613 L874.112 136.303 L877.237 136.303 L877.237 128.942 L881.52 128.942 Z" fill="#000000" fill-rule="nonzero" fill-opacity="1" /><path clip-path="url(#clip450)" d="M895.895 136.303 L900.154 136.303 L900.154 162.229 L895.895 162.229 L895.895 136.303 M895.895 126.21 L900.154 126.21 L900.154 131.604 L895.895 131.604 L895.895 126.21 Z" fill="#000000" fill-rule="nonzero" fill-opacity="1" /><path clip-path="url(#clip450)" d="M931.242 148.201 L931.242 150.284 L911.658 150.284 Q911.936 154.682 914.297 156.997 Q916.682 159.289 920.918 159.289 Q923.371 159.289 925.663 158.687 Q927.978 158.085 930.246 156.881 L930.246 160.909 Q927.955 161.881 925.547 162.391 Q923.14 162.9 920.663 162.9 Q914.459 162.9 910.825 159.289 Q907.214 155.678 907.214 149.52 Q907.214 143.155 910.64 139.428 Q914.089 135.678 919.922 135.678 Q925.154 135.678 928.186 139.057 Q931.242 142.414 931.242 148.201 M926.982 146.951 Q926.936 143.456 925.015 141.372 Q923.117 139.289 919.969 139.289 Q916.404 139.289 914.251 141.303 Q912.121 143.317 911.797 146.974 L926.982 146.951 Z" fill="#000000" fill-rule="nonzero" fill-opacity="1" /><path clip-path="url(#clip450)" d="M959.783 146.581 L959.783 162.229 L955.524 162.229 L955.524 146.719 Q955.524 143.039 954.089 141.21 Q952.654 139.382 949.783 139.382 Q946.334 139.382 944.343 141.581 Q942.353 143.78 942.353 147.576 L942.353 162.229 L938.07 162.229 L938.07 136.303 L942.353 136.303 L942.353 140.331 Q943.88 137.993 945.941 136.835 Q948.024 135.678 950.732 135.678 Q955.2 135.678 957.492 138.456 Q959.783 141.21 959.783 146.581 Z" fill="#000000" fill-rule="nonzero" fill-opacity="1" /><path clip-path="url(#clip450)" d="M972.491 128.942 L972.491 136.303 L981.265 136.303 L981.265 139.613 L972.491 139.613 L972.491 153.687 Q972.491 156.858 973.348 157.761 Q974.228 158.664 976.89 158.664 L981.265 158.664 L981.265 162.229 L976.89 162.229 Q971.959 162.229 970.084 160.4 Q968.209 158.548 968.209 153.687 L968.209 139.613 L965.084 139.613 L965.084 136.303 L968.209 136.303 L968.209 128.942 L972.491 128.942 Z" fill="#000000" fill-rule="nonzero" fill-opacity="1" /><path clip-path="url(#clip450)" d="M1023.49 146.581 L1023.49 162.229 L1019.23 162.229 L1019.23 146.719 Q1019.23 143.039 1017.79 141.21 Q1016.36 139.382 1013.49 139.382 Q1010.04 139.382 1008.05 141.581 Q1006.06 143.78 1006.06 147.576 L1006.06 162.229 L1001.77 162.229 L1001.77 136.303 L1006.06 136.303 L1006.06 140.331 Q1007.58 137.993 1009.64 136.835 Q1011.73 135.678 1014.44 135.678 Q1018.9 135.678 1021.19 138.456 Q1023.49 141.21 1023.49 146.581 Z" fill="#000000" fill-rule="nonzero" fill-opacity="1" /><path clip-path="url(#clip450)" d="M1033.39 158.293 L1041.03 158.293 L1041.03 131.928 L1032.72 133.595 L1032.72 129.335 L1040.99 127.669 L1045.66 127.669 L1045.66 158.293 L1053.3 158.293 L1053.3 162.229 L1033.39 162.229 L1033.39 158.293 Z" fill="#000000" fill-rule="nonzero" fill-opacity="1" /><path clip-path="url(#clip450)" d="M1062.79 127.669 L1081.15 127.669 L1081.15 131.604 L1067.07 131.604 L1067.07 140.076 Q1068.09 139.729 1069.11 139.567 Q1070.13 139.382 1071.15 139.382 Q1076.94 139.382 1080.31 142.553 Q1083.69 145.724 1083.69 151.141 Q1083.69 156.719 1080.22 159.821 Q1076.75 162.9 1070.43 162.9 Q1068.25 162.9 1065.99 162.53 Q1063.74 162.159 1061.33 161.418 L1061.33 156.719 Q1063.42 157.854 1065.64 158.409 Q1067.86 158.965 1070.34 158.965 Q1074.34 158.965 1076.68 156.858 Q1079.02 154.752 1079.02 151.141 Q1079.02 147.53 1076.68 145.423 Q1074.34 143.317 1070.34 143.317 Q1068.46 143.317 1066.59 143.733 Q1064.74 144.15 1062.79 145.03 L1062.79 127.669 Z" fill="#000000" fill-rule="nonzero" fill-opacity="1" /><path clip-path="url(#clip450)" d="M1092.95 127.669 L1111.31 127.669 L1111.31 131.604 L1097.24 131.604 L1097.24 140.076 Q1098.25 139.729 1099.27 139.567 Q1100.29 139.382 1101.31 139.382 Q1107.1 139.382 1110.48 142.553 Q1113.86 145.724 1113.86 151.141 Q1113.86 156.719 1110.38 159.821 Q1106.91 162.9 1100.59 162.9 Q1098.42 162.9 1096.15 162.53 Q1093.9 162.159 1091.5 161.418 L1091.5 156.719 Q1093.58 157.854 1095.8 158.409 Q1098.02 158.965 1100.5 158.965 Q1104.5 158.965 1106.84 156.858 Q1109.18 154.752 1109.18 151.141 Q1109.18 147.53 1106.84 145.423 Q1104.5 143.317 1100.5 143.317 Q1098.63 143.317 1096.75 143.733 Q1094.9 144.15 1092.95 145.03 L1092.95 127.669 Z" fill="#000000" fill-rule="nonzero" fill-opacity="1" /><path clip-path="url(#clip450)" d="M1137.24 143.594 Q1140.59 144.312 1142.47 146.581 Q1144.37 148.849 1144.37 152.182 Q1144.37 157.298 1140.85 160.099 Q1137.33 162.9 1130.85 162.9 Q1128.67 162.9 1126.36 162.46 Q1124.06 162.043 1121.61 161.187 L1121.61 156.673 Q1123.56 157.807 1125.87 158.386 Q1128.19 158.965 1130.71 158.965 Q1135.11 158.965 1137.4 157.229 Q1139.71 155.493 1139.71 152.182 Q1139.71 149.127 1137.56 147.414 Q1135.43 145.678 1131.61 145.678 L1127.58 145.678 L1127.58 141.835 L1131.8 141.835 Q1135.25 141.835 1137.07 140.469 Q1138.9 139.081 1138.9 136.488 Q1138.9 133.826 1137 132.414 Q1135.13 130.979 1131.61 130.979 Q1129.69 130.979 1127.49 131.395 Q1125.29 131.812 1122.65 132.692 L1122.65 128.525 Q1125.31 127.784 1127.63 127.414 Q1129.97 127.044 1132.03 127.044 Q1137.35 127.044 1140.45 129.474 Q1143.56 131.882 1143.56 136.002 Q1143.56 138.872 1141.91 140.863 Q1140.27 142.831 1137.24 143.594 Z" fill="#000000" fill-rule="nonzero" fill-opacity="1" /><circle clip-path="url(#clip450)" cx="327.41" cy="196.789" r="20.48" fill="#e26f46" fill-rule="evenodd" fill-opacity="1" stroke="#000000" stroke-opacity="1" stroke-width="4.55111"/>
<path clip-path="url(#clip450)" d="M429.693 183.351 L429.693 210.226 L435.342 210.226 Q442.494 210.226 445.804 206.985 Q449.138 203.745 449.138 196.754 Q449.138 189.809 445.804 186.592 Q442.494 183.351 435.342 183.351 L429.693 183.351 M425.018 179.509 L434.624 179.509 Q444.67 179.509 449.369 183.698 Q454.068 187.865 454.068 196.754 Q454.068 205.689 449.346 209.879 Q444.624 214.069 434.624 214.069 L425.018 214.069 L425.018 179.509 Z" fill="#000000" fill-rule="nonzero" fill-opacity="1" /><path clip-path="url(#clip450)" d="M473.119 201.036 Q467.957 201.036 465.966 202.217 Q463.976 203.397 463.976 206.245 Q463.976 208.513 465.457 209.856 Q466.962 211.175 469.531 211.175 Q473.073 211.175 475.202 208.675 Q477.355 206.152 477.355 201.985 L477.355 201.036 L473.119 201.036 M481.614 199.277 L481.614 214.069 L477.355 214.069 L477.355 210.133 Q475.897 212.495 473.721 213.629 Q471.545 214.74 468.397 214.74 Q464.415 214.74 462.054 212.518 Q459.716 210.272 459.716 206.522 Q459.716 202.147 462.633 199.925 Q465.573 197.703 471.383 197.703 L477.355 197.703 L477.355 197.286 Q477.355 194.347 475.411 192.749 Q473.489 191.129 469.994 191.129 Q467.772 191.129 465.665 191.661 Q463.559 192.194 461.615 193.259 L461.615 189.323 Q463.952 188.421 466.152 187.981 Q468.351 187.518 470.434 187.518 Q476.059 187.518 478.837 190.434 Q481.614 193.351 481.614 199.277 Z" fill="#000000" fill-rule="nonzero" fill-opacity="1" /><path clip-path="url(#clip450)" d="M494.6 180.782 L494.6 188.143 L503.374 188.143 L503.374 191.453 L494.6 191.453 L494.6 205.527 Q494.6 208.698 495.457 209.601 Q496.337 210.504 498.999 210.504 L503.374 210.504 L503.374 214.069 L498.999 214.069 Q494.068 214.069 492.193 212.24 Q490.318 210.388 490.318 205.527 L490.318 191.453 L487.193 191.453 L487.193 188.143 L490.318 188.143 L490.318 180.782 L494.6 180.782 Z" fill="#000000" fill-rule="nonzero" fill-opacity="1" /><path clip-path="url(#clip450)" d="M520.758 201.036 Q515.596 201.036 513.605 202.217 Q511.614 203.397 511.614 206.245 Q511.614 208.513 513.096 209.856 Q514.6 211.175 517.17 211.175 Q520.711 211.175 522.841 208.675 Q524.994 206.152 524.994 201.985 L524.994 201.036 L520.758 201.036 M529.253 199.277 L529.253 214.069 L524.994 214.069 L524.994 210.133 Q523.535 212.495 521.36 213.629 Q519.184 214.74 516.036 214.74 Q512.054 214.74 509.693 212.518 Q507.355 210.272 507.355 206.522 Q507.355 202.147 510.272 199.925 Q513.211 197.703 519.022 197.703 L524.994 197.703 L524.994 197.286 Q524.994 194.347 523.049 192.749 Q521.128 191.129 517.633 191.129 Q515.411 191.129 513.304 191.661 Q511.198 192.194 509.253 193.259 L509.253 189.323 Q511.591 188.421 513.79 187.981 Q515.989 187.518 518.073 187.518 Q523.698 187.518 526.475 190.434 Q529.253 193.351 529.253 199.277 Z" fill="#000000" fill-rule="nonzero" fill-opacity="1" /></svg>
