<?xml version="1.0" encoding="utf-8"?>
<svg xmlns="http://www.w3.org/2000/svg" xmlns:xlink="http://www.w3.org/1999/xlink" width="600" height="400" viewBox="0 0 2400 1600">
<defs>
  <clipPath id="clip160">
    <rect x="0" y="0" width="2400" height="1600"/>
  </clipPath>
</defs>
<path clip-path="url(#clip160)" d="M0 1600 L2400 1600 L2400 0 L0 0  Z" fill="#ffffff" fill-rule="evenodd" fill-opacity="1"/>
<defs>
  <clipPath id="clip161">
    <rect x="186" y="47" width="2167" height="1377"/>
  </clipPath>
</defs>
<path clip-path="url(#clip160)" d="M186.274 1423.18 L2352.76 1423.18 L2352.76 47.2441 L186.274 47.2441  Z" fill="#ffffff" fill-rule="evenodd" fill-opacity="1"/>
<polyline clip-path="url(#clip161)" style="stroke:#000000; stroke-linecap:round; stroke-linejoin:round; stroke-width:2; stroke-opacity:0.1; fill:none" points="186.274,1423.18 186.274,47.2441 "/>
<polyline clip-path="url(#clip161)" style="stroke:#000000; stroke-linecap:round; stroke-linejoin:round; stroke-width:2; stroke-opacity:0.1; fill:none" points="692.264,1423.18 692.264,47.2441 "/>
<polyline clip-path="url(#clip161)" style="stroke:#000000; stroke-linecap:round; stroke-linejoin:round; stroke-width:2; stroke-opacity:0.1; fill:none" points="1198.25,1423.18 1198.25,47.2441 "/>
<polyline clip-path="url(#clip161)" style="stroke:#000000; stroke-linecap:round; stroke-linejoin:round; stroke-width:2; stroke-opacity:0.1; fill:none" points="1704.24,1423.18 1704.24,47.2441 "/>
<polyline clip-path="url(#clip161)" style="stroke:#000000; stroke-linecap:round; stroke-linejoin:round; stroke-width:2; stroke-opacity:0.1; fill:none" points="2210.24,1423.18 2210.24,47.2441 "/>
<polyline clip-path="url(#clip161)" style="stroke:#000000; stroke-linecap:round; stroke-linejoin:round; stroke-width:2; stroke-opacity:0.1; fill:none" points="186.274,1384.24 2352.76,1384.24 "/>
<polyline clip-path="url(#clip161)" style="stroke:#000000; stroke-linecap:round; stroke-linejoin:round; stroke-width:2; stroke-opacity:0.1; fill:none" points="186.274,1057.33 2352.76,1057.33 "/>
<polyline clip-path="url(#clip161)" style="stroke:#000000; stroke-linecap:round; stroke-linejoin:round; stroke-width:2; stroke-opacity:0.1; fill:none" points="186.274,730.418 2352.76,730.418 "/>
<polyline clip-path="url(#clip161)" style="stroke:#000000; stroke-linecap:round; stroke-linejoin:round; stroke-width:2; stroke-opacity:0.1; fill:none" points="186.274,403.508 2352.76,403.508 "/>
<polyline clip-path="url(#clip161)" style="stroke:#000000; stroke-linecap:round; stroke-linejoin:round; stroke-width:2; stroke-opacity:0.1; fill:none" points="186.274,76.5983 2352.76,76.5983 "/>
<polyline clip-path="url(#clip160)" style="stroke:#000000; stroke-linecap:round; stroke-linejoin:round; stroke-width:4; stroke-opacity:1; fill:none" points="186.274,1423.18 2352.76,1423.18 "/>
<polyline clip-path="url(#clip160)" style="stroke:#000000; stroke-linecap:round; stroke-linejoin:round; stroke-width:4; stroke-opacity:1; fill:none" points="186.274,1423.18 186.274,1404.28 "/>
<polyline clip-path="url(#clip160)" style="stroke:#000000; stroke-linecap:round; stroke-linejoin:round; stroke-width:4; stroke-opacity:1; fill:none" points="692.264,1423.18 692.264,1404.28 "/>
<polyline clip-path="url(#clip160)" style="stroke:#000000; stroke-linecap:round; stroke-linejoin:round; stroke-width:4; stroke-opacity:1; fill:none" points="1198.25,1423.18 1198.25,1404.28 "/>
<polyline clip-path="url(#clip160)" style="stroke:#000000; stroke-linecap:round; stroke-linejoin:round; stroke-width:4; stroke-opacity:1; fill:none" points="1704.24,1423.18 1704.24,1404.28 "/>
<polyline clip-path="url(#clip160)" style="stroke:#000000; stroke-linecap:round; stroke-linejoin:round; stroke-width:4; stroke-opacity:1; fill:none" points="2210.24,1423.18 2210.24,1404.28 "/>
<path clip-path="url(#clip160)" d="M186.274 1454.1 Q182.663 1454.1 180.834 1457.66 Q179.029 1461.2 179.029 1468.33 Q179.029 1475.44 180.834 1479.01 Q182.663 1482.55 186.274 1482.55 Q189.908 1482.55 191.714 1479.01 Q193.542 1475.44 193.542 1468.33 Q193.542 1461.2 191.714 1457.66 Q189.908 1454.1 186.274 1454.1 M186.274 1450.39 Q192.084 1450.39 195.14 1455 Q198.218 1459.58 198.218 1468.33 Q198.218 1477.06 195.14 1481.67 Q192.084 1486.25 186.274 1486.25 Q180.464 1486.25 177.385 1481.67 Q174.33 1477.06 174.33 1468.33 Q174.33 1459.58 177.385 1455 Q180.464 1450.39 186.274 1450.39 Z" fill="#000000" fill-rule="nonzero" fill-opacity="1" /><path clip-path="url(#clip160)" d="M671.038 1481.64 L687.357 1481.64 L687.357 1485.58 L665.413 1485.58 L665.413 1481.64 Q668.075 1478.89 672.658 1474.26 Q677.264 1469.61 678.445 1468.27 Q680.69 1465.74 681.57 1464.01 Q682.473 1462.25 682.473 1460.56 Q682.473 1457.8 680.528 1456.07 Q678.607 1454.33 675.505 1454.33 Q673.306 1454.33 670.852 1455.09 Q668.422 1455.86 665.644 1457.41 L665.644 1452.69 Q668.468 1451.55 670.922 1450.97 Q673.376 1450.39 675.413 1450.39 Q680.783 1450.39 683.977 1453.08 Q687.172 1455.77 687.172 1460.26 Q687.172 1462.39 686.362 1464.31 Q685.575 1466.2 683.468 1468.8 Q682.889 1469.47 679.788 1472.69 Q676.686 1475.88 671.038 1481.64 Z" fill="#000000" fill-rule="nonzero" fill-opacity="1" /><path clip-path="url(#clip160)" d="M707.172 1454.1 Q703.561 1454.1 701.732 1457.66 Q699.926 1461.2 699.926 1468.33 Q699.926 1475.44 701.732 1479.01 Q703.561 1482.55 707.172 1482.55 Q710.806 1482.55 712.611 1479.01 Q714.44 1475.44 714.44 1468.33 Q714.44 1461.2 712.611 1457.66 Q710.806 1454.1 707.172 1454.1 M707.172 1450.39 Q712.982 1450.39 716.037 1455 Q719.116 1459.58 719.116 1468.33 Q719.116 1477.06 716.037 1481.67 Q712.982 1486.25 707.172 1486.25 Q701.361 1486.25 698.283 1481.67 Q695.227 1477.06 695.227 1468.33 Q695.227 1459.58 698.283 1455 Q701.361 1450.39 707.172 1450.39 Z" fill="#000000" fill-rule="nonzero" fill-opacity="1" /><path clip-path="url(#clip160)" d="M1186.43 1455.09 L1174.62 1473.54 L1186.43 1473.54 L1186.43 1455.09 M1185.2 1451.02 L1191.08 1451.02 L1191.08 1473.54 L1196.01 1473.54 L1196.01 1477.43 L1191.08 1477.43 L1191.08 1485.58 L1186.43 1485.58 L1186.43 1477.43 L1170.82 1477.43 L1170.82 1472.92 L1185.2 1451.02 Z" fill="#000000" fill-rule="nonzero" fill-opacity="1" /><path clip-path="url(#clip160)" d="M1213.74 1454.1 Q1210.13 1454.1 1208.3 1457.66 Q1206.5 1461.2 1206.5 1468.33 Q1206.5 1475.44 1208.3 1479.01 Q1210.13 1482.55 1213.74 1482.55 Q1217.37 1482.55 1219.18 1479.01 Q1221.01 1475.44 1221.01 1468.33 Q1221.01 1461.2 1219.18 1457.66 Q1217.37 1454.1 1213.74 1454.1 M1213.74 1450.39 Q1219.55 1450.39 1222.61 1455 Q1225.69 1459.58 1225.69 1468.33 Q1225.69 1477.06 1222.61 1481.67 Q1219.55 1486.25 1213.74 1486.25 Q1207.93 1486.25 1204.85 1481.67 Q1201.8 1477.06 1201.8 1468.33 Q1201.8 1459.58 1204.85 1455 Q1207.93 1450.39 1213.74 1450.39 Z" fill="#000000" fill-rule="nonzero" fill-opacity="1" /><path clip-path="url(#clip160)" d="M1689.65 1466.44 Q1686.5 1466.44 1684.65 1468.59 Q1682.82 1470.74 1682.82 1474.49 Q1682.82 1478.22 1684.65 1480.39 Q1686.5 1482.55 1689.65 1482.55 Q1692.8 1482.55 1694.63 1480.39 Q1696.48 1478.22 1696.48 1474.49 Q1696.48 1470.74 1694.63 1468.59 Q1692.8 1466.44 1689.65 1466.44 M1698.93 1451.78 L1698.93 1456.04 Q1697.17 1455.21 1695.37 1454.77 Q1693.59 1454.33 1691.83 1454.33 Q1687.2 1454.33 1684.74 1457.45 Q1682.31 1460.58 1681.97 1466.9 Q1683.33 1464.89 1685.39 1463.82 Q1687.45 1462.73 1689.93 1462.73 Q1695.14 1462.73 1698.15 1465.9 Q1701.18 1469.05 1701.18 1474.49 Q1701.18 1479.82 1698.03 1483.03 Q1694.88 1486.25 1689.65 1486.25 Q1683.65 1486.25 1680.48 1481.67 Q1677.31 1477.06 1677.31 1468.33 Q1677.31 1460.14 1681.2 1455.28 Q1685.09 1450.39 1691.64 1450.39 Q1693.4 1450.39 1695.18 1450.74 Q1696.99 1451.09 1698.93 1451.78 Z" fill="#000000" fill-rule="nonzero" fill-opacity="1" /><path clip-path="url(#clip160)" d="M1719.23 1454.1 Q1715.62 1454.1 1713.79 1457.66 Q1711.99 1461.2 1711.99 1468.33 Q1711.99 1475.44 1713.79 1479.01 Q1715.62 1482.55 1719.23 1482.55 Q1722.87 1482.55 1724.67 1479.01 Q1726.5 1475.44 1726.5 1468.33 Q1726.5 1461.2 1724.67 1457.66 Q1722.87 1454.1 1719.23 1454.1 M1719.23 1450.39 Q1725.04 1450.39 1728.1 1455 Q1731.18 1459.58 1731.18 1468.33 Q1731.18 1477.06 1728.1 1481.67 Q1725.04 1486.25 1719.23 1486.25 Q1713.42 1486.25 1710.34 1481.67 Q1707.29 1477.06 1707.29 1468.33 Q1707.29 1459.58 1710.34 1455 Q1713.42 1450.39 1719.23 1450.39 Z" fill="#000000" fill-rule="nonzero" fill-opacity="1" /><path clip-path="url(#clip160)" d="M2195.11 1469.17 Q2191.77 1469.17 2189.85 1470.95 Q2187.96 1472.73 2187.96 1475.86 Q2187.96 1478.98 2189.85 1480.77 Q2191.77 1482.55 2195.11 1482.55 Q2198.44 1482.55 2200.36 1480.77 Q2202.28 1478.96 2202.28 1475.86 Q2202.28 1472.73 2200.36 1470.95 Q2198.46 1469.17 2195.11 1469.17 M2190.43 1467.18 Q2187.42 1466.44 2185.73 1464.38 Q2184.07 1462.32 2184.07 1459.35 Q2184.07 1455.21 2187.01 1452.8 Q2189.97 1450.39 2195.11 1450.39 Q2200.27 1450.39 2203.21 1452.8 Q2206.15 1455.21 2206.15 1459.35 Q2206.15 1462.32 2204.46 1464.38 Q2202.79 1466.44 2199.81 1467.18 Q2203.19 1467.96 2205.06 1470.26 Q2206.96 1472.55 2206.96 1475.86 Q2206.96 1480.88 2203.88 1483.57 Q2200.83 1486.25 2195.11 1486.25 Q2189.39 1486.25 2186.31 1483.57 Q2183.26 1480.88 2183.26 1475.86 Q2183.26 1472.55 2185.15 1470.26 Q2187.05 1467.96 2190.43 1467.18 M2188.72 1459.79 Q2188.72 1462.48 2190.39 1463.98 Q2192.08 1465.49 2195.11 1465.49 Q2198.12 1465.49 2199.81 1463.98 Q2201.52 1462.48 2201.52 1459.79 Q2201.52 1457.11 2199.81 1455.6 Q2198.12 1454.1 2195.11 1454.1 Q2192.08 1454.1 2190.39 1455.6 Q2188.72 1457.11 2188.72 1459.79 Z" fill="#000000" fill-rule="nonzero" fill-opacity="1" /><path clip-path="url(#clip160)" d="M2225.27 1454.1 Q2221.66 1454.1 2219.83 1457.66 Q2218.02 1461.2 2218.02 1468.33 Q2218.02 1475.44 2219.83 1479.01 Q2221.66 1482.55 2225.27 1482.55 Q2228.9 1482.55 2230.71 1479.01 Q2232.54 1475.44 2232.54 1468.33 Q2232.54 1461.2 2230.71 1457.66 Q2228.9 1454.1 2225.27 1454.1 M2225.27 1450.39 Q2231.08 1450.39 2234.14 1455 Q2237.21 1459.58 2237.21 1468.33 Q2237.21 1477.06 2234.14 1481.67 Q2231.08 1486.25 2225.27 1486.25 Q2219.46 1486.25 2216.38 1481.67 Q2213.33 1477.06 2213.33 1468.33 Q2213.33 1459.58 2216.38 1455 Q2219.46 1450.39 2225.27 1450.39 Z" fill="#000000" fill-rule="nonzero" fill-opacity="1" /><path clip-path="url(#clip160)" d="M1268.58 1522.27 L1268.58 1532.4 L1280.64 1532.4 L1280.64 1536.95 L1268.58 1536.95 L1268.58 1556.3 Q1268.58 1560.66 1269.75 1561.9 Q1270.96 1563.14 1274.62 1563.14 L1280.64 1563.14 L1280.64 1568.04 L1274.62 1568.04 Q1267.84 1568.04 1265.27 1565.53 Q1262.69 1562.98 1262.69 1556.3 L1262.69 1536.95 L1258.39 1536.95 L1258.39 1532.4 L1262.69 1532.4 L1262.69 1522.27 L1268.58 1522.27 Z" fill="#000000" fill-rule="nonzero" fill-opacity="1" /><polyline clip-path="url(#clip160)" style="stroke:#000000; stroke-linecap:round; stroke-linejoin:round; stroke-width:4; stroke-opacity:1; fill:none" points="186.274,1423.18 186.274,47.2441 "/>
<polyline clip-path="url(#clip160)" style="stroke:#000000; stroke-linecap:round; stroke-linejoin:round; stroke-width:4; stroke-opacity:1; fill:none" points="186.274,1384.24 205.172,1384.24 "/>
<polyline clip-path="url(#clip160)" style="stroke:#000000; stroke-linecap:round; stroke-linejoin:round; stroke-width:4; stroke-opacity:1; fill:none" points="186.274,1057.33 205.172,1057.33 "/>
<polyline clip-path="url(#clip160)" style="stroke:#000000; stroke-linecap:round; stroke-linejoin:round; stroke-width:4; stroke-opacity:1; fill:none" points="186.274,730.418 205.172,730.418 "/>
<polyline clip-path="url(#clip160)" style="stroke:#000000; stroke-linecap:round; stroke-linejoin:round; stroke-width:4; stroke-opacity:1; fill:none" points="186.274,403.508 205.172,403.508 "/>
<polyline clip-path="url(#clip160)" style="stroke:#000000; stroke-linecap:round; stroke-linejoin:round; stroke-width:4; stroke-opacity:1; fill:none" points="186.274,76.5983 205.172,76.5983 "/>
<path clip-path="url(#clip160)" d="M62.9365 1370.04 Q59.3254 1370.04 57.4967 1373.6 Q55.6912 1377.14 55.6912 1384.27 Q55.6912 1391.38 57.4967 1394.94 Q59.3254 1398.49 62.9365 1398.49 Q66.5707 1398.49 68.3763 1394.94 Q70.205 1391.38 70.205 1384.27 Q70.205 1377.14 68.3763 1373.6 Q66.5707 1370.04 62.9365 1370.04 M62.9365 1366.33 Q68.7467 1366.33 71.8022 1370.94 Q74.8809 1375.52 74.8809 1384.27 Q74.8809 1393 71.8022 1397.61 Q68.7467 1402.19 62.9365 1402.19 Q57.1264 1402.19 54.0477 1397.61 Q50.9921 1393 50.9921 1384.27 Q50.9921 1375.52 54.0477 1370.94 Q57.1264 1366.33 62.9365 1366.33 Z" fill="#000000" fill-rule="nonzero" fill-opacity="1" /><path clip-path="url(#clip160)" d="M83.0984 1395.64 L87.9827 1395.64 L87.9827 1401.52 L83.0984 1401.52 L83.0984 1395.64 Z" fill="#000000" fill-rule="nonzero" fill-opacity="1" /><path clip-path="url(#clip160)" d="M108.168 1370.04 Q104.557 1370.04 102.728 1373.6 Q100.922 1377.14 100.922 1384.27 Q100.922 1391.38 102.728 1394.94 Q104.557 1398.49 108.168 1398.49 Q111.802 1398.49 113.608 1394.94 Q115.436 1391.38 115.436 1384.27 Q115.436 1377.14 113.608 1373.6 Q111.802 1370.04 108.168 1370.04 M108.168 1366.33 Q113.978 1366.33 117.033 1370.94 Q120.112 1375.52 120.112 1384.27 Q120.112 1393 117.033 1397.61 Q113.978 1402.19 108.168 1402.19 Q102.358 1402.19 99.2789 1397.61 Q96.2234 1393 96.2234 1384.27 Q96.2234 1375.52 99.2789 1370.94 Q102.358 1366.33 108.168 1366.33 Z" fill="#000000" fill-rule="nonzero" fill-opacity="1" /><path clip-path="url(#clip160)" d="M138.33 1370.04 Q134.719 1370.04 132.89 1373.6 Q131.084 1377.14 131.084 1384.27 Q131.084 1391.38 132.89 1394.94 Q134.719 1398.49 138.33 1398.49 Q141.964 1398.49 143.769 1394.94 Q145.598 1391.38 145.598 1384.27 Q145.598 1377.14 143.769 1373.6 Q141.964 1370.04 138.33 1370.04 M138.33 1366.33 Q144.14 1366.33 147.195 1370.94 Q150.274 1375.52 150.274 1384.27 Q150.274 1393 147.195 1397.61 Q144.14 1402.19 138.33 1402.19 Q132.519 1402.19 129.441 1397.61 Q126.385 1393 126.385 1384.27 Q126.385 1375.52 129.441 1370.94 Q132.519 1366.33 138.33 1366.33 Z" fill="#000000" fill-rule="nonzero" fill-opacity="1" /><path clip-path="url(#clip160)" d="M63.9319 1043.13 Q60.3208 1043.13 58.4921 1046.69 Q56.6865 1050.23 56.6865 1057.36 Q56.6865 1064.47 58.4921 1068.03 Q60.3208 1071.58 63.9319 1071.58 Q67.5661 1071.58 69.3717 1068.03 Q71.2004 1064.47 71.2004 1057.36 Q71.2004 1050.23 69.3717 1046.69 Q67.5661 1043.13 63.9319 1043.13 M63.9319 1039.42 Q69.742 1039.42 72.7976 1044.03 Q75.8763 1048.61 75.8763 1057.36 Q75.8763 1066.09 72.7976 1070.7 Q69.742 1075.28 63.9319 1075.28 Q58.1217 1075.28 55.043 1070.7 Q51.9875 1066.09 51.9875 1057.36 Q51.9875 1048.61 55.043 1044.03 Q58.1217 1039.42 63.9319 1039.42 Z" fill="#000000" fill-rule="nonzero" fill-opacity="1" /><path clip-path="url(#clip160)" d="M84.0938 1068.73 L88.978 1068.73 L88.978 1074.61 L84.0938 1074.61 L84.0938 1068.73 Z" fill="#000000" fill-rule="nonzero" fill-opacity="1" /><path clip-path="url(#clip160)" d="M103.191 1070.67 L119.51 1070.67 L119.51 1074.61 L97.566 1074.61 L97.566 1070.67 Q100.228 1067.92 104.811 1063.29 Q109.418 1058.64 110.598 1057.29 Q112.844 1054.77 113.723 1053.03 Q114.626 1051.28 114.626 1049.59 Q114.626 1046.83 112.682 1045.09 Q110.76 1043.36 107.658 1043.36 Q105.459 1043.36 103.006 1044.12 Q100.575 1044.89 97.7974 1046.44 L97.7974 1041.71 Q100.621 1040.58 103.075 1040 Q105.529 1039.42 107.566 1039.42 Q112.936 1039.42 116.131 1042.11 Q119.325 1044.79 119.325 1049.28 Q119.325 1051.41 118.515 1053.34 Q117.728 1055.23 115.621 1057.83 Q115.043 1058.5 111.941 1061.71 Q108.839 1064.91 103.191 1070.67 Z" fill="#000000" fill-rule="nonzero" fill-opacity="1" /><path clip-path="url(#clip160)" d="M129.371 1040.05 L147.728 1040.05 L147.728 1043.98 L133.654 1043.98 L133.654 1052.46 Q134.672 1052.11 135.691 1051.95 Q136.709 1051.76 137.728 1051.76 Q143.515 1051.76 146.894 1054.93 Q150.274 1058.1 150.274 1063.52 Q150.274 1069.1 146.802 1072.2 Q143.33 1075.28 137.01 1075.28 Q134.834 1075.28 132.566 1074.91 Q130.32 1074.54 127.913 1073.8 L127.913 1069.1 Q129.996 1070.23 132.219 1070.79 Q134.441 1071.34 136.918 1071.34 Q140.922 1071.34 143.26 1069.24 Q145.598 1067.13 145.598 1063.52 Q145.598 1059.91 143.26 1057.8 Q140.922 1055.7 136.918 1055.7 Q135.043 1055.7 133.168 1056.11 Q131.316 1056.53 129.371 1057.41 L129.371 1040.05 Z" fill="#000000" fill-rule="nonzero" fill-opacity="1" /><path clip-path="url(#clip160)" d="M62.9365 716.217 Q59.3254 716.217 57.4967 719.782 Q55.6912 723.323 55.6912 730.453 Q55.6912 737.559 57.4967 741.124 Q59.3254 744.666 62.9365 744.666 Q66.5707 744.666 68.3763 741.124 Q70.205 737.559 70.205 730.453 Q70.205 723.323 68.3763 719.782 Q66.5707 716.217 62.9365 716.217 M62.9365 712.513 Q68.7467 712.513 71.8022 717.12 Q74.8809 721.703 74.8809 730.453 Q74.8809 739.18 71.8022 743.786 Q68.7467 748.37 62.9365 748.37 Q57.1264 748.37 54.0477 743.786 Q50.9921 739.18 50.9921 730.453 Q50.9921 721.703 54.0477 717.12 Q57.1264 712.513 62.9365 712.513 Z" fill="#000000" fill-rule="nonzero" fill-opacity="1" /><path clip-path="url(#clip160)" d="M83.0984 741.819 L87.9827 741.819 L87.9827 747.698 L83.0984 747.698 L83.0984 741.819 Z" fill="#000000" fill-rule="nonzero" fill-opacity="1" /><path clip-path="url(#clip160)" d="M98.2141 713.138 L116.57 713.138 L116.57 717.073 L102.496 717.073 L102.496 725.546 Q103.515 725.198 104.534 725.036 Q105.552 724.851 106.571 724.851 Q112.358 724.851 115.737 728.022 Q119.117 731.194 119.117 736.61 Q119.117 742.189 115.645 745.291 Q112.172 748.37 105.853 748.37 Q103.677 748.37 101.409 747.999 Q99.1632 747.629 96.7558 746.888 L96.7558 742.189 Q98.8391 743.323 101.061 743.879 Q103.284 744.434 105.76 744.434 Q109.765 744.434 112.103 742.328 Q114.441 740.221 114.441 736.61 Q114.441 732.999 112.103 730.893 Q109.765 728.786 105.76 728.786 Q103.885 728.786 102.01 729.203 Q100.159 729.62 98.2141 730.499 L98.2141 713.138 Z" fill="#000000" fill-rule="nonzero" fill-opacity="1" /><path clip-path="url(#clip160)" d="M138.33 716.217 Q134.719 716.217 132.89 719.782 Q131.084 723.323 131.084 730.453 Q131.084 737.559 132.89 741.124 Q134.719 744.666 138.33 744.666 Q141.964 744.666 143.769 741.124 Q145.598 737.559 145.598 730.453 Q145.598 723.323 143.769 719.782 Q141.964 716.217 138.33 716.217 M138.33 712.513 Q144.14 712.513 147.195 717.12 Q150.274 721.703 150.274 730.453 Q150.274 739.18 147.195 743.786 Q144.14 748.37 138.33 748.37 Q132.519 748.37 129.441 743.786 Q126.385 739.18 126.385 730.453 Q126.385 721.703 129.441 717.12 Q132.519 712.513 138.33 712.513 Z" fill="#000000" fill-rule="nonzero" fill-opacity="1" /><path clip-path="url(#clip160)" d="M63.9319 389.307 Q60.3208 389.307 58.4921 392.872 Q56.6865 396.413 56.6865 403.543 Q56.6865 410.649 58.4921 414.214 Q60.3208 417.756 63.9319 417.756 Q67.5661 417.756 69.3717 414.214 Q71.2004 410.649 71.2004 403.543 Q71.2004 396.413 69.3717 392.872 Q67.5661 389.307 63.9319 389.307 M63.9319 385.603 Q69.742 385.603 72.7976 390.21 Q75.8763 394.793 75.8763 403.543 Q75.8763 412.27 72.7976 416.876 Q69.742 421.46 63.9319 421.46 Q58.1217 421.46 55.043 416.876 Q51.9875 412.27 51.9875 403.543 Q51.9875 394.793 55.043 390.21 Q58.1217 385.603 63.9319 385.603 Z" fill="#000000" fill-rule="nonzero" fill-opacity="1" /><path clip-path="url(#clip160)" d="M84.0938 414.909 L88.978 414.909 L88.978 420.788 L84.0938 420.788 L84.0938 414.909 Z" fill="#000000" fill-rule="nonzero" fill-opacity="1" /><path clip-path="url(#clip160)" d="M97.9826 386.228 L120.205 386.228 L120.205 388.219 L107.658 420.788 L102.774 420.788 L114.58 390.163 L97.9826 390.163 L97.9826 386.228 Z" fill="#000000" fill-rule="nonzero" fill-opacity="1" /><path clip-path="url(#clip160)" d="M129.371 386.228 L147.728 386.228 L147.728 390.163 L133.654 390.163 L133.654 398.636 Q134.672 398.288 135.691 398.126 Q136.709 397.941 137.728 397.941 Q143.515 397.941 146.894 401.112 Q150.274 404.284 150.274 409.7 Q150.274 415.279 146.802 418.381 Q143.33 421.46 137.01 421.46 Q134.834 421.46 132.566 421.089 Q130.32 420.719 127.913 419.978 L127.913 415.279 Q129.996 416.413 132.219 416.969 Q134.441 417.524 136.918 417.524 Q140.922 417.524 143.26 415.418 Q145.598 413.311 145.598 409.7 Q145.598 406.089 143.26 403.983 Q140.922 401.876 136.918 401.876 Q135.043 401.876 133.168 402.293 Q131.316 402.71 129.371 403.589 L129.371 386.228 Z" fill="#000000" fill-rule="nonzero" fill-opacity="1" /><path clip-path="url(#clip160)" d="M53.7467 89.9431 L61.3856 89.9431 L61.3856 63.5775 L53.0754 65.2442 L53.0754 60.985 L61.3393 59.3183 L66.0152 59.3183 L66.0152 89.9431 L73.654 89.9431 L73.654 93.8783 L53.7467 93.8783 L53.7467 89.9431 Z" fill="#000000" fill-rule="nonzero" fill-opacity="1" /><path clip-path="url(#clip160)" d="M83.0984 87.9987 L87.9827 87.9987 L87.9827 93.8783 L83.0984 93.8783 L83.0984 87.9987 Z" fill="#000000" fill-rule="nonzero" fill-opacity="1" /><path clip-path="url(#clip160)" d="M108.168 62.397 Q104.557 62.397 102.728 65.9618 Q100.922 69.5034 100.922 76.633 Q100.922 83.7395 102.728 87.3043 Q104.557 90.8459 108.168 90.8459 Q111.802 90.8459 113.608 87.3043 Q115.436 83.7395 115.436 76.633 Q115.436 69.5034 113.608 65.9618 Q111.802 62.397 108.168 62.397 M108.168 58.6933 Q113.978 58.6933 117.033 63.2998 Q120.112 67.8831 120.112 76.633 Q120.112 85.3598 117.033 89.9663 Q113.978 94.5496 108.168 94.5496 Q102.358 94.5496 99.2789 89.9663 Q96.2234 85.3598 96.2234 76.633 Q96.2234 67.8831 99.2789 63.2998 Q102.358 58.6933 108.168 58.6933 Z" fill="#000000" fill-rule="nonzero" fill-opacity="1" /><path clip-path="url(#clip160)" d="M138.33 62.397 Q134.719 62.397 132.89 65.9618 Q131.084 69.5034 131.084 76.633 Q131.084 83.7395 132.89 87.3043 Q134.719 90.8459 138.33 90.8459 Q141.964 90.8459 143.769 87.3043 Q145.598 83.7395 145.598 76.633 Q145.598 69.5034 143.769 65.9618 Q141.964 62.397 138.33 62.397 M138.33 58.6933 Q144.14 58.6933 147.195 63.2998 Q150.274 67.8831 150.274 76.633 Q150.274 85.3598 147.195 89.9663 Q144.14 94.5496 138.33 94.5496 Q132.519 94.5496 129.441 89.9663 Q126.385 85.3598 126.385 76.633 Q126.385 67.8831 129.441 63.2998 Q132.519 58.6933 138.33 58.6933 Z" fill="#000000" fill-rule="nonzero" fill-opacity="1" /><polyline clip-path="url(#clip161)" style="stroke:#009af9; stroke-linecap:round; stroke-linejoin:round; stroke-width:4; stroke-opacity:1; fill:none" points="186.274,1384.24 187.506,1130.64 188.737,911.847 189.969,728.102 191.201,576.921 192.432,454.239 193.664,355.928 194.896,278.237 196.127,217.879 197.359,172.01 198.591,138.192 199.822,114.343 201.054,98.6891 202.286,89.7276 203.517,86.1857 204.749,86.9902 205.98,91.2387 207.212,98.175 208.444,107.168 209.675,117.692 210.907,129.313 212.139,141.675 213.37,154.485 214.602,167.506 215.834,180.548 217.065,193.461 218.297,206.125 219.529,218.45 220.76,230.368 221.992,241.829 223.224,252.801 224.455,263.261 225.687,273.199 226.919,282.614 228.15,291.508 229.382,299.892 230.614,307.779 231.845,315.186 233.077,322.131 234.309,328.634 235.54,334.718 236.772,340.403 238.004,345.711 239.235,350.665 240.467,355.285 241.698,359.593 242.93,363.609 244.162,367.351 245.393,370.84 246.625,374.092 247.857,377.124 249.088,379.953 250.32,382.593 251.552,385.058 252.783,387.362 254.015,389.516 255.247,391.534 256.478,393.424 257.71,395.198 258.942,396.864 260.173,398.432 261.405,399.908 262.637,401.302 263.868,402.618 265.1,403.865 266.332,405.047 267.563,406.17 268.795,407.239 270.027,408.259 271.258,409.233 272.49,410.165 273.722,411.06 274.953,411.92 276.185,412.748 277.417,413.548 278.648,414.321 279.88,415.069 281.111,415.796 282.343,416.502 283.575,417.19 284.806,417.86 286.038,418.516 287.27,419.158 288.501,419.786 289.733,420.403 290.965,421.009 292.196,421.606 293.428,422.194 294.66,422.773 295.891,423.345 297.123,423.911 298.355,424.47 299.586,425.023 300.818,425.571 302.05,426.115 303.281,426.654 304.513,427.19 305.745,427.721 306.976,428.25 308.208,428.775 309.44,429.297 310.671,429.817 311.903,430.335 313.135,430.85 314.366,431.364 315.598,431.876 316.829,432.386 318.061,432.894 319.293,433.401 320.524,433.907 321.756,434.411 322.988,434.915 324.219,435.417 325.451,435.918 326.683,436.419 327.914,436.918 329.146,437.417 330.378,437.915 331.609,438.412 332.841,438.909 334.073,439.405 335.304,439.9 336.536,440.395 337.768,440.889 338.999,441.383 340.231,441.876 341.463,442.369 342.694,442.861 343.926,443.353 345.158,443.845 346.389,444.336 347.621,444.827 348.853,445.317 350.084,445.807 351.316,446.297 352.547,446.786 353.779,447.275 355.011,447.764 356.242,448.253 357.474,448.741 358.706,449.228 359.937,449.716 361.169,450.203 362.401,450.69 363.632,451.176 364.864,451.663 366.096,452.149 367.327,452.635 368.559,453.12 369.791,453.605 371.022,454.09 372.254,454.575 373.486,455.059 374.717,455.543 375.949,456.027 377.181,456.511 378.412,456.994 379.644,457.477 380.876,457.96 382.107,458.442 383.339,458.925 384.571,459.407 385.802,459.888 387.034,460.37 388.265,460.851 389.497,461.332 390.729,461.813 391.96,462.293 393.192,462.774 394.424,463.254 395.655,463.733 396.887,464.213 398.119,464.692 399.35,465.171 400.582,465.65 401.814,466.128 403.045,466.606 404.277,467.084 405.509,467.562 406.74,468.039 407.972,468.517 409.204,468.994 410.435,469.47 411.667,469.947 412.899,470.423 414.13,470.899 415.362,471.375 416.594,471.85 417.825,472.325 419.057,472.8 420.289,473.275 421.52,473.75 422.752,474.224 423.983,474.698 425.215,475.172 426.447,475.645 427.678,476.118 428.91,476.591 430.142,477.064 431.373,477.537 432.605,478.009 433.837,478.481 435.068,478.953 436.3,479.424 437.532,479.895 438.763,480.366 439.995,480.837 441.227,481.308 442.458,481.778 443.69,482.248 444.922,482.718 446.153,483.187 447.385,483.657 448.617,484.126 449.848,484.595 451.08,485.063 452.312,485.532 453.543,486 454.775,486.467 456.007,486.935 457.238,487.402 458.47,487.87 459.702,488.336 460.933,488.803 462.165,489.269 463.396,489.736 464.628,490.202 465.86,490.667 467.091,491.133 468.323,491.598 469.555,492.063 470.786,492.527 472.018,492.992 473.25,493.456 474.481,493.92 475.713,494.384 476.945,494.847 478.176,495.31 479.408,495.773 480.64,496.236 481.871,496.699 483.103,497.161 484.335,497.623 485.566,498.085 486.798,498.546 488.03,499.008 489.261,499.469 490.493,499.93 491.725,500.39 492.956,500.851 494.188,501.311 495.42,501.771 496.651,502.23 497.883,502.69 499.114,503.149 500.346,503.608 501.578,504.066 502.809,504.525 504.041,504.983 505.273,505.441 506.504,505.899 507.736,506.356 508.968,506.813 510.199,507.27 511.431,507.727 512.663,508.184 513.894,508.64 515.126,509.096 516.358,509.552 517.589,510.007 518.821,510.463 520.053,510.918 521.284,511.373 522.516,511.827 523.748,512.282 524.979,512.736 526.211,513.19 527.443,513.644 528.674,514.097 529.906,514.55 531.138,515.003 532.369,515.456 533.601,515.908 534.832,516.361 536.064,516.813 537.296,517.265 538.527,517.716 539.759,518.167 540.991,518.619 542.222,519.069 543.454,519.52 544.686,519.97 545.917,520.421 547.149,520.87 548.381,521.32 549.612,521.77 550.844,522.219 552.076,522.668 553.307,523.117 554.539,523.565 555.771,524.013 557.002,524.461 558.234,524.909 559.466,525.357 560.697,525.804 561.929,526.251 563.161,526.698 564.392,527.145 565.624,527.591 566.856,528.037 568.087,528.483 569.319,528.929 570.55,529.375 571.782,529.82 573.014,530.265 574.245,530.71 575.477,531.154 576.709,531.599 577.94,532.043 579.172,532.487 580.404,532.93 581.635,533.374 582.867,533.817 584.099,534.26 585.33,534.702 586.562,535.145 587.794,535.587 589.025,536.029 590.257,536.471 591.489,536.913 592.72,537.354 593.952,537.795 595.184,538.236 596.415,538.676 597.647,539.117 598.879,539.557 600.11,539.997 601.342,540.437 602.574,540.876 603.805,541.315 605.037,541.755 606.269,542.193 607.5,542.632 608.732,543.07 609.963,543.508 611.195,543.946 612.427,544.384 613.658,544.821 614.89,545.259 616.122,545.696 617.353,546.132 618.585,546.569 619.817,547.005 621.048,547.441 622.28,547.877 623.512,548.313 624.743,548.748 625.975,549.183 627.207,549.618 628.438,550.053 629.67,550.487 630.902,550.922 632.133,551.356 633.365,551.79 634.597,552.223 635.828,552.656 637.06,553.09 638.292,553.522 639.523,553.955 640.755,554.388 641.987,554.82 643.218,555.252 644.45,555.684 645.681,556.115 646.913,556.547 648.145,556.978 649.376,557.408 650.608,557.839 651.84,558.27 653.071,558.7 654.303,559.13 655.535,559.56 656.766,559.989 657.998,560.418 659.23,560.847 660.461,561.276 661.693,561.705 662.925,562.133 664.156,562.562 665.388,562.99 666.62,563.417 667.851,563.845 669.083,564.272 670.315,564.699 671.546,565.126 672.778,565.553 674.01,565.979 675.241,566.405 676.473,566.831 677.705,567.257 678.936,567.683 680.168,568.108 681.399,568.533 682.631,568.958 683.863,569.382 685.094,569.807 686.326,570.231 687.558,570.655 688.789,571.079 690.021,571.502 691.253,571.926 692.484,572.349 693.716,572.772 694.948,573.194 696.179,573.617 697.411,574.039 698.643,574.461 699.874,574.883 701.106,575.304 702.338,575.726 703.569,576.147 704.801,576.568 706.033,576.988 707.264,577.409 708.496,577.829 709.728,578.249 710.959,578.669 712.191,579.088 713.423,579.508 714.654,579.927 715.886,580.346 717.117,580.764 718.349,581.183 719.581,581.601 720.812,582.019 722.044,582.437 723.276,582.855 724.507,583.272 725.739,583.689 726.971,584.106 728.202,584.523 729.434,584.94 730.666,585.356 731.897,585.772 733.129,586.188 734.361,586.604 735.592,587.019 736.824,587.434 738.056,587.849 739.287,588.264 740.519,588.679 741.751,589.093 742.982,589.507 744.214,589.921 745.446,590.335 746.677,590.748 747.909,591.162 749.141,591.575 750.372,591.988 751.604,592.4 752.835,592.813 754.067,593.225 755.299,593.637 756.53,594.049 757.762,594.46 758.994,594.872 760.225,595.283 761.457,595.694 762.689,596.104 763.92,596.515 765.152,596.925 766.384,597.335 767.615,597.745 768.847,598.155 770.079,598.564 771.31,598.973 772.542,599.382 773.774,599.791 775.005,600.2 776.237,600.608 777.469,601.016 778.7,601.424 779.932,601.832 781.164,602.239 782.395,602.647 783.627,603.054 784.859,603.461 786.09,603.867 787.322,604.274 788.554,604.68 789.785,605.086 791.017,605.492 792.248,605.898 793.48,606.303 794.712,606.708 795.943,607.113 797.175,607.518 798.407,607.922 799.638,608.327 800.87,608.731 802.102,609.135 803.333,609.539 804.565,609.942 805.797,610.345 807.028,610.748 808.26,611.151 809.492,611.554 810.723,611.956 811.955,612.359 813.187,612.761 814.418,613.163 815.65,613.564 816.882,613.966 818.113,614.367 819.345,614.768 820.577,615.169 821.808,615.569 823.04,615.969 824.272,616.37 825.503,616.77 826.735,617.169 827.966,617.569 829.198,617.968 830.43,618.367 831.661,618.766 832.893,619.165 834.125,619.563 835.356,619.962 836.588,620.36 837.82,620.758 839.051,621.155 840.283,621.553 841.515,621.95 842.746,622.347 843.978,622.744 845.21,623.14 846.441,623.537 847.673,623.933 848.905,624.329 850.136,624.725 851.368,625.12 852.6,625.516 853.831,625.911 855.063,626.306 856.295,626.701 857.526,627.095 858.758,627.49 859.99,627.884 861.221,628.278 862.453,628.672 863.684,629.065 864.916,629.458 866.148,629.852 867.379,630.244 868.611,630.637 869.843,631.03 871.074,631.422 872.306,631.814 873.538,632.206 874.769,632.598 876.001,632.989 877.233,633.38 878.464,633.772 879.696,634.162 880.928,634.553 882.159,634.944 883.391,635.334 884.623,635.724 885.854,636.114 887.086,636.503 888.318,636.893 889.549,637.282 890.781,637.671 892.013,638.06 893.244,638.449 894.476,638.837 895.708,639.225 896.939,639.613 898.171,640.001 899.402,640.389 900.634,640.776 901.866,641.164 903.097,641.551 904.329,641.937 905.561,642.324 906.792,642.711 908.024,643.097 909.256,643.483 910.487,643.869 911.719,644.254 912.951,644.64 914.182,645.025 915.414,645.41 916.646,645.795 917.877,646.179 919.109,646.564 920.341,646.948 921.572,647.332 922.804,647.716 924.036,648.099 925.267,648.483 926.499,648.866 927.731,649.249 928.962,649.632 930.194,650.015 931.426,650.397 932.657,650.779 933.889,651.161 935.121,651.543 936.352,651.925 937.584,652.306 938.815,652.687 940.047,653.068 941.279,653.449 942.51,653.83 943.742,654.21 944.974,654.59 946.205,654.97 947.437,655.35 948.669,655.73 949.9,656.109 951.132,656.489 952.364,656.868 953.595,657.247 954.827,657.625 956.059,658.004 957.29,658.382 958.522,658.76 959.754,659.138 960.985,659.516 962.217,659.893 963.449,660.27 964.68,660.647 965.912,661.024 967.144,661.401 968.375,661.777 969.607,662.154 970.839,662.53 972.07,662.906 973.302,663.281 974.533,663.657 975.765,664.032 976.997,664.407 978.228,664.782 979.46,665.157 980.692,665.532 981.923,665.906 983.155,666.28 984.387,666.654 985.618,667.028 986.85,667.401 988.082,667.775 989.313,668.148 990.545,668.521 991.777,668.894 993.008,669.266 994.24,669.639 995.472,670.011 996.703,670.383 997.935,670.755 999.167,671.126 1000.4,671.498 1001.63,671.869 1002.86,672.24 1004.09,672.611 1005.32,672.981 1006.56,673.352 1007.79,673.722 1009.02,674.092 1010.25,674.462 1011.48,674.832 1012.71,675.201 1013.95,675.571 1015.18,675.94 1016.41,676.309 1017.64,676.677 1018.87,677.046 1020.1,677.414 1021.34,677.782 1022.57,678.15 1023.8,678.518 1025.03,678.886 1026.26,679.253 1027.49,679.62 1028.73,679.987 1029.96,680.354 1031.19,680.721 1032.42,681.087 1033.65,681.453 1034.88,681.819 1036.12,682.185 1037.35,682.551 1038.58,682.916 1039.81,683.282 1041.04,683.647 1042.27,684.012 1043.51,684.376 1044.74,684.741 1045.97,685.105 1047.2,685.469 1048.43,685.833 1049.66,686.197 1050.9,686.561 1052.13,686.924 1053.36,687.287 1054.59,687.65 1055.82,688.013 1057.05,688.376 1058.29,688.738 1059.52,689.1 1060.75,689.462 1061.98,689.824 1063.21,690.186 1064.44,690.548 1065.68,690.909 1066.91,691.27 1068.14,691.631 1069.37,691.992 1070.6,692.352 1071.83,692.713 1073.07,693.073 1074.3,693.433 1075.53,693.793 1076.76,694.152 1077.99,694.512 1079.22,694.871 1080.46,695.23 1081.69,695.589 1082.92,695.947 1084.15,696.306 1085.38,696.664 1086.61,697.022 1087.85,697.38 1089.08,697.738 1090.31,698.096 1091.54,698.453 1092.77,698.81 1094,699.167 1095.24,699.524 1096.47,699.881 1097.7,700.237 1098.93,700.593 1100.16,700.949 1101.39,701.305 1102.63,701.661 1103.86,702.017 1105.09,702.372 1106.32,702.727 1107.55,703.082 1108.78,703.437 1110.02,703.791 1111.25,704.146 1112.48,704.5 1113.71,704.854 1114.94,705.208 1116.17,705.562 1117.41,705.915 1118.64,706.268 1119.87,706.622 1121.1,706.974 1122.33,707.327 1123.56,707.68 1124.8,708.032 1126.03,708.384 1127.26,708.736 1128.49,709.088 1129.72,709.44 1130.95,709.791 1132.19,710.143 1133.42,710.494 1134.65,710.845 1135.88,711.195 1137.11,711.546 1138.34,711.896 1139.58,712.247 1140.81,712.597 1142.04,712.946 1143.27,713.296 1144.5,713.645 1145.73,713.995 1146.97,714.344 1148.2,714.693 1149.43,715.042 1150.66,715.39 1151.89,715.738 1153.12,716.087 1154.36,716.435 1155.59,716.782 1156.82,717.13 1158.05,717.478 1159.28,717.825 1160.51,718.172 1161.75,718.519 1162.98,718.866 1164.21,719.212 1165.44,719.559 1166.67,719.905 1167.9,720.251 1169.14,720.597 1170.37,720.942 1171.6,721.288 1172.83,721.633 1174.06,721.978 1175.29,722.323 1176.52,722.668 1177.76,723.012 1178.99,723.357 1180.22,723.701 1181.45,724.045 1182.68,724.389 1183.91,724.733 1185.15,725.076 1186.38,725.419 1187.61,725.763 1188.84,726.106 1190.07,726.448 1191.3,726.791 1192.54,727.133 1193.77,727.476 1195,727.818 1196.23,728.16 1197.46,728.501 1198.69,728.843 1199.93,729.184 1201.16,729.525 1202.39,729.866 1203.62,730.207 1204.85,730.548 1206.08,730.888 1207.32,731.229 1208.55,731.569 1209.78,731.909 1211.01,732.249 1212.24,732.588 1213.47,732.928 1214.71,733.267 1215.94,733.606 1217.17,733.945 1218.4,734.283 1219.63,734.622 1220.86,734.96 1222.1,735.299 1223.33,735.637 1224.56,735.974 1225.79,736.312 1227.02,736.649 1228.25,736.987 1229.49,737.324 1230.72,737.661 1231.95,737.998 1233.18,738.334 1234.41,738.671 1235.64,739.007 1236.88,739.343 1238.11,739.679 1239.34,740.015 1240.57,740.35 1241.8,740.685 1243.03,741.021 1244.27,741.356 1245.5,741.691 1246.73,742.025 1247.96,742.36 1249.19,742.694 1250.42,743.028 1251.66,743.362 1252.89,743.696 1254.12,744.03 1255.35,744.363 1256.58,744.696 1257.81,745.029 1259.05,745.362 1260.28,745.695 1261.51,746.028 1262.74,746.36 1263.97,746.692 1265.2,747.024 1266.44,747.356 1267.67,747.688 1268.9,748.02 1270.13,748.351 1271.36,748.682 1272.59,749.013 1273.83,749.344 1275.06,749.675 1276.29,750.005 1277.52,750.336 1278.75,750.666 1279.98,750.996 1281.22,751.326 1282.45,751.655 1283.68,751.985 1284.91,752.314 1286.14,752.643 1287.37,752.972 1288.61,753.301 1289.84,753.63 1291.07,753.958 1292.3,754.286 1293.53,754.614 1294.76,754.942 1296,755.27 1297.23,755.598 1298.46,755.925 1299.69,756.252 1300.92,756.579 1302.15,756.906 1303.39,757.233 1304.62,757.56 1305.85,757.886 1307.08,758.212 1308.31,758.538 1309.54,758.864 1310.78,759.19 1312.01,759.516 1313.24,759.841 1314.47,760.166 1315.7,760.491 1316.93,760.816 1318.17,761.141 1319.4,761.465 1320.63,761.79 1321.86,762.114 1323.09,762.438 1324.32,762.762 1325.56,763.086 1326.79,763.409 1328.02,763.732 1329.25,764.056 1330.48,764.379 1331.71,764.701 1332.95,765.024 1334.18,765.347 1335.41,765.669 1336.64,765.991 1337.87,766.313 1339.1,766.635 1340.34,766.957 1341.57,767.278 1342.8,767.6 1344.03,767.921 1345.26,768.242 1346.49,768.563 1347.73,768.883 1348.96,769.204 1350.19,769.524 1351.42,769.844 1352.65,770.164 1353.88,770.484 1355.12,770.804 1356.35,771.123 1357.58,771.443 1358.81,771.762 1360.04,772.081 1361.27,772.4 1362.5,772.718 1363.74,773.037 1364.97,773.355 1366.2,773.673 1367.43,773.991 1368.66,774.309 1369.89,774.627 1371.13,774.945 1372.36,775.262 1373.59,775.579 1374.82,775.896 1376.05,776.213 1377.28,776.53 1378.52,776.846 1379.75,777.163 1380.98,777.479 1382.21,777.795 1383.44,778.111 1384.67,778.426 1385.91,778.742 1387.14,779.057 1388.37,779.372 1389.6,779.687 1390.83,780.002 1392.06,780.317 1393.3,780.632 1394.53,780.946 1395.76,781.26 1396.99,781.574 1398.22,781.888 1399.45,782.202 1400.69,782.516 1401.92,782.829 1403.15,783.142 1404.38,783.455 1405.61,783.768 1406.84,784.081 1408.08,784.394 1409.31,784.706 1410.54,785.018 1411.77,785.33 1413,785.642 1414.23,785.954 1415.47,786.266 1416.7,786.577 1417.93,786.888 1419.16,787.2 1420.39,787.511 1421.62,787.821 1422.86,788.132 1424.09,788.442 1425.32,788.753 1426.55,789.063 1427.78,789.373 1429.01,789.683 1430.25,789.992 1431.48,790.302 1432.71,790.611 1433.94,790.92 1435.17,791.23 1436.4,791.538 1437.64,791.847 1438.87,792.156 1440.1,792.464 1441.33,792.772 1442.56,793.08 1443.79,793.388 1445.03,793.696 1446.26,794.004 1447.49,794.311 1448.72,794.618 1449.95,794.925 1451.18,795.232 1452.42,795.539 1453.65,795.846 1454.88,796.152 1456.11,796.458 1457.34,796.765 1458.57,797.071 1459.81,797.376 1461.04,797.682 1462.27,797.988 1463.5,798.293 1464.73,798.598 1465.96,798.903 1467.2,799.208 1468.43,799.513 1469.66,799.817 1470.89,800.122 1472.12,800.426 1473.35,800.73 1474.59,801.034 1475.82,801.338 1477.05,801.641 1478.28,801.945 1479.51,802.248 1480.74,802.551 1481.98,802.854 1483.21,803.157 1484.44,803.46 1485.67,803.762 1486.9,804.064 1488.13,804.367 1489.37,804.669 1490.6,804.971 1491.83,805.272 1493.06,805.574 1494.29,805.875 1495.52,806.176 1496.76,806.478 1497.99,806.778 1499.22,807.079 1500.45,807.38 1501.68,807.68 1502.91,807.981 1504.15,808.281 1505.38,808.581 1506.61,808.881 1507.84,809.18 1509.07,809.48 1510.3,809.779 1511.54,810.078 1512.77,810.377 1514,810.676 1515.23,810.975 1516.46,811.274 1517.69,811.572 1518.93,811.87 1520.16,812.168 1521.39,812.466 1522.62,812.764 1523.85,813.062 1525.08,813.359 1526.32,813.657 1527.55,813.954 1528.78,814.251 1530.01,814.548 1531.24,814.845 1532.47,815.141 1533.71,815.438 1534.94,815.734 1536.17,816.03 1537.4,816.326 1538.63,816.622 1539.86,816.917 1541.09,817.213 1542.33,817.508 1543.56,817.803 1544.79,818.098 1546.02,818.393 1547.25,818.688 1548.48,818.982 1549.72,819.277 1550.95,819.571 1552.18,819.865 1553.41,820.159 1554.64,820.453 1555.87,820.747 1557.11,821.04 1558.34,821.333 1559.57,821.627 1560.8,821.92 1562.03,822.213 1563.26,822.505 1564.5,822.798 1565.73,823.09 1566.96,823.383 1568.19,823.675 1569.42,823.967 1570.65,824.259 1571.89,824.55 1573.12,824.842 1574.35,825.133 1575.58,825.424 1576.81,825.715 1578.04,826.006 1579.28,826.297 1580.51,826.588 1581.74,826.878 1582.97,827.168 1584.2,827.459 1585.43,827.749 1586.67,828.038 1587.9,828.328 1589.13,828.618 1590.36,828.907 1591.59,829.196 1592.82,829.485 1594.06,829.774 1595.29,830.063 1596.52,830.352 1597.75,830.64 1598.98,830.929 1600.21,831.217 1601.45,831.505 1602.68,831.793 1603.91,832.08 1605.14,832.368 1606.37,832.655 1607.6,832.943 1608.84,833.23 1610.07,833.517 1611.3,833.804 1612.53,834.09 1613.76,834.377 1614.99,834.663 1616.23,834.95 1617.46,835.236 1618.69,835.522 1619.92,835.807 1621.15,836.093 1622.38,836.379 1623.62,836.664 1624.85,836.949 1626.08,837.234 1627.31,837.519 1628.54,837.804 1629.77,838.089 1631.01,838.373 1632.24,838.657 1633.47,838.941 1634.7,839.225 1635.93,839.509 1637.16,839.793 1638.4,840.077 1639.63,840.36 1640.86,840.643 1642.09,840.926 1643.32,841.209 1644.55,841.492 1645.79,841.775 1647.02,842.058 1648.25,842.34 1649.48,842.622 1650.71,842.904 1651.94,843.186 1653.18,843.468 1654.41,843.75 1655.64,844.031 1656.87,844.313 1658.1,844.594 1659.33,844.875 1660.57,845.156 1661.8,845.437 1663.03,845.717 1664.26,845.998 1665.49,846.278 1666.72,846.558 1667.96,846.838 1669.19,847.118 1670.42,847.398 1671.65,847.678 1672.88,847.957 1674.11,848.236 1675.35,848.516 1676.58,848.795 1677.81,849.073 1679.04,849.352 1680.27,849.631 1681.5,849.909 1682.74,850.188 1683.97,850.466 1685.2,850.744 1686.43,851.022 1687.66,851.299 1688.89,851.577 1690.13,851.854 1691.36,852.132 1692.59,852.409 1693.82,852.686 1695.05,852.963 1696.28,853.239 1697.52,853.516 1698.75,853.792 1699.98,854.069 1701.21,854.345 1702.44,854.621 1703.67,854.897 1704.91,855.172 1706.14,855.448 1707.37,855.723 1708.6,855.999 1709.83,856.274 1711.06,856.549 1712.3,856.824 1713.53,857.098 1714.76,857.373 1715.99,857.647 1717.22,857.922 1718.45,858.196 1719.69,858.47 1720.92,858.744 1722.15,859.017 1723.38,859.291 1724.61,859.564 1725.84,859.837 1727.07,860.111 1728.31,860.384 1729.54,860.656 1730.77,860.929 1732,861.202 1733.23,861.474 1734.46,861.746 1735.7,862.019 1736.93,862.291 1738.16,862.562 1739.39,862.834 1740.62,863.106 1741.85,863.377 1743.09,863.648 1744.32,863.92 1745.55,864.191 1746.78,864.461 1748.01,864.732 1749.24,865.003 1750.48,865.273 1751.71,865.544 1752.94,865.814 1754.17,866.084 1755.4,866.354 1756.63,866.623 1757.87,866.893 1759.1,867.162 1760.33,867.432 1761.56,867.701 1762.79,867.97 1764.02,868.239 1765.26,868.508 1766.49,868.776 1767.72,869.045 1768.95,869.313 1770.18,869.581 1771.41,869.849 1772.65,870.117 1773.88,870.385 1775.11,870.653 1776.34,870.92 1777.57,871.188 1778.8,871.455 1780.04,871.722 1781.27,871.989 1782.5,872.256 1783.73,872.522 1784.96,872.789 1786.19,873.055 1787.43,873.321 1788.66,873.588 1789.89,873.853 1791.12,874.119 1792.35,874.385 1793.58,874.651 1794.82,874.916 1796.05,875.181 1797.28,875.446 1798.51,875.711 1799.74,875.976 1800.97,876.241 1802.21,876.506 1803.44,876.77 1804.67,877.034 1805.9,877.299 1807.13,877.563 1808.36,877.826 1809.6,878.09 1810.83,878.354 1812.06,878.617 1813.29,878.881 1814.52,879.144 1815.75,879.407 1816.99,879.67 1818.22,879.933 1819.45,880.195 1820.68,880.458 1821.91,880.72 1823.14,880.983 1824.38,881.245 1825.61,881.507 1826.84,881.769 1828.07,882.03 1829.3,882.292 1830.53,882.553 1831.77,882.815 1833,883.076 1834.23,883.337 1835.46,883.598 1836.69,883.858 1837.92,884.119 1839.16,884.38 1840.39,884.64 1841.62,884.9 1842.85,885.16 1844.08,885.42 1845.31,885.68 1846.55,885.94 1847.78,886.199 1849.01,886.459 1850.24,886.718 1851.47,886.977 1852.7,887.236 1853.94,887.495 1855.17,887.754 1856.4,888.012 1857.63,888.271 1858.86,888.529 1860.09,888.787 1861.33,889.045 1862.56,889.303 1863.79,889.561 1865.02,889.819 1866.25,890.076 1867.48,890.333 1868.72,890.591 1869.95,890.848 1871.18,891.105 1872.41,891.362 1873.64,891.618 1874.87,891.875 1876.11,892.131 1877.34,892.388 1878.57,892.644 1879.8,892.9 1881.03,893.156 1882.26,893.412 1883.5,893.667 1884.73,893.923 1885.96,894.178 1887.19,894.433 1888.42,894.689 1889.65,894.944 1890.89,895.198 1892.12,895.453 1893.35,895.708 1894.58,895.962 1895.81,896.216 1897.04,896.471 1898.28,896.725 1899.51,896.979 1900.74,897.232 1901.97,897.486 1903.2,897.74 1904.43,897.993 1905.66,898.246 1906.9,898.499 1908.13,898.752 1909.36,899.005 1910.59,899.258 1911.82,899.511 1913.05,899.763 1914.29,900.015 1915.52,900.268 1916.75,900.52 1917.98,900.772 1919.21,901.023 1920.44,901.275 1921.68,901.527 1922.91,901.778 1924.14,902.029 1925.37,902.281 1926.6,902.532 1927.83,902.782 1929.07,903.033 1930.3,903.284 1931.53,903.534 1932.76,903.785 1933.99,904.035 1935.22,904.285 1936.46,904.535 1937.69,904.785 1938.92,905.035 1940.15,905.284 1941.38,905.534 1942.61,905.783 1943.85,906.032 1945.08,906.281 1946.31,906.53 1947.54,906.779 1948.77,907.028 1950,907.276 1951.24,907.525 1952.47,907.773 1953.7,908.021 1954.93,908.269 1956.16,908.517 1957.39,908.765 1958.63,909.013 1959.86,909.26 1961.09,909.508 1962.32,909.755 1963.55,910.002 1964.78,910.249 1966.02,910.496 1967.25,910.743 1968.48,910.989 1969.71,911.236 1970.94,911.482 1972.17,911.728 1973.41,911.974 1974.64,912.22 1975.87,912.466 1977.1,912.712 1978.33,912.958 1979.56,913.203 1980.8,913.448 1982.03,913.694 1983.26,913.939 1984.49,914.184 1985.72,914.428 1986.95,914.673 1988.19,914.918 1989.42,915.162 1990.65,915.406 1991.88,915.651 1993.11,915.895 1994.34,916.139 1995.58,916.382 1996.81,916.626 1998.04,916.87 1999.27,917.113 2000.5,917.356 2001.73,917.6 2002.97,917.843 2004.2,918.086 2005.43,918.328 2006.66,918.571 2007.89,918.814 2009.12,919.056 2010.36,919.298 2011.59,919.54 2012.82,919.783 2014.05,920.024 2015.28,920.266 2016.51,920.508 2017.75,920.749 2018.98,920.991 2020.21,921.232 2021.44,921.473 2022.67,921.714 2023.9,921.955 2025.14,922.196 2026.37,922.437 2027.6,922.677 2028.83,922.918 2030.06,923.158 2031.29,923.398 2032.53,923.638 2033.76,923.878 2034.99,924.118 2036.22,924.357 2037.45,924.597 2038.68,924.836 2039.92,925.076 2041.15,925.315 2042.38,925.554 2043.61,925.793 2044.84,926.031 2046.07,926.27 2047.31,926.509 2048.54,926.747 2049.77,926.985 2051,927.224 2052.23,927.462 2053.46,927.699 2054.7,927.937 2055.93,928.175 2057.16,928.412 2058.39,928.65 2059.62,928.887 2060.85,929.124 2062.09,929.361 2063.32,929.598 2064.55,929.835 2065.78,930.072 2067.01,930.308 2068.24,930.545 2069.48,930.781 2070.71,931.017 2071.94,931.253 2073.17,931.489 2074.4,931.725 2075.63,931.961 2076.87,932.196 2078.1,932.432 2079.33,932.667 2080.56,932.902 2081.79,933.137 2083.02,933.372 2084.26,933.607 2085.49,933.842 2086.72,934.076 2087.95,934.311 2089.18,934.545 2090.41,934.78 2091.64,935.014 2092.88,935.248 2094.11,935.481 2095.34,935.715 2096.57,935.949 2097.8,936.182 2099.03,936.416 2100.27,936.649 2101.5,936.882 2102.73,937.115 2103.96,937.348 2105.19,937.581 2106.42,937.813 2107.66,938.046 2108.89,938.278 2110.12,938.511 2111.35,938.743 2112.58,938.975 2113.81,939.207 2115.05,939.438 2116.28,939.67 2117.51,939.902 2118.74,940.133 2119.97,940.364 2121.2,940.596 2122.44,940.827 2123.67,941.058 2124.9,941.288 2126.13,941.519 2127.36,941.75 2128.59,941.98 2129.83,942.211 2131.06,942.441 2132.29,942.671 2133.52,942.901 2134.75,943.131 2135.98,943.361 2137.22,943.59 2138.45,943.82 2139.68,944.049 2140.91,944.278 2142.14,944.508 2143.37,944.737 2144.61,944.965 2145.84,945.194 2147.07,945.423 2148.3,945.651 2149.53,945.88 2150.76,946.108 2152,946.336 2153.23,946.565 2154.46,946.792 2155.69,947.02 2156.92,947.248 2158.15,947.476 2159.39,947.703 2160.62,947.931 2161.85,948.158 2163.08,948.385 2164.31,948.612 2165.54,948.839 2166.78,949.066 2168.01,949.292 2169.24,949.519 2170.47,949.745 2171.7,949.972 2172.93,950.198 2174.17,950.424 2175.4,950.65 2176.63,950.876 2177.86,951.101 2179.09,951.327 2180.32,951.552 2181.56,951.778 2182.79,952.003 2184.02,952.228 2185.25,952.453 2186.48,952.678 2187.71,952.903 2188.95,953.127 2190.18,953.352 2191.41,953.576 2192.64,953.801 2193.87,954.025 2195.1,954.249 2196.34,954.473 2197.57,954.697 2198.8,954.921 2200.03,955.144 2201.26,955.368 2202.49,955.591 2203.73,955.814 2204.96,956.037 2206.19,956.26 2207.42,956.483 2208.65,956.706 2209.88,956.929 2211.12,957.151 2212.35,957.374 2213.58,957.596 2214.81,957.818 2216.04,958.041 2217.27,958.263 2218.51,958.484 2219.74,958.706 2220.97,958.928 2222.2,959.149 2223.43,959.371 2224.66,959.592 2225.9,959.813 2227.13,960.034 2228.36,960.255 2229.59,960.476 2230.82,960.697 2232.05,960.917 2233.29,961.138 2234.52,961.358 2235.75,961.578 2236.98,961.799 2238.21,962.019 2239.44,962.239 2240.68,962.458 2241.91,962.678 2243.14,962.898 2244.37,963.117 2245.6,963.336 2246.83,963.556 2248.07,963.775 2249.3,963.994 2250.53,964.213 2251.76,964.431 2252.99,964.65 2254.22,964.869 2255.46,965.087 2256.69,965.305 2257.92,965.524 2259.15,965.742 2260.38,965.96 2261.61,966.177 2262.85,966.395 2264.08,966.613 2265.31,966.83 2266.54,967.048 2267.77,967.265 2269,967.482 2270.23,967.699 2271.47,967.916 2272.7,968.133 2273.93,968.35 2275.16,968.566 2276.39,968.783 2277.62,968.999 2278.86,969.216 2280.09,969.432 2281.32,969.648 2282.55,969.864 2283.78,970.08 2285.01,970.295 2286.25,970.511 2287.48,970.726 2288.71,970.942 2289.94,971.157 2291.17,971.372 2292.4,971.587 2293.64,971.802 2294.87,972.017 2296.1,972.232 2297.33,972.446 2298.56,972.661 2299.79,972.875 2301.03,973.089 2302.26,973.304 2303.49,973.518 2304.72,973.732 2305.95,973.945 2307.18,974.159 2308.42,974.373 2309.65,974.586 2310.88,974.799 2312.11,975.013 2313.34,975.226 2314.57,975.439 2315.81,975.652 2317.04,975.865 2318.27,976.077 2319.5,976.29 2320.73,976.502 2321.96,976.715 2323.2,976.927 2324.43,977.139 2325.66,977.351 2326.89,977.563 2328.12,977.775 2329.35,977.987 2330.59,978.198 2331.82,978.41 2333.05,978.621 2334.28,978.832 2335.51,979.044 2336.74,979.255 2337.98,979.466 2339.21,979.676 2340.44,979.887 2341.67,980.098 2342.9,980.308 2344.13,980.519 2345.37,980.729 2346.6,980.939 2347.83,981.149 2349.06,981.359 2350.29,981.569 2351.52,981.779 2352.76,981.988 "/>
<circle clip-path="url(#clip161)" cx="202.297" cy="89.6747" r="14.4" fill="#e26f46" fill-rule="evenodd" fill-opacity="1" stroke="#000000" stroke-opacity="1" stroke-width="3.2"/>
<circle clip-path="url(#clip161)" cx="366.744" cy="547.349" r="14.4" fill="#e26f46" fill-rule="evenodd" fill-opacity="1" stroke="#000000" stroke-opacity="1" stroke-width="3.2"/>
<circle clip-path="url(#clip161)" cx="503.783" cy="573.501" r="14.4" fill="#e26f46" fill-rule="evenodd" fill-opacity="1" stroke="#000000" stroke-opacity="1" stroke-width="3.2"/>
<circle clip-path="url(#clip161)" cx="636.605" cy="377.355" r="14.4" fill="#e26f46" fill-rule="evenodd" fill-opacity="1" stroke="#000000" stroke-opacity="1" stroke-width="3.2"/>
<circle clip-path="url(#clip161)" cx="871.048" cy="586.578" r="14.4" fill="#e26f46" fill-rule="evenodd" fill-opacity="1" stroke="#000000" stroke-opacity="1" stroke-width="3.2"/>
<circle clip-path="url(#clip161)" cx="1119.4" cy="717.342" r="14.4" fill="#e26f46" fill-rule="evenodd" fill-opacity="1" stroke="#000000" stroke-opacity="1" stroke-width="3.2"/>
<circle clip-path="url(#clip161)" cx="1891.88" cy="939.641" r="14.4" fill="#e26f46" fill-rule="evenodd" fill-opacity="1" stroke="#000000" stroke-opacity="1" stroke-width="3.2"/>
<circle clip-path="url(#clip161)" cx="2099.76" cy="913.488" r="14.4" fill="#e26f46" fill-rule="evenodd" fill-opacity="1" stroke="#000000" stroke-opacity="1" stroke-width="3.2"/>
<path clip-path="url(#clip160)" d="M1374.71 248.629 L2280.54 248.629 L2280.54 93.1086 L1374.71 93.1086  Z" fill="#ffffff" fill-rule="evenodd" fill-opacity="1"/>
<polyline clip-path="url(#clip160)" style="stroke:#000000; stroke-linecap:round; stroke-linejoin:round; stroke-width:4; stroke-opacity:1; fill:none" points="1374.71,248.629 2280.54,248.629 2280.54,93.1086 1374.71,93.1086 1374.71,248.629 "/>
<polyline clip-path="url(#clip160)" style="stroke:#009af9; stroke-linecap:round; stroke-linejoin:round; stroke-width:4; stroke-opacity:1; fill:none" points="1398.78,144.949 1543.21,144.949 "/>
<path clip-path="url(#clip160)" d="M1587.79 137.298 L1587.79 141.28 Q1585.99 140.284 1584.16 139.798 Q1582.35 139.289 1580.5 139.289 Q1576.36 139.289 1574.06 141.928 Q1571.77 144.544 1571.77 149.289 Q1571.77 154.034 1574.06 156.673 Q1576.36 159.289 1580.5 159.289 Q1582.35 159.289 1584.16 158.803 Q1585.99 158.293 1587.79 157.298 L1587.79 161.233 Q1586.01 162.067 1584.09 162.483 Q1582.19 162.9 1580.04 162.9 Q1574.18 162.9 1570.73 159.219 Q1567.28 155.539 1567.28 149.289 Q1567.28 142.946 1570.75 139.312 Q1574.25 135.678 1580.31 135.678 Q1582.28 135.678 1584.16 136.095 Q1586.03 136.488 1587.79 137.298 Z" fill="#000000" fill-rule="nonzero" fill-opacity="1" /><path clip-path="url(#clip160)" d="M1590.59 127.669 L1619.83 127.669 L1619.83 131.604 L1607.56 131.604 L1607.56 162.229 L1602.86 162.229 L1602.86 131.604 L1590.59 131.604 L1590.59 127.669 Z" fill="#000000" fill-rule="nonzero" fill-opacity="1" /><path clip-path="url(#clip160)" d="M1645.71 146.581 L1645.71 162.229 L1641.45 162.229 L1641.45 146.719 Q1641.45 143.039 1640.01 141.21 Q1638.58 139.382 1635.71 139.382 Q1632.26 139.382 1630.27 141.581 Q1628.28 143.78 1628.28 147.576 L1628.28 162.229 L1623.99 162.229 L1623.99 136.303 L1628.28 136.303 L1628.28 140.331 Q1629.8 137.993 1631.86 136.835 Q1633.95 135.678 1636.66 135.678 Q1641.12 135.678 1643.42 138.456 Q1645.71 141.21 1645.71 146.581 Z" fill="#000000" fill-rule="nonzero" fill-opacity="1" /><path clip-path="url(#clip160)" d="M1649.6 127.669 L1678.83 127.669 L1678.83 131.604 L1666.56 131.604 L1666.56 162.229 L1661.86 162.229 L1661.86 131.604 L1649.6 131.604 L1649.6 127.669 Z" fill="#000000" fill-rule="nonzero" fill-opacity="1" /><path clip-path="url(#clip160)" d="M1714.76 137.067 L1714.76 141.094 Q1712.95 140.169 1711.01 139.706 Q1709.06 139.243 1706.98 139.243 Q1703.81 139.243 1702.21 140.215 Q1700.64 141.187 1700.64 143.131 Q1700.64 144.613 1701.77 145.469 Q1702.91 146.303 1706.33 147.067 L1707.79 147.391 Q1712.33 148.363 1714.23 150.145 Q1716.15 151.905 1716.15 155.076 Q1716.15 158.687 1713.28 160.793 Q1710.43 162.9 1705.43 162.9 Q1703.35 162.9 1701.08 162.483 Q1698.83 162.09 1696.33 161.28 L1696.33 156.881 Q1698.69 158.108 1700.98 158.733 Q1703.28 159.335 1705.52 159.335 Q1708.53 159.335 1710.15 158.317 Q1711.77 157.275 1711.77 155.4 Q1711.77 153.664 1710.59 152.738 Q1709.43 151.812 1705.48 150.956 L1703.99 150.608 Q1700.04 149.775 1698.28 148.062 Q1696.52 146.326 1696.52 143.317 Q1696.52 139.659 1699.11 137.669 Q1701.7 135.678 1706.47 135.678 Q1708.83 135.678 1710.92 136.025 Q1713 136.372 1714.76 137.067 Z" fill="#000000" fill-rule="nonzero" fill-opacity="1" /><path clip-path="url(#clip160)" d="M1722.93 136.303 L1727.19 136.303 L1727.19 162.229 L1722.93 162.229 L1722.93 136.303 M1722.93 126.21 L1727.19 126.21 L1727.19 131.604 L1722.93 131.604 L1722.93 126.21 Z" fill="#000000" fill-rule="nonzero" fill-opacity="1" /><path clip-path="url(#clip160)" d="M1756.29 141.28 Q1757.88 138.409 1760.1 137.044 Q1762.33 135.678 1765.34 135.678 Q1769.39 135.678 1771.59 138.525 Q1773.79 141.349 1773.79 146.581 L1773.79 162.229 L1769.5 162.229 L1769.5 146.719 Q1769.5 142.993 1768.18 141.187 Q1766.86 139.382 1764.16 139.382 Q1760.85 139.382 1758.92 141.581 Q1757 143.78 1757 147.576 L1757 162.229 L1752.72 162.229 L1752.72 146.719 Q1752.72 142.969 1751.4 141.187 Q1750.08 139.382 1747.33 139.382 Q1744.06 139.382 1742.14 141.604 Q1740.22 143.803 1740.22 147.576 L1740.22 162.229 L1735.94 162.229 L1735.94 136.303 L1740.22 136.303 L1740.22 140.331 Q1741.68 137.946 1743.72 136.812 Q1745.75 135.678 1748.55 135.678 Q1751.38 135.678 1753.35 137.113 Q1755.34 138.548 1756.29 141.28 Z" fill="#000000" fill-rule="nonzero" fill-opacity="1" /><path clip-path="url(#clip160)" d="M1781.84 151.997 L1781.84 136.303 L1786.1 136.303 L1786.1 151.835 Q1786.1 155.516 1787.54 157.368 Q1788.97 159.196 1791.84 159.196 Q1795.29 159.196 1797.28 156.997 Q1799.29 154.798 1799.29 151.002 L1799.29 136.303 L1803.55 136.303 L1803.55 162.229 L1799.29 162.229 L1799.29 158.247 Q1797.74 160.608 1795.68 161.766 Q1793.65 162.9 1790.94 162.9 Q1786.47 162.9 1784.16 160.122 Q1781.84 157.344 1781.84 151.997 M1792.56 135.678 L1792.56 135.678 Z" fill="#000000" fill-rule="nonzero" fill-opacity="1" /><path clip-path="url(#clip160)" d="M1812.33 126.21 L1816.59 126.21 L1816.59 162.229 L1812.33 162.229 L1812.33 126.21 Z" fill="#000000" fill-rule="nonzero" fill-opacity="1" /><path clip-path="url(#clip160)" d="M1837.28 149.196 Q1832.12 149.196 1830.13 150.377 Q1828.14 151.557 1828.14 154.405 Q1828.14 156.673 1829.62 158.016 Q1831.12 159.335 1833.69 159.335 Q1837.23 159.335 1839.36 156.835 Q1841.52 154.312 1841.52 150.145 L1841.52 149.196 L1837.28 149.196 M1845.78 147.437 L1845.78 162.229 L1841.52 162.229 L1841.52 158.293 Q1840.06 160.655 1837.88 161.789 Q1835.71 162.9 1832.56 162.9 Q1828.58 162.9 1826.22 160.678 Q1823.88 158.432 1823.88 154.682 Q1823.88 150.307 1826.79 148.085 Q1829.73 145.863 1835.54 145.863 L1841.52 145.863 L1841.52 145.446 Q1841.52 142.507 1839.57 140.909 Q1837.65 139.289 1834.16 139.289 Q1831.93 139.289 1829.83 139.821 Q1827.72 140.354 1825.78 141.419 L1825.78 137.483 Q1828.11 136.581 1830.31 136.141 Q1832.51 135.678 1834.6 135.678 Q1840.22 135.678 1843 138.594 Q1845.78 141.511 1845.78 147.437 Z" fill="#000000" fill-rule="nonzero" fill-opacity="1" /><path clip-path="url(#clip160)" d="M1858.76 128.942 L1858.76 136.303 L1867.53 136.303 L1867.53 139.613 L1858.76 139.613 L1858.76 153.687 Q1858.76 156.858 1859.62 157.761 Q1860.5 158.664 1863.16 158.664 L1867.53 158.664 L1867.53 162.229 L1863.16 162.229 Q1858.23 162.229 1856.35 160.4 Q1854.48 158.548 1854.48 153.687 L1854.48 139.613 L1851.35 139.613 L1851.35 136.303 L1854.48 136.303 L1854.48 128.942 L1858.76 128.942 Z" fill="#000000" fill-rule="nonzero" fill-opacity="1" /><path clip-path="url(#clip160)" d="M1873.14 136.303 L1877.4 136.303 L1877.4 162.229 L1873.14 162.229 L1873.14 136.303 M1873.14 126.21 L1877.4 126.21 L1877.4 131.604 L1873.14 131.604 L1873.14 126.21 Z" fill="#000000" fill-rule="nonzero" fill-opacity="1" /><path clip-path="url(#clip160)" d="M1896.35 139.289 Q1892.93 139.289 1890.94 141.974 Q1888.95 144.636 1888.95 149.289 Q1888.95 153.942 1890.91 156.627 Q1892.9 159.289 1896.35 159.289 Q1899.76 159.289 1901.75 156.604 Q1903.74 153.918 1903.74 149.289 Q1903.74 144.682 1901.75 141.997 Q1899.76 139.289 1896.35 139.289 M1896.35 135.678 Q1901.91 135.678 1905.08 139.289 Q1908.25 142.9 1908.25 149.289 Q1908.25 155.655 1905.08 159.289 Q1901.91 162.9 1896.35 162.9 Q1890.78 162.9 1887.6 159.289 Q1884.46 155.655 1884.46 149.289 Q1884.46 142.9 1887.6 139.289 Q1890.78 135.678 1896.35 135.678 Z" fill="#000000" fill-rule="nonzero" fill-opacity="1" /><path clip-path="url(#clip160)" d="M1936.86 146.581 L1936.86 162.229 L1932.6 162.229 L1932.6 146.719 Q1932.6 143.039 1931.17 141.21 Q1929.73 139.382 1926.86 139.382 Q1923.41 139.382 1921.42 141.581 Q1919.43 143.78 1919.43 147.576 L1919.43 162.229 L1915.15 162.229 L1915.15 136.303 L1919.43 136.303 L1919.43 140.331 Q1920.96 137.993 1923.02 136.835 Q1925.1 135.678 1927.81 135.678 Q1932.28 135.678 1934.57 138.456 Q1936.86 141.21 1936.86 146.581 Z" fill="#000000" fill-rule="nonzero" fill-opacity="1" /><path clip-path="url(#clip160)" d="M1964.55 158.34 L1964.55 172.09 L1960.27 172.09 L1960.27 136.303 L1964.55 136.303 L1964.55 140.238 Q1965.89 137.923 1967.93 136.812 Q1969.99 135.678 1972.84 135.678 Q1977.56 135.678 1980.5 139.428 Q1983.46 143.178 1983.46 149.289 Q1983.46 155.4 1980.5 159.15 Q1977.56 162.9 1972.84 162.9 Q1969.99 162.9 1967.93 161.789 Q1965.89 160.655 1964.55 158.34 M1979.04 149.289 Q1979.04 144.59 1977.09 141.928 Q1975.17 139.243 1971.79 139.243 Q1968.41 139.243 1966.47 141.928 Q1964.55 144.59 1964.55 149.289 Q1964.55 153.988 1966.47 156.673 Q1968.41 159.335 1971.79 159.335 Q1975.17 159.335 1977.09 156.673 Q1979.04 153.988 1979.04 149.289 Z" fill="#000000" fill-rule="nonzero" fill-opacity="1" /><path clip-path="url(#clip160)" d="M2002.3 149.196 Q1997.14 149.196 1995.15 150.377 Q1993.16 151.557 1993.16 154.405 Q1993.16 156.673 1994.64 158.016 Q1996.15 159.335 1998.71 159.335 Q2002.26 159.335 2004.39 156.835 Q2006.54 154.312 2006.54 150.145 L2006.54 149.196 L2002.3 149.196 M2010.8 147.437 L2010.8 162.229 L2006.54 162.229 L2006.54 158.293 Q2005.08 160.655 2002.9 161.789 Q2000.73 162.9 1997.58 162.9 Q1993.6 162.9 1991.24 160.678 Q1988.9 158.432 1988.9 154.682 Q1988.9 150.307 1991.82 148.085 Q1994.76 145.863 2000.57 145.863 L2006.54 145.863 L2006.54 145.446 Q2006.54 142.507 2004.59 140.909 Q2002.67 139.289 1999.18 139.289 Q1996.96 139.289 1994.85 139.821 Q1992.74 140.354 1990.8 141.419 L1990.8 137.483 Q1993.14 136.581 1995.33 136.141 Q1997.53 135.678 1999.62 135.678 Q2005.24 135.678 2008.02 138.594 Q2010.8 141.511 2010.8 147.437 Z" fill="#000000" fill-rule="nonzero" fill-opacity="1" /><path clip-path="url(#clip160)" d="M2023.78 128.942 L2023.78 136.303 L2032.56 136.303 L2032.56 139.613 L2023.78 139.613 L2023.78 153.687 Q2023.78 156.858 2024.64 157.761 Q2025.52 158.664 2028.18 158.664 L2032.56 158.664 L2032.56 162.229 L2028.18 162.229 Q2023.25 162.229 2021.38 160.4 Q2019.5 158.548 2019.5 153.687 L2019.5 139.613 L2016.38 139.613 L2016.38 136.303 L2019.5 136.303 L2019.5 128.942 L2023.78 128.942 Z" fill="#000000" fill-rule="nonzero" fill-opacity="1" /><path clip-path="url(#clip160)" d="M2038.16 136.303 L2042.42 136.303 L2042.42 162.229 L2038.16 162.229 L2038.16 136.303 M2038.16 126.21 L2042.42 126.21 L2042.42 131.604 L2038.16 131.604 L2038.16 126.21 Z" fill="#000000" fill-rule="nonzero" fill-opacity="1" /><path clip-path="url(#clip160)" d="M2073.51 148.201 L2073.51 150.284 L2053.92 150.284 Q2054.2 154.682 2056.56 156.997 Q2058.95 159.289 2063.18 159.289 Q2065.64 159.289 2067.93 158.687 Q2070.24 158.085 2072.51 156.881 L2072.51 160.909 Q2070.22 161.881 2067.81 162.391 Q2065.4 162.9 2062.93 162.9 Q2056.72 162.9 2053.09 159.289 Q2049.48 155.678 2049.48 149.52 Q2049.48 143.155 2052.9 139.428 Q2056.35 135.678 2062.19 135.678 Q2067.42 135.678 2070.45 139.057 Q2073.51 142.414 2073.51 148.201 M2069.25 146.951 Q2069.2 143.456 2067.28 141.372 Q2065.38 139.289 2062.23 139.289 Q2058.67 139.289 2056.52 141.303 Q2054.39 143.317 2054.06 146.974 L2069.25 146.951 Z" fill="#000000" fill-rule="nonzero" fill-opacity="1" /><path clip-path="url(#clip160)" d="M2102.05 146.581 L2102.05 162.229 L2097.79 162.229 L2097.79 146.719 Q2097.79 143.039 2096.35 141.21 Q2094.92 139.382 2092.05 139.382 Q2088.6 139.382 2086.61 141.581 Q2084.62 143.78 2084.62 147.576 L2084.62 162.229 L2080.33 162.229 L2080.33 136.303 L2084.62 136.303 L2084.62 140.331 Q2086.14 137.993 2088.2 136.835 Q2090.29 135.678 2093 135.678 Q2097.46 135.678 2099.76 138.456 Q2102.05 141.21 2102.05 146.581 Z" fill="#000000" fill-rule="nonzero" fill-opacity="1" /><path clip-path="url(#clip160)" d="M2114.76 128.942 L2114.76 136.303 L2123.53 136.303 L2123.53 139.613 L2114.76 139.613 L2114.76 153.687 Q2114.76 156.858 2115.61 157.761 Q2116.49 158.664 2119.15 158.664 L2123.53 158.664 L2123.53 162.229 L2119.15 162.229 Q2114.22 162.229 2112.35 160.4 Q2110.47 158.548 2110.47 153.687 L2110.47 139.613 L2107.35 139.613 L2107.35 136.303 L2110.47 136.303 L2110.47 128.942 L2114.76 128.942 Z" fill="#000000" fill-rule="nonzero" fill-opacity="1" /><path clip-path="url(#clip160)" d="M2165.75 146.581 L2165.75 162.229 L2161.49 162.229 L2161.49 146.719 Q2161.49 143.039 2160.06 141.21 Q2158.62 139.382 2155.75 139.382 Q2152.3 139.382 2150.31 141.581 Q2148.32 143.78 2148.32 147.576 L2148.32 162.229 L2144.04 162.229 L2144.04 136.303 L2148.32 136.303 L2148.32 140.331 Q2149.85 137.993 2151.91 136.835 Q2153.99 135.678 2156.7 135.678 Q2161.17 135.678 2163.46 138.456 Q2165.75 141.21 2165.75 146.581 Z" fill="#000000" fill-rule="nonzero" fill-opacity="1" /><path clip-path="url(#clip160)" d="M2178.88 158.293 L2195.2 158.293 L2195.2 162.229 L2173.25 162.229 L2173.25 158.293 Q2175.91 155.539 2180.5 150.909 Q2185.1 146.256 2186.28 144.914 Q2188.53 142.391 2189.41 140.655 Q2190.31 138.895 2190.31 137.206 Q2190.31 134.451 2188.37 132.715 Q2186.45 130.979 2183.34 130.979 Q2181.14 130.979 2178.69 131.743 Q2176.26 132.507 2173.48 134.057 L2173.48 129.335 Q2176.31 128.201 2178.76 127.622 Q2181.21 127.044 2183.25 127.044 Q2188.62 127.044 2191.82 129.729 Q2195.01 132.414 2195.01 136.905 Q2195.01 139.034 2194.2 140.956 Q2193.41 142.854 2191.31 145.446 Q2190.73 146.118 2187.63 149.335 Q2184.52 152.53 2178.88 158.293 Z" fill="#000000" fill-rule="nonzero" fill-opacity="1" /><path clip-path="url(#clip160)" d="M2215.01 130.747 Q2211.4 130.747 2209.57 134.312 Q2207.76 137.854 2207.76 144.983 Q2207.76 152.09 2209.57 155.655 Q2211.4 159.196 2215.01 159.196 Q2218.64 159.196 2220.45 155.655 Q2222.28 152.09 2222.28 144.983 Q2222.28 137.854 2220.45 134.312 Q2218.64 130.747 2215.01 130.747 M2215.01 127.044 Q2220.82 127.044 2223.88 131.65 Q2226.95 136.233 2226.95 144.983 Q2226.95 153.71 2223.88 158.317 Q2220.82 162.9 2215.01 162.9 Q2209.2 162.9 2206.12 158.317 Q2203.07 153.71 2203.07 144.983 Q2203.07 136.233 2206.12 131.65 Q2209.2 127.044 2215.01 127.044 Z" fill="#000000" fill-rule="nonzero" fill-opacity="1" /><path clip-path="url(#clip160)" d="M2249.34 143.594 Q2252.69 144.312 2254.57 146.581 Q2256.47 148.849 2256.47 152.182 Q2256.47 157.298 2252.95 160.099 Q2249.43 162.9 2242.95 162.9 Q2240.77 162.9 2238.46 162.46 Q2236.17 162.043 2233.71 161.187 L2233.71 156.673 Q2235.66 157.807 2237.97 158.386 Q2240.29 158.965 2242.81 158.965 Q2247.21 158.965 2249.5 157.229 Q2251.82 155.493 2251.82 152.182 Q2251.82 149.127 2249.66 147.414 Q2247.53 145.678 2243.71 145.678 L2239.69 145.678 L2239.69 141.835 L2243.9 141.835 Q2247.35 141.835 2249.18 140.469 Q2251 139.081 2251 136.488 Q2251 133.826 2249.11 132.414 Q2247.23 130.979 2243.71 130.979 Q2241.79 130.979 2239.59 131.395 Q2237.39 131.812 2234.75 132.692 L2234.75 128.525 Q2237.42 127.784 2239.73 127.414 Q2242.07 127.044 2244.13 127.044 Q2249.45 127.044 2252.56 129.474 Q2255.66 131.882 2255.66 136.002 Q2255.66 138.872 2254.01 140.863 Q2252.37 142.831 2249.34 143.594 Z" fill="#000000" fill-rule="nonzero" fill-opacity="1" /><circle clip-path="url(#clip160)" cx="1470.99" cy="196.789" r="20.48" fill="#e26f46" fill-rule="evenodd" fill-opacity="1" stroke="#000000" stroke-opacity="1" stroke-width="4.55111"/>
<path clip-path="url(#clip160)" d="M1571.96 183.351 L1571.96 210.226 L1577.61 210.226 Q1584.76 210.226 1588.07 206.985 Q1591.4 203.745 1591.4 196.754 Q1591.4 189.809 1588.07 186.592 Q1584.76 183.351 1577.61 183.351 L1571.96 183.351 M1567.28 179.509 L1576.89 179.509 Q1586.93 179.509 1591.63 183.698 Q1596.33 187.865 1596.33 196.754 Q1596.33 205.689 1591.61 209.879 Q1586.89 214.069 1576.89 214.069 L1567.28 214.069 L1567.28 179.509 Z" fill="#000000" fill-rule="nonzero" fill-opacity="1" /><path clip-path="url(#clip160)" d="M1615.38 201.036 Q1610.22 201.036 1608.23 202.217 Q1606.24 203.397 1606.24 206.245 Q1606.24 208.513 1607.72 209.856 Q1609.23 211.175 1611.8 211.175 Q1615.34 211.175 1617.47 208.675 Q1619.62 206.152 1619.62 201.985 L1619.62 201.036 L1615.38 201.036 M1623.88 199.277 L1623.88 214.069 L1619.62 214.069 L1619.62 210.133 Q1618.16 212.495 1615.99 213.629 Q1613.81 214.74 1610.66 214.74 Q1606.68 214.74 1604.32 212.518 Q1601.98 210.272 1601.98 206.522 Q1601.98 202.147 1604.9 199.925 Q1607.84 197.703 1613.65 197.703 L1619.62 197.703 L1619.62 197.286 Q1619.62 194.347 1617.67 192.749 Q1615.75 191.129 1612.26 191.129 Q1610.04 191.129 1607.93 191.661 Q1605.82 192.194 1603.88 193.259 L1603.88 189.323 Q1606.22 188.421 1608.42 187.981 Q1610.61 187.518 1612.7 187.518 Q1618.32 187.518 1621.1 190.434 Q1623.88 193.351 1623.88 199.277 Z" fill="#000000" fill-rule="nonzero" fill-opacity="1" /><path clip-path="url(#clip160)" d="M1636.86 180.782 L1636.86 188.143 L1645.64 188.143 L1645.64 191.453 L1636.86 191.453 L1636.86 205.527 Q1636.86 208.698 1637.72 209.601 Q1638.6 210.504 1641.26 210.504 L1645.64 210.504 L1645.64 214.069 L1641.26 214.069 Q1636.33 214.069 1634.46 212.24 Q1632.58 210.388 1632.58 205.527 L1632.58 191.453 L1629.46 191.453 L1629.46 188.143 L1632.58 188.143 L1632.58 180.782 L1636.86 180.782 Z" fill="#000000" fill-rule="nonzero" fill-opacity="1" /><path clip-path="url(#clip160)" d="M1663.02 201.036 Q1657.86 201.036 1655.87 202.217 Q1653.88 203.397 1653.88 206.245 Q1653.88 208.513 1655.36 209.856 Q1656.86 211.175 1659.43 211.175 Q1662.98 211.175 1665.11 208.675 Q1667.26 206.152 1667.26 201.985 L1667.26 201.036 L1663.02 201.036 M1671.52 199.277 L1671.52 214.069 L1667.26 214.069 L1667.26 210.133 Q1665.8 212.495 1663.62 213.629 Q1661.45 214.74 1658.3 214.74 Q1654.32 214.74 1651.96 212.518 Q1649.62 210.272 1649.62 206.522 Q1649.62 202.147 1652.54 199.925 Q1655.48 197.703 1661.29 197.703 L1667.26 197.703 L1667.26 197.286 Q1667.26 194.347 1665.31 192.749 Q1663.39 191.129 1659.9 191.129 Q1657.67 191.129 1655.57 191.661 Q1653.46 192.194 1651.52 193.259 L1651.52 189.323 Q1653.86 188.421 1656.05 187.981 Q1658.25 187.518 1660.34 187.518 Q1665.96 187.518 1668.74 190.434 Q1671.52 193.351 1671.52 199.277 Z" fill="#000000" fill-rule="nonzero" fill-opacity="1" /></svg>
