<?xml version="1.0" encoding="utf-8"?>
<svg xmlns="http://www.w3.org/2000/svg" xmlns:xlink="http://www.w3.org/1999/xlink" width="600" height="400" viewBox="0 0 2400 1600">
<defs>
  <clipPath id="clip580">
    <rect x="0" y="0" width="2400" height="1600"/>
  </clipPath>
</defs>
<path clip-path="url(#clip580)" d="M0 1600 L2400 1600 L2400 0 L0 0  Z" fill="#ffffff" fill-rule="evenodd" fill-opacity="1"/>
<defs>
  <clipPath id="clip581">
    <rect x="156" y="47" width="2198" height="1377"/>
  </clipPath>
</defs>
<path clip-path="url(#clip580)" d="M156.112 1423.18 L2352.76 1423.18 L2352.76 47.2441 L156.112 47.2441  Z" fill="#ffffff" fill-rule="evenodd" fill-opacity="1"/>
<polyline clip-path="url(#clip581)" style="stroke:#000000; stroke-linecap:round; stroke-linejoin:round; stroke-width:2; stroke-opacity:0.1; fill:none" points="156.112,1423.18 156.112,47.2441 "/>
<polyline clip-path="url(#clip581)" style="stroke:#000000; stroke-linecap:round; stroke-linejoin:round; stroke-width:2; stroke-opacity:0.1; fill:none" points="698.359,1423.18 698.359,47.2441 "/>
<polyline clip-path="url(#clip581)" style="stroke:#000000; stroke-linecap:round; stroke-linejoin:round; stroke-width:2; stroke-opacity:0.1; fill:none" points="1240.61,1423.18 1240.61,47.2441 "/>
<polyline clip-path="url(#clip581)" style="stroke:#000000; stroke-linecap:round; stroke-linejoin:round; stroke-width:2; stroke-opacity:0.1; fill:none" points="1782.85,1423.18 1782.85,47.2441 "/>
<polyline clip-path="url(#clip581)" style="stroke:#000000; stroke-linecap:round; stroke-linejoin:round; stroke-width:2; stroke-opacity:0.1; fill:none" points="2325.1,1423.18 2325.1,47.2441 "/>
<polyline clip-path="url(#clip581)" style="stroke:#000000; stroke-linecap:round; stroke-linejoin:round; stroke-width:2; stroke-opacity:0.1; fill:none" points="156.112,1384.24 2352.76,1384.24 "/>
<polyline clip-path="url(#clip581)" style="stroke:#000000; stroke-linecap:round; stroke-linejoin:round; stroke-width:2; stroke-opacity:0.1; fill:none" points="156.112,1055.21 2352.76,1055.21 "/>
<polyline clip-path="url(#clip581)" style="stroke:#000000; stroke-linecap:round; stroke-linejoin:round; stroke-width:2; stroke-opacity:0.1; fill:none" points="156.112,726.187 2352.76,726.187 "/>
<polyline clip-path="url(#clip581)" style="stroke:#000000; stroke-linecap:round; stroke-linejoin:round; stroke-width:2; stroke-opacity:0.1; fill:none" points="156.112,397.162 2352.76,397.162 "/>
<polyline clip-path="url(#clip581)" style="stroke:#000000; stroke-linecap:round; stroke-linejoin:round; stroke-width:2; stroke-opacity:0.1; fill:none" points="156.112,68.1363 2352.76,68.1363 "/>
<polyline clip-path="url(#clip580)" style="stroke:#000000; stroke-linecap:round; stroke-linejoin:round; stroke-width:4; stroke-opacity:1; fill:none" points="156.112,1423.18 2352.76,1423.18 "/>
<polyline clip-path="url(#clip580)" style="stroke:#000000; stroke-linecap:round; stroke-linejoin:round; stroke-width:4; stroke-opacity:1; fill:none" points="156.112,1423.18 156.112,1404.28 "/>
<polyline clip-path="url(#clip580)" style="stroke:#000000; stroke-linecap:round; stroke-linejoin:round; stroke-width:4; stroke-opacity:1; fill:none" points="698.359,1423.18 698.359,1404.28 "/>
<polyline clip-path="url(#clip580)" style="stroke:#000000; stroke-linecap:round; stroke-linejoin:round; stroke-width:4; stroke-opacity:1; fill:none" points="1240.61,1423.18 1240.61,1404.28 "/>
<polyline clip-path="url(#clip580)" style="stroke:#000000; stroke-linecap:round; stroke-linejoin:round; stroke-width:4; stroke-opacity:1; fill:none" points="1782.85,1423.18 1782.85,1404.28 "/>
<polyline clip-path="url(#clip580)" style="stroke:#000000; stroke-linecap:round; stroke-linejoin:round; stroke-width:4; stroke-opacity:1; fill:none" points="2325.1,1423.18 2325.1,1404.28 "/>
<path clip-path="url(#clip580)" d="M156.112 1454.1 Q152.501 1454.1 150.672 1457.66 Q148.867 1461.2 148.867 1468.33 Q148.867 1475.44 150.672 1479.01 Q152.501 1482.55 156.112 1482.55 Q159.746 1482.55 161.552 1479.01 Q163.381 1475.44 163.381 1468.33 Q163.381 1461.2 161.552 1457.66 Q159.746 1454.1 156.112 1454.1 M156.112 1450.39 Q161.922 1450.39 164.978 1455 Q168.057 1459.58 168.057 1468.33 Q168.057 1477.06 164.978 1481.67 Q161.922 1486.25 156.112 1486.25 Q150.302 1486.25 147.223 1481.67 Q144.168 1477.06 144.168 1468.33 Q144.168 1459.58 147.223 1455 Q150.302 1450.39 156.112 1450.39 Z" fill="#000000" fill-rule="nonzero" fill-opacity="1" /><path clip-path="url(#clip580)" d="M673.059 1451.02 L691.415 1451.02 L691.415 1454.96 L677.341 1454.96 L677.341 1463.43 Q678.36 1463.08 679.378 1462.92 Q680.397 1462.73 681.415 1462.73 Q687.202 1462.73 690.582 1465.9 Q693.961 1469.08 693.961 1474.49 Q693.961 1480.07 690.489 1483.17 Q687.017 1486.25 680.697 1486.25 Q678.522 1486.25 676.253 1485.88 Q674.008 1485.51 671.6 1484.77 L671.6 1480.07 Q673.684 1481.2 675.906 1481.76 Q678.128 1482.32 680.605 1482.32 Q684.609 1482.32 686.947 1480.21 Q689.285 1478.1 689.285 1474.49 Q689.285 1470.88 686.947 1468.77 Q684.609 1466.67 680.605 1466.67 Q678.73 1466.67 676.855 1467.08 Q675.003 1467.5 673.059 1468.38 L673.059 1451.02 Z" fill="#000000" fill-rule="nonzero" fill-opacity="1" /><path clip-path="url(#clip580)" d="M713.174 1454.1 Q709.563 1454.1 707.734 1457.66 Q705.929 1461.2 705.929 1468.33 Q705.929 1475.44 707.734 1479.01 Q709.563 1482.55 713.174 1482.55 Q716.808 1482.55 718.614 1479.01 Q720.443 1475.44 720.443 1468.33 Q720.443 1461.2 718.614 1457.66 Q716.808 1454.1 713.174 1454.1 M713.174 1450.39 Q718.984 1450.39 722.04 1455 Q725.119 1459.58 725.119 1468.33 Q725.119 1477.06 722.04 1481.67 Q718.984 1486.25 713.174 1486.25 Q707.364 1486.25 704.285 1481.67 Q701.23 1477.06 701.23 1468.33 Q701.23 1459.58 704.285 1455 Q707.364 1450.39 713.174 1450.39 Z" fill="#000000" fill-rule="nonzero" fill-opacity="1" /><path clip-path="url(#clip580)" d="M1200.21 1481.64 L1207.85 1481.64 L1207.85 1455.28 L1199.54 1456.95 L1199.54 1452.69 L1207.81 1451.02 L1212.48 1451.02 L1212.48 1481.64 L1220.12 1481.64 L1220.12 1485.58 L1200.21 1485.58 L1200.21 1481.64 Z" fill="#000000" fill-rule="nonzero" fill-opacity="1" /><path clip-path="url(#clip580)" d="M1239.57 1454.1 Q1235.95 1454.1 1234.13 1457.66 Q1232.32 1461.2 1232.32 1468.33 Q1232.32 1475.44 1234.13 1479.01 Q1235.95 1482.55 1239.57 1482.55 Q1243.2 1482.55 1245 1479.01 Q1246.83 1475.44 1246.83 1468.33 Q1246.83 1461.2 1245 1457.66 Q1243.2 1454.1 1239.57 1454.1 M1239.57 1450.39 Q1245.38 1450.39 1248.43 1455 Q1251.51 1459.58 1251.51 1468.33 Q1251.51 1477.06 1248.43 1481.67 Q1245.38 1486.25 1239.57 1486.25 Q1233.75 1486.25 1230.68 1481.67 Q1227.62 1477.06 1227.62 1468.33 Q1227.62 1459.58 1230.68 1455 Q1233.75 1450.39 1239.57 1450.39 Z" fill="#000000" fill-rule="nonzero" fill-opacity="1" /><path clip-path="url(#clip580)" d="M1269.73 1454.1 Q1266.12 1454.1 1264.29 1457.66 Q1262.48 1461.2 1262.48 1468.33 Q1262.48 1475.44 1264.29 1479.01 Q1266.12 1482.55 1269.73 1482.55 Q1273.36 1482.55 1275.17 1479.01 Q1277 1475.44 1277 1468.33 Q1277 1461.2 1275.17 1457.66 Q1273.36 1454.1 1269.73 1454.1 M1269.73 1450.39 Q1275.54 1450.39 1278.59 1455 Q1281.67 1459.58 1281.67 1468.33 Q1281.67 1477.06 1278.59 1481.67 Q1275.54 1486.25 1269.73 1486.25 Q1263.92 1486.25 1260.84 1481.67 Q1257.78 1477.06 1257.78 1468.33 Q1257.78 1459.58 1260.84 1455 Q1263.92 1450.39 1269.73 1450.39 Z" fill="#000000" fill-rule="nonzero" fill-opacity="1" /><path clip-path="url(#clip580)" d="M1742.46 1481.64 L1750.1 1481.64 L1750.1 1455.28 L1741.79 1456.95 L1741.79 1452.69 L1750.05 1451.02 L1754.73 1451.02 L1754.73 1481.64 L1762.37 1481.64 L1762.37 1485.58 L1742.46 1485.58 L1742.46 1481.64 Z" fill="#000000" fill-rule="nonzero" fill-opacity="1" /><path clip-path="url(#clip580)" d="M1771.86 1451.02 L1790.22 1451.02 L1790.22 1454.96 L1776.14 1454.96 L1776.14 1463.43 Q1777.16 1463.08 1778.18 1462.92 Q1779.2 1462.73 1780.22 1462.73 Q1786 1462.73 1789.38 1465.9 Q1792.76 1469.08 1792.76 1474.49 Q1792.76 1480.07 1789.29 1483.17 Q1785.82 1486.25 1779.5 1486.25 Q1777.32 1486.25 1775.05 1485.88 Q1772.81 1485.51 1770.4 1484.77 L1770.4 1480.07 Q1772.48 1481.2 1774.71 1481.76 Q1776.93 1482.32 1779.4 1482.32 Q1783.41 1482.32 1785.75 1480.21 Q1788.09 1478.1 1788.09 1474.49 Q1788.09 1470.88 1785.75 1468.77 Q1783.41 1466.67 1779.4 1466.67 Q1777.53 1466.67 1775.65 1467.08 Q1773.8 1467.5 1771.86 1468.38 L1771.86 1451.02 Z" fill="#000000" fill-rule="nonzero" fill-opacity="1" /><path clip-path="url(#clip580)" d="M1811.97 1454.1 Q1808.36 1454.1 1806.53 1457.66 Q1804.73 1461.2 1804.73 1468.33 Q1804.73 1475.44 1806.53 1479.01 Q1808.36 1482.55 1811.97 1482.55 Q1815.61 1482.55 1817.41 1479.01 Q1819.24 1475.44 1819.24 1468.33 Q1819.24 1461.2 1817.41 1457.66 Q1815.61 1454.1 1811.97 1454.1 M1811.97 1450.39 Q1817.78 1450.39 1820.84 1455 Q1823.92 1459.58 1823.92 1468.33 Q1823.92 1477.06 1820.84 1481.67 Q1817.78 1486.25 1811.97 1486.25 Q1806.16 1486.25 1803.09 1481.67 Q1800.03 1477.06 1800.03 1468.33 Q1800.03 1459.58 1803.09 1455 Q1806.16 1450.39 1811.97 1450.39 Z" fill="#000000" fill-rule="nonzero" fill-opacity="1" /><path clip-path="url(#clip580)" d="M2288.79 1481.64 L2305.11 1481.64 L2305.11 1485.58 L2283.17 1485.58 L2283.17 1481.64 Q2285.83 1478.89 2290.41 1474.26 Q2295.02 1469.61 2296.2 1468.27 Q2298.45 1465.74 2299.33 1464.01 Q2300.23 1462.25 2300.23 1460.56 Q2300.23 1457.8 2298.28 1456.07 Q2296.36 1454.33 2293.26 1454.33 Q2291.06 1454.33 2288.61 1455.09 Q2286.18 1455.86 2283.4 1457.41 L2283.4 1452.69 Q2286.22 1451.55 2288.68 1450.97 Q2291.13 1450.39 2293.17 1450.39 Q2298.54 1450.39 2301.73 1453.08 Q2304.93 1455.77 2304.93 1460.26 Q2304.93 1462.39 2304.12 1464.31 Q2303.33 1466.2 2301.22 1468.8 Q2300.65 1469.47 2297.54 1472.69 Q2294.44 1475.88 2288.79 1481.64 Z" fill="#000000" fill-rule="nonzero" fill-opacity="1" /><path clip-path="url(#clip580)" d="M2324.93 1454.1 Q2321.32 1454.1 2319.49 1457.66 Q2317.68 1461.2 2317.68 1468.33 Q2317.68 1475.44 2319.49 1479.01 Q2321.32 1482.55 2324.93 1482.55 Q2328.56 1482.55 2330.37 1479.01 Q2332.2 1475.44 2332.2 1468.33 Q2332.2 1461.2 2330.37 1457.66 Q2328.56 1454.1 2324.93 1454.1 M2324.93 1450.39 Q2330.74 1450.39 2333.79 1455 Q2336.87 1459.58 2336.87 1468.33 Q2336.87 1477.06 2333.79 1481.67 Q2330.74 1486.25 2324.93 1486.25 Q2319.12 1486.25 2316.04 1481.67 Q2312.98 1477.06 2312.98 1468.33 Q2312.98 1459.58 2316.04 1455 Q2319.12 1450.39 2324.93 1450.39 Z" fill="#000000" fill-rule="nonzero" fill-opacity="1" /><path clip-path="url(#clip580)" d="M2355.09 1454.1 Q2351.48 1454.1 2349.65 1457.66 Q2347.84 1461.2 2347.84 1468.33 Q2347.84 1475.44 2349.65 1479.01 Q2351.48 1482.55 2355.09 1482.55 Q2358.72 1482.55 2360.53 1479.01 Q2362.36 1475.44 2362.36 1468.33 Q2362.36 1461.2 2360.53 1457.66 Q2358.72 1454.1 2355.09 1454.1 M2355.09 1450.39 Q2360.9 1450.39 2363.96 1455 Q2367.03 1459.58 2367.03 1468.33 Q2367.03 1477.06 2363.96 1481.67 Q2360.9 1486.25 2355.09 1486.25 Q2349.28 1486.25 2346.2 1481.67 Q2343.15 1477.06 2343.15 1468.33 Q2343.15 1459.58 2346.2 1455 Q2349.28 1450.39 2355.09 1450.39 Z" fill="#000000" fill-rule="nonzero" fill-opacity="1" /><path clip-path="url(#clip580)" d="M1253.5 1522.27 L1253.5 1532.4 L1265.56 1532.4 L1265.56 1536.95 L1253.5 1536.95 L1253.5 1556.3 Q1253.5 1560.66 1254.67 1561.9 Q1255.88 1563.14 1259.54 1563.14 L1265.56 1563.14 L1265.56 1568.04 L1259.54 1568.04 Q1252.76 1568.04 1250.18 1565.53 Q1247.61 1562.98 1247.61 1556.3 L1247.61 1536.95 L1243.31 1536.95 L1243.31 1532.4 L1247.61 1532.4 L1247.61 1522.27 L1253.5 1522.27 Z" fill="#000000" fill-rule="nonzero" fill-opacity="1" /><polyline clip-path="url(#clip580)" style="stroke:#000000; stroke-linecap:round; stroke-linejoin:round; stroke-width:4; stroke-opacity:1; fill:none" points="156.112,1423.18 156.112,47.2441 "/>
<polyline clip-path="url(#clip580)" style="stroke:#000000; stroke-linecap:round; stroke-linejoin:round; stroke-width:4; stroke-opacity:1; fill:none" points="156.112,1384.24 175.01,1384.24 "/>
<polyline clip-path="url(#clip580)" style="stroke:#000000; stroke-linecap:round; stroke-linejoin:round; stroke-width:4; stroke-opacity:1; fill:none" points="156.112,1055.21 175.01,1055.21 "/>
<polyline clip-path="url(#clip580)" style="stroke:#000000; stroke-linecap:round; stroke-linejoin:round; stroke-width:4; stroke-opacity:1; fill:none" points="156.112,726.187 175.01,726.187 "/>
<polyline clip-path="url(#clip580)" style="stroke:#000000; stroke-linecap:round; stroke-linejoin:round; stroke-width:4; stroke-opacity:1; fill:none" points="156.112,397.162 175.01,397.162 "/>
<polyline clip-path="url(#clip580)" style="stroke:#000000; stroke-linecap:round; stroke-linejoin:round; stroke-width:4; stroke-opacity:1; fill:none" points="156.112,68.1363 175.01,68.1363 "/>
<path clip-path="url(#clip580)" d="M62.9365 1370.04 Q59.3254 1370.04 57.4967 1373.6 Q55.6912 1377.14 55.6912 1384.27 Q55.6912 1391.38 57.4967 1394.94 Q59.3254 1398.49 62.9365 1398.49 Q66.5707 1398.49 68.3763 1394.94 Q70.205 1391.38 70.205 1384.27 Q70.205 1377.14 68.3763 1373.6 Q66.5707 1370.04 62.9365 1370.04 M62.9365 1366.33 Q68.7467 1366.33 71.8022 1370.94 Q74.8809 1375.52 74.8809 1384.27 Q74.8809 1393 71.8022 1397.61 Q68.7467 1402.19 62.9365 1402.19 Q57.1264 1402.19 54.0477 1397.61 Q50.9921 1393 50.9921 1384.27 Q50.9921 1375.52 54.0477 1370.94 Q57.1264 1366.33 62.9365 1366.33 Z" fill="#000000" fill-rule="nonzero" fill-opacity="1" /><path clip-path="url(#clip580)" d="M83.0984 1395.64 L87.9827 1395.64 L87.9827 1401.52 L83.0984 1401.52 L83.0984 1395.64 Z" fill="#000000" fill-rule="nonzero" fill-opacity="1" /><path clip-path="url(#clip580)" d="M108.168 1370.04 Q104.557 1370.04 102.728 1373.6 Q100.922 1377.14 100.922 1384.27 Q100.922 1391.38 102.728 1394.94 Q104.557 1398.49 108.168 1398.49 Q111.802 1398.49 113.608 1394.94 Q115.436 1391.38 115.436 1384.27 Q115.436 1377.14 113.608 1373.6 Q111.802 1370.04 108.168 1370.04 M108.168 1366.33 Q113.978 1366.33 117.033 1370.94 Q120.112 1375.52 120.112 1384.27 Q120.112 1393 117.033 1397.61 Q113.978 1402.19 108.168 1402.19 Q102.358 1402.19 99.2789 1397.61 Q96.2234 1393 96.2234 1384.27 Q96.2234 1375.52 99.2789 1370.94 Q102.358 1366.33 108.168 1366.33 Z" fill="#000000" fill-rule="nonzero" fill-opacity="1" /><path clip-path="url(#clip580)" d="M63.9319 1041.01 Q60.3208 1041.01 58.4921 1044.58 Q56.6865 1048.12 56.6865 1055.25 Q56.6865 1062.35 58.4921 1065.92 Q60.3208 1069.46 63.9319 1069.46 Q67.5661 1069.46 69.3717 1065.92 Q71.2004 1062.35 71.2004 1055.25 Q71.2004 1048.12 69.3717 1044.58 Q67.5661 1041.01 63.9319 1041.01 M63.9319 1037.31 Q69.742 1037.31 72.7976 1041.91 Q75.8763 1046.5 75.8763 1055.25 Q75.8763 1063.97 72.7976 1068.58 Q69.742 1073.16 63.9319 1073.16 Q58.1217 1073.16 55.043 1068.58 Q51.9875 1063.97 51.9875 1055.25 Q51.9875 1046.5 55.043 1041.91 Q58.1217 1037.31 63.9319 1037.31 Z" fill="#000000" fill-rule="nonzero" fill-opacity="1" /><path clip-path="url(#clip580)" d="M84.0938 1066.61 L88.978 1066.61 L88.978 1072.49 L84.0938 1072.49 L84.0938 1066.61 Z" fill="#000000" fill-rule="nonzero" fill-opacity="1" /><path clip-path="url(#clip580)" d="M99.2095 1037.93 L117.566 1037.93 L117.566 1041.87 L103.492 1041.87 L103.492 1050.34 Q104.51 1049.99 105.529 1049.83 Q106.547 1049.65 107.566 1049.65 Q113.353 1049.65 116.733 1052.82 Q120.112 1055.99 120.112 1061.4 Q120.112 1066.98 116.64 1070.09 Q113.168 1073.16 106.848 1073.16 Q104.672 1073.16 102.404 1072.79 Q100.159 1072.42 97.7511 1071.68 L97.7511 1066.98 Q99.8345 1068.12 102.057 1068.67 Q104.279 1069.23 106.756 1069.23 Q110.76 1069.23 113.098 1067.12 Q115.436 1065.02 115.436 1061.4 Q115.436 1057.79 113.098 1055.69 Q110.76 1053.58 106.756 1053.58 Q104.881 1053.58 103.006 1054 Q101.154 1054.41 99.2095 1055.29 L99.2095 1037.93 Z" fill="#000000" fill-rule="nonzero" fill-opacity="1" /><path clip-path="url(#clip580)" d="M53.7467 739.532 L61.3856 739.532 L61.3856 713.167 L53.0754 714.833 L53.0754 710.574 L61.3393 708.907 L66.0152 708.907 L66.0152 739.532 L73.654 739.532 L73.654 743.467 L53.7467 743.467 L53.7467 739.532 Z" fill="#000000" fill-rule="nonzero" fill-opacity="1" /><path clip-path="url(#clip580)" d="M83.0984 737.588 L87.9827 737.588 L87.9827 743.467 L83.0984 743.467 L83.0984 737.588 Z" fill="#000000" fill-rule="nonzero" fill-opacity="1" /><path clip-path="url(#clip580)" d="M108.168 711.986 Q104.557 711.986 102.728 715.551 Q100.922 719.092 100.922 726.222 Q100.922 733.328 102.728 736.893 Q104.557 740.435 108.168 740.435 Q111.802 740.435 113.608 736.893 Q115.436 733.328 115.436 726.222 Q115.436 719.092 113.608 715.551 Q111.802 711.986 108.168 711.986 M108.168 708.282 Q113.978 708.282 117.033 712.889 Q120.112 717.472 120.112 726.222 Q120.112 734.949 117.033 739.555 Q113.978 744.139 108.168 744.139 Q102.358 744.139 99.2789 739.555 Q96.2234 734.949 96.2234 726.222 Q96.2234 717.472 99.2789 712.889 Q102.358 708.282 108.168 708.282 Z" fill="#000000" fill-rule="nonzero" fill-opacity="1" /><path clip-path="url(#clip580)" d="M54.7421 410.507 L62.381 410.507 L62.381 384.141 L54.0708 385.808 L54.0708 381.548 L62.3347 379.882 L67.0106 379.882 L67.0106 410.507 L74.6494 410.507 L74.6494 414.442 L54.7421 414.442 L54.7421 410.507 Z" fill="#000000" fill-rule="nonzero" fill-opacity="1" /><path clip-path="url(#clip580)" d="M84.0938 408.562 L88.978 408.562 L88.978 414.442 L84.0938 414.442 L84.0938 408.562 Z" fill="#000000" fill-rule="nonzero" fill-opacity="1" /><path clip-path="url(#clip580)" d="M99.2095 379.882 L117.566 379.882 L117.566 383.817 L103.492 383.817 L103.492 392.289 Q104.51 391.942 105.529 391.78 Q106.547 391.595 107.566 391.595 Q113.353 391.595 116.733 394.766 Q120.112 397.937 120.112 403.354 Q120.112 408.933 116.64 412.034 Q113.168 415.113 106.848 415.113 Q104.672 415.113 102.404 414.743 Q100.159 414.372 97.7511 413.632 L97.7511 408.933 Q99.8345 410.067 102.057 410.622 Q104.279 411.178 106.756 411.178 Q110.76 411.178 113.098 409.071 Q115.436 406.965 115.436 403.354 Q115.436 399.743 113.098 397.636 Q110.76 395.53 106.756 395.53 Q104.881 395.53 103.006 395.947 Q101.154 396.363 99.2095 397.243 L99.2095 379.882 Z" fill="#000000" fill-rule="nonzero" fill-opacity="1" /><path clip-path="url(#clip580)" d="M56.9643 81.4811 L73.2837 81.4811 L73.2837 85.4163 L51.3393 85.4163 L51.3393 81.4811 Q54.0014 78.7265 58.5847 74.0969 Q63.1911 69.4442 64.3717 68.1016 Q66.617 65.5784 67.4967 63.8423 Q68.3994 62.0831 68.3994 60.3933 Q68.3994 57.6387 66.455 55.9026 Q64.5337 54.1665 61.4319 54.1665 Q59.2328 54.1665 56.7791 54.9303 Q54.3486 55.6942 51.5708 57.2451 L51.5708 52.5229 Q54.3949 51.3887 56.8486 50.81 Q59.3023 50.2313 61.3393 50.2313 Q66.7096 50.2313 69.9041 52.9165 Q73.0985 55.6016 73.0985 60.0923 Q73.0985 62.222 72.2883 64.1433 Q71.5013 66.0414 69.3948 68.634 Q68.8161 69.3053 65.7143 72.5228 Q62.6124 75.7173 56.9643 81.4811 Z" fill="#000000" fill-rule="nonzero" fill-opacity="1" /><path clip-path="url(#clip580)" d="M83.0984 79.5367 L87.9827 79.5367 L87.9827 85.4163 L83.0984 85.4163 L83.0984 79.5367 Z" fill="#000000" fill-rule="nonzero" fill-opacity="1" /><path clip-path="url(#clip580)" d="M108.168 53.935 Q104.557 53.935 102.728 57.4998 Q100.922 61.0414 100.922 68.171 Q100.922 75.2775 102.728 78.8422 Q104.557 82.3839 108.168 82.3839 Q111.802 82.3839 113.608 78.8422 Q115.436 75.2775 115.436 68.171 Q115.436 61.0414 113.608 57.4998 Q111.802 53.935 108.168 53.935 M108.168 50.2313 Q113.978 50.2313 117.033 54.8377 Q120.112 59.4211 120.112 68.171 Q120.112 76.8978 117.033 81.5043 Q113.978 86.0876 108.168 86.0876 Q102.358 86.0876 99.2789 81.5043 Q96.2234 76.8978 96.2234 68.171 Q96.2234 59.4211 99.2789 54.8377 Q102.358 50.2313 108.168 50.2313 Z" fill="#000000" fill-rule="nonzero" fill-opacity="1" /><polyline clip-path="url(#clip581)" style="stroke:#009af9; stroke-linecap:round; stroke-linejoin:round; stroke-width:4; stroke-opacity:1; fill:none" points="156.112,1384.24 157.3,1361.23 158.488,1338.63 159.676,1316.43 160.864,1294.62 162.052,1273.2 163.24,1252.17 164.428,1231.51 165.616,1211.22 166.804,1191.29 167.992,1171.72 169.18,1152.5 170.368,1133.63 171.556,1115.1 172.744,1096.9 173.932,1079.04 175.12,1061.5 176.308,1044.27 177.496,1027.37 178.684,1010.76 179.872,994.468 181.06,978.471 182.249,962.767 183.437,947.352 184.625,932.222 185.813,917.371 187.001,902.796 188.189,888.491 189.377,874.453 190.565,860.677 191.753,847.158 192.941,833.893 194.129,820.878 195.317,808.107 196.505,795.579 197.693,783.287 198.881,771.229 200.069,759.401 201.257,747.798 202.445,736.418 203.633,725.257 204.821,714.31 206.009,703.575 207.197,693.049 208.385,682.727 209.573,672.606 210.761,662.683 211.949,652.955 213.137,643.419 214.325,634.071 215.513,624.909 216.701,615.929 217.889,607.128 219.077,598.504 220.265,590.053 221.453,581.773 222.641,573.661 223.829,565.714 225.017,557.93 226.205,550.305 227.393,542.837 228.581,535.524 229.769,528.363 230.957,521.351 232.145,514.487 233.333,507.767 234.521,501.189 235.709,494.751 236.897,488.451 238.085,482.286 239.273,476.254 240.461,470.353 241.649,464.58 242.837,458.934 244.025,453.413 245.213,448.014 246.401,442.736 247.589,437.576 248.777,432.532 249.965,427.603 251.154,422.786 252.342,418.081 253.53,413.484 254.718,408.994 255.906,404.609 257.094,400.328 258.282,396.149 259.47,392.07 260.658,388.09 261.846,384.206 263.034,380.418 264.222,376.723 265.41,373.12 266.598,369.608 267.786,366.184 268.974,362.849 270.162,359.599 271.35,356.434 272.538,353.351 273.726,350.351 274.914,347.431 276.102,344.59 277.29,341.827 278.478,339.14 279.666,336.529 280.854,333.991 282.042,331.526 283.23,329.132 284.418,326.808 285.606,324.553 286.794,322.366 287.982,320.245 289.17,318.19 290.358,316.2 291.546,314.272 292.734,312.407 293.922,310.603 295.11,308.859 296.298,307.174 297.486,305.547 298.674,303.978 299.862,302.464 301.05,301.005 302.238,299.601 303.426,298.249 304.614,296.95 305.802,295.702 306.99,294.505 308.178,293.358 309.366,292.259 310.554,291.208 311.742,290.204 312.93,289.246 314.118,288.334 315.306,287.466 316.494,286.642 317.682,285.861 318.87,285.123 320.058,284.426 321.247,283.77 322.435,283.154 323.623,282.577 324.811,282.039 325.999,281.539 327.187,281.076 328.375,280.65 329.563,280.26 330.751,279.905 331.939,279.585 333.127,279.299 334.315,279.046 335.503,278.826 336.691,278.639 337.879,278.483 339.067,278.358 340.255,278.263 341.443,278.199 342.631,278.164 343.819,278.157 345.007,278.179 346.195,278.229 347.383,278.306 348.571,278.41 349.759,278.54 350.947,278.695 352.135,278.876 353.323,279.082 354.511,279.312 355.699,279.566 356.887,279.843 358.075,280.143 359.263,280.465 360.451,280.81 361.639,281.176 362.827,281.563 364.015,281.971 365.203,282.399 366.391,282.847 367.579,283.315 368.767,283.802 369.955,284.308 371.143,284.832 372.331,285.374 373.519,285.934 374.707,286.511 375.895,287.105 377.083,287.715 378.271,288.342 379.459,288.984 380.647,289.642 381.835,290.315 383.023,291.003 384.211,291.706 385.399,292.423 386.587,293.154 387.775,293.898 388.963,294.656 390.152,295.427 391.34,296.21 392.528,297.006 393.716,297.814 394.904,298.634 396.092,299.465 397.28,300.308 398.468,301.162 399.656,302.026 400.844,302.902 402.032,303.787 403.22,304.682 404.408,305.588 405.596,306.502 406.784,307.426 407.972,308.359 409.16,309.301 410.348,310.251 411.536,311.21 412.724,312.177 413.912,313.152 415.1,314.134 416.288,315.124 417.476,316.121 418.664,317.125 419.852,318.136 421.04,319.154 422.228,320.178 423.416,321.209 424.604,322.245 425.792,323.287 426.98,324.335 428.168,325.389 429.356,326.447 430.544,327.511 431.732,328.58 432.92,329.653 434.108,330.732 435.296,331.814 436.484,332.901 437.672,333.992 438.86,335.086 440.048,336.185 441.236,337.287 442.424,338.393 443.612,339.502 444.8,340.614 445.988,341.729 447.176,342.846 448.364,343.967 449.552,345.09 450.74,346.215 451.928,347.343 453.116,348.473 454.304,349.605 455.492,350.738 456.68,351.874 457.868,353.011 459.057,354.149 460.245,355.289 461.433,356.43 462.621,357.572 463.809,358.715 464.997,359.858 466.185,361.003 467.373,362.148 468.561,363.294 469.749,364.439 470.937,365.586 472.125,366.732 473.313,367.878 474.501,369.024 475.689,370.17 476.877,371.316 478.065,372.461 479.253,373.606 480.441,374.75 481.629,375.894 482.817,377.036 484.005,378.178 485.193,379.319 486.381,380.458 487.569,381.597 488.757,382.734 489.945,383.869 491.133,385.003 492.321,386.136 493.509,387.267 494.697,388.396 495.885,389.523 497.073,390.649 498.261,391.772 499.449,392.893 500.637,394.012 501.825,395.129 503.013,396.243 504.201,397.355 505.389,398.465 506.577,399.571 507.765,400.675 508.953,401.777 510.141,402.875 511.329,403.971 512.517,405.064 513.705,406.153 514.893,407.24 516.081,408.323 517.269,409.403 518.457,410.48 519.645,411.553 520.833,412.623 522.021,413.689 523.209,414.751 524.397,415.81 525.585,416.865 526.773,417.916 527.962,418.964 529.15,420.007 530.338,421.047 531.526,422.082 532.714,423.113 533.902,424.14 535.09,425.163 536.278,426.181 537.466,427.195 538.654,428.205 539.842,429.21 541.03,430.21 542.218,431.206 543.406,432.197 544.594,433.184 545.782,434.166 546.97,435.142 548.158,436.114 549.346,437.081 550.534,438.043 551.722,439 552.91,439.952 554.098,440.898 555.286,441.84 556.474,442.776 557.662,443.707 558.85,444.632 560.038,445.552 561.226,446.467 562.414,447.376 563.602,448.279 564.79,449.177 565.978,450.069 567.166,450.955 568.354,451.836 569.542,452.711 570.73,453.58 571.918,454.443 573.106,455.3 574.294,456.151 575.482,456.997 576.67,457.836 577.858,458.669 579.046,459.495 580.234,460.316 581.422,461.13 582.61,461.938 583.798,462.74 584.986,463.536 586.174,464.325 587.362,465.107 588.55,465.883 589.738,466.653 590.926,467.416 592.114,468.172 593.302,468.922 594.49,469.665 595.678,470.401 596.867,471.131 598.055,471.853 599.243,472.569 600.431,473.278 601.619,473.98 602.807,474.676 603.995,475.364 605.183,476.045 606.371,476.719 607.559,477.386 608.747,478.046 609.935,478.699 611.123,479.345 612.311,479.984 613.499,480.615 614.687,481.239 615.875,481.855 617.063,482.465 618.251,483.067 619.439,483.661 620.627,484.249 621.815,484.828 623.003,485.4 624.191,485.965 625.379,486.522 626.567,487.072 627.755,487.614 628.943,488.148 630.131,488.675 631.319,489.194 632.507,489.705 633.695,490.209 634.883,490.704 636.071,491.192 637.259,491.673 638.447,492.145 639.635,492.609 640.823,493.066 642.011,493.514 643.199,493.955 644.387,494.388 645.575,494.813 646.763,495.229 647.951,495.638 649.139,496.039 650.327,496.431 651.515,496.816 652.703,497.192 653.891,497.56 655.079,497.92 656.267,498.272 657.455,498.615 658.643,498.951 659.831,499.278 661.019,499.596 662.207,499.907 663.395,500.209 664.583,500.503 665.771,500.789 666.96,501.066 668.148,501.335 669.336,501.595 670.524,501.847 671.712,502.09 672.9,502.325 674.088,502.552 675.276,502.77 676.464,502.98 677.652,503.181 678.84,503.374 680.028,503.558 681.216,503.733 682.404,503.9 683.592,504.058 684.78,504.208 685.968,504.349 687.156,504.482 688.344,504.606 689.532,504.721 690.72,504.827 691.908,504.925 693.096,505.015 694.284,505.095 695.472,505.167 696.66,505.23 697.848,505.284 699.036,505.33 700.224,505.367 701.412,505.395 702.6,505.415 703.788,505.426 704.976,505.427 706.164,505.421 707.352,505.405 708.54,505.381 709.728,505.347 710.916,505.305 712.104,505.255 713.292,505.195 714.48,505.127 715.668,505.049 716.856,504.963 718.044,504.868 719.232,504.765 720.42,504.652 721.608,504.531 722.796,504.401 723.984,504.262 725.172,504.114 726.36,503.957 727.548,503.792 728.736,503.617 729.924,503.434 731.112,503.242 732.3,503.041 733.488,502.832 734.676,502.613 735.865,502.386 737.053,502.15 738.241,501.905 739.429,501.651 740.617,501.388 741.805,501.117 742.993,500.837 744.181,500.548 745.369,500.25 746.557,499.943 747.745,499.628 748.933,499.304 750.121,498.971 751.309,498.629 752.497,498.279 753.685,497.92 754.873,497.552 756.061,497.175 757.249,496.79 758.437,496.396 759.625,495.993 760.813,495.582 762.001,495.162 763.189,494.733 764.377,494.296 765.565,493.85 766.753,493.395 767.941,492.932 769.129,492.46 770.317,491.979 771.505,491.49 772.693,490.993 773.881,490.487 775.069,489.972 776.257,489.449 777.445,488.917 778.633,488.377 779.821,487.829 781.009,487.272 782.197,486.707 783.385,486.133 784.573,485.551 785.761,484.96 786.949,484.361 788.137,483.754 789.325,483.139 790.513,482.515 791.701,481.883 792.889,481.243 794.077,480.594 795.265,479.938 796.453,479.273 797.641,478.6 798.829,477.919 800.017,477.23 801.205,476.532 802.393,475.827 803.581,475.114 804.77,474.393 805.958,473.663 807.146,472.926 808.334,472.181 809.522,471.428 810.71,470.667 811.898,469.899 813.086,469.122 814.274,468.338 815.462,467.546 816.65,466.747 817.838,465.939 819.026,465.124 820.214,464.302 821.402,463.472 822.59,462.634 823.778,461.789 824.966,460.936 826.154,460.076 827.342,459.209 828.53,458.334 829.718,457.452 830.906,456.562 832.094,455.665 833.282,454.761 834.47,453.85 835.658,452.932 836.846,452.006 838.034,451.074 839.222,450.134 840.41,449.188 841.598,448.234 842.786,447.274 843.974,446.306 845.162,445.332 846.35,444.351 847.538,443.363 848.726,442.369 849.914,441.368 851.102,440.36 852.29,439.346 853.478,438.325 854.666,437.297 855.854,436.263 857.042,435.223 858.23,434.177 859.418,433.124 860.606,432.064 861.794,430.999 862.982,429.927 864.17,428.849 865.358,427.765 866.546,426.676 867.734,425.58 868.922,424.478 870.11,423.37 871.298,422.256 872.486,421.137 873.675,420.012 874.863,418.881 876.051,417.744 877.239,416.602 878.427,415.454 879.615,414.301 880.803,413.143 881.991,411.979 883.179,410.809 884.367,409.635 885.555,408.455 886.743,407.27 887.931,406.08 889.119,404.884 890.307,403.684 891.495,402.479 892.683,401.269 893.871,400.054 895.059,398.834 896.247,397.609 897.435,396.38 898.623,395.146 899.811,393.908 900.999,392.665 902.187,391.418 903.375,390.166 904.563,388.91 905.751,387.649 906.939,386.385 908.127,385.116 909.315,383.843 910.503,382.566 911.691,381.285 912.879,380.001 914.067,378.712 915.255,377.419 916.443,376.123 917.631,374.823 918.819,373.52 920.007,372.213 921.195,370.902 922.383,369.588 923.571,368.271 924.759,366.95 925.947,365.626 927.135,364.299 928.323,362.969 929.511,361.635 930.699,360.299 931.887,358.96 933.075,357.618 934.263,356.273 935.451,354.925 936.639,353.575 937.827,352.222 939.015,350.866 940.203,349.508 941.391,348.148 942.58,346.785 943.768,345.42 944.956,344.053 946.144,342.684 947.332,341.312 948.52,339.939 949.708,338.563 950.896,337.186 952.084,335.807 953.272,334.426 954.46,333.043 955.648,331.659 956.836,330.273 958.024,328.886 959.212,327.497 960.4,326.107 961.588,324.716 962.776,323.323 963.964,321.93 965.152,320.535 966.34,319.139 967.528,317.742 968.716,316.345 969.904,314.946 971.092,313.547 972.28,312.147 973.468,310.746 974.656,309.345 975.844,307.944 977.032,306.542 978.22,305.14 979.408,303.737 980.596,302.334 981.784,300.931 982.972,299.528 984.16,298.125 985.348,296.722 986.536,295.32 987.724,293.917 988.912,292.515 990.1,291.113 991.288,289.711 992.476,288.31 993.664,286.909 994.852,285.509 996.04,284.11 997.228,282.711 998.416,281.314 999.604,279.917 1000.79,278.521 1001.98,277.126 1003.17,275.732 1004.36,274.339 1005.54,272.948 1006.73,271.557 1007.92,270.168 1009.11,268.781 1010.3,267.395 1011.48,266.01 1012.67,264.627 1013.86,263.246 1015.05,261.866 1016.24,260.489 1017.42,259.113 1018.61,257.739 1019.8,256.367 1020.99,254.997 1022.18,253.629 1023.36,252.264 1024.55,250.9 1025.74,249.539 1026.93,248.181 1028.12,246.825 1029.3,245.471 1030.49,244.12 1031.68,242.771 1032.87,241.426 1034.06,240.082 1035.24,238.742 1036.43,237.405 1037.62,236.071 1038.81,234.739 1040,233.411 1041.18,232.086 1042.37,230.764 1043.56,229.445 1044.75,228.13 1045.94,226.818 1047.13,225.509 1048.31,224.204 1049.5,222.902 1050.69,221.604 1051.88,220.31 1053.07,219.019 1054.25,217.732 1055.44,216.449 1056.63,215.17 1057.82,213.895 1059.01,212.624 1060.19,211.357 1061.38,210.094 1062.57,208.835 1063.76,207.581 1064.95,206.331 1066.13,205.085 1067.32,203.843 1068.51,202.606 1069.7,201.374 1070.89,200.146 1072.07,198.923 1073.26,197.704 1074.45,196.49 1075.64,195.281 1076.83,194.076 1078.01,192.877 1079.2,191.682 1080.39,190.493 1081.58,189.308 1082.77,188.128 1083.95,186.954 1085.14,185.785 1086.33,184.621 1087.52,183.462 1088.71,182.309 1089.89,181.161 1091.08,180.018 1092.27,178.881 1093.46,177.749 1094.65,176.623 1095.83,175.502 1097.02,174.387 1098.21,173.278 1099.4,172.175 1100.59,171.077 1101.77,169.985 1102.96,168.899 1104.15,167.818 1105.34,166.744 1106.53,165.676 1107.71,164.614 1108.9,163.557 1110.09,162.507 1111.28,161.463 1112.47,160.425 1113.65,159.394 1114.84,158.368 1116.03,157.349 1117.22,156.337 1118.41,155.33 1119.59,154.33 1120.78,153.337 1121.97,152.349 1123.16,151.369 1124.35,150.395 1125.53,149.427 1126.72,148.466 1127.91,147.512 1129.1,146.565 1130.29,145.624 1131.47,144.69 1132.66,143.762 1133.85,142.842 1135.04,141.928 1136.23,141.021 1137.41,140.121 1138.6,139.228 1139.79,138.341 1140.98,137.462 1142.17,136.59 1143.35,135.725 1144.54,134.867 1145.73,134.015 1146.92,133.171 1148.11,132.334 1149.29,131.505 1150.48,130.682 1151.67,129.867 1152.86,129.058 1154.05,128.257 1155.23,127.464 1156.42,126.677 1157.61,125.898 1158.8,125.126 1159.99,124.362 1161.17,123.604 1162.36,122.855 1163.55,122.112 1164.74,121.377 1165.93,120.649 1167.11,119.929 1168.3,119.217 1169.49,118.511 1170.68,117.814 1171.87,117.123 1173.05,116.441 1174.24,115.765 1175.43,115.098 1176.62,114.438 1177.81,113.785 1178.99,113.14 1180.18,112.503 1181.37,111.873 1182.56,111.251 1183.75,110.636 1184.94,110.029 1186.12,109.43 1187.31,108.838 1188.5,108.254 1189.69,107.678 1190.88,107.109 1192.06,106.548 1193.25,105.995 1194.44,105.449 1195.63,104.911 1196.82,104.381 1198,103.858 1199.19,103.344 1200.38,102.836 1201.57,102.337 1202.76,101.845 1203.94,101.361 1205.13,100.885 1206.32,100.416 1207.51,99.9552 1208.7,99.502 1209.88,99.0565 1211.07,98.6188 1212.26,98.1887 1213.45,97.7664 1214.64,97.3517 1215.82,96.9448 1217.01,96.5455 1218.2,96.154 1219.39,95.7702 1220.58,95.394 1221.76,95.0255 1222.95,94.6648 1224.14,94.3116 1225.33,93.9662 1226.52,93.6284 1227.7,93.2983 1228.89,92.9758 1230.08,92.661 1231.27,92.3538 1232.46,92.0542 1233.64,91.7623 1234.83,91.4779 1236.02,91.2012 1237.21,90.932 1238.4,90.6704 1239.58,90.4164 1240.77,90.17 1241.96,89.931 1243.15,89.6997 1244.34,89.4758 1245.52,89.2595 1246.71,89.0506 1247.9,88.8493 1249.09,88.6554 1250.28,88.469 1251.46,88.29 1252.65,88.1184 1253.84,87.9543 1255.03,87.7976 1256.22,87.6482 1257.4,87.5062 1258.59,87.3716 1259.78,87.2443 1260.97,87.1243 1262.16,87.0116 1263.34,86.9063 1264.53,86.8081 1265.72,86.7173 1266.91,86.6337 1268.1,86.5572 1269.28,86.488 1270.47,86.426 1271.66,86.3711 1272.85,86.3234 1274.04,86.2827 1275.22,86.2492 1276.41,86.2228 1277.6,86.2034 1278.79,86.191 1279.98,86.1857 1281.16,86.1873 1282.35,86.196 1283.54,86.2115 1284.73,86.2341 1285.92,86.2635 1287.1,86.2998 1288.29,86.343 1289.48,86.393 1290.67,86.4498 1291.86,86.5134 1293.04,86.5838 1294.23,86.6609 1295.42,86.7448 1296.61,86.8353 1297.8,86.9325 1298.98,87.0364 1300.17,87.1469 1301.36,87.264 1302.55,87.3877 1303.74,87.5179 1304.92,87.6546 1306.11,87.7978 1307.3,87.9475 1308.49,88.1037 1309.68,88.2662 1310.86,88.4352 1312.05,88.6105 1313.24,88.7922 1314.43,88.9801 1315.62,89.1744 1316.8,89.3749 1317.99,89.5817 1319.18,89.7946 1320.37,90.0137 1321.56,90.239 1322.75,90.4704 1323.93,90.7079 1325.12,90.9514 1326.31,91.201 1327.5,91.4566 1328.69,91.7181 1329.87,91.9857 1331.06,92.2591 1332.25,92.5384 1333.44,92.8236 1334.63,93.1147 1335.81,93.4115 1337,93.7141 1338.19,94.0225 1339.38,94.3366 1340.57,94.6563 1341.75,94.9818 1342.94,95.3128 1344.13,95.6495 1345.32,95.9917 1346.51,96.3395 1347.69,96.6928 1348.88,97.0516 1350.07,97.4158 1351.26,97.7854 1352.45,98.1605 1353.63,98.5409 1354.82,98.9266 1356.01,99.3177 1357.2,99.714 1358.39,100.116 1359.57,100.522 1360.76,100.934 1361.95,101.351 1363.14,101.774 1364.33,102.201 1365.51,102.633 1366.7,103.071 1367.89,103.513 1369.08,103.96 1370.27,104.413 1371.45,104.87 1372.64,105.332 1373.83,105.799 1375.02,106.271 1376.21,106.747 1377.39,107.228 1378.58,107.715 1379.77,108.205 1380.96,108.701 1382.15,109.201 1383.33,109.705 1384.52,110.214 1385.71,110.728 1386.9,111.246 1388.09,111.769 1389.27,112.296 1390.46,112.828 1391.65,113.364 1392.84,113.904 1394.03,114.449 1395.21,114.998 1396.4,115.551 1397.59,116.109 1398.78,116.671 1399.97,117.237 1401.15,117.807 1402.34,118.381 1403.53,118.959 1404.72,119.542 1405.91,120.128 1407.09,120.718 1408.28,121.313 1409.47,121.911 1410.66,122.513 1411.85,123.119 1413.03,123.729 1414.22,124.343 1415.41,124.961 1416.6,125.582 1417.79,126.207 1418.97,126.836 1420.16,127.469 1421.35,128.105 1422.54,128.745 1423.73,129.388 1424.91,130.035 1426.1,130.686 1427.29,131.34 1428.48,131.997 1429.67,132.658 1430.85,133.323 1432.04,133.991 1433.23,134.662 1434.42,135.336 1435.61,136.014 1436.79,136.695 1437.98,137.38 1439.17,138.067 1440.36,138.758 1441.55,139.452 1442.73,140.149 1443.92,140.85 1445.11,141.553 1446.3,142.26 1447.49,142.969 1448.67,143.682 1449.86,144.397 1451.05,145.116 1452.24,145.837 1453.43,146.562 1454.61,147.289 1455.8,148.019 1456.99,148.752 1458.18,149.488 1459.37,150.226 1460.55,150.968 1461.74,151.712 1462.93,152.458 1464.12,153.208 1465.31,153.96 1466.5,154.715 1467.68,155.472 1468.87,156.232 1470.06,156.994 1471.25,157.759 1472.44,158.527 1473.62,159.297 1474.81,160.069 1476,160.844 1477.19,161.622 1478.38,162.401 1479.56,163.183 1480.75,163.968 1481.94,164.755 1483.13,165.544 1484.32,166.335 1485.5,167.128 1486.69,167.924 1487.88,168.722 1489.07,169.522 1490.26,170.325 1491.44,171.129 1492.63,171.936 1493.82,172.744 1495.01,173.555 1496.2,174.368 1497.38,175.183 1498.57,176 1499.76,176.818 1500.95,177.639 1502.14,178.462 1503.32,179.286 1504.51,180.113 1505.7,180.941 1506.89,181.771 1508.08,182.604 1509.26,183.437 1510.45,184.273 1511.64,185.11 1512.83,185.95 1514.02,186.791 1515.2,187.633 1516.39,188.478 1517.58,189.324 1518.77,190.171 1519.96,191.02 1521.14,191.871 1522.33,192.724 1523.52,193.578 1524.71,194.433 1525.9,195.291 1527.08,196.149 1528.27,197.009 1529.46,197.871 1530.65,198.734 1531.84,199.599 1533.02,200.465 1534.21,201.332 1535.4,202.201 1536.59,203.071 1537.78,203.942 1538.96,204.815 1540.15,205.689 1541.34,206.565 1542.53,207.441 1543.72,208.319 1544.9,209.199 1546.09,210.079 1547.28,210.961 1548.47,211.844 1549.66,212.728 1550.84,213.613 1552.03,214.499 1553.22,215.387 1554.41,216.275 1555.6,217.165 1556.78,218.056 1557.97,218.948 1559.16,219.841 1560.35,220.735 1561.54,221.63 1562.72,222.525 1563.91,223.422 1565.1,224.32 1566.29,225.219 1567.48,226.119 1568.66,227.02 1569.85,227.922 1571.04,228.824 1572.23,229.728 1573.42,230.632 1574.6,231.537 1575.79,232.443 1576.98,233.35 1578.17,234.258 1579.36,235.166 1580.54,236.076 1581.73,236.986 1582.92,237.896 1584.11,238.808 1585.3,239.72 1586.48,240.633 1587.67,241.547 1588.86,242.461 1590.05,243.376 1591.24,244.292 1592.42,245.209 1593.61,246.126 1594.8,247.043 1595.99,247.962 1597.18,248.881 1598.36,249.8 1599.55,250.72 1600.74,251.641 1601.93,252.562 1603.12,253.484 1604.31,254.406 1605.49,255.329 1606.68,256.252 1607.87,257.176 1609.06,258.1 1610.25,259.025 1611.43,259.95 1612.62,260.876 1613.81,261.802 1615,262.729 1616.19,263.656 1617.37,264.583 1618.56,265.511 1619.75,266.439 1620.94,267.368 1622.13,268.297 1623.31,269.226 1624.5,270.156 1625.69,271.086 1626.88,272.016 1628.07,272.947 1629.25,273.878 1630.44,274.809 1631.63,275.74 1632.82,276.672 1634.01,277.604 1635.19,278.537 1636.38,279.469 1637.57,280.402 1638.76,281.335 1639.95,282.268 1641.13,283.202 1642.32,284.135 1643.51,285.069 1644.7,286.003 1645.89,286.938 1647.07,287.872 1648.26,288.806 1649.45,289.741 1650.64,290.676 1651.83,291.611 1653.01,292.546 1654.2,293.481 1655.39,294.417 1656.58,295.352 1657.77,296.288 1658.95,297.223 1660.14,298.159 1661.33,299.095 1662.52,300.031 1663.71,300.966 1664.89,301.902 1666.08,302.838 1667.27,303.774 1668.46,304.71 1669.65,305.646 1670.83,306.582 1672.02,307.518 1673.21,308.454 1674.4,309.39 1675.59,310.326 1676.77,311.262 1677.96,312.198 1679.15,313.134 1680.34,314.07 1681.53,315.006 1682.71,315.941 1683.9,316.877 1685.09,317.813 1686.28,318.748 1687.47,319.684 1688.65,320.619 1689.84,321.554 1691.03,322.489 1692.22,323.424 1693.41,324.359 1694.59,325.294 1695.78,326.229 1696.97,327.163 1698.16,328.097 1699.35,329.032 1700.53,329.966 1701.72,330.9 1702.91,331.833 1704.1,332.767 1705.29,333.7 1706.47,334.633 1707.66,335.566 1708.85,336.499 1710.04,337.432 1711.23,338.364 1712.41,339.296 1713.6,340.228 1714.79,341.16 1715.98,342.092 1717.17,343.023 1718.35,343.954 1719.54,344.885 1720.73,345.815 1721.92,346.746 1723.11,347.676 1724.29,348.606 1725.48,349.535 1726.67,350.464 1727.86,351.393 1729.05,352.322 1730.23,353.251 1731.42,354.179 1732.61,355.107 1733.8,356.034 1734.99,356.961 1736.17,357.888 1737.36,358.815 1738.55,359.741 1739.74,360.667 1740.93,361.593 1742.12,362.518 1743.3,363.443 1744.49,364.368 1745.68,365.292 1746.87,366.216 1748.06,367.14 1749.24,368.063 1750.43,368.986 1751.62,369.909 1752.81,370.831 1754,371.753 1755.18,372.675 1756.37,373.596 1757.56,374.516 1758.75,375.437 1759.94,376.357 1761.12,377.276 1762.31,378.196 1763.5,379.114 1764.69,380.033 1765.88,380.951 1767.06,381.869 1768.25,382.786 1769.44,383.703 1770.63,384.619 1771.82,385.535 1773,386.45 1774.19,387.365 1775.38,388.28 1776.57,389.194 1777.76,390.108 1778.94,391.022 1780.13,391.935 1781.32,392.847 1782.51,393.759 1783.7,394.671 1784.88,395.582 1786.07,396.493 1787.26,397.403 1788.45,398.313 1789.64,399.222 1790.82,400.131 1792.01,401.039 1793.2,401.947 1794.39,402.854 1795.58,403.761 1796.76,404.668 1797.95,405.574 1799.14,406.479 1800.33,407.385 1801.52,408.289 1802.7,409.193 1803.89,410.097 1805.08,411 1806.27,411.902 1807.46,412.804 1808.64,413.706 1809.83,414.607 1811.02,415.508 1812.21,416.408 1813.4,417.307 1814.58,418.206 1815.77,419.105 1816.96,420.003 1818.15,420.9 1819.34,421.797 1820.52,422.693 1821.71,423.589 1822.9,424.485 1824.09,425.379 1825.28,426.274 1826.46,427.168 1827.65,428.061 1828.84,428.953 1830.03,429.846 1831.22,430.737 1832.4,431.628 1833.59,432.519 1834.78,433.409 1835.97,434.298 1837.16,435.187 1838.34,436.075 1839.53,436.963 1840.72,437.85 1841.91,438.737 1843.1,439.623 1844.28,440.508 1845.47,441.393 1846.66,442.278 1847.85,443.162 1849.04,444.045 1850.22,444.928 1851.41,445.81 1852.6,446.691 1853.79,447.572 1854.98,448.453 1856.16,449.332 1857.35,450.212 1858.54,451.09 1859.73,451.968 1860.92,452.846 1862.1,453.723 1863.29,454.599 1864.48,455.475 1865.67,456.35 1866.86,457.224 1868.04,458.098 1869.23,458.972 1870.42,459.845 1871.61,460.717 1872.8,461.588 1873.98,462.459 1875.17,463.33 1876.36,464.199 1877.55,465.069 1878.74,465.937 1879.93,466.805 1881.11,467.673 1882.3,468.539 1883.49,469.406 1884.68,470.271 1885.87,471.136 1887.05,472 1888.24,472.864 1889.43,473.727 1890.62,474.59 1891.81,475.452 1892.99,476.313 1894.18,477.174 1895.37,478.034 1896.56,478.893 1897.75,479.752 1898.93,480.61 1900.12,481.468 1901.31,482.325 1902.5,483.181 1903.69,484.037 1904.87,484.892 1906.06,485.746 1907.25,486.6 1908.44,487.453 1909.63,488.306 1910.81,489.158 1912,490.009 1913.19,490.86 1914.38,491.71 1915.57,492.559 1916.75,493.408 1917.94,494.256 1919.13,495.104 1920.32,495.951 1921.51,496.797 1922.69,497.643 1923.88,498.488 1925.07,499.332 1926.26,500.176 1927.45,501.019 1928.63,501.861 1929.82,502.703 1931.01,503.544 1932.2,504.385 1933.39,505.225 1934.57,506.064 1935.76,506.903 1936.95,507.741 1938.14,508.578 1939.33,509.415 1940.51,510.251 1941.7,511.086 1942.89,511.921 1944.08,512.755 1945.27,513.589 1946.45,514.421 1947.64,515.254 1948.83,516.085 1950.02,516.916 1951.21,517.746 1952.39,518.576 1953.58,519.405 1954.77,520.233 1955.96,521.061 1957.15,521.888 1958.33,522.714 1959.52,523.54 1960.71,524.365 1961.9,525.189 1963.09,526.013 1964.27,526.836 1965.46,527.658 1966.65,528.48 1967.84,529.301 1969.03,530.122 1970.21,530.941 1971.4,531.76 1972.59,532.579 1973.78,533.397 1974.97,534.214 1976.15,535.031 1977.34,535.846 1978.53,536.662 1979.72,537.476 1980.91,538.29 1982.09,539.103 1983.28,539.916 1984.47,540.728 1985.66,541.539 1986.85,542.35 1988.03,543.16 1989.22,543.969 1990.41,544.778 1991.6,545.586 1992.79,546.393 1993.97,547.2 1995.16,548.006 1996.35,548.811 1997.54,549.616 1998.73,550.42 1999.91,551.223 2001.1,552.026 2002.29,552.828 2003.48,553.629 2004.67,554.43 2005.85,555.23 2007.04,556.029 2008.23,556.828 2009.42,557.626 2010.61,558.423 2011.79,559.22 2012.98,560.016 2014.17,560.812 2015.36,561.607 2016.55,562.401 2017.74,563.194 2018.92,563.987 2020.11,564.779 2021.3,565.57 2022.49,566.361 2023.68,567.151 2024.86,567.941 2026.05,568.73 2027.24,569.518 2028.43,570.305 2029.62,571.092 2030.8,571.878 2031.99,572.664 2033.18,573.449 2034.37,574.233 2035.56,575.016 2036.74,575.799 2037.93,576.581 2039.12,577.363 2040.31,578.144 2041.5,578.924 2042.68,579.704 2043.87,580.482 2045.06,581.261 2046.25,582.038 2047.44,582.815 2048.62,583.591 2049.81,584.367 2051,585.142 2052.19,585.916 2053.38,586.69 2054.56,587.463 2055.75,588.235 2056.94,589.006 2058.13,589.777 2059.32,590.548 2060.5,591.317 2061.69,592.086 2062.88,592.855 2064.07,593.622 2065.26,594.389 2066.44,595.156 2067.63,595.921 2068.82,596.686 2070.01,597.451 2071.2,598.214 2072.38,598.977 2073.57,599.74 2074.76,600.501 2075.95,601.262 2077.14,602.023 2078.32,602.782 2079.51,603.541 2080.7,604.3 2081.89,605.058 2083.08,605.815 2084.26,606.571 2085.45,607.327 2086.64,608.082 2087.83,608.836 2089.02,609.59 2090.2,610.343 2091.39,611.096 2092.58,611.848 2093.77,612.599 2094.96,613.349 2096.14,614.099 2097.33,614.848 2098.52,615.597 2099.71,616.345 2100.9,617.092 2102.08,617.838 2103.27,618.584 2104.46,619.33 2105.65,620.074 2106.84,620.818 2108.02,621.561 2109.21,622.304 2110.4,623.046 2111.59,623.787 2112.78,624.528 2113.96,625.268 2115.15,626.007 2116.34,626.746 2117.53,627.484 2118.72,628.222 2119.9,628.958 2121.09,629.694 2122.28,630.43 2123.47,631.165 2124.66,631.899 2125.84,632.632 2127.03,633.365 2128.22,634.097 2129.41,634.829 2130.6,635.56 2131.78,636.29 2132.97,637.019 2134.16,637.748 2135.35,638.477 2136.54,639.204 2137.72,639.931 2138.91,640.658 2140.1,641.383 2141.29,642.108 2142.48,642.833 2143.66,643.556 2144.85,644.28 2146.04,645.002 2147.23,645.724 2148.42,646.445 2149.6,647.166 2150.79,647.885 2151.98,648.605 2153.17,649.323 2154.36,650.041 2155.55,650.758 2156.73,651.475 2157.92,652.191 2159.11,652.906 2160.3,653.621 2161.49,654.335 2162.67,655.049 2163.86,655.761 2165.05,656.473 2166.24,657.185 2167.43,657.896 2168.61,658.606 2169.8,659.316 2170.99,660.025 2172.18,660.733 2173.37,661.44 2174.55,662.147 2175.74,662.854 2176.93,663.56 2178.12,664.265 2179.31,664.969 2180.49,665.673 2181.68,666.376 2182.87,667.079 2184.06,667.781 2185.25,668.482 2186.43,669.182 2187.62,669.882 2188.81,670.582 2190,671.28 2191.19,671.979 2192.37,672.676 2193.56,673.373 2194.75,674.069 2195.94,674.765 2197.13,675.46 2198.31,676.154 2199.5,676.847 2200.69,677.54 2201.88,678.233 2203.07,678.925 2204.25,679.616 2205.44,680.306 2206.63,680.996 2207.82,681.685 2209.01,682.374 2210.19,683.062 2211.38,683.749 2212.57,684.436 2213.76,685.122 2214.95,685.807 2216.13,686.492 2217.32,687.177 2218.51,687.86 2219.7,688.543 2220.89,689.225 2222.07,689.907 2223.26,690.588 2224.45,691.269 2225.64,691.948 2226.83,692.628 2228.01,693.306 2229.2,693.984 2230.39,694.661 2231.58,695.338 2232.77,696.014 2233.95,696.69 2235.14,697.365 2236.33,698.039 2237.52,698.712 2238.71,699.385 2239.89,700.058 2241.08,700.729 2242.27,701.401 2243.46,702.071 2244.65,702.741 2245.83,703.41 2247.02,704.079 2248.21,704.747 2249.4,705.414 2250.59,706.081 2251.77,706.747 2252.96,707.413 2254.15,708.078 2255.34,708.742 2256.53,709.406 2257.71,710.069 2258.9,710.731 2260.09,711.393 2261.28,712.054 2262.47,712.715 2263.65,713.375 2264.84,714.035 2266.03,714.693 2267.22,715.352 2268.41,716.009 2269.59,716.666 2270.78,717.323 2271.97,717.978 2273.16,718.633 2274.35,719.288 2275.53,719.942 2276.72,720.595 2277.91,721.248 2279.1,721.9 2280.29,722.552 2281.47,723.203 2282.66,723.853 2283.85,724.503 2285.04,725.152 2286.23,725.8 2287.41,726.448 2288.6,727.095 2289.79,727.742 2290.98,728.388 2292.17,729.033 2293.36,729.678 2294.54,730.323 2295.73,730.966 2296.92,731.609 2298.11,732.252 2299.3,732.894 2300.48,733.535 2301.67,734.175 2302.86,734.816 2304.05,735.455 2305.24,736.094 2306.42,736.732 2307.61,737.37 2308.8,738.007 2309.99,738.643 2311.18,739.279 2312.36,739.915 2313.55,740.549 2314.74,741.183 2315.93,741.817 2317.12,742.45 2318.3,743.082 2319.49,743.714 2320.68,744.345 2321.87,744.975 2323.06,745.605 2324.24,746.235 2325.43,746.864 2326.62,747.492 2327.81,748.119 2329,748.746 2330.18,749.373 2331.37,749.999 2332.56,750.624 2333.75,751.248 2334.94,751.872 2336.12,752.496 2337.31,753.119 2338.5,753.741 2339.69,754.363 2340.88,754.984 2342.06,755.605 2343.25,756.224 2344.44,756.844 2345.63,757.463 2346.82,758.081 2348,758.698 2349.19,759.316 2350.38,759.932 2351.57,760.548 2352.76,761.163 "/>
<circle clip-path="url(#clip581)" cx="257.874" cy="416.903" r="14.4" fill="#e26f46" fill-rule="evenodd" fill-opacity="1" stroke="#000000" stroke-opacity="1" stroke-width="3.2"/>
<circle clip-path="url(#clip581)" cx="348.429" cy="265.552" r="14.4" fill="#e26f46" fill-rule="evenodd" fill-opacity="1" stroke="#000000" stroke-opacity="1" stroke-width="3.2"/>
<circle clip-path="url(#clip581)" cx="408.98" cy="206.327" r="14.4" fill="#e26f46" fill-rule="evenodd" fill-opacity="1" stroke="#000000" stroke-opacity="1" stroke-width="3.2"/>
<circle clip-path="url(#clip581)" cx="510.742" cy="489.289" r="14.4" fill="#e26f46" fill-rule="evenodd" fill-opacity="1" stroke="#000000" stroke-opacity="1" stroke-width="3.2"/>
<circle clip-path="url(#clip581)" cx="663.294" cy="495.869" r="14.4" fill="#e26f46" fill-rule="evenodd" fill-opacity="1" stroke="#000000" stroke-opacity="1" stroke-width="3.2"/>
<circle clip-path="url(#clip581)" cx="938.756" cy="344.518" r="14.4" fill="#e26f46" fill-rule="evenodd" fill-opacity="1" stroke="#000000" stroke-opacity="1" stroke-width="3.2"/>
<circle clip-path="url(#clip581)" cx="1495.1" cy="193.166" r="14.4" fill="#e26f46" fill-rule="evenodd" fill-opacity="1" stroke="#000000" stroke-opacity="1" stroke-width="3.2"/>
<circle clip-path="url(#clip581)" cx="2244.31" cy="693.285" r="14.4" fill="#e26f46" fill-rule="evenodd" fill-opacity="1" stroke="#000000" stroke-opacity="1" stroke-width="3.2"/>
<path clip-path="url(#clip580)" d="M1371.26 248.629 L2279.53 248.629 L2279.53 93.1086 L1371.26 93.1086  Z" fill="#ffffff" fill-rule="evenodd" fill-opacity="1"/>
<polyline clip-path="url(#clip580)" style="stroke:#000000; stroke-linecap:round; stroke-linejoin:round; stroke-width:4; stroke-opacity:1; fill:none" points="1371.26,248.629 2279.53,248.629 2279.53,93.1086 1371.26,93.1086 1371.26,248.629 "/>
<polyline clip-path="url(#clip580)" style="stroke:#009af9; stroke-linecap:round; stroke-linejoin:round; stroke-width:4; stroke-opacity:1; fill:none" points="1395.67,144.949 1542.11,144.949 "/>
<path clip-path="url(#clip580)" d="M1587.03 137.298 L1587.03 141.28 Q1585.22 140.284 1583.39 139.798 Q1581.59 139.289 1579.74 139.289 Q1575.59 139.289 1573.3 141.928 Q1571.01 144.544 1571.01 149.289 Q1571.01 154.034 1573.3 156.673 Q1575.59 159.289 1579.74 159.289 Q1581.59 159.289 1583.39 158.803 Q1585.22 158.293 1587.03 157.298 L1587.03 161.233 Q1585.25 162.067 1583.33 162.483 Q1581.43 162.9 1579.27 162.9 Q1573.42 162.9 1569.97 159.219 Q1566.52 155.539 1566.52 149.289 Q1566.52 142.946 1569.99 139.312 Q1573.49 135.678 1579.55 135.678 Q1581.52 135.678 1583.39 136.095 Q1585.27 136.488 1587.03 137.298 Z" fill="#000000" fill-rule="nonzero" fill-opacity="1" /><path clip-path="url(#clip580)" d="M1589.83 127.669 L1619.07 127.669 L1619.07 131.604 L1606.8 131.604 L1606.8 162.229 L1602.1 162.229 L1602.1 131.604 L1589.83 131.604 L1589.83 127.669 Z" fill="#000000" fill-rule="nonzero" fill-opacity="1" /><path clip-path="url(#clip580)" d="M1644.95 146.581 L1644.95 162.229 L1640.69 162.229 L1640.69 146.719 Q1640.69 143.039 1639.25 141.21 Q1637.82 139.382 1634.95 139.382 Q1631.5 139.382 1629.51 141.581 Q1627.51 143.78 1627.51 147.576 L1627.51 162.229 L1623.23 162.229 L1623.23 136.303 L1627.51 136.303 L1627.51 140.331 Q1629.04 137.993 1631.1 136.835 Q1633.19 135.678 1635.89 135.678 Q1640.36 135.678 1642.65 138.456 Q1644.95 141.21 1644.95 146.581 Z" fill="#000000" fill-rule="nonzero" fill-opacity="1" /><path clip-path="url(#clip580)" d="M1648.83 127.669 L1678.07 127.669 L1678.07 131.604 L1665.8 131.604 L1665.8 162.229 L1661.1 162.229 L1661.1 131.604 L1648.83 131.604 L1648.83 127.669 Z" fill="#000000" fill-rule="nonzero" fill-opacity="1" /><path clip-path="url(#clip580)" d="M1714 137.067 L1714 141.094 Q1712.19 140.169 1710.25 139.706 Q1708.3 139.243 1706.22 139.243 Q1703.05 139.243 1701.45 140.215 Q1699.88 141.187 1699.88 143.131 Q1699.88 144.613 1701.01 145.469 Q1702.14 146.303 1705.57 147.067 L1707.03 147.391 Q1711.57 148.363 1713.46 150.145 Q1715.38 151.905 1715.38 155.076 Q1715.38 158.687 1712.51 160.793 Q1709.67 162.9 1704.67 162.9 Q1702.58 162.9 1700.32 162.483 Q1698.07 162.09 1695.57 161.28 L1695.57 156.881 Q1697.93 158.108 1700.22 158.733 Q1702.51 159.335 1704.76 159.335 Q1707.77 159.335 1709.39 158.317 Q1711.01 157.275 1711.01 155.4 Q1711.01 153.664 1709.83 152.738 Q1708.67 151.812 1704.71 150.956 L1703.23 150.608 Q1699.27 149.775 1697.51 148.062 Q1695.76 146.326 1695.76 143.317 Q1695.76 139.659 1698.35 137.669 Q1700.94 135.678 1705.71 135.678 Q1708.07 135.678 1710.15 136.025 Q1712.24 136.372 1714 137.067 Z" fill="#000000" fill-rule="nonzero" fill-opacity="1" /><path clip-path="url(#clip580)" d="M1722.17 136.303 L1726.43 136.303 L1726.43 162.229 L1722.17 162.229 L1722.17 136.303 M1722.17 126.21 L1726.43 126.21 L1726.43 131.604 L1722.17 131.604 L1722.17 126.21 Z" fill="#000000" fill-rule="nonzero" fill-opacity="1" /><path clip-path="url(#clip580)" d="M1755.52 141.28 Q1757.12 138.409 1759.34 137.044 Q1761.57 135.678 1764.57 135.678 Q1768.63 135.678 1770.82 138.525 Q1773.02 141.349 1773.02 146.581 L1773.02 162.229 L1768.74 162.229 L1768.74 146.719 Q1768.74 142.993 1767.42 141.187 Q1766.1 139.382 1763.39 139.382 Q1760.08 139.382 1758.16 141.581 Q1756.24 143.78 1756.24 147.576 L1756.24 162.229 L1751.96 162.229 L1751.96 146.719 Q1751.96 142.969 1750.64 141.187 Q1749.32 139.382 1746.57 139.382 Q1743.3 139.382 1741.38 141.604 Q1739.46 143.803 1739.46 147.576 L1739.46 162.229 L1735.18 162.229 L1735.18 136.303 L1739.46 136.303 L1739.46 140.331 Q1740.92 137.946 1742.95 136.812 Q1744.99 135.678 1747.79 135.678 Q1750.62 135.678 1752.58 137.113 Q1754.57 138.548 1755.52 141.28 Z" fill="#000000" fill-rule="nonzero" fill-opacity="1" /><path clip-path="url(#clip580)" d="M1781.08 151.997 L1781.08 136.303 L1785.34 136.303 L1785.34 151.835 Q1785.34 155.516 1786.77 157.368 Q1788.21 159.196 1791.08 159.196 Q1794.53 159.196 1796.52 156.997 Q1798.53 154.798 1798.53 151.002 L1798.53 136.303 L1802.79 136.303 L1802.79 162.229 L1798.53 162.229 L1798.53 158.247 Q1796.98 160.608 1794.92 161.766 Q1792.88 162.9 1790.18 162.9 Q1785.71 162.9 1783.39 160.122 Q1781.08 157.344 1781.08 151.997 M1791.8 135.678 L1791.8 135.678 Z" fill="#000000" fill-rule="nonzero" fill-opacity="1" /><path clip-path="url(#clip580)" d="M1811.56 126.21 L1815.82 126.21 L1815.82 162.229 L1811.56 162.229 L1811.56 126.21 Z" fill="#000000" fill-rule="nonzero" fill-opacity="1" /><path clip-path="url(#clip580)" d="M1836.52 149.196 Q1831.36 149.196 1829.37 150.377 Q1827.37 151.557 1827.37 154.405 Q1827.37 156.673 1828.86 158.016 Q1830.36 159.335 1832.93 159.335 Q1836.47 159.335 1838.6 156.835 Q1840.75 154.312 1840.75 150.145 L1840.75 149.196 L1836.52 149.196 M1845.01 147.437 L1845.01 162.229 L1840.75 162.229 L1840.75 158.293 Q1839.3 160.655 1837.12 161.789 Q1834.94 162.9 1831.8 162.9 Q1827.81 162.9 1825.45 160.678 Q1823.12 158.432 1823.12 154.682 Q1823.12 150.307 1826.03 148.085 Q1828.97 145.863 1834.78 145.863 L1840.75 145.863 L1840.75 145.446 Q1840.75 142.507 1838.81 140.909 Q1836.89 139.289 1833.39 139.289 Q1831.17 139.289 1829.06 139.821 Q1826.96 140.354 1825.01 141.419 L1825.01 137.483 Q1827.35 136.581 1829.55 136.141 Q1831.75 135.678 1833.83 135.678 Q1839.46 135.678 1842.24 138.594 Q1845.01 141.511 1845.01 147.437 Z" fill="#000000" fill-rule="nonzero" fill-opacity="1" /><path clip-path="url(#clip580)" d="M1858 128.942 L1858 136.303 L1866.77 136.303 L1866.77 139.613 L1858 139.613 L1858 153.687 Q1858 156.858 1858.86 157.761 Q1859.74 158.664 1862.4 158.664 L1866.77 158.664 L1866.77 162.229 L1862.4 162.229 Q1857.47 162.229 1855.59 160.4 Q1853.72 158.548 1853.72 153.687 L1853.72 139.613 L1850.59 139.613 L1850.59 136.303 L1853.72 136.303 L1853.72 128.942 L1858 128.942 Z" fill="#000000" fill-rule="nonzero" fill-opacity="1" /><path clip-path="url(#clip580)" d="M1872.37 136.303 L1876.63 136.303 L1876.63 162.229 L1872.37 162.229 L1872.37 136.303 M1872.37 126.21 L1876.63 126.21 L1876.63 131.604 L1872.37 131.604 L1872.37 126.21 Z" fill="#000000" fill-rule="nonzero" fill-opacity="1" /><path clip-path="url(#clip580)" d="M1895.59 139.289 Q1892.17 139.289 1890.18 141.974 Q1888.18 144.636 1888.18 149.289 Q1888.18 153.942 1890.15 156.627 Q1892.14 159.289 1895.59 159.289 Q1898.99 159.289 1900.99 156.604 Q1902.98 153.918 1902.98 149.289 Q1902.98 144.682 1900.99 141.997 Q1898.99 139.289 1895.59 139.289 M1895.59 135.678 Q1901.15 135.678 1904.32 139.289 Q1907.49 142.9 1907.49 149.289 Q1907.49 155.655 1904.32 159.289 Q1901.15 162.9 1895.59 162.9 Q1890.01 162.9 1886.84 159.289 Q1883.69 155.655 1883.69 149.289 Q1883.69 142.9 1886.84 139.289 Q1890.01 135.678 1895.59 135.678 Z" fill="#000000" fill-rule="nonzero" fill-opacity="1" /><path clip-path="url(#clip580)" d="M1936.1 146.581 L1936.1 162.229 L1931.84 162.229 L1931.84 146.719 Q1931.84 143.039 1930.41 141.21 Q1928.97 139.382 1926.1 139.382 Q1922.65 139.382 1920.66 141.581 Q1918.67 143.78 1918.67 147.576 L1918.67 162.229 L1914.39 162.229 L1914.39 136.303 L1918.67 136.303 L1918.67 140.331 Q1920.2 137.993 1922.26 136.835 Q1924.34 135.678 1927.05 135.678 Q1931.52 135.678 1933.81 138.456 Q1936.1 141.21 1936.1 146.581 Z" fill="#000000" fill-rule="nonzero" fill-opacity="1" /><path clip-path="url(#clip580)" d="M1963.79 158.34 L1963.79 172.09 L1959.5 172.09 L1959.5 136.303 L1963.79 136.303 L1963.79 140.238 Q1965.13 137.923 1967.17 136.812 Q1969.23 135.678 1972.07 135.678 Q1976.8 135.678 1979.74 139.428 Q1982.7 143.178 1982.7 149.289 Q1982.7 155.4 1979.74 159.15 Q1976.8 162.9 1972.07 162.9 Q1969.23 162.9 1967.17 161.789 Q1965.13 160.655 1963.79 158.34 M1978.28 149.289 Q1978.28 144.59 1976.33 141.928 Q1974.41 139.243 1971.03 139.243 Q1967.65 139.243 1965.71 141.928 Q1963.79 144.59 1963.79 149.289 Q1963.79 153.988 1965.71 156.673 Q1967.65 159.335 1971.03 159.335 Q1974.41 159.335 1976.33 156.673 Q1978.28 153.988 1978.28 149.289 Z" fill="#000000" fill-rule="nonzero" fill-opacity="1" /><path clip-path="url(#clip580)" d="M2001.54 149.196 Q1996.38 149.196 1994.39 150.377 Q1992.4 151.557 1992.4 154.405 Q1992.4 156.673 1993.88 158.016 Q1995.38 159.335 1997.95 159.335 Q2001.49 159.335 2003.62 156.835 Q2005.78 154.312 2005.78 150.145 L2005.78 149.196 L2001.54 149.196 M2010.04 147.437 L2010.04 162.229 L2005.78 162.229 L2005.78 158.293 Q2004.32 160.655 2002.14 161.789 Q1999.97 162.9 1996.82 162.9 Q1992.84 162.9 1990.48 160.678 Q1988.14 158.432 1988.14 154.682 Q1988.14 150.307 1991.05 148.085 Q1993.99 145.863 1999.8 145.863 L2005.78 145.863 L2005.78 145.446 Q2005.78 142.507 2003.83 140.909 Q2001.91 139.289 1998.42 139.289 Q1996.19 139.289 1994.09 139.821 Q1991.98 140.354 1990.04 141.419 L1990.04 137.483 Q1992.37 136.581 1994.57 136.141 Q1996.77 135.678 1998.86 135.678 Q2004.48 135.678 2007.26 138.594 Q2010.04 141.511 2010.04 147.437 Z" fill="#000000" fill-rule="nonzero" fill-opacity="1" /><path clip-path="url(#clip580)" d="M2023.02 128.942 L2023.02 136.303 L2031.8 136.303 L2031.8 139.613 L2023.02 139.613 L2023.02 153.687 Q2023.02 156.858 2023.88 157.761 Q2024.76 158.664 2027.42 158.664 L2031.8 158.664 L2031.8 162.229 L2027.42 162.229 Q2022.49 162.229 2020.61 160.4 Q2018.74 158.548 2018.74 153.687 L2018.74 139.613 L2015.61 139.613 L2015.61 136.303 L2018.74 136.303 L2018.74 128.942 L2023.02 128.942 Z" fill="#000000" fill-rule="nonzero" fill-opacity="1" /><path clip-path="url(#clip580)" d="M2037.4 136.303 L2041.66 136.303 L2041.66 162.229 L2037.4 162.229 L2037.4 136.303 M2037.4 126.21 L2041.66 126.21 L2041.66 131.604 L2037.4 131.604 L2037.4 126.21 Z" fill="#000000" fill-rule="nonzero" fill-opacity="1" /><path clip-path="url(#clip580)" d="M2072.74 148.201 L2072.74 150.284 L2053.16 150.284 Q2053.44 154.682 2055.8 156.997 Q2058.18 159.289 2062.42 159.289 Q2064.87 159.289 2067.17 158.687 Q2069.48 158.085 2071.75 156.881 L2071.75 160.909 Q2069.46 161.881 2067.05 162.391 Q2064.64 162.9 2062.17 162.9 Q2055.96 162.9 2052.33 159.289 Q2048.72 155.678 2048.72 149.52 Q2048.72 143.155 2052.14 139.428 Q2055.59 135.678 2061.42 135.678 Q2066.66 135.678 2069.69 139.057 Q2072.74 142.414 2072.74 148.201 M2068.48 146.951 Q2068.44 143.456 2066.52 141.372 Q2064.62 139.289 2061.47 139.289 Q2057.91 139.289 2055.75 141.303 Q2053.62 143.317 2053.3 146.974 L2068.48 146.951 Z" fill="#000000" fill-rule="nonzero" fill-opacity="1" /><path clip-path="url(#clip580)" d="M2101.29 146.581 L2101.29 162.229 L2097.03 162.229 L2097.03 146.719 Q2097.03 143.039 2095.59 141.21 Q2094.16 139.382 2091.29 139.382 Q2087.84 139.382 2085.85 141.581 Q2083.86 143.78 2083.86 147.576 L2083.86 162.229 L2079.57 162.229 L2079.57 136.303 L2083.86 136.303 L2083.86 140.331 Q2085.38 137.993 2087.44 136.835 Q2089.53 135.678 2092.23 135.678 Q2096.7 135.678 2098.99 138.456 Q2101.29 141.21 2101.29 146.581 Z" fill="#000000" fill-rule="nonzero" fill-opacity="1" /><path clip-path="url(#clip580)" d="M2113.99 128.942 L2113.99 136.303 L2122.77 136.303 L2122.77 139.613 L2113.99 139.613 L2113.99 153.687 Q2113.99 156.858 2114.85 157.761 Q2115.73 158.664 2118.39 158.664 L2122.77 158.664 L2122.77 162.229 L2118.39 162.229 Q2113.46 162.229 2111.59 160.4 Q2109.71 158.548 2109.71 153.687 L2109.71 139.613 L2106.59 139.613 L2106.59 136.303 L2109.71 136.303 L2109.71 128.942 L2113.99 128.942 Z" fill="#000000" fill-rule="nonzero" fill-opacity="1" /><path clip-path="url(#clip580)" d="M2164.99 146.581 L2164.99 162.229 L2160.73 162.229 L2160.73 146.719 Q2160.73 143.039 2159.29 141.21 Q2157.86 139.382 2154.99 139.382 Q2151.54 139.382 2149.55 141.581 Q2147.56 143.78 2147.56 147.576 L2147.56 162.229 L2143.28 162.229 L2143.28 136.303 L2147.56 136.303 L2147.56 140.331 Q2149.09 137.993 2151.15 136.835 Q2153.23 135.678 2155.94 135.678 Q2160.41 135.678 2162.7 138.456 Q2164.99 141.21 2164.99 146.581 Z" fill="#000000" fill-rule="nonzero" fill-opacity="1" /><path clip-path="url(#clip580)" d="M2178.11 158.293 L2194.43 158.293 L2194.43 162.229 L2172.49 162.229 L2172.49 158.293 Q2175.15 155.539 2179.73 150.909 Q2184.34 146.256 2185.52 144.914 Q2187.77 142.391 2188.65 140.655 Q2189.55 138.895 2189.55 137.206 Q2189.55 134.451 2187.6 132.715 Q2185.68 130.979 2182.58 130.979 Q2180.38 130.979 2177.93 131.743 Q2175.5 132.507 2172.72 134.057 L2172.72 129.335 Q2175.54 128.201 2178 127.622 Q2180.45 127.044 2182.49 127.044 Q2187.86 127.044 2191.05 129.729 Q2194.25 132.414 2194.25 136.905 Q2194.25 139.034 2193.44 140.956 Q2192.65 142.854 2190.54 145.446 Q2189.97 146.118 2186.86 149.335 Q2183.76 152.53 2178.11 158.293 Z" fill="#000000" fill-rule="nonzero" fill-opacity="1" /><path clip-path="url(#clip580)" d="M2214.25 145.817 Q2210.91 145.817 2208.99 147.599 Q2207.1 149.381 2207.1 152.506 Q2207.1 155.631 2208.99 157.414 Q2210.91 159.196 2214.25 159.196 Q2217.58 159.196 2219.5 157.414 Q2221.42 155.608 2221.42 152.506 Q2221.42 149.381 2219.5 147.599 Q2217.6 145.817 2214.25 145.817 M2209.57 143.826 Q2206.56 143.085 2204.87 141.025 Q2203.21 138.965 2203.21 136.002 Q2203.21 131.858 2206.15 129.451 Q2209.11 127.044 2214.25 127.044 Q2219.41 127.044 2222.35 129.451 Q2225.29 131.858 2225.29 136.002 Q2225.29 138.965 2223.6 141.025 Q2221.93 143.085 2218.95 143.826 Q2222.33 144.613 2224.2 146.905 Q2226.1 149.196 2226.1 152.506 Q2226.1 157.53 2223.02 160.215 Q2219.97 162.9 2214.25 162.9 Q2208.53 162.9 2205.45 160.215 Q2202.4 157.53 2202.4 152.506 Q2202.4 149.196 2204.29 146.905 Q2206.19 144.613 2209.57 143.826 M2207.86 136.442 Q2207.86 139.127 2209.53 140.632 Q2211.22 142.136 2214.25 142.136 Q2217.26 142.136 2218.95 140.632 Q2220.66 139.127 2220.66 136.442 Q2220.66 133.757 2218.95 132.252 Q2217.26 130.747 2214.25 130.747 Q2211.22 130.747 2209.53 132.252 Q2207.86 133.757 2207.86 136.442 Z" fill="#000000" fill-rule="nonzero" fill-opacity="1" /><path clip-path="url(#clip580)" d="M2235.22 158.293 L2242.86 158.293 L2242.86 131.928 L2234.55 133.595 L2234.55 129.335 L2242.81 127.669 L2247.49 127.669 L2247.49 158.293 L2255.13 158.293 L2255.13 162.229 L2235.22 162.229 L2235.22 158.293 Z" fill="#000000" fill-rule="nonzero" fill-opacity="1" /><circle clip-path="url(#clip580)" cx="1468.89" cy="196.789" r="20.48" fill="#e26f46" fill-rule="evenodd" fill-opacity="1" stroke="#000000" stroke-opacity="1" stroke-width="4.55111"/>
<path clip-path="url(#clip580)" d="M1571.2 183.351 L1571.2 210.226 L1576.84 210.226 Q1584 210.226 1587.31 206.985 Q1590.64 203.745 1590.64 196.754 Q1590.64 189.809 1587.31 186.592 Q1584 183.351 1576.84 183.351 L1571.2 183.351 M1566.52 179.509 L1576.13 179.509 Q1586.17 179.509 1590.87 183.698 Q1595.57 187.865 1595.57 196.754 Q1595.57 205.689 1590.85 209.879 Q1586.13 214.069 1576.13 214.069 L1566.52 214.069 L1566.52 179.509 Z" fill="#000000" fill-rule="nonzero" fill-opacity="1" /><path clip-path="url(#clip580)" d="M1614.62 201.036 Q1609.46 201.036 1607.47 202.217 Q1605.48 203.397 1605.48 206.245 Q1605.48 208.513 1606.96 209.856 Q1608.46 211.175 1611.03 211.175 Q1614.58 211.175 1616.7 208.675 Q1618.86 206.152 1618.86 201.985 L1618.86 201.036 L1614.62 201.036 M1623.12 199.277 L1623.12 214.069 L1618.86 214.069 L1618.86 210.133 Q1617.4 212.495 1615.22 213.629 Q1613.05 214.74 1609.9 214.74 Q1605.92 214.74 1603.56 212.518 Q1601.22 210.272 1601.22 206.522 Q1601.22 202.147 1604.14 199.925 Q1607.08 197.703 1612.89 197.703 L1618.86 197.703 L1618.86 197.286 Q1618.86 194.347 1616.91 192.749 Q1614.99 191.129 1611.5 191.129 Q1609.27 191.129 1607.17 191.661 Q1605.06 192.194 1603.12 193.259 L1603.12 189.323 Q1605.45 188.421 1607.65 187.981 Q1609.85 187.518 1611.94 187.518 Q1617.56 187.518 1620.34 190.434 Q1623.12 193.351 1623.12 199.277 Z" fill="#000000" fill-rule="nonzero" fill-opacity="1" /><path clip-path="url(#clip580)" d="M1636.1 180.782 L1636.1 188.143 L1644.88 188.143 L1644.88 191.453 L1636.1 191.453 L1636.1 205.527 Q1636.1 208.698 1636.96 209.601 Q1637.84 210.504 1640.5 210.504 L1644.88 210.504 L1644.88 214.069 L1640.5 214.069 Q1635.57 214.069 1633.7 212.24 Q1631.82 210.388 1631.82 205.527 L1631.82 191.453 L1628.7 191.453 L1628.7 188.143 L1631.82 188.143 L1631.82 180.782 L1636.1 180.782 Z" fill="#000000" fill-rule="nonzero" fill-opacity="1" /><path clip-path="url(#clip580)" d="M1662.26 201.036 Q1657.1 201.036 1655.11 202.217 Q1653.12 203.397 1653.12 206.245 Q1653.12 208.513 1654.6 209.856 Q1656.1 211.175 1658.67 211.175 Q1662.21 211.175 1664.34 208.675 Q1666.5 206.152 1666.5 201.985 L1666.5 201.036 L1662.26 201.036 M1670.76 199.277 L1670.76 214.069 L1666.5 214.069 L1666.5 210.133 Q1665.04 212.495 1662.86 213.629 Q1660.69 214.74 1657.54 214.74 Q1653.56 214.74 1651.2 212.518 Q1648.86 210.272 1648.86 206.522 Q1648.86 202.147 1651.77 199.925 Q1654.71 197.703 1660.52 197.703 L1666.5 197.703 L1666.5 197.286 Q1666.5 194.347 1664.55 192.749 Q1662.63 191.129 1659.14 191.129 Q1656.91 191.129 1654.81 191.661 Q1652.7 192.194 1650.76 193.259 L1650.76 189.323 Q1653.09 188.421 1655.29 187.981 Q1657.49 187.518 1659.57 187.518 Q1665.2 187.518 1667.98 190.434 Q1670.76 193.351 1670.76 199.277 Z" fill="#000000" fill-rule="nonzero" fill-opacity="1" /></svg>
