<?xml version="1.0" encoding="utf-8"?>
<svg xmlns="http://www.w3.org/2000/svg" xmlns:xlink="http://www.w3.org/1999/xlink" width="600" height="400" viewBox="0 0 2400 1600">
<defs>
  <clipPath id="clip480">
    <rect x="0" y="0" width="2400" height="1600"/>
  </clipPath>
</defs>
<path clip-path="url(#clip480)" d="M0 1600 L2400 1600 L2400 0 L0 0  Z" fill="#ffffff" fill-rule="evenodd" fill-opacity="1"/>
<defs>
  <clipPath id="clip481">
    <rect x="112" y="47" width="2242" height="1377"/>
  </clipPath>
</defs>
<path clip-path="url(#clip480)" d="M112.177 1423.18 L2352.76 1423.18 L2352.76 47.2441 L112.177 47.2441  Z" fill="#ffffff" fill-rule="evenodd" fill-opacity="1"/>
<polyline clip-path="url(#clip481)" style="stroke:#000000; stroke-linecap:round; stroke-linejoin:round; stroke-width:2; stroke-opacity:0.1; fill:none" points="112.177,1423.18 112.177,47.2441 "/>
<polyline clip-path="url(#clip481)" style="stroke:#000000; stroke-linecap:round; stroke-linejoin:round; stroke-width:2; stroke-opacity:0.1; fill:none" points="790.455,1423.18 790.455,47.2441 "/>
<polyline clip-path="url(#clip481)" style="stroke:#000000; stroke-linecap:round; stroke-linejoin:round; stroke-width:2; stroke-opacity:0.1; fill:none" points="1468.73,1423.18 1468.73,47.2441 "/>
<polyline clip-path="url(#clip481)" style="stroke:#000000; stroke-linecap:round; stroke-linejoin:round; stroke-width:2; stroke-opacity:0.1; fill:none" points="2147.01,1423.18 2147.01,47.2441 "/>
<polyline clip-path="url(#clip481)" style="stroke:#000000; stroke-linecap:round; stroke-linejoin:round; stroke-width:2; stroke-opacity:0.1; fill:none" points="112.177,1384.24 2352.76,1384.24 "/>
<polyline clip-path="url(#clip481)" style="stroke:#000000; stroke-linecap:round; stroke-linejoin:round; stroke-width:2; stroke-opacity:0.1; fill:none" points="112.177,1009.62 2352.76,1009.62 "/>
<polyline clip-path="url(#clip481)" style="stroke:#000000; stroke-linecap:round; stroke-linejoin:round; stroke-width:2; stroke-opacity:0.1; fill:none" points="112.177,635.002 2352.76,635.002 "/>
<polyline clip-path="url(#clip481)" style="stroke:#000000; stroke-linecap:round; stroke-linejoin:round; stroke-width:2; stroke-opacity:0.1; fill:none" points="112.177,260.383 2352.76,260.383 "/>
<polyline clip-path="url(#clip480)" style="stroke:#000000; stroke-linecap:round; stroke-linejoin:round; stroke-width:4; stroke-opacity:1; fill:none" points="112.177,1423.18 2352.76,1423.18 "/>
<polyline clip-path="url(#clip480)" style="stroke:#000000; stroke-linecap:round; stroke-linejoin:round; stroke-width:4; stroke-opacity:1; fill:none" points="112.177,1423.18 112.177,1404.28 "/>
<polyline clip-path="url(#clip480)" style="stroke:#000000; stroke-linecap:round; stroke-linejoin:round; stroke-width:4; stroke-opacity:1; fill:none" points="790.455,1423.18 790.455,1404.28 "/>
<polyline clip-path="url(#clip480)" style="stroke:#000000; stroke-linecap:round; stroke-linejoin:round; stroke-width:4; stroke-opacity:1; fill:none" points="1468.73,1423.18 1468.73,1404.28 "/>
<polyline clip-path="url(#clip480)" style="stroke:#000000; stroke-linecap:round; stroke-linejoin:round; stroke-width:4; stroke-opacity:1; fill:none" points="2147.01,1423.18 2147.01,1404.28 "/>
<path clip-path="url(#clip480)" d="M112.177 1454.1 Q108.566 1454.1 106.737 1457.66 Q104.932 1461.2 104.932 1468.33 Q104.932 1475.44 106.737 1479.01 Q108.566 1482.55 112.177 1482.55 Q115.811 1482.55 117.617 1479.01 Q119.446 1475.44 119.446 1468.33 Q119.446 1461.2 117.617 1457.66 Q115.811 1454.1 112.177 1454.1 M112.177 1450.39 Q117.987 1450.39 121.043 1455 Q124.122 1459.58 124.122 1468.33 Q124.122 1477.06 121.043 1481.67 Q117.987 1486.25 112.177 1486.25 Q106.367 1486.25 103.288 1481.67 Q100.233 1477.06 100.233 1468.33 Q100.233 1459.58 103.288 1455 Q106.367 1450.39 112.177 1450.39 Z" fill="#000000" fill-rule="nonzero" fill-opacity="1" /><path clip-path="url(#clip480)" d="M765.155 1451.02 L783.511 1451.02 L783.511 1454.96 L769.437 1454.96 L769.437 1463.43 Q770.455 1463.08 771.474 1462.92 Q772.492 1462.73 773.511 1462.73 Q779.298 1462.73 782.678 1465.9 Q786.057 1469.08 786.057 1474.49 Q786.057 1480.07 782.585 1483.17 Q779.113 1486.25 772.793 1486.25 Q770.617 1486.25 768.349 1485.88 Q766.104 1485.51 763.696 1484.77 L763.696 1480.07 Q765.78 1481.2 768.002 1481.76 Q770.224 1482.32 772.701 1482.32 Q776.705 1482.32 779.043 1480.21 Q781.381 1478.1 781.381 1474.49 Q781.381 1470.88 779.043 1468.77 Q776.705 1466.67 772.701 1466.67 Q770.826 1466.67 768.951 1467.08 Q767.099 1467.5 765.155 1468.38 L765.155 1451.02 Z" fill="#000000" fill-rule="nonzero" fill-opacity="1" /><path clip-path="url(#clip480)" d="M805.27 1454.1 Q801.659 1454.1 799.83 1457.66 Q798.025 1461.2 798.025 1468.33 Q798.025 1475.44 799.83 1479.01 Q801.659 1482.55 805.27 1482.55 Q808.904 1482.55 810.71 1479.01 Q812.539 1475.44 812.539 1468.33 Q812.539 1461.2 810.71 1457.66 Q808.904 1454.1 805.27 1454.1 M805.27 1450.39 Q811.08 1450.39 814.136 1455 Q817.214 1459.58 817.214 1468.33 Q817.214 1477.06 814.136 1481.67 Q811.08 1486.25 805.27 1486.25 Q799.46 1486.25 796.381 1481.67 Q793.326 1477.06 793.326 1468.33 Q793.326 1459.58 796.381 1455 Q799.46 1450.39 805.27 1450.39 Z" fill="#000000" fill-rule="nonzero" fill-opacity="1" /><path clip-path="url(#clip480)" d="M1428.34 1481.64 L1435.98 1481.64 L1435.98 1455.28 L1427.67 1456.95 L1427.67 1452.69 L1435.93 1451.02 L1440.61 1451.02 L1440.61 1481.64 L1448.25 1481.64 L1448.25 1485.58 L1428.34 1485.58 L1428.34 1481.64 Z" fill="#000000" fill-rule="nonzero" fill-opacity="1" /><path clip-path="url(#clip480)" d="M1467.69 1454.1 Q1464.08 1454.1 1462.25 1457.66 Q1460.45 1461.2 1460.45 1468.33 Q1460.45 1475.44 1462.25 1479.01 Q1464.08 1482.55 1467.69 1482.55 Q1471.33 1482.55 1473.13 1479.01 Q1474.96 1475.44 1474.96 1468.33 Q1474.96 1461.2 1473.13 1457.66 Q1471.33 1454.1 1467.69 1454.1 M1467.69 1450.39 Q1473.5 1450.39 1476.56 1455 Q1479.64 1459.58 1479.64 1468.33 Q1479.64 1477.06 1476.56 1481.67 Q1473.5 1486.25 1467.69 1486.25 Q1461.88 1486.25 1458.8 1481.67 Q1455.75 1477.06 1455.75 1468.33 Q1455.75 1459.58 1458.8 1455 Q1461.88 1450.39 1467.69 1450.39 Z" fill="#000000" fill-rule="nonzero" fill-opacity="1" /><path clip-path="url(#clip480)" d="M1497.85 1454.1 Q1494.24 1454.1 1492.41 1457.66 Q1490.61 1461.2 1490.61 1468.33 Q1490.61 1475.44 1492.41 1479.01 Q1494.24 1482.55 1497.85 1482.55 Q1501.49 1482.55 1503.29 1479.01 Q1505.12 1475.44 1505.12 1468.33 Q1505.12 1461.2 1503.29 1457.66 Q1501.49 1454.1 1497.85 1454.1 M1497.85 1450.39 Q1503.66 1450.39 1506.72 1455 Q1509.8 1459.58 1509.8 1468.33 Q1509.8 1477.06 1506.72 1481.67 Q1503.66 1486.25 1497.85 1486.25 Q1492.04 1486.25 1488.96 1481.67 Q1485.91 1477.06 1485.91 1468.33 Q1485.91 1459.58 1488.96 1455 Q1492.04 1450.39 1497.85 1450.39 Z" fill="#000000" fill-rule="nonzero" fill-opacity="1" /><path clip-path="url(#clip480)" d="M2106.62 1481.64 L2114.26 1481.64 L2114.26 1455.28 L2105.95 1456.95 L2105.95 1452.69 L2114.21 1451.02 L2118.89 1451.02 L2118.89 1481.64 L2126.53 1481.64 L2126.53 1485.58 L2106.62 1485.58 L2106.62 1481.64 Z" fill="#000000" fill-rule="nonzero" fill-opacity="1" /><path clip-path="url(#clip480)" d="M2136.02 1451.02 L2154.37 1451.02 L2154.37 1454.96 L2140.3 1454.96 L2140.3 1463.43 Q2141.32 1463.08 2142.34 1462.92 Q2143.35 1462.73 2144.37 1462.73 Q2150.16 1462.73 2153.54 1465.9 Q2156.92 1469.08 2156.92 1474.49 Q2156.92 1480.07 2153.45 1483.17 Q2149.97 1486.25 2143.66 1486.25 Q2141.48 1486.25 2139.21 1485.88 Q2136.97 1485.51 2134.56 1484.77 L2134.56 1480.07 Q2136.64 1481.2 2138.86 1481.76 Q2141.09 1482.32 2143.56 1482.32 Q2147.57 1482.32 2149.91 1480.21 Q2152.24 1478.1 2152.24 1474.49 Q2152.24 1470.88 2149.91 1468.77 Q2147.57 1466.67 2143.56 1466.67 Q2141.69 1466.67 2139.81 1467.08 Q2137.96 1467.5 2136.02 1468.38 L2136.02 1451.02 Z" fill="#000000" fill-rule="nonzero" fill-opacity="1" /><path clip-path="url(#clip480)" d="M2176.13 1454.1 Q2172.52 1454.1 2170.69 1457.66 Q2168.89 1461.2 2168.89 1468.33 Q2168.89 1475.44 2170.69 1479.01 Q2172.52 1482.55 2176.13 1482.55 Q2179.77 1482.55 2181.57 1479.01 Q2183.4 1475.44 2183.4 1468.33 Q2183.4 1461.2 2181.57 1457.66 Q2179.77 1454.1 2176.13 1454.1 M2176.13 1450.39 Q2181.94 1450.39 2185 1455 Q2188.08 1459.58 2188.08 1468.33 Q2188.08 1477.06 2185 1481.67 Q2181.94 1486.25 2176.13 1486.25 Q2170.32 1486.25 2167.24 1481.67 Q2164.19 1477.06 2164.19 1468.33 Q2164.19 1459.58 2167.24 1455 Q2170.32 1450.39 2176.13 1450.39 Z" fill="#000000" fill-rule="nonzero" fill-opacity="1" /><path clip-path="url(#clip480)" d="M1231.53 1522.27 L1231.53 1532.4 L1243.59 1532.4 L1243.59 1536.95 L1231.53 1536.95 L1231.53 1556.3 Q1231.53 1560.66 1232.71 1561.9 Q1233.91 1563.14 1237.58 1563.14 L1243.59 1563.14 L1243.59 1568.04 L1237.58 1568.04 Q1230.8 1568.04 1228.22 1565.53 Q1225.64 1562.98 1225.64 1556.3 L1225.64 1536.95 L1221.34 1536.95 L1221.34 1532.4 L1225.64 1532.4 L1225.64 1522.27 L1231.53 1522.27 Z" fill="#000000" fill-rule="nonzero" fill-opacity="1" /><polyline clip-path="url(#clip480)" style="stroke:#000000; stroke-linecap:round; stroke-linejoin:round; stroke-width:4; stroke-opacity:1; fill:none" points="112.177,1423.18 112.177,47.2441 "/>
<polyline clip-path="url(#clip480)" style="stroke:#000000; stroke-linecap:round; stroke-linejoin:round; stroke-width:4; stroke-opacity:1; fill:none" points="112.177,1384.24 131.075,1384.24 "/>
<polyline clip-path="url(#clip480)" style="stroke:#000000; stroke-linecap:round; stroke-linejoin:round; stroke-width:4; stroke-opacity:1; fill:none" points="112.177,1009.62 131.075,1009.62 "/>
<polyline clip-path="url(#clip480)" style="stroke:#000000; stroke-linecap:round; stroke-linejoin:round; stroke-width:4; stroke-opacity:1; fill:none" points="112.177,635.002 131.075,635.002 "/>
<polyline clip-path="url(#clip480)" style="stroke:#000000; stroke-linecap:round; stroke-linejoin:round; stroke-width:4; stroke-opacity:1; fill:none" points="112.177,260.383 131.075,260.383 "/>
<path clip-path="url(#clip480)" d="M64.2328 1370.04 Q60.6217 1370.04 58.793 1373.6 Q56.9875 1377.14 56.9875 1384.27 Q56.9875 1391.38 58.793 1394.94 Q60.6217 1398.49 64.2328 1398.49 Q67.867 1398.49 69.6726 1394.94 Q71.5013 1391.38 71.5013 1384.27 Q71.5013 1377.14 69.6726 1373.6 Q67.867 1370.04 64.2328 1370.04 M64.2328 1366.33 Q70.0429 1366.33 73.0985 1370.94 Q76.1772 1375.52 76.1772 1384.27 Q76.1772 1393 73.0985 1397.61 Q70.0429 1402.19 64.2328 1402.19 Q58.4226 1402.19 55.344 1397.61 Q52.2884 1393 52.2884 1384.27 Q52.2884 1375.52 55.344 1370.94 Q58.4226 1366.33 64.2328 1366.33 Z" fill="#000000" fill-rule="nonzero" fill-opacity="1" /><path clip-path="url(#clip480)" d="M59.8578 1022.96 L76.1772 1022.96 L76.1772 1026.9 L54.2328 1026.9 L54.2328 1022.96 Q56.8949 1020.21 61.4782 1015.58 Q66.0846 1010.93 67.2652 1009.59 Q69.5105 1007.06 70.3902 1005.33 Q71.2929 1003.57 71.2929 1001.88 Q71.2929 999.122 69.3485 997.386 Q67.4272 995.65 64.3254 995.65 Q62.1263 995.65 59.6726 996.414 Q57.2421 997.178 54.4643 998.729 L54.4643 994.007 Q57.2884 992.872 59.7421 992.294 Q62.1958 991.715 64.2328 991.715 Q69.6031 991.715 72.7976 994.4 Q75.992 997.085 75.992 1001.58 Q75.992 1003.71 75.1818 1005.63 Q74.3948 1007.53 72.2883 1010.12 Q71.7096 1010.79 68.6078 1014.01 Q65.5059 1017.2 59.8578 1022.96 Z" fill="#000000" fill-rule="nonzero" fill-opacity="1" /><path clip-path="url(#clip480)" d="M66.5939 621.796 L54.7884 640.245 L66.5939 640.245 L66.5939 621.796 M65.367 617.722 L71.2466 617.722 L71.2466 640.245 L76.1772 640.245 L76.1772 644.133 L71.2466 644.133 L71.2466 652.282 L66.5939 652.282 L66.5939 644.133 L50.9921 644.133 L50.9921 639.62 L65.367 617.722 Z" fill="#000000" fill-rule="nonzero" fill-opacity="1" /><path clip-path="url(#clip480)" d="M64.6495 258.52 Q61.5013 258.52 59.6495 260.673 Q57.8208 262.825 57.8208 266.575 Q57.8208 270.302 59.6495 272.478 Q61.5013 274.631 64.6495 274.631 Q67.7976 274.631 69.6263 272.478 Q71.4781 270.302 71.4781 266.575 Q71.4781 262.825 69.6263 260.673 Q67.7976 258.52 64.6495 258.52 M73.9318 243.867 L73.9318 248.126 Q72.1726 247.293 70.367 246.853 Q68.5846 246.413 66.8254 246.413 Q62.1958 246.413 59.7421 249.538 Q57.3115 252.663 56.9643 258.983 Q58.33 256.969 60.3902 255.904 Q62.4504 254.816 64.9272 254.816 Q70.1355 254.816 73.1448 257.987 Q76.1772 261.136 76.1772 266.575 Q76.1772 271.899 73.029 275.117 Q69.8809 278.334 64.6495 278.334 Q58.6541 278.334 55.4828 273.751 Q52.3116 269.145 52.3116 260.418 Q52.3116 252.224 56.2004 247.362 Q60.0893 242.478 66.6402 242.478 Q68.3994 242.478 70.1818 242.825 Q71.9874 243.173 73.9318 243.867 Z" fill="#000000" fill-rule="nonzero" fill-opacity="1" /><polyline clip-path="url(#clip481)" style="stroke:#009af9; stroke-linecap:round; stroke-linejoin:round; stroke-width:4; stroke-opacity:1; fill:none" points="112.177,1384.24 113.723,1378.63 115.27,1373.1 116.816,1367.66 118.362,1362.3 119.909,1357.02 121.455,1351.83 123.001,1346.71 124.548,1341.67 126.094,1336.71 127.64,1331.82 129.186,1327.01 130.733,1322.27 132.279,1317.6 133.825,1313.01 135.372,1308.48 136.918,1304.02 138.464,1299.64 140.01,1295.31 141.557,1291.06 143.103,1286.87 144.649,1282.74 146.196,1278.68 147.742,1274.68 149.288,1270.74 150.835,1266.86 152.381,1263.04 153.927,1259.27 155.473,1255.57 157.02,1251.92 158.566,1248.33 160.112,1244.79 161.659,1241.3 163.205,1237.87 164.751,1234.5 166.297,1231.17 167.844,1227.89 169.39,1224.67 170.936,1221.49 172.483,1218.36 174.029,1215.28 175.575,1212.25 177.121,1209.26 178.668,1206.32 180.214,1203.43 181.76,1200.57 183.307,1197.77 184.853,1195 186.399,1192.28 187.946,1189.6 189.492,1186.96 191.038,1184.36 192.584,1181.8 194.131,1179.27 195.677,1176.79 197.223,1174.35 198.77,1171.94 200.316,1169.57 201.862,1167.24 203.408,1164.94 204.955,1162.67 206.501,1160.45 208.047,1158.25 209.594,1156.09 211.14,1153.96 212.686,1151.87 214.233,1149.8 215.779,1147.77 217.325,1145.77 218.871,1143.8 220.418,1141.86 221.964,1139.95 223.51,1138.07 225.057,1136.22 226.603,1134.39 228.149,1132.6 229.695,1130.83 231.242,1129.09 232.788,1127.37 234.334,1125.68 235.881,1124.02 237.427,1122.38 238.973,1120.77 240.52,1119.18 242.066,1117.62 243.612,1116.08 245.158,1114.56 246.705,1113.07 248.251,1111.59 249.797,1110.15 251.344,1108.72 252.89,1107.32 254.436,1105.93 255.982,1104.57 257.529,1103.23 259.075,1101.91 260.621,1100.61 262.168,1099.32 263.714,1098.06 265.26,1096.82 266.806,1095.6 268.353,1094.39 269.899,1093.2 271.445,1092.03 272.992,1090.88 274.538,1089.75 276.084,1088.63 277.631,1087.53 279.177,1086.45 280.723,1085.38 282.269,1084.33 283.816,1083.29 285.362,1082.27 286.908,1081.27 288.455,1080.28 290.001,1079.3 291.547,1078.34 293.093,1077.39 294.64,1076.46 296.186,1075.54 297.732,1074.64 299.279,1073.75 300.825,1072.87 302.371,1072 303.918,1071.15 305.464,1070.31 307.01,1069.48 308.556,1068.67 310.103,1067.86 311.649,1067.07 313.195,1066.29 314.742,1065.52 316.288,1064.76 317.834,1064.02 319.38,1063.28 320.927,1062.56 322.473,1061.84 324.019,1061.13 325.566,1060.44 327.112,1059.75 328.658,1059.08 330.205,1058.41 331.751,1057.76 333.297,1057.11 334.843,1056.47 336.39,1055.84 337.936,1055.22 339.482,1054.61 341.029,1054 342.575,1053.41 344.121,1052.82 345.667,1052.24 347.214,1051.67 348.76,1051.1 350.306,1050.54 351.853,1049.99 353.399,1049.45 354.945,1048.92 356.491,1048.39 358.038,1047.87 359.584,1047.35 361.13,1046.84 362.677,1046.34 364.223,1045.84 365.769,1045.35 367.316,1044.87 368.862,1044.39 370.408,1043.92 371.954,1043.45 373.501,1042.99 375.047,1042.54 376.593,1042.09 378.14,1041.64 379.686,1041.2 381.232,1040.77 382.778,1040.34 384.325,1039.91 385.871,1039.49 387.417,1039.08 388.964,1038.67 390.51,1038.26 392.056,1037.86 393.603,1037.46 395.149,1037.06 396.695,1036.67 398.241,1036.28 399.788,1035.9 401.334,1035.52 402.88,1035.14 404.427,1034.77 405.973,1034.4 407.519,1034.03 409.065,1033.67 410.612,1033.31 412.158,1032.95 413.704,1032.6 415.251,1032.25 416.797,1031.9 418.343,1031.55 419.89,1031.21 421.436,1030.87 422.982,1030.53 424.528,1030.19 426.075,1029.86 427.621,1029.53 429.167,1029.2 430.714,1028.87 432.26,1028.54 433.806,1028.22 435.352,1027.9 436.899,1027.58 438.445,1027.26 439.991,1026.94 441.538,1026.62 443.084,1026.31 444.63,1025.99 446.176,1025.68 447.723,1025.37 449.269,1025.06 450.815,1024.75 452.362,1024.44 453.908,1024.13 455.454,1023.83 457.001,1023.52 458.547,1023.22 460.093,1022.91 461.639,1022.61 463.186,1022.3 464.732,1022 466.278,1021.7 467.825,1021.4 469.371,1021.09 470.917,1020.79 472.463,1020.49 474.01,1020.19 475.556,1019.89 477.102,1019.58 478.649,1019.28 480.195,1018.98 481.741,1018.68 483.288,1018.37 484.834,1018.07 486.38,1017.77 487.926,1017.46 489.473,1017.16 491.019,1016.85 492.565,1016.55 494.112,1016.24 495.658,1015.93 497.204,1015.62 498.75,1015.31 500.297,1015 501.843,1014.69 503.389,1014.38 504.936,1014.07 506.482,1013.75 508.028,1013.44 509.575,1013.12 511.121,1012.8 512.667,1012.48 514.213,1012.16 515.76,1011.84 517.306,1011.52 518.852,1011.19 520.399,1010.86 521.945,1010.54 523.491,1010.21 525.037,1009.87 526.584,1009.54 528.13,1009.21 529.676,1008.87 531.223,1008.53 532.769,1008.19 534.315,1007.85 535.861,1007.5 537.408,1007.15 538.954,1006.8 540.5,1006.45 542.047,1006.1 543.593,1005.74 545.139,1005.38 546.686,1005.02 548.232,1004.66 549.778,1004.29 551.324,1003.93 552.871,1003.56 554.417,1003.18 555.963,1002.81 557.51,1002.43 559.056,1002.05 560.602,1001.66 562.148,1001.28 563.695,1000.89 565.241,1000.5 566.787,1000.1 568.334,999.704 569.88,999.303 571.426,998.899 572.973,998.493 574.519,998.083 576.065,997.67 577.611,997.254 579.158,996.834 580.704,996.412 582.25,995.986 583.797,995.557 585.343,995.125 586.889,994.689 588.435,994.25 589.982,993.807 591.528,993.362 593.074,992.912 594.621,992.459 596.167,992.003 597.713,991.543 599.26,991.079 600.806,990.612 602.352,990.14 603.898,989.666 605.445,989.187 606.991,988.705 608.537,988.219 610.084,987.729 611.63,987.235 613.176,986.737 614.722,986.236 616.269,985.73 617.815,985.221 619.361,984.707 620.908,984.19 622.454,983.668 624,983.142 625.546,982.612 627.093,982.078 628.639,981.54 630.185,980.997 631.732,980.451 633.278,979.9 634.824,979.345 636.371,978.785 637.917,978.221 639.463,977.653 641.009,977.08 642.556,976.503 644.102,975.922 645.648,975.336 647.195,974.746 648.741,974.151 650.287,973.551 651.833,972.948 653.38,972.339 654.926,971.726 656.472,971.108 658.019,970.486 659.565,969.859 661.111,969.227 662.658,968.591 664.204,967.95 665.75,967.304 667.296,966.654 668.843,965.999 670.389,965.339 671.935,964.674 673.482,964.004 675.028,963.33 676.574,962.65 678.12,961.966 679.667,961.277 681.213,960.583 682.759,959.884 684.306,959.18 685.852,958.472 687.398,957.758 688.945,957.039 690.491,956.316 692.037,955.587 693.583,954.853 695.13,954.115 696.676,953.371 698.222,952.622 699.769,951.869 701.315,951.11 702.861,950.346 704.407,949.577 705.954,948.803 707.5,948.024 709.046,947.24 710.593,946.45 712.139,945.656 713.685,944.856 715.231,944.051 716.778,943.242 718.324,942.427 719.87,941.606 721.417,940.781 722.963,939.951 724.509,939.115 726.056,938.274 727.602,937.428 729.148,936.577 730.694,935.721 732.241,934.859 733.787,933.993 735.333,933.121 736.88,932.244 738.426,931.362 739.972,930.474 741.518,929.582 743.065,928.684 744.611,927.781 746.157,926.873 747.704,925.96 749.25,925.041 750.796,924.118 752.343,923.189 753.889,922.255 755.435,921.316 756.981,920.372 758.528,919.422 760.074,918.468 761.62,917.508 763.167,916.543 764.713,915.573 766.259,914.598 767.805,913.618 769.352,912.633 770.898,911.643 772.444,910.648 773.991,909.647 775.537,908.642 777.083,907.631 778.63,906.616 780.176,905.595 781.722,904.57 783.268,903.539 784.815,902.504 786.361,901.463 787.907,900.418 789.454,899.368 791,898.312 792.546,897.252 794.092,896.187 795.639,895.117 797.185,894.042 798.731,892.963 800.278,891.878 801.824,890.789 803.37,889.695 804.916,888.596 806.463,887.493 808.009,886.385 809.555,885.272 811.102,884.154 812.648,883.032 814.194,881.905 815.741,880.774 817.287,879.638 818.833,878.497 820.379,877.352 821.926,876.202 823.472,875.048 825.018,873.889 826.565,872.726 828.111,871.559 829.657,870.387 831.203,869.211 832.75,868.03 834.296,866.845 835.842,865.656 837.389,864.463 838.935,863.265 840.481,862.064 842.028,860.858 843.574,859.648 845.12,858.434 846.666,857.215 848.213,855.993 849.759,854.767 851.305,853.537 852.852,852.303 854.398,851.065 855.944,849.823 857.49,848.577 859.037,847.328 860.583,846.075 862.129,844.818 863.676,843.557 865.222,842.293 866.768,841.025 868.315,839.753 869.861,838.478 871.407,837.2 872.953,835.918 874.5,834.633 876.046,833.344 877.592,832.052 879.139,830.756 880.685,829.458 882.231,828.156 883.777,826.851 885.324,825.543 886.87,824.231 888.416,822.917 889.963,821.6 891.509,820.279 893.055,818.956 894.601,817.63 896.148,816.301 897.694,814.969 899.24,813.635 900.787,812.298 902.333,810.958 903.879,809.615 905.426,808.27 906.972,806.923 908.518,805.573 910.064,804.22 911.611,802.865 913.157,801.508 914.703,800.149 916.25,798.787 917.796,797.423 919.342,796.057 920.888,794.689 922.435,793.319 923.981,791.947 925.527,790.573 927.074,789.196 928.62,787.819 930.166,786.439 931.713,785.057 933.259,783.674 934.805,782.29 936.351,780.903 937.898,779.515 939.444,778.126 940.99,776.735 942.537,775.342 944.083,773.949 945.629,772.554 947.175,771.158 948.722,769.76 950.268,768.362 951.814,766.962 953.361,765.562 954.907,764.16 956.453,762.757 958,761.354 959.546,759.95 961.092,758.545 962.638,757.139 964.185,755.732 965.731,754.325 967.277,752.918 968.824,751.51 970.37,750.101 971.916,748.692 973.462,747.283 975.009,745.873 976.555,744.463 978.101,743.053 979.648,741.643 981.194,740.233 982.74,738.822 984.286,737.412 985.833,736.002 987.379,734.592 988.925,733.182 990.472,731.772 992.018,730.363 993.564,728.954 995.111,727.545 996.657,726.137 998.203,724.729 999.749,723.322 1001.3,721.915 1002.84,720.509 1004.39,719.104 1005.93,717.7 1007.48,716.296 1009.03,714.893 1010.57,713.491 1012.12,712.091 1013.67,710.691 1015.21,709.292 1016.76,707.894 1018.3,706.498 1019.85,705.103 1021.4,703.709 1022.94,702.316 1024.49,700.925 1026.04,699.535 1027.58,698.147 1029.13,696.76 1030.68,695.375 1032.22,693.991 1033.77,692.61 1035.31,691.229 1036.86,689.851 1038.41,688.475 1039.95,687.1 1041.5,685.727 1043.05,684.357 1044.59,682.988 1046.14,681.621 1047.68,680.257 1049.23,678.894 1050.78,677.534 1052.32,676.177 1053.87,674.821 1055.42,673.468 1056.96,672.117 1058.51,670.769 1060.05,669.423 1061.6,668.08 1063.15,666.739 1064.69,665.401 1066.24,664.066 1067.79,662.733 1069.33,661.403 1070.88,660.076 1072.43,658.752 1073.97,657.43 1075.52,656.112 1077.06,654.796 1078.61,653.484 1080.16,652.175 1081.7,650.868 1083.25,649.565 1084.8,648.265 1086.34,646.969 1087.89,645.675 1089.43,644.385 1090.98,643.098 1092.53,641.815 1094.07,640.535 1095.62,639.258 1097.17,637.985 1098.71,636.715 1100.26,635.449 1101.8,634.187 1103.35,632.928 1104.9,631.673 1106.44,630.422 1107.99,629.174 1109.54,627.93 1111.08,626.69 1112.63,625.454 1114.18,624.221 1115.72,622.993 1117.27,621.768 1118.81,620.548 1120.36,619.331 1121.91,618.118 1123.45,616.91 1125,615.705 1126.55,614.505 1128.09,613.309 1129.64,612.117 1131.18,610.929 1132.73,609.745 1134.28,608.566 1135.82,607.391 1137.37,606.22 1138.92,605.054 1140.46,603.892 1142.01,602.734 1143.55,601.581 1145.1,600.432 1146.65,599.288 1148.19,598.148 1149.74,597.012 1151.29,595.881 1152.83,594.755 1154.38,593.633 1155.93,592.516 1157.47,591.403 1159.02,590.295 1160.56,589.192 1162.11,588.093 1163.66,586.999 1165.2,585.91 1166.75,584.825 1168.3,583.746 1169.84,582.67 1171.39,581.6 1172.93,580.534 1174.48,579.474 1176.03,578.418 1177.57,577.366 1179.12,576.32 1180.67,575.279 1182.21,574.242 1183.76,573.21 1185.3,572.183 1186.85,571.161 1188.4,570.144 1189.94,569.132 1191.49,568.125 1193.04,567.123 1194.58,566.125 1196.13,565.133 1197.67,564.146 1199.22,563.163 1200.77,562.186 1202.31,561.213 1203.86,560.246 1205.41,559.283 1206.95,558.326 1208.5,557.373 1210.05,556.426 1211.59,555.483 1213.14,554.546 1214.68,553.613 1216.23,552.686 1217.78,551.764 1219.32,550.847 1220.87,549.934 1222.42,549.027 1223.96,548.125 1225.51,547.228 1227.05,546.336 1228.6,545.449 1230.15,544.567 1231.69,543.69 1233.24,542.818 1234.79,541.951 1236.33,541.089 1237.88,540.232 1239.42,539.38 1240.97,538.534 1242.52,537.692 1244.06,536.855 1245.61,536.024 1247.16,535.197 1248.7,534.375 1250.25,533.559 1251.8,532.747 1253.34,531.94 1254.89,531.139 1256.43,530.342 1257.98,529.55 1259.53,528.764 1261.07,527.982 1262.62,527.205 1264.17,526.433 1265.71,525.666 1267.26,524.904 1268.8,524.147 1270.35,523.395 1271.9,522.648 1273.44,521.905 1274.99,521.168 1276.54,520.435 1278.08,519.707 1279.63,518.985 1281.17,518.266 1282.72,517.553 1284.27,516.845 1285.81,516.141 1287.36,515.442 1288.91,514.748 1290.45,514.059 1292,513.375 1293.55,512.695 1295.09,512.02 1296.64,511.349 1298.18,510.684 1299.73,510.023 1301.28,509.367 1302.82,508.715 1304.37,508.068 1305.92,507.426 1307.46,506.788 1309.01,506.155 1310.55,505.527 1312.1,504.903 1313.65,504.283 1315.19,503.668 1316.74,503.058 1318.29,502.452 1319.83,501.851 1321.38,501.254 1322.92,500.662 1324.47,500.074 1326.02,499.49 1327.56,498.911 1329.11,498.336 1330.66,497.766 1332.2,497.2 1333.75,496.638 1335.3,496.081 1336.84,495.528 1338.39,494.979 1339.93,494.435 1341.48,493.894 1343.03,493.358 1344.57,492.827 1346.12,492.299 1347.67,491.775 1349.21,491.256 1350.76,490.741 1352.3,490.23 1353.85,489.723 1355.4,489.22 1356.94,488.721 1358.49,488.226 1360.04,487.736 1361.58,487.249 1363.13,486.766 1364.67,486.287 1366.22,485.812 1367.77,485.341 1369.31,484.874 1370.86,484.411 1372.41,483.951 1373.95,483.496 1375.5,483.044 1377.04,482.596 1378.59,482.152 1380.14,481.712 1381.68,481.275 1383.23,480.842 1384.78,480.413 1386.32,479.987 1387.87,479.565 1389.42,479.147 1390.96,478.732 1392.51,478.321 1394.05,477.914 1395.6,477.51 1397.15,477.109 1398.69,476.712 1400.24,476.319 1401.79,475.929 1403.33,475.542 1404.88,475.159 1406.42,474.78 1407.97,474.403 1409.52,474.03 1411.06,473.661 1412.61,473.294 1414.16,472.931 1415.7,472.572 1417.25,472.215 1418.79,471.862 1420.34,471.512 1421.89,471.165 1423.43,470.822 1424.98,470.481 1426.53,470.144 1428.07,469.81 1429.62,469.479 1431.17,469.151 1432.71,468.826 1434.26,468.504 1435.8,468.185 1437.35,467.869 1438.9,467.556 1440.44,467.246 1441.99,466.939 1443.54,466.635 1445.08,466.334 1446.63,466.036 1448.17,465.74 1449.72,465.448 1451.27,465.158 1452.81,464.871 1454.36,464.587 1455.91,464.305 1457.45,464.027 1459,463.751 1460.54,463.477 1462.09,463.207 1463.64,462.939 1465.18,462.673 1466.73,462.411 1468.28,462.151 1469.82,461.893 1471.37,461.638 1472.92,461.386 1474.46,461.136 1476.01,460.889 1477.55,460.644 1479.1,460.402 1480.65,460.162 1482.19,459.924 1483.74,459.689 1485.29,459.457 1486.83,459.226 1488.38,458.998 1489.92,458.773 1491.47,458.55 1493.02,458.329 1494.56,458.11 1496.11,457.894 1497.66,457.68 1499.2,457.468 1500.75,457.258 1502.29,457.051 1503.84,456.846 1505.39,456.643 1506.93,456.442 1508.48,456.243 1510.03,456.047 1511.57,455.852 1513.12,455.66 1514.67,455.469 1516.21,455.281 1517.76,455.095 1519.3,454.911 1520.85,454.728 1522.4,454.548 1523.94,454.37 1525.49,454.194 1527.04,454.019 1528.58,453.847 1530.13,453.676 1531.67,453.508 1533.22,453.341 1534.77,453.176 1536.31,453.013 1537.86,452.852 1539.41,452.693 1540.95,452.535 1542.5,452.379 1544.04,452.225 1545.59,452.073 1547.14,451.923 1548.68,451.774 1550.23,451.627 1551.78,451.482 1553.32,451.338 1554.87,451.196 1556.41,451.056 1557.96,450.917 1559.51,450.78 1561.05,450.645 1562.6,450.511 1564.15,450.379 1565.69,450.248 1567.24,450.119 1568.79,449.991 1570.33,449.865 1571.88,449.741 1573.42,449.618 1574.97,449.496 1576.52,449.376 1578.06,449.258 1579.61,449.141 1581.16,449.025 1582.7,448.911 1584.25,448.798 1585.79,448.687 1587.34,448.577 1588.89,448.469 1590.43,448.361 1591.98,448.256 1593.53,448.151 1595.07,448.048 1596.62,447.946 1598.16,447.846 1599.71,447.746 1601.26,447.648 1602.8,447.552 1604.35,447.456 1605.9,447.362 1607.44,447.269 1608.99,447.178 1610.54,447.087 1612.08,446.998 1613.63,446.91 1615.17,446.823 1616.72,446.738 1618.27,446.653 1619.81,446.57 1621.36,446.488 1622.91,446.407 1624.45,446.327 1626,446.248 1627.54,446.17 1629.09,446.094 1630.64,446.018 1632.18,445.944 1633.73,445.87 1635.28,445.798 1636.82,445.727 1638.37,445.657 1639.91,445.588 1641.46,445.519 1643.01,445.452 1644.55,445.386 1646.1,445.321 1647.65,445.257 1649.19,445.193 1650.74,445.131 1652.29,445.07 1653.83,445.01 1655.38,444.95 1656.92,444.892 1658.47,444.834 1660.02,444.777 1661.56,444.722 1663.11,444.667 1664.66,444.613 1666.2,444.56 1667.75,444.508 1669.29,444.456 1670.84,444.406 1672.39,444.356 1673.93,444.307 1675.48,444.259 1677.03,444.212 1678.57,444.166 1680.12,444.12 1681.66,444.075 1683.21,444.031 1684.76,443.988 1686.3,443.946 1687.85,443.904 1689.4,443.863 1690.94,443.823 1692.49,443.784 1694.04,443.745 1695.58,443.707 1697.13,443.67 1698.67,443.634 1700.22,443.598 1701.77,443.563 1703.31,443.528 1704.86,443.495 1706.41,443.462 1707.95,443.43 1709.5,443.398 1711.04,443.367 1712.59,443.337 1714.14,443.307 1715.68,443.278 1717.23,443.25 1718.78,443.222 1720.32,443.195 1721.87,443.168 1723.41,443.143 1724.96,443.117 1726.51,443.093 1728.05,443.069 1729.6,443.045 1731.15,443.023 1732.69,443 1734.24,442.979 1735.78,442.957 1737.33,442.937 1738.88,442.917 1740.42,442.897 1741.97,442.879 1743.52,442.86 1745.06,442.842 1746.61,442.825 1748.16,442.808 1749.7,442.792 1751.25,442.776 1752.79,442.761 1754.34,442.747 1755.89,442.732 1757.43,442.719 1758.98,442.706 1760.53,442.693 1762.07,442.681 1763.62,442.669 1765.16,442.658 1766.71,442.647 1768.26,442.636 1769.8,442.627 1771.35,442.617 1772.9,442.608 1774.44,442.6 1775.99,442.592 1777.53,442.584 1779.08,442.577 1780.63,442.57 1782.17,442.564 1783.72,442.558 1785.27,442.552 1786.81,442.547 1788.36,442.542 1789.91,442.538 1791.45,442.534 1793,442.531 1794.54,442.528 1796.09,442.525 1797.64,442.523 1799.18,442.521 1800.73,442.519 1802.28,442.518 1803.82,442.517 1805.37,442.517 1806.91,442.516 1808.46,442.517 1810.01,442.517 1811.55,442.518 1813.1,442.52 1814.65,442.521 1816.19,442.523 1817.74,442.526 1819.28,442.528 1820.83,442.531 1822.38,442.535 1823.92,442.538 1825.47,442.542 1827.02,442.546 1828.56,442.551 1830.11,442.556 1831.66,442.561 1833.2,442.567 1834.75,442.573 1836.29,442.579 1837.84,442.585 1839.39,442.592 1840.93,442.599 1842.48,442.606 1844.03,442.614 1845.57,442.622 1847.12,442.63 1848.66,442.638 1850.21,442.647 1851.76,442.656 1853.3,442.665 1854.85,442.675 1856.4,442.684 1857.94,442.694 1859.49,442.705 1861.03,442.715 1862.58,442.726 1864.13,442.737 1865.67,442.748 1867.22,442.76 1868.77,442.772 1870.31,442.784 1871.86,442.796 1873.41,442.808 1874.95,442.821 1876.5,442.834 1878.04,442.847 1879.59,442.861 1881.14,442.874 1882.68,442.888 1884.23,442.902 1885.78,442.916 1887.32,442.931 1888.87,442.946 1890.41,442.961 1891.96,442.976 1893.51,442.991 1895.05,443.006 1896.6,443.022 1898.15,443.038 1899.69,443.054 1901.24,443.071 1902.78,443.087 1904.33,443.104 1905.88,443.121 1907.42,443.138 1908.97,443.155 1910.52,443.172 1912.06,443.19 1913.61,443.208 1915.15,443.226 1916.7,443.244 1918.25,443.262 1919.79,443.281 1921.34,443.3 1922.89,443.318 1924.43,443.337 1925.98,443.357 1927.53,443.376 1929.07,443.396 1930.62,443.415 1932.16,443.435 1933.71,443.455 1935.26,443.475 1936.8,443.495 1938.35,443.516 1939.9,443.537 1941.44,443.557 1942.99,443.578 1944.53,443.599 1946.08,443.62 1947.63,443.642 1949.17,443.663 1950.72,443.685 1952.27,443.707 1953.81,443.729 1955.36,443.751 1956.9,443.773 1958.45,443.795 1960,443.817 1961.54,443.84 1963.09,443.863 1964.64,443.885 1966.18,443.908 1967.73,443.932 1969.28,443.955 1970.82,443.978 1972.37,444.001 1973.91,444.025 1975.46,444.049 1977.01,444.072 1978.55,444.096 1980.1,444.12 1981.65,444.145 1983.19,444.169 1984.74,444.193 1986.28,444.218 1987.83,444.242 1989.38,444.267 1990.92,444.292 1992.47,444.317 1994.02,444.342 1995.56,444.367 1997.11,444.392 1998.65,444.417 2000.2,444.443 2001.75,444.468 2003.29,444.494 2004.84,444.52 2006.39,444.545 2007.93,444.571 2009.48,444.597 2011.03,444.623 2012.57,444.65 2014.12,444.676 2015.66,444.702 2017.21,444.729 2018.76,444.755 2020.3,444.782 2021.85,444.809 2023.4,444.835 2024.94,444.862 2026.49,444.889 2028.03,444.916 2029.58,444.944 2031.13,444.971 2032.67,444.998 2034.22,445.025 2035.77,445.053 2037.31,445.08 2038.86,445.108 2040.4,445.136 2041.95,445.164 2043.5,445.191 2045.04,445.219 2046.59,445.247 2048.14,445.275 2049.68,445.304 2051.23,445.332 2052.78,445.36 2054.32,445.388 2055.87,445.417 2057.41,445.445 2058.96,445.474 2060.51,445.503 2062.05,445.531 2063.6,445.56 2065.15,445.589 2066.69,445.618 2068.24,445.647 2069.78,445.676 2071.33,445.705 2072.88,445.734 2074.42,445.763 2075.97,445.792 2077.52,445.822 2079.06,445.851 2080.61,445.88 2082.15,445.91 2083.7,445.939 2085.25,445.969 2086.79,445.999 2088.34,446.028 2089.89,446.058 2091.43,446.088 2092.98,446.118 2094.52,446.148 2096.07,446.178 2097.62,446.208 2099.16,446.238 2100.71,446.268 2102.26,446.298 2103.8,446.329 2105.35,446.359 2106.9,446.389 2108.44,446.42 2109.99,446.45 2111.53,446.48 2113.08,446.511 2114.63,446.542 2116.17,446.572 2117.72,446.603 2119.27,446.634 2120.81,446.664 2122.36,446.695 2123.9,446.726 2125.45,446.757 2127,446.788 2128.54,446.819 2130.09,446.85 2131.64,446.881 2133.18,446.912 2134.73,446.943 2136.27,446.974 2137.82,447.005 2139.37,447.037 2140.91,447.068 2142.46,447.099 2144.01,447.131 2145.55,447.162 2147.1,447.193 2148.65,447.225 2150.19,447.256 2151.74,447.288 2153.28,447.32 2154.83,447.351 2156.38,447.383 2157.92,447.414 2159.47,447.446 2161.02,447.478 2162.56,447.51 2164.11,447.542 2165.65,447.573 2167.2,447.605 2168.75,447.637 2170.29,447.669 2171.84,447.701 2173.39,447.733 2174.93,447.765 2176.48,447.797 2178.02,447.829 2179.57,447.861 2181.12,447.894 2182.66,447.926 2184.21,447.958 2185.76,447.99 2187.3,448.022 2188.85,448.055 2190.4,448.087 2191.94,448.119 2193.49,448.152 2195.03,448.184 2196.58,448.217 2198.13,448.249 2199.67,448.282 2201.22,448.314 2202.77,448.347 2204.31,448.379 2205.86,448.412 2207.4,448.444 2208.95,448.477 2210.5,448.51 2212.04,448.542 2213.59,448.575 2215.14,448.608 2216.68,448.641 2218.23,448.673 2219.77,448.706 2221.32,448.739 2222.87,448.772 2224.41,448.805 2225.96,448.837 2227.51,448.87 2229.05,448.903 2230.6,448.936 2232.15,448.969 2233.69,449.002 2235.24,449.035 2236.78,449.068 2238.33,449.101 2239.88,449.134 2241.42,449.167 2242.97,449.2 2244.52,449.234 2246.06,449.267 2247.61,449.3 2249.15,449.333 2250.7,449.366 2252.25,449.399 2253.79,449.433 2255.34,449.466 2256.89,449.499 2258.43,449.532 2259.98,449.566 2261.52,449.599 2263.07,449.632 2264.62,449.666 2266.16,449.699 2267.71,449.732 2269.26,449.766 2270.8,449.799 2272.35,449.833 2273.89,449.866 2275.44,449.899 2276.99,449.933 2278.53,449.966 2280.08,450 2281.63,450.033 2283.17,450.067 2284.72,450.1 2286.27,450.134 2287.81,450.168 2289.36,450.201 2290.9,450.235 2292.45,450.268 2294,450.302 2295.54,450.336 2297.09,450.369 2298.64,450.403 2300.18,450.436 2301.73,450.47 2303.27,450.504 2304.82,450.538 2306.37,450.571 2307.91,450.605 2309.46,450.639 2311.01,450.673 2312.55,450.706 2314.1,450.74 2315.64,450.774 2317.19,450.808 2318.74,450.841 2320.28,450.875 2321.83,450.909 2323.38,450.943 2324.92,450.977 2326.47,451.011 2328.02,451.044 2329.56,451.078 2331.11,451.112 2332.65,451.146 2334.2,451.18 2335.75,451.214 2337.29,451.248 2338.84,451.282 2340.39,451.316 2341.93,451.35 2343.48,451.384 2345.02,451.418 2346.57,451.452 2348.12,451.486 2349.66,451.52 2351.21,451.554 2352.76,451.588 "/>
<circle clip-path="url(#clip481)" cx="226.58" cy="1153.85" r="14.4" fill="#e26f46" fill-rule="evenodd" fill-opacity="1" stroke="#000000" stroke-opacity="1" stroke-width="3.2"/>
<circle clip-path="url(#clip481)" cx="286.269" cy="1032.1" r="14.4" fill="#e26f46" fill-rule="evenodd" fill-opacity="1" stroke="#000000" stroke-opacity="1" stroke-width="3.2"/>
<circle clip-path="url(#clip481)" cx="383.715" cy="1043.34" r="14.4" fill="#e26f46" fill-rule="evenodd" fill-opacity="1" stroke="#000000" stroke-opacity="1" stroke-width="3.2"/>
<circle clip-path="url(#clip481)" cx="492.691" cy="1037.72" r="14.4" fill="#e26f46" fill-rule="evenodd" fill-opacity="1" stroke="#000000" stroke-opacity="1" stroke-width="3.2"/>
<circle clip-path="url(#clip481)" cx="601.442" cy="1000.25" r="14.4" fill="#e26f46" fill-rule="evenodd" fill-opacity="1" stroke="#000000" stroke-opacity="1" stroke-width="3.2"/>
<circle clip-path="url(#clip481)" cx="917.972" cy="767.991" r="14.4" fill="#e26f46" fill-rule="evenodd" fill-opacity="1" stroke="#000000" stroke-opacity="1" stroke-width="3.2"/>
<circle clip-path="url(#clip481)" cx="1120.78" cy="580.682" r="14.4" fill="#e26f46" fill-rule="evenodd" fill-opacity="1" stroke="#000000" stroke-opacity="1" stroke-width="3.2"/>
<circle clip-path="url(#clip481)" cx="1311.15" cy="560.078" r="14.4" fill="#e26f46" fill-rule="evenodd" fill-opacity="1" stroke="#000000" stroke-opacity="1" stroke-width="3.2"/>
<circle clip-path="url(#clip481)" cx="1373.1" cy="623.763" r="14.4" fill="#e26f46" fill-rule="evenodd" fill-opacity="1" stroke="#000000" stroke-opacity="1" stroke-width="3.2"/>
<circle clip-path="url(#clip481)" cx="1447.03" cy="449.565" r="14.4" fill="#e26f46" fill-rule="evenodd" fill-opacity="1" stroke="#000000" stroke-opacity="1" stroke-width="3.2"/>
<circle clip-path="url(#clip481)" cx="1499.93" cy="466.423" r="14.4" fill="#e26f46" fill-rule="evenodd" fill-opacity="1" stroke="#000000" stroke-opacity="1" stroke-width="3.2"/>
<circle clip-path="url(#clip481)" cx="1592.18" cy="415.85" r="14.4" fill="#e26f46" fill-rule="evenodd" fill-opacity="1" stroke="#000000" stroke-opacity="1" stroke-width="3.2"/>
<circle clip-path="url(#clip481)" cx="1765.14" cy="537.601" r="14.4" fill="#e26f46" fill-rule="evenodd" fill-opacity="1" stroke="#000000" stroke-opacity="1" stroke-width="3.2"/>
<circle clip-path="url(#clip481)" cx="1877.74" cy="86.1857" r="14.4" fill="#e26f46" fill-rule="evenodd" fill-opacity="1" stroke="#000000" stroke-opacity="1" stroke-width="3.2"/>
<circle clip-path="url(#clip481)" cx="2068.56" cy="344.672" r="14.4" fill="#e26f46" fill-rule="evenodd" fill-opacity="1" stroke="#000000" stroke-opacity="1" stroke-width="3.2"/>
<circle clip-path="url(#clip481)" cx="2217.1" cy="618.144" r="14.4" fill="#e26f46" fill-rule="evenodd" fill-opacity="1" stroke="#000000" stroke-opacity="1" stroke-width="3.2"/>
<path clip-path="url(#clip480)" d="M186.863 248.629 L1099.53 248.629 L1099.53 93.1086 L186.863 93.1086  Z" fill="#ffffff" fill-rule="evenodd" fill-opacity="1"/>
<polyline clip-path="url(#clip480)" style="stroke:#000000; stroke-linecap:round; stroke-linejoin:round; stroke-width:4; stroke-opacity:1; fill:none" points="186.863,248.629 1099.53,248.629 1099.53,93.1086 186.863,93.1086 186.863,248.629 "/>
<polyline clip-path="url(#clip480)" style="stroke:#009af9; stroke-linecap:round; stroke-linejoin:round; stroke-width:4; stroke-opacity:1; fill:none" points="211.758,144.949 361.13,144.949 "/>
<path clip-path="url(#clip480)" d="M406.535 137.298 L406.535 141.28 Q404.729 140.284 402.901 139.798 Q401.095 139.289 399.243 139.289 Q395.1 139.289 392.808 141.928 Q390.516 144.544 390.516 149.289 Q390.516 154.034 392.808 156.673 Q395.1 159.289 399.243 159.289 Q401.095 159.289 402.901 158.803 Q404.729 158.293 406.535 157.298 L406.535 161.233 Q404.752 162.067 402.831 162.483 Q400.933 162.9 398.78 162.9 Q392.924 162.9 389.475 159.219 Q386.026 155.539 386.026 149.289 Q386.026 142.946 389.498 139.312 Q392.993 135.678 399.058 135.678 Q401.026 135.678 402.901 136.095 Q404.776 136.488 406.535 137.298 Z" fill="#000000" fill-rule="nonzero" fill-opacity="1" /><path clip-path="url(#clip480)" d="M409.336 127.669 L438.572 127.669 L438.572 131.604 L426.303 131.604 L426.303 162.229 L421.604 162.229 L421.604 131.604 L409.336 131.604 L409.336 127.669 Z" fill="#000000" fill-rule="nonzero" fill-opacity="1" /><path clip-path="url(#clip480)" d="M464.451 146.581 L464.451 162.229 L460.192 162.229 L460.192 146.719 Q460.192 143.039 458.757 141.21 Q457.322 139.382 454.451 139.382 Q451.002 139.382 449.011 141.581 Q447.021 143.78 447.021 147.576 L447.021 162.229 L442.738 162.229 L442.738 136.303 L447.021 136.303 L447.021 140.331 Q448.549 137.993 450.609 136.835 Q452.692 135.678 455.4 135.678 Q459.868 135.678 462.16 138.456 Q464.451 141.21 464.451 146.581 Z" fill="#000000" fill-rule="nonzero" fill-opacity="1" /><path clip-path="url(#clip480)" d="M468.34 127.669 L497.576 127.669 L497.576 131.604 L485.308 131.604 L485.308 162.229 L480.609 162.229 L480.609 131.604 L468.34 131.604 L468.34 127.669 Z" fill="#000000" fill-rule="nonzero" fill-opacity="1" /><path clip-path="url(#clip480)" d="M533.502 137.067 L533.502 141.094 Q531.696 140.169 529.752 139.706 Q527.807 139.243 525.724 139.243 Q522.553 139.243 520.956 140.215 Q519.381 141.187 519.381 143.131 Q519.381 144.613 520.516 145.469 Q521.65 146.303 525.076 147.067 L526.534 147.391 Q531.071 148.363 532.969 150.145 Q534.891 151.905 534.891 155.076 Q534.891 158.687 532.02 160.793 Q529.173 162.9 524.173 162.9 Q522.09 162.9 519.821 162.483 Q517.576 162.09 515.076 161.28 L515.076 156.881 Q517.437 158.108 519.729 158.733 Q522.02 159.335 524.266 159.335 Q527.275 159.335 528.895 158.317 Q530.516 157.275 530.516 155.4 Q530.516 153.664 529.335 152.738 Q528.178 151.812 524.219 150.956 L522.738 150.608 Q518.78 149.775 517.02 148.062 Q515.261 146.326 515.261 143.317 Q515.261 139.659 517.854 137.669 Q520.446 135.678 525.215 135.678 Q527.576 135.678 529.659 136.025 Q531.742 136.372 533.502 137.067 Z" fill="#000000" fill-rule="nonzero" fill-opacity="1" /><path clip-path="url(#clip480)" d="M541.673 136.303 L545.932 136.303 L545.932 162.229 L541.673 162.229 L541.673 136.303 M541.673 126.21 L545.932 126.21 L545.932 131.604 L541.673 131.604 L541.673 126.21 Z" fill="#000000" fill-rule="nonzero" fill-opacity="1" /><path clip-path="url(#clip480)" d="M575.029 141.28 Q576.627 138.409 578.849 137.044 Q581.071 135.678 584.08 135.678 Q588.131 135.678 590.33 138.525 Q592.529 141.349 592.529 146.581 L592.529 162.229 L588.247 162.229 L588.247 146.719 Q588.247 142.993 586.927 141.187 Q585.608 139.382 582.9 139.382 Q579.589 139.382 577.668 141.581 Q575.747 143.78 575.747 147.576 L575.747 162.229 L571.465 162.229 L571.465 146.719 Q571.465 142.969 570.145 141.187 Q568.826 139.382 566.071 139.382 Q562.807 139.382 560.886 141.604 Q558.965 143.803 558.965 147.576 L558.965 162.229 L554.682 162.229 L554.682 136.303 L558.965 136.303 L558.965 140.331 Q560.423 137.946 562.46 136.812 Q564.497 135.678 567.298 135.678 Q570.122 135.678 572.09 137.113 Q574.08 138.548 575.029 141.28 Z" fill="#000000" fill-rule="nonzero" fill-opacity="1" /><path clip-path="url(#clip480)" d="M600.585 151.997 L600.585 136.303 L604.844 136.303 L604.844 151.835 Q604.844 155.516 606.279 157.368 Q607.714 159.196 610.585 159.196 Q614.034 159.196 616.024 156.997 Q618.038 154.798 618.038 151.002 L618.038 136.303 L622.298 136.303 L622.298 162.229 L618.038 162.229 L618.038 158.247 Q616.487 160.608 614.427 161.766 Q612.39 162.9 609.682 162.9 Q605.214 162.9 602.9 160.122 Q600.585 157.344 600.585 151.997 M611.302 135.678 L611.302 135.678 Z" fill="#000000" fill-rule="nonzero" fill-opacity="1" /><path clip-path="url(#clip480)" d="M631.071 126.21 L635.33 126.21 L635.33 162.229 L631.071 162.229 L631.071 126.21 Z" fill="#000000" fill-rule="nonzero" fill-opacity="1" /><path clip-path="url(#clip480)" d="M656.024 149.196 Q650.862 149.196 648.872 150.377 Q646.881 151.557 646.881 154.405 Q646.881 156.673 648.362 158.016 Q649.867 159.335 652.436 159.335 Q655.978 159.335 658.108 156.835 Q660.26 154.312 660.26 150.145 L660.26 149.196 L656.024 149.196 M664.52 147.437 L664.52 162.229 L660.26 162.229 L660.26 158.293 Q658.802 160.655 656.626 161.789 Q654.45 162.9 651.302 162.9 Q647.321 162.9 644.959 160.678 Q642.622 158.432 642.622 154.682 Q642.622 150.307 645.538 148.085 Q648.478 145.863 654.288 145.863 L660.26 145.863 L660.26 145.446 Q660.26 142.507 658.316 140.909 Q656.395 139.289 652.899 139.289 Q650.677 139.289 648.571 139.821 Q646.464 140.354 644.52 141.419 L644.52 137.483 Q646.858 136.581 649.057 136.141 Q651.256 135.678 653.339 135.678 Q658.964 135.678 661.742 138.594 Q664.52 141.511 664.52 147.437 Z" fill="#000000" fill-rule="nonzero" fill-opacity="1" /><path clip-path="url(#clip480)" d="M677.506 128.942 L677.506 136.303 L686.279 136.303 L686.279 139.613 L677.506 139.613 L677.506 153.687 Q677.506 156.858 678.362 157.761 Q679.242 158.664 681.904 158.664 L686.279 158.664 L686.279 162.229 L681.904 162.229 Q676.973 162.229 675.098 160.4 Q673.223 158.548 673.223 153.687 L673.223 139.613 L670.098 139.613 L670.098 136.303 L673.223 136.303 L673.223 128.942 L677.506 128.942 Z" fill="#000000" fill-rule="nonzero" fill-opacity="1" /><path clip-path="url(#clip480)" d="M691.881 136.303 L696.14 136.303 L696.14 162.229 L691.881 162.229 L691.881 136.303 M691.881 126.21 L696.14 126.21 L696.14 131.604 L691.881 131.604 L691.881 126.21 Z" fill="#000000" fill-rule="nonzero" fill-opacity="1" /><path clip-path="url(#clip480)" d="M715.098 139.289 Q711.672 139.289 709.681 141.974 Q707.691 144.636 707.691 149.289 Q707.691 153.942 709.658 156.627 Q711.649 159.289 715.098 159.289 Q718.501 159.289 720.491 156.604 Q722.482 153.918 722.482 149.289 Q722.482 144.682 720.491 141.997 Q718.501 139.289 715.098 139.289 M715.098 135.678 Q720.654 135.678 723.825 139.289 Q726.996 142.9 726.996 149.289 Q726.996 155.655 723.825 159.289 Q720.654 162.9 715.098 162.9 Q709.519 162.9 706.348 159.289 Q703.2 155.655 703.2 149.289 Q703.2 142.9 706.348 139.289 Q709.519 135.678 715.098 135.678 Z" fill="#000000" fill-rule="nonzero" fill-opacity="1" /><path clip-path="url(#clip480)" d="M755.607 146.581 L755.607 162.229 L751.348 162.229 L751.348 146.719 Q751.348 143.039 749.913 141.21 Q748.477 139.382 745.607 139.382 Q742.158 139.382 740.167 141.581 Q738.177 143.78 738.177 147.576 L738.177 162.229 L733.894 162.229 L733.894 136.303 L738.177 136.303 L738.177 140.331 Q739.704 137.993 741.765 136.835 Q743.848 135.678 746.556 135.678 Q751.024 135.678 753.315 138.456 Q755.607 141.21 755.607 146.581 Z" fill="#000000" fill-rule="nonzero" fill-opacity="1" /><path clip-path="url(#clip480)" d="M783.292 158.34 L783.292 172.09 L779.01 172.09 L779.01 136.303 L783.292 136.303 L783.292 140.238 Q784.635 137.923 786.672 136.812 Q788.732 135.678 791.579 135.678 Q796.301 135.678 799.241 139.428 Q802.204 143.178 802.204 149.289 Q802.204 155.4 799.241 159.15 Q796.301 162.9 791.579 162.9 Q788.732 162.9 786.672 161.789 Q784.635 160.655 783.292 158.34 M797.783 149.289 Q797.783 144.59 795.838 141.928 Q793.917 139.243 790.537 139.243 Q787.158 139.243 785.213 141.928 Q783.292 144.59 783.292 149.289 Q783.292 153.988 785.213 156.673 Q787.158 159.335 790.537 159.335 Q793.917 159.335 795.838 156.673 Q797.783 153.988 797.783 149.289 Z" fill="#000000" fill-rule="nonzero" fill-opacity="1" /><path clip-path="url(#clip480)" d="M821.047 149.196 Q815.884 149.196 813.894 150.377 Q811.903 151.557 811.903 154.405 Q811.903 156.673 813.385 158.016 Q814.889 159.335 817.459 159.335 Q821 159.335 823.13 156.835 Q825.283 154.312 825.283 150.145 L825.283 149.196 L821.047 149.196 M829.542 147.437 L829.542 162.229 L825.283 162.229 L825.283 158.293 Q823.824 160.655 821.648 161.789 Q819.472 162.9 816.324 162.9 Q812.343 162.9 809.982 160.678 Q807.644 158.432 807.644 154.682 Q807.644 150.307 810.56 148.085 Q813.5 145.863 819.31 145.863 L825.283 145.863 L825.283 145.446 Q825.283 142.507 823.338 140.909 Q821.417 139.289 817.922 139.289 Q815.699 139.289 813.593 139.821 Q811.486 140.354 809.542 141.419 L809.542 137.483 Q811.88 136.581 814.079 136.141 Q816.278 135.678 818.361 135.678 Q823.986 135.678 826.764 138.594 Q829.542 141.511 829.542 147.437 Z" fill="#000000" fill-rule="nonzero" fill-opacity="1" /><path clip-path="url(#clip480)" d="M842.528 128.942 L842.528 136.303 L851.301 136.303 L851.301 139.613 L842.528 139.613 L842.528 153.687 Q842.528 156.858 843.384 157.761 Q844.264 158.664 846.926 158.664 L851.301 158.664 L851.301 162.229 L846.926 162.229 Q841.995 162.229 840.12 160.4 Q838.245 158.548 838.245 153.687 L838.245 139.613 L835.121 139.613 L835.121 136.303 L838.245 136.303 L838.245 128.942 L842.528 128.942 Z" fill="#000000" fill-rule="nonzero" fill-opacity="1" /><path clip-path="url(#clip480)" d="M856.903 136.303 L861.162 136.303 L861.162 162.229 L856.903 162.229 L856.903 136.303 M856.903 126.21 L861.162 126.21 L861.162 131.604 L856.903 131.604 L856.903 126.21 Z" fill="#000000" fill-rule="nonzero" fill-opacity="1" /><path clip-path="url(#clip480)" d="M892.25 148.201 L892.25 150.284 L872.667 150.284 Q872.944 154.682 875.305 156.997 Q877.69 159.289 881.926 159.289 Q884.379 159.289 886.671 158.687 Q888.986 158.085 891.254 156.881 L891.254 160.909 Q888.963 161.881 886.555 162.391 Q884.148 162.9 881.671 162.9 Q875.468 162.9 871.833 159.289 Q868.222 155.678 868.222 149.52 Q868.222 143.155 871.648 139.428 Q875.097 135.678 880.93 135.678 Q886.162 135.678 889.194 139.057 Q892.25 142.414 892.25 148.201 M887.991 146.951 Q887.944 143.456 886.023 141.372 Q884.125 139.289 880.977 139.289 Q877.412 139.289 875.259 141.303 Q873.13 143.317 872.805 146.974 L887.991 146.951 Z" fill="#000000" fill-rule="nonzero" fill-opacity="1" /><path clip-path="url(#clip480)" d="M920.791 146.581 L920.791 162.229 L916.532 162.229 L916.532 146.719 Q916.532 143.039 915.097 141.21 Q913.662 139.382 910.791 139.382 Q907.342 139.382 905.352 141.581 Q903.361 143.78 903.361 147.576 L903.361 162.229 L899.078 162.229 L899.078 136.303 L903.361 136.303 L903.361 140.331 Q904.889 137.993 906.949 136.835 Q909.032 135.678 911.74 135.678 Q916.208 135.678 918.5 138.456 Q920.791 141.21 920.791 146.581 Z" fill="#000000" fill-rule="nonzero" fill-opacity="1" /><path clip-path="url(#clip480)" d="M933.5 128.942 L933.5 136.303 L942.273 136.303 L942.273 139.613 L933.5 139.613 L933.5 153.687 Q933.5 156.858 934.356 157.761 Q935.236 158.664 937.898 158.664 L942.273 158.664 L942.273 162.229 L937.898 162.229 Q932.967 162.229 931.092 160.4 Q929.217 158.548 929.217 153.687 L929.217 139.613 L926.092 139.613 L926.092 136.303 L929.217 136.303 L929.217 128.942 L933.5 128.942 Z" fill="#000000" fill-rule="nonzero" fill-opacity="1" /><path clip-path="url(#clip480)" d="M984.495 146.581 L984.495 162.229 L980.235 162.229 L980.235 146.719 Q980.235 143.039 978.8 141.21 Q977.365 139.382 974.495 139.382 Q971.046 139.382 969.055 141.581 Q967.064 143.78 967.064 147.576 L967.064 162.229 L962.782 162.229 L962.782 136.303 L967.064 136.303 L967.064 140.331 Q968.592 137.993 970.652 136.835 Q972.736 135.678 975.444 135.678 Q979.911 135.678 982.203 138.456 Q984.495 141.21 984.495 146.581 Z" fill="#000000" fill-rule="nonzero" fill-opacity="1" /><path clip-path="url(#clip480)" d="M1006.44 131.743 L994.634 150.192 L1006.44 150.192 L1006.44 131.743 M1005.21 127.669 L1011.09 127.669 L1011.09 150.192 L1016.02 150.192 L1016.02 154.081 L1011.09 154.081 L1011.09 162.229 L1006.44 162.229 L1006.44 154.081 L990.837 154.081 L990.837 149.567 L1005.21 127.669 Z" fill="#000000" fill-rule="nonzero" fill-opacity="1" /><path clip-path="url(#clip480)" d="M1036.6 131.743 L1024.8 150.192 L1036.6 150.192 L1036.6 131.743 M1035.37 127.669 L1041.25 127.669 L1041.25 150.192 L1046.18 150.192 L1046.18 154.081 L1041.25 154.081 L1041.25 162.229 L1036.6 162.229 L1036.6 154.081 L1021 154.081 L1021 149.567 L1035.37 127.669 Z" fill="#000000" fill-rule="nonzero" fill-opacity="1" /><path clip-path="url(#clip480)" d="M1054.73 158.293 L1062.36 158.293 L1062.36 131.928 L1054.05 133.595 L1054.05 129.335 L1062.32 127.669 L1066.99 127.669 L1066.99 158.293 L1074.63 158.293 L1074.63 162.229 L1054.73 162.229 L1054.73 158.293 Z" fill="#000000" fill-rule="nonzero" fill-opacity="1" /><circle clip-path="url(#clip480)" cx="286.444" cy="196.789" r="20.48" fill="#e26f46" fill-rule="evenodd" fill-opacity="1" stroke="#000000" stroke-opacity="1" stroke-width="4.55111"/>
<path clip-path="url(#clip480)" d="M390.702 183.351 L390.702 210.226 L396.35 210.226 Q403.502 210.226 406.813 206.985 Q410.146 203.745 410.146 196.754 Q410.146 189.809 406.813 186.592 Q403.502 183.351 396.35 183.351 L390.702 183.351 M386.026 179.509 L395.632 179.509 Q405.678 179.509 410.377 183.698 Q415.076 187.865 415.076 196.754 Q415.076 205.689 410.354 209.879 Q405.632 214.069 395.632 214.069 L386.026 214.069 L386.026 179.509 Z" fill="#000000" fill-rule="nonzero" fill-opacity="1" /><path clip-path="url(#clip480)" d="M434.127 201.036 Q428.965 201.036 426.975 202.217 Q424.984 203.397 424.984 206.245 Q424.984 208.513 426.465 209.856 Q427.97 211.175 430.539 211.175 Q434.081 211.175 436.211 208.675 Q438.363 206.152 438.363 201.985 L438.363 201.036 L434.127 201.036 M442.623 199.277 L442.623 214.069 L438.363 214.069 L438.363 210.133 Q436.905 212.495 434.729 213.629 Q432.553 214.74 429.405 214.74 Q425.424 214.74 423.063 212.518 Q420.725 210.272 420.725 206.522 Q420.725 202.147 423.641 199.925 Q426.581 197.703 432.391 197.703 L438.363 197.703 L438.363 197.286 Q438.363 194.347 436.419 192.749 Q434.498 191.129 431.002 191.129 Q428.78 191.129 426.674 191.661 Q424.567 192.194 422.623 193.259 L422.623 189.323 Q424.961 188.421 427.16 187.981 Q429.359 187.518 431.442 187.518 Q437.067 187.518 439.845 190.434 Q442.623 193.351 442.623 199.277 Z" fill="#000000" fill-rule="nonzero" fill-opacity="1" /><path clip-path="url(#clip480)" d="M455.609 180.782 L455.609 188.143 L464.382 188.143 L464.382 191.453 L455.609 191.453 L455.609 205.527 Q455.609 208.698 456.465 209.601 Q457.345 210.504 460.007 210.504 L464.382 210.504 L464.382 214.069 L460.007 214.069 Q455.076 214.069 453.201 212.24 Q451.326 210.388 451.326 205.527 L451.326 191.453 L448.201 191.453 L448.201 188.143 L451.326 188.143 L451.326 180.782 L455.609 180.782 Z" fill="#000000" fill-rule="nonzero" fill-opacity="1" /><path clip-path="url(#clip480)" d="M481.766 201.036 Q476.604 201.036 474.613 202.217 Q472.622 203.397 472.622 206.245 Q472.622 208.513 474.104 209.856 Q475.609 211.175 478.178 211.175 Q481.72 211.175 483.849 208.675 Q486.002 206.152 486.002 201.985 L486.002 201.036 L481.766 201.036 M490.261 199.277 L490.261 214.069 L486.002 214.069 L486.002 210.133 Q484.544 212.495 482.368 213.629 Q480.192 214.74 477.044 214.74 Q473.062 214.74 470.701 212.518 Q468.363 210.272 468.363 206.522 Q468.363 202.147 471.28 199.925 Q474.22 197.703 480.03 197.703 L486.002 197.703 L486.002 197.286 Q486.002 194.347 484.058 192.749 Q482.136 191.129 478.641 191.129 Q476.419 191.129 474.312 191.661 Q472.206 192.194 470.261 193.259 L470.261 189.323 Q472.599 188.421 474.798 187.981 Q476.997 187.518 479.081 187.518 Q484.706 187.518 487.483 190.434 Q490.261 193.351 490.261 199.277 Z" fill="#000000" fill-rule="nonzero" fill-opacity="1" /></svg>
