<?xml version="1.0" encoding="utf-8"?>
<svg xmlns="http://www.w3.org/2000/svg" xmlns:xlink="http://www.w3.org/1999/xlink" width="600" height="400" viewBox="0 0 2400 1600">
<defs>
  <clipPath id="clip360">
    <rect x="0" y="0" width="2400" height="1600"/>
  </clipPath>
</defs>
<path clip-path="url(#clip360)" d="M0 1600 L2400 1600 L2400 0 L0 0  Z" fill="#ffffff" fill-rule="evenodd" fill-opacity="1"/>
<defs>
  <clipPath id="clip361">
    <rect x="219" y="123" width="2134" height="1301"/>
  </clipPath>
</defs>
<path clip-path="url(#clip360)" d="M219.866 1423.18 L2352.76 1423.18 L2352.76 123.472 L219.866 123.472  Z" fill="#ffffff" fill-rule="evenodd" fill-opacity="1"/>
<polyline clip-path="url(#clip361)" style="stroke:#000000; stroke-linecap:round; stroke-linejoin:round; stroke-width:2; stroke-opacity:0.1; fill:none" points="219.866,1423.18 219.866,123.472 "/>
<polyline clip-path="url(#clip361)" style="stroke:#000000; stroke-linecap:round; stroke-linejoin:round; stroke-width:2; stroke-opacity:0.1; fill:none" points="649.523,1423.18 649.523,123.472 "/>
<polyline clip-path="url(#clip361)" style="stroke:#000000; stroke-linecap:round; stroke-linejoin:round; stroke-width:2; stroke-opacity:0.1; fill:none" points="1079.18,1423.18 1079.18,123.472 "/>
<polyline clip-path="url(#clip361)" style="stroke:#000000; stroke-linecap:round; stroke-linejoin:round; stroke-width:2; stroke-opacity:0.1; fill:none" points="1508.84,1423.18 1508.84,123.472 "/>
<polyline clip-path="url(#clip361)" style="stroke:#000000; stroke-linecap:round; stroke-linejoin:round; stroke-width:2; stroke-opacity:0.1; fill:none" points="1938.49,1423.18 1938.49,123.472 "/>
<polyline clip-path="url(#clip361)" style="stroke:#000000; stroke-linecap:round; stroke-linejoin:round; stroke-width:2; stroke-opacity:0.1; fill:none" points="219.866,1386.4 2352.76,1386.4 "/>
<polyline clip-path="url(#clip361)" style="stroke:#000000; stroke-linecap:round; stroke-linejoin:round; stroke-width:2; stroke-opacity:0.1; fill:none" points="219.866,1122.71 2352.76,1122.71 "/>
<polyline clip-path="url(#clip361)" style="stroke:#000000; stroke-linecap:round; stroke-linejoin:round; stroke-width:2; stroke-opacity:0.1; fill:none" points="219.866,859.024 2352.76,859.024 "/>
<polyline clip-path="url(#clip361)" style="stroke:#000000; stroke-linecap:round; stroke-linejoin:round; stroke-width:2; stroke-opacity:0.1; fill:none" points="219.866,595.338 2352.76,595.338 "/>
<polyline clip-path="url(#clip361)" style="stroke:#000000; stroke-linecap:round; stroke-linejoin:round; stroke-width:2; stroke-opacity:0.1; fill:none" points="219.866,331.652 2352.76,331.652 "/>
<polyline clip-path="url(#clip360)" style="stroke:#000000; stroke-linecap:round; stroke-linejoin:round; stroke-width:4; stroke-opacity:1; fill:none" points="219.866,1423.18 2352.76,1423.18 "/>
<polyline clip-path="url(#clip360)" style="stroke:#000000; stroke-linecap:round; stroke-linejoin:round; stroke-width:4; stroke-opacity:1; fill:none" points="219.866,1423.18 219.866,1404.28 "/>
<polyline clip-path="url(#clip360)" style="stroke:#000000; stroke-linecap:round; stroke-linejoin:round; stroke-width:4; stroke-opacity:1; fill:none" points="649.523,1423.18 649.523,1404.28 "/>
<polyline clip-path="url(#clip360)" style="stroke:#000000; stroke-linecap:round; stroke-linejoin:round; stroke-width:4; stroke-opacity:1; fill:none" points="1079.18,1423.18 1079.18,1404.28 "/>
<polyline clip-path="url(#clip360)" style="stroke:#000000; stroke-linecap:round; stroke-linejoin:round; stroke-width:4; stroke-opacity:1; fill:none" points="1508.84,1423.18 1508.84,1404.28 "/>
<polyline clip-path="url(#clip360)" style="stroke:#000000; stroke-linecap:round; stroke-linejoin:round; stroke-width:4; stroke-opacity:1; fill:none" points="1938.49,1423.18 1938.49,1404.28 "/>
<path clip-path="url(#clip360)" d="M219.866 1454.1 Q216.255 1454.1 214.426 1457.66 Q212.621 1461.2 212.621 1468.33 Q212.621 1475.44 214.426 1479.01 Q216.255 1482.55 219.866 1482.55 Q223.501 1482.55 225.306 1479.01 Q227.135 1475.44 227.135 1468.33 Q227.135 1461.2 225.306 1457.66 Q223.501 1454.1 219.866 1454.1 M219.866 1450.39 Q225.676 1450.39 228.732 1455 Q231.811 1459.58 231.811 1468.33 Q231.811 1477.06 228.732 1481.67 Q225.676 1486.25 219.866 1486.25 Q214.056 1486.25 210.977 1481.67 Q207.922 1477.06 207.922 1468.33 Q207.922 1459.58 210.977 1455 Q214.056 1450.39 219.866 1450.39 Z" fill="#000000" fill-rule="nonzero" fill-opacity="1" /><path clip-path="url(#clip360)" d="M628.297 1481.64 L644.616 1481.64 L644.616 1485.58 L622.672 1485.58 L622.672 1481.64 Q625.334 1478.89 629.917 1474.26 Q634.523 1469.61 635.704 1468.27 Q637.949 1465.74 638.829 1464.01 Q639.732 1462.25 639.732 1460.56 Q639.732 1457.8 637.787 1456.07 Q635.866 1454.33 632.764 1454.33 Q630.565 1454.33 628.111 1455.09 Q625.681 1455.86 622.903 1457.41 L622.903 1452.69 Q625.727 1451.55 628.181 1450.97 Q630.635 1450.39 632.672 1450.39 Q638.042 1450.39 641.236 1453.08 Q644.431 1455.77 644.431 1460.26 Q644.431 1462.39 643.621 1464.31 Q642.834 1466.2 640.727 1468.8 Q640.148 1469.47 637.047 1472.69 Q633.945 1475.88 628.297 1481.64 Z" fill="#000000" fill-rule="nonzero" fill-opacity="1" /><path clip-path="url(#clip360)" d="M664.431 1454.1 Q660.82 1454.1 658.991 1457.66 Q657.185 1461.2 657.185 1468.33 Q657.185 1475.44 658.991 1479.01 Q660.82 1482.55 664.431 1482.55 Q668.065 1482.55 669.871 1479.01 Q671.699 1475.44 671.699 1468.33 Q671.699 1461.2 669.871 1457.66 Q668.065 1454.1 664.431 1454.1 M664.431 1450.39 Q670.241 1450.39 673.296 1455 Q676.375 1459.58 676.375 1468.33 Q676.375 1477.06 673.296 1481.67 Q670.241 1486.25 664.431 1486.25 Q658.621 1486.25 655.542 1481.67 Q652.486 1477.06 652.486 1468.33 Q652.486 1459.58 655.542 1455 Q658.621 1450.39 664.431 1450.39 Z" fill="#000000" fill-rule="nonzero" fill-opacity="1" /><path clip-path="url(#clip360)" d="M1067.35 1455.09 L1055.55 1473.54 L1067.35 1473.54 L1067.35 1455.09 M1066.13 1451.02 L1072 1451.02 L1072 1473.54 L1076.94 1473.54 L1076.94 1477.43 L1072 1477.43 L1072 1485.58 L1067.35 1485.58 L1067.35 1477.43 L1051.75 1477.43 L1051.75 1472.92 L1066.13 1451.02 Z" fill="#000000" fill-rule="nonzero" fill-opacity="1" /><path clip-path="url(#clip360)" d="M1094.67 1454.1 Q1091.06 1454.1 1089.23 1457.66 Q1087.42 1461.2 1087.42 1468.33 Q1087.42 1475.44 1089.23 1479.01 Q1091.06 1482.55 1094.67 1482.55 Q1098.3 1482.55 1100.11 1479.01 Q1101.94 1475.44 1101.94 1468.33 Q1101.94 1461.2 1100.11 1457.66 Q1098.3 1454.1 1094.67 1454.1 M1094.67 1450.39 Q1100.48 1450.39 1103.53 1455 Q1106.61 1459.58 1106.61 1468.33 Q1106.61 1477.06 1103.53 1481.67 Q1100.48 1486.25 1094.67 1486.25 Q1088.86 1486.25 1085.78 1481.67 Q1082.72 1477.06 1082.72 1468.33 Q1082.72 1459.58 1085.78 1455 Q1088.86 1450.39 1094.67 1450.39 Z" fill="#000000" fill-rule="nonzero" fill-opacity="1" /><path clip-path="url(#clip360)" d="M1494.24 1466.44 Q1491.09 1466.44 1489.24 1468.59 Q1487.41 1470.74 1487.41 1474.49 Q1487.41 1478.22 1489.24 1480.39 Q1491.09 1482.55 1494.24 1482.55 Q1497.39 1482.55 1499.22 1480.39 Q1501.07 1478.22 1501.07 1474.49 Q1501.07 1470.74 1499.22 1468.59 Q1497.39 1466.44 1494.24 1466.44 M1503.53 1451.78 L1503.53 1456.04 Q1501.77 1455.21 1499.96 1454.77 Q1498.18 1454.33 1496.42 1454.33 Q1491.79 1454.33 1489.34 1457.45 Q1486.9 1460.58 1486.56 1466.9 Q1487.92 1464.89 1489.98 1463.82 Q1492.04 1462.73 1494.52 1462.73 Q1499.73 1462.73 1502.74 1465.9 Q1505.77 1469.05 1505.77 1474.49 Q1505.77 1479.82 1502.62 1483.03 Q1499.47 1486.25 1494.24 1486.25 Q1488.25 1486.25 1485.08 1481.67 Q1481.9 1477.06 1481.9 1468.33 Q1481.9 1460.14 1485.79 1455.28 Q1489.68 1450.39 1496.23 1450.39 Q1497.99 1450.39 1499.78 1450.74 Q1501.58 1451.09 1503.53 1451.78 Z" fill="#000000" fill-rule="nonzero" fill-opacity="1" /><path clip-path="url(#clip360)" d="M1523.83 1454.1 Q1520.21 1454.1 1518.39 1457.66 Q1516.58 1461.2 1516.58 1468.33 Q1516.58 1475.44 1518.39 1479.01 Q1520.21 1482.55 1523.83 1482.55 Q1527.46 1482.55 1529.27 1479.01 Q1531.09 1475.44 1531.09 1468.33 Q1531.09 1461.2 1529.27 1457.66 Q1527.46 1454.1 1523.83 1454.1 M1523.83 1450.39 Q1529.64 1450.39 1532.69 1455 Q1535.77 1459.58 1535.77 1468.33 Q1535.77 1477.06 1532.69 1481.67 Q1529.64 1486.25 1523.83 1486.25 Q1518.02 1486.25 1514.94 1481.67 Q1511.88 1477.06 1511.88 1468.33 Q1511.88 1459.58 1514.94 1455 Q1518.02 1450.39 1523.83 1450.39 Z" fill="#000000" fill-rule="nonzero" fill-opacity="1" /><path clip-path="url(#clip360)" d="M1923.37 1469.17 Q1920.03 1469.17 1918.11 1470.95 Q1916.21 1472.73 1916.21 1475.86 Q1916.21 1478.98 1918.11 1480.77 Q1920.03 1482.55 1923.37 1482.55 Q1926.7 1482.55 1928.62 1480.77 Q1930.54 1478.96 1930.54 1475.86 Q1930.54 1472.73 1928.62 1470.95 Q1926.72 1469.17 1923.37 1469.17 M1918.69 1467.18 Q1915.68 1466.44 1913.99 1464.38 Q1912.33 1462.32 1912.33 1459.35 Q1912.33 1455.21 1915.27 1452.8 Q1918.23 1450.39 1923.37 1450.39 Q1928.53 1450.39 1931.47 1452.8 Q1934.41 1455.21 1934.41 1459.35 Q1934.41 1462.32 1932.72 1464.38 Q1931.05 1466.44 1928.07 1467.18 Q1931.45 1467.96 1933.32 1470.26 Q1935.22 1472.55 1935.22 1475.86 Q1935.22 1480.88 1932.14 1483.57 Q1929.09 1486.25 1923.37 1486.25 Q1917.65 1486.25 1914.57 1483.57 Q1911.52 1480.88 1911.52 1475.86 Q1911.52 1472.55 1913.41 1470.26 Q1915.31 1467.96 1918.69 1467.18 M1916.98 1459.79 Q1916.98 1462.48 1918.65 1463.98 Q1920.34 1465.49 1923.37 1465.49 Q1926.38 1465.49 1928.07 1463.98 Q1929.78 1462.48 1929.78 1459.79 Q1929.78 1457.11 1928.07 1455.6 Q1926.38 1454.1 1923.37 1454.1 Q1920.34 1454.1 1918.65 1455.6 Q1916.98 1457.11 1916.98 1459.79 Z" fill="#000000" fill-rule="nonzero" fill-opacity="1" /><path clip-path="url(#clip360)" d="M1953.53 1454.1 Q1949.92 1454.1 1948.09 1457.66 Q1946.28 1461.2 1946.28 1468.33 Q1946.28 1475.44 1948.09 1479.01 Q1949.92 1482.55 1953.53 1482.55 Q1957.16 1482.55 1958.97 1479.01 Q1960.8 1475.44 1960.8 1468.33 Q1960.8 1461.2 1958.97 1457.66 Q1957.16 1454.1 1953.53 1454.1 M1953.53 1450.39 Q1959.34 1450.39 1962.4 1455 Q1965.47 1459.58 1965.47 1468.33 Q1965.47 1477.06 1962.4 1481.67 Q1959.34 1486.25 1953.53 1486.25 Q1947.72 1486.25 1944.64 1481.67 Q1941.59 1477.06 1941.59 1468.33 Q1941.59 1459.58 1944.64 1455 Q1947.72 1450.39 1953.53 1450.39 Z" fill="#000000" fill-rule="nonzero" fill-opacity="1" /><path clip-path="url(#clip360)" d="M1208.19 1520.52 L1248.39 1520.52 L1248.39 1525.93 L1231.52 1525.93 L1231.52 1568.04 L1225.06 1568.04 L1225.06 1525.93 L1208.19 1525.93 L1208.19 1520.52 Z" fill="#000000" fill-rule="nonzero" fill-opacity="1" /><path clip-path="url(#clip360)" d="M1252.33 1532.4 L1258.19 1532.4 L1258.19 1568.04 L1252.33 1568.04 L1252.33 1532.4 M1252.33 1518.52 L1258.19 1518.52 L1258.19 1525.93 L1252.33 1525.93 L1252.33 1518.52 Z" fill="#000000" fill-rule="nonzero" fill-opacity="1" /><path clip-path="url(#clip360)" d="M1298.2 1539.24 Q1300.4 1535.29 1303.45 1533.41 Q1306.51 1531.54 1310.64 1531.54 Q1316.21 1531.54 1319.24 1535.45 Q1322.26 1539.33 1322.26 1546.53 L1322.26 1568.04 L1316.37 1568.04 L1316.37 1546.72 Q1316.37 1541.59 1314.56 1539.11 Q1312.74 1536.63 1309.02 1536.63 Q1304.47 1536.63 1301.83 1539.65 Q1299.19 1542.68 1299.19 1547.9 L1299.19 1568.04 L1293.3 1568.04 L1293.3 1546.72 Q1293.3 1541.56 1291.48 1539.11 Q1289.67 1536.63 1285.88 1536.63 Q1281.39 1536.63 1278.75 1539.68 Q1276.11 1542.71 1276.11 1547.9 L1276.11 1568.04 L1270.22 1568.04 L1270.22 1532.4 L1276.11 1532.4 L1276.11 1537.93 Q1278.12 1534.66 1280.92 1533.1 Q1283.72 1531.54 1287.57 1531.54 Q1291.45 1531.54 1294.16 1533.51 Q1296.89 1535.48 1298.2 1539.24 Z" fill="#000000" fill-rule="nonzero" fill-opacity="1" /><path clip-path="url(#clip360)" d="M1364.43 1548.76 L1364.43 1551.62 L1337.51 1551.62 Q1337.89 1557.67 1341.14 1560.85 Q1344.41 1564 1350.24 1564 Q1353.61 1564 1356.76 1563.17 Q1359.95 1562.35 1363.07 1560.69 L1363.07 1566.23 Q1359.91 1567.57 1356.6 1568.27 Q1353.29 1568.97 1349.89 1568.97 Q1341.36 1568.97 1336.36 1564 Q1331.4 1559.04 1331.4 1550.57 Q1331.4 1541.82 1336.11 1536.69 Q1340.85 1531.54 1348.87 1531.54 Q1356.06 1531.54 1360.23 1536.18 Q1364.43 1540.8 1364.43 1548.76 M1358.58 1547.04 Q1358.51 1542.23 1355.87 1539.37 Q1353.26 1536.5 1348.93 1536.5 Q1344.03 1536.5 1341.07 1539.27 Q1338.14 1542.04 1337.7 1547.07 L1358.58 1547.04 Z" fill="#000000" fill-rule="nonzero" fill-opacity="1" /><polyline clip-path="url(#clip360)" style="stroke:#000000; stroke-linecap:round; stroke-linejoin:round; stroke-width:4; stroke-opacity:1; fill:none" points="219.866,1423.18 219.866,123.472 "/>
<polyline clip-path="url(#clip360)" style="stroke:#000000; stroke-linecap:round; stroke-linejoin:round; stroke-width:4; stroke-opacity:1; fill:none" points="219.866,1386.4 238.764,1386.4 "/>
<polyline clip-path="url(#clip360)" style="stroke:#000000; stroke-linecap:round; stroke-linejoin:round; stroke-width:4; stroke-opacity:1; fill:none" points="219.866,1122.71 238.764,1122.71 "/>
<polyline clip-path="url(#clip360)" style="stroke:#000000; stroke-linecap:round; stroke-linejoin:round; stroke-width:4; stroke-opacity:1; fill:none" points="219.866,859.024 238.764,859.024 "/>
<polyline clip-path="url(#clip360)" style="stroke:#000000; stroke-linecap:round; stroke-linejoin:round; stroke-width:4; stroke-opacity:1; fill:none" points="219.866,595.338 238.764,595.338 "/>
<polyline clip-path="url(#clip360)" style="stroke:#000000; stroke-linecap:round; stroke-linejoin:round; stroke-width:4; stroke-opacity:1; fill:none" points="219.866,331.652 238.764,331.652 "/>
<path clip-path="url(#clip360)" d="M126.691 1372.19 Q123.08 1372.19 121.251 1375.76 Q119.445 1379.3 119.445 1386.43 Q119.445 1393.54 121.251 1397.1 Q123.08 1400.64 126.691 1400.64 Q130.325 1400.64 132.13 1397.1 Q133.959 1393.54 133.959 1386.43 Q133.959 1379.3 132.13 1375.76 Q130.325 1372.19 126.691 1372.19 M126.691 1368.49 Q132.501 1368.49 135.556 1373.1 Q138.635 1377.68 138.635 1386.43 Q138.635 1395.16 135.556 1399.76 Q132.501 1404.35 126.691 1404.35 Q120.88 1404.35 117.802 1399.76 Q114.746 1395.16 114.746 1386.43 Q114.746 1377.68 117.802 1373.1 Q120.88 1368.49 126.691 1368.49 Z" fill="#000000" fill-rule="nonzero" fill-opacity="1" /><path clip-path="url(#clip360)" d="M146.853 1397.8 L151.737 1397.8 L151.737 1403.68 L146.853 1403.68 L146.853 1397.8 Z" fill="#000000" fill-rule="nonzero" fill-opacity="1" /><path clip-path="url(#clip360)" d="M171.922 1372.19 Q168.311 1372.19 166.482 1375.76 Q164.677 1379.3 164.677 1386.43 Q164.677 1393.54 166.482 1397.1 Q168.311 1400.64 171.922 1400.64 Q175.556 1400.64 177.362 1397.1 Q179.19 1393.54 179.19 1386.43 Q179.19 1379.3 177.362 1375.76 Q175.556 1372.19 171.922 1372.19 M171.922 1368.49 Q177.732 1368.49 180.788 1373.1 Q183.866 1377.68 183.866 1386.43 Q183.866 1395.16 180.788 1399.76 Q177.732 1404.35 171.922 1404.35 Q166.112 1404.35 163.033 1399.76 Q159.978 1395.16 159.978 1386.43 Q159.978 1377.68 163.033 1373.1 Q166.112 1368.49 171.922 1368.49 Z" fill="#000000" fill-rule="nonzero" fill-opacity="1" /><path clip-path="url(#clip360)" d="M128.288 1108.51 Q124.677 1108.51 122.848 1112.07 Q121.043 1115.61 121.043 1122.74 Q121.043 1129.85 122.848 1133.42 Q124.677 1136.96 128.288 1136.96 Q131.922 1136.96 133.728 1133.42 Q135.556 1129.85 135.556 1122.74 Q135.556 1115.61 133.728 1112.07 Q131.922 1108.51 128.288 1108.51 M128.288 1104.8 Q134.098 1104.8 137.154 1109.41 Q140.232 1113.99 140.232 1122.74 Q140.232 1131.47 137.154 1136.08 Q134.098 1140.66 128.288 1140.66 Q122.478 1140.66 119.399 1136.08 Q116.343 1131.47 116.343 1122.74 Q116.343 1113.99 119.399 1109.41 Q122.478 1104.8 128.288 1104.8 Z" fill="#000000" fill-rule="nonzero" fill-opacity="1" /><path clip-path="url(#clip360)" d="M148.45 1134.11 L153.334 1134.11 L153.334 1139.99 L148.45 1139.99 L148.45 1134.11 Z" fill="#000000" fill-rule="nonzero" fill-opacity="1" /><path clip-path="url(#clip360)" d="M167.547 1136.05 L183.866 1136.05 L183.866 1139.99 L161.922 1139.99 L161.922 1136.05 Q164.584 1133.3 169.167 1128.67 Q173.774 1124.02 174.954 1122.68 Q177.2 1120.15 178.079 1118.42 Q178.982 1116.66 178.982 1114.97 Q178.982 1112.21 177.038 1110.48 Q175.116 1108.74 172.014 1108.74 Q169.815 1108.74 167.362 1109.5 Q164.931 1110.27 162.153 1111.82 L162.153 1107.1 Q164.977 1105.96 167.431 1105.38 Q169.885 1104.8 171.922 1104.8 Q177.292 1104.8 180.487 1107.49 Q183.681 1110.18 183.681 1114.67 Q183.681 1116.8 182.871 1118.72 Q182.084 1120.61 179.977 1123.21 Q179.399 1123.88 176.297 1127.1 Q173.195 1130.29 167.547 1136.05 Z" fill="#000000" fill-rule="nonzero" fill-opacity="1" /><path clip-path="url(#clip360)" d="M126.205 844.823 Q122.593 844.823 120.765 848.387 Q118.959 851.929 118.959 859.059 Q118.959 866.165 120.765 869.73 Q122.593 873.272 126.205 873.272 Q129.839 873.272 131.644 869.73 Q133.473 866.165 133.473 859.059 Q133.473 851.929 131.644 848.387 Q129.839 844.823 126.205 844.823 M126.205 841.119 Q132.015 841.119 135.07 845.725 Q138.149 850.309 138.149 859.059 Q138.149 867.785 135.07 872.392 Q132.015 876.975 126.205 876.975 Q120.394 876.975 117.316 872.392 Q114.26 867.785 114.26 859.059 Q114.26 850.309 117.316 845.725 Q120.394 841.119 126.205 841.119 Z" fill="#000000" fill-rule="nonzero" fill-opacity="1" /><path clip-path="url(#clip360)" d="M146.366 870.424 L151.251 870.424 L151.251 876.304 L146.366 876.304 L146.366 870.424 Z" fill="#000000" fill-rule="nonzero" fill-opacity="1" /><path clip-path="url(#clip360)" d="M174.283 845.818 L162.477 864.267 L174.283 864.267 L174.283 845.818 M173.056 841.744 L178.936 841.744 L178.936 864.267 L183.866 864.267 L183.866 868.156 L178.936 868.156 L178.936 876.304 L174.283 876.304 L174.283 868.156 L158.681 868.156 L158.681 863.642 L173.056 841.744 Z" fill="#000000" fill-rule="nonzero" fill-opacity="1" /><path clip-path="url(#clip360)" d="M126.529 581.137 Q122.918 581.137 121.089 584.701 Q119.283 588.243 119.283 595.373 Q119.283 602.479 121.089 606.044 Q122.918 609.586 126.529 609.586 Q130.163 609.586 131.968 606.044 Q133.797 602.479 133.797 595.373 Q133.797 588.243 131.968 584.701 Q130.163 581.137 126.529 581.137 M126.529 577.433 Q132.339 577.433 135.394 582.039 Q138.473 586.623 138.473 595.373 Q138.473 604.1 135.394 608.706 Q132.339 613.289 126.529 613.289 Q120.718 613.289 117.64 608.706 Q114.584 604.1 114.584 595.373 Q114.584 586.623 117.64 582.039 Q120.718 577.433 126.529 577.433 Z" fill="#000000" fill-rule="nonzero" fill-opacity="1" /><path clip-path="url(#clip360)" d="M146.691 606.738 L151.575 606.738 L151.575 612.618 L146.691 612.618 L146.691 606.738 Z" fill="#000000" fill-rule="nonzero" fill-opacity="1" /><path clip-path="url(#clip360)" d="M172.339 593.475 Q169.19 593.475 167.339 595.627 Q165.51 597.78 165.51 601.53 Q165.51 605.257 167.339 607.433 Q169.19 609.586 172.339 609.586 Q175.487 609.586 177.315 607.433 Q179.167 605.257 179.167 601.53 Q179.167 597.78 177.315 595.627 Q175.487 593.475 172.339 593.475 M181.621 578.822 L181.621 583.081 Q179.862 582.248 178.056 581.808 Q176.274 581.368 174.514 581.368 Q169.885 581.368 167.431 584.493 Q165.001 587.618 164.653 593.938 Q166.019 591.924 168.079 590.859 Q170.139 589.771 172.616 589.771 Q177.825 589.771 180.834 592.942 Q183.866 596.09 183.866 601.53 Q183.866 606.854 180.718 610.072 Q177.57 613.289 172.339 613.289 Q166.343 613.289 163.172 608.706 Q160.001 604.1 160.001 595.373 Q160.001 587.178 163.89 582.317 Q167.778 577.433 174.329 577.433 Q176.089 577.433 177.871 577.78 Q179.676 578.127 181.621 578.822 Z" fill="#000000" fill-rule="nonzero" fill-opacity="1" /><path clip-path="url(#clip360)" d="M126.783 317.451 Q123.172 317.451 121.343 321.016 Q119.538 324.557 119.538 331.687 Q119.538 338.793 121.343 342.358 Q123.172 345.9 126.783 345.9 Q130.417 345.9 132.223 342.358 Q134.052 338.793 134.052 331.687 Q134.052 324.557 132.223 321.016 Q130.417 317.451 126.783 317.451 M126.783 313.747 Q132.593 313.747 135.649 318.354 Q138.728 322.937 138.728 331.687 Q138.728 340.414 135.649 345.02 Q132.593 349.603 126.783 349.603 Q120.973 349.603 117.894 345.02 Q114.839 340.414 114.839 331.687 Q114.839 322.937 117.894 318.354 Q120.973 313.747 126.783 313.747 Z" fill="#000000" fill-rule="nonzero" fill-opacity="1" /><path clip-path="url(#clip360)" d="M146.945 343.053 L151.829 343.053 L151.829 348.932 L146.945 348.932 L146.945 343.053 Z" fill="#000000" fill-rule="nonzero" fill-opacity="1" /><path clip-path="url(#clip360)" d="M172.014 332.52 Q168.681 332.52 166.76 334.303 Q164.862 336.085 164.862 339.21 Q164.862 342.335 166.76 344.117 Q168.681 345.9 172.014 345.9 Q175.348 345.9 177.269 344.117 Q179.19 342.312 179.19 339.21 Q179.19 336.085 177.269 334.303 Q175.371 332.52 172.014 332.52 M167.339 330.529 Q164.329 329.789 162.64 327.729 Q160.973 325.668 160.973 322.705 Q160.973 318.562 163.913 316.155 Q166.876 313.747 172.014 313.747 Q177.176 313.747 180.116 316.155 Q183.056 318.562 183.056 322.705 Q183.056 325.668 181.366 327.729 Q179.7 329.789 176.714 330.529 Q180.093 331.316 181.968 333.608 Q183.866 335.9 183.866 339.21 Q183.866 344.233 180.788 346.918 Q177.732 349.603 172.014 349.603 Q166.297 349.603 163.218 346.918 Q160.163 344.233 160.163 339.21 Q160.163 335.9 162.061 333.608 Q163.959 331.316 167.339 330.529 M165.626 323.145 Q165.626 325.83 167.292 327.335 Q168.982 328.84 172.014 328.84 Q175.024 328.84 176.714 327.335 Q178.426 325.83 178.426 323.145 Q178.426 320.46 176.714 318.955 Q175.024 317.451 172.014 317.451 Q168.982 317.451 167.292 318.955 Q165.626 320.46 165.626 323.145 Z" fill="#000000" fill-rule="nonzero" fill-opacity="1" /><path clip-path="url(#clip360)" d="M29.7248 956.945 L35.1993 956.945 Q33.8307 959.427 33.1623 961.942 Q32.4621 964.424 32.4621 966.971 Q32.4621 972.668 36.0905 975.819 Q39.6872 978.97 46.212 978.97 Q52.7369 978.97 56.3653 975.819 Q59.9619 972.668 59.9619 966.971 Q59.9619 964.424 59.2935 961.942 Q58.5933 959.427 57.2247 956.945 L62.6355 956.945 Q63.7814 959.396 64.3543 962.037 Q64.9272 964.647 64.9272 967.607 Q64.9272 975.66 59.8664 980.402 Q54.8057 985.145 46.212 985.145 Q37.491 985.145 32.4939 980.371 Q27.4968 975.564 27.4968 967.225 Q27.4968 964.52 28.0697 961.942 Q28.6108 959.364 29.7248 956.945 Z" fill="#000000" fill-rule="nonzero" fill-opacity="1" /><path clip-path="url(#clip360)" d="M16.4842 953.094 L16.4842 912.894 L21.895 912.894 L21.895 929.763 L64.0042 929.763 L64.0042 936.224 L21.895 936.224 L21.895 953.094 L16.4842 953.094 Z" fill="#000000" fill-rule="nonzero" fill-opacity="1" /><path clip-path="url(#clip360)" d="M42.4881 877.31 L64.0042 877.31 L64.0042 883.166 L42.679 883.166 Q37.6183 883.166 35.1038 885.14 Q32.5894 887.113 32.5894 891.06 Q32.5894 895.802 35.6131 898.539 Q38.6368 901.277 43.8567 901.277 L64.0042 901.277 L64.0042 907.165 L28.3562 907.165 L28.3562 901.277 L33.8944 901.277 Q30.6797 899.176 29.0883 896.343 Q27.4968 893.479 27.4968 889.755 Q27.4968 883.612 31.3163 880.461 Q35.1038 877.31 42.4881 877.31 Z" fill="#000000" fill-rule="nonzero" fill-opacity="1" /><path clip-path="url(#clip360)" d="M16.4842 871.963 L16.4842 831.763 L21.895 831.763 L21.895 848.632 L64.0042 848.632 L64.0042 855.093 L21.895 855.093 L21.895 871.963 L16.4842 871.963 Z" fill="#000000" fill-rule="nonzero" fill-opacity="1" /><path clip-path="url(#clip360)" d="M14.479 805.632 L14.479 792.137 L19.0304 792.137 L19.0304 799.775 L68.0464 799.775 L68.0464 792.137 L72.5979 792.137 L72.5979 805.632 L14.479 805.632 Z" fill="#000000" fill-rule="nonzero" fill-opacity="1" /><path clip-path="url(#clip360)" d="M42.4881 750.027 L64.0042 750.027 L64.0042 755.884 L42.679 755.884 Q37.6183 755.884 35.1038 757.857 Q32.5894 759.831 32.5894 763.777 Q32.5894 768.52 35.6131 771.257 Q38.6368 773.994 43.8567 773.994 L64.0042 773.994 L64.0042 779.883 L28.3562 779.883 L28.3562 773.994 L33.8944 773.994 Q30.6797 771.894 29.0883 769.061 Q27.4968 766.196 27.4968 762.472 Q27.4968 756.33 31.3163 753.179 Q35.1038 750.027 42.4881 750.027 Z" fill="#000000" fill-rule="nonzero" fill-opacity="1" /><path clip-path="url(#clip360)" d="M45.7664 714.889 Q39.4007 714.889 35.8996 717.531 Q32.3984 720.141 32.3984 724.883 Q32.3984 729.594 35.8996 732.235 Q39.4007 734.845 45.7664 734.845 Q52.1003 734.845 55.6014 732.235 Q59.1026 729.594 59.1026 724.883 Q59.1026 720.141 55.6014 717.531 Q52.1003 714.889 45.7664 714.889 M59.58 709.032 Q68.683 709.032 73.1071 713.075 Q77.5631 717.117 77.5631 725.456 Q77.5631 728.543 77.0857 731.28 Q76.6401 734.018 75.6852 736.596 L69.9879 736.596 Q71.3884 734.018 72.0568 731.503 Q72.7252 728.989 72.7252 726.379 Q72.7252 720.618 69.7015 717.753 Q66.7096 714.889 60.6303 714.889 L57.7339 714.889 Q60.885 716.703 62.4446 719.536 Q64.0042 722.369 64.0042 726.315 Q64.0042 732.872 59.0071 736.882 Q54.01 740.893 45.7664 740.893 Q37.491 740.893 32.4939 736.882 Q27.4968 732.872 27.4968 726.315 Q27.4968 722.369 29.0564 719.536 Q30.616 716.703 33.7671 714.889 L28.3562 714.889 L28.3562 709.032 L59.58 709.032 Z" fill="#000000" fill-rule="nonzero" fill-opacity="1" /><path clip-path="url(#clip360)" d="M16.4842 686.561 L16.4842 681.151 L70.0516 697.701 L70.0516 703.112 L16.4842 686.561 Z" fill="#000000" fill-rule="nonzero" fill-opacity="1" /><path clip-path="url(#clip360)" d="M35.1993 647.253 Q31.2526 645.057 29.3747 642.001 Q27.4968 638.946 27.4968 634.808 Q27.4968 629.238 31.4117 626.215 Q35.2948 623.191 42.4881 623.191 L64.0042 623.191 L64.0042 629.079 L42.679 629.079 Q37.5546 629.079 35.072 630.893 Q32.5894 632.708 32.5894 636.431 Q32.5894 640.983 35.6131 643.625 Q38.6368 646.266 43.8567 646.266 L64.0042 646.266 L64.0042 652.155 L42.679 652.155 Q37.5228 652.155 35.072 653.969 Q32.5894 655.783 32.5894 659.571 Q32.5894 664.059 35.6449 666.7 Q38.6686 669.342 43.8567 669.342 L64.0042 669.342 L64.0042 675.23 L28.3562 675.23 L28.3562 669.342 L33.8944 669.342 Q30.616 667.337 29.0564 664.536 Q27.4968 661.735 27.4968 657.884 Q27.4968 654.001 29.4702 651.295 Q31.4436 648.558 35.1993 647.253 Z" fill="#000000" fill-rule="nonzero" fill-opacity="1" /><path clip-path="url(#clip360)" d="M16.4842 611.255 L16.4842 604.826 L58.5933 604.826 L58.5933 581.686 L64.0042 581.686 L64.0042 611.255 L16.4842 611.255 Z" fill="#000000" fill-rule="nonzero" fill-opacity="1" /><path clip-path="url(#clip360)" d="M14.479 561.507 L72.5979 561.507 L72.5979 575.002 L68.0464 575.002 L68.0464 567.395 L19.0304 567.395 L19.0304 575.002 L14.479 575.002 L14.479 561.507 Z" fill="#000000" fill-rule="nonzero" fill-opacity="1" /><path clip-path="url(#clip360)" d="M1012.71 18.8205 L1012.71 41.5461 L1023 41.5461 Q1028.71 41.5461 1031.83 38.5889 Q1034.95 35.6318 1034.95 30.163 Q1034.95 24.7348 1031.83 21.7777 Q1028.71 18.8205 1023 18.8205 L1012.71 18.8205 M1004.53 12.096 L1023 12.096 Q1033.17 12.096 1038.36 16.714 Q1043.58 21.2916 1043.58 30.163 Q1043.58 39.1155 1038.36 43.6931 Q1033.17 48.2706 1023 48.2706 L1012.71 48.2706 L1012.71 72.576 L1004.53 72.576 L1004.53 12.096 Z" fill="#000000" fill-rule="nonzero" fill-opacity="1" /><path clip-path="url(#clip360)" d="M1071.13 49.7694 Q1062.09 49.7694 1058.61 51.8354 Q1055.13 53.9013 1055.13 58.8839 Q1055.13 62.8538 1057.72 65.2034 Q1060.35 67.5124 1064.85 67.5124 Q1071.05 67.5124 1074.77 63.1374 Q1078.54 58.7219 1078.54 51.4303 L1078.54 49.7694 L1071.13 49.7694 M1085.99 46.6907 L1085.99 72.576 L1078.54 72.576 L1078.54 65.6895 Q1075.99 69.8214 1072.18 71.8063 Q1068.37 73.7508 1062.86 73.7508 Q1055.9 73.7508 1051.76 69.8619 Q1047.67 65.9325 1047.67 59.3701 Q1047.67 51.7138 1052.78 47.825 Q1057.92 43.9361 1068.09 43.9361 L1078.54 43.9361 L1078.54 43.2069 Q1078.54 38.0623 1075.14 35.2672 Q1071.78 32.4315 1065.66 32.4315 Q1061.77 32.4315 1058.08 33.3632 Q1054.4 34.295 1050.99 36.1584 L1050.99 29.2718 Q1055.09 27.692 1058.93 26.9223 Q1062.78 26.1121 1066.43 26.1121 Q1076.27 26.1121 1081.13 31.2163 Q1085.99 36.3204 1085.99 46.6907 Z" fill="#000000" fill-rule="nonzero" fill-opacity="1" /><path clip-path="url(#clip360)" d="M1108.72 14.324 L1108.72 27.2059 L1124.07 27.2059 L1124.07 32.9987 L1108.72 32.9987 L1108.72 57.6282 Q1108.72 63.1779 1110.22 64.7578 Q1111.76 66.3376 1116.42 66.3376 L1124.07 66.3376 L1124.07 72.576 L1116.42 72.576 Q1107.79 72.576 1104.51 69.3758 Q1101.23 66.1351 1101.23 57.6282 L1101.23 32.9987 L1095.76 32.9987 L1095.76 27.2059 L1101.23 27.2059 L1101.23 14.324 L1108.72 14.324 Z" fill="#000000" fill-rule="nonzero" fill-opacity="1" /><path clip-path="url(#clip360)" d="M1133.88 27.2059 L1141.33 27.2059 L1141.33 72.576 L1133.88 72.576 L1133.88 27.2059 M1133.88 9.54393 L1141.33 9.54393 L1141.33 18.9825 L1133.88 18.9825 L1133.88 9.54393 Z" fill="#000000" fill-rule="nonzero" fill-opacity="1" /><path clip-path="url(#clip360)" d="M1195.73 48.0275 L1195.73 51.6733 L1161.46 51.6733 Q1161.95 59.3701 1166.08 63.421 Q1170.25 67.4314 1177.67 67.4314 Q1181.96 67.4314 1185.97 66.3781 Q1190.02 65.3249 1193.99 63.2184 L1193.99 70.267 Q1189.98 71.9684 1185.77 72.8596 Q1181.55 73.7508 1177.22 73.7508 Q1166.36 73.7508 1160 67.4314 Q1153.68 61.1119 1153.68 50.3365 Q1153.68 39.1965 1159.68 32.6746 Q1165.72 26.1121 1175.92 26.1121 Q1185.08 26.1121 1190.39 32.0264 Q1195.73 37.9003 1195.73 48.0275 M1188.28 45.84 Q1188.2 39.7232 1184.84 36.0774 Q1181.51 32.4315 1176 32.4315 Q1169.77 32.4315 1166 35.9558 Q1162.27 39.4801 1161.71 45.8805 L1188.28 45.84 Z" fill="#000000" fill-rule="nonzero" fill-opacity="1" /><path clip-path="url(#clip360)" d="M1245.68 45.1919 L1245.68 72.576 L1238.23 72.576 L1238.23 45.4349 Q1238.23 38.994 1235.72 35.7938 Q1233.2 32.5936 1228.18 32.5936 Q1222.14 32.5936 1218.66 36.4419 Q1215.18 40.2903 1215.18 46.9338 L1215.18 72.576 L1207.68 72.576 L1207.68 27.2059 L1215.18 27.2059 L1215.18 34.2544 Q1217.85 30.163 1221.46 28.1376 Q1225.1 26.1121 1229.84 26.1121 Q1237.66 26.1121 1241.67 30.9732 Q1245.68 35.7938 1245.68 45.1919 Z" fill="#000000" fill-rule="nonzero" fill-opacity="1" /><path clip-path="url(#clip360)" d="M1267.92 14.324 L1267.92 27.2059 L1283.27 27.2059 L1283.27 32.9987 L1267.92 32.9987 L1267.92 57.6282 Q1267.92 63.1779 1269.42 64.7578 Q1270.96 66.3376 1275.62 66.3376 L1283.27 66.3376 L1283.27 72.576 L1275.62 72.576 Q1266.99 72.576 1263.71 69.3758 Q1260.43 66.1351 1260.43 57.6282 L1260.43 32.9987 L1254.96 32.9987 L1254.96 27.2059 L1260.43 27.2059 L1260.43 14.324 L1267.92 14.324 Z" fill="#000000" fill-rule="nonzero" fill-opacity="1" /><path clip-path="url(#clip360)" d="M1357.16 45.1919 L1357.16 72.576 L1349.71 72.576 L1349.71 45.4349 Q1349.71 38.994 1347.2 35.7938 Q1344.68 32.5936 1339.66 32.5936 Q1333.63 32.5936 1330.14 36.4419 Q1326.66 40.2903 1326.66 46.9338 L1326.66 72.576 L1319.16 72.576 L1319.16 27.2059 L1326.66 27.2059 L1326.66 34.2544 Q1329.33 30.163 1332.94 28.1376 Q1336.58 26.1121 1341.32 26.1121 Q1349.14 26.1121 1353.15 30.9732 Q1357.16 35.7938 1357.16 45.1919 Z" fill="#000000" fill-rule="nonzero" fill-opacity="1" /><path clip-path="url(#clip360)" d="M1374.5 65.6895 L1387.87 65.6895 L1387.87 19.5497 L1373.32 22.4663 L1373.32 15.0127 L1387.79 12.096 L1395.97 12.096 L1395.97 65.6895 L1409.34 65.6895 L1409.34 72.576 L1374.5 72.576 L1374.5 65.6895 Z" fill="#000000" fill-rule="nonzero" fill-opacity="1" /><path clip-path="url(#clip360)" d="M1427.28 65.6895 L1440.65 65.6895 L1440.65 19.5497 L1426.11 22.4663 L1426.11 15.0127 L1440.57 12.096 L1448.75 12.096 L1448.75 65.6895 L1462.12 65.6895 L1462.12 72.576 L1427.28 72.576 L1427.28 65.6895 Z" fill="#000000" fill-rule="nonzero" fill-opacity="1" /><path clip-path="url(#clip360)" d="M1501.13 19.2256 L1480.47 51.5113 L1501.13 51.5113 L1501.13 19.2256 M1498.98 12.096 L1509.27 12.096 L1509.27 51.5113 L1517.9 51.5113 L1517.9 58.3168 L1509.27 58.3168 L1509.27 72.576 L1501.13 72.576 L1501.13 58.3168 L1473.83 58.3168 L1473.83 50.4176 L1498.98 12.096 Z" fill="#000000" fill-rule="nonzero" fill-opacity="1" /><path clip-path="url(#clip360)" d="M1531.51 12.096 L1563.64 12.096 L1563.64 18.9825 L1539.01 18.9825 L1539.01 33.8088 Q1540.79 33.2012 1542.57 32.9176 Q1544.35 32.5936 1546.14 32.5936 Q1556.26 32.5936 1562.18 38.1433 Q1568.09 43.6931 1568.09 53.1722 Q1568.09 62.9348 1562.02 68.3631 Q1555.94 73.7508 1544.88 73.7508 Q1541.07 73.7508 1537.1 73.1026 Q1533.17 72.4545 1528.96 71.1582 L1528.96 62.9348 Q1532.61 64.9198 1536.49 65.892 Q1540.38 66.8642 1544.72 66.8642 Q1551.73 66.8642 1555.82 63.1779 Q1559.91 59.4916 1559.91 53.1722 Q1559.91 46.8528 1555.82 43.1664 Q1551.73 39.4801 1544.72 39.4801 Q1541.44 39.4801 1538.16 40.2093 Q1534.92 40.9384 1531.51 42.4778 L1531.51 12.096 Z" fill="#000000" fill-rule="nonzero" fill-opacity="1" /><polyline clip-path="url(#clip361)" style="stroke:#009af9; stroke-linecap:round; stroke-linejoin:round; stroke-width:8; stroke-opacity:1; fill:none" points="219.866,1386.4 222.001,1381.55 224.136,1376.77 226.271,1372.05 228.406,1367.38 230.541,1362.77 232.676,1358.21 234.811,1353.71 236.946,1349.27 239.081,1344.88 241.217,1340.54 243.352,1336.25 245.487,1332.02 247.622,1327.84 249.757,1323.7 251.892,1319.62 254.027,1315.59 256.162,1311.61 258.297,1307.67 260.432,1303.79 262.567,1299.95 264.702,1296.15 266.837,1292.41 268.972,1288.71 271.107,1285.05 273.242,1281.44 275.377,1277.87 277.512,1274.34 279.647,1270.86 281.782,1267.42 283.917,1264.02 286.052,1260.67 288.187,1257.35 290.322,1254.07 292.457,1250.84 294.592,1247.64 296.727,1244.48 298.862,1241.36 300.997,1238.28 303.132,1235.23 305.267,1232.23 307.402,1229.26 309.537,1226.32 311.672,1223.42 313.807,1220.56 315.942,1217.73 318.077,1214.93 320.212,1212.17 322.347,1209.44 324.482,1206.75 326.617,1204.09 328.753,1201.46 330.888,1198.86 333.023,1196.29 335.158,1193.76 337.293,1191.25 339.428,1188.78 341.563,1186.33 343.698,1183.92 345.833,1181.53 347.968,1179.18 350.103,1176.85 352.238,1174.55 354.373,1172.28 356.508,1170.03 358.643,1167.82 360.778,1165.63 362.913,1163.46 365.048,1161.32 367.183,1159.21 369.318,1157.12 371.453,1155.06 373.588,1153.03 375.723,1151.01 377.858,1149.03 379.993,1147.06 382.128,1145.12 384.263,1143.2 386.398,1141.31 388.533,1139.44 390.668,1137.59 392.803,1135.76 394.938,1133.96 397.073,1132.17 399.208,1130.41 401.343,1128.67 403.478,1126.95 405.613,1125.25 407.748,1123.57 409.883,1121.91 412.018,1120.27 414.154,1118.65 416.289,1117.05 418.424,1115.47 420.559,1113.9 422.694,1112.36 424.829,1110.83 426.964,1109.32 429.099,1107.83 431.234,1106.36 433.369,1104.9 435.504,1103.46 437.639,1102.04 439.774,1100.63 441.909,1099.24 444.044,1097.87 446.179,1096.51 448.314,1095.17 450.449,1093.84 452.584,1092.53 454.719,1091.23 456.854,1089.95 458.989,1088.68 461.124,1087.43 463.259,1086.19 465.394,1084.96 467.529,1083.75 469.664,1082.55 471.799,1081.37 473.934,1080.2 476.069,1079.04 478.204,1077.9 480.339,1076.76 482.474,1075.64 484.609,1074.53 486.744,1073.44 488.879,1072.35 491.014,1071.28 493.149,1070.22 495.284,1069.17 497.419,1068.13 499.554,1067.11 501.69,1066.09 503.825,1065.08 505.96,1064.09 508.095,1063.1 510.23,1062.12 512.365,1061.16 514.5,1060.2 516.635,1059.26 518.77,1058.32 520.905,1057.39 523.04,1056.47 525.175,1055.56 527.31,1054.66 529.445,1053.77 531.58,1052.89 533.715,1052.01 535.85,1051.14 537.985,1050.28 540.12,1049.43 542.255,1048.59 544.39,1047.75 546.525,1046.92 548.66,1046.1 550.795,1045.29 552.93,1044.48 555.065,1043.68 557.2,1042.89 559.335,1042.1 561.47,1041.32 563.605,1040.54 565.74,1039.77 567.875,1039.01 570.01,1038.26 572.145,1037.5 574.28,1036.76 576.415,1036.02 578.55,1035.28 580.685,1034.56 582.82,1033.83 584.955,1033.11 587.091,1032.4 589.226,1031.69 591.361,1030.98 593.496,1030.28 595.631,1029.58 597.766,1028.89 599.901,1028.2 602.036,1027.51 604.171,1026.83 606.306,1026.16 608.441,1025.48 610.576,1024.81 612.711,1024.14 614.846,1023.48 616.981,1022.82 619.116,1022.16 621.251,1021.5 623.386,1020.85 625.521,1020.2 627.656,1019.55 629.791,1018.9 631.926,1018.26 634.061,1017.62 636.196,1016.98 638.331,1016.34 640.466,1015.71 642.601,1015.07 644.736,1014.44 646.871,1013.81 649.006,1013.18 651.141,1012.55 653.276,1011.92 655.411,1011.3 657.546,1010.67 659.681,1010.05 661.816,1009.42 663.951,1008.8 666.086,1008.18 668.221,1007.55 670.356,1006.93 672.491,1006.31 674.627,1005.69 676.762,1005.06 678.897,1004.44 681.032,1003.82 683.167,1003.19 685.302,1002.57 687.437,1001.95 689.572,1001.32 691.707,1000.7 693.842,1000.07 695.977,999.443 698.112,998.814 700.247,998.184 702.382,997.554 704.517,996.921 706.652,996.287 708.787,995.652 710.922,995.015 713.057,994.376 715.192,993.736 717.327,993.093 719.462,992.448 721.597,991.802 723.732,991.153 725.867,990.501 728.002,989.847 730.137,989.191 732.272,988.532 734.407,987.871 736.542,987.206 738.677,986.539 740.812,985.869 742.947,985.196 745.082,984.52 747.217,983.841 749.352,983.158 751.487,982.472 753.622,981.783 755.757,981.09 757.892,980.394 760.028,979.694 762.163,978.99 764.298,978.282 766.433,977.571 768.568,976.855 770.703,976.135 772.838,975.412 774.973,974.684 777.108,973.952 779.243,973.215 781.378,972.474 783.513,971.728 785.648,970.978 787.783,970.223 789.918,969.464 792.053,968.699 794.188,967.93 796.323,967.156 798.458,966.377 800.593,965.592 802.728,964.803 804.863,964.008 806.998,963.208 809.133,962.402 811.268,961.591 813.403,960.775 815.538,959.952 817.673,959.125 819.808,958.291 821.943,957.452 824.078,956.607 826.213,955.755 828.348,954.898 830.483,954.035 832.618,953.166 834.753,952.29 836.888,951.408 839.023,950.52 841.158,949.625 843.293,948.724 845.428,947.817 847.564,946.902 849.699,945.982 851.834,945.054 853.969,944.12 856.104,943.179 858.239,942.23 860.374,941.275 862.509,940.313 864.644,939.344 866.779,938.368 868.914,937.385 871.049,936.394 873.184,935.397 875.319,934.392 877.454,933.38 879.589,932.36 881.724,931.333 883.859,930.299 885.994,929.257 888.129,928.208 890.264,927.151 892.399,926.086 894.534,925.014 896.669,923.935 898.804,922.848 900.939,921.753 903.074,920.65 905.209,919.539 907.344,918.421 909.479,917.295 911.614,916.161 913.749,915.02 915.884,913.87 918.019,912.712 920.154,911.547 922.289,910.373 924.424,909.192 926.559,908.002 928.694,906.805 930.829,905.599 932.965,904.386 935.1,903.164 937.235,901.934 939.37,900.696 941.505,899.449 943.64,898.195 945.775,896.932 947.91,895.662 950.045,894.382 952.18,893.095 954.315,891.8 956.45,890.496 958.585,889.184 960.72,887.863 962.855,886.534 964.99,885.197 967.125,883.852 969.26,882.498 971.395,881.136 973.53,879.765 975.665,878.387 977.8,876.999 979.935,875.604 982.07,874.2 984.205,872.787 986.34,871.367 988.475,869.937 990.61,868.5 992.745,867.054 994.88,865.6 997.015,864.137 999.15,862.666 1001.29,861.186 1003.42,859.698 1005.56,858.202 1007.69,856.697 1009.83,855.184 1011.96,853.663 1014.1,852.133 1016.23,850.595 1018.37,849.048 1020.5,847.493 1022.64,845.93 1024.77,844.359 1026.91,842.779 1029.04,841.191 1031.18,839.596 1033.31,837.992 1035.45,836.38 1037.58,834.76 1039.72,833.132 1041.85,831.496 1043.99,829.853 1046.12,828.201 1048.26,826.542 1050.39,824.875 1052.53,823.201 1054.66,821.519 1056.8,819.829 1058.93,818.132 1061.07,816.427 1063.2,814.715 1065.34,812.995 1067.47,811.269 1069.61,809.535 1071.74,807.793 1073.88,806.045 1076.01,804.289 1078.15,802.527 1080.28,800.757 1082.42,798.981 1084.55,797.197 1086.69,795.407 1088.82,793.61 1090.96,791.806 1093.09,789.995 1095.23,788.178 1097.36,786.355 1099.5,784.525 1101.63,782.688 1103.77,780.845 1105.9,778.996 1108.04,777.14 1110.17,775.279 1112.31,773.411 1114.44,771.537 1116.58,769.657 1118.71,767.771 1120.85,765.879 1122.98,763.982 1125.12,762.079 1127.25,760.17 1129.39,758.255 1131.52,756.335 1133.66,754.409 1135.79,752.478 1137.93,750.542 1140.06,748.6 1142.2,746.653 1144.33,744.701 1146.47,742.744 1148.6,740.782 1150.74,738.815 1152.87,736.844 1155.01,734.867 1157.14,732.886 1159.28,730.9 1161.41,728.909 1163.55,726.914 1165.68,724.915 1167.82,722.911 1169.95,720.903 1172.09,718.891 1174.22,716.875 1176.36,714.855 1178.49,712.831 1180.63,710.803 1182.76,708.772 1184.9,706.737 1187.03,704.7 1189.17,702.659 1191.3,700.616 1193.44,698.569 1195.57,696.519 1197.71,694.467 1199.84,692.412 1201.98,690.355 1204.11,688.294 1206.25,686.232 1208.38,684.167 1210.52,682.099 1212.65,680.03 1214.79,677.958 1216.92,675.885 1219.06,673.809 1221.19,671.731 1223.33,669.652 1225.46,667.571 1227.6,665.489 1229.73,663.404 1231.87,661.319 1234,659.232 1236.14,657.144 1238.27,655.055 1240.41,652.964 1242.54,650.873 1244.68,648.781 1246.81,646.688 1248.95,644.594 1251.08,642.5 1253.22,640.405 1255.35,638.309 1257.49,636.214 1259.62,634.118 1261.76,632.022 1263.89,629.926 1266.03,627.83 1268.16,625.734 1270.3,623.639 1272.43,621.543 1274.57,619.449 1276.7,617.354 1278.84,615.261 1280.97,613.168 1283.11,611.076 1285.24,608.985 1287.38,606.895 1289.51,604.806 1291.65,602.719 1293.78,600.632 1295.92,598.548 1298.05,596.465 1300.19,594.383 1302.32,592.303 1304.46,590.225 1306.59,588.149 1308.73,586.076 1310.86,584.004 1313,581.935 1315.13,579.868 1317.27,577.803 1319.4,575.742 1321.54,573.683 1323.67,571.627 1325.81,569.573 1327.94,567.523 1330.08,565.476 1332.21,563.433 1334.35,561.392 1336.48,559.356 1338.62,557.322 1340.75,555.293 1342.89,553.268 1345.02,551.246 1347.16,549.229 1349.29,547.215 1351.43,545.206 1353.56,543.202 1355.7,541.205 1357.83,539.214 1359.97,537.229 1362.1,535.25 1364.24,533.278 1366.37,531.311 1368.51,529.35 1370.64,527.395 1372.78,525.446 1374.91,523.502 1377.05,521.564 1379.18,519.631 1381.32,517.703 1383.45,515.781 1385.59,513.864 1387.72,511.952 1389.86,510.046 1391.99,508.144 1394.13,506.247 1396.26,504.355 1398.4,502.468 1400.53,500.586 1402.67,498.709 1404.8,496.837 1406.94,494.969 1409.08,493.106 1411.21,491.248 1413.35,489.395 1415.48,487.547 1417.62,485.703 1419.75,483.864 1421.89,482.03 1424.02,480.2 1426.16,478.376 1428.29,476.556 1430.43,474.741 1432.56,472.931 1434.7,471.126 1436.83,469.326 1438.97,467.531 1441.1,465.741 1443.24,463.956 1445.37,462.176 1447.51,460.402 1449.64,458.633 1451.78,456.869 1453.91,455.111 1456.05,453.358 1458.18,451.611 1460.32,449.87 1462.45,448.134 1464.59,446.405 1466.72,444.681 1468.86,442.964 1470.99,441.252 1473.13,439.548 1475.26,437.849 1477.4,436.158 1479.53,434.473 1481.67,432.795 1483.8,431.124 1485.94,429.46 1488.07,427.804 1490.21,426.155 1492.34,424.514 1494.48,422.88 1496.61,421.255 1498.75,419.637 1500.88,418.028 1503.02,416.428 1505.15,414.836 1507.29,413.253 1509.42,411.679 1511.56,410.114 1513.69,408.559 1515.83,407.013 1517.96,405.478 1520.1,403.952 1522.23,402.437 1524.37,400.933 1526.5,399.439 1528.64,397.956 1530.77,396.485 1532.91,395.025 1535.04,393.575 1537.18,392.133 1539.31,390.7 1541.45,389.275 1543.58,387.858 1545.72,386.449 1547.85,385.049 1549.99,383.656 1552.12,382.271 1554.26,380.893 1556.39,379.523 1558.53,378.161 1560.66,376.806 1562.8,375.458 1564.93,374.118 1567.07,372.785 1569.2,371.46 1571.34,370.141 1573.47,368.83 1575.61,367.525 1577.74,366.228 1579.88,364.937 1582.01,363.654 1584.15,362.377 1586.28,361.107 1588.42,359.844 1590.55,358.588 1592.69,357.339 1594.82,356.096 1596.96,354.86 1599.09,353.631 1601.23,352.409 1603.36,351.193 1605.5,349.984 1607.63,348.782 1609.77,347.587 1611.9,346.398 1614.04,345.216 1616.17,344.041 1618.31,342.873 1620.44,341.712 1622.58,340.558 1624.71,339.41 1626.85,338.27 1628.98,337.136 1631.12,336.01 1633.25,334.891 1635.39,333.779 1637.52,332.674 1639.66,331.576 1641.79,330.486 1643.93,329.403 1646.06,328.327 1648.2,327.26 1650.33,326.199 1652.47,325.147 1654.6,324.102 1656.74,323.065 1658.87,322.037 1661.01,321.016 1663.14,320.003 1665.28,318.999 1667.41,318.003 1669.55,317.016 1671.68,316.037 1673.82,315.066 1675.95,314.102 1678.09,313.146 1680.22,312.198 1682.36,311.257 1684.49,310.323 1686.63,309.397 1688.76,308.477 1690.9,307.564 1693.03,306.657 1695.17,305.757 1697.3,304.864 1699.44,303.977 1701.57,303.096 1703.71,302.221 1705.84,301.352 1707.98,300.489 1710.11,299.632 1712.25,298.781 1714.38,297.935 1716.52,297.095 1718.65,296.261 1720.79,295.432 1722.92,294.608 1725.06,293.79 1727.19,292.976 1729.33,292.169 1731.46,291.366 1733.6,290.568 1735.73,289.776 1737.87,288.989 1740,288.206 1742.14,287.429 1744.27,286.657 1746.41,285.89 1748.54,285.128 1750.68,284.37 1752.81,283.618 1754.95,282.871 1757.08,282.129 1759.22,281.392 1761.35,280.66 1763.49,279.933 1765.62,279.211 1767.76,278.494 1769.89,277.782 1772.03,277.076 1774.16,276.375 1776.3,275.679 1778.43,274.989 1780.57,274.304 1782.7,273.624 1784.84,272.95 1786.97,272.282 1789.11,271.619 1791.24,270.963 1793.38,270.312 1795.51,269.667 1797.65,269.028 1799.78,268.396 1801.92,267.769 1804.05,267.149 1806.19,266.536 1808.32,265.929 1810.46,265.329 1812.59,264.736 1814.73,264.149 1816.86,263.568 1819,262.993 1821.13,262.422 1823.27,261.857 1825.4,261.297 1827.54,260.742 1829.67,260.192 1831.81,259.646 1833.94,259.105 1836.08,258.568 1838.21,258.035 1840.35,257.507 1842.49,256.983 1844.62,256.464 1846.76,255.948 1848.89,255.436 1851.03,254.928 1853.16,254.424 1855.3,253.924 1857.43,253.427 1859.57,252.934 1861.7,252.445 1863.84,251.959 1865.97,251.476 1868.11,250.997 1870.24,250.522 1872.38,250.05 1874.51,249.581 1876.65,249.115 1878.78,248.653 1880.92,248.194 1883.05,247.738 1885.19,247.286 1887.32,246.836 1889.46,246.39 1891.59,245.948 1893.73,245.508 1895.86,245.072 1898,244.639 1900.13,244.209 1902.27,243.783 1904.4,243.36 1906.54,242.94 1908.67,242.524 1910.81,242.111 1912.94,241.702 1915.08,241.296 1917.21,240.893 1919.35,240.495 1921.48,240.1 1923.62,239.708 1925.75,239.321 1927.89,238.937 1930.02,238.558 1932.16,238.182 1934.29,237.81 1936.43,237.443 1938.56,237.079 1940.7,236.721 1942.83,236.366 1944.97,236.016 1947.1,235.671 1949.24,235.33 1951.37,234.993 1953.51,234.66 1955.64,234.331 1957.78,234.006 1959.91,233.683 1962.05,233.364 1964.18,233.049 1966.32,232.736 1968.45,232.426 1970.59,232.12 1972.72,231.816 1974.86,231.514 1976.99,231.215 1979.13,230.919 1981.26,230.625 1983.4,230.334 1985.53,230.044 1987.67,229.757 1989.8,229.472 1991.94,229.189 1994.07,228.908 1996.21,228.629 1998.34,228.352 2000.48,228.077 2002.61,227.803 2004.75,227.532 2006.88,227.262 2009.02,226.994 2011.15,226.727 2013.29,226.463 2015.42,226.2 2017.56,225.938 2019.69,225.679 2021.83,225.421 2023.96,225.165 2026.1,224.911 2028.23,224.658 2030.37,224.407 2032.5,224.159 2034.64,223.912 2036.77,223.667 2038.91,223.423 2041.04,223.182 2043.18,222.943 2045.31,222.706 2047.45,222.472 2049.58,222.239 2051.72,222.009 2053.85,221.781 2055.99,221.556 2058.12,221.333 2060.26,221.113 2062.39,220.896 2064.53,220.682 2066.66,220.47 2068.8,220.262 2070.93,220.057 2073.07,219.855 2075.2,219.657 2077.34,219.462 2079.47,219.271 2081.61,219.084 2083.74,218.901 2085.88,218.721 2088.01,218.545 2090.15,218.371 2092.28,218.201 2094.42,218.032 2096.55,217.867 2098.69,217.703 2100.82,217.541 2102.96,217.381 2105.09,217.223 2107.23,217.066 2109.36,216.91 2111.5,216.756 2113.63,216.603 2115.77,216.45 2117.9,216.299 2120.04,216.148 2122.17,215.997 2124.31,215.848 2126.44,215.698 2128.58,215.549 2130.71,215.401 2132.85,215.253 2134.98,215.104 2137.12,214.957 2139.25,214.809 2141.39,214.662 2143.52,214.514 2145.66,214.367 2147.79,214.221 2149.93,214.074 2152.06,213.928 2154.2,213.782 2156.33,213.637 2158.47,213.492 2160.6,213.348 2162.74,213.204 2164.87,213.061 2167.01,212.919 2169.14,212.778 2171.28,212.638 2173.41,212.5 2175.55,212.363 2177.68,212.227 2179.82,212.093 2181.95,211.961 2184.09,211.831 2186.22,211.703 2188.36,211.578 2190.49,211.455 2192.63,211.336 2194.76,211.219 2196.9,211.106 2199.03,210.997 2201.17,210.891 2203.3,210.79 2205.44,210.693 2207.57,210.601 2209.71,210.513 2211.84,210.429 2213.98,210.349 2216.11,210.271 2218.25,210.196 2220.38,210.123 2222.52,210.052 2224.65,209.982 2226.79,209.914 2228.92,209.846 2231.06,209.778 2233.19,209.711 2235.33,209.643 2237.46,209.575 2239.6,209.507 2241.73,209.437 2243.87,209.367 2246,209.296 2248.14,209.223 2250.27,209.15 2252.41,209.075 2254.54,208.998 2256.68,208.92 2258.81,208.841 2260.95,208.76 2263.08,208.677 2265.22,208.593 2267.35,208.508 2269.49,208.422 2271.62,208.335 2273.76,208.246 2275.9,208.157 2278.03,208.068 2280.17,207.977 2282.3,207.887 2284.44,207.797 2286.57,207.707 2288.71,207.618 2290.84,207.529 2292.98,207.442 2295.11,207.357 2297.25,207.274 2299.38,207.193 2301.52,207.115 2303.65,207.04 2305.79,206.969 2307.92,206.902 2310.06,206.84 2312.19,206.783 2314.33,206.733 2316.46,206.688 2318.6,206.651 2320.73,206.616 2322.87,206.581 2325,206.545 2327.14,206.509 2329.27,206.473 2331.41,206.437 2333.54,206.4 2335.68,206.364 2337.81,206.327 2339.95,206.291 2342.08,206.255 2344.22,206.219 2346.35,206.183 2348.49,206.147 2350.62,206.111 2352.76,206.076 "/>
<circle clip-path="url(#clip361)" cx="330.861" cy="1175.45" r="18" fill="#e26f46" fill-rule="evenodd" fill-opacity="1" stroke="#000000" stroke-opacity="1" stroke-width="3.2"/>
<circle clip-path="url(#clip361)" cx="465.845" cy="1122.71" r="18" fill="#e26f46" fill-rule="evenodd" fill-opacity="1" stroke="#000000" stroke-opacity="1" stroke-width="3.2"/>
<circle clip-path="url(#clip361)" cx="582.927" cy="1069.97" r="18" fill="#e26f46" fill-rule="evenodd" fill-opacity="1" stroke="#000000" stroke-opacity="1" stroke-width="3.2"/>
<circle clip-path="url(#clip361)" cx="774.124" cy="964.498" r="18" fill="#e26f46" fill-rule="evenodd" fill-opacity="1" stroke="#000000" stroke-opacity="1" stroke-width="3.2"/>
<circle clip-path="url(#clip361)" cx="921.998" cy="832.655" r="18" fill="#e26f46" fill-rule="evenodd" fill-opacity="1" stroke="#000000" stroke-opacity="1" stroke-width="3.2"/>
<circle clip-path="url(#clip361)" cx="1081.69" cy="779.918" r="18" fill="#e26f46" fill-rule="evenodd" fill-opacity="1" stroke="#000000" stroke-opacity="1" stroke-width="3.2"/>
<circle clip-path="url(#clip361)" cx="1317.64" cy="648.075" r="18" fill="#e26f46" fill-rule="evenodd" fill-opacity="1" stroke="#000000" stroke-opacity="1" stroke-width="3.2"/>
<circle clip-path="url(#clip361)" cx="1510.99" cy="450.311" r="18" fill="#e26f46" fill-rule="evenodd" fill-opacity="1" stroke="#000000" stroke-opacity="1" stroke-width="3.2"/>
<circle clip-path="url(#clip361)" cx="1591.19" cy="371.205" r="18" fill="#e26f46" fill-rule="evenodd" fill-opacity="1" stroke="#000000" stroke-opacity="1" stroke-width="3.2"/>
<circle clip-path="url(#clip361)" cx="1756.61" cy="265.731" r="18" fill="#e26f46" fill-rule="evenodd" fill-opacity="1" stroke="#000000" stroke-opacity="1" stroke-width="3.2"/>
<circle clip-path="url(#clip361)" cx="1940.64" cy="278.915" r="18" fill="#e26f46" fill-rule="evenodd" fill-opacity="1" stroke="#000000" stroke-opacity="1" stroke-width="3.2"/>
<circle clip-path="url(#clip361)" cx="2091.74" cy="160.256" r="18" fill="#e26f46" fill-rule="evenodd" fill-opacity="1" stroke="#000000" stroke-opacity="1" stroke-width="3.2"/>
<circle clip-path="url(#clip361)" cx="2137.93" cy="173.441" r="18" fill="#e26f46" fill-rule="evenodd" fill-opacity="1" stroke="#000000" stroke-opacity="1" stroke-width="3.2"/>
<path clip-path="url(#clip360)" d="M290.963 322.316 L853.625 322.316 L853.625 166.796 L290.963 166.796  Z" fill="#ffffff" fill-rule="evenodd" fill-opacity="1"/>
<polyline clip-path="url(#clip360)" style="stroke:#000000; stroke-linecap:round; stroke-linejoin:round; stroke-width:4; stroke-opacity:1; fill:none" points="290.963,322.316 853.625,322.316 853.625,166.796 290.963,166.796 290.963,322.316 "/>
<polyline clip-path="url(#clip360)" style="stroke:#009af9; stroke-linecap:round; stroke-linejoin:round; stroke-width:8; stroke-opacity:1; fill:none" points="314.661,218.636 456.854,218.636 "/>
<path clip-path="url(#clip360)" d="M485.229 219.411 L485.229 232.073 L492.729 232.073 Q496.502 232.073 498.307 230.522 Q500.136 228.948 500.136 225.731 Q500.136 222.49 498.307 220.962 Q496.502 219.411 492.729 219.411 L485.229 219.411 M485.229 205.198 L485.229 215.615 L492.15 215.615 Q495.576 215.615 497.243 214.342 Q498.932 213.045 498.932 210.407 Q498.932 207.791 497.243 206.495 Q495.576 205.198 492.15 205.198 L485.229 205.198 M480.553 201.356 L492.497 201.356 Q497.844 201.356 500.738 203.578 Q503.631 205.8 503.631 209.897 Q503.631 213.069 502.15 214.944 Q500.668 216.819 497.798 217.282 Q501.247 218.022 503.145 220.383 Q505.067 222.721 505.067 226.24 Q505.067 230.869 501.918 233.393 Q498.77 235.916 492.96 235.916 L480.553 235.916 L480.553 201.356 Z" fill="#000000" fill-rule="nonzero" fill-opacity="1" /><path clip-path="url(#clip360)" d="M512.891 199.897 L517.15 199.897 L517.15 235.916 L512.891 235.916 L512.891 199.897 Z" fill="#000000" fill-rule="nonzero" fill-opacity="1" /><path clip-path="url(#clip360)" d="M536.108 212.976 Q532.682 212.976 530.691 215.661 Q528.701 218.323 528.701 222.976 Q528.701 227.629 530.668 230.314 Q532.659 232.976 536.108 232.976 Q539.511 232.976 541.502 230.291 Q543.492 227.606 543.492 222.976 Q543.492 218.37 541.502 215.684 Q539.511 212.976 536.108 212.976 M536.108 209.365 Q541.664 209.365 544.835 212.976 Q548.006 216.587 548.006 222.976 Q548.006 229.342 544.835 232.976 Q541.664 236.587 536.108 236.587 Q530.529 236.587 527.358 232.976 Q524.21 229.342 524.21 222.976 Q524.21 216.587 527.358 212.976 Q530.529 209.365 536.108 209.365 Z" fill="#000000" fill-rule="nonzero" fill-opacity="1" /><path clip-path="url(#clip360)" d="M565.113 212.976 Q561.687 212.976 559.696 215.661 Q557.705 218.323 557.705 222.976 Q557.705 227.629 559.673 230.314 Q561.663 232.976 565.113 232.976 Q568.515 232.976 570.506 230.291 Q572.497 227.606 572.497 222.976 Q572.497 218.37 570.506 215.684 Q568.515 212.976 565.113 212.976 M565.113 209.365 Q570.668 209.365 573.839 212.976 Q577.011 216.587 577.011 222.976 Q577.011 229.342 573.839 232.976 Q570.668 236.587 565.113 236.587 Q559.534 236.587 556.363 232.976 Q553.214 229.342 553.214 222.976 Q553.214 216.587 556.363 212.976 Q559.534 209.365 565.113 209.365 Z" fill="#000000" fill-rule="nonzero" fill-opacity="1" /><path clip-path="url(#clip360)" d="M601.131 213.925 L601.131 199.897 L605.39 199.897 L605.39 235.916 L601.131 235.916 L601.131 232.027 Q599.788 234.342 597.728 235.476 Q595.691 236.587 592.821 236.587 Q588.122 236.587 585.159 232.837 Q582.219 229.087 582.219 222.976 Q582.219 216.865 585.159 213.115 Q588.122 209.365 592.821 209.365 Q595.691 209.365 597.728 210.499 Q599.788 211.61 601.131 213.925 M586.617 222.976 Q586.617 227.675 588.538 230.36 Q590.483 233.022 593.862 233.022 Q597.242 233.022 599.186 230.36 Q601.131 227.675 601.131 222.976 Q601.131 218.277 599.186 215.615 Q597.242 212.93 593.862 212.93 Q590.483 212.93 588.538 215.615 Q586.617 218.277 586.617 222.976 Z" fill="#000000" fill-rule="nonzero" fill-opacity="1" /><circle clip-path="url(#clip360)" cx="385.758" cy="270.476" r="20.9455" fill="#e26f46" fill-rule="evenodd" fill-opacity="1" stroke="#000000" stroke-opacity="1" stroke-width="3.72364"/>
<path clip-path="url(#clip360)" d="M496.571 256.367 Q491.479 256.367 488.469 260.163 Q485.483 263.96 485.483 270.51 Q485.483 277.038 488.469 280.834 Q491.479 284.631 496.571 284.631 Q501.664 284.631 504.627 280.834 Q507.613 277.038 507.613 270.51 Q507.613 263.96 504.627 260.163 Q501.664 256.367 496.571 256.367 M496.571 252.571 Q503.84 252.571 508.192 257.455 Q512.543 262.316 512.543 270.51 Q512.543 278.682 508.192 283.566 Q503.84 288.427 496.571 288.427 Q489.28 288.427 484.905 283.566 Q480.553 278.705 480.553 270.51 Q480.553 262.316 484.905 257.455 Q489.28 252.571 496.571 252.571 Z" fill="#000000" fill-rule="nonzero" fill-opacity="1" /><path clip-path="url(#clip360)" d="M538.284 274.816 Q538.284 270.117 536.34 267.455 Q534.418 264.77 531.039 264.77 Q527.659 264.77 525.715 267.455 Q523.793 270.117 523.793 274.816 Q523.793 279.515 525.715 282.2 Q527.659 284.862 531.039 284.862 Q534.418 284.862 536.34 282.2 Q538.284 279.515 538.284 274.816 M523.793 265.765 Q525.136 263.45 527.173 262.339 Q529.233 261.205 532.08 261.205 Q536.802 261.205 539.742 264.955 Q542.705 268.705 542.705 274.816 Q542.705 280.927 539.742 284.677 Q536.802 288.427 532.08 288.427 Q529.233 288.427 527.173 287.316 Q525.136 286.182 523.793 283.867 L523.793 287.756 L519.511 287.756 L519.511 251.737 L523.793 251.737 L523.793 265.765 Z" fill="#000000" fill-rule="nonzero" fill-opacity="1" /><path clip-path="url(#clip360)" d="M566.293 262.594 L566.293 266.622 Q564.488 265.696 562.543 265.233 Q560.599 264.77 558.515 264.77 Q555.344 264.77 553.747 265.742 Q552.173 266.714 552.173 268.659 Q552.173 270.14 553.307 270.997 Q554.441 271.83 557.867 272.594 L559.326 272.918 Q563.863 273.89 565.761 275.672 Q567.682 277.432 567.682 280.603 Q567.682 284.214 564.812 286.321 Q561.964 288.427 556.964 288.427 Q554.881 288.427 552.613 288.01 Q550.367 287.617 547.867 286.807 L547.867 282.409 Q550.228 283.635 552.52 284.26 Q554.812 284.862 557.057 284.862 Q560.066 284.862 561.687 283.844 Q563.307 282.802 563.307 280.927 Q563.307 279.191 562.126 278.265 Q560.969 277.339 557.011 276.483 L555.529 276.135 Q551.571 275.302 549.812 273.589 Q548.052 271.853 548.052 268.844 Q548.052 265.186 550.645 263.196 Q553.238 261.205 558.006 261.205 Q560.367 261.205 562.45 261.552 Q564.534 261.899 566.293 262.594 Z" fill="#000000" fill-rule="nonzero" fill-opacity="1" /><path clip-path="url(#clip360)" d="M596.64 273.728 L596.64 275.811 L577.057 275.811 Q577.335 280.209 579.696 282.524 Q582.08 284.816 586.316 284.816 Q588.77 284.816 591.061 284.214 Q593.376 283.612 595.645 282.409 L595.645 286.436 Q593.353 287.408 590.946 287.918 Q588.538 288.427 586.061 288.427 Q579.858 288.427 576.224 284.816 Q572.612 281.205 572.612 275.047 Q572.612 268.682 576.038 264.955 Q579.487 261.205 585.321 261.205 Q590.552 261.205 593.585 264.585 Q596.64 267.941 596.64 273.728 M592.381 272.478 Q592.335 268.983 590.413 266.899 Q588.515 264.816 585.367 264.816 Q581.802 264.816 579.649 266.83 Q577.52 268.844 577.196 272.501 L592.381 272.478 Z" fill="#000000" fill-rule="nonzero" fill-opacity="1" /><path clip-path="url(#clip360)" d="M618.654 265.811 Q617.936 265.395 617.08 265.21 Q616.246 265.001 615.228 265.001 Q611.617 265.001 609.672 267.362 Q607.751 269.7 607.751 274.098 L607.751 287.756 L603.469 287.756 L603.469 261.83 L607.751 261.83 L607.751 265.858 Q609.094 263.497 611.247 262.362 Q613.399 261.205 616.478 261.205 Q616.918 261.205 617.45 261.274 Q617.983 261.321 618.631 261.436 L618.654 265.811 Z" fill="#000000" fill-rule="nonzero" fill-opacity="1" /><path clip-path="url(#clip360)" d="M620.066 261.83 L624.58 261.83 L632.682 283.589 L640.783 261.83 L645.297 261.83 L635.575 287.756 L629.788 287.756 L620.066 261.83 Z" fill="#000000" fill-rule="nonzero" fill-opacity="1" /><path clip-path="url(#clip360)" d="M673.353 273.728 L673.353 275.811 L653.769 275.811 Q654.047 280.209 656.408 282.524 Q658.793 284.816 663.029 284.816 Q665.482 284.816 667.774 284.214 Q670.089 283.612 672.357 282.409 L672.357 286.436 Q670.066 287.408 667.658 287.918 Q665.251 288.427 662.774 288.427 Q656.57 288.427 652.936 284.816 Q649.325 281.205 649.325 275.047 Q649.325 268.682 652.751 264.955 Q656.2 261.205 662.033 261.205 Q667.265 261.205 670.297 264.585 Q673.353 267.941 673.353 273.728 M669.093 272.478 Q669.047 268.983 667.126 266.899 Q665.228 264.816 662.08 264.816 Q658.515 264.816 656.362 266.83 Q654.232 268.844 653.908 272.501 L669.093 272.478 Z" fill="#000000" fill-rule="nonzero" fill-opacity="1" /><path clip-path="url(#clip360)" d="M697.403 265.765 L697.403 251.737 L701.663 251.737 L701.663 287.756 L697.403 287.756 L697.403 283.867 Q696.061 286.182 694.001 287.316 Q691.964 288.427 689.093 288.427 Q684.394 288.427 681.431 284.677 Q678.492 280.927 678.492 274.816 Q678.492 268.705 681.431 264.955 Q684.394 261.205 689.093 261.205 Q691.964 261.205 694.001 262.339 Q696.061 263.45 697.403 265.765 M682.89 274.816 Q682.89 279.515 684.811 282.2 Q686.755 284.862 690.135 284.862 Q693.515 284.862 695.459 282.2 Q697.403 279.515 697.403 274.816 Q697.403 270.117 695.459 267.455 Q693.515 264.77 690.135 264.77 Q686.755 264.77 684.811 267.455 Q682.89 270.117 682.89 274.816 Z" fill="#000000" fill-rule="nonzero" fill-opacity="1" /><path clip-path="url(#clip360)" d="M730.366 257.038 L730.366 283.913 L736.014 283.913 Q743.167 283.913 746.477 280.672 Q749.811 277.432 749.811 270.441 Q749.811 263.497 746.477 260.279 Q743.167 257.038 736.014 257.038 L730.366 257.038 M725.69 253.196 L735.297 253.196 Q745.343 253.196 750.042 257.386 Q754.741 261.552 754.741 270.441 Q754.741 279.376 750.019 283.566 Q745.297 287.756 735.297 287.756 L725.69 287.756 L725.69 253.196 Z" fill="#000000" fill-rule="nonzero" fill-opacity="1" /><path clip-path="url(#clip360)" d="M773.792 274.723 Q768.63 274.723 766.639 275.904 Q764.648 277.084 764.648 279.932 Q764.648 282.2 766.13 283.543 Q767.635 284.862 770.204 284.862 Q773.746 284.862 775.875 282.362 Q778.028 279.839 778.028 275.672 L778.028 274.723 L773.792 274.723 M782.287 272.964 L782.287 287.756 L778.028 287.756 L778.028 283.821 Q776.57 286.182 774.394 287.316 Q772.218 288.427 769.07 288.427 Q765.088 288.427 762.727 286.205 Q760.389 283.959 760.389 280.209 Q760.389 275.834 763.306 273.612 Q766.246 271.39 772.056 271.39 L778.028 271.39 L778.028 270.973 Q778.028 268.034 776.084 266.436 Q774.162 264.816 770.667 264.816 Q768.445 264.816 766.338 265.348 Q764.232 265.881 762.287 266.946 L762.287 263.01 Q764.625 262.108 766.824 261.668 Q769.023 261.205 771.107 261.205 Q776.732 261.205 779.51 264.122 Q782.287 267.038 782.287 272.964 Z" fill="#000000" fill-rule="nonzero" fill-opacity="1" /><path clip-path="url(#clip360)" d="M795.273 254.469 L795.273 261.83 L804.046 261.83 L804.046 265.14 L795.273 265.14 L795.273 279.214 Q795.273 282.385 796.13 283.288 Q797.009 284.191 799.671 284.191 L804.046 284.191 L804.046 287.756 L799.671 287.756 Q794.741 287.756 792.866 285.927 Q790.991 284.075 790.991 279.214 L790.991 265.14 L787.866 265.14 L787.866 261.83 L790.991 261.83 L790.991 254.469 L795.273 254.469 Z" fill="#000000" fill-rule="nonzero" fill-opacity="1" /><path clip-path="url(#clip360)" d="M821.431 274.723 Q816.269 274.723 814.278 275.904 Q812.287 277.084 812.287 279.932 Q812.287 282.2 813.769 283.543 Q815.273 284.862 817.843 284.862 Q821.384 284.862 823.514 282.362 Q825.667 279.839 825.667 275.672 L825.667 274.723 L821.431 274.723 M829.926 272.964 L829.926 287.756 L825.667 287.756 L825.667 283.821 Q824.208 286.182 822.032 287.316 Q819.857 288.427 816.708 288.427 Q812.727 288.427 810.366 286.205 Q808.028 283.959 808.028 280.209 Q808.028 275.834 810.945 273.612 Q813.884 271.39 819.694 271.39 L825.667 271.39 L825.667 270.973 Q825.667 268.034 823.722 266.436 Q821.801 264.816 818.306 264.816 Q816.083 264.816 813.977 265.348 Q811.87 265.881 809.926 266.946 L809.926 263.01 Q812.264 262.108 814.463 261.668 Q816.662 261.205 818.745 261.205 Q824.37 261.205 827.148 264.122 Q829.926 267.038 829.926 272.964 Z" fill="#000000" fill-rule="nonzero" fill-opacity="1" /></svg>
