<?xml version="1.0" encoding="utf-8"?>
<svg xmlns="http://www.w3.org/2000/svg" xmlns:xlink="http://www.w3.org/1999/xlink" width="600" height="400" viewBox="0 0 2400 1600">
<defs>
  <clipPath id="clip080">
    <rect x="0" y="0" width="2400" height="1600"/>
  </clipPath>
</defs>
<path clip-path="url(#clip080)" d="M0 1600 L2400 1600 L2400 0 L0 0  Z" fill="#ffffff" fill-rule="evenodd" fill-opacity="1"/>
<defs>
  <clipPath id="clip081">
    <rect x="175" y="123" width="2178" height="1301"/>
  </clipPath>
</defs>
<path clip-path="url(#clip080)" d="M219.38 1423.18 L2352.76 1423.18 L2352.76 123.472 L219.38 123.472  Z" fill="#ffffff" fill-rule="evenodd" fill-opacity="1"/>
<defs>
  <clipPath id="clip082">
    <rect x="219" y="123" width="2134" height="1301"/>
  </clipPath>
</defs>
<polyline clip-path="url(#clip082)" style="stroke:#000000; stroke-linecap:round; stroke-linejoin:round; stroke-width:2; stroke-opacity:0.1; fill:none" points="219.38,1423.18 219.38,123.472 "/>
<polyline clip-path="url(#clip082)" style="stroke:#000000; stroke-linecap:round; stroke-linejoin:round; stroke-width:2; stroke-opacity:0.1; fill:none" points="679.887,1423.18 679.887,123.472 "/>
<polyline clip-path="url(#clip082)" style="stroke:#000000; stroke-linecap:round; stroke-linejoin:round; stroke-width:2; stroke-opacity:0.1; fill:none" points="1140.39,1423.18 1140.39,123.472 "/>
<polyline clip-path="url(#clip082)" style="stroke:#000000; stroke-linecap:round; stroke-linejoin:round; stroke-width:2; stroke-opacity:0.1; fill:none" points="1600.9,1423.18 1600.9,123.472 "/>
<polyline clip-path="url(#clip082)" style="stroke:#000000; stroke-linecap:round; stroke-linejoin:round; stroke-width:2; stroke-opacity:0.1; fill:none" points="2061.41,1423.18 2061.41,123.472 "/>
<polyline clip-path="url(#clip082)" style="stroke:#000000; stroke-linecap:round; stroke-linejoin:round; stroke-width:2; stroke-opacity:0.1; fill:none" points="219.38,1386.4 2352.76,1386.4 "/>
<polyline clip-path="url(#clip082)" style="stroke:#000000; stroke-linecap:round; stroke-linejoin:round; stroke-width:2; stroke-opacity:0.1; fill:none" points="219.38,990.611 2352.76,990.611 "/>
<polyline clip-path="url(#clip082)" style="stroke:#000000; stroke-linecap:round; stroke-linejoin:round; stroke-width:2; stroke-opacity:0.1; fill:none" points="219.38,594.826 2352.76,594.826 "/>
<polyline clip-path="url(#clip082)" style="stroke:#000000; stroke-linecap:round; stroke-linejoin:round; stroke-width:2; stroke-opacity:0.1; fill:none" points="219.38,199.041 2352.76,199.041 "/>
<polyline clip-path="url(#clip080)" style="stroke:#000000; stroke-linecap:round; stroke-linejoin:round; stroke-width:4; stroke-opacity:1; fill:none" points="219.38,1423.18 2352.76,1423.18 "/>
<polyline clip-path="url(#clip080)" style="stroke:#000000; stroke-linecap:round; stroke-linejoin:round; stroke-width:4; stroke-opacity:1; fill:none" points="219.38,1423.18 219.38,1404.28 "/>
<polyline clip-path="url(#clip080)" style="stroke:#000000; stroke-linecap:round; stroke-linejoin:round; stroke-width:4; stroke-opacity:1; fill:none" points="679.887,1423.18 679.887,1404.28 "/>
<polyline clip-path="url(#clip080)" style="stroke:#000000; stroke-linecap:round; stroke-linejoin:round; stroke-width:4; stroke-opacity:1; fill:none" points="1140.39,1423.18 1140.39,1404.28 "/>
<polyline clip-path="url(#clip080)" style="stroke:#000000; stroke-linecap:round; stroke-linejoin:round; stroke-width:4; stroke-opacity:1; fill:none" points="1600.9,1423.18 1600.9,1404.28 "/>
<polyline clip-path="url(#clip080)" style="stroke:#000000; stroke-linecap:round; stroke-linejoin:round; stroke-width:4; stroke-opacity:1; fill:none" points="2061.41,1423.18 2061.41,1404.28 "/>
<path clip-path="url(#clip080)" d="M219.38 1454.1 Q215.769 1454.1 213.94 1457.66 Q212.135 1461.2 212.135 1468.33 Q212.135 1475.44 213.94 1479.01 Q215.769 1482.55 219.38 1482.55 Q223.014 1482.55 224.82 1479.01 Q226.649 1475.44 226.649 1468.33 Q226.649 1461.2 224.82 1457.66 Q223.014 1454.1 219.38 1454.1 M219.38 1450.39 Q225.19 1450.39 228.246 1455 Q231.325 1459.58 231.325 1468.33 Q231.325 1477.06 228.246 1481.67 Q225.19 1486.25 219.38 1486.25 Q213.57 1486.25 210.491 1481.67 Q207.436 1477.06 207.436 1468.33 Q207.436 1459.58 210.491 1455 Q213.57 1450.39 219.38 1450.39 Z" fill="#000000" fill-rule="nonzero" fill-opacity="1" /><path clip-path="url(#clip080)" d="M654.586 1451.02 L672.943 1451.02 L672.943 1454.96 L658.869 1454.96 L658.869 1463.43 Q659.887 1463.08 660.906 1462.92 Q661.924 1462.73 662.943 1462.73 Q668.73 1462.73 672.109 1465.9 Q675.489 1469.08 675.489 1474.49 Q675.489 1480.07 672.017 1483.17 Q668.545 1486.25 662.225 1486.25 Q660.049 1486.25 657.781 1485.88 Q655.536 1485.51 653.128 1484.77 L653.128 1480.07 Q655.211 1481.2 657.434 1481.76 Q659.656 1482.32 662.133 1482.32 Q666.137 1482.32 668.475 1480.21 Q670.813 1478.1 670.813 1474.49 Q670.813 1470.88 668.475 1468.77 Q666.137 1466.67 662.133 1466.67 Q660.258 1466.67 658.383 1467.08 Q656.531 1467.5 654.586 1468.38 L654.586 1451.02 Z" fill="#000000" fill-rule="nonzero" fill-opacity="1" /><path clip-path="url(#clip080)" d="M694.702 1454.1 Q691.091 1454.1 689.262 1457.66 Q687.457 1461.2 687.457 1468.33 Q687.457 1475.44 689.262 1479.01 Q691.091 1482.55 694.702 1482.55 Q698.336 1482.55 700.142 1479.01 Q701.97 1475.44 701.97 1468.33 Q701.97 1461.2 700.142 1457.66 Q698.336 1454.1 694.702 1454.1 M694.702 1450.39 Q700.512 1450.39 703.568 1455 Q706.646 1459.58 706.646 1468.33 Q706.646 1477.06 703.568 1481.67 Q700.512 1486.25 694.702 1486.25 Q688.892 1486.25 685.813 1481.67 Q682.758 1477.06 682.758 1468.33 Q682.758 1459.58 685.813 1455 Q688.892 1450.39 694.702 1450.39 Z" fill="#000000" fill-rule="nonzero" fill-opacity="1" /><path clip-path="url(#clip080)" d="M1100 1481.64 L1107.64 1481.64 L1107.64 1455.28 L1099.33 1456.95 L1099.33 1452.69 L1107.59 1451.02 L1112.27 1451.02 L1112.27 1481.64 L1119.91 1481.64 L1119.91 1485.58 L1100 1485.58 L1100 1481.64 Z" fill="#000000" fill-rule="nonzero" fill-opacity="1" /><path clip-path="url(#clip080)" d="M1139.35 1454.1 Q1135.74 1454.1 1133.91 1457.66 Q1132.11 1461.2 1132.11 1468.33 Q1132.11 1475.44 1133.91 1479.01 Q1135.74 1482.55 1139.35 1482.55 Q1142.99 1482.55 1144.79 1479.01 Q1146.62 1475.44 1146.62 1468.33 Q1146.62 1461.2 1144.79 1457.66 Q1142.99 1454.1 1139.35 1454.1 M1139.35 1450.39 Q1145.16 1450.39 1148.22 1455 Q1151.3 1459.58 1151.3 1468.33 Q1151.3 1477.06 1148.22 1481.67 Q1145.16 1486.25 1139.35 1486.25 Q1133.54 1486.25 1130.46 1481.67 Q1127.41 1477.06 1127.41 1468.33 Q1127.41 1459.58 1130.46 1455 Q1133.54 1450.39 1139.35 1450.39 Z" fill="#000000" fill-rule="nonzero" fill-opacity="1" /><path clip-path="url(#clip080)" d="M1169.51 1454.1 Q1165.9 1454.1 1164.07 1457.66 Q1162.27 1461.2 1162.27 1468.33 Q1162.27 1475.44 1164.07 1479.01 Q1165.9 1482.55 1169.51 1482.55 Q1173.15 1482.55 1174.95 1479.01 Q1176.78 1475.44 1176.78 1468.33 Q1176.78 1461.2 1174.95 1457.66 Q1173.15 1454.1 1169.51 1454.1 M1169.51 1450.39 Q1175.32 1450.39 1178.38 1455 Q1181.46 1459.58 1181.46 1468.33 Q1181.46 1477.06 1178.38 1481.67 Q1175.32 1486.25 1169.51 1486.25 Q1163.7 1486.25 1160.63 1481.67 Q1157.57 1477.06 1157.57 1468.33 Q1157.57 1459.58 1160.63 1455 Q1163.7 1450.39 1169.51 1450.39 Z" fill="#000000" fill-rule="nonzero" fill-opacity="1" /><path clip-path="url(#clip080)" d="M1560.51 1481.64 L1568.15 1481.64 L1568.15 1455.28 L1559.84 1456.95 L1559.84 1452.69 L1568.1 1451.02 L1572.78 1451.02 L1572.78 1481.64 L1580.42 1481.64 L1580.42 1485.58 L1560.51 1485.58 L1560.51 1481.64 Z" fill="#000000" fill-rule="nonzero" fill-opacity="1" /><path clip-path="url(#clip080)" d="M1589.91 1451.02 L1608.26 1451.02 L1608.26 1454.96 L1594.19 1454.96 L1594.19 1463.43 Q1595.21 1463.08 1596.23 1462.92 Q1597.24 1462.73 1598.26 1462.73 Q1604.05 1462.73 1607.43 1465.9 Q1610.81 1469.08 1610.81 1474.49 Q1610.81 1480.07 1607.34 1483.17 Q1603.86 1486.25 1597.54 1486.25 Q1595.37 1486.25 1593.1 1485.88 Q1590.86 1485.51 1588.45 1484.77 L1588.45 1480.07 Q1590.53 1481.2 1592.75 1481.76 Q1594.98 1482.32 1597.45 1482.32 Q1601.46 1482.32 1603.79 1480.21 Q1606.13 1478.1 1606.13 1474.49 Q1606.13 1470.88 1603.79 1468.77 Q1601.46 1466.67 1597.45 1466.67 Q1595.58 1466.67 1593.7 1467.08 Q1591.85 1467.5 1589.91 1468.38 L1589.91 1451.02 Z" fill="#000000" fill-rule="nonzero" fill-opacity="1" /><path clip-path="url(#clip080)" d="M1630.02 1454.1 Q1626.41 1454.1 1624.58 1457.66 Q1622.78 1461.2 1622.78 1468.33 Q1622.78 1475.44 1624.58 1479.01 Q1626.41 1482.55 1630.02 1482.55 Q1633.66 1482.55 1635.46 1479.01 Q1637.29 1475.44 1637.29 1468.33 Q1637.29 1461.2 1635.46 1457.66 Q1633.66 1454.1 1630.02 1454.1 M1630.02 1450.39 Q1635.83 1450.39 1638.89 1455 Q1641.97 1459.58 1641.97 1468.33 Q1641.97 1477.06 1638.89 1481.67 Q1635.83 1486.25 1630.02 1486.25 Q1624.21 1486.25 1621.13 1481.67 Q1618.08 1477.06 1618.08 1468.33 Q1618.08 1459.58 1621.13 1455 Q1624.21 1450.39 1630.02 1450.39 Z" fill="#000000" fill-rule="nonzero" fill-opacity="1" /><path clip-path="url(#clip080)" d="M2025.1 1481.64 L2041.42 1481.64 L2041.42 1485.58 L2019.48 1485.58 L2019.48 1481.64 Q2022.14 1478.89 2026.72 1474.26 Q2031.33 1469.61 2032.51 1468.27 Q2034.75 1465.74 2035.63 1464.01 Q2036.54 1462.25 2036.54 1460.56 Q2036.54 1457.8 2034.59 1456.07 Q2032.67 1454.33 2029.57 1454.33 Q2027.37 1454.33 2024.92 1455.09 Q2022.49 1455.86 2019.71 1457.41 L2019.71 1452.69 Q2022.53 1451.55 2024.99 1450.97 Q2027.44 1450.39 2029.48 1450.39 Q2034.85 1450.39 2038.04 1453.08 Q2041.23 1455.77 2041.23 1460.26 Q2041.23 1462.39 2040.42 1464.31 Q2039.64 1466.2 2037.53 1468.8 Q2036.95 1469.47 2033.85 1472.69 Q2030.75 1475.88 2025.1 1481.64 Z" fill="#000000" fill-rule="nonzero" fill-opacity="1" /><path clip-path="url(#clip080)" d="M2061.23 1454.1 Q2057.62 1454.1 2055.8 1457.66 Q2053.99 1461.2 2053.99 1468.33 Q2053.99 1475.44 2055.8 1479.01 Q2057.62 1482.55 2061.23 1482.55 Q2064.87 1482.55 2066.67 1479.01 Q2068.5 1475.44 2068.5 1468.33 Q2068.5 1461.2 2066.67 1457.66 Q2064.87 1454.1 2061.23 1454.1 M2061.23 1450.39 Q2067.04 1450.39 2070.1 1455 Q2073.18 1459.58 2073.18 1468.33 Q2073.18 1477.06 2070.1 1481.67 Q2067.04 1486.25 2061.23 1486.25 Q2055.42 1486.25 2052.35 1481.67 Q2049.29 1477.06 2049.29 1468.33 Q2049.29 1459.58 2052.35 1455 Q2055.42 1450.39 2061.23 1450.39 Z" fill="#000000" fill-rule="nonzero" fill-opacity="1" /><path clip-path="url(#clip080)" d="M2091.4 1454.1 Q2087.79 1454.1 2085.96 1457.66 Q2084.15 1461.2 2084.15 1468.33 Q2084.15 1475.44 2085.96 1479.01 Q2087.79 1482.55 2091.4 1482.55 Q2095.03 1482.55 2096.84 1479.01 Q2098.67 1475.44 2098.67 1468.33 Q2098.67 1461.2 2096.84 1457.66 Q2095.03 1454.1 2091.4 1454.1 M2091.4 1450.39 Q2097.21 1450.39 2100.26 1455 Q2103.34 1459.58 2103.34 1468.33 Q2103.34 1477.06 2100.26 1481.67 Q2097.21 1486.25 2091.4 1486.25 Q2085.59 1486.25 2082.51 1481.67 Q2079.45 1477.06 2079.45 1468.33 Q2079.45 1459.58 2082.51 1455 Q2085.59 1450.39 2091.4 1450.39 Z" fill="#000000" fill-rule="nonzero" fill-opacity="1" /><path clip-path="url(#clip080)" d="M1207.94 1520.52 L1248.14 1520.52 L1248.14 1525.93 L1231.28 1525.93 L1231.28 1568.04 L1224.81 1568.04 L1224.81 1525.93 L1207.94 1525.93 L1207.94 1520.52 Z" fill="#000000" fill-rule="nonzero" fill-opacity="1" /><path clip-path="url(#clip080)" d="M1252.09 1532.4 L1257.95 1532.4 L1257.95 1568.04 L1252.09 1568.04 L1252.09 1532.4 M1252.09 1518.52 L1257.95 1518.52 L1257.95 1525.93 L1252.09 1525.93 L1252.09 1518.52 Z" fill="#000000" fill-rule="nonzero" fill-opacity="1" /><path clip-path="url(#clip080)" d="M1297.96 1539.24 Q1300.15 1535.29 1303.21 1533.41 Q1306.26 1531.54 1310.4 1531.54 Q1315.97 1531.54 1318.99 1535.45 Q1322.02 1539.33 1322.02 1546.53 L1322.02 1568.04 L1316.13 1568.04 L1316.13 1546.72 Q1316.13 1541.59 1314.32 1539.11 Q1312.5 1536.63 1308.78 1536.63 Q1304.23 1536.63 1301.58 1539.65 Q1298.94 1542.68 1298.94 1547.9 L1298.94 1568.04 L1293.05 1568.04 L1293.05 1546.72 Q1293.05 1541.56 1291.24 1539.11 Q1289.43 1536.63 1285.64 1536.63 Q1281.15 1536.63 1278.51 1539.68 Q1275.87 1542.71 1275.87 1547.9 L1275.87 1568.04 L1269.98 1568.04 L1269.98 1532.4 L1275.87 1532.4 L1275.87 1537.93 Q1277.87 1534.66 1280.67 1533.1 Q1283.47 1531.54 1287.33 1531.54 Q1291.21 1531.54 1293.91 1533.51 Q1296.65 1535.48 1297.96 1539.24 Z" fill="#000000" fill-rule="nonzero" fill-opacity="1" /><path clip-path="url(#clip080)" d="M1364.19 1548.76 L1364.19 1551.62 L1337.26 1551.62 Q1337.65 1557.67 1340.89 1560.85 Q1344.17 1564 1350 1564 Q1353.37 1564 1356.52 1563.17 Q1359.7 1562.35 1362.82 1560.69 L1362.82 1566.23 Q1359.67 1567.57 1356.36 1568.27 Q1353.05 1568.97 1349.65 1568.97 Q1341.12 1568.97 1336.12 1564 Q1331.15 1559.04 1331.15 1550.57 Q1331.15 1541.82 1335.86 1536.69 Q1340.61 1531.54 1348.63 1531.54 Q1355.82 1531.54 1359.99 1536.18 Q1364.19 1540.8 1364.19 1548.76 M1358.33 1547.04 Q1358.27 1542.23 1355.63 1539.37 Q1353.02 1536.5 1348.69 1536.5 Q1343.79 1536.5 1340.83 1539.27 Q1337.9 1542.04 1337.46 1547.07 L1358.33 1547.04 Z" fill="#000000" fill-rule="nonzero" fill-opacity="1" /><polyline clip-path="url(#clip080)" style="stroke:#000000; stroke-linecap:round; stroke-linejoin:round; stroke-width:4; stroke-opacity:1; fill:none" points="219.38,1423.18 219.38,123.472 "/>
<polyline clip-path="url(#clip080)" style="stroke:#000000; stroke-linecap:round; stroke-linejoin:round; stroke-width:4; stroke-opacity:1; fill:none" points="219.38,1386.4 238.278,1386.4 "/>
<polyline clip-path="url(#clip080)" style="stroke:#000000; stroke-linecap:round; stroke-linejoin:round; stroke-width:4; stroke-opacity:1; fill:none" points="219.38,990.611 238.278,990.611 "/>
<polyline clip-path="url(#clip080)" style="stroke:#000000; stroke-linecap:round; stroke-linejoin:round; stroke-width:4; stroke-opacity:1; fill:none" points="219.38,594.826 238.278,594.826 "/>
<polyline clip-path="url(#clip080)" style="stroke:#000000; stroke-linecap:round; stroke-linejoin:round; stroke-width:4; stroke-opacity:1; fill:none" points="219.38,199.041 238.278,199.041 "/>
<path clip-path="url(#clip080)" d="M126.205 1372.19 Q122.593 1372.19 120.765 1375.76 Q118.959 1379.3 118.959 1386.43 Q118.959 1393.54 120.765 1397.1 Q122.593 1400.64 126.205 1400.64 Q129.839 1400.64 131.644 1397.1 Q133.473 1393.54 133.473 1386.43 Q133.473 1379.3 131.644 1375.76 Q129.839 1372.19 126.205 1372.19 M126.205 1368.49 Q132.015 1368.49 135.07 1373.1 Q138.149 1377.68 138.149 1386.43 Q138.149 1395.16 135.07 1399.76 Q132.015 1404.35 126.205 1404.35 Q120.394 1404.35 117.316 1399.76 Q114.26 1395.16 114.26 1386.43 Q114.26 1377.68 117.316 1373.1 Q120.394 1368.49 126.205 1368.49 Z" fill="#000000" fill-rule="nonzero" fill-opacity="1" /><path clip-path="url(#clip080)" d="M146.366 1397.8 L151.251 1397.8 L151.251 1403.68 L146.366 1403.68 L146.366 1397.8 Z" fill="#000000" fill-rule="nonzero" fill-opacity="1" /><path clip-path="url(#clip080)" d="M171.436 1372.19 Q167.825 1372.19 165.996 1375.76 Q164.19 1379.3 164.19 1386.43 Q164.19 1393.54 165.996 1397.1 Q167.825 1400.64 171.436 1400.64 Q175.07 1400.64 176.876 1397.1 Q178.704 1393.54 178.704 1386.43 Q178.704 1379.3 176.876 1375.76 Q175.07 1372.19 171.436 1372.19 M171.436 1368.49 Q177.246 1368.49 180.301 1373.1 Q183.38 1377.68 183.38 1386.43 Q183.38 1395.16 180.301 1399.76 Q177.246 1404.35 171.436 1404.35 Q165.626 1404.35 162.547 1399.76 Q159.491 1395.16 159.491 1386.43 Q159.491 1377.68 162.547 1373.1 Q165.626 1368.49 171.436 1368.49 Z" fill="#000000" fill-rule="nonzero" fill-opacity="1" /><path clip-path="url(#clip080)" d="M127.2 976.409 Q123.589 976.409 121.76 979.974 Q119.955 983.516 119.955 990.646 Q119.955 997.752 121.76 1001.32 Q123.589 1004.86 127.2 1004.86 Q130.834 1004.86 132.64 1001.32 Q134.468 997.752 134.468 990.646 Q134.468 983.516 132.64 979.974 Q130.834 976.409 127.2 976.409 M127.2 972.706 Q133.01 972.706 136.066 977.312 Q139.144 981.896 139.144 990.646 Q139.144 999.372 136.066 1003.98 Q133.01 1008.56 127.2 1008.56 Q121.39 1008.56 118.311 1003.98 Q115.256 999.372 115.256 990.646 Q115.256 981.896 118.311 977.312 Q121.39 972.706 127.2 972.706 Z" fill="#000000" fill-rule="nonzero" fill-opacity="1" /><path clip-path="url(#clip080)" d="M147.362 1002.01 L152.246 1002.01 L152.246 1007.89 L147.362 1007.89 L147.362 1002.01 Z" fill="#000000" fill-rule="nonzero" fill-opacity="1" /><path clip-path="url(#clip080)" d="M162.477 973.331 L180.834 973.331 L180.834 977.266 L166.76 977.266 L166.76 985.738 Q167.778 985.391 168.797 985.229 Q169.815 985.044 170.834 985.044 Q176.621 985.044 180.001 988.215 Q183.38 991.386 183.38 996.803 Q183.38 1002.38 179.908 1005.48 Q176.436 1008.56 170.116 1008.56 Q167.94 1008.56 165.672 1008.19 Q163.427 1007.82 161.019 1007.08 L161.019 1002.38 Q163.102 1003.52 165.325 1004.07 Q167.547 1004.63 170.024 1004.63 Q174.028 1004.63 176.366 1002.52 Q178.704 1000.41 178.704 996.803 Q178.704 993.192 176.366 991.085 Q174.028 988.979 170.024 988.979 Q168.149 988.979 166.274 989.396 Q164.422 989.812 162.477 990.692 L162.477 973.331 Z" fill="#000000" fill-rule="nonzero" fill-opacity="1" /><path clip-path="url(#clip080)" d="M117.015 608.171 L124.654 608.171 L124.654 581.805 L116.343 583.472 L116.343 579.213 L124.607 577.546 L129.283 577.546 L129.283 608.171 L136.922 608.171 L136.922 612.106 L117.015 612.106 L117.015 608.171 Z" fill="#000000" fill-rule="nonzero" fill-opacity="1" /><path clip-path="url(#clip080)" d="M146.366 606.226 L151.251 606.226 L151.251 612.106 L146.366 612.106 L146.366 606.226 Z" fill="#000000" fill-rule="nonzero" fill-opacity="1" /><path clip-path="url(#clip080)" d="M171.436 580.625 Q167.825 580.625 165.996 584.189 Q164.19 587.731 164.19 594.861 Q164.19 601.967 165.996 605.532 Q167.825 609.074 171.436 609.074 Q175.07 609.074 176.876 605.532 Q178.704 601.967 178.704 594.861 Q178.704 587.731 176.876 584.189 Q175.07 580.625 171.436 580.625 M171.436 576.921 Q177.246 576.921 180.301 581.527 Q183.38 586.111 183.38 594.861 Q183.38 603.587 180.301 608.194 Q177.246 612.777 171.436 612.777 Q165.626 612.777 162.547 608.194 Q159.491 603.587 159.491 594.861 Q159.491 586.111 162.547 581.527 Q165.626 576.921 171.436 576.921 Z" fill="#000000" fill-rule="nonzero" fill-opacity="1" /><path clip-path="url(#clip080)" d="M118.01 212.386 L125.649 212.386 L125.649 186.02 L117.339 187.687 L117.339 183.428 L125.603 181.761 L130.279 181.761 L130.279 212.386 L137.917 212.386 L137.917 216.321 L118.01 216.321 L118.01 212.386 Z" fill="#000000" fill-rule="nonzero" fill-opacity="1" /><path clip-path="url(#clip080)" d="M147.362 210.441 L152.246 210.441 L152.246 216.321 L147.362 216.321 L147.362 210.441 Z" fill="#000000" fill-rule="nonzero" fill-opacity="1" /><path clip-path="url(#clip080)" d="M162.477 181.761 L180.834 181.761 L180.834 185.696 L166.76 185.696 L166.76 194.168 Q167.778 193.821 168.797 193.659 Q169.815 193.474 170.834 193.474 Q176.621 193.474 180.001 196.645 Q183.38 199.817 183.38 205.233 Q183.38 210.812 179.908 213.914 Q176.436 216.992 170.116 216.992 Q167.94 216.992 165.672 216.622 Q163.427 216.252 161.019 215.511 L161.019 210.812 Q163.102 211.946 165.325 212.502 Q167.547 213.057 170.024 213.057 Q174.028 213.057 176.366 210.951 Q178.704 208.844 178.704 205.233 Q178.704 201.622 176.366 199.516 Q174.028 197.409 170.024 197.409 Q168.149 197.409 166.274 197.826 Q164.422 198.242 162.477 199.122 L162.477 181.761 Z" fill="#000000" fill-rule="nonzero" fill-opacity="1" /><path clip-path="url(#clip080)" d="M29.7248 956.945 L35.1993 956.945 Q33.8307 959.427 33.1623 961.942 Q32.4621 964.424 32.4621 966.971 Q32.4621 972.668 36.0905 975.819 Q39.6872 978.97 46.212 978.97 Q52.7369 978.97 56.3653 975.819 Q59.9619 972.668 59.9619 966.971 Q59.9619 964.424 59.2935 961.942 Q58.5933 959.427 57.2247 956.945 L62.6355 956.945 Q63.7814 959.396 64.3543 962.037 Q64.9272 964.647 64.9272 967.607 Q64.9272 975.66 59.8664 980.402 Q54.8057 985.145 46.212 985.145 Q37.491 985.145 32.4939 980.371 Q27.4968 975.564 27.4968 967.225 Q27.4968 964.52 28.0697 961.942 Q28.6108 959.364 29.7248 956.945 Z" fill="#000000" fill-rule="nonzero" fill-opacity="1" /><path clip-path="url(#clip080)" d="M16.4842 953.094 L16.4842 912.894 L21.895 912.894 L21.895 929.763 L64.0042 929.763 L64.0042 936.224 L21.895 936.224 L21.895 953.094 L16.4842 953.094 Z" fill="#000000" fill-rule="nonzero" fill-opacity="1" /><path clip-path="url(#clip080)" d="M42.4881 877.31 L64.0042 877.31 L64.0042 883.166 L42.679 883.166 Q37.6183 883.166 35.1038 885.14 Q32.5894 887.113 32.5894 891.06 Q32.5894 895.802 35.6131 898.539 Q38.6368 901.277 43.8567 901.277 L64.0042 901.277 L64.0042 907.165 L28.3562 907.165 L28.3562 901.277 L33.8944 901.277 Q30.6797 899.176 29.0883 896.343 Q27.4968 893.479 27.4968 889.755 Q27.4968 883.612 31.3163 880.461 Q35.1038 877.31 42.4881 877.31 Z" fill="#000000" fill-rule="nonzero" fill-opacity="1" /><path clip-path="url(#clip080)" d="M16.4842 871.963 L16.4842 831.763 L21.895 831.763 L21.895 848.632 L64.0042 848.632 L64.0042 855.093 L21.895 855.093 L21.895 871.963 L16.4842 871.963 Z" fill="#000000" fill-rule="nonzero" fill-opacity="1" /><path clip-path="url(#clip080)" d="M14.479 805.632 L14.479 792.137 L19.0304 792.137 L19.0304 799.775 L68.0464 799.775 L68.0464 792.137 L72.5979 792.137 L72.5979 805.632 L14.479 805.632 Z" fill="#000000" fill-rule="nonzero" fill-opacity="1" /><path clip-path="url(#clip080)" d="M42.4881 750.027 L64.0042 750.027 L64.0042 755.884 L42.679 755.884 Q37.6183 755.884 35.1038 757.857 Q32.5894 759.831 32.5894 763.777 Q32.5894 768.52 35.6131 771.257 Q38.6368 773.994 43.8567 773.994 L64.0042 773.994 L64.0042 779.883 L28.3562 779.883 L28.3562 773.994 L33.8944 773.994 Q30.6797 771.894 29.0883 769.061 Q27.4968 766.196 27.4968 762.472 Q27.4968 756.33 31.3163 753.179 Q35.1038 750.027 42.4881 750.027 Z" fill="#000000" fill-rule="nonzero" fill-opacity="1" /><path clip-path="url(#clip080)" d="M45.7664 714.889 Q39.4007 714.889 35.8996 717.531 Q32.3984 720.141 32.3984 724.883 Q32.3984 729.594 35.8996 732.235 Q39.4007 734.845 45.7664 734.845 Q52.1003 734.845 55.6014 732.235 Q59.1026 729.594 59.1026 724.883 Q59.1026 720.141 55.6014 717.531 Q52.1003 714.889 45.7664 714.889 M59.58 709.032 Q68.683 709.032 73.1071 713.075 Q77.5631 717.117 77.5631 725.456 Q77.5631 728.543 77.0857 731.28 Q76.6401 734.018 75.6852 736.596 L69.9879 736.596 Q71.3884 734.018 72.0568 731.503 Q72.7252 728.989 72.7252 726.379 Q72.7252 720.618 69.7015 717.753 Q66.7096 714.889 60.6303 714.889 L57.7339 714.889 Q60.885 716.703 62.4446 719.536 Q64.0042 722.369 64.0042 726.315 Q64.0042 732.872 59.0071 736.882 Q54.01 740.893 45.7664 740.893 Q37.491 740.893 32.4939 736.882 Q27.4968 732.872 27.4968 726.315 Q27.4968 722.369 29.0564 719.536 Q30.616 716.703 33.7671 714.889 L28.3562 714.889 L28.3562 709.032 L59.58 709.032 Z" fill="#000000" fill-rule="nonzero" fill-opacity="1" /><path clip-path="url(#clip080)" d="M16.4842 686.561 L16.4842 681.151 L70.0516 697.701 L70.0516 703.112 L16.4842 686.561 Z" fill="#000000" fill-rule="nonzero" fill-opacity="1" /><path clip-path="url(#clip080)" d="M35.1993 647.253 Q31.2526 645.057 29.3747 642.001 Q27.4968 638.946 27.4968 634.808 Q27.4968 629.238 31.4117 626.215 Q35.2948 623.191 42.4881 623.191 L64.0042 623.191 L64.0042 629.079 L42.679 629.079 Q37.5546 629.079 35.072 630.893 Q32.5894 632.708 32.5894 636.431 Q32.5894 640.983 35.6131 643.625 Q38.6368 646.266 43.8567 646.266 L64.0042 646.266 L64.0042 652.155 L42.679 652.155 Q37.5228 652.155 35.072 653.969 Q32.5894 655.783 32.5894 659.571 Q32.5894 664.059 35.6449 666.7 Q38.6686 669.342 43.8567 669.342 L64.0042 669.342 L64.0042 675.23 L28.3562 675.23 L28.3562 669.342 L33.8944 669.342 Q30.616 667.337 29.0564 664.536 Q27.4968 661.735 27.4968 657.884 Q27.4968 654.001 29.4702 651.295 Q31.4436 648.558 35.1993 647.253 Z" fill="#000000" fill-rule="nonzero" fill-opacity="1" /><path clip-path="url(#clip080)" d="M16.4842 611.255 L16.4842 604.826 L58.5933 604.826 L58.5933 581.686 L64.0042 581.686 L64.0042 611.255 L16.4842 611.255 Z" fill="#000000" fill-rule="nonzero" fill-opacity="1" /><path clip-path="url(#clip080)" d="M14.479 561.507 L72.5979 561.507 L72.5979 575.002 L68.0464 575.002 L68.0464 567.395 L19.0304 567.395 L19.0304 575.002 L14.479 575.002 L14.479 561.507 Z" fill="#000000" fill-rule="nonzero" fill-opacity="1" /><path clip-path="url(#clip080)" d="M1039.39 18.8205 L1039.39 41.5461 L1049.68 41.5461 Q1055.39 41.5461 1058.51 38.5889 Q1061.63 35.6318 1061.63 30.163 Q1061.63 24.7348 1058.51 21.7777 Q1055.39 18.8205 1049.68 18.8205 L1039.39 18.8205 M1031.21 12.096 L1049.68 12.096 Q1059.85 12.096 1065.03 16.714 Q1070.26 21.2916 1070.26 30.163 Q1070.26 39.1155 1065.03 43.6931 Q1059.85 48.2706 1049.68 48.2706 L1039.39 48.2706 L1039.39 72.576 L1031.21 72.576 L1031.21 12.096 Z" fill="#000000" fill-rule="nonzero" fill-opacity="1" /><path clip-path="url(#clip080)" d="M1097.8 49.7694 Q1088.77 49.7694 1085.28 51.8354 Q1081.8 53.9013 1081.8 58.8839 Q1081.8 62.8538 1084.39 65.2034 Q1087.03 67.5124 1091.52 67.5124 Q1097.72 67.5124 1101.45 63.1374 Q1105.22 58.7219 1105.22 51.4303 L1105.22 49.7694 L1097.8 49.7694 M1112.67 46.6907 L1112.67 72.576 L1105.22 72.576 L1105.22 65.6895 Q1102.66 69.8214 1098.86 71.8063 Q1095.05 73.7508 1089.54 73.7508 Q1082.57 73.7508 1078.44 69.8619 Q1074.35 65.9325 1074.35 59.3701 Q1074.35 51.7138 1079.45 47.825 Q1084.6 43.9361 1094.76 43.9361 L1105.22 43.9361 L1105.22 43.2069 Q1105.22 38.0623 1101.81 35.2672 Q1098.45 32.4315 1092.33 32.4315 Q1088.44 32.4315 1084.76 33.3632 Q1081.07 34.295 1077.67 36.1584 L1077.67 29.2718 Q1081.76 27.692 1085.61 26.9223 Q1089.46 26.1121 1093.1 26.1121 Q1102.95 26.1121 1107.81 31.2163 Q1112.67 36.3204 1112.67 46.6907 Z" fill="#000000" fill-rule="nonzero" fill-opacity="1" /><path clip-path="url(#clip080)" d="M1135.39 14.324 L1135.39 27.2059 L1150.75 27.2059 L1150.75 32.9987 L1135.39 32.9987 L1135.39 57.6282 Q1135.39 63.1779 1136.89 64.7578 Q1138.43 66.3376 1143.09 66.3376 L1150.75 66.3376 L1150.75 72.576 L1143.09 72.576 Q1134.46 72.576 1131.18 69.3758 Q1127.9 66.1351 1127.9 57.6282 L1127.9 32.9987 L1122.43 32.9987 L1122.43 27.2059 L1127.9 27.2059 L1127.9 14.324 L1135.39 14.324 Z" fill="#000000" fill-rule="nonzero" fill-opacity="1" /><path clip-path="url(#clip080)" d="M1160.55 27.2059 L1168 27.2059 L1168 72.576 L1160.55 72.576 L1160.55 27.2059 M1160.55 9.54393 L1168 9.54393 L1168 18.9825 L1160.55 18.9825 L1160.55 9.54393 Z" fill="#000000" fill-rule="nonzero" fill-opacity="1" /><path clip-path="url(#clip080)" d="M1222.41 48.0275 L1222.41 51.6733 L1188.14 51.6733 Q1188.62 59.3701 1192.76 63.421 Q1196.93 67.4314 1204.34 67.4314 Q1208.63 67.4314 1212.65 66.3781 Q1216.7 65.3249 1220.67 63.2184 L1220.67 70.267 Q1216.66 71.9684 1212.44 72.8596 Q1208.23 73.7508 1203.9 73.7508 Q1193.04 73.7508 1186.68 67.4314 Q1180.36 61.1119 1180.36 50.3365 Q1180.36 39.1965 1186.36 32.6746 Q1192.39 26.1121 1202.6 26.1121 Q1211.75 26.1121 1217.06 32.0264 Q1222.41 37.9003 1222.41 48.0275 M1214.95 45.84 Q1214.87 39.7232 1211.51 36.0774 Q1208.19 32.4315 1202.68 32.4315 Q1196.44 32.4315 1192.67 35.9558 Q1188.95 39.4801 1188.38 45.8805 L1214.95 45.84 Z" fill="#000000" fill-rule="nonzero" fill-opacity="1" /><path clip-path="url(#clip080)" d="M1272.36 45.1919 L1272.36 72.576 L1264.9 72.576 L1264.9 45.4349 Q1264.9 38.994 1262.39 35.7938 Q1259.88 32.5936 1254.86 32.5936 Q1248.82 32.5936 1245.34 36.4419 Q1241.85 40.2903 1241.85 46.9338 L1241.85 72.576 L1234.36 72.576 L1234.36 27.2059 L1241.85 27.2059 L1241.85 34.2544 Q1244.53 30.163 1248.13 28.1376 Q1251.78 26.1121 1256.52 26.1121 Q1264.33 26.1121 1268.35 30.9732 Q1272.36 35.7938 1272.36 45.1919 Z" fill="#000000" fill-rule="nonzero" fill-opacity="1" /><path clip-path="url(#clip080)" d="M1294.6 14.324 L1294.6 27.2059 L1309.95 27.2059 L1309.95 32.9987 L1294.6 32.9987 L1294.6 57.6282 Q1294.6 63.1779 1296.09 64.7578 Q1297.63 66.3376 1302.29 66.3376 L1309.95 66.3376 L1309.95 72.576 L1302.29 72.576 Q1293.66 72.576 1290.38 69.3758 Q1287.1 66.1351 1287.1 57.6282 L1287.1 32.9987 L1281.63 32.9987 L1281.63 27.2059 L1287.1 27.2059 L1287.1 14.324 L1294.6 14.324 Z" fill="#000000" fill-rule="nonzero" fill-opacity="1" /><path clip-path="url(#clip080)" d="M1383.84 45.1919 L1383.84 72.576 L1376.38 72.576 L1376.38 45.4349 Q1376.38 38.994 1373.87 35.7938 Q1371.36 32.5936 1366.34 32.5936 Q1360.3 32.5936 1356.82 36.4419 Q1353.33 40.2903 1353.33 46.9338 L1353.33 72.576 L1345.84 72.576 L1345.84 27.2059 L1353.33 27.2059 L1353.33 34.2544 Q1356.01 30.163 1359.61 28.1376 Q1363.26 26.1121 1368 26.1121 Q1375.82 26.1121 1379.83 30.9732 Q1383.84 35.7938 1383.84 45.1919 Z" fill="#000000" fill-rule="nonzero" fill-opacity="1" /><path clip-path="url(#clip080)" d="M1424.55 39.9662 Q1430.42 41.222 1433.7 45.1919 Q1437.02 49.1618 1437.02 54.9951 Q1437.02 63.9476 1430.87 68.8492 Q1424.71 73.7508 1413.37 73.7508 Q1409.56 73.7508 1405.51 72.9811 Q1401.5 72.2519 1397.2 70.7531 L1397.2 62.8538 Q1400.61 64.8388 1404.66 65.8515 Q1408.71 66.8642 1413.12 66.8642 Q1420.82 66.8642 1424.83 63.826 Q1428.88 60.7879 1428.88 54.9951 Q1428.88 49.6479 1425.12 46.6502 Q1421.39 43.612 1414.7 43.612 L1407.66 43.612 L1407.66 36.8875 L1415.03 36.8875 Q1421.06 36.8875 1424.26 34.4975 Q1427.46 32.067 1427.46 27.5299 Q1427.46 22.8714 1424.14 20.4004 Q1420.86 17.8888 1414.7 17.8888 Q1411.34 17.8888 1407.49 18.618 Q1403.65 19.3471 1399.03 20.8865 L1399.03 13.5948 Q1403.69 12.2985 1407.74 11.6504 Q1411.83 11.0023 1415.43 11.0023 Q1424.75 11.0023 1430.18 15.2557 Q1435.61 19.4686 1435.61 26.6793 Q1435.61 31.7024 1432.73 35.1862 Q1429.85 38.6294 1424.55 39.9662 Z" fill="#000000" fill-rule="nonzero" fill-opacity="1" /><path clip-path="url(#clip080)" d="M1475.02 19.2256 L1454.36 51.5113 L1475.02 51.5113 L1475.02 19.2256 M1472.88 12.096 L1483.16 12.096 L1483.16 51.5113 L1491.79 51.5113 L1491.79 58.3168 L1483.16 58.3168 L1483.16 72.576 L1475.02 72.576 L1475.02 58.3168 L1447.72 58.3168 L1447.72 50.4176 L1472.88 12.096 Z" fill="#000000" fill-rule="nonzero" fill-opacity="1" /><path clip-path="url(#clip080)" d="M1512.37 65.6895 L1540.93 65.6895 L1540.93 72.576 L1502.53 72.576 L1502.53 65.6895 Q1507.19 60.8689 1515.21 52.7671 Q1523.27 44.6248 1525.33 42.2752 Q1529.26 37.8598 1530.8 34.8216 Q1532.38 31.7429 1532.38 28.7857 Q1532.38 23.9651 1528.98 20.927 Q1525.62 17.8888 1520.19 17.8888 Q1516.34 17.8888 1512.05 19.2256 Q1507.79 20.5624 1502.93 23.2765 L1502.93 15.0127 Q1507.88 13.0277 1512.17 12.015 Q1516.46 11.0023 1520.03 11.0023 Q1529.43 11.0023 1535.02 15.7013 Q1540.61 20.4004 1540.61 28.2591 Q1540.61 31.9859 1539.19 35.3482 Q1537.81 38.6699 1534.13 43.2069 Q1533.11 44.3817 1527.68 50.0125 Q1522.26 55.6027 1512.37 65.6895 Z" fill="#000000" fill-rule="nonzero" fill-opacity="1" /><polyline clip-path="url(#clip082)" style="stroke:#009af9; stroke-linecap:round; stroke-linejoin:round; stroke-width:8; stroke-opacity:1; fill:none" points="219.38,1386.4 221.516,1358.42 223.651,1331.49 225.787,1305.55 227.922,1280.59 230.058,1256.55 232.193,1233.42 234.329,1211.15 236.464,1189.73 238.6,1169.12 240.735,1149.29 242.871,1130.22 245.006,1111.88 247.142,1094.25 249.277,1077.29 251.413,1061 253.548,1045.34 255.684,1030.29 257.819,1015.83 259.955,1001.95 262.09,988.621 264.226,975.823 266.361,963.54 268.497,951.754 270.632,940.448 272.768,929.605 274.903,919.209 277.039,909.245 279.174,899.698 281.31,890.553 283.445,881.796 285.581,873.414 287.717,865.394 289.852,857.724 291.988,850.391 294.123,843.384 296.259,836.691 298.394,830.302 300.53,824.205 302.665,818.391 304.801,812.849 306.936,807.57 309.072,802.545 311.207,797.765 313.343,793.221 315.478,788.905 317.614,784.81 319.749,780.928 321.885,777.25 324.02,773.771 326.156,770.483 328.291,767.379 330.427,764.453 332.562,761.698 334.698,759.108 336.833,756.678 338.969,754.401 341.104,752.271 343.24,750.285 345.375,748.436 347.511,746.72 349.646,745.132 351.782,743.668 353.917,742.323 356.053,741.094 358.188,739.975 360.324,738.963 362.459,738.055 364.595,737.246 366.73,736.532 368.866,735.91 371.001,735.377 373.137,734.929 375.272,734.563 377.408,734.276 379.544,734.065 381.679,733.927 383.815,733.859 385.95,733.859 388.086,733.925 390.221,734.054 392.357,734.243 394.492,734.491 396.628,734.795 398.763,735.154 400.899,735.565 403.034,736.025 405.17,736.534 407.305,737.089 409.441,737.689 411.576,738.331 413.712,739.014 415.847,739.736 417.983,740.495 420.118,741.29 422.254,742.119 424.389,742.982 426.525,743.875 428.66,744.799 430.796,745.751 432.931,746.731 435.067,747.738 437.202,748.771 439.338,749.827 441.473,750.908 443.609,752.011 445.744,753.135 447.88,754.28 450.015,755.445 452.151,756.628 454.286,757.829 456.422,759.046 458.557,760.28 460.693,761.529 462.828,762.792 464.964,764.069 467.099,765.359 469.235,766.66 471.37,767.973 473.506,769.296 475.642,770.63 477.777,771.972 479.913,773.323 482.048,774.682 484.184,776.048 486.319,777.422 488.455,778.802 490.59,780.188 492.726,781.58 494.861,782.978 496.997,784.38 499.132,785.787 501.268,787.198 503.403,788.613 505.539,790.031 507.674,791.451 509.81,792.875 511.945,794.3 514.081,795.728 516.216,797.157 518.352,798.587 520.487,800.017 522.623,801.448 524.758,802.879 526.894,804.31 529.029,805.74 531.165,807.17 533.3,808.598 535.436,810.024 537.571,811.449 539.707,812.871 541.842,814.291 543.978,815.709 546.113,817.123 548.249,818.535 550.384,819.943 552.52,821.348 554.655,822.75 556.791,824.148 558.926,825.542 561.062,826.932 563.197,828.319 565.333,829.701 567.468,831.078 569.604,832.451 571.74,833.82 573.875,835.183 576.011,836.541 578.146,837.895 580.282,839.243 582.417,840.585 584.553,841.922 586.688,843.254 588.824,844.579 590.959,845.898 593.095,847.211 595.23,848.518 597.366,849.818 599.501,851.112 601.637,852.398 603.772,853.678 605.908,854.951 608.043,856.217 610.179,857.475 612.314,858.725 614.45,859.969 616.585,861.204 618.721,862.431 620.856,863.651 622.992,864.862 625.127,866.066 627.263,867.261 629.398,868.448 631.534,869.627 633.669,870.798 635.805,871.96 637.94,873.114 640.076,874.26 642.211,875.397 644.347,876.526 646.482,877.646 648.618,878.757 650.753,879.859 652.889,880.953 655.024,882.037 657.16,883.113 659.295,884.179 661.431,885.237 663.566,886.285 665.702,887.324 667.838,888.353 669.973,889.373 672.109,890.384 674.244,891.385 676.38,892.376 678.515,893.357 680.651,894.329 682.786,895.29 684.922,896.242 687.057,897.183 689.193,898.114 691.328,899.035 693.464,899.945 695.599,900.845 697.735,901.734 699.87,902.612 702.006,903.48 704.141,904.337 706.277,905.182 708.412,906.017 710.548,906.841 712.683,907.654 714.819,908.455 716.954,909.246 719.09,910.025 721.225,910.793 723.361,911.55 725.496,912.296 727.632,913.031 729.767,913.755 731.903,914.467 734.038,915.168 736.174,915.857 738.309,916.535 740.445,917.202 742.58,917.857 744.716,918.5 746.851,919.132 748.987,919.753 751.122,920.362 753.258,920.958 755.393,921.544 757.529,922.117 759.665,922.678 761.8,923.228 763.936,923.765 766.071,924.29 768.207,924.803 770.342,925.304 772.478,925.793 774.613,926.269 776.749,926.733 778.884,927.184 781.02,927.623 783.155,928.049 785.291,928.462 787.426,928.862 789.562,929.249 791.697,929.624 793.833,929.985 795.968,930.333 798.104,930.668 800.239,930.989 802.375,931.297 804.51,931.592 806.646,931.872 808.781,932.139 810.917,932.393 813.052,932.633 815.188,932.859 817.323,933.072 819.459,933.271 821.594,933.457 823.73,933.629 825.865,933.787 828.001,933.932 830.136,934.063 832.272,934.18 834.407,934.284 836.543,934.374 838.678,934.451 840.814,934.513 842.949,934.562 845.085,934.598 847.22,934.619 849.356,934.627 851.491,934.62 853.627,934.6 855.763,934.566 857.898,934.518 860.034,934.456 862.169,934.38 864.305,934.29 866.44,934.186 868.576,934.067 870.711,933.934 872.847,933.787 874.982,933.626 877.118,933.45 879.253,933.26 881.389,933.055 883.524,932.835 885.66,932.601 887.795,932.352 889.931,932.088 892.066,931.809 894.202,931.516 896.337,931.207 898.473,930.883 900.608,930.544 902.744,930.19 904.879,929.82 907.015,929.435 909.15,929.034 911.286,928.617 913.421,928.185 915.557,927.737 917.692,927.274 919.828,926.795 921.963,926.3 924.099,925.79 926.234,925.264 928.37,924.723 930.505,924.166 932.641,923.594 934.776,923.007 936.912,922.404 939.047,921.786 941.183,921.153 943.318,920.504 945.454,919.84 947.589,919.161 949.725,918.467 951.861,917.758 953.996,917.033 956.132,916.293 958.267,915.538 960.403,914.767 962.538,913.982 964.674,913.181 966.809,912.365 968.945,911.534 971.08,910.687 973.216,909.825 975.351,908.948 977.487,908.056 979.622,907.148 981.758,906.225 983.893,905.287 986.029,904.333 988.164,903.364 990.3,902.38 992.435,901.379 994.571,900.364 996.706,899.333 998.842,898.286 1000.98,897.223 1003.11,896.145 1005.25,895.051 1007.38,893.942 1009.52,892.816 1011.65,891.675 1013.79,890.517 1015.93,889.344 1018.06,888.154 1020.2,886.949 1022.33,885.727 1024.47,884.489 1026.6,883.234 1028.74,881.964 1030.87,880.677 1033.01,879.374 1035.15,878.055 1037.28,876.721 1039.42,875.37 1041.55,874.004 1043.69,872.623 1045.82,871.226 1047.96,869.813 1050.09,868.385 1052.23,866.942 1054.37,865.484 1056.5,864.011 1058.64,862.522 1060.77,861.019 1062.91,859.501 1065.04,857.968 1067.18,856.42 1069.31,854.857 1071.45,853.28 1073.58,851.688 1075.72,850.081 1077.86,848.46 1079.99,846.825 1082.13,845.175 1084.26,843.511 1086.4,841.832 1088.53,840.14 1090.67,838.432 1092.8,836.711 1094.94,834.976 1097.08,833.226 1099.21,831.463 1101.35,829.685 1103.48,827.893 1105.62,826.087 1107.75,824.268 1109.89,822.434 1112.02,820.586 1114.16,818.725 1116.29,816.849 1118.43,814.96 1120.57,813.056 1122.7,811.139 1124.84,809.208 1126.97,807.263 1129.11,805.304 1131.24,803.332 1133.38,801.345 1135.51,799.345 1137.65,797.33 1139.79,795.302 1141.92,793.26 1144.06,791.204 1146.19,789.135 1148.33,787.051 1150.46,784.954 1152.6,782.843 1154.73,780.72 1156.87,778.583 1159.01,776.434 1161.14,774.272 1163.28,772.098 1165.41,769.911 1167.55,767.712 1169.68,765.5 1171.82,763.277 1173.95,761.042 1176.09,758.795 1178.22,756.536 1180.36,754.265 1182.5,751.983 1184.63,749.69 1186.77,747.386 1188.9,745.07 1191.04,742.744 1193.17,740.406 1195.31,738.058 1197.44,735.699 1199.58,733.33 1201.72,730.95 1203.85,728.56 1205.99,726.16 1208.12,723.75 1210.26,721.329 1212.39,718.899 1214.53,716.46 1216.66,714.01 1218.8,711.551 1220.93,709.083 1223.07,706.605 1225.21,704.118 1227.34,701.622 1229.48,699.117 1231.61,696.604 1233.75,694.081 1235.88,691.55 1238.02,689.01 1240.15,686.462 1242.29,683.905 1244.43,681.34 1246.56,678.767 1248.7,676.186 1250.83,673.597 1252.97,671 1255.1,668.395 1257.24,665.783 1259.37,663.163 1261.51,660.536 1263.65,657.901 1265.78,655.259 1267.92,652.61 1270.05,649.953 1272.19,647.29 1274.32,644.62 1276.46,641.943 1278.59,639.259 1280.73,636.569 1282.86,633.875 1285,631.176 1287.14,628.473 1289.27,625.766 1291.41,623.054 1293.54,620.338 1295.68,617.618 1297.81,614.894 1299.95,612.165 1302.08,609.433 1304.22,606.696 1306.36,603.955 1308.49,601.211 1310.63,598.462 1312.76,595.71 1314.9,592.954 1317.03,590.195 1319.17,587.432 1321.3,584.665 1323.44,581.895 1325.57,579.122 1327.71,576.345 1329.85,573.565 1331.98,570.783 1334.12,567.997 1336.25,565.209 1338.39,562.418 1340.52,559.625 1342.66,556.829 1344.79,554.031 1346.93,551.231 1349.07,548.43 1351.2,545.626 1353.34,542.821 1355.47,540.014 1357.61,537.206 1359.74,534.397 1361.88,531.587 1364.01,528.776 1366.15,525.965 1368.29,523.153 1370.42,520.341 1372.56,517.53 1374.69,514.718 1376.83,511.907 1378.96,509.096 1381.1,506.287 1383.23,503.479 1385.37,500.671 1387.5,497.866 1389.64,495.062 1391.78,492.261 1393.91,489.462 1396.05,486.665 1398.18,483.871 1400.32,481.08 1402.45,478.293 1404.59,475.509 1406.72,472.73 1408.86,469.954 1411,467.183 1413.13,464.417 1415.27,461.656 1417.4,458.9 1419.54,456.15 1421.67,453.406 1423.81,450.668 1425.94,447.937 1428.08,445.213 1430.22,442.496 1432.35,439.787 1434.49,437.086 1436.62,434.395 1438.76,431.714 1440.89,429.043 1443.03,426.381 1445.16,423.729 1447.3,421.085 1449.43,418.45 1451.57,415.824 1453.71,413.206 1455.84,410.597 1457.98,407.995 1460.11,405.401 1462.25,402.815 1464.38,400.236 1466.52,397.665 1468.65,395.101 1470.79,392.544 1472.93,389.994 1475.06,387.451 1477.2,384.916 1479.33,382.387 1481.47,379.866 1483.6,377.351 1485.74,374.844 1487.87,372.343 1490.01,369.85 1492.14,367.364 1494.28,364.885 1496.42,362.413 1498.55,359.949 1500.69,357.492 1502.82,355.043 1504.96,352.602 1507.09,350.169 1509.23,347.743 1511.36,345.327 1513.5,342.919 1515.64,340.519 1517.77,338.129 1519.91,335.748 1522.04,333.377 1524.18,331.015 1526.31,328.663 1528.45,326.322 1530.58,323.992 1532.72,321.673 1534.86,319.365 1536.99,317.069 1539.13,314.786 1541.26,312.514 1543.4,310.256 1545.53,308.012 1547.67,305.781 1549.8,303.565 1551.94,301.363 1554.07,299.177 1556.21,297.007 1558.35,294.853 1560.48,292.716 1562.62,290.596 1564.75,288.494 1566.89,286.411 1569.02,284.347 1571.16,282.303 1573.29,280.279 1575.43,278.276 1577.57,276.295 1579.7,274.335 1581.84,272.396 1583.97,270.477 1586.11,268.577 1588.24,266.696 1590.38,264.832 1592.51,262.987 1594.65,261.159 1596.78,259.348 1598.92,257.553 1601.06,255.775 1603.19,254.012 1605.33,252.266 1607.46,250.534 1609.6,248.817 1611.73,247.115 1613.87,245.428 1616,243.754 1618.14,242.095 1620.28,240.45 1622.41,238.819 1624.55,237.201 1626.68,235.596 1628.82,234.005 1630.95,232.428 1633.09,230.864 1635.22,229.313 1637.36,227.776 1639.5,226.251 1641.63,224.741 1643.77,223.243 1645.9,221.76 1648.04,220.29 1650.17,218.834 1652.31,217.391 1654.44,215.963 1656.58,214.549 1658.71,213.15 1660.85,211.766 1662.99,210.396 1665.12,209.042 1667.26,207.704 1669.39,206.382 1671.53,205.076 1673.66,203.786 1675.8,202.514 1677.93,201.259 1680.07,200.022 1682.21,198.804 1684.34,197.604 1686.48,196.424 1688.61,195.263 1690.75,194.123 1692.88,193.004 1695.02,191.907 1697.15,190.832 1699.29,189.78 1701.42,188.751 1703.56,187.746 1705.7,186.766 1707.83,185.811 1709.97,184.883 1712.1,183.982 1714.24,183.104 1716.37,182.249 1718.51,181.418 1720.64,180.608 1722.78,179.819 1724.92,179.051 1727.05,178.302 1729.19,177.573 1731.32,176.863 1733.46,176.17 1735.59,175.496 1737.73,174.838 1739.86,174.197 1742,173.573 1744.14,172.964 1746.27,172.371 1748.41,171.792 1750.54,171.229 1752.68,170.68 1754.81,170.145 1756.95,169.624 1759.08,169.117 1761.22,168.623 1763.35,168.142 1765.49,167.675 1767.63,167.221 1769.76,166.78 1771.9,166.352 1774.03,165.937 1776.17,165.535 1778.3,165.146 1780.44,164.77 1782.57,164.407 1784.71,164.057 1786.85,163.721 1788.98,163.398 1791.12,163.089 1793.25,162.794 1795.39,162.513 1797.52,162.246 1799.66,161.994 1801.79,161.758 1803.93,161.537 1806.07,161.332 1808.2,161.143 1810.34,160.97 1812.47,160.815 1814.61,160.678 1816.74,160.559 1818.88,160.458 1821.01,160.377 1823.15,160.316 1825.28,160.276 1827.42,160.256 1829.56,160.259 1831.69,160.284 1833.83,160.333 1835.96,160.406 1838.1,160.503 1840.23,160.627 1842.37,160.773 1844.5,160.939 1846.64,161.125 1848.78,161.329 1850.91,161.551 1853.05,161.791 1855.18,162.047 1857.32,162.32 1859.45,162.607 1861.59,162.91 1863.72,163.227 1865.86,163.557 1867.99,163.901 1870.13,164.257 1872.27,164.626 1874.4,165.007 1876.54,165.399 1878.67,165.802 1880.81,166.216 1882.94,166.641 1885.08,167.075 1887.21,167.52 1889.35,167.975 1891.49,168.439 1893.62,168.912 1895.76,169.395 1897.89,169.887 1900.03,170.388 1902.16,170.898 1904.3,171.417 1906.43,171.945 1908.57,172.482 1910.71,173.029 1912.84,173.584 1914.98,174.149 1917.11,174.723 1919.25,175.306 1921.38,175.9 1923.52,176.504 1925.65,177.117 1927.79,177.742 1929.92,178.377 1932.06,179.024 1934.2,179.682 1936.33,180.352 1938.47,181.034 1940.6,181.729 1942.74,182.438 1944.87,183.16 1947.01,183.897 1949.14,184.649 1951.28,185.416 1953.42,186.199 1955.55,186.999 1957.69,187.817 1959.82,188.653 1961.96,189.507 1964.09,190.381 1966.23,191.273 1968.36,192.178 1970.5,193.097 1972.63,194.029 1974.77,194.974 1976.91,195.93 1979.04,196.897 1981.18,197.875 1983.31,198.862 1985.45,199.859 1987.58,200.865 1989.72,201.879 1991.85,202.901 1993.99,203.93 1996.13,204.967 1998.26,206.01 2000.4,207.059 2002.53,208.115 2004.67,209.176 2006.8,210.242 2008.94,211.314 2011.07,212.391 2013.21,213.472 2015.35,214.558 2017.48,215.648 2019.62,216.743 2021.75,217.842 2023.89,218.945 2026.02,220.052 2028.16,221.163 2030.29,222.278 2032.43,223.397 2034.56,224.521 2036.7,225.648 2038.84,226.781 2040.97,227.917 2043.11,229.059 2045.24,230.205 2047.38,231.356 2049.51,232.513 2051.65,233.675 2053.78,234.843 2055.92,236.017 2058.06,237.198 2060.19,238.386 2062.33,239.581 2064.46,240.784 2066.6,241.995 2068.73,243.215 2070.87,244.444 2073,245.683 2075.14,246.931 2077.27,248.191 2079.41,249.463 2081.55,250.746 2083.68,252.042 2085.82,253.352 2087.95,254.673 2090.09,256.003 2092.22,257.341 2094.36,258.686 2096.49,260.038 2098.63,261.397 2100.77,262.761 2102.9,264.13 2105.04,265.505 2107.17,266.883 2109.31,268.266 2111.44,269.652 2113.58,271.042 2115.71,272.434 2117.85,273.829 2119.99,275.225 2122.12,276.624 2124.26,278.025 2126.39,279.427 2128.53,280.83 2130.66,282.234 2132.8,283.638 2134.93,285.044 2137.07,286.45 2139.2,287.856 2141.34,289.263 2143.48,290.67 2145.61,292.077 2147.75,293.485 2149.88,294.892 2152.02,296.3 2154.15,297.709 2156.29,299.118 2158.42,300.527 2160.56,301.937 2162.7,303.348 2164.83,304.76 2166.97,306.172 2169.1,307.587 2171.24,309.003 2173.37,310.42 2175.51,311.84 2177.64,313.262 2179.78,314.688 2181.92,316.116 2184.05,317.548 2186.19,318.983 2188.32,320.423 2190.46,321.868 2192.59,323.318 2194.73,324.774 2196.86,326.236 2199,327.705 2201.13,329.181 2203.27,330.666 2205.41,332.158 2207.54,333.659 2209.68,335.164 2211.81,336.674 2213.95,338.188 2216.08,339.704 2218.22,341.224 2220.35,342.745 2222.49,344.269 2224.63,345.794 2226.76,347.32 2228.9,348.847 2231.03,350.375 2233.17,351.902 2235.3,353.429 2237.44,354.956 2239.57,356.482 2241.71,358.007 2243.84,359.531 2245.98,361.053 2248.12,362.573 2250.25,364.092 2252.39,365.609 2254.52,367.125 2256.66,368.638 2258.79,370.148 2260.93,371.657 2263.06,373.164 2265.2,374.668 2267.34,376.17 2269.47,377.67 2271.61,379.168 2273.74,380.663 2275.88,382.157 2278.01,383.649 2280.15,385.14 2282.28,386.628 2284.42,388.116 2286.56,389.602 2288.69,391.088 2290.83,392.573 2292.96,394.058 2295.1,395.542 2297.23,397.027 2299.37,398.513 2301.5,399.999 2303.64,401.487 2305.77,402.976 2307.91,404.467 2310.05,405.961 2312.18,407.459 2314.32,408.959 2316.45,410.464 2318.59,411.973 2320.72,413.487 2322.86,415.007 2324.99,416.533 2327.13,418.06 2329.27,419.585 2331.4,421.11 2333.54,422.633 2335.67,424.154 2337.81,425.675 2339.94,427.194 2342.08,428.713 2344.21,430.23 2346.35,431.745 2348.48,433.26 2350.62,434.774 2352.76,436.286 "/>
<circle clip-path="url(#clip082)" cx="271.264" cy="943.117" r="18" fill="#e26f46" fill-rule="evenodd" fill-opacity="1" stroke="#000000" stroke-opacity="1" stroke-width="3.2"/>
<circle clip-path="url(#clip082)" cx="348.015" cy="721.477" r="18" fill="#e26f46" fill-rule="evenodd" fill-opacity="1" stroke="#000000" stroke-opacity="1" stroke-width="3.2"/>
<circle clip-path="url(#clip082)" cx="496.145" cy="808.55" r="18" fill="#e26f46" fill-rule="evenodd" fill-opacity="1" stroke="#000000" stroke-opacity="1" stroke-width="3.2"/>
<circle clip-path="url(#clip082)" cx="886.808" cy="895.622" r="18" fill="#e26f46" fill-rule="evenodd" fill-opacity="1" stroke="#000000" stroke-opacity="1" stroke-width="3.2"/>
<circle clip-path="url(#clip082)" cx="1155.44" cy="903.538" r="18" fill="#e26f46" fill-rule="evenodd" fill-opacity="1" stroke="#000000" stroke-opacity="1" stroke-width="3.2"/>
<circle clip-path="url(#clip082)" cx="1312.78" cy="468.175" r="18" fill="#e26f46" fill-rule="evenodd" fill-opacity="1" stroke="#000000" stroke-opacity="1" stroke-width="3.2"/>
<circle clip-path="url(#clip082)" cx="1376.48" cy="420.681" r="18" fill="#e26f46" fill-rule="evenodd" fill-opacity="1" stroke="#000000" stroke-opacity="1" stroke-width="3.2"/>
<circle clip-path="url(#clip082)" cx="1596.91" cy="333.608" r="18" fill="#e26f46" fill-rule="evenodd" fill-opacity="1" stroke="#000000" stroke-opacity="1" stroke-width="3.2"/>
<circle clip-path="url(#clip082)" cx="1655.86" cy="246.535" r="18" fill="#e26f46" fill-rule="evenodd" fill-opacity="1" stroke="#000000" stroke-opacity="1" stroke-width="3.2"/>
<circle clip-path="url(#clip082)" cx="2260.65" cy="357.355" r="18" fill="#e26f46" fill-rule="evenodd" fill-opacity="1" stroke="#000000" stroke-opacity="1" stroke-width="3.2"/>
<path clip-path="url(#clip080)" d="M290.493 322.316 L853.203 322.316 L853.203 166.796 L290.493 166.796  Z" fill="#ffffff" fill-rule="evenodd" fill-opacity="1"/>
<polyline clip-path="url(#clip080)" style="stroke:#000000; stroke-linecap:round; stroke-linejoin:round; stroke-width:4; stroke-opacity:1; fill:none" points="290.493,322.316 853.203,322.316 853.203,166.796 290.493,166.796 290.493,322.316 "/>
<polyline clip-path="url(#clip080)" style="stroke:#009af9; stroke-linecap:round; stroke-linejoin:round; stroke-width:8; stroke-opacity:1; fill:none" points="314.197,218.636 456.422,218.636 "/>
<path clip-path="url(#clip080)" d="M484.802 219.411 L484.802 232.073 L492.302 232.073 Q496.075 232.073 497.881 230.522 Q499.709 228.948 499.709 225.731 Q499.709 222.49 497.881 220.962 Q496.075 219.411 492.302 219.411 L484.802 219.411 M484.802 205.198 L484.802 215.615 L491.723 215.615 Q495.149 215.615 496.816 214.342 Q498.506 213.045 498.506 210.407 Q498.506 207.791 496.816 206.495 Q495.149 205.198 491.723 205.198 L484.802 205.198 M480.126 201.356 L492.07 201.356 Q497.418 201.356 500.311 203.578 Q503.205 205.8 503.205 209.897 Q503.205 213.069 501.723 214.944 Q500.242 216.819 497.371 217.282 Q500.82 218.022 502.719 220.383 Q504.64 222.721 504.64 226.24 Q504.64 230.869 501.492 233.393 Q498.344 235.916 492.533 235.916 L480.126 235.916 L480.126 201.356 Z" fill="#000000" fill-rule="nonzero" fill-opacity="1" /><path clip-path="url(#clip080)" d="M512.464 199.897 L516.723 199.897 L516.723 235.916 L512.464 235.916 L512.464 199.897 Z" fill="#000000" fill-rule="nonzero" fill-opacity="1" /><path clip-path="url(#clip080)" d="M535.681 212.976 Q532.255 212.976 530.265 215.661 Q528.274 218.323 528.274 222.976 Q528.274 227.629 530.242 230.314 Q532.232 232.976 535.681 232.976 Q539.084 232.976 541.075 230.291 Q543.066 227.606 543.066 222.976 Q543.066 218.37 541.075 215.684 Q539.084 212.976 535.681 212.976 M535.681 209.365 Q541.237 209.365 544.408 212.976 Q547.579 216.587 547.579 222.976 Q547.579 229.342 544.408 232.976 Q541.237 236.587 535.681 236.587 Q530.103 236.587 526.931 232.976 Q523.783 229.342 523.783 222.976 Q523.783 216.587 526.931 212.976 Q530.103 209.365 535.681 209.365 Z" fill="#000000" fill-rule="nonzero" fill-opacity="1" /><path clip-path="url(#clip080)" d="M564.686 212.976 Q561.26 212.976 559.269 215.661 Q557.278 218.323 557.278 222.976 Q557.278 227.629 559.246 230.314 Q561.237 232.976 564.686 232.976 Q568.089 232.976 570.079 230.291 Q572.07 227.606 572.07 222.976 Q572.07 218.37 570.079 215.684 Q568.089 212.976 564.686 212.976 M564.686 209.365 Q570.241 209.365 573.413 212.976 Q576.584 216.587 576.584 222.976 Q576.584 229.342 573.413 232.976 Q570.241 236.587 564.686 236.587 Q559.107 236.587 555.936 232.976 Q552.788 229.342 552.788 222.976 Q552.788 216.587 555.936 212.976 Q559.107 209.365 564.686 209.365 Z" fill="#000000" fill-rule="nonzero" fill-opacity="1" /><path clip-path="url(#clip080)" d="M600.704 213.925 L600.704 199.897 L604.963 199.897 L604.963 235.916 L600.704 235.916 L600.704 232.027 Q599.362 234.342 597.301 235.476 Q595.264 236.587 592.394 236.587 Q587.695 236.587 584.732 232.837 Q581.792 229.087 581.792 222.976 Q581.792 216.865 584.732 213.115 Q587.695 209.365 592.394 209.365 Q595.264 209.365 597.301 210.499 Q599.362 211.61 600.704 213.925 M586.19 222.976 Q586.19 227.675 588.112 230.36 Q590.056 233.022 593.436 233.022 Q596.815 233.022 598.76 230.36 Q600.704 227.675 600.704 222.976 Q600.704 218.277 598.76 215.615 Q596.815 212.93 593.436 212.93 Q590.056 212.93 588.112 215.615 Q586.19 218.277 586.19 222.976 Z" fill="#000000" fill-rule="nonzero" fill-opacity="1" /><circle clip-path="url(#clip080)" cx="385.309" cy="270.476" r="20.9455" fill="#e26f46" fill-rule="evenodd" fill-opacity="1" stroke="#000000" stroke-opacity="1" stroke-width="3.72364"/>
<path clip-path="url(#clip080)" d="M496.145 256.367 Q491.052 256.367 488.043 260.163 Q485.057 263.96 485.057 270.51 Q485.057 277.038 488.043 280.834 Q491.052 284.631 496.145 284.631 Q501.237 284.631 504.2 280.834 Q507.186 277.038 507.186 270.51 Q507.186 263.96 504.2 260.163 Q501.237 256.367 496.145 256.367 M496.145 252.571 Q503.413 252.571 507.765 257.455 Q512.117 262.316 512.117 270.51 Q512.117 278.682 507.765 283.566 Q503.413 288.427 496.145 288.427 Q488.853 288.427 484.478 283.566 Q480.126 278.705 480.126 270.51 Q480.126 262.316 484.478 257.455 Q488.853 252.571 496.145 252.571 Z" fill="#000000" fill-rule="nonzero" fill-opacity="1" /><path clip-path="url(#clip080)" d="M537.857 274.816 Q537.857 270.117 535.913 267.455 Q533.992 264.77 530.612 264.77 Q527.232 264.77 525.288 267.455 Q523.367 270.117 523.367 274.816 Q523.367 279.515 525.288 282.2 Q527.232 284.862 530.612 284.862 Q533.992 284.862 535.913 282.2 Q537.857 279.515 537.857 274.816 M523.367 265.765 Q524.709 263.45 526.746 262.339 Q528.806 261.205 531.654 261.205 Q536.376 261.205 539.316 264.955 Q542.279 268.705 542.279 274.816 Q542.279 280.927 539.316 284.677 Q536.376 288.427 531.654 288.427 Q528.806 288.427 526.746 287.316 Q524.709 286.182 523.367 283.867 L523.367 287.756 L519.084 287.756 L519.084 251.737 L523.367 251.737 L523.367 265.765 Z" fill="#000000" fill-rule="nonzero" fill-opacity="1" /><path clip-path="url(#clip080)" d="M565.866 262.594 L565.866 266.622 Q564.061 265.696 562.116 265.233 Q560.172 264.77 558.089 264.77 Q554.917 264.77 553.32 265.742 Q551.746 266.714 551.746 268.659 Q551.746 270.14 552.88 270.997 Q554.015 271.83 557.44 272.594 L558.899 272.918 Q563.436 273.89 565.334 275.672 Q567.255 277.432 567.255 280.603 Q567.255 284.214 564.385 286.321 Q561.538 288.427 556.538 288.427 Q554.454 288.427 552.186 288.01 Q549.941 287.617 547.441 286.807 L547.441 282.409 Q549.802 283.635 552.093 284.26 Q554.385 284.862 556.63 284.862 Q559.64 284.862 561.26 283.844 Q562.88 282.802 562.88 280.927 Q562.88 279.191 561.7 278.265 Q560.542 277.339 556.584 276.483 L555.103 276.135 Q551.144 275.302 549.385 273.589 Q547.626 271.853 547.626 268.844 Q547.626 265.186 550.218 263.196 Q552.811 261.205 557.579 261.205 Q559.94 261.205 562.024 261.552 Q564.107 261.899 565.866 262.594 Z" fill="#000000" fill-rule="nonzero" fill-opacity="1" /><path clip-path="url(#clip080)" d="M596.213 273.728 L596.213 275.811 L576.63 275.811 Q576.908 280.209 579.269 282.524 Q581.653 284.816 585.889 284.816 Q588.343 284.816 590.635 284.214 Q592.95 283.612 595.218 282.409 L595.218 286.436 Q592.926 287.408 590.519 287.918 Q588.112 288.427 585.635 288.427 Q579.431 288.427 575.797 284.816 Q572.186 281.205 572.186 275.047 Q572.186 268.682 575.612 264.955 Q579.061 261.205 584.894 261.205 Q590.125 261.205 593.158 264.585 Q596.213 267.941 596.213 273.728 M591.954 272.478 Q591.908 268.983 589.987 266.899 Q588.088 264.816 584.94 264.816 Q581.376 264.816 579.223 266.83 Q577.093 268.844 576.769 272.501 L591.954 272.478 Z" fill="#000000" fill-rule="nonzero" fill-opacity="1" /><path clip-path="url(#clip080)" d="M618.227 265.811 Q617.51 265.395 616.653 265.21 Q615.82 265.001 614.801 265.001 Q611.19 265.001 609.246 267.362 Q607.324 269.7 607.324 274.098 L607.324 287.756 L603.042 287.756 L603.042 261.83 L607.324 261.83 L607.324 265.858 Q608.667 263.497 610.82 262.362 Q612.973 261.205 616.051 261.205 Q616.491 261.205 617.023 261.274 Q617.556 261.321 618.204 261.436 L618.227 265.811 Z" fill="#000000" fill-rule="nonzero" fill-opacity="1" /><path clip-path="url(#clip080)" d="M619.639 261.83 L624.153 261.83 L632.255 283.589 L640.357 261.83 L644.871 261.83 L635.148 287.756 L629.361 287.756 L619.639 261.83 Z" fill="#000000" fill-rule="nonzero" fill-opacity="1" /><path clip-path="url(#clip080)" d="M672.926 273.728 L672.926 275.811 L653.343 275.811 Q653.621 280.209 655.982 282.524 Q658.366 284.816 662.602 284.816 Q665.056 284.816 667.347 284.214 Q669.662 283.612 671.931 282.409 L671.931 286.436 Q669.639 287.408 667.232 287.918 Q664.824 288.427 662.347 288.427 Q656.144 288.427 652.509 284.816 Q648.898 281.205 648.898 275.047 Q648.898 268.682 652.324 264.955 Q655.773 261.205 661.607 261.205 Q666.838 261.205 669.87 264.585 Q672.926 267.941 672.926 273.728 M668.667 272.478 Q668.62 268.983 666.699 266.899 Q664.801 264.816 661.653 264.816 Q658.088 264.816 655.935 266.83 Q653.806 268.844 653.482 272.501 L668.667 272.478 Z" fill="#000000" fill-rule="nonzero" fill-opacity="1" /><path clip-path="url(#clip080)" d="M696.977 265.765 L696.977 251.737 L701.236 251.737 L701.236 287.756 L696.977 287.756 L696.977 283.867 Q695.634 286.182 693.574 287.316 Q691.537 288.427 688.667 288.427 Q683.968 288.427 681.005 284.677 Q678.065 280.927 678.065 274.816 Q678.065 268.705 681.005 264.955 Q683.968 261.205 688.667 261.205 Q691.537 261.205 693.574 262.339 Q695.634 263.45 696.977 265.765 M682.463 274.816 Q682.463 279.515 684.384 282.2 Q686.329 284.862 689.708 284.862 Q693.088 284.862 695.032 282.2 Q696.977 279.515 696.977 274.816 Q696.977 270.117 695.032 267.455 Q693.088 264.77 689.708 264.77 Q686.329 264.77 684.384 267.455 Q682.463 270.117 682.463 274.816 Z" fill="#000000" fill-rule="nonzero" fill-opacity="1" /><path clip-path="url(#clip080)" d="M729.94 257.038 L729.94 283.913 L735.588 283.913 Q742.74 283.913 746.051 280.672 Q749.384 277.432 749.384 270.441 Q749.384 263.497 746.051 260.279 Q742.74 257.038 735.588 257.038 L729.94 257.038 M725.264 253.196 L734.87 253.196 Q744.916 253.196 749.615 257.386 Q754.314 261.552 754.314 270.441 Q754.314 279.376 749.592 283.566 Q744.87 287.756 734.87 287.756 L725.264 287.756 L725.264 253.196 Z" fill="#000000" fill-rule="nonzero" fill-opacity="1" /><path clip-path="url(#clip080)" d="M773.365 274.723 Q768.203 274.723 766.213 275.904 Q764.222 277.084 764.222 279.932 Q764.222 282.2 765.703 283.543 Q767.208 284.862 769.777 284.862 Q773.319 284.862 775.449 282.362 Q777.601 279.839 777.601 275.672 L777.601 274.723 L773.365 274.723 M781.861 272.964 L781.861 287.756 L777.601 287.756 L777.601 283.821 Q776.143 286.182 773.967 287.316 Q771.791 288.427 768.643 288.427 Q764.662 288.427 762.3 286.205 Q759.963 283.959 759.963 280.209 Q759.963 275.834 762.879 273.612 Q765.819 271.39 771.629 271.39 L777.601 271.39 L777.601 270.973 Q777.601 268.034 775.657 266.436 Q773.736 264.816 770.24 264.816 Q768.018 264.816 765.912 265.348 Q763.805 265.881 761.861 266.946 L761.861 263.01 Q764.199 262.108 766.398 261.668 Q768.597 261.205 770.68 261.205 Q776.305 261.205 779.083 264.122 Q781.861 267.038 781.861 272.964 Z" fill="#000000" fill-rule="nonzero" fill-opacity="1" /><path clip-path="url(#clip080)" d="M794.847 254.469 L794.847 261.83 L803.62 261.83 L803.62 265.14 L794.847 265.14 L794.847 279.214 Q794.847 282.385 795.703 283.288 Q796.583 284.191 799.245 284.191 L803.62 284.191 L803.62 287.756 L799.245 287.756 Q794.314 287.756 792.439 285.927 Q790.564 284.075 790.564 279.214 L790.564 265.14 L787.439 265.14 L787.439 261.83 L790.564 261.83 L790.564 254.469 L794.847 254.469 Z" fill="#000000" fill-rule="nonzero" fill-opacity="1" /><path clip-path="url(#clip080)" d="M821.004 274.723 Q815.842 274.723 813.851 275.904 Q811.86 277.084 811.86 279.932 Q811.86 282.2 813.342 283.543 Q814.847 284.862 817.416 284.862 Q820.958 284.862 823.087 282.362 Q825.24 279.839 825.24 275.672 L825.24 274.723 L821.004 274.723 M829.499 272.964 L829.499 287.756 L825.24 287.756 L825.24 283.821 Q823.782 286.182 821.606 287.316 Q819.43 288.427 816.282 288.427 Q812.3 288.427 809.939 286.205 Q807.601 283.959 807.601 280.209 Q807.601 275.834 810.518 273.612 Q813.458 271.39 819.268 271.39 L825.24 271.39 L825.24 270.973 Q825.24 268.034 823.296 266.436 Q821.374 264.816 817.879 264.816 Q815.657 264.816 813.55 265.348 Q811.444 265.881 809.499 266.946 L809.499 263.01 Q811.837 262.108 814.036 261.668 Q816.235 261.205 818.319 261.205 Q823.944 261.205 826.721 264.122 Q829.499 267.038 829.499 272.964 Z" fill="#000000" fill-rule="nonzero" fill-opacity="1" /></svg>
