<?xml version="1.0" encoding="utf-8"?>
<svg xmlns="http://www.w3.org/2000/svg" xmlns:xlink="http://www.w3.org/1999/xlink" width="600" height="400" viewBox="0 0 2400 1600">
<defs>
  <clipPath id="clip720">
    <rect x="0" y="0" width="2400" height="1600"/>
  </clipPath>
</defs>
<path clip-path="url(#clip720)" d="M0 1600 L2400 1600 L2400 0 L0 0  Z" fill="#ffffff" fill-rule="evenodd" fill-opacity="1"/>
<defs>
  <clipPath id="clip721">
    <rect x="175" y="123" width="2178" height="1301"/>
  </clipPath>
</defs>
<path clip-path="url(#clip720)" d="M219.38 1423.18 L2352.76 1423.18 L2352.76 123.472 L219.38 123.472  Z" fill="#ffffff" fill-rule="evenodd" fill-opacity="1"/>
<defs>
  <clipPath id="clip722">
    <rect x="219" y="123" width="2134" height="1301"/>
  </clipPath>
</defs>
<polyline clip-path="url(#clip722)" style="stroke:#000000; stroke-linecap:round; stroke-linejoin:round; stroke-width:2; stroke-opacity:0.1; fill:none" points="219.38,1423.18 219.38,123.472 "/>
<polyline clip-path="url(#clip722)" style="stroke:#000000; stroke-linecap:round; stroke-linejoin:round; stroke-width:2; stroke-opacity:0.1; fill:none" points="659.1,1423.18 659.1,123.472 "/>
<polyline clip-path="url(#clip722)" style="stroke:#000000; stroke-linecap:round; stroke-linejoin:round; stroke-width:2; stroke-opacity:0.1; fill:none" points="1098.82,1423.18 1098.82,123.472 "/>
<polyline clip-path="url(#clip722)" style="stroke:#000000; stroke-linecap:round; stroke-linejoin:round; stroke-width:2; stroke-opacity:0.1; fill:none" points="1538.54,1423.18 1538.54,123.472 "/>
<polyline clip-path="url(#clip722)" style="stroke:#000000; stroke-linecap:round; stroke-linejoin:round; stroke-width:2; stroke-opacity:0.1; fill:none" points="1978.26,1423.18 1978.26,123.472 "/>
<polyline clip-path="url(#clip722)" style="stroke:#000000; stroke-linecap:round; stroke-linejoin:round; stroke-width:2; stroke-opacity:0.1; fill:none" points="219.38,1386.4 2352.76,1386.4 "/>
<polyline clip-path="url(#clip722)" style="stroke:#000000; stroke-linecap:round; stroke-linejoin:round; stroke-width:2; stroke-opacity:0.1; fill:none" points="219.38,1162.76 2352.76,1162.76 "/>
<polyline clip-path="url(#clip722)" style="stroke:#000000; stroke-linecap:round; stroke-linejoin:round; stroke-width:2; stroke-opacity:0.1; fill:none" points="219.38,939.12 2352.76,939.12 "/>
<polyline clip-path="url(#clip722)" style="stroke:#000000; stroke-linecap:round; stroke-linejoin:round; stroke-width:2; stroke-opacity:0.1; fill:none" points="219.38,715.482 2352.76,715.482 "/>
<polyline clip-path="url(#clip722)" style="stroke:#000000; stroke-linecap:round; stroke-linejoin:round; stroke-width:2; stroke-opacity:0.1; fill:none" points="219.38,491.844 2352.76,491.844 "/>
<polyline clip-path="url(#clip722)" style="stroke:#000000; stroke-linecap:round; stroke-linejoin:round; stroke-width:2; stroke-opacity:0.1; fill:none" points="219.38,268.207 2352.76,268.207 "/>
<polyline clip-path="url(#clip720)" style="stroke:#000000; stroke-linecap:round; stroke-linejoin:round; stroke-width:4; stroke-opacity:1; fill:none" points="219.38,1423.18 2352.76,1423.18 "/>
<polyline clip-path="url(#clip720)" style="stroke:#000000; stroke-linecap:round; stroke-linejoin:round; stroke-width:4; stroke-opacity:1; fill:none" points="219.38,1423.18 219.38,1404.28 "/>
<polyline clip-path="url(#clip720)" style="stroke:#000000; stroke-linecap:round; stroke-linejoin:round; stroke-width:4; stroke-opacity:1; fill:none" points="659.1,1423.18 659.1,1404.28 "/>
<polyline clip-path="url(#clip720)" style="stroke:#000000; stroke-linecap:round; stroke-linejoin:round; stroke-width:4; stroke-opacity:1; fill:none" points="1098.82,1423.18 1098.82,1404.28 "/>
<polyline clip-path="url(#clip720)" style="stroke:#000000; stroke-linecap:round; stroke-linejoin:round; stroke-width:4; stroke-opacity:1; fill:none" points="1538.54,1423.18 1538.54,1404.28 "/>
<polyline clip-path="url(#clip720)" style="stroke:#000000; stroke-linecap:round; stroke-linejoin:round; stroke-width:4; stroke-opacity:1; fill:none" points="1978.26,1423.18 1978.26,1404.28 "/>
<path clip-path="url(#clip720)" d="M219.38 1454.1 Q215.769 1454.1 213.94 1457.66 Q212.135 1461.2 212.135 1468.33 Q212.135 1475.44 213.94 1479.01 Q215.769 1482.55 219.38 1482.55 Q223.014 1482.55 224.82 1479.01 Q226.649 1475.44 226.649 1468.33 Q226.649 1461.2 224.82 1457.66 Q223.014 1454.1 219.38 1454.1 M219.38 1450.39 Q225.19 1450.39 228.246 1455 Q231.325 1459.58 231.325 1468.33 Q231.325 1477.06 228.246 1481.67 Q225.19 1486.25 219.38 1486.25 Q213.57 1486.25 210.491 1481.67 Q207.436 1477.06 207.436 1468.33 Q207.436 1459.58 210.491 1455 Q213.57 1450.39 219.38 1450.39 Z" fill="#000000" fill-rule="nonzero" fill-opacity="1" /><path clip-path="url(#clip720)" d="M637.874 1481.64 L654.193 1481.64 L654.193 1485.58 L632.249 1485.58 L632.249 1481.64 Q634.911 1478.89 639.494 1474.26 Q644.1 1469.61 645.281 1468.27 Q647.526 1465.74 648.406 1464.01 Q649.309 1462.25 649.309 1460.56 Q649.309 1457.8 647.364 1456.07 Q645.443 1454.33 642.341 1454.33 Q640.142 1454.33 637.688 1455.09 Q635.258 1455.86 632.48 1457.41 L632.48 1452.69 Q635.304 1451.55 637.758 1450.97 Q640.212 1450.39 642.249 1450.39 Q647.619 1450.39 650.813 1453.08 Q654.008 1455.77 654.008 1460.26 Q654.008 1462.39 653.198 1464.31 Q652.411 1466.2 650.304 1468.8 Q649.725 1469.47 646.624 1472.69 Q643.522 1475.88 637.874 1481.64 Z" fill="#000000" fill-rule="nonzero" fill-opacity="1" /><path clip-path="url(#clip720)" d="M674.008 1454.1 Q670.397 1454.1 668.568 1457.66 Q666.762 1461.2 666.762 1468.33 Q666.762 1475.44 668.568 1479.01 Q670.397 1482.55 674.008 1482.55 Q677.642 1482.55 679.447 1479.01 Q681.276 1475.44 681.276 1468.33 Q681.276 1461.2 679.447 1457.66 Q677.642 1454.1 674.008 1454.1 M674.008 1450.39 Q679.818 1450.39 682.873 1455 Q685.952 1459.58 685.952 1468.33 Q685.952 1477.06 682.873 1481.67 Q679.818 1486.25 674.008 1486.25 Q668.198 1486.25 665.119 1481.67 Q662.063 1477.06 662.063 1468.33 Q662.063 1459.58 665.119 1455 Q668.198 1450.39 674.008 1450.39 Z" fill="#000000" fill-rule="nonzero" fill-opacity="1" /><path clip-path="url(#clip720)" d="M1086.99 1455.09 L1075.19 1473.54 L1086.99 1473.54 L1086.99 1455.09 M1085.77 1451.02 L1091.64 1451.02 L1091.64 1473.54 L1096.58 1473.54 L1096.58 1477.43 L1091.64 1477.43 L1091.64 1485.58 L1086.99 1485.58 L1086.99 1477.43 L1071.39 1477.43 L1071.39 1472.92 L1085.77 1451.02 Z" fill="#000000" fill-rule="nonzero" fill-opacity="1" /><path clip-path="url(#clip720)" d="M1114.31 1454.1 Q1110.7 1454.1 1108.87 1457.66 Q1107.06 1461.2 1107.06 1468.33 Q1107.06 1475.44 1108.87 1479.01 Q1110.7 1482.55 1114.31 1482.55 Q1117.94 1482.55 1119.75 1479.01 Q1121.58 1475.44 1121.58 1468.33 Q1121.58 1461.2 1119.75 1457.66 Q1117.94 1454.1 1114.31 1454.1 M1114.31 1450.39 Q1120.12 1450.39 1123.17 1455 Q1126.25 1459.58 1126.25 1468.33 Q1126.25 1477.06 1123.17 1481.67 Q1120.12 1486.25 1114.31 1486.25 Q1108.5 1486.25 1105.42 1481.67 Q1102.36 1477.06 1102.36 1468.33 Q1102.36 1459.58 1105.42 1455 Q1108.5 1450.39 1114.31 1450.39 Z" fill="#000000" fill-rule="nonzero" fill-opacity="1" /><path clip-path="url(#clip720)" d="M1523.95 1466.44 Q1520.8 1466.44 1518.95 1468.59 Q1517.12 1470.74 1517.12 1474.49 Q1517.12 1478.22 1518.95 1480.39 Q1520.8 1482.55 1523.95 1482.55 Q1527.09 1482.55 1528.92 1480.39 Q1530.77 1478.22 1530.77 1474.49 Q1530.77 1470.74 1528.92 1468.59 Q1527.09 1466.44 1523.95 1466.44 M1533.23 1451.78 L1533.23 1456.04 Q1531.47 1455.21 1529.66 1454.77 Q1527.88 1454.33 1526.12 1454.33 Q1521.49 1454.33 1519.04 1457.45 Q1516.61 1460.58 1516.26 1466.9 Q1517.63 1464.89 1519.69 1463.82 Q1521.75 1462.73 1524.22 1462.73 Q1529.43 1462.73 1532.44 1465.9 Q1535.47 1469.05 1535.47 1474.49 Q1535.47 1479.82 1532.33 1483.03 Q1529.18 1486.25 1523.95 1486.25 Q1517.95 1486.25 1514.78 1481.67 Q1511.61 1477.06 1511.61 1468.33 Q1511.61 1460.14 1515.5 1455.28 Q1519.39 1450.39 1525.94 1450.39 Q1527.7 1450.39 1529.48 1450.74 Q1531.28 1451.09 1533.23 1451.78 Z" fill="#000000" fill-rule="nonzero" fill-opacity="1" /><path clip-path="url(#clip720)" d="M1553.53 1454.1 Q1549.92 1454.1 1548.09 1457.66 Q1546.28 1461.2 1546.28 1468.33 Q1546.28 1475.44 1548.09 1479.01 Q1549.92 1482.55 1553.53 1482.55 Q1557.16 1482.55 1558.97 1479.01 Q1560.8 1475.44 1560.8 1468.33 Q1560.8 1461.2 1558.97 1457.66 Q1557.16 1454.1 1553.53 1454.1 M1553.53 1450.39 Q1559.34 1450.39 1562.39 1455 Q1565.47 1459.58 1565.47 1468.33 Q1565.47 1477.06 1562.39 1481.67 Q1559.34 1486.25 1553.53 1486.25 Q1547.72 1486.25 1544.64 1481.67 Q1541.58 1477.06 1541.58 1468.33 Q1541.58 1459.58 1544.64 1455 Q1547.72 1450.39 1553.53 1450.39 Z" fill="#000000" fill-rule="nonzero" fill-opacity="1" /><path clip-path="url(#clip720)" d="M1963.13 1469.17 Q1959.8 1469.17 1957.88 1470.95 Q1955.98 1472.73 1955.98 1475.86 Q1955.98 1478.98 1957.88 1480.77 Q1959.8 1482.55 1963.13 1482.55 Q1966.47 1482.55 1968.39 1480.77 Q1970.31 1478.96 1970.31 1475.86 Q1970.31 1472.73 1968.39 1470.95 Q1966.49 1469.17 1963.13 1469.17 M1958.46 1467.18 Q1955.45 1466.44 1953.76 1464.38 Q1952.09 1462.32 1952.09 1459.35 Q1952.09 1455.21 1955.03 1452.8 Q1957.99 1450.39 1963.13 1450.39 Q1968.3 1450.39 1971.24 1452.8 Q1974.18 1455.21 1974.18 1459.35 Q1974.18 1462.32 1972.49 1464.38 Q1970.82 1466.44 1967.83 1467.18 Q1971.21 1467.96 1973.09 1470.26 Q1974.99 1472.55 1974.99 1475.86 Q1974.99 1480.88 1971.91 1483.57 Q1968.85 1486.25 1963.13 1486.25 Q1957.42 1486.25 1954.34 1483.57 Q1951.28 1480.88 1951.28 1475.86 Q1951.28 1472.55 1953.18 1470.26 Q1955.08 1467.96 1958.46 1467.18 M1956.74 1459.79 Q1956.74 1462.48 1958.41 1463.98 Q1960.1 1465.49 1963.13 1465.49 Q1966.14 1465.49 1967.83 1463.98 Q1969.55 1462.48 1969.55 1459.79 Q1969.55 1457.11 1967.83 1455.6 Q1966.14 1454.1 1963.13 1454.1 Q1960.1 1454.1 1958.41 1455.6 Q1956.74 1457.11 1956.74 1459.79 Z" fill="#000000" fill-rule="nonzero" fill-opacity="1" /><path clip-path="url(#clip720)" d="M1993.3 1454.1 Q1989.68 1454.1 1987.86 1457.66 Q1986.05 1461.2 1986.05 1468.33 Q1986.05 1475.44 1987.86 1479.01 Q1989.68 1482.55 1993.3 1482.55 Q1996.93 1482.55 1998.74 1479.01 Q2000.56 1475.44 2000.56 1468.33 Q2000.56 1461.2 1998.74 1457.66 Q1996.93 1454.1 1993.3 1454.1 M1993.3 1450.39 Q1999.11 1450.39 2002.16 1455 Q2005.24 1459.58 2005.24 1468.33 Q2005.24 1477.06 2002.16 1481.67 Q1999.11 1486.25 1993.3 1486.25 Q1987.49 1486.25 1984.41 1481.67 Q1981.35 1477.06 1981.35 1468.33 Q1981.35 1459.58 1984.41 1455 Q1987.49 1450.39 1993.3 1450.39 Z" fill="#000000" fill-rule="nonzero" fill-opacity="1" /><path clip-path="url(#clip720)" d="M1207.94 1520.52 L1248.14 1520.52 L1248.14 1525.93 L1231.28 1525.93 L1231.28 1568.04 L1224.81 1568.04 L1224.81 1525.93 L1207.94 1525.93 L1207.94 1520.52 Z" fill="#000000" fill-rule="nonzero" fill-opacity="1" /><path clip-path="url(#clip720)" d="M1252.09 1532.4 L1257.95 1532.4 L1257.95 1568.04 L1252.09 1568.04 L1252.09 1532.4 M1252.09 1518.52 L1257.95 1518.52 L1257.95 1525.93 L1252.09 1525.93 L1252.09 1518.52 Z" fill="#000000" fill-rule="nonzero" fill-opacity="1" /><path clip-path="url(#clip720)" d="M1297.96 1539.24 Q1300.15 1535.29 1303.21 1533.41 Q1306.26 1531.54 1310.4 1531.54 Q1315.97 1531.54 1318.99 1535.45 Q1322.02 1539.33 1322.02 1546.53 L1322.02 1568.04 L1316.13 1568.04 L1316.13 1546.72 Q1316.13 1541.59 1314.32 1539.11 Q1312.5 1536.63 1308.78 1536.63 Q1304.23 1536.63 1301.58 1539.65 Q1298.94 1542.68 1298.94 1547.9 L1298.94 1568.04 L1293.05 1568.04 L1293.05 1546.72 Q1293.05 1541.56 1291.24 1539.11 Q1289.43 1536.63 1285.64 1536.63 Q1281.15 1536.63 1278.51 1539.68 Q1275.87 1542.71 1275.87 1547.9 L1275.87 1568.04 L1269.98 1568.04 L1269.98 1532.4 L1275.87 1532.4 L1275.87 1537.93 Q1277.87 1534.66 1280.67 1533.1 Q1283.47 1531.54 1287.33 1531.54 Q1291.21 1531.54 1293.91 1533.51 Q1296.65 1535.48 1297.96 1539.24 Z" fill="#000000" fill-rule="nonzero" fill-opacity="1" /><path clip-path="url(#clip720)" d="M1364.19 1548.76 L1364.19 1551.62 L1337.26 1551.62 Q1337.65 1557.67 1340.89 1560.85 Q1344.17 1564 1350 1564 Q1353.37 1564 1356.52 1563.17 Q1359.7 1562.35 1362.82 1560.69 L1362.82 1566.23 Q1359.67 1567.57 1356.36 1568.27 Q1353.05 1568.97 1349.65 1568.97 Q1341.12 1568.97 1336.12 1564 Q1331.15 1559.04 1331.15 1550.57 Q1331.15 1541.82 1335.86 1536.69 Q1340.61 1531.54 1348.63 1531.54 Q1355.82 1531.54 1359.99 1536.18 Q1364.19 1540.8 1364.19 1548.76 M1358.33 1547.04 Q1358.27 1542.23 1355.63 1539.37 Q1353.02 1536.5 1348.69 1536.5 Q1343.79 1536.5 1340.83 1539.27 Q1337.9 1542.04 1337.46 1547.07 L1358.33 1547.04 Z" fill="#000000" fill-rule="nonzero" fill-opacity="1" /><polyline clip-path="url(#clip720)" style="stroke:#000000; stroke-linecap:round; stroke-linejoin:round; stroke-width:4; stroke-opacity:1; fill:none" points="219.38,1423.18 219.38,123.472 "/>
<polyline clip-path="url(#clip720)" style="stroke:#000000; stroke-linecap:round; stroke-linejoin:round; stroke-width:4; stroke-opacity:1; fill:none" points="219.38,1386.4 238.278,1386.4 "/>
<polyline clip-path="url(#clip720)" style="stroke:#000000; stroke-linecap:round; stroke-linejoin:round; stroke-width:4; stroke-opacity:1; fill:none" points="219.38,1162.76 238.278,1162.76 "/>
<polyline clip-path="url(#clip720)" style="stroke:#000000; stroke-linecap:round; stroke-linejoin:round; stroke-width:4; stroke-opacity:1; fill:none" points="219.38,939.12 238.278,939.12 "/>
<polyline clip-path="url(#clip720)" style="stroke:#000000; stroke-linecap:round; stroke-linejoin:round; stroke-width:4; stroke-opacity:1; fill:none" points="219.38,715.482 238.278,715.482 "/>
<polyline clip-path="url(#clip720)" style="stroke:#000000; stroke-linecap:round; stroke-linejoin:round; stroke-width:4; stroke-opacity:1; fill:none" points="219.38,491.844 238.278,491.844 "/>
<polyline clip-path="url(#clip720)" style="stroke:#000000; stroke-linecap:round; stroke-linejoin:round; stroke-width:4; stroke-opacity:1; fill:none" points="219.38,268.207 238.278,268.207 "/>
<path clip-path="url(#clip720)" d="M126.205 1372.19 Q122.593 1372.19 120.765 1375.76 Q118.959 1379.3 118.959 1386.43 Q118.959 1393.54 120.765 1397.1 Q122.593 1400.64 126.205 1400.64 Q129.839 1400.64 131.644 1397.1 Q133.473 1393.54 133.473 1386.43 Q133.473 1379.3 131.644 1375.76 Q129.839 1372.19 126.205 1372.19 M126.205 1368.49 Q132.015 1368.49 135.07 1373.1 Q138.149 1377.68 138.149 1386.43 Q138.149 1395.16 135.07 1399.76 Q132.015 1404.35 126.205 1404.35 Q120.394 1404.35 117.316 1399.76 Q114.26 1395.16 114.26 1386.43 Q114.26 1377.68 117.316 1373.1 Q120.394 1368.49 126.205 1368.49 Z" fill="#000000" fill-rule="nonzero" fill-opacity="1" /><path clip-path="url(#clip720)" d="M146.366 1397.8 L151.251 1397.8 L151.251 1403.68 L146.366 1403.68 L146.366 1397.8 Z" fill="#000000" fill-rule="nonzero" fill-opacity="1" /><path clip-path="url(#clip720)" d="M171.436 1372.19 Q167.825 1372.19 165.996 1375.76 Q164.19 1379.3 164.19 1386.43 Q164.19 1393.54 165.996 1397.1 Q167.825 1400.64 171.436 1400.64 Q175.07 1400.64 176.876 1397.1 Q178.704 1393.54 178.704 1386.43 Q178.704 1379.3 176.876 1375.76 Q175.07 1372.19 171.436 1372.19 M171.436 1368.49 Q177.246 1368.49 180.301 1373.1 Q183.38 1377.68 183.38 1386.43 Q183.38 1395.16 180.301 1399.76 Q177.246 1404.35 171.436 1404.35 Q165.626 1404.35 162.547 1399.76 Q159.491 1395.16 159.491 1386.43 Q159.491 1377.68 162.547 1373.1 Q165.626 1368.49 171.436 1368.49 Z" fill="#000000" fill-rule="nonzero" fill-opacity="1" /><path clip-path="url(#clip720)" d="M127.2 1148.56 Q123.589 1148.56 121.76 1152.12 Q119.955 1155.66 119.955 1162.79 Q119.955 1169.9 121.76 1173.46 Q123.589 1177.01 127.2 1177.01 Q130.834 1177.01 132.64 1173.46 Q134.468 1169.9 134.468 1162.79 Q134.468 1155.66 132.64 1152.12 Q130.834 1148.56 127.2 1148.56 M127.2 1144.85 Q133.01 1144.85 136.066 1149.46 Q139.144 1154.04 139.144 1162.79 Q139.144 1171.52 136.066 1176.13 Q133.01 1180.71 127.2 1180.71 Q121.39 1180.71 118.311 1176.13 Q115.256 1171.52 115.256 1162.79 Q115.256 1154.04 118.311 1149.46 Q121.39 1144.85 127.2 1144.85 Z" fill="#000000" fill-rule="nonzero" fill-opacity="1" /><path clip-path="url(#clip720)" d="M147.362 1174.16 L152.246 1174.16 L152.246 1180.04 L147.362 1180.04 L147.362 1174.16 Z" fill="#000000" fill-rule="nonzero" fill-opacity="1" /><path clip-path="url(#clip720)" d="M162.477 1145.48 L180.834 1145.48 L180.834 1149.41 L166.76 1149.41 L166.76 1157.89 Q167.778 1157.54 168.797 1157.38 Q169.815 1157.19 170.834 1157.19 Q176.621 1157.19 180.001 1160.36 Q183.38 1163.53 183.38 1168.95 Q183.38 1174.53 179.908 1177.63 Q176.436 1180.71 170.116 1180.71 Q167.94 1180.71 165.672 1180.34 Q163.427 1179.97 161.019 1179.23 L161.019 1174.53 Q163.102 1175.66 165.325 1176.22 Q167.547 1176.77 170.024 1176.77 Q174.028 1176.77 176.366 1174.67 Q178.704 1172.56 178.704 1168.95 Q178.704 1165.34 176.366 1163.23 Q174.028 1161.13 170.024 1161.13 Q168.149 1161.13 166.274 1161.54 Q164.422 1161.96 162.477 1162.84 L162.477 1145.48 Z" fill="#000000" fill-rule="nonzero" fill-opacity="1" /><path clip-path="url(#clip720)" d="M117.015 952.465 L124.654 952.465 L124.654 926.099 L116.343 927.766 L116.343 923.507 L124.607 921.84 L129.283 921.84 L129.283 952.465 L136.922 952.465 L136.922 956.4 L117.015 956.4 L117.015 952.465 Z" fill="#000000" fill-rule="nonzero" fill-opacity="1" /><path clip-path="url(#clip720)" d="M146.366 950.52 L151.251 950.52 L151.251 956.4 L146.366 956.4 L146.366 950.52 Z" fill="#000000" fill-rule="nonzero" fill-opacity="1" /><path clip-path="url(#clip720)" d="M171.436 924.919 Q167.825 924.919 165.996 928.483 Q164.19 932.025 164.19 939.155 Q164.19 946.261 165.996 949.826 Q167.825 953.368 171.436 953.368 Q175.07 953.368 176.876 949.826 Q178.704 946.261 178.704 939.155 Q178.704 932.025 176.876 928.483 Q175.07 924.919 171.436 924.919 M171.436 921.215 Q177.246 921.215 180.301 925.821 Q183.38 930.405 183.38 939.155 Q183.38 947.882 180.301 952.488 Q177.246 957.071 171.436 957.071 Q165.626 957.071 162.547 952.488 Q159.491 947.882 159.491 939.155 Q159.491 930.405 162.547 925.821 Q165.626 921.215 171.436 921.215 Z" fill="#000000" fill-rule="nonzero" fill-opacity="1" /><path clip-path="url(#clip720)" d="M118.01 728.827 L125.649 728.827 L125.649 702.461 L117.339 704.128 L117.339 699.869 L125.603 698.202 L130.279 698.202 L130.279 728.827 L137.917 728.827 L137.917 732.762 L118.01 732.762 L118.01 728.827 Z" fill="#000000" fill-rule="nonzero" fill-opacity="1" /><path clip-path="url(#clip720)" d="M147.362 726.883 L152.246 726.883 L152.246 732.762 L147.362 732.762 L147.362 726.883 Z" fill="#000000" fill-rule="nonzero" fill-opacity="1" /><path clip-path="url(#clip720)" d="M162.477 698.202 L180.834 698.202 L180.834 702.137 L166.76 702.137 L166.76 710.61 Q167.778 710.262 168.797 710.1 Q169.815 709.915 170.834 709.915 Q176.621 709.915 180.001 713.086 Q183.38 716.258 183.38 721.674 Q183.38 727.253 179.908 730.355 Q176.436 733.433 170.116 733.433 Q167.94 733.433 165.672 733.063 Q163.427 732.693 161.019 731.952 L161.019 727.253 Q163.102 728.387 165.325 728.943 Q167.547 729.498 170.024 729.498 Q174.028 729.498 176.366 727.392 Q178.704 725.285 178.704 721.674 Q178.704 718.063 176.366 715.957 Q174.028 713.85 170.024 713.85 Q168.149 713.85 166.274 714.267 Q164.422 714.684 162.477 715.563 L162.477 698.202 Z" fill="#000000" fill-rule="nonzero" fill-opacity="1" /><path clip-path="url(#clip720)" d="M120.232 505.189 L136.552 505.189 L136.552 509.124 L114.607 509.124 L114.607 505.189 Q117.269 502.435 121.853 497.805 Q126.459 493.152 127.64 491.81 Q129.885 489.287 130.765 487.55 Q131.667 485.791 131.667 484.101 Q131.667 481.347 129.723 479.611 Q127.802 477.875 124.7 477.875 Q122.501 477.875 120.047 478.638 Q117.617 479.402 114.839 480.953 L114.839 476.231 Q117.663 475.097 120.117 474.518 Q122.57 473.939 124.607 473.939 Q129.978 473.939 133.172 476.625 Q136.367 479.31 136.367 483.8 Q136.367 485.93 135.556 487.851 Q134.769 489.749 132.663 492.342 Q132.084 493.013 128.982 496.231 Q125.88 499.425 120.232 505.189 Z" fill="#000000" fill-rule="nonzero" fill-opacity="1" /><path clip-path="url(#clip720)" d="M146.366 503.245 L151.251 503.245 L151.251 509.124 L146.366 509.124 L146.366 503.245 Z" fill="#000000" fill-rule="nonzero" fill-opacity="1" /><path clip-path="url(#clip720)" d="M171.436 477.643 Q167.825 477.643 165.996 481.208 Q164.19 484.749 164.19 491.879 Q164.19 498.986 165.996 502.55 Q167.825 506.092 171.436 506.092 Q175.07 506.092 176.876 502.55 Q178.704 498.986 178.704 491.879 Q178.704 484.749 176.876 481.208 Q175.07 477.643 171.436 477.643 M171.436 473.939 Q177.246 473.939 180.301 478.546 Q183.38 483.129 183.38 491.879 Q183.38 500.606 180.301 505.212 Q177.246 509.796 171.436 509.796 Q165.626 509.796 162.547 505.212 Q159.491 500.606 159.491 491.879 Q159.491 483.129 162.547 478.546 Q165.626 473.939 171.436 473.939 Z" fill="#000000" fill-rule="nonzero" fill-opacity="1" /><path clip-path="url(#clip720)" d="M121.228 281.551 L137.547 281.551 L137.547 285.487 L115.603 285.487 L115.603 281.551 Q118.265 278.797 122.848 274.167 Q127.455 269.514 128.635 268.172 Q130.88 265.649 131.76 263.913 Q132.663 262.153 132.663 260.464 Q132.663 257.709 130.718 255.973 Q128.797 254.237 125.695 254.237 Q123.496 254.237 121.043 255.001 Q118.612 255.764 115.834 257.315 L115.834 252.593 Q118.658 251.459 121.112 250.88 Q123.566 250.302 125.603 250.302 Q130.973 250.302 134.167 252.987 Q137.362 255.672 137.362 260.163 Q137.362 262.292 136.552 264.213 Q135.765 266.112 133.658 268.704 Q133.08 269.376 129.978 272.593 Q126.876 275.788 121.228 281.551 Z" fill="#000000" fill-rule="nonzero" fill-opacity="1" /><path clip-path="url(#clip720)" d="M147.362 279.607 L152.246 279.607 L152.246 285.487 L147.362 285.487 L147.362 279.607 Z" fill="#000000" fill-rule="nonzero" fill-opacity="1" /><path clip-path="url(#clip720)" d="M162.477 250.927 L180.834 250.927 L180.834 254.862 L166.76 254.862 L166.76 263.334 Q167.778 262.987 168.797 262.825 Q169.815 262.639 170.834 262.639 Q176.621 262.639 180.001 265.811 Q183.38 268.982 183.38 274.399 Q183.38 279.977 179.908 283.079 Q176.436 286.158 170.116 286.158 Q167.94 286.158 165.672 285.787 Q163.427 285.417 161.019 284.676 L161.019 279.977 Q163.102 281.112 165.325 281.667 Q167.547 282.223 170.024 282.223 Q174.028 282.223 176.366 280.116 Q178.704 278.01 178.704 274.399 Q178.704 270.788 176.366 268.681 Q174.028 266.575 170.024 266.575 Q168.149 266.575 166.274 266.991 Q164.422 267.408 162.477 268.288 L162.477 250.927 Z" fill="#000000" fill-rule="nonzero" fill-opacity="1" /><path clip-path="url(#clip720)" d="M29.7248 956.945 L35.1993 956.945 Q33.8307 959.427 33.1623 961.942 Q32.4621 964.424 32.4621 966.971 Q32.4621 972.668 36.0905 975.819 Q39.6872 978.97 46.212 978.97 Q52.7369 978.97 56.3653 975.819 Q59.9619 972.668 59.9619 966.971 Q59.9619 964.424 59.2935 961.942 Q58.5933 959.427 57.2247 956.945 L62.6355 956.945 Q63.7814 959.396 64.3543 962.037 Q64.9272 964.647 64.9272 967.607 Q64.9272 975.66 59.8664 980.402 Q54.8057 985.145 46.212 985.145 Q37.491 985.145 32.4939 980.371 Q27.4968 975.564 27.4968 967.225 Q27.4968 964.52 28.0697 961.942 Q28.6108 959.364 29.7248 956.945 Z" fill="#000000" fill-rule="nonzero" fill-opacity="1" /><path clip-path="url(#clip720)" d="M16.4842 953.094 L16.4842 912.894 L21.895 912.894 L21.895 929.763 L64.0042 929.763 L64.0042 936.224 L21.895 936.224 L21.895 953.094 L16.4842 953.094 Z" fill="#000000" fill-rule="nonzero" fill-opacity="1" /><path clip-path="url(#clip720)" d="M42.4881 877.31 L64.0042 877.31 L64.0042 883.166 L42.679 883.166 Q37.6183 883.166 35.1038 885.14 Q32.5894 887.113 32.5894 891.06 Q32.5894 895.802 35.6131 898.539 Q38.6368 901.277 43.8567 901.277 L64.0042 901.277 L64.0042 907.165 L28.3562 907.165 L28.3562 901.277 L33.8944 901.277 Q30.6797 899.176 29.0883 896.343 Q27.4968 893.479 27.4968 889.755 Q27.4968 883.612 31.3163 880.461 Q35.1038 877.31 42.4881 877.31 Z" fill="#000000" fill-rule="nonzero" fill-opacity="1" /><path clip-path="url(#clip720)" d="M16.4842 871.963 L16.4842 831.763 L21.895 831.763 L21.895 848.632 L64.0042 848.632 L64.0042 855.093 L21.895 855.093 L21.895 871.963 L16.4842 871.963 Z" fill="#000000" fill-rule="nonzero" fill-opacity="1" /><path clip-path="url(#clip720)" d="M14.479 805.632 L14.479 792.137 L19.0304 792.137 L19.0304 799.775 L68.0464 799.775 L68.0464 792.137 L72.5979 792.137 L72.5979 805.632 L14.479 805.632 Z" fill="#000000" fill-rule="nonzero" fill-opacity="1" /><path clip-path="url(#clip720)" d="M42.4881 750.027 L64.0042 750.027 L64.0042 755.884 L42.679 755.884 Q37.6183 755.884 35.1038 757.857 Q32.5894 759.831 32.5894 763.777 Q32.5894 768.52 35.6131 771.257 Q38.6368 773.994 43.8567 773.994 L64.0042 773.994 L64.0042 779.883 L28.3562 779.883 L28.3562 773.994 L33.8944 773.994 Q30.6797 771.894 29.0883 769.061 Q27.4968 766.196 27.4968 762.472 Q27.4968 756.33 31.3163 753.179 Q35.1038 750.027 42.4881 750.027 Z" fill="#000000" fill-rule="nonzero" fill-opacity="1" /><path clip-path="url(#clip720)" d="M45.7664 714.889 Q39.4007 714.889 35.8996 717.531 Q32.3984 720.141 32.3984 724.883 Q32.3984 729.594 35.8996 732.235 Q39.4007 734.845 45.7664 734.845 Q52.1003 734.845 55.6014 732.235 Q59.1026 729.594 59.1026 724.883 Q59.1026 720.141 55.6014 717.531 Q52.1003 714.889 45.7664 714.889 M59.58 709.032 Q68.683 709.032 73.1071 713.075 Q77.5631 717.117 77.5631 725.456 Q77.5631 728.543 77.0857 731.28 Q76.6401 734.018 75.6852 736.596 L69.9879 736.596 Q71.3884 734.018 72.0568 731.503 Q72.7252 728.989 72.7252 726.379 Q72.7252 720.618 69.7015 717.753 Q66.7096 714.889 60.6303 714.889 L57.7339 714.889 Q60.885 716.703 62.4446 719.536 Q64.0042 722.369 64.0042 726.315 Q64.0042 732.872 59.0071 736.882 Q54.01 740.893 45.7664 740.893 Q37.491 740.893 32.4939 736.882 Q27.4968 732.872 27.4968 726.315 Q27.4968 722.369 29.0564 719.536 Q30.616 716.703 33.7671 714.889 L28.3562 714.889 L28.3562 709.032 L59.58 709.032 Z" fill="#000000" fill-rule="nonzero" fill-opacity="1" /><path clip-path="url(#clip720)" d="M16.4842 686.561 L16.4842 681.151 L70.0516 697.701 L70.0516 703.112 L16.4842 686.561 Z" fill="#000000" fill-rule="nonzero" fill-opacity="1" /><path clip-path="url(#clip720)" d="M35.1993 647.253 Q31.2526 645.057 29.3747 642.001 Q27.4968 638.946 27.4968 634.808 Q27.4968 629.238 31.4117 626.215 Q35.2948 623.191 42.4881 623.191 L64.0042 623.191 L64.0042 629.079 L42.679 629.079 Q37.5546 629.079 35.072 630.893 Q32.5894 632.708 32.5894 636.431 Q32.5894 640.983 35.6131 643.625 Q38.6368 646.266 43.8567 646.266 L64.0042 646.266 L64.0042 652.155 L42.679 652.155 Q37.5228 652.155 35.072 653.969 Q32.5894 655.783 32.5894 659.571 Q32.5894 664.059 35.6449 666.7 Q38.6686 669.342 43.8567 669.342 L64.0042 669.342 L64.0042 675.23 L28.3562 675.23 L28.3562 669.342 L33.8944 669.342 Q30.616 667.337 29.0564 664.536 Q27.4968 661.735 27.4968 657.884 Q27.4968 654.001 29.4702 651.295 Q31.4436 648.558 35.1993 647.253 Z" fill="#000000" fill-rule="nonzero" fill-opacity="1" /><path clip-path="url(#clip720)" d="M16.4842 611.255 L16.4842 604.826 L58.5933 604.826 L58.5933 581.686 L64.0042 581.686 L64.0042 611.255 L16.4842 611.255 Z" fill="#000000" fill-rule="nonzero" fill-opacity="1" /><path clip-path="url(#clip720)" d="M14.479 561.507 L72.5979 561.507 L72.5979 575.002 L68.0464 575.002 L68.0464 567.395 L19.0304 567.395 L19.0304 575.002 L14.479 575.002 L14.479 561.507 Z" fill="#000000" fill-rule="nonzero" fill-opacity="1" /><path clip-path="url(#clip720)" d="M1037.57 18.8205 L1037.57 41.5461 L1047.85 41.5461 Q1053.57 41.5461 1056.69 38.5889 Q1059.8 35.6318 1059.8 30.163 Q1059.8 24.7348 1056.69 21.7777 Q1053.57 18.8205 1047.85 18.8205 L1037.57 18.8205 M1029.38 12.096 L1047.85 12.096 Q1058.02 12.096 1063.21 16.714 Q1068.43 21.2916 1068.43 30.163 Q1068.43 39.1155 1063.21 43.6931 Q1058.02 48.2706 1047.85 48.2706 L1037.57 48.2706 L1037.57 72.576 L1029.38 72.576 L1029.38 12.096 Z" fill="#000000" fill-rule="nonzero" fill-opacity="1" /><path clip-path="url(#clip720)" d="M1095.98 49.7694 Q1086.95 49.7694 1083.46 51.8354 Q1079.98 53.9013 1079.98 58.8839 Q1079.98 62.8538 1082.57 65.2034 Q1085.2 67.5124 1089.7 67.5124 Q1095.9 67.5124 1099.63 63.1374 Q1103.39 58.7219 1103.39 51.4303 L1103.39 49.7694 L1095.98 49.7694 M1110.85 46.6907 L1110.85 72.576 L1103.39 72.576 L1103.39 65.6895 Q1100.84 69.8214 1097.03 71.8063 Q1093.22 73.7508 1087.72 73.7508 Q1080.75 73.7508 1076.62 69.8619 Q1072.52 65.9325 1072.52 59.3701 Q1072.52 51.7138 1077.63 47.825 Q1082.77 43.9361 1092.94 43.9361 L1103.39 43.9361 L1103.39 43.2069 Q1103.39 38.0623 1099.99 35.2672 Q1096.63 32.4315 1090.51 32.4315 Q1086.62 32.4315 1082.94 33.3632 Q1079.25 34.295 1075.85 36.1584 L1075.85 29.2718 Q1079.94 27.692 1083.79 26.9223 Q1087.63 26.1121 1091.28 26.1121 Q1101.12 26.1121 1105.99 31.2163 Q1110.85 36.3204 1110.85 46.6907 Z" fill="#000000" fill-rule="nonzero" fill-opacity="1" /><path clip-path="url(#clip720)" d="M1133.57 14.324 L1133.57 27.2059 L1148.92 27.2059 L1148.92 32.9987 L1133.57 32.9987 L1133.57 57.6282 Q1133.57 63.1779 1135.07 64.7578 Q1136.61 66.3376 1141.27 66.3376 L1148.92 66.3376 L1148.92 72.576 L1141.27 72.576 Q1132.64 72.576 1129.36 69.3758 Q1126.08 66.1351 1126.08 57.6282 L1126.08 32.9987 L1120.61 32.9987 L1120.61 27.2059 L1126.08 27.2059 L1126.08 14.324 L1133.57 14.324 Z" fill="#000000" fill-rule="nonzero" fill-opacity="1" /><path clip-path="url(#clip720)" d="M1158.73 27.2059 L1166.18 27.2059 L1166.18 72.576 L1158.73 72.576 L1158.73 27.2059 M1158.73 9.54393 L1166.18 9.54393 L1166.18 18.9825 L1158.73 18.9825 L1158.73 9.54393 Z" fill="#000000" fill-rule="nonzero" fill-opacity="1" /><path clip-path="url(#clip720)" d="M1220.59 48.0275 L1220.59 51.6733 L1186.31 51.6733 Q1186.8 59.3701 1190.93 63.421 Q1195.1 67.4314 1202.52 67.4314 Q1206.81 67.4314 1210.82 66.3781 Q1214.87 65.3249 1218.84 63.2184 L1218.84 70.267 Q1214.83 71.9684 1210.62 72.8596 Q1206.41 73.7508 1202.07 73.7508 Q1191.22 73.7508 1184.86 67.4314 Q1178.54 61.1119 1178.54 50.3365 Q1178.54 39.1965 1184.53 32.6746 Q1190.57 26.1121 1200.78 26.1121 Q1209.93 26.1121 1215.24 32.0264 Q1220.59 37.9003 1220.59 48.0275 M1213.13 45.84 Q1213.05 39.7232 1209.69 36.0774 Q1206.37 32.4315 1200.86 32.4315 Q1194.62 32.4315 1190.85 35.9558 Q1187.12 39.4801 1186.56 45.8805 L1213.13 45.84 Z" fill="#000000" fill-rule="nonzero" fill-opacity="1" /><path clip-path="url(#clip720)" d="M1270.53 45.1919 L1270.53 72.576 L1263.08 72.576 L1263.08 45.4349 Q1263.08 38.994 1260.57 35.7938 Q1258.06 32.5936 1253.03 32.5936 Q1247 32.5936 1243.51 36.4419 Q1240.03 40.2903 1240.03 46.9338 L1240.03 72.576 L1232.54 72.576 L1232.54 27.2059 L1240.03 27.2059 L1240.03 34.2544 Q1242.7 30.163 1246.31 28.1376 Q1249.95 26.1121 1254.69 26.1121 Q1262.51 26.1121 1266.52 30.9732 Q1270.53 35.7938 1270.53 45.1919 Z" fill="#000000" fill-rule="nonzero" fill-opacity="1" /><path clip-path="url(#clip720)" d="M1292.77 14.324 L1292.77 27.2059 L1308.13 27.2059 L1308.13 32.9987 L1292.77 32.9987 L1292.77 57.6282 Q1292.77 63.1779 1294.27 64.7578 Q1295.81 66.3376 1300.47 66.3376 L1308.13 66.3376 L1308.13 72.576 L1300.47 72.576 Q1291.84 72.576 1288.56 69.3758 Q1285.28 66.1351 1285.28 57.6282 L1285.28 32.9987 L1279.81 32.9987 L1279.81 27.2059 L1285.28 27.2059 L1285.28 14.324 L1292.77 14.324 Z" fill="#000000" fill-rule="nonzero" fill-opacity="1" /><path clip-path="url(#clip720)" d="M1382.01 45.1919 L1382.01 72.576 L1374.56 72.576 L1374.56 45.4349 Q1374.56 38.994 1372.05 35.7938 Q1369.54 32.5936 1364.51 32.5936 Q1358.48 32.5936 1354.99 36.4419 Q1351.51 40.2903 1351.51 46.9338 L1351.51 72.576 L1344.02 72.576 L1344.02 27.2059 L1351.51 27.2059 L1351.51 34.2544 Q1354.18 30.163 1357.79 28.1376 Q1361.44 26.1121 1366.17 26.1121 Q1373.99 26.1121 1378 30.9732 Q1382.01 35.7938 1382.01 45.1919 Z" fill="#000000" fill-rule="nonzero" fill-opacity="1" /><path clip-path="url(#clip720)" d="M1416.45 39.075 Q1410.94 39.075 1407.7 42.8424 Q1404.5 46.6097 1404.5 53.1722 Q1404.5 59.6941 1407.7 63.502 Q1410.94 67.2693 1416.45 67.2693 Q1421.96 67.2693 1425.16 63.502 Q1428.4 59.6941 1428.4 53.1722 Q1428.4 46.6097 1425.16 42.8424 Q1421.96 39.075 1416.45 39.075 M1432.69 13.4328 L1432.69 20.8865 Q1429.61 19.4281 1426.45 18.6585 Q1423.33 17.8888 1420.25 17.8888 Q1412.15 17.8888 1407.86 23.3575 Q1403.61 28.8262 1403 39.8852 Q1405.39 36.3609 1408.99 34.4975 Q1412.6 32.5936 1416.93 32.5936 Q1426.05 32.5936 1431.31 38.1433 Q1436.62 43.6525 1436.62 53.1722 Q1436.62 62.4892 1431.11 68.12 Q1425.6 73.7508 1416.45 73.7508 Q1405.95 73.7508 1400.4 65.73 Q1394.86 57.6687 1394.86 42.3968 Q1394.86 28.0566 1401.66 19.5497 Q1408.47 11.0023 1419.93 11.0023 Q1423.01 11.0023 1426.13 11.6099 Q1429.29 12.2175 1432.69 13.4328 Z" fill="#000000" fill-rule="nonzero" fill-opacity="1" /><path clip-path="url(#clip720)" d="M1473.2 19.2256 L1452.54 51.5113 L1473.2 51.5113 L1473.2 19.2256 M1471.05 12.096 L1481.34 12.096 L1481.34 51.5113 L1489.97 51.5113 L1489.97 58.3168 L1481.34 58.3168 L1481.34 72.576 L1473.2 72.576 L1473.2 58.3168 L1445.9 58.3168 L1445.9 50.4176 L1471.05 12.096 Z" fill="#000000" fill-rule="nonzero" fill-opacity="1" /><path clip-path="url(#clip720)" d="M1525.98 19.2256 L1505.32 51.5113 L1525.98 51.5113 L1525.98 19.2256 M1523.84 12.096 L1534.13 12.096 L1534.13 51.5113 L1542.75 51.5113 L1542.75 58.3168 L1534.13 58.3168 L1534.13 72.576 L1525.98 72.576 L1525.98 58.3168 L1498.68 58.3168 L1498.68 50.4176 L1523.84 12.096 Z" fill="#000000" fill-rule="nonzero" fill-opacity="1" /><polyline clip-path="url(#clip722)" style="stroke:#009af9; stroke-linecap:round; stroke-linejoin:round; stroke-width:8; stroke-opacity:1; fill:none" points="219.38,1386.4 221.516,1370.44 223.651,1354.92 225.787,1339.83 227.922,1325.16 230.058,1310.89 232.193,1297.02 234.329,1283.53 236.464,1270.42 238.6,1257.67 240.735,1245.27 242.871,1233.22 245.006,1221.51 247.142,1210.12 249.277,1199.04 251.413,1188.27 253.548,1177.81 255.684,1167.63 257.819,1157.74 259.955,1148.13 262.09,1138.78 264.226,1129.7 266.361,1120.87 268.497,1112.29 270.632,1103.94 272.768,1095.83 274.903,1087.95 277.039,1080.29 279.174,1072.84 281.31,1065.6 283.445,1058.57 285.581,1051.73 287.717,1045.08 289.852,1038.62 291.988,1032.34 294.123,1026.24 296.259,1020.3 298.394,1014.54 300.53,1008.93 302.665,1003.48 304.801,998.179 306.936,993.027 309.072,988.018 311.207,983.148 313.343,978.412 315.478,973.806 317.614,969.327 319.749,964.97 321.885,960.731 324.02,956.607 326.156,952.594 328.291,948.689 330.427,944.887 332.562,941.185 334.698,937.58 336.833,934.069 338.969,930.648 341.104,927.315 343.24,924.066 345.375,920.897 347.511,917.807 349.646,914.793 351.782,911.85 353.917,908.976 356.053,906.17 358.188,903.426 360.324,900.744 362.459,898.12 364.595,895.551 366.73,893.036 368.866,890.571 371.001,888.153 373.137,885.781 375.272,883.452 377.408,881.164 379.544,878.913 381.679,876.699 383.815,874.519 385.95,872.37 388.086,870.251 390.221,868.159 392.357,866.092 394.492,864.048 396.628,862.024 398.763,860.02 400.899,858.033 403.034,856.06 405.17,854.1 407.305,852.151 409.441,850.21 411.576,848.277 413.712,846.349 415.847,844.424 417.983,842.5 420.118,840.576 422.254,838.65 424.389,836.72 426.525,834.784 428.66,832.841 430.796,830.89 432.931,828.928 435.067,826.955 437.202,824.968 439.338,822.967 441.473,820.95 443.609,818.915 445.744,816.861 447.88,814.787 450.015,812.692 452.151,810.573 454.286,808.431 456.422,806.263 458.557,804.069 460.693,801.846 462.828,799.595 464.964,797.313 467.099,795.001 469.235,792.656 471.37,790.277 473.506,787.864 475.642,785.415 477.777,782.93 479.913,780.408 482.048,777.847 484.184,775.247 486.319,772.608 488.455,769.928 490.59,767.209 492.726,764.448 494.861,761.646 496.997,758.802 499.132,755.916 501.268,752.987 503.403,750.015 505.539,747 507.674,743.941 509.81,740.839 511.945,737.693 514.081,734.503 516.216,731.269 518.352,727.991 520.487,724.668 522.623,721.301 524.758,717.89 526.894,714.434 529.029,710.934 531.165,707.39 533.3,703.802 535.436,700.17 537.571,696.495 539.707,692.776 541.842,689.014 543.978,685.209 546.113,681.362 548.249,677.474 550.384,673.546 552.52,669.577 554.655,665.571 556.791,661.526 558.926,657.445 561.062,653.328 563.197,649.176 565.333,644.99 567.468,640.771 569.604,636.52 571.74,632.238 573.875,627.926 576.011,623.586 578.146,619.217 580.282,614.822 582.417,610.401 584.553,605.956 586.688,601.487 588.824,596.996 590.959,592.483 593.095,587.951 595.23,583.399 597.366,578.83 599.501,574.245 601.637,569.644 603.772,565.029 605.908,560.402 608.043,555.762 610.179,551.113 612.314,546.459 614.45,541.8 616.585,537.138 618.721,532.474 620.856,527.808 622.992,523.142 625.127,518.476 627.263,513.813 629.398,509.151 631.534,504.494 633.669,499.841 635.805,495.194 637.94,490.554 640.076,485.922 642.211,481.299 644.347,476.687 646.482,472.087 648.618,467.5 650.753,462.927 652.889,458.37 655.024,453.83 657.16,449.309 659.295,444.807 661.431,440.326 663.566,435.869 665.702,431.435 667.838,427.027 669.973,422.646 672.109,418.294 674.244,413.973 676.38,409.683 678.515,405.427 680.651,401.206 682.786,397.023 684.922,392.879 687.057,388.776 689.193,384.711 691.328,380.685 693.464,376.697 695.599,372.745 697.735,368.83 699.87,364.951 702.006,361.108 704.141,357.3 706.277,353.527 708.412,349.791 710.548,346.089 712.683,342.423 714.819,338.794 716.954,335.2 719.09,331.644 721.225,328.125 723.361,324.644 725.496,321.202 727.632,317.8 729.767,314.439 731.903,311.119 734.038,307.843 736.174,304.612 738.309,301.426 740.445,298.287 742.58,295.197 744.716,292.158 746.851,289.172 748.987,286.239 751.122,283.359 753.258,280.527 755.393,277.74 757.529,274.998 759.665,272.299 761.8,269.643 763.936,267.029 766.071,264.455 768.207,261.921 770.342,259.426 772.478,256.971 774.613,254.553 776.749,252.173 778.884,249.831 781.02,247.526 783.155,245.258 785.291,243.028 787.426,240.835 789.562,238.679 791.697,236.561 793.833,234.481 795.968,232.439 798.104,230.436 800.239,228.473 802.375,226.55 804.51,224.669 806.646,222.829 808.781,221.032 810.917,219.277 813.052,217.561 815.188,215.881 817.323,214.238 819.459,212.629 821.594,211.054 823.73,209.511 825.865,208 828.001,206.52 830.136,205.07 832.272,203.649 834.407,202.257 836.543,200.893 838.678,199.557 840.814,198.248 842.949,196.967 845.085,195.712 847.22,194.485 849.356,193.283 851.491,192.109 853.627,190.962 855.763,189.841 857.898,188.748 860.034,187.683 862.169,186.646 864.305,185.638 866.44,184.659 868.576,183.71 870.711,182.791 872.847,181.9 874.982,181.035 877.118,180.194 879.253,179.376 881.389,178.582 883.524,177.809 885.66,177.058 887.795,176.327 889.931,175.615 892.066,174.924 894.202,174.251 896.337,173.596 898.473,172.959 900.608,172.34 902.744,171.738 904.879,171.154 907.015,170.586 909.15,170.036 911.286,169.502 913.421,168.985 915.557,168.486 917.692,168.003 919.828,167.538 921.963,167.091 924.099,166.661 926.234,166.25 928.37,165.858 930.505,165.486 932.641,165.132 934.776,164.796 936.912,164.477 939.047,164.172 941.183,163.883 943.318,163.607 945.454,163.345 947.589,163.095 949.725,162.857 951.861,162.631 953.996,162.416 956.132,162.211 958.267,162.017 960.403,161.833 962.538,161.658 964.674,161.494 966.809,161.339 968.945,161.193 971.08,161.057 973.216,160.931 975.351,160.815 977.487,160.708 979.622,160.612 981.758,160.526 983.893,160.451 986.029,160.387 988.164,160.336 990.3,160.296 992.435,160.269 994.571,160.256 996.706,160.256 998.842,160.268 1000.98,160.29 1003.11,160.322 1005.25,160.362 1007.38,160.41 1009.52,160.466 1011.65,160.527 1013.79,160.594 1015.93,160.666 1018.06,160.744 1020.2,160.825 1022.33,160.911 1024.47,161.001 1026.6,161.095 1028.74,161.193 1030.87,161.296 1033.01,161.402 1035.15,161.513 1037.28,161.628 1039.42,161.749 1041.55,161.875 1043.69,162.008 1045.82,162.148 1047.96,162.295 1050.09,162.451 1052.23,162.617 1054.37,162.793 1056.5,162.98 1058.64,163.179 1060.77,163.389 1062.91,163.607 1065.04,163.832 1067.18,164.063 1069.31,164.297 1071.45,164.535 1073.58,164.774 1075.72,165.015 1077.86,165.257 1079.99,165.498 1082.13,165.739 1084.26,165.98 1086.4,166.219 1088.53,166.458 1090.67,166.697 1092.8,166.936 1094.94,167.175 1097.08,167.415 1099.21,167.657 1101.35,167.902 1103.48,168.151 1105.62,168.405 1107.75,168.666 1109.89,168.935 1112.02,169.214 1114.16,169.505 1116.29,169.81 1118.43,170.127 1120.57,170.454 1122.7,170.787 1124.84,171.125 1126.97,171.464 1129.11,171.805 1131.24,172.145 1133.38,172.483 1135.51,172.818 1137.65,173.149 1139.79,173.476 1141.92,173.799 1144.06,174.117 1146.19,174.432 1148.33,174.743 1150.46,175.051 1152.6,175.357 1154.73,175.663 1156.87,175.971 1159.01,176.28 1161.14,176.595 1163.28,176.917 1165.41,177.249 1167.55,177.592 1169.68,177.952 1171.82,178.327 1173.95,178.712 1176.09,179.103 1178.22,179.497 1180.36,179.892 1182.5,180.287 1184.63,180.678 1186.77,181.066 1188.9,181.449 1191.04,181.827 1193.17,182.198 1195.31,182.564 1197.44,182.924 1199.58,183.279 1201.72,183.63 1203.85,183.978 1205.99,184.324 1208.12,184.671 1210.26,185.02 1212.39,185.374 1214.53,185.736 1216.66,186.108 1218.8,186.495 1220.93,186.898 1223.07,187.31 1225.21,187.727 1227.34,188.147 1229.48,188.566 1231.61,188.985 1233.75,189.4 1235.88,189.811 1238.02,190.218 1240.15,190.619 1242.29,191.015 1244.43,191.405 1246.56,191.791 1248.7,192.171 1250.83,192.549 1252.97,192.924 1255.1,193.299 1257.24,193.676 1259.37,194.055 1261.51,194.441 1263.65,194.836 1265.78,195.243 1267.92,195.663 1270.05,196.089 1272.19,196.518 1274.32,196.948 1276.46,197.377 1278.59,197.805 1280.73,198.23 1282.86,198.651 1285,199.068 1287.14,199.481 1289.27,199.889 1291.41,200.293 1293.54,200.693 1295.68,201.09 1297.81,201.485 1299.95,201.878 1302.08,202.273 1304.22,202.669 1306.36,203.07 1308.49,203.478 1310.63,203.894 1312.76,204.321 1314.9,204.752 1317.03,205.186 1319.17,205.621 1321.3,206.055 1323.44,206.488 1325.57,206.918 1327.71,207.345 1329.85,207.769 1331.98,208.189 1334.12,208.606 1336.25,209.019 1338.39,209.428 1340.52,209.836 1342.66,210.241 1344.79,210.646 1346.93,211.052 1349.07,211.459 1351.2,211.87 1353.34,212.287 1355.47,212.712 1357.61,213.144 1359.74,213.579 1361.88,214.016 1364.01,214.453 1366.15,214.89 1368.29,215.325 1370.42,215.757 1372.56,216.187 1374.69,216.613 1376.83,217.036 1378.96,217.456 1381.1,217.873 1383.23,218.287 1385.37,218.699 1387.5,219.11 1389.64,219.521 1391.78,219.932 1393.91,220.346 1396.05,220.764 1398.18,221.186 1400.32,221.617 1402.45,222.052 1404.59,222.489 1406.72,222.928 1408.86,223.366 1411,223.804 1413.13,224.239 1415.27,224.672 1417.4,225.102 1419.54,225.528 1421.67,225.952 1423.81,226.372 1425.94,226.79 1428.08,227.205 1430.22,227.619 1432.35,228.032 1434.49,228.445 1436.62,228.859 1438.76,229.276 1440.89,229.697 1443.03,230.125 1445.16,230.559 1447.3,230.996 1449.43,231.434 1451.57,231.873 1453.71,232.311 1455.84,232.748 1457.98,233.182 1460.11,233.613 1462.25,234.042 1464.38,234.467 1466.52,234.889 1468.65,235.308 1470.79,235.724 1472.93,236.138 1475.06,236.551 1477.2,236.964 1479.33,237.378 1481.47,237.794 1483.6,238.213 1485.74,238.638 1487.87,239.07 1490.01,239.506 1492.14,239.943 1494.28,240.382 1496.42,240.82 1498.55,241.256 1500.69,241.69 1502.82,242.121 1504.96,242.55 1507.09,242.975 1509.23,243.396 1511.36,243.815 1513.5,244.231 1515.64,244.644 1517.77,245.056 1519.91,245.468 1522.04,245.881 1524.18,246.295 1526.31,246.713 1528.45,247.136 1530.58,247.566 1532.72,248.001 1534.86,248.437 1536.99,248.874 1539.13,249.31 1541.26,249.745 1543.4,250.178 1545.53,250.608 1547.67,251.034 1549.8,251.457 1551.94,251.877 1554.07,252.294 1556.21,252.708 1558.35,253.12 1560.48,253.531 1562.62,253.941 1564.75,254.352 1566.89,254.765 1569.02,255.182 1571.16,255.605 1573.29,256.034 1575.43,256.467 1577.57,256.902 1579.7,257.337 1581.84,257.771 1583.97,258.203 1586.11,258.633 1588.24,259.06 1590.38,259.483 1592.51,259.903 1594.65,260.32 1596.78,260.734 1598.92,261.145 1601.06,261.555 1603.19,261.963 1605.33,262.372 1607.46,262.782 1609.6,263.195 1611.73,263.612 1613.87,264.036 1616,264.465 1618.14,264.897 1620.28,265.329 1622.41,265.761 1624.55,266.192 1626.68,266.62 1628.82,267.046 1630.95,267.469 1633.09,267.888 1635.22,268.304 1637.36,268.717 1639.5,269.127 1641.63,269.536 1643.77,269.942 1645.9,270.349 1648.04,270.756 1650.17,271.166 1652.31,271.58 1654.44,271.999 1656.58,272.424 1658.71,272.852 1660.85,273.282 1662.99,273.711 1665.12,274.139 1667.26,274.565 1669.39,274.989 1671.53,275.41 1673.66,275.828 1675.8,276.242 1677.93,276.654 1680.07,277.062 1682.21,277.469 1684.34,277.874 1686.48,278.278 1688.61,278.683 1690.75,279.09 1692.88,279.501 1695.02,279.917 1697.15,280.338 1699.29,280.763 1701.42,281.19 1703.56,281.616 1705.7,282.042 1707.83,282.466 1709.97,282.887 1712.1,283.305 1714.24,283.721 1716.37,284.133 1718.51,284.542 1720.64,284.949 1722.78,285.353 1724.92,285.756 1727.05,286.158 1729.19,286.561 1731.32,286.965 1733.46,287.373 1735.59,287.786 1737.73,288.205 1739.86,288.627 1742,289.051 1744.14,289.474 1746.27,289.897 1748.41,290.318 1750.54,290.736 1752.68,291.152 1754.81,291.565 1756.95,291.974 1759.08,292.381 1761.22,292.784 1763.35,293.186 1765.49,293.587 1767.63,293.986 1769.76,294.387 1771.9,294.789 1774.03,295.195 1776.17,295.606 1778.3,296.023 1780.44,296.442 1782.57,296.863 1784.71,297.283 1786.85,297.703 1788.98,298.12 1791.12,298.536 1793.25,298.948 1795.39,299.358 1797.52,299.764 1799.66,300.168 1801.79,300.569 1803.93,300.967 1806.07,301.365 1808.2,301.763 1810.34,302.161 1812.47,302.561 1814.61,302.965 1816.74,303.375 1818.88,303.789 1821.01,304.206 1823.15,304.624 1825.28,305.042 1827.42,305.458 1829.56,305.872 1831.69,306.284 1833.83,306.693 1835.96,307.099 1838.1,307.502 1840.23,307.902 1842.37,308.3 1844.5,308.696 1846.64,309.091 1848.78,309.486 1850.91,309.882 1853.05,310.281 1855.18,310.684 1857.32,311.092 1859.45,311.505 1861.59,311.919 1863.72,312.334 1865.86,312.749 1867.99,313.161 1870.13,313.572 1872.27,313.98 1874.4,314.386 1876.54,314.788 1878.67,315.187 1880.81,315.584 1882.94,315.979 1885.08,316.372 1887.21,316.764 1889.35,317.157 1891.49,317.551 1893.62,317.948 1895.76,318.35 1897.89,318.758 1900.03,319.169 1902.16,319.581 1904.3,319.993 1906.43,320.404 1908.57,320.813 1910.71,321.22 1912.84,321.624 1914.98,322.026 1917.11,322.424 1919.25,322.819 1921.38,323.212 1923.52,323.604 1925.65,323.994 1927.79,324.383 1929.92,324.774 1932.06,325.167 1934.2,325.564 1936.33,325.966 1938.47,326.373 1940.6,326.781 1942.74,327.19 1944.87,327.599 1947.01,328.007 1949.14,328.412 1951.28,328.815 1953.42,329.215 1955.55,329.612 1957.69,330.006 1959.82,330.398 1961.96,330.787 1964.09,331.175 1966.23,331.562 1968.36,331.95 1970.5,332.339 1972.63,332.731 1974.77,333.128 1976.91,333.53 1979.04,333.935 1981.18,334.342 1983.31,334.748 1985.45,335.153 1987.58,335.557 1989.72,335.958 1991.85,336.357 1993.99,336.752 1996.13,337.145 1998.26,337.535 2000.4,337.923 2002.53,338.309 2004.67,338.693 2006.8,339.078 2008.94,339.464 2011.07,339.852 2013.21,340.244 2015.35,340.642 2017.48,341.044 2019.62,341.447 2021.75,341.85 2023.89,342.253 2026.02,342.655 2028.16,343.054 2030.29,343.451 2032.43,343.845 2034.56,344.236 2036.7,344.624 2038.84,345.01 2040.97,345.394 2043.11,345.777 2045.24,346.159 2047.38,346.541 2049.51,346.926 2051.65,347.314 2053.78,347.707 2055.92,348.105 2058.06,348.506 2060.19,348.906 2062.33,349.307 2064.46,349.706 2066.6,350.103 2068.73,350.498 2070.87,350.89 2073,351.28 2075.14,351.666 2077.27,352.05 2079.41,352.432 2081.55,352.812 2083.68,353.192 2085.82,353.572 2087.95,353.953 2090.09,354.338 2092.22,354.727 2094.36,355.121 2096.49,355.518 2098.63,355.916 2100.77,356.314 2102.9,356.711 2105.04,357.106 2107.17,357.499 2109.31,357.889 2111.44,358.276 2113.58,358.661 2115.71,359.043 2117.85,359.422 2119.99,359.8 2122.12,360.177 2124.26,360.555 2126.39,360.933 2128.53,361.314 2130.66,361.7 2132.8,362.091 2134.93,362.484 2137.07,362.88 2139.2,363.275 2141.34,363.669 2143.48,364.062 2145.61,364.453 2147.75,364.841 2149.88,365.226 2152.02,365.608 2154.15,365.988 2156.29,366.366 2158.42,366.741 2160.56,367.116 2162.7,367.491 2164.83,367.867 2166.97,368.245 2169.1,368.627 2171.24,369.014 2173.37,369.405 2175.51,369.797 2177.64,370.19 2179.78,370.582 2181.92,370.972 2184.05,371.36 2186.19,371.746 2188.32,372.129 2190.46,372.509 2192.59,372.887 2194.73,373.262 2196.86,373.636 2199,374.008 2201.13,374.38 2203.27,374.753 2205.41,375.128 2207.54,375.507 2209.68,375.891 2211.81,376.279 2213.95,376.669 2216.08,377.059 2218.22,377.448 2220.35,377.836 2222.49,378.222 2224.63,378.605 2226.76,378.986 2228.9,379.364 2231.03,379.739 2233.17,380.112 2235.3,380.483 2237.44,380.853 2239.57,381.223 2241.71,381.593 2243.84,381.966 2245.98,382.342 2248.12,382.723 2250.25,383.108 2252.39,383.495 2254.52,383.882 2256.66,384.269 2258.79,384.655 2260.93,385.038 2263.06,385.419 2265.2,385.797 2267.34,386.173 2269.47,386.546 2271.61,386.916 2273.74,387.285 2275.88,387.652 2278.01,388.02 2280.15,388.388 2282.28,388.757 2284.42,389.131 2286.56,389.509 2288.69,389.892 2290.83,390.276 2292.96,390.661 2295.1,391.045 2297.23,391.428 2299.37,391.808 2301.5,392.187 2303.64,392.563 2305.77,392.936 2307.91,393.306 2310.05,393.674 2312.18,394.04 2314.32,394.406 2316.45,394.77 2318.59,395.136 2320.72,395.503 2322.86,395.874 2324.99,396.25 2327.13,396.628 2329.27,397.006 2331.4,397.383 2333.54,397.76 2335.67,398.135 2337.81,398.509 2339.94,398.882 2342.08,399.255 2344.21,399.626 2346.35,399.997 2348.48,400.368 2350.62,400.74 2352.76,401.111 "/>
<circle clip-path="url(#clip722)" cx="358.258" cy="903.338" r="18" fill="#e26f46" fill-rule="evenodd" fill-opacity="1" stroke="#000000" stroke-opacity="1" stroke-width="3.2"/>
<circle clip-path="url(#clip722)" cx="574.821" cy="626.027" r="18" fill="#e26f46" fill-rule="evenodd" fill-opacity="1" stroke="#000000" stroke-opacity="1" stroke-width="3.2"/>
<circle clip-path="url(#clip722)" cx="800.91" cy="227.952" r="18" fill="#e26f46" fill-rule="evenodd" fill-opacity="1" stroke="#000000" stroke-opacity="1" stroke-width="3.2"/>
<circle clip-path="url(#clip722)" cx="1022.97" cy="160.86" r="18" fill="#e26f46" fill-rule="evenodd" fill-opacity="1" stroke="#000000" stroke-opacity="1" stroke-width="3.2"/>
<circle clip-path="url(#clip722)" cx="2132.9" cy="362.134" r="18" fill="#e26f46" fill-rule="evenodd" fill-opacity="1" stroke="#000000" stroke-opacity="1" stroke-width="3.2"/>
<path clip-path="url(#clip720)" d="M1718.93 1379.86 L2281.64 1379.86 L2281.64 1224.34 L1718.93 1224.34  Z" fill="#ffffff" fill-rule="evenodd" fill-opacity="1"/>
<polyline clip-path="url(#clip720)" style="stroke:#000000; stroke-linecap:round; stroke-linejoin:round; stroke-width:4; stroke-opacity:1; fill:none" points="1718.93,1379.86 2281.64,1379.86 2281.64,1224.34 1718.93,1224.34 1718.93,1379.86 "/>
<polyline clip-path="url(#clip720)" style="stroke:#009af9; stroke-linecap:round; stroke-linejoin:round; stroke-width:8; stroke-opacity:1; fill:none" points="1742.64,1276.18 1884.86,1276.18 "/>
<path clip-path="url(#clip720)" d="M1913.24 1276.95 L1913.24 1289.61 L1920.74 1289.61 Q1924.52 1289.61 1926.32 1288.06 Q1928.15 1286.49 1928.15 1283.27 Q1928.15 1280.03 1926.32 1278.5 Q1924.52 1276.95 1920.74 1276.95 L1913.24 1276.95 M1913.24 1262.74 L1913.24 1273.16 L1920.16 1273.16 Q1923.59 1273.16 1925.26 1271.88 Q1926.95 1270.59 1926.95 1267.95 Q1926.95 1265.33 1925.26 1264.04 Q1923.59 1262.74 1920.16 1262.74 L1913.24 1262.74 M1908.57 1258.9 L1920.51 1258.9 Q1925.86 1258.9 1928.75 1261.12 Q1931.64 1263.34 1931.64 1267.44 Q1931.64 1270.61 1930.16 1272.48 Q1928.68 1274.36 1925.81 1274.82 Q1929.26 1275.56 1931.16 1277.92 Q1933.08 1280.26 1933.08 1283.78 Q1933.08 1288.41 1929.93 1290.93 Q1926.78 1293.46 1920.97 1293.46 L1908.57 1293.46 L1908.57 1258.9 Z" fill="#000000" fill-rule="nonzero" fill-opacity="1" /><path clip-path="url(#clip720)" d="M1940.9 1257.44 L1945.16 1257.44 L1945.16 1293.46 L1940.9 1293.46 L1940.9 1257.44 Z" fill="#000000" fill-rule="nonzero" fill-opacity="1" /><path clip-path="url(#clip720)" d="M1964.12 1270.52 Q1960.7 1270.52 1958.7 1273.2 Q1956.71 1275.86 1956.71 1280.52 Q1956.71 1285.17 1958.68 1287.85 Q1960.67 1290.52 1964.12 1290.52 Q1967.52 1290.52 1969.51 1287.83 Q1971.51 1285.15 1971.51 1280.52 Q1971.51 1275.91 1969.51 1273.22 Q1967.52 1270.52 1964.12 1270.52 M1964.12 1266.91 Q1969.68 1266.91 1972.85 1270.52 Q1976.02 1274.13 1976.02 1280.52 Q1976.02 1286.88 1972.85 1290.52 Q1969.68 1294.13 1964.12 1294.13 Q1958.54 1294.13 1955.37 1290.52 Q1952.22 1286.88 1952.22 1280.52 Q1952.22 1274.13 1955.37 1270.52 Q1958.54 1266.91 1964.12 1266.91 Z" fill="#000000" fill-rule="nonzero" fill-opacity="1" /><path clip-path="url(#clip720)" d="M1993.13 1270.52 Q1989.7 1270.52 1987.71 1273.2 Q1985.72 1275.86 1985.72 1280.52 Q1985.72 1285.17 1987.69 1287.85 Q1989.68 1290.52 1993.13 1290.52 Q1996.53 1290.52 1998.52 1287.83 Q2000.51 1285.15 2000.51 1280.52 Q2000.51 1275.91 1998.52 1273.22 Q1996.53 1270.52 1993.13 1270.52 M1993.13 1266.91 Q1998.68 1266.91 2001.85 1270.52 Q2005.02 1274.13 2005.02 1280.52 Q2005.02 1286.88 2001.85 1290.52 Q1998.68 1294.13 1993.13 1294.13 Q1987.55 1294.13 1984.38 1290.52 Q1981.23 1286.88 1981.23 1280.52 Q1981.23 1274.13 1984.38 1270.52 Q1987.55 1266.91 1993.13 1266.91 Z" fill="#000000" fill-rule="nonzero" fill-opacity="1" /><path clip-path="url(#clip720)" d="M2029.14 1271.47 L2029.14 1257.44 L2033.4 1257.44 L2033.4 1293.46 L2029.14 1293.46 L2029.14 1289.57 Q2027.8 1291.88 2025.74 1293.02 Q2023.7 1294.13 2020.83 1294.13 Q2016.13 1294.13 2013.17 1290.38 Q2010.23 1286.63 2010.23 1280.52 Q2010.23 1274.41 2013.17 1270.66 Q2016.13 1266.91 2020.83 1266.91 Q2023.7 1266.91 2025.74 1268.04 Q2027.8 1269.15 2029.14 1271.47 M2014.63 1280.52 Q2014.63 1285.22 2016.55 1287.9 Q2018.5 1290.56 2021.88 1290.56 Q2025.26 1290.56 2027.2 1287.9 Q2029.14 1285.22 2029.14 1280.52 Q2029.14 1275.82 2027.2 1273.16 Q2025.26 1270.47 2021.88 1270.47 Q2018.5 1270.47 2016.55 1273.16 Q2014.63 1275.82 2014.63 1280.52 Z" fill="#000000" fill-rule="nonzero" fill-opacity="1" /><circle clip-path="url(#clip720)" cx="1813.75" cy="1328.02" r="20.9455" fill="#e26f46" fill-rule="evenodd" fill-opacity="1" stroke="#000000" stroke-opacity="1" stroke-width="3.72364"/>
<path clip-path="url(#clip720)" d="M1924.58 1313.91 Q1919.49 1313.91 1916.48 1317.7 Q1913.5 1321.5 1913.5 1328.05 Q1913.5 1334.58 1916.48 1338.37 Q1919.49 1342.17 1924.58 1342.17 Q1929.68 1342.17 1932.64 1338.37 Q1935.63 1334.58 1935.63 1328.05 Q1935.63 1321.5 1932.64 1317.7 Q1929.68 1313.91 1924.58 1313.91 M1924.58 1310.11 Q1931.85 1310.11 1936.2 1315 Q1940.56 1319.86 1940.56 1328.05 Q1940.56 1336.22 1936.2 1341.11 Q1931.85 1345.97 1924.58 1345.97 Q1917.29 1345.97 1912.92 1341.11 Q1908.57 1336.25 1908.57 1328.05 Q1908.57 1319.86 1912.92 1315 Q1917.29 1310.11 1924.58 1310.11 Z" fill="#000000" fill-rule="nonzero" fill-opacity="1" /><path clip-path="url(#clip720)" d="M1966.3 1332.36 Q1966.3 1327.66 1964.35 1325 Q1962.43 1322.31 1959.05 1322.31 Q1955.67 1322.31 1953.73 1325 Q1951.81 1327.66 1951.81 1332.36 Q1951.81 1337.06 1953.73 1339.74 Q1955.67 1342.4 1959.05 1342.4 Q1962.43 1342.4 1964.35 1339.74 Q1966.3 1337.06 1966.3 1332.36 M1951.81 1323.31 Q1953.15 1320.99 1955.19 1319.88 Q1957.25 1318.75 1960.09 1318.75 Q1964.82 1318.75 1967.76 1322.5 Q1970.72 1326.25 1970.72 1332.36 Q1970.72 1338.47 1967.76 1342.22 Q1964.82 1345.97 1960.09 1345.97 Q1957.25 1345.97 1955.19 1344.86 Q1953.15 1343.72 1951.81 1341.41 L1951.81 1345.3 L1947.52 1345.3 L1947.52 1309.28 L1951.81 1309.28 L1951.81 1323.31 Z" fill="#000000" fill-rule="nonzero" fill-opacity="1" /><path clip-path="url(#clip720)" d="M1994.31 1320.13 L1994.31 1324.16 Q1992.5 1323.24 1990.56 1322.77 Q1988.61 1322.31 1986.53 1322.31 Q1983.36 1322.31 1981.76 1323.28 Q1980.19 1324.25 1980.19 1326.2 Q1980.19 1327.68 1981.32 1328.54 Q1982.45 1329.37 1985.88 1330.13 L1987.34 1330.46 Q1991.88 1331.43 1993.77 1333.21 Q1995.7 1334.97 1995.7 1338.14 Q1995.7 1341.75 1992.82 1343.86 Q1989.98 1345.97 1984.98 1345.97 Q1982.89 1345.97 1980.63 1345.55 Q1978.38 1345.16 1975.88 1344.35 L1975.88 1339.95 Q1978.24 1341.18 1980.53 1341.8 Q1982.82 1342.4 1985.07 1342.4 Q1988.08 1342.4 1989.7 1341.38 Q1991.32 1340.34 1991.32 1338.47 Q1991.32 1336.73 1990.14 1335.81 Q1988.98 1334.88 1985.02 1334.02 L1983.54 1333.68 Q1979.58 1332.84 1977.82 1331.13 Q1976.07 1329.39 1976.07 1326.38 Q1976.07 1322.73 1978.66 1320.74 Q1981.25 1318.75 1986.02 1318.75 Q1988.38 1318.75 1990.46 1319.09 Q1992.55 1319.44 1994.31 1320.13 Z" fill="#000000" fill-rule="nonzero" fill-opacity="1" /><path clip-path="url(#clip720)" d="M2024.65 1331.27 L2024.65 1333.35 L2005.07 1333.35 Q2005.35 1337.75 2007.71 1340.06 Q2010.09 1342.36 2014.33 1342.36 Q2016.78 1342.36 2019.07 1341.75 Q2021.39 1341.15 2023.66 1339.95 L2023.66 1343.98 Q2021.37 1344.95 2018.96 1345.46 Q2016.55 1345.97 2014.07 1345.97 Q2007.87 1345.97 2004.24 1342.36 Q2000.63 1338.75 2000.63 1332.59 Q2000.63 1326.22 2004.05 1322.5 Q2007.5 1318.75 2013.33 1318.75 Q2018.57 1318.75 2021.6 1322.13 Q2024.65 1325.48 2024.65 1331.27 M2020.39 1330.02 Q2020.35 1326.52 2018.43 1324.44 Q2016.53 1322.36 2013.38 1322.36 Q2009.82 1322.36 2007.66 1324.37 Q2005.53 1326.38 2005.21 1330.04 L2020.39 1330.02 Z" fill="#000000" fill-rule="nonzero" fill-opacity="1" /><path clip-path="url(#clip720)" d="M2046.67 1323.35 Q2045.95 1322.94 2045.09 1322.75 Q2044.26 1322.54 2043.24 1322.54 Q2039.63 1322.54 2037.69 1324.9 Q2035.76 1327.24 2035.76 1331.64 L2035.76 1345.3 L2031.48 1345.3 L2031.48 1319.37 L2035.76 1319.37 L2035.76 1323.4 Q2037.11 1321.04 2039.26 1319.9 Q2041.41 1318.75 2044.49 1318.75 Q2044.93 1318.75 2045.46 1318.81 Q2046 1318.86 2046.64 1318.98 L2046.67 1323.35 Z" fill="#000000" fill-rule="nonzero" fill-opacity="1" /><path clip-path="url(#clip720)" d="M2048.08 1319.37 L2052.59 1319.37 L2060.69 1341.13 L2068.8 1319.37 L2073.31 1319.37 L2063.59 1345.3 L2057.8 1345.3 L2048.08 1319.37 Z" fill="#000000" fill-rule="nonzero" fill-opacity="1" /><path clip-path="url(#clip720)" d="M2101.37 1331.27 L2101.37 1333.35 L2081.78 1333.35 Q2082.06 1337.75 2084.42 1340.06 Q2086.81 1342.36 2091.04 1342.36 Q2093.5 1342.36 2095.79 1341.75 Q2098.1 1341.15 2100.37 1339.95 L2100.37 1343.98 Q2098.08 1344.95 2095.67 1345.46 Q2093.26 1345.97 2090.79 1345.97 Q2084.58 1345.97 2080.95 1342.36 Q2077.34 1338.75 2077.34 1332.59 Q2077.34 1326.22 2080.76 1322.5 Q2084.21 1318.75 2090.05 1318.75 Q2095.28 1318.75 2098.31 1322.13 Q2101.37 1325.48 2101.37 1331.27 M2097.11 1330.02 Q2097.06 1326.52 2095.14 1324.44 Q2093.24 1322.36 2090.09 1322.36 Q2086.53 1322.36 2084.38 1324.37 Q2082.25 1326.38 2081.92 1330.04 L2097.11 1330.02 Z" fill="#000000" fill-rule="nonzero" fill-opacity="1" /><path clip-path="url(#clip720)" d="M2125.42 1323.31 L2125.42 1309.28 L2129.68 1309.28 L2129.68 1345.3 L2125.42 1345.3 L2125.42 1341.41 Q2124.07 1343.72 2122.01 1344.86 Q2119.98 1345.97 2117.11 1345.97 Q2112.41 1345.97 2109.44 1342.22 Q2106.5 1338.47 2106.5 1332.36 Q2106.5 1326.25 2109.44 1322.5 Q2112.41 1318.75 2117.11 1318.75 Q2119.98 1318.75 2122.01 1319.88 Q2124.07 1320.99 2125.42 1323.31 M2110.9 1332.36 Q2110.9 1337.06 2112.82 1339.74 Q2114.77 1342.4 2118.15 1342.4 Q2121.53 1342.4 2123.47 1339.74 Q2125.42 1337.06 2125.42 1332.36 Q2125.42 1327.66 2123.47 1325 Q2121.53 1322.31 2118.15 1322.31 Q2114.77 1322.31 2112.82 1325 Q2110.9 1327.66 2110.9 1332.36 Z" fill="#000000" fill-rule="nonzero" fill-opacity="1" /><path clip-path="url(#clip720)" d="M2158.38 1314.58 L2158.38 1341.45 L2164.03 1341.45 Q2171.18 1341.45 2174.49 1338.21 Q2177.82 1334.97 2177.82 1327.98 Q2177.82 1321.04 2174.49 1317.82 Q2171.18 1314.58 2164.03 1314.58 L2158.38 1314.58 M2153.7 1310.74 L2163.31 1310.74 Q2173.36 1310.74 2178.06 1314.93 Q2182.75 1319.09 2182.75 1327.98 Q2182.75 1336.92 2178.03 1341.11 Q2173.31 1345.3 2163.31 1345.3 L2153.7 1345.3 L2153.7 1310.74 Z" fill="#000000" fill-rule="nonzero" fill-opacity="1" /><path clip-path="url(#clip720)" d="M2201.81 1332.26 Q2196.64 1332.26 2194.65 1333.44 Q2192.66 1334.63 2192.66 1337.47 Q2192.66 1339.74 2194.14 1341.08 Q2195.65 1342.4 2198.22 1342.4 Q2201.76 1342.4 2203.89 1339.9 Q2206.04 1337.38 2206.04 1333.21 L2206.04 1332.26 L2201.81 1332.26 M2210.3 1330.5 L2210.3 1345.3 L2206.04 1345.3 L2206.04 1341.36 Q2204.58 1343.72 2202.41 1344.86 Q2200.23 1345.97 2197.08 1345.97 Q2193.1 1345.97 2190.74 1343.75 Q2188.4 1341.5 2188.4 1337.75 Q2188.4 1333.38 2191.32 1331.15 Q2194.26 1328.93 2200.07 1328.93 L2206.04 1328.93 L2206.04 1328.51 Q2206.04 1325.57 2204.1 1323.98 Q2202.18 1322.36 2198.68 1322.36 Q2196.46 1322.36 2194.35 1322.89 Q2192.25 1323.42 2190.3 1324.49 L2190.3 1320.55 Q2192.64 1319.65 2194.84 1319.21 Q2197.04 1318.75 2199.12 1318.75 Q2204.75 1318.75 2207.52 1321.66 Q2210.3 1324.58 2210.3 1330.5 Z" fill="#000000" fill-rule="nonzero" fill-opacity="1" /><path clip-path="url(#clip720)" d="M2223.29 1312.01 L2223.29 1319.37 L2232.06 1319.37 L2232.06 1322.68 L2223.29 1322.68 L2223.29 1336.75 Q2223.29 1339.93 2224.14 1340.83 Q2225.02 1341.73 2227.68 1341.73 L2232.06 1341.73 L2232.06 1345.3 L2227.68 1345.3 Q2222.75 1345.3 2220.88 1343.47 Q2219 1341.62 2219 1336.75 L2219 1322.68 L2215.88 1322.68 L2215.88 1319.37 L2219 1319.37 L2219 1312.01 L2223.29 1312.01 Z" fill="#000000" fill-rule="nonzero" fill-opacity="1" /><path clip-path="url(#clip720)" d="M2249.44 1332.26 Q2244.28 1332.26 2242.29 1333.44 Q2240.3 1334.63 2240.3 1337.47 Q2240.3 1339.74 2241.78 1341.08 Q2243.29 1342.4 2245.86 1342.4 Q2249.4 1342.4 2251.53 1339.9 Q2253.68 1337.38 2253.68 1333.21 L2253.68 1332.26 L2249.44 1332.26 M2257.94 1330.5 L2257.94 1345.3 L2253.68 1345.3 L2253.68 1341.36 Q2252.22 1343.72 2250.05 1344.86 Q2247.87 1345.97 2244.72 1345.97 Q2240.74 1345.97 2238.38 1343.75 Q2236.04 1341.5 2236.04 1337.75 Q2236.04 1333.38 2238.96 1331.15 Q2241.9 1328.93 2247.71 1328.93 L2253.68 1328.93 L2253.68 1328.51 Q2253.68 1325.57 2251.74 1323.98 Q2249.81 1322.36 2246.32 1322.36 Q2244.1 1322.36 2241.99 1322.89 Q2239.88 1323.42 2237.94 1324.49 L2237.94 1320.55 Q2240.28 1319.65 2242.48 1319.21 Q2244.68 1318.75 2246.76 1318.75 Q2252.38 1318.75 2255.16 1321.66 Q2257.94 1324.58 2257.94 1330.5 Z" fill="#000000" fill-rule="nonzero" fill-opacity="1" /></svg>
