<?xml version="1.0" encoding="utf-8"?>
<svg xmlns="http://www.w3.org/2000/svg" xmlns:xlink="http://www.w3.org/1999/xlink" width="600" height="400" viewBox="0 0 2400 1600">
<defs>
  <clipPath id="clip700">
    <rect x="0" y="0" width="2400" height="1600"/>
  </clipPath>
</defs>
<path clip-path="url(#clip700)" d="M0 1600 L2400 1600 L2400 0 L0 0  Z" fill="#ffffff" fill-rule="evenodd" fill-opacity="1"/>
<defs>
  <clipPath id="clip701">
    <rect x="205" y="123" width="2149" height="1301"/>
  </clipPath>
</defs>
<path clip-path="url(#clip700)" d="M219.38 1423.18 L2352.76 1423.18 L2352.76 123.472 L219.38 123.472  Z" fill="#ffffff" fill-rule="evenodd" fill-opacity="1"/>
<defs>
  <clipPath id="clip702">
    <rect x="219" y="123" width="2134" height="1301"/>
  </clipPath>
</defs>
<polyline clip-path="url(#clip702)" style="stroke:#000000; stroke-linecap:round; stroke-linejoin:round; stroke-width:2; stroke-opacity:0.1; fill:none" points="219.38,1423.18 219.38,123.472 "/>
<polyline clip-path="url(#clip702)" style="stroke:#000000; stroke-linecap:round; stroke-linejoin:round; stroke-width:2; stroke-opacity:0.1; fill:none" points="655.891,1423.18 655.891,123.472 "/>
<polyline clip-path="url(#clip702)" style="stroke:#000000; stroke-linecap:round; stroke-linejoin:round; stroke-width:2; stroke-opacity:0.1; fill:none" points="1092.4,1423.18 1092.4,123.472 "/>
<polyline clip-path="url(#clip702)" style="stroke:#000000; stroke-linecap:round; stroke-linejoin:round; stroke-width:2; stroke-opacity:0.1; fill:none" points="1528.91,1423.18 1528.91,123.472 "/>
<polyline clip-path="url(#clip702)" style="stroke:#000000; stroke-linecap:round; stroke-linejoin:round; stroke-width:2; stroke-opacity:0.1; fill:none" points="1965.42,1423.18 1965.42,123.472 "/>
<polyline clip-path="url(#clip702)" style="stroke:#000000; stroke-linecap:round; stroke-linejoin:round; stroke-width:2; stroke-opacity:0.1; fill:none" points="219.38,1386.4 2352.76,1386.4 "/>
<polyline clip-path="url(#clip702)" style="stroke:#000000; stroke-linecap:round; stroke-linejoin:round; stroke-width:2; stroke-opacity:0.1; fill:none" points="219.38,1146.73 2352.76,1146.73 "/>
<polyline clip-path="url(#clip702)" style="stroke:#000000; stroke-linecap:round; stroke-linejoin:round; stroke-width:2; stroke-opacity:0.1; fill:none" points="219.38,907.069 2352.76,907.069 "/>
<polyline clip-path="url(#clip702)" style="stroke:#000000; stroke-linecap:round; stroke-linejoin:round; stroke-width:2; stroke-opacity:0.1; fill:none" points="219.38,667.406 2352.76,667.406 "/>
<polyline clip-path="url(#clip702)" style="stroke:#000000; stroke-linecap:round; stroke-linejoin:round; stroke-width:2; stroke-opacity:0.1; fill:none" points="219.38,427.742 2352.76,427.742 "/>
<polyline clip-path="url(#clip702)" style="stroke:#000000; stroke-linecap:round; stroke-linejoin:round; stroke-width:2; stroke-opacity:0.1; fill:none" points="219.38,188.079 2352.76,188.079 "/>
<polyline clip-path="url(#clip700)" style="stroke:#000000; stroke-linecap:round; stroke-linejoin:round; stroke-width:4; stroke-opacity:1; fill:none" points="219.38,1423.18 2352.76,1423.18 "/>
<polyline clip-path="url(#clip700)" style="stroke:#000000; stroke-linecap:round; stroke-linejoin:round; stroke-width:4; stroke-opacity:1; fill:none" points="219.38,1423.18 219.38,1404.28 "/>
<polyline clip-path="url(#clip700)" style="stroke:#000000; stroke-linecap:round; stroke-linejoin:round; stroke-width:4; stroke-opacity:1; fill:none" points="655.891,1423.18 655.891,1404.28 "/>
<polyline clip-path="url(#clip700)" style="stroke:#000000; stroke-linecap:round; stroke-linejoin:round; stroke-width:4; stroke-opacity:1; fill:none" points="1092.4,1423.18 1092.4,1404.28 "/>
<polyline clip-path="url(#clip700)" style="stroke:#000000; stroke-linecap:round; stroke-linejoin:round; stroke-width:4; stroke-opacity:1; fill:none" points="1528.91,1423.18 1528.91,1404.28 "/>
<polyline clip-path="url(#clip700)" style="stroke:#000000; stroke-linecap:round; stroke-linejoin:round; stroke-width:4; stroke-opacity:1; fill:none" points="1965.42,1423.18 1965.42,1404.28 "/>
<path clip-path="url(#clip700)" d="M219.38 1454.1 Q215.769 1454.1 213.94 1457.66 Q212.135 1461.2 212.135 1468.33 Q212.135 1475.44 213.94 1479.01 Q215.769 1482.55 219.38 1482.55 Q223.014 1482.55 224.82 1479.01 Q226.649 1475.44 226.649 1468.33 Q226.649 1461.2 224.82 1457.66 Q223.014 1454.1 219.38 1454.1 M219.38 1450.39 Q225.19 1450.39 228.246 1455 Q231.325 1459.58 231.325 1468.33 Q231.325 1477.06 228.246 1481.67 Q225.19 1486.25 219.38 1486.25 Q213.57 1486.25 210.491 1481.67 Q207.436 1477.06 207.436 1468.33 Q207.436 1459.58 210.491 1455 Q213.57 1450.39 219.38 1450.39 Z" fill="#000000" fill-rule="nonzero" fill-opacity="1" /><path clip-path="url(#clip700)" d="M635.162 1481.64 L651.482 1481.64 L651.482 1485.58 L629.537 1485.58 L629.537 1481.64 Q632.199 1478.89 636.783 1474.26 Q641.389 1469.61 642.57 1468.27 Q644.815 1465.74 645.695 1464.01 Q646.597 1462.25 646.597 1460.56 Q646.597 1457.8 644.653 1456.07 Q642.732 1454.33 639.63 1454.33 Q637.431 1454.33 634.977 1455.09 Q632.547 1455.86 629.769 1457.41 L629.769 1452.69 Q632.593 1451.55 635.047 1450.97 Q637.5 1450.39 639.537 1450.39 Q644.908 1450.39 648.102 1453.08 Q651.296 1455.77 651.296 1460.26 Q651.296 1462.39 650.486 1464.31 Q649.699 1466.2 647.593 1468.8 Q647.014 1469.47 643.912 1472.69 Q640.81 1475.88 635.162 1481.64 Z" fill="#000000" fill-rule="nonzero" fill-opacity="1" /><path clip-path="url(#clip700)" d="M661.343 1451.02 L679.699 1451.02 L679.699 1454.96 L665.625 1454.96 L665.625 1463.43 Q666.644 1463.08 667.662 1462.92 Q668.681 1462.73 669.699 1462.73 Q675.486 1462.73 678.866 1465.9 Q682.245 1469.08 682.245 1474.49 Q682.245 1480.07 678.773 1483.17 Q675.301 1486.25 668.982 1486.25 Q666.806 1486.25 664.537 1485.88 Q662.292 1485.51 659.884 1484.77 L659.884 1480.07 Q661.968 1481.2 664.19 1481.76 Q666.412 1482.32 668.889 1482.32 Q672.894 1482.32 675.232 1480.21 Q677.569 1478.1 677.569 1474.49 Q677.569 1470.88 675.232 1468.77 Q672.894 1466.67 668.889 1466.67 Q667.014 1466.67 665.139 1467.08 Q663.287 1467.5 661.343 1468.38 L661.343 1451.02 Z" fill="#000000" fill-rule="nonzero" fill-opacity="1" /><path clip-path="url(#clip700)" d="M1067.1 1451.02 L1085.46 1451.02 L1085.46 1454.96 L1071.38 1454.96 L1071.38 1463.43 Q1072.4 1463.08 1073.42 1462.92 Q1074.44 1462.73 1075.46 1462.73 Q1081.25 1462.73 1084.62 1465.9 Q1088 1469.08 1088 1474.49 Q1088 1480.07 1084.53 1483.17 Q1081.06 1486.25 1074.74 1486.25 Q1072.56 1486.25 1070.3 1485.88 Q1068.05 1485.51 1065.64 1484.77 L1065.64 1480.07 Q1067.73 1481.2 1069.95 1481.76 Q1072.17 1482.32 1074.65 1482.32 Q1078.65 1482.32 1080.99 1480.21 Q1083.33 1478.1 1083.33 1474.49 Q1083.33 1470.88 1080.99 1468.77 Q1078.65 1466.67 1074.65 1466.67 Q1072.77 1466.67 1070.9 1467.08 Q1069.05 1467.5 1067.1 1468.38 L1067.1 1451.02 Z" fill="#000000" fill-rule="nonzero" fill-opacity="1" /><path clip-path="url(#clip700)" d="M1107.22 1454.1 Q1103.61 1454.1 1101.78 1457.66 Q1099.97 1461.2 1099.97 1468.33 Q1099.97 1475.44 1101.78 1479.01 Q1103.61 1482.55 1107.22 1482.55 Q1110.85 1482.55 1112.66 1479.01 Q1114.49 1475.44 1114.49 1468.33 Q1114.49 1461.2 1112.66 1457.66 Q1110.85 1454.1 1107.22 1454.1 M1107.22 1450.39 Q1113.03 1450.39 1116.08 1455 Q1119.16 1459.58 1119.16 1468.33 Q1119.16 1477.06 1116.08 1481.67 Q1113.03 1486.25 1107.22 1486.25 Q1101.41 1486.25 1098.33 1481.67 Q1095.27 1477.06 1095.27 1468.33 Q1095.27 1459.58 1098.33 1455 Q1101.41 1450.39 1107.22 1450.39 Z" fill="#000000" fill-rule="nonzero" fill-opacity="1" /><path clip-path="url(#clip700)" d="M1502.77 1451.02 L1524.99 1451.02 L1524.99 1453.01 L1512.44 1485.58 L1507.56 1485.58 L1519.37 1454.96 L1502.77 1454.96 L1502.77 1451.02 Z" fill="#000000" fill-rule="nonzero" fill-opacity="1" /><path clip-path="url(#clip700)" d="M1534.16 1451.02 L1552.51 1451.02 L1552.51 1454.96 L1538.44 1454.96 L1538.44 1463.43 Q1539.46 1463.08 1540.48 1462.92 Q1541.49 1462.73 1542.51 1462.73 Q1548.3 1462.73 1551.68 1465.9 Q1555.06 1469.08 1555.06 1474.49 Q1555.06 1480.07 1551.59 1483.17 Q1548.12 1486.25 1541.8 1486.25 Q1539.62 1486.25 1537.35 1485.88 Q1535.11 1485.51 1532.7 1484.77 L1532.7 1480.07 Q1534.78 1481.2 1537 1481.76 Q1539.23 1482.32 1541.7 1482.32 Q1545.71 1482.32 1548.05 1480.21 Q1550.38 1478.1 1550.38 1474.49 Q1550.38 1470.88 1548.05 1468.77 Q1545.71 1466.67 1541.7 1466.67 Q1539.83 1466.67 1537.95 1467.08 Q1536.1 1467.5 1534.16 1468.38 L1534.16 1451.02 Z" fill="#000000" fill-rule="nonzero" fill-opacity="1" /><path clip-path="url(#clip700)" d="M1925.03 1481.64 L1932.67 1481.64 L1932.67 1455.28 L1924.36 1456.95 L1924.36 1452.69 L1932.62 1451.02 L1937.3 1451.02 L1937.3 1481.64 L1944.94 1481.64 L1944.94 1485.58 L1925.03 1485.58 L1925.03 1481.64 Z" fill="#000000" fill-rule="nonzero" fill-opacity="1" /><path clip-path="url(#clip700)" d="M1964.38 1454.1 Q1960.77 1454.1 1958.94 1457.66 Q1957.14 1461.2 1957.14 1468.33 Q1957.14 1475.44 1958.94 1479.01 Q1960.77 1482.55 1964.38 1482.55 Q1968.02 1482.55 1969.82 1479.01 Q1971.65 1475.44 1971.65 1468.33 Q1971.65 1461.2 1969.82 1457.66 Q1968.02 1454.1 1964.38 1454.1 M1964.38 1450.39 Q1970.19 1450.39 1973.25 1455 Q1976.33 1459.58 1976.33 1468.33 Q1976.33 1477.06 1973.25 1481.67 Q1970.19 1486.25 1964.38 1486.25 Q1958.57 1486.25 1955.49 1481.67 Q1952.44 1477.06 1952.44 1468.33 Q1952.44 1459.58 1955.49 1455 Q1958.57 1450.39 1964.38 1450.39 Z" fill="#000000" fill-rule="nonzero" fill-opacity="1" /><path clip-path="url(#clip700)" d="M1994.55 1454.1 Q1990.93 1454.1 1989.11 1457.66 Q1987.3 1461.2 1987.3 1468.33 Q1987.3 1475.44 1989.11 1479.01 Q1990.93 1482.55 1994.55 1482.55 Q1998.18 1482.55 1999.98 1479.01 Q2001.81 1475.44 2001.81 1468.33 Q2001.81 1461.2 1999.98 1457.66 Q1998.18 1454.1 1994.55 1454.1 M1994.55 1450.39 Q2000.36 1450.39 2003.41 1455 Q2006.49 1459.58 2006.49 1468.33 Q2006.49 1477.06 2003.41 1481.67 Q2000.36 1486.25 1994.55 1486.25 Q1988.74 1486.25 1985.66 1481.67 Q1982.6 1477.06 1982.6 1468.33 Q1982.6 1459.58 1985.66 1455 Q1988.74 1450.39 1994.55 1450.39 Z" fill="#000000" fill-rule="nonzero" fill-opacity="1" /><path clip-path="url(#clip700)" d="M1207.94 1520.52 L1248.14 1520.52 L1248.14 1525.93 L1231.28 1525.93 L1231.28 1568.04 L1224.81 1568.04 L1224.81 1525.93 L1207.94 1525.93 L1207.94 1520.52 Z" fill="#000000" fill-rule="nonzero" fill-opacity="1" /><path clip-path="url(#clip700)" d="M1252.09 1532.4 L1257.95 1532.4 L1257.95 1568.04 L1252.09 1568.04 L1252.09 1532.4 M1252.09 1518.52 L1257.95 1518.52 L1257.95 1525.93 L1252.09 1525.93 L1252.09 1518.52 Z" fill="#000000" fill-rule="nonzero" fill-opacity="1" /><path clip-path="url(#clip700)" d="M1297.96 1539.24 Q1300.15 1535.29 1303.21 1533.41 Q1306.26 1531.54 1310.4 1531.54 Q1315.97 1531.54 1318.99 1535.45 Q1322.02 1539.33 1322.02 1546.53 L1322.02 1568.04 L1316.13 1568.04 L1316.13 1546.72 Q1316.13 1541.59 1314.32 1539.11 Q1312.5 1536.63 1308.78 1536.63 Q1304.23 1536.63 1301.58 1539.65 Q1298.94 1542.68 1298.94 1547.9 L1298.94 1568.04 L1293.05 1568.04 L1293.05 1546.72 Q1293.05 1541.56 1291.24 1539.11 Q1289.43 1536.63 1285.64 1536.63 Q1281.15 1536.63 1278.51 1539.68 Q1275.87 1542.71 1275.87 1547.9 L1275.87 1568.04 L1269.98 1568.04 L1269.98 1532.4 L1275.87 1532.4 L1275.87 1537.93 Q1277.87 1534.66 1280.67 1533.1 Q1283.47 1531.54 1287.33 1531.54 Q1291.21 1531.54 1293.91 1533.51 Q1296.65 1535.48 1297.96 1539.24 Z" fill="#000000" fill-rule="nonzero" fill-opacity="1" /><path clip-path="url(#clip700)" d="M1364.19 1548.76 L1364.19 1551.62 L1337.26 1551.62 Q1337.65 1557.67 1340.89 1560.85 Q1344.17 1564 1350 1564 Q1353.37 1564 1356.52 1563.17 Q1359.7 1562.35 1362.82 1560.69 L1362.82 1566.23 Q1359.67 1567.57 1356.36 1568.27 Q1353.05 1568.97 1349.65 1568.97 Q1341.12 1568.97 1336.12 1564 Q1331.15 1559.04 1331.15 1550.57 Q1331.15 1541.82 1335.86 1536.69 Q1340.61 1531.54 1348.63 1531.54 Q1355.82 1531.54 1359.99 1536.18 Q1364.19 1540.8 1364.19 1548.76 M1358.33 1547.04 Q1358.27 1542.23 1355.63 1539.37 Q1353.02 1536.5 1348.69 1536.5 Q1343.79 1536.5 1340.83 1539.27 Q1337.9 1542.04 1337.46 1547.07 L1358.33 1547.04 Z" fill="#000000" fill-rule="nonzero" fill-opacity="1" /><polyline clip-path="url(#clip700)" style="stroke:#000000; stroke-linecap:round; stroke-linejoin:round; stroke-width:4; stroke-opacity:1; fill:none" points="219.38,1423.18 219.38,123.472 "/>
<polyline clip-path="url(#clip700)" style="stroke:#000000; stroke-linecap:round; stroke-linejoin:round; stroke-width:4; stroke-opacity:1; fill:none" points="219.38,1386.4 238.278,1386.4 "/>
<polyline clip-path="url(#clip700)" style="stroke:#000000; stroke-linecap:round; stroke-linejoin:round; stroke-width:4; stroke-opacity:1; fill:none" points="219.38,1146.73 238.278,1146.73 "/>
<polyline clip-path="url(#clip700)" style="stroke:#000000; stroke-linecap:round; stroke-linejoin:round; stroke-width:4; stroke-opacity:1; fill:none" points="219.38,907.069 238.278,907.069 "/>
<polyline clip-path="url(#clip700)" style="stroke:#000000; stroke-linecap:round; stroke-linejoin:round; stroke-width:4; stroke-opacity:1; fill:none" points="219.38,667.406 238.278,667.406 "/>
<polyline clip-path="url(#clip700)" style="stroke:#000000; stroke-linecap:round; stroke-linejoin:round; stroke-width:4; stroke-opacity:1; fill:none" points="219.38,427.742 238.278,427.742 "/>
<polyline clip-path="url(#clip700)" style="stroke:#000000; stroke-linecap:round; stroke-linejoin:round; stroke-width:4; stroke-opacity:1; fill:none" points="219.38,188.079 238.278,188.079 "/>
<path clip-path="url(#clip700)" d="M126.205 1372.19 Q122.593 1372.19 120.765 1375.76 Q118.959 1379.3 118.959 1386.43 Q118.959 1393.54 120.765 1397.1 Q122.593 1400.64 126.205 1400.64 Q129.839 1400.64 131.644 1397.1 Q133.473 1393.54 133.473 1386.43 Q133.473 1379.3 131.644 1375.76 Q129.839 1372.19 126.205 1372.19 M126.205 1368.49 Q132.015 1368.49 135.07 1373.1 Q138.149 1377.68 138.149 1386.43 Q138.149 1395.16 135.07 1399.76 Q132.015 1404.35 126.205 1404.35 Q120.394 1404.35 117.316 1399.76 Q114.26 1395.16 114.26 1386.43 Q114.26 1377.68 117.316 1373.1 Q120.394 1368.49 126.205 1368.49 Z" fill="#000000" fill-rule="nonzero" fill-opacity="1" /><path clip-path="url(#clip700)" d="M146.366 1397.8 L151.251 1397.8 L151.251 1403.68 L146.366 1403.68 L146.366 1397.8 Z" fill="#000000" fill-rule="nonzero" fill-opacity="1" /><path clip-path="url(#clip700)" d="M171.436 1372.19 Q167.825 1372.19 165.996 1375.76 Q164.19 1379.3 164.19 1386.43 Q164.19 1393.54 165.996 1397.1 Q167.825 1400.64 171.436 1400.64 Q175.07 1400.64 176.876 1397.1 Q178.704 1393.54 178.704 1386.43 Q178.704 1379.3 176.876 1375.76 Q175.07 1372.19 171.436 1372.19 M171.436 1368.49 Q177.246 1368.49 180.301 1373.1 Q183.38 1377.68 183.38 1386.43 Q183.38 1395.16 180.301 1399.76 Q177.246 1404.35 171.436 1404.35 Q165.626 1404.35 162.547 1399.76 Q159.491 1395.16 159.491 1386.43 Q159.491 1377.68 162.547 1373.1 Q165.626 1368.49 171.436 1368.49 Z" fill="#000000" fill-rule="nonzero" fill-opacity="1" /><path clip-path="url(#clip700)" d="M127.2 1132.53 Q123.589 1132.53 121.76 1136.1 Q119.955 1139.64 119.955 1146.77 Q119.955 1153.87 121.76 1157.44 Q123.589 1160.98 127.2 1160.98 Q130.834 1160.98 132.64 1157.44 Q134.468 1153.87 134.468 1146.77 Q134.468 1139.64 132.64 1136.1 Q130.834 1132.53 127.2 1132.53 M127.2 1128.83 Q133.01 1128.83 136.066 1133.43 Q139.144 1138.02 139.144 1146.77 Q139.144 1155.49 136.066 1160.1 Q133.01 1164.68 127.2 1164.68 Q121.39 1164.68 118.311 1160.1 Q115.256 1155.49 115.256 1146.77 Q115.256 1138.02 118.311 1133.43 Q121.39 1128.83 127.2 1128.83 Z" fill="#000000" fill-rule="nonzero" fill-opacity="1" /><path clip-path="url(#clip700)" d="M147.362 1158.13 L152.246 1158.13 L152.246 1164.01 L147.362 1164.01 L147.362 1158.13 Z" fill="#000000" fill-rule="nonzero" fill-opacity="1" /><path clip-path="url(#clip700)" d="M162.477 1129.45 L180.834 1129.45 L180.834 1133.39 L166.76 1133.39 L166.76 1141.86 Q167.778 1141.51 168.797 1141.35 Q169.815 1141.17 170.834 1141.17 Q176.621 1141.17 180.001 1144.34 Q183.38 1147.51 183.38 1152.92 Q183.38 1158.5 179.908 1161.6 Q176.436 1164.68 170.116 1164.68 Q167.94 1164.68 165.672 1164.31 Q163.427 1163.94 161.019 1163.2 L161.019 1158.5 Q163.102 1159.64 165.325 1160.19 Q167.547 1160.75 170.024 1160.75 Q174.028 1160.75 176.366 1158.64 Q178.704 1156.54 178.704 1152.92 Q178.704 1149.31 176.366 1147.21 Q174.028 1145.1 170.024 1145.1 Q168.149 1145.1 166.274 1145.52 Q164.422 1145.93 162.477 1146.81 L162.477 1129.45 Z" fill="#000000" fill-rule="nonzero" fill-opacity="1" /><path clip-path="url(#clip700)" d="M117.015 920.414 L124.654 920.414 L124.654 894.048 L116.343 895.715 L116.343 891.456 L124.607 889.789 L129.283 889.789 L129.283 920.414 L136.922 920.414 L136.922 924.349 L117.015 924.349 L117.015 920.414 Z" fill="#000000" fill-rule="nonzero" fill-opacity="1" /><path clip-path="url(#clip700)" d="M146.366 918.469 L151.251 918.469 L151.251 924.349 L146.366 924.349 L146.366 918.469 Z" fill="#000000" fill-rule="nonzero" fill-opacity="1" /><path clip-path="url(#clip700)" d="M171.436 892.868 Q167.825 892.868 165.996 896.432 Q164.19 899.974 164.19 907.104 Q164.19 914.21 165.996 917.775 Q167.825 921.317 171.436 921.317 Q175.07 921.317 176.876 917.775 Q178.704 914.21 178.704 907.104 Q178.704 899.974 176.876 896.432 Q175.07 892.868 171.436 892.868 M171.436 889.164 Q177.246 889.164 180.301 893.77 Q183.38 898.354 183.38 907.104 Q183.38 915.83 180.301 920.437 Q177.246 925.02 171.436 925.02 Q165.626 925.02 162.547 920.437 Q159.491 915.83 159.491 907.104 Q159.491 898.354 162.547 893.77 Q165.626 889.164 171.436 889.164 Z" fill="#000000" fill-rule="nonzero" fill-opacity="1" /><path clip-path="url(#clip700)" d="M118.01 680.75 L125.649 680.75 L125.649 654.385 L117.339 656.051 L117.339 651.792 L125.603 650.126 L130.279 650.126 L130.279 680.75 L137.917 680.75 L137.917 684.686 L118.01 684.686 L118.01 680.75 Z" fill="#000000" fill-rule="nonzero" fill-opacity="1" /><path clip-path="url(#clip700)" d="M147.362 678.806 L152.246 678.806 L152.246 684.686 L147.362 684.686 L147.362 678.806 Z" fill="#000000" fill-rule="nonzero" fill-opacity="1" /><path clip-path="url(#clip700)" d="M162.477 650.126 L180.834 650.126 L180.834 654.061 L166.76 654.061 L166.76 662.533 Q167.778 662.186 168.797 662.024 Q169.815 661.838 170.834 661.838 Q176.621 661.838 180.001 665.01 Q183.38 668.181 183.38 673.598 Q183.38 679.176 179.908 682.278 Q176.436 685.357 170.116 685.357 Q167.94 685.357 165.672 684.986 Q163.427 684.616 161.019 683.875 L161.019 679.176 Q163.102 680.311 165.325 680.866 Q167.547 681.422 170.024 681.422 Q174.028 681.422 176.366 679.315 Q178.704 677.209 178.704 673.598 Q178.704 669.987 176.366 667.88 Q174.028 665.774 170.024 665.774 Q168.149 665.774 166.274 666.19 Q164.422 666.607 162.477 667.487 L162.477 650.126 Z" fill="#000000" fill-rule="nonzero" fill-opacity="1" /><path clip-path="url(#clip700)" d="M120.232 441.087 L136.552 441.087 L136.552 445.022 L114.607 445.022 L114.607 441.087 Q117.269 438.332 121.853 433.703 Q126.459 429.05 127.64 427.707 Q129.885 425.184 130.765 423.448 Q131.667 421.689 131.667 419.999 Q131.667 417.245 129.723 415.508 Q127.802 413.772 124.7 413.772 Q122.501 413.772 120.047 414.536 Q117.617 415.3 114.839 416.851 L114.839 412.129 Q117.663 410.995 120.117 410.416 Q122.57 409.837 124.607 409.837 Q129.978 409.837 133.172 412.522 Q136.367 415.207 136.367 419.698 Q136.367 421.828 135.556 423.749 Q134.769 425.647 132.663 428.24 Q132.084 428.911 128.982 432.129 Q125.88 435.323 120.232 441.087 Z" fill="#000000" fill-rule="nonzero" fill-opacity="1" /><path clip-path="url(#clip700)" d="M146.366 439.143 L151.251 439.143 L151.251 445.022 L146.366 445.022 L146.366 439.143 Z" fill="#000000" fill-rule="nonzero" fill-opacity="1" /><path clip-path="url(#clip700)" d="M171.436 413.541 Q167.825 413.541 165.996 417.106 Q164.19 420.647 164.19 427.777 Q164.19 434.883 165.996 438.448 Q167.825 441.99 171.436 441.99 Q175.07 441.99 176.876 438.448 Q178.704 434.883 178.704 427.777 Q178.704 420.647 176.876 417.106 Q175.07 413.541 171.436 413.541 M171.436 409.837 Q177.246 409.837 180.301 414.444 Q183.38 419.027 183.38 427.777 Q183.38 436.504 180.301 441.11 Q177.246 445.693 171.436 445.693 Q165.626 445.693 162.547 441.11 Q159.491 436.504 159.491 427.777 Q159.491 419.027 162.547 414.444 Q165.626 409.837 171.436 409.837 Z" fill="#000000" fill-rule="nonzero" fill-opacity="1" /><path clip-path="url(#clip700)" d="M121.228 201.424 L137.547 201.424 L137.547 205.359 L115.603 205.359 L115.603 201.424 Q118.265 198.669 122.848 194.039 Q127.455 189.387 128.635 188.044 Q130.88 185.521 131.76 183.785 Q132.663 182.026 132.663 180.336 Q132.663 177.581 130.718 175.845 Q128.797 174.109 125.695 174.109 Q123.496 174.109 121.043 174.873 Q118.612 175.637 115.834 177.188 L115.834 172.465 Q118.658 171.331 121.112 170.752 Q123.566 170.174 125.603 170.174 Q130.973 170.174 134.167 172.859 Q137.362 175.544 137.362 180.035 Q137.362 182.164 136.552 184.086 Q135.765 185.984 133.658 188.576 Q133.08 189.248 129.978 192.465 Q126.876 195.66 121.228 201.424 Z" fill="#000000" fill-rule="nonzero" fill-opacity="1" /><path clip-path="url(#clip700)" d="M147.362 199.479 L152.246 199.479 L152.246 205.359 L147.362 205.359 L147.362 199.479 Z" fill="#000000" fill-rule="nonzero" fill-opacity="1" /><path clip-path="url(#clip700)" d="M162.477 170.799 L180.834 170.799 L180.834 174.734 L166.76 174.734 L166.76 183.206 Q167.778 182.859 168.797 182.697 Q169.815 182.512 170.834 182.512 Q176.621 182.512 180.001 185.683 Q183.38 188.854 183.38 194.271 Q183.38 199.85 179.908 202.951 Q176.436 206.03 170.116 206.03 Q167.94 206.03 165.672 205.66 Q163.427 205.289 161.019 204.549 L161.019 199.85 Q163.102 200.984 165.325 201.539 Q167.547 202.095 170.024 202.095 Q174.028 202.095 176.366 199.988 Q178.704 197.882 178.704 194.271 Q178.704 190.66 176.366 188.553 Q174.028 186.447 170.024 186.447 Q168.149 186.447 166.274 186.863 Q164.422 187.28 162.477 188.16 L162.477 170.799 Z" fill="#000000" fill-rule="nonzero" fill-opacity="1" /><path clip-path="url(#clip700)" d="M29.7248 956.945 L35.1993 956.945 Q33.8307 959.427 33.1623 961.942 Q32.4621 964.424 32.4621 966.971 Q32.4621 972.668 36.0905 975.819 Q39.6872 978.97 46.212 978.97 Q52.7369 978.97 56.3653 975.819 Q59.9619 972.668 59.9619 966.971 Q59.9619 964.424 59.2935 961.942 Q58.5933 959.427 57.2247 956.945 L62.6355 956.945 Q63.7814 959.396 64.3543 962.037 Q64.9272 964.647 64.9272 967.607 Q64.9272 975.66 59.8664 980.402 Q54.8057 985.145 46.212 985.145 Q37.491 985.145 32.4939 980.371 Q27.4968 975.564 27.4968 967.225 Q27.4968 964.52 28.0697 961.942 Q28.6108 959.364 29.7248 956.945 Z" fill="#000000" fill-rule="nonzero" fill-opacity="1" /><path clip-path="url(#clip700)" d="M16.4842 953.094 L16.4842 912.894 L21.895 912.894 L21.895 929.763 L64.0042 929.763 L64.0042 936.224 L21.895 936.224 L21.895 953.094 L16.4842 953.094 Z" fill="#000000" fill-rule="nonzero" fill-opacity="1" /><path clip-path="url(#clip700)" d="M42.4881 877.31 L64.0042 877.31 L64.0042 883.166 L42.679 883.166 Q37.6183 883.166 35.1038 885.14 Q32.5894 887.113 32.5894 891.06 Q32.5894 895.802 35.6131 898.539 Q38.6368 901.277 43.8567 901.277 L64.0042 901.277 L64.0042 907.165 L28.3562 907.165 L28.3562 901.277 L33.8944 901.277 Q30.6797 899.176 29.0883 896.343 Q27.4968 893.479 27.4968 889.755 Q27.4968 883.612 31.3163 880.461 Q35.1038 877.31 42.4881 877.31 Z" fill="#000000" fill-rule="nonzero" fill-opacity="1" /><path clip-path="url(#clip700)" d="M16.4842 871.963 L16.4842 831.763 L21.895 831.763 L21.895 848.632 L64.0042 848.632 L64.0042 855.093 L21.895 855.093 L21.895 871.963 L16.4842 871.963 Z" fill="#000000" fill-rule="nonzero" fill-opacity="1" /><path clip-path="url(#clip700)" d="M14.479 805.632 L14.479 792.137 L19.0304 792.137 L19.0304 799.775 L68.0464 799.775 L68.0464 792.137 L72.5979 792.137 L72.5979 805.632 L14.479 805.632 Z" fill="#000000" fill-rule="nonzero" fill-opacity="1" /><path clip-path="url(#clip700)" d="M42.4881 750.027 L64.0042 750.027 L64.0042 755.884 L42.679 755.884 Q37.6183 755.884 35.1038 757.857 Q32.5894 759.831 32.5894 763.777 Q32.5894 768.52 35.6131 771.257 Q38.6368 773.994 43.8567 773.994 L64.0042 773.994 L64.0042 779.883 L28.3562 779.883 L28.3562 773.994 L33.8944 773.994 Q30.6797 771.894 29.0883 769.061 Q27.4968 766.196 27.4968 762.472 Q27.4968 756.33 31.3163 753.179 Q35.1038 750.027 42.4881 750.027 Z" fill="#000000" fill-rule="nonzero" fill-opacity="1" /><path clip-path="url(#clip700)" d="M45.7664 714.889 Q39.4007 714.889 35.8996 717.531 Q32.3984 720.141 32.3984 724.883 Q32.3984 729.594 35.8996 732.235 Q39.4007 734.845 45.7664 734.845 Q52.1003 734.845 55.6014 732.235 Q59.1026 729.594 59.1026 724.883 Q59.1026 720.141 55.6014 717.531 Q52.1003 714.889 45.7664 714.889 M59.58 709.032 Q68.683 709.032 73.1071 713.075 Q77.5631 717.117 77.5631 725.456 Q77.5631 728.543 77.0857 731.28 Q76.6401 734.018 75.6852 736.596 L69.9879 736.596 Q71.3884 734.018 72.0568 731.503 Q72.7252 728.989 72.7252 726.379 Q72.7252 720.618 69.7015 717.753 Q66.7096 714.889 60.6303 714.889 L57.7339 714.889 Q60.885 716.703 62.4446 719.536 Q64.0042 722.369 64.0042 726.315 Q64.0042 732.872 59.0071 736.882 Q54.01 740.893 45.7664 740.893 Q37.491 740.893 32.4939 736.882 Q27.4968 732.872 27.4968 726.315 Q27.4968 722.369 29.0564 719.536 Q30.616 716.703 33.7671 714.889 L28.3562 714.889 L28.3562 709.032 L59.58 709.032 Z" fill="#000000" fill-rule="nonzero" fill-opacity="1" /><path clip-path="url(#clip700)" d="M16.4842 686.561 L16.4842 681.151 L70.0516 697.701 L70.0516 703.112 L16.4842 686.561 Z" fill="#000000" fill-rule="nonzero" fill-opacity="1" /><path clip-path="url(#clip700)" d="M35.1993 647.253 Q31.2526 645.057 29.3747 642.001 Q27.4968 638.946 27.4968 634.808 Q27.4968 629.238 31.4117 626.215 Q35.2948 623.191 42.4881 623.191 L64.0042 623.191 L64.0042 629.079 L42.679 629.079 Q37.5546 629.079 35.072 630.893 Q32.5894 632.708 32.5894 636.431 Q32.5894 640.983 35.6131 643.625 Q38.6368 646.266 43.8567 646.266 L64.0042 646.266 L64.0042 652.155 L42.679 652.155 Q37.5228 652.155 35.072 653.969 Q32.5894 655.783 32.5894 659.571 Q32.5894 664.059 35.6449 666.7 Q38.6686 669.342 43.8567 669.342 L64.0042 669.342 L64.0042 675.23 L28.3562 675.23 L28.3562 669.342 L33.8944 669.342 Q30.616 667.337 29.0564 664.536 Q27.4968 661.735 27.4968 657.884 Q27.4968 654.001 29.4702 651.295 Q31.4436 648.558 35.1993 647.253 Z" fill="#000000" fill-rule="nonzero" fill-opacity="1" /><path clip-path="url(#clip700)" d="M16.4842 611.255 L16.4842 604.826 L58.5933 604.826 L58.5933 581.686 L64.0042 581.686 L64.0042 611.255 L16.4842 611.255 Z" fill="#000000" fill-rule="nonzero" fill-opacity="1" /><path clip-path="url(#clip700)" d="M14.479 561.507 L72.5979 561.507 L72.5979 575.002 L68.0464 575.002 L68.0464 567.395 L19.0304 567.395 L19.0304 575.002 L14.479 575.002 L14.479 561.507 Z" fill="#000000" fill-rule="nonzero" fill-opacity="1" /><path clip-path="url(#clip700)" d="M1038.86 18.8205 L1038.86 41.5461 L1049.15 41.5461 Q1054.86 41.5461 1057.98 38.5889 Q1061.1 35.6318 1061.1 30.163 Q1061.1 24.7348 1057.98 21.7777 Q1054.86 18.8205 1049.15 18.8205 L1038.86 18.8205 M1030.68 12.096 L1049.15 12.096 Q1059.32 12.096 1064.5 16.714 Q1069.73 21.2916 1069.73 30.163 Q1069.73 39.1155 1064.5 43.6931 Q1059.32 48.2706 1049.15 48.2706 L1038.86 48.2706 L1038.86 72.576 L1030.68 72.576 L1030.68 12.096 Z" fill="#000000" fill-rule="nonzero" fill-opacity="1" /><path clip-path="url(#clip700)" d="M1097.28 49.7694 Q1088.24 49.7694 1084.76 51.8354 Q1081.27 53.9013 1081.27 58.8839 Q1081.27 62.8538 1083.87 65.2034 Q1086.5 67.5124 1091 67.5124 Q1097.19 67.5124 1100.92 63.1374 Q1104.69 58.7219 1104.69 51.4303 L1104.69 49.7694 L1097.28 49.7694 M1112.14 46.6907 L1112.14 72.576 L1104.69 72.576 L1104.69 65.6895 Q1102.14 69.8214 1098.33 71.8063 Q1094.52 73.7508 1089.01 73.7508 Q1082.04 73.7508 1077.91 69.8619 Q1073.82 65.9325 1073.82 59.3701 Q1073.82 51.7138 1078.93 47.825 Q1084.07 43.9361 1094.24 43.9361 L1104.69 43.9361 L1104.69 43.2069 Q1104.69 38.0623 1101.29 35.2672 Q1097.92 32.4315 1091.81 32.4315 Q1087.92 32.4315 1084.23 33.3632 Q1080.55 34.295 1077.14 36.1584 L1077.14 29.2718 Q1081.23 27.692 1085.08 26.9223 Q1088.93 26.1121 1092.58 26.1121 Q1102.42 26.1121 1107.28 31.2163 Q1112.14 36.3204 1112.14 46.6907 Z" fill="#000000" fill-rule="nonzero" fill-opacity="1" /><path clip-path="url(#clip700)" d="M1134.87 14.324 L1134.87 27.2059 L1150.22 27.2059 L1150.22 32.9987 L1134.87 32.9987 L1134.87 57.6282 Q1134.87 63.1779 1136.37 64.7578 Q1137.91 66.3376 1142.56 66.3376 L1150.22 66.3376 L1150.22 72.576 L1142.56 72.576 Q1133.94 72.576 1130.66 69.3758 Q1127.37 66.1351 1127.37 57.6282 L1127.37 32.9987 L1121.91 32.9987 L1121.91 27.2059 L1127.37 27.2059 L1127.37 14.324 L1134.87 14.324 Z" fill="#000000" fill-rule="nonzero" fill-opacity="1" /><path clip-path="url(#clip700)" d="M1160.02 27.2059 L1167.48 27.2059 L1167.48 72.576 L1160.02 72.576 L1160.02 27.2059 M1160.02 9.54393 L1167.48 9.54393 L1167.48 18.9825 L1160.02 18.9825 L1160.02 9.54393 Z" fill="#000000" fill-rule="nonzero" fill-opacity="1" /><path clip-path="url(#clip700)" d="M1221.88 48.0275 L1221.88 51.6733 L1187.61 51.6733 Q1188.1 59.3701 1192.23 63.421 Q1196.4 67.4314 1203.81 67.4314 Q1208.11 67.4314 1212.12 66.3781 Q1216.17 65.3249 1220.14 63.2184 L1220.14 70.267 Q1216.13 71.9684 1211.92 72.8596 Q1207.7 73.7508 1203.37 73.7508 Q1192.51 73.7508 1186.15 67.4314 Q1179.83 61.1119 1179.83 50.3365 Q1179.83 39.1965 1185.83 32.6746 Q1191.86 26.1121 1202.07 26.1121 Q1211.23 26.1121 1216.53 32.0264 Q1221.88 37.9003 1221.88 48.0275 M1214.43 45.84 Q1214.35 39.7232 1210.98 36.0774 Q1207.66 32.4315 1202.15 32.4315 Q1195.92 32.4315 1192.15 35.9558 Q1188.42 39.4801 1187.85 45.8805 L1214.43 45.84 Z" fill="#000000" fill-rule="nonzero" fill-opacity="1" /><path clip-path="url(#clip700)" d="M1271.83 45.1919 L1271.83 72.576 L1264.38 72.576 L1264.38 45.4349 Q1264.38 38.994 1261.86 35.7938 Q1259.35 32.5936 1254.33 32.5936 Q1248.29 32.5936 1244.81 36.4419 Q1241.33 40.2903 1241.33 46.9338 L1241.33 72.576 L1233.83 72.576 L1233.83 27.2059 L1241.33 27.2059 L1241.33 34.2544 Q1244 30.163 1247.6 28.1376 Q1251.25 26.1121 1255.99 26.1121 Q1263.81 26.1121 1267.82 30.9732 Q1271.83 35.7938 1271.83 45.1919 Z" fill="#000000" fill-rule="nonzero" fill-opacity="1" /><path clip-path="url(#clip700)" d="M1294.07 14.324 L1294.07 27.2059 L1309.42 27.2059 L1309.42 32.9987 L1294.07 32.9987 L1294.07 57.6282 Q1294.07 63.1779 1295.57 64.7578 Q1297.11 66.3376 1301.77 66.3376 L1309.42 66.3376 L1309.42 72.576 L1301.77 72.576 Q1293.14 72.576 1289.86 69.3758 Q1286.57 66.1351 1286.57 57.6282 L1286.57 32.9987 L1281.11 32.9987 L1281.11 27.2059 L1286.57 27.2059 L1286.57 14.324 L1294.07 14.324 Z" fill="#000000" fill-rule="nonzero" fill-opacity="1" /><path clip-path="url(#clip700)" d="M1383.31 45.1919 L1383.31 72.576 L1375.86 72.576 L1375.86 45.4349 Q1375.86 38.994 1373.34 35.7938 Q1370.83 32.5936 1365.81 32.5936 Q1359.77 32.5936 1356.29 36.4419 Q1352.81 40.2903 1352.81 46.9338 L1352.81 72.576 L1345.31 72.576 L1345.31 27.2059 L1352.81 27.2059 L1352.81 34.2544 Q1355.48 30.163 1359.09 28.1376 Q1362.73 26.1121 1367.47 26.1121 Q1375.29 26.1121 1379.3 30.9732 Q1383.31 35.7938 1383.31 45.1919 Z" fill="#000000" fill-rule="nonzero" fill-opacity="1" /><path clip-path="url(#clip700)" d="M1406.28 65.6895 L1434.84 65.6895 L1434.84 72.576 L1396.43 72.576 L1396.43 65.6895 Q1401.09 60.8689 1409.11 52.7671 Q1417.18 44.6248 1419.24 42.2752 Q1423.17 37.8598 1424.71 34.8216 Q1426.29 31.7429 1426.29 28.7857 Q1426.29 23.9651 1422.89 20.927 Q1419.53 17.8888 1414.1 17.8888 Q1410.25 17.8888 1405.95 19.2256 Q1401.7 20.5624 1396.84 23.2765 L1396.84 15.0127 Q1401.78 13.0277 1406.08 12.015 Q1410.37 11.0023 1413.93 11.0023 Q1423.33 11.0023 1428.92 15.7013 Q1434.51 20.4004 1434.51 28.2591 Q1434.51 31.9859 1433.1 35.3482 Q1431.72 38.6699 1428.03 43.2069 Q1427.02 44.3817 1421.59 50.0125 Q1416.16 55.6027 1406.28 65.6895 Z" fill="#000000" fill-rule="nonzero" fill-opacity="1" /><path clip-path="url(#clip700)" d="M1476.8 39.9662 Q1482.68 41.222 1485.96 45.1919 Q1489.28 49.1618 1489.28 54.9951 Q1489.28 63.9476 1483.12 68.8492 Q1476.97 73.7508 1465.62 73.7508 Q1461.82 73.7508 1457.77 72.9811 Q1453.76 72.2519 1449.46 70.7531 L1449.46 62.8538 Q1452.86 64.8388 1456.91 65.8515 Q1460.97 66.8642 1465.38 66.8642 Q1473.08 66.8642 1477.09 63.826 Q1481.14 60.7879 1481.14 54.9951 Q1481.14 49.6479 1477.37 46.6502 Q1473.65 43.612 1466.96 43.612 L1459.91 43.612 L1459.91 36.8875 L1467.29 36.8875 Q1473.32 36.8875 1476.52 34.4975 Q1479.72 32.067 1479.72 27.5299 Q1479.72 22.8714 1476.4 20.4004 Q1473.12 17.8888 1466.96 17.8888 Q1463.6 17.8888 1459.75 18.618 Q1455.9 19.3471 1451.28 20.8865 L1451.28 13.5948 Q1455.94 12.2985 1459.99 11.6504 Q1464.09 11.0023 1467.69 11.0023 Q1477.01 11.0023 1482.44 15.2557 Q1487.86 19.4686 1487.86 26.6793 Q1487.86 31.7024 1484.99 35.1862 Q1482.11 38.6294 1476.8 39.9662 Z" fill="#000000" fill-rule="nonzero" fill-opacity="1" /><path clip-path="url(#clip700)" d="M1504.88 12.096 L1537 12.096 L1537 18.9825 L1512.37 18.9825 L1512.37 33.8088 Q1514.15 33.2012 1515.94 32.9176 Q1517.72 32.5936 1519.5 32.5936 Q1529.63 32.5936 1535.54 38.1433 Q1541.46 43.6931 1541.46 53.1722 Q1541.46 62.9348 1535.38 68.3631 Q1529.3 73.7508 1518.25 73.7508 Q1514.44 73.7508 1510.47 73.1026 Q1506.54 72.4545 1502.33 71.1582 L1502.33 62.9348 Q1505.97 64.9198 1509.86 65.892 Q1513.75 66.8642 1518.08 66.8642 Q1525.09 66.8642 1529.18 63.1779 Q1533.27 59.4916 1533.27 53.1722 Q1533.27 46.8528 1529.18 43.1664 Q1525.09 39.4801 1518.08 39.4801 Q1514.8 39.4801 1511.52 40.2093 Q1508.28 40.9384 1504.88 42.4778 L1504.88 12.096 Z" fill="#000000" fill-rule="nonzero" fill-opacity="1" /><polyline clip-path="url(#clip702)" style="stroke:#009af9; stroke-linecap:round; stroke-linejoin:round; stroke-width:8; stroke-opacity:1; fill:none" points="219.38,1386.4 221.516,1373.49 223.651,1361.45 225.787,1350.22 227.922,1339.74 230.058,1329.99 232.193,1320.9 234.329,1312.46 236.464,1304.61 238.6,1297.33 240.735,1290.57 242.871,1284.32 245.006,1278.53 247.142,1273.19 249.277,1268.26 251.413,1263.73 253.548,1259.56 255.684,1255.74 257.819,1252.24 259.955,1249.05 262.09,1246.14 264.226,1243.51 266.361,1241.13 268.497,1238.98 270.632,1237.06 272.768,1235.36 274.903,1233.84 277.039,1232.52 279.174,1231.36 281.31,1230.37 283.445,1229.54 285.581,1228.84 287.717,1228.28 289.852,1227.84 291.988,1227.53 294.123,1227.32 296.259,1227.21 298.394,1227.2 300.53,1227.28 302.665,1227.44 304.801,1227.68 306.936,1228 309.072,1228.38 311.207,1228.82 313.343,1229.33 315.478,1229.89 317.614,1230.49 319.749,1231.15 321.885,1231.85 324.02,1232.58 326.156,1233.36 328.291,1234.17 330.427,1235.01 332.562,1235.88 334.698,1236.78 336.833,1237.7 338.969,1238.65 341.104,1239.61 343.24,1240.59 345.375,1241.59 347.511,1242.6 349.646,1243.63 351.782,1244.66 353.917,1245.71 356.053,1246.77 358.188,1247.84 360.324,1248.91 362.459,1249.99 364.595,1251.07 366.73,1252.16 368.866,1253.25 371.001,1254.34 373.137,1255.43 375.272,1256.52 377.408,1257.62 379.544,1258.71 381.679,1259.8 383.815,1260.89 385.95,1261.98 388.086,1263.06 390.221,1264.14 392.357,1265.22 394.492,1266.29 396.628,1267.36 398.763,1268.42 400.899,1269.48 403.034,1270.54 405.17,1271.59 407.305,1272.63 409.441,1273.67 411.576,1274.7 413.712,1275.72 415.847,1276.73 417.983,1277.74 420.118,1278.75 422.254,1279.74 424.389,1280.73 426.525,1281.71 428.66,1282.68 430.796,1283.65 432.931,1284.61 435.067,1285.56 437.202,1286.5 439.338,1287.43 441.473,1288.36 443.609,1289.28 445.744,1290.19 447.88,1291.09 450.015,1291.99 452.151,1292.88 454.286,1293.76 456.422,1294.63 458.557,1295.49 460.693,1296.34 462.828,1297.19 464.964,1298.03 467.099,1298.86 469.235,1299.68 471.37,1300.49 473.506,1301.3 475.642,1302.1 477.777,1302.89 479.913,1303.67 482.048,1304.44 484.184,1305.21 486.319,1305.97 488.455,1306.72 490.59,1307.46 492.726,1308.2 494.861,1308.92 496.997,1309.64 499.132,1310.36 501.268,1311.06 503.403,1311.76 505.539,1312.45 507.674,1313.13 509.81,1313.8 511.945,1314.47 514.081,1315.13 516.216,1315.78 518.352,1316.42 520.487,1317.06 522.623,1317.69 524.758,1318.31 526.894,1318.92 529.029,1319.53 531.165,1320.13 533.3,1320.73 535.436,1321.31 537.571,1321.89 539.707,1322.47 541.842,1323.03 543.978,1323.59 546.113,1324.14 548.249,1324.69 550.384,1325.23 552.52,1325.76 554.655,1326.29 556.791,1326.81 558.926,1327.32 561.062,1327.83 563.197,1328.33 565.333,1328.82 567.468,1329.31 569.604,1329.79 571.74,1330.26 573.875,1330.73 576.011,1331.19 578.146,1331.64 580.282,1332.09 582.417,1332.53 584.553,1332.97 586.688,1333.4 588.824,1333.82 590.959,1334.24 593.095,1334.65 595.23,1335.06 597.366,1335.46 599.501,1335.86 601.637,1336.24 603.772,1336.63 605.908,1337.01 608.043,1337.38 610.179,1337.74 612.314,1338.1 614.45,1338.46 616.585,1338.81 618.721,1339.15 620.856,1339.49 622.992,1339.82 625.127,1340.15 627.263,1340.47 629.398,1340.79 631.534,1341.1 633.669,1341.4 635.805,1341.7 637.94,1341.99 640.076,1342.28 642.211,1342.56 644.347,1342.84 646.482,1343.11 648.618,1343.38 650.753,1343.64 652.889,1343.9 655.024,1344.15 657.16,1344.4 659.295,1344.64 661.431,1344.87 663.566,1345.1 665.702,1345.33 667.838,1345.55 669.973,1345.77 672.109,1345.98 674.244,1346.19 676.38,1346.39 678.515,1346.58 680.651,1346.78 682.786,1346.96 684.922,1347.15 687.057,1347.32 689.193,1347.5 691.328,1347.66 693.464,1347.83 695.599,1347.98 697.735,1348.14 699.87,1348.29 702.006,1348.43 704.141,1348.57 706.277,1348.7 708.412,1348.83 710.548,1348.96 712.683,1349.08 714.819,1349.19 716.954,1349.3 719.09,1349.41 721.225,1349.51 723.361,1349.6 725.496,1349.69 727.632,1349.78 729.767,1349.86 731.903,1349.94 734.038,1350.01 736.174,1350.08 738.309,1350.15 740.445,1350.21 742.58,1350.26 744.716,1350.31 746.851,1350.36 748.987,1350.4 751.122,1350.44 753.258,1350.47 755.393,1350.5 757.529,1350.53 759.665,1350.55 761.8,1350.56 763.936,1350.57 766.071,1350.58 768.207,1350.58 770.342,1350.58 772.478,1350.58 774.613,1350.57 776.749,1350.55 778.884,1350.53 781.02,1350.51 783.155,1350.48 785.291,1350.45 787.426,1350.41 789.562,1350.37 791.697,1350.33 793.833,1350.28 795.968,1350.22 798.104,1350.16 800.239,1350.1 802.375,1350.03 804.51,1349.96 806.646,1349.88 808.781,1349.8 810.917,1349.71 813.052,1349.62 815.188,1349.53 817.323,1349.43 819.459,1349.33 821.594,1349.22 823.73,1349.11 825.865,1349 828.001,1348.88 830.136,1348.76 832.272,1348.63 834.407,1348.5 836.543,1348.37 838.678,1348.23 840.814,1348.09 842.949,1347.94 845.085,1347.79 847.22,1347.63 849.356,1347.47 851.491,1347.31 853.627,1347.14 855.763,1346.97 857.898,1346.79 860.034,1346.61 862.169,1346.42 864.305,1346.23 866.44,1346.04 868.576,1345.84 870.711,1345.63 872.847,1345.42 874.982,1345.21 877.118,1344.99 879.253,1344.77 881.389,1344.55 883.524,1344.32 885.66,1344.08 887.795,1343.84 889.931,1343.6 892.066,1343.35 894.202,1343.1 896.337,1342.85 898.473,1342.59 900.608,1342.33 902.744,1342.06 904.879,1341.79 907.015,1341.51 909.15,1341.23 911.286,1340.95 913.421,1340.66 915.557,1340.37 917.692,1340.08 919.828,1339.78 921.963,1339.47 924.099,1339.16 926.234,1338.85 928.37,1338.54 930.505,1338.21 932.641,1337.89 934.776,1337.56 936.912,1337.22 939.047,1336.89 941.183,1336.54 943.318,1336.19 945.454,1335.84 947.589,1335.48 949.725,1335.12 951.861,1334.75 953.996,1334.38 956.132,1334.01 958.267,1333.63 960.403,1333.24 962.538,1332.85 964.674,1332.46 966.809,1332.06 968.945,1331.66 971.08,1331.25 973.216,1330.84 975.351,1330.43 977.487,1330.01 979.622,1329.59 981.758,1329.16 983.893,1328.73 986.029,1328.29 988.164,1327.85 990.3,1327.41 992.435,1326.96 994.571,1326.51 996.706,1326.05 998.842,1325.59 1000.98,1325.13 1003.11,1324.66 1005.25,1324.19 1007.38,1323.71 1009.52,1323.23 1011.65,1322.74 1013.79,1322.25 1015.93,1321.75 1018.06,1321.25 1020.2,1320.75 1022.33,1320.24 1024.47,1319.72 1026.6,1319.2 1028.74,1318.68 1030.87,1318.15 1033.01,1317.61 1035.15,1317.07 1037.28,1316.52 1039.42,1315.98 1041.55,1315.42 1043.69,1314.86 1045.82,1314.3 1047.96,1313.73 1050.09,1313.16 1052.23,1312.58 1054.37,1312 1056.5,1311.42 1058.64,1310.83 1060.77,1310.23 1062.91,1309.63 1065.04,1309.03 1067.18,1308.42 1069.31,1307.81 1071.45,1307.2 1073.58,1306.58 1075.72,1305.95 1077.86,1305.32 1079.99,1304.69 1082.13,1304.05 1084.26,1303.41 1086.4,1302.76 1088.53,1302.11 1090.67,1301.46 1092.8,1300.8 1094.94,1300.13 1097.08,1299.46 1099.21,1298.79 1101.35,1298.11 1103.48,1297.42 1105.62,1296.73 1107.75,1296.04 1109.89,1295.34 1112.02,1294.63 1114.16,1293.92 1116.29,1293.2 1118.43,1292.48 1120.57,1291.75 1122.7,1291.02 1124.84,1290.28 1126.97,1289.54 1129.11,1288.79 1131.24,1288.04 1133.38,1287.29 1135.51,1286.52 1137.65,1285.76 1139.79,1284.99 1141.92,1284.21 1144.06,1283.43 1146.19,1282.65 1148.33,1281.86 1150.46,1281.07 1152.6,1280.27 1154.73,1279.47 1156.87,1278.66 1159.01,1277.85 1161.14,1277.03 1163.28,1276.21 1165.41,1275.39 1167.55,1274.56 1169.68,1273.72 1171.82,1272.88 1173.95,1272.04 1176.09,1271.19 1178.22,1270.34 1180.36,1269.48 1182.5,1268.62 1184.63,1267.75 1186.77,1266.88 1188.9,1266 1191.04,1265.11 1193.17,1264.22 1195.31,1263.33 1197.44,1262.43 1199.58,1261.52 1201.72,1260.61 1203.85,1259.69 1205.99,1258.76 1208.12,1257.83 1210.26,1256.89 1212.39,1255.95 1214.53,1255.01 1216.66,1254.05 1218.8,1253.1 1220.93,1252.14 1223.07,1251.17 1225.21,1250.2 1227.34,1249.22 1229.48,1248.24 1231.61,1247.25 1233.75,1246.26 1235.88,1245.27 1238.02,1244.27 1240.15,1243.26 1242.29,1242.25 1244.43,1241.24 1246.56,1240.22 1248.7,1239.2 1250.83,1238.17 1252.97,1237.14 1255.1,1236.1 1257.24,1235.06 1259.37,1234.01 1261.51,1232.96 1263.65,1231.91 1265.78,1230.84 1267.92,1229.78 1270.05,1228.7 1272.19,1227.63 1274.32,1226.55 1276.46,1225.46 1278.59,1224.36 1280.73,1223.26 1282.86,1222.16 1285,1221.05 1287.14,1219.93 1289.27,1218.81 1291.41,1217.68 1293.54,1216.54 1295.68,1215.4 1297.81,1214.25 1299.95,1213.09 1302.08,1211.93 1304.22,1210.77 1306.36,1209.59 1308.49,1208.42 1310.63,1207.23 1312.76,1206.05 1314.9,1204.85 1317.03,1203.66 1319.17,1202.45 1321.3,1201.24 1323.44,1200.03 1325.57,1198.81 1327.71,1197.59 1329.85,1196.37 1331.98,1195.13 1334.12,1193.9 1336.25,1192.66 1338.39,1191.41 1340.52,1190.16 1342.66,1188.91 1344.79,1187.65 1346.93,1186.38 1349.07,1185.11 1351.2,1183.84 1353.34,1182.56 1355.47,1181.28 1357.61,1179.99 1359.74,1178.69 1361.88,1177.39 1364.01,1176.09 1366.15,1174.78 1368.29,1173.46 1370.42,1172.14 1372.56,1170.81 1374.69,1169.48 1376.83,1168.14 1378.96,1166.8 1381.1,1165.44 1383.23,1164.08 1385.37,1162.72 1387.5,1161.34 1389.64,1159.96 1391.78,1158.58 1393.91,1157.18 1396.05,1155.79 1398.18,1154.38 1400.32,1152.97 1402.45,1151.55 1404.59,1150.13 1406.72,1148.71 1408.86,1147.27 1411,1145.84 1413.13,1144.4 1415.27,1142.95 1417.4,1141.5 1419.54,1140.04 1421.67,1138.58 1423.81,1137.11 1425.94,1135.64 1428.08,1134.17 1430.22,1132.69 1432.35,1131.2 1434.49,1129.71 1436.62,1128.22 1438.76,1126.72 1440.89,1125.22 1443.03,1123.71 1445.16,1122.2 1447.3,1120.68 1449.43,1119.16 1451.57,1117.63 1453.71,1116.1 1455.84,1114.57 1457.98,1113.02 1460.11,1111.48 1462.25,1109.92 1464.38,1108.36 1466.52,1106.8 1468.65,1105.23 1470.79,1103.65 1472.93,1102.07 1475.06,1100.48 1477.2,1098.89 1479.33,1097.28 1481.47,1095.67 1483.6,1094.06 1485.74,1092.43 1487.87,1090.8 1490.01,1089.16 1492.14,1087.52 1494.28,1085.87 1496.42,1084.21 1498.55,1082.55 1500.69,1080.88 1502.82,1079.21 1504.96,1077.53 1507.09,1075.85 1509.23,1074.16 1511.36,1072.47 1513.5,1070.77 1515.64,1069.07 1517.77,1067.36 1519.91,1065.65 1522.04,1063.93 1524.18,1062.21 1526.31,1060.49 1528.45,1058.76 1530.58,1057.02 1532.72,1055.29 1534.86,1053.54 1536.99,1051.8 1539.13,1050.05 1541.26,1048.29 1543.4,1046.53 1545.53,1044.77 1547.67,1043 1549.8,1041.23 1551.94,1039.45 1554.07,1037.67 1556.21,1035.88 1558.35,1034.09 1560.48,1032.29 1562.62,1030.49 1564.75,1028.68 1566.89,1026.87 1569.02,1025.05 1571.16,1023.22 1573.29,1021.39 1575.43,1019.55 1577.57,1017.71 1579.7,1015.86 1581.84,1014 1583.97,1012.13 1586.11,1010.26 1588.24,1008.38 1590.38,1006.49 1592.51,1004.6 1594.65,1002.7 1596.78,1000.79 1598.92,998.882 1601.06,996.964 1603.19,995.042 1605.33,993.114 1607.46,991.182 1609.6,989.245 1611.73,987.303 1613.87,985.357 1616,983.406 1618.14,981.451 1620.28,979.492 1622.41,977.53 1624.55,975.563 1626.68,973.592 1628.82,971.618 1630.95,969.64 1633.09,967.658 1635.22,965.672 1637.36,963.683 1639.5,961.69 1641.63,959.694 1643.77,957.693 1645.9,955.689 1648.04,953.681 1650.17,951.669 1652.31,949.654 1654.44,947.634 1656.58,945.61 1658.71,943.582 1660.85,941.549 1662.99,939.512 1665.12,937.47 1667.26,935.424 1669.39,933.372 1671.53,931.315 1673.66,929.253 1675.8,927.185 1677.93,925.111 1680.07,923.031 1682.21,920.945 1684.34,918.852 1686.48,916.752 1688.61,914.646 1690.75,912.531 1692.88,910.41 1695.02,908.281 1697.15,906.147 1699.29,904.007 1701.42,901.861 1703.56,899.71 1705.7,897.553 1707.83,895.392 1709.97,893.226 1712.1,891.056 1714.24,888.882 1716.37,886.704 1718.51,884.522 1720.64,882.336 1722.78,880.146 1724.92,877.954 1727.05,875.758 1729.19,873.559 1731.32,871.356 1733.46,869.151 1735.59,866.943 1737.73,864.732 1739.86,862.518 1742,860.302 1744.14,858.082 1746.27,855.86 1748.41,853.636 1750.54,851.408 1752.68,849.177 1754.81,846.944 1756.95,844.708 1759.08,842.469 1761.22,840.226 1763.35,837.981 1765.49,835.732 1767.63,833.48 1769.76,831.224 1771.9,828.964 1774.03,826.7 1776.17,824.433 1778.3,822.161 1780.44,819.885 1782.57,817.604 1784.71,815.318 1786.85,813.026 1788.98,810.73 1791.12,808.427 1793.25,806.119 1795.39,803.805 1797.52,801.483 1799.66,799.155 1801.79,796.82 1803.93,794.479 1806.07,792.132 1808.2,789.781 1810.34,787.424 1812.47,785.063 1814.61,782.698 1816.74,780.329 1818.88,777.956 1821.01,775.579 1823.15,773.199 1825.28,770.816 1827.42,768.431 1829.56,766.042 1831.69,763.651 1833.83,761.258 1835.96,758.863 1838.1,756.465 1840.23,754.066 1842.37,751.664 1844.5,749.261 1846.64,746.857 1848.78,744.45 1850.91,742.042 1853.05,739.633 1855.18,737.222 1857.32,734.81 1859.45,732.396 1861.59,729.98 1863.72,727.564 1865.86,725.145 1867.99,722.725 1870.13,720.303 1872.27,717.88 1874.4,715.454 1876.54,713.027 1878.67,710.598 1880.81,708.166 1882.94,705.732 1885.08,703.296 1887.21,700.857 1889.35,698.415 1891.49,695.969 1893.62,693.521 1895.76,691.069 1897.89,688.613 1900.03,686.154 1902.16,683.69 1904.3,681.221 1906.43,678.748 1908.57,676.27 1910.71,673.786 1912.84,671.296 1914.98,668.8 1917.11,666.299 1919.25,663.794 1921.38,661.285 1923.52,658.772 1925.65,656.256 1927.79,653.737 1929.92,651.216 1932.06,648.692 1934.2,646.166 1936.33,643.638 1938.47,641.108 1940.6,638.577 1942.74,636.044 1944.87,633.51 1947.01,630.975 1949.14,628.44 1951.28,625.903 1953.42,623.366 1955.55,620.829 1957.69,618.292 1959.82,615.754 1961.96,613.216 1964.09,610.678 1966.23,608.14 1968.36,605.602 1970.5,603.064 1972.63,600.527 1974.77,597.989 1976.91,595.452 1979.04,592.915 1981.18,590.378 1983.31,587.841 1985.45,585.304 1987.58,582.767 1989.72,580.23 1991.85,577.692 1993.99,575.155 1996.13,572.617 1998.26,570.078 2000.4,567.539 2002.53,564.999 2004.67,562.459 2006.8,559.917 2008.94,557.373 2011.07,554.829 2013.21,552.282 2015.35,549.734 2017.48,547.183 2019.62,544.63 2021.75,542.075 2023.89,539.517 2026.02,536.955 2028.16,534.39 2030.29,531.821 2032.43,529.248 2034.56,526.671 2036.7,524.09 2038.84,521.508 2040.97,518.925 2043.11,516.34 2045.24,513.753 2047.38,511.167 2049.51,508.579 2051.65,505.991 2053.78,503.403 2055.92,500.814 2058.06,498.226 2060.19,495.638 2062.33,493.051 2064.46,490.464 2066.6,487.878 2068.73,485.293 2070.87,482.709 2073,480.126 2075.14,477.545 2077.27,474.965 2079.41,472.386 2081.55,469.809 2083.68,467.234 2085.82,464.66 2087.95,462.088 2090.09,459.518 2092.22,456.95 2094.36,454.384 2096.49,451.819 2098.63,449.257 2100.77,446.697 2102.9,444.138 2105.04,441.582 2107.17,439.027 2109.31,436.474 2111.44,433.924 2113.58,431.375 2115.71,428.827 2117.85,426.282 2119.99,423.738 2122.12,421.196 2124.26,418.655 2126.39,416.115 2128.53,413.577 2130.66,411.04 2132.8,408.504 2134.93,405.969 2137.07,403.435 2139.2,400.901 2141.34,398.367 2143.48,395.834 2145.61,393.301 2147.75,390.768 2149.88,388.235 2152.02,385.701 2154.15,383.166 2156.29,380.631 2158.42,378.094 2160.56,375.556 2162.7,373.018 2164.83,370.483 2166.97,367.949 2169.1,365.419 2171.24,362.89 2173.37,360.364 2175.51,357.841 2177.64,355.32 2179.78,352.801 2181.92,350.285 2184.05,347.772 2186.19,345.261 2188.32,342.753 2190.46,340.247 2192.59,337.745 2194.73,335.244 2196.86,332.747 2199,330.252 2201.13,327.76 2203.27,325.271 2205.41,322.785 2207.54,320.302 2209.68,317.822 2211.81,315.344 2213.95,312.87 2216.08,310.398 2218.22,307.93 2220.35,305.464 2222.49,303.002 2224.63,300.543 2226.76,298.087 2228.9,295.635 2231.03,293.185 2233.17,290.739 2235.3,288.296 2237.44,285.857 2239.57,283.42 2241.71,280.988 2243.84,278.559 2245.98,276.133 2248.12,273.711 2250.25,271.292 2252.39,268.877 2254.52,266.466 2256.66,264.059 2258.79,261.655 2260.93,259.255 2263.06,256.859 2265.2,254.466 2267.34,252.078 2269.47,249.694 2271.61,247.313 2273.74,244.937 2275.88,242.565 2278.01,240.197 2280.15,237.833 2282.28,235.473 2284.42,233.118 2286.56,230.767 2288.69,228.42 2290.83,226.078 2292.96,223.74 2295.1,221.407 2297.23,219.078 2299.37,216.754 2301.5,214.435 2303.64,212.12 2305.77,209.81 2307.91,207.505 2310.05,205.205 2312.18,202.909 2314.32,200.618 2316.45,198.332 2318.59,196.051 2320.72,193.775 2322.86,191.504 2324.99,189.238 2327.13,186.977 2329.27,184.721 2331.4,182.47 2333.54,180.225 2335.67,177.984 2337.81,175.749 2339.94,173.519 2342.08,171.295 2344.21,169.076 2346.35,166.863 2348.48,164.655 2350.62,162.453 2352.76,160.256 "/>
<circle clip-path="url(#clip702)" cx="276.418" cy="1228.22" r="18" fill="#e26f46" fill-rule="evenodd" fill-opacity="1" stroke="#000000" stroke-opacity="1" stroke-width="3.2"/>
<circle clip-path="url(#clip702)" cx="411.736" cy="1271.36" r="18" fill="#e26f46" fill-rule="evenodd" fill-opacity="1" stroke="#000000" stroke-opacity="1" stroke-width="3.2"/>
<circle clip-path="url(#clip702)" cx="488.853" cy="1309.7" r="18" fill="#e26f46" fill-rule="evenodd" fill-opacity="1" stroke="#000000" stroke-opacity="1" stroke-width="3.2"/>
<circle clip-path="url(#clip702)" cx="1199.78" cy="1357.64" r="18" fill="#e26f46" fill-rule="evenodd" fill-opacity="1" stroke="#000000" stroke-opacity="1" stroke-width="3.2"/>
<circle clip-path="url(#clip702)" cx="1298.73" cy="959.795" r="18" fill="#e26f46" fill-rule="evenodd" fill-opacity="1" stroke="#000000" stroke-opacity="1" stroke-width="3.2"/>
<circle clip-path="url(#clip702)" cx="1558.01" cy="988.554" r="18" fill="#e26f46" fill-rule="evenodd" fill-opacity="1" stroke="#000000" stroke-opacity="1" stroke-width="3.2"/>
<circle clip-path="url(#clip702)" cx="1736.11" cy="724.925" r="18" fill="#e26f46" fill-rule="evenodd" fill-opacity="1" stroke="#000000" stroke-opacity="1" stroke-width="3.2"/>
<circle clip-path="url(#clip702)" cx="1881.03" cy="547.574" r="18" fill="#e26f46" fill-rule="evenodd" fill-opacity="1" stroke="#000000" stroke-opacity="1" stroke-width="3.2"/>
<circle clip-path="url(#clip702)" cx="2178.15" cy="389.396" r="18" fill="#e26f46" fill-rule="evenodd" fill-opacity="1" stroke="#000000" stroke-opacity="1" stroke-width="3.2"/>
<path clip-path="url(#clip700)" d="M290.493 322.316 L853.203 322.316 L853.203 166.796 L290.493 166.796  Z" fill="#ffffff" fill-rule="evenodd" fill-opacity="1"/>
<polyline clip-path="url(#clip700)" style="stroke:#000000; stroke-linecap:round; stroke-linejoin:round; stroke-width:4; stroke-opacity:1; fill:none" points="290.493,322.316 853.203,322.316 853.203,166.796 290.493,166.796 290.493,322.316 "/>
<polyline clip-path="url(#clip700)" style="stroke:#009af9; stroke-linecap:round; stroke-linejoin:round; stroke-width:8; stroke-opacity:1; fill:none" points="314.197,218.636 456.422,218.636 "/>
<path clip-path="url(#clip700)" d="M484.802 219.411 L484.802 232.073 L492.302 232.073 Q496.075 232.073 497.881 230.522 Q499.709 228.948 499.709 225.731 Q499.709 222.49 497.881 220.962 Q496.075 219.411 492.302 219.411 L484.802 219.411 M484.802 205.198 L484.802 215.615 L491.723 215.615 Q495.149 215.615 496.816 214.342 Q498.506 213.045 498.506 210.407 Q498.506 207.791 496.816 206.495 Q495.149 205.198 491.723 205.198 L484.802 205.198 M480.126 201.356 L492.07 201.356 Q497.418 201.356 500.311 203.578 Q503.205 205.8 503.205 209.897 Q503.205 213.069 501.723 214.944 Q500.242 216.819 497.371 217.282 Q500.82 218.022 502.719 220.383 Q504.64 222.721 504.64 226.24 Q504.64 230.869 501.492 233.393 Q498.344 235.916 492.533 235.916 L480.126 235.916 L480.126 201.356 Z" fill="#000000" fill-rule="nonzero" fill-opacity="1" /><path clip-path="url(#clip700)" d="M512.464 199.897 L516.723 199.897 L516.723 235.916 L512.464 235.916 L512.464 199.897 Z" fill="#000000" fill-rule="nonzero" fill-opacity="1" /><path clip-path="url(#clip700)" d="M535.681 212.976 Q532.255 212.976 530.265 215.661 Q528.274 218.323 528.274 222.976 Q528.274 227.629 530.242 230.314 Q532.232 232.976 535.681 232.976 Q539.084 232.976 541.075 230.291 Q543.066 227.606 543.066 222.976 Q543.066 218.37 541.075 215.684 Q539.084 212.976 535.681 212.976 M535.681 209.365 Q541.237 209.365 544.408 212.976 Q547.579 216.587 547.579 222.976 Q547.579 229.342 544.408 232.976 Q541.237 236.587 535.681 236.587 Q530.103 236.587 526.931 232.976 Q523.783 229.342 523.783 222.976 Q523.783 216.587 526.931 212.976 Q530.103 209.365 535.681 209.365 Z" fill="#000000" fill-rule="nonzero" fill-opacity="1" /><path clip-path="url(#clip700)" d="M564.686 212.976 Q561.26 212.976 559.269 215.661 Q557.278 218.323 557.278 222.976 Q557.278 227.629 559.246 230.314 Q561.237 232.976 564.686 232.976 Q568.089 232.976 570.079 230.291 Q572.07 227.606 572.07 222.976 Q572.07 218.37 570.079 215.684 Q568.089 212.976 564.686 212.976 M564.686 209.365 Q570.241 209.365 573.413 212.976 Q576.584 216.587 576.584 222.976 Q576.584 229.342 573.413 232.976 Q570.241 236.587 564.686 236.587 Q559.107 236.587 555.936 232.976 Q552.788 229.342 552.788 222.976 Q552.788 216.587 555.936 212.976 Q559.107 209.365 564.686 209.365 Z" fill="#000000" fill-rule="nonzero" fill-opacity="1" /><path clip-path="url(#clip700)" d="M600.704 213.925 L600.704 199.897 L604.963 199.897 L604.963 235.916 L600.704 235.916 L600.704 232.027 Q599.362 234.342 597.301 235.476 Q595.264 236.587 592.394 236.587 Q587.695 236.587 584.732 232.837 Q581.792 229.087 581.792 222.976 Q581.792 216.865 584.732 213.115 Q587.695 209.365 592.394 209.365 Q595.264 209.365 597.301 210.499 Q599.362 211.61 600.704 213.925 M586.19 222.976 Q586.19 227.675 588.112 230.36 Q590.056 233.022 593.436 233.022 Q596.815 233.022 598.76 230.36 Q600.704 227.675 600.704 222.976 Q600.704 218.277 598.76 215.615 Q596.815 212.93 593.436 212.93 Q590.056 212.93 588.112 215.615 Q586.19 218.277 586.19 222.976 Z" fill="#000000" fill-rule="nonzero" fill-opacity="1" /><circle clip-path="url(#clip700)" cx="385.309" cy="270.476" r="20.9455" fill="#e26f46" fill-rule="evenodd" fill-opacity="1" stroke="#000000" stroke-opacity="1" stroke-width="3.72364"/>
<path clip-path="url(#clip700)" d="M496.145 256.367 Q491.052 256.367 488.043 260.163 Q485.057 263.96 485.057 270.51 Q485.057 277.038 488.043 280.834 Q491.052 284.631 496.145 284.631 Q501.237 284.631 504.2 280.834 Q507.186 277.038 507.186 270.51 Q507.186 263.96 504.2 260.163 Q501.237 256.367 496.145 256.367 M496.145 252.571 Q503.413 252.571 507.765 257.455 Q512.117 262.316 512.117 270.51 Q512.117 278.682 507.765 283.566 Q503.413 288.427 496.145 288.427 Q488.853 288.427 484.478 283.566 Q480.126 278.705 480.126 270.51 Q480.126 262.316 484.478 257.455 Q488.853 252.571 496.145 252.571 Z" fill="#000000" fill-rule="nonzero" fill-opacity="1" /><path clip-path="url(#clip700)" d="M537.857 274.816 Q537.857 270.117 535.913 267.455 Q533.992 264.77 530.612 264.77 Q527.232 264.77 525.288 267.455 Q523.367 270.117 523.367 274.816 Q523.367 279.515 525.288 282.2 Q527.232 284.862 530.612 284.862 Q533.992 284.862 535.913 282.2 Q537.857 279.515 537.857 274.816 M523.367 265.765 Q524.709 263.45 526.746 262.339 Q528.806 261.205 531.654 261.205 Q536.376 261.205 539.316 264.955 Q542.279 268.705 542.279 274.816 Q542.279 280.927 539.316 284.677 Q536.376 288.427 531.654 288.427 Q528.806 288.427 526.746 287.316 Q524.709 286.182 523.367 283.867 L523.367 287.756 L519.084 287.756 L519.084 251.737 L523.367 251.737 L523.367 265.765 Z" fill="#000000" fill-rule="nonzero" fill-opacity="1" /><path clip-path="url(#clip700)" d="M565.866 262.594 L565.866 266.622 Q564.061 265.696 562.116 265.233 Q560.172 264.77 558.089 264.77 Q554.917 264.77 553.32 265.742 Q551.746 266.714 551.746 268.659 Q551.746 270.14 552.88 270.997 Q554.015 271.83 557.44 272.594 L558.899 272.918 Q563.436 273.89 565.334 275.672 Q567.255 277.432 567.255 280.603 Q567.255 284.214 564.385 286.321 Q561.538 288.427 556.538 288.427 Q554.454 288.427 552.186 288.01 Q549.941 287.617 547.441 286.807 L547.441 282.409 Q549.802 283.635 552.093 284.26 Q554.385 284.862 556.63 284.862 Q559.64 284.862 561.26 283.844 Q562.88 282.802 562.88 280.927 Q562.88 279.191 561.7 278.265 Q560.542 277.339 556.584 276.483 L555.103 276.135 Q551.144 275.302 549.385 273.589 Q547.626 271.853 547.626 268.844 Q547.626 265.186 550.218 263.196 Q552.811 261.205 557.579 261.205 Q559.94 261.205 562.024 261.552 Q564.107 261.899 565.866 262.594 Z" fill="#000000" fill-rule="nonzero" fill-opacity="1" /><path clip-path="url(#clip700)" d="M596.213 273.728 L596.213 275.811 L576.63 275.811 Q576.908 280.209 579.269 282.524 Q581.653 284.816 585.889 284.816 Q588.343 284.816 590.635 284.214 Q592.95 283.612 595.218 282.409 L595.218 286.436 Q592.926 287.408 590.519 287.918 Q588.112 288.427 585.635 288.427 Q579.431 288.427 575.797 284.816 Q572.186 281.205 572.186 275.047 Q572.186 268.682 575.612 264.955 Q579.061 261.205 584.894 261.205 Q590.125 261.205 593.158 264.585 Q596.213 267.941 596.213 273.728 M591.954 272.478 Q591.908 268.983 589.987 266.899 Q588.088 264.816 584.94 264.816 Q581.376 264.816 579.223 266.83 Q577.093 268.844 576.769 272.501 L591.954 272.478 Z" fill="#000000" fill-rule="nonzero" fill-opacity="1" /><path clip-path="url(#clip700)" d="M618.227 265.811 Q617.51 265.395 616.653 265.21 Q615.82 265.001 614.801 265.001 Q611.19 265.001 609.246 267.362 Q607.324 269.7 607.324 274.098 L607.324 287.756 L603.042 287.756 L603.042 261.83 L607.324 261.83 L607.324 265.858 Q608.667 263.497 610.82 262.362 Q612.973 261.205 616.051 261.205 Q616.491 261.205 617.023 261.274 Q617.556 261.321 618.204 261.436 L618.227 265.811 Z" fill="#000000" fill-rule="nonzero" fill-opacity="1" /><path clip-path="url(#clip700)" d="M619.639 261.83 L624.153 261.83 L632.255 283.589 L640.357 261.83 L644.871 261.83 L635.148 287.756 L629.361 287.756 L619.639 261.83 Z" fill="#000000" fill-rule="nonzero" fill-opacity="1" /><path clip-path="url(#clip700)" d="M672.926 273.728 L672.926 275.811 L653.343 275.811 Q653.621 280.209 655.982 282.524 Q658.366 284.816 662.602 284.816 Q665.056 284.816 667.347 284.214 Q669.662 283.612 671.931 282.409 L671.931 286.436 Q669.639 287.408 667.232 287.918 Q664.824 288.427 662.347 288.427 Q656.144 288.427 652.509 284.816 Q648.898 281.205 648.898 275.047 Q648.898 268.682 652.324 264.955 Q655.773 261.205 661.607 261.205 Q666.838 261.205 669.87 264.585 Q672.926 267.941 672.926 273.728 M668.667 272.478 Q668.62 268.983 666.699 266.899 Q664.801 264.816 661.653 264.816 Q658.088 264.816 655.935 266.83 Q653.806 268.844 653.482 272.501 L668.667 272.478 Z" fill="#000000" fill-rule="nonzero" fill-opacity="1" /><path clip-path="url(#clip700)" d="M696.977 265.765 L696.977 251.737 L701.236 251.737 L701.236 287.756 L696.977 287.756 L696.977 283.867 Q695.634 286.182 693.574 287.316 Q691.537 288.427 688.667 288.427 Q683.968 288.427 681.005 284.677 Q678.065 280.927 678.065 274.816 Q678.065 268.705 681.005 264.955 Q683.968 261.205 688.667 261.205 Q691.537 261.205 693.574 262.339 Q695.634 263.45 696.977 265.765 M682.463 274.816 Q682.463 279.515 684.384 282.2 Q686.329 284.862 689.708 284.862 Q693.088 284.862 695.032 282.2 Q696.977 279.515 696.977 274.816 Q696.977 270.117 695.032 267.455 Q693.088 264.77 689.708 264.77 Q686.329 264.77 684.384 267.455 Q682.463 270.117 682.463 274.816 Z" fill="#000000" fill-rule="nonzero" fill-opacity="1" /><path clip-path="url(#clip700)" d="M729.94 257.038 L729.94 283.913 L735.588 283.913 Q742.74 283.913 746.051 280.672 Q749.384 277.432 749.384 270.441 Q749.384 263.497 746.051 260.279 Q742.74 257.038 735.588 257.038 L729.94 257.038 M725.264 253.196 L734.87 253.196 Q744.916 253.196 749.615 257.386 Q754.314 261.552 754.314 270.441 Q754.314 279.376 749.592 283.566 Q744.87 287.756 734.87 287.756 L725.264 287.756 L725.264 253.196 Z" fill="#000000" fill-rule="nonzero" fill-opacity="1" /><path clip-path="url(#clip700)" d="M773.365 274.723 Q768.203 274.723 766.213 275.904 Q764.222 277.084 764.222 279.932 Q764.222 282.2 765.703 283.543 Q767.208 284.862 769.777 284.862 Q773.319 284.862 775.449 282.362 Q777.601 279.839 777.601 275.672 L777.601 274.723 L773.365 274.723 M781.861 272.964 L781.861 287.756 L777.601 287.756 L777.601 283.821 Q776.143 286.182 773.967 287.316 Q771.791 288.427 768.643 288.427 Q764.662 288.427 762.3 286.205 Q759.963 283.959 759.963 280.209 Q759.963 275.834 762.879 273.612 Q765.819 271.39 771.629 271.39 L777.601 271.39 L777.601 270.973 Q777.601 268.034 775.657 266.436 Q773.736 264.816 770.24 264.816 Q768.018 264.816 765.912 265.348 Q763.805 265.881 761.861 266.946 L761.861 263.01 Q764.199 262.108 766.398 261.668 Q768.597 261.205 770.68 261.205 Q776.305 261.205 779.083 264.122 Q781.861 267.038 781.861 272.964 Z" fill="#000000" fill-rule="nonzero" fill-opacity="1" /><path clip-path="url(#clip700)" d="M794.847 254.469 L794.847 261.83 L803.62 261.83 L803.62 265.14 L794.847 265.14 L794.847 279.214 Q794.847 282.385 795.703 283.288 Q796.583 284.191 799.245 284.191 L803.62 284.191 L803.62 287.756 L799.245 287.756 Q794.314 287.756 792.439 285.927 Q790.564 284.075 790.564 279.214 L790.564 265.14 L787.439 265.14 L787.439 261.83 L790.564 261.83 L790.564 254.469 L794.847 254.469 Z" fill="#000000" fill-rule="nonzero" fill-opacity="1" /><path clip-path="url(#clip700)" d="M821.004 274.723 Q815.842 274.723 813.851 275.904 Q811.86 277.084 811.86 279.932 Q811.86 282.2 813.342 283.543 Q814.847 284.862 817.416 284.862 Q820.958 284.862 823.087 282.362 Q825.24 279.839 825.24 275.672 L825.24 274.723 L821.004 274.723 M829.499 272.964 L829.499 287.756 L825.24 287.756 L825.24 283.821 Q823.782 286.182 821.606 287.316 Q819.43 288.427 816.282 288.427 Q812.3 288.427 809.939 286.205 Q807.601 283.959 807.601 280.209 Q807.601 275.834 810.518 273.612 Q813.458 271.39 819.268 271.39 L825.24 271.39 L825.24 270.973 Q825.24 268.034 823.296 266.436 Q821.374 264.816 817.879 264.816 Q815.657 264.816 813.55 265.348 Q811.444 265.881 809.499 266.946 L809.499 263.01 Q811.837 262.108 814.036 261.668 Q816.235 261.205 818.319 261.205 Q823.944 261.205 826.721 264.122 Q829.499 267.038 829.499 272.964 Z" fill="#000000" fill-rule="nonzero" fill-opacity="1" /></svg>
