<?xml version="1.0" encoding="utf-8"?>
<svg xmlns="http://www.w3.org/2000/svg" xmlns:xlink="http://www.w3.org/1999/xlink" width="600" height="400" viewBox="0 0 2400 1600">
<defs>
  <clipPath id="clip400">
    <rect x="0" y="0" width="2400" height="1600"/>
  </clipPath>
</defs>
<path clip-path="url(#clip400)" d="M0 1600 L2400 1600 L2400 0 L0 0  Z" fill="#ffffff" fill-rule="evenodd" fill-opacity="1"/>
<defs>
  <clipPath id="clip401">
    <rect x="175" y="123" width="2178" height="1301"/>
  </clipPath>
</defs>
<path clip-path="url(#clip400)" d="M219.866 1423.18 L2352.76 1423.18 L2352.76 123.472 L219.866 123.472  Z" fill="#ffffff" fill-rule="evenodd" fill-opacity="1"/>
<defs>
  <clipPath id="clip402">
    <rect x="219" y="123" width="2134" height="1301"/>
  </clipPath>
</defs>
<polyline clip-path="url(#clip402)" style="stroke:#000000; stroke-linecap:round; stroke-linejoin:round; stroke-width:2; stroke-opacity:0.1; fill:none" points="219.866,1423.18 219.866,123.472 "/>
<polyline clip-path="url(#clip402)" style="stroke:#000000; stroke-linecap:round; stroke-linejoin:round; stroke-width:2; stroke-opacity:0.1; fill:none" points="745.813,1423.18 745.813,123.472 "/>
<polyline clip-path="url(#clip402)" style="stroke:#000000; stroke-linecap:round; stroke-linejoin:round; stroke-width:2; stroke-opacity:0.1; fill:none" points="1271.76,1423.18 1271.76,123.472 "/>
<polyline clip-path="url(#clip402)" style="stroke:#000000; stroke-linecap:round; stroke-linejoin:round; stroke-width:2; stroke-opacity:0.1; fill:none" points="1797.71,1423.18 1797.71,123.472 "/>
<polyline clip-path="url(#clip402)" style="stroke:#000000; stroke-linecap:round; stroke-linejoin:round; stroke-width:2; stroke-opacity:0.1; fill:none" points="2323.65,1423.18 2323.65,123.472 "/>
<polyline clip-path="url(#clip402)" style="stroke:#000000; stroke-linecap:round; stroke-linejoin:round; stroke-width:2; stroke-opacity:0.1; fill:none" points="219.866,1386.4 2352.76,1386.4 "/>
<polyline clip-path="url(#clip402)" style="stroke:#000000; stroke-linecap:round; stroke-linejoin:round; stroke-width:2; stroke-opacity:0.1; fill:none" points="219.866,1128.26 2352.76,1128.26 "/>
<polyline clip-path="url(#clip402)" style="stroke:#000000; stroke-linecap:round; stroke-linejoin:round; stroke-width:2; stroke-opacity:0.1; fill:none" points="219.866,870.126 2352.76,870.126 "/>
<polyline clip-path="url(#clip402)" style="stroke:#000000; stroke-linecap:round; stroke-linejoin:round; stroke-width:2; stroke-opacity:0.1; fill:none" points="219.866,611.992 2352.76,611.992 "/>
<polyline clip-path="url(#clip402)" style="stroke:#000000; stroke-linecap:round; stroke-linejoin:round; stroke-width:2; stroke-opacity:0.1; fill:none" points="219.866,353.857 2352.76,353.857 "/>
<polyline clip-path="url(#clip400)" style="stroke:#000000; stroke-linecap:round; stroke-linejoin:round; stroke-width:4; stroke-opacity:1; fill:none" points="219.866,1423.18 2352.76,1423.18 "/>
<polyline clip-path="url(#clip400)" style="stroke:#000000; stroke-linecap:round; stroke-linejoin:round; stroke-width:4; stroke-opacity:1; fill:none" points="219.866,1423.18 219.866,1404.28 "/>
<polyline clip-path="url(#clip400)" style="stroke:#000000; stroke-linecap:round; stroke-linejoin:round; stroke-width:4; stroke-opacity:1; fill:none" points="745.813,1423.18 745.813,1404.28 "/>
<polyline clip-path="url(#clip400)" style="stroke:#000000; stroke-linecap:round; stroke-linejoin:round; stroke-width:4; stroke-opacity:1; fill:none" points="1271.76,1423.18 1271.76,1404.28 "/>
<polyline clip-path="url(#clip400)" style="stroke:#000000; stroke-linecap:round; stroke-linejoin:round; stroke-width:4; stroke-opacity:1; fill:none" points="1797.71,1423.18 1797.71,1404.28 "/>
<polyline clip-path="url(#clip400)" style="stroke:#000000; stroke-linecap:round; stroke-linejoin:round; stroke-width:4; stroke-opacity:1; fill:none" points="2323.65,1423.18 2323.65,1404.28 "/>
<path clip-path="url(#clip400)" d="M219.866 1454.1 Q216.255 1454.1 214.426 1457.66 Q212.621 1461.2 212.621 1468.33 Q212.621 1475.44 214.426 1479.01 Q216.255 1482.55 219.866 1482.55 Q223.501 1482.55 225.306 1479.01 Q227.135 1475.44 227.135 1468.33 Q227.135 1461.2 225.306 1457.66 Q223.501 1454.1 219.866 1454.1 M219.866 1450.39 Q225.676 1450.39 228.732 1455 Q231.811 1459.58 231.811 1468.33 Q231.811 1477.06 228.732 1481.67 Q225.676 1486.25 219.866 1486.25 Q214.056 1486.25 210.977 1481.67 Q207.922 1477.06 207.922 1468.33 Q207.922 1459.58 210.977 1455 Q214.056 1450.39 219.866 1450.39 Z" fill="#000000" fill-rule="nonzero" fill-opacity="1" /><path clip-path="url(#clip400)" d="M725.084 1481.64 L741.403 1481.64 L741.403 1485.58 L719.459 1485.58 L719.459 1481.64 Q722.121 1478.89 726.704 1474.26 Q731.311 1469.61 732.491 1468.27 Q734.737 1465.74 735.616 1464.01 Q736.519 1462.25 736.519 1460.56 Q736.519 1457.8 734.575 1456.07 Q732.653 1454.33 729.552 1454.33 Q727.353 1454.33 724.899 1455.09 Q722.468 1455.86 719.691 1457.41 L719.691 1452.69 Q722.515 1451.55 724.968 1450.97 Q727.422 1450.39 729.459 1450.39 Q734.829 1450.39 738.024 1453.08 Q741.218 1455.77 741.218 1460.26 Q741.218 1462.39 740.408 1464.31 Q739.621 1466.2 737.515 1468.8 Q736.936 1469.47 733.834 1472.69 Q730.732 1475.88 725.084 1481.64 Z" fill="#000000" fill-rule="nonzero" fill-opacity="1" /><path clip-path="url(#clip400)" d="M751.264 1451.02 L769.621 1451.02 L769.621 1454.96 L755.547 1454.96 L755.547 1463.43 Q756.565 1463.08 757.584 1462.92 Q758.602 1462.73 759.621 1462.73 Q765.408 1462.73 768.787 1465.9 Q772.167 1469.08 772.167 1474.49 Q772.167 1480.07 768.695 1483.17 Q765.223 1486.25 758.903 1486.25 Q756.727 1486.25 754.459 1485.88 Q752.214 1485.51 749.806 1484.77 L749.806 1480.07 Q751.889 1481.2 754.112 1481.76 Q756.334 1482.32 758.811 1482.32 Q762.815 1482.32 765.153 1480.21 Q767.491 1478.1 767.491 1474.49 Q767.491 1470.88 765.153 1468.77 Q762.815 1466.67 758.811 1466.67 Q756.936 1466.67 755.061 1467.08 Q753.209 1467.5 751.264 1468.38 L751.264 1451.02 Z" fill="#000000" fill-rule="nonzero" fill-opacity="1" /><path clip-path="url(#clip400)" d="M1246.46 1451.02 L1264.82 1451.02 L1264.82 1454.96 L1250.74 1454.96 L1250.74 1463.43 Q1251.76 1463.08 1252.78 1462.92 Q1253.8 1462.73 1254.82 1462.73 Q1260.6 1462.73 1263.98 1465.9 Q1267.36 1469.08 1267.36 1474.49 Q1267.36 1480.07 1263.89 1483.17 Q1260.42 1486.25 1254.1 1486.25 Q1251.92 1486.25 1249.65 1485.88 Q1247.41 1485.51 1245 1484.77 L1245 1480.07 Q1247.08 1481.2 1249.31 1481.76 Q1251.53 1482.32 1254.01 1482.32 Q1258.01 1482.32 1260.35 1480.21 Q1262.69 1478.1 1262.69 1474.49 Q1262.69 1470.88 1260.35 1468.77 Q1258.01 1466.67 1254.01 1466.67 Q1252.13 1466.67 1250.26 1467.08 Q1248.4 1467.5 1246.46 1468.38 L1246.46 1451.02 Z" fill="#000000" fill-rule="nonzero" fill-opacity="1" /><path clip-path="url(#clip400)" d="M1286.57 1454.1 Q1282.96 1454.1 1281.13 1457.66 Q1279.33 1461.2 1279.33 1468.33 Q1279.33 1475.44 1281.13 1479.01 Q1282.96 1482.55 1286.57 1482.55 Q1290.21 1482.55 1292.01 1479.01 Q1293.84 1475.44 1293.84 1468.33 Q1293.84 1461.2 1292.01 1457.66 Q1290.21 1454.1 1286.57 1454.1 M1286.57 1450.39 Q1292.38 1450.39 1295.44 1455 Q1298.52 1459.58 1298.52 1468.33 Q1298.52 1477.06 1295.44 1481.67 Q1292.38 1486.25 1286.57 1486.25 Q1280.76 1486.25 1277.69 1481.67 Q1274.63 1477.06 1274.63 1468.33 Q1274.63 1459.58 1277.69 1455 Q1280.76 1450.39 1286.57 1450.39 Z" fill="#000000" fill-rule="nonzero" fill-opacity="1" /><path clip-path="url(#clip400)" d="M1771.56 1451.02 L1793.78 1451.02 L1793.78 1453.01 L1781.24 1485.58 L1776.35 1485.58 L1788.16 1454.96 L1771.56 1454.96 L1771.56 1451.02 Z" fill="#000000" fill-rule="nonzero" fill-opacity="1" /><path clip-path="url(#clip400)" d="M1802.95 1451.02 L1821.31 1451.02 L1821.31 1454.96 L1807.23 1454.96 L1807.23 1463.43 Q1808.25 1463.08 1809.27 1462.92 Q1810.29 1462.73 1811.31 1462.73 Q1817.09 1462.73 1820.47 1465.9 Q1823.85 1469.08 1823.85 1474.49 Q1823.85 1480.07 1820.38 1483.17 Q1816.91 1486.25 1810.59 1486.25 Q1808.41 1486.25 1806.14 1485.88 Q1803.9 1485.51 1801.49 1484.77 L1801.49 1480.07 Q1803.57 1481.2 1805.8 1481.76 Q1808.02 1482.32 1810.5 1482.32 Q1814.5 1482.32 1816.84 1480.21 Q1819.18 1478.1 1819.18 1474.49 Q1819.18 1470.88 1816.84 1468.77 Q1814.5 1466.67 1810.5 1466.67 Q1808.62 1466.67 1806.75 1467.08 Q1804.89 1467.5 1802.95 1468.38 L1802.95 1451.02 Z" fill="#000000" fill-rule="nonzero" fill-opacity="1" /><path clip-path="url(#clip400)" d="M2283.26 1481.64 L2290.9 1481.64 L2290.9 1455.28 L2282.59 1456.95 L2282.59 1452.69 L2290.85 1451.02 L2295.53 1451.02 L2295.53 1481.64 L2303.17 1481.64 L2303.17 1485.58 L2283.26 1485.58 L2283.26 1481.64 Z" fill="#000000" fill-rule="nonzero" fill-opacity="1" /><path clip-path="url(#clip400)" d="M2322.61 1454.1 Q2319 1454.1 2317.17 1457.66 Q2315.37 1461.2 2315.37 1468.33 Q2315.37 1475.44 2317.17 1479.01 Q2319 1482.55 2322.61 1482.55 Q2326.25 1482.55 2328.05 1479.01 Q2329.88 1475.44 2329.88 1468.33 Q2329.88 1461.2 2328.05 1457.66 Q2326.25 1454.1 2322.61 1454.1 M2322.61 1450.39 Q2328.42 1450.39 2331.48 1455 Q2334.56 1459.58 2334.56 1468.33 Q2334.56 1477.06 2331.48 1481.67 Q2328.42 1486.25 2322.61 1486.25 Q2316.8 1486.25 2313.72 1481.67 Q2310.67 1477.06 2310.67 1468.33 Q2310.67 1459.58 2313.72 1455 Q2316.8 1450.39 2322.61 1450.39 Z" fill="#000000" fill-rule="nonzero" fill-opacity="1" /><path clip-path="url(#clip400)" d="M2352.77 1454.1 Q2349.16 1454.1 2347.33 1457.66 Q2345.53 1461.2 2345.53 1468.33 Q2345.53 1475.44 2347.33 1479.01 Q2349.16 1482.55 2352.77 1482.55 Q2356.41 1482.55 2358.21 1479.01 Q2360.04 1475.44 2360.04 1468.33 Q2360.04 1461.2 2358.21 1457.66 Q2356.41 1454.1 2352.77 1454.1 M2352.77 1450.39 Q2358.58 1450.39 2361.64 1455 Q2364.72 1459.58 2364.72 1468.33 Q2364.72 1477.06 2361.64 1481.67 Q2358.58 1486.25 2352.77 1486.25 Q2346.96 1486.25 2343.88 1481.67 Q2340.83 1477.06 2340.83 1468.33 Q2340.83 1459.58 2343.88 1455 Q2346.96 1450.39 2352.77 1450.39 Z" fill="#000000" fill-rule="nonzero" fill-opacity="1" /><path clip-path="url(#clip400)" d="M1208.19 1520.52 L1248.39 1520.52 L1248.39 1525.93 L1231.52 1525.93 L1231.52 1568.04 L1225.06 1568.04 L1225.06 1525.93 L1208.19 1525.93 L1208.19 1520.52 Z" fill="#000000" fill-rule="nonzero" fill-opacity="1" /><path clip-path="url(#clip400)" d="M1252.33 1532.4 L1258.19 1532.4 L1258.19 1568.04 L1252.33 1568.04 L1252.33 1532.4 M1252.33 1518.52 L1258.19 1518.52 L1258.19 1525.93 L1252.33 1525.93 L1252.33 1518.52 Z" fill="#000000" fill-rule="nonzero" fill-opacity="1" /><path clip-path="url(#clip400)" d="M1298.2 1539.24 Q1300.4 1535.29 1303.45 1533.41 Q1306.51 1531.54 1310.64 1531.54 Q1316.21 1531.54 1319.24 1535.45 Q1322.26 1539.33 1322.26 1546.53 L1322.26 1568.04 L1316.37 1568.04 L1316.37 1546.72 Q1316.37 1541.59 1314.56 1539.11 Q1312.74 1536.63 1309.02 1536.63 Q1304.47 1536.63 1301.83 1539.65 Q1299.19 1542.68 1299.19 1547.9 L1299.19 1568.04 L1293.3 1568.04 L1293.3 1546.72 Q1293.3 1541.56 1291.48 1539.11 Q1289.67 1536.63 1285.88 1536.63 Q1281.39 1536.63 1278.75 1539.68 Q1276.11 1542.71 1276.11 1547.9 L1276.11 1568.04 L1270.22 1568.04 L1270.22 1532.4 L1276.11 1532.4 L1276.11 1537.93 Q1278.12 1534.66 1280.92 1533.1 Q1283.72 1531.54 1287.57 1531.54 Q1291.45 1531.54 1294.16 1533.51 Q1296.89 1535.48 1298.2 1539.24 Z" fill="#000000" fill-rule="nonzero" fill-opacity="1" /><path clip-path="url(#clip400)" d="M1364.43 1548.76 L1364.43 1551.62 L1337.51 1551.62 Q1337.89 1557.67 1341.14 1560.85 Q1344.41 1564 1350.24 1564 Q1353.61 1564 1356.76 1563.17 Q1359.95 1562.35 1363.07 1560.69 L1363.07 1566.23 Q1359.91 1567.57 1356.6 1568.27 Q1353.29 1568.97 1349.89 1568.97 Q1341.36 1568.97 1336.36 1564 Q1331.4 1559.04 1331.4 1550.57 Q1331.4 1541.82 1336.11 1536.69 Q1340.85 1531.54 1348.87 1531.54 Q1356.06 1531.54 1360.23 1536.18 Q1364.43 1540.8 1364.43 1548.76 M1358.58 1547.04 Q1358.51 1542.23 1355.87 1539.37 Q1353.26 1536.5 1348.93 1536.5 Q1344.03 1536.5 1341.07 1539.27 Q1338.14 1542.04 1337.7 1547.07 L1358.58 1547.04 Z" fill="#000000" fill-rule="nonzero" fill-opacity="1" /><polyline clip-path="url(#clip400)" style="stroke:#000000; stroke-linecap:round; stroke-linejoin:round; stroke-width:4; stroke-opacity:1; fill:none" points="219.866,1423.18 219.866,123.472 "/>
<polyline clip-path="url(#clip400)" style="stroke:#000000; stroke-linecap:round; stroke-linejoin:round; stroke-width:4; stroke-opacity:1; fill:none" points="219.866,1386.4 238.764,1386.4 "/>
<polyline clip-path="url(#clip400)" style="stroke:#000000; stroke-linecap:round; stroke-linejoin:round; stroke-width:4; stroke-opacity:1; fill:none" points="219.866,1128.26 238.764,1128.26 "/>
<polyline clip-path="url(#clip400)" style="stroke:#000000; stroke-linecap:round; stroke-linejoin:round; stroke-width:4; stroke-opacity:1; fill:none" points="219.866,870.126 238.764,870.126 "/>
<polyline clip-path="url(#clip400)" style="stroke:#000000; stroke-linecap:round; stroke-linejoin:round; stroke-width:4; stroke-opacity:1; fill:none" points="219.866,611.992 238.764,611.992 "/>
<polyline clip-path="url(#clip400)" style="stroke:#000000; stroke-linecap:round; stroke-linejoin:round; stroke-width:4; stroke-opacity:1; fill:none" points="219.866,353.857 238.764,353.857 "/>
<path clip-path="url(#clip400)" d="M126.691 1372.19 Q123.08 1372.19 121.251 1375.76 Q119.445 1379.3 119.445 1386.43 Q119.445 1393.54 121.251 1397.1 Q123.08 1400.64 126.691 1400.64 Q130.325 1400.64 132.13 1397.1 Q133.959 1393.54 133.959 1386.43 Q133.959 1379.3 132.13 1375.76 Q130.325 1372.19 126.691 1372.19 M126.691 1368.49 Q132.501 1368.49 135.556 1373.1 Q138.635 1377.68 138.635 1386.43 Q138.635 1395.16 135.556 1399.76 Q132.501 1404.35 126.691 1404.35 Q120.88 1404.35 117.802 1399.76 Q114.746 1395.16 114.746 1386.43 Q114.746 1377.68 117.802 1373.1 Q120.88 1368.49 126.691 1368.49 Z" fill="#000000" fill-rule="nonzero" fill-opacity="1" /><path clip-path="url(#clip400)" d="M146.853 1397.8 L151.737 1397.8 L151.737 1403.68 L146.853 1403.68 L146.853 1397.8 Z" fill="#000000" fill-rule="nonzero" fill-opacity="1" /><path clip-path="url(#clip400)" d="M171.922 1372.19 Q168.311 1372.19 166.482 1375.76 Q164.677 1379.3 164.677 1386.43 Q164.677 1393.54 166.482 1397.1 Q168.311 1400.64 171.922 1400.64 Q175.556 1400.64 177.362 1397.1 Q179.19 1393.54 179.19 1386.43 Q179.19 1379.3 177.362 1375.76 Q175.556 1372.19 171.922 1372.19 M171.922 1368.49 Q177.732 1368.49 180.788 1373.1 Q183.866 1377.68 183.866 1386.43 Q183.866 1395.16 180.788 1399.76 Q177.732 1404.35 171.922 1404.35 Q166.112 1404.35 163.033 1399.76 Q159.978 1395.16 159.978 1386.43 Q159.978 1377.68 163.033 1373.1 Q166.112 1368.49 171.922 1368.49 Z" fill="#000000" fill-rule="nonzero" fill-opacity="1" /><path clip-path="url(#clip400)" d="M128.288 1114.06 Q124.677 1114.06 122.848 1117.62 Q121.043 1121.17 121.043 1128.3 Q121.043 1135.4 122.848 1138.97 Q124.677 1142.51 128.288 1142.51 Q131.922 1142.51 133.728 1138.97 Q135.556 1135.4 135.556 1128.3 Q135.556 1121.17 133.728 1117.62 Q131.922 1114.06 128.288 1114.06 M128.288 1110.36 Q134.098 1110.36 137.154 1114.96 Q140.232 1119.55 140.232 1128.3 Q140.232 1137.02 137.154 1141.63 Q134.098 1146.21 128.288 1146.21 Q122.478 1146.21 119.399 1141.63 Q116.343 1137.02 116.343 1128.3 Q116.343 1119.55 119.399 1114.96 Q122.478 1110.36 128.288 1110.36 Z" fill="#000000" fill-rule="nonzero" fill-opacity="1" /><path clip-path="url(#clip400)" d="M148.45 1139.66 L153.334 1139.66 L153.334 1145.54 L148.45 1145.54 L148.45 1139.66 Z" fill="#000000" fill-rule="nonzero" fill-opacity="1" /><path clip-path="url(#clip400)" d="M167.547 1141.61 L183.866 1141.61 L183.866 1145.54 L161.922 1145.54 L161.922 1141.61 Q164.584 1138.85 169.167 1134.22 Q173.774 1129.57 174.954 1128.23 Q177.2 1125.7 178.079 1123.97 Q178.982 1122.21 178.982 1120.52 Q178.982 1117.76 177.038 1116.03 Q175.116 1114.29 172.014 1114.29 Q169.815 1114.29 167.362 1115.06 Q164.931 1115.82 162.153 1117.37 L162.153 1112.65 Q164.977 1111.51 167.431 1110.93 Q169.885 1110.36 171.922 1110.36 Q177.292 1110.36 180.487 1113.04 Q183.681 1115.73 183.681 1120.22 Q183.681 1122.35 182.871 1124.27 Q182.084 1126.17 179.977 1128.76 Q179.399 1129.43 176.297 1132.65 Q173.195 1135.84 167.547 1141.61 Z" fill="#000000" fill-rule="nonzero" fill-opacity="1" /><path clip-path="url(#clip400)" d="M126.205 855.925 Q122.593 855.925 120.765 859.49 Q118.959 863.032 118.959 870.161 Q118.959 877.268 120.765 880.832 Q122.593 884.374 126.205 884.374 Q129.839 884.374 131.644 880.832 Q133.473 877.268 133.473 870.161 Q133.473 863.032 131.644 859.49 Q129.839 855.925 126.205 855.925 M126.205 852.221 Q132.015 852.221 135.07 856.828 Q138.149 861.411 138.149 870.161 Q138.149 878.888 135.07 883.494 Q132.015 888.078 126.205 888.078 Q120.394 888.078 117.316 883.494 Q114.26 878.888 114.26 870.161 Q114.26 861.411 117.316 856.828 Q120.394 852.221 126.205 852.221 Z" fill="#000000" fill-rule="nonzero" fill-opacity="1" /><path clip-path="url(#clip400)" d="M146.366 881.527 L151.251 881.527 L151.251 887.406 L146.366 887.406 L146.366 881.527 Z" fill="#000000" fill-rule="nonzero" fill-opacity="1" /><path clip-path="url(#clip400)" d="M174.283 856.921 L162.477 875.369 L174.283 875.369 L174.283 856.921 M173.056 852.846 L178.936 852.846 L178.936 875.369 L183.866 875.369 L183.866 879.258 L178.936 879.258 L178.936 887.406 L174.283 887.406 L174.283 879.258 L158.681 879.258 L158.681 874.744 L173.056 852.846 Z" fill="#000000" fill-rule="nonzero" fill-opacity="1" /><path clip-path="url(#clip400)" d="M126.529 597.791 Q122.918 597.791 121.089 601.355 Q119.283 604.897 119.283 612.027 Q119.283 619.133 121.089 622.698 Q122.918 626.239 126.529 626.239 Q130.163 626.239 131.968 622.698 Q133.797 619.133 133.797 612.027 Q133.797 604.897 131.968 601.355 Q130.163 597.791 126.529 597.791 M126.529 594.087 Q132.339 594.087 135.394 598.693 Q138.473 603.277 138.473 612.027 Q138.473 620.753 135.394 625.36 Q132.339 629.943 126.529 629.943 Q120.718 629.943 117.64 625.36 Q114.584 620.753 114.584 612.027 Q114.584 603.277 117.64 598.693 Q120.718 594.087 126.529 594.087 Z" fill="#000000" fill-rule="nonzero" fill-opacity="1" /><path clip-path="url(#clip400)" d="M146.691 623.392 L151.575 623.392 L151.575 629.272 L146.691 629.272 L146.691 623.392 Z" fill="#000000" fill-rule="nonzero" fill-opacity="1" /><path clip-path="url(#clip400)" d="M172.339 610.128 Q169.19 610.128 167.339 612.281 Q165.51 614.434 165.51 618.184 Q165.51 621.911 167.339 624.087 Q169.19 626.239 172.339 626.239 Q175.487 626.239 177.315 624.087 Q179.167 621.911 179.167 618.184 Q179.167 614.434 177.315 612.281 Q175.487 610.128 172.339 610.128 M181.621 595.476 L181.621 599.735 Q179.862 598.902 178.056 598.462 Q176.274 598.022 174.514 598.022 Q169.885 598.022 167.431 601.147 Q165.001 604.272 164.653 610.591 Q166.019 608.578 168.079 607.513 Q170.139 606.425 172.616 606.425 Q177.825 606.425 180.834 609.596 Q183.866 612.744 183.866 618.184 Q183.866 623.508 180.718 626.726 Q177.57 629.943 172.339 629.943 Q166.343 629.943 163.172 625.36 Q160.001 620.753 160.001 612.027 Q160.001 603.832 163.89 598.971 Q167.778 594.087 174.329 594.087 Q176.089 594.087 177.871 594.434 Q179.676 594.781 181.621 595.476 Z" fill="#000000" fill-rule="nonzero" fill-opacity="1" /><path clip-path="url(#clip400)" d="M126.783 339.656 Q123.172 339.656 121.343 343.221 Q119.538 346.762 119.538 353.892 Q119.538 360.998 121.343 364.563 Q123.172 368.105 126.783 368.105 Q130.417 368.105 132.223 364.563 Q134.052 360.998 134.052 353.892 Q134.052 346.762 132.223 343.221 Q130.417 339.656 126.783 339.656 M126.783 335.952 Q132.593 335.952 135.649 340.559 Q138.728 345.142 138.728 353.892 Q138.728 362.619 135.649 367.225 Q132.593 371.809 126.783 371.809 Q120.973 371.809 117.894 367.225 Q114.839 362.619 114.839 353.892 Q114.839 345.142 117.894 340.559 Q120.973 335.952 126.783 335.952 Z" fill="#000000" fill-rule="nonzero" fill-opacity="1" /><path clip-path="url(#clip400)" d="M146.945 365.258 L151.829 365.258 L151.829 371.137 L146.945 371.137 L146.945 365.258 Z" fill="#000000" fill-rule="nonzero" fill-opacity="1" /><path clip-path="url(#clip400)" d="M172.014 354.725 Q168.681 354.725 166.76 356.508 Q164.862 358.29 164.862 361.415 Q164.862 364.54 166.76 366.322 Q168.681 368.105 172.014 368.105 Q175.348 368.105 177.269 366.322 Q179.19 364.517 179.19 361.415 Q179.19 358.29 177.269 356.508 Q175.371 354.725 172.014 354.725 M167.339 352.735 Q164.329 351.994 162.64 349.934 Q160.973 347.873 160.973 344.911 Q160.973 340.767 163.913 338.36 Q166.876 335.952 172.014 335.952 Q177.176 335.952 180.116 338.36 Q183.056 340.767 183.056 344.911 Q183.056 347.873 181.366 349.934 Q179.7 351.994 176.714 352.735 Q180.093 353.522 181.968 355.813 Q183.866 358.105 183.866 361.415 Q183.866 366.438 180.788 369.123 Q177.732 371.809 172.014 371.809 Q166.297 371.809 163.218 369.123 Q160.163 366.438 160.163 361.415 Q160.163 358.105 162.061 355.813 Q163.959 353.522 167.339 352.735 M165.626 345.35 Q165.626 348.036 167.292 349.54 Q168.982 351.045 172.014 351.045 Q175.024 351.045 176.714 349.54 Q178.426 348.036 178.426 345.35 Q178.426 342.665 176.714 341.161 Q175.024 339.656 172.014 339.656 Q168.982 339.656 167.292 341.161 Q165.626 342.665 165.626 345.35 Z" fill="#000000" fill-rule="nonzero" fill-opacity="1" /><path clip-path="url(#clip400)" d="M29.7248 956.945 L35.1993 956.945 Q33.8307 959.427 33.1623 961.942 Q32.4621 964.424 32.4621 966.971 Q32.4621 972.668 36.0905 975.819 Q39.6872 978.97 46.212 978.97 Q52.7369 978.97 56.3653 975.819 Q59.9619 972.668 59.9619 966.971 Q59.9619 964.424 59.2935 961.942 Q58.5933 959.427 57.2247 956.945 L62.6355 956.945 Q63.7814 959.396 64.3543 962.037 Q64.9272 964.647 64.9272 967.607 Q64.9272 975.66 59.8664 980.402 Q54.8057 985.145 46.212 985.145 Q37.491 985.145 32.4939 980.371 Q27.4968 975.564 27.4968 967.225 Q27.4968 964.52 28.0697 961.942 Q28.6108 959.364 29.7248 956.945 Z" fill="#000000" fill-rule="nonzero" fill-opacity="1" /><path clip-path="url(#clip400)" d="M16.4842 953.094 L16.4842 912.894 L21.895 912.894 L21.895 929.763 L64.0042 929.763 L64.0042 936.224 L21.895 936.224 L21.895 953.094 L16.4842 953.094 Z" fill="#000000" fill-rule="nonzero" fill-opacity="1" /><path clip-path="url(#clip400)" d="M42.4881 877.31 L64.0042 877.31 L64.0042 883.166 L42.679 883.166 Q37.6183 883.166 35.1038 885.14 Q32.5894 887.113 32.5894 891.06 Q32.5894 895.802 35.6131 898.539 Q38.6368 901.277 43.8567 901.277 L64.0042 901.277 L64.0042 907.165 L28.3562 907.165 L28.3562 901.277 L33.8944 901.277 Q30.6797 899.176 29.0883 896.343 Q27.4968 893.479 27.4968 889.755 Q27.4968 883.612 31.3163 880.461 Q35.1038 877.31 42.4881 877.31 Z" fill="#000000" fill-rule="nonzero" fill-opacity="1" /><path clip-path="url(#clip400)" d="M16.4842 871.963 L16.4842 831.763 L21.895 831.763 L21.895 848.632 L64.0042 848.632 L64.0042 855.093 L21.895 855.093 L21.895 871.963 L16.4842 871.963 Z" fill="#000000" fill-rule="nonzero" fill-opacity="1" /><path clip-path="url(#clip400)" d="M14.479 805.632 L14.479 792.137 L19.0304 792.137 L19.0304 799.775 L68.0464 799.775 L68.0464 792.137 L72.5979 792.137 L72.5979 805.632 L14.479 805.632 Z" fill="#000000" fill-rule="nonzero" fill-opacity="1" /><path clip-path="url(#clip400)" d="M42.4881 750.027 L64.0042 750.027 L64.0042 755.884 L42.679 755.884 Q37.6183 755.884 35.1038 757.857 Q32.5894 759.831 32.5894 763.777 Q32.5894 768.52 35.6131 771.257 Q38.6368 773.994 43.8567 773.994 L64.0042 773.994 L64.0042 779.883 L28.3562 779.883 L28.3562 773.994 L33.8944 773.994 Q30.6797 771.894 29.0883 769.061 Q27.4968 766.196 27.4968 762.472 Q27.4968 756.33 31.3163 753.179 Q35.1038 750.027 42.4881 750.027 Z" fill="#000000" fill-rule="nonzero" fill-opacity="1" /><path clip-path="url(#clip400)" d="M45.7664 714.889 Q39.4007 714.889 35.8996 717.531 Q32.3984 720.141 32.3984 724.883 Q32.3984 729.594 35.8996 732.235 Q39.4007 734.845 45.7664 734.845 Q52.1003 734.845 55.6014 732.235 Q59.1026 729.594 59.1026 724.883 Q59.1026 720.141 55.6014 717.531 Q52.1003 714.889 45.7664 714.889 M59.58 709.032 Q68.683 709.032 73.1071 713.075 Q77.5631 717.117 77.5631 725.456 Q77.5631 728.543 77.0857 731.28 Q76.6401 734.018 75.6852 736.596 L69.9879 736.596 Q71.3884 734.018 72.0568 731.503 Q72.7252 728.989 72.7252 726.379 Q72.7252 720.618 69.7015 717.753 Q66.7096 714.889 60.6303 714.889 L57.7339 714.889 Q60.885 716.703 62.4446 719.536 Q64.0042 722.369 64.0042 726.315 Q64.0042 732.872 59.0071 736.882 Q54.01 740.893 45.7664 740.893 Q37.491 740.893 32.4939 736.882 Q27.4968 732.872 27.4968 726.315 Q27.4968 722.369 29.0564 719.536 Q30.616 716.703 33.7671 714.889 L28.3562 714.889 L28.3562 709.032 L59.58 709.032 Z" fill="#000000" fill-rule="nonzero" fill-opacity="1" /><path clip-path="url(#clip400)" d="M16.4842 686.561 L16.4842 681.151 L70.0516 697.701 L70.0516 703.112 L16.4842 686.561 Z" fill="#000000" fill-rule="nonzero" fill-opacity="1" /><path clip-path="url(#clip400)" d="M35.1993 647.253 Q31.2526 645.057 29.3747 642.001 Q27.4968 638.946 27.4968 634.808 Q27.4968 629.238 31.4117 626.215 Q35.2948 623.191 42.4881 623.191 L64.0042 623.191 L64.0042 629.079 L42.679 629.079 Q37.5546 629.079 35.072 630.893 Q32.5894 632.708 32.5894 636.431 Q32.5894 640.983 35.6131 643.625 Q38.6368 646.266 43.8567 646.266 L64.0042 646.266 L64.0042 652.155 L42.679 652.155 Q37.5228 652.155 35.072 653.969 Q32.5894 655.783 32.5894 659.571 Q32.5894 664.059 35.6449 666.7 Q38.6686 669.342 43.8567 669.342 L64.0042 669.342 L64.0042 675.23 L28.3562 675.23 L28.3562 669.342 L33.8944 669.342 Q30.616 667.337 29.0564 664.536 Q27.4968 661.735 27.4968 657.884 Q27.4968 654.001 29.4702 651.295 Q31.4436 648.558 35.1993 647.253 Z" fill="#000000" fill-rule="nonzero" fill-opacity="1" /><path clip-path="url(#clip400)" d="M16.4842 611.255 L16.4842 604.826 L58.5933 604.826 L58.5933 581.686 L64.0042 581.686 L64.0042 611.255 L16.4842 611.255 Z" fill="#000000" fill-rule="nonzero" fill-opacity="1" /><path clip-path="url(#clip400)" d="M14.479 561.507 L72.5979 561.507 L72.5979 575.002 L68.0464 575.002 L68.0464 567.395 L19.0304 567.395 L19.0304 575.002 L14.479 575.002 L14.479 561.507 Z" fill="#000000" fill-rule="nonzero" fill-opacity="1" /><path clip-path="url(#clip400)" d="M1038.31 18.8205 L1038.31 41.5461 L1048.6 41.5461 Q1054.32 41.5461 1057.43 38.5889 Q1060.55 35.6318 1060.55 30.163 Q1060.55 24.7348 1057.43 21.7777 Q1054.32 18.8205 1048.6 18.8205 L1038.31 18.8205 M1030.13 12.096 L1048.6 12.096 Q1058.77 12.096 1063.96 16.714 Q1069.18 21.2916 1069.18 30.163 Q1069.18 39.1155 1063.96 43.6931 Q1058.77 48.2706 1048.6 48.2706 L1038.31 48.2706 L1038.31 72.576 L1030.13 72.576 L1030.13 12.096 Z" fill="#000000" fill-rule="nonzero" fill-opacity="1" /><path clip-path="url(#clip400)" d="M1096.73 49.7694 Q1087.7 49.7694 1084.21 51.8354 Q1080.73 53.9013 1080.73 58.8839 Q1080.73 62.8538 1083.32 65.2034 Q1085.95 67.5124 1090.45 67.5124 Q1096.65 67.5124 1100.37 63.1374 Q1104.14 58.7219 1104.14 51.4303 L1104.14 49.7694 L1096.73 49.7694 M1111.6 46.6907 L1111.6 72.576 L1104.14 72.576 L1104.14 65.6895 Q1101.59 69.8214 1097.78 71.8063 Q1093.97 73.7508 1088.46 73.7508 Q1081.5 73.7508 1077.37 69.8619 Q1073.27 65.9325 1073.27 59.3701 Q1073.27 51.7138 1078.38 47.825 Q1083.52 43.9361 1093.69 43.9361 L1104.14 43.9361 L1104.14 43.2069 Q1104.14 38.0623 1100.74 35.2672 Q1097.38 32.4315 1091.26 32.4315 Q1087.37 32.4315 1083.68 33.3632 Q1080 34.295 1076.6 36.1584 L1076.6 29.2718 Q1080.69 27.692 1084.54 26.9223 Q1088.38 26.1121 1092.03 26.1121 Q1101.87 26.1121 1106.73 31.2163 Q1111.6 36.3204 1111.6 46.6907 Z" fill="#000000" fill-rule="nonzero" fill-opacity="1" /><path clip-path="url(#clip400)" d="M1134.32 14.324 L1134.32 27.2059 L1149.67 27.2059 L1149.67 32.9987 L1134.32 32.9987 L1134.32 57.6282 Q1134.32 63.1779 1135.82 64.7578 Q1137.36 66.3376 1142.02 66.3376 L1149.67 66.3376 L1149.67 72.576 L1142.02 72.576 Q1133.39 72.576 1130.11 69.3758 Q1126.83 66.1351 1126.83 57.6282 L1126.83 32.9987 L1121.36 32.9987 L1121.36 27.2059 L1126.83 27.2059 L1126.83 14.324 L1134.32 14.324 Z" fill="#000000" fill-rule="nonzero" fill-opacity="1" /><path clip-path="url(#clip400)" d="M1159.48 27.2059 L1166.93 27.2059 L1166.93 72.576 L1159.48 72.576 L1159.48 27.2059 M1159.48 9.54393 L1166.93 9.54393 L1166.93 18.9825 L1159.48 18.9825 L1159.48 9.54393 Z" fill="#000000" fill-rule="nonzero" fill-opacity="1" /><path clip-path="url(#clip400)" d="M1221.33 48.0275 L1221.33 51.6733 L1187.06 51.6733 Q1187.55 59.3701 1191.68 63.421 Q1195.85 67.4314 1203.27 67.4314 Q1207.56 67.4314 1211.57 66.3781 Q1215.62 65.3249 1219.59 63.2184 L1219.59 70.267 Q1215.58 71.9684 1211.37 72.8596 Q1207.16 73.7508 1202.82 73.7508 Q1191.97 73.7508 1185.61 67.4314 Q1179.29 61.1119 1179.29 50.3365 Q1179.29 39.1965 1185.28 32.6746 Q1191.32 26.1121 1201.53 26.1121 Q1210.68 26.1121 1215.99 32.0264 Q1221.33 37.9003 1221.33 48.0275 M1213.88 45.84 Q1213.8 39.7232 1210.44 36.0774 Q1207.12 32.4315 1201.61 32.4315 Q1195.37 32.4315 1191.6 35.9558 Q1187.87 39.4801 1187.31 45.8805 L1213.88 45.84 Z" fill="#000000" fill-rule="nonzero" fill-opacity="1" /><path clip-path="url(#clip400)" d="M1271.28 45.1919 L1271.28 72.576 L1263.83 72.576 L1263.83 45.4349 Q1263.83 38.994 1261.32 35.7938 Q1258.81 32.5936 1253.78 32.5936 Q1247.75 32.5936 1244.26 36.4419 Q1240.78 40.2903 1240.78 46.9338 L1240.78 72.576 L1233.28 72.576 L1233.28 27.2059 L1240.78 27.2059 L1240.78 34.2544 Q1243.45 30.163 1247.06 28.1376 Q1250.7 26.1121 1255.44 26.1121 Q1263.26 26.1121 1267.27 30.9732 Q1271.28 35.7938 1271.28 45.1919 Z" fill="#000000" fill-rule="nonzero" fill-opacity="1" /><path clip-path="url(#clip400)" d="M1293.52 14.324 L1293.52 27.2059 L1308.87 27.2059 L1308.87 32.9987 L1293.52 32.9987 L1293.52 57.6282 Q1293.52 63.1779 1295.02 64.7578 Q1296.56 66.3376 1301.22 66.3376 L1308.87 66.3376 L1308.87 72.576 L1301.22 72.576 Q1292.59 72.576 1289.31 69.3758 Q1286.03 66.1351 1286.03 57.6282 L1286.03 32.9987 L1280.56 32.9987 L1280.56 27.2059 L1286.03 27.2059 L1286.03 14.324 L1293.52 14.324 Z" fill="#000000" fill-rule="nonzero" fill-opacity="1" /><path clip-path="url(#clip400)" d="M1382.76 45.1919 L1382.76 72.576 L1375.31 72.576 L1375.31 45.4349 Q1375.31 38.994 1372.8 35.7938 Q1370.29 32.5936 1365.26 32.5936 Q1359.23 32.5936 1355.74 36.4419 Q1352.26 40.2903 1352.26 46.9338 L1352.26 72.576 L1344.77 72.576 L1344.77 27.2059 L1352.26 27.2059 L1352.26 34.2544 Q1354.93 30.163 1358.54 28.1376 Q1362.18 26.1121 1366.92 26.1121 Q1374.74 26.1121 1378.75 30.9732 Q1382.76 35.7938 1382.76 45.1919 Z" fill="#000000" fill-rule="nonzero" fill-opacity="1" /><path clip-path="url(#clip400)" d="M1400.1 65.6895 L1413.47 65.6895 L1413.47 19.5497 L1398.93 22.4663 L1398.93 15.0127 L1413.39 12.096 L1421.57 12.096 L1421.57 65.6895 L1434.94 65.6895 L1434.94 72.576 L1400.1 72.576 L1400.1 65.6895 Z" fill="#000000" fill-rule="nonzero" fill-opacity="1" /><path clip-path="url(#clip400)" d="M1468.97 43.8551 Q1463.13 43.8551 1459.77 46.9743 Q1456.45 50.0935 1456.45 55.5622 Q1456.45 61.0309 1459.77 64.1501 Q1463.13 67.2693 1468.97 67.2693 Q1474.8 67.2693 1478.16 64.1501 Q1481.52 60.9904 1481.52 55.5622 Q1481.52 50.0935 1478.16 46.9743 Q1474.84 43.8551 1468.97 43.8551 M1460.78 40.3713 Q1455.52 39.075 1452.56 35.4697 Q1449.64 31.8644 1449.64 26.6793 Q1449.64 19.4281 1454.79 15.2152 Q1459.97 11.0023 1468.97 11.0023 Q1478 11.0023 1483.14 15.2152 Q1488.29 19.4281 1488.29 26.6793 Q1488.29 31.8644 1485.33 35.4697 Q1482.42 39.075 1477.19 40.3713 Q1483.1 41.7486 1486.39 45.759 Q1489.71 49.7694 1489.71 55.5622 Q1489.71 64.3527 1484.32 69.0517 Q1478.97 73.7508 1468.97 73.7508 Q1458.96 73.7508 1453.57 69.0517 Q1448.23 64.3527 1448.23 55.5622 Q1448.23 49.7694 1451.55 45.759 Q1454.87 41.7486 1460.78 40.3713 M1457.79 27.4489 Q1457.79 32.148 1460.7 34.7811 Q1463.66 37.4142 1468.97 37.4142 Q1474.23 37.4142 1477.19 34.7811 Q1480.19 32.148 1480.19 27.4489 Q1480.19 22.7499 1477.19 20.1168 Q1474.23 17.4837 1468.97 17.4837 Q1463.66 17.4837 1460.7 20.1168 Q1457.79 22.7499 1457.79 27.4489 Z" fill="#000000" fill-rule="nonzero" fill-opacity="1" /><path clip-path="url(#clip400)" d="M1521.75 43.8551 Q1515.92 43.8551 1512.55 46.9743 Q1509.23 50.0935 1509.23 55.5622 Q1509.23 61.0309 1512.55 64.1501 Q1515.92 67.2693 1521.75 67.2693 Q1527.58 67.2693 1530.95 64.1501 Q1534.31 60.9904 1534.31 55.5622 Q1534.31 50.0935 1530.95 46.9743 Q1527.62 43.8551 1521.75 43.8551 M1513.57 40.3713 Q1508.3 39.075 1505.34 35.4697 Q1502.43 31.8644 1502.43 26.6793 Q1502.43 19.4281 1507.57 15.2152 Q1512.76 11.0023 1521.75 11.0023 Q1530.78 11.0023 1535.93 15.2152 Q1541.07 19.4281 1541.07 26.6793 Q1541.07 31.8644 1538.12 35.4697 Q1535.2 39.075 1529.97 40.3713 Q1535.89 41.7486 1539.17 45.759 Q1542.49 49.7694 1542.49 55.5622 Q1542.49 64.3527 1537.1 69.0517 Q1531.76 73.7508 1521.75 73.7508 Q1511.74 73.7508 1506.36 69.0517 Q1501.01 64.3527 1501.01 55.5622 Q1501.01 49.7694 1504.33 45.759 Q1507.65 41.7486 1513.57 40.3713 M1510.57 27.4489 Q1510.57 32.148 1513.49 34.7811 Q1516.44 37.4142 1521.75 37.4142 Q1527.02 37.4142 1529.97 34.7811 Q1532.97 32.148 1532.97 27.4489 Q1532.97 22.7499 1529.97 20.1168 Q1527.02 17.4837 1521.75 17.4837 Q1516.44 17.4837 1513.49 20.1168 Q1510.57 22.7499 1510.57 27.4489 Z" fill="#000000" fill-rule="nonzero" fill-opacity="1" /><polyline clip-path="url(#clip402)" style="stroke:#009af9; stroke-linecap:round; stroke-linejoin:round; stroke-width:8; stroke-opacity:1; fill:none" points="219.866,1386.4 222.001,1366.19 224.136,1346.26 226.271,1326.61 228.406,1307.23 230.541,1288.12 232.676,1269.28 234.811,1250.7 236.946,1232.38 239.081,1214.32 241.217,1196.52 243.352,1178.96 245.487,1161.65 247.622,1144.59 249.757,1127.77 251.892,1111.18 254.027,1094.84 256.162,1078.72 258.297,1062.84 260.432,1047.18 262.567,1031.75 264.702,1016.54 266.837,1001.55 268.972,986.778 271.107,972.218 273.242,957.87 275.377,943.73 277.512,929.797 279.647,916.067 281.782,902.539 283.917,889.209 286.052,876.076 288.187,863.136 290.322,850.388 292.457,837.83 294.592,825.458 296.727,813.271 298.862,801.266 300.997,789.441 303.132,777.795 305.267,766.324 307.402,755.026 309.537,743.9 311.672,732.943 313.807,722.154 315.942,711.53 318.077,701.069 320.212,690.769 322.347,680.628 324.482,670.645 326.617,660.816 328.753,651.142 330.888,641.618 333.023,632.244 335.158,623.018 337.293,613.938 339.428,605.002 341.563,596.208 343.698,587.555 345.833,579.041 347.968,570.664 350.103,562.423 352.238,554.315 354.373,546.34 356.508,538.495 358.643,530.779 360.778,523.19 362.913,515.727 365.048,508.388 367.183,501.172 369.318,494.077 371.453,487.101 373.588,480.244 375.723,473.503 377.858,466.877 379.993,460.365 382.128,453.965 384.263,447.676 386.398,441.496 388.533,435.425 390.668,429.46 392.803,423.601 394.938,417.845 397.073,412.193 399.208,406.642 401.343,401.191 403.478,395.839 405.613,390.585 407.748,385.428 409.883,380.366 412.018,375.398 414.154,370.523 416.289,365.74 418.424,361.047 420.559,356.444 422.694,351.929 424.829,347.502 426.964,343.161 429.099,338.905 431.234,334.732 433.369,330.643 435.504,326.635 437.639,322.709 439.774,318.862 441.909,315.093 444.044,311.403 446.179,307.789 448.314,304.25 450.449,300.787 452.584,297.397 454.719,294.081 456.854,290.836 458.989,287.662 461.124,284.558 463.259,281.523 465.394,278.557 467.529,275.658 469.664,272.825 471.799,270.058 473.934,267.355 476.069,264.717 478.204,262.142 480.339,259.629 482.474,257.178 484.609,254.787 486.744,252.457 488.879,250.185 491.014,247.972 493.149,245.817 495.284,243.719 497.419,241.677 499.554,239.69 501.69,237.758 503.825,235.881 505.96,234.056 508.095,232.284 510.23,230.564 512.365,228.895 514.5,227.277 516.635,225.709 518.77,224.189 520.905,222.719 523.04,221.296 525.175,219.92 527.31,218.591 529.445,217.308 531.58,216.07 533.715,214.877 535.85,213.727 537.985,212.622 540.12,211.559 542.255,210.539 544.39,209.56 546.525,208.623 548.66,207.726 550.795,206.869 552.93,206.051 555.065,205.273 557.2,204.533 559.335,203.831 561.47,203.166 563.605,202.537 565.74,201.945 567.875,201.389 570.01,200.868 572.145,200.382 574.28,199.931 576.415,199.513 578.55,199.129 580.685,198.777 582.82,198.458 584.955,198.172 587.091,197.917 589.226,197.693 591.361,197.5 593.496,197.337 595.631,197.204 597.766,197.101 599.901,197.026 602.036,196.98 604.171,196.963 606.306,196.973 608.441,197.011 610.576,197.075 612.711,197.166 614.846,197.284 616.981,197.427 619.116,197.595 621.251,197.789 623.386,198.007 625.521,198.25 627.656,198.516 629.791,198.806 631.926,199.119 634.061,199.455 636.196,199.813 638.331,200.194 640.466,200.596 642.601,201.02 644.736,201.465 646.871,201.93 649.006,202.416 651.141,202.922 653.276,203.448 655.411,203.993 657.546,204.557 659.681,205.14 661.816,205.742 663.951,206.362 666.086,206.999 668.221,207.655 670.356,208.327 672.491,209.017 674.627,209.723 676.762,210.445 678.897,211.184 681.032,211.939 683.167,212.71 685.302,213.495 687.437,214.297 689.572,215.113 691.707,215.943 693.842,216.789 695.977,217.648 698.112,218.521 700.247,219.408 702.382,220.309 704.517,221.222 706.652,222.149 708.787,223.089 710.922,224.041 713.057,225.005 715.192,225.982 717.327,226.97 719.462,227.97 721.597,228.981 723.732,230.004 725.867,231.037 728.002,232.082 730.137,233.137 732.272,234.202 734.407,235.277 736.542,236.362 738.677,237.457 740.812,238.562 742.947,239.676 745.082,240.799 747.217,241.93 749.352,243.071 751.487,244.22 753.622,245.377 755.757,246.543 757.892,247.716 760.028,248.898 762.163,250.086 764.298,251.282 766.433,252.486 768.568,253.696 770.703,254.913 772.838,256.137 774.973,257.368 777.108,258.604 779.243,259.847 781.378,261.096 783.513,262.351 785.648,263.611 787.783,264.877 789.918,266.148 792.053,267.424 794.188,268.705 796.323,269.991 798.458,271.282 800.593,272.577 802.728,273.877 804.863,275.181 806.998,276.489 809.133,277.801 811.268,279.117 813.403,280.436 815.538,281.759 817.673,283.086 819.808,284.416 821.943,285.749 824.078,287.086 826.213,288.425 828.348,289.768 830.483,291.113 832.618,292.46 834.753,293.811 836.888,295.163 839.023,296.518 841.158,297.875 843.293,299.234 845.428,300.595 847.564,301.958 849.699,303.323 851.834,304.689 853.969,306.057 856.104,307.426 858.239,308.796 860.374,310.167 862.509,311.54 864.644,312.913 866.779,314.287 868.914,315.662 871.049,317.037 873.184,318.413 875.319,319.789 877.454,321.166 879.589,322.543 881.724,323.92 883.859,325.296 885.994,326.673 888.129,328.049 890.264,329.426 892.399,330.801 894.534,332.176 896.669,333.551 898.804,334.925 900.939,336.297 903.074,337.669 905.209,339.04 907.344,340.41 909.479,341.779 911.614,343.146 913.749,344.512 915.884,345.877 918.019,347.24 920.154,348.601 922.289,349.96 924.424,351.318 926.559,352.674 928.694,354.027 930.829,355.379 932.965,356.728 935.1,358.075 937.235,359.42 939.37,360.762 941.505,362.102 943.64,363.439 945.775,364.774 947.91,366.105 950.045,367.434 952.18,368.76 954.315,370.083 956.45,371.402 958.585,372.719 960.72,374.033 962.855,375.343 964.99,376.65 967.125,377.954 969.26,379.254 971.395,380.551 973.53,381.844 975.665,383.134 977.8,384.42 979.935,385.702 982.07,386.981 984.205,388.256 986.34,389.526 988.475,390.793 990.61,392.056 992.745,393.315 994.88,394.57 997.015,395.821 999.15,397.068 1001.29,398.31 1003.42,399.548 1005.56,400.781 1007.69,402.011 1009.83,403.235 1011.96,404.455 1014.1,405.671 1016.23,406.882 1018.37,408.088 1020.5,409.29 1022.64,410.486 1024.77,411.678 1026.91,412.865 1029.04,414.047 1031.18,415.224 1033.31,416.396 1035.45,417.563 1037.58,418.724 1039.72,419.881 1041.85,421.032 1043.99,422.177 1046.12,423.318 1048.26,424.453 1050.39,425.582 1052.53,426.707 1054.66,427.825 1056.8,428.938 1058.93,430.045 1061.07,431.147 1063.2,432.242 1065.34,433.332 1067.47,434.416 1069.61,435.495 1071.74,436.567 1073.88,437.633 1076.01,438.693 1078.15,439.747 1080.28,440.795 1082.42,441.837 1084.55,442.873 1086.69,443.902 1088.82,444.925 1090.96,445.942 1093.09,446.952 1095.23,447.956 1097.36,448.953 1099.5,449.944 1101.63,450.928 1103.77,451.905 1105.9,452.876 1108.04,453.84 1110.17,454.798 1112.31,455.748 1114.44,456.692 1116.58,457.629 1118.71,458.559 1120.85,459.482 1122.98,460.398 1125.12,461.307 1127.25,462.209 1129.39,463.104 1131.52,463.991 1133.66,464.872 1135.79,465.746 1137.93,466.612 1140.06,467.471 1142.2,468.323 1144.33,469.168 1146.47,470.006 1148.6,470.836 1150.74,471.659 1152.87,472.475 1155.01,473.283 1157.14,474.084 1159.28,474.878 1161.41,475.665 1163.55,476.444 1165.68,477.215 1167.82,477.98 1169.95,478.736 1172.09,479.486 1174.22,480.228 1176.36,480.962 1178.49,481.689 1180.63,482.408 1182.76,483.12 1184.9,483.824 1187.03,484.521 1189.17,485.21 1191.3,485.891 1193.44,486.565 1195.57,487.231 1197.71,487.89 1199.84,488.54 1201.98,489.183 1204.11,489.819 1206.25,490.446 1208.38,491.066 1210.52,491.678 1212.65,492.283 1214.79,492.879 1216.92,493.468 1219.06,494.049 1221.19,494.622 1223.33,495.187 1225.46,495.744 1227.6,496.294 1229.73,496.835 1231.87,497.369 1234,497.895 1236.14,498.413 1238.27,498.922 1240.41,499.424 1242.54,499.918 1244.68,500.404 1246.81,500.882 1248.95,501.351 1251.08,501.813 1253.22,502.267 1255.35,502.713 1257.49,503.15 1259.62,503.58 1261.76,504.001 1263.89,504.414 1266.03,504.82 1268.16,505.217 1270.3,505.606 1272.43,505.986 1274.57,506.359 1276.7,506.723 1278.84,507.079 1280.97,507.427 1283.11,507.767 1285.24,508.099 1287.38,508.422 1289.51,508.737 1291.65,509.044 1293.78,509.342 1295.92,509.632 1298.05,509.914 1300.19,510.188 1302.32,510.453 1304.46,510.71 1306.59,510.959 1308.73,511.199 1310.86,511.431 1313,511.655 1315.13,511.87 1317.27,512.077 1319.4,512.276 1321.54,512.466 1323.67,512.648 1325.81,512.821 1327.94,512.986 1330.08,513.143 1332.21,513.292 1334.35,513.432 1336.48,513.564 1338.62,513.688 1340.75,513.803 1342.89,513.911 1345.02,514.01 1347.16,514.101 1349.29,514.184 1351.43,514.259 1353.56,514.325 1355.7,514.384 1357.83,514.435 1359.97,514.477 1362.1,514.512 1364.24,514.538 1366.37,514.557 1368.51,514.568 1370.64,514.57 1372.78,514.565 1374.91,514.552 1377.05,514.531 1379.18,514.502 1381.32,514.466 1383.45,514.421 1385.59,514.369 1387.72,514.309 1389.86,514.241 1391.99,514.165 1394.13,514.082 1396.26,513.991 1398.4,513.893 1400.53,513.786 1402.67,513.673 1404.8,513.551 1406.94,513.422 1409.08,513.286 1411.21,513.142 1413.35,512.99 1415.48,512.831 1417.62,512.664 1419.75,512.49 1421.89,512.309 1424.02,512.12 1426.16,511.924 1428.29,511.72 1430.43,511.509 1432.56,511.291 1434.7,511.065 1436.83,510.833 1438.97,510.593 1441.1,510.345 1443.24,510.091 1445.37,509.829 1447.51,509.56 1449.64,509.285 1451.78,509.002 1453.91,508.711 1456.05,508.414 1458.18,508.11 1460.32,507.799 1462.45,507.481 1464.59,507.156 1466.72,506.824 1468.86,506.485 1470.99,506.139 1473.13,505.786 1475.26,505.426 1477.4,505.06 1479.53,504.687 1481.67,504.307 1483.8,503.92 1485.94,503.527 1488.07,503.127 1490.21,502.72 1492.34,502.306 1494.48,501.886 1496.61,501.46 1498.75,501.026 1500.88,500.587 1503.02,500.14 1505.15,499.688 1507.29,499.228 1509.42,498.763 1511.56,498.291 1513.69,497.812 1515.83,497.327 1517.96,496.836 1520.1,496.339 1522.23,495.835 1524.37,495.325 1526.5,494.808 1528.64,494.286 1530.77,493.757 1532.91,493.223 1535.04,492.682 1537.18,492.135 1539.31,491.582 1541.45,491.024 1543.58,490.459 1545.72,489.889 1547.85,489.313 1549.99,488.732 1552.12,488.145 1554.26,487.552 1556.39,486.954 1558.53,486.351 1560.66,485.742 1562.8,485.128 1564.93,484.509 1567.07,483.884 1569.2,483.254 1571.34,482.62 1573.47,481.98 1575.61,481.335 1577.74,480.686 1579.88,480.031 1582.01,479.372 1584.15,478.708 1586.28,478.039 1588.42,477.366 1590.55,476.688 1592.69,476.006 1594.82,475.319 1596.96,474.628 1599.09,473.932 1601.23,473.233 1603.36,472.528 1605.5,471.82 1607.63,471.108 1609.77,470.391 1611.9,469.671 1614.04,468.946 1616.17,468.218 1618.31,467.486 1620.44,466.75 1622.58,466.01 1624.71,465.266 1626.85,464.519 1628.98,463.769 1631.12,463.014 1633.25,462.256 1635.39,461.495 1637.52,460.731 1639.66,459.963 1641.79,459.192 1643.93,458.417 1646.06,457.64 1648.2,456.859 1650.33,456.075 1652.47,455.289 1654.6,454.499 1656.74,453.707 1658.87,452.911 1661.01,452.113 1663.14,451.312 1665.28,450.508 1667.41,449.702 1669.55,448.893 1671.68,448.082 1673.82,447.268 1675.95,446.451 1678.09,445.633 1680.22,444.812 1682.36,443.988 1684.49,443.163 1686.63,442.335 1688.76,441.505 1690.9,440.673 1693.03,439.839 1695.17,439.003 1697.3,438.165 1699.44,437.325 1701.57,436.484 1703.71,435.64 1705.84,434.795 1707.98,433.948 1710.11,433.1 1712.25,432.25 1714.38,431.399 1716.52,430.546 1718.65,429.691 1720.79,428.835 1722.92,427.978 1725.06,427.12 1727.19,426.26 1729.33,425.399 1731.46,424.537 1733.6,423.674 1735.73,422.81 1737.87,421.945 1740,421.079 1742.14,420.212 1744.27,419.345 1746.41,418.476 1748.54,417.607 1750.68,416.737 1752.81,415.866 1754.95,414.995 1757.08,414.123 1759.22,413.251 1761.35,412.379 1763.49,411.508 1765.62,410.637 1767.76,409.767 1769.89,408.897 1772.03,408.028 1774.16,407.159 1776.3,406.292 1778.43,405.425 1780.57,404.558 1782.7,403.692 1784.84,402.828 1786.97,401.963 1789.11,401.1 1791.24,400.237 1793.38,399.376 1795.51,398.515 1797.65,397.655 1799.78,396.796 1801.92,395.938 1804.05,395.081 1806.19,394.225 1808.32,393.37 1810.46,392.516 1812.59,391.663 1814.73,390.812 1816.86,389.961 1819,389.112 1821.13,388.264 1823.27,387.417 1825.4,386.572 1827.54,385.728 1829.67,384.885 1831.81,384.044 1833.94,383.204 1836.08,382.365 1838.21,381.529 1840.35,380.693 1842.49,379.859 1844.62,379.027 1846.76,378.197 1848.89,377.368 1851.03,376.541 1853.16,375.716 1855.3,374.892 1857.43,374.071 1859.57,373.251 1861.7,372.433 1863.84,371.618 1865.97,370.804 1868.11,369.992 1870.24,369.183 1872.38,368.375 1874.51,367.57 1876.65,366.767 1878.78,365.966 1880.92,365.168 1883.05,364.372 1885.19,363.579 1887.32,362.788 1889.46,361.999 1891.59,361.213 1893.73,360.43 1895.86,359.649 1898,358.871 1900.13,358.096 1902.27,357.324 1904.4,356.554 1906.54,355.788 1908.67,355.024 1910.81,354.264 1912.94,353.506 1915.08,352.752 1917.21,352.001 1919.35,351.253 1921.48,350.508 1923.62,349.767 1925.75,349.029 1927.89,348.295 1930.02,347.564 1932.16,346.837 1934.29,346.113 1936.43,345.393 1938.56,344.677 1940.7,343.964 1942.83,343.256 1944.97,342.551 1947.1,341.85 1949.24,341.154 1951.37,340.461 1953.51,339.773 1955.64,339.089 1957.78,338.409 1959.91,337.734 1962.05,337.063 1964.18,336.396 1966.32,335.734 1968.45,335.077 1970.59,334.424 1972.72,333.776 1974.86,333.133 1976.99,332.494 1979.13,331.861 1981.26,331.233 1983.4,330.61 1985.53,329.992 1987.67,329.379 1989.8,328.771 1991.94,328.169 1994.07,327.572 1996.21,326.981 1998.34,326.395 2000.48,325.815 2002.61,325.241 2004.75,324.672 2006.88,324.11 2009.02,323.553 2011.15,323.002 2013.29,322.458 2015.42,321.921 2017.56,321.391 2019.69,320.868 2021.83,320.352 2023.96,319.842 2026.1,319.338 2028.23,318.841 2030.37,318.35 2032.5,317.866 2034.64,317.387 2036.77,316.915 2038.91,316.448 2041.04,315.988 2043.18,315.533 2045.31,315.084 2047.45,314.64 2049.58,314.202 2051.72,313.77 2053.85,313.343 2055.99,312.921 2058.12,312.505 2060.26,312.093 2062.39,311.687 2064.53,311.286 2066.66,310.89 2068.8,310.499 2070.93,310.113 2073.07,309.732 2075.2,309.356 2077.34,308.985 2079.47,308.618 2081.61,308.256 2083.74,307.899 2085.88,307.546 2088.01,307.199 2090.15,306.855 2092.28,306.517 2094.42,306.182 2096.55,305.853 2098.69,305.528 2100.82,305.207 2102.96,304.891 2105.09,304.579 2107.23,304.272 2109.36,303.969 2111.5,303.671 2113.63,303.377 2115.77,303.087 2117.9,302.802 2120.04,302.522 2122.17,302.246 2124.31,301.974 2126.44,301.707 2128.58,301.444 2130.71,301.186 2132.85,300.932 2134.98,300.683 2137.12,300.438 2139.25,300.198 2141.39,299.962 2143.52,299.732 2145.66,299.505 2147.79,299.284 2149.93,299.067 2152.06,298.855 2154.2,298.648 2156.33,298.445 2158.47,298.248 2160.6,298.056 2162.74,297.868 2164.87,297.686 2167.01,297.508 2169.14,297.336 2171.28,297.169 2173.41,297.007 2175.55,296.851 2177.68,296.7 2179.82,296.555 2181.95,296.415 2184.09,296.28 2186.22,296.152 2188.36,296.029 2190.49,295.912 2192.63,295.801 2194.76,295.696 2196.9,295.597 2199.03,295.504 2201.17,295.418 2203.3,295.338 2205.44,295.264 2207.57,295.197 2209.71,295.137 2211.84,295.083 2213.98,295.037 2216.11,294.997 2218.25,294.965 2220.38,294.939 2222.52,294.921 2224.65,294.911 2226.79,294.908 2228.92,294.912 2231.06,294.925 2233.19,294.945 2235.33,294.974 2237.46,295.011 2239.6,295.056 2241.73,295.109 2243.87,295.17 2246,295.235 2248.14,295.306 2250.27,295.382 2252.41,295.464 2254.54,295.55 2256.68,295.642 2258.81,295.739 2260.95,295.841 2263.08,295.948 2265.22,296.06 2267.35,296.177 2269.49,296.299 2271.62,296.426 2273.76,296.558 2275.9,296.695 2278.03,296.837 2280.17,296.984 2282.3,297.136 2284.44,297.293 2286.57,297.455 2288.71,297.621 2290.84,297.793 2292.98,297.969 2295.11,298.15 2297.25,298.336 2299.38,298.527 2301.52,298.722 2303.65,298.922 2305.79,299.127 2307.92,299.337 2310.06,299.552 2312.19,299.771 2314.33,299.995 2316.46,300.223 2318.6,300.456 2320.73,300.694 2322.87,300.937 2325,301.184 2327.14,301.436 2329.27,301.692 2331.41,301.953 2333.54,302.219 2335.68,302.489 2337.81,302.764 2339.95,303.043 2342.08,303.327 2344.22,303.615 2346.35,303.908 2348.49,304.206 2350.62,304.508 2352.76,304.815 "/>
<circle clip-path="url(#clip402)" cx="417.272" cy="379.671" r="18" fill="#e26f46" fill-rule="evenodd" fill-opacity="1" stroke="#000000" stroke-opacity="1" stroke-width="3.2"/>
<circle clip-path="url(#clip402)" cx="580.315" cy="160.256" r="18" fill="#e26f46" fill-rule="evenodd" fill-opacity="1" stroke="#000000" stroke-opacity="1" stroke-width="3.2"/>
<circle clip-path="url(#clip402)" cx="845.042" cy="340.951" r="18" fill="#e26f46" fill-rule="evenodd" fill-opacity="1" stroke="#000000" stroke-opacity="1" stroke-width="3.2"/>
<circle clip-path="url(#clip402)" cx="1012.64" cy="366.764" r="18" fill="#e26f46" fill-rule="evenodd" fill-opacity="1" stroke="#000000" stroke-opacity="1" stroke-width="3.2"/>
<circle clip-path="url(#clip402)" cx="1182" cy="495.831" r="18" fill="#e26f46" fill-rule="evenodd" fill-opacity="1" stroke="#000000" stroke-opacity="1" stroke-width="3.2"/>
<circle clip-path="url(#clip402)" cx="1695.32" cy="457.111" r="18" fill="#e26f46" fill-rule="evenodd" fill-opacity="1" stroke="#000000" stroke-opacity="1" stroke-width="3.2"/>
<circle clip-path="url(#clip402)" cx="1924.99" cy="315.137" r="18" fill="#e26f46" fill-rule="evenodd" fill-opacity="1" stroke="#000000" stroke-opacity="1" stroke-width="3.2"/>
<circle clip-path="url(#clip402)" cx="2142.38" cy="315.137" r="18" fill="#e26f46" fill-rule="evenodd" fill-opacity="1" stroke="#000000" stroke-opacity="1" stroke-width="3.2"/>
<path clip-path="url(#clip400)" d="M1719 1379.86 L2281.66 1379.86 L2281.66 1224.34 L1719 1224.34  Z" fill="#ffffff" fill-rule="evenodd" fill-opacity="1"/>
<polyline clip-path="url(#clip400)" style="stroke:#000000; stroke-linecap:round; stroke-linejoin:round; stroke-width:4; stroke-opacity:1; fill:none" points="1719,1379.86 2281.66,1379.86 2281.66,1224.34 1719,1224.34 1719,1379.86 "/>
<polyline clip-path="url(#clip400)" style="stroke:#009af9; stroke-linecap:round; stroke-linejoin:round; stroke-width:8; stroke-opacity:1; fill:none" points="1742.7,1276.18 1884.89,1276.18 "/>
<path clip-path="url(#clip400)" d="M1913.26 1276.95 L1913.26 1289.61 L1920.76 1289.61 Q1924.54 1289.61 1926.34 1288.06 Q1928.17 1286.49 1928.17 1283.27 Q1928.17 1280.03 1926.34 1278.5 Q1924.54 1276.95 1920.76 1276.95 L1913.26 1276.95 M1913.26 1262.74 L1913.26 1273.16 L1920.18 1273.16 Q1923.61 1273.16 1925.28 1271.88 Q1926.97 1270.59 1926.97 1267.95 Q1926.97 1265.33 1925.28 1264.04 Q1923.61 1262.74 1920.18 1262.74 L1913.26 1262.74 M1908.59 1258.9 L1920.53 1258.9 Q1925.88 1258.9 1928.77 1261.12 Q1931.67 1263.34 1931.67 1267.44 Q1931.67 1270.61 1930.18 1272.48 Q1928.7 1274.36 1925.83 1274.82 Q1929.28 1275.56 1931.18 1277.92 Q1933.1 1280.26 1933.1 1283.78 Q1933.1 1288.41 1929.95 1290.93 Q1926.81 1293.46 1921 1293.46 L1908.59 1293.46 L1908.59 1258.9 Z" fill="#000000" fill-rule="nonzero" fill-opacity="1" /><path clip-path="url(#clip400)" d="M1940.93 1257.44 L1945.18 1257.44 L1945.18 1293.46 L1940.93 1293.46 L1940.93 1257.44 Z" fill="#000000" fill-rule="nonzero" fill-opacity="1" /><path clip-path="url(#clip400)" d="M1964.14 1270.52 Q1960.72 1270.52 1958.73 1273.2 Q1956.74 1275.86 1956.74 1280.52 Q1956.74 1285.17 1958.7 1287.85 Q1960.69 1290.52 1964.14 1290.52 Q1967.55 1290.52 1969.54 1287.83 Q1971.53 1285.15 1971.53 1280.52 Q1971.53 1275.91 1969.54 1273.22 Q1967.55 1270.52 1964.14 1270.52 M1964.14 1266.91 Q1969.7 1266.91 1972.87 1270.52 Q1976.04 1274.13 1976.04 1280.52 Q1976.04 1286.88 1972.87 1290.52 Q1969.7 1294.13 1964.14 1294.13 Q1958.56 1294.13 1955.39 1290.52 Q1952.24 1286.88 1952.24 1280.52 Q1952.24 1274.13 1955.39 1270.52 Q1958.56 1266.91 1964.14 1266.91 Z" fill="#000000" fill-rule="nonzero" fill-opacity="1" /><path clip-path="url(#clip400)" d="M1993.15 1270.52 Q1989.72 1270.52 1987.73 1273.2 Q1985.74 1275.86 1985.74 1280.52 Q1985.74 1285.17 1987.71 1287.85 Q1989.7 1290.52 1993.15 1290.52 Q1996.55 1290.52 1998.54 1287.83 Q2000.53 1285.15 2000.53 1280.52 Q2000.53 1275.91 1998.54 1273.22 Q1996.55 1270.52 1993.15 1270.52 M1993.15 1266.91 Q1998.7 1266.91 2001.87 1270.52 Q2005.05 1274.13 2005.05 1280.52 Q2005.05 1286.88 2001.87 1290.52 Q1998.7 1294.13 1993.15 1294.13 Q1987.57 1294.13 1984.4 1290.52 Q1981.25 1286.88 1981.25 1280.52 Q1981.25 1274.13 1984.4 1270.52 Q1987.57 1266.91 1993.15 1266.91 Z" fill="#000000" fill-rule="nonzero" fill-opacity="1" /><path clip-path="url(#clip400)" d="M2029.17 1271.47 L2029.17 1257.44 L2033.42 1257.44 L2033.42 1293.46 L2029.17 1293.46 L2029.17 1289.57 Q2027.82 1291.88 2025.76 1293.02 Q2023.73 1294.13 2020.86 1294.13 Q2016.16 1294.13 2013.19 1290.38 Q2010.25 1286.63 2010.25 1280.52 Q2010.25 1274.41 2013.19 1270.66 Q2016.16 1266.91 2020.86 1266.91 Q2023.73 1266.91 2025.76 1268.04 Q2027.82 1269.15 2029.17 1271.47 M2014.65 1280.52 Q2014.65 1285.22 2016.57 1287.9 Q2018.52 1290.56 2021.9 1290.56 Q2025.28 1290.56 2027.22 1287.9 Q2029.17 1285.22 2029.17 1280.52 Q2029.17 1275.82 2027.22 1273.16 Q2025.28 1270.47 2021.9 1270.47 Q2018.52 1270.47 2016.57 1273.16 Q2014.65 1275.82 2014.65 1280.52 Z" fill="#000000" fill-rule="nonzero" fill-opacity="1" /><circle clip-path="url(#clip400)" cx="1813.79" cy="1328.02" r="20.9455" fill="#e26f46" fill-rule="evenodd" fill-opacity="1" stroke="#000000" stroke-opacity="1" stroke-width="3.72364"/>
<path clip-path="url(#clip400)" d="M1924.61 1313.91 Q1919.51 1313.91 1916.5 1317.7 Q1913.52 1321.5 1913.52 1328.05 Q1913.52 1334.58 1916.5 1338.37 Q1919.51 1342.17 1924.61 1342.17 Q1929.7 1342.17 1932.66 1338.37 Q1935.65 1334.58 1935.65 1328.05 Q1935.65 1321.5 1932.66 1317.7 Q1929.7 1313.91 1924.61 1313.91 M1924.61 1310.11 Q1931.87 1310.11 1936.23 1315 Q1940.58 1319.86 1940.58 1328.05 Q1940.58 1336.22 1936.23 1341.11 Q1931.87 1345.97 1924.61 1345.97 Q1917.31 1345.97 1912.94 1341.11 Q1908.59 1336.25 1908.59 1328.05 Q1908.59 1319.86 1912.94 1315 Q1917.31 1310.11 1924.61 1310.11 Z" fill="#000000" fill-rule="nonzero" fill-opacity="1" /><path clip-path="url(#clip400)" d="M1966.32 1332.36 Q1966.32 1327.66 1964.37 1325 Q1962.45 1322.31 1959.07 1322.31 Q1955.69 1322.31 1953.75 1325 Q1951.83 1327.66 1951.83 1332.36 Q1951.83 1337.06 1953.75 1339.74 Q1955.69 1342.4 1959.07 1342.4 Q1962.45 1342.4 1964.37 1339.74 Q1966.32 1337.06 1966.32 1332.36 M1951.83 1323.31 Q1953.17 1320.99 1955.21 1319.88 Q1957.27 1318.75 1960.12 1318.75 Q1964.84 1318.75 1967.78 1322.5 Q1970.74 1326.25 1970.74 1332.36 Q1970.74 1338.47 1967.78 1342.22 Q1964.84 1345.97 1960.12 1345.97 Q1957.27 1345.97 1955.21 1344.86 Q1953.17 1343.72 1951.83 1341.41 L1951.83 1345.3 L1947.55 1345.3 L1947.55 1309.28 L1951.83 1309.28 L1951.83 1323.31 Z" fill="#000000" fill-rule="nonzero" fill-opacity="1" /><path clip-path="url(#clip400)" d="M1994.33 1320.13 L1994.33 1324.16 Q1992.52 1323.24 1990.58 1322.77 Q1988.63 1322.31 1986.55 1322.31 Q1983.38 1322.31 1981.78 1323.28 Q1980.21 1324.25 1980.21 1326.2 Q1980.21 1327.68 1981.34 1328.54 Q1982.48 1329.37 1985.9 1330.13 L1987.36 1330.46 Q1991.9 1331.43 1993.8 1333.21 Q1995.72 1334.97 1995.72 1338.14 Q1995.72 1341.75 1992.85 1343.86 Q1990 1345.97 1985 1345.97 Q1982.92 1345.97 1980.65 1345.55 Q1978.4 1345.16 1975.9 1344.35 L1975.9 1339.95 Q1978.26 1341.18 1980.55 1341.8 Q1982.85 1342.4 1985.09 1342.4 Q1988.1 1342.4 1989.72 1341.38 Q1991.34 1340.34 1991.34 1338.47 Q1991.34 1336.73 1990.16 1335.81 Q1989 1334.88 1985.05 1334.02 L1983.56 1333.68 Q1979.61 1332.84 1977.85 1331.13 Q1976.09 1329.39 1976.09 1326.38 Q1976.09 1322.73 1978.68 1320.74 Q1981.27 1318.75 1986.04 1318.75 Q1988.4 1318.75 1990.49 1319.09 Q1992.57 1319.44 1994.33 1320.13 Z" fill="#000000" fill-rule="nonzero" fill-opacity="1" /><path clip-path="url(#clip400)" d="M2024.68 1331.27 L2024.68 1333.35 L2005.09 1333.35 Q2005.37 1337.75 2007.73 1340.06 Q2010.11 1342.36 2014.35 1342.36 Q2016.8 1342.36 2019.1 1341.75 Q2021.41 1341.15 2023.68 1339.95 L2023.68 1343.98 Q2021.39 1344.95 2018.98 1345.46 Q2016.57 1345.97 2014.1 1345.97 Q2007.89 1345.97 2004.26 1342.36 Q2000.65 1338.75 2000.65 1332.59 Q2000.65 1326.22 2004.07 1322.5 Q2007.52 1318.75 2013.36 1318.75 Q2018.59 1318.75 2021.62 1322.13 Q2024.68 1325.48 2024.68 1331.27 M2020.42 1330.02 Q2020.37 1326.52 2018.45 1324.44 Q2016.55 1322.36 2013.4 1322.36 Q2009.84 1322.36 2007.68 1324.37 Q2005.55 1326.38 2005.23 1330.04 L2020.42 1330.02 Z" fill="#000000" fill-rule="nonzero" fill-opacity="1" /><path clip-path="url(#clip400)" d="M2046.69 1323.35 Q2045.97 1322.94 2045.11 1322.75 Q2044.28 1322.54 2043.26 1322.54 Q2039.65 1322.54 2037.71 1324.9 Q2035.79 1327.24 2035.79 1331.64 L2035.79 1345.3 L2031.5 1345.3 L2031.5 1319.37 L2035.79 1319.37 L2035.79 1323.4 Q2037.13 1321.04 2039.28 1319.9 Q2041.43 1318.75 2044.51 1318.75 Q2044.95 1318.75 2045.49 1318.81 Q2046.02 1318.86 2046.67 1318.98 L2046.69 1323.35 Z" fill="#000000" fill-rule="nonzero" fill-opacity="1" /><path clip-path="url(#clip400)" d="M2048.1 1319.37 L2052.61 1319.37 L2060.72 1341.13 L2068.82 1319.37 L2073.33 1319.37 L2063.61 1345.3 L2057.82 1345.3 L2048.1 1319.37 Z" fill="#000000" fill-rule="nonzero" fill-opacity="1" /><path clip-path="url(#clip400)" d="M2101.39 1331.27 L2101.39 1333.35 L2081.8 1333.35 Q2082.08 1337.75 2084.44 1340.06 Q2086.83 1342.36 2091.06 1342.36 Q2093.52 1342.36 2095.81 1341.75 Q2098.12 1341.15 2100.39 1339.95 L2100.39 1343.98 Q2098.1 1344.95 2095.69 1345.46 Q2093.29 1345.97 2090.81 1345.97 Q2084.61 1345.97 2080.97 1342.36 Q2077.36 1338.75 2077.36 1332.59 Q2077.36 1326.22 2080.79 1322.5 Q2084.23 1318.75 2090.07 1318.75 Q2095.3 1318.75 2098.33 1322.13 Q2101.39 1325.48 2101.39 1331.27 M2097.13 1330.02 Q2097.08 1326.52 2095.16 1324.44 Q2093.26 1322.36 2090.11 1322.36 Q2086.55 1322.36 2084.4 1324.37 Q2082.27 1326.38 2081.94 1330.04 L2097.13 1330.02 Z" fill="#000000" fill-rule="nonzero" fill-opacity="1" /><path clip-path="url(#clip400)" d="M2125.44 1323.31 L2125.44 1309.28 L2129.7 1309.28 L2129.7 1345.3 L2125.44 1345.3 L2125.44 1341.41 Q2124.1 1343.72 2122.04 1344.86 Q2120 1345.97 2117.13 1345.97 Q2112.43 1345.97 2109.47 1342.22 Q2106.53 1338.47 2106.53 1332.36 Q2106.53 1326.25 2109.47 1322.5 Q2112.43 1318.75 2117.13 1318.75 Q2120 1318.75 2122.04 1319.88 Q2124.1 1320.99 2125.44 1323.31 M2110.92 1332.36 Q2110.92 1337.06 2112.85 1339.74 Q2114.79 1342.4 2118.17 1342.4 Q2121.55 1342.4 2123.49 1339.74 Q2125.44 1337.06 2125.44 1332.36 Q2125.44 1327.66 2123.49 1325 Q2121.55 1322.31 2118.17 1322.31 Q2114.79 1322.31 2112.85 1325 Q2110.92 1327.66 2110.92 1332.36 Z" fill="#000000" fill-rule="nonzero" fill-opacity="1" /><path clip-path="url(#clip400)" d="M2158.4 1314.58 L2158.4 1341.45 L2164.05 1341.45 Q2171.2 1341.45 2174.51 1338.21 Q2177.85 1334.97 2177.85 1327.98 Q2177.85 1321.04 2174.51 1317.82 Q2171.2 1314.58 2164.05 1314.58 L2158.4 1314.58 M2153.73 1310.74 L2163.33 1310.74 Q2173.38 1310.74 2178.08 1314.93 Q2182.78 1319.09 2182.78 1327.98 Q2182.78 1336.92 2178.05 1341.11 Q2173.33 1345.3 2163.33 1345.3 L2153.73 1345.3 L2153.73 1310.74 Z" fill="#000000" fill-rule="nonzero" fill-opacity="1" /><path clip-path="url(#clip400)" d="M2201.83 1332.26 Q2196.66 1332.26 2194.67 1333.44 Q2192.68 1334.63 2192.68 1337.47 Q2192.68 1339.74 2194.16 1341.08 Q2195.67 1342.4 2198.24 1342.4 Q2201.78 1342.4 2203.91 1339.9 Q2206.06 1337.38 2206.06 1333.21 L2206.06 1332.26 L2201.83 1332.26 M2210.32 1330.5 L2210.32 1345.3 L2206.06 1345.3 L2206.06 1341.36 Q2204.6 1343.72 2202.43 1344.86 Q2200.25 1345.97 2197.1 1345.97 Q2193.12 1345.97 2190.76 1343.75 Q2188.42 1341.5 2188.42 1337.75 Q2188.42 1333.38 2191.34 1331.15 Q2194.28 1328.93 2200.09 1328.93 L2206.06 1328.93 L2206.06 1328.51 Q2206.06 1325.57 2204.12 1323.98 Q2202.2 1322.36 2198.7 1322.36 Q2196.48 1322.36 2194.37 1322.89 Q2192.27 1323.42 2190.32 1324.49 L2190.32 1320.55 Q2192.66 1319.65 2194.86 1319.21 Q2197.06 1318.75 2199.14 1318.75 Q2204.77 1318.75 2207.54 1321.66 Q2210.32 1324.58 2210.32 1330.5 Z" fill="#000000" fill-rule="nonzero" fill-opacity="1" /><path clip-path="url(#clip400)" d="M2223.31 1312.01 L2223.31 1319.37 L2232.08 1319.37 L2232.08 1322.68 L2223.31 1322.68 L2223.31 1336.75 Q2223.31 1339.93 2224.16 1340.83 Q2225.04 1341.73 2227.71 1341.73 L2232.08 1341.73 L2232.08 1345.3 L2227.71 1345.3 Q2222.78 1345.3 2220.9 1343.47 Q2219.03 1341.62 2219.03 1336.75 L2219.03 1322.68 L2215.9 1322.68 L2215.9 1319.37 L2219.03 1319.37 L2219.03 1312.01 L2223.31 1312.01 Z" fill="#000000" fill-rule="nonzero" fill-opacity="1" /><path clip-path="url(#clip400)" d="M2249.47 1332.26 Q2244.3 1332.26 2242.31 1333.44 Q2240.32 1334.63 2240.32 1337.47 Q2240.32 1339.74 2241.8 1341.08 Q2243.31 1342.4 2245.88 1342.4 Q2249.42 1342.4 2251.55 1339.9 Q2253.7 1337.38 2253.7 1333.21 L2253.7 1332.26 L2249.47 1332.26 M2257.96 1330.5 L2257.96 1345.3 L2253.7 1345.3 L2253.7 1341.36 Q2252.24 1343.72 2250.07 1344.86 Q2247.89 1345.97 2244.74 1345.97 Q2240.76 1345.97 2238.4 1343.75 Q2236.06 1341.5 2236.06 1337.75 Q2236.06 1333.38 2238.98 1331.15 Q2241.92 1328.93 2247.73 1328.93 L2253.7 1328.93 L2253.7 1328.51 Q2253.7 1325.57 2251.76 1323.98 Q2249.84 1322.36 2246.34 1322.36 Q2244.12 1322.36 2242.01 1322.89 Q2239.91 1323.42 2237.96 1324.49 L2237.96 1320.55 Q2240.3 1319.65 2242.5 1319.21 Q2244.7 1318.75 2246.78 1318.75 Q2252.41 1318.75 2255.18 1321.66 Q2257.96 1324.58 2257.96 1330.5 Z" fill="#000000" fill-rule="nonzero" fill-opacity="1" /></svg>
