<?xml version="1.0" encoding="utf-8"?>
<svg xmlns="http://www.w3.org/2000/svg" xmlns:xlink="http://www.w3.org/1999/xlink" width="600" height="400" viewBox="0 0 2400 1600">
<defs>
  <clipPath id="clip310">
    <rect x="0" y="0" width="2400" height="1600"/>
  </clipPath>
</defs>
<path clip-path="url(#clip310)" d="M0 1600 L2400 1600 L2400 0 L0 0  Z" fill="#ffffff" fill-rule="evenodd" fill-opacity="1"/>
<defs>
  <clipPath id="clip311">
    <rect x="219" y="123" width="2134" height="1301"/>
  </clipPath>
</defs>
<path clip-path="url(#clip310)" d="M174.149 1423.18 L2352.76 1423.18 L2352.76 123.472 L174.149 123.472  Z" fill="#ffffff" fill-rule="evenodd" fill-opacity="1"/>
<defs>
  <clipPath id="clip312">
    <rect x="174" y="123" width="2180" height="1301"/>
  </clipPath>
</defs>
<polyline clip-path="url(#clip312)" style="stroke:#000000; stroke-linecap:round; stroke-linejoin:round; stroke-width:2; stroke-opacity:0.1; fill:none" points="174.149,1423.18 174.149,123.472 "/>
<polyline clip-path="url(#clip312)" style="stroke:#000000; stroke-linecap:round; stroke-linejoin:round; stroke-width:2; stroke-opacity:0.1; fill:none" points="707.772,1423.18 707.772,123.472 "/>
<polyline clip-path="url(#clip312)" style="stroke:#000000; stroke-linecap:round; stroke-linejoin:round; stroke-width:2; stroke-opacity:0.1; fill:none" points="1241.4,1423.18 1241.4,123.472 "/>
<polyline clip-path="url(#clip312)" style="stroke:#000000; stroke-linecap:round; stroke-linejoin:round; stroke-width:2; stroke-opacity:0.1; fill:none" points="1775.02,1423.18 1775.02,123.472 "/>
<polyline clip-path="url(#clip312)" style="stroke:#000000; stroke-linecap:round; stroke-linejoin:round; stroke-width:2; stroke-opacity:0.1; fill:none" points="2308.64,1423.18 2308.64,123.472 "/>
<polyline clip-path="url(#clip312)" style="stroke:#000000; stroke-linecap:round; stroke-linejoin:round; stroke-width:2; stroke-opacity:0.1; fill:none" points="174.149,1386.4 2352.76,1386.4 "/>
<polyline clip-path="url(#clip312)" style="stroke:#000000; stroke-linecap:round; stroke-linejoin:round; stroke-width:2; stroke-opacity:0.1; fill:none" points="174.149,971.57 2352.76,971.57 "/>
<polyline clip-path="url(#clip312)" style="stroke:#000000; stroke-linecap:round; stroke-linejoin:round; stroke-width:2; stroke-opacity:0.1; fill:none" points="174.149,556.744 2352.76,556.744 "/>
<polyline clip-path="url(#clip312)" style="stroke:#000000; stroke-linecap:round; stroke-linejoin:round; stroke-width:2; stroke-opacity:0.1; fill:none" points="174.149,141.918 2352.76,141.918 "/>
<polyline clip-path="url(#clip310)" style="stroke:#000000; stroke-linecap:round; stroke-linejoin:round; stroke-width:4; stroke-opacity:1; fill:none" points="174.149,1423.18 2352.76,1423.18 "/>
<polyline clip-path="url(#clip310)" style="stroke:#000000; stroke-linecap:round; stroke-linejoin:round; stroke-width:4; stroke-opacity:1; fill:none" points="174.149,1423.18 174.149,1404.28 "/>
<polyline clip-path="url(#clip310)" style="stroke:#000000; stroke-linecap:round; stroke-linejoin:round; stroke-width:4; stroke-opacity:1; fill:none" points="707.772,1423.18 707.772,1404.28 "/>
<polyline clip-path="url(#clip310)" style="stroke:#000000; stroke-linecap:round; stroke-linejoin:round; stroke-width:4; stroke-opacity:1; fill:none" points="1241.4,1423.18 1241.4,1404.28 "/>
<polyline clip-path="url(#clip310)" style="stroke:#000000; stroke-linecap:round; stroke-linejoin:round; stroke-width:4; stroke-opacity:1; fill:none" points="1775.02,1423.18 1775.02,1404.28 "/>
<polyline clip-path="url(#clip310)" style="stroke:#000000; stroke-linecap:round; stroke-linejoin:round; stroke-width:4; stroke-opacity:1; fill:none" points="2308.64,1423.18 2308.64,1404.28 "/>
<path clip-path="url(#clip310)" d="M174.149 1454.1 Q170.538 1454.1 168.709 1457.66 Q166.904 1461.2 166.904 1468.33 Q166.904 1475.44 168.709 1479.01 Q170.538 1482.55 174.149 1482.55 Q177.783 1482.55 179.589 1479.01 Q181.417 1475.44 181.417 1468.33 Q181.417 1461.2 179.589 1457.66 Q177.783 1454.1 174.149 1454.1 M174.149 1450.39 Q179.959 1450.39 183.015 1455 Q186.093 1459.58 186.093 1468.33 Q186.093 1477.06 183.015 1481.67 Q179.959 1486.25 174.149 1486.25 Q168.339 1486.25 165.26 1481.67 Q162.205 1477.06 162.205 1468.33 Q162.205 1459.58 165.26 1455 Q168.339 1450.39 174.149 1450.39 Z" fill="#000000" fill-rule="nonzero" fill-opacity="1" /><path clip-path="url(#clip310)" d="M687.043 1481.64 L703.363 1481.64 L703.363 1485.58 L681.418 1485.58 L681.418 1481.64 Q684.08 1478.89 688.664 1474.26 Q693.27 1469.61 694.451 1468.27 Q696.696 1465.74 697.576 1464.01 Q698.479 1462.25 698.479 1460.56 Q698.479 1457.8 696.534 1456.07 Q694.613 1454.33 691.511 1454.33 Q689.312 1454.33 686.858 1455.09 Q684.428 1455.86 681.65 1457.41 L681.65 1452.69 Q684.474 1451.55 686.928 1450.97 Q689.381 1450.39 691.418 1450.39 Q696.789 1450.39 699.983 1453.08 Q703.178 1455.77 703.178 1460.26 Q703.178 1462.39 702.367 1464.31 Q701.58 1466.2 699.474 1468.8 Q698.895 1469.47 695.793 1472.69 Q692.692 1475.88 687.043 1481.64 Z" fill="#000000" fill-rule="nonzero" fill-opacity="1" /><path clip-path="url(#clip310)" d="M713.224 1451.02 L731.58 1451.02 L731.58 1454.96 L717.506 1454.96 L717.506 1463.43 Q718.525 1463.08 719.543 1462.92 Q720.562 1462.73 721.58 1462.73 Q727.367 1462.73 730.747 1465.9 Q734.126 1469.08 734.126 1474.49 Q734.126 1480.07 730.654 1483.17 Q727.182 1486.25 720.863 1486.25 Q718.687 1486.25 716.418 1485.88 Q714.173 1485.51 711.765 1484.77 L711.765 1480.07 Q713.849 1481.2 716.071 1481.76 Q718.293 1482.32 720.77 1482.32 Q724.775 1482.32 727.113 1480.21 Q729.451 1478.1 729.451 1474.49 Q729.451 1470.88 727.113 1468.77 Q724.775 1466.67 720.77 1466.67 Q718.895 1466.67 717.02 1467.08 Q715.168 1467.5 713.224 1468.38 L713.224 1451.02 Z" fill="#000000" fill-rule="nonzero" fill-opacity="1" /><path clip-path="url(#clip310)" d="M1216.1 1451.02 L1234.45 1451.02 L1234.45 1454.96 L1220.38 1454.96 L1220.38 1463.43 Q1221.4 1463.08 1222.41 1462.92 Q1223.43 1462.73 1224.45 1462.73 Q1230.24 1462.73 1233.62 1465.9 Q1237 1469.08 1237 1474.49 Q1237 1480.07 1233.53 1483.17 Q1230.05 1486.25 1223.73 1486.25 Q1221.56 1486.25 1219.29 1485.88 Q1217.04 1485.51 1214.64 1484.77 L1214.64 1480.07 Q1216.72 1481.2 1218.94 1481.76 Q1221.16 1482.32 1223.64 1482.32 Q1227.65 1482.32 1229.98 1480.21 Q1232.32 1478.1 1232.32 1474.49 Q1232.32 1470.88 1229.98 1468.77 Q1227.65 1466.67 1223.64 1466.67 Q1221.77 1466.67 1219.89 1467.08 Q1218.04 1467.5 1216.1 1468.38 L1216.1 1451.02 Z" fill="#000000" fill-rule="nonzero" fill-opacity="1" /><path clip-path="url(#clip310)" d="M1256.21 1454.1 Q1252.6 1454.1 1250.77 1457.66 Q1248.97 1461.2 1248.97 1468.33 Q1248.97 1475.44 1250.77 1479.01 Q1252.6 1482.55 1256.21 1482.55 Q1259.84 1482.55 1261.65 1479.01 Q1263.48 1475.44 1263.48 1468.33 Q1263.48 1461.2 1261.65 1457.66 Q1259.84 1454.1 1256.21 1454.1 M1256.21 1450.39 Q1262.02 1450.39 1265.08 1455 Q1268.16 1459.58 1268.16 1468.33 Q1268.16 1477.06 1265.08 1481.67 Q1262.02 1486.25 1256.21 1486.25 Q1250.4 1486.25 1247.32 1481.67 Q1244.27 1477.06 1244.27 1468.33 Q1244.27 1459.58 1247.32 1455 Q1250.4 1450.39 1256.21 1450.39 Z" fill="#000000" fill-rule="nonzero" fill-opacity="1" /><path clip-path="url(#clip310)" d="M1748.87 1451.02 L1771.1 1451.02 L1771.1 1453.01 L1758.55 1485.58 L1753.67 1485.58 L1765.47 1454.96 L1748.87 1454.96 L1748.87 1451.02 Z" fill="#000000" fill-rule="nonzero" fill-opacity="1" /><path clip-path="url(#clip310)" d="M1780.26 1451.02 L1798.62 1451.02 L1798.62 1454.96 L1784.54 1454.96 L1784.54 1463.43 Q1785.56 1463.08 1786.58 1462.92 Q1787.6 1462.73 1788.62 1462.73 Q1794.41 1462.73 1797.79 1465.9 Q1801.17 1469.08 1801.17 1474.49 Q1801.17 1480.07 1797.69 1483.17 Q1794.22 1486.25 1787.9 1486.25 Q1785.73 1486.25 1783.46 1485.88 Q1781.21 1485.51 1778.8 1484.77 L1778.8 1480.07 Q1780.89 1481.2 1783.11 1481.76 Q1785.33 1482.32 1787.81 1482.32 Q1791.81 1482.32 1794.15 1480.21 Q1796.49 1478.1 1796.49 1474.49 Q1796.49 1470.88 1794.15 1468.77 Q1791.81 1466.67 1787.81 1466.67 Q1785.93 1466.67 1784.06 1467.08 Q1782.21 1467.5 1780.26 1468.38 L1780.26 1451.02 Z" fill="#000000" fill-rule="nonzero" fill-opacity="1" /><path clip-path="url(#clip310)" d="M2268.25 1481.64 L2275.89 1481.64 L2275.89 1455.28 L2267.58 1456.95 L2267.58 1452.69 L2275.84 1451.02 L2280.52 1451.02 L2280.52 1481.64 L2288.16 1481.64 L2288.16 1485.58 L2268.25 1485.58 L2268.25 1481.64 Z" fill="#000000" fill-rule="nonzero" fill-opacity="1" /><path clip-path="url(#clip310)" d="M2307.6 1454.1 Q2303.99 1454.1 2302.16 1457.66 Q2300.36 1461.2 2300.36 1468.33 Q2300.36 1475.44 2302.16 1479.01 Q2303.99 1482.55 2307.6 1482.55 Q2311.24 1482.55 2313.04 1479.01 Q2314.87 1475.44 2314.87 1468.33 Q2314.87 1461.2 2313.04 1457.66 Q2311.24 1454.1 2307.6 1454.1 M2307.6 1450.39 Q2313.41 1450.39 2316.47 1455 Q2319.55 1459.58 2319.55 1468.33 Q2319.55 1477.06 2316.47 1481.67 Q2313.41 1486.25 2307.6 1486.25 Q2301.79 1486.25 2298.71 1481.67 Q2295.66 1477.06 2295.66 1468.33 Q2295.66 1459.58 2298.71 1455 Q2301.79 1450.39 2307.6 1450.39 Z" fill="#000000" fill-rule="nonzero" fill-opacity="1" /><path clip-path="url(#clip310)" d="M2337.76 1454.1 Q2334.15 1454.1 2332.32 1457.66 Q2330.52 1461.2 2330.52 1468.33 Q2330.52 1475.44 2332.32 1479.01 Q2334.15 1482.55 2337.76 1482.55 Q2341.4 1482.55 2343.2 1479.01 Q2345.03 1475.44 2345.03 1468.33 Q2345.03 1461.2 2343.2 1457.66 Q2341.4 1454.1 2337.76 1454.1 M2337.76 1450.39 Q2343.57 1450.39 2346.63 1455 Q2349.71 1459.58 2349.71 1468.33 Q2349.71 1477.06 2346.63 1481.67 Q2343.57 1486.25 2337.76 1486.25 Q2331.95 1486.25 2328.87 1481.67 Q2325.82 1477.06 2325.82 1468.33 Q2325.82 1459.58 2328.87 1455 Q2331.95 1450.39 2337.76 1450.39 Z" fill="#000000" fill-rule="nonzero" fill-opacity="1" /><path clip-path="url(#clip310)" d="M1262.51 1522.27 L1262.51 1532.4 L1274.58 1532.4 L1274.58 1536.95 L1262.51 1536.95 L1262.51 1556.3 Q1262.51 1560.66 1263.69 1561.9 Q1264.9 1563.14 1268.56 1563.14 L1274.58 1563.14 L1274.58 1568.04 L1268.56 1568.04 Q1261.78 1568.04 1259.2 1565.53 Q1256.63 1562.98 1256.63 1556.3 L1256.63 1536.95 L1252.33 1536.95 L1252.33 1532.4 L1256.63 1532.4 L1256.63 1522.27 L1262.51 1522.27 Z" fill="#000000" fill-rule="nonzero" fill-opacity="1" /><polyline clip-path="url(#clip310)" style="stroke:#000000; stroke-linecap:round; stroke-linejoin:round; stroke-width:4; stroke-opacity:1; fill:none" points="174.149,1423.18 174.149,123.472 "/>
<polyline clip-path="url(#clip310)" style="stroke:#000000; stroke-linecap:round; stroke-linejoin:round; stroke-width:4; stroke-opacity:1; fill:none" points="174.149,1386.4 193.047,1386.4 "/>
<polyline clip-path="url(#clip310)" style="stroke:#000000; stroke-linecap:round; stroke-linejoin:round; stroke-width:4; stroke-opacity:1; fill:none" points="174.149,971.57 193.047,971.57 "/>
<polyline clip-path="url(#clip310)" style="stroke:#000000; stroke-linecap:round; stroke-linejoin:round; stroke-width:4; stroke-opacity:1; fill:none" points="174.149,556.744 193.047,556.744 "/>
<polyline clip-path="url(#clip310)" style="stroke:#000000; stroke-linecap:round; stroke-linejoin:round; stroke-width:4; stroke-opacity:1; fill:none" points="174.149,141.918 193.047,141.918 "/>
<path clip-path="url(#clip310)" d="M126.205 1372.19 Q122.593 1372.19 120.765 1375.76 Q118.959 1379.3 118.959 1386.43 Q118.959 1393.54 120.765 1397.1 Q122.593 1400.64 126.205 1400.64 Q129.839 1400.64 131.644 1397.1 Q133.473 1393.54 133.473 1386.43 Q133.473 1379.3 131.644 1375.76 Q129.839 1372.19 126.205 1372.19 M126.205 1368.49 Q132.015 1368.49 135.07 1373.1 Q138.149 1377.68 138.149 1386.43 Q138.149 1395.16 135.07 1399.76 Q132.015 1404.35 126.205 1404.35 Q120.394 1404.35 117.316 1399.76 Q114.26 1395.16 114.26 1386.43 Q114.26 1377.68 117.316 1373.1 Q120.394 1368.49 126.205 1368.49 Z" fill="#000000" fill-rule="nonzero" fill-opacity="1" /><path clip-path="url(#clip310)" d="M118.242 984.914 L125.88 984.914 L125.88 958.549 L117.57 960.216 L117.57 955.956 L125.834 954.29 L130.51 954.29 L130.51 984.914 L138.149 984.914 L138.149 988.85 L118.242 988.85 L118.242 984.914 Z" fill="#000000" fill-rule="nonzero" fill-opacity="1" /><path clip-path="url(#clip310)" d="M121.83 570.088 L138.149 570.088 L138.149 574.024 L116.205 574.024 L116.205 570.088 Q118.867 567.334 123.45 562.704 Q128.056 558.051 129.237 556.709 Q131.482 554.186 132.362 552.45 Q133.265 550.69 133.265 549.001 Q133.265 546.246 131.32 544.51 Q129.399 542.774 126.297 542.774 Q124.098 542.774 121.644 543.538 Q119.214 544.302 116.436 545.852 L116.436 541.13 Q119.26 539.996 121.714 539.417 Q124.168 538.839 126.205 538.839 Q131.575 538.839 134.769 541.524 Q137.964 544.209 137.964 548.7 Q137.964 550.829 137.154 552.751 Q136.367 554.649 134.26 557.241 Q133.681 557.913 130.58 561.13 Q127.478 564.325 121.83 570.088 Z" fill="#000000" fill-rule="nonzero" fill-opacity="1" /><path clip-path="url(#clip310)" d="M131.019 140.563 Q134.376 141.281 136.251 143.55 Q138.149 145.818 138.149 149.151 Q138.149 154.267 134.63 157.068 Q131.112 159.869 124.63 159.869 Q122.455 159.869 120.14 159.429 Q117.848 159.012 115.394 158.156 L115.394 153.642 Q117.339 154.776 119.654 155.355 Q121.968 155.934 124.492 155.934 Q128.89 155.934 131.181 154.198 Q133.496 152.462 133.496 149.151 Q133.496 146.096 131.343 144.383 Q129.214 142.647 125.394 142.647 L121.367 142.647 L121.367 138.804 L125.58 138.804 Q129.029 138.804 130.857 137.438 Q132.686 136.05 132.686 133.457 Q132.686 130.795 130.788 129.383 Q128.913 127.948 125.394 127.948 Q123.473 127.948 121.274 128.364 Q119.075 128.781 116.436 129.661 L116.436 125.494 Q119.098 124.753 121.413 124.383 Q123.751 124.013 125.811 124.013 Q131.135 124.013 134.237 126.443 Q137.339 128.851 137.339 132.971 Q137.339 135.841 135.695 137.832 Q134.052 139.8 131.019 140.563 Z" fill="#000000" fill-rule="nonzero" fill-opacity="1" /><path clip-path="url(#clip310)" d="M20.1444 820.225 L26.9239 820.225 Q23.9002 823.472 22.4043 827.164 Q20.9083 830.824 20.9083 834.962 Q20.9083 843.11 25.9054 847.439 Q30.8707 851.767 40.2919 851.767 Q49.6813 851.767 54.6784 847.439 Q59.6436 843.11 59.6436 834.962 Q59.6436 830.824 58.1477 827.164 Q56.6518 823.472 53.6281 820.225 L60.3439 820.225 Q62.6355 823.599 63.7814 827.387 Q64.9272 831.143 64.9272 835.344 Q64.9272 846.134 58.3387 852.34 Q51.7183 858.547 40.2919 858.547 Q28.8336 858.547 22.2451 852.34 Q15.6248 846.134 15.6248 835.344 Q15.6248 831.079 16.7706 827.323 Q17.8846 823.535 20.1444 820.225 Z" fill="#000000" fill-rule="nonzero" fill-opacity="1" /><path clip-path="url(#clip310)" d="M16.4842 816.883 L16.4842 776.684 L21.895 776.684 L21.895 793.553 L64.0042 793.553 L64.0042 800.014 L21.895 800.014 L21.895 816.883 L16.4842 816.883 Z" fill="#000000" fill-rule="nonzero" fill-opacity="1" /><path clip-path="url(#clip310)" d="M16.4842 770.477 L16.4842 761.82 L56.238 740.749 L16.4842 740.749 L16.4842 734.511 L64.0042 734.511 L64.0042 743.168 L24.2503 764.239 L64.0042 764.239 L64.0042 770.477 L16.4842 770.477 Z" fill="#000000" fill-rule="nonzero" fill-opacity="1" /><path clip-path="url(#clip310)" d="M16.4842 728.305 L16.4842 688.105 L21.895 688.105 L21.895 704.974 L64.0042 704.974 L64.0042 711.435 L21.895 711.435 L21.895 728.305 L16.4842 728.305 Z" fill="#000000" fill-rule="nonzero" fill-opacity="1" /><path clip-path="url(#clip310)" d="M875.112 17.6457 Q866.2 17.6457 860.934 24.2892 Q855.709 30.9327 855.709 42.3968 Q855.709 53.8203 860.934 60.4638 Q866.2 67.1073 875.112 67.1073 Q884.024 67.1073 889.21 60.4638 Q894.435 53.8203 894.435 42.3968 Q894.435 30.9327 889.21 24.2892 Q884.024 17.6457 875.112 17.6457 M875.112 11.0023 Q887.832 11.0023 895.448 19.5497 Q903.064 28.0566 903.064 42.3968 Q903.064 56.6965 895.448 65.2439 Q887.832 73.7508 875.112 73.7508 Q862.352 73.7508 854.696 65.2439 Q847.08 56.737 847.08 42.3968 Q847.08 28.0566 854.696 19.5497 Q862.352 11.0023 875.112 11.0023 Z" fill="#000000" fill-rule="nonzero" fill-opacity="1" /><path clip-path="url(#clip310)" d="M924.047 18.8205 L924.047 65.8515 L933.932 65.8515 Q946.449 65.8515 952.242 60.1802 Q958.075 54.509 958.075 42.2752 Q958.075 30.1225 952.242 24.4918 Q946.449 18.8205 933.932 18.8205 L924.047 18.8205 M915.865 12.096 L932.676 12.096 Q950.257 12.096 958.48 19.4281 Q966.703 26.7198 966.703 42.2752 Q966.703 57.9117 958.44 65.2439 Q950.176 72.576 932.676 72.576 L915.865 72.576 L915.865 12.096 Z" fill="#000000" fill-rule="nonzero" fill-opacity="1" /><path clip-path="url(#clip310)" d="M979.747 12.096 L1017.99 12.096 L1017.99 18.9825 L987.93 18.9825 L987.93 36.8875 L1016.73 36.8875 L1016.73 43.7741 L987.93 43.7741 L987.93 65.6895 L1018.72 65.6895 L1018.72 72.576 L979.747 72.576 L979.747 12.096 Z" fill="#000000" fill-rule="nonzero" fill-opacity="1" /><path clip-path="url(#clip310)" d="M1054.45 46.5287 L1076.28 46.5287 L1076.28 53.1722 L1054.45 53.1722 L1054.45 46.5287 Z" fill="#000000" fill-rule="nonzero" fill-opacity="1" /><path clip-path="url(#clip310)" d="M1123.03 18.8205 L1123.03 41.5461 L1133.32 41.5461 Q1139.03 41.5461 1142.15 38.5889 Q1145.27 35.6318 1145.27 30.163 Q1145.27 24.7348 1142.15 21.7777 Q1139.03 18.8205 1133.32 18.8205 L1123.03 18.8205 M1114.84 12.096 L1133.32 12.096 Q1143.48 12.096 1148.67 16.714 Q1153.9 21.2916 1153.9 30.163 Q1153.9 39.1155 1148.67 43.6931 Q1143.48 48.2706 1133.32 48.2706 L1123.03 48.2706 L1123.03 72.576 L1114.84 72.576 L1114.84 12.096 Z" fill="#000000" fill-rule="nonzero" fill-opacity="1" /><path clip-path="url(#clip310)" d="M1181.44 49.7694 Q1172.41 49.7694 1168.92 51.8354 Q1165.44 53.9013 1165.44 58.8839 Q1165.44 62.8538 1168.03 65.2034 Q1170.67 67.5124 1175.16 67.5124 Q1181.36 67.5124 1185.09 63.1374 Q1188.86 58.7219 1188.86 51.4303 L1188.86 49.7694 L1181.44 49.7694 M1196.31 46.6907 L1196.31 72.576 L1188.86 72.576 L1188.86 65.6895 Q1186.3 69.8214 1182.5 71.8063 Q1178.69 73.7508 1173.18 73.7508 Q1166.21 73.7508 1162.08 69.8619 Q1157.99 65.9325 1157.99 59.3701 Q1157.99 51.7138 1163.09 47.825 Q1168.24 43.9361 1178.4 43.9361 L1188.86 43.9361 L1188.86 43.2069 Q1188.86 38.0623 1185.45 35.2672 Q1182.09 32.4315 1175.97 32.4315 Q1172.08 32.4315 1168.4 33.3632 Q1164.71 34.295 1161.31 36.1584 L1161.31 29.2718 Q1165.4 27.692 1169.25 26.9223 Q1173.1 26.1121 1176.74 26.1121 Q1186.59 26.1121 1191.45 31.2163 Q1196.31 36.3204 1196.31 46.6907 Z" fill="#000000" fill-rule="nonzero" fill-opacity="1" /><path clip-path="url(#clip310)" d="M1219.03 14.324 L1219.03 27.2059 L1234.39 27.2059 L1234.39 32.9987 L1219.03 32.9987 L1219.03 57.6282 Q1219.03 63.1779 1220.53 64.7578 Q1222.07 66.3376 1226.73 66.3376 L1234.39 66.3376 L1234.39 72.576 L1226.73 72.576 Q1218.1 72.576 1214.82 69.3758 Q1211.54 66.1351 1211.54 57.6282 L1211.54 32.9987 L1206.07 32.9987 L1206.07 27.2059 L1211.54 27.2059 L1211.54 14.324 L1219.03 14.324 Z" fill="#000000" fill-rule="nonzero" fill-opacity="1" /><path clip-path="url(#clip310)" d="M1244.19 27.2059 L1251.64 27.2059 L1251.64 72.576 L1244.19 72.576 L1244.19 27.2059 M1244.19 9.54393 L1251.64 9.54393 L1251.64 18.9825 L1244.19 18.9825 L1244.19 9.54393 Z" fill="#000000" fill-rule="nonzero" fill-opacity="1" /><path clip-path="url(#clip310)" d="M1306.05 48.0275 L1306.05 51.6733 L1271.78 51.6733 Q1272.26 59.3701 1276.4 63.421 Q1280.57 67.4314 1287.98 67.4314 Q1292.27 67.4314 1296.28 66.3781 Q1300.34 65.3249 1304.31 63.2184 L1304.31 70.267 Q1300.3 71.9684 1296.08 72.8596 Q1291.87 73.7508 1287.54 73.7508 Q1276.68 73.7508 1270.32 67.4314 Q1264 61.1119 1264 50.3365 Q1264 39.1965 1269.99 32.6746 Q1276.03 26.1121 1286.24 26.1121 Q1295.39 26.1121 1300.7 32.0264 Q1306.05 37.9003 1306.05 48.0275 M1298.59 45.84 Q1298.51 39.7232 1295.15 36.0774 Q1291.83 32.4315 1286.32 32.4315 Q1280.08 32.4315 1276.31 35.9558 Q1272.59 39.4801 1272.02 45.8805 L1298.59 45.84 Z" fill="#000000" fill-rule="nonzero" fill-opacity="1" /><path clip-path="url(#clip310)" d="M1356 45.1919 L1356 72.576 L1348.54 72.576 L1348.54 45.4349 Q1348.54 38.994 1346.03 35.7938 Q1343.52 32.5936 1338.5 32.5936 Q1332.46 32.5936 1328.98 36.4419 Q1325.49 40.2903 1325.49 46.9338 L1325.49 72.576 L1318 72.576 L1318 27.2059 L1325.49 27.2059 L1325.49 34.2544 Q1328.17 30.163 1331.77 28.1376 Q1335.42 26.1121 1340.16 26.1121 Q1347.97 26.1121 1351.98 30.9732 Q1356 35.7938 1356 45.1919 Z" fill="#000000" fill-rule="nonzero" fill-opacity="1" /><path clip-path="url(#clip310)" d="M1378.23 14.324 L1378.23 27.2059 L1393.59 27.2059 L1393.59 32.9987 L1378.23 32.9987 L1378.23 57.6282 Q1378.23 63.1779 1379.73 64.7578 Q1381.27 66.3376 1385.93 66.3376 L1393.59 66.3376 L1393.59 72.576 L1385.93 72.576 Q1377.3 72.576 1374.02 69.3758 Q1370.74 66.1351 1370.74 57.6282 L1370.74 32.9987 L1365.27 32.9987 L1365.27 27.2059 L1370.74 27.2059 L1370.74 14.324 L1378.23 14.324 Z" fill="#000000" fill-rule="nonzero" fill-opacity="1" /><path clip-path="url(#clip310)" d="M1467.48 45.1919 L1467.48 72.576 L1460.02 72.576 L1460.02 45.4349 Q1460.02 38.994 1457.51 35.7938 Q1455 32.5936 1449.98 32.5936 Q1443.94 32.5936 1440.46 36.4419 Q1436.97 40.2903 1436.97 46.9338 L1436.97 72.576 L1429.48 72.576 L1429.48 27.2059 L1436.97 27.2059 L1436.97 34.2544 Q1439.65 30.163 1443.25 28.1376 Q1446.9 26.1121 1451.64 26.1121 Q1459.46 26.1121 1463.47 30.9732 Q1467.48 35.7938 1467.48 45.1919 Z" fill="#000000" fill-rule="nonzero" fill-opacity="1" /><path clip-path="url(#clip310)" d="M1484.81 65.6895 L1498.18 65.6895 L1498.18 19.5497 L1483.64 22.4663 L1483.64 15.0127 L1498.1 12.096 L1506.28 12.096 L1506.28 65.6895 L1519.65 65.6895 L1519.65 72.576 L1484.81 72.576 L1484.81 65.6895 Z" fill="#000000" fill-rule="nonzero" fill-opacity="1" /><path clip-path="url(#clip310)" d="M1536.26 12.096 L1568.38 12.096 L1568.38 18.9825 L1543.75 18.9825 L1543.75 33.8088 Q1545.54 33.2012 1547.32 32.9176 Q1549.1 32.5936 1550.88 32.5936 Q1561.01 32.5936 1566.93 38.1433 Q1572.84 43.6931 1572.84 53.1722 Q1572.84 62.9348 1566.76 68.3631 Q1560.69 73.7508 1549.63 73.7508 Q1545.82 73.7508 1541.85 73.1026 Q1537.92 72.4545 1533.71 71.1582 L1533.71 62.9348 Q1537.35 64.9198 1541.24 65.892 Q1545.13 66.8642 1549.47 66.8642 Q1556.47 66.8642 1560.57 63.1779 Q1564.66 59.4916 1564.66 53.1722 Q1564.66 46.8528 1560.57 43.1664 Q1556.47 39.4801 1549.47 39.4801 Q1546.19 39.4801 1542.9 40.2093 Q1539.66 40.9384 1536.26 42.4778 L1536.26 12.096 Z" fill="#000000" fill-rule="nonzero" fill-opacity="1" /><path clip-path="url(#clip310)" d="M1589.04 12.096 L1621.17 12.096 L1621.17 18.9825 L1596.54 18.9825 L1596.54 33.8088 Q1598.32 33.2012 1600.1 32.9176 Q1601.89 32.5936 1603.67 32.5936 Q1613.79 32.5936 1619.71 38.1433 Q1625.62 43.6931 1625.62 53.1722 Q1625.62 62.9348 1619.55 68.3631 Q1613.47 73.7508 1602.41 73.7508 Q1598.6 73.7508 1594.63 73.1026 Q1590.7 72.4545 1586.49 71.1582 L1586.49 62.9348 Q1590.14 64.9198 1594.03 65.892 Q1597.92 66.8642 1602.25 66.8642 Q1609.26 66.8642 1613.35 63.1779 Q1617.44 59.4916 1617.44 53.1722 Q1617.44 46.8528 1613.35 43.1664 Q1609.26 39.4801 1602.25 39.4801 Q1598.97 39.4801 1595.69 40.2093 Q1592.45 40.9384 1589.04 42.4778 L1589.04 12.096 Z" fill="#000000" fill-rule="nonzero" fill-opacity="1" /><path clip-path="url(#clip310)" d="M1641.99 71.3202 L1641.99 63.8666 Q1645.07 65.3249 1648.23 66.0946 Q1651.39 66.8642 1654.43 66.8642 Q1662.53 66.8642 1666.78 61.436 Q1671.07 55.9673 1671.68 44.8678 Q1669.33 48.3516 1665.73 50.215 Q1662.12 52.0784 1657.75 52.0784 Q1648.67 52.0784 1643.37 46.6097 Q1638.1 41.1005 1638.1 31.5808 Q1638.1 22.2638 1643.61 16.633 Q1649.12 11.0023 1658.27 11.0023 Q1668.77 11.0023 1674.27 19.0636 Q1679.82 27.0843 1679.82 42.3968 Q1679.82 56.6965 1673.02 65.2439 Q1666.25 73.7508 1654.79 73.7508 Q1651.71 73.7508 1648.55 73.1431 Q1645.39 72.5355 1641.99 71.3202 M1658.27 45.678 Q1663.78 45.678 1666.98 41.9107 Q1670.22 38.1433 1670.22 31.5808 Q1670.22 25.0589 1666.98 21.2916 Q1663.78 17.4837 1658.27 17.4837 Q1652.76 17.4837 1649.52 21.2916 Q1646.32 25.0589 1646.32 31.5808 Q1646.32 38.1433 1649.52 41.9107 Q1652.76 45.678 1658.27 45.678 Z" fill="#000000" fill-rule="nonzero" fill-opacity="1" /><polyline clip-path="url(#clip312)" style="stroke:#009af9; stroke-linecap:round; stroke-linejoin:round; stroke-width:8; stroke-opacity:1; fill:none" points="174.149,1057.76 176.33,1057.76 178.51,1057.76 180.691,1057.76 182.872,1057.76 185.053,1057.76 187.234,1057.76 189.414,1057.76 191.595,1057.76 193.776,1057.76 195.957,1057.76 198.138,1057.76 200.318,1057.76 202.499,1057.76 204.68,1057.76 206.861,1057.76 209.042,1057.76 211.222,1057.76 213.403,1057.76 215.584,1057.76 217.765,1057.76 219.945,1057.76 222.126,1057.76 224.307,1057.76 226.488,1057.76 228.669,1057.76 230.849,1057.76 233.03,1057.76 235.211,1057.76 237.392,1057.76 239.573,1057.76 241.753,1057.76 243.934,1057.76 246.115,1057.75 248.296,1057.75 250.476,1057.75 252.657,1057.75 254.838,1057.75 257.019,1057.75 259.2,1057.75 261.38,1057.75 263.561,1057.75 265.742,1057.75 267.923,1057.75 270.104,1057.75 272.284,1057.74 274.465,1057.74 276.646,1057.74 278.827,1057.74 281.008,1057.74 283.188,1057.74 285.369,1057.74 287.55,1057.73 289.731,1057.73 291.911,1057.73 294.092,1057.73 296.273,1057.73 298.454,1057.72 300.635,1057.72 302.815,1057.72 304.996,1057.72 307.177,1057.71 309.358,1057.71 311.539,1057.71 313.719,1057.7 315.9,1057.7 318.081,1057.7 320.262,1057.7 322.442,1057.69 324.623,1057.69 326.804,1057.68 328.985,1057.68 331.166,1057.68 333.346,1057.67 335.527,1057.67 337.708,1057.66 339.889,1057.66 342.07,1057.65 344.25,1057.65 346.431,1057.64 348.612,1057.64 350.793,1057.63 352.974,1057.63 355.154,1057.62 357.335,1057.62 359.516,1057.61 361.697,1057.6 363.877,1057.6 366.058,1057.59 368.239,1057.58 370.42,1057.58 372.601,1057.57 374.781,1057.56 376.962,1057.55 379.143,1057.54 381.324,1057.54 383.505,1057.53 385.685,1057.52 387.866,1057.51 390.047,1057.5 392.228,1057.49 394.408,1057.48 396.589,1057.47 398.77,1057.46 400.951,1057.45 403.132,1057.44 405.312,1057.43 407.493,1057.42 409.674,1057.41 411.855,1057.39 414.036,1057.38 416.216,1057.37 418.397,1057.36 420.578,1057.34 422.759,1057.33 424.94,1057.31 427.12,1057.3 429.301,1057.29 431.482,1057.27 433.663,1057.26 435.843,1057.24 438.024,1057.22 440.205,1057.21 442.386,1057.19 444.567,1057.17 446.747,1057.16 448.928,1057.14 451.109,1057.12 453.29,1057.1 455.471,1057.08 457.651,1057.06 459.832,1057.04 462.013,1057.02 464.194,1057 466.374,1056.98 468.555,1056.96 470.736,1056.94 472.917,1056.91 475.098,1056.89 477.278,1056.87 479.459,1056.84 481.64,1056.82 483.821,1056.79 486.002,1056.77 488.182,1056.74 490.363,1056.71 492.544,1056.69 494.725,1056.66 496.906,1056.63 499.086,1056.6 501.267,1056.57 503.448,1056.54 505.629,1056.51 507.809,1056.48 509.99,1056.45 512.171,1056.42 514.352,1056.39 516.533,1056.35 518.713,1056.32 520.894,1056.28 523.075,1056.25 525.256,1056.21 527.437,1056.18 529.617,1056.14 531.798,1056.1 533.979,1056.06 536.16,1056.02 538.34,1055.98 540.521,1055.94 542.702,1055.9 544.883,1055.86 547.064,1055.82 549.244,1055.78 551.425,1055.73 553.606,1055.69 555.787,1055.64 557.968,1055.59 560.148,1055.55 562.329,1055.5 564.51,1055.45 566.691,1055.4 568.872,1055.35 571.052,1055.3 573.233,1055.25 575.414,1055.2 577.595,1055.14 579.775,1055.09 581.956,1055.03 584.137,1054.98 586.318,1054.92 588.499,1054.86 590.679,1054.81 592.86,1054.75 595.041,1054.69 597.222,1054.62 599.403,1054.56 601.583,1054.5 603.764,1054.44 605.945,1054.37 608.126,1054.31 610.306,1054.24 612.487,1054.17 614.668,1054.1 616.849,1054.03 619.03,1053.96 621.21,1053.89 623.391,1053.82 625.572,1053.74 627.753,1053.67 629.934,1053.59 632.114,1053.52 634.295,1053.44 636.476,1053.36 638.657,1053.28 640.838,1053.2 643.018,1053.12 645.199,1053.04 647.38,1052.95 649.561,1052.87 651.741,1052.78 653.922,1052.69 656.103,1052.6 658.284,1052.51 660.465,1052.42 662.645,1052.33 664.826,1052.24 667.007,1052.14 669.188,1052.05 671.369,1051.95 673.549,1051.85 675.73,1051.75 677.911,1051.65 680.092,1051.55 682.272,1051.45 684.453,1051.35 686.634,1051.24 688.815,1051.13 690.996,1051.03 693.176,1050.92 695.357,1050.81 697.538,1050.7 699.719,1050.58 701.9,1050.47 704.08,1050.35 706.261,1050.24 708.442,1050.12 710.623,1050 712.803,1049.88 714.984,1049.75 717.165,1049.63 719.346,1049.51 721.527,1049.38 723.707,1049.25 725.888,1049.12 728.069,1048.99 730.25,1048.86 732.431,1048.73 734.611,1048.59 736.792,1048.45 738.973,1048.32 741.154,1048.18 743.335,1048.04 745.515,1047.89 747.696,1047.75 749.877,1047.61 752.058,1047.46 754.238,1047.31 756.419,1047.16 758.6,1047.01 760.781,1046.86 762.962,1046.7 765.142,1046.55 767.323,1046.39 769.504,1046.23 771.685,1046.07 773.866,1045.91 776.046,1045.75 778.227,1045.58 780.408,1045.41 782.589,1045.25 784.769,1045.08 786.95,1044.9 789.131,1044.73 791.312,1044.56 793.493,1044.38 795.673,1044.2 797.854,1044.02 800.035,1043.84 802.216,1043.66 804.397,1043.47 806.577,1043.29 808.758,1043.1 810.939,1042.91 813.12,1042.72 815.301,1042.53 817.481,1042.33 819.662,1042.13 821.843,1041.94 824.024,1041.74 826.204,1041.54 828.385,1041.33 830.566,1041.13 832.747,1040.92 834.928,1040.71 837.108,1040.5 839.289,1040.29 841.47,1040.08 843.651,1039.86 845.832,1039.64 848.012,1039.42 850.193,1039.2 852.374,1038.98 854.555,1038.76 856.735,1038.53 858.916,1038.3 861.097,1038.07 863.278,1037.84 865.459,1037.61 867.639,1037.37 869.82,1037.14 872.001,1036.9 874.182,1036.66 876.363,1036.42 878.543,1036.17 880.724,1035.93 882.905,1035.68 885.086,1035.43 887.267,1035.18 889.447,1034.92 891.628,1034.67 893.809,1034.41 895.99,1034.15 898.17,1033.89 900.351,1033.63 902.532,1033.37 904.713,1033.1 906.894,1032.83 909.074,1032.56 911.255,1032.29 913.436,1032.02 915.617,1031.74 917.798,1031.47 919.978,1031.19 922.159,1030.91 924.34,1030.62 926.521,1030.34 928.701,1030.05 930.882,1029.77 933.063,1029.48 935.244,1029.18 937.425,1028.89 939.605,1028.6 941.786,1028.3 943.967,1028 946.148,1027.7 948.329,1027.4 950.509,1027.09 952.69,1026.78 954.871,1026.48 957.052,1026.17 959.233,1025.85 961.413,1025.54 963.594,1025.22 965.775,1024.91 967.956,1024.59 970.136,1024.27 972.317,1023.94 974.498,1023.62 976.679,1023.29 978.86,1022.96 981.04,1022.63 983.221,1022.3 985.402,1021.97 987.583,1021.63 989.764,1021.3 991.944,1020.96 994.125,1020.62 996.306,1020.27 998.487,1019.93 1000.67,1019.58 1002.85,1019.24 1005.03,1018.89 1007.21,1018.53 1009.39,1018.18 1011.57,1017.83 1013.75,1017.47 1015.93,1017.11 1018.11,1016.75 1020.29,1016.39 1022.48,1016.03 1024.66,1015.66 1026.84,1015.29 1029.02,1014.92 1031.2,1014.55 1033.38,1014.18 1035.56,1013.81 1037.74,1013.43 1039.92,1013.06 1042.1,1012.68 1044.28,1012.3 1046.46,1011.92 1048.64,1011.53 1050.83,1011.15 1053.01,1010.76 1055.19,1010.37 1057.37,1009.98 1059.55,1009.59 1061.73,1009.2 1063.91,1008.8 1066.09,1008.41 1068.27,1008.01 1070.45,1007.61 1072.63,1007.21 1074.81,1006.81 1077,1006.41 1079.18,1006 1081.36,1005.6 1083.54,1005.19 1085.72,1004.78 1087.9,1004.37 1090.08,1003.96 1092.26,1003.54 1094.44,1003.13 1096.62,1002.71 1098.8,1002.29 1100.98,1001.88 1103.16,1001.46 1105.35,1001.03 1107.53,1000.61 1109.71,1000.19 1111.89,999.763 1114.07,999.337 1116.25,998.909 1118.43,998.48 1120.61,998.05 1122.79,997.619 1124.97,997.187 1127.15,996.753 1129.33,996.319 1131.51,995.883 1133.7,995.446 1135.88,995.008 1138.06,994.569 1140.24,994.129 1142.42,993.687 1144.6,993.245 1146.78,992.802 1148.96,992.357 1151.14,991.912 1153.32,991.466 1155.5,991.018 1157.68,990.57 1159.86,990.121 1162.05,989.671 1164.23,989.22 1166.41,988.768 1168.59,988.315 1170.77,987.862 1172.95,987.407 1175.13,986.952 1177.31,986.496 1179.49,986.039 1181.67,985.582 1183.85,985.124 1186.03,984.665 1188.22,984.205 1190.4,983.745 1192.58,983.284 1194.76,982.822 1196.94,982.36 1199.12,981.897 1201.3,981.434 1203.48,980.97 1205.66,980.505 1207.84,980.04 1210.02,979.574 1212.2,979.108 1214.38,978.642 1216.57,978.175 1218.75,977.707 1220.93,977.239 1223.11,976.771 1225.29,976.302 1227.47,975.833 1229.65,975.364 1231.83,974.894 1234.01,974.424 1236.19,973.954 1238.37,973.483 1240.55,973.013 1242.73,972.542 1244.92,972.071 1247.1,971.599 1249.28,971.128 1251.46,970.656 1253.64,970.184 1255.82,969.713 1258,969.241 1260.18,968.769 1262.36,968.297 1264.54,967.825 1266.72,967.353 1268.9,966.881 1271.09,966.409 1273.27,965.937 1275.45,965.465 1277.63,964.993 1279.81,964.522 1281.99,964.05 1284.17,963.579 1286.35,963.108 1288.53,962.637 1290.71,962.167 1292.89,961.697 1295.07,961.227 1297.25,960.757 1299.44,960.288 1301.62,959.819 1303.8,959.35 1305.98,958.882 1308.16,958.414 1310.34,957.947 1312.52,957.48 1314.7,957.013 1316.88,956.546 1319.06,956.079 1321.24,955.612 1323.42,955.145 1325.6,954.678 1327.79,954.211 1329.97,953.745 1332.15,953.278 1334.33,952.812 1336.51,952.346 1338.69,951.881 1340.87,951.416 1343.05,950.952 1345.23,950.488 1347.41,950.025 1349.59,949.563 1351.77,949.101 1353.96,948.64 1356.14,948.18 1358.32,947.72 1360.5,947.262 1362.68,946.805 1364.86,946.348 1367.04,945.893 1369.22,945.438 1371.4,944.985 1373.58,944.533 1375.76,944.082 1377.94,943.632 1380.12,943.184 1382.31,942.737 1384.49,942.291 1386.67,941.846 1388.85,941.403 1391.03,940.962 1393.21,940.522 1395.39,940.083 1397.57,939.646 1399.75,939.21 1401.93,938.776 1404.11,938.344 1406.29,937.913 1408.47,937.484 1410.66,937.056 1412.84,936.63 1415.02,936.206 1417.2,935.784 1419.38,935.363 1421.56,934.944 1423.74,934.527 1425.92,934.112 1428.1,933.698 1430.28,933.287 1432.46,932.877 1434.64,932.469 1436.83,932.063 1439.01,931.659 1441.19,931.256 1443.37,930.856 1445.55,930.457 1447.73,930.061 1449.91,929.666 1452.09,929.273 1454.27,928.882 1456.45,928.494 1458.63,928.107 1460.81,927.722 1462.99,927.338 1465.18,926.957 1467.36,926.578 1469.54,926.201 1471.72,925.825 1473.9,925.452 1476.08,925.08 1478.26,924.711 1480.44,924.343 1482.62,923.977 1484.8,923.613 1486.98,923.251 1489.16,922.891 1491.34,922.533 1493.53,922.176 1495.71,921.821 1497.89,921.469 1500.07,921.117 1502.25,920.768 1504.43,920.421 1506.61,920.075 1508.79,919.731 1510.97,919.388 1513.15,919.048 1515.33,918.709 1517.51,918.371 1519.69,918.036 1521.88,917.702 1524.06,917.369 1526.24,917.038 1528.42,916.708 1530.6,916.38 1532.78,916.054 1534.96,915.729 1537.14,915.405 1539.32,915.082 1541.5,914.761 1543.68,914.442 1545.86,914.123 1548.05,913.806 1550.23,913.489 1552.41,913.174 1554.59,912.861 1556.77,912.548 1558.95,912.236 1561.13,911.925 1563.31,911.615 1565.49,911.306 1567.67,910.999 1569.85,910.693 1572.03,910.389 1574.21,910.086 1576.4,909.786 1578.58,909.487 1580.76,909.19 1582.94,908.895 1585.12,908.602 1587.3,908.311 1589.48,908.022 1591.66,907.735 1593.84,907.451 1596.02,907.168 1598.2,906.888 1600.38,906.61 1602.56,906.334 1604.75,906.06 1606.93,905.788 1609.11,905.519 1611.29,905.252 1613.47,904.988 1615.65,904.725 1617.83,904.465 1620.01,904.208 1622.19,903.953 1624.37,903.7 1626.55,903.449 1628.73,903.201 1630.92,902.955 1633.1,902.712 1635.28,902.471 1637.46,902.232 1639.64,901.996 1641.82,901.762 1644,901.531 1646.18,901.302 1648.36,901.075 1650.54,900.85 1652.72,900.628 1654.9,900.408 1657.08,900.19 1659.27,899.975 1661.45,899.761 1663.63,899.55 1665.81,899.341 1667.99,899.134 1670.17,898.93 1672.35,898.727 1674.53,898.526 1676.71,898.328 1678.89,898.131 1681.07,897.936 1683.25,897.743 1685.43,897.552 1687.62,897.363 1689.8,897.176 1691.98,896.99 1694.16,896.806 1696.34,896.623 1698.52,896.442 1700.7,896.262 1702.88,896.084 1705.06,895.908 1707.24,895.732 1709.42,895.558 1711.6,895.385 1713.79,895.213 1715.97,895.042 1718.15,894.872 1720.33,894.703 1722.51,894.535 1724.69,894.368 1726.87,894.202 1729.05,894.037 1731.23,893.873 1733.41,893.71 1735.59,893.549 1737.77,893.389 1739.95,893.23 1742.14,893.073 1744.32,892.917 1746.5,892.763 1748.68,892.611 1750.86,892.46 1753.04,892.311 1755.22,892.164 1757.4,892.019 1759.58,891.875 1761.76,891.733 1763.94,891.593 1766.12,891.455 1768.3,891.32 1770.49,891.186 1772.67,891.054 1774.85,890.924 1777.03,890.796 1779.21,890.67 1781.39,890.546 1783.57,890.425 1785.75,890.305 1787.93,890.187 1790.11,890.072 1792.29,889.959 1794.47,889.847 1796.66,889.738 1798.84,889.631 1801.02,889.525 1803.2,889.422 1805.38,889.321 1807.56,889.222 1809.74,889.125 1811.92,889.029 1814.1,888.936 1816.28,888.844 1818.46,888.755 1820.64,888.667 1822.82,888.581 1825.01,888.496 1827.19,888.413 1829.37,888.332 1831.55,888.253 1833.73,888.175 1835.91,888.098 1838.09,888.023 1840.27,887.949 1842.45,887.877 1844.63,887.805 1846.81,887.735 1848.99,887.666 1851.17,887.598 1853.36,887.531 1855.54,887.465 1857.72,887.399 1859.9,887.335 1862.08,887.27 1864.26,887.207 1866.44,887.143 1868.62,887.081 1870.8,887.018 1872.98,886.955 1875.16,886.893 1877.34,886.83 1879.52,886.767 1881.71,886.704 1883.89,886.641 1886.07,886.577 1888.25,886.512 1890.43,886.448 1892.61,886.383 1894.79,886.318 1896.97,886.253 1899.15,886.189 1901.33,886.125 1903.51,886.061 1905.69,885.998 1907.88,885.936 1910.06,885.874 1912.24,885.813 1914.42,885.753 1916.6,885.694 1918.78,885.636 1920.96,885.579 1923.14,885.523 1925.32,885.468 1927.5,885.415 1929.68,885.363 1931.86,885.312 1934.04,885.262 1936.23,885.214 1938.41,885.167 1940.59,885.122 1942.77,885.078 1944.95,885.036 1947.13,884.996 1949.31,884.956 1951.49,884.919 1953.67,884.883 1955.85,884.848 1958.03,884.816 1960.21,884.784 1962.39,884.755 1964.58,884.726 1966.76,884.7 1968.94,884.675 1971.12,884.651 1973.3,884.629 1975.48,884.608 1977.66,884.589 1979.84,884.571 1982.02,884.554 1984.2,884.538 1986.38,884.524 1988.56,884.511 1990.75,884.499 1992.93,884.488 1995.11,884.478 1997.29,884.469 1999.47,884.461 2001.65,884.454 2003.83,884.447 2006.01,884.441 2008.19,884.435 2010.37,884.43 2012.55,884.425 2014.73,884.421 2016.91,884.416 2019.1,884.412 2021.28,884.407 2023.46,884.402 2025.64,884.397 2027.82,884.391 2030,884.385 2032.18,884.378 2034.36,884.371 2036.54,884.362 2038.72,884.352 2040.9,884.341 2043.08,884.328 2045.26,884.314 2047.45,884.299 2049.63,884.281 2051.81,884.263 2053.99,884.243 2056.17,884.223 2058.35,884.202 2060.53,884.18 2062.71,884.158 2064.89,884.136 2067.07,884.114 2069.25,884.091 2071.43,884.069 2073.62,884.048 2075.8,884.027 2077.98,884.006 2080.16,883.986 2082.34,883.967 2084.52,883.948 2086.7,883.931 2088.88,883.915 2091.06,883.9 2093.24,883.886 2095.42,883.873 2097.6,883.862 2099.78,883.852 2101.97,883.843 2104.15,883.836 2106.33,883.831 2108.51,883.827 2110.69,883.825 2112.87,883.824 2115.05,883.825 2117.23,883.827 2119.41,883.831 2121.59,883.837 2123.77,883.844 2125.95,883.853 2128.13,883.863 2130.32,883.875 2132.5,883.888 2134.68,883.902 2136.86,883.918 2139.04,883.936 2141.22,883.954 2143.4,883.974 2145.58,883.994 2147.76,884.016 2149.94,884.039 2152.12,884.062 2154.3,884.086 2156.49,884.111 2158.67,884.137 2160.85,884.162 2163.03,884.188 2165.21,884.214 2167.39,884.24 2169.57,884.266 2171.75,884.291 2173.93,884.316 2176.11,884.34 2178.29,884.364 2180.47,884.386 2182.65,884.408 2184.84,884.428 2187.02,884.446 2189.2,884.463 2191.38,884.477 2193.56,884.49 2195.74,884.5 2197.92,884.507 2200.1,884.512 2202.28,884.513 2204.46,884.511 2206.64,884.506 2208.82,884.497 2211,884.486 2213.19,884.473 2215.37,884.457 2217.55,884.44 2219.73,884.422 2221.91,884.403 2224.09,884.383 2226.27,884.363 2228.45,884.343 2230.63,884.323 2232.81,884.304 2234.99,884.285 2237.17,884.268 2239.35,884.252 2241.54,884.237 2243.72,884.224 2245.9,884.212 2248.08,884.203 2250.26,884.196 2252.44,884.19 2254.62,884.188 2256.8,884.187 2258.98,884.19 2261.16,884.195 2263.34,884.202 2265.52,884.212 2267.71,884.225 2269.89,884.241 2272.07,884.259 2274.25,884.281 2276.43,884.305 2278.61,884.331 2280.79,884.361 2282.97,884.392 2285.15,884.427 2287.33,884.463 2289.51,884.502 2291.69,884.543 2293.87,884.586 2296.06,884.631 2298.24,884.677 2300.42,884.725 2302.6,884.775 2304.78,884.825 2306.96,884.876 2309.14,884.928 2311.32,884.98 2313.5,885.032 2315.68,885.084 2317.86,885.135 2320.04,885.186 2322.22,885.235 2324.41,885.283 2326.59,885.329 2328.77,885.373 2330.95,885.414 2333.13,885.452 2335.31,885.487 2337.49,885.518 2339.67,885.545 2341.85,885.567 2344.03,885.583 2346.21,885.594 2348.39,885.599 2350.58,885.597 2352.76,885.59 "/>
<polyline clip-path="url(#clip312)" style="stroke:#e26f46; stroke-linecap:round; stroke-linejoin:round; stroke-width:8; stroke-opacity:1; fill:none" points="174.149,160.256 176.33,177.712 178.51,194.671 180.691,211.146 182.872,227.153 185.053,242.704 187.234,257.813 189.414,272.491 191.595,286.752 193.776,300.607 195.957,314.067 198.138,327.145 200.318,339.85 202.499,352.194 204.68,364.187 206.861,375.839 209.042,387.159 211.222,398.157 213.403,408.842 215.584,419.224 217.765,429.31 219.945,439.11 222.126,448.631 224.307,457.882 226.488,466.869 228.669,475.601 230.849,484.085 233.03,492.328 235.211,500.337 237.392,508.118 239.573,515.678 241.753,523.023 243.934,530.16 246.115,537.094 248.296,543.832 250.476,550.379 252.657,556.739 254.838,562.92 257.019,568.924 259.2,574.759 261.38,580.428 263.561,585.936 265.742,591.288 267.923,596.488 270.104,601.541 272.284,606.45 274.465,611.221 276.646,615.857 278.827,620.361 281.008,624.738 283.188,628.992 285.369,633.125 287.55,637.142 289.731,641.044 291.911,644.837 294.092,648.522 296.273,652.103 298.454,655.583 300.635,658.964 302.815,662.25 304.996,665.443 307.177,668.546 309.358,671.561 311.539,674.492 313.719,677.34 315.9,680.108 318.081,682.798 320.262,685.413 322.442,687.954 324.623,690.424 326.804,692.825 328.985,695.159 331.166,697.427 333.346,699.631 335.527,701.774 337.708,703.856 339.889,705.88 342.07,707.847 344.25,709.759 346.431,711.618 348.612,713.424 350.793,715.181 352.974,716.888 355.154,718.547 357.335,720.16 359.516,721.729 361.697,723.254 363.877,724.737 366.058,726.179 368.239,727.581 370.42,728.944 372.601,730.27 374.781,731.56 376.962,732.814 379.143,734.033 381.324,735.219 383.505,736.373 385.685,737.494 387.866,738.585 390.047,739.646 392.228,740.678 394.408,741.681 396.589,742.657 398.77,743.606 400.951,744.53 403.132,745.428 405.312,746.302 407.493,747.152 409.674,747.979 411.855,748.785 414.036,749.568 416.216,750.331 418.397,751.073 420.578,751.795 422.759,752.499 424.94,753.184 427.12,753.851 429.301,754.501 431.482,755.133 433.663,755.75 435.843,756.35 438.024,756.935 440.205,757.504 442.386,758.059 444.567,758.599 446.747,759.125 448.928,759.638 451.109,760.138 453.29,760.624 455.471,761.099 457.651,761.561 459.832,762.011 462.013,762.451 464.194,762.879 466.374,763.296 468.555,763.703 470.736,764.1 472.917,764.487 475.098,764.865 477.278,765.234 479.459,765.594 481.64,765.946 483.821,766.289 486.002,766.624 488.182,766.952 490.363,767.272 492.544,767.585 494.725,767.891 496.906,768.191 499.086,768.484 501.267,768.77 503.448,769.05 505.629,769.324 507.809,769.592 509.99,769.855 512.171,770.112 514.352,770.363 516.533,770.609 518.713,770.85 520.894,771.086 523.075,771.317 525.256,771.544 527.437,771.766 529.617,771.984 531.798,772.197 533.979,772.406 536.16,772.612 538.34,772.813 540.521,773.011 542.702,773.205 544.883,773.396 547.064,773.583 549.244,773.768 551.425,773.949 553.606,774.127 555.787,774.303 557.968,774.475 560.148,774.646 562.329,774.813 564.51,774.979 566.691,775.142 568.872,775.303 571.052,775.462 573.233,775.619 575.414,775.774 577.595,775.927 579.775,776.078 581.956,776.228 584.137,776.376 586.318,776.522 588.499,776.666 590.679,776.809 592.86,776.951 595.041,777.091 597.222,777.23 599.403,777.367 601.583,777.503 603.764,777.638 605.945,777.772 608.126,777.905 610.306,778.036 612.487,778.167 614.668,778.296 616.849,778.425 619.03,778.552 621.21,778.679 623.391,778.805 625.572,778.93 627.753,779.055 629.934,779.179 632.114,779.302 634.295,779.425 636.476,779.547 638.657,779.669 640.838,779.79 643.018,779.911 645.199,780.032 647.38,780.153 649.561,780.273 651.741,780.393 653.922,780.512 656.103,780.632 658.284,780.752 660.465,780.871 662.645,780.991 664.826,781.111 667.007,781.23 669.188,781.35 671.369,781.47 673.549,781.59 675.73,781.71 677.911,781.83 680.092,781.951 682.272,782.071 684.453,782.192 686.634,782.313 688.815,782.434 690.996,782.555 693.176,782.676 695.357,782.798 697.538,782.92 699.719,783.042 701.9,783.164 704.08,783.287 706.261,783.41 708.442,783.534 710.623,783.657 712.803,783.781 714.984,783.906 717.165,784.031 719.346,784.156 721.527,784.282 723.707,784.408 725.888,784.534 728.069,784.661 730.25,784.789 732.431,784.917 734.611,785.045 736.792,785.174 738.973,785.304 741.154,785.434 743.335,785.565 745.515,785.696 747.696,785.828 749.877,785.961 752.058,786.094 754.238,786.228 756.419,786.362 758.6,786.497 760.781,786.633 762.962,786.77 765.142,786.907 767.323,787.045 769.504,787.184 771.685,787.324 773.866,787.464 776.046,787.605 778.227,787.748 780.408,787.89 782.589,788.034 784.769,788.179 786.95,788.324 789.131,788.47 791.312,788.617 793.493,788.764 795.673,788.913 797.854,789.062 800.035,789.212 802.216,789.363 804.397,789.515 806.577,789.667 808.758,789.821 810.939,789.975 813.12,790.13 815.301,790.286 817.481,790.443 819.662,790.6 821.843,790.759 824.024,790.918 826.204,791.078 828.385,791.24 830.566,791.402 832.747,791.565 834.928,791.728 837.108,791.893 839.289,792.059 841.47,792.225 843.651,792.392 845.832,792.561 848.012,792.73 850.193,792.9 852.374,793.071 854.555,793.243 856.735,793.416 858.916,793.59 861.097,793.765 863.278,793.94 865.459,794.117 867.639,794.294 869.82,794.473 872.001,794.652 874.182,794.833 876.363,795.014 878.543,795.196 880.724,795.379 882.905,795.564 885.086,795.749 887.267,795.935 889.447,796.122 891.628,796.31 893.809,796.499 895.99,796.689 898.17,796.88 900.351,797.071 902.532,797.264 904.713,797.458 906.894,797.653 909.074,797.848 911.255,798.045 913.436,798.243 915.617,798.441 917.798,798.641 919.978,798.842 922.159,799.043 924.34,799.246 926.521,799.449 928.701,799.653 930.882,799.857 933.063,800.063 935.244,800.27 937.425,800.477 939.605,800.685 941.786,800.894 943.967,801.105 946.148,801.315 948.329,801.527 950.509,801.74 952.69,801.954 954.871,802.168 957.052,802.384 959.233,802.6 961.413,802.817 963.594,803.035 965.775,803.255 967.956,803.475 970.136,803.696 972.317,803.918 974.498,804.141 976.679,804.364 978.86,804.589 981.04,804.815 983.221,805.042 985.402,805.269 987.583,805.498 989.764,805.727 991.944,805.958 994.125,806.189 996.306,806.421 998.487,806.654 1000.67,806.889 1002.85,807.124 1005.03,807.36 1007.21,807.597 1009.39,807.834 1011.57,808.073 1013.75,808.313 1015.93,808.553 1018.11,808.795 1020.29,809.037 1022.48,809.28 1024.66,809.524 1026.84,809.769 1029.02,810.015 1031.2,810.262 1033.38,810.509 1035.56,810.758 1037.74,811.007 1039.92,811.257 1042.1,811.508 1044.28,811.76 1046.46,812.012 1048.64,812.265 1050.83,812.519 1053.01,812.774 1055.19,813.029 1057.37,813.286 1059.55,813.543 1061.73,813.8 1063.91,814.059 1066.09,814.318 1068.27,814.578 1070.45,814.838 1072.63,815.099 1074.81,815.361 1077,815.623 1079.18,815.886 1081.36,816.149 1083.54,816.414 1085.72,816.678 1087.9,816.943 1090.08,817.209 1092.26,817.475 1094.44,817.742 1096.62,818.009 1098.8,818.277 1100.98,818.545 1103.16,818.813 1105.35,819.082 1107.53,819.351 1109.71,819.621 1111.89,819.89 1114.07,820.161 1116.25,820.431 1118.43,820.702 1120.61,820.973 1122.79,821.244 1124.97,821.516 1127.15,821.787 1129.33,822.059 1131.51,822.332 1133.7,822.605 1135.88,822.878 1138.06,823.152 1140.24,823.426 1142.42,823.7 1144.6,823.975 1146.78,824.25 1148.96,824.525 1151.14,824.801 1153.32,825.077 1155.5,825.353 1157.68,825.63 1159.86,825.906 1162.05,826.183 1164.23,826.461 1166.41,826.738 1168.59,827.016 1170.77,827.294 1172.95,827.572 1175.13,827.85 1177.31,828.129 1179.49,828.408 1181.67,828.686 1183.85,828.965 1186.03,829.244 1188.22,829.524 1190.4,829.803 1192.58,830.082 1194.76,830.362 1196.94,830.641 1199.12,830.921 1201.3,831.2 1203.48,831.48 1205.66,831.76 1207.84,832.039 1210.02,832.319 1212.2,832.598 1214.38,832.878 1216.57,833.158 1218.75,833.437 1220.93,833.717 1223.11,833.996 1225.29,834.275 1227.47,834.554 1229.65,834.833 1231.83,835.112 1234.01,835.391 1236.19,835.67 1238.37,835.948 1240.55,836.226 1242.73,836.504 1244.92,836.782 1247.1,837.06 1249.28,837.338 1251.46,837.615 1253.64,837.892 1255.82,838.168 1258,838.445 1260.18,838.721 1262.36,838.997 1264.54,839.273 1266.72,839.548 1268.9,839.823 1271.09,840.097 1273.27,840.372 1275.45,840.645 1277.63,840.919 1279.81,841.192 1281.99,841.465 1284.17,841.737 1286.35,842.009 1288.53,842.28 1290.71,842.551 1292.89,842.821 1295.07,843.091 1297.25,843.361 1299.44,843.63 1301.62,843.898 1303.8,844.166 1305.98,844.434 1308.16,844.7 1310.34,844.967 1312.52,845.232 1314.7,845.499 1316.88,845.767 1319.06,846.036 1321.24,846.307 1323.42,846.579 1325.6,846.852 1327.79,847.125 1329.97,847.4 1332.15,847.675 1334.33,847.951 1336.51,848.227 1338.69,848.503 1340.87,848.78 1343.05,849.056 1345.23,849.333 1347.41,849.609 1349.59,849.885 1351.77,850.16 1353.96,850.435 1356.14,850.709 1358.32,850.983 1360.5,851.255 1362.68,851.527 1364.86,851.798 1367.04,852.068 1369.22,852.336 1371.4,852.604 1373.58,852.87 1375.76,853.134 1377.94,853.397 1380.12,853.659 1382.31,853.919 1384.49,854.177 1386.67,854.434 1388.85,854.689 1391.03,854.941 1393.21,855.192 1395.39,855.442 1397.57,855.689 1399.75,855.934 1401.93,856.176 1404.11,856.417 1406.29,856.656 1408.47,856.892 1410.66,857.126 1412.84,857.358 1415.02,857.588 1417.2,857.815 1419.38,858.04 1421.56,858.263 1423.74,858.483 1425.92,858.701 1428.1,858.917 1430.28,859.13 1432.46,859.341 1434.64,859.549 1436.83,859.755 1439.01,859.959 1441.19,860.16 1443.37,860.359 1445.55,860.556 1447.73,860.75 1449.91,860.942 1452.09,861.131 1454.27,861.319 1456.45,861.504 1458.63,861.687 1460.81,861.868 1462.99,862.046 1465.18,862.223 1467.36,862.398 1469.54,862.57 1471.72,862.741 1473.9,862.909 1476.08,863.076 1478.26,863.241 1480.44,863.404 1482.62,863.566 1484.8,863.726 1486.98,863.884 1489.16,864.041 1491.34,864.196 1493.53,864.35 1495.71,864.503 1497.89,864.655 1500.07,864.805 1502.25,864.955 1504.43,865.103 1506.61,865.251 1508.79,865.398 1510.97,865.545 1513.15,865.69 1515.33,865.836 1517.51,865.981 1519.69,866.126 1521.88,866.271 1524.06,866.415 1526.24,866.56 1528.42,866.705 1530.6,866.851 1532.78,866.997 1534.96,867.143 1537.14,867.29 1539.32,867.439 1541.5,867.588 1543.68,867.738 1545.86,867.89 1548.05,868.043 1550.23,868.197 1552.41,868.353 1554.59,868.512 1556.77,868.672 1558.95,868.834 1561.13,868.999 1563.31,869.166 1565.49,869.336 1567.67,869.507 1569.85,869.676 1572.03,869.845 1574.21,870.014 1576.4,870.181 1578.58,870.348 1580.76,870.513 1582.94,870.677 1585.12,870.84 1587.3,871.002 1589.48,871.162 1591.66,871.321 1593.84,871.478 1596.02,871.634 1598.2,871.788 1600.38,871.94 1602.56,872.09 1604.75,872.239 1606.93,872.386 1609.11,872.531 1611.29,872.673 1613.47,872.814 1615.65,872.953 1617.83,873.09 1620.01,873.225 1622.19,873.357 1624.37,873.488 1626.55,873.616 1628.73,873.742 1630.92,873.866 1633.1,873.988 1635.28,874.108 1637.46,874.226 1639.64,874.342 1641.82,874.456 1644,874.567 1646.18,874.677 1648.36,874.784 1650.54,874.89 1652.72,874.994 1654.9,875.096 1657.08,875.196 1659.27,875.294 1661.45,875.39 1663.63,875.485 1665.81,875.578 1667.99,875.67 1670.17,875.76 1672.35,875.849 1674.53,875.937 1676.71,876.023 1678.89,876.109 1681.07,876.193 1683.25,876.276 1685.43,876.358 1687.62,876.44 1689.8,876.521 1691.98,876.601 1694.16,876.681 1696.34,876.761 1698.52,876.841 1700.7,876.92 1702.88,877 1705.06,877.08 1707.24,877.16 1709.42,877.241 1711.6,877.322 1713.79,877.404 1715.97,877.487 1718.15,877.572 1720.33,877.657 1722.51,877.743 1724.69,877.83 1726.87,877.917 1729.05,878.005 1731.23,878.093 1733.41,878.182 1735.59,878.27 1737.77,878.358 1739.95,878.445 1742.14,878.533 1744.32,878.619 1746.5,878.705 1748.68,878.79 1750.86,878.875 1753.04,878.958 1755.22,879.04 1757.4,879.121 1759.58,879.201 1761.76,879.28 1763.94,879.357 1766.12,879.432 1768.3,879.506 1770.49,879.579 1772.67,879.65 1774.85,879.719 1777.03,879.786 1779.21,879.852 1781.39,879.915 1783.57,879.977 1785.75,880.038 1787.93,880.096 1790.11,880.152 1792.29,880.207 1794.47,880.259 1796.66,880.31 1798.84,880.359 1801.02,880.406 1803.2,880.451 1805.38,880.494 1807.56,880.535 1809.74,880.575 1811.92,880.613 1814.1,880.65 1816.28,880.684 1818.46,880.718 1820.64,880.749 1822.82,880.779 1825.01,880.808 1827.19,880.836 1829.37,880.862 1831.55,880.888 1833.73,880.912 1835.91,880.935 1838.09,880.958 1840.27,880.979 1842.45,881.001 1844.63,881.021 1846.81,881.042 1848.99,881.062 1851.17,881.082 1853.36,881.102 1855.54,881.122 1857.72,881.143 1859.9,881.164 1862.08,881.185 1864.26,881.208 1866.44,881.231 1868.62,881.256 1870.8,881.282 1872.98,881.31 1875.16,881.339 1877.34,881.37 1879.52,881.403 1881.71,881.439 1883.89,881.477 1886.07,881.518 1888.25,881.561 1890.43,881.607 1892.61,881.653 1894.79,881.701 1896.97,881.75 1899.15,881.8 1901.33,881.85 1903.51,881.901 1905.69,881.953 1907.88,882.004 1910.06,882.055 1912.24,882.106 1914.42,882.157 1916.6,882.208 1918.78,882.257 1920.96,882.306 1923.14,882.355 1925.32,882.402 1927.5,882.449 1929.68,882.494 1931.86,882.538 1934.04,882.581 1936.23,882.622 1938.41,882.663 1940.59,882.701 1942.77,882.738 1944.95,882.774 1947.13,882.808 1949.31,882.84 1951.49,882.871 1953.67,882.899 1955.85,882.927 1958.03,882.952 1960.21,882.976 1962.39,882.998 1964.58,883.018 1966.76,883.037 1968.94,883.054 1971.12,883.069 1973.3,883.083 1975.48,883.095 1977.66,883.106 1979.84,883.115 1982.02,883.123 1984.2,883.129 1986.38,883.135 1988.56,883.139 1990.75,883.142 1992.93,883.144 1995.11,883.146 1997.29,883.147 1999.47,883.147 2001.65,883.146 2003.83,883.145 2006.01,883.145 2008.19,883.144 2010.37,883.143 2012.55,883.142 2014.73,883.142 2016.91,883.142 2019.1,883.143 2021.28,883.145 2023.46,883.148 2025.64,883.153 2027.82,883.159 2030,883.167 2032.18,883.176 2034.36,883.188 2036.54,883.203 2038.72,883.22 2040.9,883.24 2043.08,883.263 2045.26,883.289 2047.45,883.319 2049.63,883.352 2051.81,883.388 2053.99,883.426 2056.17,883.465 2058.35,883.506 2060.53,883.549 2062.71,883.593 2064.89,883.637 2067.07,883.682 2069.25,883.727 2071.43,883.773 2073.62,883.818 2075.8,883.863 2077.98,883.908 2080.16,883.952 2082.34,883.995 2084.52,884.037 2086.7,884.078 2088.88,884.118 2091.06,884.157 2093.24,884.194 2095.42,884.229 2097.6,884.263 2099.78,884.295 2101.97,884.325 2104.15,884.353 2106.33,884.379 2108.51,884.403 2110.69,884.425 2112.87,884.445 2115.05,884.463 2117.23,884.478 2119.41,884.492 2121.59,884.503 2123.77,884.512 2125.95,884.519 2128.13,884.524 2130.32,884.527 2132.5,884.529 2134.68,884.528 2136.86,884.525 2139.04,884.521 2141.22,884.515 2143.4,884.508 2145.58,884.499 2147.76,884.489 2149.94,884.478 2152.12,884.466 2154.3,884.453 2156.49,884.439 2158.67,884.425 2160.85,884.411 2163.03,884.397 2165.21,884.382 2167.39,884.368 2169.57,884.355 2171.75,884.343 2173.93,884.331 2176.11,884.321 2178.29,884.312 2180.47,884.306 2182.65,884.301 2184.84,884.299 2187.02,884.3 2189.2,884.303 2191.38,884.31 2193.56,884.321 2195.74,884.336 2197.92,884.355 2200.1,884.379 2202.28,884.408 2204.46,884.443 2206.64,884.483 2208.82,884.528 2211,884.576 2213.19,884.628 2215.37,884.684 2217.55,884.741 2219.73,884.801 2221.91,884.861 2224.09,884.923 2226.27,884.986 2228.45,885.048 2230.63,885.111 2232.81,885.172 2234.99,885.233 2237.17,885.292 2239.35,885.349 2241.54,885.405 2243.72,885.458 2245.9,885.509 2248.08,885.557 2250.26,885.602 2252.44,885.643 2254.62,885.682 2256.8,885.717 2258.98,885.748 2261.16,885.776 2263.34,885.8 2265.52,885.82 2267.71,885.836 2269.89,885.848 2272.07,885.857 2274.25,885.861 2276.43,885.862 2278.61,885.858 2280.79,885.851 2282.97,885.841 2285.15,885.826 2287.33,885.809 2289.51,885.788 2291.69,885.764 2293.87,885.738 2296.06,885.709 2298.24,885.677 2300.42,885.644 2302.6,885.608 2304.78,885.572 2306.96,885.534 2309.14,885.495 2311.32,885.456 2313.5,885.417 2315.68,885.379 2317.86,885.341 2320.04,885.305 2322.22,885.27 2324.41,885.238 2326.59,885.208 2328.77,885.182 2330.95,885.16 2333.13,885.143 2335.31,885.13 2337.49,885.123 2339.67,885.123 2341.85,885.13 2344.03,885.144 2346.21,885.167 2348.39,885.199 2350.58,885.242 2352.76,885.291 "/>
<polyline clip-path="url(#clip312)" style="stroke:#3da44d; stroke-linecap:round; stroke-linejoin:round; stroke-width:8; stroke-opacity:1; fill:none" points="174.149,1386.4 176.33,1368.94 178.51,1351.98 180.691,1335.51 182.872,1319.51 185.053,1303.97 187.234,1288.87 189.414,1274.2 191.595,1259.95 193.776,1246.11 195.957,1232.67 198.138,1219.61 200.318,1206.92 202.499,1194.59 204.68,1182.62 206.861,1170.99 209.042,1159.69 211.222,1148.72 213.403,1138.06 215.584,1127.7 217.765,1117.64 219.945,1107.87 222.126,1098.38 224.307,1089.16 226.488,1080.2 228.669,1071.5 230.849,1063.05 233.03,1054.84 235.211,1046.87 237.392,1039.12 239.573,1031.6 241.753,1024.29 243.934,1017.19 246.115,1010.3 248.296,1003.6 250.476,997.092 252.657,990.772 254.838,984.633 257.019,978.67 259.2,972.879 261.38,967.253 263.561,961.789 265.742,956.482 267.923,951.327 270.104,946.32 272.284,941.457 274.465,936.733 276.646,932.145 278.827,927.689 281.008,923.36 283.188,919.156 285.369,915.072 287.55,911.106 289.731,907.254 291.911,903.512 294.092,899.879 296.273,896.35 298.454,892.922 300.635,889.594 302.815,886.361 304.996,883.222 307.177,880.173 309.358,877.213 311.539,874.337 313.719,871.544 315.9,868.832 318.081,866.198 320.262,863.64 322.442,861.156 324.623,858.743 326.804,856.4 328.985,854.125 331.166,851.915 333.346,849.77 335.527,847.686 337.708,845.664 339.889,843.7 342.07,841.793 344.25,839.941 346.431,838.144 348.612,836.399 350.793,834.704 352.974,833.059 355.154,831.462 357.335,829.912 359.516,828.406 361.697,826.945 363.877,825.526 366.058,824.148 368.239,822.81 370.42,821.512 372.601,820.251 374.781,819.027 376.962,817.839 379.143,816.685 381.324,815.566 383.505,814.479 385.685,813.425 387.866,812.402 390.047,811.409 392.228,810.446 394.408,809.511 396.589,808.604 398.77,807.724 400.951,806.87 403.132,806.042 405.312,805.239 407.493,804.459 409.674,803.703 411.855,802.97 414.036,802.258 416.216,801.568 418.397,800.899 420.578,800.249 422.759,799.619 424.94,799.008 427.12,798.415 429.301,797.84 431.482,797.283 433.663,796.742 435.843,796.218 438.024,795.709 440.205,795.216 442.386,794.739 444.567,794.276 446.747,793.828 448.928,793.394 451.109,792.973 453.29,792.566 455.471,792.171 457.651,791.79 459.832,791.42 462.013,791.062 464.194,790.715 466.374,790.38 468.555,790.056 470.736,789.742 472.917,789.438 475.098,789.144 477.278,788.86 479.459,788.585 481.64,788.319 483.821,788.062 486.002,787.814 488.182,787.573 490.363,787.341 492.544,787.116 494.725,786.899 496.906,786.689 499.086,786.486 501.267,786.29 503.448,786.101 505.629,785.919 507.809,785.743 509.99,785.574 512.171,785.411 514.352,785.253 516.533,785.102 518.713,784.956 520.894,784.816 523.075,784.682 525.256,784.553 527.437,784.429 529.617,784.31 531.798,784.196 533.979,784.086 536.16,783.982 538.34,783.881 540.521,783.786 542.702,783.694 544.883,783.607 547.064,783.523 549.244,783.444 551.425,783.368 553.606,783.296 555.787,783.228 557.968,783.163 560.148,783.102 562.329,783.043 564.51,782.988 566.691,782.936 568.872,782.887 571.052,782.84 573.233,782.797 575.414,782.756 577.595,782.718 579.775,782.683 581.956,782.65 584.137,782.619 586.318,782.592 588.499,782.566 590.679,782.543 592.86,782.523 595.041,782.505 597.222,782.489 599.403,782.475 601.583,782.463 603.764,782.454 605.945,782.447 608.126,782.442 610.306,782.439 612.487,782.438 614.668,782.438 616.849,782.441 619.03,782.446 621.21,782.452 623.391,782.46 625.572,782.47 627.753,782.482 629.934,782.495 632.114,782.51 634.295,782.527 636.476,782.545 638.657,782.565 640.838,782.586 643.018,782.609 645.199,782.633 647.38,782.658 649.561,782.685 651.741,782.713 653.922,782.742 656.103,782.773 658.284,782.805 660.465,782.837 662.645,782.871 664.826,782.907 667.007,782.943 669.188,782.98 671.369,783.019 673.549,783.058 675.73,783.099 677.911,783.141 680.092,783.184 682.272,783.228 684.453,783.273 686.634,783.319 688.815,783.366 690.996,783.414 693.176,783.464 695.357,783.514 697.538,783.565 699.719,783.618 701.9,783.671 704.08,783.726 706.261,783.781 708.442,783.837 710.623,783.895 712.803,783.953 714.984,784.013 717.165,784.073 719.346,784.134 721.527,784.197 723.707,784.26 725.888,784.324 728.069,784.389 730.25,784.455 732.431,784.522 734.611,784.59 736.792,784.659 738.973,784.728 741.154,784.799 743.335,784.87 745.515,784.943 747.696,785.016 749.877,785.09 752.058,785.165 754.238,785.24 756.419,785.317 758.6,785.394 760.781,785.472 762.962,785.551 765.142,785.631 767.323,785.712 769.504,785.793 771.685,785.875 773.866,785.958 776.046,786.042 778.227,786.126 780.408,786.211 782.589,786.297 784.769,786.384 786.95,786.471 789.131,786.56 791.312,786.649 793.493,786.739 795.673,786.83 797.854,786.922 800.035,787.014 802.216,787.107 804.397,787.201 806.577,787.296 808.758,787.392 810.939,787.489 813.12,787.586 815.301,787.684 817.481,787.783 819.662,787.883 821.843,787.984 824.024,788.085 826.204,788.188 828.385,788.291 830.566,788.395 832.747,788.5 834.928,788.606 837.108,788.712 839.289,788.819 841.47,788.928 843.651,789.037 845.832,789.147 848.012,789.257 850.193,789.369 852.374,789.481 854.555,789.595 856.735,789.709 858.916,789.824 861.097,789.94 863.278,790.056 865.459,790.174 867.639,790.292 869.82,790.411 872.001,790.531 874.182,790.652 876.363,790.774 878.543,790.897 880.724,791.02 882.905,791.144 885.086,791.27 887.267,791.396 889.447,791.523 891.628,791.65 893.809,791.779 895.99,791.908 898.17,792.039 900.351,792.17 902.532,792.302 904.713,792.435 906.894,792.569 909.074,792.703 911.255,792.839 913.436,792.975 915.617,793.112 917.798,793.25 919.978,793.389 922.159,793.529 924.34,793.67 926.521,793.812 928.701,793.954 930.882,794.098 933.063,794.243 935.244,794.389 937.425,794.535 939.605,794.683 941.786,794.831 943.967,794.981 946.148,795.131 948.329,795.283 950.509,795.435 952.69,795.588 954.871,795.742 957.052,795.897 959.233,796.053 961.413,796.21 963.594,796.367 965.775,796.526 967.956,796.685 970.136,796.846 972.317,797.007 974.498,797.169 976.679,797.332 978.86,797.495 981.04,797.66 983.221,797.825 985.402,797.991 987.583,798.159 989.764,798.326 991.944,798.495 994.125,798.665 996.306,798.835 998.487,799.006 1000.67,799.178 1002.85,799.351 1005.03,799.525 1007.21,799.699 1009.39,799.875 1011.57,800.051 1013.75,800.228 1015.93,800.405 1018.11,800.584 1020.29,800.763 1022.48,800.944 1024.66,801.124 1026.84,801.306 1029.02,801.489 1031.2,801.672 1033.38,801.856 1035.56,802.041 1037.74,802.227 1039.92,802.414 1042.1,802.601 1044.28,802.789 1046.46,802.978 1048.64,803.168 1050.83,803.358 1053.01,803.55 1055.19,803.742 1057.37,803.935 1059.55,804.129 1061.73,804.323 1063.91,804.519 1066.09,804.715 1068.27,804.912 1070.45,805.11 1072.63,805.309 1074.81,805.509 1077,805.709 1079.18,805.91 1081.36,806.112 1083.54,806.315 1085.72,806.519 1087.9,806.724 1090.08,806.929 1092.26,807.135 1094.44,807.343 1096.62,807.551 1098.8,807.759 1100.98,807.969 1103.16,808.18 1105.35,808.392 1107.53,808.604 1109.71,808.817 1111.89,809.032 1114.07,809.247 1116.25,809.463 1118.43,809.68 1120.61,809.898 1122.79,810.116 1124.97,810.336 1127.15,810.557 1129.33,810.778 1131.51,811 1133.7,811.223 1135.88,811.447 1138.06,811.671 1140.24,811.896 1142.42,812.121 1144.6,812.348 1146.78,812.575 1148.96,812.802 1151.14,813.03 1153.32,813.259 1155.5,813.489 1157.68,813.719 1159.86,813.95 1162.05,814.182 1164.23,814.414 1166.41,814.646 1168.59,814.88 1170.77,815.114 1172.95,815.348 1175.13,815.584 1177.31,815.819 1179.49,816.056 1181.67,816.293 1183.85,816.53 1186.03,816.768 1188.22,817.007 1190.4,817.246 1192.58,817.486 1194.76,817.726 1196.94,817.967 1199.12,818.208 1201.3,818.45 1203.48,818.693 1205.66,818.936 1207.84,819.179 1210.02,819.423 1212.2,819.667 1214.38,819.912 1216.57,820.158 1218.75,820.403 1220.93,820.65 1223.11,820.896 1225.29,821.144 1227.47,821.391 1229.65,821.639 1231.83,821.888 1234.01,822.137 1236.19,822.386 1238.37,822.635 1240.55,822.886 1242.73,823.136 1244.92,823.387 1247.1,823.638 1249.28,823.889 1251.46,824.141 1253.64,824.394 1255.82,824.646 1258,824.899 1260.18,825.152 1262.36,825.406 1264.54,825.659 1266.72,825.913 1268.9,826.168 1271.09,826.422 1273.27,826.677 1275.45,826.932 1277.63,827.188 1279.81,827.443 1281.99,827.699 1284.17,827.955 1286.35,828.211 1288.53,828.468 1290.71,828.724 1292.89,828.981 1295.07,829.238 1297.25,829.495 1299.44,829.752 1301.62,830.01 1303.8,830.267 1305.98,830.525 1308.16,830.783 1310.34,831.04 1312.52,831.298 1314.7,831.555 1316.88,831.811 1319.06,832.065 1321.24,832.318 1323.42,832.57 1325.6,832.821 1327.79,833.07 1329.97,833.319 1332.15,833.566 1334.33,833.813 1336.51,834.059 1338.69,834.305 1340.87,834.549 1343.05,834.793 1345.23,835.037 1347.41,835.28 1349.59,835.523 1351.77,835.766 1353.96,836.008 1356.14,836.25 1358.32,836.492 1360.5,836.734 1362.68,836.975 1364.86,837.217 1367.04,837.459 1369.22,837.7 1371.4,837.942 1373.58,838.184 1375.76,838.427 1377.94,838.669 1380.12,838.912 1382.31,839.155 1384.49,839.398 1386.67,839.642 1388.85,839.886 1391.03,840.13 1393.21,840.375 1395.39,840.621 1397.57,840.866 1399.75,841.113 1401.93,841.36 1404.11,841.607 1406.29,841.855 1408.47,842.103 1410.66,842.352 1412.84,842.601 1415.02,842.851 1417.2,843.102 1419.38,843.353 1421.56,843.605 1423.74,843.857 1425.92,844.11 1428.1,844.363 1430.28,844.617 1432.46,844.871 1434.64,845.126 1436.83,845.381 1439.01,845.637 1441.19,845.893 1443.37,846.15 1445.55,846.407 1447.73,846.664 1449.91,846.922 1452.09,847.181 1454.27,847.439 1456.45,847.698 1458.63,847.957 1460.81,848.216 1462.99,848.476 1465.18,848.735 1467.36,848.995 1469.54,849.255 1471.72,849.514 1473.9,849.774 1476.08,850.034 1478.26,850.293 1480.44,850.553 1482.62,850.812 1484.8,851.071 1486.98,851.329 1489.16,851.587 1491.34,851.845 1493.53,852.102 1495.71,852.358 1497.89,852.614 1500.07,852.869 1502.25,853.124 1504.43,853.377 1506.61,853.63 1508.79,853.881 1510.97,854.132 1513.15,854.381 1515.33,854.629 1517.51,854.875 1519.69,855.121 1521.88,855.365 1524.06,855.607 1526.24,855.847 1528.42,856.086 1530.6,856.323 1532.78,856.558 1534.96,856.791 1537.14,857.021 1539.32,857.25 1541.5,857.476 1543.68,857.699 1545.86,857.92 1548.05,858.139 1550.23,858.354 1552.41,858.567 1554.59,858.777 1556.77,858.983 1558.95,859.187 1561.13,859.386 1563.31,859.583 1565.49,859.776 1567.67,859.967 1569.85,860.157 1572.03,860.346 1574.21,860.533 1576.4,860.72 1578.58,860.906 1580.76,861.091 1582.94,861.276 1585.12,861.459 1587.3,861.642 1589.48,861.825 1591.66,862.006 1593.84,862.187 1596.02,862.368 1598.2,862.548 1600.38,862.727 1602.56,862.906 1604.75,863.085 1606.93,863.263 1609.11,863.441 1611.29,863.618 1613.47,863.795 1615.65,863.972 1617.83,864.149 1620.01,864.325 1622.19,864.501 1624.37,864.676 1626.55,864.852 1628.73,865.027 1630.92,865.202 1633.1,865.376 1635.28,865.551 1637.46,865.725 1639.64,865.898 1641.82,866.072 1644,866.245 1646.18,866.418 1648.36,866.59 1650.54,866.762 1652.72,866.934 1654.9,867.105 1657.08,867.276 1659.27,867.446 1661.45,867.616 1663.63,867.785 1665.81,867.954 1667.99,868.122 1670.17,868.289 1672.35,868.456 1674.53,868.622 1676.71,868.787 1678.89,868.951 1681.07,869.115 1683.25,869.277 1685.43,869.439 1687.62,869.599 1689.8,869.759 1691.98,869.917 1694.16,870.074 1696.34,870.229 1698.52,870.384 1700.7,870.536 1702.88,870.687 1705.06,870.837 1707.24,870.985 1709.42,871.131 1711.6,871.275 1713.79,871.418 1715.97,871.558 1718.15,871.696 1720.33,871.832 1722.51,871.967 1724.69,872.1 1726.87,872.231 1729.05,872.361 1731.23,872.489 1733.41,872.616 1735.59,872.742 1737.77,872.866 1739.95,872.99 1742.14,873.112 1744.32,873.234 1746.5,873.354 1748.68,873.474 1750.86,873.593 1753.04,873.711 1755.22,873.828 1757.4,873.945 1759.58,874.061 1761.76,874.176 1763.94,874.291 1766.12,874.406 1768.3,874.52 1770.49,874.634 1772.67,874.747 1774.85,874.86 1777.03,874.973 1779.21,875.085 1781.39,875.198 1783.57,875.309 1785.75,875.421 1787.93,875.533 1790.11,875.644 1792.29,875.755 1794.47,875.866 1796.66,875.977 1798.84,876.087 1801.02,876.198 1803.2,876.308 1805.38,876.418 1807.56,876.528 1809.74,876.637 1811.92,876.747 1814.1,876.856 1816.28,876.965 1818.46,877.073 1820.64,877.182 1822.82,877.289 1825.01,877.397 1827.19,877.504 1829.37,877.611 1831.55,877.717 1833.73,877.823 1835.91,877.928 1838.09,878.033 1840.27,878.137 1842.45,878.24 1844.63,878.343 1846.81,878.444 1848.99,878.545 1851.17,878.645 1853.36,878.744 1855.54,878.842 1857.72,878.939 1859.9,879.034 1862.08,879.129 1864.26,879.222 1866.44,879.313 1868.62,879.403 1870.8,879.492 1872.98,879.579 1875.16,879.664 1877.34,879.747 1879.52,879.828 1881.71,879.908 1883.89,879.985 1886.07,880.06 1888.25,880.132 1890.43,880.203 1892.61,880.273 1894.79,880.342 1896.97,880.409 1899.15,880.475 1901.33,880.541 1903.51,880.605 1905.69,880.669 1907.88,880.731 1910.06,880.793 1912.24,880.855 1914.42,880.916 1916.6,880.976 1918.78,881.036 1920.96,881.095 1923.14,881.155 1925.32,881.213 1927.5,881.272 1929.68,881.331 1931.86,881.389 1934.04,881.447 1936.23,881.505 1938.41,881.564 1940.59,881.622 1942.77,881.68 1944.95,881.738 1947.13,881.796 1949.31,881.855 1951.49,881.913 1953.67,881.972 1955.85,882.031 1958.03,882.09 1960.21,882.149 1962.39,882.208 1964.58,882.267 1966.76,882.327 1968.94,882.387 1971.12,882.447 1973.3,882.506 1975.48,882.567 1977.66,882.627 1979.84,882.687 1982.02,882.747 1984.2,882.808 1986.38,882.868 1988.56,882.928 1990.75,882.988 1992.93,883.048 1995.11,883.108 1997.29,883.168 1999.47,883.228 2001.65,883.287 2003.83,883.346 2006.01,883.404 2008.19,883.462 2010.37,883.52 2012.55,883.577 2014.73,883.633 2016.91,883.689 2019.1,883.743 2021.28,883.797 2023.46,883.85 2025.64,883.902 2027.82,883.953 2030,884.003 2032.18,884.052 2034.36,884.099 2036.54,884.144 2038.72,884.189 2040.9,884.231 2043.08,884.272 2045.26,884.311 2047.45,884.347 2049.63,884.383 2051.81,884.417 2053.99,884.45 2056.17,884.482 2058.35,884.513 2060.53,884.544 2062.71,884.574 2064.89,884.603 2067.07,884.631 2069.25,884.659 2071.43,884.687 2073.62,884.715 2075.8,884.742 2077.98,884.769 2080.16,884.797 2082.34,884.824 2084.52,884.851 2086.7,884.878 2088.88,884.906 2091.06,884.934 2093.24,884.962 2095.42,884.99 2097.6,885.019 2099.78,885.048 2101.97,885.078 2104.15,885.108 2106.33,885.139 2108.51,885.17 2110.69,885.201 2112.87,885.233 2115.05,885.266 2117.23,885.299 2119.41,885.333 2121.59,885.367 2123.77,885.402 2125.95,885.437 2128.13,885.473 2130.32,885.51 2132.5,885.547 2134.68,885.584 2136.86,885.622 2139.04,885.66 2141.22,885.698 2143.4,885.737 2145.58,885.777 2147.76,885.816 2149.94,885.856 2152.12,885.895 2154.3,885.935 2156.49,885.975 2158.67,886.015 2160.85,886.055 2163.03,886.094 2165.21,886.134 2167.39,886.173 2169.57,886.212 2171.75,886.25 2173.93,886.287 2176.11,886.324 2178.29,886.361 2180.47,886.396 2182.65,886.43 2184.84,886.464 2187.02,886.496 2189.2,886.526 2191.38,886.556 2193.56,886.584 2195.74,886.61 2197.92,886.634 2200.1,886.657 2202.28,886.677 2204.46,886.696 2206.64,886.712 2208.82,886.727 2211,886.741 2213.19,886.753 2215.37,886.765 2217.55,886.775 2219.73,886.785 2221.91,886.794 2224.09,886.803 2226.27,886.812 2228.45,886.82 2230.63,886.829 2232.81,886.838 2234.99,886.847 2237.17,886.856 2239.35,886.866 2241.54,886.876 2243.72,886.887 2245.9,886.898 2248.08,886.911 2250.26,886.924 2252.44,886.938 2254.62,886.954 2256.8,886.97 2258.98,886.987 2261.16,887.006 2263.34,887.025 2265.52,887.046 2267.71,887.068 2269.89,887.091 2272.07,887.115 2274.25,887.141 2276.43,887.167 2278.61,887.195 2280.79,887.224 2282.97,887.253 2285.15,887.284 2287.33,887.316 2289.51,887.349 2291.69,887.383 2293.87,887.417 2296.06,887.453 2298.24,887.489 2300.42,887.525 2302.6,887.562 2304.78,887.6 2306.96,887.637 2309.14,887.675 2311.32,887.713 2313.5,887.751 2315.68,887.789 2317.86,887.826 2320.04,887.863 2322.22,887.899 2324.41,887.934 2326.59,887.969 2328.77,888.002 2330.95,888.034 2333.13,888.064 2335.31,888.093 2337.49,888.119 2339.67,888.144 2341.85,888.166 2344.03,888.186 2346.21,888.203 2348.39,888.217 2350.58,888.228 2352.76,888.236 "/>
<circle clip-path="url(#clip312)" cx="317.872" cy="872.011" r="18" fill="#c271d2" fill-rule="evenodd" fill-opacity="1" stroke="#000000" stroke-opacity="1" stroke-width="3.2"/>
<circle clip-path="url(#clip312)" cx="424.596" cy="780.75" r="18" fill="#c271d2" fill-rule="evenodd" fill-opacity="1" stroke="#000000" stroke-opacity="1" stroke-width="3.2"/>
<circle clip-path="url(#clip312)" cx="620.258" cy="797.343" r="18" fill="#c271d2" fill-rule="evenodd" fill-opacity="1" stroke="#000000" stroke-opacity="1" stroke-width="3.2"/>
<circle clip-path="url(#clip312)" cx="1623.47" cy="826.381" r="18" fill="#c271d2" fill-rule="evenodd" fill-opacity="1" stroke="#000000" stroke-opacity="1" stroke-width="3.2"/>
<circle clip-path="url(#clip312)" cx="1824.47" cy="946.68" r="18" fill="#c271d2" fill-rule="evenodd" fill-opacity="1" stroke="#000000" stroke-opacity="1" stroke-width="3.2"/>
<circle clip-path="url(#clip312)" cx="1991.67" cy="867.863" r="18" fill="#c271d2" fill-rule="evenodd" fill-opacity="1" stroke="#000000" stroke-opacity="1" stroke-width="3.2"/>
<circle clip-path="url(#clip312)" cx="2139.31" cy="859.567" r="18" fill="#c271d2" fill-rule="evenodd" fill-opacity="1" stroke="#000000" stroke-opacity="1" stroke-width="3.2"/>
<path clip-path="url(#clip310)" d="M1712.9 425.996 L2280.14 425.996 L2280.14 166.796 L1712.9 166.796  Z" fill="#ffffff" fill-rule="evenodd" fill-opacity="1"/>
<polyline clip-path="url(#clip310)" style="stroke:#000000; stroke-linecap:round; stroke-linejoin:round; stroke-width:4; stroke-opacity:1; fill:none" points="1712.9,425.996 2280.14,425.996 2280.14,166.796 1712.9,166.796 1712.9,425.996 "/>
<polyline clip-path="url(#clip310)" style="stroke:#009af9; stroke-linecap:round; stroke-linejoin:round; stroke-width:8; stroke-opacity:1; fill:none" points="1737.11,218.636 1882.35,218.636 "/>
<path clip-path="url(#clip310)" d="M1928.8 202.49 L1928.8 207.05 Q1926.14 205.777 1923.78 205.152 Q1921.42 204.527 1919.22 204.527 Q1915.4 204.527 1913.32 206.008 Q1911.25 207.49 1911.25 210.221 Q1911.25 212.513 1912.62 213.694 Q1914.01 214.851 1917.85 215.569 L1920.68 216.147 Q1925.91 217.143 1928.38 219.666 Q1930.88 222.166 1930.88 226.379 Q1930.88 231.402 1927.5 233.994 Q1924.15 236.587 1917.64 236.587 Q1915.19 236.587 1912.41 236.031 Q1909.66 235.476 1906.69 234.388 L1906.69 229.573 Q1909.54 231.17 1912.27 231.981 Q1915 232.791 1917.64 232.791 Q1921.65 232.791 1923.82 231.217 Q1926 229.643 1926 226.726 Q1926 224.18 1924.43 222.744 Q1922.88 221.309 1919.31 220.592 L1916.46 220.036 Q1911.23 218.995 1908.89 216.772 Q1906.56 214.55 1906.56 210.592 Q1906.56 206.008 1909.77 203.37 Q1913.01 200.731 1918.69 200.731 Q1921.12 200.731 1923.64 201.171 Q1926.16 201.61 1928.8 202.49 Z" fill="#000000" fill-rule="nonzero" fill-opacity="1" /><path clip-path="url(#clip310)" d="M1949.77 222.883 Q1944.61 222.883 1942.62 224.064 Q1940.63 225.244 1940.63 228.092 Q1940.63 230.36 1942.11 231.703 Q1943.62 233.022 1946.19 233.022 Q1949.73 233.022 1951.86 230.522 Q1954.01 227.999 1954.01 223.832 L1954.01 222.883 L1949.77 222.883 M1958.27 221.124 L1958.27 235.916 L1954.01 235.916 L1954.01 231.981 Q1952.55 234.342 1950.38 235.476 Q1948.2 236.587 1945.05 236.587 Q1941.07 236.587 1938.71 234.365 Q1936.37 232.119 1936.37 228.369 Q1936.37 223.994 1939.29 221.772 Q1942.23 219.55 1948.04 219.55 L1954.01 219.55 L1954.01 219.133 Q1954.01 216.194 1952.06 214.596 Q1950.14 212.976 1946.65 212.976 Q1944.43 212.976 1942.32 213.508 Q1940.21 214.041 1938.27 215.106 L1938.27 211.17 Q1940.61 210.268 1942.81 209.828 Q1945 209.365 1947.09 209.365 Q1952.71 209.365 1955.49 212.282 Q1958.27 215.198 1958.27 221.124 Z" fill="#000000" fill-rule="nonzero" fill-opacity="1" /><path clip-path="url(#clip310)" d="M1982.06 213.971 Q1981.35 213.555 1980.49 213.37 Q1979.66 213.161 1978.64 213.161 Q1975.03 213.161 1973.08 215.522 Q1971.16 217.86 1971.16 222.258 L1971.16 235.916 L1966.88 235.916 L1966.88 209.99 L1971.16 209.99 L1971.16 214.018 Q1972.5 211.657 1974.66 210.522 Q1976.81 209.365 1979.89 209.365 Q1980.33 209.365 1980.86 209.434 Q1981.39 209.481 1982.04 209.596 L1982.06 213.971 Z" fill="#000000" fill-rule="nonzero" fill-opacity="1" /><path clip-path="url(#clip310)" d="M2004.15 210.985 L2004.15 214.967 Q2002.34 213.971 2000.51 213.485 Q1998.71 212.976 1996.86 212.976 Q1992.71 212.976 1990.42 215.615 Q1988.13 218.231 1988.13 222.976 Q1988.13 227.721 1990.42 230.36 Q1992.71 232.976 1996.86 232.976 Q1998.71 232.976 2000.51 232.49 Q2002.34 231.981 2004.15 230.985 L2004.15 234.92 Q2002.37 235.754 2000.44 236.17 Q1998.55 236.587 1996.39 236.587 Q1990.54 236.587 1987.09 232.906 Q1983.64 229.226 1983.64 222.976 Q1983.64 216.633 1987.11 212.999 Q1990.61 209.365 1996.67 209.365 Q1998.64 209.365 2000.51 209.782 Q2002.39 210.175 2004.15 210.985 Z" fill="#000000" fill-rule="nonzero" fill-opacity="1" /><path clip-path="url(#clip310)" d="M2021.6 212.976 Q2018.18 212.976 2016.18 215.661 Q2014.19 218.323 2014.19 222.976 Q2014.19 227.629 2016.16 230.314 Q2018.15 232.976 2021.6 232.976 Q2025 232.976 2026.99 230.291 Q2028.99 227.606 2028.99 222.976 Q2028.99 218.37 2026.99 215.684 Q2025 212.976 2021.6 212.976 M2021.6 209.365 Q2027.16 209.365 2030.33 212.976 Q2033.5 216.587 2033.5 222.976 Q2033.5 229.342 2030.33 232.976 Q2027.16 236.587 2021.6 236.587 Q2016.02 236.587 2012.85 232.976 Q2009.7 229.342 2009.7 222.976 Q2009.7 216.587 2012.85 212.976 Q2016.02 209.365 2021.6 209.365 Z" fill="#000000" fill-rule="nonzero" fill-opacity="1" /><path clip-path="url(#clip310)" d="M2060.74 214.967 Q2062.34 212.096 2064.56 210.731 Q2066.79 209.365 2069.8 209.365 Q2073.85 209.365 2076.05 212.212 Q2078.24 215.036 2078.24 220.268 L2078.24 235.916 L2073.96 235.916 L2073.96 220.407 Q2073.96 216.68 2072.64 214.874 Q2071.32 213.069 2068.62 213.069 Q2065.3 213.069 2063.38 215.268 Q2061.46 217.467 2061.46 221.263 L2061.46 235.916 L2057.18 235.916 L2057.18 220.407 Q2057.18 216.657 2055.86 214.874 Q2054.54 213.069 2051.79 213.069 Q2048.52 213.069 2046.6 215.291 Q2044.68 217.49 2044.68 221.263 L2044.68 235.916 L2040.4 235.916 L2040.4 209.99 L2044.68 209.99 L2044.68 214.018 Q2046.14 211.633 2048.18 210.499 Q2050.21 209.365 2053.01 209.365 Q2055.84 209.365 2057.8 210.8 Q2059.8 212.235 2060.74 214.967 Z" fill="#000000" fill-rule="nonzero" fill-opacity="1" /><path clip-path="url(#clip310)" d="M2108.92 221.888 L2108.92 223.971 L2089.33 223.971 Q2089.61 228.369 2091.97 230.684 Q2094.36 232.976 2098.59 232.976 Q2101.05 232.976 2103.34 232.374 Q2105.65 231.772 2107.92 230.569 L2107.92 234.596 Q2105.63 235.568 2103.22 236.078 Q2100.81 236.587 2098.34 236.587 Q2092.13 236.587 2088.5 232.976 Q2084.89 229.365 2084.89 223.207 Q2084.89 216.842 2088.31 213.115 Q2091.76 209.365 2097.6 209.365 Q2102.83 209.365 2105.86 212.745 Q2108.92 216.101 2108.92 221.888 M2104.66 220.638 Q2104.61 217.143 2102.69 215.059 Q2100.79 212.976 2097.64 212.976 Q2094.08 212.976 2091.93 214.99 Q2089.8 217.004 2089.47 220.661 L2104.66 220.638 Z" fill="#000000" fill-rule="nonzero" fill-opacity="1" /><path clip-path="url(#clip310)" d="M2130.93 213.971 Q2130.21 213.555 2129.36 213.37 Q2128.52 213.161 2127.5 213.161 Q2123.89 213.161 2121.95 215.522 Q2120.03 217.86 2120.03 222.258 L2120.03 235.916 L2115.74 235.916 L2115.74 209.99 L2120.03 209.99 L2120.03 214.018 Q2121.37 211.657 2123.52 210.522 Q2125.67 209.365 2128.75 209.365 Q2129.19 209.365 2129.73 209.434 Q2130.26 209.481 2130.91 209.596 L2130.93 213.971 Z" fill="#000000" fill-rule="nonzero" fill-opacity="1" /><path clip-path="url(#clip310)" d="M2156.53 221.888 L2156.53 223.971 L2136.95 223.971 Q2137.23 228.369 2139.59 230.684 Q2141.97 232.976 2146.21 232.976 Q2148.66 232.976 2150.95 232.374 Q2153.27 231.772 2155.54 230.569 L2155.54 234.596 Q2153.24 235.568 2150.84 236.078 Q2148.43 236.587 2145.95 236.587 Q2139.75 236.587 2136.11 232.976 Q2132.5 229.365 2132.5 223.207 Q2132.5 216.842 2135.93 213.115 Q2139.38 209.365 2145.21 209.365 Q2150.44 209.365 2153.48 212.745 Q2156.53 216.101 2156.53 221.888 M2152.27 220.638 Q2152.23 217.143 2150.3 215.059 Q2148.41 212.976 2145.26 212.976 Q2141.69 212.976 2139.54 214.99 Q2137.41 217.004 2137.09 220.661 L2152.27 220.638 Z" fill="#000000" fill-rule="nonzero" fill-opacity="1" /><polyline clip-path="url(#clip310)" style="stroke:#e26f46; stroke-linecap:round; stroke-linejoin:round; stroke-width:8; stroke-opacity:1; fill:none" points="1737.11,270.476 1882.35,270.476 "/>
<path clip-path="url(#clip310)" d="M1934.43 255.858 L1934.43 260.788 Q1932.06 258.589 1929.38 257.501 Q1926.72 256.413 1923.71 256.413 Q1917.78 256.413 1914.63 260.048 Q1911.49 263.659 1911.49 270.51 Q1911.49 277.339 1914.63 280.973 Q1917.78 284.584 1923.71 284.584 Q1926.72 284.584 1929.38 283.496 Q1932.06 282.409 1934.43 280.209 L1934.43 285.094 Q1931.97 286.76 1929.22 287.594 Q1926.49 288.427 1923.43 288.427 Q1915.58 288.427 1911.07 283.635 Q1906.56 278.821 1906.56 270.51 Q1906.56 262.177 1911.07 257.386 Q1915.58 252.571 1923.43 252.571 Q1926.53 252.571 1929.26 253.404 Q1932.02 254.214 1934.43 255.858 Z" fill="#000000" fill-rule="nonzero" fill-opacity="1" /><path clip-path="url(#clip310)" d="M1952.25 290.163 Q1950.44 294.793 1948.73 296.205 Q1947.02 297.617 1944.15 297.617 L1940.75 297.617 L1940.75 294.052 L1943.25 294.052 Q1945 294.052 1945.98 293.219 Q1946.95 292.385 1948.13 289.283 L1948.89 287.339 L1938.41 261.83 L1942.92 261.83 L1951.02 282.108 L1959.12 261.83 L1963.64 261.83 L1952.25 290.163 Z" fill="#000000" fill-rule="nonzero" fill-opacity="1" /><path clip-path="url(#clip310)" d="M1973.73 254.469 L1973.73 261.83 L1982.5 261.83 L1982.5 265.14 L1973.73 265.14 L1973.73 279.214 Q1973.73 282.385 1974.59 283.288 Q1975.47 284.191 1978.13 284.191 L1982.5 284.191 L1982.5 287.756 L1978.13 287.756 Q1973.2 287.756 1971.32 285.927 Q1969.45 284.075 1969.45 279.214 L1969.45 265.14 L1966.32 265.14 L1966.32 261.83 L1969.45 261.83 L1969.45 254.469 L1973.73 254.469 Z" fill="#000000" fill-rule="nonzero" fill-opacity="1" /><path clip-path="url(#clip310)" d="M1998.15 264.816 Q1994.73 264.816 1992.74 267.501 Q1990.75 270.163 1990.75 274.816 Q1990.75 279.469 1992.71 282.154 Q1994.7 284.816 1998.15 284.816 Q2001.56 284.816 2003.55 282.131 Q2005.54 279.446 2005.54 274.816 Q2005.54 270.21 2003.55 267.524 Q2001.56 264.816 1998.15 264.816 M1998.15 261.205 Q2003.71 261.205 2006.88 264.816 Q2010.05 268.427 2010.05 274.816 Q2010.05 281.182 2006.88 284.816 Q2003.71 288.427 1998.15 288.427 Q1992.57 288.427 1989.4 284.816 Q1986.25 281.182 1986.25 274.816 Q1986.25 268.427 1989.4 264.816 Q1992.57 261.205 1998.15 261.205 Z" fill="#000000" fill-rule="nonzero" fill-opacity="1" /><path clip-path="url(#clip310)" d="M2033.64 262.594 L2033.64 266.622 Q2031.83 265.696 2029.89 265.233 Q2027.94 264.77 2025.86 264.77 Q2022.69 264.77 2021.09 265.742 Q2019.52 266.714 2019.52 268.659 Q2019.52 270.14 2020.65 270.997 Q2021.79 271.83 2025.21 272.594 L2026.67 272.918 Q2031.21 273.89 2033.11 275.672 Q2035.03 277.432 2035.03 280.603 Q2035.03 284.214 2032.16 286.321 Q2029.31 288.427 2024.31 288.427 Q2022.23 288.427 2019.96 288.01 Q2017.71 287.617 2015.21 286.807 L2015.21 282.409 Q2017.57 283.635 2019.87 284.26 Q2022.16 284.862 2024.4 284.862 Q2027.41 284.862 2029.03 283.844 Q2030.65 282.802 2030.65 280.927 Q2030.65 279.191 2029.47 278.265 Q2028.31 277.339 2024.36 276.483 L2022.87 276.135 Q2018.92 275.302 2017.16 273.589 Q2015.4 271.853 2015.4 268.844 Q2015.4 265.186 2017.99 263.196 Q2020.58 261.205 2025.35 261.205 Q2027.71 261.205 2029.8 261.552 Q2031.88 261.899 2033.64 262.594 Z" fill="#000000" fill-rule="nonzero" fill-opacity="1" /><path clip-path="url(#clip310)" d="M2051.86 264.816 Q2048.43 264.816 2046.44 267.501 Q2044.45 270.163 2044.45 274.816 Q2044.45 279.469 2046.42 282.154 Q2048.41 284.816 2051.86 284.816 Q2055.26 284.816 2057.25 282.131 Q2059.24 279.446 2059.24 274.816 Q2059.24 270.21 2057.25 267.524 Q2055.26 264.816 2051.86 264.816 M2051.86 261.205 Q2057.41 261.205 2060.58 264.816 Q2063.75 268.427 2063.75 274.816 Q2063.75 281.182 2060.58 284.816 Q2057.41 288.427 2051.86 288.427 Q2046.28 288.427 2043.11 284.816 Q2039.96 281.182 2039.96 274.816 Q2039.96 268.427 2043.11 264.816 Q2046.28 261.205 2051.86 261.205 Z" fill="#000000" fill-rule="nonzero" fill-opacity="1" /><path clip-path="url(#clip310)" d="M2070.81 251.737 L2075.07 251.737 L2075.07 287.756 L2070.81 287.756 L2070.81 251.737 Z" fill="#000000" fill-rule="nonzero" fill-opacity="1" /><polyline clip-path="url(#clip310)" style="stroke:#3da44d; stroke-linecap:round; stroke-linejoin:round; stroke-width:8; stroke-opacity:1; fill:none" points="1737.11,322.316 1882.35,322.316 "/>
<path clip-path="url(#clip310)" d="M1911.23 323.091 L1911.23 335.753 L1918.73 335.753 Q1922.5 335.753 1924.31 334.202 Q1926.14 332.628 1926.14 329.411 Q1926.14 326.17 1924.31 324.642 Q1922.5 323.091 1918.73 323.091 L1911.23 323.091 M1911.23 308.878 L1911.23 319.295 L1918.15 319.295 Q1921.58 319.295 1923.25 318.022 Q1924.94 316.725 1924.94 314.087 Q1924.94 311.471 1923.25 310.175 Q1921.58 308.878 1918.15 308.878 L1911.23 308.878 M1906.56 305.036 L1918.5 305.036 Q1923.85 305.036 1926.74 307.258 Q1929.63 309.48 1929.63 313.577 Q1929.63 316.749 1928.15 318.624 Q1926.67 320.499 1923.8 320.962 Q1927.25 321.702 1929.15 324.063 Q1931.07 326.401 1931.07 329.92 Q1931.07 334.549 1927.92 337.073 Q1924.77 339.596 1918.96 339.596 L1906.56 339.596 L1906.56 305.036 Z" fill="#000000" fill-rule="nonzero" fill-opacity="1" /><path clip-path="url(#clip310)" d="M1938.89 303.577 L1943.15 303.577 L1943.15 339.596 L1938.89 339.596 L1938.89 303.577 Z" fill="#000000" fill-rule="nonzero" fill-opacity="1" /><path clip-path="url(#clip310)" d="M1962.11 316.656 Q1958.69 316.656 1956.69 319.341 Q1954.7 322.003 1954.7 326.656 Q1954.7 331.309 1956.67 333.994 Q1958.66 336.656 1962.11 336.656 Q1965.51 336.656 1967.5 333.971 Q1969.5 331.286 1969.5 326.656 Q1969.5 322.05 1967.5 319.364 Q1965.51 316.656 1962.11 316.656 M1962.11 313.045 Q1967.67 313.045 1970.84 316.656 Q1974.01 320.267 1974.01 326.656 Q1974.01 333.022 1970.84 336.656 Q1967.67 340.267 1962.11 340.267 Q1956.53 340.267 1953.36 336.656 Q1950.21 333.022 1950.21 326.656 Q1950.21 320.267 1953.36 316.656 Q1956.53 313.045 1962.11 313.045 Z" fill="#000000" fill-rule="nonzero" fill-opacity="1" /><path clip-path="url(#clip310)" d="M1991.12 316.656 Q1987.69 316.656 1985.7 319.341 Q1983.71 322.003 1983.71 326.656 Q1983.71 331.309 1985.68 333.994 Q1987.67 336.656 1991.12 336.656 Q1994.52 336.656 1996.51 333.971 Q1998.5 331.286 1998.5 326.656 Q1998.5 322.05 1996.51 319.364 Q1994.52 316.656 1991.12 316.656 M1991.12 313.045 Q1996.67 313.045 1999.84 316.656 Q2003.01 320.267 2003.01 326.656 Q2003.01 333.022 1999.84 336.656 Q1996.67 340.267 1991.12 340.267 Q1985.54 340.267 1982.37 336.656 Q1979.22 333.022 1979.22 326.656 Q1979.22 320.267 1982.37 316.656 Q1985.54 313.045 1991.12 313.045 Z" fill="#000000" fill-rule="nonzero" fill-opacity="1" /><path clip-path="url(#clip310)" d="M2027.13 317.605 L2027.13 303.577 L2031.39 303.577 L2031.39 339.596 L2027.13 339.596 L2027.13 335.707 Q2025.79 338.022 2023.73 339.156 Q2021.69 340.267 2018.82 340.267 Q2014.12 340.267 2011.16 336.517 Q2008.22 332.767 2008.22 326.656 Q2008.22 320.545 2011.16 316.795 Q2014.12 313.045 2018.82 313.045 Q2021.69 313.045 2023.73 314.179 Q2025.79 315.29 2027.13 317.605 M2012.62 326.656 Q2012.62 331.355 2014.54 334.04 Q2016.49 336.702 2019.87 336.702 Q2023.24 336.702 2025.19 334.04 Q2027.13 331.355 2027.13 326.656 Q2027.13 321.957 2025.19 319.295 Q2023.24 316.61 2019.87 316.61 Q2016.49 316.61 2014.54 319.295 Q2012.62 321.957 2012.62 326.656 Z" fill="#000000" fill-rule="nonzero" fill-opacity="1" /><circle clip-path="url(#clip310)" cx="1809.73" cy="374.156" r="20.9455" fill="#c271d2" fill-rule="evenodd" fill-opacity="1" stroke="#000000" stroke-opacity="1" stroke-width="3.72364"/>
<path clip-path="url(#clip310)" d="M1922.57 360.047 Q1917.48 360.047 1914.47 363.843 Q1911.49 367.64 1911.49 374.19 Q1911.49 380.718 1914.47 384.514 Q1917.48 388.311 1922.57 388.311 Q1927.67 388.311 1930.63 384.514 Q1933.62 380.718 1933.62 374.19 Q1933.62 367.64 1930.63 363.843 Q1927.67 360.047 1922.57 360.047 M1922.57 356.251 Q1929.84 356.251 1934.19 361.135 Q1938.55 365.996 1938.55 374.19 Q1938.55 382.362 1934.19 387.246 Q1929.84 392.107 1922.57 392.107 Q1915.28 392.107 1910.91 387.246 Q1906.56 382.385 1906.56 374.19 Q1906.56 365.996 1910.91 361.135 Q1915.28 356.251 1922.57 356.251 Z" fill="#000000" fill-rule="nonzero" fill-opacity="1" /><path clip-path="url(#clip310)" d="M1964.29 378.496 Q1964.29 373.797 1962.34 371.135 Q1960.42 368.45 1957.04 368.45 Q1953.66 368.45 1951.72 371.135 Q1949.8 373.797 1949.8 378.496 Q1949.8 383.195 1951.72 385.88 Q1953.66 388.542 1957.04 388.542 Q1960.42 388.542 1962.34 385.88 Q1964.29 383.195 1964.29 378.496 M1949.8 369.445 Q1951.14 367.13 1953.18 366.019 Q1955.24 364.885 1958.08 364.885 Q1962.81 364.885 1965.75 368.635 Q1968.71 372.385 1968.71 378.496 Q1968.71 384.607 1965.75 388.357 Q1962.81 392.107 1958.08 392.107 Q1955.24 392.107 1953.18 390.996 Q1951.14 389.862 1949.8 387.547 L1949.8 391.436 L1945.51 391.436 L1945.51 355.417 L1949.8 355.417 L1949.8 369.445 Z" fill="#000000" fill-rule="nonzero" fill-opacity="1" /><path clip-path="url(#clip310)" d="M1992.3 366.274 L1992.3 370.302 Q1990.49 369.376 1988.55 368.913 Q1986.6 368.45 1984.52 368.45 Q1981.35 368.45 1979.75 369.422 Q1978.18 370.394 1978.18 372.339 Q1978.18 373.82 1979.31 374.677 Q1980.44 375.51 1983.87 376.274 L1985.33 376.598 Q1989.87 377.57 1991.76 379.352 Q1993.68 381.112 1993.68 384.283 Q1993.68 387.894 1990.81 390.001 Q1987.97 392.107 1982.97 392.107 Q1980.88 392.107 1978.62 391.69 Q1976.37 391.297 1973.87 390.487 L1973.87 386.089 Q1976.23 387.315 1978.52 387.94 Q1980.81 388.542 1983.06 388.542 Q1986.07 388.542 1987.69 387.524 Q1989.31 386.482 1989.31 384.607 Q1989.31 382.871 1988.13 381.945 Q1986.97 381.019 1983.01 380.163 L1981.53 379.815 Q1977.57 378.982 1975.81 377.269 Q1974.06 375.533 1974.06 372.524 Q1974.06 368.866 1976.65 366.876 Q1979.24 364.885 1984.01 364.885 Q1986.37 364.885 1988.45 365.232 Q1990.54 365.579 1992.3 366.274 Z" fill="#000000" fill-rule="nonzero" fill-opacity="1" /><path clip-path="url(#clip310)" d="M2022.64 377.408 L2022.64 379.491 L2003.06 379.491 Q2003.34 383.889 2005.7 386.204 Q2008.08 388.496 2012.32 388.496 Q2014.77 388.496 2017.06 387.894 Q2019.38 387.292 2021.65 386.089 L2021.65 390.116 Q2019.36 391.088 2016.95 391.598 Q2014.54 392.107 2012.06 392.107 Q2005.86 392.107 2002.23 388.496 Q1998.62 384.885 1998.62 378.727 Q1998.62 372.362 2002.04 368.635 Q2005.49 364.885 2011.32 364.885 Q2016.56 364.885 2019.59 368.265 Q2022.64 371.621 2022.64 377.408 M2018.38 376.158 Q2018.34 372.663 2016.42 370.579 Q2014.52 368.496 2011.37 368.496 Q2007.81 368.496 2005.65 370.51 Q2003.52 372.524 2003.2 376.181 L2018.38 376.158 Z" fill="#000000" fill-rule="nonzero" fill-opacity="1" /><path clip-path="url(#clip310)" d="M2044.66 369.491 Q2043.94 369.075 2043.08 368.89 Q2042.25 368.681 2041.23 368.681 Q2037.62 368.681 2035.68 371.042 Q2033.75 373.38 2033.75 377.778 L2033.75 391.436 L2029.47 391.436 L2029.47 365.51 L2033.75 365.51 L2033.75 369.538 Q2035.1 367.177 2037.25 366.042 Q2039.4 364.885 2042.48 364.885 Q2042.92 364.885 2043.45 364.954 Q2043.99 365.001 2044.63 365.116 L2044.66 369.491 Z" fill="#000000" fill-rule="nonzero" fill-opacity="1" /><path clip-path="url(#clip310)" d="M2046.07 365.51 L2050.58 365.51 L2058.68 387.269 L2066.79 365.51 L2071.3 365.51 L2061.58 391.436 L2055.79 391.436 L2046.07 365.51 Z" fill="#000000" fill-rule="nonzero" fill-opacity="1" /><path clip-path="url(#clip310)" d="M2099.36 377.408 L2099.36 379.491 L2079.77 379.491 Q2080.05 383.889 2082.41 386.204 Q2084.8 388.496 2089.03 388.496 Q2091.49 388.496 2093.78 387.894 Q2096.09 387.292 2098.36 386.089 L2098.36 390.116 Q2096.07 391.088 2093.66 391.598 Q2091.25 392.107 2088.78 392.107 Q2082.57 392.107 2078.94 388.496 Q2075.33 384.885 2075.33 378.727 Q2075.33 372.362 2078.75 368.635 Q2082.2 364.885 2088.04 364.885 Q2093.27 364.885 2096.3 368.265 Q2099.36 371.621 2099.36 377.408 M2095.1 376.158 Q2095.05 372.663 2093.13 370.579 Q2091.23 368.496 2088.08 368.496 Q2084.52 368.496 2082.37 370.51 Q2080.24 372.524 2079.91 376.181 L2095.1 376.158 Z" fill="#000000" fill-rule="nonzero" fill-opacity="1" /><path clip-path="url(#clip310)" d="M2123.41 369.445 L2123.41 355.417 L2127.67 355.417 L2127.67 391.436 L2123.41 391.436 L2123.41 387.547 Q2122.06 389.862 2120 390.996 Q2117.97 392.107 2115.1 392.107 Q2110.4 392.107 2107.43 388.357 Q2104.49 384.607 2104.49 378.496 Q2104.49 372.385 2107.43 368.635 Q2110.4 364.885 2115.1 364.885 Q2117.97 364.885 2120 366.019 Q2122.06 367.13 2123.41 369.445 M2108.89 378.496 Q2108.89 383.195 2110.81 385.88 Q2112.76 388.542 2116.14 388.542 Q2119.52 388.542 2121.46 385.88 Q2123.41 383.195 2123.41 378.496 Q2123.41 373.797 2121.46 371.135 Q2119.52 368.45 2116.14 368.45 Q2112.76 368.45 2110.81 371.135 Q2108.89 373.797 2108.89 378.496 Z" fill="#000000" fill-rule="nonzero" fill-opacity="1" /><path clip-path="url(#clip310)" d="M2156.37 360.718 L2156.37 387.593 L2162.02 387.593 Q2169.17 387.593 2172.48 384.352 Q2175.81 381.112 2175.81 374.121 Q2175.81 367.177 2172.48 363.959 Q2169.17 360.718 2162.02 360.718 L2156.37 360.718 M2151.69 356.876 L2161.3 356.876 Q2171.35 356.876 2176.05 361.066 Q2180.74 365.232 2180.74 374.121 Q2180.74 383.056 2176.02 387.246 Q2171.3 391.436 2161.3 391.436 L2151.69 391.436 L2151.69 356.876 Z" fill="#000000" fill-rule="nonzero" fill-opacity="1" /><path clip-path="url(#clip310)" d="M2199.79 378.403 Q2194.63 378.403 2192.64 379.584 Q2190.65 380.764 2190.65 383.612 Q2190.65 385.88 2192.13 387.223 Q2193.64 388.542 2196.21 388.542 Q2199.75 388.542 2201.88 386.042 Q2204.03 383.519 2204.03 379.352 L2204.03 378.403 L2199.79 378.403 M2208.29 376.644 L2208.29 391.436 L2204.03 391.436 L2204.03 387.501 Q2202.57 389.862 2200.4 390.996 Q2198.22 392.107 2195.07 392.107 Q2191.09 392.107 2188.73 389.885 Q2186.39 387.639 2186.39 383.889 Q2186.39 379.514 2189.31 377.292 Q2192.25 375.07 2198.06 375.07 L2204.03 375.07 L2204.03 374.653 Q2204.03 371.714 2202.09 370.116 Q2200.17 368.496 2196.67 368.496 Q2194.45 368.496 2192.34 369.028 Q2190.23 369.561 2188.29 370.626 L2188.29 366.69 Q2190.63 365.788 2192.83 365.348 Q2195.03 364.885 2197.11 364.885 Q2202.73 364.885 2205.51 367.802 Q2208.29 370.718 2208.29 376.644 Z" fill="#000000" fill-rule="nonzero" fill-opacity="1" /><path clip-path="url(#clip310)" d="M2221.28 358.149 L2221.28 365.51 L2230.05 365.51 L2230.05 368.82 L2221.28 368.82 L2221.28 382.894 Q2221.28 386.065 2222.13 386.968 Q2223.01 387.871 2225.67 387.871 L2230.05 387.871 L2230.05 391.436 L2225.67 391.436 Q2220.74 391.436 2218.87 389.607 Q2216.99 387.755 2216.99 382.894 L2216.99 368.82 L2213.87 368.82 L2213.87 365.51 L2216.99 365.51 L2216.99 358.149 L2221.28 358.149 Z" fill="#000000" fill-rule="nonzero" fill-opacity="1" /><path clip-path="url(#clip310)" d="M2247.43 378.403 Q2242.27 378.403 2240.28 379.584 Q2238.29 380.764 2238.29 383.612 Q2238.29 385.88 2239.77 387.223 Q2241.28 388.542 2243.85 388.542 Q2247.39 388.542 2249.52 386.042 Q2251.67 383.519 2251.67 379.352 L2251.67 378.403 L2247.43 378.403 M2255.93 376.644 L2255.93 391.436 L2251.67 391.436 L2251.67 387.501 Q2250.21 389.862 2248.04 390.996 Q2245.86 392.107 2242.71 392.107 Q2238.73 392.107 2236.37 389.885 Q2234.03 387.639 2234.03 383.889 Q2234.03 379.514 2236.95 377.292 Q2239.89 375.07 2245.7 375.07 L2251.67 375.07 L2251.67 374.653 Q2251.67 371.714 2249.73 370.116 Q2247.8 368.496 2244.31 368.496 Q2242.09 368.496 2239.98 369.028 Q2237.87 369.561 2235.93 370.626 L2235.93 366.69 Q2238.27 365.788 2240.47 365.348 Q2242.67 364.885 2244.75 364.885 Q2250.37 364.885 2253.15 367.802 Q2255.93 370.718 2255.93 376.644 Z" fill="#000000" fill-rule="nonzero" fill-opacity="1" /></svg>
