<?xml version="1.0" encoding="utf-8"?>
<svg xmlns="http://www.w3.org/2000/svg" xmlns:xlink="http://www.w3.org/1999/xlink" width="600" height="400" viewBox="0 0 2400 1600">
<defs>
  <clipPath id="clip620">
    <rect x="0" y="0" width="2400" height="1600"/>
  </clipPath>
</defs>
<path clip-path="url(#clip620)" d="M0 1600 L2400 1600 L2400 0 L0 0  Z" fill="#ffffff" fill-rule="evenodd" fill-opacity="1"/>
<defs>
  <clipPath id="clip621">
    <rect x="175" y="123" width="2178" height="1301"/>
  </clipPath>
</defs>
<path clip-path="url(#clip620)" d="M219.866 1423.18 L2352.76 1423.18 L2352.76 123.472 L219.866 123.472  Z" fill="#ffffff" fill-rule="evenodd" fill-opacity="1"/>
<defs>
  <clipPath id="clip622">
    <rect x="219" y="123" width="2134" height="1301"/>
  </clipPath>
</defs>
<polyline clip-path="url(#clip622)" style="stroke:#000000; stroke-linecap:round; stroke-linejoin:round; stroke-width:2; stroke-opacity:0.1; fill:none" points="219.866,1423.18 219.866,123.472 "/>
<polyline clip-path="url(#clip622)" style="stroke:#000000; stroke-linecap:round; stroke-linejoin:round; stroke-width:2; stroke-opacity:0.1; fill:none" points="677.175,1423.18 677.175,123.472 "/>
<polyline clip-path="url(#clip622)" style="stroke:#000000; stroke-linecap:round; stroke-linejoin:round; stroke-width:2; stroke-opacity:0.1; fill:none" points="1134.48,1423.18 1134.48,123.472 "/>
<polyline clip-path="url(#clip622)" style="stroke:#000000; stroke-linecap:round; stroke-linejoin:round; stroke-width:2; stroke-opacity:0.1; fill:none" points="1591.79,1423.18 1591.79,123.472 "/>
<polyline clip-path="url(#clip622)" style="stroke:#000000; stroke-linecap:round; stroke-linejoin:round; stroke-width:2; stroke-opacity:0.1; fill:none" points="2049.1,1423.18 2049.1,123.472 "/>
<polyline clip-path="url(#clip622)" style="stroke:#000000; stroke-linecap:round; stroke-linejoin:round; stroke-width:2; stroke-opacity:0.1; fill:none" points="219.866,1386.4 2352.76,1386.4 "/>
<polyline clip-path="url(#clip622)" style="stroke:#000000; stroke-linecap:round; stroke-linejoin:round; stroke-width:2; stroke-opacity:0.1; fill:none" points="219.866,1109.87 2352.76,1109.87 "/>
<polyline clip-path="url(#clip622)" style="stroke:#000000; stroke-linecap:round; stroke-linejoin:round; stroke-width:2; stroke-opacity:0.1; fill:none" points="219.866,833.345 2352.76,833.345 "/>
<polyline clip-path="url(#clip622)" style="stroke:#000000; stroke-linecap:round; stroke-linejoin:round; stroke-width:2; stroke-opacity:0.1; fill:none" points="219.866,556.82 2352.76,556.82 "/>
<polyline clip-path="url(#clip622)" style="stroke:#000000; stroke-linecap:round; stroke-linejoin:round; stroke-width:2; stroke-opacity:0.1; fill:none" points="219.866,280.295 2352.76,280.295 "/>
<polyline clip-path="url(#clip620)" style="stroke:#000000; stroke-linecap:round; stroke-linejoin:round; stroke-width:4; stroke-opacity:1; fill:none" points="219.866,1423.18 2352.76,1423.18 "/>
<polyline clip-path="url(#clip620)" style="stroke:#000000; stroke-linecap:round; stroke-linejoin:round; stroke-width:4; stroke-opacity:1; fill:none" points="219.866,1423.18 219.866,1404.28 "/>
<polyline clip-path="url(#clip620)" style="stroke:#000000; stroke-linecap:round; stroke-linejoin:round; stroke-width:4; stroke-opacity:1; fill:none" points="677.175,1423.18 677.175,1404.28 "/>
<polyline clip-path="url(#clip620)" style="stroke:#000000; stroke-linecap:round; stroke-linejoin:round; stroke-width:4; stroke-opacity:1; fill:none" points="1134.48,1423.18 1134.48,1404.28 "/>
<polyline clip-path="url(#clip620)" style="stroke:#000000; stroke-linecap:round; stroke-linejoin:round; stroke-width:4; stroke-opacity:1; fill:none" points="1591.79,1423.18 1591.79,1404.28 "/>
<polyline clip-path="url(#clip620)" style="stroke:#000000; stroke-linecap:round; stroke-linejoin:round; stroke-width:4; stroke-opacity:1; fill:none" points="2049.1,1423.18 2049.1,1404.28 "/>
<path clip-path="url(#clip620)" d="M219.866 1454.1 Q216.255 1454.1 214.426 1457.66 Q212.621 1461.2 212.621 1468.33 Q212.621 1475.44 214.426 1479.01 Q216.255 1482.55 219.866 1482.55 Q223.501 1482.55 225.306 1479.01 Q227.135 1475.44 227.135 1468.33 Q227.135 1461.2 225.306 1457.66 Q223.501 1454.1 219.866 1454.1 M219.866 1450.39 Q225.676 1450.39 228.732 1455 Q231.811 1459.58 231.811 1468.33 Q231.811 1477.06 228.732 1481.67 Q225.676 1486.25 219.866 1486.25 Q214.056 1486.25 210.977 1481.67 Q207.922 1477.06 207.922 1468.33 Q207.922 1459.58 210.977 1455 Q214.056 1450.39 219.866 1450.39 Z" fill="#000000" fill-rule="nonzero" fill-opacity="1" /><path clip-path="url(#clip620)" d="M656.446 1481.64 L672.766 1481.64 L672.766 1485.58 L650.821 1485.58 L650.821 1481.64 Q653.483 1478.89 658.067 1474.26 Q662.673 1469.61 663.854 1468.27 Q666.099 1465.74 666.979 1464.01 Q667.881 1462.25 667.881 1460.56 Q667.881 1457.8 665.937 1456.07 Q664.016 1454.33 660.914 1454.33 Q658.715 1454.33 656.261 1455.09 Q653.831 1455.86 651.053 1457.41 L651.053 1452.69 Q653.877 1451.55 656.331 1450.97 Q658.784 1450.39 660.821 1450.39 Q666.192 1450.39 669.386 1453.08 Q672.58 1455.77 672.58 1460.26 Q672.58 1462.39 671.77 1464.31 Q670.983 1466.2 668.877 1468.8 Q668.298 1469.47 665.196 1472.69 Q662.094 1475.88 656.446 1481.64 Z" fill="#000000" fill-rule="nonzero" fill-opacity="1" /><path clip-path="url(#clip620)" d="M682.627 1451.02 L700.983 1451.02 L700.983 1454.96 L686.909 1454.96 L686.909 1463.43 Q687.928 1463.08 688.946 1462.92 Q689.965 1462.73 690.983 1462.73 Q696.77 1462.73 700.15 1465.9 Q703.529 1469.08 703.529 1474.49 Q703.529 1480.07 700.057 1483.17 Q696.585 1486.25 690.266 1486.25 Q688.09 1486.25 685.821 1485.88 Q683.576 1485.51 681.168 1484.77 L681.168 1480.07 Q683.252 1481.2 685.474 1481.76 Q687.696 1482.32 690.173 1482.32 Q694.178 1482.32 696.516 1480.21 Q698.853 1478.1 698.853 1474.49 Q698.853 1470.88 696.516 1468.77 Q694.178 1466.67 690.173 1466.67 Q688.298 1466.67 686.423 1467.08 Q684.571 1467.5 682.627 1468.38 L682.627 1451.02 Z" fill="#000000" fill-rule="nonzero" fill-opacity="1" /><path clip-path="url(#clip620)" d="M1109.18 1451.02 L1127.54 1451.02 L1127.54 1454.96 L1113.47 1454.96 L1113.47 1463.43 Q1114.48 1463.08 1115.5 1462.92 Q1116.52 1462.73 1117.54 1462.73 Q1123.33 1462.73 1126.71 1465.9 Q1130.09 1469.08 1130.09 1474.49 Q1130.09 1480.07 1126.61 1483.17 Q1123.14 1486.25 1116.82 1486.25 Q1114.65 1486.25 1112.38 1485.88 Q1110.13 1485.51 1107.73 1484.77 L1107.73 1480.07 Q1109.81 1481.2 1112.03 1481.76 Q1114.25 1482.32 1116.73 1482.32 Q1120.73 1482.32 1123.07 1480.21 Q1125.41 1478.1 1125.41 1474.49 Q1125.41 1470.88 1123.07 1468.77 Q1120.73 1466.67 1116.73 1466.67 Q1114.85 1466.67 1112.98 1467.08 Q1111.13 1467.5 1109.18 1468.38 L1109.18 1451.02 Z" fill="#000000" fill-rule="nonzero" fill-opacity="1" /><path clip-path="url(#clip620)" d="M1149.3 1454.1 Q1145.69 1454.1 1143.86 1457.66 Q1142.05 1461.2 1142.05 1468.33 Q1142.05 1475.44 1143.86 1479.01 Q1145.69 1482.55 1149.3 1482.55 Q1152.93 1482.55 1154.74 1479.01 Q1156.57 1475.44 1156.57 1468.33 Q1156.57 1461.2 1154.74 1457.66 Q1152.93 1454.1 1149.3 1454.1 M1149.3 1450.39 Q1155.11 1450.39 1158.16 1455 Q1161.24 1459.58 1161.24 1468.33 Q1161.24 1477.06 1158.16 1481.67 Q1155.11 1486.25 1149.3 1486.25 Q1143.49 1486.25 1140.41 1481.67 Q1137.35 1477.06 1137.35 1468.33 Q1137.35 1459.58 1140.41 1455 Q1143.49 1450.39 1149.3 1450.39 Z" fill="#000000" fill-rule="nonzero" fill-opacity="1" /><path clip-path="url(#clip620)" d="M1565.65 1451.02 L1587.87 1451.02 L1587.87 1453.01 L1575.32 1485.58 L1570.44 1485.58 L1582.25 1454.96 L1565.65 1454.96 L1565.65 1451.02 Z" fill="#000000" fill-rule="nonzero" fill-opacity="1" /><path clip-path="url(#clip620)" d="M1597.04 1451.02 L1615.39 1451.02 L1615.39 1454.96 L1601.32 1454.96 L1601.32 1463.43 Q1602.34 1463.08 1603.36 1462.92 Q1604.37 1462.73 1605.39 1462.73 Q1611.18 1462.73 1614.56 1465.9 Q1617.94 1469.08 1617.94 1474.49 Q1617.94 1480.07 1614.47 1483.17 Q1610.99 1486.25 1604.68 1486.25 Q1602.5 1486.25 1600.23 1485.88 Q1597.99 1485.51 1595.58 1484.77 L1595.58 1480.07 Q1597.66 1481.2 1599.88 1481.76 Q1602.11 1482.32 1604.58 1482.32 Q1608.59 1482.32 1610.93 1480.21 Q1613.26 1478.1 1613.26 1474.49 Q1613.26 1470.88 1610.93 1468.77 Q1608.59 1466.67 1604.58 1466.67 Q1602.71 1466.67 1600.83 1467.08 Q1598.98 1467.5 1597.04 1468.38 L1597.04 1451.02 Z" fill="#000000" fill-rule="nonzero" fill-opacity="1" /><path clip-path="url(#clip620)" d="M2008.71 1481.64 L2016.35 1481.64 L2016.35 1455.28 L2008.04 1456.95 L2008.04 1452.69 L2016.3 1451.02 L2020.98 1451.02 L2020.98 1481.64 L2028.62 1481.64 L2028.62 1485.58 L2008.71 1485.58 L2008.71 1481.64 Z" fill="#000000" fill-rule="nonzero" fill-opacity="1" /><path clip-path="url(#clip620)" d="M2048.06 1454.1 Q2044.45 1454.1 2042.62 1457.66 Q2040.82 1461.2 2040.82 1468.33 Q2040.82 1475.44 2042.62 1479.01 Q2044.45 1482.55 2048.06 1482.55 Q2051.7 1482.55 2053.5 1479.01 Q2055.33 1475.44 2055.33 1468.33 Q2055.33 1461.2 2053.5 1457.66 Q2051.7 1454.1 2048.06 1454.1 M2048.06 1450.39 Q2053.87 1450.39 2056.93 1455 Q2060.01 1459.58 2060.01 1468.33 Q2060.01 1477.06 2056.93 1481.67 Q2053.87 1486.25 2048.06 1486.25 Q2042.25 1486.25 2039.17 1481.67 Q2036.12 1477.06 2036.12 1468.33 Q2036.12 1459.58 2039.17 1455 Q2042.25 1450.39 2048.06 1450.39 Z" fill="#000000" fill-rule="nonzero" fill-opacity="1" /><path clip-path="url(#clip620)" d="M2078.22 1454.1 Q2074.61 1454.1 2072.78 1457.66 Q2070.98 1461.2 2070.98 1468.33 Q2070.98 1475.44 2072.78 1479.01 Q2074.61 1482.55 2078.22 1482.55 Q2081.86 1482.55 2083.66 1479.01 Q2085.49 1475.44 2085.49 1468.33 Q2085.49 1461.2 2083.66 1457.66 Q2081.86 1454.1 2078.22 1454.1 M2078.22 1450.39 Q2084.03 1450.39 2087.09 1455 Q2090.17 1459.58 2090.17 1468.33 Q2090.17 1477.06 2087.09 1481.67 Q2084.03 1486.25 2078.22 1486.25 Q2072.41 1486.25 2069.33 1481.67 Q2066.28 1477.06 2066.28 1468.33 Q2066.28 1459.58 2069.33 1455 Q2072.41 1450.39 2078.22 1450.39 Z" fill="#000000" fill-rule="nonzero" fill-opacity="1" /><path clip-path="url(#clip620)" d="M1208.19 1520.52 L1248.39 1520.52 L1248.39 1525.93 L1231.52 1525.93 L1231.52 1568.04 L1225.06 1568.04 L1225.06 1525.93 L1208.19 1525.93 L1208.19 1520.52 Z" fill="#000000" fill-rule="nonzero" fill-opacity="1" /><path clip-path="url(#clip620)" d="M1252.33 1532.4 L1258.19 1532.4 L1258.19 1568.04 L1252.33 1568.04 L1252.33 1532.4 M1252.33 1518.52 L1258.19 1518.52 L1258.19 1525.93 L1252.33 1525.93 L1252.33 1518.52 Z" fill="#000000" fill-rule="nonzero" fill-opacity="1" /><path clip-path="url(#clip620)" d="M1298.2 1539.24 Q1300.4 1535.29 1303.45 1533.41 Q1306.51 1531.54 1310.64 1531.54 Q1316.21 1531.54 1319.24 1535.45 Q1322.26 1539.33 1322.26 1546.53 L1322.26 1568.04 L1316.37 1568.04 L1316.37 1546.72 Q1316.37 1541.59 1314.56 1539.11 Q1312.74 1536.63 1309.02 1536.63 Q1304.47 1536.63 1301.83 1539.65 Q1299.19 1542.68 1299.19 1547.9 L1299.19 1568.04 L1293.3 1568.04 L1293.3 1546.72 Q1293.3 1541.56 1291.48 1539.11 Q1289.67 1536.63 1285.88 1536.63 Q1281.39 1536.63 1278.75 1539.68 Q1276.11 1542.71 1276.11 1547.9 L1276.11 1568.04 L1270.22 1568.04 L1270.22 1532.4 L1276.11 1532.4 L1276.11 1537.93 Q1278.12 1534.66 1280.92 1533.1 Q1283.72 1531.54 1287.57 1531.54 Q1291.45 1531.54 1294.16 1533.51 Q1296.89 1535.48 1298.2 1539.24 Z" fill="#000000" fill-rule="nonzero" fill-opacity="1" /><path clip-path="url(#clip620)" d="M1364.43 1548.76 L1364.43 1551.62 L1337.51 1551.62 Q1337.89 1557.67 1341.14 1560.85 Q1344.41 1564 1350.24 1564 Q1353.61 1564 1356.76 1563.17 Q1359.95 1562.35 1363.07 1560.69 L1363.07 1566.23 Q1359.91 1567.57 1356.6 1568.27 Q1353.29 1568.97 1349.89 1568.97 Q1341.36 1568.97 1336.36 1564 Q1331.4 1559.04 1331.4 1550.57 Q1331.4 1541.82 1336.11 1536.69 Q1340.85 1531.54 1348.87 1531.54 Q1356.06 1531.54 1360.23 1536.18 Q1364.43 1540.8 1364.43 1548.76 M1358.58 1547.04 Q1358.51 1542.23 1355.87 1539.37 Q1353.26 1536.5 1348.93 1536.5 Q1344.03 1536.5 1341.07 1539.27 Q1338.14 1542.04 1337.7 1547.07 L1358.58 1547.04 Z" fill="#000000" fill-rule="nonzero" fill-opacity="1" /><polyline clip-path="url(#clip620)" style="stroke:#000000; stroke-linecap:round; stroke-linejoin:round; stroke-width:4; stroke-opacity:1; fill:none" points="219.866,1423.18 219.866,123.472 "/>
<polyline clip-path="url(#clip620)" style="stroke:#000000; stroke-linecap:round; stroke-linejoin:round; stroke-width:4; stroke-opacity:1; fill:none" points="219.866,1386.4 238.764,1386.4 "/>
<polyline clip-path="url(#clip620)" style="stroke:#000000; stroke-linecap:round; stroke-linejoin:round; stroke-width:4; stroke-opacity:1; fill:none" points="219.866,1109.87 238.764,1109.87 "/>
<polyline clip-path="url(#clip620)" style="stroke:#000000; stroke-linecap:round; stroke-linejoin:round; stroke-width:4; stroke-opacity:1; fill:none" points="219.866,833.345 238.764,833.345 "/>
<polyline clip-path="url(#clip620)" style="stroke:#000000; stroke-linecap:round; stroke-linejoin:round; stroke-width:4; stroke-opacity:1; fill:none" points="219.866,556.82 238.764,556.82 "/>
<polyline clip-path="url(#clip620)" style="stroke:#000000; stroke-linecap:round; stroke-linejoin:round; stroke-width:4; stroke-opacity:1; fill:none" points="219.866,280.295 238.764,280.295 "/>
<path clip-path="url(#clip620)" d="M126.691 1372.19 Q123.08 1372.19 121.251 1375.76 Q119.445 1379.3 119.445 1386.43 Q119.445 1393.54 121.251 1397.1 Q123.08 1400.64 126.691 1400.64 Q130.325 1400.64 132.13 1397.1 Q133.959 1393.54 133.959 1386.43 Q133.959 1379.3 132.13 1375.76 Q130.325 1372.19 126.691 1372.19 M126.691 1368.49 Q132.501 1368.49 135.556 1373.1 Q138.635 1377.68 138.635 1386.43 Q138.635 1395.16 135.556 1399.76 Q132.501 1404.35 126.691 1404.35 Q120.88 1404.35 117.802 1399.76 Q114.746 1395.16 114.746 1386.43 Q114.746 1377.68 117.802 1373.1 Q120.88 1368.49 126.691 1368.49 Z" fill="#000000" fill-rule="nonzero" fill-opacity="1" /><path clip-path="url(#clip620)" d="M146.853 1397.8 L151.737 1397.8 L151.737 1403.68 L146.853 1403.68 L146.853 1397.8 Z" fill="#000000" fill-rule="nonzero" fill-opacity="1" /><path clip-path="url(#clip620)" d="M171.922 1372.19 Q168.311 1372.19 166.482 1375.76 Q164.677 1379.3 164.677 1386.43 Q164.677 1393.54 166.482 1397.1 Q168.311 1400.64 171.922 1400.64 Q175.556 1400.64 177.362 1397.1 Q179.19 1393.54 179.19 1386.43 Q179.19 1379.3 177.362 1375.76 Q175.556 1372.19 171.922 1372.19 M171.922 1368.49 Q177.732 1368.49 180.788 1373.1 Q183.866 1377.68 183.866 1386.43 Q183.866 1395.16 180.788 1399.76 Q177.732 1404.35 171.922 1404.35 Q166.112 1404.35 163.033 1399.76 Q159.978 1395.16 159.978 1386.43 Q159.978 1377.68 163.033 1373.1 Q166.112 1368.49 171.922 1368.49 Z" fill="#000000" fill-rule="nonzero" fill-opacity="1" /><path clip-path="url(#clip620)" d="M128.288 1095.67 Q124.677 1095.67 122.848 1099.23 Q121.043 1102.78 121.043 1109.91 Q121.043 1117.01 122.848 1120.58 Q124.677 1124.12 128.288 1124.12 Q131.922 1124.12 133.728 1120.58 Q135.556 1117.01 135.556 1109.91 Q135.556 1102.78 133.728 1099.23 Q131.922 1095.67 128.288 1095.67 M128.288 1091.97 Q134.098 1091.97 137.154 1096.57 Q140.232 1101.16 140.232 1109.91 Q140.232 1118.63 137.154 1123.24 Q134.098 1127.82 128.288 1127.82 Q122.478 1127.82 119.399 1123.24 Q116.343 1118.63 116.343 1109.91 Q116.343 1101.16 119.399 1096.57 Q122.478 1091.97 128.288 1091.97 Z" fill="#000000" fill-rule="nonzero" fill-opacity="1" /><path clip-path="url(#clip620)" d="M148.45 1121.27 L153.334 1121.27 L153.334 1127.15 L148.45 1127.15 L148.45 1121.27 Z" fill="#000000" fill-rule="nonzero" fill-opacity="1" /><path clip-path="url(#clip620)" d="M167.547 1123.22 L183.866 1123.22 L183.866 1127.15 L161.922 1127.15 L161.922 1123.22 Q164.584 1120.46 169.167 1115.83 Q173.774 1111.18 174.954 1109.84 Q177.2 1107.31 178.079 1105.58 Q178.982 1103.82 178.982 1102.13 Q178.982 1099.37 177.038 1097.64 Q175.116 1095.9 172.014 1095.9 Q169.815 1095.9 167.362 1096.66 Q164.931 1097.43 162.153 1098.98 L162.153 1094.26 Q164.977 1093.12 167.431 1092.54 Q169.885 1091.97 171.922 1091.97 Q177.292 1091.97 180.487 1094.65 Q183.681 1097.34 183.681 1101.83 Q183.681 1103.96 182.871 1105.88 Q182.084 1107.78 179.977 1110.37 Q179.399 1111.04 176.297 1114.26 Q173.195 1117.45 167.547 1123.22 Z" fill="#000000" fill-rule="nonzero" fill-opacity="1" /><path clip-path="url(#clip620)" d="M126.205 819.144 Q122.593 819.144 120.765 822.709 Q118.959 826.251 118.959 833.38 Q118.959 840.487 120.765 844.051 Q122.593 847.593 126.205 847.593 Q129.839 847.593 131.644 844.051 Q133.473 840.487 133.473 833.38 Q133.473 826.251 131.644 822.709 Q129.839 819.144 126.205 819.144 M126.205 815.44 Q132.015 815.44 135.07 820.047 Q138.149 824.63 138.149 833.38 Q138.149 842.107 135.07 846.713 Q132.015 851.297 126.205 851.297 Q120.394 851.297 117.316 846.713 Q114.26 842.107 114.26 833.38 Q114.26 824.63 117.316 820.047 Q120.394 815.44 126.205 815.44 Z" fill="#000000" fill-rule="nonzero" fill-opacity="1" /><path clip-path="url(#clip620)" d="M146.366 844.746 L151.251 844.746 L151.251 850.625 L146.366 850.625 L146.366 844.746 Z" fill="#000000" fill-rule="nonzero" fill-opacity="1" /><path clip-path="url(#clip620)" d="M174.283 820.139 L162.477 838.588 L174.283 838.588 L174.283 820.139 M173.056 816.065 L178.936 816.065 L178.936 838.588 L183.866 838.588 L183.866 842.477 L178.936 842.477 L178.936 850.625 L174.283 850.625 L174.283 842.477 L158.681 842.477 L158.681 837.963 L173.056 816.065 Z" fill="#000000" fill-rule="nonzero" fill-opacity="1" /><path clip-path="url(#clip620)" d="M126.529 542.619 Q122.918 542.619 121.089 546.184 Q119.283 549.725 119.283 556.855 Q119.283 563.961 121.089 567.526 Q122.918 571.068 126.529 571.068 Q130.163 571.068 131.968 567.526 Q133.797 563.961 133.797 556.855 Q133.797 549.725 131.968 546.184 Q130.163 542.619 126.529 542.619 M126.529 538.915 Q132.339 538.915 135.394 543.522 Q138.473 548.105 138.473 556.855 Q138.473 565.582 135.394 570.188 Q132.339 574.772 126.529 574.772 Q120.718 574.772 117.64 570.188 Q114.584 565.582 114.584 556.855 Q114.584 548.105 117.64 543.522 Q120.718 538.915 126.529 538.915 Z" fill="#000000" fill-rule="nonzero" fill-opacity="1" /><path clip-path="url(#clip620)" d="M146.691 568.221 L151.575 568.221 L151.575 574.1 L146.691 574.1 L146.691 568.221 Z" fill="#000000" fill-rule="nonzero" fill-opacity="1" /><path clip-path="url(#clip620)" d="M172.339 554.957 Q169.19 554.957 167.339 557.11 Q165.51 559.262 165.51 563.012 Q165.51 566.739 167.339 568.915 Q169.19 571.068 172.339 571.068 Q175.487 571.068 177.315 568.915 Q179.167 566.739 179.167 563.012 Q179.167 559.262 177.315 557.11 Q175.487 554.957 172.339 554.957 M181.621 540.304 L181.621 544.563 Q179.862 543.73 178.056 543.29 Q176.274 542.85 174.514 542.85 Q169.885 542.85 167.431 545.975 Q165.001 549.1 164.653 555.42 Q166.019 553.406 168.079 552.341 Q170.139 551.253 172.616 551.253 Q177.825 551.253 180.834 554.424 Q183.866 557.573 183.866 563.012 Q183.866 568.336 180.718 571.554 Q177.57 574.772 172.339 574.772 Q166.343 574.772 163.172 570.188 Q160.001 565.582 160.001 556.855 Q160.001 548.661 163.89 543.799 Q167.778 538.915 174.329 538.915 Q176.089 538.915 177.871 539.262 Q179.676 539.61 181.621 540.304 Z" fill="#000000" fill-rule="nonzero" fill-opacity="1" /><path clip-path="url(#clip620)" d="M126.783 266.094 Q123.172 266.094 121.343 269.659 Q119.538 273.2 119.538 280.33 Q119.538 287.436 121.343 291.001 Q123.172 294.543 126.783 294.543 Q130.417 294.543 132.223 291.001 Q134.052 287.436 134.052 280.33 Q134.052 273.2 132.223 269.659 Q130.417 266.094 126.783 266.094 M126.783 262.39 Q132.593 262.39 135.649 266.997 Q138.728 271.58 138.728 280.33 Q138.728 289.057 135.649 293.663 Q132.593 298.246 126.783 298.246 Q120.973 298.246 117.894 293.663 Q114.839 289.057 114.839 280.33 Q114.839 271.58 117.894 266.997 Q120.973 262.39 126.783 262.39 Z" fill="#000000" fill-rule="nonzero" fill-opacity="1" /><path clip-path="url(#clip620)" d="M146.945 291.695 L151.829 291.695 L151.829 297.575 L146.945 297.575 L146.945 291.695 Z" fill="#000000" fill-rule="nonzero" fill-opacity="1" /><path clip-path="url(#clip620)" d="M172.014 281.163 Q168.681 281.163 166.76 282.946 Q164.862 284.728 164.862 287.853 Q164.862 290.978 166.76 292.76 Q168.681 294.543 172.014 294.543 Q175.348 294.543 177.269 292.76 Q179.19 290.955 179.19 287.853 Q179.19 284.728 177.269 282.946 Q175.371 281.163 172.014 281.163 M167.339 279.172 Q164.329 278.432 162.64 276.372 Q160.973 274.311 160.973 271.348 Q160.973 267.205 163.913 264.797 Q166.876 262.39 172.014 262.39 Q177.176 262.39 180.116 264.797 Q183.056 267.205 183.056 271.348 Q183.056 274.311 181.366 276.372 Q179.7 278.432 176.714 279.172 Q180.093 279.959 181.968 282.251 Q183.866 284.543 183.866 287.853 Q183.866 292.876 180.788 295.561 Q177.732 298.246 172.014 298.246 Q166.297 298.246 163.218 295.561 Q160.163 292.876 160.163 287.853 Q160.163 284.543 162.061 282.251 Q163.959 279.959 167.339 279.172 M165.626 271.788 Q165.626 274.473 167.292 275.978 Q168.982 277.483 172.014 277.483 Q175.024 277.483 176.714 275.978 Q178.426 274.473 178.426 271.788 Q178.426 269.103 176.714 267.598 Q175.024 266.094 172.014 266.094 Q168.982 266.094 167.292 267.598 Q165.626 269.103 165.626 271.788 Z" fill="#000000" fill-rule="nonzero" fill-opacity="1" /><path clip-path="url(#clip620)" d="M29.7248 956.945 L35.1993 956.945 Q33.8307 959.427 33.1623 961.942 Q32.4621 964.424 32.4621 966.971 Q32.4621 972.668 36.0905 975.819 Q39.6872 978.97 46.212 978.97 Q52.7369 978.97 56.3653 975.819 Q59.9619 972.668 59.9619 966.971 Q59.9619 964.424 59.2935 961.942 Q58.5933 959.427 57.2247 956.945 L62.6355 956.945 Q63.7814 959.396 64.3543 962.037 Q64.9272 964.647 64.9272 967.607 Q64.9272 975.66 59.8664 980.402 Q54.8057 985.145 46.212 985.145 Q37.491 985.145 32.4939 980.371 Q27.4968 975.564 27.4968 967.225 Q27.4968 964.52 28.0697 961.942 Q28.6108 959.364 29.7248 956.945 Z" fill="#000000" fill-rule="nonzero" fill-opacity="1" /><path clip-path="url(#clip620)" d="M16.4842 953.094 L16.4842 912.894 L21.895 912.894 L21.895 929.763 L64.0042 929.763 L64.0042 936.224 L21.895 936.224 L21.895 953.094 L16.4842 953.094 Z" fill="#000000" fill-rule="nonzero" fill-opacity="1" /><path clip-path="url(#clip620)" d="M42.4881 877.31 L64.0042 877.31 L64.0042 883.166 L42.679 883.166 Q37.6183 883.166 35.1038 885.14 Q32.5894 887.113 32.5894 891.06 Q32.5894 895.802 35.6131 898.539 Q38.6368 901.277 43.8567 901.277 L64.0042 901.277 L64.0042 907.165 L28.3562 907.165 L28.3562 901.277 L33.8944 901.277 Q30.6797 899.176 29.0883 896.343 Q27.4968 893.479 27.4968 889.755 Q27.4968 883.612 31.3163 880.461 Q35.1038 877.31 42.4881 877.31 Z" fill="#000000" fill-rule="nonzero" fill-opacity="1" /><path clip-path="url(#clip620)" d="M16.4842 871.963 L16.4842 831.763 L21.895 831.763 L21.895 848.632 L64.0042 848.632 L64.0042 855.093 L21.895 855.093 L21.895 871.963 L16.4842 871.963 Z" fill="#000000" fill-rule="nonzero" fill-opacity="1" /><path clip-path="url(#clip620)" d="M14.479 805.632 L14.479 792.137 L19.0304 792.137 L19.0304 799.775 L68.0464 799.775 L68.0464 792.137 L72.5979 792.137 L72.5979 805.632 L14.479 805.632 Z" fill="#000000" fill-rule="nonzero" fill-opacity="1" /><path clip-path="url(#clip620)" d="M42.4881 750.027 L64.0042 750.027 L64.0042 755.884 L42.679 755.884 Q37.6183 755.884 35.1038 757.857 Q32.5894 759.831 32.5894 763.777 Q32.5894 768.52 35.6131 771.257 Q38.6368 773.994 43.8567 773.994 L64.0042 773.994 L64.0042 779.883 L28.3562 779.883 L28.3562 773.994 L33.8944 773.994 Q30.6797 771.894 29.0883 769.061 Q27.4968 766.196 27.4968 762.472 Q27.4968 756.33 31.3163 753.179 Q35.1038 750.027 42.4881 750.027 Z" fill="#000000" fill-rule="nonzero" fill-opacity="1" /><path clip-path="url(#clip620)" d="M45.7664 714.889 Q39.4007 714.889 35.8996 717.531 Q32.3984 720.141 32.3984 724.883 Q32.3984 729.594 35.8996 732.235 Q39.4007 734.845 45.7664 734.845 Q52.1003 734.845 55.6014 732.235 Q59.1026 729.594 59.1026 724.883 Q59.1026 720.141 55.6014 717.531 Q52.1003 714.889 45.7664 714.889 M59.58 709.032 Q68.683 709.032 73.1071 713.075 Q77.5631 717.117 77.5631 725.456 Q77.5631 728.543 77.0857 731.28 Q76.6401 734.018 75.6852 736.596 L69.9879 736.596 Q71.3884 734.018 72.0568 731.503 Q72.7252 728.989 72.7252 726.379 Q72.7252 720.618 69.7015 717.753 Q66.7096 714.889 60.6303 714.889 L57.7339 714.889 Q60.885 716.703 62.4446 719.536 Q64.0042 722.369 64.0042 726.315 Q64.0042 732.872 59.0071 736.882 Q54.01 740.893 45.7664 740.893 Q37.491 740.893 32.4939 736.882 Q27.4968 732.872 27.4968 726.315 Q27.4968 722.369 29.0564 719.536 Q30.616 716.703 33.7671 714.889 L28.3562 714.889 L28.3562 709.032 L59.58 709.032 Z" fill="#000000" fill-rule="nonzero" fill-opacity="1" /><path clip-path="url(#clip620)" d="M16.4842 686.561 L16.4842 681.151 L70.0516 697.701 L70.0516 703.112 L16.4842 686.561 Z" fill="#000000" fill-rule="nonzero" fill-opacity="1" /><path clip-path="url(#clip620)" d="M35.1993 647.253 Q31.2526 645.057 29.3747 642.001 Q27.4968 638.946 27.4968 634.808 Q27.4968 629.238 31.4117 626.215 Q35.2948 623.191 42.4881 623.191 L64.0042 623.191 L64.0042 629.079 L42.679 629.079 Q37.5546 629.079 35.072 630.893 Q32.5894 632.708 32.5894 636.431 Q32.5894 640.983 35.6131 643.625 Q38.6368 646.266 43.8567 646.266 L64.0042 646.266 L64.0042 652.155 L42.679 652.155 Q37.5228 652.155 35.072 653.969 Q32.5894 655.783 32.5894 659.571 Q32.5894 664.059 35.6449 666.7 Q38.6686 669.342 43.8567 669.342 L64.0042 669.342 L64.0042 675.23 L28.3562 675.23 L28.3562 669.342 L33.8944 669.342 Q30.616 667.337 29.0564 664.536 Q27.4968 661.735 27.4968 657.884 Q27.4968 654.001 29.4702 651.295 Q31.4436 648.558 35.1993 647.253 Z" fill="#000000" fill-rule="nonzero" fill-opacity="1" /><path clip-path="url(#clip620)" d="M16.4842 611.255 L16.4842 604.826 L58.5933 604.826 L58.5933 581.686 L64.0042 581.686 L64.0042 611.255 L16.4842 611.255 Z" fill="#000000" fill-rule="nonzero" fill-opacity="1" /><path clip-path="url(#clip620)" d="M14.479 561.507 L72.5979 561.507 L72.5979 575.002 L68.0464 575.002 L68.0464 567.395 L19.0304 567.395 L19.0304 575.002 L14.479 575.002 L14.479 561.507 Z" fill="#000000" fill-rule="nonzero" fill-opacity="1" /><path clip-path="url(#clip620)" d="M1038.8 18.8205 L1038.8 41.5461 L1049.09 41.5461 Q1054.8 41.5461 1057.92 38.5889 Q1061.04 35.6318 1061.04 30.163 Q1061.04 24.7348 1057.92 21.7777 Q1054.8 18.8205 1049.09 18.8205 L1038.8 18.8205 M1030.62 12.096 L1049.09 12.096 Q1059.26 12.096 1064.44 16.714 Q1069.67 21.2916 1069.67 30.163 Q1069.67 39.1155 1064.44 43.6931 Q1059.26 48.2706 1049.09 48.2706 L1038.8 48.2706 L1038.8 72.576 L1030.62 72.576 L1030.62 12.096 Z" fill="#000000" fill-rule="nonzero" fill-opacity="1" /><path clip-path="url(#clip620)" d="M1097.21 49.7694 Q1088.18 49.7694 1084.7 51.8354 Q1081.21 53.9013 1081.21 58.8839 Q1081.21 62.8538 1083.81 65.2034 Q1086.44 67.5124 1090.94 67.5124 Q1097.13 67.5124 1100.86 63.1374 Q1104.63 58.7219 1104.63 51.4303 L1104.63 49.7694 L1097.21 49.7694 M1112.08 46.6907 L1112.08 72.576 L1104.63 72.576 L1104.63 65.6895 Q1102.08 69.8214 1098.27 71.8063 Q1094.46 73.7508 1088.95 73.7508 Q1081.98 73.7508 1077.85 69.8619 Q1073.76 65.9325 1073.76 59.3701 Q1073.76 51.7138 1078.86 47.825 Q1084.01 43.9361 1094.18 43.9361 L1104.63 43.9361 L1104.63 43.2069 Q1104.63 38.0623 1101.23 35.2672 Q1097.86 32.4315 1091.75 32.4315 Q1087.86 32.4315 1084.17 33.3632 Q1080.48 34.295 1077.08 36.1584 L1077.08 29.2718 Q1081.17 27.692 1085.02 26.9223 Q1088.87 26.1121 1092.52 26.1121 Q1102.36 26.1121 1107.22 31.2163 Q1112.08 36.3204 1112.08 46.6907 Z" fill="#000000" fill-rule="nonzero" fill-opacity="1" /><path clip-path="url(#clip620)" d="M1134.81 14.324 L1134.81 27.2059 L1150.16 27.2059 L1150.16 32.9987 L1134.81 32.9987 L1134.81 57.6282 Q1134.81 63.1779 1136.31 64.7578 Q1137.85 66.3376 1142.5 66.3376 L1150.16 66.3376 L1150.16 72.576 L1142.5 72.576 Q1133.88 72.576 1130.59 69.3758 Q1127.31 66.1351 1127.31 57.6282 L1127.31 32.9987 L1121.84 32.9987 L1121.84 27.2059 L1127.31 27.2059 L1127.31 14.324 L1134.81 14.324 Z" fill="#000000" fill-rule="nonzero" fill-opacity="1" /><path clip-path="url(#clip620)" d="M1159.96 27.2059 L1167.42 27.2059 L1167.42 72.576 L1159.96 72.576 L1159.96 27.2059 M1159.96 9.54393 L1167.42 9.54393 L1167.42 18.9825 L1159.96 18.9825 L1159.96 9.54393 Z" fill="#000000" fill-rule="nonzero" fill-opacity="1" /><path clip-path="url(#clip620)" d="M1221.82 48.0275 L1221.82 51.6733 L1187.55 51.6733 Q1188.04 59.3701 1192.17 63.421 Q1196.34 67.4314 1203.75 67.4314 Q1208.05 67.4314 1212.06 66.3781 Q1216.11 65.3249 1220.08 63.2184 L1220.08 70.267 Q1216.07 71.9684 1211.86 72.8596 Q1207.64 73.7508 1203.31 73.7508 Q1192.45 73.7508 1186.09 67.4314 Q1179.77 61.1119 1179.77 50.3365 Q1179.77 39.1965 1185.77 32.6746 Q1191.8 26.1121 1202.01 26.1121 Q1211.17 26.1121 1216.47 32.0264 Q1221.82 37.9003 1221.82 48.0275 M1214.37 45.84 Q1214.29 39.7232 1210.92 36.0774 Q1207.6 32.4315 1202.09 32.4315 Q1195.85 32.4315 1192.09 35.9558 Q1188.36 39.4801 1187.79 45.8805 L1214.37 45.84 Z" fill="#000000" fill-rule="nonzero" fill-opacity="1" /><path clip-path="url(#clip620)" d="M1271.77 45.1919 L1271.77 72.576 L1264.31 72.576 L1264.31 45.4349 Q1264.31 38.994 1261.8 35.7938 Q1259.29 32.5936 1254.27 32.5936 Q1248.23 32.5936 1244.75 36.4419 Q1241.27 40.2903 1241.27 46.9338 L1241.27 72.576 L1233.77 72.576 L1233.77 27.2059 L1241.27 27.2059 L1241.27 34.2544 Q1243.94 30.163 1247.54 28.1376 Q1251.19 26.1121 1255.93 26.1121 Q1263.75 26.1121 1267.76 30.9732 Q1271.77 35.7938 1271.77 45.1919 Z" fill="#000000" fill-rule="nonzero" fill-opacity="1" /><path clip-path="url(#clip620)" d="M1294.01 14.324 L1294.01 27.2059 L1309.36 27.2059 L1309.36 32.9987 L1294.01 32.9987 L1294.01 57.6282 Q1294.01 63.1779 1295.51 64.7578 Q1297.05 66.3376 1301.7 66.3376 L1309.36 66.3376 L1309.36 72.576 L1301.7 72.576 Q1293.08 72.576 1289.79 69.3758 Q1286.51 66.1351 1286.51 57.6282 L1286.51 32.9987 L1281.04 32.9987 L1281.04 27.2059 L1286.51 27.2059 L1286.51 14.324 L1294.01 14.324 Z" fill="#000000" fill-rule="nonzero" fill-opacity="1" /><path clip-path="url(#clip620)" d="M1383.25 45.1919 L1383.25 72.576 L1375.8 72.576 L1375.8 45.4349 Q1375.8 38.994 1373.28 35.7938 Q1370.77 32.5936 1365.75 32.5936 Q1359.71 32.5936 1356.23 36.4419 Q1352.75 40.2903 1352.75 46.9338 L1352.75 72.576 L1345.25 72.576 L1345.25 27.2059 L1352.75 27.2059 L1352.75 34.2544 Q1355.42 30.163 1359.02 28.1376 Q1362.67 26.1121 1367.41 26.1121 Q1375.23 26.1121 1379.24 30.9732 Q1383.25 35.7938 1383.25 45.1919 Z" fill="#000000" fill-rule="nonzero" fill-opacity="1" /><path clip-path="url(#clip620)" d="M1397.1 12.096 L1435.99 12.096 L1435.99 15.5798 L1414.04 72.576 L1405.49 72.576 L1426.15 18.9825 L1397.1 18.9825 L1397.1 12.096 Z" fill="#000000" fill-rule="nonzero" fill-opacity="1" /><path clip-path="url(#clip620)" d="M1453.37 65.6895 L1466.74 65.6895 L1466.74 19.5497 L1452.2 22.4663 L1452.2 15.0127 L1466.66 12.096 L1474.84 12.096 L1474.84 65.6895 L1488.21 65.6895 L1488.21 72.576 L1453.37 72.576 L1453.37 65.6895 Z" fill="#000000" fill-rule="nonzero" fill-opacity="1" /><path clip-path="url(#clip620)" d="M1529.53 39.9662 Q1535.4 41.222 1538.68 45.1919 Q1542 49.1618 1542 54.9951 Q1542 63.9476 1535.85 68.8492 Q1529.69 73.7508 1518.35 73.7508 Q1514.54 73.7508 1510.49 72.9811 Q1506.48 72.2519 1502.18 70.7531 L1502.18 62.8538 Q1505.59 64.8388 1509.64 65.8515 Q1513.69 66.8642 1518.1 66.8642 Q1525.8 66.8642 1529.81 63.826 Q1533.86 60.7879 1533.86 54.9951 Q1533.86 49.6479 1530.09 46.6502 Q1526.37 43.612 1519.68 43.612 L1512.64 43.612 L1512.64 36.8875 L1520.01 36.8875 Q1526.04 36.8875 1529.24 34.4975 Q1532.44 32.067 1532.44 27.5299 Q1532.44 22.8714 1529.12 20.4004 Q1525.84 17.8888 1519.68 17.8888 Q1516.32 17.8888 1512.47 18.618 Q1508.62 19.3471 1504.01 20.8865 L1504.01 13.5948 Q1508.67 12.2985 1512.72 11.6504 Q1516.81 11.0023 1520.41 11.0023 Q1529.73 11.0023 1535.16 15.2557 Q1540.59 19.4686 1540.59 26.6793 Q1540.59 31.7024 1537.71 35.1862 Q1534.83 38.6294 1529.53 39.9662 Z" fill="#000000" fill-rule="nonzero" fill-opacity="1" /><polyline clip-path="url(#clip622)" style="stroke:#009af9; stroke-linecap:round; stroke-linejoin:round; stroke-width:8; stroke-opacity:1; fill:none" points="219.866,1386.4 222.001,1360.2 224.136,1335.84 226.271,1313.2 228.406,1292.15 230.541,1272.58 232.676,1254.4 234.811,1237.5 236.946,1221.81 239.081,1207.23 241.217,1193.69 243.352,1181.11 245.487,1169.44 247.622,1158.61 249.757,1148.56 251.892,1139.24 254.027,1130.59 256.162,1122.58 258.297,1115.15 260.432,1108.27 262.567,1101.9 264.702,1096 266.837,1090.54 268.972,1085.5 271.107,1080.84 273.242,1076.53 275.377,1072.55 277.512,1068.89 279.647,1065.51 281.782,1062.4 283.917,1059.54 286.052,1056.91 288.187,1054.5 290.322,1052.28 292.457,1050.26 294.592,1048.41 296.727,1046.72 298.862,1045.18 300.997,1043.79 303.132,1042.52 305.267,1041.38 307.402,1040.35 309.537,1039.42 311.672,1038.59 313.807,1037.85 315.942,1037.2 318.077,1036.63 320.212,1036.13 322.347,1035.71 324.482,1035.34 326.617,1035.04 328.753,1034.78 330.888,1034.58 333.023,1034.43 335.158,1034.32 337.293,1034.25 339.428,1034.23 341.563,1034.23 343.698,1034.27 345.833,1034.35 347.968,1034.45 350.103,1034.58 352.238,1034.73 354.373,1034.9 356.508,1035.1 358.643,1035.32 360.778,1035.55 362.913,1035.8 365.048,1036.07 367.183,1036.35 369.318,1036.64 371.453,1036.95 373.588,1037.27 375.723,1037.6 377.858,1037.95 379.993,1038.3 382.128,1038.66 384.263,1039.03 386.398,1039.4 388.533,1039.78 390.668,1040.17 392.803,1040.56 394.938,1040.96 397.073,1041.37 399.208,1041.77 401.343,1042.18 403.478,1042.6 405.613,1043.02 407.748,1043.44 409.883,1043.87 412.018,1044.3 414.154,1044.73 416.289,1045.16 418.424,1045.6 420.559,1046.03 422.694,1046.47 424.829,1046.91 426.964,1047.36 429.099,1047.8 431.234,1048.24 433.369,1048.69 435.504,1049.13 437.639,1049.58 439.774,1050.02 441.909,1050.47 444.044,1050.91 446.179,1051.36 448.314,1051.81 450.449,1052.26 452.584,1052.7 454.719,1053.15 456.854,1053.6 458.989,1054.05 461.124,1054.49 463.259,1054.94 465.394,1055.39 467.529,1055.83 469.664,1056.28 471.799,1056.73 473.934,1057.17 476.069,1057.62 478.204,1058.06 480.339,1058.5 482.474,1058.95 484.609,1059.39 486.744,1059.83 488.879,1060.27 491.014,1060.71 493.149,1061.15 495.284,1061.59 497.419,1062.03 499.554,1062.46 501.69,1062.9 503.825,1063.33 505.96,1063.77 508.095,1064.2 510.23,1064.64 512.365,1065.07 514.5,1065.5 516.635,1065.93 518.77,1066.36 520.905,1066.79 523.04,1067.22 525.175,1067.65 527.31,1068.07 529.445,1068.5 531.58,1068.93 533.715,1069.35 535.85,1069.77 537.985,1070.19 540.12,1070.61 542.255,1071.03 544.39,1071.45 546.525,1071.87 548.66,1072.28 550.795,1072.7 552.93,1073.11 555.065,1073.53 557.2,1073.94 559.335,1074.35 561.47,1074.76 563.605,1075.17 565.74,1075.57 567.875,1075.98 570.01,1076.39 572.145,1076.79 574.28,1077.2 576.415,1077.6 578.55,1078 580.685,1078.4 582.82,1078.8 584.955,1079.2 587.091,1079.6 589.226,1079.99 591.361,1080.39 593.496,1080.78 595.631,1081.17 597.766,1081.57 599.901,1081.96 602.036,1082.34 604.171,1082.73 606.306,1083.12 608.441,1083.51 610.576,1083.89 612.711,1084.27 614.846,1084.65 616.981,1085.03 619.116,1085.41 621.251,1085.79 623.386,1086.17 625.521,1086.54 627.656,1086.91 629.791,1087.28 631.926,1087.65 634.061,1088.02 636.196,1088.39 638.331,1088.76 640.466,1089.12 642.601,1089.49 644.736,1089.85 646.871,1090.21 649.006,1090.57 651.141,1090.93 653.276,1091.29 655.411,1091.65 657.546,1092 659.681,1092.36 661.816,1092.71 663.951,1093.06 666.086,1093.41 668.221,1093.76 670.356,1094.11 672.491,1094.46 674.627,1094.8 676.762,1095.15 678.897,1095.49 681.032,1095.83 683.167,1096.17 685.302,1096.51 687.437,1096.85 689.572,1097.18 691.707,1097.51 693.842,1097.85 695.977,1098.18 698.112,1098.51 700.247,1098.83 702.382,1099.16 704.517,1099.48 706.652,1099.8 708.787,1100.12 710.922,1100.44 713.057,1100.76 715.192,1101.07 717.327,1101.38 719.462,1101.69 721.597,1102 723.732,1102.31 725.867,1102.61 728.002,1102.92 730.137,1103.22 732.272,1103.52 734.407,1103.82 736.542,1104.12 738.677,1104.42 740.812,1104.71 742.947,1105 745.082,1105.3 747.217,1105.59 749.352,1105.88 751.487,1106.16 753.622,1106.45 755.757,1106.74 757.892,1107.02 760.028,1107.3 762.163,1107.58 764.298,1107.86 766.433,1108.14 768.568,1108.41 770.703,1108.69 772.838,1108.96 774.973,1109.23 777.108,1109.5 779.243,1109.77 781.378,1110.03 783.513,1110.29 785.648,1110.56 787.783,1110.82 789.918,1111.07 792.053,1111.33 794.188,1111.58 796.323,1111.83 798.458,1112.08 800.593,1112.32 802.728,1112.57 804.863,1112.81 806.998,1113.05 809.133,1113.28 811.268,1113.51 813.403,1113.74 815.538,1113.97 817.673,1114.2 819.808,1114.42 821.943,1114.64 824.078,1114.86 826.213,1115.08 828.348,1115.3 830.483,1115.51 832.618,1115.72 834.753,1115.93 836.888,1116.14 839.023,1116.35 841.158,1116.56 843.293,1116.76 845.428,1116.96 847.564,1117.16 849.699,1117.36 851.834,1117.56 853.969,1117.75 856.104,1117.95 858.239,1118.14 860.374,1118.33 862.509,1118.52 864.644,1118.7 866.779,1118.89 868.914,1119.07 871.049,1119.25 873.184,1119.43 875.319,1119.61 877.454,1119.78 879.589,1119.95 881.724,1120.12 883.859,1120.29 885.994,1120.45 888.129,1120.61 890.264,1120.77 892.399,1120.93 894.534,1121.08 896.669,1121.23 898.804,1121.38 900.939,1121.52 903.074,1121.66 905.209,1121.8 907.344,1121.93 909.479,1122.06 911.614,1122.19 913.749,1122.31 915.884,1122.43 918.019,1122.55 920.154,1122.66 922.289,1122.78 924.424,1122.89 926.559,1122.99 928.694,1123.1 930.829,1123.2 932.965,1123.3 935.1,1123.4 937.235,1123.5 939.37,1123.6 941.505,1123.69 943.64,1123.78 945.775,1123.87 947.91,1123.96 950.045,1124.04 952.18,1124.13 954.315,1124.21 956.45,1124.29 958.585,1124.36 960.72,1124.44 962.855,1124.51 964.99,1124.58 967.125,1124.65 969.26,1124.72 971.395,1124.78 973.53,1124.84 975.665,1124.9 977.8,1124.96 979.935,1125.01 982.07,1125.06 984.205,1125.11 986.34,1125.15 988.475,1125.19 990.61,1125.23 992.745,1125.26 994.88,1125.29 997.015,1125.32 999.15,1125.34 1001.29,1125.36 1003.42,1125.37 1005.56,1125.38 1007.69,1125.38 1009.83,1125.38 1011.96,1125.38 1014.1,1125.37 1016.23,1125.36 1018.37,1125.34 1020.5,1125.32 1022.64,1125.3 1024.77,1125.28 1026.91,1125.25 1029.04,1125.22 1031.18,1125.19 1033.31,1125.16 1035.45,1125.12 1037.58,1125.08 1039.72,1125.04 1041.85,1124.99 1043.99,1124.95 1046.12,1124.9 1048.26,1124.85 1050.39,1124.79 1052.53,1124.74 1054.66,1124.68 1056.8,1124.62 1058.93,1124.56 1061.07,1124.49 1063.2,1124.42 1065.34,1124.35 1067.47,1124.28 1069.61,1124.21 1071.74,1124.13 1073.88,1124.04 1076.01,1123.96 1078.15,1123.87 1080.28,1123.78 1082.42,1123.69 1084.55,1123.59 1086.69,1123.48 1088.82,1123.38 1090.96,1123.27 1093.09,1123.15 1095.23,1123.03 1097.36,1122.91 1099.5,1122.78 1101.63,1122.64 1103.77,1122.5 1105.9,1122.35 1108.04,1122.2 1110.17,1122.05 1112.31,1121.88 1114.44,1121.72 1116.58,1121.55 1118.71,1121.38 1120.85,1121.2 1122.98,1121.02 1125.12,1120.83 1127.25,1120.65 1129.39,1120.46 1131.52,1120.26 1133.66,1120.06 1135.79,1119.86 1137.93,1119.66 1140.06,1119.46 1142.2,1119.25 1144.33,1119.04 1146.47,1118.82 1148.6,1118.61 1150.74,1118.39 1152.87,1118.16 1155.01,1117.94 1157.14,1117.71 1159.28,1117.48 1161.41,1117.25 1163.55,1117.01 1165.68,1116.77 1167.82,1116.53 1169.95,1116.29 1172.09,1116.04 1174.22,1115.78 1176.36,1115.53 1178.49,1115.27 1180.63,1115.01 1182.76,1114.74 1184.9,1114.46 1187.03,1114.19 1189.17,1113.91 1191.3,1113.62 1193.44,1113.33 1195.57,1113.03 1197.71,1112.73 1199.84,1112.42 1201.98,1112.1 1204.11,1111.78 1206.25,1111.45 1208.38,1111.11 1210.52,1110.77 1212.65,1110.43 1214.79,1110.08 1216.92,1109.72 1219.06,1109.36 1221.19,1109 1223.33,1108.63 1225.46,1108.26 1227.6,1107.88 1229.73,1107.5 1231.87,1107.12 1234,1106.73 1236.14,1106.34 1238.27,1105.95 1240.41,1105.55 1242.54,1105.15 1244.68,1104.75 1246.81,1104.34 1248.95,1103.93 1251.08,1103.52 1253.22,1103.1 1255.35,1102.68 1257.49,1102.26 1259.62,1101.84 1261.76,1101.41 1263.89,1100.97 1266.03,1100.54 1268.16,1100.1 1270.3,1099.66 1272.43,1099.21 1274.57,1098.76 1276.7,1098.3 1278.84,1097.84 1280.97,1097.38 1283.11,1096.91 1285.24,1096.43 1287.38,1095.95 1289.51,1095.47 1291.65,1094.98 1293.78,1094.48 1295.92,1093.98 1298.05,1093.47 1300.19,1092.95 1302.32,1092.42 1304.46,1091.89 1306.59,1091.35 1308.73,1090.8 1310.86,1090.25 1313,1089.69 1315.13,1089.13 1317.27,1088.56 1319.4,1087.99 1321.54,1087.41 1323.67,1086.83 1325.81,1086.24 1327.94,1085.65 1330.08,1085.05 1332.21,1084.45 1334.35,1083.84 1336.48,1083.24 1338.62,1082.62 1340.75,1082.01 1342.89,1081.39 1345.02,1080.77 1347.16,1080.14 1349.29,1079.51 1351.43,1078.88 1353.56,1078.24 1355.7,1077.6 1357.83,1076.95 1359.97,1076.31 1362.1,1075.65 1364.24,1075 1366.37,1074.34 1368.51,1073.67 1370.64,1073 1372.78,1072.33 1374.91,1071.65 1377.05,1070.97 1379.18,1070.28 1381.32,1069.59 1383.45,1068.89 1385.59,1068.19 1387.72,1067.48 1389.86,1066.76 1391.99,1066.04 1394.13,1065.31 1396.26,1064.58 1398.4,1063.83 1400.53,1063.08 1402.67,1062.32 1404.8,1061.55 1406.94,1060.77 1409.08,1059.99 1411.21,1059.2 1413.35,1058.4 1415.48,1057.6 1417.62,1056.79 1419.75,1055.98 1421.89,1055.16 1424.02,1054.33 1426.16,1053.5 1428.29,1052.67 1430.43,1051.83 1432.56,1050.98 1434.7,1050.14 1436.83,1049.28 1438.97,1048.43 1441.1,1047.57 1443.24,1046.7 1445.37,1045.83 1447.51,1044.96 1449.64,1044.08 1451.78,1043.2 1453.91,1042.32 1456.05,1041.43 1458.18,1040.54 1460.32,1039.64 1462.45,1038.74 1464.59,1037.84 1466.72,1036.93 1468.86,1036.01 1470.99,1035.1 1473.13,1034.17 1475.26,1033.24 1477.4,1032.31 1479.53,1031.37 1481.67,1030.42 1483.8,1029.47 1485.94,1028.52 1488.07,1027.55 1490.21,1026.58 1492.34,1025.6 1494.48,1024.62 1496.61,1023.62 1498.75,1022.62 1500.88,1021.61 1503.02,1020.59 1505.15,1019.56 1507.29,1018.53 1509.42,1017.48 1511.56,1016.43 1513.69,1015.37 1515.83,1014.3 1517.96,1013.23 1520.1,1012.15 1522.23,1011.07 1524.37,1009.98 1526.5,1008.88 1528.64,1007.78 1530.77,1006.68 1532.91,1005.57 1535.04,1004.45 1537.18,1003.33 1539.31,1002.21 1541.45,1001.08 1543.58,999.947 1545.72,998.81 1547.85,997.669 1549.99,996.523 1552.12,995.374 1554.26,994.221 1556.39,993.063 1558.53,991.901 1560.66,990.734 1562.8,989.564 1564.93,988.388 1567.07,987.208 1569.2,986.024 1571.34,984.834 1573.47,983.639 1575.61,982.439 1577.74,981.233 1579.88,980.021 1582.01,978.804 1584.15,977.58 1586.28,976.349 1588.42,975.111 1590.55,973.866 1592.69,972.614 1594.82,971.353 1596.96,970.084 1599.09,968.807 1601.23,967.52 1603.36,966.223 1605.5,964.917 1607.63,963.6 1609.77,962.275 1611.9,960.942 1614.04,959.602 1616.17,958.254 1618.31,956.899 1620.44,955.538 1622.58,954.17 1624.71,952.797 1626.85,951.417 1628.98,950.033 1631.12,948.643 1633.25,947.247 1635.39,945.847 1637.52,944.442 1639.66,943.033 1641.79,941.619 1643.93,940.2 1646.06,938.778 1648.2,937.351 1650.33,935.919 1652.47,934.484 1654.6,933.044 1656.74,931.6 1658.87,930.152 1661.01,928.7 1663.14,927.243 1665.28,925.781 1667.41,924.315 1669.55,922.844 1671.68,921.368 1673.82,919.887 1675.95,918.401 1678.09,916.909 1680.22,915.411 1682.36,913.907 1684.49,912.396 1686.63,910.879 1688.76,909.355 1690.9,907.824 1693.03,906.284 1695.17,904.737 1697.3,903.181 1699.44,901.616 1701.57,900.042 1703.71,898.458 1705.84,896.863 1707.98,895.258 1710.11,893.642 1712.25,892.018 1714.38,890.385 1716.52,888.744 1718.65,887.096 1720.79,885.441 1722.92,883.779 1725.06,882.11 1727.19,880.436 1729.33,878.755 1731.46,877.069 1733.6,875.378 1735.73,873.682 1737.87,871.981 1740,870.275 1742.14,868.565 1744.27,866.85 1746.41,865.131 1748.54,863.408 1750.68,861.681 1752.81,859.95 1754.95,858.214 1757.08,856.475 1759.22,854.732 1761.35,852.984 1763.49,851.233 1765.62,849.477 1767.76,847.717 1769.89,845.952 1772.03,844.183 1774.16,842.408 1776.3,840.629 1778.43,838.845 1780.57,837.055 1782.7,835.259 1784.84,833.457 1786.97,831.649 1789.11,829.834 1791.24,828.013 1793.38,826.183 1795.51,824.346 1797.65,822.501 1799.78,820.647 1801.92,818.783 1804.05,816.91 1806.19,815.027 1808.32,813.133 1810.46,811.228 1812.59,809.312 1814.73,807.386 1816.86,805.451 1819,803.508 1821.13,801.558 1823.27,799.6 1825.4,797.635 1827.54,795.663 1829.67,793.686 1831.81,791.702 1833.94,789.714 1836.08,787.72 1838.21,785.721 1840.35,783.717 1842.49,781.709 1844.62,779.697 1846.76,777.681 1848.89,775.661 1851.03,773.637 1853.16,771.61 1855.3,769.579 1857.43,767.544 1859.57,765.506 1861.7,763.464 1863.84,761.419 1865.97,759.37 1868.11,757.317 1870.24,755.261 1872.38,753.2 1874.51,751.136 1876.65,749.067 1878.78,746.994 1880.92,744.916 1883.05,742.833 1885.19,740.745 1887.32,738.651 1889.46,736.551 1891.59,734.446 1893.73,732.333 1895.86,730.214 1898,728.087 1900.13,725.952 1902.27,723.809 1904.4,721.657 1906.54,719.496 1908.67,717.325 1910.81,715.143 1912.94,712.95 1915.08,710.745 1917.21,708.529 1919.35,706.303 1921.48,704.068 1923.62,701.825 1925.75,699.575 1927.89,697.317 1930.02,695.053 1932.16,692.783 1934.29,690.507 1936.43,688.226 1938.56,685.939 1940.7,683.649 1942.83,681.353 1944.97,679.054 1947.1,676.751 1949.24,674.445 1951.37,672.135 1953.51,669.822 1955.64,667.506 1957.78,665.187 1959.91,662.865 1962.05,660.541 1964.18,658.214 1966.32,655.884 1968.45,653.552 1970.59,651.216 1972.72,648.878 1974.86,646.537 1976.99,644.193 1979.13,641.846 1981.26,639.495 1983.4,637.141 1985.53,634.782 1987.67,632.42 1989.8,630.053 1991.94,627.681 1994.07,625.304 1996.21,622.921 1998.34,620.532 2000.48,618.137 2002.61,615.735 2004.75,613.326 2006.88,610.909 2009.02,608.483 2011.15,606.048 2013.29,603.604 2015.42,601.149 2017.56,598.683 2019.69,596.205 2021.83,593.715 2023.96,591.215 2026.1,588.706 2028.23,586.188 2030.37,583.663 2032.5,581.132 2034.64,578.594 2036.77,576.05 2038.91,573.5 2041.04,570.946 2043.18,568.388 2045.31,565.826 2047.45,563.26 2049.58,560.691 2051.72,558.119 2053.85,555.544 2055.99,552.967 2058.12,550.388 2060.26,547.807 2062.39,545.225 2064.53,542.641 2066.66,540.055 2068.8,537.467 2070.93,534.879 2073.07,532.288 2075.2,529.697 2077.34,527.104 2079.47,524.509 2081.61,521.912 2083.74,519.314 2085.88,516.713 2088.01,514.11 2090.15,511.505 2092.28,508.897 2094.42,506.285 2096.55,503.67 2098.69,501.051 2100.82,498.428 2102.96,495.8 2105.09,493.167 2107.23,490.528 2109.36,487.883 2111.5,485.231 2113.63,482.571 2115.77,479.904 2117.9,477.227 2120.04,474.542 2122.17,471.846 2124.31,469.139 2126.44,466.42 2128.58,463.689 2130.71,460.947 2132.85,458.197 2134.98,455.44 2137.12,452.675 2139.25,449.905 2141.39,447.129 2143.52,444.348 2145.66,441.562 2147.79,438.773 2149.93,435.981 2152.06,433.186 2154.2,430.389 2156.33,427.59 2158.47,424.789 2160.6,421.987 2162.74,419.185 2164.87,416.381 2167.01,413.578 2169.14,410.774 2171.28,407.97 2173.41,405.166 2175.55,402.363 2177.68,399.559 2179.82,396.756 2181.95,393.954 2184.09,391.151 2186.22,388.349 2188.36,385.546 2190.49,382.743 2192.63,379.94 2194.76,377.136 2196.9,374.331 2199.03,371.525 2201.17,368.717 2203.3,365.908 2205.44,363.096 2207.57,360.281 2209.71,357.462 2211.84,354.64 2213.98,351.814 2216.11,348.982 2218.25,346.144 2220.38,343.301 2222.52,340.45 2224.65,337.591 2226.79,334.724 2228.92,331.847 2231.06,328.96 2233.19,326.062 2235.33,323.151 2237.46,320.229 2239.6,317.299 2241.73,314.361 2243.87,311.417 2246,308.467 2248.14,305.513 2250.27,302.554 2252.41,299.593 2254.54,296.628 2256.68,293.662 2258.81,290.694 2260.95,287.725 2263.08,284.756 2265.22,281.787 2267.35,278.819 2269.49,275.851 2271.62,272.885 2273.76,269.92 2275.9,266.957 2278.03,263.995 2280.17,261.036 2282.3,258.079 2284.44,255.124 2286.57,252.172 2288.71,249.222 2290.84,246.275 2292.98,243.329 2295.11,240.386 2297.25,237.445 2299.38,234.505 2301.52,231.567 2303.65,228.63 2305.79,225.695 2307.92,222.759 2310.06,219.824 2312.19,216.888 2314.33,213.952 2316.46,211.014 2318.6,208.075 2320.73,205.132 2322.87,202.187 2325,199.237 2327.14,196.283 2329.27,193.324 2331.41,190.358 2333.54,187.385 2335.68,184.404 2337.81,181.414 2339.95,178.414 2342.08,175.403 2344.22,172.38 2346.35,169.348 2348.49,166.317 2350.62,163.286 2352.76,160.256 "/>
<circle clip-path="url(#clip622)" cx="394.863" cy="1026.91" r="18" fill="#e26f46" fill-rule="evenodd" fill-opacity="1" stroke="#000000" stroke-opacity="1" stroke-width="3.2"/>
<circle clip-path="url(#clip622)" cx="925.037" cy="1165.18" r="18" fill="#e26f46" fill-rule="evenodd" fill-opacity="1" stroke="#000000" stroke-opacity="1" stroke-width="3.2"/>
<circle clip-path="url(#clip622)" cx="1197.9" cy="1068.39" r="18" fill="#e26f46" fill-rule="evenodd" fill-opacity="1" stroke="#000000" stroke-opacity="1" stroke-width="3.2"/>
<circle clip-path="url(#clip622)" cx="1364.05" cy="1013.09" r="18" fill="#e26f46" fill-rule="evenodd" fill-opacity="1" stroke="#000000" stroke-opacity="1" stroke-width="3.2"/>
<circle clip-path="url(#clip622)" cx="1585.09" cy="1054.57" r="18" fill="#e26f46" fill-rule="evenodd" fill-opacity="1" stroke="#000000" stroke-opacity="1" stroke-width="3.2"/>
<circle clip-path="url(#clip622)" cx="1838.13" cy="888.65" r="18" fill="#e26f46" fill-rule="evenodd" fill-opacity="1" stroke="#000000" stroke-opacity="1" stroke-width="3.2"/>
<circle clip-path="url(#clip622)" cx="1966.18" cy="598.299" r="18" fill="#e26f46" fill-rule="evenodd" fill-opacity="1" stroke="#000000" stroke-opacity="1" stroke-width="3.2"/>
<circle clip-path="url(#clip622)" cx="2169.83" cy="280.295" r="18" fill="#e26f46" fill-rule="evenodd" fill-opacity="1" stroke="#000000" stroke-opacity="1" stroke-width="3.2"/>
<path clip-path="url(#clip620)" d="M290.963 322.316 L853.625 322.316 L853.625 166.796 L290.963 166.796  Z" fill="#ffffff" fill-rule="evenodd" fill-opacity="1"/>
<polyline clip-path="url(#clip620)" style="stroke:#000000; stroke-linecap:round; stroke-linejoin:round; stroke-width:4; stroke-opacity:1; fill:none" points="290.963,322.316 853.625,322.316 853.625,166.796 290.963,166.796 290.963,322.316 "/>
<polyline clip-path="url(#clip620)" style="stroke:#009af9; stroke-linecap:round; stroke-linejoin:round; stroke-width:8; stroke-opacity:1; fill:none" points="314.661,218.636 456.854,218.636 "/>
<path clip-path="url(#clip620)" d="M485.229 219.411 L485.229 232.073 L492.729 232.073 Q496.502 232.073 498.307 230.522 Q500.136 228.948 500.136 225.731 Q500.136 222.49 498.307 220.962 Q496.502 219.411 492.729 219.411 L485.229 219.411 M485.229 205.198 L485.229 215.615 L492.15 215.615 Q495.576 215.615 497.243 214.342 Q498.932 213.045 498.932 210.407 Q498.932 207.791 497.243 206.495 Q495.576 205.198 492.15 205.198 L485.229 205.198 M480.553 201.356 L492.497 201.356 Q497.844 201.356 500.738 203.578 Q503.631 205.8 503.631 209.897 Q503.631 213.069 502.15 214.944 Q500.668 216.819 497.798 217.282 Q501.247 218.022 503.145 220.383 Q505.067 222.721 505.067 226.24 Q505.067 230.869 501.918 233.393 Q498.77 235.916 492.96 235.916 L480.553 235.916 L480.553 201.356 Z" fill="#000000" fill-rule="nonzero" fill-opacity="1" /><path clip-path="url(#clip620)" d="M512.891 199.897 L517.15 199.897 L517.15 235.916 L512.891 235.916 L512.891 199.897 Z" fill="#000000" fill-rule="nonzero" fill-opacity="1" /><path clip-path="url(#clip620)" d="M536.108 212.976 Q532.682 212.976 530.691 215.661 Q528.701 218.323 528.701 222.976 Q528.701 227.629 530.668 230.314 Q532.659 232.976 536.108 232.976 Q539.511 232.976 541.502 230.291 Q543.492 227.606 543.492 222.976 Q543.492 218.37 541.502 215.684 Q539.511 212.976 536.108 212.976 M536.108 209.365 Q541.664 209.365 544.835 212.976 Q548.006 216.587 548.006 222.976 Q548.006 229.342 544.835 232.976 Q541.664 236.587 536.108 236.587 Q530.529 236.587 527.358 232.976 Q524.21 229.342 524.21 222.976 Q524.21 216.587 527.358 212.976 Q530.529 209.365 536.108 209.365 Z" fill="#000000" fill-rule="nonzero" fill-opacity="1" /><path clip-path="url(#clip620)" d="M565.113 212.976 Q561.687 212.976 559.696 215.661 Q557.705 218.323 557.705 222.976 Q557.705 227.629 559.673 230.314 Q561.663 232.976 565.113 232.976 Q568.515 232.976 570.506 230.291 Q572.497 227.606 572.497 222.976 Q572.497 218.37 570.506 215.684 Q568.515 212.976 565.113 212.976 M565.113 209.365 Q570.668 209.365 573.839 212.976 Q577.011 216.587 577.011 222.976 Q577.011 229.342 573.839 232.976 Q570.668 236.587 565.113 236.587 Q559.534 236.587 556.363 232.976 Q553.214 229.342 553.214 222.976 Q553.214 216.587 556.363 212.976 Q559.534 209.365 565.113 209.365 Z" fill="#000000" fill-rule="nonzero" fill-opacity="1" /><path clip-path="url(#clip620)" d="M601.131 213.925 L601.131 199.897 L605.39 199.897 L605.39 235.916 L601.131 235.916 L601.131 232.027 Q599.788 234.342 597.728 235.476 Q595.691 236.587 592.821 236.587 Q588.122 236.587 585.159 232.837 Q582.219 229.087 582.219 222.976 Q582.219 216.865 585.159 213.115 Q588.122 209.365 592.821 209.365 Q595.691 209.365 597.728 210.499 Q599.788 211.61 601.131 213.925 M586.617 222.976 Q586.617 227.675 588.538 230.36 Q590.483 233.022 593.862 233.022 Q597.242 233.022 599.186 230.36 Q601.131 227.675 601.131 222.976 Q601.131 218.277 599.186 215.615 Q597.242 212.93 593.862 212.93 Q590.483 212.93 588.538 215.615 Q586.617 218.277 586.617 222.976 Z" fill="#000000" fill-rule="nonzero" fill-opacity="1" /><circle clip-path="url(#clip620)" cx="385.758" cy="270.476" r="20.9455" fill="#e26f46" fill-rule="evenodd" fill-opacity="1" stroke="#000000" stroke-opacity="1" stroke-width="3.72364"/>
<path clip-path="url(#clip620)" d="M496.571 256.367 Q491.479 256.367 488.469 260.163 Q485.483 263.96 485.483 270.51 Q485.483 277.038 488.469 280.834 Q491.479 284.631 496.571 284.631 Q501.664 284.631 504.627 280.834 Q507.613 277.038 507.613 270.51 Q507.613 263.96 504.627 260.163 Q501.664 256.367 496.571 256.367 M496.571 252.571 Q503.84 252.571 508.192 257.455 Q512.543 262.316 512.543 270.51 Q512.543 278.682 508.192 283.566 Q503.84 288.427 496.571 288.427 Q489.28 288.427 484.905 283.566 Q480.553 278.705 480.553 270.51 Q480.553 262.316 484.905 257.455 Q489.28 252.571 496.571 252.571 Z" fill="#000000" fill-rule="nonzero" fill-opacity="1" /><path clip-path="url(#clip620)" d="M538.284 274.816 Q538.284 270.117 536.34 267.455 Q534.418 264.77 531.039 264.77 Q527.659 264.77 525.715 267.455 Q523.793 270.117 523.793 274.816 Q523.793 279.515 525.715 282.2 Q527.659 284.862 531.039 284.862 Q534.418 284.862 536.34 282.2 Q538.284 279.515 538.284 274.816 M523.793 265.765 Q525.136 263.45 527.173 262.339 Q529.233 261.205 532.08 261.205 Q536.802 261.205 539.742 264.955 Q542.705 268.705 542.705 274.816 Q542.705 280.927 539.742 284.677 Q536.802 288.427 532.08 288.427 Q529.233 288.427 527.173 287.316 Q525.136 286.182 523.793 283.867 L523.793 287.756 L519.511 287.756 L519.511 251.737 L523.793 251.737 L523.793 265.765 Z" fill="#000000" fill-rule="nonzero" fill-opacity="1" /><path clip-path="url(#clip620)" d="M566.293 262.594 L566.293 266.622 Q564.488 265.696 562.543 265.233 Q560.599 264.77 558.515 264.77 Q555.344 264.77 553.747 265.742 Q552.173 266.714 552.173 268.659 Q552.173 270.14 553.307 270.997 Q554.441 271.83 557.867 272.594 L559.326 272.918 Q563.863 273.89 565.761 275.672 Q567.682 277.432 567.682 280.603 Q567.682 284.214 564.812 286.321 Q561.964 288.427 556.964 288.427 Q554.881 288.427 552.613 288.01 Q550.367 287.617 547.867 286.807 L547.867 282.409 Q550.228 283.635 552.52 284.26 Q554.812 284.862 557.057 284.862 Q560.066 284.862 561.687 283.844 Q563.307 282.802 563.307 280.927 Q563.307 279.191 562.126 278.265 Q560.969 277.339 557.011 276.483 L555.529 276.135 Q551.571 275.302 549.812 273.589 Q548.052 271.853 548.052 268.844 Q548.052 265.186 550.645 263.196 Q553.238 261.205 558.006 261.205 Q560.367 261.205 562.45 261.552 Q564.534 261.899 566.293 262.594 Z" fill="#000000" fill-rule="nonzero" fill-opacity="1" /><path clip-path="url(#clip620)" d="M596.64 273.728 L596.64 275.811 L577.057 275.811 Q577.335 280.209 579.696 282.524 Q582.08 284.816 586.316 284.816 Q588.77 284.816 591.061 284.214 Q593.376 283.612 595.645 282.409 L595.645 286.436 Q593.353 287.408 590.946 287.918 Q588.538 288.427 586.061 288.427 Q579.858 288.427 576.224 284.816 Q572.612 281.205 572.612 275.047 Q572.612 268.682 576.038 264.955 Q579.487 261.205 585.321 261.205 Q590.552 261.205 593.585 264.585 Q596.64 267.941 596.64 273.728 M592.381 272.478 Q592.335 268.983 590.413 266.899 Q588.515 264.816 585.367 264.816 Q581.802 264.816 579.649 266.83 Q577.52 268.844 577.196 272.501 L592.381 272.478 Z" fill="#000000" fill-rule="nonzero" fill-opacity="1" /><path clip-path="url(#clip620)" d="M618.654 265.811 Q617.936 265.395 617.08 265.21 Q616.246 265.001 615.228 265.001 Q611.617 265.001 609.672 267.362 Q607.751 269.7 607.751 274.098 L607.751 287.756 L603.469 287.756 L603.469 261.83 L607.751 261.83 L607.751 265.858 Q609.094 263.497 611.247 262.362 Q613.399 261.205 616.478 261.205 Q616.918 261.205 617.45 261.274 Q617.983 261.321 618.631 261.436 L618.654 265.811 Z" fill="#000000" fill-rule="nonzero" fill-opacity="1" /><path clip-path="url(#clip620)" d="M620.066 261.83 L624.58 261.83 L632.682 283.589 L640.783 261.83 L645.297 261.83 L635.575 287.756 L629.788 287.756 L620.066 261.83 Z" fill="#000000" fill-rule="nonzero" fill-opacity="1" /><path clip-path="url(#clip620)" d="M673.353 273.728 L673.353 275.811 L653.769 275.811 Q654.047 280.209 656.408 282.524 Q658.793 284.816 663.029 284.816 Q665.482 284.816 667.774 284.214 Q670.089 283.612 672.357 282.409 L672.357 286.436 Q670.066 287.408 667.658 287.918 Q665.251 288.427 662.774 288.427 Q656.57 288.427 652.936 284.816 Q649.325 281.205 649.325 275.047 Q649.325 268.682 652.751 264.955 Q656.2 261.205 662.033 261.205 Q667.265 261.205 670.297 264.585 Q673.353 267.941 673.353 273.728 M669.093 272.478 Q669.047 268.983 667.126 266.899 Q665.228 264.816 662.08 264.816 Q658.515 264.816 656.362 266.83 Q654.232 268.844 653.908 272.501 L669.093 272.478 Z" fill="#000000" fill-rule="nonzero" fill-opacity="1" /><path clip-path="url(#clip620)" d="M697.403 265.765 L697.403 251.737 L701.663 251.737 L701.663 287.756 L697.403 287.756 L697.403 283.867 Q696.061 286.182 694.001 287.316 Q691.964 288.427 689.093 288.427 Q684.394 288.427 681.431 284.677 Q678.492 280.927 678.492 274.816 Q678.492 268.705 681.431 264.955 Q684.394 261.205 689.093 261.205 Q691.964 261.205 694.001 262.339 Q696.061 263.45 697.403 265.765 M682.89 274.816 Q682.89 279.515 684.811 282.2 Q686.755 284.862 690.135 284.862 Q693.515 284.862 695.459 282.2 Q697.403 279.515 697.403 274.816 Q697.403 270.117 695.459 267.455 Q693.515 264.77 690.135 264.77 Q686.755 264.77 684.811 267.455 Q682.89 270.117 682.89 274.816 Z" fill="#000000" fill-rule="nonzero" fill-opacity="1" /><path clip-path="url(#clip620)" d="M730.366 257.038 L730.366 283.913 L736.014 283.913 Q743.167 283.913 746.477 280.672 Q749.811 277.432 749.811 270.441 Q749.811 263.497 746.477 260.279 Q743.167 257.038 736.014 257.038 L730.366 257.038 M725.69 253.196 L735.297 253.196 Q745.343 253.196 750.042 257.386 Q754.741 261.552 754.741 270.441 Q754.741 279.376 750.019 283.566 Q745.297 287.756 735.297 287.756 L725.69 287.756 L725.69 253.196 Z" fill="#000000" fill-rule="nonzero" fill-opacity="1" /><path clip-path="url(#clip620)" d="M773.792 274.723 Q768.63 274.723 766.639 275.904 Q764.648 277.084 764.648 279.932 Q764.648 282.2 766.13 283.543 Q767.635 284.862 770.204 284.862 Q773.746 284.862 775.875 282.362 Q778.028 279.839 778.028 275.672 L778.028 274.723 L773.792 274.723 M782.287 272.964 L782.287 287.756 L778.028 287.756 L778.028 283.821 Q776.57 286.182 774.394 287.316 Q772.218 288.427 769.07 288.427 Q765.088 288.427 762.727 286.205 Q760.389 283.959 760.389 280.209 Q760.389 275.834 763.306 273.612 Q766.246 271.39 772.056 271.39 L778.028 271.39 L778.028 270.973 Q778.028 268.034 776.084 266.436 Q774.162 264.816 770.667 264.816 Q768.445 264.816 766.338 265.348 Q764.232 265.881 762.287 266.946 L762.287 263.01 Q764.625 262.108 766.824 261.668 Q769.023 261.205 771.107 261.205 Q776.732 261.205 779.51 264.122 Q782.287 267.038 782.287 272.964 Z" fill="#000000" fill-rule="nonzero" fill-opacity="1" /><path clip-path="url(#clip620)" d="M795.273 254.469 L795.273 261.83 L804.046 261.83 L804.046 265.14 L795.273 265.14 L795.273 279.214 Q795.273 282.385 796.13 283.288 Q797.009 284.191 799.671 284.191 L804.046 284.191 L804.046 287.756 L799.671 287.756 Q794.741 287.756 792.866 285.927 Q790.991 284.075 790.991 279.214 L790.991 265.14 L787.866 265.14 L787.866 261.83 L790.991 261.83 L790.991 254.469 L795.273 254.469 Z" fill="#000000" fill-rule="nonzero" fill-opacity="1" /><path clip-path="url(#clip620)" d="M821.431 274.723 Q816.269 274.723 814.278 275.904 Q812.287 277.084 812.287 279.932 Q812.287 282.2 813.769 283.543 Q815.273 284.862 817.843 284.862 Q821.384 284.862 823.514 282.362 Q825.667 279.839 825.667 275.672 L825.667 274.723 L821.431 274.723 M829.926 272.964 L829.926 287.756 L825.667 287.756 L825.667 283.821 Q824.208 286.182 822.032 287.316 Q819.857 288.427 816.708 288.427 Q812.727 288.427 810.366 286.205 Q808.028 283.959 808.028 280.209 Q808.028 275.834 810.945 273.612 Q813.884 271.39 819.694 271.39 L825.667 271.39 L825.667 270.973 Q825.667 268.034 823.722 266.436 Q821.801 264.816 818.306 264.816 Q816.083 264.816 813.977 265.348 Q811.87 265.881 809.926 266.946 L809.926 263.01 Q812.264 262.108 814.463 261.668 Q816.662 261.205 818.745 261.205 Q824.37 261.205 827.148 264.122 Q829.926 267.038 829.926 272.964 Z" fill="#000000" fill-rule="nonzero" fill-opacity="1" /></svg>
