<?xml version="1.0" encoding="utf-8"?>
<svg xmlns="http://www.w3.org/2000/svg" xmlns:xlink="http://www.w3.org/1999/xlink" width="600" height="400" viewBox="0 0 2400 1600">
<defs>
  <clipPath id="clip360">
    <rect x="0" y="0" width="2400" height="1600"/>
  </clipPath>
</defs>
<path clip-path="url(#clip360)" d="M0 1600 L2400 1600 L2400 0 L0 0  Z" fill="#ffffff" fill-rule="evenodd" fill-opacity="1"/>
<defs>
  <clipPath id="clip361">
    <rect x="205" y="123" width="2149" height="1301"/>
  </clipPath>
</defs>
<path clip-path="url(#clip360)" d="M202.227 1423.18 L2352.76 1423.18 L2352.76 123.472 L202.227 123.472  Z" fill="#ffffff" fill-rule="evenodd" fill-opacity="1"/>
<defs>
  <clipPath id="clip362">
    <rect x="202" y="123" width="2152" height="1301"/>
  </clipPath>
</defs>
<polyline clip-path="url(#clip362)" style="stroke:#000000; stroke-linecap:round; stroke-linejoin:round; stroke-width:2; stroke-opacity:0.1; fill:none" points="202.227,1423.18 202.227,123.472 "/>
<polyline clip-path="url(#clip362)" style="stroke:#000000; stroke-linecap:round; stroke-linejoin:round; stroke-width:2; stroke-opacity:0.1; fill:none" points="658.751,1423.18 658.751,123.472 "/>
<polyline clip-path="url(#clip362)" style="stroke:#000000; stroke-linecap:round; stroke-linejoin:round; stroke-width:2; stroke-opacity:0.1; fill:none" points="1115.27,1423.18 1115.27,123.472 "/>
<polyline clip-path="url(#clip362)" style="stroke:#000000; stroke-linecap:round; stroke-linejoin:round; stroke-width:2; stroke-opacity:0.1; fill:none" points="1571.8,1423.18 1571.8,123.472 "/>
<polyline clip-path="url(#clip362)" style="stroke:#000000; stroke-linecap:round; stroke-linejoin:round; stroke-width:2; stroke-opacity:0.1; fill:none" points="2028.32,1423.18 2028.32,123.472 "/>
<polyline clip-path="url(#clip362)" style="stroke:#000000; stroke-linecap:round; stroke-linejoin:round; stroke-width:2; stroke-opacity:0.1; fill:none" points="202.227,1386.4 2352.76,1386.4 "/>
<polyline clip-path="url(#clip362)" style="stroke:#000000; stroke-linecap:round; stroke-linejoin:round; stroke-width:2; stroke-opacity:0.1; fill:none" points="202.227,1022.56 2352.76,1022.56 "/>
<polyline clip-path="url(#clip362)" style="stroke:#000000; stroke-linecap:round; stroke-linejoin:round; stroke-width:2; stroke-opacity:0.1; fill:none" points="202.227,658.717 2352.76,658.717 "/>
<polyline clip-path="url(#clip362)" style="stroke:#000000; stroke-linecap:round; stroke-linejoin:round; stroke-width:2; stroke-opacity:0.1; fill:none" points="202.227,294.877 2352.76,294.877 "/>
<polyline clip-path="url(#clip360)" style="stroke:#000000; stroke-linecap:round; stroke-linejoin:round; stroke-width:4; stroke-opacity:1; fill:none" points="202.227,1423.18 2352.76,1423.18 "/>
<polyline clip-path="url(#clip360)" style="stroke:#000000; stroke-linecap:round; stroke-linejoin:round; stroke-width:4; stroke-opacity:1; fill:none" points="202.227,1423.18 202.227,1404.28 "/>
<polyline clip-path="url(#clip360)" style="stroke:#000000; stroke-linecap:round; stroke-linejoin:round; stroke-width:4; stroke-opacity:1; fill:none" points="658.751,1423.18 658.751,1404.28 "/>
<polyline clip-path="url(#clip360)" style="stroke:#000000; stroke-linecap:round; stroke-linejoin:round; stroke-width:4; stroke-opacity:1; fill:none" points="1115.27,1423.18 1115.27,1404.28 "/>
<polyline clip-path="url(#clip360)" style="stroke:#000000; stroke-linecap:round; stroke-linejoin:round; stroke-width:4; stroke-opacity:1; fill:none" points="1571.8,1423.18 1571.8,1404.28 "/>
<polyline clip-path="url(#clip360)" style="stroke:#000000; stroke-linecap:round; stroke-linejoin:round; stroke-width:4; stroke-opacity:1; fill:none" points="2028.32,1423.18 2028.32,1404.28 "/>
<path clip-path="url(#clip360)" d="M202.227 1454.1 Q198.616 1454.1 196.788 1457.66 Q194.982 1461.2 194.982 1468.33 Q194.982 1475.44 196.788 1479.01 Q198.616 1482.55 202.227 1482.55 Q205.862 1482.55 207.667 1479.01 Q209.496 1475.44 209.496 1468.33 Q209.496 1461.2 207.667 1457.66 Q205.862 1454.1 202.227 1454.1 M202.227 1450.39 Q208.038 1450.39 211.093 1455 Q214.172 1459.58 214.172 1468.33 Q214.172 1477.06 211.093 1481.67 Q208.038 1486.25 202.227 1486.25 Q196.417 1486.25 193.339 1481.67 Q190.283 1477.06 190.283 1468.33 Q190.283 1459.58 193.339 1455 Q196.417 1450.39 202.227 1450.39 Z" fill="#000000" fill-rule="nonzero" fill-opacity="1" /><path clip-path="url(#clip360)" d="M638.022 1481.64 L654.341 1481.64 L654.341 1485.58 L632.397 1485.58 L632.397 1481.64 Q635.059 1478.89 639.642 1474.26 Q644.248 1469.61 645.429 1468.27 Q647.674 1465.74 648.554 1464.01 Q649.457 1462.25 649.457 1460.56 Q649.457 1457.8 647.512 1456.07 Q645.591 1454.33 642.489 1454.33 Q640.29 1454.33 637.836 1455.09 Q635.406 1455.86 632.628 1457.41 L632.628 1452.69 Q635.452 1451.55 637.906 1450.97 Q640.36 1450.39 642.397 1450.39 Q647.767 1450.39 650.961 1453.08 Q654.156 1455.77 654.156 1460.26 Q654.156 1462.39 653.346 1464.31 Q652.559 1466.2 650.452 1468.8 Q649.873 1469.47 646.772 1472.69 Q643.67 1475.88 638.022 1481.64 Z" fill="#000000" fill-rule="nonzero" fill-opacity="1" /><path clip-path="url(#clip360)" d="M664.202 1451.02 L682.558 1451.02 L682.558 1454.96 L668.484 1454.96 L668.484 1463.43 Q669.503 1463.08 670.521 1462.92 Q671.54 1462.73 672.558 1462.73 Q678.345 1462.73 681.725 1465.9 Q685.105 1469.08 685.105 1474.49 Q685.105 1480.07 681.632 1483.17 Q678.16 1486.25 671.841 1486.25 Q669.665 1486.25 667.396 1485.88 Q665.151 1485.51 662.744 1484.77 L662.744 1480.07 Q664.827 1481.2 667.049 1481.76 Q669.271 1482.32 671.748 1482.32 Q675.753 1482.32 678.091 1480.21 Q680.429 1478.1 680.429 1474.49 Q680.429 1470.88 678.091 1468.77 Q675.753 1466.67 671.748 1466.67 Q669.873 1466.67 667.998 1467.08 Q666.146 1467.5 664.202 1468.38 L664.202 1451.02 Z" fill="#000000" fill-rule="nonzero" fill-opacity="1" /><path clip-path="url(#clip360)" d="M1089.97 1451.02 L1108.33 1451.02 L1108.33 1454.96 L1094.26 1454.96 L1094.26 1463.43 Q1095.27 1463.08 1096.29 1462.92 Q1097.31 1462.73 1098.33 1462.73 Q1104.12 1462.73 1107.5 1465.9 Q1110.88 1469.08 1110.88 1474.49 Q1110.88 1480.07 1107.4 1483.17 Q1103.93 1486.25 1097.61 1486.25 Q1095.44 1486.25 1093.17 1485.88 Q1090.92 1485.51 1088.51 1484.77 L1088.51 1480.07 Q1090.6 1481.2 1092.82 1481.76 Q1095.04 1482.32 1097.52 1482.32 Q1101.52 1482.32 1103.86 1480.21 Q1106.2 1478.1 1106.2 1474.49 Q1106.2 1470.88 1103.86 1468.77 Q1101.52 1466.67 1097.52 1466.67 Q1095.64 1466.67 1093.77 1467.08 Q1091.92 1467.5 1089.97 1468.38 L1089.97 1451.02 Z" fill="#000000" fill-rule="nonzero" fill-opacity="1" /><path clip-path="url(#clip360)" d="M1130.09 1454.1 Q1126.48 1454.1 1124.65 1457.66 Q1122.84 1461.2 1122.84 1468.33 Q1122.84 1475.44 1124.65 1479.01 Q1126.48 1482.55 1130.09 1482.55 Q1133.72 1482.55 1135.53 1479.01 Q1137.36 1475.44 1137.36 1468.33 Q1137.36 1461.2 1135.53 1457.66 Q1133.72 1454.1 1130.09 1454.1 M1130.09 1450.39 Q1135.9 1450.39 1138.95 1455 Q1142.03 1459.58 1142.03 1468.33 Q1142.03 1477.06 1138.95 1481.67 Q1135.9 1486.25 1130.09 1486.25 Q1124.28 1486.25 1121.2 1481.67 Q1118.14 1477.06 1118.14 1468.33 Q1118.14 1459.58 1121.2 1455 Q1124.28 1450.39 1130.09 1450.39 Z" fill="#000000" fill-rule="nonzero" fill-opacity="1" /><path clip-path="url(#clip360)" d="M1545.65 1451.02 L1567.87 1451.02 L1567.87 1453.01 L1555.33 1485.58 L1550.44 1485.58 L1562.25 1454.96 L1545.65 1454.96 L1545.65 1451.02 Z" fill="#000000" fill-rule="nonzero" fill-opacity="1" /><path clip-path="url(#clip360)" d="M1577.04 1451.02 L1595.4 1451.02 L1595.4 1454.96 L1581.32 1454.96 L1581.32 1463.43 Q1582.34 1463.08 1583.36 1462.92 Q1584.38 1462.73 1585.4 1462.73 Q1591.18 1462.73 1594.56 1465.9 Q1597.94 1469.08 1597.94 1474.49 Q1597.94 1480.07 1594.47 1483.17 Q1591 1486.25 1584.68 1486.25 Q1582.5 1486.25 1580.23 1485.88 Q1577.99 1485.51 1575.58 1484.77 L1575.58 1480.07 Q1577.66 1481.2 1579.89 1481.76 Q1582.11 1482.32 1584.59 1482.32 Q1588.59 1482.32 1590.93 1480.21 Q1593.27 1478.1 1593.27 1474.49 Q1593.27 1470.88 1590.93 1468.77 Q1588.59 1466.67 1584.59 1466.67 Q1582.71 1466.67 1580.84 1467.08 Q1578.98 1467.5 1577.04 1468.38 L1577.04 1451.02 Z" fill="#000000" fill-rule="nonzero" fill-opacity="1" /><path clip-path="url(#clip360)" d="M1987.93 1481.64 L1995.57 1481.64 L1995.57 1455.28 L1987.26 1456.95 L1987.26 1452.69 L1995.52 1451.02 L2000.2 1451.02 L2000.2 1481.64 L2007.83 1481.64 L2007.83 1485.58 L1987.93 1485.58 L1987.93 1481.64 Z" fill="#000000" fill-rule="nonzero" fill-opacity="1" /><path clip-path="url(#clip360)" d="M2027.28 1454.1 Q2023.67 1454.1 2021.84 1457.66 Q2020.03 1461.2 2020.03 1468.33 Q2020.03 1475.44 2021.84 1479.01 Q2023.67 1482.55 2027.28 1482.55 Q2030.91 1482.55 2032.72 1479.01 Q2034.55 1475.44 2034.55 1468.33 Q2034.55 1461.2 2032.72 1457.66 Q2030.91 1454.1 2027.28 1454.1 M2027.28 1450.39 Q2033.09 1450.39 2036.14 1455 Q2039.22 1459.58 2039.22 1468.33 Q2039.22 1477.06 2036.14 1481.67 Q2033.09 1486.25 2027.28 1486.25 Q2021.47 1486.25 2018.39 1481.67 Q2015.33 1477.06 2015.33 1468.33 Q2015.33 1459.58 2018.39 1455 Q2021.47 1450.39 2027.28 1450.39 Z" fill="#000000" fill-rule="nonzero" fill-opacity="1" /><path clip-path="url(#clip360)" d="M2057.44 1454.1 Q2053.83 1454.1 2052 1457.66 Q2050.19 1461.2 2050.19 1468.33 Q2050.19 1475.44 2052 1479.01 Q2053.83 1482.55 2057.44 1482.55 Q2061.07 1482.55 2062.88 1479.01 Q2064.71 1475.44 2064.71 1468.33 Q2064.71 1461.2 2062.88 1457.66 Q2061.07 1454.1 2057.44 1454.1 M2057.44 1450.39 Q2063.25 1450.39 2066.31 1455 Q2069.38 1459.58 2069.38 1468.33 Q2069.38 1477.06 2066.31 1481.67 Q2063.25 1486.25 2057.44 1486.25 Q2051.63 1486.25 2048.55 1481.67 Q2045.5 1477.06 2045.5 1468.33 Q2045.5 1459.58 2048.55 1455 Q2051.63 1450.39 2057.44 1450.39 Z" fill="#000000" fill-rule="nonzero" fill-opacity="1" /><path clip-path="url(#clip360)" d="M1199.37 1520.52 L1239.57 1520.52 L1239.57 1525.93 L1222.7 1525.93 L1222.7 1568.04 L1216.24 1568.04 L1216.24 1525.93 L1199.37 1525.93 L1199.37 1520.52 Z" fill="#000000" fill-rule="nonzero" fill-opacity="1" /><path clip-path="url(#clip360)" d="M1243.51 1532.4 L1249.37 1532.4 L1249.37 1568.04 L1243.51 1568.04 L1243.51 1532.4 M1243.51 1518.52 L1249.37 1518.52 L1249.37 1525.93 L1243.51 1525.93 L1243.51 1518.52 Z" fill="#000000" fill-rule="nonzero" fill-opacity="1" /><path clip-path="url(#clip360)" d="M1289.38 1539.24 Q1291.58 1535.29 1294.63 1533.41 Q1297.69 1531.54 1301.82 1531.54 Q1307.39 1531.54 1310.42 1535.45 Q1313.44 1539.33 1313.44 1546.53 L1313.44 1568.04 L1307.55 1568.04 L1307.55 1546.72 Q1307.55 1541.59 1305.74 1539.11 Q1303.93 1536.63 1300.2 1536.63 Q1295.65 1536.63 1293.01 1539.65 Q1290.37 1542.68 1290.37 1547.9 L1290.37 1568.04 L1284.48 1568.04 L1284.48 1546.72 Q1284.48 1541.56 1282.66 1539.11 Q1280.85 1536.63 1277.06 1536.63 Q1272.57 1536.63 1269.93 1539.68 Q1267.29 1542.71 1267.29 1547.9 L1267.29 1568.04 L1261.4 1568.04 L1261.4 1532.4 L1267.29 1532.4 L1267.29 1537.93 Q1269.3 1534.66 1272.1 1533.1 Q1274.9 1531.54 1278.75 1531.54 Q1282.63 1531.54 1285.34 1533.51 Q1288.07 1535.48 1289.38 1539.24 Z" fill="#000000" fill-rule="nonzero" fill-opacity="1" /><path clip-path="url(#clip360)" d="M1355.61 1548.76 L1355.61 1551.62 L1328.69 1551.62 Q1329.07 1557.67 1332.32 1560.85 Q1335.59 1564 1341.42 1564 Q1344.79 1564 1347.94 1563.17 Q1351.13 1562.35 1354.25 1560.69 L1354.25 1566.23 Q1351.1 1567.57 1347.79 1568.27 Q1344.47 1568.97 1341.07 1568.97 Q1332.54 1568.97 1327.54 1564 Q1322.58 1559.04 1322.58 1550.57 Q1322.58 1541.82 1327.29 1536.69 Q1332.03 1531.54 1340.05 1531.54 Q1347.24 1531.54 1351.41 1536.18 Q1355.61 1540.8 1355.61 1548.76 M1349.76 1547.04 Q1349.69 1542.23 1347.05 1539.37 Q1344.44 1536.5 1340.11 1536.5 Q1335.21 1536.5 1332.25 1539.27 Q1329.32 1542.04 1328.88 1547.07 L1349.76 1547.04 Z" fill="#000000" fill-rule="nonzero" fill-opacity="1" /><polyline clip-path="url(#clip360)" style="stroke:#000000; stroke-linecap:round; stroke-linejoin:round; stroke-width:4; stroke-opacity:1; fill:none" points="202.227,1423.18 202.227,123.472 "/>
<polyline clip-path="url(#clip360)" style="stroke:#000000; stroke-linecap:round; stroke-linejoin:round; stroke-width:4; stroke-opacity:1; fill:none" points="202.227,1386.4 221.125,1386.4 "/>
<polyline clip-path="url(#clip360)" style="stroke:#000000; stroke-linecap:round; stroke-linejoin:round; stroke-width:4; stroke-opacity:1; fill:none" points="202.227,1022.56 221.125,1022.56 "/>
<polyline clip-path="url(#clip360)" style="stroke:#000000; stroke-linecap:round; stroke-linejoin:round; stroke-width:4; stroke-opacity:1; fill:none" points="202.227,658.717 221.125,658.717 "/>
<polyline clip-path="url(#clip360)" style="stroke:#000000; stroke-linecap:round; stroke-linejoin:round; stroke-width:4; stroke-opacity:1; fill:none" points="202.227,294.877 221.125,294.877 "/>
<path clip-path="url(#clip360)" d="M154.283 1372.19 Q150.672 1372.19 148.843 1375.76 Q147.038 1379.3 147.038 1386.43 Q147.038 1393.54 148.843 1397.1 Q150.672 1400.64 154.283 1400.64 Q157.917 1400.64 159.723 1397.1 Q161.552 1393.54 161.552 1386.43 Q161.552 1379.3 159.723 1375.76 Q157.917 1372.19 154.283 1372.19 M154.283 1368.49 Q160.093 1368.49 163.149 1373.1 Q166.227 1377.68 166.227 1386.43 Q166.227 1395.16 163.149 1399.76 Q160.093 1404.35 154.283 1404.35 Q148.473 1404.35 145.394 1399.76 Q142.339 1395.16 142.339 1386.43 Q142.339 1377.68 145.394 1373.1 Q148.473 1368.49 154.283 1368.49 Z" fill="#000000" fill-rule="nonzero" fill-opacity="1" /><path clip-path="url(#clip360)" d="M145.325 1005.28 L163.681 1005.28 L163.681 1009.21 L149.607 1009.21 L149.607 1017.68 Q150.626 1017.34 151.644 1017.17 Q152.663 1016.99 153.681 1016.99 Q159.468 1016.99 162.848 1020.16 Q166.227 1023.33 166.227 1028.75 Q166.227 1034.33 162.755 1037.43 Q159.283 1040.51 152.964 1040.51 Q150.788 1040.51 148.519 1040.14 Q146.274 1039.77 143.866 1039.03 L143.866 1034.33 Q145.95 1035.46 148.172 1036.02 Q150.394 1036.57 152.871 1036.57 Q156.876 1036.57 159.214 1034.47 Q161.552 1032.36 161.552 1028.75 Q161.552 1025.14 159.214 1023.03 Q156.876 1020.92 152.871 1020.92 Q150.996 1020.92 149.121 1021.34 Q147.269 1021.76 145.325 1022.64 L145.325 1005.28 Z" fill="#000000" fill-rule="nonzero" fill-opacity="1" /><path clip-path="url(#clip360)" d="M114.931 672.061 L122.57 672.061 L122.57 645.696 L114.26 647.362 L114.26 643.103 L122.524 641.437 L127.2 641.437 L127.2 672.061 L134.839 672.061 L134.839 675.997 L114.931 675.997 L114.931 672.061 Z" fill="#000000" fill-rule="nonzero" fill-opacity="1" /><path clip-path="url(#clip360)" d="M154.283 644.515 Q150.672 644.515 148.843 648.08 Q147.038 651.622 147.038 658.751 Q147.038 665.858 148.843 669.422 Q150.672 672.964 154.283 672.964 Q157.917 672.964 159.723 669.422 Q161.552 665.858 161.552 658.751 Q161.552 651.622 159.723 648.08 Q157.917 644.515 154.283 644.515 M154.283 640.812 Q160.093 640.812 163.149 645.418 Q166.227 650.001 166.227 658.751 Q166.227 667.478 163.149 672.085 Q160.093 676.668 154.283 676.668 Q148.473 676.668 145.394 672.085 Q142.339 667.478 142.339 658.751 Q142.339 650.001 145.394 645.418 Q148.473 640.812 154.283 640.812 Z" fill="#000000" fill-rule="nonzero" fill-opacity="1" /><path clip-path="url(#clip360)" d="M115.927 308.222 L123.566 308.222 L123.566 281.856 L115.256 283.523 L115.256 279.264 L123.519 277.597 L128.195 277.597 L128.195 308.222 L135.834 308.222 L135.834 312.157 L115.927 312.157 L115.927 308.222 Z" fill="#000000" fill-rule="nonzero" fill-opacity="1" /><path clip-path="url(#clip360)" d="M145.325 277.597 L163.681 277.597 L163.681 281.532 L149.607 281.532 L149.607 290.004 Q150.626 289.657 151.644 289.495 Q152.663 289.31 153.681 289.31 Q159.468 289.31 162.848 292.481 Q166.227 295.652 166.227 301.069 Q166.227 306.648 162.755 309.75 Q159.283 312.828 152.964 312.828 Q150.788 312.828 148.519 312.458 Q146.274 312.088 143.866 311.347 L143.866 306.648 Q145.95 307.782 148.172 308.338 Q150.394 308.893 152.871 308.893 Q156.876 308.893 159.214 306.787 Q161.552 304.68 161.552 301.069 Q161.552 297.458 159.214 295.351 Q156.876 293.245 152.871 293.245 Q150.996 293.245 149.121 293.662 Q147.269 294.078 145.325 294.958 L145.325 277.597 Z" fill="#000000" fill-rule="nonzero" fill-opacity="1" /><path clip-path="url(#clip360)" d="M29.7248 956.945 L35.1993 956.945 Q33.8307 959.427 33.1623 961.942 Q32.4621 964.424 32.4621 966.971 Q32.4621 972.668 36.0905 975.819 Q39.6872 978.97 46.212 978.97 Q52.7369 978.97 56.3653 975.819 Q59.9619 972.668 59.9619 966.971 Q59.9619 964.424 59.2935 961.942 Q58.5933 959.427 57.2247 956.945 L62.6355 956.945 Q63.7814 959.396 64.3543 962.037 Q64.9272 964.647 64.9272 967.607 Q64.9272 975.66 59.8664 980.402 Q54.8057 985.145 46.212 985.145 Q37.491 985.145 32.4939 980.371 Q27.4968 975.564 27.4968 967.225 Q27.4968 964.52 28.0697 961.942 Q28.6108 959.364 29.7248 956.945 Z" fill="#000000" fill-rule="nonzero" fill-opacity="1" /><path clip-path="url(#clip360)" d="M16.4842 953.094 L16.4842 912.894 L21.895 912.894 L21.895 929.763 L64.0042 929.763 L64.0042 936.224 L21.895 936.224 L21.895 953.094 L16.4842 953.094 Z" fill="#000000" fill-rule="nonzero" fill-opacity="1" /><path clip-path="url(#clip360)" d="M42.4881 877.31 L64.0042 877.31 L64.0042 883.166 L42.679 883.166 Q37.6183 883.166 35.1038 885.14 Q32.5894 887.113 32.5894 891.06 Q32.5894 895.802 35.6131 898.539 Q38.6368 901.277 43.8567 901.277 L64.0042 901.277 L64.0042 907.165 L28.3562 907.165 L28.3562 901.277 L33.8944 901.277 Q30.6797 899.176 29.0883 896.343 Q27.4968 893.479 27.4968 889.755 Q27.4968 883.612 31.3163 880.461 Q35.1038 877.31 42.4881 877.31 Z" fill="#000000" fill-rule="nonzero" fill-opacity="1" /><path clip-path="url(#clip360)" d="M16.4842 871.963 L16.4842 831.763 L21.895 831.763 L21.895 848.632 L64.0042 848.632 L64.0042 855.093 L21.895 855.093 L21.895 871.963 L16.4842 871.963 Z" fill="#000000" fill-rule="nonzero" fill-opacity="1" /><path clip-path="url(#clip360)" d="M14.479 805.632 L14.479 792.137 L19.0304 792.137 L19.0304 799.775 L68.0464 799.775 L68.0464 792.137 L72.5979 792.137 L72.5979 805.632 L14.479 805.632 Z" fill="#000000" fill-rule="nonzero" fill-opacity="1" /><path clip-path="url(#clip360)" d="M42.4881 750.027 L64.0042 750.027 L64.0042 755.884 L42.679 755.884 Q37.6183 755.884 35.1038 757.857 Q32.5894 759.831 32.5894 763.777 Q32.5894 768.52 35.6131 771.257 Q38.6368 773.994 43.8567 773.994 L64.0042 773.994 L64.0042 779.883 L28.3562 779.883 L28.3562 773.994 L33.8944 773.994 Q30.6797 771.894 29.0883 769.061 Q27.4968 766.196 27.4968 762.472 Q27.4968 756.33 31.3163 753.179 Q35.1038 750.027 42.4881 750.027 Z" fill="#000000" fill-rule="nonzero" fill-opacity="1" /><path clip-path="url(#clip360)" d="M45.7664 714.889 Q39.4007 714.889 35.8996 717.531 Q32.3984 720.141 32.3984 724.883 Q32.3984 729.594 35.8996 732.235 Q39.4007 734.845 45.7664 734.845 Q52.1003 734.845 55.6014 732.235 Q59.1026 729.594 59.1026 724.883 Q59.1026 720.141 55.6014 717.531 Q52.1003 714.889 45.7664 714.889 M59.58 709.032 Q68.683 709.032 73.1071 713.075 Q77.5631 717.117 77.5631 725.456 Q77.5631 728.543 77.0857 731.28 Q76.6401 734.018 75.6852 736.596 L69.9879 736.596 Q71.3884 734.018 72.0568 731.503 Q72.7252 728.989 72.7252 726.379 Q72.7252 720.618 69.7015 717.753 Q66.7096 714.889 60.6303 714.889 L57.7339 714.889 Q60.885 716.703 62.4446 719.536 Q64.0042 722.369 64.0042 726.315 Q64.0042 732.872 59.0071 736.882 Q54.01 740.893 45.7664 740.893 Q37.491 740.893 32.4939 736.882 Q27.4968 732.872 27.4968 726.315 Q27.4968 722.369 29.0564 719.536 Q30.616 716.703 33.7671 714.889 L28.3562 714.889 L28.3562 709.032 L59.58 709.032 Z" fill="#000000" fill-rule="nonzero" fill-opacity="1" /><path clip-path="url(#clip360)" d="M16.4842 686.561 L16.4842 681.151 L70.0516 697.701 L70.0516 703.112 L16.4842 686.561 Z" fill="#000000" fill-rule="nonzero" fill-opacity="1" /><path clip-path="url(#clip360)" d="M35.1993 647.253 Q31.2526 645.057 29.3747 642.001 Q27.4968 638.946 27.4968 634.808 Q27.4968 629.238 31.4117 626.215 Q35.2948 623.191 42.4881 623.191 L64.0042 623.191 L64.0042 629.079 L42.679 629.079 Q37.5546 629.079 35.072 630.893 Q32.5894 632.708 32.5894 636.431 Q32.5894 640.983 35.6131 643.625 Q38.6368 646.266 43.8567 646.266 L64.0042 646.266 L64.0042 652.155 L42.679 652.155 Q37.5228 652.155 35.072 653.969 Q32.5894 655.783 32.5894 659.571 Q32.5894 664.059 35.6449 666.7 Q38.6686 669.342 43.8567 669.342 L64.0042 669.342 L64.0042 675.23 L28.3562 675.23 L28.3562 669.342 L33.8944 669.342 Q30.616 667.337 29.0564 664.536 Q27.4968 661.735 27.4968 657.884 Q27.4968 654.001 29.4702 651.295 Q31.4436 648.558 35.1993 647.253 Z" fill="#000000" fill-rule="nonzero" fill-opacity="1" /><path clip-path="url(#clip360)" d="M16.4842 611.255 L16.4842 604.826 L58.5933 604.826 L58.5933 581.686 L64.0042 581.686 L64.0042 611.255 L16.4842 611.255 Z" fill="#000000" fill-rule="nonzero" fill-opacity="1" /><path clip-path="url(#clip360)" d="M14.479 561.507 L72.5979 561.507 L72.5979 575.002 L68.0464 575.002 L68.0464 567.395 L19.0304 567.395 L19.0304 575.002 L14.479 575.002 L14.479 561.507 Z" fill="#000000" fill-rule="nonzero" fill-opacity="1" /><path clip-path="url(#clip360)" d="M1029.27 18.8205 L1029.27 41.5461 L1039.56 41.5461 Q1045.27 41.5461 1048.39 38.5889 Q1051.51 35.6318 1051.51 30.163 Q1051.51 24.7348 1048.39 21.7777 Q1045.27 18.8205 1039.56 18.8205 L1029.27 18.8205 M1021.09 12.096 L1039.56 12.096 Q1049.73 12.096 1054.91 16.714 Q1060.14 21.2916 1060.14 30.163 Q1060.14 39.1155 1054.91 43.6931 Q1049.73 48.2706 1039.56 48.2706 L1029.27 48.2706 L1029.27 72.576 L1021.09 72.576 L1021.09 12.096 Z" fill="#000000" fill-rule="nonzero" fill-opacity="1" /><path clip-path="url(#clip360)" d="M1087.69 49.7694 Q1078.65 49.7694 1075.17 51.8354 Q1071.69 53.9013 1071.69 58.8839 Q1071.69 62.8538 1074.28 65.2034 Q1076.91 67.5124 1081.41 67.5124 Q1087.61 67.5124 1091.33 63.1374 Q1095.1 58.7219 1095.1 51.4303 L1095.1 49.7694 L1087.69 49.7694 M1102.55 46.6907 L1102.55 72.576 L1095.1 72.576 L1095.1 65.6895 Q1092.55 69.8214 1088.74 71.8063 Q1084.93 73.7508 1079.42 73.7508 Q1072.46 73.7508 1068.32 69.8619 Q1064.23 65.9325 1064.23 59.3701 Q1064.23 51.7138 1069.34 47.825 Q1074.48 43.9361 1084.65 43.9361 L1095.1 43.9361 L1095.1 43.2069 Q1095.1 38.0623 1091.7 35.2672 Q1088.33 32.4315 1082.22 32.4315 Q1078.33 32.4315 1074.64 33.3632 Q1070.96 34.295 1067.55 36.1584 L1067.55 29.2718 Q1071.64 27.692 1075.49 26.9223 Q1079.34 26.1121 1082.99 26.1121 Q1092.83 26.1121 1097.69 31.2163 Q1102.55 36.3204 1102.55 46.6907 Z" fill="#000000" fill-rule="nonzero" fill-opacity="1" /><path clip-path="url(#clip360)" d="M1125.28 14.324 L1125.28 27.2059 L1140.63 27.2059 L1140.63 32.9987 L1125.28 32.9987 L1125.28 57.6282 Q1125.28 63.1779 1126.78 64.7578 Q1128.32 66.3376 1132.98 66.3376 L1140.63 66.3376 L1140.63 72.576 L1132.98 72.576 Q1124.35 72.576 1121.07 69.3758 Q1117.78 66.1351 1117.78 57.6282 L1117.78 32.9987 L1112.32 32.9987 L1112.32 27.2059 L1117.78 27.2059 L1117.78 14.324 L1125.28 14.324 Z" fill="#000000" fill-rule="nonzero" fill-opacity="1" /><path clip-path="url(#clip360)" d="M1150.44 27.2059 L1157.89 27.2059 L1157.89 72.576 L1150.44 72.576 L1150.44 27.2059 M1150.44 9.54393 L1157.89 9.54393 L1157.89 18.9825 L1150.44 18.9825 L1150.44 9.54393 Z" fill="#000000" fill-rule="nonzero" fill-opacity="1" /><path clip-path="url(#clip360)" d="M1212.29 48.0275 L1212.29 51.6733 L1178.02 51.6733 Q1178.51 59.3701 1182.64 63.421 Q1186.81 67.4314 1194.23 67.4314 Q1198.52 67.4314 1202.53 66.3781 Q1206.58 65.3249 1210.55 63.2184 L1210.55 70.267 Q1206.54 71.9684 1202.33 72.8596 Q1198.11 73.7508 1193.78 73.7508 Q1182.92 73.7508 1176.56 67.4314 Q1170.24 61.1119 1170.24 50.3365 Q1170.24 39.1965 1176.24 32.6746 Q1182.28 26.1121 1192.48 26.1121 Q1201.64 26.1121 1206.95 32.0264 Q1212.29 37.9003 1212.29 48.0275 M1204.84 45.84 Q1204.76 39.7232 1201.4 36.0774 Q1198.07 32.4315 1192.56 32.4315 Q1186.33 32.4315 1182.56 35.9558 Q1178.83 39.4801 1178.26 45.8805 L1204.84 45.84 Z" fill="#000000" fill-rule="nonzero" fill-opacity="1" /><path clip-path="url(#clip360)" d="M1262.24 45.1919 L1262.24 72.576 L1254.79 72.576 L1254.79 45.4349 Q1254.79 38.994 1252.27 35.7938 Q1249.76 32.5936 1244.74 32.5936 Q1238.7 32.5936 1235.22 36.4419 Q1231.74 40.2903 1231.74 46.9338 L1231.74 72.576 L1224.24 72.576 L1224.24 27.2059 L1231.74 27.2059 L1231.74 34.2544 Q1234.41 30.163 1238.02 28.1376 Q1241.66 26.1121 1246.4 26.1121 Q1254.22 26.1121 1258.23 30.9732 Q1262.24 35.7938 1262.24 45.1919 Z" fill="#000000" fill-rule="nonzero" fill-opacity="1" /><path clip-path="url(#clip360)" d="M1284.48 14.324 L1284.48 27.2059 L1299.83 27.2059 L1299.83 32.9987 L1284.48 32.9987 L1284.48 57.6282 Q1284.48 63.1779 1285.98 64.7578 Q1287.52 66.3376 1292.18 66.3376 L1299.83 66.3376 L1299.83 72.576 L1292.18 72.576 Q1283.55 72.576 1280.27 69.3758 Q1276.99 66.1351 1276.99 57.6282 L1276.99 32.9987 L1271.52 32.9987 L1271.52 27.2059 L1276.99 27.2059 L1276.99 14.324 L1284.48 14.324 Z" fill="#000000" fill-rule="nonzero" fill-opacity="1" /><path clip-path="url(#clip360)" d="M1373.72 45.1919 L1373.72 72.576 L1366.27 72.576 L1366.27 45.4349 Q1366.27 38.994 1363.76 35.7938 Q1361.24 32.5936 1356.22 32.5936 Q1350.19 32.5936 1346.7 36.4419 Q1343.22 40.2903 1343.22 46.9338 L1343.22 72.576 L1335.72 72.576 L1335.72 27.2059 L1343.22 27.2059 L1343.22 34.2544 Q1345.89 30.163 1349.5 28.1376 Q1353.14 26.1121 1357.88 26.1121 Q1365.7 26.1121 1369.71 30.9732 Q1373.72 35.7938 1373.72 45.1919 Z" fill="#000000" fill-rule="nonzero" fill-opacity="1" /><path clip-path="url(#clip360)" d="M1408.15 39.075 Q1402.64 39.075 1399.4 42.8424 Q1396.2 46.6097 1396.2 53.1722 Q1396.2 59.6941 1399.4 63.502 Q1402.64 67.2693 1408.15 67.2693 Q1413.66 67.2693 1416.86 63.502 Q1420.1 59.6941 1420.1 53.1722 Q1420.1 46.6097 1416.86 42.8424 Q1413.66 39.075 1408.15 39.075 M1424.4 13.4328 L1424.4 20.8865 Q1421.32 19.4281 1418.16 18.6585 Q1415.04 17.8888 1411.96 17.8888 Q1403.86 17.8888 1399.57 23.3575 Q1395.31 28.8262 1394.7 39.8852 Q1397.09 36.3609 1400.7 34.4975 Q1404.31 32.5936 1408.64 32.5936 Q1417.75 32.5936 1423.02 38.1433 Q1428.33 43.6525 1428.33 53.1722 Q1428.33 62.4892 1422.82 68.12 Q1417.31 73.7508 1408.15 73.7508 Q1397.66 73.7508 1392.11 65.73 Q1386.56 57.6687 1386.56 42.3968 Q1386.56 28.0566 1393.37 19.5497 Q1400.17 11.0023 1411.64 11.0023 Q1414.72 11.0023 1417.84 11.6099 Q1420.99 12.2175 1424.4 13.4328 Z" fill="#000000" fill-rule="nonzero" fill-opacity="1" /><path clip-path="url(#clip360)" d="M1459.92 17.4837 Q1453.6 17.4837 1450.4 23.7221 Q1447.24 29.92 1447.24 42.3968 Q1447.24 54.833 1450.4 61.0714 Q1453.6 67.2693 1459.92 67.2693 Q1466.28 67.2693 1469.44 61.0714 Q1472.64 54.833 1472.64 42.3968 Q1472.64 29.92 1469.44 23.7221 Q1466.28 17.4837 1459.92 17.4837 M1459.92 11.0023 Q1470.09 11.0023 1475.44 19.0636 Q1480.83 27.0843 1480.83 42.3968 Q1480.83 57.6687 1475.44 65.73 Q1470.09 73.7508 1459.92 73.7508 Q1449.76 73.7508 1444.37 65.73 Q1439.02 57.6687 1439.02 42.3968 Q1439.02 27.0843 1444.37 19.0636 Q1449.76 11.0023 1459.92 11.0023 Z" fill="#000000" fill-rule="nonzero" fill-opacity="1" /><path clip-path="url(#clip360)" d="M1513.72 39.075 Q1508.21 39.075 1504.97 42.8424 Q1501.77 46.6097 1501.77 53.1722 Q1501.77 59.6941 1504.97 63.502 Q1508.21 67.2693 1513.72 67.2693 Q1519.23 67.2693 1522.43 63.502 Q1525.67 59.6941 1525.67 53.1722 Q1525.67 46.6097 1522.43 42.8424 Q1519.23 39.075 1513.72 39.075 M1529.96 13.4328 L1529.96 20.8865 Q1526.89 19.4281 1523.73 18.6585 Q1520.61 17.8888 1517.53 17.8888 Q1509.43 17.8888 1505.13 23.3575 Q1500.88 28.8262 1500.27 39.8852 Q1502.66 36.3609 1506.27 34.4975 Q1509.87 32.5936 1514.21 32.5936 Q1523.32 32.5936 1528.59 38.1433 Q1533.89 43.6525 1533.89 53.1722 Q1533.89 62.4892 1528.38 68.12 Q1522.88 73.7508 1513.72 73.7508 Q1503.23 73.7508 1497.68 65.73 Q1492.13 57.6687 1492.13 42.3968 Q1492.13 28.0566 1498.93 19.5497 Q1505.74 11.0023 1517.2 11.0023 Q1520.28 11.0023 1523.4 11.6099 Q1526.56 12.2175 1529.96 13.4328 Z" fill="#000000" fill-rule="nonzero" fill-opacity="1" /><polyline clip-path="url(#clip362)" style="stroke:#009af9; stroke-linecap:round; stroke-linejoin:round; stroke-width:8; stroke-opacity:1; fill:none" points="202.227,1386.4 204.38,1385.92 206.533,1385.5 208.686,1385.11 210.838,1384.75 212.991,1384.43 215.144,1384.13 217.296,1383.87 219.449,1383.62 221.602,1383.4 223.754,1383.2 225.907,1383.02 228.06,1382.86 230.212,1382.71 232.365,1382.57 234.518,1382.45 236.67,1382.34 238.823,1382.24 240.976,1382.15 243.128,1382.07 245.281,1382 247.434,1381.93 249.586,1381.87 251.739,1381.82 253.892,1381.77 256.044,1381.73 258.197,1381.69 260.35,1381.66 262.503,1381.63 264.655,1381.6 266.808,1381.58 268.961,1381.56 271.113,1381.54 273.266,1381.52 275.419,1381.51 277.571,1381.5 279.724,1381.49 281.877,1381.49 284.029,1381.48 286.182,1381.48 288.335,1381.47 290.487,1381.47 292.64,1381.47 294.793,1381.47 296.945,1381.47 299.098,1381.47 301.251,1381.48 303.403,1381.48 305.556,1381.48 307.709,1381.49 309.862,1381.49 312.014,1381.5 314.167,1381.5 316.32,1381.51 318.472,1381.51 320.625,1381.52 322.778,1381.53 324.93,1381.54 327.083,1381.54 329.236,1381.55 331.388,1381.56 333.541,1381.57 335.694,1381.57 337.846,1381.58 339.999,1381.59 342.152,1381.6 344.304,1381.61 346.457,1381.61 348.61,1381.62 350.762,1381.63 352.915,1381.64 355.068,1381.65 357.221,1381.66 359.373,1381.66 361.526,1381.67 363.679,1381.68 365.831,1381.69 367.984,1381.7 370.137,1381.71 372.289,1381.71 374.442,1381.72 376.595,1381.73 378.747,1381.74 380.9,1381.75 383.053,1381.75 385.205,1381.76 387.358,1381.77 389.511,1381.78 391.663,1381.79 393.816,1381.79 395.969,1381.8 398.121,1381.81 400.274,1381.82 402.427,1381.82 404.579,1381.83 406.732,1381.84 408.885,1381.85 411.038,1381.85 413.19,1381.86 415.343,1381.87 417.496,1381.87 419.648,1381.88 421.801,1381.89 423.954,1381.89 426.106,1381.9 428.259,1381.91 430.412,1381.91 432.564,1381.92 434.717,1381.92 436.87,1381.93 439.022,1381.94 441.175,1381.94 443.328,1381.95 445.48,1381.95 447.633,1381.96 449.786,1381.96 451.938,1381.97 454.091,1381.97 456.244,1381.98 458.397,1381.98 460.549,1381.99 462.702,1381.99 464.855,1382 467.007,1382 469.16,1382.01 471.313,1382.01 473.465,1382.01 475.618,1382.02 477.771,1382.02 479.923,1382.02 482.076,1382.03 484.229,1382.03 486.381,1382.03 488.534,1382.03 490.687,1382.04 492.839,1382.04 494.992,1382.04 497.145,1382.04 499.297,1382.04 501.45,1382.05 503.603,1382.05 505.756,1382.05 507.908,1382.05 510.061,1382.05 512.214,1382.05 514.366,1382.05 516.519,1382.05 518.672,1382.05 520.824,1382.05 522.977,1382.05 525.13,1382.05 527.282,1382.05 529.435,1382.05 531.588,1382.05 533.74,1382.05 535.893,1382.05 538.046,1382.05 540.198,1382.04 542.351,1382.04 544.504,1382.04 546.656,1382.04 548.809,1382.03 550.962,1382.03 553.114,1382.03 555.267,1382.02 557.42,1382.02 559.573,1382.01 561.725,1382.01 563.878,1382.01 566.031,1382 568.183,1382 570.336,1381.99 572.489,1381.99 574.641,1381.98 576.794,1381.97 578.947,1381.97 581.099,1381.96 583.252,1381.95 585.405,1381.95 587.557,1381.94 589.71,1381.93 591.863,1381.92 594.015,1381.92 596.168,1381.91 598.321,1381.9 600.473,1381.89 602.626,1381.88 604.779,1381.87 606.932,1381.86 609.084,1381.85 611.237,1381.84 613.39,1381.83 615.542,1381.81 617.695,1381.8 619.848,1381.79 622,1381.78 624.153,1381.77 626.306,1381.75 628.458,1381.74 630.611,1381.73 632.764,1381.71 634.916,1381.7 637.069,1381.68 639.222,1381.67 641.374,1381.65 643.527,1381.64 645.68,1381.62 647.832,1381.6 649.985,1381.59 652.138,1381.57 654.291,1381.55 656.443,1381.53 658.596,1381.51 660.749,1381.5 662.901,1381.48 665.054,1381.46 667.207,1381.44 669.359,1381.42 671.512,1381.39 673.665,1381.37 675.817,1381.35 677.97,1381.33 680.123,1381.31 682.275,1381.28 684.428,1381.26 686.581,1381.24 688.733,1381.21 690.886,1381.19 693.039,1381.16 695.191,1381.14 697.344,1381.11 699.497,1381.09 701.649,1381.06 703.802,1381.03 705.955,1381 708.108,1380.98 710.26,1380.95 712.413,1380.92 714.566,1380.89 716.718,1380.86 718.871,1380.83 721.024,1380.8 723.176,1380.76 725.329,1380.73 727.482,1380.7 729.634,1380.66 731.787,1380.63 733.94,1380.6 736.092,1380.56 738.245,1380.53 740.398,1380.49 742.55,1380.45 744.703,1380.42 746.856,1380.38 749.008,1380.34 751.161,1380.3 753.314,1380.26 755.467,1380.23 757.619,1380.19 759.772,1380.14 761.925,1380.1 764.077,1380.06 766.23,1380.02 768.383,1379.98 770.535,1379.93 772.688,1379.89 774.841,1379.85 776.993,1379.8 779.146,1379.75 781.299,1379.71 783.451,1379.66 785.604,1379.61 787.757,1379.56 789.909,1379.51 792.062,1379.46 794.215,1379.41 796.367,1379.36 798.52,1379.31 800.673,1379.26 802.826,1379.21 804.978,1379.15 807.131,1379.1 809.284,1379.04 811.436,1378.99 813.589,1378.93 815.742,1378.88 817.894,1378.82 820.047,1378.76 822.2,1378.7 824.352,1378.64 826.505,1378.58 828.658,1378.52 830.81,1378.46 832.963,1378.4 835.116,1378.34 837.268,1378.28 839.421,1378.21 841.574,1378.15 843.726,1378.08 845.879,1378.01 848.032,1377.95 850.184,1377.88 852.337,1377.81 854.49,1377.74 856.643,1377.67 858.795,1377.6 860.948,1377.53 863.101,1377.45 865.253,1377.38 867.406,1377.31 869.559,1377.23 871.711,1377.16 873.864,1377.08 876.017,1377 878.169,1376.92 880.322,1376.85 882.475,1376.77 884.627,1376.69 886.78,1376.61 888.933,1376.52 891.085,1376.44 893.238,1376.36 895.391,1376.27 897.543,1376.19 899.696,1376.1 901.849,1376.02 904.002,1375.93 906.154,1375.84 908.307,1375.75 910.46,1375.66 912.612,1375.57 914.765,1375.48 916.918,1375.39 919.07,1375.29 921.223,1375.2 923.376,1375.1 925.528,1375 927.681,1374.91 929.834,1374.81 931.986,1374.71 934.139,1374.61 936.292,1374.51 938.444,1374.4 940.597,1374.3 942.75,1374.2 944.902,1374.09 947.055,1373.99 949.208,1373.88 951.36,1373.77 953.513,1373.66 955.666,1373.56 957.819,1373.45 959.971,1373.33 962.124,1373.22 964.277,1373.11 966.429,1373 968.582,1372.88 970.735,1372.77 972.887,1372.65 975.04,1372.53 977.193,1372.41 979.345,1372.29 981.498,1372.17 983.651,1372.05 985.803,1371.92 987.956,1371.8 990.109,1371.67 992.261,1371.54 994.414,1371.42 996.567,1371.29 998.719,1371.16 1000.87,1371.03 1003.02,1370.89 1005.18,1370.76 1007.33,1370.63 1009.48,1370.49 1011.64,1370.35 1013.79,1370.22 1015.94,1370.08 1018.09,1369.94 1020.25,1369.8 1022.4,1369.66 1024.55,1369.52 1026.7,1369.37 1028.86,1369.23 1031.01,1369.08 1033.16,1368.94 1035.32,1368.79 1037.47,1368.64 1039.62,1368.49 1041.77,1368.34 1043.93,1368.19 1046.08,1368.03 1048.23,1367.88 1050.38,1367.72 1052.54,1367.56 1054.69,1367.4 1056.84,1367.24 1058.99,1367.08 1061.15,1366.92 1063.3,1366.75 1065.45,1366.59 1067.61,1366.42 1069.76,1366.25 1071.91,1366.08 1074.06,1365.91 1076.22,1365.74 1078.37,1365.57 1080.52,1365.39 1082.67,1365.22 1084.83,1365.04 1086.98,1364.87 1089.13,1364.69 1091.28,1364.51 1093.44,1364.33 1095.59,1364.15 1097.74,1363.96 1099.9,1363.78 1102.05,1363.59 1104.2,1363.41 1106.35,1363.22 1108.51,1363.03 1110.66,1362.84 1112.81,1362.65 1114.96,1362.46 1117.12,1362.26 1119.27,1362.06 1121.42,1361.87 1123.57,1361.67 1125.73,1361.47 1127.88,1361.26 1130.03,1361.06 1132.19,1360.85 1134.34,1360.65 1136.49,1360.44 1138.64,1360.23 1140.8,1360.02 1142.95,1359.8 1145.1,1359.59 1147.25,1359.37 1149.41,1359.16 1151.56,1358.94 1153.71,1358.72 1155.87,1358.5 1158.02,1358.28 1160.17,1358.06 1162.32,1357.83 1164.48,1357.61 1166.63,1357.38 1168.78,1357.15 1170.93,1356.92 1173.09,1356.69 1175.24,1356.46 1177.39,1356.23 1179.54,1355.99 1181.7,1355.76 1183.85,1355.52 1186,1355.28 1188.16,1355.04 1190.31,1354.8 1192.46,1354.55 1194.61,1354.31 1196.77,1354.06 1198.92,1353.81 1201.07,1353.56 1203.22,1353.3 1205.38,1353.05 1207.53,1352.79 1209.68,1352.53 1211.83,1352.27 1213.99,1352.01 1216.14,1351.75 1218.29,1351.48 1220.45,1351.22 1222.6,1350.95 1224.75,1350.68 1226.9,1350.41 1229.06,1350.14 1231.21,1349.86 1233.36,1349.59 1235.51,1349.31 1237.67,1349.04 1239.82,1348.76 1241.97,1348.48 1244.13,1348.2 1246.28,1347.91 1248.43,1347.63 1250.58,1347.34 1252.74,1347.06 1254.89,1346.77 1257.04,1346.48 1259.19,1346.19 1261.35,1345.89 1263.5,1345.6 1265.65,1345.3 1267.8,1345 1269.96,1344.7 1272.11,1344.4 1274.26,1344.09 1276.42,1343.78 1278.57,1343.47 1280.72,1343.16 1282.87,1342.84 1285.03,1342.53 1287.18,1342.21 1289.33,1341.89 1291.48,1341.57 1293.64,1341.25 1295.79,1340.92 1297.94,1340.6 1300.09,1340.27 1302.25,1339.94 1304.4,1339.61 1306.55,1339.28 1308.71,1338.95 1310.86,1338.61 1313.01,1338.28 1315.16,1337.94 1317.32,1337.6 1319.47,1337.26 1321.62,1336.92 1323.77,1336.57 1325.93,1336.23 1328.08,1335.88 1330.23,1335.53 1332.39,1335.18 1334.54,1334.83 1336.69,1334.48 1338.84,1334.12 1341,1333.76 1343.15,1333.4 1345.3,1333.04 1347.45,1332.68 1349.61,1332.31 1351.76,1331.94 1353.91,1331.57 1356.06,1331.2 1358.22,1330.82 1360.37,1330.44 1362.52,1330.06 1364.68,1329.68 1366.83,1329.29 1368.98,1328.91 1371.13,1328.52 1373.29,1328.13 1375.44,1327.74 1377.59,1327.34 1379.74,1326.95 1381.9,1326.55 1384.05,1326.16 1386.2,1325.76 1388.35,1325.36 1390.51,1324.95 1392.66,1324.55 1394.81,1324.15 1396.97,1323.74 1399.12,1323.33 1401.27,1322.92 1403.42,1322.51 1405.58,1322.1 1407.73,1321.68 1409.88,1321.26 1412.03,1320.84 1414.19,1320.42 1416.34,1320 1418.49,1319.58 1420.64,1319.15 1422.8,1318.72 1424.95,1318.29 1427.1,1317.85 1429.26,1317.41 1431.41,1316.97 1433.56,1316.53 1435.71,1316.08 1437.87,1315.64 1440.02,1315.19 1442.17,1314.73 1444.32,1314.28 1446.48,1313.82 1448.63,1313.36 1450.78,1312.9 1452.94,1312.44 1455.09,1311.97 1457.24,1311.51 1459.39,1311.04 1461.55,1310.57 1463.7,1310.1 1465.85,1309.63 1468,1309.16 1470.16,1308.68 1472.31,1308.2 1474.46,1307.73 1476.61,1307.25 1478.77,1306.76 1480.92,1306.28 1483.07,1305.8 1485.23,1305.31 1487.38,1304.82 1489.53,1304.33 1491.68,1303.84 1493.84,1303.34 1495.99,1302.85 1498.14,1302.35 1500.29,1301.85 1502.45,1301.34 1504.6,1300.84 1506.75,1300.33 1508.9,1299.82 1511.06,1299.3 1513.21,1298.78 1515.36,1298.26 1517.52,1297.73 1519.67,1297.21 1521.82,1296.68 1523.97,1296.14 1526.13,1295.61 1528.28,1295.07 1530.43,1294.53 1532.58,1293.99 1534.74,1293.45 1536.89,1292.91 1539.04,1292.36 1541.2,1291.82 1543.35,1291.27 1545.5,1290.72 1547.65,1290.17 1549.81,1289.62 1551.96,1289.06 1554.11,1288.51 1556.26,1287.95 1558.42,1287.39 1560.57,1286.83 1562.72,1286.27 1564.87,1285.71 1567.03,1285.14 1569.18,1284.57 1571.33,1284 1573.49,1283.43 1575.64,1282.86 1577.79,1282.28 1579.94,1281.7 1582.1,1281.12 1584.25,1280.54 1586.4,1279.95 1588.55,1279.36 1590.71,1278.77 1592.86,1278.17 1595.01,1277.57 1597.16,1276.96 1599.32,1276.35 1601.47,1275.74 1603.62,1275.13 1605.78,1274.52 1607.93,1273.9 1610.08,1273.28 1612.23,1272.66 1614.39,1272.04 1616.54,1271.41 1618.69,1270.79 1620.84,1270.16 1623,1269.53 1625.15,1268.9 1627.3,1268.27 1629.46,1267.63 1631.61,1267 1633.76,1266.36 1635.91,1265.73 1638.07,1265.09 1640.22,1264.45 1642.37,1263.8 1644.52,1263.16 1646.68,1262.52 1648.83,1261.87 1650.98,1261.22 1653.13,1260.57 1655.29,1259.92 1657.44,1259.26 1659.59,1258.6 1661.75,1257.94 1663.9,1257.28 1666.05,1256.61 1668.2,1255.94 1670.36,1255.27 1672.51,1254.59 1674.66,1253.91 1676.81,1253.23 1678.97,1252.54 1681.12,1251.85 1683.27,1251.15 1685.42,1250.45 1687.58,1249.75 1689.73,1249.05 1691.88,1248.35 1694.04,1247.64 1696.19,1246.93 1698.34,1246.23 1700.49,1245.51 1702.65,1244.8 1704.8,1244.09 1706.95,1243.37 1709.1,1242.66 1711.26,1241.94 1713.41,1241.22 1715.56,1240.5 1717.71,1239.78 1719.87,1239.06 1722.02,1238.34 1724.17,1237.61 1726.33,1236.89 1728.48,1236.16 1730.63,1235.43 1732.78,1234.7 1734.94,1233.97 1737.09,1233.23 1739.24,1232.5 1741.39,1231.76 1743.55,1231.02 1745.7,1230.27 1747.85,1229.52 1750.01,1228.77 1752.16,1228.01 1754.31,1227.25 1756.46,1226.49 1758.62,1225.72 1760.77,1224.95 1762.92,1224.17 1765.07,1223.39 1767.23,1222.61 1769.38,1221.83 1771.53,1221.04 1773.68,1220.25 1775.84,1219.46 1777.99,1218.67 1780.14,1217.87 1782.3,1217.08 1784.45,1216.28 1786.6,1215.49 1788.75,1214.69 1790.91,1213.89 1793.06,1213.09 1795.21,1212.29 1797.36,1211.48 1799.52,1210.68 1801.67,1209.88 1803.82,1209.07 1805.97,1208.27 1808.13,1207.46 1810.28,1206.65 1812.43,1205.84 1814.59,1205.03 1816.74,1204.22 1818.89,1203.4 1821.04,1202.59 1823.2,1201.77 1825.35,1200.94 1827.5,1200.12 1829.65,1199.29 1831.81,1198.46 1833.96,1197.63 1836.11,1196.79 1838.27,1195.94 1840.42,1195.09 1842.57,1194.24 1844.72,1193.38 1846.88,1192.52 1849.03,1191.66 1851.18,1190.79 1853.33,1189.92 1855.49,1189.05 1857.64,1188.18 1859.79,1187.3 1861.94,1186.43 1864.1,1185.55 1866.25,1184.67 1868.4,1183.79 1870.56,1182.91 1872.71,1182.03 1874.86,1181.15 1877.01,1180.27 1879.17,1179.39 1881.32,1178.51 1883.47,1177.62 1885.62,1176.74 1887.78,1175.86 1889.93,1174.97 1892.08,1174.09 1894.23,1173.2 1896.39,1172.31 1898.54,1171.42 1900.69,1170.53 1902.85,1169.64 1905,1168.75 1907.15,1167.85 1909.3,1166.95 1911.46,1166.05 1913.61,1165.14 1915.76,1164.23 1917.91,1163.32 1920.07,1162.4 1922.22,1161.48 1924.37,1160.55 1926.53,1159.62 1928.68,1158.68 1930.83,1157.74 1932.98,1156.79 1935.14,1155.85 1937.29,1154.9 1939.44,1153.95 1941.59,1153 1943.75,1152.05 1945.9,1151.09 1948.05,1150.14 1950.2,1149.18 1952.36,1148.23 1954.51,1147.27 1956.66,1146.32 1958.82,1145.36 1960.97,1144.4 1963.12,1143.45 1965.27,1142.49 1967.43,1141.54 1969.58,1140.58 1971.73,1139.62 1973.88,1138.67 1976.04,1137.71 1978.19,1136.75 1980.34,1135.8 1982.49,1134.84 1984.65,1133.87 1986.8,1132.91 1988.95,1131.95 1991.11,1130.98 1993.26,1130.01 1995.41,1129.04 1997.56,1128.06 1999.72,1127.09 2001.87,1126.1 2004.02,1125.11 2006.17,1124.12 2008.33,1123.12 2010.48,1122.11 2012.63,1121.1 2014.78,1120.09 2016.94,1119.08 2019.09,1118.06 2021.24,1117.04 2023.4,1116.02 2025.55,1115 2027.7,1113.98 2029.85,1112.96 2032.01,1111.93 2034.16,1110.91 2036.31,1109.89 2038.46,1108.86 2040.62,1107.84 2042.77,1106.82 2044.92,1105.8 2047.08,1104.78 2049.23,1103.76 2051.38,1102.74 2053.53,1101.72 2055.69,1100.7 2057.84,1099.68 2059.99,1098.66 2062.14,1097.65 2064.3,1096.63 2066.45,1095.61 2068.6,1094.59 2070.75,1093.56 2072.91,1092.54 2075.06,1091.52 2077.21,1090.49 2079.37,1089.46 2081.52,1088.42 2083.67,1087.38 2085.82,1086.34 2087.98,1085.29 2090.13,1084.24 2092.28,1083.18 2094.43,1082.11 2096.59,1081.04 2098.74,1079.97 2100.89,1078.9 2103.04,1077.82 2105.2,1076.74 2107.35,1075.67 2109.5,1074.59 2111.66,1073.51 2113.81,1072.43 2115.96,1071.35 2118.11,1070.27 2120.27,1069.19 2122.42,1068.11 2124.57,1067.03 2126.72,1065.96 2128.88,1064.89 2131.03,1063.81 2133.18,1062.74 2135.34,1061.67 2137.49,1060.6 2139.64,1059.53 2141.79,1058.47 2143.95,1057.4 2146.1,1056.33 2148.25,1055.27 2150.4,1054.2 2152.56,1053.13 2154.71,1052.07 2156.86,1051 2159.01,1049.93 2161.17,1048.85 2163.32,1047.78 2165.47,1046.7 2167.63,1045.62 2169.78,1044.53 2171.93,1043.43 2174.08,1042.34 2176.24,1041.23 2178.39,1040.12 2180.54,1039 2182.69,1037.89 2184.85,1036.77 2187,1035.65 2189.15,1034.52 2191.3,1033.4 2193.46,1032.28 2195.61,1031.15 2197.76,1030.03 2199.92,1028.91 2202.07,1027.79 2204.22,1026.67 2206.37,1025.56 2208.53,1024.44 2210.68,1023.33 2212.83,1022.22 2214.98,1021.11 2217.14,1020 2219.29,1018.89 2221.44,1017.79 2223.6,1016.69 2225.75,1015.59 2227.9,1014.49 2230.05,1013.39 2232.21,1012.3 2234.36,1011.2 2236.51,1010.1 2238.66,1009.01 2240.82,1007.91 2242.97,1006.81 2245.12,1005.71 2247.27,1004.6 2249.43,1003.5 2251.58,1002.38 2253.73,1001.27 2255.89,1000.15 2258.04,999.02 2260.19,997.885 2262.34,996.746 2264.5,995.603 2266.65,994.458 2268.8,993.31 2270.95,992.162 2273.11,991.013 2275.26,989.863 2277.41,988.714 2279.56,987.566 2281.72,986.42 2283.87,985.274 2286.02,984.131 2288.18,982.99 2290.33,981.852 2292.48,980.716 2294.63,979.583 2296.79,978.452 2298.94,977.325 2301.09,976.2 2303.24,975.078 2305.4,973.959 2307.55,972.843 2309.7,971.728 2311.85,970.616 2314.01,969.506 2316.16,968.397 2318.31,967.289 2320.47,966.181 2322.62,965.074 2324.77,963.966 2326.92,962.857 2329.08,961.747 2331.23,960.634 2333.38,959.518 2335.53,958.399 2337.69,957.274 2339.84,956.145 2341.99,955.008 2344.15,953.865 2346.3,952.721 2348.45,951.578 2350.6,950.436 2352.76,949.296 "/>
<circle clip-path="url(#clip362)" cx="256.097" cy="1379.85" r="18" fill="#e26f46" fill-rule="evenodd" fill-opacity="1" stroke="#000000" stroke-opacity="1" stroke-width="3.2"/>
<circle clip-path="url(#clip362)" cx="398.228" cy="1380.57" r="18" fill="#e26f46" fill-rule="evenodd" fill-opacity="1" stroke="#000000" stroke-opacity="1" stroke-width="3.2"/>
<circle clip-path="url(#clip362)" cx="678.229" cy="1383.48" r="18" fill="#e26f46" fill-rule="evenodd" fill-opacity="1" stroke="#000000" stroke-opacity="1" stroke-width="3.2"/>
<circle clip-path="url(#clip362)" cx="796.925" cy="1381.3" r="18" fill="#e26f46" fill-rule="evenodd" fill-opacity="1" stroke="#000000" stroke-opacity="1" stroke-width="3.2"/>
<circle clip-path="url(#clip362)" cx="954.273" cy="1374.75" r="18" fill="#e26f46" fill-rule="evenodd" fill-opacity="1" stroke="#000000" stroke-opacity="1" stroke-width="3.2"/>
<circle clip-path="url(#clip362)" cx="1075.71" cy="1363.11" r="18" fill="#e26f46" fill-rule="evenodd" fill-opacity="1" stroke="#000000" stroke-opacity="1" stroke-width="3.2"/>
<circle clip-path="url(#clip362)" cx="1219.36" cy="1356.56" r="18" fill="#e26f46" fill-rule="evenodd" fill-opacity="1" stroke="#000000" stroke-opacity="1" stroke-width="3.2"/>
<circle clip-path="url(#clip362)" cx="1337.14" cy="1363.84" r="18" fill="#e26f46" fill-rule="evenodd" fill-opacity="1" stroke="#000000" stroke-opacity="1" stroke-width="3.2"/>
<circle clip-path="url(#clip362)" cx="1624.75" cy="1374.03" r="18" fill="#e26f46" fill-rule="evenodd" fill-opacity="1" stroke="#000000" stroke-opacity="1" stroke-width="3.2"/>
<circle clip-path="url(#clip362)" cx="1708.15" cy="1230.67" r="18" fill="#e26f46" fill-rule="evenodd" fill-opacity="1" stroke="#000000" stroke-opacity="1" stroke-width="3.2"/>
<circle clip-path="url(#clip362)" cx="1828.06" cy="740.944" r="18" fill="#e26f46" fill-rule="evenodd" fill-opacity="1" stroke="#000000" stroke-opacity="1" stroke-width="3.2"/>
<circle clip-path="url(#clip362)" cx="1948.89" cy="160.256" r="18" fill="#e26f46" fill-rule="evenodd" fill-opacity="1" stroke="#000000" stroke-opacity="1" stroke-width="3.2"/>
<circle clip-path="url(#clip362)" cx="2170.15" cy="794.065" r="18" fill="#e26f46" fill-rule="evenodd" fill-opacity="1" stroke="#000000" stroke-opacity="1" stroke-width="3.2"/>
<path clip-path="url(#clip360)" d="M273.912 322.316 L838.338 322.316 L838.338 166.796 L273.912 166.796  Z" fill="#ffffff" fill-rule="evenodd" fill-opacity="1"/>
<polyline clip-path="url(#clip360)" style="stroke:#000000; stroke-linecap:round; stroke-linejoin:round; stroke-width:4; stroke-opacity:1; fill:none" points="273.912,322.316 838.338,322.316 838.338,166.796 273.912,166.796 273.912,322.316 "/>
<polyline clip-path="url(#clip360)" style="stroke:#009af9; stroke-linecap:round; stroke-linejoin:round; stroke-width:8; stroke-opacity:1; fill:none" points="297.807,218.636 441.175,218.636 "/>
<path clip-path="url(#clip360)" d="M469.746 219.411 L469.746 232.073 L477.246 232.073 Q481.019 232.073 482.824 230.522 Q484.653 228.948 484.653 225.731 Q484.653 222.49 482.824 220.962 Q481.019 219.411 477.246 219.411 L469.746 219.411 M469.746 205.198 L469.746 215.615 L476.667 215.615 Q480.093 215.615 481.76 214.342 Q483.449 213.045 483.449 210.407 Q483.449 207.791 481.76 206.495 Q480.093 205.198 476.667 205.198 L469.746 205.198 M465.07 201.356 L477.014 201.356 Q482.361 201.356 485.255 203.578 Q488.148 205.8 488.148 209.897 Q488.148 213.069 486.667 214.944 Q485.185 216.819 482.315 217.282 Q485.764 218.022 487.662 220.383 Q489.584 222.721 489.584 226.24 Q489.584 230.869 486.435 233.393 Q483.287 235.916 477.477 235.916 L465.07 235.916 L465.07 201.356 Z" fill="#000000" fill-rule="nonzero" fill-opacity="1" /><path clip-path="url(#clip360)" d="M497.408 199.897 L501.667 199.897 L501.667 235.916 L497.408 235.916 L497.408 199.897 Z" fill="#000000" fill-rule="nonzero" fill-opacity="1" /><path clip-path="url(#clip360)" d="M520.625 212.976 Q517.199 212.976 515.208 215.661 Q513.218 218.323 513.218 222.976 Q513.218 227.629 515.185 230.314 Q517.176 232.976 520.625 232.976 Q524.028 232.976 526.019 230.291 Q528.009 227.606 528.009 222.976 Q528.009 218.37 526.019 215.684 Q524.028 212.976 520.625 212.976 M520.625 209.365 Q526.181 209.365 529.352 212.976 Q532.523 216.587 532.523 222.976 Q532.523 229.342 529.352 232.976 Q526.181 236.587 520.625 236.587 Q515.046 236.587 511.875 232.976 Q508.727 229.342 508.727 222.976 Q508.727 216.587 511.875 212.976 Q515.046 209.365 520.625 209.365 Z" fill="#000000" fill-rule="nonzero" fill-opacity="1" /><path clip-path="url(#clip360)" d="M549.63 212.976 Q546.204 212.976 544.213 215.661 Q542.222 218.323 542.222 222.976 Q542.222 227.629 544.19 230.314 Q546.181 232.976 549.63 232.976 Q553.032 232.976 555.023 230.291 Q557.014 227.606 557.014 222.976 Q557.014 218.37 555.023 215.684 Q553.032 212.976 549.63 212.976 M549.63 209.365 Q555.185 209.365 558.356 212.976 Q561.528 216.587 561.528 222.976 Q561.528 229.342 558.356 232.976 Q555.185 236.587 549.63 236.587 Q544.051 236.587 540.88 232.976 Q537.731 229.342 537.731 222.976 Q537.731 216.587 540.88 212.976 Q544.051 209.365 549.63 209.365 Z" fill="#000000" fill-rule="nonzero" fill-opacity="1" /><path clip-path="url(#clip360)" d="M585.648 213.925 L585.648 199.897 L589.907 199.897 L589.907 235.916 L585.648 235.916 L585.648 232.027 Q584.305 234.342 582.245 235.476 Q580.208 236.587 577.338 236.587 Q572.639 236.587 569.676 232.837 Q566.736 229.087 566.736 222.976 Q566.736 216.865 569.676 213.115 Q572.639 209.365 577.338 209.365 Q580.208 209.365 582.245 210.499 Q584.305 211.61 585.648 213.925 M571.134 222.976 Q571.134 227.675 573.055 230.36 Q575 233.022 578.379 233.022 Q581.759 233.022 583.703 230.36 Q585.648 227.675 585.648 222.976 Q585.648 218.277 583.703 215.615 Q581.759 212.93 578.379 212.93 Q575 212.93 573.055 215.615 Q571.134 218.277 571.134 222.976 Z" fill="#000000" fill-rule="nonzero" fill-opacity="1" /><circle clip-path="url(#clip360)" cx="369.491" cy="270.476" r="20.9455" fill="#e26f46" fill-rule="evenodd" fill-opacity="1" stroke="#000000" stroke-opacity="1" stroke-width="3.72364"/>
<path clip-path="url(#clip360)" d="M481.088 256.367 Q475.996 256.367 472.986 260.163 Q470 263.96 470 270.51 Q470 277.038 472.986 280.834 Q475.996 284.631 481.088 284.631 Q486.181 284.631 489.144 280.834 Q492.13 277.038 492.13 270.51 Q492.13 263.96 489.144 260.163 Q486.181 256.367 481.088 256.367 M481.088 252.571 Q488.357 252.571 492.709 257.455 Q497.06 262.316 497.06 270.51 Q497.06 278.682 492.709 283.566 Q488.357 288.427 481.088 288.427 Q473.797 288.427 469.422 283.566 Q465.07 278.705 465.07 270.51 Q465.07 262.316 469.422 257.455 Q473.797 252.571 481.088 252.571 Z" fill="#000000" fill-rule="nonzero" fill-opacity="1" /><path clip-path="url(#clip360)" d="M522.801 274.816 Q522.801 270.117 520.857 267.455 Q518.935 264.77 515.556 264.77 Q512.176 264.77 510.232 267.455 Q508.31 270.117 508.31 274.816 Q508.31 279.515 510.232 282.2 Q512.176 284.862 515.556 284.862 Q518.935 284.862 520.857 282.2 Q522.801 279.515 522.801 274.816 M508.31 265.765 Q509.653 263.45 511.69 262.339 Q513.75 261.205 516.597 261.205 Q521.32 261.205 524.259 264.955 Q527.222 268.705 527.222 274.816 Q527.222 280.927 524.259 284.677 Q521.32 288.427 516.597 288.427 Q513.75 288.427 511.69 287.316 Q509.653 286.182 508.31 283.867 L508.31 287.756 L504.028 287.756 L504.028 251.737 L508.31 251.737 L508.31 265.765 Z" fill="#000000" fill-rule="nonzero" fill-opacity="1" /><path clip-path="url(#clip360)" d="M550.81 262.594 L550.81 266.622 Q549.005 265.696 547.06 265.233 Q545.116 264.77 543.032 264.77 Q539.861 264.77 538.264 265.742 Q536.69 266.714 536.69 268.659 Q536.69 270.14 537.824 270.997 Q538.958 271.83 542.384 272.594 L543.843 272.918 Q548.38 273.89 550.278 275.672 Q552.199 277.432 552.199 280.603 Q552.199 284.214 549.329 286.321 Q546.481 288.427 541.481 288.427 Q539.398 288.427 537.13 288.01 Q534.884 287.617 532.384 286.807 L532.384 282.409 Q534.745 283.635 537.037 284.26 Q539.329 284.862 541.574 284.862 Q544.583 284.862 546.204 283.844 Q547.824 282.802 547.824 280.927 Q547.824 279.191 546.643 278.265 Q545.486 277.339 541.528 276.483 L540.046 276.135 Q536.088 275.302 534.329 273.589 Q532.569 271.853 532.569 268.844 Q532.569 265.186 535.162 263.196 Q537.755 261.205 542.523 261.205 Q544.884 261.205 546.968 261.552 Q549.051 261.899 550.81 262.594 Z" fill="#000000" fill-rule="nonzero" fill-opacity="1" /><path clip-path="url(#clip360)" d="M581.157 273.728 L581.157 275.811 L561.574 275.811 Q561.852 280.209 564.213 282.524 Q566.597 284.816 570.833 284.816 Q573.287 284.816 575.579 284.214 Q577.893 283.612 580.162 282.409 L580.162 286.436 Q577.87 287.408 575.463 287.918 Q573.055 288.427 570.579 288.427 Q564.375 288.427 560.741 284.816 Q557.13 281.205 557.13 275.047 Q557.13 268.682 560.555 264.955 Q564.004 261.205 569.838 261.205 Q575.069 261.205 578.102 264.585 Q581.157 267.941 581.157 273.728 M576.898 272.478 Q576.852 268.983 574.93 266.899 Q573.032 264.816 569.884 264.816 Q566.319 264.816 564.167 266.83 Q562.037 268.844 561.713 272.501 L576.898 272.478 Z" fill="#000000" fill-rule="nonzero" fill-opacity="1" /><path clip-path="url(#clip360)" d="M603.171 265.811 Q602.453 265.395 601.597 265.21 Q600.764 265.001 599.745 265.001 Q596.134 265.001 594.19 267.362 Q592.268 269.7 592.268 274.098 L592.268 287.756 L587.986 287.756 L587.986 261.83 L592.268 261.83 L592.268 265.858 Q593.611 263.497 595.764 262.362 Q597.916 261.205 600.995 261.205 Q601.435 261.205 601.967 261.274 Q602.5 261.321 603.148 261.436 L603.171 265.811 Z" fill="#000000" fill-rule="nonzero" fill-opacity="1" /><path clip-path="url(#clip360)" d="M604.583 261.83 L609.097 261.83 L617.199 283.589 L625.3 261.83 L629.814 261.83 L620.092 287.756 L614.305 287.756 L604.583 261.83 Z" fill="#000000" fill-rule="nonzero" fill-opacity="1" /><path clip-path="url(#clip360)" d="M657.87 273.728 L657.87 275.811 L638.287 275.811 Q638.564 280.209 640.925 282.524 Q643.31 284.816 647.546 284.816 Q649.999 284.816 652.291 284.214 Q654.606 283.612 656.874 282.409 L656.874 286.436 Q654.583 287.408 652.175 287.918 Q649.768 288.427 647.291 288.427 Q641.087 288.427 637.453 284.816 Q633.842 281.205 633.842 275.047 Q633.842 268.682 637.268 264.955 Q640.717 261.205 646.55 261.205 Q651.782 261.205 654.814 264.585 Q657.87 267.941 657.87 273.728 M653.61 272.478 Q653.564 268.983 651.643 266.899 Q649.745 264.816 646.597 264.816 Q643.032 264.816 640.879 266.83 Q638.749 268.844 638.425 272.501 L653.61 272.478 Z" fill="#000000" fill-rule="nonzero" fill-opacity="1" /><path clip-path="url(#clip360)" d="M681.921 265.765 L681.921 251.737 L686.18 251.737 L686.18 287.756 L681.921 287.756 L681.921 283.867 Q680.578 286.182 678.518 287.316 Q676.481 288.427 673.61 288.427 Q668.911 288.427 665.948 284.677 Q663.009 280.927 663.009 274.816 Q663.009 268.705 665.948 264.955 Q668.911 261.205 673.61 261.205 Q676.481 261.205 678.518 262.339 Q680.578 263.45 681.921 265.765 M667.407 274.816 Q667.407 279.515 669.328 282.2 Q671.272 284.862 674.652 284.862 Q678.032 284.862 679.976 282.2 Q681.921 279.515 681.921 274.816 Q681.921 270.117 679.976 267.455 Q678.032 264.77 674.652 264.77 Q671.272 264.77 669.328 267.455 Q667.407 270.117 667.407 274.816 Z" fill="#000000" fill-rule="nonzero" fill-opacity="1" /><path clip-path="url(#clip360)" d="M714.883 257.038 L714.883 283.913 L720.531 283.913 Q727.684 283.913 730.994 280.672 Q734.328 277.432 734.328 270.441 Q734.328 263.497 730.994 260.279 Q727.684 257.038 720.531 257.038 L714.883 257.038 M710.207 253.196 L719.814 253.196 Q729.86 253.196 734.559 257.386 Q739.258 261.552 739.258 270.441 Q739.258 279.376 734.536 283.566 Q729.814 287.756 719.814 287.756 L710.207 287.756 L710.207 253.196 Z" fill="#000000" fill-rule="nonzero" fill-opacity="1" /><path clip-path="url(#clip360)" d="M758.309 274.723 Q753.147 274.723 751.156 275.904 Q749.166 277.084 749.166 279.932 Q749.166 282.2 750.647 283.543 Q752.152 284.862 754.721 284.862 Q758.263 284.862 760.392 282.362 Q762.545 279.839 762.545 275.672 L762.545 274.723 L758.309 274.723 M766.804 272.964 L766.804 287.756 L762.545 287.756 L762.545 283.821 Q761.087 286.182 758.911 287.316 Q756.735 288.427 753.587 288.427 Q749.605 288.427 747.244 286.205 Q744.906 283.959 744.906 280.209 Q744.906 275.834 747.823 273.612 Q750.763 271.39 756.573 271.39 L762.545 271.39 L762.545 270.973 Q762.545 268.034 760.601 266.436 Q758.679 264.816 755.184 264.816 Q752.962 264.816 750.855 265.348 Q748.749 265.881 746.804 266.946 L746.804 263.01 Q749.142 262.108 751.341 261.668 Q753.541 261.205 755.624 261.205 Q761.249 261.205 764.027 264.122 Q766.804 267.038 766.804 272.964 Z" fill="#000000" fill-rule="nonzero" fill-opacity="1" /><path clip-path="url(#clip360)" d="M779.79 254.469 L779.79 261.83 L788.563 261.83 L788.563 265.14 L779.79 265.14 L779.79 279.214 Q779.79 282.385 780.647 283.288 Q781.526 284.191 784.188 284.191 L788.563 284.191 L788.563 287.756 L784.188 287.756 Q779.258 287.756 777.383 285.927 Q775.508 284.075 775.508 279.214 L775.508 265.14 L772.383 265.14 L772.383 261.83 L775.508 261.83 L775.508 254.469 L779.79 254.469 Z" fill="#000000" fill-rule="nonzero" fill-opacity="1" /><path clip-path="url(#clip360)" d="M805.948 274.723 Q800.786 274.723 798.795 275.904 Q796.804 277.084 796.804 279.932 Q796.804 282.2 798.286 283.543 Q799.79 284.862 802.36 284.862 Q805.901 284.862 808.031 282.362 Q810.184 279.839 810.184 275.672 L810.184 274.723 L805.948 274.723 M814.443 272.964 L814.443 287.756 L810.184 287.756 L810.184 283.821 Q808.725 286.182 806.549 287.316 Q804.374 288.427 801.225 288.427 Q797.244 288.427 794.883 286.205 Q792.545 283.959 792.545 280.209 Q792.545 275.834 795.462 273.612 Q798.401 271.39 804.212 271.39 L810.184 271.39 L810.184 270.973 Q810.184 268.034 808.239 266.436 Q806.318 264.816 802.823 264.816 Q800.6 264.816 798.494 265.348 Q796.388 265.881 794.443 266.946 L794.443 263.01 Q796.781 262.108 798.98 261.668 Q801.179 261.205 803.262 261.205 Q808.887 261.205 811.665 264.122 Q814.443 267.038 814.443 272.964 Z" fill="#000000" fill-rule="nonzero" fill-opacity="1" /></svg>
