<?xml version="1.0" encoding="utf-8"?>
<svg xmlns="http://www.w3.org/2000/svg" xmlns:xlink="http://www.w3.org/1999/xlink" width="600" height="400" viewBox="0 0 2400 1600">
<defs>
  <clipPath id="clip410">
    <rect x="0" y="0" width="2400" height="1600"/>
  </clipPath>
</defs>
<path clip-path="url(#clip410)" d="M0 1600 L2400 1600 L2400 0 L0 0  Z" fill="#ffffff" fill-rule="evenodd" fill-opacity="1"/>
<defs>
  <clipPath id="clip411">
    <rect x="175" y="123" width="2178" height="1301"/>
  </clipPath>
</defs>
<path clip-path="url(#clip410)" d="M205.121 1423.18 L2352.76 1423.18 L2352.76 123.472 L205.121 123.472  Z" fill="#ffffff" fill-rule="evenodd" fill-opacity="1"/>
<defs>
  <clipPath id="clip412">
    <rect x="205" y="123" width="2149" height="1301"/>
  </clipPath>
</defs>
<polyline clip-path="url(#clip412)" style="stroke:#000000; stroke-linecap:round; stroke-linejoin:round; stroke-width:2; stroke-opacity:0.1; fill:none" points="205.121,1423.18 205.121,123.472 "/>
<polyline clip-path="url(#clip412)" style="stroke:#000000; stroke-linecap:round; stroke-linejoin:round; stroke-width:2; stroke-opacity:0.1; fill:none" points="702.547,1423.18 702.547,123.472 "/>
<polyline clip-path="url(#clip412)" style="stroke:#000000; stroke-linecap:round; stroke-linejoin:round; stroke-width:2; stroke-opacity:0.1; fill:none" points="1199.97,1423.18 1199.97,123.472 "/>
<polyline clip-path="url(#clip412)" style="stroke:#000000; stroke-linecap:round; stroke-linejoin:round; stroke-width:2; stroke-opacity:0.1; fill:none" points="1697.4,1423.18 1697.4,123.472 "/>
<polyline clip-path="url(#clip412)" style="stroke:#000000; stroke-linecap:round; stroke-linejoin:round; stroke-width:2; stroke-opacity:0.1; fill:none" points="2194.82,1423.18 2194.82,123.472 "/>
<polyline clip-path="url(#clip412)" style="stroke:#000000; stroke-linecap:round; stroke-linejoin:round; stroke-width:2; stroke-opacity:0.1; fill:none" points="205.121,1386.4 2352.76,1386.4 "/>
<polyline clip-path="url(#clip412)" style="stroke:#000000; stroke-linecap:round; stroke-linejoin:round; stroke-width:2; stroke-opacity:0.1; fill:none" points="205.121,1075.89 2352.76,1075.89 "/>
<polyline clip-path="url(#clip412)" style="stroke:#000000; stroke-linecap:round; stroke-linejoin:round; stroke-width:2; stroke-opacity:0.1; fill:none" points="205.121,765.388 2352.76,765.388 "/>
<polyline clip-path="url(#clip412)" style="stroke:#000000; stroke-linecap:round; stroke-linejoin:round; stroke-width:2; stroke-opacity:0.1; fill:none" points="205.121,454.885 2352.76,454.885 "/>
<polyline clip-path="url(#clip412)" style="stroke:#000000; stroke-linecap:round; stroke-linejoin:round; stroke-width:2; stroke-opacity:0.1; fill:none" points="205.121,144.381 2352.76,144.381 "/>
<polyline clip-path="url(#clip410)" style="stroke:#000000; stroke-linecap:round; stroke-linejoin:round; stroke-width:4; stroke-opacity:1; fill:none" points="205.121,1423.18 2352.76,1423.18 "/>
<polyline clip-path="url(#clip410)" style="stroke:#000000; stroke-linecap:round; stroke-linejoin:round; stroke-width:4; stroke-opacity:1; fill:none" points="205.121,1423.18 205.121,1404.28 "/>
<polyline clip-path="url(#clip410)" style="stroke:#000000; stroke-linecap:round; stroke-linejoin:round; stroke-width:4; stroke-opacity:1; fill:none" points="702.547,1423.18 702.547,1404.28 "/>
<polyline clip-path="url(#clip410)" style="stroke:#000000; stroke-linecap:round; stroke-linejoin:round; stroke-width:4; stroke-opacity:1; fill:none" points="1199.97,1423.18 1199.97,1404.28 "/>
<polyline clip-path="url(#clip410)" style="stroke:#000000; stroke-linecap:round; stroke-linejoin:round; stroke-width:4; stroke-opacity:1; fill:none" points="1697.4,1423.18 1697.4,1404.28 "/>
<polyline clip-path="url(#clip410)" style="stroke:#000000; stroke-linecap:round; stroke-linejoin:round; stroke-width:4; stroke-opacity:1; fill:none" points="2194.82,1423.18 2194.82,1404.28 "/>
<path clip-path="url(#clip410)" d="M205.121 1454.1 Q201.51 1454.1 199.681 1457.66 Q197.876 1461.2 197.876 1468.33 Q197.876 1475.44 199.681 1479.01 Q201.51 1482.55 205.121 1482.55 Q208.755 1482.55 210.561 1479.01 Q212.389 1475.44 212.389 1468.33 Q212.389 1461.2 210.561 1457.66 Q208.755 1454.1 205.121 1454.1 M205.121 1450.39 Q210.931 1450.39 213.987 1455 Q217.065 1459.58 217.065 1468.33 Q217.065 1477.06 213.987 1481.67 Q210.931 1486.25 205.121 1486.25 Q199.311 1486.25 196.232 1481.67 Q193.177 1477.06 193.177 1468.33 Q193.177 1459.58 196.232 1455 Q199.311 1450.39 205.121 1450.39 Z" fill="#000000" fill-rule="nonzero" fill-opacity="1" /><path clip-path="url(#clip410)" d="M681.32 1481.64 L697.639 1481.64 L697.639 1485.58 L675.695 1485.58 L675.695 1481.64 Q678.357 1478.89 682.94 1474.26 Q687.547 1469.61 688.727 1468.27 Q690.973 1465.74 691.852 1464.01 Q692.755 1462.25 692.755 1460.56 Q692.755 1457.8 690.811 1456.07 Q688.889 1454.33 685.787 1454.33 Q683.588 1454.33 681.135 1455.09 Q678.704 1455.86 675.926 1457.41 L675.926 1452.69 Q678.75 1451.55 681.204 1450.97 Q683.658 1450.39 685.695 1450.39 Q691.065 1450.39 694.26 1453.08 Q697.454 1455.77 697.454 1460.26 Q697.454 1462.39 696.644 1464.31 Q695.857 1466.2 693.75 1468.8 Q693.172 1469.47 690.07 1472.69 Q686.968 1475.88 681.32 1481.64 Z" fill="#000000" fill-rule="nonzero" fill-opacity="1" /><path clip-path="url(#clip410)" d="M717.454 1454.1 Q713.843 1454.1 712.014 1457.66 Q710.209 1461.2 710.209 1468.33 Q710.209 1475.44 712.014 1479.01 Q713.843 1482.55 717.454 1482.55 Q721.088 1482.55 722.894 1479.01 Q724.722 1475.44 724.722 1468.33 Q724.722 1461.2 722.894 1457.66 Q721.088 1454.1 717.454 1454.1 M717.454 1450.39 Q723.264 1450.39 726.32 1455 Q729.398 1459.58 729.398 1468.33 Q729.398 1477.06 726.32 1481.67 Q723.264 1486.25 717.454 1486.25 Q711.644 1486.25 708.565 1481.67 Q705.509 1477.06 705.509 1468.33 Q705.509 1459.58 708.565 1455 Q711.644 1450.39 717.454 1450.39 Z" fill="#000000" fill-rule="nonzero" fill-opacity="1" /><path clip-path="url(#clip410)" d="M1188.14 1455.09 L1176.34 1473.54 L1188.14 1473.54 L1188.14 1455.09 M1186.92 1451.02 L1192.8 1451.02 L1192.8 1473.54 L1197.73 1473.54 L1197.73 1477.43 L1192.8 1477.43 L1192.8 1485.58 L1188.14 1485.58 L1188.14 1477.43 L1172.54 1477.43 L1172.54 1472.92 L1186.92 1451.02 Z" fill="#000000" fill-rule="nonzero" fill-opacity="1" /><path clip-path="url(#clip410)" d="M1215.46 1454.1 Q1211.85 1454.1 1210.02 1457.66 Q1208.21 1461.2 1208.21 1468.33 Q1208.21 1475.44 1210.02 1479.01 Q1211.85 1482.55 1215.46 1482.55 Q1219.09 1482.55 1220.9 1479.01 Q1222.73 1475.44 1222.73 1468.33 Q1222.73 1461.2 1220.9 1457.66 Q1219.09 1454.1 1215.46 1454.1 M1215.46 1450.39 Q1221.27 1450.39 1224.32 1455 Q1227.4 1459.58 1227.4 1468.33 Q1227.4 1477.06 1224.32 1481.67 Q1221.27 1486.25 1215.46 1486.25 Q1209.65 1486.25 1206.57 1481.67 Q1203.51 1477.06 1203.51 1468.33 Q1203.51 1459.58 1206.57 1455 Q1209.65 1450.39 1215.46 1450.39 Z" fill="#000000" fill-rule="nonzero" fill-opacity="1" /><path clip-path="url(#clip410)" d="M1682.8 1466.44 Q1679.65 1466.44 1677.8 1468.59 Q1675.97 1470.74 1675.97 1474.49 Q1675.97 1478.22 1677.8 1480.39 Q1679.65 1482.55 1682.8 1482.55 Q1685.95 1482.55 1687.78 1480.39 Q1689.63 1478.22 1689.63 1474.49 Q1689.63 1470.74 1687.78 1468.59 Q1685.95 1466.44 1682.8 1466.44 M1692.09 1451.78 L1692.09 1456.04 Q1690.33 1455.21 1688.52 1454.77 Q1686.74 1454.33 1684.98 1454.33 Q1680.35 1454.33 1677.9 1457.45 Q1675.46 1460.58 1675.12 1466.9 Q1676.48 1464.89 1678.54 1463.82 Q1680.6 1462.73 1683.08 1462.73 Q1688.29 1462.73 1691.3 1465.9 Q1694.33 1469.05 1694.33 1474.49 Q1694.33 1479.82 1691.18 1483.03 Q1688.03 1486.25 1682.8 1486.25 Q1676.81 1486.25 1673.64 1481.67 Q1670.46 1477.06 1670.46 1468.33 Q1670.46 1460.14 1674.35 1455.28 Q1678.24 1450.39 1684.79 1450.39 Q1686.55 1450.39 1688.34 1450.74 Q1690.14 1451.09 1692.09 1451.78 Z" fill="#000000" fill-rule="nonzero" fill-opacity="1" /><path clip-path="url(#clip410)" d="M1712.39 1454.1 Q1708.77 1454.1 1706.95 1457.66 Q1705.14 1461.2 1705.14 1468.33 Q1705.14 1475.44 1706.95 1479.01 Q1708.77 1482.55 1712.39 1482.55 Q1716.02 1482.55 1717.83 1479.01 Q1719.65 1475.44 1719.65 1468.33 Q1719.65 1461.2 1717.83 1457.66 Q1716.02 1454.1 1712.39 1454.1 M1712.39 1450.39 Q1718.2 1450.39 1721.25 1455 Q1724.33 1459.58 1724.33 1468.33 Q1724.33 1477.06 1721.25 1481.67 Q1718.2 1486.25 1712.39 1486.25 Q1706.58 1486.25 1703.5 1481.67 Q1700.44 1477.06 1700.44 1468.33 Q1700.44 1459.58 1703.5 1455 Q1706.58 1450.39 1712.39 1450.39 Z" fill="#000000" fill-rule="nonzero" fill-opacity="1" /><path clip-path="url(#clip410)" d="M2179.7 1469.17 Q2176.36 1469.17 2174.44 1470.95 Q2172.54 1472.73 2172.54 1475.86 Q2172.54 1478.98 2174.44 1480.77 Q2176.36 1482.55 2179.7 1482.55 Q2183.03 1482.55 2184.95 1480.77 Q2186.87 1478.96 2186.87 1475.86 Q2186.87 1472.73 2184.95 1470.95 Q2183.05 1469.17 2179.7 1469.17 M2175.02 1467.18 Q2172.01 1466.44 2170.32 1464.38 Q2168.65 1462.32 2168.65 1459.35 Q2168.65 1455.21 2171.59 1452.8 Q2174.56 1450.39 2179.7 1450.39 Q2184.86 1450.39 2187.8 1452.8 Q2190.74 1455.21 2190.74 1459.35 Q2190.74 1462.32 2189.05 1464.38 Q2187.38 1466.44 2184.4 1467.18 Q2187.77 1467.96 2189.65 1470.26 Q2191.55 1472.55 2191.55 1475.86 Q2191.55 1480.88 2188.47 1483.57 Q2185.41 1486.25 2179.7 1486.25 Q2173.98 1486.25 2170.9 1483.57 Q2167.84 1480.88 2167.84 1475.86 Q2167.84 1472.55 2169.74 1470.26 Q2171.64 1467.96 2175.02 1467.18 M2173.31 1459.79 Q2173.31 1462.48 2174.97 1463.98 Q2176.66 1465.49 2179.7 1465.49 Q2182.71 1465.49 2184.4 1463.98 Q2186.11 1462.48 2186.11 1459.79 Q2186.11 1457.11 2184.4 1455.6 Q2182.71 1454.1 2179.7 1454.1 Q2176.66 1454.1 2174.97 1455.6 Q2173.31 1457.11 2173.31 1459.79 Z" fill="#000000" fill-rule="nonzero" fill-opacity="1" /><path clip-path="url(#clip410)" d="M2209.86 1454.1 Q2206.25 1454.1 2204.42 1457.66 Q2202.61 1461.2 2202.61 1468.33 Q2202.61 1475.44 2204.42 1479.01 Q2206.25 1482.55 2209.86 1482.55 Q2213.49 1482.55 2215.3 1479.01 Q2217.13 1475.44 2217.13 1468.33 Q2217.13 1461.2 2215.3 1457.66 Q2213.49 1454.1 2209.86 1454.1 M2209.86 1450.39 Q2215.67 1450.39 2218.72 1455 Q2221.8 1459.58 2221.8 1468.33 Q2221.8 1477.06 2218.72 1481.67 Q2215.67 1486.25 2209.86 1486.25 Q2204.05 1486.25 2200.97 1481.67 Q2197.91 1477.06 2197.91 1468.33 Q2197.91 1459.58 2200.97 1455 Q2204.05 1450.39 2209.86 1450.39 Z" fill="#000000" fill-rule="nonzero" fill-opacity="1" /><path clip-path="url(#clip410)" d="M1278 1522.27 L1278 1532.4 L1290.06 1532.4 L1290.06 1536.95 L1278 1536.95 L1278 1556.3 Q1278 1560.66 1279.18 1561.9 Q1280.39 1563.14 1284.05 1563.14 L1290.06 1563.14 L1290.06 1568.04 L1284.05 1568.04 Q1277.27 1568.04 1274.69 1565.53 Q1272.11 1562.98 1272.11 1556.3 L1272.11 1536.95 L1267.81 1536.95 L1267.81 1532.4 L1272.11 1532.4 L1272.11 1522.27 L1278 1522.27 Z" fill="#000000" fill-rule="nonzero" fill-opacity="1" /><polyline clip-path="url(#clip410)" style="stroke:#000000; stroke-linecap:round; stroke-linejoin:round; stroke-width:4; stroke-opacity:1; fill:none" points="205.121,1423.18 205.121,123.472 "/>
<polyline clip-path="url(#clip410)" style="stroke:#000000; stroke-linecap:round; stroke-linejoin:round; stroke-width:4; stroke-opacity:1; fill:none" points="205.121,1386.4 224.019,1386.4 "/>
<polyline clip-path="url(#clip410)" style="stroke:#000000; stroke-linecap:round; stroke-linejoin:round; stroke-width:4; stroke-opacity:1; fill:none" points="205.121,1075.89 224.019,1075.89 "/>
<polyline clip-path="url(#clip410)" style="stroke:#000000; stroke-linecap:round; stroke-linejoin:round; stroke-width:4; stroke-opacity:1; fill:none" points="205.121,765.388 224.019,765.388 "/>
<polyline clip-path="url(#clip410)" style="stroke:#000000; stroke-linecap:round; stroke-linejoin:round; stroke-width:4; stroke-opacity:1; fill:none" points="205.121,454.885 224.019,454.885 "/>
<polyline clip-path="url(#clip410)" style="stroke:#000000; stroke-linecap:round; stroke-linejoin:round; stroke-width:4; stroke-opacity:1; fill:none" points="205.121,144.381 224.019,144.381 "/>
<path clip-path="url(#clip410)" d="M157.177 1372.19 Q153.566 1372.19 151.737 1375.76 Q149.931 1379.3 149.931 1386.43 Q149.931 1393.54 151.737 1397.1 Q153.566 1400.64 157.177 1400.64 Q160.811 1400.64 162.616 1397.1 Q164.445 1393.54 164.445 1386.43 Q164.445 1379.3 162.616 1375.76 Q160.811 1372.19 157.177 1372.19 M157.177 1368.49 Q162.987 1368.49 166.042 1373.1 Q169.121 1377.68 169.121 1386.43 Q169.121 1395.16 166.042 1399.76 Q162.987 1404.35 157.177 1404.35 Q151.366 1404.35 148.288 1399.76 Q145.232 1395.16 145.232 1386.43 Q145.232 1377.68 148.288 1373.1 Q151.366 1368.49 157.177 1368.49 Z" fill="#000000" fill-rule="nonzero" fill-opacity="1" /><path clip-path="url(#clip410)" d="M117.825 1089.24 L125.464 1089.24 L125.464 1062.87 L117.154 1064.54 L117.154 1060.28 L125.418 1058.61 L130.093 1058.61 L130.093 1089.24 L137.732 1089.24 L137.732 1093.17 L117.825 1093.17 L117.825 1089.24 Z" fill="#000000" fill-rule="nonzero" fill-opacity="1" /><path clip-path="url(#clip410)" d="M157.177 1061.69 Q153.566 1061.69 151.737 1065.26 Q149.931 1068.8 149.931 1075.93 Q149.931 1083.03 151.737 1086.6 Q153.566 1090.14 157.177 1090.14 Q160.811 1090.14 162.616 1086.6 Q164.445 1083.03 164.445 1075.93 Q164.445 1068.8 162.616 1065.26 Q160.811 1061.69 157.177 1061.69 M157.177 1057.99 Q162.987 1057.99 166.042 1062.59 Q169.121 1067.18 169.121 1075.93 Q169.121 1084.65 166.042 1089.26 Q162.987 1093.84 157.177 1093.84 Q151.366 1093.84 148.288 1089.26 Q145.232 1084.65 145.232 1075.93 Q145.232 1067.18 148.288 1062.59 Q151.366 1057.99 157.177 1057.99 Z" fill="#000000" fill-rule="nonzero" fill-opacity="1" /><path clip-path="url(#clip410)" d="M121.043 778.733 L137.362 778.733 L137.362 782.668 L115.418 782.668 L115.418 778.733 Q118.08 775.979 122.663 771.349 Q127.269 766.696 128.45 765.354 Q130.695 762.831 131.575 761.094 Q132.478 759.335 132.478 757.645 Q132.478 754.891 130.533 753.155 Q128.612 751.419 125.51 751.419 Q123.311 751.419 120.857 752.182 Q118.427 752.946 115.649 754.497 L115.649 749.775 Q118.473 748.641 120.927 748.062 Q123.38 747.483 125.418 747.483 Q130.788 747.483 133.982 750.169 Q137.177 752.854 137.177 757.344 Q137.177 759.474 136.367 761.395 Q135.579 763.294 133.473 765.886 Q132.894 766.557 129.792 769.775 Q126.691 772.969 121.043 778.733 Z" fill="#000000" fill-rule="nonzero" fill-opacity="1" /><path clip-path="url(#clip410)" d="M157.177 751.187 Q153.566 751.187 151.737 754.752 Q149.931 758.294 149.931 765.423 Q149.931 772.53 151.737 776.094 Q153.566 779.636 157.177 779.636 Q160.811 779.636 162.616 776.094 Q164.445 772.53 164.445 765.423 Q164.445 758.294 162.616 754.752 Q160.811 751.187 157.177 751.187 M157.177 747.483 Q162.987 747.483 166.042 752.09 Q169.121 756.673 169.121 765.423 Q169.121 774.15 166.042 778.756 Q162.987 783.34 157.177 783.34 Q151.366 783.34 148.288 778.756 Q145.232 774.15 145.232 765.423 Q145.232 756.673 148.288 752.09 Q151.366 747.483 157.177 747.483 Z" fill="#000000" fill-rule="nonzero" fill-opacity="1" /><path clip-path="url(#clip410)" d="M131.181 453.531 Q134.538 454.248 136.413 456.517 Q138.311 458.785 138.311 462.119 Q138.311 467.234 134.792 470.035 Q131.274 472.836 124.793 472.836 Q122.617 472.836 120.302 472.396 Q118.01 471.98 115.556 471.123 L115.556 466.609 Q117.501 467.744 119.816 468.322 Q122.13 468.901 124.654 468.901 Q129.052 468.901 131.343 467.165 Q133.658 465.429 133.658 462.119 Q133.658 459.063 131.505 457.35 Q129.376 455.614 125.556 455.614 L121.529 455.614 L121.529 451.771 L125.742 451.771 Q129.191 451.771 131.019 450.406 Q132.848 449.017 132.848 446.424 Q132.848 443.762 130.95 442.35 Q129.075 440.915 125.556 440.915 Q123.635 440.915 121.436 441.332 Q119.237 441.748 116.598 442.628 L116.598 438.461 Q119.26 437.721 121.575 437.35 Q123.913 436.98 125.973 436.98 Q131.297 436.98 134.399 439.41 Q137.501 441.818 137.501 445.938 Q137.501 448.808 135.857 450.799 Q134.214 452.767 131.181 453.531 Z" fill="#000000" fill-rule="nonzero" fill-opacity="1" /><path clip-path="url(#clip410)" d="M157.177 440.683 Q153.566 440.683 151.737 444.248 Q149.931 447.79 149.931 454.92 Q149.931 462.026 151.737 465.591 Q153.566 469.132 157.177 469.132 Q160.811 469.132 162.616 465.591 Q164.445 462.026 164.445 454.92 Q164.445 447.79 162.616 444.248 Q160.811 440.683 157.177 440.683 M157.177 436.98 Q162.987 436.98 166.042 441.586 Q169.121 446.17 169.121 454.92 Q169.121 463.646 166.042 468.253 Q162.987 472.836 157.177 472.836 Q151.366 472.836 148.288 468.253 Q145.232 463.646 145.232 454.92 Q145.232 446.17 148.288 441.586 Q151.366 436.98 157.177 436.98 Z" fill="#000000" fill-rule="nonzero" fill-opacity="1" /><path clip-path="url(#clip410)" d="M129.862 131.175 L118.056 149.624 L129.862 149.624 L129.862 131.175 M128.635 127.101 L134.515 127.101 L134.515 149.624 L139.445 149.624 L139.445 153.513 L134.515 153.513 L134.515 161.661 L129.862 161.661 L129.862 153.513 L114.26 153.513 L114.26 148.999 L128.635 127.101 Z" fill="#000000" fill-rule="nonzero" fill-opacity="1" /><path clip-path="url(#clip410)" d="M157.177 130.18 Q153.566 130.18 151.737 133.745 Q149.931 137.286 149.931 144.416 Q149.931 151.522 151.737 155.087 Q153.566 158.629 157.177 158.629 Q160.811 158.629 162.616 155.087 Q164.445 151.522 164.445 144.416 Q164.445 137.286 162.616 133.745 Q160.811 130.18 157.177 130.18 M157.177 126.476 Q162.987 126.476 166.042 131.083 Q169.121 135.666 169.121 144.416 Q169.121 153.143 166.042 157.749 Q162.987 162.332 157.177 162.332 Q151.366 162.332 148.288 157.749 Q145.232 153.143 145.232 144.416 Q145.232 135.666 148.288 131.083 Q151.366 126.476 157.177 126.476 Z" fill="#000000" fill-rule="nonzero" fill-opacity="1" /><path clip-path="url(#clip410)" d="M20.1444 820.225 L26.9239 820.225 Q23.9002 823.472 22.4043 827.164 Q20.9083 830.824 20.9083 834.962 Q20.9083 843.11 25.9054 847.439 Q30.8707 851.767 40.2919 851.767 Q49.6813 851.767 54.6784 847.439 Q59.6436 843.11 59.6436 834.962 Q59.6436 830.824 58.1477 827.164 Q56.6518 823.472 53.6281 820.225 L60.3439 820.225 Q62.6355 823.599 63.7814 827.387 Q64.9272 831.143 64.9272 835.344 Q64.9272 846.134 58.3387 852.34 Q51.7183 858.547 40.2919 858.547 Q28.8336 858.547 22.2451 852.34 Q15.6248 846.134 15.6248 835.344 Q15.6248 831.079 16.7706 827.323 Q17.8846 823.535 20.1444 820.225 Z" fill="#000000" fill-rule="nonzero" fill-opacity="1" /><path clip-path="url(#clip410)" d="M16.4842 816.883 L16.4842 776.684 L21.895 776.684 L21.895 793.553 L64.0042 793.553 L64.0042 800.014 L21.895 800.014 L21.895 816.883 L16.4842 816.883 Z" fill="#000000" fill-rule="nonzero" fill-opacity="1" /><path clip-path="url(#clip410)" d="M16.4842 770.477 L16.4842 761.82 L56.238 740.749 L16.4842 740.749 L16.4842 734.511 L64.0042 734.511 L64.0042 743.168 L24.2503 764.239 L64.0042 764.239 L64.0042 770.477 L16.4842 770.477 Z" fill="#000000" fill-rule="nonzero" fill-opacity="1" /><path clip-path="url(#clip410)" d="M16.4842 728.305 L16.4842 688.105 L21.895 688.105 L21.895 704.974 L64.0042 704.974 L64.0042 711.435 L21.895 711.435 L21.895 728.305 L16.4842 728.305 Z" fill="#000000" fill-rule="nonzero" fill-opacity="1" /><path clip-path="url(#clip410)" d="M917.618 17.6457 Q908.706 17.6457 903.44 24.2892 Q898.214 30.9327 898.214 42.3968 Q898.214 53.8203 903.44 60.4638 Q908.706 67.1073 917.618 67.1073 Q926.53 67.1073 931.715 60.4638 Q936.941 53.8203 936.941 42.3968 Q936.941 30.9327 931.715 24.2892 Q926.53 17.6457 917.618 17.6457 M917.618 11.0023 Q930.338 11.0023 937.954 19.5497 Q945.569 28.0566 945.569 42.3968 Q945.569 56.6965 937.954 65.2439 Q930.338 73.7508 917.618 73.7508 Q904.858 73.7508 897.201 65.2439 Q889.586 56.737 889.586 42.3968 Q889.586 28.0566 897.201 19.5497 Q904.858 11.0023 917.618 11.0023 Z" fill="#000000" fill-rule="nonzero" fill-opacity="1" /><path clip-path="url(#clip410)" d="M966.553 18.8205 L966.553 65.8515 L976.437 65.8515 Q988.954 65.8515 994.747 60.1802 Q1000.58 54.509 1000.58 42.2752 Q1000.58 30.1225 994.747 24.4918 Q988.954 18.8205 976.437 18.8205 L966.553 18.8205 M958.37 12.096 L975.181 12.096 Q992.762 12.096 1000.99 19.4281 Q1009.21 26.7198 1009.21 42.2752 Q1009.21 57.9117 1000.95 65.2439 Q992.681 72.576 975.181 72.576 L958.37 72.576 L958.37 12.096 Z" fill="#000000" fill-rule="nonzero" fill-opacity="1" /><path clip-path="url(#clip410)" d="M1022.25 12.096 L1060.49 12.096 L1060.49 18.9825 L1030.44 18.9825 L1030.44 36.8875 L1059.24 36.8875 L1059.24 43.7741 L1030.44 43.7741 L1030.44 65.6895 L1061.22 65.6895 L1061.22 72.576 L1022.25 72.576 L1022.25 12.096 Z" fill="#000000" fill-rule="nonzero" fill-opacity="1" /><path clip-path="url(#clip410)" d="M1096.95 46.5287 L1118.79 46.5287 L1118.79 53.1722 L1096.95 53.1722 L1096.95 46.5287 Z" fill="#000000" fill-rule="nonzero" fill-opacity="1" /><path clip-path="url(#clip410)" d="M1165.53 18.8205 L1165.53 41.5461 L1175.82 41.5461 Q1181.53 41.5461 1184.65 38.5889 Q1187.77 35.6318 1187.77 30.163 Q1187.77 24.7348 1184.65 21.7777 Q1181.53 18.8205 1175.82 18.8205 L1165.53 18.8205 M1157.35 12.096 L1175.82 12.096 Q1185.99 12.096 1191.18 16.714 Q1196.4 21.2916 1196.4 30.163 Q1196.4 39.1155 1191.18 43.6931 Q1185.99 48.2706 1175.82 48.2706 L1165.53 48.2706 L1165.53 72.576 L1157.35 72.576 L1157.35 12.096 Z" fill="#000000" fill-rule="nonzero" fill-opacity="1" /><path clip-path="url(#clip410)" d="M1223.95 49.7694 Q1214.91 49.7694 1211.43 51.8354 Q1207.95 53.9013 1207.95 58.8839 Q1207.95 62.8538 1210.54 65.2034 Q1213.17 67.5124 1217.67 67.5124 Q1223.87 67.5124 1227.59 63.1374 Q1231.36 58.7219 1231.36 51.4303 L1231.36 49.7694 L1223.95 49.7694 M1238.81 46.6907 L1238.81 72.576 L1231.36 72.576 L1231.36 65.6895 Q1228.81 69.8214 1225 71.8063 Q1221.19 73.7508 1215.68 73.7508 Q1208.72 73.7508 1204.58 69.8619 Q1200.49 65.9325 1200.49 59.3701 Q1200.49 51.7138 1205.6 47.825 Q1210.74 43.9361 1220.91 43.9361 L1231.36 43.9361 L1231.36 43.2069 Q1231.36 38.0623 1227.96 35.2672 Q1224.6 32.4315 1218.48 32.4315 Q1214.59 32.4315 1210.9 33.3632 Q1207.22 34.295 1203.81 36.1584 L1203.81 29.2718 Q1207.91 27.692 1211.75 26.9223 Q1215.6 26.1121 1219.25 26.1121 Q1229.09 26.1121 1233.95 31.2163 Q1238.81 36.3204 1238.81 46.6907 Z" fill="#000000" fill-rule="nonzero" fill-opacity="1" /><path clip-path="url(#clip410)" d="M1261.54 14.324 L1261.54 27.2059 L1276.89 27.2059 L1276.89 32.9987 L1261.54 32.9987 L1261.54 57.6282 Q1261.54 63.1779 1263.04 64.7578 Q1264.58 66.3376 1269.24 66.3376 L1276.89 66.3376 L1276.89 72.576 L1269.24 72.576 Q1260.61 72.576 1257.33 69.3758 Q1254.05 66.1351 1254.05 57.6282 L1254.05 32.9987 L1248.58 32.9987 L1248.58 27.2059 L1254.05 27.2059 L1254.05 14.324 L1261.54 14.324 Z" fill="#000000" fill-rule="nonzero" fill-opacity="1" /><path clip-path="url(#clip410)" d="M1286.7 27.2059 L1294.15 27.2059 L1294.15 72.576 L1286.7 72.576 L1286.7 27.2059 M1286.7 9.54393 L1294.15 9.54393 L1294.15 18.9825 L1286.7 18.9825 L1286.7 9.54393 Z" fill="#000000" fill-rule="nonzero" fill-opacity="1" /><path clip-path="url(#clip410)" d="M1348.55 48.0275 L1348.55 51.6733 L1314.28 51.6733 Q1314.77 59.3701 1318.9 63.421 Q1323.07 67.4314 1330.49 67.4314 Q1334.78 67.4314 1338.79 66.3781 Q1342.84 65.3249 1346.81 63.2184 L1346.81 70.267 Q1342.8 71.9684 1338.59 72.8596 Q1334.38 73.7508 1330.04 73.7508 Q1319.18 73.7508 1312.82 67.4314 Q1306.5 61.1119 1306.5 50.3365 Q1306.5 39.1965 1312.5 32.6746 Q1318.54 26.1121 1328.74 26.1121 Q1337.9 26.1121 1343.21 32.0264 Q1348.55 37.9003 1348.55 48.0275 M1341.1 45.84 Q1341.02 39.7232 1337.66 36.0774 Q1334.33 32.4315 1328.83 32.4315 Q1322.59 32.4315 1318.82 35.9558 Q1315.09 39.4801 1314.53 45.8805 L1341.1 45.84 Z" fill="#000000" fill-rule="nonzero" fill-opacity="1" /><path clip-path="url(#clip410)" d="M1398.5 45.1919 L1398.5 72.576 L1391.05 72.576 L1391.05 45.4349 Q1391.05 38.994 1388.54 35.7938 Q1386.02 32.5936 1381 32.5936 Q1374.97 32.5936 1371.48 36.4419 Q1368 40.2903 1368 46.9338 L1368 72.576 L1360.5 72.576 L1360.5 27.2059 L1368 27.2059 L1368 34.2544 Q1370.67 30.163 1374.28 28.1376 Q1377.92 26.1121 1382.66 26.1121 Q1390.48 26.1121 1394.49 30.9732 Q1398.5 35.7938 1398.5 45.1919 Z" fill="#000000" fill-rule="nonzero" fill-opacity="1" /><path clip-path="url(#clip410)" d="M1420.74 14.324 L1420.74 27.2059 L1436.09 27.2059 L1436.09 32.9987 L1420.74 32.9987 L1420.74 57.6282 Q1420.74 63.1779 1422.24 64.7578 Q1423.78 66.3376 1428.44 66.3376 L1436.09 66.3376 L1436.09 72.576 L1428.44 72.576 Q1419.81 72.576 1416.53 69.3758 Q1413.25 66.1351 1413.25 57.6282 L1413.25 32.9987 L1407.78 32.9987 L1407.78 27.2059 L1413.25 27.2059 L1413.25 14.324 L1420.74 14.324 Z" fill="#000000" fill-rule="nonzero" fill-opacity="1" /><path clip-path="url(#clip410)" d="M1509.98 45.1919 L1509.98 72.576 L1502.53 72.576 L1502.53 45.4349 Q1502.53 38.994 1500.02 35.7938 Q1497.5 32.5936 1492.48 32.5936 Q1486.45 32.5936 1482.96 36.4419 Q1479.48 40.2903 1479.48 46.9338 L1479.48 72.576 L1471.98 72.576 L1471.98 27.2059 L1479.48 27.2059 L1479.48 34.2544 Q1482.15 30.163 1485.76 28.1376 Q1489.4 26.1121 1494.14 26.1121 Q1501.96 26.1121 1505.97 30.9732 Q1509.98 35.7938 1509.98 45.1919 Z" fill="#000000" fill-rule="nonzero" fill-opacity="1" /><path clip-path="url(#clip410)" d="M1526.14 71.3202 L1526.14 63.8666 Q1529.22 65.3249 1532.38 66.0946 Q1535.54 66.8642 1538.58 66.8642 Q1546.68 66.8642 1550.94 61.436 Q1555.23 55.9673 1555.84 44.8678 Q1553.49 48.3516 1549.88 50.215 Q1546.28 52.0784 1541.9 52.0784 Q1532.83 52.0784 1527.52 46.6097 Q1522.26 41.1005 1522.26 31.5808 Q1522.26 22.2638 1527.77 16.633 Q1533.27 11.0023 1542.43 11.0023 Q1552.92 11.0023 1558.43 19.0636 Q1563.98 27.0843 1563.98 42.3968 Q1563.98 56.6965 1557.17 65.2439 Q1550.41 73.7508 1538.95 73.7508 Q1535.87 73.7508 1532.71 73.1431 Q1529.55 72.5355 1526.14 71.3202 M1542.43 45.678 Q1547.94 45.678 1551.14 41.9107 Q1554.38 38.1433 1554.38 31.5808 Q1554.38 25.0589 1551.14 21.2916 Q1547.94 17.4837 1542.43 17.4837 Q1536.92 17.4837 1533.68 21.2916 Q1530.48 25.0589 1530.48 31.5808 Q1530.48 38.1433 1533.68 41.9107 Q1536.92 45.678 1542.43 45.678 Z" fill="#000000" fill-rule="nonzero" fill-opacity="1" /><path clip-path="url(#clip410)" d="M1576.62 12.096 L1615.51 12.096 L1615.51 15.5798 L1593.55 72.576 L1585 72.576 L1605.66 18.9825 L1576.62 18.9825 L1576.62 12.096 Z" fill="#000000" fill-rule="nonzero" fill-opacity="1" /><path clip-path="url(#clip410)" d="M1629.4 12.096 L1668.29 12.096 L1668.29 15.5798 L1646.34 72.576 L1637.79 72.576 L1658.45 18.9825 L1629.4 18.9825 L1629.4 12.096 Z" fill="#000000" fill-rule="nonzero" fill-opacity="1" /><polyline clip-path="url(#clip412)" style="stroke:#009af9; stroke-linecap:round; stroke-linejoin:round; stroke-width:8; stroke-opacity:1; fill:none" points="205.121,160.256 207.271,160.256 209.421,160.256 211.57,160.256 213.72,160.256 215.87,160.256 218.02,160.256 220.169,160.256 222.319,160.256 224.469,160.256 226.619,160.256 228.769,160.256 230.918,160.256 233.068,160.256 235.218,160.256 237.368,160.256 239.518,160.256 241.667,160.256 243.817,160.257 245.967,160.257 248.117,160.257 250.266,160.257 252.416,160.257 254.566,160.257 256.716,160.257 258.866,160.257 261.015,160.257 263.165,160.258 265.315,160.258 267.465,160.258 269.615,160.258 271.764,160.258 273.914,160.259 276.064,160.259 278.214,160.259 280.363,160.26 282.513,160.26 284.663,160.261 286.813,160.261 288.963,160.262 291.112,160.263 293.262,160.263 295.412,160.264 297.562,160.265 299.712,160.266 301.861,160.267 304.011,160.268 306.161,160.269 308.311,160.27 310.46,160.271 312.61,160.272 314.76,160.274 316.91,160.275 319.06,160.277 321.209,160.279 323.359,160.28 325.509,160.282 327.659,160.284 329.808,160.286 331.958,160.289 334.108,160.291 336.258,160.294 338.408,160.296 340.557,160.299 342.707,160.302 344.857,160.305 347.007,160.308 349.157,160.312 351.306,160.316 353.456,160.319 355.606,160.323 357.756,160.327 359.905,160.332 362.055,160.336 364.205,160.341 366.355,160.346 368.505,160.351 370.654,160.357 372.804,160.363 374.954,160.368 377.104,160.375 379.254,160.381 381.403,160.388 383.553,160.395 385.703,160.402 387.853,160.41 390.002,160.418 392.152,160.426 394.302,160.434 396.452,160.443 398.602,160.452 400.751,160.462 402.901,160.471 405.051,160.482 407.201,160.492 409.351,160.503 411.5,160.515 413.65,160.526 415.8,160.538 417.95,160.551 420.099,160.564 422.249,160.577 424.399,160.591 426.549,160.606 428.699,160.62 430.848,160.636 432.998,160.651 435.148,160.668 437.298,160.684 439.448,160.702 441.597,160.72 443.747,160.738 445.897,160.757 448.047,160.776 450.196,160.796 452.346,160.817 454.496,160.838 456.646,160.86 458.796,160.883 460.945,160.906 463.095,160.93 465.245,160.954 467.395,160.979 469.544,161.005 471.694,161.032 473.844,161.059 475.994,161.087 478.144,161.116 480.293,161.145 482.443,161.176 484.593,161.207 486.743,161.239 488.893,161.271 491.042,161.305 493.192,161.339 495.342,161.374 497.492,161.41 499.641,161.447 501.791,161.485 503.941,161.524 506.091,161.564 508.241,161.605 510.39,161.646 512.54,161.689 514.69,161.733 516.84,161.777 518.99,161.823 521.139,161.87 523.289,161.918 525.439,161.967 527.589,162.017 529.738,162.068 531.888,162.12 534.038,162.173 536.188,162.228 538.338,162.284 540.487,162.341 542.637,162.399 544.787,162.458 546.937,162.519 549.087,162.581 551.236,162.644 553.386,162.709 555.536,162.775 557.686,162.842 559.835,162.911 561.985,162.981 564.135,163.052 566.285,163.125 568.435,163.199 570.584,163.275 572.734,163.352 574.884,163.431 577.034,163.511 579.184,163.593 581.333,163.676 583.483,163.761 585.633,163.848 587.783,163.936 589.932,164.025 592.082,164.117 594.232,164.21 596.382,164.305 598.532,164.402 600.681,164.5 602.831,164.6 604.981,164.702 607.131,164.806 609.281,164.911 611.43,165.019 613.58,165.128 615.73,165.239 617.88,165.352 620.029,165.467 622.179,165.584 624.329,165.703 626.479,165.824 628.629,165.947 630.778,166.073 632.928,166.2 635.078,166.329 637.228,166.461 639.377,166.594 641.527,166.73 643.677,166.868 645.827,167.008 647.977,167.151 650.126,167.295 652.276,167.442 654.426,167.592 656.576,167.743 658.726,167.897 660.875,168.054 663.025,168.213 665.175,168.374 667.325,168.538 669.474,168.704 671.624,168.873 673.774,169.044 675.924,169.218 678.074,169.394 680.223,169.573 682.373,169.755 684.523,169.94 686.673,170.127 688.823,170.316 690.972,170.509 693.122,170.704 695.272,170.902 697.422,171.103 699.571,171.307 701.721,171.513 703.871,171.723 706.021,171.935 708.171,172.151 710.32,172.369 712.47,172.59 714.62,172.814 716.77,173.042 718.92,173.272 721.069,173.506 723.219,173.742 725.369,173.982 727.519,174.225 729.668,174.471 731.818,174.721 733.968,174.974 736.118,175.23 738.268,175.489 740.417,175.751 742.567,176.017 744.717,176.287 746.867,176.559 749.017,176.836 751.166,177.115 753.316,177.399 755.466,177.685 757.616,177.975 759.765,178.269 761.915,178.567 764.065,178.868 766.215,179.172 768.365,179.481 770.514,179.793 772.664,180.109 774.814,180.428 776.964,180.752 779.113,181.079 781.263,181.41 783.413,181.745 785.563,182.084 787.713,182.427 789.862,182.773 792.012,183.124 794.162,183.479 796.312,183.837 798.462,184.2 800.611,184.567 802.761,184.938 804.911,185.313 807.061,185.692 809.21,186.076 811.36,186.463 813.51,186.855 815.66,187.251 817.81,187.652 819.959,188.056 822.109,188.465 824.259,188.879 826.409,189.297 828.559,189.719 830.708,190.145 832.858,190.576 835.008,191.012 837.158,191.452 839.307,191.897 841.457,192.346 843.607,192.8 845.757,193.258 847.907,193.721 850.056,194.189 852.206,194.661 854.356,195.138 856.506,195.62 858.656,196.106 860.805,196.598 862.955,197.094 865.105,197.595 867.255,198.1 869.404,198.611 871.554,199.126 873.704,199.647 875.854,200.172 878.004,200.703 880.153,201.238 882.303,201.778 884.453,202.324 886.603,202.874 888.753,203.429 890.902,203.99 893.052,204.555 895.202,205.126 897.352,205.702 899.501,206.283 901.651,206.869 903.801,207.461 905.951,208.058 908.101,208.66 910.25,209.267 912.4,209.879 914.55,210.497 916.7,211.12 918.85,211.749 920.999,212.383 923.149,213.022 925.299,213.667 927.449,214.317 929.598,214.972 931.748,215.633 933.898,216.3 936.048,216.972 938.198,217.649 940.347,218.333 942.497,219.021 944.647,219.715 946.797,220.415 948.946,221.12 951.096,221.831 953.246,222.548 955.396,223.27 957.546,223.998 959.695,224.731 961.845,225.47 963.995,226.215 966.145,226.966 968.295,227.722 970.444,228.484 972.594,229.251 974.744,230.025 976.894,230.804 979.043,231.589 981.193,232.38 983.343,233.176 985.493,233.978 987.643,234.786 989.792,235.6 991.942,236.42 994.092,237.245 996.242,238.076 998.392,238.914 1000.54,239.757 1002.69,240.605 1004.84,241.46 1006.99,242.321 1009.14,243.187 1011.29,244.059 1013.44,244.937 1015.59,245.821 1017.74,246.711 1019.89,247.607 1022.04,248.509 1024.19,249.416 1026.34,250.33 1028.49,251.249 1030.64,252.175 1032.79,253.106 1034.94,254.043 1037.09,254.986 1039.24,255.935 1041.39,256.89 1043.54,257.851 1045.69,258.817 1047.84,259.79 1049.99,260.768 1052.14,261.753 1054.29,262.743 1056.44,263.739 1058.59,264.741 1060.74,265.749 1062.89,266.763 1065.03,267.782 1067.18,268.808 1069.33,269.839 1071.48,270.876 1073.63,271.92 1075.78,272.968 1077.93,274.023 1080.08,275.084 1082.23,276.15 1084.38,277.222 1086.53,278.3 1088.68,279.384 1090.83,280.474 1092.98,281.569 1095.13,282.67 1097.28,283.777 1099.43,284.89 1101.58,286.008 1103.73,287.132 1105.88,288.262 1108.03,289.397 1110.18,290.538 1112.33,291.685 1114.48,292.837 1116.63,293.995 1118.78,295.159 1120.93,296.328 1123.08,297.503 1125.23,298.683 1127.38,299.869 1129.53,301.061 1131.68,302.258 1133.83,303.46 1135.98,304.668 1138.13,305.882 1140.28,307.1 1142.43,308.324 1144.58,309.554 1146.73,310.789 1148.88,312.029 1151.03,313.275 1153.18,314.526 1155.33,315.782 1157.48,317.043 1159.63,318.31 1161.78,319.581 1163.92,320.858 1166.07,322.14 1168.22,323.427 1170.37,324.72 1172.52,326.017 1174.67,327.319 1176.82,328.626 1178.97,329.939 1181.12,331.256 1183.27,332.578 1185.42,333.905 1187.57,335.237 1189.72,336.573 1191.87,337.914 1194.02,339.26 1196.17,340.611 1198.32,341.967 1200.47,343.327 1202.62,344.691 1204.77,346.061 1206.92,347.434 1209.07,348.813 1211.22,350.195 1213.37,351.582 1215.52,352.974 1217.67,354.37 1219.82,355.77 1221.97,357.174 1224.12,358.583 1226.27,359.995 1228.42,361.412 1230.57,362.833 1232.72,364.258 1234.87,365.687 1237.02,367.12 1239.17,368.557 1241.32,369.998 1243.47,371.443 1245.62,372.891 1247.77,374.343 1249.92,375.799 1252.07,377.259 1254.22,378.722 1256.37,380.188 1258.52,381.658 1260.67,383.132 1262.82,384.609 1264.96,386.09 1267.11,387.574 1269.26,389.061 1271.41,390.551 1273.56,392.045 1275.71,393.541 1277.86,395.041 1280.01,396.544 1282.16,398.05 1284.31,399.559 1286.46,401.071 1288.61,402.586 1290.76,404.104 1292.91,405.624 1295.06,407.147 1297.21,408.673 1299.36,410.202 1301.51,411.733 1303.66,413.267 1305.81,414.803 1307.96,416.342 1310.11,417.883 1312.26,419.427 1314.41,420.973 1316.56,422.521 1318.71,424.071 1320.86,425.624 1323.01,427.178 1325.16,428.735 1327.31,430.294 1329.46,431.854 1331.61,433.417 1333.76,434.982 1335.91,436.548 1338.06,438.116 1340.21,439.686 1342.36,441.257 1344.51,442.83 1346.66,444.405 1348.81,445.981 1350.96,447.558 1353.11,449.137 1355.26,450.718 1357.41,452.299 1359.56,453.882 1361.71,455.466 1363.85,457.051 1366,458.637 1368.15,460.224 1370.3,461.813 1372.45,463.402 1374.6,464.991 1376.75,466.582 1378.9,468.174 1381.05,469.766 1383.2,471.358 1385.35,472.952 1387.5,474.545 1389.65,476.14 1391.8,477.734 1393.95,479.329 1396.1,480.925 1398.25,482.52 1400.4,484.116 1402.55,485.711 1404.7,487.307 1406.85,488.903 1409,490.499 1411.15,492.094 1413.3,493.69 1415.45,495.285 1417.6,496.879 1419.75,498.474 1421.9,500.068 1424.05,501.661 1426.2,503.254 1428.35,504.846 1430.5,506.438 1432.65,508.029 1434.8,509.619 1436.95,511.208 1439.1,512.796 1441.25,514.384 1443.4,515.97 1445.55,517.555 1447.7,519.14 1449.85,520.723 1452,522.305 1454.15,523.886 1456.3,525.466 1458.45,527.045 1460.6,528.622 1462.75,530.198 1464.89,531.772 1467.04,533.345 1469.19,534.917 1471.34,536.487 1473.49,538.055 1475.64,539.622 1477.79,541.187 1479.94,542.751 1482.09,544.312 1484.24,545.872 1486.39,547.43 1488.54,548.986 1490.69,550.54 1492.84,552.092 1494.99,553.641 1497.14,555.189 1499.29,556.735 1501.44,558.278 1503.59,559.82 1505.74,561.358 1507.89,562.895 1510.04,564.429 1512.19,565.961 1514.34,567.491 1516.49,569.017 1518.64,570.542 1520.79,572.064 1522.94,573.583 1525.09,575.1 1527.24,576.614 1529.39,578.125 1531.54,579.633 1533.69,581.139 1535.84,582.642 1537.99,584.142 1540.14,585.639 1542.29,587.133 1544.44,588.625 1546.59,590.113 1548.74,591.598 1550.89,593.081 1553.04,594.56 1555.19,596.036 1557.34,597.509 1559.49,598.978 1561.64,600.445 1563.78,601.908 1565.93,603.368 1568.08,604.824 1570.23,606.278 1572.38,607.728 1574.53,609.174 1576.68,610.617 1578.83,612.057 1580.98,613.493 1583.13,614.926 1585.28,616.355 1587.43,617.781 1589.58,619.203 1591.73,620.622 1593.88,622.036 1596.03,623.448 1598.18,624.855 1600.33,626.259 1602.48,627.659 1604.63,629.056 1606.78,630.448 1608.93,631.837 1611.08,633.222 1613.23,634.603 1615.38,635.981 1617.53,637.354 1619.68,638.724 1621.83,640.09 1623.98,641.452 1626.13,642.81 1628.28,644.164 1630.43,645.514 1632.58,646.86 1634.73,648.202 1636.88,649.54 1639.03,650.874 1641.18,652.204 1643.33,653.53 1645.48,654.852 1647.63,656.169 1649.78,657.483 1651.93,658.793 1654.08,660.098 1656.23,661.402 1658.38,662.702 1660.53,664 1662.68,665.295 1664.82,666.587 1666.97,667.876 1669.12,669.162 1671.27,670.444 1673.42,671.724 1675.57,672.999 1677.72,674.271 1679.87,675.54 1682.02,676.805 1684.17,678.066 1686.32,679.323 1688.47,680.576 1690.62,681.826 1692.77,683.071 1694.92,684.312 1697.07,685.548 1699.22,686.781 1701.37,688.009 1703.52,689.233 1705.67,690.452 1707.82,691.667 1709.97,692.877 1712.12,694.083 1714.27,695.284 1716.42,696.48 1718.57,697.671 1720.72,698.858 1722.87,700.04 1725.02,701.217 1727.17,702.389 1729.32,703.556 1731.47,704.718 1733.62,705.876 1735.77,707.028 1737.92,708.175 1740.07,709.318 1742.22,710.455 1744.37,711.587 1746.52,712.714 1748.67,713.837 1750.82,714.954 1752.97,716.066 1755.12,717.173 1757.27,718.275 1759.42,719.372 1761.57,720.464 1763.71,721.551 1765.86,722.632 1768.01,723.709 1770.16,724.781 1772.31,725.848 1774.46,726.91 1776.61,727.967 1778.76,729.02 1780.91,730.067 1783.06,731.11 1785.21,732.148 1787.36,733.181 1789.51,734.209 1791.66,735.233 1793.81,736.253 1795.96,737.267 1798.11,738.278 1800.26,739.284 1802.41,740.285 1804.56,741.282 1806.71,742.275 1808.86,743.264 1811.01,744.249 1813.16,745.229 1815.31,746.206 1817.46,747.179 1819.61,748.148 1821.76,749.113 1823.91,750.074 1826.06,751.032 1828.21,751.987 1830.36,752.938 1832.51,753.886 1834.66,754.83 1836.81,755.772 1838.96,756.71 1841.11,757.646 1843.26,758.579 1845.41,759.509 1847.56,760.436 1849.71,761.362 1851.86,762.284 1854.01,763.205 1856.16,764.123 1858.31,765.04 1860.46,765.954 1862.6,766.867 1864.75,767.778 1866.9,768.688 1869.05,769.596 1871.2,770.504 1873.35,771.41 1875.5,772.315 1877.65,773.219 1879.8,774.12 1881.95,775.019 1884.1,775.916 1886.25,776.809 1888.4,777.7 1890.55,778.589 1892.7,779.474 1894.85,780.357 1897,781.236 1899.15,782.113 1901.3,782.987 1903.45,783.857 1905.6,784.725 1907.75,785.59 1909.9,786.451 1912.05,787.309 1914.2,788.164 1916.35,789.016 1918.5,789.865 1920.65,790.71 1922.8,791.552 1924.95,792.391 1927.1,793.227 1929.25,794.059 1931.4,794.888 1933.55,795.713 1935.7,796.536 1937.85,797.355 1940,798.17 1942.15,798.982 1944.3,799.791 1946.45,800.597 1948.6,801.4 1950.75,802.199 1952.9,802.994 1955.05,803.787 1957.2,804.576 1959.35,805.362 1961.5,806.145 1963.64,806.925 1965.79,807.702 1967.94,808.475 1970.09,809.246 1972.24,810.013 1974.39,810.778 1976.54,811.54 1978.69,812.298 1980.84,813.054 1982.99,813.807 1985.14,814.557 1987.29,815.305 1989.44,816.05 1991.59,816.792 1993.74,817.532 1995.89,818.269 1998.04,819.004 2000.19,819.737 2002.34,820.467 2004.49,821.195 2006.64,821.921 2008.79,822.645 2010.94,823.367 2013.09,824.087 2015.24,824.806 2017.39,825.522 2019.54,826.237 2021.69,826.951 2023.84,827.663 2025.99,828.374 2028.14,829.083 2030.29,829.791 2032.44,830.499 2034.59,831.205 2036.74,831.911 2038.89,832.615 2041.04,833.32 2043.19,834.023 2045.34,834.727 2047.49,835.43 2049.64,836.133 2051.79,836.835 2053.94,837.536 2056.09,838.236 2058.24,838.935 2060.39,839.632 2062.53,840.329 2064.68,841.024 2066.83,841.718 2068.98,842.41 2071.13,843.1 2073.28,843.789 2075.43,844.476 2077.58,845.161 2079.73,845.844 2081.88,846.525 2084.03,847.204 2086.18,847.881 2088.33,848.555 2090.48,849.227 2092.63,849.897 2094.78,850.565 2096.93,851.23 2099.08,851.892 2101.23,852.553 2103.38,853.21 2105.53,853.865 2107.68,854.518 2109.83,855.168 2111.98,855.815 2114.13,856.46 2116.28,857.102 2118.43,857.741 2120.58,858.378 2122.73,859.013 2124.88,859.644 2127.03,860.273 2129.18,860.9 2131.33,861.524 2133.48,862.145 2135.63,862.764 2137.78,863.381 2139.93,863.995 2142.08,864.606 2144.23,865.216 2146.38,865.823 2148.53,866.427 2150.68,867.03 2152.83,867.63 2154.98,868.229 2157.13,868.825 2159.28,869.419 2161.43,870.012 2163.57,870.603 2165.72,871.192 2167.87,871.779 2170.02,872.365 2172.17,872.95 2174.32,873.533 2176.47,874.115 2178.62,874.696 2180.77,875.276 2182.92,875.855 2185.07,876.433 2187.22,877.01 2189.37,877.587 2191.52,878.164 2193.67,878.74 2195.82,879.317 2197.97,879.893 2200.12,880.469 2202.27,881.046 2204.42,881.624 2206.57,882.201 2208.72,882.78 2210.87,883.36 2213.02,883.94 2215.17,884.522 2217.32,885.106 2219.47,885.691 2221.62,886.277 2223.77,886.862 2225.92,887.446 2228.07,888.029 2230.22,888.612 2232.37,889.193 2234.52,889.773 2236.67,890.352 2238.82,890.93 2240.97,891.507 2243.12,892.083 2245.27,892.657 2247.42,893.23 2249.57,893.802 2251.72,894.373 2253.87,894.942 2256.02,895.51 2258.17,896.077 2260.32,896.642 2262.46,897.206 2264.61,897.768 2266.76,898.329 2268.91,898.889 2271.06,899.447 2273.21,900.004 2275.36,900.559 2277.51,901.113 2279.66,901.666 2281.81,902.217 2283.96,902.767 2286.11,903.315 2288.26,903.862 2290.41,904.408 2292.56,904.952 2294.71,905.495 2296.86,906.037 2299.01,906.577 2301.16,907.117 2303.31,907.655 2305.46,908.191 2307.61,908.727 2309.76,909.261 2311.91,909.795 2314.06,910.327 2316.21,910.858 2318.36,911.388 2320.51,911.918 2322.66,912.446 2324.81,912.974 2326.96,913.5 2329.11,914.026 2331.26,914.552 2333.41,915.076 2335.56,915.6 2337.71,916.124 2339.86,916.647 2342.01,917.17 2344.16,917.692 2346.31,918.214 2348.46,918.736 2350.61,919.258 2352.76,919.78 "/>
<polyline clip-path="url(#clip412)" style="stroke:#e26f46; stroke-linecap:round; stroke-linejoin:round; stroke-width:8; stroke-opacity:1; fill:none" points="205.121,482.243 207.271,485.264 209.421,488.265 211.57,491.246 213.72,494.207 215.87,497.149 218.02,500.071 220.169,502.975 222.319,505.859 224.469,508.725 226.619,511.572 228.769,514.4 230.918,517.211 233.068,520.003 235.218,522.777 237.368,525.534 239.518,528.273 241.667,530.995 243.817,533.7 245.967,536.387 248.117,539.058 250.266,541.712 252.416,544.35 254.566,546.971 256.716,549.576 258.866,552.164 261.015,554.737 263.165,557.294 265.315,559.836 267.465,562.362 269.615,564.873 271.764,567.368 273.914,569.848 276.064,572.314 278.214,574.765 280.363,577.201 282.513,579.623 284.663,582.03 286.813,584.423 288.963,586.802 291.112,589.168 293.262,591.519 295.412,593.856 297.562,596.18 299.712,598.491 301.861,600.788 304.011,603.072 306.161,605.343 308.311,607.601 310.46,609.846 312.61,612.079 314.76,614.299 316.91,616.506 319.06,618.701 321.209,620.883 323.359,623.054 325.509,625.212 327.659,627.358 329.808,629.493 331.958,631.616 334.108,633.727 336.258,635.826 338.408,637.914 340.557,639.991 342.707,642.056 344.857,644.111 347.007,646.154 349.157,648.186 351.306,650.208 353.456,652.218 355.606,654.218 357.756,656.207 359.905,658.186 362.055,660.154 364.205,662.112 366.355,664.06 368.505,665.998 370.654,667.925 372.804,669.842 374.954,671.75 377.104,673.647 379.254,675.535 381.403,677.413 383.553,679.282 385.703,681.141 387.853,682.99 390.002,684.83 392.152,686.661 394.302,688.482 396.452,690.294 398.602,692.097 400.751,693.892 402.901,695.677 405.051,697.453 407.201,699.22 409.351,700.979 411.5,702.728 413.65,704.47 415.8,706.202 417.95,707.926 420.099,709.642 422.249,711.349 424.399,713.048 426.549,714.738 428.699,716.42 430.848,718.094 432.998,719.76 435.148,721.418 437.298,723.068 439.448,724.71 441.597,726.344 443.747,727.97 445.897,729.588 448.047,731.199 450.196,732.802 452.346,734.397 454.496,735.984 456.646,737.564 458.796,739.137 460.945,740.702 463.095,742.259 465.245,743.809 467.395,745.352 469.544,746.888 471.694,748.416 473.844,749.937 475.994,751.451 478.144,752.958 480.293,754.457 482.443,755.95 484.593,757.435 486.743,758.914 488.893,760.386 491.042,761.85 493.192,763.308 495.342,764.759 497.492,766.204 499.641,767.641 501.791,769.072 503.941,770.496 506.091,771.914 508.241,773.324 510.39,774.729 512.54,776.126 514.69,777.517 516.84,778.902 518.99,780.28 521.139,781.652 523.289,783.017 525.439,784.376 527.589,785.729 529.738,787.075 531.888,788.415 534.038,789.748 536.188,791.076 538.338,792.397 540.487,793.712 542.637,795.02 544.787,796.323 546.937,797.619 549.087,798.909 551.236,800.194 553.386,801.472 555.536,802.744 557.686,804.009 559.835,805.269 561.985,806.523 564.135,807.771 566.285,809.013 568.435,810.249 570.584,811.479 572.734,812.703 574.884,813.922 577.034,815.134 579.184,816.34 581.333,817.541 583.483,818.736 585.633,819.925 587.783,821.108 589.932,822.286 592.082,823.457 594.232,824.623 596.382,825.783 598.532,826.938 600.681,828.087 602.831,829.23 604.981,830.367 607.131,831.498 609.281,832.624 611.43,833.745 613.58,834.859 615.73,835.968 617.88,837.072 620.029,838.17 622.179,839.262 624.329,840.348 626.479,841.429 628.629,842.504 630.778,843.574 632.928,844.638 635.078,845.697 637.228,846.75 639.377,847.797 641.527,848.839 643.677,849.876 645.827,850.906 647.977,851.932 650.126,852.951 652.276,853.966 654.426,854.974 656.576,855.977 658.726,856.975 660.875,857.967 663.025,858.953 665.175,859.934 667.325,860.91 669.474,861.88 671.624,862.844 673.774,863.803 675.924,864.757 678.074,865.705 680.223,866.647 682.373,867.584 684.523,868.516 686.673,869.442 688.823,870.362 690.972,871.277 693.122,872.187 695.272,873.091 697.422,873.989 699.571,874.882 701.721,875.77 703.871,876.652 706.021,877.528 708.171,878.399 710.32,879.265 712.47,880.125 714.62,880.979 716.77,881.828 718.92,882.672 721.069,883.51 723.219,884.342 725.369,885.169 727.519,885.991 729.668,886.807 731.818,887.617 733.968,888.422 736.118,889.222 738.268,890.016 740.417,890.804 742.567,891.587 744.717,892.364 746.867,893.136 749.017,893.902 751.166,894.663 753.316,895.418 755.466,896.168 757.616,896.912 759.765,897.65 761.915,898.383 764.065,899.11 766.215,899.832 768.365,900.548 770.514,901.259 772.664,901.963 774.814,902.663 776.964,903.356 779.113,904.045 781.263,904.727 783.413,905.404 785.563,906.075 787.713,906.74 789.862,907.4 792.012,908.055 794.162,908.703 796.312,909.346 798.462,909.983 800.611,910.615 802.761,911.241 804.911,911.861 807.061,912.476 809.21,913.084 811.36,913.688 813.51,914.285 815.66,914.877 817.81,915.463 819.959,916.043 822.109,916.618 824.259,917.187 826.409,917.75 828.559,918.307 830.708,918.859 832.858,919.405 835.008,919.945 837.158,920.479 839.307,921.008 841.457,921.531 843.607,922.048 845.757,922.559 847.907,923.065 850.056,923.565 852.206,924.059 854.356,924.547 856.506,925.029 858.656,925.506 860.805,925.977 862.955,926.442 865.105,926.901 867.255,927.355 869.404,927.802 871.554,928.244 873.704,928.68 875.854,929.11 878.004,929.535 880.153,929.953 882.303,930.366 884.453,930.773 886.603,931.174 888.753,931.569 890.902,931.958 893.052,932.342 895.202,932.719 897.352,933.091 899.501,933.457 901.651,933.817 903.801,934.171 905.951,934.52 908.101,934.862 910.25,935.199 912.4,935.529 914.55,935.854 916.7,936.173 918.85,936.486 920.999,936.794 923.149,937.095 925.299,937.39 927.449,937.68 929.598,937.964 931.748,938.241 933.898,938.513 936.048,938.779 938.198,939.04 940.347,939.294 942.497,939.542 944.647,939.785 946.797,940.022 948.946,940.252 951.096,940.477 953.246,940.696 955.396,940.91 957.546,941.117 959.695,941.318 961.845,941.514 963.995,941.704 966.145,941.888 968.295,942.066 970.444,942.238 972.594,942.405 974.744,942.565 976.894,942.72 979.043,942.869 981.193,943.013 983.343,943.15 985.493,943.282 987.643,943.408 989.792,943.528 991.942,943.642 994.092,943.751 996.242,943.854 998.392,943.951 1000.54,944.042 1002.69,944.128 1004.84,944.208 1006.99,944.282 1009.14,944.351 1011.29,944.414 1013.44,944.471 1015.59,944.523 1017.74,944.569 1019.89,944.609 1022.04,944.644 1024.19,944.673 1026.34,944.696 1028.49,944.714 1030.64,944.727 1032.79,944.734 1034.94,944.735 1037.09,944.731 1039.24,944.721 1041.39,944.706 1043.54,944.685 1045.69,944.659 1047.84,944.628 1049.99,944.591 1052.14,944.548 1054.29,944.501 1056.44,944.448 1058.59,944.389 1060.74,944.325 1062.89,944.256 1065.03,944.182 1067.18,944.102 1069.33,944.017 1071.48,943.927 1073.63,943.832 1075.78,943.731 1077.93,943.626 1080.08,943.515 1082.23,943.399 1084.38,943.278 1086.53,943.152 1088.68,943.02 1090.83,942.884 1092.98,942.742 1095.13,942.596 1097.28,942.445 1099.43,942.288 1101.58,942.127 1103.73,941.961 1105.88,941.79 1108.03,941.614 1110.18,941.433 1112.33,941.247 1114.48,941.057 1116.63,940.862 1118.78,940.662 1120.93,940.457 1123.08,940.248 1125.23,940.034 1127.38,939.815 1129.53,939.592 1131.68,939.364 1133.83,939.132 1135.98,938.895 1138.13,938.654 1140.28,938.409 1142.43,938.158 1144.58,937.904 1146.73,937.645 1148.88,937.382 1151.03,937.115 1153.18,936.843 1155.33,936.567 1157.48,936.287 1159.63,936.003 1161.78,935.715 1163.92,935.423 1166.07,935.126 1168.22,934.826 1170.37,934.522 1172.52,934.213 1174.67,933.901 1176.82,933.585 1178.97,933.266 1181.12,932.942 1183.27,932.615 1185.42,932.284 1187.57,931.949 1189.72,931.611 1191.87,931.269 1194.02,930.924 1196.17,930.575 1198.32,930.223 1200.47,929.867 1202.62,929.508 1204.77,929.146 1206.92,928.781 1209.07,928.412 1211.22,928.04 1213.37,927.665 1215.52,927.287 1217.67,926.905 1219.82,926.521 1221.97,926.134 1224.12,925.744 1226.27,925.351 1228.42,924.955 1230.57,924.557 1232.72,924.156 1234.87,923.752 1237.02,923.346 1239.17,922.937 1241.32,922.525 1243.47,922.111 1245.62,921.695 1247.77,921.276 1249.92,920.855 1252.07,920.432 1254.22,920.007 1256.37,919.579 1258.52,919.149 1260.67,918.717 1262.82,918.284 1264.96,917.848 1267.11,917.41 1269.26,916.97 1271.41,916.529 1273.56,916.085 1275.71,915.64 1277.86,915.193 1280.01,914.744 1282.16,914.294 1284.31,913.842 1286.46,913.389 1288.61,912.934 1290.76,912.478 1292.91,912.02 1295.06,911.561 1297.21,911.1 1299.36,910.639 1301.51,910.176 1303.66,909.712 1305.81,909.247 1307.96,908.78 1310.11,908.313 1312.26,907.845 1314.41,907.376 1316.56,906.905 1318.71,906.435 1320.86,905.963 1323.01,905.49 1325.16,905.017 1327.31,904.543 1329.46,904.069 1331.61,903.594 1333.76,903.119 1335.91,902.643 1338.06,902.167 1340.21,901.69 1342.36,901.213 1344.51,900.736 1346.66,900.259 1348.81,899.781 1350.96,899.304 1353.11,898.826 1355.26,898.349 1357.41,897.871 1359.56,897.394 1361.71,896.917 1363.85,896.44 1366,895.963 1368.15,895.486 1370.3,895.01 1372.45,894.535 1374.6,894.059 1376.75,893.585 1378.9,893.111 1381.05,892.637 1383.2,892.165 1385.35,891.692 1387.5,891.221 1389.65,890.751 1391.8,890.281 1393.95,889.813 1396.1,889.345 1398.25,888.879 1400.4,888.413 1402.55,887.949 1404.7,887.486 1406.85,887.025 1409,886.564 1411.15,886.105 1413.3,885.648 1415.45,885.192 1417.6,884.737 1419.75,884.284 1421.9,883.833 1424.05,883.383 1426.2,882.936 1428.35,882.49 1430.5,882.046 1432.65,881.604 1434.8,881.163 1436.95,880.725 1439.1,880.289 1441.25,879.856 1443.4,879.424 1445.55,878.994 1447.7,878.567 1449.85,878.142 1452,877.718 1454.15,877.298 1456.3,876.879 1458.45,876.463 1460.6,876.049 1462.75,875.637 1464.89,875.228 1467.04,874.821 1469.19,874.417 1471.34,874.015 1473.49,873.616 1475.64,873.22 1477.79,872.826 1479.94,872.435 1482.09,872.046 1484.24,871.661 1486.39,871.278 1488.54,870.898 1490.69,870.521 1492.84,870.147 1494.99,869.776 1497.14,869.408 1499.29,869.043 1501.44,868.68 1503.59,868.321 1505.74,867.965 1507.89,867.613 1510.04,867.263 1512.19,866.917 1514.34,866.573 1516.49,866.234 1518.64,865.897 1520.79,865.564 1522.94,865.234 1525.09,864.907 1527.24,864.584 1529.39,864.264 1531.54,863.948 1533.69,863.635 1535.84,863.326 1537.99,863.02 1540.14,862.717 1542.29,862.419 1544.44,862.124 1546.59,861.832 1548.74,861.544 1550.89,861.26 1553.04,860.98 1555.19,860.703 1557.34,860.43 1559.49,860.16 1561.64,859.895 1563.78,859.633 1565.93,859.375 1568.08,859.121 1570.23,858.87 1572.38,858.624 1574.53,858.381 1576.68,858.142 1578.83,857.907 1580.98,857.676 1583.13,857.449 1585.28,857.226 1587.43,857.007 1589.58,856.792 1591.73,856.58 1593.88,856.373 1596.03,856.17 1598.18,855.97 1600.33,855.775 1602.48,855.584 1604.63,855.397 1606.78,855.214 1608.93,855.034 1611.08,854.859 1613.23,854.688 1615.38,854.522 1617.53,854.359 1619.68,854.2 1621.83,854.045 1623.98,853.895 1626.13,853.748 1628.28,853.606 1630.43,853.468 1632.58,853.333 1634.73,853.203 1636.88,853.077 1639.03,852.956 1641.18,852.838 1643.33,852.724 1645.48,852.615 1647.63,852.51 1649.78,852.408 1651.93,852.311 1654.08,852.218 1656.23,852.127 1658.38,852.038 1660.53,851.951 1662.68,851.868 1664.82,851.786 1666.97,851.708 1669.12,851.633 1671.27,851.56 1673.42,851.491 1675.57,851.425 1677.72,851.362 1679.87,851.303 1682.02,851.247 1684.17,851.195 1686.32,851.146 1688.47,851.101 1690.62,851.06 1692.77,851.022 1694.92,850.989 1697.07,850.96 1699.22,850.934 1701.37,850.913 1703.52,850.896 1705.67,850.884 1707.82,850.875 1709.97,850.871 1712.12,850.872 1714.27,850.876 1716.42,850.886 1718.57,850.9 1720.72,850.918 1722.87,850.941 1725.02,850.969 1727.17,851.001 1729.32,851.038 1731.47,851.08 1733.62,851.126 1735.77,851.177 1737.92,851.233 1740.07,851.294 1742.22,851.359 1744.37,851.429 1746.52,851.504 1748.67,851.584 1750.82,851.668 1752.97,851.758 1755.12,851.852 1757.27,851.95 1759.42,852.054 1761.57,852.162 1763.71,852.275 1765.86,852.392 1768.01,852.514 1770.16,852.641 1772.31,852.772 1774.46,852.908 1776.61,853.048 1778.76,853.193 1780.91,853.342 1783.06,853.495 1785.21,853.653 1787.36,853.815 1789.51,853.981 1791.66,854.151 1793.81,854.326 1795.96,854.504 1798.11,854.686 1800.26,854.872 1802.41,855.062 1804.56,855.256 1806.71,855.453 1808.86,855.654 1811.01,855.858 1813.16,856.066 1815.31,856.277 1817.46,856.491 1819.61,856.708 1821.76,856.929 1823.91,857.152 1826.06,857.377 1828.21,857.606 1830.36,857.837 1832.51,858.071 1834.66,858.307 1836.81,858.545 1838.96,858.785 1841.11,859.027 1843.26,859.271 1845.41,859.517 1847.56,859.764 1849.71,860.013 1851.86,860.262 1854.01,860.514 1856.16,860.766 1858.31,861.019 1860.46,861.272 1862.6,861.526 1864.75,861.781 1866.9,862.036 1869.05,862.291 1871.2,862.545 1873.35,862.8 1875.5,863.054 1877.65,863.308 1879.8,863.564 1881.95,863.821 1884.1,864.079 1886.25,864.34 1888.4,864.602 1890.55,864.866 1892.7,865.132 1894.85,865.399 1897,865.669 1899.15,865.94 1901.3,866.214 1903.45,866.49 1905.6,866.768 1907.75,867.048 1909.9,867.33 1912.05,867.614 1914.2,867.901 1916.35,868.19 1918.5,868.482 1920.65,868.775 1922.8,869.071 1924.95,869.37 1927.1,869.671 1929.25,869.974 1931.4,870.279 1933.55,870.587 1935.7,870.898 1937.85,871.211 1940,871.526 1942.15,871.843 1944.3,872.164 1946.45,872.486 1948.6,872.811 1950.75,873.138 1952.9,873.468 1955.05,873.799 1957.2,874.134 1959.35,874.47 1961.5,874.809 1963.64,875.15 1965.79,875.493 1967.94,875.838 1970.09,876.185 1972.24,876.535 1974.39,876.886 1976.54,877.239 1978.69,877.595 1980.84,877.952 1982.99,878.311 1985.14,878.672 1987.29,879.034 1989.44,879.398 1991.59,879.764 1993.74,880.131 1995.89,880.5 1998.04,880.869 2000.19,881.241 2002.34,881.613 2004.49,881.987 2006.64,882.361 2008.79,882.737 2010.94,883.113 2013.09,883.49 2015.24,883.868 2017.39,884.246 2019.54,884.625 2021.69,885.005 2023.84,885.384 2025.99,885.764 2028.14,886.143 2030.29,886.523 2032.44,886.902 2034.59,887.282 2036.74,887.66 2038.89,888.039 2041.04,888.416 2043.19,888.793 2045.34,889.168 2047.49,889.543 2049.64,889.917 2051.79,890.291 2053.94,890.664 2056.09,891.037 2058.24,891.41 2060.39,891.783 2062.53,892.156 2064.68,892.53 2066.83,892.903 2068.98,893.277 2071.13,893.652 2073.28,894.028 2075.43,894.404 2077.58,894.781 2079.73,895.159 2081.88,895.537 2084.03,895.917 2086.18,896.299 2088.33,896.681 2090.48,897.064 2092.63,897.449 2094.78,897.836 2096.93,898.223 2099.08,898.612 2101.23,899.003 2103.38,899.395 2105.53,899.789 2107.68,900.184 2109.83,900.581 2111.98,900.98 2114.13,901.38 2116.28,901.782 2118.43,902.186 2120.58,902.591 2122.73,902.998 2124.88,903.407 2127.03,903.817 2129.18,904.229 2131.33,904.642 2133.48,905.057 2135.63,905.474 2137.78,905.892 2139.93,906.311 2142.08,906.732 2144.23,907.155 2146.38,907.578 2148.53,908.003 2150.68,908.429 2152.83,908.857 2154.98,909.285 2157.13,909.714 2159.28,910.145 2161.43,910.576 2163.57,911.008 2165.72,911.44 2167.87,911.873 2170.02,912.307 2172.17,912.741 2174.32,913.175 2176.47,913.61 2178.62,914.044 2180.77,914.478 2182.92,914.913 2185.07,915.346 2187.22,915.78 2189.37,916.212 2191.52,916.644 2193.67,917.075 2195.82,917.505 2197.97,917.934 2200.12,918.361 2202.27,918.787 2204.42,919.211 2206.57,919.633 2208.72,920.053 2210.87,920.471 2213.02,920.887 2215.17,921.3 2217.32,921.71 2219.47,922.117 2221.62,922.522 2223.77,922.927 2225.92,923.331 2228.07,923.736 2230.22,924.14 2232.37,924.545 2234.52,924.949 2236.67,925.354 2238.82,925.758 2240.97,926.163 2243.12,926.568 2245.27,926.973 2247.42,927.379 2249.57,927.784 2251.72,928.19 2253.87,928.597 2256.02,929.003 2258.17,929.41 2260.32,929.818 2262.46,930.225 2264.61,930.633 2266.76,931.042 2268.91,931.451 2271.06,931.861 2273.21,932.271 2275.36,932.681 2277.51,933.092 2279.66,933.503 2281.81,933.915 2283.96,934.327 2286.11,934.739 2288.26,935.152 2290.41,935.566 2292.56,935.979 2294.71,936.393 2296.86,936.808 2299.01,937.223 2301.16,937.638 2303.31,938.053 2305.46,938.468 2307.61,938.884 2309.76,939.3 2311.91,939.716 2314.06,940.132 2316.21,940.548 2318.36,940.964 2320.51,941.381 2322.66,941.797 2324.81,942.212 2326.96,942.628 2329.11,943.044 2331.26,943.459 2333.41,943.874 2335.56,944.288 2337.71,944.702 2339.86,945.115 2342.01,945.528 2344.16,945.94 2346.31,946.351 2348.46,946.761 2350.61,947.171 2352.76,947.579 "/>
<polyline clip-path="url(#clip412)" style="stroke:#3da44d; stroke-linecap:round; stroke-linejoin:round; stroke-width:8; stroke-opacity:1; fill:none" points="205.121,1386.4 207.271,1383.38 209.421,1380.41 211.57,1377.48 213.72,1374.59 215.87,1371.73 218.02,1368.91 220.169,1366.13 222.319,1363.39 224.469,1360.68 226.619,1358.01 228.769,1355.37 230.918,1352.77 233.068,1350.21 235.218,1347.68 237.368,1345.18 239.518,1342.72 241.667,1340.29 243.817,1337.89 245.967,1335.53 248.117,1333.2 250.266,1330.89 252.416,1328.63 254.566,1326.39 256.716,1324.18 258.866,1322 261.015,1319.86 263.165,1317.74 265.315,1315.65 267.465,1313.59 269.615,1311.56 271.764,1309.56 273.914,1307.58 276.064,1305.64 278.214,1303.72 280.363,1301.82 282.513,1299.96 284.663,1298.12 286.813,1296.3 288.963,1294.52 291.112,1292.75 293.262,1291.02 295.412,1289.3 297.562,1287.62 299.712,1285.95 301.861,1284.31 304.011,1282.7 306.161,1281.1 308.311,1279.54 310.46,1277.99 312.61,1276.47 314.76,1274.96 316.91,1273.49 319.06,1272.03 321.209,1270.59 323.359,1269.18 325.509,1267.78 327.659,1266.41 329.808,1265.06 331.958,1263.73 334.108,1262.42 336.258,1261.13 338.408,1259.85 340.557,1258.6 342.707,1257.37 344.857,1256.15 347.007,1254.96 349.157,1253.78 351.306,1252.62 353.456,1251.48 355.606,1250.36 357.756,1249.26 359.905,1248.17 362.055,1247.1 364.205,1246.04 366.355,1245.01 368.505,1243.99 370.654,1242.98 372.804,1242 374.954,1241.03 377.104,1240.07 379.254,1239.13 381.403,1238.21 383.553,1237.3 385.703,1236.41 387.853,1235.53 390.002,1234.66 392.152,1233.81 394.302,1232.98 396.452,1232.16 398.602,1231.35 400.751,1230.56 402.901,1229.78 405.051,1229.02 407.201,1228.26 409.351,1227.53 411.5,1226.8 413.65,1226.09 415.8,1225.39 417.95,1224.7 420.099,1224.03 422.249,1223.36 424.399,1222.71 426.549,1222.08 428.699,1221.45 430.848,1220.83 432.998,1220.23 435.148,1219.64 437.298,1219.06 439.448,1218.49 441.597,1217.93 443.747,1217.39 445.897,1216.85 448.047,1216.32 450.196,1215.81 452.346,1215.31 454.496,1214.81 456.646,1214.33 458.796,1213.85 460.945,1213.39 463.095,1212.93 465.245,1212.49 467.395,1212.05 469.544,1211.63 471.694,1211.21 473.844,1210.8 475.994,1210.4 478.144,1210.02 480.293,1209.63 482.443,1209.26 484.593,1208.9 486.743,1208.54 488.893,1208.2 491.042,1207.86 493.192,1207.53 495.342,1207.21 497.492,1206.89 499.641,1206.59 501.791,1206.29 503.941,1206 506.091,1205.72 508.241,1205.44 510.39,1205.17 512.54,1204.91 514.69,1204.66 516.84,1204.41 518.99,1204.17 521.139,1203.94 523.289,1203.71 525.439,1203.5 527.589,1203.28 529.738,1203.08 531.888,1202.88 534.038,1202.69 536.188,1202.5 538.338,1202.32 540.487,1202.14 542.637,1201.98 544.787,1201.82 546.937,1201.66 549.087,1201.51 551.236,1201.36 553.386,1201.23 555.536,1201.09 557.686,1200.97 559.835,1200.84 561.985,1200.73 564.135,1200.62 566.285,1200.51 568.435,1200.41 570.584,1200.31 572.734,1200.22 574.884,1200.14 577.034,1200.06 579.184,1199.98 581.333,1199.91 583.483,1199.84 585.633,1199.78 587.783,1199.72 589.932,1199.67 592.082,1199.62 594.232,1199.58 596.382,1199.54 598.532,1199.5 600.681,1199.47 602.831,1199.44 604.981,1199.42 607.131,1199.4 609.281,1199.39 611.43,1199.37 613.58,1199.37 615.73,1199.36 617.88,1199.36 620.029,1199.37 622.179,1199.37 624.329,1199.39 626.479,1199.4 628.629,1199.42 630.778,1199.44 632.928,1199.46 635.078,1199.49 637.228,1199.52 639.377,1199.56 641.527,1199.59 643.677,1199.63 645.827,1199.68 647.977,1199.72 650.126,1199.77 652.276,1199.83 654.426,1199.88 656.576,1199.94 658.726,1200 660.875,1200.06 663.025,1200.13 665.175,1200.2 667.325,1200.27 669.474,1200.35 671.624,1200.42 673.774,1200.5 675.924,1200.58 678.074,1200.67 680.223,1200.75 682.373,1200.84 684.523,1200.93 686.673,1201.02 688.823,1201.12 690.972,1201.22 693.122,1201.32 695.272,1201.42 697.422,1201.52 699.571,1201.63 701.721,1201.73 703.871,1201.84 706.021,1201.96 708.171,1202.07 710.32,1202.18 712.47,1202.3 714.62,1202.42 716.77,1202.54 718.92,1202.66 721.069,1202.78 723.219,1202.91 725.369,1203.03 727.519,1203.16 729.668,1203.29 731.818,1203.42 733.968,1203.55 736.118,1203.69 738.268,1203.82 740.417,1203.96 742.567,1204.09 744.717,1204.23 746.867,1204.37 749.017,1204.51 751.166,1204.66 753.316,1204.8 755.466,1204.94 757.616,1205.09 759.765,1205.24 761.915,1205.38 764.065,1205.53 766.215,1205.68 768.365,1205.83 770.514,1205.98 772.664,1206.13 774.814,1206.29 776.964,1206.44 779.113,1206.6 781.263,1206.75 783.413,1206.91 785.563,1207.06 787.713,1207.22 789.862,1207.38 792.012,1207.54 794.162,1207.7 796.312,1207.86 798.462,1208.02 800.611,1208.18 802.761,1208.34 804.911,1208.5 807.061,1208.67 809.21,1208.83 811.36,1208.99 813.51,1209.16 815.66,1209.32 817.81,1209.49 819.959,1209.65 822.109,1209.82 824.259,1209.98 826.409,1210.15 828.559,1210.32 830.708,1210.48 832.858,1210.65 835.008,1210.82 837.158,1210.98 839.307,1211.15 841.457,1211.32 843.607,1211.49 845.757,1211.65 847.907,1211.82 850.056,1211.99 852.206,1212.16 854.356,1212.32 856.506,1212.49 858.656,1212.66 860.805,1212.83 862.955,1212.99 865.105,1213.16 867.255,1213.33 869.404,1213.49 871.554,1213.66 873.704,1213.83 875.854,1213.99 878.004,1214.16 880.153,1214.33 882.303,1214.49 884.453,1214.66 886.603,1214.82 888.753,1214.99 890.902,1215.15 893.052,1215.32 895.202,1215.48 897.352,1215.64 899.501,1215.81 901.651,1215.97 903.801,1216.13 905.951,1216.29 908.101,1216.45 910.25,1216.61 912.4,1216.77 914.55,1216.93 916.7,1217.09 918.85,1217.25 920.999,1217.41 923.149,1217.57 925.299,1217.73 927.449,1217.88 929.598,1218.04 931.748,1218.2 933.898,1218.35 936.048,1218.5 938.198,1218.66 940.347,1218.81 942.497,1218.96 944.647,1219.12 946.797,1219.27 948.946,1219.42 951.096,1219.57 953.246,1219.72 955.396,1219.86 957.546,1220.01 959.695,1220.16 961.845,1220.3 963.995,1220.45 966.145,1220.59 968.295,1220.74 970.444,1220.88 972.594,1221.02 974.744,1221.16 976.894,1221.3 979.043,1221.44 981.193,1221.58 983.343,1221.72 985.493,1221.86 987.643,1221.99 989.792,1222.13 991.942,1222.26 994.092,1222.39 996.242,1222.53 998.392,1222.66 1000.54,1222.79 1002.69,1222.92 1004.84,1223.05 1006.99,1223.17 1009.14,1223.3 1011.29,1223.42 1013.44,1223.55 1015.59,1223.67 1017.74,1223.79 1019.89,1223.92 1022.04,1224.04 1024.19,1224.15 1026.34,1224.27 1028.49,1224.39 1030.64,1224.51 1032.79,1224.62 1034.94,1224.73 1037.09,1224.85 1039.24,1224.96 1041.39,1225.07 1043.54,1225.18 1045.69,1225.28 1047.84,1225.39 1049.99,1225.5 1052.14,1225.6 1054.29,1225.7 1056.44,1225.8 1058.59,1225.9 1060.74,1226 1062.89,1226.1 1065.03,1226.2 1067.18,1226.29 1069.33,1226.39 1071.48,1226.48 1073.63,1226.57 1075.78,1226.67 1077.93,1226.75 1080.08,1226.84 1082.23,1226.93 1084.38,1227.02 1086.53,1227.1 1088.68,1227.18 1090.83,1227.27 1092.98,1227.35 1095.13,1227.43 1097.28,1227.5 1099.43,1227.58 1101.58,1227.66 1103.73,1227.73 1105.88,1227.8 1108.03,1227.87 1110.18,1227.95 1112.33,1228.01 1114.48,1228.08 1116.63,1228.15 1118.78,1228.21 1120.93,1228.28 1123.08,1228.34 1125.23,1228.4 1127.38,1228.46 1129.53,1228.52 1131.68,1228.58 1133.83,1228.63 1135.98,1228.69 1138.13,1228.74 1140.28,1228.79 1142.43,1228.85 1144.58,1228.89 1146.73,1228.94 1148.88,1228.99 1151.03,1229.04 1153.18,1229.08 1155.33,1229.12 1157.48,1229.16 1159.63,1229.2 1161.78,1229.24 1163.92,1229.28 1166.07,1229.32 1168.22,1229.35 1170.37,1229.39 1172.52,1229.42 1174.67,1229.45 1176.82,1229.48 1178.97,1229.51 1181.12,1229.53 1183.27,1229.56 1185.42,1229.58 1187.57,1229.61 1189.72,1229.63 1191.87,1229.65 1194.02,1229.67 1196.17,1229.68 1198.32,1229.7 1200.47,1229.71 1202.62,1229.73 1204.77,1229.74 1206.92,1229.75 1209.07,1229.76 1211.22,1229.77 1213.37,1229.78 1215.52,1229.78 1217.67,1229.79 1219.82,1229.79 1221.97,1229.79 1224.12,1229.79 1226.27,1229.79 1228.42,1229.79 1230.57,1229.78 1232.72,1229.78 1234.87,1229.77 1237.02,1229.76 1239.17,1229.75 1241.32,1229.74 1243.47,1229.73 1245.62,1229.72 1247.77,1229.7 1249.92,1229.69 1252.07,1229.67 1254.22,1229.65 1256.37,1229.63 1258.52,1229.61 1260.67,1229.59 1262.82,1229.57 1264.96,1229.54 1267.11,1229.52 1269.26,1229.49 1271.41,1229.46 1273.56,1229.43 1275.71,1229.4 1277.86,1229.37 1280.01,1229.34 1282.16,1229.3 1284.31,1229.27 1286.46,1229.23 1288.61,1229.19 1290.76,1229.15 1292.91,1229.11 1295.06,1229.07 1297.21,1229.03 1299.36,1228.99 1301.51,1228.94 1303.66,1228.9 1305.81,1228.85 1307.96,1228.8 1310.11,1228.75 1312.26,1228.7 1314.41,1228.65 1316.56,1228.6 1318.71,1228.55 1320.86,1228.49 1323.01,1228.44 1325.16,1228.38 1327.31,1228.32 1329.46,1228.27 1331.61,1228.21 1333.76,1228.15 1335.91,1228.09 1338.06,1228.02 1340.21,1227.96 1342.36,1227.9 1344.51,1227.83 1346.66,1227.77 1348.81,1227.7 1350.96,1227.63 1353.11,1227.56 1355.26,1227.5 1357.41,1227.43 1359.56,1227.35 1361.71,1227.28 1363.85,1227.21 1366,1227.14 1368.15,1227.06 1370.3,1226.99 1372.45,1226.91 1374.6,1226.83 1376.75,1226.75 1378.9,1226.68 1381.05,1226.6 1383.2,1226.52 1385.35,1226.44 1387.5,1226.35 1389.65,1226.27 1391.8,1226.19 1393.95,1226.1 1396.1,1226.02 1398.25,1225.93 1400.4,1225.85 1402.55,1225.76 1404.7,1225.67 1406.85,1225.59 1409,1225.5 1411.15,1225.41 1413.3,1225.32 1415.45,1225.23 1417.6,1225.13 1419.75,1225.04 1421.9,1224.95 1424.05,1224.86 1426.2,1224.76 1428.35,1224.67 1430.5,1224.57 1432.65,1224.48 1434.8,1224.38 1436.95,1224.28 1439.1,1224.19 1441.25,1224.09 1443.4,1223.99 1445.55,1223.89 1447.7,1223.79 1449.85,1223.69 1452,1223.59 1454.15,1223.49 1456.3,1223.39 1458.45,1223.29 1460.6,1223.18 1462.75,1223.08 1464.89,1222.98 1467.04,1222.88 1469.19,1222.77 1471.34,1222.67 1473.49,1222.57 1475.64,1222.46 1477.79,1222.36 1479.94,1222.25 1482.09,1222.15 1484.24,1222.04 1486.39,1221.94 1488.54,1221.83 1490.69,1221.72 1492.84,1221.62 1494.99,1221.51 1497.14,1221.4 1499.29,1221.3 1501.44,1221.19 1503.59,1221.08 1505.74,1220.98 1507.89,1220.87 1510.04,1220.76 1512.19,1220.65 1514.34,1220.55 1516.49,1220.44 1518.64,1220.33 1520.79,1220.22 1522.94,1220.11 1525.09,1220.01 1527.24,1219.9 1529.39,1219.79 1531.54,1219.68 1533.69,1219.57 1535.84,1219.47 1537.99,1219.36 1540.14,1219.25 1542.29,1219.14 1544.44,1219.03 1546.59,1218.93 1548.74,1218.82 1550.89,1218.71 1553.04,1218.6 1555.19,1218.5 1557.34,1218.39 1559.49,1218.28 1561.64,1218.17 1563.78,1218.07 1565.93,1217.96 1568.08,1217.85 1570.23,1217.75 1572.38,1217.64 1574.53,1217.53 1576.68,1217.43 1578.83,1217.32 1580.98,1217.22 1583.13,1217.11 1585.28,1217.01 1587.43,1216.9 1589.58,1216.8 1591.73,1216.7 1593.88,1216.59 1596.03,1216.49 1598.18,1216.39 1600.33,1216.28 1602.48,1216.18 1604.63,1216.08 1606.78,1215.98 1608.93,1215.88 1611.08,1215.78 1613.23,1215.68 1615.38,1215.58 1617.53,1215.48 1619.68,1215.38 1621.83,1215.28 1623.98,1215.18 1626.13,1215.08 1628.28,1214.99 1630.43,1214.89 1632.58,1214.79 1634.73,1214.7 1636.88,1214.6 1639.03,1214.51 1641.18,1214.41 1643.33,1214.32 1645.48,1214.23 1647.63,1214.13 1649.78,1214.04 1651.93,1213.95 1654.08,1213.86 1656.23,1213.77 1658.38,1213.68 1660.53,1213.6 1662.68,1213.51 1664.82,1213.42 1666.97,1213.34 1669.12,1213.26 1671.27,1213.17 1673.42,1213.09 1675.57,1213.01 1677.72,1212.93 1679.87,1212.85 1682.02,1212.77 1684.17,1212.69 1686.32,1212.62 1688.47,1212.54 1690.62,1212.46 1692.77,1212.39 1694.92,1212.31 1697.07,1212.24 1699.22,1212.17 1701.37,1212.1 1703.52,1212.02 1705.67,1211.95 1707.82,1211.88 1709.97,1211.81 1712.12,1211.74 1714.27,1211.68 1716.42,1211.61 1718.57,1211.54 1720.72,1211.48 1722.87,1211.41 1725.02,1211.35 1727.17,1211.28 1729.32,1211.22 1731.47,1211.15 1733.62,1211.09 1735.77,1211.03 1737.92,1210.97 1740.07,1210.91 1742.22,1210.85 1744.37,1210.79 1746.52,1210.73 1748.67,1210.67 1750.82,1210.61 1752.97,1210.56 1755.12,1210.5 1757.27,1210.44 1759.42,1210.39 1761.57,1210.33 1763.71,1210.28 1765.86,1210.22 1768.01,1210.17 1770.16,1210.12 1772.31,1210.07 1774.46,1210.02 1776.61,1209.97 1778.76,1209.92 1780.91,1209.87 1783.06,1209.82 1785.21,1209.77 1787.36,1209.73 1789.51,1209.68 1791.66,1209.63 1793.81,1209.59 1795.96,1209.55 1798.11,1209.5 1800.26,1209.46 1802.41,1209.42 1804.56,1209.38 1806.71,1209.34 1808.86,1209.3 1811.01,1209.26 1813.16,1209.22 1815.31,1209.19 1817.46,1209.15 1819.61,1209.12 1821.76,1209.08 1823.91,1209.05 1826.06,1209.02 1828.21,1208.99 1830.36,1208.96 1832.51,1208.93 1834.66,1208.9 1836.81,1208.88 1838.96,1208.85 1841.11,1208.83 1843.26,1208.8 1845.41,1208.78 1847.56,1208.76 1849.71,1208.74 1851.86,1208.72 1854.01,1208.7 1856.16,1208.69 1858.31,1208.67 1860.46,1208.66 1862.6,1208.65 1864.75,1208.64 1866.9,1208.63 1869.05,1208.62 1871.2,1208.62 1873.35,1208.61 1875.5,1208.61 1877.65,1208.61 1879.8,1208.61 1881.95,1208.61 1884.1,1208.61 1886.25,1208.61 1888.4,1208.61 1890.55,1208.62 1892.7,1208.62 1894.85,1208.63 1897,1208.64 1899.15,1208.64 1901.3,1208.65 1903.45,1208.66 1905.6,1208.67 1907.75,1208.69 1909.9,1208.7 1912.05,1208.71 1914.2,1208.73 1916.35,1208.74 1918.5,1208.76 1920.65,1208.77 1922.8,1208.79 1924.95,1208.81 1927.1,1208.83 1929.25,1208.85 1931.4,1208.87 1933.55,1208.89 1935.7,1208.91 1937.85,1208.93 1940,1208.96 1942.15,1208.98 1944.3,1209.01 1946.45,1209.03 1948.6,1209.06 1950.75,1209.09 1952.9,1209.11 1955.05,1209.14 1957.2,1209.17 1959.35,1209.2 1961.5,1209.23 1963.64,1209.27 1965.79,1209.3 1967.94,1209.33 1970.09,1209.36 1972.24,1209.4 1974.39,1209.43 1976.54,1209.47 1978.69,1209.51 1980.84,1209.54 1982.99,1209.58 1985.14,1209.62 1987.29,1209.66 1989.44,1209.7 1991.59,1209.74 1993.74,1209.78 1995.89,1209.82 1998.04,1209.87 2000.19,1209.91 2002.34,1209.96 2004.49,1210 2006.64,1210.05 2008.79,1210.09 2010.94,1210.14 2013.09,1210.19 2015.24,1210.24 2017.39,1210.29 2019.54,1210.34 2021.69,1210.39 2023.84,1210.45 2025.99,1210.5 2028.14,1210.55 2030.29,1210.61 2032.44,1210.67 2034.59,1210.72 2036.74,1210.78 2038.89,1210.84 2041.04,1210.9 2043.19,1210.96 2045.34,1211.02 2047.49,1211.09 2049.64,1211.15 2051.79,1211.21 2053.94,1211.28 2056.09,1211.34 2058.24,1211.41 2060.39,1211.48 2062.53,1211.55 2064.68,1211.62 2066.83,1211.69 2068.98,1211.76 2071.13,1211.83 2073.28,1211.9 2075.43,1211.97 2077.58,1212.04 2079.73,1212.12 2081.88,1212.19 2084.03,1212.26 2086.18,1212.34 2088.33,1212.41 2090.48,1212.49 2092.63,1212.57 2094.78,1212.64 2096.93,1212.72 2099.08,1212.8 2101.23,1212.88 2103.38,1212.96 2105.53,1213.04 2107.68,1213.12 2109.83,1213.2 2111.98,1213.28 2114.13,1213.36 2116.28,1213.44 2118.43,1213.52 2120.58,1213.6 2122.73,1213.69 2124.88,1213.77 2127.03,1213.85 2129.18,1213.94 2131.33,1214.02 2133.48,1214.11 2135.63,1214.19 2137.78,1214.28 2139.93,1214.36 2142.08,1214.45 2144.23,1214.53 2146.38,1214.62 2148.53,1214.71 2150.68,1214.79 2152.83,1214.88 2154.98,1214.97 2157.13,1215.06 2159.28,1215.15 2161.43,1215.24 2163.57,1215.33 2165.72,1215.42 2167.87,1215.51 2170.02,1215.6 2172.17,1215.69 2174.32,1215.78 2176.47,1215.88 2178.62,1215.97 2180.77,1216.06 2182.92,1216.16 2185.07,1216.25 2187.22,1216.35 2189.37,1216.44 2191.52,1216.54 2193.67,1216.63 2195.82,1216.73 2197.97,1216.83 2200.12,1216.93 2202.27,1217.03 2204.42,1217.13 2206.57,1217.23 2208.72,1217.33 2210.87,1217.43 2213.02,1217.53 2215.17,1217.63 2217.32,1217.74 2219.47,1217.84 2221.62,1217.95 2223.77,1218.05 2225.92,1218.16 2228.07,1218.26 2230.22,1218.37 2232.37,1218.48 2234.52,1218.59 2236.67,1218.69 2238.82,1218.8 2240.97,1218.91 2243.12,1219.02 2245.27,1219.13 2247.42,1219.24 2249.57,1219.35 2251.72,1219.45 2253.87,1219.56 2256.02,1219.68 2258.17,1219.79 2260.32,1219.9 2262.46,1220.01 2264.61,1220.12 2266.76,1220.23 2268.91,1220.34 2271.06,1220.45 2273.21,1220.57 2275.36,1220.68 2277.51,1220.79 2279.66,1220.9 2281.81,1221.02 2283.96,1221.13 2286.11,1221.24 2288.26,1221.36 2290.41,1221.47 2292.56,1221.59 2294.71,1221.7 2296.86,1221.82 2299.01,1221.93 2301.16,1222.05 2303.31,1222.16 2305.46,1222.28 2307.61,1222.39 2309.76,1222.51 2311.91,1222.62 2314.06,1222.74 2316.21,1222.86 2318.36,1222.97 2320.51,1223.09 2322.66,1223.21 2324.81,1223.33 2326.96,1223.44 2329.11,1223.56 2331.26,1223.68 2333.41,1223.8 2335.56,1223.92 2337.71,1224.04 2339.86,1224.16 2342.01,1224.28 2344.16,1224.39 2346.31,1224.51 2348.46,1224.63 2350.61,1224.76 2352.76,1224.88 "/>
<circle clip-path="url(#clip412)" cx="447.201" cy="1212.51" r="18" fill="#c271d2" fill-rule="evenodd" fill-opacity="1" stroke="#000000" stroke-opacity="1" stroke-width="3.2"/>
<circle clip-path="url(#clip412)" cx="538.396" cy="1210.96" r="18" fill="#c271d2" fill-rule="evenodd" fill-opacity="1" stroke="#000000" stroke-opacity="1" stroke-width="3.2"/>
<circle clip-path="url(#clip412)" cx="760.165" cy="1199.78" r="18" fill="#c271d2" fill-rule="evenodd" fill-opacity="1" stroke="#000000" stroke-opacity="1" stroke-width="3.2"/>
<circle clip-path="url(#clip412)" cx="1582.99" cy="1222.76" r="18" fill="#c271d2" fill-rule="evenodd" fill-opacity="1" stroke="#000000" stroke-opacity="1" stroke-width="3.2"/>
<circle clip-path="url(#clip412)" cx="1939.48" cy="1189.85" r="18" fill="#c271d2" fill-rule="evenodd" fill-opacity="1" stroke="#000000" stroke-opacity="1" stroke-width="3.2"/>
<circle clip-path="url(#clip412)" cx="2104.04" cy="1225.24" r="18" fill="#c271d2" fill-rule="evenodd" fill-opacity="1" stroke="#000000" stroke-opacity="1" stroke-width="3.2"/>
<path clip-path="url(#clip410)" d="M1717.03 425.996 L2281.17 425.996 L2281.17 166.796 L1717.03 166.796  Z" fill="#ffffff" fill-rule="evenodd" fill-opacity="1"/>
<polyline clip-path="url(#clip410)" style="stroke:#000000; stroke-linecap:round; stroke-linejoin:round; stroke-width:4; stroke-opacity:1; fill:none" points="1717.03,425.996 2281.17,425.996 2281.17,166.796 1717.03,166.796 1717.03,425.996 "/>
<polyline clip-path="url(#clip410)" style="stroke:#009af9; stroke-linecap:round; stroke-linejoin:round; stroke-width:8; stroke-opacity:1; fill:none" points="1740.89,218.636 1884.07,218.636 "/>
<path clip-path="url(#clip410)" d="M1930.18 202.49 L1930.18 207.05 Q1927.52 205.777 1925.15 205.152 Q1922.79 204.527 1920.59 204.527 Q1916.77 204.527 1914.69 206.008 Q1912.63 207.49 1912.63 210.221 Q1912.63 212.513 1914 213.694 Q1915.39 214.851 1919.23 215.569 L1922.05 216.147 Q1927.28 217.143 1929.76 219.666 Q1932.26 222.166 1932.26 226.379 Q1932.26 231.402 1928.88 233.994 Q1925.52 236.587 1919.02 236.587 Q1916.57 236.587 1913.79 236.031 Q1911.03 235.476 1908.07 234.388 L1908.07 229.573 Q1910.92 231.17 1913.65 231.981 Q1916.38 232.791 1919.02 232.791 Q1923.02 232.791 1925.2 231.217 Q1927.38 229.643 1927.38 226.726 Q1927.38 224.18 1925.8 222.744 Q1924.25 221.309 1920.69 220.592 L1917.84 220.036 Q1912.61 218.995 1910.27 216.772 Q1907.93 214.55 1907.93 210.592 Q1907.93 206.008 1911.15 203.37 Q1914.39 200.731 1920.06 200.731 Q1922.49 200.731 1925.02 201.171 Q1927.54 201.61 1930.18 202.49 Z" fill="#000000" fill-rule="nonzero" fill-opacity="1" /><path clip-path="url(#clip410)" d="M1951.15 222.883 Q1945.99 222.883 1944 224.064 Q1942.01 225.244 1942.01 228.092 Q1942.01 230.36 1943.49 231.703 Q1944.99 233.022 1947.56 233.022 Q1951.1 233.022 1953.23 230.522 Q1955.39 227.999 1955.39 223.832 L1955.39 222.883 L1951.15 222.883 M1959.65 221.124 L1959.65 235.916 L1955.39 235.916 L1955.39 231.981 Q1953.93 234.342 1951.75 235.476 Q1949.58 236.587 1946.43 236.587 Q1942.45 236.587 1940.08 234.365 Q1937.75 232.119 1937.75 228.369 Q1937.75 223.994 1940.66 221.772 Q1943.6 219.55 1949.41 219.55 L1955.39 219.55 L1955.39 219.133 Q1955.39 216.194 1953.44 214.596 Q1951.52 212.976 1948.02 212.976 Q1945.8 212.976 1943.7 213.508 Q1941.59 214.041 1939.65 215.106 L1939.65 211.17 Q1941.98 210.268 1944.18 209.828 Q1946.38 209.365 1948.46 209.365 Q1954.09 209.365 1956.87 212.282 Q1959.65 215.198 1959.65 221.124 Z" fill="#000000" fill-rule="nonzero" fill-opacity="1" /><path clip-path="url(#clip410)" d="M1983.44 213.971 Q1982.72 213.555 1981.87 213.37 Q1981.03 213.161 1980.02 213.161 Q1976.4 213.161 1974.46 215.522 Q1972.54 217.86 1972.54 222.258 L1972.54 235.916 L1968.26 235.916 L1968.26 209.99 L1972.54 209.99 L1972.54 214.018 Q1973.88 211.657 1976.03 210.522 Q1978.19 209.365 1981.27 209.365 Q1981.71 209.365 1982.24 209.434 Q1982.77 209.481 1983.42 209.596 L1983.44 213.971 Z" fill="#000000" fill-rule="nonzero" fill-opacity="1" /><path clip-path="url(#clip410)" d="M2005.52 210.985 L2005.52 214.967 Q2003.72 213.971 2001.89 213.485 Q2000.08 212.976 1998.23 212.976 Q1994.09 212.976 1991.8 215.615 Q1989.51 218.231 1989.51 222.976 Q1989.51 227.721 1991.8 230.36 Q1994.09 232.976 1998.23 232.976 Q2000.08 232.976 2001.89 232.49 Q2003.72 231.981 2005.52 230.985 L2005.52 234.92 Q2003.74 235.754 2001.82 236.17 Q1999.92 236.587 1997.77 236.587 Q1991.91 236.587 1988.46 232.906 Q1985.02 229.226 1985.02 222.976 Q1985.02 216.633 1988.49 212.999 Q1991.98 209.365 1998.05 209.365 Q2000.02 209.365 2001.89 209.782 Q2003.77 210.175 2005.52 210.985 Z" fill="#000000" fill-rule="nonzero" fill-opacity="1" /><path clip-path="url(#clip410)" d="M2022.98 212.976 Q2019.55 212.976 2017.56 215.661 Q2015.57 218.323 2015.57 222.976 Q2015.57 227.629 2017.54 230.314 Q2019.53 232.976 2022.98 232.976 Q2026.38 232.976 2028.37 230.291 Q2030.36 227.606 2030.36 222.976 Q2030.36 218.37 2028.37 215.684 Q2026.38 212.976 2022.98 212.976 M2022.98 209.365 Q2028.53 209.365 2031.7 212.976 Q2034.88 216.587 2034.88 222.976 Q2034.88 229.342 2031.7 232.976 Q2028.53 236.587 2022.98 236.587 Q2017.4 236.587 2014.23 232.976 Q2011.08 229.342 2011.08 222.976 Q2011.08 216.587 2014.23 212.976 Q2017.4 209.365 2022.98 209.365 Z" fill="#000000" fill-rule="nonzero" fill-opacity="1" /><path clip-path="url(#clip410)" d="M2062.12 214.967 Q2063.72 212.096 2065.94 210.731 Q2068.16 209.365 2071.17 209.365 Q2075.22 209.365 2077.42 212.212 Q2079.62 215.036 2079.62 220.268 L2079.62 235.916 L2075.34 235.916 L2075.34 220.407 Q2075.34 216.68 2074.02 214.874 Q2072.7 213.069 2069.99 213.069 Q2066.68 213.069 2064.76 215.268 Q2062.84 217.467 2062.84 221.263 L2062.84 235.916 L2058.56 235.916 L2058.56 220.407 Q2058.56 216.657 2057.24 214.874 Q2055.92 213.069 2053.16 213.069 Q2049.9 213.069 2047.98 215.291 Q2046.06 217.49 2046.06 221.263 L2046.06 235.916 L2041.77 235.916 L2041.77 209.99 L2046.06 209.99 L2046.06 214.018 Q2047.51 211.633 2049.55 210.499 Q2051.59 209.365 2054.39 209.365 Q2057.21 209.365 2059.18 210.8 Q2061.17 212.235 2062.12 214.967 Z" fill="#000000" fill-rule="nonzero" fill-opacity="1" /><path clip-path="url(#clip410)" d="M2110.29 221.888 L2110.29 223.971 L2090.71 223.971 Q2090.99 228.369 2093.35 230.684 Q2095.73 232.976 2099.97 232.976 Q2102.42 232.976 2104.71 232.374 Q2107.03 231.772 2109.3 230.569 L2109.3 234.596 Q2107.01 235.568 2104.6 236.078 Q2102.19 236.587 2099.71 236.587 Q2093.51 236.587 2089.88 232.976 Q2086.26 229.365 2086.26 223.207 Q2086.26 216.842 2089.69 213.115 Q2093.14 209.365 2098.97 209.365 Q2104.2 209.365 2107.24 212.745 Q2110.29 216.101 2110.29 221.888 M2106.03 220.638 Q2105.99 217.143 2104.07 215.059 Q2102.17 212.976 2099.02 212.976 Q2095.45 212.976 2093.3 214.99 Q2091.17 217.004 2090.85 220.661 L2106.03 220.638 Z" fill="#000000" fill-rule="nonzero" fill-opacity="1" /><path clip-path="url(#clip410)" d="M2132.31 213.971 Q2131.59 213.555 2130.73 213.37 Q2129.9 213.161 2128.88 213.161 Q2125.27 213.161 2123.32 215.522 Q2121.4 217.86 2121.4 222.258 L2121.4 235.916 L2117.12 235.916 L2117.12 209.99 L2121.4 209.99 L2121.4 214.018 Q2122.75 211.657 2124.9 210.522 Q2127.05 209.365 2130.13 209.365 Q2130.57 209.365 2131.1 209.434 Q2131.63 209.481 2132.28 209.596 L2132.31 213.971 Z" fill="#000000" fill-rule="nonzero" fill-opacity="1" /><path clip-path="url(#clip410)" d="M2157.91 221.888 L2157.91 223.971 L2138.32 223.971 Q2138.6 228.369 2140.96 230.684 Q2143.35 232.976 2147.58 232.976 Q2150.04 232.976 2152.33 232.374 Q2154.64 231.772 2156.91 230.569 L2156.91 234.596 Q2154.62 235.568 2152.21 236.078 Q2149.81 236.587 2147.33 236.587 Q2141.13 236.587 2137.49 232.976 Q2133.88 229.365 2133.88 223.207 Q2133.88 216.842 2137.31 213.115 Q2140.76 209.365 2146.59 209.365 Q2151.82 209.365 2154.85 212.745 Q2157.91 216.101 2157.91 221.888 M2153.65 220.638 Q2153.6 217.143 2151.68 215.059 Q2149.78 212.976 2146.63 212.976 Q2143.07 212.976 2140.92 214.99 Q2138.79 217.004 2138.46 220.661 L2153.65 220.638 Z" fill="#000000" fill-rule="nonzero" fill-opacity="1" /><polyline clip-path="url(#clip410)" style="stroke:#e26f46; stroke-linecap:round; stroke-linejoin:round; stroke-width:8; stroke-opacity:1; fill:none" points="1740.89,270.476 1884.07,270.476 "/>
<path clip-path="url(#clip410)" d="M1935.8 255.858 L1935.8 260.788 Q1933.44 258.589 1930.76 257.501 Q1928.09 256.413 1925.09 256.413 Q1919.16 256.413 1916.01 260.048 Q1912.86 263.659 1912.86 270.51 Q1912.86 277.339 1916.01 280.973 Q1919.16 284.584 1925.09 284.584 Q1928.09 284.584 1930.76 283.496 Q1933.44 282.409 1935.8 280.209 L1935.8 285.094 Q1933.35 286.76 1930.59 287.594 Q1927.86 288.427 1924.81 288.427 Q1916.96 288.427 1912.45 283.635 Q1907.93 278.821 1907.93 270.51 Q1907.93 262.177 1912.45 257.386 Q1916.96 252.571 1924.81 252.571 Q1927.91 252.571 1930.64 253.404 Q1933.4 254.214 1935.8 255.858 Z" fill="#000000" fill-rule="nonzero" fill-opacity="1" /><path clip-path="url(#clip410)" d="M1953.63 290.163 Q1951.82 294.793 1950.11 296.205 Q1948.4 297.617 1945.52 297.617 L1942.12 297.617 L1942.12 294.052 L1944.62 294.052 Q1946.38 294.052 1947.35 293.219 Q1948.33 292.385 1949.51 289.283 L1950.27 287.339 L1939.78 261.83 L1944.3 261.83 L1952.4 282.108 L1960.5 261.83 L1965.02 261.83 L1953.63 290.163 Z" fill="#000000" fill-rule="nonzero" fill-opacity="1" /><path clip-path="url(#clip410)" d="M1975.11 254.469 L1975.11 261.83 L1983.88 261.83 L1983.88 265.14 L1975.11 265.14 L1975.11 279.214 Q1975.11 282.385 1975.96 283.288 Q1976.84 284.191 1979.51 284.191 L1983.88 284.191 L1983.88 287.756 L1979.51 287.756 Q1974.58 287.756 1972.7 285.927 Q1970.83 284.075 1970.83 279.214 L1970.83 265.14 L1967.7 265.14 L1967.7 261.83 L1970.83 261.83 L1970.83 254.469 L1975.11 254.469 Z" fill="#000000" fill-rule="nonzero" fill-opacity="1" /><path clip-path="url(#clip410)" d="M1999.53 264.816 Q1996.1 264.816 1994.11 267.501 Q1992.12 270.163 1992.12 274.816 Q1992.12 279.469 1994.09 282.154 Q1996.08 284.816 1999.53 284.816 Q2002.93 284.816 2004.92 282.131 Q2006.91 279.446 2006.91 274.816 Q2006.91 270.21 2004.92 267.524 Q2002.93 264.816 1999.53 264.816 M1999.53 261.205 Q2005.08 261.205 2008.26 264.816 Q2011.43 268.427 2011.43 274.816 Q2011.43 281.182 2008.26 284.816 Q2005.08 288.427 1999.53 288.427 Q1993.95 288.427 1990.78 284.816 Q1987.63 281.182 1987.63 274.816 Q1987.63 268.427 1990.78 264.816 Q1993.95 261.205 1999.53 261.205 Z" fill="#000000" fill-rule="nonzero" fill-opacity="1" /><path clip-path="url(#clip410)" d="M2035.01 262.594 L2035.01 266.622 Q2033.21 265.696 2031.27 265.233 Q2029.32 264.77 2027.24 264.77 Q2024.07 264.77 2022.47 265.742 Q2020.89 266.714 2020.89 268.659 Q2020.89 270.14 2022.03 270.997 Q2023.16 271.83 2026.59 272.594 L2028.05 272.918 Q2032.58 273.89 2034.48 275.672 Q2036.4 277.432 2036.4 280.603 Q2036.4 284.214 2033.53 286.321 Q2030.69 288.427 2025.69 288.427 Q2023.6 288.427 2021.33 288.01 Q2019.09 287.617 2016.59 286.807 L2016.59 282.409 Q2018.95 283.635 2021.24 284.26 Q2023.53 284.862 2025.78 284.862 Q2028.79 284.862 2030.41 283.844 Q2032.03 282.802 2032.03 280.927 Q2032.03 279.191 2030.85 278.265 Q2029.69 277.339 2025.73 276.483 L2024.25 276.135 Q2020.29 275.302 2018.53 273.589 Q2016.77 271.853 2016.77 268.844 Q2016.77 265.186 2019.37 263.196 Q2021.96 261.205 2026.73 261.205 Q2029.09 261.205 2031.17 261.552 Q2033.26 261.899 2035.01 262.594 Z" fill="#000000" fill-rule="nonzero" fill-opacity="1" /><path clip-path="url(#clip410)" d="M2053.23 264.816 Q2049.81 264.816 2047.82 267.501 Q2045.83 270.163 2045.83 274.816 Q2045.83 279.469 2047.79 282.154 Q2049.78 284.816 2053.23 284.816 Q2056.64 284.816 2058.63 282.131 Q2060.62 279.446 2060.62 274.816 Q2060.62 270.21 2058.63 267.524 Q2056.64 264.816 2053.23 264.816 M2053.23 261.205 Q2058.79 261.205 2061.96 264.816 Q2065.13 268.427 2065.13 274.816 Q2065.13 281.182 2061.96 284.816 Q2058.79 288.427 2053.23 288.427 Q2047.65 288.427 2044.48 284.816 Q2041.33 281.182 2041.33 274.816 Q2041.33 268.427 2044.48 264.816 Q2047.65 261.205 2053.23 261.205 Z" fill="#000000" fill-rule="nonzero" fill-opacity="1" /><path clip-path="url(#clip410)" d="M2072.19 251.737 L2076.45 251.737 L2076.45 287.756 L2072.19 287.756 L2072.19 251.737 Z" fill="#000000" fill-rule="nonzero" fill-opacity="1" /><polyline clip-path="url(#clip410)" style="stroke:#3da44d; stroke-linecap:round; stroke-linejoin:round; stroke-width:8; stroke-opacity:1; fill:none" points="1740.89,322.316 1884.07,322.316 "/>
<path clip-path="url(#clip410)" d="M1912.61 323.091 L1912.61 335.753 L1920.11 335.753 Q1923.88 335.753 1925.69 334.202 Q1927.52 332.628 1927.52 329.411 Q1927.52 326.17 1925.69 324.642 Q1923.88 323.091 1920.11 323.091 L1912.61 323.091 M1912.61 308.878 L1912.61 319.295 L1919.53 319.295 Q1922.96 319.295 1924.62 318.022 Q1926.31 316.725 1926.31 314.087 Q1926.31 311.471 1924.62 310.175 Q1922.96 308.878 1919.53 308.878 L1912.61 308.878 M1907.93 305.036 L1919.88 305.036 Q1925.22 305.036 1928.12 307.258 Q1931.01 309.48 1931.01 313.577 Q1931.01 316.749 1929.53 318.624 Q1928.05 320.499 1925.18 320.962 Q1928.63 321.702 1930.52 324.063 Q1932.45 326.401 1932.45 329.92 Q1932.45 334.549 1929.3 337.073 Q1926.15 339.596 1920.34 339.596 L1907.93 339.596 L1907.93 305.036 Z" fill="#000000" fill-rule="nonzero" fill-opacity="1" /><path clip-path="url(#clip410)" d="M1940.27 303.577 L1944.53 303.577 L1944.53 339.596 L1940.27 339.596 L1940.27 303.577 Z" fill="#000000" fill-rule="nonzero" fill-opacity="1" /><path clip-path="url(#clip410)" d="M1963.49 316.656 Q1960.06 316.656 1958.07 319.341 Q1956.08 322.003 1956.08 326.656 Q1956.08 331.309 1958.05 333.994 Q1960.04 336.656 1963.49 336.656 Q1966.89 336.656 1968.88 333.971 Q1970.87 331.286 1970.87 326.656 Q1970.87 322.05 1968.88 319.364 Q1966.89 316.656 1963.49 316.656 M1963.49 313.045 Q1969.04 313.045 1972.21 316.656 Q1975.39 320.267 1975.39 326.656 Q1975.39 333.022 1972.21 336.656 Q1969.04 340.267 1963.49 340.267 Q1957.91 340.267 1954.74 336.656 Q1951.59 333.022 1951.59 326.656 Q1951.59 320.267 1954.74 316.656 Q1957.91 313.045 1963.49 313.045 Z" fill="#000000" fill-rule="nonzero" fill-opacity="1" /><path clip-path="url(#clip410)" d="M1992.49 316.656 Q1989.07 316.656 1987.08 319.341 Q1985.08 322.003 1985.08 326.656 Q1985.08 331.309 1987.05 333.994 Q1989.04 336.656 1992.49 336.656 Q1995.89 336.656 1997.89 333.971 Q1999.88 331.286 1999.88 326.656 Q1999.88 322.05 1997.89 319.364 Q1995.89 316.656 1992.49 316.656 M1992.49 313.045 Q1998.05 313.045 2001.22 316.656 Q2004.39 320.267 2004.39 326.656 Q2004.39 333.022 2001.22 336.656 Q1998.05 340.267 1992.49 340.267 Q1986.91 340.267 1983.74 336.656 Q1980.59 333.022 1980.59 326.656 Q1980.59 320.267 1983.74 316.656 Q1986.91 313.045 1992.49 313.045 Z" fill="#000000" fill-rule="nonzero" fill-opacity="1" /><path clip-path="url(#clip410)" d="M2028.51 317.605 L2028.51 303.577 L2032.77 303.577 L2032.77 339.596 L2028.51 339.596 L2028.51 335.707 Q2027.17 338.022 2025.11 339.156 Q2023.07 340.267 2020.2 340.267 Q2015.5 340.267 2012.54 336.517 Q2009.6 332.767 2009.6 326.656 Q2009.6 320.545 2012.54 316.795 Q2015.5 313.045 2020.2 313.045 Q2023.07 313.045 2025.11 314.179 Q2027.17 315.29 2028.51 317.605 M2014 326.656 Q2014 331.355 2015.92 334.04 Q2017.86 336.702 2021.24 336.702 Q2024.62 336.702 2026.57 334.04 Q2028.51 331.355 2028.51 326.656 Q2028.51 321.957 2026.57 319.295 Q2024.62 316.61 2021.24 316.61 Q2017.86 316.61 2015.92 319.295 Q2014 321.957 2014 326.656 Z" fill="#000000" fill-rule="nonzero" fill-opacity="1" /><circle clip-path="url(#clip410)" cx="1812.48" cy="374.156" r="20.9455" fill="#c271d2" fill-rule="evenodd" fill-opacity="1" stroke="#000000" stroke-opacity="1" stroke-width="3.72364"/>
<path clip-path="url(#clip410)" d="M1923.95 360.047 Q1918.86 360.047 1915.85 363.843 Q1912.86 367.64 1912.86 374.19 Q1912.86 380.718 1915.85 384.514 Q1918.86 388.311 1923.95 388.311 Q1929.04 388.311 1932.01 384.514 Q1934.99 380.718 1934.99 374.19 Q1934.99 367.64 1932.01 363.843 Q1929.04 360.047 1923.95 360.047 M1923.95 356.251 Q1931.22 356.251 1935.57 361.135 Q1939.92 365.996 1939.92 374.19 Q1939.92 382.362 1935.57 387.246 Q1931.22 392.107 1923.95 392.107 Q1916.66 392.107 1912.28 387.246 Q1907.93 382.385 1907.93 374.19 Q1907.93 365.996 1912.28 361.135 Q1916.66 356.251 1923.95 356.251 Z" fill="#000000" fill-rule="nonzero" fill-opacity="1" /><path clip-path="url(#clip410)" d="M1965.66 378.496 Q1965.66 373.797 1963.72 371.135 Q1961.8 368.45 1958.42 368.45 Q1955.04 368.45 1953.09 371.135 Q1951.17 373.797 1951.17 378.496 Q1951.17 383.195 1953.09 385.88 Q1955.04 388.542 1958.42 388.542 Q1961.8 388.542 1963.72 385.88 Q1965.66 383.195 1965.66 378.496 M1951.17 369.445 Q1952.52 367.13 1954.55 366.019 Q1956.61 364.885 1959.46 364.885 Q1964.18 364.885 1967.12 368.635 Q1970.08 372.385 1970.08 378.496 Q1970.08 384.607 1967.12 388.357 Q1964.18 392.107 1959.46 392.107 Q1956.61 392.107 1954.55 390.996 Q1952.52 389.862 1951.17 387.547 L1951.17 391.436 L1946.89 391.436 L1946.89 355.417 L1951.17 355.417 L1951.17 369.445 Z" fill="#000000" fill-rule="nonzero" fill-opacity="1" /><path clip-path="url(#clip410)" d="M1993.67 366.274 L1993.67 370.302 Q1991.87 369.376 1989.92 368.913 Q1987.98 368.45 1985.89 368.45 Q1982.72 368.45 1981.13 369.422 Q1979.55 370.394 1979.55 372.339 Q1979.55 373.82 1980.69 374.677 Q1981.82 375.51 1985.25 376.274 L1986.71 376.598 Q1991.24 377.57 1993.14 379.352 Q1995.06 381.112 1995.06 384.283 Q1995.06 387.894 1992.19 390.001 Q1989.34 392.107 1984.34 392.107 Q1982.26 392.107 1979.99 391.69 Q1977.75 391.297 1975.25 390.487 L1975.25 386.089 Q1977.61 387.315 1979.9 387.94 Q1982.19 388.542 1984.44 388.542 Q1987.45 388.542 1989.07 387.524 Q1990.69 386.482 1990.69 384.607 Q1990.69 382.871 1989.51 381.945 Q1988.35 381.019 1984.39 380.163 L1982.91 379.815 Q1978.95 378.982 1977.19 377.269 Q1975.43 375.533 1975.43 372.524 Q1975.43 368.866 1978.02 366.876 Q1980.62 364.885 1985.39 364.885 Q1987.75 364.885 1989.83 365.232 Q1991.91 365.579 1993.67 366.274 Z" fill="#000000" fill-rule="nonzero" fill-opacity="1" /><path clip-path="url(#clip410)" d="M2024.02 377.408 L2024.02 379.491 L2004.44 379.491 Q2004.71 383.889 2007.08 386.204 Q2009.46 388.496 2013.7 388.496 Q2016.15 388.496 2018.44 387.894 Q2020.76 387.292 2023.02 386.089 L2023.02 390.116 Q2020.73 391.088 2018.33 391.598 Q2015.92 392.107 2013.44 392.107 Q2007.24 392.107 2003.6 388.496 Q1999.99 384.885 1999.99 378.727 Q1999.99 372.362 2003.42 368.635 Q2006.87 364.885 2012.7 364.885 Q2017.93 364.885 2020.96 368.265 Q2024.02 371.621 2024.02 377.408 M2019.76 376.158 Q2019.71 372.663 2017.79 370.579 Q2015.89 368.496 2012.75 368.496 Q2009.18 368.496 2007.03 370.51 Q2004.9 372.524 2004.58 376.181 L2019.76 376.158 Z" fill="#000000" fill-rule="nonzero" fill-opacity="1" /><path clip-path="url(#clip410)" d="M2046.03 369.491 Q2045.32 369.075 2044.46 368.89 Q2043.63 368.681 2042.61 368.681 Q2039 368.681 2037.05 371.042 Q2035.13 373.38 2035.13 377.778 L2035.13 391.436 L2030.85 391.436 L2030.85 365.51 L2035.13 365.51 L2035.13 369.538 Q2036.47 367.177 2038.63 366.042 Q2040.78 364.885 2043.86 364.885 Q2044.3 364.885 2044.83 364.954 Q2045.36 365.001 2046.01 365.116 L2046.03 369.491 Z" fill="#000000" fill-rule="nonzero" fill-opacity="1" /><path clip-path="url(#clip410)" d="M2047.45 365.51 L2051.96 365.51 L2060.06 387.269 L2068.16 365.51 L2072.68 365.51 L2062.95 391.436 L2057.17 391.436 L2047.45 365.51 Z" fill="#000000" fill-rule="nonzero" fill-opacity="1" /><path clip-path="url(#clip410)" d="M2100.73 377.408 L2100.73 379.491 L2081.15 379.491 Q2081.43 383.889 2083.79 386.204 Q2086.17 388.496 2090.41 388.496 Q2092.86 388.496 2095.15 387.894 Q2097.47 387.292 2099.74 386.089 L2099.74 390.116 Q2097.45 391.088 2095.04 391.598 Q2092.63 392.107 2090.15 392.107 Q2083.95 392.107 2080.32 388.496 Q2076.7 384.885 2076.7 378.727 Q2076.7 372.362 2080.13 368.635 Q2083.58 364.885 2089.41 364.885 Q2094.64 364.885 2097.68 368.265 Q2100.73 371.621 2100.73 377.408 M2096.47 376.158 Q2096.43 372.663 2094.51 370.579 Q2092.61 368.496 2089.46 368.496 Q2085.89 368.496 2083.74 370.51 Q2081.61 372.524 2081.29 376.181 L2096.47 376.158 Z" fill="#000000" fill-rule="nonzero" fill-opacity="1" /><path clip-path="url(#clip410)" d="M2124.78 369.445 L2124.78 355.417 L2129.04 355.417 L2129.04 391.436 L2124.78 391.436 L2124.78 387.547 Q2123.44 389.862 2121.38 390.996 Q2119.34 392.107 2116.47 392.107 Q2111.77 392.107 2108.81 388.357 Q2105.87 384.607 2105.87 378.496 Q2105.87 372.385 2108.81 368.635 Q2111.77 364.885 2116.47 364.885 Q2119.34 364.885 2121.38 366.019 Q2123.44 367.13 2124.78 369.445 M2110.27 378.496 Q2110.27 383.195 2112.19 385.88 Q2114.13 388.542 2117.51 388.542 Q2120.89 388.542 2122.84 385.88 Q2124.78 383.195 2124.78 378.496 Q2124.78 373.797 2122.84 371.135 Q2120.89 368.45 2117.51 368.45 Q2114.13 368.45 2112.19 371.135 Q2110.27 373.797 2110.27 378.496 Z" fill="#000000" fill-rule="nonzero" fill-opacity="1" /><path clip-path="url(#clip410)" d="M2157.75 360.718 L2157.75 387.593 L2163.39 387.593 Q2170.55 387.593 2173.86 384.352 Q2177.19 381.112 2177.19 374.121 Q2177.19 367.177 2173.86 363.959 Q2170.55 360.718 2163.39 360.718 L2157.75 360.718 M2153.07 356.876 L2162.68 356.876 Q2172.72 356.876 2177.42 361.066 Q2182.12 365.232 2182.12 374.121 Q2182.12 383.056 2177.4 387.246 Q2172.68 391.436 2162.68 391.436 L2153.07 391.436 L2153.07 356.876 Z" fill="#000000" fill-rule="nonzero" fill-opacity="1" /><path clip-path="url(#clip410)" d="M2201.17 378.403 Q2196.01 378.403 2194.02 379.584 Q2192.03 380.764 2192.03 383.612 Q2192.03 385.88 2193.51 387.223 Q2195.01 388.542 2197.58 388.542 Q2201.13 388.542 2203.25 386.042 Q2205.41 383.519 2205.41 379.352 L2205.41 378.403 L2201.17 378.403 M2209.67 376.644 L2209.67 391.436 L2205.41 391.436 L2205.41 387.501 Q2203.95 389.862 2201.77 390.996 Q2199.6 392.107 2196.45 392.107 Q2192.47 392.107 2190.11 389.885 Q2187.77 387.639 2187.77 383.889 Q2187.77 379.514 2190.69 377.292 Q2193.63 375.07 2199.44 375.07 L2205.41 375.07 L2205.41 374.653 Q2205.41 371.714 2203.46 370.116 Q2201.54 368.496 2198.05 368.496 Q2195.82 368.496 2193.72 369.028 Q2191.61 369.561 2189.67 370.626 L2189.67 366.69 Q2192 365.788 2194.2 365.348 Q2196.4 364.885 2198.49 364.885 Q2204.11 364.885 2206.89 367.802 Q2209.67 370.718 2209.67 376.644 Z" fill="#000000" fill-rule="nonzero" fill-opacity="1" /><path clip-path="url(#clip410)" d="M2222.65 358.149 L2222.65 365.51 L2231.43 365.51 L2231.43 368.82 L2222.65 368.82 L2222.65 382.894 Q2222.65 386.065 2223.51 386.968 Q2224.39 387.871 2227.05 387.871 L2231.43 387.871 L2231.43 391.436 L2227.05 391.436 Q2222.12 391.436 2220.25 389.607 Q2218.37 387.755 2218.37 382.894 L2218.37 368.82 L2215.25 368.82 L2215.25 365.51 L2218.37 365.51 L2218.37 358.149 L2222.65 358.149 Z" fill="#000000" fill-rule="nonzero" fill-opacity="1" /><path clip-path="url(#clip410)" d="M2248.81 378.403 Q2243.65 378.403 2241.66 379.584 Q2239.67 380.764 2239.67 383.612 Q2239.67 385.88 2241.15 387.223 Q2242.65 388.542 2245.22 388.542 Q2248.76 388.542 2250.89 386.042 Q2253.05 383.519 2253.05 379.352 L2253.05 378.403 L2248.81 378.403 M2257.31 376.644 L2257.31 391.436 L2253.05 391.436 L2253.05 387.501 Q2251.59 389.862 2249.41 390.996 Q2247.24 392.107 2244.09 392.107 Q2240.11 392.107 2237.75 389.885 Q2235.41 387.639 2235.41 383.889 Q2235.41 379.514 2238.32 377.292 Q2241.26 375.07 2247.07 375.07 L2253.05 375.07 L2253.05 374.653 Q2253.05 371.714 2251.1 370.116 Q2249.18 368.496 2245.69 368.496 Q2243.46 368.496 2241.36 369.028 Q2239.25 369.561 2237.31 370.626 L2237.31 366.69 Q2239.64 365.788 2241.84 365.348 Q2244.04 364.885 2246.12 364.885 Q2251.75 364.885 2254.53 367.802 Q2257.31 370.718 2257.31 376.644 Z" fill="#000000" fill-rule="nonzero" fill-opacity="1" /></svg>
