<?xml version="1.0" encoding="utf-8"?>
<svg xmlns="http://www.w3.org/2000/svg" xmlns:xlink="http://www.w3.org/1999/xlink" width="600" height="400" viewBox="0 0 2400 1600">
<defs>
  <clipPath id="clip980">
    <rect x="0" y="0" width="2400" height="1600"/>
  </clipPath>
</defs>
<path clip-path="url(#clip980)" d="M0 1600 L2400 1600 L2400 0 L0 0  Z" fill="#ffffff" fill-rule="evenodd" fill-opacity="1"/>
<defs>
  <clipPath id="clip981">
    <rect x="249" y="123" width="2104" height="1301"/>
  </clipPath>
</defs>
<path clip-path="url(#clip980)" d="M249.542 1423.18 L2352.76 1423.18 L2352.76 123.472 L249.542 123.472  Z" fill="#ffffff" fill-rule="evenodd" fill-opacity="1"/>
<polyline clip-path="url(#clip981)" style="stroke:#000000; stroke-linecap:round; stroke-linejoin:round; stroke-width:2; stroke-opacity:0.1; fill:none" points="309.067,1423.18 309.067,123.472 "/>
<polyline clip-path="url(#clip981)" style="stroke:#000000; stroke-linecap:round; stroke-linejoin:round; stroke-width:2; stroke-opacity:0.1; fill:none" points="739.658,1423.18 739.658,123.472 "/>
<polyline clip-path="url(#clip981)" style="stroke:#000000; stroke-linecap:round; stroke-linejoin:round; stroke-width:2; stroke-opacity:0.1; fill:none" points="1170.25,1423.18 1170.25,123.472 "/>
<polyline clip-path="url(#clip981)" style="stroke:#000000; stroke-linecap:round; stroke-linejoin:round; stroke-width:2; stroke-opacity:0.1; fill:none" points="1600.84,1423.18 1600.84,123.472 "/>
<polyline clip-path="url(#clip981)" style="stroke:#000000; stroke-linecap:round; stroke-linejoin:round; stroke-width:2; stroke-opacity:0.1; fill:none" points="2031.43,1423.18 2031.43,123.472 "/>
<polyline clip-path="url(#clip981)" style="stroke:#000000; stroke-linecap:round; stroke-linejoin:round; stroke-width:2; stroke-opacity:0.1; fill:none" points="249.542,1386.4 2352.76,1386.4 "/>
<polyline clip-path="url(#clip981)" style="stroke:#000000; stroke-linecap:round; stroke-linejoin:round; stroke-width:2; stroke-opacity:0.1; fill:none" points="249.542,1102.57 2352.76,1102.57 "/>
<polyline clip-path="url(#clip981)" style="stroke:#000000; stroke-linecap:round; stroke-linejoin:round; stroke-width:2; stroke-opacity:0.1; fill:none" points="249.542,818.739 2352.76,818.739 "/>
<polyline clip-path="url(#clip981)" style="stroke:#000000; stroke-linecap:round; stroke-linejoin:round; stroke-width:2; stroke-opacity:0.1; fill:none" points="249.542,534.91 2352.76,534.91 "/>
<polyline clip-path="url(#clip981)" style="stroke:#000000; stroke-linecap:round; stroke-linejoin:round; stroke-width:2; stroke-opacity:0.1; fill:none" points="249.542,251.081 2352.76,251.081 "/>
<polyline clip-path="url(#clip980)" style="stroke:#000000; stroke-linecap:round; stroke-linejoin:round; stroke-width:4; stroke-opacity:1; fill:none" points="249.542,1423.18 2352.76,1423.18 "/>
<polyline clip-path="url(#clip980)" style="stroke:#000000; stroke-linecap:round; stroke-linejoin:round; stroke-width:4; stroke-opacity:1; fill:none" points="309.067,1423.18 309.067,1404.28 "/>
<polyline clip-path="url(#clip980)" style="stroke:#000000; stroke-linecap:round; stroke-linejoin:round; stroke-width:4; stroke-opacity:1; fill:none" points="739.658,1423.18 739.658,1404.28 "/>
<polyline clip-path="url(#clip980)" style="stroke:#000000; stroke-linecap:round; stroke-linejoin:round; stroke-width:4; stroke-opacity:1; fill:none" points="1170.25,1423.18 1170.25,1404.28 "/>
<polyline clip-path="url(#clip980)" style="stroke:#000000; stroke-linecap:round; stroke-linejoin:round; stroke-width:4; stroke-opacity:1; fill:none" points="1600.84,1423.18 1600.84,1404.28 "/>
<polyline clip-path="url(#clip980)" style="stroke:#000000; stroke-linecap:round; stroke-linejoin:round; stroke-width:4; stroke-opacity:1; fill:none" points="2031.43,1423.18 2031.43,1404.28 "/>
<path clip-path="url(#clip980)" d="M309.067 1454.1 Q305.456 1454.1 303.627 1457.66 Q301.822 1461.2 301.822 1468.33 Q301.822 1475.44 303.627 1479.01 Q305.456 1482.55 309.067 1482.55 Q312.701 1482.55 314.507 1479.01 Q316.335 1475.44 316.335 1468.33 Q316.335 1461.2 314.507 1457.66 Q312.701 1454.1 309.067 1454.1 M309.067 1450.39 Q314.877 1450.39 317.933 1455 Q321.011 1459.58 321.011 1468.33 Q321.011 1477.06 317.933 1481.67 Q314.877 1486.25 309.067 1486.25 Q303.257 1486.25 300.178 1481.67 Q297.123 1477.06 297.123 1468.33 Q297.123 1459.58 300.178 1455 Q303.257 1450.39 309.067 1450.39 Z" fill="#000000" fill-rule="nonzero" fill-opacity="1" /><path clip-path="url(#clip980)" d="M718.929 1481.64 L735.248 1481.64 L735.248 1485.58 L713.304 1485.58 L713.304 1481.64 Q715.966 1478.89 720.549 1474.26 Q725.156 1469.61 726.336 1468.27 Q728.582 1465.74 729.461 1464.01 Q730.364 1462.25 730.364 1460.56 Q730.364 1457.8 728.42 1456.07 Q726.498 1454.33 723.397 1454.33 Q721.198 1454.33 718.744 1455.09 Q716.313 1455.86 713.536 1457.41 L713.536 1452.69 Q716.36 1451.55 718.813 1450.97 Q721.267 1450.39 723.304 1450.39 Q728.674 1450.39 731.869 1453.08 Q735.063 1455.77 735.063 1460.26 Q735.063 1462.39 734.253 1464.31 Q733.466 1466.2 731.36 1468.8 Q730.781 1469.47 727.679 1472.69 Q724.577 1475.88 718.929 1481.64 Z" fill="#000000" fill-rule="nonzero" fill-opacity="1" /><path clip-path="url(#clip980)" d="M745.109 1451.02 L763.466 1451.02 L763.466 1454.96 L749.392 1454.96 L749.392 1463.43 Q750.41 1463.08 751.429 1462.92 Q752.447 1462.73 753.466 1462.73 Q759.253 1462.73 762.633 1465.9 Q766.012 1469.08 766.012 1474.49 Q766.012 1480.07 762.54 1483.17 Q759.068 1486.25 752.748 1486.25 Q750.572 1486.25 748.304 1485.88 Q746.059 1485.51 743.651 1484.77 L743.651 1480.07 Q745.734 1481.2 747.957 1481.76 Q750.179 1482.32 752.656 1482.32 Q756.66 1482.32 758.998 1480.21 Q761.336 1478.1 761.336 1474.49 Q761.336 1470.88 758.998 1468.77 Q756.66 1466.67 752.656 1466.67 Q750.781 1466.67 748.906 1467.08 Q747.054 1467.5 745.109 1468.38 L745.109 1451.02 Z" fill="#000000" fill-rule="nonzero" fill-opacity="1" /><path clip-path="url(#clip980)" d="M1144.95 1451.02 L1163.3 1451.02 L1163.3 1454.96 L1149.23 1454.96 L1149.23 1463.43 Q1150.25 1463.08 1151.27 1462.92 Q1152.29 1462.73 1153.3 1462.73 Q1159.09 1462.73 1162.47 1465.9 Q1165.85 1469.08 1165.85 1474.49 Q1165.85 1480.07 1162.38 1483.17 Q1158.91 1486.25 1152.59 1486.25 Q1150.41 1486.25 1148.14 1485.88 Q1145.9 1485.51 1143.49 1484.77 L1143.49 1480.07 Q1145.57 1481.2 1147.8 1481.76 Q1150.02 1482.32 1152.49 1482.32 Q1156.5 1482.32 1158.84 1480.21 Q1161.18 1478.1 1161.18 1474.49 Q1161.18 1470.88 1158.84 1468.77 Q1156.5 1466.67 1152.49 1466.67 Q1150.62 1466.67 1148.74 1467.08 Q1146.89 1467.5 1144.95 1468.38 L1144.95 1451.02 Z" fill="#000000" fill-rule="nonzero" fill-opacity="1" /><path clip-path="url(#clip980)" d="M1185.06 1454.1 Q1181.45 1454.1 1179.62 1457.66 Q1177.82 1461.2 1177.82 1468.33 Q1177.82 1475.44 1179.62 1479.01 Q1181.45 1482.55 1185.06 1482.55 Q1188.7 1482.55 1190.5 1479.01 Q1192.33 1475.44 1192.33 1468.33 Q1192.33 1461.2 1190.5 1457.66 Q1188.7 1454.1 1185.06 1454.1 M1185.06 1450.39 Q1190.87 1450.39 1193.93 1455 Q1197.01 1459.58 1197.01 1468.33 Q1197.01 1477.06 1193.93 1481.67 Q1190.87 1486.25 1185.06 1486.25 Q1179.25 1486.25 1176.18 1481.67 Q1173.12 1477.06 1173.12 1468.33 Q1173.12 1459.58 1176.18 1455 Q1179.25 1450.39 1185.06 1450.39 Z" fill="#000000" fill-rule="nonzero" fill-opacity="1" /><path clip-path="url(#clip980)" d="M1574.69 1451.02 L1596.92 1451.02 L1596.92 1453.01 L1584.37 1485.58 L1579.49 1485.58 L1591.29 1454.96 L1574.69 1454.96 L1574.69 1451.02 Z" fill="#000000" fill-rule="nonzero" fill-opacity="1" /><path clip-path="url(#clip980)" d="M1606.08 1451.02 L1624.44 1451.02 L1624.44 1454.96 L1610.37 1454.96 L1610.37 1463.43 Q1611.38 1463.08 1612.4 1462.92 Q1613.42 1462.73 1614.44 1462.73 Q1620.23 1462.73 1623.61 1465.9 Q1626.99 1469.08 1626.99 1474.49 Q1626.99 1480.07 1623.51 1483.17 Q1620.04 1486.25 1613.72 1486.25 Q1611.55 1486.25 1609.28 1485.88 Q1607.03 1485.51 1604.63 1484.77 L1604.63 1480.07 Q1606.71 1481.2 1608.93 1481.76 Q1611.15 1482.32 1613.63 1482.32 Q1617.63 1482.32 1619.97 1480.21 Q1622.31 1478.1 1622.31 1474.49 Q1622.31 1470.88 1619.97 1468.77 Q1617.63 1466.67 1613.63 1466.67 Q1611.75 1466.67 1609.88 1467.08 Q1608.03 1467.5 1606.08 1468.38 L1606.08 1451.02 Z" fill="#000000" fill-rule="nonzero" fill-opacity="1" /><path clip-path="url(#clip980)" d="M1991.04 1481.64 L1998.68 1481.64 L1998.68 1455.28 L1990.37 1456.95 L1990.37 1452.69 L1998.63 1451.02 L2003.31 1451.02 L2003.31 1481.64 L2010.95 1481.64 L2010.95 1485.58 L1991.04 1485.58 L1991.04 1481.64 Z" fill="#000000" fill-rule="nonzero" fill-opacity="1" /><path clip-path="url(#clip980)" d="M2030.39 1454.1 Q2026.78 1454.1 2024.95 1457.66 Q2023.14 1461.2 2023.14 1468.33 Q2023.14 1475.44 2024.95 1479.01 Q2026.78 1482.55 2030.39 1482.55 Q2034.02 1482.55 2035.83 1479.01 Q2037.66 1475.44 2037.66 1468.33 Q2037.66 1461.2 2035.83 1457.66 Q2034.02 1454.1 2030.39 1454.1 M2030.39 1450.39 Q2036.2 1450.39 2039.26 1455 Q2042.33 1459.58 2042.33 1468.33 Q2042.33 1477.06 2039.26 1481.67 Q2036.2 1486.25 2030.39 1486.25 Q2024.58 1486.25 2021.5 1481.67 Q2018.45 1477.06 2018.45 1468.33 Q2018.45 1459.58 2021.5 1455 Q2024.58 1450.39 2030.39 1450.39 Z" fill="#000000" fill-rule="nonzero" fill-opacity="1" /><path clip-path="url(#clip980)" d="M2060.55 1454.1 Q2056.94 1454.1 2055.11 1457.66 Q2053.31 1461.2 2053.31 1468.33 Q2053.31 1475.44 2055.11 1479.01 Q2056.94 1482.55 2060.55 1482.55 Q2064.19 1482.55 2065.99 1479.01 Q2067.82 1475.44 2067.82 1468.33 Q2067.82 1461.2 2065.99 1457.66 Q2064.19 1454.1 2060.55 1454.1 M2060.55 1450.39 Q2066.36 1450.39 2069.42 1455 Q2072.5 1459.58 2072.5 1468.33 Q2072.5 1477.06 2069.42 1481.67 Q2066.36 1486.25 2060.55 1486.25 Q2054.74 1486.25 2051.66 1481.67 Q2048.61 1477.06 2048.61 1468.33 Q2048.61 1459.58 2051.66 1455 Q2054.74 1450.39 2060.55 1450.39 Z" fill="#000000" fill-rule="nonzero" fill-opacity="1" /><path clip-path="url(#clip980)" d="M1167.64 1520.52 L1207.84 1520.52 L1207.84 1525.93 L1190.97 1525.93 L1190.97 1568.04 L1184.51 1568.04 L1184.51 1525.93 L1167.64 1525.93 L1167.64 1520.52 Z" fill="#000000" fill-rule="nonzero" fill-opacity="1" /><path clip-path="url(#clip980)" d="M1211.79 1532.4 L1217.65 1532.4 L1217.65 1568.04 L1211.79 1568.04 L1211.79 1532.4 M1211.79 1518.52 L1217.65 1518.52 L1217.65 1525.93 L1211.79 1525.93 L1211.79 1518.52 Z" fill="#000000" fill-rule="nonzero" fill-opacity="1" /><path clip-path="url(#clip980)" d="M1257.66 1539.24 Q1259.85 1535.29 1262.91 1533.41 Q1265.96 1531.54 1270.1 1531.54 Q1275.67 1531.54 1278.69 1535.45 Q1281.72 1539.33 1281.72 1546.53 L1281.72 1568.04 L1275.83 1568.04 L1275.83 1546.72 Q1275.83 1541.59 1274.02 1539.11 Q1272.2 1536.63 1268.48 1536.63 Q1263.93 1536.63 1261.28 1539.65 Q1258.64 1542.68 1258.64 1547.9 L1258.64 1568.04 L1252.75 1568.04 L1252.75 1546.72 Q1252.75 1541.56 1250.94 1539.11 Q1249.13 1536.63 1245.34 1536.63 Q1240.85 1536.63 1238.21 1539.68 Q1235.57 1542.71 1235.57 1547.9 L1235.57 1568.04 L1229.68 1568.04 L1229.68 1532.4 L1235.57 1532.4 L1235.57 1537.93 Q1237.57 1534.66 1240.37 1533.1 Q1243.17 1531.54 1247.02 1531.54 Q1250.91 1531.54 1253.61 1533.51 Q1256.35 1535.48 1257.66 1539.24 Z" fill="#000000" fill-rule="nonzero" fill-opacity="1" /><path clip-path="url(#clip980)" d="M1323.89 1548.76 L1323.89 1551.62 L1296.96 1551.62 Q1297.35 1557.67 1300.59 1560.85 Q1303.87 1564 1309.69 1564 Q1313.07 1564 1316.22 1563.17 Q1319.4 1562.35 1322.52 1560.69 L1322.52 1566.23 Q1319.37 1567.57 1316.06 1568.27 Q1312.75 1568.97 1309.34 1568.97 Q1300.81 1568.97 1295.82 1564 Q1290.85 1559.04 1290.85 1550.57 Q1290.85 1541.82 1295.56 1536.69 Q1300.31 1531.54 1308.33 1531.54 Q1315.52 1531.54 1319.69 1536.18 Q1323.89 1540.8 1323.89 1548.76 M1318.03 1547.04 Q1317.97 1542.23 1315.33 1539.37 Q1312.72 1536.5 1308.39 1536.5 Q1303.49 1536.5 1300.53 1539.27 Q1297.6 1542.04 1297.15 1547.07 L1318.03 1547.04 Z" fill="#000000" fill-rule="nonzero" fill-opacity="1" /><path clip-path="url(#clip980)" d="M1368.29 1518.58 Q1364.03 1525.9 1361.96 1533.06 Q1359.89 1540.23 1359.89 1547.58 Q1359.89 1554.93 1361.96 1562.16 Q1364.06 1569.35 1368.29 1576.64 L1363.2 1576.64 Q1358.42 1569.16 1356.04 1561.93 Q1353.68 1554.71 1353.68 1547.58 Q1353.68 1540.48 1356.04 1533.29 Q1358.39 1526.09 1363.2 1518.58 L1368.29 1518.58 Z" fill="#000000" fill-rule="nonzero" fill-opacity="1" /><path clip-path="url(#clip980)" d="M1409.29 1546.53 L1409.29 1568.04 L1403.43 1568.04 L1403.43 1546.72 Q1403.43 1541.66 1401.46 1539.14 Q1399.48 1536.63 1395.54 1536.63 Q1390.79 1536.63 1388.06 1539.65 Q1385.32 1542.68 1385.32 1547.9 L1385.32 1568.04 L1379.43 1568.04 L1379.43 1518.52 L1385.32 1518.52 L1385.32 1537.93 Q1387.42 1534.72 1390.25 1533.13 Q1393.12 1531.54 1396.84 1531.54 Q1402.98 1531.54 1406.14 1535.36 Q1409.29 1539.14 1409.29 1546.53 Z" fill="#000000" fill-rule="nonzero" fill-opacity="1" /><path clip-path="url(#clip980)" d="M1420.04 1518.58 L1425.14 1518.58 Q1429.91 1526.09 1432.27 1533.29 Q1434.65 1540.48 1434.65 1547.58 Q1434.65 1554.71 1432.27 1561.93 Q1429.91 1569.16 1425.14 1576.64 L1420.04 1576.64 Q1424.28 1569.35 1426.35 1562.16 Q1428.45 1554.93 1428.45 1547.58 Q1428.45 1540.23 1426.35 1533.06 Q1424.28 1525.9 1420.04 1518.58 Z" fill="#000000" fill-rule="nonzero" fill-opacity="1" /><polyline clip-path="url(#clip980)" style="stroke:#000000; stroke-linecap:round; stroke-linejoin:round; stroke-width:4; stroke-opacity:1; fill:none" points="249.542,1423.18 249.542,123.472 "/>
<polyline clip-path="url(#clip980)" style="stroke:#000000; stroke-linecap:round; stroke-linejoin:round; stroke-width:4; stroke-opacity:1; fill:none" points="249.542,1386.4 268.44,1386.4 "/>
<polyline clip-path="url(#clip980)" style="stroke:#000000; stroke-linecap:round; stroke-linejoin:round; stroke-width:4; stroke-opacity:1; fill:none" points="249.542,1102.57 268.44,1102.57 "/>
<polyline clip-path="url(#clip980)" style="stroke:#000000; stroke-linecap:round; stroke-linejoin:round; stroke-width:4; stroke-opacity:1; fill:none" points="249.542,818.739 268.44,818.739 "/>
<polyline clip-path="url(#clip980)" style="stroke:#000000; stroke-linecap:round; stroke-linejoin:round; stroke-width:4; stroke-opacity:1; fill:none" points="249.542,534.91 268.44,534.91 "/>
<polyline clip-path="url(#clip980)" style="stroke:#000000; stroke-linecap:round; stroke-linejoin:round; stroke-width:4; stroke-opacity:1; fill:none" points="249.542,251.081 268.44,251.081 "/>
<path clip-path="url(#clip980)" d="M126.205 1372.19 Q122.593 1372.19 120.765 1375.76 Q118.959 1379.3 118.959 1386.43 Q118.959 1393.54 120.765 1397.1 Q122.593 1400.64 126.205 1400.64 Q129.839 1400.64 131.644 1397.1 Q133.473 1393.54 133.473 1386.43 Q133.473 1379.3 131.644 1375.76 Q129.839 1372.19 126.205 1372.19 M126.205 1368.49 Q132.015 1368.49 135.07 1373.1 Q138.149 1377.68 138.149 1386.43 Q138.149 1395.16 135.07 1399.76 Q132.015 1404.35 126.205 1404.35 Q120.394 1404.35 117.316 1399.76 Q114.26 1395.16 114.26 1386.43 Q114.26 1377.68 117.316 1373.1 Q120.394 1368.49 126.205 1368.49 Z" fill="#000000" fill-rule="nonzero" fill-opacity="1" /><path clip-path="url(#clip980)" d="M146.366 1397.8 L151.251 1397.8 L151.251 1403.68 L146.366 1403.68 L146.366 1397.8 Z" fill="#000000" fill-rule="nonzero" fill-opacity="1" /><path clip-path="url(#clip980)" d="M171.436 1372.19 Q167.825 1372.19 165.996 1375.76 Q164.19 1379.3 164.19 1386.43 Q164.19 1393.54 165.996 1397.1 Q167.825 1400.64 171.436 1400.64 Q175.07 1400.64 176.876 1397.1 Q178.704 1393.54 178.704 1386.43 Q178.704 1379.3 176.876 1375.76 Q175.07 1372.19 171.436 1372.19 M171.436 1368.49 Q177.246 1368.49 180.301 1373.1 Q183.38 1377.68 183.38 1386.43 Q183.38 1395.16 180.301 1399.76 Q177.246 1404.35 171.436 1404.35 Q165.626 1404.35 162.547 1399.76 Q159.491 1395.16 159.491 1386.43 Q159.491 1377.68 162.547 1373.1 Q165.626 1368.49 171.436 1368.49 Z" fill="#000000" fill-rule="nonzero" fill-opacity="1" /><path clip-path="url(#clip980)" d="M201.598 1372.19 Q197.987 1372.19 196.158 1375.76 Q194.352 1379.3 194.352 1386.43 Q194.352 1393.54 196.158 1397.1 Q197.987 1400.64 201.598 1400.64 Q205.232 1400.64 207.037 1397.1 Q208.866 1393.54 208.866 1386.43 Q208.866 1379.3 207.037 1375.76 Q205.232 1372.19 201.598 1372.19 M201.598 1368.49 Q207.408 1368.49 210.463 1373.1 Q213.542 1377.68 213.542 1386.43 Q213.542 1395.16 210.463 1399.76 Q207.408 1404.35 201.598 1404.35 Q195.787 1404.35 192.709 1399.76 Q189.653 1395.16 189.653 1386.43 Q189.653 1377.68 192.709 1373.1 Q195.787 1368.49 201.598 1368.49 Z" fill="#000000" fill-rule="nonzero" fill-opacity="1" /><path clip-path="url(#clip980)" d="M127.2 1088.37 Q123.589 1088.37 121.76 1091.93 Q119.955 1095.47 119.955 1102.6 Q119.955 1109.71 121.76 1113.27 Q123.589 1116.81 127.2 1116.81 Q130.834 1116.81 132.64 1113.27 Q134.468 1109.71 134.468 1102.6 Q134.468 1095.47 132.64 1091.93 Q130.834 1088.37 127.2 1088.37 M127.2 1084.66 Q133.01 1084.66 136.066 1089.27 Q139.144 1093.85 139.144 1102.6 Q139.144 1111.33 136.066 1115.94 Q133.01 1120.52 127.2 1120.52 Q121.39 1120.52 118.311 1115.94 Q115.256 1111.33 115.256 1102.6 Q115.256 1093.85 118.311 1089.27 Q121.39 1084.66 127.2 1084.66 Z" fill="#000000" fill-rule="nonzero" fill-opacity="1" /><path clip-path="url(#clip980)" d="M147.362 1113.97 L152.246 1113.97 L152.246 1119.85 L147.362 1119.85 L147.362 1113.97 Z" fill="#000000" fill-rule="nonzero" fill-opacity="1" /><path clip-path="url(#clip980)" d="M166.459 1115.91 L182.778 1115.91 L182.778 1119.85 L160.834 1119.85 L160.834 1115.91 Q163.496 1113.16 168.079 1108.53 Q172.686 1103.87 173.866 1102.53 Q176.112 1100.01 176.991 1098.27 Q177.894 1096.51 177.894 1094.82 Q177.894 1092.07 175.95 1090.33 Q174.028 1088.6 170.927 1088.6 Q168.727 1088.6 166.274 1089.36 Q163.843 1090.13 161.065 1091.68 L161.065 1086.95 Q163.89 1085.82 166.343 1085.24 Q168.797 1084.66 170.834 1084.66 Q176.204 1084.66 179.399 1087.35 Q182.593 1090.03 182.593 1094.52 Q182.593 1096.65 181.783 1098.57 Q180.996 1100.47 178.889 1103.06 Q178.311 1103.74 175.209 1106.95 Q172.107 1110.15 166.459 1115.91 Z" fill="#000000" fill-rule="nonzero" fill-opacity="1" /><path clip-path="url(#clip980)" d="M192.639 1085.29 L210.996 1085.29 L210.996 1089.22 L196.922 1089.22 L196.922 1097.69 Q197.94 1097.35 198.959 1097.19 Q199.977 1097 200.996 1097 Q206.783 1097 210.162 1100.17 Q213.542 1103.34 213.542 1108.76 Q213.542 1114.34 210.07 1117.44 Q206.598 1120.52 200.278 1120.52 Q198.102 1120.52 195.834 1120.15 Q193.588 1119.78 191.181 1119.04 L191.181 1114.34 Q193.264 1115.47 195.487 1116.03 Q197.709 1116.58 200.186 1116.58 Q204.19 1116.58 206.528 1114.48 Q208.866 1112.37 208.866 1108.76 Q208.866 1105.15 206.528 1103.04 Q204.19 1100.94 200.186 1100.94 Q198.311 1100.94 196.436 1101.35 Q194.584 1101.77 192.639 1102.65 L192.639 1085.29 Z" fill="#000000" fill-rule="nonzero" fill-opacity="1" /><path clip-path="url(#clip980)" d="M126.205 804.537 Q122.593 804.537 120.765 808.102 Q118.959 811.644 118.959 818.773 Q118.959 825.88 120.765 829.445 Q122.593 832.986 126.205 832.986 Q129.839 832.986 131.644 829.445 Q133.473 825.88 133.473 818.773 Q133.473 811.644 131.644 808.102 Q129.839 804.537 126.205 804.537 M126.205 800.834 Q132.015 800.834 135.07 805.44 Q138.149 810.023 138.149 818.773 Q138.149 827.5 135.07 832.107 Q132.015 836.69 126.205 836.69 Q120.394 836.69 117.316 832.107 Q114.26 827.5 114.26 818.773 Q114.26 810.023 117.316 805.44 Q120.394 800.834 126.205 800.834 Z" fill="#000000" fill-rule="nonzero" fill-opacity="1" /><path clip-path="url(#clip980)" d="M146.366 830.139 L151.251 830.139 L151.251 836.019 L146.366 836.019 L146.366 830.139 Z" fill="#000000" fill-rule="nonzero" fill-opacity="1" /><path clip-path="url(#clip980)" d="M161.482 801.459 L179.839 801.459 L179.839 805.394 L165.765 805.394 L165.765 813.866 Q166.783 813.519 167.802 813.357 Q168.82 813.171 169.839 813.171 Q175.626 813.171 179.005 816.343 Q182.385 819.514 182.385 824.931 Q182.385 830.509 178.913 833.611 Q175.44 836.69 169.121 836.69 Q166.945 836.69 164.677 836.319 Q162.431 835.949 160.024 835.208 L160.024 830.509 Q162.107 831.644 164.329 832.199 Q166.552 832.755 169.028 832.755 Q173.033 832.755 175.371 830.648 Q177.709 828.542 177.709 824.931 Q177.709 821.32 175.371 819.213 Q173.033 817.107 169.028 817.107 Q167.153 817.107 165.278 817.523 Q163.427 817.94 161.482 818.82 L161.482 801.459 Z" fill="#000000" fill-rule="nonzero" fill-opacity="1" /><path clip-path="url(#clip980)" d="M201.598 804.537 Q197.987 804.537 196.158 808.102 Q194.352 811.644 194.352 818.773 Q194.352 825.88 196.158 829.445 Q197.987 832.986 201.598 832.986 Q205.232 832.986 207.037 829.445 Q208.866 825.88 208.866 818.773 Q208.866 811.644 207.037 808.102 Q205.232 804.537 201.598 804.537 M201.598 800.834 Q207.408 800.834 210.463 805.44 Q213.542 810.023 213.542 818.773 Q213.542 827.5 210.463 832.107 Q207.408 836.69 201.598 836.69 Q195.787 836.69 192.709 832.107 Q189.653 827.5 189.653 818.773 Q189.653 810.023 192.709 805.44 Q195.787 800.834 201.598 800.834 Z" fill="#000000" fill-rule="nonzero" fill-opacity="1" /><path clip-path="url(#clip980)" d="M127.2 520.709 Q123.589 520.709 121.76 524.273 Q119.955 527.815 119.955 534.945 Q119.955 542.051 121.76 545.616 Q123.589 549.158 127.2 549.158 Q130.834 549.158 132.64 545.616 Q134.468 542.051 134.468 534.945 Q134.468 527.815 132.64 524.273 Q130.834 520.709 127.2 520.709 M127.2 517.005 Q133.01 517.005 136.066 521.611 Q139.144 526.195 139.144 534.945 Q139.144 543.672 136.066 548.278 Q133.01 552.861 127.2 552.861 Q121.39 552.861 118.311 548.278 Q115.256 543.672 115.256 534.945 Q115.256 526.195 118.311 521.611 Q121.39 517.005 127.2 517.005 Z" fill="#000000" fill-rule="nonzero" fill-opacity="1" /><path clip-path="url(#clip980)" d="M147.362 546.31 L152.246 546.31 L152.246 552.19 L147.362 552.19 L147.362 546.31 Z" fill="#000000" fill-rule="nonzero" fill-opacity="1" /><path clip-path="url(#clip980)" d="M161.251 517.63 L183.473 517.63 L183.473 519.621 L170.927 552.19 L166.042 552.19 L177.848 521.565 L161.251 521.565 L161.251 517.63 Z" fill="#000000" fill-rule="nonzero" fill-opacity="1" /><path clip-path="url(#clip980)" d="M192.639 517.63 L210.996 517.63 L210.996 521.565 L196.922 521.565 L196.922 530.037 Q197.94 529.69 198.959 529.528 Q199.977 529.343 200.996 529.343 Q206.783 529.343 210.162 532.514 Q213.542 535.685 213.542 541.102 Q213.542 546.681 210.07 549.783 Q206.598 552.861 200.278 552.861 Q198.102 552.861 195.834 552.491 Q193.588 552.121 191.181 551.38 L191.181 546.681 Q193.264 547.815 195.487 548.371 Q197.709 548.926 200.186 548.926 Q204.19 548.926 206.528 546.82 Q208.866 544.713 208.866 541.102 Q208.866 537.491 206.528 535.385 Q204.19 533.278 200.186 533.278 Q198.311 533.278 196.436 533.695 Q194.584 534.111 192.639 534.991 L192.639 517.63 Z" fill="#000000" fill-rule="nonzero" fill-opacity="1" /><path clip-path="url(#clip980)" d="M117.015 264.426 L124.654 264.426 L124.654 238.061 L116.343 239.727 L116.343 235.468 L124.607 233.801 L129.283 233.801 L129.283 264.426 L136.922 264.426 L136.922 268.361 L117.015 268.361 L117.015 264.426 Z" fill="#000000" fill-rule="nonzero" fill-opacity="1" /><path clip-path="url(#clip980)" d="M146.366 262.482 L151.251 262.482 L151.251 268.361 L146.366 268.361 L146.366 262.482 Z" fill="#000000" fill-rule="nonzero" fill-opacity="1" /><path clip-path="url(#clip980)" d="M171.436 236.88 Q167.825 236.88 165.996 240.445 Q164.19 243.987 164.19 251.116 Q164.19 258.223 165.996 261.787 Q167.825 265.329 171.436 265.329 Q175.07 265.329 176.876 261.787 Q178.704 258.223 178.704 251.116 Q178.704 243.987 176.876 240.445 Q175.07 236.88 171.436 236.88 M171.436 233.176 Q177.246 233.176 180.301 237.783 Q183.38 242.366 183.38 251.116 Q183.38 259.843 180.301 264.449 Q177.246 269.033 171.436 269.033 Q165.626 269.033 162.547 264.449 Q159.491 259.843 159.491 251.116 Q159.491 242.366 162.547 237.783 Q165.626 233.176 171.436 233.176 Z" fill="#000000" fill-rule="nonzero" fill-opacity="1" /><path clip-path="url(#clip980)" d="M201.598 236.88 Q197.987 236.88 196.158 240.445 Q194.352 243.987 194.352 251.116 Q194.352 258.223 196.158 261.787 Q197.987 265.329 201.598 265.329 Q205.232 265.329 207.037 261.787 Q208.866 258.223 208.866 251.116 Q208.866 243.987 207.037 240.445 Q205.232 236.88 201.598 236.88 M201.598 233.176 Q207.408 233.176 210.463 237.783 Q213.542 242.366 213.542 251.116 Q213.542 259.843 210.463 264.449 Q207.408 269.033 201.598 269.033 Q195.787 269.033 192.709 264.449 Q189.653 259.843 189.653 251.116 Q189.653 242.366 192.709 237.783 Q195.787 233.176 201.598 233.176 Z" fill="#000000" fill-rule="nonzero" fill-opacity="1" /><path clip-path="url(#clip980)" d="M29.7248 956.945 L35.1993 956.945 Q33.8307 959.427 33.1623 961.942 Q32.4621 964.424 32.4621 966.971 Q32.4621 972.668 36.0905 975.819 Q39.6872 978.97 46.212 978.97 Q52.7369 978.97 56.3653 975.819 Q59.9619 972.668 59.9619 966.971 Q59.9619 964.424 59.2935 961.942 Q58.5933 959.427 57.2247 956.945 L62.6355 956.945 Q63.7814 959.396 64.3543 962.037 Q64.9272 964.647 64.9272 967.607 Q64.9272 975.66 59.8664 980.402 Q54.8057 985.145 46.212 985.145 Q37.491 985.145 32.4939 980.371 Q27.4968 975.564 27.4968 967.225 Q27.4968 964.52 28.0697 961.942 Q28.6108 959.364 29.7248 956.945 Z" fill="#000000" fill-rule="nonzero" fill-opacity="1" /><path clip-path="url(#clip980)" d="M16.4842 953.094 L16.4842 912.894 L21.895 912.894 L21.895 929.763 L64.0042 929.763 L64.0042 936.224 L21.895 936.224 L21.895 953.094 L16.4842 953.094 Z" fill="#000000" fill-rule="nonzero" fill-opacity="1" /><path clip-path="url(#clip980)" d="M42.4881 877.31 L64.0042 877.31 L64.0042 883.166 L42.679 883.166 Q37.6183 883.166 35.1038 885.14 Q32.5894 887.113 32.5894 891.06 Q32.5894 895.802 35.6131 898.539 Q38.6368 901.277 43.8567 901.277 L64.0042 901.277 L64.0042 907.165 L28.3562 907.165 L28.3562 901.277 L33.8944 901.277 Q30.6797 899.176 29.0883 896.343 Q27.4968 893.479 27.4968 889.755 Q27.4968 883.612 31.3163 880.461 Q35.1038 877.31 42.4881 877.31 Z" fill="#000000" fill-rule="nonzero" fill-opacity="1" /><path clip-path="url(#clip980)" d="M16.4842 871.963 L16.4842 831.763 L21.895 831.763 L21.895 848.632 L64.0042 848.632 L64.0042 855.093 L21.895 855.093 L21.895 871.963 L16.4842 871.963 Z" fill="#000000" fill-rule="nonzero" fill-opacity="1" /><path clip-path="url(#clip980)" d="M14.479 805.632 L14.479 792.137 L19.0304 792.137 L19.0304 799.775 L68.0464 799.775 L68.0464 792.137 L72.5979 792.137 L72.5979 805.632 L14.479 805.632 Z" fill="#000000" fill-rule="nonzero" fill-opacity="1" /><path clip-path="url(#clip980)" d="M42.4881 750.027 L64.0042 750.027 L64.0042 755.884 L42.679 755.884 Q37.6183 755.884 35.1038 757.857 Q32.5894 759.831 32.5894 763.777 Q32.5894 768.52 35.6131 771.257 Q38.6368 773.994 43.8567 773.994 L64.0042 773.994 L64.0042 779.883 L28.3562 779.883 L28.3562 773.994 L33.8944 773.994 Q30.6797 771.894 29.0883 769.061 Q27.4968 766.196 27.4968 762.472 Q27.4968 756.33 31.3163 753.179 Q35.1038 750.027 42.4881 750.027 Z" fill="#000000" fill-rule="nonzero" fill-opacity="1" /><path clip-path="url(#clip980)" d="M45.7664 714.889 Q39.4007 714.889 35.8996 717.531 Q32.3984 720.141 32.3984 724.883 Q32.3984 729.594 35.8996 732.235 Q39.4007 734.845 45.7664 734.845 Q52.1003 734.845 55.6014 732.235 Q59.1026 729.594 59.1026 724.883 Q59.1026 720.141 55.6014 717.531 Q52.1003 714.889 45.7664 714.889 M59.58 709.032 Q68.683 709.032 73.1071 713.075 Q77.5631 717.117 77.5631 725.456 Q77.5631 728.543 77.0857 731.28 Q76.6401 734.018 75.6852 736.596 L69.9879 736.596 Q71.3884 734.018 72.0568 731.503 Q72.7252 728.989 72.7252 726.379 Q72.7252 720.618 69.7015 717.753 Q66.7096 714.889 60.6303 714.889 L57.7339 714.889 Q60.885 716.703 62.4446 719.536 Q64.0042 722.369 64.0042 726.315 Q64.0042 732.872 59.0071 736.882 Q54.01 740.893 45.7664 740.893 Q37.491 740.893 32.4939 736.882 Q27.4968 732.872 27.4968 726.315 Q27.4968 722.369 29.0564 719.536 Q30.616 716.703 33.7671 714.889 L28.3562 714.889 L28.3562 709.032 L59.58 709.032 Z" fill="#000000" fill-rule="nonzero" fill-opacity="1" /><path clip-path="url(#clip980)" d="M16.4842 686.561 L16.4842 681.151 L70.0516 697.701 L70.0516 703.112 L16.4842 686.561 Z" fill="#000000" fill-rule="nonzero" fill-opacity="1" /><path clip-path="url(#clip980)" d="M35.1993 647.253 Q31.2526 645.057 29.3747 642.001 Q27.4968 638.946 27.4968 634.808 Q27.4968 629.238 31.4117 626.215 Q35.2948 623.191 42.4881 623.191 L64.0042 623.191 L64.0042 629.079 L42.679 629.079 Q37.5546 629.079 35.072 630.893 Q32.5894 632.708 32.5894 636.431 Q32.5894 640.983 35.6131 643.625 Q38.6368 646.266 43.8567 646.266 L64.0042 646.266 L64.0042 652.155 L42.679 652.155 Q37.5228 652.155 35.072 653.969 Q32.5894 655.783 32.5894 659.571 Q32.5894 664.059 35.6449 666.7 Q38.6686 669.342 43.8567 669.342 L64.0042 669.342 L64.0042 675.23 L28.3562 675.23 L28.3562 669.342 L33.8944 669.342 Q30.616 667.337 29.0564 664.536 Q27.4968 661.735 27.4968 657.884 Q27.4968 654.001 29.4702 651.295 Q31.4436 648.558 35.1993 647.253 Z" fill="#000000" fill-rule="nonzero" fill-opacity="1" /><path clip-path="url(#clip980)" d="M16.4842 611.255 L16.4842 604.826 L58.5933 604.826 L58.5933 581.686 L64.0042 581.686 L64.0042 611.255 L16.4842 611.255 Z" fill="#000000" fill-rule="nonzero" fill-opacity="1" /><path clip-path="url(#clip980)" d="M14.479 561.507 L72.5979 561.507 L72.5979 575.002 L68.0464 575.002 L68.0464 567.395 L19.0304 567.395 L19.0304 575.002 L14.479 575.002 L14.479 561.507 Z" fill="#000000" fill-rule="nonzero" fill-opacity="1" /><path clip-path="url(#clip980)" d="M383.437 43.6931 L383.437 65.8515 L396.562 65.8515 Q403.165 65.8515 406.324 63.1374 Q409.525 60.3828 409.525 54.752 Q409.525 49.0808 406.324 46.4072 Q403.165 43.6931 396.562 43.6931 L383.437 43.6931 M383.437 18.8205 L383.437 37.0496 L395.549 37.0496 Q401.544 37.0496 404.461 34.8216 Q407.418 32.5531 407.418 27.935 Q407.418 23.3575 404.461 21.089 Q401.544 18.8205 395.549 18.8205 L383.437 18.8205 M375.254 12.096 L396.157 12.096 Q405.514 12.096 410.578 15.9849 Q415.642 19.8737 415.642 27.0438 Q415.642 32.5936 413.049 35.8748 Q410.456 39.156 405.433 39.9662 Q411.469 41.2625 414.791 45.3944 Q418.153 49.4858 418.153 55.6432 Q418.153 63.745 412.644 68.1605 Q407.135 72.576 396.967 72.576 L375.254 72.576 L375.254 12.096 Z" fill="#000000" fill-rule="nonzero" fill-opacity="1" /><path clip-path="url(#clip980)" d="M452.464 49.7694 Q443.431 49.7694 439.947 51.8354 Q436.463 53.9013 436.463 58.8839 Q436.463 62.8538 439.056 65.2034 Q441.689 67.5124 446.185 67.5124 Q452.383 67.5124 456.11 63.1374 Q459.877 58.7219 459.877 51.4303 L459.877 49.7694 L452.464 49.7694 M467.331 46.6907 L467.331 72.576 L459.877 72.576 L459.877 65.6895 Q457.325 69.8214 453.518 71.8063 Q449.71 73.7508 444.2 73.7508 Q437.233 73.7508 433.101 69.8619 Q429.01 65.9325 429.01 59.3701 Q429.01 51.7138 434.114 47.825 Q439.258 43.9361 449.426 43.9361 L459.877 43.9361 L459.877 43.2069 Q459.877 38.0623 456.475 35.2672 Q453.112 32.4315 446.996 32.4315 Q443.107 32.4315 439.42 33.3632 Q435.734 34.295 432.331 36.1584 L432.331 29.2718 Q436.423 27.692 440.271 26.9223 Q444.119 26.1121 447.765 26.1121 Q457.609 26.1121 462.47 31.2163 Q467.331 36.3204 467.331 46.6907 Z" fill="#000000" fill-rule="nonzero" fill-opacity="1" /><path clip-path="url(#clip980)" d="M511.607 28.5427 L511.607 35.5912 Q508.448 33.9709 505.045 33.1607 Q501.642 32.3505 497.996 32.3505 Q492.447 32.3505 489.652 34.0519 Q486.897 35.7533 486.897 39.156 Q486.897 41.7486 488.882 43.2475 Q490.867 44.7058 496.862 46.0426 L499.414 46.6097 Q507.354 48.3111 510.676 51.4303 Q514.038 54.509 514.038 60.0587 Q514.038 66.3781 509.015 70.0644 Q504.032 73.7508 495.282 73.7508 Q491.637 73.7508 487.667 73.0216 Q483.737 72.3329 479.362 70.9151 L479.362 63.2184 Q483.494 65.3654 487.505 66.4591 Q491.515 67.5124 495.444 67.5124 Q500.711 67.5124 503.546 65.73 Q506.382 63.9071 506.382 60.6258 Q506.382 57.5877 504.316 55.9673 Q502.29 54.3469 495.363 52.8481 L492.771 52.2405 Q485.844 50.7821 482.765 47.7845 Q479.686 44.7463 479.686 39.4801 Q479.686 33.0797 484.223 29.5959 Q488.76 26.1121 497.105 26.1121 Q501.237 26.1121 504.883 26.7198 Q508.529 27.3274 511.607 28.5427 Z" fill="#000000" fill-rule="nonzero" fill-opacity="1" /><path clip-path="url(#clip980)" d="M564.715 48.0275 L564.715 51.6733 L530.444 51.6733 Q530.93 59.3701 535.062 63.421 Q539.235 67.4314 546.648 67.4314 Q550.942 67.4314 554.952 66.3781 Q559.003 65.3249 562.973 63.2184 L562.973 70.267 Q558.963 71.9684 554.75 72.8596 Q550.537 73.7508 546.202 73.7508 Q535.346 73.7508 528.986 67.4314 Q522.666 61.1119 522.666 50.3365 Q522.666 39.1965 528.662 32.6746 Q534.698 26.1121 544.906 26.1121 Q554.061 26.1121 559.368 32.0264 Q564.715 37.9003 564.715 48.0275 M557.261 45.84 Q557.18 39.7232 553.818 36.0774 Q550.496 32.4315 544.987 32.4315 Q538.749 32.4315 534.981 35.9558 Q531.254 39.4801 530.687 45.8805 L557.261 45.84 Z" fill="#000000" fill-rule="nonzero" fill-opacity="1" /><path clip-path="url(#clip980)" d="M603.644 12.096 L615.837 12.096 L631.271 53.2532 L646.786 12.096 L658.979 12.096 L658.979 72.576 L650.999 72.576 L650.999 19.4686 L635.403 60.9499 L627.18 60.9499 L611.584 19.4686 L611.584 72.576 L603.644 72.576 L603.644 12.096 Z" fill="#000000" fill-rule="nonzero" fill-opacity="1" /><path clip-path="url(#clip980)" d="M675.224 12.096 L683.406 12.096 L683.406 72.576 L675.224 72.576 L675.224 12.096 Z" fill="#000000" fill-rule="nonzero" fill-opacity="1" /><path clip-path="url(#clip980)" d="M699.691 12.096 L711.884 12.096 L727.318 53.2532 L742.833 12.096 L755.026 12.096 L755.026 72.576 L747.046 72.576 L747.046 19.4686 L731.45 60.9499 L723.227 60.9499 L707.631 19.4686 L707.631 72.576 L699.691 72.576 L699.691 12.096 Z" fill="#000000" fill-rule="nonzero" fill-opacity="1" /><path clip-path="url(#clip980)" d="M771.27 12.096 L779.453 12.096 L779.453 72.576 L771.27 72.576 L771.27 12.096 Z" fill="#000000" fill-rule="nonzero" fill-opacity="1" /><path clip-path="url(#clip980)" d="M841.027 16.7545 L841.027 25.383 Q836.895 21.5346 832.196 19.6307 Q827.538 17.7268 822.271 17.7268 Q811.901 17.7268 806.392 24.0867 Q800.883 30.4061 800.883 42.3968 Q800.883 54.3469 806.392 60.7069 Q811.901 67.0263 822.271 67.0263 Q827.538 67.0263 832.196 65.1223 Q836.895 63.2184 841.027 59.3701 L841.027 67.9175 Q836.733 70.8341 831.912 72.2924 Q827.132 73.7508 821.785 73.7508 Q808.053 73.7508 800.153 65.3654 Q792.254 56.9395 792.254 42.3968 Q792.254 27.8135 800.153 19.4281 Q808.053 11.0023 821.785 11.0023 Q827.213 11.0023 831.993 12.4606 Q836.814 13.8784 841.027 16.7545 Z" fill="#000000" fill-rule="nonzero" fill-opacity="1" /><path clip-path="url(#clip980)" d="M887.815 86.3491 L887.815 92.1419 L844.713 92.1419 L844.713 86.3491 L887.815 86.3491 Z" fill="#000000" fill-rule="nonzero" fill-opacity="1" /><path clip-path="url(#clip980)" d="M932.537 45.1919 L932.537 72.576 L925.083 72.576 L925.083 45.4349 Q925.083 38.994 922.572 35.7938 Q920.06 32.5936 915.037 32.5936 Q909.001 32.5936 905.517 36.4419 Q902.034 40.2903 902.034 46.9338 L902.034 72.576 L894.539 72.576 L894.539 27.2059 L902.034 27.2059 L902.034 34.2544 Q904.707 30.163 908.313 28.1376 Q911.958 26.1121 916.698 26.1121 Q924.516 26.1121 928.527 30.9732 Q932.537 35.7938 932.537 45.1919 Z" fill="#000000" fill-rule="nonzero" fill-opacity="1" /><path clip-path="url(#clip980)" d="M946.391 12.096 L985.28 12.096 L985.28 15.5798 L963.324 72.576 L954.776 72.576 L975.436 18.9825 L946.391 18.9825 L946.391 12.096 Z" fill="#000000" fill-rule="nonzero" fill-opacity="1" /><path clip-path="url(#clip980)" d="M1019.75 39.075 Q1014.24 39.075 1011 42.8424 Q1007.8 46.6097 1007.8 53.1722 Q1007.8 59.6941 1011 63.502 Q1014.24 67.2693 1019.75 67.2693 Q1025.26 67.2693 1028.46 63.502 Q1031.7 59.6941 1031.7 53.1722 Q1031.7 46.6097 1028.46 42.8424 Q1025.26 39.075 1019.75 39.075 M1036 13.4328 L1036 20.8865 Q1032.92 19.4281 1029.76 18.6585 Q1026.64 17.8888 1023.56 17.8888 Q1015.46 17.8888 1011.16 23.3575 Q1006.91 28.8262 1006.3 39.8852 Q1008.69 36.3609 1012.3 34.4975 Q1015.9 32.5936 1020.24 32.5936 Q1029.35 32.5936 1034.62 38.1433 Q1039.93 43.6525 1039.93 53.1722 Q1039.93 62.4892 1034.42 68.12 Q1028.91 73.7508 1019.75 73.7508 Q1009.26 73.7508 1003.71 65.73 Q998.162 57.6687 998.162 42.3968 Q998.162 28.0566 1004.97 19.5497 Q1011.77 11.0023 1023.24 11.0023 Q1026.32 11.0023 1029.43 11.6099 Q1032.59 12.2175 1036 13.4328 Z" fill="#000000" fill-rule="nonzero" fill-opacity="1" /><path clip-path="url(#clip980)" d="M1072.54 39.075 Q1067.03 39.075 1063.79 42.8424 Q1060.59 46.6097 1060.59 53.1722 Q1060.59 59.6941 1063.79 63.502 Q1067.03 67.2693 1072.54 67.2693 Q1078.05 67.2693 1081.25 63.502 Q1084.49 59.6941 1084.49 53.1722 Q1084.49 46.6097 1081.25 42.8424 Q1078.05 39.075 1072.54 39.075 M1088.78 13.4328 L1088.78 20.8865 Q1085.7 19.4281 1082.54 18.6585 Q1079.42 17.8888 1076.34 17.8888 Q1068.24 17.8888 1063.95 23.3575 Q1059.69 28.8262 1059.09 39.8852 Q1061.48 36.3609 1065.08 34.4975 Q1068.69 32.5936 1073.02 32.5936 Q1082.14 32.5936 1087.4 38.1433 Q1092.71 43.6525 1092.71 53.1722 Q1092.71 62.4892 1087.2 68.12 Q1081.69 73.7508 1072.54 73.7508 Q1062.04 73.7508 1056.49 65.73 Q1050.94 57.6687 1050.94 42.3968 Q1050.94 28.0566 1057.75 19.5497 Q1064.56 11.0023 1076.02 11.0023 Q1079.1 11.0023 1082.22 11.6099 Q1085.38 12.2175 1088.78 13.4328 Z" fill="#000000" fill-rule="nonzero" fill-opacity="1" /><path clip-path="url(#clip980)" d="M1128.36 46.5287 L1150.19 46.5287 L1150.19 53.1722 L1128.36 53.1722 L1128.36 46.5287 Z" fill="#000000" fill-rule="nonzero" fill-opacity="1" /><path clip-path="url(#clip980)" d="M1188.76 12.096 L1200.95 12.096 L1216.38 53.2532 L1231.9 12.096 L1244.09 12.096 L1244.09 72.576 L1236.11 72.576 L1236.11 19.4686 L1220.52 60.9499 L1212.29 60.9499 L1196.7 19.4686 L1196.7 72.576 L1188.76 72.576 L1188.76 12.096 Z" fill="#000000" fill-rule="nonzero" fill-opacity="1" /><path clip-path="url(#clip980)" d="M1260.34 12.096 L1268.52 12.096 L1268.52 72.576 L1260.34 72.576 L1260.34 12.096 Z" fill="#000000" fill-rule="nonzero" fill-opacity="1" /><path clip-path="url(#clip980)" d="M1284.8 12.096 L1297 12.096 L1312.43 53.2532 L1327.95 12.096 L1340.14 12.096 L1340.14 72.576 L1332.16 72.576 L1332.16 19.4686 L1316.56 60.9499 L1308.34 60.9499 L1292.74 19.4686 L1292.74 72.576 L1284.8 72.576 L1284.8 12.096 Z" fill="#000000" fill-rule="nonzero" fill-opacity="1" /><path clip-path="url(#clip980)" d="M1356.38 12.096 L1364.57 12.096 L1364.57 72.576 L1356.38 72.576 L1356.38 12.096 Z" fill="#000000" fill-rule="nonzero" fill-opacity="1" /><path clip-path="url(#clip980)" d="M1426.14 16.7545 L1426.14 25.383 Q1422.01 21.5346 1417.31 19.6307 Q1412.65 17.7268 1407.38 17.7268 Q1397.01 17.7268 1391.5 24.0867 Q1386 30.4061 1386 42.3968 Q1386 54.3469 1391.5 60.7069 Q1397.01 67.0263 1407.38 67.0263 Q1412.65 67.0263 1417.31 65.1223 Q1422.01 63.2184 1426.14 59.3701 L1426.14 67.9175 Q1421.85 70.8341 1417.03 72.2924 Q1412.25 73.7508 1406.9 73.7508 Q1393.17 73.7508 1385.27 65.3654 Q1377.37 56.9395 1377.37 42.3968 Q1377.37 27.8135 1385.27 19.4281 Q1393.17 11.0023 1406.9 11.0023 Q1412.33 11.0023 1417.11 12.4606 Q1421.93 13.8784 1426.14 16.7545 Z" fill="#000000" fill-rule="nonzero" fill-opacity="1" /><path clip-path="url(#clip980)" d="M1472.93 86.3491 L1472.93 92.1419 L1429.83 92.1419 L1429.83 86.3491 L1472.93 86.3491 Z" fill="#000000" fill-rule="nonzero" fill-opacity="1" /><path clip-path="url(#clip980)" d="M1517.65 45.1919 L1517.65 72.576 L1510.2 72.576 L1510.2 45.4349 Q1510.2 38.994 1507.68 35.7938 Q1505.17 32.5936 1500.15 32.5936 Q1494.11 32.5936 1490.63 36.4419 Q1487.15 40.2903 1487.15 46.9338 L1487.15 72.576 L1479.65 72.576 L1479.65 27.2059 L1487.15 27.2059 L1487.15 34.2544 Q1489.82 30.163 1493.43 28.1376 Q1497.07 26.1121 1501.81 26.1121 Q1509.63 26.1121 1513.64 30.9732 Q1517.65 35.7938 1517.65 45.1919 Z" fill="#000000" fill-rule="nonzero" fill-opacity="1" /><path clip-path="url(#clip980)" d="M1531.5 12.096 L1570.39 12.096 L1570.39 15.5798 L1548.44 72.576 L1539.89 72.576 L1560.55 18.9825 L1531.5 18.9825 L1531.5 12.096 Z" fill="#000000" fill-rule="nonzero" fill-opacity="1" /><path clip-path="url(#clip980)" d="M1604.87 39.075 Q1599.36 39.075 1596.12 42.8424 Q1592.92 46.6097 1592.92 53.1722 Q1592.92 59.6941 1596.12 63.502 Q1599.36 67.2693 1604.87 67.2693 Q1610.37 67.2693 1613.57 63.502 Q1616.82 59.6941 1616.82 53.1722 Q1616.82 46.6097 1613.57 42.8424 Q1610.37 39.075 1604.87 39.075 M1621.11 13.4328 L1621.11 20.8865 Q1618.03 19.4281 1614.87 18.6585 Q1611.75 17.8888 1608.67 17.8888 Q1600.57 17.8888 1596.28 23.3575 Q1592.02 28.8262 1591.42 39.8852 Q1593.81 36.3609 1597.41 34.4975 Q1601.02 32.5936 1605.35 32.5936 Q1614.47 32.5936 1619.73 38.1433 Q1625.04 43.6525 1625.04 53.1722 Q1625.04 62.4892 1619.53 68.12 Q1614.02 73.7508 1604.87 73.7508 Q1594.37 73.7508 1588.82 65.73 Q1583.27 57.6687 1583.27 42.3968 Q1583.27 28.0566 1590.08 19.5497 Q1596.89 11.0023 1608.35 11.0023 Q1611.43 11.0023 1614.55 11.6099 Q1617.71 12.2175 1621.11 13.4328 Z" fill="#000000" fill-rule="nonzero" fill-opacity="1" /><path clip-path="url(#clip980)" d="M1657.65 39.075 Q1652.14 39.075 1648.9 42.8424 Q1645.7 46.6097 1645.7 53.1722 Q1645.7 59.6941 1648.9 63.502 Q1652.14 67.2693 1657.65 67.2693 Q1663.16 67.2693 1666.36 63.502 Q1669.6 59.6941 1669.6 53.1722 Q1669.6 46.6097 1666.36 42.8424 Q1663.16 39.075 1657.65 39.075 M1673.89 13.4328 L1673.89 20.8865 Q1670.81 19.4281 1667.65 18.6585 Q1664.54 17.8888 1661.46 17.8888 Q1653.35 17.8888 1649.06 23.3575 Q1644.81 28.8262 1644.2 39.8852 Q1646.59 36.3609 1650.2 34.4975 Q1653.8 32.5936 1658.13 32.5936 Q1667.25 32.5936 1672.52 38.1433 Q1677.82 43.6525 1677.82 53.1722 Q1677.82 62.4892 1672.31 68.12 Q1666.8 73.7508 1657.65 73.7508 Q1647.16 73.7508 1641.61 65.73 Q1636.06 57.6687 1636.06 42.3968 Q1636.06 28.0566 1642.86 19.5497 Q1649.67 11.0023 1661.13 11.0023 Q1664.21 11.0023 1667.33 11.6099 Q1670.49 12.2175 1673.89 13.4328 Z" fill="#000000" fill-rule="nonzero" fill-opacity="1" /><path clip-path="url(#clip980)" d="M1725.34 86.3491 L1725.34 92.1419 L1682.24 92.1419 L1682.24 86.3491 L1725.34 86.3491 Z" fill="#000000" fill-rule="nonzero" fill-opacity="1" /><path clip-path="url(#clip980)" d="M1732.67 12.096 L1744.86 12.096 L1760.3 53.2532 L1775.81 12.096 L1788.01 12.096 L1788.01 72.576 L1780.03 72.576 L1780.03 19.4686 L1764.43 60.9499 L1756.21 60.9499 L1740.61 19.4686 L1740.61 72.576 L1732.67 72.576 L1732.67 12.096 Z" fill="#000000" fill-rule="nonzero" fill-opacity="1" /><path clip-path="url(#clip980)" d="M1804.25 12.096 L1812.43 12.096 L1812.43 72.576 L1804.25 72.576 L1804.25 12.096 Z" fill="#000000" fill-rule="nonzero" fill-opacity="1" /><path clip-path="url(#clip980)" d="M1836.9 18.8205 L1836.9 65.8515 L1846.79 65.8515 Q1859.3 65.8515 1865.1 60.1802 Q1870.93 54.509 1870.93 42.2752 Q1870.93 30.1225 1865.1 24.4918 Q1859.3 18.8205 1846.79 18.8205 L1836.9 18.8205 M1828.72 12.096 L1845.53 12.096 Q1863.11 12.096 1871.33 19.4281 Q1879.56 26.7198 1879.56 42.2752 Q1879.56 57.9117 1871.29 65.2439 Q1863.03 72.576 1845.53 72.576 L1828.72 72.576 L1828.72 12.096 Z" fill="#000000" fill-rule="nonzero" fill-opacity="1" /><path clip-path="url(#clip980)" d="M1926.75 86.3491 L1926.75 92.1419 L1883.65 92.1419 L1883.65 86.3491 L1926.75 86.3491 Z" fill="#000000" fill-rule="nonzero" fill-opacity="1" /><path clip-path="url(#clip980)" d="M1970.34 14.0809 L1970.34 22.0612 Q1965.68 19.8332 1961.55 18.7395 Q1957.42 17.6457 1953.57 17.6457 Q1946.88 17.6457 1943.24 20.2383 Q1939.63 22.8309 1939.63 27.611 Q1939.63 31.6214 1942.02 33.6873 Q1944.45 35.7128 1951.18 36.9686 L1956.12 37.9813 Q1965.27 39.7232 1969.61 44.1387 Q1973.98 48.5136 1973.98 55.8863 Q1973.98 64.6767 1968.07 69.2137 Q1962.2 73.7508 1950.81 73.7508 Q1946.52 73.7508 1941.66 72.7785 Q1936.84 71.8063 1931.65 69.9024 L1931.65 61.4765 Q1936.63 64.2716 1941.41 65.6895 Q1946.19 67.1073 1950.81 67.1073 Q1957.82 67.1073 1961.63 64.3527 Q1965.44 61.598 1965.44 56.4939 Q1965.44 52.0379 1962.68 49.5264 Q1959.97 47.0148 1953.73 45.759 L1948.75 44.7868 Q1939.59 42.9639 1935.5 39.075 Q1931.41 35.1862 1931.41 28.2591 Q1931.41 20.2383 1937.04 15.6203 Q1942.71 11.0023 1952.64 11.0023 Q1956.89 11.0023 1961.3 11.7719 Q1965.72 12.5416 1970.34 14.0809 Z" fill="#000000" fill-rule="nonzero" fill-opacity="1" /><path clip-path="url(#clip980)" d="M1988.89 65.6895 L2002.26 65.6895 L2002.26 19.5497 L1987.72 22.4663 L1987.72 15.0127 L2002.18 12.096 L2010.36 12.096 L2010.36 65.6895 L2023.73 65.6895 L2023.73 72.576 L1988.89 72.576 L1988.89 65.6895 Z" fill="#000000" fill-rule="nonzero" fill-opacity="1" /><path clip-path="url(#clip980)" d="M2073.68 86.3491 L2073.68 92.1419 L2030.58 92.1419 L2030.58 86.3491 L2073.68 86.3491 Z" fill="#000000" fill-rule="nonzero" fill-opacity="1" /><path clip-path="url(#clip980)" d="M2089.19 43.6931 L2089.19 65.8515 L2102.32 65.8515 Q2108.92 65.8515 2112.08 63.1374 Q2115.28 60.3828 2115.28 54.752 Q2115.28 49.0808 2112.08 46.4072 Q2108.92 43.6931 2102.32 43.6931 L2089.19 43.6931 M2089.19 18.8205 L2089.19 37.0496 L2101.3 37.0496 Q2107.3 37.0496 2110.22 34.8216 Q2113.17 32.5531 2113.17 27.935 Q2113.17 23.3575 2110.22 21.089 Q2107.3 18.8205 2101.3 18.8205 L2089.19 18.8205 M2081.01 12.096 L2101.91 12.096 Q2111.27 12.096 2116.33 15.9849 Q2121.4 19.8737 2121.4 27.0438 Q2121.4 32.5936 2118.8 35.8748 Q2116.21 39.156 2111.19 39.9662 Q2117.22 41.2625 2120.55 45.3944 Q2123.91 49.4858 2123.91 55.6432 Q2123.91 63.745 2118.4 68.1605 Q2112.89 72.576 2102.72 72.576 L2081.01 72.576 L2081.01 12.096 Z" fill="#000000" fill-rule="nonzero" fill-opacity="1" /><path clip-path="url(#clip980)" d="M2156.15 17.4837 Q2149.83 17.4837 2146.63 23.7221 Q2143.47 29.92 2143.47 42.3968 Q2143.47 54.833 2146.63 61.0714 Q2149.83 67.2693 2156.15 67.2693 Q2162.51 67.2693 2165.67 61.0714 Q2168.87 54.833 2168.87 42.3968 Q2168.87 29.92 2165.67 23.7221 Q2162.51 17.4837 2156.15 17.4837 M2156.15 11.0023 Q2166.32 11.0023 2171.67 19.0636 Q2177.06 27.0843 2177.06 42.3968 Q2177.06 57.6687 2171.67 65.73 Q2166.32 73.7508 2156.15 73.7508 Q2145.99 73.7508 2140.6 65.73 Q2135.25 57.6687 2135.25 42.3968 Q2135.25 27.0843 2140.6 19.0636 Q2145.99 11.0023 2156.15 11.0023 Z" fill="#000000" fill-rule="nonzero" fill-opacity="1" /><path clip-path="url(#clip980)" d="M2198.49 65.6895 L2227.04 65.6895 L2227.04 72.576 L2188.64 72.576 L2188.64 65.6895 Q2193.3 60.8689 2201.32 52.7671 Q2209.38 44.6248 2211.45 42.2752 Q2215.38 37.8598 2216.92 34.8216 Q2218.5 31.7429 2218.5 28.7857 Q2218.5 23.9651 2215.09 20.927 Q2211.73 17.8888 2206.3 17.8888 Q2202.45 17.8888 2198.16 19.2256 Q2193.91 20.5624 2189.05 23.2765 L2189.05 15.0127 Q2193.99 13.0277 2198.28 12.015 Q2202.58 11.0023 2206.14 11.0023 Q2215.54 11.0023 2221.13 15.7013 Q2226.72 20.4004 2226.72 28.2591 Q2226.72 31.9859 2225.3 35.3482 Q2223.92 38.6699 2220.24 43.2069 Q2219.23 44.3817 2213.8 50.0125 Q2208.37 55.6027 2198.49 65.6895 Z" fill="#000000" fill-rule="nonzero" fill-opacity="1" /><polyline clip-path="url(#clip981)" style="stroke:#009af9; stroke-linecap:round; stroke-linejoin:round; stroke-width:8; stroke-opacity:1; fill:none" points="309.067,1386.4 326.291,1138.05 343.514,939.352 360.738,781.663 377.962,657.816 395.185,561.87 412.409,488.884 429.632,434.773 446.856,396.131 464.08,370.155 481.303,354.511 498.527,347.252 515.751,346.798 532.974,351.823 550.198,361.216 567.422,374.078 584.645,389.68 601.869,407.396 619.093,426.698 636.316,447.18 653.54,468.511 670.764,490.401 687.987,512.591 705.211,534.854 722.434,557.049 739.658,579.014 756.882,600.524 774.105,621.29 791.329,641.004 808.553,659.141 825.776,675.083 843,688.322 860.224,698.46 877.447,705.208 894.671,708.54 911.895,708.752 929.118,706.184 946.342,701.193 963.566,694.152 980.789,685.465 998.013,675.522 1015.24,664.612 1032.46,653.001 1049.68,640.931 1066.91,628.621 1084.13,616.257 1101.35,603.94 1118.58,591.75 1135.8,579.76 1153.03,568.042 1170.25,556.664 1187.47,545.688 1204.7,535.143 1221.92,525.025 1239.14,515.339 1256.37,506.088 1273.59,497.276 1290.81,488.91 1308.04,480.994 1325.26,473.529 1342.49,466.497 1359.71,459.884 1376.93,453.676 1394.16,447.859 1411.38,442.422 1428.6,437.356 1445.83,432.652 1463.05,428.303 1480.27,424.298 1497.5,420.62 1514.72,417.254 1531.95,414.186 1549.17,411.405 1566.39,408.898 1583.62,406.654 1600.84,404.663 1618.06,402.915 1635.29,401.4 1652.51,400.11 1669.73,399.033 1686.96,398.155 1704.18,397.47 1721.41,396.97 1738.63,396.647 1755.85,396.496 1773.08,396.509 1790.3,396.678 1807.52,396.996 1824.75,397.454 1841.97,398.047 1859.2,398.765 1876.42,399.602 1893.64,400.548 1910.87,401.596 1928.09,402.738 1945.31,403.973 1962.54,405.298 1979.76,406.712 1996.98,408.211 2014.21,409.793 2031.43,411.455 2048.66,413.194 2065.88,415.005 2083.1,416.885 2100.33,418.828 2117.55,420.83 2134.77,422.886 2152,424.99 2169.22,427.136 2186.44,429.319 2203.67,431.542 2220.89,433.807 2238.12,436.113 2255.34,438.457 2272.56,440.837 2289.79,443.251 2293.23,443.737 "/>
<line clip-path="url(#clip981)" x1="1143.84" y1="989.036" x2="1115.84" y2="961.036" style="stroke:#dc143c; stroke-width:6.4; stroke-opacity:1"/>
<line clip-path="url(#clip981)" x1="1143.84" y1="989.036" x2="1115.84" y2="1017.04" style="stroke:#dc143c; stroke-width:6.4; stroke-opacity:1"/>
<line clip-path="url(#clip981)" x1="1143.84" y1="989.036" x2="1171.84" y2="1017.04" style="stroke:#dc143c; stroke-width:6.4; stroke-opacity:1"/>
<line clip-path="url(#clip981)" x1="1143.84" y1="989.036" x2="1171.84" y2="961.036" style="stroke:#dc143c; stroke-width:6.4; stroke-opacity:1"/>
<line clip-path="url(#clip981)" x1="1295.69" y1="614.382" x2="1267.69" y2="586.382" style="stroke:#dc143c; stroke-width:6.4; stroke-opacity:1"/>
<line clip-path="url(#clip981)" x1="1295.69" y1="614.382" x2="1267.69" y2="642.382" style="stroke:#dc143c; stroke-width:6.4; stroke-opacity:1"/>
<line clip-path="url(#clip981)" x1="1295.69" y1="614.382" x2="1323.69" y2="642.382" style="stroke:#dc143c; stroke-width:6.4; stroke-opacity:1"/>
<line clip-path="url(#clip981)" x1="1295.69" y1="614.382" x2="1323.69" y2="586.382" style="stroke:#dc143c; stroke-width:6.4; stroke-opacity:1"/>
<circle clip-path="url(#clip981)" cx="467.524" cy="455.438" r="18" fill="#1e90ff" fill-rule="evenodd" fill-opacity="1" stroke="#000000" stroke-opacity="1" stroke-width="3.2"/>
<circle clip-path="url(#clip981)" cx="578.043" cy="160.256" r="18" fill="#1e90ff" fill-rule="evenodd" fill-opacity="1" stroke="#000000" stroke-opacity="1" stroke-width="3.2"/>
<circle clip-path="url(#clip981)" cx="696.886" cy="614.382" r="18" fill="#1e90ff" fill-rule="evenodd" fill-opacity="1" stroke="#000000" stroke-opacity="1" stroke-width="3.2"/>
<circle clip-path="url(#clip981)" cx="879.457" cy="705.207" r="18" fill="#1e90ff" fill-rule="evenodd" fill-opacity="1" stroke="#000000" stroke-opacity="1" stroke-width="3.2"/>
<circle clip-path="url(#clip981)" cx="1401.91" cy="455.438" r="18" fill="#1e90ff" fill-rule="evenodd" fill-opacity="1" stroke="#000000" stroke-opacity="1" stroke-width="3.2"/>
<circle clip-path="url(#clip981)" cx="1548.6" cy="398.672" r="18" fill="#1e90ff" fill-rule="evenodd" fill-opacity="1" stroke="#000000" stroke-opacity="1" stroke-width="3.2"/>
<circle clip-path="url(#clip981)" cx="1707.63" cy="387.319" r="18" fill="#1e90ff" fill-rule="evenodd" fill-opacity="1" stroke="#000000" stroke-opacity="1" stroke-width="3.2"/>
<circle clip-path="url(#clip981)" cx="2120.99" cy="432.732" r="18" fill="#1e90ff" fill-rule="evenodd" fill-opacity="1" stroke="#000000" stroke-opacity="1" stroke-width="3.2"/>
<path clip-path="url(#clip980)" d="M1486.31 1379.86 L2282.65 1379.86 L2282.65 1172.5 L1486.31 1172.5  Z" fill="#ffffff" fill-rule="evenodd" fill-opacity="1"/>
<polyline clip-path="url(#clip980)" style="stroke:#000000; stroke-linecap:round; stroke-linejoin:round; stroke-width:4; stroke-opacity:1; fill:none" points="1486.31,1379.86 2282.65,1379.86 2282.65,1172.5 1486.31,1172.5 1486.31,1379.86 "/>
<polyline clip-path="url(#clip980)" style="stroke:#009af9; stroke-linecap:round; stroke-linejoin:round; stroke-width:8; stroke-opacity:1; fill:none" points="1509.68,1224.34 1649.9,1224.34 "/>
<path clip-path="url(#clip980)" d="M1673.26 1207.06 L1680.23 1207.06 L1689.05 1230.57 L1697.92 1207.06 L1704.88 1207.06 L1704.88 1241.62 L1700.32 1241.62 L1700.32 1211.27 L1691.41 1234.97 L1686.71 1234.97 L1677.8 1211.27 L1677.8 1241.62 L1673.26 1241.62 L1673.26 1207.06 Z" fill="#000000" fill-rule="nonzero" fill-opacity="1" /><path clip-path="url(#clip980)" d="M1724.03 1218.68 Q1720.6 1218.68 1718.61 1221.36 Q1716.62 1224.02 1716.62 1228.68 Q1716.62 1233.33 1718.59 1236.01 Q1720.58 1238.68 1724.03 1238.68 Q1727.43 1238.68 1729.42 1235.99 Q1731.41 1233.31 1731.41 1228.68 Q1731.41 1224.07 1729.42 1221.38 Q1727.43 1218.68 1724.03 1218.68 M1724.03 1215.07 Q1729.58 1215.07 1732.75 1218.68 Q1735.93 1222.29 1735.93 1228.68 Q1735.93 1235.04 1732.75 1238.68 Q1729.58 1242.29 1724.03 1242.29 Q1718.45 1242.29 1715.28 1238.68 Q1712.13 1235.04 1712.13 1228.68 Q1712.13 1222.29 1715.28 1218.68 Q1718.45 1215.07 1724.03 1215.07 Z" fill="#000000" fill-rule="nonzero" fill-opacity="1" /><path clip-path="url(#clip980)" d="M1760.05 1219.63 L1760.05 1205.6 L1764.31 1205.6 L1764.31 1241.62 L1760.05 1241.62 L1760.05 1237.73 Q1758.7 1240.04 1756.64 1241.18 Q1754.61 1242.29 1751.74 1242.29 Q1747.04 1242.29 1744.07 1238.54 Q1741.13 1234.79 1741.13 1228.68 Q1741.13 1222.57 1744.07 1218.82 Q1747.04 1215.07 1751.74 1215.07 Q1754.61 1215.07 1756.64 1216.2 Q1758.7 1217.31 1760.05 1219.63 M1745.53 1228.68 Q1745.53 1233.38 1747.45 1236.06 Q1749.4 1238.72 1752.78 1238.72 Q1756.16 1238.72 1758.1 1236.06 Q1760.05 1233.38 1760.05 1228.68 Q1760.05 1223.98 1758.1 1221.32 Q1756.16 1218.63 1752.78 1218.63 Q1749.4 1218.63 1747.45 1221.32 Q1745.53 1223.98 1745.53 1228.68 Z" fill="#000000" fill-rule="nonzero" fill-opacity="1" /><path clip-path="url(#clip980)" d="M1795.25 1227.59 L1795.25 1229.67 L1775.67 1229.67 Q1775.95 1234.07 1778.31 1236.38 Q1780.69 1238.68 1784.93 1238.68 Q1787.38 1238.68 1789.68 1238.07 Q1791.99 1237.47 1794.26 1236.27 L1794.26 1240.3 Q1791.97 1241.27 1789.56 1241.78 Q1787.15 1242.29 1784.68 1242.29 Q1778.47 1242.29 1774.84 1238.68 Q1771.23 1235.07 1771.23 1228.91 Q1771.23 1222.54 1774.65 1218.82 Q1778.1 1215.07 1783.94 1215.07 Q1789.17 1215.07 1792.2 1218.45 Q1795.25 1221.8 1795.25 1227.59 M1791 1226.34 Q1790.95 1222.84 1789.03 1220.76 Q1787.13 1218.68 1783.98 1218.68 Q1780.42 1218.68 1778.26 1220.69 Q1776.13 1222.7 1775.81 1226.36 L1791 1226.34 Z" fill="#000000" fill-rule="nonzero" fill-opacity="1" /><path clip-path="url(#clip980)" d="M1802.25 1205.6 L1806.5 1205.6 L1806.5 1241.62 L1802.25 1241.62 L1802.25 1205.6 Z" fill="#000000" fill-rule="nonzero" fill-opacity="1" /><path clip-path="url(#clip980)" d="M1849.14 1216.69 L1849.14 1220.67 Q1847.34 1219.67 1845.51 1219.19 Q1843.7 1218.68 1841.85 1218.68 Q1837.71 1218.68 1835.42 1221.32 Q1833.12 1223.93 1833.12 1228.68 Q1833.12 1233.42 1835.42 1236.06 Q1837.71 1238.68 1841.85 1238.68 Q1843.7 1238.68 1845.51 1238.19 Q1847.34 1237.68 1849.14 1236.69 L1849.14 1240.62 Q1847.36 1241.45 1845.44 1241.87 Q1843.54 1242.29 1841.39 1242.29 Q1835.53 1242.29 1832.08 1238.61 Q1828.63 1234.93 1828.63 1228.68 Q1828.63 1222.33 1832.11 1218.7 Q1835.6 1215.07 1841.67 1215.07 Q1843.63 1215.07 1845.51 1215.48 Q1847.38 1215.88 1849.14 1216.69 Z" fill="#000000" fill-rule="nonzero" fill-opacity="1" /><path clip-path="url(#clip980)" d="M1856.11 1231.38 L1856.11 1215.69 L1860.37 1215.69 L1860.37 1231.22 Q1860.37 1234.9 1861.81 1236.76 Q1863.24 1238.58 1866.11 1238.58 Q1869.56 1238.58 1871.55 1236.38 Q1873.56 1234.19 1873.56 1230.39 L1873.56 1215.69 L1877.82 1215.69 L1877.82 1241.62 L1873.56 1241.62 L1873.56 1237.63 Q1872.01 1240 1869.95 1241.15 Q1867.92 1242.29 1865.21 1242.29 Q1860.74 1242.29 1858.43 1239.51 Q1856.11 1236.73 1856.11 1231.38 M1866.83 1215.07 L1866.83 1215.07 Z" fill="#000000" fill-rule="nonzero" fill-opacity="1" /><path clip-path="url(#clip980)" d="M1901.62 1219.67 Q1900.9 1219.26 1900.05 1219.07 Q1899.21 1218.86 1898.19 1218.86 Q1894.58 1218.86 1892.64 1221.22 Q1890.72 1223.56 1890.72 1227.96 L1890.72 1241.62 L1886.43 1241.62 L1886.43 1215.69 L1890.72 1215.69 L1890.72 1219.72 Q1892.06 1217.36 1894.21 1216.22 Q1896.37 1215.07 1899.44 1215.07 Q1899.88 1215.07 1900.42 1215.13 Q1900.95 1215.18 1901.6 1215.3 L1901.62 1219.67 Z" fill="#000000" fill-rule="nonzero" fill-opacity="1" /><path clip-path="url(#clip980)" d="M1903.03 1215.69 L1907.55 1215.69 L1915.65 1237.45 L1923.75 1215.69 L1928.26 1215.69 L1918.54 1241.62 L1912.75 1241.62 L1903.03 1215.69 Z" fill="#000000" fill-rule="nonzero" fill-opacity="1" /><path clip-path="url(#clip980)" d="M1956.32 1227.59 L1956.32 1229.67 L1936.74 1229.67 Q1937.01 1234.07 1939.37 1236.38 Q1941.76 1238.68 1945.99 1238.68 Q1948.45 1238.68 1950.74 1238.07 Q1953.05 1237.47 1955.32 1236.27 L1955.32 1240.3 Q1953.03 1241.27 1950.62 1241.78 Q1948.22 1242.29 1945.74 1242.29 Q1939.54 1242.29 1935.9 1238.68 Q1932.29 1235.07 1932.29 1228.91 Q1932.29 1222.54 1935.72 1218.82 Q1939.17 1215.07 1945 1215.07 Q1950.23 1215.07 1953.26 1218.45 Q1956.32 1221.8 1956.32 1227.59 M1952.06 1226.34 Q1952.01 1222.84 1950.09 1220.76 Q1948.19 1218.68 1945.05 1218.68 Q1941.48 1218.68 1939.33 1220.69 Q1937.2 1222.7 1936.87 1226.36 L1952.06 1226.34 Z" fill="#000000" fill-rule="nonzero" fill-opacity="1" /><path clip-path="url(#clip980)" d="M1988.61 1205.64 Q1985.51 1210.97 1984 1216.18 Q1982.5 1221.38 1982.5 1226.73 Q1982.5 1232.08 1984 1237.33 Q1985.53 1242.57 1988.61 1247.87 L1984.91 1247.87 Q1981.43 1242.43 1979.7 1237.17 Q1977.98 1231.92 1977.98 1226.73 Q1977.98 1221.57 1979.7 1216.34 Q1981.41 1211.11 1984.91 1205.64 L1988.61 1205.64 Z" fill="#000000" fill-rule="nonzero" fill-opacity="1" /><path clip-path="url(#clip980)" d="M2013.4 1216.45 L2013.4 1220.48 Q2011.6 1219.56 2009.65 1219.09 Q2007.71 1218.63 2005.62 1218.63 Q2002.45 1218.63 2000.86 1219.6 Q1999.28 1220.57 1999.28 1222.52 Q1999.28 1224 2000.42 1224.86 Q2001.55 1225.69 2004.98 1226.45 L2006.43 1226.78 Q2010.97 1227.75 2012.87 1229.53 Q2014.79 1231.29 2014.79 1234.46 Q2014.79 1238.07 2011.92 1240.18 Q2009.07 1242.29 2004.07 1242.29 Q2001.99 1242.29 1999.72 1241.87 Q1997.48 1241.48 1994.98 1240.67 L1994.98 1236.27 Q1997.34 1237.5 1999.63 1238.12 Q2001.92 1238.72 2004.17 1238.72 Q2007.17 1238.72 2008.79 1237.7 Q2010.42 1236.66 2010.42 1234.79 Q2010.42 1233.05 2009.23 1232.13 Q2008.08 1231.2 2004.12 1230.34 L2002.64 1230 Q1998.68 1229.16 1996.92 1227.45 Q1995.16 1225.71 1995.16 1222.7 Q1995.16 1219.05 1997.75 1217.06 Q2000.35 1215.07 2005.11 1215.07 Q2007.48 1215.07 2009.56 1215.41 Q2011.64 1215.76 2013.4 1216.45 Z" fill="#000000" fill-rule="nonzero" fill-opacity="1" /><path clip-path="url(#clip980)" d="M2033.36 1228.58 Q2028.19 1228.58 2026.2 1229.76 Q2024.21 1230.95 2024.21 1233.79 Q2024.21 1236.06 2025.69 1237.4 Q2027.2 1238.72 2029.77 1238.72 Q2033.31 1238.72 2035.44 1236.22 Q2037.59 1233.7 2037.59 1229.53 L2037.59 1228.58 L2033.36 1228.58 M2041.85 1226.82 L2041.85 1241.62 L2037.59 1241.62 L2037.59 1237.68 Q2036.13 1240.04 2033.96 1241.18 Q2031.78 1242.29 2028.63 1242.29 Q2024.65 1242.29 2022.29 1240.07 Q2019.95 1237.82 2019.95 1234.07 Q2019.95 1229.7 2022.87 1227.47 Q2025.81 1225.25 2031.62 1225.25 L2037.59 1225.25 L2037.59 1224.83 Q2037.59 1221.89 2035.65 1220.3 Q2033.73 1218.68 2030.23 1218.68 Q2028.01 1218.68 2025.9 1219.21 Q2023.79 1219.74 2021.85 1220.81 L2021.85 1216.87 Q2024.19 1215.97 2026.39 1215.53 Q2028.59 1215.07 2030.67 1215.07 Q2036.29 1215.07 2039.07 1217.98 Q2041.85 1220.9 2041.85 1226.82 Z" fill="#000000" fill-rule="nonzero" fill-opacity="1" /><path clip-path="url(#clip980)" d="M2047.57 1215.69 L2052.08 1215.69 L2060.18 1237.45 L2068.29 1215.69 L2072.8 1215.69 L2063.08 1241.62 L2057.29 1241.62 L2047.57 1215.69 Z" fill="#000000" fill-rule="nonzero" fill-opacity="1" /><path clip-path="url(#clip980)" d="M2100.85 1227.59 L2100.85 1229.67 L2081.27 1229.67 Q2081.55 1234.07 2083.91 1236.38 Q2086.29 1238.68 2090.53 1238.68 Q2092.98 1238.68 2095.28 1238.07 Q2097.59 1237.47 2099.86 1236.27 L2099.86 1240.3 Q2097.57 1241.27 2095.16 1241.78 Q2092.75 1242.29 2090.28 1242.29 Q2084.07 1242.29 2080.44 1238.68 Q2076.83 1235.07 2076.83 1228.91 Q2076.83 1222.54 2080.25 1218.82 Q2083.7 1215.07 2089.54 1215.07 Q2094.77 1215.07 2097.8 1218.45 Q2100.85 1221.8 2100.85 1227.59 M2096.6 1226.34 Q2096.55 1222.84 2094.63 1220.76 Q2092.73 1218.68 2089.58 1218.68 Q2086.02 1218.68 2083.86 1220.69 Q2081.73 1222.7 2081.41 1226.36 L2096.6 1226.34 Z" fill="#000000" fill-rule="nonzero" fill-opacity="1" /><path clip-path="url(#clip980)" d="M2119.63 1228.58 Q2114.47 1228.58 2112.47 1229.76 Q2110.48 1230.95 2110.48 1233.79 Q2110.48 1236.06 2111.97 1237.4 Q2113.47 1238.72 2116.04 1238.72 Q2119.58 1238.72 2121.71 1236.22 Q2123.86 1233.7 2123.86 1229.53 L2123.86 1228.58 L2119.63 1228.58 M2128.12 1226.82 L2128.12 1241.62 L2123.86 1241.62 L2123.86 1237.68 Q2122.41 1240.04 2120.23 1241.18 Q2118.05 1242.29 2114.91 1242.29 Q2110.92 1242.29 2108.56 1240.07 Q2106.22 1237.82 2106.22 1234.07 Q2106.22 1229.7 2109.14 1227.47 Q2112.08 1225.25 2117.89 1225.25 L2123.86 1225.25 L2123.86 1224.83 Q2123.86 1221.89 2121.92 1220.3 Q2120 1218.68 2116.5 1218.68 Q2114.28 1218.68 2112.17 1219.21 Q2110.07 1219.74 2108.12 1220.81 L2108.12 1216.87 Q2110.46 1215.97 2112.66 1215.53 Q2114.86 1215.07 2116.94 1215.07 Q2122.57 1215.07 2125.35 1217.98 Q2128.12 1220.9 2128.12 1226.82 Z" fill="#000000" fill-rule="nonzero" fill-opacity="1" /><path clip-path="url(#clip980)" d="M2141.11 1208.33 L2141.11 1215.69 L2149.88 1215.69 L2149.88 1219 L2141.11 1219 L2141.11 1233.07 Q2141.11 1236.25 2141.97 1237.15 Q2142.85 1238.05 2145.51 1238.05 L2149.88 1238.05 L2149.88 1241.62 L2145.51 1241.62 Q2140.58 1241.62 2138.7 1239.79 Q2136.83 1237.94 2136.83 1233.07 L2136.83 1219 L2133.7 1219 L2133.7 1215.69 L2136.83 1215.69 L2136.83 1208.33 L2141.11 1208.33 Z" fill="#000000" fill-rule="nonzero" fill-opacity="1" /><path clip-path="url(#clip980)" d="M2156.04 1220.09 L2185.72 1220.09 L2185.72 1223.98 L2156.04 1223.98 L2156.04 1220.09 M2156.04 1229.53 L2185.72 1229.53 L2185.72 1233.47 L2156.04 1233.47 L2156.04 1229.53 Z" fill="#000000" fill-rule="nonzero" fill-opacity="1" /><path clip-path="url(#clip980)" d="M2196.62 1237.68 L2204.26 1237.68 L2204.26 1211.32 L2195.95 1212.98 L2195.95 1208.72 L2204.21 1207.06 L2208.89 1207.06 L2208.89 1237.68 L2216.53 1237.68 L2216.53 1241.62 L2196.62 1241.62 L2196.62 1237.68 Z" fill="#000000" fill-rule="nonzero" fill-opacity="1" /><path clip-path="url(#clip980)" d="M2224.7 1205.64 L2228.4 1205.64 Q2231.87 1211.11 2233.59 1216.34 Q2235.32 1221.57 2235.32 1226.73 Q2235.32 1231.92 2233.59 1237.17 Q2231.87 1242.43 2228.4 1247.87 L2224.7 1247.87 Q2227.78 1242.57 2229.28 1237.33 Q2230.81 1232.08 2230.81 1226.73 Q2230.81 1221.38 2229.28 1216.18 Q2227.78 1210.97 2224.7 1205.64 Z" fill="#000000" fill-rule="nonzero" fill-opacity="1" /><line clip-path="url(#clip980)" x1="1579.79" y1="1276.18" x2="1557.39" y2="1253.78" style="stroke:#dc143c; stroke-width:5.12; stroke-opacity:1"/>
<line clip-path="url(#clip980)" x1="1579.79" y1="1276.18" x2="1557.39" y2="1298.58" style="stroke:#dc143c; stroke-width:5.12; stroke-opacity:1"/>
<line clip-path="url(#clip980)" x1="1579.79" y1="1276.18" x2="1602.19" y2="1298.58" style="stroke:#dc143c; stroke-width:5.12; stroke-opacity:1"/>
<line clip-path="url(#clip980)" x1="1579.79" y1="1276.18" x2="1602.19" y2="1253.78" style="stroke:#dc143c; stroke-width:5.12; stroke-opacity:1"/>
<path clip-path="url(#clip980)" d="M1689.65 1277.25 Q1691.16 1277.76 1692.57 1279.43 Q1694 1281.1 1695.44 1284.01 L1700.19 1293.46 L1695.16 1293.46 L1690.74 1284.59 Q1689.03 1281.12 1687.41 1279.98 Q1685.81 1278.85 1683.03 1278.85 L1677.94 1278.85 L1677.94 1293.46 L1673.26 1293.46 L1673.26 1258.9 L1683.82 1258.9 Q1689.75 1258.9 1692.66 1261.37 Q1695.58 1263.85 1695.58 1268.85 Q1695.58 1272.11 1694.05 1274.27 Q1692.55 1276.42 1689.65 1277.25 M1677.94 1262.74 L1677.94 1275.01 L1683.82 1275.01 Q1687.2 1275.01 1688.91 1273.46 Q1690.65 1271.88 1690.65 1268.85 Q1690.65 1265.82 1688.91 1264.29 Q1687.2 1262.74 1683.82 1262.74 L1677.94 1262.74 Z" fill="#000000" fill-rule="nonzero" fill-opacity="1" /><path clip-path="url(#clip980)" d="M1726.06 1279.43 L1726.06 1281.51 L1706.48 1281.51 Q1706.76 1285.91 1709.12 1288.22 Q1711.5 1290.52 1715.74 1290.52 Q1718.19 1290.52 1720.49 1289.91 Q1722.8 1289.31 1725.07 1288.11 L1725.07 1292.14 Q1722.78 1293.11 1720.37 1293.62 Q1717.96 1294.13 1715.49 1294.13 Q1709.28 1294.13 1705.65 1290.52 Q1702.04 1286.91 1702.04 1280.75 Q1702.04 1274.38 1705.46 1270.66 Q1708.91 1266.91 1714.75 1266.91 Q1719.98 1266.91 1723.01 1270.29 Q1726.06 1273.64 1726.06 1279.43 M1721.81 1278.18 Q1721.76 1274.68 1719.84 1272.6 Q1717.94 1270.52 1714.79 1270.52 Q1711.23 1270.52 1709.07 1272.53 Q1706.94 1274.54 1706.62 1278.2 L1721.81 1278.18 Z" fill="#000000" fill-rule="nonzero" fill-opacity="1" /><path clip-path="url(#clip980)" d="M1753.24 1272.51 Q1754.84 1269.64 1757.06 1268.27 Q1759.28 1266.91 1762.29 1266.91 Q1766.34 1266.91 1768.54 1269.75 Q1770.74 1272.58 1770.74 1277.81 L1770.74 1293.46 L1766.46 1293.46 L1766.46 1277.95 Q1766.46 1274.22 1765.14 1272.41 Q1763.82 1270.61 1761.11 1270.61 Q1757.8 1270.61 1755.88 1272.81 Q1753.96 1275.01 1753.96 1278.8 L1753.96 1293.46 L1749.68 1293.46 L1749.68 1277.95 Q1749.68 1274.2 1748.36 1272.41 Q1747.04 1270.61 1744.28 1270.61 Q1741.02 1270.61 1739.1 1272.83 Q1737.18 1275.03 1737.18 1278.8 L1737.18 1293.46 L1732.89 1293.46 L1732.89 1267.53 L1737.18 1267.53 L1737.18 1271.56 Q1738.63 1269.17 1740.67 1268.04 Q1742.71 1266.91 1745.51 1266.91 Q1748.33 1266.91 1750.3 1268.34 Q1752.29 1269.78 1753.24 1272.51 Z" fill="#000000" fill-rule="nonzero" fill-opacity="1" /><path clip-path="url(#clip980)" d="M1789.28 1270.52 Q1785.86 1270.52 1783.87 1273.2 Q1781.87 1275.86 1781.87 1280.52 Q1781.87 1285.17 1783.84 1287.85 Q1785.83 1290.52 1789.28 1290.52 Q1792.69 1290.52 1794.68 1287.83 Q1796.67 1285.15 1796.67 1280.52 Q1796.67 1275.91 1794.68 1273.22 Q1792.69 1270.52 1789.28 1270.52 M1789.28 1266.91 Q1794.84 1266.91 1798.01 1270.52 Q1801.18 1274.13 1801.18 1280.52 Q1801.18 1286.88 1798.01 1290.52 Q1794.84 1294.13 1789.28 1294.13 Q1783.7 1294.13 1780.53 1290.52 Q1777.38 1286.88 1777.38 1280.52 Q1777.38 1274.13 1780.53 1270.52 Q1783.7 1266.91 1789.28 1266.91 Z" fill="#000000" fill-rule="nonzero" fill-opacity="1" /><path clip-path="url(#clip980)" d="M1805.18 1267.53 L1809.7 1267.53 L1817.8 1289.29 L1825.9 1267.53 L1830.42 1267.53 L1820.69 1293.46 L1814.91 1293.46 L1805.18 1267.53 Z" fill="#000000" fill-rule="nonzero" fill-opacity="1" /><path clip-path="url(#clip980)" d="M1858.47 1279.43 L1858.47 1281.51 L1838.89 1281.51 Q1839.17 1285.91 1841.53 1288.22 Q1843.91 1290.52 1848.15 1290.52 Q1850.6 1290.52 1852.89 1289.91 Q1855.21 1289.31 1857.48 1288.11 L1857.48 1292.14 Q1855.18 1293.11 1852.78 1293.62 Q1850.37 1294.13 1847.89 1294.13 Q1841.69 1294.13 1838.06 1290.52 Q1834.44 1286.91 1834.44 1280.75 Q1834.44 1274.38 1837.87 1270.66 Q1841.32 1266.91 1847.15 1266.91 Q1852.38 1266.91 1855.42 1270.29 Q1858.47 1273.64 1858.47 1279.43 M1854.21 1278.18 Q1854.17 1274.68 1852.24 1272.6 Q1850.35 1270.52 1847.2 1270.52 Q1843.63 1270.52 1841.48 1272.53 Q1839.35 1274.54 1839.03 1278.2 L1854.21 1278.18 Z" fill="#000000" fill-rule="nonzero" fill-opacity="1" /><path clip-path="url(#clip980)" d="M1882.52 1271.47 L1882.52 1257.44 L1886.78 1257.44 L1886.78 1293.46 L1882.52 1293.46 L1882.52 1289.57 Q1881.18 1291.88 1879.12 1293.02 Q1877.08 1294.13 1874.21 1294.13 Q1869.51 1294.13 1866.55 1290.38 Q1863.61 1286.63 1863.61 1280.52 Q1863.61 1274.41 1866.55 1270.66 Q1869.51 1266.91 1874.21 1266.91 Q1877.08 1266.91 1879.12 1268.04 Q1881.18 1269.15 1882.52 1271.47 M1868.01 1280.52 Q1868.01 1285.22 1869.93 1287.9 Q1871.87 1290.56 1875.25 1290.56 Q1878.63 1290.56 1880.58 1287.9 Q1882.52 1285.22 1882.52 1280.52 Q1882.52 1275.82 1880.58 1273.16 Q1878.63 1270.47 1875.25 1270.47 Q1871.87 1270.47 1869.93 1273.16 Q1868.01 1275.82 1868.01 1280.52 Z" fill="#000000" fill-rule="nonzero" fill-opacity="1" /><path clip-path="url(#clip980)" d="M1930.81 1272.51 Q1932.41 1269.64 1934.63 1268.27 Q1936.85 1266.91 1939.86 1266.91 Q1943.91 1266.91 1946.11 1269.75 Q1948.31 1272.58 1948.31 1277.81 L1948.31 1293.46 L1944.03 1293.46 L1944.03 1277.95 Q1944.03 1274.22 1942.71 1272.41 Q1941.39 1270.61 1938.68 1270.61 Q1935.37 1270.61 1933.45 1272.81 Q1931.53 1275.01 1931.53 1278.8 L1931.53 1293.46 L1927.24 1293.46 L1927.24 1277.95 Q1927.24 1274.2 1925.93 1272.41 Q1924.61 1270.61 1921.85 1270.61 Q1918.59 1270.61 1916.67 1272.83 Q1914.74 1275.03 1914.74 1278.8 L1914.74 1293.46 L1910.46 1293.46 L1910.46 1267.53 L1914.74 1267.53 L1914.74 1271.56 Q1916.2 1269.17 1918.24 1268.04 Q1920.28 1266.91 1923.08 1266.91 Q1925.9 1266.91 1927.87 1268.34 Q1929.86 1269.78 1930.81 1272.51 Z" fill="#000000" fill-rule="nonzero" fill-opacity="1" /><path clip-path="url(#clip980)" d="M1978.98 1279.43 L1978.98 1281.51 L1959.4 1281.51 Q1959.67 1285.91 1962.04 1288.22 Q1964.42 1290.52 1968.66 1290.52 Q1971.11 1290.52 1973.4 1289.91 Q1975.72 1289.31 1977.98 1288.11 L1977.98 1292.14 Q1975.69 1293.11 1973.29 1293.62 Q1970.88 1294.13 1968.4 1294.13 Q1962.2 1294.13 1958.56 1290.52 Q1954.95 1286.91 1954.95 1280.75 Q1954.95 1274.38 1958.38 1270.66 Q1961.83 1266.91 1967.66 1266.91 Q1972.89 1266.91 1975.92 1270.29 Q1978.98 1273.64 1978.98 1279.43 M1974.72 1278.18 Q1974.67 1274.68 1972.75 1272.6 Q1970.86 1270.52 1967.71 1270.52 Q1964.14 1270.52 1961.99 1272.53 Q1959.86 1274.54 1959.54 1278.2 L1974.72 1278.18 Z" fill="#000000" fill-rule="nonzero" fill-opacity="1" /><path clip-path="url(#clip980)" d="M1997.75 1280.42 Q1992.59 1280.42 1990.6 1281.6 Q1988.61 1282.79 1988.61 1285.63 Q1988.61 1287.9 1990.09 1289.24 Q1991.6 1290.56 1994.17 1290.56 Q1997.71 1290.56 1999.84 1288.06 Q2001.99 1285.54 2001.99 1281.37 L2001.99 1280.42 L1997.75 1280.42 M2006.25 1278.66 L2006.25 1293.46 L2001.99 1293.46 L2001.99 1289.52 Q2000.53 1291.88 1998.36 1293.02 Q1996.18 1294.13 1993.03 1294.13 Q1989.05 1294.13 1986.69 1291.91 Q1984.35 1289.66 1984.35 1285.91 Q1984.35 1281.54 1987.27 1279.31 Q1990.21 1277.09 1996.02 1277.09 L2001.99 1277.09 L2001.99 1276.67 Q2001.99 1273.73 2000.05 1272.14 Q1998.12 1270.52 1994.63 1270.52 Q1992.41 1270.52 1990.3 1271.05 Q1988.19 1271.58 1986.25 1272.65 L1986.25 1268.71 Q1988.59 1267.81 1990.79 1267.37 Q1992.98 1266.91 1995.07 1266.91 Q2000.69 1266.91 2003.47 1269.82 Q2006.25 1272.74 2006.25 1278.66 Z" fill="#000000" fill-rule="nonzero" fill-opacity="1" /><path clip-path="url(#clip980)" d="M2031.55 1268.29 L2031.55 1272.32 Q2029.74 1271.4 2027.8 1270.93 Q2025.86 1270.47 2023.77 1270.47 Q2020.6 1270.47 2019 1271.44 Q2017.43 1272.41 2017.43 1274.36 Q2017.43 1275.84 2018.56 1276.7 Q2019.7 1277.53 2023.12 1278.29 L2024.58 1278.62 Q2029.12 1279.59 2031.02 1281.37 Q2032.94 1283.13 2032.94 1286.3 Q2032.94 1289.91 2030.07 1292.02 Q2027.22 1294.13 2022.22 1294.13 Q2020.14 1294.13 2017.87 1293.71 Q2015.62 1293.32 2013.12 1292.51 L2013.12 1288.11 Q2015.48 1289.34 2017.78 1289.96 Q2020.07 1290.56 2022.31 1290.56 Q2025.32 1290.56 2026.94 1289.54 Q2028.56 1288.5 2028.56 1286.63 Q2028.56 1284.89 2027.38 1283.97 Q2026.23 1283.04 2022.27 1282.18 L2020.79 1281.84 Q2016.83 1281 2015.07 1279.29 Q2013.31 1277.55 2013.31 1274.54 Q2013.31 1270.89 2015.9 1268.9 Q2018.49 1266.91 2023.26 1266.91 Q2025.62 1266.91 2027.71 1267.25 Q2029.79 1267.6 2031.55 1268.29 Z" fill="#000000" fill-rule="nonzero" fill-opacity="1" /><path clip-path="url(#clip980)" d="M2039.28 1283.22 L2039.28 1267.53 L2043.54 1267.53 L2043.54 1283.06 Q2043.54 1286.74 2044.98 1288.6 Q2046.41 1290.42 2049.28 1290.42 Q2052.73 1290.42 2054.72 1288.22 Q2056.73 1286.03 2056.73 1282.23 L2056.73 1267.53 L2060.99 1267.53 L2060.99 1293.46 L2056.73 1293.46 L2056.73 1289.47 Q2055.18 1291.84 2053.12 1292.99 Q2051.09 1294.13 2048.38 1294.13 Q2043.91 1294.13 2041.6 1291.35 Q2039.28 1288.57 2039.28 1283.22 M2050 1266.91 L2050 1266.91 Z" fill="#000000" fill-rule="nonzero" fill-opacity="1" /><path clip-path="url(#clip980)" d="M2084.79 1271.51 Q2084.07 1271.1 2083.22 1270.91 Q2082.38 1270.7 2081.36 1270.7 Q2077.75 1270.7 2075.81 1273.06 Q2073.89 1275.4 2073.89 1279.8 L2073.89 1293.46 L2069.6 1293.46 L2069.6 1267.53 L2073.89 1267.53 L2073.89 1271.56 Q2075.23 1269.2 2077.38 1268.06 Q2079.54 1266.91 2082.61 1266.91 Q2083.05 1266.91 2083.59 1266.97 Q2084.12 1267.02 2084.77 1267.14 L2084.79 1271.51 Z" fill="#000000" fill-rule="nonzero" fill-opacity="1" /><path clip-path="url(#clip980)" d="M2110.39 1279.43 L2110.39 1281.51 L2090.81 1281.51 Q2091.09 1285.91 2093.45 1288.22 Q2095.83 1290.52 2100.07 1290.52 Q2102.52 1290.52 2104.81 1289.91 Q2107.13 1289.31 2109.4 1288.11 L2109.4 1292.14 Q2107.1 1293.11 2104.7 1293.62 Q2102.29 1294.13 2099.81 1294.13 Q2093.61 1294.13 2089.98 1290.52 Q2086.36 1286.91 2086.36 1280.75 Q2086.36 1274.38 2089.79 1270.66 Q2093.24 1266.91 2099.07 1266.91 Q2104.3 1266.91 2107.34 1270.29 Q2110.39 1273.64 2110.39 1279.43 M2106.13 1278.18 Q2106.09 1274.68 2104.16 1272.6 Q2102.27 1270.52 2099.12 1270.52 Q2095.55 1270.52 2093.4 1272.53 Q2091.27 1274.54 2090.95 1278.2 L2106.13 1278.18 Z" fill="#000000" fill-rule="nonzero" fill-opacity="1" /><path clip-path="url(#clip980)" d="M2137.57 1272.51 Q2139.16 1269.64 2141.39 1268.27 Q2143.61 1266.91 2146.62 1266.91 Q2150.67 1266.91 2152.87 1269.75 Q2155.07 1272.58 2155.07 1277.81 L2155.07 1293.46 L2150.78 1293.46 L2150.78 1277.95 Q2150.78 1274.22 2149.47 1272.41 Q2148.15 1270.61 2145.44 1270.61 Q2142.13 1270.61 2140.21 1272.81 Q2138.29 1275.01 2138.29 1278.8 L2138.29 1293.46 L2134 1293.46 L2134 1277.95 Q2134 1274.2 2132.68 1272.41 Q2131.36 1270.61 2128.61 1270.61 Q2125.35 1270.61 2123.42 1272.83 Q2121.5 1275.03 2121.5 1278.8 L2121.5 1293.46 L2117.22 1293.46 L2117.22 1267.53 L2121.5 1267.53 L2121.5 1271.56 Q2122.96 1269.17 2125 1268.04 Q2127.04 1266.91 2129.84 1266.91 Q2132.66 1266.91 2134.63 1268.34 Q2136.62 1269.78 2137.57 1272.51 Z" fill="#000000" fill-rule="nonzero" fill-opacity="1" /><path clip-path="url(#clip980)" d="M2185.74 1279.43 L2185.74 1281.51 L2166.16 1281.51 Q2166.43 1285.91 2168.79 1288.22 Q2171.18 1290.52 2175.41 1290.52 Q2177.87 1290.52 2180.16 1289.91 Q2182.47 1289.31 2184.74 1288.11 L2184.74 1292.14 Q2182.45 1293.11 2180.04 1293.62 Q2177.64 1294.13 2175.16 1294.13 Q2168.96 1294.13 2165.32 1290.52 Q2161.71 1286.91 2161.71 1280.75 Q2161.71 1274.38 2165.14 1270.66 Q2168.59 1266.91 2174.42 1266.91 Q2179.65 1266.91 2182.68 1270.29 Q2185.74 1273.64 2185.74 1279.43 M2181.48 1278.18 Q2181.43 1274.68 2179.51 1272.6 Q2177.61 1270.52 2174.47 1270.52 Q2170.9 1270.52 2168.75 1272.53 Q2166.62 1274.54 2166.29 1278.2 L2181.48 1278.18 Z" fill="#000000" fill-rule="nonzero" fill-opacity="1" /><path clip-path="url(#clip980)" d="M2214.28 1277.81 L2214.28 1293.46 L2210.02 1293.46 L2210.02 1277.95 Q2210.02 1274.27 2208.59 1272.44 Q2207.15 1270.61 2204.28 1270.61 Q2200.83 1270.61 2198.84 1272.81 Q2196.85 1275.01 2196.85 1278.8 L2196.85 1293.46 L2192.57 1293.46 L2192.57 1267.53 L2196.85 1267.53 L2196.85 1271.56 Q2198.38 1269.22 2200.44 1268.06 Q2202.52 1266.91 2205.23 1266.91 Q2209.7 1266.91 2211.99 1269.68 Q2214.28 1272.44 2214.28 1277.81 Z" fill="#000000" fill-rule="nonzero" fill-opacity="1" /><path clip-path="url(#clip980)" d="M2226.99 1260.17 L2226.99 1267.53 L2235.76 1267.53 L2235.76 1270.84 L2226.99 1270.84 L2226.99 1284.91 Q2226.99 1288.09 2227.84 1288.99 Q2228.72 1289.89 2231.39 1289.89 L2235.76 1289.89 L2235.76 1293.46 L2231.39 1293.46 Q2226.46 1293.46 2224.58 1291.63 Q2222.71 1289.78 2222.71 1284.91 L2222.71 1270.84 L2219.58 1270.84 L2219.58 1267.53 L2222.71 1267.53 L2222.71 1260.17 L2226.99 1260.17 Z" fill="#000000" fill-rule="nonzero" fill-opacity="1" /><path clip-path="url(#clip980)" d="M2257.89 1268.29 L2257.89 1272.32 Q2256.09 1271.4 2254.14 1270.93 Q2252.2 1270.47 2250.11 1270.47 Q2246.94 1270.47 2245.34 1271.44 Q2243.77 1272.41 2243.77 1274.36 Q2243.77 1275.84 2244.9 1276.7 Q2246.04 1277.53 2249.46 1278.29 L2250.92 1278.62 Q2255.46 1279.59 2257.36 1281.37 Q2259.28 1283.13 2259.28 1286.3 Q2259.28 1289.91 2256.41 1292.02 Q2253.56 1294.13 2248.56 1294.13 Q2246.48 1294.13 2244.21 1293.71 Q2241.97 1293.32 2239.47 1292.51 L2239.47 1288.11 Q2241.83 1289.34 2244.12 1289.96 Q2246.41 1290.56 2248.65 1290.56 Q2251.66 1290.56 2253.28 1289.54 Q2254.9 1288.5 2254.9 1286.63 Q2254.9 1284.89 2253.72 1283.97 Q2252.57 1283.04 2248.61 1282.18 L2247.13 1281.84 Q2243.17 1281 2241.41 1279.29 Q2239.65 1277.55 2239.65 1274.54 Q2239.65 1270.89 2242.24 1268.9 Q2244.84 1266.91 2249.6 1266.91 Q2251.96 1266.91 2254.05 1267.25 Q2256.13 1267.6 2257.89 1268.29 Z" fill="#000000" fill-rule="nonzero" fill-opacity="1" /><circle clip-path="url(#clip980)" cx="1579.79" cy="1328.02" r="20.9455" fill="#1e90ff" fill-rule="evenodd" fill-opacity="1" stroke="#000000" stroke-opacity="1" stroke-width="3.72364"/>
<path clip-path="url(#clip980)" d="M1673.26 1310.74 L1677.96 1310.74 L1677.96 1331.73 Q1677.96 1337.29 1679.98 1339.74 Q1681.99 1342.17 1686.51 1342.17 Q1691 1342.17 1693.01 1339.74 Q1695.02 1337.29 1695.02 1331.73 L1695.02 1310.74 L1699.72 1310.74 L1699.72 1332.31 Q1699.72 1339.07 1696.37 1342.52 Q1693.03 1345.97 1686.51 1345.97 Q1679.95 1345.97 1676.6 1342.52 Q1673.26 1339.07 1673.26 1332.31 L1673.26 1310.74 Z" fill="#000000" fill-rule="nonzero" fill-opacity="1" /><path clip-path="url(#clip980)" d="M1724.84 1320.13 L1724.84 1324.16 Q1723.03 1323.24 1721.09 1322.77 Q1719.14 1322.31 1717.06 1322.31 Q1713.89 1322.31 1712.29 1323.28 Q1710.72 1324.25 1710.72 1326.2 Q1710.72 1327.68 1711.85 1328.54 Q1712.99 1329.37 1716.41 1330.13 L1717.87 1330.46 Q1722.41 1331.43 1724.31 1333.21 Q1726.23 1334.97 1726.23 1338.14 Q1726.23 1341.75 1723.36 1343.86 Q1720.51 1345.97 1715.51 1345.97 Q1713.43 1345.97 1711.16 1345.55 Q1708.91 1345.16 1706.41 1344.35 L1706.41 1339.95 Q1708.77 1341.18 1711.07 1341.8 Q1713.36 1342.4 1715.6 1342.4 Q1718.61 1342.4 1720.23 1341.38 Q1721.85 1340.34 1721.85 1338.47 Q1721.85 1336.73 1720.67 1335.81 Q1719.51 1334.88 1715.56 1334.02 L1714.07 1333.68 Q1710.12 1332.84 1708.36 1331.13 Q1706.6 1329.39 1706.6 1326.38 Q1706.6 1322.73 1709.19 1320.74 Q1711.78 1318.75 1716.55 1318.75 Q1718.91 1318.75 1721 1319.09 Q1723.08 1319.44 1724.84 1320.13 Z" fill="#000000" fill-rule="nonzero" fill-opacity="1" /><path clip-path="url(#clip980)" d="M1755.19 1331.27 L1755.19 1333.35 L1735.6 1333.35 Q1735.88 1337.75 1738.24 1340.06 Q1740.63 1342.36 1744.86 1342.36 Q1747.31 1342.36 1749.61 1341.75 Q1751.92 1341.15 1754.19 1339.95 L1754.19 1343.98 Q1751.9 1344.95 1749.49 1345.46 Q1747.08 1345.97 1744.61 1345.97 Q1738.4 1345.97 1734.77 1342.36 Q1731.16 1338.75 1731.16 1332.59 Q1731.16 1326.22 1734.58 1322.5 Q1738.03 1318.75 1743.87 1318.75 Q1749.1 1318.75 1752.13 1322.13 Q1755.19 1325.48 1755.19 1331.27 M1750.93 1330.02 Q1750.88 1326.52 1748.96 1324.44 Q1747.06 1322.36 1743.91 1322.36 Q1740.35 1322.36 1738.19 1324.37 Q1736.06 1326.38 1735.74 1330.04 L1750.93 1330.02 Z" fill="#000000" fill-rule="nonzero" fill-opacity="1" /><path clip-path="url(#clip980)" d="M1779.24 1323.31 L1779.24 1309.28 L1783.5 1309.28 L1783.5 1345.3 L1779.24 1345.3 L1779.24 1341.41 Q1777.89 1343.72 1775.83 1344.86 Q1773.8 1345.97 1770.93 1345.97 Q1766.23 1345.97 1763.26 1342.22 Q1760.32 1338.47 1760.32 1332.36 Q1760.32 1326.25 1763.26 1322.5 Q1766.23 1318.75 1770.93 1318.75 Q1773.8 1318.75 1775.83 1319.88 Q1777.89 1320.99 1779.24 1323.31 M1764.72 1332.36 Q1764.72 1337.06 1766.64 1339.74 Q1768.59 1342.4 1771.97 1342.4 Q1775.35 1342.4 1777.29 1339.74 Q1779.24 1337.06 1779.24 1332.36 Q1779.24 1327.66 1777.29 1325 Q1775.35 1322.31 1771.97 1322.31 Q1768.59 1322.31 1766.64 1325 Q1764.72 1327.66 1764.72 1332.36 Z" fill="#000000" fill-rule="nonzero" fill-opacity="1" /><path clip-path="url(#clip980)" d="M1827.52 1324.35 Q1829.12 1321.48 1831.34 1320.11 Q1833.56 1318.75 1836.57 1318.75 Q1840.62 1318.75 1842.82 1321.59 Q1845.02 1324.42 1845.02 1329.65 L1845.02 1345.3 L1840.74 1345.3 L1840.74 1329.79 Q1840.74 1326.06 1839.42 1324.25 Q1838.1 1322.45 1835.39 1322.45 Q1832.08 1322.45 1830.16 1324.65 Q1828.24 1326.85 1828.24 1330.64 L1828.24 1345.3 L1823.96 1345.3 L1823.96 1329.79 Q1823.96 1326.04 1822.64 1324.25 Q1821.32 1322.45 1818.56 1322.45 Q1815.3 1322.45 1813.38 1324.67 Q1811.46 1326.87 1811.46 1330.64 L1811.46 1345.3 L1807.18 1345.3 L1807.18 1319.37 L1811.46 1319.37 L1811.46 1323.4 Q1812.92 1321.01 1814.95 1319.88 Q1816.99 1318.75 1819.79 1318.75 Q1822.62 1318.75 1824.58 1320.18 Q1826.57 1321.62 1827.52 1324.35 Z" fill="#000000" fill-rule="nonzero" fill-opacity="1" /><path clip-path="url(#clip980)" d="M1875.69 1331.27 L1875.69 1333.35 L1856.11 1333.35 Q1856.39 1337.75 1858.75 1340.06 Q1861.13 1342.36 1865.37 1342.36 Q1867.82 1342.36 1870.12 1341.75 Q1872.43 1341.15 1874.7 1339.95 L1874.7 1343.98 Q1872.41 1344.95 1870 1345.46 Q1867.59 1345.97 1865.12 1345.97 Q1858.91 1345.97 1855.28 1342.36 Q1851.67 1338.75 1851.67 1332.59 Q1851.67 1326.22 1855.09 1322.5 Q1858.54 1318.75 1864.37 1318.75 Q1869.61 1318.75 1872.64 1322.13 Q1875.69 1325.48 1875.69 1331.27 M1871.43 1330.02 Q1871.39 1326.52 1869.47 1324.44 Q1867.57 1322.36 1864.42 1322.36 Q1860.86 1322.36 1858.7 1324.37 Q1856.57 1326.38 1856.25 1330.04 L1871.43 1330.02 Z" fill="#000000" fill-rule="nonzero" fill-opacity="1" /><path clip-path="url(#clip980)" d="M1894.47 1332.26 Q1889.3 1332.26 1887.31 1333.44 Q1885.32 1334.63 1885.32 1337.47 Q1885.32 1339.74 1886.8 1341.08 Q1888.31 1342.4 1890.88 1342.4 Q1894.42 1342.4 1896.55 1339.9 Q1898.7 1337.38 1898.7 1333.21 L1898.7 1332.26 L1894.47 1332.26 M1902.96 1330.5 L1902.96 1345.3 L1898.7 1345.3 L1898.7 1341.36 Q1897.24 1343.72 1895.07 1344.86 Q1892.89 1345.97 1889.74 1345.97 Q1885.76 1345.97 1883.4 1343.75 Q1881.06 1341.5 1881.06 1337.75 Q1881.06 1333.38 1883.98 1331.15 Q1886.92 1328.93 1892.73 1328.93 L1898.7 1328.93 L1898.7 1328.51 Q1898.7 1325.57 1896.76 1323.98 Q1894.84 1322.36 1891.34 1322.36 Q1889.12 1322.36 1887.01 1322.89 Q1884.91 1323.42 1882.96 1324.49 L1882.96 1320.55 Q1885.3 1319.65 1887.5 1319.21 Q1889.7 1318.75 1891.78 1318.75 Q1897.41 1318.75 1900.18 1321.66 Q1902.96 1324.58 1902.96 1330.5 Z" fill="#000000" fill-rule="nonzero" fill-opacity="1" /><path clip-path="url(#clip980)" d="M1928.26 1320.13 L1928.26 1324.16 Q1926.46 1323.24 1924.51 1322.77 Q1922.57 1322.31 1920.49 1322.31 Q1917.31 1322.31 1915.72 1323.28 Q1914.14 1324.25 1914.14 1326.2 Q1914.14 1327.68 1915.28 1328.54 Q1916.41 1329.37 1919.84 1330.13 L1921.3 1330.46 Q1925.83 1331.43 1927.73 1333.21 Q1929.65 1334.97 1929.65 1338.14 Q1929.65 1341.75 1926.78 1343.86 Q1923.93 1345.97 1918.93 1345.97 Q1916.85 1345.97 1914.58 1345.55 Q1912.34 1345.16 1909.84 1344.35 L1909.84 1339.95 Q1912.2 1341.18 1914.49 1341.8 Q1916.78 1342.4 1919.03 1342.4 Q1922.04 1342.4 1923.66 1341.38 Q1925.28 1340.34 1925.28 1338.47 Q1925.28 1336.73 1924.1 1335.81 Q1922.94 1334.88 1918.98 1334.02 L1917.5 1333.68 Q1913.54 1332.84 1911.78 1331.13 Q1910.02 1329.39 1910.02 1326.38 Q1910.02 1322.73 1912.61 1320.74 Q1915.21 1318.75 1919.98 1318.75 Q1922.34 1318.75 1924.42 1319.09 Q1926.5 1319.44 1928.26 1320.13 Z" fill="#000000" fill-rule="nonzero" fill-opacity="1" /><path clip-path="url(#clip980)" d="M1935.99 1335.06 L1935.99 1319.37 L1940.25 1319.37 L1940.25 1334.9 Q1940.25 1338.58 1941.69 1340.44 Q1943.12 1342.26 1945.99 1342.26 Q1949.44 1342.26 1951.43 1340.06 Q1953.45 1337.87 1953.45 1334.07 L1953.45 1319.37 L1957.71 1319.37 L1957.71 1345.3 L1953.45 1345.3 L1953.45 1341.31 Q1951.9 1343.68 1949.84 1344.83 Q1947.8 1345.97 1945.09 1345.97 Q1940.62 1345.97 1938.31 1343.19 Q1935.99 1340.41 1935.99 1335.06 M1946.71 1318.75 L1946.71 1318.75 Z" fill="#000000" fill-rule="nonzero" fill-opacity="1" /><path clip-path="url(#clip980)" d="M1981.5 1323.35 Q1980.79 1322.94 1979.93 1322.75 Q1979.1 1322.54 1978.08 1322.54 Q1974.47 1322.54 1972.52 1324.9 Q1970.6 1327.24 1970.6 1331.64 L1970.6 1345.3 L1966.32 1345.3 L1966.32 1319.37 L1970.6 1319.37 L1970.6 1323.4 Q1971.94 1321.04 1974.1 1319.9 Q1976.25 1318.75 1979.33 1318.75 Q1979.77 1318.75 1980.3 1318.81 Q1980.83 1318.86 1981.48 1318.98 L1981.5 1323.35 Z" fill="#000000" fill-rule="nonzero" fill-opacity="1" /><path clip-path="url(#clip980)" d="M2007.11 1331.27 L2007.11 1333.35 L1987.52 1333.35 Q1987.8 1337.75 1990.16 1340.06 Q1992.55 1342.36 1996.78 1342.36 Q1999.23 1342.36 2001.53 1341.75 Q2003.84 1341.15 2006.11 1339.95 L2006.11 1343.98 Q2003.82 1344.95 2001.41 1345.46 Q1999 1345.97 1996.53 1345.97 Q1990.32 1345.97 1986.69 1342.36 Q1983.08 1338.75 1983.08 1332.59 Q1983.08 1326.22 1986.5 1322.5 Q1989.95 1318.75 1995.79 1318.75 Q2001.02 1318.75 2004.05 1322.13 Q2007.11 1325.48 2007.11 1331.27 M2002.85 1330.02 Q2002.8 1326.52 2000.88 1324.44 Q1998.98 1322.36 1995.83 1322.36 Q1992.27 1322.36 1990.11 1324.37 Q1987.98 1326.38 1987.66 1330.04 L2002.85 1330.02 Z" fill="#000000" fill-rule="nonzero" fill-opacity="1" /><path clip-path="url(#clip980)" d="M2034.28 1324.35 Q2035.88 1321.48 2038.1 1320.11 Q2040.32 1318.75 2043.33 1318.75 Q2047.38 1318.75 2049.58 1321.59 Q2051.78 1324.42 2051.78 1329.65 L2051.78 1345.3 L2047.5 1345.3 L2047.5 1329.79 Q2047.5 1326.06 2046.18 1324.25 Q2044.86 1322.45 2042.15 1322.45 Q2038.84 1322.45 2036.92 1324.65 Q2035 1326.85 2035 1330.64 L2035 1345.3 L2030.72 1345.3 L2030.72 1329.79 Q2030.72 1326.04 2029.4 1324.25 Q2028.08 1322.45 2025.32 1322.45 Q2022.06 1322.45 2020.14 1324.67 Q2018.22 1326.87 2018.22 1330.64 L2018.22 1345.3 L2013.93 1345.3 L2013.93 1319.37 L2018.22 1319.37 L2018.22 1323.4 Q2019.67 1321.01 2021.71 1319.88 Q2023.75 1318.75 2026.55 1318.75 Q2029.37 1318.75 2031.34 1320.18 Q2033.33 1321.62 2034.28 1324.35 Z" fill="#000000" fill-rule="nonzero" fill-opacity="1" /><path clip-path="url(#clip980)" d="M2082.45 1331.27 L2082.45 1333.35 L2062.87 1333.35 Q2063.15 1337.75 2065.51 1340.06 Q2067.89 1342.36 2072.13 1342.36 Q2074.58 1342.36 2076.87 1341.75 Q2079.19 1341.15 2081.46 1339.95 L2081.46 1343.98 Q2079.16 1344.95 2076.76 1345.46 Q2074.35 1345.97 2071.87 1345.97 Q2065.67 1345.97 2062.04 1342.36 Q2058.42 1338.75 2058.42 1332.59 Q2058.42 1326.22 2061.85 1322.5 Q2065.3 1318.75 2071.13 1318.75 Q2076.36 1318.75 2079.4 1322.13 Q2082.45 1325.48 2082.45 1331.27 M2078.19 1330.02 Q2078.15 1326.52 2076.23 1324.44 Q2074.33 1322.36 2071.18 1322.36 Q2067.61 1322.36 2065.46 1324.37 Q2063.33 1326.38 2063.01 1330.04 L2078.19 1330.02 Z" fill="#000000" fill-rule="nonzero" fill-opacity="1" /><path clip-path="url(#clip980)" d="M2110.99 1329.65 L2110.99 1345.3 L2106.73 1345.3 L2106.73 1329.79 Q2106.73 1326.11 2105.3 1324.28 Q2103.86 1322.45 2100.99 1322.45 Q2097.54 1322.45 2095.55 1324.65 Q2093.56 1326.85 2093.56 1330.64 L2093.56 1345.3 L2089.28 1345.3 L2089.28 1319.37 L2093.56 1319.37 L2093.56 1323.4 Q2095.09 1321.06 2097.15 1319.9 Q2099.23 1318.75 2101.94 1318.75 Q2106.41 1318.75 2108.7 1321.52 Q2110.99 1324.28 2110.99 1329.65 Z" fill="#000000" fill-rule="nonzero" fill-opacity="1" /><path clip-path="url(#clip980)" d="M2123.7 1312.01 L2123.7 1319.37 L2132.47 1319.37 L2132.47 1322.68 L2123.7 1322.68 L2123.7 1336.75 Q2123.7 1339.93 2124.56 1340.83 Q2125.44 1341.73 2128.1 1341.73 L2132.47 1341.73 L2132.47 1345.3 L2128.1 1345.3 Q2123.17 1345.3 2121.29 1343.47 Q2119.42 1341.62 2119.42 1336.75 L2119.42 1322.68 L2116.29 1322.68 L2116.29 1319.37 L2119.42 1319.37 L2119.42 1312.01 L2123.7 1312.01 Z" fill="#000000" fill-rule="nonzero" fill-opacity="1" /><path clip-path="url(#clip980)" d="M2154.6 1320.13 L2154.6 1324.16 Q2152.8 1323.24 2150.85 1322.77 Q2148.91 1322.31 2146.83 1322.31 Q2143.66 1322.31 2142.06 1323.28 Q2140.48 1324.25 2140.48 1326.2 Q2140.48 1327.68 2141.62 1328.54 Q2142.75 1329.37 2146.18 1330.13 L2147.64 1330.46 Q2152.17 1331.43 2154.07 1333.21 Q2155.99 1334.97 2155.99 1338.14 Q2155.99 1341.75 2153.12 1343.86 Q2150.28 1345.97 2145.28 1345.97 Q2143.19 1345.97 2140.92 1345.55 Q2138.68 1345.16 2136.18 1344.35 L2136.18 1339.95 Q2138.54 1341.18 2140.83 1341.8 Q2143.12 1342.4 2145.37 1342.4 Q2148.38 1342.4 2150 1341.38 Q2151.62 1340.34 2151.62 1338.47 Q2151.62 1336.73 2150.44 1335.81 Q2149.28 1334.88 2145.32 1334.02 L2143.84 1333.68 Q2139.88 1332.84 2138.12 1331.13 Q2136.36 1329.39 2136.36 1326.38 Q2136.36 1322.73 2138.96 1320.74 Q2141.55 1318.75 2146.32 1318.75 Q2148.68 1318.75 2150.76 1319.09 Q2152.85 1319.44 2154.6 1320.13 Z" fill="#000000" fill-rule="nonzero" fill-opacity="1" /></svg>
