<?xml version="1.0" encoding="utf-8"?>
<svg xmlns="http://www.w3.org/2000/svg" xmlns:xlink="http://www.w3.org/1999/xlink" width="900" height="550" viewBox="0 0 3600 2200">
<defs>
  <clipPath id="clip350">
    <rect x="0" y="0" width="3600" height="2200"/>
  </clipPath>
</defs>
<path clip-path="url(#clip350)" d="M0 2200 L3600 2200 L3600 0 L0 0  Z" fill="#ffffff" fill-rule="evenodd" fill-opacity="1"/>
<defs>
  <clipPath id="clip351">
    <rect x="183" y="47" width="3370" height="1978"/>
  </clipPath>
</defs>
<path clip-path="url(#clip350)" d="M183.485 2024.02 L3552.76 2024.02 L3552.76 47.2441 L183.485 47.2441  Z" fill="#ffffff" fill-rule="evenodd" fill-opacity="1"/>
<polyline clip-path="url(#clip351)" style="stroke:#000000; stroke-linecap:round; stroke-linejoin:round; stroke-width:2; stroke-opacity:0.1; fill:none" points="278.842,2024.02 278.842,47.2441 "/>
<polyline clip-path="url(#clip351)" style="stroke:#000000; stroke-linecap:round; stroke-linejoin:round; stroke-width:2; stroke-opacity:0.1; fill:none" points="1186.14,2024.02 1186.14,47.2441 "/>
<polyline clip-path="url(#clip351)" style="stroke:#000000; stroke-linecap:round; stroke-linejoin:round; stroke-width:2; stroke-opacity:0.1; fill:none" points="2093.43,2024.02 2093.43,47.2441 "/>
<polyline clip-path="url(#clip351)" style="stroke:#000000; stroke-linecap:round; stroke-linejoin:round; stroke-width:2; stroke-opacity:0.1; fill:none" points="3000.73,2024.02 3000.73,47.2441 "/>
<polyline clip-path="url(#clip351)" style="stroke:#000000; stroke-linecap:round; stroke-linejoin:round; stroke-width:2; stroke-opacity:0.1; fill:none" points="183.485,1968.07 3552.76,1968.07 "/>
<polyline clip-path="url(#clip351)" style="stroke:#000000; stroke-linecap:round; stroke-linejoin:round; stroke-width:2; stroke-opacity:0.1; fill:none" points="183.485,1429.87 3552.76,1429.87 "/>
<polyline clip-path="url(#clip351)" style="stroke:#000000; stroke-linecap:round; stroke-linejoin:round; stroke-width:2; stroke-opacity:0.1; fill:none" points="183.485,891.662 3552.76,891.662 "/>
<polyline clip-path="url(#clip351)" style="stroke:#000000; stroke-linecap:round; stroke-linejoin:round; stroke-width:2; stroke-opacity:0.1; fill:none" points="183.485,353.456 3552.76,353.456 "/>
<polyline clip-path="url(#clip350)" style="stroke:#000000; stroke-linecap:round; stroke-linejoin:round; stroke-width:4; stroke-opacity:1; fill:none" points="183.485,2024.02 3552.76,2024.02 "/>
<polyline clip-path="url(#clip350)" style="stroke:#000000; stroke-linecap:round; stroke-linejoin:round; stroke-width:4; stroke-opacity:1; fill:none" points="278.842,2024.02 278.842,2005.12 "/>
<polyline clip-path="url(#clip350)" style="stroke:#000000; stroke-linecap:round; stroke-linejoin:round; stroke-width:4; stroke-opacity:1; fill:none" points="1186.14,2024.02 1186.14,2005.12 "/>
<polyline clip-path="url(#clip350)" style="stroke:#000000; stroke-linecap:round; stroke-linejoin:round; stroke-width:4; stroke-opacity:1; fill:none" points="2093.43,2024.02 2093.43,2005.12 "/>
<polyline clip-path="url(#clip350)" style="stroke:#000000; stroke-linecap:round; stroke-linejoin:round; stroke-width:4; stroke-opacity:1; fill:none" points="3000.73,2024.02 3000.73,2005.12 "/>
<path clip-path="url(#clip350)" d="M278.842 2064.54 Q275.231 2064.54 273.402 2068.1 Q271.597 2071.64 271.597 2078.77 Q271.597 2085.88 273.402 2089.45 Q275.231 2092.99 278.842 2092.99 Q282.476 2092.99 284.282 2089.45 Q286.11 2085.88 286.11 2078.77 Q286.11 2071.64 284.282 2068.1 Q282.476 2064.54 278.842 2064.54 M278.842 2060.83 Q284.652 2060.83 287.708 2065.44 Q290.786 2070.02 290.786 2078.77 Q290.786 2087.5 287.708 2092.11 Q284.652 2096.69 278.842 2096.69 Q273.032 2096.69 269.953 2092.11 Q266.898 2087.5 266.898 2078.77 Q266.898 2070.02 269.953 2065.44 Q273.032 2060.83 278.842 2060.83 Z" fill="#000000" fill-rule="nonzero" fill-opacity="1" /><path clip-path="url(#clip350)" d="M1160.84 2061.46 L1179.19 2061.46 L1179.19 2065.4 L1165.12 2065.4 L1165.12 2073.87 Q1166.14 2073.52 1167.16 2073.36 Q1168.17 2073.17 1169.19 2073.17 Q1174.98 2073.17 1178.36 2076.34 Q1181.74 2079.52 1181.74 2084.93 Q1181.74 2090.51 1178.27 2093.61 Q1174.79 2096.69 1168.48 2096.69 Q1166.3 2096.69 1164.03 2096.32 Q1161.79 2095.95 1159.38 2095.21 L1159.38 2090.51 Q1161.46 2091.64 1163.68 2092.2 Q1165.91 2092.76 1168.38 2092.76 Q1172.39 2092.76 1174.73 2090.65 Q1177.06 2088.54 1177.06 2084.93 Q1177.06 2081.32 1174.73 2079.21 Q1172.39 2077.11 1168.38 2077.11 Q1166.51 2077.11 1164.63 2077.52 Q1162.78 2077.94 1160.84 2078.82 L1160.84 2061.46 Z" fill="#000000" fill-rule="nonzero" fill-opacity="1" /><path clip-path="url(#clip350)" d="M1200.95 2064.54 Q1197.34 2064.54 1195.51 2068.1 Q1193.71 2071.64 1193.71 2078.77 Q1193.71 2085.88 1195.51 2089.45 Q1197.34 2092.99 1200.95 2092.99 Q1204.59 2092.99 1206.39 2089.45 Q1208.22 2085.88 1208.22 2078.77 Q1208.22 2071.64 1206.39 2068.1 Q1204.59 2064.54 1200.95 2064.54 M1200.95 2060.83 Q1206.76 2060.83 1209.82 2065.44 Q1212.9 2070.02 1212.9 2078.77 Q1212.9 2087.5 1209.82 2092.11 Q1206.76 2096.69 1200.95 2096.69 Q1195.14 2096.69 1192.06 2092.11 Q1189.01 2087.5 1189.01 2078.77 Q1189.01 2070.02 1192.06 2065.44 Q1195.14 2060.83 1200.95 2060.83 Z" fill="#000000" fill-rule="nonzero" fill-opacity="1" /><path clip-path="url(#clip350)" d="M2053.04 2092.08 L2060.68 2092.08 L2060.68 2065.72 L2052.37 2067.39 L2052.37 2063.13 L2060.63 2061.46 L2065.31 2061.46 L2065.31 2092.08 L2072.95 2092.08 L2072.95 2096.02 L2053.04 2096.02 L2053.04 2092.08 Z" fill="#000000" fill-rule="nonzero" fill-opacity="1" /><path clip-path="url(#clip350)" d="M2092.39 2064.54 Q2088.78 2064.54 2086.95 2068.1 Q2085.15 2071.64 2085.15 2078.77 Q2085.15 2085.88 2086.95 2089.45 Q2088.78 2092.99 2092.39 2092.99 Q2096.02 2092.99 2097.83 2089.45 Q2099.66 2085.88 2099.66 2078.77 Q2099.66 2071.64 2097.83 2068.1 Q2096.02 2064.54 2092.39 2064.54 M2092.39 2060.83 Q2098.2 2060.83 2101.26 2065.44 Q2104.33 2070.02 2104.33 2078.77 Q2104.33 2087.5 2101.26 2092.11 Q2098.2 2096.69 2092.39 2096.69 Q2086.58 2096.69 2083.5 2092.11 Q2080.45 2087.5 2080.45 2078.77 Q2080.45 2070.02 2083.5 2065.44 Q2086.58 2060.83 2092.39 2060.83 Z" fill="#000000" fill-rule="nonzero" fill-opacity="1" /><path clip-path="url(#clip350)" d="M2122.55 2064.54 Q2118.94 2064.54 2117.11 2068.1 Q2115.31 2071.64 2115.31 2078.77 Q2115.31 2085.88 2117.11 2089.45 Q2118.94 2092.99 2122.55 2092.99 Q2126.19 2092.99 2127.99 2089.45 Q2129.82 2085.88 2129.82 2078.77 Q2129.82 2071.64 2127.99 2068.1 Q2126.19 2064.54 2122.55 2064.54 M2122.55 2060.83 Q2128.36 2060.83 2131.42 2065.44 Q2134.5 2070.02 2134.5 2078.77 Q2134.5 2087.5 2131.42 2092.11 Q2128.36 2096.69 2122.55 2096.69 Q2116.74 2096.69 2113.66 2092.11 Q2110.61 2087.5 2110.61 2078.77 Q2110.61 2070.02 2113.66 2065.44 Q2116.74 2060.83 2122.55 2060.83 Z" fill="#000000" fill-rule="nonzero" fill-opacity="1" /><path clip-path="url(#clip350)" d="M2960.33 2092.08 L2967.97 2092.08 L2967.97 2065.72 L2959.66 2067.39 L2959.66 2063.13 L2967.93 2061.46 L2972.6 2061.46 L2972.6 2092.08 L2980.24 2092.08 L2980.24 2096.02 L2960.33 2096.02 L2960.33 2092.08 Z" fill="#000000" fill-rule="nonzero" fill-opacity="1" /><path clip-path="url(#clip350)" d="M2989.73 2061.46 L3008.09 2061.46 L3008.09 2065.4 L2994.01 2065.4 L2994.01 2073.87 Q2995.03 2073.52 2996.05 2073.36 Q2997.07 2073.17 2998.09 2073.17 Q3003.88 2073.17 3007.26 2076.34 Q3010.63 2079.52 3010.63 2084.93 Q3010.63 2090.51 3007.16 2093.61 Q3003.69 2096.69 2997.37 2096.69 Q2995.19 2096.69 2992.93 2096.32 Q2990.68 2095.95 2988.27 2095.21 L2988.27 2090.51 Q2990.36 2091.64 2992.58 2092.2 Q2994.8 2092.76 2997.28 2092.76 Q3001.28 2092.76 3003.62 2090.65 Q3005.96 2088.54 3005.96 2084.93 Q3005.96 2081.32 3003.62 2079.21 Q3001.28 2077.11 2997.28 2077.11 Q2995.4 2077.11 2993.53 2077.52 Q2991.68 2077.94 2989.73 2078.82 L2989.73 2061.46 Z" fill="#000000" fill-rule="nonzero" fill-opacity="1" /><path clip-path="url(#clip350)" d="M3029.85 2064.54 Q3026.24 2064.54 3024.41 2068.1 Q3022.6 2071.64 3022.6 2078.77 Q3022.6 2085.88 3024.41 2089.45 Q3026.24 2092.99 3029.85 2092.99 Q3033.48 2092.99 3035.29 2089.45 Q3037.12 2085.88 3037.12 2078.77 Q3037.12 2071.64 3035.29 2068.1 Q3033.48 2064.54 3029.85 2064.54 M3029.85 2060.83 Q3035.66 2060.83 3038.71 2065.44 Q3041.79 2070.02 3041.79 2078.77 Q3041.79 2087.5 3038.71 2092.11 Q3035.66 2096.69 3029.85 2096.69 Q3024.04 2096.69 3020.96 2092.11 Q3017.9 2087.5 3017.9 2078.77 Q3017.9 2070.02 3020.96 2065.44 Q3024.04 2060.83 3029.85 2060.83 Z" fill="#000000" fill-rule="nonzero" fill-opacity="1" /><path clip-path="url(#clip350)" d="M1734.62 2139.36 L1774.82 2139.36 L1774.82 2144.77 L1757.95 2144.77 L1757.95 2186.88 L1751.48 2186.88 L1751.48 2144.77 L1734.62 2144.77 L1734.62 2139.36 Z" fill="#000000" fill-rule="nonzero" fill-opacity="1" /><path clip-path="url(#clip350)" d="M1778.76 2151.24 L1784.62 2151.24 L1784.62 2186.88 L1778.76 2186.88 L1778.76 2151.24 M1778.76 2137.36 L1784.62 2137.36 L1784.62 2144.77 L1778.76 2144.77 L1778.76 2137.36 Z" fill="#000000" fill-rule="nonzero" fill-opacity="1" /><path clip-path="url(#clip350)" d="M1824.63 2158.08 Q1826.82 2154.13 1829.88 2152.25 Q1832.93 2150.38 1837.07 2150.38 Q1842.64 2150.38 1845.67 2154.29 Q1848.69 2158.17 1848.69 2165.37 L1848.69 2186.88 L1842.8 2186.88 L1842.8 2165.56 Q1842.8 2160.43 1840.99 2157.95 Q1839.17 2155.47 1835.45 2155.47 Q1830.9 2155.47 1828.26 2158.49 Q1825.61 2161.52 1825.61 2166.74 L1825.61 2186.88 L1819.73 2186.88 L1819.73 2165.56 Q1819.73 2160.4 1817.91 2157.95 Q1816.1 2155.47 1812.31 2155.47 Q1807.82 2155.47 1805.18 2158.52 Q1802.54 2161.55 1802.54 2166.74 L1802.54 2186.88 L1796.65 2186.88 L1796.65 2151.24 L1802.54 2151.24 L1802.54 2156.77 Q1804.54 2153.5 1807.34 2151.94 Q1810.14 2150.38 1814 2150.38 Q1817.88 2150.38 1820.58 2152.35 Q1823.32 2154.32 1824.63 2158.08 Z" fill="#000000" fill-rule="nonzero" fill-opacity="1" /><path clip-path="url(#clip350)" d="M1890.86 2167.6 L1890.86 2170.46 L1863.94 2170.46 Q1864.32 2176.51 1867.56 2179.69 Q1870.84 2182.84 1876.67 2182.84 Q1880.04 2182.84 1883.19 2182.01 Q1886.37 2181.19 1889.49 2179.53 L1889.49 2185.07 Q1886.34 2186.41 1883.03 2187.11 Q1879.72 2187.81 1876.32 2187.81 Q1867.79 2187.81 1862.79 2182.84 Q1857.82 2177.88 1857.82 2169.41 Q1857.82 2160.66 1862.53 2155.53 Q1867.28 2150.38 1875.3 2150.38 Q1882.49 2150.38 1886.66 2155.02 Q1890.86 2159.64 1890.86 2167.6 M1885.01 2165.88 Q1884.94 2161.07 1882.3 2158.21 Q1879.69 2155.34 1875.36 2155.34 Q1870.46 2155.34 1867.5 2158.11 Q1864.57 2160.88 1864.13 2165.91 L1885.01 2165.88 Z" fill="#000000" fill-rule="nonzero" fill-opacity="1" /><path clip-path="url(#clip350)" d="M1935.26 2137.42 Q1931 2144.74 1928.93 2151.9 Q1926.86 2159.07 1926.86 2166.42 Q1926.86 2173.77 1928.93 2181 Q1931.03 2188.19 1935.26 2195.48 L1930.17 2195.48 Q1925.4 2188 1923.01 2180.77 Q1920.65 2173.55 1920.65 2166.42 Q1920.65 2159.32 1923.01 2152.13 Q1925.36 2144.93 1930.17 2137.42 L1935.26 2137.42 Z" fill="#000000" fill-rule="nonzero" fill-opacity="1" /><path clip-path="url(#clip350)" d="M1976.26 2165.37 L1976.26 2186.88 L1970.4 2186.88 L1970.4 2165.56 Q1970.4 2160.5 1968.43 2157.98 Q1966.45 2155.47 1962.51 2155.47 Q1957.77 2155.47 1955.03 2158.49 Q1952.29 2161.52 1952.29 2166.74 L1952.29 2186.88 L1946.4 2186.88 L1946.4 2137.36 L1952.29 2137.36 L1952.29 2156.77 Q1954.39 2153.56 1957.22 2151.97 Q1960.09 2150.38 1963.81 2150.38 Q1969.96 2150.38 1973.11 2154.2 Q1976.26 2157.98 1976.26 2165.37 Z" fill="#000000" fill-rule="nonzero" fill-opacity="1" /><path clip-path="url(#clip350)" d="M1987.02 2137.42 L1992.11 2137.42 Q1996.88 2144.93 1999.24 2152.13 Q2001.63 2159.32 2001.63 2166.42 Q2001.63 2173.55 1999.24 2180.77 Q1996.88 2188 1992.11 2195.48 L1987.02 2195.48 Q1991.25 2188.19 1993.32 2181 Q1995.42 2173.77 1995.42 2166.42 Q1995.42 2159.07 1993.32 2151.9 Q1991.25 2144.74 1987.02 2137.42 Z" fill="#000000" fill-rule="nonzero" fill-opacity="1" /><polyline clip-path="url(#clip350)" style="stroke:#000000; stroke-linecap:round; stroke-linejoin:round; stroke-width:4; stroke-opacity:1; fill:none" points="183.485,2024.02 183.485,47.2441 "/>
<polyline clip-path="url(#clip350)" style="stroke:#000000; stroke-linecap:round; stroke-linejoin:round; stroke-width:4; stroke-opacity:1; fill:none" points="183.485,1968.07 202.383,1968.07 "/>
<polyline clip-path="url(#clip350)" style="stroke:#000000; stroke-linecap:round; stroke-linejoin:round; stroke-width:4; stroke-opacity:1; fill:none" points="183.485,1429.87 202.383,1429.87 "/>
<polyline clip-path="url(#clip350)" style="stroke:#000000; stroke-linecap:round; stroke-linejoin:round; stroke-width:4; stroke-opacity:1; fill:none" points="183.485,891.662 202.383,891.662 "/>
<polyline clip-path="url(#clip350)" style="stroke:#000000; stroke-linecap:round; stroke-linejoin:round; stroke-width:4; stroke-opacity:1; fill:none" points="183.485,353.456 202.383,353.456 "/>
<path clip-path="url(#clip350)" d="M117.541 1953.87 Q113.93 1953.87 112.101 1957.44 Q110.295 1960.98 110.295 1968.11 Q110.295 1975.21 112.101 1978.78 Q113.93 1982.32 117.541 1982.32 Q121.175 1982.32 122.981 1978.78 Q124.809 1975.21 124.809 1968.11 Q124.809 1960.98 122.981 1957.44 Q121.175 1953.87 117.541 1953.87 M117.541 1950.17 Q123.351 1950.17 126.407 1954.77 Q129.485 1959.36 129.485 1968.11 Q129.485 1976.83 126.407 1981.44 Q123.351 1986.02 117.541 1986.02 Q111.731 1986.02 108.652 1981.44 Q105.596 1976.83 105.596 1968.11 Q105.596 1959.36 108.652 1954.77 Q111.731 1950.17 117.541 1950.17 Z" fill="#000000" fill-rule="nonzero" fill-opacity="1" /><path clip-path="url(#clip350)" d="M113.166 1443.21 L129.485 1443.21 L129.485 1447.15 L107.541 1447.15 L107.541 1443.21 Q110.203 1440.46 114.786 1435.83 Q119.393 1431.18 120.573 1429.83 Q122.819 1427.31 123.698 1425.57 Q124.601 1423.81 124.601 1422.12 Q124.601 1419.37 122.657 1417.63 Q120.735 1415.9 117.633 1415.9 Q115.434 1415.9 112.981 1416.66 Q110.55 1417.43 107.772 1418.98 L107.772 1414.25 Q110.596 1413.12 113.05 1412.54 Q115.504 1411.96 117.541 1411.96 Q122.911 1411.96 126.106 1414.65 Q129.3 1417.33 129.3 1421.82 Q129.3 1423.95 128.49 1425.87 Q127.703 1427.77 125.596 1430.37 Q125.018 1431.04 121.916 1434.25 Q118.814 1437.45 113.166 1443.21 Z" fill="#000000" fill-rule="nonzero" fill-opacity="1" /><path clip-path="url(#clip350)" d="M119.902 878.456 L108.096 896.905 L119.902 896.905 L119.902 878.456 M118.675 874.382 L124.555 874.382 L124.555 896.905 L129.485 896.905 L129.485 900.794 L124.555 900.794 L124.555 908.942 L119.902 908.942 L119.902 900.794 L104.3 900.794 L104.3 896.28 L118.675 874.382 Z" fill="#000000" fill-rule="nonzero" fill-opacity="1" /><path clip-path="url(#clip350)" d="M117.957 351.593 Q114.809 351.593 112.958 353.746 Q111.129 355.898 111.129 359.648 Q111.129 363.375 112.958 365.551 Q114.809 367.704 117.957 367.704 Q121.106 367.704 122.934 365.551 Q124.786 363.375 124.786 359.648 Q124.786 355.898 122.934 353.746 Q121.106 351.593 117.957 351.593 M127.24 336.94 L127.24 341.199 Q125.481 340.366 123.675 339.926 Q121.893 339.486 120.133 339.486 Q115.504 339.486 113.05 342.611 Q110.62 345.736 110.272 352.056 Q111.638 350.042 113.698 348.977 Q115.758 347.889 118.235 347.889 Q123.444 347.889 126.453 351.06 Q129.485 354.209 129.485 359.648 Q129.485 364.972 126.337 368.19 Q123.189 371.408 117.957 371.408 Q111.962 371.408 108.791 366.824 Q105.62 362.218 105.62 353.491 Q105.62 345.297 109.508 340.435 Q113.397 335.551 119.948 335.551 Q121.707 335.551 123.49 335.898 Q125.295 336.246 127.24 336.94 Z" fill="#000000" fill-rule="nonzero" fill-opacity="1" /><path clip-path="url(#clip350)" d="M1.76483 1219.25 L7.23933 1219.25 Q5.87071 1221.73 5.20231 1224.25 Q4.50208 1226.73 4.50208 1229.28 Q4.50208 1234.97 8.13053 1238.13 Q11.7272 1241.28 18.252 1241.28 Q24.7769 1241.28 28.4053 1238.13 Q32.0019 1234.97 32.0019 1229.28 Q32.0019 1226.73 31.3335 1224.25 Q30.6333 1221.73 29.2647 1219.25 L34.6755 1219.25 Q35.8214 1221.7 36.3943 1224.34 Q36.9672 1226.95 36.9672 1229.91 Q36.9672 1237.97 31.9064 1242.71 Q26.8457 1247.45 18.252 1247.45 Q9.53099 1247.45 4.53391 1242.68 Q-0.46317 1237.87 -0.46317 1229.53 Q-0.46317 1226.83 0.109744 1224.25 Q0.650829 1221.67 1.76483 1219.25 Z" fill="#000000" fill-rule="nonzero" fill-opacity="1" /><path clip-path="url(#clip350)" d="M-11.4758 1215.4 L-11.4758 1175.2 L-6.06499 1175.2 L-6.06499 1192.07 L36.0442 1192.07 L36.0442 1198.53 L-6.06499 1198.53 L-6.06499 1215.4 L-11.4758 1215.4 Z" fill="#000000" fill-rule="nonzero" fill-opacity="1" /><path clip-path="url(#clip350)" d="M14.5281 1139.62 L36.0442 1139.62 L36.0442 1145.47 L14.719 1145.47 Q9.6583 1145.47 7.14385 1147.45 Q4.6294 1149.42 4.6294 1153.37 Q4.6294 1158.11 7.65311 1160.85 Q10.6768 1163.58 15.8967 1163.58 L36.0442 1163.58 L36.0442 1169.47 L0.3962 1169.47 L0.3962 1163.58 L5.93437 1163.58 Q2.71968 1161.48 1.12826 1158.65 Q-0.46317 1155.78 -0.46317 1152.06 Q-0.46317 1145.92 3.35625 1142.77 Q7.14385 1139.62 14.5281 1139.62 Z" fill="#000000" fill-rule="nonzero" fill-opacity="1" /><path clip-path="url(#clip350)" d="M-11.4758 1134.27 L-11.4758 1094.07 L-6.06499 1094.07 L-6.06499 1110.94 L36.0442 1110.94 L36.0442 1117.4 L-6.06499 1117.4 L-6.06499 1134.27 L-11.4758 1134.27 Z" fill="#000000" fill-rule="nonzero" fill-opacity="1" /><path clip-path="url(#clip350)" d="M-13.481 1067.94 L-13.481 1054.44 L-8.92956 1054.44 L-8.92956 1062.08 L40.0864 1062.08 L40.0864 1054.44 L44.6379 1054.44 L44.6379 1067.94 L-13.481 1067.94 Z" fill="#000000" fill-rule="nonzero" fill-opacity="1" /><path clip-path="url(#clip350)" d="M14.5281 1012.33 L36.0442 1012.33 L36.0442 1018.19 L14.719 1018.19 Q9.6583 1018.19 7.14385 1020.16 Q4.6294 1022.14 4.6294 1026.08 Q4.6294 1030.83 7.65311 1033.56 Q10.6768 1036.3 15.8967 1036.3 L36.0442 1036.3 L36.0442 1042.19 L0.3962 1042.19 L0.3962 1036.3 L5.93437 1036.3 Q2.71968 1034.2 1.12826 1031.37 Q-0.46317 1028.5 -0.46317 1024.78 Q-0.46317 1018.64 3.35625 1015.48 Q7.14385 1012.33 14.5281 1012.33 Z" fill="#000000" fill-rule="nonzero" fill-opacity="1" /><path clip-path="url(#clip350)" d="M17.8064 977.195 Q11.4407 977.195 7.93956 979.837 Q4.43842 982.446 4.43842 987.189 Q4.43842 991.9 7.93956 994.541 Q11.4407 997.151 17.8064 997.151 Q24.1403 997.151 27.6414 994.541 Q31.1426 991.9 31.1426 987.189 Q31.1426 982.446 27.6414 979.837 Q24.1403 977.195 17.8064 977.195 M31.62 971.338 Q40.723 971.338 45.1471 975.381 Q49.6031 979.423 49.6031 987.762 Q49.6031 990.849 49.1257 993.586 Q48.6801 996.324 47.7252 998.902 L42.0279 998.902 Q43.4284 996.324 44.0968 993.809 Q44.7652 991.295 44.7652 988.685 Q44.7652 982.924 41.7415 980.059 Q38.7496 977.195 32.6703 977.195 L29.7739 977.195 Q32.925 979.009 34.4846 981.842 Q36.0442 984.674 36.0442 988.621 Q36.0442 995.178 31.0471 999.188 Q26.05 1003.2 17.8064 1003.2 Q9.53099 1003.2 4.53391 999.188 Q-0.46317 995.178 -0.46317 988.621 Q-0.46317 984.674 1.09643 981.842 Q2.65603 979.009 5.80705 977.195 L0.3962 977.195 L0.3962 971.338 L31.62 971.338 Z" fill="#000000" fill-rule="nonzero" fill-opacity="1" /><path clip-path="url(#clip350)" d="M-11.4758 948.867 L-11.4758 943.457 L42.0916 960.007 L42.0916 965.418 L-11.4758 948.867 Z" fill="#000000" fill-rule="nonzero" fill-opacity="1" /><path clip-path="url(#clip350)" d="M7.23933 909.559 Q3.2926 907.363 1.41471 904.307 Q-0.46317 901.252 -0.46317 897.114 Q-0.46317 891.544 3.45174 888.52 Q7.33482 885.497 14.5281 885.497 L36.0442 885.497 L36.0442 891.385 L14.719 891.385 Q9.59465 891.385 7.11202 893.199 Q4.6294 895.014 4.6294 898.737 Q4.6294 903.289 7.65311 905.931 Q10.6768 908.572 15.8967 908.572 L36.0442 908.572 L36.0442 914.461 L14.719 914.461 Q9.56282 914.461 7.11202 916.275 Q4.6294 918.089 4.6294 921.877 Q4.6294 926.365 7.68493 929.006 Q10.7086 931.648 15.8967 931.648 L36.0442 931.648 L36.0442 937.536 L0.3962 937.536 L0.3962 931.648 L5.93437 931.648 Q2.65603 929.643 1.09643 926.842 Q-0.46317 924.041 -0.46317 920.19 Q-0.46317 916.307 1.5102 913.601 Q3.48357 910.864 7.23933 909.559 Z" fill="#000000" fill-rule="nonzero" fill-opacity="1" /><path clip-path="url(#clip350)" d="M-11.4758 873.561 L-11.4758 867.132 L30.6333 867.132 L30.6333 843.992 L36.0442 843.992 L36.0442 873.561 L-11.4758 873.561 Z" fill="#000000" fill-rule="nonzero" fill-opacity="1" /><path clip-path="url(#clip350)" d="M-13.481 823.813 L44.6379 823.813 L44.6379 837.308 L40.0864 837.308 L40.0864 829.701 L-8.92956 829.701 L-8.92956 837.308 L-13.481 837.308 L-13.481 823.813 Z" fill="#000000" fill-rule="nonzero" fill-opacity="1" /><polyline clip-path="url(#clip351)" style="stroke:#4169e1; stroke-linecap:round; stroke-linejoin:round; stroke-width:8; stroke-opacity:1; fill:none" points="278.842,1968.07 296.988,1903.77 315.134,1846.29 333.28,1794.99 351.426,1749.3 369.571,1708.71 387.717,1672.73 405.863,1640.93 424.009,1612.92 442.155,1588.34 460.301,1566.88 478.447,1548.21 496.593,1532.09 514.739,1518.26 532.885,1506.49 551.03,1496.58 569.176,1488.34 587.322,1481.6 605.468,1476.2 623.614,1472 641.76,1468.86 659.906,1466.66 678.052,1465.3 696.198,1464.66 714.344,1464.66 732.489,1465.2 750.635,1466.21 768.781,1467.61 786.927,1469.32 805.073,1471.29 823.219,1473.46 841.365,1475.76 859.511,1478.14 877.657,1480.55 895.803,1482.95 913.949,1485.3 932.094,1487.54 950.24,1489.64 968.386,1491.56 986.532,1493.26 1004.68,1494.72 1022.82,1495.89 1040.97,1496.75 1059.12,1497.26 1077.26,1497.4 1095.41,1497.14 1113.55,1496.46 1131.7,1495.32 1149.85,1493.71 1167.99,1491.6 1186.14,1488.98 1204.28,1485.82 1222.43,1482.1 1240.57,1477.81 1258.72,1472.93 1276.87,1467.45 1295.01,1461.36 1313.16,1454.64 1331.3,1447.29 1349.45,1439.29 1367.6,1430.64 1385.74,1421.35 1403.89,1411.39 1422.03,1400.79 1440.18,1389.53 1458.33,1377.62 1476.47,1365.07 1494.62,1351.88 1512.76,1338.07 1530.91,1323.65 1549.06,1308.63 1567.2,1293.04 1585.35,1276.88 1603.49,1260.18 1621.64,1242.98 1639.78,1225.28 1657.93,1207.12 1676.08,1188.54 1694.22,1169.55 1712.37,1150.21 1730.51,1130.54 1748.66,1110.57 1766.81,1090.36 1784.95,1069.94 1803.1,1049.35 1821.24,1028.64 1839.39,1007.84 1857.54,987.004 1875.68,966.176 1893.83,945.402 1911.97,924.725 1930.12,904.19 1948.26,883.842 1966.41,863.726 1984.56,843.884 2002.7,824.359 2020.85,805.19 2038.99,786.419 2057.14,768.084 2075.29,750.22 2093.43,732.862 2111.58,716.041 2129.72,699.789 2147.87,684.133 2166.02,669.097 2184.16,654.706 2202.31,640.979 2220.45,627.933 2238.6,615.584 2256.75,603.944 2274.89,593.023 2293.04,582.827 2311.18,573.36 2329.33,564.626 2347.47,556.623 2365.62,549.349 2383.77,542.797 2401.91,536.963 2420.06,531.835 2438.2,527.403 2456.35,523.655 2474.5,520.575 2492.64,518.149 2510.79,516.36 2528.93,515.188 2547.08,514.616 2565.23,514.624 2583.37,515.19 2601.52,516.294 2619.66,517.916 2637.81,520.031 2655.96,522.621 2674.1,525.662 2692.25,529.132 2710.39,533.011 2728.54,537.277 2746.68,541.908 2764.83,546.885 2782.98,552.188 2801.12,557.796 2819.27,563.691 2837.41,569.855 2855.56,576.269 2873.71,582.917 2891.85,589.782 2910,596.848 2928.14,604.1 2946.29,611.524 2964.44,619.107 2982.58,626.833 3000.73,634.692 3018.87,642.672 3037.02,650.761 3055.17,658.949 3073.31,667.225 3091.46,675.581 3109.6,684.006 3127.75,692.494 3145.89,701.035 3164.04,709.623 3182.19,718.25 3200.33,726.91 3218.48,735.596 3236.62,744.304 3254.77,753.027 3272.92,761.76 3291.06,770.499 3309.21,779.24 3327.35,787.977 3345.5,796.708 3363.65,805.428 3381.79,814.135 3399.94,822.825 3418.08,831.495 3436.23,840.143 3454.37,848.766 3457.4,850.2 "/>
<polyline clip-path="url(#clip351)" style="stroke:#ff8c00; stroke-linecap:round; stroke-linejoin:round; stroke-width:8; stroke-opacity:1; fill:none" stroke-dasharray="32, 20" points="278.842,1968.07 296.988,1904.22 315.134,1847.07 333.28,1796 351.426,1750.45 369.571,1709.91 387.717,1673.92 405.863,1642.05 424.009,1613.91 442.155,1589.17 460.301,1567.49 478.447,1548.59 496.593,1532.22 514.739,1518.12 532.885,1506.08 551.03,1495.9 569.176,1487.41 587.322,1480.43 605.468,1474.82 623.614,1470.45 641.76,1467.19 659.906,1464.92 678.052,1463.54 696.198,1462.96 714.344,1463.08 732.489,1463.81 750.635,1465.05 768.781,1466.71 786.927,1468.64 805.073,1470.68 823.219,1472.57 841.365,1473.99 859.511,1474.55 877.657,1473.89 895.803,1471.69 913.949,1467.75 932.094,1461.99 950.24,1454.43 968.386,1445.14 986.532,1434.27 1004.68,1421.95 1022.82,1408.36 1040.97,1393.66 1059.12,1377.99 1077.26,1361.51 1095.41,1344.35 1113.55,1326.64 1131.7,1308.47 1149.85,1289.97 1167.99,1271.21 1186.14,1252.28 1204.28,1233.25 1222.43,1214.18 1240.57,1195.14 1258.72,1176.18 1276.87,1157.33 1295.01,1138.65 1313.16,1120.16 1331.3,1101.89 1349.45,1083.88 1367.6,1066.15 1385.74,1048.71 1403.89,1031.58 1422.03,1014.77 1440.18,998.309 1458.33,982.192 1476.47,966.431 1494.62,951.031 1512.76,935.998 1530.91,921.334 1549.06,907.041 1567.2,893.121 1585.35,879.572 1603.49,866.395 1621.64,853.587 1639.78,841.146 1657.93,829.068 1676.08,817.351 1694.22,805.989 1712.37,794.98 1730.51,784.317 1748.66,773.996 1766.81,764.011 1784.95,754.357 1803.1,745.029 1821.24,736.019 1839.39,727.323 1857.54,718.934 1875.68,710.847 1893.83,703.054 1911.97,695.55 1930.12,688.33 1948.26,681.385 1966.41,674.711 1984.56,668.302 2002.7,662.151 2020.85,656.253 2038.99,650.601 2057.14,645.19 2075.29,640.015 2093.43,635.069 2111.58,630.348 2129.72,625.845 2147.87,621.556 2166.02,617.475 2184.16,613.598 2202.31,609.919 2220.45,606.433 2238.6,603.136 2256.75,600.022 2274.89,597.089 2293.04,594.33 2311.18,591.742 2329.33,589.32 2347.47,587.061 2365.62,584.96 2383.77,583.013 2401.91,581.216 2420.06,579.566 2438.2,578.059 2456.35,576.692 2474.5,575.46 2492.64,574.36 2510.79,573.39 2528.93,572.545 2547.08,571.823 2565.23,571.221 2583.37,570.734 2601.52,570.362 2619.66,570.099 2637.81,569.945 2655.96,569.895 2674.1,569.948 2692.25,570.1 2710.39,570.348 2728.54,570.692 2746.68,571.127 2764.83,571.651 2782.98,572.262 2801.12,572.958 2819.27,573.737 2837.41,574.595 2855.56,575.532 2873.71,576.544 2891.85,577.63 2910,578.787 2928.14,580.014 2946.29,581.309 2964.44,582.67 2982.58,584.094 3000.73,585.579 3018.87,587.125 3037.02,588.73 3055.17,590.39 3073.31,592.106 3091.46,593.874 3109.6,595.694 3127.75,597.563 3145.89,599.481 3164.04,601.445 3182.19,603.454 3200.33,605.507 3218.48,607.602 3236.62,609.737 3254.77,611.912 3272.92,614.124 3291.06,616.372 3309.21,618.656 3327.35,620.973 3345.5,623.323 3363.65,625.703 3381.79,628.114 3399.94,630.553 3418.08,633.019 3436.23,635.512 3454.37,638.029 3457.4,638.451 "/>
<line clip-path="url(#clip351)" x1="933.304" y1="1416.41" x2="905.304" y2="1388.41" style="stroke:#dc143c; stroke-width:8.8; stroke-opacity:1"/>
<line clip-path="url(#clip351)" x1="933.304" y1="1416.41" x2="905.304" y2="1444.41" style="stroke:#dc143c; stroke-width:8.8; stroke-opacity:1"/>
<line clip-path="url(#clip351)" x1="933.304" y1="1416.41" x2="961.304" y2="1444.41" style="stroke:#dc143c; stroke-width:8.8; stroke-opacity:1"/>
<line clip-path="url(#clip351)" x1="933.304" y1="1416.41" x2="961.304" y2="1388.41" style="stroke:#dc143c; stroke-width:8.8; stroke-opacity:1"/>
<line clip-path="url(#clip351)" x1="1356.71" y1="1082.72" x2="1328.71" y2="1054.72" style="stroke:#dc143c; stroke-width:8.8; stroke-opacity:1"/>
<line clip-path="url(#clip351)" x1="1356.71" y1="1082.72" x2="1328.71" y2="1110.72" style="stroke:#dc143c; stroke-width:8.8; stroke-opacity:1"/>
<line clip-path="url(#clip351)" x1="1356.71" y1="1082.72" x2="1384.71" y2="1110.72" style="stroke:#dc143c; stroke-width:8.8; stroke-opacity:1"/>
<line clip-path="url(#clip351)" x1="1356.71" y1="1082.72" x2="1384.71" y2="1054.72" style="stroke:#dc143c; stroke-width:8.8; stroke-opacity:1"/>
<line clip-path="url(#clip351)" x1="1627.99" y1="813.622" x2="1599.99" y2="785.622" style="stroke:#dc143c; stroke-width:8.8; stroke-opacity:1"/>
<line clip-path="url(#clip351)" x1="1627.99" y1="813.622" x2="1599.99" y2="841.622" style="stroke:#dc143c; stroke-width:8.8; stroke-opacity:1"/>
<line clip-path="url(#clip351)" x1="1627.99" y1="813.622" x2="1655.99" y2="841.622" style="stroke:#dc143c; stroke-width:8.8; stroke-opacity:1"/>
<line clip-path="url(#clip351)" x1="1627.99" y1="813.622" x2="1655.99" y2="785.622" style="stroke:#dc143c; stroke-width:8.8; stroke-opacity:1"/>
<line clip-path="url(#clip351)" x1="1882.64" y1="784.021" x2="1854.64" y2="756.021" style="stroke:#dc143c; stroke-width:8.8; stroke-opacity:1"/>
<line clip-path="url(#clip351)" x1="1882.64" y1="784.021" x2="1854.64" y2="812.021" style="stroke:#dc143c; stroke-width:8.8; stroke-opacity:1"/>
<line clip-path="url(#clip351)" x1="1882.64" y1="784.021" x2="1910.64" y2="812.021" style="stroke:#dc143c; stroke-width:8.8; stroke-opacity:1"/>
<line clip-path="url(#clip351)" x1="1882.64" y1="784.021" x2="1910.64" y2="756.021" style="stroke:#dc143c; stroke-width:8.8; stroke-opacity:1"/>
<line clip-path="url(#clip351)" x1="1965.5" y1="875.516" x2="1937.5" y2="847.516" style="stroke:#dc143c; stroke-width:8.8; stroke-opacity:1"/>
<line clip-path="url(#clip351)" x1="1965.5" y1="875.516" x2="1937.5" y2="903.516" style="stroke:#dc143c; stroke-width:8.8; stroke-opacity:1"/>
<line clip-path="url(#clip351)" x1="1965.5" y1="875.516" x2="1993.5" y2="903.516" style="stroke:#dc143c; stroke-width:8.8; stroke-opacity:1"/>
<line clip-path="url(#clip351)" x1="1965.5" y1="875.516" x2="1993.5" y2="847.516" style="stroke:#dc143c; stroke-width:8.8; stroke-opacity:1"/>
<line clip-path="url(#clip351)" x1="2064.4" y1="625.25" x2="2036.4" y2="597.25" style="stroke:#dc143c; stroke-width:8.8; stroke-opacity:1"/>
<line clip-path="url(#clip351)" x1="2064.4" y1="625.25" x2="2036.4" y2="653.25" style="stroke:#dc143c; stroke-width:8.8; stroke-opacity:1"/>
<line clip-path="url(#clip351)" x1="2064.4" y1="625.25" x2="2092.4" y2="653.25" style="stroke:#dc143c; stroke-width:8.8; stroke-opacity:1"/>
<line clip-path="url(#clip351)" x1="2064.4" y1="625.25" x2="2092.4" y2="597.25" style="stroke:#dc143c; stroke-width:8.8; stroke-opacity:1"/>
<line clip-path="url(#clip351)" x1="2135.17" y1="649.469" x2="2107.17" y2="621.469" style="stroke:#dc143c; stroke-width:8.8; stroke-opacity:1"/>
<line clip-path="url(#clip351)" x1="2135.17" y1="649.469" x2="2107.17" y2="677.469" style="stroke:#dc143c; stroke-width:8.8; stroke-opacity:1"/>
<line clip-path="url(#clip351)" x1="2135.17" y1="649.469" x2="2163.17" y2="677.469" style="stroke:#dc143c; stroke-width:8.8; stroke-opacity:1"/>
<line clip-path="url(#clip351)" x1="2135.17" y1="649.469" x2="2163.17" y2="621.469" style="stroke:#dc143c; stroke-width:8.8; stroke-opacity:1"/>
<line clip-path="url(#clip351)" x1="2258.56" y1="576.812" x2="2230.56" y2="548.812" style="stroke:#dc143c; stroke-width:8.8; stroke-opacity:1"/>
<line clip-path="url(#clip351)" x1="2258.56" y1="576.812" x2="2230.56" y2="604.812" style="stroke:#dc143c; stroke-width:8.8; stroke-opacity:1"/>
<line clip-path="url(#clip351)" x1="2258.56" y1="576.812" x2="2286.56" y2="604.812" style="stroke:#dc143c; stroke-width:8.8; stroke-opacity:1"/>
<line clip-path="url(#clip351)" x1="2258.56" y1="576.812" x2="2286.56" y2="548.812" style="stroke:#dc143c; stroke-width:8.8; stroke-opacity:1"/>
<circle clip-path="url(#clip351)" cx="431.872" cy="1637.08" r="18" fill="#1e90ff" fill-rule="evenodd" fill-opacity="1" stroke="#000000" stroke-opacity="1" stroke-width="4.4"/>
<circle clip-path="url(#clip351)" cx="511.714" cy="1462.16" r="18" fill="#1e90ff" fill-rule="evenodd" fill-opacity="1" stroke="#000000" stroke-opacity="1" stroke-width="4.4"/>
<circle clip-path="url(#clip351)" cx="642.062" cy="1478.31" r="18" fill="#1e90ff" fill-rule="evenodd" fill-opacity="1" stroke="#000000" stroke-opacity="1" stroke-width="4.4"/>
<circle clip-path="url(#clip351)" cx="787.834" cy="1470.23" r="18" fill="#1e90ff" fill-rule="evenodd" fill-opacity="1" stroke="#000000" stroke-opacity="1" stroke-width="4.4"/>
<circle clip-path="url(#clip351)" cx="2489.92" cy="751.728" r="18" fill="#1e90ff" fill-rule="evenodd" fill-opacity="1" stroke="#000000" stroke-opacity="1" stroke-width="4.4"/>
<circle clip-path="url(#clip351)" cx="2640.53" cy="103.191" r="18" fill="#1e90ff" fill-rule="evenodd" fill-opacity="1" stroke="#000000" stroke-opacity="1" stroke-width="4.4"/>
<circle clip-path="url(#clip351)" cx="2895.78" cy="474.553" r="18" fill="#1e90ff" fill-rule="evenodd" fill-opacity="1" stroke="#000000" stroke-opacity="1" stroke-width="4.4"/>
<circle clip-path="url(#clip351)" cx="3094.48" cy="867.443" r="18" fill="#1e90ff" fill-rule="evenodd" fill-opacity="1" stroke="#000000" stroke-opacity="1" stroke-width="4.4"/>
</svg>
