<?xml version="1.0" encoding="utf-8"?>
<svg xmlns="http://www.w3.org/2000/svg" xmlns:xlink="http://www.w3.org/1999/xlink" width="600" height="400" viewBox="0 0 2400 1600">
<defs>
  <clipPath id="clip890">
    <rect x="0" y="0" width="2400" height="1600"/>
  </clipPath>
</defs>
<path clip-path="url(#clip890)" d="M0 1600 L2400 1600 L2400 0 L0 0  Z" fill="#ffffff" fill-rule="evenodd" fill-opacity="1"/>
<defs>
  <clipPath id="clip891">
    <rect x="219" y="123" width="2134" height="1301"/>
  </clipPath>
</defs>
<path clip-path="url(#clip890)" d="M174.149 1423.18 L2352.76 1423.18 L2352.76 123.472 L174.149 123.472  Z" fill="#ffffff" fill-rule="evenodd" fill-opacity="1"/>
<defs>
  <clipPath id="clip892">
    <rect x="174" y="123" width="2180" height="1301"/>
  </clipPath>
</defs>
<polyline clip-path="url(#clip892)" style="stroke:#000000; stroke-linecap:round; stroke-linejoin:round; stroke-width:2; stroke-opacity:0.1; fill:none" points="235.808,1423.18 235.808,123.472 "/>
<polyline clip-path="url(#clip892)" style="stroke:#000000; stroke-linecap:round; stroke-linejoin:round; stroke-width:2; stroke-opacity:0.1; fill:none" points="730.422,1423.18 730.422,123.472 "/>
<polyline clip-path="url(#clip892)" style="stroke:#000000; stroke-linecap:round; stroke-linejoin:round; stroke-width:2; stroke-opacity:0.1; fill:none" points="1225.04,1423.18 1225.04,123.472 "/>
<polyline clip-path="url(#clip892)" style="stroke:#000000; stroke-linecap:round; stroke-linejoin:round; stroke-width:2; stroke-opacity:0.1; fill:none" points="1719.65,1423.18 1719.65,123.472 "/>
<polyline clip-path="url(#clip892)" style="stroke:#000000; stroke-linecap:round; stroke-linejoin:round; stroke-width:2; stroke-opacity:0.1; fill:none" points="2214.27,1423.18 2214.27,123.472 "/>
<polyline clip-path="url(#clip892)" style="stroke:#000000; stroke-linecap:round; stroke-linejoin:round; stroke-width:2; stroke-opacity:0.1; fill:none" points="174.149,1386.4 2352.76,1386.4 "/>
<polyline clip-path="url(#clip892)" style="stroke:#000000; stroke-linecap:round; stroke-linejoin:round; stroke-width:2; stroke-opacity:0.1; fill:none" points="174.149,1061.01 2352.76,1061.01 "/>
<polyline clip-path="url(#clip892)" style="stroke:#000000; stroke-linecap:round; stroke-linejoin:round; stroke-width:2; stroke-opacity:0.1; fill:none" points="174.149,735.626 2352.76,735.626 "/>
<polyline clip-path="url(#clip892)" style="stroke:#000000; stroke-linecap:round; stroke-linejoin:round; stroke-width:2; stroke-opacity:0.1; fill:none" points="174.149,410.242 2352.76,410.242 "/>
<polyline clip-path="url(#clip890)" style="stroke:#000000; stroke-linecap:round; stroke-linejoin:round; stroke-width:4; stroke-opacity:1; fill:none" points="174.149,1423.18 2352.76,1423.18 "/>
<polyline clip-path="url(#clip890)" style="stroke:#000000; stroke-linecap:round; stroke-linejoin:round; stroke-width:4; stroke-opacity:1; fill:none" points="235.808,1423.18 235.808,1404.28 "/>
<polyline clip-path="url(#clip890)" style="stroke:#000000; stroke-linecap:round; stroke-linejoin:round; stroke-width:4; stroke-opacity:1; fill:none" points="730.422,1423.18 730.422,1404.28 "/>
<polyline clip-path="url(#clip890)" style="stroke:#000000; stroke-linecap:round; stroke-linejoin:round; stroke-width:4; stroke-opacity:1; fill:none" points="1225.04,1423.18 1225.04,1404.28 "/>
<polyline clip-path="url(#clip890)" style="stroke:#000000; stroke-linecap:round; stroke-linejoin:round; stroke-width:4; stroke-opacity:1; fill:none" points="1719.65,1423.18 1719.65,1404.28 "/>
<polyline clip-path="url(#clip890)" style="stroke:#000000; stroke-linecap:round; stroke-linejoin:round; stroke-width:4; stroke-opacity:1; fill:none" points="2214.27,1423.18 2214.27,1404.28 "/>
<path clip-path="url(#clip890)" d="M235.808 1454.1 Q232.197 1454.1 230.368 1457.66 Q228.562 1461.2 228.562 1468.33 Q228.562 1475.44 230.368 1479.01 Q232.197 1482.55 235.808 1482.55 Q239.442 1482.55 241.247 1479.01 Q243.076 1475.44 243.076 1468.33 Q243.076 1461.2 241.247 1457.66 Q239.442 1454.1 235.808 1454.1 M235.808 1450.39 Q241.618 1450.39 244.673 1455 Q247.752 1459.58 247.752 1468.33 Q247.752 1477.06 244.673 1481.67 Q241.618 1486.25 235.808 1486.25 Q229.997 1486.25 226.919 1481.67 Q223.863 1477.06 223.863 1468.33 Q223.863 1459.58 226.919 1455 Q229.997 1450.39 235.808 1450.39 Z" fill="#000000" fill-rule="nonzero" fill-opacity="1" /><path clip-path="url(#clip890)" d="M709.693 1481.64 L726.013 1481.64 L726.013 1485.58 L704.068 1485.58 L704.068 1481.64 Q706.73 1478.89 711.314 1474.26 Q715.92 1469.61 717.101 1468.27 Q719.346 1465.74 720.226 1464.01 Q721.129 1462.25 721.129 1460.56 Q721.129 1457.8 719.184 1456.07 Q717.263 1454.33 714.161 1454.33 Q711.962 1454.33 709.508 1455.09 Q707.078 1455.86 704.3 1457.41 L704.3 1452.69 Q707.124 1451.55 709.578 1450.97 Q712.031 1450.39 714.068 1450.39 Q719.439 1450.39 722.633 1453.08 Q725.828 1455.77 725.828 1460.26 Q725.828 1462.39 725.017 1464.31 Q724.23 1466.2 722.124 1468.8 Q721.545 1469.47 718.443 1472.69 Q715.342 1475.88 709.693 1481.64 Z" fill="#000000" fill-rule="nonzero" fill-opacity="1" /><path clip-path="url(#clip890)" d="M735.874 1451.02 L754.23 1451.02 L754.23 1454.96 L740.156 1454.96 L740.156 1463.43 Q741.175 1463.08 742.193 1462.92 Q743.212 1462.73 744.23 1462.73 Q750.017 1462.73 753.397 1465.9 Q756.776 1469.08 756.776 1474.49 Q756.776 1480.07 753.304 1483.17 Q749.832 1486.25 743.513 1486.25 Q741.337 1486.25 739.068 1485.88 Q736.823 1485.51 734.415 1484.77 L734.415 1480.07 Q736.499 1481.2 738.721 1481.76 Q740.943 1482.32 743.42 1482.32 Q747.425 1482.32 749.763 1480.21 Q752.101 1478.1 752.101 1474.49 Q752.101 1470.88 749.763 1468.77 Q747.425 1466.67 743.42 1466.67 Q741.545 1466.67 739.67 1467.08 Q737.818 1467.5 735.874 1468.38 L735.874 1451.02 Z" fill="#000000" fill-rule="nonzero" fill-opacity="1" /><path clip-path="url(#clip890)" d="M1199.74 1451.02 L1218.09 1451.02 L1218.09 1454.96 L1204.02 1454.96 L1204.02 1463.43 Q1205.04 1463.08 1206.06 1462.92 Q1207.07 1462.73 1208.09 1462.73 Q1213.88 1462.73 1217.26 1465.9 Q1220.64 1469.08 1220.64 1474.49 Q1220.64 1480.07 1217.17 1483.17 Q1213.69 1486.25 1207.38 1486.25 Q1205.2 1486.25 1202.93 1485.88 Q1200.69 1485.51 1198.28 1484.77 L1198.28 1480.07 Q1200.36 1481.2 1202.58 1481.76 Q1204.81 1482.32 1207.28 1482.32 Q1211.29 1482.32 1213.63 1480.21 Q1215.96 1478.1 1215.96 1474.49 Q1215.96 1470.88 1213.63 1468.77 Q1211.29 1466.67 1207.28 1466.67 Q1205.41 1466.67 1203.53 1467.08 Q1201.68 1467.5 1199.74 1468.38 L1199.74 1451.02 Z" fill="#000000" fill-rule="nonzero" fill-opacity="1" /><path clip-path="url(#clip890)" d="M1239.85 1454.1 Q1236.24 1454.1 1234.41 1457.66 Q1232.61 1461.2 1232.61 1468.33 Q1232.61 1475.44 1234.41 1479.01 Q1236.24 1482.55 1239.85 1482.55 Q1243.49 1482.55 1245.29 1479.01 Q1247.12 1475.44 1247.12 1468.33 Q1247.12 1461.2 1245.29 1457.66 Q1243.49 1454.1 1239.85 1454.1 M1239.85 1450.39 Q1245.66 1450.39 1248.72 1455 Q1251.8 1459.58 1251.8 1468.33 Q1251.8 1477.06 1248.72 1481.67 Q1245.66 1486.25 1239.85 1486.25 Q1234.04 1486.25 1230.96 1481.67 Q1227.91 1477.06 1227.91 1468.33 Q1227.91 1459.58 1230.96 1455 Q1234.04 1450.39 1239.85 1450.39 Z" fill="#000000" fill-rule="nonzero" fill-opacity="1" /><path clip-path="url(#clip890)" d="M1693.51 1451.02 L1715.73 1451.02 L1715.73 1453.01 L1703.18 1485.58 L1698.3 1485.58 L1710.1 1454.96 L1693.51 1454.96 L1693.51 1451.02 Z" fill="#000000" fill-rule="nonzero" fill-opacity="1" /><path clip-path="url(#clip890)" d="M1724.9 1451.02 L1743.25 1451.02 L1743.25 1454.96 L1729.18 1454.96 L1729.18 1463.43 Q1730.2 1463.08 1731.21 1462.92 Q1732.23 1462.73 1733.25 1462.73 Q1739.04 1462.73 1742.42 1465.9 Q1745.8 1469.08 1745.8 1474.49 Q1745.8 1480.07 1742.33 1483.17 Q1738.85 1486.25 1732.53 1486.25 Q1730.36 1486.25 1728.09 1485.88 Q1725.84 1485.51 1723.44 1484.77 L1723.44 1480.07 Q1725.52 1481.2 1727.74 1481.76 Q1729.96 1482.32 1732.44 1482.32 Q1736.45 1482.32 1738.78 1480.21 Q1741.12 1478.1 1741.12 1474.49 Q1741.12 1470.88 1738.78 1468.77 Q1736.45 1466.67 1732.44 1466.67 Q1730.57 1466.67 1728.69 1467.08 Q1726.84 1467.5 1724.9 1468.38 L1724.9 1451.02 Z" fill="#000000" fill-rule="nonzero" fill-opacity="1" /><path clip-path="url(#clip890)" d="M2173.87 1481.64 L2181.51 1481.64 L2181.51 1455.28 L2173.2 1456.95 L2173.2 1452.69 L2181.47 1451.02 L2186.14 1451.02 L2186.14 1481.64 L2193.78 1481.64 L2193.78 1485.58 L2173.87 1485.58 L2173.87 1481.64 Z" fill="#000000" fill-rule="nonzero" fill-opacity="1" /><path clip-path="url(#clip890)" d="M2213.23 1454.1 Q2209.61 1454.1 2207.79 1457.66 Q2205.98 1461.2 2205.98 1468.33 Q2205.98 1475.44 2207.79 1479.01 Q2209.61 1482.55 2213.23 1482.55 Q2216.86 1482.55 2218.67 1479.01 Q2220.49 1475.44 2220.49 1468.33 Q2220.49 1461.2 2218.67 1457.66 Q2216.86 1454.1 2213.23 1454.1 M2213.23 1450.39 Q2219.04 1450.39 2222.09 1455 Q2225.17 1459.58 2225.17 1468.33 Q2225.17 1477.06 2222.09 1481.67 Q2219.04 1486.25 2213.23 1486.25 Q2207.42 1486.25 2204.34 1481.67 Q2201.28 1477.06 2201.28 1468.33 Q2201.28 1459.58 2204.34 1455 Q2207.42 1450.39 2213.23 1450.39 Z" fill="#000000" fill-rule="nonzero" fill-opacity="1" /><path clip-path="url(#clip890)" d="M2243.39 1454.1 Q2239.78 1454.1 2237.95 1457.66 Q2236.14 1461.2 2236.14 1468.33 Q2236.14 1475.44 2237.95 1479.01 Q2239.78 1482.55 2243.39 1482.55 Q2247.02 1482.55 2248.83 1479.01 Q2250.66 1475.44 2250.66 1468.33 Q2250.66 1461.2 2248.83 1457.66 Q2247.02 1454.1 2243.39 1454.1 M2243.39 1450.39 Q2249.2 1450.39 2252.25 1455 Q2255.33 1459.58 2255.33 1468.33 Q2255.33 1477.06 2252.25 1481.67 Q2249.2 1486.25 2243.39 1486.25 Q2237.58 1486.25 2234.5 1481.67 Q2231.44 1477.06 2231.44 1468.33 Q2231.44 1459.58 2234.5 1455 Q2237.58 1450.39 2243.39 1450.39 Z" fill="#000000" fill-rule="nonzero" fill-opacity="1" /><path clip-path="url(#clip890)" d="M1129.95 1520.52 L1170.15 1520.52 L1170.15 1525.93 L1153.28 1525.93 L1153.28 1568.04 L1146.82 1568.04 L1146.82 1525.93 L1129.95 1525.93 L1129.95 1520.52 Z" fill="#000000" fill-rule="nonzero" fill-opacity="1" /><path clip-path="url(#clip890)" d="M1174.09 1532.4 L1179.95 1532.4 L1179.95 1568.04 L1174.09 1568.04 L1174.09 1532.4 M1174.09 1518.52 L1179.95 1518.52 L1179.95 1525.93 L1174.09 1525.93 L1174.09 1518.52 Z" fill="#000000" fill-rule="nonzero" fill-opacity="1" /><path clip-path="url(#clip890)" d="M1219.96 1539.24 Q1222.15 1535.29 1225.21 1533.41 Q1228.27 1531.54 1232.4 1531.54 Q1237.97 1531.54 1241 1535.45 Q1244.02 1539.33 1244.02 1546.53 L1244.02 1568.04 L1238.13 1568.04 L1238.13 1546.72 Q1238.13 1541.59 1236.32 1539.11 Q1234.5 1536.63 1230.78 1536.63 Q1226.23 1536.63 1223.59 1539.65 Q1220.95 1542.68 1220.95 1547.9 L1220.95 1568.04 L1215.06 1568.04 L1215.06 1546.72 Q1215.06 1541.56 1213.24 1539.11 Q1211.43 1536.63 1207.64 1536.63 Q1203.15 1536.63 1200.51 1539.68 Q1197.87 1542.71 1197.87 1547.9 L1197.87 1568.04 L1191.98 1568.04 L1191.98 1532.4 L1197.87 1532.4 L1197.87 1537.93 Q1199.87 1534.66 1202.68 1533.1 Q1205.48 1531.54 1209.33 1531.54 Q1213.21 1531.54 1215.92 1533.51 Q1218.65 1535.48 1219.96 1539.24 Z" fill="#000000" fill-rule="nonzero" fill-opacity="1" /><path clip-path="url(#clip890)" d="M1286.19 1548.76 L1286.19 1551.62 L1259.27 1551.62 Q1259.65 1557.67 1262.9 1560.85 Q1266.17 1564 1272 1564 Q1275.37 1564 1278.52 1563.17 Q1281.71 1562.35 1284.83 1560.69 L1284.83 1566.23 Q1281.67 1567.57 1278.36 1568.27 Q1275.05 1568.97 1271.65 1568.97 Q1263.12 1568.97 1258.12 1564 Q1253.16 1559.04 1253.16 1550.57 Q1253.16 1541.82 1257.87 1536.69 Q1262.61 1531.54 1270.63 1531.54 Q1277.82 1531.54 1281.99 1536.18 Q1286.19 1540.8 1286.19 1548.76 M1280.34 1547.04 Q1280.27 1542.23 1277.63 1539.37 Q1275.02 1536.5 1270.69 1536.5 Q1265.79 1536.5 1262.83 1539.27 Q1259.9 1542.04 1259.46 1547.07 L1280.34 1547.04 Z" fill="#000000" fill-rule="nonzero" fill-opacity="1" /><path clip-path="url(#clip890)" d="M1330.59 1518.58 Q1326.33 1525.9 1324.26 1533.06 Q1322.19 1540.23 1322.19 1547.58 Q1322.19 1554.93 1324.26 1562.16 Q1326.36 1569.35 1330.59 1576.64 L1325.5 1576.64 Q1320.73 1569.16 1318.34 1561.93 Q1315.99 1554.71 1315.99 1547.58 Q1315.99 1540.48 1318.34 1533.29 Q1320.7 1526.09 1325.5 1518.58 L1330.59 1518.58 Z" fill="#000000" fill-rule="nonzero" fill-opacity="1" /><path clip-path="url(#clip890)" d="M1371.59 1546.53 L1371.59 1568.04 L1365.73 1568.04 L1365.73 1546.72 Q1365.73 1541.66 1363.76 1539.14 Q1361.79 1536.63 1357.84 1536.63 Q1353.1 1536.63 1350.36 1539.65 Q1347.62 1542.68 1347.62 1547.9 L1347.62 1568.04 L1341.73 1568.04 L1341.73 1518.52 L1347.62 1518.52 L1347.62 1537.93 Q1349.72 1534.72 1352.56 1533.13 Q1355.42 1531.54 1359.14 1531.54 Q1365.29 1531.54 1368.44 1535.36 Q1371.59 1539.14 1371.59 1546.53 Z" fill="#000000" fill-rule="nonzero" fill-opacity="1" /><path clip-path="url(#clip890)" d="M1382.35 1518.58 L1387.44 1518.58 Q1392.21 1526.09 1394.57 1533.29 Q1396.96 1540.48 1396.96 1547.58 Q1396.96 1554.71 1394.57 1561.93 Q1392.21 1569.16 1387.44 1576.64 L1382.35 1576.64 Q1386.58 1569.35 1388.65 1562.16 Q1390.75 1554.93 1390.75 1547.58 Q1390.75 1540.23 1388.65 1533.06 Q1386.58 1525.9 1382.35 1518.58 Z" fill="#000000" fill-rule="nonzero" fill-opacity="1" /><polyline clip-path="url(#clip890)" style="stroke:#000000; stroke-linecap:round; stroke-linejoin:round; stroke-width:4; stroke-opacity:1; fill:none" points="174.149,1423.18 174.149,123.472 "/>
<polyline clip-path="url(#clip890)" style="stroke:#000000; stroke-linecap:round; stroke-linejoin:round; stroke-width:4; stroke-opacity:1; fill:none" points="174.149,1386.4 193.047,1386.4 "/>
<polyline clip-path="url(#clip890)" style="stroke:#000000; stroke-linecap:round; stroke-linejoin:round; stroke-width:4; stroke-opacity:1; fill:none" points="174.149,1061.01 193.047,1061.01 "/>
<polyline clip-path="url(#clip890)" style="stroke:#000000; stroke-linecap:round; stroke-linejoin:round; stroke-width:4; stroke-opacity:1; fill:none" points="174.149,735.626 193.047,735.626 "/>
<polyline clip-path="url(#clip890)" style="stroke:#000000; stroke-linecap:round; stroke-linejoin:round; stroke-width:4; stroke-opacity:1; fill:none" points="174.149,410.242 193.047,410.242 "/>
<path clip-path="url(#clip890)" d="M126.205 1372.19 Q122.593 1372.19 120.765 1375.76 Q118.959 1379.3 118.959 1386.43 Q118.959 1393.54 120.765 1397.1 Q122.593 1400.64 126.205 1400.64 Q129.839 1400.64 131.644 1397.1 Q133.473 1393.54 133.473 1386.43 Q133.473 1379.3 131.644 1375.76 Q129.839 1372.19 126.205 1372.19 M126.205 1368.49 Q132.015 1368.49 135.07 1373.1 Q138.149 1377.68 138.149 1386.43 Q138.149 1395.16 135.07 1399.76 Q132.015 1404.35 126.205 1404.35 Q120.394 1404.35 117.316 1399.76 Q114.26 1395.16 114.26 1386.43 Q114.26 1377.68 117.316 1373.1 Q120.394 1368.49 126.205 1368.49 Z" fill="#000000" fill-rule="nonzero" fill-opacity="1" /><path clip-path="url(#clip890)" d="M118.242 1074.36 L125.88 1074.36 L125.88 1047.99 L117.57 1049.66 L117.57 1045.4 L125.834 1043.73 L130.51 1043.73 L130.51 1074.36 L138.149 1074.36 L138.149 1078.29 L118.242 1078.29 L118.242 1074.36 Z" fill="#000000" fill-rule="nonzero" fill-opacity="1" /><path clip-path="url(#clip890)" d="M121.83 748.971 L138.149 748.971 L138.149 752.906 L116.205 752.906 L116.205 748.971 Q118.867 746.217 123.45 741.587 Q128.056 736.934 129.237 735.592 Q131.482 733.069 132.362 731.333 Q133.265 729.573 133.265 727.883 Q133.265 725.129 131.32 723.393 Q129.399 721.657 126.297 721.657 Q124.098 721.657 121.644 722.421 Q119.214 723.184 116.436 724.735 L116.436 720.013 Q119.26 718.879 121.714 718.3 Q124.168 717.721 126.205 717.721 Q131.575 717.721 134.769 720.407 Q137.964 723.092 137.964 727.583 Q137.964 729.712 137.154 731.633 Q136.367 733.532 134.26 736.124 Q133.681 736.795 130.58 740.013 Q127.478 743.207 121.83 748.971 Z" fill="#000000" fill-rule="nonzero" fill-opacity="1" /><path clip-path="url(#clip890)" d="M131.019 408.888 Q134.376 409.605 136.251 411.874 Q138.149 414.142 138.149 417.476 Q138.149 422.591 134.63 425.392 Q131.112 428.193 124.63 428.193 Q122.455 428.193 120.14 427.753 Q117.848 427.337 115.394 426.48 L115.394 421.966 Q117.339 423.101 119.654 423.679 Q121.968 424.258 124.492 424.258 Q128.89 424.258 131.181 422.522 Q133.496 420.786 133.496 417.476 Q133.496 414.42 131.343 412.707 Q129.214 410.971 125.394 410.971 L121.367 410.971 L121.367 407.128 L125.58 407.128 Q129.029 407.128 130.857 405.763 Q132.686 404.374 132.686 401.781 Q132.686 399.119 130.788 397.707 Q128.913 396.272 125.394 396.272 Q123.473 396.272 121.274 396.689 Q119.075 397.105 116.436 397.985 L116.436 393.818 Q119.098 393.078 121.413 392.707 Q123.751 392.337 125.811 392.337 Q131.135 392.337 134.237 394.767 Q137.339 397.175 137.339 401.295 Q137.339 404.166 135.695 406.156 Q134.052 408.124 131.019 408.888 Z" fill="#000000" fill-rule="nonzero" fill-opacity="1" /><path clip-path="url(#clip890)" d="M29.7248 956.945 L35.1993 956.945 Q33.8307 959.427 33.1623 961.942 Q32.4621 964.424 32.4621 966.971 Q32.4621 972.668 36.0905 975.819 Q39.6872 978.97 46.212 978.97 Q52.7369 978.97 56.3653 975.819 Q59.9619 972.668 59.9619 966.971 Q59.9619 964.424 59.2935 961.942 Q58.5933 959.427 57.2247 956.945 L62.6355 956.945 Q63.7814 959.396 64.3543 962.037 Q64.9272 964.647 64.9272 967.607 Q64.9272 975.66 59.8664 980.402 Q54.8057 985.145 46.212 985.145 Q37.491 985.145 32.4939 980.371 Q27.4968 975.564 27.4968 967.225 Q27.4968 964.52 28.0697 961.942 Q28.6108 959.364 29.7248 956.945 Z" fill="#000000" fill-rule="nonzero" fill-opacity="1" /><path clip-path="url(#clip890)" d="M16.4842 953.094 L16.4842 912.894 L21.895 912.894 L21.895 929.763 L64.0042 929.763 L64.0042 936.224 L21.895 936.224 L21.895 953.094 L16.4842 953.094 Z" fill="#000000" fill-rule="nonzero" fill-opacity="1" /><path clip-path="url(#clip890)" d="M42.4881 877.31 L64.0042 877.31 L64.0042 883.166 L42.679 883.166 Q37.6183 883.166 35.1038 885.14 Q32.5894 887.113 32.5894 891.06 Q32.5894 895.802 35.6131 898.539 Q38.6368 901.277 43.8567 901.277 L64.0042 901.277 L64.0042 907.165 L28.3562 907.165 L28.3562 901.277 L33.8944 901.277 Q30.6797 899.176 29.0883 896.343 Q27.4968 893.479 27.4968 889.755 Q27.4968 883.612 31.3163 880.461 Q35.1038 877.31 42.4881 877.31 Z" fill="#000000" fill-rule="nonzero" fill-opacity="1" /><path clip-path="url(#clip890)" d="M16.4842 871.963 L16.4842 831.763 L21.895 831.763 L21.895 848.632 L64.0042 848.632 L64.0042 855.093 L21.895 855.093 L21.895 871.963 L16.4842 871.963 Z" fill="#000000" fill-rule="nonzero" fill-opacity="1" /><path clip-path="url(#clip890)" d="M14.479 805.632 L14.479 792.137 L19.0304 792.137 L19.0304 799.775 L68.0464 799.775 L68.0464 792.137 L72.5979 792.137 L72.5979 805.632 L14.479 805.632 Z" fill="#000000" fill-rule="nonzero" fill-opacity="1" /><path clip-path="url(#clip890)" d="M42.4881 750.027 L64.0042 750.027 L64.0042 755.884 L42.679 755.884 Q37.6183 755.884 35.1038 757.857 Q32.5894 759.831 32.5894 763.777 Q32.5894 768.52 35.6131 771.257 Q38.6368 773.994 43.8567 773.994 L64.0042 773.994 L64.0042 779.883 L28.3562 779.883 L28.3562 773.994 L33.8944 773.994 Q30.6797 771.894 29.0883 769.061 Q27.4968 766.196 27.4968 762.472 Q27.4968 756.33 31.3163 753.179 Q35.1038 750.027 42.4881 750.027 Z" fill="#000000" fill-rule="nonzero" fill-opacity="1" /><path clip-path="url(#clip890)" d="M45.7664 714.889 Q39.4007 714.889 35.8996 717.531 Q32.3984 720.141 32.3984 724.883 Q32.3984 729.594 35.8996 732.235 Q39.4007 734.845 45.7664 734.845 Q52.1003 734.845 55.6014 732.235 Q59.1026 729.594 59.1026 724.883 Q59.1026 720.141 55.6014 717.531 Q52.1003 714.889 45.7664 714.889 M59.58 709.032 Q68.683 709.032 73.1071 713.075 Q77.5631 717.117 77.5631 725.456 Q77.5631 728.543 77.0857 731.28 Q76.6401 734.018 75.6852 736.596 L69.9879 736.596 Q71.3884 734.018 72.0568 731.503 Q72.7252 728.989 72.7252 726.379 Q72.7252 720.618 69.7015 717.753 Q66.7096 714.889 60.6303 714.889 L57.7339 714.889 Q60.885 716.703 62.4446 719.536 Q64.0042 722.369 64.0042 726.315 Q64.0042 732.872 59.0071 736.882 Q54.01 740.893 45.7664 740.893 Q37.491 740.893 32.4939 736.882 Q27.4968 732.872 27.4968 726.315 Q27.4968 722.369 29.0564 719.536 Q30.616 716.703 33.7671 714.889 L28.3562 714.889 L28.3562 709.032 L59.58 709.032 Z" fill="#000000" fill-rule="nonzero" fill-opacity="1" /><path clip-path="url(#clip890)" d="M16.4842 686.561 L16.4842 681.151 L70.0516 697.701 L70.0516 703.112 L16.4842 686.561 Z" fill="#000000" fill-rule="nonzero" fill-opacity="1" /><path clip-path="url(#clip890)" d="M35.1993 647.253 Q31.2526 645.057 29.3747 642.001 Q27.4968 638.946 27.4968 634.808 Q27.4968 629.238 31.4117 626.215 Q35.2948 623.191 42.4881 623.191 L64.0042 623.191 L64.0042 629.079 L42.679 629.079 Q37.5546 629.079 35.072 630.893 Q32.5894 632.708 32.5894 636.431 Q32.5894 640.983 35.6131 643.625 Q38.6368 646.266 43.8567 646.266 L64.0042 646.266 L64.0042 652.155 L42.679 652.155 Q37.5228 652.155 35.072 653.969 Q32.5894 655.783 32.5894 659.571 Q32.5894 664.059 35.6449 666.7 Q38.6686 669.342 43.8567 669.342 L64.0042 669.342 L64.0042 675.23 L28.3562 675.23 L28.3562 669.342 L33.8944 669.342 Q30.616 667.337 29.0564 664.536 Q27.4968 661.735 27.4968 657.884 Q27.4968 654.001 29.4702 651.295 Q31.4436 648.558 35.1993 647.253 Z" fill="#000000" fill-rule="nonzero" fill-opacity="1" /><path clip-path="url(#clip890)" d="M16.4842 611.255 L16.4842 604.826 L58.5933 604.826 L58.5933 581.686 L64.0042 581.686 L64.0042 611.255 L16.4842 611.255 Z" fill="#000000" fill-rule="nonzero" fill-opacity="1" /><path clip-path="url(#clip890)" d="M14.479 561.507 L72.5979 561.507 L72.5979 575.002 L68.0464 575.002 L68.0464 567.395 L19.0304 567.395 L19.0304 575.002 L14.479 575.002 L14.479 561.507 Z" fill="#000000" fill-rule="nonzero" fill-opacity="1" /><path clip-path="url(#clip890)" d="M282.911 43.6931 L282.911 65.8515 L296.036 65.8515 Q302.639 65.8515 305.798 63.1374 Q308.999 60.3828 308.999 54.752 Q308.999 49.0808 305.798 46.4072 Q302.639 43.6931 296.036 43.6931 L282.911 43.6931 M282.911 18.8205 L282.911 37.0496 L295.023 37.0496 Q301.018 37.0496 303.935 34.8216 Q306.892 32.5531 306.892 27.935 Q306.892 23.3575 303.935 21.089 Q301.018 18.8205 295.023 18.8205 L282.911 18.8205 M274.728 12.096 L295.631 12.096 Q304.988 12.096 310.052 15.9849 Q315.115 19.8737 315.115 27.0438 Q315.115 32.5936 312.523 35.8748 Q309.93 39.156 304.907 39.9662 Q310.943 41.2625 314.265 45.3944 Q317.627 49.4858 317.627 55.6432 Q317.627 63.745 312.118 68.1605 Q306.609 72.576 296.441 72.576 L274.728 72.576 L274.728 12.096 Z" fill="#000000" fill-rule="nonzero" fill-opacity="1" /><path clip-path="url(#clip890)" d="M351.938 49.7694 Q342.905 49.7694 339.421 51.8354 Q335.937 53.9013 335.937 58.8839 Q335.937 62.8538 338.53 65.2034 Q341.163 67.5124 345.659 67.5124 Q351.857 67.5124 355.584 63.1374 Q359.351 58.7219 359.351 51.4303 L359.351 49.7694 L351.938 49.7694 M366.805 46.6907 L366.805 72.576 L359.351 72.576 L359.351 65.6895 Q356.799 69.8214 352.991 71.8063 Q349.184 73.7508 343.674 73.7508 Q336.707 73.7508 332.575 69.8619 Q328.483 65.9325 328.483 59.3701 Q328.483 51.7138 333.588 47.825 Q338.732 43.9361 348.9 43.9361 L359.351 43.9361 L359.351 43.2069 Q359.351 38.0623 355.949 35.2672 Q352.586 32.4315 346.469 32.4315 Q342.581 32.4315 338.894 33.3632 Q335.208 34.295 331.805 36.1584 L331.805 29.2718 Q335.897 27.692 339.745 26.9223 Q343.593 26.1121 347.239 26.1121 Q357.083 26.1121 361.944 31.2163 Q366.805 36.3204 366.805 46.6907 Z" fill="#000000" fill-rule="nonzero" fill-opacity="1" /><path clip-path="url(#clip890)" d="M411.081 28.5427 L411.081 35.5912 Q407.922 33.9709 404.519 33.1607 Q401.116 32.3505 397.47 32.3505 Q391.921 32.3505 389.125 34.0519 Q386.371 35.7533 386.371 39.156 Q386.371 41.7486 388.356 43.2475 Q390.341 44.7058 396.336 46.0426 L398.888 46.6097 Q406.828 48.3111 410.15 51.4303 Q413.512 54.509 413.512 60.0587 Q413.512 66.3781 408.489 70.0644 Q403.506 73.7508 394.756 73.7508 Q391.11 73.7508 387.141 73.0216 Q383.211 72.3329 378.836 70.9151 L378.836 63.2184 Q382.968 65.3654 386.979 66.4591 Q390.989 67.5124 394.918 67.5124 Q400.184 67.5124 403.02 65.73 Q405.856 63.9071 405.856 60.6258 Q405.856 57.5877 403.79 55.9673 Q401.764 54.3469 394.837 52.8481 L392.245 52.2405 Q385.318 50.7821 382.239 47.7845 Q379.16 44.7463 379.16 39.4801 Q379.16 33.0797 383.697 29.5959 Q388.234 26.1121 396.579 26.1121 Q400.711 26.1121 404.357 26.7198 Q408.003 27.3274 411.081 28.5427 Z" fill="#000000" fill-rule="nonzero" fill-opacity="1" /><path clip-path="url(#clip890)" d="M464.189 48.0275 L464.189 51.6733 L429.918 51.6733 Q430.404 59.3701 434.536 63.421 Q438.709 67.4314 446.122 67.4314 Q450.416 67.4314 454.426 66.3781 Q458.477 65.3249 462.447 63.2184 L462.447 70.267 Q458.436 71.9684 454.224 72.8596 Q450.011 73.7508 445.676 73.7508 Q434.82 73.7508 428.46 67.4314 Q422.14 61.1119 422.14 50.3365 Q422.14 39.1965 428.136 32.6746 Q434.172 26.1121 444.38 26.1121 Q453.535 26.1121 458.842 32.0264 Q464.189 37.9003 464.189 48.0275 M456.735 45.84 Q456.654 39.7232 453.292 36.0774 Q449.97 32.4315 444.461 32.4315 Q438.222 32.4315 434.455 35.9558 Q430.728 39.4801 430.161 45.8805 L456.735 45.84 Z" fill="#000000" fill-rule="nonzero" fill-opacity="1" /><path clip-path="url(#clip890)" d="M503.118 12.096 L515.311 12.096 L530.745 53.2532 L546.26 12.096 L558.453 12.096 L558.453 72.576 L550.473 72.576 L550.473 19.4686 L534.877 60.9499 L526.654 60.9499 L511.058 19.4686 L511.058 72.576 L503.118 72.576 L503.118 12.096 Z" fill="#000000" fill-rule="nonzero" fill-opacity="1" /><path clip-path="url(#clip890)" d="M574.697 12.096 L582.88 12.096 L582.88 72.576 L574.697 72.576 L574.697 12.096 Z" fill="#000000" fill-rule="nonzero" fill-opacity="1" /><path clip-path="url(#clip890)" d="M599.165 12.096 L611.358 12.096 L626.792 53.2532 L642.307 12.096 L654.5 12.096 L654.5 72.576 L646.52 72.576 L646.52 19.4686 L630.924 60.9499 L622.701 60.9499 L607.105 19.4686 L607.105 72.576 L599.165 72.576 L599.165 12.096 Z" fill="#000000" fill-rule="nonzero" fill-opacity="1" /><path clip-path="url(#clip890)" d="M670.744 12.096 L678.927 12.096 L678.927 72.576 L670.744 72.576 L670.744 12.096 Z" fill="#000000" fill-rule="nonzero" fill-opacity="1" /><path clip-path="url(#clip890)" d="M740.501 16.7545 L740.501 25.383 Q736.369 21.5346 731.67 19.6307 Q727.011 17.7268 721.745 17.7268 Q711.375 17.7268 705.866 24.0867 Q700.356 30.4061 700.356 42.3968 Q700.356 54.3469 705.866 60.7069 Q711.375 67.0263 721.745 67.0263 Q727.011 67.0263 731.67 65.1223 Q736.369 63.2184 740.501 59.3701 L740.501 67.9175 Q736.207 70.8341 731.386 72.2924 Q726.606 73.7508 721.259 73.7508 Q707.527 73.7508 699.627 65.3654 Q691.728 56.9395 691.728 42.3968 Q691.728 27.8135 699.627 19.4281 Q707.527 11.0023 721.259 11.0023 Q726.687 11.0023 731.467 12.4606 Q736.288 13.8784 740.501 16.7545 Z" fill="#000000" fill-rule="nonzero" fill-opacity="1" /><path clip-path="url(#clip890)" d="M787.289 86.3491 L787.289 92.1419 L744.187 92.1419 L744.187 86.3491 L787.289 86.3491 Z" fill="#000000" fill-rule="nonzero" fill-opacity="1" /><path clip-path="url(#clip890)" d="M832.011 45.1919 L832.011 72.576 L824.557 72.576 L824.557 45.4349 Q824.557 38.994 822.046 35.7938 Q819.534 32.5936 814.511 32.5936 Q808.475 32.5936 804.991 36.4419 Q801.508 40.2903 801.508 46.9338 L801.508 72.576 L794.013 72.576 L794.013 27.2059 L801.508 27.2059 L801.508 34.2544 Q804.181 30.163 807.786 28.1376 Q811.432 26.1121 816.172 26.1121 Q823.99 26.1121 828 30.9732 Q832.011 35.7938 832.011 45.1919 Z" fill="#000000" fill-rule="nonzero" fill-opacity="1" /><path clip-path="url(#clip890)" d="M849.349 65.6895 L862.717 65.6895 L862.717 19.5497 L848.174 22.4663 L848.174 15.0127 L862.636 12.096 L870.819 12.096 L870.819 65.6895 L884.187 65.6895 L884.187 72.576 L849.349 72.576 L849.349 65.6895 Z" fill="#000000" fill-rule="nonzero" fill-opacity="1" /><path clip-path="url(#clip890)" d="M907.763 65.6895 L936.322 65.6895 L936.322 72.576 L897.919 72.576 L897.919 65.6895 Q902.578 60.8689 910.598 52.7671 Q918.66 44.6248 920.726 42.2752 Q924.655 37.8598 926.194 34.8216 Q927.774 31.7429 927.774 28.7857 Q927.774 23.9651 924.371 20.927 Q921.009 17.8888 915.581 17.8888 Q911.733 17.8888 907.439 19.2256 Q903.185 20.5624 898.324 23.2765 L898.324 15.0127 Q903.266 13.0277 907.56 12.015 Q911.854 11.0023 915.419 11.0023 Q924.817 11.0023 930.407 15.7013 Q935.998 20.4004 935.998 28.2591 Q935.998 31.9859 934.58 35.3482 Q933.202 38.6699 929.516 43.2069 Q928.503 44.3817 923.075 50.0125 Q917.647 55.6027 907.763 65.6895 Z" fill="#000000" fill-rule="nonzero" fill-opacity="1" /><path clip-path="url(#clip890)" d="M970.997 43.8551 Q965.164 43.8551 961.802 46.9743 Q958.48 50.0935 958.48 55.5622 Q958.48 61.0309 961.802 64.1501 Q965.164 67.2693 970.997 67.2693 Q976.831 67.2693 980.193 64.1501 Q983.555 60.9904 983.555 55.5622 Q983.555 50.0935 980.193 46.9743 Q976.871 43.8551 970.997 43.8551 M962.815 40.3713 Q957.548 39.075 954.591 35.4697 Q951.675 31.8644 951.675 26.6793 Q951.675 19.4281 956.819 15.2152 Q962.004 11.0023 970.997 11.0023 Q980.031 11.0023 985.176 15.2152 Q990.32 19.4281 990.32 26.6793 Q990.32 31.8644 987.363 35.4697 Q984.446 39.075 979.221 40.3713 Q985.135 41.7486 988.416 45.759 Q991.738 49.7694 991.738 55.5622 Q991.738 64.3527 986.35 69.0517 Q981.003 73.7508 970.997 73.7508 Q960.992 73.7508 955.604 69.0517 Q950.257 64.3527 950.257 55.5622 Q950.257 49.7694 953.578 45.759 Q956.9 41.7486 962.815 40.3713 M959.817 27.4489 Q959.817 32.148 962.734 34.7811 Q965.691 37.4142 970.997 37.4142 Q976.264 37.4142 979.221 34.7811 Q982.218 32.148 982.218 27.4489 Q982.218 22.7499 979.221 20.1168 Q976.264 17.4837 970.997 17.4837 Q965.691 17.4837 962.734 20.1168 Q959.817 22.7499 959.817 27.4489 Z" fill="#000000" fill-rule="nonzero" fill-opacity="1" /><path clip-path="url(#clip890)" d="M1031.07 39.9662 Q1036.95 41.222 1040.23 45.1919 Q1043.55 49.1618 1043.55 54.9951 Q1043.55 63.9476 1037.39 68.8492 Q1031.23 73.7508 1019.89 73.7508 Q1016.08 73.7508 1012.03 72.9811 Q1008.02 72.2519 1003.73 70.7531 L1003.73 62.8538 Q1007.13 64.8388 1011.18 65.8515 Q1015.23 66.8642 1019.65 66.8642 Q1027.35 66.8642 1031.36 63.826 Q1035.41 60.7879 1035.41 54.9951 Q1035.41 49.6479 1031.64 46.6502 Q1027.91 43.612 1021.23 43.612 L1014.18 43.612 L1014.18 36.8875 L1021.55 36.8875 Q1027.59 36.8875 1030.79 34.4975 Q1033.99 32.067 1033.99 27.5299 Q1033.99 22.8714 1030.67 20.4004 Q1027.39 17.8888 1021.23 17.8888 Q1017.87 17.8888 1014.02 18.618 Q1010.17 19.3471 1005.55 20.8865 L1005.55 13.5948 Q1010.21 12.2985 1014.26 11.6504 Q1018.35 11.0023 1021.96 11.0023 Q1031.27 11.0023 1036.7 15.2557 Q1042.13 19.4686 1042.13 26.6793 Q1042.13 31.7024 1039.26 35.1862 Q1036.38 38.6294 1031.07 39.9662 Z" fill="#000000" fill-rule="nonzero" fill-opacity="1" /><path clip-path="url(#clip890)" d="M1080.61 46.5287 L1102.45 46.5287 L1102.45 53.1722 L1080.61 53.1722 L1080.61 46.5287 Z" fill="#000000" fill-rule="nonzero" fill-opacity="1" /><path clip-path="url(#clip890)" d="M1141.01 12.096 L1153.21 12.096 L1168.64 53.2532 L1184.16 12.096 L1196.35 12.096 L1196.35 72.576 L1188.37 72.576 L1188.37 19.4686 L1172.77 60.9499 L1164.55 60.9499 L1148.95 19.4686 L1148.95 72.576 L1141.01 72.576 L1141.01 12.096 Z" fill="#000000" fill-rule="nonzero" fill-opacity="1" /><path clip-path="url(#clip890)" d="M1212.59 12.096 L1220.78 12.096 L1220.78 72.576 L1212.59 72.576 L1212.59 12.096 Z" fill="#000000" fill-rule="nonzero" fill-opacity="1" /><path clip-path="url(#clip890)" d="M1237.06 12.096 L1249.25 12.096 L1264.69 53.2532 L1280.2 12.096 L1292.4 12.096 L1292.4 72.576 L1284.42 72.576 L1284.42 19.4686 L1268.82 60.9499 L1260.6 60.9499 L1245 19.4686 L1245 72.576 L1237.06 72.576 L1237.06 12.096 Z" fill="#000000" fill-rule="nonzero" fill-opacity="1" /><path clip-path="url(#clip890)" d="M1308.64 12.096 L1316.82 12.096 L1316.82 72.576 L1308.64 72.576 L1308.64 12.096 Z" fill="#000000" fill-rule="nonzero" fill-opacity="1" /><path clip-path="url(#clip890)" d="M1378.4 16.7545 L1378.4 25.383 Q1374.26 21.5346 1369.57 19.6307 Q1364.91 17.7268 1359.64 17.7268 Q1349.27 17.7268 1343.76 24.0867 Q1338.25 30.4061 1338.25 42.3968 Q1338.25 54.3469 1343.76 60.7069 Q1349.27 67.0263 1359.64 67.0263 Q1364.91 67.0263 1369.57 65.1223 Q1374.26 63.2184 1378.4 59.3701 L1378.4 67.9175 Q1374.1 70.8341 1369.28 72.2924 Q1364.5 73.7508 1359.16 73.7508 Q1345.42 73.7508 1337.52 65.3654 Q1329.62 56.9395 1329.62 42.3968 Q1329.62 27.8135 1337.52 19.4281 Q1345.42 11.0023 1359.16 11.0023 Q1364.58 11.0023 1369.36 12.4606 Q1374.18 13.8784 1378.4 16.7545 Z" fill="#000000" fill-rule="nonzero" fill-opacity="1" /><path clip-path="url(#clip890)" d="M1425.18 86.3491 L1425.18 92.1419 L1382.08 92.1419 L1382.08 86.3491 L1425.18 86.3491 Z" fill="#000000" fill-rule="nonzero" fill-opacity="1" /><path clip-path="url(#clip890)" d="M1469.91 45.1919 L1469.91 72.576 L1462.45 72.576 L1462.45 45.4349 Q1462.45 38.994 1459.94 35.7938 Q1457.43 32.5936 1452.41 32.5936 Q1446.37 32.5936 1442.89 36.4419 Q1439.4 40.2903 1439.4 46.9338 L1439.4 72.576 L1431.91 72.576 L1431.91 27.2059 L1439.4 27.2059 L1439.4 34.2544 Q1442.08 30.163 1445.68 28.1376 Q1449.33 26.1121 1454.07 26.1121 Q1461.89 26.1121 1465.9 30.9732 Q1469.91 35.7938 1469.91 45.1919 Z" fill="#000000" fill-rule="nonzero" fill-opacity="1" /><path clip-path="url(#clip890)" d="M1487.24 65.6895 L1500.61 65.6895 L1500.61 19.5497 L1486.07 22.4663 L1486.07 15.0127 L1500.53 12.096 L1508.71 12.096 L1508.71 65.6895 L1522.08 65.6895 L1522.08 72.576 L1487.24 72.576 L1487.24 65.6895 Z" fill="#000000" fill-rule="nonzero" fill-opacity="1" /><path clip-path="url(#clip890)" d="M1545.66 65.6895 L1574.22 65.6895 L1574.22 72.576 L1535.81 72.576 L1535.81 65.6895 Q1540.47 60.8689 1548.49 52.7671 Q1556.56 44.6248 1558.62 42.2752 Q1562.55 37.8598 1564.09 34.8216 Q1565.67 31.7429 1565.67 28.7857 Q1565.67 23.9651 1562.27 20.927 Q1558.91 17.8888 1553.48 17.8888 Q1549.63 17.8888 1545.33 19.2256 Q1541.08 20.5624 1536.22 23.2765 L1536.22 15.0127 Q1541.16 13.0277 1545.46 12.015 Q1549.75 11.0023 1553.31 11.0023 Q1562.71 11.0023 1568.3 15.7013 Q1573.89 20.4004 1573.89 28.2591 Q1573.89 31.9859 1572.48 35.3482 Q1571.1 38.6699 1567.41 43.2069 Q1566.4 44.3817 1560.97 50.0125 Q1555.54 55.6027 1545.66 65.6895 Z" fill="#000000" fill-rule="nonzero" fill-opacity="1" /><path clip-path="url(#clip890)" d="M1608.89 43.8551 Q1603.06 43.8551 1599.7 46.9743 Q1596.38 50.0935 1596.38 55.5622 Q1596.38 61.0309 1599.7 64.1501 Q1603.06 67.2693 1608.89 67.2693 Q1614.73 67.2693 1618.09 64.1501 Q1621.45 60.9904 1621.45 55.5622 Q1621.45 50.0935 1618.09 46.9743 Q1614.77 43.8551 1608.89 43.8551 M1600.71 40.3713 Q1595.44 39.075 1592.49 35.4697 Q1589.57 31.8644 1589.57 26.6793 Q1589.57 19.4281 1594.72 15.2152 Q1599.9 11.0023 1608.89 11.0023 Q1617.93 11.0023 1623.07 15.2152 Q1628.22 19.4281 1628.22 26.6793 Q1628.22 31.8644 1625.26 35.4697 Q1622.34 39.075 1617.12 40.3713 Q1623.03 41.7486 1626.31 45.759 Q1629.63 49.7694 1629.63 55.5622 Q1629.63 64.3527 1624.25 69.0517 Q1618.9 73.7508 1608.89 73.7508 Q1598.89 73.7508 1593.5 69.0517 Q1588.15 64.3527 1588.15 55.5622 Q1588.15 49.7694 1591.47 45.759 Q1594.8 41.7486 1600.71 40.3713 M1597.71 27.4489 Q1597.71 32.148 1600.63 34.7811 Q1603.59 37.4142 1608.89 37.4142 Q1614.16 37.4142 1617.12 34.7811 Q1620.11 32.148 1620.11 27.4489 Q1620.11 22.7499 1617.12 20.1168 Q1614.16 17.4837 1608.89 17.4837 Q1603.59 17.4837 1600.63 20.1168 Q1597.71 22.7499 1597.71 27.4489 Z" fill="#000000" fill-rule="nonzero" fill-opacity="1" /><path clip-path="url(#clip890)" d="M1668.97 39.9662 Q1674.84 41.222 1678.12 45.1919 Q1681.44 49.1618 1681.44 54.9951 Q1681.44 63.9476 1675.29 68.8492 Q1669.13 73.7508 1657.79 73.7508 Q1653.98 73.7508 1649.93 72.9811 Q1645.92 72.2519 1641.62 70.7531 L1641.62 62.8538 Q1645.03 64.8388 1649.08 65.8515 Q1653.13 66.8642 1657.54 66.8642 Q1665.24 66.8642 1669.25 63.826 Q1673.3 60.7879 1673.3 54.9951 Q1673.3 49.6479 1669.54 46.6502 Q1665.81 43.612 1659.12 43.612 L1652.08 43.612 L1652.08 36.8875 L1659.45 36.8875 Q1665.48 36.8875 1668.68 34.4975 Q1671.88 32.067 1671.88 27.5299 Q1671.88 22.8714 1668.56 20.4004 Q1665.28 17.8888 1659.12 17.8888 Q1655.76 17.8888 1651.91 18.618 Q1648.07 19.3471 1643.45 20.8865 L1643.45 13.5948 Q1648.11 12.2985 1652.16 11.6504 Q1656.25 11.0023 1659.85 11.0023 Q1669.17 11.0023 1674.6 15.2557 Q1680.03 19.4686 1680.03 26.6793 Q1680.03 31.7024 1677.15 35.1862 Q1674.27 38.6294 1668.97 39.9662 Z" fill="#000000" fill-rule="nonzero" fill-opacity="1" /><path clip-path="url(#clip890)" d="M1730.38 86.3491 L1730.38 92.1419 L1687.28 92.1419 L1687.28 86.3491 L1730.38 86.3491 Z" fill="#000000" fill-rule="nonzero" fill-opacity="1" /><path clip-path="url(#clip890)" d="M1737.71 12.096 L1775.95 12.096 L1775.95 18.9825 L1745.89 18.9825 L1745.89 36.8875 L1774.7 36.8875 L1774.7 43.7741 L1745.89 43.7741 L1745.89 65.6895 L1776.68 65.6895 L1776.68 72.576 L1737.71 72.576 L1737.71 12.096 Z" fill="#000000" fill-rule="nonzero" fill-opacity="1" /><path clip-path="url(#clip890)" d="M1790.13 12.096 L1801.15 12.096 L1827.97 62.6918 L1827.97 12.096 L1835.91 12.096 L1835.91 72.576 L1824.89 72.576 L1798.07 21.9802 L1798.07 72.576 L1790.13 72.576 L1790.13 12.096 Z" fill="#000000" fill-rule="nonzero" fill-opacity="1" /><path clip-path="url(#clip890)" d="M1860.37 18.8205 L1860.37 65.8515 L1870.26 65.8515 Q1882.77 65.8515 1888.57 60.1802 Q1894.4 54.509 1894.4 42.2752 Q1894.4 30.1225 1888.57 24.4918 Q1882.77 18.8205 1870.26 18.8205 L1860.37 18.8205 M1852.19 12.096 L1869 12.096 Q1886.58 12.096 1894.81 19.4281 Q1903.03 26.7198 1903.03 42.2752 Q1903.03 57.9117 1894.77 65.2439 Q1886.5 72.576 1869 72.576 L1852.19 72.576 L1852.19 12.096 Z" fill="#000000" fill-rule="nonzero" fill-opacity="1" /><path clip-path="url(#clip890)" d="M1950.22 86.3491 L1950.22 92.1419 L1907.12 92.1419 L1907.12 86.3491 L1950.22 86.3491 Z" fill="#000000" fill-rule="nonzero" fill-opacity="1" /><path clip-path="url(#clip890)" d="M1993.81 14.0809 L1993.81 22.0612 Q1989.15 19.8332 1985.02 18.7395 Q1980.89 17.6457 1977.04 17.6457 Q1970.36 17.6457 1966.71 20.2383 Q1963.1 22.8309 1963.1 27.611 Q1963.1 31.6214 1965.49 33.6873 Q1967.92 35.7128 1974.65 36.9686 L1979.59 37.9813 Q1988.75 39.7232 1993.08 44.1387 Q1997.46 48.5136 1997.46 55.8863 Q1997.46 64.6767 1991.54 69.2137 Q1985.67 73.7508 1974.28 73.7508 Q1969.99 73.7508 1965.13 72.7785 Q1960.31 71.8063 1955.12 69.9024 L1955.12 61.4765 Q1960.11 64.2716 1964.89 65.6895 Q1969.67 67.1073 1974.28 67.1073 Q1981.29 67.1073 1985.1 64.3527 Q1988.91 61.598 1988.91 56.4939 Q1988.91 52.0379 1986.15 49.5264 Q1983.44 47.0148 1977.2 45.759 L1972.22 44.7868 Q1963.06 42.9639 1958.97 39.075 Q1954.88 35.1862 1954.88 28.2591 Q1954.88 20.2383 1960.51 15.6203 Q1966.18 11.0023 1976.11 11.0023 Q1980.36 11.0023 1984.78 11.7719 Q1989.19 12.5416 1993.81 14.0809 Z" fill="#000000" fill-rule="nonzero" fill-opacity="1" /><path clip-path="url(#clip890)" d="M2017.99 65.6895 L2046.55 65.6895 L2046.55 72.576 L2008.15 72.576 L2008.15 65.6895 Q2012.81 60.8689 2020.83 52.7671 Q2028.89 44.6248 2030.96 42.2752 Q2034.89 37.8598 2036.43 34.8216 Q2038.01 31.7429 2038.01 28.7857 Q2038.01 23.9651 2034.6 20.927 Q2031.24 17.8888 2025.81 17.8888 Q2021.96 17.8888 2017.67 19.2256 Q2013.42 20.5624 2008.56 23.2765 L2008.56 15.0127 Q2013.5 13.0277 2017.79 12.015 Q2022.09 11.0023 2025.65 11.0023 Q2035.05 11.0023 2040.64 15.7013 Q2046.23 20.4004 2046.23 28.2591 Q2046.23 31.9859 2044.81 35.3482 Q2043.43 38.6699 2039.75 43.2069 Q2038.73 44.3817 2033.31 50.0125 Q2027.88 55.6027 2017.99 65.6895 Z" fill="#000000" fill-rule="nonzero" fill-opacity="1" /><path clip-path="url(#clip890)" d="M2097.15 86.3491 L2097.15 92.1419 L2054.05 92.1419 L2054.05 86.3491 L2097.15 86.3491 Z" fill="#000000" fill-rule="nonzero" fill-opacity="1" /><path clip-path="url(#clip890)" d="M2112.66 43.6931 L2112.66 65.8515 L2125.79 65.8515 Q2132.39 65.8515 2135.55 63.1374 Q2138.75 60.3828 2138.75 54.752 Q2138.75 49.0808 2135.55 46.4072 Q2132.39 43.6931 2125.79 43.6931 L2112.66 43.6931 M2112.66 18.8205 L2112.66 37.0496 L2124.78 37.0496 Q2130.77 37.0496 2133.69 34.8216 Q2136.65 32.5531 2136.65 27.935 Q2136.65 23.3575 2133.69 21.089 Q2130.77 18.8205 2124.78 18.8205 L2112.66 18.8205 M2104.48 12.096 L2125.38 12.096 Q2134.74 12.096 2139.8 15.9849 Q2144.87 19.8737 2144.87 27.0438 Q2144.87 32.5936 2142.28 35.8748 Q2139.68 39.156 2134.66 39.9662 Q2140.7 41.2625 2144.02 45.3944 Q2147.38 49.4858 2147.38 55.6432 Q2147.38 63.745 2141.87 68.1605 Q2136.36 72.576 2126.19 72.576 L2104.48 72.576 L2104.48 12.096 Z" fill="#000000" fill-rule="nonzero" fill-opacity="1" /><path clip-path="url(#clip890)" d="M2179.63 17.4837 Q2173.31 17.4837 2170.11 23.7221 Q2166.95 29.92 2166.95 42.3968 Q2166.95 54.833 2170.11 61.0714 Q2173.31 67.2693 2179.63 67.2693 Q2185.99 67.2693 2189.14 61.0714 Q2192.35 54.833 2192.35 42.3968 Q2192.35 29.92 2189.14 23.7221 Q2185.99 17.4837 2179.63 17.4837 M2179.63 11.0023 Q2189.79 11.0023 2195.14 19.0636 Q2200.53 27.0843 2200.53 42.3968 Q2200.53 57.6687 2195.14 65.73 Q2189.79 73.7508 2179.63 73.7508 Q2169.46 73.7508 2164.07 65.73 Q2158.72 57.6687 2158.72 42.3968 Q2158.72 27.0843 2164.07 19.0636 Q2169.46 11.0023 2179.63 11.0023 Z" fill="#000000" fill-rule="nonzero" fill-opacity="1" /><path clip-path="url(#clip890)" d="M2239.7 39.9662 Q2245.57 41.222 2248.86 45.1919 Q2252.18 49.1618 2252.18 54.9951 Q2252.18 63.9476 2246.02 68.8492 Q2239.86 73.7508 2228.52 73.7508 Q2224.71 73.7508 2220.66 72.9811 Q2216.65 72.2519 2212.36 70.7531 L2212.36 62.8538 Q2215.76 64.8388 2219.81 65.8515 Q2223.86 66.8642 2228.28 66.8642 Q2235.97 66.8642 2239.98 63.826 Q2244.03 60.7879 2244.03 54.9951 Q2244.03 49.6479 2240.27 46.6502 Q2236.54 43.612 2229.86 43.612 L2222.81 43.612 L2222.81 36.8875 L2230.18 36.8875 Q2236.22 36.8875 2239.42 34.4975 Q2242.62 32.067 2242.62 27.5299 Q2242.62 22.8714 2239.29 20.4004 Q2236.01 17.8888 2229.86 17.8888 Q2226.49 17.8888 2222.65 18.618 Q2218.8 19.3471 2214.18 20.8865 L2214.18 13.5948 Q2218.84 12.2985 2222.89 11.6504 Q2226.98 11.0023 2230.59 11.0023 Q2239.9 11.0023 2245.33 15.2557 Q2250.76 19.4686 2250.76 26.6793 Q2250.76 31.7024 2247.88 35.1862 Q2245.01 38.6294 2239.7 39.9662 Z" fill="#000000" fill-rule="nonzero" fill-opacity="1" /><polyline clip-path="url(#clip892)" style="stroke:#009af9; stroke-linecap:round; stroke-linejoin:round; stroke-width:8; stroke-opacity:1; fill:none" points="235.808,1386.4 255.592,1311.72 275.377,1251.94 295.161,1203.88 314.946,1164.99 334.731,1133.25 354.515,1107.04 374.3,1085.09 394.084,1066.4 413.869,1050.18 433.654,1035.85 453.438,1022.95 473.223,1011.12 493.007,1000.1 512.792,989.701 532.577,979.779 552.361,970.221 572.146,960.954 591.93,951.917 611.715,943.063 631.499,934.357 651.284,925.776 671.069,917.304 690.853,908.921 710.638,900.614 730.422,892.369 750.207,884.18 769.992,876.041 789.776,867.944 809.561,859.882 829.345,851.845 849.13,843.827 868.915,835.823 888.699,827.83 908.484,819.844 928.268,811.862 948.053,803.876 967.838,795.881 987.622,787.869 1007.41,779.834 1027.19,771.776 1046.98,763.694 1066.76,755.586 1086.55,747.449 1106.33,739.278 1126.11,731.07 1145.9,722.817 1165.68,714.514 1185.47,706.154 1205.25,697.74 1225.04,689.272 1244.82,680.753 1264.61,672.179 1284.39,663.551 1304.18,654.864 1323.96,646.115 1343.74,637.297 1363.53,628.405 1383.31,619.433 1403.1,610.386 1422.88,601.267 1442.67,592.08 1462.45,582.827 1482.24,573.507 1502.02,564.122 1521.81,554.669 1541.59,545.145 1561.38,535.549 1581.16,525.873 1600.94,516.116 1620.73,506.285 1640.51,496.387 1660.3,486.424 1680.08,476.4 1699.87,466.319 1719.65,456.184 1739.44,445.996 1759.22,435.76 1779.01,425.476 1798.79,415.148 1818.58,404.777 1838.36,394.365 1858.14,383.942 1877.93,373.549 1897.71,363.163 1917.5,352.764 1937.28,342.338 1957.07,331.876 1976.85,321.374 1996.64,310.834 2016.42,300.263 2036.21,289.676 2055.99,279.089 2075.77,268.527 2095.56,258.019 2115.34,247.6 2135.13,237.31 2154.91,227.194 2174.7,217.218 2194.48,207.312 2214.27,197.483 2234.05,187.742 2253.84,178.099 2273.62,168.568 2291.1,160.256 "/>
<line clip-path="url(#clip892)" x1="1621.72" y1="530.634" x2="1593.72" y2="502.634" style="stroke:#dc143c; stroke-width:6.4; stroke-opacity:1"/>
<line clip-path="url(#clip892)" x1="1621.72" y1="530.634" x2="1593.72" y2="558.634" style="stroke:#dc143c; stroke-width:6.4; stroke-opacity:1"/>
<line clip-path="url(#clip892)" x1="1621.72" y1="530.634" x2="1649.72" y2="558.634" style="stroke:#dc143c; stroke-width:6.4; stroke-opacity:1"/>
<line clip-path="url(#clip892)" x1="1621.72" y1="530.634" x2="1649.72" y2="502.634" style="stroke:#dc143c; stroke-width:6.4; stroke-opacity:1"/>
<line clip-path="url(#clip892)" x1="1940.25" y1="621.742" x2="1912.25" y2="593.742" style="stroke:#dc143c; stroke-width:6.4; stroke-opacity:1"/>
<line clip-path="url(#clip892)" x1="1940.25" y1="621.742" x2="1912.25" y2="649.742" style="stroke:#dc143c; stroke-width:6.4; stroke-opacity:1"/>
<line clip-path="url(#clip892)" x1="1940.25" y1="621.742" x2="1968.25" y2="649.742" style="stroke:#dc143c; stroke-width:6.4; stroke-opacity:1"/>
<line clip-path="url(#clip892)" x1="1940.25" y1="621.742" x2="1968.25" y2="593.742" style="stroke:#dc143c; stroke-width:6.4; stroke-opacity:1"/>
<line clip-path="url(#clip892)" x1="2093.25" y1="651.026" x2="2065.25" y2="623.026" style="stroke:#dc143c; stroke-width:6.4; stroke-opacity:1"/>
<line clip-path="url(#clip892)" x1="2093.25" y1="651.026" x2="2065.25" y2="679.026" style="stroke:#dc143c; stroke-width:6.4; stroke-opacity:1"/>
<line clip-path="url(#clip892)" x1="2093.25" y1="651.026" x2="2121.25" y2="679.026" style="stroke:#dc143c; stroke-width:6.4; stroke-opacity:1"/>
<line clip-path="url(#clip892)" x1="2093.25" y1="651.026" x2="2121.25" y2="623.026" style="stroke:#dc143c; stroke-width:6.4; stroke-opacity:1"/>
<circle clip-path="url(#clip892)" cx="360.451" cy="1109.82" r="18" fill="#1e90ff" fill-rule="evenodd" fill-opacity="1" stroke="#000000" stroke-opacity="1" stroke-width="3.2"/>
<circle clip-path="url(#clip892)" cx="522.354" cy="911.334" r="18" fill="#1e90ff" fill-rule="evenodd" fill-opacity="1" stroke="#000000" stroke-opacity="1" stroke-width="3.2"/>
<circle clip-path="url(#clip892)" cx="706.021" cy="953.634" r="18" fill="#1e90ff" fill-rule="evenodd" fill-opacity="1" stroke="#000000" stroke-opacity="1" stroke-width="3.2"/>
<circle clip-path="url(#clip892)" cx="1000.81" cy="843.003" r="18" fill="#1e90ff" fill-rule="evenodd" fill-opacity="1" stroke="#000000" stroke-opacity="1" stroke-width="3.2"/>
<circle clip-path="url(#clip892)" cx="1107.32" cy="761.657" r="18" fill="#1e90ff" fill-rule="evenodd" fill-opacity="1" stroke="#000000" stroke-opacity="1" stroke-width="3.2"/>
<circle clip-path="url(#clip892)" cx="1466.74" cy="478.573" r="18" fill="#1e90ff" fill-rule="evenodd" fill-opacity="1" stroke="#000000" stroke-opacity="1" stroke-width="3.2"/>
<path clip-path="url(#clip890)" d="M246.769 374.156 L1050.65 374.156 L1050.65 166.796 L246.769 166.796  Z" fill="#ffffff" fill-rule="evenodd" fill-opacity="1"/>
<polyline clip-path="url(#clip890)" style="stroke:#000000; stroke-linecap:round; stroke-linejoin:round; stroke-width:4; stroke-opacity:1; fill:none" points="246.769,374.156 1050.65,374.156 1050.65,166.796 246.769,166.796 246.769,374.156 "/>
<polyline clip-path="url(#clip890)" style="stroke:#009af9; stroke-linecap:round; stroke-linejoin:round; stroke-width:8; stroke-opacity:1; fill:none" points="270.976,218.636 416.216,218.636 "/>
<path clip-path="url(#clip890)" d="M440.423 201.356 L447.391 201.356 L456.21 224.874 L465.076 201.356 L472.043 201.356 L472.043 235.916 L467.483 235.916 L467.483 205.569 L458.571 229.272 L453.872 229.272 L444.96 205.569 L444.96 235.916 L440.423 235.916 L440.423 201.356 Z" fill="#000000" fill-rule="nonzero" fill-opacity="1" /><path clip-path="url(#clip890)" d="M491.187 212.976 Q487.761 212.976 485.77 215.661 Q483.779 218.323 483.779 222.976 Q483.779 227.629 485.747 230.314 Q487.738 232.976 491.187 232.976 Q494.589 232.976 496.58 230.291 Q498.571 227.606 498.571 222.976 Q498.571 218.37 496.58 215.684 Q494.589 212.976 491.187 212.976 M491.187 209.365 Q496.742 209.365 499.914 212.976 Q503.085 216.587 503.085 222.976 Q503.085 229.342 499.914 232.976 Q496.742 236.587 491.187 236.587 Q485.608 236.587 482.437 232.976 Q479.289 229.342 479.289 222.976 Q479.289 216.587 482.437 212.976 Q485.608 209.365 491.187 209.365 Z" fill="#000000" fill-rule="nonzero" fill-opacity="1" /><path clip-path="url(#clip890)" d="M527.205 213.925 L527.205 199.897 L531.464 199.897 L531.464 235.916 L527.205 235.916 L527.205 232.027 Q525.862 234.342 523.802 235.476 Q521.765 236.587 518.895 236.587 Q514.196 236.587 511.233 232.837 Q508.293 229.087 508.293 222.976 Q508.293 216.865 511.233 213.115 Q514.196 209.365 518.895 209.365 Q521.765 209.365 523.802 210.499 Q525.862 211.61 527.205 213.925 M512.691 222.976 Q512.691 227.675 514.613 230.36 Q516.557 233.022 519.937 233.022 Q523.316 233.022 525.261 230.36 Q527.205 227.675 527.205 222.976 Q527.205 218.277 525.261 215.615 Q523.316 212.93 519.937 212.93 Q516.557 212.93 514.613 215.615 Q512.691 218.277 512.691 222.976 Z" fill="#000000" fill-rule="nonzero" fill-opacity="1" /><path clip-path="url(#clip890)" d="M562.413 221.888 L562.413 223.971 L542.83 223.971 Q543.108 228.369 545.469 230.684 Q547.853 232.976 552.089 232.976 Q554.543 232.976 556.835 232.374 Q559.149 231.772 561.418 230.569 L561.418 234.596 Q559.126 235.568 556.719 236.078 Q554.311 236.587 551.835 236.587 Q545.631 236.587 541.997 232.976 Q538.386 229.365 538.386 223.207 Q538.386 216.842 541.811 213.115 Q545.261 209.365 551.094 209.365 Q556.325 209.365 559.358 212.745 Q562.413 216.101 562.413 221.888 M558.154 220.638 Q558.108 217.143 556.186 215.059 Q554.288 212.976 551.14 212.976 Q547.575 212.976 545.423 214.99 Q543.293 217.004 542.969 220.661 L558.154 220.638 Z" fill="#000000" fill-rule="nonzero" fill-opacity="1" /><path clip-path="url(#clip890)" d="M569.404 199.897 L573.663 199.897 L573.663 235.916 L569.404 235.916 L569.404 199.897 Z" fill="#000000" fill-rule="nonzero" fill-opacity="1" /><path clip-path="url(#clip890)" d="M616.302 210.985 L616.302 214.967 Q614.496 213.971 612.668 213.485 Q610.862 212.976 609.01 212.976 Q604.867 212.976 602.575 215.615 Q600.283 218.231 600.283 222.976 Q600.283 227.721 602.575 230.36 Q604.867 232.976 609.01 232.976 Q610.862 232.976 612.668 232.49 Q614.496 231.981 616.302 230.985 L616.302 234.92 Q614.519 235.754 612.598 236.17 Q610.7 236.587 608.547 236.587 Q602.691 236.587 599.242 232.906 Q595.793 229.226 595.793 222.976 Q595.793 216.633 599.265 212.999 Q602.76 209.365 608.825 209.365 Q610.793 209.365 612.668 209.782 Q614.543 210.175 616.302 210.985 Z" fill="#000000" fill-rule="nonzero" fill-opacity="1" /><path clip-path="url(#clip890)" d="M623.269 225.684 L623.269 209.99 L627.529 209.99 L627.529 225.522 Q627.529 229.203 628.964 231.055 Q630.399 232.883 633.269 232.883 Q636.718 232.883 638.709 230.684 Q640.723 228.485 640.723 224.689 L640.723 209.99 L644.982 209.99 L644.982 235.916 L640.723 235.916 L640.723 231.934 Q639.172 234.295 637.112 235.453 Q635.075 236.587 632.367 236.587 Q627.899 236.587 625.584 233.809 Q623.269 231.031 623.269 225.684 M633.987 209.365 L633.987 209.365 Z" fill="#000000" fill-rule="nonzero" fill-opacity="1" /><path clip-path="url(#clip890)" d="M668.778 213.971 Q668.061 213.555 667.204 213.37 Q666.371 213.161 665.352 213.161 Q661.741 213.161 659.797 215.522 Q657.876 217.86 657.876 222.258 L657.876 235.916 L653.593 235.916 L653.593 209.99 L657.876 209.99 L657.876 214.018 Q659.218 211.657 661.371 210.522 Q663.524 209.365 666.602 209.365 Q667.042 209.365 667.575 209.434 Q668.107 209.481 668.755 209.596 L668.778 213.971 Z" fill="#000000" fill-rule="nonzero" fill-opacity="1" /><path clip-path="url(#clip890)" d="M670.19 209.99 L674.704 209.99 L682.806 231.749 L690.908 209.99 L695.422 209.99 L685.7 235.916 L679.913 235.916 L670.19 209.99 Z" fill="#000000" fill-rule="nonzero" fill-opacity="1" /><path clip-path="url(#clip890)" d="M723.477 221.888 L723.477 223.971 L703.894 223.971 Q704.172 228.369 706.533 230.684 Q708.917 232.976 713.153 232.976 Q715.607 232.976 717.898 232.374 Q720.213 231.772 722.482 230.569 L722.482 234.596 Q720.19 235.568 717.783 236.078 Q715.375 236.587 712.898 236.587 Q706.695 236.587 703.061 232.976 Q699.449 229.365 699.449 223.207 Q699.449 216.842 702.875 213.115 Q706.324 209.365 712.158 209.365 Q717.389 209.365 720.422 212.745 Q723.477 216.101 723.477 221.888 M719.218 220.638 Q719.172 217.143 717.25 215.059 Q715.352 212.976 712.204 212.976 Q708.639 212.976 706.486 214.99 Q704.357 217.004 704.033 220.661 L719.218 220.638 Z" fill="#000000" fill-rule="nonzero" fill-opacity="1" /><path clip-path="url(#clip890)" d="M755.769 199.944 Q752.667 205.268 751.162 210.476 Q749.658 215.684 749.658 221.032 Q749.658 226.379 751.162 231.633 Q752.69 236.865 755.769 242.166 L752.065 242.166 Q748.593 236.726 746.857 231.471 Q745.144 226.217 745.144 221.032 Q745.144 215.87 746.857 210.638 Q748.57 205.407 752.065 199.944 L755.769 199.944 Z" fill="#000000" fill-rule="nonzero" fill-opacity="1" /><path clip-path="url(#clip890)" d="M780.56 210.754 L780.56 214.782 Q778.755 213.856 776.81 213.393 Q774.866 212.93 772.782 212.93 Q769.611 212.93 768.014 213.902 Q766.44 214.874 766.44 216.819 Q766.44 218.3 767.574 219.157 Q768.708 219.99 772.134 220.754 L773.593 221.078 Q778.13 222.05 780.028 223.832 Q781.949 225.592 781.949 228.763 Q781.949 232.374 779.079 234.481 Q776.231 236.587 771.232 236.587 Q769.148 236.587 766.88 236.17 Q764.634 235.777 762.134 234.967 L762.134 230.569 Q764.495 231.795 766.787 232.42 Q769.079 233.022 771.324 233.022 Q774.333 233.022 775.954 232.004 Q777.574 230.962 777.574 229.087 Q777.574 227.351 776.394 226.425 Q775.236 225.499 771.278 224.643 L769.796 224.295 Q765.838 223.462 764.079 221.749 Q762.32 220.013 762.32 217.004 Q762.32 213.346 764.912 211.356 Q767.505 209.365 772.273 209.365 Q774.634 209.365 776.718 209.712 Q778.801 210.059 780.56 210.754 Z" fill="#000000" fill-rule="nonzero" fill-opacity="1" /><path clip-path="url(#clip890)" d="M800.514 222.883 Q795.352 222.883 793.361 224.064 Q791.37 225.244 791.37 228.092 Q791.37 230.36 792.852 231.703 Q794.356 233.022 796.926 233.022 Q800.467 233.022 802.597 230.522 Q804.75 227.999 804.75 223.832 L804.75 222.883 L800.514 222.883 M809.009 221.124 L809.009 235.916 L804.75 235.916 L804.75 231.981 Q803.292 234.342 801.116 235.476 Q798.94 236.587 795.792 236.587 Q791.81 236.587 789.449 234.365 Q787.111 232.119 787.111 228.369 Q787.111 223.994 790.028 221.772 Q792.968 219.55 798.778 219.55 L804.75 219.55 L804.75 219.133 Q804.75 216.194 802.805 214.596 Q800.884 212.976 797.389 212.976 Q795.167 212.976 793.06 213.508 Q790.954 214.041 789.009 215.106 L789.009 211.17 Q791.347 210.268 793.546 209.828 Q795.745 209.365 797.829 209.365 Q803.454 209.365 806.231 212.282 Q809.009 215.198 809.009 221.124 Z" fill="#000000" fill-rule="nonzero" fill-opacity="1" /><path clip-path="url(#clip890)" d="M814.727 209.99 L819.241 209.99 L827.342 231.749 L835.444 209.99 L839.958 209.99 L830.236 235.916 L824.449 235.916 L814.727 209.99 Z" fill="#000000" fill-rule="nonzero" fill-opacity="1" /><path clip-path="url(#clip890)" d="M868.013 221.888 L868.013 223.971 L848.43 223.971 Q848.708 228.369 851.069 230.684 Q853.453 232.976 857.689 232.976 Q860.143 232.976 862.435 232.374 Q864.75 231.772 867.018 230.569 L867.018 234.596 Q864.726 235.568 862.319 236.078 Q859.912 236.587 857.435 236.587 Q851.231 236.587 847.597 232.976 Q843.986 229.365 843.986 223.207 Q843.986 216.842 847.412 213.115 Q850.861 209.365 856.694 209.365 Q861.925 209.365 864.958 212.745 Q868.013 216.101 868.013 221.888 M863.754 220.638 Q863.708 217.143 861.787 215.059 Q859.888 212.976 856.74 212.976 Q853.176 212.976 851.023 214.99 Q848.893 217.004 848.569 220.661 L863.754 220.638 Z" fill="#000000" fill-rule="nonzero" fill-opacity="1" /><path clip-path="url(#clip890)" d="M886.786 222.883 Q881.624 222.883 879.634 224.064 Q877.643 225.244 877.643 228.092 Q877.643 230.36 879.124 231.703 Q880.629 233.022 883.199 233.022 Q886.74 233.022 888.87 230.522 Q891.023 227.999 891.023 223.832 L891.023 222.883 L886.786 222.883 M895.282 221.124 L895.282 235.916 L891.023 235.916 L891.023 231.981 Q889.564 234.342 887.388 235.476 Q885.212 236.587 882.064 236.587 Q878.083 236.587 875.722 234.365 Q873.384 232.119 873.384 228.369 Q873.384 223.994 876.3 221.772 Q879.24 219.55 885.05 219.55 L891.023 219.55 L891.023 219.133 Q891.023 216.194 889.078 214.596 Q887.157 212.976 883.661 212.976 Q881.439 212.976 879.333 213.508 Q877.226 214.041 875.282 215.106 L875.282 211.17 Q877.62 210.268 879.819 209.828 Q882.018 209.365 884.101 209.365 Q889.726 209.365 892.504 212.282 Q895.282 215.198 895.282 221.124 Z" fill="#000000" fill-rule="nonzero" fill-opacity="1" /><path clip-path="url(#clip890)" d="M908.268 202.629 L908.268 209.99 L917.041 209.99 L917.041 213.3 L908.268 213.3 L908.268 227.374 Q908.268 230.545 909.124 231.448 Q910.004 232.351 912.666 232.351 L917.041 232.351 L917.041 235.916 L912.666 235.916 Q907.735 235.916 905.86 234.087 Q903.985 232.235 903.985 227.374 L903.985 213.3 L900.86 213.3 L900.86 209.99 L903.985 209.99 L903.985 202.629 L908.268 202.629 Z" fill="#000000" fill-rule="nonzero" fill-opacity="1" /><path clip-path="url(#clip890)" d="M923.198 214.388 L952.874 214.388 L952.874 218.277 L923.198 218.277 L923.198 214.388 M923.198 223.832 L952.874 223.832 L952.874 227.768 L923.198 227.768 L923.198 223.832 Z" fill="#000000" fill-rule="nonzero" fill-opacity="1" /><path clip-path="url(#clip890)" d="M963.777 231.981 L971.416 231.981 L971.416 205.615 L963.105 207.282 L963.105 203.022 L971.369 201.356 L976.045 201.356 L976.045 231.981 L983.684 231.981 L983.684 235.916 L963.777 235.916 L963.777 231.981 Z" fill="#000000" fill-rule="nonzero" fill-opacity="1" /><path clip-path="url(#clip890)" d="M991.855 199.944 L995.559 199.944 Q999.031 205.407 1000.74 210.638 Q1002.48 215.87 1002.48 221.032 Q1002.48 226.217 1000.74 231.471 Q999.031 236.726 995.559 242.166 L991.855 242.166 Q994.934 236.865 996.439 231.633 Q997.966 226.379 997.966 221.032 Q997.966 215.684 996.439 210.476 Q994.934 205.268 991.855 199.944 Z" fill="#000000" fill-rule="nonzero" fill-opacity="1" /><line clip-path="url(#clip890)" x1="343.596" y1="270.476" x2="321.196" y2="248.076" style="stroke:#dc143c; stroke-width:5.12; stroke-opacity:1"/>
<line clip-path="url(#clip890)" x1="343.596" y1="270.476" x2="321.196" y2="292.876" style="stroke:#dc143c; stroke-width:5.12; stroke-opacity:1"/>
<line clip-path="url(#clip890)" x1="343.596" y1="270.476" x2="365.996" y2="292.876" style="stroke:#dc143c; stroke-width:5.12; stroke-opacity:1"/>
<line clip-path="url(#clip890)" x1="343.596" y1="270.476" x2="365.996" y2="248.076" style="stroke:#dc143c; stroke-width:5.12; stroke-opacity:1"/>
<path clip-path="url(#clip890)" d="M456.812 271.552 Q458.317 272.061 459.729 273.728 Q461.164 275.395 462.599 278.311 L467.344 287.756 L462.321 287.756 L457.9 278.89 Q456.187 275.418 454.567 274.284 Q452.969 273.149 450.192 273.149 L445.099 273.149 L445.099 287.756 L440.423 287.756 L440.423 253.196 L450.979 253.196 Q456.904 253.196 459.821 255.673 Q462.738 258.149 462.738 263.149 Q462.738 266.413 461.21 268.566 Q459.705 270.719 456.812 271.552 M445.099 257.038 L445.099 269.307 L450.979 269.307 Q454.358 269.307 456.071 267.756 Q457.807 266.182 457.807 263.149 Q457.807 260.117 456.071 258.589 Q454.358 257.038 450.979 257.038 L445.099 257.038 Z" fill="#000000" fill-rule="nonzero" fill-opacity="1" /><path clip-path="url(#clip890)" d="M493.224 273.728 L493.224 275.811 L473.641 275.811 Q473.918 280.209 476.279 282.524 Q478.664 284.816 482.9 284.816 Q485.353 284.816 487.645 284.214 Q489.96 283.612 492.228 282.409 L492.228 286.436 Q489.937 287.408 487.529 287.918 Q485.122 288.427 482.645 288.427 Q476.441 288.427 472.807 284.816 Q469.196 281.205 469.196 275.047 Q469.196 268.682 472.622 264.955 Q476.071 261.205 481.904 261.205 Q487.136 261.205 490.168 264.585 Q493.224 267.941 493.224 273.728 M488.965 272.478 Q488.918 268.983 486.997 266.899 Q485.099 264.816 481.951 264.816 Q478.386 264.816 476.233 266.83 Q474.103 268.844 473.779 272.501 L488.965 272.478 Z" fill="#000000" fill-rule="nonzero" fill-opacity="1" /><path clip-path="url(#clip890)" d="M520.4 266.807 Q521.997 263.936 524.219 262.571 Q526.441 261.205 529.45 261.205 Q533.501 261.205 535.7 264.052 Q537.899 266.876 537.899 272.108 L537.899 287.756 L533.617 287.756 L533.617 272.247 Q533.617 268.52 532.298 266.714 Q530.978 264.909 528.27 264.909 Q524.96 264.909 523.038 267.108 Q521.117 269.307 521.117 273.103 L521.117 287.756 L516.835 287.756 L516.835 272.247 Q516.835 268.497 515.515 266.714 Q514.196 264.909 511.441 264.909 Q508.177 264.909 506.256 267.131 Q504.335 269.33 504.335 273.103 L504.335 287.756 L500.052 287.756 L500.052 261.83 L504.335 261.83 L504.335 265.858 Q505.793 263.473 507.83 262.339 Q509.867 261.205 512.668 261.205 Q515.492 261.205 517.46 262.64 Q519.45 264.075 520.4 266.807 Z" fill="#000000" fill-rule="nonzero" fill-opacity="1" /><path clip-path="url(#clip890)" d="M556.441 264.816 Q553.015 264.816 551.024 267.501 Q549.034 270.163 549.034 274.816 Q549.034 279.469 551.001 282.154 Q552.992 284.816 556.441 284.816 Q559.844 284.816 561.834 282.131 Q563.825 279.446 563.825 274.816 Q563.825 270.21 561.834 267.524 Q559.844 264.816 556.441 264.816 M556.441 261.205 Q561.997 261.205 565.168 264.816 Q568.339 268.427 568.339 274.816 Q568.339 281.182 565.168 284.816 Q561.997 288.427 556.441 288.427 Q550.862 288.427 547.691 284.816 Q544.543 281.182 544.543 274.816 Q544.543 268.427 547.691 264.816 Q550.862 261.205 556.441 261.205 Z" fill="#000000" fill-rule="nonzero" fill-opacity="1" /><path clip-path="url(#clip890)" d="M572.344 261.83 L576.858 261.83 L584.959 283.589 L593.061 261.83 L597.575 261.83 L587.853 287.756 L582.066 287.756 L572.344 261.83 Z" fill="#000000" fill-rule="nonzero" fill-opacity="1" /><path clip-path="url(#clip890)" d="M625.63 273.728 L625.63 275.811 L606.047 275.811 Q606.325 280.209 608.686 282.524 Q611.07 284.816 615.306 284.816 Q617.76 284.816 620.052 284.214 Q622.367 283.612 624.635 282.409 L624.635 286.436 Q622.343 287.408 619.936 287.918 Q617.529 288.427 615.052 288.427 Q608.848 288.427 605.214 284.816 Q601.603 281.205 601.603 275.047 Q601.603 268.682 605.029 264.955 Q608.478 261.205 614.311 261.205 Q619.543 261.205 622.575 264.585 Q625.63 267.941 625.63 273.728 M621.371 272.478 Q621.325 268.983 619.404 266.899 Q617.505 264.816 614.357 264.816 Q610.793 264.816 608.64 266.83 Q606.51 268.844 606.186 272.501 L621.371 272.478 Z" fill="#000000" fill-rule="nonzero" fill-opacity="1" /><path clip-path="url(#clip890)" d="M649.681 265.765 L649.681 251.737 L653.94 251.737 L653.94 287.756 L649.681 287.756 L649.681 283.867 Q648.339 286.182 646.278 287.316 Q644.241 288.427 641.371 288.427 Q636.672 288.427 633.709 284.677 Q630.769 280.927 630.769 274.816 Q630.769 268.705 633.709 264.955 Q636.672 261.205 641.371 261.205 Q644.241 261.205 646.278 262.339 Q648.339 263.45 649.681 265.765 M635.167 274.816 Q635.167 279.515 637.089 282.2 Q639.033 284.862 642.413 284.862 Q645.792 284.862 647.737 282.2 Q649.681 279.515 649.681 274.816 Q649.681 270.117 647.737 267.455 Q645.792 264.77 642.413 264.77 Q639.033 264.77 637.089 267.455 Q635.167 270.117 635.167 274.816 Z" fill="#000000" fill-rule="nonzero" fill-opacity="1" /><path clip-path="url(#clip890)" d="M697.968 266.807 Q699.565 263.936 701.787 262.571 Q704.01 261.205 707.019 261.205 Q711.07 261.205 713.269 264.052 Q715.468 266.876 715.468 272.108 L715.468 287.756 L711.186 287.756 L711.186 272.247 Q711.186 268.52 709.866 266.714 Q708.547 264.909 705.838 264.909 Q702.528 264.909 700.607 267.108 Q698.686 269.307 698.686 273.103 L698.686 287.756 L694.403 287.756 L694.403 272.247 Q694.403 268.497 693.084 266.714 Q691.764 264.909 689.01 264.909 Q685.746 264.909 683.825 267.131 Q681.903 269.33 681.903 273.103 L681.903 287.756 L677.621 287.756 L677.621 261.83 L681.903 261.83 L681.903 265.858 Q683.362 263.473 685.399 262.339 Q687.436 261.205 690.237 261.205 Q693.061 261.205 695.028 262.64 Q697.019 264.075 697.968 266.807 Z" fill="#000000" fill-rule="nonzero" fill-opacity="1" /><path clip-path="url(#clip890)" d="M746.139 273.728 L746.139 275.811 L726.556 275.811 Q726.834 280.209 729.195 282.524 Q731.579 284.816 735.815 284.816 Q738.269 284.816 740.56 284.214 Q742.875 283.612 745.144 282.409 L745.144 286.436 Q742.852 287.408 740.445 287.918 Q738.037 288.427 735.56 288.427 Q729.357 288.427 725.723 284.816 Q722.111 281.205 722.111 275.047 Q722.111 268.682 725.537 264.955 Q728.986 261.205 734.82 261.205 Q740.051 261.205 743.084 264.585 Q746.139 267.941 746.139 273.728 M741.88 272.478 Q741.834 268.983 739.912 266.899 Q738.014 264.816 734.866 264.816 Q731.301 264.816 729.148 266.83 Q727.019 268.844 726.695 272.501 L741.88 272.478 Z" fill="#000000" fill-rule="nonzero" fill-opacity="1" /><path clip-path="url(#clip890)" d="M764.912 274.723 Q759.75 274.723 757.759 275.904 Q755.769 277.084 755.769 279.932 Q755.769 282.2 757.25 283.543 Q758.755 284.862 761.324 284.862 Q764.866 284.862 766.995 282.362 Q769.148 279.839 769.148 275.672 L769.148 274.723 L764.912 274.723 M773.407 272.964 L773.407 287.756 L769.148 287.756 L769.148 283.821 Q767.69 286.182 765.514 287.316 Q763.338 288.427 760.19 288.427 Q756.208 288.427 753.847 286.205 Q751.509 283.959 751.509 280.209 Q751.509 275.834 754.426 273.612 Q757.366 271.39 763.176 271.39 L769.148 271.39 L769.148 270.973 Q769.148 268.034 767.204 266.436 Q765.282 264.816 761.787 264.816 Q759.565 264.816 757.458 265.348 Q755.352 265.881 753.408 266.946 L753.408 263.01 Q755.745 262.108 757.945 261.668 Q760.144 261.205 762.227 261.205 Q767.852 261.205 770.63 264.122 Q773.407 267.038 773.407 272.964 Z" fill="#000000" fill-rule="nonzero" fill-opacity="1" /><path clip-path="url(#clip890)" d="M798.708 262.594 L798.708 266.622 Q796.903 265.696 794.958 265.233 Q793.014 264.77 790.93 264.77 Q787.759 264.77 786.162 265.742 Q784.588 266.714 784.588 268.659 Q784.588 270.14 785.722 270.997 Q786.856 271.83 790.282 272.594 L791.741 272.918 Q796.278 273.89 798.176 275.672 Q800.097 277.432 800.097 280.603 Q800.097 284.214 797.227 286.321 Q794.38 288.427 789.38 288.427 Q787.296 288.427 785.028 288.01 Q782.782 287.617 780.282 286.807 L780.282 282.409 Q782.643 283.635 784.935 284.26 Q787.227 284.862 789.472 284.862 Q792.481 284.862 794.102 283.844 Q795.722 282.802 795.722 280.927 Q795.722 279.191 794.542 278.265 Q793.384 277.339 789.426 276.483 L787.944 276.135 Q783.986 275.302 782.227 273.589 Q780.468 271.853 780.468 268.844 Q780.468 265.186 783.06 263.196 Q785.653 261.205 790.421 261.205 Q792.782 261.205 794.866 261.552 Q796.949 261.899 798.708 262.594 Z" fill="#000000" fill-rule="nonzero" fill-opacity="1" /><path clip-path="url(#clip890)" d="M806.44 277.524 L806.44 261.83 L810.699 261.83 L810.699 277.362 Q810.699 281.043 812.134 282.895 Q813.569 284.723 816.44 284.723 Q819.889 284.723 821.879 282.524 Q823.893 280.325 823.893 276.529 L823.893 261.83 L828.153 261.83 L828.153 287.756 L823.893 287.756 L823.893 283.774 Q822.342 286.135 820.282 287.293 Q818.245 288.427 815.537 288.427 Q811.069 288.427 808.754 285.649 Q806.44 282.871 806.44 277.524 M817.157 261.205 L817.157 261.205 Z" fill="#000000" fill-rule="nonzero" fill-opacity="1" /><path clip-path="url(#clip890)" d="M851.949 265.811 Q851.231 265.395 850.375 265.21 Q849.541 265.001 848.523 265.001 Q844.912 265.001 842.967 267.362 Q841.046 269.7 841.046 274.098 L841.046 287.756 L836.764 287.756 L836.764 261.83 L841.046 261.83 L841.046 265.858 Q842.389 263.497 844.541 262.362 Q846.694 261.205 849.773 261.205 Q850.213 261.205 850.745 261.274 Q851.277 261.321 851.926 261.436 L851.949 265.811 Z" fill="#000000" fill-rule="nonzero" fill-opacity="1" /><path clip-path="url(#clip890)" d="M877.55 273.728 L877.55 275.811 L857.967 275.811 Q858.245 280.209 860.606 282.524 Q862.99 284.816 867.226 284.816 Q869.68 284.816 871.972 284.214 Q874.287 283.612 876.555 282.409 L876.555 286.436 Q874.263 287.408 871.856 287.918 Q869.449 288.427 866.972 288.427 Q860.768 288.427 857.134 284.816 Q853.523 281.205 853.523 275.047 Q853.523 268.682 856.949 264.955 Q860.398 261.205 866.231 261.205 Q871.462 261.205 874.495 264.585 Q877.55 267.941 877.55 273.728 M873.291 272.478 Q873.245 268.983 871.324 266.899 Q869.425 264.816 866.277 264.816 Q862.713 264.816 860.56 266.83 Q858.43 268.844 858.106 272.501 L873.291 272.478 Z" fill="#000000" fill-rule="nonzero" fill-opacity="1" /><path clip-path="url(#clip890)" d="M904.726 266.807 Q906.323 263.936 908.546 262.571 Q910.768 261.205 913.777 261.205 Q917.828 261.205 920.027 264.052 Q922.226 266.876 922.226 272.108 L922.226 287.756 L917.944 287.756 L917.944 272.247 Q917.944 268.52 916.624 266.714 Q915.305 264.909 912.597 264.909 Q909.286 264.909 907.365 267.108 Q905.444 269.307 905.444 273.103 L905.444 287.756 L901.161 287.756 L901.161 272.247 Q901.161 268.497 899.842 266.714 Q898.523 264.909 895.768 264.909 Q892.504 264.909 890.583 267.131 Q888.661 269.33 888.661 273.103 L888.661 287.756 L884.379 287.756 L884.379 261.83 L888.661 261.83 L888.661 265.858 Q890.12 263.473 892.157 262.339 Q894.194 261.205 896.995 261.205 Q899.819 261.205 901.786 262.64 Q903.777 264.075 904.726 266.807 Z" fill="#000000" fill-rule="nonzero" fill-opacity="1" /><path clip-path="url(#clip890)" d="M952.897 273.728 L952.897 275.811 L933.314 275.811 Q933.592 280.209 935.953 282.524 Q938.337 284.816 942.573 284.816 Q945.027 284.816 947.319 284.214 Q949.633 283.612 951.902 282.409 L951.902 286.436 Q949.61 287.408 947.203 287.918 Q944.795 288.427 942.319 288.427 Q936.115 288.427 932.481 284.816 Q928.87 281.205 928.87 275.047 Q928.87 268.682 932.295 264.955 Q935.745 261.205 941.578 261.205 Q946.809 261.205 949.842 264.585 Q952.897 267.941 952.897 273.728 M948.638 272.478 Q948.592 268.983 946.67 266.899 Q944.772 264.816 941.624 264.816 Q938.059 264.816 935.907 266.83 Q933.777 268.844 933.453 272.501 L948.638 272.478 Z" fill="#000000" fill-rule="nonzero" fill-opacity="1" /><path clip-path="url(#clip890)" d="M981.439 272.108 L981.439 287.756 L977.179 287.756 L977.179 272.247 Q977.179 268.566 975.744 266.737 Q974.309 264.909 971.439 264.909 Q967.99 264.909 965.999 267.108 Q964.008 269.307 964.008 273.103 L964.008 287.756 L959.726 287.756 L959.726 261.83 L964.008 261.83 L964.008 265.858 Q965.536 263.52 967.596 262.362 Q969.68 261.205 972.388 261.205 Q976.855 261.205 979.147 263.983 Q981.439 266.737 981.439 272.108 Z" fill="#000000" fill-rule="nonzero" fill-opacity="1" /><path clip-path="url(#clip890)" d="M994.147 254.469 L994.147 261.83 L1002.92 261.83 L1002.92 265.14 L994.147 265.14 L994.147 279.214 Q994.147 282.385 995.003 283.288 Q995.883 284.191 998.545 284.191 L1002.92 284.191 L1002.92 287.756 L998.545 287.756 Q993.615 287.756 991.74 285.927 Q989.865 284.075 989.865 279.214 L989.865 265.14 L986.74 265.14 L986.74 261.83 L989.865 261.83 L989.865 254.469 L994.147 254.469 Z" fill="#000000" fill-rule="nonzero" fill-opacity="1" /><path clip-path="url(#clip890)" d="M1025.05 262.594 L1025.05 266.622 Q1023.24 265.696 1021.3 265.233 Q1019.36 264.77 1017.27 264.77 Q1014.1 264.77 1012.5 265.742 Q1010.93 266.714 1010.93 268.659 Q1010.93 270.14 1012.06 270.997 Q1013.2 271.83 1016.62 272.594 L1018.08 272.918 Q1022.62 273.89 1024.52 275.672 Q1026.44 277.432 1026.44 280.603 Q1026.44 284.214 1023.57 286.321 Q1020.72 288.427 1015.72 288.427 Q1013.64 288.427 1011.37 288.01 Q1009.12 287.617 1006.62 286.807 L1006.62 282.409 Q1008.98 283.635 1011.28 284.26 Q1013.57 284.862 1015.81 284.862 Q1018.82 284.862 1020.44 283.844 Q1022.06 282.802 1022.06 280.927 Q1022.06 279.191 1020.88 278.265 Q1019.73 277.339 1015.77 276.483 L1014.29 276.135 Q1010.33 275.302 1008.57 273.589 Q1006.81 271.853 1006.81 268.844 Q1006.81 265.186 1009.4 263.196 Q1011.99 261.205 1016.76 261.205 Q1019.12 261.205 1021.21 261.552 Q1023.29 261.899 1025.05 262.594 Z" fill="#000000" fill-rule="nonzero" fill-opacity="1" /><circle clip-path="url(#clip890)" cx="343.596" cy="322.316" r="20.9455" fill="#1e90ff" fill-rule="evenodd" fill-opacity="1" stroke="#000000" stroke-opacity="1" stroke-width="3.72364"/>
<path clip-path="url(#clip890)" d="M440.423 305.036 L445.122 305.036 L445.122 326.031 Q445.122 331.587 447.136 334.04 Q449.15 336.471 453.664 336.471 Q458.154 336.471 460.168 334.04 Q462.182 331.587 462.182 326.031 L462.182 305.036 L466.881 305.036 L466.881 326.61 Q466.881 333.369 463.525 336.818 Q460.192 340.267 453.664 340.267 Q447.113 340.267 443.756 336.818 Q440.423 333.369 440.423 326.61 L440.423 305.036 Z" fill="#000000" fill-rule="nonzero" fill-opacity="1" /><path clip-path="url(#clip890)" d="M491.997 314.434 L491.997 318.462 Q490.191 317.536 488.247 317.073 Q486.302 316.61 484.219 316.61 Q481.048 316.61 479.451 317.582 Q477.877 318.554 477.877 320.499 Q477.877 321.98 479.011 322.837 Q480.145 323.67 483.571 324.434 L485.029 324.758 Q489.566 325.73 491.464 327.512 Q493.386 329.272 493.386 332.443 Q493.386 336.054 490.515 338.161 Q487.668 340.267 482.668 340.267 Q480.585 340.267 478.316 339.85 Q476.071 339.457 473.571 338.647 L473.571 334.249 Q475.932 335.475 478.224 336.1 Q480.515 336.702 482.761 336.702 Q485.77 336.702 487.39 335.684 Q489.011 334.642 489.011 332.767 Q489.011 331.031 487.83 330.105 Q486.673 329.179 482.715 328.323 L481.233 327.975 Q477.275 327.142 475.516 325.429 Q473.756 323.693 473.756 320.684 Q473.756 317.026 476.349 315.036 Q478.941 313.045 483.71 313.045 Q486.071 313.045 488.154 313.392 Q490.238 313.739 491.997 314.434 Z" fill="#000000" fill-rule="nonzero" fill-opacity="1" /><path clip-path="url(#clip890)" d="M522.344 325.568 L522.344 327.651 L502.761 327.651 Q503.039 332.049 505.4 334.364 Q507.784 336.656 512.02 336.656 Q514.474 336.656 516.765 336.054 Q519.08 335.452 521.349 334.249 L521.349 338.276 Q519.057 339.248 516.65 339.758 Q514.242 340.267 511.765 340.267 Q505.562 340.267 501.927 336.656 Q498.316 333.045 498.316 326.887 Q498.316 320.522 501.742 316.795 Q505.191 313.045 511.025 313.045 Q516.256 313.045 519.288 316.425 Q522.344 319.781 522.344 325.568 M518.085 324.318 Q518.038 320.823 516.117 318.739 Q514.219 316.656 511.071 316.656 Q507.506 316.656 505.353 318.67 Q503.224 320.684 502.9 324.341 L518.085 324.318 Z" fill="#000000" fill-rule="nonzero" fill-opacity="1" /><path clip-path="url(#clip890)" d="M546.395 317.605 L546.395 303.577 L550.654 303.577 L550.654 339.596 L546.395 339.596 L546.395 335.707 Q545.052 338.022 542.992 339.156 Q540.955 340.267 538.085 340.267 Q533.386 340.267 530.423 336.517 Q527.483 332.767 527.483 326.656 Q527.483 320.545 530.423 316.795 Q533.386 313.045 538.085 313.045 Q540.955 313.045 542.992 314.179 Q545.052 315.29 546.395 317.605 M531.881 326.656 Q531.881 331.355 533.802 334.04 Q535.747 336.702 539.126 336.702 Q542.506 336.702 544.45 334.04 Q546.395 331.355 546.395 326.656 Q546.395 321.957 544.45 319.295 Q542.506 316.61 539.126 316.61 Q535.747 316.61 533.802 319.295 Q531.881 321.957 531.881 326.656 Z" fill="#000000" fill-rule="nonzero" fill-opacity="1" /><path clip-path="url(#clip890)" d="M594.682 318.647 Q596.279 315.776 598.501 314.411 Q600.723 313.045 603.732 313.045 Q607.783 313.045 609.982 315.892 Q612.181 318.716 612.181 323.948 L612.181 339.596 L607.899 339.596 L607.899 324.087 Q607.899 320.36 606.58 318.554 Q605.26 316.749 602.552 316.749 Q599.242 316.749 597.32 318.948 Q595.399 321.147 595.399 324.943 L595.399 339.596 L591.117 339.596 L591.117 324.087 Q591.117 320.337 589.797 318.554 Q588.478 316.749 585.723 316.749 Q582.459 316.749 580.538 318.971 Q578.617 321.17 578.617 324.943 L578.617 339.596 L574.334 339.596 L574.334 313.67 L578.617 313.67 L578.617 317.698 Q580.075 315.313 582.112 314.179 Q584.149 313.045 586.95 313.045 Q589.774 313.045 591.742 314.48 Q593.732 315.915 594.682 318.647 Z" fill="#000000" fill-rule="nonzero" fill-opacity="1" /><path clip-path="url(#clip890)" d="M642.853 325.568 L642.853 327.651 L623.269 327.651 Q623.547 332.049 625.908 334.364 Q628.292 336.656 632.529 336.656 Q634.982 336.656 637.274 336.054 Q639.589 335.452 641.857 334.249 L641.857 338.276 Q639.566 339.248 637.158 339.758 Q634.751 340.267 632.274 340.267 Q626.07 340.267 622.436 336.656 Q618.825 333.045 618.825 326.887 Q618.825 320.522 622.251 316.795 Q625.7 313.045 631.533 313.045 Q636.765 313.045 639.797 316.425 Q642.853 319.781 642.853 325.568 M638.593 324.318 Q638.547 320.823 636.626 318.739 Q634.728 316.656 631.579 316.656 Q628.015 316.656 625.862 318.67 Q623.732 320.684 623.408 324.341 L638.593 324.318 Z" fill="#000000" fill-rule="nonzero" fill-opacity="1" /><path clip-path="url(#clip890)" d="M661.626 326.563 Q656.464 326.563 654.473 327.744 Q652.482 328.924 652.482 331.772 Q652.482 334.04 653.964 335.383 Q655.468 336.702 658.038 336.702 Q661.579 336.702 663.709 334.202 Q665.862 331.679 665.862 327.512 L665.862 326.563 L661.626 326.563 M670.121 324.804 L670.121 339.596 L665.862 339.596 L665.862 335.661 Q664.403 338.022 662.227 339.156 Q660.052 340.267 656.903 340.267 Q652.922 340.267 650.561 338.045 Q648.223 335.799 648.223 332.049 Q648.223 327.674 651.14 325.452 Q654.079 323.23 659.89 323.23 L665.862 323.23 L665.862 322.813 Q665.862 319.874 663.917 318.276 Q661.996 316.656 658.501 316.656 Q656.278 316.656 654.172 317.188 Q652.065 317.721 650.121 318.786 L650.121 314.85 Q652.459 313.948 654.658 313.508 Q656.857 313.045 658.94 313.045 Q664.565 313.045 667.343 315.962 Q670.121 318.878 670.121 324.804 Z" fill="#000000" fill-rule="nonzero" fill-opacity="1" /><path clip-path="url(#clip890)" d="M695.422 314.434 L695.422 318.462 Q693.616 317.536 691.672 317.073 Q689.727 316.61 687.644 316.61 Q684.473 316.61 682.876 317.582 Q681.301 318.554 681.301 320.499 Q681.301 321.98 682.436 322.837 Q683.57 323.67 686.996 324.434 L688.454 324.758 Q692.991 325.73 694.889 327.512 Q696.811 329.272 696.811 332.443 Q696.811 336.054 693.94 338.161 Q691.093 340.267 686.093 340.267 Q684.01 340.267 681.741 339.85 Q679.496 339.457 676.996 338.647 L676.996 334.249 Q679.357 335.475 681.649 336.1 Q683.94 336.702 686.186 336.702 Q689.195 336.702 690.815 335.684 Q692.436 334.642 692.436 332.767 Q692.436 331.031 691.255 330.105 Q690.098 329.179 686.139 328.323 L684.658 327.975 Q680.7 327.142 678.94 325.429 Q677.181 323.693 677.181 320.684 Q677.181 317.026 679.774 315.036 Q682.366 313.045 687.135 313.045 Q689.496 313.045 691.579 313.392 Q693.662 313.739 695.422 314.434 Z" fill="#000000" fill-rule="nonzero" fill-opacity="1" /><path clip-path="url(#clip890)" d="M703.153 329.364 L703.153 313.67 L707.412 313.67 L707.412 329.202 Q707.412 332.883 708.848 334.735 Q710.283 336.563 713.153 336.563 Q716.602 336.563 718.593 334.364 Q720.607 332.165 720.607 328.369 L720.607 313.67 L724.866 313.67 L724.866 339.596 L720.607 339.596 L720.607 335.614 Q719.056 337.975 716.996 339.133 Q714.959 340.267 712.25 340.267 Q707.783 340.267 705.468 337.489 Q703.153 334.711 703.153 329.364 M713.871 313.045 L713.871 313.045 Z" fill="#000000" fill-rule="nonzero" fill-opacity="1" /><path clip-path="url(#clip890)" d="M748.662 317.651 Q747.945 317.235 747.088 317.05 Q746.255 316.841 745.236 316.841 Q741.625 316.841 739.681 319.202 Q737.759 321.54 737.759 325.938 L737.759 339.596 L733.477 339.596 L733.477 313.67 L737.759 313.67 L737.759 317.698 Q739.102 315.337 741.255 314.202 Q743.408 313.045 746.486 313.045 Q746.926 313.045 747.458 313.114 Q747.991 313.161 748.639 313.276 L748.662 317.651 Z" fill="#000000" fill-rule="nonzero" fill-opacity="1" /><path clip-path="url(#clip890)" d="M774.264 325.568 L774.264 327.651 L754.681 327.651 Q754.958 332.049 757.32 334.364 Q759.704 336.656 763.94 336.656 Q766.394 336.656 768.685 336.054 Q771 335.452 773.269 334.249 L773.269 338.276 Q770.977 339.248 768.569 339.758 Q766.162 340.267 763.685 340.267 Q757.482 340.267 753.847 336.656 Q750.236 333.045 750.236 326.887 Q750.236 320.522 753.662 316.795 Q757.111 313.045 762.945 313.045 Q768.176 313.045 771.208 316.425 Q774.264 319.781 774.264 325.568 M770.005 324.318 Q769.958 320.823 768.037 318.739 Q766.139 316.656 762.991 316.656 Q759.426 316.656 757.273 318.67 Q755.144 320.684 754.82 324.341 L770.005 324.318 Z" fill="#000000" fill-rule="nonzero" fill-opacity="1" /><path clip-path="url(#clip890)" d="M801.44 318.647 Q803.037 315.776 805.259 314.411 Q807.481 313.045 810.491 313.045 Q814.541 313.045 816.741 315.892 Q818.94 318.716 818.94 323.948 L818.94 339.596 L814.657 339.596 L814.657 324.087 Q814.657 320.36 813.338 318.554 Q812.018 316.749 809.31 316.749 Q806 316.749 804.079 318.948 Q802.157 321.147 802.157 324.943 L802.157 339.596 L797.875 339.596 L797.875 324.087 Q797.875 320.337 796.555 318.554 Q795.236 316.749 792.481 316.749 Q789.218 316.749 787.296 318.971 Q785.375 321.17 785.375 324.943 L785.375 339.596 L781.093 339.596 L781.093 313.67 L785.375 313.67 L785.375 317.698 Q786.833 315.313 788.87 314.179 Q790.907 313.045 793.708 313.045 Q796.532 313.045 798.5 314.48 Q800.491 315.915 801.44 318.647 Z" fill="#000000" fill-rule="nonzero" fill-opacity="1" /><path clip-path="url(#clip890)" d="M849.611 325.568 L849.611 327.651 L830.027 327.651 Q830.305 332.049 832.666 334.364 Q835.051 336.656 839.287 336.656 Q841.74 336.656 844.032 336.054 Q846.347 335.452 848.615 334.249 L848.615 338.276 Q846.324 339.248 843.916 339.758 Q841.509 340.267 839.032 340.267 Q832.828 340.267 829.194 336.656 Q825.583 333.045 825.583 326.887 Q825.583 320.522 829.009 316.795 Q832.458 313.045 838.291 313.045 Q843.523 313.045 846.555 316.425 Q849.611 319.781 849.611 325.568 M845.351 324.318 Q845.305 320.823 843.384 318.739 Q841.486 316.656 838.338 316.656 Q834.773 316.656 832.62 318.67 Q830.49 320.684 830.166 324.341 L845.351 324.318 Z" fill="#000000" fill-rule="nonzero" fill-opacity="1" /><path clip-path="url(#clip890)" d="M878.152 323.948 L878.152 339.596 L873.893 339.596 L873.893 324.087 Q873.893 320.406 872.458 318.577 Q871.023 316.749 868.152 316.749 Q864.703 316.749 862.713 318.948 Q860.722 321.147 860.722 324.943 L860.722 339.596 L856.439 339.596 L856.439 313.67 L860.722 313.67 L860.722 317.698 Q862.25 315.36 864.31 314.202 Q866.393 313.045 869.101 313.045 Q873.569 313.045 875.861 315.823 Q878.152 318.577 878.152 323.948 Z" fill="#000000" fill-rule="nonzero" fill-opacity="1" /><path clip-path="url(#clip890)" d="M890.861 306.309 L890.861 313.67 L899.634 313.67 L899.634 316.98 L890.861 316.98 L890.861 331.054 Q890.861 334.225 891.717 335.128 Q892.597 336.031 895.259 336.031 L899.634 336.031 L899.634 339.596 L895.259 339.596 Q890.328 339.596 888.453 337.767 Q886.578 335.915 886.578 331.054 L886.578 316.98 L883.453 316.98 L883.453 313.67 L886.578 313.67 L886.578 306.309 L890.861 306.309 Z" fill="#000000" fill-rule="nonzero" fill-opacity="1" /><path clip-path="url(#clip890)" d="M921.763 314.434 L921.763 318.462 Q919.958 317.536 918.013 317.073 Q916.069 316.61 913.985 316.61 Q910.814 316.61 909.217 317.582 Q907.643 318.554 907.643 320.499 Q907.643 321.98 908.777 322.837 Q909.911 323.67 913.337 324.434 L914.796 324.758 Q919.333 325.73 921.231 327.512 Q923.152 329.272 923.152 332.443 Q923.152 336.054 920.282 338.161 Q917.434 340.267 912.434 340.267 Q910.351 340.267 908.083 339.85 Q905.837 339.457 903.337 338.647 L903.337 334.249 Q905.698 335.475 907.99 336.1 Q910.282 336.702 912.527 336.702 Q915.536 336.702 917.157 335.684 Q918.777 334.642 918.777 332.767 Q918.777 331.031 917.596 330.105 Q916.439 329.179 912.481 328.323 L910.999 327.975 Q907.041 327.142 905.282 325.429 Q903.522 323.693 903.522 320.684 Q903.522 317.026 906.115 315.036 Q908.708 313.045 913.476 313.045 Q915.837 313.045 917.921 313.392 Q920.004 313.739 921.763 314.434 Z" fill="#000000" fill-rule="nonzero" fill-opacity="1" /></svg>
