<?xml version="1.0" encoding="utf-8"?>
<svg xmlns="http://www.w3.org/2000/svg" xmlns:xlink="http://www.w3.org/1999/xlink" width="800" height="500" viewBox="0 0 3200 2000">
<defs>
  <clipPath id="clip300">
    <rect x="0" y="0" width="3200" height="2000"/>
  </clipPath>
</defs>
<path clip-path="url(#clip300)" d="M0 2000 L3200 2000 L3200 0 L0 0  Z" fill="#ffffff" fill-rule="evenodd" fill-opacity="1"/>
<defs>
  <clipPath id="clip301">
    <rect x="347" y="182" width="2743" height="1580"/>
  </clipPath>
</defs>
<path clip-path="url(#clip300)" d="M242.171 1761.32 L3089.76 1761.32 L3089.76 182.684 L242.171 182.684  Z" fill="#ffffff" fill-rule="evenodd" fill-opacity="1"/>
<defs>
  <clipPath id="clip302">
    <rect x="242" y="182" width="2849" height="1580"/>
  </clipPath>
</defs>
<polyline clip-path="url(#clip302)" style="stroke:#000000; stroke-linecap:round; stroke-linejoin:round; stroke-width:2; stroke-opacity:0.1; fill:none" points="322.763,1761.32 322.763,182.684 "/>
<polyline clip-path="url(#clip302)" style="stroke:#000000; stroke-linecap:round; stroke-linejoin:round; stroke-width:2; stroke-opacity:0.1; fill:none" points="1007.02,1761.32 1007.02,182.684 "/>
<polyline clip-path="url(#clip302)" style="stroke:#000000; stroke-linecap:round; stroke-linejoin:round; stroke-width:2; stroke-opacity:0.1; fill:none" points="1691.29,1761.32 1691.29,182.684 "/>
<polyline clip-path="url(#clip302)" style="stroke:#000000; stroke-linecap:round; stroke-linejoin:round; stroke-width:2; stroke-opacity:0.1; fill:none" points="2375.55,1761.32 2375.55,182.684 "/>
<polyline clip-path="url(#clip302)" style="stroke:#000000; stroke-linecap:round; stroke-linejoin:round; stroke-width:2; stroke-opacity:0.1; fill:none" points="3059.81,1761.32 3059.81,182.684 "/>
<polyline clip-path="url(#clip302)" style="stroke:#000000; stroke-linecap:round; stroke-linejoin:round; stroke-width:2; stroke-opacity:0.1; fill:none" points="242.171,1716.64 3089.76,1716.64 "/>
<polyline clip-path="url(#clip302)" style="stroke:#000000; stroke-linecap:round; stroke-linejoin:round; stroke-width:2; stroke-opacity:0.1; fill:none" points="242.171,1324.85 3089.76,1324.85 "/>
<polyline clip-path="url(#clip302)" style="stroke:#000000; stroke-linecap:round; stroke-linejoin:round; stroke-width:2; stroke-opacity:0.1; fill:none" points="242.171,933.06 3089.76,933.06 "/>
<polyline clip-path="url(#clip302)" style="stroke:#000000; stroke-linecap:round; stroke-linejoin:round; stroke-width:2; stroke-opacity:0.1; fill:none" points="242.171,541.27 3089.76,541.27 "/>
<polyline clip-path="url(#clip300)" style="stroke:#000000; stroke-linecap:round; stroke-linejoin:round; stroke-width:4; stroke-opacity:1; fill:none" points="242.171,1761.32 3089.76,1761.32 "/>
<polyline clip-path="url(#clip300)" style="stroke:#000000; stroke-linecap:round; stroke-linejoin:round; stroke-width:4; stroke-opacity:1; fill:none" points="322.763,1761.32 322.763,1742.42 "/>
<polyline clip-path="url(#clip300)" style="stroke:#000000; stroke-linecap:round; stroke-linejoin:round; stroke-width:4; stroke-opacity:1; fill:none" points="1007.02,1761.32 1007.02,1742.42 "/>
<polyline clip-path="url(#clip300)" style="stroke:#000000; stroke-linecap:round; stroke-linejoin:round; stroke-width:4; stroke-opacity:1; fill:none" points="1691.29,1761.32 1691.29,1742.42 "/>
<polyline clip-path="url(#clip300)" style="stroke:#000000; stroke-linecap:round; stroke-linejoin:round; stroke-width:4; stroke-opacity:1; fill:none" points="2375.55,1761.32 2375.55,1742.42 "/>
<polyline clip-path="url(#clip300)" style="stroke:#000000; stroke-linecap:round; stroke-linejoin:round; stroke-width:4; stroke-opacity:1; fill:none" points="3059.81,1761.32 3059.81,1742.42 "/>
<path clip-path="url(#clip300)" d="M322.763 1798.64 Q319.152 1798.64 317.324 1802.2 Q315.518 1805.74 315.518 1812.87 Q315.518 1819.98 317.324 1823.54 Q319.152 1827.09 322.763 1827.09 Q326.398 1827.09 328.203 1823.54 Q330.032 1819.98 330.032 1812.87 Q330.032 1805.74 328.203 1802.2 Q326.398 1798.64 322.763 1798.64 M322.763 1794.93 Q328.573 1794.93 331.629 1799.54 Q334.708 1804.12 334.708 1812.87 Q334.708 1821.6 331.629 1826.21 Q328.573 1830.79 322.763 1830.79 Q316.953 1830.79 313.874 1826.21 Q310.819 1821.6 310.819 1812.87 Q310.819 1804.12 313.874 1799.54 Q316.953 1794.93 322.763 1794.93 Z" fill="#000000" fill-rule="nonzero" fill-opacity="1" /><path clip-path="url(#clip300)" d="M986.295 1826.18 L1002.61 1826.18 L1002.61 1830.12 L980.67 1830.12 L980.67 1826.18 Q983.332 1823.43 987.915 1818.8 Q992.522 1814.15 993.702 1812.8 Q995.948 1810.28 996.827 1808.54 Q997.73 1806.78 997.73 1805.09 Q997.73 1802.34 995.786 1800.6 Q993.865 1798.87 990.763 1798.87 Q988.564 1798.87 986.11 1799.63 Q983.679 1800.4 980.902 1801.95 L980.902 1797.22 Q983.726 1796.09 986.179 1795.51 Q988.633 1794.93 990.67 1794.93 Q996.04 1794.93 999.235 1797.62 Q1002.43 1800.3 1002.43 1804.79 Q1002.43 1806.92 1001.62 1808.84 Q1000.83 1810.74 998.726 1813.34 Q998.147 1814.01 995.045 1817.22 Q991.943 1820.42 986.295 1826.18 Z" fill="#000000" fill-rule="nonzero" fill-opacity="1" /><path clip-path="url(#clip300)" d="M1012.48 1795.56 L1030.83 1795.56 L1030.83 1799.49 L1016.76 1799.49 L1016.76 1807.97 Q1017.78 1807.62 1018.79 1807.46 Q1019.81 1807.27 1020.83 1807.27 Q1026.62 1807.27 1030 1810.44 Q1033.38 1813.61 1033.38 1819.03 Q1033.38 1824.61 1029.91 1827.71 Q1026.43 1830.79 1020.11 1830.79 Q1017.94 1830.79 1015.67 1830.42 Q1013.42 1830.05 1011.02 1829.31 L1011.02 1824.61 Q1013.1 1825.74 1015.32 1826.3 Q1017.54 1826.85 1020.02 1826.85 Q1024.03 1826.85 1026.36 1824.75 Q1028.7 1822.64 1028.7 1819.03 Q1028.7 1815.42 1026.36 1813.31 Q1024.03 1811.21 1020.02 1811.21 Q1018.15 1811.21 1016.27 1811.62 Q1014.42 1812.04 1012.48 1812.92 L1012.48 1795.56 Z" fill="#000000" fill-rule="nonzero" fill-opacity="1" /><path clip-path="url(#clip300)" d="M1665.98 1795.56 L1684.34 1795.56 L1684.34 1799.49 L1670.27 1799.49 L1670.27 1807.97 Q1671.29 1807.62 1672.3 1807.46 Q1673.32 1807.27 1674.34 1807.27 Q1680.13 1807.27 1683.51 1810.44 Q1686.89 1813.61 1686.89 1819.03 Q1686.89 1824.61 1683.41 1827.71 Q1679.94 1830.79 1673.62 1830.79 Q1671.45 1830.79 1669.18 1830.42 Q1666.93 1830.05 1664.53 1829.31 L1664.53 1824.61 Q1666.61 1825.74 1668.83 1826.3 Q1671.05 1826.85 1673.53 1826.85 Q1677.54 1826.85 1679.87 1824.75 Q1682.21 1822.64 1682.21 1819.03 Q1682.21 1815.42 1679.87 1813.31 Q1677.54 1811.21 1673.53 1811.21 Q1671.66 1811.21 1669.78 1811.62 Q1667.93 1812.04 1665.98 1812.92 L1665.98 1795.56 Z" fill="#000000" fill-rule="nonzero" fill-opacity="1" /><path clip-path="url(#clip300)" d="M1706.1 1798.64 Q1702.49 1798.64 1700.66 1802.2 Q1698.85 1805.74 1698.85 1812.87 Q1698.85 1819.98 1700.66 1823.54 Q1702.49 1827.09 1706.1 1827.09 Q1709.73 1827.09 1711.54 1823.54 Q1713.37 1819.98 1713.37 1812.87 Q1713.37 1805.74 1711.54 1802.2 Q1709.73 1798.64 1706.1 1798.64 M1706.1 1794.93 Q1711.91 1794.93 1714.97 1799.54 Q1718.04 1804.12 1718.04 1812.87 Q1718.04 1821.6 1714.97 1826.21 Q1711.91 1830.79 1706.1 1830.79 Q1700.29 1830.79 1697.21 1826.21 Q1694.16 1821.6 1694.16 1812.87 Q1694.16 1804.12 1697.21 1799.54 Q1700.29 1794.93 1706.1 1794.93 Z" fill="#000000" fill-rule="nonzero" fill-opacity="1" /><path clip-path="url(#clip300)" d="M2349.4 1795.56 L2371.62 1795.56 L2371.62 1797.55 L2359.08 1830.12 L2354.19 1830.12 L2366 1799.49 L2349.4 1799.49 L2349.4 1795.56 Z" fill="#000000" fill-rule="nonzero" fill-opacity="1" /><path clip-path="url(#clip300)" d="M2380.79 1795.56 L2399.15 1795.56 L2399.15 1799.49 L2385.07 1799.49 L2385.07 1807.97 Q2386.09 1807.62 2387.11 1807.46 Q2388.13 1807.27 2389.15 1807.27 Q2394.93 1807.27 2398.31 1810.44 Q2401.69 1813.61 2401.69 1819.03 Q2401.69 1824.61 2398.22 1827.71 Q2394.75 1830.79 2388.43 1830.79 Q2386.25 1830.79 2383.98 1830.42 Q2381.74 1830.05 2379.33 1829.31 L2379.33 1824.61 Q2381.41 1825.74 2383.64 1826.3 Q2385.86 1826.85 2388.34 1826.85 Q2392.34 1826.85 2394.68 1824.75 Q2397.02 1822.64 2397.02 1819.03 Q2397.02 1815.42 2394.68 1813.31 Q2392.34 1811.21 2388.34 1811.21 Q2386.46 1811.21 2384.59 1811.62 Q2382.73 1812.04 2380.79 1812.92 L2380.79 1795.56 Z" fill="#000000" fill-rule="nonzero" fill-opacity="1" /><path clip-path="url(#clip300)" d="M3019.41 1826.18 L3027.05 1826.18 L3027.05 1799.82 L3018.74 1801.48 L3018.74 1797.22 L3027.01 1795.56 L3031.68 1795.56 L3031.68 1826.18 L3039.32 1826.18 L3039.32 1830.12 L3019.41 1830.12 L3019.41 1826.18 Z" fill="#000000" fill-rule="nonzero" fill-opacity="1" /><path clip-path="url(#clip300)" d="M3058.77 1798.64 Q3055.15 1798.64 3053.33 1802.2 Q3051.52 1805.74 3051.52 1812.87 Q3051.52 1819.98 3053.33 1823.54 Q3055.15 1827.09 3058.77 1827.09 Q3062.4 1827.09 3064.2 1823.54 Q3066.03 1819.98 3066.03 1812.87 Q3066.03 1805.74 3064.2 1802.2 Q3062.4 1798.64 3058.77 1798.64 M3058.77 1794.93 Q3064.58 1794.93 3067.63 1799.54 Q3070.71 1804.12 3070.71 1812.87 Q3070.71 1821.6 3067.63 1826.21 Q3064.58 1830.79 3058.77 1830.79 Q3052.96 1830.79 3049.88 1826.21 Q3046.82 1821.6 3046.82 1812.87 Q3046.82 1804.12 3049.88 1799.54 Q3052.96 1794.93 3058.77 1794.93 Z" fill="#000000" fill-rule="nonzero" fill-opacity="1" /><path clip-path="url(#clip300)" d="M3088.93 1798.64 Q3085.32 1798.64 3083.49 1802.2 Q3081.68 1805.74 3081.68 1812.87 Q3081.68 1819.98 3083.49 1823.54 Q3085.32 1827.09 3088.93 1827.09 Q3092.56 1827.09 3094.37 1823.54 Q3096.2 1819.98 3096.2 1812.87 Q3096.2 1805.74 3094.37 1802.2 Q3092.56 1798.64 3088.93 1798.64 M3088.93 1794.93 Q3094.74 1794.93 3097.79 1799.54 Q3100.87 1804.12 3100.87 1812.87 Q3100.87 1821.6 3097.79 1826.21 Q3094.74 1830.79 3088.93 1830.79 Q3083.12 1830.79 3080.04 1826.21 Q3076.98 1821.6 3076.98 1812.87 Q3076.98 1804.12 3080.04 1799.54 Q3083.12 1794.93 3088.93 1794.93 Z" fill="#000000" fill-rule="nonzero" fill-opacity="1" /><path clip-path="url(#clip300)" d="M1532.46 1870.66 L1572.66 1870.66 L1572.66 1876.07 L1555.79 1876.07 L1555.79 1918.18 L1549.33 1918.18 L1549.33 1876.07 L1532.46 1876.07 L1532.46 1870.66 Z" fill="#000000" fill-rule="nonzero" fill-opacity="1" /><path clip-path="url(#clip300)" d="M1576.61 1882.53 L1582.47 1882.53 L1582.47 1918.18 L1576.61 1918.18 L1576.61 1882.53 M1576.61 1868.66 L1582.47 1868.66 L1582.47 1876.07 L1576.61 1876.07 L1576.61 1868.66 Z" fill="#000000" fill-rule="nonzero" fill-opacity="1" /><path clip-path="url(#clip300)" d="M1622.47 1889.38 Q1624.67 1885.43 1627.73 1883.55 Q1630.78 1881.67 1634.92 1881.67 Q1640.49 1881.67 1643.51 1885.59 Q1646.54 1889.47 1646.54 1896.67 L1646.54 1918.18 L1640.65 1918.18 L1640.65 1896.86 Q1640.65 1891.73 1638.83 1889.25 Q1637.02 1886.77 1633.3 1886.77 Q1628.74 1886.77 1626.1 1889.79 Q1623.46 1892.81 1623.46 1898.03 L1623.46 1918.18 L1617.57 1918.18 L1617.57 1896.86 Q1617.57 1891.7 1615.76 1889.25 Q1613.94 1886.77 1610.16 1886.77 Q1605.67 1886.77 1603.03 1889.82 Q1600.38 1892.85 1600.38 1898.03 L1600.38 1918.18 L1594.5 1918.18 L1594.5 1882.53 L1600.38 1882.53 L1600.38 1888.07 Q1602.39 1884.79 1605.19 1883.23 Q1607.99 1881.67 1611.84 1881.67 Q1615.73 1881.67 1618.43 1883.65 Q1621.17 1885.62 1622.47 1889.38 Z" fill="#000000" fill-rule="nonzero" fill-opacity="1" /><path clip-path="url(#clip300)" d="M1688.71 1898.89 L1688.71 1901.76 L1661.78 1901.76 Q1662.16 1907.81 1665.41 1910.99 Q1668.69 1914.14 1674.51 1914.14 Q1677.89 1914.14 1681.04 1913.31 Q1684.22 1912.48 1687.34 1910.83 L1687.34 1916.37 Q1684.19 1917.7 1680.88 1918.4 Q1677.57 1919.1 1674.16 1919.1 Q1665.63 1919.1 1660.64 1914.14 Q1655.67 1909.17 1655.67 1900.71 Q1655.67 1891.96 1660.38 1886.83 Q1665.12 1881.67 1673.14 1881.67 Q1680.34 1881.67 1684.51 1886.32 Q1688.71 1890.94 1688.71 1898.89 M1682.85 1897.17 Q1682.79 1892.37 1680.15 1889.5 Q1677.54 1886.64 1673.21 1886.64 Q1668.31 1886.64 1665.35 1889.41 Q1662.42 1892.18 1661.97 1897.21 L1682.85 1897.17 Z" fill="#000000" fill-rule="nonzero" fill-opacity="1" /><path clip-path="url(#clip300)" d="M1733.11 1868.72 Q1728.84 1876.04 1726.78 1883.2 Q1724.71 1890.36 1724.71 1897.72 Q1724.71 1905.07 1726.78 1912.29 Q1728.88 1919.49 1733.11 1926.78 L1728.02 1926.78 Q1723.24 1919.3 1720.86 1912.07 Q1718.5 1904.85 1718.5 1897.72 Q1718.5 1890.62 1720.86 1883.42 Q1723.21 1876.23 1728.02 1868.72 L1733.11 1868.72 Z" fill="#000000" fill-rule="nonzero" fill-opacity="1" /><path clip-path="url(#clip300)" d="M1774.1 1896.67 L1774.1 1918.18 L1768.25 1918.18 L1768.25 1896.86 Q1768.25 1891.8 1766.28 1889.28 Q1764.3 1886.77 1760.35 1886.77 Q1755.61 1886.77 1752.88 1889.79 Q1750.14 1892.81 1750.14 1898.03 L1750.14 1918.18 L1744.25 1918.18 L1744.25 1868.66 L1750.14 1868.66 L1750.14 1888.07 Q1752.24 1884.86 1755.07 1883.27 Q1757.94 1881.67 1761.66 1881.67 Q1767.8 1881.67 1770.95 1885.49 Q1774.1 1889.28 1774.1 1896.67 Z" fill="#000000" fill-rule="nonzero" fill-opacity="1" /><path clip-path="url(#clip300)" d="M1784.86 1868.72 L1789.96 1868.72 Q1794.73 1876.23 1797.09 1883.42 Q1799.47 1890.62 1799.47 1897.72 Q1799.47 1904.85 1797.09 1912.07 Q1794.73 1919.3 1789.96 1926.78 L1784.86 1926.78 Q1789.1 1919.49 1791.16 1912.29 Q1793.27 1905.07 1793.27 1897.72 Q1793.27 1890.36 1791.16 1883.2 Q1789.1 1876.04 1784.86 1868.72 Z" fill="#000000" fill-rule="nonzero" fill-opacity="1" /><polyline clip-path="url(#clip300)" style="stroke:#000000; stroke-linecap:round; stroke-linejoin:round; stroke-width:4; stroke-opacity:1; fill:none" points="242.171,1761.32 242.171,182.684 "/>
<polyline clip-path="url(#clip300)" style="stroke:#000000; stroke-linecap:round; stroke-linejoin:round; stroke-width:4; stroke-opacity:1; fill:none" points="242.171,1716.64 261.069,1716.64 "/>
<polyline clip-path="url(#clip300)" style="stroke:#000000; stroke-linecap:round; stroke-linejoin:round; stroke-width:4; stroke-opacity:1; fill:none" points="242.171,1324.85 261.069,1324.85 "/>
<polyline clip-path="url(#clip300)" style="stroke:#000000; stroke-linecap:round; stroke-linejoin:round; stroke-width:4; stroke-opacity:1; fill:none" points="242.171,933.06 261.069,933.06 "/>
<polyline clip-path="url(#clip300)" style="stroke:#000000; stroke-linecap:round; stroke-linejoin:round; stroke-width:4; stroke-opacity:1; fill:none" points="242.171,541.27 261.069,541.27 "/>
<path clip-path="url(#clip300)" d="M182.227 1702.44 Q178.616 1702.44 176.787 1706 Q174.981 1709.54 174.981 1716.67 Q174.981 1723.78 176.787 1727.35 Q178.616 1730.89 182.227 1730.89 Q185.861 1730.89 187.666 1727.35 Q189.495 1723.78 189.495 1716.67 Q189.495 1709.54 187.666 1706 Q185.861 1702.44 182.227 1702.44 M182.227 1698.73 Q188.037 1698.73 191.092 1703.34 Q194.171 1707.92 194.171 1716.67 Q194.171 1725.4 191.092 1730.01 Q188.037 1734.59 182.227 1734.59 Q176.417 1734.59 173.338 1730.01 Q170.282 1725.4 170.282 1716.67 Q170.282 1707.92 173.338 1703.34 Q176.417 1698.73 182.227 1698.73 Z" fill="#000000" fill-rule="nonzero" fill-opacity="1" /><path clip-path="url(#clip300)" d="M174.264 1338.19 L181.903 1338.19 L181.903 1311.83 L173.592 1313.5 L173.592 1309.24 L181.856 1307.57 L186.532 1307.57 L186.532 1338.19 L194.171 1338.19 L194.171 1342.13 L174.264 1342.13 L174.264 1338.19 Z" fill="#000000" fill-rule="nonzero" fill-opacity="1" /><path clip-path="url(#clip300)" d="M177.852 946.405 L194.171 946.405 L194.171 950.34 L172.227 950.34 L172.227 946.405 Q174.889 943.65 179.472 939.021 Q184.079 934.368 185.259 933.025 Q187.504 930.502 188.384 928.766 Q189.287 927.007 189.287 925.317 Q189.287 922.562 187.342 920.826 Q185.421 919.09 182.319 919.09 Q180.12 919.09 177.667 919.854 Q175.236 920.618 172.458 922.169 L172.458 917.447 Q175.282 916.312 177.736 915.734 Q180.19 915.155 182.227 915.155 Q187.597 915.155 190.791 917.84 Q193.986 920.525 193.986 925.016 Q193.986 927.146 193.176 929.067 Q192.389 930.965 190.282 933.558 Q189.703 934.229 186.602 937.447 Q183.5 940.641 177.852 946.405 Z" fill="#000000" fill-rule="nonzero" fill-opacity="1" /><path clip-path="url(#clip300)" d="M187.041 539.916 Q190.398 540.634 192.273 542.902 Q194.171 545.171 194.171 548.504 Q194.171 553.62 190.653 556.421 Q187.134 559.222 180.653 559.222 Q178.477 559.222 176.162 558.782 Q173.87 558.365 171.417 557.509 L171.417 552.995 Q173.361 554.129 175.676 554.708 Q177.991 555.286 180.514 555.286 Q184.912 555.286 187.203 553.55 Q189.518 551.814 189.518 548.504 Q189.518 545.448 187.366 543.736 Q185.236 541.999 181.416 541.999 L177.389 541.999 L177.389 538.157 L181.602 538.157 Q185.051 538.157 186.879 536.791 Q188.708 535.402 188.708 532.81 Q188.708 530.148 186.81 528.736 Q184.935 527.3 181.416 527.3 Q179.495 527.3 177.296 527.717 Q175.097 528.134 172.458 529.013 L172.458 524.847 Q175.12 524.106 177.435 523.736 Q179.773 523.365 181.833 523.365 Q187.157 523.365 190.259 525.796 Q193.361 528.203 193.361 532.324 Q193.361 535.194 191.717 537.185 Q190.074 539.152 187.041 539.916 Z" fill="#000000" fill-rule="nonzero" fill-opacity="1" /><path clip-path="url(#clip300)" d="M73.747 1155.62 L79.2215 1155.62 Q77.8528 1158.1 77.1844 1160.62 Q76.4842 1163.1 76.4842 1165.65 Q76.4842 1171.34 80.1127 1174.49 Q83.7093 1177.65 90.2341 1177.65 Q96.759 1177.65 100.387 1174.49 Q103.984 1171.34 103.984 1165.65 Q103.984 1163.1 103.316 1160.62 Q102.615 1158.1 101.247 1155.62 L106.658 1155.62 Q107.803 1158.07 108.376 1160.71 Q108.949 1163.32 108.949 1166.28 Q108.949 1174.33 103.889 1179.08 Q98.8278 1183.82 90.2341 1183.82 Q81.5131 1183.82 76.516 1179.05 Q71.519 1174.24 71.519 1165.9 Q71.519 1163.19 72.0919 1160.62 Q72.633 1158.04 73.747 1155.62 Z" fill="#000000" fill-rule="nonzero" fill-opacity="1" /><path clip-path="url(#clip300)" d="M60.5063 1151.77 L60.5063 1111.57 L65.9171 1111.57 L65.9171 1128.44 L108.026 1128.44 L108.026 1134.9 L65.9171 1134.9 L65.9171 1151.77 L60.5063 1151.77 Z" fill="#000000" fill-rule="nonzero" fill-opacity="1" /><path clip-path="url(#clip300)" d="M86.5102 1075.98 L108.026 1075.98 L108.026 1081.84 L86.7012 1081.84 Q81.6404 1081.84 79.126 1083.81 Q76.6115 1085.79 76.6115 1089.73 Q76.6115 1094.48 79.6352 1097.21 Q82.6589 1099.95 87.8788 1099.95 L108.026 1099.95 L108.026 1105.84 L72.3783 1105.84 L72.3783 1099.95 L77.9165 1099.95 Q74.7018 1097.85 73.1104 1095.02 Q71.519 1092.15 71.519 1088.43 Q71.519 1082.29 75.3384 1079.14 Q79.126 1075.98 86.5102 1075.98 Z" fill="#000000" fill-rule="nonzero" fill-opacity="1" /><path clip-path="url(#clip300)" d="M60.5063 1070.64 L60.5063 1030.44 L65.9171 1030.44 L65.9171 1047.31 L108.026 1047.31 L108.026 1053.77 L65.9171 1053.77 L65.9171 1070.64 L60.5063 1070.64 Z" fill="#000000" fill-rule="nonzero" fill-opacity="1" /><path clip-path="url(#clip300)" d="M58.5011 1004.31 L58.5011 990.812 L63.0526 990.812 L63.0526 998.45 L112.069 998.45 L112.069 990.812 L116.62 990.812 L116.62 1004.31 L58.5011 1004.31 Z" fill="#000000" fill-rule="nonzero" fill-opacity="1" /><path clip-path="url(#clip300)" d="M86.5102 948.702 L108.026 948.702 L108.026 954.559 L86.7012 954.559 Q81.6404 954.559 79.126 956.532 Q76.6115 958.506 76.6115 962.452 Q76.6115 967.195 79.6352 969.932 Q82.6589 972.669 87.8788 972.669 L108.026 972.669 L108.026 978.558 L72.3783 978.558 L72.3783 972.669 L77.9165 972.669 Q74.7018 970.569 73.1104 967.736 Q71.519 964.871 71.519 961.147 Q71.519 955.005 75.3384 951.854 Q79.126 948.702 86.5102 948.702 Z" fill="#000000" fill-rule="nonzero" fill-opacity="1" /><path clip-path="url(#clip300)" d="M89.7885 913.564 Q83.4228 913.564 79.9217 916.206 Q76.4206 918.816 76.4206 923.558 Q76.4206 928.269 79.9217 930.91 Q83.4228 933.52 89.7885 933.52 Q96.1224 933.52 99.6236 930.91 Q103.125 928.269 103.125 923.558 Q103.125 918.816 99.6236 916.206 Q96.1224 913.564 89.7885 913.564 M103.602 907.707 Q112.705 907.707 117.129 911.75 Q121.585 915.792 121.585 924.131 Q121.585 927.218 121.108 929.955 Q120.662 932.693 119.707 935.271 L114.01 935.271 Q115.411 932.693 116.079 930.178 Q116.747 927.664 116.747 925.054 Q116.747 919.293 113.724 916.428 Q110.732 913.564 104.652 913.564 L101.756 913.564 Q104.907 915.378 106.467 918.211 Q108.026 921.044 108.026 924.99 Q108.026 931.547 103.029 935.557 Q98.0321 939.568 89.7885 939.568 Q81.5131 939.568 76.516 935.557 Q71.519 931.547 71.519 924.99 Q71.519 921.044 73.0786 918.211 Q74.6382 915.378 77.7892 913.564 L72.3783 913.564 L72.3783 907.707 L103.602 907.707 Z" fill="#000000" fill-rule="nonzero" fill-opacity="1" /><path clip-path="url(#clip300)" d="M60.5063 885.236 L60.5063 879.826 L114.074 896.376 L114.074 901.787 L60.5063 885.236 Z" fill="#000000" fill-rule="nonzero" fill-opacity="1" /><path clip-path="url(#clip300)" d="M79.2215 845.928 Q75.2747 843.732 73.3968 840.676 Q71.519 837.621 71.519 833.483 Q71.519 827.913 75.4339 824.89 Q79.3169 821.866 86.5102 821.866 L108.026 821.866 L108.026 827.754 L86.7012 827.754 Q81.5768 827.754 79.0941 829.568 Q76.6115 831.383 76.6115 835.106 Q76.6115 839.658 79.6352 842.3 Q82.6589 844.941 87.8788 844.941 L108.026 844.941 L108.026 850.83 L86.7012 850.83 Q81.5449 850.83 79.0941 852.644 Q76.6115 854.458 76.6115 858.246 Q76.6115 862.734 79.6671 865.375 Q82.6908 868.017 87.8788 868.017 L108.026 868.017 L108.026 873.905 L72.3783 873.905 L72.3783 868.017 L77.9165 868.017 Q74.6382 866.012 73.0786 863.211 Q71.519 860.41 71.519 856.559 Q71.519 852.676 73.4923 849.97 Q75.4657 847.233 79.2215 845.928 Z" fill="#000000" fill-rule="nonzero" fill-opacity="1" /><path clip-path="url(#clip300)" d="M60.5063 809.93 L60.5063 803.501 L102.615 803.501 L102.615 780.361 L108.026 780.361 L108.026 809.93 L60.5063 809.93 Z" fill="#000000" fill-rule="nonzero" fill-opacity="1" /><path clip-path="url(#clip300)" d="M58.5011 760.182 L116.62 760.182 L116.62 773.677 L112.069 773.677 L112.069 766.07 L63.0526 766.07 L63.0526 773.677 L58.5011 773.677 L58.5011 760.182 Z" fill="#000000" fill-rule="nonzero" fill-opacity="1" /><path clip-path="url(#clip300)" d="M1052.84 18.8205 L1052.84 41.5461 L1063.13 41.5461 Q1068.84 41.5461 1071.96 38.5889 Q1075.08 35.6318 1075.08 30.163 Q1075.08 24.7348 1071.96 21.7777 Q1068.84 18.8205 1063.13 18.8205 L1052.84 18.8205 M1044.66 12.096 L1063.13 12.096 Q1073.3 12.096 1078.49 16.714 Q1083.71 21.2916 1083.71 30.163 Q1083.71 39.1155 1078.49 43.6931 Q1073.3 48.2706 1063.13 48.2706 L1052.84 48.2706 L1052.84 72.576 L1044.66 72.576 L1044.66 12.096 Z" fill="#000000" fill-rule="nonzero" fill-opacity="1" /><path clip-path="url(#clip300)" d="M1111.26 49.7694 Q1102.22 49.7694 1098.74 51.8354 Q1095.26 53.9013 1095.26 58.8839 Q1095.26 62.8538 1097.85 65.2034 Q1100.48 67.5124 1104.98 67.5124 Q1111.18 67.5124 1114.9 63.1374 Q1118.67 58.7219 1118.67 51.4303 L1118.67 49.7694 L1111.26 49.7694 M1126.12 46.6907 L1126.12 72.576 L1118.67 72.576 L1118.67 65.6895 Q1116.12 69.8214 1112.31 71.8063 Q1108.5 73.7508 1102.99 73.7508 Q1096.03 73.7508 1091.89 69.8619 Q1087.8 65.9325 1087.8 59.3701 Q1087.8 51.7138 1092.91 47.825 Q1098.05 43.9361 1108.22 43.9361 L1118.67 43.9361 L1118.67 43.2069 Q1118.67 38.0623 1115.27 35.2672 Q1111.9 32.4315 1105.79 32.4315 Q1101.9 32.4315 1098.21 33.3632 Q1094.53 34.295 1091.12 36.1584 L1091.12 29.2718 Q1095.22 27.692 1099.06 26.9223 Q1102.91 26.1121 1106.56 26.1121 Q1116.4 26.1121 1121.26 31.2163 Q1126.12 36.3204 1126.12 46.6907 Z" fill="#000000" fill-rule="nonzero" fill-opacity="1" /><path clip-path="url(#clip300)" d="M1148.85 14.324 L1148.85 27.2059 L1164.2 27.2059 L1164.2 32.9987 L1148.85 32.9987 L1148.85 57.6282 Q1148.85 63.1779 1150.35 64.7578 Q1151.89 66.3376 1156.55 66.3376 L1164.2 66.3376 L1164.2 72.576 L1156.55 72.576 Q1147.92 72.576 1144.64 69.3758 Q1141.36 66.1351 1141.36 57.6282 L1141.36 32.9987 L1135.89 32.9987 L1135.89 27.2059 L1141.36 27.2059 L1141.36 14.324 L1148.85 14.324 Z" fill="#000000" fill-rule="nonzero" fill-opacity="1" /><path clip-path="url(#clip300)" d="M1174.01 27.2059 L1181.46 27.2059 L1181.46 72.576 L1174.01 72.576 L1174.01 27.2059 M1174.01 9.54393 L1181.46 9.54393 L1181.46 18.9825 L1174.01 18.9825 L1174.01 9.54393 Z" fill="#000000" fill-rule="nonzero" fill-opacity="1" /><path clip-path="url(#clip300)" d="M1235.86 48.0275 L1235.86 51.6733 L1201.59 51.6733 Q1202.08 59.3701 1206.21 63.421 Q1210.38 67.4314 1217.8 67.4314 Q1222.09 67.4314 1226.1 66.3781 Q1230.15 65.3249 1234.12 63.2184 L1234.12 70.267 Q1230.11 71.9684 1225.9 72.8596 Q1221.68 73.7508 1217.35 73.7508 Q1206.49 73.7508 1200.13 67.4314 Q1193.81 61.1119 1193.81 50.3365 Q1193.81 39.1965 1199.81 32.6746 Q1205.85 26.1121 1216.05 26.1121 Q1225.21 26.1121 1230.52 32.0264 Q1235.86 37.9003 1235.86 48.0275 M1228.41 45.84 Q1228.33 39.7232 1224.97 36.0774 Q1221.64 32.4315 1216.13 32.4315 Q1209.9 32.4315 1206.13 35.9558 Q1202.4 39.4801 1201.84 45.8805 L1228.41 45.84 Z" fill="#000000" fill-rule="nonzero" fill-opacity="1" /><path clip-path="url(#clip300)" d="M1285.81 45.1919 L1285.81 72.576 L1278.36 72.576 L1278.36 45.4349 Q1278.36 38.994 1275.85 35.7938 Q1273.33 32.5936 1268.31 32.5936 Q1262.27 32.5936 1258.79 36.4419 Q1255.31 40.2903 1255.31 46.9338 L1255.31 72.576 L1247.81 72.576 L1247.81 27.2059 L1255.31 27.2059 L1255.31 34.2544 Q1257.98 30.163 1261.59 28.1376 Q1265.23 26.1121 1269.97 26.1121 Q1277.79 26.1121 1281.8 30.9732 Q1285.81 35.7938 1285.81 45.1919 Z" fill="#000000" fill-rule="nonzero" fill-opacity="1" /><path clip-path="url(#clip300)" d="M1308.05 14.324 L1308.05 27.2059 L1323.4 27.2059 L1323.4 32.9987 L1308.05 32.9987 L1308.05 57.6282 Q1308.05 63.1779 1309.55 64.7578 Q1311.09 66.3376 1315.75 66.3376 L1323.4 66.3376 L1323.4 72.576 L1315.75 72.576 Q1307.12 72.576 1303.84 69.3758 Q1300.56 66.1351 1300.56 57.6282 L1300.56 32.9987 L1295.09 32.9987 L1295.09 27.2059 L1300.56 27.2059 L1300.56 14.324 L1308.05 14.324 Z" fill="#000000" fill-rule="nonzero" fill-opacity="1" /><path clip-path="url(#clip300)" d="M1335.11 62.2867 L1343.66 62.2867 L1343.66 72.576 L1335.11 72.576 L1335.11 62.2867 M1335.11 29.6769 L1343.66 29.6769 L1343.66 39.9662 L1335.11 39.9662 L1335.11 29.6769 Z" fill="#000000" fill-rule="nonzero" fill-opacity="1" /><path clip-path="url(#clip300)" d="M1425.24 45.1919 L1425.24 72.576 L1417.79 72.576 L1417.79 45.4349 Q1417.79 38.994 1415.28 35.7938 Q1412.77 32.5936 1407.74 32.5936 Q1401.71 32.5936 1398.22 36.4419 Q1394.74 40.2903 1394.74 46.9338 L1394.74 72.576 L1387.24 72.576 L1387.24 27.2059 L1394.74 27.2059 L1394.74 34.2544 Q1397.41 30.163 1401.02 28.1376 Q1404.66 26.1121 1409.4 26.1121 Q1417.22 26.1121 1421.23 30.9732 Q1425.24 35.7938 1425.24 45.1919 Z" fill="#000000" fill-rule="nonzero" fill-opacity="1" /><path clip-path="url(#clip300)" d="M1442.58 65.6895 L1455.95 65.6895 L1455.95 19.5497 L1441.41 22.4663 L1441.41 15.0127 L1455.87 12.096 L1464.05 12.096 L1464.05 65.6895 L1477.42 65.6895 L1477.42 72.576 L1442.58 72.576 L1442.58 65.6895 Z" fill="#000000" fill-rule="nonzero" fill-opacity="1" /><path clip-path="url(#clip300)" d="M1511.45 17.4837 Q1505.13 17.4837 1501.93 23.7221 Q1498.77 29.92 1498.77 42.3968 Q1498.77 54.833 1501.93 61.0714 Q1505.13 67.2693 1511.45 67.2693 Q1517.81 67.2693 1520.97 61.0714 Q1524.17 54.833 1524.17 42.3968 Q1524.17 29.92 1520.97 23.7221 Q1517.81 17.4837 1511.45 17.4837 M1511.45 11.0023 Q1521.61 11.0023 1526.96 19.0636 Q1532.35 27.0843 1532.35 42.3968 Q1532.35 57.6687 1526.96 65.73 Q1521.61 73.7508 1511.45 73.7508 Q1501.28 73.7508 1495.89 65.73 Q1490.54 57.6687 1490.54 42.3968 Q1490.54 27.0843 1495.89 19.0636 Q1501.28 11.0023 1511.45 11.0023 Z" fill="#000000" fill-rule="nonzero" fill-opacity="1" /><path clip-path="url(#clip300)" d="M1553.78 65.6895 L1582.34 65.6895 L1582.34 72.576 L1543.93 72.576 L1543.93 65.6895 Q1548.59 60.8689 1556.61 52.7671 Q1564.67 44.6248 1566.74 42.2752 Q1570.67 37.8598 1572.21 34.8216 Q1573.79 31.7429 1573.79 28.7857 Q1573.79 23.9651 1570.39 20.927 Q1567.02 17.8888 1561.6 17.8888 Q1557.75 17.8888 1553.45 19.2256 Q1549.2 20.5624 1544.34 23.2765 L1544.34 15.0127 Q1549.28 13.0277 1553.58 12.015 Q1557.87 11.0023 1561.43 11.0023 Q1570.83 11.0023 1576.42 15.7013 Q1582.01 20.4004 1582.01 28.2591 Q1582.01 31.9859 1580.59 35.3482 Q1579.22 38.6699 1575.53 43.2069 Q1574.52 44.3817 1569.09 50.0125 Q1563.66 55.6027 1553.78 65.6895 Z" fill="#000000" fill-rule="nonzero" fill-opacity="1" /><path clip-path="url(#clip300)" d="M1617.01 43.8551 Q1611.18 43.8551 1607.82 46.9743 Q1604.49 50.0935 1604.49 55.5622 Q1604.49 61.0309 1607.82 64.1501 Q1611.18 67.2693 1617.01 67.2693 Q1622.85 67.2693 1626.21 64.1501 Q1629.57 60.9904 1629.57 55.5622 Q1629.57 50.0935 1626.21 46.9743 Q1622.89 43.8551 1617.01 43.8551 M1608.83 40.3713 Q1603.56 39.075 1600.61 35.4697 Q1597.69 31.8644 1597.69 26.6793 Q1597.69 19.4281 1602.83 15.2152 Q1608.02 11.0023 1617.01 11.0023 Q1626.05 11.0023 1631.19 15.2152 Q1636.34 19.4281 1636.34 26.6793 Q1636.34 31.8644 1633.38 35.4697 Q1630.46 39.075 1625.24 40.3713 Q1631.15 41.7486 1634.43 45.759 Q1637.75 49.7694 1637.75 55.5622 Q1637.75 64.3527 1632.37 69.0517 Q1627.02 73.7508 1617.01 73.7508 Q1607.01 73.7508 1601.62 69.0517 Q1596.27 64.3527 1596.27 55.5622 Q1596.27 49.7694 1599.59 45.759 Q1602.92 41.7486 1608.83 40.3713 M1605.83 27.4489 Q1605.83 32.148 1608.75 34.7811 Q1611.71 37.4142 1617.01 37.4142 Q1622.28 37.4142 1625.24 34.7811 Q1628.23 32.148 1628.23 27.4489 Q1628.23 22.7499 1625.24 20.1168 Q1622.28 17.4837 1617.01 17.4837 Q1611.71 17.4837 1608.75 20.1168 Q1605.83 22.7499 1605.83 27.4489 Z" fill="#000000" fill-rule="nonzero" fill-opacity="1" /><path clip-path="url(#clip300)" d="M1687.21 9.17935 L1687.21 92.1419 L1680.33 92.1419 L1680.33 9.17935 L1687.21 9.17935 Z" fill="#000000" fill-rule="nonzero" fill-opacity="1" /><path clip-path="url(#clip300)" d="M1752.47 20.1573 L1735.87 65.7705 L1769.12 65.7705 L1752.47 20.1573 M1724.77 72.576 L1747.86 12.096 L1757.13 12.096 L1780.18 72.576 L1724.77 72.576 Z" fill="#000000" fill-rule="nonzero" fill-opacity="1" /><path clip-path="url(#clip300)" d="M1817.61 28.5427 L1817.61 35.5912 Q1814.45 33.9709 1811.05 33.1607 Q1807.65 32.3505 1804 32.3505 Q1798.45 32.3505 1795.66 34.0519 Q1792.9 35.7533 1792.9 39.156 Q1792.9 41.7486 1794.89 43.2475 Q1796.87 44.7058 1802.87 46.0426 L1805.42 46.6097 Q1813.36 48.3111 1816.68 51.4303 Q1820.04 54.509 1820.04 60.0587 Q1820.04 66.3781 1815.02 70.0644 Q1810.04 73.7508 1801.29 73.7508 Q1797.64 73.7508 1793.67 73.0216 Q1789.74 72.3329 1785.37 70.9151 L1785.37 63.2184 Q1789.5 65.3654 1793.51 66.4591 Q1797.52 67.5124 1801.45 67.5124 Q1806.72 67.5124 1809.55 65.73 Q1812.39 63.9071 1812.39 60.6258 Q1812.39 57.5877 1810.32 55.9673 Q1808.3 54.3469 1801.37 52.8481 L1798.78 52.2405 Q1791.85 50.7821 1788.77 47.7845 Q1785.69 44.7463 1785.69 39.4801 Q1785.69 33.0797 1790.23 29.5959 Q1794.77 26.1121 1803.11 26.1121 Q1807.24 26.1121 1810.89 26.7198 Q1814.53 27.3274 1817.61 28.5427 Z" fill="#000000" fill-rule="nonzero" fill-opacity="1" /><path clip-path="url(#clip300)" d="M1832.24 12.096 L1844.43 12.096 L1859.86 53.2532 L1875.38 12.096 L1887.57 12.096 L1887.57 72.576 L1879.59 72.576 L1879.59 19.4686 L1864 60.9499 L1855.77 60.9499 L1840.18 19.4686 L1840.18 72.576 L1832.24 72.576 L1832.24 12.096 Z" fill="#000000" fill-rule="nonzero" fill-opacity="1" /><path clip-path="url(#clip300)" d="M1924.03 20.1573 L1912.93 50.2555 L1935.17 50.2555 L1924.03 20.1573 M1919.41 12.096 L1928.69 12.096 L1951.74 72.576 L1943.23 72.576 L1937.72 57.061 L1910.46 57.061 L1904.95 72.576 L1896.32 72.576 L1919.41 12.096 Z" fill="#000000" fill-rule="nonzero" fill-opacity="1" /><path clip-path="url(#clip300)" d="M1968.75 18.8205 L1968.75 41.5461 L1979.04 41.5461 Q1984.75 41.5461 1987.87 38.5889 Q1990.99 35.6318 1990.99 30.163 Q1990.99 24.7348 1987.87 21.7777 Q1984.75 18.8205 1979.04 18.8205 L1968.75 18.8205 M1960.57 12.096 L1979.04 12.096 Q1989.21 12.096 1994.39 16.714 Q1999.62 21.2916 1999.62 30.163 Q1999.62 39.1155 1994.39 43.6931 Q1989.21 48.2706 1979.04 48.2706 L1968.75 48.2706 L1968.75 72.576 L1960.57 72.576 L1960.57 12.096 Z" fill="#000000" fill-rule="nonzero" fill-opacity="1" /><path clip-path="url(#clip300)" d="M2010.6 12.096 L2048.84 12.096 L2048.84 18.9825 L2018.78 18.9825 L2018.78 36.8875 L2047.58 36.8875 L2047.58 43.7741 L2018.78 43.7741 L2018.78 65.6895 L2049.57 65.6895 L2049.57 72.576 L2010.6 72.576 L2010.6 12.096 Z" fill="#000000" fill-rule="nonzero" fill-opacity="1" /><path clip-path="url(#clip300)" d="M2064.6 62.2867 L2073.14 62.2867 L2073.14 72.576 L2064.6 72.576 L2064.6 62.2867 M2064.6 29.6769 L2073.14 29.6769 L2073.14 39.9662 L2064.6 39.9662 L2064.6 29.6769 Z" fill="#000000" fill-rule="nonzero" fill-opacity="1" /><path clip-path="url(#clip300)" d="M2135.57 43.8551 Q2129.74 43.8551 2126.37 46.9743 Q2123.05 50.0935 2123.05 55.5622 Q2123.05 61.0309 2126.37 64.1501 Q2129.74 67.2693 2135.57 67.2693 Q2141.4 67.2693 2144.76 64.1501 Q2148.13 60.9904 2148.13 55.5622 Q2148.13 50.0935 2144.76 46.9743 Q2141.44 43.8551 2135.57 43.8551 M2127.39 40.3713 Q2122.12 39.075 2119.16 35.4697 Q2116.25 31.8644 2116.25 26.6793 Q2116.25 19.4281 2121.39 15.2152 Q2126.58 11.0023 2135.57 11.0023 Q2144.6 11.0023 2149.75 15.2152 Q2154.89 19.4281 2154.89 26.6793 Q2154.89 31.8644 2151.93 35.4697 Q2149.02 39.075 2143.79 40.3713 Q2149.71 41.7486 2152.99 45.759 Q2156.31 49.7694 2156.31 55.5622 Q2156.31 64.3527 2150.92 69.0517 Q2145.57 73.7508 2135.57 73.7508 Q2125.56 73.7508 2120.18 69.0517 Q2114.83 64.3527 2114.83 55.5622 Q2114.83 49.7694 2118.15 45.759 Q2121.47 41.7486 2127.39 40.3713 M2124.39 27.4489 Q2124.39 32.148 2127.3 34.7811 Q2130.26 37.4142 2135.57 37.4142 Q2140.83 37.4142 2143.79 34.7811 Q2146.79 32.148 2146.79 27.4489 Q2146.79 22.7499 2143.79 20.1168 Q2140.83 17.4837 2135.57 17.4837 Q2130.26 17.4837 2127.3 20.1168 Q2124.39 22.7499 2124.39 27.4489 Z" fill="#000000" fill-rule="nonzero" fill-opacity="1" /><path clip-path="url(#clip300)" d="M2170.85 62.2867 L2179.4 62.2867 L2179.4 72.576 L2170.85 72.576 L2170.85 62.2867 Z" fill="#000000" fill-rule="nonzero" fill-opacity="1" /><path clip-path="url(#clip300)" d="M2215.74 39.075 Q2210.23 39.075 2206.99 42.8424 Q2203.79 46.6097 2203.79 53.1722 Q2203.79 59.6941 2206.99 63.502 Q2210.23 67.2693 2215.74 67.2693 Q2221.25 67.2693 2224.45 63.502 Q2227.69 59.6941 2227.69 53.1722 Q2227.69 46.6097 2224.45 42.8424 Q2221.25 39.075 2215.74 39.075 M2231.98 13.4328 L2231.98 20.8865 Q2228.9 19.4281 2225.74 18.6585 Q2222.62 17.8888 2219.54 17.8888 Q2211.44 17.8888 2207.15 23.3575 Q2202.89 28.8262 2202.29 39.8852 Q2204.68 36.3609 2208.28 34.4975 Q2211.89 32.5936 2216.22 32.5936 Q2225.34 32.5936 2230.6 38.1433 Q2235.91 43.6525 2235.91 53.1722 Q2235.91 62.4892 2230.4 68.12 Q2224.89 73.7508 2215.74 73.7508 Q2205.24 73.7508 2199.69 65.73 Q2194.14 57.6687 2194.14 42.3968 Q2194.14 28.0566 2200.95 19.5497 Q2207.76 11.0023 2219.22 11.0023 Q2222.3 11.0023 2225.42 11.6099 Q2228.58 12.2175 2231.98 13.4328 Z" fill="#000000" fill-rule="nonzero" fill-opacity="1" /><path clip-path="url(#clip300)" d="M2274.8 39.9662 Q2280.67 41.222 2283.95 45.1919 Q2287.27 49.1618 2287.27 54.9951 Q2287.27 63.9476 2281.12 68.8492 Q2274.96 73.7508 2263.62 73.7508 Q2259.81 73.7508 2255.76 72.9811 Q2251.75 72.2519 2247.45 70.7531 L2247.45 62.8538 Q2250.86 64.8388 2254.91 65.8515 Q2258.96 66.8642 2263.37 66.8642 Q2271.07 66.8642 2275.08 63.826 Q2279.13 60.7879 2279.13 54.9951 Q2279.13 49.6479 2275.37 46.6502 Q2271.64 43.612 2264.95 43.612 L2257.91 43.612 L2257.91 36.8875 L2265.28 36.8875 Q2271.31 36.8875 2274.51 34.4975 Q2277.71 32.067 2277.71 27.5299 Q2277.71 22.8714 2274.39 20.4004 Q2271.11 17.8888 2264.95 17.8888 Q2261.59 17.8888 2257.74 18.618 Q2253.9 19.3471 2249.28 20.8865 L2249.28 13.5948 Q2253.94 12.2985 2257.99 11.6504 Q2262.08 11.0023 2265.68 11.0023 Q2275 11.0023 2280.43 15.2557 Q2285.86 19.4686 2285.86 26.6793 Q2285.86 31.7024 2282.98 35.1862 Q2280.1 38.6294 2274.8 39.9662 Z" fill="#000000" fill-rule="nonzero" fill-opacity="1" /><circle clip-path="url(#clip302)" cx="536.709" cy="1140.71" r="21.6" fill="#ff0000" fill-rule="evenodd" fill-opacity="1" stroke="#000000" stroke-opacity="1" stroke-width="6"/>
<circle clip-path="url(#clip302)" cx="842.802" cy="357.129" r="21.6" fill="#ff0000" fill-rule="evenodd" fill-opacity="1" stroke="#000000" stroke-opacity="1" stroke-width="6"/>
<circle clip-path="url(#clip302)" cx="906.21" cy="364.965" r="21.6" fill="#ff0000" fill-rule="evenodd" fill-opacity="1" stroke="#000000" stroke-opacity="1" stroke-width="6"/>
<circle clip-path="url(#clip302)" cx="1581.35" cy="600.039" r="21.6" fill="#ff0000" fill-rule="evenodd" fill-opacity="1" stroke="#000000" stroke-opacity="1" stroke-width="6"/>
<circle clip-path="url(#clip302)" cx="1791.19" cy="713.658" r="21.6" fill="#ff0000" fill-rule="evenodd" fill-opacity="1" stroke="#000000" stroke-opacity="1" stroke-width="6"/>
<circle clip-path="url(#clip302)" cx="2231.39" cy="470.748" r="21.6" fill="#ff0000" fill-rule="evenodd" fill-opacity="1" stroke="#000000" stroke-opacity="1" stroke-width="6"/>
<circle clip-path="url(#clip302)" cx="2461.76" cy="396.308" r="21.6" fill="#ff0000" fill-rule="evenodd" fill-opacity="1" stroke="#000000" stroke-opacity="1" stroke-width="6"/>
<polyline clip-path="url(#clip302)" style="stroke:#0000ff; stroke-linecap:round; stroke-linejoin:round; stroke-width:8; stroke-opacity:1; fill:none" points="322.763,1716.64 350.134,1716.25 377.504,1713 404.875,1698.67 432.245,1660.79 459.615,1585.66 486.986,1464.08 514.356,1298.07 541.727,1104.19 569.097,909.405 596.468,740.35 623.838,612.983 651.209,529.184 678.579,480.762 705.949,456.162 733.32,445.36 760.69,441.602 788.061,441.081 815.431,441.921 842.802,443.294 870.172,444.863 897.542,446.501 924.913,448.163 952.283,449.833 979.654,451.505 1007.02,453.179 1034.39,454.853 1061.77,456.525 1089.14,458.197 1116.51,459.867 1143.88,461.535 1171.25,463.203 1198.62,464.868 1225.99,466.533 1253.36,468.195 1280.73,469.855 1308.1,471.513 1335.47,473.169 1362.84,474.824 1390.21,476.476 1417.58,478.127 1444.95,479.775 1472.32,481.422 1499.69,483.065 1527.06,484.707 1554.43,486.347 1581.8,487.986 1609.17,489.622 1636.54,491.255 1663.91,492.887 1691.29,494.516 1718.66,496.143 1746.03,497.768 1773.4,499.392 1800.77,501.013 1828.14,502.632 1855.51,504.248 1882.88,505.862 1910.25,507.474 1937.62,509.085 1964.99,510.693 1992.36,512.3 2019.73,513.904 2047.1,515.505 2074.47,517.105 2101.84,518.702 2129.21,520.298 2156.58,521.891 2183.95,523.483 2211.32,525.072 2238.69,526.659 2266.06,528.243 2293.43,529.826 2320.81,531.407 2348.18,532.986 2375.55,534.563 2402.92,536.137 2430.29,537.709 2457.66,539.279 2485.03,540.847 2512.4,542.413 2539.77,543.977 2567.14,545.54 2594.51,547.099 2621.88,548.657 2649.25,550.212 2676.62,551.766 2703.99,553.318 2731.36,554.867 2758.73,556.415 2786.1,557.96 2813.47,559.503 2840.84,561.044 2868.21,562.583 2895.58,564.121 2922.95,565.656 2950.33,567.189 2977.7,568.72 3005.07,570.249 3009.17,570.478 "/>
<polyline clip-path="url(#clip302)" style="stroke:#ff8c00; stroke-linecap:round; stroke-linejoin:round; stroke-width:8; stroke-opacity:1; fill:none" stroke-dasharray="32, 20" points="322.763,1716.64 350.134,1515.37 377.504,1430.07 404.875,1369.84 432.245,1315.9 459.615,1264.03 486.986,1212.99 514.356,1162.21 541.727,1111.32 569.097,1060.12 596.468,1008.5 623.838,956.508 651.209,904.288 678.579,852.103 705.949,800.291 733.32,749.24 760.69,699.362 788.061,651.061 815.431,604.711 842.802,560.641 870.172,519.121 897.542,480.357 924.913,444.495 952.283,411.619 979.654,381.759 1007.02,354.9 1034.39,330.987 1061.77,309.932 1089.14,291.627 1116.51,275.943 1143.88,262.741 1171.25,251.875 1198.62,243.193 1225.99,236.546 1253.36,231.787 1280.73,228.771 1308.1,227.363 1335.47,227.429 1362.84,228.847 1390.21,231.501 1417.58,235.283 1444.95,240.093 1472.32,245.838 1499.69,252.432 1527.06,259.798 1554.43,267.864 1581.8,276.565 1609.17,285.841 1636.54,295.64 1663.91,305.912 1691.29,316.613 1718.66,327.704 1746.03,339.15 1773.4,350.918 1800.77,362.979 1828.14,375.306 1855.51,387.88 1882.88,400.676 1910.25,413.677 1937.62,426.865 1964.99,440.228 1992.36,453.751 2019.73,467.421 2047.1,481.229 2074.47,495.164 2101.84,509.219 2129.21,523.384 2156.58,537.652 2183.95,552.018 2211.32,566.476 2238.69,581.019 2266.06,595.642 2293.43,610.34 2320.81,625.111 2348.18,639.948 2375.55,654.847 2402.92,669.804 2430.29,684.816 2457.66,699.878 2485.03,714.987 2512.4,730.137 2539.77,745.325 2567.14,760.547 2594.51,775.798 2621.88,791.074 2649.25,806.371 2676.62,821.682 2703.99,837.004 2731.36,852.33 2758.73,867.657 2786.1,882.978 2813.47,898.287 2840.84,913.578 2868.21,928.845 2895.58,944.082 2922.95,959.281 2950.33,974.436 2977.7,989.541 3005.07,1004.59 3009.17,1006.84 "/>
<path clip-path="url(#clip300)" d="M1530.91 450.056 Q1525.18 450.056 1521.79 454.327 Q1518.43 458.598 1518.43 465.968 Q1518.43 473.311 1521.79 477.582 Q1525.18 481.853 1530.91 481.853 Q1536.63 481.853 1539.97 477.582 Q1543.33 473.311 1543.33 465.968 Q1543.33 458.598 1539.97 454.327 Q1536.63 450.056 1530.91 450.056 M1530.91 445.785 Q1539.08 445.785 1543.98 451.28 Q1548.87 456.749 1548.87 465.968 Q1548.87 475.16 1543.98 480.655 Q1539.08 486.124 1530.91 486.124 Q1522.7 486.124 1517.78 480.655 Q1512.88 475.186 1512.88 465.968 Q1512.88 456.749 1517.78 451.28 Q1522.7 445.785 1530.91 445.785 Z" fill="#000000" fill-rule="nonzero" fill-opacity="1" /><path clip-path="url(#clip300)" d="M1562.36 450.812 L1562.36 481.046 L1568.72 481.046 Q1576.76 481.046 1580.49 477.4 Q1584.24 473.754 1584.24 465.89 Q1584.24 458.077 1580.49 454.457 Q1576.76 450.812 1568.72 450.812 L1562.36 450.812 M1557.1 446.489 L1567.91 446.489 Q1579.21 446.489 1584.5 451.202 Q1589.79 455.89 1589.79 465.89 Q1589.79 475.942 1584.47 480.655 Q1579.16 485.369 1567.91 485.369 L1557.1 485.369 L1557.1 446.489 Z" fill="#000000" fill-rule="nonzero" fill-opacity="1" /><path clip-path="url(#clip300)" d="M1598.17 446.489 L1622.75 446.489 L1622.75 450.916 L1603.43 450.916 L1603.43 462.426 L1621.95 462.426 L1621.95 466.853 L1603.43 466.853 L1603.43 480.942 L1623.22 480.942 L1623.22 485.369 L1598.17 485.369 L1598.17 446.489 Z" fill="#000000" fill-rule="nonzero" fill-opacity="1" /><path clip-path="url(#clip300)" d="M1660.12 444.9 Q1656.63 450.89 1654.94 456.749 Q1653.25 462.608 1653.25 468.624 Q1653.25 474.64 1654.94 480.551 Q1656.66 486.436 1660.12 492.4 L1655.96 492.4 Q1652.05 486.28 1650.1 480.369 Q1648.17 474.457 1648.17 468.624 Q1648.17 462.817 1650.1 456.931 Q1652.02 451.046 1655.96 444.9 L1660.12 444.9 Z" fill="#000000" fill-rule="nonzero" fill-opacity="1" /><path clip-path="url(#clip300)" d="M1674.89 466.801 L1674.89 481.046 L1683.33 481.046 Q1687.57 481.046 1689.6 479.301 Q1691.66 477.53 1691.66 473.91 Q1691.66 470.265 1689.6 468.546 Q1687.57 466.801 1683.33 466.801 L1674.89 466.801 M1674.89 450.812 L1674.89 462.53 L1682.68 462.53 Q1686.53 462.53 1688.4 461.098 Q1690.31 459.64 1690.31 456.671 Q1690.31 453.728 1688.4 452.27 Q1686.53 450.812 1682.68 450.812 L1674.89 450.812 M1669.63 446.489 L1683.07 446.489 Q1689.08 446.489 1692.34 448.989 Q1695.59 451.489 1695.59 456.098 Q1695.59 459.666 1693.93 461.775 Q1692.26 463.884 1689.03 464.405 Q1692.91 465.239 1695.05 467.895 Q1697.21 470.525 1697.21 474.483 Q1697.21 479.692 1693.67 482.53 Q1690.12 485.369 1683.59 485.369 L1669.63 485.369 L1669.63 446.489 Z" fill="#000000" fill-rule="nonzero" fill-opacity="1" /><path clip-path="url(#clip300)" d="M1706.01 444.848 L1710.8 444.848 L1710.8 485.369 L1706.01 485.369 L1706.01 444.848 Z" fill="#000000" fill-rule="nonzero" fill-opacity="1" /><path clip-path="url(#clip300)" d="M1720.33 473.858 L1720.33 456.202 L1725.12 456.202 L1725.12 473.676 Q1725.12 477.817 1726.74 479.9 Q1728.35 481.957 1731.58 481.957 Q1735.46 481.957 1737.7 479.483 Q1739.97 477.009 1739.97 472.738 L1739.97 456.202 L1744.76 456.202 L1744.76 485.369 L1739.97 485.369 L1739.97 480.889 Q1738.22 483.546 1735.9 484.848 Q1733.61 486.124 1730.57 486.124 Q1725.54 486.124 1722.94 482.999 Q1720.33 479.874 1720.33 473.858 M1732.39 455.499 L1732.39 455.499 Z" fill="#000000" fill-rule="nonzero" fill-opacity="1" /><path clip-path="url(#clip300)" d="M1779.58 469.587 L1779.58 471.931 L1757.54 471.931 Q1757.86 476.879 1760.51 479.483 Q1763.2 482.061 1767.96 482.061 Q1770.72 482.061 1773.3 481.384 Q1775.9 480.707 1778.46 479.353 L1778.46 483.884 Q1775.88 484.978 1773.17 485.551 Q1770.46 486.124 1767.68 486.124 Q1760.7 486.124 1756.61 482.061 Q1752.54 477.999 1752.54 471.072 Q1752.54 463.91 1756.4 459.718 Q1760.28 455.499 1766.84 455.499 Q1772.73 455.499 1776.14 459.301 Q1779.58 463.077 1779.58 469.587 M1774.78 468.181 Q1774.73 464.249 1772.57 461.905 Q1770.44 459.561 1766.89 459.561 Q1762.88 459.561 1760.46 461.827 Q1758.07 464.093 1757.7 468.207 L1774.78 468.181 Z" fill="#000000" fill-rule="nonzero" fill-opacity="1" /><path clip-path="url(#clip300)" d="M1786.69 444.9 L1790.85 444.9 Q1794.76 451.046 1796.69 456.931 Q1798.64 462.817 1798.64 468.624 Q1798.64 474.457 1796.69 480.369 Q1794.76 486.28 1790.85 492.4 L1786.69 492.4 Q1790.15 486.436 1791.84 480.551 Q1793.56 474.64 1793.56 468.624 Q1793.56 462.608 1791.84 456.749 Q1790.15 450.89 1786.69 444.9 Z" fill="#000000" fill-rule="nonzero" fill-opacity="1" /><path clip-path="url(#clip300)" d="M1809.47 478.754 L1814.97 478.754 L1814.97 485.369 L1809.47 485.369 L1809.47 478.754 M1809.47 457.791 L1814.97 457.791 L1814.97 464.405 L1809.47 464.405 L1809.47 457.791 Z" fill="#000000" fill-rule="nonzero" fill-opacity="1" /><path clip-path="url(#clip300)" d="M1861.76 457.061 L1861.76 461.593 Q1859.73 460.551 1857.54 460.03 Q1855.36 459.509 1853.01 459.509 Q1849.45 459.509 1847.65 460.603 Q1845.88 461.697 1845.88 463.884 Q1845.88 465.551 1847.15 466.515 Q1848.43 467.452 1852.28 468.311 L1853.92 468.676 Q1859.03 469.77 1861.16 471.775 Q1863.33 473.754 1863.33 477.322 Q1863.33 481.384 1860.1 483.754 Q1856.89 486.124 1851.27 486.124 Q1848.92 486.124 1846.37 485.655 Q1843.85 485.212 1841.03 484.301 L1841.03 479.353 Q1843.69 480.733 1846.27 481.436 Q1848.85 482.113 1851.37 482.113 Q1854.76 482.113 1856.58 480.968 Q1858.4 479.796 1858.4 477.686 Q1858.4 475.733 1857.08 474.692 Q1855.77 473.65 1851.32 472.686 L1849.65 472.296 Q1845.2 471.358 1843.22 469.431 Q1841.24 467.478 1841.24 464.093 Q1841.24 459.978 1844.16 457.739 Q1847.08 455.499 1852.44 455.499 Q1855.1 455.499 1857.44 455.89 Q1859.78 456.28 1861.76 457.061 Z" fill="#000000" fill-rule="nonzero" fill-opacity="1" /><path clip-path="url(#clip300)" d="M1871.16 446.489 L1879 446.489 L1888.92 472.947 L1898.9 446.489 L1906.74 446.489 L1906.74 485.369 L1901.61 485.369 L1901.61 451.228 L1891.58 477.895 L1886.29 477.895 L1876.27 451.228 L1876.27 485.369 L1871.16 485.369 L1871.16 446.489 Z" fill="#000000" fill-rule="nonzero" fill-opacity="1" /><path clip-path="url(#clip300)" d="M1930.17 451.671 L1923.04 471.02 L1937.34 471.02 L1930.17 451.671 M1927.21 446.489 L1933.17 446.489 L1947.99 485.369 L1942.52 485.369 L1938.98 475.395 L1921.45 475.395 L1917.91 485.369 L1912.36 485.369 L1927.21 446.489 Z" fill="#000000" fill-rule="nonzero" fill-opacity="1" /><path clip-path="url(#clip300)" d="M1958.92 450.812 L1958.92 465.421 L1965.54 465.421 Q1969.21 465.421 1971.22 463.52 Q1973.22 461.619 1973.22 458.103 Q1973.22 454.614 1971.22 452.713 Q1969.21 450.812 1965.54 450.812 L1958.92 450.812 M1953.66 446.489 L1965.54 446.489 Q1972.08 446.489 1975.41 449.457 Q1978.77 452.4 1978.77 458.103 Q1978.77 463.858 1975.41 466.801 Q1972.08 469.744 1965.54 469.744 L1958.92 469.744 L1958.92 485.369 L1953.66 485.369 L1953.66 446.489 Z" fill="#000000" fill-rule="nonzero" fill-opacity="1" /><path clip-path="url(#clip300)" d="M1985.82 446.489 L2010.41 446.489 L2010.41 450.916 L1991.09 450.916 L1991.09 462.426 L2009.6 462.426 L2009.6 466.853 L1991.09 466.853 L1991.09 480.942 L2010.88 480.942 L2010.88 485.369 L1985.82 485.369 L1985.82 446.489 Z" fill="#000000" fill-rule="nonzero" fill-opacity="1" /><path clip-path="url(#clip300)" d="M2048.19 466.905 Q2044.44 466.905 2042.28 468.91 Q2040.15 470.916 2040.15 474.431 Q2040.15 477.947 2042.28 479.952 Q2044.44 481.957 2048.19 481.957 Q2051.94 481.957 2054.11 479.952 Q2056.27 477.921 2056.27 474.431 Q2056.27 470.916 2054.11 468.91 Q2051.97 466.905 2048.19 466.905 M2042.93 464.666 Q2039.55 463.832 2037.65 461.515 Q2035.77 459.197 2035.77 455.864 Q2035.77 451.202 2039.08 448.494 Q2042.41 445.785 2048.19 445.785 Q2054 445.785 2057.31 448.494 Q2060.62 451.202 2060.62 455.864 Q2060.62 459.197 2058.72 461.515 Q2056.84 463.832 2053.48 464.666 Q2057.28 465.551 2059.39 468.129 Q2061.53 470.707 2061.53 474.431 Q2061.53 480.082 2058.06 483.103 Q2054.63 486.124 2048.19 486.124 Q2041.76 486.124 2038.3 483.103 Q2034.86 480.082 2034.86 474.431 Q2034.86 470.707 2037 468.129 Q2039.13 465.551 2042.93 464.666 M2041.01 456.358 Q2041.01 459.379 2042.88 461.072 Q2044.78 462.765 2048.19 462.765 Q2051.58 462.765 2053.48 461.072 Q2055.41 459.379 2055.41 456.358 Q2055.41 453.338 2053.48 451.645 Q2051.58 449.952 2048.19 449.952 Q2044.78 449.952 2042.88 451.645 Q2041.01 453.338 2041.01 456.358 Z" fill="#000000" fill-rule="nonzero" fill-opacity="1" /><path clip-path="url(#clip300)" d="M2070.88 478.754 L2076.37 478.754 L2076.37 485.369 L2070.88 485.369 L2070.88 478.754 Z" fill="#000000" fill-rule="nonzero" fill-opacity="1" /><path clip-path="url(#clip300)" d="M2092.36 480.942 L2110.72 480.942 L2110.72 485.369 L2086.03 485.369 L2086.03 480.942 Q2089.03 477.843 2094.18 472.634 Q2099.37 467.4 2100.69 465.89 Q2103.22 463.051 2104.21 461.098 Q2105.23 459.119 2105.23 457.218 Q2105.23 454.119 2103.04 452.166 Q2100.88 450.213 2097.39 450.213 Q2094.91 450.213 2092.15 451.072 Q2089.42 451.931 2086.29 453.676 L2086.29 448.364 Q2089.47 447.088 2092.23 446.437 Q2094.99 445.785 2097.28 445.785 Q2103.32 445.785 2106.92 448.806 Q2110.51 451.827 2110.51 456.879 Q2110.51 459.275 2109.6 461.436 Q2108.71 463.572 2106.35 466.489 Q2105.69 467.244 2102.2 470.863 Q2098.71 474.457 2092.36 480.942 Z" fill="#000000" fill-rule="nonzero" fill-opacity="1" /><path clip-path="url(#clip300)" d="M2121.81 446.489 L2142.46 446.489 L2142.46 450.916 L2126.63 450.916 L2126.63 460.447 Q2127.78 460.056 2128.92 459.874 Q2130.07 459.666 2131.21 459.666 Q2137.73 459.666 2141.53 463.233 Q2145.33 466.801 2145.33 472.895 Q2145.33 479.171 2141.42 482.66 Q2137.52 486.124 2130.41 486.124 Q2127.96 486.124 2125.41 485.707 Q2122.88 485.29 2120.17 484.457 L2120.17 479.171 Q2122.52 480.447 2125.02 481.072 Q2127.52 481.697 2130.3 481.697 Q2134.81 481.697 2137.44 479.327 Q2140.07 476.957 2140.07 472.895 Q2140.07 468.832 2137.44 466.462 Q2134.81 464.093 2130.3 464.093 Q2128.19 464.093 2126.08 464.561 Q2124 465.03 2121.81 466.02 L2121.81 446.489 Z" fill="#000000" fill-rule="nonzero" fill-opacity="1" /><path clip-path="url(#clip300)" d="M2188.77 468.259 Q2186.5 468.259 2185.2 470.186 Q2183.92 472.113 2183.92 475.551 Q2183.92 478.936 2185.2 480.889 Q2186.5 482.817 2188.77 482.817 Q2190.98 482.817 2192.26 480.889 Q2193.56 478.936 2193.56 475.551 Q2193.56 472.14 2192.26 470.212 Q2190.98 468.259 2188.77 468.259 M2188.77 464.952 Q2192.88 464.952 2195.3 467.817 Q2197.72 470.681 2197.72 475.551 Q2197.72 480.421 2195.28 483.285 Q2192.86 486.124 2188.77 486.124 Q2184.6 486.124 2182.18 483.285 Q2179.76 480.421 2179.76 475.551 Q2179.76 470.655 2182.18 467.817 Q2184.63 464.952 2188.77 464.952 M2161.89 449.093 Q2159.65 449.093 2158.35 451.046 Q2157.07 452.973 2157.07 456.358 Q2157.07 459.796 2158.35 461.723 Q2159.63 463.65 2161.89 463.65 Q2164.16 463.65 2165.43 461.723 Q2166.74 459.796 2166.74 456.358 Q2166.74 452.999 2165.43 451.046 Q2164.13 449.093 2161.89 449.093 M2185.41 445.785 L2189.57 445.785 L2165.25 486.124 L2161.08 486.124 L2185.41 445.785 M2161.89 445.785 Q2166.01 445.785 2168.45 448.65 Q2170.9 451.489 2170.9 456.358 Q2170.9 461.28 2168.45 464.119 Q2166.03 466.957 2161.89 466.957 Q2157.75 466.957 2155.33 464.119 Q2152.93 461.254 2152.93 456.358 Q2152.93 451.515 2155.36 448.65 Q2157.78 445.785 2161.89 445.785 Z" fill="#000000" fill-rule="nonzero" fill-opacity="1" /><path clip-path="url(#clip300)" d="M2206.92 478.754 L2212.41 478.754 L2212.41 483.233 L2208.14 491.567 L2204.78 491.567 L2206.92 483.233 L2206.92 478.754 Z" fill="#000000" fill-rule="nonzero" fill-opacity="1" /><path clip-path="url(#clip300)" d="M2258.25 467.14 Q2259.94 467.712 2261.53 469.587 Q2263.14 471.462 2264.76 474.744 L2270.09 485.369 L2264.44 485.369 L2259.47 475.395 Q2257.54 471.488 2255.72 470.212 Q2253.92 468.936 2250.8 468.936 L2245.07 468.936 L2245.07 485.369 L2239.81 485.369 L2239.81 446.489 L2251.68 446.489 Q2258.35 446.489 2261.63 449.275 Q2264.91 452.062 2264.91 457.686 Q2264.91 461.358 2263.19 463.78 Q2261.5 466.202 2258.25 467.14 M2245.07 450.812 L2245.07 464.614 L2251.68 464.614 Q2255.48 464.614 2257.41 462.869 Q2259.37 461.098 2259.37 457.686 Q2259.37 454.275 2257.41 452.556 Q2255.48 450.812 2251.68 450.812 L2245.07 450.812 Z" fill="#000000" fill-rule="nonzero" fill-opacity="1" /><path clip-path="url(#clip300)" d="M2276.87 446.489 L2284.7 446.489 L2294.63 472.947 L2304.6 446.489 L2312.44 446.489 L2312.44 485.369 L2307.31 485.369 L2307.31 451.228 L2297.28 477.895 L2292 477.895 L2281.97 451.228 L2281.97 485.369 L2276.87 485.369 L2276.87 446.489 Z" fill="#000000" fill-rule="nonzero" fill-opacity="1" /><path clip-path="url(#clip300)" d="M2346.19 447.765 L2346.19 452.895 Q2343.19 451.463 2340.54 450.759 Q2337.88 450.056 2335.41 450.056 Q2331.11 450.056 2328.77 451.723 Q2326.45 453.39 2326.45 456.463 Q2326.45 459.041 2327.98 460.369 Q2329.55 461.671 2333.87 462.478 L2337.05 463.129 Q2342.93 464.249 2345.72 467.087 Q2348.53 469.9 2348.53 474.64 Q2348.53 480.291 2344.73 483.207 Q2340.95 486.124 2333.64 486.124 Q2330.88 486.124 2327.75 485.499 Q2324.65 484.874 2321.32 483.65 L2321.32 478.233 Q2324.52 480.03 2327.59 480.942 Q2330.67 481.853 2333.64 481.853 Q2338.14 481.853 2340.59 480.082 Q2343.04 478.311 2343.04 475.03 Q2343.04 472.166 2341.27 470.551 Q2339.52 468.936 2335.51 468.129 L2332.31 467.504 Q2326.42 466.332 2323.79 463.832 Q2321.16 461.332 2321.16 456.879 Q2321.16 451.723 2324.78 448.754 Q2328.43 445.785 2334.81 445.785 Q2337.54 445.785 2340.38 446.28 Q2343.22 446.775 2346.19 447.765 Z" fill="#000000" fill-rule="nonzero" fill-opacity="1" /><path clip-path="url(#clip300)" d="M2356.73 446.489 L2361.99 446.489 L2361.99 480.942 L2380.93 480.942 L2380.93 485.369 L2356.73 485.369 L2356.73 446.489 Z" fill="#000000" fill-rule="nonzero" fill-opacity="1" /><path clip-path="url(#clip300)" d="M2386.45 446.489 L2411.03 446.489 L2411.03 450.916 L2391.71 450.916 L2391.71 462.426 L2410.22 462.426 L2410.22 466.853 L2391.71 466.853 L2391.71 480.942 L2411.5 480.942 L2411.5 485.369 L2386.45 485.369 L2386.45 446.489 Z" fill="#000000" fill-rule="nonzero" fill-opacity="1" /><path clip-path="url(#clip300)" d="M2448.82 449.952 Q2444.75 449.952 2442.7 453.963 Q2440.67 457.947 2440.67 465.968 Q2440.67 473.962 2442.7 477.973 Q2444.75 481.957 2448.82 481.957 Q2452.91 481.957 2454.94 477.973 Q2456.99 473.962 2456.99 465.968 Q2456.99 457.947 2454.94 453.963 Q2452.91 449.952 2448.82 449.952 M2448.82 445.785 Q2455.35 445.785 2458.79 450.968 Q2462.25 456.124 2462.25 465.968 Q2462.25 475.785 2458.79 480.968 Q2455.35 486.124 2448.82 486.124 Q2442.28 486.124 2438.82 480.968 Q2435.38 475.785 2435.38 465.968 Q2435.38 456.124 2438.82 450.968 Q2442.28 445.785 2448.82 445.785 Z" fill="#000000" fill-rule="nonzero" fill-opacity="1" /><path clip-path="url(#clip300)" d="M2471.5 478.754 L2476.99 478.754 L2476.99 485.369 L2471.5 485.369 L2471.5 478.754 Z" fill="#000000" fill-rule="nonzero" fill-opacity="1" /><path clip-path="url(#clip300)" d="M2499.7 449.952 Q2495.64 449.952 2493.58 453.963 Q2491.55 457.947 2491.55 465.968 Q2491.55 473.962 2493.58 477.973 Q2495.64 481.957 2499.7 481.957 Q2503.79 481.957 2505.82 477.973 Q2507.88 473.962 2507.88 465.968 Q2507.88 457.947 2505.82 453.963 Q2503.79 449.952 2499.7 449.952 M2499.7 445.785 Q2506.24 445.785 2509.68 450.968 Q2513.14 456.124 2513.14 465.968 Q2513.14 475.785 2509.68 480.968 Q2506.24 486.124 2499.7 486.124 Q2493.17 486.124 2489.7 480.968 Q2486.26 475.785 2486.26 465.968 Q2486.26 456.124 2489.7 450.968 Q2493.17 445.785 2499.7 445.785 Z" fill="#000000" fill-rule="nonzero" fill-opacity="1" /><path clip-path="url(#clip300)" d="M2521.06 446.489 L2546.06 446.489 L2546.06 448.728 L2531.94 485.369 L2526.45 485.369 L2539.73 450.916 L2521.06 450.916 L2521.06 446.489 Z" fill="#000000" fill-rule="nonzero" fill-opacity="1" /><path clip-path="url(#clip300)" d="M2570.77 451.072 L2557.49 471.827 L2570.77 471.827 L2570.77 451.072 M2569.39 446.489 L2576 446.489 L2576 471.827 L2581.55 471.827 L2581.55 476.202 L2576 476.202 L2576 485.369 L2570.77 485.369 L2570.77 476.202 L2553.22 476.202 L2553.22 471.124 L2569.39 446.489 Z" fill="#000000" fill-rule="nonzero" fill-opacity="1" /><path clip-path="url(#clip300)" d="M2601.5 466.905 Q2597.75 466.905 2595.59 468.91 Q2593.45 470.916 2593.45 474.431 Q2593.45 477.947 2595.59 479.952 Q2597.75 481.957 2601.5 481.957 Q2605.25 481.957 2607.41 479.952 Q2609.57 477.921 2609.57 474.431 Q2609.57 470.916 2607.41 468.91 Q2605.27 466.905 2601.5 466.905 M2596.24 464.666 Q2592.85 463.832 2590.95 461.515 Q2589.08 459.197 2589.08 455.864 Q2589.08 451.202 2592.38 448.494 Q2595.72 445.785 2601.5 445.785 Q2607.31 445.785 2610.61 448.494 Q2613.92 451.202 2613.92 455.864 Q2613.92 459.197 2612.02 461.515 Q2610.14 463.832 2606.79 464.666 Q2610.59 465.551 2612.7 468.129 Q2614.83 470.707 2614.83 474.431 Q2614.83 480.082 2611.37 483.103 Q2607.93 486.124 2601.5 486.124 Q2595.07 486.124 2591.6 483.103 Q2588.17 480.082 2588.17 474.431 Q2588.17 470.707 2590.3 468.129 Q2592.44 465.551 2596.24 464.666 M2594.31 456.358 Q2594.31 459.379 2596.19 461.072 Q2598.09 462.765 2601.5 462.765 Q2604.88 462.765 2606.79 461.072 Q2608.71 459.379 2608.71 456.358 Q2608.71 453.338 2606.79 451.645 Q2604.88 449.952 2601.5 449.952 Q2598.09 449.952 2596.19 451.645 Q2594.31 453.338 2594.31 456.358 Z" fill="#000000" fill-rule="nonzero" fill-opacity="1" /><path clip-path="url(#clip300)" d="M1397.18 515.642 L1397.18 520.121 Q1395.15 519.001 1393.09 518.454 Q1391.06 517.881 1388.98 517.881 Q1384.32 517.881 1381.74 520.85 Q1379.16 523.793 1379.16 529.131 Q1379.16 534.47 1381.74 537.439 Q1384.32 540.381 1388.98 540.381 Q1391.06 540.381 1393.09 539.834 Q1395.15 539.262 1397.18 538.142 L1397.18 542.569 Q1395.18 543.506 1393.02 543.975 Q1390.88 544.444 1388.46 544.444 Q1381.87 544.444 1377.99 540.303 Q1374.11 536.163 1374.11 529.131 Q1374.11 521.996 1378.02 517.908 Q1381.95 513.819 1388.77 513.819 Q1390.98 513.819 1393.09 514.288 Q1395.2 514.73 1397.18 515.642 Z" fill="#000000" fill-rule="nonzero" fill-opacity="1" /><path clip-path="url(#clip300)" d="M1405.12 504.809 L1410.41 504.809 L1410.41 528.428 Q1410.41 534.678 1412.68 537.439 Q1414.94 540.173 1420.02 540.173 Q1425.07 540.173 1427.34 537.439 Q1429.6 534.678 1429.6 528.428 L1429.6 504.809 L1434.89 504.809 L1434.89 529.079 Q1434.89 536.683 1431.11 540.564 Q1427.36 544.444 1420.02 544.444 Q1412.65 544.444 1408.87 540.564 Q1405.12 536.683 1405.12 529.079 L1405.12 504.809 Z" fill="#000000" fill-rule="nonzero" fill-opacity="1" /><path clip-path="url(#clip300)" d="M1450.02 509.132 L1450.02 539.366 L1456.37 539.366 Q1464.42 539.366 1468.15 535.72 Q1471.9 532.074 1471.9 524.21 Q1471.9 516.397 1468.15 512.777 Q1464.42 509.132 1456.37 509.132 L1450.02 509.132 M1444.76 504.809 L1455.57 504.809 Q1466.87 504.809 1472.16 509.522 Q1477.44 514.21 1477.44 524.21 Q1477.44 534.262 1472.13 538.975 Q1466.82 543.689 1455.57 543.689 L1444.76 543.689 L1444.76 504.809 Z" fill="#000000" fill-rule="nonzero" fill-opacity="1" /><path clip-path="url(#clip300)" d="M1485.83 504.809 L1510.41 504.809 L1510.41 509.236 L1491.09 509.236 L1491.09 520.746 L1509.6 520.746 L1509.6 525.173 L1491.09 525.173 L1491.09 539.262 L1510.88 539.262 L1510.88 543.689 L1485.83 543.689 L1485.83 504.809 Z" fill="#000000" fill-rule="nonzero" fill-opacity="1" /><path clip-path="url(#clip300)" d="M1547.78 503.22 Q1544.29 509.21 1542.6 515.069 Q1540.91 520.928 1540.91 526.944 Q1540.91 532.96 1542.6 538.871 Q1544.32 544.756 1547.78 550.72 L1543.61 550.72 Q1539.71 544.6 1537.75 538.689 Q1535.83 532.777 1535.83 526.944 Q1535.83 521.137 1537.75 515.251 Q1539.68 509.366 1543.61 503.22 L1547.78 503.22 Z" fill="#000000" fill-rule="nonzero" fill-opacity="1" /><path clip-path="url(#clip300)" d="M1573.07 508.376 Q1567.34 508.376 1563.95 512.647 Q1560.59 516.918 1560.59 524.288 Q1560.59 531.631 1563.95 535.902 Q1567.34 540.173 1573.07 540.173 Q1578.8 540.173 1582.13 535.902 Q1585.49 531.631 1585.49 524.288 Q1585.49 516.918 1582.13 512.647 Q1578.8 508.376 1573.07 508.376 M1573.07 504.105 Q1581.24 504.105 1586.14 509.6 Q1591.04 515.069 1591.04 524.288 Q1591.04 533.48 1586.14 538.975 Q1581.24 544.444 1573.07 544.444 Q1564.86 544.444 1559.94 538.975 Q1555.05 533.506 1555.05 524.288 Q1555.05 515.069 1559.94 509.6 Q1564.86 504.105 1573.07 504.105 Z" fill="#000000" fill-rule="nonzero" fill-opacity="1" /><path clip-path="url(#clip300)" d="M1615.96 519.001 Q1615.15 518.533 1614.19 518.324 Q1613.25 518.09 1612.1 518.09 Q1608.04 518.09 1605.85 520.746 Q1603.69 523.376 1603.69 528.324 L1603.69 543.689 L1598.87 543.689 L1598.87 514.522 L1603.69 514.522 L1603.69 519.053 Q1605.2 516.397 1607.62 515.121 Q1610.05 513.819 1613.51 513.819 Q1614 513.819 1614.6 513.897 Q1615.2 513.949 1615.93 514.079 L1615.96 519.001 Z" fill="#000000" fill-rule="nonzero" fill-opacity="1" /><path clip-path="url(#clip300)" d="M1634.24 529.027 Q1628.43 529.027 1626.19 530.355 Q1623.95 531.683 1623.95 534.887 Q1623.95 537.439 1625.62 538.949 Q1627.31 540.433 1630.2 540.433 Q1634.19 540.433 1636.58 537.621 Q1639 534.782 1639 530.095 L1639 529.027 L1634.24 529.027 M1643.8 527.048 L1643.8 543.689 L1639 543.689 L1639 539.262 Q1637.36 541.918 1634.92 543.194 Q1632.47 544.444 1628.93 544.444 Q1624.45 544.444 1621.79 541.944 Q1619.16 539.418 1619.16 535.199 Q1619.16 530.277 1622.44 527.777 Q1625.75 525.277 1632.29 525.277 L1639 525.277 L1639 524.809 Q1639 521.501 1636.82 519.704 Q1634.65 517.881 1630.72 517.881 Q1628.22 517.881 1625.85 518.48 Q1623.48 519.079 1621.3 520.277 L1621.3 515.85 Q1623.93 514.835 1626.4 514.34 Q1628.87 513.819 1631.22 513.819 Q1637.55 513.819 1640.67 517.1 Q1643.8 520.381 1643.8 527.048 Z" fill="#000000" fill-rule="nonzero" fill-opacity="1" /><path clip-path="url(#clip300)" d="M1677.91 526.085 L1677.91 543.689 L1673.12 543.689 L1673.12 526.241 Q1673.12 522.1 1671.5 520.043 Q1669.89 517.986 1666.66 517.986 Q1662.78 517.986 1660.54 520.46 Q1658.3 522.934 1658.3 527.204 L1658.3 543.689 L1653.48 543.689 L1653.48 514.522 L1658.3 514.522 L1658.3 519.053 Q1660.02 516.423 1662.34 515.121 Q1664.68 513.819 1667.73 513.819 Q1672.75 513.819 1675.33 516.944 Q1677.91 520.043 1677.91 526.085 Z" fill="#000000" fill-rule="nonzero" fill-opacity="1" /><path clip-path="url(#clip300)" d="M1706.66 528.767 Q1706.66 523.559 1704.5 520.694 Q1702.36 517.829 1698.48 517.829 Q1694.63 517.829 1692.47 520.694 Q1690.33 523.559 1690.33 528.767 Q1690.33 533.949 1692.47 536.814 Q1694.63 539.678 1698.48 539.678 Q1702.36 539.678 1704.5 536.814 Q1706.66 533.949 1706.66 528.767 M1711.45 540.069 Q1711.45 547.517 1708.14 551.136 Q1704.84 554.782 1698.01 554.782 Q1695.49 554.782 1693.25 554.392 Q1691.01 554.027 1688.9 553.246 L1688.9 548.584 Q1691.01 549.73 1693.07 550.277 Q1695.12 550.824 1697.26 550.824 Q1701.97 550.824 1704.32 548.35 Q1706.66 545.902 1706.66 540.928 L1706.66 538.558 Q1705.18 541.137 1702.86 542.413 Q1700.54 543.689 1697.31 543.689 Q1691.95 543.689 1688.67 539.6 Q1685.38 535.512 1685.38 528.767 Q1685.38 521.996 1688.67 517.908 Q1691.95 513.819 1697.31 513.819 Q1700.54 513.819 1702.86 515.095 Q1705.18 516.371 1706.66 518.949 L1706.66 514.522 L1711.45 514.522 L1711.45 540.069 Z" fill="#000000" fill-rule="nonzero" fill-opacity="1" /><path clip-path="url(#clip300)" d="M1746.27 527.907 L1746.27 530.251 L1724.24 530.251 Q1724.55 535.199 1727.21 537.803 Q1729.89 540.381 1734.65 540.381 Q1737.41 540.381 1739.99 539.704 Q1742.6 539.027 1745.15 537.673 L1745.15 542.204 Q1742.57 543.298 1739.86 543.871 Q1737.15 544.444 1734.37 544.444 Q1727.39 544.444 1723.3 540.381 Q1719.24 536.319 1719.24 529.392 Q1719.24 522.23 1723.09 518.038 Q1726.97 513.819 1733.53 513.819 Q1739.42 513.819 1742.83 517.621 Q1746.27 521.397 1746.27 527.907 M1741.48 526.501 Q1741.43 522.569 1739.26 520.225 Q1737.13 517.881 1733.59 517.881 Q1729.58 517.881 1727.15 520.147 Q1724.76 522.413 1724.39 526.527 L1741.48 526.501 Z" fill="#000000" fill-rule="nonzero" fill-opacity="1" /><path clip-path="url(#clip300)" d="M1753.38 503.22 L1757.54 503.22 Q1761.45 509.366 1763.38 515.251 Q1765.33 521.137 1765.33 526.944 Q1765.33 532.777 1763.38 538.689 Q1761.45 544.6 1757.54 550.72 L1753.38 550.72 Q1756.84 544.756 1758.53 538.871 Q1760.25 532.96 1760.25 526.944 Q1760.25 520.928 1758.53 515.069 Q1756.84 509.21 1753.38 503.22 Z" fill="#000000" fill-rule="nonzero" fill-opacity="1" /><path clip-path="url(#clip300)" d="M1776.16 537.074 L1781.66 537.074 L1781.66 543.689 L1776.16 543.689 L1776.16 537.074 M1776.16 516.111 L1781.66 516.111 L1781.66 522.725 L1776.16 522.725 L1776.16 516.111 Z" fill="#000000" fill-rule="nonzero" fill-opacity="1" /><path clip-path="url(#clip300)" d="M1828.46 515.381 L1828.46 519.913 Q1826.42 518.871 1824.24 518.35 Q1822.05 517.829 1819.71 517.829 Q1816.14 517.829 1814.34 518.923 Q1812.57 520.017 1812.57 522.204 Q1812.57 523.871 1813.85 524.835 Q1815.12 525.772 1818.98 526.631 L1820.62 526.996 Q1825.72 528.09 1827.86 530.095 Q1830.02 532.074 1830.02 535.642 Q1830.02 539.704 1826.79 542.074 Q1823.59 544.444 1817.96 544.444 Q1815.62 544.444 1813.07 543.975 Q1810.54 543.532 1807.73 542.621 L1807.73 537.673 Q1810.38 539.053 1812.96 539.756 Q1815.54 540.433 1818.07 540.433 Q1821.45 540.433 1823.27 539.288 Q1825.1 538.116 1825.1 536.006 Q1825.1 534.053 1823.77 533.012 Q1822.47 531.97 1818.01 531.006 L1816.35 530.616 Q1811.89 529.678 1809.91 527.751 Q1807.94 525.798 1807.94 522.413 Q1807.94 518.298 1810.85 516.059 Q1813.77 513.819 1819.13 513.819 Q1821.79 513.819 1824.13 514.21 Q1826.48 514.6 1828.46 515.381 Z" fill="#000000" fill-rule="nonzero" fill-opacity="1" /><path clip-path="url(#clip300)" d="M1837.86 504.809 L1845.7 504.809 L1855.62 531.267 L1865.59 504.809 L1873.43 504.809 L1873.43 543.689 L1868.3 543.689 L1868.3 509.548 L1858.27 536.215 L1852.99 536.215 L1842.96 509.548 L1842.96 543.689 L1837.86 543.689 L1837.86 504.809 Z" fill="#000000" fill-rule="nonzero" fill-opacity="1" /><path clip-path="url(#clip300)" d="M1896.87 509.991 L1889.73 529.34 L1904.03 529.34 L1896.87 509.991 M1893.9 504.809 L1899.86 504.809 L1914.68 543.689 L1909.21 543.689 L1905.67 533.715 L1888.14 533.715 L1884.6 543.689 L1879.05 543.689 L1893.9 504.809 Z" fill="#000000" fill-rule="nonzero" fill-opacity="1" /><path clip-path="url(#clip300)" d="M1925.62 509.132 L1925.62 523.741 L1932.23 523.741 Q1935.9 523.741 1937.91 521.84 Q1939.91 519.939 1939.91 516.423 Q1939.91 512.934 1937.91 511.033 Q1935.9 509.132 1932.23 509.132 L1925.62 509.132 M1920.36 504.809 L1932.23 504.809 Q1938.77 504.809 1942.1 507.777 Q1945.46 510.72 1945.46 516.423 Q1945.46 522.178 1942.1 525.121 Q1938.77 528.064 1932.23 528.064 L1925.62 528.064 L1925.62 543.689 L1920.36 543.689 L1920.36 504.809 Z" fill="#000000" fill-rule="nonzero" fill-opacity="1" /><path clip-path="url(#clip300)" d="M1952.52 504.809 L1977.1 504.809 L1977.1 509.236 L1957.78 509.236 L1957.78 520.746 L1976.29 520.746 L1976.29 525.173 L1957.78 525.173 L1957.78 539.262 L1977.57 539.262 L1977.57 543.689 L1952.52 543.689 L1952.52 504.809 Z" fill="#000000" fill-rule="nonzero" fill-opacity="1" /><path clip-path="url(#clip300)" d="M2004.55 539.262 L2013.14 539.262 L2013.14 509.6 L2003.79 511.475 L2003.79 506.684 L2013.09 504.809 L2018.35 504.809 L2018.35 539.262 L2026.94 539.262 L2026.94 543.689 L2004.55 543.689 L2004.55 539.262 Z" fill="#000000" fill-rule="nonzero" fill-opacity="1" /><path clip-path="url(#clip300)" d="M2049.47 522.152 Q2045.93 522.152 2043.85 524.574 Q2041.79 526.996 2041.79 531.215 Q2041.79 535.407 2043.85 537.855 Q2045.93 540.277 2049.47 540.277 Q2053.01 540.277 2055.07 537.855 Q2057.15 535.407 2057.15 531.215 Q2057.15 526.996 2055.07 524.574 Q2053.01 522.152 2049.47 522.152 M2059.91 505.668 L2059.91 510.46 Q2057.93 509.522 2055.9 509.027 Q2053.9 508.533 2051.92 508.533 Q2046.71 508.533 2043.95 512.048 Q2041.22 515.564 2040.82 522.673 Q2042.36 520.407 2044.68 519.21 Q2047 517.986 2049.78 517.986 Q2055.64 517.986 2059.03 521.553 Q2062.44 525.095 2062.44 531.215 Q2062.44 537.204 2058.9 540.824 Q2055.36 544.444 2049.47 544.444 Q2042.73 544.444 2039.16 539.288 Q2035.59 534.105 2035.59 524.288 Q2035.59 515.069 2039.97 509.6 Q2044.34 504.105 2051.71 504.105 Q2053.69 504.105 2055.69 504.496 Q2057.73 504.887 2059.91 505.668 Z" fill="#000000" fill-rule="nonzero" fill-opacity="1" /><path clip-path="url(#clip300)" d="M2071.5 537.074 L2077 537.074 L2077 543.689 L2071.5 543.689 L2071.5 537.074 Z" fill="#000000" fill-rule="nonzero" fill-opacity="1" /><path clip-path="url(#clip300)" d="M2099.7 525.225 Q2095.95 525.225 2093.79 527.23 Q2091.66 529.236 2091.66 532.751 Q2091.66 536.267 2093.79 538.272 Q2095.95 540.277 2099.7 540.277 Q2103.45 540.277 2105.62 538.272 Q2107.78 536.241 2107.78 532.751 Q2107.78 529.236 2105.62 527.23 Q2103.48 525.225 2099.7 525.225 M2094.44 522.986 Q2091.06 522.152 2089.16 519.835 Q2087.28 517.517 2087.28 514.184 Q2087.28 509.522 2090.59 506.814 Q2093.92 504.105 2099.7 504.105 Q2105.51 504.105 2108.82 506.814 Q2112.13 509.522 2112.13 514.184 Q2112.13 517.517 2110.23 519.835 Q2108.35 522.152 2104.99 522.986 Q2108.79 523.871 2110.9 526.449 Q2113.04 529.027 2113.04 532.751 Q2113.04 538.402 2109.57 541.423 Q2106.14 544.444 2099.7 544.444 Q2093.27 544.444 2089.81 541.423 Q2086.37 538.402 2086.37 532.751 Q2086.37 529.027 2088.51 526.449 Q2090.64 523.871 2094.44 522.986 M2092.52 514.678 Q2092.52 517.699 2094.39 519.392 Q2096.29 521.085 2099.7 521.085 Q2103.09 521.085 2104.99 519.392 Q2106.92 517.699 2106.92 514.678 Q2106.92 511.658 2104.99 509.965 Q2103.09 508.272 2099.7 508.272 Q2096.29 508.272 2094.39 509.965 Q2092.52 511.658 2092.52 514.678 Z" fill="#000000" fill-rule="nonzero" fill-opacity="1" /><path clip-path="url(#clip300)" d="M2121.06 504.809 L2146.06 504.809 L2146.06 507.048 L2131.94 543.689 L2126.45 543.689 L2139.73 509.236 L2121.06 509.236 L2121.06 504.809 Z" fill="#000000" fill-rule="nonzero" fill-opacity="1" /><path clip-path="url(#clip300)" d="M2189.39 526.579 Q2187.13 526.579 2185.82 528.506 Q2184.55 530.433 2184.55 533.871 Q2184.55 537.256 2185.82 539.209 Q2187.13 541.137 2189.39 541.137 Q2191.61 541.137 2192.88 539.209 Q2194.18 537.256 2194.18 533.871 Q2194.18 530.46 2192.88 528.532 Q2191.61 526.579 2189.39 526.579 M2189.39 523.272 Q2193.51 523.272 2195.93 526.137 Q2198.35 529.001 2198.35 533.871 Q2198.35 538.741 2195.9 541.605 Q2193.48 544.444 2189.39 544.444 Q2185.22 544.444 2182.8 541.605 Q2180.38 538.741 2180.38 533.871 Q2180.38 528.975 2182.8 526.137 Q2185.25 523.272 2189.39 523.272 M2162.52 507.413 Q2160.28 507.413 2158.98 509.366 Q2157.7 511.293 2157.7 514.678 Q2157.7 518.116 2158.98 520.043 Q2160.25 521.97 2162.52 521.97 Q2164.78 521.97 2166.06 520.043 Q2167.36 518.116 2167.36 514.678 Q2167.36 511.319 2166.06 509.366 Q2164.76 507.413 2162.52 507.413 M2186.03 504.105 L2190.2 504.105 L2165.88 544.444 L2161.71 544.444 L2186.03 504.105 M2162.52 504.105 Q2166.63 504.105 2169.08 506.97 Q2171.53 509.809 2171.53 514.678 Q2171.53 519.6 2169.08 522.439 Q2166.66 525.277 2162.52 525.277 Q2158.38 525.277 2155.95 522.439 Q2153.56 519.574 2153.56 514.678 Q2153.56 509.835 2155.98 506.97 Q2158.4 504.105 2162.52 504.105 Z" fill="#000000" fill-rule="nonzero" fill-opacity="1" /><path clip-path="url(#clip300)" d="M2207.54 537.074 L2213.04 537.074 L2213.04 541.553 L2208.77 549.887 L2205.41 549.887 L2207.54 541.553 L2207.54 537.074 Z" fill="#000000" fill-rule="nonzero" fill-opacity="1" /><path clip-path="url(#clip300)" d="M2258.87 525.46 Q2260.56 526.032 2262.15 527.907 Q2263.77 529.782 2265.38 533.064 L2270.72 543.689 L2265.07 543.689 L2260.09 533.715 Q2258.17 529.808 2256.34 528.532 Q2254.55 527.256 2251.42 527.256 L2245.69 527.256 L2245.69 543.689 L2240.43 543.689 L2240.43 504.809 L2252.31 504.809 Q2258.97 504.809 2262.26 507.595 Q2265.54 510.382 2265.54 516.006 Q2265.54 519.678 2263.82 522.1 Q2262.13 524.522 2258.87 525.46 M2245.69 509.132 L2245.69 522.934 L2252.31 522.934 Q2256.11 522.934 2258.04 521.189 Q2259.99 519.418 2259.99 516.006 Q2259.99 512.595 2258.04 510.876 Q2256.11 509.132 2252.31 509.132 L2245.69 509.132 Z" fill="#000000" fill-rule="nonzero" fill-opacity="1" /><path clip-path="url(#clip300)" d="M2277.49 504.809 L2285.33 504.809 L2295.25 531.267 L2305.22 504.809 L2313.06 504.809 L2313.06 543.689 L2307.93 543.689 L2307.93 509.548 L2297.91 536.215 L2292.62 536.215 L2282.59 509.548 L2282.59 543.689 L2277.49 543.689 L2277.49 504.809 Z" fill="#000000" fill-rule="nonzero" fill-opacity="1" /><path clip-path="url(#clip300)" d="M2346.81 506.085 L2346.81 511.215 Q2343.82 509.783 2341.16 509.079 Q2338.51 508.376 2336.03 508.376 Q2331.73 508.376 2329.39 510.043 Q2327.07 511.71 2327.07 514.783 Q2327.07 517.361 2328.61 518.689 Q2330.17 519.991 2334.49 520.798 L2337.67 521.449 Q2343.56 522.569 2346.34 525.407 Q2349.16 528.22 2349.16 532.96 Q2349.16 538.611 2345.35 541.527 Q2341.58 544.444 2334.26 544.444 Q2331.5 544.444 2328.38 543.819 Q2325.28 543.194 2321.94 541.97 L2321.94 536.553 Q2325.15 538.35 2328.22 539.262 Q2331.29 540.173 2334.26 540.173 Q2338.77 540.173 2341.21 538.402 Q2343.66 536.631 2343.66 533.35 Q2343.66 530.486 2341.89 528.871 Q2340.15 527.256 2336.14 526.449 L2332.93 525.824 Q2327.05 524.652 2324.42 522.152 Q2321.79 519.652 2321.79 515.199 Q2321.79 510.043 2325.41 507.074 Q2329.05 504.105 2335.43 504.105 Q2338.17 504.105 2341.01 504.6 Q2343.84 505.095 2346.81 506.085 Z" fill="#000000" fill-rule="nonzero" fill-opacity="1" /><path clip-path="url(#clip300)" d="M2357.36 504.809 L2362.62 504.809 L2362.62 539.262 L2381.55 539.262 L2381.55 543.689 L2357.36 543.689 L2357.36 504.809 Z" fill="#000000" fill-rule="nonzero" fill-opacity="1" /><path clip-path="url(#clip300)" d="M2387.07 504.809 L2411.66 504.809 L2411.66 509.236 L2392.33 509.236 L2392.33 520.746 L2410.85 520.746 L2410.85 525.173 L2392.33 525.173 L2392.33 539.262 L2412.12 539.262 L2412.12 543.689 L2387.07 543.689 L2387.07 504.809 Z" fill="#000000" fill-rule="nonzero" fill-opacity="1" /><path clip-path="url(#clip300)" d="M2449.44 508.272 Q2445.38 508.272 2443.32 512.283 Q2441.29 516.267 2441.29 524.288 Q2441.29 532.282 2443.32 536.293 Q2445.38 540.277 2449.44 540.277 Q2453.53 540.277 2455.56 536.293 Q2457.62 532.282 2457.62 524.288 Q2457.62 516.267 2455.56 512.283 Q2453.53 508.272 2449.44 508.272 M2449.44 504.105 Q2455.98 504.105 2459.42 509.288 Q2462.88 514.444 2462.88 524.288 Q2462.88 534.105 2459.42 539.288 Q2455.98 544.444 2449.44 544.444 Q2442.91 544.444 2439.44 539.288 Q2436 534.105 2436 524.288 Q2436 514.444 2439.44 509.288 Q2442.91 504.105 2449.44 504.105 Z" fill="#000000" fill-rule="nonzero" fill-opacity="1" /><path clip-path="url(#clip300)" d="M2472.12 537.074 L2477.62 537.074 L2477.62 543.689 L2472.12 543.689 L2472.12 537.074 Z" fill="#000000" fill-rule="nonzero" fill-opacity="1" /><path clip-path="url(#clip300)" d="M2489.99 539.262 L2498.58 539.262 L2498.58 509.6 L2489.23 511.475 L2489.23 506.684 L2498.53 504.809 L2503.79 504.809 L2503.79 539.262 L2512.38 539.262 L2512.38 543.689 L2489.99 543.689 L2489.99 539.262 Z" fill="#000000" fill-rule="nonzero" fill-opacity="1" /><path clip-path="url(#clip300)" d="M2537.46 509.392 L2524.18 530.147 L2537.46 530.147 L2537.46 509.392 M2536.08 504.809 L2542.7 504.809 L2542.7 530.147 L2548.24 530.147 L2548.24 534.522 L2542.7 534.522 L2542.7 543.689 L2537.46 543.689 L2537.46 534.522 L2519.91 534.522 L2519.91 529.444 L2536.08 504.809 Z" fill="#000000" fill-rule="nonzero" fill-opacity="1" /><path clip-path="url(#clip300)" d="M2555.61 504.809 L2580.61 504.809 L2580.61 507.048 L2566.5 543.689 L2561 543.689 L2574.29 509.236 L2555.61 509.236 L2555.61 504.809 Z" fill="#000000" fill-rule="nonzero" fill-opacity="1" /><path clip-path="url(#clip300)" d="M2606.81 522.725 Q2610.59 523.532 2612.7 526.085 Q2614.83 528.637 2614.83 532.387 Q2614.83 538.142 2610.87 541.293 Q2606.92 544.444 2599.62 544.444 Q2597.18 544.444 2594.57 543.949 Q2591.99 543.48 2589.23 542.517 L2589.23 537.439 Q2591.42 538.715 2594.02 539.366 Q2596.63 540.017 2599.47 540.017 Q2604.42 540.017 2606.99 538.064 Q2609.6 536.111 2609.6 532.387 Q2609.6 528.949 2607.18 527.022 Q2604.78 525.069 2600.48 525.069 L2595.95 525.069 L2595.95 520.746 L2600.69 520.746 Q2604.57 520.746 2606.63 519.21 Q2608.69 517.647 2608.69 514.73 Q2608.69 511.736 2606.55 510.147 Q2604.44 508.533 2600.48 508.533 Q2598.32 508.533 2595.85 509.001 Q2593.37 509.47 2590.41 510.46 L2590.41 505.772 Q2593.4 504.939 2596 504.522 Q2598.63 504.105 2600.95 504.105 Q2606.94 504.105 2610.43 506.84 Q2613.92 509.548 2613.92 514.184 Q2613.92 517.413 2612.07 519.652 Q2610.22 521.866 2606.81 522.725 Z" fill="#000000" fill-rule="nonzero" fill-opacity="1" /></svg>
