<?xml version="1.0" encoding="utf-8"?>
<svg xmlns="http://www.w3.org/2000/svg" xmlns:xlink="http://www.w3.org/1999/xlink" width="800" height="500" viewBox="0 0 3200 2000">
<defs>
  <clipPath id="clip130">
    <rect x="0" y="0" width="3200" height="2000"/>
  </clipPath>
</defs>
<path clip-path="url(#clip130)" d="M0 2000 L3200 2000 L3200 0 L0 0  Z" fill="#ffffff" fill-rule="evenodd" fill-opacity="1"/>
<defs>
  <clipPath id="clip131">
    <rect x="318" y="110" width="2773" height="1652"/>
  </clipPath>
</defs>
<path clip-path="url(#clip130)" d="M347.726 1761.32 L3089.76 1761.32 L3089.76 110.236 L347.726 110.236  Z" fill="#ffffff" fill-rule="evenodd" fill-opacity="1"/>
<defs>
  <clipPath id="clip132">
    <rect x="347" y="110" width="2743" height="1652"/>
  </clipPath>
</defs>
<polyline clip-path="url(#clip132)" style="stroke:#000000; stroke-linecap:round; stroke-linejoin:round; stroke-width:2; stroke-opacity:0.1; fill:none" points="425.331,1761.32 425.331,110.236 "/>
<polyline clip-path="url(#clip132)" style="stroke:#000000; stroke-linecap:round; stroke-linejoin:round; stroke-width:2; stroke-opacity:0.1; fill:none" points="1250.83,1761.32 1250.83,110.236 "/>
<polyline clip-path="url(#clip132)" style="stroke:#000000; stroke-linecap:round; stroke-linejoin:round; stroke-width:2; stroke-opacity:0.1; fill:none" points="2076.32,1761.32 2076.32,110.236 "/>
<polyline clip-path="url(#clip132)" style="stroke:#000000; stroke-linecap:round; stroke-linejoin:round; stroke-width:2; stroke-opacity:0.1; fill:none" points="2901.82,1761.32 2901.82,110.236 "/>
<polyline clip-path="url(#clip132)" style="stroke:#000000; stroke-linecap:round; stroke-linejoin:round; stroke-width:2; stroke-opacity:0.1; fill:none" points="347.726,1714.59 3089.76,1714.59 "/>
<polyline clip-path="url(#clip132)" style="stroke:#000000; stroke-linecap:round; stroke-linejoin:round; stroke-width:2; stroke-opacity:0.1; fill:none" points="347.726,1257.79 3089.76,1257.79 "/>
<polyline clip-path="url(#clip132)" style="stroke:#000000; stroke-linecap:round; stroke-linejoin:round; stroke-width:2; stroke-opacity:0.1; fill:none" points="347.726,800.982 3089.76,800.982 "/>
<polyline clip-path="url(#clip132)" style="stroke:#000000; stroke-linecap:round; stroke-linejoin:round; stroke-width:2; stroke-opacity:0.1; fill:none" points="347.726,344.178 3089.76,344.178 "/>
<polyline clip-path="url(#clip130)" style="stroke:#000000; stroke-linecap:round; stroke-linejoin:round; stroke-width:4; stroke-opacity:1; fill:none" points="347.726,1761.32 3089.76,1761.32 "/>
<polyline clip-path="url(#clip130)" style="stroke:#000000; stroke-linecap:round; stroke-linejoin:round; stroke-width:4; stroke-opacity:1; fill:none" points="425.331,1761.32 425.331,1742.42 "/>
<polyline clip-path="url(#clip130)" style="stroke:#000000; stroke-linecap:round; stroke-linejoin:round; stroke-width:4; stroke-opacity:1; fill:none" points="1250.83,1761.32 1250.83,1742.42 "/>
<polyline clip-path="url(#clip130)" style="stroke:#000000; stroke-linecap:round; stroke-linejoin:round; stroke-width:4; stroke-opacity:1; fill:none" points="2076.32,1761.32 2076.32,1742.42 "/>
<polyline clip-path="url(#clip130)" style="stroke:#000000; stroke-linecap:round; stroke-linejoin:round; stroke-width:4; stroke-opacity:1; fill:none" points="2901.82,1761.32 2901.82,1742.42 "/>
<path clip-path="url(#clip130)" d="M425.331 1798.64 Q421.72 1798.64 419.891 1802.2 Q418.086 1805.74 418.086 1812.87 Q418.086 1819.98 419.891 1823.54 Q421.72 1827.09 425.331 1827.09 Q428.965 1827.09 430.771 1823.54 Q432.599 1819.98 432.599 1812.87 Q432.599 1805.74 430.771 1802.2 Q428.965 1798.64 425.331 1798.64 M425.331 1794.93 Q431.141 1794.93 434.197 1799.54 Q437.275 1804.12 437.275 1812.87 Q437.275 1821.6 434.197 1826.21 Q431.141 1830.79 425.331 1830.79 Q419.521 1830.79 416.442 1826.21 Q413.386 1821.6 413.386 1812.87 Q413.386 1804.12 416.442 1799.54 Q419.521 1794.93 425.331 1794.93 Z" fill="#000000" fill-rule="nonzero" fill-opacity="1" /><path clip-path="url(#clip130)" d="M1225.53 1795.56 L1243.88 1795.56 L1243.88 1799.49 L1229.81 1799.49 L1229.81 1807.97 Q1230.83 1807.62 1231.85 1807.46 Q1232.86 1807.27 1233.88 1807.27 Q1239.67 1807.27 1243.05 1810.44 Q1246.43 1813.61 1246.43 1819.03 Q1246.43 1824.61 1242.96 1827.71 Q1239.48 1830.79 1233.16 1830.79 Q1230.99 1830.79 1228.72 1830.42 Q1226.47 1830.05 1224.07 1829.31 L1224.07 1824.61 Q1226.15 1825.74 1228.37 1826.3 Q1230.6 1826.85 1233.07 1826.85 Q1237.08 1826.85 1239.41 1824.75 Q1241.75 1822.64 1241.75 1819.03 Q1241.75 1815.42 1239.41 1813.31 Q1237.08 1811.21 1233.07 1811.21 Q1231.2 1811.21 1229.32 1811.62 Q1227.47 1812.04 1225.53 1812.92 L1225.53 1795.56 Z" fill="#000000" fill-rule="nonzero" fill-opacity="1" /><path clip-path="url(#clip130)" d="M1265.64 1798.64 Q1262.03 1798.64 1260.2 1802.2 Q1258.4 1805.74 1258.4 1812.87 Q1258.4 1819.98 1260.2 1823.54 Q1262.03 1827.09 1265.64 1827.09 Q1269.28 1827.09 1271.08 1823.54 Q1272.91 1819.98 1272.91 1812.87 Q1272.91 1805.74 1271.08 1802.2 Q1269.28 1798.64 1265.64 1798.64 M1265.64 1794.93 Q1271.45 1794.93 1274.51 1799.54 Q1277.59 1804.12 1277.59 1812.87 Q1277.59 1821.6 1274.51 1826.21 Q1271.45 1830.79 1265.64 1830.79 Q1259.83 1830.79 1256.75 1826.21 Q1253.7 1821.6 1253.7 1812.87 Q1253.7 1804.12 1256.75 1799.54 Q1259.83 1794.93 1265.64 1794.93 Z" fill="#000000" fill-rule="nonzero" fill-opacity="1" /><path clip-path="url(#clip130)" d="M2035.93 1826.18 L2043.57 1826.18 L2043.57 1799.82 L2035.26 1801.48 L2035.26 1797.22 L2043.52 1795.56 L2048.2 1795.56 L2048.2 1826.18 L2055.84 1826.18 L2055.84 1830.12 L2035.93 1830.12 L2035.93 1826.18 Z" fill="#000000" fill-rule="nonzero" fill-opacity="1" /><path clip-path="url(#clip130)" d="M2075.28 1798.64 Q2071.67 1798.64 2069.84 1802.2 Q2068.04 1805.74 2068.04 1812.87 Q2068.04 1819.98 2069.84 1823.54 Q2071.67 1827.09 2075.28 1827.09 Q2078.91 1827.09 2080.72 1823.54 Q2082.55 1819.98 2082.55 1812.87 Q2082.55 1805.74 2080.72 1802.2 Q2078.91 1798.64 2075.28 1798.64 M2075.28 1794.93 Q2081.09 1794.93 2084.15 1799.54 Q2087.22 1804.12 2087.22 1812.87 Q2087.22 1821.6 2084.15 1826.21 Q2081.09 1830.79 2075.28 1830.79 Q2069.47 1830.79 2066.39 1826.21 Q2063.34 1821.6 2063.34 1812.87 Q2063.34 1804.12 2066.39 1799.54 Q2069.47 1794.93 2075.28 1794.93 Z" fill="#000000" fill-rule="nonzero" fill-opacity="1" /><path clip-path="url(#clip130)" d="M2105.44 1798.64 Q2101.83 1798.64 2100 1802.2 Q2098.2 1805.74 2098.2 1812.87 Q2098.2 1819.98 2100 1823.54 Q2101.83 1827.09 2105.44 1827.09 Q2109.08 1827.09 2110.88 1823.54 Q2112.71 1819.98 2112.71 1812.87 Q2112.71 1805.74 2110.88 1802.2 Q2109.08 1798.64 2105.44 1798.64 M2105.44 1794.93 Q2111.25 1794.93 2114.31 1799.54 Q2117.39 1804.12 2117.39 1812.87 Q2117.39 1821.6 2114.31 1826.21 Q2111.25 1830.79 2105.44 1830.79 Q2099.63 1830.79 2096.55 1826.21 Q2093.5 1821.6 2093.5 1812.87 Q2093.5 1804.12 2096.55 1799.54 Q2099.63 1794.93 2105.44 1794.93 Z" fill="#000000" fill-rule="nonzero" fill-opacity="1" /><path clip-path="url(#clip130)" d="M2861.42 1826.18 L2869.06 1826.18 L2869.06 1799.82 L2860.75 1801.48 L2860.75 1797.22 L2869.02 1795.56 L2873.69 1795.56 L2873.69 1826.18 L2881.33 1826.18 L2881.33 1830.12 L2861.42 1830.12 L2861.42 1826.18 Z" fill="#000000" fill-rule="nonzero" fill-opacity="1" /><path clip-path="url(#clip130)" d="M2890.82 1795.56 L2909.18 1795.56 L2909.18 1799.49 L2895.1 1799.49 L2895.1 1807.97 Q2896.12 1807.62 2897.14 1807.46 Q2898.16 1807.27 2899.18 1807.27 Q2904.97 1807.27 2908.35 1810.44 Q2911.73 1813.61 2911.73 1819.03 Q2911.73 1824.61 2908.25 1827.71 Q2904.78 1830.79 2898.46 1830.79 Q2896.29 1830.79 2894.02 1830.42 Q2891.77 1830.05 2889.36 1829.31 L2889.36 1824.61 Q2891.45 1825.74 2893.67 1826.3 Q2895.89 1826.85 2898.37 1826.85 Q2902.37 1826.85 2904.71 1824.75 Q2907.05 1822.64 2907.05 1819.03 Q2907.05 1815.42 2904.71 1813.31 Q2902.37 1811.21 2898.37 1811.21 Q2896.49 1811.21 2894.62 1811.62 Q2892.77 1812.04 2890.82 1812.92 L2890.82 1795.56 Z" fill="#000000" fill-rule="nonzero" fill-opacity="1" /><path clip-path="url(#clip130)" d="M2930.94 1798.64 Q2927.33 1798.64 2925.5 1802.2 Q2923.69 1805.74 2923.69 1812.87 Q2923.69 1819.98 2925.5 1823.54 Q2927.33 1827.09 2930.94 1827.09 Q2934.57 1827.09 2936.38 1823.54 Q2938.21 1819.98 2938.21 1812.87 Q2938.21 1805.74 2936.38 1802.2 Q2934.57 1798.64 2930.94 1798.64 M2930.94 1794.93 Q2936.75 1794.93 2939.8 1799.54 Q2942.88 1804.12 2942.88 1812.87 Q2942.88 1821.6 2939.8 1826.21 Q2936.75 1830.79 2930.94 1830.79 Q2925.13 1830.79 2922.05 1826.21 Q2918.99 1821.6 2918.99 1812.87 Q2918.99 1804.12 2922.05 1799.54 Q2925.13 1794.93 2930.94 1794.93 Z" fill="#000000" fill-rule="nonzero" fill-opacity="1" /><path clip-path="url(#clip130)" d="M1585.24 1870.66 L1625.44 1870.66 L1625.44 1876.07 L1608.57 1876.07 L1608.57 1918.18 L1602.11 1918.18 L1602.11 1876.07 L1585.24 1876.07 L1585.24 1870.66 Z" fill="#000000" fill-rule="nonzero" fill-opacity="1" /><path clip-path="url(#clip130)" d="M1629.39 1882.53 L1635.24 1882.53 L1635.24 1918.18 L1629.39 1918.18 L1629.39 1882.53 M1629.39 1868.66 L1635.24 1868.66 L1635.24 1876.07 L1629.39 1876.07 L1629.39 1868.66 Z" fill="#000000" fill-rule="nonzero" fill-opacity="1" /><path clip-path="url(#clip130)" d="M1675.25 1889.38 Q1677.45 1885.43 1680.5 1883.55 Q1683.56 1881.67 1687.7 1881.67 Q1693.27 1881.67 1696.29 1885.59 Q1699.31 1889.47 1699.31 1896.67 L1699.31 1918.18 L1693.43 1918.18 L1693.43 1896.86 Q1693.43 1891.73 1691.61 1889.25 Q1689.8 1886.77 1686.07 1886.77 Q1681.52 1886.77 1678.88 1889.79 Q1676.24 1892.81 1676.24 1898.03 L1676.24 1918.18 L1670.35 1918.18 L1670.35 1896.86 Q1670.35 1891.7 1668.54 1889.25 Q1666.72 1886.77 1662.93 1886.77 Q1658.45 1886.77 1655.8 1889.82 Q1653.16 1892.85 1653.16 1898.03 L1653.16 1918.18 L1647.27 1918.18 L1647.27 1882.53 L1653.16 1882.53 L1653.16 1888.07 Q1655.17 1884.79 1657.97 1883.23 Q1660.77 1881.67 1664.62 1881.67 Q1668.5 1881.67 1671.21 1883.65 Q1673.95 1885.62 1675.25 1889.38 Z" fill="#000000" fill-rule="nonzero" fill-opacity="1" /><path clip-path="url(#clip130)" d="M1741.49 1898.89 L1741.49 1901.76 L1714.56 1901.76 Q1714.94 1907.81 1718.19 1910.99 Q1721.47 1914.14 1727.29 1914.14 Q1730.66 1914.14 1733.82 1913.31 Q1737 1912.48 1740.12 1910.83 L1740.12 1916.37 Q1736.97 1917.7 1733.66 1918.4 Q1730.35 1919.1 1726.94 1919.1 Q1718.41 1919.1 1713.41 1914.14 Q1708.45 1909.17 1708.45 1900.71 Q1708.45 1891.96 1713.16 1886.83 Q1717.9 1881.67 1725.92 1881.67 Q1733.12 1881.67 1737.29 1886.32 Q1741.49 1890.94 1741.49 1898.89 M1735.63 1897.17 Q1735.57 1892.37 1732.92 1889.5 Q1730.31 1886.64 1725.99 1886.64 Q1721.08 1886.64 1718.12 1889.41 Q1715.2 1892.18 1714.75 1897.21 L1735.63 1897.17 Z" fill="#000000" fill-rule="nonzero" fill-opacity="1" /><path clip-path="url(#clip130)" d="M1785.89 1868.72 Q1781.62 1876.04 1779.55 1883.2 Q1777.48 1890.36 1777.48 1897.72 Q1777.48 1905.07 1779.55 1912.29 Q1781.65 1919.49 1785.89 1926.78 L1780.79 1926.78 Q1776.02 1919.3 1773.63 1912.07 Q1771.28 1904.85 1771.28 1897.72 Q1771.28 1890.62 1773.63 1883.42 Q1775.99 1876.23 1780.79 1868.72 L1785.89 1868.72 Z" fill="#000000" fill-rule="nonzero" fill-opacity="1" /><path clip-path="url(#clip130)" d="M1826.88 1896.67 L1826.88 1918.18 L1821.03 1918.18 L1821.03 1896.86 Q1821.03 1891.8 1819.05 1889.28 Q1817.08 1886.77 1813.13 1886.77 Q1808.39 1886.77 1805.65 1889.79 Q1802.92 1892.81 1802.92 1898.03 L1802.92 1918.18 L1797.03 1918.18 L1797.03 1868.66 L1802.92 1868.66 L1802.92 1888.07 Q1805.02 1884.86 1807.85 1883.27 Q1810.71 1881.67 1814.44 1881.67 Q1820.58 1881.67 1823.73 1885.49 Q1826.88 1889.28 1826.88 1896.67 Z" fill="#000000" fill-rule="nonzero" fill-opacity="1" /><path clip-path="url(#clip130)" d="M1837.64 1868.72 L1842.73 1868.72 Q1847.51 1876.23 1849.86 1883.42 Q1852.25 1890.62 1852.25 1897.72 Q1852.25 1904.85 1849.86 1912.07 Q1847.51 1919.3 1842.73 1926.78 L1837.64 1926.78 Q1841.87 1919.49 1843.94 1912.29 Q1846.04 1905.07 1846.04 1897.72 Q1846.04 1890.36 1843.94 1883.2 Q1841.87 1876.04 1837.64 1868.72 Z" fill="#000000" fill-rule="nonzero" fill-opacity="1" /><polyline clip-path="url(#clip130)" style="stroke:#000000; stroke-linecap:round; stroke-linejoin:round; stroke-width:4; stroke-opacity:1; fill:none" points="347.726,1761.32 347.726,110.236 "/>
<polyline clip-path="url(#clip130)" style="stroke:#000000; stroke-linecap:round; stroke-linejoin:round; stroke-width:4; stroke-opacity:1; fill:none" points="347.726,1714.59 366.624,1714.59 "/>
<polyline clip-path="url(#clip130)" style="stroke:#000000; stroke-linecap:round; stroke-linejoin:round; stroke-width:4; stroke-opacity:1; fill:none" points="347.726,1257.79 366.624,1257.79 "/>
<polyline clip-path="url(#clip130)" style="stroke:#000000; stroke-linecap:round; stroke-linejoin:round; stroke-width:4; stroke-opacity:1; fill:none" points="347.726,800.982 366.624,800.982 "/>
<polyline clip-path="url(#clip130)" style="stroke:#000000; stroke-linecap:round; stroke-linejoin:round; stroke-width:4; stroke-opacity:1; fill:none" points="347.726,344.178 366.624,344.178 "/>
<path clip-path="url(#clip130)" d="M182.227 1700.39 Q178.616 1700.39 176.787 1703.95 Q174.981 1707.49 174.981 1714.62 Q174.981 1721.73 176.787 1725.29 Q178.616 1728.84 182.227 1728.84 Q185.861 1728.84 187.666 1725.29 Q189.495 1721.73 189.495 1714.62 Q189.495 1707.49 187.666 1703.95 Q185.861 1700.39 182.227 1700.39 M182.227 1696.68 Q188.037 1696.68 191.092 1701.29 Q194.171 1705.87 194.171 1714.62 Q194.171 1723.35 191.092 1727.96 Q188.037 1732.54 182.227 1732.54 Q176.417 1732.54 173.338 1727.96 Q170.282 1723.35 170.282 1714.62 Q170.282 1705.87 173.338 1701.29 Q176.417 1696.68 182.227 1696.68 Z" fill="#000000" fill-rule="nonzero" fill-opacity="1" /><path clip-path="url(#clip130)" d="M202.389 1725.99 L207.273 1725.99 L207.273 1731.87 L202.389 1731.87 L202.389 1725.99 Z" fill="#000000" fill-rule="nonzero" fill-opacity="1" /><path clip-path="url(#clip130)" d="M227.458 1700.39 Q223.847 1700.39 222.018 1703.95 Q220.213 1707.49 220.213 1714.62 Q220.213 1721.73 222.018 1725.29 Q223.847 1728.84 227.458 1728.84 Q231.092 1728.84 232.898 1725.29 Q234.726 1721.73 234.726 1714.62 Q234.726 1707.49 232.898 1703.95 Q231.092 1700.39 227.458 1700.39 M227.458 1696.68 Q233.268 1696.68 236.324 1701.29 Q239.402 1705.87 239.402 1714.62 Q239.402 1723.35 236.324 1727.96 Q233.268 1732.54 227.458 1732.54 Q221.648 1732.54 218.569 1727.96 Q215.514 1723.35 215.514 1714.62 Q215.514 1705.87 218.569 1701.29 Q221.648 1696.68 227.458 1696.68 Z" fill="#000000" fill-rule="nonzero" fill-opacity="1" /><path clip-path="url(#clip130)" d="M257.62 1700.39 Q254.009 1700.39 252.18 1703.95 Q250.374 1707.49 250.374 1714.62 Q250.374 1721.73 252.18 1725.29 Q254.009 1728.84 257.62 1728.84 Q261.254 1728.84 263.06 1725.29 Q264.888 1721.73 264.888 1714.62 Q264.888 1707.49 263.06 1703.95 Q261.254 1700.39 257.62 1700.39 M257.62 1696.68 Q263.43 1696.68 266.485 1701.29 Q269.564 1705.87 269.564 1714.62 Q269.564 1723.35 266.485 1727.96 Q263.43 1732.54 257.62 1732.54 Q251.81 1732.54 248.731 1727.96 Q245.675 1723.35 245.675 1714.62 Q245.675 1705.87 248.731 1701.29 Q251.81 1696.68 257.62 1696.68 Z" fill="#000000" fill-rule="nonzero" fill-opacity="1" /><path clip-path="url(#clip130)" d="M287.782 1700.39 Q284.171 1700.39 282.342 1703.95 Q280.536 1707.49 280.536 1714.62 Q280.536 1721.73 282.342 1725.29 Q284.171 1728.84 287.782 1728.84 Q291.416 1728.84 293.221 1725.29 Q295.05 1721.73 295.05 1714.62 Q295.05 1707.49 293.221 1703.95 Q291.416 1700.39 287.782 1700.39 M287.782 1696.68 Q293.592 1696.68 296.647 1701.29 Q299.726 1705.87 299.726 1714.62 Q299.726 1723.35 296.647 1727.96 Q293.592 1732.54 287.782 1732.54 Q281.971 1732.54 278.893 1727.96 Q275.837 1723.35 275.837 1714.62 Q275.837 1705.87 278.893 1701.29 Q281.971 1696.68 287.782 1696.68 Z" fill="#000000" fill-rule="nonzero" fill-opacity="1" /><path clip-path="url(#clip130)" d="M183.222 1243.58 Q179.611 1243.58 177.782 1247.15 Q175.977 1250.69 175.977 1257.82 Q175.977 1264.93 177.782 1268.49 Q179.611 1272.03 183.222 1272.03 Q186.856 1272.03 188.662 1268.49 Q190.491 1264.93 190.491 1257.82 Q190.491 1250.69 188.662 1247.15 Q186.856 1243.58 183.222 1243.58 M183.222 1239.88 Q189.032 1239.88 192.088 1244.49 Q195.166 1249.07 195.166 1257.82 Q195.166 1266.55 192.088 1271.15 Q189.032 1275.74 183.222 1275.74 Q177.412 1275.74 174.333 1271.15 Q171.278 1266.55 171.278 1257.82 Q171.278 1249.07 174.333 1244.49 Q177.412 1239.88 183.222 1239.88 Z" fill="#000000" fill-rule="nonzero" fill-opacity="1" /><path clip-path="url(#clip130)" d="M203.384 1269.19 L208.268 1269.19 L208.268 1275.07 L203.384 1275.07 L203.384 1269.19 Z" fill="#000000" fill-rule="nonzero" fill-opacity="1" /><path clip-path="url(#clip130)" d="M228.453 1243.58 Q224.842 1243.58 223.013 1247.15 Q221.208 1250.69 221.208 1257.82 Q221.208 1264.93 223.013 1268.49 Q224.842 1272.03 228.453 1272.03 Q232.088 1272.03 233.893 1268.49 Q235.722 1264.93 235.722 1257.82 Q235.722 1250.69 233.893 1247.15 Q232.088 1243.58 228.453 1243.58 M228.453 1239.88 Q234.263 1239.88 237.319 1244.49 Q240.398 1249.07 240.398 1257.82 Q240.398 1266.55 237.319 1271.15 Q234.263 1275.74 228.453 1275.74 Q222.643 1275.74 219.564 1271.15 Q216.509 1266.55 216.509 1257.82 Q216.509 1249.07 219.564 1244.49 Q222.643 1239.88 228.453 1239.88 Z" fill="#000000" fill-rule="nonzero" fill-opacity="1" /><path clip-path="url(#clip130)" d="M258.615 1243.58 Q255.004 1243.58 253.175 1247.15 Q251.37 1250.69 251.37 1257.82 Q251.37 1264.93 253.175 1268.49 Q255.004 1272.03 258.615 1272.03 Q262.249 1272.03 264.055 1268.49 Q265.884 1264.93 265.884 1257.82 Q265.884 1250.69 264.055 1247.15 Q262.249 1243.58 258.615 1243.58 M258.615 1239.88 Q264.425 1239.88 267.481 1244.49 Q270.56 1249.07 270.56 1257.82 Q270.56 1266.55 267.481 1271.15 Q264.425 1275.74 258.615 1275.74 Q252.805 1275.74 249.726 1271.15 Q246.671 1266.55 246.671 1257.82 Q246.671 1249.07 249.726 1244.49 Q252.805 1239.88 258.615 1239.88 Z" fill="#000000" fill-rule="nonzero" fill-opacity="1" /><path clip-path="url(#clip130)" d="M278.823 1240.51 L297.18 1240.51 L297.18 1244.44 L283.106 1244.44 L283.106 1252.91 Q284.124 1252.57 285.143 1252.4 Q286.161 1252.22 287.18 1252.22 Q292.967 1252.22 296.346 1255.39 Q299.726 1258.56 299.726 1263.98 Q299.726 1269.56 296.254 1272.66 Q292.782 1275.74 286.462 1275.74 Q284.286 1275.74 282.018 1275.37 Q279.772 1275 277.365 1274.26 L277.365 1269.56 Q279.448 1270.69 281.671 1271.25 Q283.893 1271.8 286.37 1271.8 Q290.374 1271.8 292.712 1269.7 Q295.05 1267.59 295.05 1263.98 Q295.05 1260.37 292.712 1258.26 Q290.374 1256.15 286.37 1256.15 Q284.495 1256.15 282.62 1256.57 Q280.768 1256.99 278.823 1257.87 L278.823 1240.51 Z" fill="#000000" fill-rule="nonzero" fill-opacity="1" /><path clip-path="url(#clip130)" d="M182.227 786.781 Q178.616 786.781 176.787 790.345 Q174.981 793.887 174.981 801.017 Q174.981 808.123 176.787 811.688 Q178.616 815.23 182.227 815.23 Q185.861 815.23 187.666 811.688 Q189.495 808.123 189.495 801.017 Q189.495 793.887 187.666 790.345 Q185.861 786.781 182.227 786.781 M182.227 783.077 Q188.037 783.077 191.092 787.683 Q194.171 792.267 194.171 801.017 Q194.171 809.744 191.092 814.35 Q188.037 818.933 182.227 818.933 Q176.417 818.933 173.338 814.35 Q170.282 809.744 170.282 801.017 Q170.282 792.267 173.338 787.683 Q176.417 783.077 182.227 783.077 Z" fill="#000000" fill-rule="nonzero" fill-opacity="1" /><path clip-path="url(#clip130)" d="M202.389 812.382 L207.273 812.382 L207.273 818.262 L202.389 818.262 L202.389 812.382 Z" fill="#000000" fill-rule="nonzero" fill-opacity="1" /><path clip-path="url(#clip130)" d="M227.458 786.781 Q223.847 786.781 222.018 790.345 Q220.213 793.887 220.213 801.017 Q220.213 808.123 222.018 811.688 Q223.847 815.23 227.458 815.23 Q231.092 815.23 232.898 811.688 Q234.726 808.123 234.726 801.017 Q234.726 793.887 232.898 790.345 Q231.092 786.781 227.458 786.781 M227.458 783.077 Q233.268 783.077 236.324 787.683 Q239.402 792.267 239.402 801.017 Q239.402 809.744 236.324 814.35 Q233.268 818.933 227.458 818.933 Q221.648 818.933 218.569 814.35 Q215.514 809.744 215.514 801.017 Q215.514 792.267 218.569 787.683 Q221.648 783.077 227.458 783.077 Z" fill="#000000" fill-rule="nonzero" fill-opacity="1" /><path clip-path="url(#clip130)" d="M248.43 814.327 L256.069 814.327 L256.069 787.961 L247.759 789.628 L247.759 785.369 L256.023 783.702 L260.698 783.702 L260.698 814.327 L268.337 814.327 L268.337 818.262 L248.43 818.262 L248.43 814.327 Z" fill="#000000" fill-rule="nonzero" fill-opacity="1" /><path clip-path="url(#clip130)" d="M287.782 786.781 Q284.171 786.781 282.342 790.345 Q280.536 793.887 280.536 801.017 Q280.536 808.123 282.342 811.688 Q284.171 815.23 287.782 815.23 Q291.416 815.23 293.221 811.688 Q295.05 808.123 295.05 801.017 Q295.05 793.887 293.221 790.345 Q291.416 786.781 287.782 786.781 M287.782 783.077 Q293.592 783.077 296.647 787.683 Q299.726 792.267 299.726 801.017 Q299.726 809.744 296.647 814.35 Q293.592 818.933 287.782 818.933 Q281.971 818.933 278.893 814.35 Q275.837 809.744 275.837 801.017 Q275.837 792.267 278.893 787.683 Q281.971 783.077 287.782 783.077 Z" fill="#000000" fill-rule="nonzero" fill-opacity="1" /><path clip-path="url(#clip130)" d="M183.222 329.977 Q179.611 329.977 177.782 333.542 Q175.977 337.084 175.977 344.213 Q175.977 351.32 177.782 354.884 Q179.611 358.426 183.222 358.426 Q186.856 358.426 188.662 354.884 Q190.491 351.32 190.491 344.213 Q190.491 337.084 188.662 333.542 Q186.856 329.977 183.222 329.977 M183.222 326.273 Q189.032 326.273 192.088 330.88 Q195.166 335.463 195.166 344.213 Q195.166 352.94 192.088 357.546 Q189.032 362.13 183.222 362.13 Q177.412 362.13 174.333 357.546 Q171.278 352.94 171.278 344.213 Q171.278 335.463 174.333 330.88 Q177.412 326.273 183.222 326.273 Z" fill="#000000" fill-rule="nonzero" fill-opacity="1" /><path clip-path="url(#clip130)" d="M203.384 355.579 L208.268 355.579 L208.268 361.458 L203.384 361.458 L203.384 355.579 Z" fill="#000000" fill-rule="nonzero" fill-opacity="1" /><path clip-path="url(#clip130)" d="M228.453 329.977 Q224.842 329.977 223.013 333.542 Q221.208 337.084 221.208 344.213 Q221.208 351.32 223.013 354.884 Q224.842 358.426 228.453 358.426 Q232.088 358.426 233.893 354.884 Q235.722 351.32 235.722 344.213 Q235.722 337.084 233.893 333.542 Q232.088 329.977 228.453 329.977 M228.453 326.273 Q234.263 326.273 237.319 330.88 Q240.398 335.463 240.398 344.213 Q240.398 352.94 237.319 357.546 Q234.263 362.13 228.453 362.13 Q222.643 362.13 219.564 357.546 Q216.509 352.94 216.509 344.213 Q216.509 335.463 219.564 330.88 Q222.643 326.273 228.453 326.273 Z" fill="#000000" fill-rule="nonzero" fill-opacity="1" /><path clip-path="url(#clip130)" d="M249.425 357.523 L257.064 357.523 L257.064 331.158 L248.754 332.824 L248.754 328.565 L257.018 326.898 L261.694 326.898 L261.694 357.523 L269.333 357.523 L269.333 361.458 L249.425 361.458 L249.425 357.523 Z" fill="#000000" fill-rule="nonzero" fill-opacity="1" /><path clip-path="url(#clip130)" d="M278.823 326.898 L297.18 326.898 L297.18 330.834 L283.106 330.834 L283.106 339.306 Q284.124 338.959 285.143 338.797 Q286.161 338.611 287.18 338.611 Q292.967 338.611 296.346 341.783 Q299.726 344.954 299.726 350.371 Q299.726 355.949 296.254 359.051 Q292.782 362.13 286.462 362.13 Q284.286 362.13 282.018 361.759 Q279.772 361.389 277.365 360.648 L277.365 355.949 Q279.448 357.084 281.671 357.639 Q283.893 358.195 286.37 358.195 Q290.374 358.195 292.712 356.088 Q295.05 353.982 295.05 350.371 Q295.05 346.759 292.712 344.653 Q290.374 342.547 286.37 342.547 Q284.495 342.547 282.62 342.963 Q280.768 343.38 278.823 344.26 L278.823 326.898 Z" fill="#000000" fill-rule="nonzero" fill-opacity="1" /><path clip-path="url(#clip130)" d="M73.747 1119.4 L79.2215 1119.4 Q77.8528 1121.88 77.1844 1124.39 Q76.4842 1126.88 76.4842 1129.42 Q76.4842 1135.12 80.1127 1138.27 Q83.7093 1141.42 90.2341 1141.42 Q96.759 1141.42 100.387 1138.27 Q103.984 1135.12 103.984 1129.42 Q103.984 1126.88 103.316 1124.39 Q102.615 1121.88 101.247 1119.4 L106.658 1119.4 Q107.803 1121.85 108.376 1124.49 Q108.949 1127.1 108.949 1130.06 Q108.949 1138.11 103.889 1142.85 Q98.8278 1147.6 90.2341 1147.6 Q81.5131 1147.6 76.516 1142.82 Q71.519 1138.02 71.519 1129.68 Q71.519 1126.97 72.0919 1124.39 Q72.633 1121.81 73.747 1119.4 Z" fill="#000000" fill-rule="nonzero" fill-opacity="1" /><path clip-path="url(#clip130)" d="M60.5063 1115.54 L60.5063 1075.35 L65.9171 1075.35 L65.9171 1092.21 L108.026 1092.21 L108.026 1098.68 L65.9171 1098.68 L65.9171 1115.54 L60.5063 1115.54 Z" fill="#000000" fill-rule="nonzero" fill-opacity="1" /><path clip-path="url(#clip130)" d="M86.5102 1039.76 L108.026 1039.76 L108.026 1045.62 L86.7012 1045.62 Q81.6404 1045.62 79.126 1047.59 Q76.6115 1049.56 76.6115 1053.51 Q76.6115 1058.25 79.6352 1060.99 Q82.6589 1063.73 87.8788 1063.73 L108.026 1063.73 L108.026 1069.62 L72.3783 1069.62 L72.3783 1063.73 L77.9165 1063.73 Q74.7018 1061.63 73.1104 1058.79 Q71.519 1055.93 71.519 1052.21 Q71.519 1046.06 75.3384 1042.91 Q79.126 1039.76 86.5102 1039.76 Z" fill="#000000" fill-rule="nonzero" fill-opacity="1" /><path clip-path="url(#clip130)" d="M60.5063 1034.41 L60.5063 994.214 L65.9171 994.214 L65.9171 1011.08 L108.026 1011.08 L108.026 1017.54 L65.9171 1017.54 L65.9171 1034.41 L60.5063 1034.41 Z" fill="#000000" fill-rule="nonzero" fill-opacity="1" /><path clip-path="url(#clip130)" d="M58.5011 968.083 L58.5011 954.588 L63.0526 954.588 L63.0526 962.226 L112.069 962.226 L112.069 954.588 L116.62 954.588 L116.62 968.083 L58.5011 968.083 Z" fill="#000000" fill-rule="nonzero" fill-opacity="1" /><path clip-path="url(#clip130)" d="M86.5102 912.478 L108.026 912.478 L108.026 918.335 L86.7012 918.335 Q81.6404 918.335 79.126 920.308 Q76.6115 922.282 76.6115 926.228 Q76.6115 930.971 79.6352 933.708 Q82.6589 936.445 87.8788 936.445 L108.026 936.445 L108.026 942.334 L72.3783 942.334 L72.3783 936.445 L77.9165 936.445 Q74.7018 934.345 73.1104 931.512 Q71.519 928.647 71.519 924.923 Q71.519 918.781 75.3384 915.63 Q79.126 912.478 86.5102 912.478 Z" fill="#000000" fill-rule="nonzero" fill-opacity="1" /><path clip-path="url(#clip130)" d="M89.7885 877.34 Q83.4228 877.34 79.9217 879.982 Q76.4206 882.591 76.4206 887.334 Q76.4206 892.045 79.9217 894.686 Q83.4228 897.296 89.7885 897.296 Q96.1224 897.296 99.6236 894.686 Q103.125 892.045 103.125 887.334 Q103.125 882.591 99.6236 879.982 Q96.1224 877.34 89.7885 877.34 M103.602 871.483 Q112.705 871.483 117.129 875.526 Q121.585 879.568 121.585 887.907 Q121.585 890.994 121.108 893.731 Q120.662 896.469 119.707 899.047 L114.01 899.047 Q115.411 896.469 116.079 893.954 Q116.747 891.44 116.747 888.83 Q116.747 883.069 113.724 880.204 Q110.732 877.34 104.652 877.34 L101.756 877.34 Q104.907 879.154 106.467 881.987 Q108.026 884.819 108.026 888.766 Q108.026 895.323 103.029 899.333 Q98.0321 903.344 89.7885 903.344 Q81.5131 903.344 76.516 899.333 Q71.519 895.323 71.519 888.766 Q71.519 884.819 73.0786 881.987 Q74.6382 879.154 77.7892 877.34 L72.3783 877.34 L72.3783 871.483 L103.602 871.483 Z" fill="#000000" fill-rule="nonzero" fill-opacity="1" /><path clip-path="url(#clip130)" d="M60.5063 849.012 L60.5063 843.602 L114.074 860.152 L114.074 865.563 L60.5063 849.012 Z" fill="#000000" fill-rule="nonzero" fill-opacity="1" /><path clip-path="url(#clip130)" d="M79.2215 809.704 Q75.2747 807.508 73.3968 804.452 Q71.519 801.397 71.519 797.259 Q71.519 791.689 75.4339 788.665 Q79.3169 785.642 86.5102 785.642 L108.026 785.642 L108.026 791.53 L86.7012 791.53 Q81.5768 791.53 79.0941 793.344 Q76.6115 795.159 76.6115 798.882 Q76.6115 803.434 79.6352 806.076 Q82.6589 808.717 87.8788 808.717 L108.026 808.717 L108.026 814.606 L86.7012 814.606 Q81.5449 814.606 79.0941 816.42 Q76.6115 818.234 76.6115 822.022 Q76.6115 826.51 79.6671 829.151 Q82.6908 831.793 87.8788 831.793 L108.026 831.793 L108.026 837.681 L72.3783 837.681 L72.3783 831.793 L77.9165 831.793 Q74.6382 829.788 73.0786 826.987 Q71.519 824.186 71.519 820.335 Q71.519 816.452 73.4923 813.746 Q75.4657 811.009 79.2215 809.704 Z" fill="#000000" fill-rule="nonzero" fill-opacity="1" /><path clip-path="url(#clip130)" d="M60.5063 773.706 L60.5063 767.277 L102.615 767.277 L102.615 744.137 L108.026 744.137 L108.026 773.706 L60.5063 773.706 Z" fill="#000000" fill-rule="nonzero" fill-opacity="1" /><path clip-path="url(#clip130)" d="M58.5011 723.958 L116.62 723.958 L116.62 737.453 L112.069 737.453 L112.069 729.846 L63.0526 729.846 L63.0526 737.453 L58.5011 737.453 L58.5011 723.958 Z" fill="#000000" fill-rule="nonzero" fill-opacity="1" /><circle clip-path="url(#clip132)" cx="426.707" cy="800.982" r="21.6" fill="#ff0000" fill-rule="evenodd" fill-opacity="1" stroke="#000000" stroke-opacity="1" stroke-width="6"/>
<circle clip-path="url(#clip132)" cx="695.818" cy="709.621" r="21.6" fill="#ff0000" fill-rule="evenodd" fill-opacity="1" stroke="#000000" stroke-opacity="1" stroke-width="6"/>
<circle clip-path="url(#clip132)" cx="1365.3" cy="800.982" r="21.6" fill="#ff0000" fill-rule="evenodd" fill-opacity="1" stroke="#000000" stroke-opacity="1" stroke-width="6"/>
<circle clip-path="url(#clip132)" cx="1574.97" cy="800.982" r="21.6" fill="#ff0000" fill-rule="evenodd" fill-opacity="1" stroke="#000000" stroke-opacity="1" stroke-width="6"/>
<circle clip-path="url(#clip132)" cx="1970.38" cy="709.621" r="21.6" fill="#ff0000" fill-rule="evenodd" fill-opacity="1" stroke="#000000" stroke-opacity="1" stroke-width="6"/>
<circle clip-path="url(#clip132)" cx="2293.7" cy="344.178" r="21.6" fill="#ff0000" fill-rule="evenodd" fill-opacity="1" stroke="#000000" stroke-opacity="1" stroke-width="6"/>
<circle clip-path="url(#clip132)" cx="2681.96" cy="344.178" r="21.6" fill="#ff0000" fill-rule="evenodd" fill-opacity="1" stroke="#000000" stroke-opacity="1" stroke-width="6"/>
<polyline clip-path="url(#clip132)" style="stroke:#ff8c00; stroke-linecap:round; stroke-linejoin:round; stroke-width:8; stroke-opacity:1; fill:none" stroke-dasharray="32, 20" points="425.331,1714.59 441.841,622.241 458.351,625.411 474.861,628.572 491.371,631.724 507.88,634.868 524.39,638.006 540.9,641.134 557.41,644.255 573.92,647.369 590.43,650.475 606.94,653.571 623.45,656.662 639.96,659.746 656.47,662.82 672.98,665.887 689.489,668.949 705.999,672.002 722.509,675.047 739.019,678.086 755.529,681.118 772.039,684.142 788.549,687.159 805.059,690.171 821.569,693.174 838.079,696.17 854.589,699.161 871.099,702.144 887.608,705.119 904.118,708.089 920.628,711.053 937.138,714.009 953.648,716.958 970.158,719.902 986.668,722.838 1003.18,725.768 1019.69,728.692 1036.2,731.61 1052.71,734.519 1069.22,737.424 1085.73,740.322 1102.24,743.213 1118.75,746.097 1135.26,748.976 1151.77,751.847 1168.28,754.711 1184.79,757.57 1201.3,760.423 1217.81,763.267 1234.32,766.105 1250.83,768.938 1267.34,771.762 1283.85,774.579 1300.36,777.391 1316.87,780.195 1333.38,782.991 1349.89,785.781 1366.4,788.565 1382.91,791.339 1399.42,794.107 1415.93,796.868 1432.44,799.62 1448.95,802.364 1465.46,805.101 1481.97,807.829 1498.48,810.546 1514.99,813.255 1531.49,815.952 1548,818.635 1564.51,821.301 1581.02,823.945 1597.53,826.556 1614.04,829.119 1630.55,831.607 1647.06,833.971 1663.57,836.115 1680.08,837.871 1696.59,838.945 1713.1,838.884 1729.61,837.138 1746.12,833.243 1762.63,827.022 1779.14,818.646 1795.65,808.517 1812.16,797.116 1828.67,784.868 1845.18,772.108 1861.69,759.078 1878.2,745.935 1894.71,732.788 1911.22,719.705 1927.73,706.727 1944.24,693.879 1960.75,681.18 1977.26,668.639 1993.77,656.257 2010.28,644.039 2026.79,631.988 2043.3,620.1 2059.81,608.375 2076.32,596.814 2092.83,585.413 2109.34,574.17 2125.85,563.085 2142.36,552.157 2158.87,541.381 2175.38,530.757 2191.89,520.284 2208.4,509.96 2224.91,499.781 2241.42,489.748 2257.93,479.86 2274.44,470.111 2290.95,460.503 2307.46,451.035 2323.97,441.703 2340.48,432.505 2356.99,423.443 2373.5,414.514 2390.01,405.713 2406.52,397.043 2423.03,388.502 2439.54,380.086 2456.05,371.795 2472.56,363.63 2489.07,355.586 2505.58,347.662 2522.09,339.859 2538.6,332.175 2555.11,324.607 2571.62,317.155 2588.13,309.819 2604.64,302.595 2621.15,295.482 2637.66,288.482 2654.17,281.591 2670.68,274.808 2687.19,268.132 2703.7,261.564 2720.21,255.099 2736.72,248.738 2753.23,242.482 2769.74,236.326 2786.25,230.27 2802.76,224.314 2819.27,218.458 2835.78,212.696 2852.29,207.032 2868.8,201.465 2885.31,195.99 2901.82,190.608 2918.33,185.32 2934.84,180.123 2951.35,175.014 2967.86,169.996 2984.37,165.067 3000.88,160.224 3012.16,156.965 "/>
</svg>
