<?xml version="1.0" encoding="utf-8"?>
<svg xmlns="http://www.w3.org/2000/svg" xmlns:xlink="http://www.w3.org/1999/xlink" width="600" height="400" viewBox="0 0 2400 1600">
<defs>
  <clipPath id="clip210">
    <rect x="0" y="0" width="2400" height="1600"/>
  </clipPath>
</defs>
<path clip-path="url(#clip210)" d="M0 1600 L2400 1600 L2400 0 L0 0  Z" fill="#ffffff" fill-rule="evenodd" fill-opacity="1"/>
<defs>
  <clipPath id="clip211">
    <rect x="219" y="123" width="2134" height="1301"/>
  </clipPath>
</defs>
<path clip-path="url(#clip210)" d="M219.38 1423.18 L2352.76 1423.18 L2352.76 123.472 L219.38 123.472  Z" fill="#ffffff" fill-rule="evenodd" fill-opacity="1"/>
<polyline clip-path="url(#clip211)" style="stroke:#000000; stroke-linecap:round; stroke-linejoin:round; stroke-width:2; stroke-opacity:0.1; fill:none" points="261.294,1423.18 261.294,123.472 "/>
<polyline clip-path="url(#clip211)" style="stroke:#000000; stroke-linecap:round; stroke-linejoin:round; stroke-width:2; stroke-opacity:0.1; fill:none" points="722.904,1423.18 722.904,123.472 "/>
<polyline clip-path="url(#clip211)" style="stroke:#000000; stroke-linecap:round; stroke-linejoin:round; stroke-width:2; stroke-opacity:0.1; fill:none" points="1184.51,1423.18 1184.51,123.472 "/>
<polyline clip-path="url(#clip211)" style="stroke:#000000; stroke-linecap:round; stroke-linejoin:round; stroke-width:2; stroke-opacity:0.1; fill:none" points="1646.12,1423.18 1646.12,123.472 "/>
<polyline clip-path="url(#clip211)" style="stroke:#000000; stroke-linecap:round; stroke-linejoin:round; stroke-width:2; stroke-opacity:0.1; fill:none" points="2107.73,1423.18 2107.73,123.472 "/>
<polyline clip-path="url(#clip211)" style="stroke:#000000; stroke-linecap:round; stroke-linejoin:round; stroke-width:2; stroke-opacity:0.1; fill:none" points="219.38,1386.4 2352.76,1386.4 "/>
<polyline clip-path="url(#clip211)" style="stroke:#000000; stroke-linecap:round; stroke-linejoin:round; stroke-width:2; stroke-opacity:0.1; fill:none" points="219.38,1086.93 2352.76,1086.93 "/>
<polyline clip-path="url(#clip211)" style="stroke:#000000; stroke-linecap:round; stroke-linejoin:round; stroke-width:2; stroke-opacity:0.1; fill:none" points="219.38,787.473 2352.76,787.473 "/>
<polyline clip-path="url(#clip211)" style="stroke:#000000; stroke-linecap:round; stroke-linejoin:round; stroke-width:2; stroke-opacity:0.1; fill:none" points="219.38,488.012 2352.76,488.012 "/>
<polyline clip-path="url(#clip211)" style="stroke:#000000; stroke-linecap:round; stroke-linejoin:round; stroke-width:2; stroke-opacity:0.1; fill:none" points="219.38,188.551 2352.76,188.551 "/>
<polyline clip-path="url(#clip210)" style="stroke:#000000; stroke-linecap:round; stroke-linejoin:round; stroke-width:4; stroke-opacity:1; fill:none" points="219.38,1423.18 2352.76,1423.18 "/>
<polyline clip-path="url(#clip210)" style="stroke:#000000; stroke-linecap:round; stroke-linejoin:round; stroke-width:4; stroke-opacity:1; fill:none" points="261.294,1423.18 261.294,1404.28 "/>
<polyline clip-path="url(#clip210)" style="stroke:#000000; stroke-linecap:round; stroke-linejoin:round; stroke-width:4; stroke-opacity:1; fill:none" points="722.904,1423.18 722.904,1404.28 "/>
<polyline clip-path="url(#clip210)" style="stroke:#000000; stroke-linecap:round; stroke-linejoin:round; stroke-width:4; stroke-opacity:1; fill:none" points="1184.51,1423.18 1184.51,1404.28 "/>
<polyline clip-path="url(#clip210)" style="stroke:#000000; stroke-linecap:round; stroke-linejoin:round; stroke-width:4; stroke-opacity:1; fill:none" points="1646.12,1423.18 1646.12,1404.28 "/>
<polyline clip-path="url(#clip210)" style="stroke:#000000; stroke-linecap:round; stroke-linejoin:round; stroke-width:4; stroke-opacity:1; fill:none" points="2107.73,1423.18 2107.73,1404.28 "/>
<path clip-path="url(#clip210)" d="M261.294 1454.1 Q257.683 1454.1 255.855 1457.66 Q254.049 1461.2 254.049 1468.33 Q254.049 1475.44 255.855 1479.01 Q257.683 1482.55 261.294 1482.55 Q264.929 1482.55 266.734 1479.01 Q268.563 1475.44 268.563 1468.33 Q268.563 1461.2 266.734 1457.66 Q264.929 1454.1 261.294 1454.1 M261.294 1450.39 Q267.104 1450.39 270.16 1455 Q273.239 1459.58 273.239 1468.33 Q273.239 1477.06 270.16 1481.67 Q267.104 1486.25 261.294 1486.25 Q255.484 1486.25 252.405 1481.67 Q249.35 1477.06 249.35 1468.33 Q249.35 1459.58 252.405 1455 Q255.484 1450.39 261.294 1450.39 Z" fill="#000000" fill-rule="nonzero" fill-opacity="1" /><path clip-path="url(#clip210)" d="M702.175 1481.64 L718.494 1481.64 L718.494 1485.58 L696.55 1485.58 L696.55 1481.64 Q699.212 1478.89 703.795 1474.26 Q708.402 1469.61 709.582 1468.27 Q711.828 1465.74 712.707 1464.01 Q713.61 1462.25 713.61 1460.56 Q713.61 1457.8 711.666 1456.07 Q709.744 1454.33 706.643 1454.33 Q704.444 1454.33 701.99 1455.09 Q699.559 1455.86 696.782 1457.41 L696.782 1452.69 Q699.606 1451.55 702.059 1450.97 Q704.513 1450.39 706.55 1450.39 Q711.92 1450.39 715.115 1453.08 Q718.309 1455.77 718.309 1460.26 Q718.309 1462.39 717.499 1464.31 Q716.712 1466.2 714.606 1468.8 Q714.027 1469.47 710.925 1472.69 Q707.823 1475.88 702.175 1481.64 Z" fill="#000000" fill-rule="nonzero" fill-opacity="1" /><path clip-path="url(#clip210)" d="M728.355 1451.02 L746.712 1451.02 L746.712 1454.96 L732.638 1454.96 L732.638 1463.43 Q733.656 1463.08 734.675 1462.92 Q735.693 1462.73 736.712 1462.73 Q742.499 1462.73 745.879 1465.9 Q749.258 1469.08 749.258 1474.49 Q749.258 1480.07 745.786 1483.17 Q742.314 1486.25 735.994 1486.25 Q733.818 1486.25 731.55 1485.88 Q729.305 1485.51 726.897 1484.77 L726.897 1480.07 Q728.98 1481.2 731.203 1481.76 Q733.425 1482.32 735.902 1482.32 Q739.906 1482.32 742.244 1480.21 Q744.582 1478.1 744.582 1474.49 Q744.582 1470.88 742.244 1468.77 Q739.906 1466.67 735.902 1466.67 Q734.027 1466.67 732.152 1467.08 Q730.3 1467.5 728.355 1468.38 L728.355 1451.02 Z" fill="#000000" fill-rule="nonzero" fill-opacity="1" /><path clip-path="url(#clip210)" d="M1159.21 1451.02 L1177.57 1451.02 L1177.57 1454.96 L1163.5 1454.96 L1163.5 1463.43 Q1164.51 1463.08 1165.53 1462.92 Q1166.55 1462.73 1167.57 1462.73 Q1173.36 1462.73 1176.74 1465.9 Q1180.12 1469.08 1180.12 1474.49 Q1180.12 1480.07 1176.64 1483.17 Q1173.17 1486.25 1166.85 1486.25 Q1164.68 1486.25 1162.41 1485.88 Q1160.16 1485.51 1157.75 1484.77 L1157.75 1480.07 Q1159.84 1481.2 1162.06 1481.76 Q1164.28 1482.32 1166.76 1482.32 Q1170.76 1482.32 1173.1 1480.21 Q1175.44 1478.1 1175.44 1474.49 Q1175.44 1470.88 1173.1 1468.77 Q1170.76 1466.67 1166.76 1466.67 Q1164.88 1466.67 1163.01 1467.08 Q1161.16 1467.5 1159.21 1468.38 L1159.21 1451.02 Z" fill="#000000" fill-rule="nonzero" fill-opacity="1" /><path clip-path="url(#clip210)" d="M1199.33 1454.1 Q1195.72 1454.1 1193.89 1457.66 Q1192.08 1461.2 1192.08 1468.33 Q1192.08 1475.44 1193.89 1479.01 Q1195.72 1482.55 1199.33 1482.55 Q1202.96 1482.55 1204.77 1479.01 Q1206.6 1475.44 1206.6 1468.33 Q1206.6 1461.2 1204.77 1457.66 Q1202.96 1454.1 1199.33 1454.1 M1199.33 1450.39 Q1205.14 1450.39 1208.19 1455 Q1211.27 1459.58 1211.27 1468.33 Q1211.27 1477.06 1208.19 1481.67 Q1205.14 1486.25 1199.33 1486.25 Q1193.52 1486.25 1190.44 1481.67 Q1187.38 1477.06 1187.38 1468.33 Q1187.38 1459.58 1190.44 1455 Q1193.52 1450.39 1199.33 1450.39 Z" fill="#000000" fill-rule="nonzero" fill-opacity="1" /><path clip-path="url(#clip210)" d="M1619.98 1451.02 L1642.2 1451.02 L1642.2 1453.01 L1629.65 1485.58 L1624.77 1485.58 L1636.58 1454.96 L1619.98 1454.96 L1619.98 1451.02 Z" fill="#000000" fill-rule="nonzero" fill-opacity="1" /><path clip-path="url(#clip210)" d="M1651.37 1451.02 L1669.72 1451.02 L1669.72 1454.96 L1655.65 1454.96 L1655.65 1463.43 Q1656.67 1463.08 1657.69 1462.92 Q1658.7 1462.73 1659.72 1462.73 Q1665.51 1462.73 1668.89 1465.9 Q1672.27 1469.08 1672.27 1474.49 Q1672.27 1480.07 1668.8 1483.17 Q1665.32 1486.25 1659.01 1486.25 Q1656.83 1486.25 1654.56 1485.88 Q1652.32 1485.51 1649.91 1484.77 L1649.91 1480.07 Q1651.99 1481.2 1654.21 1481.76 Q1656.44 1482.32 1658.91 1482.32 Q1662.92 1482.32 1665.26 1480.21 Q1667.59 1478.1 1667.59 1474.49 Q1667.59 1470.88 1665.26 1468.77 Q1662.92 1466.67 1658.91 1466.67 Q1657.04 1466.67 1655.16 1467.08 Q1653.31 1467.5 1651.37 1468.38 L1651.37 1451.02 Z" fill="#000000" fill-rule="nonzero" fill-opacity="1" /><path clip-path="url(#clip210)" d="M2067.34 1481.64 L2074.98 1481.64 L2074.98 1455.28 L2066.67 1456.95 L2066.67 1452.69 L2074.93 1451.02 L2079.61 1451.02 L2079.61 1481.64 L2087.25 1481.64 L2087.25 1485.58 L2067.34 1485.58 L2067.34 1481.64 Z" fill="#000000" fill-rule="nonzero" fill-opacity="1" /><path clip-path="url(#clip210)" d="M2106.69 1454.1 Q2103.08 1454.1 2101.25 1457.66 Q2099.45 1461.2 2099.45 1468.33 Q2099.45 1475.44 2101.25 1479.01 Q2103.08 1482.55 2106.69 1482.55 Q2110.33 1482.55 2112.13 1479.01 Q2113.96 1475.44 2113.96 1468.33 Q2113.96 1461.2 2112.13 1457.66 Q2110.33 1454.1 2106.69 1454.1 M2106.69 1450.39 Q2112.5 1450.39 2115.56 1455 Q2118.64 1459.58 2118.64 1468.33 Q2118.64 1477.06 2115.56 1481.67 Q2112.5 1486.25 2106.69 1486.25 Q2100.88 1486.25 2097.8 1481.67 Q2094.75 1477.06 2094.75 1468.33 Q2094.75 1459.58 2097.8 1455 Q2100.88 1450.39 2106.69 1450.39 Z" fill="#000000" fill-rule="nonzero" fill-opacity="1" /><path clip-path="url(#clip210)" d="M2136.85 1454.1 Q2133.24 1454.1 2131.41 1457.66 Q2129.61 1461.2 2129.61 1468.33 Q2129.61 1475.44 2131.41 1479.01 Q2133.24 1482.55 2136.85 1482.55 Q2140.49 1482.55 2142.29 1479.01 Q2144.12 1475.44 2144.12 1468.33 Q2144.12 1461.2 2142.29 1457.66 Q2140.49 1454.1 2136.85 1454.1 M2136.85 1450.39 Q2142.66 1450.39 2145.72 1455 Q2148.8 1459.58 2148.8 1468.33 Q2148.8 1477.06 2145.72 1481.67 Q2142.66 1486.25 2136.85 1486.25 Q2131.04 1486.25 2127.96 1481.67 Q2124.91 1477.06 2124.91 1468.33 Q2124.91 1459.58 2127.96 1455 Q2131.04 1450.39 2136.85 1450.39 Z" fill="#000000" fill-rule="nonzero" fill-opacity="1" /><path clip-path="url(#clip210)" d="M1207.94 1520.52 L1248.14 1520.52 L1248.14 1525.93 L1231.28 1525.93 L1231.28 1568.04 L1224.81 1568.04 L1224.81 1525.93 L1207.94 1525.93 L1207.94 1520.52 Z" fill="#000000" fill-rule="nonzero" fill-opacity="1" /><path clip-path="url(#clip210)" d="M1252.09 1532.4 L1257.95 1532.4 L1257.95 1568.04 L1252.09 1568.04 L1252.09 1532.4 M1252.09 1518.52 L1257.95 1518.52 L1257.95 1525.93 L1252.09 1525.93 L1252.09 1518.52 Z" fill="#000000" fill-rule="nonzero" fill-opacity="1" /><path clip-path="url(#clip210)" d="M1297.96 1539.24 Q1300.15 1535.29 1303.21 1533.41 Q1306.26 1531.54 1310.4 1531.54 Q1315.97 1531.54 1318.99 1535.45 Q1322.02 1539.33 1322.02 1546.53 L1322.02 1568.04 L1316.13 1568.04 L1316.13 1546.72 Q1316.13 1541.59 1314.32 1539.11 Q1312.5 1536.63 1308.78 1536.63 Q1304.23 1536.63 1301.58 1539.65 Q1298.94 1542.68 1298.94 1547.9 L1298.94 1568.04 L1293.05 1568.04 L1293.05 1546.72 Q1293.05 1541.56 1291.24 1539.11 Q1289.43 1536.63 1285.64 1536.63 Q1281.15 1536.63 1278.51 1539.68 Q1275.87 1542.71 1275.87 1547.9 L1275.87 1568.04 L1269.98 1568.04 L1269.98 1532.4 L1275.87 1532.4 L1275.87 1537.93 Q1277.87 1534.66 1280.67 1533.1 Q1283.47 1531.54 1287.33 1531.54 Q1291.21 1531.54 1293.91 1533.51 Q1296.65 1535.48 1297.96 1539.24 Z" fill="#000000" fill-rule="nonzero" fill-opacity="1" /><path clip-path="url(#clip210)" d="M1364.19 1548.76 L1364.19 1551.62 L1337.26 1551.62 Q1337.65 1557.67 1340.89 1560.85 Q1344.17 1564 1350 1564 Q1353.37 1564 1356.52 1563.17 Q1359.7 1562.35 1362.82 1560.69 L1362.82 1566.23 Q1359.67 1567.57 1356.36 1568.27 Q1353.05 1568.97 1349.65 1568.97 Q1341.12 1568.97 1336.12 1564 Q1331.15 1559.04 1331.15 1550.57 Q1331.15 1541.82 1335.86 1536.69 Q1340.61 1531.54 1348.63 1531.54 Q1355.82 1531.54 1359.99 1536.18 Q1364.19 1540.8 1364.19 1548.76 M1358.33 1547.04 Q1358.27 1542.23 1355.63 1539.37 Q1353.02 1536.5 1348.69 1536.5 Q1343.79 1536.5 1340.83 1539.27 Q1337.9 1542.04 1337.46 1547.07 L1358.33 1547.04 Z" fill="#000000" fill-rule="nonzero" fill-opacity="1" /><polyline clip-path="url(#clip210)" style="stroke:#000000; stroke-linecap:round; stroke-linejoin:round; stroke-width:4; stroke-opacity:1; fill:none" points="219.38,1423.18 219.38,123.472 "/>
<polyline clip-path="url(#clip210)" style="stroke:#000000; stroke-linecap:round; stroke-linejoin:round; stroke-width:4; stroke-opacity:1; fill:none" points="219.38,1386.4 238.278,1386.4 "/>
<polyline clip-path="url(#clip210)" style="stroke:#000000; stroke-linecap:round; stroke-linejoin:round; stroke-width:4; stroke-opacity:1; fill:none" points="219.38,1086.93 238.278,1086.93 "/>
<polyline clip-path="url(#clip210)" style="stroke:#000000; stroke-linecap:round; stroke-linejoin:round; stroke-width:4; stroke-opacity:1; fill:none" points="219.38,787.473 238.278,787.473 "/>
<polyline clip-path="url(#clip210)" style="stroke:#000000; stroke-linecap:round; stroke-linejoin:round; stroke-width:4; stroke-opacity:1; fill:none" points="219.38,488.012 238.278,488.012 "/>
<polyline clip-path="url(#clip210)" style="stroke:#000000; stroke-linecap:round; stroke-linejoin:round; stroke-width:4; stroke-opacity:1; fill:none" points="219.38,188.551 238.278,188.551 "/>
<path clip-path="url(#clip210)" d="M126.205 1372.19 Q122.593 1372.19 120.765 1375.76 Q118.959 1379.3 118.959 1386.43 Q118.959 1393.54 120.765 1397.1 Q122.593 1400.64 126.205 1400.64 Q129.839 1400.64 131.644 1397.1 Q133.473 1393.54 133.473 1386.43 Q133.473 1379.3 131.644 1375.76 Q129.839 1372.19 126.205 1372.19 M126.205 1368.49 Q132.015 1368.49 135.07 1373.1 Q138.149 1377.68 138.149 1386.43 Q138.149 1395.16 135.07 1399.76 Q132.015 1404.35 126.205 1404.35 Q120.394 1404.35 117.316 1399.76 Q114.26 1395.16 114.26 1386.43 Q114.26 1377.68 117.316 1373.1 Q120.394 1368.49 126.205 1368.49 Z" fill="#000000" fill-rule="nonzero" fill-opacity="1" /><path clip-path="url(#clip210)" d="M146.366 1397.8 L151.251 1397.8 L151.251 1403.68 L146.366 1403.68 L146.366 1397.8 Z" fill="#000000" fill-rule="nonzero" fill-opacity="1" /><path clip-path="url(#clip210)" d="M171.436 1372.19 Q167.825 1372.19 165.996 1375.76 Q164.19 1379.3 164.19 1386.43 Q164.19 1393.54 165.996 1397.1 Q167.825 1400.64 171.436 1400.64 Q175.07 1400.64 176.876 1397.1 Q178.704 1393.54 178.704 1386.43 Q178.704 1379.3 176.876 1375.76 Q175.07 1372.19 171.436 1372.19 M171.436 1368.49 Q177.246 1368.49 180.301 1373.1 Q183.38 1377.68 183.38 1386.43 Q183.38 1395.16 180.301 1399.76 Q177.246 1404.35 171.436 1404.35 Q165.626 1404.35 162.547 1399.76 Q159.491 1395.16 159.491 1386.43 Q159.491 1377.68 162.547 1373.1 Q165.626 1368.49 171.436 1368.49 Z" fill="#000000" fill-rule="nonzero" fill-opacity="1" /><path clip-path="url(#clip210)" d="M127.2 1072.73 Q123.589 1072.73 121.76 1076.3 Q119.955 1079.84 119.955 1086.97 Q119.955 1094.08 121.76 1097.64 Q123.589 1101.18 127.2 1101.18 Q130.834 1101.18 132.64 1097.64 Q134.468 1094.08 134.468 1086.97 Q134.468 1079.84 132.64 1076.3 Q130.834 1072.73 127.2 1072.73 M127.2 1069.03 Q133.01 1069.03 136.066 1073.64 Q139.144 1078.22 139.144 1086.97 Q139.144 1095.7 136.066 1100.3 Q133.01 1104.89 127.2 1104.89 Q121.39 1104.89 118.311 1100.3 Q115.256 1095.7 115.256 1086.97 Q115.256 1078.22 118.311 1073.64 Q121.39 1069.03 127.2 1069.03 Z" fill="#000000" fill-rule="nonzero" fill-opacity="1" /><path clip-path="url(#clip210)" d="M147.362 1098.33 L152.246 1098.33 L152.246 1104.21 L147.362 1104.21 L147.362 1098.33 Z" fill="#000000" fill-rule="nonzero" fill-opacity="1" /><path clip-path="url(#clip210)" d="M162.477 1069.65 L180.834 1069.65 L180.834 1073.59 L166.76 1073.59 L166.76 1082.06 Q167.778 1081.71 168.797 1081.55 Q169.815 1081.37 170.834 1081.37 Q176.621 1081.37 180.001 1084.54 Q183.38 1087.71 183.38 1093.13 Q183.38 1098.71 179.908 1101.81 Q176.436 1104.89 170.116 1104.89 Q167.94 1104.89 165.672 1104.52 Q163.427 1104.15 161.019 1103.4 L161.019 1098.71 Q163.102 1099.84 165.325 1100.4 Q167.547 1100.95 170.024 1100.95 Q174.028 1100.95 176.366 1098.84 Q178.704 1096.74 178.704 1093.13 Q178.704 1089.52 176.366 1087.41 Q174.028 1085.3 170.024 1085.3 Q168.149 1085.3 166.274 1085.72 Q164.422 1086.14 162.477 1087.02 L162.477 1069.65 Z" fill="#000000" fill-rule="nonzero" fill-opacity="1" /><path clip-path="url(#clip210)" d="M117.015 800.818 L124.654 800.818 L124.654 774.452 L116.343 776.119 L116.343 771.86 L124.607 770.193 L129.283 770.193 L129.283 800.818 L136.922 800.818 L136.922 804.753 L117.015 804.753 L117.015 800.818 Z" fill="#000000" fill-rule="nonzero" fill-opacity="1" /><path clip-path="url(#clip210)" d="M146.366 798.874 L151.251 798.874 L151.251 804.753 L146.366 804.753 L146.366 798.874 Z" fill="#000000" fill-rule="nonzero" fill-opacity="1" /><path clip-path="url(#clip210)" d="M171.436 773.272 Q167.825 773.272 165.996 776.837 Q164.19 780.378 164.19 787.508 Q164.19 794.614 165.996 798.179 Q167.825 801.721 171.436 801.721 Q175.07 801.721 176.876 798.179 Q178.704 794.614 178.704 787.508 Q178.704 780.378 176.876 776.837 Q175.07 773.272 171.436 773.272 M171.436 769.568 Q177.246 769.568 180.301 774.175 Q183.38 778.758 183.38 787.508 Q183.38 796.235 180.301 800.841 Q177.246 805.425 171.436 805.425 Q165.626 805.425 162.547 800.841 Q159.491 796.235 159.491 787.508 Q159.491 778.758 162.547 774.175 Q165.626 769.568 171.436 769.568 Z" fill="#000000" fill-rule="nonzero" fill-opacity="1" /><path clip-path="url(#clip210)" d="M118.01 501.357 L125.649 501.357 L125.649 474.991 L117.339 476.658 L117.339 472.399 L125.603 470.732 L130.279 470.732 L130.279 501.357 L137.917 501.357 L137.917 505.292 L118.01 505.292 L118.01 501.357 Z" fill="#000000" fill-rule="nonzero" fill-opacity="1" /><path clip-path="url(#clip210)" d="M147.362 499.412 L152.246 499.412 L152.246 505.292 L147.362 505.292 L147.362 499.412 Z" fill="#000000" fill-rule="nonzero" fill-opacity="1" /><path clip-path="url(#clip210)" d="M162.477 470.732 L180.834 470.732 L180.834 474.667 L166.76 474.667 L166.76 483.139 Q167.778 482.792 168.797 482.63 Q169.815 482.445 170.834 482.445 Q176.621 482.445 180.001 485.616 Q183.38 488.787 183.38 494.204 Q183.38 499.783 179.908 502.885 Q176.436 505.963 170.116 505.963 Q167.94 505.963 165.672 505.593 Q163.427 505.223 161.019 504.482 L161.019 499.783 Q163.102 500.917 165.325 501.473 Q167.547 502.028 170.024 502.028 Q174.028 502.028 176.366 499.922 Q178.704 497.815 178.704 494.204 Q178.704 490.593 176.366 488.487 Q174.028 486.38 170.024 486.38 Q168.149 486.38 166.274 486.797 Q164.422 487.213 162.477 488.093 L162.477 470.732 Z" fill="#000000" fill-rule="nonzero" fill-opacity="1" /><path clip-path="url(#clip210)" d="M120.232 201.896 L136.552 201.896 L136.552 205.831 L114.607 205.831 L114.607 201.896 Q117.269 199.141 121.853 194.511 Q126.459 189.859 127.64 188.516 Q129.885 185.993 130.765 184.257 Q131.667 182.498 131.667 180.808 Q131.667 178.053 129.723 176.317 Q127.802 174.581 124.7 174.581 Q122.501 174.581 120.047 175.345 Q117.617 176.109 114.839 177.66 L114.839 172.937 Q117.663 171.803 120.117 171.225 Q122.57 170.646 124.607 170.646 Q129.978 170.646 133.172 173.331 Q136.367 176.016 136.367 180.507 Q136.367 182.636 135.556 184.558 Q134.769 186.456 132.663 189.048 Q132.084 189.72 128.982 192.937 Q125.88 196.132 120.232 201.896 Z" fill="#000000" fill-rule="nonzero" fill-opacity="1" /><path clip-path="url(#clip210)" d="M146.366 199.951 L151.251 199.951 L151.251 205.831 L146.366 205.831 L146.366 199.951 Z" fill="#000000" fill-rule="nonzero" fill-opacity="1" /><path clip-path="url(#clip210)" d="M171.436 174.349 Q167.825 174.349 165.996 177.914 Q164.19 181.456 164.19 188.586 Q164.19 195.692 165.996 199.257 Q167.825 202.798 171.436 202.798 Q175.07 202.798 176.876 199.257 Q178.704 195.692 178.704 188.586 Q178.704 181.456 176.876 177.914 Q175.07 174.349 171.436 174.349 M171.436 170.646 Q177.246 170.646 180.301 175.252 Q183.38 179.836 183.38 188.586 Q183.38 197.312 180.301 201.919 Q177.246 206.502 171.436 206.502 Q165.626 206.502 162.547 201.919 Q159.491 197.312 159.491 188.586 Q159.491 179.836 162.547 175.252 Q165.626 170.646 171.436 170.646 Z" fill="#000000" fill-rule="nonzero" fill-opacity="1" /><path clip-path="url(#clip210)" d="M20.1444 820.225 L26.9239 820.225 Q23.9002 823.472 22.4043 827.164 Q20.9083 830.824 20.9083 834.962 Q20.9083 843.11 25.9054 847.439 Q30.8707 851.767 40.2919 851.767 Q49.6813 851.767 54.6784 847.439 Q59.6436 843.11 59.6436 834.962 Q59.6436 830.824 58.1477 827.164 Q56.6518 823.472 53.6281 820.225 L60.3439 820.225 Q62.6355 823.599 63.7814 827.387 Q64.9272 831.143 64.9272 835.344 Q64.9272 846.134 58.3387 852.34 Q51.7183 858.547 40.2919 858.547 Q28.8336 858.547 22.2451 852.34 Q15.6248 846.134 15.6248 835.344 Q15.6248 831.079 16.7706 827.323 Q17.8846 823.535 20.1444 820.225 Z" fill="#000000" fill-rule="nonzero" fill-opacity="1" /><path clip-path="url(#clip210)" d="M16.4842 816.883 L16.4842 776.684 L21.895 776.684 L21.895 793.553 L64.0042 793.553 L64.0042 800.014 L21.895 800.014 L21.895 816.883 L16.4842 816.883 Z" fill="#000000" fill-rule="nonzero" fill-opacity="1" /><path clip-path="url(#clip210)" d="M16.4842 770.477 L16.4842 761.82 L56.238 740.749 L16.4842 740.749 L16.4842 734.511 L64.0042 734.511 L64.0042 743.168 L24.2503 764.239 L64.0042 764.239 L64.0042 770.477 L16.4842 770.477 Z" fill="#000000" fill-rule="nonzero" fill-opacity="1" /><path clip-path="url(#clip210)" d="M16.4842 728.305 L16.4842 688.105 L21.895 688.105 L21.895 704.974 L64.0042 704.974 L64.0042 711.435 L21.895 711.435 L21.895 728.305 L16.4842 728.305 Z" fill="#000000" fill-rule="nonzero" fill-opacity="1" /><path clip-path="url(#clip210)" d="M822.057 14.0809 L822.057 22.0612 Q817.399 19.8332 813.267 18.7395 Q809.135 17.6457 805.286 17.6457 Q798.602 17.6457 794.957 20.2383 Q791.351 22.8309 791.351 27.611 Q791.351 31.6214 793.741 33.6873 Q796.172 35.7128 802.896 36.9686 L807.839 37.9813 Q816.994 39.7232 821.328 44.1387 Q825.703 48.5136 825.703 55.8863 Q825.703 64.6767 819.789 69.2137 Q813.915 73.7508 802.532 73.7508 Q798.238 73.7508 793.377 72.7785 Q788.556 71.8063 783.371 69.9024 L783.371 61.4765 Q788.354 64.2716 793.134 65.6895 Q797.914 67.1073 802.532 67.1073 Q809.54 67.1073 813.348 64.3527 Q817.156 61.598 817.156 56.4939 Q817.156 52.0379 814.401 49.5264 Q811.687 47.0148 805.449 45.759 L800.466 44.7868 Q791.311 42.9639 787.219 39.075 Q783.128 35.1862 783.128 28.2591 Q783.128 20.2383 788.759 15.6203 Q794.43 11.0023 804.355 11.0023 Q808.608 11.0023 813.024 11.7719 Q817.439 12.5416 822.057 14.0809 Z" fill="#000000" fill-rule="nonzero" fill-opacity="1" /><path clip-path="url(#clip210)" d="M837.37 54.671 L837.37 27.2059 L844.823 27.2059 L844.823 54.3874 Q844.823 60.8284 847.335 64.0691 Q849.846 67.2693 854.87 67.2693 Q860.905 67.2693 864.389 63.421 Q867.913 59.5726 867.913 52.9291 L867.913 27.2059 L875.367 27.2059 L875.367 72.576 L867.913 72.576 L867.913 65.6084 Q865.199 69.7404 861.594 71.7658 Q858.029 73.7508 853.29 73.7508 Q845.471 73.7508 841.421 68.8897 Q837.37 64.0286 837.37 54.671 M856.125 26.1121 L856.125 26.1121 Z" fill="#000000" fill-rule="nonzero" fill-opacity="1" /><path clip-path="url(#clip210)" d="M917.01 34.1734 Q915.755 33.4443 914.256 33.1202 Q912.797 32.7556 911.015 32.7556 Q904.696 32.7556 901.293 36.8875 Q897.931 40.9789 897.931 48.6757 L897.931 72.576 L890.436 72.576 L890.436 27.2059 L897.931 27.2059 L897.931 34.2544 Q900.28 30.1225 904.048 28.1376 Q907.815 26.1121 913.203 26.1121 Q913.972 26.1121 914.904 26.2337 Q915.836 26.3147 916.97 26.5172 L917.01 34.1734 Z" fill="#000000" fill-rule="nonzero" fill-opacity="1" /><path clip-path="url(#clip210)" d="M949.661 34.1734 Q948.405 33.4443 946.906 33.1202 Q945.448 32.7556 943.665 32.7556 Q937.346 32.7556 933.943 36.8875 Q930.581 40.9789 930.581 48.6757 L930.581 72.576 L923.087 72.576 L923.087 27.2059 L930.581 27.2059 L930.581 34.2544 Q932.93 30.1225 936.698 28.1376 Q940.465 26.1121 945.853 26.1121 Q946.623 26.1121 947.554 26.2337 Q948.486 26.3147 949.62 26.5172 L949.661 34.1734 Z" fill="#000000" fill-rule="nonzero" fill-opacity="1" /><path clip-path="url(#clip210)" d="M973.237 32.4315 Q967.242 32.4315 963.758 37.1306 Q960.274 41.7891 960.274 49.9314 Q960.274 58.0738 963.717 62.7728 Q967.201 67.4314 973.237 67.4314 Q979.192 67.4314 982.676 62.7323 Q986.159 58.0333 986.159 49.9314 Q986.159 41.8701 982.676 37.1711 Q979.192 32.4315 973.237 32.4315 M973.237 26.1121 Q982.959 26.1121 988.509 32.4315 Q994.059 38.7509 994.059 49.9314 Q994.059 61.0714 988.509 67.4314 Q982.959 73.7508 973.237 73.7508 Q963.474 73.7508 957.925 67.4314 Q952.415 61.0714 952.415 49.9314 Q952.415 38.7509 957.925 32.4315 Q963.474 26.1121 973.237 26.1121 Z" fill="#000000" fill-rule="nonzero" fill-opacity="1" /><path clip-path="url(#clip210)" d="M1036.27 49.3643 Q1036.27 41.2625 1032.91 36.8065 Q1029.59 32.3505 1023.55 32.3505 Q1017.55 32.3505 1014.19 36.8065 Q1010.87 41.2625 1010.87 49.3643 Q1010.87 57.4256 1014.19 61.8816 Q1017.55 66.3376 1023.55 66.3376 Q1029.59 66.3376 1032.91 61.8816 Q1036.27 57.4256 1036.27 49.3643 M1043.72 66.9452 Q1043.72 78.5308 1038.58 84.1616 Q1033.43 89.8329 1022.82 89.8329 Q1018.89 89.8329 1015.41 89.2252 Q1011.92 88.6581 1008.64 87.4428 L1008.64 80.1917 Q1011.92 81.9741 1015.12 82.8248 Q1018.32 83.6755 1021.65 83.6755 Q1028.98 83.6755 1032.62 79.8271 Q1036.27 76.0193 1036.27 68.282 L1036.27 64.5957 Q1033.96 68.6061 1030.35 70.5911 Q1026.75 72.576 1021.73 72.576 Q1013.38 72.576 1008.28 66.2161 Q1003.17 59.8562 1003.17 49.3643 Q1003.17 38.832 1008.28 32.472 Q1013.38 26.1121 1021.73 26.1121 Q1026.75 26.1121 1030.35 28.0971 Q1033.96 30.082 1036.27 34.0924 L1036.27 27.2059 L1043.72 27.2059 L1043.72 66.9452 Z" fill="#000000" fill-rule="nonzero" fill-opacity="1" /><path clip-path="url(#clip210)" d="M1079.69 49.7694 Q1070.66 49.7694 1067.18 51.8354 Q1063.69 53.9013 1063.69 58.8839 Q1063.69 62.8538 1066.29 65.2034 Q1068.92 67.5124 1073.42 67.5124 Q1079.61 67.5124 1083.34 63.1374 Q1087.11 58.7219 1087.11 51.4303 L1087.11 49.7694 L1079.69 49.7694 M1094.56 46.6907 L1094.56 72.576 L1087.11 72.576 L1087.11 65.6895 Q1084.56 69.8214 1080.75 71.8063 Q1076.94 73.7508 1071.43 73.7508 Q1064.46 73.7508 1060.33 69.8619 Q1056.24 65.9325 1056.24 59.3701 Q1056.24 51.7138 1061.34 47.825 Q1066.49 43.9361 1076.66 43.9361 L1087.11 43.9361 L1087.11 43.2069 Q1087.11 38.0623 1083.71 35.2672 Q1080.34 32.4315 1074.23 32.4315 Q1070.34 32.4315 1066.65 33.3632 Q1062.96 34.295 1059.56 36.1584 L1059.56 29.2718 Q1063.65 27.692 1067.5 26.9223 Q1071.35 26.1121 1075 26.1121 Q1084.84 26.1121 1089.7 31.2163 Q1094.56 36.3204 1094.56 46.6907 Z" fill="#000000" fill-rule="nonzero" fill-opacity="1" /><path clip-path="url(#clip210)" d="M1117.29 14.324 L1117.29 27.2059 L1132.64 27.2059 L1132.64 32.9987 L1117.29 32.9987 L1117.29 57.6282 Q1117.29 63.1779 1118.79 64.7578 Q1120.33 66.3376 1124.98 66.3376 L1132.64 66.3376 L1132.64 72.576 L1124.98 72.576 Q1116.36 72.576 1113.07 69.3758 Q1109.79 66.1351 1109.79 57.6282 L1109.79 32.9987 L1104.32 32.9987 L1104.32 27.2059 L1109.79 27.2059 L1109.79 14.324 L1117.29 14.324 Z" fill="#000000" fill-rule="nonzero" fill-opacity="1" /><path clip-path="url(#clip210)" d="M1181.25 48.0275 L1181.25 51.6733 L1146.98 51.6733 Q1147.47 59.3701 1151.6 63.421 Q1155.77 67.4314 1163.18 67.4314 Q1167.48 67.4314 1171.49 66.3781 Q1175.54 65.3249 1179.51 63.2184 L1179.51 70.267 Q1175.5 71.9684 1171.29 72.8596 Q1167.07 73.7508 1162.74 73.7508 Q1151.88 73.7508 1145.52 67.4314 Q1139.2 61.1119 1139.2 50.3365 Q1139.2 39.1965 1145.2 32.6746 Q1151.23 26.1121 1161.44 26.1121 Q1170.6 26.1121 1175.9 32.0264 Q1181.25 37.9003 1181.25 48.0275 M1173.8 45.84 Q1173.72 39.7232 1170.35 36.0774 Q1167.03 32.4315 1161.52 32.4315 Q1155.28 32.4315 1151.52 35.9558 Q1147.79 39.4801 1147.22 45.8805 L1173.8 45.84 Z" fill="#000000" fill-rule="nonzero" fill-opacity="1" /><path clip-path="url(#clip210)" d="M1216.09 46.5287 L1237.92 46.5287 L1237.92 53.1722 L1216.09 53.1722 L1216.09 46.5287 Z" fill="#000000" fill-rule="nonzero" fill-opacity="1" /><path clip-path="url(#clip210)" d="M1284.67 18.8205 L1284.67 41.5461 L1294.96 41.5461 Q1300.67 41.5461 1303.79 38.5889 Q1306.91 35.6318 1306.91 30.163 Q1306.91 24.7348 1303.79 21.7777 Q1300.67 18.8205 1294.96 18.8205 L1284.67 18.8205 M1276.49 12.096 L1294.96 12.096 Q1305.13 12.096 1310.31 16.714 Q1315.54 21.2916 1315.54 30.163 Q1315.54 39.1155 1310.31 43.6931 Q1305.13 48.2706 1294.96 48.2706 L1284.67 48.2706 L1284.67 72.576 L1276.49 72.576 L1276.49 12.096 Z" fill="#000000" fill-rule="nonzero" fill-opacity="1" /><path clip-path="url(#clip210)" d="M1343.08 49.7694 Q1334.05 49.7694 1330.57 51.8354 Q1327.08 53.9013 1327.08 58.8839 Q1327.08 62.8538 1329.68 65.2034 Q1332.31 67.5124 1336.81 67.5124 Q1343 67.5124 1346.73 63.1374 Q1350.5 58.7219 1350.5 51.4303 L1350.5 49.7694 L1343.08 49.7694 M1357.95 46.6907 L1357.95 72.576 L1350.5 72.576 L1350.5 65.6895 Q1347.95 69.8214 1344.14 71.8063 Q1340.33 73.7508 1334.82 73.7508 Q1327.85 73.7508 1323.72 69.8619 Q1319.63 65.9325 1319.63 59.3701 Q1319.63 51.7138 1324.73 47.825 Q1329.88 43.9361 1340.05 43.9361 L1350.5 43.9361 L1350.5 43.2069 Q1350.5 38.0623 1347.09 35.2672 Q1343.73 32.4315 1337.62 32.4315 Q1333.73 32.4315 1330.04 33.3632 Q1326.35 34.295 1322.95 36.1584 L1322.95 29.2718 Q1327.04 27.692 1330.89 26.9223 Q1334.74 26.1121 1338.39 26.1121 Q1348.23 26.1121 1353.09 31.2163 Q1357.95 36.3204 1357.95 46.6907 Z" fill="#000000" fill-rule="nonzero" fill-opacity="1" /><path clip-path="url(#clip210)" d="M1380.68 14.324 L1380.68 27.2059 L1396.03 27.2059 L1396.03 32.9987 L1380.68 32.9987 L1380.68 57.6282 Q1380.68 63.1779 1382.18 64.7578 Q1383.72 66.3376 1388.37 66.3376 L1396.03 66.3376 L1396.03 72.576 L1388.37 72.576 Q1379.75 72.576 1376.46 69.3758 Q1373.18 66.1351 1373.18 57.6282 L1373.18 32.9987 L1367.71 32.9987 L1367.71 27.2059 L1373.18 27.2059 L1373.18 14.324 L1380.68 14.324 Z" fill="#000000" fill-rule="nonzero" fill-opacity="1" /><path clip-path="url(#clip210)" d="M1405.83 27.2059 L1413.29 27.2059 L1413.29 72.576 L1405.83 72.576 L1405.83 27.2059 M1405.83 9.54393 L1413.29 9.54393 L1413.29 18.9825 L1405.83 18.9825 L1405.83 9.54393 Z" fill="#000000" fill-rule="nonzero" fill-opacity="1" /><path clip-path="url(#clip210)" d="M1467.69 48.0275 L1467.69 51.6733 L1433.42 51.6733 Q1433.91 59.3701 1438.04 63.421 Q1442.21 67.4314 1449.62 67.4314 Q1453.92 67.4314 1457.93 66.3781 Q1461.98 65.3249 1465.95 63.2184 L1465.95 70.267 Q1461.94 71.9684 1457.73 72.8596 Q1453.51 73.7508 1449.18 73.7508 Q1438.32 73.7508 1431.96 67.4314 Q1425.64 61.1119 1425.64 50.3365 Q1425.64 39.1965 1431.64 32.6746 Q1437.67 26.1121 1447.88 26.1121 Q1457.04 26.1121 1462.34 32.0264 Q1467.69 37.9003 1467.69 48.0275 M1460.24 45.84 Q1460.16 39.7232 1456.79 36.0774 Q1453.47 32.4315 1447.96 32.4315 Q1441.72 32.4315 1437.96 35.9558 Q1434.23 39.4801 1433.66 45.8805 L1460.24 45.84 Z" fill="#000000" fill-rule="nonzero" fill-opacity="1" /><path clip-path="url(#clip210)" d="M1517.64 45.1919 L1517.64 72.576 L1510.18 72.576 L1510.18 45.4349 Q1510.18 38.994 1507.67 35.7938 Q1505.16 32.5936 1500.14 32.5936 Q1494.1 32.5936 1490.62 36.4419 Q1487.13 40.2903 1487.13 46.9338 L1487.13 72.576 L1479.64 72.576 L1479.64 27.2059 L1487.13 27.2059 L1487.13 34.2544 Q1489.81 30.163 1493.41 28.1376 Q1497.06 26.1121 1501.8 26.1121 Q1509.62 26.1121 1513.63 30.9732 Q1517.64 35.7938 1517.64 45.1919 Z" fill="#000000" fill-rule="nonzero" fill-opacity="1" /><path clip-path="url(#clip210)" d="M1539.88 14.324 L1539.88 27.2059 L1555.23 27.2059 L1555.23 32.9987 L1539.88 32.9987 L1539.88 57.6282 Q1539.88 63.1779 1541.38 64.7578 Q1542.92 66.3376 1547.57 66.3376 L1555.23 66.3376 L1555.23 72.576 L1547.57 72.576 Q1538.95 72.576 1535.66 69.3758 Q1532.38 66.1351 1532.38 57.6282 L1532.38 32.9987 L1526.91 32.9987 L1526.91 27.2059 L1532.38 27.2059 L1532.38 14.324 L1539.88 14.324 Z" fill="#000000" fill-rule="nonzero" fill-opacity="1" /><path clip-path="url(#clip210)" d="M1629.12 45.1919 L1629.12 72.576 L1621.67 72.576 L1621.67 45.4349 Q1621.67 38.994 1619.15 35.7938 Q1616.64 32.5936 1611.62 32.5936 Q1605.58 32.5936 1602.1 36.4419 Q1598.62 40.2903 1598.62 46.9338 L1598.62 72.576 L1591.12 72.576 L1591.12 27.2059 L1598.62 27.2059 L1598.62 34.2544 Q1601.29 30.163 1604.89 28.1376 Q1608.54 26.1121 1613.28 26.1121 Q1621.1 26.1121 1625.11 30.9732 Q1629.12 35.7938 1629.12 45.1919 Z" fill="#000000" fill-rule="nonzero" fill-opacity="1" /><path clip-path="url(#clip210)" d="M1667.52 19.2256 L1646.86 51.5113 L1667.52 51.5113 L1667.52 19.2256 M1665.37 12.096 L1675.66 12.096 L1675.66 51.5113 L1684.29 51.5113 L1684.29 58.3168 L1675.66 58.3168 L1675.66 72.576 L1667.52 72.576 L1667.52 58.3168 L1640.22 58.3168 L1640.22 50.4176 L1665.37 12.096 Z" fill="#000000" fill-rule="nonzero" fill-opacity="1" /><path clip-path="url(#clip210)" d="M1716.33 39.075 Q1710.83 39.075 1707.58 42.8424 Q1704.38 46.6097 1704.38 53.1722 Q1704.38 59.6941 1707.58 63.502 Q1710.83 67.2693 1716.33 67.2693 Q1721.84 67.2693 1725.04 63.502 Q1728.28 59.6941 1728.28 53.1722 Q1728.28 46.6097 1725.04 42.8424 Q1721.84 39.075 1716.33 39.075 M1732.58 13.4328 L1732.58 20.8865 Q1729.5 19.4281 1726.34 18.6585 Q1723.22 17.8888 1720.14 17.8888 Q1712.04 17.8888 1707.75 23.3575 Q1703.49 28.8262 1702.89 39.8852 Q1705.28 36.3609 1708.88 34.4975 Q1712.49 32.5936 1716.82 32.5936 Q1725.94 32.5936 1731.2 38.1433 Q1736.51 43.6525 1736.51 53.1722 Q1736.51 62.4892 1731 68.12 Q1725.49 73.7508 1716.33 73.7508 Q1705.84 73.7508 1700.29 65.73 Q1694.74 57.6687 1694.74 42.3968 Q1694.74 28.0566 1701.55 19.5497 Q1708.35 11.0023 1719.82 11.0023 Q1722.9 11.0023 1726.02 11.6099 Q1729.18 12.2175 1732.58 13.4328 Z" fill="#000000" fill-rule="nonzero" fill-opacity="1" /><path clip-path="url(#clip210)" d="M1768.11 17.4837 Q1761.79 17.4837 1758.59 23.7221 Q1755.43 29.92 1755.43 42.3968 Q1755.43 54.833 1758.59 61.0714 Q1761.79 67.2693 1768.11 67.2693 Q1774.47 67.2693 1777.63 61.0714 Q1780.83 54.833 1780.83 42.3968 Q1780.83 29.92 1777.63 23.7221 Q1774.47 17.4837 1768.11 17.4837 M1768.11 11.0023 Q1778.27 11.0023 1783.62 19.0636 Q1789.01 27.0843 1789.01 42.3968 Q1789.01 57.6687 1783.62 65.73 Q1778.27 73.7508 1768.11 73.7508 Q1757.94 73.7508 1752.55 65.73 Q1747.2 57.6687 1747.2 42.3968 Q1747.2 27.0843 1752.55 19.0636 Q1757.94 11.0023 1768.11 11.0023 Z" fill="#000000" fill-rule="nonzero" fill-opacity="1" /><polyline clip-path="url(#clip211)" style="stroke:#009af9; stroke-linecap:round; stroke-linejoin:round; stroke-width:8; stroke-opacity:1; fill:none" points="279.759,226.024 298.223,226.024 316.687,226.024 335.152,226.024 353.616,226.024 372.081,226.024 390.545,226.025 409.009,226.026 427.474,226.03 445.938,226.035 464.403,226.045 482.867,226.061 501.331,226.085 519.796,226.12 538.26,226.17 556.725,226.24 575.189,226.335 593.653,226.461 612.118,226.626 630.582,226.838 649.047,227.106 667.511,227.442 685.975,227.857 704.44,228.366 722.904,228.981 741.368,229.721 759.833,230.602 778.297,231.643 796.762,232.866 815.226,234.291 833.69,235.942 852.155,237.844 870.619,240.023 889.084,242.507 907.548,245.324 926.012,248.503 944.477,252.074 962.941,256.069 981.406,260.52 999.87,265.457 1018.33,270.913 1036.8,276.92 1055.26,283.506 1073.73,290.703 1092.19,298.539 1110.66,307.041 1129.12,316.231 1147.59,326.132 1166.05,336.761 1184.51,348.134 1202.98,360.261 1221.44,373.148 1239.91,386.795 1258.37,401.198 1276.84,416.348 1295.3,432.228 1313.76,448.816 1332.23,466.085 1350.69,483.999 1369.16,502.516 1387.62,521.59 1406.09,541.17 1424.55,561.197 1443.02,581.611 1461.48,602.343 1479.94,623.324 1498.41,644.483 1516.87,665.744 1535.34,687.032 1553.8,708.276 1572.27,729.404 1590.73,750.349 1609.19,771.046 1627.66,791.429 1646.12,811.447 1664.59,831.043 1683.05,850.168 1701.52,868.785 1719.98,886.869 1738.45,904.41 1756.91,921.387 1775.37,937.765 1793.84,953.528 1812.3,968.684 1830.77,983.259 1849.23,997.295 1867.7,1010.78 1886.16,1023.7 1904.63,1036.07 1923.09,1047.92 1941.55,1059.31 1960.02,1070.29 1978.48,1080.8 1996.95,1090.86 2015.41,1100.5 2033.88,1109.77 2052.34,1118.76 2070.8,1127.41 2089.27,1135.7 2107.73,1143.66 2126.2,1151.33 2144.66,1158.78 2163.13,1166 2181.59,1172.94 2200.06,1179.6 2218.52,1186.01 2236.98,1192.26 2255.45,1198.32 2273.91,1204.17 2292.38,1207.4 "/>
<polyline clip-path="url(#clip211)" style="stroke:#e26f46; stroke-linecap:round; stroke-linejoin:round; stroke-width:8; stroke-opacity:1; fill:none" points="279.759,160.256 298.223,256.244 316.687,339.025 335.152,411.79 353.616,476.771 372.081,535.541 390.545,589.228 409.009,638.645 427.474,684.396 445.938,726.935 464.403,766.612 482.867,803.705 501.331,838.441 519.796,871.004 538.26,901.557 556.725,930.236 575.189,957.163 593.653,982.448 612.118,1006.19 630.582,1028.47 649.047,1049.38 667.511,1068.98 685.975,1087.35 704.44,1104.54 722.904,1120.62 741.368,1135.63 759.833,1149.63 778.297,1162.65 796.762,1174.73 815.226,1185.91 833.69,1196.22 852.155,1205.69 870.619,1214.34 889.084,1222.2 907.548,1229.29 926.012,1235.63 944.477,1241.23 962.941,1246.11 981.406,1250.29 999.87,1253.76 1018.33,1256.56 1036.8,1258.68 1055.26,1260.15 1073.73,1260.97 1092.19,1261.16 1110.66,1260.72 1129.12,1259.68 1147.59,1258.05 1166.05,1255.85 1184.51,1253.1 1202.98,1249.82 1221.44,1246.04 1239.91,1241.79 1258.37,1237.11 1276.84,1232.02 1295.3,1226.57 1313.76,1220.8 1332.23,1214.75 1350.69,1208.48 1369.16,1202.03 1387.62,1195.46 1406.09,1188.83 1424.55,1182.19 1443.02,1175.6 1461.48,1169.11 1479.94,1162.79 1498.41,1156.69 1516.87,1150.86 1535.34,1145.36 1553.8,1140.26 1572.27,1135.58 1590.73,1131.36 1609.19,1127.63 1627.66,1124.39 1646.12,1121.68 1664.59,1119.52 1683.05,1117.94 1701.52,1116.92 1719.98,1116.46 1738.45,1116.51 1756.91,1117.07 1775.37,1118.15 1793.84,1119.74 1812.3,1121.82 1830.77,1124.29 1849.23,1127.09 1867.7,1130.2 1886.16,1133.66 1904.63,1137.43 1923.09,1141.46 1941.55,1145.64 1960.02,1149.94 1978.48,1154.4 1996.95,1159.02 2015.41,1163.78 2033.88,1168.57 2052.34,1173.31 2070.8,1178.07 2089.27,1182.88 2107.73,1187.73 2126.2,1192.55 2144.66,1197.26 2163.13,1201.9 2181.59,1206.52 2200.06,1211.14 2218.52,1215.71 2236.98,1220.14 2255.45,1224.48 2273.91,1228.76 2292.38,1231.15 "/>
<polyline clip-path="url(#clip211)" style="stroke:#3da44d; stroke-linecap:round; stroke-linejoin:round; stroke-width:8; stroke-opacity:1; fill:none" points="279.759,1386.4 298.223,1302.85 316.687,1250.96 335.152,1220.32 353.616,1203.84 372.081,1196.75 390.545,1195.79 409.009,1198.78 427.474,1204.24 445.938,1211.17 464.403,1218.92 482.867,1227.04 501.331,1235.25 519.796,1243.36 538.26,1251.24 556.725,1258.84 575.189,1266.11 593.653,1273.02 612.118,1279.58 630.582,1285.78 649.047,1291.63 667.511,1297.15 685.975,1302.34 704.44,1307.22 722.904,1311.8 741.368,1316.09 759.833,1320.11 778.297,1323.87 796.762,1327.38 815.226,1330.65 833.69,1333.69 852.155,1336.51 870.619,1339.11 889.084,1341.52 907.548,1343.72 926.012,1345.74 944.477,1347.56 962.941,1349.19 981.406,1350.66 999.87,1351.95 1018.33,1353.08 1036.8,1354.04 1055.26,1354.82 1073.73,1355.45 1092.19,1355.92 1110.66,1356.24 1129.12,1356.42 1147.59,1356.44 1166.05,1356.31 1184.51,1356.04 1202.98,1355.64 1221.44,1355.12 1239.91,1354.47 1258.37,1353.69 1276.84,1352.8 1295.3,1351.8 1313.76,1350.7 1332.23,1349.53 1350.69,1348.27 1369.16,1346.93 1387.62,1345.54 1406.09,1344.1 1424.55,1342.62 1443.02,1341.12 1461.48,1339.61 1479.94,1338.11 1498.41,1336.67 1516.87,1335.26 1535.34,1333.86 1553.8,1332.47 1572.27,1331.1 1590.73,1329.8 1609.19,1328.6 1627.66,1327.58 1646.12,1326.69 1664.59,1325.91 1683.05,1325.21 1701.52,1324.61 1719.98,1324.13 1738.45,1323.83 1756.91,1323.67 1775.37,1323.61 1793.84,1323.62 1812.3,1323.72 1830.77,1323.95 1849.23,1324.36 1867.7,1324.87 1886.16,1325.45 1904.63,1326.09 1923.09,1326.78 1941.55,1327.59 1960.02,1328.49 1978.48,1329.43 1996.95,1330.38 2015.41,1331.34 2033.88,1332.35 2052.34,1333.44 2070.8,1334.55 2089.27,1335.64 2107.73,1336.73 2126.2,1337.82 2144.66,1338.94 2163.13,1340.08 2181.59,1341.19 2200.06,1342.27 2218.52,1343.34 2236.98,1344.41 2255.45,1345.49 2273.91,1346.54 2292.38,1347.13 "/>
<circle clip-path="url(#clip211)" cx="431.167" cy="1170.78" r="18" fill="#c271d2" fill-rule="evenodd" fill-opacity="1" stroke="#000000" stroke-opacity="1" stroke-width="3.2"/>
<circle clip-path="url(#clip211)" cx="543.8" cy="1254.63" r="18" fill="#c271d2" fill-rule="evenodd" fill-opacity="1" stroke="#000000" stroke-opacity="1" stroke-width="3.2"/>
<circle clip-path="url(#clip211)" cx="703.516" cy="1302.55" r="18" fill="#c271d2" fill-rule="evenodd" fill-opacity="1" stroke="#000000" stroke-opacity="1" stroke-width="3.2"/>
<circle clip-path="url(#clip211)" cx="1557.49" cy="1332.49" r="18" fill="#c271d2" fill-rule="evenodd" fill-opacity="1" stroke="#000000" stroke-opacity="1" stroke-width="3.2"/>
<circle clip-path="url(#clip211)" cx="1701.82" cy="1332.49" r="18" fill="#c271d2" fill-rule="evenodd" fill-opacity="1" stroke="#000000" stroke-opacity="1" stroke-width="3.2"/>
<circle clip-path="url(#clip211)" cx="1850.16" cy="1326.5" r="18" fill="#c271d2" fill-rule="evenodd" fill-opacity="1" stroke="#000000" stroke-opacity="1" stroke-width="3.2"/>
<circle clip-path="url(#clip211)" cx="2081.27" cy="1344.47" r="18" fill="#c271d2" fill-rule="evenodd" fill-opacity="1" stroke="#000000" stroke-opacity="1" stroke-width="3.2"/>
<path clip-path="url(#clip210)" d="M1718.93 425.996 L2281.64 425.996 L2281.64 166.796 L1718.93 166.796  Z" fill="#ffffff" fill-rule="evenodd" fill-opacity="1"/>
<polyline clip-path="url(#clip210)" style="stroke:#000000; stroke-linecap:round; stroke-linejoin:round; stroke-width:4; stroke-opacity:1; fill:none" points="1718.93,425.996 2281.64,425.996 2281.64,166.796 1718.93,166.796 1718.93,425.996 "/>
<polyline clip-path="url(#clip210)" style="stroke:#009af9; stroke-linecap:round; stroke-linejoin:round; stroke-width:8; stroke-opacity:1; fill:none" points="1742.64,218.636 1884.86,218.636 "/>
<path clip-path="url(#clip210)" d="M1930.81 202.49 L1930.81 207.05 Q1928.15 205.777 1925.79 205.152 Q1923.43 204.527 1921.23 204.527 Q1917.41 204.527 1915.33 206.008 Q1913.27 207.49 1913.27 210.221 Q1913.27 212.513 1914.63 213.694 Q1916.02 214.851 1919.86 215.569 L1922.69 216.147 Q1927.92 217.143 1930.39 219.666 Q1932.89 222.166 1932.89 226.379 Q1932.89 231.402 1929.52 233.994 Q1926.16 236.587 1919.65 236.587 Q1917.2 236.587 1914.42 236.031 Q1911.67 235.476 1908.7 234.388 L1908.7 229.573 Q1911.55 231.17 1914.28 231.981 Q1917.02 232.791 1919.65 232.791 Q1923.66 232.791 1925.83 231.217 Q1928.01 229.643 1928.01 226.726 Q1928.01 224.18 1926.44 222.744 Q1924.89 221.309 1921.32 220.592 L1918.47 220.036 Q1913.24 218.995 1910.9 216.772 Q1908.57 214.55 1908.57 210.592 Q1908.57 206.008 1911.78 203.37 Q1915.02 200.731 1920.7 200.731 Q1923.13 200.731 1925.65 201.171 Q1928.17 201.61 1930.81 202.49 Z" fill="#000000" fill-rule="nonzero" fill-opacity="1" /><path clip-path="url(#clip210)" d="M1951.78 222.883 Q1946.62 222.883 1944.63 224.064 Q1942.64 225.244 1942.64 228.092 Q1942.64 230.36 1944.12 231.703 Q1945.63 233.022 1948.2 233.022 Q1951.74 233.022 1953.87 230.522 Q1956.02 227.999 1956.02 223.832 L1956.02 222.883 L1951.78 222.883 M1960.28 221.124 L1960.28 235.916 L1956.02 235.916 L1956.02 231.981 Q1954.56 234.342 1952.39 235.476 Q1950.21 236.587 1947.06 236.587 Q1943.08 236.587 1940.72 234.365 Q1938.38 232.119 1938.38 228.369 Q1938.38 223.994 1941.3 221.772 Q1944.24 219.55 1950.05 219.55 L1956.02 219.55 L1956.02 219.133 Q1956.02 216.194 1954.08 214.596 Q1952.15 212.976 1948.66 212.976 Q1946.44 212.976 1944.33 213.508 Q1942.22 214.041 1940.28 215.106 L1940.28 211.17 Q1942.62 210.268 1944.82 209.828 Q1947.01 209.365 1949.1 209.365 Q1954.72 209.365 1957.5 212.282 Q1960.28 215.198 1960.28 221.124 Z" fill="#000000" fill-rule="nonzero" fill-opacity="1" /><path clip-path="url(#clip210)" d="M1984.07 213.971 Q1983.36 213.555 1982.5 213.37 Q1981.67 213.161 1980.65 213.161 Q1977.04 213.161 1975.09 215.522 Q1973.17 217.86 1973.17 222.258 L1973.17 235.916 L1968.89 235.916 L1968.89 209.99 L1973.17 209.99 L1973.17 214.018 Q1974.51 211.657 1976.67 210.522 Q1978.82 209.365 1981.9 209.365 Q1982.34 209.365 1982.87 209.434 Q1983.4 209.481 1984.05 209.596 L1984.07 213.971 Z" fill="#000000" fill-rule="nonzero" fill-opacity="1" /><path clip-path="url(#clip210)" d="M2006.16 210.985 L2006.16 214.967 Q2004.35 213.971 2002.52 213.485 Q2000.72 212.976 1998.87 212.976 Q1994.72 212.976 1992.43 215.615 Q1990.14 218.231 1990.14 222.976 Q1990.14 227.721 1992.43 230.36 Q1994.72 232.976 1998.87 232.976 Q2000.72 232.976 2002.52 232.49 Q2004.35 231.981 2006.16 230.985 L2006.16 234.92 Q2004.38 235.754 2002.45 236.17 Q2000.56 236.587 1998.4 236.587 Q1992.55 236.587 1989.1 232.906 Q1985.65 229.226 1985.65 222.976 Q1985.65 216.633 1989.12 212.999 Q1992.62 209.365 1998.68 209.365 Q2000.65 209.365 2002.52 209.782 Q2004.4 210.175 2006.16 210.985 Z" fill="#000000" fill-rule="nonzero" fill-opacity="1" /><path clip-path="url(#clip210)" d="M2023.61 212.976 Q2020.19 212.976 2018.2 215.661 Q2016.2 218.323 2016.2 222.976 Q2016.2 227.629 2018.17 230.314 Q2020.16 232.976 2023.61 232.976 Q2027.01 232.976 2029.01 230.291 Q2031 227.606 2031 222.976 Q2031 218.37 2029.01 215.684 Q2027.01 212.976 2023.61 212.976 M2023.61 209.365 Q2029.17 209.365 2032.34 212.976 Q2035.51 216.587 2035.51 222.976 Q2035.51 229.342 2032.34 232.976 Q2029.17 236.587 2023.61 236.587 Q2018.03 236.587 2014.86 232.976 Q2011.71 229.342 2011.71 222.976 Q2011.71 216.587 2014.86 212.976 Q2018.03 209.365 2023.61 209.365 Z" fill="#000000" fill-rule="nonzero" fill-opacity="1" /><path clip-path="url(#clip210)" d="M2062.76 214.967 Q2064.35 212.096 2066.57 210.731 Q2068.8 209.365 2071.81 209.365 Q2075.86 209.365 2078.06 212.212 Q2080.25 215.036 2080.25 220.268 L2080.25 235.916 L2075.97 235.916 L2075.97 220.407 Q2075.97 216.68 2074.65 214.874 Q2073.33 213.069 2070.63 213.069 Q2067.32 213.069 2065.39 215.268 Q2063.47 217.467 2063.47 221.263 L2063.47 235.916 L2059.19 235.916 L2059.19 220.407 Q2059.19 216.657 2057.87 214.874 Q2056.55 213.069 2053.8 213.069 Q2050.53 213.069 2048.61 215.291 Q2046.69 217.49 2046.69 221.263 L2046.69 235.916 L2042.41 235.916 L2042.41 209.99 L2046.69 209.99 L2046.69 214.018 Q2048.15 211.633 2050.19 210.499 Q2052.22 209.365 2055.02 209.365 Q2057.85 209.365 2059.82 210.8 Q2061.81 212.235 2062.76 214.967 Z" fill="#000000" fill-rule="nonzero" fill-opacity="1" /><path clip-path="url(#clip210)" d="M2110.93 221.888 L2110.93 223.971 L2091.34 223.971 Q2091.62 228.369 2093.98 230.684 Q2096.37 232.976 2100.6 232.976 Q2103.06 232.976 2105.35 232.374 Q2107.66 231.772 2109.93 230.569 L2109.93 234.596 Q2107.64 235.568 2105.23 236.078 Q2102.82 236.587 2100.35 236.587 Q2094.14 236.587 2090.51 232.976 Q2086.9 229.365 2086.9 223.207 Q2086.9 216.842 2090.32 213.115 Q2093.77 209.365 2099.61 209.365 Q2104.84 209.365 2107.87 212.745 Q2110.93 216.101 2110.93 221.888 M2106.67 220.638 Q2106.62 217.143 2104.7 215.059 Q2102.8 212.976 2099.65 212.976 Q2096.09 212.976 2093.94 214.99 Q2091.81 217.004 2091.48 220.661 L2106.67 220.638 Z" fill="#000000" fill-rule="nonzero" fill-opacity="1" /><path clip-path="url(#clip210)" d="M2132.94 213.971 Q2132.22 213.555 2131.37 213.37 Q2130.53 213.161 2129.51 213.161 Q2125.9 213.161 2123.96 215.522 Q2122.04 217.86 2122.04 222.258 L2122.04 235.916 L2117.75 235.916 L2117.75 209.99 L2122.04 209.99 L2122.04 214.018 Q2123.38 211.657 2125.53 210.522 Q2127.69 209.365 2130.76 209.365 Q2131.2 209.365 2131.74 209.434 Q2132.27 209.481 2132.92 209.596 L2132.94 213.971 Z" fill="#000000" fill-rule="nonzero" fill-opacity="1" /><path clip-path="url(#clip210)" d="M2158.54 221.888 L2158.54 223.971 L2138.96 223.971 Q2139.24 228.369 2141.6 230.684 Q2143.98 232.976 2148.22 232.976 Q2150.67 232.976 2152.96 232.374 Q2155.28 231.772 2157.55 230.569 L2157.55 234.596 Q2155.25 235.568 2152.85 236.078 Q2150.44 236.587 2147.96 236.587 Q2141.76 236.587 2138.13 232.976 Q2134.51 229.365 2134.51 223.207 Q2134.51 216.842 2137.94 213.115 Q2141.39 209.365 2147.22 209.365 Q2152.45 209.365 2155.49 212.745 Q2158.54 216.101 2158.54 221.888 M2154.28 220.638 Q2154.24 217.143 2152.31 215.059 Q2150.42 212.976 2147.27 212.976 Q2143.7 212.976 2141.55 214.99 Q2139.42 217.004 2139.1 220.661 L2154.28 220.638 Z" fill="#000000" fill-rule="nonzero" fill-opacity="1" /><polyline clip-path="url(#clip210)" style="stroke:#e26f46; stroke-linecap:round; stroke-linejoin:round; stroke-width:8; stroke-opacity:1; fill:none" points="1742.64,270.476 1884.86,270.476 "/>
<path clip-path="url(#clip210)" d="M1936.44 255.858 L1936.44 260.788 Q1934.08 258.589 1931.39 257.501 Q1928.73 256.413 1925.72 256.413 Q1919.79 256.413 1916.64 260.048 Q1913.5 263.659 1913.5 270.51 Q1913.5 277.339 1916.64 280.973 Q1919.79 284.584 1925.72 284.584 Q1928.73 284.584 1931.39 283.496 Q1934.08 282.409 1936.44 280.209 L1936.44 285.094 Q1933.98 286.76 1931.23 287.594 Q1928.5 288.427 1925.44 288.427 Q1917.59 288.427 1913.08 283.635 Q1908.57 278.821 1908.57 270.51 Q1908.57 262.177 1913.08 257.386 Q1917.59 252.571 1925.44 252.571 Q1928.54 252.571 1931.27 253.404 Q1934.03 254.214 1936.44 255.858 Z" fill="#000000" fill-rule="nonzero" fill-opacity="1" /><path clip-path="url(#clip210)" d="M1954.26 290.163 Q1952.45 294.793 1950.74 296.205 Q1949.03 297.617 1946.16 297.617 L1942.76 297.617 L1942.76 294.052 L1945.26 294.052 Q1947.01 294.052 1947.99 293.219 Q1948.96 292.385 1950.14 289.283 L1950.9 287.339 L1940.42 261.83 L1944.93 261.83 L1953.03 282.108 L1961.14 261.83 L1965.65 261.83 L1954.26 290.163 Z" fill="#000000" fill-rule="nonzero" fill-opacity="1" /><path clip-path="url(#clip210)" d="M1975.74 254.469 L1975.74 261.83 L1984.51 261.83 L1984.51 265.14 L1975.74 265.14 L1975.74 279.214 Q1975.74 282.385 1976.6 283.288 Q1977.48 284.191 1980.14 284.191 L1984.51 284.191 L1984.51 287.756 L1980.14 287.756 Q1975.21 287.756 1973.33 285.927 Q1971.46 284.075 1971.46 279.214 L1971.46 265.14 L1968.33 265.14 L1968.33 261.83 L1971.46 261.83 L1971.46 254.469 L1975.74 254.469 Z" fill="#000000" fill-rule="nonzero" fill-opacity="1" /><path clip-path="url(#clip210)" d="M2000.16 264.816 Q1996.74 264.816 1994.75 267.501 Q1992.76 270.163 1992.76 274.816 Q1992.76 279.469 1994.72 282.154 Q1996.71 284.816 2000.16 284.816 Q2003.57 284.816 2005.56 282.131 Q2007.55 279.446 2007.55 274.816 Q2007.55 270.21 2005.56 267.524 Q2003.57 264.816 2000.16 264.816 M2000.16 261.205 Q2005.72 261.205 2008.89 264.816 Q2012.06 268.427 2012.06 274.816 Q2012.06 281.182 2008.89 284.816 Q2005.72 288.427 2000.16 288.427 Q1994.58 288.427 1991.41 284.816 Q1988.26 281.182 1988.26 274.816 Q1988.26 268.427 1991.41 264.816 Q1994.58 261.205 2000.16 261.205 Z" fill="#000000" fill-rule="nonzero" fill-opacity="1" /><path clip-path="url(#clip210)" d="M2035.65 262.594 L2035.65 266.622 Q2033.84 265.696 2031.9 265.233 Q2029.95 264.77 2027.87 264.77 Q2024.7 264.77 2023.1 265.742 Q2021.53 266.714 2021.53 268.659 Q2021.53 270.14 2022.66 270.997 Q2023.8 271.83 2027.22 272.594 L2028.68 272.918 Q2033.22 273.89 2035.12 275.672 Q2037.04 277.432 2037.04 280.603 Q2037.04 284.214 2034.17 286.321 Q2031.32 288.427 2026.32 288.427 Q2024.24 288.427 2021.97 288.01 Q2019.72 287.617 2017.22 286.807 L2017.22 282.409 Q2019.58 283.635 2021.88 284.26 Q2024.17 284.862 2026.41 284.862 Q2029.42 284.862 2031.04 283.844 Q2032.66 282.802 2032.66 280.927 Q2032.66 279.191 2031.48 278.265 Q2030.32 277.339 2026.37 276.483 L2024.88 276.135 Q2020.93 275.302 2019.17 273.589 Q2017.41 271.853 2017.41 268.844 Q2017.41 265.186 2020 263.196 Q2022.59 261.205 2027.36 261.205 Q2029.72 261.205 2031.81 261.552 Q2033.89 261.899 2035.65 262.594 Z" fill="#000000" fill-rule="nonzero" fill-opacity="1" /><path clip-path="url(#clip210)" d="M2053.87 264.816 Q2050.44 264.816 2048.45 267.501 Q2046.46 270.163 2046.46 274.816 Q2046.46 279.469 2048.43 282.154 Q2050.42 284.816 2053.87 284.816 Q2057.27 284.816 2059.26 282.131 Q2061.25 279.446 2061.25 274.816 Q2061.25 270.21 2059.26 267.524 Q2057.27 264.816 2053.87 264.816 M2053.87 261.205 Q2059.42 261.205 2062.59 264.816 Q2065.76 268.427 2065.76 274.816 Q2065.76 281.182 2062.59 284.816 Q2059.42 288.427 2053.87 288.427 Q2048.29 288.427 2045.12 284.816 Q2041.97 281.182 2041.97 274.816 Q2041.97 268.427 2045.12 264.816 Q2048.29 261.205 2053.87 261.205 Z" fill="#000000" fill-rule="nonzero" fill-opacity="1" /><path clip-path="url(#clip210)" d="M2072.82 251.737 L2077.08 251.737 L2077.08 287.756 L2072.82 287.756 L2072.82 251.737 Z" fill="#000000" fill-rule="nonzero" fill-opacity="1" /><polyline clip-path="url(#clip210)" style="stroke:#3da44d; stroke-linecap:round; stroke-linejoin:round; stroke-width:8; stroke-opacity:1; fill:none" points="1742.64,322.316 1884.86,322.316 "/>
<path clip-path="url(#clip210)" d="M1913.24 323.091 L1913.24 335.753 L1920.74 335.753 Q1924.52 335.753 1926.32 334.202 Q1928.15 332.628 1928.15 329.411 Q1928.15 326.17 1926.32 324.642 Q1924.52 323.091 1920.74 323.091 L1913.24 323.091 M1913.24 308.878 L1913.24 319.295 L1920.16 319.295 Q1923.59 319.295 1925.26 318.022 Q1926.95 316.725 1926.95 314.087 Q1926.95 311.471 1925.26 310.175 Q1923.59 308.878 1920.16 308.878 L1913.24 308.878 M1908.57 305.036 L1920.51 305.036 Q1925.86 305.036 1928.75 307.258 Q1931.64 309.48 1931.64 313.577 Q1931.64 316.749 1930.16 318.624 Q1928.68 320.499 1925.81 320.962 Q1929.26 321.702 1931.16 324.063 Q1933.08 326.401 1933.08 329.92 Q1933.08 334.549 1929.93 337.073 Q1926.78 339.596 1920.97 339.596 L1908.57 339.596 L1908.57 305.036 Z" fill="#000000" fill-rule="nonzero" fill-opacity="1" /><path clip-path="url(#clip210)" d="M1940.9 303.577 L1945.16 303.577 L1945.16 339.596 L1940.9 339.596 L1940.9 303.577 Z" fill="#000000" fill-rule="nonzero" fill-opacity="1" /><path clip-path="url(#clip210)" d="M1964.12 316.656 Q1960.7 316.656 1958.7 319.341 Q1956.71 322.003 1956.71 326.656 Q1956.71 331.309 1958.68 333.994 Q1960.67 336.656 1964.12 336.656 Q1967.52 336.656 1969.51 333.971 Q1971.51 331.286 1971.51 326.656 Q1971.51 322.05 1969.51 319.364 Q1967.52 316.656 1964.12 316.656 M1964.12 313.045 Q1969.68 313.045 1972.85 316.656 Q1976.02 320.267 1976.02 326.656 Q1976.02 333.022 1972.85 336.656 Q1969.68 340.267 1964.12 340.267 Q1958.54 340.267 1955.37 336.656 Q1952.22 333.022 1952.22 326.656 Q1952.22 320.267 1955.37 316.656 Q1958.54 313.045 1964.12 313.045 Z" fill="#000000" fill-rule="nonzero" fill-opacity="1" /><path clip-path="url(#clip210)" d="M1993.13 316.656 Q1989.7 316.656 1987.71 319.341 Q1985.72 322.003 1985.72 326.656 Q1985.72 331.309 1987.69 333.994 Q1989.68 336.656 1993.13 336.656 Q1996.53 336.656 1998.52 333.971 Q2000.51 331.286 2000.51 326.656 Q2000.51 322.05 1998.52 319.364 Q1996.53 316.656 1993.13 316.656 M1993.13 313.045 Q1998.68 313.045 2001.85 316.656 Q2005.02 320.267 2005.02 326.656 Q2005.02 333.022 2001.85 336.656 Q1998.68 340.267 1993.13 340.267 Q1987.55 340.267 1984.38 336.656 Q1981.23 333.022 1981.23 326.656 Q1981.23 320.267 1984.38 316.656 Q1987.55 313.045 1993.13 313.045 Z" fill="#000000" fill-rule="nonzero" fill-opacity="1" /><path clip-path="url(#clip210)" d="M2029.14 317.605 L2029.14 303.577 L2033.4 303.577 L2033.4 339.596 L2029.14 339.596 L2029.14 335.707 Q2027.8 338.022 2025.74 339.156 Q2023.7 340.267 2020.83 340.267 Q2016.13 340.267 2013.17 336.517 Q2010.23 332.767 2010.23 326.656 Q2010.23 320.545 2013.17 316.795 Q2016.13 313.045 2020.83 313.045 Q2023.7 313.045 2025.74 314.179 Q2027.8 315.29 2029.14 317.605 M2014.63 326.656 Q2014.63 331.355 2016.55 334.04 Q2018.5 336.702 2021.88 336.702 Q2025.26 336.702 2027.2 334.04 Q2029.14 331.355 2029.14 326.656 Q2029.14 321.957 2027.2 319.295 Q2025.26 316.61 2021.88 316.61 Q2018.5 316.61 2016.55 319.295 Q2014.63 321.957 2014.63 326.656 Z" fill="#000000" fill-rule="nonzero" fill-opacity="1" /><circle clip-path="url(#clip210)" cx="1813.75" cy="374.156" r="20.9455" fill="#c271d2" fill-rule="evenodd" fill-opacity="1" stroke="#000000" stroke-opacity="1" stroke-width="3.72364"/>
<path clip-path="url(#clip210)" d="M1924.58 360.047 Q1919.49 360.047 1916.48 363.843 Q1913.5 367.64 1913.5 374.19 Q1913.5 380.718 1916.48 384.514 Q1919.49 388.311 1924.58 388.311 Q1929.68 388.311 1932.64 384.514 Q1935.63 380.718 1935.63 374.19 Q1935.63 367.64 1932.64 363.843 Q1929.68 360.047 1924.58 360.047 M1924.58 356.251 Q1931.85 356.251 1936.2 361.135 Q1940.56 365.996 1940.56 374.19 Q1940.56 382.362 1936.2 387.246 Q1931.85 392.107 1924.58 392.107 Q1917.29 392.107 1912.92 387.246 Q1908.57 382.385 1908.57 374.19 Q1908.57 365.996 1912.92 361.135 Q1917.29 356.251 1924.58 356.251 Z" fill="#000000" fill-rule="nonzero" fill-opacity="1" /><path clip-path="url(#clip210)" d="M1966.3 378.496 Q1966.3 373.797 1964.35 371.135 Q1962.43 368.45 1959.05 368.45 Q1955.67 368.45 1953.73 371.135 Q1951.81 373.797 1951.81 378.496 Q1951.81 383.195 1953.73 385.88 Q1955.67 388.542 1959.05 388.542 Q1962.43 388.542 1964.35 385.88 Q1966.3 383.195 1966.3 378.496 M1951.81 369.445 Q1953.15 367.13 1955.19 366.019 Q1957.25 364.885 1960.09 364.885 Q1964.82 364.885 1967.76 368.635 Q1970.72 372.385 1970.72 378.496 Q1970.72 384.607 1967.76 388.357 Q1964.82 392.107 1960.09 392.107 Q1957.25 392.107 1955.19 390.996 Q1953.15 389.862 1951.81 387.547 L1951.81 391.436 L1947.52 391.436 L1947.52 355.417 L1951.81 355.417 L1951.81 369.445 Z" fill="#000000" fill-rule="nonzero" fill-opacity="1" /><path clip-path="url(#clip210)" d="M1994.31 366.274 L1994.31 370.302 Q1992.5 369.376 1990.56 368.913 Q1988.61 368.45 1986.53 368.45 Q1983.36 368.45 1981.76 369.422 Q1980.19 370.394 1980.19 372.339 Q1980.19 373.82 1981.32 374.677 Q1982.45 375.51 1985.88 376.274 L1987.34 376.598 Q1991.88 377.57 1993.77 379.352 Q1995.7 381.112 1995.7 384.283 Q1995.7 387.894 1992.82 390.001 Q1989.98 392.107 1984.98 392.107 Q1982.89 392.107 1980.63 391.69 Q1978.38 391.297 1975.88 390.487 L1975.88 386.089 Q1978.24 387.315 1980.53 387.94 Q1982.82 388.542 1985.07 388.542 Q1988.08 388.542 1989.7 387.524 Q1991.32 386.482 1991.32 384.607 Q1991.32 382.871 1990.14 381.945 Q1988.98 381.019 1985.02 380.163 L1983.54 379.815 Q1979.58 378.982 1977.82 377.269 Q1976.07 375.533 1976.07 372.524 Q1976.07 368.866 1978.66 366.876 Q1981.25 364.885 1986.02 364.885 Q1988.38 364.885 1990.46 365.232 Q1992.55 365.579 1994.31 366.274 Z" fill="#000000" fill-rule="nonzero" fill-opacity="1" /><path clip-path="url(#clip210)" d="M2024.65 377.408 L2024.65 379.491 L2005.07 379.491 Q2005.35 383.889 2007.71 386.204 Q2010.09 388.496 2014.33 388.496 Q2016.78 388.496 2019.07 387.894 Q2021.39 387.292 2023.66 386.089 L2023.66 390.116 Q2021.37 391.088 2018.96 391.598 Q2016.55 392.107 2014.07 392.107 Q2007.87 392.107 2004.24 388.496 Q2000.63 384.885 2000.63 378.727 Q2000.63 372.362 2004.05 368.635 Q2007.5 364.885 2013.33 364.885 Q2018.57 364.885 2021.6 368.265 Q2024.65 371.621 2024.65 377.408 M2020.39 376.158 Q2020.35 372.663 2018.43 370.579 Q2016.53 368.496 2013.38 368.496 Q2009.82 368.496 2007.66 370.51 Q2005.53 372.524 2005.21 376.181 L2020.39 376.158 Z" fill="#000000" fill-rule="nonzero" fill-opacity="1" /><path clip-path="url(#clip210)" d="M2046.67 369.491 Q2045.95 369.075 2045.09 368.89 Q2044.26 368.681 2043.24 368.681 Q2039.63 368.681 2037.69 371.042 Q2035.76 373.38 2035.76 377.778 L2035.76 391.436 L2031.48 391.436 L2031.48 365.51 L2035.76 365.51 L2035.76 369.538 Q2037.11 367.177 2039.26 366.042 Q2041.41 364.885 2044.49 364.885 Q2044.93 364.885 2045.46 364.954 Q2046 365.001 2046.64 365.116 L2046.67 369.491 Z" fill="#000000" fill-rule="nonzero" fill-opacity="1" /><path clip-path="url(#clip210)" d="M2048.08 365.51 L2052.59 365.51 L2060.69 387.269 L2068.8 365.51 L2073.31 365.51 L2063.59 391.436 L2057.8 391.436 L2048.08 365.51 Z" fill="#000000" fill-rule="nonzero" fill-opacity="1" /><path clip-path="url(#clip210)" d="M2101.37 377.408 L2101.37 379.491 L2081.78 379.491 Q2082.06 383.889 2084.42 386.204 Q2086.81 388.496 2091.04 388.496 Q2093.5 388.496 2095.79 387.894 Q2098.1 387.292 2100.37 386.089 L2100.37 390.116 Q2098.08 391.088 2095.67 391.598 Q2093.26 392.107 2090.79 392.107 Q2084.58 392.107 2080.95 388.496 Q2077.34 384.885 2077.34 378.727 Q2077.34 372.362 2080.76 368.635 Q2084.21 364.885 2090.05 364.885 Q2095.28 364.885 2098.31 368.265 Q2101.37 371.621 2101.37 377.408 M2097.11 376.158 Q2097.06 372.663 2095.14 370.579 Q2093.24 368.496 2090.09 368.496 Q2086.53 368.496 2084.38 370.51 Q2082.25 372.524 2081.92 376.181 L2097.11 376.158 Z" fill="#000000" fill-rule="nonzero" fill-opacity="1" /><path clip-path="url(#clip210)" d="M2125.42 369.445 L2125.42 355.417 L2129.68 355.417 L2129.68 391.436 L2125.42 391.436 L2125.42 387.547 Q2124.07 389.862 2122.01 390.996 Q2119.98 392.107 2117.11 392.107 Q2112.41 392.107 2109.44 388.357 Q2106.5 384.607 2106.5 378.496 Q2106.5 372.385 2109.44 368.635 Q2112.41 364.885 2117.11 364.885 Q2119.98 364.885 2122.01 366.019 Q2124.07 367.13 2125.42 369.445 M2110.9 378.496 Q2110.9 383.195 2112.82 385.88 Q2114.77 388.542 2118.15 388.542 Q2121.53 388.542 2123.47 385.88 Q2125.42 383.195 2125.42 378.496 Q2125.42 373.797 2123.47 371.135 Q2121.53 368.45 2118.15 368.45 Q2114.77 368.45 2112.82 371.135 Q2110.9 373.797 2110.9 378.496 Z" fill="#000000" fill-rule="nonzero" fill-opacity="1" /><path clip-path="url(#clip210)" d="M2158.38 360.718 L2158.38 387.593 L2164.03 387.593 Q2171.18 387.593 2174.49 384.352 Q2177.82 381.112 2177.82 374.121 Q2177.82 367.177 2174.49 363.959 Q2171.18 360.718 2164.03 360.718 L2158.38 360.718 M2153.7 356.876 L2163.31 356.876 Q2173.36 356.876 2178.06 361.066 Q2182.75 365.232 2182.75 374.121 Q2182.75 383.056 2178.03 387.246 Q2173.31 391.436 2163.31 391.436 L2153.7 391.436 L2153.7 356.876 Z" fill="#000000" fill-rule="nonzero" fill-opacity="1" /><path clip-path="url(#clip210)" d="M2201.81 378.403 Q2196.64 378.403 2194.65 379.584 Q2192.66 380.764 2192.66 383.612 Q2192.66 385.88 2194.14 387.223 Q2195.65 388.542 2198.22 388.542 Q2201.76 388.542 2203.89 386.042 Q2206.04 383.519 2206.04 379.352 L2206.04 378.403 L2201.81 378.403 M2210.3 376.644 L2210.3 391.436 L2206.04 391.436 L2206.04 387.501 Q2204.58 389.862 2202.41 390.996 Q2200.23 392.107 2197.08 392.107 Q2193.1 392.107 2190.74 389.885 Q2188.4 387.639 2188.4 383.889 Q2188.4 379.514 2191.32 377.292 Q2194.26 375.07 2200.07 375.07 L2206.04 375.07 L2206.04 374.653 Q2206.04 371.714 2204.1 370.116 Q2202.18 368.496 2198.68 368.496 Q2196.46 368.496 2194.35 369.028 Q2192.25 369.561 2190.3 370.626 L2190.3 366.69 Q2192.64 365.788 2194.84 365.348 Q2197.04 364.885 2199.12 364.885 Q2204.75 364.885 2207.52 367.802 Q2210.3 370.718 2210.3 376.644 Z" fill="#000000" fill-rule="nonzero" fill-opacity="1" /><path clip-path="url(#clip210)" d="M2223.29 358.149 L2223.29 365.51 L2232.06 365.51 L2232.06 368.82 L2223.29 368.82 L2223.29 382.894 Q2223.29 386.065 2224.14 386.968 Q2225.02 387.871 2227.68 387.871 L2232.06 387.871 L2232.06 391.436 L2227.68 391.436 Q2222.75 391.436 2220.88 389.607 Q2219 387.755 2219 382.894 L2219 368.82 L2215.88 368.82 L2215.88 365.51 L2219 365.51 L2219 358.149 L2223.29 358.149 Z" fill="#000000" fill-rule="nonzero" fill-opacity="1" /><path clip-path="url(#clip210)" d="M2249.44 378.403 Q2244.28 378.403 2242.29 379.584 Q2240.3 380.764 2240.3 383.612 Q2240.3 385.88 2241.78 387.223 Q2243.29 388.542 2245.86 388.542 Q2249.4 388.542 2251.53 386.042 Q2253.68 383.519 2253.68 379.352 L2253.68 378.403 L2249.44 378.403 M2257.94 376.644 L2257.94 391.436 L2253.68 391.436 L2253.68 387.501 Q2252.22 389.862 2250.05 390.996 Q2247.87 392.107 2244.72 392.107 Q2240.74 392.107 2238.38 389.885 Q2236.04 387.639 2236.04 383.889 Q2236.04 379.514 2238.96 377.292 Q2241.9 375.07 2247.71 375.07 L2253.68 375.07 L2253.68 374.653 Q2253.68 371.714 2251.74 370.116 Q2249.81 368.496 2246.32 368.496 Q2244.1 368.496 2241.99 369.028 Q2239.88 369.561 2237.94 370.626 L2237.94 366.69 Q2240.28 365.788 2242.48 365.348 Q2244.68 364.885 2246.76 364.885 Q2252.38 364.885 2255.16 367.802 Q2257.94 370.718 2257.94 376.644 Z" fill="#000000" fill-rule="nonzero" fill-opacity="1" /></svg>
