<?xml version="1.0" encoding="utf-8"?>
<svg xmlns="http://www.w3.org/2000/svg" xmlns:xlink="http://www.w3.org/1999/xlink" width="900" height="550" viewBox="0 0 3600 2200">
<defs>
  <clipPath id="clip050">
    <rect x="0" y="0" width="3600" height="2200"/>
  </clipPath>
</defs>
<path clip-path="url(#clip050)" d="M0 2200 L3600 2200 L3600 0 L0 0  Z" fill="#ffffff" fill-rule="evenodd" fill-opacity="1"/>
<defs>
  <clipPath id="clip051">
    <rect x="227" y="47" width="3326" height="1978"/>
  </clipPath>
</defs>
<path clip-path="url(#clip050)" d="M227.906 2024.02 L3552.76 2024.02 L3552.76 47.2441 L227.906 47.2441  Z" fill="#ffffff" fill-rule="evenodd" fill-opacity="1"/>
<polyline clip-path="url(#clip051)" style="stroke:#000000; stroke-linecap:round; stroke-linejoin:round; stroke-width:2; stroke-opacity:0.1; fill:none" points="322.006,2024.02 322.006,47.2441 "/>
<polyline clip-path="url(#clip051)" style="stroke:#000000; stroke-linecap:round; stroke-linejoin:round; stroke-width:2; stroke-opacity:0.1; fill:none" points="997.038,2024.02 997.038,47.2441 "/>
<polyline clip-path="url(#clip051)" style="stroke:#000000; stroke-linecap:round; stroke-linejoin:round; stroke-width:2; stroke-opacity:0.1; fill:none" points="1672.07,2024.02 1672.07,47.2441 "/>
<polyline clip-path="url(#clip051)" style="stroke:#000000; stroke-linecap:round; stroke-linejoin:round; stroke-width:2; stroke-opacity:0.1; fill:none" points="2347.1,2024.02 2347.1,47.2441 "/>
<polyline clip-path="url(#clip051)" style="stroke:#000000; stroke-linecap:round; stroke-linejoin:round; stroke-width:2; stroke-opacity:0.1; fill:none" points="3022.14,2024.02 3022.14,47.2441 "/>
<polyline clip-path="url(#clip051)" style="stroke:#000000; stroke-linecap:round; stroke-linejoin:round; stroke-width:2; stroke-opacity:0.1; fill:none" points="227.906,1968.07 3552.76,1968.07 "/>
<polyline clip-path="url(#clip051)" style="stroke:#000000; stroke-linecap:round; stroke-linejoin:round; stroke-width:2; stroke-opacity:0.1; fill:none" points="227.906,1587.49 3552.76,1587.49 "/>
<polyline clip-path="url(#clip051)" style="stroke:#000000; stroke-linecap:round; stroke-linejoin:round; stroke-width:2; stroke-opacity:0.1; fill:none" points="227.906,1206.9 3552.76,1206.9 "/>
<polyline clip-path="url(#clip051)" style="stroke:#000000; stroke-linecap:round; stroke-linejoin:round; stroke-width:2; stroke-opacity:0.1; fill:none" points="227.906,826.308 3552.76,826.308 "/>
<polyline clip-path="url(#clip051)" style="stroke:#000000; stroke-linecap:round; stroke-linejoin:round; stroke-width:2; stroke-opacity:0.1; fill:none" points="227.906,445.72 3552.76,445.72 "/>
<polyline clip-path="url(#clip051)" style="stroke:#000000; stroke-linecap:round; stroke-linejoin:round; stroke-width:2; stroke-opacity:0.1; fill:none" points="227.906,65.1317 3552.76,65.1317 "/>
<polyline clip-path="url(#clip050)" style="stroke:#000000; stroke-linecap:round; stroke-linejoin:round; stroke-width:4; stroke-opacity:1; fill:none" points="227.906,2024.02 3552.76,2024.02 "/>
<polyline clip-path="url(#clip050)" style="stroke:#000000; stroke-linecap:round; stroke-linejoin:round; stroke-width:4; stroke-opacity:1; fill:none" points="322.006,2024.02 322.006,2005.12 "/>
<polyline clip-path="url(#clip050)" style="stroke:#000000; stroke-linecap:round; stroke-linejoin:round; stroke-width:4; stroke-opacity:1; fill:none" points="997.038,2024.02 997.038,2005.12 "/>
<polyline clip-path="url(#clip050)" style="stroke:#000000; stroke-linecap:round; stroke-linejoin:round; stroke-width:4; stroke-opacity:1; fill:none" points="1672.07,2024.02 1672.07,2005.12 "/>
<polyline clip-path="url(#clip050)" style="stroke:#000000; stroke-linecap:round; stroke-linejoin:round; stroke-width:4; stroke-opacity:1; fill:none" points="2347.1,2024.02 2347.1,2005.12 "/>
<polyline clip-path="url(#clip050)" style="stroke:#000000; stroke-linecap:round; stroke-linejoin:round; stroke-width:4; stroke-opacity:1; fill:none" points="3022.14,2024.02 3022.14,2005.12 "/>
<path clip-path="url(#clip050)" d="M322.006 2064.54 Q318.395 2064.54 316.566 2068.1 Q314.76 2071.64 314.76 2078.77 Q314.76 2085.88 316.566 2089.45 Q318.395 2092.99 322.006 2092.99 Q325.64 2092.99 327.446 2089.45 Q329.274 2085.88 329.274 2078.77 Q329.274 2071.64 327.446 2068.1 Q325.64 2064.54 322.006 2064.54 M322.006 2060.83 Q327.816 2060.83 330.871 2065.44 Q333.95 2070.02 333.95 2078.77 Q333.95 2087.5 330.871 2092.11 Q327.816 2096.69 322.006 2096.69 Q316.196 2096.69 313.117 2092.11 Q310.061 2087.5 310.061 2078.77 Q310.061 2070.02 313.117 2065.44 Q316.196 2060.83 322.006 2060.83 Z" fill="#000000" fill-rule="nonzero" fill-opacity="1" /><path clip-path="url(#clip050)" d="M975.811 2092.08 L992.131 2092.08 L992.131 2096.02 L970.186 2096.02 L970.186 2092.08 Q972.849 2089.33 977.432 2084.7 Q982.038 2080.05 983.219 2078.71 Q985.464 2076.18 986.344 2074.45 Q987.247 2072.69 987.247 2071 Q987.247 2068.24 985.302 2066.51 Q983.381 2064.77 980.279 2064.77 Q978.08 2064.77 975.626 2065.53 Q973.196 2066.3 970.418 2067.85 L970.418 2063.13 Q973.242 2061.99 975.696 2061.41 Q978.149 2060.83 980.186 2060.83 Q985.557 2060.83 988.751 2063.52 Q991.946 2066.21 991.946 2070.7 Q991.946 2072.83 991.135 2074.75 Q990.348 2076.64 988.242 2079.24 Q987.663 2079.91 984.561 2083.13 Q981.46 2086.32 975.811 2092.08 Z" fill="#000000" fill-rule="nonzero" fill-opacity="1" /><path clip-path="url(#clip050)" d="M1011.95 2064.54 Q1008.33 2064.54 1006.51 2068.1 Q1004.7 2071.64 1004.7 2078.77 Q1004.7 2085.88 1006.51 2089.45 Q1008.33 2092.99 1011.95 2092.99 Q1015.58 2092.99 1017.39 2089.45 Q1019.21 2085.88 1019.21 2078.77 Q1019.21 2071.64 1017.39 2068.1 Q1015.58 2064.54 1011.95 2064.54 M1011.95 2060.83 Q1017.76 2060.83 1020.81 2065.44 Q1023.89 2070.02 1023.89 2078.77 Q1023.89 2087.5 1020.81 2092.11 Q1017.76 2096.69 1011.95 2096.69 Q1006.14 2096.69 1003.06 2092.11 Q1000 2087.5 1000 2078.77 Q1000 2070.02 1003.06 2065.44 Q1006.14 2060.83 1011.95 2060.83 Z" fill="#000000" fill-rule="nonzero" fill-opacity="1" /><path clip-path="url(#clip050)" d="M1660.24 2065.53 L1648.44 2083.98 L1660.24 2083.98 L1660.24 2065.53 M1659.02 2061.46 L1664.89 2061.46 L1664.89 2083.98 L1669.83 2083.98 L1669.83 2087.87 L1664.89 2087.87 L1664.89 2096.02 L1660.24 2096.02 L1660.24 2087.87 L1644.64 2087.87 L1644.64 2083.36 L1659.02 2061.46 Z" fill="#000000" fill-rule="nonzero" fill-opacity="1" /><path clip-path="url(#clip050)" d="M1687.56 2064.54 Q1683.95 2064.54 1682.12 2068.1 Q1680.31 2071.64 1680.31 2078.77 Q1680.31 2085.88 1682.12 2089.45 Q1683.95 2092.99 1687.56 2092.99 Q1691.19 2092.99 1693 2089.45 Q1694.83 2085.88 1694.83 2078.77 Q1694.83 2071.64 1693 2068.1 Q1691.19 2064.54 1687.56 2064.54 M1687.56 2060.83 Q1693.37 2060.83 1696.42 2065.44 Q1699.5 2070.02 1699.5 2078.77 Q1699.5 2087.5 1696.42 2092.11 Q1693.37 2096.69 1687.56 2096.69 Q1681.75 2096.69 1678.67 2092.11 Q1675.61 2087.5 1675.61 2078.77 Q1675.61 2070.02 1678.67 2065.44 Q1681.75 2060.83 1687.56 2060.83 Z" fill="#000000" fill-rule="nonzero" fill-opacity="1" /><path clip-path="url(#clip050)" d="M2332.51 2076.88 Q2329.36 2076.88 2327.51 2079.03 Q2325.68 2081.18 2325.68 2084.93 Q2325.68 2088.66 2327.51 2090.83 Q2329.36 2092.99 2332.51 2092.99 Q2335.66 2092.99 2337.49 2090.83 Q2339.34 2088.66 2339.34 2084.93 Q2339.34 2081.18 2337.49 2079.03 Q2335.66 2076.88 2332.51 2076.88 M2341.79 2062.22 L2341.79 2066.48 Q2340.03 2065.65 2338.23 2065.21 Q2336.44 2064.77 2334.68 2064.77 Q2330.05 2064.77 2327.6 2067.89 Q2325.17 2071.02 2324.82 2077.34 Q2326.19 2075.33 2328.25 2074.26 Q2330.31 2073.17 2332.79 2073.17 Q2337.99 2073.17 2341 2076.34 Q2344.04 2079.49 2344.04 2084.93 Q2344.04 2090.26 2340.89 2093.47 Q2337.74 2096.69 2332.51 2096.69 Q2326.51 2096.69 2323.34 2092.11 Q2320.17 2087.5 2320.17 2078.77 Q2320.17 2070.58 2324.06 2065.72 Q2327.95 2060.83 2334.5 2060.83 Q2336.26 2060.83 2338.04 2061.18 Q2339.85 2061.53 2341.79 2062.22 Z" fill="#000000" fill-rule="nonzero" fill-opacity="1" /><path clip-path="url(#clip050)" d="M2362.09 2064.54 Q2358.48 2064.54 2356.65 2068.1 Q2354.85 2071.64 2354.85 2078.77 Q2354.85 2085.88 2356.65 2089.45 Q2358.48 2092.99 2362.09 2092.99 Q2365.73 2092.99 2367.53 2089.45 Q2369.36 2085.88 2369.36 2078.77 Q2369.36 2071.64 2367.53 2068.1 Q2365.73 2064.54 2362.09 2064.54 M2362.09 2060.83 Q2367.9 2060.83 2370.96 2065.44 Q2374.04 2070.02 2374.04 2078.77 Q2374.04 2087.5 2370.96 2092.11 Q2367.9 2096.69 2362.09 2096.69 Q2356.28 2096.69 2353.2 2092.11 Q2350.15 2087.5 2350.15 2078.77 Q2350.15 2070.02 2353.2 2065.44 Q2356.28 2060.83 2362.09 2060.83 Z" fill="#000000" fill-rule="nonzero" fill-opacity="1" /><path clip-path="url(#clip050)" d="M3007.01 2079.61 Q3003.67 2079.61 3001.75 2081.39 Q2999.86 2083.17 2999.86 2086.3 Q2999.86 2089.42 3001.75 2091.21 Q3003.67 2092.99 3007.01 2092.99 Q3010.34 2092.99 3012.26 2091.21 Q3014.18 2089.4 3014.18 2086.3 Q3014.18 2083.17 3012.26 2081.39 Q3010.36 2079.61 3007.01 2079.61 M3002.33 2077.62 Q2999.32 2076.88 2997.63 2074.82 Q2995.97 2072.76 2995.97 2069.79 Q2995.97 2065.65 2998.91 2063.24 Q3001.87 2060.83 3007.01 2060.83 Q3012.17 2060.83 3015.11 2063.24 Q3018.05 2065.65 3018.05 2069.79 Q3018.05 2072.76 3016.36 2074.82 Q3014.69 2076.88 3011.71 2077.62 Q3015.09 2078.4 3016.96 2080.7 Q3018.86 2082.99 3018.86 2086.3 Q3018.86 2091.32 3015.78 2094.01 Q3012.73 2096.69 3007.01 2096.69 Q3001.29 2096.69 2998.21 2094.01 Q2995.16 2091.32 2995.16 2086.3 Q2995.16 2082.99 2997.05 2080.7 Q2998.95 2078.4 3002.33 2077.62 M3000.62 2070.23 Q3000.62 2072.92 3002.29 2074.42 Q3003.98 2075.93 3007.01 2075.93 Q3010.02 2075.93 3011.71 2074.42 Q3013.42 2072.92 3013.42 2070.23 Q3013.42 2067.55 3011.71 2066.04 Q3010.02 2064.54 3007.01 2064.54 Q3003.98 2064.54 3002.29 2066.04 Q3000.62 2067.55 3000.62 2070.23 Z" fill="#000000" fill-rule="nonzero" fill-opacity="1" /><path clip-path="url(#clip050)" d="M3037.17 2064.54 Q3033.56 2064.54 3031.73 2068.1 Q3029.92 2071.64 3029.92 2078.77 Q3029.92 2085.88 3031.73 2089.45 Q3033.56 2092.99 3037.17 2092.99 Q3040.8 2092.99 3042.61 2089.45 Q3044.44 2085.88 3044.44 2078.77 Q3044.44 2071.64 3042.61 2068.1 Q3040.8 2064.54 3037.17 2064.54 M3037.17 2060.83 Q3042.98 2060.83 3046.04 2065.44 Q3049.11 2070.02 3049.11 2078.77 Q3049.11 2087.5 3046.04 2092.11 Q3042.98 2096.69 3037.17 2096.69 Q3031.36 2096.69 3028.28 2092.11 Q3025.23 2087.5 3025.23 2078.77 Q3025.23 2070.02 3028.28 2065.44 Q3031.36 2060.83 3037.17 2060.83 Z" fill="#000000" fill-rule="nonzero" fill-opacity="1" /><path clip-path="url(#clip050)" d="M1756.83 2139.36 L1797.03 2139.36 L1797.03 2144.77 L1780.16 2144.77 L1780.16 2186.88 L1773.7 2186.88 L1773.7 2144.77 L1756.83 2144.77 L1756.83 2139.36 Z" fill="#000000" fill-rule="nonzero" fill-opacity="1" /><path clip-path="url(#clip050)" d="M1800.97 2151.24 L1806.83 2151.24 L1806.83 2186.88 L1800.97 2186.88 L1800.97 2151.24 M1800.97 2137.36 L1806.83 2137.36 L1806.83 2144.77 L1800.97 2144.77 L1800.97 2137.36 Z" fill="#000000" fill-rule="nonzero" fill-opacity="1" /><path clip-path="url(#clip050)" d="M1846.84 2158.08 Q1849.03 2154.13 1852.09 2152.25 Q1855.14 2150.38 1859.28 2150.38 Q1864.85 2150.38 1867.88 2154.29 Q1870.9 2158.17 1870.9 2165.37 L1870.9 2186.88 L1865.01 2186.88 L1865.01 2165.56 Q1865.01 2160.43 1863.2 2157.95 Q1861.38 2155.47 1857.66 2155.47 Q1853.11 2155.47 1850.47 2158.49 Q1847.82 2161.52 1847.82 2166.74 L1847.82 2186.88 L1841.94 2186.88 L1841.94 2165.56 Q1841.94 2160.4 1840.12 2157.95 Q1838.31 2155.47 1834.52 2155.47 Q1830.03 2155.47 1827.39 2158.52 Q1824.75 2161.55 1824.75 2166.74 L1824.75 2186.88 L1818.86 2186.88 L1818.86 2151.24 L1824.75 2151.24 L1824.75 2156.77 Q1826.75 2153.5 1829.55 2151.94 Q1832.36 2150.38 1836.21 2150.38 Q1840.09 2150.38 1842.8 2152.35 Q1845.53 2154.32 1846.84 2158.08 Z" fill="#000000" fill-rule="nonzero" fill-opacity="1" /><path clip-path="url(#clip050)" d="M1913.07 2167.6 L1913.07 2170.46 L1886.15 2170.46 Q1886.53 2176.51 1889.77 2179.69 Q1893.05 2182.84 1898.88 2182.84 Q1902.25 2182.84 1905.4 2182.01 Q1908.58 2181.19 1911.7 2179.53 L1911.7 2185.07 Q1908.55 2186.41 1905.24 2187.11 Q1901.93 2187.81 1898.53 2187.81 Q1890 2187.81 1885 2182.84 Q1880.03 2177.88 1880.03 2169.41 Q1880.03 2160.66 1884.75 2155.53 Q1889.49 2150.38 1897.51 2150.38 Q1904.7 2150.38 1908.87 2155.02 Q1913.07 2159.64 1913.07 2167.6 M1907.22 2165.88 Q1907.15 2161.07 1904.51 2158.21 Q1901.9 2155.34 1897.57 2155.34 Q1892.67 2155.34 1889.71 2158.11 Q1886.78 2160.88 1886.34 2165.91 L1907.22 2165.88 Z" fill="#000000" fill-rule="nonzero" fill-opacity="1" /><path clip-path="url(#clip050)" d="M1957.47 2137.42 Q1953.21 2144.74 1951.14 2151.9 Q1949.07 2159.07 1949.07 2166.42 Q1949.07 2173.77 1951.14 2181 Q1953.24 2188.19 1957.47 2195.48 L1952.38 2195.48 Q1947.61 2188 1945.22 2180.77 Q1942.86 2173.55 1942.86 2166.42 Q1942.86 2159.32 1945.22 2152.13 Q1947.57 2144.93 1952.38 2137.42 L1957.47 2137.42 Z" fill="#000000" fill-rule="nonzero" fill-opacity="1" /><path clip-path="url(#clip050)" d="M1998.47 2165.37 L1998.47 2186.88 L1992.61 2186.88 L1992.61 2165.56 Q1992.61 2160.5 1990.64 2157.98 Q1988.67 2155.47 1984.72 2155.47 Q1979.98 2155.47 1977.24 2158.49 Q1974.5 2161.52 1974.5 2166.74 L1974.5 2186.88 L1968.61 2186.88 L1968.61 2137.36 L1974.5 2137.36 L1974.5 2156.77 Q1976.6 2153.56 1979.44 2151.97 Q1982.3 2150.38 1986.02 2150.38 Q1992.17 2150.38 1995.32 2154.2 Q1998.47 2157.98 1998.47 2165.37 Z" fill="#000000" fill-rule="nonzero" fill-opacity="1" /><path clip-path="url(#clip050)" d="M2009.23 2137.42 L2014.32 2137.42 Q2019.09 2144.93 2021.45 2152.13 Q2023.84 2159.32 2023.84 2166.42 Q2023.84 2173.55 2021.45 2180.77 Q2019.09 2188 2014.32 2195.48 L2009.23 2195.48 Q2013.46 2188.19 2015.53 2181 Q2017.63 2173.77 2017.63 2166.42 Q2017.63 2159.07 2015.53 2151.9 Q2013.46 2144.74 2009.23 2137.42 Z" fill="#000000" fill-rule="nonzero" fill-opacity="1" /><polyline clip-path="url(#clip050)" style="stroke:#000000; stroke-linecap:round; stroke-linejoin:round; stroke-width:4; stroke-opacity:1; fill:none" points="227.906,2024.02 227.906,47.2441 "/>
<polyline clip-path="url(#clip050)" style="stroke:#000000; stroke-linecap:round; stroke-linejoin:round; stroke-width:4; stroke-opacity:1; fill:none" points="227.906,1968.07 246.804,1968.07 "/>
<polyline clip-path="url(#clip050)" style="stroke:#000000; stroke-linecap:round; stroke-linejoin:round; stroke-width:4; stroke-opacity:1; fill:none" points="227.906,1587.49 246.804,1587.49 "/>
<polyline clip-path="url(#clip050)" style="stroke:#000000; stroke-linecap:round; stroke-linejoin:round; stroke-width:4; stroke-opacity:1; fill:none" points="227.906,1206.9 246.804,1206.9 "/>
<polyline clip-path="url(#clip050)" style="stroke:#000000; stroke-linecap:round; stroke-linejoin:round; stroke-width:4; stroke-opacity:1; fill:none" points="227.906,826.308 246.804,826.308 "/>
<polyline clip-path="url(#clip050)" style="stroke:#000000; stroke-linecap:round; stroke-linejoin:round; stroke-width:4; stroke-opacity:1; fill:none" points="227.906,445.72 246.804,445.72 "/>
<polyline clip-path="url(#clip050)" style="stroke:#000000; stroke-linecap:round; stroke-linejoin:round; stroke-width:4; stroke-opacity:1; fill:none" points="227.906,65.1317 246.804,65.1317 "/>
<path clip-path="url(#clip050)" d="M116.731 1953.87 Q113.12 1953.87 111.291 1957.44 Q109.485 1960.98 109.485 1968.11 Q109.485 1975.21 111.291 1978.78 Q113.12 1982.32 116.731 1982.32 Q120.365 1982.32 122.17 1978.78 Q123.999 1975.21 123.999 1968.11 Q123.999 1960.98 122.17 1957.44 Q120.365 1953.87 116.731 1953.87 M116.731 1950.17 Q122.541 1950.17 125.596 1954.77 Q128.675 1959.36 128.675 1968.11 Q128.675 1976.83 125.596 1981.44 Q122.541 1986.02 116.731 1986.02 Q110.92 1986.02 107.842 1981.44 Q104.786 1976.83 104.786 1968.11 Q104.786 1959.36 107.842 1954.77 Q110.92 1950.17 116.731 1950.17 Z" fill="#000000" fill-rule="nonzero" fill-opacity="1" /><path clip-path="url(#clip050)" d="M136.893 1979.47 L141.777 1979.47 L141.777 1985.35 L136.893 1985.35 L136.893 1979.47 Z" fill="#000000" fill-rule="nonzero" fill-opacity="1" /><path clip-path="url(#clip050)" d="M161.962 1953.87 Q158.351 1953.87 156.522 1957.44 Q154.717 1960.98 154.717 1968.11 Q154.717 1975.21 156.522 1978.78 Q158.351 1982.32 161.962 1982.32 Q165.596 1982.32 167.402 1978.78 Q169.23 1975.21 169.23 1968.11 Q169.23 1960.98 167.402 1957.44 Q165.596 1953.87 161.962 1953.87 M161.962 1950.17 Q167.772 1950.17 170.828 1954.77 Q173.906 1959.36 173.906 1968.11 Q173.906 1976.83 170.828 1981.44 Q167.772 1986.02 161.962 1986.02 Q156.152 1986.02 153.073 1981.44 Q150.018 1976.83 150.018 1968.11 Q150.018 1959.36 153.073 1954.77 Q156.152 1950.17 161.962 1950.17 Z" fill="#000000" fill-rule="nonzero" fill-opacity="1" /><path clip-path="url(#clip050)" d="M117.957 1573.28 Q114.346 1573.28 112.518 1576.85 Q110.712 1580.39 110.712 1587.52 Q110.712 1594.63 112.518 1598.19 Q114.346 1601.73 117.957 1601.73 Q121.592 1601.73 123.397 1598.19 Q125.226 1594.63 125.226 1587.52 Q125.226 1580.39 123.397 1576.85 Q121.592 1573.28 117.957 1573.28 M117.957 1569.58 Q123.768 1569.58 126.823 1574.19 Q129.902 1578.77 129.902 1587.52 Q129.902 1596.25 126.823 1600.85 Q123.768 1605.44 117.957 1605.44 Q112.147 1605.44 109.069 1600.85 Q106.013 1596.25 106.013 1587.52 Q106.013 1578.77 109.069 1574.19 Q112.147 1569.58 117.957 1569.58 Z" fill="#000000" fill-rule="nonzero" fill-opacity="1" /><path clip-path="url(#clip050)" d="M138.119 1598.89 L143.004 1598.89 L143.004 1604.77 L138.119 1604.77 L138.119 1598.89 Z" fill="#000000" fill-rule="nonzero" fill-opacity="1" /><path clip-path="url(#clip050)" d="M153.999 1600.83 L161.638 1600.83 L161.638 1574.46 L153.328 1576.13 L153.328 1571.87 L161.592 1570.21 L166.267 1570.21 L166.267 1600.83 L173.906 1600.83 L173.906 1604.77 L153.999 1604.77 L153.999 1600.83 Z" fill="#000000" fill-rule="nonzero" fill-opacity="1" /><path clip-path="url(#clip050)" d="M118.328 1192.7 Q114.717 1192.7 112.888 1196.26 Q111.083 1199.8 111.083 1206.93 Q111.083 1214.04 112.888 1217.6 Q114.717 1221.14 118.328 1221.14 Q121.962 1221.14 123.768 1217.6 Q125.596 1214.04 125.596 1206.93 Q125.596 1199.8 123.768 1196.26 Q121.962 1192.7 118.328 1192.7 M118.328 1188.99 Q124.138 1188.99 127.194 1193.6 Q130.272 1198.18 130.272 1206.93 Q130.272 1215.66 127.194 1220.26 Q124.138 1224.85 118.328 1224.85 Q112.518 1224.85 109.439 1220.26 Q106.383 1215.66 106.383 1206.93 Q106.383 1198.18 109.439 1193.6 Q112.518 1188.99 118.328 1188.99 Z" fill="#000000" fill-rule="nonzero" fill-opacity="1" /><path clip-path="url(#clip050)" d="M138.49 1218.3 L143.374 1218.3 L143.374 1224.18 L138.49 1224.18 L138.49 1218.3 Z" fill="#000000" fill-rule="nonzero" fill-opacity="1" /><path clip-path="url(#clip050)" d="M157.587 1220.24 L173.906 1220.24 L173.906 1224.18 L151.962 1224.18 L151.962 1220.24 Q154.624 1217.49 159.207 1212.86 Q163.814 1208.2 164.994 1206.86 Q167.24 1204.34 168.119 1202.6 Q169.022 1200.84 169.022 1199.15 Q169.022 1196.4 167.078 1194.66 Q165.156 1192.93 162.054 1192.93 Q159.855 1192.93 157.402 1193.69 Q154.971 1194.45 152.193 1196.01 L152.193 1191.28 Q155.017 1190.15 157.471 1189.57 Q159.925 1188.99 161.962 1188.99 Q167.332 1188.99 170.527 1191.68 Q173.721 1194.36 173.721 1198.85 Q173.721 1200.98 172.911 1202.9 Q172.124 1204.8 170.017 1207.39 Q169.439 1208.07 166.337 1211.28 Q163.235 1214.48 157.587 1220.24 Z" fill="#000000" fill-rule="nonzero" fill-opacity="1" /><path clip-path="url(#clip050)" d="M117.379 812.107 Q113.768 812.107 111.939 815.672 Q110.133 819.214 110.133 826.343 Q110.133 833.45 111.939 837.014 Q113.768 840.556 117.379 840.556 Q121.013 840.556 122.819 837.014 Q124.647 833.45 124.647 826.343 Q124.647 819.214 122.819 815.672 Q121.013 812.107 117.379 812.107 M117.379 808.403 Q123.189 808.403 126.244 813.01 Q129.323 817.593 129.323 826.343 Q129.323 835.07 126.244 839.676 Q123.189 844.26 117.379 844.26 Q111.569 844.26 108.49 839.676 Q105.434 835.07 105.434 826.343 Q105.434 817.593 108.49 813.01 Q111.569 808.403 117.379 808.403 Z" fill="#000000" fill-rule="nonzero" fill-opacity="1" /><path clip-path="url(#clip050)" d="M137.541 837.709 L142.425 837.709 L142.425 843.588 L137.541 843.588 L137.541 837.709 Z" fill="#000000" fill-rule="nonzero" fill-opacity="1" /><path clip-path="url(#clip050)" d="M166.777 824.954 Q170.133 825.672 172.008 827.94 Q173.906 830.209 173.906 833.542 Q173.906 838.658 170.388 841.459 Q166.869 844.26 160.388 844.26 Q158.212 844.26 155.897 843.82 Q153.605 843.403 151.152 842.547 L151.152 838.033 Q153.096 839.167 155.411 839.746 Q157.726 840.325 160.249 840.325 Q164.647 840.325 166.939 838.588 Q169.254 836.852 169.254 833.542 Q169.254 830.487 167.101 828.774 Q164.971 827.038 161.152 827.038 L157.124 827.038 L157.124 823.195 L161.337 823.195 Q164.786 823.195 166.615 821.829 Q168.443 820.44 168.443 817.848 Q168.443 815.186 166.545 813.774 Q164.67 812.339 161.152 812.339 Q159.23 812.339 157.031 812.755 Q154.832 813.172 152.193 814.052 L152.193 809.885 Q154.855 809.144 157.17 808.774 Q159.508 808.403 161.568 808.403 Q166.892 808.403 169.994 810.834 Q173.096 813.241 173.096 817.362 Q173.096 820.232 171.453 822.223 Q169.809 824.19 166.777 824.954 Z" fill="#000000" fill-rule="nonzero" fill-opacity="1" /><path clip-path="url(#clip050)" d="M116.245 431.519 Q112.633 431.519 110.805 435.084 Q108.999 438.625 108.999 445.755 Q108.999 452.861 110.805 456.426 Q112.633 459.968 116.245 459.968 Q119.879 459.968 121.684 456.426 Q123.513 452.861 123.513 445.755 Q123.513 438.625 121.684 435.084 Q119.879 431.519 116.245 431.519 M116.245 427.815 Q122.055 427.815 125.11 432.422 Q128.189 437.005 128.189 445.755 Q128.189 454.482 125.11 459.088 Q122.055 463.671 116.245 463.671 Q110.434 463.671 107.356 459.088 Q104.3 454.482 104.3 445.755 Q104.3 437.005 107.356 432.422 Q110.434 427.815 116.245 427.815 Z" fill="#000000" fill-rule="nonzero" fill-opacity="1" /><path clip-path="url(#clip050)" d="M136.406 457.12 L141.291 457.12 L141.291 463 L136.406 463 L136.406 457.12 Z" fill="#000000" fill-rule="nonzero" fill-opacity="1" /><path clip-path="url(#clip050)" d="M164.323 432.514 L152.517 450.963 L164.323 450.963 L164.323 432.514 M163.096 428.44 L168.976 428.44 L168.976 450.963 L173.906 450.963 L173.906 454.852 L168.976 454.852 L168.976 463 L164.323 463 L164.323 454.852 L148.721 454.852 L148.721 450.338 L163.096 428.44 Z" fill="#000000" fill-rule="nonzero" fill-opacity="1" /><path clip-path="url(#clip050)" d="M117.726 50.9304 Q114.115 50.9304 112.286 54.4952 Q110.481 58.0369 110.481 65.1665 Q110.481 72.2729 112.286 75.8377 Q114.115 79.3794 117.726 79.3794 Q121.36 79.3794 123.166 75.8377 Q124.994 72.2729 124.994 65.1665 Q124.994 58.0369 123.166 54.4952 Q121.36 50.9304 117.726 50.9304 M117.726 47.2267 Q123.536 47.2267 126.592 51.8332 Q129.67 56.4165 129.67 65.1665 Q129.67 73.8933 126.592 78.4997 Q123.536 83.083 117.726 83.083 Q111.916 83.083 108.837 78.4997 Q105.782 73.8933 105.782 65.1665 Q105.782 56.4165 108.837 51.8332 Q111.916 47.2267 117.726 47.2267 Z" fill="#000000" fill-rule="nonzero" fill-opacity="1" /><path clip-path="url(#clip050)" d="M137.888 76.5321 L142.772 76.5321 L142.772 82.4117 L137.888 82.4117 L137.888 76.5321 Z" fill="#000000" fill-rule="nonzero" fill-opacity="1" /><path clip-path="url(#clip050)" d="M153.004 47.8517 L171.36 47.8517 L171.36 51.7869 L157.286 51.7869 L157.286 60.2591 Q158.304 59.9119 159.323 59.7498 Q160.342 59.5646 161.36 59.5646 Q167.147 59.5646 170.527 62.7359 Q173.906 65.9072 173.906 71.3238 Q173.906 76.9025 170.434 80.0044 Q166.962 83.083 160.642 83.083 Q158.467 83.083 156.198 82.7127 Q153.953 82.3423 151.545 81.6016 L151.545 76.9025 Q153.629 78.0368 155.851 78.5923 Q158.073 79.1479 160.55 79.1479 Q164.554 79.1479 166.892 77.0414 Q169.23 74.9349 169.23 71.3238 Q169.23 67.7128 166.892 65.6063 Q164.554 63.4998 160.55 63.4998 Q158.675 63.4998 156.8 63.9165 Q154.948 64.3331 153.004 65.2128 L153.004 47.8517 Z" fill="#000000" fill-rule="nonzero" fill-opacity="1" /><path clip-path="url(#clip050)" d="M1.76483 1219.25 L7.23933 1219.25 Q5.87071 1221.73 5.20231 1224.25 Q4.50208 1226.73 4.50208 1229.28 Q4.50208 1234.97 8.13053 1238.13 Q11.7272 1241.28 18.252 1241.28 Q24.7769 1241.28 28.4053 1238.13 Q32.0019 1234.97 32.0019 1229.28 Q32.0019 1226.73 31.3335 1224.25 Q30.6333 1221.73 29.2647 1219.25 L34.6755 1219.25 Q35.8214 1221.7 36.3943 1224.34 Q36.9672 1226.95 36.9672 1229.91 Q36.9672 1237.97 31.9064 1242.71 Q26.8457 1247.45 18.252 1247.45 Q9.53099 1247.45 4.53391 1242.68 Q-0.46317 1237.87 -0.46317 1229.53 Q-0.46317 1226.83 0.109744 1224.25 Q0.650829 1221.67 1.76483 1219.25 Z" fill="#000000" fill-rule="nonzero" fill-opacity="1" /><path clip-path="url(#clip050)" d="M-11.4758 1215.4 L-11.4758 1175.2 L-6.06499 1175.2 L-6.06499 1192.07 L36.0442 1192.07 L36.0442 1198.53 L-6.06499 1198.53 L-6.06499 1215.4 L-11.4758 1215.4 Z" fill="#000000" fill-rule="nonzero" fill-opacity="1" /><path clip-path="url(#clip050)" d="M14.5281 1139.62 L36.0442 1139.62 L36.0442 1145.47 L14.719 1145.47 Q9.6583 1145.47 7.14385 1147.45 Q4.6294 1149.42 4.6294 1153.37 Q4.6294 1158.11 7.65311 1160.85 Q10.6768 1163.58 15.8967 1163.58 L36.0442 1163.58 L36.0442 1169.47 L0.3962 1169.47 L0.3962 1163.58 L5.93437 1163.58 Q2.71968 1161.48 1.12826 1158.65 Q-0.46317 1155.78 -0.46317 1152.06 Q-0.46317 1145.92 3.35625 1142.77 Q7.14385 1139.62 14.5281 1139.62 Z" fill="#000000" fill-rule="nonzero" fill-opacity="1" /><path clip-path="url(#clip050)" d="M-11.4758 1134.27 L-11.4758 1094.07 L-6.06499 1094.07 L-6.06499 1110.94 L36.0442 1110.94 L36.0442 1117.4 L-6.06499 1117.4 L-6.06499 1134.27 L-11.4758 1134.27 Z" fill="#000000" fill-rule="nonzero" fill-opacity="1" /><path clip-path="url(#clip050)" d="M-13.481 1067.94 L-13.481 1054.44 L-8.92956 1054.44 L-8.92956 1062.08 L40.0864 1062.08 L40.0864 1054.44 L44.6379 1054.44 L44.6379 1067.94 L-13.481 1067.94 Z" fill="#000000" fill-rule="nonzero" fill-opacity="1" /><path clip-path="url(#clip050)" d="M14.5281 1012.33 L36.0442 1012.33 L36.0442 1018.19 L14.719 1018.19 Q9.6583 1018.19 7.14385 1020.16 Q4.6294 1022.14 4.6294 1026.08 Q4.6294 1030.83 7.65311 1033.56 Q10.6768 1036.3 15.8967 1036.3 L36.0442 1036.3 L36.0442 1042.19 L0.3962 1042.19 L0.3962 1036.3 L5.93437 1036.3 Q2.71968 1034.2 1.12826 1031.37 Q-0.46317 1028.5 -0.46317 1024.78 Q-0.46317 1018.64 3.35625 1015.48 Q7.14385 1012.33 14.5281 1012.33 Z" fill="#000000" fill-rule="nonzero" fill-opacity="1" /><path clip-path="url(#clip050)" d="M17.8064 977.195 Q11.4407 977.195 7.93956 979.837 Q4.43842 982.446 4.43842 987.189 Q4.43842 991.9 7.93956 994.541 Q11.4407 997.151 17.8064 997.151 Q24.1403 997.151 27.6414 994.541 Q31.1426 991.9 31.1426 987.189 Q31.1426 982.446 27.6414 979.837 Q24.1403 977.195 17.8064 977.195 M31.62 971.338 Q40.723 971.338 45.1471 975.381 Q49.6031 979.423 49.6031 987.762 Q49.6031 990.849 49.1257 993.586 Q48.6801 996.324 47.7252 998.902 L42.0279 998.902 Q43.4284 996.324 44.0968 993.809 Q44.7652 991.295 44.7652 988.685 Q44.7652 982.924 41.7415 980.059 Q38.7496 977.195 32.6703 977.195 L29.7739 977.195 Q32.925 979.009 34.4846 981.842 Q36.0442 984.674 36.0442 988.621 Q36.0442 995.178 31.0471 999.188 Q26.05 1003.2 17.8064 1003.2 Q9.53099 1003.2 4.53391 999.188 Q-0.46317 995.178 -0.46317 988.621 Q-0.46317 984.674 1.09643 981.842 Q2.65603 979.009 5.80705 977.195 L0.3962 977.195 L0.3962 971.338 L31.62 971.338 Z" fill="#000000" fill-rule="nonzero" fill-opacity="1" /><path clip-path="url(#clip050)" d="M-11.4758 948.867 L-11.4758 943.457 L42.0916 960.007 L42.0916 965.418 L-11.4758 948.867 Z" fill="#000000" fill-rule="nonzero" fill-opacity="1" /><path clip-path="url(#clip050)" d="M7.23933 909.559 Q3.2926 907.363 1.41471 904.307 Q-0.46317 901.252 -0.46317 897.114 Q-0.46317 891.544 3.45174 888.52 Q7.33482 885.497 14.5281 885.497 L36.0442 885.497 L36.0442 891.385 L14.719 891.385 Q9.59465 891.385 7.11202 893.199 Q4.6294 895.014 4.6294 898.737 Q4.6294 903.289 7.65311 905.931 Q10.6768 908.572 15.8967 908.572 L36.0442 908.572 L36.0442 914.461 L14.719 914.461 Q9.56282 914.461 7.11202 916.275 Q4.6294 918.089 4.6294 921.877 Q4.6294 926.365 7.68493 929.006 Q10.7086 931.648 15.8967 931.648 L36.0442 931.648 L36.0442 937.536 L0.3962 937.536 L0.3962 931.648 L5.93437 931.648 Q2.65603 929.643 1.09643 926.842 Q-0.46317 924.041 -0.46317 920.19 Q-0.46317 916.307 1.5102 913.601 Q3.48357 910.864 7.23933 909.559 Z" fill="#000000" fill-rule="nonzero" fill-opacity="1" /><path clip-path="url(#clip050)" d="M-11.4758 873.561 L-11.4758 867.132 L30.6333 867.132 L30.6333 843.992 L36.0442 843.992 L36.0442 873.561 L-11.4758 873.561 Z" fill="#000000" fill-rule="nonzero" fill-opacity="1" /><path clip-path="url(#clip050)" d="M-13.481 823.813 L44.6379 823.813 L44.6379 837.308 L40.0864 837.308 L40.0864 829.701 L-8.92956 829.701 L-8.92956 837.308 L-13.481 837.308 L-13.481 823.813 Z" fill="#000000" fill-rule="nonzero" fill-opacity="1" /><polyline clip-path="url(#clip051)" style="stroke:#4169e1; stroke-linecap:round; stroke-linejoin:round; stroke-width:8; stroke-opacity:1; fill:none" points="322.006,1968.07 355.757,1833.56 389.509,1714.64 423.261,1609.74 457.012,1517.44 490.764,1436.45 524.516,1365.62 558.267,1303.9 592.019,1250.33 625.77,1204.06 659.522,1164.3 693.274,1130.35 727.025,1101.54 760.777,1077.28 794.528,1057.03 828.28,1040.29 862.032,1026.58 895.783,1015.49 929.535,1006.61 963.287,999.576 997.038,994.039 1030.79,989.679 1064.54,986.199 1098.29,983.323 1132.04,980.795 1165.8,978.382 1199.55,975.872 1233.3,973.077 1267.05,969.83 1300.8,965.99 1334.55,961.441 1368.31,956.094 1402.06,949.886 1435.81,942.782 1469.56,934.775 1503.31,925.885 1537.06,916.158 1570.82,905.663 1604.57,894.494 1638.32,882.761 1672.07,870.593 1705.82,858.129 1739.57,845.516 1773.33,832.906 1807.08,820.449 1840.83,808.291 1874.58,796.571 1908.33,785.415 1942.08,774.934 1975.84,765.226 2009.59,756.368 2043.34,748.424 2077.09,741.434 2110.84,735.428 2144.59,730.415 2178.34,726.394 2212.1,723.347 2245.85,721.251 2279.6,720.071 2313.35,719.768 2347.1,720.296 2380.85,721.607 2414.61,723.652 2448.36,726.38 2482.11,729.743 2515.86,733.691 2549.61,738.177 2583.36,743.157 2617.12,748.587 2650.87,754.428 2684.62,760.641 2718.37,767.192 2752.12,774.046 2785.87,781.175 2819.63,788.548 2853.38,796.141 2887.13,803.928 2920.88,811.887 2954.63,819.998 2988.38,828.242 3022.14,836.601 3055.89,845.059 3089.64,853.601 3123.39,862.214 3157.14,870.885 3190.89,879.603 3224.65,888.358 3258.4,897.14 3292.15,905.94 3325.9,914.75 3359.65,923.563 3393.4,932.373 3427.15,941.173 3458.66,949.372 "/>
<polyline clip-path="url(#clip051)" style="stroke:#ff8c00; stroke-linecap:round; stroke-linejoin:round; stroke-width:8; stroke-opacity:1; fill:none" stroke-dasharray="32, 20" points="322.006,1968.07 355.757,1836.04 389.509,1718.71 423.261,1614.65 457.012,1522.57 490.764,1441.28 524.516,1369.74 558.267,1306.99 592.019,1252.15 625.77,1204.44 659.522,1163.16 693.274,1127.66 727.025,1097.35 760.777,1071.73 794.528,1050.29 828.28,1032.62 862.032,1018.32 895.783,1007.03 929.535,998.423 963.287,992.177 997.038,987.989 1030.79,985.548 1064.54,984.508 1098.29,984.472 1132.04,984.981 1165.8,985.54 1199.55,985.673 1233.3,984.983 1267.05,983.194 1300.8,980.148 1334.55,975.799 1368.31,970.173 1402.06,963.349 1435.81,955.437 1469.56,946.556 1503.31,936.833 1537.06,926.39 1570.82,915.341 1604.57,903.795 1638.32,891.849 1672.07,879.592 1705.82,867.105 1739.57,854.459 1773.33,841.718 1807.08,828.938 1840.83,816.17 1874.58,803.458 1908.33,790.84 1942.08,778.35 1975.84,766.018 2009.59,753.869 2043.34,741.926 2077.09,730.207 2110.84,718.728 2144.59,707.503 2178.34,696.542 2212.1,685.855 2245.85,675.45 2279.6,665.331 2313.35,655.502 2347.1,645.968 2380.85,636.729 2414.61,627.785 2448.36,619.138 2482.11,610.785 2515.86,602.725 2549.61,594.955 2583.36,587.472 2617.12,580.273 2650.87,573.354 2684.62,566.71 2718.37,560.337 2752.12,554.231 2785.87,548.385 2819.63,542.794 2853.38,537.454 2887.13,532.358 2920.88,527.502 2954.63,522.878 2988.38,518.481 3022.14,514.307 3055.89,510.348 3089.64,506.599 3123.39,503.054 3157.14,499.709 3190.89,496.556 3224.65,493.591 3258.4,490.808 3292.15,488.202 3325.9,485.767 3359.65,483.499 3393.4,481.392 3427.15,479.442 3458.66,477.759 "/>
<line clip-path="url(#clip051)" x1="2342.04" y1="103.191" x2="2314.04" y2="75.1906" style="stroke:#dc143c; stroke-width:8.8; stroke-opacity:1"/>
<line clip-path="url(#clip051)" x1="2342.04" y1="103.191" x2="2314.04" y2="131.191" style="stroke:#dc143c; stroke-width:8.8; stroke-opacity:1"/>
<line clip-path="url(#clip051)" x1="2342.04" y1="103.191" x2="2370.04" y2="131.191" style="stroke:#dc143c; stroke-width:8.8; stroke-opacity:1"/>
<line clip-path="url(#clip051)" x1="2342.04" y1="103.191" x2="2370.04" y2="75.1906" style="stroke:#dc143c; stroke-width:8.8; stroke-opacity:1"/>
<line clip-path="url(#clip051)" x1="2600.8" y1="141.249" x2="2572.8" y2="113.249" style="stroke:#dc143c; stroke-width:8.8; stroke-opacity:1"/>
<line clip-path="url(#clip051)" x1="2600.8" y1="141.249" x2="2572.8" y2="169.249" style="stroke:#dc143c; stroke-width:8.8; stroke-opacity:1"/>
<line clip-path="url(#clip051)" x1="2600.8" y1="141.249" x2="2628.8" y2="169.249" style="stroke:#dc143c; stroke-width:8.8; stroke-opacity:1"/>
<line clip-path="url(#clip051)" x1="2600.8" y1="141.249" x2="2628.8" y2="113.249" style="stroke:#dc143c; stroke-width:8.8; stroke-opacity:1"/>
<line clip-path="url(#clip051)" x1="2783.62" y1="141.249" x2="2755.62" y2="113.249" style="stroke:#dc143c; stroke-width:8.8; stroke-opacity:1"/>
<line clip-path="url(#clip051)" x1="2783.62" y1="141.249" x2="2755.62" y2="169.249" style="stroke:#dc143c; stroke-width:8.8; stroke-opacity:1"/>
<line clip-path="url(#clip051)" x1="2783.62" y1="141.249" x2="2811.62" y2="169.249" style="stroke:#dc143c; stroke-width:8.8; stroke-opacity:1"/>
<line clip-path="url(#clip051)" x1="2783.62" y1="141.249" x2="2811.62" y2="113.249" style="stroke:#dc143c; stroke-width:8.8; stroke-opacity:1"/>
<circle clip-path="url(#clip051)" cx="636.458" cy="1206.9" r="18" fill="#1e90ff" fill-rule="evenodd" fill-opacity="1" stroke="#000000" stroke-opacity="1" stroke-width="4.4"/>
<circle clip-path="url(#clip051)" cx="989.163" cy="902.426" r="18" fill="#1e90ff" fill-rule="evenodd" fill-opacity="1" stroke="#000000" stroke-opacity="1" stroke-width="4.4"/>
<circle clip-path="url(#clip051)" cx="1157.92" cy="1054.66" r="18" fill="#1e90ff" fill-rule="evenodd" fill-opacity="1" stroke="#000000" stroke-opacity="1" stroke-width="4.4"/>
<circle clip-path="url(#clip051)" cx="1745.76" cy="826.308" r="18" fill="#1e90ff" fill-rule="evenodd" fill-opacity="1" stroke="#000000" stroke-opacity="1" stroke-width="4.4"/>
<circle clip-path="url(#clip051)" cx="2066.4" cy="750.191" r="18" fill="#1e90ff" fill-rule="evenodd" fill-opacity="1" stroke="#000000" stroke-opacity="1" stroke-width="4.4"/>
</svg>
