<?xml version="1.0" encoding="utf-8"?>
<svg xmlns="http://www.w3.org/2000/svg" xmlns:xlink="http://www.w3.org/1999/xlink" width="600" height="400" viewBox="0 0 2400 1600">
<defs>
  <clipPath id="clip400">
    <rect x="0" y="0" width="2400" height="1600"/>
  </clipPath>
</defs>
<path clip-path="url(#clip400)" d="M0 1600 L2400 1600 L2400 0 L0 0  Z" fill="#ffffff" fill-rule="evenodd" fill-opacity="1"/>
<defs>
  <clipPath id="clip401">
    <rect x="480" y="0" width="1681" height="1600"/>
  </clipPath>
</defs>
<path clip-path="url(#clip400)" d="M235.283 1423.18 L2352.76 1423.18 L2352.76 123.472 L235.283 123.472  Z" fill="#ffffff" fill-rule="evenodd" fill-opacity="1"/>
<defs>
  <clipPath id="clip402">
    <rect x="235" y="123" width="2118" height="1301"/>
  </clipPath>
</defs>
<polyline clip-path="url(#clip402)" style="stroke:#000000; stroke-linecap:round; stroke-linejoin:round; stroke-width:2; stroke-opacity:0.1; fill:none" points="288.816,1423.18 288.816,123.472 "/>
<polyline clip-path="url(#clip402)" style="stroke:#000000; stroke-linecap:round; stroke-linejoin:round; stroke-width:2; stroke-opacity:0.1; fill:none" points="715.201,1423.18 715.201,123.472 "/>
<polyline clip-path="url(#clip402)" style="stroke:#000000; stroke-linecap:round; stroke-linejoin:round; stroke-width:2; stroke-opacity:0.1; fill:none" points="1141.59,1423.18 1141.59,123.472 "/>
<polyline clip-path="url(#clip402)" style="stroke:#000000; stroke-linecap:round; stroke-linejoin:round; stroke-width:2; stroke-opacity:0.1; fill:none" points="1567.97,1423.18 1567.97,123.472 "/>
<polyline clip-path="url(#clip402)" style="stroke:#000000; stroke-linecap:round; stroke-linejoin:round; stroke-width:2; stroke-opacity:0.1; fill:none" points="1994.36,1423.18 1994.36,123.472 "/>
<polyline clip-path="url(#clip402)" style="stroke:#000000; stroke-linecap:round; stroke-linejoin:round; stroke-width:2; stroke-opacity:0.1; fill:none" points="235.283,1386.4 2352.76,1386.4 "/>
<polyline clip-path="url(#clip402)" style="stroke:#000000; stroke-linecap:round; stroke-linejoin:round; stroke-width:2; stroke-opacity:0.1; fill:none" points="235.283,1155.29 2352.76,1155.29 "/>
<polyline clip-path="url(#clip402)" style="stroke:#000000; stroke-linecap:round; stroke-linejoin:round; stroke-width:2; stroke-opacity:0.1; fill:none" points="235.283,924.184 2352.76,924.184 "/>
<polyline clip-path="url(#clip402)" style="stroke:#000000; stroke-linecap:round; stroke-linejoin:round; stroke-width:2; stroke-opacity:0.1; fill:none" points="235.283,693.078 2352.76,693.078 "/>
<polyline clip-path="url(#clip402)" style="stroke:#000000; stroke-linecap:round; stroke-linejoin:round; stroke-width:2; stroke-opacity:0.1; fill:none" points="235.283,461.972 2352.76,461.972 "/>
<polyline clip-path="url(#clip402)" style="stroke:#000000; stroke-linecap:round; stroke-linejoin:round; stroke-width:2; stroke-opacity:0.1; fill:none" points="235.283,230.866 2352.76,230.866 "/>
<polyline clip-path="url(#clip400)" style="stroke:#000000; stroke-linecap:round; stroke-linejoin:round; stroke-width:4; stroke-opacity:1; fill:none" points="235.283,1423.18 2352.76,1423.18 "/>
<polyline clip-path="url(#clip400)" style="stroke:#000000; stroke-linecap:round; stroke-linejoin:round; stroke-width:4; stroke-opacity:1; fill:none" points="288.816,1423.18 288.816,1404.28 "/>
<polyline clip-path="url(#clip400)" style="stroke:#000000; stroke-linecap:round; stroke-linejoin:round; stroke-width:4; stroke-opacity:1; fill:none" points="715.201,1423.18 715.201,1404.28 "/>
<polyline clip-path="url(#clip400)" style="stroke:#000000; stroke-linecap:round; stroke-linejoin:round; stroke-width:4; stroke-opacity:1; fill:none" points="1141.59,1423.18 1141.59,1404.28 "/>
<polyline clip-path="url(#clip400)" style="stroke:#000000; stroke-linecap:round; stroke-linejoin:round; stroke-width:4; stroke-opacity:1; fill:none" points="1567.97,1423.18 1567.97,1404.28 "/>
<polyline clip-path="url(#clip400)" style="stroke:#000000; stroke-linecap:round; stroke-linejoin:round; stroke-width:4; stroke-opacity:1; fill:none" points="1994.36,1423.18 1994.36,1404.28 "/>
<path clip-path="url(#clip400)" d="M288.816 1454.1 Q285.204 1454.1 283.376 1457.66 Q281.57 1461.2 281.57 1468.33 Q281.57 1475.44 283.376 1479.01 Q285.204 1482.55 288.816 1482.55 Q292.45 1482.55 294.255 1479.01 Q296.084 1475.44 296.084 1468.33 Q296.084 1461.2 294.255 1457.66 Q292.45 1454.1 288.816 1454.1 M288.816 1450.39 Q294.626 1450.39 297.681 1455 Q300.76 1459.58 300.76 1468.33 Q300.76 1477.06 297.681 1481.67 Q294.626 1486.25 288.816 1486.25 Q283.005 1486.25 279.927 1481.67 Q276.871 1477.06 276.871 1468.33 Q276.871 1459.58 279.927 1455 Q283.005 1450.39 288.816 1450.39 Z" fill="#000000" fill-rule="nonzero" fill-opacity="1" /><path clip-path="url(#clip400)" d="M689.889 1481.64 L697.528 1481.64 L697.528 1455.28 L689.217 1456.95 L689.217 1452.69 L697.481 1451.02 L702.157 1451.02 L702.157 1481.64 L709.796 1481.64 L709.796 1485.58 L689.889 1485.58 L689.889 1481.64 Z" fill="#000000" fill-rule="nonzero" fill-opacity="1" /><path clip-path="url(#clip400)" d="M729.24 1454.1 Q725.629 1454.1 723.801 1457.66 Q721.995 1461.2 721.995 1468.33 Q721.995 1475.44 723.801 1479.01 Q725.629 1482.55 729.24 1482.55 Q732.875 1482.55 734.68 1479.01 Q736.509 1475.44 736.509 1468.33 Q736.509 1461.2 734.68 1457.66 Q732.875 1454.1 729.24 1454.1 M729.24 1450.39 Q735.05 1450.39 738.106 1455 Q741.185 1459.58 741.185 1468.33 Q741.185 1477.06 738.106 1481.67 Q735.05 1486.25 729.24 1486.25 Q723.43 1486.25 720.351 1481.67 Q717.296 1477.06 717.296 1468.33 Q717.296 1459.58 720.351 1455 Q723.43 1450.39 729.24 1450.39 Z" fill="#000000" fill-rule="nonzero" fill-opacity="1" /><path clip-path="url(#clip400)" d="M1120.36 1481.64 L1136.68 1481.64 L1136.68 1485.58 L1114.73 1485.58 L1114.73 1481.64 Q1117.4 1478.89 1121.98 1474.26 Q1126.59 1469.61 1127.77 1468.27 Q1130.01 1465.74 1130.89 1464.01 Q1131.79 1462.25 1131.79 1460.56 Q1131.79 1457.8 1129.85 1456.07 Q1127.93 1454.33 1124.83 1454.33 Q1122.63 1454.33 1120.17 1455.09 Q1117.74 1455.86 1114.97 1457.41 L1114.97 1452.69 Q1117.79 1451.55 1120.24 1450.97 Q1122.7 1450.39 1124.73 1450.39 Q1130.11 1450.39 1133.3 1453.08 Q1136.49 1455.77 1136.49 1460.26 Q1136.49 1462.39 1135.68 1464.31 Q1134.9 1466.2 1132.79 1468.8 Q1132.21 1469.47 1129.11 1472.69 Q1126.01 1475.88 1120.36 1481.64 Z" fill="#000000" fill-rule="nonzero" fill-opacity="1" /><path clip-path="url(#clip400)" d="M1156.49 1454.1 Q1152.88 1454.1 1151.05 1457.66 Q1149.25 1461.2 1149.25 1468.33 Q1149.25 1475.44 1151.05 1479.01 Q1152.88 1482.55 1156.49 1482.55 Q1160.13 1482.55 1161.93 1479.01 Q1163.76 1475.44 1163.76 1468.33 Q1163.76 1461.2 1161.93 1457.66 Q1160.13 1454.1 1156.49 1454.1 M1156.49 1450.39 Q1162.3 1450.39 1165.36 1455 Q1168.44 1459.58 1168.44 1468.33 Q1168.44 1477.06 1165.36 1481.67 Q1162.3 1486.25 1156.49 1486.25 Q1150.68 1486.25 1147.61 1481.67 Q1144.55 1477.06 1144.55 1468.33 Q1144.55 1459.58 1147.61 1455 Q1150.68 1450.39 1156.49 1450.39 Z" fill="#000000" fill-rule="nonzero" fill-opacity="1" /><path clip-path="url(#clip400)" d="M1556.81 1466.95 Q1560.17 1467.66 1562.05 1469.93 Q1563.94 1472.2 1563.94 1475.53 Q1563.94 1480.65 1560.43 1483.45 Q1556.91 1486.25 1550.43 1486.25 Q1548.25 1486.25 1545.94 1485.81 Q1543.64 1485.39 1541.19 1484.54 L1541.19 1480.02 Q1543.13 1481.16 1545.45 1481.74 Q1547.76 1482.32 1550.29 1482.32 Q1554.69 1482.32 1556.98 1480.58 Q1559.29 1478.84 1559.29 1475.53 Q1559.29 1472.48 1557.14 1470.77 Q1555.01 1469.03 1551.19 1469.03 L1547.16 1469.03 L1547.16 1465.19 L1551.37 1465.19 Q1554.82 1465.19 1556.65 1463.82 Q1558.48 1462.43 1558.48 1459.84 Q1558.48 1457.18 1556.58 1455.77 Q1554.71 1454.33 1551.19 1454.33 Q1549.27 1454.33 1547.07 1454.75 Q1544.87 1455.16 1542.23 1456.04 L1542.23 1451.88 Q1544.89 1451.14 1547.21 1450.77 Q1549.55 1450.39 1551.61 1450.39 Q1556.93 1450.39 1560.03 1452.83 Q1563.13 1455.23 1563.13 1459.35 Q1563.13 1462.22 1561.49 1464.21 Q1559.85 1466.18 1556.81 1466.95 Z" fill="#000000" fill-rule="nonzero" fill-opacity="1" /><path clip-path="url(#clip400)" d="M1582.81 1454.1 Q1579.2 1454.1 1577.37 1457.66 Q1575.56 1461.2 1575.56 1468.33 Q1575.56 1475.44 1577.37 1479.01 Q1579.2 1482.55 1582.81 1482.55 Q1586.44 1482.55 1588.25 1479.01 Q1590.08 1475.44 1590.08 1468.33 Q1590.08 1461.2 1588.25 1457.66 Q1586.44 1454.1 1582.81 1454.1 M1582.81 1450.39 Q1588.62 1450.39 1591.68 1455 Q1594.75 1459.58 1594.75 1468.33 Q1594.75 1477.06 1591.68 1481.67 Q1588.62 1486.25 1582.81 1486.25 Q1577 1486.25 1573.92 1481.67 Q1570.87 1477.06 1570.87 1468.33 Q1570.87 1459.58 1573.92 1455 Q1577 1450.39 1582.81 1450.39 Z" fill="#000000" fill-rule="nonzero" fill-opacity="1" /><path clip-path="url(#clip400)" d="M1982.53 1455.09 L1970.72 1473.54 L1982.53 1473.54 L1982.53 1455.09 M1981.3 1451.02 L1987.18 1451.02 L1987.18 1473.54 L1992.11 1473.54 L1992.11 1477.43 L1987.18 1477.43 L1987.18 1485.58 L1982.53 1485.58 L1982.53 1477.43 L1966.93 1477.43 L1966.93 1472.92 L1981.3 1451.02 Z" fill="#000000" fill-rule="nonzero" fill-opacity="1" /><path clip-path="url(#clip400)" d="M2009.84 1454.1 Q2006.23 1454.1 2004.4 1457.66 Q2002.6 1461.2 2002.6 1468.33 Q2002.6 1475.44 2004.4 1479.01 Q2006.23 1482.55 2009.84 1482.55 Q2013.48 1482.55 2015.28 1479.01 Q2017.11 1475.44 2017.11 1468.33 Q2017.11 1461.2 2015.28 1457.66 Q2013.48 1454.1 2009.84 1454.1 M2009.84 1450.39 Q2015.65 1450.39 2018.71 1455 Q2021.79 1459.58 2021.79 1468.33 Q2021.79 1477.06 2018.71 1481.67 Q2015.65 1486.25 2009.84 1486.25 Q2004.03 1486.25 2000.95 1481.67 Q1997.9 1477.06 1997.9 1468.33 Q1997.9 1459.58 2000.95 1455 Q2004.03 1450.39 2009.84 1450.39 Z" fill="#000000" fill-rule="nonzero" fill-opacity="1" /><path clip-path="url(#clip400)" d="M1215.9 1520.52 L1256.1 1520.52 L1256.1 1525.93 L1239.23 1525.93 L1239.23 1568.04 L1232.77 1568.04 L1232.77 1525.93 L1215.9 1525.93 L1215.9 1520.52 Z" fill="#000000" fill-rule="nonzero" fill-opacity="1" /><path clip-path="url(#clip400)" d="M1260.04 1532.4 L1265.9 1532.4 L1265.9 1568.04 L1260.04 1568.04 L1260.04 1532.4 M1260.04 1518.52 L1265.9 1518.52 L1265.9 1525.93 L1260.04 1525.93 L1260.04 1518.52 Z" fill="#000000" fill-rule="nonzero" fill-opacity="1" /><path clip-path="url(#clip400)" d="M1305.91 1539.24 Q1308.1 1535.29 1311.16 1533.41 Q1314.21 1531.54 1318.35 1531.54 Q1323.92 1531.54 1326.95 1535.45 Q1329.97 1539.33 1329.97 1546.53 L1329.97 1568.04 L1324.08 1568.04 L1324.08 1546.72 Q1324.08 1541.59 1322.27 1539.11 Q1320.45 1536.63 1316.73 1536.63 Q1312.18 1536.63 1309.54 1539.65 Q1306.89 1542.68 1306.89 1547.9 L1306.89 1568.04 L1301.01 1568.04 L1301.01 1546.72 Q1301.01 1541.56 1299.19 1539.11 Q1297.38 1536.63 1293.59 1536.63 Q1289.1 1536.63 1286.46 1539.68 Q1283.82 1542.71 1283.82 1547.9 L1283.82 1568.04 L1277.93 1568.04 L1277.93 1532.4 L1283.82 1532.4 L1283.82 1537.93 Q1285.82 1534.66 1288.62 1533.1 Q1291.43 1531.54 1295.28 1531.54 Q1299.16 1531.54 1301.87 1533.51 Q1304.6 1535.48 1305.91 1539.24 Z" fill="#000000" fill-rule="nonzero" fill-opacity="1" /><path clip-path="url(#clip400)" d="M1372.14 1548.76 L1372.14 1551.62 L1345.22 1551.62 Q1345.6 1557.67 1348.84 1560.85 Q1352.12 1564 1357.95 1564 Q1361.32 1564 1364.47 1563.17 Q1367.65 1562.35 1370.77 1560.69 L1370.77 1566.23 Q1367.62 1567.57 1364.31 1568.27 Q1361 1568.97 1357.6 1568.97 Q1349.07 1568.97 1344.07 1564 Q1339.1 1559.04 1339.1 1550.57 Q1339.1 1541.82 1343.82 1536.69 Q1348.56 1531.54 1356.58 1531.54 Q1363.77 1531.54 1367.94 1536.18 Q1372.14 1540.8 1372.14 1548.76 M1366.29 1547.04 Q1366.22 1542.23 1363.58 1539.37 Q1360.97 1536.5 1356.64 1536.5 Q1351.74 1536.5 1348.78 1539.27 Q1345.85 1542.04 1345.41 1547.07 L1366.29 1547.04 Z" fill="#000000" fill-rule="nonzero" fill-opacity="1" /><polyline clip-path="url(#clip400)" style="stroke:#000000; stroke-linecap:round; stroke-linejoin:round; stroke-width:4; stroke-opacity:1; fill:none" points="235.283,1423.18 235.283,123.472 "/>
<polyline clip-path="url(#clip400)" style="stroke:#000000; stroke-linecap:round; stroke-linejoin:round; stroke-width:4; stroke-opacity:1; fill:none" points="235.283,1386.4 254.18,1386.4 "/>
<polyline clip-path="url(#clip400)" style="stroke:#000000; stroke-linecap:round; stroke-linejoin:round; stroke-width:4; stroke-opacity:1; fill:none" points="235.283,1155.29 254.18,1155.29 "/>
<polyline clip-path="url(#clip400)" style="stroke:#000000; stroke-linecap:round; stroke-linejoin:round; stroke-width:4; stroke-opacity:1; fill:none" points="235.283,924.184 254.18,924.184 "/>
<polyline clip-path="url(#clip400)" style="stroke:#000000; stroke-linecap:round; stroke-linejoin:round; stroke-width:4; stroke-opacity:1; fill:none" points="235.283,693.078 254.18,693.078 "/>
<polyline clip-path="url(#clip400)" style="stroke:#000000; stroke-linecap:round; stroke-linejoin:round; stroke-width:4; stroke-opacity:1; fill:none" points="235.283,461.972 254.18,461.972 "/>
<polyline clip-path="url(#clip400)" style="stroke:#000000; stroke-linecap:round; stroke-linejoin:round; stroke-width:4; stroke-opacity:1; fill:none" points="235.283,230.866 254.18,230.866 "/>
<path clip-path="url(#clip400)" d="M187.338 1372.19 Q183.727 1372.19 181.899 1375.76 Q180.093 1379.3 180.093 1386.43 Q180.093 1393.54 181.899 1397.1 Q183.727 1400.64 187.338 1400.64 Q190.973 1400.64 192.778 1397.1 Q194.607 1393.54 194.607 1386.43 Q194.607 1379.3 192.778 1375.76 Q190.973 1372.19 187.338 1372.19 M187.338 1368.49 Q193.149 1368.49 196.204 1373.1 Q199.283 1377.68 199.283 1386.43 Q199.283 1395.16 196.204 1399.76 Q193.149 1404.35 187.338 1404.35 Q181.528 1404.35 178.45 1399.76 Q175.394 1395.16 175.394 1386.43 Q175.394 1377.68 178.45 1373.1 Q181.528 1368.49 187.338 1368.49 Z" fill="#000000" fill-rule="nonzero" fill-opacity="1" /><path clip-path="url(#clip400)" d="M117.825 1168.63 L125.464 1168.63 L125.464 1142.27 L117.154 1143.94 L117.154 1139.68 L125.418 1138.01 L130.093 1138.01 L130.093 1168.63 L137.732 1168.63 L137.732 1172.57 L117.825 1172.57 L117.825 1168.63 Z" fill="#000000" fill-rule="nonzero" fill-opacity="1" /><path clip-path="url(#clip400)" d="M157.177 1141.09 Q153.566 1141.09 151.737 1144.65 Q149.931 1148.19 149.931 1155.32 Q149.931 1162.43 151.737 1166 Q153.566 1169.54 157.177 1169.54 Q160.811 1169.54 162.616 1166 Q164.445 1162.43 164.445 1155.32 Q164.445 1148.19 162.616 1144.65 Q160.811 1141.09 157.177 1141.09 M157.177 1137.38 Q162.987 1137.38 166.042 1141.99 Q169.121 1146.57 169.121 1155.32 Q169.121 1164.05 166.042 1168.66 Q162.987 1173.24 157.177 1173.24 Q151.366 1173.24 148.288 1168.66 Q145.232 1164.05 145.232 1155.32 Q145.232 1146.57 148.288 1141.99 Q151.366 1137.38 157.177 1137.38 Z" fill="#000000" fill-rule="nonzero" fill-opacity="1" /><path clip-path="url(#clip400)" d="M187.338 1141.09 Q183.727 1141.09 181.899 1144.65 Q180.093 1148.19 180.093 1155.32 Q180.093 1162.43 181.899 1166 Q183.727 1169.54 187.338 1169.54 Q190.973 1169.54 192.778 1166 Q194.607 1162.43 194.607 1155.32 Q194.607 1148.19 192.778 1144.65 Q190.973 1141.09 187.338 1141.09 M187.338 1137.38 Q193.149 1137.38 196.204 1141.99 Q199.283 1146.57 199.283 1155.32 Q199.283 1164.05 196.204 1168.66 Q193.149 1173.24 187.338 1173.24 Q181.528 1173.24 178.45 1168.66 Q175.394 1164.05 175.394 1155.32 Q175.394 1146.57 178.45 1141.99 Q181.528 1137.38 187.338 1137.38 Z" fill="#000000" fill-rule="nonzero" fill-opacity="1" /><path clip-path="url(#clip400)" d="M121.043 937.529 L137.362 937.529 L137.362 941.464 L115.418 941.464 L115.418 937.529 Q118.08 934.774 122.663 930.144 Q127.269 925.492 128.45 924.149 Q130.695 921.626 131.575 919.89 Q132.478 918.131 132.478 916.441 Q132.478 913.686 130.533 911.95 Q128.612 910.214 125.51 910.214 Q123.311 910.214 120.857 910.978 Q118.427 911.742 115.649 913.293 L115.649 908.57 Q118.473 907.436 120.927 906.858 Q123.38 906.279 125.418 906.279 Q130.788 906.279 133.982 908.964 Q137.177 911.649 137.177 916.14 Q137.177 918.27 136.367 920.191 Q135.579 922.089 133.473 924.682 Q132.894 925.353 129.792 928.57 Q126.691 931.765 121.043 937.529 Z" fill="#000000" fill-rule="nonzero" fill-opacity="1" /><path clip-path="url(#clip400)" d="M157.177 909.983 Q153.566 909.983 151.737 913.547 Q149.931 917.089 149.931 924.219 Q149.931 931.325 151.737 934.89 Q153.566 938.431 157.177 938.431 Q160.811 938.431 162.616 934.89 Q164.445 931.325 164.445 924.219 Q164.445 917.089 162.616 913.547 Q160.811 909.983 157.177 909.983 M157.177 906.279 Q162.987 906.279 166.042 910.885 Q169.121 915.469 169.121 924.219 Q169.121 932.945 166.042 937.552 Q162.987 942.135 157.177 942.135 Q151.366 942.135 148.288 937.552 Q145.232 932.945 145.232 924.219 Q145.232 915.469 148.288 910.885 Q151.366 906.279 157.177 906.279 Z" fill="#000000" fill-rule="nonzero" fill-opacity="1" /><path clip-path="url(#clip400)" d="M187.338 909.983 Q183.727 909.983 181.899 913.547 Q180.093 917.089 180.093 924.219 Q180.093 931.325 181.899 934.89 Q183.727 938.431 187.338 938.431 Q190.973 938.431 192.778 934.89 Q194.607 931.325 194.607 924.219 Q194.607 917.089 192.778 913.547 Q190.973 909.983 187.338 909.983 M187.338 906.279 Q193.149 906.279 196.204 910.885 Q199.283 915.469 199.283 924.219 Q199.283 932.945 196.204 937.552 Q193.149 942.135 187.338 942.135 Q181.528 942.135 178.45 937.552 Q175.394 932.945 175.394 924.219 Q175.394 915.469 178.45 910.885 Q181.528 906.279 187.338 906.279 Z" fill="#000000" fill-rule="nonzero" fill-opacity="1" /><path clip-path="url(#clip400)" d="M131.181 691.724 Q134.538 692.441 136.413 694.71 Q138.311 696.978 138.311 700.312 Q138.311 705.427 134.792 708.228 Q131.274 711.029 124.793 711.029 Q122.617 711.029 120.302 710.589 Q118.01 710.173 115.556 709.316 L115.556 704.802 Q117.501 705.937 119.816 706.515 Q122.13 707.094 124.654 707.094 Q129.052 707.094 131.343 705.358 Q133.658 703.622 133.658 700.312 Q133.658 697.256 131.505 695.543 Q129.376 693.807 125.556 693.807 L121.529 693.807 L121.529 689.965 L125.742 689.965 Q129.191 689.965 131.019 688.599 Q132.848 687.21 132.848 684.617 Q132.848 681.955 130.95 680.543 Q129.075 679.108 125.556 679.108 Q123.635 679.108 121.436 679.525 Q119.237 679.941 116.598 680.821 L116.598 676.654 Q119.26 675.914 121.575 675.543 Q123.913 675.173 125.973 675.173 Q131.297 675.173 134.399 677.603 Q137.501 680.011 137.501 684.131 Q137.501 687.002 135.857 688.992 Q134.214 690.96 131.181 691.724 Z" fill="#000000" fill-rule="nonzero" fill-opacity="1" /><path clip-path="url(#clip400)" d="M157.177 678.877 Q153.566 678.877 151.737 682.441 Q149.931 685.983 149.931 693.113 Q149.931 700.219 151.737 703.784 Q153.566 707.326 157.177 707.326 Q160.811 707.326 162.616 703.784 Q164.445 700.219 164.445 693.113 Q164.445 685.983 162.616 682.441 Q160.811 678.877 157.177 678.877 M157.177 675.173 Q162.987 675.173 166.042 679.779 Q169.121 684.363 169.121 693.113 Q169.121 701.839 166.042 706.446 Q162.987 711.029 157.177 711.029 Q151.366 711.029 148.288 706.446 Q145.232 701.839 145.232 693.113 Q145.232 684.363 148.288 679.779 Q151.366 675.173 157.177 675.173 Z" fill="#000000" fill-rule="nonzero" fill-opacity="1" /><path clip-path="url(#clip400)" d="M187.338 678.877 Q183.727 678.877 181.899 682.441 Q180.093 685.983 180.093 693.113 Q180.093 700.219 181.899 703.784 Q183.727 707.326 187.338 707.326 Q190.973 707.326 192.778 703.784 Q194.607 700.219 194.607 693.113 Q194.607 685.983 192.778 682.441 Q190.973 678.877 187.338 678.877 M187.338 675.173 Q193.149 675.173 196.204 679.779 Q199.283 684.363 199.283 693.113 Q199.283 701.839 196.204 706.446 Q193.149 711.029 187.338 711.029 Q181.528 711.029 178.45 706.446 Q175.394 701.839 175.394 693.113 Q175.394 684.363 178.45 679.779 Q181.528 675.173 187.338 675.173 Z" fill="#000000" fill-rule="nonzero" fill-opacity="1" /><path clip-path="url(#clip400)" d="M129.862 448.766 L118.056 467.215 L129.862 467.215 L129.862 448.766 M128.635 444.692 L134.515 444.692 L134.515 467.215 L139.445 467.215 L139.445 471.104 L134.515 471.104 L134.515 479.252 L129.862 479.252 L129.862 471.104 L114.26 471.104 L114.26 466.59 L128.635 444.692 Z" fill="#000000" fill-rule="nonzero" fill-opacity="1" /><path clip-path="url(#clip400)" d="M157.177 447.771 Q153.566 447.771 151.737 451.335 Q149.931 454.877 149.931 462.007 Q149.931 469.113 151.737 472.678 Q153.566 476.22 157.177 476.22 Q160.811 476.22 162.616 472.678 Q164.445 469.113 164.445 462.007 Q164.445 454.877 162.616 451.335 Q160.811 447.771 157.177 447.771 M157.177 444.067 Q162.987 444.067 166.042 448.673 Q169.121 453.257 169.121 462.007 Q169.121 470.734 166.042 475.34 Q162.987 479.923 157.177 479.923 Q151.366 479.923 148.288 475.34 Q145.232 470.734 145.232 462.007 Q145.232 453.257 148.288 448.673 Q151.366 444.067 157.177 444.067 Z" fill="#000000" fill-rule="nonzero" fill-opacity="1" /><path clip-path="url(#clip400)" d="M187.338 447.771 Q183.727 447.771 181.899 451.335 Q180.093 454.877 180.093 462.007 Q180.093 469.113 181.899 472.678 Q183.727 476.22 187.338 476.22 Q190.973 476.22 192.778 472.678 Q194.607 469.113 194.607 462.007 Q194.607 454.877 192.778 451.335 Q190.973 447.771 187.338 447.771 M187.338 444.067 Q193.149 444.067 196.204 448.673 Q199.283 453.257 199.283 462.007 Q199.283 470.734 196.204 475.34 Q193.149 479.923 187.338 479.923 Q181.528 479.923 178.45 475.34 Q175.394 470.734 175.394 462.007 Q175.394 453.257 178.45 448.673 Q181.528 444.067 187.338 444.067 Z" fill="#000000" fill-rule="nonzero" fill-opacity="1" /><path clip-path="url(#clip400)" d="M117.061 213.586 L135.417 213.586 L135.417 217.521 L121.343 217.521 L121.343 225.993 Q122.362 225.646 123.38 225.484 Q124.399 225.299 125.418 225.299 Q131.205 225.299 134.584 228.47 Q137.964 231.642 137.964 237.058 Q137.964 242.637 134.492 245.739 Q131.019 248.817 124.7 248.817 Q122.524 248.817 120.255 248.447 Q118.01 248.077 115.603 247.336 L115.603 242.637 Q117.686 243.771 119.908 244.327 Q122.13 244.882 124.607 244.882 Q128.612 244.882 130.95 242.776 Q133.288 240.669 133.288 237.058 Q133.288 233.447 130.95 231.341 Q128.612 229.234 124.607 229.234 Q122.732 229.234 120.857 229.651 Q119.006 230.067 117.061 230.947 L117.061 213.586 Z" fill="#000000" fill-rule="nonzero" fill-opacity="1" /><path clip-path="url(#clip400)" d="M157.177 216.665 Q153.566 216.665 151.737 220.23 Q149.931 223.771 149.931 230.901 Q149.931 238.007 151.737 241.572 Q153.566 245.114 157.177 245.114 Q160.811 245.114 162.616 241.572 Q164.445 238.007 164.445 230.901 Q164.445 223.771 162.616 220.23 Q160.811 216.665 157.177 216.665 M157.177 212.961 Q162.987 212.961 166.042 217.568 Q169.121 222.151 169.121 230.901 Q169.121 239.628 166.042 244.234 Q162.987 248.817 157.177 248.817 Q151.366 248.817 148.288 244.234 Q145.232 239.628 145.232 230.901 Q145.232 222.151 148.288 217.568 Q151.366 212.961 157.177 212.961 Z" fill="#000000" fill-rule="nonzero" fill-opacity="1" /><path clip-path="url(#clip400)" d="M187.338 216.665 Q183.727 216.665 181.899 220.23 Q180.093 223.771 180.093 230.901 Q180.093 238.007 181.899 241.572 Q183.727 245.114 187.338 245.114 Q190.973 245.114 192.778 241.572 Q194.607 238.007 194.607 230.901 Q194.607 223.771 192.778 220.23 Q190.973 216.665 187.338 216.665 M187.338 212.961 Q193.149 212.961 196.204 217.568 Q199.283 222.151 199.283 230.901 Q199.283 239.628 196.204 244.234 Q193.149 248.817 187.338 248.817 Q181.528 248.817 178.45 244.234 Q175.394 239.628 175.394 230.901 Q175.394 222.151 178.45 217.568 Q181.528 212.961 187.338 212.961 Z" fill="#000000" fill-rule="nonzero" fill-opacity="1" /><path clip-path="url(#clip400)" d="M20.1444 820.225 L26.9239 820.225 Q23.9002 823.472 22.4043 827.164 Q20.9083 830.824 20.9083 834.962 Q20.9083 843.11 25.9054 847.439 Q30.8707 851.767 40.2919 851.767 Q49.6813 851.767 54.6784 847.439 Q59.6436 843.11 59.6436 834.962 Q59.6436 830.824 58.1477 827.164 Q56.6518 823.472 53.6281 820.225 L60.3439 820.225 Q62.6355 823.599 63.7814 827.387 Q64.9272 831.143 64.9272 835.344 Q64.9272 846.134 58.3387 852.34 Q51.7183 858.547 40.2919 858.547 Q28.8336 858.547 22.2451 852.34 Q15.6248 846.134 15.6248 835.344 Q15.6248 831.079 16.7706 827.323 Q17.8846 823.535 20.1444 820.225 Z" fill="#000000" fill-rule="nonzero" fill-opacity="1" /><path clip-path="url(#clip400)" d="M16.4842 816.883 L16.4842 776.684 L21.895 776.684 L21.895 793.553 L64.0042 793.553 L64.0042 800.014 L21.895 800.014 L21.895 816.883 L16.4842 816.883 Z" fill="#000000" fill-rule="nonzero" fill-opacity="1" /><path clip-path="url(#clip400)" d="M16.4842 770.477 L16.4842 761.82 L56.238 740.749 L16.4842 740.749 L16.4842 734.511 L64.0042 734.511 L64.0042 743.168 L24.2503 764.239 L64.0042 764.239 L64.0042 770.477 L16.4842 770.477 Z" fill="#000000" fill-rule="nonzero" fill-opacity="1" /><path clip-path="url(#clip400)" d="M16.4842 728.305 L16.4842 688.105 L21.895 688.105 L21.895 704.974 L64.0042 704.974 L64.0042 711.435 L21.895 711.435 L21.895 728.305 L16.4842 728.305 Z" fill="#000000" fill-rule="nonzero" fill-opacity="1" /><path clip-path="url(#clip400)" d="M1072.5 18.8205 L1072.5 41.5461 L1082.78 41.5461 Q1088.5 41.5461 1091.62 38.5889 Q1094.74 35.6318 1094.74 30.163 Q1094.74 24.7348 1091.62 21.7777 Q1088.5 18.8205 1082.78 18.8205 L1072.5 18.8205 M1064.31 12.096 L1082.78 12.096 Q1092.95 12.096 1098.14 16.714 Q1103.36 21.2916 1103.36 30.163 Q1103.36 39.1155 1098.14 43.6931 Q1092.95 48.2706 1082.78 48.2706 L1072.5 48.2706 L1072.5 72.576 L1064.31 72.576 L1064.31 12.096 Z" fill="#000000" fill-rule="nonzero" fill-opacity="1" /><path clip-path="url(#clip400)" d="M1130.91 49.7694 Q1121.88 49.7694 1118.39 51.8354 Q1114.91 53.9013 1114.91 58.8839 Q1114.91 62.8538 1117.5 65.2034 Q1120.13 67.5124 1124.63 67.5124 Q1130.83 67.5124 1134.56 63.1374 Q1138.32 58.7219 1138.32 51.4303 L1138.32 49.7694 L1130.91 49.7694 M1145.78 46.6907 L1145.78 72.576 L1138.32 72.576 L1138.32 65.6895 Q1135.77 69.8214 1131.96 71.8063 Q1128.16 73.7508 1122.65 73.7508 Q1115.68 73.7508 1111.55 69.8619 Q1107.45 65.9325 1107.45 59.3701 Q1107.45 51.7138 1112.56 47.825 Q1117.7 43.9361 1127.87 43.9361 L1138.32 43.9361 L1138.32 43.2069 Q1138.32 38.0623 1134.92 35.2672 Q1131.56 32.4315 1125.44 32.4315 Q1121.55 32.4315 1117.87 33.3632 Q1114.18 34.295 1110.78 36.1584 L1110.78 29.2718 Q1114.87 27.692 1118.72 26.9223 Q1122.56 26.1121 1126.21 26.1121 Q1136.05 26.1121 1140.92 31.2163 Q1145.78 36.3204 1145.78 46.6907 Z" fill="#000000" fill-rule="nonzero" fill-opacity="1" /><path clip-path="url(#clip400)" d="M1168.5 14.324 L1168.5 27.2059 L1183.86 27.2059 L1183.86 32.9987 L1168.5 32.9987 L1168.5 57.6282 Q1168.5 63.1779 1170 64.7578 Q1171.54 66.3376 1176.2 66.3376 L1183.86 66.3376 L1183.86 72.576 L1176.2 72.576 Q1167.57 72.576 1164.29 69.3758 Q1161.01 66.1351 1161.01 57.6282 L1161.01 32.9987 L1155.54 32.9987 L1155.54 27.2059 L1161.01 27.2059 L1161.01 14.324 L1168.5 14.324 Z" fill="#000000" fill-rule="nonzero" fill-opacity="1" /><path clip-path="url(#clip400)" d="M1193.66 27.2059 L1201.11 27.2059 L1201.11 72.576 L1193.66 72.576 L1193.66 27.2059 M1193.66 9.54393 L1201.11 9.54393 L1201.11 18.9825 L1193.66 18.9825 L1193.66 9.54393 Z" fill="#000000" fill-rule="nonzero" fill-opacity="1" /><path clip-path="url(#clip400)" d="M1255.52 48.0275 L1255.52 51.6733 L1221.24 51.6733 Q1221.73 59.3701 1225.86 63.421 Q1230.04 67.4314 1237.45 67.4314 Q1241.74 67.4314 1245.75 66.3781 Q1249.8 65.3249 1253.77 63.2184 L1253.77 70.267 Q1249.76 71.9684 1245.55 72.8596 Q1241.34 73.7508 1237 73.7508 Q1226.15 73.7508 1219.79 67.4314 Q1213.47 61.1119 1213.47 50.3365 Q1213.47 39.1965 1219.46 32.6746 Q1225.5 26.1121 1235.71 26.1121 Q1244.86 26.1121 1250.17 32.0264 Q1255.52 37.9003 1255.52 48.0275 M1248.06 45.84 Q1247.98 39.7232 1244.62 36.0774 Q1241.3 32.4315 1235.79 32.4315 Q1229.55 32.4315 1225.78 35.9558 Q1222.06 39.4801 1221.49 45.8805 L1248.06 45.84 Z" fill="#000000" fill-rule="nonzero" fill-opacity="1" /><path clip-path="url(#clip400)" d="M1305.46 45.1919 L1305.46 72.576 L1298.01 72.576 L1298.01 45.4349 Q1298.01 38.994 1295.5 35.7938 Q1292.99 32.5936 1287.96 32.5936 Q1281.93 32.5936 1278.44 36.4419 Q1274.96 40.2903 1274.96 46.9338 L1274.96 72.576 L1267.47 72.576 L1267.47 27.2059 L1274.96 27.2059 L1274.96 34.2544 Q1277.63 30.163 1281.24 28.1376 Q1284.88 26.1121 1289.62 26.1121 Q1297.44 26.1121 1301.45 30.9732 Q1305.46 35.7938 1305.46 45.1919 Z" fill="#000000" fill-rule="nonzero" fill-opacity="1" /><path clip-path="url(#clip400)" d="M1327.7 14.324 L1327.7 27.2059 L1343.06 27.2059 L1343.06 32.9987 L1327.7 32.9987 L1327.7 57.6282 Q1327.7 63.1779 1329.2 64.7578 Q1330.74 66.3376 1335.4 66.3376 L1343.06 66.3376 L1343.06 72.576 L1335.4 72.576 Q1326.77 72.576 1323.49 69.3758 Q1320.21 66.1351 1320.21 57.6282 L1320.21 32.9987 L1314.74 32.9987 L1314.74 27.2059 L1320.21 27.2059 L1320.21 14.324 L1327.7 14.324 Z" fill="#000000" fill-rule="nonzero" fill-opacity="1" /><path clip-path="url(#clip400)" d="M1416.94 45.1919 L1416.94 72.576 L1409.49 72.576 L1409.49 45.4349 Q1409.49 38.994 1406.98 35.7938 Q1404.47 32.5936 1399.44 32.5936 Q1393.41 32.5936 1389.92 36.4419 Q1386.44 40.2903 1386.44 46.9338 L1386.44 72.576 L1378.95 72.576 L1378.95 27.2059 L1386.44 27.2059 L1386.44 34.2544 Q1389.11 30.163 1392.72 28.1376 Q1396.37 26.1121 1401.11 26.1121 Q1408.92 26.1121 1412.93 30.9732 Q1416.94 35.7938 1416.94 45.1919 Z" fill="#000000" fill-rule="nonzero" fill-opacity="1" /><path clip-path="url(#clip400)" d="M1430.8 12.096 L1469.69 12.096 L1469.69 15.5798 L1447.73 72.576 L1439.18 72.576 L1459.84 18.9825 L1430.8 18.9825 L1430.8 12.096 Z" fill="#000000" fill-rule="nonzero" fill-opacity="1" /><path clip-path="url(#clip400)" d="M1485.89 71.3202 L1485.89 63.8666 Q1488.97 65.3249 1492.13 66.0946 Q1495.29 66.8642 1498.33 66.8642 Q1506.43 66.8642 1510.68 61.436 Q1514.98 55.9673 1515.58 44.8678 Q1513.23 48.3516 1509.63 50.215 Q1506.02 52.0784 1501.65 52.0784 Q1492.57 52.0784 1487.27 46.6097 Q1482 41.1005 1482 31.5808 Q1482 22.2638 1487.51 16.633 Q1493.02 11.0023 1502.18 11.0023 Q1512.67 11.0023 1518.18 19.0636 Q1523.73 27.0843 1523.73 42.3968 Q1523.73 56.6965 1516.92 65.2439 Q1510.16 73.7508 1498.69 73.7508 Q1495.61 73.7508 1492.45 73.1431 Q1489.29 72.5355 1485.89 71.3202 M1502.18 45.678 Q1507.68 45.678 1510.88 41.9107 Q1514.13 38.1433 1514.13 31.5808 Q1514.13 25.0589 1510.88 21.2916 Q1507.68 17.4837 1502.18 17.4837 Q1496.67 17.4837 1493.43 21.2916 Q1490.22 25.0589 1490.22 31.5808 Q1490.22 38.1433 1493.43 41.9107 Q1496.67 45.678 1502.18 45.678 Z" fill="#000000" fill-rule="nonzero" fill-opacity="1" /><polyline clip-path="url(#clip402)" style="stroke:#009af9; stroke-linecap:round; stroke-linejoin:round; stroke-width:8; stroke-opacity:1; fill:none" points="331.454,1386.4 374.093,160.256 416.731,176.559 459.37,220.822 502.008,263.989 544.647,304.921 587.285,344.213 629.924,382.322 672.563,418.83 715.201,453.987 757.84,487.776 800.478,520.319 843.117,551.626 885.755,581.692 928.394,610.608 971.032,638.449 1013.67,665.213 1056.31,690.9 1098.95,715.661 1141.59,739.508 1184.23,762.441 1226.86,784.458 1269.5,805.595 1312.14,825.972 1354.78,845.59 1397.42,864.448 1440.06,882.53 1482.69,899.931 1525.33,916.712 1567.97,932.873 1610.61,948.414 1653.25,963.336 1695.89,977.634 1738.53,991.42 1781.16,1004.71 1823.8,1017.5 1866.44,1029.79 1909.08,1041.58 1951.72,1052.9 1994.36,1063.83 2037,1074.36 2079.63,1084.49 2122.27,1094.24 2164.91,1103.59 2207.55,1112.57 2250.19,1121.21 2292.83,1127.61 "/>
<circle clip-path="url(#clip402)" cx="295.211" cy="1386.02" r="18" fill="#e26f46" fill-rule="evenodd" fill-opacity="1" stroke="#000000" stroke-opacity="1" stroke-width="3.2"/>
<circle clip-path="url(#clip402)" cx="332.165" cy="1386.16" r="18" fill="#e26f46" fill-rule="evenodd" fill-opacity="1" stroke="#000000" stroke-opacity="1" stroke-width="3.2"/>
<circle clip-path="url(#clip402)" cx="917.734" cy="1386.29" r="18" fill="#e26f46" fill-rule="evenodd" fill-opacity="1" stroke="#000000" stroke-opacity="1" stroke-width="3.2"/>
<circle clip-path="url(#clip402)" cx="1214.07" cy="1386.3" r="18" fill="#e26f46" fill-rule="evenodd" fill-opacity="1" stroke="#000000" stroke-opacity="1" stroke-width="3.2"/>
<circle clip-path="url(#clip402)" cx="2240.24" cy="1386.33" r="18" fill="#e26f46" fill-rule="evenodd" fill-opacity="1" stroke="#000000" stroke-opacity="1" stroke-width="3.2"/>
<path clip-path="url(#clip400)" d="M1686.19 322.316 L2282.17 322.316 L2282.17 166.796 L1686.19 166.796  Z" fill="#ffffff" fill-rule="evenodd" fill-opacity="1"/>
<polyline clip-path="url(#clip400)" style="stroke:#000000; stroke-linecap:round; stroke-linejoin:round; stroke-width:4; stroke-opacity:1; fill:none" points="1686.19,322.316 2282.17,322.316 2282.17,166.796 1686.19,166.796 1686.19,322.316 "/>
<polyline clip-path="url(#clip400)" style="stroke:#009af9; stroke-linecap:round; stroke-linejoin:round; stroke-width:8; stroke-opacity:1; fill:none" points="1709.72,218.636 1850.88,218.636 "/>
<path clip-path="url(#clip400)" d="M1874.41 201.356 L1881.38 201.356 L1890.2 224.874 L1899.06 201.356 L1906.03 201.356 L1906.03 235.916 L1901.47 235.916 L1901.47 205.569 L1892.56 229.272 L1887.86 229.272 L1878.95 205.569 L1878.95 235.916 L1874.41 235.916 L1874.41 201.356 Z" fill="#000000" fill-rule="nonzero" fill-opacity="1" /><path clip-path="url(#clip400)" d="M1925.18 212.976 Q1921.75 212.976 1919.76 215.661 Q1917.77 218.323 1917.77 222.976 Q1917.77 227.629 1919.74 230.314 Q1921.73 232.976 1925.18 232.976 Q1928.58 232.976 1930.57 230.291 Q1932.56 227.606 1932.56 222.976 Q1932.56 218.37 1930.57 215.684 Q1928.58 212.976 1925.18 212.976 M1925.18 209.365 Q1930.73 209.365 1933.9 212.976 Q1937.07 216.587 1937.07 222.976 Q1937.07 229.342 1933.9 232.976 Q1930.73 236.587 1925.18 236.587 Q1919.6 236.587 1916.43 232.976 Q1913.28 229.342 1913.28 222.976 Q1913.28 216.587 1916.43 212.976 Q1919.6 209.365 1925.18 209.365 Z" fill="#000000" fill-rule="nonzero" fill-opacity="1" /><path clip-path="url(#clip400)" d="M1961.19 213.925 L1961.19 199.897 L1965.45 199.897 L1965.45 235.916 L1961.19 235.916 L1961.19 232.027 Q1959.85 234.342 1957.79 235.476 Q1955.75 236.587 1952.88 236.587 Q1948.18 236.587 1945.22 232.837 Q1942.28 229.087 1942.28 222.976 Q1942.28 216.865 1945.22 213.115 Q1948.18 209.365 1952.88 209.365 Q1955.75 209.365 1957.79 210.499 Q1959.85 211.61 1961.19 213.925 M1946.68 222.976 Q1946.68 227.675 1948.6 230.36 Q1950.55 233.022 1953.93 233.022 Q1957.31 233.022 1959.25 230.36 Q1961.19 227.675 1961.19 222.976 Q1961.19 218.277 1959.25 215.615 Q1957.31 212.93 1953.93 212.93 Q1950.55 212.93 1948.6 215.615 Q1946.68 218.277 1946.68 222.976 Z" fill="#000000" fill-rule="nonzero" fill-opacity="1" /><path clip-path="url(#clip400)" d="M1996.4 221.888 L1996.4 223.971 L1976.82 223.971 Q1977.1 228.369 1979.46 230.684 Q1981.84 232.976 1986.08 232.976 Q1988.53 232.976 1990.82 232.374 Q1993.14 231.772 1995.41 230.569 L1995.41 234.596 Q1993.12 235.568 1990.71 236.078 Q1988.3 236.587 1985.82 236.587 Q1979.62 236.587 1975.99 232.976 Q1972.37 229.365 1972.37 223.207 Q1972.37 216.842 1975.8 213.115 Q1979.25 209.365 1985.08 209.365 Q1990.31 209.365 1993.35 212.745 Q1996.4 216.101 1996.4 221.888 M1992.14 220.638 Q1992.1 217.143 1990.18 215.059 Q1988.28 212.976 1985.13 212.976 Q1981.56 212.976 1979.41 214.99 Q1977.28 217.004 1976.96 220.661 L1992.14 220.638 Z" fill="#000000" fill-rule="nonzero" fill-opacity="1" /><path clip-path="url(#clip400)" d="M2003.39 199.897 L2007.65 199.897 L2007.65 235.916 L2003.39 235.916 L2003.39 199.897 Z" fill="#000000" fill-rule="nonzero" fill-opacity="1" /><path clip-path="url(#clip400)" d="M2036.49 205.198 L2036.49 218.184 L2042.37 218.184 Q2045.64 218.184 2047.42 216.495 Q2049.2 214.805 2049.2 211.68 Q2049.2 208.578 2047.42 206.888 Q2045.64 205.198 2042.37 205.198 L2036.49 205.198 M2031.82 201.356 L2042.37 201.356 Q2048.18 201.356 2051.15 203.995 Q2054.13 206.61 2054.13 211.68 Q2054.13 216.795 2051.15 219.411 Q2048.18 222.027 2042.37 222.027 L2036.49 222.027 L2036.49 235.916 L2031.82 235.916 L2031.82 201.356 Z" fill="#000000" fill-rule="nonzero" fill-opacity="1" /><path clip-path="url(#clip400)" d="M2074.41 213.971 Q2073.69 213.555 2072.84 213.37 Q2072 213.161 2070.98 213.161 Q2067.37 213.161 2065.43 215.522 Q2063.51 217.86 2063.51 222.258 L2063.51 235.916 L2059.23 235.916 L2059.23 209.99 L2063.51 209.99 L2063.51 214.018 Q2064.85 211.657 2067 210.522 Q2069.16 209.365 2072.23 209.365 Q2072.67 209.365 2073.21 209.434 Q2073.74 209.481 2074.39 209.596 L2074.41 213.971 Z" fill="#000000" fill-rule="nonzero" fill-opacity="1" /><path clip-path="url(#clip400)" d="M2100.01 221.888 L2100.01 223.971 L2080.43 223.971 Q2080.71 228.369 2083.07 230.684 Q2085.45 232.976 2089.69 232.976 Q2092.14 232.976 2094.43 232.374 Q2096.75 231.772 2099.02 230.569 L2099.02 234.596 Q2096.73 235.568 2094.32 236.078 Q2091.91 236.587 2089.43 236.587 Q2083.23 236.587 2079.6 232.976 Q2075.98 229.365 2075.98 223.207 Q2075.98 216.842 2079.41 213.115 Q2082.86 209.365 2088.69 209.365 Q2093.92 209.365 2096.96 212.745 Q2100.01 216.101 2100.01 221.888 M2095.75 220.638 Q2095.71 217.143 2093.79 215.059 Q2091.89 212.976 2088.74 212.976 Q2085.17 212.976 2083.02 214.99 Q2080.89 217.004 2080.57 220.661 L2095.75 220.638 Z" fill="#000000" fill-rule="nonzero" fill-opacity="1" /><path clip-path="url(#clip400)" d="M2124.06 213.925 L2124.06 199.897 L2128.32 199.897 L2128.32 235.916 L2124.06 235.916 L2124.06 232.027 Q2122.72 234.342 2120.66 235.476 Q2118.62 236.587 2115.75 236.587 Q2111.05 236.587 2108.09 232.837 Q2105.15 229.087 2105.15 222.976 Q2105.15 216.865 2108.09 213.115 Q2111.05 209.365 2115.75 209.365 Q2118.62 209.365 2120.66 210.499 Q2122.72 211.61 2124.06 213.925 M2109.55 222.976 Q2109.55 227.675 2111.47 230.36 Q2113.42 233.022 2116.79 233.022 Q2120.17 233.022 2122.12 230.36 Q2124.06 227.675 2124.06 222.976 Q2124.06 218.277 2122.12 215.615 Q2120.17 212.93 2116.79 212.93 Q2113.42 212.93 2111.47 215.615 Q2109.55 218.277 2109.55 222.976 Z" fill="#000000" fill-rule="nonzero" fill-opacity="1" /><path clip-path="url(#clip400)" d="M2137.1 209.99 L2141.35 209.99 L2141.35 235.916 L2137.1 235.916 L2137.1 209.99 M2137.1 199.897 L2141.35 199.897 L2141.35 205.291 L2137.1 205.291 L2137.1 199.897 Z" fill="#000000" fill-rule="nonzero" fill-opacity="1" /><path clip-path="url(#clip400)" d="M2168.92 210.985 L2168.92 214.967 Q2167.12 213.971 2165.29 213.485 Q2163.48 212.976 2161.63 212.976 Q2157.49 212.976 2155.2 215.615 Q2152.91 218.231 2152.91 222.976 Q2152.91 227.721 2155.2 230.36 Q2157.49 232.976 2161.63 232.976 Q2163.48 232.976 2165.29 232.49 Q2167.12 231.981 2168.92 230.985 L2168.92 234.92 Q2167.14 235.754 2165.22 236.17 Q2163.32 236.587 2161.17 236.587 Q2155.31 236.587 2151.86 232.906 Q2148.42 229.226 2148.42 222.976 Q2148.42 216.633 2151.89 212.999 Q2155.38 209.365 2161.45 209.365 Q2163.42 209.365 2165.29 209.782 Q2167.17 210.175 2168.92 210.985 Z" fill="#000000" fill-rule="nonzero" fill-opacity="1" /><path clip-path="url(#clip400)" d="M2180.54 202.629 L2180.54 209.99 L2189.32 209.99 L2189.32 213.3 L2180.54 213.3 L2180.54 227.374 Q2180.54 230.545 2181.4 231.448 Q2182.28 232.351 2184.94 232.351 L2189.32 232.351 L2189.32 235.916 L2184.94 235.916 Q2180.01 235.916 2178.14 234.087 Q2176.26 232.235 2176.26 227.374 L2176.26 213.3 L2173.14 213.3 L2173.14 209.99 L2176.26 209.99 L2176.26 202.629 L2180.54 202.629 Z" fill="#000000" fill-rule="nonzero" fill-opacity="1" /><path clip-path="url(#clip400)" d="M2194.92 209.99 L2199.18 209.99 L2199.18 235.916 L2194.92 235.916 L2194.92 209.99 M2194.92 199.897 L2199.18 199.897 L2199.18 205.291 L2194.92 205.291 L2194.92 199.897 Z" fill="#000000" fill-rule="nonzero" fill-opacity="1" /><path clip-path="url(#clip400)" d="M2218.14 212.976 Q2214.71 212.976 2212.72 215.661 Q2210.73 218.323 2210.73 222.976 Q2210.73 227.629 2212.7 230.314 Q2214.69 232.976 2218.14 232.976 Q2221.54 232.976 2223.53 230.291 Q2225.52 227.606 2225.52 222.976 Q2225.52 218.37 2223.53 215.684 Q2221.54 212.976 2218.14 212.976 M2218.14 209.365 Q2223.69 209.365 2226.86 212.976 Q2230.04 216.587 2230.04 222.976 Q2230.04 229.342 2226.86 232.976 Q2223.69 236.587 2218.14 236.587 Q2212.56 236.587 2209.39 232.976 Q2206.24 229.342 2206.24 222.976 Q2206.24 216.587 2209.39 212.976 Q2212.56 209.365 2218.14 209.365 Z" fill="#000000" fill-rule="nonzero" fill-opacity="1" /><path clip-path="url(#clip400)" d="M2258.65 220.268 L2258.65 235.916 L2254.39 235.916 L2254.39 220.407 Q2254.39 216.726 2252.95 214.897 Q2251.52 213.069 2248.65 213.069 Q2245.2 213.069 2243.21 215.268 Q2241.22 217.467 2241.22 221.263 L2241.22 235.916 L2236.93 235.916 L2236.93 209.99 L2241.22 209.99 L2241.22 214.018 Q2242.74 211.68 2244.8 210.522 Q2246.89 209.365 2249.6 209.365 Q2254.06 209.365 2256.35 212.143 Q2258.65 214.897 2258.65 220.268 Z" fill="#000000" fill-rule="nonzero" fill-opacity="1" /><circle clip-path="url(#clip400)" cx="1780.3" cy="270.476" r="20.9455" fill="#e26f46" fill-rule="evenodd" fill-opacity="1" stroke="#000000" stroke-opacity="1" stroke-width="3.72364"/>
<path clip-path="url(#clip400)" d="M1890.43 256.367 Q1885.34 256.367 1882.33 260.163 Q1879.34 263.96 1879.34 270.51 Q1879.34 277.038 1882.33 280.834 Q1885.34 284.631 1890.43 284.631 Q1895.52 284.631 1898.49 280.834 Q1901.47 277.038 1901.47 270.51 Q1901.47 263.96 1898.49 260.163 Q1895.52 256.367 1890.43 256.367 M1890.43 252.571 Q1897.7 252.571 1902.05 257.455 Q1906.4 262.316 1906.4 270.51 Q1906.4 278.682 1902.05 283.566 Q1897.7 288.427 1890.43 288.427 Q1883.14 288.427 1878.76 283.566 Q1874.41 278.705 1874.41 270.51 Q1874.41 262.316 1878.76 257.455 Q1883.14 252.571 1890.43 252.571 Z" fill="#000000" fill-rule="nonzero" fill-opacity="1" /><path clip-path="url(#clip400)" d="M1932.14 274.816 Q1932.14 270.117 1930.2 267.455 Q1928.28 264.77 1924.9 264.77 Q1921.52 264.77 1919.57 267.455 Q1917.65 270.117 1917.65 274.816 Q1917.65 279.515 1919.57 282.2 Q1921.52 284.862 1924.9 284.862 Q1928.28 284.862 1930.2 282.2 Q1932.14 279.515 1932.14 274.816 M1917.65 265.765 Q1919 263.45 1921.03 262.339 Q1923.09 261.205 1925.94 261.205 Q1930.66 261.205 1933.6 264.955 Q1936.56 268.705 1936.56 274.816 Q1936.56 280.927 1933.6 284.677 Q1930.66 288.427 1925.94 288.427 Q1923.09 288.427 1921.03 287.316 Q1919 286.182 1917.65 283.867 L1917.65 287.756 L1913.37 287.756 L1913.37 251.737 L1917.65 251.737 L1917.65 265.765 Z" fill="#000000" fill-rule="nonzero" fill-opacity="1" /><path clip-path="url(#clip400)" d="M1960.15 262.594 L1960.15 266.622 Q1958.35 265.696 1956.4 265.233 Q1954.46 264.77 1952.37 264.77 Q1949.2 264.77 1947.61 265.742 Q1946.03 266.714 1946.03 268.659 Q1946.03 270.14 1947.17 270.997 Q1948.3 271.83 1951.73 272.594 L1953.18 272.918 Q1957.72 273.89 1959.62 275.672 Q1961.54 277.432 1961.54 280.603 Q1961.54 284.214 1958.67 286.321 Q1955.82 288.427 1950.82 288.427 Q1948.74 288.427 1946.47 288.01 Q1944.23 287.617 1941.73 286.807 L1941.73 282.409 Q1944.09 283.635 1946.38 284.26 Q1948.67 284.862 1950.92 284.862 Q1953.93 284.862 1955.55 283.844 Q1957.17 282.802 1957.17 280.927 Q1957.17 279.191 1955.99 278.265 Q1954.83 277.339 1950.87 276.483 L1949.39 276.135 Q1945.43 275.302 1943.67 273.589 Q1941.91 271.853 1941.91 268.844 Q1941.91 265.186 1944.5 263.196 Q1947.1 261.205 1951.87 261.205 Q1954.23 261.205 1956.31 261.552 Q1958.39 261.899 1960.15 262.594 Z" fill="#000000" fill-rule="nonzero" fill-opacity="1" /><path clip-path="url(#clip400)" d="M1990.5 273.728 L1990.5 275.811 L1970.92 275.811 Q1971.19 280.209 1973.55 282.524 Q1975.94 284.816 1980.18 284.816 Q1982.63 284.816 1984.92 284.214 Q1987.24 283.612 1989.5 282.409 L1989.5 286.436 Q1987.21 287.408 1984.8 287.918 Q1982.4 288.427 1979.92 288.427 Q1973.72 288.427 1970.08 284.816 Q1966.47 281.205 1966.47 275.047 Q1966.47 268.682 1969.9 264.955 Q1973.35 261.205 1979.18 261.205 Q1984.41 261.205 1987.44 264.585 Q1990.5 267.941 1990.5 273.728 M1986.24 272.478 Q1986.19 268.983 1984.27 266.899 Q1982.37 264.816 1979.23 264.816 Q1975.66 264.816 1973.51 266.83 Q1971.38 268.844 1971.05 272.501 L1986.24 272.478 Z" fill="#000000" fill-rule="nonzero" fill-opacity="1" /><path clip-path="url(#clip400)" d="M2012.51 265.811 Q2011.8 265.395 2010.94 265.21 Q2010.11 265.001 2009.09 265.001 Q2005.48 265.001 2003.53 267.362 Q2001.61 269.7 2001.61 274.098 L2001.61 287.756 L1997.33 287.756 L1997.33 261.83 L2001.61 261.83 L2001.61 265.858 Q2002.95 263.497 2005.11 262.362 Q2007.26 261.205 2010.34 261.205 Q2010.78 261.205 2011.31 261.274 Q2011.84 261.321 2012.49 261.436 L2012.51 265.811 Z" fill="#000000" fill-rule="nonzero" fill-opacity="1" /><path clip-path="url(#clip400)" d="M2013.93 261.83 L2018.44 261.83 L2026.54 283.589 L2034.64 261.83 L2039.16 261.83 L2029.43 287.756 L2023.65 287.756 L2013.93 261.83 Z" fill="#000000" fill-rule="nonzero" fill-opacity="1" /><path clip-path="url(#clip400)" d="M2067.21 273.728 L2067.21 275.811 L2047.63 275.811 Q2047.91 280.209 2050.27 282.524 Q2052.65 284.816 2056.89 284.816 Q2059.34 284.816 2061.63 284.214 Q2063.95 283.612 2066.22 282.409 L2066.22 286.436 Q2063.92 287.408 2061.52 287.918 Q2059.11 288.427 2056.63 288.427 Q2050.43 288.427 2046.8 284.816 Q2043.18 281.205 2043.18 275.047 Q2043.18 268.682 2046.61 264.955 Q2050.06 261.205 2055.89 261.205 Q2061.12 261.205 2064.16 264.585 Q2067.21 267.941 2067.21 273.728 M2062.95 272.478 Q2062.91 268.983 2060.99 266.899 Q2059.09 264.816 2055.94 264.816 Q2052.37 264.816 2050.22 266.83 Q2048.09 268.844 2047.77 272.501 L2062.95 272.478 Z" fill="#000000" fill-rule="nonzero" fill-opacity="1" /><path clip-path="url(#clip400)" d="M2091.26 265.765 L2091.26 251.737 L2095.52 251.737 L2095.52 287.756 L2091.26 287.756 L2091.26 283.867 Q2089.92 286.182 2087.86 287.316 Q2085.82 288.427 2082.95 288.427 Q2078.25 288.427 2075.29 284.677 Q2072.35 280.927 2072.35 274.816 Q2072.35 268.705 2075.29 264.955 Q2078.25 261.205 2082.95 261.205 Q2085.82 261.205 2087.86 262.339 Q2089.92 263.45 2091.26 265.765 M2076.75 274.816 Q2076.75 279.515 2078.67 282.2 Q2080.61 284.862 2083.99 284.862 Q2087.37 284.862 2089.32 282.2 Q2091.26 279.515 2091.26 274.816 Q2091.26 270.117 2089.32 267.455 Q2087.37 264.77 2083.99 264.77 Q2080.61 264.77 2078.67 267.455 Q2076.75 270.117 2076.75 274.816 Z" fill="#000000" fill-rule="nonzero" fill-opacity="1" /><path clip-path="url(#clip400)" d="M2124.23 257.038 L2124.23 283.913 L2129.87 283.913 Q2137.03 283.913 2140.34 280.672 Q2143.67 277.432 2143.67 270.441 Q2143.67 263.497 2140.34 260.279 Q2137.03 257.038 2129.87 257.038 L2124.23 257.038 M2119.55 253.196 L2129.16 253.196 Q2139.2 253.196 2143.9 257.386 Q2148.6 261.552 2148.6 270.441 Q2148.6 279.376 2143.88 283.566 Q2139.16 287.756 2129.16 287.756 L2119.55 287.756 L2119.55 253.196 Z" fill="#000000" fill-rule="nonzero" fill-opacity="1" /><path clip-path="url(#clip400)" d="M2167.65 274.723 Q2162.49 274.723 2160.5 275.904 Q2158.51 277.084 2158.51 279.932 Q2158.51 282.2 2159.99 283.543 Q2161.49 284.862 2164.06 284.862 Q2167.6 284.862 2169.73 282.362 Q2171.89 279.839 2171.89 275.672 L2171.89 274.723 L2167.65 274.723 M2176.15 272.964 L2176.15 287.756 L2171.89 287.756 L2171.89 283.821 Q2170.43 286.182 2168.25 287.316 Q2166.08 288.427 2162.93 288.427 Q2158.95 288.427 2156.59 286.205 Q2154.25 283.959 2154.25 280.209 Q2154.25 275.834 2157.17 273.612 Q2160.1 271.39 2165.92 271.39 L2171.89 271.39 L2171.89 270.973 Q2171.89 268.034 2169.94 266.436 Q2168.02 264.816 2164.53 264.816 Q2162.3 264.816 2160.2 265.348 Q2158.09 265.881 2156.15 266.946 L2156.15 263.01 Q2158.48 262.108 2160.68 261.668 Q2162.88 261.205 2164.97 261.205 Q2170.59 261.205 2173.37 264.122 Q2176.15 267.038 2176.15 272.964 Z" fill="#000000" fill-rule="nonzero" fill-opacity="1" /><path clip-path="url(#clip400)" d="M2189.13 254.469 L2189.13 261.83 L2197.91 261.83 L2197.91 265.14 L2189.13 265.14 L2189.13 279.214 Q2189.13 282.385 2189.99 283.288 Q2190.87 284.191 2193.53 284.191 L2197.91 284.191 L2197.91 287.756 L2193.53 287.756 Q2188.6 287.756 2186.73 285.927 Q2184.85 284.075 2184.85 279.214 L2184.85 265.14 L2181.73 265.14 L2181.73 261.83 L2184.85 261.83 L2184.85 254.469 L2189.13 254.469 Z" fill="#000000" fill-rule="nonzero" fill-opacity="1" /><path clip-path="url(#clip400)" d="M2215.29 274.723 Q2210.13 274.723 2208.14 275.904 Q2206.15 277.084 2206.15 279.932 Q2206.15 282.2 2207.63 283.543 Q2209.13 284.862 2211.7 284.862 Q2215.24 284.862 2217.37 282.362 Q2219.53 279.839 2219.53 275.672 L2219.53 274.723 L2215.29 274.723 M2223.79 272.964 L2223.79 287.756 L2219.53 287.756 L2219.53 283.821 Q2218.07 286.182 2215.89 287.316 Q2213.72 288.427 2210.57 288.427 Q2206.59 288.427 2204.22 286.205 Q2201.89 283.959 2201.89 280.209 Q2201.89 275.834 2204.8 273.612 Q2207.74 271.39 2213.55 271.39 L2219.53 271.39 L2219.53 270.973 Q2219.53 268.034 2217.58 266.436 Q2215.66 264.816 2212.16 264.816 Q2209.94 264.816 2207.84 265.348 Q2205.73 265.881 2203.79 266.946 L2203.79 263.01 Q2206.12 262.108 2208.32 261.668 Q2210.52 261.205 2212.6 261.205 Q2218.23 261.205 2221.01 264.122 Q2223.79 267.038 2223.79 272.964 Z" fill="#000000" fill-rule="nonzero" fill-opacity="1" /></svg>
