<?xml version="1.0" encoding="utf-8"?>
<svg xmlns="http://www.w3.org/2000/svg" xmlns:xlink="http://www.w3.org/1999/xlink" width="600" height="400" viewBox="0 0 2400 1600">
<defs>
  <clipPath id="clip190">
    <rect x="0" y="0" width="2400" height="1600"/>
  </clipPath>
</defs>
<path clip-path="url(#clip190)" d="M0 1600 L2400 1600 L2400 0 L0 0  Z" fill="#ffffff" fill-rule="evenodd" fill-opacity="1"/>
<defs>
  <clipPath id="clip191">
    <rect x="480" y="0" width="1681" height="1600"/>
  </clipPath>
</defs>
<path clip-path="url(#clip190)" d="M175.445 1423.18 L2352.76 1423.18 L2352.76 123.472 L175.445 123.472  Z" fill="#ffffff" fill-rule="evenodd" fill-opacity="1"/>
<defs>
  <clipPath id="clip192">
    <rect x="175" y="123" width="2178" height="1301"/>
  </clipPath>
</defs>
<polyline clip-path="url(#clip192)" style="stroke:#000000; stroke-linecap:round; stroke-linejoin:round; stroke-width:2; stroke-opacity:0.1; fill:none" points="235.652,1423.18 235.652,123.472 "/>
<polyline clip-path="url(#clip192)" style="stroke:#000000; stroke-linecap:round; stroke-linejoin:round; stroke-width:2; stroke-opacity:0.1; fill:none" points="660.338,1423.18 660.338,123.472 "/>
<polyline clip-path="url(#clip192)" style="stroke:#000000; stroke-linecap:round; stroke-linejoin:round; stroke-width:2; stroke-opacity:0.1; fill:none" points="1085.02,1423.18 1085.02,123.472 "/>
<polyline clip-path="url(#clip192)" style="stroke:#000000; stroke-linecap:round; stroke-linejoin:round; stroke-width:2; stroke-opacity:0.1; fill:none" points="1509.71,1423.18 1509.71,123.472 "/>
<polyline clip-path="url(#clip192)" style="stroke:#000000; stroke-linecap:round; stroke-linejoin:round; stroke-width:2; stroke-opacity:0.1; fill:none" points="1934.4,1423.18 1934.4,123.472 "/>
<polyline clip-path="url(#clip192)" style="stroke:#000000; stroke-linecap:round; stroke-linejoin:round; stroke-width:2; stroke-opacity:0.1; fill:none" points="175.445,1386.4 2352.76,1386.4 "/>
<polyline clip-path="url(#clip192)" style="stroke:#000000; stroke-linecap:round; stroke-linejoin:round; stroke-width:2; stroke-opacity:0.1; fill:none" points="175.445,1028.78 2352.76,1028.78 "/>
<polyline clip-path="url(#clip192)" style="stroke:#000000; stroke-linecap:round; stroke-linejoin:round; stroke-width:2; stroke-opacity:0.1; fill:none" points="175.445,671.156 2352.76,671.156 "/>
<polyline clip-path="url(#clip192)" style="stroke:#000000; stroke-linecap:round; stroke-linejoin:round; stroke-width:2; stroke-opacity:0.1; fill:none" points="175.445,313.536 2352.76,313.536 "/>
<polyline clip-path="url(#clip190)" style="stroke:#000000; stroke-linecap:round; stroke-linejoin:round; stroke-width:4; stroke-opacity:1; fill:none" points="175.445,1423.18 2352.76,1423.18 "/>
<polyline clip-path="url(#clip190)" style="stroke:#000000; stroke-linecap:round; stroke-linejoin:round; stroke-width:4; stroke-opacity:1; fill:none" points="235.652,1423.18 235.652,1404.28 "/>
<polyline clip-path="url(#clip190)" style="stroke:#000000; stroke-linecap:round; stroke-linejoin:round; stroke-width:4; stroke-opacity:1; fill:none" points="660.338,1423.18 660.338,1404.28 "/>
<polyline clip-path="url(#clip190)" style="stroke:#000000; stroke-linecap:round; stroke-linejoin:round; stroke-width:4; stroke-opacity:1; fill:none" points="1085.02,1423.18 1085.02,1404.28 "/>
<polyline clip-path="url(#clip190)" style="stroke:#000000; stroke-linecap:round; stroke-linejoin:round; stroke-width:4; stroke-opacity:1; fill:none" points="1509.71,1423.18 1509.71,1404.28 "/>
<polyline clip-path="url(#clip190)" style="stroke:#000000; stroke-linecap:round; stroke-linejoin:round; stroke-width:4; stroke-opacity:1; fill:none" points="1934.4,1423.18 1934.4,1404.28 "/>
<path clip-path="url(#clip190)" d="M235.652 1454.1 Q232.04 1454.1 230.212 1457.66 Q228.406 1461.2 228.406 1468.33 Q228.406 1475.44 230.212 1479.01 Q232.04 1482.55 235.652 1482.55 Q239.286 1482.55 241.091 1479.01 Q242.92 1475.44 242.92 1468.33 Q242.92 1461.2 241.091 1457.66 Q239.286 1454.1 235.652 1454.1 M235.652 1450.39 Q241.462 1450.39 244.517 1455 Q247.596 1459.58 247.596 1468.33 Q247.596 1477.06 244.517 1481.67 Q241.462 1486.25 235.652 1486.25 Q229.841 1486.25 226.763 1481.67 Q223.707 1477.06 223.707 1468.33 Q223.707 1459.58 226.763 1455 Q229.841 1450.39 235.652 1450.39 Z" fill="#000000" fill-rule="nonzero" fill-opacity="1" /><path clip-path="url(#clip190)" d="M639.609 1481.64 L655.928 1481.64 L655.928 1485.58 L633.984 1485.58 L633.984 1481.64 Q636.646 1478.89 641.229 1474.26 Q645.836 1469.61 647.016 1468.27 Q649.262 1465.74 650.141 1464.01 Q651.044 1462.25 651.044 1460.56 Q651.044 1457.8 649.1 1456.07 Q647.178 1454.33 644.077 1454.33 Q641.877 1454.33 639.424 1455.09 Q636.993 1455.86 634.215 1457.41 L634.215 1452.69 Q637.04 1451.55 639.493 1450.97 Q641.947 1450.39 643.984 1450.39 Q649.354 1450.39 652.549 1453.08 Q655.743 1455.77 655.743 1460.26 Q655.743 1462.39 654.933 1464.31 Q654.146 1466.2 652.039 1468.8 Q651.461 1469.47 648.359 1472.69 Q645.257 1475.88 639.609 1481.64 Z" fill="#000000" fill-rule="nonzero" fill-opacity="1" /><path clip-path="url(#clip190)" d="M665.789 1451.02 L684.146 1451.02 L684.146 1454.96 L670.072 1454.96 L670.072 1463.43 Q671.09 1463.08 672.109 1462.92 Q673.127 1462.73 674.146 1462.73 Q679.933 1462.73 683.312 1465.9 Q686.692 1469.08 686.692 1474.49 Q686.692 1480.07 683.22 1483.17 Q679.748 1486.25 673.428 1486.25 Q671.252 1486.25 668.984 1485.88 Q666.738 1485.51 664.331 1484.77 L664.331 1480.07 Q666.414 1481.2 668.637 1481.76 Q670.859 1482.32 673.336 1482.32 Q677.34 1482.32 679.678 1480.21 Q682.016 1478.1 682.016 1474.49 Q682.016 1470.88 679.678 1468.77 Q677.34 1466.67 673.336 1466.67 Q671.461 1466.67 669.586 1467.08 Q667.734 1467.5 665.789 1468.38 L665.789 1451.02 Z" fill="#000000" fill-rule="nonzero" fill-opacity="1" /><path clip-path="url(#clip190)" d="M1059.72 1451.02 L1078.08 1451.02 L1078.08 1454.96 L1064.01 1454.96 L1064.01 1463.43 Q1065.02 1463.08 1066.04 1462.92 Q1067.06 1462.73 1068.08 1462.73 Q1073.87 1462.73 1077.25 1465.9 Q1080.63 1469.08 1080.63 1474.49 Q1080.63 1480.07 1077.15 1483.17 Q1073.68 1486.25 1067.36 1486.25 Q1065.19 1486.25 1062.92 1485.88 Q1060.67 1485.51 1058.27 1484.77 L1058.27 1480.07 Q1060.35 1481.2 1062.57 1481.76 Q1064.79 1482.32 1067.27 1482.32 Q1071.27 1482.32 1073.61 1480.21 Q1075.95 1478.1 1075.95 1474.49 Q1075.95 1470.88 1073.61 1468.77 Q1071.27 1466.67 1067.27 1466.67 Q1065.39 1466.67 1063.52 1467.08 Q1061.67 1467.5 1059.72 1468.38 L1059.72 1451.02 Z" fill="#000000" fill-rule="nonzero" fill-opacity="1" /><path clip-path="url(#clip190)" d="M1099.84 1454.1 Q1096.23 1454.1 1094.4 1457.66 Q1092.59 1461.2 1092.59 1468.33 Q1092.59 1475.44 1094.4 1479.01 Q1096.23 1482.55 1099.84 1482.55 Q1103.47 1482.55 1105.28 1479.01 Q1107.11 1475.44 1107.11 1468.33 Q1107.11 1461.2 1105.28 1457.66 Q1103.47 1454.1 1099.84 1454.1 M1099.84 1450.39 Q1105.65 1450.39 1108.7 1455 Q1111.78 1459.58 1111.78 1468.33 Q1111.78 1477.06 1108.7 1481.67 Q1105.65 1486.25 1099.84 1486.25 Q1094.03 1486.25 1090.95 1481.67 Q1087.89 1477.06 1087.89 1468.33 Q1087.89 1459.58 1090.95 1455 Q1094.03 1450.39 1099.84 1450.39 Z" fill="#000000" fill-rule="nonzero" fill-opacity="1" /><path clip-path="url(#clip190)" d="M1483.57 1451.02 L1505.79 1451.02 L1505.79 1453.01 L1493.24 1485.58 L1488.36 1485.58 L1500.16 1454.96 L1483.57 1454.96 L1483.57 1451.02 Z" fill="#000000" fill-rule="nonzero" fill-opacity="1" /><path clip-path="url(#clip190)" d="M1514.95 1451.02 L1533.31 1451.02 L1533.31 1454.96 L1519.24 1454.96 L1519.24 1463.43 Q1520.25 1463.08 1521.27 1462.92 Q1522.29 1462.73 1523.31 1462.73 Q1529.1 1462.73 1532.48 1465.9 Q1535.86 1469.08 1535.86 1474.49 Q1535.86 1480.07 1532.38 1483.17 Q1528.91 1486.25 1522.59 1486.25 Q1520.42 1486.25 1518.15 1485.88 Q1515.9 1485.51 1513.5 1484.77 L1513.5 1480.07 Q1515.58 1481.2 1517.8 1481.76 Q1520.02 1482.32 1522.5 1482.32 Q1526.5 1482.32 1528.84 1480.21 Q1531.18 1478.1 1531.18 1474.49 Q1531.18 1470.88 1528.84 1468.77 Q1526.5 1466.67 1522.5 1466.67 Q1520.63 1466.67 1518.75 1467.08 Q1516.9 1467.5 1514.95 1468.38 L1514.95 1451.02 Z" fill="#000000" fill-rule="nonzero" fill-opacity="1" /><path clip-path="url(#clip190)" d="M1894 1481.64 L1901.64 1481.64 L1901.64 1455.28 L1893.33 1456.95 L1893.33 1452.69 L1901.6 1451.02 L1906.27 1451.02 L1906.27 1481.64 L1913.91 1481.64 L1913.91 1485.58 L1894 1485.58 L1894 1481.64 Z" fill="#000000" fill-rule="nonzero" fill-opacity="1" /><path clip-path="url(#clip190)" d="M1933.36 1454.1 Q1929.74 1454.1 1927.92 1457.66 Q1926.11 1461.2 1926.11 1468.33 Q1926.11 1475.44 1927.92 1479.01 Q1929.74 1482.55 1933.36 1482.55 Q1936.99 1482.55 1938.8 1479.01 Q1940.62 1475.44 1940.62 1468.33 Q1940.62 1461.2 1938.8 1457.66 Q1936.99 1454.1 1933.36 1454.1 M1933.36 1450.39 Q1939.17 1450.39 1942.22 1455 Q1945.3 1459.58 1945.3 1468.33 Q1945.3 1477.06 1942.22 1481.67 Q1939.17 1486.25 1933.36 1486.25 Q1927.55 1486.25 1924.47 1481.67 Q1921.41 1477.06 1921.41 1468.33 Q1921.41 1459.58 1924.47 1455 Q1927.55 1450.39 1933.36 1450.39 Z" fill="#000000" fill-rule="nonzero" fill-opacity="1" /><path clip-path="url(#clip190)" d="M1963.52 1454.1 Q1959.91 1454.1 1958.08 1457.66 Q1956.27 1461.2 1956.27 1468.33 Q1956.27 1475.44 1958.08 1479.01 Q1959.91 1482.55 1963.52 1482.55 Q1967.15 1482.55 1968.96 1479.01 Q1970.79 1475.44 1970.79 1468.33 Q1970.79 1461.2 1968.96 1457.66 Q1967.15 1454.1 1963.52 1454.1 M1963.52 1450.39 Q1969.33 1450.39 1972.38 1455 Q1975.46 1459.58 1975.46 1468.33 Q1975.46 1477.06 1972.38 1481.67 Q1969.33 1486.25 1963.52 1486.25 Q1957.71 1486.25 1954.63 1481.67 Q1951.57 1477.06 1951.57 1468.33 Q1951.57 1459.58 1954.63 1455 Q1957.71 1450.39 1963.52 1450.39 Z" fill="#000000" fill-rule="nonzero" fill-opacity="1" /><path clip-path="url(#clip190)" d="M1185.98 1520.52 L1226.18 1520.52 L1226.18 1525.93 L1209.31 1525.93 L1209.31 1568.04 L1202.85 1568.04 L1202.85 1525.93 L1185.98 1525.93 L1185.98 1520.52 Z" fill="#000000" fill-rule="nonzero" fill-opacity="1" /><path clip-path="url(#clip190)" d="M1230.12 1532.4 L1235.98 1532.4 L1235.98 1568.04 L1230.12 1568.04 L1230.12 1532.4 M1230.12 1518.52 L1235.98 1518.52 L1235.98 1525.93 L1230.12 1525.93 L1230.12 1518.52 Z" fill="#000000" fill-rule="nonzero" fill-opacity="1" /><path clip-path="url(#clip190)" d="M1275.99 1539.24 Q1278.18 1535.29 1281.24 1533.41 Q1284.3 1531.54 1288.43 1531.54 Q1294 1531.54 1297.03 1535.45 Q1300.05 1539.33 1300.05 1546.53 L1300.05 1568.04 L1294.16 1568.04 L1294.16 1546.72 Q1294.16 1541.59 1292.35 1539.11 Q1290.53 1536.63 1286.81 1536.63 Q1282.26 1536.63 1279.62 1539.65 Q1276.98 1542.68 1276.98 1547.9 L1276.98 1568.04 L1271.09 1568.04 L1271.09 1546.72 Q1271.09 1541.56 1269.27 1539.11 Q1267.46 1536.63 1263.67 1536.63 Q1259.18 1536.63 1256.54 1539.68 Q1253.9 1542.71 1253.9 1547.9 L1253.9 1568.04 L1248.01 1568.04 L1248.01 1532.4 L1253.9 1532.4 L1253.9 1537.93 Q1255.9 1534.66 1258.71 1533.1 Q1261.51 1531.54 1265.36 1531.54 Q1269.24 1531.54 1271.95 1533.51 Q1274.68 1535.48 1275.99 1539.24 Z" fill="#000000" fill-rule="nonzero" fill-opacity="1" /><path clip-path="url(#clip190)" d="M1342.22 1548.76 L1342.22 1551.62 L1315.3 1551.62 Q1315.68 1557.67 1318.93 1560.85 Q1322.2 1564 1328.03 1564 Q1331.4 1564 1334.55 1563.17 Q1337.74 1562.35 1340.86 1560.69 L1340.86 1566.23 Q1337.7 1567.57 1334.39 1568.27 Q1331.08 1568.97 1327.68 1568.97 Q1319.15 1568.97 1314.15 1564 Q1309.19 1559.04 1309.19 1550.57 Q1309.19 1541.82 1313.9 1536.69 Q1318.64 1531.54 1326.66 1531.54 Q1333.85 1531.54 1338.02 1536.18 Q1342.22 1540.8 1342.22 1548.76 M1336.37 1547.04 Q1336.3 1542.23 1333.66 1539.37 Q1331.05 1536.5 1326.72 1536.5 Q1321.82 1536.5 1318.86 1539.27 Q1315.93 1542.04 1315.49 1547.07 L1336.37 1547.04 Z" fill="#000000" fill-rule="nonzero" fill-opacity="1" /><polyline clip-path="url(#clip190)" style="stroke:#000000; stroke-linecap:round; stroke-linejoin:round; stroke-width:4; stroke-opacity:1; fill:none" points="175.445,1423.18 175.445,123.472 "/>
<polyline clip-path="url(#clip190)" style="stroke:#000000; stroke-linecap:round; stroke-linejoin:round; stroke-width:4; stroke-opacity:1; fill:none" points="175.445,1386.4 194.343,1386.4 "/>
<polyline clip-path="url(#clip190)" style="stroke:#000000; stroke-linecap:round; stroke-linejoin:round; stroke-width:4; stroke-opacity:1; fill:none" points="175.445,1028.78 194.343,1028.78 "/>
<polyline clip-path="url(#clip190)" style="stroke:#000000; stroke-linecap:round; stroke-linejoin:round; stroke-width:4; stroke-opacity:1; fill:none" points="175.445,671.156 194.343,671.156 "/>
<polyline clip-path="url(#clip190)" style="stroke:#000000; stroke-linecap:round; stroke-linejoin:round; stroke-width:4; stroke-opacity:1; fill:none" points="175.445,313.536 194.343,313.536 "/>
<path clip-path="url(#clip190)" d="M127.501 1372.19 Q123.89 1372.19 122.061 1375.76 Q120.255 1379.3 120.255 1386.43 Q120.255 1393.54 122.061 1397.1 Q123.89 1400.64 127.501 1400.64 Q131.135 1400.64 132.941 1397.1 Q134.769 1393.54 134.769 1386.43 Q134.769 1379.3 132.941 1375.76 Q131.135 1372.19 127.501 1372.19 M127.501 1368.49 Q133.311 1368.49 136.367 1373.1 Q139.445 1377.68 139.445 1386.43 Q139.445 1395.16 136.367 1399.76 Q133.311 1404.35 127.501 1404.35 Q121.691 1404.35 118.612 1399.76 Q115.556 1395.16 115.556 1386.43 Q115.556 1377.68 118.612 1373.1 Q121.691 1368.49 127.501 1368.49 Z" fill="#000000" fill-rule="nonzero" fill-opacity="1" /><path clip-path="url(#clip190)" d="M123.126 1042.12 L139.445 1042.12 L139.445 1046.06 L117.501 1046.06 L117.501 1042.12 Q120.163 1039.37 124.746 1034.74 Q129.353 1030.08 130.533 1028.74 Q132.779 1026.22 133.658 1024.48 Q134.561 1022.72 134.561 1021.03 Q134.561 1018.28 132.617 1016.54 Q130.695 1014.81 127.593 1014.81 Q125.394 1014.81 122.941 1015.57 Q120.51 1016.33 117.732 1017.88 L117.732 1013.16 Q120.556 1012.03 123.01 1011.45 Q125.464 1010.87 127.501 1010.87 Q132.871 1010.87 136.066 1013.56 Q139.26 1016.24 139.26 1020.73 Q139.26 1022.86 138.45 1024.78 Q137.663 1026.68 135.556 1029.27 Q134.978 1029.94 131.876 1033.16 Q128.774 1036.36 123.126 1042.12 Z" fill="#000000" fill-rule="nonzero" fill-opacity="1" /><path clip-path="url(#clip190)" d="M129.862 657.95 L118.056 676.399 L129.862 676.399 L129.862 657.95 M128.635 653.876 L134.515 653.876 L134.515 676.399 L139.445 676.399 L139.445 680.288 L134.515 680.288 L134.515 688.436 L129.862 688.436 L129.862 680.288 L114.26 680.288 L114.26 675.774 L128.635 653.876 Z" fill="#000000" fill-rule="nonzero" fill-opacity="1" /><path clip-path="url(#clip190)" d="M127.917 311.672 Q124.769 311.672 122.918 313.825 Q121.089 315.978 121.089 319.728 Q121.089 323.455 122.918 325.63 Q124.769 327.783 127.917 327.783 Q131.066 327.783 132.894 325.63 Q134.746 323.455 134.746 319.728 Q134.746 315.978 132.894 313.825 Q131.066 311.672 127.917 311.672 M137.2 297.019 L137.2 301.279 Q135.441 300.445 133.635 300.006 Q131.853 299.566 130.093 299.566 Q125.464 299.566 123.01 302.691 Q120.58 305.816 120.232 312.135 Q121.598 310.121 123.658 309.056 Q125.718 307.969 128.195 307.969 Q133.404 307.969 136.413 311.14 Q139.445 314.288 139.445 319.728 Q139.445 325.052 136.297 328.269 Q133.149 331.487 127.917 331.487 Q121.922 331.487 118.751 326.904 Q115.58 322.297 115.58 313.57 Q115.58 305.376 119.468 300.515 Q123.357 295.631 129.908 295.631 Q131.667 295.631 133.45 295.978 Q135.255 296.325 137.2 297.019 Z" fill="#000000" fill-rule="nonzero" fill-opacity="1" /><path clip-path="url(#clip190)" d="M20.1444 820.225 L26.9239 820.225 Q23.9002 823.472 22.4043 827.164 Q20.9083 830.824 20.9083 834.962 Q20.9083 843.11 25.9054 847.439 Q30.8707 851.767 40.2919 851.767 Q49.6813 851.767 54.6784 847.439 Q59.6436 843.11 59.6436 834.962 Q59.6436 830.824 58.1477 827.164 Q56.6518 823.472 53.6281 820.225 L60.3439 820.225 Q62.6355 823.599 63.7814 827.387 Q64.9272 831.143 64.9272 835.344 Q64.9272 846.134 58.3387 852.34 Q51.7183 858.547 40.2919 858.547 Q28.8336 858.547 22.2451 852.34 Q15.6248 846.134 15.6248 835.344 Q15.6248 831.079 16.7706 827.323 Q17.8846 823.535 20.1444 820.225 Z" fill="#000000" fill-rule="nonzero" fill-opacity="1" /><path clip-path="url(#clip190)" d="M16.4842 816.883 L16.4842 776.684 L21.895 776.684 L21.895 793.553 L64.0042 793.553 L64.0042 800.014 L21.895 800.014 L21.895 816.883 L16.4842 816.883 Z" fill="#000000" fill-rule="nonzero" fill-opacity="1" /><path clip-path="url(#clip190)" d="M16.4842 770.477 L16.4842 761.82 L56.238 740.749 L16.4842 740.749 L16.4842 734.511 L64.0042 734.511 L64.0042 743.168 L24.2503 764.239 L64.0042 764.239 L64.0042 770.477 L16.4842 770.477 Z" fill="#000000" fill-rule="nonzero" fill-opacity="1" /><path clip-path="url(#clip190)" d="M16.4842 728.305 L16.4842 688.105 L21.895 688.105 L21.895 704.974 L64.0042 704.974 L64.0042 711.435 L21.895 711.435 L21.895 728.305 L16.4842 728.305 Z" fill="#000000" fill-rule="nonzero" fill-opacity="1" /><path clip-path="url(#clip190)" d="M1043.29 18.8205 L1043.29 41.5461 L1053.58 41.5461 Q1059.29 41.5461 1062.41 38.5889 Q1065.53 35.6318 1065.53 30.163 Q1065.53 24.7348 1062.41 21.7777 Q1059.29 18.8205 1053.58 18.8205 L1043.29 18.8205 M1035.1 12.096 L1053.58 12.096 Q1063.74 12.096 1068.93 16.714 Q1074.15 21.2916 1074.15 30.163 Q1074.15 39.1155 1068.93 43.6931 Q1063.74 48.2706 1053.58 48.2706 L1043.29 48.2706 L1043.29 72.576 L1035.1 72.576 L1035.1 12.096 Z" fill="#000000" fill-rule="nonzero" fill-opacity="1" /><path clip-path="url(#clip190)" d="M1101.7 49.7694 Q1092.67 49.7694 1089.18 51.8354 Q1085.7 53.9013 1085.7 58.8839 Q1085.7 62.8538 1088.29 65.2034 Q1090.92 67.5124 1095.42 67.5124 Q1101.62 67.5124 1105.35 63.1374 Q1109.11 58.7219 1109.11 51.4303 L1109.11 49.7694 L1101.7 49.7694 M1116.57 46.6907 L1116.57 72.576 L1109.11 72.576 L1109.11 65.6895 Q1106.56 69.8214 1102.75 71.8063 Q1098.95 73.7508 1093.44 73.7508 Q1086.47 73.7508 1082.34 69.8619 Q1078.25 65.9325 1078.25 59.3701 Q1078.25 51.7138 1083.35 47.825 Q1088.49 43.9361 1098.66 43.9361 L1109.11 43.9361 L1109.11 43.2069 Q1109.11 38.0623 1105.71 35.2672 Q1102.35 32.4315 1096.23 32.4315 Q1092.34 32.4315 1088.66 33.3632 Q1084.97 34.295 1081.57 36.1584 L1081.57 29.2718 Q1085.66 27.692 1089.51 26.9223 Q1093.35 26.1121 1097 26.1121 Q1106.84 26.1121 1111.71 31.2163 Q1116.57 36.3204 1116.57 46.6907 Z" fill="#000000" fill-rule="nonzero" fill-opacity="1" /><path clip-path="url(#clip190)" d="M1139.29 14.324 L1139.29 27.2059 L1154.65 27.2059 L1154.65 32.9987 L1139.29 32.9987 L1139.29 57.6282 Q1139.29 63.1779 1140.79 64.7578 Q1142.33 66.3376 1146.99 66.3376 L1154.65 66.3376 L1154.65 72.576 L1146.99 72.576 Q1138.36 72.576 1135.08 69.3758 Q1131.8 66.1351 1131.8 57.6282 L1131.8 32.9987 L1126.33 32.9987 L1126.33 27.2059 L1131.8 27.2059 L1131.8 14.324 L1139.29 14.324 Z" fill="#000000" fill-rule="nonzero" fill-opacity="1" /><path clip-path="url(#clip190)" d="M1164.45 27.2059 L1171.9 27.2059 L1171.9 72.576 L1164.45 72.576 L1164.45 27.2059 M1164.45 9.54393 L1171.9 9.54393 L1171.9 18.9825 L1164.45 18.9825 L1164.45 9.54393 Z" fill="#000000" fill-rule="nonzero" fill-opacity="1" /><path clip-path="url(#clip190)" d="M1226.31 48.0275 L1226.31 51.6733 L1192.03 51.6733 Q1192.52 59.3701 1196.65 63.421 Q1200.83 67.4314 1208.24 67.4314 Q1212.53 67.4314 1216.54 66.3781 Q1220.59 65.3249 1224.56 63.2184 L1224.56 70.267 Q1220.55 71.9684 1216.34 72.8596 Q1212.13 73.7508 1207.79 73.7508 Q1196.94 73.7508 1190.58 67.4314 Q1184.26 61.1119 1184.26 50.3365 Q1184.26 39.1965 1190.25 32.6746 Q1196.29 26.1121 1206.5 26.1121 Q1215.65 26.1121 1220.96 32.0264 Q1226.31 37.9003 1226.31 48.0275 M1218.85 45.84 Q1218.77 39.7232 1215.41 36.0774 Q1212.09 32.4315 1206.58 32.4315 Q1200.34 32.4315 1196.57 35.9558 Q1192.85 39.4801 1192.28 45.8805 L1218.85 45.84 Z" fill="#000000" fill-rule="nonzero" fill-opacity="1" /><path clip-path="url(#clip190)" d="M1276.25 45.1919 L1276.25 72.576 L1268.8 72.576 L1268.8 45.4349 Q1268.8 38.994 1266.29 35.7938 Q1263.78 32.5936 1258.75 32.5936 Q1252.72 32.5936 1249.23 36.4419 Q1245.75 40.2903 1245.75 46.9338 L1245.75 72.576 L1238.26 72.576 L1238.26 27.2059 L1245.75 27.2059 L1245.75 34.2544 Q1248.42 30.163 1252.03 28.1376 Q1255.67 26.1121 1260.41 26.1121 Q1268.23 26.1121 1272.24 30.9732 Q1276.25 35.7938 1276.25 45.1919 Z" fill="#000000" fill-rule="nonzero" fill-opacity="1" /><path clip-path="url(#clip190)" d="M1298.49 14.324 L1298.49 27.2059 L1313.85 27.2059 L1313.85 32.9987 L1298.49 32.9987 L1298.49 57.6282 Q1298.49 63.1779 1299.99 64.7578 Q1301.53 66.3376 1306.19 66.3376 L1313.85 66.3376 L1313.85 72.576 L1306.19 72.576 Q1297.56 72.576 1294.28 69.3758 Q1291 66.1351 1291 57.6282 L1291 32.9987 L1285.53 32.9987 L1285.53 27.2059 L1291 27.2059 L1291 14.324 L1298.49 14.324 Z" fill="#000000" fill-rule="nonzero" fill-opacity="1" /><path clip-path="url(#clip190)" d="M1387.73 45.1919 L1387.73 72.576 L1380.28 72.576 L1380.28 45.4349 Q1380.28 38.994 1377.77 35.7938 Q1375.26 32.5936 1370.23 32.5936 Q1364.2 32.5936 1360.71 36.4419 Q1357.23 40.2903 1357.23 46.9338 L1357.23 72.576 L1349.74 72.576 L1349.74 27.2059 L1357.23 27.2059 L1357.23 34.2544 Q1359.9 30.163 1363.51 28.1376 Q1367.16 26.1121 1371.9 26.1121 Q1379.71 26.1121 1383.72 30.9732 Q1387.73 35.7938 1387.73 45.1919 Z" fill="#000000" fill-rule="nonzero" fill-opacity="1" /><path clip-path="url(#clip190)" d="M1403.9 71.3202 L1403.9 63.8666 Q1406.98 65.3249 1410.14 66.0946 Q1413.3 66.8642 1416.33 66.8642 Q1424.44 66.8642 1428.69 61.436 Q1432.98 55.9673 1433.59 44.8678 Q1431.24 48.3516 1427.64 50.215 Q1424.03 52.0784 1419.66 52.0784 Q1410.58 52.0784 1405.27 46.6097 Q1400.01 41.1005 1400.01 31.5808 Q1400.01 22.2638 1405.52 16.633 Q1411.03 11.0023 1420.18 11.0023 Q1430.67 11.0023 1436.18 19.0636 Q1441.73 27.0843 1441.73 42.3968 Q1441.73 56.6965 1434.93 65.2439 Q1428.16 73.7508 1416.7 73.7508 Q1413.62 73.7508 1410.46 73.1431 Q1407.3 72.5355 1403.9 71.3202 M1420.18 45.678 Q1425.69 45.678 1428.89 41.9107 Q1432.13 38.1433 1432.13 31.5808 Q1432.13 25.0589 1428.89 21.2916 Q1425.69 17.4837 1420.18 17.4837 Q1414.67 17.4837 1411.43 21.2916 Q1408.23 25.0589 1408.23 31.5808 Q1408.23 38.1433 1411.43 41.9107 Q1414.67 45.678 1420.18 45.678 Z" fill="#000000" fill-rule="nonzero" fill-opacity="1" /><path clip-path="url(#clip190)" d="M1456.52 12.096 L1488.64 12.096 L1488.64 18.9825 L1464.01 18.9825 L1464.01 33.8088 Q1465.8 33.2012 1467.58 32.9176 Q1469.36 32.5936 1471.14 32.5936 Q1481.27 32.5936 1487.18 38.1433 Q1493.1 43.6931 1493.1 53.1722 Q1493.1 62.9348 1487.02 68.3631 Q1480.95 73.7508 1469.89 73.7508 Q1466.08 73.7508 1462.11 73.1026 Q1458.18 72.4545 1453.97 71.1582 L1453.97 62.9348 Q1457.61 64.9198 1461.5 65.892 Q1465.39 66.8642 1469.72 66.8642 Q1476.73 66.8642 1480.82 63.1779 Q1484.92 59.4916 1484.92 53.1722 Q1484.92 46.8528 1480.82 43.1664 Q1476.73 39.4801 1469.72 39.4801 Q1466.44 39.4801 1463.16 40.2093 Q1459.92 40.9384 1456.52 42.4778 L1456.52 12.096 Z" fill="#000000" fill-rule="nonzero" fill-opacity="1" /><polyline clip-path="url(#clip192)" style="stroke:#009af9; stroke-linecap:round; stroke-linejoin:round; stroke-width:8; stroke-opacity:1; fill:none" points="252.639,1386.4 269.627,160.256 286.614,174.742 303.601,183.381 320.589,191.856 337.576,200.922 354.564,208.423 371.551,217.526 388.539,225.569 405.526,233.755 422.514,241.861 439.501,249.918 456.489,257.978 473.476,265.958 490.463,273.866 507.451,281.708 524.438,289.494 541.426,297.221 558.413,304.889 575.401,312.499 592.388,320.05 609.376,327.542 626.363,334.975 643.351,342.343 660.338,349.658 677.325,356.919 694.313,364.126 711.3,371.28 728.288,378.38 745.275,385.427 762.263,392.42 779.25,399.359 796.238,406.245 813.225,413.077 830.213,419.855 847.2,426.58 864.188,433.251 881.175,439.869 898.162,446.43 915.15,452.94 932.137,459.402 949.125,465.817 966.112,472.183 983.1,478.503 1000.09,484.775 1017.07,490.999 1034.06,497.175 1051.05,503.304 1068.04,509.386 1085.02,515.42 1102.01,521.406 1119,527.345 1135.99,533.235 1152.97,539.068 1169.96,544.86 1186.95,550.611 1203.94,556.321 1220.92,561.99 1237.91,567.618 1254.9,573.206 1271.89,578.753 1288.87,584.259 1305.86,589.725 1322.85,595.149 1339.84,600.533 1356.82,605.876 1373.81,611.178 1390.8,616.44 1407.79,621.66 1424.77,626.84 1441.76,631.979 1458.75,637.077 1475.74,642.135 1492.72,647.152 1509.71,652.128 1526.7,657.057 1543.69,661.946 1560.67,666.802 1577.66,671.624 1594.65,676.412 1611.64,681.167 1628.62,685.888 1645.61,690.575 1662.6,695.229 1679.59,699.849 1696.57,704.436 1713.56,708.989 1730.55,713.508 1747.54,717.994 1764.52,722.445 1781.51,726.864 1798.5,731.249 1815.49,735.6 1832.47,739.917 1849.46,744.201 1866.45,748.451 1883.43,752.667 1900.42,756.842 1917.41,760.986 1934.4,765.103 1951.38,769.193 1968.37,773.256 1985.36,777.293 2002.35,781.303 2019.33,785.286 2036.32,789.242 2053.31,793.172 2070.3,797.075 2087.28,800.952 2104.27,804.801 2121.26,808.624 2138.25,812.42 2155.23,816.19 2172.22,819.933 2189.21,823.649 2206.2,827.338 2223.18,831.001 2240.17,834.636 2257.16,838.246 2274.15,841.828 2291.13,845.089 "/>
<circle clip-path="url(#clip192)" cx="237.067" cy="1286.8" r="18" fill="#e26f46" fill-rule="evenodd" fill-opacity="1" stroke="#000000" stroke-opacity="1" stroke-width="3.2"/>
<circle clip-path="url(#clip192)" cx="444.597" cy="1119.97" r="18" fill="#e26f46" fill-rule="evenodd" fill-opacity="1" stroke="#000000" stroke-opacity="1" stroke-width="3.2"/>
<circle clip-path="url(#clip192)" cx="545.673" cy="1267.31" r="18" fill="#e26f46" fill-rule="evenodd" fill-opacity="1" stroke="#000000" stroke-opacity="1" stroke-width="3.2"/>
<circle clip-path="url(#clip192)" cx="951.39" cy="1256.94" r="18" fill="#e26f46" fill-rule="evenodd" fill-opacity="1" stroke="#000000" stroke-opacity="1" stroke-width="3.2"/>
<circle clip-path="url(#clip192)" cx="1363.34" cy="1252.65" r="18" fill="#e26f46" fill-rule="evenodd" fill-opacity="1" stroke="#000000" stroke-opacity="1" stroke-width="3.2"/>
<circle clip-path="url(#clip192)" cx="1667.69" cy="1244.96" r="18" fill="#e26f46" fill-rule="evenodd" fill-opacity="1" stroke="#000000" stroke-opacity="1" stroke-width="3.2"/>
<circle clip-path="url(#clip192)" cx="1771.6" cy="1278.93" r="18" fill="#e26f46" fill-rule="evenodd" fill-opacity="1" stroke="#000000" stroke-opacity="1" stroke-width="3.2"/>
<circle clip-path="url(#clip192)" cx="2272.73" cy="1309.69" r="18" fill="#e26f46" fill-rule="evenodd" fill-opacity="1" stroke="#000000" stroke-opacity="1" stroke-width="3.2"/>
<path clip-path="url(#clip190)" d="M1678.21 322.316 L2280.18 322.316 L2280.18 166.796 L1678.21 166.796  Z" fill="#ffffff" fill-rule="evenodd" fill-opacity="1"/>
<polyline clip-path="url(#clip190)" style="stroke:#000000; stroke-linecap:round; stroke-linejoin:round; stroke-width:4; stroke-opacity:1; fill:none" points="1678.21,322.316 2280.18,322.316 2280.18,166.796 1678.21,166.796 1678.21,322.316 "/>
<polyline clip-path="url(#clip190)" style="stroke:#009af9; stroke-linecap:round; stroke-linejoin:round; stroke-width:8; stroke-opacity:1; fill:none" points="1702.41,218.636 1847.56,218.636 "/>
<path clip-path="url(#clip190)" d="M1871.75 201.356 L1878.72 201.356 L1887.54 224.874 L1896.41 201.356 L1903.37 201.356 L1903.37 235.916 L1898.81 235.916 L1898.81 205.569 L1889.9 229.272 L1885.2 229.272 L1876.29 205.569 L1876.29 235.916 L1871.75 235.916 L1871.75 201.356 Z" fill="#000000" fill-rule="nonzero" fill-opacity="1" /><path clip-path="url(#clip190)" d="M1922.52 212.976 Q1919.09 212.976 1917.1 215.661 Q1915.11 218.323 1915.11 222.976 Q1915.11 227.629 1917.08 230.314 Q1919.07 232.976 1922.52 232.976 Q1925.92 232.976 1927.91 230.291 Q1929.9 227.606 1929.9 222.976 Q1929.9 218.37 1927.91 215.684 Q1925.92 212.976 1922.52 212.976 M1922.52 209.365 Q1928.07 209.365 1931.24 212.976 Q1934.41 216.587 1934.41 222.976 Q1934.41 229.342 1931.24 232.976 Q1928.07 236.587 1922.52 236.587 Q1916.94 236.587 1913.77 232.976 Q1910.62 229.342 1910.62 222.976 Q1910.62 216.587 1913.77 212.976 Q1916.94 209.365 1922.52 209.365 Z" fill="#000000" fill-rule="nonzero" fill-opacity="1" /><path clip-path="url(#clip190)" d="M1958.53 213.925 L1958.53 199.897 L1962.79 199.897 L1962.79 235.916 L1958.53 235.916 L1958.53 232.027 Q1957.19 234.342 1955.13 235.476 Q1953.09 236.587 1950.22 236.587 Q1945.53 236.587 1942.56 232.837 Q1939.62 229.087 1939.62 222.976 Q1939.62 216.865 1942.56 213.115 Q1945.53 209.365 1950.22 209.365 Q1953.09 209.365 1955.13 210.499 Q1957.19 211.61 1958.53 213.925 M1944.02 222.976 Q1944.02 227.675 1945.94 230.36 Q1947.89 233.022 1951.27 233.022 Q1954.65 233.022 1956.59 230.36 Q1958.53 227.675 1958.53 222.976 Q1958.53 218.277 1956.59 215.615 Q1954.65 212.93 1951.27 212.93 Q1947.89 212.93 1945.94 215.615 Q1944.02 218.277 1944.02 222.976 Z" fill="#000000" fill-rule="nonzero" fill-opacity="1" /><path clip-path="url(#clip190)" d="M1993.74 221.888 L1993.74 223.971 L1974.16 223.971 Q1974.44 228.369 1976.8 230.684 Q1979.18 232.976 1983.42 232.976 Q1985.87 232.976 1988.16 232.374 Q1990.48 231.772 1992.75 230.569 L1992.75 234.596 Q1990.46 235.568 1988.05 236.078 Q1985.64 236.587 1983.16 236.587 Q1976.96 236.587 1973.33 232.976 Q1969.71 229.365 1969.71 223.207 Q1969.71 216.842 1973.14 213.115 Q1976.59 209.365 1982.42 209.365 Q1987.65 209.365 1990.69 212.745 Q1993.74 216.101 1993.74 221.888 M1989.48 220.638 Q1989.44 217.143 1987.52 215.059 Q1985.62 212.976 1982.47 212.976 Q1978.9 212.976 1976.75 214.99 Q1974.62 217.004 1974.3 220.661 L1989.48 220.638 Z" fill="#000000" fill-rule="nonzero" fill-opacity="1" /><path clip-path="url(#clip190)" d="M2000.73 199.897 L2004.99 199.897 L2004.99 235.916 L2000.73 235.916 L2000.73 199.897 Z" fill="#000000" fill-rule="nonzero" fill-opacity="1" /><path clip-path="url(#clip190)" d="M2033.83 205.198 L2033.83 218.184 L2039.71 218.184 Q2042.98 218.184 2044.76 216.495 Q2046.54 214.805 2046.54 211.68 Q2046.54 208.578 2044.76 206.888 Q2042.98 205.198 2039.71 205.198 L2033.83 205.198 M2029.16 201.356 L2039.71 201.356 Q2045.52 201.356 2048.49 203.995 Q2051.47 206.61 2051.47 211.68 Q2051.47 216.795 2048.49 219.411 Q2045.52 222.027 2039.71 222.027 L2033.83 222.027 L2033.83 235.916 L2029.16 235.916 L2029.16 201.356 Z" fill="#000000" fill-rule="nonzero" fill-opacity="1" /><path clip-path="url(#clip190)" d="M2071.75 213.971 Q2071.03 213.555 2070.18 213.37 Q2069.34 213.161 2068.33 213.161 Q2064.71 213.161 2062.77 215.522 Q2060.85 217.86 2060.85 222.258 L2060.85 235.916 L2056.57 235.916 L2056.57 209.99 L2060.85 209.99 L2060.85 214.018 Q2062.19 211.657 2064.34 210.522 Q2066.5 209.365 2069.58 209.365 Q2070.02 209.365 2070.55 209.434 Q2071.08 209.481 2071.73 209.596 L2071.75 213.971 Z" fill="#000000" fill-rule="nonzero" fill-opacity="1" /><path clip-path="url(#clip190)" d="M2097.35 221.888 L2097.35 223.971 L2077.77 223.971 Q2078.05 228.369 2080.41 230.684 Q2082.79 232.976 2087.03 232.976 Q2089.48 232.976 2091.77 232.374 Q2094.09 231.772 2096.36 230.569 L2096.36 234.596 Q2094.07 235.568 2091.66 236.078 Q2089.25 236.587 2086.77 236.587 Q2080.57 236.587 2076.94 232.976 Q2073.33 229.365 2073.33 223.207 Q2073.33 216.842 2076.75 213.115 Q2080.2 209.365 2086.03 209.365 Q2091.27 209.365 2094.3 212.745 Q2097.35 216.101 2097.35 221.888 M2093.09 220.638 Q2093.05 217.143 2091.13 215.059 Q2089.23 212.976 2086.08 212.976 Q2082.52 212.976 2080.36 214.99 Q2078.23 217.004 2077.91 220.661 L2093.09 220.638 Z" fill="#000000" fill-rule="nonzero" fill-opacity="1" /><path clip-path="url(#clip190)" d="M2121.4 213.925 L2121.4 199.897 L2125.66 199.897 L2125.66 235.916 L2121.4 235.916 L2121.4 232.027 Q2120.06 234.342 2118 235.476 Q2115.96 236.587 2113.09 236.587 Q2108.39 236.587 2105.43 232.837 Q2102.49 229.087 2102.49 222.976 Q2102.49 216.865 2105.43 213.115 Q2108.39 209.365 2113.09 209.365 Q2115.96 209.365 2118 210.499 Q2120.06 211.61 2121.4 213.925 M2106.89 222.976 Q2106.89 227.675 2108.81 230.36 Q2110.76 233.022 2114.14 233.022 Q2117.52 233.022 2119.46 230.36 Q2121.4 227.675 2121.4 222.976 Q2121.4 218.277 2119.46 215.615 Q2117.52 212.93 2114.14 212.93 Q2110.76 212.93 2108.81 215.615 Q2106.89 218.277 2106.89 222.976 Z" fill="#000000" fill-rule="nonzero" fill-opacity="1" /><path clip-path="url(#clip190)" d="M2134.44 209.99 L2138.7 209.99 L2138.7 235.916 L2134.44 235.916 L2134.44 209.99 M2134.44 199.897 L2138.7 199.897 L2138.7 205.291 L2134.44 205.291 L2134.44 199.897 Z" fill="#000000" fill-rule="nonzero" fill-opacity="1" /><path clip-path="url(#clip190)" d="M2166.26 210.985 L2166.26 214.967 Q2164.46 213.971 2162.63 213.485 Q2160.83 212.976 2158.97 212.976 Q2154.83 212.976 2152.54 215.615 Q2150.25 218.231 2150.25 222.976 Q2150.25 227.721 2152.54 230.36 Q2154.83 232.976 2158.97 232.976 Q2160.83 232.976 2162.63 232.49 Q2164.46 231.981 2166.26 230.985 L2166.26 234.92 Q2164.48 235.754 2162.56 236.17 Q2160.66 236.587 2158.51 236.587 Q2152.65 236.587 2149.2 232.906 Q2145.76 229.226 2145.76 222.976 Q2145.76 216.633 2149.23 212.999 Q2152.72 209.365 2158.79 209.365 Q2160.76 209.365 2162.63 209.782 Q2164.51 210.175 2166.26 210.985 Z" fill="#000000" fill-rule="nonzero" fill-opacity="1" /><path clip-path="url(#clip190)" d="M2177.89 202.629 L2177.89 209.99 L2186.66 209.99 L2186.66 213.3 L2177.89 213.3 L2177.89 227.374 Q2177.89 230.545 2178.74 231.448 Q2179.62 232.351 2182.28 232.351 L2186.66 232.351 L2186.66 235.916 L2182.28 235.916 Q2177.35 235.916 2175.48 234.087 Q2173.6 232.235 2173.6 227.374 L2173.6 213.3 L2170.48 213.3 L2170.48 209.99 L2173.6 209.99 L2173.6 202.629 L2177.89 202.629 Z" fill="#000000" fill-rule="nonzero" fill-opacity="1" /><path clip-path="url(#clip190)" d="M2192.26 209.99 L2196.52 209.99 L2196.52 235.916 L2192.26 235.916 L2192.26 209.99 M2192.26 199.897 L2196.52 199.897 L2196.52 205.291 L2192.26 205.291 L2192.26 199.897 Z" fill="#000000" fill-rule="nonzero" fill-opacity="1" /><path clip-path="url(#clip190)" d="M2215.48 212.976 Q2212.05 212.976 2210.06 215.661 Q2208.07 218.323 2208.07 222.976 Q2208.07 227.629 2210.04 230.314 Q2212.03 232.976 2215.48 232.976 Q2218.88 232.976 2220.87 230.291 Q2222.86 227.606 2222.86 222.976 Q2222.86 218.37 2220.87 215.684 Q2218.88 212.976 2215.48 212.976 M2215.48 209.365 Q2221.03 209.365 2224.2 212.976 Q2227.38 216.587 2227.38 222.976 Q2227.38 229.342 2224.2 232.976 Q2221.03 236.587 2215.48 236.587 Q2209.9 236.587 2206.73 232.976 Q2203.58 229.342 2203.58 222.976 Q2203.58 216.587 2206.73 212.976 Q2209.9 209.365 2215.48 209.365 Z" fill="#000000" fill-rule="nonzero" fill-opacity="1" /><path clip-path="url(#clip190)" d="M2255.99 220.268 L2255.99 235.916 L2251.73 235.916 L2251.73 220.407 Q2251.73 216.726 2250.29 214.897 Q2248.86 213.069 2245.99 213.069 Q2242.54 213.069 2240.55 215.268 Q2238.56 217.467 2238.56 221.263 L2238.56 235.916 L2234.27 235.916 L2234.27 209.99 L2238.56 209.99 L2238.56 214.018 Q2240.08 211.68 2242.14 210.522 Q2244.23 209.365 2246.94 209.365 Q2251.4 209.365 2253.69 212.143 Q2255.99 214.897 2255.99 220.268 Z" fill="#000000" fill-rule="nonzero" fill-opacity="1" /><circle clip-path="url(#clip190)" cx="1774.98" cy="270.476" r="20.9455" fill="#e26f46" fill-rule="evenodd" fill-opacity="1" stroke="#000000" stroke-opacity="1" stroke-width="3.72364"/>
<path clip-path="url(#clip190)" d="M1887.77 256.367 Q1882.68 256.367 1879.67 260.163 Q1876.68 263.96 1876.68 270.51 Q1876.68 277.038 1879.67 280.834 Q1882.68 284.631 1887.77 284.631 Q1892.86 284.631 1895.83 280.834 Q1898.81 277.038 1898.81 270.51 Q1898.81 263.96 1895.83 260.163 Q1892.86 256.367 1887.77 256.367 M1887.77 252.571 Q1895.04 252.571 1899.39 257.455 Q1903.74 262.316 1903.74 270.51 Q1903.74 278.682 1899.39 283.566 Q1895.04 288.427 1887.77 288.427 Q1880.48 288.427 1876.1 283.566 Q1871.75 278.705 1871.75 270.51 Q1871.75 262.316 1876.1 257.455 Q1880.48 252.571 1887.77 252.571 Z" fill="#000000" fill-rule="nonzero" fill-opacity="1" /><path clip-path="url(#clip190)" d="M1929.48 274.816 Q1929.48 270.117 1927.54 267.455 Q1925.62 264.77 1922.24 264.77 Q1918.86 264.77 1916.91 267.455 Q1914.99 270.117 1914.99 274.816 Q1914.99 279.515 1916.91 282.2 Q1918.86 284.862 1922.24 284.862 Q1925.62 284.862 1927.54 282.2 Q1929.48 279.515 1929.48 274.816 M1914.99 265.765 Q1916.34 263.45 1918.37 262.339 Q1920.43 261.205 1923.28 261.205 Q1928 261.205 1930.94 264.955 Q1933.9 268.705 1933.9 274.816 Q1933.9 280.927 1930.94 284.677 Q1928 288.427 1923.28 288.427 Q1920.43 288.427 1918.37 287.316 Q1916.34 286.182 1914.99 283.867 L1914.99 287.756 L1910.71 287.756 L1910.71 251.737 L1914.99 251.737 L1914.99 265.765 Z" fill="#000000" fill-rule="nonzero" fill-opacity="1" /><path clip-path="url(#clip190)" d="M1957.49 262.594 L1957.49 266.622 Q1955.69 265.696 1953.74 265.233 Q1951.8 264.77 1949.72 264.77 Q1946.54 264.77 1944.95 265.742 Q1943.37 266.714 1943.37 268.659 Q1943.37 270.14 1944.51 270.997 Q1945.64 271.83 1949.07 272.594 L1950.53 272.918 Q1955.06 273.89 1956.96 275.672 Q1958.88 277.432 1958.88 280.603 Q1958.88 284.214 1956.01 286.321 Q1953.16 288.427 1948.16 288.427 Q1946.08 288.427 1943.81 288.01 Q1941.57 287.617 1939.07 286.807 L1939.07 282.409 Q1941.43 283.635 1943.72 284.26 Q1946.01 284.862 1948.26 284.862 Q1951.27 284.862 1952.89 283.844 Q1954.51 282.802 1954.51 280.927 Q1954.51 279.191 1953.33 278.265 Q1952.17 277.339 1948.21 276.483 L1946.73 276.135 Q1942.77 275.302 1941.01 273.589 Q1939.25 271.853 1939.25 268.844 Q1939.25 265.186 1941.84 263.196 Q1944.44 261.205 1949.21 261.205 Q1951.57 261.205 1953.65 261.552 Q1955.73 261.899 1957.49 262.594 Z" fill="#000000" fill-rule="nonzero" fill-opacity="1" /><path clip-path="url(#clip190)" d="M1987.84 273.728 L1987.84 275.811 L1968.26 275.811 Q1968.53 280.209 1970.9 282.524 Q1973.28 284.816 1977.52 284.816 Q1979.97 284.816 1982.26 284.214 Q1984.58 283.612 1986.84 282.409 L1986.84 286.436 Q1984.55 287.408 1982.15 287.918 Q1979.74 288.427 1977.26 288.427 Q1971.06 288.427 1967.42 284.816 Q1963.81 281.205 1963.81 275.047 Q1963.81 268.682 1967.24 264.955 Q1970.69 261.205 1976.52 261.205 Q1981.75 261.205 1984.78 264.585 Q1987.84 267.941 1987.84 273.728 M1983.58 272.478 Q1983.53 268.983 1981.61 266.899 Q1979.71 264.816 1976.57 264.816 Q1973 264.816 1970.85 266.83 Q1968.72 268.844 1968.4 272.501 L1983.58 272.478 Z" fill="#000000" fill-rule="nonzero" fill-opacity="1" /><path clip-path="url(#clip190)" d="M2009.85 265.811 Q2009.14 265.395 2008.28 265.21 Q2007.45 265.001 2006.43 265.001 Q2002.82 265.001 2000.87 267.362 Q1998.95 269.7 1998.95 274.098 L1998.95 287.756 L1994.67 287.756 L1994.67 261.83 L1998.95 261.83 L1998.95 265.858 Q2000.29 263.497 2002.45 262.362 Q2004.6 261.205 2007.68 261.205 Q2008.12 261.205 2008.65 261.274 Q2009.18 261.321 2009.83 261.436 L2009.85 265.811 Z" fill="#000000" fill-rule="nonzero" fill-opacity="1" /><path clip-path="url(#clip190)" d="M2011.27 261.83 L2015.78 261.83 L2023.88 283.589 L2031.98 261.83 L2036.5 261.83 L2026.77 287.756 L2020.99 287.756 L2011.27 261.83 Z" fill="#000000" fill-rule="nonzero" fill-opacity="1" /><path clip-path="url(#clip190)" d="M2064.55 273.728 L2064.55 275.811 L2044.97 275.811 Q2045.25 280.209 2047.61 282.524 Q2049.99 284.816 2054.23 284.816 Q2056.68 284.816 2058.97 284.214 Q2061.29 283.612 2063.56 282.409 L2063.56 286.436 Q2061.27 287.408 2058.86 287.918 Q2056.45 288.427 2053.97 288.427 Q2047.77 288.427 2044.14 284.816 Q2040.52 281.205 2040.52 275.047 Q2040.52 268.682 2043.95 264.955 Q2047.4 261.205 2053.23 261.205 Q2058.46 261.205 2061.5 264.585 Q2064.55 267.941 2064.55 273.728 M2060.29 272.478 Q2060.25 268.983 2058.33 266.899 Q2056.43 264.816 2053.28 264.816 Q2049.71 264.816 2047.56 266.83 Q2045.43 268.844 2045.11 272.501 L2060.29 272.478 Z" fill="#000000" fill-rule="nonzero" fill-opacity="1" /><path clip-path="url(#clip190)" d="M2088.6 265.765 L2088.6 251.737 L2092.86 251.737 L2092.86 287.756 L2088.6 287.756 L2088.6 283.867 Q2087.26 286.182 2085.2 287.316 Q2083.16 288.427 2080.29 288.427 Q2075.59 288.427 2072.63 284.677 Q2069.69 280.927 2069.69 274.816 Q2069.69 268.705 2072.63 264.955 Q2075.59 261.205 2080.29 261.205 Q2083.16 261.205 2085.2 262.339 Q2087.26 263.45 2088.6 265.765 M2074.09 274.816 Q2074.09 279.515 2076.01 282.2 Q2077.96 284.862 2081.33 284.862 Q2084.71 284.862 2086.66 282.2 Q2088.6 279.515 2088.6 274.816 Q2088.6 270.117 2086.66 267.455 Q2084.71 264.77 2081.33 264.77 Q2077.96 264.77 2076.01 267.455 Q2074.09 270.117 2074.09 274.816 Z" fill="#000000" fill-rule="nonzero" fill-opacity="1" /><path clip-path="url(#clip190)" d="M2121.57 257.038 L2121.57 283.913 L2127.21 283.913 Q2134.37 283.913 2137.68 280.672 Q2141.01 277.432 2141.01 270.441 Q2141.01 263.497 2137.68 260.279 Q2134.37 257.038 2127.21 257.038 L2121.57 257.038 M2116.89 253.196 L2126.5 253.196 Q2136.54 253.196 2141.24 257.386 Q2145.94 261.552 2145.94 270.441 Q2145.94 279.376 2141.22 283.566 Q2136.5 287.756 2126.5 287.756 L2116.89 287.756 L2116.89 253.196 Z" fill="#000000" fill-rule="nonzero" fill-opacity="1" /><path clip-path="url(#clip190)" d="M2164.99 274.723 Q2159.83 274.723 2157.84 275.904 Q2155.85 277.084 2155.85 279.932 Q2155.85 282.2 2157.33 283.543 Q2158.83 284.862 2161.4 284.862 Q2164.95 284.862 2167.07 282.362 Q2169.23 279.839 2169.23 275.672 L2169.23 274.723 L2164.99 274.723 M2173.49 272.964 L2173.49 287.756 L2169.23 287.756 L2169.23 283.821 Q2167.77 286.182 2165.59 287.316 Q2163.42 288.427 2160.27 288.427 Q2156.29 288.427 2153.93 286.205 Q2151.59 283.959 2151.59 280.209 Q2151.59 275.834 2154.51 273.612 Q2157.45 271.39 2163.26 271.39 L2169.23 271.39 L2169.23 270.973 Q2169.23 268.034 2167.28 266.436 Q2165.36 264.816 2161.87 264.816 Q2159.64 264.816 2157.54 265.348 Q2155.43 265.881 2153.49 266.946 L2153.49 263.01 Q2155.83 262.108 2158.02 261.668 Q2160.22 261.205 2162.31 261.205 Q2167.93 261.205 2170.71 264.122 Q2173.49 267.038 2173.49 272.964 Z" fill="#000000" fill-rule="nonzero" fill-opacity="1" /><path clip-path="url(#clip190)" d="M2186.47 254.469 L2186.47 261.83 L2195.25 261.83 L2195.25 265.14 L2186.47 265.14 L2186.47 279.214 Q2186.47 282.385 2187.33 283.288 Q2188.21 284.191 2190.87 284.191 L2195.25 284.191 L2195.25 287.756 L2190.87 287.756 Q2185.94 287.756 2184.07 285.927 Q2182.19 284.075 2182.19 279.214 L2182.19 265.14 L2179.07 265.14 L2179.07 261.83 L2182.19 261.83 L2182.19 254.469 L2186.47 254.469 Z" fill="#000000" fill-rule="nonzero" fill-opacity="1" /><path clip-path="url(#clip190)" d="M2212.63 274.723 Q2207.47 274.723 2205.48 275.904 Q2203.49 277.084 2203.49 279.932 Q2203.49 282.2 2204.97 283.543 Q2206.47 284.862 2209.04 284.862 Q2212.58 284.862 2214.71 282.362 Q2216.87 279.839 2216.87 275.672 L2216.87 274.723 L2212.63 274.723 M2221.13 272.964 L2221.13 287.756 L2216.87 287.756 L2216.87 283.821 Q2215.41 286.182 2213.23 287.316 Q2211.06 288.427 2207.91 288.427 Q2203.93 288.427 2201.57 286.205 Q2199.23 283.959 2199.23 280.209 Q2199.23 275.834 2202.14 273.612 Q2205.08 271.39 2210.89 271.39 L2216.87 271.39 L2216.87 270.973 Q2216.87 268.034 2214.92 266.436 Q2213 264.816 2209.51 264.816 Q2207.28 264.816 2205.18 265.348 Q2203.07 265.881 2201.13 266.946 L2201.13 263.01 Q2203.46 262.108 2205.66 261.668 Q2207.86 261.205 2209.95 261.205 Q2215.57 261.205 2218.35 264.122 Q2221.13 267.038 2221.13 272.964 Z" fill="#000000" fill-rule="nonzero" fill-opacity="1" /></svg>
