<?xml version="1.0" encoding="utf-8"?>
<svg xmlns="http://www.w3.org/2000/svg" xmlns:xlink="http://www.w3.org/1999/xlink" width="900" height="650" viewBox="0 0 3600 2600">
<defs>
  <clipPath id="clip190">
    <rect x="0" y="0" width="3600" height="2600"/>
  </clipPath>
</defs>
<path clip-path="url(#clip190)" d="M0 2600 L3600 2600 L3600 0 L0 0  Z" fill="#ffffff" fill-rule="evenodd" fill-opacity="1"/>
<defs>
  <clipPath id="clip191">
    <rect x="129" y="482" width="3439" height="107"/>
  </clipPath>
</defs>
<path clip-path="url(#clip190)" d="M124.177 2406.34 L3552.76 2406.34 L3552.76 47.2441 L124.177 47.2441  Z" fill="#ffffff" fill-rule="evenodd" fill-opacity="1"/>
<defs>
  <clipPath id="clip192">
    <rect x="124" y="47" width="3430" height="2360"/>
  </clipPath>
</defs>
<polyline clip-path="url(#clip192)" style="stroke:#000000; stroke-linecap:round; stroke-linejoin:round; stroke-width:2; stroke-opacity:0.15; fill:none" points="636.2,2406.34 636.2,47.2441 "/>
<polyline clip-path="url(#clip192)" style="stroke:#000000; stroke-linecap:round; stroke-linejoin:round; stroke-width:2; stroke-opacity:0.15; fill:none" points="1237.33,2406.34 1237.33,47.2441 "/>
<polyline clip-path="url(#clip192)" style="stroke:#000000; stroke-linecap:round; stroke-linejoin:round; stroke-width:2; stroke-opacity:0.15; fill:none" points="1838.47,2406.34 1838.47,47.2441 "/>
<polyline clip-path="url(#clip192)" style="stroke:#000000; stroke-linecap:round; stroke-linejoin:round; stroke-width:2; stroke-opacity:0.15; fill:none" points="2439.6,2406.34 2439.6,47.2441 "/>
<polyline clip-path="url(#clip192)" style="stroke:#000000; stroke-linecap:round; stroke-linejoin:round; stroke-width:2; stroke-opacity:0.15; fill:none" points="3040.73,2406.34 3040.73,47.2441 "/>
<polyline clip-path="url(#clip192)" style="stroke:#000000; stroke-linecap:round; stroke-linejoin:round; stroke-width:2; stroke-opacity:0.15; fill:none" points="124.177,2406.34 3552.76,2406.34 "/>
<polyline clip-path="url(#clip192)" style="stroke:#000000; stroke-linecap:round; stroke-linejoin:round; stroke-width:2; stroke-opacity:0.15; fill:none" points="124.177,1874.64 3552.76,1874.64 "/>
<polyline clip-path="url(#clip192)" style="stroke:#000000; stroke-linecap:round; stroke-linejoin:round; stroke-width:2; stroke-opacity:0.15; fill:none" points="124.177,1342.94 3552.76,1342.94 "/>
<polyline clip-path="url(#clip192)" style="stroke:#000000; stroke-linecap:round; stroke-linejoin:round; stroke-width:2; stroke-opacity:0.15; fill:none" points="124.177,811.237 3552.76,811.237 "/>
<polyline clip-path="url(#clip192)" style="stroke:#000000; stroke-linecap:round; stroke-linejoin:round; stroke-width:2; stroke-opacity:0.15; fill:none" points="124.177,279.536 3552.76,279.536 "/>
<polyline clip-path="url(#clip190)" style="stroke:#000000; stroke-linecap:round; stroke-linejoin:round; stroke-width:4; stroke-opacity:1; fill:none" points="124.177,2406.34 3552.76,2406.34 "/>
<polyline clip-path="url(#clip190)" style="stroke:#000000; stroke-linecap:round; stroke-linejoin:round; stroke-width:4; stroke-opacity:1; fill:none" points="636.2,2406.34 636.2,2387.44 "/>
<polyline clip-path="url(#clip190)" style="stroke:#000000; stroke-linecap:round; stroke-linejoin:round; stroke-width:4; stroke-opacity:1; fill:none" points="1237.33,2406.34 1237.33,2387.44 "/>
<polyline clip-path="url(#clip190)" style="stroke:#000000; stroke-linecap:round; stroke-linejoin:round; stroke-width:4; stroke-opacity:1; fill:none" points="1838.47,2406.34 1838.47,2387.44 "/>
<polyline clip-path="url(#clip190)" style="stroke:#000000; stroke-linecap:round; stroke-linejoin:round; stroke-width:4; stroke-opacity:1; fill:none" points="2439.6,2406.34 2439.6,2387.44 "/>
<polyline clip-path="url(#clip190)" style="stroke:#000000; stroke-linecap:round; stroke-linejoin:round; stroke-width:4; stroke-opacity:1; fill:none" points="3040.73,2406.34 3040.73,2387.44 "/>
<path clip-path="url(#clip190)" d="M605.1 2461.51 L634.776 2461.51 L634.776 2465.45 L605.1 2465.45 L605.1 2461.51 Z" fill="#000000" fill-rule="nonzero" fill-opacity="1" /><path clip-path="url(#clip190)" d="M657.716 2447.85 L645.91 2466.3 L657.716 2466.3 L657.716 2447.85 M656.489 2443.78 L662.368 2443.78 L662.368 2466.3 L667.299 2466.3 L667.299 2470.19 L662.368 2470.19 L662.368 2478.34 L657.716 2478.34 L657.716 2470.19 L642.114 2470.19 L642.114 2465.68 L656.489 2443.78 Z" fill="#000000" fill-rule="nonzero" fill-opacity="1" /><path clip-path="url(#clip190)" d="M1207.28 2461.51 L1236.95 2461.51 L1236.95 2465.45 L1207.28 2465.45 L1207.28 2461.51 Z" fill="#000000" fill-rule="nonzero" fill-opacity="1" /><path clip-path="url(#clip190)" d="M1251.07 2474.4 L1267.39 2474.4 L1267.39 2478.34 L1245.45 2478.34 L1245.45 2474.4 Q1248.11 2471.65 1252.69 2467.02 Q1257.3 2462.37 1258.48 2461.03 Q1260.72 2458.5 1261.6 2456.77 Q1262.51 2455.01 1262.51 2453.32 Q1262.51 2450.56 1260.56 2448.83 Q1258.64 2447.09 1255.54 2447.09 Q1253.34 2447.09 1250.89 2447.85 Q1248.46 2448.62 1245.68 2450.17 L1245.68 2445.45 Q1248.5 2444.31 1250.96 2443.73 Q1253.41 2443.15 1255.45 2443.15 Q1260.82 2443.15 1264.01 2445.84 Q1267.21 2448.53 1267.21 2453.02 Q1267.21 2455.15 1266.4 2457.07 Q1265.61 2458.96 1263.5 2461.56 Q1262.92 2462.23 1259.82 2465.45 Q1256.72 2468.64 1251.07 2474.4 Z" fill="#000000" fill-rule="nonzero" fill-opacity="1" /><path clip-path="url(#clip190)" d="M1838.47 2446.86 Q1834.86 2446.86 1833.03 2450.42 Q1831.22 2453.96 1831.22 2461.09 Q1831.22 2468.2 1833.03 2471.77 Q1834.86 2475.31 1838.47 2475.31 Q1842.1 2475.31 1843.91 2471.77 Q1845.74 2468.2 1845.74 2461.09 Q1845.74 2453.96 1843.91 2450.42 Q1842.1 2446.86 1838.47 2446.86 M1838.47 2443.15 Q1844.28 2443.15 1847.33 2447.76 Q1850.41 2452.34 1850.41 2461.09 Q1850.41 2469.82 1847.33 2474.43 Q1844.28 2479.01 1838.47 2479.01 Q1832.66 2479.01 1829.58 2474.43 Q1826.52 2469.82 1826.52 2461.09 Q1826.52 2452.34 1829.58 2447.76 Q1832.66 2443.15 1838.47 2443.15 Z" fill="#000000" fill-rule="nonzero" fill-opacity="1" /><path clip-path="url(#clip190)" d="M2434.25 2474.4 L2450.57 2474.4 L2450.57 2478.34 L2428.63 2478.34 L2428.63 2474.4 Q2431.29 2471.65 2435.87 2467.02 Q2440.48 2462.37 2441.66 2461.03 Q2443.91 2458.5 2444.79 2456.77 Q2445.69 2455.01 2445.69 2453.32 Q2445.69 2450.56 2443.74 2448.83 Q2441.82 2447.09 2438.72 2447.09 Q2436.52 2447.09 2434.07 2447.85 Q2431.64 2448.62 2428.86 2450.17 L2428.86 2445.45 Q2431.68 2444.31 2434.14 2443.73 Q2436.59 2443.15 2438.63 2443.15 Q2444 2443.15 2447.19 2445.84 Q2450.39 2448.53 2450.39 2453.02 Q2450.39 2455.15 2449.58 2457.07 Q2448.79 2458.96 2446.68 2461.56 Q2446.1 2462.23 2443 2465.45 Q2439.9 2468.64 2434.25 2474.4 Z" fill="#000000" fill-rule="nonzero" fill-opacity="1" /><path clip-path="url(#clip190)" d="M3043.74 2447.85 L3031.94 2466.3 L3043.74 2466.3 L3043.74 2447.85 M3042.52 2443.78 L3048.4 2443.78 L3048.4 2466.3 L3053.33 2466.3 L3053.33 2470.19 L3048.4 2470.19 L3048.4 2478.34 L3043.74 2478.34 L3043.74 2470.19 L3028.14 2470.19 L3028.14 2465.68 L3042.52 2443.78 Z" fill="#000000" fill-rule="nonzero" fill-opacity="1" /><path clip-path="url(#clip190)" d="M1821.18 2528.02 L1808.13 2563.86 L1834.27 2563.86 L1821.18 2528.02 M1799.41 2569.2 L1817.56 2521.68 L1824.84 2521.68 L1842.95 2569.2 L1799.41 2569.2 Z" fill="#000000" fill-rule="nonzero" fill-opacity="1" /><path clip-path="url(#clip190)" d="M1865.84 2551.28 Q1858.74 2551.28 1856 2552.91 Q1853.27 2554.53 1853.27 2558.45 Q1853.27 2561.56 1855.3 2563.41 Q1857.37 2565.23 1860.91 2565.23 Q1865.78 2565.23 1868.7 2561.79 Q1871.66 2558.32 1871.66 2552.59 L1871.66 2551.28 L1865.84 2551.28 M1877.52 2548.87 L1877.52 2569.2 L1871.66 2569.2 L1871.66 2563.79 Q1869.66 2567.04 1866.67 2568.6 Q1863.67 2570.13 1859.35 2570.13 Q1853.87 2570.13 1850.63 2567.07 Q1847.41 2563.98 1847.41 2558.83 Q1847.41 2552.81 1851.42 2549.76 Q1855.46 2546.7 1863.45 2546.7 L1871.66 2546.7 L1871.66 2546.13 Q1871.66 2542.09 1868.99 2539.89 Q1866.35 2537.66 1861.54 2537.66 Q1858.49 2537.66 1855.59 2538.39 Q1852.69 2539.13 1850.02 2540.59 L1850.02 2535.18 Q1853.23 2533.94 1856.26 2533.33 Q1859.28 2532.7 1862.15 2532.7 Q1869.88 2532.7 1873.7 2536.71 Q1877.52 2540.72 1877.52 2548.87 Z" fill="#000000" fill-rule="nonzero" fill-opacity="1" /><polyline clip-path="url(#clip190)" style="stroke:#000000; stroke-linecap:round; stroke-linejoin:round; stroke-width:4; stroke-opacity:1; fill:none" points="124.177,2406.34 124.177,47.2441 "/>
<polyline clip-path="url(#clip190)" style="stroke:#000000; stroke-linecap:round; stroke-linejoin:round; stroke-width:4; stroke-opacity:1; fill:none" points="124.177,2406.34 143.075,2406.34 "/>
<polyline clip-path="url(#clip190)" style="stroke:#000000; stroke-linecap:round; stroke-linejoin:round; stroke-width:4; stroke-opacity:1; fill:none" points="124.177,1874.64 143.075,1874.64 "/>
<polyline clip-path="url(#clip190)" style="stroke:#000000; stroke-linecap:round; stroke-linejoin:round; stroke-width:4; stroke-opacity:1; fill:none" points="124.177,1342.94 143.075,1342.94 "/>
<polyline clip-path="url(#clip190)" style="stroke:#000000; stroke-linecap:round; stroke-linejoin:round; stroke-width:4; stroke-opacity:1; fill:none" points="124.177,811.237 143.075,811.237 "/>
<polyline clip-path="url(#clip190)" style="stroke:#000000; stroke-linecap:round; stroke-linejoin:round; stroke-width:4; stroke-opacity:1; fill:none" points="124.177,279.536 143.075,279.536 "/>
<path clip-path="url(#clip190)" d="M58.2328 2392.14 Q54.6217 2392.14 52.793 2395.7 Q50.9875 2399.24 50.9875 2406.37 Q50.9875 2413.48 52.793 2417.05 Q54.6217 2420.59 58.2328 2420.59 Q61.867 2420.59 63.6726 2417.05 Q65.5013 2413.48 65.5013 2406.37 Q65.5013 2399.24 63.6726 2395.7 Q61.867 2392.14 58.2328 2392.14 M58.2328 2388.43 Q64.0429 2388.43 67.0985 2393.04 Q70.1772 2397.62 70.1772 2406.37 Q70.1772 2415.1 67.0985 2419.71 Q64.0429 2424.29 58.2328 2424.29 Q52.4226 2424.29 49.344 2419.71 Q46.2884 2415.1 46.2884 2406.37 Q46.2884 2397.62 49.344 2393.04 Q52.4226 2388.43 58.2328 2388.43 Z" fill="#000000" fill-rule="nonzero" fill-opacity="1" /><path clip-path="url(#clip190)" d="M50.2699 1887.98 L57.9087 1887.98 L57.9087 1861.62 L49.5986 1863.28 L49.5986 1859.03 L57.8624 1857.36 L62.5383 1857.36 L62.5383 1887.98 L70.1772 1887.98 L70.1772 1891.92 L50.2699 1891.92 L50.2699 1887.98 Z" fill="#000000" fill-rule="nonzero" fill-opacity="1" /><path clip-path="url(#clip190)" d="M53.8578 1356.28 L70.1772 1356.28 L70.1772 1360.22 L48.2328 1360.22 L48.2328 1356.28 Q50.8949 1353.53 55.4782 1348.9 Q60.0846 1344.25 61.2652 1342.9 Q63.5105 1340.38 64.3902 1338.64 Q65.2929 1336.88 65.2929 1335.2 Q65.2929 1332.44 63.3485 1330.7 Q61.4272 1328.97 58.3254 1328.97 Q56.1263 1328.97 53.6726 1329.73 Q51.2421 1330.5 48.4643 1332.05 L48.4643 1327.32 Q51.2884 1326.19 53.7421 1325.61 Q56.1958 1325.03 58.2328 1325.03 Q63.6031 1325.03 66.7976 1327.72 Q69.992 1330.4 69.992 1334.89 Q69.992 1337.02 69.1818 1338.94 Q68.3948 1340.84 66.2883 1343.44 Q65.7096 1344.11 62.6078 1347.32 Q59.5059 1350.52 53.8578 1356.28 Z" fill="#000000" fill-rule="nonzero" fill-opacity="1" /><path clip-path="url(#clip190)" d="M63.0476 809.883 Q66.404 810.601 68.279 812.869 Q70.1772 815.138 70.1772 818.471 Q70.1772 823.587 66.6587 826.388 Q63.1402 829.188 56.6587 829.188 Q54.4828 829.188 52.168 828.749 Q49.8764 828.332 47.4227 827.475 L47.4227 822.962 Q49.3671 824.096 51.6819 824.675 Q53.9967 825.253 56.5198 825.253 Q60.918 825.253 63.2096 823.517 Q65.5244 821.781 65.5244 818.471 Q65.5244 815.415 63.3717 813.702 Q61.242 811.966 57.4226 811.966 L53.3949 811.966 L53.3949 808.124 L57.6078 808.124 Q61.0569 808.124 62.8855 806.758 Q64.7142 805.369 64.7142 802.777 Q64.7142 800.114 62.8161 798.702 Q60.9411 797.267 57.4226 797.267 Q55.5013 797.267 53.3023 797.684 Q51.1032 798.101 48.4643 798.98 L48.4643 794.814 Q51.1264 794.073 53.4412 793.702 Q55.7791 793.332 57.8393 793.332 Q63.1633 793.332 66.2652 795.763 Q69.367 798.17 69.367 802.29 Q69.367 805.161 67.7235 807.151 Q66.08 809.119 63.0476 809.883 Z" fill="#000000" fill-rule="nonzero" fill-opacity="1" /><path clip-path="url(#clip190)" d="M60.5939 266.33 L48.7884 284.779 L60.5939 284.779 L60.5939 266.33 M59.367 262.256 L65.2466 262.256 L65.2466 284.779 L70.1772 284.779 L70.1772 288.668 L65.2466 288.668 L65.2466 296.816 L60.5939 296.816 L60.5939 288.668 L44.9921 288.668 L44.9921 284.154 L59.367 262.256 Z" fill="#000000" fill-rule="nonzero" fill-opacity="1" /><polyline clip-path="url(#clip192)" style="stroke:#008000; stroke-linecap:round; stroke-linejoin:round; stroke-width:8; stroke-opacity:1; fill:none" stroke-dasharray="32, 20" points="-3304.4,363.833 6981.33,363.833 "/>
<polyline clip-path="url(#clip192)" style="stroke:#ffa500; stroke-linecap:round; stroke-linejoin:round; stroke-width:6.4; stroke-opacity:0.75; fill:none" points="1703.86,-418.122 1838.47,2406.34 1973.07,-364.384 "/>
<polyline clip-path="url(#clip192)" style="stroke:#ffa500; stroke-linecap:round; stroke-linejoin:round; stroke-width:6.4; stroke-opacity:0.75; fill:none" points="1635.18,-62806.3 1838.47,2406.34 2041.75,-64775.2 "/>
<polyline clip-path="url(#clip192)" style="stroke:#ffa500; stroke-linecap:round; stroke-linejoin:round; stroke-width:6.4; stroke-opacity:0.75; fill:none" points="1132.48,-392.218 1367.81,455.631 1603.14,1766.04 1838.47,2406.34 2073.79,1952.56 2309.12,-648.888 "/>
<polyline clip-path="url(#clip192)" style="stroke:#ffa500; stroke-linecap:round; stroke-linejoin:round; stroke-width:6.4; stroke-opacity:0.75; fill:none" points="1682.62,19.0071 1704.88,551.609 1727.15,1058.9 1749.41,1517.16 1771.67,1900.01 1793.94,2183.38 1816.2,2352.37 1838.47,2406.34 1860.73,2359.22 1883,2228.29 1905.26,1985.43 1927.52,1674.16 1949.79,1343.22 1972.05,1023.15 1994.32,730.511 2016.58,472.75 2038.85,251.955 "/>
<polyline clip-path="url(#clip192)" style="stroke:#ffa500; stroke-linecap:round; stroke-linejoin:round; stroke-width:6.4; stroke-opacity:0.75; fill:none" points="1484.51,-33.7135 1661.49,1360.29 1838.47,2406.34 2015.44,924.912 2192.42,-963.175 "/>
<polyline clip-path="url(#clip192)" style="stroke:#ffa500; stroke-linecap:round; stroke-linejoin:round; stroke-width:6.4; stroke-opacity:0.75; fill:none" points="1595.93,-232.7 1717.2,1154.66 1838.47,2406.34 1959.74,1246.39 2081.01,-196.11 "/>
<polyline clip-path="url(#clip192)" style="stroke:#ffa500; stroke-linecap:round; stroke-linejoin:round; stroke-width:6.4; stroke-opacity:0.75; fill:none" points="1685.85,363.549 1688.79,427.739 1691.72,491.576 1694.66,555.036 1697.59,618.091 1700.53,680.706 1703.46,742.844 1706.4,804.485 1709.33,865.596 1712.26,926.138 1715.2,986.082 1718.13,1045.39 1721.07,1103.96 1724,1161.97 1726.94,1219.1 1729.87,1275.6 1732.81,1331.07 1735.74,1385.97 1738.68,1439.83 1741.61,1492.6 1744.55,1544.25 1747.48,1594.72 1750.42,1643.98 1753.35,1692 1756.29,1738.72 1759.22,1784.11 1762.16,1828.13 1765.09,1870.74 1768.03,1911.92 1770.96,1951.62 1773.9,1989.82 1776.83,2026.46 1779.77,2061.54 1782.7,2095.01 1785.64,2126.86 1788.57,2157.06 1791.51,2185.58 1794.44,2212.42 1797.38,2237.54 1800.31,2260.94 1803.25,2282.6 1806.18,2302.52 1809.12,2320.69 1812.05,2337.1 1814.99,2351.75 1817.92,2364.63 1820.86,2375.78 1823.79,2385.17 1826.73,2392.83 1829.66,2398.75 1832.6,2402.97 1835.53,2405.49 1838.47,2406.34 1841.4,2405.53 1844.34,2403.1 1847.27,2399.07 1850.21,2393.46 1853.14,2386.3 1856.08,2377.63 1859.01,2367.49 1861.95,2355.9 1864.88,2342.9 1867.82,2328.53 1870.75,2312.84 1873.69,2295.84 1876.62,2277.61 1879.56,2258.15 1882.49,2237.53 1885.43,2215.78 1888.36,2192.95 1891.3,2169.08 1894.23,2144.21 1897.16,2118.39 1900.1,2091.64 1903.03,2064.03 1905.97,2035.59 1908.9,2006.36 1911.84,1976.38 1914.77,1945.69 1917.71,1914.35 1920.64,1882.36 1923.58,1849.8 1926.51,1816.67 1929.45,1783.03 1932.38,1748.91 1935.32,1714.35 1938.25,1679.38 1941.19,1644.03 1944.12,1608.34 1947.06,1572.32 1949.99,1536.04 1952.93,1499.49 1955.86,1462.71 1958.8,1425.75 1961.73,1388.61 1964.67,1351.33 1967.6,1313.92 1970.54,1276.42 1973.47,1238.84 1976.41,1201.22 1979.34,1163.56 1982.28,1125.89 1985.21,1088.23 1988.15,1050.61 1991.08,1013.03 1994.02,975.502 1996.95,938.058 1999.89,900.714 2002.82,863.479 2005.76,826.367 2008.69,789.395 2011.63,752.58 2014.56,715.925 2017.5,679.436 2020.43,643.134 2023.37,607.034 2026.3,571.144 2029.24,535.469 2032.17,500.015 2035.11,464.802 2038.04,429.825 2040.98,395.101 2043.91,360.629 "/>
<polyline clip-path="url(#clip192)" style="stroke:#ffa500; stroke-linecap:round; stroke-linejoin:round; stroke-width:6.4; stroke-opacity:0.75; fill:none" points="1427.81,-178.286 1633.14,1392.38 1838.47,2406.34 2043.79,621.518 2249.12,-3881.01 "/>
<polyline clip-path="url(#clip192)" style="stroke:#ffa500; stroke-linecap:round; stroke-linejoin:round; stroke-width:6.4; stroke-opacity:0.75; fill:none" points="1640.79,-1056.73 1838.47,2406.34 2036.15,-2593.53 "/>
<polyline clip-path="url(#clip192)" style="stroke:#ffa500; stroke-linecap:round; stroke-linejoin:round; stroke-width:6.4; stroke-opacity:0.75; fill:none" points="1403.63,-2390.8 1548.57,1310.72 1693.52,1290.03 1838.47,2406.34 1983.41,65.2884 "/>
<polyline clip-path="url(#clip192)" style="stroke:#ffa500; stroke-linecap:round; stroke-linejoin:round; stroke-width:6.4; stroke-opacity:0.75; fill:none" points="1544.38,35.9485 1691.42,898.976 1838.47,2406.34 1985.51,1170.4 2132.55,-625.66 "/>
<polyline clip-path="url(#clip192)" style="stroke:#ffa500; stroke-linecap:round; stroke-linejoin:round; stroke-width:6.4; stroke-opacity:0.75; fill:none" points="1295.44,-965.729 1566.95,1058.06 1838.47,2406.34 2109.98,-560.089 "/>
<polyline clip-path="url(#clip192)" style="stroke:#ffa500; stroke-linecap:round; stroke-linejoin:round; stroke-width:6.4; stroke-opacity:0.75; fill:none" points="1702.85,-5741.73 1838.47,2406.34 1974.09,-11928.4 "/>
<polyline clip-path="url(#clip192)" style="stroke:#ffa500; stroke-linecap:round; stroke-linejoin:round; stroke-width:6.4; stroke-opacity:0.75; fill:none" points="1780.33,-77.7229 1809.4,1671.4 1838.47,2406.34 1867.53,1851.49 1896.6,753.432 1925.67,-332.096 "/>
<polyline clip-path="url(#clip192)" style="stroke:#ffa500; stroke-linecap:round; stroke-linejoin:round; stroke-width:6.4; stroke-opacity:0.75; fill:none" points="1085.39,-345.022 1336.42,396.055 1587.44,1581.03 1838.47,2406.34 2089.49,2316.94 2340.52,1359.27 2591.54,-2551.76 "/>
<polyline clip-path="url(#clip192)" style="stroke:#ffa500; stroke-linecap:round; stroke-linejoin:round; stroke-width:6.4; stroke-opacity:0.75; fill:none" points="1295.02,-392.574 1476.17,388.451 1657.32,1560.08 1838.47,2406.34 2019.62,1090.43 2200.77,-1165.98 "/>
<polyline clip-path="url(#clip192)" style="stroke:#ffa500; stroke-linecap:round; stroke-linejoin:round; stroke-width:6.4; stroke-opacity:0.75; fill:none" points="1346.31,-583.417 1469.35,609.753 1592.39,1668.87 1715.43,2252.21 1838.47,2406.34 1961.5,2238.3 2084.54,1559.89 2207.58,371.144 2330.62,-798.238 "/>
<polyline clip-path="url(#clip192)" style="stroke:#ffa500; stroke-linecap:round; stroke-linejoin:round; stroke-width:6.4; stroke-opacity:0.75; fill:none" points="1590.34,-8162.21 1838.47,2406.34 2086.59,-4995.45 "/>
<polyline clip-path="url(#clip192)" style="stroke:#ffa500; stroke-linecap:round; stroke-linejoin:round; stroke-width:6.4; stroke-opacity:0.75; fill:none" points="1577.27,-7941.35 1838.47,2406.34 2099.66,-10065.6 "/>
<polyline clip-path="url(#clip192)" style="stroke:#ffa500; stroke-linecap:round; stroke-linejoin:round; stroke-width:6.4; stroke-opacity:0.75; fill:none" points="1602.95,-372.972 1838.47,2406.34 2073.98,2404.93 2309.49,1229.84 2545,-1683.7 "/>
<polyline clip-path="url(#clip192)" style="stroke:#ffa500; stroke-linecap:round; stroke-linejoin:round; stroke-width:6.4; stroke-opacity:0.75; fill:none" points="1342.49,-787.681 1507.81,2860.87 1673.14,1424.92 1838.47,2406.34 2003.79,-205.587 "/>
<polyline clip-path="url(#clip192)" style="stroke:#1e90ff; stroke-linecap:round; stroke-linejoin:round; stroke-width:6.4; stroke-opacity:0.75; fill:none" points="1337.71,-783.029 1504.63,394.19 1671.55,1762.99 1838.47,2406.34 2005.38,1892.19 2172.3,1107.47 2339.22,770.314 2506.14,724.122 2673.05,722.754 2839.97,722.059 3006.89,721.43 3173.8,720.981 3340.72,720.717 3365.13,720.684 "/>
<polyline clip-path="url(#clip192)" style="stroke:#1e90ff; stroke-linecap:round; stroke-linejoin:round; stroke-width:6.4; stroke-opacity:0.75; fill:none" points="1015.1,971.601 1086.74,1452.68 1337.32,2271.46 1587.89,2344.27 1838.47,2406.34 2089.04,2196.24 2339.62,918.933 2590.19,-523.471 "/>
<polyline clip-path="url(#clip192)" style="stroke:#1e90ff; stroke-linecap:round; stroke-linejoin:round; stroke-width:6.4; stroke-opacity:0.75; fill:none" points="731.138,-697.545 869.554,1116.44 1007.97,2290.53 1146.39,2379.24 1284.8,2322.21 1423.22,2343.13 1561.63,2373.31 1700.05,2393.52 1838.47,2406.34 1838.47,2406.34 "/>
<polyline clip-path="url(#clip192)" style="stroke:#1e90ff; stroke-linecap:round; stroke-linejoin:round; stroke-width:6.4; stroke-opacity:0.75; fill:none" points="948.852,363.211 953.661,373.047 958.47,383.468 963.279,394.441 968.087,405.935 972.896,417.906 977.705,430.334 982.514,443.168 987.322,456.362 992.131,469.888 996.94,483.68 1001.75,497.723 1006.56,511.944 1011.37,526.305 1016.17,540.758 1020.98,555.255 1025.79,569.749 1030.6,584.193 1035.41,598.542 1040.22,612.754 1045.03,626.788 1049.84,640.608 1054.64,654.178 1059.45,667.47 1064.26,680.454 1069.07,693.106 1073.88,705.402 1078.69,717.322 1083.5,728.842 1088.31,739.942 1093.11,750.599 1097.92,760.79 1102.73,770.494 1107.54,779.687 1112.35,788.345 1117.16,796.443 1121.97,803.962 1126.78,810.875 1131.58,817.161 1136.39,822.797 1141.2,827.764 1146.01,832.041 1150.82,835.61 1155.63,838.452 1160.44,840.553 1165.25,841.554 1170.05,842.172 1174.86,842.025 1179.67,841.113 1184.48,839.451 1189.29,837.043 1194.1,833.891 1198.91,829.992 1203.71,825.351 1208.52,819.966 1213.33,813.842 1218.14,806.983 1222.95,799.392 1227.76,791.054 1232.57,782.032 1237.38,367.433 1242.18,398.768 1246.99,430.815 1251.8,463.372 1256.61,496.331 1261.42,529.626 1266.23,563.21 1271.04,597.045 1275.85,631.098 1280.65,665.342 1285.46,699.752 1290.27,734.301 1295.08,768.973 1299.89,803.737 1304.7,838.575 1309.51,873.464 1314.32,908.382 1319.12,943.307 1323.93,978.215 1328.74,1013.08 1333.55,1047.89 1338.36,1082.61 1343.17,1117.23 1347.98,1151.7 1352.79,1186.03 1357.59,1220.17 1362.4,1254.1 1367.21,1287.81 1372.02,1321.26 1376.83,1354.43 1381.64,1387.29 1386.45,1419.83 1391.26,1452.02 1396.06,1483.82 1400.87,1515.23 1405.68,1546.22 1410.49,1576.76 1415.3,1606.83 1420.11,1636.42 1424.92,1665.49 1429.72,1694.04 1434.53,1722.04 1439.34,1749.47 1444.15,1776.33 1448.96,1802.58 1453.77,1828.23 1458.58,1853.24 1463.39,1877.63 1468.19,1901.37 1473,1924.46 1477.81,1946.88 1482.62,1968.64 1487.43,1989.73 1492.24,2010.14 1497.05,2029.88 1501.86,2048.95 1506.66,2067.34 1511.47,2085.07 1516.28,2102.14 1521.09,2118.55 1525.9,2134.31 1530.71,2149.43 1535.52,2163.92 1540.33,2177.79 1545.13,2191.06 1549.94,2203.73 1554.75,2215.83 1559.56,2227.36 1564.37,2238.34 1569.18,2248.79 1573.99,2258.72 1578.8,2268.14 1583.6,2277.09 1588.41,2285.57 1593.22,2293.59 1598.03,2301.18 1602.84,2308.36 1607.65,2315.14 1612.46,2321.53 1617.27,2327.56 1622.07,2333.23 1626.88,2338.57 1631.69,2343.59 1636.5,2348.31 1641.31,2352.73 1646.12,2356.88 1650.93,2360.77 1655.74,2364.41 1660.54,2367.81 1665.35,2370.99 1670.16,2373.96 1674.97,2376.72 1679.78,2379.3 1684.59,2381.7 1689.4,2383.92 1694.2,2385.99 1699.01,2387.91 1703.82,2389.69 1708.63,2391.33 1713.44,2392.84 1718.25,2394.24 1723.06,2395.53 1727.87,2396.71 1732.67,2397.8 1737.48,2398.79 1742.29,2399.69 1747.1,2400.53 1751.91,2401.27 1756.72,2401.96 1761.53,2402.57 1766.34,2403.13 1771.14,2403.62 1775.95,2404.07 1780.76,2404.46 1785.57,2404.8 1790.38,2405.11 1795.19,2405.37 1800,2405.59 1804.81,2405.78 1809.61,2405.94 1814.42,2406.07 1819.23,2406.17 1824.04,2406.24 1828.85,2406.3 1833.66,2406.33 1838.47,2406.34 1843.28,2406.33 1848.08,2406.3 1852.89,2406.27 1857.7,2406.21 1862.51,2406.14 1867.32,2406.07 1872.13,2405.97 1876.94,2405.88 1881.75,2405.77 1886.55,2405.65 1891.36,2405.53 1896.17,2405.41 1900.98,2405.27 1905.79,2405.14 1910.6,2404.99 1915.41,2404.84 1920.21,2404.7 1925.02,2404.54 1929.83,2404.39 1934.64,2404.23 1939.45,2404.08 1944.26,2403.91 1949.07,2403.76 1953.88,2403.6 1958.68,2403.44 1963.49,2403.28 1968.3,2403.13 1973.11,2402.97 1977.92,2402.81 1982.73,2402.65 1987.54,2402.5 1992.35,2402.35 1997.15,2402.19 2001.96,2402.04 2006.77,2401.9 2011.58,2401.74 2016.39,2401.6 2021.2,2401.46 2026.01,2401.32 2030.82,2401.18 2035.62,2401.05 2040.43,2400.91 2045.24,2400.78 2050.05,2400.65 2054.86,2400.52 2059.67,2400.41 2064.48,2400.27 2069.29,2400.16 2074.09,2400.04 2078.9,2399.93 2083.71,2399.81 2088.52,2399.71 2093.33,2399.59 2098.14,2399.49 2102.95,2399.39 2107.76,2399.3 2112.56,2399.19 2117.37,2399.1 2122.18,2399 2126.99,2398.92 2131.8,2398.83 2136.61,2398.75 2141.42,2398.67 2146.22,2398.59 2151.03,2398.5 2155.84,2398.43 2160.65,2398.35 2165.46,2398.28 2170.27,2398.21 2175.08,2398.15 2179.89,2398.09 2184.69,2398.02 2189.5,2397.96 2194.31,2397.9 2199.12,2397.85 2203.93,2397.79 2208.74,2397.74 2213.55,2397.68 2218.36,2397.63 2223.16,2397.59 2227.97,2397.54 2232.78,2397.5 2237.59,2397.46 2242.4,2397.41 2247.21,2397.37 2252.02,2397.33 2256.83,2397.3 2261.63,2397.27 2266.44,2397.24 2271.25,2397.2 2276.06,2397.17 2280.87,2397.14 2285.68,2397.1 2290.49,2397.09 2295.3,2397.06 2300.1,2397.03 2304.91,2397.01 2309.72,2396.99 2314.53,2396.97 2319.34,2396.94 2324.15,2396.93 2328.96,2396.91 2333.77,2396.88 2338.57,2396.88 2343.38,2396.86 2348.19,2396.85 2353,2396.83 2357.81,2396.82 2362.62,2396.8 2367.43,2396.79 2372.23,2396.78 2377.04,2396.77 2381.85,2396.76 2386.66,2396.75 2391.47,2396.73 2396.28,2396.73 2401.09,2396.72 2405.9,2396.71 2410.7,2396.71 2415.51,2396.7 2420.32,2396.7 2425.13,2396.69 2429.94,2396.68 2434.75,2396.67 2439.56,2396.66 2444.37,2396.66 2449.17,2396.66 2453.98,2396.65 2458.79,2396.65 2463.6,2396.65 2468.41,2396.65 2473.22,2396.63 2478.03,2396.64 2482.84,2396.64 2487.64,2396.64 2492.45,2396.63 2497.26,2396.63 2502.07,2396.63 2506.88,2396.62 2511.69,2396.62 2516.5,2396.62 2521.31,2396.62 2526.11,2396.62 2530.92,2396.61 2535.73,2396.61 2540.54,2396.61 2545.35,2396.62 2550.16,2396.61 2554.59,2396.61 "/>
<polyline clip-path="url(#clip192)" style="stroke:#1e90ff; stroke-linecap:round; stroke-linejoin:round; stroke-width:6.4; stroke-opacity:0.75; fill:none" points="1688.24,-820.556 1838.47,2406.34 1988.69,1494.33 2138.91,898.707 2289.14,765.925 2439.36,753.125 2589.58,756.404 2739.81,761.591 2890.03,765.686 3040.25,768.685 3190.48,770.624 3281.66,771.277 "/>
<polyline clip-path="url(#clip192)" style="stroke:#1e90ff; stroke-linecap:round; stroke-linejoin:round; stroke-width:6.4; stroke-opacity:0.75; fill:none" points="1193.96,-1348.25 1301.38,425.72 1408.8,2192.23 1516.21,2194.5 1623.63,2462.9 1731.05,2517 1838.47,2406.34 1945.88,2440.12 1993.46,2442.27 "/>
<polyline clip-path="url(#clip192)" style="stroke:#1e90ff; stroke-linecap:round; stroke-linejoin:round; stroke-width:6.4; stroke-opacity:0.75; fill:none" points="93.8043,221.656 151.96,391.085 210.115,560.988 268.271,729.632 326.426,894.713 384.581,1056.46 442.737,1211.59 500.892,1359.52 559.048,1499.45 617.203,1630.79 675.358,1753.4 733.514,1867.32 791.669,1972.76 849.825,2070.13 907.98,2159.8 966.135,2234.65 1024.29,2288.21 1082.45,2322.01 1140.6,2337.2 1198.76,2340.38 1256.91,2343.27 1315.07,2346.69 1373.22,2351.38 1431.38,2357.94 1489.53,2366.41 1547.69,2376.06 1605.84,2385.73 1664,2394.26 1722.16,2400.83 1780.31,2404.94 1838.47,2406.34 1896.62,2404.94 1954.78,2400.9 2012.93,2394.69 2071.09,2387.1 2129.24,2379.04 2187.4,2371.33 2245.55,2364.43 2303.71,2358.54 2361.87,2353.6 2420.02,2349.49 2478.18,2346.09 2536.33,2343.28 2594.49,2340.96 2652.64,2339.03 2710.8,2337.45 2768.95,2336.13 2821.32,2335.15 "/>
<polyline clip-path="url(#clip192)" style="stroke:#1e90ff; stroke-linecap:round; stroke-linejoin:round; stroke-width:6.4; stroke-opacity:0.75; fill:none" points="1680.14,-2377.62 1838.47,2406.34 1996.79,2131.58 2155.12,2574.68 2313.44,2857.78 2471.77,2943.45 2630.09,2984.43 2788.42,3008.5 2946.75,3022.76 "/>
<polyline clip-path="url(#clip192)" style="stroke:#1e90ff; stroke-linecap:round; stroke-linejoin:round; stroke-width:6.4; stroke-opacity:0.75; fill:none" points="1115.55,169.179 1171.16,367.603 1226.77,578.642 1282.38,807.069 1337.98,1052.77 1393.59,1311.87 1449.2,1573.17 1504.81,1820.55 1560.42,2035.34 1616.03,2201.85 1671.64,2313.35 1727.25,2374.97 1782.86,2400.69 1838.47,2406.34 1894.08,2403.6 1949.68,2398.59 2005.29,2393.56 2060.9,2389.1 2116.51,2385.29 2172.12,2382.08 2227.73,2379.4 2283.34,2377.14 2338.95,2375.27 2394.56,2373.72 2450.17,2372.42 2505.78,2371.31 2561.39,2370.35 2616.99,2369.66 2672.6,2369.02 2728.21,2368.5 2783.82,2368.06 2808.59,2367.88 "/>
<polyline clip-path="url(#clip192)" style="stroke:#1e90ff; stroke-linecap:round; stroke-linejoin:round; stroke-width:6.4; stroke-opacity:0.75; fill:none" points="315.889,122.746 454.306,1123.16 592.722,1902.58 731.138,2266.8 869.554,2376.03 1007.97,2399.9 1146.39,2404.7 1284.8,2405.82 1423.22,2406.15 1561.63,2406.27 1700.05,2406.31 1838.47,2406.34 1838.47,2406.34 "/>
<polyline clip-path="url(#clip192)" style="stroke:#1e90ff; stroke-linecap:round; stroke-linejoin:round; stroke-width:6.4; stroke-opacity:0.75; fill:none" points="717.732,96.7566 779.995,388.322 842.258,792.339 904.521,1235.57 966.784,1644.24 1029.05,1965.25 1091.31,2179.99 1153.57,2301.5 1215.84,2359.2 1278.1,2382.5 1340.36,2391.31 1402.63,2395.39 1464.89,2398.08 1527.15,2400.23 1589.41,2401.97 1651.68,2403.41 1713.94,2404.58 1776.2,2405.55 1838.47,2406.34 1900.73,2406.98 1962.99,2407.52 2025.26,2407.94 2087.52,2408.3 2149.78,2408.58 2212.04,2408.83 2219.23,2408.83 "/>
<polyline clip-path="url(#clip192)" style="stroke:#1e90ff; stroke-linecap:round; stroke-linejoin:round; stroke-width:6.4; stroke-opacity:0.75; fill:none" points="1146.43,322.323 1284.83,626.507 1423.24,1078.44 1561.65,1683.51 1700.06,2258 1838.47,2406.34 1976.87,2395.55 2115.28,2394.39 2253.69,2394.91 2392.1,2394.08 2530.51,2392.72 2668.91,2391.45 2807.32,2390.45 2945.73,2389.74 3084.14,2389.25 3222.55,2388.94 3222.59,2388.94 "/>
<polyline clip-path="url(#clip192)" style="stroke:#1e90ff; stroke-linecap:round; stroke-linejoin:round; stroke-width:6.4; stroke-opacity:0.75; fill:none" points="1838.47,2406.34 1838.47,2406.34 2169.04,295.043 "/>
<polyline clip-path="url(#clip192)" style="stroke:#1e90ff; stroke-linecap:round; stroke-linejoin:round; stroke-width:6.4; stroke-opacity:0.75; fill:none" points="1341.15,-1065.34 1506.92,368.494 1672.7,1828.98 1838.47,2406.34 2004.24,2022.95 2170.01,1473.11 2335.78,1258.34 2501.55,1220.79 2667.32,1207.29 2833.1,1199.26 2998.87,1194.52 3164.64,1191.73 3330.41,1190.13 3359.4,1189.92 "/>
<polyline clip-path="url(#clip192)" style="stroke:#1e90ff; stroke-linecap:round; stroke-linejoin:round; stroke-width:6.4; stroke-opacity:0.75; fill:none" points="1478.19,-1766.34 1658.33,1384.91 1838.47,2406.34 2018.6,1953.71 2198.74,1419.95 2378.88,1173.95 2559.02,1100.08 2739.15,1082.17 2919.29,1077.71 3099.43,1076.48 3279.57,1076.1 3431.23,1075.98 "/>
<polyline clip-path="url(#clip192)" style="stroke:#1e90ff; stroke-linecap:round; stroke-linejoin:round; stroke-width:6.4; stroke-opacity:0.75; fill:none" points="575.191,-372.291 700.314,1481.88 862.907,2043.19 1025.5,1845.03 1188.09,1479.44 1350.69,1029.55 1513.28,960.383 1675.87,1691.09 1838.47,2406.34 2001.06,1293.48 2163.65,-72.8162 "/>
<polyline clip-path="url(#clip192)" style="stroke:#1e90ff; stroke-linecap:round; stroke-linejoin:round; stroke-width:6.4; stroke-opacity:0.75; fill:none" points="1709.08,-610.656 1838.47,2406.34 "/>
<polyline clip-path="url(#clip192)" style="stroke:#1e90ff; stroke-linecap:round; stroke-linejoin:round; stroke-width:6.4; stroke-opacity:0.75; fill:none" points="836.472,-902.041 913.548,513.586 990.625,1920.85 1067.7,2404.56 1144.78,2093.66 1221.85,1715.04 1298.93,1701.01 1376.01,2046 1453.08,2333.59 1530.16,2402.11 1607.24,2405.5 1684.31,2406.14 1761.39,2406.3 1838.47,2406.34 1915.54,2406.32 1992.62,2406.28 2069.7,2406.23 2146.77,2406.19 2223.85,2406.16 2300.93,2406.13 2378,2406.12 2455.08,2406.1 2532.16,2406.08 2609.23,2406.07 2686.31,2406.06 2763.38,2406.06 2840.46,2406.05 2915.93,2406.04 "/>
<polyline clip-path="url(#clip192)" style="stroke:#cd1076; stroke-linecap:round; stroke-linejoin:round; stroke-width:6.4; stroke-opacity:0.75; fill:none" points="1620.85,2318.96 1693.39,2376.35 1765.93,2400.78 1838.47,2406.34 1911,2403.57 1983.54,2398.6 2056.08,2393.9 2128.62,2390.01 2201.16,2386.9 2273.7,2384.43 2346.23,2382.46 2418.77,2380.91 2491.31,2379.68 2563.85,2378.71 2636.39,2377.93 2708.92,2377.33 2781.46,2376.86 2854,2376.48 2893.24,2376.31 "/>
<polyline clip-path="url(#clip192)" style="stroke:#cd1076; stroke-linecap:round; stroke-linejoin:round; stroke-width:6.4; stroke-opacity:0.75; fill:none" points="814.949,1845.83 996.288,2122.33 1206.83,2180.4 1417.38,2250.04 1627.92,2346.09 1838.47,2406.34 2049.01,2354.53 2259.56,2311.36 2470.1,2222.97 2680.65,2116.84 2891.19,2043.1 3101.73,2001.09 3312.28,1978.93 3522.82,1967.44 3583.27,1965.56 "/>
<polyline clip-path="url(#clip192)" style="stroke:#cd1076; stroke-linecap:round; stroke-linejoin:round; stroke-width:6.4; stroke-opacity:0.75; fill:none" points="738.993,-4321.66 861.698,903.45 1057.05,1678.8 1252.41,1827.32 1447.76,1812.56 1643.11,2131.14 1838.47,2406.34 2033.82,2190.4 2229.17,1655.45 2424.53,1115.66 2619.88,1180.76 2815.23,1230.5 "/>
<polyline clip-path="url(#clip192)" style="stroke:#cd1076; stroke-linecap:round; stroke-linejoin:round; stroke-width:6.4; stroke-opacity:0.75; fill:none" points="914.542,2322.61 916.613,2322.69 1147.08,2331.51 1377.54,2352.76 1608,2383.45 1838.47,2406.34 2068.93,2352.19 2299.39,2086.78 2529.86,1769.79 2760.32,1692.45 2990.78,1683.85 3221.25,1680.58 3451.71,1679.08 3682.17,1678.39 3682.86,1678.39 "/>
<polyline clip-path="url(#clip192)" style="stroke:#cd1076; stroke-linecap:round; stroke-linejoin:round; stroke-width:6.4; stroke-opacity:0.75; fill:none" points="25.5567,1027.85 47.811,1105.66 100.477,1275.74 153.144,1424.28 205.81,1550.46 258.476,1654.86 311.143,1739.19 363.809,1805.97 416.475,1858.17 469.142,1898.96 521.808,1931.5 574.474,1958.73 627.141,1983.26 679.807,2007.26 732.473,2032.36 785.14,2059.48 837.806,2089.91 890.472,2123.06 943.139,2159.08 995.805,2196.63 1048.47,2234.6 1101.14,2270.77 1153.8,2301.41 1206.47,2322.99 1259.14,2338.07 1311.8,2350.55 1364.47,2361.1 1417.14,2370.09 1469.8,2377.83 1522.47,2384.58 1575.13,2390.54 1627.8,2395.73 1680.47,2400.1 1733.13,2403.47 1785.8,2405.61 1838.47,2406.34 1891.13,2405.63 1943.8,2403.68 1996.47,2400.91 2049.13,2397.87 2101.8,2395.09 2154.46,2392.89 2207.13,2391.39 2259.8,2390.51 2312.46,2390.05 2365.13,2389.84 2417.8,2389.74 2470.46,2389.68 2523.13,2389.61 2575.8,2389.59 2628.46,2389.58 2681.13,2389.56 2733.79,2389.54 2786.46,2389.52 2793.88,2389.52 "/>
<polyline clip-path="url(#clip192)" style="stroke:#cd1076; stroke-linecap:round; stroke-linejoin:round; stroke-width:6.4; stroke-opacity:0.75; fill:none" points="1700.05,2403.32 1838.47,2406.34 1838.47,2406.34 "/>
<polyline clip-path="url(#clip192)" style="stroke:#cd1076; stroke-linecap:round; stroke-linejoin:round; stroke-width:6.4; stroke-opacity:0.75; fill:none" points="-929.61,1199.97 -928.875,1200.71 -790.508,1367.34 -652.141,1598.65 -513.774,1876.49 -375.407,2093.81 -237.04,2018.19 -98.6726,1582.61 39.6945,1269.68 178.062,1508.78 316.429,1995.72 454.796,2147.47 593.163,2262 731.53,2351.48 869.897,2389.5 1008.26,2401.17 1146.63,2404.54 1285,2405.61 1423.37,2406.03 1561.73,2406.21 1700.1,2406.29 1838.47,2406.34 1838.71,2406.34 "/>
<polyline clip-path="url(#clip192)" style="stroke:#cd1076; stroke-linecap:round; stroke-linejoin:round; stroke-width:6.4; stroke-opacity:0.75; fill:none" points="1499.66,426.076 1584.36,1352.39 1669.06,2013.01 1753.76,2334.37 1838.47,2406.34 1923.17,2377.78 2007.87,2335.74 2092.57,2302.27 2177.28,2277.47 2261.98,2259.12 2346.68,2245.48 2431.38,2235.25 2516.08,2227.56 2600.79,2221.77 2685.49,2217.39 2770.19,2214.09 2854.89,2211.59 2939.6,2209.71 2954.06,2209.44 "/>
<polyline clip-path="url(#clip192)" style="stroke:#cd1076; stroke-linecap:round; stroke-linejoin:round; stroke-width:6.4; stroke-opacity:0.75; fill:none" points="1677.02,1104.96 1838.47,2406.34 1999.91,633.78 2161.36,2101.54 2322.8,2228 2484.25,2423.92 2645.7,2456.57 2807.14,2473.94 2968.59,2479.62 3130.03,2481.86 3291.48,2488.48 3337.78,2488.7 "/>
<polyline clip-path="url(#clip192)" style="stroke:#cd1076; stroke-linecap:round; stroke-linejoin:round; stroke-width:6.4; stroke-opacity:0.75; fill:none" points="582.037,1041.29 608.769,1400.66 635.502,1729.71 662.234,1989.88 688.967,2138.77 715.699,2146.63 742.432,2014.1 769.165,1775.42 795.897,1483.04 822.63,1187.38 849.362,924.85 876.095,715.849 902.827,568.403 929.56,482.956 956.292,456.142 983.025,482.987 1009.76,557.894 1036.49,674.88 1063.22,827.399 1089.96,1007.96 1116.69,1207.7 1143.42,1416.04 1170.15,1620.65 1196.89,1808.02 1223.62,1964.71 1250.35,2079.35 1277.08,2093.78 1303.82,2181.5 1330.55,2223 1357.28,2257.25 1384.01,2287.62 1410.75,2313.85 1437.48,2335.9 1464.21,2353.96 1490.94,2368.32 1517.68,2379.45 1544.41,2387.81 1571.14,2393.92 1597.87,2398.26 1624.61,2401.24 1651.34,2403.24 1678.07,2404.53 1704.8,2405.35 1731.54,2405.84 1758.27,2406.11 1785,2406.26 1811.73,2406.32 1838.47,2406.34 1865.2,2406.33 1891.93,2406.3 1918.66,2406.26 1945.4,2406.23 1972.13,2406.19 1998.86,2406.14 2025.59,2406.11 2052.33,2406.08 2079.06,2406.05 2105.79,2406.02 2132.52,2406 2159.26,2405.97 2185.99,2405.95 2212.72,2405.92 2239.45,2405.91 2266.19,2405.89 2292.92,2405.88 2319.65,2405.87 2346.38,2405.85 2373.12,2405.84 2399.85,2405.83 2426.58,2405.81 2453.32,2405.8 2480.05,2405.79 2506.78,2405.79 2533.51,2405.79 2560.25,2405.77 2586.98,2405.76 2613.71,2405.76 2640.44,2405.75 2664.21,2405.76 "/>
<polyline clip-path="url(#clip192)" style="stroke:#cd1076; stroke-linecap:round; stroke-linejoin:round; stroke-width:6.4; stroke-opacity:0.75; fill:none" points="690.395,2386.43 724.662,2386.6 910.296,2387.92 1095.93,2390.17 1281.56,2393.75 1467.2,2398.73 1652.83,2403.74 1838.47,2406.34 2024.1,2403.8 2209.73,2398.19 2395.37,2392.78 2581,2388.96 2766.64,2386.61 2952.27,2385.26 3137.9,2384.5 3323.54,2384.08 3458.72,2383.92 "/>
<polyline clip-path="url(#clip192)" style="stroke:#cd1076; stroke-linecap:round; stroke-linejoin:round; stroke-width:6.4; stroke-opacity:0.75; fill:none" points="502.416,595.683 506.123,596.412 654.162,634.041 802.2,694.694 950.238,791.444 1098.28,942.908 1246.31,1172.03 1394.35,1496.42 1542.39,1897.46 1690.43,2263.26 1838.47,2406.34 1986.5,2316.36 2134.54,2199.13 2282.58,2140.53 2430.62,2109.61 2578.66,2089.67 2726.7,2076.85 2874.73,2068.78 3022.77,2063.77 3170.81,2060.67 3270.74,2059.28 "/>
<polyline clip-path="url(#clip192)" style="stroke:#cd1076; stroke-linecap:round; stroke-linejoin:round; stroke-width:6.4; stroke-opacity:0.75; fill:none" points="1838.47,2406.34 1838.47,2406.34 2002.16,2098.94 2165.84,1817.54 2329.53,1609.59 2493.22,1435.87 2656.91,1405.67 "/>
<polyline clip-path="url(#clip192)" style="stroke:#cd1076; stroke-linecap:round; stroke-linejoin:round; stroke-width:6.4; stroke-opacity:0.75; fill:none" points="1039.57,1749.94 1072.06,1768.06 1327.53,1951.23 1583,2228.86 1838.47,2406.34 2093.94,2129.83 2349.41,1543.76 2604.88,1120.3 2860.35,1003.95 3115.82,981.136 3371.29,975.901 3626.76,974.435 3807.9,974.012 "/>
<polyline clip-path="url(#clip192)" style="stroke:#cd1076; stroke-linecap:round; stroke-linejoin:round; stroke-width:6.4; stroke-opacity:0.75; fill:none" points="274.349,1358.98 302.094,1386.91 404.518,1511.22 506.943,1675.19 609.368,1877.4 711.793,2094.39 814.218,2257.68 916.643,2244.99 1019.07,1903.52 1121.49,1236.97 1223.92,605.109 1326.34,421.439 1428.77,878.525 1531.19,1823.71 1633.62,2272.55 1736.04,1797.88 1838.47,2406.34 1940.89,1989.6 2043.32,1417.13 2145.74,1098.29 2248.17,993.183 2350.59,973.996 2453.02,972.311 2555.44,972.182 2657.87,972.138 2760.29,972.098 2862.72,972.073 2965.14,972.049 3042.67,972.03 "/>
<polyline clip-path="url(#clip192)" style="stroke:#cd1076; stroke-linecap:round; stroke-linejoin:round; stroke-width:6.4; stroke-opacity:0.75; fill:none" points="790.405,2371.97 810.287,2364.14 1015.92,2251.39 1221.56,2075.18 1427.19,1908.07 1632.83,1993.42 1838.47,2406.34 2044.1,1454.47 2249.74,994.068 2455.37,744.117 2661.01,671.266 2866.65,652.571 3072.28,647.729 3277.92,646.393 3483.55,645.995 3558.73,645.924 "/>
<polyline clip-path="url(#clip192)" style="stroke:#cd1076; stroke-linecap:round; stroke-linejoin:round; stroke-width:6.4; stroke-opacity:0.75; fill:none" points="816.684,1576.87 994.9,1639.59 1205.79,1769.66 1416.68,1982.2 1627.57,2248.48 1838.47,2406.34 2049.36,2090.69 "/>
<path clip-path="url(#clip190)" d="M2397.91 385.081 L3438.47 385.081 L3438.47 125.881 L2397.91 125.881  Z" fill="#ffffff" fill-rule="evenodd" fill-opacity="1"/>
<polyline clip-path="url(#clip190)" style="stroke:#000000; stroke-linecap:round; stroke-linejoin:round; stroke-width:4; stroke-opacity:1; fill:none" points="2397.91,385.081 3438.47,385.081 3438.47,125.881 2397.91,125.881 2397.91,385.081 "/>
<polyline clip-path="url(#clip190)" style="stroke:#008000; stroke-linecap:round; stroke-linejoin:round; stroke-width:8; stroke-opacity:1; fill:none" stroke-dasharray="32, 20" points="2436,177.721 2664.57,177.721 "/>
<path clip-path="url(#clip190)" d="M2704.89 194.283 L2704.89 190.024 Q2706.65 190.857 2708.46 191.297 Q2710.26 191.737 2712 191.737 Q2716.63 191.737 2719.06 188.635 Q2721.51 185.51 2721.86 179.167 Q2720.52 181.158 2718.46 182.223 Q2716.4 183.288 2713.9 183.288 Q2708.71 183.288 2705.68 180.163 Q2702.67 177.015 2702.67 171.575 Q2702.67 166.251 2705.82 163.033 Q2708.97 159.816 2714.2 159.816 Q2720.19 159.816 2723.34 164.422 Q2726.51 169.005 2726.51 177.755 Q2726.51 185.927 2722.62 190.811 Q2718.76 195.672 2712.21 195.672 Q2710.45 195.672 2708.64 195.325 Q2706.84 194.977 2704.89 194.283 M2714.2 179.63 Q2717.35 179.63 2719.17 177.478 Q2721.03 175.325 2721.03 171.575 Q2721.03 167.848 2719.17 165.695 Q2717.35 163.519 2714.2 163.519 Q2711.05 163.519 2709.2 165.695 Q2707.37 167.848 2707.37 171.575 Q2707.37 175.325 2709.2 177.478 Q2711.05 179.63 2714.2 179.63 Z" fill="#000000" fill-rule="nonzero" fill-opacity="1" /><path clip-path="url(#clip190)" d="M2734.96 160.441 L2753.32 160.441 L2753.32 164.376 L2739.24 164.376 L2739.24 172.848 Q2740.26 172.501 2741.28 172.339 Q2742.3 172.154 2743.32 172.154 Q2749.1 172.154 2752.48 175.325 Q2755.86 178.496 2755.86 183.913 Q2755.86 189.491 2752.39 192.593 Q2748.92 195.672 2742.6 195.672 Q2740.42 195.672 2738.16 195.302 Q2735.91 194.931 2733.5 194.19 L2733.5 189.491 Q2735.59 190.626 2737.81 191.181 Q2740.03 191.737 2742.51 191.737 Q2746.51 191.737 2748.85 189.63 Q2751.19 187.524 2751.19 183.913 Q2751.19 180.302 2748.85 178.195 Q2746.51 176.089 2742.51 176.089 Q2740.63 176.089 2738.76 176.505 Q2736.91 176.922 2734.96 177.802 L2734.96 160.441 Z" fill="#000000" fill-rule="nonzero" fill-opacity="1" /><path clip-path="url(#clip190)" d="M2794.48 179.792 Q2792.46 179.792 2791.3 181.505 Q2790.17 183.218 2790.17 186.274 Q2790.17 189.283 2791.3 191.019 Q2792.46 192.732 2794.48 192.732 Q2796.44 192.732 2797.58 191.019 Q2798.73 189.283 2798.73 186.274 Q2798.73 183.241 2797.58 181.528 Q2796.44 179.792 2794.48 179.792 M2794.48 176.853 Q2798.13 176.853 2800.29 179.399 Q2802.44 181.945 2802.44 186.274 Q2802.44 190.602 2800.26 193.149 Q2798.11 195.672 2794.48 195.672 Q2790.77 195.672 2788.62 193.149 Q2786.47 190.602 2786.47 186.274 Q2786.47 181.922 2788.62 179.399 Q2790.79 176.853 2794.48 176.853 M2770.59 162.755 Q2768.6 162.755 2767.44 164.492 Q2766.3 166.204 2766.3 169.214 Q2766.3 172.269 2767.44 173.982 Q2768.57 175.695 2770.59 175.695 Q2772.6 175.695 2773.73 173.982 Q2774.89 172.269 2774.89 169.214 Q2774.89 166.228 2773.73 164.492 Q2772.58 162.755 2770.59 162.755 M2791.49 159.816 L2795.19 159.816 L2773.57 195.672 L2769.87 195.672 L2791.49 159.816 M2770.59 159.816 Q2774.24 159.816 2776.42 162.362 Q2778.6 164.885 2778.6 169.214 Q2778.6 173.589 2776.42 176.112 Q2774.27 178.635 2770.59 178.635 Q2766.91 178.635 2764.75 176.112 Q2762.62 173.566 2762.62 169.214 Q2762.62 164.908 2764.78 162.362 Q2766.93 159.816 2770.59 159.816 Z" fill="#000000" fill-rule="nonzero" fill-opacity="1" /><path clip-path="url(#clip190)" d="M2828.8 161.714 L2828.8 169.075 L2837.58 169.075 L2837.58 172.385 L2828.8 172.385 L2828.8 186.459 Q2828.8 189.63 2829.66 190.533 Q2830.54 191.436 2833.2 191.436 L2837.58 191.436 L2837.58 195.001 L2833.2 195.001 Q2828.27 195.001 2826.4 193.172 Q2824.52 191.32 2824.52 186.459 L2824.52 172.385 L2821.4 172.385 L2821.4 169.075 L2824.52 169.075 L2824.52 161.714 L2828.8 161.714 Z" fill="#000000" fill-rule="nonzero" fill-opacity="1" /><path clip-path="url(#clip190)" d="M2864.73 179.353 L2864.73 195.001 L2860.47 195.001 L2860.47 179.491 Q2860.47 175.811 2859.03 173.982 Q2857.6 172.154 2854.73 172.154 Q2851.28 172.154 2849.29 174.353 Q2847.3 176.552 2847.3 180.348 L2847.3 195.001 L2843.02 195.001 L2843.02 158.982 L2847.3 158.982 L2847.3 173.103 Q2848.83 170.765 2850.89 169.607 Q2852.97 168.45 2855.68 168.45 Q2860.15 168.45 2862.44 171.228 Q2864.73 173.982 2864.73 179.353 Z" fill="#000000" fill-rule="nonzero" fill-opacity="1" /><path clip-path="url(#clip190)" d="M2888.25 173.056 Q2887.53 172.64 2886.67 172.454 Q2885.84 172.246 2884.82 172.246 Q2881.21 172.246 2879.27 174.607 Q2877.35 176.945 2877.35 181.343 L2877.35 195.001 L2873.06 195.001 L2873.06 169.075 L2877.35 169.075 L2877.35 173.103 Q2878.69 170.741 2880.84 169.607 Q2882.99 168.45 2886.07 168.45 Q2886.51 168.45 2887.04 168.519 Q2887.58 168.566 2888.22 168.681 L2888.25 173.056 Z" fill="#000000" fill-rule="nonzero" fill-opacity="1" /><path clip-path="url(#clip190)" d="M2913.85 180.973 L2913.85 183.056 L2894.27 183.056 Q2894.54 187.454 2896.91 189.769 Q2899.29 192.061 2903.53 192.061 Q2905.98 192.061 2908.27 191.459 Q2910.59 190.857 2912.85 189.653 L2912.85 193.681 Q2910.56 194.653 2908.16 195.163 Q2905.75 195.672 2903.27 195.672 Q2897.07 195.672 2893.43 192.061 Q2889.82 188.45 2889.82 182.292 Q2889.82 175.927 2893.25 172.2 Q2896.7 168.45 2902.53 168.45 Q2907.76 168.45 2910.79 171.829 Q2913.85 175.186 2913.85 180.973 M2909.59 179.723 Q2909.54 176.228 2907.62 174.144 Q2905.72 172.061 2902.58 172.061 Q2899.01 172.061 2896.86 174.075 Q2894.73 176.089 2894.41 179.746 L2909.59 179.723 Z" fill="#000000" fill-rule="nonzero" fill-opacity="1" /><path clip-path="url(#clip190)" d="M2937.37 169.839 L2937.37 173.866 Q2935.56 172.941 2933.62 172.478 Q2931.67 172.015 2929.59 172.015 Q2926.42 172.015 2924.82 172.987 Q2923.25 173.959 2923.25 175.903 Q2923.25 177.385 2924.38 178.241 Q2925.52 179.075 2928.94 179.839 L2930.4 180.163 Q2934.94 181.135 2936.84 182.917 Q2938.76 184.677 2938.76 187.848 Q2938.76 191.459 2935.89 193.565 Q2933.04 195.672 2928.04 195.672 Q2925.96 195.672 2923.69 195.255 Q2921.44 194.862 2918.94 194.052 L2918.94 189.653 Q2921.3 190.88 2923.59 191.505 Q2925.89 192.107 2928.13 192.107 Q2931.14 192.107 2932.76 191.089 Q2934.38 190.047 2934.38 188.172 Q2934.38 186.436 2933.2 185.51 Q2932.04 184.584 2928.09 183.728 L2926.6 183.38 Q2922.65 182.547 2920.89 180.834 Q2919.13 179.098 2919.13 176.089 Q2919.13 172.431 2921.72 170.441 Q2924.31 168.45 2929.08 168.45 Q2931.44 168.45 2933.53 168.797 Q2935.61 169.144 2937.37 169.839 Z" fill="#000000" fill-rule="nonzero" fill-opacity="1" /><path clip-path="url(#clip190)" d="M2967.09 179.353 L2967.09 195.001 L2962.83 195.001 L2962.83 179.491 Q2962.83 175.811 2961.4 173.982 Q2959.96 172.154 2957.09 172.154 Q2953.64 172.154 2951.65 174.353 Q2949.66 176.552 2949.66 180.348 L2949.66 195.001 L2945.38 195.001 L2945.38 158.982 L2949.66 158.982 L2949.66 173.103 Q2951.19 170.765 2953.25 169.607 Q2955.33 168.45 2958.04 168.45 Q2962.51 168.45 2964.8 171.228 Q2967.09 173.982 2967.09 179.353 Z" fill="#000000" fill-rule="nonzero" fill-opacity="1" /><path clip-path="url(#clip190)" d="M2985.63 172.061 Q2982.21 172.061 2980.21 174.746 Q2978.22 177.408 2978.22 182.061 Q2978.22 186.714 2980.19 189.399 Q2982.18 192.061 2985.63 192.061 Q2989.03 192.061 2991.02 189.376 Q2993.02 186.69 2993.02 182.061 Q2993.02 177.454 2991.02 174.769 Q2989.03 172.061 2985.63 172.061 M2985.63 168.45 Q2991.19 168.45 2994.36 172.061 Q2997.53 175.672 2997.53 182.061 Q2997.53 188.427 2994.36 192.061 Q2991.19 195.672 2985.63 195.672 Q2980.05 195.672 2976.88 192.061 Q2973.73 188.427 2973.73 182.061 Q2973.73 175.672 2976.88 172.061 Q2980.05 168.45 2985.63 168.45 Z" fill="#000000" fill-rule="nonzero" fill-opacity="1" /><path clip-path="url(#clip190)" d="M3004.59 158.982 L3008.85 158.982 L3008.85 195.001 L3004.59 195.001 L3004.59 158.982 Z" fill="#000000" fill-rule="nonzero" fill-opacity="1" /><path clip-path="url(#clip190)" d="M3034.82 173.01 L3034.82 158.982 L3039.08 158.982 L3039.08 195.001 L3034.82 195.001 L3034.82 191.112 Q3033.48 193.427 3031.42 194.561 Q3029.38 195.672 3026.51 195.672 Q3021.81 195.672 3018.85 191.922 Q3015.91 188.172 3015.91 182.061 Q3015.91 175.95 3018.85 172.2 Q3021.81 168.45 3026.51 168.45 Q3029.38 168.45 3031.42 169.584 Q3033.48 170.695 3034.82 173.01 M3020.31 182.061 Q3020.31 186.76 3022.23 189.445 Q3024.17 192.107 3027.55 192.107 Q3030.93 192.107 3032.88 189.445 Q3034.82 186.76 3034.82 182.061 Q3034.82 177.362 3032.88 174.7 Q3030.93 172.015 3027.55 172.015 Q3024.17 172.015 3022.23 174.7 Q3020.31 177.362 3020.31 182.061 Z" fill="#000000" fill-rule="nonzero" fill-opacity="1" /><polyline clip-path="url(#clip190)" style="stroke:#cd1076; stroke-linecap:round; stroke-linejoin:round; stroke-width:20; stroke-opacity:1; fill:none" points="2436,229.561 2664.57,229.561 "/>
<path clip-path="url(#clip190)" d="M2702.67 212.281 L2707.37 212.281 L2707.37 233.276 Q2707.37 238.831 2709.38 241.285 Q2711.4 243.716 2715.91 243.716 Q2720.4 243.716 2722.42 241.285 Q2724.43 238.831 2724.43 233.276 L2724.43 212.281 L2729.13 212.281 L2729.13 233.855 Q2729.13 240.614 2725.77 244.063 Q2722.44 247.512 2715.91 247.512 Q2709.36 247.512 2706 244.063 Q2702.67 240.614 2702.67 233.855 L2702.67 212.281 Z" fill="#000000" fill-rule="nonzero" fill-opacity="1" /><path clip-path="url(#clip190)" d="M2759.27 231.193 L2759.27 246.841 L2755.01 246.841 L2755.01 231.331 Q2755.01 227.651 2753.57 225.822 Q2752.14 223.994 2749.27 223.994 Q2745.82 223.994 2743.83 226.193 Q2741.84 228.392 2741.84 232.188 L2741.84 246.841 L2737.55 246.841 L2737.55 220.915 L2741.84 220.915 L2741.84 224.943 Q2743.36 222.605 2745.42 221.447 Q2747.51 220.29 2750.22 220.29 Q2754.68 220.29 2756.98 223.068 Q2759.27 225.822 2759.27 231.193 Z" fill="#000000" fill-rule="nonzero" fill-opacity="1" /><path clip-path="url(#clip190)" d="M2767.76 220.915 L2772.02 220.915 L2772.02 246.841 L2767.76 246.841 L2767.76 220.915 M2767.76 210.822 L2772.02 210.822 L2772.02 216.216 L2767.76 216.216 L2767.76 210.822 Z" fill="#000000" fill-rule="nonzero" fill-opacity="1" /><path clip-path="url(#clip190)" d="M2797.99 224.85 L2797.99 210.822 L2802.25 210.822 L2802.25 246.841 L2797.99 246.841 L2797.99 242.952 Q2796.65 245.267 2794.59 246.401 Q2792.55 247.512 2789.68 247.512 Q2784.98 247.512 2782.02 243.762 Q2779.08 240.012 2779.08 233.901 Q2779.08 227.79 2782.02 224.04 Q2784.98 220.29 2789.68 220.29 Q2792.55 220.29 2794.59 221.424 Q2796.65 222.535 2797.99 224.85 M2783.48 233.901 Q2783.48 238.6 2785.4 241.285 Q2787.35 243.947 2790.73 243.947 Q2794.1 243.947 2796.05 241.285 Q2797.99 238.6 2797.99 233.901 Q2797.99 229.202 2796.05 226.54 Q2794.1 223.855 2790.73 223.855 Q2787.35 223.855 2785.4 226.54 Q2783.48 229.202 2783.48 233.901 Z" fill="#000000" fill-rule="nonzero" fill-opacity="1" /><path clip-path="url(#clip190)" d="M2833.2 232.813 L2833.2 234.896 L2813.62 234.896 Q2813.9 239.294 2816.26 241.609 Q2818.64 243.901 2822.88 243.901 Q2825.33 243.901 2827.62 243.299 Q2829.94 242.697 2832.21 241.493 L2832.21 245.521 Q2829.91 246.493 2827.51 247.003 Q2825.1 247.512 2822.62 247.512 Q2816.42 247.512 2812.79 243.901 Q2809.17 240.29 2809.17 234.132 Q2809.17 227.767 2812.6 224.04 Q2816.05 220.29 2821.88 220.29 Q2827.11 220.29 2830.15 223.669 Q2833.2 227.026 2833.2 232.813 M2828.94 231.563 Q2828.9 228.068 2826.97 225.984 Q2825.08 223.901 2821.93 223.901 Q2818.36 223.901 2816.21 225.915 Q2814.08 227.929 2813.76 231.586 L2828.94 231.563 Z" fill="#000000" fill-rule="nonzero" fill-opacity="1" /><path clip-path="url(#clip190)" d="M2861.74 231.193 L2861.74 246.841 L2857.48 246.841 L2857.48 231.331 Q2857.48 227.651 2856.05 225.822 Q2854.61 223.994 2851.74 223.994 Q2848.29 223.994 2846.3 226.193 Q2844.31 228.392 2844.31 232.188 L2844.31 246.841 L2840.03 246.841 L2840.03 220.915 L2844.31 220.915 L2844.31 224.943 Q2845.84 222.605 2847.9 221.447 Q2849.98 220.29 2852.69 220.29 Q2857.16 220.29 2859.45 223.068 Q2861.74 225.822 2861.74 231.193 Z" fill="#000000" fill-rule="nonzero" fill-opacity="1" /><path clip-path="url(#clip190)" d="M2874.45 213.554 L2874.45 220.915 L2883.22 220.915 L2883.22 224.225 L2874.45 224.225 L2874.45 238.299 Q2874.45 241.47 2875.31 242.373 Q2876.19 243.276 2878.85 243.276 L2883.22 243.276 L2883.22 246.841 L2878.85 246.841 Q2873.92 246.841 2872.04 245.012 Q2870.17 243.16 2870.17 238.299 L2870.17 224.225 L2867.04 224.225 L2867.04 220.915 L2870.17 220.915 L2870.17 213.554 L2874.45 213.554 Z" fill="#000000" fill-rule="nonzero" fill-opacity="1" /><path clip-path="url(#clip190)" d="M2888.83 220.915 L2893.09 220.915 L2893.09 246.841 L2888.83 246.841 L2888.83 220.915 M2888.83 210.822 L2893.09 210.822 L2893.09 216.216 L2888.83 216.216 L2888.83 210.822 Z" fill="#000000" fill-rule="nonzero" fill-opacity="1" /><path clip-path="url(#clip190)" d="M2915.12 210.822 L2915.12 214.364 L2911.05 214.364 Q2908.76 214.364 2907.85 215.29 Q2906.97 216.216 2906.97 218.623 L2906.97 220.915 L2913.99 220.915 L2913.99 224.225 L2906.97 224.225 L2906.97 246.841 L2902.69 246.841 L2902.69 224.225 L2898.62 224.225 L2898.62 220.915 L2902.69 220.915 L2902.69 219.109 Q2902.69 214.781 2904.71 212.813 Q2906.72 210.822 2911.09 210.822 L2915.12 210.822 Z" fill="#000000" fill-rule="nonzero" fill-opacity="1" /><path clip-path="url(#clip190)" d="M2918.69 220.915 L2922.95 220.915 L2922.95 246.841 L2918.69 246.841 L2918.69 220.915 M2918.69 210.822 L2922.95 210.822 L2922.95 216.216 L2918.69 216.216 L2918.69 210.822 Z" fill="#000000" fill-rule="nonzero" fill-opacity="1" /><path clip-path="url(#clip190)" d="M2943.64 233.808 Q2938.48 233.808 2936.49 234.989 Q2934.5 236.169 2934.5 239.017 Q2934.5 241.285 2935.98 242.628 Q2937.48 243.947 2940.05 243.947 Q2943.59 243.947 2945.72 241.447 Q2947.88 238.924 2947.88 234.757 L2947.88 233.808 L2943.64 233.808 M2952.14 232.049 L2952.14 246.841 L2947.88 246.841 L2947.88 242.905 Q2946.42 245.267 2944.24 246.401 Q2942.07 247.512 2938.92 247.512 Q2934.94 247.512 2932.58 245.29 Q2930.24 243.044 2930.24 239.294 Q2930.24 234.919 2933.15 232.697 Q2936.09 230.475 2941.9 230.475 L2947.88 230.475 L2947.88 230.058 Q2947.88 227.119 2945.93 225.521 Q2944.01 223.901 2940.52 223.901 Q2938.29 223.901 2936.19 224.433 Q2934.08 224.966 2932.14 226.031 L2932.14 222.095 Q2934.47 221.193 2936.67 220.753 Q2938.87 220.29 2940.96 220.29 Q2946.58 220.29 2949.36 223.206 Q2952.14 226.123 2952.14 232.049 Z" fill="#000000" fill-rule="nonzero" fill-opacity="1" /><path clip-path="url(#clip190)" d="M2979.52 233.901 Q2979.52 229.202 2977.58 226.54 Q2975.65 223.855 2972.28 223.855 Q2968.9 223.855 2966.95 226.54 Q2965.03 229.202 2965.03 233.901 Q2965.03 238.6 2966.95 241.285 Q2968.9 243.947 2972.28 243.947 Q2975.65 243.947 2977.58 241.285 Q2979.52 238.6 2979.52 233.901 M2965.03 224.85 Q2966.37 222.535 2968.41 221.424 Q2970.47 220.29 2973.32 220.29 Q2978.04 220.29 2980.98 224.04 Q2983.94 227.79 2983.94 233.901 Q2983.94 240.012 2980.98 243.762 Q2978.04 247.512 2973.32 247.512 Q2970.47 247.512 2968.41 246.401 Q2966.37 245.267 2965.03 242.952 L2965.03 246.841 L2960.75 246.841 L2960.75 210.822 L2965.03 210.822 L2965.03 224.85 Z" fill="#000000" fill-rule="nonzero" fill-opacity="1" /><path clip-path="url(#clip190)" d="M2991 210.822 L2995.26 210.822 L2995.26 246.841 L2991 246.841 L2991 210.822 Z" fill="#000000" fill-rule="nonzero" fill-opacity="1" /><path clip-path="url(#clip190)" d="M3026.35 232.813 L3026.35 234.896 L3006.77 234.896 Q3007.04 239.294 3009.4 241.609 Q3011.79 243.901 3016.02 243.901 Q3018.48 243.901 3020.77 243.299 Q3023.08 242.697 3025.35 241.493 L3025.35 245.521 Q3023.06 246.493 3020.65 247.003 Q3018.25 247.512 3015.77 247.512 Q3009.57 247.512 3005.93 243.901 Q3002.32 240.29 3002.32 234.132 Q3002.32 227.767 3005.75 224.04 Q3009.2 220.29 3015.03 220.29 Q3020.26 220.29 3023.29 223.669 Q3026.35 227.026 3026.35 232.813 M3022.09 231.563 Q3022.04 228.068 3020.12 225.984 Q3018.22 223.901 3015.08 223.901 Q3011.51 223.901 3009.36 225.915 Q3007.23 227.929 3006.9 231.586 L3022.09 231.563 Z" fill="#000000" fill-rule="nonzero" fill-opacity="1" /><path clip-path="url(#clip190)" d="M3058.64 210.869 Q3055.54 216.193 3054.03 221.401 Q3052.53 226.609 3052.53 231.956 Q3052.53 237.304 3054.03 242.558 Q3055.56 247.79 3058.64 253.091 L3054.94 253.091 Q3051.46 247.651 3049.73 242.396 Q3048.02 237.142 3048.02 231.956 Q3048.02 226.794 3049.73 221.563 Q3051.44 216.332 3054.94 210.869 L3058.64 210.869 Z" fill="#000000" fill-rule="nonzero" fill-opacity="1" /><path clip-path="url(#clip190)" d="M3088.46 231.193 L3088.46 246.841 L3084.2 246.841 L3084.2 231.331 Q3084.2 227.651 3082.76 225.822 Q3081.33 223.994 3078.46 223.994 Q3075.01 223.994 3073.02 226.193 Q3071.02 228.392 3071.02 232.188 L3071.02 246.841 L3066.74 246.841 L3066.74 220.915 L3071.02 220.915 L3071.02 224.943 Q3072.55 222.605 3074.61 221.447 Q3076.7 220.29 3079.4 220.29 Q3083.87 220.29 3086.16 223.068 Q3088.46 225.822 3088.46 231.193 Z" fill="#000000" fill-rule="nonzero" fill-opacity="1" /><path clip-path="url(#clip190)" d="M3097.51 225.313 L3127.18 225.313 L3127.18 229.202 L3097.51 229.202 L3097.51 225.313 M3097.51 234.757 L3127.18 234.757 L3127.18 238.693 L3097.51 238.693 L3097.51 234.757 Z" fill="#000000" fill-rule="nonzero" fill-opacity="1" /><path clip-path="url(#clip190)" d="M3138.08 242.905 L3145.72 242.905 L3145.72 216.54 L3137.41 218.207 L3137.41 213.947 L3145.68 212.281 L3150.35 212.281 L3150.35 242.905 L3157.99 242.905 L3157.99 246.841 L3138.08 246.841 L3138.08 242.905 Z" fill="#000000" fill-rule="nonzero" fill-opacity="1" /><path clip-path="url(#clip190)" d="M3166.26 212.281 L3188.48 212.281 L3188.48 214.271 L3175.93 246.841 L3171.05 246.841 L3182.85 216.216 L3166.26 216.216 L3166.26 212.281 Z" fill="#000000" fill-rule="nonzero" fill-opacity="1" /><path clip-path="url(#clip190)" d="M3196.32 210.869 L3200.03 210.869 Q3203.5 216.332 3205.21 221.563 Q3206.95 226.794 3206.95 231.956 Q3206.95 237.142 3205.21 242.396 Q3203.5 247.651 3200.03 253.091 L3196.32 253.091 Q3199.4 247.79 3200.91 242.558 Q3202.44 237.304 3202.44 231.956 Q3202.44 226.609 3200.91 221.401 Q3199.4 216.193 3196.32 210.869 Z" fill="#000000" fill-rule="nonzero" fill-opacity="1" /><polyline clip-path="url(#clip190)" style="stroke:#1e90ff; stroke-linecap:round; stroke-linejoin:round; stroke-width:20; stroke-opacity:1; fill:none" points="2436,281.401 2664.57,281.401 "/>
<path clip-path="url(#clip190)" d="M2707.35 267.963 L2707.35 280.949 L2713.23 280.949 Q2716.49 280.949 2718.27 279.259 Q2720.05 277.57 2720.05 274.445 Q2720.05 271.343 2718.27 269.653 Q2716.49 267.963 2713.23 267.963 L2707.35 267.963 M2702.67 264.121 L2713.23 264.121 Q2719.04 264.121 2722 266.759 Q2724.98 269.375 2724.98 274.445 Q2724.98 279.56 2722 282.176 Q2719.04 284.792 2713.23 284.792 L2707.35 284.792 L2707.35 298.681 L2702.67 298.681 L2702.67 264.121 Z" fill="#000000" fill-rule="nonzero" fill-opacity="1" /><path clip-path="url(#clip190)" d="M2745.26 276.736 Q2744.54 276.32 2743.69 276.134 Q2742.86 275.926 2741.84 275.926 Q2738.23 275.926 2736.28 278.287 Q2734.36 280.625 2734.36 285.023 L2734.36 298.681 L2730.08 298.681 L2730.08 272.755 L2734.36 272.755 L2734.36 276.783 Q2735.7 274.421 2737.86 273.287 Q2740.01 272.13 2743.09 272.13 Q2743.53 272.13 2744.06 272.199 Q2744.59 272.246 2745.24 272.361 L2745.26 276.736 Z" fill="#000000" fill-rule="nonzero" fill-opacity="1" /><path clip-path="url(#clip190)" d="M2761.51 285.648 Q2756.35 285.648 2754.36 286.829 Q2752.37 288.009 2752.37 290.857 Q2752.37 293.125 2753.85 294.468 Q2755.35 295.787 2757.92 295.787 Q2761.47 295.787 2763.6 293.287 Q2765.75 290.764 2765.75 286.597 L2765.75 285.648 L2761.51 285.648 M2770.01 283.889 L2770.01 298.681 L2765.75 298.681 L2765.75 294.745 Q2764.29 297.107 2762.11 298.241 Q2759.94 299.352 2756.79 299.352 Q2752.81 299.352 2750.45 297.13 Q2748.11 294.884 2748.11 291.134 Q2748.11 286.759 2751.03 284.537 Q2753.97 282.315 2759.78 282.315 L2765.75 282.315 L2765.75 281.898 Q2765.75 278.959 2763.8 277.361 Q2761.88 275.741 2758.39 275.741 Q2756.17 275.741 2754.06 276.273 Q2751.95 276.806 2750.01 277.871 L2750.01 273.935 Q2752.35 273.033 2754.54 272.593 Q2756.74 272.13 2758.83 272.13 Q2764.45 272.13 2767.23 275.046 Q2770.01 277.963 2770.01 283.889 Z" fill="#000000" fill-rule="nonzero" fill-opacity="1" /><path clip-path="url(#clip190)" d="M2797.44 273.75 L2797.44 277.732 Q2795.63 276.736 2793.8 276.25 Q2792 275.741 2790.15 275.741 Q2786 275.741 2783.71 278.38 Q2781.42 280.996 2781.42 285.741 Q2781.42 290.486 2783.71 293.125 Q2786 295.741 2790.15 295.741 Q2792 295.741 2793.8 295.255 Q2795.63 294.745 2797.44 293.75 L2797.44 297.685 Q2795.66 298.519 2793.73 298.935 Q2791.84 299.352 2789.68 299.352 Q2783.83 299.352 2780.38 295.671 Q2776.93 291.991 2776.93 285.741 Q2776.93 279.398 2780.4 275.764 Q2783.9 272.13 2789.96 272.13 Q2791.93 272.13 2793.8 272.547 Q2795.68 272.94 2797.44 273.75 Z" fill="#000000" fill-rule="nonzero" fill-opacity="1" /><path clip-path="url(#clip190)" d="M2809.06 265.394 L2809.06 272.755 L2817.83 272.755 L2817.83 276.065 L2809.06 276.065 L2809.06 290.139 Q2809.06 293.31 2809.91 294.213 Q2810.79 295.116 2813.46 295.116 L2817.83 295.116 L2817.83 298.681 L2813.46 298.681 Q2808.53 298.681 2806.65 296.852 Q2804.78 295 2804.78 290.139 L2804.78 276.065 L2801.65 276.065 L2801.65 272.755 L2804.78 272.755 L2804.78 265.394 L2809.06 265.394 Z" fill="#000000" fill-rule="nonzero" fill-opacity="1" /><path clip-path="url(#clip190)" d="M2823.43 272.755 L2827.69 272.755 L2827.69 298.681 L2823.43 298.681 L2823.43 272.755 M2823.43 262.662 L2827.69 262.662 L2827.69 268.056 L2823.43 268.056 L2823.43 262.662 Z" fill="#000000" fill-rule="nonzero" fill-opacity="1" /><path clip-path="url(#clip190)" d="M2855.26 273.75 L2855.26 277.732 Q2853.46 276.736 2851.63 276.25 Q2849.82 275.741 2847.97 275.741 Q2843.83 275.741 2841.54 278.38 Q2839.24 280.996 2839.24 285.741 Q2839.24 290.486 2841.54 293.125 Q2843.83 295.741 2847.97 295.741 Q2849.82 295.741 2851.63 295.255 Q2853.46 294.745 2855.26 293.75 L2855.26 297.685 Q2853.48 298.519 2851.56 298.935 Q2849.66 299.352 2847.51 299.352 Q2841.65 299.352 2838.2 295.671 Q2834.75 291.991 2834.75 285.741 Q2834.75 279.398 2838.22 275.764 Q2841.72 272.13 2847.78 272.13 Q2849.75 272.13 2851.63 272.547 Q2853.5 272.94 2855.26 273.75 Z" fill="#000000" fill-rule="nonzero" fill-opacity="1" /><path clip-path="url(#clip190)" d="M2874.45 285.648 Q2869.29 285.648 2867.3 286.829 Q2865.31 288.009 2865.31 290.857 Q2865.31 293.125 2866.79 294.468 Q2868.29 295.787 2870.86 295.787 Q2874.41 295.787 2876.53 293.287 Q2878.69 290.764 2878.69 286.597 L2878.69 285.648 L2874.45 285.648 M2882.95 283.889 L2882.95 298.681 L2878.69 298.681 L2878.69 294.745 Q2877.23 297.107 2875.05 298.241 Q2872.88 299.352 2869.73 299.352 Q2865.75 299.352 2863.39 297.13 Q2861.05 294.884 2861.05 291.134 Q2861.05 286.759 2863.97 284.537 Q2866.91 282.315 2872.72 282.315 L2878.69 282.315 L2878.69 281.898 Q2878.69 278.959 2876.74 277.361 Q2874.82 275.741 2871.33 275.741 Q2869.1 275.741 2867 276.273 Q2864.89 276.806 2862.95 277.871 L2862.95 273.935 Q2865.28 273.033 2867.48 272.593 Q2869.68 272.13 2871.77 272.13 Q2877.39 272.13 2880.17 275.046 Q2882.95 277.963 2882.95 283.889 Z" fill="#000000" fill-rule="nonzero" fill-opacity="1" /><path clip-path="url(#clip190)" d="M2891.72 262.662 L2895.98 262.662 L2895.98 298.681 L2891.72 298.681 L2891.72 262.662 Z" fill="#000000" fill-rule="nonzero" fill-opacity="1" /><path clip-path="url(#clip190)" d="M2904.89 262.662 L2909.15 262.662 L2909.15 298.681 L2904.89 298.681 L2904.89 262.662 Z" fill="#000000" fill-rule="nonzero" fill-opacity="1" /><path clip-path="url(#clip190)" d="M2928.85 301.088 Q2927.04 305.718 2925.33 307.13 Q2923.62 308.542 2920.75 308.542 L2917.34 308.542 L2917.34 304.977 L2919.84 304.977 Q2921.6 304.977 2922.58 304.144 Q2923.55 303.31 2924.73 300.208 L2925.49 298.264 L2915.01 272.755 L2919.52 272.755 L2927.62 293.033 L2935.72 272.755 L2940.24 272.755 L2928.85 301.088 Z" fill="#000000" fill-rule="nonzero" fill-opacity="1" /><path clip-path="url(#clip190)" d="M2961.19 272.755 L2965.45 272.755 L2965.45 298.681 L2961.19 298.681 L2961.19 272.755 M2961.19 262.662 L2965.45 262.662 L2965.45 268.056 L2961.19 268.056 L2961.19 262.662 Z" fill="#000000" fill-rule="nonzero" fill-opacity="1" /><path clip-path="url(#clip190)" d="M2991.42 276.69 L2991.42 262.662 L2995.68 262.662 L2995.68 298.681 L2991.42 298.681 L2991.42 294.792 Q2990.08 297.107 2988.02 298.241 Q2985.98 299.352 2983.11 299.352 Q2978.41 299.352 2975.45 295.602 Q2972.51 291.852 2972.51 285.741 Q2972.51 279.63 2975.45 275.88 Q2978.41 272.13 2983.11 272.13 Q2985.98 272.13 2988.02 273.264 Q2990.08 274.375 2991.42 276.69 M2976.9 285.741 Q2976.9 290.44 2978.83 293.125 Q2980.77 295.787 2984.15 295.787 Q2987.53 295.787 2989.47 293.125 Q2991.42 290.44 2991.42 285.741 Q2991.42 281.042 2989.47 278.38 Q2987.53 275.695 2984.15 275.695 Q2980.77 275.695 2978.83 278.38 Q2976.9 281.042 2976.9 285.741 Z" fill="#000000" fill-rule="nonzero" fill-opacity="1" /><path clip-path="url(#clip190)" d="M3026.63 284.653 L3026.63 286.736 L3007.04 286.736 Q3007.32 291.134 3009.68 293.449 Q3012.07 295.741 3016.3 295.741 Q3018.76 295.741 3021.05 295.139 Q3023.36 294.537 3025.63 293.333 L3025.63 297.361 Q3023.34 298.333 3020.93 298.843 Q3018.52 299.352 3016.05 299.352 Q3009.84 299.352 3006.21 295.741 Q3002.6 292.13 3002.6 285.972 Q3002.6 279.607 3006.02 275.88 Q3009.47 272.13 3015.31 272.13 Q3020.54 272.13 3023.57 275.509 Q3026.63 278.866 3026.63 284.653 M3022.37 283.403 Q3022.32 279.908 3020.4 277.824 Q3018.5 275.741 3015.35 275.741 Q3011.79 275.741 3009.64 277.755 Q3007.51 279.769 3007.18 283.426 L3022.37 283.403 Z" fill="#000000" fill-rule="nonzero" fill-opacity="1" /><path clip-path="url(#clip190)" d="M3055.17 283.033 L3055.17 298.681 L3050.91 298.681 L3050.91 283.171 Q3050.91 279.491 3049.47 277.662 Q3048.04 275.834 3045.17 275.834 Q3041.72 275.834 3039.73 278.033 Q3037.74 280.232 3037.74 284.028 L3037.74 298.681 L3033.46 298.681 L3033.46 272.755 L3037.74 272.755 L3037.74 276.783 Q3039.27 274.445 3041.33 273.287 Q3043.41 272.13 3046.12 272.13 Q3050.58 272.13 3052.88 274.908 Q3055.17 277.662 3055.17 283.033 Z" fill="#000000" fill-rule="nonzero" fill-opacity="1" /><path clip-path="url(#clip190)" d="M3067.88 265.394 L3067.88 272.755 L3076.65 272.755 L3076.65 276.065 L3067.88 276.065 L3067.88 290.139 Q3067.88 293.31 3068.73 294.213 Q3069.61 295.116 3072.27 295.116 L3076.65 295.116 L3076.65 298.681 L3072.27 298.681 Q3067.34 298.681 3065.47 296.852 Q3063.59 295 3063.59 290.139 L3063.59 276.065 L3060.47 276.065 L3060.47 272.755 L3063.59 272.755 L3063.59 265.394 L3067.88 265.394 Z" fill="#000000" fill-rule="nonzero" fill-opacity="1" /><path clip-path="url(#clip190)" d="M3082.25 272.755 L3086.51 272.755 L3086.51 298.681 L3082.25 298.681 L3082.25 272.755 M3082.25 262.662 L3086.51 262.662 L3086.51 268.056 L3082.25 268.056 L3082.25 262.662 Z" fill="#000000" fill-rule="nonzero" fill-opacity="1" /><path clip-path="url(#clip190)" d="M3108.55 262.662 L3108.55 266.204 L3104.47 266.204 Q3102.18 266.204 3101.28 267.13 Q3100.4 268.056 3100.4 270.463 L3100.4 272.755 L3107.41 272.755 L3107.41 276.065 L3100.4 276.065 L3100.4 298.681 L3096.12 298.681 L3096.12 276.065 L3092.04 276.065 L3092.04 272.755 L3096.12 272.755 L3096.12 270.949 Q3096.12 266.621 3098.13 264.653 Q3100.14 262.662 3104.52 262.662 L3108.55 262.662 Z" fill="#000000" fill-rule="nonzero" fill-opacity="1" /><path clip-path="url(#clip190)" d="M3112.11 272.755 L3116.37 272.755 L3116.37 298.681 L3112.11 298.681 L3112.11 272.755 M3112.11 262.662 L3116.37 262.662 L3116.37 268.056 L3112.11 268.056 L3112.11 262.662 Z" fill="#000000" fill-rule="nonzero" fill-opacity="1" /><path clip-path="url(#clip190)" d="M3137.07 285.648 Q3131.9 285.648 3129.91 286.829 Q3127.92 288.009 3127.92 290.857 Q3127.92 293.125 3129.4 294.468 Q3130.91 295.787 3133.48 295.787 Q3137.02 295.787 3139.15 293.287 Q3141.3 290.764 3141.3 286.597 L3141.3 285.648 L3137.07 285.648 M3145.56 283.889 L3145.56 298.681 L3141.3 298.681 L3141.3 294.745 Q3139.84 297.107 3137.67 298.241 Q3135.49 299.352 3132.34 299.352 Q3128.36 299.352 3126 297.13 Q3123.66 294.884 3123.66 291.134 Q3123.66 286.759 3126.58 284.537 Q3129.52 282.315 3135.33 282.315 L3141.3 282.315 L3141.3 281.898 Q3141.3 278.959 3139.36 277.361 Q3137.44 275.741 3133.94 275.741 Q3131.72 275.741 3129.61 276.273 Q3127.51 276.806 3125.56 277.871 L3125.56 273.935 Q3127.9 273.033 3130.1 272.593 Q3132.3 272.13 3134.38 272.13 Q3140.01 272.13 3142.78 275.046 Q3145.56 277.963 3145.56 283.889 Z" fill="#000000" fill-rule="nonzero" fill-opacity="1" /><path clip-path="url(#clip190)" d="M3172.95 285.741 Q3172.95 281.042 3171 278.38 Q3169.08 275.695 3165.7 275.695 Q3162.32 275.695 3160.38 278.38 Q3158.45 281.042 3158.45 285.741 Q3158.45 290.44 3160.38 293.125 Q3162.32 295.787 3165.7 295.787 Q3169.08 295.787 3171 293.125 Q3172.95 290.44 3172.95 285.741 M3158.45 276.69 Q3159.8 274.375 3161.83 273.264 Q3163.89 272.13 3166.74 272.13 Q3171.46 272.13 3174.4 275.88 Q3177.37 279.63 3177.37 285.741 Q3177.37 291.852 3174.4 295.602 Q3171.46 299.352 3166.74 299.352 Q3163.89 299.352 3161.83 298.241 Q3159.8 297.107 3158.45 294.792 L3158.45 298.681 L3154.17 298.681 L3154.17 262.662 L3158.45 262.662 L3158.45 276.69 Z" fill="#000000" fill-rule="nonzero" fill-opacity="1" /><path clip-path="url(#clip190)" d="M3184.43 262.662 L3188.69 262.662 L3188.69 298.681 L3184.43 298.681 L3184.43 262.662 Z" fill="#000000" fill-rule="nonzero" fill-opacity="1" /><path clip-path="url(#clip190)" d="M3219.77 284.653 L3219.77 286.736 L3200.19 286.736 Q3200.47 291.134 3202.83 293.449 Q3205.21 295.741 3209.45 295.741 Q3211.9 295.741 3214.2 295.139 Q3216.51 294.537 3218.78 293.333 L3218.78 297.361 Q3216.49 298.333 3214.08 298.843 Q3211.67 299.352 3209.2 299.352 Q3202.99 299.352 3199.36 295.741 Q3195.75 292.13 3195.75 285.972 Q3195.75 279.607 3199.17 275.88 Q3202.62 272.13 3208.45 272.13 Q3213.69 272.13 3216.72 275.509 Q3219.77 278.866 3219.77 284.653 M3215.51 283.403 Q3215.47 279.908 3213.55 277.824 Q3211.65 275.741 3208.5 275.741 Q3204.94 275.741 3202.78 277.755 Q3200.65 279.769 3200.33 283.426 L3215.51 283.403 Z" fill="#000000" fill-rule="nonzero" fill-opacity="1" /><path clip-path="url(#clip190)" d="M3252.07 262.709 Q3248.96 268.033 3247.46 273.241 Q3245.95 278.449 3245.95 283.796 Q3245.95 289.144 3247.46 294.398 Q3248.99 299.63 3252.07 304.931 L3248.36 304.931 Q3244.89 299.491 3243.15 294.236 Q3241.44 288.982 3241.44 283.796 Q3241.44 278.634 3243.15 273.403 Q3244.87 268.172 3248.36 262.709 L3252.07 262.709 Z" fill="#000000" fill-rule="nonzero" fill-opacity="1" /><path clip-path="url(#clip190)" d="M3281.88 283.033 L3281.88 298.681 L3277.62 298.681 L3277.62 283.171 Q3277.62 279.491 3276.19 277.662 Q3274.75 275.834 3271.88 275.834 Q3268.43 275.834 3266.44 278.033 Q3264.45 280.232 3264.45 284.028 L3264.45 298.681 L3260.17 298.681 L3260.17 272.755 L3264.45 272.755 L3264.45 276.783 Q3265.98 274.445 3268.04 273.287 Q3270.12 272.13 3272.83 272.13 Q3277.3 272.13 3279.59 274.908 Q3281.88 277.662 3281.88 283.033 Z" fill="#000000" fill-rule="nonzero" fill-opacity="1" /><path clip-path="url(#clip190)" d="M3290.93 277.153 L3320.61 277.153 L3320.61 281.042 L3290.93 281.042 L3290.93 277.153 M3290.93 286.597 L3320.61 286.597 L3320.61 290.533 L3290.93 290.533 L3290.93 286.597 Z" fill="#000000" fill-rule="nonzero" fill-opacity="1" /><path clip-path="url(#clip190)" d="M3331.51 294.745 L3339.15 294.745 L3339.15 268.38 L3330.84 270.047 L3330.84 265.787 L3339.1 264.121 L3343.78 264.121 L3343.78 294.745 L3351.42 294.745 L3351.42 298.681 L3331.51 298.681 L3331.51 294.745 Z" fill="#000000" fill-rule="nonzero" fill-opacity="1" /><path clip-path="url(#clip190)" d="M3370.86 282.269 Q3367.53 282.269 3365.61 284.051 Q3363.71 285.833 3363.71 288.958 Q3363.71 292.083 3365.61 293.866 Q3367.53 295.648 3370.86 295.648 Q3374.19 295.648 3376.12 293.866 Q3378.04 292.06 3378.04 288.958 Q3378.04 285.833 3376.12 284.051 Q3374.22 282.269 3370.86 282.269 M3366.18 280.278 Q3363.18 279.537 3361.49 277.477 Q3359.82 275.417 3359.82 272.454 Q3359.82 268.31 3362.76 265.903 Q3365.72 263.496 3370.86 263.496 Q3376.02 263.496 3378.96 265.903 Q3381.9 268.31 3381.9 272.454 Q3381.9 275.417 3380.21 277.477 Q3378.55 279.537 3375.56 280.278 Q3378.94 281.065 3380.81 283.357 Q3382.71 285.648 3382.71 288.958 Q3382.71 293.982 3379.63 296.667 Q3376.58 299.352 3370.86 299.352 Q3365.14 299.352 3362.06 296.667 Q3359.01 293.982 3359.01 288.958 Q3359.01 285.648 3360.91 283.357 Q3362.81 281.065 3366.18 280.278 M3364.47 272.894 Q3364.47 275.579 3366.14 277.084 Q3367.83 278.588 3370.86 278.588 Q3373.87 278.588 3375.56 277.084 Q3377.27 275.579 3377.27 272.894 Q3377.27 270.209 3375.56 268.704 Q3373.87 267.199 3370.86 267.199 Q3367.83 267.199 3366.14 268.704 Q3364.47 270.209 3364.47 272.894 Z" fill="#000000" fill-rule="nonzero" fill-opacity="1" /><path clip-path="url(#clip190)" d="M3389.75 262.709 L3393.45 262.709 Q3396.93 268.172 3398.64 273.403 Q3400.37 278.634 3400.37 283.796 Q3400.37 288.982 3398.64 294.236 Q3396.93 299.491 3393.45 304.931 L3389.75 304.931 Q3392.83 299.63 3394.33 294.398 Q3395.86 289.144 3395.86 283.796 Q3395.86 278.449 3394.33 273.241 Q3392.83 268.033 3389.75 262.709 Z" fill="#000000" fill-rule="nonzero" fill-opacity="1" /><polyline clip-path="url(#clip190)" style="stroke:#ffa500; stroke-linecap:round; stroke-linejoin:round; stroke-width:20; stroke-opacity:1; fill:none" points="2436,333.241 2664.57,333.241 "/>
<path clip-path="url(#clip190)" d="M2702.67 315.961 L2707.35 315.961 L2707.35 350.521 L2702.67 350.521 L2702.67 315.961 Z" fill="#000000" fill-rule="nonzero" fill-opacity="1" /><path clip-path="url(#clip190)" d="M2733.53 328.53 L2733.53 314.502 L2737.79 314.502 L2737.79 350.521 L2733.53 350.521 L2733.53 346.632 Q2732.18 348.947 2730.12 350.081 Q2728.09 351.192 2725.22 351.192 Q2720.52 351.192 2717.55 347.442 Q2714.61 343.692 2714.61 337.581 Q2714.61 331.47 2717.55 327.72 Q2720.52 323.97 2725.22 323.97 Q2728.09 323.97 2730.12 325.104 Q2732.18 326.215 2733.53 328.53 M2719.01 337.581 Q2719.01 342.28 2720.93 344.965 Q2722.88 347.627 2726.26 347.627 Q2729.64 347.627 2731.58 344.965 Q2733.53 342.28 2733.53 337.581 Q2733.53 332.882 2731.58 330.22 Q2729.64 327.535 2726.26 327.535 Q2722.88 327.535 2720.93 330.22 Q2719.01 332.882 2719.01 337.581 Z" fill="#000000" fill-rule="nonzero" fill-opacity="1" /><path clip-path="url(#clip190)" d="M2768.73 336.493 L2768.73 338.576 L2749.15 338.576 Q2749.43 342.974 2751.79 345.289 Q2754.17 347.581 2758.41 347.581 Q2760.86 347.581 2763.16 346.979 Q2765.47 346.377 2767.74 345.173 L2767.74 349.201 Q2765.45 350.173 2763.04 350.683 Q2760.63 351.192 2758.16 351.192 Q2751.95 351.192 2748.32 347.581 Q2744.71 343.97 2744.71 337.812 Q2744.71 331.447 2748.13 327.72 Q2751.58 323.97 2757.42 323.97 Q2762.65 323.97 2765.68 327.349 Q2768.73 330.706 2768.73 336.493 M2764.48 335.243 Q2764.43 331.748 2762.51 329.664 Q2760.61 327.581 2757.46 327.581 Q2753.9 327.581 2751.74 329.595 Q2749.61 331.609 2749.29 335.266 L2764.48 335.243 Z" fill="#000000" fill-rule="nonzero" fill-opacity="1" /><path clip-path="url(#clip190)" d="M2797.28 334.873 L2797.28 350.521 L2793.02 350.521 L2793.02 335.011 Q2793.02 331.331 2791.58 329.502 Q2790.15 327.674 2787.28 327.674 Q2783.83 327.674 2781.84 329.873 Q2779.85 332.072 2779.85 335.868 L2779.85 350.521 L2775.56 350.521 L2775.56 324.595 L2779.85 324.595 L2779.85 328.623 Q2781.37 326.285 2783.43 325.127 Q2785.52 323.97 2788.23 323.97 Q2792.69 323.97 2794.98 326.748 Q2797.28 329.502 2797.28 334.873 Z" fill="#000000" fill-rule="nonzero" fill-opacity="1" /><path clip-path="url(#clip190)" d="M2809.98 317.234 L2809.98 324.595 L2818.76 324.595 L2818.76 327.905 L2809.98 327.905 L2809.98 341.979 Q2809.98 345.15 2810.84 346.053 Q2811.72 346.956 2814.38 346.956 L2818.76 346.956 L2818.76 350.521 L2814.38 350.521 Q2809.45 350.521 2807.58 348.692 Q2805.7 346.84 2805.7 341.979 L2805.7 327.905 L2802.58 327.905 L2802.58 324.595 L2805.7 324.595 L2805.7 317.234 L2809.98 317.234 Z" fill="#000000" fill-rule="nonzero" fill-opacity="1" /><path clip-path="url(#clip190)" d="M2824.36 324.595 L2828.62 324.595 L2828.62 350.521 L2824.36 350.521 L2824.36 324.595 M2824.36 314.502 L2828.62 314.502 L2828.62 319.896 L2824.36 319.896 L2824.36 314.502 Z" fill="#000000" fill-rule="nonzero" fill-opacity="1" /><path clip-path="url(#clip190)" d="M2850.66 314.502 L2850.66 318.044 L2846.58 318.044 Q2844.29 318.044 2843.39 318.97 Q2842.51 319.896 2842.51 322.303 L2842.51 324.595 L2849.52 324.595 L2849.52 327.905 L2842.51 327.905 L2842.51 350.521 L2838.22 350.521 L2838.22 327.905 L2834.15 327.905 L2834.15 324.595 L2838.22 324.595 L2838.22 322.789 Q2838.22 318.461 2840.24 316.493 Q2842.25 314.502 2846.63 314.502 L2850.66 314.502 Z" fill="#000000" fill-rule="nonzero" fill-opacity="1" /><path clip-path="url(#clip190)" d="M2854.22 324.595 L2858.48 324.595 L2858.48 350.521 L2854.22 350.521 L2854.22 324.595 M2854.22 314.502 L2858.48 314.502 L2858.48 319.896 L2854.22 319.896 L2854.22 314.502 Z" fill="#000000" fill-rule="nonzero" fill-opacity="1" /><path clip-path="url(#clip190)" d="M2879.17 337.488 Q2874.01 337.488 2872.02 338.669 Q2870.03 339.849 2870.03 342.697 Q2870.03 344.965 2871.51 346.308 Q2873.02 347.627 2875.59 347.627 Q2879.13 347.627 2881.26 345.127 Q2883.41 342.604 2883.41 338.437 L2883.41 337.488 L2879.17 337.488 M2887.67 335.729 L2887.67 350.521 L2883.41 350.521 L2883.41 346.585 Q2881.95 348.947 2879.78 350.081 Q2877.6 351.192 2874.45 351.192 Q2870.47 351.192 2868.11 348.97 Q2865.77 346.724 2865.77 342.974 Q2865.77 338.599 2868.69 336.377 Q2871.63 334.155 2877.44 334.155 L2883.41 334.155 L2883.41 333.738 Q2883.41 330.799 2881.47 329.201 Q2879.54 327.581 2876.05 327.581 Q2873.83 327.581 2871.72 328.113 Q2869.61 328.646 2867.67 329.711 L2867.67 325.775 Q2870.01 324.873 2872.21 324.433 Q2874.41 323.97 2876.49 323.97 Q2882.11 323.97 2884.89 326.886 Q2887.67 329.803 2887.67 335.729 Z" fill="#000000" fill-rule="nonzero" fill-opacity="1" /><path clip-path="url(#clip190)" d="M2915.05 337.581 Q2915.05 332.882 2913.11 330.22 Q2911.19 327.535 2907.81 327.535 Q2904.43 327.535 2902.48 330.22 Q2900.56 332.882 2900.56 337.581 Q2900.56 342.28 2902.48 344.965 Q2904.43 347.627 2907.81 347.627 Q2911.19 347.627 2913.11 344.965 Q2915.05 342.28 2915.05 337.581 M2900.56 328.53 Q2901.91 326.215 2903.94 325.104 Q2906 323.97 2908.85 323.97 Q2913.57 323.97 2916.51 327.72 Q2919.47 331.47 2919.47 337.581 Q2919.47 343.692 2916.51 347.442 Q2913.57 351.192 2908.85 351.192 Q2906 351.192 2903.94 350.081 Q2901.91 348.947 2900.56 346.632 L2900.56 350.521 L2896.28 350.521 L2896.28 314.502 L2900.56 314.502 L2900.56 328.53 Z" fill="#000000" fill-rule="nonzero" fill-opacity="1" /><path clip-path="url(#clip190)" d="M2926.53 314.502 L2930.79 314.502 L2930.79 350.521 L2926.53 350.521 L2926.53 314.502 Z" fill="#000000" fill-rule="nonzero" fill-opacity="1" /><path clip-path="url(#clip190)" d="M2961.88 336.493 L2961.88 338.576 L2942.3 338.576 Q2942.58 342.974 2944.94 345.289 Q2947.32 347.581 2951.56 347.581 Q2954.01 347.581 2956.3 346.979 Q2958.62 346.377 2960.89 345.173 L2960.89 349.201 Q2958.59 350.173 2956.19 350.683 Q2953.78 351.192 2951.3 351.192 Q2945.1 351.192 2941.47 347.581 Q2937.85 343.97 2937.85 337.812 Q2937.85 331.447 2941.28 327.72 Q2944.73 323.97 2950.56 323.97 Q2955.79 323.97 2958.83 327.349 Q2961.88 330.706 2961.88 336.493 M2957.62 335.243 Q2957.58 331.748 2955.65 329.664 Q2953.76 327.581 2950.61 327.581 Q2947.04 327.581 2944.89 329.595 Q2942.76 331.609 2942.44 335.266 L2957.62 335.243 Z" fill="#000000" fill-rule="nonzero" fill-opacity="1" /><path clip-path="url(#clip190)" d="M2994.17 314.549 Q2991.07 319.873 2989.57 325.081 Q2988.06 330.289 2988.06 335.636 Q2988.06 340.984 2989.57 346.238 Q2991.09 351.47 2994.17 356.771 L2990.47 356.771 Q2987 351.331 2985.26 346.076 Q2983.55 340.822 2983.55 335.636 Q2983.55 330.474 2985.26 325.243 Q2986.97 320.012 2990.47 314.549 L2994.17 314.549 Z" fill="#000000" fill-rule="nonzero" fill-opacity="1" /><path clip-path="url(#clip190)" d="M3023.99 334.873 L3023.99 350.521 L3019.73 350.521 L3019.73 335.011 Q3019.73 331.331 3018.29 329.502 Q3016.86 327.674 3013.99 327.674 Q3010.54 327.674 3008.55 329.873 Q3006.56 332.072 3006.56 335.868 L3006.56 350.521 L3002.27 350.521 L3002.27 324.595 L3006.56 324.595 L3006.56 328.623 Q3008.09 326.285 3010.15 325.127 Q3012.23 323.97 3014.94 323.97 Q3019.4 323.97 3021.7 326.748 Q3023.99 329.502 3023.99 334.873 Z" fill="#000000" fill-rule="nonzero" fill-opacity="1" /><path clip-path="url(#clip190)" d="M3033.04 328.993 L3062.71 328.993 L3062.71 332.882 L3033.04 332.882 L3033.04 328.993 M3033.04 338.437 L3062.71 338.437 L3062.71 342.373 L3033.04 342.373 L3033.04 338.437 Z" fill="#000000" fill-rule="nonzero" fill-opacity="1" /><path clip-path="url(#clip190)" d="M3076.83 346.585 L3093.15 346.585 L3093.15 350.521 L3071.21 350.521 L3071.21 346.585 Q3073.87 343.831 3078.46 339.201 Q3083.06 334.548 3084.24 333.206 Q3086.49 330.683 3087.37 328.947 Q3088.27 327.187 3088.27 325.498 Q3088.27 322.743 3086.33 321.007 Q3084.4 319.271 3081.3 319.271 Q3079.1 319.271 3076.65 320.035 Q3074.22 320.799 3071.44 322.349 L3071.44 317.627 Q3074.27 316.493 3076.72 315.914 Q3079.17 315.336 3081.21 315.336 Q3086.58 315.336 3089.77 318.021 Q3092.97 320.706 3092.97 325.197 Q3092.97 327.326 3092.16 329.248 Q3091.37 331.146 3089.27 333.738 Q3088.69 334.41 3085.58 337.627 Q3082.48 340.822 3076.83 346.585 Z" fill="#000000" fill-rule="nonzero" fill-opacity="1" /><path clip-path="url(#clip190)" d="M3103.78 346.585 L3111.42 346.585 L3111.42 320.22 L3103.11 321.887 L3103.11 317.627 L3111.37 315.961 L3116.05 315.961 L3116.05 346.585 L3123.69 346.585 L3123.69 350.521 L3103.78 350.521 L3103.78 346.585 Z" fill="#000000" fill-rule="nonzero" fill-opacity="1" /><path clip-path="url(#clip190)" d="M3131.86 314.549 L3135.56 314.549 Q3139.03 320.012 3140.75 325.243 Q3142.48 330.474 3142.48 335.636 Q3142.48 340.822 3140.75 346.076 Q3139.03 351.331 3135.56 356.771 L3131.86 356.771 Q3134.94 351.47 3136.44 346.238 Q3137.97 340.984 3137.97 335.636 Q3137.97 330.289 3136.44 325.081 Q3134.94 319.873 3131.86 314.549 Z" fill="#000000" fill-rule="nonzero" fill-opacity="1" /></svg>
