<?xml version="1.0" encoding="utf-8"?>
<svg xmlns="http://www.w3.org/2000/svg" xmlns:xlink="http://www.w3.org/1999/xlink" width="600" height="400" viewBox="0 0 2400 1600">
<defs>
  <clipPath id="clip160">
    <rect x="0" y="0" width="2400" height="1600"/>
  </clipPath>
</defs>
<path clip-path="url(#clip160)" d="M0 1600 L2400 1600 L2400 0 L0 0  Z" fill="#ffffff" fill-rule="evenodd" fill-opacity="1"/>
<defs>
  <clipPath id="clip161">
    <rect x="480" y="0" width="1681" height="1600"/>
  </clipPath>
</defs>
<path clip-path="url(#clip160)" d="M205.121 1423.18 L2352.76 1423.18 L2352.76 123.472 L205.121 123.472  Z" fill="#ffffff" fill-rule="evenodd" fill-opacity="1"/>
<defs>
  <clipPath id="clip162">
    <rect x="205" y="123" width="2149" height="1301"/>
  </clipPath>
</defs>
<polyline clip-path="url(#clip162)" style="stroke:#000000; stroke-linecap:round; stroke-linejoin:round; stroke-width:2; stroke-opacity:0.1; fill:none" points="259.855,1423.18 259.855,123.472 "/>
<polyline clip-path="url(#clip162)" style="stroke:#000000; stroke-linecap:round; stroke-linejoin:round; stroke-width:2; stroke-opacity:0.1; fill:none" points="864.652,1423.18 864.652,123.472 "/>
<polyline clip-path="url(#clip162)" style="stroke:#000000; stroke-linecap:round; stroke-linejoin:round; stroke-width:2; stroke-opacity:0.1; fill:none" points="1469.45,1423.18 1469.45,123.472 "/>
<polyline clip-path="url(#clip162)" style="stroke:#000000; stroke-linecap:round; stroke-linejoin:round; stroke-width:2; stroke-opacity:0.1; fill:none" points="2074.25,1423.18 2074.25,123.472 "/>
<polyline clip-path="url(#clip162)" style="stroke:#000000; stroke-linecap:round; stroke-linejoin:round; stroke-width:2; stroke-opacity:0.1; fill:none" points="205.121,1386.4 2352.76,1386.4 "/>
<polyline clip-path="url(#clip162)" style="stroke:#000000; stroke-linecap:round; stroke-linejoin:round; stroke-width:2; stroke-opacity:0.1; fill:none" points="205.121,1135.97 2352.76,1135.97 "/>
<polyline clip-path="url(#clip162)" style="stroke:#000000; stroke-linecap:round; stroke-linejoin:round; stroke-width:2; stroke-opacity:0.1; fill:none" points="205.121,885.549 2352.76,885.549 "/>
<polyline clip-path="url(#clip162)" style="stroke:#000000; stroke-linecap:round; stroke-linejoin:round; stroke-width:2; stroke-opacity:0.1; fill:none" points="205.121,635.125 2352.76,635.125 "/>
<polyline clip-path="url(#clip162)" style="stroke:#000000; stroke-linecap:round; stroke-linejoin:round; stroke-width:2; stroke-opacity:0.1; fill:none" points="205.121,384.702 2352.76,384.702 "/>
<polyline clip-path="url(#clip162)" style="stroke:#000000; stroke-linecap:round; stroke-linejoin:round; stroke-width:2; stroke-opacity:0.1; fill:none" points="205.121,134.279 2352.76,134.279 "/>
<polyline clip-path="url(#clip160)" style="stroke:#000000; stroke-linecap:round; stroke-linejoin:round; stroke-width:4; stroke-opacity:1; fill:none" points="205.121,1423.18 2352.76,1423.18 "/>
<polyline clip-path="url(#clip160)" style="stroke:#000000; stroke-linecap:round; stroke-linejoin:round; stroke-width:4; stroke-opacity:1; fill:none" points="259.855,1423.18 259.855,1404.28 "/>
<polyline clip-path="url(#clip160)" style="stroke:#000000; stroke-linecap:round; stroke-linejoin:round; stroke-width:4; stroke-opacity:1; fill:none" points="864.652,1423.18 864.652,1404.28 "/>
<polyline clip-path="url(#clip160)" style="stroke:#000000; stroke-linecap:round; stroke-linejoin:round; stroke-width:4; stroke-opacity:1; fill:none" points="1469.45,1423.18 1469.45,1404.28 "/>
<polyline clip-path="url(#clip160)" style="stroke:#000000; stroke-linecap:round; stroke-linejoin:round; stroke-width:4; stroke-opacity:1; fill:none" points="2074.25,1423.18 2074.25,1404.28 "/>
<path clip-path="url(#clip160)" d="M259.855 1454.1 Q256.244 1454.1 254.415 1457.66 Q252.61 1461.2 252.61 1468.33 Q252.61 1475.44 254.415 1479.01 Q256.244 1482.55 259.855 1482.55 Q263.489 1482.55 265.295 1479.01 Q267.124 1475.44 267.124 1468.33 Q267.124 1461.2 265.295 1457.66 Q263.489 1454.1 259.855 1454.1 M259.855 1450.39 Q265.665 1450.39 268.721 1455 Q271.8 1459.58 271.8 1468.33 Q271.8 1477.06 268.721 1481.67 Q265.665 1486.25 259.855 1486.25 Q254.045 1486.25 250.966 1481.67 Q247.911 1477.06 247.911 1468.33 Q247.911 1459.58 250.966 1455 Q254.045 1450.39 259.855 1450.39 Z" fill="#000000" fill-rule="nonzero" fill-opacity="1" /><path clip-path="url(#clip160)" d="M824.259 1481.64 L831.898 1481.64 L831.898 1455.28 L823.588 1456.95 L823.588 1452.69 L831.852 1451.02 L836.527 1451.02 L836.527 1481.64 L844.166 1481.64 L844.166 1485.58 L824.259 1485.58 L824.259 1481.64 Z" fill="#000000" fill-rule="nonzero" fill-opacity="1" /><path clip-path="url(#clip160)" d="M863.611 1454.1 Q860 1454.1 858.171 1457.66 Q856.365 1461.2 856.365 1468.33 Q856.365 1475.44 858.171 1479.01 Q860 1482.55 863.611 1482.55 Q867.245 1482.55 869.05 1479.01 Q870.879 1475.44 870.879 1468.33 Q870.879 1461.2 869.05 1457.66 Q867.245 1454.1 863.611 1454.1 M863.611 1450.39 Q869.421 1450.39 872.476 1455 Q875.555 1459.58 875.555 1468.33 Q875.555 1477.06 872.476 1481.67 Q869.421 1486.25 863.611 1486.25 Q857.801 1486.25 854.722 1481.67 Q851.666 1477.06 851.666 1468.33 Q851.666 1459.58 854.722 1455 Q857.801 1450.39 863.611 1450.39 Z" fill="#000000" fill-rule="nonzero" fill-opacity="1" /><path clip-path="url(#clip160)" d="M893.773 1454.1 Q890.161 1454.1 888.333 1457.66 Q886.527 1461.2 886.527 1468.33 Q886.527 1475.44 888.333 1479.01 Q890.161 1482.55 893.773 1482.55 Q897.407 1482.55 899.212 1479.01 Q901.041 1475.44 901.041 1468.33 Q901.041 1461.2 899.212 1457.66 Q897.407 1454.1 893.773 1454.1 M893.773 1450.39 Q899.583 1450.39 902.638 1455 Q905.717 1459.58 905.717 1468.33 Q905.717 1477.06 902.638 1481.67 Q899.583 1486.25 893.773 1486.25 Q887.962 1486.25 884.884 1481.67 Q881.828 1477.06 881.828 1468.33 Q881.828 1459.58 884.884 1455 Q887.962 1450.39 893.773 1450.39 Z" fill="#000000" fill-rule="nonzero" fill-opacity="1" /><path clip-path="url(#clip160)" d="M1433.14 1481.64 L1449.46 1481.64 L1449.46 1485.58 L1427.52 1485.58 L1427.52 1481.64 Q1430.18 1478.89 1434.76 1474.26 Q1439.37 1469.61 1440.55 1468.27 Q1442.79 1465.74 1443.67 1464.01 Q1444.58 1462.25 1444.58 1460.56 Q1444.58 1457.8 1442.63 1456.07 Q1440.71 1454.33 1437.61 1454.33 Q1435.41 1454.33 1432.96 1455.09 Q1430.53 1455.86 1427.75 1457.41 L1427.75 1452.69 Q1430.57 1451.55 1433.03 1450.97 Q1435.48 1450.39 1437.52 1450.39 Q1442.89 1450.39 1446.08 1453.08 Q1449.28 1455.77 1449.28 1460.26 Q1449.28 1462.39 1448.47 1464.31 Q1447.68 1466.2 1445.57 1468.8 Q1444.99 1469.47 1441.89 1472.69 Q1438.79 1475.88 1433.14 1481.64 Z" fill="#000000" fill-rule="nonzero" fill-opacity="1" /><path clip-path="url(#clip160)" d="M1469.28 1454.1 Q1465.66 1454.1 1463.84 1457.66 Q1462.03 1461.2 1462.03 1468.33 Q1462.03 1475.44 1463.84 1479.01 Q1465.66 1482.55 1469.28 1482.55 Q1472.91 1482.55 1474.72 1479.01 Q1476.54 1475.44 1476.54 1468.33 Q1476.54 1461.2 1474.72 1457.66 Q1472.91 1454.1 1469.28 1454.1 M1469.28 1450.39 Q1475.09 1450.39 1478.14 1455 Q1481.22 1459.58 1481.22 1468.33 Q1481.22 1477.06 1478.14 1481.67 Q1475.09 1486.25 1469.28 1486.25 Q1463.47 1486.25 1460.39 1481.67 Q1457.33 1477.06 1457.33 1468.33 Q1457.33 1459.58 1460.39 1455 Q1463.47 1450.39 1469.28 1450.39 Z" fill="#000000" fill-rule="nonzero" fill-opacity="1" /><path clip-path="url(#clip160)" d="M1499.44 1454.1 Q1495.83 1454.1 1494 1457.66 Q1492.19 1461.2 1492.19 1468.33 Q1492.19 1475.44 1494 1479.01 Q1495.83 1482.55 1499.44 1482.55 Q1503.07 1482.55 1504.88 1479.01 Q1506.71 1475.44 1506.71 1468.33 Q1506.71 1461.2 1504.88 1457.66 Q1503.07 1454.1 1499.44 1454.1 M1499.44 1450.39 Q1505.25 1450.39 1508.3 1455 Q1511.38 1459.58 1511.38 1468.33 Q1511.38 1477.06 1508.3 1481.67 Q1505.25 1486.25 1499.44 1486.25 Q1493.63 1486.25 1490.55 1481.67 Q1487.49 1477.06 1487.49 1468.33 Q1487.49 1459.58 1490.55 1455 Q1493.63 1450.39 1499.44 1450.39 Z" fill="#000000" fill-rule="nonzero" fill-opacity="1" /><path clip-path="url(#clip160)" d="M2048.01 1466.95 Q2051.36 1467.66 2053.24 1469.93 Q2055.14 1472.2 2055.14 1475.53 Q2055.14 1480.65 2051.62 1483.45 Q2048.1 1486.25 2041.62 1486.25 Q2039.44 1486.25 2037.13 1485.81 Q2034.84 1485.39 2032.38 1484.54 L2032.38 1480.02 Q2034.33 1481.16 2036.64 1481.74 Q2038.96 1482.32 2041.48 1482.32 Q2045.88 1482.32 2048.17 1480.58 Q2050.49 1478.84 2050.49 1475.53 Q2050.49 1472.48 2048.33 1470.77 Q2046.2 1469.03 2042.38 1469.03 L2038.36 1469.03 L2038.36 1465.19 L2042.57 1465.19 Q2046.02 1465.19 2047.85 1463.82 Q2049.68 1462.43 2049.68 1459.84 Q2049.68 1457.18 2047.78 1455.77 Q2045.9 1454.33 2042.38 1454.33 Q2040.46 1454.33 2038.26 1454.75 Q2036.06 1455.16 2033.43 1456.04 L2033.43 1451.88 Q2036.09 1451.14 2038.4 1450.77 Q2040.74 1450.39 2042.8 1450.39 Q2048.12 1450.39 2051.23 1452.83 Q2054.33 1455.23 2054.33 1459.35 Q2054.33 1462.22 2052.68 1464.21 Q2051.04 1466.18 2048.01 1466.95 Z" fill="#000000" fill-rule="nonzero" fill-opacity="1" /><path clip-path="url(#clip160)" d="M2074 1454.1 Q2070.39 1454.1 2068.56 1457.66 Q2066.76 1461.2 2066.76 1468.33 Q2066.76 1475.44 2068.56 1479.01 Q2070.39 1482.55 2074 1482.55 Q2077.64 1482.55 2079.44 1479.01 Q2081.27 1475.44 2081.27 1468.33 Q2081.27 1461.2 2079.44 1457.66 Q2077.64 1454.1 2074 1454.1 M2074 1450.39 Q2079.81 1450.39 2082.87 1455 Q2085.95 1459.58 2085.95 1468.33 Q2085.95 1477.06 2082.87 1481.67 Q2079.81 1486.25 2074 1486.25 Q2068.19 1486.25 2065.11 1481.67 Q2062.06 1477.06 2062.06 1468.33 Q2062.06 1459.58 2065.11 1455 Q2068.19 1450.39 2074 1450.39 Z" fill="#000000" fill-rule="nonzero" fill-opacity="1" /><path clip-path="url(#clip160)" d="M2104.17 1454.1 Q2100.55 1454.1 2098.73 1457.66 Q2096.92 1461.2 2096.92 1468.33 Q2096.92 1475.44 2098.73 1479.01 Q2100.55 1482.55 2104.17 1482.55 Q2107.8 1482.55 2109.61 1479.01 Q2111.43 1475.44 2111.43 1468.33 Q2111.43 1461.2 2109.61 1457.66 Q2107.8 1454.1 2104.17 1454.1 M2104.17 1450.39 Q2109.98 1450.39 2113.03 1455 Q2116.11 1459.58 2116.11 1468.33 Q2116.11 1477.06 2113.03 1481.67 Q2109.98 1486.25 2104.17 1486.25 Q2098.36 1486.25 2095.28 1481.67 Q2092.22 1477.06 2092.22 1468.33 Q2092.22 1459.58 2095.28 1455 Q2098.36 1450.39 2104.17 1450.39 Z" fill="#000000" fill-rule="nonzero" fill-opacity="1" /><path clip-path="url(#clip160)" d="M1200.82 1520.52 L1241.01 1520.52 L1241.01 1525.93 L1224.15 1525.93 L1224.15 1568.04 L1217.68 1568.04 L1217.68 1525.93 L1200.82 1525.93 L1200.82 1520.52 Z" fill="#000000" fill-rule="nonzero" fill-opacity="1" /><path clip-path="url(#clip160)" d="M1244.96 1532.4 L1250.82 1532.4 L1250.82 1568.04 L1244.96 1568.04 L1244.96 1532.4 M1244.96 1518.52 L1250.82 1518.52 L1250.82 1525.93 L1244.96 1525.93 L1244.96 1518.52 Z" fill="#000000" fill-rule="nonzero" fill-opacity="1" /><path clip-path="url(#clip160)" d="M1290.83 1539.24 Q1293.02 1535.29 1296.08 1533.41 Q1299.13 1531.54 1303.27 1531.54 Q1308.84 1531.54 1311.87 1535.45 Q1314.89 1539.33 1314.89 1546.53 L1314.89 1568.04 L1309 1568.04 L1309 1546.72 Q1309 1541.59 1307.19 1539.11 Q1305.37 1536.63 1301.65 1536.63 Q1297.1 1536.63 1294.45 1539.65 Q1291.81 1542.68 1291.81 1547.9 L1291.81 1568.04 L1285.92 1568.04 L1285.92 1546.72 Q1285.92 1541.56 1284.11 1539.11 Q1282.3 1536.63 1278.51 1536.63 Q1274.02 1536.63 1271.38 1539.68 Q1268.74 1542.71 1268.74 1547.9 L1268.74 1568.04 L1262.85 1568.04 L1262.85 1532.4 L1268.74 1532.4 L1268.74 1537.93 Q1270.74 1534.66 1273.54 1533.1 Q1276.34 1531.54 1280.2 1531.54 Q1284.08 1531.54 1286.78 1533.51 Q1289.52 1535.48 1290.83 1539.24 Z" fill="#000000" fill-rule="nonzero" fill-opacity="1" /><path clip-path="url(#clip160)" d="M1357.06 1548.76 L1357.06 1551.62 L1330.13 1551.62 Q1330.52 1557.67 1333.76 1560.85 Q1337.04 1564 1342.87 1564 Q1346.24 1564 1349.39 1563.17 Q1352.57 1562.35 1355.69 1560.69 L1355.69 1566.23 Q1352.54 1567.57 1349.23 1568.27 Q1345.92 1568.97 1342.52 1568.97 Q1333.99 1568.97 1328.99 1564 Q1324.02 1559.04 1324.02 1550.57 Q1324.02 1541.82 1328.73 1536.69 Q1333.48 1531.54 1341.5 1531.54 Q1348.69 1531.54 1352.86 1536.18 Q1357.06 1540.8 1357.06 1548.76 M1351.21 1547.04 Q1351.14 1542.23 1348.5 1539.37 Q1345.89 1536.5 1341.56 1536.5 Q1336.66 1536.5 1333.7 1539.27 Q1330.77 1542.04 1330.33 1547.07 L1351.21 1547.04 Z" fill="#000000" fill-rule="nonzero" fill-opacity="1" /><polyline clip-path="url(#clip160)" style="stroke:#000000; stroke-linecap:round; stroke-linejoin:round; stroke-width:4; stroke-opacity:1; fill:none" points="205.121,1423.18 205.121,123.472 "/>
<polyline clip-path="url(#clip160)" style="stroke:#000000; stroke-linecap:round; stroke-linejoin:round; stroke-width:4; stroke-opacity:1; fill:none" points="205.121,1386.4 224.019,1386.4 "/>
<polyline clip-path="url(#clip160)" style="stroke:#000000; stroke-linecap:round; stroke-linejoin:round; stroke-width:4; stroke-opacity:1; fill:none" points="205.121,1135.97 224.019,1135.97 "/>
<polyline clip-path="url(#clip160)" style="stroke:#000000; stroke-linecap:round; stroke-linejoin:round; stroke-width:4; stroke-opacity:1; fill:none" points="205.121,885.549 224.019,885.549 "/>
<polyline clip-path="url(#clip160)" style="stroke:#000000; stroke-linecap:round; stroke-linejoin:round; stroke-width:4; stroke-opacity:1; fill:none" points="205.121,635.125 224.019,635.125 "/>
<polyline clip-path="url(#clip160)" style="stroke:#000000; stroke-linecap:round; stroke-linejoin:round; stroke-width:4; stroke-opacity:1; fill:none" points="205.121,384.702 224.019,384.702 "/>
<polyline clip-path="url(#clip160)" style="stroke:#000000; stroke-linecap:round; stroke-linejoin:round; stroke-width:4; stroke-opacity:1; fill:none" points="205.121,134.279 224.019,134.279 "/>
<path clip-path="url(#clip160)" d="M157.177 1372.19 Q153.566 1372.19 151.737 1375.76 Q149.931 1379.3 149.931 1386.43 Q149.931 1393.54 151.737 1397.1 Q153.566 1400.64 157.177 1400.64 Q160.811 1400.64 162.616 1397.1 Q164.445 1393.54 164.445 1386.43 Q164.445 1379.3 162.616 1375.76 Q160.811 1372.19 157.177 1372.19 M157.177 1368.49 Q162.987 1368.49 166.042 1373.1 Q169.121 1377.68 169.121 1386.43 Q169.121 1395.16 166.042 1399.76 Q162.987 1404.35 157.177 1404.35 Q151.366 1404.35 148.288 1399.76 Q145.232 1395.16 145.232 1386.43 Q145.232 1377.68 148.288 1373.1 Q151.366 1368.49 157.177 1368.49 Z" fill="#000000" fill-rule="nonzero" fill-opacity="1" /><path clip-path="url(#clip160)" d="M117.825 1149.32 L125.464 1149.32 L125.464 1122.95 L117.154 1124.62 L117.154 1120.36 L125.418 1118.69 L130.093 1118.69 L130.093 1149.32 L137.732 1149.32 L137.732 1153.25 L117.825 1153.25 L117.825 1149.32 Z" fill="#000000" fill-rule="nonzero" fill-opacity="1" /><path clip-path="url(#clip160)" d="M157.177 1121.77 Q153.566 1121.77 151.737 1125.34 Q149.931 1128.88 149.931 1136.01 Q149.931 1143.11 151.737 1146.68 Q153.566 1150.22 157.177 1150.22 Q160.811 1150.22 162.616 1146.68 Q164.445 1143.11 164.445 1136.01 Q164.445 1128.88 162.616 1125.34 Q160.811 1121.77 157.177 1121.77 M157.177 1118.07 Q162.987 1118.07 166.042 1122.67 Q169.121 1127.26 169.121 1136.01 Q169.121 1144.73 166.042 1149.34 Q162.987 1153.92 157.177 1153.92 Q151.366 1153.92 148.288 1149.34 Q145.232 1144.73 145.232 1136.01 Q145.232 1127.26 148.288 1122.67 Q151.366 1118.07 157.177 1118.07 Z" fill="#000000" fill-rule="nonzero" fill-opacity="1" /><path clip-path="url(#clip160)" d="M121.043 898.894 L137.362 898.894 L137.362 902.829 L115.418 902.829 L115.418 898.894 Q118.08 896.139 122.663 891.509 Q127.269 886.857 128.45 885.514 Q130.695 882.991 131.575 881.255 Q132.478 879.496 132.478 877.806 Q132.478 875.051 130.533 873.315 Q128.612 871.579 125.51 871.579 Q123.311 871.579 120.857 872.343 Q118.427 873.107 115.649 874.658 L115.649 869.935 Q118.473 868.801 120.927 868.223 Q123.38 867.644 125.418 867.644 Q130.788 867.644 133.982 870.329 Q137.177 873.014 137.177 877.505 Q137.177 879.635 136.367 881.556 Q135.579 883.454 133.473 886.047 Q132.894 886.718 129.792 889.935 Q126.691 893.13 121.043 898.894 Z" fill="#000000" fill-rule="nonzero" fill-opacity="1" /><path clip-path="url(#clip160)" d="M157.177 871.348 Q153.566 871.348 151.737 874.912 Q149.931 878.454 149.931 885.584 Q149.931 892.69 151.737 896.255 Q153.566 899.796 157.177 899.796 Q160.811 899.796 162.616 896.255 Q164.445 892.69 164.445 885.584 Q164.445 878.454 162.616 874.912 Q160.811 871.348 157.177 871.348 M157.177 867.644 Q162.987 867.644 166.042 872.25 Q169.121 876.834 169.121 885.584 Q169.121 894.31 166.042 898.917 Q162.987 903.5 157.177 903.5 Q151.366 903.5 148.288 898.917 Q145.232 894.31 145.232 885.584 Q145.232 876.834 148.288 872.25 Q151.366 867.644 157.177 867.644 Z" fill="#000000" fill-rule="nonzero" fill-opacity="1" /><path clip-path="url(#clip160)" d="M131.181 633.771 Q134.538 634.489 136.413 636.757 Q138.311 639.026 138.311 642.359 Q138.311 647.475 134.792 650.276 Q131.274 653.077 124.793 653.077 Q122.617 653.077 120.302 652.637 Q118.01 652.22 115.556 651.364 L115.556 646.85 Q117.501 647.984 119.816 648.563 Q122.13 649.142 124.654 649.142 Q129.052 649.142 131.343 647.405 Q133.658 645.669 133.658 642.359 Q133.658 639.304 131.505 637.591 Q129.376 635.855 125.556 635.855 L121.529 635.855 L121.529 632.012 L125.742 632.012 Q129.191 632.012 131.019 630.646 Q132.848 629.257 132.848 626.665 Q132.848 624.003 130.95 622.591 Q129.075 621.156 125.556 621.156 Q123.635 621.156 121.436 621.572 Q119.237 621.989 116.598 622.869 L116.598 618.702 Q119.26 617.961 121.575 617.591 Q123.913 617.22 125.973 617.22 Q131.297 617.22 134.399 619.651 Q137.501 622.058 137.501 626.179 Q137.501 629.049 135.857 631.04 Q134.214 633.007 131.181 633.771 Z" fill="#000000" fill-rule="nonzero" fill-opacity="1" /><path clip-path="url(#clip160)" d="M157.177 620.924 Q153.566 620.924 151.737 624.489 Q149.931 628.031 149.931 635.16 Q149.931 642.267 151.737 645.831 Q153.566 649.373 157.177 649.373 Q160.811 649.373 162.616 645.831 Q164.445 642.267 164.445 635.16 Q164.445 628.031 162.616 624.489 Q160.811 620.924 157.177 620.924 M157.177 617.22 Q162.987 617.22 166.042 621.827 Q169.121 626.41 169.121 635.16 Q169.121 643.887 166.042 648.493 Q162.987 653.077 157.177 653.077 Q151.366 653.077 148.288 648.493 Q145.232 643.887 145.232 635.16 Q145.232 626.41 148.288 621.827 Q151.366 617.22 157.177 617.22 Z" fill="#000000" fill-rule="nonzero" fill-opacity="1" /><path clip-path="url(#clip160)" d="M129.862 371.496 L118.056 389.945 L129.862 389.945 L129.862 371.496 M128.635 367.422 L134.515 367.422 L134.515 389.945 L139.445 389.945 L139.445 393.834 L134.515 393.834 L134.515 401.982 L129.862 401.982 L129.862 393.834 L114.26 393.834 L114.26 389.32 L128.635 367.422 Z" fill="#000000" fill-rule="nonzero" fill-opacity="1" /><path clip-path="url(#clip160)" d="M157.177 370.501 Q153.566 370.501 151.737 374.065 Q149.931 377.607 149.931 384.737 Q149.931 391.843 151.737 395.408 Q153.566 398.95 157.177 398.95 Q160.811 398.95 162.616 395.408 Q164.445 391.843 164.445 384.737 Q164.445 377.607 162.616 374.065 Q160.811 370.501 157.177 370.501 M157.177 366.797 Q162.987 366.797 166.042 371.403 Q169.121 375.987 169.121 384.737 Q169.121 393.464 166.042 398.07 Q162.987 402.653 157.177 402.653 Q151.366 402.653 148.288 398.07 Q145.232 393.464 145.232 384.737 Q145.232 375.987 148.288 371.403 Q151.366 366.797 157.177 366.797 Z" fill="#000000" fill-rule="nonzero" fill-opacity="1" /><path clip-path="url(#clip160)" d="M117.061 116.999 L135.417 116.999 L135.417 120.934 L121.343 120.934 L121.343 129.406 Q122.362 129.059 123.38 128.897 Q124.399 128.711 125.418 128.711 Q131.205 128.711 134.584 131.883 Q137.964 135.054 137.964 140.471 Q137.964 146.049 134.492 149.151 Q131.019 152.23 124.7 152.23 Q122.524 152.23 120.255 151.86 Q118.01 151.489 115.603 150.748 L115.603 146.049 Q117.686 147.184 119.908 147.739 Q122.13 148.295 124.607 148.295 Q128.612 148.295 130.95 146.188 Q133.288 144.082 133.288 140.471 Q133.288 136.86 130.95 134.753 Q128.612 132.647 124.607 132.647 Q122.732 132.647 120.857 133.063 Q119.006 133.48 117.061 134.36 L117.061 116.999 Z" fill="#000000" fill-rule="nonzero" fill-opacity="1" /><path clip-path="url(#clip160)" d="M157.177 120.077 Q153.566 120.077 151.737 123.642 Q149.931 127.184 149.931 134.313 Q149.931 141.42 151.737 144.985 Q153.566 148.526 157.177 148.526 Q160.811 148.526 162.616 144.985 Q164.445 141.42 164.445 134.313 Q164.445 127.184 162.616 123.642 Q160.811 120.077 157.177 120.077 M157.177 116.374 Q162.987 116.374 166.042 120.98 Q169.121 125.563 169.121 134.313 Q169.121 143.04 166.042 147.647 Q162.987 152.23 157.177 152.23 Q151.366 152.23 148.288 147.647 Q145.232 143.04 145.232 134.313 Q145.232 125.563 148.288 120.98 Q151.366 116.374 157.177 116.374 Z" fill="#000000" fill-rule="nonzero" fill-opacity="1" /><path clip-path="url(#clip160)" d="M20.1444 820.225 L26.9239 820.225 Q23.9002 823.472 22.4043 827.164 Q20.9083 830.824 20.9083 834.962 Q20.9083 843.11 25.9054 847.439 Q30.8707 851.767 40.2919 851.767 Q49.6813 851.767 54.6784 847.439 Q59.6436 843.11 59.6436 834.962 Q59.6436 830.824 58.1477 827.164 Q56.6518 823.472 53.6281 820.225 L60.3439 820.225 Q62.6355 823.599 63.7814 827.387 Q64.9272 831.143 64.9272 835.344 Q64.9272 846.134 58.3387 852.34 Q51.7183 858.547 40.2919 858.547 Q28.8336 858.547 22.2451 852.34 Q15.6248 846.134 15.6248 835.344 Q15.6248 831.079 16.7706 827.323 Q17.8846 823.535 20.1444 820.225 Z" fill="#000000" fill-rule="nonzero" fill-opacity="1" /><path clip-path="url(#clip160)" d="M16.4842 816.883 L16.4842 776.684 L21.895 776.684 L21.895 793.553 L64.0042 793.553 L64.0042 800.014 L21.895 800.014 L21.895 816.883 L16.4842 816.883 Z" fill="#000000" fill-rule="nonzero" fill-opacity="1" /><path clip-path="url(#clip160)" d="M16.4842 770.477 L16.4842 761.82 L56.238 740.749 L16.4842 740.749 L16.4842 734.511 L64.0042 734.511 L64.0042 743.168 L24.2503 764.239 L64.0042 764.239 L64.0042 770.477 L16.4842 770.477 Z" fill="#000000" fill-rule="nonzero" fill-opacity="1" /><path clip-path="url(#clip160)" d="M16.4842 728.305 L16.4842 688.105 L21.895 688.105 L21.895 704.974 L64.0042 704.974 L64.0042 711.435 L21.895 711.435 L21.895 728.305 L16.4842 728.305 Z" fill="#000000" fill-rule="nonzero" fill-opacity="1" /><path clip-path="url(#clip160)" d="M1057.82 18.8205 L1057.82 41.5461 L1068.11 41.5461 Q1073.82 41.5461 1076.94 38.5889 Q1080.06 35.6318 1080.06 30.163 Q1080.06 24.7348 1076.94 21.7777 Q1073.82 18.8205 1068.11 18.8205 L1057.82 18.8205 M1049.64 12.096 L1068.11 12.096 Q1078.28 12.096 1083.46 16.714 Q1088.69 21.2916 1088.69 30.163 Q1088.69 39.1155 1083.46 43.6931 Q1078.28 48.2706 1068.11 48.2706 L1057.82 48.2706 L1057.82 72.576 L1049.64 72.576 L1049.64 12.096 Z" fill="#000000" fill-rule="nonzero" fill-opacity="1" /><path clip-path="url(#clip160)" d="M1116.23 49.7694 Q1107.2 49.7694 1103.72 51.8354 Q1100.23 53.9013 1100.23 58.8839 Q1100.23 62.8538 1102.83 65.2034 Q1105.46 67.5124 1109.95 67.5124 Q1116.15 67.5124 1119.88 63.1374 Q1123.65 58.7219 1123.65 51.4303 L1123.65 49.7694 L1116.23 49.7694 M1131.1 46.6907 L1131.1 72.576 L1123.65 72.576 L1123.65 65.6895 Q1121.09 69.8214 1117.29 71.8063 Q1113.48 73.7508 1107.97 73.7508 Q1101 73.7508 1096.87 69.8619 Q1092.78 65.9325 1092.78 59.3701 Q1092.78 51.7138 1097.88 47.825 Q1103.03 43.9361 1113.2 43.9361 L1123.65 43.9361 L1123.65 43.2069 Q1123.65 38.0623 1120.24 35.2672 Q1116.88 32.4315 1110.77 32.4315 Q1106.88 32.4315 1103.19 33.3632 Q1099.5 34.295 1096.1 36.1584 L1096.1 29.2718 Q1100.19 27.692 1104.04 26.9223 Q1107.89 26.1121 1111.53 26.1121 Q1121.38 26.1121 1126.24 31.2163 Q1131.1 36.3204 1131.1 46.6907 Z" fill="#000000" fill-rule="nonzero" fill-opacity="1" /><path clip-path="url(#clip160)" d="M1153.83 14.324 L1153.83 27.2059 L1169.18 27.2059 L1169.18 32.9987 L1153.83 32.9987 L1153.83 57.6282 Q1153.83 63.1779 1155.33 64.7578 Q1156.86 66.3376 1161.52 66.3376 L1169.18 66.3376 L1169.18 72.576 L1161.52 72.576 Q1152.89 72.576 1149.61 69.3758 Q1146.33 66.1351 1146.33 57.6282 L1146.33 32.9987 L1140.86 32.9987 L1140.86 27.2059 L1146.33 27.2059 L1146.33 14.324 L1153.83 14.324 Z" fill="#000000" fill-rule="nonzero" fill-opacity="1" /><path clip-path="url(#clip160)" d="M1178.98 27.2059 L1186.44 27.2059 L1186.44 72.576 L1178.98 72.576 L1178.98 27.2059 M1178.98 9.54393 L1186.44 9.54393 L1186.44 18.9825 L1178.98 18.9825 L1178.98 9.54393 Z" fill="#000000" fill-rule="nonzero" fill-opacity="1" /><path clip-path="url(#clip160)" d="M1240.84 48.0275 L1240.84 51.6733 L1206.57 51.6733 Q1207.06 59.3701 1211.19 63.421 Q1215.36 67.4314 1222.77 67.4314 Q1227.07 67.4314 1231.08 66.3781 Q1235.13 65.3249 1239.1 63.2184 L1239.1 70.267 Q1235.09 71.9684 1230.87 72.8596 Q1226.66 73.7508 1222.33 73.7508 Q1211.47 73.7508 1205.11 67.4314 Q1198.79 61.1119 1198.79 50.3365 Q1198.79 39.1965 1204.79 32.6746 Q1210.82 26.1121 1221.03 26.1121 Q1230.19 26.1121 1235.49 32.0264 Q1240.84 37.9003 1240.84 48.0275 M1233.39 45.84 Q1233.31 39.7232 1229.94 36.0774 Q1226.62 32.4315 1221.11 32.4315 Q1214.87 32.4315 1211.11 35.9558 Q1207.38 39.4801 1206.81 45.8805 L1233.39 45.84 Z" fill="#000000" fill-rule="nonzero" fill-opacity="1" /><path clip-path="url(#clip160)" d="M1290.79 45.1919 L1290.79 72.576 L1283.33 72.576 L1283.33 45.4349 Q1283.33 38.994 1280.82 35.7938 Q1278.31 32.5936 1273.29 32.5936 Q1267.25 32.5936 1263.77 36.4419 Q1260.28 40.2903 1260.28 46.9338 L1260.28 72.576 L1252.79 72.576 L1252.79 27.2059 L1260.28 27.2059 L1260.28 34.2544 Q1262.96 30.163 1266.56 28.1376 Q1270.21 26.1121 1274.95 26.1121 Q1282.77 26.1121 1286.78 30.9732 Q1290.79 35.7938 1290.79 45.1919 Z" fill="#000000" fill-rule="nonzero" fill-opacity="1" /><path clip-path="url(#clip160)" d="M1313.03 14.324 L1313.03 27.2059 L1328.38 27.2059 L1328.38 32.9987 L1313.03 32.9987 L1313.03 57.6282 Q1313.03 63.1779 1314.53 64.7578 Q1316.06 66.3376 1320.72 66.3376 L1328.38 66.3376 L1328.38 72.576 L1320.72 72.576 Q1312.1 72.576 1308.81 69.3758 Q1305.53 66.1351 1305.53 57.6282 L1305.53 32.9987 L1300.06 32.9987 L1300.06 27.2059 L1305.53 27.2059 L1305.53 14.324 L1313.03 14.324 Z" fill="#000000" fill-rule="nonzero" fill-opacity="1" /><path clip-path="url(#clip160)" d="M1402.27 45.1919 L1402.27 72.576 L1394.81 72.576 L1394.81 45.4349 Q1394.81 38.994 1392.3 35.7938 Q1389.79 32.5936 1384.77 32.5936 Q1378.73 32.5936 1375.25 36.4419 Q1371.76 40.2903 1371.76 46.9338 L1371.76 72.576 L1364.27 72.576 L1364.27 27.2059 L1371.76 27.2059 L1371.76 34.2544 Q1374.44 30.163 1378.04 28.1376 Q1381.69 26.1121 1386.43 26.1121 Q1394.25 26.1121 1398.26 30.9732 Q1402.27 35.7938 1402.27 45.1919 Z" fill="#000000" fill-rule="nonzero" fill-opacity="1" /><path clip-path="url(#clip160)" d="M1418.27 12.096 L1450.39 12.096 L1450.39 18.9825 L1425.76 18.9825 L1425.76 33.8088 Q1427.55 33.2012 1429.33 32.9176 Q1431.11 32.5936 1432.89 32.5936 Q1443.02 32.5936 1448.93 38.1433 Q1454.85 43.6931 1454.85 53.1722 Q1454.85 62.9348 1448.77 68.3631 Q1442.7 73.7508 1431.64 73.7508 Q1427.83 73.7508 1423.86 73.1026 Q1419.93 72.4545 1415.72 71.1582 L1415.72 62.9348 Q1419.36 64.9198 1423.25 65.892 Q1427.14 66.8642 1431.48 66.8642 Q1438.48 66.8642 1442.57 63.1779 Q1446.67 59.4916 1446.67 53.1722 Q1446.67 46.8528 1442.57 43.1664 Q1438.48 39.4801 1431.48 39.4801 Q1428.19 39.4801 1424.91 40.2093 Q1421.67 40.9384 1418.27 42.4778 L1418.27 12.096 Z" fill="#000000" fill-rule="nonzero" fill-opacity="1" /><path clip-path="url(#clip160)" d="M1495.76 39.9662 Q1501.64 41.222 1504.92 45.1919 Q1508.24 49.1618 1508.24 54.9951 Q1508.24 63.9476 1502.08 68.8492 Q1495.93 73.7508 1484.58 73.7508 Q1480.77 73.7508 1476.72 72.9811 Q1472.71 72.2519 1468.42 70.7531 L1468.42 62.8538 Q1471.82 64.8388 1475.87 65.8515 Q1479.92 66.8642 1484.34 66.8642 Q1492.04 66.8642 1496.05 63.826 Q1500.1 60.7879 1500.1 54.9951 Q1500.1 49.6479 1496.33 46.6502 Q1492.6 43.612 1485.92 43.612 L1478.87 43.612 L1478.87 36.8875 L1486.24 36.8875 Q1492.28 36.8875 1495.48 34.4975 Q1498.68 32.067 1498.68 27.5299 Q1498.68 22.8714 1495.36 20.4004 Q1492.08 17.8888 1485.92 17.8888 Q1482.56 17.8888 1478.71 18.618 Q1474.86 19.3471 1470.24 20.8865 L1470.24 13.5948 Q1474.9 12.2985 1478.95 11.6504 Q1483.04 11.0023 1486.65 11.0023 Q1495.97 11.0023 1501.39 15.2557 Q1506.82 19.4686 1506.82 26.6793 Q1506.82 31.7024 1503.95 35.1862 Q1501.07 38.6294 1495.76 39.9662 Z" fill="#000000" fill-rule="nonzero" fill-opacity="1" /><polyline clip-path="url(#clip162)" style="stroke:#009af9; stroke-linecap:round; stroke-linejoin:round; stroke-width:8; stroke-opacity:1; fill:none" points="265.903,1386.4 271.951,160.256 277.999,923.226 284.047,1211.65 290.095,1319.79 296.143,1360.27 302.191,1375.48 308.239,1381.18 314.287,1383.31 320.335,1384.11 326.383,1384.42 332.431,1384.53 338.479,1384.57 344.527,1384.59 350.575,1384.6 356.623,1384.6 362.671,1384.61 368.719,1384.61 374.767,1384.61 380.815,1384.61 386.863,1384.61 392.911,1384.61 398.958,1384.61 405.006,1384.62 411.054,1384.62 417.102,1384.62 423.15,1384.62 429.198,1384.62 435.246,1384.62 441.294,1384.63 447.342,1384.63 453.39,1384.63 459.438,1384.63 465.486,1384.63 471.534,1384.63 477.582,1384.63 483.63,1384.64 489.678,1384.64 495.726,1384.64 501.774,1384.64 507.822,1384.64 513.87,1384.64 519.918,1384.65 525.966,1384.65 532.014,1384.65 538.062,1384.65 544.11,1384.65 550.158,1384.65 556.206,1384.65 562.254,1384.66 568.302,1384.66 574.35,1384.66 580.398,1384.66 586.446,1384.66 592.494,1384.66 598.542,1384.66 604.59,1384.67 610.638,1384.67 616.685,1384.67 622.733,1384.67 628.781,1384.67 634.829,1384.67 640.877,1384.68 646.925,1384.68 652.973,1384.68 659.021,1384.68 665.069,1384.68 671.117,1384.68 677.165,1384.68 683.213,1384.69 689.261,1384.69 695.309,1384.69 701.357,1384.69 707.405,1384.69 713.453,1384.69 719.501,1384.69 725.549,1384.7 731.597,1384.7 737.645,1384.7 743.693,1384.7 749.741,1384.7 755.789,1384.7 761.837,1384.7 767.885,1384.71 773.933,1384.71 779.981,1384.71 786.029,1384.71 792.077,1384.71 798.125,1384.71 804.173,1384.72 810.221,1384.72 816.269,1384.72 822.317,1384.72 828.365,1384.72 834.412,1384.72 840.46,1384.72 846.508,1384.73 852.556,1384.73 858.604,1384.73 864.652,1384.73 870.7,1384.73 876.748,1384.73 882.796,1384.73 888.844,1384.74 894.892,1384.74 900.94,1384.74 906.988,1384.74 913.036,1384.74 919.084,1384.74 925.132,1384.74 931.18,1384.75 937.228,1384.75 943.276,1384.75 949.324,1384.75 955.372,1384.75 961.42,1384.75 967.468,1384.75 973.516,1384.76 979.564,1384.76 985.612,1384.76 991.66,1384.76 997.708,1384.76 1003.76,1384.76 1009.8,1384.76 1015.85,1384.77 1021.9,1384.77 1027.95,1384.77 1034,1384.77 1040.04,1384.77 1046.09,1384.77 1052.14,1384.77 1058.19,1384.78 1064.24,1384.78 1070.28,1384.78 1076.33,1384.78 1082.38,1384.78 1088.43,1384.78 1094.48,1384.78 1100.52,1384.78 1106.57,1384.79 1112.62,1384.79 1118.67,1384.79 1124.72,1384.79 1130.76,1384.79 1136.81,1384.79 1142.86,1384.79 1148.91,1384.8 1154.96,1384.8 1161,1384.8 1167.05,1384.8 1173.1,1384.8 1179.15,1384.8 1185.19,1384.8 1191.24,1384.81 1197.29,1384.81 1203.34,1384.81 1209.39,1384.81 1215.43,1384.81 1221.48,1384.81 1227.53,1384.81 1233.58,1384.82 1239.63,1384.82 1245.67,1384.82 1251.72,1384.82 1257.77,1384.82 1263.82,1384.82 1269.87,1384.82 1275.91,1384.82 1281.96,1384.83 1288.01,1384.83 1294.06,1384.83 1300.11,1384.83 1306.15,1384.83 1312.2,1384.83 1318.25,1384.83 1324.3,1384.84 1330.35,1384.84 1336.39,1384.84 1342.44,1384.84 1348.49,1384.84 1354.54,1384.84 1360.59,1384.84 1366.63,1384.85 1372.68,1384.85 1378.73,1384.85 1384.78,1384.85 1390.83,1384.85 1396.87,1384.85 1402.92,1384.85 1408.97,1384.85 1415.02,1384.86 1421.07,1384.86 1427.11,1384.86 1433.16,1384.86 1439.21,1384.86 1445.26,1384.86 1451.31,1384.86 1457.35,1384.87 1463.4,1384.87 1469.45,1384.87 1475.5,1384.87 1481.55,1384.87 1487.59,1384.87 1493.64,1384.87 1499.69,1384.87 1505.74,1384.88 1511.79,1384.88 1517.83,1384.88 1523.88,1384.88 1529.93,1384.88 1535.98,1384.88 1542.03,1384.88 1548.07,1384.88 1554.12,1384.89 1560.17,1384.89 1566.22,1384.89 1572.27,1384.89 1578.31,1384.89 1584.36,1384.89 1590.41,1384.89 1596.46,1384.9 1602.5,1384.9 1608.55,1384.9 1614.6,1384.9 1620.65,1384.9 1626.7,1384.9 1632.74,1384.9 1638.79,1384.9 1644.84,1384.91 1650.89,1384.91 1656.94,1384.91 1662.98,1384.91 1669.03,1384.91 1675.08,1384.91 1681.13,1384.91 1687.18,1384.91 1693.22,1384.92 1699.27,1384.92 1705.32,1384.92 1711.37,1384.92 1717.42,1384.92 1723.46,1384.92 1729.51,1384.92 1735.56,1384.92 1741.61,1384.93 1747.66,1384.93 1753.7,1384.93 1759.75,1384.93 1765.8,1384.93 1771.85,1384.93 1777.9,1384.93 1783.94,1384.93 1789.99,1384.94 1796.04,1384.94 1802.09,1384.94 1808.14,1384.94 1814.18,1384.94 1820.23,1384.94 1826.28,1384.94 1832.33,1384.94 1838.38,1384.95 1844.42,1384.95 1850.47,1384.95 1856.52,1384.95 1862.57,1384.95 1868.62,1384.95 1874.66,1384.95 1880.71,1384.95 1886.76,1384.96 1892.81,1384.96 1898.86,1384.96 1904.9,1384.96 1910.95,1384.96 1917,1384.96 1923.05,1384.96 1929.1,1384.96 1935.14,1384.97 1941.19,1384.97 1947.24,1384.97 1953.29,1384.97 1959.34,1384.97 1965.38,1384.97 1971.43,1384.97 1977.48,1384.97 1983.53,1384.98 1989.58,1384.98 1995.62,1384.98 2001.67,1384.98 2007.72,1384.98 2013.77,1384.98 2019.82,1384.98 2025.86,1384.98 2031.91,1384.99 2037.96,1384.99 2044.01,1384.99 2050.05,1384.99 2056.1,1384.99 2062.15,1384.99 2068.2,1384.99 2074.25,1384.99 2080.29,1385 2086.34,1385 2092.39,1385 2098.44,1385 2104.49,1385 2110.53,1385 2116.58,1385 2122.63,1385 2128.68,1385.01 2134.73,1385.01 2140.77,1385.01 2146.82,1385.01 2152.87,1385.01 2158.92,1385.01 2164.97,1385.01 2171.01,1385.01 2177.06,1385.01 2183.11,1385.02 2189.16,1385.02 2195.21,1385.02 2201.25,1385.02 2207.3,1385.02 2213.35,1385.02 2219.4,1385.02 2225.45,1385.02 2231.49,1385.03 2237.54,1385.03 2243.59,1385.03 2249.64,1385.03 2255.69,1385.03 2261.73,1385.03 2267.78,1385.03 2273.83,1385.03 2279.88,1385.03 2285.93,1385.04 2291.97,1385.04 "/>
<circle clip-path="url(#clip162)" cx="1575.69" cy="1385.27" r="18" fill="#e26f46" fill-rule="evenodd" fill-opacity="1" stroke="#000000" stroke-opacity="1" stroke-width="3.2"/>
<circle clip-path="url(#clip162)" cx="1603.61" cy="1385.27" r="18" fill="#e26f46" fill-rule="evenodd" fill-opacity="1" stroke="#000000" stroke-opacity="1" stroke-width="3.2"/>
<circle clip-path="url(#clip162)" cx="1699.27" cy="1384.39" r="18" fill="#e26f46" fill-rule="evenodd" fill-opacity="1" stroke="#000000" stroke-opacity="1" stroke-width="3.2"/>
<circle clip-path="url(#clip162)" cx="1846.34" cy="1384.92" r="18" fill="#e26f46" fill-rule="evenodd" fill-opacity="1" stroke="#000000" stroke-opacity="1" stroke-width="3.2"/>
<circle clip-path="url(#clip162)" cx="1985.54" cy="1385.02" r="18" fill="#e26f46" fill-rule="evenodd" fill-opacity="1" stroke="#000000" stroke-opacity="1" stroke-width="3.2"/>
<circle clip-path="url(#clip162)" cx="2062.96" cy="1385.02" r="18" fill="#e26f46" fill-rule="evenodd" fill-opacity="1" stroke="#000000" stroke-opacity="1" stroke-width="3.2"/>
<circle clip-path="url(#clip162)" cx="2131.8" cy="1384.74" r="18" fill="#e26f46" fill-rule="evenodd" fill-opacity="1" stroke="#000000" stroke-opacity="1" stroke-width="3.2"/>
<circle clip-path="url(#clip162)" cx="2285.72" cy="1385.02" r="18" fill="#e26f46" fill-rule="evenodd" fill-opacity="1" stroke="#000000" stroke-opacity="1" stroke-width="3.2"/>
<path clip-path="url(#clip160)" d="M1682.17 322.316 L2281.17 322.316 L2281.17 166.796 L1682.17 166.796  Z" fill="#ffffff" fill-rule="evenodd" fill-opacity="1"/>
<polyline clip-path="url(#clip160)" style="stroke:#000000; stroke-linecap:round; stroke-linejoin:round; stroke-width:4; stroke-opacity:1; fill:none" points="1682.17,322.316 2281.17,322.316 2281.17,166.796 1682.17,166.796 1682.17,322.316 "/>
<polyline clip-path="url(#clip160)" style="stroke:#009af9; stroke-linecap:round; stroke-linejoin:round; stroke-width:8; stroke-opacity:1; fill:none" points="1706.03,218.636 1849.21,218.636 "/>
<path clip-path="url(#clip160)" d="M1873.07 201.356 L1880.04 201.356 L1888.86 224.874 L1897.72 201.356 L1904.69 201.356 L1904.69 235.916 L1900.13 235.916 L1900.13 205.569 L1891.22 229.272 L1886.52 229.272 L1877.61 205.569 L1877.61 235.916 L1873.07 235.916 L1873.07 201.356 Z" fill="#000000" fill-rule="nonzero" fill-opacity="1" /><path clip-path="url(#clip160)" d="M1923.84 212.976 Q1920.41 212.976 1918.42 215.661 Q1916.43 218.323 1916.43 222.976 Q1916.43 227.629 1918.4 230.314 Q1920.39 232.976 1923.84 232.976 Q1927.24 232.976 1929.23 230.291 Q1931.22 227.606 1931.22 222.976 Q1931.22 218.37 1929.23 215.684 Q1927.24 212.976 1923.84 212.976 M1923.84 209.365 Q1929.39 209.365 1932.56 212.976 Q1935.73 216.587 1935.73 222.976 Q1935.73 229.342 1932.56 232.976 Q1929.39 236.587 1923.84 236.587 Q1918.26 236.587 1915.09 232.976 Q1911.94 229.342 1911.94 222.976 Q1911.94 216.587 1915.09 212.976 Q1918.26 209.365 1923.84 209.365 Z" fill="#000000" fill-rule="nonzero" fill-opacity="1" /><path clip-path="url(#clip160)" d="M1959.85 213.925 L1959.85 199.897 L1964.11 199.897 L1964.11 235.916 L1959.85 235.916 L1959.85 232.027 Q1958.51 234.342 1956.45 235.476 Q1954.41 236.587 1951.54 236.587 Q1946.84 236.587 1943.88 232.837 Q1940.94 229.087 1940.94 222.976 Q1940.94 216.865 1943.88 213.115 Q1946.84 209.365 1951.54 209.365 Q1954.41 209.365 1956.45 210.499 Q1958.51 211.61 1959.85 213.925 M1945.34 222.976 Q1945.34 227.675 1947.26 230.36 Q1949.21 233.022 1952.58 233.022 Q1955.96 233.022 1957.91 230.36 Q1959.85 227.675 1959.85 222.976 Q1959.85 218.277 1957.91 215.615 Q1955.96 212.93 1952.58 212.93 Q1949.21 212.93 1947.26 215.615 Q1945.34 218.277 1945.34 222.976 Z" fill="#000000" fill-rule="nonzero" fill-opacity="1" /><path clip-path="url(#clip160)" d="M1995.06 221.888 L1995.06 223.971 L1975.48 223.971 Q1975.76 228.369 1978.12 230.684 Q1980.5 232.976 1984.74 232.976 Q1987.19 232.976 1989.48 232.374 Q1991.8 231.772 1994.07 230.569 L1994.07 234.596 Q1991.77 235.568 1989.37 236.078 Q1986.96 236.587 1984.48 236.587 Q1978.28 236.587 1974.64 232.976 Q1971.03 229.365 1971.03 223.207 Q1971.03 216.842 1974.46 213.115 Q1977.91 209.365 1983.74 209.365 Q1988.97 209.365 1992.01 212.745 Q1995.06 216.101 1995.06 221.888 M1990.8 220.638 Q1990.76 217.143 1988.83 215.059 Q1986.94 212.976 1983.79 212.976 Q1980.22 212.976 1978.07 214.99 Q1975.94 217.004 1975.62 220.661 L1990.8 220.638 Z" fill="#000000" fill-rule="nonzero" fill-opacity="1" /><path clip-path="url(#clip160)" d="M2002.05 199.897 L2006.31 199.897 L2006.31 235.916 L2002.05 235.916 L2002.05 199.897 Z" fill="#000000" fill-rule="nonzero" fill-opacity="1" /><path clip-path="url(#clip160)" d="M2035.15 205.198 L2035.15 218.184 L2041.03 218.184 Q2044.3 218.184 2046.08 216.495 Q2047.86 214.805 2047.86 211.68 Q2047.86 208.578 2046.08 206.888 Q2044.3 205.198 2041.03 205.198 L2035.15 205.198 M2030.48 201.356 L2041.03 201.356 Q2046.84 201.356 2049.81 203.995 Q2052.79 206.61 2052.79 211.68 Q2052.79 216.795 2049.81 219.411 Q2046.84 222.027 2041.03 222.027 L2035.15 222.027 L2035.15 235.916 L2030.48 235.916 L2030.48 201.356 Z" fill="#000000" fill-rule="nonzero" fill-opacity="1" /><path clip-path="url(#clip160)" d="M2073.07 213.971 Q2072.35 213.555 2071.5 213.37 Q2070.66 213.161 2069.64 213.161 Q2066.03 213.161 2064.09 215.522 Q2062.17 217.86 2062.17 222.258 L2062.17 235.916 L2057.89 235.916 L2057.89 209.99 L2062.17 209.99 L2062.17 214.018 Q2063.51 211.657 2065.66 210.522 Q2067.82 209.365 2070.89 209.365 Q2071.33 209.365 2071.87 209.434 Q2072.4 209.481 2073.05 209.596 L2073.07 213.971 Z" fill="#000000" fill-rule="nonzero" fill-opacity="1" /><path clip-path="url(#clip160)" d="M2098.67 221.888 L2098.67 223.971 L2079.09 223.971 Q2079.37 228.369 2081.73 230.684 Q2084.11 232.976 2088.35 232.976 Q2090.8 232.976 2093.09 232.374 Q2095.41 231.772 2097.68 230.569 L2097.68 234.596 Q2095.39 235.568 2092.98 236.078 Q2090.57 236.587 2088.09 236.587 Q2081.89 236.587 2078.26 232.976 Q2074.64 229.365 2074.64 223.207 Q2074.64 216.842 2078.07 213.115 Q2081.52 209.365 2087.35 209.365 Q2092.58 209.365 2095.62 212.745 Q2098.67 216.101 2098.67 221.888 M2094.41 220.638 Q2094.37 217.143 2092.45 215.059 Q2090.55 212.976 2087.4 212.976 Q2083.83 212.976 2081.68 214.99 Q2079.55 217.004 2079.23 220.661 L2094.41 220.638 Z" fill="#000000" fill-rule="nonzero" fill-opacity="1" /><path clip-path="url(#clip160)" d="M2122.72 213.925 L2122.72 199.897 L2126.98 199.897 L2126.98 235.916 L2122.72 235.916 L2122.72 232.027 Q2121.38 234.342 2119.32 235.476 Q2117.28 236.587 2114.41 236.587 Q2109.71 236.587 2106.75 232.837 Q2103.81 229.087 2103.81 222.976 Q2103.81 216.865 2106.75 213.115 Q2109.71 209.365 2114.41 209.365 Q2117.28 209.365 2119.32 210.499 Q2121.38 211.61 2122.72 213.925 M2108.21 222.976 Q2108.21 227.675 2110.13 230.36 Q2112.07 233.022 2115.45 233.022 Q2118.83 233.022 2120.78 230.36 Q2122.72 227.675 2122.72 222.976 Q2122.72 218.277 2120.78 215.615 Q2118.83 212.93 2115.45 212.93 Q2112.07 212.93 2110.13 215.615 Q2108.21 218.277 2108.21 222.976 Z" fill="#000000" fill-rule="nonzero" fill-opacity="1" /><path clip-path="url(#clip160)" d="M2135.76 209.99 L2140.01 209.99 L2140.01 235.916 L2135.76 235.916 L2135.76 209.99 M2135.76 199.897 L2140.01 199.897 L2140.01 205.291 L2135.76 205.291 L2135.76 199.897 Z" fill="#000000" fill-rule="nonzero" fill-opacity="1" /><path clip-path="url(#clip160)" d="M2167.58 210.985 L2167.58 214.967 Q2165.78 213.971 2163.95 213.485 Q2162.14 212.976 2160.29 212.976 Q2156.15 212.976 2153.86 215.615 Q2151.57 218.231 2151.57 222.976 Q2151.57 227.721 2153.86 230.36 Q2156.15 232.976 2160.29 232.976 Q2162.14 232.976 2163.95 232.49 Q2165.78 231.981 2167.58 230.985 L2167.58 234.92 Q2165.8 235.754 2163.88 236.17 Q2161.98 236.587 2159.83 236.587 Q2153.97 236.587 2150.52 232.906 Q2147.07 229.226 2147.07 222.976 Q2147.07 216.633 2150.55 212.999 Q2154.04 209.365 2160.11 209.365 Q2162.07 209.365 2163.95 209.782 Q2165.82 210.175 2167.58 210.985 Z" fill="#000000" fill-rule="nonzero" fill-opacity="1" /><path clip-path="url(#clip160)" d="M2179.2 202.629 L2179.2 209.99 L2187.98 209.99 L2187.98 213.3 L2179.2 213.3 L2179.2 227.374 Q2179.2 230.545 2180.06 231.448 Q2180.94 232.351 2183.6 232.351 L2187.98 232.351 L2187.98 235.916 L2183.6 235.916 Q2178.67 235.916 2176.8 234.087 Q2174.92 232.235 2174.92 227.374 L2174.92 213.3 L2171.8 213.3 L2171.8 209.99 L2174.92 209.99 L2174.92 202.629 L2179.2 202.629 Z" fill="#000000" fill-rule="nonzero" fill-opacity="1" /><path clip-path="url(#clip160)" d="M2193.58 209.99 L2197.84 209.99 L2197.84 235.916 L2193.58 235.916 L2193.58 209.99 M2193.58 199.897 L2197.84 199.897 L2197.84 205.291 L2193.58 205.291 L2193.58 199.897 Z" fill="#000000" fill-rule="nonzero" fill-opacity="1" /><path clip-path="url(#clip160)" d="M2216.8 212.976 Q2213.37 212.976 2211.38 215.661 Q2209.39 218.323 2209.39 222.976 Q2209.39 227.629 2211.36 230.314 Q2213.35 232.976 2216.8 232.976 Q2220.2 232.976 2222.19 230.291 Q2224.18 227.606 2224.18 222.976 Q2224.18 218.37 2222.19 215.684 Q2220.2 212.976 2216.8 212.976 M2216.8 209.365 Q2222.35 209.365 2225.52 212.976 Q2228.69 216.587 2228.69 222.976 Q2228.69 229.342 2225.52 232.976 Q2222.35 236.587 2216.8 236.587 Q2211.22 236.587 2208.05 232.976 Q2204.9 229.342 2204.9 222.976 Q2204.9 216.587 2208.05 212.976 Q2211.22 209.365 2216.8 209.365 Z" fill="#000000" fill-rule="nonzero" fill-opacity="1" /><path clip-path="url(#clip160)" d="M2257.31 220.268 L2257.31 235.916 L2253.05 235.916 L2253.05 220.407 Q2253.05 216.726 2251.61 214.897 Q2250.18 213.069 2247.31 213.069 Q2243.86 213.069 2241.87 215.268 Q2239.88 217.467 2239.88 221.263 L2239.88 235.916 L2235.59 235.916 L2235.59 209.99 L2239.88 209.99 L2239.88 214.018 Q2241.4 211.68 2243.46 210.522 Q2245.55 209.365 2248.25 209.365 Q2252.72 209.365 2255.01 212.143 Q2257.31 214.897 2257.31 220.268 Z" fill="#000000" fill-rule="nonzero" fill-opacity="1" /><circle clip-path="url(#clip160)" cx="1777.62" cy="270.476" r="20.9455" fill="#e26f46" fill-rule="evenodd" fill-opacity="1" stroke="#000000" stroke-opacity="1" stroke-width="3.72364"/>
<path clip-path="url(#clip160)" d="M1889.09 256.367 Q1884 256.367 1880.99 260.163 Q1878 263.96 1878 270.51 Q1878 277.038 1880.99 280.834 Q1884 284.631 1889.09 284.631 Q1894.18 284.631 1897.15 280.834 Q1900.13 277.038 1900.13 270.51 Q1900.13 263.96 1897.15 260.163 Q1894.18 256.367 1889.09 256.367 M1889.09 252.571 Q1896.36 252.571 1900.71 257.455 Q1905.06 262.316 1905.06 270.51 Q1905.06 278.682 1900.71 283.566 Q1896.36 288.427 1889.09 288.427 Q1881.8 288.427 1877.42 283.566 Q1873.07 278.705 1873.07 270.51 Q1873.07 262.316 1877.42 257.455 Q1881.8 252.571 1889.09 252.571 Z" fill="#000000" fill-rule="nonzero" fill-opacity="1" /><path clip-path="url(#clip160)" d="M1930.8 274.816 Q1930.8 270.117 1928.86 267.455 Q1926.94 264.77 1923.56 264.77 Q1920.18 264.77 1918.23 267.455 Q1916.31 270.117 1916.31 274.816 Q1916.31 279.515 1918.23 282.2 Q1920.18 284.862 1923.56 284.862 Q1926.94 284.862 1928.86 282.2 Q1930.8 279.515 1930.8 274.816 M1916.31 265.765 Q1917.65 263.45 1919.69 262.339 Q1921.75 261.205 1924.6 261.205 Q1929.32 261.205 1932.26 264.955 Q1935.22 268.705 1935.22 274.816 Q1935.22 280.927 1932.26 284.677 Q1929.32 288.427 1924.6 288.427 Q1921.75 288.427 1919.69 287.316 Q1917.65 286.182 1916.31 283.867 L1916.31 287.756 L1912.03 287.756 L1912.03 251.737 L1916.31 251.737 L1916.31 265.765 Z" fill="#000000" fill-rule="nonzero" fill-opacity="1" /><path clip-path="url(#clip160)" d="M1958.81 262.594 L1958.81 266.622 Q1957.01 265.696 1955.06 265.233 Q1953.12 264.77 1951.03 264.77 Q1947.86 264.77 1946.27 265.742 Q1944.69 266.714 1944.69 268.659 Q1944.69 270.14 1945.83 270.997 Q1946.96 271.83 1950.39 272.594 L1951.84 272.918 Q1956.38 273.89 1958.28 275.672 Q1960.2 277.432 1960.2 280.603 Q1960.2 284.214 1957.33 286.321 Q1954.48 288.427 1949.48 288.427 Q1947.4 288.427 1945.13 288.01 Q1942.89 287.617 1940.39 286.807 L1940.39 282.409 Q1942.75 283.635 1945.04 284.26 Q1947.33 284.862 1949.58 284.862 Q1952.58 284.862 1954.21 283.844 Q1955.83 282.802 1955.83 280.927 Q1955.83 279.191 1954.65 278.265 Q1953.49 277.339 1949.53 276.483 L1948.05 276.135 Q1944.09 275.302 1942.33 273.589 Q1940.57 271.853 1940.57 268.844 Q1940.57 265.186 1943.16 263.196 Q1945.76 261.205 1950.52 261.205 Q1952.89 261.205 1954.97 261.552 Q1957.05 261.899 1958.81 262.594 Z" fill="#000000" fill-rule="nonzero" fill-opacity="1" /><path clip-path="url(#clip160)" d="M1989.16 273.728 L1989.16 275.811 L1969.58 275.811 Q1969.85 280.209 1972.21 282.524 Q1974.6 284.816 1978.83 284.816 Q1981.29 284.816 1983.58 284.214 Q1985.89 283.612 1988.16 282.409 L1988.16 286.436 Q1985.87 287.408 1983.46 287.918 Q1981.06 288.427 1978.58 288.427 Q1972.38 288.427 1968.74 284.816 Q1965.13 281.205 1965.13 275.047 Q1965.13 268.682 1968.56 264.955 Q1972.01 261.205 1977.84 261.205 Q1983.07 261.205 1986.1 264.585 Q1989.16 267.941 1989.16 273.728 M1984.9 272.478 Q1984.85 268.983 1982.93 266.899 Q1981.03 264.816 1977.89 264.816 Q1974.32 264.816 1972.17 266.83 Q1970.04 268.844 1969.71 272.501 L1984.9 272.478 Z" fill="#000000" fill-rule="nonzero" fill-opacity="1" /><path clip-path="url(#clip160)" d="M2011.17 265.811 Q2010.45 265.395 2009.6 265.21 Q2008.77 265.001 2007.75 265.001 Q2004.14 265.001 2002.19 267.362 Q2000.27 269.7 2000.27 274.098 L2000.27 287.756 L1995.99 287.756 L1995.99 261.83 L2000.27 261.83 L2000.27 265.858 Q2001.61 263.497 2003.77 262.362 Q2005.92 261.205 2009 261.205 Q2009.44 261.205 2009.97 261.274 Q2010.5 261.321 2011.15 261.436 L2011.17 265.811 Z" fill="#000000" fill-rule="nonzero" fill-opacity="1" /><path clip-path="url(#clip160)" d="M2012.58 261.83 L2017.1 261.83 L2025.2 283.589 L2033.3 261.83 L2037.82 261.83 L2028.09 287.756 L2022.31 287.756 L2012.58 261.83 Z" fill="#000000" fill-rule="nonzero" fill-opacity="1" /><path clip-path="url(#clip160)" d="M2065.87 273.728 L2065.87 275.811 L2046.29 275.811 Q2046.57 280.209 2048.93 282.524 Q2051.31 284.816 2055.55 284.816 Q2058 284.816 2060.29 284.214 Q2062.61 283.612 2064.88 282.409 L2064.88 286.436 Q2062.58 287.408 2060.18 287.918 Q2057.77 288.427 2055.29 288.427 Q2049.09 288.427 2045.45 284.816 Q2041.84 281.205 2041.84 275.047 Q2041.84 268.682 2045.27 264.955 Q2048.72 261.205 2054.55 261.205 Q2059.78 261.205 2062.82 264.585 Q2065.87 267.941 2065.87 273.728 M2061.61 272.478 Q2061.57 268.983 2059.64 266.899 Q2057.75 264.816 2054.6 264.816 Q2051.03 264.816 2048.88 266.83 Q2046.75 268.844 2046.43 272.501 L2061.61 272.478 Z" fill="#000000" fill-rule="nonzero" fill-opacity="1" /><path clip-path="url(#clip160)" d="M2089.92 265.765 L2089.92 251.737 L2094.18 251.737 L2094.18 287.756 L2089.92 287.756 L2089.92 283.867 Q2088.58 286.182 2086.52 287.316 Q2084.48 288.427 2081.61 288.427 Q2076.91 288.427 2073.95 284.677 Q2071.01 280.927 2071.01 274.816 Q2071.01 268.705 2073.95 264.955 Q2076.91 261.205 2081.61 261.205 Q2084.48 261.205 2086.52 262.339 Q2088.58 263.45 2089.92 265.765 M2075.41 274.816 Q2075.41 279.515 2077.33 282.2 Q2079.27 284.862 2082.65 284.862 Q2086.03 284.862 2087.98 282.2 Q2089.92 279.515 2089.92 274.816 Q2089.92 270.117 2087.98 267.455 Q2086.03 264.77 2082.65 264.77 Q2079.27 264.77 2077.33 267.455 Q2075.41 270.117 2075.41 274.816 Z" fill="#000000" fill-rule="nonzero" fill-opacity="1" /><path clip-path="url(#clip160)" d="M2122.88 257.038 L2122.88 283.913 L2128.53 283.913 Q2135.69 283.913 2139 280.672 Q2142.33 277.432 2142.33 270.441 Q2142.33 263.497 2139 260.279 Q2135.69 257.038 2128.53 257.038 L2122.88 257.038 M2118.21 253.196 L2127.82 253.196 Q2137.86 253.196 2142.56 257.386 Q2147.26 261.552 2147.26 270.441 Q2147.26 279.376 2142.54 283.566 Q2137.82 287.756 2127.82 287.756 L2118.21 287.756 L2118.21 253.196 Z" fill="#000000" fill-rule="nonzero" fill-opacity="1" /><path clip-path="url(#clip160)" d="M2166.31 274.723 Q2161.15 274.723 2159.16 275.904 Q2157.17 277.084 2157.17 279.932 Q2157.17 282.2 2158.65 283.543 Q2160.15 284.862 2162.72 284.862 Q2166.26 284.862 2168.39 282.362 Q2170.55 279.839 2170.55 275.672 L2170.55 274.723 L2166.31 274.723 M2174.81 272.964 L2174.81 287.756 L2170.55 287.756 L2170.55 283.821 Q2169.09 286.182 2166.91 287.316 Q2164.74 288.427 2161.59 288.427 Q2157.61 288.427 2155.25 286.205 Q2152.91 283.959 2152.91 280.209 Q2152.91 275.834 2155.82 273.612 Q2158.76 271.39 2164.57 271.39 L2170.55 271.39 L2170.55 270.973 Q2170.55 268.034 2168.6 266.436 Q2166.68 264.816 2163.19 264.816 Q2160.96 264.816 2158.86 265.348 Q2156.75 265.881 2154.81 266.946 L2154.81 263.01 Q2157.14 262.108 2159.34 261.668 Q2161.54 261.205 2163.63 261.205 Q2169.25 261.205 2172.03 264.122 Q2174.81 267.038 2174.81 272.964 Z" fill="#000000" fill-rule="nonzero" fill-opacity="1" /><path clip-path="url(#clip160)" d="M2187.79 254.469 L2187.79 261.83 L2196.57 261.83 L2196.57 265.14 L2187.79 265.14 L2187.79 279.214 Q2187.79 282.385 2188.65 283.288 Q2189.53 284.191 2192.19 284.191 L2196.57 284.191 L2196.57 287.756 L2192.19 287.756 Q2187.26 287.756 2185.38 285.927 Q2183.51 284.075 2183.51 279.214 L2183.51 265.14 L2180.38 265.14 L2180.38 261.83 L2183.51 261.83 L2183.51 254.469 L2187.79 254.469 Z" fill="#000000" fill-rule="nonzero" fill-opacity="1" /><path clip-path="url(#clip160)" d="M2213.95 274.723 Q2208.79 274.723 2206.8 275.904 Q2204.81 277.084 2204.81 279.932 Q2204.81 282.2 2206.29 283.543 Q2207.79 284.862 2210.36 284.862 Q2213.9 284.862 2216.03 282.362 Q2218.19 279.839 2218.19 275.672 L2218.19 274.723 L2213.95 274.723 M2222.44 272.964 L2222.44 287.756 L2218.19 287.756 L2218.19 283.821 Q2216.73 286.182 2214.55 287.316 Q2212.38 288.427 2209.23 288.427 Q2205.25 288.427 2202.88 286.205 Q2200.55 283.959 2200.55 280.209 Q2200.55 275.834 2203.46 273.612 Q2206.4 271.39 2212.21 271.39 L2218.19 271.39 L2218.19 270.973 Q2218.19 268.034 2216.24 266.436 Q2214.32 264.816 2210.82 264.816 Q2208.6 264.816 2206.5 265.348 Q2204.39 265.881 2202.44 266.946 L2202.44 263.01 Q2204.78 262.108 2206.98 261.668 Q2209.18 261.205 2211.26 261.205 Q2216.89 261.205 2219.67 264.122 Q2222.44 267.038 2222.44 272.964 Z" fill="#000000" fill-rule="nonzero" fill-opacity="1" /></svg>
