<?xml version="1.0" encoding="utf-8"?>
<svg xmlns="http://www.w3.org/2000/svg" xmlns:xlink="http://www.w3.org/1999/xlink" width="1000" height="620" viewBox="0 0 4000 2480">
<defs>
  <clipPath id="clip730">
    <rect x="0" y="0" width="4000" height="2480"/>
  </clipPath>
</defs>
<path clip-path="url(#clip730)" d="M0 2480 L4000 2480 L4000 0 L0 0  Z" fill="#ffffff" fill-rule="evenodd" fill-opacity="1"/>
<defs>
  <clipPath id="clip731">
    <rect x="288" y="150" width="3618" height="2084"/>
  </clipPath>
</defs>
<path clip-path="url(#clip730)" d="M258.824 2233.75 L3905.51 2233.75 L3905.51 150.412 L258.824 150.412  Z" fill="#ffffff" fill-rule="evenodd" fill-opacity="1"/>
<defs>
  <clipPath id="clip732">
    <rect x="258" y="150" width="3648" height="2084"/>
  </clipPath>
</defs>
<polyline clip-path="url(#clip732)" style="stroke:#000000; stroke-linecap:round; stroke-linejoin:round; stroke-width:2; stroke-opacity:0.15; fill:none" points="1081.95,2233.75 1081.95,150.412 "/>
<polyline clip-path="url(#clip732)" style="stroke:#000000; stroke-linecap:round; stroke-linejoin:round; stroke-width:2; stroke-opacity:0.15; fill:none" points="2263.97,2233.75 2263.97,150.412 "/>
<polyline clip-path="url(#clip732)" style="stroke:#000000; stroke-linecap:round; stroke-linejoin:round; stroke-width:2; stroke-opacity:0.15; fill:none" points="3445.99,2233.75 3445.99,150.412 "/>
<polyline clip-path="url(#clip732)" style="stroke:#000000; stroke-linecap:round; stroke-linejoin:round; stroke-width:2; stroke-opacity:0.15; fill:none" points="258.824,2233.75 3905.51,2233.75 "/>
<polyline clip-path="url(#clip732)" style="stroke:#000000; stroke-linecap:round; stroke-linejoin:round; stroke-width:2; stroke-opacity:0.15; fill:none" points="258.824,1801.62 3905.51,1801.62 "/>
<polyline clip-path="url(#clip732)" style="stroke:#000000; stroke-linecap:round; stroke-linejoin:round; stroke-width:2; stroke-opacity:0.15; fill:none" points="258.824,1369.5 3905.51,1369.5 "/>
<polyline clip-path="url(#clip732)" style="stroke:#000000; stroke-linecap:round; stroke-linejoin:round; stroke-width:2; stroke-opacity:0.15; fill:none" points="258.824,937.378 3905.51,937.378 "/>
<polyline clip-path="url(#clip732)" style="stroke:#000000; stroke-linecap:round; stroke-linejoin:round; stroke-width:2; stroke-opacity:0.15; fill:none" points="258.824,505.255 3905.51,505.255 "/>
<polyline clip-path="url(#clip730)" style="stroke:#000000; stroke-linecap:round; stroke-linejoin:round; stroke-width:4; stroke-opacity:1; fill:none" points="258.824,2233.75 3905.51,2233.75 "/>
<polyline clip-path="url(#clip730)" style="stroke:#000000; stroke-linecap:round; stroke-linejoin:round; stroke-width:4; stroke-opacity:1; fill:none" points="1081.95,2233.75 1081.95,2214.85 "/>
<polyline clip-path="url(#clip730)" style="stroke:#000000; stroke-linecap:round; stroke-linejoin:round; stroke-width:4; stroke-opacity:1; fill:none" points="2263.97,2233.75 2263.97,2214.85 "/>
<polyline clip-path="url(#clip730)" style="stroke:#000000; stroke-linecap:round; stroke-linejoin:round; stroke-width:4; stroke-opacity:1; fill:none" points="3445.99,2233.75 3445.99,2214.85 "/>
<path clip-path="url(#clip730)" d="M1013.27 2320.67 L1020.91 2320.67 L1020.91 2294.3 L1012.6 2295.97 L1012.6 2291.71 L1020.86 2290.05 L1025.54 2290.05 L1025.54 2320.67 L1033.18 2320.67 L1033.18 2324.61 L1013.27 2324.61 L1013.27 2320.67 Z" fill="#000000" fill-rule="nonzero" fill-opacity="1" /><path clip-path="url(#clip730)" d="M1052.62 2293.12 Q1049.01 2293.12 1047.18 2296.69 Q1045.38 2300.23 1045.38 2307.36 Q1045.38 2314.47 1047.18 2318.03 Q1049.01 2321.57 1052.62 2321.57 Q1056.26 2321.57 1058.06 2318.03 Q1059.89 2314.47 1059.89 2307.36 Q1059.89 2300.23 1058.06 2296.69 Q1056.26 2293.12 1052.62 2293.12 M1052.62 2289.42 Q1058.43 2289.42 1061.49 2294.03 Q1064.57 2298.61 1064.57 2307.36 Q1064.57 2316.09 1061.49 2320.69 Q1058.43 2325.28 1052.62 2325.28 Q1046.81 2325.28 1043.73 2320.69 Q1040.68 2316.09 1040.68 2307.36 Q1040.68 2298.61 1043.73 2294.03 Q1046.81 2289.42 1052.62 2289.42 Z" fill="#000000" fill-rule="nonzero" fill-opacity="1" /><path clip-path="url(#clip730)" d="M1064.57 2283.52 L1088.68 2283.52 L1088.68 2286.72 L1064.57 2286.72 L1064.57 2283.52 Z" fill="#000000" fill-rule="nonzero" fill-opacity="1" /><path clip-path="url(#clip730)" d="M1105 2271.62 Q1102.07 2271.62 1100.58 2274.51 Q1099.12 2277.39 1099.12 2283.18 Q1099.12 2288.96 1100.58 2291.85 Q1102.07 2294.73 1105 2294.73 Q1107.96 2294.73 1109.42 2291.85 Q1110.91 2288.96 1110.91 2283.18 Q1110.91 2277.39 1109.42 2274.51 Q1107.96 2271.62 1105 2271.62 M1105 2268.61 Q1109.73 2268.61 1112.21 2272.35 Q1114.71 2276.07 1114.71 2283.18 Q1114.71 2290.27 1112.21 2294.02 Q1109.73 2297.74 1105 2297.74 Q1100.28 2297.74 1097.78 2294.02 Q1095.3 2290.27 1095.3 2283.18 Q1095.3 2276.07 1097.78 2272.35 Q1100.28 2268.61 1105 2268.61 Z" fill="#000000" fill-rule="nonzero" fill-opacity="1" /><path clip-path="url(#clip730)" d="M1121.39 2292.42 L1125.35 2292.42 L1125.35 2297.19 L1121.39 2297.19 L1121.39 2292.42 Z" fill="#000000" fill-rule="nonzero" fill-opacity="1" /><path clip-path="url(#clip730)" d="M1133.74 2296.61 L1133.74 2293.15 Q1135.17 2293.83 1136.64 2294.19 Q1138.11 2294.54 1139.52 2294.54 Q1143.28 2294.54 1145.25 2292.02 Q1147.25 2289.48 1147.53 2284.33 Q1146.44 2285.95 1144.76 2286.81 Q1143.09 2287.68 1141.06 2287.68 Q1136.85 2287.68 1134.38 2285.14 Q1131.94 2282.58 1131.94 2278.16 Q1131.94 2273.84 1134.5 2271.22 Q1137.05 2268.61 1141.3 2268.61 Q1146.17 2268.61 1148.73 2272.35 Q1151.31 2276.07 1151.31 2283.18 Q1151.31 2289.82 1148.15 2293.79 Q1145.01 2297.74 1139.69 2297.74 Q1138.26 2297.74 1136.79 2297.46 Q1135.32 2297.18 1133.74 2296.61 M1141.3 2284.71 Q1143.86 2284.71 1145.35 2282.96 Q1146.85 2281.21 1146.85 2278.16 Q1146.85 2275.13 1145.35 2273.38 Q1143.86 2271.62 1141.3 2271.62 Q1138.75 2271.62 1137.24 2273.38 Q1135.76 2275.13 1135.76 2278.16 Q1135.76 2281.21 1137.24 2282.96 Q1138.75 2284.71 1141.3 2284.71 Z" fill="#000000" fill-rule="nonzero" fill-opacity="1" /><path clip-path="url(#clip730)" d="M2195.25 2320.67 L2202.89 2320.67 L2202.89 2294.3 L2194.58 2295.97 L2194.58 2291.71 L2202.85 2290.05 L2207.52 2290.05 L2207.52 2320.67 L2215.16 2320.67 L2215.16 2324.61 L2195.25 2324.61 L2195.25 2320.67 Z" fill="#000000" fill-rule="nonzero" fill-opacity="1" /><path clip-path="url(#clip730)" d="M2234.61 2293.12 Q2230.99 2293.12 2229.17 2296.69 Q2227.36 2300.23 2227.36 2307.36 Q2227.36 2314.47 2229.17 2318.03 Q2230.99 2321.57 2234.61 2321.57 Q2238.24 2321.57 2240.04 2318.03 Q2241.87 2314.47 2241.87 2307.36 Q2241.87 2300.23 2240.04 2296.69 Q2238.24 2293.12 2234.61 2293.12 M2234.61 2289.42 Q2240.42 2289.42 2243.47 2294.03 Q2246.55 2298.61 2246.55 2307.36 Q2246.55 2316.09 2243.47 2320.69 Q2240.42 2325.28 2234.61 2325.28 Q2228.79 2325.28 2225.72 2320.69 Q2222.66 2316.09 2222.66 2307.36 Q2222.66 2298.61 2225.72 2294.03 Q2228.79 2289.42 2234.61 2289.42 Z" fill="#000000" fill-rule="nonzero" fill-opacity="1" /><path clip-path="url(#clip730)" d="M2246.55 2283.52 L2270.66 2283.52 L2270.66 2286.72 L2246.55 2286.72 L2246.55 2283.52 Z" fill="#000000" fill-rule="nonzero" fill-opacity="1" /><path clip-path="url(#clip730)" d="M2286.99 2271.62 Q2284.05 2271.62 2282.57 2274.51 Q2281.1 2277.39 2281.1 2283.18 Q2281.1 2288.96 2282.57 2291.85 Q2284.05 2294.73 2286.99 2294.73 Q2289.94 2294.73 2291.41 2291.85 Q2292.89 2288.96 2292.89 2283.18 Q2292.89 2277.39 2291.41 2274.51 Q2289.94 2271.62 2286.99 2271.62 M2286.99 2268.61 Q2291.71 2268.61 2294.19 2272.35 Q2296.69 2276.07 2296.69 2283.18 Q2296.69 2290.27 2294.19 2294.02 Q2291.71 2297.74 2286.99 2297.74 Q2282.27 2297.74 2279.76 2294.02 Q2277.28 2290.27 2277.28 2283.18 Q2277.28 2276.07 2279.76 2272.35 Q2282.27 2268.61 2286.99 2268.61 Z" fill="#000000" fill-rule="nonzero" fill-opacity="1" /><path clip-path="url(#clip730)" d="M2303.37 2292.42 L2307.34 2292.42 L2307.34 2297.19 L2303.37 2297.19 L2303.37 2292.42 Z" fill="#000000" fill-rule="nonzero" fill-opacity="1" /><path clip-path="url(#clip730)" d="M2323.74 2283.86 Q2321.03 2283.86 2319.47 2285.31 Q2317.92 2286.76 2317.92 2289.3 Q2317.92 2291.83 2319.47 2293.28 Q2321.03 2294.73 2323.74 2294.73 Q2326.44 2294.73 2328.01 2293.28 Q2329.57 2291.82 2329.57 2289.3 Q2329.57 2286.76 2328.01 2285.31 Q2326.46 2283.86 2323.74 2283.86 M2319.94 2282.24 Q2317.49 2281.64 2316.12 2279.97 Q2314.77 2278.29 2314.77 2275.89 Q2314.77 2272.52 2317.15 2270.56 Q2319.56 2268.61 2323.74 2268.61 Q2327.93 2268.61 2330.32 2270.56 Q2332.71 2272.52 2332.71 2275.89 Q2332.71 2278.29 2331.33 2279.97 Q2329.98 2281.64 2327.55 2282.24 Q2330.3 2282.88 2331.82 2284.74 Q2333.37 2286.61 2333.37 2289.3 Q2333.37 2293.38 2330.86 2295.56 Q2328.38 2297.74 2323.74 2297.74 Q2319.09 2297.74 2316.59 2295.56 Q2314.11 2293.38 2314.11 2289.3 Q2314.11 2286.61 2315.65 2284.74 Q2317.19 2282.88 2319.94 2282.24 M2318.55 2276.24 Q2318.55 2278.42 2319.9 2279.65 Q2321.27 2280.87 2323.74 2280.87 Q2326.18 2280.87 2327.55 2279.65 Q2328.95 2278.42 2328.95 2276.24 Q2328.95 2274.06 2327.55 2272.84 Q2326.18 2271.62 2323.74 2271.62 Q2321.27 2271.62 2319.9 2272.84 Q2318.55 2274.06 2318.55 2276.24 Z" fill="#000000" fill-rule="nonzero" fill-opacity="1" /><path clip-path="url(#clip730)" d="M3377.6 2320.67 L3385.24 2320.67 L3385.24 2294.3 L3376.93 2295.97 L3376.93 2291.71 L3385.19 2290.05 L3389.87 2290.05 L3389.87 2320.67 L3397.51 2320.67 L3397.51 2324.61 L3377.6 2324.61 L3377.6 2320.67 Z" fill="#000000" fill-rule="nonzero" fill-opacity="1" /><path clip-path="url(#clip730)" d="M3416.95 2293.12 Q3413.34 2293.12 3411.51 2296.69 Q3409.71 2300.23 3409.71 2307.36 Q3409.71 2314.47 3411.51 2318.03 Q3413.34 2321.57 3416.95 2321.57 Q3420.59 2321.57 3422.39 2318.03 Q3424.22 2314.47 3424.22 2307.36 Q3424.22 2300.23 3422.39 2296.69 Q3420.59 2293.12 3416.95 2293.12 M3416.95 2289.42 Q3422.76 2289.42 3425.82 2294.03 Q3428.9 2298.61 3428.9 2307.36 Q3428.9 2316.09 3425.82 2320.69 Q3422.76 2325.28 3416.95 2325.28 Q3411.14 2325.28 3408.06 2320.69 Q3405.01 2316.09 3405.01 2307.36 Q3405.01 2298.61 3408.06 2294.03 Q3411.14 2289.42 3416.95 2289.42 Z" fill="#000000" fill-rule="nonzero" fill-opacity="1" /><path clip-path="url(#clip730)" d="M3428.9 2283.52 L3453.01 2283.52 L3453.01 2286.72 L3428.9 2286.72 L3428.9 2283.52 Z" fill="#000000" fill-rule="nonzero" fill-opacity="1" /><path clip-path="url(#clip730)" d="M3469.33 2271.62 Q3466.4 2271.62 3464.91 2274.51 Q3463.45 2277.39 3463.45 2283.18 Q3463.45 2288.96 3464.91 2291.85 Q3466.4 2294.73 3469.33 2294.73 Q3472.29 2294.73 3473.75 2291.85 Q3475.24 2288.96 3475.24 2283.18 Q3475.24 2277.39 3473.75 2274.51 Q3472.29 2271.62 3469.33 2271.62 M3469.33 2268.61 Q3474.06 2268.61 3476.54 2272.35 Q3479.04 2276.07 3479.04 2283.18 Q3479.04 2290.27 3476.54 2294.02 Q3474.06 2297.74 3469.33 2297.74 Q3464.61 2297.74 3462.11 2294.02 Q3459.63 2290.27 3459.63 2283.18 Q3459.63 2276.07 3462.11 2272.35 Q3464.61 2268.61 3469.33 2268.61 Z" fill="#000000" fill-rule="nonzero" fill-opacity="1" /><path clip-path="url(#clip730)" d="M3485.72 2292.42 L3489.68 2292.42 L3489.68 2297.19 L3485.72 2297.19 L3485.72 2292.42 Z" fill="#000000" fill-rule="nonzero" fill-opacity="1" /><path clip-path="url(#clip730)" d="M3497 2269.11 L3515.06 2269.11 L3515.06 2270.73 L3504.86 2297.19 L3500.89 2297.19 L3510.49 2272.31 L3497 2272.31 L3497 2269.11 Z" fill="#000000" fill-rule="nonzero" fill-opacity="1" /><path clip-path="url(#clip730)" d="M2090.24 2396.11 Q2090.24 2390.82 2088.05 2387.83 Q2085.89 2384.81 2082.09 2384.81 Q2078.29 2384.81 2076.1 2387.83 Q2073.94 2390.82 2073.94 2396.11 Q2073.94 2401.4 2076.1 2404.42 Q2078.29 2407.41 2082.09 2407.41 Q2085.89 2407.41 2088.05 2404.42 Q2090.24 2401.4 2090.24 2396.11 M2073.94 2385.93 Q2075.45 2383.32 2077.74 2382.07 Q2080.06 2380.8 2083.26 2380.8 Q2088.57 2380.8 2091.88 2385.02 Q2095.21 2389.23 2095.21 2396.11 Q2095.21 2402.98 2091.88 2407.2 Q2088.57 2411.42 2083.26 2411.42 Q2080.06 2411.42 2077.74 2410.17 Q2075.45 2408.9 2073.94 2406.29 L2073.94 2410.67 L2069.12 2410.67 L2069.12 2370.15 L2073.94 2370.15 L2073.94 2385.93 Z" fill="#000000" fill-rule="nonzero" fill-opacity="1" /><polyline clip-path="url(#clip730)" style="stroke:#000000; stroke-linecap:round; stroke-linejoin:round; stroke-width:4; stroke-opacity:1; fill:none" points="258.824,2233.75 258.824,150.412 "/>
<polyline clip-path="url(#clip730)" style="stroke:#000000; stroke-linecap:round; stroke-linejoin:round; stroke-width:4; stroke-opacity:1; fill:none" points="258.824,2233.75 277.721,2233.75 "/>
<polyline clip-path="url(#clip730)" style="stroke:#000000; stroke-linecap:round; stroke-linejoin:round; stroke-width:4; stroke-opacity:1; fill:none" points="258.824,1801.62 277.721,1801.62 "/>
<polyline clip-path="url(#clip730)" style="stroke:#000000; stroke-linecap:round; stroke-linejoin:round; stroke-width:4; stroke-opacity:1; fill:none" points="258.824,1369.5 277.721,1369.5 "/>
<polyline clip-path="url(#clip730)" style="stroke:#000000; stroke-linecap:round; stroke-linejoin:round; stroke-width:4; stroke-opacity:1; fill:none" points="258.824,937.378 277.721,937.378 "/>
<polyline clip-path="url(#clip730)" style="stroke:#000000; stroke-linecap:round; stroke-linejoin:round; stroke-width:4; stroke-opacity:1; fill:none" points="258.824,505.255 277.721,505.255 "/>
<path clip-path="url(#clip730)" d="M186.879 2219.54 Q183.268 2219.54 181.44 2223.11 Q179.634 2226.65 179.634 2233.78 Q179.634 2240.89 181.44 2244.45 Q183.268 2247.99 186.879 2247.99 Q190.514 2247.99 192.319 2244.45 Q194.148 2240.89 194.148 2233.78 Q194.148 2226.65 192.319 2223.11 Q190.514 2219.54 186.879 2219.54 M186.879 2215.84 Q192.69 2215.84 195.745 2220.45 Q198.824 2225.03 198.824 2233.78 Q198.824 2242.51 195.745 2247.11 Q192.69 2251.7 186.879 2251.7 Q181.069 2251.7 177.991 2247.11 Q174.935 2242.51 174.935 2233.78 Q174.935 2225.03 177.991 2220.45 Q181.069 2215.84 186.879 2215.84 Z" fill="#000000" fill-rule="nonzero" fill-opacity="1" /><path clip-path="url(#clip730)" d="M178.916 1814.97 L186.555 1814.97 L186.555 1788.6 L178.245 1790.27 L178.245 1786.01 L186.509 1784.34 L191.185 1784.34 L191.185 1814.97 L198.824 1814.97 L198.824 1818.9 L178.916 1818.9 L178.916 1814.97 Z" fill="#000000" fill-rule="nonzero" fill-opacity="1" /><path clip-path="url(#clip730)" d="M182.504 1382.85 L198.824 1382.85 L198.824 1386.78 L176.879 1386.78 L176.879 1382.85 Q179.541 1380.09 184.125 1375.46 Q188.731 1370.81 189.912 1369.47 Q192.157 1366.94 193.037 1365.21 Q193.94 1363.45 193.94 1361.76 Q193.94 1359 191.995 1357.27 Q190.074 1355.53 186.972 1355.53 Q184.773 1355.53 182.319 1356.29 Q179.889 1357.06 177.111 1358.61 L177.111 1353.89 Q179.935 1352.75 182.389 1352.17 Q184.842 1351.6 186.879 1351.6 Q192.25 1351.6 195.444 1354.28 Q198.639 1356.97 198.639 1361.46 Q198.639 1363.59 197.828 1365.51 Q197.041 1367.41 194.935 1370 Q194.356 1370.67 191.254 1373.89 Q188.153 1377.08 182.504 1382.85 Z" fill="#000000" fill-rule="nonzero" fill-opacity="1" /><path clip-path="url(#clip730)" d="M191.694 936.024 Q195.051 936.741 196.926 939.01 Q198.824 941.278 198.824 944.611 Q198.824 949.727 195.305 952.528 Q191.787 955.329 185.305 955.329 Q183.129 955.329 180.815 954.889 Q178.523 954.472 176.069 953.616 L176.069 949.102 Q178.014 950.236 180.328 950.815 Q182.643 951.394 185.166 951.394 Q189.565 951.394 191.856 949.658 Q194.171 947.922 194.171 944.611 Q194.171 941.556 192.018 939.843 Q189.889 938.107 186.069 938.107 L182.041 938.107 L182.041 934.264 L186.254 934.264 Q189.703 934.264 191.532 932.899 Q193.361 931.51 193.361 928.917 Q193.361 926.255 191.463 924.843 Q189.588 923.408 186.069 923.408 Q184.148 923.408 181.949 923.825 Q179.75 924.241 177.111 925.121 L177.111 920.954 Q179.773 920.213 182.088 919.843 Q184.426 919.473 186.486 919.473 Q191.81 919.473 194.912 921.903 Q198.014 924.311 198.014 928.431 Q198.014 931.301 196.37 933.292 Q194.727 935.26 191.694 936.024 Z" fill="#000000" fill-rule="nonzero" fill-opacity="1" /><path clip-path="url(#clip730)" d="M189.24 492.049 L177.435 510.498 L189.24 510.498 L189.24 492.049 M188.014 487.975 L193.893 487.975 L193.893 510.498 L198.824 510.498 L198.824 514.387 L193.893 514.387 L193.893 522.535 L189.24 522.535 L189.24 514.387 L173.639 514.387 L173.639 509.873 L188.014 487.975 Z" fill="#000000" fill-rule="nonzero" fill-opacity="1" /><path clip-path="url(#clip730)" d="M68.277 1321.13 L97.5997 1331.8 L97.5997 1310.42 L68.277 1321.13 M101.975 1338.94 L63.0947 1324.1 L63.0947 1318.13 L101.975 1303.32 L101.975 1338.94 Z" fill="#000000" fill-rule="nonzero" fill-opacity="1" /><path clip-path="url(#clip730)" d="M76.1676 1269.59 Q76.1676 1273.45 79.1884 1275.69 Q82.1832 1277.92 87.4175 1277.92 Q92.6518 1277.92 95.6727 1275.71 Q98.6674 1273.47 98.6674 1269.59 Q98.6674 1265.76 95.6466 1263.52 Q92.6258 1261.28 87.4175 1261.28 Q82.2352 1261.28 79.2144 1263.52 Q76.1676 1265.76 76.1676 1269.59 M72.1051 1269.59 Q72.1051 1263.34 76.1676 1259.77 Q80.23 1256.21 87.4175 1256.21 Q94.5789 1256.21 98.6674 1259.77 Q102.73 1263.34 102.73 1269.59 Q102.73 1275.87 98.6674 1279.43 Q94.5789 1282.98 87.4175 1282.98 Q80.23 1282.98 76.1676 1279.43 Q72.1051 1275.87 72.1051 1269.59 Z" fill="#000000" fill-rule="nonzero" fill-opacity="1" /><path clip-path="url(#clip730)" d="M87.4175 1227.33 Q82.1311 1227.33 79.1363 1229.51 Q76.1155 1231.67 76.1155 1235.48 Q76.1155 1239.28 79.1363 1241.47 Q82.1311 1243.63 87.4175 1243.63 Q92.7039 1243.63 95.7247 1241.47 Q98.7195 1239.28 98.7195 1235.48 Q98.7195 1231.67 95.7247 1229.51 Q92.7039 1227.33 87.4175 1227.33 M77.2353 1243.63 Q74.6311 1242.12 73.3811 1239.83 Q72.1051 1237.51 72.1051 1234.31 Q72.1051 1228.99 76.3238 1225.69 Q80.5425 1222.35 87.4175 1222.35 Q94.2925 1222.35 98.5112 1225.69 Q102.73 1228.99 102.73 1234.31 Q102.73 1237.51 101.48 1239.83 Q100.204 1242.12 97.5997 1243.63 L101.975 1243.63 L101.975 1248.45 L61.4541 1248.45 L61.4541 1243.63 L77.2353 1243.63 Z" fill="#000000" fill-rule="nonzero" fill-opacity="1" /><path clip-path="url(#clip730)" d="M72.8082 1214.41 L72.8082 1209.62 L102.496 1209.62 Q108.068 1209.62 110.568 1211.75 Q113.068 1213.86 113.068 1218.58 L113.068 1220.4 L109.006 1220.4 L109.006 1219.12 Q109.006 1216.39 107.73 1215.4 Q106.48 1214.41 102.496 1214.41 L72.8082 1214.41 M61.4541 1214.41 L61.4541 1209.62 L67.5218 1209.62 L67.5218 1214.41 L61.4541 1214.41 Z" fill="#000000" fill-rule="nonzero" fill-opacity="1" /><path clip-path="url(#clip730)" d="M86.1935 1174.64 L88.5373 1174.64 L88.5373 1196.68 Q93.4852 1196.36 96.0893 1193.71 Q98.6674 1191.02 98.6674 1186.26 Q98.6674 1183.5 97.9904 1180.92 Q97.3133 1178.32 95.9591 1175.76 L100.49 1175.76 Q101.584 1178.34 102.157 1181.05 Q102.73 1183.76 102.73 1186.54 Q102.73 1193.52 98.6674 1197.61 Q94.605 1201.67 87.6779 1201.67 Q80.5165 1201.67 76.3238 1197.82 Q72.1051 1193.94 72.1051 1187.38 Q72.1051 1181.49 75.9071 1178.08 Q79.6832 1174.64 86.1935 1174.64 M84.7873 1179.44 Q80.855 1179.49 78.5113 1181.65 Q76.1676 1183.78 76.1676 1187.33 Q76.1676 1191.34 78.4332 1193.76 Q80.6988 1196.15 84.8133 1196.52 L84.7873 1179.44 Z" fill="#000000" fill-rule="nonzero" fill-opacity="1" /><path clip-path="url(#clip730)" d="M73.928 1145.79 L78.4071 1145.79 Q77.2873 1147.82 76.7405 1149.88 Q76.1676 1151.91 76.1676 1153.99 Q76.1676 1158.65 79.1363 1161.23 Q82.079 1163.81 87.4175 1163.81 Q92.756 1163.81 95.7247 1161.23 Q98.6674 1158.65 98.6674 1153.99 Q98.6674 1151.91 98.1206 1149.88 Q97.5477 1147.82 96.4279 1145.79 L100.855 1145.79 Q101.792 1147.8 102.261 1149.96 Q102.73 1152.09 102.73 1154.51 Q102.73 1161.1 98.5893 1164.98 Q94.4487 1168.86 87.4175 1168.86 Q80.2821 1168.86 76.1936 1164.96 Q72.1051 1161.02 72.1051 1154.2 Q72.1051 1151.99 72.5738 1149.88 Q73.0165 1147.77 73.928 1145.79 Z" fill="#000000" fill-rule="nonzero" fill-opacity="1" /><path clip-path="url(#clip730)" d="M64.527 1132.72 L72.8082 1132.72 L72.8082 1122.85 L76.5321 1122.85 L76.5321 1132.72 L92.3654 1132.72 Q95.9331 1132.72 96.9487 1131.75 Q97.9643 1130.76 97.9643 1127.77 L97.9643 1122.85 L101.975 1122.85 L101.975 1127.77 Q101.975 1133.32 99.9174 1135.43 Q97.8341 1137.53 92.3654 1137.53 L76.5321 1137.53 L76.5321 1141.05 L72.8082 1141.05 L72.8082 1137.53 L64.527 1137.53 L64.527 1132.72 Z" fill="#000000" fill-rule="nonzero" fill-opacity="1" /><path clip-path="url(#clip730)" d="M72.8082 1116.55 L72.8082 1111.75 L101.975 1111.75 L101.975 1116.55 L72.8082 1116.55 M61.4541 1116.55 L61.4541 1111.75 L67.5218 1111.75 L67.5218 1116.55 L61.4541 1116.55 Z" fill="#000000" fill-rule="nonzero" fill-opacity="1" /><path clip-path="url(#clip730)" d="M72.8082 1105.17 L72.8082 1100.09 L97.2872 1090.97 L72.8082 1081.86 L72.8082 1076.78 L101.975 1087.72 L101.975 1094.23 L72.8082 1105.17 Z" fill="#000000" fill-rule="nonzero" fill-opacity="1" /><path clip-path="url(#clip730)" d="M86.1935 1045.22 L88.5373 1045.22 L88.5373 1067.25 Q93.4852 1066.94 96.0893 1064.28 Q98.6674 1061.6 98.6674 1056.83 Q98.6674 1054.07 97.9904 1051.49 Q97.3133 1048.89 95.9591 1046.34 L100.49 1046.34 Q101.584 1048.92 102.157 1051.62 Q102.73 1054.33 102.73 1057.12 Q102.73 1064.1 98.6674 1068.19 Q94.605 1072.25 87.6779 1072.25 Q80.5165 1072.25 76.3238 1068.39 Q72.1051 1064.51 72.1051 1057.95 Q72.1051 1052.07 75.9071 1048.65 Q79.6832 1045.22 86.1935 1045.22 M84.7873 1050.01 Q80.855 1050.06 78.5113 1052.22 Q76.1676 1054.36 76.1676 1057.9 Q76.1676 1061.91 78.4332 1064.33 Q80.6988 1066.73 84.8133 1067.09 L84.7873 1050.01 Z" fill="#000000" fill-rule="nonzero" fill-opacity="1" /><path clip-path="url(#clip730)" d="M1895.78 35.6653 Q1895.78 29.7915 1893.35 26.464 Q1890.95 23.1075 1886.73 23.1075 Q1882.5 23.1075 1880.07 26.464 Q1877.67 29.7915 1877.67 35.6653 Q1877.67 41.5391 1880.07 44.8956 Q1882.5 48.2231 1886.73 48.2231 Q1890.95 48.2231 1893.35 44.8956 Q1895.78 41.5391 1895.78 35.6653 M1877.67 24.3517 Q1879.35 21.4582 1881.89 20.0693 Q1884.47 18.6515 1888.03 18.6515 Q1893.93 18.6515 1897.61 23.339 Q1901.31 28.0265 1901.31 35.6653 Q1901.31 43.3042 1897.61 47.9916 Q1893.93 52.6791 1888.03 52.6791 Q1884.47 52.6791 1881.89 51.2902 Q1879.35 49.8724 1877.67 46.9789 L1877.67 51.84 L1872.32 51.84 L1872.32 6.81709 L1877.67 6.81709 L1877.67 24.3517 Z" fill="#000000" fill-rule="nonzero" fill-opacity="1" /><path clip-path="url(#clip730)" d="M1935.83 6.55668 L1935.83 65.8156 L1930.91 65.8156 L1930.91 6.55668 L1935.83 6.55668 Z" fill="#000000" fill-rule="nonzero" fill-opacity="1" /><path clip-path="url(#clip730)" d="M1968 8.64 L1973.85 8.64 L1973.85 51.84 L1968 51.84 L1968 8.64 Z" fill="#000000" fill-rule="nonzero" fill-opacity="1" /><path clip-path="url(#clip730)" d="M2006.58 24.3517 L2006.58 6.81709 L2011.9 6.81709 L2011.9 51.84 L2006.58 51.84 L2006.58 46.9789 Q2004.9 49.8724 2002.32 51.2902 Q1999.78 52.6791 1996.19 52.6791 Q1990.31 52.6791 1986.61 47.9916 Q1982.94 43.3042 1982.94 35.6653 Q1982.94 28.0265 1986.61 23.339 Q1990.31 18.6515 1996.19 18.6515 Q1999.78 18.6515 2002.32 20.0693 Q2004.9 21.4582 2006.58 24.3517 M1988.43 35.6653 Q1988.43 41.5391 1990.83 44.8956 Q1993.26 48.2231 1997.49 48.2231 Q2001.71 48.2231 2004.14 44.8956 Q2006.58 41.5391 2006.58 35.6653 Q2006.58 29.7915 2004.14 26.464 Q2001.71 23.1075 1997.49 23.1075 Q1993.26 23.1075 1990.83 26.464 Q1988.43 29.7915 1988.43 35.6653 Z" fill="#000000" fill-rule="nonzero" fill-opacity="1" /><path clip-path="url(#clip730)" d="M2050.59 34.3054 L2050.59 36.9095 L2026.11 36.9095 Q2026.45 42.4072 2029.4 45.3007 Q2032.39 48.1653 2037.68 48.1653 Q2040.75 48.1653 2043.61 47.4129 Q2046.51 46.6606 2049.34 45.156 L2049.34 50.1907 Q2046.48 51.406 2043.47 52.0425 Q2040.46 52.6791 2037.36 52.6791 Q2029.61 52.6791 2025.06 48.1653 Q2020.55 43.6514 2020.55 35.9547 Q2020.55 27.9975 2024.83 23.339 Q2029.14 18.6515 2036.44 18.6515 Q2042.98 18.6515 2046.77 22.876 Q2050.59 27.0716 2050.59 34.3054 M2045.26 32.7429 Q2045.2 28.3737 2042.8 25.7695 Q2040.43 23.1654 2036.49 23.1654 Q2032.04 23.1654 2029.35 25.6827 Q2026.68 28.2001 2026.28 32.7718 L2045.26 32.7429 Z" fill="#000000" fill-rule="nonzero" fill-opacity="1" /><path clip-path="url(#clip730)" d="M2086.26 32.2799 L2086.26 51.84 L2080.94 51.84 L2080.94 32.4535 Q2080.94 27.8529 2079.14 25.567 Q2077.35 23.2811 2073.76 23.2811 Q2069.45 23.2811 2066.96 26.03 Q2064.47 28.7788 2064.47 33.5241 L2064.47 51.84 L2059.12 51.84 L2059.12 19.4328 L2064.47 19.4328 L2064.47 24.4675 Q2066.38 21.545 2068.96 20.0983 Q2071.56 18.6515 2074.95 18.6515 Q2080.53 18.6515 2083.4 22.1237 Q2086.26 25.567 2086.26 32.2799 Z" fill="#000000" fill-rule="nonzero" fill-opacity="1" /><path clip-path="url(#clip730)" d="M2102.15 10.2314 L2102.15 19.4328 L2113.11 19.4328 L2113.11 23.5705 L2102.15 23.5705 L2102.15 41.163 Q2102.15 45.1271 2103.22 46.2555 Q2104.32 47.384 2107.65 47.384 L2113.11 47.384 L2113.11 51.84 L2107.65 51.84 Q2101.48 51.84 2099.14 49.5541 Q2096.79 47.2393 2096.79 41.163 L2096.79 23.5705 L2092.89 23.5705 L2092.89 19.4328 L2096.79 19.4328 L2096.79 10.2314 L2102.15 10.2314 Z" fill="#000000" fill-rule="nonzero" fill-opacity="1" /><path clip-path="url(#clip730)" d="M2120.12 19.4328 L2125.44 19.4328 L2125.44 51.84 L2120.12 51.84 L2120.12 19.4328 M2120.12 6.81709 L2125.44 6.81709 L2125.44 13.559 L2120.12 13.559 L2120.12 6.81709 Z" fill="#000000" fill-rule="nonzero" fill-opacity="1" /><path clip-path="url(#clip730)" d="M2152.99 6.81709 L2152.99 11.2442 L2147.89 11.2442 Q2145.03 11.2442 2143.9 12.4016 Q2142.8 13.559 2142.8 16.5682 L2142.8 19.4328 L2151.57 19.4328 L2151.57 23.5705 L2142.8 23.5705 L2142.8 51.84 L2137.45 51.84 L2137.45 23.5705 L2132.36 23.5705 L2132.36 19.4328 L2137.45 19.4328 L2137.45 17.1758 Q2137.45 11.765 2139.97 9.30551 Q2142.48 6.81709 2147.95 6.81709 L2152.99 6.81709 Z" fill="#000000" fill-rule="nonzero" fill-opacity="1" /><path clip-path="url(#clip730)" d="M2157.44 19.4328 L2162.77 19.4328 L2162.77 51.84 L2157.44 51.84 L2157.44 19.4328 M2157.44 6.81709 L2162.77 6.81709 L2162.77 13.559 L2157.44 13.559 L2157.44 6.81709 Z" fill="#000000" fill-rule="nonzero" fill-opacity="1" /><path clip-path="url(#clip730)" d="M2188.63 35.5496 Q2182.18 35.5496 2179.69 37.0253 Q2177.2 38.501 2177.2 42.06 Q2177.2 44.8956 2179.06 46.5738 Q2180.94 48.2231 2184.15 48.2231 Q2188.58 48.2231 2191.24 45.0981 Q2193.93 41.9442 2193.93 36.7359 L2193.93 35.5496 L2188.63 35.5496 M2199.25 33.3505 L2199.25 51.84 L2193.93 51.84 L2193.93 46.921 Q2192.11 49.8724 2189.39 51.2902 Q2186.67 52.6791 2182.73 52.6791 Q2177.75 52.6791 2174.8 49.9014 Q2171.88 47.0947 2171.88 42.4072 Q2171.88 36.9385 2175.53 34.1607 Q2179.2 31.3829 2186.46 31.3829 L2193.93 31.3829 L2193.93 30.8621 Q2193.93 27.1874 2191.5 25.1908 Q2189.1 23.1654 2184.73 23.1654 Q2181.95 23.1654 2179.32 23.8309 Q2176.68 24.4964 2174.25 25.8274 L2174.25 20.9085 Q2177.18 19.78 2179.92 19.2302 Q2182.67 18.6515 2185.28 18.6515 Q2192.31 18.6515 2195.78 22.2973 Q2199.25 25.9431 2199.25 33.3505 Z" fill="#000000" fill-rule="nonzero" fill-opacity="1" /><path clip-path="url(#clip730)" d="M2233.48 35.6653 Q2233.48 29.7915 2231.05 26.464 Q2228.65 23.1075 2224.43 23.1075 Q2220.2 23.1075 2217.77 26.464 Q2215.37 29.7915 2215.37 35.6653 Q2215.37 41.5391 2217.77 44.8956 Q2220.2 48.2231 2224.43 48.2231 Q2228.65 48.2231 2231.05 44.8956 Q2233.48 41.5391 2233.48 35.6653 M2215.37 24.3517 Q2217.05 21.4582 2219.59 20.0693 Q2222.17 18.6515 2225.73 18.6515 Q2231.63 18.6515 2235.31 23.339 Q2239.01 28.0265 2239.01 35.6653 Q2239.01 43.3042 2235.31 47.9916 Q2231.63 52.6791 2225.73 52.6791 Q2222.17 52.6791 2219.59 51.2902 Q2217.05 49.8724 2215.37 46.9789 L2215.37 51.84 L2210.02 51.84 L2210.02 6.81709 L2215.37 6.81709 L2215.37 24.3517 Z" fill="#000000" fill-rule="nonzero" fill-opacity="1" /><path clip-path="url(#clip730)" d="M2247.84 6.81709 L2253.16 6.81709 L2253.16 51.84 L2247.84 51.84 L2247.84 6.81709 Z" fill="#000000" fill-rule="nonzero" fill-opacity="1" /><path clip-path="url(#clip730)" d="M2292.02 34.3054 L2292.02 36.9095 L2267.54 36.9095 Q2267.89 42.4072 2270.84 45.3007 Q2273.82 48.1653 2279.11 48.1653 Q2282.18 48.1653 2285.05 47.4129 Q2287.94 46.6606 2290.77 45.156 L2290.77 50.1907 Q2287.91 51.406 2284.9 52.0425 Q2281.89 52.6791 2278.8 52.6791 Q2271.04 52.6791 2266.5 48.1653 Q2261.98 43.6514 2261.98 35.9547 Q2261.98 27.9975 2266.27 23.339 Q2270.58 18.6515 2277.87 18.6515 Q2284.41 18.6515 2288.2 22.876 Q2292.02 27.0716 2292.02 34.3054 M2286.7 32.7429 Q2286.64 28.3737 2284.24 25.7695 Q2281.86 23.1654 2277.93 23.1654 Q2273.47 23.1654 2270.78 25.6827 Q2268.12 28.2001 2267.71 32.7718 L2286.7 32.7429 Z" fill="#000000" fill-rule="nonzero" fill-opacity="1" /><polyline clip-path="url(#clip732)" style="stroke:#595959; stroke-linecap:round; stroke-linejoin:round; stroke-width:6.8; stroke-opacity:0.95; fill:none" points="258.824,333.469 385.3,577.918 544.276,875.805 1827.64,2233.75 "/>
<polyline clip-path="url(#clip732)" style="stroke:#595959; stroke-linecap:round; stroke-linejoin:round; stroke-width:6.8; stroke-opacity:0.95; fill:none" points="1827.64,2233.75 3111,1208.49 3542.41,678.644 3594.79,615.022 3628.76,574.436 3636.93,489.391 3905.51,249.619 "/>
<polyline clip-path="url(#clip732)" style="stroke:#3cb371; stroke-linecap:round; stroke-linejoin:round; stroke-width:7.2; stroke-opacity:1; fill:none" stroke-dasharray="29, 18" points="-3387.86,573.764 7552.2,573.764 "/>
<polyline clip-path="url(#clip732)" style="stroke:#000000; stroke-linecap:round; stroke-linejoin:round; stroke-width:4.8; stroke-opacity:1; fill:none" stroke-dasharray="2, 5" points="385.3,4317.08 385.3,-1932.92 "/>
<polyline clip-path="url(#clip732)" style="stroke:#000000; stroke-linecap:round; stroke-linejoin:round; stroke-width:4.8; stroke-opacity:1; fill:none" stroke-dasharray="2, 5" points="3628.76,4317.08 3628.76,-1932.92 "/>
<path clip-path="url(#clip732)" d="M1827.64 2215.75 L1809.64 2233.75 L1827.64 2251.75 L1845.64 2233.75 L1827.64 2215.75 Z" fill="#000000" fill-rule="evenodd" fill-opacity="1" stroke="none"/>
</svg>
