<?xml version="1.0" encoding="utf-8"?>
<svg xmlns="http://www.w3.org/2000/svg" xmlns:xlink="http://www.w3.org/1999/xlink" width="1000" height="620" viewBox="0 0 4000 2480">
<defs>
  <clipPath id="clip360">
    <rect x="0" y="0" width="4000" height="2480"/>
  </clipPath>
</defs>
<path clip-path="url(#clip360)" d="M0 2480 L4000 2480 L4000 0 L0 0  Z" fill="#ffffff" fill-rule="evenodd" fill-opacity="1"/>
<defs>
  <clipPath id="clip361">
    <rect x="258" y="150" width="3648" height="2084"/>
  </clipPath>
</defs>
<path clip-path="url(#clip360)" d="M258.824 2233.75 L3905.51 2233.75 L3905.51 150.412 L258.824 150.412  Z" fill="#ffffff" fill-rule="evenodd" fill-opacity="1"/>
<polyline clip-path="url(#clip361)" style="stroke:#000000; stroke-linecap:round; stroke-linejoin:round; stroke-width:2; stroke-opacity:0.15; fill:none" points="467.255,2233.75 467.255,150.412 "/>
<polyline clip-path="url(#clip361)" style="stroke:#000000; stroke-linecap:round; stroke-linejoin:round; stroke-width:2; stroke-opacity:0.15; fill:none" points="1300.09,2233.75 1300.09,150.412 "/>
<polyline clip-path="url(#clip361)" style="stroke:#000000; stroke-linecap:round; stroke-linejoin:round; stroke-width:2; stroke-opacity:0.15; fill:none" points="2132.93,2233.75 2132.93,150.412 "/>
<polyline clip-path="url(#clip361)" style="stroke:#000000; stroke-linecap:round; stroke-linejoin:round; stroke-width:2; stroke-opacity:0.15; fill:none" points="2965.76,2233.75 2965.76,150.412 "/>
<polyline clip-path="url(#clip361)" style="stroke:#000000; stroke-linecap:round; stroke-linejoin:round; stroke-width:2; stroke-opacity:0.15; fill:none" points="3798.6,2233.75 3798.6,150.412 "/>
<polyline clip-path="url(#clip361)" style="stroke:#000000; stroke-linecap:round; stroke-linejoin:round; stroke-width:2; stroke-opacity:0.15; fill:none" points="258.824,2233.75 3905.51,2233.75 "/>
<polyline clip-path="url(#clip361)" style="stroke:#000000; stroke-linecap:round; stroke-linejoin:round; stroke-width:2; stroke-opacity:0.15; fill:none" points="258.824,1845.52 3905.51,1845.52 "/>
<polyline clip-path="url(#clip361)" style="stroke:#000000; stroke-linecap:round; stroke-linejoin:round; stroke-width:2; stroke-opacity:0.15; fill:none" points="258.824,1457.3 3905.51,1457.3 "/>
<polyline clip-path="url(#clip361)" style="stroke:#000000; stroke-linecap:round; stroke-linejoin:round; stroke-width:2; stroke-opacity:0.15; fill:none" points="258.824,1069.08 3905.51,1069.08 "/>
<polyline clip-path="url(#clip361)" style="stroke:#000000; stroke-linecap:round; stroke-linejoin:round; stroke-width:2; stroke-opacity:0.15; fill:none" points="258.824,680.858 3905.51,680.858 "/>
<polyline clip-path="url(#clip361)" style="stroke:#000000; stroke-linecap:round; stroke-linejoin:round; stroke-width:2; stroke-opacity:0.15; fill:none" points="258.824,292.637 3905.51,292.637 "/>
<polyline clip-path="url(#clip360)" style="stroke:#000000; stroke-linecap:round; stroke-linejoin:round; stroke-width:4; stroke-opacity:1; fill:none" points="258.824,2233.75 3905.51,2233.75 "/>
<polyline clip-path="url(#clip360)" style="stroke:#000000; stroke-linecap:round; stroke-linejoin:round; stroke-width:4; stroke-opacity:1; fill:none" points="467.255,2233.75 467.255,2214.85 "/>
<polyline clip-path="url(#clip360)" style="stroke:#000000; stroke-linecap:round; stroke-linejoin:round; stroke-width:4; stroke-opacity:1; fill:none" points="1300.09,2233.75 1300.09,2214.85 "/>
<polyline clip-path="url(#clip360)" style="stroke:#000000; stroke-linecap:round; stroke-linejoin:round; stroke-width:4; stroke-opacity:1; fill:none" points="2132.93,2233.75 2132.93,2214.85 "/>
<polyline clip-path="url(#clip360)" style="stroke:#000000; stroke-linecap:round; stroke-linejoin:round; stroke-width:4; stroke-opacity:1; fill:none" points="2965.76,2233.75 2965.76,2214.85 "/>
<polyline clip-path="url(#clip360)" style="stroke:#000000; stroke-linecap:round; stroke-linejoin:round; stroke-width:4; stroke-opacity:1; fill:none" points="3798.6,2233.75 3798.6,2214.85 "/>
<path clip-path="url(#clip360)" d="M401.609 2320.67 L409.248 2320.67 L409.248 2294.3 L400.938 2295.97 L400.938 2291.71 L409.201 2290.05 L413.877 2290.05 L413.877 2320.67 L421.516 2320.67 L421.516 2324.61 L401.609 2324.61 L401.609 2320.67 Z" fill="#000000" fill-rule="nonzero" fill-opacity="1" /><path clip-path="url(#clip360)" d="M440.961 2293.12 Q437.349 2293.12 435.521 2296.69 Q433.715 2300.23 433.715 2307.36 Q433.715 2314.47 435.521 2318.03 Q437.349 2321.57 440.961 2321.57 Q444.595 2321.57 446.4 2318.03 Q448.229 2314.47 448.229 2307.36 Q448.229 2300.23 446.4 2296.69 Q444.595 2293.12 440.961 2293.12 M440.961 2289.42 Q446.771 2289.42 449.826 2294.03 Q452.905 2298.61 452.905 2307.36 Q452.905 2316.09 449.826 2320.69 Q446.771 2325.28 440.961 2325.28 Q435.15 2325.28 432.072 2320.69 Q429.016 2316.09 429.016 2307.36 Q429.016 2298.61 432.072 2294.03 Q435.15 2289.42 440.961 2289.42 Z" fill="#000000" fill-rule="nonzero" fill-opacity="1" /><path clip-path="url(#clip360)" d="M462.61 2271.62 Q459.676 2271.62 458.19 2274.51 Q456.723 2277.39 456.723 2283.18 Q456.723 2288.96 458.19 2291.85 Q459.676 2294.73 462.61 2294.73 Q465.563 2294.73 467.03 2291.85 Q468.515 2288.96 468.515 2283.18 Q468.515 2277.39 467.03 2274.51 Q465.563 2271.62 462.61 2271.62 M462.61 2268.61 Q467.33 2268.61 469.813 2272.35 Q472.315 2276.07 472.315 2283.18 Q472.315 2290.27 469.813 2294.02 Q467.33 2297.74 462.61 2297.74 Q457.889 2297.74 455.388 2294.02 Q452.905 2290.27 452.905 2283.18 Q452.905 2276.07 455.388 2272.35 Q457.889 2268.61 462.61 2268.61 Z" fill="#000000" fill-rule="nonzero" fill-opacity="1" /><path clip-path="url(#clip360)" d="M478.991 2292.42 L482.96 2292.42 L482.96 2297.19 L478.991 2297.19 L478.991 2292.42 Z" fill="#000000" fill-rule="nonzero" fill-opacity="1" /><path clip-path="url(#clip360)" d="M499.36 2283.86 Q496.652 2283.86 495.091 2285.31 Q493.549 2286.76 493.549 2289.3 Q493.549 2291.83 495.091 2293.28 Q496.652 2294.73 499.36 2294.73 Q502.068 2294.73 503.629 2293.28 Q505.191 2291.82 505.191 2289.3 Q505.191 2286.76 503.629 2285.31 Q502.087 2283.86 499.36 2283.86 M495.561 2282.24 Q493.116 2281.64 491.743 2279.97 Q490.389 2278.29 490.389 2275.89 Q490.389 2272.52 492.777 2270.56 Q495.185 2268.61 499.36 2268.61 Q503.554 2268.61 505.943 2270.56 Q508.331 2272.52 508.331 2275.89 Q508.331 2278.29 506.958 2279.97 Q505.604 2281.64 503.178 2282.24 Q505.924 2282.88 507.447 2284.74 Q508.99 2286.61 508.99 2289.3 Q508.99 2293.38 506.488 2295.56 Q504.006 2297.74 499.36 2297.74 Q494.715 2297.74 492.213 2295.56 Q489.731 2293.38 489.731 2289.3 Q489.731 2286.61 491.273 2284.74 Q492.815 2282.88 495.561 2282.24 M494.169 2276.24 Q494.169 2278.42 495.523 2279.65 Q496.896 2280.87 499.36 2280.87 Q501.805 2280.87 503.178 2279.65 Q504.57 2278.42 504.57 2276.24 Q504.57 2274.06 503.178 2272.84 Q501.805 2271.62 499.36 2271.62 Q496.896 2271.62 495.523 2272.84 Q494.169 2274.06 494.169 2276.24 Z" fill="#000000" fill-rule="nonzero" fill-opacity="1" /><path clip-path="url(#clip360)" d="M523.867 2271.62 Q520.933 2271.62 519.447 2274.51 Q517.98 2277.39 517.98 2283.18 Q517.98 2288.96 519.447 2291.85 Q520.933 2294.73 523.867 2294.73 Q526.819 2294.73 528.286 2291.85 Q529.772 2288.96 529.772 2283.18 Q529.772 2277.39 528.286 2274.51 Q526.819 2271.62 523.867 2271.62 M523.867 2268.61 Q528.587 2268.61 531.07 2272.35 Q533.571 2276.07 533.571 2283.18 Q533.571 2290.27 531.07 2294.02 Q528.587 2297.74 523.867 2297.74 Q519.146 2297.74 516.644 2294.02 Q514.162 2290.27 514.162 2283.18 Q514.162 2276.07 516.644 2272.35 Q519.146 2268.61 523.867 2268.61 Z" fill="#000000" fill-rule="nonzero" fill-opacity="1" /><path clip-path="url(#clip360)" d="M1234.85 2320.67 L1242.49 2320.67 L1242.49 2294.3 L1234.18 2295.97 L1234.18 2291.71 L1242.44 2290.05 L1247.12 2290.05 L1247.12 2320.67 L1254.76 2320.67 L1254.76 2324.61 L1234.85 2324.61 L1234.85 2320.67 Z" fill="#000000" fill-rule="nonzero" fill-opacity="1" /><path clip-path="url(#clip360)" d="M1274.2 2293.12 Q1270.59 2293.12 1268.76 2296.69 Q1266.96 2300.23 1266.96 2307.36 Q1266.96 2314.47 1268.76 2318.03 Q1270.59 2321.57 1274.2 2321.57 Q1277.84 2321.57 1279.64 2318.03 Q1281.47 2314.47 1281.47 2307.36 Q1281.47 2300.23 1279.64 2296.69 Q1277.84 2293.12 1274.2 2293.12 M1274.2 2289.42 Q1280.01 2289.42 1283.07 2294.03 Q1286.15 2298.61 1286.15 2307.36 Q1286.15 2316.09 1283.07 2320.69 Q1280.01 2325.28 1274.2 2325.28 Q1268.39 2325.28 1265.31 2320.69 Q1262.26 2316.09 1262.26 2307.36 Q1262.26 2298.61 1265.31 2294.03 Q1268.39 2289.42 1274.2 2289.42 Z" fill="#000000" fill-rule="nonzero" fill-opacity="1" /><path clip-path="url(#clip360)" d="M1295.85 2271.62 Q1292.92 2271.62 1291.43 2274.51 Q1289.96 2277.39 1289.96 2283.18 Q1289.96 2288.96 1291.43 2291.85 Q1292.92 2294.73 1295.85 2294.73 Q1298.8 2294.73 1300.27 2291.85 Q1301.76 2288.96 1301.76 2283.18 Q1301.76 2277.39 1300.27 2274.51 Q1298.8 2271.62 1295.85 2271.62 M1295.85 2268.61 Q1300.57 2268.61 1303.05 2272.35 Q1305.55 2276.07 1305.55 2283.18 Q1305.55 2290.27 1303.05 2294.02 Q1300.57 2297.74 1295.85 2297.74 Q1291.13 2297.74 1288.63 2294.02 Q1286.15 2290.27 1286.15 2283.18 Q1286.15 2276.07 1288.63 2272.35 Q1291.13 2268.61 1295.85 2268.61 Z" fill="#000000" fill-rule="nonzero" fill-opacity="1" /><path clip-path="url(#clip360)" d="M1312.23 2292.42 L1316.2 2292.42 L1316.2 2297.19 L1312.23 2297.19 L1312.23 2292.42 Z" fill="#000000" fill-rule="nonzero" fill-opacity="1" /><path clip-path="url(#clip360)" d="M1332.6 2283.86 Q1329.89 2283.86 1328.33 2285.31 Q1326.79 2286.76 1326.79 2289.3 Q1326.79 2291.83 1328.33 2293.28 Q1329.89 2294.73 1332.6 2294.73 Q1335.31 2294.73 1336.87 2293.28 Q1338.43 2291.82 1338.43 2289.3 Q1338.43 2286.76 1336.87 2285.31 Q1335.33 2283.86 1332.6 2283.86 M1328.8 2282.24 Q1326.36 2281.64 1324.98 2279.97 Q1323.63 2278.29 1323.63 2275.89 Q1323.63 2272.52 1326.02 2270.56 Q1328.43 2268.61 1332.6 2268.61 Q1336.79 2268.61 1339.18 2270.56 Q1341.57 2272.52 1341.57 2275.89 Q1341.57 2278.29 1340.2 2279.97 Q1338.84 2281.64 1336.42 2282.24 Q1339.16 2282.88 1340.69 2284.74 Q1342.23 2286.61 1342.23 2289.3 Q1342.23 2293.38 1339.73 2295.56 Q1337.25 2297.74 1332.6 2297.74 Q1327.95 2297.74 1325.45 2295.56 Q1322.97 2293.38 1322.97 2289.3 Q1322.97 2286.61 1324.51 2284.74 Q1326.06 2282.88 1328.8 2282.24 M1327.41 2276.24 Q1327.41 2278.42 1328.76 2279.65 Q1330.14 2280.87 1332.6 2280.87 Q1335.05 2280.87 1336.42 2279.65 Q1337.81 2278.42 1337.81 2276.24 Q1337.81 2274.06 1336.42 2272.84 Q1335.05 2271.62 1332.6 2271.62 Q1330.14 2271.62 1328.76 2272.84 Q1327.41 2274.06 1327.41 2276.24 Z" fill="#000000" fill-rule="nonzero" fill-opacity="1" /><path clip-path="url(#clip360)" d="M1349.02 2269.11 L1363.93 2269.11 L1363.93 2272.31 L1352.5 2272.31 L1352.5 2279.2 Q1353.33 2278.91 1354.15 2278.78 Q1354.98 2278.63 1355.81 2278.63 Q1360.51 2278.63 1363.26 2281.21 Q1366 2283.78 1366 2288.19 Q1366 2292.72 1363.18 2295.24 Q1360.36 2297.74 1355.23 2297.74 Q1353.46 2297.74 1351.62 2297.44 Q1349.79 2297.14 1347.83 2296.54 L1347.83 2292.72 Q1349.53 2293.64 1351.33 2294.09 Q1353.14 2294.54 1355.15 2294.54 Q1358.4 2294.54 1360.3 2292.83 Q1362.2 2291.12 1362.2 2288.19 Q1362.2 2285.25 1360.3 2283.54 Q1358.4 2281.83 1355.15 2281.83 Q1353.63 2281.83 1352.1 2282.17 Q1350.6 2282.51 1349.02 2283.22 L1349.02 2269.11 Z" fill="#000000" fill-rule="nonzero" fill-opacity="1" /><path clip-path="url(#clip360)" d="M2067.28 2320.67 L2074.92 2320.67 L2074.92 2294.3 L2066.61 2295.97 L2066.61 2291.71 L2074.87 2290.05 L2079.55 2290.05 L2079.55 2320.67 L2087.19 2320.67 L2087.19 2324.61 L2067.28 2324.61 L2067.28 2320.67 Z" fill="#000000" fill-rule="nonzero" fill-opacity="1" /><path clip-path="url(#clip360)" d="M2106.63 2293.12 Q2103.02 2293.12 2101.19 2296.69 Q2099.39 2300.23 2099.39 2307.36 Q2099.39 2314.47 2101.19 2318.03 Q2103.02 2321.57 2106.63 2321.57 Q2110.27 2321.57 2112.07 2318.03 Q2113.9 2314.47 2113.9 2307.36 Q2113.9 2300.23 2112.07 2296.69 Q2110.27 2293.12 2106.63 2293.12 M2106.63 2289.42 Q2112.44 2289.42 2115.5 2294.03 Q2118.58 2298.61 2118.58 2307.36 Q2118.58 2316.09 2115.5 2320.69 Q2112.44 2325.28 2106.63 2325.28 Q2100.82 2325.28 2097.74 2320.69 Q2094.69 2316.09 2094.69 2307.36 Q2094.69 2298.61 2097.74 2294.03 Q2100.82 2289.42 2106.63 2289.42 Z" fill="#000000" fill-rule="nonzero" fill-opacity="1" /><path clip-path="url(#clip360)" d="M2128.28 2271.62 Q2125.35 2271.62 2123.86 2274.51 Q2122.39 2277.39 2122.39 2283.18 Q2122.39 2288.96 2123.86 2291.85 Q2125.35 2294.73 2128.28 2294.73 Q2131.23 2294.73 2132.7 2291.85 Q2134.19 2288.96 2134.19 2283.18 Q2134.19 2277.39 2132.7 2274.51 Q2131.23 2271.62 2128.28 2271.62 M2128.28 2268.61 Q2133 2268.61 2135.48 2272.35 Q2137.99 2276.07 2137.99 2283.18 Q2137.99 2290.27 2135.48 2294.02 Q2133 2297.74 2128.28 2297.74 Q2123.56 2297.74 2121.06 2294.02 Q2118.58 2290.27 2118.58 2283.18 Q2118.58 2276.07 2121.06 2272.35 Q2123.56 2268.61 2128.28 2268.61 Z" fill="#000000" fill-rule="nonzero" fill-opacity="1" /><path clip-path="url(#clip360)" d="M2144.66 2292.42 L2148.63 2292.42 L2148.63 2297.19 L2144.66 2297.19 L2144.66 2292.42 Z" fill="#000000" fill-rule="nonzero" fill-opacity="1" /><path clip-path="url(#clip360)" d="M2157.02 2296.61 L2157.02 2293.15 Q2158.45 2293.83 2159.92 2294.19 Q2161.38 2294.54 2162.79 2294.54 Q2166.56 2294.54 2168.53 2292.02 Q2170.52 2289.48 2170.81 2284.33 Q2169.72 2285.95 2168.04 2286.81 Q2166.37 2287.68 2164.34 2287.68 Q2160.12 2287.68 2157.66 2285.14 Q2155.21 2282.58 2155.21 2278.16 Q2155.21 2273.84 2157.77 2271.22 Q2160.33 2268.61 2164.58 2268.61 Q2169.45 2268.61 2172.01 2272.35 Q2174.59 2276.07 2174.59 2283.18 Q2174.59 2289.82 2171.43 2293.79 Q2168.29 2297.74 2162.96 2297.74 Q2161.53 2297.74 2160.07 2297.46 Q2158.6 2297.18 2157.02 2296.61 M2164.58 2284.71 Q2167.14 2284.71 2168.62 2282.96 Q2170.13 2281.21 2170.13 2278.16 Q2170.13 2275.13 2168.62 2273.38 Q2167.14 2271.62 2164.58 2271.62 Q2162.02 2271.62 2160.52 2273.38 Q2159.03 2275.13 2159.03 2278.16 Q2159.03 2281.21 2160.52 2282.96 Q2162.02 2284.71 2164.58 2284.71 Z" fill="#000000" fill-rule="nonzero" fill-opacity="1" /><path clip-path="url(#clip360)" d="M2189.54 2271.62 Q2186.6 2271.62 2185.12 2274.51 Q2183.65 2277.39 2183.65 2283.18 Q2183.65 2288.96 2185.12 2291.85 Q2186.6 2294.73 2189.54 2294.73 Q2192.49 2294.73 2193.96 2291.85 Q2195.44 2288.96 2195.44 2283.18 Q2195.44 2277.39 2193.96 2274.51 Q2192.49 2271.62 2189.54 2271.62 M2189.54 2268.61 Q2194.26 2268.61 2196.74 2272.35 Q2199.24 2276.07 2199.24 2283.18 Q2199.24 2290.27 2196.74 2294.02 Q2194.26 2297.74 2189.54 2297.74 Q2184.82 2297.74 2182.32 2294.02 Q2179.83 2290.27 2179.83 2283.18 Q2179.83 2276.07 2182.32 2272.35 Q2184.82 2268.61 2189.54 2268.61 Z" fill="#000000" fill-rule="nonzero" fill-opacity="1" /><path clip-path="url(#clip360)" d="M2900.52 2320.67 L2908.16 2320.67 L2908.16 2294.3 L2899.85 2295.97 L2899.85 2291.71 L2908.11 2290.05 L2912.79 2290.05 L2912.79 2320.67 L2920.43 2320.67 L2920.43 2324.61 L2900.52 2324.61 L2900.52 2320.67 Z" fill="#000000" fill-rule="nonzero" fill-opacity="1" /><path clip-path="url(#clip360)" d="M2939.87 2293.12 Q2936.26 2293.12 2934.43 2296.69 Q2932.63 2300.23 2932.63 2307.36 Q2932.63 2314.47 2934.43 2318.03 Q2936.26 2321.57 2939.87 2321.57 Q2943.51 2321.57 2945.31 2318.03 Q2947.14 2314.47 2947.14 2307.36 Q2947.14 2300.23 2945.31 2296.69 Q2943.51 2293.12 2939.87 2293.12 M2939.87 2289.42 Q2945.68 2289.42 2948.74 2294.03 Q2951.82 2298.61 2951.82 2307.36 Q2951.82 2316.09 2948.74 2320.69 Q2945.68 2325.28 2939.87 2325.28 Q2934.06 2325.28 2930.98 2320.69 Q2927.93 2316.09 2927.93 2307.36 Q2927.93 2298.61 2930.98 2294.03 Q2934.06 2289.42 2939.87 2289.42 Z" fill="#000000" fill-rule="nonzero" fill-opacity="1" /><path clip-path="url(#clip360)" d="M2961.52 2271.62 Q2958.59 2271.62 2957.1 2274.51 Q2955.64 2277.39 2955.64 2283.18 Q2955.64 2288.96 2957.1 2291.85 Q2958.59 2294.73 2961.52 2294.73 Q2964.47 2294.73 2965.94 2291.85 Q2967.43 2288.96 2967.43 2283.18 Q2967.43 2277.39 2965.94 2274.51 Q2964.47 2271.62 2961.52 2271.62 M2961.52 2268.61 Q2966.24 2268.61 2968.73 2272.35 Q2971.23 2276.07 2971.23 2283.18 Q2971.23 2290.27 2968.73 2294.02 Q2966.24 2297.74 2961.52 2297.74 Q2956.8 2297.74 2954.3 2294.02 Q2951.82 2290.27 2951.82 2283.18 Q2951.82 2276.07 2954.3 2272.35 Q2956.8 2268.61 2961.52 2268.61 Z" fill="#000000" fill-rule="nonzero" fill-opacity="1" /><path clip-path="url(#clip360)" d="M2977.9 2292.42 L2981.87 2292.42 L2981.87 2297.19 L2977.9 2297.19 L2977.9 2292.42 Z" fill="#000000" fill-rule="nonzero" fill-opacity="1" /><path clip-path="url(#clip360)" d="M2990.26 2296.61 L2990.26 2293.15 Q2991.69 2293.83 2993.16 2294.19 Q2994.62 2294.54 2996.03 2294.54 Q2999.8 2294.54 3001.77 2292.02 Q3003.76 2289.48 3004.05 2284.33 Q3002.96 2285.95 3001.28 2286.81 Q2999.61 2287.68 2997.58 2287.68 Q2993.36 2287.68 2990.9 2285.14 Q2988.45 2282.58 2988.45 2278.16 Q2988.45 2273.84 2991.01 2271.22 Q2993.57 2268.61 2997.82 2268.61 Q3002.69 2268.61 3005.25 2272.35 Q3007.83 2276.07 3007.83 2283.18 Q3007.83 2289.82 3004.67 2293.79 Q3001.53 2297.74 2996.2 2297.74 Q2994.77 2297.74 2993.31 2297.46 Q2991.84 2297.18 2990.26 2296.61 M2997.82 2284.71 Q3000.38 2284.71 3001.86 2282.96 Q3003.37 2281.21 3003.37 2278.16 Q3003.37 2275.13 3001.86 2273.38 Q3000.38 2271.62 2997.82 2271.62 Q2995.26 2271.62 2993.76 2273.38 Q2992.27 2275.13 2992.27 2278.16 Q2992.27 2281.21 2993.76 2282.96 Q2995.26 2284.71 2997.82 2284.71 Z" fill="#000000" fill-rule="nonzero" fill-opacity="1" /><path clip-path="url(#clip360)" d="M3014.69 2269.11 L3029.61 2269.11 L3029.61 2272.31 L3018.17 2272.31 L3018.17 2279.2 Q3019 2278.91 3019.83 2278.78 Q3020.65 2278.63 3021.48 2278.63 Q3026.18 2278.63 3028.93 2281.21 Q3031.67 2283.78 3031.67 2288.19 Q3031.67 2292.72 3028.85 2295.24 Q3026.03 2297.74 3020.9 2297.74 Q3019.13 2297.74 3017.29 2297.44 Q3015.46 2297.14 3013.51 2296.54 L3013.51 2292.72 Q3015.2 2293.64 3017 2294.09 Q3018.81 2294.54 3020.82 2294.54 Q3024.08 2294.54 3025.98 2292.83 Q3027.88 2291.12 3027.88 2288.19 Q3027.88 2285.25 3025.98 2283.54 Q3024.08 2281.83 3020.82 2281.83 Q3019.3 2281.83 3017.78 2282.17 Q3016.27 2282.51 3014.69 2283.22 L3014.69 2269.11 Z" fill="#000000" fill-rule="nonzero" fill-opacity="1" /><path clip-path="url(#clip360)" d="M3733.8 2320.67 L3741.44 2320.67 L3741.44 2294.3 L3733.13 2295.97 L3733.13 2291.71 L3741.39 2290.05 L3746.07 2290.05 L3746.07 2320.67 L3753.71 2320.67 L3753.71 2324.61 L3733.8 2324.61 L3733.8 2320.67 Z" fill="#000000" fill-rule="nonzero" fill-opacity="1" /><path clip-path="url(#clip360)" d="M3773.15 2293.12 Q3769.54 2293.12 3767.71 2296.69 Q3765.91 2300.23 3765.91 2307.36 Q3765.91 2314.47 3767.71 2318.03 Q3769.54 2321.57 3773.15 2321.57 Q3776.78 2321.57 3778.59 2318.03 Q3780.42 2314.47 3780.42 2307.36 Q3780.42 2300.23 3778.59 2296.69 Q3776.78 2293.12 3773.15 2293.12 M3773.15 2289.42 Q3778.96 2289.42 3782.02 2294.03 Q3785.09 2298.61 3785.09 2307.36 Q3785.09 2316.09 3782.02 2320.69 Q3778.96 2325.28 3773.15 2325.28 Q3767.34 2325.28 3764.26 2320.69 Q3761.21 2316.09 3761.21 2307.36 Q3761.21 2298.61 3764.26 2294.03 Q3767.34 2289.42 3773.15 2289.42 Z" fill="#000000" fill-rule="nonzero" fill-opacity="1" /><path clip-path="url(#clip360)" d="M3785.64 2294 L3791.85 2294 L3791.85 2272.58 L3785.09 2273.93 L3785.09 2270.47 L3791.81 2269.11 L3795.61 2269.11 L3795.61 2294 L3801.82 2294 L3801.82 2297.19 L3785.64 2297.19 L3785.64 2294 Z" fill="#000000" fill-rule="nonzero" fill-opacity="1" /><path clip-path="url(#clip360)" d="M3809.49 2292.42 L3813.46 2292.42 L3813.46 2297.19 L3809.49 2297.19 L3809.49 2292.42 Z" fill="#000000" fill-rule="nonzero" fill-opacity="1" /><path clip-path="url(#clip360)" d="M3829.86 2271.62 Q3826.92 2271.62 3825.44 2274.51 Q3823.97 2277.39 3823.97 2283.18 Q3823.97 2288.96 3825.44 2291.85 Q3826.92 2294.73 3829.86 2294.73 Q3832.81 2294.73 3834.28 2291.85 Q3835.76 2288.96 3835.76 2283.18 Q3835.76 2277.39 3834.28 2274.51 Q3832.81 2271.62 3829.86 2271.62 M3829.86 2268.61 Q3834.58 2268.61 3837.06 2272.35 Q3839.56 2276.07 3839.56 2283.18 Q3839.56 2290.27 3837.06 2294.02 Q3834.58 2297.74 3829.86 2297.74 Q3825.14 2297.74 3822.64 2294.02 Q3820.15 2290.27 3820.15 2283.18 Q3820.15 2276.07 3822.64 2272.35 Q3825.14 2268.61 3829.86 2268.61 Z" fill="#000000" fill-rule="nonzero" fill-opacity="1" /><path clip-path="url(#clip360)" d="M3854.36 2271.62 Q3851.43 2271.62 3849.94 2274.51 Q3848.48 2277.39 3848.48 2283.18 Q3848.48 2288.96 3849.94 2291.85 Q3851.43 2294.73 3854.36 2294.73 Q3857.32 2294.73 3858.78 2291.85 Q3860.27 2288.96 3860.27 2283.18 Q3860.27 2277.39 3858.78 2274.51 Q3857.32 2271.62 3854.36 2271.62 M3854.36 2268.61 Q3859.08 2268.61 3861.57 2272.35 Q3864.07 2276.07 3864.07 2283.18 Q3864.07 2290.27 3861.57 2294.02 Q3859.08 2297.74 3854.36 2297.74 Q3849.64 2297.74 3847.14 2294.02 Q3844.66 2290.27 3844.66 2283.18 Q3844.66 2276.07 3847.14 2272.35 Q3849.64 2268.61 3854.36 2268.61 Z" fill="#000000" fill-rule="nonzero" fill-opacity="1" /><path clip-path="url(#clip360)" d="M2053.98 2374.78 L2053.98 2380.33 Q2051.32 2377.85 2048.3 2376.63 Q2045.31 2375.41 2041.92 2375.41 Q2035.25 2375.41 2031.71 2379.49 Q2028.17 2383.56 2028.17 2391.27 Q2028.17 2398.95 2031.71 2403.04 Q2035.25 2407.1 2041.92 2407.1 Q2045.31 2407.1 2048.3 2405.87 Q2051.32 2404.65 2053.98 2402.18 L2053.98 2407.67 Q2051.22 2409.55 2048.12 2410.48 Q2045.05 2411.42 2041.61 2411.42 Q2032.78 2411.42 2027.7 2406.03 Q2022.62 2400.61 2022.62 2391.27 Q2022.62 2381.89 2027.7 2376.5 Q2032.78 2371.08 2041.61 2371.08 Q2045.1 2371.08 2048.17 2372.02 Q2051.27 2372.93 2053.98 2374.78 Z" fill="#000000" fill-rule="nonzero" fill-opacity="1" /><path clip-path="url(#clip360)" d="M2084.06 2419.52 L2084.06 2423.24 L2056.35 2423.24 L2056.35 2419.52 L2084.06 2419.52 Z" fill="#000000" fill-rule="nonzero" fill-opacity="1" /><path clip-path="url(#clip360)" d="M2107.15 2382.36 L2107.15 2386.89 Q2105.12 2385.85 2102.94 2385.33 Q2100.75 2384.81 2098.4 2384.81 Q2094.84 2384.81 2093.04 2385.9 Q2091.27 2386.99 2091.27 2389.18 Q2091.27 2390.85 2092.55 2391.81 Q2093.82 2392.75 2097.68 2393.61 L2099.32 2393.97 Q2104.42 2395.07 2106.56 2397.07 Q2108.72 2399.05 2108.72 2402.62 Q2108.72 2406.68 2105.49 2409.05 Q2102.28 2411.42 2096.66 2411.42 Q2094.32 2411.42 2091.76 2410.95 Q2089.24 2410.51 2086.43 2409.6 L2086.43 2404.65 Q2089.08 2406.03 2091.66 2406.73 Q2094.24 2407.41 2096.76 2407.41 Q2100.15 2407.41 2101.97 2406.26 Q2103.8 2405.09 2103.8 2402.98 Q2103.8 2401.03 2102.47 2399.99 Q2101.17 2398.95 2096.71 2397.98 L2095.05 2397.59 Q2090.59 2396.66 2088.61 2394.73 Q2086.63 2392.78 2086.63 2389.39 Q2086.63 2385.28 2089.55 2383.04 Q2092.47 2380.8 2097.83 2380.8 Q2100.49 2380.8 2102.83 2381.19 Q2105.18 2381.58 2107.15 2382.36 Z" fill="#000000" fill-rule="nonzero" fill-opacity="1" /><path clip-path="url(#clip360)" d="M2128.27 2375.25 Q2124.21 2375.25 2122.15 2379.26 Q2120.12 2383.24 2120.12 2391.27 Q2120.12 2399.26 2122.15 2403.27 Q2124.21 2407.25 2128.27 2407.25 Q2132.36 2407.25 2134.39 2403.27 Q2136.45 2399.26 2136.45 2391.27 Q2136.45 2383.24 2134.39 2379.26 Q2132.36 2375.25 2128.27 2375.25 M2128.27 2371.08 Q2134.81 2371.08 2138.25 2376.27 Q2141.71 2381.42 2141.71 2391.27 Q2141.71 2401.08 2138.25 2406.26 Q2134.81 2411.42 2128.27 2411.42 Q2121.74 2411.42 2118.27 2406.26 Q2114.84 2401.08 2114.84 2391.27 Q2114.84 2381.42 2118.27 2376.27 Q2121.74 2371.08 2128.27 2371.08 Z" fill="#000000" fill-rule="nonzero" fill-opacity="1" /><polyline clip-path="url(#clip360)" style="stroke:#000000; stroke-linecap:round; stroke-linejoin:round; stroke-width:4; stroke-opacity:1; fill:none" points="258.824,2233.75 258.824,150.412 "/>
<polyline clip-path="url(#clip360)" style="stroke:#000000; stroke-linecap:round; stroke-linejoin:round; stroke-width:4; stroke-opacity:1; fill:none" points="258.824,2233.75 277.721,2233.75 "/>
<polyline clip-path="url(#clip360)" style="stroke:#000000; stroke-linecap:round; stroke-linejoin:round; stroke-width:4; stroke-opacity:1; fill:none" points="258.824,1845.52 277.721,1845.52 "/>
<polyline clip-path="url(#clip360)" style="stroke:#000000; stroke-linecap:round; stroke-linejoin:round; stroke-width:4; stroke-opacity:1; fill:none" points="258.824,1457.3 277.721,1457.3 "/>
<polyline clip-path="url(#clip360)" style="stroke:#000000; stroke-linecap:round; stroke-linejoin:round; stroke-width:4; stroke-opacity:1; fill:none" points="258.824,1069.08 277.721,1069.08 "/>
<polyline clip-path="url(#clip360)" style="stroke:#000000; stroke-linecap:round; stroke-linejoin:round; stroke-width:4; stroke-opacity:1; fill:none" points="258.824,680.858 277.721,680.858 "/>
<polyline clip-path="url(#clip360)" style="stroke:#000000; stroke-linecap:round; stroke-linejoin:round; stroke-width:4; stroke-opacity:1; fill:none" points="258.824,292.637 277.721,292.637 "/>
<path clip-path="url(#clip360)" d="M186.879 2219.54 Q183.268 2219.54 181.44 2223.11 Q179.634 2226.65 179.634 2233.78 Q179.634 2240.89 181.44 2244.45 Q183.268 2247.99 186.879 2247.99 Q190.514 2247.99 192.319 2244.45 Q194.148 2240.89 194.148 2233.78 Q194.148 2226.65 192.319 2223.11 Q190.514 2219.54 186.879 2219.54 M186.879 2215.84 Q192.69 2215.84 195.745 2220.45 Q198.824 2225.03 198.824 2233.78 Q198.824 2242.51 195.745 2247.11 Q192.69 2251.7 186.879 2251.7 Q181.069 2251.7 177.991 2247.11 Q174.935 2242.51 174.935 2233.78 Q174.935 2225.03 177.991 2220.45 Q181.069 2215.84 186.879 2215.84 Z" fill="#000000" fill-rule="nonzero" fill-opacity="1" /><path clip-path="url(#clip360)" d="M178.916 1858.87 L186.555 1858.87 L186.555 1832.5 L178.245 1834.17 L178.245 1829.91 L186.509 1828.24 L191.185 1828.24 L191.185 1858.87 L198.824 1858.87 L198.824 1862.8 L178.916 1862.8 L178.916 1858.87 Z" fill="#000000" fill-rule="nonzero" fill-opacity="1" /><path clip-path="url(#clip360)" d="M182.504 1470.65 L198.824 1470.65 L198.824 1474.58 L176.879 1474.58 L176.879 1470.65 Q179.541 1467.89 184.125 1463.26 Q188.731 1458.61 189.912 1457.27 Q192.157 1454.74 193.037 1453.01 Q193.94 1451.25 193.94 1449.56 Q193.94 1446.8 191.995 1445.07 Q190.074 1443.33 186.972 1443.33 Q184.773 1443.33 182.319 1444.1 Q179.889 1444.86 177.111 1446.41 L177.111 1441.69 Q179.935 1440.55 182.389 1439.98 Q184.842 1439.4 186.879 1439.4 Q192.25 1439.4 195.444 1442.08 Q198.639 1444.77 198.639 1449.26 Q198.639 1451.39 197.828 1453.31 Q197.041 1455.21 194.935 1457.8 Q194.356 1458.47 191.254 1461.69 Q188.153 1464.88 182.504 1470.65 Z" fill="#000000" fill-rule="nonzero" fill-opacity="1" /><path clip-path="url(#clip360)" d="M191.694 1067.73 Q195.051 1068.44 196.926 1070.71 Q198.824 1072.98 198.824 1076.31 Q198.824 1081.43 195.305 1084.23 Q191.787 1087.03 185.305 1087.03 Q183.129 1087.03 180.815 1086.59 Q178.523 1086.17 176.069 1085.32 L176.069 1080.8 Q178.014 1081.94 180.328 1082.52 Q182.643 1083.1 185.166 1083.1 Q189.565 1083.1 191.856 1081.36 Q194.171 1079.62 194.171 1076.31 Q194.171 1073.26 192.018 1071.55 Q189.889 1069.81 186.069 1069.81 L182.041 1069.81 L182.041 1065.97 L186.254 1065.97 Q189.703 1065.97 191.532 1064.6 Q193.361 1063.21 193.361 1060.62 Q193.361 1057.96 191.463 1056.55 Q189.588 1055.11 186.069 1055.11 Q184.148 1055.11 181.949 1055.53 Q179.75 1055.94 177.111 1056.82 L177.111 1052.66 Q179.773 1051.92 182.088 1051.55 Q184.426 1051.18 186.486 1051.18 Q191.81 1051.18 194.912 1053.61 Q198.014 1056.01 198.014 1060.13 Q198.014 1063 196.37 1064.99 Q194.727 1066.96 191.694 1067.73 Z" fill="#000000" fill-rule="nonzero" fill-opacity="1" /><path clip-path="url(#clip360)" d="M189.24 667.652 L177.435 686.101 L189.24 686.101 L189.24 667.652 M188.014 663.578 L193.893 663.578 L193.893 686.101 L198.824 686.101 L198.824 689.99 L193.893 689.99 L193.893 698.138 L189.24 698.138 L189.24 689.99 L173.639 689.99 L173.639 685.476 L188.014 663.578 Z" fill="#000000" fill-rule="nonzero" fill-opacity="1" /><path clip-path="url(#clip360)" d="M177.921 275.357 L196.277 275.357 L196.277 279.292 L182.203 279.292 L182.203 287.764 Q183.222 287.417 184.241 287.255 Q185.259 287.069 186.278 287.069 Q192.065 287.069 195.444 290.241 Q198.824 293.412 198.824 298.829 Q198.824 304.407 195.352 307.509 Q191.879 310.588 185.56 310.588 Q183.384 310.588 181.116 310.218 Q178.87 309.847 176.463 309.106 L176.463 304.407 Q178.546 305.542 180.768 306.097 Q182.991 306.653 185.467 306.653 Q189.472 306.653 191.81 304.546 Q194.148 302.44 194.148 298.829 Q194.148 295.218 191.81 293.111 Q189.472 291.005 185.467 291.005 Q183.592 291.005 181.717 291.421 Q179.866 291.838 177.921 292.718 L177.921 275.357 Z" fill="#000000" fill-rule="nonzero" fill-opacity="1" /><path clip-path="url(#clip360)" d="M68.277 1321.13 L97.5997 1331.8 L97.5997 1310.42 L68.277 1321.13 M101.975 1338.94 L63.0947 1324.1 L63.0947 1318.13 L101.975 1303.32 L101.975 1338.94 Z" fill="#000000" fill-rule="nonzero" fill-opacity="1" /><path clip-path="url(#clip360)" d="M76.1676 1269.59 Q76.1676 1273.45 79.1884 1275.69 Q82.1832 1277.92 87.4175 1277.92 Q92.6518 1277.92 95.6727 1275.71 Q98.6674 1273.47 98.6674 1269.59 Q98.6674 1265.76 95.6466 1263.52 Q92.6258 1261.28 87.4175 1261.28 Q82.2352 1261.28 79.2144 1263.52 Q76.1676 1265.76 76.1676 1269.59 M72.1051 1269.59 Q72.1051 1263.34 76.1676 1259.77 Q80.23 1256.21 87.4175 1256.21 Q94.5789 1256.21 98.6674 1259.77 Q102.73 1263.34 102.73 1269.59 Q102.73 1275.87 98.6674 1279.43 Q94.5789 1282.98 87.4175 1282.98 Q80.23 1282.98 76.1676 1279.43 Q72.1051 1275.87 72.1051 1269.59 Z" fill="#000000" fill-rule="nonzero" fill-opacity="1" /><path clip-path="url(#clip360)" d="M87.4175 1227.33 Q82.1311 1227.33 79.1363 1229.51 Q76.1155 1231.67 76.1155 1235.48 Q76.1155 1239.28 79.1363 1241.47 Q82.1311 1243.63 87.4175 1243.63 Q92.7039 1243.63 95.7247 1241.47 Q98.7195 1239.28 98.7195 1235.48 Q98.7195 1231.67 95.7247 1229.51 Q92.7039 1227.33 87.4175 1227.33 M77.2353 1243.63 Q74.6311 1242.12 73.3811 1239.83 Q72.1051 1237.51 72.1051 1234.31 Q72.1051 1228.99 76.3238 1225.69 Q80.5425 1222.35 87.4175 1222.35 Q94.2925 1222.35 98.5112 1225.69 Q102.73 1228.99 102.73 1234.31 Q102.73 1237.51 101.48 1239.83 Q100.204 1242.12 97.5997 1243.63 L101.975 1243.63 L101.975 1248.45 L61.4541 1248.45 L61.4541 1243.63 L77.2353 1243.63 Z" fill="#000000" fill-rule="nonzero" fill-opacity="1" /><path clip-path="url(#clip360)" d="M72.8082 1214.41 L72.8082 1209.62 L102.496 1209.62 Q108.068 1209.62 110.568 1211.75 Q113.068 1213.86 113.068 1218.58 L113.068 1220.4 L109.006 1220.4 L109.006 1219.12 Q109.006 1216.39 107.73 1215.4 Q106.48 1214.41 102.496 1214.41 L72.8082 1214.41 M61.4541 1214.41 L61.4541 1209.62 L67.5218 1209.62 L67.5218 1214.41 L61.4541 1214.41 Z" fill="#000000" fill-rule="nonzero" fill-opacity="1" /><path clip-path="url(#clip360)" d="M86.1935 1174.64 L88.5373 1174.64 L88.5373 1196.68 Q93.4852 1196.36 96.0893 1193.71 Q98.6674 1191.02 98.6674 1186.26 Q98.6674 1183.5 97.9904 1180.92 Q97.3133 1178.32 95.9591 1175.76 L100.49 1175.76 Q101.584 1178.34 102.157 1181.05 Q102.73 1183.76 102.73 1186.54 Q102.73 1193.52 98.6674 1197.61 Q94.605 1201.67 87.6779 1201.67 Q80.5165 1201.67 76.3238 1197.82 Q72.1051 1193.94 72.1051 1187.38 Q72.1051 1181.49 75.9071 1178.08 Q79.6832 1174.64 86.1935 1174.64 M84.7873 1179.44 Q80.855 1179.49 78.5113 1181.65 Q76.1676 1183.78 76.1676 1187.33 Q76.1676 1191.34 78.4332 1193.76 Q80.6988 1196.15 84.8133 1196.52 L84.7873 1179.44 Z" fill="#000000" fill-rule="nonzero" fill-opacity="1" /><path clip-path="url(#clip360)" d="M73.928 1145.79 L78.4071 1145.79 Q77.2873 1147.82 76.7405 1149.88 Q76.1676 1151.91 76.1676 1153.99 Q76.1676 1158.65 79.1363 1161.23 Q82.079 1163.81 87.4175 1163.81 Q92.756 1163.81 95.7247 1161.23 Q98.6674 1158.65 98.6674 1153.99 Q98.6674 1151.91 98.1206 1149.88 Q97.5477 1147.82 96.4279 1145.79 L100.855 1145.79 Q101.792 1147.8 102.261 1149.96 Q102.73 1152.09 102.73 1154.51 Q102.73 1161.1 98.5893 1164.98 Q94.4487 1168.86 87.4175 1168.86 Q80.2821 1168.86 76.1936 1164.96 Q72.1051 1161.02 72.1051 1154.2 Q72.1051 1151.99 72.5738 1149.88 Q73.0165 1147.77 73.928 1145.79 Z" fill="#000000" fill-rule="nonzero" fill-opacity="1" /><path clip-path="url(#clip360)" d="M64.527 1132.72 L72.8082 1132.72 L72.8082 1122.85 L76.5321 1122.85 L76.5321 1132.72 L92.3654 1132.72 Q95.9331 1132.72 96.9487 1131.75 Q97.9643 1130.76 97.9643 1127.77 L97.9643 1122.85 L101.975 1122.85 L101.975 1127.77 Q101.975 1133.32 99.9174 1135.43 Q97.8341 1137.53 92.3654 1137.53 L76.5321 1137.53 L76.5321 1141.05 L72.8082 1141.05 L72.8082 1137.53 L64.527 1137.53 L64.527 1132.72 Z" fill="#000000" fill-rule="nonzero" fill-opacity="1" /><path clip-path="url(#clip360)" d="M72.8082 1116.55 L72.8082 1111.75 L101.975 1111.75 L101.975 1116.55 L72.8082 1116.55 M61.4541 1116.55 L61.4541 1111.75 L67.5218 1111.75 L67.5218 1116.55 L61.4541 1116.55 Z" fill="#000000" fill-rule="nonzero" fill-opacity="1" /><path clip-path="url(#clip360)" d="M72.8082 1105.17 L72.8082 1100.09 L97.2872 1090.97 L72.8082 1081.86 L72.8082 1076.78 L101.975 1087.72 L101.975 1094.23 L72.8082 1105.17 Z" fill="#000000" fill-rule="nonzero" fill-opacity="1" /><path clip-path="url(#clip360)" d="M86.1935 1045.22 L88.5373 1045.22 L88.5373 1067.25 Q93.4852 1066.94 96.0893 1064.28 Q98.6674 1061.6 98.6674 1056.83 Q98.6674 1054.07 97.9904 1051.49 Q97.3133 1048.89 95.9591 1046.34 L100.49 1046.34 Q101.584 1048.92 102.157 1051.62 Q102.73 1054.33 102.73 1057.12 Q102.73 1064.1 98.6674 1068.19 Q94.605 1072.25 87.6779 1072.25 Q80.5165 1072.25 76.3238 1068.39 Q72.1051 1064.51 72.1051 1057.95 Q72.1051 1052.07 75.9071 1048.65 Q79.6832 1045.22 86.1935 1045.22 M84.7873 1050.01 Q80.855 1050.06 78.5113 1052.22 Q76.1676 1054.36 76.1676 1057.9 Q76.1676 1061.91 78.4332 1064.33 Q80.6988 1066.73 84.8133 1067.09 L84.7873 1050.01 Z" fill="#000000" fill-rule="nonzero" fill-opacity="1" /><path clip-path="url(#clip360)" d="M1855.14 11.9675 L1855.14 18.1307 Q1852.19 15.3819 1848.84 14.0219 Q1845.51 12.662 1841.75 12.662 Q1834.34 12.662 1830.4 17.2048 Q1826.47 21.7186 1826.47 30.2834 Q1826.47 38.8192 1830.4 43.362 Q1834.34 47.8759 1841.75 47.8759 Q1845.51 47.8759 1848.84 46.516 Q1852.19 45.156 1855.14 42.4072 L1855.14 48.5125 Q1852.08 50.5958 1848.63 51.6375 Q1845.22 52.6791 1841.4 52.6791 Q1831.59 52.6791 1825.95 46.6896 Q1820.31 40.6711 1820.31 30.2834 Q1820.31 19.8668 1825.95 13.8772 Q1831.59 7.85875 1841.4 7.85875 Q1845.28 7.85875 1848.69 8.90042 Q1852.13 9.91314 1855.14 11.9675 Z" fill="#000000" fill-rule="nonzero" fill-opacity="1" /><path clip-path="url(#clip360)" d="M1888.56 61.6779 L1888.56 65.8156 L1857.78 65.8156 L1857.78 61.6779 L1888.56 61.6779 Z" fill="#000000" fill-rule="nonzero" fill-opacity="1" /><path clip-path="url(#clip360)" d="M1914.23 20.3876 L1914.23 25.4223 Q1911.97 24.2649 1909.54 23.6862 Q1907.11 23.1075 1904.51 23.1075 Q1900.54 23.1075 1898.55 24.3228 Q1896.58 25.5381 1896.58 27.9686 Q1896.58 29.8204 1898 30.891 Q1899.41 31.9327 1903.7 32.8876 L1905.52 33.2926 Q1911.19 34.5079 1913.56 36.7359 Q1915.96 38.935 1915.96 42.8991 Q1915.96 47.4129 1912.38 50.046 Q1908.82 52.6791 1902.57 52.6791 Q1899.96 52.6791 1897.13 52.1583 Q1894.32 51.6664 1891.2 50.6537 L1891.2 45.156 Q1894.15 46.6896 1897.01 47.4708 Q1899.88 48.2231 1902.68 48.2231 Q1906.45 48.2231 1908.47 46.95 Q1910.5 45.6479 1910.5 43.3042 Q1910.5 41.134 1909.02 39.9766 Q1907.57 38.8192 1902.63 37.7486 L1900.77 37.3146 Q1895.83 36.273 1893.63 34.1318 Q1891.43 31.9616 1891.43 28.2001 Q1891.43 23.6283 1894.67 21.1399 Q1897.91 18.6515 1903.87 18.6515 Q1906.82 18.6515 1909.43 19.0855 Q1912.03 19.5196 1914.23 20.3876 Z" fill="#000000" fill-rule="nonzero" fill-opacity="1" /><path clip-path="url(#clip360)" d="M1937.7 12.4884 Q1933.18 12.4884 1930.9 16.9444 Q1928.64 21.3714 1928.64 30.2834 Q1928.64 39.1665 1930.9 43.6225 Q1933.18 48.0495 1937.7 48.0495 Q1942.24 48.0495 1944.49 43.6225 Q1946.78 39.1665 1946.78 30.2834 Q1946.78 21.3714 1944.49 16.9444 Q1942.24 12.4884 1937.7 12.4884 M1937.7 7.85875 Q1944.96 7.85875 1948.78 13.6168 Q1952.63 19.346 1952.63 30.2834 Q1952.63 41.1919 1948.78 46.95 Q1944.96 52.6791 1937.7 52.6791 Q1930.43 52.6791 1926.58 46.95 Q1922.76 41.1919 1922.76 30.2834 Q1922.76 19.346 1926.58 13.6168 Q1930.43 7.85875 1937.7 7.85875 Z" fill="#000000" fill-rule="nonzero" fill-opacity="1" /><path clip-path="url(#clip360)" d="M1987.84 6.55668 L1987.84 65.8156 L1982.92 65.8156 L1982.92 6.55668 L1987.84 6.55668 Z" fill="#000000" fill-rule="nonzero" fill-opacity="1" /><path clip-path="url(#clip360)" d="M2020.02 8.64 L2025.86 8.64 L2025.86 51.84 L2020.02 51.84 L2020.02 8.64 Z" fill="#000000" fill-rule="nonzero" fill-opacity="1" /><path clip-path="url(#clip360)" d="M2058.59 24.3517 L2058.59 6.81709 L2063.91 6.81709 L2063.91 51.84 L2058.59 51.84 L2058.59 46.9789 Q2056.91 49.8724 2054.33 51.2902 Q2051.79 52.6791 2048.2 52.6791 Q2042.32 52.6791 2038.62 47.9916 Q2034.95 43.3042 2034.95 35.6653 Q2034.95 28.0265 2038.62 23.339 Q2042.32 18.6515 2048.2 18.6515 Q2051.79 18.6515 2054.33 20.0693 Q2056.91 21.4582 2058.59 24.3517 M2040.44 35.6653 Q2040.44 41.5391 2042.85 44.8956 Q2045.28 48.2231 2049.5 48.2231 Q2053.72 48.2231 2056.16 44.8956 Q2058.59 41.5391 2058.59 35.6653 Q2058.59 29.7915 2056.16 26.464 Q2053.72 23.1075 2049.5 23.1075 Q2045.28 23.1075 2042.85 26.464 Q2040.44 29.7915 2040.44 35.6653 Z" fill="#000000" fill-rule="nonzero" fill-opacity="1" /><path clip-path="url(#clip360)" d="M2102.6 34.3054 L2102.6 36.9095 L2078.12 36.9095 Q2078.46 42.4072 2081.42 45.3007 Q2084.4 48.1653 2089.69 48.1653 Q2092.76 48.1653 2095.62 47.4129 Q2098.52 46.6606 2101.35 45.156 L2101.35 50.1907 Q2098.49 51.406 2095.48 52.0425 Q2092.47 52.6791 2089.37 52.6791 Q2081.62 52.6791 2077.08 48.1653 Q2072.56 43.6514 2072.56 35.9547 Q2072.56 27.9975 2076.84 23.339 Q2081.16 18.6515 2088.45 18.6515 Q2094.99 18.6515 2098.78 22.876 Q2102.6 27.0716 2102.6 34.3054 M2097.27 32.7429 Q2097.21 28.3737 2094.81 25.7695 Q2092.44 23.1654 2088.5 23.1654 Q2084.05 23.1654 2081.36 25.6827 Q2078.7 28.2001 2078.29 32.7718 L2097.27 32.7429 Z" fill="#000000" fill-rule="nonzero" fill-opacity="1" /><path clip-path="url(#clip360)" d="M2138.27 32.2799 L2138.27 51.84 L2132.95 51.84 L2132.95 32.4535 Q2132.95 27.8529 2131.15 25.567 Q2129.36 23.2811 2125.77 23.2811 Q2121.46 23.2811 2118.97 26.03 Q2116.48 28.7788 2116.48 33.5241 L2116.48 51.84 L2111.13 51.84 L2111.13 19.4328 L2116.48 19.4328 L2116.48 24.4675 Q2118.39 21.545 2120.97 20.0983 Q2123.57 18.6515 2126.96 18.6515 Q2132.54 18.6515 2135.41 22.1237 Q2138.27 25.567 2138.27 32.2799 Z" fill="#000000" fill-rule="nonzero" fill-opacity="1" /><path clip-path="url(#clip360)" d="M2154.16 10.2314 L2154.16 19.4328 L2165.12 19.4328 L2165.12 23.5705 L2154.16 23.5705 L2154.16 41.163 Q2154.16 45.1271 2155.23 46.2555 Q2156.33 47.384 2159.66 47.384 L2165.12 47.384 L2165.12 51.84 L2159.66 51.84 Q2153.49 51.84 2151.15 49.5541 Q2148.81 47.2393 2148.81 41.163 L2148.81 23.5705 L2144.9 23.5705 L2144.9 19.4328 L2148.81 19.4328 L2148.81 10.2314 L2154.16 10.2314 Z" fill="#000000" fill-rule="nonzero" fill-opacity="1" /><path clip-path="url(#clip360)" d="M2172.13 19.4328 L2177.45 19.4328 L2177.45 51.84 L2172.13 51.84 L2172.13 19.4328 M2172.13 6.81709 L2177.45 6.81709 L2177.45 13.559 L2172.13 13.559 L2172.13 6.81709 Z" fill="#000000" fill-rule="nonzero" fill-opacity="1" /><path clip-path="url(#clip360)" d="M2205 6.81709 L2205 11.2442 L2199.9 11.2442 Q2197.04 11.2442 2195.91 12.4016 Q2194.81 13.559 2194.81 16.5682 L2194.81 19.4328 L2203.58 19.4328 L2203.58 23.5705 L2194.81 23.5705 L2194.81 51.84 L2189.46 51.84 L2189.46 23.5705 L2184.37 23.5705 L2184.37 19.4328 L2189.46 19.4328 L2189.46 17.1758 Q2189.46 11.765 2191.98 9.30551 Q2194.49 6.81709 2199.96 6.81709 L2205 6.81709 Z" fill="#000000" fill-rule="nonzero" fill-opacity="1" /><path clip-path="url(#clip360)" d="M2209.45 19.4328 L2214.78 19.4328 L2214.78 51.84 L2209.45 51.84 L2209.45 19.4328 M2209.45 6.81709 L2214.78 6.81709 L2214.78 13.559 L2209.45 13.559 L2209.45 6.81709 Z" fill="#000000" fill-rule="nonzero" fill-opacity="1" /><path clip-path="url(#clip360)" d="M2240.64 35.5496 Q2234.19 35.5496 2231.7 37.0253 Q2229.22 38.501 2229.22 42.06 Q2229.22 44.8956 2231.07 46.5738 Q2232.95 48.2231 2236.16 48.2231 Q2240.59 48.2231 2243.25 45.0981 Q2245.94 41.9442 2245.94 36.7359 L2245.94 35.5496 L2240.64 35.5496 M2251.26 33.3505 L2251.26 51.84 L2245.94 51.84 L2245.94 46.921 Q2244.12 49.8724 2241.4 51.2902 Q2238.68 52.6791 2234.74 52.6791 Q2229.77 52.6791 2226.81 49.9014 Q2223.89 47.0947 2223.89 42.4072 Q2223.89 36.9385 2227.54 34.1607 Q2231.21 31.3829 2238.47 31.3829 L2245.94 31.3829 L2245.94 30.8621 Q2245.94 27.1874 2243.51 25.1908 Q2241.11 23.1654 2236.74 23.1654 Q2233.96 23.1654 2231.33 23.8309 Q2228.69 24.4964 2226.26 25.8274 L2226.26 20.9085 Q2229.19 19.78 2231.94 19.2302 Q2234.68 18.6515 2237.29 18.6515 Q2244.32 18.6515 2247.79 22.2973 Q2251.26 25.9431 2251.26 33.3505 Z" fill="#000000" fill-rule="nonzero" fill-opacity="1" /><path clip-path="url(#clip360)" d="M2285.49 35.6653 Q2285.49 29.7915 2283.06 26.464 Q2280.66 23.1075 2276.44 23.1075 Q2272.21 23.1075 2269.78 26.464 Q2267.38 29.7915 2267.38 35.6653 Q2267.38 41.5391 2269.78 44.8956 Q2272.21 48.2231 2276.44 48.2231 Q2280.66 48.2231 2283.06 44.8956 Q2285.49 41.5391 2285.49 35.6653 M2267.38 24.3517 Q2269.06 21.4582 2271.61 20.0693 Q2274.18 18.6515 2277.74 18.6515 Q2283.64 18.6515 2287.32 23.339 Q2291.02 28.0265 2291.02 35.6653 Q2291.02 43.3042 2287.32 47.9916 Q2283.64 52.6791 2277.74 52.6791 Q2274.18 52.6791 2271.61 51.2902 Q2269.06 49.8724 2267.38 46.9789 L2267.38 51.84 L2262.03 51.84 L2262.03 6.81709 L2267.38 6.81709 L2267.38 24.3517 Z" fill="#000000" fill-rule="nonzero" fill-opacity="1" /><path clip-path="url(#clip360)" d="M2299.85 6.81709 L2305.17 6.81709 L2305.17 51.84 L2299.85 51.84 L2299.85 6.81709 Z" fill="#000000" fill-rule="nonzero" fill-opacity="1" /><path clip-path="url(#clip360)" d="M2344.03 34.3054 L2344.03 36.9095 L2319.55 36.9095 Q2319.9 42.4072 2322.85 45.3007 Q2325.83 48.1653 2331.12 48.1653 Q2334.19 48.1653 2337.06 47.4129 Q2339.95 46.6606 2342.79 45.156 L2342.79 50.1907 Q2339.92 51.406 2336.91 52.0425 Q2333.9 52.6791 2330.81 52.6791 Q2323.05 52.6791 2318.51 48.1653 Q2314 43.6514 2314 35.9547 Q2314 27.9975 2318.28 23.339 Q2322.59 18.6515 2329.88 18.6515 Q2336.42 18.6515 2340.21 22.876 Q2344.03 27.0716 2344.03 34.3054 M2338.71 32.7429 Q2338.65 28.3737 2336.25 25.7695 Q2333.87 23.1654 2329.94 23.1654 Q2325.48 23.1654 2322.79 25.6827 Q2320.13 28.2001 2319.72 32.7718 L2338.71 32.7429 Z" fill="#000000" fill-rule="nonzero" fill-opacity="1" /><polyline clip-path="url(#clip361)" style="stroke:#595959; stroke-linecap:round; stroke-linejoin:round; stroke-width:6.8; stroke-opacity:0.95; fill:none" points="258.824,742.626 288.551,690.105 309.935,797.207 349.827,839.977 2097.03,2233.75 "/>
<polyline clip-path="url(#clip361)" style="stroke:#595959; stroke-linecap:round; stroke-linejoin:round; stroke-width:6.8; stroke-opacity:0.95; fill:none" points="2097.03,2233.75 3456.35,889.764 3559.74,739.834 3905.51,249.619 "/>
<polyline clip-path="url(#clip361)" style="stroke:#3cb371; stroke-linecap:round; stroke-linejoin:round; stroke-width:7.2; stroke-opacity:1; fill:none" stroke-dasharray="29, 18" points="-3387.86,742.407 7552.2,742.407 "/>
<polyline clip-path="url(#clip361)" style="stroke:#000000; stroke-linecap:round; stroke-linejoin:round; stroke-width:4.8; stroke-opacity:1; fill:none" stroke-dasharray="2, 5" points="258.824,4317.08 258.824,-1932.92 "/>
<polyline clip-path="url(#clip361)" style="stroke:#000000; stroke-linecap:round; stroke-linejoin:round; stroke-width:4.8; stroke-opacity:1; fill:none" stroke-dasharray="2, 5" points="3559.74,4317.08 3559.74,-1932.92 "/>
<path clip-path="url(#clip361)" d="M2097.03 2215.75 L2079.03 2233.75 L2097.03 2251.75 L2115.03 2233.75 L2097.03 2215.75 Z" fill="#000000" fill-rule="evenodd" fill-opacity="1" stroke="none"/>
</svg>
