<?xml version="1.0" encoding="utf-8"?>
<svg xmlns="http://www.w3.org/2000/svg" xmlns:xlink="http://www.w3.org/1999/xlink" width="1000" height="620" viewBox="0 0 4000 2480">
<defs>
  <clipPath id="clip170">
    <rect x="0" y="0" width="4000" height="2480"/>
  </clipPath>
</defs>
<path clip-path="url(#clip170)" d="M0 2480 L4000 2480 L4000 0 L0 0  Z" fill="#ffffff" fill-rule="evenodd" fill-opacity="1"/>
<defs>
  <clipPath id="clip171">
    <rect x="258" y="150" width="3648" height="2084"/>
  </clipPath>
</defs>
<path clip-path="url(#clip170)" d="M258.824 2233.75 L3905.51 2233.75 L3905.51 150.412 L258.824 150.412  Z" fill="#ffffff" fill-rule="evenodd" fill-opacity="1"/>
<polyline clip-path="url(#clip171)" style="stroke:#000000; stroke-linecap:round; stroke-linejoin:round; stroke-width:2; stroke-opacity:0.15; fill:none" points="706.229,2233.75 706.229,150.412 "/>
<polyline clip-path="url(#clip171)" style="stroke:#000000; stroke-linecap:round; stroke-linejoin:round; stroke-width:2; stroke-opacity:0.15; fill:none" points="2385.59,2233.75 2385.59,150.412 "/>
<polyline clip-path="url(#clip171)" style="stroke:#000000; stroke-linecap:round; stroke-linejoin:round; stroke-width:2; stroke-opacity:0.15; fill:none" points="258.824,2233.75 3905.51,2233.75 "/>
<polyline clip-path="url(#clip171)" style="stroke:#000000; stroke-linecap:round; stroke-linejoin:round; stroke-width:2; stroke-opacity:0.15; fill:none" points="258.824,1905.37 3905.51,1905.37 "/>
<polyline clip-path="url(#clip171)" style="stroke:#000000; stroke-linecap:round; stroke-linejoin:round; stroke-width:2; stroke-opacity:0.15; fill:none" points="258.824,1577 3905.51,1577 "/>
<polyline clip-path="url(#clip171)" style="stroke:#000000; stroke-linecap:round; stroke-linejoin:round; stroke-width:2; stroke-opacity:0.15; fill:none" points="258.824,1248.63 3905.51,1248.63 "/>
<polyline clip-path="url(#clip171)" style="stroke:#000000; stroke-linecap:round; stroke-linejoin:round; stroke-width:2; stroke-opacity:0.15; fill:none" points="258.824,920.255 3905.51,920.255 "/>
<polyline clip-path="url(#clip171)" style="stroke:#000000; stroke-linecap:round; stroke-linejoin:round; stroke-width:2; stroke-opacity:0.15; fill:none" points="258.824,591.882 3905.51,591.882 "/>
<polyline clip-path="url(#clip171)" style="stroke:#000000; stroke-linecap:round; stroke-linejoin:round; stroke-width:2; stroke-opacity:0.15; fill:none" points="258.824,263.51 3905.51,263.51 "/>
<polyline clip-path="url(#clip170)" style="stroke:#000000; stroke-linecap:round; stroke-linejoin:round; stroke-width:4; stroke-opacity:1; fill:none" points="258.824,2233.75 3905.51,2233.75 "/>
<polyline clip-path="url(#clip170)" style="stroke:#000000; stroke-linecap:round; stroke-linejoin:round; stroke-width:4; stroke-opacity:1; fill:none" points="706.229,2233.75 706.229,2214.85 "/>
<polyline clip-path="url(#clip170)" style="stroke:#000000; stroke-linecap:round; stroke-linejoin:round; stroke-width:4; stroke-opacity:1; fill:none" points="2385.59,2233.75 2385.59,2214.85 "/>
<path clip-path="url(#clip170)" d="M637.734 2320.67 L645.373 2320.67 L645.373 2294.3 L637.063 2295.97 L637.063 2291.71 L645.326 2290.05 L650.002 2290.05 L650.002 2320.67 L657.641 2320.67 L657.641 2324.61 L637.734 2324.61 L637.734 2320.67 Z" fill="#000000" fill-rule="nonzero" fill-opacity="1" /><path clip-path="url(#clip170)" d="M677.086 2293.12 Q673.474 2293.12 671.646 2296.69 Q669.84 2300.23 669.84 2307.36 Q669.84 2314.47 671.646 2318.03 Q673.474 2321.57 677.086 2321.57 Q680.72 2321.57 682.525 2318.03 Q684.354 2314.47 684.354 2307.36 Q684.354 2300.23 682.525 2296.69 Q680.72 2293.12 677.086 2293.12 M677.086 2289.42 Q682.896 2289.42 685.951 2294.03 Q689.03 2298.61 689.03 2307.36 Q689.03 2316.09 685.951 2320.69 Q682.896 2325.28 677.086 2325.28 Q671.275 2325.28 668.197 2320.69 Q665.141 2316.09 665.141 2307.36 Q665.141 2298.61 668.197 2294.03 Q671.275 2289.42 677.086 2289.42 Z" fill="#000000" fill-rule="nonzero" fill-opacity="1" /><path clip-path="url(#clip170)" d="M689.03 2283.52 L713.142 2283.52 L713.142 2286.72 L689.03 2286.72 L689.03 2283.52 Z" fill="#000000" fill-rule="nonzero" fill-opacity="1" /><path clip-path="url(#clip170)" d="M729.467 2271.62 Q726.533 2271.62 725.047 2274.51 Q723.58 2277.39 723.58 2283.18 Q723.58 2288.96 725.047 2291.85 Q726.533 2294.73 729.467 2294.73 Q732.419 2294.73 733.886 2291.85 Q735.372 2288.96 735.372 2283.18 Q735.372 2277.39 733.886 2274.51 Q732.419 2271.62 729.467 2271.62 M729.467 2268.61 Q734.187 2268.61 736.67 2272.35 Q739.171 2276.07 739.171 2283.18 Q739.171 2290.27 736.67 2294.02 Q734.187 2297.74 729.467 2297.74 Q724.746 2297.74 722.244 2294.02 Q719.762 2290.27 719.762 2283.18 Q719.762 2276.07 722.244 2272.35 Q724.746 2268.61 729.467 2268.61 Z" fill="#000000" fill-rule="nonzero" fill-opacity="1" /><path clip-path="url(#clip170)" d="M745.848 2292.42 L749.817 2292.42 L749.817 2297.19 L745.848 2297.19 L745.848 2292.42 Z" fill="#000000" fill-rule="nonzero" fill-opacity="1" /><path clip-path="url(#clip170)" d="M769.602 2282.05 Q772.33 2282.64 773.853 2284.48 Q775.395 2286.32 775.395 2289.03 Q775.395 2293.19 772.536 2295.46 Q769.678 2297.74 764.411 2297.74 Q762.644 2297.74 760.763 2297.38 Q758.901 2297.04 756.907 2296.35 L756.907 2292.68 Q758.487 2293.6 760.368 2294.07 Q762.249 2294.54 764.299 2294.54 Q767.872 2294.54 769.734 2293.13 Q771.615 2291.72 771.615 2289.03 Q771.615 2286.55 769.866 2285.16 Q768.135 2283.75 765.032 2283.75 L761.76 2283.75 L761.76 2280.63 L765.183 2280.63 Q767.985 2280.63 769.471 2279.52 Q770.957 2278.39 770.957 2276.28 Q770.957 2274.12 769.414 2272.97 Q767.891 2271.8 765.032 2271.8 Q763.471 2271.8 761.684 2272.14 Q759.898 2272.48 757.754 2273.2 L757.754 2269.81 Q759.916 2269.21 761.797 2268.91 Q763.697 2268.61 765.371 2268.61 Q769.696 2268.61 772.217 2270.58 Q774.737 2272.54 774.737 2275.89 Q774.737 2278.22 773.402 2279.84 Q772.066 2281.43 769.602 2282.05 Z" fill="#000000" fill-rule="nonzero" fill-opacity="1" /><path clip-path="url(#clip170)" d="M2317.48 2320.67 L2325.12 2320.67 L2325.12 2294.3 L2316.81 2295.97 L2316.81 2291.71 L2325.07 2290.05 L2329.75 2290.05 L2329.75 2320.67 L2337.39 2320.67 L2337.39 2324.61 L2317.48 2324.61 L2317.48 2320.67 Z" fill="#000000" fill-rule="nonzero" fill-opacity="1" /><path clip-path="url(#clip170)" d="M2356.83 2293.12 Q2353.22 2293.12 2351.39 2296.69 Q2349.59 2300.23 2349.59 2307.36 Q2349.59 2314.47 2351.39 2318.03 Q2353.22 2321.57 2356.83 2321.57 Q2360.47 2321.57 2362.27 2318.03 Q2364.1 2314.47 2364.1 2307.36 Q2364.1 2300.23 2362.27 2296.69 Q2360.47 2293.12 2356.83 2293.12 M2356.83 2289.42 Q2362.64 2289.42 2365.7 2294.03 Q2368.78 2298.61 2368.78 2307.36 Q2368.78 2316.09 2365.7 2320.69 Q2362.64 2325.28 2356.83 2325.28 Q2351.02 2325.28 2347.94 2320.69 Q2344.89 2316.09 2344.89 2307.36 Q2344.89 2298.61 2347.94 2294.03 Q2351.02 2289.42 2356.83 2289.42 Z" fill="#000000" fill-rule="nonzero" fill-opacity="1" /><path clip-path="url(#clip170)" d="M2368.78 2283.52 L2392.89 2283.52 L2392.89 2286.72 L2368.78 2286.72 L2368.78 2283.52 Z" fill="#000000" fill-rule="nonzero" fill-opacity="1" /><path clip-path="url(#clip170)" d="M2409.21 2271.62 Q2406.28 2271.62 2404.79 2274.51 Q2403.33 2277.39 2403.33 2283.18 Q2403.33 2288.96 2404.79 2291.85 Q2406.28 2294.73 2409.21 2294.73 Q2412.17 2294.73 2413.63 2291.85 Q2415.12 2288.96 2415.12 2283.18 Q2415.12 2277.39 2413.63 2274.51 Q2412.17 2271.62 2409.21 2271.62 M2409.21 2268.61 Q2413.93 2268.61 2416.42 2272.35 Q2418.92 2276.07 2418.92 2283.18 Q2418.92 2290.27 2416.42 2294.02 Q2413.93 2297.74 2409.21 2297.74 Q2404.49 2297.74 2401.99 2294.02 Q2399.51 2290.27 2399.51 2283.18 Q2399.51 2276.07 2401.99 2272.35 Q2404.49 2268.61 2409.21 2268.61 Z" fill="#000000" fill-rule="nonzero" fill-opacity="1" /><path clip-path="url(#clip170)" d="M2425.6 2292.42 L2429.56 2292.42 L2429.56 2297.19 L2425.6 2297.19 L2425.6 2292.42 Z" fill="#000000" fill-rule="nonzero" fill-opacity="1" /><path clip-path="url(#clip170)" d="M2441.11 2294 L2454.37 2294 L2454.37 2297.19 L2436.54 2297.19 L2436.54 2294 Q2438.7 2291.76 2442.43 2288 Q2446.17 2284.22 2447.13 2283.13 Q2448.95 2281.08 2449.67 2279.67 Q2450.4 2278.24 2450.4 2276.86 Q2450.4 2274.63 2448.82 2273.21 Q2447.26 2271.8 2444.74 2271.8 Q2442.96 2271.8 2440.96 2272.42 Q2438.99 2273.05 2436.73 2274.31 L2436.73 2270.47 Q2439.02 2269.55 2441.02 2269.08 Q2443.01 2268.61 2444.67 2268.61 Q2449.03 2268.61 2451.63 2270.79 Q2454.22 2272.97 2454.22 2276.62 Q2454.22 2278.35 2453.56 2279.91 Q2452.92 2281.45 2451.21 2283.56 Q2450.74 2284.1 2448.22 2286.72 Q2445.7 2289.31 2441.11 2294 Z" fill="#000000" fill-rule="nonzero" fill-opacity="1" /><path clip-path="url(#clip170)" d="M2001.57 2396.11 Q2001.57 2390.82 1999.38 2387.83 Q1997.22 2384.81 1993.42 2384.81 Q1989.62 2384.81 1987.43 2387.83 Q1985.27 2390.82 1985.27 2396.11 Q1985.27 2401.4 1987.43 2404.42 Q1989.62 2407.41 1993.42 2407.41 Q1997.22 2407.41 1999.38 2404.42 Q2001.57 2401.4 2001.57 2396.11 M1985.27 2385.93 Q1986.78 2383.32 1989.07 2382.07 Q1991.39 2380.8 1994.59 2380.8 Q1999.9 2380.8 2003.21 2385.02 Q2006.54 2389.23 2006.54 2396.11 Q2006.54 2402.98 2003.21 2407.2 Q1999.9 2411.42 1994.59 2411.42 Q1991.39 2411.42 1989.07 2410.17 Q1986.78 2408.9 1985.27 2406.29 L1985.27 2410.67 L1980.45 2410.67 L1980.45 2370.15 L1985.27 2370.15 L1985.27 2385.93 Z" fill="#000000" fill-rule="nonzero" fill-opacity="1" /><path clip-path="url(#clip170)" d="M2039.43 2394.88 L2039.43 2397.23 L2017.4 2397.23 Q2017.72 2402.18 2020.37 2404.78 Q2023.05 2407.36 2027.82 2407.36 Q2030.58 2407.36 2033.16 2406.68 Q2035.76 2406 2038.31 2404.65 L2038.31 2409.18 Q2035.74 2410.28 2033.03 2410.85 Q2030.32 2411.42 2027.53 2411.42 Q2020.55 2411.42 2016.47 2407.36 Q2012.4 2403.3 2012.4 2396.37 Q2012.4 2389.21 2016.26 2385.02 Q2020.14 2380.8 2026.7 2380.8 Q2032.58 2380.8 2036 2384.6 Q2039.43 2388.37 2039.43 2394.88 M2034.64 2393.48 Q2034.59 2389.55 2032.43 2387.2 Q2030.29 2384.86 2026.75 2384.86 Q2022.74 2384.86 2020.32 2387.12 Q2017.92 2389.39 2017.56 2393.5 L2034.64 2393.48 Z" fill="#000000" fill-rule="nonzero" fill-opacity="1" /><path clip-path="url(#clip170)" d="M2052.04 2373.22 L2052.04 2381.5 L2061.91 2381.5 L2061.91 2385.22 L2052.04 2385.22 L2052.04 2401.06 Q2052.04 2404.62 2053 2405.64 Q2053.99 2406.66 2056.99 2406.66 L2061.91 2406.66 L2061.91 2410.67 L2056.99 2410.67 Q2051.44 2410.67 2049.33 2408.61 Q2047.22 2406.53 2047.22 2401.06 L2047.22 2385.22 L2043.7 2385.22 L2043.7 2381.5 L2047.22 2381.5 L2047.22 2373.22 L2052.04 2373.22 Z" fill="#000000" fill-rule="nonzero" fill-opacity="1" /><path clip-path="url(#clip170)" d="M2081.46 2396 Q2075.66 2396 2073.42 2397.33 Q2071.18 2398.66 2071.18 2401.86 Q2071.18 2404.42 2072.84 2405.93 Q2074.54 2407.41 2077.43 2407.41 Q2081.41 2407.41 2083.81 2404.6 Q2086.23 2401.76 2086.23 2397.07 L2086.23 2396 L2081.46 2396 M2091.02 2394.03 L2091.02 2410.67 L2086.23 2410.67 L2086.23 2406.24 Q2084.59 2408.9 2082.14 2410.17 Q2079.69 2411.42 2076.15 2411.42 Q2071.67 2411.42 2069.02 2408.92 Q2066.39 2406.4 2066.39 2402.18 Q2066.39 2397.25 2069.67 2394.75 Q2072.98 2392.25 2079.51 2392.25 L2086.23 2392.25 L2086.23 2391.79 Q2086.23 2388.48 2084.04 2386.68 Q2081.88 2384.86 2077.95 2384.86 Q2075.45 2384.86 2073.08 2385.46 Q2070.71 2386.06 2068.52 2387.25 L2068.52 2382.83 Q2071.15 2381.81 2073.63 2381.32 Q2076.1 2380.8 2078.44 2380.8 Q2084.77 2380.8 2087.9 2384.08 Q2091.02 2387.36 2091.02 2394.03 Z" fill="#000000" fill-rule="nonzero" fill-opacity="1" /><path clip-path="url(#clip170)" d="M2129.36 2370.2 Q2125.87 2376.19 2124.17 2382.05 Q2122.48 2387.91 2122.48 2393.92 Q2122.48 2399.94 2124.17 2405.85 Q2125.89 2411.73 2129.36 2417.7 L2125.19 2417.7 Q2121.28 2411.58 2119.33 2405.67 Q2117.4 2399.75 2117.4 2393.92 Q2117.4 2388.11 2119.33 2382.23 Q2121.26 2376.34 2125.19 2370.2 L2129.36 2370.2 Z" fill="#000000" fill-rule="nonzero" fill-opacity="1" /><path clip-path="url(#clip170)" d="M2143.44 2408.87 L2143.44 2421.76 L2138.63 2421.76 L2138.63 2381.68 Q2138.63 2369.81 2149.72 2369.81 Q2161.02 2369.81 2161.02 2379.83 Q2161.02 2386.97 2156.54 2389.57 Q2163.83 2391.92 2163.83 2398.87 Q2163.83 2411.21 2151.28 2411.21 Q2145.76 2411.21 2143.44 2408.87 M2143.44 2402.62 Q2146.33 2407.12 2151.46 2407.12 Q2158.96 2407.12 2158.96 2398.95 Q2158.96 2391.6 2146.88 2392.18 L2146.88 2387.75 Q2156.33 2387.75 2156.33 2379.42 Q2156.33 2373.71 2150.24 2373.71 Q2143.44 2373.71 2143.44 2381.84 L2143.44 2402.62 Z" fill="#000000" fill-rule="nonzero" fill-opacity="1" /><path clip-path="url(#clip170)" d="M2171.93 2370.2 L2176.1 2370.2 Q2180.01 2376.34 2181.93 2382.23 Q2183.89 2388.11 2183.89 2393.92 Q2183.89 2399.75 2181.93 2405.67 Q2180.01 2411.58 2176.1 2417.7 L2171.93 2417.7 Q2175.4 2411.73 2177.09 2405.85 Q2178.81 2399.94 2178.81 2393.92 Q2178.81 2387.91 2177.09 2382.05 Q2175.4 2376.19 2171.93 2370.2 Z" fill="#000000" fill-rule="nonzero" fill-opacity="1" /><polyline clip-path="url(#clip170)" style="stroke:#000000; stroke-linecap:round; stroke-linejoin:round; stroke-width:4; stroke-opacity:1; fill:none" points="258.824,2233.75 258.824,150.412 "/>
<polyline clip-path="url(#clip170)" style="stroke:#000000; stroke-linecap:round; stroke-linejoin:round; stroke-width:4; stroke-opacity:1; fill:none" points="258.824,2233.75 277.721,2233.75 "/>
<polyline clip-path="url(#clip170)" style="stroke:#000000; stroke-linecap:round; stroke-linejoin:round; stroke-width:4; stroke-opacity:1; fill:none" points="258.824,1905.37 277.721,1905.37 "/>
<polyline clip-path="url(#clip170)" style="stroke:#000000; stroke-linecap:round; stroke-linejoin:round; stroke-width:4; stroke-opacity:1; fill:none" points="258.824,1577 277.721,1577 "/>
<polyline clip-path="url(#clip170)" style="stroke:#000000; stroke-linecap:round; stroke-linejoin:round; stroke-width:4; stroke-opacity:1; fill:none" points="258.824,1248.63 277.721,1248.63 "/>
<polyline clip-path="url(#clip170)" style="stroke:#000000; stroke-linecap:round; stroke-linejoin:round; stroke-width:4; stroke-opacity:1; fill:none" points="258.824,920.255 277.721,920.255 "/>
<polyline clip-path="url(#clip170)" style="stroke:#000000; stroke-linecap:round; stroke-linejoin:round; stroke-width:4; stroke-opacity:1; fill:none" points="258.824,591.882 277.721,591.882 "/>
<polyline clip-path="url(#clip170)" style="stroke:#000000; stroke-linecap:round; stroke-linejoin:round; stroke-width:4; stroke-opacity:1; fill:none" points="258.824,263.51 277.721,263.51 "/>
<path clip-path="url(#clip170)" d="M186.879 2219.54 Q183.268 2219.54 181.44 2223.11 Q179.634 2226.65 179.634 2233.78 Q179.634 2240.89 181.44 2244.45 Q183.268 2247.99 186.879 2247.99 Q190.514 2247.99 192.319 2244.45 Q194.148 2240.89 194.148 2233.78 Q194.148 2226.65 192.319 2223.11 Q190.514 2219.54 186.879 2219.54 M186.879 2215.84 Q192.69 2215.84 195.745 2220.45 Q198.824 2225.03 198.824 2233.78 Q198.824 2242.51 195.745 2247.11 Q192.69 2251.7 186.879 2251.7 Q181.069 2251.7 177.991 2247.11 Q174.935 2242.51 174.935 2233.78 Q174.935 2225.03 177.991 2220.45 Q181.069 2215.84 186.879 2215.84 Z" fill="#000000" fill-rule="nonzero" fill-opacity="1" /><path clip-path="url(#clip170)" d="M178.916 1918.72 L186.555 1918.72 L186.555 1892.35 L178.245 1894.02 L178.245 1889.76 L186.509 1888.09 L191.185 1888.09 L191.185 1918.72 L198.824 1918.72 L198.824 1922.65 L178.916 1922.65 L178.916 1918.72 Z" fill="#000000" fill-rule="nonzero" fill-opacity="1" /><path clip-path="url(#clip170)" d="M182.504 1590.34 L198.824 1590.34 L198.824 1594.28 L176.879 1594.28 L176.879 1590.34 Q179.541 1587.59 184.125 1582.96 Q188.731 1578.31 189.912 1576.97 Q192.157 1574.44 193.037 1572.71 Q193.94 1570.95 193.94 1569.26 Q193.94 1566.5 191.995 1564.77 Q190.074 1563.03 186.972 1563.03 Q184.773 1563.03 182.319 1563.79 Q179.889 1564.56 177.111 1566.11 L177.111 1561.39 Q179.935 1560.25 182.389 1559.67 Q184.842 1559.09 186.879 1559.09 Q192.25 1559.09 195.444 1561.78 Q198.639 1564.47 198.639 1568.96 Q198.639 1571.09 197.828 1573.01 Q197.041 1574.91 194.935 1577.5 Q194.356 1578.17 191.254 1581.39 Q188.153 1584.58 182.504 1590.34 Z" fill="#000000" fill-rule="nonzero" fill-opacity="1" /><path clip-path="url(#clip170)" d="M191.694 1247.27 Q195.051 1247.99 196.926 1250.26 Q198.824 1252.53 198.824 1255.86 Q198.824 1260.98 195.305 1263.78 Q191.787 1266.58 185.305 1266.58 Q183.129 1266.58 180.815 1266.14 Q178.523 1265.72 176.069 1264.87 L176.069 1260.35 Q178.014 1261.49 180.328 1262.06 Q182.643 1262.64 185.166 1262.64 Q189.565 1262.64 191.856 1260.91 Q194.171 1259.17 194.171 1255.86 Q194.171 1252.81 192.018 1251.09 Q189.889 1249.36 186.069 1249.36 L182.041 1249.36 L182.041 1245.51 L186.254 1245.51 Q189.703 1245.51 191.532 1244.15 Q193.361 1242.76 193.361 1240.17 Q193.361 1237.5 191.463 1236.09 Q189.588 1234.66 186.069 1234.66 Q184.148 1234.66 181.949 1235.07 Q179.75 1235.49 177.111 1236.37 L177.111 1232.2 Q179.773 1231.46 182.088 1231.09 Q184.426 1230.72 186.486 1230.72 Q191.81 1230.72 194.912 1233.15 Q198.014 1235.56 198.014 1239.68 Q198.014 1242.55 196.37 1244.54 Q194.727 1246.51 191.694 1247.27 Z" fill="#000000" fill-rule="nonzero" fill-opacity="1" /><path clip-path="url(#clip170)" d="M189.24 907.049 L177.435 925.498 L189.24 925.498 L189.24 907.049 M188.014 902.975 L193.893 902.975 L193.893 925.498 L198.824 925.498 L198.824 929.387 L193.893 929.387 L193.893 937.535 L189.24 937.535 L189.24 929.387 L173.639 929.387 L173.639 924.873 L188.014 902.975 Z" fill="#000000" fill-rule="nonzero" fill-opacity="1" /><path clip-path="url(#clip170)" d="M177.921 574.602 L196.277 574.602 L196.277 578.537 L182.203 578.537 L182.203 587.009 Q183.222 586.662 184.241 586.5 Q185.259 586.315 186.278 586.315 Q192.065 586.315 195.444 589.486 Q198.824 592.658 198.824 598.074 Q198.824 603.653 195.352 606.755 Q191.879 609.833 185.56 609.833 Q183.384 609.833 181.116 609.463 Q178.87 609.093 176.463 608.352 L176.463 603.653 Q178.546 604.787 180.768 605.343 Q182.991 605.898 185.467 605.898 Q189.472 605.898 191.81 603.792 Q194.148 601.685 194.148 598.074 Q194.148 594.463 191.81 592.357 Q189.472 590.25 185.467 590.25 Q183.592 590.25 181.717 590.667 Q179.866 591.084 177.921 591.963 L177.921 574.602 Z" fill="#000000" fill-rule="nonzero" fill-opacity="1" /><path clip-path="url(#clip170)" d="M187.296 261.646 Q184.148 261.646 182.296 263.799 Q180.467 265.952 180.467 269.702 Q180.467 273.428 182.296 275.604 Q184.148 277.757 187.296 277.757 Q190.444 277.757 192.273 275.604 Q194.125 273.428 194.125 269.702 Q194.125 265.952 192.273 263.799 Q190.444 261.646 187.296 261.646 M196.578 246.993 L196.578 251.253 Q194.819 250.419 193.014 249.979 Q191.231 249.54 189.472 249.54 Q184.842 249.54 182.389 252.665 Q179.958 255.79 179.611 262.109 Q180.977 260.095 183.037 259.03 Q185.097 257.942 187.574 257.942 Q192.782 257.942 195.791 261.114 Q198.824 264.262 198.824 269.702 Q198.824 275.026 195.676 278.243 Q192.528 281.461 187.296 281.461 Q181.301 281.461 178.129 276.877 Q174.958 272.271 174.958 263.544 Q174.958 255.35 178.847 250.489 Q182.736 245.605 189.287 245.605 Q191.046 245.605 192.828 245.952 Q194.634 246.299 196.578 246.993 Z" fill="#000000" fill-rule="nonzero" fill-opacity="1" /><path clip-path="url(#clip170)" d="M68.277 1321.13 L97.5997 1331.8 L97.5997 1310.42 L68.277 1321.13 M101.975 1338.94 L63.0947 1324.1 L63.0947 1318.13 L101.975 1303.32 L101.975 1338.94 Z" fill="#000000" fill-rule="nonzero" fill-opacity="1" /><path clip-path="url(#clip170)" d="M76.1676 1269.59 Q76.1676 1273.45 79.1884 1275.69 Q82.1832 1277.92 87.4175 1277.92 Q92.6518 1277.92 95.6727 1275.71 Q98.6674 1273.47 98.6674 1269.59 Q98.6674 1265.76 95.6466 1263.52 Q92.6258 1261.28 87.4175 1261.28 Q82.2352 1261.28 79.2144 1263.52 Q76.1676 1265.76 76.1676 1269.59 M72.1051 1269.59 Q72.1051 1263.34 76.1676 1259.77 Q80.23 1256.21 87.4175 1256.21 Q94.5789 1256.21 98.6674 1259.77 Q102.73 1263.34 102.73 1269.59 Q102.73 1275.87 98.6674 1279.43 Q94.5789 1282.98 87.4175 1282.98 Q80.23 1282.98 76.1676 1279.43 Q72.1051 1275.87 72.1051 1269.59 Z" fill="#000000" fill-rule="nonzero" fill-opacity="1" /><path clip-path="url(#clip170)" d="M87.4175 1227.33 Q82.1311 1227.33 79.1363 1229.51 Q76.1155 1231.67 76.1155 1235.48 Q76.1155 1239.28 79.1363 1241.47 Q82.1311 1243.63 87.4175 1243.63 Q92.7039 1243.63 95.7247 1241.47 Q98.7195 1239.28 98.7195 1235.48 Q98.7195 1231.67 95.7247 1229.51 Q92.7039 1227.33 87.4175 1227.33 M77.2353 1243.63 Q74.6311 1242.12 73.3811 1239.83 Q72.1051 1237.51 72.1051 1234.31 Q72.1051 1228.99 76.3238 1225.69 Q80.5425 1222.35 87.4175 1222.35 Q94.2925 1222.35 98.5112 1225.69 Q102.73 1228.99 102.73 1234.31 Q102.73 1237.51 101.48 1239.83 Q100.204 1242.12 97.5997 1243.63 L101.975 1243.63 L101.975 1248.45 L61.4541 1248.45 L61.4541 1243.63 L77.2353 1243.63 Z" fill="#000000" fill-rule="nonzero" fill-opacity="1" /><path clip-path="url(#clip170)" d="M72.8082 1214.41 L72.8082 1209.62 L102.496 1209.62 Q108.068 1209.62 110.568 1211.75 Q113.068 1213.86 113.068 1218.58 L113.068 1220.4 L109.006 1220.4 L109.006 1219.12 Q109.006 1216.39 107.73 1215.4 Q106.48 1214.41 102.496 1214.41 L72.8082 1214.41 M61.4541 1214.41 L61.4541 1209.62 L67.5218 1209.62 L67.5218 1214.41 L61.4541 1214.41 Z" fill="#000000" fill-rule="nonzero" fill-opacity="1" /><path clip-path="url(#clip170)" d="M86.1935 1174.64 L88.5373 1174.64 L88.5373 1196.68 Q93.4852 1196.36 96.0893 1193.71 Q98.6674 1191.02 98.6674 1186.26 Q98.6674 1183.5 97.9904 1180.92 Q97.3133 1178.32 95.9591 1175.76 L100.49 1175.76 Q101.584 1178.34 102.157 1181.05 Q102.73 1183.76 102.73 1186.54 Q102.73 1193.52 98.6674 1197.61 Q94.605 1201.67 87.6779 1201.67 Q80.5165 1201.67 76.3238 1197.82 Q72.1051 1193.94 72.1051 1187.38 Q72.1051 1181.49 75.9071 1178.08 Q79.6832 1174.64 86.1935 1174.64 M84.7873 1179.44 Q80.855 1179.49 78.5113 1181.65 Q76.1676 1183.78 76.1676 1187.33 Q76.1676 1191.34 78.4332 1193.76 Q80.6988 1196.15 84.8133 1196.52 L84.7873 1179.44 Z" fill="#000000" fill-rule="nonzero" fill-opacity="1" /><path clip-path="url(#clip170)" d="M73.928 1145.79 L78.4071 1145.79 Q77.2873 1147.82 76.7405 1149.88 Q76.1676 1151.91 76.1676 1153.99 Q76.1676 1158.65 79.1363 1161.23 Q82.079 1163.81 87.4175 1163.81 Q92.756 1163.81 95.7247 1161.23 Q98.6674 1158.65 98.6674 1153.99 Q98.6674 1151.91 98.1206 1149.88 Q97.5477 1147.82 96.4279 1145.79 L100.855 1145.79 Q101.792 1147.8 102.261 1149.96 Q102.73 1152.09 102.73 1154.51 Q102.73 1161.1 98.5893 1164.98 Q94.4487 1168.86 87.4175 1168.86 Q80.2821 1168.86 76.1936 1164.96 Q72.1051 1161.02 72.1051 1154.2 Q72.1051 1151.99 72.5738 1149.88 Q73.0165 1147.77 73.928 1145.79 Z" fill="#000000" fill-rule="nonzero" fill-opacity="1" /><path clip-path="url(#clip170)" d="M64.527 1132.72 L72.8082 1132.72 L72.8082 1122.85 L76.5321 1122.85 L76.5321 1132.72 L92.3654 1132.72 Q95.9331 1132.72 96.9487 1131.75 Q97.9643 1130.76 97.9643 1127.77 L97.9643 1122.85 L101.975 1122.85 L101.975 1127.77 Q101.975 1133.32 99.9174 1135.43 Q97.8341 1137.53 92.3654 1137.53 L76.5321 1137.53 L76.5321 1141.05 L72.8082 1141.05 L72.8082 1137.53 L64.527 1137.53 L64.527 1132.72 Z" fill="#000000" fill-rule="nonzero" fill-opacity="1" /><path clip-path="url(#clip170)" d="M72.8082 1116.55 L72.8082 1111.75 L101.975 1111.75 L101.975 1116.55 L72.8082 1116.55 M61.4541 1116.55 L61.4541 1111.75 L67.5218 1111.75 L67.5218 1116.55 L61.4541 1116.55 Z" fill="#000000" fill-rule="nonzero" fill-opacity="1" /><path clip-path="url(#clip170)" d="M72.8082 1105.17 L72.8082 1100.09 L97.2872 1090.97 L72.8082 1081.86 L72.8082 1076.78 L101.975 1087.72 L101.975 1094.23 L72.8082 1105.17 Z" fill="#000000" fill-rule="nonzero" fill-opacity="1" /><path clip-path="url(#clip170)" d="M86.1935 1045.22 L88.5373 1045.22 L88.5373 1067.25 Q93.4852 1066.94 96.0893 1064.28 Q98.6674 1061.6 98.6674 1056.83 Q98.6674 1054.07 97.9904 1051.49 Q97.3133 1048.89 95.9591 1046.34 L100.49 1046.34 Q101.584 1048.92 102.157 1051.62 Q102.73 1054.33 102.73 1057.12 Q102.73 1064.1 98.6674 1068.19 Q94.605 1072.25 87.6779 1072.25 Q80.5165 1072.25 76.3238 1068.39 Q72.1051 1064.51 72.1051 1057.95 Q72.1051 1052.07 75.9071 1048.65 Q79.6832 1045.22 86.1935 1045.22 M84.7873 1050.01 Q80.855 1050.06 78.5113 1052.22 Q76.1676 1054.36 76.1676 1057.9 Q76.1676 1061.91 78.4332 1064.33 Q80.6988 1066.73 84.8133 1067.09 L84.7873 1050.01 Z" fill="#000000" fill-rule="nonzero" fill-opacity="1" /><path clip-path="url(#clip170)" d="M1796.33 35.6653 Q1796.33 29.7915 1793.9 26.464 Q1791.5 23.1075 1787.28 23.1075 Q1783.05 23.1075 1780.62 26.464 Q1778.22 29.7915 1778.22 35.6653 Q1778.22 41.5391 1780.62 44.8956 Q1783.05 48.2231 1787.28 48.2231 Q1791.5 48.2231 1793.9 44.8956 Q1796.33 41.5391 1796.33 35.6653 M1778.22 24.3517 Q1779.9 21.4582 1782.44 20.0693 Q1785.02 18.6515 1788.58 18.6515 Q1794.48 18.6515 1798.16 23.339 Q1801.86 28.0265 1801.86 35.6653 Q1801.86 43.3042 1798.16 47.9916 Q1794.48 52.6791 1788.58 52.6791 Q1785.02 52.6791 1782.44 51.2902 Q1779.9 49.8724 1778.22 46.9789 L1778.22 51.84 L1772.87 51.84 L1772.87 6.81709 L1778.22 6.81709 L1778.22 24.3517 Z" fill="#000000" fill-rule="nonzero" fill-opacity="1" /><path clip-path="url(#clip170)" d="M1838.4 34.3054 L1838.4 36.9095 L1813.93 36.9095 Q1814.27 42.4072 1817.22 45.3007 Q1820.2 48.1653 1825.5 48.1653 Q1828.57 48.1653 1831.43 47.4129 Q1834.32 46.6606 1837.16 45.156 L1837.16 50.1907 Q1834.3 51.406 1831.29 52.0425 Q1828.28 52.6791 1825.18 52.6791 Q1817.43 52.6791 1812.88 48.1653 Q1808.37 43.6514 1808.37 35.9547 Q1808.37 27.9975 1812.65 23.339 Q1816.96 18.6515 1824.26 18.6515 Q1830.79 18.6515 1834.59 22.876 Q1838.4 27.0716 1838.4 34.3054 M1833.08 32.7429 Q1833.02 28.3737 1830.62 25.7695 Q1828.25 23.1654 1824.31 23.1654 Q1819.86 23.1654 1817.17 25.6827 Q1814.5 28.2001 1814.1 32.7718 L1833.08 32.7429 Z" fill="#000000" fill-rule="nonzero" fill-opacity="1" /><path clip-path="url(#clip170)" d="M1852.41 10.2314 L1852.41 19.4328 L1863.38 19.4328 L1863.38 23.5705 L1852.41 23.5705 L1852.41 41.163 Q1852.41 45.1271 1853.48 46.2555 Q1854.58 47.384 1857.91 47.384 L1863.38 47.384 L1863.38 51.84 L1857.91 51.84 Q1851.74 51.84 1849.4 49.5541 Q1847.06 47.2393 1847.06 41.163 L1847.06 23.5705 L1843.15 23.5705 L1843.15 19.4328 L1847.06 19.4328 L1847.06 10.2314 L1852.41 10.2314 Z" fill="#000000" fill-rule="nonzero" fill-opacity="1" /><path clip-path="url(#clip170)" d="M1885.11 35.5496 Q1878.65 35.5496 1876.16 37.0253 Q1873.68 38.501 1873.68 42.06 Q1873.68 44.8956 1875.53 46.5738 Q1877.41 48.2231 1880.62 48.2231 Q1885.05 48.2231 1887.71 45.0981 Q1890.4 41.9442 1890.4 36.7359 L1890.4 35.5496 L1885.11 35.5496 M1895.72 33.3505 L1895.72 51.84 L1890.4 51.84 L1890.4 46.921 Q1888.58 49.8724 1885.86 51.2902 Q1883.14 52.6791 1879.2 52.6791 Q1874.23 52.6791 1871.27 49.9014 Q1868.35 47.0947 1868.35 42.4072 Q1868.35 36.9385 1872 34.1607 Q1875.67 31.3829 1882.94 31.3829 L1890.4 31.3829 L1890.4 30.8621 Q1890.4 27.1874 1887.97 25.1908 Q1885.57 23.1654 1881.2 23.1654 Q1878.42 23.1654 1875.79 23.8309 Q1873.16 24.4964 1870.73 25.8274 L1870.73 20.9085 Q1873.65 19.78 1876.4 19.2302 Q1879.15 18.6515 1881.75 18.6515 Q1888.78 18.6515 1892.25 22.2973 Q1895.72 25.9431 1895.72 33.3505 Z" fill="#000000" fill-rule="nonzero" fill-opacity="1" /><path clip-path="url(#clip170)" d="M1938.32 6.87496 Q1934.44 13.53 1932.56 20.0404 Q1930.68 26.5508 1930.68 33.2348 Q1930.68 39.9188 1932.56 46.487 Q1934.47 53.0263 1938.32 59.6525 L1933.69 59.6525 Q1929.35 52.8527 1927.18 46.2845 Q1925.04 39.7162 1925.04 33.2348 Q1925.04 26.7823 1927.18 20.2429 Q1929.32 13.7036 1933.69 6.87496 L1938.32 6.87496 Z" fill="#000000" fill-rule="nonzero" fill-opacity="1" /><path clip-path="url(#clip170)" d="M1953.97 49.8435 L1953.97 64.1663 L1948.62 64.1663 L1948.62 19.6353 Q1948.62 6.44094 1960.94 6.44094 Q1973.5 6.44094 1973.5 17.5809 Q1973.5 25.5091 1968.53 28.4026 Q1976.63 31.0068 1976.63 38.7324 Q1976.63 52.4476 1962.68 52.4476 Q1956.55 52.4476 1953.97 49.8435 M1953.97 42.8991 Q1957.18 47.9048 1962.88 47.9048 Q1971.22 47.9048 1971.22 38.8192 Q1971.22 30.6596 1957.79 31.2961 L1957.79 26.3772 Q1968.29 26.3772 1968.29 17.118 Q1968.29 10.7812 1961.52 10.7812 Q1953.97 10.7812 1953.97 19.8089 L1953.97 42.8991 Z" fill="#000000" fill-rule="nonzero" fill-opacity="1" /><path clip-path="url(#clip170)" d="M1985.63 6.87496 L1990.26 6.87496 Q1994.6 13.7036 1996.74 20.2429 Q1998.91 26.7823 1998.91 33.2348 Q1998.91 39.7162 1996.74 46.2845 Q1994.6 52.8527 1990.26 59.6525 L1985.63 59.6525 Q1989.47 53.0263 1991.36 46.487 Q1993.26 39.9188 1993.26 33.2348 Q1993.26 26.5508 1991.36 20.0404 Q1989.47 13.53 1985.63 6.87496 Z" fill="#000000" fill-rule="nonzero" fill-opacity="1" /><path clip-path="url(#clip170)" d="M2035.28 6.55668 L2035.28 65.8156 L2030.36 65.8156 L2030.36 6.55668 L2035.28 6.55668 Z" fill="#000000" fill-rule="nonzero" fill-opacity="1" /><path clip-path="url(#clip170)" d="M2067.45 8.64 L2073.3 8.64 L2073.3 51.84 L2067.45 51.84 L2067.45 8.64 Z" fill="#000000" fill-rule="nonzero" fill-opacity="1" /><path clip-path="url(#clip170)" d="M2106.02 24.3517 L2106.02 6.81709 L2111.35 6.81709 L2111.35 51.84 L2106.02 51.84 L2106.02 46.9789 Q2104.35 49.8724 2101.77 51.2902 Q2099.22 52.6791 2095.64 52.6791 Q2089.76 52.6791 2086.06 47.9916 Q2082.38 43.3042 2082.38 35.6653 Q2082.38 28.0265 2086.06 23.339 Q2089.76 18.6515 2095.64 18.6515 Q2099.22 18.6515 2101.77 20.0693 Q2104.35 21.4582 2106.02 24.3517 M2087.88 35.6653 Q2087.88 41.5391 2090.28 44.8956 Q2092.71 48.2231 2096.94 48.2231 Q2101.16 48.2231 2103.59 44.8956 Q2106.02 41.5391 2106.02 35.6653 Q2106.02 29.7915 2103.59 26.464 Q2101.16 23.1075 2096.94 23.1075 Q2092.71 23.1075 2090.28 26.464 Q2087.88 29.7915 2087.88 35.6653 Z" fill="#000000" fill-rule="nonzero" fill-opacity="1" /><path clip-path="url(#clip170)" d="M2150.03 34.3054 L2150.03 36.9095 L2125.56 36.9095 Q2125.9 42.4072 2128.85 45.3007 Q2131.83 48.1653 2137.13 48.1653 Q2140.2 48.1653 2143.06 47.4129 Q2145.96 46.6606 2148.79 45.156 L2148.79 50.1907 Q2145.93 51.406 2142.92 52.0425 Q2139.91 52.6791 2136.81 52.6791 Q2129.06 52.6791 2124.51 48.1653 Q2120 43.6514 2120 35.9547 Q2120 27.9975 2124.28 23.339 Q2128.59 18.6515 2135.89 18.6515 Q2142.42 18.6515 2146.22 22.876 Q2150.03 27.0716 2150.03 34.3054 M2144.71 32.7429 Q2144.65 28.3737 2142.25 25.7695 Q2139.88 23.1654 2135.94 23.1654 Q2131.49 23.1654 2128.8 25.6827 Q2126.13 28.2001 2125.73 32.7718 L2144.71 32.7429 Z" fill="#000000" fill-rule="nonzero" fill-opacity="1" /><path clip-path="url(#clip170)" d="M2185.71 32.2799 L2185.71 51.84 L2180.39 51.84 L2180.39 32.4535 Q2180.39 27.8529 2178.59 25.567 Q2176.8 23.2811 2173.21 23.2811 Q2168.9 23.2811 2166.41 26.03 Q2163.92 28.7788 2163.92 33.5241 L2163.92 51.84 L2158.57 51.84 L2158.57 19.4328 L2163.92 19.4328 L2163.92 24.4675 Q2165.83 21.545 2168.41 20.0983 Q2171.01 18.6515 2174.4 18.6515 Q2179.98 18.6515 2182.85 22.1237 Q2185.71 25.567 2185.71 32.2799 Z" fill="#000000" fill-rule="nonzero" fill-opacity="1" /><path clip-path="url(#clip170)" d="M2201.6 10.2314 L2201.6 19.4328 L2212.56 19.4328 L2212.56 23.5705 L2201.6 23.5705 L2201.6 41.163 Q2201.6 45.1271 2202.67 46.2555 Q2203.77 47.384 2207.09 47.384 L2212.56 47.384 L2212.56 51.84 L2207.09 51.84 Q2200.93 51.84 2198.59 49.5541 Q2196.24 47.2393 2196.24 41.163 L2196.24 23.5705 L2192.34 23.5705 L2192.34 19.4328 L2196.24 19.4328 L2196.24 10.2314 L2201.6 10.2314 Z" fill="#000000" fill-rule="nonzero" fill-opacity="1" /><path clip-path="url(#clip170)" d="M2219.57 19.4328 L2224.89 19.4328 L2224.89 51.84 L2219.57 51.84 L2219.57 19.4328 M2219.57 6.81709 L2224.89 6.81709 L2224.89 13.559 L2219.57 13.559 L2219.57 6.81709 Z" fill="#000000" fill-rule="nonzero" fill-opacity="1" /><path clip-path="url(#clip170)" d="M2252.44 6.81709 L2252.44 11.2442 L2247.34 11.2442 Q2244.48 11.2442 2243.35 12.4016 Q2242.25 13.559 2242.25 16.5682 L2242.25 19.4328 L2251.02 19.4328 L2251.02 23.5705 L2242.25 23.5705 L2242.25 51.84 L2236.9 51.84 L2236.9 23.5705 L2231.81 23.5705 L2231.81 19.4328 L2236.9 19.4328 L2236.9 17.1758 Q2236.9 11.765 2239.42 9.30551 Q2241.93 6.81709 2247.4 6.81709 L2252.44 6.81709 Z" fill="#000000" fill-rule="nonzero" fill-opacity="1" /><path clip-path="url(#clip170)" d="M2256.89 19.4328 L2262.22 19.4328 L2262.22 51.84 L2256.89 51.84 L2256.89 19.4328 M2256.89 6.81709 L2262.22 6.81709 L2262.22 13.559 L2256.89 13.559 L2256.89 6.81709 Z" fill="#000000" fill-rule="nonzero" fill-opacity="1" /><path clip-path="url(#clip170)" d="M2288.08 35.5496 Q2281.63 35.5496 2279.14 37.0253 Q2276.65 38.501 2276.65 42.06 Q2276.65 44.8956 2278.51 46.5738 Q2280.39 48.2231 2283.6 48.2231 Q2288.03 48.2231 2290.69 45.0981 Q2293.38 41.9442 2293.38 36.7359 L2293.38 35.5496 L2288.08 35.5496 M2298.7 33.3505 L2298.7 51.84 L2293.38 51.84 L2293.38 46.921 Q2291.56 49.8724 2288.84 51.2902 Q2286.12 52.6791 2282.18 52.6791 Q2277.2 52.6791 2274.25 49.9014 Q2271.33 47.0947 2271.33 42.4072 Q2271.33 36.9385 2274.98 34.1607 Q2278.65 31.3829 2285.91 31.3829 L2293.38 31.3829 L2293.38 30.8621 Q2293.38 27.1874 2290.95 25.1908 Q2288.55 23.1654 2284.18 23.1654 Q2281.4 23.1654 2278.77 23.8309 Q2276.13 24.4964 2273.7 25.8274 L2273.7 20.9085 Q2276.63 19.78 2279.37 19.2302 Q2282.12 18.6515 2284.73 18.6515 Q2291.76 18.6515 2295.23 22.2973 Q2298.7 25.9431 2298.7 33.3505 Z" fill="#000000" fill-rule="nonzero" fill-opacity="1" /><path clip-path="url(#clip170)" d="M2332.93 35.6653 Q2332.93 29.7915 2330.5 26.464 Q2328.1 23.1075 2323.88 23.1075 Q2319.65 23.1075 2317.22 26.464 Q2314.82 29.7915 2314.82 35.6653 Q2314.82 41.5391 2317.22 44.8956 Q2319.65 48.2231 2323.88 48.2231 Q2328.1 48.2231 2330.5 44.8956 Q2332.93 41.5391 2332.93 35.6653 M2314.82 24.3517 Q2316.5 21.4582 2319.04 20.0693 Q2321.62 18.6515 2325.18 18.6515 Q2331.08 18.6515 2334.76 23.339 Q2338.46 28.0265 2338.46 35.6653 Q2338.46 43.3042 2334.76 47.9916 Q2331.08 52.6791 2325.18 52.6791 Q2321.62 52.6791 2319.04 51.2902 Q2316.5 49.8724 2314.82 46.9789 L2314.82 51.84 L2309.47 51.84 L2309.47 6.81709 L2314.82 6.81709 L2314.82 24.3517 Z" fill="#000000" fill-rule="nonzero" fill-opacity="1" /><path clip-path="url(#clip170)" d="M2347.29 6.81709 L2352.61 6.81709 L2352.61 51.84 L2347.29 51.84 L2347.29 6.81709 Z" fill="#000000" fill-rule="nonzero" fill-opacity="1" /><path clip-path="url(#clip170)" d="M2391.47 34.3054 L2391.47 36.9095 L2366.99 36.9095 Q2367.34 42.4072 2370.29 45.3007 Q2373.27 48.1653 2378.56 48.1653 Q2381.63 48.1653 2384.5 47.4129 Q2387.39 46.6606 2390.22 45.156 L2390.22 50.1907 Q2387.36 51.406 2384.35 52.0425 Q2381.34 52.6791 2378.25 52.6791 Q2370.49 52.6791 2365.95 48.1653 Q2361.43 43.6514 2361.43 35.9547 Q2361.43 27.9975 2365.72 23.339 Q2370.03 18.6515 2377.32 18.6515 Q2383.86 18.6515 2387.65 22.876 Q2391.47 27.0716 2391.47 34.3054 M2386.14 32.7429 Q2386.09 28.3737 2383.69 25.7695 Q2381.31 23.1654 2377.38 23.1654 Q2372.92 23.1654 2370.23 25.6827 Q2367.57 28.2001 2367.16 32.7718 L2386.14 32.7429 Z" fill="#000000" fill-rule="nonzero" fill-opacity="1" /><polyline clip-path="url(#clip171)" style="stroke:#595959; stroke-linecap:round; stroke-linejoin:round; stroke-width:6.8; stroke-opacity:0.95; fill:none" points="258.824,249.619 809.017,958.962 818.351,972.383 922.957,1121.98 2082.17,2233.75 "/>
<polyline clip-path="url(#clip171)" style="stroke:#595959; stroke-linecap:round; stroke-linejoin:round; stroke-width:6.8; stroke-opacity:0.95; fill:none" points="2082.17,2233.75 3495.96,1243.73 3670.51,999.926 3690.28,970.272 3905.51,606.9 "/>
<polyline clip-path="url(#clip171)" style="stroke:#3cb371; stroke-linecap:round; stroke-linejoin:round; stroke-width:7.2; stroke-opacity:1; fill:none" stroke-dasharray="29, 18" points="-3387.86,972.315 7552.2,972.315 "/>
<polyline clip-path="url(#clip171)" style="stroke:#000000; stroke-linecap:round; stroke-linejoin:round; stroke-width:4.8; stroke-opacity:1; fill:none" stroke-dasharray="2, 5" points="818.351,4317.08 818.351,-1932.92 "/>
<polyline clip-path="url(#clip171)" style="stroke:#000000; stroke-linecap:round; stroke-linejoin:round; stroke-width:4.8; stroke-opacity:1; fill:none" stroke-dasharray="2, 5" points="3690.28,4317.08 3690.28,-1932.92 "/>
<path clip-path="url(#clip171)" d="M2082.17 2215.75 L2064.17 2233.75 L2082.17 2251.75 L2100.17 2233.75 L2082.17 2215.75 Z" fill="#000000" fill-rule="evenodd" fill-opacity="1" stroke="none"/>
</svg>
