<?xml version="1.0" encoding="utf-8"?>
<svg xmlns="http://www.w3.org/2000/svg" xmlns:xlink="http://www.w3.org/1999/xlink" width="1000" height="620" viewBox="0 0 4000 2480">
<defs>
  <clipPath id="clip350">
    <rect x="0" y="0" width="4000" height="2480"/>
  </clipPath>
</defs>
<path clip-path="url(#clip350)" d="M0 2480 L4000 2480 L4000 0 L0 0  Z" fill="#ffffff" fill-rule="evenodd" fill-opacity="1"/>
<defs>
  <clipPath id="clip351">
    <rect x="330" y="150" width="3576" height="2084"/>
  </clipPath>
</defs>
<path clip-path="url(#clip350)" d="M258.824 2233.75 L3905.51 2233.75 L3905.51 150.412 L258.824 150.412  Z" fill="#ffffff" fill-rule="evenodd" fill-opacity="1"/>
<defs>
  <clipPath id="clip352">
    <rect x="258" y="150" width="3648" height="2084"/>
  </clipPath>
</defs>
<polyline clip-path="url(#clip352)" style="stroke:#000000; stroke-linecap:round; stroke-linejoin:round; stroke-width:2; stroke-opacity:0.15; fill:none" points="1357.56,2233.75 1357.56,150.412 "/>
<polyline clip-path="url(#clip352)" style="stroke:#000000; stroke-linecap:round; stroke-linejoin:round; stroke-width:2; stroke-opacity:0.15; fill:none" points="3325.48,2233.75 3325.48,150.412 "/>
<polyline clip-path="url(#clip352)" style="stroke:#000000; stroke-linecap:round; stroke-linejoin:round; stroke-width:2; stroke-opacity:0.15; fill:none" points="258.824,2233.75 3905.51,2233.75 "/>
<polyline clip-path="url(#clip352)" style="stroke:#000000; stroke-linecap:round; stroke-linejoin:round; stroke-width:2; stroke-opacity:0.15; fill:none" points="258.824,1726.67 3905.51,1726.67 "/>
<polyline clip-path="url(#clip352)" style="stroke:#000000; stroke-linecap:round; stroke-linejoin:round; stroke-width:2; stroke-opacity:0.15; fill:none" points="258.824,1219.6 3905.51,1219.6 "/>
<polyline clip-path="url(#clip352)" style="stroke:#000000; stroke-linecap:round; stroke-linejoin:round; stroke-width:2; stroke-opacity:0.15; fill:none" points="258.824,712.524 3905.51,712.524 "/>
<polyline clip-path="url(#clip352)" style="stroke:#000000; stroke-linecap:round; stroke-linejoin:round; stroke-width:2; stroke-opacity:0.15; fill:none" points="258.824,205.451 3905.51,205.451 "/>
<polyline clip-path="url(#clip350)" style="stroke:#000000; stroke-linecap:round; stroke-linejoin:round; stroke-width:4; stroke-opacity:1; fill:none" points="258.824,2233.75 3905.51,2233.75 "/>
<polyline clip-path="url(#clip350)" style="stroke:#000000; stroke-linecap:round; stroke-linejoin:round; stroke-width:4; stroke-opacity:1; fill:none" points="1357.56,2233.75 1357.56,2214.85 "/>
<polyline clip-path="url(#clip350)" style="stroke:#000000; stroke-linecap:round; stroke-linejoin:round; stroke-width:4; stroke-opacity:1; fill:none" points="3325.48,2233.75 3325.48,2214.85 "/>
<path clip-path="url(#clip350)" d="M1307.83 2320.67 L1315.47 2320.67 L1315.47 2294.3 L1307.16 2295.97 L1307.16 2291.71 L1315.42 2290.05 L1320.1 2290.05 L1320.1 2320.67 L1327.74 2320.67 L1327.74 2324.61 L1307.83 2324.61 L1307.83 2320.67 Z" fill="#000000" fill-rule="nonzero" fill-opacity="1" /><path clip-path="url(#clip350)" d="M1347.18 2293.12 Q1343.57 2293.12 1341.74 2296.69 Q1339.94 2300.23 1339.94 2307.36 Q1339.94 2314.47 1341.74 2318.03 Q1343.57 2321.57 1347.18 2321.57 Q1350.82 2321.57 1352.62 2318.03 Q1354.45 2314.47 1354.45 2307.36 Q1354.45 2300.23 1352.62 2296.69 Q1350.82 2293.12 1347.18 2293.12 M1347.18 2289.42 Q1352.99 2289.42 1356.05 2294.03 Q1359.13 2298.61 1359.13 2307.36 Q1359.13 2316.09 1356.05 2320.69 Q1352.99 2325.28 1347.18 2325.28 Q1341.37 2325.28 1338.29 2320.69 Q1335.24 2316.09 1335.24 2307.36 Q1335.24 2298.61 1338.29 2294.03 Q1341.37 2289.42 1347.18 2289.42 Z" fill="#000000" fill-rule="nonzero" fill-opacity="1" /><path clip-path="url(#clip350)" d="M1359.13 2283.52 L1383.24 2283.52 L1383.24 2286.72 L1359.13 2286.72 L1359.13 2283.52 Z" fill="#000000" fill-rule="nonzero" fill-opacity="1" /><path clip-path="url(#clip350)" d="M1394.71 2294 L1407.97 2294 L1407.97 2297.19 L1390.14 2297.19 L1390.14 2294 Q1392.3 2291.76 1396.03 2288 Q1399.77 2284.22 1400.73 2283.13 Q1402.55 2281.08 1403.27 2279.67 Q1404 2278.24 1404 2276.86 Q1404 2274.63 1402.42 2273.21 Q1400.86 2271.8 1398.34 2271.8 Q1396.55 2271.8 1394.56 2272.42 Q1392.59 2273.05 1390.33 2274.31 L1390.33 2270.47 Q1392.62 2269.55 1394.62 2269.08 Q1396.61 2268.61 1398.27 2268.61 Q1402.63 2268.61 1405.22 2270.79 Q1407.82 2272.97 1407.82 2276.62 Q1407.82 2278.35 1407.16 2279.91 Q1406.52 2281.45 1404.81 2283.56 Q1404.34 2284.1 1401.82 2286.72 Q1399.3 2289.31 1394.71 2294 Z" fill="#000000" fill-rule="nonzero" fill-opacity="1" /><path clip-path="url(#clip350)" d="M3275.59 2320.67 L3283.23 2320.67 L3283.23 2294.3 L3274.92 2295.97 L3274.92 2291.71 L3283.19 2290.05 L3287.86 2290.05 L3287.86 2320.67 L3295.5 2320.67 L3295.5 2324.61 L3275.59 2324.61 L3275.59 2320.67 Z" fill="#000000" fill-rule="nonzero" fill-opacity="1" /><path clip-path="url(#clip350)" d="M3314.95 2293.12 Q3311.33 2293.12 3309.51 2296.69 Q3307.7 2300.23 3307.7 2307.36 Q3307.7 2314.47 3309.51 2318.03 Q3311.33 2321.57 3314.95 2321.57 Q3318.58 2321.57 3320.38 2318.03 Q3322.21 2314.47 3322.21 2307.36 Q3322.21 2300.23 3320.38 2296.69 Q3318.58 2293.12 3314.95 2293.12 M3314.95 2289.42 Q3320.76 2289.42 3323.81 2294.03 Q3326.89 2298.61 3326.89 2307.36 Q3326.89 2316.09 3323.81 2320.69 Q3320.76 2325.28 3314.95 2325.28 Q3309.13 2325.28 3306.06 2320.69 Q3303 2316.09 3303 2307.36 Q3303 2298.61 3306.06 2294.03 Q3309.13 2289.42 3314.95 2289.42 Z" fill="#000000" fill-rule="nonzero" fill-opacity="1" /><path clip-path="url(#clip350)" d="M3326.89 2283.52 L3351 2283.52 L3351 2286.72 L3326.89 2286.72 L3326.89 2283.52 Z" fill="#000000" fill-rule="nonzero" fill-opacity="1" /><path clip-path="url(#clip350)" d="M3359.86 2294 L3366.07 2294 L3366.07 2272.58 L3359.31 2273.93 L3359.31 2270.47 L3366.03 2269.11 L3369.83 2269.11 L3369.83 2294 L3376.03 2294 L3376.03 2297.19 L3359.86 2297.19 L3359.86 2294 Z" fill="#000000" fill-rule="nonzero" fill-opacity="1" /><path clip-path="url(#clip350)" d="M2084.93 2396 Q2079.12 2396 2076.88 2397.33 Q2074.64 2398.66 2074.64 2401.86 Q2074.64 2404.42 2076.31 2405.93 Q2078 2407.41 2080.89 2407.41 Q2084.88 2407.41 2087.27 2404.6 Q2089.69 2401.76 2089.69 2397.07 L2089.69 2396 L2084.93 2396 M2094.49 2394.03 L2094.49 2410.67 L2089.69 2410.67 L2089.69 2406.24 Q2088.05 2408.9 2085.61 2410.17 Q2083.16 2411.42 2079.62 2411.42 Q2075.14 2411.42 2072.48 2408.92 Q2069.85 2406.4 2069.85 2402.18 Q2069.85 2397.25 2073.13 2394.75 Q2076.44 2392.25 2082.98 2392.25 L2089.69 2392.25 L2089.69 2391.79 Q2089.69 2388.48 2087.51 2386.68 Q2085.34 2384.86 2081.41 2384.86 Q2078.91 2384.86 2076.54 2385.46 Q2074.17 2386.06 2071.99 2387.25 L2071.99 2382.83 Q2074.62 2381.81 2077.09 2381.32 Q2079.56 2380.8 2081.91 2380.8 Q2088.24 2380.8 2091.36 2384.08 Q2094.49 2387.36 2094.49 2394.03 Z" fill="#000000" fill-rule="nonzero" fill-opacity="1" /><polyline clip-path="url(#clip350)" style="stroke:#000000; stroke-linecap:round; stroke-linejoin:round; stroke-width:4; stroke-opacity:1; fill:none" points="258.824,2233.75 258.824,150.412 "/>
<polyline clip-path="url(#clip350)" style="stroke:#000000; stroke-linecap:round; stroke-linejoin:round; stroke-width:4; stroke-opacity:1; fill:none" points="258.824,2233.75 277.721,2233.75 "/>
<polyline clip-path="url(#clip350)" style="stroke:#000000; stroke-linecap:round; stroke-linejoin:round; stroke-width:4; stroke-opacity:1; fill:none" points="258.824,1726.67 277.721,1726.67 "/>
<polyline clip-path="url(#clip350)" style="stroke:#000000; stroke-linecap:round; stroke-linejoin:round; stroke-width:4; stroke-opacity:1; fill:none" points="258.824,1219.6 277.721,1219.6 "/>
<polyline clip-path="url(#clip350)" style="stroke:#000000; stroke-linecap:round; stroke-linejoin:round; stroke-width:4; stroke-opacity:1; fill:none" points="258.824,712.524 277.721,712.524 "/>
<polyline clip-path="url(#clip350)" style="stroke:#000000; stroke-linecap:round; stroke-linejoin:round; stroke-width:4; stroke-opacity:1; fill:none" points="258.824,205.451 277.721,205.451 "/>
<path clip-path="url(#clip350)" d="M186.879 2219.54 Q183.268 2219.54 181.44 2223.11 Q179.634 2226.65 179.634 2233.78 Q179.634 2240.89 181.44 2244.45 Q183.268 2247.99 186.879 2247.99 Q190.514 2247.99 192.319 2244.45 Q194.148 2240.89 194.148 2233.78 Q194.148 2226.65 192.319 2223.11 Q190.514 2219.54 186.879 2219.54 M186.879 2215.84 Q192.69 2215.84 195.745 2220.45 Q198.824 2225.03 198.824 2233.78 Q198.824 2242.51 195.745 2247.11 Q192.69 2251.7 186.879 2251.7 Q181.069 2251.7 177.991 2247.11 Q174.935 2242.51 174.935 2233.78 Q174.935 2225.03 177.991 2220.45 Q181.069 2215.84 186.879 2215.84 Z" fill="#000000" fill-rule="nonzero" fill-opacity="1" /><path clip-path="url(#clip350)" d="M178.916 1740.02 L186.555 1740.02 L186.555 1713.65 L178.245 1715.32 L178.245 1711.06 L186.509 1709.39 L191.185 1709.39 L191.185 1740.02 L198.824 1740.02 L198.824 1743.95 L178.916 1743.95 L178.916 1740.02 Z" fill="#000000" fill-rule="nonzero" fill-opacity="1" /><path clip-path="url(#clip350)" d="M182.504 1232.94 L198.824 1232.94 L198.824 1236.88 L176.879 1236.88 L176.879 1232.94 Q179.541 1230.19 184.125 1225.56 Q188.731 1220.91 189.912 1219.56 Q192.157 1217.04 193.037 1215.3 Q193.94 1213.54 193.94 1211.85 Q193.94 1209.1 191.995 1207.36 Q190.074 1205.63 186.972 1205.63 Q184.773 1205.63 182.319 1206.39 Q179.889 1207.16 177.111 1208.71 L177.111 1203.98 Q179.935 1202.85 182.389 1202.27 Q184.842 1201.69 186.879 1201.69 Q192.25 1201.69 195.444 1204.38 Q198.639 1207.06 198.639 1211.55 Q198.639 1213.68 197.828 1215.6 Q197.041 1217.5 194.935 1220.1 Q194.356 1220.77 191.254 1223.98 Q188.153 1227.18 182.504 1232.94 Z" fill="#000000" fill-rule="nonzero" fill-opacity="1" /><path clip-path="url(#clip350)" d="M191.694 711.17 Q195.051 711.888 196.926 714.156 Q198.824 716.425 198.824 719.758 Q198.824 724.874 195.305 727.675 Q191.787 730.476 185.305 730.476 Q183.129 730.476 180.815 730.036 Q178.523 729.619 176.069 728.763 L176.069 724.249 Q178.014 725.383 180.328 725.962 Q182.643 726.541 185.166 726.541 Q189.565 726.541 191.856 724.804 Q194.171 723.068 194.171 719.758 Q194.171 716.703 192.018 714.99 Q189.889 713.254 186.069 713.254 L182.041 713.254 L182.041 709.411 L186.254 709.411 Q189.703 709.411 191.532 708.045 Q193.361 706.656 193.361 704.064 Q193.361 701.402 191.463 699.99 Q189.588 698.555 186.069 698.555 Q184.148 698.555 181.949 698.971 Q179.75 699.388 177.111 700.268 L177.111 696.101 Q179.773 695.36 182.088 694.99 Q184.426 694.619 186.486 694.619 Q191.81 694.619 194.912 697.05 Q198.014 699.457 198.014 703.578 Q198.014 706.448 196.37 708.439 Q194.727 710.406 191.694 711.17 Z" fill="#000000" fill-rule="nonzero" fill-opacity="1" /><path clip-path="url(#clip350)" d="M189.24 192.245 L177.435 210.694 L189.24 210.694 L189.24 192.245 M188.014 188.171 L193.893 188.171 L193.893 210.694 L198.824 210.694 L198.824 214.583 L193.893 214.583 L193.893 222.731 L189.24 222.731 L189.24 214.583 L173.639 214.583 L173.639 210.069 L188.014 188.171 Z" fill="#000000" fill-rule="nonzero" fill-opacity="1" /><path clip-path="url(#clip350)" d="M68.277 1321.13 L97.5997 1331.8 L97.5997 1310.42 L68.277 1321.13 M101.975 1338.94 L63.0947 1324.1 L63.0947 1318.13 L101.975 1303.32 L101.975 1338.94 Z" fill="#000000" fill-rule="nonzero" fill-opacity="1" /><path clip-path="url(#clip350)" d="M76.1676 1269.59 Q76.1676 1273.45 79.1884 1275.69 Q82.1832 1277.92 87.4175 1277.92 Q92.6518 1277.92 95.6727 1275.71 Q98.6674 1273.47 98.6674 1269.59 Q98.6674 1265.76 95.6466 1263.52 Q92.6258 1261.28 87.4175 1261.28 Q82.2352 1261.28 79.2144 1263.52 Q76.1676 1265.76 76.1676 1269.59 M72.1051 1269.59 Q72.1051 1263.34 76.1676 1259.77 Q80.23 1256.21 87.4175 1256.21 Q94.5789 1256.21 98.6674 1259.77 Q102.73 1263.34 102.73 1269.59 Q102.73 1275.87 98.6674 1279.43 Q94.5789 1282.98 87.4175 1282.98 Q80.23 1282.98 76.1676 1279.43 Q72.1051 1275.87 72.1051 1269.59 Z" fill="#000000" fill-rule="nonzero" fill-opacity="1" /><path clip-path="url(#clip350)" d="M87.4175 1227.33 Q82.1311 1227.33 79.1363 1229.51 Q76.1155 1231.67 76.1155 1235.48 Q76.1155 1239.28 79.1363 1241.47 Q82.1311 1243.63 87.4175 1243.63 Q92.7039 1243.63 95.7247 1241.47 Q98.7195 1239.28 98.7195 1235.48 Q98.7195 1231.67 95.7247 1229.51 Q92.7039 1227.33 87.4175 1227.33 M77.2353 1243.63 Q74.6311 1242.12 73.3811 1239.83 Q72.1051 1237.51 72.1051 1234.31 Q72.1051 1228.99 76.3238 1225.69 Q80.5425 1222.35 87.4175 1222.35 Q94.2925 1222.35 98.5112 1225.69 Q102.73 1228.99 102.73 1234.31 Q102.73 1237.51 101.48 1239.83 Q100.204 1242.12 97.5997 1243.63 L101.975 1243.63 L101.975 1248.45 L61.4541 1248.45 L61.4541 1243.63 L77.2353 1243.63 Z" fill="#000000" fill-rule="nonzero" fill-opacity="1" /><path clip-path="url(#clip350)" d="M72.8082 1214.41 L72.8082 1209.62 L102.496 1209.62 Q108.068 1209.62 110.568 1211.75 Q113.068 1213.86 113.068 1218.58 L113.068 1220.4 L109.006 1220.4 L109.006 1219.12 Q109.006 1216.39 107.73 1215.4 Q106.48 1214.41 102.496 1214.41 L72.8082 1214.41 M61.4541 1214.41 L61.4541 1209.62 L67.5218 1209.62 L67.5218 1214.41 L61.4541 1214.41 Z" fill="#000000" fill-rule="nonzero" fill-opacity="1" /><path clip-path="url(#clip350)" d="M86.1935 1174.64 L88.5373 1174.64 L88.5373 1196.68 Q93.4852 1196.36 96.0893 1193.71 Q98.6674 1191.02 98.6674 1186.26 Q98.6674 1183.5 97.9904 1180.92 Q97.3133 1178.32 95.9591 1175.76 L100.49 1175.76 Q101.584 1178.34 102.157 1181.05 Q102.73 1183.76 102.73 1186.54 Q102.73 1193.52 98.6674 1197.61 Q94.605 1201.67 87.6779 1201.67 Q80.5165 1201.67 76.3238 1197.82 Q72.1051 1193.94 72.1051 1187.38 Q72.1051 1181.49 75.9071 1178.08 Q79.6832 1174.64 86.1935 1174.64 M84.7873 1179.44 Q80.855 1179.49 78.5113 1181.65 Q76.1676 1183.78 76.1676 1187.33 Q76.1676 1191.34 78.4332 1193.76 Q80.6988 1196.15 84.8133 1196.52 L84.7873 1179.44 Z" fill="#000000" fill-rule="nonzero" fill-opacity="1" /><path clip-path="url(#clip350)" d="M73.928 1145.79 L78.4071 1145.79 Q77.2873 1147.82 76.7405 1149.88 Q76.1676 1151.91 76.1676 1153.99 Q76.1676 1158.65 79.1363 1161.23 Q82.079 1163.81 87.4175 1163.81 Q92.756 1163.81 95.7247 1161.23 Q98.6674 1158.65 98.6674 1153.99 Q98.6674 1151.91 98.1206 1149.88 Q97.5477 1147.82 96.4279 1145.79 L100.855 1145.79 Q101.792 1147.8 102.261 1149.96 Q102.73 1152.09 102.73 1154.51 Q102.73 1161.1 98.5893 1164.98 Q94.4487 1168.86 87.4175 1168.86 Q80.2821 1168.86 76.1936 1164.96 Q72.1051 1161.02 72.1051 1154.2 Q72.1051 1151.99 72.5738 1149.88 Q73.0165 1147.77 73.928 1145.79 Z" fill="#000000" fill-rule="nonzero" fill-opacity="1" /><path clip-path="url(#clip350)" d="M64.527 1132.72 L72.8082 1132.72 L72.8082 1122.85 L76.5321 1122.85 L76.5321 1132.72 L92.3654 1132.72 Q95.9331 1132.72 96.9487 1131.75 Q97.9643 1130.76 97.9643 1127.77 L97.9643 1122.85 L101.975 1122.85 L101.975 1127.77 Q101.975 1133.32 99.9174 1135.43 Q97.8341 1137.53 92.3654 1137.53 L76.5321 1137.53 L76.5321 1141.05 L72.8082 1141.05 L72.8082 1137.53 L64.527 1137.53 L64.527 1132.72 Z" fill="#000000" fill-rule="nonzero" fill-opacity="1" /><path clip-path="url(#clip350)" d="M72.8082 1116.55 L72.8082 1111.75 L101.975 1111.75 L101.975 1116.55 L72.8082 1116.55 M61.4541 1116.55 L61.4541 1111.75 L67.5218 1111.75 L67.5218 1116.55 L61.4541 1116.55 Z" fill="#000000" fill-rule="nonzero" fill-opacity="1" /><path clip-path="url(#clip350)" d="M72.8082 1105.17 L72.8082 1100.09 L97.2872 1090.97 L72.8082 1081.86 L72.8082 1076.78 L101.975 1087.72 L101.975 1094.23 L72.8082 1105.17 Z" fill="#000000" fill-rule="nonzero" fill-opacity="1" /><path clip-path="url(#clip350)" d="M86.1935 1045.22 L88.5373 1045.22 L88.5373 1067.25 Q93.4852 1066.94 96.0893 1064.28 Q98.6674 1061.6 98.6674 1056.83 Q98.6674 1054.07 97.9904 1051.49 Q97.3133 1048.89 95.9591 1046.34 L100.49 1046.34 Q101.584 1048.92 102.157 1051.62 Q102.73 1054.33 102.73 1057.12 Q102.73 1064.1 98.6674 1068.19 Q94.605 1072.25 87.6779 1072.25 Q80.5165 1072.25 76.3238 1068.39 Q72.1051 1064.51 72.1051 1057.95 Q72.1051 1052.07 75.9071 1048.65 Q79.6832 1045.22 86.1935 1045.22 M84.7873 1050.01 Q80.855 1050.06 78.5113 1052.22 Q76.1676 1054.36 76.1676 1057.9 Q76.1676 1061.91 78.4332 1064.33 Q80.6988 1066.73 84.8133 1067.09 L84.7873 1050.01 Z" fill="#000000" fill-rule="nonzero" fill-opacity="1" /><path clip-path="url(#clip350)" d="M1888.81 35.5496 Q1882.36 35.5496 1879.87 37.0253 Q1877.38 38.501 1877.38 42.06 Q1877.38 44.8956 1879.23 46.5738 Q1881.11 48.2231 1884.32 48.2231 Q1888.75 48.2231 1891.41 45.0981 Q1894.1 41.9442 1894.1 36.7359 L1894.1 35.5496 L1888.81 35.5496 M1899.43 33.3505 L1899.43 51.84 L1894.1 51.84 L1894.1 46.921 Q1892.28 49.8724 1889.56 51.2902 Q1886.84 52.6791 1882.91 52.6791 Q1877.93 52.6791 1874.98 49.9014 Q1872.06 47.0947 1872.06 42.4072 Q1872.06 36.9385 1875.7 34.1607 Q1879.38 31.3829 1886.64 31.3829 L1894.1 31.3829 L1894.1 30.8621 Q1894.1 27.1874 1891.67 25.1908 Q1889.27 23.1654 1884.9 23.1654 Q1882.13 23.1654 1879.49 23.8309 Q1876.86 24.4964 1874.43 25.8274 L1874.43 20.9085 Q1877.35 19.78 1880.1 19.2302 Q1882.85 18.6515 1885.45 18.6515 Q1892.48 18.6515 1895.96 22.2973 Q1899.43 25.9431 1899.43 33.3505 Z" fill="#000000" fill-rule="nonzero" fill-opacity="1" /><path clip-path="url(#clip350)" d="M1936.09 6.55668 L1936.09 65.8156 L1931.17 65.8156 L1931.17 6.55668 L1936.09 6.55668 Z" fill="#000000" fill-rule="nonzero" fill-opacity="1" /><path clip-path="url(#clip350)" d="M1968.27 8.64 L1974.11 8.64 L1974.11 51.84 L1968.27 51.84 L1968.27 8.64 Z" fill="#000000" fill-rule="nonzero" fill-opacity="1" /><path clip-path="url(#clip350)" d="M2006.84 24.3517 L2006.84 6.81709 L2012.16 6.81709 L2012.16 51.84 L2006.84 51.84 L2006.84 46.9789 Q2005.16 49.8724 2002.58 51.2902 Q2000.04 52.6791 1996.45 52.6791 Q1990.57 52.6791 1986.87 47.9916 Q1983.2 43.3042 1983.2 35.6653 Q1983.2 28.0265 1986.87 23.339 Q1990.57 18.6515 1996.45 18.6515 Q2000.04 18.6515 2002.58 20.0693 Q2005.16 21.4582 2006.84 24.3517 M1988.69 35.6653 Q1988.69 41.5391 1991.09 44.8956 Q1993.53 48.2231 1997.75 48.2231 Q2001.97 48.2231 2004.4 44.8956 Q2006.84 41.5391 2006.84 35.6653 Q2006.84 29.7915 2004.4 26.464 Q2001.97 23.1075 1997.75 23.1075 Q1993.53 23.1075 1991.09 26.464 Q1988.69 29.7915 1988.69 35.6653 Z" fill="#000000" fill-rule="nonzero" fill-opacity="1" /><path clip-path="url(#clip350)" d="M2050.85 34.3054 L2050.85 36.9095 L2026.37 36.9095 Q2026.71 42.4072 2029.67 45.3007 Q2032.65 48.1653 2037.94 48.1653 Q2041.01 48.1653 2043.87 47.4129 Q2046.77 46.6606 2049.6 45.156 L2049.6 50.1907 Q2046.74 51.406 2043.73 52.0425 Q2040.72 52.6791 2037.62 52.6791 Q2029.87 52.6791 2025.32 48.1653 Q2020.81 43.6514 2020.81 35.9547 Q2020.81 27.9975 2025.09 23.339 Q2029.4 18.6515 2036.7 18.6515 Q2043.24 18.6515 2047.03 22.876 Q2050.85 27.0716 2050.85 34.3054 M2045.52 32.7429 Q2045.46 28.3737 2043.06 25.7695 Q2040.69 23.1654 2036.75 23.1654 Q2032.3 23.1654 2029.61 25.6827 Q2026.95 28.2001 2026.54 32.7718 L2045.52 32.7429 Z" fill="#000000" fill-rule="nonzero" fill-opacity="1" /><path clip-path="url(#clip350)" d="M2086.52 32.2799 L2086.52 51.84 L2081.2 51.84 L2081.2 32.4535 Q2081.2 27.8529 2079.4 25.567 Q2077.61 23.2811 2074.02 23.2811 Q2069.71 23.2811 2067.22 26.03 Q2064.73 28.7788 2064.73 33.5241 L2064.73 51.84 L2059.38 51.84 L2059.38 19.4328 L2064.73 19.4328 L2064.73 24.4675 Q2066.64 21.545 2069.22 20.0983 Q2071.82 18.6515 2075.21 18.6515 Q2080.79 18.6515 2083.66 22.1237 Q2086.52 25.567 2086.52 32.2799 Z" fill="#000000" fill-rule="nonzero" fill-opacity="1" /><path clip-path="url(#clip350)" d="M2102.41 10.2314 L2102.41 19.4328 L2113.37 19.4328 L2113.37 23.5705 L2102.41 23.5705 L2102.41 41.163 Q2102.41 45.1271 2103.48 46.2555 Q2104.58 47.384 2107.91 47.384 L2113.37 47.384 L2113.37 51.84 L2107.91 51.84 Q2101.74 51.84 2099.4 49.5541 Q2097.05 47.2393 2097.05 41.163 L2097.05 23.5705 L2093.15 23.5705 L2093.15 19.4328 L2097.05 19.4328 L2097.05 10.2314 L2102.41 10.2314 Z" fill="#000000" fill-rule="nonzero" fill-opacity="1" /><path clip-path="url(#clip350)" d="M2120.38 19.4328 L2125.7 19.4328 L2125.7 51.84 L2120.38 51.84 L2120.38 19.4328 M2120.38 6.81709 L2125.7 6.81709 L2125.7 13.559 L2120.38 13.559 L2120.38 6.81709 Z" fill="#000000" fill-rule="nonzero" fill-opacity="1" /><path clip-path="url(#clip350)" d="M2153.25 6.81709 L2153.25 11.2442 L2148.15 11.2442 Q2145.29 11.2442 2144.16 12.4016 Q2143.06 13.559 2143.06 16.5682 L2143.06 19.4328 L2151.83 19.4328 L2151.83 23.5705 L2143.06 23.5705 L2143.06 51.84 L2137.71 51.84 L2137.71 23.5705 L2132.62 23.5705 L2132.62 19.4328 L2137.71 19.4328 L2137.71 17.1758 Q2137.71 11.765 2140.23 9.30551 Q2142.74 6.81709 2148.21 6.81709 L2153.25 6.81709 Z" fill="#000000" fill-rule="nonzero" fill-opacity="1" /><path clip-path="url(#clip350)" d="M2157.7 19.4328 L2163.03 19.4328 L2163.03 51.84 L2157.7 51.84 L2157.7 19.4328 M2157.7 6.81709 L2163.03 6.81709 L2163.03 13.559 L2157.7 13.559 L2157.7 6.81709 Z" fill="#000000" fill-rule="nonzero" fill-opacity="1" /><path clip-path="url(#clip350)" d="M2188.89 35.5496 Q2182.44 35.5496 2179.95 37.0253 Q2177.47 38.501 2177.47 42.06 Q2177.47 44.8956 2179.32 46.5738 Q2181.2 48.2231 2184.41 48.2231 Q2188.84 48.2231 2191.5 45.0981 Q2194.19 41.9442 2194.19 36.7359 L2194.19 35.5496 L2188.89 35.5496 M2199.51 33.3505 L2199.51 51.84 L2194.19 51.84 L2194.19 46.921 Q2192.37 49.8724 2189.65 51.2902 Q2186.93 52.6791 2182.99 52.6791 Q2178.02 52.6791 2175.06 49.9014 Q2172.14 47.0947 2172.14 42.4072 Q2172.14 36.9385 2175.79 34.1607 Q2179.46 31.3829 2186.72 31.3829 L2194.19 31.3829 L2194.19 30.8621 Q2194.19 27.1874 2191.76 25.1908 Q2189.36 23.1654 2184.99 23.1654 Q2182.21 23.1654 2179.58 23.8309 Q2176.94 24.4964 2174.51 25.8274 L2174.51 20.9085 Q2177.44 19.78 2180.19 19.2302 Q2182.93 18.6515 2185.54 18.6515 Q2192.57 18.6515 2196.04 22.2973 Q2199.51 25.9431 2199.51 33.3505 Z" fill="#000000" fill-rule="nonzero" fill-opacity="1" /><path clip-path="url(#clip350)" d="M2233.74 35.6653 Q2233.74 29.7915 2231.31 26.464 Q2228.91 23.1075 2224.69 23.1075 Q2220.46 23.1075 2218.03 26.464 Q2215.63 29.7915 2215.63 35.6653 Q2215.63 41.5391 2218.03 44.8956 Q2220.46 48.2231 2224.69 48.2231 Q2228.91 48.2231 2231.31 44.8956 Q2233.74 41.5391 2233.74 35.6653 M2215.63 24.3517 Q2217.31 21.4582 2219.86 20.0693 Q2222.43 18.6515 2225.99 18.6515 Q2231.89 18.6515 2235.57 23.339 Q2239.27 28.0265 2239.27 35.6653 Q2239.27 43.3042 2235.57 47.9916 Q2231.89 52.6791 2225.99 52.6791 Q2222.43 52.6791 2219.86 51.2902 Q2217.31 49.8724 2215.63 46.9789 L2215.63 51.84 L2210.28 51.84 L2210.28 6.81709 L2215.63 6.81709 L2215.63 24.3517 Z" fill="#000000" fill-rule="nonzero" fill-opacity="1" /><path clip-path="url(#clip350)" d="M2248.1 6.81709 L2253.42 6.81709 L2253.42 51.84 L2248.1 51.84 L2248.1 6.81709 Z" fill="#000000" fill-rule="nonzero" fill-opacity="1" /><path clip-path="url(#clip350)" d="M2292.28 34.3054 L2292.28 36.9095 L2267.8 36.9095 Q2268.15 42.4072 2271.1 45.3007 Q2274.08 48.1653 2279.37 48.1653 Q2282.44 48.1653 2285.31 47.4129 Q2288.2 46.6606 2291.04 45.156 L2291.04 50.1907 Q2288.17 51.406 2285.16 52.0425 Q2282.15 52.6791 2279.06 52.6791 Q2271.3 52.6791 2266.76 48.1653 Q2262.24 43.6514 2262.24 35.9547 Q2262.24 27.9975 2266.53 23.339 Q2270.84 18.6515 2278.13 18.6515 Q2284.67 18.6515 2288.46 22.876 Q2292.28 27.0716 2292.28 34.3054 M2286.96 32.7429 Q2286.9 28.3737 2284.5 25.7695 Q2282.12 23.1654 2278.19 23.1654 Q2273.73 23.1654 2271.04 25.6827 Q2268.38 28.2001 2267.97 32.7718 L2286.96 32.7429 Z" fill="#000000" fill-rule="nonzero" fill-opacity="1" /><polyline clip-path="url(#clip352)" style="stroke:#595959; stroke-linecap:round; stroke-linejoin:round; stroke-width:6.8; stroke-opacity:0.95; fill:none" points="258.824,285.962 259.782,286.356 389.015,355.483 893.891,627.549 1534.88,1061.38 2175.87,1597.61 2816.86,2172.7 3030.53,2233.75 "/>
<polyline clip-path="url(#clip352)" style="stroke:#595959; stroke-linecap:round; stroke-linejoin:round; stroke-width:6.8; stroke-opacity:0.95; fill:none" points="3030.53,2233.75 3244.19,2152.71 3885.18,343.239 3897.64,285.016 3905.51,249.619 "/>
<polyline clip-path="url(#clip352)" style="stroke:#3cb371; stroke-linecap:round; stroke-linejoin:round; stroke-width:7.2; stroke-opacity:1; fill:none" stroke-dasharray="29, 18" points="-3387.86,285.843 7552.2,285.843 "/>
<polyline clip-path="url(#clip352)" style="stroke:#000000; stroke-linecap:round; stroke-linejoin:round; stroke-width:4.8; stroke-opacity:1; fill:none" stroke-dasharray="2, 5" points="258.824,4317.08 258.824,-1932.92 "/>
<polyline clip-path="url(#clip352)" style="stroke:#000000; stroke-linecap:round; stroke-linejoin:round; stroke-width:4.8; stroke-opacity:1; fill:none" stroke-dasharray="2, 5" points="3897.64,4317.08 3897.64,-1932.92 "/>
<path clip-path="url(#clip352)" d="M3030.53 2215.75 L3012.53 2233.75 L3030.53 2251.75 L3048.53 2233.75 L3030.53 2215.75 Z" fill="#000000" fill-rule="evenodd" fill-opacity="1" stroke="none"/>
</svg>
