<?xml version="1.0" encoding="utf-8"?>
<svg xmlns="http://www.w3.org/2000/svg" xmlns:xlink="http://www.w3.org/1999/xlink" width="1000" height="620" viewBox="0 0 4000 2480">
<defs>
  <clipPath id="clip370">
    <rect x="0" y="0" width="4000" height="2480"/>
  </clipPath>
</defs>
<path clip-path="url(#clip370)" d="M0 2480 L4000 2480 L4000 0 L0 0  Z" fill="#ffffff" fill-rule="evenodd" fill-opacity="1"/>
<defs>
  <clipPath id="clip371">
    <rect x="285" y="150" width="3621" height="2084"/>
  </clipPath>
</defs>
<path clip-path="url(#clip370)" d="M285.606 2233.75 L3905.51 2233.75 L3905.51 150.412 L285.606 150.412  Z" fill="#ffffff" fill-rule="evenodd" fill-opacity="1"/>
<polyline clip-path="url(#clip371)" style="stroke:#000000; stroke-linecap:round; stroke-linejoin:round; stroke-width:2; stroke-opacity:0.15; fill:none" points="1180.21,2233.75 1180.21,150.412 "/>
<polyline clip-path="url(#clip371)" style="stroke:#000000; stroke-linecap:round; stroke-linejoin:round; stroke-width:2; stroke-opacity:0.15; fill:none" points="2518.43,2233.75 2518.43,150.412 "/>
<polyline clip-path="url(#clip371)" style="stroke:#000000; stroke-linecap:round; stroke-linejoin:round; stroke-width:2; stroke-opacity:0.15; fill:none" points="3856.65,2233.75 3856.65,150.412 "/>
<polyline clip-path="url(#clip371)" style="stroke:#000000; stroke-linecap:round; stroke-linejoin:round; stroke-width:2; stroke-opacity:0.15; fill:none" points="285.606,2233.75 3905.51,2233.75 "/>
<polyline clip-path="url(#clip371)" style="stroke:#000000; stroke-linecap:round; stroke-linejoin:round; stroke-width:2; stroke-opacity:0.15; fill:none" points="285.606,1594.68 3905.51,1594.68 "/>
<polyline clip-path="url(#clip371)" style="stroke:#000000; stroke-linecap:round; stroke-linejoin:round; stroke-width:2; stroke-opacity:0.15; fill:none" points="285.606,955.616 3905.51,955.616 "/>
<polyline clip-path="url(#clip371)" style="stroke:#000000; stroke-linecap:round; stroke-linejoin:round; stroke-width:2; stroke-opacity:0.15; fill:none" points="285.606,316.551 3905.51,316.551 "/>
<polyline clip-path="url(#clip370)" style="stroke:#000000; stroke-linecap:round; stroke-linejoin:round; stroke-width:4; stroke-opacity:1; fill:none" points="285.606,2233.75 3905.51,2233.75 "/>
<polyline clip-path="url(#clip370)" style="stroke:#000000; stroke-linecap:round; stroke-linejoin:round; stroke-width:4; stroke-opacity:1; fill:none" points="1180.21,2233.75 1180.21,2214.85 "/>
<polyline clip-path="url(#clip370)" style="stroke:#000000; stroke-linecap:round; stroke-linejoin:round; stroke-width:4; stroke-opacity:1; fill:none" points="2518.43,2233.75 2518.43,2214.85 "/>
<polyline clip-path="url(#clip370)" style="stroke:#000000; stroke-linecap:round; stroke-linejoin:round; stroke-width:4; stroke-opacity:1; fill:none" points="3856.65,2233.75 3856.65,2214.85 "/>
<path clip-path="url(#clip370)" d="M1111.82 2320.67 L1119.46 2320.67 L1119.46 2294.3 L1111.15 2295.97 L1111.15 2291.71 L1119.42 2290.05 L1124.09 2290.05 L1124.09 2320.67 L1131.73 2320.67 L1131.73 2324.61 L1111.82 2324.61 L1111.82 2320.67 Z" fill="#000000" fill-rule="nonzero" fill-opacity="1" /><path clip-path="url(#clip370)" d="M1151.17 2293.12 Q1147.56 2293.12 1145.73 2296.69 Q1143.93 2300.23 1143.93 2307.36 Q1143.93 2314.47 1145.73 2318.03 Q1147.56 2321.57 1151.17 2321.57 Q1154.81 2321.57 1156.61 2318.03 Q1158.44 2314.47 1158.44 2307.36 Q1158.44 2300.23 1156.61 2296.69 Q1154.81 2293.12 1151.17 2293.12 M1151.17 2289.42 Q1156.98 2289.42 1160.04 2294.03 Q1163.12 2298.61 1163.12 2307.36 Q1163.12 2316.09 1160.04 2320.69 Q1156.98 2325.28 1151.17 2325.28 Q1145.36 2325.28 1142.29 2320.69 Q1139.23 2316.09 1139.23 2307.36 Q1139.23 2298.61 1142.29 2294.03 Q1145.36 2289.42 1151.17 2289.42 Z" fill="#000000" fill-rule="nonzero" fill-opacity="1" /><path clip-path="url(#clip370)" d="M1163.12 2283.52 L1187.23 2283.52 L1187.23 2286.72 L1163.12 2286.72 L1163.12 2283.52 Z" fill="#000000" fill-rule="nonzero" fill-opacity="1" /><path clip-path="url(#clip370)" d="M1203.56 2271.62 Q1200.62 2271.62 1199.14 2274.51 Q1197.67 2277.39 1197.67 2283.18 Q1197.67 2288.96 1199.14 2291.85 Q1200.62 2294.73 1203.56 2294.73 Q1206.51 2294.73 1207.98 2291.85 Q1209.46 2288.96 1209.46 2283.18 Q1209.46 2277.39 1207.98 2274.51 Q1206.51 2271.62 1203.56 2271.62 M1203.56 2268.61 Q1208.28 2268.61 1210.76 2272.35 Q1213.26 2276.07 1213.26 2283.18 Q1213.26 2290.27 1210.76 2294.02 Q1208.28 2297.74 1203.56 2297.74 Q1198.84 2297.74 1196.33 2294.02 Q1193.85 2290.27 1193.85 2283.18 Q1193.85 2276.07 1196.33 2272.35 Q1198.84 2268.61 1203.56 2268.61 Z" fill="#000000" fill-rule="nonzero" fill-opacity="1" /><path clip-path="url(#clip370)" d="M1219.94 2292.42 L1223.91 2292.42 L1223.91 2297.19 L1219.94 2297.19 L1219.94 2292.42 Z" fill="#000000" fill-rule="nonzero" fill-opacity="1" /><path clip-path="url(#clip370)" d="M1231.22 2269.11 L1249.28 2269.11 L1249.28 2270.73 L1239.08 2297.19 L1235.12 2297.19 L1244.71 2272.31 L1231.22 2272.31 L1231.22 2269.11 Z" fill="#000000" fill-rule="nonzero" fill-opacity="1" /><path clip-path="url(#clip370)" d="M2449.61 2320.67 L2457.25 2320.67 L2457.25 2294.3 L2448.94 2295.97 L2448.94 2291.71 L2457.2 2290.05 L2461.88 2290.05 L2461.88 2320.67 L2469.52 2320.67 L2469.52 2324.61 L2449.61 2324.61 L2449.61 2320.67 Z" fill="#000000" fill-rule="nonzero" fill-opacity="1" /><path clip-path="url(#clip370)" d="M2488.96 2293.12 Q2485.35 2293.12 2483.52 2296.69 Q2481.72 2300.23 2481.72 2307.36 Q2481.72 2314.47 2483.52 2318.03 Q2485.35 2321.57 2488.96 2321.57 Q2492.6 2321.57 2494.4 2318.03 Q2496.23 2314.47 2496.23 2307.36 Q2496.23 2300.23 2494.4 2296.69 Q2492.6 2293.12 2488.96 2293.12 M2488.96 2289.42 Q2494.77 2289.42 2497.83 2294.03 Q2500.91 2298.61 2500.91 2307.36 Q2500.91 2316.09 2497.83 2320.69 Q2494.77 2325.28 2488.96 2325.28 Q2483.15 2325.28 2480.07 2320.69 Q2477.02 2316.09 2477.02 2307.36 Q2477.02 2298.61 2480.07 2294.03 Q2483.15 2289.42 2488.96 2289.42 Z" fill="#000000" fill-rule="nonzero" fill-opacity="1" /><path clip-path="url(#clip370)" d="M2500.91 2283.52 L2525.02 2283.52 L2525.02 2286.72 L2500.91 2286.72 L2500.91 2283.52 Z" fill="#000000" fill-rule="nonzero" fill-opacity="1" /><path clip-path="url(#clip370)" d="M2541.34 2271.62 Q2538.41 2271.62 2536.92 2274.51 Q2535.46 2277.39 2535.46 2283.18 Q2535.46 2288.96 2536.92 2291.85 Q2538.41 2294.73 2541.34 2294.73 Q2544.29 2294.73 2545.76 2291.85 Q2547.25 2288.96 2547.25 2283.18 Q2547.25 2277.39 2545.76 2274.51 Q2544.29 2271.62 2541.34 2271.62 M2541.34 2268.61 Q2546.06 2268.61 2548.55 2272.35 Q2551.05 2276.07 2551.05 2283.18 Q2551.05 2290.27 2548.55 2294.02 Q2546.06 2297.74 2541.34 2297.74 Q2536.62 2297.74 2534.12 2294.02 Q2531.64 2290.27 2531.64 2283.18 Q2531.64 2276.07 2534.12 2272.35 Q2536.62 2268.61 2541.34 2268.61 Z" fill="#000000" fill-rule="nonzero" fill-opacity="1" /><path clip-path="url(#clip370)" d="M2557.72 2292.42 L2561.69 2292.42 L2561.69 2297.19 L2557.72 2297.19 L2557.72 2292.42 Z" fill="#000000" fill-rule="nonzero" fill-opacity="1" /><path clip-path="url(#clip370)" d="M2578.56 2281.64 Q2576 2281.64 2574.5 2283.39 Q2573.01 2285.14 2573.01 2288.19 Q2573.01 2291.21 2574.5 2292.98 Q2576 2294.73 2578.56 2294.73 Q2581.12 2294.73 2582.61 2292.98 Q2584.11 2291.21 2584.11 2288.19 Q2584.11 2285.14 2582.61 2283.39 Q2581.12 2281.64 2578.56 2281.64 M2586.1 2269.74 L2586.1 2273.2 Q2584.67 2272.52 2583.21 2272.16 Q2581.76 2271.8 2580.33 2271.8 Q2576.57 2271.8 2574.58 2274.34 Q2572.6 2276.88 2572.32 2282.02 Q2573.43 2280.38 2575.1 2279.52 Q2576.78 2278.63 2578.79 2278.63 Q2583.02 2278.63 2585.46 2281.21 Q2587.93 2283.77 2587.93 2288.19 Q2587.93 2292.51 2585.37 2295.13 Q2582.81 2297.74 2578.56 2297.74 Q2573.69 2297.74 2571.11 2294.02 Q2568.54 2290.27 2568.54 2283.18 Q2568.54 2276.53 2571.7 2272.58 Q2574.86 2268.61 2580.18 2268.61 Q2581.61 2268.61 2583.06 2268.89 Q2584.52 2269.17 2586.1 2269.74 Z" fill="#000000" fill-rule="nonzero" fill-opacity="1" /><path clip-path="url(#clip370)" d="M3788.3 2320.67 L3795.94 2320.67 L3795.94 2294.3 L3787.63 2295.97 L3787.63 2291.71 L3795.89 2290.05 L3800.57 2290.05 L3800.57 2320.67 L3808.21 2320.67 L3808.21 2324.61 L3788.3 2324.61 L3788.3 2320.67 Z" fill="#000000" fill-rule="nonzero" fill-opacity="1" /><path clip-path="url(#clip370)" d="M3827.65 2293.12 Q3824.04 2293.12 3822.21 2296.69 Q3820.4 2300.23 3820.4 2307.36 Q3820.4 2314.47 3822.21 2318.03 Q3824.04 2321.57 3827.65 2321.57 Q3831.28 2321.57 3833.09 2318.03 Q3834.92 2314.47 3834.92 2307.36 Q3834.92 2300.23 3833.09 2296.69 Q3831.28 2293.12 3827.65 2293.12 M3827.65 2289.42 Q3833.46 2289.42 3836.52 2294.03 Q3839.59 2298.61 3839.59 2307.36 Q3839.59 2316.09 3836.52 2320.69 Q3833.46 2325.28 3827.65 2325.28 Q3821.84 2325.28 3818.76 2320.69 Q3815.71 2316.09 3815.71 2307.36 Q3815.71 2298.61 3818.76 2294.03 Q3821.84 2289.42 3827.65 2289.42 Z" fill="#000000" fill-rule="nonzero" fill-opacity="1" /><path clip-path="url(#clip370)" d="M3839.59 2283.52 L3863.71 2283.52 L3863.71 2286.72 L3839.59 2286.72 L3839.59 2283.52 Z" fill="#000000" fill-rule="nonzero" fill-opacity="1" /><path clip-path="url(#clip370)" d="M3880.03 2271.62 Q3877.1 2271.62 3875.61 2274.51 Q3874.14 2277.39 3874.14 2283.18 Q3874.14 2288.96 3875.61 2291.85 Q3877.1 2294.73 3880.03 2294.73 Q3882.98 2294.73 3884.45 2291.85 Q3885.94 2288.96 3885.94 2283.18 Q3885.94 2277.39 3884.45 2274.51 Q3882.98 2271.62 3880.03 2271.62 M3880.03 2268.61 Q3884.75 2268.61 3887.23 2272.35 Q3889.74 2276.07 3889.74 2283.18 Q3889.74 2290.27 3887.23 2294.02 Q3884.75 2297.74 3880.03 2297.74 Q3875.31 2297.74 3872.81 2294.02 Q3870.33 2290.27 3870.33 2283.18 Q3870.33 2276.07 3872.81 2272.35 Q3875.31 2268.61 3880.03 2268.61 Z" fill="#000000" fill-rule="nonzero" fill-opacity="1" /><path clip-path="url(#clip370)" d="M3896.41 2292.42 L3900.38 2292.42 L3900.38 2297.19 L3896.41 2297.19 L3896.41 2292.42 Z" fill="#000000" fill-rule="nonzero" fill-opacity="1" /><path clip-path="url(#clip370)" d="M3908.69 2269.11 L3923.61 2269.11 L3923.61 2272.31 L3912.17 2272.31 L3912.17 2279.2 Q3913 2278.91 3913.83 2278.78 Q3914.66 2278.63 3915.48 2278.63 Q3920.19 2278.63 3922.93 2281.21 Q3925.68 2283.78 3925.68 2288.19 Q3925.68 2292.72 3922.86 2295.24 Q3920.03 2297.74 3914.9 2297.74 Q3913.13 2297.74 3911.29 2297.44 Q3909.46 2297.14 3907.51 2296.54 L3907.51 2292.72 Q3909.2 2293.64 3911.01 2294.09 Q3912.81 2294.54 3914.83 2294.54 Q3918.08 2294.54 3919.98 2292.83 Q3921.88 2291.12 3921.88 2288.19 Q3921.88 2285.25 3919.98 2283.54 Q3918.08 2281.83 3914.83 2281.83 Q3913.3 2281.83 3911.78 2282.17 Q3910.27 2282.51 3908.69 2283.22 L3908.69 2269.11 Z" fill="#000000" fill-rule="nonzero" fill-opacity="1" /><path clip-path="url(#clip370)" d="M2014.96 2396.11 Q2014.96 2390.82 2012.77 2387.83 Q2010.61 2384.81 2006.81 2384.81 Q2003.01 2384.81 2000.82 2387.83 Q1998.66 2390.82 1998.66 2396.11 Q1998.66 2401.4 2000.82 2404.42 Q2003.01 2407.41 2006.81 2407.41 Q2010.61 2407.41 2012.77 2404.42 Q2014.96 2401.4 2014.96 2396.11 M1998.66 2385.93 Q2000.17 2383.32 2002.46 2382.07 Q2004.78 2380.8 2007.98 2380.8 Q2013.29 2380.8 2016.6 2385.02 Q2019.93 2389.23 2019.93 2396.11 Q2019.93 2402.98 2016.6 2407.2 Q2013.29 2411.42 2007.98 2411.42 Q2004.78 2411.42 2002.46 2410.17 Q2000.17 2408.9 1998.66 2406.29 L1998.66 2410.67 L1993.84 2410.67 L1993.84 2370.15 L1998.66 2370.15 L1998.66 2385.93 Z" fill="#000000" fill-rule="nonzero" fill-opacity="1" /><path clip-path="url(#clip370)" d="M2052.82 2394.88 L2052.82 2397.23 L2030.79 2397.23 Q2031.11 2402.18 2033.76 2404.78 Q2036.44 2407.36 2041.21 2407.36 Q2043.97 2407.36 2046.55 2406.68 Q2049.15 2406 2051.7 2404.65 L2051.7 2409.18 Q2049.13 2410.28 2046.42 2410.85 Q2043.71 2411.42 2040.92 2411.42 Q2033.94 2411.42 2029.86 2407.36 Q2025.79 2403.3 2025.79 2396.37 Q2025.79 2389.21 2029.65 2385.02 Q2033.53 2380.8 2040.09 2380.8 Q2045.98 2380.8 2049.39 2384.6 Q2052.82 2388.37 2052.82 2394.88 M2048.03 2393.48 Q2047.98 2389.55 2045.82 2387.2 Q2043.68 2384.86 2040.14 2384.86 Q2036.13 2384.86 2033.71 2387.12 Q2031.31 2389.39 2030.95 2393.5 L2048.03 2393.48 Z" fill="#000000" fill-rule="nonzero" fill-opacity="1" /><path clip-path="url(#clip370)" d="M2065.43 2373.22 L2065.43 2381.5 L2075.3 2381.5 L2075.3 2385.22 L2065.43 2385.22 L2065.43 2401.06 Q2065.43 2404.62 2066.39 2405.64 Q2067.38 2406.66 2070.38 2406.66 L2075.3 2406.66 L2075.3 2410.67 L2070.38 2410.67 Q2064.83 2410.67 2062.72 2408.61 Q2060.61 2406.53 2060.61 2401.06 L2060.61 2385.22 L2057.1 2385.22 L2057.1 2381.5 L2060.61 2381.5 L2060.61 2373.22 L2065.43 2373.22 Z" fill="#000000" fill-rule="nonzero" fill-opacity="1" /><path clip-path="url(#clip370)" d="M2094.86 2396 Q2089.05 2396 2086.81 2397.33 Q2084.57 2398.66 2084.57 2401.86 Q2084.57 2404.42 2086.24 2405.93 Q2087.93 2407.41 2090.82 2407.41 Q2094.8 2407.41 2097.2 2404.6 Q2099.62 2401.76 2099.62 2397.07 L2099.62 2396 L2094.86 2396 M2104.41 2394.03 L2104.41 2410.67 L2099.62 2410.67 L2099.62 2406.24 Q2097.98 2408.9 2095.53 2410.17 Q2093.08 2411.42 2089.54 2411.42 Q2085.06 2411.42 2082.41 2408.92 Q2079.78 2406.4 2079.78 2402.18 Q2079.78 2397.25 2083.06 2394.75 Q2086.37 2392.25 2092.9 2392.25 L2099.62 2392.25 L2099.62 2391.79 Q2099.62 2388.48 2097.43 2386.68 Q2095.27 2384.86 2091.34 2384.86 Q2088.84 2384.86 2086.47 2385.46 Q2084.1 2386.06 2081.91 2387.25 L2081.91 2382.83 Q2084.54 2381.81 2087.02 2381.32 Q2089.49 2380.8 2091.83 2380.8 Q2098.16 2380.8 2101.29 2384.08 Q2104.41 2387.36 2104.41 2394.03 Z" fill="#000000" fill-rule="nonzero" fill-opacity="1" /><path clip-path="url(#clip370)" d="M2142.75 2370.2 Q2139.26 2376.19 2137.56 2382.05 Q2135.87 2387.91 2135.87 2393.92 Q2135.87 2399.94 2137.56 2405.85 Q2139.28 2411.73 2142.75 2417.7 L2138.58 2417.7 Q2134.67 2411.58 2132.72 2405.67 Q2130.79 2399.75 2130.79 2393.92 Q2130.79 2388.11 2132.72 2382.23 Q2134.65 2376.34 2138.58 2370.2 L2142.75 2370.2 Z" fill="#000000" fill-rule="nonzero" fill-opacity="1" /><path clip-path="url(#clip370)" d="M2156.83 2408.87 L2156.83 2421.76 L2152.02 2421.76 L2152.02 2381.68 Q2152.02 2369.81 2163.11 2369.81 Q2174.41 2369.81 2174.41 2379.83 Q2174.41 2386.97 2169.93 2389.57 Q2177.23 2391.92 2177.23 2398.87 Q2177.23 2411.21 2164.67 2411.21 Q2159.15 2411.21 2156.83 2408.87 M2156.83 2402.62 Q2159.73 2407.12 2164.86 2407.12 Q2172.36 2407.12 2172.36 2398.95 Q2172.36 2391.6 2160.27 2392.18 L2160.27 2387.75 Q2169.73 2387.75 2169.73 2379.42 Q2169.73 2373.71 2163.63 2373.71 Q2156.83 2373.71 2156.83 2381.84 L2156.83 2402.62 Z" fill="#000000" fill-rule="nonzero" fill-opacity="1" /><path clip-path="url(#clip370)" d="M2185.32 2370.2 L2189.49 2370.2 Q2193.4 2376.34 2195.32 2382.23 Q2197.28 2388.11 2197.28 2393.92 Q2197.28 2399.75 2195.32 2405.67 Q2193.4 2411.58 2189.49 2417.7 L2185.32 2417.7 Q2188.79 2411.73 2190.48 2405.85 Q2192.2 2399.94 2192.2 2393.92 Q2192.2 2387.91 2190.48 2382.05 Q2188.79 2376.19 2185.32 2370.2 Z" fill="#000000" fill-rule="nonzero" fill-opacity="1" /><polyline clip-path="url(#clip370)" style="stroke:#000000; stroke-linecap:round; stroke-linejoin:round; stroke-width:4; stroke-opacity:1; fill:none" points="285.606,2233.75 285.606,150.412 "/>
<polyline clip-path="url(#clip370)" style="stroke:#000000; stroke-linecap:round; stroke-linejoin:round; stroke-width:4; stroke-opacity:1; fill:none" points="285.606,2233.75 304.504,2233.75 "/>
<polyline clip-path="url(#clip370)" style="stroke:#000000; stroke-linecap:round; stroke-linejoin:round; stroke-width:4; stroke-opacity:1; fill:none" points="285.606,1594.68 304.504,1594.68 "/>
<polyline clip-path="url(#clip370)" style="stroke:#000000; stroke-linecap:round; stroke-linejoin:round; stroke-width:4; stroke-opacity:1; fill:none" points="285.606,955.616 304.504,955.616 "/>
<polyline clip-path="url(#clip370)" style="stroke:#000000; stroke-linecap:round; stroke-linejoin:round; stroke-width:4; stroke-opacity:1; fill:none" points="285.606,316.551 304.504,316.551 "/>
<path clip-path="url(#clip370)" d="M213.662 2219.54 Q210.051 2219.54 208.222 2223.11 Q206.416 2226.65 206.416 2233.78 Q206.416 2240.89 208.222 2244.45 Q210.051 2247.99 213.662 2247.99 Q217.296 2247.99 219.101 2244.45 Q220.93 2240.89 220.93 2233.78 Q220.93 2226.65 219.101 2223.11 Q217.296 2219.54 213.662 2219.54 M213.662 2215.84 Q219.472 2215.84 222.527 2220.45 Q225.606 2225.03 225.606 2233.78 Q225.606 2242.51 222.527 2247.11 Q219.472 2251.7 213.662 2251.7 Q207.851 2251.7 204.773 2247.11 Q201.717 2242.51 201.717 2233.78 Q201.717 2225.03 204.773 2220.45 Q207.851 2215.84 213.662 2215.84 Z" fill="#000000" fill-rule="nonzero" fill-opacity="1" /><path clip-path="url(#clip370)" d="M204.703 1577.4 L223.06 1577.4 L223.06 1581.34 L208.986 1581.34 L208.986 1589.81 Q210.004 1589.46 211.023 1589.3 Q212.041 1589.11 213.06 1589.11 Q218.847 1589.11 222.226 1592.28 Q225.606 1595.46 225.606 1600.87 Q225.606 1606.45 222.134 1609.55 Q218.662 1612.63 212.342 1612.63 Q210.166 1612.63 207.898 1612.26 Q205.652 1611.89 203.245 1611.15 L203.245 1606.45 Q205.328 1607.59 207.551 1608.14 Q209.773 1608.7 212.25 1608.7 Q216.254 1608.7 218.592 1606.59 Q220.93 1604.48 220.93 1600.87 Q220.93 1597.26 218.592 1595.16 Q216.254 1593.05 212.25 1593.05 Q210.375 1593.05 208.5 1593.47 Q206.648 1593.88 204.703 1594.76 L204.703 1577.4 Z" fill="#000000" fill-rule="nonzero" fill-opacity="1" /><path clip-path="url(#clip370)" d="M174.31 968.961 L181.949 968.961 L181.949 942.595 L173.639 944.262 L173.639 940.003 L181.903 938.336 L186.578 938.336 L186.578 968.961 L194.217 968.961 L194.217 972.896 L174.31 972.896 L174.31 968.961 Z" fill="#000000" fill-rule="nonzero" fill-opacity="1" /><path clip-path="url(#clip370)" d="M213.662 941.415 Q210.051 941.415 208.222 944.979 Q206.416 948.521 206.416 955.651 Q206.416 962.757 208.222 966.322 Q210.051 969.864 213.662 969.864 Q217.296 969.864 219.101 966.322 Q220.93 962.757 220.93 955.651 Q220.93 948.521 219.101 944.979 Q217.296 941.415 213.662 941.415 M213.662 937.711 Q219.472 937.711 222.527 942.317 Q225.606 946.901 225.606 955.651 Q225.606 964.377 222.527 968.984 Q219.472 973.567 213.662 973.567 Q207.851 973.567 204.773 968.984 Q201.717 964.377 201.717 955.651 Q201.717 946.901 204.773 942.317 Q207.851 937.711 213.662 937.711 Z" fill="#000000" fill-rule="nonzero" fill-opacity="1" /><path clip-path="url(#clip370)" d="M175.305 329.896 L182.944 329.896 L182.944 303.531 L174.634 305.197 L174.634 300.938 L182.898 299.271 L187.574 299.271 L187.574 329.896 L195.213 329.896 L195.213 333.831 L175.305 333.831 L175.305 329.896 Z" fill="#000000" fill-rule="nonzero" fill-opacity="1" /><path clip-path="url(#clip370)" d="M204.703 299.271 L223.06 299.271 L223.06 303.206 L208.986 303.206 L208.986 311.679 Q210.004 311.331 211.023 311.169 Q212.041 310.984 213.06 310.984 Q218.847 310.984 222.226 314.155 Q225.606 317.327 225.606 322.743 Q225.606 328.322 222.134 331.424 Q218.662 334.503 212.342 334.503 Q210.166 334.503 207.898 334.132 Q205.652 333.762 203.245 333.021 L203.245 328.322 Q205.328 329.456 207.551 330.012 Q209.773 330.567 212.25 330.567 Q216.254 330.567 218.592 328.461 Q220.93 326.354 220.93 322.743 Q220.93 319.132 218.592 317.026 Q216.254 314.919 212.25 314.919 Q210.375 314.919 208.5 315.336 Q206.648 315.753 204.703 316.632 L204.703 299.271 Z" fill="#000000" fill-rule="nonzero" fill-opacity="1" /><path clip-path="url(#clip370)" d="M68.277 1321.13 L97.5997 1331.8 L97.5997 1310.42 L68.277 1321.13 M101.975 1338.94 L63.0947 1324.1 L63.0947 1318.13 L101.975 1303.32 L101.975 1338.94 Z" fill="#000000" fill-rule="nonzero" fill-opacity="1" /><path clip-path="url(#clip370)" d="M76.1676 1269.59 Q76.1676 1273.45 79.1884 1275.69 Q82.1832 1277.92 87.4175 1277.92 Q92.6518 1277.92 95.6727 1275.71 Q98.6674 1273.47 98.6674 1269.59 Q98.6674 1265.76 95.6466 1263.52 Q92.6258 1261.28 87.4175 1261.28 Q82.2352 1261.28 79.2144 1263.52 Q76.1676 1265.76 76.1676 1269.59 M72.1051 1269.59 Q72.1051 1263.34 76.1676 1259.77 Q80.23 1256.21 87.4175 1256.21 Q94.5789 1256.21 98.6674 1259.77 Q102.73 1263.34 102.73 1269.59 Q102.73 1275.87 98.6674 1279.43 Q94.5789 1282.98 87.4175 1282.98 Q80.23 1282.98 76.1676 1279.43 Q72.1051 1275.87 72.1051 1269.59 Z" fill="#000000" fill-rule="nonzero" fill-opacity="1" /><path clip-path="url(#clip370)" d="M87.4175 1227.33 Q82.1311 1227.33 79.1363 1229.51 Q76.1155 1231.67 76.1155 1235.48 Q76.1155 1239.28 79.1363 1241.47 Q82.1311 1243.63 87.4175 1243.63 Q92.7039 1243.63 95.7247 1241.47 Q98.7195 1239.28 98.7195 1235.48 Q98.7195 1231.67 95.7247 1229.51 Q92.7039 1227.33 87.4175 1227.33 M77.2353 1243.63 Q74.6311 1242.12 73.3811 1239.83 Q72.1051 1237.51 72.1051 1234.31 Q72.1051 1228.99 76.3238 1225.69 Q80.5425 1222.35 87.4175 1222.35 Q94.2925 1222.35 98.5112 1225.69 Q102.73 1228.99 102.73 1234.31 Q102.73 1237.51 101.48 1239.83 Q100.204 1242.12 97.5997 1243.63 L101.975 1243.63 L101.975 1248.45 L61.4541 1248.45 L61.4541 1243.63 L77.2353 1243.63 Z" fill="#000000" fill-rule="nonzero" fill-opacity="1" /><path clip-path="url(#clip370)" d="M72.8082 1214.41 L72.8082 1209.62 L102.496 1209.62 Q108.068 1209.62 110.568 1211.75 Q113.068 1213.86 113.068 1218.58 L113.068 1220.4 L109.006 1220.4 L109.006 1219.12 Q109.006 1216.39 107.73 1215.4 Q106.48 1214.41 102.496 1214.41 L72.8082 1214.41 M61.4541 1214.41 L61.4541 1209.62 L67.5218 1209.62 L67.5218 1214.41 L61.4541 1214.41 Z" fill="#000000" fill-rule="nonzero" fill-opacity="1" /><path clip-path="url(#clip370)" d="M86.1935 1174.64 L88.5373 1174.64 L88.5373 1196.68 Q93.4852 1196.36 96.0893 1193.71 Q98.6674 1191.02 98.6674 1186.26 Q98.6674 1183.5 97.9904 1180.92 Q97.3133 1178.32 95.9591 1175.76 L100.49 1175.76 Q101.584 1178.34 102.157 1181.05 Q102.73 1183.76 102.73 1186.54 Q102.73 1193.52 98.6674 1197.61 Q94.605 1201.67 87.6779 1201.67 Q80.5165 1201.67 76.3238 1197.82 Q72.1051 1193.94 72.1051 1187.38 Q72.1051 1181.49 75.9071 1178.08 Q79.6832 1174.64 86.1935 1174.64 M84.7873 1179.44 Q80.855 1179.49 78.5113 1181.65 Q76.1676 1183.78 76.1676 1187.33 Q76.1676 1191.34 78.4332 1193.76 Q80.6988 1196.15 84.8133 1196.52 L84.7873 1179.44 Z" fill="#000000" fill-rule="nonzero" fill-opacity="1" /><path clip-path="url(#clip370)" d="M73.928 1145.79 L78.4071 1145.79 Q77.2873 1147.82 76.7405 1149.88 Q76.1676 1151.91 76.1676 1153.99 Q76.1676 1158.65 79.1363 1161.23 Q82.079 1163.81 87.4175 1163.81 Q92.756 1163.81 95.7247 1161.23 Q98.6674 1158.65 98.6674 1153.99 Q98.6674 1151.91 98.1206 1149.88 Q97.5477 1147.82 96.4279 1145.79 L100.855 1145.79 Q101.792 1147.8 102.261 1149.96 Q102.73 1152.09 102.73 1154.51 Q102.73 1161.1 98.5893 1164.98 Q94.4487 1168.86 87.4175 1168.86 Q80.2821 1168.86 76.1936 1164.96 Q72.1051 1161.02 72.1051 1154.2 Q72.1051 1151.99 72.5738 1149.88 Q73.0165 1147.77 73.928 1145.79 Z" fill="#000000" fill-rule="nonzero" fill-opacity="1" /><path clip-path="url(#clip370)" d="M64.527 1132.72 L72.8082 1132.72 L72.8082 1122.85 L76.5321 1122.85 L76.5321 1132.72 L92.3654 1132.72 Q95.9331 1132.72 96.9487 1131.75 Q97.9643 1130.76 97.9643 1127.77 L97.9643 1122.85 L101.975 1122.85 L101.975 1127.77 Q101.975 1133.32 99.9174 1135.43 Q97.8341 1137.53 92.3654 1137.53 L76.5321 1137.53 L76.5321 1141.05 L72.8082 1141.05 L72.8082 1137.53 L64.527 1137.53 L64.527 1132.72 Z" fill="#000000" fill-rule="nonzero" fill-opacity="1" /><path clip-path="url(#clip370)" d="M72.8082 1116.55 L72.8082 1111.75 L101.975 1111.75 L101.975 1116.55 L72.8082 1116.55 M61.4541 1116.55 L61.4541 1111.75 L67.5218 1111.75 L67.5218 1116.55 L61.4541 1116.55 Z" fill="#000000" fill-rule="nonzero" fill-opacity="1" /><path clip-path="url(#clip370)" d="M72.8082 1105.17 L72.8082 1100.09 L97.2872 1090.97 L72.8082 1081.86 L72.8082 1076.78 L101.975 1087.72 L101.975 1094.23 L72.8082 1105.17 Z" fill="#000000" fill-rule="nonzero" fill-opacity="1" /><path clip-path="url(#clip370)" d="M86.1935 1045.22 L88.5373 1045.22 L88.5373 1067.25 Q93.4852 1066.94 96.0893 1064.28 Q98.6674 1061.6 98.6674 1056.83 Q98.6674 1054.07 97.9904 1051.49 Q97.3133 1048.89 95.9591 1046.34 L100.49 1046.34 Q101.584 1048.92 102.157 1051.62 Q102.73 1054.33 102.73 1057.12 Q102.73 1064.1 98.6674 1068.19 Q94.605 1072.25 87.6779 1072.25 Q80.5165 1072.25 76.3238 1068.39 Q72.1051 1064.51 72.1051 1057.95 Q72.1051 1052.07 75.9071 1048.65 Q79.6832 1045.22 86.1935 1045.22 M84.7873 1050.01 Q80.855 1050.06 78.5113 1052.22 Q76.1676 1054.36 76.1676 1057.9 Q76.1676 1061.91 78.4332 1064.33 Q80.6988 1066.73 84.8133 1067.09 L84.7873 1050.01 Z" fill="#000000" fill-rule="nonzero" fill-opacity="1" /><path clip-path="url(#clip370)" d="M1809.72 35.6653 Q1809.72 29.7915 1807.29 26.464 Q1804.89 23.1075 1800.67 23.1075 Q1796.44 23.1075 1794.01 26.464 Q1791.61 29.7915 1791.61 35.6653 Q1791.61 41.5391 1794.01 44.8956 Q1796.44 48.2231 1800.67 48.2231 Q1804.89 48.2231 1807.29 44.8956 Q1809.72 41.5391 1809.72 35.6653 M1791.61 24.3517 Q1793.29 21.4582 1795.84 20.0693 Q1798.41 18.6515 1801.97 18.6515 Q1807.87 18.6515 1811.55 23.339 Q1815.25 28.0265 1815.25 35.6653 Q1815.25 43.3042 1811.55 47.9916 Q1807.87 52.6791 1801.97 52.6791 Q1798.41 52.6791 1795.84 51.2902 Q1793.29 49.8724 1791.61 46.9789 L1791.61 51.84 L1786.26 51.84 L1786.26 6.81709 L1791.61 6.81709 L1791.61 24.3517 Z" fill="#000000" fill-rule="nonzero" fill-opacity="1" /><path clip-path="url(#clip370)" d="M1851.8 34.3054 L1851.8 36.9095 L1827.32 36.9095 Q1827.66 42.4072 1830.62 45.3007 Q1833.6 48.1653 1838.89 48.1653 Q1841.96 48.1653 1844.82 47.4129 Q1847.72 46.6606 1850.55 45.156 L1850.55 50.1907 Q1847.69 51.406 1844.68 52.0425 Q1841.67 52.6791 1838.57 52.6791 Q1830.82 52.6791 1826.28 48.1653 Q1821.76 43.6514 1821.76 35.9547 Q1821.76 27.9975 1826.04 23.339 Q1830.35 18.6515 1837.65 18.6515 Q1844.19 18.6515 1847.98 22.876 Q1851.8 27.0716 1851.8 34.3054 M1846.47 32.7429 Q1846.41 28.3737 1844.01 25.7695 Q1841.64 23.1654 1837.7 23.1654 Q1833.25 23.1654 1830.56 25.6827 Q1827.9 28.2001 1827.49 32.7718 L1846.47 32.7429 Z" fill="#000000" fill-rule="nonzero" fill-opacity="1" /><path clip-path="url(#clip370)" d="M1865.8 10.2314 L1865.8 19.4328 L1876.77 19.4328 L1876.77 23.5705 L1865.8 23.5705 L1865.8 41.163 Q1865.8 45.1271 1866.87 46.2555 Q1867.97 47.384 1871.3 47.384 L1876.77 47.384 L1876.77 51.84 L1871.3 51.84 Q1865.13 51.84 1862.79 49.5541 Q1860.45 47.2393 1860.45 41.163 L1860.45 23.5705 L1856.54 23.5705 L1856.54 19.4328 L1860.45 19.4328 L1860.45 10.2314 L1865.8 10.2314 Z" fill="#000000" fill-rule="nonzero" fill-opacity="1" /><path clip-path="url(#clip370)" d="M1898.5 35.5496 Q1892.04 35.5496 1889.56 37.0253 Q1887.07 38.501 1887.07 42.06 Q1887.07 44.8956 1888.92 46.5738 Q1890.8 48.2231 1894.01 48.2231 Q1898.44 48.2231 1901.1 45.0981 Q1903.79 41.9442 1903.79 36.7359 L1903.79 35.5496 L1898.5 35.5496 M1909.12 33.3505 L1909.12 51.84 L1903.79 51.84 L1903.79 46.921 Q1901.97 49.8724 1899.25 51.2902 Q1896.53 52.6791 1892.59 52.6791 Q1887.62 52.6791 1884.67 49.9014 Q1881.74 47.0947 1881.74 42.4072 Q1881.74 36.9385 1885.39 34.1607 Q1889.06 31.3829 1896.33 31.3829 L1903.79 31.3829 L1903.79 30.8621 Q1903.79 27.1874 1901.36 25.1908 Q1898.96 23.1654 1894.59 23.1654 Q1891.81 23.1654 1889.18 23.8309 Q1886.55 24.4964 1884.12 25.8274 L1884.12 20.9085 Q1887.04 19.78 1889.79 19.2302 Q1892.54 18.6515 1895.14 18.6515 Q1902.17 18.6515 1905.64 22.2973 Q1909.12 25.9431 1909.12 33.3505 Z" fill="#000000" fill-rule="nonzero" fill-opacity="1" /><path clip-path="url(#clip370)" d="M1951.71 6.87496 Q1947.83 13.53 1945.95 20.0404 Q1944.07 26.5508 1944.07 33.2348 Q1944.07 39.9188 1945.95 46.487 Q1947.86 53.0263 1951.71 59.6525 L1947.08 59.6525 Q1942.74 52.8527 1940.57 46.2845 Q1938.43 39.7162 1938.43 33.2348 Q1938.43 26.7823 1940.57 20.2429 Q1942.71 13.7036 1947.08 6.87496 L1951.71 6.87496 Z" fill="#000000" fill-rule="nonzero" fill-opacity="1" /><path clip-path="url(#clip370)" d="M1967.36 49.8435 L1967.36 64.1663 L1962.01 64.1663 L1962.01 19.6353 Q1962.01 6.44094 1974.34 6.44094 Q1986.89 6.44094 1986.89 17.5809 Q1986.89 25.5091 1981.92 28.4026 Q1990.02 31.0068 1990.02 38.7324 Q1990.02 52.4476 1976.07 52.4476 Q1969.94 52.4476 1967.36 49.8435 M1967.36 42.8991 Q1970.57 47.9048 1976.27 47.9048 Q1984.61 47.9048 1984.61 38.8192 Q1984.61 30.6596 1971.18 31.2961 L1971.18 26.3772 Q1981.69 26.3772 1981.69 17.118 Q1981.69 10.7812 1974.91 10.7812 Q1967.36 10.7812 1967.36 19.8089 L1967.36 42.8991 Z" fill="#000000" fill-rule="nonzero" fill-opacity="1" /><path clip-path="url(#clip370)" d="M1999.02 6.87496 L2003.65 6.87496 Q2007.99 13.7036 2010.13 20.2429 Q2012.3 26.7823 2012.3 33.2348 Q2012.3 39.7162 2010.13 46.2845 Q2007.99 52.8527 2003.65 59.6525 L1999.02 59.6525 Q2002.87 53.0263 2004.75 46.487 Q2006.66 39.9188 2006.66 33.2348 Q2006.66 26.5508 2004.75 20.0404 Q2002.87 13.53 1999.02 6.87496 Z" fill="#000000" fill-rule="nonzero" fill-opacity="1" /><path clip-path="url(#clip370)" d="M2048.67 6.55668 L2048.67 65.8156 L2043.75 65.8156 L2043.75 6.55668 L2048.67 6.55668 Z" fill="#000000" fill-rule="nonzero" fill-opacity="1" /><path clip-path="url(#clip370)" d="M2080.85 8.64 L2086.69 8.64 L2086.69 51.84 L2080.85 51.84 L2080.85 8.64 Z" fill="#000000" fill-rule="nonzero" fill-opacity="1" /><path clip-path="url(#clip370)" d="M2119.42 24.3517 L2119.42 6.81709 L2124.74 6.81709 L2124.74 51.84 L2119.42 51.84 L2119.42 46.9789 Q2117.74 49.8724 2115.16 51.2902 Q2112.62 52.6791 2109.03 52.6791 Q2103.15 52.6791 2099.45 47.9916 Q2095.78 43.3042 2095.78 35.6653 Q2095.78 28.0265 2099.45 23.339 Q2103.15 18.6515 2109.03 18.6515 Q2112.62 18.6515 2115.16 20.0693 Q2117.74 21.4582 2119.42 24.3517 M2101.27 35.6653 Q2101.27 41.5391 2103.68 44.8956 Q2106.11 48.2231 2110.33 48.2231 Q2114.55 48.2231 2116.99 44.8956 Q2119.42 41.5391 2119.42 35.6653 Q2119.42 29.7915 2116.99 26.464 Q2114.55 23.1075 2110.33 23.1075 Q2106.11 23.1075 2103.68 26.464 Q2101.27 29.7915 2101.27 35.6653 Z" fill="#000000" fill-rule="nonzero" fill-opacity="1" /><path clip-path="url(#clip370)" d="M2163.43 34.3054 L2163.43 36.9095 L2138.95 36.9095 Q2139.29 42.4072 2142.25 45.3007 Q2145.23 48.1653 2150.52 48.1653 Q2153.59 48.1653 2156.45 47.4129 Q2159.35 46.6606 2162.18 45.156 L2162.18 50.1907 Q2159.32 51.406 2156.31 52.0425 Q2153.3 52.6791 2150.2 52.6791 Q2142.45 52.6791 2137.91 48.1653 Q2133.39 43.6514 2133.39 35.9547 Q2133.39 27.9975 2137.67 23.339 Q2141.99 18.6515 2149.28 18.6515 Q2155.82 18.6515 2159.61 22.876 Q2163.43 27.0716 2163.43 34.3054 M2158.1 32.7429 Q2158.04 28.3737 2155.64 25.7695 Q2153.27 23.1654 2149.33 23.1654 Q2144.88 23.1654 2142.19 25.6827 Q2139.53 28.2001 2139.12 32.7718 L2158.1 32.7429 Z" fill="#000000" fill-rule="nonzero" fill-opacity="1" /><path clip-path="url(#clip370)" d="M2199.1 32.2799 L2199.1 51.84 L2193.78 51.84 L2193.78 32.4535 Q2193.78 27.8529 2191.98 25.567 Q2190.19 23.2811 2186.6 23.2811 Q2182.29 23.2811 2179.8 26.03 Q2177.31 28.7788 2177.31 33.5241 L2177.31 51.84 L2171.96 51.84 L2171.96 19.4328 L2177.31 19.4328 L2177.31 24.4675 Q2179.22 21.545 2181.8 20.0983 Q2184.4 18.6515 2187.79 18.6515 Q2193.37 18.6515 2196.24 22.1237 Q2199.1 25.567 2199.1 32.2799 Z" fill="#000000" fill-rule="nonzero" fill-opacity="1" /><path clip-path="url(#clip370)" d="M2214.99 10.2314 L2214.99 19.4328 L2225.95 19.4328 L2225.95 23.5705 L2214.99 23.5705 L2214.99 41.163 Q2214.99 45.1271 2216.06 46.2555 Q2217.16 47.384 2220.49 47.384 L2225.95 47.384 L2225.95 51.84 L2220.49 51.84 Q2214.32 51.84 2211.98 49.5541 Q2209.64 47.2393 2209.64 41.163 L2209.64 23.5705 L2205.73 23.5705 L2205.73 19.4328 L2209.64 19.4328 L2209.64 10.2314 L2214.99 10.2314 Z" fill="#000000" fill-rule="nonzero" fill-opacity="1" /><path clip-path="url(#clip370)" d="M2232.96 19.4328 L2238.28 19.4328 L2238.28 51.84 L2232.96 51.84 L2232.96 19.4328 M2232.96 6.81709 L2238.28 6.81709 L2238.28 13.559 L2232.96 13.559 L2232.96 6.81709 Z" fill="#000000" fill-rule="nonzero" fill-opacity="1" /><path clip-path="url(#clip370)" d="M2265.83 6.81709 L2265.83 11.2442 L2260.73 11.2442 Q2257.87 11.2442 2256.74 12.4016 Q2255.64 13.559 2255.64 16.5682 L2255.64 19.4328 L2264.41 19.4328 L2264.41 23.5705 L2255.64 23.5705 L2255.64 51.84 L2250.29 51.84 L2250.29 23.5705 L2245.2 23.5705 L2245.2 19.4328 L2250.29 19.4328 L2250.29 17.1758 Q2250.29 11.765 2252.81 9.30551 Q2255.32 6.81709 2260.79 6.81709 L2265.83 6.81709 Z" fill="#000000" fill-rule="nonzero" fill-opacity="1" /><path clip-path="url(#clip370)" d="M2270.28 19.4328 L2275.61 19.4328 L2275.61 51.84 L2270.28 51.84 L2270.28 19.4328 M2270.28 6.81709 L2275.61 6.81709 L2275.61 13.559 L2270.28 13.559 L2270.28 6.81709 Z" fill="#000000" fill-rule="nonzero" fill-opacity="1" /><path clip-path="url(#clip370)" d="M2301.48 35.5496 Q2295.02 35.5496 2292.53 37.0253 Q2290.05 38.501 2290.05 42.06 Q2290.05 44.8956 2291.9 46.5738 Q2293.78 48.2231 2296.99 48.2231 Q2301.42 48.2231 2304.08 45.0981 Q2306.77 41.9442 2306.77 36.7359 L2306.77 35.5496 L2301.48 35.5496 M2312.09 33.3505 L2312.09 51.84 L2306.77 51.84 L2306.77 46.921 Q2304.95 49.8724 2302.23 51.2902 Q2299.51 52.6791 2295.57 52.6791 Q2290.6 52.6791 2287.64 49.9014 Q2284.72 47.0947 2284.72 42.4072 Q2284.72 36.9385 2288.37 34.1607 Q2292.04 31.3829 2299.3 31.3829 L2306.77 31.3829 L2306.77 30.8621 Q2306.77 27.1874 2304.34 25.1908 Q2301.94 23.1654 2297.57 23.1654 Q2294.79 23.1654 2292.16 23.8309 Q2289.52 24.4964 2287.09 25.8274 L2287.09 20.9085 Q2290.02 19.78 2292.77 19.2302 Q2295.51 18.6515 2298.12 18.6515 Q2305.15 18.6515 2308.62 22.2973 Q2312.09 25.9431 2312.09 33.3505 Z" fill="#000000" fill-rule="nonzero" fill-opacity="1" /><path clip-path="url(#clip370)" d="M2346.32 35.6653 Q2346.32 29.7915 2343.89 26.464 Q2341.49 23.1075 2337.27 23.1075 Q2333.04 23.1075 2330.61 26.464 Q2328.21 29.7915 2328.21 35.6653 Q2328.21 41.5391 2330.61 44.8956 Q2333.04 48.2231 2337.27 48.2231 Q2341.49 48.2231 2343.89 44.8956 Q2346.32 41.5391 2346.32 35.6653 M2328.21 24.3517 Q2329.89 21.4582 2332.44 20.0693 Q2335.01 18.6515 2338.57 18.6515 Q2344.47 18.6515 2348.15 23.339 Q2351.85 28.0265 2351.85 35.6653 Q2351.85 43.3042 2348.15 47.9916 Q2344.47 52.6791 2338.57 52.6791 Q2335.01 52.6791 2332.44 51.2902 Q2329.89 49.8724 2328.21 46.9789 L2328.21 51.84 L2322.86 51.84 L2322.86 6.81709 L2328.21 6.81709 L2328.21 24.3517 Z" fill="#000000" fill-rule="nonzero" fill-opacity="1" /><path clip-path="url(#clip370)" d="M2360.68 6.81709 L2366 6.81709 L2366 51.84 L2360.68 51.84 L2360.68 6.81709 Z" fill="#000000" fill-rule="nonzero" fill-opacity="1" /><path clip-path="url(#clip370)" d="M2404.86 34.3054 L2404.86 36.9095 L2380.38 36.9095 Q2380.73 42.4072 2383.68 45.3007 Q2386.66 48.1653 2391.95 48.1653 Q2395.02 48.1653 2397.89 47.4129 Q2400.78 46.6606 2403.62 45.156 L2403.62 50.1907 Q2400.75 51.406 2397.74 52.0425 Q2394.73 52.6791 2391.64 52.6791 Q2383.88 52.6791 2379.34 48.1653 Q2374.83 43.6514 2374.83 35.9547 Q2374.83 27.9975 2379.11 23.339 Q2383.42 18.6515 2390.71 18.6515 Q2397.25 18.6515 2401.04 22.876 Q2404.86 27.0716 2404.86 34.3054 M2399.54 32.7429 Q2399.48 28.3737 2397.08 25.7695 Q2394.7 23.1654 2390.77 23.1654 Q2386.31 23.1654 2383.62 25.6827 Q2380.96 28.2001 2380.55 32.7718 L2399.54 32.7429 Z" fill="#000000" fill-rule="nonzero" fill-opacity="1" /><polyline clip-path="url(#clip371)" style="stroke:#595959; stroke-linecap:round; stroke-linejoin:round; stroke-width:6.8; stroke-opacity:0.95; fill:none" points="285.606,1058.05 999.607,1317.24 1668.15,1730.21 1674.18,1696.58 1687.33,1742.68 1693.96,1747.09 1738.56,1777.63 1756.3,1755.49 2452.56,2233.75 "/>
<polyline clip-path="url(#clip371)" style="stroke:#595959; stroke-linecap:round; stroke-linejoin:round; stroke-width:6.8; stroke-opacity:0.95; fill:none" points="2452.56,2233.75 2744.32,1806.09 2772.85,1746.06 2812.1,1655.6 3905.51,249.619 "/>
<polyline clip-path="url(#clip371)" style="stroke:#3cb371; stroke-linecap:round; stroke-linejoin:round; stroke-width:7.2; stroke-opacity:1; fill:none" stroke-dasharray="29, 18" points="-3334.3,1742.76 7525.42,1742.76 "/>
<polyline clip-path="url(#clip371)" style="stroke:#000000; stroke-linecap:round; stroke-linejoin:round; stroke-width:4.8; stroke-opacity:1; fill:none" stroke-dasharray="2, 5" points="1687.33,4317.08 1687.33,-1932.92 "/>
<polyline clip-path="url(#clip371)" style="stroke:#000000; stroke-linecap:round; stroke-linejoin:round; stroke-width:4.8; stroke-opacity:1; fill:none" stroke-dasharray="2, 5" points="2772.85,4317.08 2772.85,-1932.92 "/>
<path clip-path="url(#clip371)" d="M2452.56 2215.75 L2434.56 2233.75 L2452.56 2251.75 L2470.56 2233.75 L2452.56 2215.75 Z" fill="#000000" fill-rule="evenodd" fill-opacity="1" stroke="none"/>
</svg>
