<?xml version="1.0" encoding="utf-8"?>
<svg xmlns="http://www.w3.org/2000/svg" xmlns:xlink="http://www.w3.org/1999/xlink" width="1000" height="620" viewBox="0 0 4000 2480">
<defs>
  <clipPath id="clip170">
    <rect x="0" y="0" width="4000" height="2480"/>
  </clipPath>
</defs>
<path clip-path="url(#clip170)" d="M0 2480 L4000 2480 L4000 0 L0 0  Z" fill="#ffffff" fill-rule="evenodd" fill-opacity="1"/>
<defs>
  <clipPath id="clip171">
    <rect x="258" y="150" width="3648" height="2084"/>
  </clipPath>
</defs>
<path clip-path="url(#clip170)" d="M258.824 2233.75 L3905.51 2233.75 L3905.51 150.412 L258.824 150.412  Z" fill="#ffffff" fill-rule="evenodd" fill-opacity="1"/>
<polyline clip-path="url(#clip171)" style="stroke:#000000; stroke-linecap:round; stroke-linejoin:round; stroke-width:2; stroke-opacity:0.15; fill:none" points="1310.71,2233.75 1310.71,150.412 "/>
<polyline clip-path="url(#clip171)" style="stroke:#000000; stroke-linecap:round; stroke-linejoin:round; stroke-width:2; stroke-opacity:0.15; fill:none" points="2659.7,2233.75 2659.7,150.412 "/>
<polyline clip-path="url(#clip171)" style="stroke:#000000; stroke-linecap:round; stroke-linejoin:round; stroke-width:2; stroke-opacity:0.15; fill:none" points="258.824,2231.21 3905.51,2231.21 "/>
<polyline clip-path="url(#clip171)" style="stroke:#000000; stroke-linecap:round; stroke-linejoin:round; stroke-width:2; stroke-opacity:0.15; fill:none" points="258.824,1903.52 3905.51,1903.52 "/>
<polyline clip-path="url(#clip171)" style="stroke:#000000; stroke-linecap:round; stroke-linejoin:round; stroke-width:2; stroke-opacity:0.15; fill:none" points="258.824,1575.82 3905.51,1575.82 "/>
<polyline clip-path="url(#clip171)" style="stroke:#000000; stroke-linecap:round; stroke-linejoin:round; stroke-width:2; stroke-opacity:0.15; fill:none" points="258.824,1248.12 3905.51,1248.12 "/>
<polyline clip-path="url(#clip171)" style="stroke:#000000; stroke-linecap:round; stroke-linejoin:round; stroke-width:2; stroke-opacity:0.15; fill:none" points="258.824,920.426 3905.51,920.426 "/>
<polyline clip-path="url(#clip171)" style="stroke:#000000; stroke-linecap:round; stroke-linejoin:round; stroke-width:2; stroke-opacity:0.15; fill:none" points="258.824,592.729 3905.51,592.729 "/>
<polyline clip-path="url(#clip171)" style="stroke:#000000; stroke-linecap:round; stroke-linejoin:round; stroke-width:2; stroke-opacity:0.15; fill:none" points="258.824,265.032 3905.51,265.032 "/>
<polyline clip-path="url(#clip170)" style="stroke:#000000; stroke-linecap:round; stroke-linejoin:round; stroke-width:4; stroke-opacity:1; fill:none" points="258.824,2233.75 3905.51,2233.75 "/>
<polyline clip-path="url(#clip170)" style="stroke:#000000; stroke-linecap:round; stroke-linejoin:round; stroke-width:4; stroke-opacity:1; fill:none" points="1310.71,2233.75 1310.71,2214.85 "/>
<polyline clip-path="url(#clip170)" style="stroke:#000000; stroke-linecap:round; stroke-linejoin:round; stroke-width:4; stroke-opacity:1; fill:none" points="2659.7,2233.75 2659.7,2214.85 "/>
<path clip-path="url(#clip170)" d="M1248.08 2320.67 L1255.71 2320.67 L1255.71 2294.3 L1247.4 2295.97 L1247.4 2291.71 L1255.67 2290.05 L1260.34 2290.05 L1260.34 2320.67 L1267.98 2320.67 L1267.98 2324.61 L1248.08 2324.61 L1248.08 2320.67 Z" fill="#000000" fill-rule="nonzero" fill-opacity="1" /><path clip-path="url(#clip170)" d="M1287.43 2293.12 Q1283.82 2293.12 1281.99 2296.69 Q1280.18 2300.23 1280.18 2307.36 Q1280.18 2314.47 1281.99 2318.03 Q1283.82 2321.57 1287.43 2321.57 Q1291.06 2321.57 1292.87 2318.03 Q1294.7 2314.47 1294.7 2307.36 Q1294.7 2300.23 1292.87 2296.69 Q1291.06 2293.12 1287.43 2293.12 M1287.43 2289.42 Q1293.24 2289.42 1296.29 2294.03 Q1299.37 2298.61 1299.37 2307.36 Q1299.37 2316.09 1296.29 2320.69 Q1293.24 2325.28 1287.43 2325.28 Q1281.62 2325.28 1278.54 2320.69 Q1275.48 2316.09 1275.48 2307.36 Q1275.48 2298.61 1278.54 2294.03 Q1281.62 2289.42 1287.43 2289.42 Z" fill="#000000" fill-rule="nonzero" fill-opacity="1" /><path clip-path="url(#clip170)" d="M1299.37 2283.52 L1323.48 2283.52 L1323.48 2286.72 L1299.37 2286.72 L1299.37 2283.52 Z" fill="#000000" fill-rule="nonzero" fill-opacity="1" /><path clip-path="url(#clip170)" d="M1334.96 2294 L1348.22 2294 L1348.22 2297.19 L1330.39 2297.19 L1330.39 2294 Q1332.55 2291.76 1336.27 2288 Q1340.02 2284.22 1340.97 2283.13 Q1342.8 2281.08 1343.51 2279.67 Q1344.25 2278.24 1344.25 2276.86 Q1344.25 2274.63 1342.67 2273.21 Q1341.11 2271.8 1338.59 2271.8 Q1336.8 2271.8 1334.81 2272.42 Q1332.83 2273.05 1330.57 2274.31 L1330.57 2270.47 Q1332.87 2269.55 1334.86 2269.08 Q1336.86 2268.61 1338.51 2268.61 Q1342.87 2268.61 1345.47 2270.79 Q1348.06 2272.97 1348.06 2276.62 Q1348.06 2278.35 1347.41 2279.91 Q1346.77 2281.45 1345.06 2283.56 Q1344.59 2284.1 1342.07 2286.72 Q1339.54 2289.31 1334.96 2294 Z" fill="#000000" fill-rule="nonzero" fill-opacity="1" /><path clip-path="url(#clip170)" d="M1364.31 2271.62 Q1361.38 2271.62 1359.89 2274.51 Q1358.43 2277.39 1358.43 2283.18 Q1358.43 2288.96 1359.89 2291.85 Q1361.38 2294.73 1364.31 2294.73 Q1367.27 2294.73 1368.73 2291.85 Q1370.22 2288.96 1370.22 2283.18 Q1370.22 2277.39 1368.73 2274.51 Q1367.27 2271.62 1364.31 2271.62 M1364.31 2268.61 Q1369.04 2268.61 1371.52 2272.35 Q1374.02 2276.07 1374.02 2283.18 Q1374.02 2290.27 1371.52 2294.02 Q1369.04 2297.74 1364.31 2297.74 Q1359.59 2297.74 1357.09 2294.02 Q1354.61 2290.27 1354.61 2283.18 Q1354.61 2276.07 1357.09 2272.35 Q1359.59 2268.61 1364.31 2268.61 Z" fill="#000000" fill-rule="nonzero" fill-opacity="1" /><path clip-path="url(#clip170)" d="M2597.06 2320.67 L2604.7 2320.67 L2604.7 2294.3 L2596.39 2295.97 L2596.39 2291.71 L2604.65 2290.05 L2609.33 2290.05 L2609.33 2320.67 L2616.97 2320.67 L2616.97 2324.61 L2597.06 2324.61 L2597.06 2320.67 Z" fill="#000000" fill-rule="nonzero" fill-opacity="1" /><path clip-path="url(#clip170)" d="M2636.41 2293.12 Q2632.8 2293.12 2630.97 2296.69 Q2629.17 2300.23 2629.17 2307.36 Q2629.17 2314.47 2630.97 2318.03 Q2632.8 2321.57 2636.41 2321.57 Q2640.05 2321.57 2641.85 2318.03 Q2643.68 2314.47 2643.68 2307.36 Q2643.68 2300.23 2641.85 2296.69 Q2640.05 2293.12 2636.41 2293.12 M2636.41 2289.42 Q2642.22 2289.42 2645.28 2294.03 Q2648.36 2298.61 2648.36 2307.36 Q2648.36 2316.09 2645.28 2320.69 Q2642.22 2325.28 2636.41 2325.28 Q2630.6 2325.28 2627.53 2320.69 Q2624.47 2316.09 2624.47 2307.36 Q2624.47 2298.61 2627.53 2294.03 Q2630.6 2289.42 2636.41 2289.42 Z" fill="#000000" fill-rule="nonzero" fill-opacity="1" /><path clip-path="url(#clip170)" d="M2648.36 2283.52 L2672.47 2283.52 L2672.47 2286.72 L2648.36 2286.72 L2648.36 2283.52 Z" fill="#000000" fill-rule="nonzero" fill-opacity="1" /><path clip-path="url(#clip170)" d="M2681.33 2294 L2687.53 2294 L2687.53 2272.58 L2680.78 2273.93 L2680.78 2270.47 L2687.5 2269.11 L2691.3 2269.11 L2691.3 2294 L2697.5 2294 L2697.5 2297.19 L2681.33 2297.19 L2681.33 2294 Z" fill="#000000" fill-rule="nonzero" fill-opacity="1" /><path clip-path="url(#clip170)" d="M2713.3 2271.62 Q2710.37 2271.62 2708.88 2274.51 Q2707.41 2277.39 2707.41 2283.18 Q2707.41 2288.96 2708.88 2291.85 Q2710.37 2294.73 2713.3 2294.73 Q2716.25 2294.73 2717.72 2291.85 Q2719.21 2288.96 2719.21 2283.18 Q2719.21 2277.39 2717.72 2274.51 Q2716.25 2271.62 2713.3 2271.62 M2713.3 2268.61 Q2718.02 2268.61 2720.5 2272.35 Q2723.01 2276.07 2723.01 2283.18 Q2723.01 2290.27 2720.5 2294.02 Q2718.02 2297.74 2713.3 2297.74 Q2708.58 2297.74 2706.08 2294.02 Q2703.6 2290.27 2703.6 2283.18 Q2703.6 2276.07 2706.08 2272.35 Q2708.58 2268.61 2713.3 2268.61 Z" fill="#000000" fill-rule="nonzero" fill-opacity="1" /><path clip-path="url(#clip170)" d="M2001.57 2396.11 Q2001.57 2390.82 1999.38 2387.83 Q1997.22 2384.81 1993.42 2384.81 Q1989.62 2384.81 1987.43 2387.83 Q1985.27 2390.82 1985.27 2396.11 Q1985.27 2401.4 1987.43 2404.42 Q1989.62 2407.41 1993.42 2407.41 Q1997.22 2407.41 1999.38 2404.42 Q2001.57 2401.4 2001.57 2396.11 M1985.27 2385.93 Q1986.78 2383.32 1989.07 2382.07 Q1991.39 2380.8 1994.59 2380.8 Q1999.9 2380.8 2003.21 2385.02 Q2006.54 2389.23 2006.54 2396.11 Q2006.54 2402.98 2003.21 2407.2 Q1999.9 2411.42 1994.59 2411.42 Q1991.39 2411.42 1989.07 2410.17 Q1986.78 2408.9 1985.27 2406.29 L1985.27 2410.67 L1980.45 2410.67 L1980.45 2370.15 L1985.27 2370.15 L1985.27 2385.93 Z" fill="#000000" fill-rule="nonzero" fill-opacity="1" /><path clip-path="url(#clip170)" d="M2039.43 2394.88 L2039.43 2397.23 L2017.4 2397.23 Q2017.72 2402.18 2020.37 2404.78 Q2023.05 2407.36 2027.82 2407.36 Q2030.58 2407.36 2033.16 2406.68 Q2035.76 2406 2038.31 2404.65 L2038.31 2409.18 Q2035.74 2410.28 2033.03 2410.85 Q2030.32 2411.42 2027.53 2411.42 Q2020.55 2411.42 2016.47 2407.36 Q2012.4 2403.3 2012.4 2396.37 Q2012.4 2389.21 2016.26 2385.02 Q2020.14 2380.8 2026.7 2380.8 Q2032.58 2380.8 2036 2384.6 Q2039.43 2388.37 2039.43 2394.88 M2034.64 2393.48 Q2034.59 2389.55 2032.43 2387.2 Q2030.29 2384.86 2026.75 2384.86 Q2022.74 2384.86 2020.32 2387.12 Q2017.92 2389.39 2017.56 2393.5 L2034.64 2393.48 Z" fill="#000000" fill-rule="nonzero" fill-opacity="1" /><path clip-path="url(#clip170)" d="M2052.04 2373.22 L2052.04 2381.5 L2061.91 2381.5 L2061.91 2385.22 L2052.04 2385.22 L2052.04 2401.06 Q2052.04 2404.62 2053 2405.64 Q2053.99 2406.66 2056.99 2406.66 L2061.91 2406.66 L2061.91 2410.67 L2056.99 2410.67 Q2051.44 2410.67 2049.33 2408.61 Q2047.22 2406.53 2047.22 2401.06 L2047.22 2385.22 L2043.7 2385.22 L2043.7 2381.5 L2047.22 2381.5 L2047.22 2373.22 L2052.04 2373.22 Z" fill="#000000" fill-rule="nonzero" fill-opacity="1" /><path clip-path="url(#clip170)" d="M2081.46 2396 Q2075.66 2396 2073.42 2397.33 Q2071.18 2398.66 2071.18 2401.86 Q2071.18 2404.42 2072.84 2405.93 Q2074.54 2407.41 2077.43 2407.41 Q2081.41 2407.41 2083.81 2404.6 Q2086.23 2401.76 2086.23 2397.07 L2086.23 2396 L2081.46 2396 M2091.02 2394.03 L2091.02 2410.67 L2086.23 2410.67 L2086.23 2406.24 Q2084.59 2408.9 2082.14 2410.17 Q2079.69 2411.42 2076.15 2411.42 Q2071.67 2411.42 2069.02 2408.92 Q2066.39 2406.4 2066.39 2402.18 Q2066.39 2397.25 2069.67 2394.75 Q2072.98 2392.25 2079.51 2392.25 L2086.23 2392.25 L2086.23 2391.79 Q2086.23 2388.48 2084.04 2386.68 Q2081.88 2384.86 2077.95 2384.86 Q2075.45 2384.86 2073.08 2385.46 Q2070.71 2386.06 2068.52 2387.25 L2068.52 2382.83 Q2071.15 2381.81 2073.63 2381.32 Q2076.1 2380.8 2078.44 2380.8 Q2084.77 2380.8 2087.9 2384.08 Q2091.02 2387.36 2091.02 2394.03 Z" fill="#000000" fill-rule="nonzero" fill-opacity="1" /><path clip-path="url(#clip170)" d="M2129.36 2370.2 Q2125.87 2376.19 2124.17 2382.05 Q2122.48 2387.91 2122.48 2393.92 Q2122.48 2399.94 2124.17 2405.85 Q2125.89 2411.73 2129.36 2417.7 L2125.19 2417.7 Q2121.28 2411.58 2119.33 2405.67 Q2117.4 2399.75 2117.4 2393.92 Q2117.4 2388.11 2119.33 2382.23 Q2121.26 2376.34 2125.19 2370.2 L2129.36 2370.2 Z" fill="#000000" fill-rule="nonzero" fill-opacity="1" /><path clip-path="url(#clip170)" d="M2143.44 2408.87 L2143.44 2421.76 L2138.63 2421.76 L2138.63 2381.68 Q2138.63 2369.81 2149.72 2369.81 Q2161.02 2369.81 2161.02 2379.83 Q2161.02 2386.97 2156.54 2389.57 Q2163.83 2391.92 2163.83 2398.87 Q2163.83 2411.21 2151.28 2411.21 Q2145.76 2411.21 2143.44 2408.87 M2143.44 2402.62 Q2146.33 2407.12 2151.46 2407.12 Q2158.96 2407.12 2158.96 2398.95 Q2158.96 2391.6 2146.88 2392.18 L2146.88 2387.75 Q2156.33 2387.75 2156.33 2379.42 Q2156.33 2373.71 2150.24 2373.71 Q2143.44 2373.71 2143.44 2381.84 L2143.44 2402.62 Z" fill="#000000" fill-rule="nonzero" fill-opacity="1" /><path clip-path="url(#clip170)" d="M2171.93 2370.2 L2176.1 2370.2 Q2180.01 2376.34 2181.93 2382.23 Q2183.89 2388.11 2183.89 2393.92 Q2183.89 2399.75 2181.93 2405.67 Q2180.01 2411.58 2176.1 2417.7 L2171.93 2417.7 Q2175.4 2411.73 2177.09 2405.85 Q2178.81 2399.94 2178.81 2393.92 Q2178.81 2387.91 2177.09 2382.05 Q2175.4 2376.19 2171.93 2370.2 Z" fill="#000000" fill-rule="nonzero" fill-opacity="1" /><polyline clip-path="url(#clip170)" style="stroke:#000000; stroke-linecap:round; stroke-linejoin:round; stroke-width:4; stroke-opacity:1; fill:none" points="258.824,2233.75 258.824,150.412 "/>
<polyline clip-path="url(#clip170)" style="stroke:#000000; stroke-linecap:round; stroke-linejoin:round; stroke-width:4; stroke-opacity:1; fill:none" points="258.824,2231.21 277.721,2231.21 "/>
<polyline clip-path="url(#clip170)" style="stroke:#000000; stroke-linecap:round; stroke-linejoin:round; stroke-width:4; stroke-opacity:1; fill:none" points="258.824,1903.52 277.721,1903.52 "/>
<polyline clip-path="url(#clip170)" style="stroke:#000000; stroke-linecap:round; stroke-linejoin:round; stroke-width:4; stroke-opacity:1; fill:none" points="258.824,1575.82 277.721,1575.82 "/>
<polyline clip-path="url(#clip170)" style="stroke:#000000; stroke-linecap:round; stroke-linejoin:round; stroke-width:4; stroke-opacity:1; fill:none" points="258.824,1248.12 277.721,1248.12 "/>
<polyline clip-path="url(#clip170)" style="stroke:#000000; stroke-linecap:round; stroke-linejoin:round; stroke-width:4; stroke-opacity:1; fill:none" points="258.824,920.426 277.721,920.426 "/>
<polyline clip-path="url(#clip170)" style="stroke:#000000; stroke-linecap:round; stroke-linejoin:round; stroke-width:4; stroke-opacity:1; fill:none" points="258.824,592.729 277.721,592.729 "/>
<polyline clip-path="url(#clip170)" style="stroke:#000000; stroke-linecap:round; stroke-linejoin:round; stroke-width:4; stroke-opacity:1; fill:none" points="258.824,265.032 277.721,265.032 "/>
<path clip-path="url(#clip170)" d="M186.879 2217.01 Q183.268 2217.01 181.44 2220.58 Q179.634 2224.12 179.634 2231.25 Q179.634 2238.36 181.44 2241.92 Q183.268 2245.46 186.879 2245.46 Q190.514 2245.46 192.319 2241.92 Q194.148 2238.36 194.148 2231.25 Q194.148 2224.12 192.319 2220.58 Q190.514 2217.01 186.879 2217.01 M186.879 2213.31 Q192.69 2213.31 195.745 2217.92 Q198.824 2222.5 198.824 2231.25 Q198.824 2239.98 195.745 2244.58 Q192.69 2249.17 186.879 2249.17 Q181.069 2249.17 177.991 2244.58 Q174.935 2239.98 174.935 2231.25 Q174.935 2222.5 177.991 2217.92 Q181.069 2213.31 186.879 2213.31 Z" fill="#000000" fill-rule="nonzero" fill-opacity="1" /><path clip-path="url(#clip170)" d="M178.916 1916.86 L186.555 1916.86 L186.555 1890.5 L178.245 1892.16 L178.245 1887.9 L186.509 1886.24 L191.185 1886.24 L191.185 1916.86 L198.824 1916.86 L198.824 1920.8 L178.916 1920.8 L178.916 1916.86 Z" fill="#000000" fill-rule="nonzero" fill-opacity="1" /><path clip-path="url(#clip170)" d="M182.504 1589.16 L198.824 1589.16 L198.824 1593.1 L176.879 1593.1 L176.879 1589.16 Q179.541 1586.41 184.125 1581.78 Q188.731 1577.13 189.912 1575.79 Q192.157 1573.26 193.037 1571.53 Q193.94 1569.77 193.94 1568.08 Q193.94 1565.32 191.995 1563.59 Q190.074 1561.85 186.972 1561.85 Q184.773 1561.85 182.319 1562.61 Q179.889 1563.38 177.111 1564.93 L177.111 1560.21 Q179.935 1559.07 182.389 1558.49 Q184.842 1557.92 186.879 1557.92 Q192.25 1557.92 195.444 1560.6 Q198.639 1563.29 198.639 1567.78 Q198.639 1569.91 197.828 1571.83 Q197.041 1573.73 194.935 1576.32 Q194.356 1576.99 191.254 1580.21 Q188.153 1583.4 182.504 1589.16 Z" fill="#000000" fill-rule="nonzero" fill-opacity="1" /><path clip-path="url(#clip170)" d="M191.694 1246.77 Q195.051 1247.49 196.926 1249.75 Q198.824 1252.02 198.824 1255.36 Q198.824 1260.47 195.305 1263.27 Q191.787 1266.07 185.305 1266.07 Q183.129 1266.07 180.815 1265.63 Q178.523 1265.22 176.069 1264.36 L176.069 1259.85 Q178.014 1260.98 180.328 1261.56 Q182.643 1262.14 185.166 1262.14 Q189.565 1262.14 191.856 1260.4 Q194.171 1258.67 194.171 1255.36 Q194.171 1252.3 192.018 1250.59 Q189.889 1248.85 186.069 1248.85 L182.041 1248.85 L182.041 1245.01 L186.254 1245.01 Q189.703 1245.01 191.532 1243.64 Q193.361 1242.26 193.361 1239.66 Q193.361 1237 191.463 1235.59 Q189.588 1234.15 186.069 1234.15 Q184.148 1234.15 181.949 1234.57 Q179.75 1234.99 177.111 1235.87 L177.111 1231.7 Q179.773 1230.96 182.088 1230.59 Q184.426 1230.22 186.486 1230.22 Q191.81 1230.22 194.912 1232.65 Q198.014 1235.06 198.014 1239.18 Q198.014 1242.05 196.37 1244.04 Q194.727 1246 191.694 1246.77 Z" fill="#000000" fill-rule="nonzero" fill-opacity="1" /><path clip-path="url(#clip170)" d="M189.24 907.22 L177.435 925.669 L189.24 925.669 L189.24 907.22 M188.014 903.146 L193.893 903.146 L193.893 925.669 L198.824 925.669 L198.824 929.558 L193.893 929.558 L193.893 937.706 L189.24 937.706 L189.24 929.558 L173.639 929.558 L173.639 925.044 L188.014 903.146 Z" fill="#000000" fill-rule="nonzero" fill-opacity="1" /><path clip-path="url(#clip170)" d="M177.921 575.449 L196.277 575.449 L196.277 579.384 L182.203 579.384 L182.203 587.856 Q183.222 587.509 184.241 587.347 Q185.259 587.162 186.278 587.162 Q192.065 587.162 195.444 590.333 Q198.824 593.505 198.824 598.921 Q198.824 604.5 195.352 607.602 Q191.879 610.68 185.56 610.68 Q183.384 610.68 181.116 610.31 Q178.87 609.94 176.463 609.199 L176.463 604.5 Q178.546 605.634 180.768 606.19 Q182.991 606.745 185.467 606.745 Q189.472 606.745 191.81 604.639 Q194.148 602.532 194.148 598.921 Q194.148 595.31 191.81 593.204 Q189.472 591.097 185.467 591.097 Q183.592 591.097 181.717 591.514 Q179.866 591.93 177.921 592.81 L177.921 575.449 Z" fill="#000000" fill-rule="nonzero" fill-opacity="1" /><path clip-path="url(#clip170)" d="M187.296 263.169 Q184.148 263.169 182.296 265.321 Q180.467 267.474 180.467 271.224 Q180.467 274.951 182.296 277.127 Q184.148 279.28 187.296 279.28 Q190.444 279.28 192.273 277.127 Q194.125 274.951 194.125 271.224 Q194.125 267.474 192.273 265.321 Q190.444 263.169 187.296 263.169 M196.578 248.516 L196.578 252.775 Q194.819 251.942 193.014 251.502 Q191.231 251.062 189.472 251.062 Q184.842 251.062 182.389 254.187 Q179.958 257.312 179.611 263.632 Q180.977 261.618 183.037 260.553 Q185.097 259.465 187.574 259.465 Q192.782 259.465 195.791 262.636 Q198.824 265.784 198.824 271.224 Q198.824 276.548 195.676 279.766 Q192.528 282.983 187.296 282.983 Q181.301 282.983 178.129 278.4 Q174.958 273.794 174.958 265.067 Q174.958 256.872 178.847 252.011 Q182.736 247.127 189.287 247.127 Q191.046 247.127 192.828 247.474 Q194.634 247.822 196.578 248.516 Z" fill="#000000" fill-rule="nonzero" fill-opacity="1" /><path clip-path="url(#clip170)" d="M68.277 1321.13 L97.5997 1331.8 L97.5997 1310.42 L68.277 1321.13 M101.975 1338.94 L63.0947 1324.1 L63.0947 1318.13 L101.975 1303.32 L101.975 1338.94 Z" fill="#000000" fill-rule="nonzero" fill-opacity="1" /><path clip-path="url(#clip170)" d="M76.1676 1269.59 Q76.1676 1273.45 79.1884 1275.69 Q82.1832 1277.92 87.4175 1277.92 Q92.6518 1277.92 95.6727 1275.71 Q98.6674 1273.47 98.6674 1269.59 Q98.6674 1265.76 95.6466 1263.52 Q92.6258 1261.28 87.4175 1261.28 Q82.2352 1261.28 79.2144 1263.52 Q76.1676 1265.76 76.1676 1269.59 M72.1051 1269.59 Q72.1051 1263.34 76.1676 1259.77 Q80.23 1256.21 87.4175 1256.21 Q94.5789 1256.21 98.6674 1259.77 Q102.73 1263.34 102.73 1269.59 Q102.73 1275.87 98.6674 1279.43 Q94.5789 1282.98 87.4175 1282.98 Q80.23 1282.98 76.1676 1279.43 Q72.1051 1275.87 72.1051 1269.59 Z" fill="#000000" fill-rule="nonzero" fill-opacity="1" /><path clip-path="url(#clip170)" d="M87.4175 1227.33 Q82.1311 1227.33 79.1363 1229.51 Q76.1155 1231.67 76.1155 1235.48 Q76.1155 1239.28 79.1363 1241.47 Q82.1311 1243.63 87.4175 1243.63 Q92.7039 1243.63 95.7247 1241.47 Q98.7195 1239.28 98.7195 1235.48 Q98.7195 1231.67 95.7247 1229.51 Q92.7039 1227.33 87.4175 1227.33 M77.2353 1243.63 Q74.6311 1242.12 73.3811 1239.83 Q72.1051 1237.51 72.1051 1234.31 Q72.1051 1228.99 76.3238 1225.69 Q80.5425 1222.35 87.4175 1222.35 Q94.2925 1222.35 98.5112 1225.69 Q102.73 1228.99 102.73 1234.31 Q102.73 1237.51 101.48 1239.83 Q100.204 1242.12 97.5997 1243.63 L101.975 1243.63 L101.975 1248.45 L61.4541 1248.45 L61.4541 1243.63 L77.2353 1243.63 Z" fill="#000000" fill-rule="nonzero" fill-opacity="1" /><path clip-path="url(#clip170)" d="M72.8082 1214.41 L72.8082 1209.62 L102.496 1209.62 Q108.068 1209.62 110.568 1211.75 Q113.068 1213.86 113.068 1218.58 L113.068 1220.4 L109.006 1220.4 L109.006 1219.12 Q109.006 1216.39 107.73 1215.4 Q106.48 1214.41 102.496 1214.41 L72.8082 1214.41 M61.4541 1214.41 L61.4541 1209.62 L67.5218 1209.62 L67.5218 1214.41 L61.4541 1214.41 Z" fill="#000000" fill-rule="nonzero" fill-opacity="1" /><path clip-path="url(#clip170)" d="M86.1935 1174.64 L88.5373 1174.64 L88.5373 1196.68 Q93.4852 1196.36 96.0893 1193.71 Q98.6674 1191.02 98.6674 1186.26 Q98.6674 1183.5 97.9904 1180.92 Q97.3133 1178.32 95.9591 1175.76 L100.49 1175.76 Q101.584 1178.34 102.157 1181.05 Q102.73 1183.76 102.73 1186.54 Q102.73 1193.52 98.6674 1197.61 Q94.605 1201.67 87.6779 1201.67 Q80.5165 1201.67 76.3238 1197.82 Q72.1051 1193.94 72.1051 1187.38 Q72.1051 1181.49 75.9071 1178.08 Q79.6832 1174.64 86.1935 1174.64 M84.7873 1179.44 Q80.855 1179.49 78.5113 1181.65 Q76.1676 1183.78 76.1676 1187.33 Q76.1676 1191.34 78.4332 1193.76 Q80.6988 1196.15 84.8133 1196.52 L84.7873 1179.44 Z" fill="#000000" fill-rule="nonzero" fill-opacity="1" /><path clip-path="url(#clip170)" d="M73.928 1145.79 L78.4071 1145.79 Q77.2873 1147.82 76.7405 1149.88 Q76.1676 1151.91 76.1676 1153.99 Q76.1676 1158.65 79.1363 1161.23 Q82.079 1163.81 87.4175 1163.81 Q92.756 1163.81 95.7247 1161.23 Q98.6674 1158.65 98.6674 1153.99 Q98.6674 1151.91 98.1206 1149.88 Q97.5477 1147.82 96.4279 1145.79 L100.855 1145.79 Q101.792 1147.8 102.261 1149.96 Q102.73 1152.09 102.73 1154.51 Q102.73 1161.1 98.5893 1164.98 Q94.4487 1168.86 87.4175 1168.86 Q80.2821 1168.86 76.1936 1164.96 Q72.1051 1161.02 72.1051 1154.2 Q72.1051 1151.99 72.5738 1149.88 Q73.0165 1147.77 73.928 1145.79 Z" fill="#000000" fill-rule="nonzero" fill-opacity="1" /><path clip-path="url(#clip170)" d="M64.527 1132.72 L72.8082 1132.72 L72.8082 1122.85 L76.5321 1122.85 L76.5321 1132.72 L92.3654 1132.72 Q95.9331 1132.72 96.9487 1131.75 Q97.9643 1130.76 97.9643 1127.77 L97.9643 1122.85 L101.975 1122.85 L101.975 1127.77 Q101.975 1133.32 99.9174 1135.43 Q97.8341 1137.53 92.3654 1137.53 L76.5321 1137.53 L76.5321 1141.05 L72.8082 1141.05 L72.8082 1137.53 L64.527 1137.53 L64.527 1132.72 Z" fill="#000000" fill-rule="nonzero" fill-opacity="1" /><path clip-path="url(#clip170)" d="M72.8082 1116.55 L72.8082 1111.75 L101.975 1111.75 L101.975 1116.55 L72.8082 1116.55 M61.4541 1116.55 L61.4541 1111.75 L67.5218 1111.75 L67.5218 1116.55 L61.4541 1116.55 Z" fill="#000000" fill-rule="nonzero" fill-opacity="1" /><path clip-path="url(#clip170)" d="M72.8082 1105.17 L72.8082 1100.09 L97.2872 1090.97 L72.8082 1081.86 L72.8082 1076.78 L101.975 1087.72 L101.975 1094.23 L72.8082 1105.17 Z" fill="#000000" fill-rule="nonzero" fill-opacity="1" /><path clip-path="url(#clip170)" d="M86.1935 1045.22 L88.5373 1045.22 L88.5373 1067.25 Q93.4852 1066.94 96.0893 1064.28 Q98.6674 1061.6 98.6674 1056.83 Q98.6674 1054.07 97.9904 1051.49 Q97.3133 1048.89 95.9591 1046.34 L100.49 1046.34 Q101.584 1048.92 102.157 1051.62 Q102.73 1054.33 102.73 1057.12 Q102.73 1064.1 98.6674 1068.19 Q94.605 1072.25 87.6779 1072.25 Q80.5165 1072.25 76.3238 1068.39 Q72.1051 1064.51 72.1051 1057.95 Q72.1051 1052.07 75.9071 1048.65 Q79.6832 1045.22 86.1935 1045.22 M84.7873 1050.01 Q80.855 1050.06 78.5113 1052.22 Q76.1676 1054.36 76.1676 1057.9 Q76.1676 1061.91 78.4332 1064.33 Q80.6988 1066.73 84.8133 1067.09 L84.7873 1050.01 Z" fill="#000000" fill-rule="nonzero" fill-opacity="1" /><path clip-path="url(#clip170)" d="M1756.37 35.6653 Q1756.37 29.7915 1753.94 26.464 Q1751.54 23.1075 1747.32 23.1075 Q1743.09 23.1075 1740.66 26.464 Q1738.26 29.7915 1738.26 35.6653 Q1738.26 41.5391 1740.66 44.8956 Q1743.09 48.2231 1747.32 48.2231 Q1751.54 48.2231 1753.94 44.8956 Q1756.37 41.5391 1756.37 35.6653 M1738.26 24.3517 Q1739.94 21.4582 1742.49 20.0693 Q1745.06 18.6515 1748.62 18.6515 Q1754.52 18.6515 1758.2 23.339 Q1761.9 28.0265 1761.9 35.6653 Q1761.9 43.3042 1758.2 47.9916 Q1754.52 52.6791 1748.62 52.6791 Q1745.06 52.6791 1742.49 51.2902 Q1739.94 49.8724 1738.26 46.9789 L1738.26 51.84 L1732.91 51.84 L1732.91 6.81709 L1738.26 6.81709 L1738.26 24.3517 Z" fill="#000000" fill-rule="nonzero" fill-opacity="1" /><path clip-path="url(#clip170)" d="M1798.45 34.3054 L1798.45 36.9095 L1773.97 36.9095 Q1774.31 42.4072 1777.26 45.3007 Q1780.25 48.1653 1785.54 48.1653 Q1788.61 48.1653 1791.47 47.4129 Q1794.37 46.6606 1797.2 45.156 L1797.2 50.1907 Q1794.34 51.406 1791.33 52.0425 Q1788.32 52.6791 1785.22 52.6791 Q1777.47 52.6791 1772.92 48.1653 Q1768.41 43.6514 1768.41 35.9547 Q1768.41 27.9975 1772.69 23.339 Q1777 18.6515 1784.3 18.6515 Q1790.84 18.6515 1794.63 22.876 Q1798.45 27.0716 1798.45 34.3054 M1793.12 32.7429 Q1793.06 28.3737 1790.66 25.7695 Q1788.29 23.1654 1784.35 23.1654 Q1779.9 23.1654 1777.21 25.6827 Q1774.55 28.2001 1774.14 32.7718 L1793.12 32.7429 Z" fill="#000000" fill-rule="nonzero" fill-opacity="1" /><path clip-path="url(#clip170)" d="M1812.45 10.2314 L1812.45 19.4328 L1823.42 19.4328 L1823.42 23.5705 L1812.45 23.5705 L1812.45 41.163 Q1812.45 45.1271 1813.52 46.2555 Q1814.62 47.384 1817.95 47.384 L1823.42 47.384 L1823.42 51.84 L1817.95 51.84 Q1811.78 51.84 1809.44 49.5541 Q1807.1 47.2393 1807.1 41.163 L1807.1 23.5705 L1803.19 23.5705 L1803.19 19.4328 L1807.1 19.4328 L1807.1 10.2314 L1812.45 10.2314 Z" fill="#000000" fill-rule="nonzero" fill-opacity="1" /><path clip-path="url(#clip170)" d="M1845.15 35.5496 Q1838.69 35.5496 1836.21 37.0253 Q1833.72 38.501 1833.72 42.06 Q1833.72 44.8956 1835.57 46.5738 Q1837.45 48.2231 1840.66 48.2231 Q1845.09 48.2231 1847.75 45.0981 Q1850.44 41.9442 1850.44 36.7359 L1850.44 35.5496 L1845.15 35.5496 M1855.77 33.3505 L1855.77 51.84 L1850.44 51.84 L1850.44 46.921 Q1848.62 49.8724 1845.9 51.2902 Q1843.18 52.6791 1839.24 52.6791 Q1834.27 52.6791 1831.32 49.9014 Q1828.39 47.0947 1828.39 42.4072 Q1828.39 36.9385 1832.04 34.1607 Q1835.71 31.3829 1842.98 31.3829 L1850.44 31.3829 L1850.44 30.8621 Q1850.44 27.1874 1848.01 25.1908 Q1845.61 23.1654 1841.24 23.1654 Q1838.46 23.1654 1835.83 23.8309 Q1833.2 24.4964 1830.77 25.8274 L1830.77 20.9085 Q1833.69 19.78 1836.44 19.2302 Q1839.19 18.6515 1841.79 18.6515 Q1848.82 18.6515 1852.29 22.2973 Q1855.77 25.9431 1855.77 33.3505 Z" fill="#000000" fill-rule="nonzero" fill-opacity="1" /><path clip-path="url(#clip170)" d="M1898.36 6.87496 Q1894.48 13.53 1892.6 20.0404 Q1890.72 26.5508 1890.72 33.2348 Q1890.72 39.9188 1892.6 46.487 Q1894.51 53.0263 1898.36 59.6525 L1893.73 59.6525 Q1889.39 52.8527 1887.22 46.2845 Q1885.08 39.7162 1885.08 33.2348 Q1885.08 26.7823 1887.22 20.2429 Q1889.36 13.7036 1893.73 6.87496 L1898.36 6.87496 Z" fill="#000000" fill-rule="nonzero" fill-opacity="1" /><path clip-path="url(#clip170)" d="M1914.01 49.8435 L1914.01 64.1663 L1908.66 64.1663 L1908.66 19.6353 Q1908.66 6.44094 1920.99 6.44094 Q1933.54 6.44094 1933.54 17.5809 Q1933.54 25.5091 1928.57 28.4026 Q1936.67 31.0068 1936.67 38.7324 Q1936.67 52.4476 1922.72 52.4476 Q1916.59 52.4476 1914.01 49.8435 M1914.01 42.8991 Q1917.22 47.9048 1922.92 47.9048 Q1931.26 47.9048 1931.26 38.8192 Q1931.26 30.6596 1917.83 31.2961 L1917.83 26.3772 Q1928.33 26.3772 1928.33 17.118 Q1928.33 10.7812 1921.56 10.7812 Q1914.01 10.7812 1914.01 19.8089 L1914.01 42.8991 Z" fill="#000000" fill-rule="nonzero" fill-opacity="1" /><path clip-path="url(#clip170)" d="M1945.67 6.87496 L1950.3 6.87496 Q1954.64 13.7036 1956.78 20.2429 Q1958.95 26.7823 1958.95 33.2348 Q1958.95 39.7162 1956.78 46.2845 Q1954.64 52.8527 1950.3 59.6525 L1945.67 59.6525 Q1949.52 53.0263 1951.4 46.487 Q1953.31 39.9188 1953.31 33.2348 Q1953.31 26.5508 1951.4 20.0404 Q1949.52 13.53 1945.67 6.87496 Z" fill="#000000" fill-rule="nonzero" fill-opacity="1" /><path clip-path="url(#clip170)" d="M1995.32 6.55668 L1995.32 65.8156 L1990.4 65.8156 L1990.4 6.55668 L1995.32 6.55668 Z" fill="#000000" fill-rule="nonzero" fill-opacity="1" /><path clip-path="url(#clip170)" d="M2026.83 8.64 L2032.7 8.64 L2032.7 34.8841 Q2032.7 41.8285 2035.22 44.8956 Q2037.74 47.9338 2043.38 47.9338 Q2048.99 47.9338 2051.51 44.8956 Q2054.03 41.8285 2054.03 34.8841 L2054.03 8.64 L2059.9 8.64 L2059.9 35.6074 Q2059.9 44.0565 2055.71 48.3678 Q2051.54 52.6791 2043.38 52.6791 Q2035.19 52.6791 2031 48.3678 Q2026.83 44.0565 2026.83 35.6074 L2026.83 8.64 Z" fill="#000000" fill-rule="nonzero" fill-opacity="1" /><path clip-path="url(#clip170)" d="M2097.58 32.2799 L2097.58 51.84 L2092.25 51.84 L2092.25 32.4535 Q2092.25 27.8529 2090.46 25.567 Q2088.66 23.2811 2085.08 23.2811 Q2080.76 23.2811 2078.28 26.03 Q2075.79 28.7788 2075.79 33.5241 L2075.79 51.84 L2070.43 51.84 L2070.43 19.4328 L2075.79 19.4328 L2075.79 24.4675 Q2077.7 21.545 2080.27 20.0983 Q2082.88 18.6515 2086.26 18.6515 Q2091.85 18.6515 2094.71 22.1237 Q2097.58 25.567 2097.58 32.2799 Z" fill="#000000" fill-rule="nonzero" fill-opacity="1" /><path clip-path="url(#clip170)" d="M2108.19 19.4328 L2113.52 19.4328 L2113.52 51.84 L2108.19 51.84 L2108.19 19.4328 M2108.19 6.81709 L2113.52 6.81709 L2113.52 13.559 L2108.19 13.559 L2108.19 6.81709 Z" fill="#000000" fill-rule="nonzero" fill-opacity="1" /><path clip-path="url(#clip170)" d="M2145.98 24.3517 L2145.98 6.81709 L2151.31 6.81709 L2151.31 51.84 L2145.98 51.84 L2145.98 46.9789 Q2144.31 49.8724 2141.73 51.2902 Q2139.18 52.6791 2135.6 52.6791 Q2129.72 52.6791 2126.02 47.9916 Q2122.34 43.3042 2122.34 35.6653 Q2122.34 28.0265 2126.02 23.339 Q2129.72 18.6515 2135.6 18.6515 Q2139.18 18.6515 2141.73 20.0693 Q2144.31 21.4582 2145.98 24.3517 M2127.84 35.6653 Q2127.84 41.5391 2130.24 44.8956 Q2132.67 48.2231 2136.9 48.2231 Q2141.12 48.2231 2143.55 44.8956 Q2145.98 41.5391 2145.98 35.6653 Q2145.98 29.7915 2143.55 26.464 Q2141.12 23.1075 2136.9 23.1075 Q2132.67 23.1075 2130.24 26.464 Q2127.84 29.7915 2127.84 35.6653 Z" fill="#000000" fill-rule="nonzero" fill-opacity="1" /><path clip-path="url(#clip170)" d="M2189.99 34.3054 L2189.99 36.9095 L2165.52 36.9095 Q2165.86 42.4072 2168.81 45.3007 Q2171.79 48.1653 2177.09 48.1653 Q2180.16 48.1653 2183.02 47.4129 Q2185.91 46.6606 2188.75 45.156 L2188.75 50.1907 Q2185.89 51.406 2182.88 52.0425 Q2179.87 52.6791 2176.77 52.6791 Q2169.02 52.6791 2164.47 48.1653 Q2159.96 43.6514 2159.96 35.9547 Q2159.96 27.9975 2164.24 23.339 Q2168.55 18.6515 2175.84 18.6515 Q2182.38 18.6515 2186.17 22.876 Q2189.99 27.0716 2189.99 34.3054 M2184.67 32.7429 Q2184.61 28.3737 2182.21 25.7695 Q2179.84 23.1654 2175.9 23.1654 Q2171.45 23.1654 2168.76 25.6827 Q2166.09 28.2001 2165.69 32.7718 L2184.67 32.7429 Z" fill="#000000" fill-rule="nonzero" fill-opacity="1" /><path clip-path="url(#clip170)" d="M2225.67 32.2799 L2225.67 51.84 L2220.35 51.84 L2220.35 32.4535 Q2220.35 27.8529 2218.55 25.567 Q2216.76 23.2811 2213.17 23.2811 Q2208.86 23.2811 2206.37 26.03 Q2203.88 28.7788 2203.88 33.5241 L2203.88 51.84 L2198.53 51.84 L2198.53 19.4328 L2203.88 19.4328 L2203.88 24.4675 Q2205.79 21.545 2208.37 20.0983 Q2210.97 18.6515 2214.36 18.6515 Q2219.94 18.6515 2222.81 22.1237 Q2225.67 25.567 2225.67 32.2799 Z" fill="#000000" fill-rule="nonzero" fill-opacity="1" /><path clip-path="url(#clip170)" d="M2241.56 10.2314 L2241.56 19.4328 L2252.52 19.4328 L2252.52 23.5705 L2241.56 23.5705 L2241.56 41.163 Q2241.56 45.1271 2242.63 46.2555 Q2243.73 47.384 2247.05 47.384 L2252.52 47.384 L2252.52 51.84 L2247.05 51.84 Q2240.89 51.84 2238.55 49.5541 Q2236.2 47.2393 2236.2 41.163 L2236.2 23.5705 L2232.3 23.5705 L2232.3 19.4328 L2236.2 19.4328 L2236.2 10.2314 L2241.56 10.2314 Z" fill="#000000" fill-rule="nonzero" fill-opacity="1" /><path clip-path="url(#clip170)" d="M2259.53 19.4328 L2264.85 19.4328 L2264.85 51.84 L2259.53 51.84 L2259.53 19.4328 M2259.53 6.81709 L2264.85 6.81709 L2264.85 13.559 L2259.53 13.559 L2259.53 6.81709 Z" fill="#000000" fill-rule="nonzero" fill-opacity="1" /><path clip-path="url(#clip170)" d="M2292.4 6.81709 L2292.4 11.2442 L2287.3 11.2442 Q2284.44 11.2442 2283.31 12.4016 Q2282.21 13.559 2282.21 16.5682 L2282.21 19.4328 L2290.98 19.4328 L2290.98 23.5705 L2282.21 23.5705 L2282.21 51.84 L2276.86 51.84 L2276.86 23.5705 L2271.76 23.5705 L2271.76 19.4328 L2276.86 19.4328 L2276.86 17.1758 Q2276.86 11.765 2279.37 9.30551 Q2281.89 6.81709 2287.36 6.81709 L2292.4 6.81709 Z" fill="#000000" fill-rule="nonzero" fill-opacity="1" /><path clip-path="url(#clip170)" d="M2296.85 19.4328 L2302.18 19.4328 L2302.18 51.84 L2296.85 51.84 L2296.85 19.4328 M2296.85 6.81709 L2302.18 6.81709 L2302.18 13.559 L2296.85 13.559 L2296.85 6.81709 Z" fill="#000000" fill-rule="nonzero" fill-opacity="1" /><path clip-path="url(#clip170)" d="M2328.04 35.5496 Q2321.59 35.5496 2319.1 37.0253 Q2316.61 38.501 2316.61 42.06 Q2316.61 44.8956 2318.47 46.5738 Q2320.35 48.2231 2323.56 48.2231 Q2327.99 48.2231 2330.65 45.0981 Q2333.34 41.9442 2333.34 36.7359 L2333.34 35.5496 L2328.04 35.5496 M2338.66 33.3505 L2338.66 51.84 L2333.34 51.84 L2333.34 46.921 Q2331.52 49.8724 2328.8 51.2902 Q2326.08 52.6791 2322.14 52.6791 Q2317.16 52.6791 2314.21 49.9014 Q2311.29 47.0947 2311.29 42.4072 Q2311.29 36.9385 2314.94 34.1607 Q2318.61 31.3829 2325.87 31.3829 L2333.34 31.3829 L2333.34 30.8621 Q2333.34 27.1874 2330.91 25.1908 Q2328.51 23.1654 2324.14 23.1654 Q2321.36 23.1654 2318.73 23.8309 Q2316.09 24.4964 2313.66 25.8274 L2313.66 20.9085 Q2316.58 19.78 2319.33 19.2302 Q2322.08 18.6515 2324.69 18.6515 Q2331.72 18.6515 2335.19 22.2973 Q2338.66 25.9431 2338.66 33.3505 Z" fill="#000000" fill-rule="nonzero" fill-opacity="1" /><path clip-path="url(#clip170)" d="M2372.89 35.6653 Q2372.89 29.7915 2370.46 26.464 Q2368.06 23.1075 2363.84 23.1075 Q2359.61 23.1075 2357.18 26.464 Q2354.78 29.7915 2354.78 35.6653 Q2354.78 41.5391 2357.18 44.8956 Q2359.61 48.2231 2363.84 48.2231 Q2368.06 48.2231 2370.46 44.8956 Q2372.89 41.5391 2372.89 35.6653 M2354.78 24.3517 Q2356.46 21.4582 2359 20.0693 Q2361.58 18.6515 2365.14 18.6515 Q2371.04 18.6515 2374.72 23.339 Q2378.42 28.0265 2378.42 35.6653 Q2378.42 43.3042 2374.72 47.9916 Q2371.04 52.6791 2365.14 52.6791 Q2361.58 52.6791 2359 51.2902 Q2356.46 49.8724 2354.78 46.9789 L2354.78 51.84 L2349.43 51.84 L2349.43 6.81709 L2354.78 6.81709 L2354.78 24.3517 Z" fill="#000000" fill-rule="nonzero" fill-opacity="1" /><path clip-path="url(#clip170)" d="M2387.24 6.81709 L2392.57 6.81709 L2392.57 51.84 L2387.24 51.84 L2387.24 6.81709 Z" fill="#000000" fill-rule="nonzero" fill-opacity="1" /><path clip-path="url(#clip170)" d="M2431.43 34.3054 L2431.43 36.9095 L2406.95 36.9095 Q2407.3 42.4072 2410.25 45.3007 Q2413.23 48.1653 2418.52 48.1653 Q2421.59 48.1653 2424.45 47.4129 Q2427.35 46.6606 2430.18 45.156 L2430.18 50.1907 Q2427.32 51.406 2424.31 52.0425 Q2421.3 52.6791 2418.2 52.6791 Q2410.45 52.6791 2405.91 48.1653 Q2401.39 43.6514 2401.39 35.9547 Q2401.39 27.9975 2405.68 23.339 Q2409.99 18.6515 2417.28 18.6515 Q2423.82 18.6515 2427.61 22.876 Q2431.43 27.0716 2431.43 34.3054 M2426.1 32.7429 Q2426.05 28.3737 2423.64 25.7695 Q2421.27 23.1654 2417.34 23.1654 Q2412.88 23.1654 2410.19 25.6827 Q2407.53 28.2001 2407.12 32.7718 L2426.1 32.7429 Z" fill="#000000" fill-rule="nonzero" fill-opacity="1" /><polyline clip-path="url(#clip171)" style="stroke:#595959; stroke-linecap:round; stroke-linejoin:round; stroke-width:6.8; stroke-opacity:0.95; fill:none" points="3603.99,1679.52 3616.77,1684.28 3660.71,1712.42 3704.65,1785.58 3748.58,1937.2 3792.52,2183.35 3807.17,2231.21 "/>
<polyline clip-path="url(#clip171)" style="stroke:#595959; stroke-linecap:round; stroke-linejoin:round; stroke-width:6.8; stroke-opacity:0.95; fill:none" points="258.824,321.646 3614.47,325.878 3629.11,1684.72 3643.76,1695.23 3658.4,1709.58 3673.05,1727.3 3687.7,1749.65 3702.34,1778.09 3716.99,1816.28 3731.64,1863.69 3746.28,1922.73 3760.93,1996.21 3775.58,2081.94 3790.22,2172.52 3804.87,2233.75 3807.17,2231.21 3819.52,2145.38 3821.82,2095.18 3846.93,249.498 3851.53,465.306 3861.57,262.286 3863.45,265.047 3865.76,434.88 3876.22,279.241 3890.87,287.763 3905.51,285.002 "/>
<polyline clip-path="url(#clip171)" style="stroke:#3cb371; stroke-linecap:round; stroke-linejoin:round; stroke-width:7.2; stroke-opacity:1; fill:none" stroke-dasharray="29, 18" points="-3387.86,972.38 7552.2,972.38 "/>
<path clip-path="url(#clip171)" d="M3807.17 2213.21 L3789.17 2231.21 L3807.17 2249.21 L3825.17 2231.21 L3807.17 2213.21 Z" fill="#000000" fill-rule="evenodd" fill-opacity="1" stroke="none"/>
</svg>
