<?xml version="1.0" encoding="utf-8"?>
<svg xmlns="http://www.w3.org/2000/svg" xmlns:xlink="http://www.w3.org/1999/xlink" width="800" height="500" viewBox="0 0 3200 2000">
<defs>
  <clipPath id="clip830">
    <rect x="0" y="0" width="3200" height="2000"/>
  </clipPath>
</defs>
<path clip-path="url(#clip830)" d="M0 2000 L3200 2000 L3200 0 L0 0  Z" fill="#ffffff" fill-rule="evenodd" fill-opacity="1"/>
<defs>
  <clipPath id="clip831">
    <rect x="287" y="110" width="2803" height="1652"/>
  </clipPath>
</defs>
<path clip-path="url(#clip830)" d="M287.888 1761.32 L3089.76 1761.32 L3089.76 110.236 L287.888 110.236  Z" fill="#ffffff" fill-rule="evenodd" fill-opacity="1"/>
<polyline clip-path="url(#clip831)" style="stroke:#000000; stroke-linecap:round; stroke-linejoin:round; stroke-width:2; stroke-opacity:0.1; fill:none" points="367.187,1761.32 367.187,110.236 "/>
<polyline clip-path="url(#clip831)" style="stroke:#000000; stroke-linecap:round; stroke-linejoin:round; stroke-width:2; stroke-opacity:0.1; fill:none" points="995.84,1761.32 995.84,110.236 "/>
<polyline clip-path="url(#clip831)" style="stroke:#000000; stroke-linecap:round; stroke-linejoin:round; stroke-width:2; stroke-opacity:0.1; fill:none" points="1624.49,1761.32 1624.49,110.236 "/>
<polyline clip-path="url(#clip831)" style="stroke:#000000; stroke-linecap:round; stroke-linejoin:round; stroke-width:2; stroke-opacity:0.1; fill:none" points="2253.15,1761.32 2253.15,110.236 "/>
<polyline clip-path="url(#clip831)" style="stroke:#000000; stroke-linecap:round; stroke-linejoin:round; stroke-width:2; stroke-opacity:0.1; fill:none" points="2881.8,1761.32 2881.8,110.236 "/>
<polyline clip-path="url(#clip831)" style="stroke:#000000; stroke-linecap:round; stroke-linejoin:round; stroke-width:2; stroke-opacity:0.1; fill:none" points="287.888,1714.59 3089.76,1714.59 "/>
<polyline clip-path="url(#clip831)" style="stroke:#000000; stroke-linecap:round; stroke-linejoin:round; stroke-width:2; stroke-opacity:0.1; fill:none" points="287.888,1332.65 3089.76,1332.65 "/>
<polyline clip-path="url(#clip831)" style="stroke:#000000; stroke-linecap:round; stroke-linejoin:round; stroke-width:2; stroke-opacity:0.1; fill:none" points="287.888,950.718 3089.76,950.718 "/>
<polyline clip-path="url(#clip831)" style="stroke:#000000; stroke-linecap:round; stroke-linejoin:round; stroke-width:2; stroke-opacity:0.1; fill:none" points="287.888,568.782 3089.76,568.782 "/>
<polyline clip-path="url(#clip831)" style="stroke:#000000; stroke-linecap:round; stroke-linejoin:round; stroke-width:2; stroke-opacity:0.1; fill:none" points="287.888,186.846 3089.76,186.846 "/>
<polyline clip-path="url(#clip830)" style="stroke:#000000; stroke-linecap:round; stroke-linejoin:round; stroke-width:4; stroke-opacity:1; fill:none" points="287.888,1761.32 3089.76,1761.32 "/>
<polyline clip-path="url(#clip830)" style="stroke:#000000; stroke-linecap:round; stroke-linejoin:round; stroke-width:4; stroke-opacity:1; fill:none" points="367.187,1761.32 367.187,1742.42 "/>
<polyline clip-path="url(#clip830)" style="stroke:#000000; stroke-linecap:round; stroke-linejoin:round; stroke-width:4; stroke-opacity:1; fill:none" points="995.84,1761.32 995.84,1742.42 "/>
<polyline clip-path="url(#clip830)" style="stroke:#000000; stroke-linecap:round; stroke-linejoin:round; stroke-width:4; stroke-opacity:1; fill:none" points="1624.49,1761.32 1624.49,1742.42 "/>
<polyline clip-path="url(#clip830)" style="stroke:#000000; stroke-linecap:round; stroke-linejoin:round; stroke-width:4; stroke-opacity:1; fill:none" points="2253.15,1761.32 2253.15,1742.42 "/>
<polyline clip-path="url(#clip830)" style="stroke:#000000; stroke-linecap:round; stroke-linejoin:round; stroke-width:4; stroke-opacity:1; fill:none" points="2881.8,1761.32 2881.8,1742.42 "/>
<path clip-path="url(#clip830)" d="M367.187 1798.64 Q363.576 1798.64 361.747 1802.2 Q359.941 1805.74 359.941 1812.87 Q359.941 1819.98 361.747 1823.54 Q363.576 1827.09 367.187 1827.09 Q370.821 1827.09 372.627 1823.54 Q374.455 1819.98 374.455 1812.87 Q374.455 1805.74 372.627 1802.2 Q370.821 1798.64 367.187 1798.64 M367.187 1794.93 Q372.997 1794.93 376.052 1799.54 Q379.131 1804.12 379.131 1812.87 Q379.131 1821.6 376.052 1826.21 Q372.997 1830.79 367.187 1830.79 Q361.377 1830.79 358.298 1826.21 Q355.242 1821.6 355.242 1812.87 Q355.242 1804.12 358.298 1799.54 Q361.377 1794.93 367.187 1794.93 Z" fill="#000000" fill-rule="nonzero" fill-opacity="1" /><path clip-path="url(#clip830)" d="M975.111 1826.18 L991.431 1826.18 L991.431 1830.12 L969.486 1830.12 L969.486 1826.18 Q972.148 1823.43 976.732 1818.8 Q981.338 1814.15 982.519 1812.8 Q984.764 1810.28 985.644 1808.54 Q986.546 1806.78 986.546 1805.09 Q986.546 1802.34 984.602 1800.6 Q982.681 1798.87 979.579 1798.87 Q977.38 1798.87 974.926 1799.63 Q972.496 1800.4 969.718 1801.95 L969.718 1797.22 Q972.542 1796.09 974.996 1795.51 Q977.449 1794.93 979.486 1794.93 Q984.857 1794.93 988.051 1797.62 Q991.245 1800.3 991.245 1804.79 Q991.245 1806.92 990.435 1808.84 Q989.648 1810.74 987.542 1813.34 Q986.963 1814.01 983.861 1817.22 Q980.759 1820.42 975.111 1826.18 Z" fill="#000000" fill-rule="nonzero" fill-opacity="1" /><path clip-path="url(#clip830)" d="M1001.29 1795.56 L1019.65 1795.56 L1019.65 1799.49 L1005.57 1799.49 L1005.57 1807.97 Q1006.59 1807.62 1007.61 1807.46 Q1008.63 1807.27 1009.65 1807.27 Q1015.44 1807.27 1018.81 1810.44 Q1022.19 1813.61 1022.19 1819.03 Q1022.19 1824.61 1018.72 1827.71 Q1015.25 1830.79 1008.93 1830.79 Q1006.75 1830.79 1004.49 1830.42 Q1002.24 1830.05 999.833 1829.31 L999.833 1824.61 Q1001.92 1825.74 1004.14 1826.3 Q1006.36 1826.85 1008.84 1826.85 Q1012.84 1826.85 1015.18 1824.75 Q1017.52 1822.64 1017.52 1819.03 Q1017.52 1815.42 1015.18 1813.31 Q1012.84 1811.21 1008.84 1811.21 Q1006.96 1811.21 1005.09 1811.62 Q1003.24 1812.04 1001.29 1812.92 L1001.29 1795.56 Z" fill="#000000" fill-rule="nonzero" fill-opacity="1" /><path clip-path="url(#clip830)" d="M1599.19 1795.56 L1617.55 1795.56 L1617.55 1799.49 L1603.48 1799.49 L1603.48 1807.97 Q1604.49 1807.62 1605.51 1807.46 Q1606.53 1807.27 1607.55 1807.27 Q1613.34 1807.27 1616.72 1810.44 Q1620.1 1813.61 1620.1 1819.03 Q1620.1 1824.61 1616.62 1827.71 Q1613.15 1830.79 1606.83 1830.79 Q1604.66 1830.79 1602.39 1830.42 Q1600.14 1830.05 1597.73 1829.31 L1597.73 1824.61 Q1599.82 1825.74 1602.04 1826.3 Q1604.26 1826.85 1606.74 1826.85 Q1610.74 1826.85 1613.08 1824.75 Q1615.42 1822.64 1615.42 1819.03 Q1615.42 1815.42 1613.08 1813.31 Q1610.74 1811.21 1606.74 1811.21 Q1604.86 1811.21 1602.99 1811.62 Q1601.14 1812.04 1599.19 1812.92 L1599.19 1795.56 Z" fill="#000000" fill-rule="nonzero" fill-opacity="1" /><path clip-path="url(#clip830)" d="M1639.31 1798.64 Q1635.7 1798.64 1633.87 1802.2 Q1632.06 1805.74 1632.06 1812.87 Q1632.06 1819.98 1633.87 1823.54 Q1635.7 1827.09 1639.31 1827.09 Q1642.94 1827.09 1644.75 1823.54 Q1646.58 1819.98 1646.58 1812.87 Q1646.58 1805.74 1644.75 1802.2 Q1642.94 1798.64 1639.31 1798.64 M1639.31 1794.93 Q1645.12 1794.93 1648.17 1799.54 Q1651.25 1804.12 1651.25 1812.87 Q1651.25 1821.6 1648.17 1826.21 Q1645.12 1830.79 1639.31 1830.79 Q1633.5 1830.79 1630.42 1826.21 Q1627.36 1821.6 1627.36 1812.87 Q1627.36 1804.12 1630.42 1799.54 Q1633.5 1794.93 1639.31 1794.93 Z" fill="#000000" fill-rule="nonzero" fill-opacity="1" /><path clip-path="url(#clip830)" d="M2227 1795.56 L2249.22 1795.56 L2249.22 1797.55 L2236.68 1830.12 L2231.79 1830.12 L2243.6 1799.49 L2227 1799.49 L2227 1795.56 Z" fill="#000000" fill-rule="nonzero" fill-opacity="1" /><path clip-path="url(#clip830)" d="M2258.39 1795.56 L2276.75 1795.56 L2276.75 1799.49 L2262.67 1799.49 L2262.67 1807.97 Q2263.69 1807.62 2264.71 1807.46 Q2265.73 1807.27 2266.75 1807.27 Q2272.53 1807.27 2275.91 1810.44 Q2279.29 1813.61 2279.29 1819.03 Q2279.29 1824.61 2275.82 1827.71 Q2272.35 1830.79 2266.03 1830.79 Q2263.85 1830.79 2261.58 1830.42 Q2259.34 1830.05 2256.93 1829.31 L2256.93 1824.61 Q2259.02 1825.74 2261.24 1826.3 Q2263.46 1826.85 2265.94 1826.85 Q2269.94 1826.85 2272.28 1824.75 Q2274.62 1822.64 2274.62 1819.03 Q2274.62 1815.42 2272.28 1813.31 Q2269.94 1811.21 2265.94 1811.21 Q2264.06 1811.21 2262.19 1811.62 Q2260.33 1812.04 2258.39 1812.92 L2258.39 1795.56 Z" fill="#000000" fill-rule="nonzero" fill-opacity="1" /><path clip-path="url(#clip830)" d="M2841.41 1826.18 L2849.05 1826.18 L2849.05 1799.82 L2840.74 1801.48 L2840.74 1797.22 L2849 1795.56 L2853.68 1795.56 L2853.68 1826.18 L2861.31 1826.18 L2861.31 1830.12 L2841.41 1830.12 L2841.41 1826.18 Z" fill="#000000" fill-rule="nonzero" fill-opacity="1" /><path clip-path="url(#clip830)" d="M2880.76 1798.64 Q2877.15 1798.64 2875.32 1802.2 Q2873.51 1805.74 2873.51 1812.87 Q2873.51 1819.98 2875.32 1823.54 Q2877.15 1827.09 2880.76 1827.09 Q2884.39 1827.09 2886.2 1823.54 Q2888.03 1819.98 2888.03 1812.87 Q2888.03 1805.74 2886.2 1802.2 Q2884.39 1798.64 2880.76 1798.64 M2880.76 1794.93 Q2886.57 1794.93 2889.63 1799.54 Q2892.7 1804.12 2892.7 1812.87 Q2892.7 1821.6 2889.63 1826.21 Q2886.57 1830.79 2880.76 1830.79 Q2874.95 1830.79 2871.87 1826.21 Q2868.81 1821.6 2868.81 1812.87 Q2868.81 1804.12 2871.87 1799.54 Q2874.95 1794.93 2880.76 1794.93 Z" fill="#000000" fill-rule="nonzero" fill-opacity="1" /><path clip-path="url(#clip830)" d="M2910.92 1798.64 Q2907.31 1798.64 2905.48 1802.2 Q2903.68 1805.74 2903.68 1812.87 Q2903.68 1819.98 2905.48 1823.54 Q2907.31 1827.09 2910.92 1827.09 Q2914.56 1827.09 2916.36 1823.54 Q2918.19 1819.98 2918.19 1812.87 Q2918.19 1805.74 2916.36 1802.2 Q2914.56 1798.64 2910.92 1798.64 M2910.92 1794.93 Q2916.73 1794.93 2919.79 1799.54 Q2922.87 1804.12 2922.87 1812.87 Q2922.87 1821.6 2919.79 1826.21 Q2916.73 1830.79 2910.92 1830.79 Q2905.11 1830.79 2902.03 1826.21 Q2898.98 1821.6 2898.98 1812.87 Q2898.98 1804.12 2902.03 1799.54 Q2905.11 1794.93 2910.92 1794.93 Z" fill="#000000" fill-rule="nonzero" fill-opacity="1" /><path clip-path="url(#clip830)" d="M1555.32 1870.66 L1595.52 1870.66 L1595.52 1876.07 L1578.65 1876.07 L1578.65 1918.18 L1572.19 1918.18 L1572.19 1876.07 L1555.32 1876.07 L1555.32 1870.66 Z" fill="#000000" fill-rule="nonzero" fill-opacity="1" /><path clip-path="url(#clip830)" d="M1599.47 1882.53 L1605.32 1882.53 L1605.32 1918.18 L1599.47 1918.18 L1599.47 1882.53 M1599.47 1868.66 L1605.32 1868.66 L1605.32 1876.07 L1599.47 1876.07 L1599.47 1868.66 Z" fill="#000000" fill-rule="nonzero" fill-opacity="1" /><path clip-path="url(#clip830)" d="M1645.33 1889.38 Q1647.53 1885.43 1650.58 1883.55 Q1653.64 1881.67 1657.78 1881.67 Q1663.35 1881.67 1666.37 1885.59 Q1669.39 1889.47 1669.39 1896.67 L1669.39 1918.18 L1663.51 1918.18 L1663.51 1896.86 Q1663.51 1891.73 1661.69 1889.25 Q1659.88 1886.77 1656.15 1886.77 Q1651.6 1886.77 1648.96 1889.79 Q1646.32 1892.81 1646.32 1898.03 L1646.32 1918.18 L1640.43 1918.18 L1640.43 1896.86 Q1640.43 1891.7 1638.62 1889.25 Q1636.8 1886.77 1633.01 1886.77 Q1628.53 1886.77 1625.89 1889.82 Q1623.24 1892.85 1623.24 1898.03 L1623.24 1918.18 L1617.36 1918.18 L1617.36 1882.53 L1623.24 1882.53 L1623.24 1888.07 Q1625.25 1884.79 1628.05 1883.23 Q1630.85 1881.67 1634.7 1881.67 Q1638.58 1881.67 1641.29 1883.65 Q1644.03 1885.62 1645.33 1889.38 Z" fill="#000000" fill-rule="nonzero" fill-opacity="1" /><path clip-path="url(#clip830)" d="M1711.57 1898.89 L1711.57 1901.76 L1684.64 1901.76 Q1685.02 1907.81 1688.27 1910.99 Q1691.55 1914.14 1697.37 1914.14 Q1700.75 1914.14 1703.9 1913.31 Q1707.08 1912.48 1710.2 1910.83 L1710.2 1916.37 Q1707.05 1917.7 1703.74 1918.4 Q1700.43 1919.1 1697.02 1919.1 Q1688.49 1919.1 1683.49 1914.14 Q1678.53 1909.17 1678.53 1900.71 Q1678.53 1891.96 1683.24 1886.83 Q1687.98 1881.67 1696 1881.67 Q1703.2 1881.67 1707.37 1886.32 Q1711.57 1890.94 1711.57 1898.89 M1705.71 1897.17 Q1705.65 1892.37 1703.01 1889.5 Q1700.4 1886.64 1696.07 1886.64 Q1691.17 1886.64 1688.21 1889.41 Q1685.28 1892.18 1684.83 1897.21 L1705.71 1897.17 Z" fill="#000000" fill-rule="nonzero" fill-opacity="1" /><path clip-path="url(#clip830)" d="M1755.97 1868.72 Q1751.7 1876.04 1749.63 1883.2 Q1747.57 1890.36 1747.57 1897.72 Q1747.57 1905.07 1749.63 1912.29 Q1751.74 1919.49 1755.97 1926.78 L1750.88 1926.78 Q1746.1 1919.3 1743.71 1912.07 Q1741.36 1904.85 1741.36 1897.72 Q1741.36 1890.62 1743.71 1883.42 Q1746.07 1876.23 1750.88 1868.72 L1755.97 1868.72 Z" fill="#000000" fill-rule="nonzero" fill-opacity="1" /><path clip-path="url(#clip830)" d="M1796.96 1896.67 L1796.96 1918.18 L1791.11 1918.18 L1791.11 1896.86 Q1791.11 1891.8 1789.13 1889.28 Q1787.16 1886.77 1783.21 1886.77 Q1778.47 1886.77 1775.73 1889.79 Q1773 1892.81 1773 1898.03 L1773 1918.18 L1767.11 1918.18 L1767.11 1868.66 L1773 1868.66 L1773 1888.07 Q1775.1 1884.86 1777.93 1883.27 Q1780.79 1881.67 1784.52 1881.67 Q1790.66 1881.67 1793.81 1885.49 Q1796.96 1889.28 1796.96 1896.67 Z" fill="#000000" fill-rule="nonzero" fill-opacity="1" /><path clip-path="url(#clip830)" d="M1807.72 1868.72 L1812.81 1868.72 Q1817.59 1876.23 1819.94 1883.42 Q1822.33 1890.62 1822.33 1897.72 Q1822.33 1904.85 1819.94 1912.07 Q1817.59 1919.3 1812.81 1926.78 L1807.72 1926.78 Q1811.95 1919.49 1814.02 1912.29 Q1816.12 1905.07 1816.12 1897.72 Q1816.12 1890.36 1814.02 1883.2 Q1811.95 1876.04 1807.72 1868.72 Z" fill="#000000" fill-rule="nonzero" fill-opacity="1" /><polyline clip-path="url(#clip830)" style="stroke:#000000; stroke-linecap:round; stroke-linejoin:round; stroke-width:4; stroke-opacity:1; fill:none" points="287.888,1761.32 287.888,110.236 "/>
<polyline clip-path="url(#clip830)" style="stroke:#000000; stroke-linecap:round; stroke-linejoin:round; stroke-width:4; stroke-opacity:1; fill:none" points="287.888,1714.59 306.786,1714.59 "/>
<polyline clip-path="url(#clip830)" style="stroke:#000000; stroke-linecap:round; stroke-linejoin:round; stroke-width:4; stroke-opacity:1; fill:none" points="287.888,1332.65 306.786,1332.65 "/>
<polyline clip-path="url(#clip830)" style="stroke:#000000; stroke-linecap:round; stroke-linejoin:round; stroke-width:4; stroke-opacity:1; fill:none" points="287.888,950.718 306.786,950.718 "/>
<polyline clip-path="url(#clip830)" style="stroke:#000000; stroke-linecap:round; stroke-linejoin:round; stroke-width:4; stroke-opacity:1; fill:none" points="287.888,568.782 306.786,568.782 "/>
<polyline clip-path="url(#clip830)" style="stroke:#000000; stroke-linecap:round; stroke-linejoin:round; stroke-width:4; stroke-opacity:1; fill:none" points="287.888,186.846 306.786,186.846 "/>
<path clip-path="url(#clip830)" d="M182.713 1700.39 Q179.102 1700.39 177.273 1703.95 Q175.467 1707.49 175.467 1714.62 Q175.467 1721.73 177.273 1725.29 Q179.102 1728.84 182.713 1728.84 Q186.347 1728.84 188.153 1725.29 Q189.981 1721.73 189.981 1714.62 Q189.981 1707.49 188.153 1703.95 Q186.347 1700.39 182.713 1700.39 M182.713 1696.68 Q188.523 1696.68 191.578 1701.29 Q194.657 1705.87 194.657 1714.62 Q194.657 1723.35 191.578 1727.96 Q188.523 1732.54 182.713 1732.54 Q176.903 1732.54 173.824 1727.96 Q170.768 1723.35 170.768 1714.62 Q170.768 1705.87 173.824 1701.29 Q176.903 1696.68 182.713 1696.68 Z" fill="#000000" fill-rule="nonzero" fill-opacity="1" /><path clip-path="url(#clip830)" d="M202.875 1725.99 L207.759 1725.99 L207.759 1731.87 L202.875 1731.87 L202.875 1725.99 Z" fill="#000000" fill-rule="nonzero" fill-opacity="1" /><path clip-path="url(#clip830)" d="M227.944 1700.39 Q224.333 1700.39 222.504 1703.95 Q220.699 1707.49 220.699 1714.62 Q220.699 1721.73 222.504 1725.29 Q224.333 1728.84 227.944 1728.84 Q231.578 1728.84 233.384 1725.29 Q235.212 1721.73 235.212 1714.62 Q235.212 1707.49 233.384 1703.95 Q231.578 1700.39 227.944 1700.39 M227.944 1696.68 Q233.754 1696.68 236.81 1701.29 Q239.888 1705.87 239.888 1714.62 Q239.888 1723.35 236.81 1727.96 Q233.754 1732.54 227.944 1732.54 Q222.134 1732.54 219.055 1727.96 Q216 1723.35 216 1714.62 Q216 1705.87 219.055 1701.29 Q222.134 1696.68 227.944 1696.68 Z" fill="#000000" fill-rule="nonzero" fill-opacity="1" /><path clip-path="url(#clip830)" d="M183.94 1318.45 Q180.329 1318.45 178.5 1322.02 Q176.694 1325.56 176.694 1332.69 Q176.694 1339.79 178.5 1343.36 Q180.329 1346.9 183.94 1346.9 Q187.574 1346.9 189.379 1343.36 Q191.208 1339.79 191.208 1332.69 Q191.208 1325.56 189.379 1322.02 Q187.574 1318.45 183.94 1318.45 M183.94 1314.75 Q189.75 1314.75 192.805 1319.35 Q195.884 1323.94 195.884 1332.69 Q195.884 1341.41 192.805 1346.02 Q189.75 1350.6 183.94 1350.6 Q178.129 1350.6 175.051 1346.02 Q171.995 1341.41 171.995 1332.69 Q171.995 1323.94 175.051 1319.35 Q178.129 1314.75 183.94 1314.75 Z" fill="#000000" fill-rule="nonzero" fill-opacity="1" /><path clip-path="url(#clip830)" d="M204.102 1344.05 L208.986 1344.05 L208.986 1349.93 L204.102 1349.93 L204.102 1344.05 Z" fill="#000000" fill-rule="nonzero" fill-opacity="1" /><path clip-path="url(#clip830)" d="M219.981 1346 L227.62 1346 L227.62 1319.63 L219.31 1321.3 L219.31 1317.04 L227.574 1315.37 L232.25 1315.37 L232.25 1346 L239.888 1346 L239.888 1349.93 L219.981 1349.93 L219.981 1346 Z" fill="#000000" fill-rule="nonzero" fill-opacity="1" /><path clip-path="url(#clip830)" d="M184.31 936.516 Q180.699 936.516 178.87 940.081 Q177.065 943.623 177.065 950.752 Q177.065 957.859 178.87 961.424 Q180.699 964.965 184.31 964.965 Q187.944 964.965 189.75 961.424 Q191.578 957.859 191.578 950.752 Q191.578 943.623 189.75 940.081 Q187.944 936.516 184.31 936.516 M184.31 932.813 Q190.12 932.813 193.176 937.419 Q196.254 942.002 196.254 950.752 Q196.254 959.479 193.176 964.086 Q190.12 968.669 184.31 968.669 Q178.5 968.669 175.421 964.086 Q172.366 959.479 172.366 950.752 Q172.366 942.002 175.421 937.419 Q178.5 932.813 184.31 932.813 Z" fill="#000000" fill-rule="nonzero" fill-opacity="1" /><path clip-path="url(#clip830)" d="M204.472 962.118 L209.356 962.118 L209.356 967.998 L204.472 967.998 L204.472 962.118 Z" fill="#000000" fill-rule="nonzero" fill-opacity="1" /><path clip-path="url(#clip830)" d="M223.569 964.063 L239.888 964.063 L239.888 967.998 L217.944 967.998 L217.944 964.063 Q220.606 961.308 225.189 956.678 Q229.796 952.026 230.976 950.683 Q233.222 948.16 234.101 946.424 Q235.004 944.665 235.004 942.975 Q235.004 940.22 233.06 938.484 Q231.138 936.748 228.037 936.748 Q225.838 936.748 223.384 937.512 Q220.953 938.276 218.176 939.827 L218.176 935.104 Q221 933.97 223.453 933.391 Q225.907 932.813 227.944 932.813 Q233.314 932.813 236.509 935.498 Q239.703 938.183 239.703 942.674 Q239.703 944.803 238.893 946.725 Q238.106 948.623 236 951.215 Q235.421 951.887 232.319 955.104 Q229.217 958.299 223.569 964.063 Z" fill="#000000" fill-rule="nonzero" fill-opacity="1" /><path clip-path="url(#clip830)" d="M183.361 554.581 Q179.75 554.581 177.921 558.146 Q176.116 561.687 176.116 568.817 Q176.116 575.923 177.921 579.488 Q179.75 583.03 183.361 583.03 Q186.995 583.03 188.801 579.488 Q190.629 575.923 190.629 568.817 Q190.629 561.687 188.801 558.146 Q186.995 554.581 183.361 554.581 M183.361 550.877 Q189.171 550.877 192.227 555.484 Q195.305 560.067 195.305 568.817 Q195.305 577.544 192.227 582.15 Q189.171 586.733 183.361 586.733 Q177.551 586.733 174.472 582.15 Q171.417 577.544 171.417 568.817 Q171.417 560.067 174.472 555.484 Q177.551 550.877 183.361 550.877 Z" fill="#000000" fill-rule="nonzero" fill-opacity="1" /><path clip-path="url(#clip830)" d="M203.523 580.182 L208.407 580.182 L208.407 586.062 L203.523 586.062 L203.523 580.182 Z" fill="#000000" fill-rule="nonzero" fill-opacity="1" /><path clip-path="url(#clip830)" d="M232.759 567.428 Q236.115 568.146 237.99 570.414 Q239.888 572.683 239.888 576.016 Q239.888 581.132 236.37 583.932 Q232.851 586.733 226.37 586.733 Q224.194 586.733 221.879 586.294 Q219.588 585.877 217.134 585.02 L217.134 580.507 Q219.078 581.641 221.393 582.22 Q223.708 582.798 226.231 582.798 Q230.629 582.798 232.921 581.062 Q235.236 579.326 235.236 576.016 Q235.236 572.96 233.083 571.247 Q230.953 569.511 227.134 569.511 L223.106 569.511 L223.106 565.669 L227.319 565.669 Q230.768 565.669 232.597 564.303 Q234.425 562.914 234.425 560.321 Q234.425 557.659 232.527 556.247 Q230.652 554.812 227.134 554.812 Q225.213 554.812 223.013 555.229 Q220.814 555.646 218.176 556.525 L218.176 552.359 Q220.838 551.618 223.152 551.247 Q225.49 550.877 227.55 550.877 Q232.875 550.877 235.976 553.308 Q239.078 555.715 239.078 559.835 Q239.078 562.706 237.435 564.696 Q235.791 566.664 232.759 567.428 Z" fill="#000000" fill-rule="nonzero" fill-opacity="1" /><path clip-path="url(#clip830)" d="M182.227 172.645 Q178.616 172.645 176.787 176.21 Q174.981 179.752 174.981 186.881 Q174.981 193.988 176.787 197.552 Q178.616 201.094 182.227 201.094 Q185.861 201.094 187.666 197.552 Q189.495 193.988 189.495 186.881 Q189.495 179.752 187.666 176.21 Q185.861 172.645 182.227 172.645 M182.227 168.941 Q188.037 168.941 191.092 173.548 Q194.171 178.131 194.171 186.881 Q194.171 195.608 191.092 200.214 Q188.037 204.798 182.227 204.798 Q176.417 204.798 173.338 200.214 Q170.282 195.608 170.282 186.881 Q170.282 178.131 173.338 173.548 Q176.417 168.941 182.227 168.941 Z" fill="#000000" fill-rule="nonzero" fill-opacity="1" /><path clip-path="url(#clip830)" d="M202.389 198.247 L207.273 198.247 L207.273 204.126 L202.389 204.126 L202.389 198.247 Z" fill="#000000" fill-rule="nonzero" fill-opacity="1" /><path clip-path="url(#clip830)" d="M230.305 173.641 L218.5 192.089 L230.305 192.089 L230.305 173.641 M229.078 169.566 L234.958 169.566 L234.958 192.089 L239.888 192.089 L239.888 195.978 L234.958 195.978 L234.958 204.126 L230.305 204.126 L230.305 195.978 L214.703 195.978 L214.703 191.464 L229.078 169.566 Z" fill="#000000" fill-rule="nonzero" fill-opacity="1" /><path clip-path="url(#clip830)" d="M73.747 1119.4 L79.2215 1119.4 Q77.8528 1121.88 77.1844 1124.39 Q76.4842 1126.88 76.4842 1129.42 Q76.4842 1135.12 80.1127 1138.27 Q83.7093 1141.42 90.2341 1141.42 Q96.759 1141.42 100.387 1138.27 Q103.984 1135.12 103.984 1129.42 Q103.984 1126.88 103.316 1124.39 Q102.615 1121.88 101.247 1119.4 L106.658 1119.4 Q107.803 1121.85 108.376 1124.49 Q108.949 1127.1 108.949 1130.06 Q108.949 1138.11 103.889 1142.85 Q98.8278 1147.6 90.2341 1147.6 Q81.5131 1147.6 76.516 1142.82 Q71.519 1138.02 71.519 1129.68 Q71.519 1126.97 72.0919 1124.39 Q72.633 1121.81 73.747 1119.4 Z" fill="#000000" fill-rule="nonzero" fill-opacity="1" /><path clip-path="url(#clip830)" d="M60.5063 1115.54 L60.5063 1075.35 L65.9171 1075.35 L65.9171 1092.21 L108.026 1092.21 L108.026 1098.68 L65.9171 1098.68 L65.9171 1115.54 L60.5063 1115.54 Z" fill="#000000" fill-rule="nonzero" fill-opacity="1" /><path clip-path="url(#clip830)" d="M86.5102 1039.76 L108.026 1039.76 L108.026 1045.62 L86.7012 1045.62 Q81.6404 1045.62 79.126 1047.59 Q76.6115 1049.56 76.6115 1053.51 Q76.6115 1058.25 79.6352 1060.99 Q82.6589 1063.73 87.8788 1063.73 L108.026 1063.73 L108.026 1069.62 L72.3783 1069.62 L72.3783 1063.73 L77.9165 1063.73 Q74.7018 1061.63 73.1104 1058.79 Q71.519 1055.93 71.519 1052.21 Q71.519 1046.06 75.3384 1042.91 Q79.126 1039.76 86.5102 1039.76 Z" fill="#000000" fill-rule="nonzero" fill-opacity="1" /><path clip-path="url(#clip830)" d="M60.5063 1034.41 L60.5063 994.214 L65.9171 994.214 L65.9171 1011.08 L108.026 1011.08 L108.026 1017.54 L65.9171 1017.54 L65.9171 1034.41 L60.5063 1034.41 Z" fill="#000000" fill-rule="nonzero" fill-opacity="1" /><path clip-path="url(#clip830)" d="M58.5011 968.083 L58.5011 954.588 L63.0526 954.588 L63.0526 962.226 L112.069 962.226 L112.069 954.588 L116.62 954.588 L116.62 968.083 L58.5011 968.083 Z" fill="#000000" fill-rule="nonzero" fill-opacity="1" /><path clip-path="url(#clip830)" d="M86.5102 912.478 L108.026 912.478 L108.026 918.335 L86.7012 918.335 Q81.6404 918.335 79.126 920.308 Q76.6115 922.282 76.6115 926.228 Q76.6115 930.971 79.6352 933.708 Q82.6589 936.445 87.8788 936.445 L108.026 936.445 L108.026 942.334 L72.3783 942.334 L72.3783 936.445 L77.9165 936.445 Q74.7018 934.345 73.1104 931.512 Q71.519 928.647 71.519 924.923 Q71.519 918.781 75.3384 915.63 Q79.126 912.478 86.5102 912.478 Z" fill="#000000" fill-rule="nonzero" fill-opacity="1" /><path clip-path="url(#clip830)" d="M89.7885 877.34 Q83.4228 877.34 79.9217 879.982 Q76.4206 882.591 76.4206 887.334 Q76.4206 892.045 79.9217 894.686 Q83.4228 897.296 89.7885 897.296 Q96.1224 897.296 99.6236 894.686 Q103.125 892.045 103.125 887.334 Q103.125 882.591 99.6236 879.982 Q96.1224 877.34 89.7885 877.34 M103.602 871.483 Q112.705 871.483 117.129 875.526 Q121.585 879.568 121.585 887.907 Q121.585 890.994 121.108 893.731 Q120.662 896.469 119.707 899.047 L114.01 899.047 Q115.411 896.469 116.079 893.954 Q116.747 891.44 116.747 888.83 Q116.747 883.069 113.724 880.204 Q110.732 877.34 104.652 877.34 L101.756 877.34 Q104.907 879.154 106.467 881.987 Q108.026 884.819 108.026 888.766 Q108.026 895.323 103.029 899.333 Q98.0321 903.344 89.7885 903.344 Q81.5131 903.344 76.516 899.333 Q71.519 895.323 71.519 888.766 Q71.519 884.819 73.0786 881.987 Q74.6382 879.154 77.7892 877.34 L72.3783 877.34 L72.3783 871.483 L103.602 871.483 Z" fill="#000000" fill-rule="nonzero" fill-opacity="1" /><path clip-path="url(#clip830)" d="M60.5063 849.012 L60.5063 843.602 L114.074 860.152 L114.074 865.563 L60.5063 849.012 Z" fill="#000000" fill-rule="nonzero" fill-opacity="1" /><path clip-path="url(#clip830)" d="M79.2215 809.704 Q75.2747 807.508 73.3968 804.452 Q71.519 801.397 71.519 797.259 Q71.519 791.689 75.4339 788.665 Q79.3169 785.642 86.5102 785.642 L108.026 785.642 L108.026 791.53 L86.7012 791.53 Q81.5768 791.53 79.0941 793.344 Q76.6115 795.159 76.6115 798.882 Q76.6115 803.434 79.6352 806.076 Q82.6589 808.717 87.8788 808.717 L108.026 808.717 L108.026 814.606 L86.7012 814.606 Q81.5449 814.606 79.0941 816.42 Q76.6115 818.234 76.6115 822.022 Q76.6115 826.51 79.6671 829.151 Q82.6908 831.793 87.8788 831.793 L108.026 831.793 L108.026 837.681 L72.3783 837.681 L72.3783 831.793 L77.9165 831.793 Q74.6382 829.788 73.0786 826.987 Q71.519 824.186 71.519 820.335 Q71.519 816.452 73.4923 813.746 Q75.4657 811.009 79.2215 809.704 Z" fill="#000000" fill-rule="nonzero" fill-opacity="1" /><path clip-path="url(#clip830)" d="M60.5063 773.706 L60.5063 767.277 L102.615 767.277 L102.615 744.137 L108.026 744.137 L108.026 773.706 L60.5063 773.706 Z" fill="#000000" fill-rule="nonzero" fill-opacity="1" /><path clip-path="url(#clip830)" d="M58.5011 723.958 L116.62 723.958 L116.62 737.453 L112.069 737.453 L112.069 729.846 L63.0526 729.846 L63.0526 737.453 L58.5011 737.453 L58.5011 723.958 Z" fill="#000000" fill-rule="nonzero" fill-opacity="1" /><circle clip-path="url(#clip831)" cx="513.453" cy="530.589" r="21.6" fill="#ff0000" fill-rule="evenodd" fill-opacity="1" stroke="#000000" stroke-opacity="1" stroke-width="6"/>
<circle clip-path="url(#clip831)" cx="692.829" cy="530.589" r="21.6" fill="#ff0000" fill-rule="evenodd" fill-opacity="1" stroke="#000000" stroke-opacity="1" stroke-width="6"/>
<circle clip-path="url(#clip831)" cx="1317.29" cy="377.814" r="21.6" fill="#ff0000" fill-rule="evenodd" fill-opacity="1" stroke="#000000" stroke-opacity="1" stroke-width="6"/>
<circle clip-path="url(#clip831)" cx="1996.24" cy="339.621" r="21.6" fill="#ff0000" fill-rule="evenodd" fill-opacity="1" stroke="#000000" stroke-opacity="1" stroke-width="6"/>
<circle clip-path="url(#clip831)" cx="2507.54" cy="683.363" r="21.6" fill="#ff0000" fill-rule="evenodd" fill-opacity="1" stroke="#000000" stroke-opacity="1" stroke-width="6"/>
<polyline clip-path="url(#clip831)" style="stroke:#0000ff; stroke-linecap:round; stroke-linejoin:round; stroke-width:8; stroke-opacity:1; fill:none" points="367.187,1714.59 392.333,1309.41 417.479,1019.63 442.625,815.482 467.771,674.799 492.917,581.043 518.064,521.879 543.21,488.097 568.356,472.811 593.502,470.861 618.648,478.367 643.794,492.402 668.94,510.74 694.087,531.675 719.233,553.886 744.379,576.334 769.525,598.191 794.671,618.785 819.817,637.562 844.963,654.059 870.11,667.887 895.256,678.717 920.402,686.277 945.548,690.35 970.694,690.772 995.84,687.434 1020.99,680.289 1046.13,669.353 1071.28,654.71 1096.42,636.514 1121.57,614.991 1146.72,590.435 1171.86,563.21 1197.01,533.743 1222.16,502.512 1247.3,470.04 1272.45,436.88 1297.59,403.6 1322.74,370.766 1347.89,338.931 1373.03,308.61 1398.18,280.273 1423.32,254.327 1448.47,231.112 1473.62,210.886 1498.76,193.828 1523.91,180.037 1549.06,169.534 1574.2,162.271 1599.35,158.135 1624.49,156.965 1649.64,158.559 1674.79,162.688 1699.93,169.104 1725.08,177.554 1750.22,187.787 1775.37,199.559 1800.52,212.643 1825.66,226.826 1850.81,241.919 1875.96,257.752 1901.1,274.175 1926.25,291.061 1951.39,308.297 1976.54,325.79 2001.69,343.461 2026.83,361.243 2051.98,379.081 2077.12,396.93 2102.27,414.751 2127.42,432.513 2152.56,450.19 2177.71,467.761 2202.86,485.208 2228,502.518 2253.15,519.677 2278.29,536.677 2303.44,553.509 2328.59,570.168 2353.73,586.647 2378.88,602.943 2404.02,619.053 2429.17,634.973 2454.32,650.703 2479.46,666.241 2504.61,681.585 2529.75,696.736 2554.9,711.693 2580.05,726.456 2605.19,741.026 2630.34,755.404 2655.49,769.59 2680.63,783.585 2705.78,797.39 2730.92,811.007 2756.07,824.437 2781.22,837.681 2806.36,850.742 2831.51,863.62 2856.65,876.318 2881.8,888.837 2906.95,901.178 2932.09,913.345 2957.24,925.338 2982.39,937.16 3007.53,948.813 3010.47,950.161 "/>
<polyline clip-path="url(#clip831)" style="stroke:#ff8c00; stroke-linecap:round; stroke-linejoin:round; stroke-width:8; stroke-opacity:1; fill:none" stroke-dasharray="32, 20" points="367.187,1714.59 392.333,1257.94 417.479,954.481 442.625,756.598 467.771,631.215 492.917,555.369 518.064,513.12 543.21,493.403 568.356,488.537 593.502,493.183 618.648,503.63 643.794,517.287 668.94,532.339 694.087,547.508 719.233,561.886 744.379,574.823 769.525,585.852 794.671,594.64 819.817,600.959 844.963,604.663 870.11,605.681 895.256,604.009 920.402,599.708 945.548,592.898 970.694,583.753 995.84,572.496 1020.99,559.389 1046.13,544.722 1071.28,528.803 1096.42,511.95 1121.57,494.475 1146.72,476.682 1171.86,458.854 1197.01,441.251 1222.16,424.106 1247.3,407.621 1272.45,391.968 1297.59,377.288 1322.74,363.693 1347.89,351.27 1373.03,340.08 1398.18,330.163 1423.32,321.537 1448.47,314.209 1473.62,308.165 1498.76,303.386 1523.91,299.839 1549.06,297.485 1574.2,296.279 1599.35,296.171 1624.49,297.111 1649.64,299.042 1674.79,301.911 1699.93,305.66 1725.08,310.236 1750.22,315.583 1775.37,321.649 1800.52,328.381 1825.66,335.73 1850.81,343.649 1875.96,352.091 1901.1,361.012 1926.25,370.372 1951.39,380.131 1976.54,390.252 2001.69,400.7 2026.83,411.442 2051.98,422.448 2077.12,433.688 2102.27,445.136 2127.42,456.768 2152.56,468.558 2177.71,480.485 2202.86,492.53 2228,504.674 2253.15,516.899 2278.29,529.189 2303.44,541.53 2328.59,553.907 2353.73,566.309 2378.88,578.725 2404.02,591.142 2429.17,603.553 2454.32,615.948 2479.46,628.319 2504.61,640.66 2529.75,652.965 2554.9,665.225 2580.05,677.438 2605.19,689.599 2630.34,701.703 2655.49,713.746 2680.63,725.727 2705.78,737.642 2730.92,749.488 2756.07,761.265 2781.22,772.971 2806.36,784.603 2831.51,796.163 2856.65,807.649 2881.8,819.06 2906.95,830.397 2932.09,841.659 2957.24,852.847 2982.39,863.963 3007.53,875.005 3010.47,876.288 "/>
<path clip-path="url(#clip830)" d="M2302.56 456.872 L2996.37 456.872 L2996.37 165.272 L2302.56 165.272  Z" fill="#ffffff" fill-rule="evenodd" fill-opacity="1"/>
<polyline clip-path="url(#clip830)" style="stroke:#000000; stroke-linecap:round; stroke-linejoin:round; stroke-width:4; stroke-opacity:1; fill:none" points="2302.56,456.872 2996.37,456.872 2996.37,165.272 2302.56,165.272 2302.56,456.872 "/>
<path clip-path="url(#clip830)" d="M2476.03 209.335 L2465.36 238.657 L2486.74 238.657 L2476.03 209.335 M2458.22 243.032 L2473.07 204.152 L2479.03 204.152 L2493.85 243.032 L2458.22 243.032 Z" fill="#000000" fill-rule="nonzero" fill-opacity="1" /><path clip-path="url(#clip830)" d="M2517.91 214.725 L2517.91 219.256 Q2515.88 218.215 2513.69 217.694 Q2511.5 217.173 2509.16 217.173 Q2505.59 217.173 2503.8 218.267 Q2502.02 219.361 2502.02 221.548 Q2502.02 223.215 2503.3 224.178 Q2504.58 225.116 2508.43 225.975 L2510.07 226.34 Q2515.18 227.433 2517.31 229.439 Q2519.47 231.418 2519.47 234.985 Q2519.47 239.048 2516.24 241.418 Q2513.04 243.787 2507.42 243.787 Q2505.07 243.787 2502.52 243.319 Q2499.99 242.876 2497.18 241.965 L2497.18 237.017 Q2499.84 238.397 2502.42 239.1 Q2504.99 239.777 2507.52 239.777 Q2510.9 239.777 2512.73 238.631 Q2514.55 237.459 2514.55 235.35 Q2514.55 233.397 2513.22 232.355 Q2511.92 231.314 2507.47 230.35 L2505.8 229.959 Q2501.35 229.022 2499.37 227.095 Q2497.39 225.142 2497.39 221.756 Q2497.39 217.642 2500.31 215.402 Q2503.22 213.163 2508.59 213.163 Q2511.24 213.163 2513.59 213.553 Q2515.93 213.944 2517.91 214.725 Z" fill="#000000" fill-rule="nonzero" fill-opacity="1" /><path clip-path="url(#clip830)" d="M2527.31 204.152 L2535.15 204.152 L2545.07 230.61 L2555.04 204.152 L2562.88 204.152 L2562.88 243.032 L2557.75 243.032 L2557.75 208.892 L2547.73 235.558 L2542.44 235.558 L2532.41 208.892 L2532.41 243.032 L2527.31 243.032 L2527.31 204.152 Z" fill="#000000" fill-rule="nonzero" fill-opacity="1" /><path clip-path="url(#clip830)" d="M2586.32 209.335 L2579.19 228.683 L2593.48 228.683 L2586.32 209.335 M2583.35 204.152 L2589.32 204.152 L2604.13 243.032 L2598.66 243.032 L2595.12 233.058 L2577.6 233.058 L2574.06 243.032 L2568.51 243.032 L2583.35 204.152 Z" fill="#000000" fill-rule="nonzero" fill-opacity="1" /><path clip-path="url(#clip830)" d="M2615.07 208.475 L2615.07 223.084 L2621.69 223.084 Q2625.36 223.084 2627.36 221.183 Q2629.37 219.282 2629.37 215.767 Q2629.37 212.277 2627.36 210.376 Q2625.36 208.475 2621.69 208.475 L2615.07 208.475 M2609.81 204.152 L2621.69 204.152 Q2628.22 204.152 2631.55 207.121 Q2634.91 210.064 2634.91 215.767 Q2634.91 221.522 2631.55 224.465 Q2628.22 227.407 2621.69 227.407 L2615.07 227.407 L2615.07 243.032 L2609.81 243.032 L2609.81 204.152 Z" fill="#000000" fill-rule="nonzero" fill-opacity="1" /><path clip-path="url(#clip830)" d="M2641.97 204.152 L2666.55 204.152 L2666.55 208.579 L2647.23 208.579 L2647.23 220.09 L2665.75 220.09 L2665.75 224.517 L2647.23 224.517 L2647.23 238.605 L2667.02 238.605 L2667.02 243.032 L2641.97 243.032 L2641.97 204.152 Z" fill="#000000" fill-rule="nonzero" fill-opacity="1" /><path clip-path="url(#clip830)" d="M2676.68 236.418 L2682.18 236.418 L2682.18 243.032 L2676.68 243.032 L2676.68 236.418 M2676.68 215.454 L2682.18 215.454 L2682.18 222.069 L2676.68 222.069 L2676.68 215.454 Z" fill="#000000" fill-rule="nonzero" fill-opacity="1" /><path clip-path="url(#clip830)" d="M2715.59 238.605 L2733.95 238.605 L2733.95 243.032 L2709.26 243.032 L2709.26 238.605 Q2712.26 235.506 2717.41 230.298 Q2722.6 225.064 2723.92 223.553 Q2726.45 220.715 2727.44 218.762 Q2728.46 216.782 2728.46 214.881 Q2728.46 211.782 2726.27 209.829 Q2724.11 207.876 2720.62 207.876 Q2718.14 207.876 2715.38 208.736 Q2712.65 209.595 2709.52 211.34 L2709.52 206.027 Q2712.7 204.751 2715.46 204.1 Q2718.22 203.449 2720.51 203.449 Q2726.55 203.449 2730.15 206.47 Q2733.74 209.491 2733.74 214.543 Q2733.74 216.939 2732.83 219.1 Q2731.95 221.236 2729.58 224.152 Q2728.92 224.907 2725.43 228.527 Q2721.95 232.121 2715.59 238.605 Z" fill="#000000" fill-rule="nonzero" fill-opacity="1" /><path clip-path="url(#clip830)" d="M2744.99 236.418 L2750.49 236.418 L2750.49 243.032 L2744.99 243.032 L2744.99 236.418 Z" fill="#000000" fill-rule="nonzero" fill-opacity="1" /><path clip-path="url(#clip830)" d="M2766.48 238.605 L2784.84 238.605 L2784.84 243.032 L2760.15 243.032 L2760.15 238.605 Q2763.14 235.506 2768.3 230.298 Q2773.48 225.064 2774.81 223.553 Q2777.34 220.715 2778.33 218.762 Q2779.34 216.782 2779.34 214.881 Q2779.34 211.782 2777.15 209.829 Q2774.99 207.876 2771.5 207.876 Q2769.03 207.876 2766.27 208.736 Q2763.53 209.595 2760.41 211.34 L2760.41 206.027 Q2763.59 204.751 2766.35 204.1 Q2769.11 203.449 2771.4 203.449 Q2777.44 203.449 2781.03 206.47 Q2784.63 209.491 2784.63 214.543 Q2784.63 216.939 2783.72 219.1 Q2782.83 221.236 2780.46 224.152 Q2779.81 224.907 2776.32 228.527 Q2772.83 232.121 2766.48 238.605 Z" fill="#000000" fill-rule="nonzero" fill-opacity="1" /><path clip-path="url(#clip830)" d="M2807.13 224.569 Q2803.38 224.569 2801.22 226.574 Q2799.08 228.579 2799.08 232.095 Q2799.08 235.61 2801.22 237.616 Q2803.38 239.621 2807.13 239.621 Q2810.88 239.621 2813.04 237.616 Q2815.2 235.584 2815.2 232.095 Q2815.2 228.579 2813.04 226.574 Q2810.9 224.569 2807.13 224.569 M2801.87 222.329 Q2798.48 221.496 2796.58 219.178 Q2794.71 216.861 2794.71 213.527 Q2794.71 208.866 2798.01 206.157 Q2801.35 203.449 2807.13 203.449 Q2812.93 203.449 2816.24 206.157 Q2819.55 208.866 2819.55 213.527 Q2819.55 216.861 2817.65 219.178 Q2815.77 221.496 2812.41 222.329 Q2816.22 223.215 2818.32 225.793 Q2820.46 228.371 2820.46 232.095 Q2820.46 237.746 2817 240.767 Q2813.56 243.787 2807.13 243.787 Q2800.69 243.787 2797.23 240.767 Q2793.79 237.746 2793.79 232.095 Q2793.79 228.371 2795.93 225.793 Q2798.06 223.215 2801.87 222.329 M2799.94 214.022 Q2799.94 217.043 2801.81 218.736 Q2803.72 220.428 2807.13 220.428 Q2810.51 220.428 2812.41 218.736 Q2814.34 217.043 2814.34 214.022 Q2814.34 211.001 2812.41 209.308 Q2810.51 207.616 2807.13 207.616 Q2803.72 207.616 2801.81 209.308 Q2799.94 211.001 2799.94 214.022 Z" fill="#000000" fill-rule="nonzero" fill-opacity="1" /><path clip-path="url(#clip830)" d="M2862.88 225.923 Q2860.62 225.923 2859.31 227.85 Q2858.04 229.777 2858.04 233.215 Q2858.04 236.6 2859.31 238.553 Q2860.62 240.48 2862.88 240.48 Q2865.1 240.48 2866.37 238.553 Q2867.67 236.6 2867.67 233.215 Q2867.67 229.803 2866.37 227.876 Q2865.1 225.923 2862.88 225.923 M2862.88 222.616 Q2867 222.616 2869.42 225.48 Q2871.84 228.345 2871.84 233.215 Q2871.84 238.084 2869.39 240.949 Q2866.97 243.787 2862.88 243.787 Q2858.72 243.787 2856.29 240.949 Q2853.87 238.084 2853.87 233.215 Q2853.87 228.319 2856.29 225.48 Q2858.74 222.616 2862.88 222.616 M2836.01 206.756 Q2833.77 206.756 2832.47 208.71 Q2831.19 210.637 2831.19 214.022 Q2831.19 217.459 2832.47 219.387 Q2833.74 221.314 2836.01 221.314 Q2838.27 221.314 2839.55 219.387 Q2840.85 217.459 2840.85 214.022 Q2840.85 210.663 2839.55 208.71 Q2838.25 206.756 2836.01 206.756 M2859.52 203.449 L2863.69 203.449 L2839.37 243.787 L2835.2 243.787 L2859.52 203.449 M2836.01 203.449 Q2840.12 203.449 2842.57 206.314 Q2845.02 209.152 2845.02 214.022 Q2845.02 218.944 2842.57 221.782 Q2840.15 224.621 2836.01 224.621 Q2831.87 224.621 2829.44 221.782 Q2827.05 218.918 2827.05 214.022 Q2827.05 209.178 2829.47 206.314 Q2831.89 203.449 2836.01 203.449 Z" fill="#000000" fill-rule="nonzero" fill-opacity="1" /><circle clip-path="url(#clip830)" cx="2427.09" cy="281.912" r="20.48" fill="#ff0000" fill-rule="evenodd" fill-opacity="1" stroke="#000000" stroke-opacity="1" stroke-width="5.68889"/>
<path clip-path="url(#clip830)" d="M2567.64 267.804 Q2562.54 267.804 2559.54 271.6 Q2556.55 275.396 2556.55 281.947 Q2556.55 288.475 2559.54 292.271 Q2562.54 296.067 2567.64 296.067 Q2572.73 296.067 2575.69 292.271 Q2578.68 288.475 2578.68 281.947 Q2578.68 275.396 2575.69 271.6 Q2572.73 267.804 2567.64 267.804 M2567.64 264.007 Q2574.91 264.007 2579.26 268.892 Q2583.61 273.753 2583.61 281.947 Q2583.61 290.118 2579.26 295.002 Q2574.91 299.864 2567.64 299.864 Q2560.35 299.864 2555.97 295.002 Q2551.62 290.141 2551.62 281.947 Q2551.62 273.753 2555.97 268.892 Q2560.35 264.007 2567.64 264.007 Z" fill="#000000" fill-rule="nonzero" fill-opacity="1" /><path clip-path="url(#clip830)" d="M2609.35 286.253 Q2609.35 281.553 2607.41 278.891 Q2605.48 276.206 2602.1 276.206 Q2598.72 276.206 2596.78 278.891 Q2594.86 281.553 2594.86 286.253 Q2594.86 290.952 2596.78 293.637 Q2598.72 296.299 2602.1 296.299 Q2605.48 296.299 2607.41 293.637 Q2609.35 290.952 2609.35 286.253 M2594.86 277.202 Q2596.2 274.887 2598.24 273.776 Q2600.3 272.641 2603.15 272.641 Q2607.87 272.641 2610.81 276.391 Q2613.77 280.141 2613.77 286.253 Q2613.77 292.364 2610.81 296.114 Q2607.87 299.864 2603.15 299.864 Q2600.3 299.864 2598.24 298.752 Q2596.2 297.618 2594.86 295.303 L2594.86 299.192 L2590.58 299.192 L2590.58 263.174 L2594.86 263.174 L2594.86 277.202 Z" fill="#000000" fill-rule="nonzero" fill-opacity="1" /><path clip-path="url(#clip830)" d="M2637.36 274.03 L2637.36 278.058 Q2635.55 277.132 2633.61 276.669 Q2631.66 276.206 2629.58 276.206 Q2626.41 276.206 2624.81 277.178 Q2623.24 278.151 2623.24 280.095 Q2623.24 281.577 2624.37 282.433 Q2625.51 283.266 2628.93 284.03 L2630.39 284.354 Q2634.93 285.327 2636.83 287.109 Q2638.75 288.868 2638.75 292.04 Q2638.75 295.651 2635.88 297.757 Q2633.03 299.864 2628.03 299.864 Q2625.95 299.864 2623.68 299.447 Q2621.43 299.053 2618.93 298.243 L2618.93 293.845 Q2621.29 295.072 2623.59 295.697 Q2625.88 296.299 2628.12 296.299 Q2631.13 296.299 2632.75 295.28 Q2634.37 294.239 2634.37 292.364 Q2634.37 290.628 2633.19 289.702 Q2632.03 288.776 2628.08 287.919 L2626.59 287.572 Q2622.64 286.739 2620.88 285.026 Q2619.12 283.29 2619.12 280.28 Q2619.12 276.623 2621.71 274.632 Q2624.3 272.641 2629.07 272.641 Q2631.43 272.641 2633.52 272.989 Q2635.6 273.336 2637.36 274.03 Z" fill="#000000" fill-rule="nonzero" fill-opacity="1" /><path clip-path="url(#clip830)" d="M2667.71 285.165 L2667.71 287.248 L2648.12 287.248 Q2648.4 291.646 2650.76 293.961 Q2653.15 296.252 2657.38 296.252 Q2659.84 296.252 2662.13 295.651 Q2664.44 295.049 2666.71 293.845 L2666.71 297.873 Q2664.42 298.845 2662.01 299.354 Q2659.6 299.864 2657.13 299.864 Q2650.92 299.864 2647.29 296.252 Q2643.68 292.641 2643.68 286.484 Q2643.68 280.118 2647.1 276.391 Q2650.55 272.641 2656.39 272.641 Q2661.62 272.641 2664.65 276.021 Q2667.71 279.378 2667.71 285.165 M2663.45 283.915 Q2663.4 280.419 2661.48 278.336 Q2659.58 276.253 2656.43 276.253 Q2652.87 276.253 2650.72 278.266 Q2648.59 280.28 2648.26 283.938 L2663.45 283.915 Z" fill="#000000" fill-rule="nonzero" fill-opacity="1" /><path clip-path="url(#clip830)" d="M2689.72 277.248 Q2689 276.831 2688.15 276.646 Q2687.31 276.438 2686.29 276.438 Q2682.68 276.438 2680.74 278.799 Q2678.82 281.137 2678.82 285.535 L2678.82 299.192 L2674.53 299.192 L2674.53 273.266 L2678.82 273.266 L2678.82 277.294 Q2680.16 274.933 2682.31 273.799 Q2684.46 272.641 2687.54 272.641 Q2687.98 272.641 2688.52 272.711 Q2689.05 272.757 2689.7 272.873 L2689.72 277.248 Z" fill="#000000" fill-rule="nonzero" fill-opacity="1" /><path clip-path="url(#clip830)" d="M2691.13 273.266 L2695.65 273.266 L2703.75 295.026 L2711.85 273.266 L2716.36 273.266 L2706.64 299.192 L2700.85 299.192 L2691.13 273.266 Z" fill="#000000" fill-rule="nonzero" fill-opacity="1" /><path clip-path="url(#clip830)" d="M2734.02 286.16 Q2728.86 286.16 2726.87 287.34 Q2724.88 288.521 2724.88 291.368 Q2724.88 293.637 2726.36 294.979 Q2727.87 296.299 2730.44 296.299 Q2733.98 296.299 2736.11 293.799 Q2738.26 291.276 2738.26 287.109 L2738.26 286.16 L2734.02 286.16 M2742.52 284.401 L2742.52 299.192 L2738.26 299.192 L2738.26 295.257 Q2736.8 297.618 2734.63 298.752 Q2732.45 299.864 2729.3 299.864 Q2725.32 299.864 2722.96 297.641 Q2720.62 295.396 2720.62 291.646 Q2720.62 287.271 2723.54 285.049 Q2726.48 282.827 2732.29 282.827 L2738.26 282.827 L2738.26 282.41 Q2738.26 279.47 2736.32 277.873 Q2734.4 276.253 2730.9 276.253 Q2728.68 276.253 2726.57 276.785 Q2724.46 277.317 2722.52 278.382 L2722.52 274.447 Q2724.86 273.544 2727.06 273.104 Q2729.26 272.641 2731.34 272.641 Q2736.96 272.641 2739.74 275.558 Q2742.52 278.475 2742.52 284.401 Z" fill="#000000" fill-rule="nonzero" fill-opacity="1" /><path clip-path="url(#clip830)" d="M2755.51 265.905 L2755.51 273.266 L2764.28 273.266 L2764.28 276.577 L2755.51 276.577 L2755.51 290.651 Q2755.51 293.822 2756.36 294.725 Q2757.24 295.627 2759.9 295.627 L2764.28 295.627 L2764.28 299.192 L2759.9 299.192 Q2754.97 299.192 2753.1 297.364 Q2751.22 295.512 2751.22 290.651 L2751.22 276.577 L2748.1 276.577 L2748.1 273.266 L2751.22 273.266 L2751.22 265.905 L2755.51 265.905 Z" fill="#000000" fill-rule="nonzero" fill-opacity="1" /><path clip-path="url(#clip830)" d="M2769.88 273.266 L2774.14 273.266 L2774.14 299.192 L2769.88 299.192 L2769.88 273.266 M2769.88 263.174 L2774.14 263.174 L2774.14 268.567 L2769.88 268.567 L2769.88 263.174 Z" fill="#000000" fill-rule="nonzero" fill-opacity="1" /><path clip-path="url(#clip830)" d="M2793.1 276.253 Q2789.67 276.253 2787.68 278.938 Q2785.69 281.6 2785.69 286.253 Q2785.69 290.905 2787.66 293.59 Q2789.65 296.252 2793.1 296.252 Q2796.5 296.252 2798.49 293.567 Q2800.48 290.882 2800.48 286.253 Q2800.48 281.646 2798.49 278.961 Q2796.5 276.253 2793.1 276.253 M2793.1 272.641 Q2798.65 272.641 2801.83 276.253 Q2805 279.864 2805 286.253 Q2805 292.618 2801.83 296.252 Q2798.65 299.864 2793.1 299.864 Q2787.52 299.864 2784.35 296.252 Q2781.2 292.618 2781.2 286.253 Q2781.2 279.864 2784.35 276.253 Q2787.52 272.641 2793.1 272.641 Z" fill="#000000" fill-rule="nonzero" fill-opacity="1" /><path clip-path="url(#clip830)" d="M2833.61 283.544 L2833.61 299.192 L2829.35 299.192 L2829.35 283.683 Q2829.35 280.003 2827.91 278.174 Q2826.48 276.345 2823.61 276.345 Q2820.16 276.345 2818.17 278.544 Q2816.18 280.743 2816.18 284.54 L2816.18 299.192 L2811.89 299.192 L2811.89 273.266 L2816.18 273.266 L2816.18 277.294 Q2817.7 274.956 2819.77 273.799 Q2821.85 272.641 2824.56 272.641 Q2829.02 272.641 2831.32 275.419 Q2833.61 278.174 2833.61 283.544 Z" fill="#000000" fill-rule="nonzero" fill-opacity="1" /><polyline clip-path="url(#clip830)" style="stroke:#0000ff; stroke-linecap:round; stroke-linejoin:round; stroke-width:8; stroke-opacity:1; fill:none" points="2333.69,340.232 2520.49,340.232 "/>
<path clip-path="url(#clip830)" d="M2567.64 326.124 Q2562.54 326.124 2559.54 329.92 Q2556.55 333.716 2556.55 340.267 Q2556.55 346.795 2559.54 350.591 Q2562.54 354.387 2567.64 354.387 Q2572.73 354.387 2575.69 350.591 Q2578.68 346.795 2578.68 340.267 Q2578.68 333.716 2575.69 329.92 Q2572.73 326.124 2567.64 326.124 M2567.64 322.327 Q2574.91 322.327 2579.26 327.212 Q2583.61 332.073 2583.61 340.267 Q2583.61 348.438 2579.26 353.322 Q2574.91 358.184 2567.64 358.184 Q2560.35 358.184 2555.97 353.322 Q2551.62 348.461 2551.62 340.267 Q2551.62 332.073 2555.97 327.212 Q2560.35 322.327 2567.64 322.327 Z" fill="#000000" fill-rule="nonzero" fill-opacity="1" /><path clip-path="url(#clip830)" d="M2595.6 326.795 L2595.6 353.67 L2601.25 353.67 Q2608.4 353.67 2611.71 350.429 Q2615.04 347.188 2615.04 340.198 Q2615.04 333.253 2611.71 330.036 Q2608.4 326.795 2601.25 326.795 L2595.6 326.795 M2590.92 322.952 L2600.53 322.952 Q2610.58 322.952 2615.28 327.142 Q2619.97 331.309 2619.97 340.198 Q2619.97 349.133 2615.25 353.322 Q2610.53 357.512 2600.53 357.512 L2590.92 357.512 L2590.92 322.952 Z" fill="#000000" fill-rule="nonzero" fill-opacity="1" /><path clip-path="url(#clip830)" d="M2627.43 322.952 L2649.28 322.952 L2649.28 326.887 L2632.1 326.887 L2632.1 337.119 L2648.56 337.119 L2648.56 341.054 L2632.1 341.054 L2632.1 353.577 L2649.7 353.577 L2649.7 357.512 L2627.43 357.512 L2627.43 322.952 Z" fill="#000000" fill-rule="nonzero" fill-opacity="1" /><polyline clip-path="url(#clip830)" style="stroke:#ff8c00; stroke-linecap:round; stroke-linejoin:round; stroke-width:8; stroke-opacity:1; fill:none" stroke-dasharray="32, 20" points="2333.69,398.552 2520.49,398.552 "/>
<path clip-path="url(#clip830)" d="M2572.13 390.902 L2572.13 394.883 Q2570.32 393.888 2568.49 393.402 Q2566.69 392.893 2564.84 392.893 Q2560.69 392.893 2558.4 395.531 Q2556.11 398.147 2556.11 402.893 Q2556.11 407.638 2558.4 410.277 Q2560.69 412.892 2564.84 412.892 Q2566.69 412.892 2568.49 412.406 Q2570.32 411.897 2572.13 410.902 L2572.13 414.837 Q2570.35 415.67 2568.42 416.087 Q2566.53 416.504 2564.37 416.504 Q2558.52 416.504 2555.07 412.823 Q2551.62 409.142 2551.62 402.893 Q2551.62 396.55 2555.09 392.916 Q2558.59 389.281 2564.65 389.281 Q2566.62 389.281 2568.49 389.698 Q2570.37 390.092 2572.13 390.902 Z" fill="#000000" fill-rule="nonzero" fill-opacity="1" /><path clip-path="url(#clip830)" d="M2579.19 381.272 L2583.89 381.272 L2583.89 402.268 Q2583.89 407.823 2585.9 410.277 Q2587.91 412.707 2592.43 412.707 Q2596.92 412.707 2598.93 410.277 Q2600.95 407.823 2600.95 402.268 L2600.95 381.272 L2605.65 381.272 L2605.65 402.846 Q2605.65 409.605 2602.29 413.055 Q2598.96 416.504 2592.43 416.504 Q2585.88 416.504 2582.52 413.055 Q2579.19 409.605 2579.19 402.846 L2579.19 381.272 Z" fill="#000000" fill-rule="nonzero" fill-opacity="1" /><path clip-path="url(#clip830)" d="M2619.09 385.115 L2619.09 411.99 L2624.74 411.99 Q2631.9 411.99 2635.21 408.749 Q2638.54 405.508 2638.54 398.518 Q2638.54 391.573 2635.21 388.356 Q2631.9 385.115 2624.74 385.115 L2619.09 385.115 M2614.42 381.272 L2624.03 381.272 Q2634.07 381.272 2638.77 385.462 Q2643.47 389.629 2643.47 398.518 Q2643.47 407.453 2638.75 411.642 Q2634.03 415.832 2624.03 415.832 L2614.42 415.832 L2614.42 381.272 Z" fill="#000000" fill-rule="nonzero" fill-opacity="1" /><path clip-path="url(#clip830)" d="M2650.92 381.272 L2672.78 381.272 L2672.78 385.207 L2655.6 385.207 L2655.6 395.439 L2672.06 395.439 L2672.06 399.374 L2655.6 399.374 L2655.6 411.897 L2673.19 411.897 L2673.19 415.832 L2650.92 415.832 L2650.92 381.272 Z" fill="#000000" fill-rule="nonzero" fill-opacity="1" /></svg>
