<?xml version="1.0" encoding="utf-8"?>
<svg xmlns="http://www.w3.org/2000/svg" xmlns:xlink="http://www.w3.org/1999/xlink" width="600" height="400" viewBox="0 0 2400 1600">
<defs>
  <clipPath id="clip370">
    <rect x="0" y="0" width="2400" height="1600"/>
  </clipPath>
</defs>
<path clip-path="url(#clip370)" d="M0 1600 L2400 1600 L2400 0 L0 0  Z" fill="#ffffff" fill-rule="evenodd" fill-opacity="1"/>
<defs>
  <clipPath id="clip371">
    <rect x="219" y="123" width="2134" height="1301"/>
  </clipPath>
</defs>
<path clip-path="url(#clip370)" d="M174.149 1423.18 L2352.76 1423.18 L2352.76 123.472 L174.149 123.472  Z" fill="#ffffff" fill-rule="evenodd" fill-opacity="1"/>
<defs>
  <clipPath id="clip372">
    <rect x="174" y="123" width="2180" height="1301"/>
  </clipPath>
</defs>
<polyline clip-path="url(#clip372)" style="stroke:#000000; stroke-linecap:round; stroke-linejoin:round; stroke-width:2; stroke-opacity:0.1; fill:none" points="235.808,1423.18 235.808,123.472 "/>
<polyline clip-path="url(#clip372)" style="stroke:#000000; stroke-linecap:round; stroke-linejoin:round; stroke-width:2; stroke-opacity:0.1; fill:none" points="730.422,1423.18 730.422,123.472 "/>
<polyline clip-path="url(#clip372)" style="stroke:#000000; stroke-linecap:round; stroke-linejoin:round; stroke-width:2; stroke-opacity:0.1; fill:none" points="1225.04,1423.18 1225.04,123.472 "/>
<polyline clip-path="url(#clip372)" style="stroke:#000000; stroke-linecap:round; stroke-linejoin:round; stroke-width:2; stroke-opacity:0.1; fill:none" points="1719.65,1423.18 1719.65,123.472 "/>
<polyline clip-path="url(#clip372)" style="stroke:#000000; stroke-linecap:round; stroke-linejoin:round; stroke-width:2; stroke-opacity:0.1; fill:none" points="2214.27,1423.18 2214.27,123.472 "/>
<polyline clip-path="url(#clip372)" style="stroke:#000000; stroke-linecap:round; stroke-linejoin:round; stroke-width:2; stroke-opacity:0.1; fill:none" points="174.149,1386.4 2352.76,1386.4 "/>
<polyline clip-path="url(#clip372)" style="stroke:#000000; stroke-linecap:round; stroke-linejoin:round; stroke-width:2; stroke-opacity:0.1; fill:none" points="174.149,1006.32 2352.76,1006.32 "/>
<polyline clip-path="url(#clip372)" style="stroke:#000000; stroke-linecap:round; stroke-linejoin:round; stroke-width:2; stroke-opacity:0.1; fill:none" points="174.149,626.248 2352.76,626.248 "/>
<polyline clip-path="url(#clip372)" style="stroke:#000000; stroke-linecap:round; stroke-linejoin:round; stroke-width:2; stroke-opacity:0.1; fill:none" points="174.149,246.175 2352.76,246.175 "/>
<polyline clip-path="url(#clip370)" style="stroke:#000000; stroke-linecap:round; stroke-linejoin:round; stroke-width:4; stroke-opacity:1; fill:none" points="174.149,1423.18 2352.76,1423.18 "/>
<polyline clip-path="url(#clip370)" style="stroke:#000000; stroke-linecap:round; stroke-linejoin:round; stroke-width:4; stroke-opacity:1; fill:none" points="235.808,1423.18 235.808,1404.28 "/>
<polyline clip-path="url(#clip370)" style="stroke:#000000; stroke-linecap:round; stroke-linejoin:round; stroke-width:4; stroke-opacity:1; fill:none" points="730.422,1423.18 730.422,1404.28 "/>
<polyline clip-path="url(#clip370)" style="stroke:#000000; stroke-linecap:round; stroke-linejoin:round; stroke-width:4; stroke-opacity:1; fill:none" points="1225.04,1423.18 1225.04,1404.28 "/>
<polyline clip-path="url(#clip370)" style="stroke:#000000; stroke-linecap:round; stroke-linejoin:round; stroke-width:4; stroke-opacity:1; fill:none" points="1719.65,1423.18 1719.65,1404.28 "/>
<polyline clip-path="url(#clip370)" style="stroke:#000000; stroke-linecap:round; stroke-linejoin:round; stroke-width:4; stroke-opacity:1; fill:none" points="2214.27,1423.18 2214.27,1404.28 "/>
<path clip-path="url(#clip370)" d="M235.808 1454.1 Q232.197 1454.1 230.368 1457.66 Q228.562 1461.2 228.562 1468.33 Q228.562 1475.44 230.368 1479.01 Q232.197 1482.55 235.808 1482.55 Q239.442 1482.55 241.247 1479.01 Q243.076 1475.44 243.076 1468.33 Q243.076 1461.2 241.247 1457.66 Q239.442 1454.1 235.808 1454.1 M235.808 1450.39 Q241.618 1450.39 244.673 1455 Q247.752 1459.58 247.752 1468.33 Q247.752 1477.06 244.673 1481.67 Q241.618 1486.25 235.808 1486.25 Q229.997 1486.25 226.919 1481.67 Q223.863 1477.06 223.863 1468.33 Q223.863 1459.58 226.919 1455 Q229.997 1450.39 235.808 1450.39 Z" fill="#000000" fill-rule="nonzero" fill-opacity="1" /><path clip-path="url(#clip370)" d="M709.693 1481.64 L726.013 1481.64 L726.013 1485.58 L704.068 1485.58 L704.068 1481.64 Q706.73 1478.89 711.314 1474.26 Q715.92 1469.61 717.101 1468.27 Q719.346 1465.74 720.226 1464.01 Q721.129 1462.25 721.129 1460.56 Q721.129 1457.8 719.184 1456.07 Q717.263 1454.33 714.161 1454.33 Q711.962 1454.33 709.508 1455.09 Q707.078 1455.86 704.3 1457.41 L704.3 1452.69 Q707.124 1451.55 709.578 1450.97 Q712.031 1450.39 714.068 1450.39 Q719.439 1450.39 722.633 1453.08 Q725.828 1455.77 725.828 1460.26 Q725.828 1462.39 725.017 1464.31 Q724.23 1466.2 722.124 1468.8 Q721.545 1469.47 718.443 1472.69 Q715.342 1475.88 709.693 1481.64 Z" fill="#000000" fill-rule="nonzero" fill-opacity="1" /><path clip-path="url(#clip370)" d="M735.874 1451.02 L754.23 1451.02 L754.23 1454.96 L740.156 1454.96 L740.156 1463.43 Q741.175 1463.08 742.193 1462.92 Q743.212 1462.73 744.23 1462.73 Q750.017 1462.73 753.397 1465.9 Q756.776 1469.08 756.776 1474.49 Q756.776 1480.07 753.304 1483.17 Q749.832 1486.25 743.513 1486.25 Q741.337 1486.25 739.068 1485.88 Q736.823 1485.51 734.415 1484.77 L734.415 1480.07 Q736.499 1481.2 738.721 1481.76 Q740.943 1482.32 743.42 1482.32 Q747.425 1482.32 749.763 1480.21 Q752.101 1478.1 752.101 1474.49 Q752.101 1470.88 749.763 1468.77 Q747.425 1466.67 743.42 1466.67 Q741.545 1466.67 739.67 1467.08 Q737.818 1467.5 735.874 1468.38 L735.874 1451.02 Z" fill="#000000" fill-rule="nonzero" fill-opacity="1" /><path clip-path="url(#clip370)" d="M1199.74 1451.02 L1218.09 1451.02 L1218.09 1454.96 L1204.02 1454.96 L1204.02 1463.43 Q1205.04 1463.08 1206.06 1462.92 Q1207.07 1462.73 1208.09 1462.73 Q1213.88 1462.73 1217.26 1465.9 Q1220.64 1469.08 1220.64 1474.49 Q1220.64 1480.07 1217.17 1483.17 Q1213.69 1486.25 1207.38 1486.25 Q1205.2 1486.25 1202.93 1485.88 Q1200.69 1485.51 1198.28 1484.77 L1198.28 1480.07 Q1200.36 1481.2 1202.58 1481.76 Q1204.81 1482.32 1207.28 1482.32 Q1211.29 1482.32 1213.63 1480.21 Q1215.96 1478.1 1215.96 1474.49 Q1215.96 1470.88 1213.63 1468.77 Q1211.29 1466.67 1207.28 1466.67 Q1205.41 1466.67 1203.53 1467.08 Q1201.68 1467.5 1199.74 1468.38 L1199.74 1451.02 Z" fill="#000000" fill-rule="nonzero" fill-opacity="1" /><path clip-path="url(#clip370)" d="M1239.85 1454.1 Q1236.24 1454.1 1234.41 1457.66 Q1232.61 1461.2 1232.61 1468.33 Q1232.61 1475.44 1234.41 1479.01 Q1236.24 1482.55 1239.85 1482.55 Q1243.49 1482.55 1245.29 1479.01 Q1247.12 1475.44 1247.12 1468.33 Q1247.12 1461.2 1245.29 1457.66 Q1243.49 1454.1 1239.85 1454.1 M1239.85 1450.39 Q1245.66 1450.39 1248.72 1455 Q1251.8 1459.58 1251.8 1468.33 Q1251.8 1477.06 1248.72 1481.67 Q1245.66 1486.25 1239.85 1486.25 Q1234.04 1486.25 1230.96 1481.67 Q1227.91 1477.06 1227.91 1468.33 Q1227.91 1459.58 1230.96 1455 Q1234.04 1450.39 1239.85 1450.39 Z" fill="#000000" fill-rule="nonzero" fill-opacity="1" /><path clip-path="url(#clip370)" d="M1693.51 1451.02 L1715.73 1451.02 L1715.73 1453.01 L1703.18 1485.58 L1698.3 1485.58 L1710.1 1454.96 L1693.51 1454.96 L1693.51 1451.02 Z" fill="#000000" fill-rule="nonzero" fill-opacity="1" /><path clip-path="url(#clip370)" d="M1724.9 1451.02 L1743.25 1451.02 L1743.25 1454.96 L1729.18 1454.96 L1729.18 1463.43 Q1730.2 1463.08 1731.21 1462.92 Q1732.23 1462.73 1733.25 1462.73 Q1739.04 1462.73 1742.42 1465.9 Q1745.8 1469.08 1745.8 1474.49 Q1745.8 1480.07 1742.33 1483.17 Q1738.85 1486.25 1732.53 1486.25 Q1730.36 1486.25 1728.09 1485.88 Q1725.84 1485.51 1723.44 1484.77 L1723.44 1480.07 Q1725.52 1481.2 1727.74 1481.76 Q1729.96 1482.32 1732.44 1482.32 Q1736.45 1482.32 1738.78 1480.21 Q1741.12 1478.1 1741.12 1474.49 Q1741.12 1470.88 1738.78 1468.77 Q1736.45 1466.67 1732.44 1466.67 Q1730.57 1466.67 1728.69 1467.08 Q1726.84 1467.5 1724.9 1468.38 L1724.9 1451.02 Z" fill="#000000" fill-rule="nonzero" fill-opacity="1" /><path clip-path="url(#clip370)" d="M2173.87 1481.64 L2181.51 1481.64 L2181.51 1455.28 L2173.2 1456.95 L2173.2 1452.69 L2181.47 1451.02 L2186.14 1451.02 L2186.14 1481.64 L2193.78 1481.64 L2193.78 1485.58 L2173.87 1485.58 L2173.87 1481.64 Z" fill="#000000" fill-rule="nonzero" fill-opacity="1" /><path clip-path="url(#clip370)" d="M2213.23 1454.1 Q2209.61 1454.1 2207.79 1457.66 Q2205.98 1461.2 2205.98 1468.33 Q2205.98 1475.44 2207.79 1479.01 Q2209.61 1482.55 2213.23 1482.55 Q2216.86 1482.55 2218.67 1479.01 Q2220.49 1475.44 2220.49 1468.33 Q2220.49 1461.2 2218.67 1457.66 Q2216.86 1454.1 2213.23 1454.1 M2213.23 1450.39 Q2219.04 1450.39 2222.09 1455 Q2225.17 1459.58 2225.17 1468.33 Q2225.17 1477.06 2222.09 1481.67 Q2219.04 1486.25 2213.23 1486.25 Q2207.42 1486.25 2204.34 1481.67 Q2201.28 1477.06 2201.28 1468.33 Q2201.28 1459.58 2204.34 1455 Q2207.42 1450.39 2213.23 1450.39 Z" fill="#000000" fill-rule="nonzero" fill-opacity="1" /><path clip-path="url(#clip370)" d="M2243.39 1454.1 Q2239.78 1454.1 2237.95 1457.66 Q2236.14 1461.2 2236.14 1468.33 Q2236.14 1475.44 2237.95 1479.01 Q2239.78 1482.55 2243.39 1482.55 Q2247.02 1482.55 2248.83 1479.01 Q2250.66 1475.44 2250.66 1468.33 Q2250.66 1461.2 2248.83 1457.66 Q2247.02 1454.1 2243.39 1454.1 M2243.39 1450.39 Q2249.2 1450.39 2252.25 1455 Q2255.33 1459.58 2255.33 1468.33 Q2255.33 1477.06 2252.25 1481.67 Q2249.2 1486.25 2243.39 1486.25 Q2237.58 1486.25 2234.5 1481.67 Q2231.44 1477.06 2231.44 1468.33 Q2231.44 1459.58 2234.5 1455 Q2237.58 1450.39 2243.39 1450.39 Z" fill="#000000" fill-rule="nonzero" fill-opacity="1" /><path clip-path="url(#clip370)" d="M1129.95 1520.52 L1170.15 1520.52 L1170.15 1525.93 L1153.28 1525.93 L1153.28 1568.04 L1146.82 1568.04 L1146.82 1525.93 L1129.95 1525.93 L1129.95 1520.52 Z" fill="#000000" fill-rule="nonzero" fill-opacity="1" /><path clip-path="url(#clip370)" d="M1174.09 1532.4 L1179.95 1532.4 L1179.95 1568.04 L1174.09 1568.04 L1174.09 1532.4 M1174.09 1518.52 L1179.95 1518.52 L1179.95 1525.93 L1174.09 1525.93 L1174.09 1518.52 Z" fill="#000000" fill-rule="nonzero" fill-opacity="1" /><path clip-path="url(#clip370)" d="M1219.96 1539.24 Q1222.15 1535.29 1225.21 1533.41 Q1228.27 1531.54 1232.4 1531.54 Q1237.97 1531.54 1241 1535.45 Q1244.02 1539.33 1244.02 1546.53 L1244.02 1568.04 L1238.13 1568.04 L1238.13 1546.72 Q1238.13 1541.59 1236.32 1539.11 Q1234.5 1536.63 1230.78 1536.63 Q1226.23 1536.63 1223.59 1539.65 Q1220.95 1542.68 1220.95 1547.9 L1220.95 1568.04 L1215.06 1568.04 L1215.06 1546.72 Q1215.06 1541.56 1213.24 1539.11 Q1211.43 1536.63 1207.64 1536.63 Q1203.15 1536.63 1200.51 1539.68 Q1197.87 1542.71 1197.87 1547.9 L1197.87 1568.04 L1191.98 1568.04 L1191.98 1532.4 L1197.87 1532.4 L1197.87 1537.93 Q1199.87 1534.66 1202.68 1533.1 Q1205.48 1531.54 1209.33 1531.54 Q1213.21 1531.54 1215.92 1533.51 Q1218.65 1535.48 1219.96 1539.24 Z" fill="#000000" fill-rule="nonzero" fill-opacity="1" /><path clip-path="url(#clip370)" d="M1286.19 1548.76 L1286.19 1551.62 L1259.27 1551.62 Q1259.65 1557.67 1262.9 1560.85 Q1266.17 1564 1272 1564 Q1275.37 1564 1278.52 1563.17 Q1281.71 1562.35 1284.83 1560.69 L1284.83 1566.23 Q1281.67 1567.57 1278.36 1568.27 Q1275.05 1568.97 1271.65 1568.97 Q1263.12 1568.97 1258.12 1564 Q1253.16 1559.04 1253.16 1550.57 Q1253.16 1541.82 1257.87 1536.69 Q1262.61 1531.54 1270.63 1531.54 Q1277.82 1531.54 1281.99 1536.18 Q1286.19 1540.8 1286.19 1548.76 M1280.34 1547.04 Q1280.27 1542.23 1277.63 1539.37 Q1275.02 1536.5 1270.69 1536.5 Q1265.79 1536.5 1262.83 1539.27 Q1259.9 1542.04 1259.46 1547.07 L1280.34 1547.04 Z" fill="#000000" fill-rule="nonzero" fill-opacity="1" /><path clip-path="url(#clip370)" d="M1330.59 1518.58 Q1326.33 1525.9 1324.26 1533.06 Q1322.19 1540.23 1322.19 1547.58 Q1322.19 1554.93 1324.26 1562.16 Q1326.36 1569.35 1330.59 1576.64 L1325.5 1576.64 Q1320.73 1569.16 1318.34 1561.93 Q1315.99 1554.71 1315.99 1547.58 Q1315.99 1540.48 1318.34 1533.29 Q1320.7 1526.09 1325.5 1518.58 L1330.59 1518.58 Z" fill="#000000" fill-rule="nonzero" fill-opacity="1" /><path clip-path="url(#clip370)" d="M1371.59 1546.53 L1371.59 1568.04 L1365.73 1568.04 L1365.73 1546.72 Q1365.73 1541.66 1363.76 1539.14 Q1361.79 1536.63 1357.84 1536.63 Q1353.1 1536.63 1350.36 1539.65 Q1347.62 1542.68 1347.62 1547.9 L1347.62 1568.04 L1341.73 1568.04 L1341.73 1518.52 L1347.62 1518.52 L1347.62 1537.93 Q1349.72 1534.72 1352.56 1533.13 Q1355.42 1531.54 1359.14 1531.54 Q1365.29 1531.54 1368.44 1535.36 Q1371.59 1539.14 1371.59 1546.53 Z" fill="#000000" fill-rule="nonzero" fill-opacity="1" /><path clip-path="url(#clip370)" d="M1382.35 1518.58 L1387.44 1518.58 Q1392.21 1526.09 1394.57 1533.29 Q1396.96 1540.48 1396.96 1547.58 Q1396.96 1554.71 1394.57 1561.93 Q1392.21 1569.16 1387.44 1576.64 L1382.35 1576.64 Q1386.58 1569.35 1388.65 1562.16 Q1390.75 1554.93 1390.75 1547.58 Q1390.75 1540.23 1388.65 1533.06 Q1386.58 1525.9 1382.35 1518.58 Z" fill="#000000" fill-rule="nonzero" fill-opacity="1" /><polyline clip-path="url(#clip370)" style="stroke:#000000; stroke-linecap:round; stroke-linejoin:round; stroke-width:4; stroke-opacity:1; fill:none" points="174.149,1423.18 174.149,123.472 "/>
<polyline clip-path="url(#clip370)" style="stroke:#000000; stroke-linecap:round; stroke-linejoin:round; stroke-width:4; stroke-opacity:1; fill:none" points="174.149,1386.4 193.047,1386.4 "/>
<polyline clip-path="url(#clip370)" style="stroke:#000000; stroke-linecap:round; stroke-linejoin:round; stroke-width:4; stroke-opacity:1; fill:none" points="174.149,1006.32 193.047,1006.32 "/>
<polyline clip-path="url(#clip370)" style="stroke:#000000; stroke-linecap:round; stroke-linejoin:round; stroke-width:4; stroke-opacity:1; fill:none" points="174.149,626.248 193.047,626.248 "/>
<polyline clip-path="url(#clip370)" style="stroke:#000000; stroke-linecap:round; stroke-linejoin:round; stroke-width:4; stroke-opacity:1; fill:none" points="174.149,246.175 193.047,246.175 "/>
<path clip-path="url(#clip370)" d="M126.205 1372.19 Q122.593 1372.19 120.765 1375.76 Q118.959 1379.3 118.959 1386.43 Q118.959 1393.54 120.765 1397.1 Q122.593 1400.64 126.205 1400.64 Q129.839 1400.64 131.644 1397.1 Q133.473 1393.54 133.473 1386.43 Q133.473 1379.3 131.644 1375.76 Q129.839 1372.19 126.205 1372.19 M126.205 1368.49 Q132.015 1368.49 135.07 1373.1 Q138.149 1377.68 138.149 1386.43 Q138.149 1395.16 135.07 1399.76 Q132.015 1404.35 126.205 1404.35 Q120.394 1404.35 117.316 1399.76 Q114.26 1395.16 114.26 1386.43 Q114.26 1377.68 117.316 1373.1 Q120.394 1368.49 126.205 1368.49 Z" fill="#000000" fill-rule="nonzero" fill-opacity="1" /><path clip-path="url(#clip370)" d="M118.242 1019.67 L125.88 1019.67 L125.88 993.301 L117.57 994.968 L117.57 990.709 L125.834 989.042 L130.51 989.042 L130.51 1019.67 L138.149 1019.67 L138.149 1023.6 L118.242 1023.6 L118.242 1019.67 Z" fill="#000000" fill-rule="nonzero" fill-opacity="1" /><path clip-path="url(#clip370)" d="M121.83 639.593 L138.149 639.593 L138.149 643.528 L116.205 643.528 L116.205 639.593 Q118.867 636.839 123.45 632.209 Q128.056 627.556 129.237 626.214 Q131.482 623.69 132.362 621.954 Q133.265 620.195 133.265 618.505 Q133.265 615.751 131.32 614.015 Q129.399 612.278 126.297 612.278 Q124.098 612.278 121.644 613.042 Q119.214 613.806 116.436 615.357 L116.436 610.635 Q119.26 609.501 121.714 608.922 Q124.168 608.343 126.205 608.343 Q131.575 608.343 134.769 611.028 Q137.964 613.714 137.964 618.204 Q137.964 620.334 137.154 622.255 Q136.367 624.153 134.26 626.746 Q133.681 627.417 130.58 630.635 Q127.478 633.829 121.83 639.593 Z" fill="#000000" fill-rule="nonzero" fill-opacity="1" /><path clip-path="url(#clip370)" d="M131.019 244.82 Q134.376 245.538 136.251 247.807 Q138.149 250.075 138.149 253.408 Q138.149 258.524 134.63 261.325 Q131.112 264.126 124.63 264.126 Q122.455 264.126 120.14 263.686 Q117.848 263.269 115.394 262.413 L115.394 257.899 Q117.339 259.033 119.654 259.612 Q121.968 260.191 124.492 260.191 Q128.89 260.191 131.181 258.455 Q133.496 256.719 133.496 253.408 Q133.496 250.353 131.343 248.64 Q129.214 246.904 125.394 246.904 L121.367 246.904 L121.367 243.061 L125.58 243.061 Q129.029 243.061 130.857 241.695 Q132.686 240.307 132.686 237.714 Q132.686 235.052 130.788 233.64 Q128.913 232.205 125.394 232.205 Q123.473 232.205 121.274 232.621 Q119.075 233.038 116.436 233.918 L116.436 229.751 Q119.098 229.01 121.413 228.64 Q123.751 228.27 125.811 228.27 Q131.135 228.27 134.237 230.7 Q137.339 233.108 137.339 237.228 Q137.339 240.098 135.695 242.089 Q134.052 244.057 131.019 244.82 Z" fill="#000000" fill-rule="nonzero" fill-opacity="1" /><path clip-path="url(#clip370)" d="M29.7248 956.945 L35.1993 956.945 Q33.8307 959.427 33.1623 961.942 Q32.4621 964.424 32.4621 966.971 Q32.4621 972.668 36.0905 975.819 Q39.6872 978.97 46.212 978.97 Q52.7369 978.97 56.3653 975.819 Q59.9619 972.668 59.9619 966.971 Q59.9619 964.424 59.2935 961.942 Q58.5933 959.427 57.2247 956.945 L62.6355 956.945 Q63.7814 959.396 64.3543 962.037 Q64.9272 964.647 64.9272 967.607 Q64.9272 975.66 59.8664 980.402 Q54.8057 985.145 46.212 985.145 Q37.491 985.145 32.4939 980.371 Q27.4968 975.564 27.4968 967.225 Q27.4968 964.52 28.0697 961.942 Q28.6108 959.364 29.7248 956.945 Z" fill="#000000" fill-rule="nonzero" fill-opacity="1" /><path clip-path="url(#clip370)" d="M16.4842 953.094 L16.4842 912.894 L21.895 912.894 L21.895 929.763 L64.0042 929.763 L64.0042 936.224 L21.895 936.224 L21.895 953.094 L16.4842 953.094 Z" fill="#000000" fill-rule="nonzero" fill-opacity="1" /><path clip-path="url(#clip370)" d="M42.4881 877.31 L64.0042 877.31 L64.0042 883.166 L42.679 883.166 Q37.6183 883.166 35.1038 885.14 Q32.5894 887.113 32.5894 891.06 Q32.5894 895.802 35.6131 898.539 Q38.6368 901.277 43.8567 901.277 L64.0042 901.277 L64.0042 907.165 L28.3562 907.165 L28.3562 901.277 L33.8944 901.277 Q30.6797 899.176 29.0883 896.343 Q27.4968 893.479 27.4968 889.755 Q27.4968 883.612 31.3163 880.461 Q35.1038 877.31 42.4881 877.31 Z" fill="#000000" fill-rule="nonzero" fill-opacity="1" /><path clip-path="url(#clip370)" d="M16.4842 871.963 L16.4842 831.763 L21.895 831.763 L21.895 848.632 L64.0042 848.632 L64.0042 855.093 L21.895 855.093 L21.895 871.963 L16.4842 871.963 Z" fill="#000000" fill-rule="nonzero" fill-opacity="1" /><path clip-path="url(#clip370)" d="M14.479 805.632 L14.479 792.137 L19.0304 792.137 L19.0304 799.775 L68.0464 799.775 L68.0464 792.137 L72.5979 792.137 L72.5979 805.632 L14.479 805.632 Z" fill="#000000" fill-rule="nonzero" fill-opacity="1" /><path clip-path="url(#clip370)" d="M42.4881 750.027 L64.0042 750.027 L64.0042 755.884 L42.679 755.884 Q37.6183 755.884 35.1038 757.857 Q32.5894 759.831 32.5894 763.777 Q32.5894 768.52 35.6131 771.257 Q38.6368 773.994 43.8567 773.994 L64.0042 773.994 L64.0042 779.883 L28.3562 779.883 L28.3562 773.994 L33.8944 773.994 Q30.6797 771.894 29.0883 769.061 Q27.4968 766.196 27.4968 762.472 Q27.4968 756.33 31.3163 753.179 Q35.1038 750.027 42.4881 750.027 Z" fill="#000000" fill-rule="nonzero" fill-opacity="1" /><path clip-path="url(#clip370)" d="M45.7664 714.889 Q39.4007 714.889 35.8996 717.531 Q32.3984 720.141 32.3984 724.883 Q32.3984 729.594 35.8996 732.235 Q39.4007 734.845 45.7664 734.845 Q52.1003 734.845 55.6014 732.235 Q59.1026 729.594 59.1026 724.883 Q59.1026 720.141 55.6014 717.531 Q52.1003 714.889 45.7664 714.889 M59.58 709.032 Q68.683 709.032 73.1071 713.075 Q77.5631 717.117 77.5631 725.456 Q77.5631 728.543 77.0857 731.28 Q76.6401 734.018 75.6852 736.596 L69.9879 736.596 Q71.3884 734.018 72.0568 731.503 Q72.7252 728.989 72.7252 726.379 Q72.7252 720.618 69.7015 717.753 Q66.7096 714.889 60.6303 714.889 L57.7339 714.889 Q60.885 716.703 62.4446 719.536 Q64.0042 722.369 64.0042 726.315 Q64.0042 732.872 59.0071 736.882 Q54.01 740.893 45.7664 740.893 Q37.491 740.893 32.4939 736.882 Q27.4968 732.872 27.4968 726.315 Q27.4968 722.369 29.0564 719.536 Q30.616 716.703 33.7671 714.889 L28.3562 714.889 L28.3562 709.032 L59.58 709.032 Z" fill="#000000" fill-rule="nonzero" fill-opacity="1" /><path clip-path="url(#clip370)" d="M16.4842 686.561 L16.4842 681.151 L70.0516 697.701 L70.0516 703.112 L16.4842 686.561 Z" fill="#000000" fill-rule="nonzero" fill-opacity="1" /><path clip-path="url(#clip370)" d="M35.1993 647.253 Q31.2526 645.057 29.3747 642.001 Q27.4968 638.946 27.4968 634.808 Q27.4968 629.238 31.4117 626.215 Q35.2948 623.191 42.4881 623.191 L64.0042 623.191 L64.0042 629.079 L42.679 629.079 Q37.5546 629.079 35.072 630.893 Q32.5894 632.708 32.5894 636.431 Q32.5894 640.983 35.6131 643.625 Q38.6368 646.266 43.8567 646.266 L64.0042 646.266 L64.0042 652.155 L42.679 652.155 Q37.5228 652.155 35.072 653.969 Q32.5894 655.783 32.5894 659.571 Q32.5894 664.059 35.6449 666.7 Q38.6686 669.342 43.8567 669.342 L64.0042 669.342 L64.0042 675.23 L28.3562 675.23 L28.3562 669.342 L33.8944 669.342 Q30.616 667.337 29.0564 664.536 Q27.4968 661.735 27.4968 657.884 Q27.4968 654.001 29.4702 651.295 Q31.4436 648.558 35.1993 647.253 Z" fill="#000000" fill-rule="nonzero" fill-opacity="1" /><path clip-path="url(#clip370)" d="M16.4842 611.255 L16.4842 604.826 L58.5933 604.826 L58.5933 581.686 L64.0042 581.686 L64.0042 611.255 L16.4842 611.255 Z" fill="#000000" fill-rule="nonzero" fill-opacity="1" /><path clip-path="url(#clip370)" d="M14.479 561.507 L72.5979 561.507 L72.5979 575.002 L68.0464 575.002 L68.0464 567.395 L19.0304 567.395 L19.0304 575.002 L14.479 575.002 L14.479 561.507 Z" fill="#000000" fill-rule="nonzero" fill-opacity="1" /><path clip-path="url(#clip370)" d="M118.181 9.54393 L135.357 9.54393 L135.357 15.3367 L125.634 15.3367 L125.634 77.7206 L135.357 77.7206 L135.357 83.5134 L118.181 83.5134 L118.181 9.54393 Z" fill="#000000" fill-rule="nonzero" fill-opacity="1" /><path clip-path="url(#clip370)" d="M183.886 28.9478 L183.886 35.9153 Q180.727 34.1734 177.527 33.3227 Q174.367 32.4315 171.126 32.4315 Q163.875 32.4315 159.865 37.0496 Q155.854 41.6271 155.854 49.9314 Q155.854 58.2358 159.865 62.8538 Q163.875 67.4314 171.126 67.4314 Q174.367 67.4314 177.527 66.5807 Q180.727 65.6895 183.886 63.9476 L183.886 70.8341 Q180.767 72.2924 177.405 73.0216 Q174.083 73.7508 170.316 73.7508 Q160.067 73.7508 154.031 67.3098 Q147.995 60.8689 147.995 49.9314 Q147.995 38.832 154.072 32.472 Q160.189 26.1121 170.802 26.1121 Q174.245 26.1121 177.527 26.8413 Q180.808 27.5299 183.886 28.9478 Z" fill="#000000" fill-rule="nonzero" fill-opacity="1" /><path clip-path="url(#clip370)" d="M196.242 12.096 L204.465 12.096 L204.465 48.8377 Q204.465 58.5599 207.989 62.8538 Q211.514 67.1073 219.413 67.1073 Q227.272 67.1073 230.796 62.8538 Q234.32 58.5599 234.32 48.8377 L234.32 12.096 L242.544 12.096 L242.544 49.8504 Q242.544 61.6791 236.67 67.7149 Q230.836 73.7508 219.413 73.7508 Q207.949 73.7508 202.075 67.7149 Q196.242 61.6791 196.242 49.8504 L196.242 12.096 Z" fill="#000000" fill-rule="nonzero" fill-opacity="1" /><path clip-path="url(#clip370)" d="M266.079 18.8205 L266.079 65.8515 L275.963 65.8515 Q288.481 65.8515 294.274 60.1802 Q300.107 54.509 300.107 42.2752 Q300.107 30.1225 294.274 24.4918 Q288.481 18.8205 275.963 18.8205 L266.079 18.8205 M257.896 12.096 L274.708 12.096 Q292.289 12.096 300.512 19.4281 Q308.735 26.7198 308.735 42.2752 Q308.735 57.9117 300.471 65.2439 Q292.208 72.576 274.708 72.576 L257.896 72.576 L257.896 12.096 Z" fill="#000000" fill-rule="nonzero" fill-opacity="1" /><path clip-path="url(#clip370)" d="M321.779 12.096 L360.02 12.096 L360.02 18.9825 L329.962 18.9825 L329.962 36.8875 L358.764 36.8875 L358.764 43.7741 L329.962 43.7741 L329.962 65.6895 L360.749 65.6895 L360.749 72.576 L321.779 72.576 L321.779 12.096 Z" fill="#000000" fill-rule="nonzero" fill-opacity="1" /><path clip-path="url(#clip370)" d="M391.293 9.54393 L391.293 83.5134 L374.117 83.5134 L374.117 77.7206 L383.799 77.7206 L383.799 15.3367 L374.117 15.3367 L374.117 9.54393 L391.293 9.54393 Z" fill="#000000" fill-rule="nonzero" fill-opacity="1" /><path clip-path="url(#clip370)" d="M441.119 43.6931 L441.119 65.8515 L454.244 65.8515 Q460.847 65.8515 464.006 63.1374 Q467.207 60.3828 467.207 54.752 Q467.207 49.0808 464.006 46.4072 Q460.847 43.6931 454.244 43.6931 L441.119 43.6931 M441.119 18.8205 L441.119 37.0496 L453.231 37.0496 Q459.226 37.0496 462.143 34.8216 Q465.1 32.5531 465.1 27.935 Q465.1 23.3575 462.143 21.089 Q459.226 18.8205 453.231 18.8205 L441.119 18.8205 M432.936 12.096 L453.839 12.096 Q463.196 12.096 468.26 15.9849 Q473.324 19.8737 473.324 27.0438 Q473.324 32.5936 470.731 35.8748 Q468.138 39.156 463.115 39.9662 Q469.151 41.2625 472.473 45.3944 Q475.835 49.4858 475.835 55.6432 Q475.835 63.745 470.326 68.1605 Q464.817 72.576 454.649 72.576 L432.936 72.576 L432.936 12.096 Z" fill="#000000" fill-rule="nonzero" fill-opacity="1" /><path clip-path="url(#clip370)" d="M510.146 49.7694 Q501.113 49.7694 497.629 51.8354 Q494.145 53.9013 494.145 58.8839 Q494.145 62.8538 496.738 65.2034 Q499.371 67.5124 503.867 67.5124 Q510.065 67.5124 513.792 63.1374 Q517.559 58.7219 517.559 51.4303 L517.559 49.7694 L510.146 49.7694 M525.013 46.6907 L525.013 72.576 L517.559 72.576 L517.559 65.6895 Q515.007 69.8214 511.199 71.8063 Q507.392 73.7508 501.882 73.7508 Q494.915 73.7508 490.783 69.8619 Q486.692 65.9325 486.692 59.3701 Q486.692 51.7138 491.796 47.825 Q496.94 43.9361 507.108 43.9361 L517.559 43.9361 L517.559 43.2069 Q517.559 38.0623 514.157 35.2672 Q510.794 32.4315 504.678 32.4315 Q500.789 32.4315 497.102 33.3632 Q493.416 34.295 490.013 36.1584 L490.013 29.2718 Q494.105 27.692 497.953 26.9223 Q501.801 26.1121 505.447 26.1121 Q515.291 26.1121 520.152 31.2163 Q525.013 36.3204 525.013 46.6907 Z" fill="#000000" fill-rule="nonzero" fill-opacity="1" /><path clip-path="url(#clip370)" d="M569.289 28.5427 L569.289 35.5912 Q566.13 33.9709 562.727 33.1607 Q559.324 32.3505 555.678 32.3505 Q550.129 32.3505 547.334 34.0519 Q544.579 35.7533 544.579 39.156 Q544.579 41.7486 546.564 43.2475 Q548.549 44.7058 554.544 46.0426 L557.096 46.6097 Q565.036 48.3111 568.358 51.4303 Q571.72 54.509 571.72 60.0587 Q571.72 66.3781 566.697 70.0644 Q561.714 73.7508 552.964 73.7508 Q549.319 73.7508 545.349 73.0216 Q541.419 72.3329 537.044 70.9151 L537.044 63.2184 Q541.176 65.3654 545.187 66.4591 Q549.197 67.5124 553.126 67.5124 Q558.393 67.5124 561.228 65.73 Q564.064 63.9071 564.064 60.6258 Q564.064 57.5877 561.998 55.9673 Q559.972 54.3469 553.045 52.8481 L550.453 52.2405 Q543.526 50.7821 540.447 47.7845 Q537.368 44.7463 537.368 39.4801 Q537.368 33.0797 541.905 29.5959 Q546.442 26.1121 554.787 26.1121 Q558.919 26.1121 562.565 26.7198 Q566.211 27.3274 569.289 28.5427 Z" fill="#000000" fill-rule="nonzero" fill-opacity="1" /><path clip-path="url(#clip370)" d="M622.397 48.0275 L622.397 51.6733 L588.126 51.6733 Q588.612 59.3701 592.744 63.421 Q596.917 67.4314 604.33 67.4314 Q608.624 67.4314 612.634 66.3781 Q616.685 65.3249 620.655 63.2184 L620.655 70.267 Q616.645 71.9684 612.432 72.8596 Q608.219 73.7508 603.884 73.7508 Q593.028 73.7508 586.668 67.4314 Q580.348 61.1119 580.348 50.3365 Q580.348 39.1965 586.344 32.6746 Q592.38 26.1121 602.588 26.1121 Q611.743 26.1121 617.05 32.0264 Q622.397 37.9003 622.397 48.0275 M614.943 45.84 Q614.862 39.7232 611.5 36.0774 Q608.178 32.4315 602.669 32.4315 Q596.431 32.4315 592.663 35.9558 Q588.936 39.4801 588.369 45.8805 L614.943 45.84 Z" fill="#000000" fill-rule="nonzero" fill-opacity="1" /><path clip-path="url(#clip370)" d="M661.326 12.096 L673.519 12.096 L688.953 53.2532 L704.468 12.096 L716.661 12.096 L716.661 72.576 L708.681 72.576 L708.681 19.4686 L693.085 60.9499 L684.862 60.9499 L669.266 19.4686 L669.266 72.576 L661.326 72.576 L661.326 12.096 Z" fill="#000000" fill-rule="nonzero" fill-opacity="1" /><path clip-path="url(#clip370)" d="M732.905 12.096 L741.088 12.096 L741.088 72.576 L732.905 72.576 L732.905 12.096 Z" fill="#000000" fill-rule="nonzero" fill-opacity="1" /><path clip-path="url(#clip370)" d="M757.373 12.096 L769.566 12.096 L785 53.2532 L800.515 12.096 L812.708 12.096 L812.708 72.576 L804.728 72.576 L804.728 19.4686 L789.132 60.9499 L780.909 60.9499 L765.313 19.4686 L765.313 72.576 L757.373 72.576 L757.373 12.096 Z" fill="#000000" fill-rule="nonzero" fill-opacity="1" /><path clip-path="url(#clip370)" d="M828.952 12.096 L837.135 12.096 L837.135 72.576 L828.952 72.576 L828.952 12.096 Z" fill="#000000" fill-rule="nonzero" fill-opacity="1" /><path clip-path="url(#clip370)" d="M898.709 16.7545 L898.709 25.383 Q894.577 21.5346 889.878 19.6307 Q885.219 17.7268 879.953 17.7268 Q869.583 17.7268 864.074 24.0867 Q858.565 30.4061 858.565 42.3968 Q858.565 54.3469 864.074 60.7069 Q869.583 67.0263 879.953 67.0263 Q885.219 67.0263 889.878 65.1223 Q894.577 63.2184 898.709 59.3701 L898.709 67.9175 Q894.415 70.8341 889.594 72.2924 Q884.814 73.7508 879.467 73.7508 Q865.735 73.7508 857.835 65.3654 Q849.936 56.9395 849.936 42.3968 Q849.936 27.8135 857.835 19.4281 Q865.735 11.0023 879.467 11.0023 Q884.895 11.0023 889.675 12.4606 Q894.496 13.8784 898.709 16.7545 Z" fill="#000000" fill-rule="nonzero" fill-opacity="1" /><path clip-path="url(#clip370)" d="M945.497 86.3491 L945.497 92.1419 L902.395 92.1419 L902.395 86.3491 L945.497 86.3491 Z" fill="#000000" fill-rule="nonzero" fill-opacity="1" /><path clip-path="url(#clip370)" d="M990.219 45.1919 L990.219 72.576 L982.765 72.576 L982.765 45.4349 Q982.765 38.994 980.254 35.7938 Q977.742 32.5936 972.719 32.5936 Q966.683 32.5936 963.199 36.4419 Q959.716 40.2903 959.716 46.9338 L959.716 72.576 L952.221 72.576 L952.221 27.2059 L959.716 27.2059 L959.716 34.2544 Q962.389 30.163 965.995 28.1376 Q969.64 26.1121 974.38 26.1121 Q982.198 26.1121 986.209 30.9732 Q990.219 35.7938 990.219 45.1919 Z" fill="#000000" fill-rule="nonzero" fill-opacity="1" /><path clip-path="url(#clip370)" d="M1007.56 65.6895 L1020.92 65.6895 L1020.92 19.5497 L1006.38 22.4663 L1006.38 15.0127 L1020.84 12.096 L1029.03 12.096 L1029.03 65.6895 L1042.39 65.6895 L1042.39 72.576 L1007.56 72.576 L1007.56 65.6895 Z" fill="#000000" fill-rule="nonzero" fill-opacity="1" /><path clip-path="url(#clip370)" d="M1065.97 65.6895 L1094.53 65.6895 L1094.53 72.576 L1056.13 72.576 L1056.13 65.6895 Q1060.79 60.8689 1068.81 52.7671 Q1076.87 44.6248 1078.93 42.2752 Q1082.86 37.8598 1084.4 34.8216 Q1085.98 31.7429 1085.98 28.7857 Q1085.98 23.9651 1082.58 20.927 Q1079.22 17.8888 1073.79 17.8888 Q1069.94 17.8888 1065.65 19.2256 Q1061.39 20.5624 1056.53 23.2765 L1056.53 15.0127 Q1061.47 13.0277 1065.77 12.015 Q1070.06 11.0023 1073.63 11.0023 Q1083.03 11.0023 1088.62 15.7013 Q1094.21 20.4004 1094.21 28.2591 Q1094.21 31.9859 1092.79 35.3482 Q1091.41 38.6699 1087.72 43.2069 Q1086.71 44.3817 1081.28 50.0125 Q1075.86 55.6027 1065.97 65.6895 Z" fill="#000000" fill-rule="nonzero" fill-opacity="1" /><path clip-path="url(#clip370)" d="M1129.21 43.8551 Q1123.37 43.8551 1120.01 46.9743 Q1116.69 50.0935 1116.69 55.5622 Q1116.69 61.0309 1120.01 64.1501 Q1123.37 67.2693 1129.21 67.2693 Q1135.04 67.2693 1138.4 64.1501 Q1141.76 60.9904 1141.76 55.5622 Q1141.76 50.0935 1138.4 46.9743 Q1135.08 43.8551 1129.21 43.8551 M1121.02 40.3713 Q1115.76 39.075 1112.8 35.4697 Q1109.88 31.8644 1109.88 26.6793 Q1109.88 19.4281 1115.03 15.2152 Q1120.21 11.0023 1129.21 11.0023 Q1138.24 11.0023 1143.38 15.2152 Q1148.53 19.4281 1148.53 26.6793 Q1148.53 31.8644 1145.57 35.4697 Q1142.65 39.075 1137.43 40.3713 Q1143.34 41.7486 1146.62 45.759 Q1149.95 49.7694 1149.95 55.5622 Q1149.95 64.3527 1144.56 69.0517 Q1139.21 73.7508 1129.21 73.7508 Q1119.2 73.7508 1113.81 69.0517 Q1108.46 64.3527 1108.46 55.5622 Q1108.46 49.7694 1111.79 45.759 Q1115.11 41.7486 1121.02 40.3713 M1118.02 27.4489 Q1118.02 32.148 1120.94 34.7811 Q1123.9 37.4142 1129.21 37.4142 Q1134.47 37.4142 1137.43 34.7811 Q1140.43 32.148 1140.43 27.4489 Q1140.43 22.7499 1137.43 20.1168 Q1134.47 17.4837 1129.21 17.4837 Q1123.9 17.4837 1120.94 20.1168 Q1118.02 22.7499 1118.02 27.4489 Z" fill="#000000" fill-rule="nonzero" fill-opacity="1" /><path clip-path="url(#clip370)" d="M1189.28 39.9662 Q1195.15 41.222 1198.44 45.1919 Q1201.76 49.1618 1201.76 54.9951 Q1201.76 63.9476 1195.6 68.8492 Q1189.44 73.7508 1178.1 73.7508 Q1174.29 73.7508 1170.24 72.9811 Q1166.23 72.2519 1161.94 70.7531 L1161.94 62.8538 Q1165.34 64.8388 1169.39 65.8515 Q1173.44 66.8642 1177.86 66.8642 Q1185.55 66.8642 1189.56 63.826 Q1193.61 60.7879 1193.61 54.9951 Q1193.61 49.6479 1189.85 46.6502 Q1186.12 43.612 1179.44 43.612 L1172.39 43.612 L1172.39 36.8875 L1179.76 36.8875 Q1185.8 36.8875 1189 34.4975 Q1192.2 32.067 1192.2 27.5299 Q1192.2 22.8714 1188.88 20.4004 Q1185.59 17.8888 1179.44 17.8888 Q1176.07 17.8888 1172.23 18.618 Q1168.38 19.3471 1163.76 20.8865 L1163.76 13.5948 Q1168.42 12.2985 1172.47 11.6504 Q1176.56 11.0023 1180.17 11.0023 Q1189.48 11.0023 1194.91 15.2557 Q1200.34 19.4686 1200.34 26.6793 Q1200.34 31.7024 1197.46 35.1862 Q1194.59 38.6294 1189.28 39.9662 Z" fill="#000000" fill-rule="nonzero" fill-opacity="1" /><path clip-path="url(#clip370)" d="M1238.82 46.5287 L1260.66 46.5287 L1260.66 53.1722 L1238.82 53.1722 L1238.82 46.5287 Z" fill="#000000" fill-rule="nonzero" fill-opacity="1" /><path clip-path="url(#clip370)" d="M1299.22 12.096 L1311.42 12.096 L1326.85 53.2532 L1342.36 12.096 L1354.56 12.096 L1354.56 72.576 L1346.58 72.576 L1346.58 19.4686 L1330.98 60.9499 L1322.76 60.9499 L1307.16 19.4686 L1307.16 72.576 L1299.22 72.576 L1299.22 12.096 Z" fill="#000000" fill-rule="nonzero" fill-opacity="1" /><path clip-path="url(#clip370)" d="M1370.8 12.096 L1378.98 12.096 L1378.98 72.576 L1370.8 72.576 L1370.8 12.096 Z" fill="#000000" fill-rule="nonzero" fill-opacity="1" /><path clip-path="url(#clip370)" d="M1395.27 12.096 L1407.46 12.096 L1422.9 53.2532 L1438.41 12.096 L1450.6 12.096 L1450.6 72.576 L1442.62 72.576 L1442.62 19.4686 L1427.03 60.9499 L1418.8 60.9499 L1403.21 19.4686 L1403.21 72.576 L1395.27 72.576 L1395.27 12.096 Z" fill="#000000" fill-rule="nonzero" fill-opacity="1" /><path clip-path="url(#clip370)" d="M1466.85 12.096 L1475.03 12.096 L1475.03 72.576 L1466.85 72.576 L1466.85 12.096 Z" fill="#000000" fill-rule="nonzero" fill-opacity="1" /><path clip-path="url(#clip370)" d="M1536.6 16.7545 L1536.6 25.383 Q1532.47 21.5346 1527.77 19.6307 Q1523.12 17.7268 1517.85 17.7268 Q1507.48 17.7268 1501.97 24.0867 Q1496.46 30.4061 1496.46 42.3968 Q1496.46 54.3469 1501.97 60.7069 Q1507.48 67.0263 1517.85 67.0263 Q1523.12 67.0263 1527.77 65.1223 Q1532.47 63.2184 1536.6 59.3701 L1536.6 67.9175 Q1532.31 70.8341 1527.49 72.2924 Q1522.71 73.7508 1517.36 73.7508 Q1503.63 73.7508 1495.73 65.3654 Q1487.83 56.9395 1487.83 42.3968 Q1487.83 27.8135 1495.73 19.4281 Q1503.63 11.0023 1517.36 11.0023 Q1522.79 11.0023 1527.57 12.4606 Q1532.39 13.8784 1536.6 16.7545 Z" fill="#000000" fill-rule="nonzero" fill-opacity="1" /><path clip-path="url(#clip370)" d="M1583.39 86.3491 L1583.39 92.1419 L1540.29 92.1419 L1540.29 86.3491 L1583.39 86.3491 Z" fill="#000000" fill-rule="nonzero" fill-opacity="1" /><path clip-path="url(#clip370)" d="M1628.11 45.1919 L1628.11 72.576 L1620.66 72.576 L1620.66 45.4349 Q1620.66 38.994 1618.15 35.7938 Q1615.64 32.5936 1610.61 32.5936 Q1604.58 32.5936 1601.1 36.4419 Q1597.61 40.2903 1597.61 46.9338 L1597.61 72.576 L1590.12 72.576 L1590.12 27.2059 L1597.61 27.2059 L1597.61 34.2544 Q1600.29 30.163 1603.89 28.1376 Q1607.54 26.1121 1612.28 26.1121 Q1620.09 26.1121 1624.1 30.9732 Q1628.11 35.7938 1628.11 45.1919 Z" fill="#000000" fill-rule="nonzero" fill-opacity="1" /><path clip-path="url(#clip370)" d="M1645.45 65.6895 L1658.82 65.6895 L1658.82 19.5497 L1644.28 22.4663 L1644.28 15.0127 L1658.74 12.096 L1666.92 12.096 L1666.92 65.6895 L1680.29 65.6895 L1680.29 72.576 L1645.45 72.576 L1645.45 65.6895 Z" fill="#000000" fill-rule="nonzero" fill-opacity="1" /><path clip-path="url(#clip370)" d="M1703.87 65.6895 L1732.43 65.6895 L1732.43 72.576 L1694.02 72.576 L1694.02 65.6895 Q1698.68 60.8689 1706.7 52.7671 Q1714.76 44.6248 1716.83 42.2752 Q1720.76 37.8598 1722.3 34.8216 Q1723.88 31.7429 1723.88 28.7857 Q1723.88 23.9651 1720.48 20.927 Q1717.11 17.8888 1711.68 17.8888 Q1707.84 17.8888 1703.54 19.2256 Q1699.29 20.5624 1694.43 23.2765 L1694.43 15.0127 Q1699.37 13.0277 1703.66 12.015 Q1707.96 11.0023 1711.52 11.0023 Q1720.92 11.0023 1726.51 15.7013 Q1732.1 20.4004 1732.1 28.2591 Q1732.1 31.9859 1730.68 35.3482 Q1729.31 38.6699 1725.62 43.2069 Q1724.61 44.3817 1719.18 50.0125 Q1713.75 55.6027 1703.87 65.6895 Z" fill="#000000" fill-rule="nonzero" fill-opacity="1" /><path clip-path="url(#clip370)" d="M1767.1 43.8551 Q1761.27 43.8551 1757.91 46.9743 Q1754.58 50.0935 1754.58 55.5622 Q1754.58 61.0309 1757.91 64.1501 Q1761.27 67.2693 1767.1 67.2693 Q1772.93 67.2693 1776.3 64.1501 Q1779.66 60.9904 1779.66 55.5622 Q1779.66 50.0935 1776.3 46.9743 Q1772.98 43.8551 1767.1 43.8551 M1758.92 40.3713 Q1753.65 39.075 1750.7 35.4697 Q1747.78 31.8644 1747.78 26.6793 Q1747.78 19.4281 1752.92 15.2152 Q1758.11 11.0023 1767.1 11.0023 Q1776.13 11.0023 1781.28 15.2152 Q1786.42 19.4281 1786.42 26.6793 Q1786.42 31.8644 1783.47 35.4697 Q1780.55 39.075 1775.32 40.3713 Q1781.24 41.7486 1784.52 45.759 Q1787.84 49.7694 1787.84 55.5622 Q1787.84 64.3527 1782.45 69.0517 Q1777.11 73.7508 1767.1 73.7508 Q1757.1 73.7508 1751.71 69.0517 Q1746.36 64.3527 1746.36 55.5622 Q1746.36 49.7694 1749.68 45.759 Q1753 41.7486 1758.92 40.3713 M1755.92 27.4489 Q1755.92 32.148 1758.84 34.7811 Q1761.79 37.4142 1767.1 37.4142 Q1772.37 37.4142 1775.32 34.7811 Q1778.32 32.148 1778.32 27.4489 Q1778.32 22.7499 1775.32 20.1168 Q1772.37 17.4837 1767.1 17.4837 Q1761.79 17.4837 1758.84 20.1168 Q1755.92 22.7499 1755.92 27.4489 Z" fill="#000000" fill-rule="nonzero" fill-opacity="1" /><path clip-path="url(#clip370)" d="M1827.18 39.9662 Q1833.05 41.222 1836.33 45.1919 Q1839.65 49.1618 1839.65 54.9951 Q1839.65 63.9476 1833.5 68.8492 Q1827.34 73.7508 1816 73.7508 Q1812.19 73.7508 1808.14 72.9811 Q1804.13 72.2519 1799.83 70.7531 L1799.83 62.8538 Q1803.24 64.8388 1807.29 65.8515 Q1811.34 66.8642 1815.75 66.8642 Q1823.45 66.8642 1827.46 63.826 Q1831.51 60.7879 1831.51 54.9951 Q1831.51 49.6479 1827.74 46.6502 Q1824.02 43.612 1817.33 43.612 L1810.28 43.612 L1810.28 36.8875 L1817.66 36.8875 Q1823.69 36.8875 1826.89 34.4975 Q1830.09 32.067 1830.09 27.5299 Q1830.09 22.8714 1826.77 20.4004 Q1823.49 17.8888 1817.33 17.8888 Q1813.97 17.8888 1810.12 18.618 Q1806.27 19.3471 1801.66 20.8865 L1801.66 13.5948 Q1806.31 12.2985 1810.36 11.6504 Q1814.46 11.0023 1818.06 11.0023 Q1827.38 11.0023 1832.81 15.2557 Q1838.24 19.4686 1838.24 26.6793 Q1838.24 31.7024 1835.36 35.1862 Q1832.48 38.6294 1827.18 39.9662 Z" fill="#000000" fill-rule="nonzero" fill-opacity="1" /><path clip-path="url(#clip370)" d="M1888.59 86.3491 L1888.59 92.1419 L1845.49 92.1419 L1845.49 86.3491 L1888.59 86.3491 Z" fill="#000000" fill-rule="nonzero" fill-opacity="1" /><path clip-path="url(#clip370)" d="M1895.92 12.096 L1934.16 12.096 L1934.16 18.9825 L1904.1 18.9825 L1904.1 36.8875 L1932.9 36.8875 L1932.9 43.7741 L1904.1 43.7741 L1904.1 65.6895 L1934.89 65.6895 L1934.89 72.576 L1895.92 72.576 L1895.92 12.096 Z" fill="#000000" fill-rule="nonzero" fill-opacity="1" /><path clip-path="url(#clip370)" d="M1948.34 12.096 L1959.36 12.096 L1986.17 62.6918 L1986.17 12.096 L1994.11 12.096 L1994.11 72.576 L1983.1 72.576 L1956.28 21.9802 L1956.28 72.576 L1948.34 72.576 L1948.34 12.096 Z" fill="#000000" fill-rule="nonzero" fill-opacity="1" /><path clip-path="url(#clip370)" d="M2018.58 18.8205 L2018.58 65.8515 L2028.47 65.8515 Q2040.98 65.8515 2046.78 60.1802 Q2052.61 54.509 2052.61 42.2752 Q2052.61 30.1225 2046.78 24.4918 Q2040.98 18.8205 2028.47 18.8205 L2018.58 18.8205 M2010.4 12.096 L2027.21 12.096 Q2044.79 12.096 2053.01 19.4281 Q2061.24 26.7198 2061.24 42.2752 Q2061.24 57.9117 2052.97 65.2439 Q2044.71 72.576 2027.21 72.576 L2010.4 72.576 L2010.4 12.096 Z" fill="#000000" fill-rule="nonzero" fill-opacity="1" /><path clip-path="url(#clip370)" d="M2108.43 86.3491 L2108.43 92.1419 L2065.33 92.1419 L2065.33 86.3491 L2108.43 86.3491 Z" fill="#000000" fill-rule="nonzero" fill-opacity="1" /><path clip-path="url(#clip370)" d="M2152.02 14.0809 L2152.02 22.0612 Q2147.36 19.8332 2143.23 18.7395 Q2139.1 17.6457 2135.25 17.6457 Q2128.56 17.6457 2124.92 20.2383 Q2121.31 22.8309 2121.31 27.611 Q2121.31 31.6214 2123.7 33.6873 Q2126.13 35.7128 2132.86 36.9686 L2137.8 37.9813 Q2146.95 39.7232 2151.29 44.1387 Q2155.66 48.5136 2155.66 55.8863 Q2155.66 64.6767 2149.75 69.2137 Q2143.88 73.7508 2132.49 73.7508 Q2128.2 73.7508 2123.34 72.7785 Q2118.52 71.8063 2113.33 69.9024 L2113.33 61.4765 Q2118.31 64.2716 2123.09 65.6895 Q2127.87 67.1073 2132.49 67.1073 Q2139.5 67.1073 2143.31 64.3527 Q2147.12 61.598 2147.12 56.4939 Q2147.12 52.0379 2144.36 49.5264 Q2141.65 47.0148 2135.41 45.759 L2130.43 44.7868 Q2121.27 42.9639 2117.18 39.075 Q2113.09 35.1862 2113.09 28.2591 Q2113.09 20.2383 2118.72 15.6203 Q2124.39 11.0023 2134.32 11.0023 Q2138.57 11.0023 2142.98 11.7719 Q2147.4 12.5416 2152.02 14.0809 Z" fill="#000000" fill-rule="nonzero" fill-opacity="1" /><path clip-path="url(#clip370)" d="M2170.57 65.6895 L2183.94 65.6895 L2183.94 19.5497 L2169.4 22.4663 L2169.4 15.0127 L2183.86 12.096 L2192.04 12.096 L2192.04 65.6895 L2205.41 65.6895 L2205.41 72.576 L2170.57 72.576 L2170.57 65.6895 Z" fill="#000000" fill-rule="nonzero" fill-opacity="1" /><path clip-path="url(#clip370)" d="M2255.36 86.3491 L2255.36 92.1419 L2212.26 92.1419 L2212.26 86.3491 L2255.36 86.3491 Z" fill="#000000" fill-rule="nonzero" fill-opacity="1" /><path clip-path="url(#clip370)" d="M2270.87 43.6931 L2270.87 65.8515 L2284 65.8515 Q2290.6 65.8515 2293.76 63.1374 Q2296.96 60.3828 2296.96 54.752 Q2296.96 49.0808 2293.76 46.4072 Q2290.6 43.6931 2284 43.6931 L2270.87 43.6931 M2270.87 18.8205 L2270.87 37.0496 L2282.98 37.0496 Q2288.98 37.0496 2291.9 34.8216 Q2294.85 32.5531 2294.85 27.935 Q2294.85 23.3575 2291.9 21.089 Q2288.98 18.8205 2282.98 18.8205 L2270.87 18.8205 M2262.69 12.096 L2283.59 12.096 Q2292.95 12.096 2298.01 15.9849 Q2303.08 19.8737 2303.08 27.0438 Q2303.08 32.5936 2300.48 35.8748 Q2297.89 39.156 2292.87 39.9662 Q2298.9 41.2625 2302.23 45.3944 Q2305.59 49.4858 2305.59 55.6432 Q2305.59 63.745 2300.08 68.1605 Q2294.57 72.576 2284.4 72.576 L2262.69 72.576 L2262.69 12.096 Z" fill="#000000" fill-rule="nonzero" fill-opacity="1" /><path clip-path="url(#clip370)" d="M2337.83 17.4837 Q2331.51 17.4837 2328.31 23.7221 Q2325.15 29.92 2325.15 42.3968 Q2325.15 54.833 2328.31 61.0714 Q2331.51 67.2693 2337.83 67.2693 Q2344.19 67.2693 2347.35 61.0714 Q2350.55 54.833 2350.55 42.3968 Q2350.55 29.92 2347.35 23.7221 Q2344.19 17.4837 2337.83 17.4837 M2337.83 11.0023 Q2348 11.0023 2353.35 19.0636 Q2358.74 27.0843 2358.74 42.3968 Q2358.74 57.6687 2353.35 65.73 Q2348 73.7508 2337.83 73.7508 Q2327.67 73.7508 2322.28 65.73 Q2316.93 57.6687 2316.93 42.3968 Q2316.93 27.0843 2322.28 19.0636 Q2327.67 11.0023 2337.83 11.0023 Z" fill="#000000" fill-rule="nonzero" fill-opacity="1" /><path clip-path="url(#clip370)" d="M2380.17 65.6895 L2408.72 65.6895 L2408.72 72.576 L2370.32 72.576 L2370.32 65.6895 Q2374.98 60.8689 2383 52.7671 Q2391.06 44.6248 2393.13 42.2752 Q2397.06 37.8598 2398.6 34.8216 Q2400.18 31.7429 2400.18 28.7857 Q2400.18 23.9651 2396.77 20.927 Q2393.41 17.8888 2387.98 17.8888 Q2384.14 17.8888 2379.84 19.2256 Q2375.59 20.5624 2370.73 23.2765 L2370.73 15.0127 Q2375.67 13.0277 2379.96 12.015 Q2384.26 11.0023 2387.82 11.0023 Q2397.22 11.0023 2402.81 15.7013 Q2408.4 20.4004 2408.4 28.2591 Q2408.4 31.9859 2406.98 35.3482 Q2405.6 38.6699 2401.92 43.2069 Q2400.91 44.3817 2395.48 50.0125 Q2390.05 55.6027 2380.17 65.6895 Z" fill="#000000" fill-rule="nonzero" fill-opacity="1" /><polyline clip-path="url(#clip372)" style="stroke:#009af9; stroke-linecap:round; stroke-linejoin:round; stroke-width:8; stroke-opacity:1; fill:none" points="235.808,1386.4 255.592,1313.21 275.377,1248.42 295.161,1191.17 314.946,1140.71 334.731,1096.35 354.515,1057.47 374.3,1023.51 394.084,993.985 413.869,968.428 433.654,946.436 453.438,927.639 473.223,911.704 493.007,898.334 512.792,887.259 532.577,878.233 552.361,871.03 572.146,865.448 591.93,861.31 611.715,858.441 631.499,856.664 651.284,855.801 671.069,855.686 690.853,856.047 710.638,856.564 730.422,856.892 750.207,856.658 769.992,855.465 789.776,852.99 809.561,849.064 829.345,843.599 849.13,836.585 868.915,828.094 888.699,818.255 908.484,807.212 928.268,795.114 948.053,782.106 967.838,768.326 987.622,753.91 1007.41,738.991 1027.19,723.68 1046.98,708.063 1066.76,692.22 1086.55,676.228 1106.33,660.156 1126.11,644.072 1145.9,628.034 1165.68,612.099 1185.47,596.315 1205.25,580.71 1225.04,565.309 1244.82,550.136 1264.61,535.214 1284.39,520.561 1304.18,506.197 1323.96,492.137 1343.74,478.393 1363.53,464.978 1383.31,451.895 1403.1,439.148 1422.88,426.736 1442.67,414.66 1462.45,402.921 1482.24,391.519 1502.02,380.454 1521.81,369.727 1541.59,359.336 1561.38,349.282 1581.16,339.563 1600.94,330.17 1620.73,321.096 1640.51,312.337 1660.3,303.884 1680.08,295.733 1699.87,287.877 1719.65,280.311 1739.44,273.028 1759.22,266.023 1779.01,259.291 1798.79,252.825 1818.58,246.622 1838.36,240.673 1858.14,234.972 1877.93,229.511 1897.71,224.284 1917.5,219.285 1937.28,214.506 1957.07,209.943 1976.85,205.589 1996.64,201.438 2016.42,197.484 2036.21,193.723 2055.99,190.149 2075.77,186.756 2095.56,183.541 2115.34,180.497 2135.13,177.621 2154.91,174.908 2174.7,172.351 2194.48,169.947 2214.27,167.691 2234.05,165.579 2253.84,163.606 2273.62,161.769 2291.1,160.256 "/>
<line clip-path="url(#clip372)" x1="1940.25" y1="493.223" x2="1912.25" y2="465.223" style="stroke:#dc143c; stroke-width:6.4; stroke-opacity:1"/>
<line clip-path="url(#clip372)" x1="1940.25" y1="493.223" x2="1912.25" y2="521.223" style="stroke:#dc143c; stroke-width:6.4; stroke-opacity:1"/>
<line clip-path="url(#clip372)" x1="1940.25" y1="493.223" x2="1968.25" y2="521.223" style="stroke:#dc143c; stroke-width:6.4; stroke-opacity:1"/>
<line clip-path="url(#clip372)" x1="1940.25" y1="493.223" x2="1968.25" y2="465.223" style="stroke:#dc143c; stroke-width:6.4; stroke-opacity:1"/>
<line clip-path="url(#clip372)" x1="2093.25" y1="527.429" x2="2065.25" y2="499.429" style="stroke:#dc143c; stroke-width:6.4; stroke-opacity:1"/>
<line clip-path="url(#clip372)" x1="2093.25" y1="527.429" x2="2065.25" y2="555.429" style="stroke:#dc143c; stroke-width:6.4; stroke-opacity:1"/>
<line clip-path="url(#clip372)" x1="2093.25" y1="527.429" x2="2121.25" y2="555.429" style="stroke:#dc143c; stroke-width:6.4; stroke-opacity:1"/>
<line clip-path="url(#clip372)" x1="2093.25" y1="527.429" x2="2121.25" y2="499.429" style="stroke:#dc143c; stroke-width:6.4; stroke-opacity:1"/>
<circle clip-path="url(#clip372)" cx="360.451" cy="1063.33" r="18" fill="#1e90ff" fill-rule="evenodd" fill-opacity="1" stroke="#000000" stroke-opacity="1" stroke-width="3.2"/>
<circle clip-path="url(#clip372)" cx="522.354" cy="831.488" r="18" fill="#1e90ff" fill-rule="evenodd" fill-opacity="1" stroke="#000000" stroke-opacity="1" stroke-width="3.2"/>
<circle clip-path="url(#clip372)" cx="706.021" cy="880.898" r="18" fill="#1e90ff" fill-rule="evenodd" fill-opacity="1" stroke="#000000" stroke-opacity="1" stroke-width="3.2"/>
<circle clip-path="url(#clip372)" cx="1000.81" cy="751.673" r="18" fill="#1e90ff" fill-rule="evenodd" fill-opacity="1" stroke="#000000" stroke-opacity="1" stroke-width="3.2"/>
<circle clip-path="url(#clip372)" cx="1107.32" cy="656.654" r="18" fill="#1e90ff" fill-rule="evenodd" fill-opacity="1" stroke="#000000" stroke-opacity="1" stroke-width="3.2"/>
<circle clip-path="url(#clip372)" cx="1466.74" cy="325.99" r="18" fill="#1e90ff" fill-rule="evenodd" fill-opacity="1" stroke="#000000" stroke-opacity="1" stroke-width="3.2"/>
<circle clip-path="url(#clip372)" cx="1621.72" cy="386.802" r="18" fill="#1e90ff" fill-rule="evenodd" fill-opacity="1" stroke="#000000" stroke-opacity="1" stroke-width="3.2"/>
<path clip-path="url(#clip370)" d="M246.769 374.156 L1184.05 374.156 L1184.05 166.796 L246.769 166.796  Z" fill="#ffffff" fill-rule="evenodd" fill-opacity="1"/>
<polyline clip-path="url(#clip370)" style="stroke:#000000; stroke-linecap:round; stroke-linejoin:round; stroke-width:4; stroke-opacity:1; fill:none" points="246.769,374.156 1184.05,374.156 1184.05,166.796 246.769,166.796 246.769,374.156 "/>
<polyline clip-path="url(#clip370)" style="stroke:#009af9; stroke-linecap:round; stroke-linejoin:round; stroke-width:8; stroke-opacity:1; fill:none" points="270.976,218.636 416.216,218.636 "/>
<path clip-path="url(#clip370)" d="M440.423 201.356 L447.391 201.356 L456.21 224.874 L465.076 201.356 L472.043 201.356 L472.043 235.916 L467.483 235.916 L467.483 205.569 L458.571 229.272 L453.872 229.272 L444.96 205.569 L444.96 235.916 L440.423 235.916 L440.423 201.356 Z" fill="#000000" fill-rule="nonzero" fill-opacity="1" /><path clip-path="url(#clip370)" d="M491.187 212.976 Q487.761 212.976 485.77 215.661 Q483.779 218.323 483.779 222.976 Q483.779 227.629 485.747 230.314 Q487.738 232.976 491.187 232.976 Q494.589 232.976 496.58 230.291 Q498.571 227.606 498.571 222.976 Q498.571 218.37 496.58 215.684 Q494.589 212.976 491.187 212.976 M491.187 209.365 Q496.742 209.365 499.914 212.976 Q503.085 216.587 503.085 222.976 Q503.085 229.342 499.914 232.976 Q496.742 236.587 491.187 236.587 Q485.608 236.587 482.437 232.976 Q479.289 229.342 479.289 222.976 Q479.289 216.587 482.437 212.976 Q485.608 209.365 491.187 209.365 Z" fill="#000000" fill-rule="nonzero" fill-opacity="1" /><path clip-path="url(#clip370)" d="M527.205 213.925 L527.205 199.897 L531.464 199.897 L531.464 235.916 L527.205 235.916 L527.205 232.027 Q525.862 234.342 523.802 235.476 Q521.765 236.587 518.895 236.587 Q514.196 236.587 511.233 232.837 Q508.293 229.087 508.293 222.976 Q508.293 216.865 511.233 213.115 Q514.196 209.365 518.895 209.365 Q521.765 209.365 523.802 210.499 Q525.862 211.61 527.205 213.925 M512.691 222.976 Q512.691 227.675 514.613 230.36 Q516.557 233.022 519.937 233.022 Q523.316 233.022 525.261 230.36 Q527.205 227.675 527.205 222.976 Q527.205 218.277 525.261 215.615 Q523.316 212.93 519.937 212.93 Q516.557 212.93 514.613 215.615 Q512.691 218.277 512.691 222.976 Z" fill="#000000" fill-rule="nonzero" fill-opacity="1" /><path clip-path="url(#clip370)" d="M562.413 221.888 L562.413 223.971 L542.83 223.971 Q543.108 228.369 545.469 230.684 Q547.853 232.976 552.089 232.976 Q554.543 232.976 556.835 232.374 Q559.149 231.772 561.418 230.569 L561.418 234.596 Q559.126 235.568 556.719 236.078 Q554.311 236.587 551.835 236.587 Q545.631 236.587 541.997 232.976 Q538.386 229.365 538.386 223.207 Q538.386 216.842 541.811 213.115 Q545.261 209.365 551.094 209.365 Q556.325 209.365 559.358 212.745 Q562.413 216.101 562.413 221.888 M558.154 220.638 Q558.108 217.143 556.186 215.059 Q554.288 212.976 551.14 212.976 Q547.575 212.976 545.423 214.99 Q543.293 217.004 542.969 220.661 L558.154 220.638 Z" fill="#000000" fill-rule="nonzero" fill-opacity="1" /><path clip-path="url(#clip370)" d="M569.404 199.897 L573.663 199.897 L573.663 235.916 L569.404 235.916 L569.404 199.897 Z" fill="#000000" fill-rule="nonzero" fill-opacity="1" /><path clip-path="url(#clip370)" d="M616.302 210.985 L616.302 214.967 Q614.496 213.971 612.668 213.485 Q610.862 212.976 609.01 212.976 Q604.867 212.976 602.575 215.615 Q600.283 218.231 600.283 222.976 Q600.283 227.721 602.575 230.36 Q604.867 232.976 609.01 232.976 Q610.862 232.976 612.668 232.49 Q614.496 231.981 616.302 230.985 L616.302 234.92 Q614.519 235.754 612.598 236.17 Q610.7 236.587 608.547 236.587 Q602.691 236.587 599.242 232.906 Q595.793 229.226 595.793 222.976 Q595.793 216.633 599.265 212.999 Q602.76 209.365 608.825 209.365 Q610.793 209.365 612.668 209.782 Q614.543 210.175 616.302 210.985 Z" fill="#000000" fill-rule="nonzero" fill-opacity="1" /><path clip-path="url(#clip370)" d="M623.269 225.684 L623.269 209.99 L627.529 209.99 L627.529 225.522 Q627.529 229.203 628.964 231.055 Q630.399 232.883 633.269 232.883 Q636.718 232.883 638.709 230.684 Q640.723 228.485 640.723 224.689 L640.723 209.99 L644.982 209.99 L644.982 235.916 L640.723 235.916 L640.723 231.934 Q639.172 234.295 637.112 235.453 Q635.075 236.587 632.367 236.587 Q627.899 236.587 625.584 233.809 Q623.269 231.031 623.269 225.684 M633.987 209.365 L633.987 209.365 Z" fill="#000000" fill-rule="nonzero" fill-opacity="1" /><path clip-path="url(#clip370)" d="M668.778 213.971 Q668.061 213.555 667.204 213.37 Q666.371 213.161 665.352 213.161 Q661.741 213.161 659.797 215.522 Q657.876 217.86 657.876 222.258 L657.876 235.916 L653.593 235.916 L653.593 209.99 L657.876 209.99 L657.876 214.018 Q659.218 211.657 661.371 210.522 Q663.524 209.365 666.602 209.365 Q667.042 209.365 667.575 209.434 Q668.107 209.481 668.755 209.596 L668.778 213.971 Z" fill="#000000" fill-rule="nonzero" fill-opacity="1" /><path clip-path="url(#clip370)" d="M670.19 209.99 L674.704 209.99 L682.806 231.749 L690.908 209.99 L695.422 209.99 L685.7 235.916 L679.913 235.916 L670.19 209.99 Z" fill="#000000" fill-rule="nonzero" fill-opacity="1" /><path clip-path="url(#clip370)" d="M723.477 221.888 L723.477 223.971 L703.894 223.971 Q704.172 228.369 706.533 230.684 Q708.917 232.976 713.153 232.976 Q715.607 232.976 717.898 232.374 Q720.213 231.772 722.482 230.569 L722.482 234.596 Q720.19 235.568 717.783 236.078 Q715.375 236.587 712.898 236.587 Q706.695 236.587 703.061 232.976 Q699.449 229.365 699.449 223.207 Q699.449 216.842 702.875 213.115 Q706.324 209.365 712.158 209.365 Q717.389 209.365 720.422 212.745 Q723.477 216.101 723.477 221.888 M719.218 220.638 Q719.172 217.143 717.25 215.059 Q715.352 212.976 712.204 212.976 Q708.639 212.976 706.486 214.99 Q704.357 217.004 704.033 220.661 L719.218 220.638 Z" fill="#000000" fill-rule="nonzero" fill-opacity="1" /><path clip-path="url(#clip370)" d="M755.769 199.944 Q752.667 205.268 751.162 210.476 Q749.658 215.684 749.658 221.032 Q749.658 226.379 751.162 231.633 Q752.69 236.865 755.769 242.166 L752.065 242.166 Q748.593 236.726 746.857 231.471 Q745.144 226.217 745.144 221.032 Q745.144 215.87 746.857 210.638 Q748.57 205.407 752.065 199.944 L755.769 199.944 Z" fill="#000000" fill-rule="nonzero" fill-opacity="1" /><path clip-path="url(#clip370)" d="M782.69 210.985 L782.69 214.967 Q780.884 213.971 779.056 213.485 Q777.25 212.976 775.398 212.976 Q771.255 212.976 768.963 215.615 Q766.671 218.231 766.671 222.976 Q766.671 227.721 768.963 230.36 Q771.255 232.976 775.398 232.976 Q777.25 232.976 779.056 232.49 Q780.884 231.981 782.69 230.985 L782.69 234.92 Q780.907 235.754 778.986 236.17 Q777.088 236.587 774.935 236.587 Q769.079 236.587 765.63 232.906 Q762.181 229.226 762.181 222.976 Q762.181 216.633 765.653 212.999 Q769.148 209.365 775.213 209.365 Q777.181 209.365 779.056 209.782 Q780.931 210.175 782.69 210.985 Z" fill="#000000" fill-rule="nonzero" fill-opacity="1" /><path clip-path="url(#clip370)" d="M789.75 201.356 L794.449 201.356 L794.449 222.351 Q794.449 227.907 796.463 230.36 Q798.477 232.791 802.991 232.791 Q807.481 232.791 809.495 230.36 Q811.509 227.907 811.509 222.351 L811.509 201.356 L816.208 201.356 L816.208 222.93 Q816.208 229.689 812.852 233.138 Q809.518 236.587 802.991 236.587 Q796.44 236.587 793.083 233.138 Q789.75 229.689 789.75 222.93 L789.75 201.356 Z" fill="#000000" fill-rule="nonzero" fill-opacity="1" /><path clip-path="url(#clip370)" d="M829.657 205.198 L829.657 232.073 L835.305 232.073 Q842.458 232.073 845.768 228.832 Q849.101 225.592 849.101 218.601 Q849.101 211.657 845.768 208.439 Q842.458 205.198 835.305 205.198 L829.657 205.198 M824.981 201.356 L834.588 201.356 Q844.634 201.356 849.333 205.546 Q854.032 209.712 854.032 218.601 Q854.032 227.536 849.31 231.726 Q844.588 235.916 834.588 235.916 L824.981 235.916 L824.981 201.356 Z" fill="#000000" fill-rule="nonzero" fill-opacity="1" /><path clip-path="url(#clip370)" d="M861.486 201.356 L883.337 201.356 L883.337 205.291 L866.162 205.291 L866.162 215.522 L882.62 215.522 L882.62 219.457 L866.162 219.457 L866.162 231.981 L883.754 231.981 L883.754 235.916 L861.486 235.916 L861.486 201.356 Z" fill="#000000" fill-rule="nonzero" fill-opacity="1" /><path clip-path="url(#clip370)" d="M892.342 230.036 L897.226 230.036 L897.226 234.018 L893.43 241.425 L890.444 241.425 L892.342 234.018 L892.342 230.036 Z" fill="#000000" fill-rule="nonzero" fill-opacity="1" /><path clip-path="url(#clip370)" d="M937.92 210.754 L937.92 214.782 Q936.115 213.856 934.17 213.393 Q932.226 212.93 930.143 212.93 Q926.971 212.93 925.374 213.902 Q923.8 214.874 923.8 216.819 Q923.8 218.3 924.934 219.157 Q926.069 219.99 929.495 220.754 L930.953 221.078 Q935.49 222.05 937.388 223.832 Q939.309 225.592 939.309 228.763 Q939.309 232.374 936.439 234.481 Q933.592 236.587 928.592 236.587 Q926.508 236.587 924.24 236.17 Q921.995 235.777 919.495 234.967 L919.495 230.569 Q921.856 231.795 924.147 232.42 Q926.439 233.022 928.684 233.022 Q931.694 233.022 933.314 232.004 Q934.934 230.962 934.934 229.087 Q934.934 227.351 933.754 226.425 Q932.596 225.499 928.638 224.643 L927.157 224.295 Q923.198 223.462 921.439 221.749 Q919.68 220.013 919.68 217.004 Q919.68 213.346 922.272 211.356 Q924.865 209.365 929.633 209.365 Q931.995 209.365 934.078 209.712 Q936.161 210.059 937.92 210.754 Z" fill="#000000" fill-rule="nonzero" fill-opacity="1" /><path clip-path="url(#clip370)" d="M957.874 222.883 Q952.712 222.883 950.721 224.064 Q948.731 225.244 948.731 228.092 Q948.731 230.36 950.212 231.703 Q951.717 233.022 954.286 233.022 Q957.828 233.022 959.957 230.522 Q962.11 227.999 962.11 223.832 L962.11 222.883 L957.874 222.883 M966.369 221.124 L966.369 235.916 L962.11 235.916 L962.11 231.981 Q960.652 234.342 958.476 235.476 Q956.3 236.587 953.152 236.587 Q949.17 236.587 946.809 234.365 Q944.471 232.119 944.471 228.369 Q944.471 223.994 947.388 221.772 Q950.328 219.55 956.138 219.55 L962.11 219.55 L962.11 219.133 Q962.11 216.194 960.166 214.596 Q958.244 212.976 954.749 212.976 Q952.527 212.976 950.42 213.508 Q948.314 214.041 946.369 215.106 L946.369 211.17 Q948.707 210.268 950.906 209.828 Q953.106 209.365 955.189 209.365 Q960.814 209.365 963.592 212.282 Q966.369 215.198 966.369 221.124 Z" fill="#000000" fill-rule="nonzero" fill-opacity="1" /><path clip-path="url(#clip370)" d="M972.087 209.99 L976.601 209.99 L984.703 231.749 L992.804 209.99 L997.318 209.99 L987.596 235.916 L981.809 235.916 L972.087 209.99 Z" fill="#000000" fill-rule="nonzero" fill-opacity="1" /><path clip-path="url(#clip370)" d="M1025.37 221.888 L1025.37 223.971 L1005.79 223.971 Q1006.07 228.369 1008.43 230.684 Q1010.81 232.976 1015.05 232.976 Q1017.5 232.976 1019.8 232.374 Q1022.11 231.772 1024.38 230.569 L1024.38 234.596 Q1022.09 235.568 1019.68 236.078 Q1017.27 236.587 1014.8 236.587 Q1008.59 236.587 1004.96 232.976 Q1001.35 229.365 1001.35 223.207 Q1001.35 216.842 1004.77 213.115 Q1008.22 209.365 1014.05 209.365 Q1019.29 209.365 1022.32 212.745 Q1025.37 216.101 1025.37 221.888 M1021.11 220.638 Q1021.07 217.143 1019.15 215.059 Q1017.25 212.976 1014.1 212.976 Q1010.54 212.976 1008.38 214.99 Q1006.25 217.004 1005.93 220.661 L1021.11 220.638 Z" fill="#000000" fill-rule="nonzero" fill-opacity="1" /><path clip-path="url(#clip370)" d="M1044.15 222.883 Q1038.98 222.883 1036.99 224.064 Q1035 225.244 1035 228.092 Q1035 230.36 1036.48 231.703 Q1037.99 233.022 1040.56 233.022 Q1044.1 233.022 1046.23 230.522 Q1048.38 227.999 1048.38 223.832 L1048.38 222.883 L1044.15 222.883 M1052.64 221.124 L1052.64 235.916 L1048.38 235.916 L1048.38 231.981 Q1046.92 234.342 1044.75 235.476 Q1042.57 236.587 1039.42 236.587 Q1035.44 236.587 1033.08 234.365 Q1030.74 232.119 1030.74 228.369 Q1030.74 223.994 1033.66 221.772 Q1036.6 219.55 1042.41 219.55 L1048.38 219.55 L1048.38 219.133 Q1048.38 216.194 1046.44 214.596 Q1044.52 212.976 1041.02 212.976 Q1038.8 212.976 1036.69 213.508 Q1034.59 214.041 1032.64 215.106 L1032.64 211.17 Q1034.98 210.268 1037.18 209.828 Q1039.38 209.365 1041.46 209.365 Q1047.09 209.365 1049.86 212.282 Q1052.64 215.198 1052.64 221.124 Z" fill="#000000" fill-rule="nonzero" fill-opacity="1" /><path clip-path="url(#clip370)" d="M1065.63 202.629 L1065.63 209.99 L1074.4 209.99 L1074.4 213.3 L1065.63 213.3 L1065.63 227.374 Q1065.63 230.545 1066.48 231.448 Q1067.36 232.351 1070.03 232.351 L1074.4 232.351 L1074.4 235.916 L1070.03 235.916 Q1065.1 235.916 1063.22 234.087 Q1061.35 232.235 1061.35 227.374 L1061.35 213.3 L1058.22 213.3 L1058.22 209.99 L1061.35 209.99 L1061.35 202.629 L1065.63 202.629 Z" fill="#000000" fill-rule="nonzero" fill-opacity="1" /><path clip-path="url(#clip370)" d="M1080.56 214.388 L1110.23 214.388 L1110.23 218.277 L1080.56 218.277 L1080.56 214.388 M1080.56 223.832 L1110.23 223.832 L1110.23 227.768 L1080.56 227.768 L1080.56 223.832 Z" fill="#000000" fill-rule="nonzero" fill-opacity="1" /><path clip-path="url(#clip370)" d="M1121.14 231.981 L1128.78 231.981 L1128.78 205.615 L1120.47 207.282 L1120.47 203.022 L1128.73 201.356 L1133.41 201.356 L1133.41 231.981 L1141.04 231.981 L1141.04 235.916 L1121.14 235.916 L1121.14 231.981 Z" fill="#000000" fill-rule="nonzero" fill-opacity="1" /><path clip-path="url(#clip370)" d="M1149.22 199.944 L1152.92 199.944 Q1156.39 205.407 1158.1 210.638 Q1159.84 215.87 1159.84 221.032 Q1159.84 226.217 1158.1 231.471 Q1156.39 236.726 1152.92 242.166 L1149.22 242.166 Q1152.29 236.865 1153.8 231.633 Q1155.33 226.379 1155.33 221.032 Q1155.33 215.684 1153.8 210.476 Q1152.29 205.268 1149.22 199.944 Z" fill="#000000" fill-rule="nonzero" fill-opacity="1" /><line clip-path="url(#clip370)" x1="343.596" y1="270.476" x2="321.196" y2="248.076" style="stroke:#dc143c; stroke-width:5.12; stroke-opacity:1"/>
<line clip-path="url(#clip370)" x1="343.596" y1="270.476" x2="321.196" y2="292.876" style="stroke:#dc143c; stroke-width:5.12; stroke-opacity:1"/>
<line clip-path="url(#clip370)" x1="343.596" y1="270.476" x2="365.996" y2="292.876" style="stroke:#dc143c; stroke-width:5.12; stroke-opacity:1"/>
<line clip-path="url(#clip370)" x1="343.596" y1="270.476" x2="365.996" y2="248.076" style="stroke:#dc143c; stroke-width:5.12; stroke-opacity:1"/>
<path clip-path="url(#clip370)" d="M456.812 271.552 Q458.317 272.061 459.729 273.728 Q461.164 275.395 462.599 278.311 L467.344 287.756 L462.321 287.756 L457.9 278.89 Q456.187 275.418 454.567 274.284 Q452.969 273.149 450.192 273.149 L445.099 273.149 L445.099 287.756 L440.423 287.756 L440.423 253.196 L450.979 253.196 Q456.904 253.196 459.821 255.673 Q462.738 258.149 462.738 263.149 Q462.738 266.413 461.21 268.566 Q459.705 270.719 456.812 271.552 M445.099 257.038 L445.099 269.307 L450.979 269.307 Q454.358 269.307 456.071 267.756 Q457.807 266.182 457.807 263.149 Q457.807 260.117 456.071 258.589 Q454.358 257.038 450.979 257.038 L445.099 257.038 Z" fill="#000000" fill-rule="nonzero" fill-opacity="1" /><path clip-path="url(#clip370)" d="M493.224 273.728 L493.224 275.811 L473.641 275.811 Q473.918 280.209 476.279 282.524 Q478.664 284.816 482.9 284.816 Q485.353 284.816 487.645 284.214 Q489.96 283.612 492.228 282.409 L492.228 286.436 Q489.937 287.408 487.529 287.918 Q485.122 288.427 482.645 288.427 Q476.441 288.427 472.807 284.816 Q469.196 281.205 469.196 275.047 Q469.196 268.682 472.622 264.955 Q476.071 261.205 481.904 261.205 Q487.136 261.205 490.168 264.585 Q493.224 267.941 493.224 273.728 M488.965 272.478 Q488.918 268.983 486.997 266.899 Q485.099 264.816 481.951 264.816 Q478.386 264.816 476.233 266.83 Q474.103 268.844 473.779 272.501 L488.965 272.478 Z" fill="#000000" fill-rule="nonzero" fill-opacity="1" /><path clip-path="url(#clip370)" d="M520.4 266.807 Q521.997 263.936 524.219 262.571 Q526.441 261.205 529.45 261.205 Q533.501 261.205 535.7 264.052 Q537.899 266.876 537.899 272.108 L537.899 287.756 L533.617 287.756 L533.617 272.247 Q533.617 268.52 532.298 266.714 Q530.978 264.909 528.27 264.909 Q524.96 264.909 523.038 267.108 Q521.117 269.307 521.117 273.103 L521.117 287.756 L516.835 287.756 L516.835 272.247 Q516.835 268.497 515.515 266.714 Q514.196 264.909 511.441 264.909 Q508.177 264.909 506.256 267.131 Q504.335 269.33 504.335 273.103 L504.335 287.756 L500.052 287.756 L500.052 261.83 L504.335 261.83 L504.335 265.858 Q505.793 263.473 507.83 262.339 Q509.867 261.205 512.668 261.205 Q515.492 261.205 517.46 262.64 Q519.45 264.075 520.4 266.807 Z" fill="#000000" fill-rule="nonzero" fill-opacity="1" /><path clip-path="url(#clip370)" d="M556.441 264.816 Q553.015 264.816 551.024 267.501 Q549.034 270.163 549.034 274.816 Q549.034 279.469 551.001 282.154 Q552.992 284.816 556.441 284.816 Q559.844 284.816 561.834 282.131 Q563.825 279.446 563.825 274.816 Q563.825 270.21 561.834 267.524 Q559.844 264.816 556.441 264.816 M556.441 261.205 Q561.997 261.205 565.168 264.816 Q568.339 268.427 568.339 274.816 Q568.339 281.182 565.168 284.816 Q561.997 288.427 556.441 288.427 Q550.862 288.427 547.691 284.816 Q544.543 281.182 544.543 274.816 Q544.543 268.427 547.691 264.816 Q550.862 261.205 556.441 261.205 Z" fill="#000000" fill-rule="nonzero" fill-opacity="1" /><path clip-path="url(#clip370)" d="M572.344 261.83 L576.858 261.83 L584.959 283.589 L593.061 261.83 L597.575 261.83 L587.853 287.756 L582.066 287.756 L572.344 261.83 Z" fill="#000000" fill-rule="nonzero" fill-opacity="1" /><path clip-path="url(#clip370)" d="M625.63 273.728 L625.63 275.811 L606.047 275.811 Q606.325 280.209 608.686 282.524 Q611.07 284.816 615.306 284.816 Q617.76 284.816 620.052 284.214 Q622.367 283.612 624.635 282.409 L624.635 286.436 Q622.343 287.408 619.936 287.918 Q617.529 288.427 615.052 288.427 Q608.848 288.427 605.214 284.816 Q601.603 281.205 601.603 275.047 Q601.603 268.682 605.029 264.955 Q608.478 261.205 614.311 261.205 Q619.543 261.205 622.575 264.585 Q625.63 267.941 625.63 273.728 M621.371 272.478 Q621.325 268.983 619.404 266.899 Q617.505 264.816 614.357 264.816 Q610.793 264.816 608.64 266.83 Q606.51 268.844 606.186 272.501 L621.371 272.478 Z" fill="#000000" fill-rule="nonzero" fill-opacity="1" /><path clip-path="url(#clip370)" d="M649.681 265.765 L649.681 251.737 L653.94 251.737 L653.94 287.756 L649.681 287.756 L649.681 283.867 Q648.339 286.182 646.278 287.316 Q644.241 288.427 641.371 288.427 Q636.672 288.427 633.709 284.677 Q630.769 280.927 630.769 274.816 Q630.769 268.705 633.709 264.955 Q636.672 261.205 641.371 261.205 Q644.241 261.205 646.278 262.339 Q648.339 263.45 649.681 265.765 M635.167 274.816 Q635.167 279.515 637.089 282.2 Q639.033 284.862 642.413 284.862 Q645.792 284.862 647.737 282.2 Q649.681 279.515 649.681 274.816 Q649.681 270.117 647.737 267.455 Q645.792 264.77 642.413 264.77 Q639.033 264.77 637.089 267.455 Q635.167 270.117 635.167 274.816 Z" fill="#000000" fill-rule="nonzero" fill-opacity="1" /><path clip-path="url(#clip370)" d="M697.968 266.807 Q699.565 263.936 701.787 262.571 Q704.01 261.205 707.019 261.205 Q711.07 261.205 713.269 264.052 Q715.468 266.876 715.468 272.108 L715.468 287.756 L711.186 287.756 L711.186 272.247 Q711.186 268.52 709.866 266.714 Q708.547 264.909 705.838 264.909 Q702.528 264.909 700.607 267.108 Q698.686 269.307 698.686 273.103 L698.686 287.756 L694.403 287.756 L694.403 272.247 Q694.403 268.497 693.084 266.714 Q691.764 264.909 689.01 264.909 Q685.746 264.909 683.825 267.131 Q681.903 269.33 681.903 273.103 L681.903 287.756 L677.621 287.756 L677.621 261.83 L681.903 261.83 L681.903 265.858 Q683.362 263.473 685.399 262.339 Q687.436 261.205 690.237 261.205 Q693.061 261.205 695.028 262.64 Q697.019 264.075 697.968 266.807 Z" fill="#000000" fill-rule="nonzero" fill-opacity="1" /><path clip-path="url(#clip370)" d="M746.139 273.728 L746.139 275.811 L726.556 275.811 Q726.834 280.209 729.195 282.524 Q731.579 284.816 735.815 284.816 Q738.269 284.816 740.56 284.214 Q742.875 283.612 745.144 282.409 L745.144 286.436 Q742.852 287.408 740.445 287.918 Q738.037 288.427 735.56 288.427 Q729.357 288.427 725.723 284.816 Q722.111 281.205 722.111 275.047 Q722.111 268.682 725.537 264.955 Q728.986 261.205 734.82 261.205 Q740.051 261.205 743.084 264.585 Q746.139 267.941 746.139 273.728 M741.88 272.478 Q741.834 268.983 739.912 266.899 Q738.014 264.816 734.866 264.816 Q731.301 264.816 729.148 266.83 Q727.019 268.844 726.695 272.501 L741.88 272.478 Z" fill="#000000" fill-rule="nonzero" fill-opacity="1" /><path clip-path="url(#clip370)" d="M764.912 274.723 Q759.75 274.723 757.759 275.904 Q755.769 277.084 755.769 279.932 Q755.769 282.2 757.25 283.543 Q758.755 284.862 761.324 284.862 Q764.866 284.862 766.995 282.362 Q769.148 279.839 769.148 275.672 L769.148 274.723 L764.912 274.723 M773.407 272.964 L773.407 287.756 L769.148 287.756 L769.148 283.821 Q767.69 286.182 765.514 287.316 Q763.338 288.427 760.19 288.427 Q756.208 288.427 753.847 286.205 Q751.509 283.959 751.509 280.209 Q751.509 275.834 754.426 273.612 Q757.366 271.39 763.176 271.39 L769.148 271.39 L769.148 270.973 Q769.148 268.034 767.204 266.436 Q765.282 264.816 761.787 264.816 Q759.565 264.816 757.458 265.348 Q755.352 265.881 753.408 266.946 L753.408 263.01 Q755.745 262.108 757.945 261.668 Q760.144 261.205 762.227 261.205 Q767.852 261.205 770.63 264.122 Q773.407 267.038 773.407 272.964 Z" fill="#000000" fill-rule="nonzero" fill-opacity="1" /><path clip-path="url(#clip370)" d="M798.708 262.594 L798.708 266.622 Q796.903 265.696 794.958 265.233 Q793.014 264.77 790.93 264.77 Q787.759 264.77 786.162 265.742 Q784.588 266.714 784.588 268.659 Q784.588 270.14 785.722 270.997 Q786.856 271.83 790.282 272.594 L791.741 272.918 Q796.278 273.89 798.176 275.672 Q800.097 277.432 800.097 280.603 Q800.097 284.214 797.227 286.321 Q794.38 288.427 789.38 288.427 Q787.296 288.427 785.028 288.01 Q782.782 287.617 780.282 286.807 L780.282 282.409 Q782.643 283.635 784.935 284.26 Q787.227 284.862 789.472 284.862 Q792.481 284.862 794.102 283.844 Q795.722 282.802 795.722 280.927 Q795.722 279.191 794.542 278.265 Q793.384 277.339 789.426 276.483 L787.944 276.135 Q783.986 275.302 782.227 273.589 Q780.468 271.853 780.468 268.844 Q780.468 265.186 783.06 263.196 Q785.653 261.205 790.421 261.205 Q792.782 261.205 794.866 261.552 Q796.949 261.899 798.708 262.594 Z" fill="#000000" fill-rule="nonzero" fill-opacity="1" /><path clip-path="url(#clip370)" d="M806.44 277.524 L806.44 261.83 L810.699 261.83 L810.699 277.362 Q810.699 281.043 812.134 282.895 Q813.569 284.723 816.44 284.723 Q819.889 284.723 821.879 282.524 Q823.893 280.325 823.893 276.529 L823.893 261.83 L828.153 261.83 L828.153 287.756 L823.893 287.756 L823.893 283.774 Q822.342 286.135 820.282 287.293 Q818.245 288.427 815.537 288.427 Q811.069 288.427 808.754 285.649 Q806.44 282.871 806.44 277.524 M817.157 261.205 L817.157 261.205 Z" fill="#000000" fill-rule="nonzero" fill-opacity="1" /><path clip-path="url(#clip370)" d="M851.949 265.811 Q851.231 265.395 850.375 265.21 Q849.541 265.001 848.523 265.001 Q844.912 265.001 842.967 267.362 Q841.046 269.7 841.046 274.098 L841.046 287.756 L836.764 287.756 L836.764 261.83 L841.046 261.83 L841.046 265.858 Q842.389 263.497 844.541 262.362 Q846.694 261.205 849.773 261.205 Q850.213 261.205 850.745 261.274 Q851.277 261.321 851.926 261.436 L851.949 265.811 Z" fill="#000000" fill-rule="nonzero" fill-opacity="1" /><path clip-path="url(#clip370)" d="M877.55 273.728 L877.55 275.811 L857.967 275.811 Q858.245 280.209 860.606 282.524 Q862.99 284.816 867.226 284.816 Q869.68 284.816 871.972 284.214 Q874.287 283.612 876.555 282.409 L876.555 286.436 Q874.263 287.408 871.856 287.918 Q869.449 288.427 866.972 288.427 Q860.768 288.427 857.134 284.816 Q853.523 281.205 853.523 275.047 Q853.523 268.682 856.949 264.955 Q860.398 261.205 866.231 261.205 Q871.462 261.205 874.495 264.585 Q877.55 267.941 877.55 273.728 M873.291 272.478 Q873.245 268.983 871.324 266.899 Q869.425 264.816 866.277 264.816 Q862.713 264.816 860.56 266.83 Q858.43 268.844 858.106 272.501 L873.291 272.478 Z" fill="#000000" fill-rule="nonzero" fill-opacity="1" /><path clip-path="url(#clip370)" d="M904.726 266.807 Q906.323 263.936 908.546 262.571 Q910.768 261.205 913.777 261.205 Q917.828 261.205 920.027 264.052 Q922.226 266.876 922.226 272.108 L922.226 287.756 L917.944 287.756 L917.944 272.247 Q917.944 268.52 916.624 266.714 Q915.305 264.909 912.597 264.909 Q909.286 264.909 907.365 267.108 Q905.444 269.307 905.444 273.103 L905.444 287.756 L901.161 287.756 L901.161 272.247 Q901.161 268.497 899.842 266.714 Q898.523 264.909 895.768 264.909 Q892.504 264.909 890.583 267.131 Q888.661 269.33 888.661 273.103 L888.661 287.756 L884.379 287.756 L884.379 261.83 L888.661 261.83 L888.661 265.858 Q890.12 263.473 892.157 262.339 Q894.194 261.205 896.995 261.205 Q899.819 261.205 901.786 262.64 Q903.777 264.075 904.726 266.807 Z" fill="#000000" fill-rule="nonzero" fill-opacity="1" /><path clip-path="url(#clip370)" d="M952.897 273.728 L952.897 275.811 L933.314 275.811 Q933.592 280.209 935.953 282.524 Q938.337 284.816 942.573 284.816 Q945.027 284.816 947.319 284.214 Q949.633 283.612 951.902 282.409 L951.902 286.436 Q949.61 287.408 947.203 287.918 Q944.795 288.427 942.319 288.427 Q936.115 288.427 932.481 284.816 Q928.87 281.205 928.87 275.047 Q928.87 268.682 932.295 264.955 Q935.745 261.205 941.578 261.205 Q946.809 261.205 949.842 264.585 Q952.897 267.941 952.897 273.728 M948.638 272.478 Q948.592 268.983 946.67 266.899 Q944.772 264.816 941.624 264.816 Q938.059 264.816 935.907 266.83 Q933.777 268.844 933.453 272.501 L948.638 272.478 Z" fill="#000000" fill-rule="nonzero" fill-opacity="1" /><path clip-path="url(#clip370)" d="M981.439 272.108 L981.439 287.756 L977.179 287.756 L977.179 272.247 Q977.179 268.566 975.744 266.737 Q974.309 264.909 971.439 264.909 Q967.99 264.909 965.999 267.108 Q964.008 269.307 964.008 273.103 L964.008 287.756 L959.726 287.756 L959.726 261.83 L964.008 261.83 L964.008 265.858 Q965.536 263.52 967.596 262.362 Q969.68 261.205 972.388 261.205 Q976.855 261.205 979.147 263.983 Q981.439 266.737 981.439 272.108 Z" fill="#000000" fill-rule="nonzero" fill-opacity="1" /><path clip-path="url(#clip370)" d="M994.147 254.469 L994.147 261.83 L1002.92 261.83 L1002.92 265.14 L994.147 265.14 L994.147 279.214 Q994.147 282.385 995.003 283.288 Q995.883 284.191 998.545 284.191 L1002.92 284.191 L1002.92 287.756 L998.545 287.756 Q993.615 287.756 991.74 285.927 Q989.865 284.075 989.865 279.214 L989.865 265.14 L986.74 265.14 L986.74 261.83 L989.865 261.83 L989.865 254.469 L994.147 254.469 Z" fill="#000000" fill-rule="nonzero" fill-opacity="1" /><path clip-path="url(#clip370)" d="M1025.05 262.594 L1025.05 266.622 Q1023.24 265.696 1021.3 265.233 Q1019.36 264.77 1017.27 264.77 Q1014.1 264.77 1012.5 265.742 Q1010.93 266.714 1010.93 268.659 Q1010.93 270.14 1012.06 270.997 Q1013.2 271.83 1016.62 272.594 L1018.08 272.918 Q1022.62 273.89 1024.52 275.672 Q1026.44 277.432 1026.44 280.603 Q1026.44 284.214 1023.57 286.321 Q1020.72 288.427 1015.72 288.427 Q1013.64 288.427 1011.37 288.01 Q1009.12 287.617 1006.62 286.807 L1006.62 282.409 Q1008.98 283.635 1011.28 284.26 Q1013.57 284.862 1015.81 284.862 Q1018.82 284.862 1020.44 283.844 Q1022.06 282.802 1022.06 280.927 Q1022.06 279.191 1020.88 278.265 Q1019.73 277.339 1015.77 276.483 L1014.29 276.135 Q1010.33 275.302 1008.57 273.589 Q1006.81 271.853 1006.81 268.844 Q1006.81 265.186 1009.4 263.196 Q1011.99 261.205 1016.76 261.205 Q1019.12 261.205 1021.21 261.552 Q1023.29 261.899 1025.05 262.594 Z" fill="#000000" fill-rule="nonzero" fill-opacity="1" /><circle clip-path="url(#clip370)" cx="343.596" cy="322.316" r="20.9455" fill="#1e90ff" fill-rule="evenodd" fill-opacity="1" stroke="#000000" stroke-opacity="1" stroke-width="3.72364"/>
<path clip-path="url(#clip370)" d="M440.423 305.036 L445.122 305.036 L445.122 326.031 Q445.122 331.587 447.136 334.04 Q449.15 336.471 453.664 336.471 Q458.154 336.471 460.168 334.04 Q462.182 331.587 462.182 326.031 L462.182 305.036 L466.881 305.036 L466.881 326.61 Q466.881 333.369 463.525 336.818 Q460.192 340.267 453.664 340.267 Q447.113 340.267 443.756 336.818 Q440.423 333.369 440.423 326.61 L440.423 305.036 Z" fill="#000000" fill-rule="nonzero" fill-opacity="1" /><path clip-path="url(#clip370)" d="M491.997 314.434 L491.997 318.462 Q490.191 317.536 488.247 317.073 Q486.302 316.61 484.219 316.61 Q481.048 316.61 479.451 317.582 Q477.877 318.554 477.877 320.499 Q477.877 321.98 479.011 322.837 Q480.145 323.67 483.571 324.434 L485.029 324.758 Q489.566 325.73 491.464 327.512 Q493.386 329.272 493.386 332.443 Q493.386 336.054 490.515 338.161 Q487.668 340.267 482.668 340.267 Q480.585 340.267 478.316 339.85 Q476.071 339.457 473.571 338.647 L473.571 334.249 Q475.932 335.475 478.224 336.1 Q480.515 336.702 482.761 336.702 Q485.77 336.702 487.39 335.684 Q489.011 334.642 489.011 332.767 Q489.011 331.031 487.83 330.105 Q486.673 329.179 482.715 328.323 L481.233 327.975 Q477.275 327.142 475.516 325.429 Q473.756 323.693 473.756 320.684 Q473.756 317.026 476.349 315.036 Q478.941 313.045 483.71 313.045 Q486.071 313.045 488.154 313.392 Q490.238 313.739 491.997 314.434 Z" fill="#000000" fill-rule="nonzero" fill-opacity="1" /><path clip-path="url(#clip370)" d="M522.344 325.568 L522.344 327.651 L502.761 327.651 Q503.039 332.049 505.4 334.364 Q507.784 336.656 512.02 336.656 Q514.474 336.656 516.765 336.054 Q519.08 335.452 521.349 334.249 L521.349 338.276 Q519.057 339.248 516.65 339.758 Q514.242 340.267 511.765 340.267 Q505.562 340.267 501.927 336.656 Q498.316 333.045 498.316 326.887 Q498.316 320.522 501.742 316.795 Q505.191 313.045 511.025 313.045 Q516.256 313.045 519.288 316.425 Q522.344 319.781 522.344 325.568 M518.085 324.318 Q518.038 320.823 516.117 318.739 Q514.219 316.656 511.071 316.656 Q507.506 316.656 505.353 318.67 Q503.224 320.684 502.9 324.341 L518.085 324.318 Z" fill="#000000" fill-rule="nonzero" fill-opacity="1" /><path clip-path="url(#clip370)" d="M546.395 317.605 L546.395 303.577 L550.654 303.577 L550.654 339.596 L546.395 339.596 L546.395 335.707 Q545.052 338.022 542.992 339.156 Q540.955 340.267 538.085 340.267 Q533.386 340.267 530.423 336.517 Q527.483 332.767 527.483 326.656 Q527.483 320.545 530.423 316.795 Q533.386 313.045 538.085 313.045 Q540.955 313.045 542.992 314.179 Q545.052 315.29 546.395 317.605 M531.881 326.656 Q531.881 331.355 533.802 334.04 Q535.747 336.702 539.126 336.702 Q542.506 336.702 544.45 334.04 Q546.395 331.355 546.395 326.656 Q546.395 321.957 544.45 319.295 Q542.506 316.61 539.126 316.61 Q535.747 316.61 533.802 319.295 Q531.881 321.957 531.881 326.656 Z" fill="#000000" fill-rule="nonzero" fill-opacity="1" /><path clip-path="url(#clip370)" d="M594.682 318.647 Q596.279 315.776 598.501 314.411 Q600.723 313.045 603.732 313.045 Q607.783 313.045 609.982 315.892 Q612.181 318.716 612.181 323.948 L612.181 339.596 L607.899 339.596 L607.899 324.087 Q607.899 320.36 606.58 318.554 Q605.26 316.749 602.552 316.749 Q599.242 316.749 597.32 318.948 Q595.399 321.147 595.399 324.943 L595.399 339.596 L591.117 339.596 L591.117 324.087 Q591.117 320.337 589.797 318.554 Q588.478 316.749 585.723 316.749 Q582.459 316.749 580.538 318.971 Q578.617 321.17 578.617 324.943 L578.617 339.596 L574.334 339.596 L574.334 313.67 L578.617 313.67 L578.617 317.698 Q580.075 315.313 582.112 314.179 Q584.149 313.045 586.95 313.045 Q589.774 313.045 591.742 314.48 Q593.732 315.915 594.682 318.647 Z" fill="#000000" fill-rule="nonzero" fill-opacity="1" /><path clip-path="url(#clip370)" d="M642.853 325.568 L642.853 327.651 L623.269 327.651 Q623.547 332.049 625.908 334.364 Q628.292 336.656 632.529 336.656 Q634.982 336.656 637.274 336.054 Q639.589 335.452 641.857 334.249 L641.857 338.276 Q639.566 339.248 637.158 339.758 Q634.751 340.267 632.274 340.267 Q626.07 340.267 622.436 336.656 Q618.825 333.045 618.825 326.887 Q618.825 320.522 622.251 316.795 Q625.7 313.045 631.533 313.045 Q636.765 313.045 639.797 316.425 Q642.853 319.781 642.853 325.568 M638.593 324.318 Q638.547 320.823 636.626 318.739 Q634.728 316.656 631.579 316.656 Q628.015 316.656 625.862 318.67 Q623.732 320.684 623.408 324.341 L638.593 324.318 Z" fill="#000000" fill-rule="nonzero" fill-opacity="1" /><path clip-path="url(#clip370)" d="M661.626 326.563 Q656.464 326.563 654.473 327.744 Q652.482 328.924 652.482 331.772 Q652.482 334.04 653.964 335.383 Q655.468 336.702 658.038 336.702 Q661.579 336.702 663.709 334.202 Q665.862 331.679 665.862 327.512 L665.862 326.563 L661.626 326.563 M670.121 324.804 L670.121 339.596 L665.862 339.596 L665.862 335.661 Q664.403 338.022 662.227 339.156 Q660.052 340.267 656.903 340.267 Q652.922 340.267 650.561 338.045 Q648.223 335.799 648.223 332.049 Q648.223 327.674 651.14 325.452 Q654.079 323.23 659.89 323.23 L665.862 323.23 L665.862 322.813 Q665.862 319.874 663.917 318.276 Q661.996 316.656 658.501 316.656 Q656.278 316.656 654.172 317.188 Q652.065 317.721 650.121 318.786 L650.121 314.85 Q652.459 313.948 654.658 313.508 Q656.857 313.045 658.94 313.045 Q664.565 313.045 667.343 315.962 Q670.121 318.878 670.121 324.804 Z" fill="#000000" fill-rule="nonzero" fill-opacity="1" /><path clip-path="url(#clip370)" d="M695.422 314.434 L695.422 318.462 Q693.616 317.536 691.672 317.073 Q689.727 316.61 687.644 316.61 Q684.473 316.61 682.876 317.582 Q681.301 318.554 681.301 320.499 Q681.301 321.98 682.436 322.837 Q683.57 323.67 686.996 324.434 L688.454 324.758 Q692.991 325.73 694.889 327.512 Q696.811 329.272 696.811 332.443 Q696.811 336.054 693.94 338.161 Q691.093 340.267 686.093 340.267 Q684.01 340.267 681.741 339.85 Q679.496 339.457 676.996 338.647 L676.996 334.249 Q679.357 335.475 681.649 336.1 Q683.94 336.702 686.186 336.702 Q689.195 336.702 690.815 335.684 Q692.436 334.642 692.436 332.767 Q692.436 331.031 691.255 330.105 Q690.098 329.179 686.139 328.323 L684.658 327.975 Q680.7 327.142 678.94 325.429 Q677.181 323.693 677.181 320.684 Q677.181 317.026 679.774 315.036 Q682.366 313.045 687.135 313.045 Q689.496 313.045 691.579 313.392 Q693.662 313.739 695.422 314.434 Z" fill="#000000" fill-rule="nonzero" fill-opacity="1" /><path clip-path="url(#clip370)" d="M703.153 329.364 L703.153 313.67 L707.412 313.67 L707.412 329.202 Q707.412 332.883 708.848 334.735 Q710.283 336.563 713.153 336.563 Q716.602 336.563 718.593 334.364 Q720.607 332.165 720.607 328.369 L720.607 313.67 L724.866 313.67 L724.866 339.596 L720.607 339.596 L720.607 335.614 Q719.056 337.975 716.996 339.133 Q714.959 340.267 712.25 340.267 Q707.783 340.267 705.468 337.489 Q703.153 334.711 703.153 329.364 M713.871 313.045 L713.871 313.045 Z" fill="#000000" fill-rule="nonzero" fill-opacity="1" /><path clip-path="url(#clip370)" d="M748.662 317.651 Q747.945 317.235 747.088 317.05 Q746.255 316.841 745.236 316.841 Q741.625 316.841 739.681 319.202 Q737.759 321.54 737.759 325.938 L737.759 339.596 L733.477 339.596 L733.477 313.67 L737.759 313.67 L737.759 317.698 Q739.102 315.337 741.255 314.202 Q743.408 313.045 746.486 313.045 Q746.926 313.045 747.458 313.114 Q747.991 313.161 748.639 313.276 L748.662 317.651 Z" fill="#000000" fill-rule="nonzero" fill-opacity="1" /><path clip-path="url(#clip370)" d="M774.264 325.568 L774.264 327.651 L754.681 327.651 Q754.958 332.049 757.32 334.364 Q759.704 336.656 763.94 336.656 Q766.394 336.656 768.685 336.054 Q771 335.452 773.269 334.249 L773.269 338.276 Q770.977 339.248 768.569 339.758 Q766.162 340.267 763.685 340.267 Q757.482 340.267 753.847 336.656 Q750.236 333.045 750.236 326.887 Q750.236 320.522 753.662 316.795 Q757.111 313.045 762.945 313.045 Q768.176 313.045 771.208 316.425 Q774.264 319.781 774.264 325.568 M770.005 324.318 Q769.958 320.823 768.037 318.739 Q766.139 316.656 762.991 316.656 Q759.426 316.656 757.273 318.67 Q755.144 320.684 754.82 324.341 L770.005 324.318 Z" fill="#000000" fill-rule="nonzero" fill-opacity="1" /><path clip-path="url(#clip370)" d="M801.44 318.647 Q803.037 315.776 805.259 314.411 Q807.481 313.045 810.491 313.045 Q814.541 313.045 816.741 315.892 Q818.94 318.716 818.94 323.948 L818.94 339.596 L814.657 339.596 L814.657 324.087 Q814.657 320.36 813.338 318.554 Q812.018 316.749 809.31 316.749 Q806 316.749 804.079 318.948 Q802.157 321.147 802.157 324.943 L802.157 339.596 L797.875 339.596 L797.875 324.087 Q797.875 320.337 796.555 318.554 Q795.236 316.749 792.481 316.749 Q789.218 316.749 787.296 318.971 Q785.375 321.17 785.375 324.943 L785.375 339.596 L781.093 339.596 L781.093 313.67 L785.375 313.67 L785.375 317.698 Q786.833 315.313 788.87 314.179 Q790.907 313.045 793.708 313.045 Q796.532 313.045 798.5 314.48 Q800.491 315.915 801.44 318.647 Z" fill="#000000" fill-rule="nonzero" fill-opacity="1" /><path clip-path="url(#clip370)" d="M849.611 325.568 L849.611 327.651 L830.027 327.651 Q830.305 332.049 832.666 334.364 Q835.051 336.656 839.287 336.656 Q841.74 336.656 844.032 336.054 Q846.347 335.452 848.615 334.249 L848.615 338.276 Q846.324 339.248 843.916 339.758 Q841.509 340.267 839.032 340.267 Q832.828 340.267 829.194 336.656 Q825.583 333.045 825.583 326.887 Q825.583 320.522 829.009 316.795 Q832.458 313.045 838.291 313.045 Q843.523 313.045 846.555 316.425 Q849.611 319.781 849.611 325.568 M845.351 324.318 Q845.305 320.823 843.384 318.739 Q841.486 316.656 838.338 316.656 Q834.773 316.656 832.62 318.67 Q830.49 320.684 830.166 324.341 L845.351 324.318 Z" fill="#000000" fill-rule="nonzero" fill-opacity="1" /><path clip-path="url(#clip370)" d="M878.152 323.948 L878.152 339.596 L873.893 339.596 L873.893 324.087 Q873.893 320.406 872.458 318.577 Q871.023 316.749 868.152 316.749 Q864.703 316.749 862.713 318.948 Q860.722 321.147 860.722 324.943 L860.722 339.596 L856.439 339.596 L856.439 313.67 L860.722 313.67 L860.722 317.698 Q862.25 315.36 864.31 314.202 Q866.393 313.045 869.101 313.045 Q873.569 313.045 875.861 315.823 Q878.152 318.577 878.152 323.948 Z" fill="#000000" fill-rule="nonzero" fill-opacity="1" /><path clip-path="url(#clip370)" d="M890.861 306.309 L890.861 313.67 L899.634 313.67 L899.634 316.98 L890.861 316.98 L890.861 331.054 Q890.861 334.225 891.717 335.128 Q892.597 336.031 895.259 336.031 L899.634 336.031 L899.634 339.596 L895.259 339.596 Q890.328 339.596 888.453 337.767 Q886.578 335.915 886.578 331.054 L886.578 316.98 L883.453 316.98 L883.453 313.67 L886.578 313.67 L886.578 306.309 L890.861 306.309 Z" fill="#000000" fill-rule="nonzero" fill-opacity="1" /><path clip-path="url(#clip370)" d="M921.763 314.434 L921.763 318.462 Q919.958 317.536 918.013 317.073 Q916.069 316.61 913.985 316.61 Q910.814 316.61 909.217 317.582 Q907.643 318.554 907.643 320.499 Q907.643 321.98 908.777 322.837 Q909.911 323.67 913.337 324.434 L914.796 324.758 Q919.333 325.73 921.231 327.512 Q923.152 329.272 923.152 332.443 Q923.152 336.054 920.282 338.161 Q917.434 340.267 912.434 340.267 Q910.351 340.267 908.083 339.85 Q905.837 339.457 903.337 338.647 L903.337 334.249 Q905.698 335.475 907.99 336.1 Q910.282 336.702 912.527 336.702 Q915.536 336.702 917.157 335.684 Q918.777 334.642 918.777 332.767 Q918.777 331.031 917.596 330.105 Q916.439 329.179 912.481 328.323 L910.999 327.975 Q907.041 327.142 905.282 325.429 Q903.522 323.693 903.522 320.684 Q903.522 317.026 906.115 315.036 Q908.708 313.045 913.476 313.045 Q915.837 313.045 917.921 313.392 Q920.004 313.739 921.763 314.434 Z" fill="#000000" fill-rule="nonzero" fill-opacity="1" /></svg>
