<?xml version="1.0" encoding="utf-8"?>
<svg xmlns="http://www.w3.org/2000/svg" xmlns:xlink="http://www.w3.org/1999/xlink" width="600" height="400" viewBox="0 0 2400 1600">
<defs>
  <clipPath id="clip550">
    <rect x="0" y="0" width="2400" height="1600"/>
  </clipPath>
</defs>
<path clip-path="url(#clip550)" d="M0 1600 L2400 1600 L2400 0 L0 0  Z" fill="#ffffff" fill-rule="evenodd" fill-opacity="1"/>
<defs>
  <clipPath id="clip551">
    <rect x="480" y="0" width="1681" height="1600"/>
  </clipPath>
</defs>
<path clip-path="url(#clip550)" d="M219.38 1423.18 L2352.76 1423.18 L2352.76 123.472 L219.38 123.472  Z" fill="#ffffff" fill-rule="evenodd" fill-opacity="1"/>
<defs>
  <clipPath id="clip552">
    <rect x="219" y="123" width="2134" height="1301"/>
  </clipPath>
</defs>
<polyline clip-path="url(#clip552)" style="stroke:#000000; stroke-linecap:round; stroke-linejoin:round; stroke-width:2; stroke-opacity:0.1; fill:none" points="273.154,1423.18 273.154,123.472 "/>
<polyline clip-path="url(#clip552)" style="stroke:#000000; stroke-linecap:round; stroke-linejoin:round; stroke-width:2; stroke-opacity:0.1; fill:none" points="744.935,1423.18 744.935,123.472 "/>
<polyline clip-path="url(#clip552)" style="stroke:#000000; stroke-linecap:round; stroke-linejoin:round; stroke-width:2; stroke-opacity:0.1; fill:none" points="1216.72,1423.18 1216.72,123.472 "/>
<polyline clip-path="url(#clip552)" style="stroke:#000000; stroke-linecap:round; stroke-linejoin:round; stroke-width:2; stroke-opacity:0.1; fill:none" points="1688.5,1423.18 1688.5,123.472 "/>
<polyline clip-path="url(#clip552)" style="stroke:#000000; stroke-linecap:round; stroke-linejoin:round; stroke-width:2; stroke-opacity:0.1; fill:none" points="2160.28,1423.18 2160.28,123.472 "/>
<polyline clip-path="url(#clip552)" style="stroke:#000000; stroke-linecap:round; stroke-linejoin:round; stroke-width:2; stroke-opacity:0.1; fill:none" points="219.38,1386.4 2352.76,1386.4 "/>
<polyline clip-path="url(#clip552)" style="stroke:#000000; stroke-linecap:round; stroke-linejoin:round; stroke-width:2; stroke-opacity:0.1; fill:none" points="219.38,1163.97 2352.76,1163.97 "/>
<polyline clip-path="url(#clip552)" style="stroke:#000000; stroke-linecap:round; stroke-linejoin:round; stroke-width:2; stroke-opacity:0.1; fill:none" points="219.38,941.547 2352.76,941.547 "/>
<polyline clip-path="url(#clip552)" style="stroke:#000000; stroke-linecap:round; stroke-linejoin:round; stroke-width:2; stroke-opacity:0.1; fill:none" points="219.38,719.123 2352.76,719.123 "/>
<polyline clip-path="url(#clip552)" style="stroke:#000000; stroke-linecap:round; stroke-linejoin:round; stroke-width:2; stroke-opacity:0.1; fill:none" points="219.38,496.699 2352.76,496.699 "/>
<polyline clip-path="url(#clip552)" style="stroke:#000000; stroke-linecap:round; stroke-linejoin:round; stroke-width:2; stroke-opacity:0.1; fill:none" points="219.38,274.275 2352.76,274.275 "/>
<polyline clip-path="url(#clip550)" style="stroke:#000000; stroke-linecap:round; stroke-linejoin:round; stroke-width:4; stroke-opacity:1; fill:none" points="219.38,1423.18 2352.76,1423.18 "/>
<polyline clip-path="url(#clip550)" style="stroke:#000000; stroke-linecap:round; stroke-linejoin:round; stroke-width:4; stroke-opacity:1; fill:none" points="273.154,1423.18 273.154,1404.28 "/>
<polyline clip-path="url(#clip550)" style="stroke:#000000; stroke-linecap:round; stroke-linejoin:round; stroke-width:4; stroke-opacity:1; fill:none" points="744.935,1423.18 744.935,1404.28 "/>
<polyline clip-path="url(#clip550)" style="stroke:#000000; stroke-linecap:round; stroke-linejoin:round; stroke-width:4; stroke-opacity:1; fill:none" points="1216.72,1423.18 1216.72,1404.28 "/>
<polyline clip-path="url(#clip550)" style="stroke:#000000; stroke-linecap:round; stroke-linejoin:round; stroke-width:4; stroke-opacity:1; fill:none" points="1688.5,1423.18 1688.5,1404.28 "/>
<polyline clip-path="url(#clip550)" style="stroke:#000000; stroke-linecap:round; stroke-linejoin:round; stroke-width:4; stroke-opacity:1; fill:none" points="2160.28,1423.18 2160.28,1404.28 "/>
<path clip-path="url(#clip550)" d="M273.154 1454.1 Q269.543 1454.1 267.714 1457.66 Q265.908 1461.2 265.908 1468.33 Q265.908 1475.44 267.714 1479.01 Q269.543 1482.55 273.154 1482.55 Q276.788 1482.55 278.594 1479.01 Q280.422 1475.44 280.422 1468.33 Q280.422 1461.2 278.594 1457.66 Q276.788 1454.1 273.154 1454.1 M273.154 1450.39 Q278.964 1450.39 282.019 1455 Q285.098 1459.58 285.098 1468.33 Q285.098 1477.06 282.019 1481.67 Q278.964 1486.25 273.154 1486.25 Q267.344 1486.25 264.265 1481.67 Q261.209 1477.06 261.209 1468.33 Q261.209 1459.58 264.265 1455 Q267.344 1450.39 273.154 1450.39 Z" fill="#000000" fill-rule="nonzero" fill-opacity="1" /><path clip-path="url(#clip550)" d="M724.206 1481.64 L740.525 1481.64 L740.525 1485.58 L718.581 1485.58 L718.581 1481.64 Q721.243 1478.89 725.826 1474.26 Q730.433 1469.61 731.613 1468.27 Q733.859 1465.74 734.738 1464.01 Q735.641 1462.25 735.641 1460.56 Q735.641 1457.8 733.697 1456.07 Q731.775 1454.33 728.673 1454.33 Q726.474 1454.33 724.021 1455.09 Q721.59 1455.86 718.812 1457.41 L718.812 1452.69 Q721.637 1451.55 724.09 1450.97 Q726.544 1450.39 728.581 1450.39 Q733.951 1450.39 737.146 1453.08 Q740.34 1455.77 740.34 1460.26 Q740.34 1462.39 739.53 1464.31 Q738.743 1466.2 736.636 1468.8 Q736.058 1469.47 732.956 1472.69 Q729.854 1475.88 724.206 1481.64 Z" fill="#000000" fill-rule="nonzero" fill-opacity="1" /><path clip-path="url(#clip550)" d="M750.386 1451.02 L768.743 1451.02 L768.743 1454.96 L754.669 1454.96 L754.669 1463.43 Q755.687 1463.08 756.706 1462.92 Q757.724 1462.73 758.743 1462.73 Q764.53 1462.73 767.909 1465.9 Q771.289 1469.08 771.289 1474.49 Q771.289 1480.07 767.817 1483.17 Q764.345 1486.25 758.025 1486.25 Q755.849 1486.25 753.581 1485.88 Q751.335 1485.51 748.928 1484.77 L748.928 1480.07 Q751.011 1481.2 753.234 1481.76 Q755.456 1482.32 757.933 1482.32 Q761.937 1482.32 764.275 1480.21 Q766.613 1478.1 766.613 1474.49 Q766.613 1470.88 764.275 1468.77 Q761.937 1466.67 757.933 1466.67 Q756.058 1466.67 754.183 1467.08 Q752.331 1467.5 750.386 1468.38 L750.386 1451.02 Z" fill="#000000" fill-rule="nonzero" fill-opacity="1" /><path clip-path="url(#clip550)" d="M1191.42 1451.02 L1209.77 1451.02 L1209.77 1454.96 L1195.7 1454.96 L1195.7 1463.43 Q1196.72 1463.08 1197.73 1462.92 Q1198.75 1462.73 1199.77 1462.73 Q1205.56 1462.73 1208.94 1465.9 Q1212.32 1469.08 1212.32 1474.49 Q1212.32 1480.07 1208.85 1483.17 Q1205.37 1486.25 1199.05 1486.25 Q1196.88 1486.25 1194.61 1485.88 Q1192.36 1485.51 1189.96 1484.77 L1189.96 1480.07 Q1192.04 1481.2 1194.26 1481.76 Q1196.48 1482.32 1198.96 1482.32 Q1202.97 1482.32 1205.3 1480.21 Q1207.64 1478.1 1207.64 1474.49 Q1207.64 1470.88 1205.3 1468.77 Q1202.97 1466.67 1198.96 1466.67 Q1197.09 1466.67 1195.21 1467.08 Q1193.36 1467.5 1191.42 1468.38 L1191.42 1451.02 Z" fill="#000000" fill-rule="nonzero" fill-opacity="1" /><path clip-path="url(#clip550)" d="M1231.53 1454.1 Q1227.92 1454.1 1226.09 1457.66 Q1224.29 1461.2 1224.29 1468.33 Q1224.29 1475.44 1226.09 1479.01 Q1227.92 1482.55 1231.53 1482.55 Q1235.17 1482.55 1236.97 1479.01 Q1238.8 1475.44 1238.8 1468.33 Q1238.8 1461.2 1236.97 1457.66 Q1235.17 1454.1 1231.53 1454.1 M1231.53 1450.39 Q1237.34 1450.39 1240.4 1455 Q1243.48 1459.58 1243.48 1468.33 Q1243.48 1477.06 1240.4 1481.67 Q1237.34 1486.25 1231.53 1486.25 Q1225.72 1486.25 1222.64 1481.67 Q1219.59 1477.06 1219.59 1468.33 Q1219.59 1459.58 1222.64 1455 Q1225.72 1450.39 1231.53 1450.39 Z" fill="#000000" fill-rule="nonzero" fill-opacity="1" /><path clip-path="url(#clip550)" d="M1662.35 1451.02 L1684.57 1451.02 L1684.57 1453.01 L1672.03 1485.58 L1667.14 1485.58 L1678.95 1454.96 L1662.35 1454.96 L1662.35 1451.02 Z" fill="#000000" fill-rule="nonzero" fill-opacity="1" /><path clip-path="url(#clip550)" d="M1693.74 1451.02 L1712.1 1451.02 L1712.1 1454.96 L1698.02 1454.96 L1698.02 1463.43 Q1699.04 1463.08 1700.06 1462.92 Q1701.08 1462.73 1702.1 1462.73 Q1707.88 1462.73 1711.26 1465.9 Q1714.64 1469.08 1714.64 1474.49 Q1714.64 1480.07 1711.17 1483.17 Q1707.7 1486.25 1701.38 1486.25 Q1699.2 1486.25 1696.93 1485.88 Q1694.69 1485.51 1692.28 1484.77 L1692.28 1480.07 Q1694.37 1481.2 1696.59 1481.76 Q1698.81 1482.32 1701.29 1482.32 Q1705.29 1482.32 1707.63 1480.21 Q1709.97 1478.1 1709.97 1474.49 Q1709.97 1470.88 1707.63 1468.77 Q1705.29 1466.67 1701.29 1466.67 Q1699.41 1466.67 1697.54 1467.08 Q1695.68 1467.5 1693.74 1468.38 L1693.74 1451.02 Z" fill="#000000" fill-rule="nonzero" fill-opacity="1" /><path clip-path="url(#clip550)" d="M2119.89 1481.64 L2127.52 1481.64 L2127.52 1455.28 L2119.21 1456.95 L2119.21 1452.69 L2127.48 1451.02 L2132.15 1451.02 L2132.15 1481.64 L2139.79 1481.64 L2139.79 1485.58 L2119.89 1485.58 L2119.89 1481.64 Z" fill="#000000" fill-rule="nonzero" fill-opacity="1" /><path clip-path="url(#clip550)" d="M2159.24 1454.1 Q2155.63 1454.1 2153.8 1457.66 Q2151.99 1461.2 2151.99 1468.33 Q2151.99 1475.44 2153.8 1479.01 Q2155.63 1482.55 2159.24 1482.55 Q2162.87 1482.55 2164.68 1479.01 Q2166.51 1475.44 2166.51 1468.33 Q2166.51 1461.2 2164.68 1457.66 Q2162.87 1454.1 2159.24 1454.1 M2159.24 1450.39 Q2165.05 1450.39 2168.1 1455 Q2171.18 1459.58 2171.18 1468.33 Q2171.18 1477.06 2168.1 1481.67 Q2165.05 1486.25 2159.24 1486.25 Q2153.43 1486.25 2150.35 1481.67 Q2147.29 1477.06 2147.29 1468.33 Q2147.29 1459.58 2150.35 1455 Q2153.43 1450.39 2159.24 1450.39 Z" fill="#000000" fill-rule="nonzero" fill-opacity="1" /><path clip-path="url(#clip550)" d="M2189.4 1454.1 Q2185.79 1454.1 2183.96 1457.66 Q2182.15 1461.2 2182.15 1468.33 Q2182.15 1475.44 2183.96 1479.01 Q2185.79 1482.55 2189.4 1482.55 Q2193.03 1482.55 2194.84 1479.01 Q2196.67 1475.44 2196.67 1468.33 Q2196.67 1461.2 2194.84 1457.66 Q2193.03 1454.1 2189.4 1454.1 M2189.4 1450.39 Q2195.21 1450.39 2198.26 1455 Q2201.34 1459.58 2201.34 1468.33 Q2201.34 1477.06 2198.26 1481.67 Q2195.21 1486.25 2189.4 1486.25 Q2183.59 1486.25 2180.51 1481.67 Q2177.45 1477.06 2177.45 1468.33 Q2177.45 1459.58 2180.51 1455 Q2183.59 1450.39 2189.4 1450.39 Z" fill="#000000" fill-rule="nonzero" fill-opacity="1" /><path clip-path="url(#clip550)" d="M1207.94 1520.52 L1248.14 1520.52 L1248.14 1525.93 L1231.28 1525.93 L1231.28 1568.04 L1224.81 1568.04 L1224.81 1525.93 L1207.94 1525.93 L1207.94 1520.52 Z" fill="#000000" fill-rule="nonzero" fill-opacity="1" /><path clip-path="url(#clip550)" d="M1252.09 1532.4 L1257.95 1532.4 L1257.95 1568.04 L1252.09 1568.04 L1252.09 1532.4 M1252.09 1518.52 L1257.95 1518.52 L1257.95 1525.93 L1252.09 1525.93 L1252.09 1518.52 Z" fill="#000000" fill-rule="nonzero" fill-opacity="1" /><path clip-path="url(#clip550)" d="M1297.96 1539.24 Q1300.15 1535.29 1303.21 1533.41 Q1306.26 1531.54 1310.4 1531.54 Q1315.97 1531.54 1318.99 1535.45 Q1322.02 1539.33 1322.02 1546.53 L1322.02 1568.04 L1316.13 1568.04 L1316.13 1546.72 Q1316.13 1541.59 1314.32 1539.11 Q1312.5 1536.63 1308.78 1536.63 Q1304.23 1536.63 1301.58 1539.65 Q1298.94 1542.68 1298.94 1547.9 L1298.94 1568.04 L1293.05 1568.04 L1293.05 1546.72 Q1293.05 1541.56 1291.24 1539.11 Q1289.43 1536.63 1285.64 1536.63 Q1281.15 1536.63 1278.51 1539.68 Q1275.87 1542.71 1275.87 1547.9 L1275.87 1568.04 L1269.98 1568.04 L1269.98 1532.4 L1275.87 1532.4 L1275.87 1537.93 Q1277.87 1534.66 1280.67 1533.1 Q1283.47 1531.54 1287.33 1531.54 Q1291.21 1531.54 1293.91 1533.51 Q1296.65 1535.48 1297.96 1539.24 Z" fill="#000000" fill-rule="nonzero" fill-opacity="1" /><path clip-path="url(#clip550)" d="M1364.19 1548.76 L1364.19 1551.62 L1337.26 1551.62 Q1337.65 1557.67 1340.89 1560.85 Q1344.17 1564 1350 1564 Q1353.37 1564 1356.52 1563.17 Q1359.7 1562.35 1362.82 1560.69 L1362.82 1566.23 Q1359.67 1567.57 1356.36 1568.27 Q1353.05 1568.97 1349.65 1568.97 Q1341.12 1568.97 1336.12 1564 Q1331.15 1559.04 1331.15 1550.57 Q1331.15 1541.82 1335.86 1536.69 Q1340.61 1531.54 1348.63 1531.54 Q1355.82 1531.54 1359.99 1536.18 Q1364.19 1540.8 1364.19 1548.76 M1358.33 1547.04 Q1358.27 1542.23 1355.63 1539.37 Q1353.02 1536.5 1348.69 1536.5 Q1343.79 1536.5 1340.83 1539.27 Q1337.9 1542.04 1337.46 1547.07 L1358.33 1547.04 Z" fill="#000000" fill-rule="nonzero" fill-opacity="1" /><polyline clip-path="url(#clip550)" style="stroke:#000000; stroke-linecap:round; stroke-linejoin:round; stroke-width:4; stroke-opacity:1; fill:none" points="219.38,1423.18 219.38,123.472 "/>
<polyline clip-path="url(#clip550)" style="stroke:#000000; stroke-linecap:round; stroke-linejoin:round; stroke-width:4; stroke-opacity:1; fill:none" points="219.38,1386.4 238.278,1386.4 "/>
<polyline clip-path="url(#clip550)" style="stroke:#000000; stroke-linecap:round; stroke-linejoin:round; stroke-width:4; stroke-opacity:1; fill:none" points="219.38,1163.97 238.278,1163.97 "/>
<polyline clip-path="url(#clip550)" style="stroke:#000000; stroke-linecap:round; stroke-linejoin:round; stroke-width:4; stroke-opacity:1; fill:none" points="219.38,941.547 238.278,941.547 "/>
<polyline clip-path="url(#clip550)" style="stroke:#000000; stroke-linecap:round; stroke-linejoin:round; stroke-width:4; stroke-opacity:1; fill:none" points="219.38,719.123 238.278,719.123 "/>
<polyline clip-path="url(#clip550)" style="stroke:#000000; stroke-linecap:round; stroke-linejoin:round; stroke-width:4; stroke-opacity:1; fill:none" points="219.38,496.699 238.278,496.699 "/>
<polyline clip-path="url(#clip550)" style="stroke:#000000; stroke-linecap:round; stroke-linejoin:round; stroke-width:4; stroke-opacity:1; fill:none" points="219.38,274.275 238.278,274.275 "/>
<path clip-path="url(#clip550)" d="M126.205 1372.19 Q122.593 1372.19 120.765 1375.76 Q118.959 1379.3 118.959 1386.43 Q118.959 1393.54 120.765 1397.1 Q122.593 1400.64 126.205 1400.64 Q129.839 1400.64 131.644 1397.1 Q133.473 1393.54 133.473 1386.43 Q133.473 1379.3 131.644 1375.76 Q129.839 1372.19 126.205 1372.19 M126.205 1368.49 Q132.015 1368.49 135.07 1373.1 Q138.149 1377.68 138.149 1386.43 Q138.149 1395.16 135.07 1399.76 Q132.015 1404.35 126.205 1404.35 Q120.394 1404.35 117.316 1399.76 Q114.26 1395.16 114.26 1386.43 Q114.26 1377.68 117.316 1373.1 Q120.394 1368.49 126.205 1368.49 Z" fill="#000000" fill-rule="nonzero" fill-opacity="1" /><path clip-path="url(#clip550)" d="M146.366 1397.8 L151.251 1397.8 L151.251 1403.68 L146.366 1403.68 L146.366 1397.8 Z" fill="#000000" fill-rule="nonzero" fill-opacity="1" /><path clip-path="url(#clip550)" d="M171.436 1372.19 Q167.825 1372.19 165.996 1375.76 Q164.19 1379.3 164.19 1386.43 Q164.19 1393.54 165.996 1397.1 Q167.825 1400.64 171.436 1400.64 Q175.07 1400.64 176.876 1397.1 Q178.704 1393.54 178.704 1386.43 Q178.704 1379.3 176.876 1375.76 Q175.07 1372.19 171.436 1372.19 M171.436 1368.49 Q177.246 1368.49 180.301 1373.1 Q183.38 1377.68 183.38 1386.43 Q183.38 1395.16 180.301 1399.76 Q177.246 1404.35 171.436 1404.35 Q165.626 1404.35 162.547 1399.76 Q159.491 1395.16 159.491 1386.43 Q159.491 1377.68 162.547 1373.1 Q165.626 1368.49 171.436 1368.49 Z" fill="#000000" fill-rule="nonzero" fill-opacity="1" /><path clip-path="url(#clip550)" d="M127.2 1149.77 Q123.589 1149.77 121.76 1153.33 Q119.955 1156.88 119.955 1164.01 Q119.955 1171.11 121.76 1174.68 Q123.589 1178.22 127.2 1178.22 Q130.834 1178.22 132.64 1174.68 Q134.468 1171.11 134.468 1164.01 Q134.468 1156.88 132.64 1153.33 Q130.834 1149.77 127.2 1149.77 M127.2 1146.07 Q133.01 1146.07 136.066 1150.67 Q139.144 1155.26 139.144 1164.01 Q139.144 1172.73 136.066 1177.34 Q133.01 1181.92 127.2 1181.92 Q121.39 1181.92 118.311 1177.34 Q115.256 1172.73 115.256 1164.01 Q115.256 1155.26 118.311 1150.67 Q121.39 1146.07 127.2 1146.07 Z" fill="#000000" fill-rule="nonzero" fill-opacity="1" /><path clip-path="url(#clip550)" d="M147.362 1175.37 L152.246 1175.37 L152.246 1181.25 L147.362 1181.25 L147.362 1175.37 Z" fill="#000000" fill-rule="nonzero" fill-opacity="1" /><path clip-path="url(#clip550)" d="M162.477 1146.69 L180.834 1146.69 L180.834 1150.63 L166.76 1150.63 L166.76 1159.1 Q167.778 1158.75 168.797 1158.59 Q169.815 1158.4 170.834 1158.4 Q176.621 1158.4 180.001 1161.58 Q183.38 1164.75 183.38 1170.16 Q183.38 1175.74 179.908 1178.84 Q176.436 1181.92 170.116 1181.92 Q167.94 1181.92 165.672 1181.55 Q163.427 1181.18 161.019 1180.44 L161.019 1175.74 Q163.102 1176.88 165.325 1177.43 Q167.547 1177.99 170.024 1177.99 Q174.028 1177.99 176.366 1175.88 Q178.704 1173.77 178.704 1170.16 Q178.704 1166.55 176.366 1164.45 Q174.028 1162.34 170.024 1162.34 Q168.149 1162.34 166.274 1162.76 Q164.422 1163.17 162.477 1164.05 L162.477 1146.69 Z" fill="#000000" fill-rule="nonzero" fill-opacity="1" /><path clip-path="url(#clip550)" d="M117.015 954.892 L124.654 954.892 L124.654 928.526 L116.343 930.193 L116.343 925.934 L124.607 924.267 L129.283 924.267 L129.283 954.892 L136.922 954.892 L136.922 958.827 L117.015 958.827 L117.015 954.892 Z" fill="#000000" fill-rule="nonzero" fill-opacity="1" /><path clip-path="url(#clip550)" d="M146.366 952.948 L151.251 952.948 L151.251 958.827 L146.366 958.827 L146.366 952.948 Z" fill="#000000" fill-rule="nonzero" fill-opacity="1" /><path clip-path="url(#clip550)" d="M171.436 927.346 Q167.825 927.346 165.996 930.911 Q164.19 934.452 164.19 941.582 Q164.19 948.688 165.996 952.253 Q167.825 955.795 171.436 955.795 Q175.07 955.795 176.876 952.253 Q178.704 948.688 178.704 941.582 Q178.704 934.452 176.876 930.911 Q175.07 927.346 171.436 927.346 M171.436 923.642 Q177.246 923.642 180.301 928.249 Q183.38 932.832 183.38 941.582 Q183.38 950.309 180.301 954.915 Q177.246 959.499 171.436 959.499 Q165.626 959.499 162.547 954.915 Q159.491 950.309 159.491 941.582 Q159.491 932.832 162.547 928.249 Q165.626 923.642 171.436 923.642 Z" fill="#000000" fill-rule="nonzero" fill-opacity="1" /><path clip-path="url(#clip550)" d="M118.01 732.468 L125.649 732.468 L125.649 706.102 L117.339 707.769 L117.339 703.51 L125.603 701.843 L130.279 701.843 L130.279 732.468 L137.917 732.468 L137.917 736.403 L118.01 736.403 L118.01 732.468 Z" fill="#000000" fill-rule="nonzero" fill-opacity="1" /><path clip-path="url(#clip550)" d="M147.362 730.523 L152.246 730.523 L152.246 736.403 L147.362 736.403 L147.362 730.523 Z" fill="#000000" fill-rule="nonzero" fill-opacity="1" /><path clip-path="url(#clip550)" d="M162.477 701.843 L180.834 701.843 L180.834 705.778 L166.76 705.778 L166.76 714.25 Q167.778 713.903 168.797 713.741 Q169.815 713.556 170.834 713.556 Q176.621 713.556 180.001 716.727 Q183.38 719.899 183.38 725.315 Q183.38 730.894 179.908 733.996 Q176.436 737.074 170.116 737.074 Q167.94 737.074 165.672 736.704 Q163.427 736.334 161.019 735.593 L161.019 730.894 Q163.102 732.028 165.325 732.584 Q167.547 733.139 170.024 733.139 Q174.028 733.139 176.366 731.033 Q178.704 728.926 178.704 725.315 Q178.704 721.704 176.366 719.598 Q174.028 717.491 170.024 717.491 Q168.149 717.491 166.274 717.908 Q164.422 718.324 162.477 719.204 L162.477 701.843 Z" fill="#000000" fill-rule="nonzero" fill-opacity="1" /><path clip-path="url(#clip550)" d="M120.232 510.044 L136.552 510.044 L136.552 513.979 L114.607 513.979 L114.607 510.044 Q117.269 507.289 121.853 502.659 Q126.459 498.007 127.64 496.664 Q129.885 494.141 130.765 492.405 Q131.667 490.646 131.667 488.956 Q131.667 486.201 129.723 484.465 Q127.802 482.729 124.7 482.729 Q122.501 482.729 120.047 483.493 Q117.617 484.257 114.839 485.808 L114.839 481.086 Q117.663 479.951 120.117 479.373 Q122.57 478.794 124.607 478.794 Q129.978 478.794 133.172 481.479 Q136.367 484.164 136.367 488.655 Q136.367 490.785 135.556 492.706 Q134.769 494.604 132.663 497.197 Q132.084 497.868 128.982 501.085 Q125.88 504.28 120.232 510.044 Z" fill="#000000" fill-rule="nonzero" fill-opacity="1" /><path clip-path="url(#clip550)" d="M146.366 508.099 L151.251 508.099 L151.251 513.979 L146.366 513.979 L146.366 508.099 Z" fill="#000000" fill-rule="nonzero" fill-opacity="1" /><path clip-path="url(#clip550)" d="M171.436 482.498 Q167.825 482.498 165.996 486.062 Q164.19 489.604 164.19 496.734 Q164.19 503.84 165.996 507.405 Q167.825 510.946 171.436 510.946 Q175.07 510.946 176.876 507.405 Q178.704 503.84 178.704 496.734 Q178.704 489.604 176.876 486.062 Q175.07 482.498 171.436 482.498 M171.436 478.794 Q177.246 478.794 180.301 483.4 Q183.38 487.984 183.38 496.734 Q183.38 505.46 180.301 510.067 Q177.246 514.65 171.436 514.65 Q165.626 514.65 162.547 510.067 Q159.491 505.46 159.491 496.734 Q159.491 487.984 162.547 483.4 Q165.626 478.794 171.436 478.794 Z" fill="#000000" fill-rule="nonzero" fill-opacity="1" /><path clip-path="url(#clip550)" d="M121.228 287.619 L137.547 287.619 L137.547 291.555 L115.603 291.555 L115.603 287.619 Q118.265 284.865 122.848 280.235 Q127.455 275.583 128.635 274.24 Q130.88 271.717 131.76 269.981 Q132.663 268.221 132.663 266.532 Q132.663 263.777 130.718 262.041 Q128.797 260.305 125.695 260.305 Q123.496 260.305 121.043 261.069 Q118.612 261.833 115.834 263.384 L115.834 258.661 Q118.658 257.527 121.112 256.948 Q123.566 256.37 125.603 256.37 Q130.973 256.37 134.167 259.055 Q137.362 261.74 137.362 266.231 Q137.362 268.36 136.552 270.282 Q135.765 272.18 133.658 274.772 Q133.08 275.444 129.978 278.661 Q126.876 281.856 121.228 287.619 Z" fill="#000000" fill-rule="nonzero" fill-opacity="1" /><path clip-path="url(#clip550)" d="M147.362 285.675 L152.246 285.675 L152.246 291.555 L147.362 291.555 L147.362 285.675 Z" fill="#000000" fill-rule="nonzero" fill-opacity="1" /><path clip-path="url(#clip550)" d="M162.477 256.995 L180.834 256.995 L180.834 260.93 L166.76 260.93 L166.76 269.402 Q167.778 269.055 168.797 268.893 Q169.815 268.708 170.834 268.708 Q176.621 268.708 180.001 271.879 Q183.38 275.05 183.38 280.467 Q183.38 286.045 179.908 289.147 Q176.436 292.226 170.116 292.226 Q167.94 292.226 165.672 291.856 Q163.427 291.485 161.019 290.744 L161.019 286.045 Q163.102 287.18 165.325 287.735 Q167.547 288.291 170.024 288.291 Q174.028 288.291 176.366 286.184 Q178.704 284.078 178.704 280.467 Q178.704 276.856 176.366 274.749 Q174.028 272.643 170.024 272.643 Q168.149 272.643 166.274 273.059 Q164.422 273.476 162.477 274.356 L162.477 256.995 Z" fill="#000000" fill-rule="nonzero" fill-opacity="1" /><path clip-path="url(#clip550)" d="M20.1444 820.225 L26.9239 820.225 Q23.9002 823.472 22.4043 827.164 Q20.9083 830.824 20.9083 834.962 Q20.9083 843.11 25.9054 847.439 Q30.8707 851.767 40.2919 851.767 Q49.6813 851.767 54.6784 847.439 Q59.6436 843.11 59.6436 834.962 Q59.6436 830.824 58.1477 827.164 Q56.6518 823.472 53.6281 820.225 L60.3439 820.225 Q62.6355 823.599 63.7814 827.387 Q64.9272 831.143 64.9272 835.344 Q64.9272 846.134 58.3387 852.34 Q51.7183 858.547 40.2919 858.547 Q28.8336 858.547 22.2451 852.34 Q15.6248 846.134 15.6248 835.344 Q15.6248 831.079 16.7706 827.323 Q17.8846 823.535 20.1444 820.225 Z" fill="#000000" fill-rule="nonzero" fill-opacity="1" /><path clip-path="url(#clip550)" d="M16.4842 816.883 L16.4842 776.684 L21.895 776.684 L21.895 793.553 L64.0042 793.553 L64.0042 800.014 L21.895 800.014 L21.895 816.883 L16.4842 816.883 Z" fill="#000000" fill-rule="nonzero" fill-opacity="1" /><path clip-path="url(#clip550)" d="M16.4842 770.477 L16.4842 761.82 L56.238 740.749 L16.4842 740.749 L16.4842 734.511 L64.0042 734.511 L64.0042 743.168 L24.2503 764.239 L64.0042 764.239 L64.0042 770.477 L16.4842 770.477 Z" fill="#000000" fill-rule="nonzero" fill-opacity="1" /><path clip-path="url(#clip550)" d="M16.4842 728.305 L16.4842 688.105 L21.895 688.105 L21.895 704.974 L64.0042 704.974 L64.0042 711.435 L21.895 711.435 L21.895 728.305 L16.4842 728.305 Z" fill="#000000" fill-rule="nonzero" fill-opacity="1" /><path clip-path="url(#clip550)" d="M1012.67 18.8205 L1012.67 41.5461 L1022.96 41.5461 Q1028.67 41.5461 1031.79 38.5889 Q1034.91 35.6318 1034.91 30.163 Q1034.91 24.7348 1031.79 21.7777 Q1028.67 18.8205 1022.96 18.8205 L1012.67 18.8205 M1004.49 12.096 L1022.96 12.096 Q1033.13 12.096 1038.31 16.714 Q1043.54 21.2916 1043.54 30.163 Q1043.54 39.1155 1038.31 43.6931 Q1033.13 48.2706 1022.96 48.2706 L1012.67 48.2706 L1012.67 72.576 L1004.49 72.576 L1004.49 12.096 Z" fill="#000000" fill-rule="nonzero" fill-opacity="1" /><path clip-path="url(#clip550)" d="M1071.09 49.7694 Q1062.05 49.7694 1058.57 51.8354 Q1055.09 53.9013 1055.09 58.8839 Q1055.09 62.8538 1057.68 65.2034 Q1060.31 67.5124 1064.81 67.5124 Q1071.01 67.5124 1074.73 63.1374 Q1078.5 58.7219 1078.5 51.4303 L1078.5 49.7694 L1071.09 49.7694 M1085.95 46.6907 L1085.95 72.576 L1078.5 72.576 L1078.5 65.6895 Q1075.95 69.8214 1072.14 71.8063 Q1068.33 73.7508 1062.82 73.7508 Q1055.86 73.7508 1051.72 69.8619 Q1047.63 65.9325 1047.63 59.3701 Q1047.63 51.7138 1052.74 47.825 Q1057.88 43.9361 1068.05 43.9361 L1078.5 43.9361 L1078.5 43.2069 Q1078.5 38.0623 1075.1 35.2672 Q1071.73 32.4315 1065.62 32.4315 Q1061.73 32.4315 1058.04 33.3632 Q1054.36 34.295 1050.95 36.1584 L1050.95 29.2718 Q1055.04 27.692 1058.89 26.9223 Q1062.74 26.1121 1066.39 26.1121 Q1076.23 26.1121 1081.09 31.2163 Q1085.95 36.3204 1085.95 46.6907 Z" fill="#000000" fill-rule="nonzero" fill-opacity="1" /><path clip-path="url(#clip550)" d="M1108.68 14.324 L1108.68 27.2059 L1124.03 27.2059 L1124.03 32.9987 L1108.68 32.9987 L1108.68 57.6282 Q1108.68 63.1779 1110.18 64.7578 Q1111.72 66.3376 1116.38 66.3376 L1124.03 66.3376 L1124.03 72.576 L1116.38 72.576 Q1107.75 72.576 1104.47 69.3758 Q1101.18 66.1351 1101.18 57.6282 L1101.18 32.9987 L1095.72 32.9987 L1095.72 27.2059 L1101.18 27.2059 L1101.18 14.324 L1108.68 14.324 Z" fill="#000000" fill-rule="nonzero" fill-opacity="1" /><path clip-path="url(#clip550)" d="M1133.84 27.2059 L1141.29 27.2059 L1141.29 72.576 L1133.84 72.576 L1133.84 27.2059 M1133.84 9.54393 L1141.29 9.54393 L1141.29 18.9825 L1133.84 18.9825 L1133.84 9.54393 Z" fill="#000000" fill-rule="nonzero" fill-opacity="1" /><path clip-path="url(#clip550)" d="M1195.69 48.0275 L1195.69 51.6733 L1161.42 51.6733 Q1161.91 59.3701 1166.04 63.421 Q1170.21 67.4314 1177.63 67.4314 Q1181.92 67.4314 1185.93 66.3781 Q1189.98 65.3249 1193.95 63.2184 L1193.95 70.267 Q1189.94 71.9684 1185.73 72.8596 Q1181.51 73.7508 1177.18 73.7508 Q1166.32 73.7508 1159.96 67.4314 Q1153.64 61.1119 1153.64 50.3365 Q1153.64 39.1965 1159.64 32.6746 Q1165.68 26.1121 1175.88 26.1121 Q1185.04 26.1121 1190.35 32.0264 Q1195.69 37.9003 1195.69 48.0275 M1188.24 45.84 Q1188.16 39.7232 1184.8 36.0774 Q1181.47 32.4315 1175.96 32.4315 Q1169.73 32.4315 1165.96 35.9558 Q1162.23 39.4801 1161.66 45.8805 L1188.24 45.84 Z" fill="#000000" fill-rule="nonzero" fill-opacity="1" /><path clip-path="url(#clip550)" d="M1245.64 45.1919 L1245.64 72.576 L1238.19 72.576 L1238.19 45.4349 Q1238.19 38.994 1235.67 35.7938 Q1233.16 32.5936 1228.14 32.5936 Q1222.1 32.5936 1218.62 36.4419 Q1215.14 40.2903 1215.14 46.9338 L1215.14 72.576 L1207.64 72.576 L1207.64 27.2059 L1215.14 27.2059 L1215.14 34.2544 Q1217.81 30.163 1221.42 28.1376 Q1225.06 26.1121 1229.8 26.1121 Q1237.62 26.1121 1241.63 30.9732 Q1245.64 35.7938 1245.64 45.1919 Z" fill="#000000" fill-rule="nonzero" fill-opacity="1" /><path clip-path="url(#clip550)" d="M1267.88 14.324 L1267.88 27.2059 L1283.23 27.2059 L1283.23 32.9987 L1267.88 32.9987 L1267.88 57.6282 Q1267.88 63.1779 1269.38 64.7578 Q1270.92 66.3376 1275.58 66.3376 L1283.23 66.3376 L1283.23 72.576 L1275.58 72.576 Q1266.95 72.576 1263.67 69.3758 Q1260.39 66.1351 1260.39 57.6282 L1260.39 32.9987 L1254.92 32.9987 L1254.92 27.2059 L1260.39 27.2059 L1260.39 14.324 L1267.88 14.324 Z" fill="#000000" fill-rule="nonzero" fill-opacity="1" /><path clip-path="url(#clip550)" d="M1357.12 45.1919 L1357.12 72.576 L1349.67 72.576 L1349.67 45.4349 Q1349.67 38.994 1347.16 35.7938 Q1344.64 32.5936 1339.62 32.5936 Q1333.59 32.5936 1330.1 36.4419 Q1326.62 40.2903 1326.62 46.9338 L1326.62 72.576 L1319.12 72.576 L1319.12 27.2059 L1326.62 27.2059 L1326.62 34.2544 Q1329.29 30.163 1332.9 28.1376 Q1336.54 26.1121 1341.28 26.1121 Q1349.1 26.1121 1353.11 30.9732 Q1357.12 35.7938 1357.12 45.1919 Z" fill="#000000" fill-rule="nonzero" fill-opacity="1" /><path clip-path="url(#clip550)" d="M1374.46 65.6895 L1387.83 65.6895 L1387.83 19.5497 L1373.28 22.4663 L1373.28 15.0127 L1387.75 12.096 L1395.93 12.096 L1395.93 65.6895 L1409.3 65.6895 L1409.3 72.576 L1374.46 72.576 L1374.46 65.6895 Z" fill="#000000" fill-rule="nonzero" fill-opacity="1" /><path clip-path="url(#clip550)" d="M1450.62 39.9662 Q1456.49 41.222 1459.77 45.1919 Q1463.09 49.1618 1463.09 54.9951 Q1463.09 63.9476 1456.94 68.8492 Q1450.78 73.7508 1439.44 73.7508 Q1435.63 73.7508 1431.58 72.9811 Q1427.57 72.2519 1423.27 70.7531 L1423.27 62.8538 Q1426.67 64.8388 1430.73 65.8515 Q1434.78 66.8642 1439.19 66.8642 Q1446.89 66.8642 1450.9 63.826 Q1454.95 60.7879 1454.95 54.9951 Q1454.95 49.6479 1451.18 46.6502 Q1447.46 43.612 1440.77 43.612 L1433.72 43.612 L1433.72 36.8875 L1441.1 36.8875 Q1447.13 36.8875 1450.33 34.4975 Q1453.53 32.067 1453.53 27.5299 Q1453.53 22.8714 1450.21 20.4004 Q1446.93 17.8888 1440.77 17.8888 Q1437.41 17.8888 1433.56 18.618 Q1429.71 19.3471 1425.1 20.8865 L1425.1 13.5948 Q1429.75 12.2985 1433.8 11.6504 Q1437.9 11.0023 1441.5 11.0023 Q1450.82 11.0023 1456.25 15.2557 Q1461.67 19.4686 1461.67 26.6793 Q1461.67 31.7024 1458.8 35.1862 Q1455.92 38.6294 1450.62 39.9662 Z" fill="#000000" fill-rule="nonzero" fill-opacity="1" /><path clip-path="url(#clip550)" d="M1501.09 19.2256 L1480.43 51.5113 L1501.09 51.5113 L1501.09 19.2256 M1498.94 12.096 L1509.23 12.096 L1509.23 51.5113 L1517.86 51.5113 L1517.86 58.3168 L1509.23 58.3168 L1509.23 72.576 L1501.09 72.576 L1501.09 58.3168 L1473.79 58.3168 L1473.79 50.4176 L1498.94 12.096 Z" fill="#000000" fill-rule="nonzero" fill-opacity="1" /><path clip-path="url(#clip550)" d="M1532.81 65.6895 L1546.18 65.6895 L1546.18 19.5497 L1531.63 22.4663 L1531.63 15.0127 L1546.1 12.096 L1554.28 12.096 L1554.28 65.6895 L1567.65 65.6895 L1567.65 72.576 L1532.81 72.576 L1532.81 65.6895 Z" fill="#000000" fill-rule="nonzero" fill-opacity="1" /><polyline clip-path="url(#clip552)" style="stroke:#009af9; stroke-linecap:round; stroke-linejoin:round; stroke-width:8; stroke-opacity:1; fill:none" points="292.025,1386.4 310.896,1326.58 329.768,1311.83 348.639,1297.11 367.51,1282.63 386.381,1268.12 405.253,1253.68 424.124,1239.34 442.995,1225.08 461.866,1210.9 480.738,1196.8 499.609,1182.78 518.48,1168.83 537.351,1154.97 556.223,1141.18 575.094,1127.48 593.965,1113.85 612.836,1100.29 631.707,1086.81 650.579,1073.4 669.45,1060.06 688.321,1046.8 707.192,1033.61 726.064,1020.5 744.935,1007.46 763.806,994.491 782.677,981.599 801.549,968.78 820.42,956.035 839.291,943.364 858.162,930.767 877.034,918.243 895.905,905.793 914.776,893.413 933.647,881.103 952.519,868.861 971.39,856.688 990.261,844.584 1009.13,832.55 1028,820.584 1046.87,808.692 1065.75,796.876 1084.62,785.123 1103.49,773.433 1122.36,761.806 1141.23,750.242 1160.1,738.742 1178.97,727.304 1197.84,715.93 1216.72,704.618 1235.59,693.37 1254.46,682.184 1273.33,671.062 1292.2,660.003 1311.07,649.007 1329.94,638.074 1348.81,627.204 1367.69,616.398 1386.56,605.654 1405.43,594.973 1424.3,584.356 1443.17,573.801 1462.04,563.31 1480.91,552.882 1499.78,542.52 1518.66,532.217 1537.53,521.971 1556.4,511.783 1575.27,501.651 1594.14,491.576 1613.01,481.557 1631.88,471.596 1650.75,461.691 1669.63,451.844 1688.5,442.053 1707.37,432.319 1726.24,422.642 1745.11,413.022 1763.98,403.458 1782.85,393.952 1801.72,384.507 1820.6,375.125 1839.47,365.793 1858.34,356.511 1877.21,347.281 1896.08,338.101 1914.95,328.972 1933.82,319.893 1952.69,310.865 1971.57,301.887 1990.44,292.96 2009.31,284.084 2028.18,275.259 2047.05,266.484 2065.92,257.759 2084.79,249.086 2103.66,240.462 2122.54,231.89 2141.41,223.368 2160.28,214.897 2179.15,206.476 2198.02,198.106 2216.89,189.787 2235.76,181.518 2254.63,173.3 2273.51,165.133 2292.38,160.256 "/>
<circle clip-path="url(#clip552)" cx="279.759" cy="1333.01" r="18" fill="#e26f46" fill-rule="evenodd" fill-opacity="1" stroke="#000000" stroke-opacity="1" stroke-width="3.2"/>
<circle clip-path="url(#clip552)" cx="415.317" cy="1266.29" r="18" fill="#e26f46" fill-rule="evenodd" fill-opacity="1" stroke="#000000" stroke-opacity="1" stroke-width="3.2"/>
<circle clip-path="url(#clip552)" cx="521.311" cy="1235.15" r="18" fill="#e26f46" fill-rule="evenodd" fill-opacity="1" stroke="#000000" stroke-opacity="1" stroke-width="3.2"/>
<circle clip-path="url(#clip552)" cx="677.313" cy="763.608" r="18" fill="#e26f46" fill-rule="evenodd" fill-opacity="1" stroke="#000000" stroke-opacity="1" stroke-width="3.2"/>
<circle clip-path="url(#clip552)" cx="1656.42" cy="474.456" r="18" fill="#e26f46" fill-rule="evenodd" fill-opacity="1" stroke="#000000" stroke-opacity="1" stroke-width="3.2"/>
<circle clip-path="url(#clip552)" cx="1779.39" cy="292.069" r="18" fill="#e26f46" fill-rule="evenodd" fill-opacity="1" stroke="#000000" stroke-opacity="1" stroke-width="3.2"/>
<circle clip-path="url(#clip552)" cx="2265.96" cy="225.341" r="18" fill="#e26f46" fill-rule="evenodd" fill-opacity="1" stroke="#000000" stroke-opacity="1" stroke-width="3.2"/>
<path clip-path="url(#clip550)" d="M290.493 322.316 L888.064 322.316 L888.064 166.796 L290.493 166.796  Z" fill="#ffffff" fill-rule="evenodd" fill-opacity="1"/>
<polyline clip-path="url(#clip550)" style="stroke:#000000; stroke-linecap:round; stroke-linejoin:round; stroke-width:4; stroke-opacity:1; fill:none" points="290.493,322.316 888.064,322.316 888.064,166.796 290.493,166.796 290.493,322.316 "/>
<polyline clip-path="url(#clip550)" style="stroke:#009af9; stroke-linecap:round; stroke-linejoin:round; stroke-width:8; stroke-opacity:1; fill:none" points="314.197,218.636 456.422,218.636 "/>
<path clip-path="url(#clip550)" d="M480.126 201.356 L487.094 201.356 L495.913 224.874 L504.779 201.356 L511.746 201.356 L511.746 235.916 L507.186 235.916 L507.186 205.569 L498.274 229.272 L493.575 229.272 L484.663 205.569 L484.663 235.916 L480.126 235.916 L480.126 201.356 Z" fill="#000000" fill-rule="nonzero" fill-opacity="1" /><path clip-path="url(#clip550)" d="M530.89 212.976 Q527.464 212.976 525.473 215.661 Q523.482 218.323 523.482 222.976 Q523.482 227.629 525.45 230.314 Q527.441 232.976 530.89 232.976 Q534.292 232.976 536.283 230.291 Q538.274 227.606 538.274 222.976 Q538.274 218.37 536.283 215.684 Q534.292 212.976 530.89 212.976 M530.89 209.365 Q536.445 209.365 539.617 212.976 Q542.788 216.587 542.788 222.976 Q542.788 229.342 539.617 232.976 Q536.445 236.587 530.89 236.587 Q525.311 236.587 522.14 232.976 Q518.992 229.342 518.992 222.976 Q518.992 216.587 522.14 212.976 Q525.311 209.365 530.89 209.365 Z" fill="#000000" fill-rule="nonzero" fill-opacity="1" /><path clip-path="url(#clip550)" d="M566.908 213.925 L566.908 199.897 L571.167 199.897 L571.167 235.916 L566.908 235.916 L566.908 232.027 Q565.565 234.342 563.505 235.476 Q561.468 236.587 558.598 236.587 Q553.899 236.587 550.936 232.837 Q547.996 229.087 547.996 222.976 Q547.996 216.865 550.936 213.115 Q553.899 209.365 558.598 209.365 Q561.468 209.365 563.505 210.499 Q565.565 211.61 566.908 213.925 M552.394 222.976 Q552.394 227.675 554.315 230.36 Q556.26 233.022 559.64 233.022 Q563.019 233.022 564.964 230.36 Q566.908 227.675 566.908 222.976 Q566.908 218.277 564.964 215.615 Q563.019 212.93 559.64 212.93 Q556.26 212.93 554.315 215.615 Q552.394 218.277 552.394 222.976 Z" fill="#000000" fill-rule="nonzero" fill-opacity="1" /><path clip-path="url(#clip550)" d="M602.116 221.888 L602.116 223.971 L582.533 223.971 Q582.811 228.369 585.172 230.684 Q587.556 232.976 591.792 232.976 Q594.246 232.976 596.537 232.374 Q598.852 231.772 601.121 230.569 L601.121 234.596 Q598.829 235.568 596.422 236.078 Q594.014 236.587 591.538 236.587 Q585.334 236.587 581.7 232.976 Q578.089 229.365 578.089 223.207 Q578.089 216.842 581.514 213.115 Q584.963 209.365 590.797 209.365 Q596.028 209.365 599.061 212.745 Q602.116 216.101 602.116 221.888 M597.857 220.638 Q597.811 217.143 595.889 215.059 Q593.991 212.976 590.843 212.976 Q587.278 212.976 585.126 214.99 Q582.996 217.004 582.672 220.661 L597.857 220.638 Z" fill="#000000" fill-rule="nonzero" fill-opacity="1" /><path clip-path="url(#clip550)" d="M609.107 199.897 L613.366 199.897 L613.366 235.916 L609.107 235.916 L609.107 199.897 Z" fill="#000000" fill-rule="nonzero" fill-opacity="1" /><path clip-path="url(#clip550)" d="M642.209 205.198 L642.209 218.184 L648.088 218.184 Q651.352 218.184 653.134 216.495 Q654.917 214.805 654.917 211.68 Q654.917 208.578 653.134 206.888 Q651.352 205.198 648.088 205.198 L642.209 205.198 M637.533 201.356 L648.088 201.356 Q653.898 201.356 656.861 203.995 Q659.847 206.61 659.847 211.68 Q659.847 216.795 656.861 219.411 Q653.898 222.027 648.088 222.027 L642.209 222.027 L642.209 235.916 L637.533 235.916 L637.533 201.356 Z" fill="#000000" fill-rule="nonzero" fill-opacity="1" /><path clip-path="url(#clip550)" d="M680.125 213.971 Q679.407 213.555 678.551 213.37 Q677.718 213.161 676.699 213.161 Q673.088 213.161 671.144 215.522 Q669.222 217.86 669.222 222.258 L669.222 235.916 L664.94 235.916 L664.94 209.99 L669.222 209.99 L669.222 214.018 Q670.565 211.657 672.718 210.522 Q674.87 209.365 677.949 209.365 Q678.389 209.365 678.921 209.434 Q679.454 209.481 680.102 209.596 L680.125 213.971 Z" fill="#000000" fill-rule="nonzero" fill-opacity="1" /><path clip-path="url(#clip550)" d="M705.727 221.888 L705.727 223.971 L686.143 223.971 Q686.421 228.369 688.782 230.684 Q691.167 232.976 695.403 232.976 Q697.856 232.976 700.148 232.374 Q702.463 231.772 704.731 230.569 L704.731 234.596 Q702.44 235.568 700.032 236.078 Q697.625 236.587 695.148 236.587 Q688.944 236.587 685.31 232.976 Q681.699 229.365 681.699 223.207 Q681.699 216.842 685.125 213.115 Q688.574 209.365 694.407 209.365 Q699.639 209.365 702.671 212.745 Q705.727 216.101 705.727 221.888 M701.467 220.638 Q701.421 217.143 699.5 215.059 Q697.602 212.976 694.454 212.976 Q690.889 212.976 688.736 214.99 Q686.606 217.004 686.282 220.661 L701.467 220.638 Z" fill="#000000" fill-rule="nonzero" fill-opacity="1" /><path clip-path="url(#clip550)" d="M729.778 213.925 L729.778 199.897 L734.037 199.897 L734.037 235.916 L729.778 235.916 L729.778 232.027 Q728.435 234.342 726.375 235.476 Q724.338 236.587 721.467 236.587 Q716.768 236.587 713.805 232.837 Q710.866 229.087 710.866 222.976 Q710.866 216.865 713.805 213.115 Q716.768 209.365 721.467 209.365 Q724.338 209.365 726.375 210.499 Q728.435 211.61 729.778 213.925 M715.264 222.976 Q715.264 227.675 717.185 230.36 Q719.129 233.022 722.509 233.022 Q725.889 233.022 727.833 230.36 Q729.778 227.675 729.778 222.976 Q729.778 218.277 727.833 215.615 Q725.889 212.93 722.509 212.93 Q719.129 212.93 717.185 215.615 Q715.264 218.277 715.264 222.976 Z" fill="#000000" fill-rule="nonzero" fill-opacity="1" /><path clip-path="url(#clip550)" d="M742.81 209.99 L747.069 209.99 L747.069 235.916 L742.81 235.916 L742.81 209.99 M742.81 199.897 L747.069 199.897 L747.069 205.291 L742.81 205.291 L742.81 199.897 Z" fill="#000000" fill-rule="nonzero" fill-opacity="1" /><path clip-path="url(#clip550)" d="M774.638 210.985 L774.638 214.967 Q772.833 213.971 771.004 213.485 Q769.199 212.976 767.347 212.976 Q763.203 212.976 760.912 215.615 Q758.62 218.231 758.62 222.976 Q758.62 227.721 760.912 230.36 Q763.203 232.976 767.347 232.976 Q769.199 232.976 771.004 232.49 Q772.833 231.981 774.638 230.985 L774.638 234.92 Q772.856 235.754 770.935 236.17 Q769.037 236.587 766.884 236.587 Q761.027 236.587 757.578 232.906 Q754.129 229.226 754.129 222.976 Q754.129 216.633 757.601 212.999 Q761.097 209.365 767.162 209.365 Q769.129 209.365 771.004 209.782 Q772.879 210.175 774.638 210.985 Z" fill="#000000" fill-rule="nonzero" fill-opacity="1" /><path clip-path="url(#clip550)" d="M786.259 202.629 L786.259 209.99 L795.032 209.99 L795.032 213.3 L786.259 213.3 L786.259 227.374 Q786.259 230.545 787.115 231.448 Q787.995 232.351 790.657 232.351 L795.032 232.351 L795.032 235.916 L790.657 235.916 Q785.726 235.916 783.851 234.087 Q781.976 232.235 781.976 227.374 L781.976 213.3 L778.851 213.3 L778.851 209.99 L781.976 209.99 L781.976 202.629 L786.259 202.629 Z" fill="#000000" fill-rule="nonzero" fill-opacity="1" /><path clip-path="url(#clip550)" d="M800.634 209.99 L804.893 209.99 L804.893 235.916 L800.634 235.916 L800.634 209.99 M800.634 199.897 L804.893 199.897 L804.893 205.291 L800.634 205.291 L800.634 199.897 Z" fill="#000000" fill-rule="nonzero" fill-opacity="1" /><path clip-path="url(#clip550)" d="M823.851 212.976 Q820.425 212.976 818.434 215.661 Q816.444 218.323 816.444 222.976 Q816.444 227.629 818.411 230.314 Q820.402 232.976 823.851 232.976 Q827.254 232.976 829.245 230.291 Q831.235 227.606 831.235 222.976 Q831.235 218.37 829.245 215.684 Q827.254 212.976 823.851 212.976 M823.851 209.365 Q829.407 209.365 832.578 212.976 Q835.749 216.587 835.749 222.976 Q835.749 229.342 832.578 232.976 Q829.407 236.587 823.851 236.587 Q818.272 236.587 815.101 232.976 Q811.953 229.342 811.953 222.976 Q811.953 216.587 815.101 212.976 Q818.272 209.365 823.851 209.365 Z" fill="#000000" fill-rule="nonzero" fill-opacity="1" /><path clip-path="url(#clip550)" d="M864.36 220.268 L864.36 235.916 L860.101 235.916 L860.101 220.407 Q860.101 216.726 858.666 214.897 Q857.231 213.069 854.36 213.069 Q850.911 213.069 848.92 215.268 Q846.93 217.467 846.93 221.263 L846.93 235.916 L842.647 235.916 L842.647 209.99 L846.93 209.99 L846.93 214.018 Q848.457 211.68 850.518 210.522 Q852.601 209.365 855.309 209.365 Q859.777 209.365 862.068 212.143 Q864.36 214.897 864.36 220.268 Z" fill="#000000" fill-rule="nonzero" fill-opacity="1" /><circle clip-path="url(#clip550)" cx="385.309" cy="270.476" r="20.9455" fill="#e26f46" fill-rule="evenodd" fill-opacity="1" stroke="#000000" stroke-opacity="1" stroke-width="3.72364"/>
<path clip-path="url(#clip550)" d="M496.145 256.367 Q491.052 256.367 488.043 260.163 Q485.057 263.96 485.057 270.51 Q485.057 277.038 488.043 280.834 Q491.052 284.631 496.145 284.631 Q501.237 284.631 504.2 280.834 Q507.186 277.038 507.186 270.51 Q507.186 263.96 504.2 260.163 Q501.237 256.367 496.145 256.367 M496.145 252.571 Q503.413 252.571 507.765 257.455 Q512.117 262.316 512.117 270.51 Q512.117 278.682 507.765 283.566 Q503.413 288.427 496.145 288.427 Q488.853 288.427 484.478 283.566 Q480.126 278.705 480.126 270.51 Q480.126 262.316 484.478 257.455 Q488.853 252.571 496.145 252.571 Z" fill="#000000" fill-rule="nonzero" fill-opacity="1" /><path clip-path="url(#clip550)" d="M537.857 274.816 Q537.857 270.117 535.913 267.455 Q533.992 264.77 530.612 264.77 Q527.232 264.77 525.288 267.455 Q523.367 270.117 523.367 274.816 Q523.367 279.515 525.288 282.2 Q527.232 284.862 530.612 284.862 Q533.992 284.862 535.913 282.2 Q537.857 279.515 537.857 274.816 M523.367 265.765 Q524.709 263.45 526.746 262.339 Q528.806 261.205 531.654 261.205 Q536.376 261.205 539.316 264.955 Q542.279 268.705 542.279 274.816 Q542.279 280.927 539.316 284.677 Q536.376 288.427 531.654 288.427 Q528.806 288.427 526.746 287.316 Q524.709 286.182 523.367 283.867 L523.367 287.756 L519.084 287.756 L519.084 251.737 L523.367 251.737 L523.367 265.765 Z" fill="#000000" fill-rule="nonzero" fill-opacity="1" /><path clip-path="url(#clip550)" d="M565.866 262.594 L565.866 266.622 Q564.061 265.696 562.116 265.233 Q560.172 264.77 558.089 264.77 Q554.917 264.77 553.32 265.742 Q551.746 266.714 551.746 268.659 Q551.746 270.14 552.88 270.997 Q554.015 271.83 557.44 272.594 L558.899 272.918 Q563.436 273.89 565.334 275.672 Q567.255 277.432 567.255 280.603 Q567.255 284.214 564.385 286.321 Q561.538 288.427 556.538 288.427 Q554.454 288.427 552.186 288.01 Q549.941 287.617 547.441 286.807 L547.441 282.409 Q549.802 283.635 552.093 284.26 Q554.385 284.862 556.63 284.862 Q559.64 284.862 561.26 283.844 Q562.88 282.802 562.88 280.927 Q562.88 279.191 561.7 278.265 Q560.542 277.339 556.584 276.483 L555.103 276.135 Q551.144 275.302 549.385 273.589 Q547.626 271.853 547.626 268.844 Q547.626 265.186 550.218 263.196 Q552.811 261.205 557.579 261.205 Q559.94 261.205 562.024 261.552 Q564.107 261.899 565.866 262.594 Z" fill="#000000" fill-rule="nonzero" fill-opacity="1" /><path clip-path="url(#clip550)" d="M596.213 273.728 L596.213 275.811 L576.63 275.811 Q576.908 280.209 579.269 282.524 Q581.653 284.816 585.889 284.816 Q588.343 284.816 590.635 284.214 Q592.95 283.612 595.218 282.409 L595.218 286.436 Q592.926 287.408 590.519 287.918 Q588.112 288.427 585.635 288.427 Q579.431 288.427 575.797 284.816 Q572.186 281.205 572.186 275.047 Q572.186 268.682 575.612 264.955 Q579.061 261.205 584.894 261.205 Q590.125 261.205 593.158 264.585 Q596.213 267.941 596.213 273.728 M591.954 272.478 Q591.908 268.983 589.987 266.899 Q588.088 264.816 584.94 264.816 Q581.376 264.816 579.223 266.83 Q577.093 268.844 576.769 272.501 L591.954 272.478 Z" fill="#000000" fill-rule="nonzero" fill-opacity="1" /><path clip-path="url(#clip550)" d="M618.227 265.811 Q617.51 265.395 616.653 265.21 Q615.82 265.001 614.801 265.001 Q611.19 265.001 609.246 267.362 Q607.324 269.7 607.324 274.098 L607.324 287.756 L603.042 287.756 L603.042 261.83 L607.324 261.83 L607.324 265.858 Q608.667 263.497 610.82 262.362 Q612.973 261.205 616.051 261.205 Q616.491 261.205 617.023 261.274 Q617.556 261.321 618.204 261.436 L618.227 265.811 Z" fill="#000000" fill-rule="nonzero" fill-opacity="1" /><path clip-path="url(#clip550)" d="M619.639 261.83 L624.153 261.83 L632.255 283.589 L640.357 261.83 L644.871 261.83 L635.148 287.756 L629.361 287.756 L619.639 261.83 Z" fill="#000000" fill-rule="nonzero" fill-opacity="1" /><path clip-path="url(#clip550)" d="M672.926 273.728 L672.926 275.811 L653.343 275.811 Q653.621 280.209 655.982 282.524 Q658.366 284.816 662.602 284.816 Q665.056 284.816 667.347 284.214 Q669.662 283.612 671.931 282.409 L671.931 286.436 Q669.639 287.408 667.232 287.918 Q664.824 288.427 662.347 288.427 Q656.144 288.427 652.509 284.816 Q648.898 281.205 648.898 275.047 Q648.898 268.682 652.324 264.955 Q655.773 261.205 661.607 261.205 Q666.838 261.205 669.87 264.585 Q672.926 267.941 672.926 273.728 M668.667 272.478 Q668.62 268.983 666.699 266.899 Q664.801 264.816 661.653 264.816 Q658.088 264.816 655.935 266.83 Q653.806 268.844 653.482 272.501 L668.667 272.478 Z" fill="#000000" fill-rule="nonzero" fill-opacity="1" /><path clip-path="url(#clip550)" d="M696.977 265.765 L696.977 251.737 L701.236 251.737 L701.236 287.756 L696.977 287.756 L696.977 283.867 Q695.634 286.182 693.574 287.316 Q691.537 288.427 688.667 288.427 Q683.968 288.427 681.005 284.677 Q678.065 280.927 678.065 274.816 Q678.065 268.705 681.005 264.955 Q683.968 261.205 688.667 261.205 Q691.537 261.205 693.574 262.339 Q695.634 263.45 696.977 265.765 M682.463 274.816 Q682.463 279.515 684.384 282.2 Q686.329 284.862 689.708 284.862 Q693.088 284.862 695.032 282.2 Q696.977 279.515 696.977 274.816 Q696.977 270.117 695.032 267.455 Q693.088 264.77 689.708 264.77 Q686.329 264.77 684.384 267.455 Q682.463 270.117 682.463 274.816 Z" fill="#000000" fill-rule="nonzero" fill-opacity="1" /><path clip-path="url(#clip550)" d="M729.94 257.038 L729.94 283.913 L735.588 283.913 Q742.74 283.913 746.051 280.672 Q749.384 277.432 749.384 270.441 Q749.384 263.497 746.051 260.279 Q742.74 257.038 735.588 257.038 L729.94 257.038 M725.264 253.196 L734.87 253.196 Q744.916 253.196 749.615 257.386 Q754.314 261.552 754.314 270.441 Q754.314 279.376 749.592 283.566 Q744.87 287.756 734.87 287.756 L725.264 287.756 L725.264 253.196 Z" fill="#000000" fill-rule="nonzero" fill-opacity="1" /><path clip-path="url(#clip550)" d="M773.365 274.723 Q768.203 274.723 766.213 275.904 Q764.222 277.084 764.222 279.932 Q764.222 282.2 765.703 283.543 Q767.208 284.862 769.777 284.862 Q773.319 284.862 775.449 282.362 Q777.601 279.839 777.601 275.672 L777.601 274.723 L773.365 274.723 M781.861 272.964 L781.861 287.756 L777.601 287.756 L777.601 283.821 Q776.143 286.182 773.967 287.316 Q771.791 288.427 768.643 288.427 Q764.662 288.427 762.3 286.205 Q759.963 283.959 759.963 280.209 Q759.963 275.834 762.879 273.612 Q765.819 271.39 771.629 271.39 L777.601 271.39 L777.601 270.973 Q777.601 268.034 775.657 266.436 Q773.736 264.816 770.24 264.816 Q768.018 264.816 765.912 265.348 Q763.805 265.881 761.861 266.946 L761.861 263.01 Q764.199 262.108 766.398 261.668 Q768.597 261.205 770.68 261.205 Q776.305 261.205 779.083 264.122 Q781.861 267.038 781.861 272.964 Z" fill="#000000" fill-rule="nonzero" fill-opacity="1" /><path clip-path="url(#clip550)" d="M794.847 254.469 L794.847 261.83 L803.62 261.83 L803.62 265.14 L794.847 265.14 L794.847 279.214 Q794.847 282.385 795.703 283.288 Q796.583 284.191 799.245 284.191 L803.62 284.191 L803.62 287.756 L799.245 287.756 Q794.314 287.756 792.439 285.927 Q790.564 284.075 790.564 279.214 L790.564 265.14 L787.439 265.14 L787.439 261.83 L790.564 261.83 L790.564 254.469 L794.847 254.469 Z" fill="#000000" fill-rule="nonzero" fill-opacity="1" /><path clip-path="url(#clip550)" d="M821.004 274.723 Q815.842 274.723 813.851 275.904 Q811.86 277.084 811.86 279.932 Q811.86 282.2 813.342 283.543 Q814.847 284.862 817.416 284.862 Q820.958 284.862 823.087 282.362 Q825.24 279.839 825.24 275.672 L825.24 274.723 L821.004 274.723 M829.499 272.964 L829.499 287.756 L825.24 287.756 L825.24 283.821 Q823.782 286.182 821.606 287.316 Q819.43 288.427 816.282 288.427 Q812.3 288.427 809.939 286.205 Q807.601 283.959 807.601 280.209 Q807.601 275.834 810.518 273.612 Q813.458 271.39 819.268 271.39 L825.24 271.39 L825.24 270.973 Q825.24 268.034 823.296 266.436 Q821.374 264.816 817.879 264.816 Q815.657 264.816 813.55 265.348 Q811.444 265.881 809.499 266.946 L809.499 263.01 Q811.837 262.108 814.036 261.668 Q816.235 261.205 818.319 261.205 Q823.944 261.205 826.721 264.122 Q829.499 267.038 829.499 272.964 Z" fill="#000000" fill-rule="nonzero" fill-opacity="1" /></svg>
