<?xml version="1.0" encoding="utf-8"?>
<svg xmlns="http://www.w3.org/2000/svg" xmlns:xlink="http://www.w3.org/1999/xlink" width="600" height="400" viewBox="0 0 2400 1600">
<defs>
  <clipPath id="clip480">
    <rect x="0" y="0" width="2400" height="1600"/>
  </clipPath>
</defs>
<path clip-path="url(#clip480)" d="M0 1600 L2400 1600 L2400 0 L0 0  Z" fill="#ffffff" fill-rule="evenodd" fill-opacity="1"/>
<defs>
  <clipPath id="clip481">
    <rect x="480" y="0" width="1681" height="1600"/>
  </clipPath>
</defs>
<path clip-path="url(#clip480)" d="M219.866 1423.18 L2352.76 1423.18 L2352.76 123.472 L219.866 123.472  Z" fill="#ffffff" fill-rule="evenodd" fill-opacity="1"/>
<defs>
  <clipPath id="clip482">
    <rect x="219" y="123" width="2134" height="1301"/>
  </clipPath>
</defs>
<polyline clip-path="url(#clip482)" style="stroke:#000000; stroke-linecap:round; stroke-linejoin:round; stroke-width:2; stroke-opacity:0.1; fill:none" points="263.033,1423.18 263.033,123.472 "/>
<polyline clip-path="url(#clip482)" style="stroke:#000000; stroke-linecap:round; stroke-linejoin:round; stroke-width:2; stroke-opacity:0.1; fill:none" points="692.982,1423.18 692.982,123.472 "/>
<polyline clip-path="url(#clip482)" style="stroke:#000000; stroke-linecap:round; stroke-linejoin:round; stroke-width:2; stroke-opacity:0.1; fill:none" points="1122.93,1423.18 1122.93,123.472 "/>
<polyline clip-path="url(#clip482)" style="stroke:#000000; stroke-linecap:round; stroke-linejoin:round; stroke-width:2; stroke-opacity:0.1; fill:none" points="1552.88,1423.18 1552.88,123.472 "/>
<polyline clip-path="url(#clip482)" style="stroke:#000000; stroke-linecap:round; stroke-linejoin:round; stroke-width:2; stroke-opacity:0.1; fill:none" points="1982.83,1423.18 1982.83,123.472 "/>
<polyline clip-path="url(#clip482)" style="stroke:#000000; stroke-linecap:round; stroke-linejoin:round; stroke-width:2; stroke-opacity:0.1; fill:none" points="219.866,1386.4 2352.76,1386.4 "/>
<polyline clip-path="url(#clip482)" style="stroke:#000000; stroke-linecap:round; stroke-linejoin:round; stroke-width:2; stroke-opacity:0.1; fill:none" points="219.866,1121.28 2352.76,1121.28 "/>
<polyline clip-path="url(#clip482)" style="stroke:#000000; stroke-linecap:round; stroke-linejoin:round; stroke-width:2; stroke-opacity:0.1; fill:none" points="219.866,856.172 2352.76,856.172 "/>
<polyline clip-path="url(#clip482)" style="stroke:#000000; stroke-linecap:round; stroke-linejoin:round; stroke-width:2; stroke-opacity:0.1; fill:none" points="219.866,591.06 2352.76,591.06 "/>
<polyline clip-path="url(#clip482)" style="stroke:#000000; stroke-linecap:round; stroke-linejoin:round; stroke-width:2; stroke-opacity:0.1; fill:none" points="219.866,325.948 2352.76,325.948 "/>
<polyline clip-path="url(#clip480)" style="stroke:#000000; stroke-linecap:round; stroke-linejoin:round; stroke-width:4; stroke-opacity:1; fill:none" points="219.866,1423.18 2352.76,1423.18 "/>
<polyline clip-path="url(#clip480)" style="stroke:#000000; stroke-linecap:round; stroke-linejoin:round; stroke-width:4; stroke-opacity:1; fill:none" points="263.033,1423.18 263.033,1404.28 "/>
<polyline clip-path="url(#clip480)" style="stroke:#000000; stroke-linecap:round; stroke-linejoin:round; stroke-width:4; stroke-opacity:1; fill:none" points="692.982,1423.18 692.982,1404.28 "/>
<polyline clip-path="url(#clip480)" style="stroke:#000000; stroke-linecap:round; stroke-linejoin:round; stroke-width:4; stroke-opacity:1; fill:none" points="1122.93,1423.18 1122.93,1404.28 "/>
<polyline clip-path="url(#clip480)" style="stroke:#000000; stroke-linecap:round; stroke-linejoin:round; stroke-width:4; stroke-opacity:1; fill:none" points="1552.88,1423.18 1552.88,1404.28 "/>
<polyline clip-path="url(#clip480)" style="stroke:#000000; stroke-linecap:round; stroke-linejoin:round; stroke-width:4; stroke-opacity:1; fill:none" points="1982.83,1423.18 1982.83,1404.28 "/>
<path clip-path="url(#clip480)" d="M263.033 1454.1 Q259.422 1454.1 257.593 1457.66 Q255.788 1461.2 255.788 1468.33 Q255.788 1475.44 257.593 1479.01 Q259.422 1482.55 263.033 1482.55 Q266.667 1482.55 268.473 1479.01 Q270.302 1475.44 270.302 1468.33 Q270.302 1461.2 268.473 1457.66 Q266.667 1454.1 263.033 1454.1 M263.033 1450.39 Q268.843 1450.39 271.899 1455 Q274.977 1459.58 274.977 1468.33 Q274.977 1477.06 271.899 1481.67 Q268.843 1486.25 263.033 1486.25 Q257.223 1486.25 254.144 1481.67 Q251.089 1477.06 251.089 1468.33 Q251.089 1459.58 254.144 1455 Q257.223 1450.39 263.033 1450.39 Z" fill="#000000" fill-rule="nonzero" fill-opacity="1" /><path clip-path="url(#clip480)" d="M672.253 1481.64 L688.572 1481.64 L688.572 1485.58 L666.628 1485.58 L666.628 1481.64 Q669.29 1478.89 673.873 1474.26 Q678.48 1469.61 679.66 1468.27 Q681.906 1465.74 682.785 1464.01 Q683.688 1462.25 683.688 1460.56 Q683.688 1457.8 681.743 1456.07 Q679.822 1454.33 676.72 1454.33 Q674.521 1454.33 672.068 1455.09 Q669.637 1455.86 666.859 1457.41 L666.859 1452.69 Q669.683 1451.55 672.137 1450.97 Q674.591 1450.39 676.628 1450.39 Q681.998 1450.39 685.193 1453.08 Q688.387 1455.77 688.387 1460.26 Q688.387 1462.39 687.577 1464.31 Q686.79 1466.2 684.683 1468.8 Q684.105 1469.47 681.003 1472.69 Q677.901 1475.88 672.253 1481.64 Z" fill="#000000" fill-rule="nonzero" fill-opacity="1" /><path clip-path="url(#clip480)" d="M698.433 1451.02 L716.79 1451.02 L716.79 1454.96 L702.716 1454.96 L702.716 1463.43 Q703.734 1463.08 704.753 1462.92 Q705.771 1462.73 706.79 1462.73 Q712.577 1462.73 715.956 1465.9 Q719.336 1469.08 719.336 1474.49 Q719.336 1480.07 715.864 1483.17 Q712.391 1486.25 706.072 1486.25 Q703.896 1486.25 701.628 1485.88 Q699.382 1485.51 696.975 1484.77 L696.975 1480.07 Q699.058 1481.2 701.28 1481.76 Q703.503 1482.32 705.979 1482.32 Q709.984 1482.32 712.322 1480.21 Q714.66 1478.1 714.66 1474.49 Q714.66 1470.88 712.322 1468.77 Q709.984 1466.67 705.979 1466.67 Q704.104 1466.67 702.229 1467.08 Q700.378 1467.5 698.433 1468.38 L698.433 1451.02 Z" fill="#000000" fill-rule="nonzero" fill-opacity="1" /><path clip-path="url(#clip480)" d="M1097.63 1451.02 L1115.99 1451.02 L1115.99 1454.96 L1101.91 1454.96 L1101.91 1463.43 Q1102.93 1463.08 1103.95 1462.92 Q1104.97 1462.73 1105.99 1462.73 Q1111.77 1462.73 1115.15 1465.9 Q1118.53 1469.08 1118.53 1474.49 Q1118.53 1480.07 1115.06 1483.17 Q1111.59 1486.25 1105.27 1486.25 Q1103.09 1486.25 1100.82 1485.88 Q1098.58 1485.51 1096.17 1484.77 L1096.17 1480.07 Q1098.25 1481.2 1100.48 1481.76 Q1102.7 1482.32 1105.18 1482.32 Q1109.18 1482.32 1111.52 1480.21 Q1113.86 1478.1 1113.86 1474.49 Q1113.86 1470.88 1111.52 1468.77 Q1109.18 1466.67 1105.18 1466.67 Q1103.3 1466.67 1101.43 1467.08 Q1099.57 1467.5 1097.63 1468.38 L1097.63 1451.02 Z" fill="#000000" fill-rule="nonzero" fill-opacity="1" /><path clip-path="url(#clip480)" d="M1137.75 1454.1 Q1134.13 1454.1 1132.31 1457.66 Q1130.5 1461.2 1130.5 1468.33 Q1130.5 1475.44 1132.31 1479.01 Q1134.13 1482.55 1137.75 1482.55 Q1141.38 1482.55 1143.19 1479.01 Q1145.01 1475.44 1145.01 1468.33 Q1145.01 1461.2 1143.19 1457.66 Q1141.38 1454.1 1137.75 1454.1 M1137.75 1450.39 Q1143.56 1450.39 1146.61 1455 Q1149.69 1459.58 1149.69 1468.33 Q1149.69 1477.06 1146.61 1481.67 Q1143.56 1486.25 1137.75 1486.25 Q1131.94 1486.25 1128.86 1481.67 Q1125.8 1477.06 1125.8 1468.33 Q1125.8 1459.58 1128.86 1455 Q1131.94 1450.39 1137.75 1450.39 Z" fill="#000000" fill-rule="nonzero" fill-opacity="1" /><path clip-path="url(#clip480)" d="M1526.73 1451.02 L1548.96 1451.02 L1548.96 1453.01 L1536.41 1485.58 L1531.53 1485.58 L1543.33 1454.96 L1526.73 1454.96 L1526.73 1451.02 Z" fill="#000000" fill-rule="nonzero" fill-opacity="1" /><path clip-path="url(#clip480)" d="M1558.12 1451.02 L1576.48 1451.02 L1576.48 1454.96 L1562.4 1454.96 L1562.4 1463.43 Q1563.42 1463.08 1564.44 1462.92 Q1565.46 1462.73 1566.48 1462.73 Q1572.27 1462.73 1575.65 1465.9 Q1579.02 1469.08 1579.02 1474.49 Q1579.02 1480.07 1575.55 1483.17 Q1572.08 1486.25 1565.76 1486.25 Q1563.59 1486.25 1561.32 1485.88 Q1559.07 1485.51 1556.66 1484.77 L1556.66 1480.07 Q1558.75 1481.2 1560.97 1481.76 Q1563.19 1482.32 1565.67 1482.32 Q1569.67 1482.32 1572.01 1480.21 Q1574.35 1478.1 1574.35 1474.49 Q1574.35 1470.88 1572.01 1468.77 Q1569.67 1466.67 1565.67 1466.67 Q1563.79 1466.67 1561.92 1467.08 Q1560.07 1467.5 1558.12 1468.38 L1558.12 1451.02 Z" fill="#000000" fill-rule="nonzero" fill-opacity="1" /><path clip-path="url(#clip480)" d="M1942.43 1481.64 L1950.07 1481.64 L1950.07 1455.28 L1941.76 1456.95 L1941.76 1452.69 L1950.03 1451.02 L1954.7 1451.02 L1954.7 1481.64 L1962.34 1481.64 L1962.34 1485.58 L1942.43 1485.58 L1942.43 1481.64 Z" fill="#000000" fill-rule="nonzero" fill-opacity="1" /><path clip-path="url(#clip480)" d="M1981.79 1454.1 Q1978.18 1454.1 1976.35 1457.66 Q1974.54 1461.2 1974.54 1468.33 Q1974.54 1475.44 1976.35 1479.01 Q1978.18 1482.55 1981.79 1482.55 Q1985.42 1482.55 1987.23 1479.01 Q1989.05 1475.44 1989.05 1468.33 Q1989.05 1461.2 1987.23 1457.66 Q1985.42 1454.1 1981.79 1454.1 M1981.79 1450.39 Q1987.6 1450.39 1990.65 1455 Q1993.73 1459.58 1993.73 1468.33 Q1993.73 1477.06 1990.65 1481.67 Q1987.6 1486.25 1981.79 1486.25 Q1975.98 1486.25 1972.9 1481.67 Q1969.84 1477.06 1969.84 1468.33 Q1969.84 1459.58 1972.9 1455 Q1975.98 1450.39 1981.79 1450.39 Z" fill="#000000" fill-rule="nonzero" fill-opacity="1" /><path clip-path="url(#clip480)" d="M2011.95 1454.1 Q2008.34 1454.1 2006.51 1457.66 Q2004.7 1461.2 2004.7 1468.33 Q2004.7 1475.44 2006.51 1479.01 Q2008.34 1482.55 2011.95 1482.55 Q2015.58 1482.55 2017.39 1479.01 Q2019.22 1475.44 2019.22 1468.33 Q2019.22 1461.2 2017.39 1457.66 Q2015.58 1454.1 2011.95 1454.1 M2011.95 1450.39 Q2017.76 1450.39 2020.81 1455 Q2023.89 1459.58 2023.89 1468.33 Q2023.89 1477.06 2020.81 1481.67 Q2017.76 1486.25 2011.95 1486.25 Q2006.14 1486.25 2003.06 1481.67 Q2000 1477.06 2000 1468.33 Q2000 1459.58 2003.06 1455 Q2006.14 1450.39 2011.95 1450.39 Z" fill="#000000" fill-rule="nonzero" fill-opacity="1" /><path clip-path="url(#clip480)" d="M1208.19 1520.52 L1248.39 1520.52 L1248.39 1525.93 L1231.52 1525.93 L1231.52 1568.04 L1225.06 1568.04 L1225.06 1525.93 L1208.19 1525.93 L1208.19 1520.52 Z" fill="#000000" fill-rule="nonzero" fill-opacity="1" /><path clip-path="url(#clip480)" d="M1252.33 1532.4 L1258.19 1532.4 L1258.19 1568.04 L1252.33 1568.04 L1252.33 1532.4 M1252.33 1518.52 L1258.19 1518.52 L1258.19 1525.93 L1252.33 1525.93 L1252.33 1518.52 Z" fill="#000000" fill-rule="nonzero" fill-opacity="1" /><path clip-path="url(#clip480)" d="M1298.2 1539.24 Q1300.4 1535.29 1303.45 1533.41 Q1306.51 1531.54 1310.64 1531.54 Q1316.21 1531.54 1319.24 1535.45 Q1322.26 1539.33 1322.26 1546.53 L1322.26 1568.04 L1316.37 1568.04 L1316.37 1546.72 Q1316.37 1541.59 1314.56 1539.11 Q1312.74 1536.63 1309.02 1536.63 Q1304.47 1536.63 1301.83 1539.65 Q1299.19 1542.68 1299.19 1547.9 L1299.19 1568.04 L1293.3 1568.04 L1293.3 1546.72 Q1293.3 1541.56 1291.48 1539.11 Q1289.67 1536.63 1285.88 1536.63 Q1281.39 1536.63 1278.75 1539.68 Q1276.11 1542.71 1276.11 1547.9 L1276.11 1568.04 L1270.22 1568.04 L1270.22 1532.4 L1276.11 1532.4 L1276.11 1537.93 Q1278.12 1534.66 1280.92 1533.1 Q1283.72 1531.54 1287.57 1531.54 Q1291.45 1531.54 1294.16 1533.51 Q1296.89 1535.48 1298.2 1539.24 Z" fill="#000000" fill-rule="nonzero" fill-opacity="1" /><path clip-path="url(#clip480)" d="M1364.43 1548.76 L1364.43 1551.62 L1337.51 1551.62 Q1337.89 1557.67 1341.14 1560.85 Q1344.41 1564 1350.24 1564 Q1353.61 1564 1356.76 1563.17 Q1359.95 1562.35 1363.07 1560.69 L1363.07 1566.23 Q1359.91 1567.57 1356.6 1568.27 Q1353.29 1568.97 1349.89 1568.97 Q1341.36 1568.97 1336.36 1564 Q1331.4 1559.04 1331.4 1550.57 Q1331.4 1541.82 1336.11 1536.69 Q1340.85 1531.54 1348.87 1531.54 Q1356.06 1531.54 1360.23 1536.18 Q1364.43 1540.8 1364.43 1548.76 M1358.58 1547.04 Q1358.51 1542.23 1355.87 1539.37 Q1353.26 1536.5 1348.93 1536.5 Q1344.03 1536.5 1341.07 1539.27 Q1338.14 1542.04 1337.7 1547.07 L1358.58 1547.04 Z" fill="#000000" fill-rule="nonzero" fill-opacity="1" /><polyline clip-path="url(#clip480)" style="stroke:#000000; stroke-linecap:round; stroke-linejoin:round; stroke-width:4; stroke-opacity:1; fill:none" points="219.866,1423.18 219.866,123.472 "/>
<polyline clip-path="url(#clip480)" style="stroke:#000000; stroke-linecap:round; stroke-linejoin:round; stroke-width:4; stroke-opacity:1; fill:none" points="219.866,1386.4 238.764,1386.4 "/>
<polyline clip-path="url(#clip480)" style="stroke:#000000; stroke-linecap:round; stroke-linejoin:round; stroke-width:4; stroke-opacity:1; fill:none" points="219.866,1121.28 238.764,1121.28 "/>
<polyline clip-path="url(#clip480)" style="stroke:#000000; stroke-linecap:round; stroke-linejoin:round; stroke-width:4; stroke-opacity:1; fill:none" points="219.866,856.172 238.764,856.172 "/>
<polyline clip-path="url(#clip480)" style="stroke:#000000; stroke-linecap:round; stroke-linejoin:round; stroke-width:4; stroke-opacity:1; fill:none" points="219.866,591.06 238.764,591.06 "/>
<polyline clip-path="url(#clip480)" style="stroke:#000000; stroke-linecap:round; stroke-linejoin:round; stroke-width:4; stroke-opacity:1; fill:none" points="219.866,325.948 238.764,325.948 "/>
<path clip-path="url(#clip480)" d="M126.691 1372.19 Q123.08 1372.19 121.251 1375.76 Q119.445 1379.3 119.445 1386.43 Q119.445 1393.54 121.251 1397.1 Q123.08 1400.64 126.691 1400.64 Q130.325 1400.64 132.13 1397.1 Q133.959 1393.54 133.959 1386.43 Q133.959 1379.3 132.13 1375.76 Q130.325 1372.19 126.691 1372.19 M126.691 1368.49 Q132.501 1368.49 135.556 1373.1 Q138.635 1377.68 138.635 1386.43 Q138.635 1395.16 135.556 1399.76 Q132.501 1404.35 126.691 1404.35 Q120.88 1404.35 117.802 1399.76 Q114.746 1395.16 114.746 1386.43 Q114.746 1377.68 117.802 1373.1 Q120.88 1368.49 126.691 1368.49 Z" fill="#000000" fill-rule="nonzero" fill-opacity="1" /><path clip-path="url(#clip480)" d="M146.853 1397.8 L151.737 1397.8 L151.737 1403.68 L146.853 1403.68 L146.853 1397.8 Z" fill="#000000" fill-rule="nonzero" fill-opacity="1" /><path clip-path="url(#clip480)" d="M171.922 1372.19 Q168.311 1372.19 166.482 1375.76 Q164.677 1379.3 164.677 1386.43 Q164.677 1393.54 166.482 1397.1 Q168.311 1400.64 171.922 1400.64 Q175.556 1400.64 177.362 1397.1 Q179.19 1393.54 179.19 1386.43 Q179.19 1379.3 177.362 1375.76 Q175.556 1372.19 171.922 1372.19 M171.922 1368.49 Q177.732 1368.49 180.788 1373.1 Q183.866 1377.68 183.866 1386.43 Q183.866 1395.16 180.788 1399.76 Q177.732 1404.35 171.922 1404.35 Q166.112 1404.35 163.033 1399.76 Q159.978 1395.16 159.978 1386.43 Q159.978 1377.68 163.033 1373.1 Q166.112 1368.49 171.922 1368.49 Z" fill="#000000" fill-rule="nonzero" fill-opacity="1" /><path clip-path="url(#clip480)" d="M127.917 1107.08 Q124.306 1107.08 122.478 1110.65 Q120.672 1114.19 120.672 1121.32 Q120.672 1128.42 122.478 1131.99 Q124.306 1135.53 127.917 1135.53 Q131.552 1135.53 133.357 1131.99 Q135.186 1128.42 135.186 1121.32 Q135.186 1114.19 133.357 1110.65 Q131.552 1107.08 127.917 1107.08 M127.917 1103.38 Q133.728 1103.38 136.783 1107.99 Q139.862 1112.57 139.862 1121.32 Q139.862 1130.05 136.783 1134.65 Q133.728 1139.24 127.917 1139.24 Q122.107 1139.24 119.029 1134.65 Q115.973 1130.05 115.973 1121.32 Q115.973 1112.57 119.029 1107.99 Q122.107 1103.38 127.917 1103.38 Z" fill="#000000" fill-rule="nonzero" fill-opacity="1" /><path clip-path="url(#clip480)" d="M148.079 1132.68 L152.964 1132.68 L152.964 1138.56 L148.079 1138.56 L148.079 1132.68 Z" fill="#000000" fill-rule="nonzero" fill-opacity="1" /><path clip-path="url(#clip480)" d="M163.959 1134.63 L171.598 1134.63 L171.598 1108.26 L163.288 1109.93 L163.288 1105.67 L171.552 1104 L176.227 1104 L176.227 1134.63 L183.866 1134.63 L183.866 1138.56 L163.959 1138.56 L163.959 1134.63 Z" fill="#000000" fill-rule="nonzero" fill-opacity="1" /><path clip-path="url(#clip480)" d="M128.288 841.971 Q124.677 841.971 122.848 845.535 Q121.043 849.077 121.043 856.207 Q121.043 863.313 122.848 866.878 Q124.677 870.419 128.288 870.419 Q131.922 870.419 133.728 866.878 Q135.556 863.313 135.556 856.207 Q135.556 849.077 133.728 845.535 Q131.922 841.971 128.288 841.971 M128.288 838.267 Q134.098 838.267 137.154 842.873 Q140.232 847.457 140.232 856.207 Q140.232 864.933 137.154 869.54 Q134.098 874.123 128.288 874.123 Q122.478 874.123 119.399 869.54 Q116.343 864.933 116.343 856.207 Q116.343 847.457 119.399 842.873 Q122.478 838.267 128.288 838.267 Z" fill="#000000" fill-rule="nonzero" fill-opacity="1" /><path clip-path="url(#clip480)" d="M148.45 867.572 L153.334 867.572 L153.334 873.452 L148.45 873.452 L148.45 867.572 Z" fill="#000000" fill-rule="nonzero" fill-opacity="1" /><path clip-path="url(#clip480)" d="M167.547 869.517 L183.866 869.517 L183.866 873.452 L161.922 873.452 L161.922 869.517 Q164.584 866.762 169.167 862.132 Q173.774 857.48 174.954 856.137 Q177.2 853.614 178.079 851.878 Q178.982 850.119 178.982 848.429 Q178.982 845.674 177.038 843.938 Q175.116 842.202 172.014 842.202 Q169.815 842.202 167.362 842.966 Q164.931 843.73 162.153 845.281 L162.153 840.559 Q164.977 839.424 167.431 838.846 Q169.885 838.267 171.922 838.267 Q177.292 838.267 180.487 840.952 Q183.681 843.637 183.681 848.128 Q183.681 850.258 182.871 852.179 Q182.084 854.077 179.977 856.67 Q179.399 857.341 176.297 860.558 Q173.195 863.753 167.547 869.517 Z" fill="#000000" fill-rule="nonzero" fill-opacity="1" /><path clip-path="url(#clip480)" d="M127.339 576.859 Q123.728 576.859 121.899 580.423 Q120.093 583.965 120.093 591.095 Q120.093 598.201 121.899 601.766 Q123.728 605.308 127.339 605.308 Q130.973 605.308 132.779 601.766 Q134.607 598.201 134.607 591.095 Q134.607 583.965 132.779 580.423 Q130.973 576.859 127.339 576.859 M127.339 573.155 Q133.149 573.155 136.204 577.761 Q139.283 582.345 139.283 591.095 Q139.283 599.821 136.204 604.428 Q133.149 609.011 127.339 609.011 Q121.529 609.011 118.45 604.428 Q115.394 599.821 115.394 591.095 Q115.394 582.345 118.45 577.761 Q121.529 573.155 127.339 573.155 Z" fill="#000000" fill-rule="nonzero" fill-opacity="1" /><path clip-path="url(#clip480)" d="M147.501 602.46 L152.385 602.46 L152.385 608.34 L147.501 608.34 L147.501 602.46 Z" fill="#000000" fill-rule="nonzero" fill-opacity="1" /><path clip-path="url(#clip480)" d="M176.737 589.706 Q180.093 590.423 181.968 592.692 Q183.866 594.96 183.866 598.294 Q183.866 603.409 180.348 606.21 Q176.829 609.011 170.348 609.011 Q168.172 609.011 165.857 608.571 Q163.565 608.155 161.112 607.298 L161.112 602.784 Q163.056 603.919 165.371 604.497 Q167.686 605.076 170.209 605.076 Q174.607 605.076 176.899 603.34 Q179.214 601.604 179.214 598.294 Q179.214 595.238 177.061 593.525 Q174.931 591.789 171.112 591.789 L167.084 591.789 L167.084 587.947 L171.297 587.947 Q174.746 587.947 176.575 586.581 Q178.403 585.192 178.403 582.599 Q178.403 579.937 176.505 578.525 Q174.63 577.09 171.112 577.09 Q169.19 577.09 166.991 577.507 Q164.792 577.923 162.153 578.803 L162.153 574.636 Q164.815 573.896 167.13 573.525 Q169.468 573.155 171.528 573.155 Q176.852 573.155 179.954 575.585 Q183.056 577.993 183.056 582.113 Q183.056 584.984 181.413 586.974 Q179.769 588.942 176.737 589.706 Z" fill="#000000" fill-rule="nonzero" fill-opacity="1" /><path clip-path="url(#clip480)" d="M126.205 311.747 Q122.593 311.747 120.765 315.312 Q118.959 318.853 118.959 325.983 Q118.959 333.089 120.765 336.654 Q122.593 340.196 126.205 340.196 Q129.839 340.196 131.644 336.654 Q133.473 333.089 133.473 325.983 Q133.473 318.853 131.644 315.312 Q129.839 311.747 126.205 311.747 M126.205 308.043 Q132.015 308.043 135.07 312.65 Q138.149 317.233 138.149 325.983 Q138.149 334.71 135.07 339.316 Q132.015 343.899 126.205 343.899 Q120.394 343.899 117.316 339.316 Q114.26 334.71 114.26 325.983 Q114.26 317.233 117.316 312.65 Q120.394 308.043 126.205 308.043 Z" fill="#000000" fill-rule="nonzero" fill-opacity="1" /><path clip-path="url(#clip480)" d="M146.366 337.348 L151.251 337.348 L151.251 343.228 L146.366 343.228 L146.366 337.348 Z" fill="#000000" fill-rule="nonzero" fill-opacity="1" /><path clip-path="url(#clip480)" d="M174.283 312.742 L162.477 331.191 L174.283 331.191 L174.283 312.742 M173.056 308.668 L178.936 308.668 L178.936 331.191 L183.866 331.191 L183.866 335.08 L178.936 335.08 L178.936 343.228 L174.283 343.228 L174.283 335.08 L158.681 335.08 L158.681 330.566 L173.056 308.668 Z" fill="#000000" fill-rule="nonzero" fill-opacity="1" /><path clip-path="url(#clip480)" d="M20.1444 820.225 L26.9239 820.225 Q23.9002 823.472 22.4043 827.164 Q20.9083 830.824 20.9083 834.962 Q20.9083 843.11 25.9054 847.439 Q30.8707 851.767 40.2919 851.767 Q49.6813 851.767 54.6784 847.439 Q59.6436 843.11 59.6436 834.962 Q59.6436 830.824 58.1477 827.164 Q56.6518 823.472 53.6281 820.225 L60.3439 820.225 Q62.6355 823.599 63.7814 827.387 Q64.9272 831.143 64.9272 835.344 Q64.9272 846.134 58.3387 852.34 Q51.7183 858.547 40.2919 858.547 Q28.8336 858.547 22.2451 852.34 Q15.6248 846.134 15.6248 835.344 Q15.6248 831.079 16.7706 827.323 Q17.8846 823.535 20.1444 820.225 Z" fill="#000000" fill-rule="nonzero" fill-opacity="1" /><path clip-path="url(#clip480)" d="M16.4842 816.883 L16.4842 776.684 L21.895 776.684 L21.895 793.553 L64.0042 793.553 L64.0042 800.014 L21.895 800.014 L21.895 816.883 L16.4842 816.883 Z" fill="#000000" fill-rule="nonzero" fill-opacity="1" /><path clip-path="url(#clip480)" d="M16.4842 770.477 L16.4842 761.82 L56.238 740.749 L16.4842 740.749 L16.4842 734.511 L64.0042 734.511 L64.0042 743.168 L24.2503 764.239 L64.0042 764.239 L64.0042 770.477 L16.4842 770.477 Z" fill="#000000" fill-rule="nonzero" fill-opacity="1" /><path clip-path="url(#clip480)" d="M16.4842 728.305 L16.4842 688.105 L21.895 688.105 L21.895 704.974 L64.0042 704.974 L64.0042 711.435 L21.895 711.435 L21.895 728.305 L16.4842 728.305 Z" fill="#000000" fill-rule="nonzero" fill-opacity="1" /><path clip-path="url(#clip480)" d="M1039.63 18.8205 L1039.63 41.5461 L1049.92 41.5461 Q1055.63 41.5461 1058.75 38.5889 Q1061.87 35.6318 1061.87 30.163 Q1061.87 24.7348 1058.75 21.7777 Q1055.63 18.8205 1049.92 18.8205 L1039.63 18.8205 M1031.45 12.096 L1049.92 12.096 Q1060.09 12.096 1065.27 16.714 Q1070.5 21.2916 1070.5 30.163 Q1070.5 39.1155 1065.27 43.6931 Q1060.09 48.2706 1049.92 48.2706 L1039.63 48.2706 L1039.63 72.576 L1031.45 72.576 L1031.45 12.096 Z" fill="#000000" fill-rule="nonzero" fill-opacity="1" /><path clip-path="url(#clip480)" d="M1098.05 49.7694 Q1089.01 49.7694 1085.53 51.8354 Q1082.04 53.9013 1082.04 58.8839 Q1082.04 62.8538 1084.64 65.2034 Q1087.27 67.5124 1091.77 67.5124 Q1097.96 67.5124 1101.69 63.1374 Q1105.46 58.7219 1105.46 51.4303 L1105.46 49.7694 L1098.05 49.7694 M1112.91 46.6907 L1112.91 72.576 L1105.46 72.576 L1105.46 65.6895 Q1102.91 69.8214 1099.1 71.8063 Q1095.29 73.7508 1089.78 73.7508 Q1082.81 73.7508 1078.68 69.8619 Q1074.59 65.9325 1074.59 59.3701 Q1074.59 51.7138 1079.69 47.825 Q1084.84 43.9361 1095.01 43.9361 L1105.46 43.9361 L1105.46 43.2069 Q1105.46 38.0623 1102.06 35.2672 Q1098.69 32.4315 1092.58 32.4315 Q1088.69 32.4315 1085 33.3632 Q1081.32 34.295 1077.91 36.1584 L1077.91 29.2718 Q1082 27.692 1085.85 26.9223 Q1089.7 26.1121 1093.35 26.1121 Q1103.19 26.1121 1108.05 31.2163 Q1112.91 36.3204 1112.91 46.6907 Z" fill="#000000" fill-rule="nonzero" fill-opacity="1" /><path clip-path="url(#clip480)" d="M1135.64 14.324 L1135.64 27.2059 L1150.99 27.2059 L1150.99 32.9987 L1135.64 32.9987 L1135.64 57.6282 Q1135.64 63.1779 1137.14 64.7578 Q1138.68 66.3376 1143.33 66.3376 L1150.99 66.3376 L1150.99 72.576 L1143.33 72.576 Q1134.71 72.576 1131.42 69.3758 Q1128.14 66.1351 1128.14 57.6282 L1128.14 32.9987 L1122.67 32.9987 L1122.67 27.2059 L1128.14 27.2059 L1128.14 14.324 L1135.64 14.324 Z" fill="#000000" fill-rule="nonzero" fill-opacity="1" /><path clip-path="url(#clip480)" d="M1160.79 27.2059 L1168.25 27.2059 L1168.25 72.576 L1160.79 72.576 L1160.79 27.2059 M1160.79 9.54393 L1168.25 9.54393 L1168.25 18.9825 L1160.79 18.9825 L1160.79 9.54393 Z" fill="#000000" fill-rule="nonzero" fill-opacity="1" /><path clip-path="url(#clip480)" d="M1222.65 48.0275 L1222.65 51.6733 L1188.38 51.6733 Q1188.87 59.3701 1193 63.421 Q1197.17 67.4314 1204.58 67.4314 Q1208.88 67.4314 1212.89 66.3781 Q1216.94 65.3249 1220.91 63.2184 L1220.91 70.267 Q1216.9 71.9684 1212.69 72.8596 Q1208.47 73.7508 1204.14 73.7508 Q1193.28 73.7508 1186.92 67.4314 Q1180.6 61.1119 1180.6 50.3365 Q1180.6 39.1965 1186.6 32.6746 Q1192.63 26.1121 1202.84 26.1121 Q1212 26.1121 1217.3 32.0264 Q1222.65 37.9003 1222.65 48.0275 M1215.2 45.84 Q1215.12 39.7232 1211.75 36.0774 Q1208.43 32.4315 1202.92 32.4315 Q1196.68 32.4315 1192.92 35.9558 Q1189.19 39.4801 1188.62 45.8805 L1215.2 45.84 Z" fill="#000000" fill-rule="nonzero" fill-opacity="1" /><path clip-path="url(#clip480)" d="M1272.6 45.1919 L1272.6 72.576 L1265.15 72.576 L1265.15 45.4349 Q1265.15 38.994 1262.63 35.7938 Q1260.12 32.5936 1255.1 32.5936 Q1249.06 32.5936 1245.58 36.4419 Q1242.1 40.2903 1242.1 46.9338 L1242.1 72.576 L1234.6 72.576 L1234.6 27.2059 L1242.1 27.2059 L1242.1 34.2544 Q1244.77 30.163 1248.37 28.1376 Q1252.02 26.1121 1256.76 26.1121 Q1264.58 26.1121 1268.59 30.9732 Q1272.6 35.7938 1272.6 45.1919 Z" fill="#000000" fill-rule="nonzero" fill-opacity="1" /><path clip-path="url(#clip480)" d="M1294.84 14.324 L1294.84 27.2059 L1310.19 27.2059 L1310.19 32.9987 L1294.84 32.9987 L1294.84 57.6282 Q1294.84 63.1779 1296.34 64.7578 Q1297.88 66.3376 1302.53 66.3376 L1310.19 66.3376 L1310.19 72.576 L1302.53 72.576 Q1293.91 72.576 1290.63 69.3758 Q1287.34 66.1351 1287.34 57.6282 L1287.34 32.9987 L1281.88 32.9987 L1281.88 27.2059 L1287.34 27.2059 L1287.34 14.324 L1294.84 14.324 Z" fill="#000000" fill-rule="nonzero" fill-opacity="1" /><path clip-path="url(#clip480)" d="M1384.08 45.1919 L1384.08 72.576 L1376.63 72.576 L1376.63 45.4349 Q1376.63 38.994 1374.11 35.7938 Q1371.6 32.5936 1366.58 32.5936 Q1360.54 32.5936 1357.06 36.4419 Q1353.58 40.2903 1353.58 46.9338 L1353.58 72.576 L1346.08 72.576 L1346.08 27.2059 L1353.58 27.2059 L1353.58 34.2544 Q1356.25 30.163 1359.86 28.1376 Q1363.5 26.1121 1368.24 26.1121 Q1376.06 26.1121 1380.07 30.9732 Q1384.08 35.7938 1384.08 45.1919 Z" fill="#000000" fill-rule="nonzero" fill-opacity="1" /><path clip-path="url(#clip480)" d="M1401.42 65.6895 L1414.79 65.6895 L1414.79 19.5497 L1400.24 22.4663 L1400.24 15.0127 L1414.7 12.096 L1422.89 12.096 L1422.89 65.6895 L1436.26 65.6895 L1436.26 72.576 L1401.42 72.576 L1401.42 65.6895 Z" fill="#000000" fill-rule="nonzero" fill-opacity="1" /><path clip-path="url(#clip480)" d="M1459.83 65.6895 L1488.39 65.6895 L1488.39 72.576 L1449.99 72.576 L1449.99 65.6895 Q1454.65 60.8689 1462.67 52.7671 Q1470.73 44.6248 1472.79 42.2752 Q1476.72 37.8598 1478.26 34.8216 Q1479.84 31.7429 1479.84 28.7857 Q1479.84 23.9651 1476.44 20.927 Q1473.08 17.8888 1467.65 17.8888 Q1463.8 17.8888 1459.51 19.2256 Q1455.25 20.5624 1450.39 23.2765 L1450.39 15.0127 Q1455.34 13.0277 1459.63 12.015 Q1463.92 11.0023 1467.49 11.0023 Q1476.89 11.0023 1482.48 15.7013 Q1488.07 20.4004 1488.07 28.2591 Q1488.07 31.9859 1486.65 35.3482 Q1485.27 38.6699 1481.58 43.2069 Q1480.57 44.3817 1475.14 50.0125 Q1469.72 55.6027 1459.83 65.6895 Z" fill="#000000" fill-rule="nonzero" fill-opacity="1" /><path clip-path="url(#clip480)" d="M1512.61 65.6895 L1541.17 65.6895 L1541.17 72.576 L1502.77 72.576 L1502.77 65.6895 Q1507.43 60.8689 1515.45 52.7671 Q1523.51 44.6248 1525.58 42.2752 Q1529.51 37.8598 1531.05 34.8216 Q1532.63 31.7429 1532.63 28.7857 Q1532.63 23.9651 1529.22 20.927 Q1525.86 17.8888 1520.43 17.8888 Q1516.58 17.8888 1512.29 19.2256 Q1508.04 20.5624 1503.18 23.2765 L1503.18 15.0127 Q1508.12 13.0277 1512.41 12.015 Q1516.71 11.0023 1520.27 11.0023 Q1529.67 11.0023 1535.26 15.7013 Q1540.85 20.4004 1540.85 28.2591 Q1540.85 31.9859 1539.43 35.3482 Q1538.05 38.6699 1534.37 43.2069 Q1533.36 44.3817 1527.93 50.0125 Q1522.5 55.6027 1512.61 65.6895 Z" fill="#000000" fill-rule="nonzero" fill-opacity="1" /><polyline clip-path="url(#clip482)" style="stroke:#009af9; stroke-linecap:round; stroke-linejoin:round; stroke-width:8; stroke-opacity:1; fill:none" points="280.231,1386.4 297.429,1385.52 314.627,1383.57 331.825,1380.62 349.023,1376.71 366.221,1371.92 383.419,1366.29 400.617,1359.87 417.815,1352.72 435.013,1344.88 452.211,1336.4 469.409,1327.32 486.606,1317.68 503.804,1307.52 521.002,1296.88 538.2,1285.79 555.398,1274.29 572.596,1262.4 589.794,1250.16 606.992,1237.6 624.19,1224.74 641.388,1211.61 658.586,1198.24 675.784,1184.65 692.982,1170.85 710.18,1156.88 727.378,1142.75 744.576,1128.47 761.774,1114.08 778.972,1099.58 796.17,1085 813.367,1070.34 830.565,1055.62 847.763,1040.86 864.961,1026.07 882.159,1011.26 899.357,996.435 916.555,981.618 933.753,966.814 950.951,952.034 968.149,937.287 985.347,922.581 1002.54,907.924 1019.74,893.323 1036.94,878.786 1054.14,864.32 1071.34,849.93 1088.53,835.624 1105.73,821.406 1122.93,807.282 1140.13,793.257 1157.33,779.335 1174.52,765.522 1191.72,751.82 1208.92,738.233 1226.12,724.764 1243.32,711.416 1260.51,698.192 1277.71,685.094 1294.91,672.125 1312.11,659.288 1329.31,646.583 1346.5,634.013 1363.7,621.581 1380.9,609.286 1398.1,597.132 1415.3,585.119 1432.49,573.248 1449.69,561.521 1466.89,549.936 1484.09,538.496 1501.29,527.2 1518.48,516.048 1535.68,505.041 1552.88,494.178 1570.08,483.46 1587.28,472.887 1604.47,462.458 1621.67,452.175 1638.87,442.035 1656.07,432.04 1673.26,422.189 1690.46,412.482 1707.66,402.918 1724.86,393.498 1742.06,384.219 1759.25,375.083 1776.45,366.087 1793.65,357.231 1810.85,348.515 1828.05,339.936 1845.24,331.494 1862.44,323.189 1879.64,315.018 1896.84,306.981 1914.04,299.078 1931.23,291.306 1948.43,283.666 1965.63,276.155 1982.83,268.774 2000.03,261.521 2017.22,254.395 2034.42,247.395 2051.62,240.52 2068.82,233.769 2086.02,227.141 2103.21,220.635 2120.41,214.251 2137.61,207.985 2154.81,201.838 2172.01,195.808 2189.2,189.894 2206.4,184.094 2223.6,178.407 2240.8,172.833 2258,167.37 2275.19,162.017 2292.39,160.256 "/>
<circle clip-path="url(#clip482)" cx="1131.24" cy="935.705" r="18" fill="#e26f46" fill-rule="evenodd" fill-opacity="1" stroke="#000000" stroke-opacity="1" stroke-width="3.2"/>
<circle clip-path="url(#clip482)" cx="1257.65" cy="670.594" r="18" fill="#e26f46" fill-rule="evenodd" fill-opacity="1" stroke="#000000" stroke-opacity="1" stroke-width="3.2"/>
<circle clip-path="url(#clip482)" cx="1406.12" cy="378.97" r="18" fill="#e26f46" fill-rule="evenodd" fill-opacity="1" stroke="#000000" stroke-opacity="1" stroke-width="3.2"/>
<circle clip-path="url(#clip482)" cx="1567.5" cy="352.459" r="18" fill="#e26f46" fill-rule="evenodd" fill-opacity="1" stroke="#000000" stroke-opacity="1" stroke-width="3.2"/>
<circle clip-path="url(#clip482)" cx="1725.43" cy="272.926" r="18" fill="#e26f46" fill-rule="evenodd" fill-opacity="1" stroke="#000000" stroke-opacity="1" stroke-width="3.2"/>
<circle clip-path="url(#clip482)" cx="1826.61" cy="325.948" r="18" fill="#e26f46" fill-rule="evenodd" fill-opacity="1" stroke="#000000" stroke-opacity="1" stroke-width="3.2"/>
<circle clip-path="url(#clip482)" cx="2263.73" cy="378.97" r="18" fill="#e26f46" fill-rule="evenodd" fill-opacity="1" stroke="#000000" stroke-opacity="1" stroke-width="3.2"/>
<path clip-path="url(#clip480)" d="M290.963 322.316 L888.486 322.316 L888.486 166.796 L290.963 166.796  Z" fill="#ffffff" fill-rule="evenodd" fill-opacity="1"/>
<polyline clip-path="url(#clip480)" style="stroke:#000000; stroke-linecap:round; stroke-linejoin:round; stroke-width:4; stroke-opacity:1; fill:none" points="290.963,322.316 888.486,322.316 888.486,166.796 290.963,166.796 290.963,322.316 "/>
<polyline clip-path="url(#clip480)" style="stroke:#009af9; stroke-linecap:round; stroke-linejoin:round; stroke-width:8; stroke-opacity:1; fill:none" points="314.661,218.636 456.854,218.636 "/>
<path clip-path="url(#clip480)" d="M480.553 201.356 L487.52 201.356 L496.34 224.874 L505.205 201.356 L512.173 201.356 L512.173 235.916 L507.613 235.916 L507.613 205.569 L498.701 229.272 L494.002 229.272 L485.09 205.569 L485.09 235.916 L480.553 235.916 L480.553 201.356 Z" fill="#000000" fill-rule="nonzero" fill-opacity="1" /><path clip-path="url(#clip480)" d="M531.316 212.976 Q527.89 212.976 525.9 215.661 Q523.909 218.323 523.909 222.976 Q523.909 227.629 525.877 230.314 Q527.867 232.976 531.316 232.976 Q534.719 232.976 536.71 230.291 Q538.701 227.606 538.701 222.976 Q538.701 218.37 536.71 215.684 Q534.719 212.976 531.316 212.976 M531.316 209.365 Q536.872 209.365 540.043 212.976 Q543.214 216.587 543.214 222.976 Q543.214 229.342 540.043 232.976 Q536.872 236.587 531.316 236.587 Q525.738 236.587 522.566 232.976 Q519.418 229.342 519.418 222.976 Q519.418 216.587 522.566 212.976 Q525.738 209.365 531.316 209.365 Z" fill="#000000" fill-rule="nonzero" fill-opacity="1" /><path clip-path="url(#clip480)" d="M567.335 213.925 L567.335 199.897 L571.594 199.897 L571.594 235.916 L567.335 235.916 L567.335 232.027 Q565.992 234.342 563.932 235.476 Q561.895 236.587 559.025 236.587 Q554.326 236.587 551.363 232.837 Q548.423 229.087 548.423 222.976 Q548.423 216.865 551.363 213.115 Q554.326 209.365 559.025 209.365 Q561.895 209.365 563.932 210.499 Q565.992 211.61 567.335 213.925 M552.821 222.976 Q552.821 227.675 554.742 230.36 Q556.687 233.022 560.066 233.022 Q563.446 233.022 565.39 230.36 Q567.335 227.675 567.335 222.976 Q567.335 218.277 565.39 215.615 Q563.446 212.93 560.066 212.93 Q556.687 212.93 554.742 215.615 Q552.821 218.277 552.821 222.976 Z" fill="#000000" fill-rule="nonzero" fill-opacity="1" /><path clip-path="url(#clip480)" d="M602.543 221.888 L602.543 223.971 L582.96 223.971 Q583.237 228.369 585.599 230.684 Q587.983 232.976 592.219 232.976 Q594.673 232.976 596.964 232.374 Q599.279 231.772 601.547 230.569 L601.547 234.596 Q599.256 235.568 596.848 236.078 Q594.441 236.587 591.964 236.587 Q585.761 236.587 582.126 232.976 Q578.515 229.365 578.515 223.207 Q578.515 216.842 581.941 213.115 Q585.39 209.365 591.223 209.365 Q596.455 209.365 599.487 212.745 Q602.543 216.101 602.543 221.888 M598.284 220.638 Q598.237 217.143 596.316 215.059 Q594.418 212.976 591.27 212.976 Q587.705 212.976 585.552 214.99 Q583.423 217.004 583.099 220.661 L598.284 220.638 Z" fill="#000000" fill-rule="nonzero" fill-opacity="1" /><path clip-path="url(#clip480)" d="M609.534 199.897 L613.793 199.897 L613.793 235.916 L609.534 235.916 L609.534 199.897 Z" fill="#000000" fill-rule="nonzero" fill-opacity="1" /><path clip-path="url(#clip480)" d="M642.635 205.198 L642.635 218.184 L648.515 218.184 Q651.779 218.184 653.561 216.495 Q655.344 214.805 655.344 211.68 Q655.344 208.578 653.561 206.888 Q651.779 205.198 648.515 205.198 L642.635 205.198 M637.959 201.356 L648.515 201.356 Q654.325 201.356 657.288 203.995 Q660.274 206.61 660.274 211.68 Q660.274 216.795 657.288 219.411 Q654.325 222.027 648.515 222.027 L642.635 222.027 L642.635 235.916 L637.959 235.916 L637.959 201.356 Z" fill="#000000" fill-rule="nonzero" fill-opacity="1" /><path clip-path="url(#clip480)" d="M680.552 213.971 Q679.834 213.555 678.978 213.37 Q678.144 213.161 677.126 213.161 Q673.515 213.161 671.57 215.522 Q669.649 217.86 669.649 222.258 L669.649 235.916 L665.367 235.916 L665.367 209.99 L669.649 209.99 L669.649 214.018 Q670.992 211.657 673.144 210.522 Q675.297 209.365 678.376 209.365 Q678.816 209.365 679.348 209.434 Q679.88 209.481 680.529 209.596 L680.552 213.971 Z" fill="#000000" fill-rule="nonzero" fill-opacity="1" /><path clip-path="url(#clip480)" d="M706.153 221.888 L706.153 223.971 L686.57 223.971 Q686.848 228.369 689.209 230.684 Q691.593 232.976 695.829 232.976 Q698.283 232.976 700.575 232.374 Q702.89 231.772 705.158 230.569 L705.158 234.596 Q702.866 235.568 700.459 236.078 Q698.052 236.587 695.575 236.587 Q689.371 236.587 685.737 232.976 Q682.126 229.365 682.126 223.207 Q682.126 216.842 685.552 213.115 Q689.001 209.365 694.834 209.365 Q700.065 209.365 703.098 212.745 Q706.153 216.101 706.153 221.888 M701.894 220.638 Q701.848 217.143 699.927 215.059 Q698.028 212.976 694.88 212.976 Q691.316 212.976 689.163 214.99 Q687.033 217.004 686.709 220.661 L701.894 220.638 Z" fill="#000000" fill-rule="nonzero" fill-opacity="1" /><path clip-path="url(#clip480)" d="M730.204 213.925 L730.204 199.897 L734.463 199.897 L734.463 235.916 L730.204 235.916 L730.204 232.027 Q728.862 234.342 726.801 235.476 Q724.764 236.587 721.894 236.587 Q717.195 236.587 714.232 232.837 Q711.292 229.087 711.292 222.976 Q711.292 216.865 714.232 213.115 Q717.195 209.365 721.894 209.365 Q724.764 209.365 726.801 210.499 Q728.862 211.61 730.204 213.925 M715.69 222.976 Q715.69 227.675 717.612 230.36 Q719.556 233.022 722.936 233.022 Q726.315 233.022 728.26 230.36 Q730.204 227.675 730.204 222.976 Q730.204 218.277 728.26 215.615 Q726.315 212.93 722.936 212.93 Q719.556 212.93 717.612 215.615 Q715.69 218.277 715.69 222.976 Z" fill="#000000" fill-rule="nonzero" fill-opacity="1" /><path clip-path="url(#clip480)" d="M743.237 209.99 L747.496 209.99 L747.496 235.916 L743.237 235.916 L743.237 209.99 M743.237 199.897 L747.496 199.897 L747.496 205.291 L743.237 205.291 L743.237 199.897 Z" fill="#000000" fill-rule="nonzero" fill-opacity="1" /><path clip-path="url(#clip480)" d="M775.065 210.985 L775.065 214.967 Q773.26 213.971 771.431 213.485 Q769.625 212.976 767.773 212.976 Q763.63 212.976 761.338 215.615 Q759.047 218.231 759.047 222.976 Q759.047 227.721 761.338 230.36 Q763.63 232.976 767.773 232.976 Q769.625 232.976 771.431 232.49 Q773.26 231.981 775.065 230.985 L775.065 234.92 Q773.283 235.754 771.361 236.17 Q769.463 236.587 767.311 236.587 Q761.454 236.587 758.005 232.906 Q754.556 229.226 754.556 222.976 Q754.556 216.633 758.028 212.999 Q761.523 209.365 767.588 209.365 Q769.556 209.365 771.431 209.782 Q773.306 210.175 775.065 210.985 Z" fill="#000000" fill-rule="nonzero" fill-opacity="1" /><path clip-path="url(#clip480)" d="M786.685 202.629 L786.685 209.99 L795.458 209.99 L795.458 213.3 L786.685 213.3 L786.685 227.374 Q786.685 230.545 787.542 231.448 Q788.421 232.351 791.084 232.351 L795.458 232.351 L795.458 235.916 L791.084 235.916 Q786.153 235.916 784.278 234.087 Q782.403 232.235 782.403 227.374 L782.403 213.3 L779.278 213.3 L779.278 209.99 L782.403 209.99 L782.403 202.629 L786.685 202.629 Z" fill="#000000" fill-rule="nonzero" fill-opacity="1" /><path clip-path="url(#clip480)" d="M801.06 209.99 L805.32 209.99 L805.32 235.916 L801.06 235.916 L801.06 209.99 M801.06 199.897 L805.32 199.897 L805.32 205.291 L801.06 205.291 L801.06 199.897 Z" fill="#000000" fill-rule="nonzero" fill-opacity="1" /><path clip-path="url(#clip480)" d="M824.278 212.976 Q820.852 212.976 818.861 215.661 Q816.87 218.323 816.87 222.976 Q816.87 227.629 818.838 230.314 Q820.829 232.976 824.278 232.976 Q827.681 232.976 829.671 230.291 Q831.662 227.606 831.662 222.976 Q831.662 218.37 829.671 215.684 Q827.681 212.976 824.278 212.976 M824.278 209.365 Q829.833 209.365 833.005 212.976 Q836.176 216.587 836.176 222.976 Q836.176 229.342 833.005 232.976 Q829.833 236.587 824.278 236.587 Q818.699 236.587 815.528 232.976 Q812.38 229.342 812.38 222.976 Q812.38 216.587 815.528 212.976 Q818.699 209.365 824.278 209.365 Z" fill="#000000" fill-rule="nonzero" fill-opacity="1" /><path clip-path="url(#clip480)" d="M864.787 220.268 L864.787 235.916 L860.528 235.916 L860.528 220.407 Q860.528 216.726 859.092 214.897 Q857.657 213.069 854.787 213.069 Q851.338 213.069 849.347 215.268 Q847.356 217.467 847.356 221.263 L847.356 235.916 L843.074 235.916 L843.074 209.99 L847.356 209.99 L847.356 214.018 Q848.884 211.68 850.944 210.522 Q853.028 209.365 855.736 209.365 Q860.204 209.365 862.495 212.143 Q864.787 214.897 864.787 220.268 Z" fill="#000000" fill-rule="nonzero" fill-opacity="1" /><circle clip-path="url(#clip480)" cx="385.758" cy="270.476" r="20.9455" fill="#e26f46" fill-rule="evenodd" fill-opacity="1" stroke="#000000" stroke-opacity="1" stroke-width="3.72364"/>
<path clip-path="url(#clip480)" d="M496.571 256.367 Q491.479 256.367 488.469 260.163 Q485.483 263.96 485.483 270.51 Q485.483 277.038 488.469 280.834 Q491.479 284.631 496.571 284.631 Q501.664 284.631 504.627 280.834 Q507.613 277.038 507.613 270.51 Q507.613 263.96 504.627 260.163 Q501.664 256.367 496.571 256.367 M496.571 252.571 Q503.84 252.571 508.192 257.455 Q512.543 262.316 512.543 270.51 Q512.543 278.682 508.192 283.566 Q503.84 288.427 496.571 288.427 Q489.28 288.427 484.905 283.566 Q480.553 278.705 480.553 270.51 Q480.553 262.316 484.905 257.455 Q489.28 252.571 496.571 252.571 Z" fill="#000000" fill-rule="nonzero" fill-opacity="1" /><path clip-path="url(#clip480)" d="M538.284 274.816 Q538.284 270.117 536.34 267.455 Q534.418 264.77 531.039 264.77 Q527.659 264.77 525.715 267.455 Q523.793 270.117 523.793 274.816 Q523.793 279.515 525.715 282.2 Q527.659 284.862 531.039 284.862 Q534.418 284.862 536.34 282.2 Q538.284 279.515 538.284 274.816 M523.793 265.765 Q525.136 263.45 527.173 262.339 Q529.233 261.205 532.08 261.205 Q536.802 261.205 539.742 264.955 Q542.705 268.705 542.705 274.816 Q542.705 280.927 539.742 284.677 Q536.802 288.427 532.08 288.427 Q529.233 288.427 527.173 287.316 Q525.136 286.182 523.793 283.867 L523.793 287.756 L519.511 287.756 L519.511 251.737 L523.793 251.737 L523.793 265.765 Z" fill="#000000" fill-rule="nonzero" fill-opacity="1" /><path clip-path="url(#clip480)" d="M566.293 262.594 L566.293 266.622 Q564.488 265.696 562.543 265.233 Q560.599 264.77 558.515 264.77 Q555.344 264.77 553.747 265.742 Q552.173 266.714 552.173 268.659 Q552.173 270.14 553.307 270.997 Q554.441 271.83 557.867 272.594 L559.326 272.918 Q563.863 273.89 565.761 275.672 Q567.682 277.432 567.682 280.603 Q567.682 284.214 564.812 286.321 Q561.964 288.427 556.964 288.427 Q554.881 288.427 552.613 288.01 Q550.367 287.617 547.867 286.807 L547.867 282.409 Q550.228 283.635 552.52 284.26 Q554.812 284.862 557.057 284.862 Q560.066 284.862 561.687 283.844 Q563.307 282.802 563.307 280.927 Q563.307 279.191 562.126 278.265 Q560.969 277.339 557.011 276.483 L555.529 276.135 Q551.571 275.302 549.812 273.589 Q548.052 271.853 548.052 268.844 Q548.052 265.186 550.645 263.196 Q553.238 261.205 558.006 261.205 Q560.367 261.205 562.45 261.552 Q564.534 261.899 566.293 262.594 Z" fill="#000000" fill-rule="nonzero" fill-opacity="1" /><path clip-path="url(#clip480)" d="M596.64 273.728 L596.64 275.811 L577.057 275.811 Q577.335 280.209 579.696 282.524 Q582.08 284.816 586.316 284.816 Q588.77 284.816 591.061 284.214 Q593.376 283.612 595.645 282.409 L595.645 286.436 Q593.353 287.408 590.946 287.918 Q588.538 288.427 586.061 288.427 Q579.858 288.427 576.224 284.816 Q572.612 281.205 572.612 275.047 Q572.612 268.682 576.038 264.955 Q579.487 261.205 585.321 261.205 Q590.552 261.205 593.585 264.585 Q596.64 267.941 596.64 273.728 M592.381 272.478 Q592.335 268.983 590.413 266.899 Q588.515 264.816 585.367 264.816 Q581.802 264.816 579.649 266.83 Q577.52 268.844 577.196 272.501 L592.381 272.478 Z" fill="#000000" fill-rule="nonzero" fill-opacity="1" /><path clip-path="url(#clip480)" d="M618.654 265.811 Q617.936 265.395 617.08 265.21 Q616.246 265.001 615.228 265.001 Q611.617 265.001 609.672 267.362 Q607.751 269.7 607.751 274.098 L607.751 287.756 L603.469 287.756 L603.469 261.83 L607.751 261.83 L607.751 265.858 Q609.094 263.497 611.247 262.362 Q613.399 261.205 616.478 261.205 Q616.918 261.205 617.45 261.274 Q617.983 261.321 618.631 261.436 L618.654 265.811 Z" fill="#000000" fill-rule="nonzero" fill-opacity="1" /><path clip-path="url(#clip480)" d="M620.066 261.83 L624.58 261.83 L632.682 283.589 L640.783 261.83 L645.297 261.83 L635.575 287.756 L629.788 287.756 L620.066 261.83 Z" fill="#000000" fill-rule="nonzero" fill-opacity="1" /><path clip-path="url(#clip480)" d="M673.353 273.728 L673.353 275.811 L653.769 275.811 Q654.047 280.209 656.408 282.524 Q658.793 284.816 663.029 284.816 Q665.482 284.816 667.774 284.214 Q670.089 283.612 672.357 282.409 L672.357 286.436 Q670.066 287.408 667.658 287.918 Q665.251 288.427 662.774 288.427 Q656.57 288.427 652.936 284.816 Q649.325 281.205 649.325 275.047 Q649.325 268.682 652.751 264.955 Q656.2 261.205 662.033 261.205 Q667.265 261.205 670.297 264.585 Q673.353 267.941 673.353 273.728 M669.093 272.478 Q669.047 268.983 667.126 266.899 Q665.228 264.816 662.08 264.816 Q658.515 264.816 656.362 266.83 Q654.232 268.844 653.908 272.501 L669.093 272.478 Z" fill="#000000" fill-rule="nonzero" fill-opacity="1" /><path clip-path="url(#clip480)" d="M697.403 265.765 L697.403 251.737 L701.663 251.737 L701.663 287.756 L697.403 287.756 L697.403 283.867 Q696.061 286.182 694.001 287.316 Q691.964 288.427 689.093 288.427 Q684.394 288.427 681.431 284.677 Q678.492 280.927 678.492 274.816 Q678.492 268.705 681.431 264.955 Q684.394 261.205 689.093 261.205 Q691.964 261.205 694.001 262.339 Q696.061 263.45 697.403 265.765 M682.89 274.816 Q682.89 279.515 684.811 282.2 Q686.755 284.862 690.135 284.862 Q693.515 284.862 695.459 282.2 Q697.403 279.515 697.403 274.816 Q697.403 270.117 695.459 267.455 Q693.515 264.77 690.135 264.77 Q686.755 264.77 684.811 267.455 Q682.89 270.117 682.89 274.816 Z" fill="#000000" fill-rule="nonzero" fill-opacity="1" /><path clip-path="url(#clip480)" d="M730.366 257.038 L730.366 283.913 L736.014 283.913 Q743.167 283.913 746.477 280.672 Q749.811 277.432 749.811 270.441 Q749.811 263.497 746.477 260.279 Q743.167 257.038 736.014 257.038 L730.366 257.038 M725.69 253.196 L735.297 253.196 Q745.343 253.196 750.042 257.386 Q754.741 261.552 754.741 270.441 Q754.741 279.376 750.019 283.566 Q745.297 287.756 735.297 287.756 L725.69 287.756 L725.69 253.196 Z" fill="#000000" fill-rule="nonzero" fill-opacity="1" /><path clip-path="url(#clip480)" d="M773.792 274.723 Q768.63 274.723 766.639 275.904 Q764.648 277.084 764.648 279.932 Q764.648 282.2 766.13 283.543 Q767.635 284.862 770.204 284.862 Q773.746 284.862 775.875 282.362 Q778.028 279.839 778.028 275.672 L778.028 274.723 L773.792 274.723 M782.287 272.964 L782.287 287.756 L778.028 287.756 L778.028 283.821 Q776.57 286.182 774.394 287.316 Q772.218 288.427 769.07 288.427 Q765.088 288.427 762.727 286.205 Q760.389 283.959 760.389 280.209 Q760.389 275.834 763.306 273.612 Q766.246 271.39 772.056 271.39 L778.028 271.39 L778.028 270.973 Q778.028 268.034 776.084 266.436 Q774.162 264.816 770.667 264.816 Q768.445 264.816 766.338 265.348 Q764.232 265.881 762.287 266.946 L762.287 263.01 Q764.625 262.108 766.824 261.668 Q769.023 261.205 771.107 261.205 Q776.732 261.205 779.51 264.122 Q782.287 267.038 782.287 272.964 Z" fill="#000000" fill-rule="nonzero" fill-opacity="1" /><path clip-path="url(#clip480)" d="M795.273 254.469 L795.273 261.83 L804.046 261.83 L804.046 265.14 L795.273 265.14 L795.273 279.214 Q795.273 282.385 796.13 283.288 Q797.009 284.191 799.671 284.191 L804.046 284.191 L804.046 287.756 L799.671 287.756 Q794.741 287.756 792.866 285.927 Q790.991 284.075 790.991 279.214 L790.991 265.14 L787.866 265.14 L787.866 261.83 L790.991 261.83 L790.991 254.469 L795.273 254.469 Z" fill="#000000" fill-rule="nonzero" fill-opacity="1" /><path clip-path="url(#clip480)" d="M821.431 274.723 Q816.269 274.723 814.278 275.904 Q812.287 277.084 812.287 279.932 Q812.287 282.2 813.769 283.543 Q815.273 284.862 817.843 284.862 Q821.384 284.862 823.514 282.362 Q825.667 279.839 825.667 275.672 L825.667 274.723 L821.431 274.723 M829.926 272.964 L829.926 287.756 L825.667 287.756 L825.667 283.821 Q824.208 286.182 822.032 287.316 Q819.857 288.427 816.708 288.427 Q812.727 288.427 810.366 286.205 Q808.028 283.959 808.028 280.209 Q808.028 275.834 810.945 273.612 Q813.884 271.39 819.694 271.39 L825.667 271.39 L825.667 270.973 Q825.667 268.034 823.722 266.436 Q821.801 264.816 818.306 264.816 Q816.083 264.816 813.977 265.348 Q811.87 265.881 809.926 266.946 L809.926 263.01 Q812.264 262.108 814.463 261.668 Q816.662 261.205 818.745 261.205 Q824.37 261.205 827.148 264.122 Q829.926 267.038 829.926 272.964 Z" fill="#000000" fill-rule="nonzero" fill-opacity="1" /></svg>
