<?xml version="1.0" encoding="utf-8"?>
<svg xmlns="http://www.w3.org/2000/svg" xmlns:xlink="http://www.w3.org/1999/xlink" width="600" height="400" viewBox="0 0 2400 1600">
<defs>
  <clipPath id="clip700">
    <rect x="0" y="0" width="2400" height="1600"/>
  </clipPath>
</defs>
<path clip-path="url(#clip700)" d="M0 1600 L2400 1600 L2400 0 L0 0  Z" fill="#ffffff" fill-rule="evenodd" fill-opacity="1"/>
<defs>
  <clipPath id="clip701">
    <rect x="480" y="0" width="1681" height="1600"/>
  </clipPath>
</defs>
<path clip-path="url(#clip700)" d="M219.38 1423.18 L2352.76 1423.18 L2352.76 123.472 L219.38 123.472  Z" fill="#ffffff" fill-rule="evenodd" fill-opacity="1"/>
<defs>
  <clipPath id="clip702">
    <rect x="219" y="123" width="2134" height="1301"/>
  </clipPath>
</defs>
<polyline clip-path="url(#clip702)" style="stroke:#000000; stroke-linecap:round; stroke-linejoin:round; stroke-width:2; stroke-opacity:0.1; fill:none" points="240.296,1423.18 240.296,123.472 "/>
<polyline clip-path="url(#clip702)" style="stroke:#000000; stroke-linecap:round; stroke-linejoin:round; stroke-width:2; stroke-opacity:0.1; fill:none" points="634.927,1423.18 634.927,123.472 "/>
<polyline clip-path="url(#clip702)" style="stroke:#000000; stroke-linecap:round; stroke-linejoin:round; stroke-width:2; stroke-opacity:0.1; fill:none" points="1029.56,1423.18 1029.56,123.472 "/>
<polyline clip-path="url(#clip702)" style="stroke:#000000; stroke-linecap:round; stroke-linejoin:round; stroke-width:2; stroke-opacity:0.1; fill:none" points="1424.19,1423.18 1424.19,123.472 "/>
<polyline clip-path="url(#clip702)" style="stroke:#000000; stroke-linecap:round; stroke-linejoin:round; stroke-width:2; stroke-opacity:0.1; fill:none" points="1818.82,1423.18 1818.82,123.472 "/>
<polyline clip-path="url(#clip702)" style="stroke:#000000; stroke-linecap:round; stroke-linejoin:round; stroke-width:2; stroke-opacity:0.1; fill:none" points="2213.45,1423.18 2213.45,123.472 "/>
<polyline clip-path="url(#clip702)" style="stroke:#000000; stroke-linecap:round; stroke-linejoin:round; stroke-width:2; stroke-opacity:0.1; fill:none" points="219.38,1386.4 2352.76,1386.4 "/>
<polyline clip-path="url(#clip702)" style="stroke:#000000; stroke-linecap:round; stroke-linejoin:round; stroke-width:2; stroke-opacity:0.1; fill:none" points="219.38,980.389 2352.76,980.389 "/>
<polyline clip-path="url(#clip702)" style="stroke:#000000; stroke-linecap:round; stroke-linejoin:round; stroke-width:2; stroke-opacity:0.1; fill:none" points="219.38,574.383 2352.76,574.383 "/>
<polyline clip-path="url(#clip702)" style="stroke:#000000; stroke-linecap:round; stroke-linejoin:round; stroke-width:2; stroke-opacity:0.1; fill:none" points="219.38,168.376 2352.76,168.376 "/>
<polyline clip-path="url(#clip700)" style="stroke:#000000; stroke-linecap:round; stroke-linejoin:round; stroke-width:4; stroke-opacity:1; fill:none" points="219.38,1423.18 2352.76,1423.18 "/>
<polyline clip-path="url(#clip700)" style="stroke:#000000; stroke-linecap:round; stroke-linejoin:round; stroke-width:4; stroke-opacity:1; fill:none" points="240.296,1423.18 240.296,1404.28 "/>
<polyline clip-path="url(#clip700)" style="stroke:#000000; stroke-linecap:round; stroke-linejoin:round; stroke-width:4; stroke-opacity:1; fill:none" points="634.927,1423.18 634.927,1404.28 "/>
<polyline clip-path="url(#clip700)" style="stroke:#000000; stroke-linecap:round; stroke-linejoin:round; stroke-width:4; stroke-opacity:1; fill:none" points="1029.56,1423.18 1029.56,1404.28 "/>
<polyline clip-path="url(#clip700)" style="stroke:#000000; stroke-linecap:round; stroke-linejoin:round; stroke-width:4; stroke-opacity:1; fill:none" points="1424.19,1423.18 1424.19,1404.28 "/>
<polyline clip-path="url(#clip700)" style="stroke:#000000; stroke-linecap:round; stroke-linejoin:round; stroke-width:4; stroke-opacity:1; fill:none" points="1818.82,1423.18 1818.82,1404.28 "/>
<polyline clip-path="url(#clip700)" style="stroke:#000000; stroke-linecap:round; stroke-linejoin:round; stroke-width:4; stroke-opacity:1; fill:none" points="2213.45,1423.18 2213.45,1404.28 "/>
<path clip-path="url(#clip700)" d="M240.296 1454.1 Q236.685 1454.1 234.856 1457.66 Q233.05 1461.2 233.05 1468.33 Q233.05 1475.44 234.856 1479.01 Q236.685 1482.55 240.296 1482.55 Q243.93 1482.55 245.735 1479.01 Q247.564 1475.44 247.564 1468.33 Q247.564 1461.2 245.735 1457.66 Q243.93 1454.1 240.296 1454.1 M240.296 1450.39 Q246.106 1450.39 249.161 1455 Q252.24 1459.58 252.24 1468.33 Q252.24 1477.06 249.161 1481.67 Q246.106 1486.25 240.296 1486.25 Q234.485 1486.25 231.407 1481.67 Q228.351 1477.06 228.351 1468.33 Q228.351 1459.58 231.407 1455 Q234.485 1450.39 240.296 1450.39 Z" fill="#000000" fill-rule="nonzero" fill-opacity="1" /><path clip-path="url(#clip700)" d="M609.614 1481.64 L617.253 1481.64 L617.253 1455.28 L608.943 1456.95 L608.943 1452.69 L617.207 1451.02 L621.883 1451.02 L621.883 1481.64 L629.522 1481.64 L629.522 1485.58 L609.614 1485.58 L609.614 1481.64 Z" fill="#000000" fill-rule="nonzero" fill-opacity="1" /><path clip-path="url(#clip700)" d="M648.966 1454.1 Q645.355 1454.1 643.526 1457.66 Q641.721 1461.2 641.721 1468.33 Q641.721 1475.44 643.526 1479.01 Q645.355 1482.55 648.966 1482.55 Q652.6 1482.55 654.406 1479.01 Q656.234 1475.44 656.234 1468.33 Q656.234 1461.2 654.406 1457.66 Q652.6 1454.1 648.966 1454.1 M648.966 1450.39 Q654.776 1450.39 657.832 1455 Q660.91 1459.58 660.91 1468.33 Q660.91 1477.06 657.832 1481.67 Q654.776 1486.25 648.966 1486.25 Q643.156 1486.25 640.077 1481.67 Q637.022 1477.06 637.022 1468.33 Q637.022 1459.58 640.077 1455 Q643.156 1450.39 648.966 1450.39 Z" fill="#000000" fill-rule="nonzero" fill-opacity="1" /><path clip-path="url(#clip700)" d="M1008.33 1481.64 L1024.65 1481.64 L1024.65 1485.58 L1002.71 1485.58 L1002.71 1481.64 Q1005.37 1478.89 1009.95 1474.26 Q1014.56 1469.61 1015.74 1468.27 Q1017.98 1465.74 1018.86 1464.01 Q1019.77 1462.25 1019.77 1460.56 Q1019.77 1457.8 1017.82 1456.07 Q1015.9 1454.33 1012.8 1454.33 Q1010.6 1454.33 1008.15 1455.09 Q1005.72 1455.86 1002.94 1457.41 L1002.94 1452.69 Q1005.76 1451.55 1008.22 1450.97 Q1010.67 1450.39 1012.71 1450.39 Q1018.08 1450.39 1021.27 1453.08 Q1024.47 1455.77 1024.47 1460.26 Q1024.47 1462.39 1023.66 1464.31 Q1022.87 1466.2 1020.76 1468.8 Q1020.18 1469.47 1017.08 1472.69 Q1013.98 1475.88 1008.33 1481.64 Z" fill="#000000" fill-rule="nonzero" fill-opacity="1" /><path clip-path="url(#clip700)" d="M1044.47 1454.1 Q1040.85 1454.1 1039.03 1457.66 Q1037.22 1461.2 1037.22 1468.33 Q1037.22 1475.44 1039.03 1479.01 Q1040.85 1482.55 1044.47 1482.55 Q1048.1 1482.55 1049.9 1479.01 Q1051.73 1475.44 1051.73 1468.33 Q1051.73 1461.2 1049.9 1457.66 Q1048.1 1454.1 1044.47 1454.1 M1044.47 1450.39 Q1050.28 1450.39 1053.33 1455 Q1056.41 1459.58 1056.41 1468.33 Q1056.41 1477.06 1053.33 1481.67 Q1050.28 1486.25 1044.47 1486.25 Q1038.65 1486.25 1035.58 1481.67 Q1032.52 1477.06 1032.52 1468.33 Q1032.52 1459.58 1035.58 1455 Q1038.65 1450.39 1044.47 1450.39 Z" fill="#000000" fill-rule="nonzero" fill-opacity="1" /><path clip-path="url(#clip700)" d="M1413.03 1466.95 Q1416.39 1467.66 1418.26 1469.93 Q1420.16 1472.2 1420.16 1475.53 Q1420.16 1480.65 1416.64 1483.45 Q1413.12 1486.25 1406.64 1486.25 Q1404.47 1486.25 1402.15 1485.81 Q1399.86 1485.39 1397.41 1484.54 L1397.41 1480.02 Q1399.35 1481.16 1401.67 1481.74 Q1403.98 1482.32 1406.5 1482.32 Q1410.9 1482.32 1413.19 1480.58 Q1415.51 1478.84 1415.51 1475.53 Q1415.51 1472.48 1413.36 1470.77 Q1411.23 1469.03 1407.41 1469.03 L1403.38 1469.03 L1403.38 1465.19 L1407.59 1465.19 Q1411.04 1465.19 1412.87 1463.82 Q1414.7 1462.43 1414.7 1459.84 Q1414.7 1457.18 1412.8 1455.77 Q1410.93 1454.33 1407.41 1454.33 Q1405.49 1454.33 1403.29 1454.75 Q1401.09 1455.16 1398.45 1456.04 L1398.45 1451.88 Q1401.11 1451.14 1403.43 1450.77 Q1405.76 1450.39 1407.82 1450.39 Q1413.15 1450.39 1416.25 1452.83 Q1419.35 1455.23 1419.35 1459.35 Q1419.35 1462.22 1417.71 1464.21 Q1416.06 1466.18 1413.03 1466.95 Z" fill="#000000" fill-rule="nonzero" fill-opacity="1" /><path clip-path="url(#clip700)" d="M1439.03 1454.1 Q1435.42 1454.1 1433.59 1457.66 Q1431.78 1461.2 1431.78 1468.33 Q1431.78 1475.44 1433.59 1479.01 Q1435.42 1482.55 1439.03 1482.55 Q1442.66 1482.55 1444.47 1479.01 Q1446.3 1475.44 1446.3 1468.33 Q1446.3 1461.2 1444.47 1457.66 Q1442.66 1454.1 1439.03 1454.1 M1439.03 1450.39 Q1444.84 1450.39 1447.89 1455 Q1450.97 1459.58 1450.97 1468.33 Q1450.97 1477.06 1447.89 1481.67 Q1444.84 1486.25 1439.03 1486.25 Q1433.22 1486.25 1430.14 1481.67 Q1427.08 1477.06 1427.08 1468.33 Q1427.08 1459.58 1430.14 1455 Q1433.22 1450.39 1439.03 1450.39 Z" fill="#000000" fill-rule="nonzero" fill-opacity="1" /><path clip-path="url(#clip700)" d="M1806.99 1455.09 L1795.19 1473.54 L1806.99 1473.54 L1806.99 1455.09 M1805.76 1451.02 L1811.64 1451.02 L1811.64 1473.54 L1816.57 1473.54 L1816.57 1477.43 L1811.64 1477.43 L1811.64 1485.58 L1806.99 1485.58 L1806.99 1477.43 L1791.39 1477.43 L1791.39 1472.92 L1805.76 1451.02 Z" fill="#000000" fill-rule="nonzero" fill-opacity="1" /><path clip-path="url(#clip700)" d="M1834.31 1454.1 Q1830.69 1454.1 1828.87 1457.66 Q1827.06 1461.2 1827.06 1468.33 Q1827.06 1475.44 1828.87 1479.01 Q1830.69 1482.55 1834.31 1482.55 Q1837.94 1482.55 1839.75 1479.01 Q1841.57 1475.44 1841.57 1468.33 Q1841.57 1461.2 1839.75 1457.66 Q1837.94 1454.1 1834.31 1454.1 M1834.31 1450.39 Q1840.12 1450.39 1843.17 1455 Q1846.25 1459.58 1846.25 1468.33 Q1846.25 1477.06 1843.17 1481.67 Q1840.12 1486.25 1834.31 1486.25 Q1828.5 1486.25 1825.42 1481.67 Q1822.36 1477.06 1822.36 1468.33 Q1822.36 1459.58 1825.42 1455 Q1828.5 1450.39 1834.31 1450.39 Z" fill="#000000" fill-rule="nonzero" fill-opacity="1" /><path clip-path="url(#clip700)" d="M2188.15 1451.02 L2206.51 1451.02 L2206.51 1454.96 L2192.43 1454.96 L2192.43 1463.43 Q2193.45 1463.08 2194.47 1462.92 Q2195.49 1462.73 2196.51 1462.73 Q2202.29 1462.73 2205.67 1465.9 Q2209.05 1469.08 2209.05 1474.49 Q2209.05 1480.07 2205.58 1483.17 Q2202.11 1486.25 2195.79 1486.25 Q2193.61 1486.25 2191.34 1485.88 Q2189.1 1485.51 2186.69 1484.77 L2186.69 1480.07 Q2188.78 1481.2 2191 1481.76 Q2193.22 1482.32 2195.7 1482.32 Q2199.7 1482.32 2202.04 1480.21 Q2204.38 1478.1 2204.38 1474.49 Q2204.38 1470.88 2202.04 1468.77 Q2199.7 1466.67 2195.7 1466.67 Q2193.82 1466.67 2191.95 1467.08 Q2190.09 1467.5 2188.15 1468.38 L2188.15 1451.02 Z" fill="#000000" fill-rule="nonzero" fill-opacity="1" /><path clip-path="url(#clip700)" d="M2228.27 1454.1 Q2224.65 1454.1 2222.83 1457.66 Q2221.02 1461.2 2221.02 1468.33 Q2221.02 1475.44 2222.83 1479.01 Q2224.65 1482.55 2228.27 1482.55 Q2231.9 1482.55 2233.71 1479.01 Q2235.53 1475.44 2235.53 1468.33 Q2235.53 1461.2 2233.71 1457.66 Q2231.9 1454.1 2228.27 1454.1 M2228.27 1450.39 Q2234.08 1450.39 2237.13 1455 Q2240.21 1459.58 2240.21 1468.33 Q2240.21 1477.06 2237.13 1481.67 Q2234.08 1486.25 2228.27 1486.25 Q2222.46 1486.25 2219.38 1481.67 Q2216.32 1477.06 2216.32 1468.33 Q2216.32 1459.58 2219.38 1455 Q2222.46 1450.39 2228.27 1450.39 Z" fill="#000000" fill-rule="nonzero" fill-opacity="1" /><path clip-path="url(#clip700)" d="M1207.94 1520.52 L1248.14 1520.52 L1248.14 1525.93 L1231.28 1525.93 L1231.28 1568.04 L1224.81 1568.04 L1224.81 1525.93 L1207.94 1525.93 L1207.94 1520.52 Z" fill="#000000" fill-rule="nonzero" fill-opacity="1" /><path clip-path="url(#clip700)" d="M1252.09 1532.4 L1257.95 1532.4 L1257.95 1568.04 L1252.09 1568.04 L1252.09 1532.4 M1252.09 1518.52 L1257.95 1518.52 L1257.95 1525.93 L1252.09 1525.93 L1252.09 1518.52 Z" fill="#000000" fill-rule="nonzero" fill-opacity="1" /><path clip-path="url(#clip700)" d="M1297.96 1539.24 Q1300.15 1535.29 1303.21 1533.41 Q1306.26 1531.54 1310.4 1531.54 Q1315.97 1531.54 1318.99 1535.45 Q1322.02 1539.33 1322.02 1546.53 L1322.02 1568.04 L1316.13 1568.04 L1316.13 1546.72 Q1316.13 1541.59 1314.32 1539.11 Q1312.5 1536.63 1308.78 1536.63 Q1304.23 1536.63 1301.58 1539.65 Q1298.94 1542.68 1298.94 1547.9 L1298.94 1568.04 L1293.05 1568.04 L1293.05 1546.72 Q1293.05 1541.56 1291.24 1539.11 Q1289.43 1536.63 1285.64 1536.63 Q1281.15 1536.63 1278.51 1539.68 Q1275.87 1542.71 1275.87 1547.9 L1275.87 1568.04 L1269.98 1568.04 L1269.98 1532.4 L1275.87 1532.4 L1275.87 1537.93 Q1277.87 1534.66 1280.67 1533.1 Q1283.47 1531.54 1287.33 1531.54 Q1291.21 1531.54 1293.91 1533.51 Q1296.65 1535.48 1297.96 1539.24 Z" fill="#000000" fill-rule="nonzero" fill-opacity="1" /><path clip-path="url(#clip700)" d="M1364.19 1548.76 L1364.19 1551.62 L1337.26 1551.62 Q1337.65 1557.67 1340.89 1560.85 Q1344.17 1564 1350 1564 Q1353.37 1564 1356.52 1563.17 Q1359.7 1562.35 1362.82 1560.69 L1362.82 1566.23 Q1359.67 1567.57 1356.36 1568.27 Q1353.05 1568.97 1349.65 1568.97 Q1341.12 1568.97 1336.12 1564 Q1331.15 1559.04 1331.15 1550.57 Q1331.15 1541.82 1335.86 1536.69 Q1340.61 1531.54 1348.63 1531.54 Q1355.82 1531.54 1359.99 1536.18 Q1364.19 1540.8 1364.19 1548.76 M1358.33 1547.04 Q1358.27 1542.23 1355.63 1539.37 Q1353.02 1536.5 1348.69 1536.5 Q1343.79 1536.5 1340.83 1539.27 Q1337.9 1542.04 1337.46 1547.07 L1358.33 1547.04 Z" fill="#000000" fill-rule="nonzero" fill-opacity="1" /><polyline clip-path="url(#clip700)" style="stroke:#000000; stroke-linecap:round; stroke-linejoin:round; stroke-width:4; stroke-opacity:1; fill:none" points="219.38,1423.18 219.38,123.472 "/>
<polyline clip-path="url(#clip700)" style="stroke:#000000; stroke-linecap:round; stroke-linejoin:round; stroke-width:4; stroke-opacity:1; fill:none" points="219.38,1386.4 238.278,1386.4 "/>
<polyline clip-path="url(#clip700)" style="stroke:#000000; stroke-linecap:round; stroke-linejoin:round; stroke-width:4; stroke-opacity:1; fill:none" points="219.38,980.389 238.278,980.389 "/>
<polyline clip-path="url(#clip700)" style="stroke:#000000; stroke-linecap:round; stroke-linejoin:round; stroke-width:4; stroke-opacity:1; fill:none" points="219.38,574.383 238.278,574.383 "/>
<polyline clip-path="url(#clip700)" style="stroke:#000000; stroke-linecap:round; stroke-linejoin:round; stroke-width:4; stroke-opacity:1; fill:none" points="219.38,168.376 238.278,168.376 "/>
<path clip-path="url(#clip700)" d="M126.205 1372.19 Q122.593 1372.19 120.765 1375.76 Q118.959 1379.3 118.959 1386.43 Q118.959 1393.54 120.765 1397.1 Q122.593 1400.64 126.205 1400.64 Q129.839 1400.64 131.644 1397.1 Q133.473 1393.54 133.473 1386.43 Q133.473 1379.3 131.644 1375.76 Q129.839 1372.19 126.205 1372.19 M126.205 1368.49 Q132.015 1368.49 135.07 1373.1 Q138.149 1377.68 138.149 1386.43 Q138.149 1395.16 135.07 1399.76 Q132.015 1404.35 126.205 1404.35 Q120.394 1404.35 117.316 1399.76 Q114.26 1395.16 114.26 1386.43 Q114.26 1377.68 117.316 1373.1 Q120.394 1368.49 126.205 1368.49 Z" fill="#000000" fill-rule="nonzero" fill-opacity="1" /><path clip-path="url(#clip700)" d="M146.366 1397.8 L151.251 1397.8 L151.251 1403.68 L146.366 1403.68 L146.366 1397.8 Z" fill="#000000" fill-rule="nonzero" fill-opacity="1" /><path clip-path="url(#clip700)" d="M171.436 1372.19 Q167.825 1372.19 165.996 1375.76 Q164.19 1379.3 164.19 1386.43 Q164.19 1393.54 165.996 1397.1 Q167.825 1400.64 171.436 1400.64 Q175.07 1400.64 176.876 1397.1 Q178.704 1393.54 178.704 1386.43 Q178.704 1379.3 176.876 1375.76 Q175.07 1372.19 171.436 1372.19 M171.436 1368.49 Q177.246 1368.49 180.301 1373.1 Q183.38 1377.68 183.38 1386.43 Q183.38 1395.16 180.301 1399.76 Q177.246 1404.35 171.436 1404.35 Q165.626 1404.35 162.547 1399.76 Q159.491 1395.16 159.491 1386.43 Q159.491 1377.68 162.547 1373.1 Q165.626 1368.49 171.436 1368.49 Z" fill="#000000" fill-rule="nonzero" fill-opacity="1" /><path clip-path="url(#clip700)" d="M127.2 966.188 Q123.589 966.188 121.76 969.753 Q119.955 973.294 119.955 980.424 Q119.955 987.53 121.76 991.095 Q123.589 994.637 127.2 994.637 Q130.834 994.637 132.64 991.095 Q134.468 987.53 134.468 980.424 Q134.468 973.294 132.64 969.753 Q130.834 966.188 127.2 966.188 M127.2 962.484 Q133.01 962.484 136.066 967.091 Q139.144 971.674 139.144 980.424 Q139.144 989.151 136.066 993.757 Q133.01 998.341 127.2 998.341 Q121.39 998.341 118.311 993.757 Q115.256 989.151 115.256 980.424 Q115.256 971.674 118.311 967.091 Q121.39 962.484 127.2 962.484 Z" fill="#000000" fill-rule="nonzero" fill-opacity="1" /><path clip-path="url(#clip700)" d="M147.362 991.79 L152.246 991.79 L152.246 997.669 L147.362 997.669 L147.362 991.79 Z" fill="#000000" fill-rule="nonzero" fill-opacity="1" /><path clip-path="url(#clip700)" d="M162.477 963.109 L180.834 963.109 L180.834 967.044 L166.76 967.044 L166.76 975.517 Q167.778 975.169 168.797 975.007 Q169.815 974.822 170.834 974.822 Q176.621 974.822 180.001 977.993 Q183.38 981.165 183.38 986.581 Q183.38 992.16 179.908 995.262 Q176.436 998.341 170.116 998.341 Q167.94 998.341 165.672 997.97 Q163.427 997.6 161.019 996.859 L161.019 992.16 Q163.102 993.294 165.325 993.85 Q167.547 994.405 170.024 994.405 Q174.028 994.405 176.366 992.299 Q178.704 990.192 178.704 986.581 Q178.704 982.97 176.366 980.864 Q174.028 978.757 170.024 978.757 Q168.149 978.757 166.274 979.174 Q164.422 979.591 162.477 980.47 L162.477 963.109 Z" fill="#000000" fill-rule="nonzero" fill-opacity="1" /><path clip-path="url(#clip700)" d="M117.015 587.728 L124.654 587.728 L124.654 561.362 L116.343 563.029 L116.343 558.77 L124.607 557.103 L129.283 557.103 L129.283 587.728 L136.922 587.728 L136.922 591.663 L117.015 591.663 L117.015 587.728 Z" fill="#000000" fill-rule="nonzero" fill-opacity="1" /><path clip-path="url(#clip700)" d="M146.366 585.783 L151.251 585.783 L151.251 591.663 L146.366 591.663 L146.366 585.783 Z" fill="#000000" fill-rule="nonzero" fill-opacity="1" /><path clip-path="url(#clip700)" d="M171.436 560.182 Q167.825 560.182 165.996 563.746 Q164.19 567.288 164.19 574.418 Q164.19 581.524 165.996 585.089 Q167.825 588.63 171.436 588.63 Q175.07 588.63 176.876 585.089 Q178.704 581.524 178.704 574.418 Q178.704 567.288 176.876 563.746 Q175.07 560.182 171.436 560.182 M171.436 556.478 Q177.246 556.478 180.301 561.084 Q183.38 565.668 183.38 574.418 Q183.38 583.144 180.301 587.751 Q177.246 592.334 171.436 592.334 Q165.626 592.334 162.547 587.751 Q159.491 583.144 159.491 574.418 Q159.491 565.668 162.547 561.084 Q165.626 556.478 171.436 556.478 Z" fill="#000000" fill-rule="nonzero" fill-opacity="1" /><path clip-path="url(#clip700)" d="M118.01 181.721 L125.649 181.721 L125.649 155.356 L117.339 157.022 L117.339 152.763 L125.603 151.096 L130.279 151.096 L130.279 181.721 L137.917 181.721 L137.917 185.656 L118.01 185.656 L118.01 181.721 Z" fill="#000000" fill-rule="nonzero" fill-opacity="1" /><path clip-path="url(#clip700)" d="M147.362 179.777 L152.246 179.777 L152.246 185.656 L147.362 185.656 L147.362 179.777 Z" fill="#000000" fill-rule="nonzero" fill-opacity="1" /><path clip-path="url(#clip700)" d="M162.477 151.096 L180.834 151.096 L180.834 155.032 L166.76 155.032 L166.76 163.504 Q167.778 163.157 168.797 162.995 Q169.815 162.809 170.834 162.809 Q176.621 162.809 180.001 165.981 Q183.38 169.152 183.38 174.569 Q183.38 180.147 179.908 183.249 Q176.436 186.328 170.116 186.328 Q167.94 186.328 165.672 185.957 Q163.427 185.587 161.019 184.846 L161.019 180.147 Q163.102 181.281 165.325 181.837 Q167.547 182.393 170.024 182.393 Q174.028 182.393 176.366 180.286 Q178.704 178.18 178.704 174.569 Q178.704 170.957 176.366 168.851 Q174.028 166.744 170.024 166.744 Q168.149 166.744 166.274 167.161 Q164.422 167.578 162.477 168.457 L162.477 151.096 Z" fill="#000000" fill-rule="nonzero" fill-opacity="1" /><path clip-path="url(#clip700)" d="M20.1444 820.225 L26.9239 820.225 Q23.9002 823.472 22.4043 827.164 Q20.9083 830.824 20.9083 834.962 Q20.9083 843.11 25.9054 847.439 Q30.8707 851.767 40.2919 851.767 Q49.6813 851.767 54.6784 847.439 Q59.6436 843.11 59.6436 834.962 Q59.6436 830.824 58.1477 827.164 Q56.6518 823.472 53.6281 820.225 L60.3439 820.225 Q62.6355 823.599 63.7814 827.387 Q64.9272 831.143 64.9272 835.344 Q64.9272 846.134 58.3387 852.34 Q51.7183 858.547 40.2919 858.547 Q28.8336 858.547 22.2451 852.34 Q15.6248 846.134 15.6248 835.344 Q15.6248 831.079 16.7706 827.323 Q17.8846 823.535 20.1444 820.225 Z" fill="#000000" fill-rule="nonzero" fill-opacity="1" /><path clip-path="url(#clip700)" d="M16.4842 816.883 L16.4842 776.684 L21.895 776.684 L21.895 793.553 L64.0042 793.553 L64.0042 800.014 L21.895 800.014 L21.895 816.883 L16.4842 816.883 Z" fill="#000000" fill-rule="nonzero" fill-opacity="1" /><path clip-path="url(#clip700)" d="M16.4842 770.477 L16.4842 761.82 L56.238 740.749 L16.4842 740.749 L16.4842 734.511 L64.0042 734.511 L64.0042 743.168 L24.2503 764.239 L64.0042 764.239 L64.0042 770.477 L16.4842 770.477 Z" fill="#000000" fill-rule="nonzero" fill-opacity="1" /><path clip-path="url(#clip700)" d="M16.4842 728.305 L16.4842 688.105 L21.895 688.105 L21.895 704.974 L64.0042 704.974 L64.0042 711.435 L21.895 711.435 L21.895 728.305 L16.4842 728.305 Z" fill="#000000" fill-rule="nonzero" fill-opacity="1" /><path clip-path="url(#clip700)" d="M1038.07 18.8205 L1038.07 41.5461 L1048.36 41.5461 Q1054.07 41.5461 1057.19 38.5889 Q1060.31 35.6318 1060.31 30.163 Q1060.31 24.7348 1057.19 21.7777 Q1054.07 18.8205 1048.36 18.8205 L1038.07 18.8205 M1029.89 12.096 L1048.36 12.096 Q1058.53 12.096 1063.71 16.714 Q1068.94 21.2916 1068.94 30.163 Q1068.94 39.1155 1063.71 43.6931 Q1058.53 48.2706 1048.36 48.2706 L1038.07 48.2706 L1038.07 72.576 L1029.89 72.576 L1029.89 12.096 Z" fill="#000000" fill-rule="nonzero" fill-opacity="1" /><path clip-path="url(#clip700)" d="M1096.49 49.7694 Q1087.45 49.7694 1083.97 51.8354 Q1080.48 53.9013 1080.48 58.8839 Q1080.48 62.8538 1083.08 65.2034 Q1085.71 67.5124 1090.21 67.5124 Q1096.4 67.5124 1100.13 63.1374 Q1103.9 58.7219 1103.9 51.4303 L1103.9 49.7694 L1096.49 49.7694 M1111.35 46.6907 L1111.35 72.576 L1103.9 72.576 L1103.9 65.6895 Q1101.35 69.8214 1097.54 71.8063 Q1093.73 73.7508 1088.22 73.7508 Q1081.25 73.7508 1077.12 69.8619 Q1073.03 65.9325 1073.03 59.3701 Q1073.03 51.7138 1078.14 47.825 Q1083.28 43.9361 1093.45 43.9361 L1103.9 43.9361 L1103.9 43.2069 Q1103.9 38.0623 1100.5 35.2672 Q1097.13 32.4315 1091.02 32.4315 Q1087.13 32.4315 1083.44 33.3632 Q1079.76 34.295 1076.35 36.1584 L1076.35 29.2718 Q1080.44 27.692 1084.29 26.9223 Q1088.14 26.1121 1091.79 26.1121 Q1101.63 26.1121 1106.49 31.2163 Q1111.35 36.3204 1111.35 46.6907 Z" fill="#000000" fill-rule="nonzero" fill-opacity="1" /><path clip-path="url(#clip700)" d="M1134.08 14.324 L1134.08 27.2059 L1149.43 27.2059 L1149.43 32.9987 L1134.08 32.9987 L1134.08 57.6282 Q1134.08 63.1779 1135.58 64.7578 Q1137.12 66.3376 1141.77 66.3376 L1149.43 66.3376 L1149.43 72.576 L1141.77 72.576 Q1133.15 72.576 1129.87 69.3758 Q1126.58 66.1351 1126.58 57.6282 L1126.58 32.9987 L1121.12 32.9987 L1121.12 27.2059 L1126.58 27.2059 L1126.58 14.324 L1134.08 14.324 Z" fill="#000000" fill-rule="nonzero" fill-opacity="1" /><path clip-path="url(#clip700)" d="M1159.23 27.2059 L1166.69 27.2059 L1166.69 72.576 L1159.23 72.576 L1159.23 27.2059 M1159.23 9.54393 L1166.69 9.54393 L1166.69 18.9825 L1159.23 18.9825 L1159.23 9.54393 Z" fill="#000000" fill-rule="nonzero" fill-opacity="1" /><path clip-path="url(#clip700)" d="M1221.09 48.0275 L1221.09 51.6733 L1186.82 51.6733 Q1187.31 59.3701 1191.44 63.421 Q1195.61 67.4314 1203.02 67.4314 Q1207.32 67.4314 1211.33 66.3781 Q1215.38 65.3249 1219.35 63.2184 L1219.35 70.267 Q1215.34 71.9684 1211.13 72.8596 Q1206.91 73.7508 1202.58 73.7508 Q1191.72 73.7508 1185.36 67.4314 Q1179.04 61.1119 1179.04 50.3365 Q1179.04 39.1965 1185.04 32.6746 Q1191.07 26.1121 1201.28 26.1121 Q1210.44 26.1121 1215.74 32.0264 Q1221.09 37.9003 1221.09 48.0275 M1213.64 45.84 Q1213.56 39.7232 1210.19 36.0774 Q1206.87 32.4315 1201.36 32.4315 Q1195.13 32.4315 1191.36 35.9558 Q1187.63 39.4801 1187.06 45.8805 L1213.64 45.84 Z" fill="#000000" fill-rule="nonzero" fill-opacity="1" /><path clip-path="url(#clip700)" d="M1271.04 45.1919 L1271.04 72.576 L1263.59 72.576 L1263.59 45.4349 Q1263.59 38.994 1261.07 35.7938 Q1258.56 32.5936 1253.54 32.5936 Q1247.5 32.5936 1244.02 36.4419 Q1240.54 40.2903 1240.54 46.9338 L1240.54 72.576 L1233.04 72.576 L1233.04 27.2059 L1240.54 27.2059 L1240.54 34.2544 Q1243.21 30.163 1246.81 28.1376 Q1250.46 26.1121 1255.2 26.1121 Q1263.02 26.1121 1267.03 30.9732 Q1271.04 35.7938 1271.04 45.1919 Z" fill="#000000" fill-rule="nonzero" fill-opacity="1" /><path clip-path="url(#clip700)" d="M1293.28 14.324 L1293.28 27.2059 L1308.63 27.2059 L1308.63 32.9987 L1293.28 32.9987 L1293.28 57.6282 Q1293.28 63.1779 1294.78 64.7578 Q1296.32 66.3376 1300.98 66.3376 L1308.63 66.3376 L1308.63 72.576 L1300.98 72.576 Q1292.35 72.576 1289.07 69.3758 Q1285.78 66.1351 1285.78 57.6282 L1285.78 32.9987 L1280.32 32.9987 L1280.32 27.2059 L1285.78 27.2059 L1285.78 14.324 L1293.28 14.324 Z" fill="#000000" fill-rule="nonzero" fill-opacity="1" /><path clip-path="url(#clip700)" d="M1382.52 45.1919 L1382.52 72.576 L1375.07 72.576 L1375.07 45.4349 Q1375.07 38.994 1372.55 35.7938 Q1370.04 32.5936 1365.02 32.5936 Q1358.98 32.5936 1355.5 36.4419 Q1352.02 40.2903 1352.02 46.9338 L1352.02 72.576 L1344.52 72.576 L1344.52 27.2059 L1352.02 27.2059 L1352.02 34.2544 Q1354.69 30.163 1358.3 28.1376 Q1361.94 26.1121 1366.68 26.1121 Q1374.5 26.1121 1378.51 30.9732 Q1382.52 35.7938 1382.52 45.1919 Z" fill="#000000" fill-rule="nonzero" fill-opacity="1" /><path clip-path="url(#clip700)" d="M1420.92 19.2256 L1400.26 51.5113 L1420.92 51.5113 L1420.92 19.2256 M1418.78 12.096 L1429.06 12.096 L1429.06 51.5113 L1437.69 51.5113 L1437.69 58.3168 L1429.06 58.3168 L1429.06 72.576 L1420.92 72.576 L1420.92 58.3168 L1393.62 58.3168 L1393.62 50.4176 L1418.78 12.096 Z" fill="#000000" fill-rule="nonzero" fill-opacity="1" /><path clip-path="url(#clip700)" d="M1452.64 65.6895 L1466.01 65.6895 L1466.01 19.5497 L1451.47 22.4663 L1451.47 15.0127 L1465.93 12.096 L1474.11 12.096 L1474.11 65.6895 L1487.48 65.6895 L1487.48 72.576 L1452.64 72.576 L1452.64 65.6895 Z" fill="#000000" fill-rule="nonzero" fill-opacity="1" /><path clip-path="url(#clip700)" d="M1521.51 43.8551 Q1515.67 43.8551 1512.31 46.9743 Q1508.99 50.0935 1508.99 55.5622 Q1508.99 61.0309 1512.31 64.1501 Q1515.67 67.2693 1521.51 67.2693 Q1527.34 67.2693 1530.7 64.1501 Q1534.06 60.9904 1534.06 55.5622 Q1534.06 50.0935 1530.7 46.9743 Q1527.38 43.8551 1521.51 43.8551 M1513.32 40.3713 Q1508.06 39.075 1505.1 35.4697 Q1502.18 31.8644 1502.18 26.6793 Q1502.18 19.4281 1507.33 15.2152 Q1512.51 11.0023 1521.51 11.0023 Q1530.54 11.0023 1535.68 15.2152 Q1540.83 19.4281 1540.83 26.6793 Q1540.83 31.8644 1537.87 35.4697 Q1534.96 39.075 1529.73 40.3713 Q1535.64 41.7486 1538.93 45.759 Q1542.25 49.7694 1542.25 55.5622 Q1542.25 64.3527 1536.86 69.0517 Q1531.51 73.7508 1521.51 73.7508 Q1511.5 73.7508 1506.11 69.0517 Q1500.77 64.3527 1500.77 55.5622 Q1500.77 49.7694 1504.09 45.759 Q1507.41 41.7486 1513.32 40.3713 M1510.33 27.4489 Q1510.33 32.148 1513.24 34.7811 Q1516.2 37.4142 1521.51 37.4142 Q1526.77 37.4142 1529.73 34.7811 Q1532.73 32.148 1532.73 27.4489 Q1532.73 22.7499 1529.73 20.1168 Q1526.77 17.4837 1521.51 17.4837 Q1516.2 17.4837 1513.24 20.1168 Q1510.33 22.7499 1510.33 27.4489 Z" fill="#000000" fill-rule="nonzero" fill-opacity="1" /><polyline clip-path="url(#clip702)" style="stroke:#009af9; stroke-linecap:round; stroke-linejoin:round; stroke-width:8; stroke-opacity:1; fill:none" points="279.759,1386.4 319.222,1286.31 358.685,1195.04 398.148,1111.93 437.611,1036.36 477.074,967.773 516.537,905.625 556,849.431 595.464,798.737 634.927,753.121 674.39,712.193 713.853,675.59 753.316,642.979 792.779,614.049 832.242,588.511 871.705,566.097 911.168,546.56 950.632,529.674 990.095,515.226 1029.56,503.02 1069.02,492.874 1108.48,484.616 1147.95,478.091 1187.41,473.156 1226.87,469.68 1266.34,467.54 1305.8,466.62 1345.26,466.812 1384.73,468.019 1424.19,470.147 1463.65,473.114 1503.12,476.846 1542.58,481.273 1582.04,486.328 1621.5,491.949 1660.97,498.08 1700.43,504.666 1739.89,511.658 1779.36,519.011 1818.82,526.688 1858.28,534.651 1897.75,542.868 1937.21,551.307 1976.67,559.938 2016.14,568.732 2055.6,577.664 2095.06,586.711 2134.52,595.849 2173.99,605.061 2213.45,614.331 2252.91,623.643 2292.38,628.154 "/>
<circle clip-path="url(#clip702)" cx="647.423" cy="923.548" r="18" fill="#e26f46" fill-rule="evenodd" fill-opacity="1" stroke="#000000" stroke-opacity="1" stroke-width="3.2"/>
<circle clip-path="url(#clip702)" cx="846.054" cy="160.256" r="18" fill="#e26f46" fill-rule="evenodd" fill-opacity="1" stroke="#000000" stroke-opacity="1" stroke-width="3.2"/>
<circle clip-path="url(#clip702)" cx="1155.18" cy="282.058" r="18" fill="#e26f46" fill-rule="evenodd" fill-opacity="1" stroke="#000000" stroke-opacity="1" stroke-width="3.2"/>
<circle clip-path="url(#clip702)" cx="1806.98" cy="712.425" r="18" fill="#e26f46" fill-rule="evenodd" fill-opacity="1" stroke="#000000" stroke-opacity="1" stroke-width="3.2"/>
<circle clip-path="url(#clip702)" cx="2232.52" cy="590.623" r="18" fill="#e26f46" fill-rule="evenodd" fill-opacity="1" stroke="#000000" stroke-opacity="1" stroke-width="3.2"/>
<path clip-path="url(#clip700)" d="M1684.07 322.316 L2281.64 322.316 L2281.64 166.796 L1684.07 166.796  Z" fill="#ffffff" fill-rule="evenodd" fill-opacity="1"/>
<polyline clip-path="url(#clip700)" style="stroke:#000000; stroke-linecap:round; stroke-linejoin:round; stroke-width:4; stroke-opacity:1; fill:none" points="1684.07,322.316 2281.64,322.316 2281.64,166.796 1684.07,166.796 1684.07,322.316 "/>
<polyline clip-path="url(#clip700)" style="stroke:#009af9; stroke-linecap:round; stroke-linejoin:round; stroke-width:8; stroke-opacity:1; fill:none" points="1707.78,218.636 1850,218.636 "/>
<path clip-path="url(#clip700)" d="M1873.71 201.356 L1880.67 201.356 L1889.49 224.874 L1898.36 201.356 L1905.33 201.356 L1905.33 235.916 L1900.77 235.916 L1900.77 205.569 L1891.85 229.272 L1887.15 229.272 L1878.24 205.569 L1878.24 235.916 L1873.71 235.916 L1873.71 201.356 Z" fill="#000000" fill-rule="nonzero" fill-opacity="1" /><path clip-path="url(#clip700)" d="M1924.47 212.976 Q1921.04 212.976 1919.05 215.661 Q1917.06 218.323 1917.06 222.976 Q1917.06 227.629 1919.03 230.314 Q1921.02 232.976 1924.47 232.976 Q1927.87 232.976 1929.86 230.291 Q1931.85 227.606 1931.85 222.976 Q1931.85 218.37 1929.86 215.684 Q1927.87 212.976 1924.47 212.976 M1924.47 209.365 Q1930.02 209.365 1933.2 212.976 Q1936.37 216.587 1936.37 222.976 Q1936.37 229.342 1933.2 232.976 Q1930.02 236.587 1924.47 236.587 Q1918.89 236.587 1915.72 232.976 Q1912.57 229.342 1912.57 222.976 Q1912.57 216.587 1915.72 212.976 Q1918.89 209.365 1924.47 209.365 Z" fill="#000000" fill-rule="nonzero" fill-opacity="1" /><path clip-path="url(#clip700)" d="M1960.49 213.925 L1960.49 199.897 L1964.75 199.897 L1964.75 235.916 L1960.49 235.916 L1960.49 232.027 Q1959.14 234.342 1957.08 235.476 Q1955.05 236.587 1952.18 236.587 Q1947.48 236.587 1944.51 232.837 Q1941.58 229.087 1941.58 222.976 Q1941.58 216.865 1944.51 213.115 Q1947.48 209.365 1952.18 209.365 Q1955.05 209.365 1957.08 210.499 Q1959.14 211.61 1960.49 213.925 M1945.97 222.976 Q1945.97 227.675 1947.89 230.36 Q1949.84 233.022 1953.22 233.022 Q1956.6 233.022 1958.54 230.36 Q1960.49 227.675 1960.49 222.976 Q1960.49 218.277 1958.54 215.615 Q1956.6 212.93 1953.22 212.93 Q1949.84 212.93 1947.89 215.615 Q1945.97 218.277 1945.97 222.976 Z" fill="#000000" fill-rule="nonzero" fill-opacity="1" /><path clip-path="url(#clip700)" d="M1995.7 221.888 L1995.7 223.971 L1976.11 223.971 Q1976.39 228.369 1978.75 230.684 Q1981.14 232.976 1985.37 232.976 Q1987.82 232.976 1990.12 232.374 Q1992.43 231.772 1994.7 230.569 L1994.7 234.596 Q1992.41 235.568 1990 236.078 Q1987.59 236.587 1985.12 236.587 Q1978.91 236.587 1975.28 232.976 Q1971.67 229.365 1971.67 223.207 Q1971.67 216.842 1975.09 213.115 Q1978.54 209.365 1984.38 209.365 Q1989.61 209.365 1992.64 212.745 Q1995.7 216.101 1995.7 221.888 M1991.44 220.638 Q1991.39 217.143 1989.47 215.059 Q1987.57 212.976 1984.42 212.976 Q1980.86 212.976 1978.7 214.99 Q1976.57 217.004 1976.25 220.661 L1991.44 220.638 Z" fill="#000000" fill-rule="nonzero" fill-opacity="1" /><path clip-path="url(#clip700)" d="M2002.69 199.897 L2006.95 199.897 L2006.95 235.916 L2002.69 235.916 L2002.69 199.897 Z" fill="#000000" fill-rule="nonzero" fill-opacity="1" /><path clip-path="url(#clip700)" d="M2035.79 205.198 L2035.79 218.184 L2041.67 218.184 Q2044.93 218.184 2046.71 216.495 Q2048.5 214.805 2048.5 211.68 Q2048.5 208.578 2046.71 206.888 Q2044.93 205.198 2041.67 205.198 L2035.79 205.198 M2031.11 201.356 L2041.67 201.356 Q2047.48 201.356 2050.44 203.995 Q2053.43 206.61 2053.43 211.68 Q2053.43 216.795 2050.44 219.411 Q2047.48 222.027 2041.67 222.027 L2035.79 222.027 L2035.79 235.916 L2031.11 235.916 L2031.11 201.356 Z" fill="#000000" fill-rule="nonzero" fill-opacity="1" /><path clip-path="url(#clip700)" d="M2073.7 213.971 Q2072.99 213.555 2072.13 213.37 Q2071.3 213.161 2070.28 213.161 Q2066.67 213.161 2064.72 215.522 Q2062.8 217.86 2062.8 222.258 L2062.8 235.916 L2058.52 235.916 L2058.52 209.99 L2062.8 209.99 L2062.8 214.018 Q2064.14 211.657 2066.3 210.522 Q2068.45 209.365 2071.53 209.365 Q2071.97 209.365 2072.5 209.434 Q2073.03 209.481 2073.68 209.596 L2073.7 213.971 Z" fill="#000000" fill-rule="nonzero" fill-opacity="1" /><path clip-path="url(#clip700)" d="M2099.31 221.888 L2099.31 223.971 L2079.72 223.971 Q2080 228.369 2082.36 230.684 Q2084.75 232.976 2088.98 232.976 Q2091.44 232.976 2093.73 232.374 Q2096.04 231.772 2098.31 230.569 L2098.31 234.596 Q2096.02 235.568 2093.61 236.078 Q2091.2 236.587 2088.73 236.587 Q2082.52 236.587 2078.89 232.976 Q2075.28 229.365 2075.28 223.207 Q2075.28 216.842 2078.7 213.115 Q2082.15 209.365 2087.99 209.365 Q2093.22 209.365 2096.25 212.745 Q2099.31 216.101 2099.31 221.888 M2095.05 220.638 Q2095 217.143 2093.08 215.059 Q2091.18 212.976 2088.03 212.976 Q2084.47 212.976 2082.32 214.99 Q2080.19 217.004 2079.86 220.661 L2095.05 220.638 Z" fill="#000000" fill-rule="nonzero" fill-opacity="1" /><path clip-path="url(#clip700)" d="M2123.36 213.925 L2123.36 199.897 L2127.62 199.897 L2127.62 235.916 L2123.36 235.916 L2123.36 232.027 Q2122.01 234.342 2119.95 235.476 Q2117.92 236.587 2115.05 236.587 Q2110.35 236.587 2107.38 232.837 Q2104.44 229.087 2104.44 222.976 Q2104.44 216.865 2107.38 213.115 Q2110.35 209.365 2115.05 209.365 Q2117.92 209.365 2119.95 210.499 Q2122.01 211.61 2123.36 213.925 M2108.84 222.976 Q2108.84 227.675 2110.76 230.36 Q2112.71 233.022 2116.09 233.022 Q2119.47 233.022 2121.41 230.36 Q2123.36 227.675 2123.36 222.976 Q2123.36 218.277 2121.41 215.615 Q2119.47 212.93 2116.09 212.93 Q2112.71 212.93 2110.76 215.615 Q2108.84 218.277 2108.84 222.976 Z" fill="#000000" fill-rule="nonzero" fill-opacity="1" /><path clip-path="url(#clip700)" d="M2136.39 209.99 L2140.65 209.99 L2140.65 235.916 L2136.39 235.916 L2136.39 209.99 M2136.39 199.897 L2140.65 199.897 L2140.65 205.291 L2136.39 205.291 L2136.39 199.897 Z" fill="#000000" fill-rule="nonzero" fill-opacity="1" /><path clip-path="url(#clip700)" d="M2168.22 210.985 L2168.22 214.967 Q2166.41 213.971 2164.58 213.485 Q2162.78 212.976 2160.93 212.976 Q2156.78 212.976 2154.49 215.615 Q2152.2 218.231 2152.2 222.976 Q2152.2 227.721 2154.49 230.36 Q2156.78 232.976 2160.93 232.976 Q2162.78 232.976 2164.58 232.49 Q2166.41 231.981 2168.22 230.985 L2168.22 234.92 Q2166.44 235.754 2164.51 236.17 Q2162.62 236.587 2160.46 236.587 Q2154.61 236.587 2151.16 232.906 Q2147.71 229.226 2147.71 222.976 Q2147.71 216.633 2151.18 212.999 Q2154.68 209.365 2160.74 209.365 Q2162.71 209.365 2164.58 209.782 Q2166.46 210.175 2168.22 210.985 Z" fill="#000000" fill-rule="nonzero" fill-opacity="1" /><path clip-path="url(#clip700)" d="M2179.84 202.629 L2179.84 209.99 L2188.61 209.99 L2188.61 213.3 L2179.84 213.3 L2179.84 227.374 Q2179.84 230.545 2180.69 231.448 Q2181.57 232.351 2184.24 232.351 L2188.61 232.351 L2188.61 235.916 L2184.24 235.916 Q2179.31 235.916 2177.43 234.087 Q2175.56 232.235 2175.56 227.374 L2175.56 213.3 L2172.43 213.3 L2172.43 209.99 L2175.56 209.99 L2175.56 202.629 L2179.84 202.629 Z" fill="#000000" fill-rule="nonzero" fill-opacity="1" /><path clip-path="url(#clip700)" d="M2194.21 209.99 L2198.47 209.99 L2198.47 235.916 L2194.21 235.916 L2194.21 209.99 M2194.21 199.897 L2198.47 199.897 L2198.47 205.291 L2194.21 205.291 L2194.21 199.897 Z" fill="#000000" fill-rule="nonzero" fill-opacity="1" /><path clip-path="url(#clip700)" d="M2217.43 212.976 Q2214 212.976 2212.01 215.661 Q2210.02 218.323 2210.02 222.976 Q2210.02 227.629 2211.99 230.314 Q2213.98 232.976 2217.43 232.976 Q2220.83 232.976 2222.82 230.291 Q2224.81 227.606 2224.81 222.976 Q2224.81 218.37 2222.82 215.684 Q2220.83 212.976 2217.43 212.976 M2217.43 209.365 Q2222.99 209.365 2226.16 212.976 Q2229.33 216.587 2229.33 222.976 Q2229.33 229.342 2226.16 232.976 Q2222.99 236.587 2217.43 236.587 Q2211.85 236.587 2208.68 232.976 Q2205.53 229.342 2205.53 222.976 Q2205.53 216.587 2208.68 212.976 Q2211.85 209.365 2217.43 209.365 Z" fill="#000000" fill-rule="nonzero" fill-opacity="1" /><path clip-path="url(#clip700)" d="M2257.94 220.268 L2257.94 235.916 L2253.68 235.916 L2253.68 220.407 Q2253.68 216.726 2252.24 214.897 Q2250.81 213.069 2247.94 213.069 Q2244.49 213.069 2242.5 215.268 Q2240.51 217.467 2240.51 221.263 L2240.51 235.916 L2236.23 235.916 L2236.23 209.99 L2240.51 209.99 L2240.51 214.018 Q2242.04 211.68 2244.1 210.522 Q2246.18 209.365 2248.89 209.365 Q2253.36 209.365 2255.65 212.143 Q2257.94 214.897 2257.94 220.268 Z" fill="#000000" fill-rule="nonzero" fill-opacity="1" /><circle clip-path="url(#clip700)" cx="1778.89" cy="270.476" r="20.9455" fill="#e26f46" fill-rule="evenodd" fill-opacity="1" stroke="#000000" stroke-opacity="1" stroke-width="3.72364"/>
<path clip-path="url(#clip700)" d="M1889.72 256.367 Q1884.63 256.367 1881.62 260.163 Q1878.64 263.96 1878.64 270.51 Q1878.64 277.038 1881.62 280.834 Q1884.63 284.631 1889.72 284.631 Q1894.82 284.631 1897.78 280.834 Q1900.77 277.038 1900.77 270.51 Q1900.77 263.96 1897.78 260.163 Q1894.82 256.367 1889.72 256.367 M1889.72 252.571 Q1896.99 252.571 1901.34 257.455 Q1905.7 262.316 1905.7 270.51 Q1905.7 278.682 1901.34 283.566 Q1896.99 288.427 1889.72 288.427 Q1882.43 288.427 1878.06 283.566 Q1873.71 278.705 1873.71 270.51 Q1873.71 262.316 1878.06 257.455 Q1882.43 252.571 1889.72 252.571 Z" fill="#000000" fill-rule="nonzero" fill-opacity="1" /><path clip-path="url(#clip700)" d="M1931.44 274.816 Q1931.44 270.117 1929.49 267.455 Q1927.57 264.77 1924.19 264.77 Q1920.81 264.77 1918.87 267.455 Q1916.95 270.117 1916.95 274.816 Q1916.95 279.515 1918.87 282.2 Q1920.81 284.862 1924.19 284.862 Q1927.57 284.862 1929.49 282.2 Q1931.44 279.515 1931.44 274.816 M1916.95 265.765 Q1918.29 263.45 1920.33 262.339 Q1922.39 261.205 1925.23 261.205 Q1929.95 261.205 1932.89 264.955 Q1935.86 268.705 1935.86 274.816 Q1935.86 280.927 1932.89 284.677 Q1929.95 288.427 1925.23 288.427 Q1922.39 288.427 1920.33 287.316 Q1918.29 286.182 1916.95 283.867 L1916.95 287.756 L1912.66 287.756 L1912.66 251.737 L1916.95 251.737 L1916.95 265.765 Z" fill="#000000" fill-rule="nonzero" fill-opacity="1" /><path clip-path="url(#clip700)" d="M1959.45 262.594 L1959.45 266.622 Q1957.64 265.696 1955.7 265.233 Q1953.75 264.77 1951.67 264.77 Q1948.5 264.77 1946.9 265.742 Q1945.33 266.714 1945.33 268.659 Q1945.33 270.14 1946.46 270.997 Q1947.59 271.83 1951.02 272.594 L1952.48 272.918 Q1957.01 273.89 1958.91 275.672 Q1960.83 277.432 1960.83 280.603 Q1960.83 284.214 1957.96 286.321 Q1955.12 288.427 1950.12 288.427 Q1948.03 288.427 1945.76 288.01 Q1943.52 287.617 1941.02 286.807 L1941.02 282.409 Q1943.38 283.635 1945.67 284.26 Q1947.96 284.862 1950.21 284.862 Q1953.22 284.862 1954.84 283.844 Q1956.46 282.802 1956.46 280.927 Q1956.46 279.191 1955.28 278.265 Q1954.12 277.339 1950.16 276.483 L1948.68 276.135 Q1944.72 275.302 1942.96 273.589 Q1941.2 271.853 1941.2 268.844 Q1941.2 265.186 1943.8 263.196 Q1946.39 261.205 1951.16 261.205 Q1953.52 261.205 1955.6 261.552 Q1957.69 261.899 1959.45 262.594 Z" fill="#000000" fill-rule="nonzero" fill-opacity="1" /><path clip-path="url(#clip700)" d="M1989.79 273.728 L1989.79 275.811 L1970.21 275.811 Q1970.49 280.209 1972.85 282.524 Q1975.23 284.816 1979.47 284.816 Q1981.92 284.816 1984.21 284.214 Q1986.53 283.612 1988.8 282.409 L1988.8 286.436 Q1986.51 287.408 1984.1 287.918 Q1981.69 288.427 1979.21 288.427 Q1973.01 288.427 1969.38 284.816 Q1965.76 281.205 1965.76 275.047 Q1965.76 268.682 1969.19 264.955 Q1972.64 261.205 1978.47 261.205 Q1983.7 261.205 1986.74 264.585 Q1989.79 267.941 1989.79 273.728 M1985.53 272.478 Q1985.49 268.983 1983.57 266.899 Q1981.67 264.816 1978.52 264.816 Q1974.95 264.816 1972.8 266.83 Q1970.67 268.844 1970.35 272.501 L1985.53 272.478 Z" fill="#000000" fill-rule="nonzero" fill-opacity="1" /><path clip-path="url(#clip700)" d="M2011.81 265.811 Q2011.09 265.395 2010.23 265.21 Q2009.4 265.001 2008.38 265.001 Q2004.77 265.001 2002.82 267.362 Q2000.9 269.7 2000.9 274.098 L2000.9 287.756 L1996.62 287.756 L1996.62 261.83 L2000.9 261.83 L2000.9 265.858 Q2002.25 263.497 2004.4 262.362 Q2006.55 261.205 2009.63 261.205 Q2010.07 261.205 2010.6 261.274 Q2011.13 261.321 2011.78 261.436 L2011.81 265.811 Z" fill="#000000" fill-rule="nonzero" fill-opacity="1" /><path clip-path="url(#clip700)" d="M2013.22 261.83 L2017.73 261.83 L2025.83 283.589 L2033.94 261.83 L2038.45 261.83 L2028.73 287.756 L2022.94 287.756 L2013.22 261.83 Z" fill="#000000" fill-rule="nonzero" fill-opacity="1" /><path clip-path="url(#clip700)" d="M2066.51 273.728 L2066.51 275.811 L2046.92 275.811 Q2047.2 280.209 2049.56 282.524 Q2051.94 284.816 2056.18 284.816 Q2058.63 284.816 2060.93 284.214 Q2063.24 283.612 2065.51 282.409 L2065.51 286.436 Q2063.22 287.408 2060.81 287.918 Q2058.4 288.427 2055.93 288.427 Q2049.72 288.427 2046.09 284.816 Q2042.48 281.205 2042.48 275.047 Q2042.48 268.682 2045.9 264.955 Q2049.35 261.205 2055.19 261.205 Q2060.42 261.205 2063.45 264.585 Q2066.51 267.941 2066.51 273.728 M2062.25 272.478 Q2062.2 268.983 2060.28 266.899 Q2058.38 264.816 2055.23 264.816 Q2051.67 264.816 2049.51 266.83 Q2047.38 268.844 2047.06 272.501 L2062.25 272.478 Z" fill="#000000" fill-rule="nonzero" fill-opacity="1" /><path clip-path="url(#clip700)" d="M2090.56 265.765 L2090.56 251.737 L2094.82 251.737 L2094.82 287.756 L2090.56 287.756 L2090.56 283.867 Q2089.21 286.182 2087.15 287.316 Q2085.12 288.427 2082.25 288.427 Q2077.55 288.427 2074.58 284.677 Q2071.64 280.927 2071.64 274.816 Q2071.64 268.705 2074.58 264.955 Q2077.55 261.205 2082.25 261.205 Q2085.12 261.205 2087.15 262.339 Q2089.21 263.45 2090.56 265.765 M2076.04 274.816 Q2076.04 279.515 2077.96 282.2 Q2079.91 284.862 2083.29 284.862 Q2086.67 284.862 2088.61 282.2 Q2090.56 279.515 2090.56 274.816 Q2090.56 270.117 2088.61 267.455 Q2086.67 264.77 2083.29 264.77 Q2079.91 264.77 2077.96 267.455 Q2076.04 270.117 2076.04 274.816 Z" fill="#000000" fill-rule="nonzero" fill-opacity="1" /><path clip-path="url(#clip700)" d="M2123.52 257.038 L2123.52 283.913 L2129.17 283.913 Q2136.32 283.913 2139.63 280.672 Q2142.96 277.432 2142.96 270.441 Q2142.96 263.497 2139.63 260.279 Q2136.32 257.038 2129.17 257.038 L2123.52 257.038 M2118.84 253.196 L2128.45 253.196 Q2138.5 253.196 2143.19 257.386 Q2147.89 261.552 2147.89 270.441 Q2147.89 279.376 2143.17 283.566 Q2138.45 287.756 2128.45 287.756 L2118.84 287.756 L2118.84 253.196 Z" fill="#000000" fill-rule="nonzero" fill-opacity="1" /><path clip-path="url(#clip700)" d="M2166.94 274.723 Q2161.78 274.723 2159.79 275.904 Q2157.8 277.084 2157.8 279.932 Q2157.8 282.2 2159.28 283.543 Q2160.79 284.862 2163.36 284.862 Q2166.9 284.862 2169.03 282.362 Q2171.18 279.839 2171.18 275.672 L2171.18 274.723 L2166.94 274.723 M2175.44 272.964 L2175.44 287.756 L2171.18 287.756 L2171.18 283.821 Q2169.72 286.182 2167.55 287.316 Q2165.37 288.427 2162.22 288.427 Q2158.24 288.427 2155.88 286.205 Q2153.54 283.959 2153.54 280.209 Q2153.54 275.834 2156.46 273.612 Q2159.4 271.39 2165.21 271.39 L2171.18 271.39 L2171.18 270.973 Q2171.18 268.034 2169.24 266.436 Q2167.31 264.816 2163.82 264.816 Q2161.6 264.816 2159.49 265.348 Q2157.38 265.881 2155.44 266.946 L2155.44 263.01 Q2157.78 262.108 2159.98 261.668 Q2162.18 261.205 2164.26 261.205 Q2169.88 261.205 2172.66 264.122 Q2175.44 267.038 2175.44 272.964 Z" fill="#000000" fill-rule="nonzero" fill-opacity="1" /><path clip-path="url(#clip700)" d="M2188.43 254.469 L2188.43 261.83 L2197.2 261.83 L2197.2 265.14 L2188.43 265.14 L2188.43 279.214 Q2188.43 282.385 2189.28 283.288 Q2190.16 284.191 2192.82 284.191 L2197.2 284.191 L2197.2 287.756 L2192.82 287.756 Q2187.89 287.756 2186.02 285.927 Q2184.14 284.075 2184.14 279.214 L2184.14 265.14 L2181.02 265.14 L2181.02 261.83 L2184.14 261.83 L2184.14 254.469 L2188.43 254.469 Z" fill="#000000" fill-rule="nonzero" fill-opacity="1" /><path clip-path="url(#clip700)" d="M2214.58 274.723 Q2209.42 274.723 2207.43 275.904 Q2205.44 277.084 2205.44 279.932 Q2205.44 282.2 2206.92 283.543 Q2208.43 284.862 2211 284.862 Q2214.54 284.862 2216.67 282.362 Q2218.82 279.839 2218.82 275.672 L2218.82 274.723 L2214.58 274.723 M2223.08 272.964 L2223.08 287.756 L2218.82 287.756 L2218.82 283.821 Q2217.36 286.182 2215.18 287.316 Q2213.01 288.427 2209.86 288.427 Q2205.88 288.427 2203.52 286.205 Q2201.18 283.959 2201.18 280.209 Q2201.18 275.834 2204.1 273.612 Q2207.04 271.39 2212.85 271.39 L2218.82 271.39 L2218.82 270.973 Q2218.82 268.034 2216.87 266.436 Q2214.95 264.816 2211.46 264.816 Q2209.24 264.816 2207.13 265.348 Q2205.02 265.881 2203.08 266.946 L2203.08 263.01 Q2205.42 262.108 2207.62 261.668 Q2209.81 261.205 2211.9 261.205 Q2217.52 261.205 2220.3 264.122 Q2223.08 267.038 2223.08 272.964 Z" fill="#000000" fill-rule="nonzero" fill-opacity="1" /></svg>
