<?xml version="1.0" encoding="utf-8"?>
<svg xmlns="http://www.w3.org/2000/svg" xmlns:xlink="http://www.w3.org/1999/xlink" width="600" height="400" viewBox="0 0 2400 1600">
<defs>
  <clipPath id="clip080">
    <rect x="0" y="0" width="2400" height="1600"/>
  </clipPath>
</defs>
<path clip-path="url(#clip080)" d="M0 1600 L2400 1600 L2400 0 L0 0  Z" fill="#ffffff" fill-rule="evenodd" fill-opacity="1"/>
<defs>
  <clipPath id="clip081">
    <rect x="480" y="0" width="1681" height="1600"/>
  </clipPath>
</defs>
<path clip-path="url(#clip080)" d="M219.866 1423.18 L2352.76 1423.18 L2352.76 123.472 L219.866 123.472  Z" fill="#ffffff" fill-rule="evenodd" fill-opacity="1"/>
<defs>
  <clipPath id="clip082">
    <rect x="219" y="123" width="2134" height="1301"/>
  </clipPath>
</defs>
<polyline clip-path="url(#clip082)" style="stroke:#000000; stroke-linecap:round; stroke-linejoin:round; stroke-width:2; stroke-opacity:0.1; fill:none" points="254.761,1423.18 254.761,123.472 "/>
<polyline clip-path="url(#clip082)" style="stroke:#000000; stroke-linecap:round; stroke-linejoin:round; stroke-width:2; stroke-opacity:0.1; fill:none" points="764.168,1423.18 764.168,123.472 "/>
<polyline clip-path="url(#clip082)" style="stroke:#000000; stroke-linecap:round; stroke-linejoin:round; stroke-width:2; stroke-opacity:0.1; fill:none" points="1273.58,1423.18 1273.58,123.472 "/>
<polyline clip-path="url(#clip082)" style="stroke:#000000; stroke-linecap:round; stroke-linejoin:round; stroke-width:2; stroke-opacity:0.1; fill:none" points="1782.98,1423.18 1782.98,123.472 "/>
<polyline clip-path="url(#clip082)" style="stroke:#000000; stroke-linecap:round; stroke-linejoin:round; stroke-width:2; stroke-opacity:0.1; fill:none" points="2292.39,1423.18 2292.39,123.472 "/>
<polyline clip-path="url(#clip082)" style="stroke:#000000; stroke-linecap:round; stroke-linejoin:round; stroke-width:2; stroke-opacity:0.1; fill:none" points="219.866,1386.4 2352.76,1386.4 "/>
<polyline clip-path="url(#clip082)" style="stroke:#000000; stroke-linecap:round; stroke-linejoin:round; stroke-width:2; stroke-opacity:0.1; fill:none" points="219.866,1191.77 2352.76,1191.77 "/>
<polyline clip-path="url(#clip082)" style="stroke:#000000; stroke-linecap:round; stroke-linejoin:round; stroke-width:2; stroke-opacity:0.1; fill:none" points="219.866,997.145 2352.76,997.145 "/>
<polyline clip-path="url(#clip082)" style="stroke:#000000; stroke-linecap:round; stroke-linejoin:round; stroke-width:2; stroke-opacity:0.1; fill:none" points="219.866,802.52 2352.76,802.52 "/>
<polyline clip-path="url(#clip082)" style="stroke:#000000; stroke-linecap:round; stroke-linejoin:round; stroke-width:2; stroke-opacity:0.1; fill:none" points="219.866,607.894 2352.76,607.894 "/>
<polyline clip-path="url(#clip082)" style="stroke:#000000; stroke-linecap:round; stroke-linejoin:round; stroke-width:2; stroke-opacity:0.1; fill:none" points="219.866,413.269 2352.76,413.269 "/>
<polyline clip-path="url(#clip082)" style="stroke:#000000; stroke-linecap:round; stroke-linejoin:round; stroke-width:2; stroke-opacity:0.1; fill:none" points="219.866,218.644 2352.76,218.644 "/>
<polyline clip-path="url(#clip080)" style="stroke:#000000; stroke-linecap:round; stroke-linejoin:round; stroke-width:4; stroke-opacity:1; fill:none" points="219.866,1423.18 2352.76,1423.18 "/>
<polyline clip-path="url(#clip080)" style="stroke:#000000; stroke-linecap:round; stroke-linejoin:round; stroke-width:4; stroke-opacity:1; fill:none" points="254.761,1423.18 254.761,1404.28 "/>
<polyline clip-path="url(#clip080)" style="stroke:#000000; stroke-linecap:round; stroke-linejoin:round; stroke-width:4; stroke-opacity:1; fill:none" points="764.168,1423.18 764.168,1404.28 "/>
<polyline clip-path="url(#clip080)" style="stroke:#000000; stroke-linecap:round; stroke-linejoin:round; stroke-width:4; stroke-opacity:1; fill:none" points="1273.58,1423.18 1273.58,1404.28 "/>
<polyline clip-path="url(#clip080)" style="stroke:#000000; stroke-linecap:round; stroke-linejoin:round; stroke-width:4; stroke-opacity:1; fill:none" points="1782.98,1423.18 1782.98,1404.28 "/>
<polyline clip-path="url(#clip080)" style="stroke:#000000; stroke-linecap:round; stroke-linejoin:round; stroke-width:4; stroke-opacity:1; fill:none" points="2292.39,1423.18 2292.39,1404.28 "/>
<path clip-path="url(#clip080)" d="M254.761 1454.1 Q251.15 1454.1 249.321 1457.66 Q247.515 1461.2 247.515 1468.33 Q247.515 1475.44 249.321 1479.01 Q251.15 1482.55 254.761 1482.55 Q258.395 1482.55 260.2 1479.01 Q262.029 1475.44 262.029 1468.33 Q262.029 1461.2 260.2 1457.66 Q258.395 1454.1 254.761 1454.1 M254.761 1450.39 Q260.571 1450.39 263.626 1455 Q266.705 1459.58 266.705 1468.33 Q266.705 1477.06 263.626 1481.67 Q260.571 1486.25 254.761 1486.25 Q248.951 1486.25 245.872 1481.67 Q242.816 1477.06 242.816 1468.33 Q242.816 1459.58 245.872 1455 Q248.951 1450.39 254.761 1450.39 Z" fill="#000000" fill-rule="nonzero" fill-opacity="1" /><path clip-path="url(#clip080)" d="M742.942 1481.64 L759.261 1481.64 L759.261 1485.58 L737.317 1485.58 L737.317 1481.64 Q739.979 1478.89 744.562 1474.26 Q749.168 1469.61 750.349 1468.27 Q752.594 1465.74 753.474 1464.01 Q754.377 1462.25 754.377 1460.56 Q754.377 1457.8 752.432 1456.07 Q750.511 1454.33 747.409 1454.33 Q745.21 1454.33 742.756 1455.09 Q740.326 1455.86 737.548 1457.41 L737.548 1452.69 Q740.372 1451.55 742.826 1450.97 Q745.28 1450.39 747.317 1450.39 Q752.687 1450.39 755.881 1453.08 Q759.076 1455.77 759.076 1460.26 Q759.076 1462.39 758.266 1464.31 Q757.479 1466.2 755.372 1468.8 Q754.793 1469.47 751.692 1472.69 Q748.59 1475.88 742.942 1481.64 Z" fill="#000000" fill-rule="nonzero" fill-opacity="1" /><path clip-path="url(#clip080)" d="M779.076 1454.1 Q775.465 1454.1 773.636 1457.66 Q771.83 1461.2 771.83 1468.33 Q771.83 1475.44 773.636 1479.01 Q775.465 1482.55 779.076 1482.55 Q782.71 1482.55 784.515 1479.01 Q786.344 1475.44 786.344 1468.33 Q786.344 1461.2 784.515 1457.66 Q782.71 1454.1 779.076 1454.1 M779.076 1450.39 Q784.886 1450.39 787.941 1455 Q791.02 1459.58 791.02 1468.33 Q791.02 1477.06 787.941 1481.67 Q784.886 1486.25 779.076 1486.25 Q773.265 1486.25 770.187 1481.67 Q767.131 1477.06 767.131 1468.33 Q767.131 1459.58 770.187 1455 Q773.265 1450.39 779.076 1450.39 Z" fill="#000000" fill-rule="nonzero" fill-opacity="1" /><path clip-path="url(#clip080)" d="M1261.75 1455.09 L1249.94 1473.54 L1261.75 1473.54 L1261.75 1455.09 M1260.52 1451.02 L1266.4 1451.02 L1266.4 1473.54 L1271.33 1473.54 L1271.33 1477.43 L1266.4 1477.43 L1266.4 1485.58 L1261.75 1485.58 L1261.75 1477.43 L1246.15 1477.43 L1246.15 1472.92 L1260.52 1451.02 Z" fill="#000000" fill-rule="nonzero" fill-opacity="1" /><path clip-path="url(#clip080)" d="M1289.06 1454.1 Q1285.45 1454.1 1283.62 1457.66 Q1281.82 1461.2 1281.82 1468.33 Q1281.82 1475.44 1283.62 1479.01 Q1285.45 1482.55 1289.06 1482.55 Q1292.7 1482.55 1294.5 1479.01 Q1296.33 1475.44 1296.33 1468.33 Q1296.33 1461.2 1294.5 1457.66 Q1292.7 1454.1 1289.06 1454.1 M1289.06 1450.39 Q1294.87 1450.39 1297.93 1455 Q1301.01 1459.58 1301.01 1468.33 Q1301.01 1477.06 1297.93 1481.67 Q1294.87 1486.25 1289.06 1486.25 Q1283.25 1486.25 1280.17 1481.67 Q1277.12 1477.06 1277.12 1468.33 Q1277.12 1459.58 1280.17 1455 Q1283.25 1450.39 1289.06 1450.39 Z" fill="#000000" fill-rule="nonzero" fill-opacity="1" /><path clip-path="url(#clip080)" d="M1768.39 1466.44 Q1765.24 1466.44 1763.39 1468.59 Q1761.56 1470.74 1761.56 1474.49 Q1761.56 1478.22 1763.39 1480.39 Q1765.24 1482.55 1768.39 1482.55 Q1771.54 1482.55 1773.37 1480.39 Q1775.22 1478.22 1775.22 1474.49 Q1775.22 1470.74 1773.37 1468.59 Q1771.54 1466.44 1768.39 1466.44 M1777.67 1451.78 L1777.67 1456.04 Q1775.91 1455.21 1774.11 1454.77 Q1772.32 1454.33 1770.56 1454.33 Q1765.93 1454.33 1763.48 1457.45 Q1761.05 1460.58 1760.7 1466.9 Q1762.07 1464.89 1764.13 1463.82 Q1766.19 1462.73 1768.67 1462.73 Q1773.87 1462.73 1776.88 1465.9 Q1779.92 1469.05 1779.92 1474.49 Q1779.92 1479.82 1776.77 1483.03 Q1773.62 1486.25 1768.39 1486.25 Q1762.39 1486.25 1759.22 1481.67 Q1756.05 1477.06 1756.05 1468.33 Q1756.05 1460.14 1759.94 1455.28 Q1763.83 1450.39 1770.38 1450.39 Q1772.14 1450.39 1773.92 1450.74 Q1775.73 1451.09 1777.67 1451.78 Z" fill="#000000" fill-rule="nonzero" fill-opacity="1" /><path clip-path="url(#clip080)" d="M1797.97 1454.1 Q1794.36 1454.1 1792.53 1457.66 Q1790.73 1461.2 1790.73 1468.33 Q1790.73 1475.44 1792.53 1479.01 Q1794.36 1482.55 1797.97 1482.55 Q1801.61 1482.55 1803.41 1479.01 Q1805.24 1475.44 1805.24 1468.33 Q1805.24 1461.2 1803.41 1457.66 Q1801.61 1454.1 1797.97 1454.1 M1797.97 1450.39 Q1803.78 1450.39 1806.84 1455 Q1809.92 1459.58 1809.92 1468.33 Q1809.92 1477.06 1806.84 1481.67 Q1803.78 1486.25 1797.97 1486.25 Q1792.16 1486.25 1789.08 1481.67 Q1786.03 1477.06 1786.03 1468.33 Q1786.03 1459.58 1789.08 1455 Q1792.16 1450.39 1797.97 1450.39 Z" fill="#000000" fill-rule="nonzero" fill-opacity="1" /><path clip-path="url(#clip080)" d="M2277.26 1469.17 Q2273.93 1469.17 2272.01 1470.95 Q2270.11 1472.73 2270.11 1475.86 Q2270.11 1478.98 2272.01 1480.77 Q2273.93 1482.55 2277.26 1482.55 Q2280.6 1482.55 2282.52 1480.77 Q2284.44 1478.96 2284.44 1475.86 Q2284.44 1472.73 2282.52 1470.95 Q2280.62 1469.17 2277.26 1469.17 M2272.59 1467.18 Q2269.58 1466.44 2267.89 1464.38 Q2266.22 1462.32 2266.22 1459.35 Q2266.22 1455.21 2269.16 1452.8 Q2272.13 1450.39 2277.26 1450.39 Q2282.43 1450.39 2285.37 1452.8 Q2288.31 1455.21 2288.31 1459.35 Q2288.31 1462.32 2286.62 1464.38 Q2284.95 1466.44 2281.96 1467.18 Q2285.34 1467.96 2287.22 1470.26 Q2289.12 1472.55 2289.12 1475.86 Q2289.12 1480.88 2286.04 1483.57 Q2282.98 1486.25 2277.26 1486.25 Q2271.55 1486.25 2268.47 1483.57 Q2265.41 1480.88 2265.41 1475.86 Q2265.41 1472.55 2267.31 1470.26 Q2269.21 1467.96 2272.59 1467.18 M2270.88 1459.79 Q2270.88 1462.48 2272.54 1463.98 Q2274.23 1465.49 2277.26 1465.49 Q2280.27 1465.49 2281.96 1463.98 Q2283.68 1462.48 2283.68 1459.79 Q2283.68 1457.11 2281.96 1455.6 Q2280.27 1454.1 2277.26 1454.1 Q2274.23 1454.1 2272.54 1455.6 Q2270.88 1457.11 2270.88 1459.79 Z" fill="#000000" fill-rule="nonzero" fill-opacity="1" /><path clip-path="url(#clip080)" d="M2307.43 1454.1 Q2303.81 1454.1 2301.99 1457.66 Q2300.18 1461.2 2300.18 1468.33 Q2300.18 1475.44 2301.99 1479.01 Q2303.81 1482.55 2307.43 1482.55 Q2311.06 1482.55 2312.87 1479.01 Q2314.69 1475.44 2314.69 1468.33 Q2314.69 1461.2 2312.87 1457.66 Q2311.06 1454.1 2307.43 1454.1 M2307.43 1450.39 Q2313.24 1450.39 2316.29 1455 Q2319.37 1459.58 2319.37 1468.33 Q2319.37 1477.06 2316.29 1481.67 Q2313.24 1486.25 2307.43 1486.25 Q2301.62 1486.25 2298.54 1481.67 Q2295.48 1477.06 2295.48 1468.33 Q2295.48 1459.58 2298.54 1455 Q2301.62 1450.39 2307.43 1450.39 Z" fill="#000000" fill-rule="nonzero" fill-opacity="1" /><path clip-path="url(#clip080)" d="M1208.19 1520.52 L1248.39 1520.52 L1248.39 1525.93 L1231.52 1525.93 L1231.52 1568.04 L1225.06 1568.04 L1225.06 1525.93 L1208.19 1525.93 L1208.19 1520.52 Z" fill="#000000" fill-rule="nonzero" fill-opacity="1" /><path clip-path="url(#clip080)" d="M1252.33 1532.4 L1258.19 1532.4 L1258.19 1568.04 L1252.33 1568.04 L1252.33 1532.4 M1252.33 1518.52 L1258.19 1518.52 L1258.19 1525.93 L1252.33 1525.93 L1252.33 1518.52 Z" fill="#000000" fill-rule="nonzero" fill-opacity="1" /><path clip-path="url(#clip080)" d="M1298.2 1539.24 Q1300.4 1535.29 1303.45 1533.41 Q1306.51 1531.54 1310.64 1531.54 Q1316.21 1531.54 1319.24 1535.45 Q1322.26 1539.33 1322.26 1546.53 L1322.26 1568.04 L1316.37 1568.04 L1316.37 1546.72 Q1316.37 1541.59 1314.56 1539.11 Q1312.74 1536.63 1309.02 1536.63 Q1304.47 1536.63 1301.83 1539.65 Q1299.19 1542.68 1299.19 1547.9 L1299.19 1568.04 L1293.3 1568.04 L1293.3 1546.72 Q1293.3 1541.56 1291.48 1539.11 Q1289.67 1536.63 1285.88 1536.63 Q1281.39 1536.63 1278.75 1539.68 Q1276.11 1542.71 1276.11 1547.9 L1276.11 1568.04 L1270.22 1568.04 L1270.22 1532.4 L1276.11 1532.4 L1276.11 1537.93 Q1278.12 1534.66 1280.92 1533.1 Q1283.72 1531.54 1287.57 1531.54 Q1291.45 1531.54 1294.16 1533.51 Q1296.89 1535.48 1298.2 1539.24 Z" fill="#000000" fill-rule="nonzero" fill-opacity="1" /><path clip-path="url(#clip080)" d="M1364.43 1548.76 L1364.43 1551.62 L1337.51 1551.62 Q1337.89 1557.67 1341.14 1560.85 Q1344.41 1564 1350.24 1564 Q1353.61 1564 1356.76 1563.17 Q1359.95 1562.35 1363.07 1560.69 L1363.07 1566.23 Q1359.91 1567.57 1356.6 1568.27 Q1353.29 1568.97 1349.89 1568.97 Q1341.36 1568.97 1336.36 1564 Q1331.4 1559.04 1331.4 1550.57 Q1331.4 1541.82 1336.11 1536.69 Q1340.85 1531.54 1348.87 1531.54 Q1356.06 1531.54 1360.23 1536.18 Q1364.43 1540.8 1364.43 1548.76 M1358.58 1547.04 Q1358.51 1542.23 1355.87 1539.37 Q1353.26 1536.5 1348.93 1536.5 Q1344.03 1536.5 1341.07 1539.27 Q1338.14 1542.04 1337.7 1547.07 L1358.58 1547.04 Z" fill="#000000" fill-rule="nonzero" fill-opacity="1" /><polyline clip-path="url(#clip080)" style="stroke:#000000; stroke-linecap:round; stroke-linejoin:round; stroke-width:4; stroke-opacity:1; fill:none" points="219.866,1423.18 219.866,123.472 "/>
<polyline clip-path="url(#clip080)" style="stroke:#000000; stroke-linecap:round; stroke-linejoin:round; stroke-width:4; stroke-opacity:1; fill:none" points="219.866,1386.4 238.764,1386.4 "/>
<polyline clip-path="url(#clip080)" style="stroke:#000000; stroke-linecap:round; stroke-linejoin:round; stroke-width:4; stroke-opacity:1; fill:none" points="219.866,1191.77 238.764,1191.77 "/>
<polyline clip-path="url(#clip080)" style="stroke:#000000; stroke-linecap:round; stroke-linejoin:round; stroke-width:4; stroke-opacity:1; fill:none" points="219.866,997.145 238.764,997.145 "/>
<polyline clip-path="url(#clip080)" style="stroke:#000000; stroke-linecap:round; stroke-linejoin:round; stroke-width:4; stroke-opacity:1; fill:none" points="219.866,802.52 238.764,802.52 "/>
<polyline clip-path="url(#clip080)" style="stroke:#000000; stroke-linecap:round; stroke-linejoin:round; stroke-width:4; stroke-opacity:1; fill:none" points="219.866,607.894 238.764,607.894 "/>
<polyline clip-path="url(#clip080)" style="stroke:#000000; stroke-linecap:round; stroke-linejoin:round; stroke-width:4; stroke-opacity:1; fill:none" points="219.866,413.269 238.764,413.269 "/>
<polyline clip-path="url(#clip080)" style="stroke:#000000; stroke-linecap:round; stroke-linejoin:round; stroke-width:4; stroke-opacity:1; fill:none" points="219.866,218.644 238.764,218.644 "/>
<path clip-path="url(#clip080)" d="M126.691 1372.19 Q123.08 1372.19 121.251 1375.76 Q119.445 1379.3 119.445 1386.43 Q119.445 1393.54 121.251 1397.1 Q123.08 1400.64 126.691 1400.64 Q130.325 1400.64 132.13 1397.1 Q133.959 1393.54 133.959 1386.43 Q133.959 1379.3 132.13 1375.76 Q130.325 1372.19 126.691 1372.19 M126.691 1368.49 Q132.501 1368.49 135.556 1373.1 Q138.635 1377.68 138.635 1386.43 Q138.635 1395.16 135.556 1399.76 Q132.501 1404.35 126.691 1404.35 Q120.88 1404.35 117.802 1399.76 Q114.746 1395.16 114.746 1386.43 Q114.746 1377.68 117.802 1373.1 Q120.88 1368.49 126.691 1368.49 Z" fill="#000000" fill-rule="nonzero" fill-opacity="1" /><path clip-path="url(#clip080)" d="M146.853 1397.8 L151.737 1397.8 L151.737 1403.68 L146.853 1403.68 L146.853 1397.8 Z" fill="#000000" fill-rule="nonzero" fill-opacity="1" /><path clip-path="url(#clip080)" d="M171.922 1372.19 Q168.311 1372.19 166.482 1375.76 Q164.677 1379.3 164.677 1386.43 Q164.677 1393.54 166.482 1397.1 Q168.311 1400.64 171.922 1400.64 Q175.556 1400.64 177.362 1397.1 Q179.19 1393.54 179.19 1386.43 Q179.19 1379.3 177.362 1375.76 Q175.556 1372.19 171.922 1372.19 M171.922 1368.49 Q177.732 1368.49 180.788 1373.1 Q183.866 1377.68 183.866 1386.43 Q183.866 1395.16 180.788 1399.76 Q177.732 1404.35 171.922 1404.35 Q166.112 1404.35 163.033 1399.76 Q159.978 1395.16 159.978 1386.43 Q159.978 1377.68 163.033 1373.1 Q166.112 1368.49 171.922 1368.49 Z" fill="#000000" fill-rule="nonzero" fill-opacity="1" /><path clip-path="url(#clip080)" d="M127.917 1177.57 Q124.306 1177.57 122.478 1181.13 Q120.672 1184.68 120.672 1191.81 Q120.672 1198.91 122.478 1202.48 Q124.306 1206.02 127.917 1206.02 Q131.552 1206.02 133.357 1202.48 Q135.186 1198.91 135.186 1191.81 Q135.186 1184.68 133.357 1181.13 Q131.552 1177.57 127.917 1177.57 M127.917 1173.87 Q133.728 1173.87 136.783 1178.47 Q139.862 1183.06 139.862 1191.81 Q139.862 1200.53 136.783 1205.14 Q133.728 1209.72 127.917 1209.72 Q122.107 1209.72 119.029 1205.14 Q115.973 1200.53 115.973 1191.81 Q115.973 1183.06 119.029 1178.47 Q122.107 1173.87 127.917 1173.87 Z" fill="#000000" fill-rule="nonzero" fill-opacity="1" /><path clip-path="url(#clip080)" d="M148.079 1203.17 L152.964 1203.17 L152.964 1209.05 L148.079 1209.05 L148.079 1203.17 Z" fill="#000000" fill-rule="nonzero" fill-opacity="1" /><path clip-path="url(#clip080)" d="M163.959 1205.12 L171.598 1205.12 L171.598 1178.75 L163.288 1180.42 L163.288 1176.16 L171.552 1174.49 L176.227 1174.49 L176.227 1205.12 L183.866 1205.12 L183.866 1209.05 L163.959 1209.05 L163.959 1205.12 Z" fill="#000000" fill-rule="nonzero" fill-opacity="1" /><path clip-path="url(#clip080)" d="M128.288 982.944 Q124.677 982.944 122.848 986.509 Q121.043 990.05 121.043 997.18 Q121.043 1004.29 122.848 1007.85 Q124.677 1011.39 128.288 1011.39 Q131.922 1011.39 133.728 1007.85 Q135.556 1004.29 135.556 997.18 Q135.556 990.05 133.728 986.509 Q131.922 982.944 128.288 982.944 M128.288 979.24 Q134.098 979.24 137.154 983.847 Q140.232 988.43 140.232 997.18 Q140.232 1005.91 137.154 1010.51 Q134.098 1015.1 128.288 1015.1 Q122.478 1015.1 119.399 1010.51 Q116.343 1005.91 116.343 997.18 Q116.343 988.43 119.399 983.847 Q122.478 979.24 128.288 979.24 Z" fill="#000000" fill-rule="nonzero" fill-opacity="1" /><path clip-path="url(#clip080)" d="M148.45 1008.55 L153.334 1008.55 L153.334 1014.43 L148.45 1014.43 L148.45 1008.55 Z" fill="#000000" fill-rule="nonzero" fill-opacity="1" /><path clip-path="url(#clip080)" d="M167.547 1010.49 L183.866 1010.49 L183.866 1014.43 L161.922 1014.43 L161.922 1010.49 Q164.584 1007.74 169.167 1003.11 Q173.774 998.453 174.954 997.11 Q177.2 994.587 178.079 992.851 Q178.982 991.092 178.982 989.402 Q178.982 986.647 177.038 984.911 Q175.116 983.175 172.014 983.175 Q169.815 983.175 167.362 983.939 Q164.931 984.703 162.153 986.254 L162.153 981.532 Q164.977 980.397 167.431 979.819 Q169.885 979.24 171.922 979.24 Q177.292 979.24 180.487 981.925 Q183.681 984.61 183.681 989.101 Q183.681 991.231 182.871 993.152 Q182.084 995.05 179.977 997.643 Q179.399 998.314 176.297 1001.53 Q173.195 1004.73 167.547 1010.49 Z" fill="#000000" fill-rule="nonzero" fill-opacity="1" /><path clip-path="url(#clip080)" d="M127.339 788.318 Q123.728 788.318 121.899 791.883 Q120.093 795.425 120.093 802.555 Q120.093 809.661 121.899 813.226 Q123.728 816.767 127.339 816.767 Q130.973 816.767 132.779 813.226 Q134.607 809.661 134.607 802.555 Q134.607 795.425 132.779 791.883 Q130.973 788.318 127.339 788.318 M127.339 784.615 Q133.149 784.615 136.204 789.221 Q139.283 793.805 139.283 802.555 Q139.283 811.281 136.204 815.888 Q133.149 820.471 127.339 820.471 Q121.529 820.471 118.45 815.888 Q115.394 811.281 115.394 802.555 Q115.394 793.805 118.45 789.221 Q121.529 784.615 127.339 784.615 Z" fill="#000000" fill-rule="nonzero" fill-opacity="1" /><path clip-path="url(#clip080)" d="M147.501 813.92 L152.385 813.92 L152.385 819.8 L147.501 819.8 L147.501 813.92 Z" fill="#000000" fill-rule="nonzero" fill-opacity="1" /><path clip-path="url(#clip080)" d="M176.737 801.166 Q180.093 801.883 181.968 804.152 Q183.866 806.42 183.866 809.754 Q183.866 814.869 180.348 817.67 Q176.829 820.471 170.348 820.471 Q168.172 820.471 165.857 820.031 Q163.565 819.615 161.112 818.758 L161.112 814.244 Q163.056 815.379 165.371 815.957 Q167.686 816.536 170.209 816.536 Q174.607 816.536 176.899 814.8 Q179.214 813.064 179.214 809.754 Q179.214 806.698 177.061 804.985 Q174.931 803.249 171.112 803.249 L167.084 803.249 L167.084 799.406 L171.297 799.406 Q174.746 799.406 176.575 798.041 Q178.403 796.652 178.403 794.059 Q178.403 791.397 176.505 789.985 Q174.63 788.55 171.112 788.55 Q169.19 788.55 166.991 788.967 Q164.792 789.383 162.153 790.263 L162.153 786.096 Q164.815 785.356 167.13 784.985 Q169.468 784.615 171.528 784.615 Q176.852 784.615 179.954 787.045 Q183.056 789.453 183.056 793.573 Q183.056 796.443 181.413 798.434 Q179.769 800.402 176.737 801.166 Z" fill="#000000" fill-rule="nonzero" fill-opacity="1" /><path clip-path="url(#clip080)" d="M126.205 593.693 Q122.593 593.693 120.765 597.258 Q118.959 600.8 118.959 607.929 Q118.959 615.036 120.765 618.6 Q122.593 622.142 126.205 622.142 Q129.839 622.142 131.644 618.6 Q133.473 615.036 133.473 607.929 Q133.473 600.8 131.644 597.258 Q129.839 593.693 126.205 593.693 M126.205 589.989 Q132.015 589.989 135.07 594.596 Q138.149 599.179 138.149 607.929 Q138.149 616.656 135.07 621.262 Q132.015 625.846 126.205 625.846 Q120.394 625.846 117.316 621.262 Q114.26 616.656 114.26 607.929 Q114.26 599.179 117.316 594.596 Q120.394 589.989 126.205 589.989 Z" fill="#000000" fill-rule="nonzero" fill-opacity="1" /><path clip-path="url(#clip080)" d="M146.366 619.295 L151.251 619.295 L151.251 625.174 L146.366 625.174 L146.366 619.295 Z" fill="#000000" fill-rule="nonzero" fill-opacity="1" /><path clip-path="url(#clip080)" d="M174.283 594.689 L162.477 613.138 L174.283 613.138 L174.283 594.689 M173.056 590.614 L178.936 590.614 L178.936 613.138 L183.866 613.138 L183.866 617.026 L178.936 617.026 L178.936 625.174 L174.283 625.174 L174.283 617.026 L158.681 617.026 L158.681 612.513 L173.056 590.614 Z" fill="#000000" fill-rule="nonzero" fill-opacity="1" /><path clip-path="url(#clip080)" d="M127.686 399.068 Q124.075 399.068 122.246 402.633 Q120.441 406.174 120.441 413.304 Q120.441 420.41 122.246 423.975 Q124.075 427.517 127.686 427.517 Q131.32 427.517 133.126 423.975 Q134.954 420.41 134.954 413.304 Q134.954 406.174 133.126 402.633 Q131.32 399.068 127.686 399.068 M127.686 395.364 Q133.496 395.364 136.552 399.971 Q139.63 404.554 139.63 413.304 Q139.63 422.031 136.552 426.637 Q133.496 431.22 127.686 431.22 Q121.876 431.22 118.797 426.637 Q115.742 422.031 115.742 413.304 Q115.742 404.554 118.797 399.971 Q121.876 395.364 127.686 395.364 Z" fill="#000000" fill-rule="nonzero" fill-opacity="1" /><path clip-path="url(#clip080)" d="M147.848 424.67 L152.732 424.67 L152.732 430.549 L147.848 430.549 L147.848 424.67 Z" fill="#000000" fill-rule="nonzero" fill-opacity="1" /><path clip-path="url(#clip080)" d="M162.964 395.989 L181.32 395.989 L181.32 399.924 L167.246 399.924 L167.246 408.397 Q168.264 408.049 169.283 407.887 Q170.302 407.702 171.32 407.702 Q177.107 407.702 180.487 410.873 Q183.866 414.045 183.866 419.461 Q183.866 425.04 180.394 428.142 Q176.922 431.22 170.602 431.22 Q168.427 431.22 166.158 430.85 Q163.913 430.48 161.505 429.739 L161.505 425.04 Q163.589 426.174 165.811 426.73 Q168.033 427.285 170.51 427.285 Q174.514 427.285 176.852 425.179 Q179.19 423.072 179.19 419.461 Q179.19 415.85 176.852 413.744 Q174.514 411.637 170.51 411.637 Q168.635 411.637 166.76 412.054 Q164.908 412.471 162.964 413.35 L162.964 395.989 Z" fill="#000000" fill-rule="nonzero" fill-opacity="1" /><path clip-path="url(#clip080)" d="M126.529 204.443 Q122.918 204.443 121.089 208.007 Q119.283 211.549 119.283 218.679 Q119.283 225.785 121.089 229.35 Q122.918 232.892 126.529 232.892 Q130.163 232.892 131.968 229.35 Q133.797 225.785 133.797 218.679 Q133.797 211.549 131.968 208.007 Q130.163 204.443 126.529 204.443 M126.529 200.739 Q132.339 200.739 135.394 205.345 Q138.473 209.929 138.473 218.679 Q138.473 227.405 135.394 232.012 Q132.339 236.595 126.529 236.595 Q120.718 236.595 117.64 232.012 Q114.584 227.405 114.584 218.679 Q114.584 209.929 117.64 205.345 Q120.718 200.739 126.529 200.739 Z" fill="#000000" fill-rule="nonzero" fill-opacity="1" /><path clip-path="url(#clip080)" d="M146.691 230.044 L151.575 230.044 L151.575 235.924 L146.691 235.924 L146.691 230.044 Z" fill="#000000" fill-rule="nonzero" fill-opacity="1" /><path clip-path="url(#clip080)" d="M172.339 216.78 Q169.19 216.78 167.339 218.933 Q165.51 221.086 165.51 224.836 Q165.51 228.563 167.339 230.739 Q169.19 232.892 172.339 232.892 Q175.487 232.892 177.315 230.739 Q179.167 228.563 179.167 224.836 Q179.167 221.086 177.315 218.933 Q175.487 216.78 172.339 216.78 M181.621 202.128 L181.621 206.387 Q179.862 205.554 178.056 205.114 Q176.274 204.674 174.514 204.674 Q169.885 204.674 167.431 207.799 Q165.001 210.924 164.653 217.243 Q166.019 215.23 168.079 214.165 Q170.139 213.077 172.616 213.077 Q177.825 213.077 180.834 216.248 Q183.866 219.396 183.866 224.836 Q183.866 230.16 180.718 233.378 Q177.57 236.595 172.339 236.595 Q166.343 236.595 163.172 232.012 Q160.001 227.405 160.001 218.679 Q160.001 210.484 163.89 205.623 Q167.778 200.739 174.329 200.739 Q176.089 200.739 177.871 201.086 Q179.676 201.433 181.621 202.128 Z" fill="#000000" fill-rule="nonzero" fill-opacity="1" /><path clip-path="url(#clip080)" d="M20.1444 820.225 L26.9239 820.225 Q23.9002 823.472 22.4043 827.164 Q20.9083 830.824 20.9083 834.962 Q20.9083 843.11 25.9054 847.439 Q30.8707 851.767 40.2919 851.767 Q49.6813 851.767 54.6784 847.439 Q59.6436 843.11 59.6436 834.962 Q59.6436 830.824 58.1477 827.164 Q56.6518 823.472 53.6281 820.225 L60.3439 820.225 Q62.6355 823.599 63.7814 827.387 Q64.9272 831.143 64.9272 835.344 Q64.9272 846.134 58.3387 852.34 Q51.7183 858.547 40.2919 858.547 Q28.8336 858.547 22.2451 852.34 Q15.6248 846.134 15.6248 835.344 Q15.6248 831.079 16.7706 827.323 Q17.8846 823.535 20.1444 820.225 Z" fill="#000000" fill-rule="nonzero" fill-opacity="1" /><path clip-path="url(#clip080)" d="M16.4842 816.883 L16.4842 776.684 L21.895 776.684 L21.895 793.553 L64.0042 793.553 L64.0042 800.014 L21.895 800.014 L21.895 816.883 L16.4842 816.883 Z" fill="#000000" fill-rule="nonzero" fill-opacity="1" /><path clip-path="url(#clip080)" d="M16.4842 770.477 L16.4842 761.82 L56.238 740.749 L16.4842 740.749 L16.4842 734.511 L64.0042 734.511 L64.0042 743.168 L24.2503 764.239 L64.0042 764.239 L64.0042 770.477 L16.4842 770.477 Z" fill="#000000" fill-rule="nonzero" fill-opacity="1" /><path clip-path="url(#clip080)" d="M16.4842 728.305 L16.4842 688.105 L21.895 688.105 L21.895 704.974 L64.0042 704.974 L64.0042 711.435 L21.895 711.435 L21.895 728.305 L16.4842 728.305 Z" fill="#000000" fill-rule="nonzero" fill-opacity="1" /><path clip-path="url(#clip080)" d="M1064.71 18.8205 L1064.71 41.5461 L1075 41.5461 Q1080.71 41.5461 1083.83 38.5889 Q1086.95 35.6318 1086.95 30.163 Q1086.95 24.7348 1083.83 21.7777 Q1080.71 18.8205 1075 18.8205 L1064.71 18.8205 M1056.52 12.096 L1075 12.096 Q1085.16 12.096 1090.35 16.714 Q1095.57 21.2916 1095.57 30.163 Q1095.57 39.1155 1090.35 43.6931 Q1085.16 48.2706 1075 48.2706 L1064.71 48.2706 L1064.71 72.576 L1056.52 72.576 L1056.52 12.096 Z" fill="#000000" fill-rule="nonzero" fill-opacity="1" /><path clip-path="url(#clip080)" d="M1123.12 49.7694 Q1114.09 49.7694 1110.6 51.8354 Q1107.12 53.9013 1107.12 58.8839 Q1107.12 62.8538 1109.71 65.2034 Q1112.35 67.5124 1116.84 67.5124 Q1123.04 67.5124 1126.77 63.1374 Q1130.53 58.7219 1130.53 51.4303 L1130.53 49.7694 L1123.12 49.7694 M1137.99 46.6907 L1137.99 72.576 L1130.53 72.576 L1130.53 65.6895 Q1127.98 69.8214 1124.17 71.8063 Q1120.37 73.7508 1114.86 73.7508 Q1107.89 73.7508 1103.76 69.8619 Q1099.67 65.9325 1099.67 59.3701 Q1099.67 51.7138 1104.77 47.825 Q1109.91 43.9361 1120.08 43.9361 L1130.53 43.9361 L1130.53 43.2069 Q1130.53 38.0623 1127.13 35.2672 Q1123.77 32.4315 1117.65 32.4315 Q1113.76 32.4315 1110.08 33.3632 Q1106.39 34.295 1102.99 36.1584 L1102.99 29.2718 Q1107.08 27.692 1110.93 26.9223 Q1114.78 26.1121 1118.42 26.1121 Q1128.27 26.1121 1133.13 31.2163 Q1137.99 36.3204 1137.99 46.6907 Z" fill="#000000" fill-rule="nonzero" fill-opacity="1" /><path clip-path="url(#clip080)" d="M1160.71 14.324 L1160.71 27.2059 L1176.07 27.2059 L1176.07 32.9987 L1160.71 32.9987 L1160.71 57.6282 Q1160.71 63.1779 1162.21 64.7578 Q1163.75 66.3376 1168.41 66.3376 L1176.07 66.3376 L1176.07 72.576 L1168.41 72.576 Q1159.78 72.576 1156.5 69.3758 Q1153.22 66.1351 1153.22 57.6282 L1153.22 32.9987 L1147.75 32.9987 L1147.75 27.2059 L1153.22 27.2059 L1153.22 14.324 L1160.71 14.324 Z" fill="#000000" fill-rule="nonzero" fill-opacity="1" /><path clip-path="url(#clip080)" d="M1185.87 27.2059 L1193.32 27.2059 L1193.32 72.576 L1185.87 72.576 L1185.87 27.2059 M1185.87 9.54393 L1193.32 9.54393 L1193.32 18.9825 L1185.87 18.9825 L1185.87 9.54393 Z" fill="#000000" fill-rule="nonzero" fill-opacity="1" /><path clip-path="url(#clip080)" d="M1247.73 48.0275 L1247.73 51.6733 L1213.46 51.6733 Q1213.94 59.3701 1218.07 63.421 Q1222.25 67.4314 1229.66 67.4314 Q1233.95 67.4314 1237.96 66.3781 Q1242.01 65.3249 1245.98 63.2184 L1245.98 70.267 Q1241.97 71.9684 1237.76 72.8596 Q1233.55 73.7508 1229.21 73.7508 Q1218.36 73.7508 1212 67.4314 Q1205.68 61.1119 1205.68 50.3365 Q1205.68 39.1965 1211.67 32.6746 Q1217.71 26.1121 1227.92 26.1121 Q1237.07 26.1121 1242.38 32.0264 Q1247.73 37.9003 1247.73 48.0275 M1240.27 45.84 Q1240.19 39.7232 1236.83 36.0774 Q1233.51 32.4315 1228 32.4315 Q1221.76 32.4315 1217.99 35.9558 Q1214.27 39.4801 1213.7 45.8805 L1240.27 45.84 Z" fill="#000000" fill-rule="nonzero" fill-opacity="1" /><path clip-path="url(#clip080)" d="M1297.67 45.1919 L1297.67 72.576 L1290.22 72.576 L1290.22 45.4349 Q1290.22 38.994 1287.71 35.7938 Q1285.2 32.5936 1280.17 32.5936 Q1274.14 32.5936 1270.65 36.4419 Q1267.17 40.2903 1267.17 46.9338 L1267.17 72.576 L1259.68 72.576 L1259.68 27.2059 L1267.17 27.2059 L1267.17 34.2544 Q1269.84 30.163 1273.45 28.1376 Q1277.1 26.1121 1281.83 26.1121 Q1289.65 26.1121 1293.66 30.9732 Q1297.67 35.7938 1297.67 45.1919 Z" fill="#000000" fill-rule="nonzero" fill-opacity="1" /><path clip-path="url(#clip080)" d="M1319.91 14.324 L1319.91 27.2059 L1335.27 27.2059 L1335.27 32.9987 L1319.91 32.9987 L1319.91 57.6282 Q1319.91 63.1779 1321.41 64.7578 Q1322.95 66.3376 1327.61 66.3376 L1335.27 66.3376 L1335.27 72.576 L1327.61 72.576 Q1318.98 72.576 1315.7 69.3758 Q1312.42 66.1351 1312.42 57.6282 L1312.42 32.9987 L1306.95 32.9987 L1306.95 27.2059 L1312.42 27.2059 L1312.42 14.324 L1319.91 14.324 Z" fill="#000000" fill-rule="nonzero" fill-opacity="1" /><path clip-path="url(#clip080)" d="M1409.15 45.1919 L1409.15 72.576 L1401.7 72.576 L1401.7 45.4349 Q1401.7 38.994 1399.19 35.7938 Q1396.68 32.5936 1391.65 32.5936 Q1385.62 32.5936 1382.14 36.4419 Q1378.65 40.2903 1378.65 46.9338 L1378.65 72.576 L1371.16 72.576 L1371.16 27.2059 L1378.65 27.2059 L1378.65 34.2544 Q1381.33 30.163 1384.93 28.1376 Q1388.58 26.1121 1393.32 26.1121 Q1401.13 26.1121 1405.14 30.9732 Q1409.15 35.7938 1409.15 45.1919 Z" fill="#000000" fill-rule="nonzero" fill-opacity="1" /><path clip-path="url(#clip080)" d="M1425.32 71.3202 L1425.32 63.8666 Q1428.4 65.3249 1431.56 66.0946 Q1434.72 66.8642 1437.75 66.8642 Q1445.86 66.8642 1450.11 61.436 Q1454.4 55.9673 1455.01 44.8678 Q1452.66 48.3516 1449.06 50.215 Q1445.45 52.0784 1441.08 52.0784 Q1432 52.0784 1426.7 46.6097 Q1421.43 41.1005 1421.43 31.5808 Q1421.43 22.2638 1426.94 16.633 Q1432.45 11.0023 1441.6 11.0023 Q1452.09 11.0023 1457.6 19.0636 Q1463.15 27.0843 1463.15 42.3968 Q1463.15 56.6965 1456.35 65.2439 Q1449.58 73.7508 1438.12 73.7508 Q1435.04 73.7508 1431.88 73.1431 Q1428.72 72.5355 1425.32 71.3202 M1441.6 45.678 Q1447.11 45.678 1450.31 41.9107 Q1453.55 38.1433 1453.55 31.5808 Q1453.55 25.0589 1450.31 21.2916 Q1447.11 17.4837 1441.6 17.4837 Q1436.09 17.4837 1432.85 21.2916 Q1429.65 25.0589 1429.65 31.5808 Q1429.65 38.1433 1432.85 41.9107 Q1436.09 45.678 1441.6 45.678 Z" fill="#000000" fill-rule="nonzero" fill-opacity="1" /><path clip-path="url(#clip080)" d="M1495.36 43.8551 Q1489.52 43.8551 1486.16 46.9743 Q1482.84 50.0935 1482.84 55.5622 Q1482.84 61.0309 1486.16 64.1501 Q1489.52 67.2693 1495.36 67.2693 Q1501.19 67.2693 1504.55 64.1501 Q1507.92 60.9904 1507.92 55.5622 Q1507.92 50.0935 1504.55 46.9743 Q1501.23 43.8551 1495.36 43.8551 M1487.18 40.3713 Q1481.91 39.075 1478.95 35.4697 Q1476.04 31.8644 1476.04 26.6793 Q1476.04 19.4281 1481.18 15.2152 Q1486.36 11.0023 1495.36 11.0023 Q1504.39 11.0023 1509.54 15.2152 Q1514.68 19.4281 1514.68 26.6793 Q1514.68 31.8644 1511.72 35.4697 Q1508.81 39.075 1503.58 40.3713 Q1509.5 41.7486 1512.78 45.759 Q1516.1 49.7694 1516.1 55.5622 Q1516.1 64.3527 1510.71 69.0517 Q1505.36 73.7508 1495.36 73.7508 Q1485.35 73.7508 1479.96 69.0517 Q1474.62 64.3527 1474.62 55.5622 Q1474.62 49.7694 1477.94 45.759 Q1481.26 41.7486 1487.18 40.3713 M1484.18 27.4489 Q1484.18 32.148 1487.09 34.7811 Q1490.05 37.4142 1495.36 37.4142 Q1500.62 37.4142 1503.58 34.7811 Q1506.58 32.148 1506.58 27.4489 Q1506.58 22.7499 1503.58 20.1168 Q1500.62 17.4837 1495.36 17.4837 Q1490.05 17.4837 1487.09 20.1168 Q1484.18 22.7499 1484.18 27.4489 Z" fill="#000000" fill-rule="nonzero" fill-opacity="1" /><polyline clip-path="url(#clip082)" style="stroke:#009af9; stroke-linecap:round; stroke-linejoin:round; stroke-width:8; stroke-opacity:1; fill:none" points="280.231,1386.4 305.701,832.951 331.172,804.183 356.642,778.249 382.113,753.155 407.583,729.041 433.053,705.905 458.524,683.575 483.994,661.389 509.464,640.63 534.935,620.13 560.405,600.601 585.876,581.659 611.346,563.379 636.816,545.735 662.287,528.728 687.757,512.357 713.228,496.546 738.698,481.288 764.168,466.584 789.639,452.433 815.109,438.843 840.579,425.772 866.05,413.173 891.52,401.046 916.991,389.392 942.461,378.211 967.931,367.521 993.402,357.243 1018.87,347.352 1044.34,337.85 1069.81,328.737 1095.28,320.012 1120.75,311.676 1146.22,303.728 1171.69,296.18 1197.16,288.944 1222.64,282.016 1248.11,275.397 1273.58,269.085 1299.05,263.083 1324.52,257.388 1349.99,252.002 1375.46,246.95 1400.93,242.141 1426.4,237.566 1451.87,233.226 1477.34,229.121 1502.81,225.251 1528.28,221.615 1553.75,218.215 1579.22,215.049 1604.69,212.118 1630.16,209.444 1655.63,206.957 1681.1,204.641 1706.57,202.495 1732.04,200.521 1757.51,198.717 1782.98,197.084 1808.45,195.623 1833.92,194.331 1859.39,193.211 1884.87,192.262 1910.34,191.51 1935.81,190.884 1961.28,190.375 1986.75,189.983 2012.22,189.709 2037.69,189.553 2063.16,189.514 2088.63,189.593 2114.1,189.789 2139.57,190.102 2165.04,190.534 2190.51,191.082 2215.98,191.749 2241.45,192.526 2266.92,193.397 2292.39,194.161 "/>
<circle clip-path="url(#clip082)" cx="303.579" cy="802.52" r="18" fill="#e26f46" fill-rule="evenodd" fill-opacity="1" stroke="#000000" stroke-opacity="1" stroke-width="3.2"/>
<circle clip-path="url(#clip082)" cx="475.928" cy="646.82" r="18" fill="#e26f46" fill-rule="evenodd" fill-opacity="1" stroke="#000000" stroke-opacity="1" stroke-width="3.2"/>
<circle clip-path="url(#clip082)" cx="762.046" cy="510.582" r="18" fill="#e26f46" fill-rule="evenodd" fill-opacity="1" stroke="#000000" stroke-opacity="1" stroke-width="3.2"/>
<circle clip-path="url(#clip082)" cx="965.809" cy="296.494" r="18" fill="#e26f46" fill-rule="evenodd" fill-opacity="1" stroke="#000000" stroke-opacity="1" stroke-width="3.2"/>
<circle clip-path="url(#clip082)" cx="1674.31" cy="179.719" r="18" fill="#e26f46" fill-rule="evenodd" fill-opacity="1" stroke="#000000" stroke-opacity="1" stroke-width="3.2"/>
<circle clip-path="url(#clip082)" cx="1878.5" cy="160.256" r="18" fill="#e26f46" fill-rule="evenodd" fill-opacity="1" stroke="#000000" stroke-opacity="1" stroke-width="3.2"/>
<circle clip-path="url(#clip082)" cx="2089.48" cy="277.031" r="18" fill="#e26f46" fill-rule="evenodd" fill-opacity="1" stroke="#000000" stroke-opacity="1" stroke-width="3.2"/>
<circle clip-path="url(#clip082)" cx="2261.83" cy="160.256" r="18" fill="#e26f46" fill-rule="evenodd" fill-opacity="1" stroke="#000000" stroke-opacity="1" stroke-width="3.2"/>
<path clip-path="url(#clip080)" d="M290.963 322.316 L888.486 322.316 L888.486 166.796 L290.963 166.796  Z" fill="#ffffff" fill-rule="evenodd" fill-opacity="1"/>
<polyline clip-path="url(#clip080)" style="stroke:#000000; stroke-linecap:round; stroke-linejoin:round; stroke-width:4; stroke-opacity:1; fill:none" points="290.963,322.316 888.486,322.316 888.486,166.796 290.963,166.796 290.963,322.316 "/>
<polyline clip-path="url(#clip080)" style="stroke:#009af9; stroke-linecap:round; stroke-linejoin:round; stroke-width:8; stroke-opacity:1; fill:none" points="314.661,218.636 456.854,218.636 "/>
<path clip-path="url(#clip080)" d="M480.553 201.356 L487.52 201.356 L496.34 224.874 L505.205 201.356 L512.173 201.356 L512.173 235.916 L507.613 235.916 L507.613 205.569 L498.701 229.272 L494.002 229.272 L485.09 205.569 L485.09 235.916 L480.553 235.916 L480.553 201.356 Z" fill="#000000" fill-rule="nonzero" fill-opacity="1" /><path clip-path="url(#clip080)" d="M531.316 212.976 Q527.89 212.976 525.9 215.661 Q523.909 218.323 523.909 222.976 Q523.909 227.629 525.877 230.314 Q527.867 232.976 531.316 232.976 Q534.719 232.976 536.71 230.291 Q538.701 227.606 538.701 222.976 Q538.701 218.37 536.71 215.684 Q534.719 212.976 531.316 212.976 M531.316 209.365 Q536.872 209.365 540.043 212.976 Q543.214 216.587 543.214 222.976 Q543.214 229.342 540.043 232.976 Q536.872 236.587 531.316 236.587 Q525.738 236.587 522.566 232.976 Q519.418 229.342 519.418 222.976 Q519.418 216.587 522.566 212.976 Q525.738 209.365 531.316 209.365 Z" fill="#000000" fill-rule="nonzero" fill-opacity="1" /><path clip-path="url(#clip080)" d="M567.335 213.925 L567.335 199.897 L571.594 199.897 L571.594 235.916 L567.335 235.916 L567.335 232.027 Q565.992 234.342 563.932 235.476 Q561.895 236.587 559.025 236.587 Q554.326 236.587 551.363 232.837 Q548.423 229.087 548.423 222.976 Q548.423 216.865 551.363 213.115 Q554.326 209.365 559.025 209.365 Q561.895 209.365 563.932 210.499 Q565.992 211.61 567.335 213.925 M552.821 222.976 Q552.821 227.675 554.742 230.36 Q556.687 233.022 560.066 233.022 Q563.446 233.022 565.39 230.36 Q567.335 227.675 567.335 222.976 Q567.335 218.277 565.39 215.615 Q563.446 212.93 560.066 212.93 Q556.687 212.93 554.742 215.615 Q552.821 218.277 552.821 222.976 Z" fill="#000000" fill-rule="nonzero" fill-opacity="1" /><path clip-path="url(#clip080)" d="M602.543 221.888 L602.543 223.971 L582.96 223.971 Q583.237 228.369 585.599 230.684 Q587.983 232.976 592.219 232.976 Q594.673 232.976 596.964 232.374 Q599.279 231.772 601.547 230.569 L601.547 234.596 Q599.256 235.568 596.848 236.078 Q594.441 236.587 591.964 236.587 Q585.761 236.587 582.126 232.976 Q578.515 229.365 578.515 223.207 Q578.515 216.842 581.941 213.115 Q585.39 209.365 591.223 209.365 Q596.455 209.365 599.487 212.745 Q602.543 216.101 602.543 221.888 M598.284 220.638 Q598.237 217.143 596.316 215.059 Q594.418 212.976 591.27 212.976 Q587.705 212.976 585.552 214.99 Q583.423 217.004 583.099 220.661 L598.284 220.638 Z" fill="#000000" fill-rule="nonzero" fill-opacity="1" /><path clip-path="url(#clip080)" d="M609.534 199.897 L613.793 199.897 L613.793 235.916 L609.534 235.916 L609.534 199.897 Z" fill="#000000" fill-rule="nonzero" fill-opacity="1" /><path clip-path="url(#clip080)" d="M642.635 205.198 L642.635 218.184 L648.515 218.184 Q651.779 218.184 653.561 216.495 Q655.344 214.805 655.344 211.68 Q655.344 208.578 653.561 206.888 Q651.779 205.198 648.515 205.198 L642.635 205.198 M637.959 201.356 L648.515 201.356 Q654.325 201.356 657.288 203.995 Q660.274 206.61 660.274 211.68 Q660.274 216.795 657.288 219.411 Q654.325 222.027 648.515 222.027 L642.635 222.027 L642.635 235.916 L637.959 235.916 L637.959 201.356 Z" fill="#000000" fill-rule="nonzero" fill-opacity="1" /><path clip-path="url(#clip080)" d="M680.552 213.971 Q679.834 213.555 678.978 213.37 Q678.144 213.161 677.126 213.161 Q673.515 213.161 671.57 215.522 Q669.649 217.86 669.649 222.258 L669.649 235.916 L665.367 235.916 L665.367 209.99 L669.649 209.99 L669.649 214.018 Q670.992 211.657 673.144 210.522 Q675.297 209.365 678.376 209.365 Q678.816 209.365 679.348 209.434 Q679.88 209.481 680.529 209.596 L680.552 213.971 Z" fill="#000000" fill-rule="nonzero" fill-opacity="1" /><path clip-path="url(#clip080)" d="M706.153 221.888 L706.153 223.971 L686.57 223.971 Q686.848 228.369 689.209 230.684 Q691.593 232.976 695.829 232.976 Q698.283 232.976 700.575 232.374 Q702.89 231.772 705.158 230.569 L705.158 234.596 Q702.866 235.568 700.459 236.078 Q698.052 236.587 695.575 236.587 Q689.371 236.587 685.737 232.976 Q682.126 229.365 682.126 223.207 Q682.126 216.842 685.552 213.115 Q689.001 209.365 694.834 209.365 Q700.065 209.365 703.098 212.745 Q706.153 216.101 706.153 221.888 M701.894 220.638 Q701.848 217.143 699.927 215.059 Q698.028 212.976 694.88 212.976 Q691.316 212.976 689.163 214.99 Q687.033 217.004 686.709 220.661 L701.894 220.638 Z" fill="#000000" fill-rule="nonzero" fill-opacity="1" /><path clip-path="url(#clip080)" d="M730.204 213.925 L730.204 199.897 L734.463 199.897 L734.463 235.916 L730.204 235.916 L730.204 232.027 Q728.862 234.342 726.801 235.476 Q724.764 236.587 721.894 236.587 Q717.195 236.587 714.232 232.837 Q711.292 229.087 711.292 222.976 Q711.292 216.865 714.232 213.115 Q717.195 209.365 721.894 209.365 Q724.764 209.365 726.801 210.499 Q728.862 211.61 730.204 213.925 M715.69 222.976 Q715.69 227.675 717.612 230.36 Q719.556 233.022 722.936 233.022 Q726.315 233.022 728.26 230.36 Q730.204 227.675 730.204 222.976 Q730.204 218.277 728.26 215.615 Q726.315 212.93 722.936 212.93 Q719.556 212.93 717.612 215.615 Q715.69 218.277 715.69 222.976 Z" fill="#000000" fill-rule="nonzero" fill-opacity="1" /><path clip-path="url(#clip080)" d="M743.237 209.99 L747.496 209.99 L747.496 235.916 L743.237 235.916 L743.237 209.99 M743.237 199.897 L747.496 199.897 L747.496 205.291 L743.237 205.291 L743.237 199.897 Z" fill="#000000" fill-rule="nonzero" fill-opacity="1" /><path clip-path="url(#clip080)" d="M775.065 210.985 L775.065 214.967 Q773.26 213.971 771.431 213.485 Q769.625 212.976 767.773 212.976 Q763.63 212.976 761.338 215.615 Q759.047 218.231 759.047 222.976 Q759.047 227.721 761.338 230.36 Q763.63 232.976 767.773 232.976 Q769.625 232.976 771.431 232.49 Q773.26 231.981 775.065 230.985 L775.065 234.92 Q773.283 235.754 771.361 236.17 Q769.463 236.587 767.311 236.587 Q761.454 236.587 758.005 232.906 Q754.556 229.226 754.556 222.976 Q754.556 216.633 758.028 212.999 Q761.523 209.365 767.588 209.365 Q769.556 209.365 771.431 209.782 Q773.306 210.175 775.065 210.985 Z" fill="#000000" fill-rule="nonzero" fill-opacity="1" /><path clip-path="url(#clip080)" d="M786.685 202.629 L786.685 209.99 L795.458 209.99 L795.458 213.3 L786.685 213.3 L786.685 227.374 Q786.685 230.545 787.542 231.448 Q788.421 232.351 791.084 232.351 L795.458 232.351 L795.458 235.916 L791.084 235.916 Q786.153 235.916 784.278 234.087 Q782.403 232.235 782.403 227.374 L782.403 213.3 L779.278 213.3 L779.278 209.99 L782.403 209.99 L782.403 202.629 L786.685 202.629 Z" fill="#000000" fill-rule="nonzero" fill-opacity="1" /><path clip-path="url(#clip080)" d="M801.06 209.99 L805.32 209.99 L805.32 235.916 L801.06 235.916 L801.06 209.99 M801.06 199.897 L805.32 199.897 L805.32 205.291 L801.06 205.291 L801.06 199.897 Z" fill="#000000" fill-rule="nonzero" fill-opacity="1" /><path clip-path="url(#clip080)" d="M824.278 212.976 Q820.852 212.976 818.861 215.661 Q816.87 218.323 816.87 222.976 Q816.87 227.629 818.838 230.314 Q820.829 232.976 824.278 232.976 Q827.681 232.976 829.671 230.291 Q831.662 227.606 831.662 222.976 Q831.662 218.37 829.671 215.684 Q827.681 212.976 824.278 212.976 M824.278 209.365 Q829.833 209.365 833.005 212.976 Q836.176 216.587 836.176 222.976 Q836.176 229.342 833.005 232.976 Q829.833 236.587 824.278 236.587 Q818.699 236.587 815.528 232.976 Q812.38 229.342 812.38 222.976 Q812.38 216.587 815.528 212.976 Q818.699 209.365 824.278 209.365 Z" fill="#000000" fill-rule="nonzero" fill-opacity="1" /><path clip-path="url(#clip080)" d="M864.787 220.268 L864.787 235.916 L860.528 235.916 L860.528 220.407 Q860.528 216.726 859.092 214.897 Q857.657 213.069 854.787 213.069 Q851.338 213.069 849.347 215.268 Q847.356 217.467 847.356 221.263 L847.356 235.916 L843.074 235.916 L843.074 209.99 L847.356 209.99 L847.356 214.018 Q848.884 211.68 850.944 210.522 Q853.028 209.365 855.736 209.365 Q860.204 209.365 862.495 212.143 Q864.787 214.897 864.787 220.268 Z" fill="#000000" fill-rule="nonzero" fill-opacity="1" /><circle clip-path="url(#clip080)" cx="385.758" cy="270.476" r="20.9455" fill="#e26f46" fill-rule="evenodd" fill-opacity="1" stroke="#000000" stroke-opacity="1" stroke-width="3.72364"/>
<path clip-path="url(#clip080)" d="M496.571 256.367 Q491.479 256.367 488.469 260.163 Q485.483 263.96 485.483 270.51 Q485.483 277.038 488.469 280.834 Q491.479 284.631 496.571 284.631 Q501.664 284.631 504.627 280.834 Q507.613 277.038 507.613 270.51 Q507.613 263.96 504.627 260.163 Q501.664 256.367 496.571 256.367 M496.571 252.571 Q503.84 252.571 508.192 257.455 Q512.543 262.316 512.543 270.51 Q512.543 278.682 508.192 283.566 Q503.84 288.427 496.571 288.427 Q489.28 288.427 484.905 283.566 Q480.553 278.705 480.553 270.51 Q480.553 262.316 484.905 257.455 Q489.28 252.571 496.571 252.571 Z" fill="#000000" fill-rule="nonzero" fill-opacity="1" /><path clip-path="url(#clip080)" d="M538.284 274.816 Q538.284 270.117 536.34 267.455 Q534.418 264.77 531.039 264.77 Q527.659 264.77 525.715 267.455 Q523.793 270.117 523.793 274.816 Q523.793 279.515 525.715 282.2 Q527.659 284.862 531.039 284.862 Q534.418 284.862 536.34 282.2 Q538.284 279.515 538.284 274.816 M523.793 265.765 Q525.136 263.45 527.173 262.339 Q529.233 261.205 532.08 261.205 Q536.802 261.205 539.742 264.955 Q542.705 268.705 542.705 274.816 Q542.705 280.927 539.742 284.677 Q536.802 288.427 532.08 288.427 Q529.233 288.427 527.173 287.316 Q525.136 286.182 523.793 283.867 L523.793 287.756 L519.511 287.756 L519.511 251.737 L523.793 251.737 L523.793 265.765 Z" fill="#000000" fill-rule="nonzero" fill-opacity="1" /><path clip-path="url(#clip080)" d="M566.293 262.594 L566.293 266.622 Q564.488 265.696 562.543 265.233 Q560.599 264.77 558.515 264.77 Q555.344 264.77 553.747 265.742 Q552.173 266.714 552.173 268.659 Q552.173 270.14 553.307 270.997 Q554.441 271.83 557.867 272.594 L559.326 272.918 Q563.863 273.89 565.761 275.672 Q567.682 277.432 567.682 280.603 Q567.682 284.214 564.812 286.321 Q561.964 288.427 556.964 288.427 Q554.881 288.427 552.613 288.01 Q550.367 287.617 547.867 286.807 L547.867 282.409 Q550.228 283.635 552.52 284.26 Q554.812 284.862 557.057 284.862 Q560.066 284.862 561.687 283.844 Q563.307 282.802 563.307 280.927 Q563.307 279.191 562.126 278.265 Q560.969 277.339 557.011 276.483 L555.529 276.135 Q551.571 275.302 549.812 273.589 Q548.052 271.853 548.052 268.844 Q548.052 265.186 550.645 263.196 Q553.238 261.205 558.006 261.205 Q560.367 261.205 562.45 261.552 Q564.534 261.899 566.293 262.594 Z" fill="#000000" fill-rule="nonzero" fill-opacity="1" /><path clip-path="url(#clip080)" d="M596.64 273.728 L596.64 275.811 L577.057 275.811 Q577.335 280.209 579.696 282.524 Q582.08 284.816 586.316 284.816 Q588.77 284.816 591.061 284.214 Q593.376 283.612 595.645 282.409 L595.645 286.436 Q593.353 287.408 590.946 287.918 Q588.538 288.427 586.061 288.427 Q579.858 288.427 576.224 284.816 Q572.612 281.205 572.612 275.047 Q572.612 268.682 576.038 264.955 Q579.487 261.205 585.321 261.205 Q590.552 261.205 593.585 264.585 Q596.64 267.941 596.64 273.728 M592.381 272.478 Q592.335 268.983 590.413 266.899 Q588.515 264.816 585.367 264.816 Q581.802 264.816 579.649 266.83 Q577.52 268.844 577.196 272.501 L592.381 272.478 Z" fill="#000000" fill-rule="nonzero" fill-opacity="1" /><path clip-path="url(#clip080)" d="M618.654 265.811 Q617.936 265.395 617.08 265.21 Q616.246 265.001 615.228 265.001 Q611.617 265.001 609.672 267.362 Q607.751 269.7 607.751 274.098 L607.751 287.756 L603.469 287.756 L603.469 261.83 L607.751 261.83 L607.751 265.858 Q609.094 263.497 611.247 262.362 Q613.399 261.205 616.478 261.205 Q616.918 261.205 617.45 261.274 Q617.983 261.321 618.631 261.436 L618.654 265.811 Z" fill="#000000" fill-rule="nonzero" fill-opacity="1" /><path clip-path="url(#clip080)" d="M620.066 261.83 L624.58 261.83 L632.682 283.589 L640.783 261.83 L645.297 261.83 L635.575 287.756 L629.788 287.756 L620.066 261.83 Z" fill="#000000" fill-rule="nonzero" fill-opacity="1" /><path clip-path="url(#clip080)" d="M673.353 273.728 L673.353 275.811 L653.769 275.811 Q654.047 280.209 656.408 282.524 Q658.793 284.816 663.029 284.816 Q665.482 284.816 667.774 284.214 Q670.089 283.612 672.357 282.409 L672.357 286.436 Q670.066 287.408 667.658 287.918 Q665.251 288.427 662.774 288.427 Q656.57 288.427 652.936 284.816 Q649.325 281.205 649.325 275.047 Q649.325 268.682 652.751 264.955 Q656.2 261.205 662.033 261.205 Q667.265 261.205 670.297 264.585 Q673.353 267.941 673.353 273.728 M669.093 272.478 Q669.047 268.983 667.126 266.899 Q665.228 264.816 662.08 264.816 Q658.515 264.816 656.362 266.83 Q654.232 268.844 653.908 272.501 L669.093 272.478 Z" fill="#000000" fill-rule="nonzero" fill-opacity="1" /><path clip-path="url(#clip080)" d="M697.403 265.765 L697.403 251.737 L701.663 251.737 L701.663 287.756 L697.403 287.756 L697.403 283.867 Q696.061 286.182 694.001 287.316 Q691.964 288.427 689.093 288.427 Q684.394 288.427 681.431 284.677 Q678.492 280.927 678.492 274.816 Q678.492 268.705 681.431 264.955 Q684.394 261.205 689.093 261.205 Q691.964 261.205 694.001 262.339 Q696.061 263.45 697.403 265.765 M682.89 274.816 Q682.89 279.515 684.811 282.2 Q686.755 284.862 690.135 284.862 Q693.515 284.862 695.459 282.2 Q697.403 279.515 697.403 274.816 Q697.403 270.117 695.459 267.455 Q693.515 264.77 690.135 264.77 Q686.755 264.77 684.811 267.455 Q682.89 270.117 682.89 274.816 Z" fill="#000000" fill-rule="nonzero" fill-opacity="1" /><path clip-path="url(#clip080)" d="M730.366 257.038 L730.366 283.913 L736.014 283.913 Q743.167 283.913 746.477 280.672 Q749.811 277.432 749.811 270.441 Q749.811 263.497 746.477 260.279 Q743.167 257.038 736.014 257.038 L730.366 257.038 M725.69 253.196 L735.297 253.196 Q745.343 253.196 750.042 257.386 Q754.741 261.552 754.741 270.441 Q754.741 279.376 750.019 283.566 Q745.297 287.756 735.297 287.756 L725.69 287.756 L725.69 253.196 Z" fill="#000000" fill-rule="nonzero" fill-opacity="1" /><path clip-path="url(#clip080)" d="M773.792 274.723 Q768.63 274.723 766.639 275.904 Q764.648 277.084 764.648 279.932 Q764.648 282.2 766.13 283.543 Q767.635 284.862 770.204 284.862 Q773.746 284.862 775.875 282.362 Q778.028 279.839 778.028 275.672 L778.028 274.723 L773.792 274.723 M782.287 272.964 L782.287 287.756 L778.028 287.756 L778.028 283.821 Q776.57 286.182 774.394 287.316 Q772.218 288.427 769.07 288.427 Q765.088 288.427 762.727 286.205 Q760.389 283.959 760.389 280.209 Q760.389 275.834 763.306 273.612 Q766.246 271.39 772.056 271.39 L778.028 271.39 L778.028 270.973 Q778.028 268.034 776.084 266.436 Q774.162 264.816 770.667 264.816 Q768.445 264.816 766.338 265.348 Q764.232 265.881 762.287 266.946 L762.287 263.01 Q764.625 262.108 766.824 261.668 Q769.023 261.205 771.107 261.205 Q776.732 261.205 779.51 264.122 Q782.287 267.038 782.287 272.964 Z" fill="#000000" fill-rule="nonzero" fill-opacity="1" /><path clip-path="url(#clip080)" d="M795.273 254.469 L795.273 261.83 L804.046 261.83 L804.046 265.14 L795.273 265.14 L795.273 279.214 Q795.273 282.385 796.13 283.288 Q797.009 284.191 799.671 284.191 L804.046 284.191 L804.046 287.756 L799.671 287.756 Q794.741 287.756 792.866 285.927 Q790.991 284.075 790.991 279.214 L790.991 265.14 L787.866 265.14 L787.866 261.83 L790.991 261.83 L790.991 254.469 L795.273 254.469 Z" fill="#000000" fill-rule="nonzero" fill-opacity="1" /><path clip-path="url(#clip080)" d="M821.431 274.723 Q816.269 274.723 814.278 275.904 Q812.287 277.084 812.287 279.932 Q812.287 282.2 813.769 283.543 Q815.273 284.862 817.843 284.862 Q821.384 284.862 823.514 282.362 Q825.667 279.839 825.667 275.672 L825.667 274.723 L821.431 274.723 M829.926 272.964 L829.926 287.756 L825.667 287.756 L825.667 283.821 Q824.208 286.182 822.032 287.316 Q819.857 288.427 816.708 288.427 Q812.727 288.427 810.366 286.205 Q808.028 283.959 808.028 280.209 Q808.028 275.834 810.945 273.612 Q813.884 271.39 819.694 271.39 L825.667 271.39 L825.667 270.973 Q825.667 268.034 823.722 266.436 Q821.801 264.816 818.306 264.816 Q816.083 264.816 813.977 265.348 Q811.87 265.881 809.926 266.946 L809.926 263.01 Q812.264 262.108 814.463 261.668 Q816.662 261.205 818.745 261.205 Q824.37 261.205 827.148 264.122 Q829.926 267.038 829.926 272.964 Z" fill="#000000" fill-rule="nonzero" fill-opacity="1" /></svg>
