<?xml version="1.0" encoding="utf-8"?>
<svg xmlns="http://www.w3.org/2000/svg" xmlns:xlink="http://www.w3.org/1999/xlink" width="600" height="400" viewBox="0 0 2400 1600">
<defs>
  <clipPath id="clip480">
    <rect x="0" y="0" width="2400" height="1600"/>
  </clipPath>
</defs>
<path clip-path="url(#clip480)" d="M0 1600 L2400 1600 L2400 0 L0 0  Z" fill="#ffffff" fill-rule="evenodd" fill-opacity="1"/>
<defs>
  <clipPath id="clip481">
    <rect x="480" y="0" width="1681" height="1600"/>
  </clipPath>
</defs>
<path clip-path="url(#clip480)" d="M249.542 1423.18 L2352.76 1423.18 L2352.76 123.472 L249.542 123.472  Z" fill="#ffffff" fill-rule="evenodd" fill-opacity="1"/>
<defs>
  <clipPath id="clip482">
    <rect x="249" y="123" width="2104" height="1301"/>
  </clipPath>
</defs>
<polyline clip-path="url(#clip482)" style="stroke:#000000; stroke-linecap:round; stroke-linejoin:round; stroke-width:2; stroke-opacity:0.1; fill:none" points="290.695,1423.18 290.695,123.472 "/>
<polyline clip-path="url(#clip482)" style="stroke:#000000; stroke-linecap:round; stroke-linejoin:round; stroke-width:2; stroke-opacity:0.1; fill:none" points="749.992,1423.18 749.992,123.472 "/>
<polyline clip-path="url(#clip482)" style="stroke:#000000; stroke-linecap:round; stroke-linejoin:round; stroke-width:2; stroke-opacity:0.1; fill:none" points="1209.29,1423.18 1209.29,123.472 "/>
<polyline clip-path="url(#clip482)" style="stroke:#000000; stroke-linecap:round; stroke-linejoin:round; stroke-width:2; stroke-opacity:0.1; fill:none" points="1668.59,1423.18 1668.59,123.472 "/>
<polyline clip-path="url(#clip482)" style="stroke:#000000; stroke-linecap:round; stroke-linejoin:round; stroke-width:2; stroke-opacity:0.1; fill:none" points="2127.88,1423.18 2127.88,123.472 "/>
<polyline clip-path="url(#clip482)" style="stroke:#000000; stroke-linecap:round; stroke-linejoin:round; stroke-width:2; stroke-opacity:0.1; fill:none" points="249.542,1386.4 2352.76,1386.4 "/>
<polyline clip-path="url(#clip482)" style="stroke:#000000; stroke-linecap:round; stroke-linejoin:round; stroke-width:2; stroke-opacity:0.1; fill:none" points="249.542,1175.86 2352.76,1175.86 "/>
<polyline clip-path="url(#clip482)" style="stroke:#000000; stroke-linecap:round; stroke-linejoin:round; stroke-width:2; stroke-opacity:0.1; fill:none" points="249.542,965.324 2352.76,965.324 "/>
<polyline clip-path="url(#clip482)" style="stroke:#000000; stroke-linecap:round; stroke-linejoin:round; stroke-width:2; stroke-opacity:0.1; fill:none" points="249.542,754.788 2352.76,754.788 "/>
<polyline clip-path="url(#clip482)" style="stroke:#000000; stroke-linecap:round; stroke-linejoin:round; stroke-width:2; stroke-opacity:0.1; fill:none" points="249.542,544.252 2352.76,544.252 "/>
<polyline clip-path="url(#clip482)" style="stroke:#000000; stroke-linecap:round; stroke-linejoin:round; stroke-width:2; stroke-opacity:0.1; fill:none" points="249.542,333.717 2352.76,333.717 "/>
<polyline clip-path="url(#clip480)" style="stroke:#000000; stroke-linecap:round; stroke-linejoin:round; stroke-width:4; stroke-opacity:1; fill:none" points="249.542,1423.18 2352.76,1423.18 "/>
<polyline clip-path="url(#clip480)" style="stroke:#000000; stroke-linecap:round; stroke-linejoin:round; stroke-width:4; stroke-opacity:1; fill:none" points="290.695,1423.18 290.695,1404.28 "/>
<polyline clip-path="url(#clip480)" style="stroke:#000000; stroke-linecap:round; stroke-linejoin:round; stroke-width:4; stroke-opacity:1; fill:none" points="749.992,1423.18 749.992,1404.28 "/>
<polyline clip-path="url(#clip480)" style="stroke:#000000; stroke-linecap:round; stroke-linejoin:round; stroke-width:4; stroke-opacity:1; fill:none" points="1209.29,1423.18 1209.29,1404.28 "/>
<polyline clip-path="url(#clip480)" style="stroke:#000000; stroke-linecap:round; stroke-linejoin:round; stroke-width:4; stroke-opacity:1; fill:none" points="1668.59,1423.18 1668.59,1404.28 "/>
<polyline clip-path="url(#clip480)" style="stroke:#000000; stroke-linecap:round; stroke-linejoin:round; stroke-width:4; stroke-opacity:1; fill:none" points="2127.88,1423.18 2127.88,1404.28 "/>
<path clip-path="url(#clip480)" d="M290.695 1454.1 Q287.084 1454.1 285.255 1457.66 Q283.45 1461.2 283.45 1468.33 Q283.45 1475.44 285.255 1479.01 Q287.084 1482.55 290.695 1482.55 Q294.329 1482.55 296.135 1479.01 Q297.964 1475.44 297.964 1468.33 Q297.964 1461.2 296.135 1457.66 Q294.329 1454.1 290.695 1454.1 M290.695 1450.39 Q296.505 1450.39 299.561 1455 Q302.639 1459.58 302.639 1468.33 Q302.639 1477.06 299.561 1481.67 Q296.505 1486.25 290.695 1486.25 Q284.885 1486.25 281.806 1481.67 Q278.751 1477.06 278.751 1468.33 Q278.751 1459.58 281.806 1455 Q284.885 1450.39 290.695 1450.39 Z" fill="#000000" fill-rule="nonzero" fill-opacity="1" /><path clip-path="url(#clip480)" d="M729.263 1481.64 L745.583 1481.64 L745.583 1485.58 L723.638 1485.58 L723.638 1481.64 Q726.3 1478.89 730.884 1474.26 Q735.49 1469.61 736.671 1468.27 Q738.916 1465.74 739.796 1464.01 Q740.698 1462.25 740.698 1460.56 Q740.698 1457.8 738.754 1456.07 Q736.833 1454.33 733.731 1454.33 Q731.532 1454.33 729.078 1455.09 Q726.648 1455.86 723.87 1457.41 L723.87 1452.69 Q726.694 1451.55 729.147 1450.97 Q731.601 1450.39 733.638 1450.39 Q739.009 1450.39 742.203 1453.08 Q745.397 1455.77 745.397 1460.26 Q745.397 1462.39 744.587 1464.31 Q743.8 1466.2 741.694 1468.8 Q741.115 1469.47 738.013 1472.69 Q734.911 1475.88 729.263 1481.64 Z" fill="#000000" fill-rule="nonzero" fill-opacity="1" /><path clip-path="url(#clip480)" d="M755.444 1451.02 L773.8 1451.02 L773.8 1454.96 L759.726 1454.96 L759.726 1463.43 Q760.745 1463.08 761.763 1462.92 Q762.782 1462.73 763.8 1462.73 Q769.587 1462.73 772.967 1465.9 Q776.346 1469.08 776.346 1474.49 Q776.346 1480.07 772.874 1483.17 Q769.402 1486.25 763.083 1486.25 Q760.907 1486.25 758.638 1485.88 Q756.393 1485.51 753.985 1484.77 L753.985 1480.07 Q756.069 1481.2 758.291 1481.76 Q760.513 1482.32 762.99 1482.32 Q766.995 1482.32 769.332 1480.21 Q771.67 1478.1 771.67 1474.49 Q771.67 1470.88 769.332 1468.77 Q766.995 1466.67 762.99 1466.67 Q761.115 1466.67 759.24 1467.08 Q757.388 1467.5 755.444 1468.38 L755.444 1451.02 Z" fill="#000000" fill-rule="nonzero" fill-opacity="1" /><path clip-path="url(#clip480)" d="M1183.99 1451.02 L1202.35 1451.02 L1202.35 1454.96 L1188.27 1454.96 L1188.27 1463.43 Q1189.29 1463.08 1190.31 1462.92 Q1191.33 1462.73 1192.35 1462.73 Q1198.13 1462.73 1201.51 1465.9 Q1204.89 1469.08 1204.89 1474.49 Q1204.89 1480.07 1201.42 1483.17 Q1197.95 1486.25 1191.63 1486.25 Q1189.45 1486.25 1187.18 1485.88 Q1184.94 1485.51 1182.53 1484.77 L1182.53 1480.07 Q1184.61 1481.2 1186.84 1481.76 Q1189.06 1482.32 1191.53 1482.32 Q1195.54 1482.32 1197.88 1480.21 Q1200.22 1478.1 1200.22 1474.49 Q1200.22 1470.88 1197.88 1468.77 Q1195.54 1466.67 1191.53 1466.67 Q1189.66 1466.67 1187.79 1467.08 Q1185.93 1467.5 1183.99 1468.38 L1183.99 1451.02 Z" fill="#000000" fill-rule="nonzero" fill-opacity="1" /><path clip-path="url(#clip480)" d="M1224.1 1454.1 Q1220.49 1454.1 1218.66 1457.66 Q1216.86 1461.2 1216.86 1468.33 Q1216.86 1475.44 1218.66 1479.01 Q1220.49 1482.55 1224.1 1482.55 Q1227.74 1482.55 1229.54 1479.01 Q1231.37 1475.44 1231.37 1468.33 Q1231.37 1461.2 1229.54 1457.66 Q1227.74 1454.1 1224.1 1454.1 M1224.1 1450.39 Q1229.91 1450.39 1232.97 1455 Q1236.05 1459.58 1236.05 1468.33 Q1236.05 1477.06 1232.97 1481.67 Q1229.91 1486.25 1224.1 1486.25 Q1218.29 1486.25 1215.22 1481.67 Q1212.16 1477.06 1212.16 1468.33 Q1212.16 1459.58 1215.22 1455 Q1218.29 1450.39 1224.1 1450.39 Z" fill="#000000" fill-rule="nonzero" fill-opacity="1" /><path clip-path="url(#clip480)" d="M1642.44 1451.02 L1664.66 1451.02 L1664.66 1453.01 L1652.12 1485.58 L1647.23 1485.58 L1659.04 1454.96 L1642.44 1454.96 L1642.44 1451.02 Z" fill="#000000" fill-rule="nonzero" fill-opacity="1" /><path clip-path="url(#clip480)" d="M1673.83 1451.02 L1692.19 1451.02 L1692.19 1454.96 L1678.11 1454.96 L1678.11 1463.43 Q1679.13 1463.08 1680.15 1462.92 Q1681.17 1462.73 1682.19 1462.73 Q1687.97 1462.73 1691.35 1465.9 Q1694.73 1469.08 1694.73 1474.49 Q1694.73 1480.07 1691.26 1483.17 Q1687.79 1486.25 1681.47 1486.25 Q1679.29 1486.25 1677.02 1485.88 Q1674.78 1485.51 1672.37 1484.77 L1672.37 1480.07 Q1674.45 1481.2 1676.68 1481.76 Q1678.9 1482.32 1681.38 1482.32 Q1685.38 1482.32 1687.72 1480.21 Q1690.06 1478.1 1690.06 1474.49 Q1690.06 1470.88 1687.72 1468.77 Q1685.38 1466.67 1681.38 1466.67 Q1679.5 1466.67 1677.63 1467.08 Q1675.77 1467.5 1673.83 1468.38 L1673.83 1451.02 Z" fill="#000000" fill-rule="nonzero" fill-opacity="1" /><path clip-path="url(#clip480)" d="M2087.49 1481.64 L2095.13 1481.64 L2095.13 1455.28 L2086.82 1456.95 L2086.82 1452.69 L2095.08 1451.02 L2099.76 1451.02 L2099.76 1481.64 L2107.4 1481.64 L2107.4 1485.58 L2087.49 1485.58 L2087.49 1481.64 Z" fill="#000000" fill-rule="nonzero" fill-opacity="1" /><path clip-path="url(#clip480)" d="M2126.84 1454.1 Q2123.23 1454.1 2121.4 1457.66 Q2119.6 1461.2 2119.6 1468.33 Q2119.6 1475.44 2121.4 1479.01 Q2123.23 1482.55 2126.84 1482.55 Q2130.48 1482.55 2132.28 1479.01 Q2134.11 1475.44 2134.11 1468.33 Q2134.11 1461.2 2132.28 1457.66 Q2130.48 1454.1 2126.84 1454.1 M2126.84 1450.39 Q2132.65 1450.39 2135.71 1455 Q2138.79 1459.58 2138.79 1468.33 Q2138.79 1477.06 2135.71 1481.67 Q2132.65 1486.25 2126.84 1486.25 Q2121.03 1486.25 2117.95 1481.67 Q2114.9 1477.06 2114.9 1468.33 Q2114.9 1459.58 2117.95 1455 Q2121.03 1450.39 2126.84 1450.39 Z" fill="#000000" fill-rule="nonzero" fill-opacity="1" /><path clip-path="url(#clip480)" d="M2157 1454.1 Q2153.39 1454.1 2151.56 1457.66 Q2149.76 1461.2 2149.76 1468.33 Q2149.76 1475.44 2151.56 1479.01 Q2153.39 1482.55 2157 1482.55 Q2160.64 1482.55 2162.44 1479.01 Q2164.27 1475.44 2164.27 1468.33 Q2164.27 1461.2 2162.44 1457.66 Q2160.64 1454.1 2157 1454.1 M2157 1450.39 Q2162.81 1450.39 2165.87 1455 Q2168.95 1459.58 2168.95 1468.33 Q2168.95 1477.06 2165.87 1481.67 Q2162.81 1486.25 2157 1486.25 Q2151.19 1486.25 2148.12 1481.67 Q2145.06 1477.06 2145.06 1468.33 Q2145.06 1459.58 2148.12 1455 Q2151.19 1450.39 2157 1450.39 Z" fill="#000000" fill-rule="nonzero" fill-opacity="1" /><path clip-path="url(#clip480)" d="M1223.03 1520.52 L1263.23 1520.52 L1263.23 1525.93 L1246.36 1525.93 L1246.36 1568.04 L1239.89 1568.04 L1239.89 1525.93 L1223.03 1525.93 L1223.03 1520.52 Z" fill="#000000" fill-rule="nonzero" fill-opacity="1" /><path clip-path="url(#clip480)" d="M1267.17 1532.4 L1273.03 1532.4 L1273.03 1568.04 L1267.17 1568.04 L1267.17 1532.4 M1267.17 1518.52 L1273.03 1518.52 L1273.03 1525.93 L1267.17 1525.93 L1267.17 1518.52 Z" fill="#000000" fill-rule="nonzero" fill-opacity="1" /><path clip-path="url(#clip480)" d="M1313.04 1539.24 Q1315.23 1535.29 1318.29 1533.41 Q1321.34 1531.54 1325.48 1531.54 Q1331.05 1531.54 1334.08 1535.45 Q1337.1 1539.33 1337.1 1546.53 L1337.1 1568.04 L1331.21 1568.04 L1331.21 1546.72 Q1331.21 1541.59 1329.4 1539.11 Q1327.58 1536.63 1323.86 1536.63 Q1319.31 1536.63 1316.67 1539.65 Q1314.02 1542.68 1314.02 1547.9 L1314.02 1568.04 L1308.14 1568.04 L1308.14 1546.72 Q1308.14 1541.56 1306.32 1539.11 Q1304.51 1536.63 1300.72 1536.63 Q1296.23 1536.63 1293.59 1539.68 Q1290.95 1542.71 1290.95 1547.9 L1290.95 1568.04 L1285.06 1568.04 L1285.06 1532.4 L1290.95 1532.4 L1290.95 1537.93 Q1292.95 1534.66 1295.75 1533.1 Q1298.55 1531.54 1302.41 1531.54 Q1306.29 1531.54 1308.99 1533.51 Q1311.73 1535.48 1313.04 1539.24 Z" fill="#000000" fill-rule="nonzero" fill-opacity="1" /><path clip-path="url(#clip480)" d="M1379.27 1548.76 L1379.27 1551.62 L1352.35 1551.62 Q1352.73 1557.67 1355.97 1560.85 Q1359.25 1564 1365.08 1564 Q1368.45 1564 1371.6 1563.17 Q1374.78 1562.35 1377.9 1560.69 L1377.9 1566.23 Q1374.75 1567.57 1371.44 1568.27 Q1368.13 1568.97 1364.73 1568.97 Q1356.2 1568.97 1351.2 1564 Q1346.23 1559.04 1346.23 1550.57 Q1346.23 1541.82 1350.94 1536.69 Q1355.69 1531.54 1363.71 1531.54 Q1370.9 1531.54 1375.07 1536.18 Q1379.27 1540.8 1379.27 1548.76 M1373.42 1547.04 Q1373.35 1542.23 1370.71 1539.37 Q1368.1 1536.5 1363.77 1536.5 Q1358.87 1536.5 1355.91 1539.27 Q1352.98 1542.04 1352.54 1547.07 L1373.42 1547.04 Z" fill="#000000" fill-rule="nonzero" fill-opacity="1" /><polyline clip-path="url(#clip480)" style="stroke:#000000; stroke-linecap:round; stroke-linejoin:round; stroke-width:4; stroke-opacity:1; fill:none" points="249.542,1423.18 249.542,123.472 "/>
<polyline clip-path="url(#clip480)" style="stroke:#000000; stroke-linecap:round; stroke-linejoin:round; stroke-width:4; stroke-opacity:1; fill:none" points="249.542,1386.4 268.44,1386.4 "/>
<polyline clip-path="url(#clip480)" style="stroke:#000000; stroke-linecap:round; stroke-linejoin:round; stroke-width:4; stroke-opacity:1; fill:none" points="249.542,1175.86 268.44,1175.86 "/>
<polyline clip-path="url(#clip480)" style="stroke:#000000; stroke-linecap:round; stroke-linejoin:round; stroke-width:4; stroke-opacity:1; fill:none" points="249.542,965.324 268.44,965.324 "/>
<polyline clip-path="url(#clip480)" style="stroke:#000000; stroke-linecap:round; stroke-linejoin:round; stroke-width:4; stroke-opacity:1; fill:none" points="249.542,754.788 268.44,754.788 "/>
<polyline clip-path="url(#clip480)" style="stroke:#000000; stroke-linecap:round; stroke-linejoin:round; stroke-width:4; stroke-opacity:1; fill:none" points="249.542,544.252 268.44,544.252 "/>
<polyline clip-path="url(#clip480)" style="stroke:#000000; stroke-linecap:round; stroke-linejoin:round; stroke-width:4; stroke-opacity:1; fill:none" points="249.542,333.717 268.44,333.717 "/>
<path clip-path="url(#clip480)" d="M126.205 1372.19 Q122.593 1372.19 120.765 1375.76 Q118.959 1379.3 118.959 1386.43 Q118.959 1393.54 120.765 1397.1 Q122.593 1400.64 126.205 1400.64 Q129.839 1400.64 131.644 1397.1 Q133.473 1393.54 133.473 1386.43 Q133.473 1379.3 131.644 1375.76 Q129.839 1372.19 126.205 1372.19 M126.205 1368.49 Q132.015 1368.49 135.07 1373.1 Q138.149 1377.68 138.149 1386.43 Q138.149 1395.16 135.07 1399.76 Q132.015 1404.35 126.205 1404.35 Q120.394 1404.35 117.316 1399.76 Q114.26 1395.16 114.26 1386.43 Q114.26 1377.68 117.316 1373.1 Q120.394 1368.49 126.205 1368.49 Z" fill="#000000" fill-rule="nonzero" fill-opacity="1" /><path clip-path="url(#clip480)" d="M146.366 1397.8 L151.251 1397.8 L151.251 1403.68 L146.366 1403.68 L146.366 1397.8 Z" fill="#000000" fill-rule="nonzero" fill-opacity="1" /><path clip-path="url(#clip480)" d="M171.436 1372.19 Q167.825 1372.19 165.996 1375.76 Q164.19 1379.3 164.19 1386.43 Q164.19 1393.54 165.996 1397.1 Q167.825 1400.64 171.436 1400.64 Q175.07 1400.64 176.876 1397.1 Q178.704 1393.54 178.704 1386.43 Q178.704 1379.3 176.876 1375.76 Q175.07 1372.19 171.436 1372.19 M171.436 1368.49 Q177.246 1368.49 180.301 1373.1 Q183.38 1377.68 183.38 1386.43 Q183.38 1395.16 180.301 1399.76 Q177.246 1404.35 171.436 1404.35 Q165.626 1404.35 162.547 1399.76 Q159.491 1395.16 159.491 1386.43 Q159.491 1377.68 162.547 1373.1 Q165.626 1368.49 171.436 1368.49 Z" fill="#000000" fill-rule="nonzero" fill-opacity="1" /><path clip-path="url(#clip480)" d="M201.598 1372.19 Q197.987 1372.19 196.158 1375.76 Q194.352 1379.3 194.352 1386.43 Q194.352 1393.54 196.158 1397.1 Q197.987 1400.64 201.598 1400.64 Q205.232 1400.64 207.037 1397.1 Q208.866 1393.54 208.866 1386.43 Q208.866 1379.3 207.037 1375.76 Q205.232 1372.19 201.598 1372.19 M201.598 1368.49 Q207.408 1368.49 210.463 1373.1 Q213.542 1377.68 213.542 1386.43 Q213.542 1395.16 210.463 1399.76 Q207.408 1404.35 201.598 1404.35 Q195.787 1404.35 192.709 1399.76 Q189.653 1395.16 189.653 1386.43 Q189.653 1377.68 192.709 1373.1 Q195.787 1368.49 201.598 1368.49 Z" fill="#000000" fill-rule="nonzero" fill-opacity="1" /><path clip-path="url(#clip480)" d="M127.2 1161.66 Q123.589 1161.66 121.76 1165.22 Q119.955 1168.76 119.955 1175.89 Q119.955 1183 121.76 1186.57 Q123.589 1190.11 127.2 1190.11 Q130.834 1190.11 132.64 1186.57 Q134.468 1183 134.468 1175.89 Q134.468 1168.76 132.64 1165.22 Q130.834 1161.66 127.2 1161.66 M127.2 1157.95 Q133.01 1157.95 136.066 1162.56 Q139.144 1167.14 139.144 1175.89 Q139.144 1184.62 136.066 1189.23 Q133.01 1193.81 127.2 1193.81 Q121.39 1193.81 118.311 1189.23 Q115.256 1184.62 115.256 1175.89 Q115.256 1167.14 118.311 1162.56 Q121.39 1157.95 127.2 1157.95 Z" fill="#000000" fill-rule="nonzero" fill-opacity="1" /><path clip-path="url(#clip480)" d="M147.362 1187.26 L152.246 1187.26 L152.246 1193.14 L147.362 1193.14 L147.362 1187.26 Z" fill="#000000" fill-rule="nonzero" fill-opacity="1" /><path clip-path="url(#clip480)" d="M172.431 1161.66 Q168.82 1161.66 166.991 1165.22 Q165.186 1168.76 165.186 1175.89 Q165.186 1183 166.991 1186.57 Q168.82 1190.11 172.431 1190.11 Q176.065 1190.11 177.871 1186.57 Q179.7 1183 179.7 1175.89 Q179.7 1168.76 177.871 1165.22 Q176.065 1161.66 172.431 1161.66 M172.431 1157.95 Q178.241 1157.95 181.297 1162.56 Q184.376 1167.14 184.376 1175.89 Q184.376 1184.62 181.297 1189.23 Q178.241 1193.81 172.431 1193.81 Q166.621 1193.81 163.542 1189.23 Q160.487 1184.62 160.487 1175.89 Q160.487 1167.14 163.542 1162.56 Q166.621 1157.95 172.431 1157.95 Z" fill="#000000" fill-rule="nonzero" fill-opacity="1" /><path clip-path="url(#clip480)" d="M192.639 1158.58 L210.996 1158.58 L210.996 1162.52 L196.922 1162.52 L196.922 1170.99 Q197.94 1170.64 198.959 1170.48 Q199.977 1170.29 200.996 1170.29 Q206.783 1170.29 210.162 1173.46 Q213.542 1176.64 213.542 1182.05 Q213.542 1187.63 210.07 1190.73 Q206.598 1193.81 200.278 1193.81 Q198.102 1193.81 195.834 1193.44 Q193.588 1193.07 191.181 1192.33 L191.181 1187.63 Q193.264 1188.76 195.487 1189.32 Q197.709 1189.88 200.186 1189.88 Q204.19 1189.88 206.528 1187.77 Q208.866 1185.66 208.866 1182.05 Q208.866 1178.44 206.528 1176.33 Q204.19 1174.23 200.186 1174.23 Q198.311 1174.23 196.436 1174.64 Q194.584 1175.06 192.639 1175.94 L192.639 1158.58 Z" fill="#000000" fill-rule="nonzero" fill-opacity="1" /><path clip-path="url(#clip480)" d="M126.205 951.123 Q122.593 951.123 120.765 954.688 Q118.959 958.229 118.959 965.359 Q118.959 972.465 120.765 976.03 Q122.593 979.572 126.205 979.572 Q129.839 979.572 131.644 976.03 Q133.473 972.465 133.473 965.359 Q133.473 958.229 131.644 954.688 Q129.839 951.123 126.205 951.123 M126.205 947.419 Q132.015 947.419 135.07 952.026 Q138.149 956.609 138.149 965.359 Q138.149 974.086 135.07 978.692 Q132.015 983.275 126.205 983.275 Q120.394 983.275 117.316 978.692 Q114.26 974.086 114.26 965.359 Q114.26 956.609 117.316 952.026 Q120.394 947.419 126.205 947.419 Z" fill="#000000" fill-rule="nonzero" fill-opacity="1" /><path clip-path="url(#clip480)" d="M146.366 976.724 L151.251 976.724 L151.251 982.604 L146.366 982.604 L146.366 976.724 Z" fill="#000000" fill-rule="nonzero" fill-opacity="1" /><path clip-path="url(#clip480)" d="M162.246 978.669 L169.885 978.669 L169.885 952.303 L161.575 953.97 L161.575 949.711 L169.839 948.044 L174.514 948.044 L174.514 978.669 L182.153 978.669 L182.153 982.604 L162.246 982.604 L162.246 978.669 Z" fill="#000000" fill-rule="nonzero" fill-opacity="1" /><path clip-path="url(#clip480)" d="M201.598 951.123 Q197.987 951.123 196.158 954.688 Q194.352 958.229 194.352 965.359 Q194.352 972.465 196.158 976.03 Q197.987 979.572 201.598 979.572 Q205.232 979.572 207.037 976.03 Q208.866 972.465 208.866 965.359 Q208.866 958.229 207.037 954.688 Q205.232 951.123 201.598 951.123 M201.598 947.419 Q207.408 947.419 210.463 952.026 Q213.542 956.609 213.542 965.359 Q213.542 974.086 210.463 978.692 Q207.408 983.275 201.598 983.275 Q195.787 983.275 192.709 978.692 Q189.653 974.086 189.653 965.359 Q189.653 956.609 192.709 952.026 Q195.787 947.419 201.598 947.419 Z" fill="#000000" fill-rule="nonzero" fill-opacity="1" /><path clip-path="url(#clip480)" d="M127.2 740.587 Q123.589 740.587 121.76 744.152 Q119.955 747.693 119.955 754.823 Q119.955 761.929 121.76 765.494 Q123.589 769.036 127.2 769.036 Q130.834 769.036 132.64 765.494 Q134.468 761.929 134.468 754.823 Q134.468 747.693 132.64 744.152 Q130.834 740.587 127.2 740.587 M127.2 736.883 Q133.01 736.883 136.066 741.49 Q139.144 746.073 139.144 754.823 Q139.144 763.55 136.066 768.156 Q133.01 772.74 127.2 772.74 Q121.39 772.74 118.311 768.156 Q115.256 763.55 115.256 754.823 Q115.256 746.073 118.311 741.49 Q121.39 736.883 127.2 736.883 Z" fill="#000000" fill-rule="nonzero" fill-opacity="1" /><path clip-path="url(#clip480)" d="M147.362 766.189 L152.246 766.189 L152.246 772.068 L147.362 772.068 L147.362 766.189 Z" fill="#000000" fill-rule="nonzero" fill-opacity="1" /><path clip-path="url(#clip480)" d="M163.241 768.133 L170.88 768.133 L170.88 741.768 L162.57 743.434 L162.57 739.175 L170.834 737.508 L175.51 737.508 L175.51 768.133 L183.149 768.133 L183.149 772.068 L163.241 772.068 L163.241 768.133 Z" fill="#000000" fill-rule="nonzero" fill-opacity="1" /><path clip-path="url(#clip480)" d="M192.639 737.508 L210.996 737.508 L210.996 741.443 L196.922 741.443 L196.922 749.916 Q197.94 749.568 198.959 749.406 Q199.977 749.221 200.996 749.221 Q206.783 749.221 210.162 752.392 Q213.542 755.564 213.542 760.98 Q213.542 766.559 210.07 769.661 Q206.598 772.74 200.278 772.74 Q198.102 772.74 195.834 772.369 Q193.588 771.999 191.181 771.258 L191.181 766.559 Q193.264 767.693 195.487 768.249 Q197.709 768.804 200.186 768.804 Q204.19 768.804 206.528 766.698 Q208.866 764.591 208.866 760.98 Q208.866 757.369 206.528 755.263 Q204.19 753.156 200.186 753.156 Q198.311 753.156 196.436 753.573 Q194.584 753.99 192.639 754.869 L192.639 737.508 Z" fill="#000000" fill-rule="nonzero" fill-opacity="1" /><path clip-path="url(#clip480)" d="M126.205 530.051 Q122.593 530.051 120.765 533.616 Q118.959 537.158 118.959 544.287 Q118.959 551.394 120.765 554.958 Q122.593 558.5 126.205 558.5 Q129.839 558.5 131.644 554.958 Q133.473 551.394 133.473 544.287 Q133.473 537.158 131.644 533.616 Q129.839 530.051 126.205 530.051 M126.205 526.347 Q132.015 526.347 135.07 530.954 Q138.149 535.537 138.149 544.287 Q138.149 553.014 135.07 557.62 Q132.015 562.204 126.205 562.204 Q120.394 562.204 117.316 557.62 Q114.26 553.014 114.26 544.287 Q114.26 535.537 117.316 530.954 Q120.394 526.347 126.205 526.347 Z" fill="#000000" fill-rule="nonzero" fill-opacity="1" /><path clip-path="url(#clip480)" d="M146.366 555.653 L151.251 555.653 L151.251 561.532 L146.366 561.532 L146.366 555.653 Z" fill="#000000" fill-rule="nonzero" fill-opacity="1" /><path clip-path="url(#clip480)" d="M165.464 557.597 L181.783 557.597 L181.783 561.532 L159.839 561.532 L159.839 557.597 Q162.501 554.843 167.084 550.213 Q171.69 545.56 172.871 544.218 Q175.116 541.695 175.996 539.959 Q176.899 538.199 176.899 536.509 Q176.899 533.755 174.954 532.019 Q173.033 530.283 169.931 530.283 Q167.732 530.283 165.278 531.047 Q162.848 531.81 160.07 533.361 L160.07 528.639 Q162.894 527.505 165.348 526.926 Q167.802 526.347 169.839 526.347 Q175.209 526.347 178.403 529.033 Q181.598 531.718 181.598 536.209 Q181.598 538.338 180.788 540.259 Q180.001 542.158 177.894 544.75 Q177.315 545.421 174.214 548.639 Q171.112 551.833 165.464 557.597 Z" fill="#000000" fill-rule="nonzero" fill-opacity="1" /><path clip-path="url(#clip480)" d="M201.598 530.051 Q197.987 530.051 196.158 533.616 Q194.352 537.158 194.352 544.287 Q194.352 551.394 196.158 554.958 Q197.987 558.5 201.598 558.5 Q205.232 558.5 207.037 554.958 Q208.866 551.394 208.866 544.287 Q208.866 537.158 207.037 533.616 Q205.232 530.051 201.598 530.051 M201.598 526.347 Q207.408 526.347 210.463 530.954 Q213.542 535.537 213.542 544.287 Q213.542 553.014 210.463 557.62 Q207.408 562.204 201.598 562.204 Q195.787 562.204 192.709 557.62 Q189.653 553.014 189.653 544.287 Q189.653 535.537 192.709 530.954 Q195.787 526.347 201.598 526.347 Z" fill="#000000" fill-rule="nonzero" fill-opacity="1" /><path clip-path="url(#clip480)" d="M127.2 319.515 Q123.589 319.515 121.76 323.08 Q119.955 326.622 119.955 333.751 Q119.955 340.858 121.76 344.423 Q123.589 347.964 127.2 347.964 Q130.834 347.964 132.64 344.423 Q134.468 340.858 134.468 333.751 Q134.468 326.622 132.64 323.08 Q130.834 319.515 127.2 319.515 M127.2 315.812 Q133.01 315.812 136.066 320.418 Q139.144 325.001 139.144 333.751 Q139.144 342.478 136.066 347.085 Q133.01 351.668 127.2 351.668 Q121.39 351.668 118.311 347.085 Q115.256 342.478 115.256 333.751 Q115.256 325.001 118.311 320.418 Q121.39 315.812 127.2 315.812 Z" fill="#000000" fill-rule="nonzero" fill-opacity="1" /><path clip-path="url(#clip480)" d="M147.362 345.117 L152.246 345.117 L152.246 350.997 L147.362 350.997 L147.362 345.117 Z" fill="#000000" fill-rule="nonzero" fill-opacity="1" /><path clip-path="url(#clip480)" d="M166.459 347.062 L182.778 347.062 L182.778 350.997 L160.834 350.997 L160.834 347.062 Q163.496 344.307 168.079 339.677 Q172.686 335.025 173.866 333.682 Q176.112 331.159 176.991 329.423 Q177.894 327.663 177.894 325.974 Q177.894 323.219 175.95 321.483 Q174.028 319.747 170.927 319.747 Q168.727 319.747 166.274 320.511 Q163.843 321.275 161.065 322.826 L161.065 318.103 Q163.89 316.969 166.343 316.39 Q168.797 315.812 170.834 315.812 Q176.204 315.812 179.399 318.497 Q182.593 321.182 182.593 325.673 Q182.593 327.802 181.783 329.724 Q180.996 331.622 178.889 334.214 Q178.311 334.886 175.209 338.103 Q172.107 341.298 166.459 347.062 Z" fill="#000000" fill-rule="nonzero" fill-opacity="1" /><path clip-path="url(#clip480)" d="M192.639 316.437 L210.996 316.437 L210.996 320.372 L196.922 320.372 L196.922 328.844 Q197.94 328.497 198.959 328.335 Q199.977 328.15 200.996 328.15 Q206.783 328.15 210.162 331.321 Q213.542 334.492 213.542 339.909 Q213.542 345.487 210.07 348.589 Q206.598 351.668 200.278 351.668 Q198.102 351.668 195.834 351.298 Q193.588 350.927 191.181 350.186 L191.181 345.487 Q193.264 346.622 195.487 347.177 Q197.709 347.733 200.186 347.733 Q204.19 347.733 206.528 345.626 Q208.866 343.52 208.866 339.909 Q208.866 336.298 206.528 334.191 Q204.19 332.085 200.186 332.085 Q198.311 332.085 196.436 332.501 Q194.584 332.918 192.639 333.798 L192.639 316.437 Z" fill="#000000" fill-rule="nonzero" fill-opacity="1" /><path clip-path="url(#clip480)" d="M20.1444 820.225 L26.9239 820.225 Q23.9002 823.472 22.4043 827.164 Q20.9083 830.824 20.9083 834.962 Q20.9083 843.11 25.9054 847.439 Q30.8707 851.767 40.2919 851.767 Q49.6813 851.767 54.6784 847.439 Q59.6436 843.11 59.6436 834.962 Q59.6436 830.824 58.1477 827.164 Q56.6518 823.472 53.6281 820.225 L60.3439 820.225 Q62.6355 823.599 63.7814 827.387 Q64.9272 831.143 64.9272 835.344 Q64.9272 846.134 58.3387 852.34 Q51.7183 858.547 40.2919 858.547 Q28.8336 858.547 22.2451 852.34 Q15.6248 846.134 15.6248 835.344 Q15.6248 831.079 16.7706 827.323 Q17.8846 823.535 20.1444 820.225 Z" fill="#000000" fill-rule="nonzero" fill-opacity="1" /><path clip-path="url(#clip480)" d="M16.4842 816.883 L16.4842 776.684 L21.895 776.684 L21.895 793.553 L64.0042 793.553 L64.0042 800.014 L21.895 800.014 L21.895 816.883 L16.4842 816.883 Z" fill="#000000" fill-rule="nonzero" fill-opacity="1" /><path clip-path="url(#clip480)" d="M16.4842 770.477 L16.4842 761.82 L56.238 740.749 L16.4842 740.749 L16.4842 734.511 L64.0042 734.511 L64.0042 743.168 L24.2503 764.239 L64.0042 764.239 L64.0042 770.477 L16.4842 770.477 Z" fill="#000000" fill-rule="nonzero" fill-opacity="1" /><path clip-path="url(#clip480)" d="M16.4842 728.305 L16.4842 688.105 L21.895 688.105 L21.895 704.974 L64.0042 704.974 L64.0042 711.435 L21.895 711.435 L21.895 728.305 L16.4842 728.305 Z" fill="#000000" fill-rule="nonzero" fill-opacity="1" /><path clip-path="url(#clip480)" d="M1026.76 18.8205 L1026.76 41.5461 L1037.05 41.5461 Q1042.76 41.5461 1045.88 38.5889 Q1049 35.6318 1049 30.163 Q1049 24.7348 1045.88 21.7777 Q1042.76 18.8205 1037.05 18.8205 L1026.76 18.8205 M1018.58 12.096 L1037.05 12.096 Q1047.22 12.096 1052.4 16.714 Q1057.63 21.2916 1057.63 30.163 Q1057.63 39.1155 1052.4 43.6931 Q1047.22 48.2706 1037.05 48.2706 L1026.76 48.2706 L1026.76 72.576 L1018.58 72.576 L1018.58 12.096 Z" fill="#000000" fill-rule="nonzero" fill-opacity="1" /><path clip-path="url(#clip480)" d="M1085.18 49.7694 Q1076.14 49.7694 1072.66 51.8354 Q1069.17 53.9013 1069.17 58.8839 Q1069.17 62.8538 1071.77 65.2034 Q1074.4 67.5124 1078.9 67.5124 Q1085.09 67.5124 1088.82 63.1374 Q1092.59 58.7219 1092.59 51.4303 L1092.59 49.7694 L1085.18 49.7694 M1100.04 46.6907 L1100.04 72.576 L1092.59 72.576 L1092.59 65.6895 Q1090.04 69.8214 1086.23 71.8063 Q1082.42 73.7508 1076.91 73.7508 Q1069.94 73.7508 1065.81 69.8619 Q1061.72 65.9325 1061.72 59.3701 Q1061.72 51.7138 1066.82 47.825 Q1071.97 43.9361 1082.14 43.9361 L1092.59 43.9361 L1092.59 43.2069 Q1092.59 38.0623 1089.19 35.2672 Q1085.82 32.4315 1079.71 32.4315 Q1075.82 32.4315 1072.13 33.3632 Q1068.44 34.295 1065.04 36.1584 L1065.04 29.2718 Q1069.13 27.692 1072.98 26.9223 Q1076.83 26.1121 1080.48 26.1121 Q1090.32 26.1121 1095.18 31.2163 Q1100.04 36.3204 1100.04 46.6907 Z" fill="#000000" fill-rule="nonzero" fill-opacity="1" /><path clip-path="url(#clip480)" d="M1122.77 14.324 L1122.77 27.2059 L1138.12 27.2059 L1138.12 32.9987 L1122.77 32.9987 L1122.77 57.6282 Q1122.77 63.1779 1124.27 64.7578 Q1125.81 66.3376 1130.46 66.3376 L1138.12 66.3376 L1138.12 72.576 L1130.46 72.576 Q1121.84 72.576 1118.55 69.3758 Q1115.27 66.1351 1115.27 57.6282 L1115.27 32.9987 L1109.8 32.9987 L1109.8 27.2059 L1115.27 27.2059 L1115.27 14.324 L1122.77 14.324 Z" fill="#000000" fill-rule="nonzero" fill-opacity="1" /><path clip-path="url(#clip480)" d="M1147.92 27.2059 L1155.38 27.2059 L1155.38 72.576 L1147.92 72.576 L1147.92 27.2059 M1147.92 9.54393 L1155.38 9.54393 L1155.38 18.9825 L1147.92 18.9825 L1147.92 9.54393 Z" fill="#000000" fill-rule="nonzero" fill-opacity="1" /><path clip-path="url(#clip480)" d="M1209.78 48.0275 L1209.78 51.6733 L1175.51 51.6733 Q1176 59.3701 1180.13 63.421 Q1184.3 67.4314 1191.71 67.4314 Q1196.01 67.4314 1200.02 66.3781 Q1204.07 65.3249 1208.04 63.2184 L1208.04 70.267 Q1204.03 71.9684 1199.82 72.8596 Q1195.6 73.7508 1191.27 73.7508 Q1180.41 73.7508 1174.05 67.4314 Q1167.73 61.1119 1167.73 50.3365 Q1167.73 39.1965 1173.73 32.6746 Q1179.76 26.1121 1189.97 26.1121 Q1199.13 26.1121 1204.43 32.0264 Q1209.78 37.9003 1209.78 48.0275 M1202.33 45.84 Q1202.25 39.7232 1198.88 36.0774 Q1195.56 32.4315 1190.05 32.4315 Q1183.81 32.4315 1180.05 35.9558 Q1176.32 39.4801 1175.75 45.8805 L1202.33 45.84 Z" fill="#000000" fill-rule="nonzero" fill-opacity="1" /><path clip-path="url(#clip480)" d="M1259.73 45.1919 L1259.73 72.576 L1252.27 72.576 L1252.27 45.4349 Q1252.27 38.994 1249.76 35.7938 Q1247.25 32.5936 1242.23 32.5936 Q1236.19 32.5936 1232.71 36.4419 Q1229.23 40.2903 1229.23 46.9338 L1229.23 72.576 L1221.73 72.576 L1221.73 27.2059 L1229.23 27.2059 L1229.23 34.2544 Q1231.9 30.163 1235.5 28.1376 Q1239.15 26.1121 1243.89 26.1121 Q1251.71 26.1121 1255.72 30.9732 Q1259.73 35.7938 1259.73 45.1919 Z" fill="#000000" fill-rule="nonzero" fill-opacity="1" /><path clip-path="url(#clip480)" d="M1281.97 14.324 L1281.97 27.2059 L1297.32 27.2059 L1297.32 32.9987 L1281.97 32.9987 L1281.97 57.6282 Q1281.97 63.1779 1283.47 64.7578 Q1285.01 66.3376 1289.66 66.3376 L1297.32 66.3376 L1297.32 72.576 L1289.66 72.576 Q1281.04 72.576 1277.75 69.3758 Q1274.47 66.1351 1274.47 57.6282 L1274.47 32.9987 L1269.01 32.9987 L1269.01 27.2059 L1274.47 27.2059 L1274.47 14.324 L1281.97 14.324 Z" fill="#000000" fill-rule="nonzero" fill-opacity="1" /><path clip-path="url(#clip480)" d="M1371.21 45.1919 L1371.21 72.576 L1363.76 72.576 L1363.76 45.4349 Q1363.76 38.994 1361.24 35.7938 Q1358.73 32.5936 1353.71 32.5936 Q1347.67 32.5936 1344.19 36.4419 Q1340.71 40.2903 1340.71 46.9338 L1340.71 72.576 L1333.21 72.576 L1333.21 27.2059 L1340.71 27.2059 L1340.71 34.2544 Q1343.38 30.163 1346.98 28.1376 Q1350.63 26.1121 1355.37 26.1121 Q1363.19 26.1121 1367.2 30.9732 Q1371.21 35.7938 1371.21 45.1919 Z" fill="#000000" fill-rule="nonzero" fill-opacity="1" /><path clip-path="url(#clip480)" d="M1388.55 65.6895 L1401.92 65.6895 L1401.92 19.5497 L1387.37 22.4663 L1387.37 15.0127 L1401.83 12.096 L1410.02 12.096 L1410.02 65.6895 L1423.39 65.6895 L1423.39 72.576 L1388.55 72.576 L1388.55 65.6895 Z" fill="#000000" fill-rule="nonzero" fill-opacity="1" /><path clip-path="url(#clip480)" d="M1457.41 17.4837 Q1451.09 17.4837 1447.89 23.7221 Q1444.73 29.92 1444.73 42.3968 Q1444.73 54.833 1447.89 61.0714 Q1451.09 67.2693 1457.41 67.2693 Q1463.77 67.2693 1466.93 61.0714 Q1470.13 54.833 1470.13 42.3968 Q1470.13 29.92 1466.93 23.7221 Q1463.77 17.4837 1457.41 17.4837 M1457.41 11.0023 Q1467.58 11.0023 1472.93 19.0636 Q1478.32 27.0843 1478.32 42.3968 Q1478.32 57.6687 1472.93 65.73 Q1467.58 73.7508 1457.41 73.7508 Q1447.24 73.7508 1441.86 65.73 Q1436.51 57.6687 1436.51 42.3968 Q1436.51 27.0843 1441.86 19.0636 Q1447.24 11.0023 1457.41 11.0023 Z" fill="#000000" fill-rule="nonzero" fill-opacity="1" /><path clip-path="url(#clip480)" d="M1510.2 17.4837 Q1503.88 17.4837 1500.68 23.7221 Q1497.52 29.92 1497.52 42.3968 Q1497.52 54.833 1500.68 61.0714 Q1503.88 67.2693 1510.2 67.2693 Q1516.56 67.2693 1519.72 61.0714 Q1522.92 54.833 1522.92 42.3968 Q1522.92 29.92 1519.72 23.7221 Q1516.56 17.4837 1510.2 17.4837 M1510.2 11.0023 Q1520.36 11.0023 1525.71 19.0636 Q1531.1 27.0843 1531.1 42.3968 Q1531.1 57.6687 1525.71 65.73 Q1520.36 73.7508 1510.2 73.7508 Q1500.03 73.7508 1494.64 65.73 Q1489.29 57.6687 1489.29 42.3968 Q1489.29 27.0843 1494.64 19.0636 Q1500.03 11.0023 1510.2 11.0023 Z" fill="#000000" fill-rule="nonzero" fill-opacity="1" /><path clip-path="url(#clip480)" d="M1562.98 43.8551 Q1557.15 43.8551 1553.78 46.9743 Q1550.46 50.0935 1550.46 55.5622 Q1550.46 61.0309 1553.78 64.1501 Q1557.15 67.2693 1562.98 67.2693 Q1568.81 67.2693 1572.17 64.1501 Q1575.54 60.9904 1575.54 55.5622 Q1575.54 50.0935 1572.17 46.9743 Q1568.85 43.8551 1562.98 43.8551 M1554.8 40.3713 Q1549.53 39.075 1546.57 35.4697 Q1543.66 31.8644 1543.66 26.6793 Q1543.66 19.4281 1548.8 15.2152 Q1553.99 11.0023 1562.98 11.0023 Q1572.01 11.0023 1577.16 15.2152 Q1582.3 19.4281 1582.3 26.6793 Q1582.3 31.8644 1579.34 35.4697 Q1576.43 39.075 1571.2 40.3713 Q1577.12 41.7486 1580.4 45.759 Q1583.72 49.7694 1583.72 55.5622 Q1583.72 64.3527 1578.33 69.0517 Q1572.98 73.7508 1562.98 73.7508 Q1552.97 73.7508 1547.59 69.0517 Q1542.24 64.3527 1542.24 55.5622 Q1542.24 49.7694 1545.56 45.759 Q1548.88 41.7486 1554.8 40.3713 M1551.8 27.4489 Q1551.8 32.148 1554.72 34.7811 Q1557.67 37.4142 1562.98 37.4142 Q1568.25 37.4142 1571.2 34.7811 Q1574.2 32.148 1574.2 27.4489 Q1574.2 22.7499 1571.2 20.1168 Q1568.25 17.4837 1562.98 17.4837 Q1557.67 17.4837 1554.72 20.1168 Q1551.8 22.7499 1551.8 27.4489 Z" fill="#000000" fill-rule="nonzero" fill-opacity="1" /><polyline clip-path="url(#clip482)" style="stroke:#009af9; stroke-linecap:round; stroke-linejoin:round; stroke-width:8; stroke-opacity:1; fill:none" points="309.067,1386.4 327.439,1234.08 345.811,1098.51 364.183,977.39 382.555,869.213 400.926,772.733 419.298,686.848 437.67,610.566 456.042,542.99 474.414,483.304 492.786,430.768 511.158,384.708 529.53,344.515 547.902,309.635 566.273,279.559 584.645,253.828 603.017,232.028 621.389,213.783 639.761,198.747 658.133,186.605 676.505,177.07 694.877,169.89 713.249,164.834 731.62,161.687 749.992,160.256 768.364,160.362 786.736,161.844 805.108,164.56 823.48,168.384 841.852,173.198 860.224,178.893 878.596,185.37 896.967,192.537 915.339,200.31 933.711,208.619 952.083,217.403 970.455,226.603 988.827,236.166 1007.2,246.043 1025.57,256.187 1043.94,266.555 1062.31,277.109 1080.69,287.816 1099.06,298.649 1117.43,309.584 1135.8,320.6 1154.17,331.674 1172.55,342.788 1190.92,353.922 1209.29,365.059 1227.66,376.183 1246.03,387.28 1264.41,398.338 1282.78,409.349 1301.15,420.307 1319.52,431.205 1337.89,442.036 1356.26,452.794 1374.64,463.473 1393.01,474.069 1411.38,484.575 1429.75,494.987 1448.12,505.301 1466.5,515.512 1484.87,525.619 1503.24,535.621 1521.61,545.518 1539.98,555.309 1558.36,564.994 1576.73,574.572 1595.1,584.042 1613.47,593.405 1631.84,602.659 1650.21,611.804 1668.59,620.84 1686.96,629.766 1705.33,638.58 1723.7,647.284 1742.07,655.879 1760.45,664.365 1778.82,672.744 1797.19,681.018 1815.56,689.187 1833.93,697.253 1852.31,705.216 1870.68,713.077 1889.05,720.838 1907.42,728.499 1925.79,736.061 1944.17,743.525 1962.54,750.892 1980.91,758.162 1999.28,765.336 2017.65,772.414 2036.02,779.398 2054.4,786.291 2072.77,793.092 2091.14,799.803 2109.51,806.426 2127.88,812.962 2146.26,819.411 2164.63,825.775 2183,832.055 2201.37,838.251 2219.74,844.366 2238.12,850.399 2256.49,856.353 2274.86,862.227 2293.23,866.966 "/>
<circle clip-path="url(#clip482)" cx="433.383" cy="460.038" r="18" fill="#e26f46" fill-rule="evenodd" fill-opacity="1" stroke="#000000" stroke-opacity="1" stroke-width="3.2"/>
<circle clip-path="url(#clip482)" cx="495.848" cy="502.145" r="18" fill="#e26f46" fill-rule="evenodd" fill-opacity="1" stroke="#000000" stroke-opacity="1" stroke-width="3.2"/>
<circle clip-path="url(#clip482)" cx="1655.73" cy="586.36" r="18" fill="#e26f46" fill-rule="evenodd" fill-opacity="1" stroke="#000000" stroke-opacity="1" stroke-width="3.2"/>
<circle clip-path="url(#clip482)" cx="2271.49" cy="881.11" r="18" fill="#e26f46" fill-rule="evenodd" fill-opacity="1" stroke="#000000" stroke-opacity="1" stroke-width="3.2"/>
<path clip-path="url(#clip480)" d="M1688.09 322.316 L2282.65 322.316 L2282.65 166.796 L1688.09 166.796  Z" fill="#ffffff" fill-rule="evenodd" fill-opacity="1"/>
<polyline clip-path="url(#clip480)" style="stroke:#000000; stroke-linecap:round; stroke-linejoin:round; stroke-width:4; stroke-opacity:1; fill:none" points="1688.09,322.316 2282.65,322.316 2282.65,166.796 1688.09,166.796 1688.09,322.316 "/>
<polyline clip-path="url(#clip480)" style="stroke:#009af9; stroke-linecap:round; stroke-linejoin:round; stroke-width:8; stroke-opacity:1; fill:none" points="1711.46,218.636 1851.68,218.636 "/>
<path clip-path="url(#clip480)" d="M1875.05 201.356 L1882.01 201.356 L1890.83 224.874 L1899.7 201.356 L1906.67 201.356 L1906.67 235.916 L1902.11 235.916 L1902.11 205.569 L1893.19 229.272 L1888.49 229.272 L1879.58 205.569 L1879.58 235.916 L1875.05 235.916 L1875.05 201.356 Z" fill="#000000" fill-rule="nonzero" fill-opacity="1" /><path clip-path="url(#clip480)" d="M1925.81 212.976 Q1922.38 212.976 1920.39 215.661 Q1918.4 218.323 1918.4 222.976 Q1918.4 227.629 1920.37 230.314 Q1922.36 232.976 1925.81 232.976 Q1929.21 232.976 1931.2 230.291 Q1933.19 227.606 1933.19 222.976 Q1933.19 218.37 1931.2 215.684 Q1929.21 212.976 1925.81 212.976 M1925.81 209.365 Q1931.36 209.365 1934.54 212.976 Q1937.71 216.587 1937.71 222.976 Q1937.71 229.342 1934.54 232.976 Q1931.36 236.587 1925.81 236.587 Q1920.23 236.587 1917.06 232.976 Q1913.91 229.342 1913.91 222.976 Q1913.91 216.587 1917.06 212.976 Q1920.23 209.365 1925.81 209.365 Z" fill="#000000" fill-rule="nonzero" fill-opacity="1" /><path clip-path="url(#clip480)" d="M1961.83 213.925 L1961.83 199.897 L1966.09 199.897 L1966.09 235.916 L1961.83 235.916 L1961.83 232.027 Q1960.49 234.342 1958.42 235.476 Q1956.39 236.587 1953.52 236.587 Q1948.82 236.587 1945.86 232.837 Q1942.92 229.087 1942.92 222.976 Q1942.92 216.865 1945.86 213.115 Q1948.82 209.365 1953.52 209.365 Q1956.39 209.365 1958.42 210.499 Q1960.49 211.61 1961.83 213.925 M1947.31 222.976 Q1947.31 227.675 1949.24 230.36 Q1951.18 233.022 1954.56 233.022 Q1957.94 233.022 1959.88 230.36 Q1961.83 227.675 1961.83 222.976 Q1961.83 218.277 1959.88 215.615 Q1957.94 212.93 1954.56 212.93 Q1951.18 212.93 1949.24 215.615 Q1947.31 218.277 1947.31 222.976 Z" fill="#000000" fill-rule="nonzero" fill-opacity="1" /><path clip-path="url(#clip480)" d="M1997.04 221.888 L1997.04 223.971 L1977.45 223.971 Q1977.73 228.369 1980.09 230.684 Q1982.48 232.976 1986.71 232.976 Q1989.17 232.976 1991.46 232.374 Q1993.77 231.772 1996.04 230.569 L1996.04 234.596 Q1993.75 235.568 1991.34 236.078 Q1988.93 236.587 1986.46 236.587 Q1980.25 236.587 1976.62 232.976 Q1973.01 229.365 1973.01 223.207 Q1973.01 216.842 1976.43 213.115 Q1979.88 209.365 1985.72 209.365 Q1990.95 209.365 1993.98 212.745 Q1997.04 216.101 1997.04 221.888 M1992.78 220.638 Q1992.73 217.143 1990.81 215.059 Q1988.91 212.976 1985.76 212.976 Q1982.2 212.976 1980.05 214.99 Q1977.92 217.004 1977.59 220.661 L1992.78 220.638 Z" fill="#000000" fill-rule="nonzero" fill-opacity="1" /><path clip-path="url(#clip480)" d="M2004.03 199.897 L2008.29 199.897 L2008.29 235.916 L2004.03 235.916 L2004.03 199.897 Z" fill="#000000" fill-rule="nonzero" fill-opacity="1" /><path clip-path="url(#clip480)" d="M2037.13 205.198 L2037.13 218.184 L2043.01 218.184 Q2046.27 218.184 2048.05 216.495 Q2049.84 214.805 2049.84 211.68 Q2049.84 208.578 2048.05 206.888 Q2046.27 205.198 2043.01 205.198 L2037.13 205.198 M2032.45 201.356 L2043.01 201.356 Q2048.82 201.356 2051.78 203.995 Q2054.77 206.61 2054.77 211.68 Q2054.77 216.795 2051.78 219.411 Q2048.82 222.027 2043.01 222.027 L2037.13 222.027 L2037.13 235.916 L2032.45 235.916 L2032.45 201.356 Z" fill="#000000" fill-rule="nonzero" fill-opacity="1" /><path clip-path="url(#clip480)" d="M2075.04 213.971 Q2074.33 213.555 2073.47 213.37 Q2072.64 213.161 2071.62 213.161 Q2068.01 213.161 2066.06 215.522 Q2064.14 217.86 2064.14 222.258 L2064.14 235.916 L2059.86 235.916 L2059.86 209.99 L2064.14 209.99 L2064.14 214.018 Q2065.48 211.657 2067.64 210.522 Q2069.79 209.365 2072.87 209.365 Q2073.31 209.365 2073.84 209.434 Q2074.37 209.481 2075.02 209.596 L2075.04 213.971 Z" fill="#000000" fill-rule="nonzero" fill-opacity="1" /><path clip-path="url(#clip480)" d="M2100.65 221.888 L2100.65 223.971 L2081.06 223.971 Q2081.34 228.369 2083.7 230.684 Q2086.09 232.976 2090.32 232.976 Q2092.78 232.976 2095.07 232.374 Q2097.38 231.772 2099.65 230.569 L2099.65 234.596 Q2097.36 235.568 2094.95 236.078 Q2092.54 236.587 2090.07 236.587 Q2083.86 236.587 2080.23 232.976 Q2076.62 229.365 2076.62 223.207 Q2076.62 216.842 2080.04 213.115 Q2083.49 209.365 2089.33 209.365 Q2094.56 209.365 2097.59 212.745 Q2100.65 216.101 2100.65 221.888 M2096.39 220.638 Q2096.34 217.143 2094.42 215.059 Q2092.52 212.976 2089.37 212.976 Q2085.81 212.976 2083.66 214.99 Q2081.53 217.004 2081.2 220.661 L2096.39 220.638 Z" fill="#000000" fill-rule="nonzero" fill-opacity="1" /><path clip-path="url(#clip480)" d="M2124.7 213.925 L2124.7 199.897 L2128.96 199.897 L2128.96 235.916 L2124.7 235.916 L2124.7 232.027 Q2123.35 234.342 2121.29 235.476 Q2119.26 236.587 2116.39 236.587 Q2111.69 236.587 2108.72 232.837 Q2105.79 229.087 2105.79 222.976 Q2105.79 216.865 2108.72 213.115 Q2111.69 209.365 2116.39 209.365 Q2119.26 209.365 2121.29 210.499 Q2123.35 211.61 2124.7 213.925 M2110.18 222.976 Q2110.18 227.675 2112.1 230.36 Q2114.05 233.022 2117.43 233.022 Q2120.81 233.022 2122.75 230.36 Q2124.7 227.675 2124.7 222.976 Q2124.7 218.277 2122.75 215.615 Q2120.81 212.93 2117.43 212.93 Q2114.05 212.93 2112.1 215.615 Q2110.18 218.277 2110.18 222.976 Z" fill="#000000" fill-rule="nonzero" fill-opacity="1" /><path clip-path="url(#clip480)" d="M2137.73 209.99 L2141.99 209.99 L2141.99 235.916 L2137.73 235.916 L2137.73 209.99 M2137.73 199.897 L2141.99 199.897 L2141.99 205.291 L2137.73 205.291 L2137.73 199.897 Z" fill="#000000" fill-rule="nonzero" fill-opacity="1" /><path clip-path="url(#clip480)" d="M2169.56 210.985 L2169.56 214.967 Q2167.75 213.971 2165.92 213.485 Q2164.12 212.976 2162.27 212.976 Q2158.12 212.976 2155.83 215.615 Q2153.54 218.231 2153.54 222.976 Q2153.54 227.721 2155.83 230.36 Q2158.12 232.976 2162.27 232.976 Q2164.12 232.976 2165.92 232.49 Q2167.75 231.981 2169.56 230.985 L2169.56 234.92 Q2167.78 235.754 2165.85 236.17 Q2163.96 236.587 2161.8 236.587 Q2155.95 236.587 2152.5 232.906 Q2149.05 229.226 2149.05 222.976 Q2149.05 216.633 2152.52 212.999 Q2156.02 209.365 2162.08 209.365 Q2164.05 209.365 2165.92 209.782 Q2167.8 210.175 2169.56 210.985 Z" fill="#000000" fill-rule="nonzero" fill-opacity="1" /><path clip-path="url(#clip480)" d="M2181.18 202.629 L2181.18 209.99 L2189.95 209.99 L2189.95 213.3 L2181.18 213.3 L2181.18 227.374 Q2181.18 230.545 2182.03 231.448 Q2182.91 232.351 2185.58 232.351 L2189.95 232.351 L2189.95 235.916 L2185.58 235.916 Q2180.65 235.916 2178.77 234.087 Q2176.9 232.235 2176.9 227.374 L2176.9 213.3 L2173.77 213.3 L2173.77 209.99 L2176.9 209.99 L2176.9 202.629 L2181.18 202.629 Z" fill="#000000" fill-rule="nonzero" fill-opacity="1" /><path clip-path="url(#clip480)" d="M2195.55 209.99 L2199.81 209.99 L2199.81 235.916 L2195.55 235.916 L2195.55 209.99 M2195.55 199.897 L2199.81 199.897 L2199.81 205.291 L2195.55 205.291 L2195.55 199.897 Z" fill="#000000" fill-rule="nonzero" fill-opacity="1" /><path clip-path="url(#clip480)" d="M2218.77 212.976 Q2215.34 212.976 2213.35 215.661 Q2211.36 218.323 2211.36 222.976 Q2211.36 227.629 2213.33 230.314 Q2215.32 232.976 2218.77 232.976 Q2222.17 232.976 2224.16 230.291 Q2226.15 227.606 2226.15 222.976 Q2226.15 218.37 2224.16 215.684 Q2222.17 212.976 2218.77 212.976 M2218.77 209.365 Q2224.33 209.365 2227.5 212.976 Q2230.67 216.587 2230.67 222.976 Q2230.67 229.342 2227.5 232.976 Q2224.33 236.587 2218.77 236.587 Q2213.19 236.587 2210.02 232.976 Q2206.87 229.342 2206.87 222.976 Q2206.87 216.587 2210.02 212.976 Q2213.19 209.365 2218.77 209.365 Z" fill="#000000" fill-rule="nonzero" fill-opacity="1" /><path clip-path="url(#clip480)" d="M2259.28 220.268 L2259.28 235.916 L2255.02 235.916 L2255.02 220.407 Q2255.02 216.726 2253.59 214.897 Q2252.15 213.069 2249.28 213.069 Q2245.83 213.069 2243.84 215.268 Q2241.85 217.467 2241.85 221.263 L2241.85 235.916 L2237.57 235.916 L2237.57 209.99 L2241.85 209.99 L2241.85 214.018 Q2243.38 211.68 2245.44 210.522 Q2247.52 209.365 2250.23 209.365 Q2254.7 209.365 2256.99 212.143 Q2259.28 214.897 2259.28 220.268 Z" fill="#000000" fill-rule="nonzero" fill-opacity="1" /><circle clip-path="url(#clip480)" cx="1781.57" cy="270.476" r="20.9455" fill="#e26f46" fill-rule="evenodd" fill-opacity="1" stroke="#000000" stroke-opacity="1" stroke-width="3.72364"/>
<path clip-path="url(#clip480)" d="M1891.06 256.367 Q1885.97 256.367 1882.96 260.163 Q1879.98 263.96 1879.98 270.51 Q1879.98 277.038 1882.96 280.834 Q1885.97 284.631 1891.06 284.631 Q1896.16 284.631 1899.12 280.834 Q1902.11 277.038 1902.11 270.51 Q1902.11 263.96 1899.12 260.163 Q1896.16 256.367 1891.06 256.367 M1891.06 252.571 Q1898.33 252.571 1902.68 257.455 Q1907.04 262.316 1907.04 270.51 Q1907.04 278.682 1902.68 283.566 Q1898.33 288.427 1891.06 288.427 Q1883.77 288.427 1879.4 283.566 Q1875.05 278.705 1875.05 270.51 Q1875.05 262.316 1879.4 257.455 Q1883.77 252.571 1891.06 252.571 Z" fill="#000000" fill-rule="nonzero" fill-opacity="1" /><path clip-path="url(#clip480)" d="M1932.78 274.816 Q1932.78 270.117 1930.83 267.455 Q1928.91 264.77 1925.53 264.77 Q1922.15 264.77 1920.21 267.455 Q1918.29 270.117 1918.29 274.816 Q1918.29 279.515 1920.21 282.2 Q1922.15 284.862 1925.53 284.862 Q1928.91 284.862 1930.83 282.2 Q1932.78 279.515 1932.78 274.816 M1918.29 265.765 Q1919.63 263.45 1921.67 262.339 Q1923.73 261.205 1926.57 261.205 Q1931.3 261.205 1934.24 264.955 Q1937.2 268.705 1937.2 274.816 Q1937.2 280.927 1934.24 284.677 Q1931.3 288.427 1926.57 288.427 Q1923.73 288.427 1921.67 287.316 Q1919.63 286.182 1918.29 283.867 L1918.29 287.756 L1914 287.756 L1914 251.737 L1918.29 251.737 L1918.29 265.765 Z" fill="#000000" fill-rule="nonzero" fill-opacity="1" /><path clip-path="url(#clip480)" d="M1960.79 262.594 L1960.79 266.622 Q1958.98 265.696 1957.04 265.233 Q1955.09 264.77 1953.01 264.77 Q1949.84 264.77 1948.24 265.742 Q1946.67 266.714 1946.67 268.659 Q1946.67 270.14 1947.8 270.997 Q1948.93 271.83 1952.36 272.594 L1953.82 272.918 Q1958.36 273.89 1960.25 275.672 Q1962.17 277.432 1962.17 280.603 Q1962.17 284.214 1959.3 286.321 Q1956.46 288.427 1951.46 288.427 Q1949.37 288.427 1947.11 288.01 Q1944.86 287.617 1942.36 286.807 L1942.36 282.409 Q1944.72 283.635 1947.01 284.26 Q1949.3 284.862 1951.55 284.862 Q1954.56 284.862 1956.18 283.844 Q1957.8 282.802 1957.8 280.927 Q1957.8 279.191 1956.62 278.265 Q1955.46 277.339 1951.5 276.483 L1950.02 276.135 Q1946.06 275.302 1944.3 273.589 Q1942.55 271.853 1942.55 268.844 Q1942.55 265.186 1945.14 263.196 Q1947.73 261.205 1952.5 261.205 Q1954.86 261.205 1956.94 261.552 Q1959.03 261.899 1960.79 262.594 Z" fill="#000000" fill-rule="nonzero" fill-opacity="1" /><path clip-path="url(#clip480)" d="M1991.13 273.728 L1991.13 275.811 L1971.55 275.811 Q1971.83 280.209 1974.19 282.524 Q1976.57 284.816 1980.81 284.816 Q1983.26 284.816 1985.55 284.214 Q1987.87 283.612 1990.14 282.409 L1990.14 286.436 Q1987.85 287.408 1985.44 287.918 Q1983.03 288.427 1980.55 288.427 Q1974.35 288.427 1970.72 284.816 Q1967.11 281.205 1967.11 275.047 Q1967.11 268.682 1970.53 264.955 Q1973.98 261.205 1979.81 261.205 Q1985.05 261.205 1988.08 264.585 Q1991.13 267.941 1991.13 273.728 M1986.87 272.478 Q1986.83 268.983 1984.91 266.899 Q1983.01 264.816 1979.86 264.816 Q1976.3 264.816 1974.14 266.83 Q1972.01 268.844 1971.69 272.501 L1986.87 272.478 Z" fill="#000000" fill-rule="nonzero" fill-opacity="1" /><path clip-path="url(#clip480)" d="M2013.15 265.811 Q2012.43 265.395 2011.57 265.21 Q2010.74 265.001 2009.72 265.001 Q2006.11 265.001 2004.17 267.362 Q2002.24 269.7 2002.24 274.098 L2002.24 287.756 L1997.96 287.756 L1997.96 261.83 L2002.24 261.83 L2002.24 265.858 Q2003.59 263.497 2005.74 262.362 Q2007.89 261.205 2010.97 261.205 Q2011.41 261.205 2011.94 261.274 Q2012.48 261.321 2013.12 261.436 L2013.15 265.811 Z" fill="#000000" fill-rule="nonzero" fill-opacity="1" /><path clip-path="url(#clip480)" d="M2014.56 261.83 L2019.07 261.83 L2027.17 283.589 L2035.28 261.83 L2039.79 261.83 L2030.07 287.756 L2024.28 287.756 L2014.56 261.83 Z" fill="#000000" fill-rule="nonzero" fill-opacity="1" /><path clip-path="url(#clip480)" d="M2067.85 273.728 L2067.85 275.811 L2048.26 275.811 Q2048.54 280.209 2050.9 282.524 Q2053.29 284.816 2057.52 284.816 Q2059.98 284.816 2062.27 284.214 Q2064.58 283.612 2066.85 282.409 L2066.85 286.436 Q2064.56 287.408 2062.15 287.918 Q2059.74 288.427 2057.27 288.427 Q2051.06 288.427 2047.43 284.816 Q2043.82 281.205 2043.82 275.047 Q2043.82 268.682 2047.24 264.955 Q2050.69 261.205 2056.53 261.205 Q2061.76 261.205 2064.79 264.585 Q2067.85 267.941 2067.85 273.728 M2063.59 272.478 Q2063.54 268.983 2061.62 266.899 Q2059.72 264.816 2056.57 264.816 Q2053.01 264.816 2050.85 266.83 Q2048.73 268.844 2048.4 272.501 L2063.59 272.478 Z" fill="#000000" fill-rule="nonzero" fill-opacity="1" /><path clip-path="url(#clip480)" d="M2091.9 265.765 L2091.9 251.737 L2096.16 251.737 L2096.16 287.756 L2091.9 287.756 L2091.9 283.867 Q2090.55 286.182 2088.49 287.316 Q2086.46 288.427 2083.59 288.427 Q2078.89 288.427 2075.92 284.677 Q2072.98 280.927 2072.98 274.816 Q2072.98 268.705 2075.92 264.955 Q2078.89 261.205 2083.59 261.205 Q2086.46 261.205 2088.49 262.339 Q2090.55 263.45 2091.9 265.765 M2077.38 274.816 Q2077.38 279.515 2079.3 282.2 Q2081.25 284.862 2084.63 284.862 Q2088.01 284.862 2089.95 282.2 Q2091.9 279.515 2091.9 274.816 Q2091.9 270.117 2089.95 267.455 Q2088.01 264.77 2084.63 264.77 Q2081.25 264.77 2079.3 267.455 Q2077.38 270.117 2077.38 274.816 Z" fill="#000000" fill-rule="nonzero" fill-opacity="1" /><path clip-path="url(#clip480)" d="M2124.86 257.038 L2124.86 283.913 L2130.51 283.913 Q2137.66 283.913 2140.97 280.672 Q2144.3 277.432 2144.3 270.441 Q2144.3 263.497 2140.97 260.279 Q2137.66 257.038 2130.51 257.038 L2124.86 257.038 M2120.18 253.196 L2129.79 253.196 Q2139.84 253.196 2144.53 257.386 Q2149.23 261.552 2149.23 270.441 Q2149.23 279.376 2144.51 283.566 Q2139.79 287.756 2129.79 287.756 L2120.18 287.756 L2120.18 253.196 Z" fill="#000000" fill-rule="nonzero" fill-opacity="1" /><path clip-path="url(#clip480)" d="M2168.28 274.723 Q2163.12 274.723 2161.13 275.904 Q2159.14 277.084 2159.14 279.932 Q2159.14 282.2 2160.62 283.543 Q2162.13 284.862 2164.7 284.862 Q2168.24 284.862 2170.37 282.362 Q2172.52 279.839 2172.52 275.672 L2172.52 274.723 L2168.28 274.723 M2176.78 272.964 L2176.78 287.756 L2172.52 287.756 L2172.52 283.821 Q2171.06 286.182 2168.89 287.316 Q2166.71 288.427 2163.56 288.427 Q2159.58 288.427 2157.22 286.205 Q2154.88 283.959 2154.88 280.209 Q2154.88 275.834 2157.8 273.612 Q2160.74 271.39 2166.55 271.39 L2172.52 271.39 L2172.52 270.973 Q2172.52 268.034 2170.58 266.436 Q2168.66 264.816 2165.16 264.816 Q2162.94 264.816 2160.83 265.348 Q2158.72 265.881 2156.78 266.946 L2156.78 263.01 Q2159.12 262.108 2161.32 261.668 Q2163.52 261.205 2165.6 261.205 Q2171.22 261.205 2174 264.122 Q2176.78 267.038 2176.78 272.964 Z" fill="#000000" fill-rule="nonzero" fill-opacity="1" /><path clip-path="url(#clip480)" d="M2189.77 254.469 L2189.77 261.83 L2198.54 261.83 L2198.54 265.14 L2189.77 265.14 L2189.77 279.214 Q2189.77 282.385 2190.62 283.288 Q2191.5 284.191 2194.16 284.191 L2198.54 284.191 L2198.54 287.756 L2194.16 287.756 Q2189.23 287.756 2187.36 285.927 Q2185.48 284.075 2185.48 279.214 L2185.48 265.14 L2182.36 265.14 L2182.36 261.83 L2185.48 261.83 L2185.48 254.469 L2189.77 254.469 Z" fill="#000000" fill-rule="nonzero" fill-opacity="1" /><path clip-path="url(#clip480)" d="M2215.92 274.723 Q2210.76 274.723 2208.77 275.904 Q2206.78 277.084 2206.78 279.932 Q2206.78 282.2 2208.26 283.543 Q2209.77 284.862 2212.34 284.862 Q2215.88 284.862 2218.01 282.362 Q2220.16 279.839 2220.16 275.672 L2220.16 274.723 L2215.92 274.723 M2224.42 272.964 L2224.42 287.756 L2220.16 287.756 L2220.16 283.821 Q2218.7 286.182 2216.53 287.316 Q2214.35 288.427 2211.2 288.427 Q2207.22 288.427 2204.86 286.205 Q2202.52 283.959 2202.52 280.209 Q2202.52 275.834 2205.44 273.612 Q2208.38 271.39 2214.19 271.39 L2220.16 271.39 L2220.16 270.973 Q2220.16 268.034 2218.22 266.436 Q2216.29 264.816 2212.8 264.816 Q2210.58 264.816 2208.47 265.348 Q2206.36 265.881 2204.42 266.946 L2204.42 263.01 Q2206.76 262.108 2208.96 261.668 Q2211.15 261.205 2213.24 261.205 Q2218.86 261.205 2221.64 264.122 Q2224.42 267.038 2224.42 272.964 Z" fill="#000000" fill-rule="nonzero" fill-opacity="1" /></svg>
