<?xml version="1.0" encoding="utf-8"?>
<svg xmlns="http://www.w3.org/2000/svg" xmlns:xlink="http://www.w3.org/1999/xlink" width="600" height="400" viewBox="0 0 2400 1600">
<defs>
  <clipPath id="clip240">
    <rect x="0" y="0" width="2400" height="1600"/>
  </clipPath>
</defs>
<path clip-path="url(#clip240)" d="M0 1600 L2400 1600 L2400 0 L0 0  Z" fill="#ffffff" fill-rule="evenodd" fill-opacity="1"/>
<defs>
  <clipPath id="clip241">
    <rect x="480" y="0" width="1681" height="1600"/>
  </clipPath>
</defs>
<path clip-path="url(#clip240)" d="M219.866 1423.18 L2352.76 1423.18 L2352.76 123.472 L219.866 123.472  Z" fill="#ffffff" fill-rule="evenodd" fill-opacity="1"/>
<defs>
  <clipPath id="clip242">
    <rect x="219" y="123" width="2134" height="1301"/>
  </clipPath>
</defs>
<polyline clip-path="url(#clip242)" style="stroke:#000000; stroke-linecap:round; stroke-linejoin:round; stroke-width:2; stroke-opacity:0.1; fill:none" points="260.504,1423.18 260.504,123.472 "/>
<polyline clip-path="url(#clip242)" style="stroke:#000000; stroke-linecap:round; stroke-linejoin:round; stroke-width:2; stroke-opacity:0.1; fill:none" points="753.68,1423.18 753.68,123.472 "/>
<polyline clip-path="url(#clip242)" style="stroke:#000000; stroke-linecap:round; stroke-linejoin:round; stroke-width:2; stroke-opacity:0.1; fill:none" points="1246.86,1423.18 1246.86,123.472 "/>
<polyline clip-path="url(#clip242)" style="stroke:#000000; stroke-linecap:round; stroke-linejoin:round; stroke-width:2; stroke-opacity:0.1; fill:none" points="1740.03,1423.18 1740.03,123.472 "/>
<polyline clip-path="url(#clip242)" style="stroke:#000000; stroke-linecap:round; stroke-linejoin:round; stroke-width:2; stroke-opacity:0.1; fill:none" points="2233.21,1423.18 2233.21,123.472 "/>
<polyline clip-path="url(#clip242)" style="stroke:#000000; stroke-linecap:round; stroke-linejoin:round; stroke-width:2; stroke-opacity:0.1; fill:none" points="219.866,1386.4 2352.76,1386.4 "/>
<polyline clip-path="url(#clip242)" style="stroke:#000000; stroke-linecap:round; stroke-linejoin:round; stroke-width:2; stroke-opacity:0.1; fill:none" points="219.866,1050.47 2352.76,1050.47 "/>
<polyline clip-path="url(#clip242)" style="stroke:#000000; stroke-linecap:round; stroke-linejoin:round; stroke-width:2; stroke-opacity:0.1; fill:none" points="219.866,714.538 2352.76,714.538 "/>
<polyline clip-path="url(#clip242)" style="stroke:#000000; stroke-linecap:round; stroke-linejoin:round; stroke-width:2; stroke-opacity:0.1; fill:none" points="219.866,378.61 2352.76,378.61 "/>
<polyline clip-path="url(#clip240)" style="stroke:#000000; stroke-linecap:round; stroke-linejoin:round; stroke-width:4; stroke-opacity:1; fill:none" points="219.866,1423.18 2352.76,1423.18 "/>
<polyline clip-path="url(#clip240)" style="stroke:#000000; stroke-linecap:round; stroke-linejoin:round; stroke-width:4; stroke-opacity:1; fill:none" points="260.504,1423.18 260.504,1404.28 "/>
<polyline clip-path="url(#clip240)" style="stroke:#000000; stroke-linecap:round; stroke-linejoin:round; stroke-width:4; stroke-opacity:1; fill:none" points="753.68,1423.18 753.68,1404.28 "/>
<polyline clip-path="url(#clip240)" style="stroke:#000000; stroke-linecap:round; stroke-linejoin:round; stroke-width:4; stroke-opacity:1; fill:none" points="1246.86,1423.18 1246.86,1404.28 "/>
<polyline clip-path="url(#clip240)" style="stroke:#000000; stroke-linecap:round; stroke-linejoin:round; stroke-width:4; stroke-opacity:1; fill:none" points="1740.03,1423.18 1740.03,1404.28 "/>
<polyline clip-path="url(#clip240)" style="stroke:#000000; stroke-linecap:round; stroke-linejoin:round; stroke-width:4; stroke-opacity:1; fill:none" points="2233.21,1423.18 2233.21,1404.28 "/>
<path clip-path="url(#clip240)" d="M260.504 1454.1 Q256.893 1454.1 255.064 1457.66 Q253.259 1461.2 253.259 1468.33 Q253.259 1475.44 255.064 1479.01 Q256.893 1482.55 260.504 1482.55 Q264.138 1482.55 265.944 1479.01 Q267.772 1475.44 267.772 1468.33 Q267.772 1461.2 265.944 1457.66 Q264.138 1454.1 260.504 1454.1 M260.504 1450.39 Q266.314 1450.39 269.37 1455 Q272.448 1459.58 272.448 1468.33 Q272.448 1477.06 269.37 1481.67 Q266.314 1486.25 260.504 1486.25 Q254.694 1486.25 251.615 1481.67 Q248.56 1477.06 248.56 1468.33 Q248.56 1459.58 251.615 1455 Q254.694 1450.39 260.504 1450.39 Z" fill="#000000" fill-rule="nonzero" fill-opacity="1" /><path clip-path="url(#clip240)" d="M732.951 1481.64 L749.271 1481.64 L749.271 1485.58 L727.326 1485.58 L727.326 1481.64 Q729.988 1478.89 734.572 1474.26 Q739.178 1469.61 740.359 1468.27 Q742.604 1465.74 743.484 1464.01 Q744.387 1462.25 744.387 1460.56 Q744.387 1457.8 742.442 1456.07 Q740.521 1454.33 737.419 1454.33 Q735.22 1454.33 732.766 1455.09 Q730.336 1455.86 727.558 1457.41 L727.558 1452.69 Q730.382 1451.55 732.836 1450.97 Q735.289 1450.39 737.326 1450.39 Q742.697 1450.39 745.891 1453.08 Q749.086 1455.77 749.086 1460.26 Q749.086 1462.39 748.275 1464.31 Q747.488 1466.2 745.382 1468.8 Q744.803 1469.47 741.701 1472.69 Q738.6 1475.88 732.951 1481.64 Z" fill="#000000" fill-rule="nonzero" fill-opacity="1" /><path clip-path="url(#clip240)" d="M759.132 1451.02 L777.488 1451.02 L777.488 1454.96 L763.414 1454.96 L763.414 1463.43 Q764.433 1463.08 765.451 1462.92 Q766.47 1462.73 767.488 1462.73 Q773.275 1462.73 776.655 1465.9 Q780.035 1469.08 780.035 1474.49 Q780.035 1480.07 776.562 1483.17 Q773.09 1486.25 766.771 1486.25 Q764.595 1486.25 762.326 1485.88 Q760.081 1485.51 757.674 1484.77 L757.674 1480.07 Q759.757 1481.2 761.979 1481.76 Q764.201 1482.32 766.678 1482.32 Q770.683 1482.32 773.021 1480.21 Q775.359 1478.1 775.359 1474.49 Q775.359 1470.88 773.021 1468.77 Q770.683 1466.67 766.678 1466.67 Q764.803 1466.67 762.928 1467.08 Q761.076 1467.5 759.132 1468.38 L759.132 1451.02 Z" fill="#000000" fill-rule="nonzero" fill-opacity="1" /><path clip-path="url(#clip240)" d="M1221.56 1451.02 L1239.91 1451.02 L1239.91 1454.96 L1225.84 1454.96 L1225.84 1463.43 Q1226.86 1463.08 1227.88 1462.92 Q1228.89 1462.73 1229.91 1462.73 Q1235.7 1462.73 1239.08 1465.9 Q1242.46 1469.08 1242.46 1474.49 Q1242.46 1480.07 1238.99 1483.17 Q1235.51 1486.25 1229.2 1486.25 Q1227.02 1486.25 1224.75 1485.88 Q1222.51 1485.51 1220.1 1484.77 L1220.1 1480.07 Q1222.18 1481.2 1224.4 1481.76 Q1226.63 1482.32 1229.1 1482.32 Q1233.11 1482.32 1235.44 1480.21 Q1237.78 1478.1 1237.78 1474.49 Q1237.78 1470.88 1235.44 1468.77 Q1233.11 1466.67 1229.1 1466.67 Q1227.23 1466.67 1225.35 1467.08 Q1223.5 1467.5 1221.56 1468.38 L1221.56 1451.02 Z" fill="#000000" fill-rule="nonzero" fill-opacity="1" /><path clip-path="url(#clip240)" d="M1261.67 1454.1 Q1258.06 1454.1 1256.23 1457.66 Q1254.43 1461.2 1254.43 1468.33 Q1254.43 1475.44 1256.23 1479.01 Q1258.06 1482.55 1261.67 1482.55 Q1265.31 1482.55 1267.11 1479.01 Q1268.94 1475.44 1268.94 1468.33 Q1268.94 1461.2 1267.11 1457.66 Q1265.31 1454.1 1261.67 1454.1 M1261.67 1450.39 Q1267.48 1450.39 1270.54 1455 Q1273.62 1459.58 1273.62 1468.33 Q1273.62 1477.06 1270.54 1481.67 Q1267.48 1486.25 1261.67 1486.25 Q1255.86 1486.25 1252.78 1481.67 Q1249.73 1477.06 1249.73 1468.33 Q1249.73 1459.58 1252.78 1455 Q1255.86 1450.39 1261.67 1450.39 Z" fill="#000000" fill-rule="nonzero" fill-opacity="1" /><path clip-path="url(#clip240)" d="M1713.89 1451.02 L1736.11 1451.02 L1736.11 1453.01 L1723.56 1485.58 L1718.68 1485.58 L1730.48 1454.96 L1713.89 1454.96 L1713.89 1451.02 Z" fill="#000000" fill-rule="nonzero" fill-opacity="1" /><path clip-path="url(#clip240)" d="M1745.28 1451.02 L1763.63 1451.02 L1763.63 1454.96 L1749.56 1454.96 L1749.56 1463.43 Q1750.58 1463.08 1751.6 1462.92 Q1752.61 1462.73 1753.63 1462.73 Q1759.42 1462.73 1762.8 1465.9 Q1766.18 1469.08 1766.18 1474.49 Q1766.18 1480.07 1762.71 1483.17 Q1759.23 1486.25 1752.92 1486.25 Q1750.74 1486.25 1748.47 1485.88 Q1746.23 1485.51 1743.82 1484.77 L1743.82 1480.07 Q1745.9 1481.2 1748.12 1481.76 Q1750.35 1482.32 1752.82 1482.32 Q1756.83 1482.32 1759.17 1480.21 Q1761.5 1478.1 1761.5 1474.49 Q1761.5 1470.88 1759.17 1468.77 Q1756.83 1466.67 1752.82 1466.67 Q1750.95 1466.67 1749.07 1467.08 Q1747.22 1467.5 1745.28 1468.38 L1745.28 1451.02 Z" fill="#000000" fill-rule="nonzero" fill-opacity="1" /><path clip-path="url(#clip240)" d="M2192.82 1481.64 L2200.46 1481.64 L2200.46 1455.28 L2192.15 1456.95 L2192.15 1452.69 L2200.41 1451.02 L2205.09 1451.02 L2205.09 1481.64 L2212.72 1481.64 L2212.72 1485.58 L2192.82 1485.58 L2192.82 1481.64 Z" fill="#000000" fill-rule="nonzero" fill-opacity="1" /><path clip-path="url(#clip240)" d="M2232.17 1454.1 Q2228.56 1454.1 2226.73 1457.66 Q2224.92 1461.2 2224.92 1468.33 Q2224.92 1475.44 2226.73 1479.01 Q2228.56 1482.55 2232.17 1482.55 Q2235.8 1482.55 2237.61 1479.01 Q2239.44 1475.44 2239.44 1468.33 Q2239.44 1461.2 2237.61 1457.66 Q2235.8 1454.1 2232.17 1454.1 M2232.17 1450.39 Q2237.98 1450.39 2241.03 1455 Q2244.11 1459.58 2244.11 1468.33 Q2244.11 1477.06 2241.03 1481.67 Q2237.98 1486.25 2232.17 1486.25 Q2226.36 1486.25 2223.28 1481.67 Q2220.22 1477.06 2220.22 1468.33 Q2220.22 1459.58 2223.28 1455 Q2226.36 1450.39 2232.17 1450.39 Z" fill="#000000" fill-rule="nonzero" fill-opacity="1" /><path clip-path="url(#clip240)" d="M2262.33 1454.1 Q2258.72 1454.1 2256.89 1457.66 Q2255.08 1461.2 2255.08 1468.33 Q2255.08 1475.44 2256.89 1479.01 Q2258.72 1482.55 2262.33 1482.55 Q2265.96 1482.55 2267.77 1479.01 Q2269.6 1475.44 2269.6 1468.33 Q2269.6 1461.2 2267.77 1457.66 Q2265.96 1454.1 2262.33 1454.1 M2262.33 1450.39 Q2268.14 1450.39 2271.2 1455 Q2274.27 1459.58 2274.27 1468.33 Q2274.27 1477.06 2271.2 1481.67 Q2268.14 1486.25 2262.33 1486.25 Q2256.52 1486.25 2253.44 1481.67 Q2250.39 1477.06 2250.39 1468.33 Q2250.39 1459.58 2253.44 1455 Q2256.52 1450.39 2262.33 1450.39 Z" fill="#000000" fill-rule="nonzero" fill-opacity="1" /><path clip-path="url(#clip240)" d="M1208.19 1520.52 L1248.39 1520.52 L1248.39 1525.93 L1231.52 1525.93 L1231.52 1568.04 L1225.06 1568.04 L1225.06 1525.93 L1208.19 1525.93 L1208.19 1520.52 Z" fill="#000000" fill-rule="nonzero" fill-opacity="1" /><path clip-path="url(#clip240)" d="M1252.33 1532.4 L1258.19 1532.4 L1258.19 1568.04 L1252.33 1568.04 L1252.33 1532.4 M1252.33 1518.52 L1258.19 1518.52 L1258.19 1525.93 L1252.33 1525.93 L1252.33 1518.52 Z" fill="#000000" fill-rule="nonzero" fill-opacity="1" /><path clip-path="url(#clip240)" d="M1298.2 1539.24 Q1300.4 1535.29 1303.45 1533.41 Q1306.51 1531.54 1310.64 1531.54 Q1316.21 1531.54 1319.24 1535.45 Q1322.26 1539.33 1322.26 1546.53 L1322.26 1568.04 L1316.37 1568.04 L1316.37 1546.72 Q1316.37 1541.59 1314.56 1539.11 Q1312.74 1536.63 1309.02 1536.63 Q1304.47 1536.63 1301.83 1539.65 Q1299.19 1542.68 1299.19 1547.9 L1299.19 1568.04 L1293.3 1568.04 L1293.3 1546.72 Q1293.3 1541.56 1291.48 1539.11 Q1289.67 1536.63 1285.88 1536.63 Q1281.39 1536.63 1278.75 1539.68 Q1276.11 1542.71 1276.11 1547.9 L1276.11 1568.04 L1270.22 1568.04 L1270.22 1532.4 L1276.11 1532.4 L1276.11 1537.93 Q1278.12 1534.66 1280.92 1533.1 Q1283.72 1531.54 1287.57 1531.54 Q1291.45 1531.54 1294.16 1533.51 Q1296.89 1535.48 1298.2 1539.24 Z" fill="#000000" fill-rule="nonzero" fill-opacity="1" /><path clip-path="url(#clip240)" d="M1364.43 1548.76 L1364.43 1551.62 L1337.51 1551.62 Q1337.89 1557.67 1341.14 1560.85 Q1344.41 1564 1350.24 1564 Q1353.61 1564 1356.76 1563.17 Q1359.95 1562.35 1363.07 1560.69 L1363.07 1566.23 Q1359.91 1567.57 1356.6 1568.27 Q1353.29 1568.97 1349.89 1568.97 Q1341.36 1568.97 1336.36 1564 Q1331.4 1559.04 1331.4 1550.57 Q1331.4 1541.82 1336.11 1536.69 Q1340.85 1531.54 1348.87 1531.54 Q1356.06 1531.54 1360.23 1536.18 Q1364.43 1540.8 1364.43 1548.76 M1358.58 1547.04 Q1358.51 1542.23 1355.87 1539.37 Q1353.26 1536.5 1348.93 1536.5 Q1344.03 1536.5 1341.07 1539.27 Q1338.14 1542.04 1337.7 1547.07 L1358.58 1547.04 Z" fill="#000000" fill-rule="nonzero" fill-opacity="1" /><polyline clip-path="url(#clip240)" style="stroke:#000000; stroke-linecap:round; stroke-linejoin:round; stroke-width:4; stroke-opacity:1; fill:none" points="219.866,1423.18 219.866,123.472 "/>
<polyline clip-path="url(#clip240)" style="stroke:#000000; stroke-linecap:round; stroke-linejoin:round; stroke-width:4; stroke-opacity:1; fill:none" points="219.866,1386.4 238.764,1386.4 "/>
<polyline clip-path="url(#clip240)" style="stroke:#000000; stroke-linecap:round; stroke-linejoin:round; stroke-width:4; stroke-opacity:1; fill:none" points="219.866,1050.47 238.764,1050.47 "/>
<polyline clip-path="url(#clip240)" style="stroke:#000000; stroke-linecap:round; stroke-linejoin:round; stroke-width:4; stroke-opacity:1; fill:none" points="219.866,714.538 238.764,714.538 "/>
<polyline clip-path="url(#clip240)" style="stroke:#000000; stroke-linecap:round; stroke-linejoin:round; stroke-width:4; stroke-opacity:1; fill:none" points="219.866,378.61 238.764,378.61 "/>
<path clip-path="url(#clip240)" d="M126.691 1372.19 Q123.08 1372.19 121.251 1375.76 Q119.445 1379.3 119.445 1386.43 Q119.445 1393.54 121.251 1397.1 Q123.08 1400.64 126.691 1400.64 Q130.325 1400.64 132.13 1397.1 Q133.959 1393.54 133.959 1386.43 Q133.959 1379.3 132.13 1375.76 Q130.325 1372.19 126.691 1372.19 M126.691 1368.49 Q132.501 1368.49 135.556 1373.1 Q138.635 1377.68 138.635 1386.43 Q138.635 1395.16 135.556 1399.76 Q132.501 1404.35 126.691 1404.35 Q120.88 1404.35 117.802 1399.76 Q114.746 1395.16 114.746 1386.43 Q114.746 1377.68 117.802 1373.1 Q120.88 1368.49 126.691 1368.49 Z" fill="#000000" fill-rule="nonzero" fill-opacity="1" /><path clip-path="url(#clip240)" d="M146.853 1397.8 L151.737 1397.8 L151.737 1403.68 L146.853 1403.68 L146.853 1397.8 Z" fill="#000000" fill-rule="nonzero" fill-opacity="1" /><path clip-path="url(#clip240)" d="M171.922 1372.19 Q168.311 1372.19 166.482 1375.76 Q164.677 1379.3 164.677 1386.43 Q164.677 1393.54 166.482 1397.1 Q168.311 1400.64 171.922 1400.64 Q175.556 1400.64 177.362 1397.1 Q179.19 1393.54 179.19 1386.43 Q179.19 1379.3 177.362 1375.76 Q175.556 1372.19 171.922 1372.19 M171.922 1368.49 Q177.732 1368.49 180.788 1373.1 Q183.866 1377.68 183.866 1386.43 Q183.866 1395.16 180.788 1399.76 Q177.732 1404.35 171.922 1404.35 Q166.112 1404.35 163.033 1399.76 Q159.978 1395.16 159.978 1386.43 Q159.978 1377.68 163.033 1373.1 Q166.112 1368.49 171.922 1368.49 Z" fill="#000000" fill-rule="nonzero" fill-opacity="1" /><path clip-path="url(#clip240)" d="M128.288 1036.27 Q124.677 1036.27 122.848 1039.83 Q121.043 1043.37 121.043 1050.5 Q121.043 1057.61 122.848 1061.17 Q124.677 1064.71 128.288 1064.71 Q131.922 1064.71 133.728 1061.17 Q135.556 1057.61 135.556 1050.5 Q135.556 1043.37 133.728 1039.83 Q131.922 1036.27 128.288 1036.27 M128.288 1032.56 Q134.098 1032.56 137.154 1037.17 Q140.232 1041.75 140.232 1050.5 Q140.232 1059.23 137.154 1063.84 Q134.098 1068.42 128.288 1068.42 Q122.478 1068.42 119.399 1063.84 Q116.343 1059.23 116.343 1050.5 Q116.343 1041.75 119.399 1037.17 Q122.478 1032.56 128.288 1032.56 Z" fill="#000000" fill-rule="nonzero" fill-opacity="1" /><path clip-path="url(#clip240)" d="M148.45 1061.87 L153.334 1061.87 L153.334 1067.75 L148.45 1067.75 L148.45 1061.87 Z" fill="#000000" fill-rule="nonzero" fill-opacity="1" /><path clip-path="url(#clip240)" d="M167.547 1063.81 L183.866 1063.81 L183.866 1067.75 L161.922 1067.75 L161.922 1063.81 Q164.584 1061.06 169.167 1056.43 Q173.774 1051.77 174.954 1050.43 Q177.2 1047.91 178.079 1046.17 Q178.982 1044.41 178.982 1042.72 Q178.982 1039.97 177.038 1038.23 Q175.116 1036.5 172.014 1036.5 Q169.815 1036.5 167.362 1037.26 Q164.931 1038.03 162.153 1039.58 L162.153 1034.85 Q164.977 1033.72 167.431 1033.14 Q169.885 1032.56 171.922 1032.56 Q177.292 1032.56 180.487 1035.25 Q183.681 1037.93 183.681 1042.42 Q183.681 1044.55 182.871 1046.47 Q182.084 1048.37 179.977 1050.96 Q179.399 1051.64 176.297 1054.85 Q173.195 1058.05 167.547 1063.81 Z" fill="#000000" fill-rule="nonzero" fill-opacity="1" /><path clip-path="url(#clip240)" d="M126.205 700.337 Q122.593 700.337 120.765 703.902 Q118.959 707.444 118.959 714.573 Q118.959 721.68 120.765 725.244 Q122.593 728.786 126.205 728.786 Q129.839 728.786 131.644 725.244 Q133.473 721.68 133.473 714.573 Q133.473 707.444 131.644 703.902 Q129.839 700.337 126.205 700.337 M126.205 696.633 Q132.015 696.633 135.07 701.24 Q138.149 705.823 138.149 714.573 Q138.149 723.3 135.07 727.906 Q132.015 732.49 126.205 732.49 Q120.394 732.49 117.316 727.906 Q114.26 723.3 114.26 714.573 Q114.26 705.823 117.316 701.24 Q120.394 696.633 126.205 696.633 Z" fill="#000000" fill-rule="nonzero" fill-opacity="1" /><path clip-path="url(#clip240)" d="M146.366 725.939 L151.251 725.939 L151.251 731.818 L146.366 731.818 L146.366 725.939 Z" fill="#000000" fill-rule="nonzero" fill-opacity="1" /><path clip-path="url(#clip240)" d="M174.283 701.333 L162.477 719.782 L174.283 719.782 L174.283 701.333 M173.056 697.258 L178.936 697.258 L178.936 719.782 L183.866 719.782 L183.866 723.67 L178.936 723.67 L178.936 731.818 L174.283 731.818 L174.283 723.67 L158.681 723.67 L158.681 719.157 L173.056 697.258 Z" fill="#000000" fill-rule="nonzero" fill-opacity="1" /><path clip-path="url(#clip240)" d="M126.529 364.409 Q122.918 364.409 121.089 367.973 Q119.283 371.515 119.283 378.645 Q119.283 385.751 121.089 389.316 Q122.918 392.857 126.529 392.857 Q130.163 392.857 131.968 389.316 Q133.797 385.751 133.797 378.645 Q133.797 371.515 131.968 367.973 Q130.163 364.409 126.529 364.409 M126.529 360.705 Q132.339 360.705 135.394 365.311 Q138.473 369.895 138.473 378.645 Q138.473 387.371 135.394 391.978 Q132.339 396.561 126.529 396.561 Q120.718 396.561 117.64 391.978 Q114.584 387.371 114.584 378.645 Q114.584 369.895 117.64 365.311 Q120.718 360.705 126.529 360.705 Z" fill="#000000" fill-rule="nonzero" fill-opacity="1" /><path clip-path="url(#clip240)" d="M146.691 390.01 L151.575 390.01 L151.575 395.89 L146.691 395.89 L146.691 390.01 Z" fill="#000000" fill-rule="nonzero" fill-opacity="1" /><path clip-path="url(#clip240)" d="M172.339 376.746 Q169.19 376.746 167.339 378.899 Q165.51 381.052 165.51 384.802 Q165.51 388.529 167.339 390.705 Q169.19 392.857 172.339 392.857 Q175.487 392.857 177.315 390.705 Q179.167 388.529 179.167 384.802 Q179.167 381.052 177.315 378.899 Q175.487 376.746 172.339 376.746 M181.621 362.094 L181.621 366.353 Q179.862 365.52 178.056 365.08 Q176.274 364.64 174.514 364.64 Q169.885 364.64 167.431 367.765 Q165.001 370.89 164.653 377.209 Q166.019 375.196 168.079 374.131 Q170.139 373.043 172.616 373.043 Q177.825 373.043 180.834 376.214 Q183.866 379.362 183.866 384.802 Q183.866 390.126 180.718 393.344 Q177.57 396.561 172.339 396.561 Q166.343 396.561 163.172 391.978 Q160.001 387.371 160.001 378.645 Q160.001 370.45 163.89 365.589 Q167.778 360.705 174.329 360.705 Q176.089 360.705 177.871 361.052 Q179.676 361.399 181.621 362.094 Z" fill="#000000" fill-rule="nonzero" fill-opacity="1" /><path clip-path="url(#clip240)" d="M20.1444 820.225 L26.9239 820.225 Q23.9002 823.472 22.4043 827.164 Q20.9083 830.824 20.9083 834.962 Q20.9083 843.11 25.9054 847.439 Q30.8707 851.767 40.2919 851.767 Q49.6813 851.767 54.6784 847.439 Q59.6436 843.11 59.6436 834.962 Q59.6436 830.824 58.1477 827.164 Q56.6518 823.472 53.6281 820.225 L60.3439 820.225 Q62.6355 823.599 63.7814 827.387 Q64.9272 831.143 64.9272 835.344 Q64.9272 846.134 58.3387 852.34 Q51.7183 858.547 40.2919 858.547 Q28.8336 858.547 22.2451 852.34 Q15.6248 846.134 15.6248 835.344 Q15.6248 831.079 16.7706 827.323 Q17.8846 823.535 20.1444 820.225 Z" fill="#000000" fill-rule="nonzero" fill-opacity="1" /><path clip-path="url(#clip240)" d="M16.4842 816.883 L16.4842 776.684 L21.895 776.684 L21.895 793.553 L64.0042 793.553 L64.0042 800.014 L21.895 800.014 L21.895 816.883 L16.4842 816.883 Z" fill="#000000" fill-rule="nonzero" fill-opacity="1" /><path clip-path="url(#clip240)" d="M16.4842 770.477 L16.4842 761.82 L56.238 740.749 L16.4842 740.749 L16.4842 734.511 L64.0042 734.511 L64.0042 743.168 L24.2503 764.239 L64.0042 764.239 L64.0042 770.477 L16.4842 770.477 Z" fill="#000000" fill-rule="nonzero" fill-opacity="1" /><path clip-path="url(#clip240)" d="M16.4842 728.305 L16.4842 688.105 L21.895 688.105 L21.895 704.974 L64.0042 704.974 L64.0042 711.435 L21.895 711.435 L21.895 728.305 L16.4842 728.305 Z" fill="#000000" fill-rule="nonzero" fill-opacity="1" /><path clip-path="url(#clip240)" d="M1011.42 18.8205 L1011.42 41.5461 L1021.71 41.5461 Q1027.42 41.5461 1030.54 38.5889 Q1033.66 35.6318 1033.66 30.163 Q1033.66 24.7348 1030.54 21.7777 Q1027.42 18.8205 1021.71 18.8205 L1011.42 18.8205 M1003.23 12.096 L1021.71 12.096 Q1031.87 12.096 1037.06 16.714 Q1042.28 21.2916 1042.28 30.163 Q1042.28 39.1155 1037.06 43.6931 Q1031.87 48.2706 1021.71 48.2706 L1011.42 48.2706 L1011.42 72.576 L1003.23 72.576 L1003.23 12.096 Z" fill="#000000" fill-rule="nonzero" fill-opacity="1" /><path clip-path="url(#clip240)" d="M1069.83 49.7694 Q1060.8 49.7694 1057.31 51.8354 Q1053.83 53.9013 1053.83 58.8839 Q1053.83 62.8538 1056.42 65.2034 Q1059.06 67.5124 1063.55 67.5124 Q1069.75 67.5124 1073.48 63.1374 Q1077.24 58.7219 1077.24 51.4303 L1077.24 49.7694 L1069.83 49.7694 M1084.7 46.6907 L1084.7 72.576 L1077.24 72.576 L1077.24 65.6895 Q1074.69 69.8214 1070.88 71.8063 Q1067.08 73.7508 1061.57 73.7508 Q1054.6 73.7508 1050.47 69.8619 Q1046.38 65.9325 1046.38 59.3701 Q1046.38 51.7138 1051.48 47.825 Q1056.62 43.9361 1066.79 43.9361 L1077.24 43.9361 L1077.24 43.2069 Q1077.24 38.0623 1073.84 35.2672 Q1070.48 32.4315 1064.36 32.4315 Q1060.47 32.4315 1056.79 33.3632 Q1053.1 34.295 1049.7 36.1584 L1049.7 29.2718 Q1053.79 27.692 1057.64 26.9223 Q1061.49 26.1121 1065.13 26.1121 Q1074.98 26.1121 1079.84 31.2163 Q1084.7 36.3204 1084.7 46.6907 Z" fill="#000000" fill-rule="nonzero" fill-opacity="1" /><path clip-path="url(#clip240)" d="M1107.42 14.324 L1107.42 27.2059 L1122.78 27.2059 L1122.78 32.9987 L1107.42 32.9987 L1107.42 57.6282 Q1107.42 63.1779 1108.92 64.7578 Q1110.46 66.3376 1115.12 66.3376 L1122.78 66.3376 L1122.78 72.576 L1115.12 72.576 Q1106.49 72.576 1103.21 69.3758 Q1099.93 66.1351 1099.93 57.6282 L1099.93 32.9987 L1094.46 32.9987 L1094.46 27.2059 L1099.93 27.2059 L1099.93 14.324 L1107.42 14.324 Z" fill="#000000" fill-rule="nonzero" fill-opacity="1" /><path clip-path="url(#clip240)" d="M1132.58 27.2059 L1140.03 27.2059 L1140.03 72.576 L1132.58 72.576 L1132.58 27.2059 M1132.58 9.54393 L1140.03 9.54393 L1140.03 18.9825 L1132.58 18.9825 L1132.58 9.54393 Z" fill="#000000" fill-rule="nonzero" fill-opacity="1" /><path clip-path="url(#clip240)" d="M1194.44 48.0275 L1194.44 51.6733 L1160.17 51.6733 Q1160.65 59.3701 1164.78 63.421 Q1168.96 67.4314 1176.37 67.4314 Q1180.66 67.4314 1184.67 66.3781 Q1188.72 65.3249 1192.69 63.2184 L1192.69 70.267 Q1188.68 71.9684 1184.47 72.8596 Q1180.26 73.7508 1175.92 73.7508 Q1165.07 73.7508 1158.71 67.4314 Q1152.39 61.1119 1152.39 50.3365 Q1152.39 39.1965 1158.38 32.6746 Q1164.42 26.1121 1174.63 26.1121 Q1183.78 26.1121 1189.09 32.0264 Q1194.44 37.9003 1194.44 48.0275 M1186.98 45.84 Q1186.9 39.7232 1183.54 36.0774 Q1180.22 32.4315 1174.71 32.4315 Q1168.47 32.4315 1164.7 35.9558 Q1160.98 39.4801 1160.41 45.8805 L1186.98 45.84 Z" fill="#000000" fill-rule="nonzero" fill-opacity="1" /><path clip-path="url(#clip240)" d="M1244.38 45.1919 L1244.38 72.576 L1236.93 72.576 L1236.93 45.4349 Q1236.93 38.994 1234.42 35.7938 Q1231.91 32.5936 1226.88 32.5936 Q1220.85 32.5936 1217.36 36.4419 Q1213.88 40.2903 1213.88 46.9338 L1213.88 72.576 L1206.39 72.576 L1206.39 27.2059 L1213.88 27.2059 L1213.88 34.2544 Q1216.55 30.163 1220.16 28.1376 Q1223.81 26.1121 1228.55 26.1121 Q1236.36 26.1121 1240.37 30.9732 Q1244.38 35.7938 1244.38 45.1919 Z" fill="#000000" fill-rule="nonzero" fill-opacity="1" /><path clip-path="url(#clip240)" d="M1266.62 14.324 L1266.62 27.2059 L1281.98 27.2059 L1281.98 32.9987 L1266.62 32.9987 L1266.62 57.6282 Q1266.62 63.1779 1268.12 64.7578 Q1269.66 66.3376 1274.32 66.3376 L1281.98 66.3376 L1281.98 72.576 L1274.32 72.576 Q1265.69 72.576 1262.41 69.3758 Q1259.13 66.1351 1259.13 57.6282 L1259.13 32.9987 L1253.66 32.9987 L1253.66 27.2059 L1259.13 27.2059 L1259.13 14.324 L1266.62 14.324 Z" fill="#000000" fill-rule="nonzero" fill-opacity="1" /><path clip-path="url(#clip240)" d="M1355.87 45.1919 L1355.87 72.576 L1348.41 72.576 L1348.41 45.4349 Q1348.41 38.994 1345.9 35.7938 Q1343.39 32.5936 1338.37 32.5936 Q1332.33 32.5936 1328.85 36.4419 Q1325.36 40.2903 1325.36 46.9338 L1325.36 72.576 L1317.87 72.576 L1317.87 27.2059 L1325.36 27.2059 L1325.36 34.2544 Q1328.04 30.163 1331.64 28.1376 Q1335.29 26.1121 1340.03 26.1121 Q1347.84 26.1121 1351.85 30.9732 Q1355.87 35.7938 1355.87 45.1919 Z" fill="#000000" fill-rule="nonzero" fill-opacity="1" /><path clip-path="url(#clip240)" d="M1373.2 65.6895 L1386.57 65.6895 L1386.57 19.5497 L1372.03 22.4663 L1372.03 15.0127 L1386.49 12.096 L1394.67 12.096 L1394.67 65.6895 L1408.04 65.6895 L1408.04 72.576 L1373.2 72.576 L1373.2 65.6895 Z" fill="#000000" fill-rule="nonzero" fill-opacity="1" /><path clip-path="url(#clip240)" d="M1431.62 65.6895 L1460.18 65.6895 L1460.18 72.576 L1421.77 72.576 L1421.77 65.6895 Q1426.43 60.8689 1434.45 52.7671 Q1442.51 44.6248 1444.58 42.2752 Q1448.51 37.8598 1450.05 34.8216 Q1451.63 31.7429 1451.63 28.7857 Q1451.63 23.9651 1448.23 20.927 Q1444.86 17.8888 1439.44 17.8888 Q1435.59 17.8888 1431.29 19.2256 Q1427.04 20.5624 1422.18 23.2765 L1422.18 15.0127 Q1427.12 13.0277 1431.41 12.015 Q1435.71 11.0023 1439.27 11.0023 Q1448.67 11.0023 1454.26 15.7013 Q1459.85 20.4004 1459.85 28.2591 Q1459.85 31.9859 1458.43 35.3482 Q1457.06 38.6699 1453.37 43.2069 Q1452.36 44.3817 1446.93 50.0125 Q1441.5 55.6027 1431.62 65.6895 Z" fill="#000000" fill-rule="nonzero" fill-opacity="1" /><path clip-path="url(#clip240)" d="M1494.85 43.8551 Q1489.02 43.8551 1485.66 46.9743 Q1482.33 50.0935 1482.33 55.5622 Q1482.33 61.0309 1485.66 64.1501 Q1489.02 67.2693 1494.85 67.2693 Q1500.68 67.2693 1504.05 64.1501 Q1507.41 60.9904 1507.41 55.5622 Q1507.41 50.0935 1504.05 46.9743 Q1500.73 43.8551 1494.85 43.8551 M1486.67 40.3713 Q1481.4 39.075 1478.45 35.4697 Q1475.53 31.8644 1475.53 26.6793 Q1475.53 19.4281 1480.67 15.2152 Q1485.86 11.0023 1494.85 11.0023 Q1503.89 11.0023 1509.03 15.2152 Q1514.17 19.4281 1514.17 26.6793 Q1514.17 31.8644 1511.22 35.4697 Q1508.3 39.075 1503.07 40.3713 Q1508.99 41.7486 1512.27 45.759 Q1515.59 49.7694 1515.59 55.5622 Q1515.59 64.3527 1510.2 69.0517 Q1504.86 73.7508 1494.85 73.7508 Q1484.85 73.7508 1479.46 69.0517 Q1474.11 64.3527 1474.11 55.5622 Q1474.11 49.7694 1477.43 45.759 Q1480.75 41.7486 1486.67 40.3713 M1483.67 27.4489 Q1483.67 32.148 1486.59 34.7811 Q1489.54 37.4142 1494.85 37.4142 Q1500.12 37.4142 1503.07 34.7811 Q1506.07 32.148 1506.07 27.4489 Q1506.07 22.7499 1503.07 20.1168 Q1500.12 17.4837 1494.85 17.4837 Q1489.54 17.4837 1486.59 20.1168 Q1483.67 22.7499 1483.67 27.4489 Z" fill="#000000" fill-rule="nonzero" fill-opacity="1" /><path clip-path="url(#clip240)" d="M1552.62 19.2256 L1531.96 51.5113 L1552.62 51.5113 L1552.62 19.2256 M1550.47 12.096 L1560.76 12.096 L1560.76 51.5113 L1569.39 51.5113 L1569.39 58.3168 L1560.76 58.3168 L1560.76 72.576 L1552.62 72.576 L1552.62 58.3168 L1525.31 58.3168 L1525.31 50.4176 L1550.47 12.096 Z" fill="#000000" fill-rule="nonzero" fill-opacity="1" /><polyline clip-path="url(#clip242)" style="stroke:#009af9; stroke-linecap:round; stroke-linejoin:round; stroke-width:8; stroke-opacity:1; fill:none" points="280.231,1386.4 299.958,1346.91 319.685,1297.92 339.412,1251.16 359.139,1207.07 378.866,1165.58 398.593,1126.54 418.32,1089.8 438.048,1055.23 457.775,1022.69 477.502,992.04 497.229,963.173 516.956,935.972 536.683,910.331 556.41,886.152 576.137,863.343 595.864,841.816 615.591,821.491 635.318,802.292 655.045,784.148 674.772,766.992 694.499,750.764 714.226,735.404 733.953,720.858 753.68,707.075 773.408,694.006 793.135,681.606 812.862,669.835 832.589,658.655 852.316,648.027 872.043,637.918 891.77,628.295 911.497,619.128 931.224,610.388 950.951,602.047 970.678,594.084 990.405,586.475 1010.13,579.198 1029.86,572.234 1049.59,565.563 1069.31,559.167 1089.04,553.03 1108.77,547.134 1128.49,541.465 1148.22,536.009 1167.95,530.755 1187.68,525.69 1207.4,520.805 1227.13,516.089 1246.86,511.531 1266.58,507.123 1286.31,502.855 1306.04,498.72 1325.77,494.708 1345.49,490.813 1365.22,487.028 1384.95,483.346 1404.67,479.763 1424.4,476.273 1444.13,472.871 1463.85,469.554 1483.58,466.317 1503.31,463.154 1523.04,460.064 1542.76,457.04 1562.49,454.08 1582.22,451.181 1601.94,448.338 1621.67,445.549 1641.4,442.811 1661.13,440.121 1680.85,437.477 1700.58,434.878 1720.31,432.321 1740.03,429.806 1759.76,427.33 1779.49,424.891 1799.21,422.489 1818.94,420.122 1838.67,417.787 1858.4,415.484 1878.12,413.212 1897.85,410.968 1917.58,408.752 1937.3,406.562 1957.03,404.397 1976.76,402.256 1996.49,400.139 2016.21,398.045 2035.94,395.973 2055.67,393.923 2075.39,391.894 2095.12,389.886 2114.85,387.898 2134.57,385.929 2154.3,383.979 2174.03,382.047 2193.76,380.133 2213.48,378.237 2233.21,376.357 2252.94,374.494 2272.66,372.646 2292.39,372.401 "/>
<circle clip-path="url(#clip242)" cx="749.735" cy="916.096" r="18" fill="#e26f46" fill-rule="evenodd" fill-opacity="1" stroke="#000000" stroke-opacity="1" stroke-width="3.2"/>
<circle clip-path="url(#clip242)" cx="846.726" cy="395.406" r="18" fill="#e26f46" fill-rule="evenodd" fill-opacity="1" stroke="#000000" stroke-opacity="1" stroke-width="3.2"/>
<circle clip-path="url(#clip242)" cx="983.172" cy="227.442" r="18" fill="#e26f46" fill-rule="evenodd" fill-opacity="1" stroke="#000000" stroke-opacity="1" stroke-width="3.2"/>
<circle clip-path="url(#clip242)" cx="1145.92" cy="563.371" r="18" fill="#e26f46" fill-rule="evenodd" fill-opacity="1" stroke="#000000" stroke-opacity="1" stroke-width="3.2"/>
<circle clip-path="url(#clip242)" cx="1310.97" cy="445.796" r="18" fill="#e26f46" fill-rule="evenodd" fill-opacity="1" stroke="#000000" stroke-opacity="1" stroke-width="3.2"/>
<circle clip-path="url(#clip242)" cx="1463.2" cy="596.963" r="18" fill="#e26f46" fill-rule="evenodd" fill-opacity="1" stroke="#000000" stroke-opacity="1" stroke-width="3.2"/>
<circle clip-path="url(#clip242)" cx="1630.88" cy="680.946" r="18" fill="#e26f46" fill-rule="evenodd" fill-opacity="1" stroke="#000000" stroke-opacity="1" stroke-width="3.2"/>
<circle clip-path="url(#clip242)" cx="1785.41" cy="445.796" r="18" fill="#e26f46" fill-rule="evenodd" fill-opacity="1" stroke="#000000" stroke-opacity="1" stroke-width="3.2"/>
<circle clip-path="url(#clip242)" cx="2255.57" cy="160.256" r="18" fill="#e26f46" fill-rule="evenodd" fill-opacity="1" stroke="#000000" stroke-opacity="1" stroke-width="3.2"/>
<path clip-path="url(#clip240)" d="M290.963 322.316 L888.486 322.316 L888.486 166.796 L290.963 166.796  Z" fill="#ffffff" fill-rule="evenodd" fill-opacity="1"/>
<polyline clip-path="url(#clip240)" style="stroke:#000000; stroke-linecap:round; stroke-linejoin:round; stroke-width:4; stroke-opacity:1; fill:none" points="290.963,322.316 888.486,322.316 888.486,166.796 290.963,166.796 290.963,322.316 "/>
<polyline clip-path="url(#clip240)" style="stroke:#009af9; stroke-linecap:round; stroke-linejoin:round; stroke-width:8; stroke-opacity:1; fill:none" points="314.661,218.636 456.854,218.636 "/>
<path clip-path="url(#clip240)" d="M480.553 201.356 L487.52 201.356 L496.34 224.874 L505.205 201.356 L512.173 201.356 L512.173 235.916 L507.613 235.916 L507.613 205.569 L498.701 229.272 L494.002 229.272 L485.09 205.569 L485.09 235.916 L480.553 235.916 L480.553 201.356 Z" fill="#000000" fill-rule="nonzero" fill-opacity="1" /><path clip-path="url(#clip240)" d="M531.316 212.976 Q527.89 212.976 525.9 215.661 Q523.909 218.323 523.909 222.976 Q523.909 227.629 525.877 230.314 Q527.867 232.976 531.316 232.976 Q534.719 232.976 536.71 230.291 Q538.701 227.606 538.701 222.976 Q538.701 218.37 536.71 215.684 Q534.719 212.976 531.316 212.976 M531.316 209.365 Q536.872 209.365 540.043 212.976 Q543.214 216.587 543.214 222.976 Q543.214 229.342 540.043 232.976 Q536.872 236.587 531.316 236.587 Q525.738 236.587 522.566 232.976 Q519.418 229.342 519.418 222.976 Q519.418 216.587 522.566 212.976 Q525.738 209.365 531.316 209.365 Z" fill="#000000" fill-rule="nonzero" fill-opacity="1" /><path clip-path="url(#clip240)" d="M567.335 213.925 L567.335 199.897 L571.594 199.897 L571.594 235.916 L567.335 235.916 L567.335 232.027 Q565.992 234.342 563.932 235.476 Q561.895 236.587 559.025 236.587 Q554.326 236.587 551.363 232.837 Q548.423 229.087 548.423 222.976 Q548.423 216.865 551.363 213.115 Q554.326 209.365 559.025 209.365 Q561.895 209.365 563.932 210.499 Q565.992 211.61 567.335 213.925 M552.821 222.976 Q552.821 227.675 554.742 230.36 Q556.687 233.022 560.066 233.022 Q563.446 233.022 565.39 230.36 Q567.335 227.675 567.335 222.976 Q567.335 218.277 565.39 215.615 Q563.446 212.93 560.066 212.93 Q556.687 212.93 554.742 215.615 Q552.821 218.277 552.821 222.976 Z" fill="#000000" fill-rule="nonzero" fill-opacity="1" /><path clip-path="url(#clip240)" d="M602.543 221.888 L602.543 223.971 L582.96 223.971 Q583.237 228.369 585.599 230.684 Q587.983 232.976 592.219 232.976 Q594.673 232.976 596.964 232.374 Q599.279 231.772 601.547 230.569 L601.547 234.596 Q599.256 235.568 596.848 236.078 Q594.441 236.587 591.964 236.587 Q585.761 236.587 582.126 232.976 Q578.515 229.365 578.515 223.207 Q578.515 216.842 581.941 213.115 Q585.39 209.365 591.223 209.365 Q596.455 209.365 599.487 212.745 Q602.543 216.101 602.543 221.888 M598.284 220.638 Q598.237 217.143 596.316 215.059 Q594.418 212.976 591.27 212.976 Q587.705 212.976 585.552 214.99 Q583.423 217.004 583.099 220.661 L598.284 220.638 Z" fill="#000000" fill-rule="nonzero" fill-opacity="1" /><path clip-path="url(#clip240)" d="M609.534 199.897 L613.793 199.897 L613.793 235.916 L609.534 235.916 L609.534 199.897 Z" fill="#000000" fill-rule="nonzero" fill-opacity="1" /><path clip-path="url(#clip240)" d="M642.635 205.198 L642.635 218.184 L648.515 218.184 Q651.779 218.184 653.561 216.495 Q655.344 214.805 655.344 211.68 Q655.344 208.578 653.561 206.888 Q651.779 205.198 648.515 205.198 L642.635 205.198 M637.959 201.356 L648.515 201.356 Q654.325 201.356 657.288 203.995 Q660.274 206.61 660.274 211.68 Q660.274 216.795 657.288 219.411 Q654.325 222.027 648.515 222.027 L642.635 222.027 L642.635 235.916 L637.959 235.916 L637.959 201.356 Z" fill="#000000" fill-rule="nonzero" fill-opacity="1" /><path clip-path="url(#clip240)" d="M680.552 213.971 Q679.834 213.555 678.978 213.37 Q678.144 213.161 677.126 213.161 Q673.515 213.161 671.57 215.522 Q669.649 217.86 669.649 222.258 L669.649 235.916 L665.367 235.916 L665.367 209.99 L669.649 209.99 L669.649 214.018 Q670.992 211.657 673.144 210.522 Q675.297 209.365 678.376 209.365 Q678.816 209.365 679.348 209.434 Q679.88 209.481 680.529 209.596 L680.552 213.971 Z" fill="#000000" fill-rule="nonzero" fill-opacity="1" /><path clip-path="url(#clip240)" d="M706.153 221.888 L706.153 223.971 L686.57 223.971 Q686.848 228.369 689.209 230.684 Q691.593 232.976 695.829 232.976 Q698.283 232.976 700.575 232.374 Q702.89 231.772 705.158 230.569 L705.158 234.596 Q702.866 235.568 700.459 236.078 Q698.052 236.587 695.575 236.587 Q689.371 236.587 685.737 232.976 Q682.126 229.365 682.126 223.207 Q682.126 216.842 685.552 213.115 Q689.001 209.365 694.834 209.365 Q700.065 209.365 703.098 212.745 Q706.153 216.101 706.153 221.888 M701.894 220.638 Q701.848 217.143 699.927 215.059 Q698.028 212.976 694.88 212.976 Q691.316 212.976 689.163 214.99 Q687.033 217.004 686.709 220.661 L701.894 220.638 Z" fill="#000000" fill-rule="nonzero" fill-opacity="1" /><path clip-path="url(#clip240)" d="M730.204 213.925 L730.204 199.897 L734.463 199.897 L734.463 235.916 L730.204 235.916 L730.204 232.027 Q728.862 234.342 726.801 235.476 Q724.764 236.587 721.894 236.587 Q717.195 236.587 714.232 232.837 Q711.292 229.087 711.292 222.976 Q711.292 216.865 714.232 213.115 Q717.195 209.365 721.894 209.365 Q724.764 209.365 726.801 210.499 Q728.862 211.61 730.204 213.925 M715.69 222.976 Q715.69 227.675 717.612 230.36 Q719.556 233.022 722.936 233.022 Q726.315 233.022 728.26 230.36 Q730.204 227.675 730.204 222.976 Q730.204 218.277 728.26 215.615 Q726.315 212.93 722.936 212.93 Q719.556 212.93 717.612 215.615 Q715.69 218.277 715.69 222.976 Z" fill="#000000" fill-rule="nonzero" fill-opacity="1" /><path clip-path="url(#clip240)" d="M743.237 209.99 L747.496 209.99 L747.496 235.916 L743.237 235.916 L743.237 209.99 M743.237 199.897 L747.496 199.897 L747.496 205.291 L743.237 205.291 L743.237 199.897 Z" fill="#000000" fill-rule="nonzero" fill-opacity="1" /><path clip-path="url(#clip240)" d="M775.065 210.985 L775.065 214.967 Q773.26 213.971 771.431 213.485 Q769.625 212.976 767.773 212.976 Q763.63 212.976 761.338 215.615 Q759.047 218.231 759.047 222.976 Q759.047 227.721 761.338 230.36 Q763.63 232.976 767.773 232.976 Q769.625 232.976 771.431 232.49 Q773.26 231.981 775.065 230.985 L775.065 234.92 Q773.283 235.754 771.361 236.17 Q769.463 236.587 767.311 236.587 Q761.454 236.587 758.005 232.906 Q754.556 229.226 754.556 222.976 Q754.556 216.633 758.028 212.999 Q761.523 209.365 767.588 209.365 Q769.556 209.365 771.431 209.782 Q773.306 210.175 775.065 210.985 Z" fill="#000000" fill-rule="nonzero" fill-opacity="1" /><path clip-path="url(#clip240)" d="M786.685 202.629 L786.685 209.99 L795.458 209.99 L795.458 213.3 L786.685 213.3 L786.685 227.374 Q786.685 230.545 787.542 231.448 Q788.421 232.351 791.084 232.351 L795.458 232.351 L795.458 235.916 L791.084 235.916 Q786.153 235.916 784.278 234.087 Q782.403 232.235 782.403 227.374 L782.403 213.3 L779.278 213.3 L779.278 209.99 L782.403 209.99 L782.403 202.629 L786.685 202.629 Z" fill="#000000" fill-rule="nonzero" fill-opacity="1" /><path clip-path="url(#clip240)" d="M801.06 209.99 L805.32 209.99 L805.32 235.916 L801.06 235.916 L801.06 209.99 M801.06 199.897 L805.32 199.897 L805.32 205.291 L801.06 205.291 L801.06 199.897 Z" fill="#000000" fill-rule="nonzero" fill-opacity="1" /><path clip-path="url(#clip240)" d="M824.278 212.976 Q820.852 212.976 818.861 215.661 Q816.87 218.323 816.87 222.976 Q816.87 227.629 818.838 230.314 Q820.829 232.976 824.278 232.976 Q827.681 232.976 829.671 230.291 Q831.662 227.606 831.662 222.976 Q831.662 218.37 829.671 215.684 Q827.681 212.976 824.278 212.976 M824.278 209.365 Q829.833 209.365 833.005 212.976 Q836.176 216.587 836.176 222.976 Q836.176 229.342 833.005 232.976 Q829.833 236.587 824.278 236.587 Q818.699 236.587 815.528 232.976 Q812.38 229.342 812.38 222.976 Q812.38 216.587 815.528 212.976 Q818.699 209.365 824.278 209.365 Z" fill="#000000" fill-rule="nonzero" fill-opacity="1" /><path clip-path="url(#clip240)" d="M864.787 220.268 L864.787 235.916 L860.528 235.916 L860.528 220.407 Q860.528 216.726 859.092 214.897 Q857.657 213.069 854.787 213.069 Q851.338 213.069 849.347 215.268 Q847.356 217.467 847.356 221.263 L847.356 235.916 L843.074 235.916 L843.074 209.99 L847.356 209.99 L847.356 214.018 Q848.884 211.68 850.944 210.522 Q853.028 209.365 855.736 209.365 Q860.204 209.365 862.495 212.143 Q864.787 214.897 864.787 220.268 Z" fill="#000000" fill-rule="nonzero" fill-opacity="1" /><circle clip-path="url(#clip240)" cx="385.758" cy="270.476" r="20.9455" fill="#e26f46" fill-rule="evenodd" fill-opacity="1" stroke="#000000" stroke-opacity="1" stroke-width="3.72364"/>
<path clip-path="url(#clip240)" d="M496.571 256.367 Q491.479 256.367 488.469 260.163 Q485.483 263.96 485.483 270.51 Q485.483 277.038 488.469 280.834 Q491.479 284.631 496.571 284.631 Q501.664 284.631 504.627 280.834 Q507.613 277.038 507.613 270.51 Q507.613 263.96 504.627 260.163 Q501.664 256.367 496.571 256.367 M496.571 252.571 Q503.84 252.571 508.192 257.455 Q512.543 262.316 512.543 270.51 Q512.543 278.682 508.192 283.566 Q503.84 288.427 496.571 288.427 Q489.28 288.427 484.905 283.566 Q480.553 278.705 480.553 270.51 Q480.553 262.316 484.905 257.455 Q489.28 252.571 496.571 252.571 Z" fill="#000000" fill-rule="nonzero" fill-opacity="1" /><path clip-path="url(#clip240)" d="M538.284 274.816 Q538.284 270.117 536.34 267.455 Q534.418 264.77 531.039 264.77 Q527.659 264.77 525.715 267.455 Q523.793 270.117 523.793 274.816 Q523.793 279.515 525.715 282.2 Q527.659 284.862 531.039 284.862 Q534.418 284.862 536.34 282.2 Q538.284 279.515 538.284 274.816 M523.793 265.765 Q525.136 263.45 527.173 262.339 Q529.233 261.205 532.08 261.205 Q536.802 261.205 539.742 264.955 Q542.705 268.705 542.705 274.816 Q542.705 280.927 539.742 284.677 Q536.802 288.427 532.08 288.427 Q529.233 288.427 527.173 287.316 Q525.136 286.182 523.793 283.867 L523.793 287.756 L519.511 287.756 L519.511 251.737 L523.793 251.737 L523.793 265.765 Z" fill="#000000" fill-rule="nonzero" fill-opacity="1" /><path clip-path="url(#clip240)" d="M566.293 262.594 L566.293 266.622 Q564.488 265.696 562.543 265.233 Q560.599 264.77 558.515 264.77 Q555.344 264.77 553.747 265.742 Q552.173 266.714 552.173 268.659 Q552.173 270.14 553.307 270.997 Q554.441 271.83 557.867 272.594 L559.326 272.918 Q563.863 273.89 565.761 275.672 Q567.682 277.432 567.682 280.603 Q567.682 284.214 564.812 286.321 Q561.964 288.427 556.964 288.427 Q554.881 288.427 552.613 288.01 Q550.367 287.617 547.867 286.807 L547.867 282.409 Q550.228 283.635 552.52 284.26 Q554.812 284.862 557.057 284.862 Q560.066 284.862 561.687 283.844 Q563.307 282.802 563.307 280.927 Q563.307 279.191 562.126 278.265 Q560.969 277.339 557.011 276.483 L555.529 276.135 Q551.571 275.302 549.812 273.589 Q548.052 271.853 548.052 268.844 Q548.052 265.186 550.645 263.196 Q553.238 261.205 558.006 261.205 Q560.367 261.205 562.45 261.552 Q564.534 261.899 566.293 262.594 Z" fill="#000000" fill-rule="nonzero" fill-opacity="1" /><path clip-path="url(#clip240)" d="M596.64 273.728 L596.64 275.811 L577.057 275.811 Q577.335 280.209 579.696 282.524 Q582.08 284.816 586.316 284.816 Q588.77 284.816 591.061 284.214 Q593.376 283.612 595.645 282.409 L595.645 286.436 Q593.353 287.408 590.946 287.918 Q588.538 288.427 586.061 288.427 Q579.858 288.427 576.224 284.816 Q572.612 281.205 572.612 275.047 Q572.612 268.682 576.038 264.955 Q579.487 261.205 585.321 261.205 Q590.552 261.205 593.585 264.585 Q596.64 267.941 596.64 273.728 M592.381 272.478 Q592.335 268.983 590.413 266.899 Q588.515 264.816 585.367 264.816 Q581.802 264.816 579.649 266.83 Q577.52 268.844 577.196 272.501 L592.381 272.478 Z" fill="#000000" fill-rule="nonzero" fill-opacity="1" /><path clip-path="url(#clip240)" d="M618.654 265.811 Q617.936 265.395 617.08 265.21 Q616.246 265.001 615.228 265.001 Q611.617 265.001 609.672 267.362 Q607.751 269.7 607.751 274.098 L607.751 287.756 L603.469 287.756 L603.469 261.83 L607.751 261.83 L607.751 265.858 Q609.094 263.497 611.247 262.362 Q613.399 261.205 616.478 261.205 Q616.918 261.205 617.45 261.274 Q617.983 261.321 618.631 261.436 L618.654 265.811 Z" fill="#000000" fill-rule="nonzero" fill-opacity="1" /><path clip-path="url(#clip240)" d="M620.066 261.83 L624.58 261.83 L632.682 283.589 L640.783 261.83 L645.297 261.83 L635.575 287.756 L629.788 287.756 L620.066 261.83 Z" fill="#000000" fill-rule="nonzero" fill-opacity="1" /><path clip-path="url(#clip240)" d="M673.353 273.728 L673.353 275.811 L653.769 275.811 Q654.047 280.209 656.408 282.524 Q658.793 284.816 663.029 284.816 Q665.482 284.816 667.774 284.214 Q670.089 283.612 672.357 282.409 L672.357 286.436 Q670.066 287.408 667.658 287.918 Q665.251 288.427 662.774 288.427 Q656.57 288.427 652.936 284.816 Q649.325 281.205 649.325 275.047 Q649.325 268.682 652.751 264.955 Q656.2 261.205 662.033 261.205 Q667.265 261.205 670.297 264.585 Q673.353 267.941 673.353 273.728 M669.093 272.478 Q669.047 268.983 667.126 266.899 Q665.228 264.816 662.08 264.816 Q658.515 264.816 656.362 266.83 Q654.232 268.844 653.908 272.501 L669.093 272.478 Z" fill="#000000" fill-rule="nonzero" fill-opacity="1" /><path clip-path="url(#clip240)" d="M697.403 265.765 L697.403 251.737 L701.663 251.737 L701.663 287.756 L697.403 287.756 L697.403 283.867 Q696.061 286.182 694.001 287.316 Q691.964 288.427 689.093 288.427 Q684.394 288.427 681.431 284.677 Q678.492 280.927 678.492 274.816 Q678.492 268.705 681.431 264.955 Q684.394 261.205 689.093 261.205 Q691.964 261.205 694.001 262.339 Q696.061 263.45 697.403 265.765 M682.89 274.816 Q682.89 279.515 684.811 282.2 Q686.755 284.862 690.135 284.862 Q693.515 284.862 695.459 282.2 Q697.403 279.515 697.403 274.816 Q697.403 270.117 695.459 267.455 Q693.515 264.77 690.135 264.77 Q686.755 264.77 684.811 267.455 Q682.89 270.117 682.89 274.816 Z" fill="#000000" fill-rule="nonzero" fill-opacity="1" /><path clip-path="url(#clip240)" d="M730.366 257.038 L730.366 283.913 L736.014 283.913 Q743.167 283.913 746.477 280.672 Q749.811 277.432 749.811 270.441 Q749.811 263.497 746.477 260.279 Q743.167 257.038 736.014 257.038 L730.366 257.038 M725.69 253.196 L735.297 253.196 Q745.343 253.196 750.042 257.386 Q754.741 261.552 754.741 270.441 Q754.741 279.376 750.019 283.566 Q745.297 287.756 735.297 287.756 L725.69 287.756 L725.69 253.196 Z" fill="#000000" fill-rule="nonzero" fill-opacity="1" /><path clip-path="url(#clip240)" d="M773.792 274.723 Q768.63 274.723 766.639 275.904 Q764.648 277.084 764.648 279.932 Q764.648 282.2 766.13 283.543 Q767.635 284.862 770.204 284.862 Q773.746 284.862 775.875 282.362 Q778.028 279.839 778.028 275.672 L778.028 274.723 L773.792 274.723 M782.287 272.964 L782.287 287.756 L778.028 287.756 L778.028 283.821 Q776.57 286.182 774.394 287.316 Q772.218 288.427 769.07 288.427 Q765.088 288.427 762.727 286.205 Q760.389 283.959 760.389 280.209 Q760.389 275.834 763.306 273.612 Q766.246 271.39 772.056 271.39 L778.028 271.39 L778.028 270.973 Q778.028 268.034 776.084 266.436 Q774.162 264.816 770.667 264.816 Q768.445 264.816 766.338 265.348 Q764.232 265.881 762.287 266.946 L762.287 263.01 Q764.625 262.108 766.824 261.668 Q769.023 261.205 771.107 261.205 Q776.732 261.205 779.51 264.122 Q782.287 267.038 782.287 272.964 Z" fill="#000000" fill-rule="nonzero" fill-opacity="1" /><path clip-path="url(#clip240)" d="M795.273 254.469 L795.273 261.83 L804.046 261.83 L804.046 265.14 L795.273 265.14 L795.273 279.214 Q795.273 282.385 796.13 283.288 Q797.009 284.191 799.671 284.191 L804.046 284.191 L804.046 287.756 L799.671 287.756 Q794.741 287.756 792.866 285.927 Q790.991 284.075 790.991 279.214 L790.991 265.14 L787.866 265.14 L787.866 261.83 L790.991 261.83 L790.991 254.469 L795.273 254.469 Z" fill="#000000" fill-rule="nonzero" fill-opacity="1" /><path clip-path="url(#clip240)" d="M821.431 274.723 Q816.269 274.723 814.278 275.904 Q812.287 277.084 812.287 279.932 Q812.287 282.2 813.769 283.543 Q815.273 284.862 817.843 284.862 Q821.384 284.862 823.514 282.362 Q825.667 279.839 825.667 275.672 L825.667 274.723 L821.431 274.723 M829.926 272.964 L829.926 287.756 L825.667 287.756 L825.667 283.821 Q824.208 286.182 822.032 287.316 Q819.857 288.427 816.708 288.427 Q812.727 288.427 810.366 286.205 Q808.028 283.959 808.028 280.209 Q808.028 275.834 810.945 273.612 Q813.884 271.39 819.694 271.39 L825.667 271.39 L825.667 270.973 Q825.667 268.034 823.722 266.436 Q821.801 264.816 818.306 264.816 Q816.083 264.816 813.977 265.348 Q811.87 265.881 809.926 266.946 L809.926 263.01 Q812.264 262.108 814.463 261.668 Q816.662 261.205 818.745 261.205 Q824.37 261.205 827.148 264.122 Q829.926 267.038 829.926 272.964 Z" fill="#000000" fill-rule="nonzero" fill-opacity="1" /></svg>
