<?xml version="1.0" encoding="utf-8"?>
<svg xmlns="http://www.w3.org/2000/svg" xmlns:xlink="http://www.w3.org/1999/xlink" width="900" height="550" viewBox="0 0 3600 2200">
<defs>
  <clipPath id="clip120">
    <rect x="0" y="0" width="3600" height="2200"/>
  </clipPath>
</defs>
<path clip-path="url(#clip120)" d="M0 2200 L3600 2200 L3600 0 L0 0  Z" fill="#ffffff" fill-rule="evenodd" fill-opacity="1"/>
<defs>
  <clipPath id="clip121">
    <rect x="227" y="47" width="3326" height="1978"/>
  </clipPath>
</defs>
<path clip-path="url(#clip120)" d="M227.42 2024.02 L3552.76 2024.02 L3552.76 47.2441 L227.42 47.2441  Z" fill="#ffffff" fill-rule="evenodd" fill-opacity="1"/>
<polyline clip-path="url(#clip121)" style="stroke:#000000; stroke-linecap:round; stroke-linejoin:round; stroke-width:2; stroke-opacity:0.1; fill:none" points="321.533,2024.02 321.533,47.2441 "/>
<polyline clip-path="url(#clip121)" style="stroke:#000000; stroke-linecap:round; stroke-linejoin:round; stroke-width:2; stroke-opacity:0.1; fill:none" points="822.536,2024.02 822.536,47.2441 "/>
<polyline clip-path="url(#clip121)" style="stroke:#000000; stroke-linecap:round; stroke-linejoin:round; stroke-width:2; stroke-opacity:0.1; fill:none" points="1323.54,2024.02 1323.54,47.2441 "/>
<polyline clip-path="url(#clip121)" style="stroke:#000000; stroke-linecap:round; stroke-linejoin:round; stroke-width:2; stroke-opacity:0.1; fill:none" points="1824.54,2024.02 1824.54,47.2441 "/>
<polyline clip-path="url(#clip121)" style="stroke:#000000; stroke-linecap:round; stroke-linejoin:round; stroke-width:2; stroke-opacity:0.1; fill:none" points="2325.54,2024.02 2325.54,47.2441 "/>
<polyline clip-path="url(#clip121)" style="stroke:#000000; stroke-linecap:round; stroke-linejoin:round; stroke-width:2; stroke-opacity:0.1; fill:none" points="2826.54,2024.02 2826.54,47.2441 "/>
<polyline clip-path="url(#clip121)" style="stroke:#000000; stroke-linecap:round; stroke-linejoin:round; stroke-width:2; stroke-opacity:0.1; fill:none" points="3327.55,2024.02 3327.55,47.2441 "/>
<polyline clip-path="url(#clip121)" style="stroke:#000000; stroke-linecap:round; stroke-linejoin:round; stroke-width:2; stroke-opacity:0.1; fill:none" points="227.42,1968.07 3552.76,1968.07 "/>
<polyline clip-path="url(#clip121)" style="stroke:#000000; stroke-linecap:round; stroke-linejoin:round; stroke-width:2; stroke-opacity:0.1; fill:none" points="227.42,1475.24 3552.76,1475.24 "/>
<polyline clip-path="url(#clip121)" style="stroke:#000000; stroke-linecap:round; stroke-linejoin:round; stroke-width:2; stroke-opacity:0.1; fill:none" points="227.42,982.407 3552.76,982.407 "/>
<polyline clip-path="url(#clip121)" style="stroke:#000000; stroke-linecap:round; stroke-linejoin:round; stroke-width:2; stroke-opacity:0.1; fill:none" points="227.42,489.574 3552.76,489.574 "/>
<polyline clip-path="url(#clip120)" style="stroke:#000000; stroke-linecap:round; stroke-linejoin:round; stroke-width:4; stroke-opacity:1; fill:none" points="227.42,2024.02 3552.76,2024.02 "/>
<polyline clip-path="url(#clip120)" style="stroke:#000000; stroke-linecap:round; stroke-linejoin:round; stroke-width:4; stroke-opacity:1; fill:none" points="321.533,2024.02 321.533,2005.12 "/>
<polyline clip-path="url(#clip120)" style="stroke:#000000; stroke-linecap:round; stroke-linejoin:round; stroke-width:4; stroke-opacity:1; fill:none" points="822.536,2024.02 822.536,2005.12 "/>
<polyline clip-path="url(#clip120)" style="stroke:#000000; stroke-linecap:round; stroke-linejoin:round; stroke-width:4; stroke-opacity:1; fill:none" points="1323.54,2024.02 1323.54,2005.12 "/>
<polyline clip-path="url(#clip120)" style="stroke:#000000; stroke-linecap:round; stroke-linejoin:round; stroke-width:4; stroke-opacity:1; fill:none" points="1824.54,2024.02 1824.54,2005.12 "/>
<polyline clip-path="url(#clip120)" style="stroke:#000000; stroke-linecap:round; stroke-linejoin:round; stroke-width:4; stroke-opacity:1; fill:none" points="2325.54,2024.02 2325.54,2005.12 "/>
<polyline clip-path="url(#clip120)" style="stroke:#000000; stroke-linecap:round; stroke-linejoin:round; stroke-width:4; stroke-opacity:1; fill:none" points="2826.54,2024.02 2826.54,2005.12 "/>
<polyline clip-path="url(#clip120)" style="stroke:#000000; stroke-linecap:round; stroke-linejoin:round; stroke-width:4; stroke-opacity:1; fill:none" points="3327.55,2024.02 3327.55,2005.12 "/>
<path clip-path="url(#clip120)" d="M321.533 2064.54 Q317.922 2064.54 316.094 2068.1 Q314.288 2071.64 314.288 2078.77 Q314.288 2085.88 316.094 2089.45 Q317.922 2092.99 321.533 2092.99 Q325.168 2092.99 326.973 2089.45 Q328.802 2085.88 328.802 2078.77 Q328.802 2071.64 326.973 2068.1 Q325.168 2064.54 321.533 2064.54 M321.533 2060.83 Q327.344 2060.83 330.399 2065.44 Q333.478 2070.02 333.478 2078.77 Q333.478 2087.5 330.399 2092.11 Q327.344 2096.69 321.533 2096.69 Q315.723 2096.69 312.645 2092.11 Q309.589 2087.5 309.589 2078.77 Q309.589 2070.02 312.645 2065.44 Q315.723 2060.83 321.533 2060.83 Z" fill="#000000" fill-rule="nonzero" fill-opacity="1" /><path clip-path="url(#clip120)" d="M801.309 2092.08 L817.628 2092.08 L817.628 2096.02 L795.684 2096.02 L795.684 2092.08 Q798.346 2089.33 802.929 2084.7 Q807.536 2080.05 808.716 2078.71 Q810.962 2076.18 811.841 2074.45 Q812.744 2072.69 812.744 2071 Q812.744 2068.24 810.8 2066.51 Q808.878 2064.77 805.777 2064.77 Q803.577 2064.77 801.124 2065.53 Q798.693 2066.3 795.915 2067.85 L795.915 2063.13 Q798.74 2061.99 801.193 2061.41 Q803.647 2060.83 805.684 2060.83 Q811.054 2060.83 814.249 2063.52 Q817.443 2066.21 817.443 2070.7 Q817.443 2072.83 816.633 2074.75 Q815.846 2076.64 813.739 2079.24 Q813.161 2079.91 810.059 2083.13 Q806.957 2086.32 801.309 2092.08 Z" fill="#000000" fill-rule="nonzero" fill-opacity="1" /><path clip-path="url(#clip120)" d="M837.443 2064.54 Q833.832 2064.54 832.003 2068.1 Q830.198 2071.64 830.198 2078.77 Q830.198 2085.88 832.003 2089.45 Q833.832 2092.99 837.443 2092.99 Q841.077 2092.99 842.883 2089.45 Q844.712 2085.88 844.712 2078.77 Q844.712 2071.64 842.883 2068.1 Q841.077 2064.54 837.443 2064.54 M837.443 2060.83 Q843.253 2060.83 846.309 2065.44 Q849.387 2070.02 849.387 2078.77 Q849.387 2087.5 846.309 2092.11 Q843.253 2096.69 837.443 2096.69 Q831.633 2096.69 828.554 2092.11 Q825.499 2087.5 825.499 2078.77 Q825.499 2070.02 828.554 2065.44 Q831.633 2060.83 837.443 2060.83 Z" fill="#000000" fill-rule="nonzero" fill-opacity="1" /><path clip-path="url(#clip120)" d="M1311.71 2065.53 L1299.9 2083.98 L1311.71 2083.98 L1311.71 2065.53 M1310.48 2061.46 L1316.36 2061.46 L1316.36 2083.98 L1321.29 2083.98 L1321.29 2087.87 L1316.36 2087.87 L1316.36 2096.02 L1311.71 2096.02 L1311.71 2087.87 L1296.11 2087.87 L1296.11 2083.36 L1310.48 2061.46 Z" fill="#000000" fill-rule="nonzero" fill-opacity="1" /><path clip-path="url(#clip120)" d="M1339.02 2064.54 Q1335.41 2064.54 1333.58 2068.1 Q1331.78 2071.64 1331.78 2078.77 Q1331.78 2085.88 1333.58 2089.45 Q1335.41 2092.99 1339.02 2092.99 Q1342.66 2092.99 1344.46 2089.45 Q1346.29 2085.88 1346.29 2078.77 Q1346.29 2071.64 1344.46 2068.1 Q1342.66 2064.54 1339.02 2064.54 M1339.02 2060.83 Q1344.83 2060.83 1347.89 2065.44 Q1350.97 2070.02 1350.97 2078.77 Q1350.97 2087.5 1347.89 2092.11 Q1344.83 2096.69 1339.02 2096.69 Q1333.21 2096.69 1330.14 2092.11 Q1327.08 2087.5 1327.08 2078.77 Q1327.08 2070.02 1330.14 2065.44 Q1333.21 2060.83 1339.02 2060.83 Z" fill="#000000" fill-rule="nonzero" fill-opacity="1" /><path clip-path="url(#clip120)" d="M1809.95 2076.88 Q1806.8 2076.88 1804.95 2079.03 Q1803.12 2081.18 1803.12 2084.93 Q1803.12 2088.66 1804.95 2090.83 Q1806.8 2092.99 1809.95 2092.99 Q1813.09 2092.99 1814.92 2090.83 Q1816.77 2088.66 1816.77 2084.93 Q1816.77 2081.18 1814.92 2079.03 Q1813.09 2076.88 1809.95 2076.88 M1819.23 2062.22 L1819.23 2066.48 Q1817.47 2065.65 1815.66 2065.21 Q1813.88 2064.77 1812.12 2064.77 Q1807.49 2064.77 1805.04 2067.89 Q1802.61 2071.02 1802.26 2077.34 Q1803.63 2075.33 1805.69 2074.26 Q1807.75 2073.17 1810.22 2073.17 Q1815.43 2073.17 1818.44 2076.34 Q1821.47 2079.49 1821.47 2084.93 Q1821.47 2090.26 1818.32 2093.47 Q1815.18 2096.69 1809.95 2096.69 Q1803.95 2096.69 1800.78 2092.11 Q1797.61 2087.5 1797.61 2078.77 Q1797.61 2070.58 1801.5 2065.72 Q1805.39 2060.83 1811.94 2060.83 Q1813.7 2060.83 1815.48 2061.18 Q1817.28 2061.53 1819.23 2062.22 Z" fill="#000000" fill-rule="nonzero" fill-opacity="1" /><path clip-path="url(#clip120)" d="M1839.53 2064.54 Q1835.92 2064.54 1834.09 2068.1 Q1832.28 2071.64 1832.28 2078.77 Q1832.28 2085.88 1834.09 2089.45 Q1835.92 2092.99 1839.53 2092.99 Q1843.16 2092.99 1844.97 2089.45 Q1846.8 2085.88 1846.8 2078.77 Q1846.8 2071.64 1844.97 2068.1 Q1843.16 2064.54 1839.53 2064.54 M1839.53 2060.83 Q1845.34 2060.83 1848.39 2065.44 Q1851.47 2070.02 1851.47 2078.77 Q1851.47 2087.5 1848.39 2092.11 Q1845.34 2096.69 1839.53 2096.69 Q1833.72 2096.69 1830.64 2092.11 Q1827.58 2087.5 1827.58 2078.77 Q1827.58 2070.02 1830.64 2065.44 Q1833.72 2060.83 1839.53 2060.83 Z" fill="#000000" fill-rule="nonzero" fill-opacity="1" /><path clip-path="url(#clip120)" d="M2310.42 2079.61 Q2307.08 2079.61 2305.16 2081.39 Q2303.26 2083.17 2303.26 2086.3 Q2303.26 2089.42 2305.16 2091.21 Q2307.08 2092.99 2310.42 2092.99 Q2313.75 2092.99 2315.67 2091.21 Q2317.59 2089.4 2317.59 2086.3 Q2317.59 2083.17 2315.67 2081.39 Q2313.77 2079.61 2310.42 2079.61 M2305.74 2077.62 Q2302.73 2076.88 2301.04 2074.82 Q2299.37 2072.76 2299.37 2069.79 Q2299.37 2065.65 2302.31 2063.24 Q2305.28 2060.83 2310.42 2060.83 Q2315.58 2060.83 2318.52 2063.24 Q2321.46 2065.65 2321.46 2069.79 Q2321.46 2072.76 2319.77 2074.82 Q2318.1 2076.88 2315.11 2077.62 Q2318.49 2078.4 2320.37 2080.7 Q2322.27 2082.99 2322.27 2086.3 Q2322.27 2091.32 2319.19 2094.01 Q2316.13 2096.69 2310.42 2096.69 Q2304.7 2096.69 2301.62 2094.01 Q2298.56 2091.32 2298.56 2086.3 Q2298.56 2082.99 2300.46 2080.7 Q2302.36 2078.4 2305.74 2077.62 M2304.03 2070.23 Q2304.03 2072.92 2305.69 2074.42 Q2307.38 2075.93 2310.42 2075.93 Q2313.42 2075.93 2315.11 2074.42 Q2316.83 2072.92 2316.83 2070.23 Q2316.83 2067.55 2315.11 2066.04 Q2313.42 2064.54 2310.42 2064.54 Q2307.38 2064.54 2305.69 2066.04 Q2304.03 2067.55 2304.03 2070.23 Z" fill="#000000" fill-rule="nonzero" fill-opacity="1" /><path clip-path="url(#clip120)" d="M2340.58 2064.54 Q2336.97 2064.54 2335.14 2068.1 Q2333.33 2071.64 2333.33 2078.77 Q2333.33 2085.88 2335.14 2089.45 Q2336.97 2092.99 2340.58 2092.99 Q2344.21 2092.99 2346.02 2089.45 Q2347.85 2085.88 2347.85 2078.77 Q2347.85 2071.64 2346.02 2068.1 Q2344.21 2064.54 2340.58 2064.54 M2340.58 2060.83 Q2346.39 2060.83 2349.44 2065.44 Q2352.52 2070.02 2352.52 2078.77 Q2352.52 2087.5 2349.44 2092.11 Q2346.39 2096.69 2340.58 2096.69 Q2334.77 2096.69 2331.69 2092.11 Q2328.63 2087.5 2328.63 2078.77 Q2328.63 2070.02 2331.69 2065.44 Q2334.77 2060.83 2340.58 2060.83 Z" fill="#000000" fill-rule="nonzero" fill-opacity="1" /><path clip-path="url(#clip120)" d="M2786.15 2092.08 L2793.79 2092.08 L2793.79 2065.72 L2785.48 2067.39 L2785.48 2063.13 L2793.74 2061.46 L2798.42 2061.46 L2798.42 2092.08 L2806.06 2092.08 L2806.06 2096.02 L2786.15 2096.02 L2786.15 2092.08 Z" fill="#000000" fill-rule="nonzero" fill-opacity="1" /><path clip-path="url(#clip120)" d="M2825.5 2064.54 Q2821.89 2064.54 2820.06 2068.1 Q2818.26 2071.64 2818.26 2078.77 Q2818.26 2085.88 2820.06 2089.45 Q2821.89 2092.99 2825.5 2092.99 Q2829.14 2092.99 2830.94 2089.45 Q2832.77 2085.88 2832.77 2078.77 Q2832.77 2071.64 2830.94 2068.1 Q2829.14 2064.54 2825.5 2064.54 M2825.5 2060.83 Q2831.31 2060.83 2834.37 2065.44 Q2837.45 2070.02 2837.45 2078.77 Q2837.45 2087.5 2834.37 2092.11 Q2831.31 2096.69 2825.5 2096.69 Q2819.69 2096.69 2816.61 2092.11 Q2813.56 2087.5 2813.56 2078.77 Q2813.56 2070.02 2816.61 2065.44 Q2819.69 2060.83 2825.5 2060.83 Z" fill="#000000" fill-rule="nonzero" fill-opacity="1" /><path clip-path="url(#clip120)" d="M2855.66 2064.54 Q2852.05 2064.54 2850.23 2068.1 Q2848.42 2071.64 2848.42 2078.77 Q2848.42 2085.88 2850.23 2089.45 Q2852.05 2092.99 2855.66 2092.99 Q2859.3 2092.99 2861.1 2089.45 Q2862.93 2085.88 2862.93 2078.77 Q2862.93 2071.64 2861.1 2068.1 Q2859.3 2064.54 2855.66 2064.54 M2855.66 2060.83 Q2861.48 2060.83 2864.53 2065.44 Q2867.61 2070.02 2867.61 2078.77 Q2867.61 2087.5 2864.53 2092.11 Q2861.48 2096.69 2855.66 2096.69 Q2849.85 2096.69 2846.78 2092.11 Q2843.72 2087.5 2843.72 2078.77 Q2843.72 2070.02 2846.78 2065.44 Q2849.85 2060.83 2855.66 2060.83 Z" fill="#000000" fill-rule="nonzero" fill-opacity="1" /><path clip-path="url(#clip120)" d="M3287.15 2092.08 L3294.79 2092.08 L3294.79 2065.72 L3286.48 2067.39 L3286.48 2063.13 L3294.75 2061.46 L3299.42 2061.46 L3299.42 2092.08 L3307.06 2092.08 L3307.06 2096.02 L3287.15 2096.02 L3287.15 2092.08 Z" fill="#000000" fill-rule="nonzero" fill-opacity="1" /><path clip-path="url(#clip120)" d="M3320.53 2092.08 L3336.85 2092.08 L3336.85 2096.02 L3314.91 2096.02 L3314.91 2092.08 Q3317.57 2089.33 3322.15 2084.7 Q3326.76 2080.05 3327.94 2078.71 Q3330.19 2076.18 3331.07 2074.45 Q3331.97 2072.69 3331.97 2071 Q3331.97 2068.24 3330.02 2066.51 Q3328.1 2064.77 3325 2064.77 Q3322.8 2064.77 3320.35 2065.53 Q3317.92 2066.3 3315.14 2067.85 L3315.14 2063.13 Q3317.96 2061.99 3320.42 2061.41 Q3322.87 2060.83 3324.91 2060.83 Q3330.28 2060.83 3333.47 2063.52 Q3336.67 2066.21 3336.67 2070.7 Q3336.67 2072.83 3335.86 2074.75 Q3335.07 2076.64 3332.96 2079.24 Q3332.38 2079.91 3329.28 2083.13 Q3326.18 2086.32 3320.53 2092.08 Z" fill="#000000" fill-rule="nonzero" fill-opacity="1" /><path clip-path="url(#clip120)" d="M3356.67 2064.54 Q3353.06 2064.54 3351.23 2068.1 Q3349.42 2071.64 3349.42 2078.77 Q3349.42 2085.88 3351.23 2089.45 Q3353.06 2092.99 3356.67 2092.99 Q3360.3 2092.99 3362.11 2089.45 Q3363.94 2085.88 3363.94 2078.77 Q3363.94 2071.64 3362.11 2068.1 Q3360.3 2064.54 3356.67 2064.54 M3356.67 2060.83 Q3362.48 2060.83 3365.53 2065.44 Q3368.61 2070.02 3368.61 2078.77 Q3368.61 2087.5 3365.53 2092.11 Q3362.48 2096.69 3356.67 2096.69 Q3350.86 2096.69 3347.78 2092.11 Q3344.72 2087.5 3344.72 2078.77 Q3344.72 2070.02 3347.78 2065.44 Q3350.86 2060.83 3356.67 2060.83 Z" fill="#000000" fill-rule="nonzero" fill-opacity="1" /><path clip-path="url(#clip120)" d="M1756.58 2139.36 L1796.78 2139.36 L1796.78 2144.77 L1779.91 2144.77 L1779.91 2186.88 L1773.45 2186.88 L1773.45 2144.77 L1756.58 2144.77 L1756.58 2139.36 Z" fill="#000000" fill-rule="nonzero" fill-opacity="1" /><path clip-path="url(#clip120)" d="M1800.73 2151.24 L1806.59 2151.24 L1806.59 2186.88 L1800.73 2186.88 L1800.73 2151.24 M1800.73 2137.36 L1806.59 2137.36 L1806.59 2144.77 L1800.73 2144.77 L1800.73 2137.36 Z" fill="#000000" fill-rule="nonzero" fill-opacity="1" /><path clip-path="url(#clip120)" d="M1846.59 2158.08 Q1848.79 2154.13 1851.85 2152.25 Q1854.9 2150.38 1859.04 2150.38 Q1864.61 2150.38 1867.63 2154.29 Q1870.66 2158.17 1870.66 2165.37 L1870.66 2186.88 L1864.77 2186.88 L1864.77 2165.56 Q1864.77 2160.43 1862.95 2157.95 Q1861.14 2155.47 1857.42 2155.47 Q1852.86 2155.47 1850.22 2158.49 Q1847.58 2161.52 1847.58 2166.74 L1847.58 2186.88 L1841.69 2186.88 L1841.69 2165.56 Q1841.69 2160.4 1839.88 2157.95 Q1838.06 2155.47 1834.28 2155.47 Q1829.79 2155.47 1827.15 2158.52 Q1824.51 2161.55 1824.51 2166.74 L1824.51 2186.88 L1818.62 2186.88 L1818.62 2151.24 L1824.51 2151.24 L1824.51 2156.77 Q1826.51 2153.5 1829.31 2151.94 Q1832.11 2150.38 1835.96 2150.38 Q1839.85 2150.38 1842.55 2152.35 Q1845.29 2154.32 1846.59 2158.08 Z" fill="#000000" fill-rule="nonzero" fill-opacity="1" /><path clip-path="url(#clip120)" d="M1912.83 2167.6 L1912.83 2170.46 L1885.9 2170.46 Q1886.28 2176.51 1889.53 2179.69 Q1892.81 2182.84 1898.63 2182.84 Q1902.01 2182.84 1905.16 2182.01 Q1908.34 2181.19 1911.46 2179.53 L1911.46 2185.07 Q1908.31 2186.41 1905 2187.11 Q1901.69 2187.81 1898.28 2187.81 Q1889.75 2187.81 1884.76 2182.84 Q1879.79 2177.88 1879.79 2169.41 Q1879.79 2160.66 1884.5 2155.53 Q1889.24 2150.38 1897.27 2150.38 Q1904.46 2150.38 1908.63 2155.02 Q1912.83 2159.64 1912.83 2167.6 M1906.97 2165.88 Q1906.91 2161.07 1904.27 2158.21 Q1901.66 2155.34 1897.33 2155.34 Q1892.43 2155.34 1889.47 2158.11 Q1886.54 2160.88 1886.09 2165.91 L1906.97 2165.88 Z" fill="#000000" fill-rule="nonzero" fill-opacity="1" /><path clip-path="url(#clip120)" d="M1957.23 2137.42 Q1952.97 2144.74 1950.9 2151.9 Q1948.83 2159.07 1948.83 2166.42 Q1948.83 2173.77 1950.9 2181 Q1953 2188.19 1957.23 2195.48 L1952.14 2195.48 Q1947.36 2188 1944.98 2180.77 Q1942.62 2173.55 1942.62 2166.42 Q1942.62 2159.32 1944.98 2152.13 Q1947.33 2144.93 1952.14 2137.42 L1957.23 2137.42 Z" fill="#000000" fill-rule="nonzero" fill-opacity="1" /><path clip-path="url(#clip120)" d="M1998.23 2165.37 L1998.23 2186.88 L1992.37 2186.88 L1992.37 2165.56 Q1992.37 2160.5 1990.4 2157.98 Q1988.42 2155.47 1984.48 2155.47 Q1979.73 2155.47 1977 2158.49 Q1974.26 2161.52 1974.26 2166.74 L1974.26 2186.88 L1968.37 2186.88 L1968.37 2137.36 L1974.26 2137.36 L1974.26 2156.77 Q1976.36 2153.56 1979.19 2151.97 Q1982.06 2150.38 1985.78 2150.38 Q1991.92 2150.38 1995.07 2154.2 Q1998.23 2157.98 1998.23 2165.37 Z" fill="#000000" fill-rule="nonzero" fill-opacity="1" /><path clip-path="url(#clip120)" d="M2008.98 2137.42 L2014.08 2137.42 Q2018.85 2144.93 2021.21 2152.13 Q2023.59 2159.32 2023.59 2166.42 Q2023.59 2173.55 2021.21 2180.77 Q2018.85 2188 2014.08 2195.48 L2008.98 2195.48 Q2013.22 2188.19 2015.29 2181 Q2017.39 2173.77 2017.39 2166.42 Q2017.39 2159.07 2015.29 2151.9 Q2013.22 2144.74 2008.98 2137.42 Z" fill="#000000" fill-rule="nonzero" fill-opacity="1" /><polyline clip-path="url(#clip120)" style="stroke:#000000; stroke-linecap:round; stroke-linejoin:round; stroke-width:4; stroke-opacity:1; fill:none" points="227.42,2024.02 227.42,47.2441 "/>
<polyline clip-path="url(#clip120)" style="stroke:#000000; stroke-linecap:round; stroke-linejoin:round; stroke-width:4; stroke-opacity:1; fill:none" points="227.42,1968.07 246.318,1968.07 "/>
<polyline clip-path="url(#clip120)" style="stroke:#000000; stroke-linecap:round; stroke-linejoin:round; stroke-width:4; stroke-opacity:1; fill:none" points="227.42,1475.24 246.318,1475.24 "/>
<polyline clip-path="url(#clip120)" style="stroke:#000000; stroke-linecap:round; stroke-linejoin:round; stroke-width:4; stroke-opacity:1; fill:none" points="227.42,982.407 246.318,982.407 "/>
<polyline clip-path="url(#clip120)" style="stroke:#000000; stroke-linecap:round; stroke-linejoin:round; stroke-width:4; stroke-opacity:1; fill:none" points="227.42,489.574 246.318,489.574 "/>
<path clip-path="url(#clip120)" d="M116.245 1953.87 Q112.633 1953.87 110.805 1957.44 Q108.999 1960.98 108.999 1968.11 Q108.999 1975.21 110.805 1978.78 Q112.633 1982.32 116.245 1982.32 Q119.879 1982.32 121.684 1978.78 Q123.513 1975.21 123.513 1968.11 Q123.513 1960.98 121.684 1957.44 Q119.879 1953.87 116.245 1953.87 M116.245 1950.17 Q122.055 1950.17 125.11 1954.77 Q128.189 1959.36 128.189 1968.11 Q128.189 1976.83 125.11 1981.44 Q122.055 1986.02 116.245 1986.02 Q110.434 1986.02 107.356 1981.44 Q104.3 1976.83 104.3 1968.11 Q104.3 1959.36 107.356 1954.77 Q110.434 1950.17 116.245 1950.17 Z" fill="#000000" fill-rule="nonzero" fill-opacity="1" /><path clip-path="url(#clip120)" d="M136.406 1979.47 L141.291 1979.47 L141.291 1985.35 L136.406 1985.35 L136.406 1979.47 Z" fill="#000000" fill-rule="nonzero" fill-opacity="1" /><path clip-path="url(#clip120)" d="M161.476 1953.87 Q157.865 1953.87 156.036 1957.44 Q154.23 1960.98 154.23 1968.11 Q154.23 1975.21 156.036 1978.78 Q157.865 1982.32 161.476 1982.32 Q165.11 1982.32 166.916 1978.78 Q168.744 1975.21 168.744 1968.11 Q168.744 1960.98 166.916 1957.44 Q165.11 1953.87 161.476 1953.87 M161.476 1950.17 Q167.286 1950.17 170.341 1954.77 Q173.42 1959.36 173.42 1968.11 Q173.42 1976.83 170.341 1981.44 Q167.286 1986.02 161.476 1986.02 Q155.666 1986.02 152.587 1981.44 Q149.531 1976.83 149.531 1968.11 Q149.531 1959.36 152.587 1954.77 Q155.666 1950.17 161.476 1950.17 Z" fill="#000000" fill-rule="nonzero" fill-opacity="1" /><path clip-path="url(#clip120)" d="M117.24 1461.04 Q113.629 1461.04 111.8 1464.6 Q109.995 1468.15 109.995 1475.27 Q109.995 1482.38 111.8 1485.95 Q113.629 1489.49 117.24 1489.49 Q120.874 1489.49 122.68 1485.95 Q124.508 1482.38 124.508 1475.27 Q124.508 1468.15 122.68 1464.6 Q120.874 1461.04 117.24 1461.04 M117.24 1457.34 Q123.05 1457.34 126.106 1461.94 Q129.184 1466.52 129.184 1475.27 Q129.184 1484 126.106 1488.61 Q123.05 1493.19 117.24 1493.19 Q111.43 1493.19 108.351 1488.61 Q105.296 1484 105.296 1475.27 Q105.296 1466.52 108.351 1461.94 Q111.43 1457.34 117.24 1457.34 Z" fill="#000000" fill-rule="nonzero" fill-opacity="1" /><path clip-path="url(#clip120)" d="M137.402 1486.64 L142.286 1486.64 L142.286 1492.52 L137.402 1492.52 L137.402 1486.64 Z" fill="#000000" fill-rule="nonzero" fill-opacity="1" /><path clip-path="url(#clip120)" d="M152.517 1457.96 L170.874 1457.96 L170.874 1461.9 L156.8 1461.9 L156.8 1470.37 Q157.818 1470.02 158.837 1469.86 Q159.855 1469.67 160.874 1469.67 Q166.661 1469.67 170.041 1472.84 Q173.42 1476.02 173.42 1481.43 Q173.42 1487.01 169.948 1490.11 Q166.476 1493.19 160.156 1493.19 Q157.98 1493.19 155.712 1492.82 Q153.467 1492.45 151.059 1491.71 L151.059 1487.01 Q153.142 1488.15 155.365 1488.7 Q157.587 1489.26 160.064 1489.26 Q164.068 1489.26 166.406 1487.15 Q168.744 1485.04 168.744 1481.43 Q168.744 1477.82 166.406 1475.71 Q164.068 1473.61 160.064 1473.61 Q158.189 1473.61 156.314 1474.02 Q154.462 1474.44 152.517 1475.32 L152.517 1457.96 Z" fill="#000000" fill-rule="nonzero" fill-opacity="1" /><path clip-path="url(#clip120)" d="M107.055 995.752 L114.694 995.752 L114.694 969.386 L106.383 971.053 L106.383 966.794 L114.647 965.127 L119.323 965.127 L119.323 995.752 L126.962 995.752 L126.962 999.687 L107.055 999.687 L107.055 995.752 Z" fill="#000000" fill-rule="nonzero" fill-opacity="1" /><path clip-path="url(#clip120)" d="M136.406 993.807 L141.291 993.807 L141.291 999.687 L136.406 999.687 L136.406 993.807 Z" fill="#000000" fill-rule="nonzero" fill-opacity="1" /><path clip-path="url(#clip120)" d="M161.476 968.206 Q157.865 968.206 156.036 971.77 Q154.23 975.312 154.23 982.442 Q154.23 989.548 156.036 993.113 Q157.865 996.654 161.476 996.654 Q165.11 996.654 166.916 993.113 Q168.744 989.548 168.744 982.442 Q168.744 975.312 166.916 971.77 Q165.11 968.206 161.476 968.206 M161.476 964.502 Q167.286 964.502 170.341 969.108 Q173.42 973.692 173.42 982.442 Q173.42 991.168 170.341 995.775 Q167.286 1000.36 161.476 1000.36 Q155.666 1000.36 152.587 995.775 Q149.531 991.168 149.531 982.442 Q149.531 973.692 152.587 969.108 Q155.666 964.502 161.476 964.502 Z" fill="#000000" fill-rule="nonzero" fill-opacity="1" /><path clip-path="url(#clip120)" d="M108.05 502.918 L115.689 502.918 L115.689 476.553 L107.379 478.22 L107.379 473.96 L115.643 472.294 L120.319 472.294 L120.319 502.918 L127.957 502.918 L127.957 506.854 L108.05 506.854 L108.05 502.918 Z" fill="#000000" fill-rule="nonzero" fill-opacity="1" /><path clip-path="url(#clip120)" d="M137.402 500.974 L142.286 500.974 L142.286 506.854 L137.402 506.854 L137.402 500.974 Z" fill="#000000" fill-rule="nonzero" fill-opacity="1" /><path clip-path="url(#clip120)" d="M152.517 472.294 L170.874 472.294 L170.874 476.229 L156.8 476.229 L156.8 484.701 Q157.818 484.354 158.837 484.192 Q159.855 484.007 160.874 484.007 Q166.661 484.007 170.041 487.178 Q173.42 490.349 173.42 495.766 Q173.42 501.344 169.948 504.446 Q166.476 507.525 160.156 507.525 Q157.98 507.525 155.712 507.155 Q153.467 506.784 151.059 506.043 L151.059 501.344 Q153.142 502.479 155.365 503.034 Q157.587 503.59 160.064 503.59 Q164.068 503.59 166.406 501.483 Q168.744 499.377 168.744 495.766 Q168.744 492.155 166.406 490.048 Q164.068 487.942 160.064 487.942 Q158.189 487.942 156.314 488.358 Q154.462 488.775 152.517 489.655 L152.517 472.294 Z" fill="#000000" fill-rule="nonzero" fill-opacity="1" /><path clip-path="url(#clip120)" d="M1.76483 1219.25 L7.23933 1219.25 Q5.87071 1221.73 5.20231 1224.25 Q4.50208 1226.73 4.50208 1229.28 Q4.50208 1234.97 8.13053 1238.13 Q11.7272 1241.28 18.252 1241.28 Q24.7769 1241.28 28.4053 1238.13 Q32.0019 1234.97 32.0019 1229.28 Q32.0019 1226.73 31.3335 1224.25 Q30.6333 1221.73 29.2647 1219.25 L34.6755 1219.25 Q35.8214 1221.7 36.3943 1224.34 Q36.9672 1226.95 36.9672 1229.91 Q36.9672 1237.97 31.9064 1242.71 Q26.8457 1247.45 18.252 1247.45 Q9.53099 1247.45 4.53391 1242.68 Q-0.46317 1237.87 -0.46317 1229.53 Q-0.46317 1226.83 0.109744 1224.25 Q0.650829 1221.67 1.76483 1219.25 Z" fill="#000000" fill-rule="nonzero" fill-opacity="1" /><path clip-path="url(#clip120)" d="M-11.4758 1215.4 L-11.4758 1175.2 L-6.06499 1175.2 L-6.06499 1192.07 L36.0442 1192.07 L36.0442 1198.53 L-6.06499 1198.53 L-6.06499 1215.4 L-11.4758 1215.4 Z" fill="#000000" fill-rule="nonzero" fill-opacity="1" /><path clip-path="url(#clip120)" d="M14.5281 1139.62 L36.0442 1139.62 L36.0442 1145.47 L14.719 1145.47 Q9.6583 1145.47 7.14385 1147.45 Q4.6294 1149.42 4.6294 1153.37 Q4.6294 1158.11 7.65311 1160.85 Q10.6768 1163.58 15.8967 1163.58 L36.0442 1163.58 L36.0442 1169.47 L0.3962 1169.47 L0.3962 1163.58 L5.93437 1163.58 Q2.71968 1161.48 1.12826 1158.65 Q-0.46317 1155.78 -0.46317 1152.06 Q-0.46317 1145.92 3.35625 1142.77 Q7.14385 1139.62 14.5281 1139.62 Z" fill="#000000" fill-rule="nonzero" fill-opacity="1" /><path clip-path="url(#clip120)" d="M-11.4758 1134.27 L-11.4758 1094.07 L-6.06499 1094.07 L-6.06499 1110.94 L36.0442 1110.94 L36.0442 1117.4 L-6.06499 1117.4 L-6.06499 1134.27 L-11.4758 1134.27 Z" fill="#000000" fill-rule="nonzero" fill-opacity="1" /><path clip-path="url(#clip120)" d="M-13.481 1067.94 L-13.481 1054.44 L-8.92956 1054.44 L-8.92956 1062.08 L40.0864 1062.08 L40.0864 1054.44 L44.6379 1054.44 L44.6379 1067.94 L-13.481 1067.94 Z" fill="#000000" fill-rule="nonzero" fill-opacity="1" /><path clip-path="url(#clip120)" d="M14.5281 1012.33 L36.0442 1012.33 L36.0442 1018.19 L14.719 1018.19 Q9.6583 1018.19 7.14385 1020.16 Q4.6294 1022.14 4.6294 1026.08 Q4.6294 1030.83 7.65311 1033.56 Q10.6768 1036.3 15.8967 1036.3 L36.0442 1036.3 L36.0442 1042.19 L0.3962 1042.19 L0.3962 1036.3 L5.93437 1036.3 Q2.71968 1034.2 1.12826 1031.37 Q-0.46317 1028.5 -0.46317 1024.78 Q-0.46317 1018.64 3.35625 1015.48 Q7.14385 1012.33 14.5281 1012.33 Z" fill="#000000" fill-rule="nonzero" fill-opacity="1" /><path clip-path="url(#clip120)" d="M17.8064 977.195 Q11.4407 977.195 7.93956 979.837 Q4.43842 982.446 4.43842 987.189 Q4.43842 991.9 7.93956 994.541 Q11.4407 997.151 17.8064 997.151 Q24.1403 997.151 27.6414 994.541 Q31.1426 991.9 31.1426 987.189 Q31.1426 982.446 27.6414 979.837 Q24.1403 977.195 17.8064 977.195 M31.62 971.338 Q40.723 971.338 45.1471 975.381 Q49.6031 979.423 49.6031 987.762 Q49.6031 990.849 49.1257 993.586 Q48.6801 996.324 47.7252 998.902 L42.0279 998.902 Q43.4284 996.324 44.0968 993.809 Q44.7652 991.295 44.7652 988.685 Q44.7652 982.924 41.7415 980.059 Q38.7496 977.195 32.6703 977.195 L29.7739 977.195 Q32.925 979.009 34.4846 981.842 Q36.0442 984.674 36.0442 988.621 Q36.0442 995.178 31.0471 999.188 Q26.05 1003.2 17.8064 1003.2 Q9.53099 1003.2 4.53391 999.188 Q-0.46317 995.178 -0.46317 988.621 Q-0.46317 984.674 1.09643 981.842 Q2.65603 979.009 5.80705 977.195 L0.3962 977.195 L0.3962 971.338 L31.62 971.338 Z" fill="#000000" fill-rule="nonzero" fill-opacity="1" /><path clip-path="url(#clip120)" d="M-11.4758 948.867 L-11.4758 943.457 L42.0916 960.007 L42.0916 965.418 L-11.4758 948.867 Z" fill="#000000" fill-rule="nonzero" fill-opacity="1" /><path clip-path="url(#clip120)" d="M7.23933 909.559 Q3.2926 907.363 1.41471 904.307 Q-0.46317 901.252 -0.46317 897.114 Q-0.46317 891.544 3.45174 888.52 Q7.33482 885.497 14.5281 885.497 L36.0442 885.497 L36.0442 891.385 L14.719 891.385 Q9.59465 891.385 7.11202 893.199 Q4.6294 895.014 4.6294 898.737 Q4.6294 903.289 7.65311 905.931 Q10.6768 908.572 15.8967 908.572 L36.0442 908.572 L36.0442 914.461 L14.719 914.461 Q9.56282 914.461 7.11202 916.275 Q4.6294 918.089 4.6294 921.877 Q4.6294 926.365 7.68493 929.006 Q10.7086 931.648 15.8967 931.648 L36.0442 931.648 L36.0442 937.536 L0.3962 937.536 L0.3962 931.648 L5.93437 931.648 Q2.65603 929.643 1.09643 926.842 Q-0.46317 924.041 -0.46317 920.19 Q-0.46317 916.307 1.5102 913.601 Q3.48357 910.864 7.23933 909.559 Z" fill="#000000" fill-rule="nonzero" fill-opacity="1" /><path clip-path="url(#clip120)" d="M-11.4758 873.561 L-11.4758 867.132 L30.6333 867.132 L30.6333 843.992 L36.0442 843.992 L36.0442 873.561 L-11.4758 873.561 Z" fill="#000000" fill-rule="nonzero" fill-opacity="1" /><path clip-path="url(#clip120)" d="M-13.481 823.813 L44.6379 823.813 L44.6379 837.308 L40.0864 837.308 L40.0864 829.701 L-8.92956 829.701 L-8.92956 837.308 L-13.481 837.308 L-13.481 823.813 Z" fill="#000000" fill-rule="nonzero" fill-opacity="1" /><polyline clip-path="url(#clip121)" style="stroke:#4169e1; stroke-linecap:round; stroke-linejoin:round; stroke-width:8; stroke-opacity:1; fill:none" points="321.533,1968.07 346.584,460.168 371.634,129.103 396.684,103.191 421.734,154.542 446.784,223.657 471.834,295.07 496.884,364.829 521.934,431.99 546.984,496.384 572.035,558.046 597.085,617.053 622.135,673.491 647.185,727.441 672.235,778.98 697.285,828.176 722.335,875.093 747.385,919.786 772.435,962.305 797.486,1002.7 822.536,1041 847.586,1077.25 872.636,1111.48 897.686,1143.71 922.736,1173.97 947.786,1202.28 972.836,1228.65 997.886,1253.11 1022.94,1275.67 1047.99,1296.35 1073.04,1315.17 1098.09,1332.13 1123.14,1347.27 1148.19,1360.61 1173.24,1372.16 1198.29,1381.97 1223.34,1390.08 1248.39,1396.51 1273.44,1401.32 1298.49,1404.57 1323.54,1406.31 1348.59,1406.61 1373.64,1405.55 1398.69,1403.22 1423.74,1399.71 1448.79,1395.1 1473.84,1389.52 1498.89,1383.06 1523.94,1375.86 1548.99,1368.02 1574.04,1359.68 1599.09,1350.95 1624.14,1341.98 1649.19,1332.88 1674.24,1323.78 1699.29,1314.81 1724.34,1306.08 1749.39,1297.7 1774.44,1289.78 1799.49,1282.41 1824.54,1275.68 1849.59,1269.67 1874.64,1264.43 1899.69,1260.01 1924.74,1256.47 1949.79,1253.82 1974.84,1252.08 1999.89,1251.26 2024.94,1251.35 2049.99,1252.34 2075.04,1254.19 2100.09,1256.88 2125.14,1260.37 2150.19,1264.61 2175.24,1269.55 2200.29,1275.14 2225.34,1281.33 2250.39,1288.06 2275.44,1295.27 2300.49,1302.92 2325.54,1310.94 2350.59,1319.29 2375.64,1327.92 2400.69,1336.78 2425.74,1345.84 2450.79,1355.05 2475.84,1364.38 2500.89,1373.79 2525.94,1383.27 2550.99,1392.78 2576.04,1402.29 2601.09,1411.8 2626.14,1421.28 2651.19,1430.72 2676.24,1440.11 2701.29,1449.43 2726.34,1458.67 2751.39,1467.82 2776.44,1476.88 2801.49,1485.85 2826.54,1494.71 2851.59,1503.46 2876.64,1512.11 2901.7,1520.63 2926.75,1529.04 2951.8,1537.33 2976.85,1545.51 3001.9,1553.56 3026.95,1561.48 3052,1569.29 3077.05,1576.97 3102.1,1584.53 3127.15,1591.97 3152.2,1599.28 3177.25,1606.47 3202.3,1613.54 3227.35,1620.49 3252.4,1627.32 3277.45,1634.03 3302.5,1640.62 3327.55,1647.1 3352.6,1653.46 3377.65,1659.71 3402.7,1665.84 3427.75,1671.86 3452.8,1677.78 3458.64,1679.14 "/>
<polyline clip-path="url(#clip121)" style="stroke:#ff8c00; stroke-linecap:round; stroke-linejoin:round; stroke-width:8; stroke-opacity:1; fill:none" stroke-dasharray="32, 20" points="321.533,1968.07 346.584,481.338 371.634,165.132 396.684,139.49 421.734,184.485 446.784,245.209 471.834,308.006 496.884,369.533 521.934,429.02 546.984,486.34 572.035,541.524 597.085,594.638 622.135,645.758 647.185,694.958 672.235,742.309 697.285,787.881 722.335,831.74 747.385,873.95 772.435,914.573 797.486,953.667 822.536,991.289 847.586,1027.49 872.636,1062.33 897.686,1095.84 922.736,1128.07 947.786,1159.06 972.836,1188.84 997.886,1217.42 1022.94,1244.79 1047.99,1270.91 1073.04,1295.66 1098.09,1318.81 1123.14,1339.92 1148.19,1358.39 1173.24,1373.49 1198.29,1384.61 1223.34,1391.56 1248.39,1394.63 1273.44,1394.5 1298.49,1391.99 1323.54,1387.87 1348.59,1382.79 1373.64,1377.2 1398.69,1371.45 1423.74,1365.73 1448.79,1360.19 1473.84,1354.89 1498.89,1349.9 1523.94,1345.22 1548.99,1340.86 1574.04,1336.83 1599.09,1333.11 1624.14,1329.7 1649.19,1326.58 1674.24,1323.75 1699.29,1321.2 1724.34,1318.9 1749.39,1316.85 1774.44,1315.04 1799.49,1313.45 1824.54,1312.08 1849.59,1310.92 1874.64,1309.95 1899.69,1309.17 1924.74,1308.56 1949.79,1308.13 1974.84,1307.86 1999.89,1307.74 2024.94,1307.76 2049.99,1307.93 2075.04,1308.22 2100.09,1308.64 2125.14,1309.18 2150.19,1309.83 2175.24,1310.59 2200.29,1311.44 2225.34,1312.4 2250.39,1313.44 2275.44,1314.57 2300.49,1315.78 2325.54,1317.06 2350.59,1318.42 2375.64,1319.84 2400.69,1321.32 2425.74,1322.87 2450.79,1324.47 2475.84,1326.12 2500.89,1327.83 2525.94,1329.58 2550.99,1331.37 2576.04,1333.2 2601.09,1335.07 2626.14,1336.97 2651.19,1338.91 2676.24,1340.88 2701.29,1342.87 2726.34,1344.9 2751.39,1346.94 2776.44,1349.01 2801.49,1351.1 2826.54,1353.21 2851.59,1355.33 2876.64,1357.48 2901.7,1359.63 2926.75,1361.81 2951.8,1363.99 2976.85,1366.18 3001.9,1368.39 3026.95,1370.6 3052,1372.82 3077.05,1375.05 3102.1,1377.29 3127.15,1379.53 3152.2,1381.78 3177.25,1384.03 3202.3,1386.29 3227.35,1388.55 3252.4,1390.81 3277.45,1393.07 3302.5,1395.34 3327.55,1397.61 3352.6,1399.87 3377.65,1402.14 3402.7,1404.41 3427.75,1406.67 3452.8,1408.94 3458.64,1409.47 "/>
<line clip-path="url(#clip121)" x1="2957.64" y1="1389.49" x2="2929.64" y2="1361.49" style="stroke:#dc143c; stroke-width:8.8; stroke-opacity:1"/>
<line clip-path="url(#clip121)" x1="2957.64" y1="1389.49" x2="2929.64" y2="1417.49" style="stroke:#dc143c; stroke-width:8.8; stroke-opacity:1"/>
<line clip-path="url(#clip121)" x1="2957.64" y1="1389.49" x2="2985.64" y2="1417.49" style="stroke:#dc143c; stroke-width:8.8; stroke-opacity:1"/>
<line clip-path="url(#clip121)" x1="2957.64" y1="1389.49" x2="2985.64" y2="1361.49" style="stroke:#dc143c; stroke-width:8.8; stroke-opacity:1"/>
<circle clip-path="url(#clip121)" cx="321.951" cy="1921.75" r="18" fill="#1e90ff" fill-rule="evenodd" fill-opacity="1" stroke="#000000" stroke-opacity="1" stroke-width="4.4"/>
<circle clip-path="url(#clip121)" cx="486.864" cy="420.577" r="18" fill="#1e90ff" fill-rule="evenodd" fill-opacity="1" stroke="#000000" stroke-opacity="1" stroke-width="4.4"/>
<circle clip-path="url(#clip121)" cx="575.375" cy="469.86" r="18" fill="#1e90ff" fill-rule="evenodd" fill-opacity="1" stroke="#000000" stroke-opacity="1" stroke-width="4.4"/>
<circle clip-path="url(#clip121)" cx="1154.87" cy="1367.8" r="18" fill="#1e90ff" fill-rule="evenodd" fill-opacity="1" stroke="#000000" stroke-opacity="1" stroke-width="4.4"/>
<circle clip-path="url(#clip121)" cx="1623.3" cy="1341.19" r="18" fill="#1e90ff" fill-rule="evenodd" fill-opacity="1" stroke="#000000" stroke-opacity="1" stroke-width="4.4"/>
<circle clip-path="url(#clip121)" cx="1764" cy="1293.88" r="18" fill="#1e90ff" fill-rule="evenodd" fill-opacity="1" stroke="#000000" stroke-opacity="1" stroke-width="4.4"/>
<circle clip-path="url(#clip121)" cx="2358.94" cy="1327.39" r="18" fill="#1e90ff" fill-rule="evenodd" fill-opacity="1" stroke="#000000" stroke-opacity="1" stroke-width="4.4"/>
<path clip-path="url(#clip120)" d="M2202.28 372.337 L3441.91 372.337 L3441.91 113.137 L2202.28 113.137  Z" fill="#ffffff" fill-rule="evenodd" fill-opacity="1"/>
<polyline clip-path="url(#clip120)" style="stroke:#000000; stroke-linecap:round; stroke-linejoin:round; stroke-width:4; stroke-opacity:1; fill:none" points="2202.28,372.337 3441.91,372.337 3441.91,113.137 2202.28,113.137 2202.28,372.337 "/>
<polyline clip-path="url(#clip120)" style="stroke:#4169e1; stroke-linecap:round; stroke-linejoin:round; stroke-width:8; stroke-opacity:1; fill:none" points="2239.22,164.977 2460.91,164.977 "/>
<path clip-path="url(#clip120)" d="M2513.88 150.868 Q2508.79 150.868 2505.78 154.664 Q2502.79 158.46 2502.79 165.011 Q2502.79 171.539 2505.78 175.335 Q2508.79 179.132 2513.88 179.132 Q2518.97 179.132 2521.94 175.335 Q2524.92 171.539 2524.92 165.011 Q2524.92 158.46 2521.94 154.664 Q2518.97 150.868 2513.88 150.868 M2513.88 147.072 Q2521.15 147.072 2525.5 151.956 Q2529.85 156.817 2529.85 165.011 Q2529.85 173.183 2525.5 178.067 Q2521.15 182.928 2513.88 182.928 Q2506.59 182.928 2502.21 178.067 Q2497.86 173.206 2497.86 165.011 Q2497.86 156.817 2502.21 151.956 Q2506.59 147.072 2513.88 147.072 Z" fill="#000000" fill-rule="nonzero" fill-opacity="1" /><path clip-path="url(#clip120)" d="M2541.84 151.539 L2541.84 178.414 L2547.49 178.414 Q2554.64 178.414 2557.95 175.173 Q2561.29 171.933 2561.29 164.942 Q2561.29 157.997 2557.95 154.78 Q2554.64 151.539 2547.49 151.539 L2541.84 151.539 M2537.17 147.697 L2546.77 147.697 Q2556.82 147.697 2561.52 151.886 Q2566.22 156.053 2566.22 164.942 Q2566.22 173.877 2561.5 178.067 Q2556.77 182.257 2546.77 182.257 L2537.17 182.257 L2537.17 147.697 Z" fill="#000000" fill-rule="nonzero" fill-opacity="1" /><path clip-path="url(#clip120)" d="M2573.67 147.697 L2595.52 147.697 L2595.52 151.632 L2578.35 151.632 L2578.35 161.863 L2594.81 161.863 L2594.81 165.798 L2578.35 165.798 L2578.35 178.321 L2595.94 178.321 L2595.94 182.257 L2573.67 182.257 L2573.67 147.697 Z" fill="#000000" fill-rule="nonzero" fill-opacity="1" /><path clip-path="url(#clip120)" d="M2643.81 146.285 Q2640.71 151.609 2639.2 156.817 Q2637.7 162.025 2637.7 167.372 Q2637.7 172.72 2639.2 177.974 Q2640.73 183.206 2643.81 188.507 L2640.11 188.507 Q2636.63 183.067 2634.9 177.812 Q2633.18 172.558 2633.18 167.372 Q2633.18 162.21 2634.9 156.979 Q2636.61 151.748 2640.11 146.285 L2643.81 146.285 Z" fill="#000000" fill-rule="nonzero" fill-opacity="1" /><path clip-path="url(#clip120)" d="M2668.6 157.095 L2668.6 161.122 Q2666.8 160.197 2664.85 159.734 Q2662.91 159.271 2660.82 159.271 Q2657.65 159.271 2656.06 160.243 Q2654.48 161.215 2654.48 163.159 Q2654.48 164.641 2655.62 165.497 Q2656.75 166.331 2660.18 167.095 L2661.63 167.419 Q2666.17 168.391 2668.07 170.173 Q2669.99 171.933 2669.99 175.104 Q2669.99 178.715 2667.12 180.821 Q2664.27 182.928 2659.27 182.928 Q2657.19 182.928 2654.92 182.511 Q2652.68 182.118 2650.18 181.308 L2650.18 176.909 Q2652.54 178.136 2654.83 178.761 Q2657.12 179.363 2659.37 179.363 Q2662.37 179.363 2663.99 178.345 Q2665.62 177.303 2665.62 175.428 Q2665.62 173.692 2664.43 172.766 Q2663.28 171.84 2659.32 170.984 L2657.84 170.636 Q2653.88 169.803 2652.12 168.09 Q2650.36 166.354 2650.36 163.345 Q2650.36 159.687 2652.95 157.697 Q2655.55 155.706 2660.31 155.706 Q2662.68 155.706 2664.76 156.053 Q2666.84 156.4 2668.6 157.095 Z" fill="#000000" fill-rule="nonzero" fill-opacity="1" /><path clip-path="url(#clip120)" d="M2676.96 147.697 L2683.93 147.697 L2692.74 171.215 L2701.61 147.697 L2708.58 147.697 L2708.58 182.257 L2704.02 182.257 L2704.02 151.91 L2695.11 175.613 L2690.41 175.613 L2681.49 151.91 L2681.49 182.257 L2676.96 182.257 L2676.96 147.697 Z" fill="#000000" fill-rule="nonzero" fill-opacity="1" /><path clip-path="url(#clip120)" d="M2729.41 152.303 L2723.07 169.502 L2735.78 169.502 L2729.41 152.303 M2726.77 147.697 L2732.07 147.697 L2745.24 182.257 L2740.38 182.257 L2737.24 173.391 L2721.66 173.391 L2718.51 182.257 L2713.58 182.257 L2726.77 147.697 Z" fill="#000000" fill-rule="nonzero" fill-opacity="1" /><path clip-path="url(#clip120)" d="M2754.97 151.539 L2754.97 164.525 L2760.85 164.525 Q2764.11 164.525 2765.89 162.835 Q2767.67 161.146 2767.67 158.021 Q2767.67 154.919 2765.89 153.229 Q2764.11 151.539 2760.85 151.539 L2754.97 151.539 M2750.29 147.697 L2760.85 147.697 Q2766.66 147.697 2769.62 150.335 Q2772.61 152.951 2772.61 158.021 Q2772.61 163.136 2769.62 165.752 Q2766.66 168.368 2760.85 168.368 L2754.97 168.368 L2754.97 182.257 L2750.29 182.257 L2750.29 147.697 Z" fill="#000000" fill-rule="nonzero" fill-opacity="1" /><path clip-path="url(#clip120)" d="M2778.88 147.697 L2800.73 147.697 L2800.73 151.632 L2783.55 151.632 L2783.55 161.863 L2800.01 161.863 L2800.01 165.798 L2783.55 165.798 L2783.55 178.321 L2801.15 178.321 L2801.15 182.257 L2778.88 182.257 L2778.88 147.697 Z" fill="#000000" fill-rule="nonzero" fill-opacity="1" /><path clip-path="url(#clip120)" d="M2809.2 160.729 L2838.88 160.729 L2838.88 164.618 L2809.2 164.618 L2809.2 160.729 M2809.2 170.173 L2838.88 170.173 L2838.88 174.109 L2809.2 174.109 L2809.2 170.173 Z" fill="#000000" fill-rule="nonzero" fill-opacity="1" /><path clip-path="url(#clip120)" d="M2849.02 147.697 L2867.37 147.697 L2867.37 151.632 L2853.3 151.632 L2853.3 160.104 Q2854.32 159.757 2855.34 159.595 Q2856.36 159.41 2857.37 159.41 Q2863.16 159.41 2866.54 162.581 Q2869.92 165.752 2869.92 171.169 Q2869.92 176.747 2866.45 179.849 Q2862.98 182.928 2856.66 182.928 Q2854.48 182.928 2852.21 182.558 Q2849.97 182.187 2847.56 181.446 L2847.56 176.747 Q2849.64 177.882 2851.86 178.437 Q2854.09 178.993 2856.56 178.993 Q2860.57 178.993 2862.91 176.886 Q2865.24 174.78 2865.24 171.169 Q2865.24 167.558 2862.91 165.451 Q2860.57 163.345 2856.56 163.345 Q2854.69 163.345 2852.81 163.761 Q2850.96 164.178 2849.02 165.058 L2849.02 147.697 Z" fill="#000000" fill-rule="nonzero" fill-opacity="1" /><path clip-path="url(#clip120)" d="M2879.13 176.377 L2884.02 176.377 L2884.02 182.257 L2879.13 182.257 L2879.13 176.377 Z" fill="#000000" fill-rule="nonzero" fill-opacity="1" /><path clip-path="url(#clip120)" d="M2907.05 151.771 L2895.24 170.22 L2907.05 170.22 L2907.05 151.771 M2905.82 147.697 L2911.7 147.697 L2911.7 170.22 L2916.63 170.22 L2916.63 174.109 L2911.7 174.109 L2911.7 182.257 L2907.05 182.257 L2907.05 174.109 L2891.45 174.109 L2891.45 169.595 L2905.82 147.697 Z" fill="#000000" fill-rule="nonzero" fill-opacity="1" /><path clip-path="url(#clip120)" d="M2938.53 163.622 Q2941.89 164.34 2943.76 166.609 Q2945.66 168.877 2945.66 172.21 Q2945.66 177.326 2942.14 180.127 Q2938.62 182.928 2932.14 182.928 Q2929.97 182.928 2927.65 182.488 Q2925.36 182.071 2922.91 181.215 L2922.91 176.701 Q2924.85 177.835 2927.16 178.414 Q2929.48 178.993 2932 178.993 Q2936.4 178.993 2938.69 177.257 Q2941.01 175.521 2941.01 172.21 Q2941.01 169.155 2938.85 167.442 Q2936.72 165.706 2932.91 165.706 L2928.88 165.706 L2928.88 161.863 L2933.09 161.863 Q2936.54 161.863 2938.37 160.497 Q2940.2 159.109 2940.2 156.516 Q2940.2 153.854 2938.3 152.442 Q2936.42 151.007 2932.91 151.007 Q2930.98 151.007 2928.79 151.423 Q2926.59 151.84 2923.95 152.72 L2923.95 148.553 Q2926.61 147.812 2928.92 147.442 Q2931.26 147.072 2933.32 147.072 Q2938.65 147.072 2941.75 149.502 Q2944.85 151.91 2944.85 156.03 Q2944.85 158.9 2943.21 160.891 Q2941.56 162.859 2938.53 163.622 Z" fill="#000000" fill-rule="nonzero" fill-opacity="1" /><path clip-path="url(#clip120)" d="M2983.92 167.048 Q2981.91 167.048 2980.75 168.761 Q2979.62 170.474 2979.62 173.53 Q2979.62 176.539 2980.75 178.275 Q2981.91 179.988 2983.92 179.988 Q2985.89 179.988 2987.03 178.275 Q2988.18 176.539 2988.18 173.53 Q2988.18 170.497 2987.03 168.784 Q2985.89 167.048 2983.92 167.048 M2983.92 164.109 Q2987.58 164.109 2989.73 166.655 Q2991.89 169.201 2991.89 173.53 Q2991.89 177.858 2989.71 180.405 Q2987.56 182.928 2983.92 182.928 Q2980.22 182.928 2978.07 180.405 Q2975.91 177.858 2975.91 173.53 Q2975.91 169.178 2978.07 166.655 Q2980.24 164.109 2983.92 164.109 M2960.04 150.011 Q2958.04 150.011 2956.89 151.748 Q2955.75 153.46 2955.75 156.47 Q2955.75 159.525 2956.89 161.238 Q2958.02 162.951 2960.04 162.951 Q2962.05 162.951 2963.18 161.238 Q2964.34 159.525 2964.34 156.47 Q2964.34 153.484 2963.18 151.748 Q2962.03 150.011 2960.04 150.011 M2980.94 147.072 L2984.64 147.072 L2963.02 182.928 L2959.32 182.928 L2980.94 147.072 M2960.04 147.072 Q2963.69 147.072 2965.87 149.618 Q2968.04 152.141 2968.04 156.47 Q2968.04 160.845 2965.87 163.368 Q2963.72 165.891 2960.04 165.891 Q2956.35 165.891 2954.2 163.368 Q2952.07 160.822 2952.07 156.47 Q2952.07 152.164 2954.22 149.618 Q2956.38 147.072 2960.04 147.072 Z" fill="#000000" fill-rule="nonzero" fill-opacity="1" /><path clip-path="url(#clip120)" d="M3000.06 176.377 L3004.94 176.377 L3004.94 180.358 L3001.15 187.766 L2998.16 187.766 L3000.06 180.358 L3000.06 176.377 Z" fill="#000000" fill-rule="nonzero" fill-opacity="1" /><path clip-path="url(#clip120)" d="M3045.68 166.053 Q3047.19 166.562 3048.6 168.229 Q3050.03 169.896 3051.47 172.812 L3056.22 182.257 L3051.19 182.257 L3046.77 173.391 Q3045.06 169.919 3043.44 168.784 Q3041.84 167.65 3039.06 167.65 L3033.97 167.65 L3033.97 182.257 L3029.29 182.257 L3029.29 147.697 L3039.85 147.697 Q3045.78 147.697 3048.69 150.173 Q3051.61 152.65 3051.61 157.65 Q3051.61 160.914 3050.08 163.067 Q3048.58 165.22 3045.68 166.053 M3033.97 151.539 L3033.97 163.808 L3039.85 163.808 Q3043.23 163.808 3044.94 162.257 Q3046.68 160.683 3046.68 157.65 Q3046.68 154.618 3044.94 153.09 Q3043.23 151.539 3039.85 151.539 L3033.97 151.539 Z" fill="#000000" fill-rule="nonzero" fill-opacity="1" /><path clip-path="url(#clip120)" d="M3062.23 147.697 L3069.2 147.697 L3078.02 171.215 L3086.89 147.697 L3093.85 147.697 L3093.85 182.257 L3089.29 182.257 L3089.29 151.91 L3080.38 175.613 L3075.68 175.613 L3066.77 151.91 L3066.77 182.257 L3062.23 182.257 L3062.23 147.697 Z" fill="#000000" fill-rule="nonzero" fill-opacity="1" /><path clip-path="url(#clip120)" d="M3123.85 148.831 L3123.85 153.391 Q3121.19 152.118 3118.83 151.493 Q3116.47 150.868 3114.27 150.868 Q3110.45 150.868 3108.37 152.349 Q3106.31 153.831 3106.31 156.562 Q3106.31 158.854 3107.67 160.035 Q3109.06 161.192 3112.9 161.91 L3115.73 162.488 Q3120.96 163.484 3123.44 166.007 Q3125.94 168.507 3125.94 172.72 Q3125.94 177.743 3122.56 180.335 Q3119.2 182.928 3112.7 182.928 Q3110.24 182.928 3107.46 182.372 Q3104.71 181.817 3101.75 180.729 L3101.75 175.914 Q3104.59 177.511 3107.33 178.321 Q3110.06 179.132 3112.7 179.132 Q3116.7 179.132 3118.88 177.558 Q3121.05 175.984 3121.05 173.067 Q3121.05 170.521 3119.48 169.085 Q3117.93 167.65 3114.36 166.933 L3111.52 166.377 Q3106.28 165.335 3103.95 163.113 Q3101.61 160.891 3101.61 156.933 Q3101.61 152.349 3104.83 149.71 Q3108.07 147.072 3113.74 147.072 Q3116.17 147.072 3118.69 147.511 Q3121.21 147.951 3123.85 148.831 Z" fill="#000000" fill-rule="nonzero" fill-opacity="1" /><path clip-path="url(#clip120)" d="M3133.23 147.697 L3137.9 147.697 L3137.9 178.321 L3154.73 178.321 L3154.73 182.257 L3133.23 182.257 L3133.23 147.697 Z" fill="#000000" fill-rule="nonzero" fill-opacity="1" /><path clip-path="url(#clip120)" d="M3159.64 147.697 L3181.49 147.697 L3181.49 151.632 L3164.32 151.632 L3164.32 161.863 L3180.77 161.863 L3180.77 165.798 L3164.32 165.798 L3164.32 178.321 L3181.91 178.321 L3181.91 182.257 L3159.64 182.257 L3159.64 147.697 Z" fill="#000000" fill-rule="nonzero" fill-opacity="1" /><path clip-path="url(#clip120)" d="M3189.96 160.729 L3219.64 160.729 L3219.64 164.618 L3189.96 164.618 L3189.96 160.729 M3189.96 170.173 L3219.64 170.173 L3219.64 174.109 L3189.96 174.109 L3189.96 170.173 Z" fill="#000000" fill-rule="nonzero" fill-opacity="1" /><path clip-path="url(#clip120)" d="M3239.73 150.775 Q3236.12 150.775 3234.29 154.34 Q3232.49 157.882 3232.49 165.011 Q3232.49 172.118 3234.29 175.683 Q3236.12 179.224 3239.73 179.224 Q3243.37 179.224 3245.17 175.683 Q3247 172.118 3247 165.011 Q3247 157.882 3245.17 154.34 Q3243.37 150.775 3239.73 150.775 M3239.73 147.072 Q3245.54 147.072 3248.6 151.678 Q3251.68 156.261 3251.68 165.011 Q3251.68 173.738 3248.6 178.345 Q3245.54 182.928 3239.73 182.928 Q3233.92 182.928 3230.84 178.345 Q3227.79 173.738 3227.79 165.011 Q3227.79 156.261 3230.84 151.678 Q3233.92 147.072 3239.73 147.072 Z" fill="#000000" fill-rule="nonzero" fill-opacity="1" /><path clip-path="url(#clip120)" d="M3259.89 176.377 L3264.78 176.377 L3264.78 182.257 L3259.89 182.257 L3259.89 176.377 Z" fill="#000000" fill-rule="nonzero" fill-opacity="1" /><path clip-path="url(#clip120)" d="M3284.96 150.775 Q3281.35 150.775 3279.52 154.34 Q3277.72 157.882 3277.72 165.011 Q3277.72 172.118 3279.52 175.683 Q3281.35 179.224 3284.96 179.224 Q3288.6 179.224 3290.4 175.683 Q3292.23 172.118 3292.23 165.011 Q3292.23 157.882 3290.4 154.34 Q3288.6 150.775 3284.96 150.775 M3284.96 147.072 Q3290.77 147.072 3293.83 151.678 Q3296.91 156.261 3296.91 165.011 Q3296.91 173.738 3293.83 178.345 Q3290.77 182.928 3284.96 182.928 Q3279.15 182.928 3276.08 178.345 Q3273.02 173.738 3273.02 165.011 Q3273.02 156.261 3276.08 151.678 Q3279.15 147.072 3284.96 147.072 Z" fill="#000000" fill-rule="nonzero" fill-opacity="1" /><path clip-path="url(#clip120)" d="M3319.29 163.622 Q3322.65 164.34 3324.52 166.609 Q3326.42 168.877 3326.42 172.21 Q3326.42 177.326 3322.9 180.127 Q3319.38 182.928 3312.9 182.928 Q3310.73 182.928 3308.41 182.488 Q3306.12 182.071 3303.67 181.215 L3303.67 176.701 Q3305.61 177.835 3307.93 178.414 Q3310.24 178.993 3312.76 178.993 Q3317.16 178.993 3319.45 177.257 Q3321.77 175.521 3321.77 172.21 Q3321.77 169.155 3319.62 167.442 Q3317.49 165.706 3313.67 165.706 L3309.64 165.706 L3309.64 161.863 L3313.85 161.863 Q3317.3 161.863 3319.13 160.497 Q3320.96 159.109 3320.96 156.516 Q3320.96 153.854 3319.06 152.442 Q3317.19 151.007 3313.67 151.007 Q3311.75 151.007 3309.55 151.423 Q3307.35 151.84 3304.71 152.72 L3304.71 148.553 Q3307.37 147.812 3309.69 147.442 Q3312.02 147.072 3314.08 147.072 Q3319.41 147.072 3322.51 149.502 Q3325.61 151.91 3325.61 156.03 Q3325.61 158.9 3323.97 160.891 Q3322.32 162.859 3319.29 163.622 Z" fill="#000000" fill-rule="nonzero" fill-opacity="1" /><path clip-path="url(#clip120)" d="M3335.43 181.539 L3335.43 177.28 Q3337.19 178.113 3338.99 178.553 Q3340.8 178.993 3342.53 178.993 Q3347.16 178.993 3349.59 175.891 Q3352.05 172.766 3352.39 166.423 Q3351.05 168.414 3348.99 169.479 Q3346.93 170.544 3344.43 170.544 Q3339.25 170.544 3336.21 167.419 Q3333.2 164.271 3333.2 158.831 Q3333.2 153.507 3336.35 150.289 Q3339.5 147.072 3344.73 147.072 Q3350.73 147.072 3353.88 151.678 Q3357.05 156.261 3357.05 165.011 Q3357.05 173.183 3353.16 178.067 Q3349.29 182.928 3342.74 182.928 Q3340.98 182.928 3339.18 182.581 Q3337.37 182.233 3335.43 181.539 M3344.73 166.886 Q3347.88 166.886 3349.71 164.734 Q3351.56 162.581 3351.56 158.831 Q3351.56 155.104 3349.71 152.951 Q3347.88 150.775 3344.73 150.775 Q3341.58 150.775 3339.73 152.951 Q3337.9 155.104 3337.9 158.831 Q3337.9 162.581 3339.73 164.734 Q3341.58 166.886 3344.73 166.886 Z" fill="#000000" fill-rule="nonzero" fill-opacity="1" /><path clip-path="url(#clip120)" d="M3365.59 181.539 L3365.59 177.28 Q3367.35 178.113 3369.15 178.553 Q3370.96 178.993 3372.69 178.993 Q3377.32 178.993 3379.76 175.891 Q3382.21 172.766 3382.56 166.423 Q3381.21 168.414 3379.15 169.479 Q3377.09 170.544 3374.59 170.544 Q3369.41 170.544 3366.38 167.419 Q3363.37 164.271 3363.37 158.831 Q3363.37 153.507 3366.51 150.289 Q3369.66 147.072 3374.89 147.072 Q3380.89 147.072 3384.04 151.678 Q3387.21 156.261 3387.21 165.011 Q3387.21 173.183 3383.32 178.067 Q3379.45 182.928 3372.9 182.928 Q3371.14 182.928 3369.34 182.581 Q3367.53 182.233 3365.59 181.539 M3374.89 166.886 Q3378.04 166.886 3379.87 164.734 Q3381.72 162.581 3381.72 158.831 Q3381.72 155.104 3379.87 152.951 Q3378.04 150.775 3374.89 150.775 Q3371.75 150.775 3369.89 152.951 Q3368.07 155.104 3368.07 158.831 Q3368.07 162.581 3369.89 164.734 Q3371.75 166.886 3374.89 166.886 Z" fill="#000000" fill-rule="nonzero" fill-opacity="1" /><path clip-path="url(#clip120)" d="M3394.34 146.285 L3398.04 146.285 Q3401.51 151.748 3403.23 156.979 Q3404.96 162.21 3404.96 167.372 Q3404.96 172.558 3403.23 177.812 Q3401.51 183.067 3398.04 188.507 L3394.34 188.507 Q3397.42 183.206 3398.92 177.974 Q3400.45 172.72 3400.45 167.372 Q3400.45 162.025 3398.92 156.817 Q3397.42 151.609 3394.34 146.285 Z" fill="#000000" fill-rule="nonzero" fill-opacity="1" /><polyline clip-path="url(#clip120)" style="stroke:#ff8c00; stroke-linecap:round; stroke-linejoin:round; stroke-width:8; stroke-opacity:1; fill:none" stroke-dasharray="32, 20" points="2239.22,216.817 2460.91,216.817 "/>
<path clip-path="url(#clip120)" d="M2518.37 209.166 L2518.37 213.148 Q2516.57 212.152 2514.74 211.666 Q2512.93 211.157 2511.08 211.157 Q2506.94 211.157 2504.64 213.796 Q2502.35 216.412 2502.35 221.157 Q2502.35 225.902 2504.64 228.541 Q2506.94 231.157 2511.08 231.157 Q2512.93 231.157 2514.74 230.671 Q2516.57 230.161 2518.37 229.166 L2518.37 233.101 Q2516.59 233.935 2514.67 234.351 Q2512.77 234.768 2510.62 234.768 Q2504.76 234.768 2501.31 231.087 Q2497.86 227.407 2497.86 221.157 Q2497.86 214.814 2501.33 211.18 Q2504.83 207.546 2510.89 207.546 Q2512.86 207.546 2514.74 207.963 Q2516.61 208.356 2518.37 209.166 Z" fill="#000000" fill-rule="nonzero" fill-opacity="1" /><path clip-path="url(#clip120)" d="M2525.43 199.537 L2530.13 199.537 L2530.13 220.532 Q2530.13 226.087 2532.14 228.541 Q2534.16 230.972 2538.67 230.972 Q2543.16 230.972 2545.18 228.541 Q2547.19 226.087 2547.19 220.532 L2547.19 199.537 L2551.89 199.537 L2551.89 221.111 Q2551.89 227.87 2548.53 231.319 Q2545.2 234.768 2538.67 234.768 Q2532.12 234.768 2528.76 231.319 Q2525.43 227.87 2525.43 221.111 L2525.43 199.537 Z" fill="#000000" fill-rule="nonzero" fill-opacity="1" /><path clip-path="url(#clip120)" d="M2565.34 203.379 L2565.34 230.254 L2570.99 230.254 Q2578.14 230.254 2581.45 227.013 Q2584.78 223.773 2584.78 216.782 Q2584.78 209.837 2581.45 206.62 Q2578.14 203.379 2570.99 203.379 L2565.34 203.379 M2560.66 199.537 L2570.27 199.537 Q2580.31 199.537 2585.01 203.726 Q2589.71 207.893 2589.71 216.782 Q2589.71 225.717 2584.99 229.907 Q2580.27 234.097 2570.27 234.097 L2560.66 234.097 L2560.66 199.537 Z" fill="#000000" fill-rule="nonzero" fill-opacity="1" /><path clip-path="url(#clip120)" d="M2597.17 199.537 L2619.02 199.537 L2619.02 203.472 L2601.84 203.472 L2601.84 213.703 L2618.3 213.703 L2618.3 217.638 L2601.84 217.638 L2601.84 230.161 L2619.44 230.161 L2619.44 234.097 L2597.17 234.097 L2597.17 199.537 Z" fill="#000000" fill-rule="nonzero" fill-opacity="1" /><path clip-path="url(#clip120)" d="M2652.24 198.125 Q2649.13 203.449 2647.63 208.657 Q2646.12 213.865 2646.12 219.212 Q2646.12 224.56 2647.63 229.814 Q2649.16 235.046 2652.24 240.347 L2648.53 240.347 Q2645.06 234.907 2643.32 229.652 Q2641.61 224.398 2641.61 219.212 Q2641.61 214.05 2643.32 208.819 Q2645.04 203.588 2648.53 198.125 L2652.24 198.125 Z" fill="#000000" fill-rule="nonzero" fill-opacity="1" /><path clip-path="url(#clip120)" d="M2677.03 208.935 L2677.03 212.962 Q2675.22 212.037 2673.28 211.574 Q2671.33 211.111 2669.25 211.111 Q2666.08 211.111 2664.48 212.083 Q2662.91 213.055 2662.91 214.999 Q2662.91 216.481 2664.04 217.337 Q2665.18 218.171 2668.6 218.935 L2670.06 219.259 Q2674.6 220.231 2676.49 222.013 Q2678.42 223.773 2678.42 226.944 Q2678.42 230.555 2675.55 232.661 Q2672.7 234.768 2667.7 234.768 Q2665.62 234.768 2663.35 234.351 Q2661.1 233.958 2658.6 233.148 L2658.6 228.749 Q2660.96 229.976 2663.25 230.601 Q2665.55 231.203 2667.79 231.203 Q2670.8 231.203 2672.42 230.185 Q2674.04 229.143 2674.04 227.268 Q2674.04 225.532 2672.86 224.606 Q2671.7 223.68 2667.74 222.824 L2666.26 222.476 Q2662.31 221.643 2660.55 219.93 Q2658.79 218.194 2658.79 215.185 Q2658.79 211.527 2661.38 209.537 Q2663.97 207.546 2668.74 207.546 Q2671.1 207.546 2673.18 207.893 Q2675.27 208.24 2677.03 208.935 Z" fill="#000000" fill-rule="nonzero" fill-opacity="1" /><path clip-path="url(#clip120)" d="M2685.38 199.537 L2692.35 199.537 L2701.17 223.055 L2710.04 199.537 L2717 199.537 L2717 234.097 L2712.44 234.097 L2712.44 203.75 L2703.53 227.453 L2698.83 227.453 L2689.92 203.75 L2689.92 234.097 L2685.38 234.097 L2685.38 199.537 Z" fill="#000000" fill-rule="nonzero" fill-opacity="1" /><path clip-path="url(#clip120)" d="M2737.84 204.143 L2731.49 221.342 L2744.2 221.342 L2737.84 204.143 M2735.2 199.537 L2740.5 199.537 L2753.67 234.097 L2748.81 234.097 L2745.66 225.231 L2730.08 225.231 L2726.93 234.097 L2722 234.097 L2735.2 199.537 Z" fill="#000000" fill-rule="nonzero" fill-opacity="1" /><path clip-path="url(#clip120)" d="M2763.39 203.379 L2763.39 216.365 L2769.27 216.365 Q2772.54 216.365 2774.32 214.675 Q2776.1 212.986 2776.1 209.861 Q2776.1 206.759 2774.32 205.069 Q2772.54 203.379 2769.27 203.379 L2763.39 203.379 M2758.72 199.537 L2769.27 199.537 Q2775.08 199.537 2778.05 202.175 Q2781.03 204.791 2781.03 209.861 Q2781.03 214.976 2778.05 217.592 Q2775.08 220.208 2769.27 220.208 L2763.39 220.208 L2763.39 234.097 L2758.72 234.097 L2758.72 199.537 Z" fill="#000000" fill-rule="nonzero" fill-opacity="1" /><path clip-path="url(#clip120)" d="M2787.3 199.537 L2809.16 199.537 L2809.16 203.472 L2791.98 203.472 L2791.98 213.703 L2808.44 213.703 L2808.44 217.638 L2791.98 217.638 L2791.98 230.161 L2809.57 230.161 L2809.57 234.097 L2787.3 234.097 L2787.3 199.537 Z" fill="#000000" fill-rule="nonzero" fill-opacity="1" /><path clip-path="url(#clip120)" d="M2817.63 212.569 L2847.3 212.569 L2847.3 216.458 L2817.63 216.458 L2817.63 212.569 M2817.63 222.013 L2847.3 222.013 L2847.3 225.949 L2817.63 225.949 L2817.63 222.013 Z" fill="#000000" fill-rule="nonzero" fill-opacity="1" /><path clip-path="url(#clip120)" d="M2861.42 230.161 L2877.74 230.161 L2877.74 234.097 L2855.8 234.097 L2855.8 230.161 Q2858.46 227.407 2863.04 222.777 Q2867.65 218.124 2868.83 216.782 Q2871.08 214.259 2871.96 212.523 Q2872.86 210.763 2872.86 209.074 Q2872.86 206.319 2870.92 204.583 Q2868.99 202.847 2865.89 202.847 Q2863.69 202.847 2861.24 203.611 Q2858.81 204.375 2856.03 205.925 L2856.03 201.203 Q2858.86 200.069 2861.31 199.49 Q2863.76 198.912 2865.8 198.912 Q2871.17 198.912 2874.36 201.597 Q2877.56 204.282 2877.56 208.773 Q2877.56 210.902 2876.75 212.824 Q2875.96 214.722 2873.85 217.314 Q2873.28 217.986 2870.17 221.203 Q2867.07 224.398 2861.42 230.161 Z" fill="#000000" fill-rule="nonzero" fill-opacity="1" /><path clip-path="url(#clip120)" d="M2887.56 228.217 L2892.44 228.217 L2892.44 234.097 L2887.56 234.097 L2887.56 228.217 Z" fill="#000000" fill-rule="nonzero" fill-opacity="1" /><path clip-path="url(#clip120)" d="M2901.45 199.537 L2923.67 199.537 L2923.67 201.527 L2911.12 234.097 L2906.24 234.097 L2918.04 203.472 L2901.45 203.472 L2901.45 199.537 Z" fill="#000000" fill-rule="nonzero" fill-opacity="1" /><path clip-path="url(#clip120)" d="M2962.19 218.888 Q2960.17 218.888 2959.02 220.601 Q2957.88 222.314 2957.88 225.37 Q2957.88 228.379 2959.02 230.115 Q2960.17 231.828 2962.19 231.828 Q2964.16 231.828 2965.29 230.115 Q2966.45 228.379 2966.45 225.37 Q2966.45 222.337 2965.29 220.624 Q2964.16 218.888 2962.19 218.888 M2962.19 215.949 Q2965.85 215.949 2968 218.495 Q2970.15 221.041 2970.15 225.37 Q2970.15 229.698 2967.97 232.245 Q2965.82 234.768 2962.19 234.768 Q2958.48 234.768 2956.33 232.245 Q2954.18 229.698 2954.18 225.37 Q2954.18 221.018 2956.33 218.495 Q2958.51 215.949 2962.19 215.949 M2938.3 201.851 Q2936.31 201.851 2935.15 203.588 Q2934.02 205.3 2934.02 208.31 Q2934.02 211.365 2935.15 213.078 Q2936.29 214.791 2938.3 214.791 Q2940.31 214.791 2941.45 213.078 Q2942.6 211.365 2942.6 208.31 Q2942.6 205.324 2941.45 203.588 Q2940.29 201.851 2938.3 201.851 M2959.2 198.912 L2962.91 198.912 L2941.29 234.768 L2937.58 234.768 L2959.2 198.912 M2938.3 198.912 Q2941.96 198.912 2944.13 201.458 Q2946.31 203.981 2946.31 208.31 Q2946.31 212.685 2944.13 215.208 Q2941.98 217.731 2938.3 217.731 Q2934.62 217.731 2932.47 215.208 Q2930.34 212.662 2930.34 208.31 Q2930.34 204.004 2932.49 201.458 Q2934.64 198.912 2938.3 198.912 Z" fill="#000000" fill-rule="nonzero" fill-opacity="1" /><path clip-path="url(#clip120)" d="M2978.32 228.217 L2983.21 228.217 L2983.21 232.198 L2979.41 239.606 L2976.42 239.606 L2978.32 232.198 L2978.32 228.217 Z" fill="#000000" fill-rule="nonzero" fill-opacity="1" /><path clip-path="url(#clip120)" d="M3023.95 217.893 Q3025.45 218.402 3026.86 220.069 Q3028.3 221.736 3029.73 224.652 L3034.48 234.097 L3029.46 234.097 L3025.03 225.231 Q3023.32 221.759 3021.7 220.624 Q3020.1 219.49 3017.33 219.49 L3012.23 219.49 L3012.23 234.097 L3007.56 234.097 L3007.56 199.537 L3018.11 199.537 Q3024.04 199.537 3026.96 202.013 Q3029.87 204.49 3029.87 209.49 Q3029.87 212.754 3028.34 214.907 Q3026.84 217.06 3023.95 217.893 M3012.23 203.379 L3012.23 215.648 L3018.11 215.648 Q3021.49 215.648 3023.21 214.097 Q3024.94 212.523 3024.94 209.49 Q3024.94 206.458 3023.21 204.93 Q3021.49 203.379 3018.11 203.379 L3012.23 203.379 Z" fill="#000000" fill-rule="nonzero" fill-opacity="1" /><path clip-path="url(#clip120)" d="M3040.5 199.537 L3047.47 199.537 L3056.28 223.055 L3065.15 199.537 L3072.12 199.537 L3072.12 234.097 L3067.56 234.097 L3067.56 203.75 L3058.65 227.453 L3053.95 227.453 L3045.03 203.75 L3045.03 234.097 L3040.5 234.097 L3040.5 199.537 Z" fill="#000000" fill-rule="nonzero" fill-opacity="1" /><path clip-path="url(#clip120)" d="M3102.12 200.671 L3102.12 205.231 Q3099.46 203.958 3097.09 203.333 Q3094.73 202.708 3092.53 202.708 Q3088.71 202.708 3086.63 204.189 Q3084.57 205.671 3084.57 208.402 Q3084.57 210.694 3085.94 211.875 Q3087.33 213.032 3091.17 213.75 L3093.99 214.328 Q3099.22 215.324 3101.7 217.847 Q3104.2 220.347 3104.2 224.56 Q3104.2 229.583 3100.82 232.175 Q3097.46 234.768 3090.96 234.768 Q3088.51 234.768 3085.73 234.212 Q3082.97 233.657 3080.01 232.569 L3080.01 227.754 Q3082.86 229.351 3085.59 230.161 Q3088.32 230.972 3090.96 230.972 Q3094.96 230.972 3097.14 229.398 Q3099.32 227.824 3099.32 224.907 Q3099.32 222.361 3097.74 220.925 Q3096.19 219.49 3092.63 218.773 L3089.78 218.217 Q3084.55 217.175 3082.21 214.953 Q3079.87 212.731 3079.87 208.773 Q3079.87 204.189 3083.09 201.55 Q3086.33 198.912 3092 198.912 Q3094.43 198.912 3096.96 199.351 Q3099.48 199.791 3102.12 200.671 Z" fill="#000000" fill-rule="nonzero" fill-opacity="1" /><path clip-path="url(#clip120)" d="M3111.49 199.537 L3116.17 199.537 L3116.17 230.161 L3133 230.161 L3133 234.097 L3111.49 234.097 L3111.49 199.537 Z" fill="#000000" fill-rule="nonzero" fill-opacity="1" /><path clip-path="url(#clip120)" d="M3137.9 199.537 L3159.76 199.537 L3159.76 203.472 L3142.58 203.472 L3142.58 213.703 L3159.04 213.703 L3159.04 217.638 L3142.58 217.638 L3142.58 230.161 L3160.17 230.161 L3160.17 234.097 L3137.9 234.097 L3137.9 199.537 Z" fill="#000000" fill-rule="nonzero" fill-opacity="1" /><path clip-path="url(#clip120)" d="M3168.23 212.569 L3197.9 212.569 L3197.9 216.458 L3168.23 216.458 L3168.23 212.569 M3168.23 222.013 L3197.9 222.013 L3197.9 225.949 L3168.23 225.949 L3168.23 222.013 Z" fill="#000000" fill-rule="nonzero" fill-opacity="1" /><path clip-path="url(#clip120)" d="M3218 202.615 Q3214.39 202.615 3212.56 206.18 Q3210.75 209.722 3210.75 216.851 Q3210.75 223.958 3212.56 227.523 Q3214.39 231.064 3218 231.064 Q3221.63 231.064 3223.44 227.523 Q3225.27 223.958 3225.27 216.851 Q3225.27 209.722 3223.44 206.18 Q3221.63 202.615 3218 202.615 M3218 198.912 Q3223.81 198.912 3226.86 203.518 Q3229.94 208.101 3229.94 216.851 Q3229.94 225.578 3226.86 230.185 Q3223.81 234.768 3218 234.768 Q3212.19 234.768 3209.11 230.185 Q3206.05 225.578 3206.05 216.851 Q3206.05 208.101 3209.11 203.518 Q3212.19 198.912 3218 198.912 Z" fill="#000000" fill-rule="nonzero" fill-opacity="1" /><path clip-path="url(#clip120)" d="M3238.16 228.217 L3243.04 228.217 L3243.04 234.097 L3238.16 234.097 L3238.16 228.217 Z" fill="#000000" fill-rule="nonzero" fill-opacity="1" /><path clip-path="url(#clip120)" d="M3263.23 202.615 Q3259.62 202.615 3257.79 206.18 Q3255.98 209.722 3255.98 216.851 Q3255.98 223.958 3257.79 227.523 Q3259.62 231.064 3263.23 231.064 Q3266.86 231.064 3268.67 227.523 Q3270.5 223.958 3270.5 216.851 Q3270.5 209.722 3268.67 206.18 Q3266.86 202.615 3263.23 202.615 M3263.23 198.912 Q3269.04 198.912 3272.09 203.518 Q3275.17 208.101 3275.17 216.851 Q3275.17 225.578 3272.09 230.185 Q3269.04 234.768 3263.23 234.768 Q3257.42 234.768 3254.34 230.185 Q3251.28 225.578 3251.28 216.851 Q3251.28 208.101 3254.34 203.518 Q3257.42 198.912 3263.23 198.912 Z" fill="#000000" fill-rule="nonzero" fill-opacity="1" /><path clip-path="url(#clip120)" d="M3284.2 230.161 L3291.84 230.161 L3291.84 203.796 L3283.53 205.463 L3283.53 201.203 L3291.79 199.537 L3296.47 199.537 L3296.47 230.161 L3304.11 230.161 L3304.11 234.097 L3284.2 234.097 L3284.2 230.161 Z" fill="#000000" fill-rule="nonzero" fill-opacity="1" /><path clip-path="url(#clip120)" d="M3312.37 199.537 L3334.59 199.537 L3334.59 201.527 L3322.05 234.097 L3317.16 234.097 L3328.97 203.472 L3312.37 203.472 L3312.37 199.537 Z" fill="#000000" fill-rule="nonzero" fill-opacity="1" /><path clip-path="url(#clip120)" d="M3356.56 203.611 L3344.76 222.06 L3356.56 222.06 L3356.56 203.611 M3355.33 199.537 L3361.21 199.537 L3361.21 222.06 L3366.14 222.06 L3366.14 225.949 L3361.21 225.949 L3361.21 234.097 L3356.56 234.097 L3356.56 225.949 L3340.96 225.949 L3340.96 221.435 L3355.33 199.537 Z" fill="#000000" fill-rule="nonzero" fill-opacity="1" /><path clip-path="url(#clip120)" d="M3372.6 198.125 L3376.31 198.125 Q3379.78 203.588 3381.49 208.819 Q3383.23 214.05 3383.23 219.212 Q3383.23 224.398 3381.49 229.652 Q3379.78 234.907 3376.31 240.347 L3372.6 240.347 Q3375.68 235.046 3377.19 229.814 Q3378.71 224.56 3378.71 219.212 Q3378.71 213.865 3377.19 208.657 Q3375.68 203.449 3372.6 198.125 Z" fill="#000000" fill-rule="nonzero" fill-opacity="1" /><line clip-path="url(#clip120)" x1="2350.07" y1="268.657" x2="2327.67" y2="246.257" style="stroke:#dc143c; stroke-width:7.04; stroke-opacity:1"/>
<line clip-path="url(#clip120)" x1="2350.07" y1="268.657" x2="2327.67" y2="291.057" style="stroke:#dc143c; stroke-width:7.04; stroke-opacity:1"/>
<line clip-path="url(#clip120)" x1="2350.07" y1="268.657" x2="2372.47" y2="291.057" style="stroke:#dc143c; stroke-width:7.04; stroke-opacity:1"/>
<line clip-path="url(#clip120)" x1="2350.07" y1="268.657" x2="2372.47" y2="246.257" style="stroke:#dc143c; stroke-width:7.04; stroke-opacity:1"/>
<path clip-path="url(#clip120)" d="M2514.25 269.733 Q2515.76 270.242 2517.17 271.909 Q2518.6 273.576 2520.04 276.492 L2524.78 285.937 L2519.76 285.937 L2515.34 277.071 Q2513.63 273.599 2512.01 272.464 Q2510.41 271.33 2507.63 271.33 L2502.54 271.33 L2502.54 285.937 L2497.86 285.937 L2497.86 251.377 L2508.42 251.377 Q2514.34 251.377 2517.26 253.853 Q2520.18 256.33 2520.18 261.33 Q2520.18 264.594 2518.65 266.747 Q2517.14 268.9 2514.25 269.733 M2502.54 255.219 L2502.54 267.488 L2508.42 267.488 Q2511.8 267.488 2513.51 265.937 Q2515.25 264.363 2515.25 261.33 Q2515.25 258.298 2513.51 256.77 Q2511.8 255.219 2508.42 255.219 L2502.54 255.219 Z" fill="#000000" fill-rule="nonzero" fill-opacity="1" /><path clip-path="url(#clip120)" d="M2550.66 271.909 L2550.66 273.992 L2531.08 273.992 Q2531.36 278.39 2533.72 280.705 Q2536.1 282.997 2540.34 282.997 Q2542.79 282.997 2545.08 282.395 Q2547.4 281.793 2549.67 280.589 L2549.67 284.617 Q2547.38 285.589 2544.97 286.099 Q2542.56 286.608 2540.08 286.608 Q2533.88 286.608 2530.25 282.997 Q2526.63 279.386 2526.63 273.228 Q2526.63 266.863 2530.06 263.136 Q2533.51 259.386 2539.34 259.386 Q2544.57 259.386 2547.61 262.765 Q2550.66 266.122 2550.66 271.909 M2546.4 270.659 Q2546.36 267.164 2544.44 265.08 Q2542.54 262.997 2539.39 262.997 Q2535.82 262.997 2533.67 265.011 Q2531.54 267.025 2531.22 270.682 L2546.4 270.659 Z" fill="#000000" fill-rule="nonzero" fill-opacity="1" /><path clip-path="url(#clip120)" d="M2577.84 264.988 Q2579.44 262.117 2581.66 260.752 Q2583.88 259.386 2586.89 259.386 Q2590.94 259.386 2593.14 262.233 Q2595.34 265.057 2595.34 270.289 L2595.34 285.937 L2591.06 285.937 L2591.06 270.427 Q2591.06 266.701 2589.74 264.895 Q2588.42 263.09 2585.71 263.09 Q2582.4 263.09 2580.48 265.289 Q2578.56 267.488 2578.56 271.284 L2578.56 285.937 L2574.27 285.937 L2574.27 270.427 Q2574.27 266.677 2572.95 264.895 Q2571.63 263.09 2568.88 263.09 Q2565.62 263.09 2563.69 265.312 Q2561.77 267.511 2561.77 271.284 L2561.77 285.937 L2557.49 285.937 L2557.49 260.011 L2561.77 260.011 L2561.77 264.039 Q2563.23 261.654 2565.27 260.52 Q2567.31 259.386 2570.11 259.386 Q2572.93 259.386 2574.9 260.821 Q2576.89 262.256 2577.84 264.988 Z" fill="#000000" fill-rule="nonzero" fill-opacity="1" /><path clip-path="url(#clip120)" d="M2613.88 262.997 Q2610.45 262.997 2608.46 265.682 Q2606.47 268.344 2606.47 272.997 Q2606.47 277.65 2608.44 280.335 Q2610.43 282.997 2613.88 282.997 Q2617.28 282.997 2619.27 280.312 Q2621.26 277.626 2621.26 272.997 Q2621.26 268.39 2619.27 265.705 Q2617.28 262.997 2613.88 262.997 M2613.88 259.386 Q2619.44 259.386 2622.61 262.997 Q2625.78 266.608 2625.78 272.997 Q2625.78 279.363 2622.61 282.997 Q2619.44 286.608 2613.88 286.608 Q2608.3 286.608 2605.13 282.997 Q2601.98 279.363 2601.98 272.997 Q2601.98 266.608 2605.13 262.997 Q2608.3 259.386 2613.88 259.386 Z" fill="#000000" fill-rule="nonzero" fill-opacity="1" /><path clip-path="url(#clip120)" d="M2629.78 260.011 L2634.3 260.011 L2642.4 281.77 L2650.5 260.011 L2655.01 260.011 L2645.29 285.937 L2639.5 285.937 L2629.78 260.011 Z" fill="#000000" fill-rule="nonzero" fill-opacity="1" /><path clip-path="url(#clip120)" d="M2683.07 271.909 L2683.07 273.992 L2663.49 273.992 Q2663.76 278.39 2666.12 280.705 Q2668.51 282.997 2672.74 282.997 Q2675.2 282.997 2677.49 282.395 Q2679.81 281.793 2682.07 280.589 L2682.07 284.617 Q2679.78 285.589 2677.37 286.099 Q2674.97 286.608 2672.49 286.608 Q2666.29 286.608 2662.65 282.997 Q2659.04 279.386 2659.04 273.228 Q2659.04 266.863 2662.47 263.136 Q2665.92 259.386 2671.75 259.386 Q2676.98 259.386 2680.01 262.765 Q2683.07 266.122 2683.07 271.909 M2678.81 270.659 Q2678.76 267.164 2676.84 265.08 Q2674.94 262.997 2671.8 262.997 Q2668.23 262.997 2666.08 265.011 Q2663.95 267.025 2663.62 270.682 L2678.81 270.659 Z" fill="#000000" fill-rule="nonzero" fill-opacity="1" /><path clip-path="url(#clip120)" d="M2707.12 263.946 L2707.12 249.918 L2711.38 249.918 L2711.38 285.937 L2707.12 285.937 L2707.12 282.048 Q2705.78 284.363 2703.72 285.497 Q2701.68 286.608 2698.81 286.608 Q2694.11 286.608 2691.15 282.858 Q2688.21 279.108 2688.21 272.997 Q2688.21 266.886 2691.15 263.136 Q2694.11 259.386 2698.81 259.386 Q2701.68 259.386 2703.72 260.52 Q2705.78 261.631 2707.12 263.946 M2692.61 272.997 Q2692.61 277.696 2694.53 280.381 Q2696.47 283.043 2699.85 283.043 Q2703.23 283.043 2705.18 280.381 Q2707.12 277.696 2707.12 272.997 Q2707.12 268.298 2705.18 265.636 Q2703.23 262.951 2699.85 262.951 Q2696.47 262.951 2694.53 265.636 Q2692.61 268.298 2692.61 272.997 Z" fill="#000000" fill-rule="nonzero" fill-opacity="1" /><path clip-path="url(#clip120)" d="M2745.45 249.965 Q2742.35 255.289 2740.85 260.497 Q2739.34 265.705 2739.34 271.052 Q2739.34 276.4 2740.85 281.654 Q2742.37 286.886 2745.45 292.187 L2741.75 292.187 Q2738.28 286.747 2736.54 281.492 Q2734.83 276.238 2734.83 271.052 Q2734.83 265.89 2736.54 260.659 Q2738.25 255.428 2741.75 249.965 L2745.45 249.965 Z" fill="#000000" fill-rule="nonzero" fill-opacity="1" /><path clip-path="url(#clip120)" d="M2775.27 270.289 L2775.27 285.937 L2771.01 285.937 L2771.01 270.427 Q2771.01 266.747 2769.57 264.918 Q2768.14 263.09 2765.27 263.09 Q2761.82 263.09 2759.83 265.289 Q2757.84 267.488 2757.84 271.284 L2757.84 285.937 L2753.55 285.937 L2753.55 260.011 L2757.84 260.011 L2757.84 264.039 Q2759.36 261.701 2761.42 260.543 Q2763.51 259.386 2766.22 259.386 Q2770.68 259.386 2772.98 262.164 Q2775.27 264.918 2775.27 270.289 Z" fill="#000000" fill-rule="nonzero" fill-opacity="1" /><path clip-path="url(#clip120)" d="M2784.32 264.409 L2813.99 264.409 L2813.99 268.298 L2784.32 268.298 L2784.32 264.409 M2784.32 273.853 L2813.99 273.853 L2813.99 277.789 L2784.32 277.789 L2784.32 273.853 Z" fill="#000000" fill-rule="nonzero" fill-opacity="1" /><path clip-path="url(#clip120)" d="M2824.9 282.001 L2832.54 282.001 L2832.54 255.636 L2824.23 257.303 L2824.23 253.043 L2832.49 251.377 L2837.17 251.377 L2837.17 282.001 L2844.8 282.001 L2844.8 285.937 L2824.9 285.937 L2824.9 282.001 Z" fill="#000000" fill-rule="nonzero" fill-opacity="1" /><path clip-path="url(#clip120)" d="M2852.98 249.965 L2856.68 249.965 Q2860.15 255.428 2861.86 260.659 Q2863.6 265.89 2863.6 271.052 Q2863.6 276.238 2861.86 281.492 Q2860.15 286.747 2856.68 292.187 L2852.98 292.187 Q2856.05 286.886 2857.56 281.654 Q2859.09 276.4 2859.09 271.052 Q2859.09 265.705 2857.56 260.497 Q2856.05 255.289 2852.98 249.965 Z" fill="#000000" fill-rule="nonzero" fill-opacity="1" /><circle clip-path="url(#clip120)" cx="2350.07" cy="320.497" r="20.9455" fill="#1e90ff" fill-rule="evenodd" fill-opacity="1" stroke="#000000" stroke-opacity="1" stroke-width="5.12"/>
<path clip-path="url(#clip120)" d="M2497.86 303.217 L2502.54 303.217 L2502.54 317.823 L2518.05 303.217 L2524.07 303.217 L2506.91 319.328 L2525.29 337.777 L2519.13 337.777 L2502.54 321.133 L2502.54 337.777 L2497.86 337.777 L2497.86 303.217 Z" fill="#000000" fill-rule="nonzero" fill-opacity="1" /><path clip-path="url(#clip120)" d="M2548.58 323.749 L2548.58 325.832 L2529 325.832 Q2529.27 330.23 2531.63 332.545 Q2534.02 334.837 2538.25 334.837 Q2540.71 334.837 2543 334.235 Q2545.32 333.633 2547.58 332.429 L2547.58 336.457 Q2545.29 337.429 2542.88 337.939 Q2540.48 338.448 2538 338.448 Q2531.8 338.448 2528.16 334.837 Q2524.55 331.226 2524.55 325.068 Q2524.55 318.703 2527.98 314.976 Q2531.43 311.226 2537.26 311.226 Q2542.49 311.226 2545.52 314.605 Q2548.58 317.962 2548.58 323.749 M2544.32 322.499 Q2544.27 319.004 2542.35 316.92 Q2540.45 314.837 2537.31 314.837 Q2533.74 314.837 2531.59 316.851 Q2529.46 318.865 2529.13 322.522 L2544.32 322.499 Z" fill="#000000" fill-rule="nonzero" fill-opacity="1" /><path clip-path="url(#clip120)" d="M2559.69 333.888 L2559.69 347.638 L2555.41 347.638 L2555.41 311.851 L2559.69 311.851 L2559.69 315.786 Q2561.03 313.471 2563.07 312.36 Q2565.13 311.226 2567.98 311.226 Q2572.7 311.226 2575.64 314.976 Q2578.6 318.726 2578.6 324.837 Q2578.6 330.948 2575.64 334.698 Q2572.7 338.448 2567.98 338.448 Q2565.13 338.448 2563.07 337.337 Q2561.03 336.203 2559.69 333.888 M2574.18 324.837 Q2574.18 320.138 2572.24 317.476 Q2570.31 314.791 2566.94 314.791 Q2563.56 314.791 2561.61 317.476 Q2559.69 320.138 2559.69 324.837 Q2559.69 329.536 2561.61 332.221 Q2563.56 334.883 2566.94 334.883 Q2570.31 334.883 2572.24 332.221 Q2574.18 329.536 2574.18 324.837 Z" fill="#000000" fill-rule="nonzero" fill-opacity="1" /><path clip-path="url(#clip120)" d="M2589.87 304.49 L2589.87 311.851 L2598.65 311.851 L2598.65 315.161 L2589.87 315.161 L2589.87 329.235 Q2589.87 332.406 2590.73 333.309 Q2591.61 334.212 2594.27 334.212 L2598.65 334.212 L2598.65 337.777 L2594.27 337.777 Q2589.34 337.777 2587.47 335.948 Q2585.59 334.096 2585.59 329.235 L2585.59 315.161 L2582.47 315.161 L2582.47 311.851 L2585.59 311.851 L2585.59 304.49 L2589.87 304.49 Z" fill="#000000" fill-rule="nonzero" fill-opacity="1" /><path clip-path="url(#clip120)" d="M2629.55 301.805 Q2626.45 307.129 2624.94 312.337 Q2623.44 317.545 2623.44 322.892 Q2623.44 328.24 2624.94 333.494 Q2626.47 338.726 2629.55 344.027 L2625.85 344.027 Q2622.37 338.587 2620.64 333.332 Q2618.93 328.078 2618.93 322.892 Q2618.93 317.73 2620.64 312.499 Q2622.35 307.268 2625.85 301.805 L2629.55 301.805 Z" fill="#000000" fill-rule="nonzero" fill-opacity="1" /><path clip-path="url(#clip120)" d="M2659.37 322.129 L2659.37 337.777 L2655.11 337.777 L2655.11 322.267 Q2655.11 318.587 2653.67 316.758 Q2652.24 314.93 2649.37 314.93 Q2645.92 314.93 2643.93 317.129 Q2641.93 319.328 2641.93 323.124 L2641.93 337.777 L2637.65 337.777 L2637.65 311.851 L2641.93 311.851 L2641.93 315.879 Q2643.46 313.541 2645.52 312.383 Q2647.61 311.226 2650.31 311.226 Q2654.78 311.226 2657.07 314.004 Q2659.37 316.758 2659.37 322.129 Z" fill="#000000" fill-rule="nonzero" fill-opacity="1" /><path clip-path="url(#clip120)" d="M2668.42 316.249 L2698.09 316.249 L2698.09 320.138 L2668.42 320.138 L2668.42 316.249 M2668.42 325.693 L2698.09 325.693 L2698.09 329.629 L2668.42 329.629 L2668.42 325.693 Z" fill="#000000" fill-rule="nonzero" fill-opacity="1" /><path clip-path="url(#clip120)" d="M2707 303.217 L2729.23 303.217 L2729.23 305.207 L2716.68 337.777 L2711.8 337.777 L2723.6 307.152 L2707 307.152 L2707 303.217 Z" fill="#000000" fill-rule="nonzero" fill-opacity="1" /><path clip-path="url(#clip120)" d="M2737.07 301.805 L2740.78 301.805 Q2744.25 307.268 2745.96 312.499 Q2747.7 317.73 2747.7 322.892 Q2747.7 328.078 2745.96 333.332 Q2744.25 338.587 2740.78 344.027 L2737.07 344.027 Q2740.15 338.726 2741.66 333.494 Q2743.18 328.24 2743.18 322.892 Q2743.18 317.545 2741.66 312.337 Q2740.15 307.129 2737.07 301.805 Z" fill="#000000" fill-rule="nonzero" fill-opacity="1" /></svg>
