<?xml version="1.0" encoding="utf-8"?>
<svg xmlns="http://www.w3.org/2000/svg" xmlns:xlink="http://www.w3.org/1999/xlink" width="600" height="400" viewBox="0 0 2400 1600">
<defs>
  <clipPath id="clip270">
    <rect x="0" y="0" width="2400" height="1600"/>
  </clipPath>
</defs>
<path clip-path="url(#clip270)" d="M0 1600 L2400 1600 L2400 0 L0 0  Z" fill="#ffffff" fill-rule="evenodd" fill-opacity="1"/>
<defs>
  <clipPath id="clip271">
    <rect x="249" y="123" width="2104" height="1301"/>
  </clipPath>
</defs>
<path clip-path="url(#clip270)" d="M174.149 1423.18 L2352.76 1423.18 L2352.76 123.472 L174.149 123.472  Z" fill="#ffffff" fill-rule="evenodd" fill-opacity="1"/>
<defs>
  <clipPath id="clip272">
    <rect x="174" y="123" width="2180" height="1301"/>
  </clipPath>
</defs>
<polyline clip-path="url(#clip272)" style="stroke:#000000; stroke-linecap:round; stroke-linejoin:round; stroke-width:2; stroke-opacity:0.1; fill:none" points="223.147,1423.18 223.147,123.472 "/>
<polyline clip-path="url(#clip272)" style="stroke:#000000; stroke-linecap:round; stroke-linejoin:round; stroke-width:2; stroke-opacity:0.1; fill:none" points="926.531,1423.18 926.531,123.472 "/>
<polyline clip-path="url(#clip272)" style="stroke:#000000; stroke-linecap:round; stroke-linejoin:round; stroke-width:2; stroke-opacity:0.1; fill:none" points="1629.92,1423.18 1629.92,123.472 "/>
<polyline clip-path="url(#clip272)" style="stroke:#000000; stroke-linecap:round; stroke-linejoin:round; stroke-width:2; stroke-opacity:0.1; fill:none" points="2333.3,1423.18 2333.3,123.472 "/>
<polyline clip-path="url(#clip272)" style="stroke:#000000; stroke-linecap:round; stroke-linejoin:round; stroke-width:2; stroke-opacity:0.1; fill:none" points="174.149,1386.4 2352.76,1386.4 "/>
<polyline clip-path="url(#clip272)" style="stroke:#000000; stroke-linecap:round; stroke-linejoin:round; stroke-width:2; stroke-opacity:0.1; fill:none" points="174.149,1055.68 2352.76,1055.68 "/>
<polyline clip-path="url(#clip272)" style="stroke:#000000; stroke-linecap:round; stroke-linejoin:round; stroke-width:2; stroke-opacity:0.1; fill:none" points="174.149,724.969 2352.76,724.969 "/>
<polyline clip-path="url(#clip272)" style="stroke:#000000; stroke-linecap:round; stroke-linejoin:round; stroke-width:2; stroke-opacity:0.1; fill:none" points="174.149,394.256 2352.76,394.256 "/>
<polyline clip-path="url(#clip270)" style="stroke:#000000; stroke-linecap:round; stroke-linejoin:round; stroke-width:4; stroke-opacity:1; fill:none" points="174.149,1423.18 2352.76,1423.18 "/>
<polyline clip-path="url(#clip270)" style="stroke:#000000; stroke-linecap:round; stroke-linejoin:round; stroke-width:4; stroke-opacity:1; fill:none" points="223.147,1423.18 223.147,1404.28 "/>
<polyline clip-path="url(#clip270)" style="stroke:#000000; stroke-linecap:round; stroke-linejoin:round; stroke-width:4; stroke-opacity:1; fill:none" points="926.531,1423.18 926.531,1404.28 "/>
<polyline clip-path="url(#clip270)" style="stroke:#000000; stroke-linecap:round; stroke-linejoin:round; stroke-width:4; stroke-opacity:1; fill:none" points="1629.92,1423.18 1629.92,1404.28 "/>
<polyline clip-path="url(#clip270)" style="stroke:#000000; stroke-linecap:round; stroke-linejoin:round; stroke-width:4; stroke-opacity:1; fill:none" points="2333.3,1423.18 2333.3,1404.28 "/>
<path clip-path="url(#clip270)" d="M223.147 1454.1 Q219.536 1454.1 217.707 1457.66 Q215.901 1461.2 215.901 1468.33 Q215.901 1475.44 217.707 1479.01 Q219.536 1482.55 223.147 1482.55 Q226.781 1482.55 228.586 1479.01 Q230.415 1475.44 230.415 1468.33 Q230.415 1461.2 228.586 1457.66 Q226.781 1454.1 223.147 1454.1 M223.147 1450.39 Q228.957 1450.39 232.012 1455 Q235.091 1459.58 235.091 1468.33 Q235.091 1477.06 232.012 1481.67 Q228.957 1486.25 223.147 1486.25 Q217.337 1486.25 214.258 1481.67 Q211.202 1477.06 211.202 1468.33 Q211.202 1459.58 214.258 1455 Q217.337 1450.39 223.147 1450.39 Z" fill="#000000" fill-rule="nonzero" fill-opacity="1" /><path clip-path="url(#clip270)" d="M901.23 1451.02 L919.587 1451.02 L919.587 1454.96 L905.513 1454.96 L905.513 1463.43 Q906.531 1463.08 907.55 1462.92 Q908.568 1462.73 909.587 1462.73 Q915.374 1462.73 918.753 1465.9 Q922.133 1469.08 922.133 1474.49 Q922.133 1480.07 918.661 1483.17 Q915.189 1486.25 908.869 1486.25 Q906.693 1486.25 904.425 1485.88 Q902.179 1485.51 899.772 1484.77 L899.772 1480.07 Q901.855 1481.2 904.078 1481.76 Q906.3 1482.32 908.777 1482.32 Q912.781 1482.32 915.119 1480.21 Q917.457 1478.1 917.457 1474.49 Q917.457 1470.88 915.119 1468.77 Q912.781 1466.67 908.777 1466.67 Q906.902 1466.67 905.027 1467.08 Q903.175 1467.5 901.23 1468.38 L901.23 1451.02 Z" fill="#000000" fill-rule="nonzero" fill-opacity="1" /><path clip-path="url(#clip270)" d="M941.346 1454.1 Q937.735 1454.1 935.906 1457.66 Q934.101 1461.2 934.101 1468.33 Q934.101 1475.44 935.906 1479.01 Q937.735 1482.55 941.346 1482.55 Q944.98 1482.55 946.786 1479.01 Q948.614 1475.44 948.614 1468.33 Q948.614 1461.2 946.786 1457.66 Q944.98 1454.1 941.346 1454.1 M941.346 1450.39 Q947.156 1450.39 950.212 1455 Q953.29 1459.58 953.29 1468.33 Q953.29 1477.06 950.212 1481.67 Q947.156 1486.25 941.346 1486.25 Q935.536 1486.25 932.457 1481.67 Q929.402 1477.06 929.402 1468.33 Q929.402 1459.58 932.457 1455 Q935.536 1450.39 941.346 1450.39 Z" fill="#000000" fill-rule="nonzero" fill-opacity="1" /><path clip-path="url(#clip270)" d="M1589.52 1481.64 L1597.16 1481.64 L1597.16 1455.28 L1588.85 1456.95 L1588.85 1452.69 L1597.12 1451.02 L1601.79 1451.02 L1601.79 1481.64 L1609.43 1481.64 L1609.43 1485.58 L1589.52 1485.58 L1589.52 1481.64 Z" fill="#000000" fill-rule="nonzero" fill-opacity="1" /><path clip-path="url(#clip270)" d="M1628.87 1454.1 Q1625.26 1454.1 1623.43 1457.66 Q1621.63 1461.2 1621.63 1468.33 Q1621.63 1475.44 1623.43 1479.01 Q1625.26 1482.55 1628.87 1482.55 Q1632.51 1482.55 1634.31 1479.01 Q1636.14 1475.44 1636.14 1468.33 Q1636.14 1461.2 1634.31 1457.66 Q1632.51 1454.1 1628.87 1454.1 M1628.87 1450.39 Q1634.68 1450.39 1637.74 1455 Q1640.82 1459.58 1640.82 1468.33 Q1640.82 1477.06 1637.74 1481.67 Q1634.68 1486.25 1628.87 1486.25 Q1623.06 1486.25 1619.99 1481.67 Q1616.93 1477.06 1616.93 1468.33 Q1616.93 1459.58 1619.99 1455 Q1623.06 1450.39 1628.87 1450.39 Z" fill="#000000" fill-rule="nonzero" fill-opacity="1" /><path clip-path="url(#clip270)" d="M1659.04 1454.1 Q1655.42 1454.1 1653.6 1457.66 Q1651.79 1461.2 1651.79 1468.33 Q1651.79 1475.44 1653.6 1479.01 Q1655.42 1482.55 1659.04 1482.55 Q1662.67 1482.55 1664.48 1479.01 Q1666.3 1475.44 1666.3 1468.33 Q1666.3 1461.2 1664.48 1457.66 Q1662.67 1454.1 1659.04 1454.1 M1659.04 1450.39 Q1664.85 1450.39 1667.9 1455 Q1670.98 1459.58 1670.98 1468.33 Q1670.98 1477.06 1667.9 1481.67 Q1664.85 1486.25 1659.04 1486.25 Q1653.23 1486.25 1650.15 1481.67 Q1647.09 1477.06 1647.09 1468.33 Q1647.09 1459.58 1650.15 1455 Q1653.23 1450.39 1659.04 1450.39 Z" fill="#000000" fill-rule="nonzero" fill-opacity="1" /><path clip-path="url(#clip270)" d="M2292.91 1481.64 L2300.55 1481.64 L2300.55 1455.28 L2292.24 1456.95 L2292.24 1452.69 L2300.5 1451.02 L2305.18 1451.02 L2305.18 1481.64 L2312.81 1481.64 L2312.81 1485.58 L2292.91 1485.58 L2292.91 1481.64 Z" fill="#000000" fill-rule="nonzero" fill-opacity="1" /><path clip-path="url(#clip270)" d="M2322.3 1451.02 L2340.66 1451.02 L2340.66 1454.96 L2326.59 1454.96 L2326.59 1463.43 Q2327.61 1463.08 2328.62 1462.92 Q2329.64 1462.73 2330.66 1462.73 Q2336.45 1462.73 2339.83 1465.9 Q2343.21 1469.08 2343.21 1474.49 Q2343.21 1480.07 2339.74 1483.17 Q2336.26 1486.25 2329.94 1486.25 Q2327.77 1486.25 2325.5 1485.88 Q2323.25 1485.51 2320.85 1484.77 L2320.85 1480.07 Q2322.93 1481.2 2325.15 1481.76 Q2327.37 1482.32 2329.85 1482.32 Q2333.86 1482.32 2336.19 1480.21 Q2338.53 1478.1 2338.53 1474.49 Q2338.53 1470.88 2336.19 1468.77 Q2333.86 1466.67 2329.85 1466.67 Q2327.98 1466.67 2326.1 1467.08 Q2324.25 1467.5 2322.3 1468.38 L2322.3 1451.02 Z" fill="#000000" fill-rule="nonzero" fill-opacity="1" /><path clip-path="url(#clip270)" d="M2362.42 1454.1 Q2358.81 1454.1 2356.98 1457.66 Q2355.18 1461.2 2355.18 1468.33 Q2355.18 1475.44 2356.98 1479.01 Q2358.81 1482.55 2362.42 1482.55 Q2366.05 1482.55 2367.86 1479.01 Q2369.69 1475.44 2369.69 1468.33 Q2369.69 1461.2 2367.86 1457.66 Q2366.05 1454.1 2362.42 1454.1 M2362.42 1450.39 Q2368.23 1450.39 2371.29 1455 Q2374.36 1459.58 2374.36 1468.33 Q2374.36 1477.06 2371.29 1481.67 Q2368.23 1486.25 2362.42 1486.25 Q2356.61 1486.25 2353.53 1481.67 Q2350.48 1477.06 2350.48 1468.33 Q2350.48 1459.58 2353.53 1455 Q2356.61 1450.39 2362.42 1450.39 Z" fill="#000000" fill-rule="nonzero" fill-opacity="1" /><path clip-path="url(#clip270)" d="M1185.33 1520.52 L1225.53 1520.52 L1225.53 1525.93 L1208.66 1525.93 L1208.66 1568.04 L1202.2 1568.04 L1202.2 1525.93 L1185.33 1525.93 L1185.33 1520.52 Z" fill="#000000" fill-rule="nonzero" fill-opacity="1" /><path clip-path="url(#clip270)" d="M1229.48 1532.4 L1235.33 1532.4 L1235.33 1568.04 L1229.48 1568.04 L1229.48 1532.4 M1229.48 1518.52 L1235.33 1518.52 L1235.33 1525.93 L1229.48 1525.93 L1229.48 1518.52 Z" fill="#000000" fill-rule="nonzero" fill-opacity="1" /><path clip-path="url(#clip270)" d="M1275.34 1539.24 Q1277.54 1535.29 1280.59 1533.41 Q1283.65 1531.54 1287.79 1531.54 Q1293.36 1531.54 1296.38 1535.45 Q1299.4 1539.33 1299.4 1546.53 L1299.4 1568.04 L1293.51 1568.04 L1293.51 1546.72 Q1293.51 1541.59 1291.7 1539.11 Q1289.89 1536.63 1286.16 1536.63 Q1281.61 1536.63 1278.97 1539.65 Q1276.33 1542.68 1276.33 1547.9 L1276.33 1568.04 L1270.44 1568.04 L1270.44 1546.72 Q1270.44 1541.56 1268.62 1539.11 Q1266.81 1536.63 1263.02 1536.63 Q1258.53 1536.63 1255.89 1539.68 Q1253.25 1542.71 1253.25 1547.9 L1253.25 1568.04 L1247.36 1568.04 L1247.36 1532.4 L1253.25 1532.4 L1253.25 1537.93 Q1255.26 1534.66 1258.06 1533.1 Q1260.86 1531.54 1264.71 1531.54 Q1268.59 1531.54 1271.3 1533.51 Q1274.04 1535.48 1275.34 1539.24 Z" fill="#000000" fill-rule="nonzero" fill-opacity="1" /><path clip-path="url(#clip270)" d="M1341.58 1548.76 L1341.58 1551.62 L1314.65 1551.62 Q1315.03 1557.67 1318.28 1560.85 Q1321.56 1564 1327.38 1564 Q1330.75 1564 1333.9 1563.17 Q1337.09 1562.35 1340.21 1560.69 L1340.21 1566.23 Q1337.06 1567.57 1333.75 1568.27 Q1330.44 1568.97 1327.03 1568.97 Q1318.5 1568.97 1313.5 1564 Q1308.54 1559.04 1308.54 1550.57 Q1308.54 1541.82 1313.25 1536.69 Q1317.99 1531.54 1326.01 1531.54 Q1333.2 1531.54 1337.37 1536.18 Q1341.58 1540.8 1341.58 1548.76 M1335.72 1547.04 Q1335.66 1542.23 1333.01 1539.37 Q1330.4 1536.5 1326.08 1536.5 Q1321.17 1536.5 1318.21 1539.27 Q1315.29 1542.04 1314.84 1547.07 L1335.72 1547.04 Z" fill="#000000" fill-rule="nonzero" fill-opacity="1" /><polyline clip-path="url(#clip270)" style="stroke:#000000; stroke-linecap:round; stroke-linejoin:round; stroke-width:4; stroke-opacity:1; fill:none" points="174.149,1423.18 174.149,123.472 "/>
<polyline clip-path="url(#clip270)" style="stroke:#000000; stroke-linecap:round; stroke-linejoin:round; stroke-width:4; stroke-opacity:1; fill:none" points="174.149,1386.4 193.047,1386.4 "/>
<polyline clip-path="url(#clip270)" style="stroke:#000000; stroke-linecap:round; stroke-linejoin:round; stroke-width:4; stroke-opacity:1; fill:none" points="174.149,1055.68 193.047,1055.68 "/>
<polyline clip-path="url(#clip270)" style="stroke:#000000; stroke-linecap:round; stroke-linejoin:round; stroke-width:4; stroke-opacity:1; fill:none" points="174.149,724.969 193.047,724.969 "/>
<polyline clip-path="url(#clip270)" style="stroke:#000000; stroke-linecap:round; stroke-linejoin:round; stroke-width:4; stroke-opacity:1; fill:none" points="174.149,394.256 193.047,394.256 "/>
<path clip-path="url(#clip270)" d="M126.205 1372.19 Q122.593 1372.19 120.765 1375.76 Q118.959 1379.3 118.959 1386.43 Q118.959 1393.54 120.765 1397.1 Q122.593 1400.64 126.205 1400.64 Q129.839 1400.64 131.644 1397.1 Q133.473 1393.54 133.473 1386.43 Q133.473 1379.3 131.644 1375.76 Q129.839 1372.19 126.205 1372.19 M126.205 1368.49 Q132.015 1368.49 135.07 1373.1 Q138.149 1377.68 138.149 1386.43 Q138.149 1395.16 135.07 1399.76 Q132.015 1404.35 126.205 1404.35 Q120.394 1404.35 117.316 1399.76 Q114.26 1395.16 114.26 1386.43 Q114.26 1377.68 117.316 1373.1 Q120.394 1368.49 126.205 1368.49 Z" fill="#000000" fill-rule="nonzero" fill-opacity="1" /><path clip-path="url(#clip270)" d="M118.242 1069.03 L125.88 1069.03 L125.88 1042.66 L117.57 1044.33 L117.57 1040.07 L125.834 1038.4 L130.51 1038.4 L130.51 1069.03 L138.149 1069.03 L138.149 1072.96 L118.242 1072.96 L118.242 1069.03 Z" fill="#000000" fill-rule="nonzero" fill-opacity="1" /><path clip-path="url(#clip270)" d="M121.83 738.314 L138.149 738.314 L138.149 742.249 L116.205 742.249 L116.205 738.314 Q118.867 735.559 123.45 730.93 Q128.056 726.277 129.237 724.935 Q131.482 722.411 132.362 720.675 Q133.265 718.916 133.265 717.226 Q133.265 714.472 131.32 712.736 Q129.399 710.999 126.297 710.999 Q124.098 710.999 121.644 711.763 Q119.214 712.527 116.436 714.078 L116.436 709.356 Q119.26 708.222 121.714 707.643 Q124.168 707.064 126.205 707.064 Q131.575 707.064 134.769 709.749 Q137.964 712.435 137.964 716.925 Q137.964 719.055 137.154 720.976 Q136.367 722.874 134.26 725.467 Q133.681 726.138 130.58 729.356 Q127.478 732.55 121.83 738.314 Z" fill="#000000" fill-rule="nonzero" fill-opacity="1" /><path clip-path="url(#clip270)" d="M131.019 392.902 Q134.376 393.619 136.251 395.888 Q138.149 398.156 138.149 401.49 Q138.149 406.605 134.63 409.406 Q131.112 412.207 124.63 412.207 Q122.455 412.207 120.14 411.768 Q117.848 411.351 115.394 410.494 L115.394 405.98 Q117.339 407.115 119.654 407.693 Q121.968 408.272 124.492 408.272 Q128.89 408.272 131.181 406.536 Q133.496 404.8 133.496 401.49 Q133.496 398.434 131.343 396.721 Q129.214 394.985 125.394 394.985 L121.367 394.985 L121.367 391.143 L125.58 391.143 Q129.029 391.143 130.857 389.777 Q132.686 388.388 132.686 385.795 Q132.686 383.133 130.788 381.721 Q128.913 380.286 125.394 380.286 Q123.473 380.286 121.274 380.703 Q119.075 381.12 116.436 381.999 L116.436 377.833 Q119.098 377.092 121.413 376.721 Q123.751 376.351 125.811 376.351 Q131.135 376.351 134.237 378.782 Q137.339 381.189 137.339 385.309 Q137.339 388.18 135.695 390.17 Q134.052 392.138 131.019 392.902 Z" fill="#000000" fill-rule="nonzero" fill-opacity="1" /><path clip-path="url(#clip270)" d="M20.1444 820.225 L26.9239 820.225 Q23.9002 823.472 22.4043 827.164 Q20.9083 830.824 20.9083 834.962 Q20.9083 843.11 25.9054 847.439 Q30.8707 851.767 40.2919 851.767 Q49.6813 851.767 54.6784 847.439 Q59.6436 843.11 59.6436 834.962 Q59.6436 830.824 58.1477 827.164 Q56.6518 823.472 53.6281 820.225 L60.3439 820.225 Q62.6355 823.599 63.7814 827.387 Q64.9272 831.143 64.9272 835.344 Q64.9272 846.134 58.3387 852.34 Q51.7183 858.547 40.2919 858.547 Q28.8336 858.547 22.2451 852.34 Q15.6248 846.134 15.6248 835.344 Q15.6248 831.079 16.7706 827.323 Q17.8846 823.535 20.1444 820.225 Z" fill="#000000" fill-rule="nonzero" fill-opacity="1" /><path clip-path="url(#clip270)" d="M16.4842 816.883 L16.4842 776.684 L21.895 776.684 L21.895 793.553 L64.0042 793.553 L64.0042 800.014 L21.895 800.014 L21.895 816.883 L16.4842 816.883 Z" fill="#000000" fill-rule="nonzero" fill-opacity="1" /><path clip-path="url(#clip270)" d="M16.4842 770.477 L16.4842 761.82 L56.238 740.749 L16.4842 740.749 L16.4842 734.511 L64.0042 734.511 L64.0042 743.168 L24.2503 764.239 L64.0042 764.239 L64.0042 770.477 L16.4842 770.477 Z" fill="#000000" fill-rule="nonzero" fill-opacity="1" /><path clip-path="url(#clip270)" d="M16.4842 728.305 L16.4842 688.105 L21.895 688.105 L21.895 704.974 L64.0042 704.974 L64.0042 711.435 L21.895 711.435 L21.895 728.305 L16.4842 728.305 Z" fill="#000000" fill-rule="nonzero" fill-opacity="1" /><path clip-path="url(#clip270)" d="M841.551 28.9478 L841.551 35.9153 Q838.391 34.1734 835.191 33.3227 Q832.031 32.4315 828.79 32.4315 Q821.539 32.4315 817.529 37.0496 Q813.518 41.6271 813.518 49.9314 Q813.518 58.2358 817.529 62.8538 Q821.539 67.4314 828.79 67.4314 Q832.031 67.4314 835.191 66.5807 Q838.391 65.6895 841.551 63.9476 L841.551 70.8341 Q838.432 72.2924 835.069 73.0216 Q831.748 73.7508 827.98 73.7508 Q817.731 73.7508 811.696 67.3098 Q805.66 60.8689 805.66 49.9314 Q805.66 38.832 811.736 32.472 Q817.853 26.1121 828.466 26.1121 Q831.91 26.1121 835.191 26.8413 Q838.472 27.5299 841.551 28.9478 Z" fill="#000000" fill-rule="nonzero" fill-opacity="1" /><path clip-path="url(#clip270)" d="M853.906 12.096 L862.129 12.096 L862.129 48.8377 Q862.129 58.5599 865.654 62.8538 Q869.178 67.1073 877.077 67.1073 Q884.936 67.1073 888.46 62.8538 Q891.984 58.5599 891.984 48.8377 L891.984 12.096 L900.208 12.096 L900.208 49.8504 Q900.208 61.6791 894.334 67.7149 Q888.501 73.7508 877.077 73.7508 Q865.613 73.7508 859.739 67.7149 Q853.906 61.6791 853.906 49.8504 L853.906 12.096 Z" fill="#000000" fill-rule="nonzero" fill-opacity="1" /><path clip-path="url(#clip270)" d="M923.744 18.8205 L923.744 65.8515 L933.628 65.8515 Q946.145 65.8515 951.938 60.1802 Q957.771 54.509 957.771 42.2752 Q957.771 30.1225 951.938 24.4918 Q946.145 18.8205 933.628 18.8205 L923.744 18.8205 M915.561 12.096 L932.372 12.096 Q949.953 12.096 958.176 19.4281 Q966.4 26.7198 966.4 42.2752 Q966.4 57.9117 958.136 65.2439 Q949.872 72.576 932.372 72.576 L915.561 72.576 L915.561 12.096 Z" fill="#000000" fill-rule="nonzero" fill-opacity="1" /><path clip-path="url(#clip270)" d="M979.444 12.096 L1017.68 12.096 L1017.68 18.9825 L987.626 18.9825 L987.626 36.8875 L1016.43 36.8875 L1016.43 43.7741 L987.626 43.7741 L987.626 65.6895 L1018.41 65.6895 L1018.41 72.576 L979.444 72.576 L979.444 12.096 Z" fill="#000000" fill-rule="nonzero" fill-opacity="1" /><path clip-path="url(#clip270)" d="M1058.23 12.096 L1069.25 12.096 L1096.07 62.6918 L1096.07 12.096 L1104.01 12.096 L1104.01 72.576 L1092.99 72.576 L1066.17 21.9802 L1066.17 72.576 L1058.23 72.576 L1058.23 12.096 Z" fill="#000000" fill-rule="nonzero" fill-opacity="1" /><path clip-path="url(#clip270)" d="M1120.29 12.096 L1131.31 12.096 L1158.13 62.6918 L1158.13 12.096 L1166.07 12.096 L1166.07 72.576 L1155.05 72.576 L1128.23 21.9802 L1128.23 72.576 L1120.29 72.576 L1120.29 12.096 Z" fill="#000000" fill-rule="nonzero" fill-opacity="1" /><path clip-path="url(#clip270)" d="M1216.91 18.8205 L1216.91 41.5461 L1227.2 41.5461 Q1232.91 41.5461 1236.03 38.5889 Q1239.15 35.6318 1239.15 30.163 Q1239.15 24.7348 1236.03 21.7777 Q1232.91 18.8205 1227.2 18.8205 L1216.91 18.8205 M1208.72 12.096 L1227.2 12.096 Q1237.36 12.096 1242.55 16.714 Q1247.78 21.2916 1247.78 30.163 Q1247.78 39.1155 1242.55 43.6931 Q1237.36 48.2706 1227.2 48.2706 L1216.91 48.2706 L1216.91 72.576 L1208.72 72.576 L1208.72 12.096 Z" fill="#000000" fill-rule="nonzero" fill-opacity="1" /><path clip-path="url(#clip270)" d="M1275.32 49.7694 Q1266.29 49.7694 1262.8 51.8354 Q1259.32 53.9013 1259.32 58.8839 Q1259.32 62.8538 1261.91 65.2034 Q1264.55 67.5124 1269.04 67.5124 Q1275.24 67.5124 1278.97 63.1374 Q1282.73 58.7219 1282.73 51.4303 L1282.73 49.7694 L1275.32 49.7694 M1290.19 46.6907 L1290.19 72.576 L1282.73 72.576 L1282.73 65.6895 Q1280.18 69.8214 1276.37 71.8063 Q1272.57 73.7508 1267.06 73.7508 Q1260.09 73.7508 1255.96 69.8619 Q1251.87 65.9325 1251.87 59.3701 Q1251.87 51.7138 1256.97 47.825 Q1262.12 43.9361 1272.28 43.9361 L1282.73 43.9361 L1282.73 43.2069 Q1282.73 38.0623 1279.33 35.2672 Q1275.97 32.4315 1269.85 32.4315 Q1265.96 32.4315 1262.28 33.3632 Q1258.59 34.295 1255.19 36.1584 L1255.19 29.2718 Q1259.28 27.692 1263.13 26.9223 Q1266.98 26.1121 1270.62 26.1121 Q1280.47 26.1121 1285.33 31.2163 Q1290.19 36.3204 1290.19 46.6907 Z" fill="#000000" fill-rule="nonzero" fill-opacity="1" /><path clip-path="url(#clip270)" d="M1312.91 14.324 L1312.91 27.2059 L1328.27 27.2059 L1328.27 32.9987 L1312.91 32.9987 L1312.91 57.6282 Q1312.91 63.1779 1314.41 64.7578 Q1315.95 66.3376 1320.61 66.3376 L1328.27 66.3376 L1328.27 72.576 L1320.61 72.576 Q1311.98 72.576 1308.7 69.3758 Q1305.42 66.1351 1305.42 57.6282 L1305.42 32.9987 L1299.95 32.9987 L1299.95 27.2059 L1305.42 27.2059 L1305.42 14.324 L1312.91 14.324 Z" fill="#000000" fill-rule="nonzero" fill-opacity="1" /><path clip-path="url(#clip270)" d="M1338.07 27.2059 L1345.52 27.2059 L1345.52 72.576 L1338.07 72.576 L1338.07 27.2059 M1338.07 9.54393 L1345.52 9.54393 L1345.52 18.9825 L1338.07 18.9825 L1338.07 9.54393 Z" fill="#000000" fill-rule="nonzero" fill-opacity="1" /><path clip-path="url(#clip270)" d="M1399.93 48.0275 L1399.93 51.6733 L1365.66 51.6733 Q1366.14 59.3701 1370.27 63.421 Q1374.45 67.4314 1381.86 67.4314 Q1386.15 67.4314 1390.16 66.3781 Q1394.22 65.3249 1398.19 63.2184 L1398.19 70.267 Q1394.18 71.9684 1389.96 72.8596 Q1385.75 73.7508 1381.41 73.7508 Q1370.56 73.7508 1364.2 67.4314 Q1357.88 61.1119 1357.88 50.3365 Q1357.88 39.1965 1363.87 32.6746 Q1369.91 26.1121 1380.12 26.1121 Q1389.27 26.1121 1394.58 32.0264 Q1399.93 37.9003 1399.93 48.0275 M1392.47 45.84 Q1392.39 39.7232 1389.03 36.0774 Q1385.71 32.4315 1380.2 32.4315 Q1373.96 32.4315 1370.19 35.9558 Q1366.47 39.4801 1365.9 45.8805 L1392.47 45.84 Z" fill="#000000" fill-rule="nonzero" fill-opacity="1" /><path clip-path="url(#clip270)" d="M1449.88 45.1919 L1449.88 72.576 L1442.42 72.576 L1442.42 45.4349 Q1442.42 38.994 1439.91 35.7938 Q1437.4 32.5936 1432.38 32.5936 Q1426.34 32.5936 1422.86 36.4419 Q1419.37 40.2903 1419.37 46.9338 L1419.37 72.576 L1411.88 72.576 L1411.88 27.2059 L1419.37 27.2059 L1419.37 34.2544 Q1422.05 30.163 1425.65 28.1376 Q1429.3 26.1121 1434.04 26.1121 Q1441.85 26.1121 1445.86 30.9732 Q1449.88 35.7938 1449.88 45.1919 Z" fill="#000000" fill-rule="nonzero" fill-opacity="1" /><path clip-path="url(#clip270)" d="M1472.11 14.324 L1472.11 27.2059 L1487.47 27.2059 L1487.47 32.9987 L1472.11 32.9987 L1472.11 57.6282 Q1472.11 63.1779 1473.61 64.7578 Q1475.15 66.3376 1479.81 66.3376 L1487.47 66.3376 L1487.47 72.576 L1479.81 72.576 Q1471.18 72.576 1467.9 69.3758 Q1464.62 66.1351 1464.62 57.6282 L1464.62 32.9987 L1459.15 32.9987 L1459.15 27.2059 L1464.62 27.2059 L1464.62 14.324 L1472.11 14.324 Z" fill="#000000" fill-rule="nonzero" fill-opacity="1" /><path clip-path="url(#clip270)" d="M1561.36 45.1919 L1561.36 72.576 L1553.9 72.576 L1553.9 45.4349 Q1553.9 38.994 1551.39 35.7938 Q1548.88 32.5936 1543.86 32.5936 Q1537.82 32.5936 1534.34 36.4419 Q1530.85 40.2903 1530.85 46.9338 L1530.85 72.576 L1523.36 72.576 L1523.36 27.2059 L1530.85 27.2059 L1530.85 34.2544 Q1533.53 30.163 1537.13 28.1376 Q1540.78 26.1121 1545.52 26.1121 Q1553.34 26.1121 1557.35 30.9732 Q1561.36 35.7938 1561.36 45.1919 Z" fill="#000000" fill-rule="nonzero" fill-opacity="1" /><path clip-path="url(#clip270)" d="M1584.32 65.6895 L1612.88 65.6895 L1612.88 72.576 L1574.48 72.576 L1574.48 65.6895 Q1579.14 60.8689 1587.16 52.7671 Q1595.22 44.6248 1597.29 42.2752 Q1601.22 37.8598 1602.76 34.8216 Q1604.34 31.7429 1604.34 28.7857 Q1604.34 23.9651 1600.93 20.927 Q1597.57 17.8888 1592.14 17.8888 Q1588.29 17.8888 1584 19.2256 Q1579.75 20.5624 1574.89 23.2765 L1574.89 15.0127 Q1579.83 13.0277 1584.12 12.015 Q1588.42 11.0023 1591.98 11.0023 Q1601.38 11.0023 1606.97 15.7013 Q1612.56 20.4004 1612.56 28.2591 Q1612.56 31.9859 1611.14 35.3482 Q1609.76 38.6699 1606.08 43.2069 Q1605.07 44.3817 1599.64 50.0125 Q1594.21 55.6027 1584.32 65.6895 Z" fill="#000000" fill-rule="nonzero" fill-opacity="1" /><path clip-path="url(#clip270)" d="M1627.99 12.096 L1666.88 12.096 L1666.88 15.5798 L1644.93 72.576 L1636.38 72.576 L1657.04 18.9825 L1627.99 18.9825 L1627.99 12.096 Z" fill="#000000" fill-rule="nonzero" fill-opacity="1" /><path clip-path="url(#clip270)" d="M1700.34 17.4837 Q1694.02 17.4837 1690.82 23.7221 Q1687.66 29.92 1687.66 42.3968 Q1687.66 54.833 1690.82 61.0714 Q1694.02 67.2693 1700.34 67.2693 Q1706.7 67.2693 1709.86 61.0714 Q1713.06 54.833 1713.06 42.3968 Q1713.06 29.92 1709.86 23.7221 Q1706.7 17.4837 1700.34 17.4837 M1700.34 11.0023 Q1710.51 11.0023 1715.86 19.0636 Q1721.25 27.0843 1721.25 42.3968 Q1721.25 57.6687 1715.86 65.73 Q1710.51 73.7508 1700.34 73.7508 Q1690.17 73.7508 1684.79 65.73 Q1679.44 57.6687 1679.44 42.3968 Q1679.44 27.0843 1684.79 19.0636 Q1690.17 11.0023 1700.34 11.0023 Z" fill="#000000" fill-rule="nonzero" fill-opacity="1" /><polyline clip-path="url(#clip272)" style="stroke:#009af9; stroke-linecap:round; stroke-linejoin:round; stroke-width:8; stroke-opacity:1; fill:none" points="237.214,160.256 251.282,163.082 265.35,166.095 279.417,169.189 293.485,172.367 307.553,175.631 321.621,178.984 335.688,182.427 349.756,185.964 363.824,189.598 377.891,193.331 391.959,197.165 406.027,201.105 420.094,205.152 434.162,209.31 448.23,213.582 462.297,217.97 476.365,222.477 490.433,227.107 504.5,231.862 518.568,236.746 532.636,241.761 546.704,246.911 560.771,252.198 574.839,257.626 588.907,263.196 602.974,268.913 617.042,274.779 631.11,280.796 645.177,286.968 659.245,293.297 673.313,299.785 687.38,306.434 701.448,313.247 715.516,320.226 729.584,327.373 743.651,334.689 757.719,342.176 771.787,349.835 785.854,357.667 799.922,365.673 813.99,373.854 828.057,382.209 842.125,390.739 856.193,399.443 870.26,408.32 884.328,417.369 898.396,426.59 912.464,435.978 926.531,445.534 940.599,455.253 954.667,465.132 968.734,475.169 982.802,485.357 996.87,495.694 1010.94,506.173 1025.01,516.79 1039.07,527.538 1053.14,538.41 1067.21,549.399 1081.28,560.497 1095.34,571.697 1109.41,582.989 1123.48,594.364 1137.55,605.813 1151.61,617.326 1165.68,628.891 1179.75,640.499 1193.82,652.137 1207.89,663.794 1221.95,675.459 1236.02,687.119 1250.09,698.761 1264.16,710.372 1278.22,721.941 1292.29,733.455 1306.36,744.9 1320.43,756.265 1334.49,767.537 1348.56,778.702 1362.63,789.749 1376.7,800.667 1390.77,811.444 1404.83,822.069 1418.9,832.532 1432.97,842.823 1447.04,852.933 1461.1,862.851 1475.17,872.572 1489.24,882.089 1503.31,891.394 1517.37,900.484 1531.44,909.352 1545.51,917.996 1559.58,926.411 1573.64,934.597 1587.71,942.553 1601.78,950.278 1615.85,957.775 1629.92,965.043 1643.98,972.086 1658.05,978.906 1672.12,985.506 1686.19,991.892 1700.25,998.069 1714.32,1004.04 1728.39,1009.82 1742.46,1015.4 1756.52,1020.81 1770.59,1026.03 1784.66,1031.08 1798.73,1035.97 1812.8,1040.71 1826.86,1045.29 1840.93,1049.74 1855,1054.06 1869.07,1058.24 1883.13,1062.31 1897.2,1066.27 1911.27,1070.12 1925.34,1073.87 1939.4,1077.53 1953.47,1081.09 1967.54,1084.58 1981.61,1087.99 1995.68,1091.32 2009.74,1094.59 2023.81,1097.79 2037.88,1100.92 2051.95,1104 2066.01,1107.03 2080.08,1110 2094.15,1112.93 2108.22,1115.8 2122.28,1118.63 2136.35,1121.42 2150.42,1124.16 2164.49,1126.86 2178.56,1129.53 2192.62,1132.16 2206.69,1134.76 2220.76,1137.32 2234.83,1139.84 2248.89,1142.33 2262.96,1144.79 2277.03,1147.22 2291.1,1149.06 "/>
<polyline clip-path="url(#clip272)" style="stroke:#e26f46; stroke-linecap:round; stroke-linejoin:round; stroke-width:8; stroke-opacity:1; fill:none" points="237.214,712.907 251.282,1051.91 265.35,1055.18 279.417,1058.41 293.485,1061.48 307.553,1064.44 321.621,1067.3 335.688,1070.01 349.756,1072.67 363.824,1075.33 377.891,1077.96 391.959,1080.48 406.027,1082.87 420.094,1085.11 434.162,1087.23 448.23,1089.27 462.297,1091.32 476.365,1093.33 490.433,1095.23 504.5,1097 518.568,1098.63 532.636,1100.13 546.704,1101.55 560.771,1102.97 574.839,1104.35 588.907,1105.63 602.974,1106.77 617.042,1107.77 631.11,1108.64 645.177,1109.43 659.245,1110.22 673.313,1110.97 687.38,1111.61 701.448,1112.12 715.516,1112.49 729.584,1112.73 743.651,1112.89 757.719,1113.05 771.787,1113.18 785.854,1113.2 799.922,1113.09 813.99,1112.84 828.057,1112.48 842.125,1112.04 856.193,1111.6 870.26,1111.14 884.328,1110.59 898.396,1109.91 912.464,1109.11 926.531,1108.19 940.599,1107.22 954.667,1106.27 968.734,1105.31 982.802,1104.27 996.87,1103.13 1010.94,1101.88 1025.01,1100.54 1039.07,1099.16 1053.14,1097.83 1067.21,1096.52 1081.28,1095.15 1095.34,1093.72 1109.41,1092.2 1123.48,1090.62 1137.55,1089.03 1151.61,1087.53 1165.68,1086.07 1179.75,1084.61 1193.82,1083.11 1207.89,1081.57 1221.95,1080 1236.02,1078.46 1250.09,1077.03 1264.16,1075.71 1278.22,1074.43 1292.29,1073.15 1306.36,1071.86 1320.43,1070.58 1334.49,1069.37 1348.56,1068.3 1362.63,1067.38 1376.7,1066.55 1390.77,1065.76 1404.83,1065 1418.9,1064.28 1432.97,1063.64 1447.04,1063.16 1461.1,1062.88 1475.17,1062.71 1489.24,1062.62 1503.31,1062.58 1517.37,1062.59 1531.44,1062.69 1545.51,1062.93 1559.58,1063.38 1573.64,1063.97 1587.71,1064.66 1601.78,1065.4 1615.85,1066.18 1629.92,1067.04 1643.98,1067.99 1658.05,1069.12 1672.12,1070.41 1686.19,1071.8 1700.25,1073.23 1714.32,1074.69 1728.39,1076.19 1742.46,1077.73 1756.52,1079.38 1770.59,1081.18 1784.66,1083.07 1798.73,1085 1812.8,1086.95 1826.86,1088.89 1840.93,1090.84 1855,1092.81 1869.07,1094.87 1883.13,1097.03 1897.2,1099.24 1911.27,1101.45 1925.34,1103.64 1939.4,1105.8 1953.47,1107.95 1967.54,1110.1 1981.61,1112.3 1995.68,1114.57 2009.74,1116.86 2023.81,1119.15 2037.88,1121.39 2051.95,1123.6 2066.01,1125.77 2080.08,1127.93 2094.15,1130.1 2108.22,1132.33 2122.28,1134.58 2136.35,1136.82 2150.42,1139.02 2164.49,1141.18 2178.56,1143.3 2192.62,1145.39 2206.69,1147.46 2220.76,1149.57 2234.83,1151.7 2248.89,1153.84 2262.96,1155.96 2277.03,1158.04 2291.1,1159.53 "/>
<polyline clip-path="url(#clip272)" style="stroke:#3da44d; stroke-linecap:round; stroke-linejoin:round; stroke-width:8; stroke-opacity:1; fill:none" points="237.214,1386.4 251.282,1053.19 265.35,1056.39 279.417,1059.47 293.485,1062.53 307.553,1065.53 321.621,1068.45 335.688,1071.35 349.756,1074.13 363.824,1076.74 377.891,1079.2 391.959,1081.6 406.027,1083.96 420.094,1086.29 434.162,1088.57 448.23,1090.75 462.297,1092.75 476.365,1094.61 490.433,1096.39 504.5,1098.14 518.568,1099.85 532.636,1101.51 546.704,1103.07 560.771,1104.45 574.839,1105.7 588.907,1106.86 602.974,1107.98 617.042,1109.07 631.11,1110.1 645.177,1111.03 659.245,1111.79 673.313,1112.4 687.38,1112.94 701.448,1113.43 715.516,1113.89 729.584,1114.29 743.651,1114.59 757.719,1114.73 771.787,1114.72 785.854,1114.64 799.922,1114.52 813.99,1114.36 828.057,1114.16 842.125,1113.86 856.193,1113.4 870.26,1112.81 884.328,1112.15 898.396,1111.46 912.464,1110.75 926.531,1110.01 940.599,1109.18 954.667,1108.2 968.734,1107.11 982.802,1105.96 996.87,1104.81 1010.94,1103.65 1025.01,1102.48 1039.07,1101.25 1053.14,1099.89 1067.21,1098.44 1081.28,1096.96 1095.34,1095.5 1109.41,1094.07 1123.48,1092.66 1137.55,1091.22 1151.61,1089.69 1165.68,1088.09 1179.75,1086.5 1193.82,1084.96 1207.89,1083.49 1221.95,1082.09 1236.02,1080.7 1250.09,1079.25 1264.16,1077.77 1278.22,1076.34 1292.29,1075 1306.36,1073.77 1320.43,1072.64 1334.49,1071.58 1348.56,1070.51 1362.63,1069.43 1376.7,1068.43 1390.77,1067.55 1404.83,1066.82 1418.9,1066.23 1432.97,1065.75 1447.04,1065.3 1461.1,1064.87 1475.17,1064.52 1489.24,1064.3 1503.31,1064.25 1517.37,1064.36 1531.44,1064.61 1545.51,1064.93 1559.58,1065.27 1573.64,1065.67 1587.71,1066.2 1601.78,1066.89 1615.85,1067.73 1629.92,1068.71 1643.98,1069.79 1658.05,1070.89 1672.12,1072.01 1686.19,1073.22 1700.25,1074.55 1714.32,1076.01 1728.39,1077.6 1742.46,1079.28 1756.52,1081 1770.59,1082.7 1784.66,1084.42 1798.73,1086.21 1812.8,1088.09 1826.86,1090.07 1840.93,1092.12 1855,1094.22 1869.07,1096.31 1883.13,1098.36 1897.2,1100.41 1911.27,1102.5 1925.34,1104.65 1939.4,1106.86 1953.47,1109.11 1967.54,1111.37 1981.61,1113.61 1995.68,1115.78 2009.74,1117.93 2023.81,1120.1 2037.88,1122.3 2051.95,1124.54 2066.01,1126.8 2080.08,1129.07 2094.15,1131.3 2108.22,1133.47 2122.28,1135.6 2136.35,1137.72 2150.42,1139.86 2164.49,1142.02 2178.56,1144.19 2192.62,1146.37 2206.69,1148.54 2220.76,1150.66 2234.83,1152.71 2248.89,1154.74 2262.96,1156.77 2277.03,1158.8 2291.1,1160.44 "/>
<circle clip-path="url(#clip272)" cx="235.808" cy="1042.45" r="18" fill="#c271d2" fill-rule="evenodd" fill-opacity="1" stroke="#000000" stroke-opacity="1" stroke-width="3.2"/>
<circle clip-path="url(#clip272)" cx="419.157" cy="1088.75" r="18" fill="#c271d2" fill-rule="evenodd" fill-opacity="1" stroke="#000000" stroke-opacity="1" stroke-width="3.2"/>
<circle clip-path="url(#clip272)" cx="715.75" cy="1118.52" r="18" fill="#c271d2" fill-rule="evenodd" fill-opacity="1" stroke="#000000" stroke-opacity="1" stroke-width="3.2"/>
<circle clip-path="url(#clip272)" cx="820.086" cy="1138.36" r="18" fill="#c271d2" fill-rule="evenodd" fill-opacity="1" stroke="#000000" stroke-opacity="1" stroke-width="3.2"/>
<circle clip-path="url(#clip272)" cx="884.563" cy="1111.9" r="18" fill="#c271d2" fill-rule="evenodd" fill-opacity="1" stroke="#000000" stroke-opacity="1" stroke-width="3.2"/>
<circle clip-path="url(#clip272)" cx="1059.71" cy="1065.6" r="18" fill="#c271d2" fill-rule="evenodd" fill-opacity="1" stroke="#000000" stroke-opacity="1" stroke-width="3.2"/>
<circle clip-path="url(#clip272)" cx="1662.97" cy="1088.75" r="18" fill="#c271d2" fill-rule="evenodd" fill-opacity="1" stroke="#000000" stroke-opacity="1" stroke-width="3.2"/>
<circle clip-path="url(#clip272)" cx="1682.9" cy="1078.83" r="18" fill="#c271d2" fill-rule="evenodd" fill-opacity="1" stroke="#000000" stroke-opacity="1" stroke-width="3.2"/>
<circle clip-path="url(#clip272)" cx="2133.07" cy="1128.44" r="18" fill="#c271d2" fill-rule="evenodd" fill-opacity="1" stroke="#000000" stroke-opacity="1" stroke-width="3.2"/>
<path clip-path="url(#clip270)" d="M1712.9 425.996 L2280.14 425.996 L2280.14 166.796 L1712.9 166.796  Z" fill="#ffffff" fill-rule="evenodd" fill-opacity="1"/>
<polyline clip-path="url(#clip270)" style="stroke:#000000; stroke-linecap:round; stroke-linejoin:round; stroke-width:4; stroke-opacity:1; fill:none" points="1712.9,425.996 2280.14,425.996 2280.14,166.796 1712.9,166.796 1712.9,425.996 "/>
<polyline clip-path="url(#clip270)" style="stroke:#009af9; stroke-linecap:round; stroke-linejoin:round; stroke-width:8; stroke-opacity:1; fill:none" points="1737.11,218.636 1882.35,218.636 "/>
<path clip-path="url(#clip270)" d="M1928.8 202.49 L1928.8 207.05 Q1926.14 205.777 1923.78 205.152 Q1921.42 204.527 1919.22 204.527 Q1915.4 204.527 1913.32 206.008 Q1911.25 207.49 1911.25 210.221 Q1911.25 212.513 1912.62 213.694 Q1914.01 214.851 1917.85 215.569 L1920.68 216.147 Q1925.91 217.143 1928.38 219.666 Q1930.88 222.166 1930.88 226.379 Q1930.88 231.402 1927.5 233.994 Q1924.15 236.587 1917.64 236.587 Q1915.19 236.587 1912.41 236.031 Q1909.66 235.476 1906.69 234.388 L1906.69 229.573 Q1909.54 231.17 1912.27 231.981 Q1915 232.791 1917.64 232.791 Q1921.65 232.791 1923.82 231.217 Q1926 229.643 1926 226.726 Q1926 224.18 1924.43 222.744 Q1922.88 221.309 1919.31 220.592 L1916.46 220.036 Q1911.23 218.995 1908.89 216.772 Q1906.56 214.55 1906.56 210.592 Q1906.56 206.008 1909.77 203.37 Q1913.01 200.731 1918.69 200.731 Q1921.12 200.731 1923.64 201.171 Q1926.16 201.61 1928.8 202.49 Z" fill="#000000" fill-rule="nonzero" fill-opacity="1" /><path clip-path="url(#clip270)" d="M1949.77 222.883 Q1944.61 222.883 1942.62 224.064 Q1940.63 225.244 1940.63 228.092 Q1940.63 230.36 1942.11 231.703 Q1943.62 233.022 1946.19 233.022 Q1949.73 233.022 1951.86 230.522 Q1954.01 227.999 1954.01 223.832 L1954.01 222.883 L1949.77 222.883 M1958.27 221.124 L1958.27 235.916 L1954.01 235.916 L1954.01 231.981 Q1952.55 234.342 1950.38 235.476 Q1948.2 236.587 1945.05 236.587 Q1941.07 236.587 1938.71 234.365 Q1936.37 232.119 1936.37 228.369 Q1936.37 223.994 1939.29 221.772 Q1942.23 219.55 1948.04 219.55 L1954.01 219.55 L1954.01 219.133 Q1954.01 216.194 1952.06 214.596 Q1950.14 212.976 1946.65 212.976 Q1944.43 212.976 1942.32 213.508 Q1940.21 214.041 1938.27 215.106 L1938.27 211.17 Q1940.61 210.268 1942.81 209.828 Q1945 209.365 1947.09 209.365 Q1952.71 209.365 1955.49 212.282 Q1958.27 215.198 1958.27 221.124 Z" fill="#000000" fill-rule="nonzero" fill-opacity="1" /><path clip-path="url(#clip270)" d="M1982.06 213.971 Q1981.35 213.555 1980.49 213.37 Q1979.66 213.161 1978.64 213.161 Q1975.03 213.161 1973.08 215.522 Q1971.16 217.86 1971.16 222.258 L1971.16 235.916 L1966.88 235.916 L1966.88 209.99 L1971.16 209.99 L1971.16 214.018 Q1972.5 211.657 1974.66 210.522 Q1976.81 209.365 1979.89 209.365 Q1980.33 209.365 1980.86 209.434 Q1981.39 209.481 1982.04 209.596 L1982.06 213.971 Z" fill="#000000" fill-rule="nonzero" fill-opacity="1" /><path clip-path="url(#clip270)" d="M2004.15 210.985 L2004.15 214.967 Q2002.34 213.971 2000.51 213.485 Q1998.71 212.976 1996.86 212.976 Q1992.71 212.976 1990.42 215.615 Q1988.13 218.231 1988.13 222.976 Q1988.13 227.721 1990.42 230.36 Q1992.71 232.976 1996.86 232.976 Q1998.71 232.976 2000.51 232.49 Q2002.34 231.981 2004.15 230.985 L2004.15 234.92 Q2002.37 235.754 2000.44 236.17 Q1998.55 236.587 1996.39 236.587 Q1990.54 236.587 1987.09 232.906 Q1983.64 229.226 1983.64 222.976 Q1983.64 216.633 1987.11 212.999 Q1990.61 209.365 1996.67 209.365 Q1998.64 209.365 2000.51 209.782 Q2002.39 210.175 2004.15 210.985 Z" fill="#000000" fill-rule="nonzero" fill-opacity="1" /><path clip-path="url(#clip270)" d="M2021.6 212.976 Q2018.18 212.976 2016.18 215.661 Q2014.19 218.323 2014.19 222.976 Q2014.19 227.629 2016.16 230.314 Q2018.15 232.976 2021.6 232.976 Q2025 232.976 2026.99 230.291 Q2028.99 227.606 2028.99 222.976 Q2028.99 218.37 2026.99 215.684 Q2025 212.976 2021.6 212.976 M2021.6 209.365 Q2027.16 209.365 2030.33 212.976 Q2033.5 216.587 2033.5 222.976 Q2033.5 229.342 2030.33 232.976 Q2027.16 236.587 2021.6 236.587 Q2016.02 236.587 2012.85 232.976 Q2009.7 229.342 2009.7 222.976 Q2009.7 216.587 2012.85 212.976 Q2016.02 209.365 2021.6 209.365 Z" fill="#000000" fill-rule="nonzero" fill-opacity="1" /><path clip-path="url(#clip270)" d="M2060.74 214.967 Q2062.34 212.096 2064.56 210.731 Q2066.79 209.365 2069.8 209.365 Q2073.85 209.365 2076.05 212.212 Q2078.24 215.036 2078.24 220.268 L2078.24 235.916 L2073.96 235.916 L2073.96 220.407 Q2073.96 216.68 2072.64 214.874 Q2071.32 213.069 2068.62 213.069 Q2065.3 213.069 2063.38 215.268 Q2061.46 217.467 2061.46 221.263 L2061.46 235.916 L2057.18 235.916 L2057.18 220.407 Q2057.18 216.657 2055.86 214.874 Q2054.54 213.069 2051.79 213.069 Q2048.52 213.069 2046.6 215.291 Q2044.68 217.49 2044.68 221.263 L2044.68 235.916 L2040.4 235.916 L2040.4 209.99 L2044.68 209.99 L2044.68 214.018 Q2046.14 211.633 2048.18 210.499 Q2050.21 209.365 2053.01 209.365 Q2055.84 209.365 2057.8 210.8 Q2059.8 212.235 2060.74 214.967 Z" fill="#000000" fill-rule="nonzero" fill-opacity="1" /><path clip-path="url(#clip270)" d="M2108.92 221.888 L2108.92 223.971 L2089.33 223.971 Q2089.61 228.369 2091.97 230.684 Q2094.36 232.976 2098.59 232.976 Q2101.05 232.976 2103.34 232.374 Q2105.65 231.772 2107.92 230.569 L2107.92 234.596 Q2105.63 235.568 2103.22 236.078 Q2100.81 236.587 2098.34 236.587 Q2092.13 236.587 2088.5 232.976 Q2084.89 229.365 2084.89 223.207 Q2084.89 216.842 2088.31 213.115 Q2091.76 209.365 2097.6 209.365 Q2102.83 209.365 2105.86 212.745 Q2108.92 216.101 2108.92 221.888 M2104.66 220.638 Q2104.61 217.143 2102.69 215.059 Q2100.79 212.976 2097.64 212.976 Q2094.08 212.976 2091.93 214.99 Q2089.8 217.004 2089.47 220.661 L2104.66 220.638 Z" fill="#000000" fill-rule="nonzero" fill-opacity="1" /><path clip-path="url(#clip270)" d="M2130.93 213.971 Q2130.21 213.555 2129.36 213.37 Q2128.52 213.161 2127.5 213.161 Q2123.89 213.161 2121.95 215.522 Q2120.03 217.86 2120.03 222.258 L2120.03 235.916 L2115.74 235.916 L2115.74 209.99 L2120.03 209.99 L2120.03 214.018 Q2121.37 211.657 2123.52 210.522 Q2125.67 209.365 2128.75 209.365 Q2129.19 209.365 2129.73 209.434 Q2130.26 209.481 2130.91 209.596 L2130.93 213.971 Z" fill="#000000" fill-rule="nonzero" fill-opacity="1" /><path clip-path="url(#clip270)" d="M2156.53 221.888 L2156.53 223.971 L2136.95 223.971 Q2137.23 228.369 2139.59 230.684 Q2141.97 232.976 2146.21 232.976 Q2148.66 232.976 2150.95 232.374 Q2153.27 231.772 2155.54 230.569 L2155.54 234.596 Q2153.24 235.568 2150.84 236.078 Q2148.43 236.587 2145.95 236.587 Q2139.75 236.587 2136.11 232.976 Q2132.5 229.365 2132.5 223.207 Q2132.5 216.842 2135.93 213.115 Q2139.38 209.365 2145.21 209.365 Q2150.44 209.365 2153.48 212.745 Q2156.53 216.101 2156.53 221.888 M2152.27 220.638 Q2152.23 217.143 2150.3 215.059 Q2148.41 212.976 2145.26 212.976 Q2141.69 212.976 2139.54 214.99 Q2137.41 217.004 2137.09 220.661 L2152.27 220.638 Z" fill="#000000" fill-rule="nonzero" fill-opacity="1" /><polyline clip-path="url(#clip270)" style="stroke:#e26f46; stroke-linecap:round; stroke-linejoin:round; stroke-width:8; stroke-opacity:1; fill:none" points="1737.11,270.476 1882.35,270.476 "/>
<path clip-path="url(#clip270)" d="M1934.43 255.858 L1934.43 260.788 Q1932.06 258.589 1929.38 257.501 Q1926.72 256.413 1923.71 256.413 Q1917.78 256.413 1914.63 260.048 Q1911.49 263.659 1911.49 270.51 Q1911.49 277.339 1914.63 280.973 Q1917.78 284.584 1923.71 284.584 Q1926.72 284.584 1929.38 283.496 Q1932.06 282.409 1934.43 280.209 L1934.43 285.094 Q1931.97 286.76 1929.22 287.594 Q1926.49 288.427 1923.43 288.427 Q1915.58 288.427 1911.07 283.635 Q1906.56 278.821 1906.56 270.51 Q1906.56 262.177 1911.07 257.386 Q1915.58 252.571 1923.43 252.571 Q1926.53 252.571 1929.26 253.404 Q1932.02 254.214 1934.43 255.858 Z" fill="#000000" fill-rule="nonzero" fill-opacity="1" /><path clip-path="url(#clip270)" d="M1952.25 290.163 Q1950.44 294.793 1948.73 296.205 Q1947.02 297.617 1944.15 297.617 L1940.75 297.617 L1940.75 294.052 L1943.25 294.052 Q1945 294.052 1945.98 293.219 Q1946.95 292.385 1948.13 289.283 L1948.89 287.339 L1938.41 261.83 L1942.92 261.83 L1951.02 282.108 L1959.12 261.83 L1963.64 261.83 L1952.25 290.163 Z" fill="#000000" fill-rule="nonzero" fill-opacity="1" /><path clip-path="url(#clip270)" d="M1973.73 254.469 L1973.73 261.83 L1982.5 261.83 L1982.5 265.14 L1973.73 265.14 L1973.73 279.214 Q1973.73 282.385 1974.59 283.288 Q1975.47 284.191 1978.13 284.191 L1982.5 284.191 L1982.5 287.756 L1978.13 287.756 Q1973.2 287.756 1971.32 285.927 Q1969.45 284.075 1969.45 279.214 L1969.45 265.14 L1966.32 265.14 L1966.32 261.83 L1969.45 261.83 L1969.45 254.469 L1973.73 254.469 Z" fill="#000000" fill-rule="nonzero" fill-opacity="1" /><path clip-path="url(#clip270)" d="M1998.15 264.816 Q1994.73 264.816 1992.74 267.501 Q1990.75 270.163 1990.75 274.816 Q1990.75 279.469 1992.71 282.154 Q1994.7 284.816 1998.15 284.816 Q2001.56 284.816 2003.55 282.131 Q2005.54 279.446 2005.54 274.816 Q2005.54 270.21 2003.55 267.524 Q2001.56 264.816 1998.15 264.816 M1998.15 261.205 Q2003.71 261.205 2006.88 264.816 Q2010.05 268.427 2010.05 274.816 Q2010.05 281.182 2006.88 284.816 Q2003.71 288.427 1998.15 288.427 Q1992.57 288.427 1989.4 284.816 Q1986.25 281.182 1986.25 274.816 Q1986.25 268.427 1989.4 264.816 Q1992.57 261.205 1998.15 261.205 Z" fill="#000000" fill-rule="nonzero" fill-opacity="1" /><path clip-path="url(#clip270)" d="M2033.64 262.594 L2033.64 266.622 Q2031.83 265.696 2029.89 265.233 Q2027.94 264.77 2025.86 264.77 Q2022.69 264.77 2021.09 265.742 Q2019.52 266.714 2019.52 268.659 Q2019.52 270.14 2020.65 270.997 Q2021.79 271.83 2025.21 272.594 L2026.67 272.918 Q2031.21 273.89 2033.11 275.672 Q2035.03 277.432 2035.03 280.603 Q2035.03 284.214 2032.16 286.321 Q2029.31 288.427 2024.31 288.427 Q2022.23 288.427 2019.96 288.01 Q2017.71 287.617 2015.21 286.807 L2015.21 282.409 Q2017.57 283.635 2019.87 284.26 Q2022.16 284.862 2024.4 284.862 Q2027.41 284.862 2029.03 283.844 Q2030.65 282.802 2030.65 280.927 Q2030.65 279.191 2029.47 278.265 Q2028.31 277.339 2024.36 276.483 L2022.87 276.135 Q2018.92 275.302 2017.16 273.589 Q2015.4 271.853 2015.4 268.844 Q2015.4 265.186 2017.99 263.196 Q2020.58 261.205 2025.35 261.205 Q2027.71 261.205 2029.8 261.552 Q2031.88 261.899 2033.64 262.594 Z" fill="#000000" fill-rule="nonzero" fill-opacity="1" /><path clip-path="url(#clip270)" d="M2051.86 264.816 Q2048.43 264.816 2046.44 267.501 Q2044.45 270.163 2044.45 274.816 Q2044.45 279.469 2046.42 282.154 Q2048.41 284.816 2051.86 284.816 Q2055.26 284.816 2057.25 282.131 Q2059.24 279.446 2059.24 274.816 Q2059.24 270.21 2057.25 267.524 Q2055.26 264.816 2051.86 264.816 M2051.86 261.205 Q2057.41 261.205 2060.58 264.816 Q2063.75 268.427 2063.75 274.816 Q2063.75 281.182 2060.58 284.816 Q2057.41 288.427 2051.86 288.427 Q2046.28 288.427 2043.11 284.816 Q2039.96 281.182 2039.96 274.816 Q2039.96 268.427 2043.11 264.816 Q2046.28 261.205 2051.86 261.205 Z" fill="#000000" fill-rule="nonzero" fill-opacity="1" /><path clip-path="url(#clip270)" d="M2070.81 251.737 L2075.07 251.737 L2075.07 287.756 L2070.81 287.756 L2070.81 251.737 Z" fill="#000000" fill-rule="nonzero" fill-opacity="1" /><polyline clip-path="url(#clip270)" style="stroke:#3da44d; stroke-linecap:round; stroke-linejoin:round; stroke-width:8; stroke-opacity:1; fill:none" points="1737.11,322.316 1882.35,322.316 "/>
<path clip-path="url(#clip270)" d="M1911.23 323.091 L1911.23 335.753 L1918.73 335.753 Q1922.5 335.753 1924.31 334.202 Q1926.14 332.628 1926.14 329.411 Q1926.14 326.17 1924.31 324.642 Q1922.5 323.091 1918.73 323.091 L1911.23 323.091 M1911.23 308.878 L1911.23 319.295 L1918.15 319.295 Q1921.58 319.295 1923.25 318.022 Q1924.94 316.725 1924.94 314.087 Q1924.94 311.471 1923.25 310.175 Q1921.58 308.878 1918.15 308.878 L1911.23 308.878 M1906.56 305.036 L1918.5 305.036 Q1923.85 305.036 1926.74 307.258 Q1929.63 309.48 1929.63 313.577 Q1929.63 316.749 1928.15 318.624 Q1926.67 320.499 1923.8 320.962 Q1927.25 321.702 1929.15 324.063 Q1931.07 326.401 1931.07 329.92 Q1931.07 334.549 1927.92 337.073 Q1924.77 339.596 1918.96 339.596 L1906.56 339.596 L1906.56 305.036 Z" fill="#000000" fill-rule="nonzero" fill-opacity="1" /><path clip-path="url(#clip270)" d="M1938.89 303.577 L1943.15 303.577 L1943.15 339.596 L1938.89 339.596 L1938.89 303.577 Z" fill="#000000" fill-rule="nonzero" fill-opacity="1" /><path clip-path="url(#clip270)" d="M1962.11 316.656 Q1958.69 316.656 1956.69 319.341 Q1954.7 322.003 1954.7 326.656 Q1954.7 331.309 1956.67 333.994 Q1958.66 336.656 1962.11 336.656 Q1965.51 336.656 1967.5 333.971 Q1969.5 331.286 1969.5 326.656 Q1969.5 322.05 1967.5 319.364 Q1965.51 316.656 1962.11 316.656 M1962.11 313.045 Q1967.67 313.045 1970.84 316.656 Q1974.01 320.267 1974.01 326.656 Q1974.01 333.022 1970.84 336.656 Q1967.67 340.267 1962.11 340.267 Q1956.53 340.267 1953.36 336.656 Q1950.21 333.022 1950.21 326.656 Q1950.21 320.267 1953.36 316.656 Q1956.53 313.045 1962.11 313.045 Z" fill="#000000" fill-rule="nonzero" fill-opacity="1" /><path clip-path="url(#clip270)" d="M1991.12 316.656 Q1987.69 316.656 1985.7 319.341 Q1983.71 322.003 1983.71 326.656 Q1983.71 331.309 1985.68 333.994 Q1987.67 336.656 1991.12 336.656 Q1994.52 336.656 1996.51 333.971 Q1998.5 331.286 1998.5 326.656 Q1998.5 322.05 1996.51 319.364 Q1994.52 316.656 1991.12 316.656 M1991.12 313.045 Q1996.67 313.045 1999.84 316.656 Q2003.01 320.267 2003.01 326.656 Q2003.01 333.022 1999.84 336.656 Q1996.67 340.267 1991.12 340.267 Q1985.54 340.267 1982.37 336.656 Q1979.22 333.022 1979.22 326.656 Q1979.22 320.267 1982.37 316.656 Q1985.54 313.045 1991.12 313.045 Z" fill="#000000" fill-rule="nonzero" fill-opacity="1" /><path clip-path="url(#clip270)" d="M2027.13 317.605 L2027.13 303.577 L2031.39 303.577 L2031.39 339.596 L2027.13 339.596 L2027.13 335.707 Q2025.79 338.022 2023.73 339.156 Q2021.69 340.267 2018.82 340.267 Q2014.12 340.267 2011.16 336.517 Q2008.22 332.767 2008.22 326.656 Q2008.22 320.545 2011.16 316.795 Q2014.12 313.045 2018.82 313.045 Q2021.69 313.045 2023.73 314.179 Q2025.79 315.29 2027.13 317.605 M2012.62 326.656 Q2012.62 331.355 2014.54 334.04 Q2016.49 336.702 2019.87 336.702 Q2023.24 336.702 2025.19 334.04 Q2027.13 331.355 2027.13 326.656 Q2027.13 321.957 2025.19 319.295 Q2023.24 316.61 2019.87 316.61 Q2016.49 316.61 2014.54 319.295 Q2012.62 321.957 2012.62 326.656 Z" fill="#000000" fill-rule="nonzero" fill-opacity="1" /><circle clip-path="url(#clip270)" cx="1809.73" cy="374.156" r="20.9455" fill="#c271d2" fill-rule="evenodd" fill-opacity="1" stroke="#000000" stroke-opacity="1" stroke-width="3.72364"/>
<path clip-path="url(#clip270)" d="M1922.57 360.047 Q1917.48 360.047 1914.47 363.843 Q1911.49 367.64 1911.49 374.19 Q1911.49 380.718 1914.47 384.514 Q1917.48 388.311 1922.57 388.311 Q1927.67 388.311 1930.63 384.514 Q1933.62 380.718 1933.62 374.19 Q1933.62 367.64 1930.63 363.843 Q1927.67 360.047 1922.57 360.047 M1922.57 356.251 Q1929.84 356.251 1934.19 361.135 Q1938.55 365.996 1938.55 374.19 Q1938.55 382.362 1934.19 387.246 Q1929.84 392.107 1922.57 392.107 Q1915.28 392.107 1910.91 387.246 Q1906.56 382.385 1906.56 374.19 Q1906.56 365.996 1910.91 361.135 Q1915.28 356.251 1922.57 356.251 Z" fill="#000000" fill-rule="nonzero" fill-opacity="1" /><path clip-path="url(#clip270)" d="M1964.29 378.496 Q1964.29 373.797 1962.34 371.135 Q1960.42 368.45 1957.04 368.45 Q1953.66 368.45 1951.72 371.135 Q1949.8 373.797 1949.8 378.496 Q1949.8 383.195 1951.72 385.88 Q1953.66 388.542 1957.04 388.542 Q1960.42 388.542 1962.34 385.88 Q1964.29 383.195 1964.29 378.496 M1949.8 369.445 Q1951.14 367.13 1953.18 366.019 Q1955.24 364.885 1958.08 364.885 Q1962.81 364.885 1965.75 368.635 Q1968.71 372.385 1968.71 378.496 Q1968.71 384.607 1965.75 388.357 Q1962.81 392.107 1958.08 392.107 Q1955.24 392.107 1953.18 390.996 Q1951.14 389.862 1949.8 387.547 L1949.8 391.436 L1945.51 391.436 L1945.51 355.417 L1949.8 355.417 L1949.8 369.445 Z" fill="#000000" fill-rule="nonzero" fill-opacity="1" /><path clip-path="url(#clip270)" d="M1992.3 366.274 L1992.3 370.302 Q1990.49 369.376 1988.55 368.913 Q1986.6 368.45 1984.52 368.45 Q1981.35 368.45 1979.75 369.422 Q1978.18 370.394 1978.18 372.339 Q1978.18 373.82 1979.31 374.677 Q1980.44 375.51 1983.87 376.274 L1985.33 376.598 Q1989.87 377.57 1991.76 379.352 Q1993.68 381.112 1993.68 384.283 Q1993.68 387.894 1990.81 390.001 Q1987.97 392.107 1982.97 392.107 Q1980.88 392.107 1978.62 391.69 Q1976.37 391.297 1973.87 390.487 L1973.87 386.089 Q1976.23 387.315 1978.52 387.94 Q1980.81 388.542 1983.06 388.542 Q1986.07 388.542 1987.69 387.524 Q1989.31 386.482 1989.31 384.607 Q1989.31 382.871 1988.13 381.945 Q1986.97 381.019 1983.01 380.163 L1981.53 379.815 Q1977.57 378.982 1975.81 377.269 Q1974.06 375.533 1974.06 372.524 Q1974.06 368.866 1976.65 366.876 Q1979.24 364.885 1984.01 364.885 Q1986.37 364.885 1988.45 365.232 Q1990.54 365.579 1992.3 366.274 Z" fill="#000000" fill-rule="nonzero" fill-opacity="1" /><path clip-path="url(#clip270)" d="M2022.64 377.408 L2022.64 379.491 L2003.06 379.491 Q2003.34 383.889 2005.7 386.204 Q2008.08 388.496 2012.32 388.496 Q2014.77 388.496 2017.06 387.894 Q2019.38 387.292 2021.65 386.089 L2021.65 390.116 Q2019.36 391.088 2016.95 391.598 Q2014.54 392.107 2012.06 392.107 Q2005.86 392.107 2002.23 388.496 Q1998.62 384.885 1998.62 378.727 Q1998.62 372.362 2002.04 368.635 Q2005.49 364.885 2011.32 364.885 Q2016.56 364.885 2019.59 368.265 Q2022.64 371.621 2022.64 377.408 M2018.38 376.158 Q2018.34 372.663 2016.42 370.579 Q2014.52 368.496 2011.37 368.496 Q2007.81 368.496 2005.65 370.51 Q2003.52 372.524 2003.2 376.181 L2018.38 376.158 Z" fill="#000000" fill-rule="nonzero" fill-opacity="1" /><path clip-path="url(#clip270)" d="M2044.66 369.491 Q2043.94 369.075 2043.08 368.89 Q2042.25 368.681 2041.23 368.681 Q2037.62 368.681 2035.68 371.042 Q2033.75 373.38 2033.75 377.778 L2033.75 391.436 L2029.47 391.436 L2029.47 365.51 L2033.75 365.51 L2033.75 369.538 Q2035.1 367.177 2037.25 366.042 Q2039.4 364.885 2042.48 364.885 Q2042.92 364.885 2043.45 364.954 Q2043.99 365.001 2044.63 365.116 L2044.66 369.491 Z" fill="#000000" fill-rule="nonzero" fill-opacity="1" /><path clip-path="url(#clip270)" d="M2046.07 365.51 L2050.58 365.51 L2058.68 387.269 L2066.79 365.51 L2071.3 365.51 L2061.58 391.436 L2055.79 391.436 L2046.07 365.51 Z" fill="#000000" fill-rule="nonzero" fill-opacity="1" /><path clip-path="url(#clip270)" d="M2099.36 377.408 L2099.36 379.491 L2079.77 379.491 Q2080.05 383.889 2082.41 386.204 Q2084.8 388.496 2089.03 388.496 Q2091.49 388.496 2093.78 387.894 Q2096.09 387.292 2098.36 386.089 L2098.36 390.116 Q2096.07 391.088 2093.66 391.598 Q2091.25 392.107 2088.78 392.107 Q2082.57 392.107 2078.94 388.496 Q2075.33 384.885 2075.33 378.727 Q2075.33 372.362 2078.75 368.635 Q2082.2 364.885 2088.04 364.885 Q2093.27 364.885 2096.3 368.265 Q2099.36 371.621 2099.36 377.408 M2095.1 376.158 Q2095.05 372.663 2093.13 370.579 Q2091.23 368.496 2088.08 368.496 Q2084.52 368.496 2082.37 370.51 Q2080.24 372.524 2079.91 376.181 L2095.1 376.158 Z" fill="#000000" fill-rule="nonzero" fill-opacity="1" /><path clip-path="url(#clip270)" d="M2123.41 369.445 L2123.41 355.417 L2127.67 355.417 L2127.67 391.436 L2123.41 391.436 L2123.41 387.547 Q2122.06 389.862 2120 390.996 Q2117.97 392.107 2115.1 392.107 Q2110.4 392.107 2107.43 388.357 Q2104.49 384.607 2104.49 378.496 Q2104.49 372.385 2107.43 368.635 Q2110.4 364.885 2115.1 364.885 Q2117.97 364.885 2120 366.019 Q2122.06 367.13 2123.41 369.445 M2108.89 378.496 Q2108.89 383.195 2110.81 385.88 Q2112.76 388.542 2116.14 388.542 Q2119.52 388.542 2121.46 385.88 Q2123.41 383.195 2123.41 378.496 Q2123.41 373.797 2121.46 371.135 Q2119.52 368.45 2116.14 368.45 Q2112.76 368.45 2110.81 371.135 Q2108.89 373.797 2108.89 378.496 Z" fill="#000000" fill-rule="nonzero" fill-opacity="1" /><path clip-path="url(#clip270)" d="M2156.37 360.718 L2156.37 387.593 L2162.02 387.593 Q2169.17 387.593 2172.48 384.352 Q2175.81 381.112 2175.81 374.121 Q2175.81 367.177 2172.48 363.959 Q2169.17 360.718 2162.02 360.718 L2156.37 360.718 M2151.69 356.876 L2161.3 356.876 Q2171.35 356.876 2176.05 361.066 Q2180.74 365.232 2180.74 374.121 Q2180.74 383.056 2176.02 387.246 Q2171.3 391.436 2161.3 391.436 L2151.69 391.436 L2151.69 356.876 Z" fill="#000000" fill-rule="nonzero" fill-opacity="1" /><path clip-path="url(#clip270)" d="M2199.79 378.403 Q2194.63 378.403 2192.64 379.584 Q2190.65 380.764 2190.65 383.612 Q2190.65 385.88 2192.13 387.223 Q2193.64 388.542 2196.21 388.542 Q2199.75 388.542 2201.88 386.042 Q2204.03 383.519 2204.03 379.352 L2204.03 378.403 L2199.79 378.403 M2208.29 376.644 L2208.29 391.436 L2204.03 391.436 L2204.03 387.501 Q2202.57 389.862 2200.4 390.996 Q2198.22 392.107 2195.07 392.107 Q2191.09 392.107 2188.73 389.885 Q2186.39 387.639 2186.39 383.889 Q2186.39 379.514 2189.31 377.292 Q2192.25 375.07 2198.06 375.07 L2204.03 375.07 L2204.03 374.653 Q2204.03 371.714 2202.09 370.116 Q2200.17 368.496 2196.67 368.496 Q2194.45 368.496 2192.34 369.028 Q2190.23 369.561 2188.29 370.626 L2188.29 366.69 Q2190.63 365.788 2192.83 365.348 Q2195.03 364.885 2197.11 364.885 Q2202.73 364.885 2205.51 367.802 Q2208.29 370.718 2208.29 376.644 Z" fill="#000000" fill-rule="nonzero" fill-opacity="1" /><path clip-path="url(#clip270)" d="M2221.28 358.149 L2221.28 365.51 L2230.05 365.51 L2230.05 368.82 L2221.28 368.82 L2221.28 382.894 Q2221.28 386.065 2222.13 386.968 Q2223.01 387.871 2225.67 387.871 L2230.05 387.871 L2230.05 391.436 L2225.67 391.436 Q2220.74 391.436 2218.87 389.607 Q2216.99 387.755 2216.99 382.894 L2216.99 368.82 L2213.87 368.82 L2213.87 365.51 L2216.99 365.51 L2216.99 358.149 L2221.28 358.149 Z" fill="#000000" fill-rule="nonzero" fill-opacity="1" /><path clip-path="url(#clip270)" d="M2247.43 378.403 Q2242.27 378.403 2240.28 379.584 Q2238.29 380.764 2238.29 383.612 Q2238.29 385.88 2239.77 387.223 Q2241.28 388.542 2243.85 388.542 Q2247.39 388.542 2249.52 386.042 Q2251.67 383.519 2251.67 379.352 L2251.67 378.403 L2247.43 378.403 M2255.93 376.644 L2255.93 391.436 L2251.67 391.436 L2251.67 387.501 Q2250.21 389.862 2248.04 390.996 Q2245.86 392.107 2242.71 392.107 Q2238.73 392.107 2236.37 389.885 Q2234.03 387.639 2234.03 383.889 Q2234.03 379.514 2236.95 377.292 Q2239.89 375.07 2245.7 375.07 L2251.67 375.07 L2251.67 374.653 Q2251.67 371.714 2249.73 370.116 Q2247.8 368.496 2244.31 368.496 Q2242.09 368.496 2239.98 369.028 Q2237.87 369.561 2235.93 370.626 L2235.93 366.69 Q2238.27 365.788 2240.47 365.348 Q2242.67 364.885 2244.75 364.885 Q2250.37 364.885 2253.15 367.802 Q2255.93 370.718 2255.93 376.644 Z" fill="#000000" fill-rule="nonzero" fill-opacity="1" /></svg>
