<?xml version="1.0" encoding="utf-8"?>
<svg xmlns="http://www.w3.org/2000/svg" xmlns:xlink="http://www.w3.org/1999/xlink" width="800" height="500" viewBox="0 0 3200 2000">
<defs>
  <clipPath id="clip330">
    <rect x="0" y="0" width="3200" height="2000"/>
  </clipPath>
</defs>
<path clip-path="url(#clip330)" d="M0 2000 L3200 2000 L3200 0 L0 0  Z" fill="#ffffff" fill-rule="evenodd" fill-opacity="1"/>
<defs>
  <clipPath id="clip331">
    <rect x="242" y="110" width="2849" height="1652"/>
  </clipPath>
</defs>
<path clip-path="url(#clip330)" d="M287.402 1761.32 L3089.76 1761.32 L3089.76 110.236 L287.402 110.236  Z" fill="#ffffff" fill-rule="evenodd" fill-opacity="1"/>
<defs>
  <clipPath id="clip332">
    <rect x="287" y="110" width="2803" height="1652"/>
  </clipPath>
</defs>
<polyline clip-path="url(#clip332)" style="stroke:#000000; stroke-linecap:round; stroke-linejoin:round; stroke-width:2; stroke-opacity:0.1; fill:none" points="366.714,1761.32 366.714,110.236 "/>
<polyline clip-path="url(#clip332)" style="stroke:#000000; stroke-linecap:round; stroke-linejoin:round; stroke-width:2; stroke-opacity:0.1; fill:none" points="1003.86,1761.32 1003.86,110.236 "/>
<polyline clip-path="url(#clip332)" style="stroke:#000000; stroke-linecap:round; stroke-linejoin:round; stroke-width:2; stroke-opacity:0.1; fill:none" points="1641.01,1761.32 1641.01,110.236 "/>
<polyline clip-path="url(#clip332)" style="stroke:#000000; stroke-linecap:round; stroke-linejoin:round; stroke-width:2; stroke-opacity:0.1; fill:none" points="2278.16,1761.32 2278.16,110.236 "/>
<polyline clip-path="url(#clip332)" style="stroke:#000000; stroke-linecap:round; stroke-linejoin:round; stroke-width:2; stroke-opacity:0.1; fill:none" points="2915.3,1761.32 2915.3,110.236 "/>
<polyline clip-path="url(#clip332)" style="stroke:#000000; stroke-linecap:round; stroke-linejoin:round; stroke-width:2; stroke-opacity:0.1; fill:none" points="287.402,1714.59 3089.76,1714.59 "/>
<polyline clip-path="url(#clip332)" style="stroke:#000000; stroke-linecap:round; stroke-linejoin:round; stroke-width:2; stroke-opacity:0.1; fill:none" points="287.402,1293.54 3089.76,1293.54 "/>
<polyline clip-path="url(#clip332)" style="stroke:#000000; stroke-linecap:round; stroke-linejoin:round; stroke-width:2; stroke-opacity:0.1; fill:none" points="287.402,872.494 3089.76,872.494 "/>
<polyline clip-path="url(#clip332)" style="stroke:#000000; stroke-linecap:round; stroke-linejoin:round; stroke-width:2; stroke-opacity:0.1; fill:none" points="287.402,451.447 3089.76,451.447 "/>
<polyline clip-path="url(#clip330)" style="stroke:#000000; stroke-linecap:round; stroke-linejoin:round; stroke-width:4; stroke-opacity:1; fill:none" points="287.402,1761.32 3089.76,1761.32 "/>
<polyline clip-path="url(#clip330)" style="stroke:#000000; stroke-linecap:round; stroke-linejoin:round; stroke-width:4; stroke-opacity:1; fill:none" points="366.714,1761.32 366.714,1742.42 "/>
<polyline clip-path="url(#clip330)" style="stroke:#000000; stroke-linecap:round; stroke-linejoin:round; stroke-width:4; stroke-opacity:1; fill:none" points="1003.86,1761.32 1003.86,1742.42 "/>
<polyline clip-path="url(#clip330)" style="stroke:#000000; stroke-linecap:round; stroke-linejoin:round; stroke-width:4; stroke-opacity:1; fill:none" points="1641.01,1761.32 1641.01,1742.42 "/>
<polyline clip-path="url(#clip330)" style="stroke:#000000; stroke-linecap:round; stroke-linejoin:round; stroke-width:4; stroke-opacity:1; fill:none" points="2278.16,1761.32 2278.16,1742.42 "/>
<polyline clip-path="url(#clip330)" style="stroke:#000000; stroke-linecap:round; stroke-linejoin:round; stroke-width:4; stroke-opacity:1; fill:none" points="2915.3,1761.32 2915.3,1742.42 "/>
<path clip-path="url(#clip330)" d="M366.714 1798.64 Q363.103 1798.64 361.275 1802.2 Q359.469 1805.74 359.469 1812.87 Q359.469 1819.98 361.275 1823.54 Q363.103 1827.09 366.714 1827.09 Q370.349 1827.09 372.154 1823.54 Q373.983 1819.98 373.983 1812.87 Q373.983 1805.74 372.154 1802.2 Q370.349 1798.64 366.714 1798.64 M366.714 1794.93 Q372.525 1794.93 375.58 1799.54 Q378.659 1804.12 378.659 1812.87 Q378.659 1821.6 375.58 1826.21 Q372.525 1830.79 366.714 1830.79 Q360.904 1830.79 357.826 1826.21 Q354.77 1821.6 354.77 1812.87 Q354.77 1804.12 357.826 1799.54 Q360.904 1794.93 366.714 1794.93 Z" fill="#000000" fill-rule="nonzero" fill-opacity="1" /><path clip-path="url(#clip330)" d="M983.133 1826.18 L999.452 1826.18 L999.452 1830.12 L977.508 1830.12 L977.508 1826.18 Q980.17 1823.43 984.753 1818.8 Q989.36 1814.15 990.54 1812.8 Q992.786 1810.28 993.665 1808.54 Q994.568 1806.78 994.568 1805.09 Q994.568 1802.34 992.624 1800.6 Q990.702 1798.87 987.6 1798.87 Q985.401 1798.87 982.948 1799.63 Q980.517 1800.4 977.739 1801.95 L977.739 1797.22 Q980.563 1796.09 983.017 1795.51 Q985.471 1794.93 987.508 1794.93 Q992.878 1794.93 996.073 1797.62 Q999.267 1800.3 999.267 1804.79 Q999.267 1806.92 998.457 1808.84 Q997.67 1810.74 995.563 1813.34 Q994.985 1814.01 991.883 1817.22 Q988.781 1820.42 983.133 1826.18 Z" fill="#000000" fill-rule="nonzero" fill-opacity="1" /><path clip-path="url(#clip330)" d="M1009.31 1795.56 L1027.67 1795.56 L1027.67 1799.49 L1013.6 1799.49 L1013.6 1807.97 Q1014.61 1807.62 1015.63 1807.46 Q1016.65 1807.27 1017.67 1807.27 Q1023.46 1807.27 1026.84 1810.44 Q1030.22 1813.61 1030.22 1819.03 Q1030.22 1824.61 1026.74 1827.71 Q1023.27 1830.79 1016.95 1830.79 Q1014.78 1830.79 1012.51 1830.42 Q1010.26 1830.05 1007.85 1829.31 L1007.85 1824.61 Q1009.94 1825.74 1012.16 1826.3 Q1014.38 1826.85 1016.86 1826.85 Q1020.86 1826.85 1023.2 1824.75 Q1025.54 1822.64 1025.54 1819.03 Q1025.54 1815.42 1023.2 1813.31 Q1020.86 1811.21 1016.86 1811.21 Q1014.98 1811.21 1013.11 1811.62 Q1011.26 1812.04 1009.31 1812.92 L1009.31 1795.56 Z" fill="#000000" fill-rule="nonzero" fill-opacity="1" /><path clip-path="url(#clip330)" d="M1615.71 1795.56 L1634.06 1795.56 L1634.06 1799.49 L1619.99 1799.49 L1619.99 1807.97 Q1621.01 1807.62 1622.03 1807.46 Q1623.05 1807.27 1624.06 1807.27 Q1629.85 1807.27 1633.23 1810.44 Q1636.61 1813.61 1636.61 1819.03 Q1636.61 1824.61 1633.14 1827.71 Q1629.67 1830.79 1623.35 1830.79 Q1621.17 1830.79 1618.9 1830.42 Q1616.66 1830.05 1614.25 1829.31 L1614.25 1824.61 Q1616.33 1825.74 1618.56 1826.3 Q1620.78 1826.85 1623.25 1826.85 Q1627.26 1826.85 1629.6 1824.75 Q1631.94 1822.64 1631.94 1819.03 Q1631.94 1815.42 1629.6 1813.31 Q1627.26 1811.21 1623.25 1811.21 Q1621.38 1811.21 1619.5 1811.62 Q1617.65 1812.04 1615.71 1812.92 L1615.71 1795.56 Z" fill="#000000" fill-rule="nonzero" fill-opacity="1" /><path clip-path="url(#clip330)" d="M1655.82 1798.64 Q1652.21 1798.64 1650.38 1802.2 Q1648.58 1805.74 1648.58 1812.87 Q1648.58 1819.98 1650.38 1823.54 Q1652.21 1827.09 1655.82 1827.09 Q1659.46 1827.09 1661.26 1823.54 Q1663.09 1819.98 1663.09 1812.87 Q1663.09 1805.74 1661.26 1802.2 Q1659.46 1798.64 1655.82 1798.64 M1655.82 1794.93 Q1661.63 1794.93 1664.69 1799.54 Q1667.77 1804.12 1667.77 1812.87 Q1667.77 1821.6 1664.69 1826.21 Q1661.63 1830.79 1655.82 1830.79 Q1650.01 1830.79 1646.94 1826.21 Q1643.88 1821.6 1643.88 1812.87 Q1643.88 1804.12 1646.94 1799.54 Q1650.01 1794.93 1655.82 1794.93 Z" fill="#000000" fill-rule="nonzero" fill-opacity="1" /><path clip-path="url(#clip330)" d="M2252.01 1795.56 L2274.23 1795.56 L2274.23 1797.55 L2261.69 1830.12 L2256.8 1830.12 L2268.61 1799.49 L2252.01 1799.49 L2252.01 1795.56 Z" fill="#000000" fill-rule="nonzero" fill-opacity="1" /><path clip-path="url(#clip330)" d="M2283.4 1795.56 L2301.76 1795.56 L2301.76 1799.49 L2287.68 1799.49 L2287.68 1807.97 Q2288.7 1807.62 2289.72 1807.46 Q2290.74 1807.27 2291.76 1807.27 Q2297.54 1807.27 2300.92 1810.44 Q2304.3 1813.61 2304.3 1819.03 Q2304.3 1824.61 2300.83 1827.71 Q2297.36 1830.79 2291.04 1830.79 Q2288.86 1830.79 2286.59 1830.42 Q2284.35 1830.05 2281.94 1829.31 L2281.94 1824.61 Q2284.02 1825.74 2286.25 1826.3 Q2288.47 1826.85 2290.95 1826.85 Q2294.95 1826.85 2297.29 1824.75 Q2299.63 1822.64 2299.63 1819.03 Q2299.63 1815.42 2297.29 1813.31 Q2294.95 1811.21 2290.95 1811.21 Q2289.07 1811.21 2287.2 1811.62 Q2285.34 1812.04 2283.4 1812.92 L2283.4 1795.56 Z" fill="#000000" fill-rule="nonzero" fill-opacity="1" /><path clip-path="url(#clip330)" d="M2874.91 1826.18 L2882.55 1826.18 L2882.55 1799.82 L2874.24 1801.48 L2874.24 1797.22 L2882.5 1795.56 L2887.18 1795.56 L2887.18 1826.18 L2894.82 1826.18 L2894.82 1830.12 L2874.91 1830.12 L2874.91 1826.18 Z" fill="#000000" fill-rule="nonzero" fill-opacity="1" /><path clip-path="url(#clip330)" d="M2914.26 1798.64 Q2910.65 1798.64 2908.82 1802.2 Q2907.02 1805.74 2907.02 1812.87 Q2907.02 1819.98 2908.82 1823.54 Q2910.65 1827.09 2914.26 1827.09 Q2917.9 1827.09 2919.7 1823.54 Q2921.53 1819.98 2921.53 1812.87 Q2921.53 1805.74 2919.7 1802.2 Q2917.9 1798.64 2914.26 1798.64 M2914.26 1794.93 Q2920.07 1794.93 2923.13 1799.54 Q2926.21 1804.12 2926.21 1812.87 Q2926.21 1821.6 2923.13 1826.21 Q2920.07 1830.79 2914.26 1830.79 Q2908.45 1830.79 2905.37 1826.21 Q2902.32 1821.6 2902.32 1812.87 Q2902.32 1804.12 2905.37 1799.54 Q2908.45 1794.93 2914.26 1794.93 Z" fill="#000000" fill-rule="nonzero" fill-opacity="1" /><path clip-path="url(#clip330)" d="M2944.42 1798.64 Q2940.81 1798.64 2938.98 1802.2 Q2937.18 1805.74 2937.18 1812.87 Q2937.18 1819.98 2938.98 1823.54 Q2940.81 1827.09 2944.42 1827.09 Q2948.06 1827.09 2949.86 1823.54 Q2951.69 1819.98 2951.69 1812.87 Q2951.69 1805.74 2949.86 1802.2 Q2948.06 1798.64 2944.42 1798.64 M2944.42 1794.93 Q2950.23 1794.93 2953.29 1799.54 Q2956.37 1804.12 2956.37 1812.87 Q2956.37 1821.6 2953.29 1826.21 Q2950.23 1830.79 2944.42 1830.79 Q2938.61 1830.79 2935.54 1826.21 Q2932.48 1821.6 2932.48 1812.87 Q2932.48 1804.12 2935.54 1799.54 Q2938.61 1794.93 2944.42 1794.93 Z" fill="#000000" fill-rule="nonzero" fill-opacity="1" /><path clip-path="url(#clip330)" d="M1555.08 1870.66 L1595.28 1870.66 L1595.28 1876.07 L1578.41 1876.07 L1578.41 1918.18 L1571.95 1918.18 L1571.95 1876.07 L1555.08 1876.07 L1555.08 1870.66 Z" fill="#000000" fill-rule="nonzero" fill-opacity="1" /><path clip-path="url(#clip330)" d="M1599.22 1882.53 L1605.08 1882.53 L1605.08 1918.18 L1599.22 1918.18 L1599.22 1882.53 M1599.22 1868.66 L1605.08 1868.66 L1605.08 1876.07 L1599.22 1876.07 L1599.22 1868.66 Z" fill="#000000" fill-rule="nonzero" fill-opacity="1" /><path clip-path="url(#clip330)" d="M1645.09 1889.38 Q1647.29 1885.43 1650.34 1883.55 Q1653.4 1881.67 1657.53 1881.67 Q1663.1 1881.67 1666.13 1885.59 Q1669.15 1889.47 1669.15 1896.67 L1669.15 1918.18 L1663.26 1918.18 L1663.26 1896.86 Q1663.26 1891.73 1661.45 1889.25 Q1659.63 1886.77 1655.91 1886.77 Q1651.36 1886.77 1648.72 1889.79 Q1646.08 1892.81 1646.08 1898.03 L1646.08 1918.18 L1640.19 1918.18 L1640.19 1896.86 Q1640.19 1891.7 1638.37 1889.25 Q1636.56 1886.77 1632.77 1886.77 Q1628.28 1886.77 1625.64 1889.82 Q1623 1892.85 1623 1898.03 L1623 1918.18 L1617.11 1918.18 L1617.11 1882.53 L1623 1882.53 L1623 1888.07 Q1625.01 1884.79 1627.81 1883.23 Q1630.61 1881.67 1634.46 1881.67 Q1638.34 1881.67 1641.05 1883.65 Q1643.78 1885.62 1645.09 1889.38 Z" fill="#000000" fill-rule="nonzero" fill-opacity="1" /><path clip-path="url(#clip330)" d="M1711.32 1898.89 L1711.32 1901.76 L1684.4 1901.76 Q1684.78 1907.81 1688.03 1910.99 Q1691.3 1914.14 1697.13 1914.14 Q1700.5 1914.14 1703.65 1913.31 Q1706.84 1912.48 1709.96 1910.83 L1709.96 1916.37 Q1706.8 1917.7 1703.49 1918.4 Q1700.18 1919.1 1696.78 1919.1 Q1688.25 1919.1 1683.25 1914.14 Q1678.29 1909.17 1678.29 1900.71 Q1678.29 1891.96 1683 1886.83 Q1687.74 1881.67 1695.76 1881.67 Q1702.95 1881.67 1707.12 1886.32 Q1711.32 1890.94 1711.32 1898.89 M1705.47 1897.17 Q1705.4 1892.37 1702.76 1889.5 Q1700.15 1886.64 1695.82 1886.64 Q1690.92 1886.64 1687.96 1889.41 Q1685.03 1892.18 1684.59 1897.21 L1705.47 1897.17 Z" fill="#000000" fill-rule="nonzero" fill-opacity="1" /><path clip-path="url(#clip330)" d="M1755.73 1868.72 Q1751.46 1876.04 1749.39 1883.2 Q1747.32 1890.36 1747.32 1897.72 Q1747.32 1905.07 1749.39 1912.29 Q1751.49 1919.49 1755.73 1926.78 L1750.63 1926.78 Q1745.86 1919.3 1743.47 1912.07 Q1741.12 1904.85 1741.12 1897.72 Q1741.12 1890.62 1743.47 1883.42 Q1745.83 1876.23 1750.63 1868.72 L1755.73 1868.72 Z" fill="#000000" fill-rule="nonzero" fill-opacity="1" /><path clip-path="url(#clip330)" d="M1796.72 1896.67 L1796.72 1918.18 L1790.86 1918.18 L1790.86 1896.86 Q1790.86 1891.8 1788.89 1889.28 Q1786.92 1886.77 1782.97 1886.77 Q1778.23 1886.77 1775.49 1889.79 Q1772.75 1892.81 1772.75 1898.03 L1772.75 1918.18 L1766.87 1918.18 L1766.87 1868.66 L1772.75 1868.66 L1772.75 1888.07 Q1774.85 1884.86 1777.69 1883.27 Q1780.55 1881.67 1784.28 1881.67 Q1790.42 1881.67 1793.57 1885.49 Q1796.72 1889.28 1796.72 1896.67 Z" fill="#000000" fill-rule="nonzero" fill-opacity="1" /><path clip-path="url(#clip330)" d="M1807.48 1868.72 L1812.57 1868.72 Q1817.35 1876.23 1819.7 1883.42 Q1822.09 1890.62 1822.09 1897.72 Q1822.09 1904.85 1819.7 1912.07 Q1817.35 1919.3 1812.57 1926.78 L1807.48 1926.78 Q1811.71 1919.49 1813.78 1912.29 Q1815.88 1905.07 1815.88 1897.72 Q1815.88 1890.36 1813.78 1883.2 Q1811.71 1876.04 1807.48 1868.72 Z" fill="#000000" fill-rule="nonzero" fill-opacity="1" /><polyline clip-path="url(#clip330)" style="stroke:#000000; stroke-linecap:round; stroke-linejoin:round; stroke-width:4; stroke-opacity:1; fill:none" points="287.402,1761.32 287.402,110.236 "/>
<polyline clip-path="url(#clip330)" style="stroke:#000000; stroke-linecap:round; stroke-linejoin:round; stroke-width:4; stroke-opacity:1; fill:none" points="287.402,1714.59 306.3,1714.59 "/>
<polyline clip-path="url(#clip330)" style="stroke:#000000; stroke-linecap:round; stroke-linejoin:round; stroke-width:4; stroke-opacity:1; fill:none" points="287.402,1293.54 306.3,1293.54 "/>
<polyline clip-path="url(#clip330)" style="stroke:#000000; stroke-linecap:round; stroke-linejoin:round; stroke-width:4; stroke-opacity:1; fill:none" points="287.402,872.494 306.3,872.494 "/>
<polyline clip-path="url(#clip330)" style="stroke:#000000; stroke-linecap:round; stroke-linejoin:round; stroke-width:4; stroke-opacity:1; fill:none" points="287.402,451.447 306.3,451.447 "/>
<path clip-path="url(#clip330)" d="M182.227 1700.39 Q178.616 1700.39 176.787 1703.95 Q174.981 1707.49 174.981 1714.62 Q174.981 1721.73 176.787 1725.29 Q178.616 1728.84 182.227 1728.84 Q185.861 1728.84 187.666 1725.29 Q189.495 1721.73 189.495 1714.62 Q189.495 1707.49 187.666 1703.95 Q185.861 1700.39 182.227 1700.39 M182.227 1696.68 Q188.037 1696.68 191.092 1701.29 Q194.171 1705.87 194.171 1714.62 Q194.171 1723.35 191.092 1727.96 Q188.037 1732.54 182.227 1732.54 Q176.417 1732.54 173.338 1727.96 Q170.282 1723.35 170.282 1714.62 Q170.282 1705.87 173.338 1701.29 Q176.417 1696.68 182.227 1696.68 Z" fill="#000000" fill-rule="nonzero" fill-opacity="1" /><path clip-path="url(#clip330)" d="M202.389 1725.99 L207.273 1725.99 L207.273 1731.87 L202.389 1731.87 L202.389 1725.99 Z" fill="#000000" fill-rule="nonzero" fill-opacity="1" /><path clip-path="url(#clip330)" d="M227.458 1700.39 Q223.847 1700.39 222.018 1703.95 Q220.213 1707.49 220.213 1714.62 Q220.213 1721.73 222.018 1725.29 Q223.847 1728.84 227.458 1728.84 Q231.092 1728.84 232.898 1725.29 Q234.726 1721.73 234.726 1714.62 Q234.726 1707.49 232.898 1703.95 Q231.092 1700.39 227.458 1700.39 M227.458 1696.68 Q233.268 1696.68 236.324 1701.29 Q239.402 1705.87 239.402 1714.62 Q239.402 1723.35 236.324 1727.96 Q233.268 1732.54 227.458 1732.54 Q221.648 1732.54 218.569 1727.96 Q215.514 1723.35 215.514 1714.62 Q215.514 1705.87 218.569 1701.29 Q221.648 1696.68 227.458 1696.68 Z" fill="#000000" fill-rule="nonzero" fill-opacity="1" /><path clip-path="url(#clip330)" d="M183.454 1279.34 Q179.842 1279.34 178.014 1282.91 Q176.208 1286.45 176.208 1293.58 Q176.208 1300.68 178.014 1304.25 Q179.842 1307.79 183.454 1307.79 Q187.088 1307.79 188.893 1304.25 Q190.722 1300.68 190.722 1293.58 Q190.722 1286.45 188.893 1282.91 Q187.088 1279.34 183.454 1279.34 M183.454 1275.64 Q189.264 1275.64 192.319 1280.24 Q195.398 1284.83 195.398 1293.58 Q195.398 1302.3 192.319 1306.91 Q189.264 1311.49 183.454 1311.49 Q177.643 1311.49 174.565 1306.91 Q171.509 1302.3 171.509 1293.58 Q171.509 1284.83 174.565 1280.24 Q177.643 1275.64 183.454 1275.64 Z" fill="#000000" fill-rule="nonzero" fill-opacity="1" /><path clip-path="url(#clip330)" d="M203.615 1304.94 L208.5 1304.94 L208.5 1310.82 L203.615 1310.82 L203.615 1304.94 Z" fill="#000000" fill-rule="nonzero" fill-opacity="1" /><path clip-path="url(#clip330)" d="M219.495 1306.89 L227.134 1306.89 L227.134 1280.52 L218.824 1282.19 L218.824 1277.93 L227.088 1276.26 L231.763 1276.26 L231.763 1306.89 L239.402 1306.89 L239.402 1310.82 L219.495 1310.82 L219.495 1306.89 Z" fill="#000000" fill-rule="nonzero" fill-opacity="1" /><path clip-path="url(#clip330)" d="M183.824 858.293 Q180.213 858.293 178.384 861.858 Q176.579 865.399 176.579 872.529 Q176.579 879.635 178.384 883.2 Q180.213 886.742 183.824 886.742 Q187.458 886.742 189.264 883.2 Q191.092 879.635 191.092 872.529 Q191.092 865.399 189.264 861.858 Q187.458 858.293 183.824 858.293 M183.824 854.589 Q189.634 854.589 192.69 859.196 Q195.768 863.779 195.768 872.529 Q195.768 881.256 192.69 885.862 Q189.634 890.446 183.824 890.446 Q178.014 890.446 174.935 885.862 Q171.879 881.256 171.879 872.529 Q171.879 863.779 174.935 859.196 Q178.014 854.589 183.824 854.589 Z" fill="#000000" fill-rule="nonzero" fill-opacity="1" /><path clip-path="url(#clip330)" d="M203.986 883.895 L208.87 883.895 L208.87 889.774 L203.986 889.774 L203.986 883.895 Z" fill="#000000" fill-rule="nonzero" fill-opacity="1" /><path clip-path="url(#clip330)" d="M223.083 885.839 L239.402 885.839 L239.402 889.774 L217.458 889.774 L217.458 885.839 Q220.12 883.084 224.703 878.455 Q229.31 873.802 230.49 872.46 Q232.736 869.936 233.615 868.2 Q234.518 866.441 234.518 864.751 Q234.518 861.997 232.574 860.261 Q230.652 858.524 227.55 858.524 Q225.351 858.524 222.898 859.288 Q220.467 860.052 217.689 861.603 L217.689 856.881 Q220.513 855.747 222.967 855.168 Q225.421 854.589 227.458 854.589 Q232.828 854.589 236.023 857.274 Q239.217 859.96 239.217 864.45 Q239.217 866.58 238.407 868.501 Q237.62 870.399 235.513 872.992 Q234.935 873.663 231.833 876.881 Q228.731 880.075 223.083 885.839 Z" fill="#000000" fill-rule="nonzero" fill-opacity="1" /><path clip-path="url(#clip330)" d="M182.875 437.246 Q179.264 437.246 177.435 440.81 Q175.629 444.352 175.629 451.482 Q175.629 458.588 177.435 462.153 Q179.264 465.694 182.875 465.694 Q186.509 465.694 188.315 462.153 Q190.143 458.588 190.143 451.482 Q190.143 444.352 188.315 440.81 Q186.509 437.246 182.875 437.246 M182.875 433.542 Q188.685 433.542 191.741 438.148 Q194.819 442.732 194.819 451.482 Q194.819 460.208 191.741 464.815 Q188.685 469.398 182.875 469.398 Q177.065 469.398 173.986 464.815 Q170.93 460.208 170.93 451.482 Q170.93 442.732 173.986 438.148 Q177.065 433.542 182.875 433.542 Z" fill="#000000" fill-rule="nonzero" fill-opacity="1" /><path clip-path="url(#clip330)" d="M203.037 462.847 L207.921 462.847 L207.921 468.727 L203.037 468.727 L203.037 462.847 Z" fill="#000000" fill-rule="nonzero" fill-opacity="1" /><path clip-path="url(#clip330)" d="M232.273 450.093 Q235.629 450.81 237.504 453.079 Q239.402 455.347 239.402 458.681 Q239.402 463.796 235.884 466.597 Q232.365 469.398 225.884 469.398 Q223.708 469.398 221.393 468.958 Q219.101 468.542 216.648 467.685 L216.648 463.171 Q218.592 464.306 220.907 464.884 Q223.222 465.463 225.745 465.463 Q230.143 465.463 232.435 463.727 Q234.75 461.991 234.75 458.681 Q234.75 455.625 232.597 453.912 Q230.467 452.176 226.648 452.176 L222.62 452.176 L222.62 448.333 L226.833 448.333 Q230.282 448.333 232.111 446.968 Q233.939 445.579 233.939 442.986 Q233.939 440.324 232.041 438.912 Q230.166 437.477 226.648 437.477 Q224.726 437.477 222.527 437.894 Q220.328 438.31 217.689 439.19 L217.689 435.023 Q220.351 434.283 222.666 433.912 Q225.004 433.542 227.064 433.542 Q232.388 433.542 235.49 435.972 Q238.592 438.38 238.592 442.5 Q238.592 445.371 236.949 447.361 Q235.305 449.329 232.273 450.093 Z" fill="#000000" fill-rule="nonzero" fill-opacity="1" /><path clip-path="url(#clip330)" d="M73.747 1119.4 L79.2215 1119.4 Q77.8528 1121.88 77.1844 1124.39 Q76.4842 1126.88 76.4842 1129.42 Q76.4842 1135.12 80.1127 1138.27 Q83.7093 1141.42 90.2341 1141.42 Q96.759 1141.42 100.387 1138.27 Q103.984 1135.12 103.984 1129.42 Q103.984 1126.88 103.316 1124.39 Q102.615 1121.88 101.247 1119.4 L106.658 1119.4 Q107.803 1121.85 108.376 1124.49 Q108.949 1127.1 108.949 1130.06 Q108.949 1138.11 103.889 1142.85 Q98.8278 1147.6 90.2341 1147.6 Q81.5131 1147.6 76.516 1142.82 Q71.519 1138.02 71.519 1129.68 Q71.519 1126.97 72.0919 1124.39 Q72.633 1121.81 73.747 1119.4 Z" fill="#000000" fill-rule="nonzero" fill-opacity="1" /><path clip-path="url(#clip330)" d="M60.5063 1115.54 L60.5063 1075.35 L65.9171 1075.35 L65.9171 1092.21 L108.026 1092.21 L108.026 1098.68 L65.9171 1098.68 L65.9171 1115.54 L60.5063 1115.54 Z" fill="#000000" fill-rule="nonzero" fill-opacity="1" /><path clip-path="url(#clip330)" d="M86.5102 1039.76 L108.026 1039.76 L108.026 1045.62 L86.7012 1045.62 Q81.6404 1045.62 79.126 1047.59 Q76.6115 1049.56 76.6115 1053.51 Q76.6115 1058.25 79.6352 1060.99 Q82.6589 1063.73 87.8788 1063.73 L108.026 1063.73 L108.026 1069.62 L72.3783 1069.62 L72.3783 1063.73 L77.9165 1063.73 Q74.7018 1061.63 73.1104 1058.79 Q71.519 1055.93 71.519 1052.21 Q71.519 1046.06 75.3384 1042.91 Q79.126 1039.76 86.5102 1039.76 Z" fill="#000000" fill-rule="nonzero" fill-opacity="1" /><path clip-path="url(#clip330)" d="M60.5063 1034.41 L60.5063 994.214 L65.9171 994.214 L65.9171 1011.08 L108.026 1011.08 L108.026 1017.54 L65.9171 1017.54 L65.9171 1034.41 L60.5063 1034.41 Z" fill="#000000" fill-rule="nonzero" fill-opacity="1" /><path clip-path="url(#clip330)" d="M58.5011 968.083 L58.5011 954.588 L63.0526 954.588 L63.0526 962.226 L112.069 962.226 L112.069 954.588 L116.62 954.588 L116.62 968.083 L58.5011 968.083 Z" fill="#000000" fill-rule="nonzero" fill-opacity="1" /><path clip-path="url(#clip330)" d="M86.5102 912.478 L108.026 912.478 L108.026 918.335 L86.7012 918.335 Q81.6404 918.335 79.126 920.308 Q76.6115 922.282 76.6115 926.228 Q76.6115 930.971 79.6352 933.708 Q82.6589 936.445 87.8788 936.445 L108.026 936.445 L108.026 942.334 L72.3783 942.334 L72.3783 936.445 L77.9165 936.445 Q74.7018 934.345 73.1104 931.512 Q71.519 928.647 71.519 924.923 Q71.519 918.781 75.3384 915.63 Q79.126 912.478 86.5102 912.478 Z" fill="#000000" fill-rule="nonzero" fill-opacity="1" /><path clip-path="url(#clip330)" d="M89.7885 877.34 Q83.4228 877.34 79.9217 879.982 Q76.4206 882.591 76.4206 887.334 Q76.4206 892.045 79.9217 894.686 Q83.4228 897.296 89.7885 897.296 Q96.1224 897.296 99.6236 894.686 Q103.125 892.045 103.125 887.334 Q103.125 882.591 99.6236 879.982 Q96.1224 877.34 89.7885 877.34 M103.602 871.483 Q112.705 871.483 117.129 875.526 Q121.585 879.568 121.585 887.907 Q121.585 890.994 121.108 893.731 Q120.662 896.469 119.707 899.047 L114.01 899.047 Q115.411 896.469 116.079 893.954 Q116.747 891.44 116.747 888.83 Q116.747 883.069 113.724 880.204 Q110.732 877.34 104.652 877.34 L101.756 877.34 Q104.907 879.154 106.467 881.987 Q108.026 884.819 108.026 888.766 Q108.026 895.323 103.029 899.333 Q98.0321 903.344 89.7885 903.344 Q81.5131 903.344 76.516 899.333 Q71.519 895.323 71.519 888.766 Q71.519 884.819 73.0786 881.987 Q74.6382 879.154 77.7892 877.34 L72.3783 877.34 L72.3783 871.483 L103.602 871.483 Z" fill="#000000" fill-rule="nonzero" fill-opacity="1" /><path clip-path="url(#clip330)" d="M60.5063 849.012 L60.5063 843.602 L114.074 860.152 L114.074 865.563 L60.5063 849.012 Z" fill="#000000" fill-rule="nonzero" fill-opacity="1" /><path clip-path="url(#clip330)" d="M79.2215 809.704 Q75.2747 807.508 73.3968 804.452 Q71.519 801.397 71.519 797.259 Q71.519 791.689 75.4339 788.665 Q79.3169 785.642 86.5102 785.642 L108.026 785.642 L108.026 791.53 L86.7012 791.53 Q81.5768 791.53 79.0941 793.344 Q76.6115 795.159 76.6115 798.882 Q76.6115 803.434 79.6352 806.076 Q82.6589 808.717 87.8788 808.717 L108.026 808.717 L108.026 814.606 L86.7012 814.606 Q81.5449 814.606 79.0941 816.42 Q76.6115 818.234 76.6115 822.022 Q76.6115 826.51 79.6671 829.151 Q82.6908 831.793 87.8788 831.793 L108.026 831.793 L108.026 837.681 L72.3783 837.681 L72.3783 831.793 L77.9165 831.793 Q74.6382 829.788 73.0786 826.987 Q71.519 824.186 71.519 820.335 Q71.519 816.452 73.4923 813.746 Q75.4657 811.009 79.2215 809.704 Z" fill="#000000" fill-rule="nonzero" fill-opacity="1" /><path clip-path="url(#clip330)" d="M60.5063 773.706 L60.5063 767.277 L102.615 767.277 L102.615 744.137 L108.026 744.137 L108.026 773.706 L60.5063 773.706 Z" fill="#000000" fill-rule="nonzero" fill-opacity="1" /><path clip-path="url(#clip330)" d="M58.5011 723.958 L116.62 723.958 L116.62 737.453 L112.069 737.453 L112.069 729.846 L63.0526 729.846 L63.0526 737.453 L58.5011 737.453 L58.5011 723.958 Z" fill="#000000" fill-rule="nonzero" fill-opacity="1" /><circle clip-path="url(#clip332)" cx="376.484" cy="1318.8" r="21.6" fill="#ff0000" fill-rule="evenodd" fill-opacity="1" stroke="#000000" stroke-opacity="1" stroke-width="6"/>
<circle clip-path="url(#clip332)" cx="596.512" cy="771.443" r="21.6" fill="#ff0000" fill-rule="evenodd" fill-opacity="1" stroke="#000000" stroke-opacity="1" stroke-width="6"/>
<circle clip-path="url(#clip332)" cx="653.431" cy="417.763" r="21.6" fill="#ff0000" fill-rule="evenodd" fill-opacity="1" stroke="#000000" stroke-opacity="1" stroke-width="6"/>
<circle clip-path="url(#clip332)" cx="1267.64" cy="535.656" r="21.6" fill="#ff0000" fill-rule="evenodd" fill-opacity="1" stroke="#000000" stroke-opacity="1" stroke-width="6"/>
<circle clip-path="url(#clip332)" cx="1687.73" cy="350.395" r="21.6" fill="#ff0000" fill-rule="evenodd" fill-opacity="1" stroke="#000000" stroke-opacity="1" stroke-width="6"/>
<circle clip-path="url(#clip332)" cx="1878.03" cy="274.607" r="21.6" fill="#ff0000" fill-rule="evenodd" fill-opacity="1" stroke="#000000" stroke-opacity="1" stroke-width="6"/>
<circle clip-path="url(#clip332)" cx="2500.73" cy="295.659" r="21.6" fill="#ff0000" fill-rule="evenodd" fill-opacity="1" stroke="#000000" stroke-opacity="1" stroke-width="6"/>
<polyline clip-path="url(#clip332)" style="stroke:#0000ff; stroke-linecap:round; stroke-linejoin:round; stroke-width:8; stroke-opacity:1; fill:none" points="366.714,1714.59 392.2,1319.54 417.686,1317.58 443.172,1308.2 468.658,1282.98 494.144,1232.32 519.63,1148.98 545.116,1032.53 570.602,892.271 596.087,745.767 621.573,612.567 647.059,506.74 672.545,432.869 698.031,387.257 723.517,362.17 749.003,349.825 774.489,344.42 799.975,342.395 825.461,341.87 850.946,341.959 876.432,342.282 901.918,342.69 927.404,343.128 952.89,343.575 978.376,344.026 1003.86,344.479 1029.35,344.933 1054.83,345.387 1080.32,345.841 1105.81,346.295 1131.29,346.749 1156.78,347.204 1182.26,347.658 1207.75,348.113 1233.23,348.568 1258.72,349.022 1284.21,349.476 1309.69,349.93 1335.18,350.384 1360.66,350.838 1386.15,351.293 1411.64,351.746 1437.12,352.2 1462.61,352.653 1488.09,353.107 1513.58,353.56 1539.07,354.014 1564.55,354.467 1590.04,354.92 1615.52,355.373 1641.01,355.825 1666.5,356.278 1691.98,356.73 1717.47,357.183 1742.95,357.635 1768.44,358.087 1793.92,358.539 1819.41,358.99 1844.9,359.442 1870.38,359.894 1895.87,360.345 1921.35,360.797 1946.84,361.248 1972.33,361.698 1997.81,362.149 2023.3,362.599 2048.78,363.05 2074.27,363.501 2099.76,363.951 2125.24,364.401 2150.73,364.85 2176.21,365.3 2201.7,365.749 2227.19,366.199 2252.67,366.649 2278.16,367.098 2303.64,367.547 2329.13,367.995 2354.61,368.444 2380.1,368.892 2405.59,369.341 2431.07,369.79 2456.56,370.238 2482.04,370.685 2507.53,371.133 2533.02,371.58 2558.5,372.028 2583.99,372.476 2609.47,372.923 2634.96,373.37 2660.45,373.817 2685.93,374.263 2711.42,374.71 2736.9,375.156 2762.39,375.603 2787.87,376.049 2813.36,376.496 2838.85,376.941 2864.33,377.387 2889.82,377.832 2915.3,378.277 2940.79,378.723 2966.28,379.169 2991.76,379.614 3010.45,379.939 "/>
<polyline clip-path="url(#clip332)" style="stroke:#ff8c00; stroke-linecap:round; stroke-linejoin:round; stroke-width:8; stroke-opacity:1; fill:none" stroke-dasharray="32, 20" points="366.714,1714.59 392.2,1422.79 417.686,1533.61 443.172,1543.73 468.658,1496.68 494.144,1404.89 519.63,1272.94 545.116,1109.69 570.602,931.248 596.087,756.863 621.573,602.485 647.059,476.966 672.545,382.093 698.031,314.881 723.517,270.171 749.003,242.5 774.489,227.087 799.975,220.156 825.461,218.927 850.946,221.437 876.432,226.35 901.918,232.769 927.404,240.109 952.89,247.99 978.376,256.168 1003.86,264.488 1029.35,272.85 1054.83,281.191 1080.32,289.468 1105.81,297.661 1131.29,305.745 1156.78,313.707 1182.26,321.535 1207.75,329.219 1233.23,336.746 1258.72,344.107 1284.21,351.29 1309.69,358.28 1335.18,365.062 1360.66,371.62 1386.15,377.936 1411.64,383.993 1437.12,389.769 1462.61,395.246 1488.09,400.4 1513.58,405.209 1539.07,409.652 1564.55,413.706 1590.04,417.348 1615.52,420.556 1641.01,423.31 1666.5,425.591 1691.98,427.38 1717.47,428.662 1742.95,429.422 1768.44,429.649 1793.92,429.333 1819.41,428.47 1844.9,427.057 1870.38,425.094 1895.87,422.585 1921.35,419.535 1946.84,415.957 1972.33,411.864 1997.81,407.274 2023.3,402.205 2048.78,396.68 2074.27,390.725 2099.76,384.368 2125.24,377.638 2150.73,370.569 2176.21,363.192 2201.7,355.543 2227.19,347.658 2252.67,339.573 2278.16,331.325 2303.64,322.95 2329.13,314.487 2354.61,305.97 2380.1,297.434 2405.59,288.917 2431.07,280.452 2456.56,272.073 2482.04,263.805 2507.53,255.688 2533.02,247.745 2558.5,240.003 2583.99,232.488 2609.47,225.226 2634.96,218.237 2660.45,211.543 2685.93,205.163 2711.42,199.113 2736.9,193.411 2762.39,188.069 2787.87,183.101 2813.36,178.518 2838.85,174.331 2864.33,170.548 2889.82,167.177 2915.3,164.223 2940.79,161.693 2966.28,159.589 2991.76,157.917 3010.45,156.965 "/>
<path clip-path="url(#clip330)" d="M2302.5 1706.28 L2996.35 1706.28 L2996.35 1414.68 L2302.5 1414.68  Z" fill="#ffffff" fill-rule="evenodd" fill-opacity="1"/>
<polyline clip-path="url(#clip330)" style="stroke:#000000; stroke-linecap:round; stroke-linejoin:round; stroke-width:4; stroke-opacity:1; fill:none" points="2302.5,1706.28 2996.35,1706.28 2996.35,1414.68 2302.5,1414.68 2302.5,1706.28 "/>
<path clip-path="url(#clip330)" d="M2476 1458.74 L2465.32 1488.07 L2486.7 1488.07 L2476 1458.74 M2458.18 1492.44 L2473.03 1453.56 L2478.99 1453.56 L2493.81 1492.44 L2458.18 1492.44 Z" fill="#000000" fill-rule="nonzero" fill-opacity="1" /><path clip-path="url(#clip330)" d="M2517.87 1464.13 L2517.87 1468.67 Q2515.84 1467.62 2513.65 1467.1 Q2511.47 1466.58 2509.12 1466.58 Q2505.55 1466.58 2503.76 1467.68 Q2501.99 1468.77 2501.99 1470.96 Q2501.99 1472.62 2503.26 1473.59 Q2504.54 1474.53 2508.39 1475.38 L2510.03 1475.75 Q2515.14 1476.84 2517.27 1478.85 Q2519.43 1480.83 2519.43 1484.39 Q2519.43 1488.46 2516.21 1490.83 Q2513 1493.2 2507.38 1493.2 Q2505.03 1493.2 2502.48 1492.73 Q2499.96 1492.29 2497.14 1491.37 L2497.14 1486.43 Q2499.8 1487.81 2502.38 1488.51 Q2504.96 1489.19 2507.48 1489.19 Q2510.87 1489.19 2512.69 1488.04 Q2514.51 1486.87 2514.51 1484.76 Q2514.51 1482.81 2513.18 1481.76 Q2511.88 1480.72 2507.43 1479.76 L2505.76 1479.37 Q2501.31 1478.43 2499.33 1476.5 Q2497.35 1474.55 2497.35 1471.17 Q2497.35 1467.05 2500.27 1464.81 Q2503.18 1462.57 2508.55 1462.57 Q2511.21 1462.57 2513.55 1462.96 Q2515.89 1463.35 2517.87 1464.13 Z" fill="#000000" fill-rule="nonzero" fill-opacity="1" /><path clip-path="url(#clip330)" d="M2527.27 1453.56 L2535.11 1453.56 L2545.03 1480.02 L2555.01 1453.56 L2562.85 1453.56 L2562.85 1492.44 L2557.72 1492.44 L2557.72 1458.3 L2547.69 1484.97 L2542.4 1484.97 L2532.38 1458.3 L2532.38 1492.44 L2527.27 1492.44 L2527.27 1453.56 Z" fill="#000000" fill-rule="nonzero" fill-opacity="1" /><path clip-path="url(#clip330)" d="M2586.28 1458.74 L2579.15 1478.09 L2593.44 1478.09 L2586.28 1458.74 M2583.31 1453.56 L2589.28 1453.56 L2604.1 1492.44 L2598.63 1492.44 L2595.09 1482.47 L2577.56 1482.47 L2574.02 1492.44 L2568.47 1492.44 L2583.31 1453.56 Z" fill="#000000" fill-rule="nonzero" fill-opacity="1" /><path clip-path="url(#clip330)" d="M2615.03 1457.88 L2615.03 1472.49 L2621.65 1472.49 Q2625.32 1472.49 2627.32 1470.59 Q2629.33 1468.69 2629.33 1465.18 Q2629.33 1461.69 2627.32 1459.79 Q2625.32 1457.88 2621.65 1457.88 L2615.03 1457.88 M2609.77 1453.56 L2621.65 1453.56 Q2628.18 1453.56 2631.52 1456.53 Q2634.88 1459.47 2634.88 1465.18 Q2634.88 1470.93 2631.52 1473.87 Q2628.18 1476.82 2621.65 1476.82 L2615.03 1476.82 L2615.03 1492.44 L2609.77 1492.44 L2609.77 1453.56 Z" fill="#000000" fill-rule="nonzero" fill-opacity="1" /><path clip-path="url(#clip330)" d="M2641.93 1453.56 L2666.52 1453.56 L2666.52 1457.99 L2647.19 1457.99 L2647.19 1469.5 L2665.71 1469.5 L2665.71 1473.93 L2647.19 1473.93 L2647.19 1488.01 L2666.99 1488.01 L2666.99 1492.44 L2641.93 1492.44 L2641.93 1453.56 Z" fill="#000000" fill-rule="nonzero" fill-opacity="1" /><path clip-path="url(#clip330)" d="M2676.65 1485.83 L2682.14 1485.83 L2682.14 1492.44 L2676.65 1492.44 L2676.65 1485.83 M2676.65 1464.86 L2682.14 1464.86 L2682.14 1471.48 L2676.65 1471.48 L2676.65 1464.86 Z" fill="#000000" fill-rule="nonzero" fill-opacity="1" /><path clip-path="url(#clip330)" d="M2722.27 1457.03 Q2718.21 1457.03 2716.15 1461.04 Q2714.12 1465.02 2714.12 1473.04 Q2714.12 1481.04 2716.15 1485.05 Q2718.21 1489.03 2722.27 1489.03 Q2726.36 1489.03 2728.39 1485.05 Q2730.45 1481.04 2730.45 1473.04 Q2730.45 1465.02 2728.39 1461.04 Q2726.36 1457.03 2722.27 1457.03 M2722.27 1452.86 Q2728.81 1452.86 2732.25 1458.04 Q2735.71 1463.2 2735.71 1473.04 Q2735.71 1482.86 2732.25 1488.04 Q2728.81 1493.2 2722.27 1493.2 Q2715.74 1493.2 2712.27 1488.04 Q2708.83 1482.86 2708.83 1473.04 Q2708.83 1463.2 2712.27 1458.04 Q2715.74 1452.86 2722.27 1452.86 Z" fill="#000000" fill-rule="nonzero" fill-opacity="1" /><path clip-path="url(#clip330)" d="M2744.95 1485.83 L2750.45 1485.83 L2750.45 1492.44 L2744.95 1492.44 L2744.95 1485.83 Z" fill="#000000" fill-rule="nonzero" fill-opacity="1" /><path clip-path="url(#clip330)" d="M2776.36 1458.14 L2763.08 1478.9 L2776.36 1478.9 L2776.36 1458.14 M2774.98 1453.56 L2781.59 1453.56 L2781.59 1478.9 L2787.14 1478.9 L2787.14 1483.28 L2781.59 1483.28 L2781.59 1492.44 L2776.36 1492.44 L2776.36 1483.28 L2758.81 1483.28 L2758.81 1478.2 L2774.98 1453.56 Z" fill="#000000" fill-rule="nonzero" fill-opacity="1" /><path clip-path="url(#clip330)" d="M2795.89 1453.56 L2816.54 1453.56 L2816.54 1457.99 L2800.71 1457.99 L2800.71 1467.52 Q2801.85 1467.13 2803 1466.95 Q2804.15 1466.74 2805.29 1466.74 Q2811.8 1466.74 2815.6 1470.31 Q2819.41 1473.87 2819.41 1479.97 Q2819.41 1486.24 2815.5 1489.73 Q2811.59 1493.2 2804.48 1493.2 Q2802.04 1493.2 2799.49 1492.78 Q2796.96 1492.36 2794.25 1491.53 L2794.25 1486.24 Q2796.59 1487.52 2799.09 1488.14 Q2801.59 1488.77 2804.38 1488.77 Q2808.89 1488.77 2811.52 1486.4 Q2814.15 1484.03 2814.15 1479.97 Q2814.15 1475.91 2811.52 1473.54 Q2808.89 1471.17 2804.38 1471.17 Q2802.27 1471.17 2800.16 1471.63 Q2798.08 1472.1 2795.89 1473.09 L2795.89 1453.56 Z" fill="#000000" fill-rule="nonzero" fill-opacity="1" /><path clip-path="url(#clip330)" d="M2862.84 1475.33 Q2860.58 1475.33 2859.28 1477.26 Q2858 1479.19 2858 1482.62 Q2858 1486.01 2859.28 1487.96 Q2860.58 1489.89 2862.84 1489.89 Q2865.06 1489.89 2866.33 1487.96 Q2867.64 1486.01 2867.64 1482.62 Q2867.64 1479.21 2866.33 1477.29 Q2865.06 1475.33 2862.84 1475.33 M2862.84 1472.03 Q2866.96 1472.03 2869.38 1474.89 Q2871.8 1477.75 2871.8 1482.62 Q2871.8 1487.49 2869.35 1490.36 Q2866.93 1493.2 2862.84 1493.2 Q2858.68 1493.2 2856.26 1490.36 Q2853.83 1487.49 2853.83 1482.62 Q2853.83 1477.73 2856.26 1474.89 Q2858.7 1472.03 2862.84 1472.03 M2835.97 1456.17 Q2833.73 1456.17 2832.43 1458.12 Q2831.15 1460.05 2831.15 1463.43 Q2831.15 1466.87 2832.43 1468.8 Q2833.7 1470.72 2835.97 1470.72 Q2838.23 1470.72 2839.51 1468.8 Q2840.81 1466.87 2840.81 1463.43 Q2840.81 1460.07 2839.51 1458.12 Q2838.21 1456.17 2835.97 1456.17 M2859.48 1452.86 L2863.65 1452.86 L2839.33 1493.2 L2835.16 1493.2 L2859.48 1452.86 M2835.97 1452.86 Q2840.08 1452.86 2842.53 1455.72 Q2844.98 1458.56 2844.98 1463.43 Q2844.98 1468.35 2842.53 1471.19 Q2840.11 1474.03 2835.97 1474.03 Q2831.83 1474.03 2829.41 1471.19 Q2827.01 1468.33 2827.01 1463.43 Q2827.01 1458.59 2829.43 1455.72 Q2831.85 1452.86 2835.97 1452.86 Z" fill="#000000" fill-rule="nonzero" fill-opacity="1" /><circle clip-path="url(#clip330)" cx="2427.05" cy="1531.32" r="20.48" fill="#ff0000" fill-rule="evenodd" fill-opacity="1" stroke="#000000" stroke-opacity="1" stroke-width="5.68889"/>
<path clip-path="url(#clip330)" d="M2567.62 1517.21 Q2562.52 1517.21 2559.51 1521.01 Q2556.53 1524.81 2556.53 1531.36 Q2556.53 1537.88 2559.51 1541.68 Q2562.52 1545.48 2567.62 1545.48 Q2572.71 1545.48 2575.67 1541.68 Q2578.66 1537.88 2578.66 1531.36 Q2578.66 1524.81 2575.67 1521.01 Q2572.71 1517.21 2567.62 1517.21 M2567.62 1513.42 Q2574.88 1513.42 2579.24 1518.3 Q2583.59 1523.16 2583.59 1531.36 Q2583.59 1539.53 2579.24 1544.41 Q2574.88 1549.27 2567.62 1549.27 Q2560.32 1549.27 2555.95 1544.41 Q2551.6 1539.55 2551.6 1531.36 Q2551.6 1523.16 2555.95 1518.3 Q2560.32 1513.42 2567.62 1513.42 Z" fill="#000000" fill-rule="nonzero" fill-opacity="1" /><path clip-path="url(#clip330)" d="M2609.33 1535.66 Q2609.33 1530.96 2607.38 1528.3 Q2605.46 1525.62 2602.08 1525.62 Q2598.7 1525.62 2596.76 1528.3 Q2594.84 1530.96 2594.84 1535.66 Q2594.84 1540.36 2596.76 1543.05 Q2598.7 1545.71 2602.08 1545.71 Q2605.46 1545.71 2607.38 1543.05 Q2609.33 1540.36 2609.33 1535.66 M2594.84 1526.61 Q2596.18 1524.3 2598.22 1523.19 Q2600.28 1522.05 2603.12 1522.05 Q2607.85 1522.05 2610.79 1525.8 Q2613.75 1529.55 2613.75 1535.66 Q2613.75 1541.77 2610.79 1545.52 Q2607.85 1549.27 2603.12 1549.27 Q2600.28 1549.27 2598.22 1548.16 Q2596.18 1547.03 2594.84 1544.71 L2594.84 1548.6 L2590.55 1548.6 L2590.55 1512.58 L2594.84 1512.58 L2594.84 1526.61 Z" fill="#000000" fill-rule="nonzero" fill-opacity="1" /><path clip-path="url(#clip330)" d="M2637.34 1523.44 L2637.34 1527.47 Q2635.53 1526.54 2633.59 1526.08 Q2631.64 1525.62 2629.56 1525.62 Q2626.39 1525.62 2624.79 1526.59 Q2623.22 1527.56 2623.22 1529.5 Q2623.22 1530.99 2624.35 1531.84 Q2625.49 1532.68 2628.91 1533.44 L2630.37 1533.76 Q2634.91 1534.74 2636.8 1536.52 Q2638.73 1538.28 2638.73 1541.45 Q2638.73 1545.06 2635.86 1547.17 Q2633.01 1549.27 2628.01 1549.27 Q2625.93 1549.27 2623.66 1548.86 Q2621.41 1548.46 2618.91 1547.65 L2618.91 1543.25 Q2621.27 1544.48 2623.56 1545.11 Q2625.86 1545.71 2628.1 1545.71 Q2631.11 1545.71 2632.73 1544.69 Q2634.35 1543.65 2634.35 1541.77 Q2634.35 1540.04 2633.17 1539.11 Q2632.01 1538.19 2628.05 1537.33 L2626.57 1536.98 Q2622.61 1536.15 2620.86 1534.44 Q2619.1 1532.7 2619.1 1529.69 Q2619.1 1526.03 2621.69 1524.04 Q2624.28 1522.05 2629.05 1522.05 Q2631.41 1522.05 2633.49 1522.4 Q2635.58 1522.75 2637.34 1523.44 Z" fill="#000000" fill-rule="nonzero" fill-opacity="1" /><path clip-path="url(#clip330)" d="M2667.68 1534.57 L2667.68 1536.66 L2648.1 1536.66 Q2648.38 1541.06 2650.74 1543.37 Q2653.12 1545.66 2657.36 1545.66 Q2659.81 1545.66 2662.11 1545.06 Q2664.42 1544.46 2666.69 1543.25 L2666.69 1547.28 Q2664.4 1548.25 2661.99 1548.76 Q2659.58 1549.27 2657.11 1549.27 Q2650.9 1549.27 2647.27 1545.66 Q2643.66 1542.05 2643.66 1535.89 Q2643.66 1529.53 2647.08 1525.8 Q2650.53 1522.05 2656.36 1522.05 Q2661.6 1522.05 2664.63 1525.43 Q2667.68 1528.79 2667.68 1534.57 M2663.42 1533.32 Q2663.38 1529.83 2661.46 1527.75 Q2659.56 1525.66 2656.41 1525.66 Q2652.85 1525.66 2650.69 1527.68 Q2648.56 1529.69 2648.24 1533.35 L2663.42 1533.32 Z" fill="#000000" fill-rule="nonzero" fill-opacity="1" /><path clip-path="url(#clip330)" d="M2689.7 1526.66 Q2688.98 1526.24 2688.12 1526.06 Q2687.29 1525.85 2686.27 1525.85 Q2682.66 1525.85 2680.72 1528.21 Q2678.8 1530.55 2678.8 1534.94 L2678.8 1548.6 L2674.51 1548.6 L2674.51 1522.68 L2678.8 1522.68 L2678.8 1526.7 Q2680.14 1524.34 2682.29 1523.21 Q2684.44 1522.05 2687.52 1522.05 Q2687.96 1522.05 2688.49 1522.12 Q2689.03 1522.17 2689.67 1522.28 L2689.7 1526.66 Z" fill="#000000" fill-rule="nonzero" fill-opacity="1" /><path clip-path="url(#clip330)" d="M2691.11 1522.68 L2695.62 1522.68 L2703.73 1544.44 L2711.83 1522.68 L2716.34 1522.68 L2706.62 1548.6 L2700.83 1548.6 L2691.11 1522.68 Z" fill="#000000" fill-rule="nonzero" fill-opacity="1" /><path clip-path="url(#clip330)" d="M2734 1535.57 Q2728.84 1535.57 2726.85 1536.75 Q2724.86 1537.93 2724.86 1540.78 Q2724.86 1543.05 2726.34 1544.39 Q2727.85 1545.71 2730.42 1545.71 Q2733.96 1545.71 2736.09 1543.21 Q2738.24 1540.69 2738.24 1536.52 L2738.24 1535.57 L2734 1535.57 M2742.5 1533.81 L2742.5 1548.6 L2738.24 1548.6 L2738.24 1544.67 Q2736.78 1547.03 2734.61 1548.16 Q2732.43 1549.27 2729.28 1549.27 Q2725.3 1549.27 2722.94 1547.05 Q2720.6 1544.81 2720.6 1541.06 Q2720.6 1536.68 2723.52 1534.46 Q2726.46 1532.24 2732.27 1532.24 L2738.24 1532.24 L2738.24 1531.82 Q2738.24 1528.88 2736.29 1527.28 Q2734.37 1525.66 2730.88 1525.66 Q2728.66 1525.66 2726.55 1526.19 Q2724.44 1526.73 2722.5 1527.79 L2722.5 1523.86 Q2724.84 1522.95 2727.04 1522.51 Q2729.23 1522.05 2731.32 1522.05 Q2736.94 1522.05 2739.72 1524.97 Q2742.5 1527.88 2742.5 1533.81 Z" fill="#000000" fill-rule="nonzero" fill-opacity="1" /><path clip-path="url(#clip330)" d="M2755.48 1515.31 L2755.48 1522.68 L2764.26 1522.68 L2764.26 1525.99 L2755.48 1525.99 L2755.48 1540.06 Q2755.48 1543.23 2756.34 1544.13 Q2757.22 1545.04 2759.88 1545.04 L2764.26 1545.04 L2764.26 1548.6 L2759.88 1548.6 Q2754.95 1548.6 2753.08 1546.77 Q2751.2 1544.92 2751.2 1540.06 L2751.2 1525.99 L2748.08 1525.99 L2748.08 1522.68 L2751.2 1522.68 L2751.2 1515.31 L2755.48 1515.31 Z" fill="#000000" fill-rule="nonzero" fill-opacity="1" /><path clip-path="url(#clip330)" d="M2769.86 1522.68 L2774.12 1522.68 L2774.12 1548.6 L2769.86 1548.6 L2769.86 1522.68 M2769.86 1512.58 L2774.12 1512.58 L2774.12 1517.98 L2769.86 1517.98 L2769.86 1512.58 Z" fill="#000000" fill-rule="nonzero" fill-opacity="1" /><path clip-path="url(#clip330)" d="M2793.08 1525.66 Q2789.65 1525.66 2787.66 1528.35 Q2785.67 1531.01 2785.67 1535.66 Q2785.67 1540.31 2787.64 1543 Q2789.63 1545.66 2793.08 1545.66 Q2796.48 1545.66 2798.47 1542.98 Q2800.46 1540.29 2800.46 1535.66 Q2800.46 1531.06 2798.47 1528.37 Q2796.48 1525.66 2793.08 1525.66 M2793.08 1522.05 Q2798.63 1522.05 2801.8 1525.66 Q2804.98 1529.27 2804.98 1535.66 Q2804.98 1542.03 2801.8 1545.66 Q2798.63 1549.27 2793.08 1549.27 Q2787.5 1549.27 2784.33 1545.66 Q2781.18 1542.03 2781.18 1535.66 Q2781.18 1529.27 2784.33 1525.66 Q2787.5 1522.05 2793.08 1522.05 Z" fill="#000000" fill-rule="nonzero" fill-opacity="1" /><path clip-path="url(#clip330)" d="M2833.59 1532.95 L2833.59 1548.6 L2829.33 1548.6 L2829.33 1533.09 Q2829.33 1529.41 2827.89 1527.58 Q2826.46 1525.75 2823.59 1525.75 Q2820.14 1525.75 2818.15 1527.95 Q2816.16 1530.15 2816.16 1533.95 L2816.16 1548.6 L2811.87 1548.6 L2811.87 1522.68 L2816.16 1522.68 L2816.16 1526.7 Q2817.68 1524.37 2819.74 1523.21 Q2821.83 1522.05 2824.54 1522.05 Q2829 1522.05 2831.29 1524.83 Q2833.59 1527.58 2833.59 1532.95 Z" fill="#000000" fill-rule="nonzero" fill-opacity="1" /><polyline clip-path="url(#clip330)" style="stroke:#0000ff; stroke-linecap:round; stroke-linejoin:round; stroke-width:8; stroke-opacity:1; fill:none" points="2333.64,1589.64 2520.46,1589.64 "/>
<path clip-path="url(#clip330)" d="M2567.62 1575.53 Q2562.52 1575.53 2559.51 1579.33 Q2556.53 1583.13 2556.53 1589.68 Q2556.53 1596.2 2559.51 1600 Q2562.52 1603.8 2567.62 1603.8 Q2572.71 1603.8 2575.67 1600 Q2578.66 1596.2 2578.66 1589.68 Q2578.66 1583.13 2575.67 1579.33 Q2572.71 1575.53 2567.62 1575.53 M2567.62 1571.74 Q2574.88 1571.74 2579.24 1576.62 Q2583.59 1581.48 2583.59 1589.68 Q2583.59 1597.85 2579.24 1602.73 Q2574.88 1607.59 2567.62 1607.59 Q2560.32 1607.59 2555.95 1602.73 Q2551.6 1597.87 2551.6 1589.68 Q2551.6 1581.48 2555.95 1576.62 Q2560.32 1571.74 2567.62 1571.74 Z" fill="#000000" fill-rule="nonzero" fill-opacity="1" /><path clip-path="url(#clip330)" d="M2595.58 1576.2 L2595.58 1603.08 L2601.23 1603.08 Q2608.38 1603.08 2611.69 1599.84 Q2615.02 1596.6 2615.02 1589.61 Q2615.02 1582.66 2611.69 1579.44 Q2608.38 1576.2 2601.23 1576.2 L2595.58 1576.2 M2590.9 1572.36 L2600.51 1572.36 Q2610.55 1572.36 2615.25 1576.55 Q2619.95 1580.72 2619.95 1589.61 Q2619.95 1598.54 2615.23 1602.73 Q2610.51 1606.92 2600.51 1606.92 L2590.9 1606.92 L2590.9 1572.36 Z" fill="#000000" fill-rule="nonzero" fill-opacity="1" /><path clip-path="url(#clip330)" d="M2627.41 1572.36 L2649.26 1572.36 L2649.26 1576.3 L2632.08 1576.3 L2632.08 1586.53 L2648.54 1586.53 L2648.54 1590.46 L2632.08 1590.46 L2632.08 1602.99 L2649.67 1602.99 L2649.67 1606.92 L2627.41 1606.92 L2627.41 1572.36 Z" fill="#000000" fill-rule="nonzero" fill-opacity="1" /><polyline clip-path="url(#clip330)" style="stroke:#ff8c00; stroke-linecap:round; stroke-linejoin:round; stroke-width:8; stroke-opacity:1; fill:none" stroke-dasharray="32, 20" points="2333.64,1647.96 2520.46,1647.96 "/>
<path clip-path="url(#clip330)" d="M2572.11 1640.31 L2572.11 1644.29 Q2570.3 1643.3 2568.47 1642.81 Q2566.67 1642.3 2564.81 1642.3 Q2560.67 1642.3 2558.38 1644.94 Q2556.09 1647.56 2556.09 1652.3 Q2556.09 1657.05 2558.38 1659.69 Q2560.67 1662.3 2564.81 1662.3 Q2566.67 1662.3 2568.47 1661.82 Q2570.3 1661.31 2572.11 1660.31 L2572.11 1664.25 Q2570.32 1665.08 2568.4 1665.5 Q2566.5 1665.91 2564.35 1665.91 Q2558.49 1665.91 2555.05 1662.23 Q2551.6 1658.55 2551.6 1652.3 Q2551.6 1645.96 2555.07 1642.33 Q2558.56 1638.69 2564.63 1638.69 Q2566.6 1638.69 2568.47 1639.11 Q2570.35 1639.5 2572.11 1640.31 Z" fill="#000000" fill-rule="nonzero" fill-opacity="1" /><path clip-path="url(#clip330)" d="M2579.17 1630.68 L2583.87 1630.68 L2583.87 1651.68 Q2583.87 1657.23 2585.88 1659.69 Q2587.89 1662.12 2592.41 1662.12 Q2596.9 1662.12 2598.91 1659.69 Q2600.93 1657.23 2600.93 1651.68 L2600.93 1630.68 L2605.62 1630.68 L2605.62 1652.26 Q2605.62 1659.01 2602.27 1662.46 Q2598.93 1665.91 2592.41 1665.91 Q2585.86 1665.91 2582.5 1662.46 Q2579.17 1659.01 2579.17 1652.26 L2579.17 1630.68 Z" fill="#000000" fill-rule="nonzero" fill-opacity="1" /><path clip-path="url(#clip330)" d="M2619.07 1634.52 L2619.07 1661.4 L2624.72 1661.4 Q2631.87 1661.4 2635.18 1658.16 Q2638.52 1654.92 2638.52 1647.93 Q2638.52 1640.98 2635.18 1637.76 Q2631.87 1634.52 2624.72 1634.52 L2619.07 1634.52 M2614.4 1630.68 L2624 1630.68 Q2634.05 1630.68 2638.75 1634.87 Q2643.45 1639.04 2643.45 1647.93 Q2643.45 1656.86 2638.73 1661.05 Q2634 1665.24 2624 1665.24 L2614.4 1665.24 L2614.4 1630.68 Z" fill="#000000" fill-rule="nonzero" fill-opacity="1" /><path clip-path="url(#clip330)" d="M2650.9 1630.68 L2672.75 1630.68 L2672.75 1634.62 L2655.58 1634.62 L2655.58 1644.85 L2672.04 1644.85 L2672.04 1648.78 L2655.58 1648.78 L2655.58 1661.31 L2673.17 1661.31 L2673.17 1665.24 L2650.9 1665.24 L2650.9 1630.68 Z" fill="#000000" fill-rule="nonzero" fill-opacity="1" /></svg>
