<?xml version="1.0" encoding="utf-8"?>
<svg xmlns="http://www.w3.org/2000/svg" xmlns:xlink="http://www.w3.org/1999/xlink" width="600" height="400" viewBox="0 0 2400 1600">
<defs>
  <clipPath id="clip630">
    <rect x="0" y="0" width="2400" height="1600"/>
  </clipPath>
</defs>
<path clip-path="url(#clip630)" d="M0 1600 L2400 1600 L2400 0 L0 0  Z" fill="#ffffff" fill-rule="evenodd" fill-opacity="1"/>
<defs>
  <clipPath id="clip631">
    <rect x="480" y="0" width="1681" height="1600"/>
  </clipPath>
</defs>
<path clip-path="url(#clip630)" d="M279.704 1423.18 L2352.76 1423.18 L2352.76 123.472 L279.704 123.472  Z" fill="#ffffff" fill-rule="evenodd" fill-opacity="1"/>
<defs>
  <clipPath id="clip632">
    <rect x="279" y="123" width="2074" height="1301"/>
  </clipPath>
</defs>
<polyline clip-path="url(#clip632)" style="stroke:#000000; stroke-linecap:round; stroke-linejoin:round; stroke-width:2; stroke-opacity:0.1; fill:none" points="322.73,1423.18 322.73,123.472 "/>
<polyline clip-path="url(#clip632)" style="stroke:#000000; stroke-linecap:round; stroke-linejoin:round; stroke-width:2; stroke-opacity:0.1; fill:none" points="635.643,1423.18 635.643,123.472 "/>
<polyline clip-path="url(#clip632)" style="stroke:#000000; stroke-linecap:round; stroke-linejoin:round; stroke-width:2; stroke-opacity:0.1; fill:none" points="948.557,1423.18 948.557,123.472 "/>
<polyline clip-path="url(#clip632)" style="stroke:#000000; stroke-linecap:round; stroke-linejoin:round; stroke-width:2; stroke-opacity:0.1; fill:none" points="1261.47,1423.18 1261.47,123.472 "/>
<polyline clip-path="url(#clip632)" style="stroke:#000000; stroke-linecap:round; stroke-linejoin:round; stroke-width:2; stroke-opacity:0.1; fill:none" points="1574.38,1423.18 1574.38,123.472 "/>
<polyline clip-path="url(#clip632)" style="stroke:#000000; stroke-linecap:round; stroke-linejoin:round; stroke-width:2; stroke-opacity:0.1; fill:none" points="1887.3,1423.18 1887.3,123.472 "/>
<polyline clip-path="url(#clip632)" style="stroke:#000000; stroke-linecap:round; stroke-linejoin:round; stroke-width:2; stroke-opacity:0.1; fill:none" points="2200.21,1423.18 2200.21,123.472 "/>
<polyline clip-path="url(#clip632)" style="stroke:#000000; stroke-linecap:round; stroke-linejoin:round; stroke-width:2; stroke-opacity:0.1; fill:none" points="279.704,1386.4 2352.76,1386.4 "/>
<polyline clip-path="url(#clip632)" style="stroke:#000000; stroke-linecap:round; stroke-linejoin:round; stroke-width:2; stroke-opacity:0.1; fill:none" points="279.704,1102.57 2352.76,1102.57 "/>
<polyline clip-path="url(#clip632)" style="stroke:#000000; stroke-linecap:round; stroke-linejoin:round; stroke-width:2; stroke-opacity:0.1; fill:none" points="279.704,818.739 2352.76,818.739 "/>
<polyline clip-path="url(#clip632)" style="stroke:#000000; stroke-linecap:round; stroke-linejoin:round; stroke-width:2; stroke-opacity:0.1; fill:none" points="279.704,534.91 2352.76,534.91 "/>
<polyline clip-path="url(#clip632)" style="stroke:#000000; stroke-linecap:round; stroke-linejoin:round; stroke-width:2; stroke-opacity:0.1; fill:none" points="279.704,251.081 2352.76,251.081 "/>
<polyline clip-path="url(#clip630)" style="stroke:#000000; stroke-linecap:round; stroke-linejoin:round; stroke-width:4; stroke-opacity:1; fill:none" points="279.704,1423.18 2352.76,1423.18 "/>
<polyline clip-path="url(#clip630)" style="stroke:#000000; stroke-linecap:round; stroke-linejoin:round; stroke-width:4; stroke-opacity:1; fill:none" points="322.73,1423.18 322.73,1404.28 "/>
<polyline clip-path="url(#clip630)" style="stroke:#000000; stroke-linecap:round; stroke-linejoin:round; stroke-width:4; stroke-opacity:1; fill:none" points="635.643,1423.18 635.643,1404.28 "/>
<polyline clip-path="url(#clip630)" style="stroke:#000000; stroke-linecap:round; stroke-linejoin:round; stroke-width:4; stroke-opacity:1; fill:none" points="948.557,1423.18 948.557,1404.28 "/>
<polyline clip-path="url(#clip630)" style="stroke:#000000; stroke-linecap:round; stroke-linejoin:round; stroke-width:4; stroke-opacity:1; fill:none" points="1261.47,1423.18 1261.47,1404.28 "/>
<polyline clip-path="url(#clip630)" style="stroke:#000000; stroke-linecap:round; stroke-linejoin:round; stroke-width:4; stroke-opacity:1; fill:none" points="1574.38,1423.18 1574.38,1404.28 "/>
<polyline clip-path="url(#clip630)" style="stroke:#000000; stroke-linecap:round; stroke-linejoin:round; stroke-width:4; stroke-opacity:1; fill:none" points="1887.3,1423.18 1887.3,1404.28 "/>
<polyline clip-path="url(#clip630)" style="stroke:#000000; stroke-linecap:round; stroke-linejoin:round; stroke-width:4; stroke-opacity:1; fill:none" points="2200.21,1423.18 2200.21,1404.28 "/>
<path clip-path="url(#clip630)" d="M322.73 1454.1 Q319.118 1454.1 317.29 1457.66 Q315.484 1461.2 315.484 1468.33 Q315.484 1475.44 317.29 1479.01 Q319.118 1482.55 322.73 1482.55 Q326.364 1482.55 328.169 1479.01 Q329.998 1475.44 329.998 1468.33 Q329.998 1461.2 328.169 1457.66 Q326.364 1454.1 322.73 1454.1 M322.73 1450.39 Q328.54 1450.39 331.595 1455 Q334.674 1459.58 334.674 1468.33 Q334.674 1477.06 331.595 1481.67 Q328.54 1486.25 322.73 1486.25 Q316.919 1486.25 313.841 1481.67 Q310.785 1477.06 310.785 1468.33 Q310.785 1459.58 313.841 1455 Q316.919 1450.39 322.73 1450.39 Z" fill="#000000" fill-rule="nonzero" fill-opacity="1" /><path clip-path="url(#clip630)" d="M614.416 1481.64 L630.736 1481.64 L630.736 1485.58 L608.791 1485.58 L608.791 1481.64 Q611.453 1478.89 616.037 1474.26 Q620.643 1469.61 621.824 1468.27 Q624.069 1465.74 624.949 1464.01 Q625.851 1462.25 625.851 1460.56 Q625.851 1457.8 623.907 1456.07 Q621.986 1454.33 618.884 1454.33 Q616.685 1454.33 614.231 1455.09 Q611.801 1455.86 609.023 1457.41 L609.023 1452.69 Q611.847 1451.55 614.301 1450.97 Q616.754 1450.39 618.791 1450.39 Q624.162 1450.39 627.356 1453.08 Q630.55 1455.77 630.55 1460.26 Q630.55 1462.39 629.74 1464.31 Q628.953 1466.2 626.847 1468.8 Q626.268 1469.47 623.166 1472.69 Q620.064 1475.88 614.416 1481.64 Z" fill="#000000" fill-rule="nonzero" fill-opacity="1" /><path clip-path="url(#clip630)" d="M650.55 1454.1 Q646.939 1454.1 645.111 1457.66 Q643.305 1461.2 643.305 1468.33 Q643.305 1475.44 645.111 1479.01 Q646.939 1482.55 650.55 1482.55 Q654.185 1482.55 655.99 1479.01 Q657.819 1475.44 657.819 1468.33 Q657.819 1461.2 655.99 1457.66 Q654.185 1454.1 650.55 1454.1 M650.55 1450.39 Q656.361 1450.39 659.416 1455 Q662.495 1459.58 662.495 1468.33 Q662.495 1477.06 659.416 1481.67 Q656.361 1486.25 650.55 1486.25 Q644.74 1486.25 641.662 1481.67 Q638.606 1477.06 638.606 1468.33 Q638.606 1459.58 641.662 1455 Q644.74 1450.39 650.55 1450.39 Z" fill="#000000" fill-rule="nonzero" fill-opacity="1" /><path clip-path="url(#clip630)" d="M936.728 1455.09 L924.922 1473.54 L936.728 1473.54 L936.728 1455.09 M935.501 1451.02 L941.381 1451.02 L941.381 1473.54 L946.311 1473.54 L946.311 1477.43 L941.381 1477.43 L941.381 1485.58 L936.728 1485.58 L936.728 1477.43 L921.126 1477.43 L921.126 1472.92 L935.501 1451.02 Z" fill="#000000" fill-rule="nonzero" fill-opacity="1" /><path clip-path="url(#clip630)" d="M964.043 1454.1 Q960.431 1454.1 958.603 1457.66 Q956.797 1461.2 956.797 1468.33 Q956.797 1475.44 958.603 1479.01 Q960.431 1482.55 964.043 1482.55 Q967.677 1482.55 969.482 1479.01 Q971.311 1475.44 971.311 1468.33 Q971.311 1461.2 969.482 1457.66 Q967.677 1454.1 964.043 1454.1 M964.043 1450.39 Q969.853 1450.39 972.908 1455 Q975.987 1459.58 975.987 1468.33 Q975.987 1477.06 972.908 1481.67 Q969.853 1486.25 964.043 1486.25 Q958.232 1486.25 955.154 1481.67 Q952.098 1477.06 952.098 1468.33 Q952.098 1459.58 955.154 1455 Q958.232 1450.39 964.043 1450.39 Z" fill="#000000" fill-rule="nonzero" fill-opacity="1" /><path clip-path="url(#clip630)" d="M1246.88 1466.44 Q1243.73 1466.44 1241.88 1468.59 Q1240.05 1470.74 1240.05 1474.49 Q1240.05 1478.22 1241.88 1480.39 Q1243.73 1482.55 1246.88 1482.55 Q1250.02 1482.55 1251.85 1480.39 Q1253.7 1478.22 1253.7 1474.49 Q1253.7 1470.74 1251.85 1468.59 Q1250.02 1466.44 1246.88 1466.44 M1256.16 1451.78 L1256.16 1456.04 Q1254.4 1455.21 1252.59 1454.77 Q1250.81 1454.33 1249.05 1454.33 Q1244.42 1454.33 1241.97 1457.45 Q1239.54 1460.58 1239.19 1466.9 Q1240.56 1464.89 1242.62 1463.82 Q1244.68 1462.73 1247.15 1462.73 Q1252.36 1462.73 1255.37 1465.9 Q1258.4 1469.05 1258.4 1474.49 Q1258.4 1479.82 1255.25 1483.03 Q1252.11 1486.25 1246.88 1486.25 Q1240.88 1486.25 1237.71 1481.67 Q1234.54 1477.06 1234.54 1468.33 Q1234.54 1460.14 1238.43 1455.28 Q1242.32 1450.39 1248.87 1450.39 Q1250.63 1450.39 1252.41 1450.74 Q1254.21 1451.09 1256.16 1451.78 Z" fill="#000000" fill-rule="nonzero" fill-opacity="1" /><path clip-path="url(#clip630)" d="M1276.46 1454.1 Q1272.85 1454.1 1271.02 1457.66 Q1269.21 1461.2 1269.21 1468.33 Q1269.21 1475.44 1271.02 1479.01 Q1272.85 1482.55 1276.46 1482.55 Q1280.09 1482.55 1281.9 1479.01 Q1283.73 1475.44 1283.73 1468.33 Q1283.73 1461.2 1281.9 1457.66 Q1280.09 1454.1 1276.46 1454.1 M1276.46 1450.39 Q1282.27 1450.39 1285.32 1455 Q1288.4 1459.58 1288.4 1468.33 Q1288.4 1477.06 1285.32 1481.67 Q1282.27 1486.25 1276.46 1486.25 Q1270.65 1486.25 1267.57 1481.67 Q1264.51 1477.06 1264.51 1468.33 Q1264.51 1459.58 1267.57 1455 Q1270.65 1450.39 1276.46 1450.39 Z" fill="#000000" fill-rule="nonzero" fill-opacity="1" /><path clip-path="url(#clip630)" d="M1559.26 1469.17 Q1555.92 1469.17 1554 1470.95 Q1552.1 1472.73 1552.1 1475.86 Q1552.1 1478.98 1554 1480.77 Q1555.92 1482.55 1559.26 1482.55 Q1562.59 1482.55 1564.51 1480.77 Q1566.43 1478.96 1566.43 1475.86 Q1566.43 1472.73 1564.51 1470.95 Q1562.61 1469.17 1559.26 1469.17 M1554.58 1467.18 Q1551.57 1466.44 1549.88 1464.38 Q1548.21 1462.32 1548.21 1459.35 Q1548.21 1455.21 1551.15 1452.8 Q1554.12 1450.39 1559.26 1450.39 Q1564.42 1450.39 1567.36 1452.8 Q1570.3 1455.21 1570.3 1459.35 Q1570.3 1462.32 1568.61 1464.38 Q1566.94 1466.44 1563.96 1467.18 Q1567.33 1467.96 1569.21 1470.26 Q1571.11 1472.55 1571.11 1475.86 Q1571.11 1480.88 1568.03 1483.57 Q1564.97 1486.25 1559.26 1486.25 Q1553.54 1486.25 1550.46 1483.57 Q1547.4 1480.88 1547.4 1475.86 Q1547.4 1472.55 1549.3 1470.26 Q1551.2 1467.96 1554.58 1467.18 M1552.87 1459.79 Q1552.87 1462.48 1554.53 1463.98 Q1556.22 1465.49 1559.26 1465.49 Q1562.27 1465.49 1563.96 1463.98 Q1565.67 1462.48 1565.67 1459.79 Q1565.67 1457.11 1563.96 1455.6 Q1562.27 1454.1 1559.26 1454.1 Q1556.22 1454.1 1554.53 1455.6 Q1552.87 1457.11 1552.87 1459.79 Z" fill="#000000" fill-rule="nonzero" fill-opacity="1" /><path clip-path="url(#clip630)" d="M1589.42 1454.1 Q1585.81 1454.1 1583.98 1457.66 Q1582.17 1461.2 1582.17 1468.33 Q1582.17 1475.44 1583.98 1479.01 Q1585.81 1482.55 1589.42 1482.55 Q1593.05 1482.55 1594.86 1479.01 Q1596.69 1475.44 1596.69 1468.33 Q1596.69 1461.2 1594.86 1457.66 Q1593.05 1454.1 1589.42 1454.1 M1589.42 1450.39 Q1595.23 1450.39 1598.28 1455 Q1601.36 1459.58 1601.36 1468.33 Q1601.36 1477.06 1598.28 1481.67 Q1595.23 1486.25 1589.42 1486.25 Q1583.61 1486.25 1580.53 1481.67 Q1577.47 1477.06 1577.47 1468.33 Q1577.47 1459.58 1580.53 1455 Q1583.61 1450.39 1589.42 1450.39 Z" fill="#000000" fill-rule="nonzero" fill-opacity="1" /><path clip-path="url(#clip630)" d="M1846.9 1481.64 L1854.54 1481.64 L1854.54 1455.28 L1846.23 1456.95 L1846.23 1452.69 L1854.5 1451.02 L1859.17 1451.02 L1859.17 1481.64 L1866.81 1481.64 L1866.81 1485.58 L1846.9 1485.58 L1846.9 1481.64 Z" fill="#000000" fill-rule="nonzero" fill-opacity="1" /><path clip-path="url(#clip630)" d="M1886.26 1454.1 Q1882.64 1454.1 1880.82 1457.66 Q1879.01 1461.2 1879.01 1468.33 Q1879.01 1475.44 1880.82 1479.01 Q1882.64 1482.55 1886.26 1482.55 Q1889.89 1482.55 1891.7 1479.01 Q1893.52 1475.44 1893.52 1468.33 Q1893.52 1461.2 1891.7 1457.66 Q1889.89 1454.1 1886.26 1454.1 M1886.26 1450.39 Q1892.07 1450.39 1895.12 1455 Q1898.2 1459.58 1898.2 1468.33 Q1898.2 1477.06 1895.12 1481.67 Q1892.07 1486.25 1886.26 1486.25 Q1880.45 1486.25 1877.37 1481.67 Q1874.31 1477.06 1874.31 1468.33 Q1874.31 1459.58 1877.37 1455 Q1880.45 1450.39 1886.26 1450.39 Z" fill="#000000" fill-rule="nonzero" fill-opacity="1" /><path clip-path="url(#clip630)" d="M1916.42 1454.1 Q1912.81 1454.1 1910.98 1457.66 Q1909.17 1461.2 1909.17 1468.33 Q1909.17 1475.44 1910.98 1479.01 Q1912.81 1482.55 1916.42 1482.55 Q1920.05 1482.55 1921.86 1479.01 Q1923.69 1475.44 1923.69 1468.33 Q1923.69 1461.2 1921.86 1457.66 Q1920.05 1454.1 1916.42 1454.1 M1916.42 1450.39 Q1922.23 1450.39 1925.28 1455 Q1928.36 1459.58 1928.36 1468.33 Q1928.36 1477.06 1925.28 1481.67 Q1922.23 1486.25 1916.42 1486.25 Q1910.61 1486.25 1907.53 1481.67 Q1904.47 1477.06 1904.47 1468.33 Q1904.47 1459.58 1907.53 1455 Q1910.61 1450.39 1916.42 1450.39 Z" fill="#000000" fill-rule="nonzero" fill-opacity="1" /><path clip-path="url(#clip630)" d="M2159.82 1481.64 L2167.46 1481.64 L2167.46 1455.28 L2159.15 1456.95 L2159.15 1452.69 L2167.41 1451.02 L2172.09 1451.02 L2172.09 1481.64 L2179.72 1481.64 L2179.72 1485.58 L2159.82 1485.58 L2159.82 1481.64 Z" fill="#000000" fill-rule="nonzero" fill-opacity="1" /><path clip-path="url(#clip630)" d="M2193.2 1481.64 L2209.52 1481.64 L2209.52 1485.58 L2187.57 1485.58 L2187.57 1481.64 Q2190.23 1478.89 2194.82 1474.26 Q2199.42 1469.61 2200.6 1468.27 Q2202.85 1465.74 2203.73 1464.01 Q2204.63 1462.25 2204.63 1460.56 Q2204.63 1457.8 2202.69 1456.07 Q2200.77 1454.33 2197.66 1454.33 Q2195.47 1454.33 2193.01 1455.09 Q2190.58 1455.86 2187.8 1457.41 L2187.8 1452.69 Q2190.63 1451.55 2193.08 1450.97 Q2195.53 1450.39 2197.57 1450.39 Q2202.94 1450.39 2206.14 1453.08 Q2209.33 1455.77 2209.33 1460.26 Q2209.33 1462.39 2208.52 1464.31 Q2207.73 1466.2 2205.63 1468.8 Q2205.05 1469.47 2201.95 1472.69 Q2198.84 1475.88 2193.2 1481.64 Z" fill="#000000" fill-rule="nonzero" fill-opacity="1" /><path clip-path="url(#clip630)" d="M2229.33 1454.1 Q2225.72 1454.1 2223.89 1457.66 Q2222.09 1461.2 2222.09 1468.33 Q2222.09 1475.44 2223.89 1479.01 Q2225.72 1482.55 2229.33 1482.55 Q2232.97 1482.55 2234.77 1479.01 Q2236.6 1475.44 2236.6 1468.33 Q2236.6 1461.2 2234.77 1457.66 Q2232.97 1454.1 2229.33 1454.1 M2229.33 1450.39 Q2235.14 1450.39 2238.2 1455 Q2241.28 1459.58 2241.28 1468.33 Q2241.28 1477.06 2238.2 1481.67 Q2235.14 1486.25 2229.33 1486.25 Q2223.52 1486.25 2220.44 1481.67 Q2217.39 1477.06 2217.39 1468.33 Q2217.39 1459.58 2220.44 1455 Q2223.52 1450.39 2229.33 1450.39 Z" fill="#000000" fill-rule="nonzero" fill-opacity="1" /><path clip-path="url(#clip630)" d="M1238.11 1520.52 L1278.31 1520.52 L1278.31 1525.93 L1261.44 1525.93 L1261.44 1568.04 L1254.98 1568.04 L1254.98 1525.93 L1238.11 1525.93 L1238.11 1520.52 Z" fill="#000000" fill-rule="nonzero" fill-opacity="1" /><path clip-path="url(#clip630)" d="M1282.25 1532.4 L1288.11 1532.4 L1288.11 1568.04 L1282.25 1568.04 L1282.25 1532.4 M1282.25 1518.52 L1288.11 1518.52 L1288.11 1525.93 L1282.25 1525.93 L1282.25 1518.52 Z" fill="#000000" fill-rule="nonzero" fill-opacity="1" /><path clip-path="url(#clip630)" d="M1328.12 1539.24 Q1330.31 1535.29 1333.37 1533.41 Q1336.43 1531.54 1340.56 1531.54 Q1346.13 1531.54 1349.16 1535.45 Q1352.18 1539.33 1352.18 1546.53 L1352.18 1568.04 L1346.29 1568.04 L1346.29 1546.72 Q1346.29 1541.59 1344.48 1539.11 Q1342.66 1536.63 1338.94 1536.63 Q1334.39 1536.63 1331.75 1539.65 Q1329.1 1542.68 1329.1 1547.9 L1329.1 1568.04 L1323.22 1568.04 L1323.22 1546.72 Q1323.22 1541.56 1321.4 1539.11 Q1319.59 1536.63 1315.8 1536.63 Q1311.31 1536.63 1308.67 1539.68 Q1306.03 1542.71 1306.03 1547.9 L1306.03 1568.04 L1300.14 1568.04 L1300.14 1532.4 L1306.03 1532.4 L1306.03 1537.93 Q1308.03 1534.66 1310.83 1533.1 Q1313.64 1531.54 1317.49 1531.54 Q1321.37 1531.54 1324.08 1533.51 Q1326.81 1535.48 1328.12 1539.24 Z" fill="#000000" fill-rule="nonzero" fill-opacity="1" /><path clip-path="url(#clip630)" d="M1394.35 1548.76 L1394.35 1551.62 L1367.43 1551.62 Q1367.81 1557.67 1371.05 1560.85 Q1374.33 1564 1380.16 1564 Q1383.53 1564 1386.68 1563.17 Q1389.87 1562.35 1392.98 1560.69 L1392.98 1566.23 Q1389.83 1567.57 1386.52 1568.27 Q1383.21 1568.97 1379.81 1568.97 Q1371.28 1568.97 1366.28 1564 Q1361.32 1559.04 1361.32 1550.57 Q1361.32 1541.82 1366.03 1536.69 Q1370.77 1531.54 1378.79 1531.54 Q1385.98 1531.54 1390.15 1536.18 Q1394.35 1540.8 1394.35 1548.76 M1388.5 1547.04 Q1388.43 1542.23 1385.79 1539.37 Q1383.18 1536.5 1378.85 1536.5 Q1373.95 1536.5 1370.99 1539.27 Q1368.06 1542.04 1367.62 1547.07 L1388.5 1547.04 Z" fill="#000000" fill-rule="nonzero" fill-opacity="1" /><polyline clip-path="url(#clip630)" style="stroke:#000000; stroke-linecap:round; stroke-linejoin:round; stroke-width:4; stroke-opacity:1; fill:none" points="279.704,1423.18 279.704,123.472 "/>
<polyline clip-path="url(#clip630)" style="stroke:#000000; stroke-linecap:round; stroke-linejoin:round; stroke-width:4; stroke-opacity:1; fill:none" points="279.704,1386.4 298.602,1386.4 "/>
<polyline clip-path="url(#clip630)" style="stroke:#000000; stroke-linecap:round; stroke-linejoin:round; stroke-width:4; stroke-opacity:1; fill:none" points="279.704,1102.57 298.602,1102.57 "/>
<polyline clip-path="url(#clip630)" style="stroke:#000000; stroke-linecap:round; stroke-linejoin:round; stroke-width:4; stroke-opacity:1; fill:none" points="279.704,818.739 298.602,818.739 "/>
<polyline clip-path="url(#clip630)" style="stroke:#000000; stroke-linecap:round; stroke-linejoin:round; stroke-width:4; stroke-opacity:1; fill:none" points="279.704,534.91 298.602,534.91 "/>
<polyline clip-path="url(#clip630)" style="stroke:#000000; stroke-linecap:round; stroke-linejoin:round; stroke-width:4; stroke-opacity:1; fill:none" points="279.704,251.081 298.602,251.081 "/>
<path clip-path="url(#clip630)" d="M126.205 1372.19 Q122.593 1372.19 120.765 1375.76 Q118.959 1379.3 118.959 1386.43 Q118.959 1393.54 120.765 1397.1 Q122.593 1400.64 126.205 1400.64 Q129.839 1400.64 131.644 1397.1 Q133.473 1393.54 133.473 1386.43 Q133.473 1379.3 131.644 1375.76 Q129.839 1372.19 126.205 1372.19 M126.205 1368.49 Q132.015 1368.49 135.07 1373.1 Q138.149 1377.68 138.149 1386.43 Q138.149 1395.16 135.07 1399.76 Q132.015 1404.35 126.205 1404.35 Q120.394 1404.35 117.316 1399.76 Q114.26 1395.16 114.26 1386.43 Q114.26 1377.68 117.316 1373.1 Q120.394 1368.49 126.205 1368.49 Z" fill="#000000" fill-rule="nonzero" fill-opacity="1" /><path clip-path="url(#clip630)" d="M146.366 1397.8 L151.251 1397.8 L151.251 1403.68 L146.366 1403.68 L146.366 1397.8 Z" fill="#000000" fill-rule="nonzero" fill-opacity="1" /><path clip-path="url(#clip630)" d="M171.436 1372.19 Q167.825 1372.19 165.996 1375.76 Q164.19 1379.3 164.19 1386.43 Q164.19 1393.54 165.996 1397.1 Q167.825 1400.64 171.436 1400.64 Q175.07 1400.64 176.876 1397.1 Q178.704 1393.54 178.704 1386.43 Q178.704 1379.3 176.876 1375.76 Q175.07 1372.19 171.436 1372.19 M171.436 1368.49 Q177.246 1368.49 180.301 1373.1 Q183.38 1377.68 183.38 1386.43 Q183.38 1395.16 180.301 1399.76 Q177.246 1404.35 171.436 1404.35 Q165.626 1404.35 162.547 1399.76 Q159.491 1395.16 159.491 1386.43 Q159.491 1377.68 162.547 1373.1 Q165.626 1368.49 171.436 1368.49 Z" fill="#000000" fill-rule="nonzero" fill-opacity="1" /><path clip-path="url(#clip630)" d="M201.598 1372.19 Q197.987 1372.19 196.158 1375.76 Q194.352 1379.3 194.352 1386.43 Q194.352 1393.54 196.158 1397.1 Q197.987 1400.64 201.598 1400.64 Q205.232 1400.64 207.037 1397.1 Q208.866 1393.54 208.866 1386.43 Q208.866 1379.3 207.037 1375.76 Q205.232 1372.19 201.598 1372.19 M201.598 1368.49 Q207.408 1368.49 210.463 1373.1 Q213.542 1377.68 213.542 1386.43 Q213.542 1395.16 210.463 1399.76 Q207.408 1404.35 201.598 1404.35 Q195.787 1404.35 192.709 1399.76 Q189.653 1395.16 189.653 1386.43 Q189.653 1377.68 192.709 1373.1 Q195.787 1368.49 201.598 1368.49 Z" fill="#000000" fill-rule="nonzero" fill-opacity="1" /><path clip-path="url(#clip630)" d="M231.76 1372.19 Q228.148 1372.19 226.32 1375.76 Q224.514 1379.3 224.514 1386.43 Q224.514 1393.54 226.32 1397.1 Q228.148 1400.64 231.76 1400.64 Q235.394 1400.64 237.199 1397.1 Q239.028 1393.54 239.028 1386.43 Q239.028 1379.3 237.199 1375.76 Q235.394 1372.19 231.76 1372.19 M231.76 1368.49 Q237.57 1368.49 240.625 1373.1 Q243.704 1377.68 243.704 1386.43 Q243.704 1395.16 240.625 1399.76 Q237.57 1404.35 231.76 1404.35 Q225.949 1404.35 222.871 1399.76 Q219.815 1395.16 219.815 1386.43 Q219.815 1377.68 222.871 1373.1 Q225.949 1368.49 231.76 1368.49 Z" fill="#000000" fill-rule="nonzero" fill-opacity="1" /><path clip-path="url(#clip630)" d="M127.2 1088.37 Q123.589 1088.37 121.76 1091.93 Q119.955 1095.47 119.955 1102.6 Q119.955 1109.71 121.76 1113.27 Q123.589 1116.81 127.2 1116.81 Q130.834 1116.81 132.64 1113.27 Q134.468 1109.71 134.468 1102.6 Q134.468 1095.47 132.64 1091.93 Q130.834 1088.37 127.2 1088.37 M127.2 1084.66 Q133.01 1084.66 136.066 1089.27 Q139.144 1093.85 139.144 1102.6 Q139.144 1111.33 136.066 1115.94 Q133.01 1120.52 127.2 1120.52 Q121.39 1120.52 118.311 1115.94 Q115.256 1111.33 115.256 1102.6 Q115.256 1093.85 118.311 1089.27 Q121.39 1084.66 127.2 1084.66 Z" fill="#000000" fill-rule="nonzero" fill-opacity="1" /><path clip-path="url(#clip630)" d="M147.362 1113.97 L152.246 1113.97 L152.246 1119.85 L147.362 1119.85 L147.362 1113.97 Z" fill="#000000" fill-rule="nonzero" fill-opacity="1" /><path clip-path="url(#clip630)" d="M172.431 1088.37 Q168.82 1088.37 166.991 1091.93 Q165.186 1095.47 165.186 1102.6 Q165.186 1109.71 166.991 1113.27 Q168.82 1116.81 172.431 1116.81 Q176.065 1116.81 177.871 1113.27 Q179.7 1109.71 179.7 1102.6 Q179.7 1095.47 177.871 1091.93 Q176.065 1088.37 172.431 1088.37 M172.431 1084.66 Q178.241 1084.66 181.297 1089.27 Q184.376 1093.85 184.376 1102.6 Q184.376 1111.33 181.297 1115.94 Q178.241 1120.52 172.431 1120.52 Q166.621 1120.52 163.542 1115.94 Q160.487 1111.33 160.487 1102.6 Q160.487 1093.85 163.542 1089.27 Q166.621 1084.66 172.431 1084.66 Z" fill="#000000" fill-rule="nonzero" fill-opacity="1" /><path clip-path="url(#clip630)" d="M196.621 1115.91 L212.94 1115.91 L212.94 1119.85 L190.996 1119.85 L190.996 1115.91 Q193.658 1113.16 198.241 1108.53 Q202.848 1103.87 204.028 1102.53 Q206.274 1100.01 207.153 1098.27 Q208.056 1096.51 208.056 1094.82 Q208.056 1092.07 206.112 1090.33 Q204.19 1088.6 201.088 1088.6 Q198.889 1088.6 196.436 1089.36 Q194.005 1090.13 191.227 1091.68 L191.227 1086.95 Q194.051 1085.82 196.505 1085.24 Q198.959 1084.66 200.996 1084.66 Q206.366 1084.66 209.561 1087.35 Q212.755 1090.03 212.755 1094.52 Q212.755 1096.65 211.945 1098.57 Q211.158 1100.47 209.051 1103.06 Q208.473 1103.74 205.371 1106.95 Q202.269 1110.15 196.621 1115.91 Z" fill="#000000" fill-rule="nonzero" fill-opacity="1" /><path clip-path="url(#clip630)" d="M222.801 1085.29 L241.158 1085.29 L241.158 1089.22 L227.084 1089.22 L227.084 1097.69 Q228.102 1097.35 229.121 1097.19 Q230.139 1097 231.158 1097 Q236.945 1097 240.324 1100.17 Q243.704 1103.34 243.704 1108.76 Q243.704 1114.34 240.232 1117.44 Q236.76 1120.52 230.44 1120.52 Q228.264 1120.52 225.996 1120.15 Q223.75 1119.78 221.343 1119.04 L221.343 1114.34 Q223.426 1115.47 225.648 1116.03 Q227.871 1116.58 230.347 1116.58 Q234.352 1116.58 236.69 1114.48 Q239.028 1112.37 239.028 1108.76 Q239.028 1105.15 236.69 1103.04 Q234.352 1100.94 230.347 1100.94 Q228.473 1100.94 226.598 1101.35 Q224.746 1101.77 222.801 1102.65 L222.801 1085.29 Z" fill="#000000" fill-rule="nonzero" fill-opacity="1" /><path clip-path="url(#clip630)" d="M126.205 804.537 Q122.593 804.537 120.765 808.102 Q118.959 811.644 118.959 818.773 Q118.959 825.88 120.765 829.445 Q122.593 832.986 126.205 832.986 Q129.839 832.986 131.644 829.445 Q133.473 825.88 133.473 818.773 Q133.473 811.644 131.644 808.102 Q129.839 804.537 126.205 804.537 M126.205 800.834 Q132.015 800.834 135.07 805.44 Q138.149 810.023 138.149 818.773 Q138.149 827.5 135.07 832.107 Q132.015 836.69 126.205 836.69 Q120.394 836.69 117.316 832.107 Q114.26 827.5 114.26 818.773 Q114.26 810.023 117.316 805.44 Q120.394 800.834 126.205 800.834 Z" fill="#000000" fill-rule="nonzero" fill-opacity="1" /><path clip-path="url(#clip630)" d="M146.366 830.139 L151.251 830.139 L151.251 836.019 L146.366 836.019 L146.366 830.139 Z" fill="#000000" fill-rule="nonzero" fill-opacity="1" /><path clip-path="url(#clip630)" d="M171.436 804.537 Q167.825 804.537 165.996 808.102 Q164.19 811.644 164.19 818.773 Q164.19 825.88 165.996 829.445 Q167.825 832.986 171.436 832.986 Q175.07 832.986 176.876 829.445 Q178.704 825.88 178.704 818.773 Q178.704 811.644 176.876 808.102 Q175.07 804.537 171.436 804.537 M171.436 800.834 Q177.246 800.834 180.301 805.44 Q183.38 810.023 183.38 818.773 Q183.38 827.5 180.301 832.107 Q177.246 836.69 171.436 836.69 Q165.626 836.69 162.547 832.107 Q159.491 827.5 159.491 818.773 Q159.491 810.023 162.547 805.44 Q165.626 800.834 171.436 800.834 Z" fill="#000000" fill-rule="nonzero" fill-opacity="1" /><path clip-path="url(#clip630)" d="M191.644 801.459 L210 801.459 L210 805.394 L195.926 805.394 L195.926 813.866 Q196.945 813.519 197.963 813.357 Q198.982 813.171 200 813.171 Q205.787 813.171 209.167 816.343 Q212.547 819.514 212.547 824.931 Q212.547 830.509 209.074 833.611 Q205.602 836.69 199.283 836.69 Q197.107 836.69 194.838 836.319 Q192.593 835.949 190.186 835.208 L190.186 830.509 Q192.269 831.644 194.491 832.199 Q196.713 832.755 199.19 832.755 Q203.195 832.755 205.533 830.648 Q207.871 828.542 207.871 824.931 Q207.871 821.32 205.533 819.213 Q203.195 817.107 199.19 817.107 Q197.315 817.107 195.44 817.523 Q193.588 817.94 191.644 818.82 L191.644 801.459 Z" fill="#000000" fill-rule="nonzero" fill-opacity="1" /><path clip-path="url(#clip630)" d="M231.76 804.537 Q228.148 804.537 226.32 808.102 Q224.514 811.644 224.514 818.773 Q224.514 825.88 226.32 829.445 Q228.148 832.986 231.76 832.986 Q235.394 832.986 237.199 829.445 Q239.028 825.88 239.028 818.773 Q239.028 811.644 237.199 808.102 Q235.394 804.537 231.76 804.537 M231.76 800.834 Q237.57 800.834 240.625 805.44 Q243.704 810.023 243.704 818.773 Q243.704 827.5 240.625 832.107 Q237.57 836.69 231.76 836.69 Q225.949 836.69 222.871 832.107 Q219.815 827.5 219.815 818.773 Q219.815 810.023 222.871 805.44 Q225.949 800.834 231.76 800.834 Z" fill="#000000" fill-rule="nonzero" fill-opacity="1" /><path clip-path="url(#clip630)" d="M127.2 520.709 Q123.589 520.709 121.76 524.273 Q119.955 527.815 119.955 534.945 Q119.955 542.051 121.76 545.616 Q123.589 549.158 127.2 549.158 Q130.834 549.158 132.64 545.616 Q134.468 542.051 134.468 534.945 Q134.468 527.815 132.64 524.273 Q130.834 520.709 127.2 520.709 M127.2 517.005 Q133.01 517.005 136.066 521.611 Q139.144 526.195 139.144 534.945 Q139.144 543.672 136.066 548.278 Q133.01 552.861 127.2 552.861 Q121.39 552.861 118.311 548.278 Q115.256 543.672 115.256 534.945 Q115.256 526.195 118.311 521.611 Q121.39 517.005 127.2 517.005 Z" fill="#000000" fill-rule="nonzero" fill-opacity="1" /><path clip-path="url(#clip630)" d="M147.362 546.31 L152.246 546.31 L152.246 552.19 L147.362 552.19 L147.362 546.31 Z" fill="#000000" fill-rule="nonzero" fill-opacity="1" /><path clip-path="url(#clip630)" d="M172.431 520.709 Q168.82 520.709 166.991 524.273 Q165.186 527.815 165.186 534.945 Q165.186 542.051 166.991 545.616 Q168.82 549.158 172.431 549.158 Q176.065 549.158 177.871 545.616 Q179.7 542.051 179.7 534.945 Q179.7 527.815 177.871 524.273 Q176.065 520.709 172.431 520.709 M172.431 517.005 Q178.241 517.005 181.297 521.611 Q184.376 526.195 184.376 534.945 Q184.376 543.672 181.297 548.278 Q178.241 552.861 172.431 552.861 Q166.621 552.861 163.542 548.278 Q160.487 543.672 160.487 534.945 Q160.487 526.195 163.542 521.611 Q166.621 517.005 172.431 517.005 Z" fill="#000000" fill-rule="nonzero" fill-opacity="1" /><path clip-path="url(#clip630)" d="M191.413 517.63 L213.635 517.63 L213.635 519.621 L201.088 552.19 L196.204 552.19 L208.01 521.565 L191.413 521.565 L191.413 517.63 Z" fill="#000000" fill-rule="nonzero" fill-opacity="1" /><path clip-path="url(#clip630)" d="M222.801 517.63 L241.158 517.63 L241.158 521.565 L227.084 521.565 L227.084 530.037 Q228.102 529.69 229.121 529.528 Q230.139 529.343 231.158 529.343 Q236.945 529.343 240.324 532.514 Q243.704 535.685 243.704 541.102 Q243.704 546.681 240.232 549.783 Q236.76 552.861 230.44 552.861 Q228.264 552.861 225.996 552.491 Q223.75 552.121 221.343 551.38 L221.343 546.681 Q223.426 547.815 225.648 548.371 Q227.871 548.926 230.347 548.926 Q234.352 548.926 236.69 546.82 Q239.028 544.713 239.028 541.102 Q239.028 537.491 236.69 535.385 Q234.352 533.278 230.347 533.278 Q228.473 533.278 226.598 533.695 Q224.746 534.111 222.801 534.991 L222.801 517.63 Z" fill="#000000" fill-rule="nonzero" fill-opacity="1" /><path clip-path="url(#clip630)" d="M126.205 236.88 Q122.593 236.88 120.765 240.445 Q118.959 243.987 118.959 251.116 Q118.959 258.223 120.765 261.787 Q122.593 265.329 126.205 265.329 Q129.839 265.329 131.644 261.787 Q133.473 258.223 133.473 251.116 Q133.473 243.987 131.644 240.445 Q129.839 236.88 126.205 236.88 M126.205 233.176 Q132.015 233.176 135.07 237.783 Q138.149 242.366 138.149 251.116 Q138.149 259.843 135.07 264.449 Q132.015 269.033 126.205 269.033 Q120.394 269.033 117.316 264.449 Q114.26 259.843 114.26 251.116 Q114.26 242.366 117.316 237.783 Q120.394 233.176 126.205 233.176 Z" fill="#000000" fill-rule="nonzero" fill-opacity="1" /><path clip-path="url(#clip630)" d="M146.366 262.482 L151.251 262.482 L151.251 268.361 L146.366 268.361 L146.366 262.482 Z" fill="#000000" fill-rule="nonzero" fill-opacity="1" /><path clip-path="url(#clip630)" d="M162.246 264.426 L169.885 264.426 L169.885 238.061 L161.575 239.727 L161.575 235.468 L169.839 233.801 L174.514 233.801 L174.514 264.426 L182.153 264.426 L182.153 268.361 L162.246 268.361 L162.246 264.426 Z" fill="#000000" fill-rule="nonzero" fill-opacity="1" /><path clip-path="url(#clip630)" d="M201.598 236.88 Q197.987 236.88 196.158 240.445 Q194.352 243.987 194.352 251.116 Q194.352 258.223 196.158 261.787 Q197.987 265.329 201.598 265.329 Q205.232 265.329 207.037 261.787 Q208.866 258.223 208.866 251.116 Q208.866 243.987 207.037 240.445 Q205.232 236.88 201.598 236.88 M201.598 233.176 Q207.408 233.176 210.463 237.783 Q213.542 242.366 213.542 251.116 Q213.542 259.843 210.463 264.449 Q207.408 269.033 201.598 269.033 Q195.787 269.033 192.709 264.449 Q189.653 259.843 189.653 251.116 Q189.653 242.366 192.709 237.783 Q195.787 233.176 201.598 233.176 Z" fill="#000000" fill-rule="nonzero" fill-opacity="1" /><path clip-path="url(#clip630)" d="M231.76 236.88 Q228.148 236.88 226.32 240.445 Q224.514 243.987 224.514 251.116 Q224.514 258.223 226.32 261.787 Q228.148 265.329 231.76 265.329 Q235.394 265.329 237.199 261.787 Q239.028 258.223 239.028 251.116 Q239.028 243.987 237.199 240.445 Q235.394 236.88 231.76 236.88 M231.76 233.176 Q237.57 233.176 240.625 237.783 Q243.704 242.366 243.704 251.116 Q243.704 259.843 240.625 264.449 Q237.57 269.033 231.76 269.033 Q225.949 269.033 222.871 264.449 Q219.815 259.843 219.815 251.116 Q219.815 242.366 222.871 237.783 Q225.949 233.176 231.76 233.176 Z" fill="#000000" fill-rule="nonzero" fill-opacity="1" /><path clip-path="url(#clip630)" d="M20.1444 820.225 L26.9239 820.225 Q23.9002 823.472 22.4043 827.164 Q20.9083 830.824 20.9083 834.962 Q20.9083 843.11 25.9054 847.439 Q30.8707 851.767 40.2919 851.767 Q49.6813 851.767 54.6784 847.439 Q59.6436 843.11 59.6436 834.962 Q59.6436 830.824 58.1477 827.164 Q56.6518 823.472 53.6281 820.225 L60.3439 820.225 Q62.6355 823.599 63.7814 827.387 Q64.9272 831.143 64.9272 835.344 Q64.9272 846.134 58.3387 852.34 Q51.7183 858.547 40.2919 858.547 Q28.8336 858.547 22.2451 852.34 Q15.6248 846.134 15.6248 835.344 Q15.6248 831.079 16.7706 827.323 Q17.8846 823.535 20.1444 820.225 Z" fill="#000000" fill-rule="nonzero" fill-opacity="1" /><path clip-path="url(#clip630)" d="M16.4842 816.883 L16.4842 776.684 L21.895 776.684 L21.895 793.553 L64.0042 793.553 L64.0042 800.014 L21.895 800.014 L21.895 816.883 L16.4842 816.883 Z" fill="#000000" fill-rule="nonzero" fill-opacity="1" /><path clip-path="url(#clip630)" d="M16.4842 770.477 L16.4842 761.82 L56.238 740.749 L16.4842 740.749 L16.4842 734.511 L64.0042 734.511 L64.0042 743.168 L24.2503 764.239 L64.0042 764.239 L64.0042 770.477 L16.4842 770.477 Z" fill="#000000" fill-rule="nonzero" fill-opacity="1" /><path clip-path="url(#clip630)" d="M16.4842 728.305 L16.4842 688.105 L21.895 688.105 L21.895 704.974 L64.0042 704.974 L64.0042 711.435 L21.895 711.435 L21.895 728.305 L16.4842 728.305 Z" fill="#000000" fill-rule="nonzero" fill-opacity="1" /><path clip-path="url(#clip630)" d="M1095.11 18.8205 L1095.11 41.5461 L1105.4 41.5461 Q1111.11 41.5461 1114.23 38.5889 Q1117.35 35.6318 1117.35 30.163 Q1117.35 24.7348 1114.23 21.7777 Q1111.11 18.8205 1105.4 18.8205 L1095.11 18.8205 M1086.93 12.096 L1105.4 12.096 Q1115.57 12.096 1120.75 16.714 Q1125.98 21.2916 1125.98 30.163 Q1125.98 39.1155 1120.75 43.6931 Q1115.57 48.2706 1105.4 48.2706 L1095.11 48.2706 L1095.11 72.576 L1086.93 72.576 L1086.93 12.096 Z" fill="#000000" fill-rule="nonzero" fill-opacity="1" /><path clip-path="url(#clip630)" d="M1153.53 49.7694 Q1144.49 49.7694 1141.01 51.8354 Q1137.52 53.9013 1137.52 58.8839 Q1137.52 62.8538 1140.12 65.2034 Q1142.75 67.5124 1147.25 67.5124 Q1153.44 67.5124 1157.17 63.1374 Q1160.94 58.7219 1160.94 51.4303 L1160.94 49.7694 L1153.53 49.7694 M1168.39 46.6907 L1168.39 72.576 L1160.94 72.576 L1160.94 65.6895 Q1158.39 69.8214 1154.58 71.8063 Q1150.77 73.7508 1145.26 73.7508 Q1138.29 73.7508 1134.16 69.8619 Q1130.07 65.9325 1130.07 59.3701 Q1130.07 51.7138 1135.17 47.825 Q1140.32 43.9361 1150.49 43.9361 L1160.94 43.9361 L1160.94 43.2069 Q1160.94 38.0623 1157.54 35.2672 Q1154.17 32.4315 1148.06 32.4315 Q1144.17 32.4315 1140.48 33.3632 Q1136.8 34.295 1133.39 36.1584 L1133.39 29.2718 Q1137.48 27.692 1141.33 26.9223 Q1145.18 26.1121 1148.83 26.1121 Q1158.67 26.1121 1163.53 31.2163 Q1168.39 36.3204 1168.39 46.6907 Z" fill="#000000" fill-rule="nonzero" fill-opacity="1" /><path clip-path="url(#clip630)" d="M1191.12 14.324 L1191.12 27.2059 L1206.47 27.2059 L1206.47 32.9987 L1191.12 32.9987 L1191.12 57.6282 Q1191.12 63.1779 1192.62 64.7578 Q1194.16 66.3376 1198.81 66.3376 L1206.47 66.3376 L1206.47 72.576 L1198.81 72.576 Q1190.19 72.576 1186.9 69.3758 Q1183.62 66.1351 1183.62 57.6282 L1183.62 32.9987 L1178.15 32.9987 L1178.15 27.2059 L1183.62 27.2059 L1183.62 14.324 L1191.12 14.324 Z" fill="#000000" fill-rule="nonzero" fill-opacity="1" /><path clip-path="url(#clip630)" d="M1216.27 27.2059 L1223.73 27.2059 L1223.73 72.576 L1216.27 72.576 L1216.27 27.2059 M1216.27 9.54393 L1223.73 9.54393 L1223.73 18.9825 L1216.27 18.9825 L1216.27 9.54393 Z" fill="#000000" fill-rule="nonzero" fill-opacity="1" /><path clip-path="url(#clip630)" d="M1278.13 48.0275 L1278.13 51.6733 L1243.86 51.6733 Q1244.35 59.3701 1248.48 63.421 Q1252.65 67.4314 1260.06 67.4314 Q1264.36 67.4314 1268.37 66.3781 Q1272.42 65.3249 1276.39 63.2184 L1276.39 70.267 Q1272.38 71.9684 1268.17 72.8596 Q1263.95 73.7508 1259.62 73.7508 Q1248.76 73.7508 1242.4 67.4314 Q1236.08 61.1119 1236.08 50.3365 Q1236.08 39.1965 1242.08 32.6746 Q1248.11 26.1121 1258.32 26.1121 Q1267.48 26.1121 1272.78 32.0264 Q1278.13 37.9003 1278.13 48.0275 M1270.68 45.84 Q1270.6 39.7232 1267.23 36.0774 Q1263.91 32.4315 1258.4 32.4315 Q1252.16 32.4315 1248.4 35.9558 Q1244.67 39.4801 1244.1 45.8805 L1270.68 45.84 Z" fill="#000000" fill-rule="nonzero" fill-opacity="1" /><path clip-path="url(#clip630)" d="M1328.08 45.1919 L1328.08 72.576 L1320.63 72.576 L1320.63 45.4349 Q1320.63 38.994 1318.11 35.7938 Q1315.6 32.5936 1310.58 32.5936 Q1304.54 32.5936 1301.06 36.4419 Q1297.58 40.2903 1297.58 46.9338 L1297.58 72.576 L1290.08 72.576 L1290.08 27.2059 L1297.58 27.2059 L1297.58 34.2544 Q1300.25 30.163 1303.85 28.1376 Q1307.5 26.1121 1312.24 26.1121 Q1320.06 26.1121 1324.07 30.9732 Q1328.08 35.7938 1328.08 45.1919 Z" fill="#000000" fill-rule="nonzero" fill-opacity="1" /><path clip-path="url(#clip630)" d="M1350.32 14.324 L1350.32 27.2059 L1365.67 27.2059 L1365.67 32.9987 L1350.32 32.9987 L1350.32 57.6282 Q1350.32 63.1779 1351.82 64.7578 Q1353.36 66.3376 1358.01 66.3376 L1365.67 66.3376 L1365.67 72.576 L1358.01 72.576 Q1349.39 72.576 1346.11 69.3758 Q1342.82 66.1351 1342.82 57.6282 L1342.82 32.9987 L1337.36 32.9987 L1337.36 27.2059 L1342.82 27.2059 L1342.82 14.324 L1350.32 14.324 Z" fill="#000000" fill-rule="nonzero" fill-opacity="1" /><path clip-path="url(#clip630)" d="M1439.56 45.1919 L1439.56 72.576 L1432.11 72.576 L1432.11 45.4349 Q1432.11 38.994 1429.59 35.7938 Q1427.08 32.5936 1422.06 32.5936 Q1416.02 32.5936 1412.54 36.4419 Q1409.06 40.2903 1409.06 46.9338 L1409.06 72.576 L1401.56 72.576 L1401.56 27.2059 L1409.06 27.2059 L1409.06 34.2544 Q1411.73 30.163 1415.34 28.1376 Q1418.98 26.1121 1423.72 26.1121 Q1431.54 26.1121 1435.55 30.9732 Q1439.56 35.7938 1439.56 45.1919 Z" fill="#000000" fill-rule="nonzero" fill-opacity="1" /><path clip-path="url(#clip630)" d="M1473.99 39.075 Q1468.48 39.075 1465.24 42.8424 Q1462.04 46.6097 1462.04 53.1722 Q1462.04 59.6941 1465.24 63.502 Q1468.48 67.2693 1473.99 67.2693 Q1479.5 67.2693 1482.7 63.502 Q1485.94 59.6941 1485.94 53.1722 Q1485.94 46.6097 1482.7 42.8424 Q1479.5 39.075 1473.99 39.075 M1490.24 13.4328 L1490.24 20.8865 Q1487.16 19.4281 1484 18.6585 Q1480.88 17.8888 1477.8 17.8888 Q1469.7 17.8888 1465.4 23.3575 Q1461.15 28.8262 1460.54 39.8852 Q1462.93 36.3609 1466.54 34.4975 Q1470.14 32.5936 1474.48 32.5936 Q1483.59 32.5936 1488.86 38.1433 Q1494.17 43.6525 1494.17 53.1722 Q1494.17 62.4892 1488.66 68.12 Q1483.15 73.7508 1473.99 73.7508 Q1463.5 73.7508 1457.95 65.73 Q1452.4 57.6687 1452.4 42.3968 Q1452.4 28.0566 1459.21 19.5497 Q1466.01 11.0023 1477.48 11.0023 Q1480.55 11.0023 1483.67 11.6099 Q1486.83 12.2175 1490.24 13.4328 Z" fill="#000000" fill-rule="nonzero" fill-opacity="1" /><path clip-path="url(#clip630)" d="M1533.05 39.9662 Q1538.93 41.222 1542.21 45.1919 Q1545.53 49.1618 1545.53 54.9951 Q1545.53 63.9476 1539.37 68.8492 Q1533.22 73.7508 1521.87 73.7508 Q1518.07 73.7508 1514.02 72.9811 Q1510 72.2519 1505.71 70.7531 L1505.71 62.8538 Q1509.11 64.8388 1513.16 65.8515 Q1517.22 66.8642 1521.63 66.8642 Q1529.33 66.8642 1533.34 63.826 Q1537.39 60.7879 1537.39 54.9951 Q1537.39 49.6479 1533.62 46.6502 Q1529.89 43.612 1523.21 43.612 L1516.16 43.612 L1516.16 36.8875 L1523.53 36.8875 Q1529.57 36.8875 1532.77 34.4975 Q1535.97 32.067 1535.97 27.5299 Q1535.97 22.8714 1532.65 20.4004 Q1529.37 17.8888 1523.21 17.8888 Q1519.85 17.8888 1516 18.618 Q1512.15 19.3471 1507.53 20.8865 L1507.53 13.5948 Q1512.19 12.2985 1516.24 11.6504 Q1520.33 11.0023 1523.94 11.0023 Q1533.26 11.0023 1538.69 15.2557 Q1544.11 19.4686 1544.11 26.6793 Q1544.11 31.7024 1541.24 35.1862 Q1538.36 38.6294 1533.05 39.9662 Z" fill="#000000" fill-rule="nonzero" fill-opacity="1" /><polyline clip-path="url(#clip632)" style="stroke:#009af9; stroke-linecap:round; stroke-linejoin:round; stroke-width:8; stroke-opacity:1; fill:none" points="338.375,1386.4 354.021,1336.48 369.667,1289.18 385.312,1244.26 400.958,1201.58 416.604,1161.04 432.249,1122.53 447.895,1085.95 463.541,1051.22 479.186,1018.25 494.832,986.898 510.478,957.173 526.123,928.958 541.769,902.136 557.415,876.715 573.06,852.624 588.706,829.696 604.352,807.929 619.997,787.331 635.643,767.841 651.289,749.289 666.934,731.673 682.58,714.995 698.226,699.272 713.871,684.333 729.517,670.121 745.163,656.636 760.808,643.878 776.454,631.856 792.1,620.53 807.745,609.745 823.391,599.503 839.037,589.803 854.682,580.644 870.328,572.027 885.974,563.965 901.62,556.294 917.265,549.008 932.911,542.107 948.557,535.591 964.202,529.46 979.848,523.714 995.494,518.378 1011.14,513.338 1026.78,508.557 1042.43,504.035 1058.08,499.773 1073.72,495.769 1089.37,492.024 1105.01,488.538 1120.66,485.328 1136.3,482.353 1151.95,479.54 1167.6,476.891 1183.24,474.404 1198.89,472.081 1214.53,469.921 1230.18,467.923 1245.82,466.089 1261.47,464.418 1277.12,462.926 1292.76,461.573 1308.41,460.314 1324.05,459.149 1339.7,458.078 1355.34,457.102 1370.99,456.22 1386.64,455.433 1402.28,454.739 1417.93,454.14 1433.57,453.635 1449.22,453.225 1464.86,452.928 1480.51,452.686 1496.16,452.493 1511.8,452.348 1527.45,452.252 1543.09,452.205 1558.74,452.207 1574.38,452.258 1590.03,452.357 1605.67,452.505 1621.32,452.701 1636.97,452.947 1652.61,453.241 1668.26,453.583 1683.9,453.989 1699.55,454.422 1715.19,454.876 1730.84,455.352 1746.49,455.849 1762.13,456.367 1777.78,456.906 1793.42,457.467 1809.07,458.05 1824.71,458.653 1840.36,459.278 1856.01,459.924 1871.65,460.592 1887.3,461.281 1902.94,461.991 1918.59,462.722 1934.23,463.475 1949.88,464.257 1965.53,465.054 1981.17,465.858 1996.82,466.67 2012.46,467.489 2028.11,468.315 2043.75,469.148 2059.4,469.988 2075.05,470.835 2090.69,471.69 2106.34,472.551 2121.98,473.42 2137.63,474.296 2153.27,475.179 2168.92,476.069 2184.56,476.966 2200.21,477.871 2215.86,478.782 2231.5,479.701 2247.15,480.627 2262.79,481.56 2278.44,482.5 2294.08,482.642 "/>
<circle clip-path="url(#clip632)" cx="440.072" cy="1272.86" r="18" fill="#e26f46" fill-rule="evenodd" fill-opacity="1" stroke="#000000" stroke-opacity="1" stroke-width="3.2"/>
<circle clip-path="url(#clip632)" cx="604.873" cy="1272.86" r="18" fill="#e26f46" fill-rule="evenodd" fill-opacity="1" stroke="#000000" stroke-opacity="1" stroke-width="3.2"/>
<circle clip-path="url(#clip632)" cx="720.39" cy="398.672" r="18" fill="#e26f46" fill-rule="evenodd" fill-opacity="1" stroke="#000000" stroke-opacity="1" stroke-width="3.2"/>
<circle clip-path="url(#clip632)" cx="972.547" cy="421.379" r="18" fill="#e26f46" fill-rule="evenodd" fill-opacity="1" stroke="#000000" stroke-opacity="1" stroke-width="3.2"/>
<circle clip-path="url(#clip632)" cx="1357.17" cy="160.256" r="18" fill="#e26f46" fill-rule="evenodd" fill-opacity="1" stroke="#000000" stroke-opacity="1" stroke-width="3.2"/>
<circle clip-path="url(#clip632)" cx="1741.79" cy="330.553" r="18" fill="#e26f46" fill-rule="evenodd" fill-opacity="1" stroke="#000000" stroke-opacity="1" stroke-width="3.2"/>
<circle clip-path="url(#clip632)" cx="2108.68" cy="375.966" r="18" fill="#e26f46" fill-rule="evenodd" fill-opacity="1" stroke="#000000" stroke-opacity="1" stroke-width="3.2"/>
<path clip-path="url(#clip630)" d="M1692.11 1379.86 L2283.65 1379.86 L2283.65 1224.34 L1692.11 1224.34  Z" fill="#ffffff" fill-rule="evenodd" fill-opacity="1"/>
<polyline clip-path="url(#clip630)" style="stroke:#000000; stroke-linecap:round; stroke-linejoin:round; stroke-width:4; stroke-opacity:1; fill:none" points="1692.11,1379.86 2283.65,1379.86 2283.65,1224.34 1692.11,1224.34 1692.11,1379.86 "/>
<polyline clip-path="url(#clip630)" style="stroke:#009af9; stroke-linecap:round; stroke-linejoin:round; stroke-width:8; stroke-opacity:1; fill:none" points="1715.15,1276.18 1853.35,1276.18 "/>
<path clip-path="url(#clip630)" d="M1876.39 1258.9 L1883.35 1258.9 L1892.17 1282.41 L1901.04 1258.9 L1908.01 1258.9 L1908.01 1293.46 L1903.45 1293.46 L1903.45 1263.11 L1894.53 1286.81 L1889.84 1286.81 L1880.92 1263.11 L1880.92 1293.46 L1876.39 1293.46 L1876.39 1258.9 Z" fill="#000000" fill-rule="nonzero" fill-opacity="1" /><path clip-path="url(#clip630)" d="M1927.15 1270.52 Q1923.72 1270.52 1921.73 1273.2 Q1919.74 1275.86 1919.74 1280.52 Q1919.74 1285.17 1921.71 1287.85 Q1923.7 1290.52 1927.15 1290.52 Q1930.55 1290.52 1932.54 1287.83 Q1934.53 1285.15 1934.53 1280.52 Q1934.53 1275.91 1932.54 1273.22 Q1930.55 1270.52 1927.15 1270.52 M1927.15 1266.91 Q1932.71 1266.91 1935.88 1270.52 Q1939.05 1274.13 1939.05 1280.52 Q1939.05 1286.88 1935.88 1290.52 Q1932.71 1294.13 1927.15 1294.13 Q1921.57 1294.13 1918.4 1290.52 Q1915.25 1286.88 1915.25 1280.52 Q1915.25 1274.13 1918.4 1270.52 Q1921.57 1266.91 1927.15 1266.91 Z" fill="#000000" fill-rule="nonzero" fill-opacity="1" /><path clip-path="url(#clip630)" d="M1963.17 1271.47 L1963.17 1257.44 L1967.43 1257.44 L1967.43 1293.46 L1963.17 1293.46 L1963.17 1289.57 Q1961.83 1291.88 1959.77 1293.02 Q1957.73 1294.13 1954.86 1294.13 Q1950.16 1294.13 1947.2 1290.38 Q1944.26 1286.63 1944.26 1280.52 Q1944.26 1274.41 1947.2 1270.66 Q1950.16 1266.91 1954.86 1266.91 Q1957.73 1266.91 1959.77 1268.04 Q1961.83 1269.15 1963.17 1271.47 M1948.65 1280.52 Q1948.65 1285.22 1950.58 1287.9 Q1952.52 1290.56 1955.9 1290.56 Q1959.28 1290.56 1961.22 1287.9 Q1963.17 1285.22 1963.17 1280.52 Q1963.17 1275.82 1961.22 1273.16 Q1959.28 1270.47 1955.9 1270.47 Q1952.52 1270.47 1950.58 1273.16 Q1948.65 1275.82 1948.65 1280.52 Z" fill="#000000" fill-rule="nonzero" fill-opacity="1" /><path clip-path="url(#clip630)" d="M1998.38 1279.43 L1998.38 1281.51 L1978.79 1281.51 Q1979.07 1285.91 1981.43 1288.22 Q1983.82 1290.52 1988.05 1290.52 Q1990.51 1290.52 1992.8 1289.91 Q1995.11 1289.31 1997.38 1288.11 L1997.38 1292.14 Q1995.09 1293.11 1992.68 1293.62 Q1990.27 1294.13 1987.8 1294.13 Q1981.59 1294.13 1977.96 1290.52 Q1974.35 1286.91 1974.35 1280.75 Q1974.35 1274.38 1977.77 1270.66 Q1981.22 1266.91 1987.06 1266.91 Q1992.29 1266.91 1995.32 1270.29 Q1998.38 1273.64 1998.38 1279.43 M1994.12 1278.18 Q1994.07 1274.68 1992.15 1272.6 Q1990.25 1270.52 1987.1 1270.52 Q1983.54 1270.52 1981.39 1272.53 Q1979.26 1274.54 1978.93 1278.2 L1994.12 1278.18 Z" fill="#000000" fill-rule="nonzero" fill-opacity="1" /><path clip-path="url(#clip630)" d="M2005.37 1257.44 L2009.63 1257.44 L2009.63 1293.46 L2005.37 1293.46 L2005.37 1257.44 Z" fill="#000000" fill-rule="nonzero" fill-opacity="1" /><path clip-path="url(#clip630)" d="M2038.47 1262.74 L2038.47 1275.72 L2044.35 1275.72 Q2047.61 1275.72 2049.39 1274.04 Q2051.18 1272.35 2051.18 1269.22 Q2051.18 1266.12 2049.39 1264.43 Q2047.61 1262.74 2044.35 1262.74 L2038.47 1262.74 M2033.79 1258.9 L2044.35 1258.9 Q2050.16 1258.9 2053.12 1261.54 Q2056.11 1264.15 2056.11 1269.22 Q2056.11 1274.34 2053.12 1276.95 Q2050.16 1279.57 2044.35 1279.57 L2038.47 1279.57 L2038.47 1293.46 L2033.79 1293.46 L2033.79 1258.9 Z" fill="#000000" fill-rule="nonzero" fill-opacity="1" /><path clip-path="url(#clip630)" d="M2076.39 1271.51 Q2075.67 1271.1 2074.81 1270.91 Q2073.98 1270.7 2072.96 1270.7 Q2069.35 1270.7 2067.4 1273.06 Q2065.48 1275.4 2065.48 1279.8 L2065.48 1293.46 L2061.2 1293.46 L2061.2 1267.53 L2065.48 1267.53 L2065.48 1271.56 Q2066.83 1269.2 2068.98 1268.06 Q2071.13 1266.91 2074.21 1266.91 Q2074.65 1266.91 2075.18 1266.97 Q2075.71 1267.02 2076.36 1267.14 L2076.39 1271.51 Z" fill="#000000" fill-rule="nonzero" fill-opacity="1" /><path clip-path="url(#clip630)" d="M2101.99 1279.43 L2101.99 1281.51 L2082.4 1281.51 Q2082.68 1285.91 2085.04 1288.22 Q2087.43 1290.52 2091.66 1290.52 Q2094.12 1290.52 2096.41 1289.91 Q2098.72 1289.31 2100.99 1288.11 L2100.99 1292.14 Q2098.7 1293.11 2096.29 1293.62 Q2093.89 1294.13 2091.41 1294.13 Q2085.2 1294.13 2081.57 1290.52 Q2077.96 1286.91 2077.96 1280.75 Q2077.96 1274.38 2081.39 1270.66 Q2084.83 1266.91 2090.67 1266.91 Q2095.9 1266.91 2098.93 1270.29 Q2101.99 1273.64 2101.99 1279.43 M2097.73 1278.18 Q2097.68 1274.68 2095.76 1272.6 Q2093.86 1270.52 2090.71 1270.52 Q2087.15 1270.52 2085 1272.53 Q2082.87 1274.54 2082.54 1278.2 L2097.73 1278.18 Z" fill="#000000" fill-rule="nonzero" fill-opacity="1" /><path clip-path="url(#clip630)" d="M2126.04 1271.47 L2126.04 1257.44 L2130.3 1257.44 L2130.3 1293.46 L2126.04 1293.46 L2126.04 1289.57 Q2124.7 1291.88 2122.63 1293.02 Q2120.6 1294.13 2117.73 1294.13 Q2113.03 1294.13 2110.07 1290.38 Q2107.13 1286.63 2107.13 1280.52 Q2107.13 1274.41 2110.07 1270.66 Q2113.03 1266.91 2117.73 1266.91 Q2120.6 1266.91 2122.63 1268.04 Q2124.7 1269.15 2126.04 1271.47 M2111.52 1280.52 Q2111.52 1285.22 2113.45 1287.9 Q2115.39 1290.56 2118.77 1290.56 Q2122.15 1290.56 2124.09 1287.9 Q2126.04 1285.22 2126.04 1280.52 Q2126.04 1275.82 2124.09 1273.16 Q2122.15 1270.47 2118.77 1270.47 Q2115.39 1270.47 2113.45 1273.16 Q2111.52 1275.82 2111.52 1280.52 Z" fill="#000000" fill-rule="nonzero" fill-opacity="1" /><path clip-path="url(#clip630)" d="M2139.07 1267.53 L2143.33 1267.53 L2143.33 1293.46 L2139.07 1293.46 L2139.07 1267.53 M2139.07 1257.44 L2143.33 1257.44 L2143.33 1262.83 L2139.07 1262.83 L2139.07 1257.44 Z" fill="#000000" fill-rule="nonzero" fill-opacity="1" /><path clip-path="url(#clip630)" d="M2170.9 1268.53 L2170.9 1272.51 Q2169.09 1271.51 2167.26 1271.03 Q2165.46 1270.52 2163.61 1270.52 Q2159.46 1270.52 2157.17 1273.16 Q2154.88 1275.77 2154.88 1280.52 Q2154.88 1285.26 2157.17 1287.9 Q2159.46 1290.52 2163.61 1290.52 Q2165.46 1290.52 2167.26 1290.03 Q2169.09 1289.52 2170.9 1288.53 L2170.9 1292.46 Q2169.12 1293.29 2167.19 1293.71 Q2165.3 1294.13 2163.14 1294.13 Q2157.29 1294.13 2153.84 1290.45 Q2150.39 1286.77 2150.39 1280.52 Q2150.39 1274.17 2153.86 1270.54 Q2157.36 1266.91 2163.42 1266.91 Q2165.39 1266.91 2167.26 1267.32 Q2169.14 1267.72 2170.9 1268.53 Z" fill="#000000" fill-rule="nonzero" fill-opacity="1" /><path clip-path="url(#clip630)" d="M2182.52 1260.17 L2182.52 1267.53 L2191.29 1267.53 L2191.29 1270.84 L2182.52 1270.84 L2182.52 1284.91 Q2182.52 1288.09 2183.38 1288.99 Q2184.25 1289.89 2186.92 1289.89 L2191.29 1289.89 L2191.29 1293.46 L2186.92 1293.46 Q2181.99 1293.46 2180.11 1291.63 Q2178.24 1289.78 2178.24 1284.91 L2178.24 1270.84 L2175.11 1270.84 L2175.11 1267.53 L2178.24 1267.53 L2178.24 1260.17 L2182.52 1260.17 Z" fill="#000000" fill-rule="nonzero" fill-opacity="1" /><path clip-path="url(#clip630)" d="M2196.89 1267.53 L2201.15 1267.53 L2201.15 1293.46 L2196.89 1293.46 L2196.89 1267.53 M2196.89 1257.44 L2201.15 1257.44 L2201.15 1262.83 L2196.89 1262.83 L2196.89 1257.44 Z" fill="#000000" fill-rule="nonzero" fill-opacity="1" /><path clip-path="url(#clip630)" d="M2220.11 1270.52 Q2216.69 1270.52 2214.69 1273.2 Q2212.7 1275.86 2212.7 1280.52 Q2212.7 1285.17 2214.67 1287.85 Q2216.66 1290.52 2220.11 1290.52 Q2223.51 1290.52 2225.5 1287.83 Q2227.5 1285.15 2227.5 1280.52 Q2227.5 1275.91 2225.5 1273.22 Q2223.51 1270.52 2220.11 1270.52 M2220.11 1266.91 Q2225.67 1266.91 2228.84 1270.52 Q2232.01 1274.13 2232.01 1280.52 Q2232.01 1286.88 2228.84 1290.52 Q2225.67 1294.13 2220.11 1294.13 Q2214.53 1294.13 2211.36 1290.52 Q2208.21 1286.88 2208.21 1280.52 Q2208.21 1274.13 2211.36 1270.52 Q2214.53 1266.91 2220.11 1266.91 Z" fill="#000000" fill-rule="nonzero" fill-opacity="1" /><path clip-path="url(#clip630)" d="M2260.62 1277.81 L2260.62 1293.46 L2256.36 1293.46 L2256.36 1277.95 Q2256.36 1274.27 2254.93 1272.44 Q2253.49 1270.61 2250.62 1270.61 Q2247.17 1270.61 2245.18 1272.81 Q2243.19 1275.01 2243.19 1278.8 L2243.19 1293.46 L2238.91 1293.46 L2238.91 1267.53 L2243.19 1267.53 L2243.19 1271.56 Q2244.72 1269.22 2246.78 1268.06 Q2248.86 1266.91 2251.57 1266.91 Q2256.04 1266.91 2258.33 1269.68 Q2260.62 1272.44 2260.62 1277.81 Z" fill="#000000" fill-rule="nonzero" fill-opacity="1" /><circle clip-path="url(#clip630)" cx="1784.25" cy="1328.02" r="20.9455" fill="#e26f46" fill-rule="evenodd" fill-opacity="1" stroke="#000000" stroke-opacity="1" stroke-width="3.72364"/>
<path clip-path="url(#clip630)" d="M1892.4 1313.91 Q1887.31 1313.91 1884.3 1317.7 Q1881.32 1321.5 1881.32 1328.05 Q1881.32 1334.58 1884.3 1338.37 Q1887.31 1342.17 1892.4 1342.17 Q1897.5 1342.17 1900.46 1338.37 Q1903.45 1334.58 1903.45 1328.05 Q1903.45 1321.5 1900.46 1317.7 Q1897.5 1313.91 1892.4 1313.91 M1892.4 1310.11 Q1899.67 1310.11 1904.02 1315 Q1908.38 1319.86 1908.38 1328.05 Q1908.38 1336.22 1904.02 1341.11 Q1899.67 1345.97 1892.4 1345.97 Q1885.11 1345.97 1880.74 1341.11 Q1876.39 1336.25 1876.39 1328.05 Q1876.39 1319.86 1880.74 1315 Q1885.11 1310.11 1892.4 1310.11 Z" fill="#000000" fill-rule="nonzero" fill-opacity="1" /><path clip-path="url(#clip630)" d="M1934.12 1332.36 Q1934.12 1327.66 1932.17 1325 Q1930.25 1322.31 1926.87 1322.31 Q1923.49 1322.31 1921.55 1325 Q1919.63 1327.66 1919.63 1332.36 Q1919.63 1337.06 1921.55 1339.74 Q1923.49 1342.4 1926.87 1342.4 Q1930.25 1342.4 1932.17 1339.74 Q1934.12 1337.06 1934.12 1332.36 M1919.63 1323.31 Q1920.97 1320.99 1923.01 1319.88 Q1925.07 1318.75 1927.91 1318.75 Q1932.64 1318.75 1935.58 1322.5 Q1938.54 1326.25 1938.54 1332.36 Q1938.54 1338.47 1935.58 1342.22 Q1932.64 1345.97 1927.91 1345.97 Q1925.07 1345.97 1923.01 1344.86 Q1920.97 1343.72 1919.63 1341.41 L1919.63 1345.3 L1915.34 1345.3 L1915.34 1309.28 L1919.63 1309.28 L1919.63 1323.31 Z" fill="#000000" fill-rule="nonzero" fill-opacity="1" /><path clip-path="url(#clip630)" d="M1962.13 1320.13 L1962.13 1324.16 Q1960.32 1323.24 1958.38 1322.77 Q1956.43 1322.31 1954.35 1322.31 Q1951.18 1322.31 1949.58 1323.28 Q1948.01 1324.25 1948.01 1326.2 Q1948.01 1327.68 1949.14 1328.54 Q1950.27 1329.37 1953.7 1330.13 L1955.16 1330.46 Q1959.7 1331.43 1961.59 1333.21 Q1963.52 1334.97 1963.52 1338.14 Q1963.52 1341.75 1960.65 1343.86 Q1957.8 1345.97 1952.8 1345.97 Q1950.71 1345.97 1948.45 1345.55 Q1946.2 1345.16 1943.7 1344.35 L1943.7 1339.95 Q1946.06 1341.18 1948.35 1341.8 Q1950.65 1342.4 1952.89 1342.4 Q1955.9 1342.4 1957.52 1341.38 Q1959.14 1340.34 1959.14 1338.47 Q1959.14 1336.73 1957.96 1335.81 Q1956.8 1334.88 1952.84 1334.02 L1951.36 1333.68 Q1947.4 1332.84 1945.65 1331.13 Q1943.89 1329.39 1943.89 1326.38 Q1943.89 1322.73 1946.48 1320.74 Q1949.07 1318.75 1953.84 1318.75 Q1956.2 1318.75 1958.28 1319.09 Q1960.37 1319.44 1962.13 1320.13 Z" fill="#000000" fill-rule="nonzero" fill-opacity="1" /><path clip-path="url(#clip630)" d="M1992.47 1331.27 L1992.47 1333.35 L1972.89 1333.35 Q1973.17 1337.75 1975.53 1340.06 Q1977.91 1342.36 1982.15 1342.36 Q1984.6 1342.36 1986.89 1341.75 Q1989.21 1341.15 1991.48 1339.95 L1991.48 1343.98 Q1989.19 1344.95 1986.78 1345.46 Q1984.37 1345.97 1981.89 1345.97 Q1975.69 1345.97 1972.06 1342.36 Q1968.45 1338.75 1968.45 1332.59 Q1968.45 1326.22 1971.87 1322.5 Q1975.32 1318.75 1981.15 1318.75 Q1986.39 1318.75 1989.42 1322.13 Q1992.47 1325.48 1992.47 1331.27 M1988.21 1330.02 Q1988.17 1326.52 1986.25 1324.44 Q1984.35 1322.36 1981.2 1322.36 Q1977.64 1322.36 1975.48 1324.37 Q1973.35 1326.38 1973.03 1330.04 L1988.21 1330.02 Z" fill="#000000" fill-rule="nonzero" fill-opacity="1" /><path clip-path="url(#clip630)" d="M2014.49 1323.35 Q2013.77 1322.94 2012.91 1322.75 Q2012.08 1322.54 2011.06 1322.54 Q2007.45 1322.54 2005.51 1324.9 Q2003.58 1327.24 2003.58 1331.64 L2003.58 1345.3 L1999.3 1345.3 L1999.3 1319.37 L2003.58 1319.37 L2003.58 1323.4 Q2004.93 1321.04 2007.08 1319.9 Q2009.23 1318.75 2012.31 1318.75 Q2012.75 1318.75 2013.28 1318.81 Q2013.82 1318.86 2014.46 1318.98 L2014.49 1323.35 Z" fill="#000000" fill-rule="nonzero" fill-opacity="1" /><path clip-path="url(#clip630)" d="M2015.9 1319.37 L2020.41 1319.37 L2028.52 1341.13 L2036.62 1319.37 L2041.13 1319.37 L2031.41 1345.3 L2025.62 1345.3 L2015.9 1319.37 Z" fill="#000000" fill-rule="nonzero" fill-opacity="1" /><path clip-path="url(#clip630)" d="M2069.19 1331.27 L2069.19 1333.35 L2049.6 1333.35 Q2049.88 1337.75 2052.24 1340.06 Q2054.63 1342.36 2058.86 1342.36 Q2061.32 1342.36 2063.61 1341.75 Q2065.92 1341.15 2068.19 1339.95 L2068.19 1343.98 Q2065.9 1344.95 2063.49 1345.46 Q2061.08 1345.97 2058.61 1345.97 Q2052.4 1345.97 2048.77 1342.36 Q2045.16 1338.75 2045.16 1332.59 Q2045.16 1326.22 2048.58 1322.5 Q2052.03 1318.75 2057.87 1318.75 Q2063.1 1318.75 2066.13 1322.13 Q2069.19 1325.48 2069.19 1331.27 M2064.93 1330.02 Q2064.88 1326.52 2062.96 1324.44 Q2061.06 1322.36 2057.91 1322.36 Q2054.35 1322.36 2052.2 1324.37 Q2050.07 1326.38 2049.74 1330.04 L2064.93 1330.02 Z" fill="#000000" fill-rule="nonzero" fill-opacity="1" /><path clip-path="url(#clip630)" d="M2093.24 1323.31 L2093.24 1309.28 L2097.5 1309.28 L2097.5 1345.3 L2093.24 1345.3 L2093.24 1341.41 Q2091.89 1343.72 2089.83 1344.86 Q2087.8 1345.97 2084.93 1345.97 Q2080.23 1345.97 2077.26 1342.22 Q2074.32 1338.47 2074.32 1332.36 Q2074.32 1326.25 2077.26 1322.5 Q2080.23 1318.75 2084.93 1318.75 Q2087.8 1318.75 2089.83 1319.88 Q2091.89 1320.99 2093.24 1323.31 M2078.72 1332.36 Q2078.72 1337.06 2080.64 1339.74 Q2082.59 1342.4 2085.97 1342.4 Q2089.35 1342.4 2091.29 1339.74 Q2093.24 1337.06 2093.24 1332.36 Q2093.24 1327.66 2091.29 1325 Q2089.35 1322.31 2085.97 1322.31 Q2082.59 1322.31 2080.64 1325 Q2078.72 1327.66 2078.72 1332.36 Z" fill="#000000" fill-rule="nonzero" fill-opacity="1" /><path clip-path="url(#clip630)" d="M2126.2 1314.58 L2126.2 1341.45 L2131.85 1341.45 Q2139 1341.45 2142.31 1338.21 Q2145.64 1334.97 2145.64 1327.98 Q2145.64 1321.04 2142.31 1317.82 Q2139 1314.58 2131.85 1314.58 L2126.2 1314.58 M2121.52 1310.74 L2131.13 1310.74 Q2141.18 1310.74 2145.88 1314.93 Q2150.57 1319.09 2150.57 1327.98 Q2150.57 1336.92 2145.85 1341.11 Q2141.13 1345.3 2131.13 1345.3 L2121.52 1345.3 L2121.52 1310.74 Z" fill="#000000" fill-rule="nonzero" fill-opacity="1" /><path clip-path="url(#clip630)" d="M2169.63 1332.26 Q2164.46 1332.26 2162.47 1333.44 Q2160.48 1334.63 2160.48 1337.47 Q2160.48 1339.74 2161.96 1341.08 Q2163.47 1342.4 2166.04 1342.4 Q2169.58 1342.4 2171.71 1339.9 Q2173.86 1337.38 2173.86 1333.21 L2173.86 1332.26 L2169.63 1332.26 M2178.12 1330.5 L2178.12 1345.3 L2173.86 1345.3 L2173.86 1341.36 Q2172.4 1343.72 2170.23 1344.86 Q2168.05 1345.97 2164.9 1345.97 Q2160.92 1345.97 2158.56 1343.75 Q2156.22 1341.5 2156.22 1337.75 Q2156.22 1333.38 2159.14 1331.15 Q2162.08 1328.93 2167.89 1328.93 L2173.86 1328.93 L2173.86 1328.51 Q2173.86 1325.57 2171.92 1323.98 Q2170 1322.36 2166.5 1322.36 Q2164.28 1322.36 2162.17 1322.89 Q2160.07 1323.42 2158.12 1324.49 L2158.12 1320.55 Q2160.46 1319.65 2162.66 1319.21 Q2164.86 1318.75 2166.94 1318.75 Q2172.57 1318.75 2175.34 1321.66 Q2178.12 1324.58 2178.12 1330.5 Z" fill="#000000" fill-rule="nonzero" fill-opacity="1" /><path clip-path="url(#clip630)" d="M2191.11 1312.01 L2191.11 1319.37 L2199.88 1319.37 L2199.88 1322.68 L2191.11 1322.68 L2191.11 1336.75 Q2191.11 1339.93 2191.96 1340.83 Q2192.84 1341.73 2195.5 1341.73 L2199.88 1341.73 L2199.88 1345.3 L2195.5 1345.3 Q2190.57 1345.3 2188.7 1343.47 Q2186.82 1341.62 2186.82 1336.75 L2186.82 1322.68 L2183.7 1322.68 L2183.7 1319.37 L2186.82 1319.37 L2186.82 1312.01 L2191.11 1312.01 Z" fill="#000000" fill-rule="nonzero" fill-opacity="1" /><path clip-path="url(#clip630)" d="M2217.26 1332.26 Q2212.1 1332.26 2210.11 1333.44 Q2208.12 1334.63 2208.12 1337.47 Q2208.12 1339.74 2209.6 1341.08 Q2211.11 1342.4 2213.68 1342.4 Q2217.22 1342.4 2219.35 1339.9 Q2221.5 1337.38 2221.5 1333.21 L2221.5 1332.26 L2217.26 1332.26 M2225.76 1330.5 L2225.76 1345.3 L2221.5 1345.3 L2221.5 1341.36 Q2220.04 1343.72 2217.87 1344.86 Q2215.69 1345.97 2212.54 1345.97 Q2208.56 1345.97 2206.2 1343.75 Q2203.86 1341.5 2203.86 1337.75 Q2203.86 1333.38 2206.78 1331.15 Q2209.72 1328.93 2215.53 1328.93 L2221.5 1328.93 L2221.5 1328.51 Q2221.5 1325.57 2219.56 1323.98 Q2217.63 1322.36 2214.14 1322.36 Q2211.92 1322.36 2209.81 1322.89 Q2207.7 1323.42 2205.76 1324.49 L2205.76 1320.55 Q2208.1 1319.65 2210.3 1319.21 Q2212.5 1318.75 2214.58 1318.75 Q2220.2 1318.75 2222.98 1321.66 Q2225.76 1324.58 2225.76 1330.5 Z" fill="#000000" fill-rule="nonzero" fill-opacity="1" /></svg>
