<?xml version="1.0" encoding="utf-8"?>
<svg xmlns="http://www.w3.org/2000/svg" xmlns:xlink="http://www.w3.org/1999/xlink" width="600" height="400" viewBox="0 0 2400 1600">
<defs>
  <clipPath id="clip950">
    <rect x="0" y="0" width="2400" height="1600"/>
  </clipPath>
</defs>
<path clip-path="url(#clip950)" d="M0 1600 L2400 1600 L2400 0 L0 0  Z" fill="#ffffff" fill-rule="evenodd" fill-opacity="1"/>
<defs>
  <clipPath id="clip951">
    <rect x="480" y="0" width="1681" height="1600"/>
  </clipPath>
</defs>
<path clip-path="url(#clip950)" d="M219.866 1423.18 L2352.76 1423.18 L2352.76 123.472 L219.866 123.472  Z" fill="#ffffff" fill-rule="evenodd" fill-opacity="1"/>
<defs>
  <clipPath id="clip952">
    <rect x="219" y="123" width="2134" height="1301"/>
  </clipPath>
</defs>
<polyline clip-path="url(#clip952)" style="stroke:#000000; stroke-linecap:round; stroke-linejoin:round; stroke-width:2; stroke-opacity:0.1; fill:none" points="274.922,1423.18 274.922,123.472 "/>
<polyline clip-path="url(#clip952)" style="stroke:#000000; stroke-linecap:round; stroke-linejoin:round; stroke-width:2; stroke-opacity:0.1; fill:none" points="628.864,1423.18 628.864,123.472 "/>
<polyline clip-path="url(#clip952)" style="stroke:#000000; stroke-linecap:round; stroke-linejoin:round; stroke-width:2; stroke-opacity:0.1; fill:none" points="982.806,1423.18 982.806,123.472 "/>
<polyline clip-path="url(#clip952)" style="stroke:#000000; stroke-linecap:round; stroke-linejoin:round; stroke-width:2; stroke-opacity:0.1; fill:none" points="1336.75,1423.18 1336.75,123.472 "/>
<polyline clip-path="url(#clip952)" style="stroke:#000000; stroke-linecap:round; stroke-linejoin:round; stroke-width:2; stroke-opacity:0.1; fill:none" points="1690.69,1423.18 1690.69,123.472 "/>
<polyline clip-path="url(#clip952)" style="stroke:#000000; stroke-linecap:round; stroke-linejoin:round; stroke-width:2; stroke-opacity:0.1; fill:none" points="2044.63,1423.18 2044.63,123.472 "/>
<polyline clip-path="url(#clip952)" style="stroke:#000000; stroke-linecap:round; stroke-linejoin:round; stroke-width:2; stroke-opacity:0.1; fill:none" points="219.866,1386.4 2352.76,1386.4 "/>
<polyline clip-path="url(#clip952)" style="stroke:#000000; stroke-linecap:round; stroke-linejoin:round; stroke-width:2; stroke-opacity:0.1; fill:none" points="219.866,1202.58 2352.76,1202.58 "/>
<polyline clip-path="url(#clip952)" style="stroke:#000000; stroke-linecap:round; stroke-linejoin:round; stroke-width:2; stroke-opacity:0.1; fill:none" points="219.866,1018.77 2352.76,1018.77 "/>
<polyline clip-path="url(#clip952)" style="stroke:#000000; stroke-linecap:round; stroke-linejoin:round; stroke-width:2; stroke-opacity:0.1; fill:none" points="219.866,834.959 2352.76,834.959 "/>
<polyline clip-path="url(#clip952)" style="stroke:#000000; stroke-linecap:round; stroke-linejoin:round; stroke-width:2; stroke-opacity:0.1; fill:none" points="219.866,651.146 2352.76,651.146 "/>
<polyline clip-path="url(#clip952)" style="stroke:#000000; stroke-linecap:round; stroke-linejoin:round; stroke-width:2; stroke-opacity:0.1; fill:none" points="219.866,467.334 2352.76,467.334 "/>
<polyline clip-path="url(#clip952)" style="stroke:#000000; stroke-linecap:round; stroke-linejoin:round; stroke-width:2; stroke-opacity:0.1; fill:none" points="219.866,283.522 2352.76,283.522 "/>
<polyline clip-path="url(#clip950)" style="stroke:#000000; stroke-linecap:round; stroke-linejoin:round; stroke-width:4; stroke-opacity:1; fill:none" points="219.866,1423.18 2352.76,1423.18 "/>
<polyline clip-path="url(#clip950)" style="stroke:#000000; stroke-linecap:round; stroke-linejoin:round; stroke-width:4; stroke-opacity:1; fill:none" points="274.922,1423.18 274.922,1404.28 "/>
<polyline clip-path="url(#clip950)" style="stroke:#000000; stroke-linecap:round; stroke-linejoin:round; stroke-width:4; stroke-opacity:1; fill:none" points="628.864,1423.18 628.864,1404.28 "/>
<polyline clip-path="url(#clip950)" style="stroke:#000000; stroke-linecap:round; stroke-linejoin:round; stroke-width:4; stroke-opacity:1; fill:none" points="982.806,1423.18 982.806,1404.28 "/>
<polyline clip-path="url(#clip950)" style="stroke:#000000; stroke-linecap:round; stroke-linejoin:round; stroke-width:4; stroke-opacity:1; fill:none" points="1336.75,1423.18 1336.75,1404.28 "/>
<polyline clip-path="url(#clip950)" style="stroke:#000000; stroke-linecap:round; stroke-linejoin:round; stroke-width:4; stroke-opacity:1; fill:none" points="1690.69,1423.18 1690.69,1404.28 "/>
<polyline clip-path="url(#clip950)" style="stroke:#000000; stroke-linecap:round; stroke-linejoin:round; stroke-width:4; stroke-opacity:1; fill:none" points="2044.63,1423.18 2044.63,1404.28 "/>
<path clip-path="url(#clip950)" d="M274.922 1454.1 Q271.311 1454.1 269.482 1457.66 Q267.677 1461.2 267.677 1468.33 Q267.677 1475.44 269.482 1479.01 Q271.311 1482.55 274.922 1482.55 Q278.556 1482.55 280.362 1479.01 Q282.19 1475.44 282.19 1468.33 Q282.19 1461.2 280.362 1457.66 Q278.556 1454.1 274.922 1454.1 M274.922 1450.39 Q280.732 1450.39 283.788 1455 Q286.866 1459.58 286.866 1468.33 Q286.866 1477.06 283.788 1481.67 Q280.732 1486.25 274.922 1486.25 Q269.112 1486.25 266.033 1481.67 Q262.978 1477.06 262.978 1468.33 Q262.978 1459.58 266.033 1455 Q269.112 1450.39 274.922 1450.39 Z" fill="#000000" fill-rule="nonzero" fill-opacity="1" /><path clip-path="url(#clip950)" d="M603.552 1481.64 L611.19 1481.64 L611.19 1455.28 L602.88 1456.95 L602.88 1452.69 L611.144 1451.02 L615.82 1451.02 L615.82 1481.64 L623.459 1481.64 L623.459 1485.58 L603.552 1485.58 L603.552 1481.64 Z" fill="#000000" fill-rule="nonzero" fill-opacity="1" /><path clip-path="url(#clip950)" d="M642.903 1454.1 Q639.292 1454.1 637.463 1457.66 Q635.658 1461.2 635.658 1468.33 Q635.658 1475.44 637.463 1479.01 Q639.292 1482.55 642.903 1482.55 Q646.537 1482.55 648.343 1479.01 Q650.172 1475.44 650.172 1468.33 Q650.172 1461.2 648.343 1457.66 Q646.537 1454.1 642.903 1454.1 M642.903 1450.39 Q648.713 1450.39 651.769 1455 Q654.848 1459.58 654.848 1468.33 Q654.848 1477.06 651.769 1481.67 Q648.713 1486.25 642.903 1486.25 Q637.093 1486.25 634.014 1481.67 Q630.959 1477.06 630.959 1468.33 Q630.959 1459.58 634.014 1455 Q637.093 1450.39 642.903 1450.39 Z" fill="#000000" fill-rule="nonzero" fill-opacity="1" /><path clip-path="url(#clip950)" d="M961.579 1481.64 L977.898 1481.64 L977.898 1485.58 L955.954 1485.58 L955.954 1481.64 Q958.616 1478.89 963.199 1474.26 Q967.806 1469.61 968.986 1468.27 Q971.232 1465.74 972.111 1464.01 Q973.014 1462.25 973.014 1460.56 Q973.014 1457.8 971.07 1456.07 Q969.149 1454.33 966.047 1454.33 Q963.848 1454.33 961.394 1455.09 Q958.963 1455.86 956.186 1457.41 L956.186 1452.69 Q959.01 1451.55 961.463 1450.97 Q963.917 1450.39 965.954 1450.39 Q971.324 1450.39 974.519 1453.08 Q977.713 1455.77 977.713 1460.26 Q977.713 1462.39 976.903 1464.31 Q976.116 1466.2 974.01 1468.8 Q973.431 1469.47 970.329 1472.69 Q967.227 1475.88 961.579 1481.64 Z" fill="#000000" fill-rule="nonzero" fill-opacity="1" /><path clip-path="url(#clip950)" d="M997.713 1454.1 Q994.102 1454.1 992.273 1457.66 Q990.468 1461.2 990.468 1468.33 Q990.468 1475.44 992.273 1479.01 Q994.102 1482.55 997.713 1482.55 Q1001.35 1482.55 1003.15 1479.01 Q1004.98 1475.44 1004.98 1468.33 Q1004.98 1461.2 1003.15 1457.66 Q1001.35 1454.1 997.713 1454.1 M997.713 1450.39 Q1003.52 1450.39 1006.58 1455 Q1009.66 1459.58 1009.66 1468.33 Q1009.66 1477.06 1006.58 1481.67 Q1003.52 1486.25 997.713 1486.25 Q991.903 1486.25 988.824 1481.67 Q985.769 1477.06 985.769 1468.33 Q985.769 1459.58 988.824 1455 Q991.903 1450.39 997.713 1450.39 Z" fill="#000000" fill-rule="nonzero" fill-opacity="1" /><path clip-path="url(#clip950)" d="M1325.59 1466.95 Q1328.95 1467.66 1330.82 1469.93 Q1332.72 1472.2 1332.72 1475.53 Q1332.72 1480.65 1329.2 1483.45 Q1325.68 1486.25 1319.2 1486.25 Q1317.03 1486.25 1314.71 1485.81 Q1312.42 1485.39 1309.97 1484.54 L1309.97 1480.02 Q1311.91 1481.16 1314.22 1481.74 Q1316.54 1482.32 1319.06 1482.32 Q1323.46 1482.32 1325.75 1480.58 Q1328.07 1478.84 1328.07 1475.53 Q1328.07 1472.48 1325.91 1470.77 Q1323.78 1469.03 1319.97 1469.03 L1315.94 1469.03 L1315.94 1465.19 L1320.15 1465.19 Q1323.6 1465.19 1325.43 1463.82 Q1327.26 1462.43 1327.26 1459.84 Q1327.26 1457.18 1325.36 1455.77 Q1323.48 1454.33 1319.97 1454.33 Q1318.04 1454.33 1315.85 1454.75 Q1313.65 1455.16 1311.01 1456.04 L1311.01 1451.88 Q1313.67 1451.14 1315.98 1450.77 Q1318.32 1450.39 1320.38 1450.39 Q1325.71 1450.39 1328.81 1452.83 Q1331.91 1455.23 1331.91 1459.35 Q1331.91 1462.22 1330.27 1464.21 Q1328.62 1466.18 1325.59 1466.95 Z" fill="#000000" fill-rule="nonzero" fill-opacity="1" /><path clip-path="url(#clip950)" d="M1351.59 1454.1 Q1347.97 1454.1 1346.15 1457.66 Q1344.34 1461.2 1344.34 1468.33 Q1344.34 1475.44 1346.15 1479.01 Q1347.97 1482.55 1351.59 1482.55 Q1355.22 1482.55 1357.03 1479.01 Q1358.85 1475.44 1358.85 1468.33 Q1358.85 1461.2 1357.03 1457.66 Q1355.22 1454.1 1351.59 1454.1 M1351.59 1450.39 Q1357.4 1450.39 1360.45 1455 Q1363.53 1459.58 1363.53 1468.33 Q1363.53 1477.06 1360.45 1481.67 Q1357.4 1486.25 1351.59 1486.25 Q1345.78 1486.25 1342.7 1481.67 Q1339.64 1477.06 1339.64 1468.33 Q1339.64 1459.58 1342.7 1455 Q1345.78 1450.39 1351.59 1450.39 Z" fill="#000000" fill-rule="nonzero" fill-opacity="1" /><path clip-path="url(#clip950)" d="M1678.86 1455.09 L1667.06 1473.54 L1678.86 1473.54 L1678.86 1455.09 M1677.63 1451.02 L1683.51 1451.02 L1683.51 1473.54 L1688.44 1473.54 L1688.44 1477.43 L1683.51 1477.43 L1683.51 1485.58 L1678.86 1485.58 L1678.86 1477.43 L1663.26 1477.43 L1663.26 1472.92 L1677.63 1451.02 Z" fill="#000000" fill-rule="nonzero" fill-opacity="1" /><path clip-path="url(#clip950)" d="M1706.18 1454.1 Q1702.56 1454.1 1700.74 1457.66 Q1698.93 1461.2 1698.93 1468.33 Q1698.93 1475.44 1700.74 1479.01 Q1702.56 1482.55 1706.18 1482.55 Q1709.81 1482.55 1711.62 1479.01 Q1713.44 1475.44 1713.44 1468.33 Q1713.44 1461.2 1711.62 1457.66 Q1709.81 1454.1 1706.18 1454.1 M1706.18 1450.39 Q1711.99 1450.39 1715.04 1455 Q1718.12 1459.58 1718.12 1468.33 Q1718.12 1477.06 1715.04 1481.67 Q1711.99 1486.25 1706.18 1486.25 Q1700.37 1486.25 1697.29 1481.67 Q1694.23 1477.06 1694.23 1468.33 Q1694.23 1459.58 1697.29 1455 Q1700.37 1450.39 1706.18 1450.39 Z" fill="#000000" fill-rule="nonzero" fill-opacity="1" /><path clip-path="url(#clip950)" d="M2019.33 1451.02 L2037.69 1451.02 L2037.69 1454.96 L2023.61 1454.96 L2023.61 1463.43 Q2024.63 1463.08 2025.65 1462.92 Q2026.67 1462.73 2027.69 1462.73 Q2033.47 1462.73 2036.85 1465.9 Q2040.23 1469.08 2040.23 1474.49 Q2040.23 1480.07 2036.76 1483.17 Q2033.29 1486.25 2026.97 1486.25 Q2024.79 1486.25 2022.53 1485.88 Q2020.28 1485.51 2017.87 1484.77 L2017.87 1480.07 Q2019.96 1481.2 2022.18 1481.76 Q2024.4 1482.32 2026.88 1482.32 Q2030.88 1482.32 2033.22 1480.21 Q2035.56 1478.1 2035.56 1474.49 Q2035.56 1470.88 2033.22 1468.77 Q2030.88 1466.67 2026.88 1466.67 Q2025 1466.67 2023.13 1467.08 Q2021.28 1467.5 2019.33 1468.38 L2019.33 1451.02 Z" fill="#000000" fill-rule="nonzero" fill-opacity="1" /><path clip-path="url(#clip950)" d="M2059.45 1454.1 Q2055.84 1454.1 2054.01 1457.66 Q2052.2 1461.2 2052.2 1468.33 Q2052.2 1475.44 2054.01 1479.01 Q2055.84 1482.55 2059.45 1482.55 Q2063.08 1482.55 2064.89 1479.01 Q2066.71 1475.44 2066.71 1468.33 Q2066.71 1461.2 2064.89 1457.66 Q2063.08 1454.1 2059.45 1454.1 M2059.45 1450.39 Q2065.26 1450.39 2068.31 1455 Q2071.39 1459.58 2071.39 1468.33 Q2071.39 1477.06 2068.31 1481.67 Q2065.26 1486.25 2059.45 1486.25 Q2053.64 1486.25 2050.56 1481.67 Q2047.5 1477.06 2047.5 1468.33 Q2047.5 1459.58 2050.56 1455 Q2053.64 1450.39 2059.45 1450.39 Z" fill="#000000" fill-rule="nonzero" fill-opacity="1" /><path clip-path="url(#clip950)" d="M1208.19 1520.52 L1248.39 1520.52 L1248.39 1525.93 L1231.52 1525.93 L1231.52 1568.04 L1225.06 1568.04 L1225.06 1525.93 L1208.19 1525.93 L1208.19 1520.52 Z" fill="#000000" fill-rule="nonzero" fill-opacity="1" /><path clip-path="url(#clip950)" d="M1252.33 1532.4 L1258.19 1532.4 L1258.19 1568.04 L1252.33 1568.04 L1252.33 1532.4 M1252.33 1518.52 L1258.19 1518.52 L1258.19 1525.93 L1252.33 1525.93 L1252.33 1518.52 Z" fill="#000000" fill-rule="nonzero" fill-opacity="1" /><path clip-path="url(#clip950)" d="M1298.2 1539.24 Q1300.4 1535.29 1303.45 1533.41 Q1306.51 1531.54 1310.64 1531.54 Q1316.21 1531.54 1319.24 1535.45 Q1322.26 1539.33 1322.26 1546.53 L1322.26 1568.04 L1316.37 1568.04 L1316.37 1546.72 Q1316.37 1541.59 1314.56 1539.11 Q1312.74 1536.63 1309.02 1536.63 Q1304.47 1536.63 1301.83 1539.65 Q1299.19 1542.68 1299.19 1547.9 L1299.19 1568.04 L1293.3 1568.04 L1293.3 1546.72 Q1293.3 1541.56 1291.48 1539.11 Q1289.67 1536.63 1285.88 1536.63 Q1281.39 1536.63 1278.75 1539.68 Q1276.11 1542.71 1276.11 1547.9 L1276.11 1568.04 L1270.22 1568.04 L1270.22 1532.4 L1276.11 1532.4 L1276.11 1537.93 Q1278.12 1534.66 1280.92 1533.1 Q1283.72 1531.54 1287.57 1531.54 Q1291.45 1531.54 1294.16 1533.51 Q1296.89 1535.48 1298.2 1539.24 Z" fill="#000000" fill-rule="nonzero" fill-opacity="1" /><path clip-path="url(#clip950)" d="M1364.43 1548.76 L1364.43 1551.62 L1337.51 1551.62 Q1337.89 1557.67 1341.14 1560.85 Q1344.41 1564 1350.24 1564 Q1353.61 1564 1356.76 1563.17 Q1359.95 1562.35 1363.07 1560.69 L1363.07 1566.23 Q1359.91 1567.57 1356.6 1568.27 Q1353.29 1568.97 1349.89 1568.97 Q1341.36 1568.97 1336.36 1564 Q1331.4 1559.04 1331.4 1550.57 Q1331.4 1541.82 1336.11 1536.69 Q1340.85 1531.54 1348.87 1531.54 Q1356.06 1531.54 1360.23 1536.18 Q1364.43 1540.8 1364.43 1548.76 M1358.58 1547.04 Q1358.51 1542.23 1355.87 1539.37 Q1353.26 1536.5 1348.93 1536.5 Q1344.03 1536.5 1341.07 1539.27 Q1338.14 1542.04 1337.7 1547.07 L1358.58 1547.04 Z" fill="#000000" fill-rule="nonzero" fill-opacity="1" /><polyline clip-path="url(#clip950)" style="stroke:#000000; stroke-linecap:round; stroke-linejoin:round; stroke-width:4; stroke-opacity:1; fill:none" points="219.866,1423.18 219.866,123.472 "/>
<polyline clip-path="url(#clip950)" style="stroke:#000000; stroke-linecap:round; stroke-linejoin:round; stroke-width:4; stroke-opacity:1; fill:none" points="219.866,1386.4 238.764,1386.4 "/>
<polyline clip-path="url(#clip950)" style="stroke:#000000; stroke-linecap:round; stroke-linejoin:round; stroke-width:4; stroke-opacity:1; fill:none" points="219.866,1202.58 238.764,1202.58 "/>
<polyline clip-path="url(#clip950)" style="stroke:#000000; stroke-linecap:round; stroke-linejoin:round; stroke-width:4; stroke-opacity:1; fill:none" points="219.866,1018.77 238.764,1018.77 "/>
<polyline clip-path="url(#clip950)" style="stroke:#000000; stroke-linecap:round; stroke-linejoin:round; stroke-width:4; stroke-opacity:1; fill:none" points="219.866,834.959 238.764,834.959 "/>
<polyline clip-path="url(#clip950)" style="stroke:#000000; stroke-linecap:round; stroke-linejoin:round; stroke-width:4; stroke-opacity:1; fill:none" points="219.866,651.146 238.764,651.146 "/>
<polyline clip-path="url(#clip950)" style="stroke:#000000; stroke-linecap:round; stroke-linejoin:round; stroke-width:4; stroke-opacity:1; fill:none" points="219.866,467.334 238.764,467.334 "/>
<polyline clip-path="url(#clip950)" style="stroke:#000000; stroke-linecap:round; stroke-linejoin:round; stroke-width:4; stroke-opacity:1; fill:none" points="219.866,283.522 238.764,283.522 "/>
<path clip-path="url(#clip950)" d="M126.691 1372.19 Q123.08 1372.19 121.251 1375.76 Q119.445 1379.3 119.445 1386.43 Q119.445 1393.54 121.251 1397.1 Q123.08 1400.64 126.691 1400.64 Q130.325 1400.64 132.13 1397.1 Q133.959 1393.54 133.959 1386.43 Q133.959 1379.3 132.13 1375.76 Q130.325 1372.19 126.691 1372.19 M126.691 1368.49 Q132.501 1368.49 135.556 1373.1 Q138.635 1377.68 138.635 1386.43 Q138.635 1395.16 135.556 1399.76 Q132.501 1404.35 126.691 1404.35 Q120.88 1404.35 117.802 1399.76 Q114.746 1395.16 114.746 1386.43 Q114.746 1377.68 117.802 1373.1 Q120.88 1368.49 126.691 1368.49 Z" fill="#000000" fill-rule="nonzero" fill-opacity="1" /><path clip-path="url(#clip950)" d="M146.853 1397.8 L151.737 1397.8 L151.737 1403.68 L146.853 1403.68 L146.853 1397.8 Z" fill="#000000" fill-rule="nonzero" fill-opacity="1" /><path clip-path="url(#clip950)" d="M171.922 1372.19 Q168.311 1372.19 166.482 1375.76 Q164.677 1379.3 164.677 1386.43 Q164.677 1393.54 166.482 1397.1 Q168.311 1400.64 171.922 1400.64 Q175.556 1400.64 177.362 1397.1 Q179.19 1393.54 179.19 1386.43 Q179.19 1379.3 177.362 1375.76 Q175.556 1372.19 171.922 1372.19 M171.922 1368.49 Q177.732 1368.49 180.788 1373.1 Q183.866 1377.68 183.866 1386.43 Q183.866 1395.16 180.788 1399.76 Q177.732 1404.35 171.922 1404.35 Q166.112 1404.35 163.033 1399.76 Q159.978 1395.16 159.978 1386.43 Q159.978 1377.68 163.033 1373.1 Q166.112 1368.49 171.922 1368.49 Z" fill="#000000" fill-rule="nonzero" fill-opacity="1" /><path clip-path="url(#clip950)" d="M128.288 1188.38 Q124.677 1188.38 122.848 1191.95 Q121.043 1195.49 121.043 1202.62 Q121.043 1209.72 122.848 1213.29 Q124.677 1216.83 128.288 1216.83 Q131.922 1216.83 133.728 1213.29 Q135.556 1209.72 135.556 1202.62 Q135.556 1195.49 133.728 1191.95 Q131.922 1188.38 128.288 1188.38 M128.288 1184.68 Q134.098 1184.68 137.154 1189.28 Q140.232 1193.87 140.232 1202.62 Q140.232 1211.34 137.154 1215.95 Q134.098 1220.53 128.288 1220.53 Q122.478 1220.53 119.399 1215.95 Q116.343 1211.34 116.343 1202.62 Q116.343 1193.87 119.399 1189.28 Q122.478 1184.68 128.288 1184.68 Z" fill="#000000" fill-rule="nonzero" fill-opacity="1" /><path clip-path="url(#clip950)" d="M148.45 1213.98 L153.334 1213.98 L153.334 1219.86 L148.45 1219.86 L148.45 1213.98 Z" fill="#000000" fill-rule="nonzero" fill-opacity="1" /><path clip-path="url(#clip950)" d="M167.547 1215.93 L183.866 1215.93 L183.866 1219.86 L161.922 1219.86 L161.922 1215.93 Q164.584 1213.17 169.167 1208.54 Q173.774 1203.89 174.954 1202.55 Q177.2 1200.03 178.079 1198.29 Q178.982 1196.53 178.982 1194.84 Q178.982 1192.09 177.038 1190.35 Q175.116 1188.61 172.014 1188.61 Q169.815 1188.61 167.362 1189.38 Q164.931 1190.14 162.153 1191.69 L162.153 1186.97 Q164.977 1185.84 167.431 1185.26 Q169.885 1184.68 171.922 1184.68 Q177.292 1184.68 180.487 1187.36 Q183.681 1190.05 183.681 1194.54 Q183.681 1196.67 182.871 1198.59 Q182.084 1200.49 179.977 1203.08 Q179.399 1203.75 176.297 1206.97 Q173.195 1210.16 167.547 1215.93 Z" fill="#000000" fill-rule="nonzero" fill-opacity="1" /><path clip-path="url(#clip950)" d="M126.205 1004.57 Q122.593 1004.57 120.765 1008.13 Q118.959 1011.68 118.959 1018.81 Q118.959 1025.91 120.765 1029.48 Q122.593 1033.02 126.205 1033.02 Q129.839 1033.02 131.644 1029.48 Q133.473 1025.91 133.473 1018.81 Q133.473 1011.68 131.644 1008.13 Q129.839 1004.57 126.205 1004.57 M126.205 1000.87 Q132.015 1000.87 135.07 1005.47 Q138.149 1010.06 138.149 1018.81 Q138.149 1027.53 135.07 1032.14 Q132.015 1036.72 126.205 1036.72 Q120.394 1036.72 117.316 1032.14 Q114.26 1027.53 114.26 1018.81 Q114.26 1010.06 117.316 1005.47 Q120.394 1000.87 126.205 1000.87 Z" fill="#000000" fill-rule="nonzero" fill-opacity="1" /><path clip-path="url(#clip950)" d="M146.366 1030.17 L151.251 1030.17 L151.251 1036.05 L146.366 1036.05 L146.366 1030.17 Z" fill="#000000" fill-rule="nonzero" fill-opacity="1" /><path clip-path="url(#clip950)" d="M174.283 1005.57 L162.477 1024.01 L174.283 1024.01 L174.283 1005.57 M173.056 1001.49 L178.936 1001.49 L178.936 1024.01 L183.866 1024.01 L183.866 1027.9 L178.936 1027.9 L178.936 1036.05 L174.283 1036.05 L174.283 1027.9 L158.681 1027.9 L158.681 1023.39 L173.056 1001.49 Z" fill="#000000" fill-rule="nonzero" fill-opacity="1" /><path clip-path="url(#clip950)" d="M126.529 820.757 Q122.918 820.757 121.089 824.322 Q119.283 827.864 119.283 834.993 Q119.283 842.1 121.089 845.665 Q122.918 849.206 126.529 849.206 Q130.163 849.206 131.968 845.665 Q133.797 842.1 133.797 834.993 Q133.797 827.864 131.968 824.322 Q130.163 820.757 126.529 820.757 M126.529 817.054 Q132.339 817.054 135.394 821.66 Q138.473 826.244 138.473 834.993 Q138.473 843.72 135.394 848.327 Q132.339 852.91 126.529 852.91 Q120.718 852.91 117.64 848.327 Q114.584 843.72 114.584 834.993 Q114.584 826.244 117.64 821.66 Q120.718 817.054 126.529 817.054 Z" fill="#000000" fill-rule="nonzero" fill-opacity="1" /><path clip-path="url(#clip950)" d="M146.691 846.359 L151.575 846.359 L151.575 852.239 L146.691 852.239 L146.691 846.359 Z" fill="#000000" fill-rule="nonzero" fill-opacity="1" /><path clip-path="url(#clip950)" d="M172.339 833.095 Q169.19 833.095 167.339 835.248 Q165.51 837.401 165.51 841.151 Q165.51 844.878 167.339 847.054 Q169.19 849.206 172.339 849.206 Q175.487 849.206 177.315 847.054 Q179.167 844.878 179.167 841.151 Q179.167 837.401 177.315 835.248 Q175.487 833.095 172.339 833.095 M181.621 818.443 L181.621 822.702 Q179.862 821.869 178.056 821.429 Q176.274 820.989 174.514 820.989 Q169.885 820.989 167.431 824.114 Q165.001 827.239 164.653 833.558 Q166.019 831.544 168.079 830.48 Q170.139 829.392 172.616 829.392 Q177.825 829.392 180.834 832.563 Q183.866 835.711 183.866 841.151 Q183.866 846.475 180.718 849.692 Q177.57 852.91 172.339 852.91 Q166.343 852.91 163.172 848.327 Q160.001 843.72 160.001 834.993 Q160.001 826.799 163.89 821.938 Q167.778 817.054 174.329 817.054 Q176.089 817.054 177.871 817.401 Q179.676 817.748 181.621 818.443 Z" fill="#000000" fill-rule="nonzero" fill-opacity="1" /><path clip-path="url(#clip950)" d="M126.783 636.945 Q123.172 636.945 121.343 640.51 Q119.538 644.052 119.538 651.181 Q119.538 658.288 121.343 661.852 Q123.172 665.394 126.783 665.394 Q130.417 665.394 132.223 661.852 Q134.052 658.288 134.052 651.181 Q134.052 644.052 132.223 640.51 Q130.417 636.945 126.783 636.945 M126.783 633.241 Q132.593 633.241 135.649 637.848 Q138.728 642.431 138.728 651.181 Q138.728 659.908 135.649 664.514 Q132.593 669.098 126.783 669.098 Q120.973 669.098 117.894 664.514 Q114.839 659.908 114.839 651.181 Q114.839 642.431 117.894 637.848 Q120.973 633.241 126.783 633.241 Z" fill="#000000" fill-rule="nonzero" fill-opacity="1" /><path clip-path="url(#clip950)" d="M146.945 662.547 L151.829 662.547 L151.829 668.426 L146.945 668.426 L146.945 662.547 Z" fill="#000000" fill-rule="nonzero" fill-opacity="1" /><path clip-path="url(#clip950)" d="M172.014 652.015 Q168.681 652.015 166.76 653.797 Q164.862 655.579 164.862 658.704 Q164.862 661.829 166.76 663.612 Q168.681 665.394 172.014 665.394 Q175.348 665.394 177.269 663.612 Q179.19 661.806 179.19 658.704 Q179.19 655.579 177.269 653.797 Q175.371 652.015 172.014 652.015 M167.339 650.024 Q164.329 649.283 162.64 647.223 Q160.973 645.163 160.973 642.2 Q160.973 638.056 163.913 635.649 Q166.876 633.241 172.014 633.241 Q177.176 633.241 180.116 635.649 Q183.056 638.056 183.056 642.2 Q183.056 645.163 181.366 647.223 Q179.7 649.283 176.714 650.024 Q180.093 650.811 181.968 653.102 Q183.866 655.394 183.866 658.704 Q183.866 663.727 180.788 666.413 Q177.732 669.098 172.014 669.098 Q166.297 669.098 163.218 666.413 Q160.163 663.727 160.163 658.704 Q160.163 655.394 162.061 653.102 Q163.959 650.811 167.339 650.024 M165.626 642.64 Q165.626 645.325 167.292 646.829 Q168.982 648.334 172.014 648.334 Q175.024 648.334 176.714 646.829 Q178.426 645.325 178.426 642.64 Q178.426 639.954 176.714 638.45 Q175.024 636.945 172.014 636.945 Q168.982 636.945 167.292 638.45 Q165.626 639.954 165.626 642.64 Z" fill="#000000" fill-rule="nonzero" fill-opacity="1" /><path clip-path="url(#clip950)" d="M117.501 480.679 L125.14 480.679 L125.14 454.313 L116.83 455.98 L116.83 451.721 L125.093 450.054 L129.769 450.054 L129.769 480.679 L137.408 480.679 L137.408 484.614 L117.501 484.614 L117.501 480.679 Z" fill="#000000" fill-rule="nonzero" fill-opacity="1" /><path clip-path="url(#clip950)" d="M146.853 478.735 L151.737 478.735 L151.737 484.614 L146.853 484.614 L146.853 478.735 Z" fill="#000000" fill-rule="nonzero" fill-opacity="1" /><path clip-path="url(#clip950)" d="M171.922 453.133 Q168.311 453.133 166.482 456.698 Q164.677 460.239 164.677 467.369 Q164.677 474.475 166.482 478.04 Q168.311 481.582 171.922 481.582 Q175.556 481.582 177.362 478.04 Q179.19 474.475 179.19 467.369 Q179.19 460.239 177.362 456.698 Q175.556 453.133 171.922 453.133 M171.922 449.429 Q177.732 449.429 180.788 454.036 Q183.866 458.619 183.866 467.369 Q183.866 476.096 180.788 480.702 Q177.732 485.285 171.922 485.285 Q166.112 485.285 163.033 480.702 Q159.978 476.096 159.978 467.369 Q159.978 458.619 163.033 454.036 Q166.112 449.429 171.922 449.429 Z" fill="#000000" fill-rule="nonzero" fill-opacity="1" /><path clip-path="url(#clip950)" d="M119.098 296.867 L126.737 296.867 L126.737 270.501 L118.427 272.168 L118.427 267.909 L126.691 266.242 L131.367 266.242 L131.367 296.867 L139.005 296.867 L139.005 300.802 L119.098 300.802 L119.098 296.867 Z" fill="#000000" fill-rule="nonzero" fill-opacity="1" /><path clip-path="url(#clip950)" d="M148.45 294.922 L153.334 294.922 L153.334 300.802 L148.45 300.802 L148.45 294.922 Z" fill="#000000" fill-rule="nonzero" fill-opacity="1" /><path clip-path="url(#clip950)" d="M167.547 296.867 L183.866 296.867 L183.866 300.802 L161.922 300.802 L161.922 296.867 Q164.584 294.112 169.167 289.482 Q173.774 284.83 174.954 283.487 Q177.2 280.964 178.079 279.228 Q178.982 277.469 178.982 275.779 Q178.982 273.024 177.038 271.288 Q175.116 269.552 172.014 269.552 Q169.815 269.552 167.362 270.316 Q164.931 271.08 162.153 272.631 L162.153 267.909 Q164.977 266.774 167.431 266.196 Q169.885 265.617 171.922 265.617 Q177.292 265.617 180.487 268.302 Q183.681 270.987 183.681 275.478 Q183.681 277.608 182.871 279.529 Q182.084 281.427 179.977 284.02 Q179.399 284.691 176.297 287.908 Q173.195 291.103 167.547 296.867 Z" fill="#000000" fill-rule="nonzero" fill-opacity="1" /><path clip-path="url(#clip950)" d="M20.1444 820.225 L26.9239 820.225 Q23.9002 823.472 22.4043 827.164 Q20.9083 830.824 20.9083 834.962 Q20.9083 843.11 25.9054 847.439 Q30.8707 851.767 40.2919 851.767 Q49.6813 851.767 54.6784 847.439 Q59.6436 843.11 59.6436 834.962 Q59.6436 830.824 58.1477 827.164 Q56.6518 823.472 53.6281 820.225 L60.3439 820.225 Q62.6355 823.599 63.7814 827.387 Q64.9272 831.143 64.9272 835.344 Q64.9272 846.134 58.3387 852.34 Q51.7183 858.547 40.2919 858.547 Q28.8336 858.547 22.2451 852.34 Q15.6248 846.134 15.6248 835.344 Q15.6248 831.079 16.7706 827.323 Q17.8846 823.535 20.1444 820.225 Z" fill="#000000" fill-rule="nonzero" fill-opacity="1" /><path clip-path="url(#clip950)" d="M16.4842 816.883 L16.4842 776.684 L21.895 776.684 L21.895 793.553 L64.0042 793.553 L64.0042 800.014 L21.895 800.014 L21.895 816.883 L16.4842 816.883 Z" fill="#000000" fill-rule="nonzero" fill-opacity="1" /><path clip-path="url(#clip950)" d="M16.4842 770.477 L16.4842 761.82 L56.238 740.749 L16.4842 740.749 L16.4842 734.511 L64.0042 734.511 L64.0042 743.168 L24.2503 764.239 L64.0042 764.239 L64.0042 770.477 L16.4842 770.477 Z" fill="#000000" fill-rule="nonzero" fill-opacity="1" /><path clip-path="url(#clip950)" d="M16.4842 728.305 L16.4842 688.105 L21.895 688.105 L21.895 704.974 L64.0042 704.974 L64.0042 711.435 L21.895 711.435 L21.895 728.305 L16.4842 728.305 Z" fill="#000000" fill-rule="nonzero" fill-opacity="1" /><path clip-path="url(#clip950)" d="M1064.79 18.8205 L1064.79 41.5461 L1075.08 41.5461 Q1080.79 41.5461 1083.91 38.5889 Q1087.03 35.6318 1087.03 30.163 Q1087.03 24.7348 1083.91 21.7777 Q1080.79 18.8205 1075.08 18.8205 L1064.79 18.8205 M1056.6 12.096 L1075.08 12.096 Q1085.24 12.096 1090.43 16.714 Q1095.66 21.2916 1095.66 30.163 Q1095.66 39.1155 1090.43 43.6931 Q1085.24 48.2706 1075.08 48.2706 L1064.79 48.2706 L1064.79 72.576 L1056.6 72.576 L1056.6 12.096 Z" fill="#000000" fill-rule="nonzero" fill-opacity="1" /><path clip-path="url(#clip950)" d="M1123.2 49.7694 Q1114.17 49.7694 1110.68 51.8354 Q1107.2 53.9013 1107.2 58.8839 Q1107.2 62.8538 1109.79 65.2034 Q1112.43 67.5124 1116.92 67.5124 Q1123.12 67.5124 1126.85 63.1374 Q1130.61 58.7219 1130.61 51.4303 L1130.61 49.7694 L1123.2 49.7694 M1138.07 46.6907 L1138.07 72.576 L1130.61 72.576 L1130.61 65.6895 Q1128.06 69.8214 1124.25 71.8063 Q1120.45 73.7508 1114.94 73.7508 Q1107.97 73.7508 1103.84 69.8619 Q1099.75 65.9325 1099.75 59.3701 Q1099.75 51.7138 1104.85 47.825 Q1110 43.9361 1120.16 43.9361 L1130.61 43.9361 L1130.61 43.2069 Q1130.61 38.0623 1127.21 35.2672 Q1123.85 32.4315 1117.73 32.4315 Q1113.84 32.4315 1110.16 33.3632 Q1106.47 34.295 1103.07 36.1584 L1103.07 29.2718 Q1107.16 27.692 1111.01 26.9223 Q1114.86 26.1121 1118.5 26.1121 Q1128.35 26.1121 1133.21 31.2163 Q1138.07 36.3204 1138.07 46.6907 Z" fill="#000000" fill-rule="nonzero" fill-opacity="1" /><path clip-path="url(#clip950)" d="M1160.79 14.324 L1160.79 27.2059 L1176.15 27.2059 L1176.15 32.9987 L1160.79 32.9987 L1160.79 57.6282 Q1160.79 63.1779 1162.29 64.7578 Q1163.83 66.3376 1168.49 66.3376 L1176.15 66.3376 L1176.15 72.576 L1168.49 72.576 Q1159.86 72.576 1156.58 69.3758 Q1153.3 66.1351 1153.3 57.6282 L1153.3 32.9987 L1147.83 32.9987 L1147.83 27.2059 L1153.3 27.2059 L1153.3 14.324 L1160.79 14.324 Z" fill="#000000" fill-rule="nonzero" fill-opacity="1" /><path clip-path="url(#clip950)" d="M1185.95 27.2059 L1193.4 27.2059 L1193.4 72.576 L1185.95 72.576 L1185.95 27.2059 M1185.95 9.54393 L1193.4 9.54393 L1193.4 18.9825 L1185.95 18.9825 L1185.95 9.54393 Z" fill="#000000" fill-rule="nonzero" fill-opacity="1" /><path clip-path="url(#clip950)" d="M1247.81 48.0275 L1247.81 51.6733 L1213.54 51.6733 Q1214.02 59.3701 1218.15 63.421 Q1222.33 67.4314 1229.74 67.4314 Q1234.03 67.4314 1238.04 66.3781 Q1242.1 65.3249 1246.07 63.2184 L1246.07 70.267 Q1242.05 71.9684 1237.84 72.8596 Q1233.63 73.7508 1229.29 73.7508 Q1218.44 73.7508 1212.08 67.4314 Q1205.76 61.1119 1205.76 50.3365 Q1205.76 39.1965 1211.75 32.6746 Q1217.79 26.1121 1228 26.1121 Q1237.15 26.1121 1242.46 32.0264 Q1247.81 37.9003 1247.81 48.0275 M1240.35 45.84 Q1240.27 39.7232 1236.91 36.0774 Q1233.59 32.4315 1228.08 32.4315 Q1221.84 32.4315 1218.07 35.9558 Q1214.35 39.4801 1213.78 45.8805 L1240.35 45.84 Z" fill="#000000" fill-rule="nonzero" fill-opacity="1" /><path clip-path="url(#clip950)" d="M1297.75 45.1919 L1297.75 72.576 L1290.3 72.576 L1290.3 45.4349 Q1290.3 38.994 1287.79 35.7938 Q1285.28 32.5936 1280.25 32.5936 Q1274.22 32.5936 1270.74 36.4419 Q1267.25 40.2903 1267.25 46.9338 L1267.25 72.576 L1259.76 72.576 L1259.76 27.2059 L1267.25 27.2059 L1267.25 34.2544 Q1269.93 30.163 1273.53 28.1376 Q1277.18 26.1121 1281.92 26.1121 Q1289.73 26.1121 1293.74 30.9732 Q1297.75 35.7938 1297.75 45.1919 Z" fill="#000000" fill-rule="nonzero" fill-opacity="1" /><path clip-path="url(#clip950)" d="M1319.99 14.324 L1319.99 27.2059 L1335.35 27.2059 L1335.35 32.9987 L1319.99 32.9987 L1319.99 57.6282 Q1319.99 63.1779 1321.49 64.7578 Q1323.03 66.3376 1327.69 66.3376 L1335.35 66.3376 L1335.35 72.576 L1327.69 72.576 Q1319.06 72.576 1315.78 69.3758 Q1312.5 66.1351 1312.5 57.6282 L1312.5 32.9987 L1307.03 32.9987 L1307.03 27.2059 L1312.5 27.2059 L1312.5 14.324 L1319.99 14.324 Z" fill="#000000" fill-rule="nonzero" fill-opacity="1" /><path clip-path="url(#clip950)" d="M1409.24 45.1919 L1409.24 72.576 L1401.78 72.576 L1401.78 45.4349 Q1401.78 38.994 1399.27 35.7938 Q1396.76 32.5936 1391.74 32.5936 Q1385.7 32.5936 1382.22 36.4419 Q1378.73 40.2903 1378.73 46.9338 L1378.73 72.576 L1371.24 72.576 L1371.24 27.2059 L1378.73 27.2059 L1378.73 34.2544 Q1381.41 30.163 1385.01 28.1376 Q1388.66 26.1121 1393.4 26.1121 Q1401.21 26.1121 1405.23 30.9732 Q1409.24 35.7938 1409.24 45.1919 Z" fill="#000000" fill-rule="nonzero" fill-opacity="1" /><path clip-path="url(#clip950)" d="M1423.09 12.096 L1461.98 12.096 L1461.98 15.5798 L1440.02 72.576 L1431.48 72.576 L1452.13 18.9825 L1423.09 18.9825 L1423.09 12.096 Z" fill="#000000" fill-rule="nonzero" fill-opacity="1" /><path clip-path="url(#clip950)" d="M1478.18 71.3202 L1478.18 63.8666 Q1481.26 65.3249 1484.42 66.0946 Q1487.58 66.8642 1490.62 66.8642 Q1498.72 66.8642 1502.97 61.436 Q1507.27 55.9673 1507.88 44.8678 Q1505.53 48.3516 1501.92 50.215 Q1498.32 52.0784 1493.94 52.0784 Q1484.87 52.0784 1479.56 46.6097 Q1474.29 41.1005 1474.29 31.5808 Q1474.29 22.2638 1479.8 16.633 Q1485.31 11.0023 1494.47 11.0023 Q1504.96 11.0023 1510.47 19.0636 Q1516.02 27.0843 1516.02 42.3968 Q1516.02 56.6965 1509.21 65.2439 Q1502.45 73.7508 1490.98 73.7508 Q1487.9 73.7508 1484.74 73.1431 Q1481.58 72.5355 1478.18 71.3202 M1494.47 45.678 Q1499.98 45.678 1503.18 41.9107 Q1506.42 38.1433 1506.42 31.5808 Q1506.42 25.0589 1503.18 21.2916 Q1499.98 17.4837 1494.47 17.4837 Q1488.96 17.4837 1485.72 21.2916 Q1482.52 25.0589 1482.52 31.5808 Q1482.52 38.1433 1485.72 41.9107 Q1488.96 45.678 1494.47 45.678 Z" fill="#000000" fill-rule="nonzero" fill-opacity="1" /><polyline clip-path="url(#clip952)" style="stroke:#009af9; stroke-linecap:round; stroke-linejoin:round; stroke-width:8; stroke-opacity:1; fill:none" points="310.316,1386.4 345.71,417.802 381.105,417.104 416.499,416.732 451.893,416.493 487.287,416.468 522.681,416.566 558.076,416.389 593.47,415.462 628.864,412.398 664.258,401.816 699.652,378.113 735.046,340.583 770.441,296.785 805.835,256.337 841.229,224.222 876.623,200.965 912.017,185.3 947.412,175.399 982.806,169.214 1018.2,165.25 1053.59,163.073 1088.99,161.749 1124.38,161.04 1159.78,160.573 1195.17,160.348 1230.57,160.287 1265.96,160.257 1301.35,160.256 1336.75,160.284 1372.14,160.321 1407.54,160.359 1442.93,160.397 1478.32,160.436 1513.72,160.476 1549.11,160.516 1584.51,160.557 1619.9,160.598 1655.3,160.638 1690.69,160.679 1726.08,160.72 1761.48,160.76 1796.87,160.801 1832.27,160.841 1867.66,160.882 1903.05,160.922 1938.45,160.963 1973.84,161.003 2009.24,161.044 2044.63,161.084 2080.03,161.125 2115.42,161.165 2150.81,161.206 2186.21,161.246 2221.6,161.287 2257,161.327 2292.39,161.358 "/>
<circle clip-path="url(#clip952)" cx="280.231" cy="1237.14" r="18" fill="#e26f46" fill-rule="evenodd" fill-opacity="1" stroke="#000000" stroke-opacity="1" stroke-width="3.2"/>
<circle clip-path="url(#clip952)" cx="310.906" cy="1294.58" r="18" fill="#e26f46" fill-rule="evenodd" fill-opacity="1" stroke="#000000" stroke-opacity="1" stroke-width="3.2"/>
<circle clip-path="url(#clip952)" cx="796.986" cy="1343.48" r="18" fill="#e26f46" fill-rule="evenodd" fill-opacity="1" stroke="#000000" stroke-opacity="1" stroke-width="3.2"/>
<circle clip-path="url(#clip952)" cx="1042.98" cy="1348.53" r="18" fill="#e26f46" fill-rule="evenodd" fill-opacity="1" stroke="#000000" stroke-opacity="1" stroke-width="3.2"/>
<circle clip-path="url(#clip952)" cx="1894.8" cy="1361.31" r="18" fill="#e26f46" fill-rule="evenodd" fill-opacity="1" stroke="#000000" stroke-opacity="1" stroke-width="3.2"/>
<path clip-path="url(#clip950)" d="M1684.14 1379.86 L2281.66 1379.86 L2281.66 1224.34 L1684.14 1224.34  Z" fill="#ffffff" fill-rule="evenodd" fill-opacity="1"/>
<polyline clip-path="url(#clip950)" style="stroke:#000000; stroke-linecap:round; stroke-linejoin:round; stroke-width:4; stroke-opacity:1; fill:none" points="1684.14,1379.86 2281.66,1379.86 2281.66,1224.34 1684.14,1224.34 1684.14,1379.86 "/>
<polyline clip-path="url(#clip950)" style="stroke:#009af9; stroke-linecap:round; stroke-linejoin:round; stroke-width:8; stroke-opacity:1; fill:none" points="1707.84,1276.18 1850.03,1276.18 "/>
<path clip-path="url(#clip950)" d="M1873.73 1258.9 L1880.69 1258.9 L1889.51 1282.41 L1898.38 1258.9 L1905.35 1258.9 L1905.35 1293.46 L1900.79 1293.46 L1900.79 1263.11 L1891.87 1286.81 L1887.18 1286.81 L1878.26 1263.11 L1878.26 1293.46 L1873.73 1293.46 L1873.73 1258.9 Z" fill="#000000" fill-rule="nonzero" fill-opacity="1" /><path clip-path="url(#clip950)" d="M1924.49 1270.52 Q1921.06 1270.52 1919.07 1273.2 Q1917.08 1275.86 1917.08 1280.52 Q1917.08 1285.17 1919.05 1287.85 Q1921.04 1290.52 1924.49 1290.52 Q1927.89 1290.52 1929.88 1287.83 Q1931.87 1285.15 1931.87 1280.52 Q1931.87 1275.91 1929.88 1273.22 Q1927.89 1270.52 1924.49 1270.52 M1924.49 1266.91 Q1930.05 1266.91 1933.22 1270.52 Q1936.39 1274.13 1936.39 1280.52 Q1936.39 1286.88 1933.22 1290.52 Q1930.05 1294.13 1924.49 1294.13 Q1918.91 1294.13 1915.74 1290.52 Q1912.59 1286.88 1912.59 1280.52 Q1912.59 1274.13 1915.74 1270.52 Q1918.91 1266.91 1924.49 1266.91 Z" fill="#000000" fill-rule="nonzero" fill-opacity="1" /><path clip-path="url(#clip950)" d="M1960.51 1271.47 L1960.51 1257.44 L1964.77 1257.44 L1964.77 1293.46 L1960.51 1293.46 L1960.51 1289.57 Q1959.17 1291.88 1957.11 1293.02 Q1955.07 1294.13 1952.2 1294.13 Q1947.5 1294.13 1944.54 1290.38 Q1941.6 1286.63 1941.6 1280.52 Q1941.6 1274.41 1944.54 1270.66 Q1947.5 1266.91 1952.2 1266.91 Q1955.07 1266.91 1957.11 1268.04 Q1959.17 1269.15 1960.51 1271.47 M1945.99 1280.52 Q1945.99 1285.22 1947.92 1287.9 Q1949.86 1290.56 1953.24 1290.56 Q1956.62 1290.56 1958.56 1287.9 Q1960.51 1285.22 1960.51 1280.52 Q1960.51 1275.82 1958.56 1273.16 Q1956.62 1270.47 1953.24 1270.47 Q1949.86 1270.47 1947.92 1273.16 Q1945.99 1275.82 1945.99 1280.52 Z" fill="#000000" fill-rule="nonzero" fill-opacity="1" /><path clip-path="url(#clip950)" d="M1995.72 1279.43 L1995.72 1281.51 L1976.13 1281.51 Q1976.41 1285.91 1978.77 1288.22 Q1981.16 1290.52 1985.39 1290.52 Q1987.85 1290.52 1990.14 1289.91 Q1992.45 1289.31 1994.72 1288.11 L1994.72 1292.14 Q1992.43 1293.11 1990.02 1293.62 Q1987.62 1294.13 1985.14 1294.13 Q1978.93 1294.13 1975.3 1290.52 Q1971.69 1286.91 1971.69 1280.75 Q1971.69 1274.38 1975.12 1270.66 Q1978.56 1266.91 1984.4 1266.91 Q1989.63 1266.91 1992.66 1270.29 Q1995.72 1273.64 1995.72 1279.43 M1991.46 1278.18 Q1991.41 1274.68 1989.49 1272.6 Q1987.59 1270.52 1984.44 1270.52 Q1980.88 1270.52 1978.73 1272.53 Q1976.6 1274.54 1976.27 1278.2 L1991.46 1278.18 Z" fill="#000000" fill-rule="nonzero" fill-opacity="1" /><path clip-path="url(#clip950)" d="M2002.71 1257.44 L2006.97 1257.44 L2006.97 1293.46 L2002.71 1293.46 L2002.71 1257.44 Z" fill="#000000" fill-rule="nonzero" fill-opacity="1" /><path clip-path="url(#clip950)" d="M2035.81 1262.74 L2035.81 1275.72 L2041.69 1275.72 Q2044.95 1275.72 2046.74 1274.04 Q2048.52 1272.35 2048.52 1269.22 Q2048.52 1266.12 2046.74 1264.43 Q2044.95 1262.74 2041.69 1262.74 L2035.81 1262.74 M2031.13 1258.9 L2041.69 1258.9 Q2047.5 1258.9 2050.46 1261.54 Q2053.45 1264.15 2053.45 1269.22 Q2053.45 1274.34 2050.46 1276.95 Q2047.5 1279.57 2041.69 1279.57 L2035.81 1279.57 L2035.81 1293.46 L2031.13 1293.46 L2031.13 1258.9 Z" fill="#000000" fill-rule="nonzero" fill-opacity="1" /><path clip-path="url(#clip950)" d="M2073.73 1271.51 Q2073.01 1271.1 2072.15 1270.91 Q2071.32 1270.7 2070.3 1270.7 Q2066.69 1270.7 2064.74 1273.06 Q2062.82 1275.4 2062.82 1279.8 L2062.82 1293.46 L2058.54 1293.46 L2058.54 1267.53 L2062.82 1267.53 L2062.82 1271.56 Q2064.17 1269.2 2066.32 1268.06 Q2068.47 1266.91 2071.55 1266.91 Q2071.99 1266.91 2072.52 1266.97 Q2073.05 1267.02 2073.7 1267.14 L2073.73 1271.51 Z" fill="#000000" fill-rule="nonzero" fill-opacity="1" /><path clip-path="url(#clip950)" d="M2099.33 1279.43 L2099.33 1281.51 L2079.74 1281.51 Q2080.02 1285.91 2082.38 1288.22 Q2084.77 1290.52 2089 1290.52 Q2091.46 1290.52 2093.75 1289.91 Q2096.06 1289.31 2098.33 1288.11 L2098.33 1292.14 Q2096.04 1293.11 2093.63 1293.62 Q2091.23 1294.13 2088.75 1294.13 Q2082.55 1294.13 2078.91 1290.52 Q2075.3 1286.91 2075.3 1280.75 Q2075.3 1274.38 2078.73 1270.66 Q2082.17 1266.91 2088.01 1266.91 Q2093.24 1266.91 2096.27 1270.29 Q2099.33 1273.64 2099.33 1279.43 M2095.07 1278.18 Q2095.02 1274.68 2093.1 1272.6 Q2091.2 1270.52 2088.05 1270.52 Q2084.49 1270.52 2082.34 1272.53 Q2080.21 1274.54 2079.88 1278.2 L2095.07 1278.18 Z" fill="#000000" fill-rule="nonzero" fill-opacity="1" /><path clip-path="url(#clip950)" d="M2123.38 1271.47 L2123.38 1257.44 L2127.64 1257.44 L2127.64 1293.46 L2123.38 1293.46 L2123.38 1289.57 Q2122.04 1291.88 2119.98 1293.02 Q2117.94 1294.13 2115.07 1294.13 Q2110.37 1294.13 2107.41 1290.38 Q2104.47 1286.63 2104.47 1280.52 Q2104.47 1274.41 2107.41 1270.66 Q2110.37 1266.91 2115.07 1266.91 Q2117.94 1266.91 2119.98 1268.04 Q2122.04 1269.15 2123.38 1271.47 M2108.86 1280.52 Q2108.86 1285.22 2110.79 1287.9 Q2112.73 1290.56 2116.11 1290.56 Q2119.49 1290.56 2121.43 1287.9 Q2123.38 1285.22 2123.38 1280.52 Q2123.38 1275.82 2121.43 1273.16 Q2119.49 1270.47 2116.11 1270.47 Q2112.73 1270.47 2110.79 1273.16 Q2108.86 1275.82 2108.86 1280.52 Z" fill="#000000" fill-rule="nonzero" fill-opacity="1" /><path clip-path="url(#clip950)" d="M2136.41 1267.53 L2140.67 1267.53 L2140.67 1293.46 L2136.41 1293.46 L2136.41 1267.53 M2136.41 1257.44 L2140.67 1257.44 L2140.67 1262.83 L2136.41 1262.83 L2136.41 1257.44 Z" fill="#000000" fill-rule="nonzero" fill-opacity="1" /><path clip-path="url(#clip950)" d="M2168.24 1268.53 L2168.24 1272.51 Q2166.43 1271.51 2164.6 1271.03 Q2162.8 1270.52 2160.95 1270.52 Q2156.8 1270.52 2154.51 1273.16 Q2152.22 1275.77 2152.22 1280.52 Q2152.22 1285.26 2154.51 1287.9 Q2156.8 1290.52 2160.95 1290.52 Q2162.8 1290.52 2164.6 1290.03 Q2166.43 1289.52 2168.24 1288.53 L2168.24 1292.46 Q2166.46 1293.29 2164.54 1293.71 Q2162.64 1294.13 2160.48 1294.13 Q2154.63 1294.13 2151.18 1290.45 Q2147.73 1286.77 2147.73 1280.52 Q2147.73 1274.17 2151.2 1270.54 Q2154.7 1266.91 2160.76 1266.91 Q2162.73 1266.91 2164.6 1267.32 Q2166.48 1267.72 2168.24 1268.53 Z" fill="#000000" fill-rule="nonzero" fill-opacity="1" /><path clip-path="url(#clip950)" d="M2179.86 1260.17 L2179.86 1267.53 L2188.63 1267.53 L2188.63 1270.84 L2179.86 1270.84 L2179.86 1284.91 Q2179.86 1288.09 2180.72 1288.99 Q2181.6 1289.89 2184.26 1289.89 L2188.63 1289.89 L2188.63 1293.46 L2184.26 1293.46 Q2179.33 1293.46 2177.45 1291.63 Q2175.58 1289.78 2175.58 1284.91 L2175.58 1270.84 L2172.45 1270.84 L2172.45 1267.53 L2175.58 1267.53 L2175.58 1260.17 L2179.86 1260.17 Z" fill="#000000" fill-rule="nonzero" fill-opacity="1" /><path clip-path="url(#clip950)" d="M2194.23 1267.53 L2198.49 1267.53 L2198.49 1293.46 L2194.23 1293.46 L2194.23 1267.53 M2194.23 1257.44 L2198.49 1257.44 L2198.49 1262.83 L2194.23 1262.83 L2194.23 1257.44 Z" fill="#000000" fill-rule="nonzero" fill-opacity="1" /><path clip-path="url(#clip950)" d="M2217.45 1270.52 Q2214.03 1270.52 2212.04 1273.2 Q2210.04 1275.86 2210.04 1280.52 Q2210.04 1285.17 2212.01 1287.85 Q2214 1290.52 2217.45 1290.52 Q2220.85 1290.52 2222.85 1287.83 Q2224.84 1285.15 2224.84 1280.52 Q2224.84 1275.91 2222.85 1273.22 Q2220.85 1270.52 2217.45 1270.52 M2217.45 1266.91 Q2223.01 1266.91 2226.18 1270.52 Q2229.35 1274.13 2229.35 1280.52 Q2229.35 1286.88 2226.18 1290.52 Q2223.01 1294.13 2217.45 1294.13 Q2211.87 1294.13 2208.7 1290.52 Q2205.55 1286.88 2205.55 1280.52 Q2205.55 1274.13 2208.7 1270.52 Q2211.87 1266.91 2217.45 1266.91 Z" fill="#000000" fill-rule="nonzero" fill-opacity="1" /><path clip-path="url(#clip950)" d="M2257.96 1277.81 L2257.96 1293.46 L2253.7 1293.46 L2253.7 1277.95 Q2253.7 1274.27 2252.27 1272.44 Q2250.83 1270.61 2247.96 1270.61 Q2244.51 1270.61 2242.52 1272.81 Q2240.53 1275.01 2240.53 1278.8 L2240.53 1293.46 L2236.25 1293.46 L2236.25 1267.53 L2240.53 1267.53 L2240.53 1271.56 Q2242.06 1269.22 2244.12 1268.06 Q2246.2 1266.91 2248.91 1266.91 Q2253.38 1266.91 2255.67 1269.68 Q2257.96 1272.44 2257.96 1277.81 Z" fill="#000000" fill-rule="nonzero" fill-opacity="1" /><circle clip-path="url(#clip950)" cx="1778.93" cy="1328.02" r="20.9455" fill="#e26f46" fill-rule="evenodd" fill-opacity="1" stroke="#000000" stroke-opacity="1" stroke-width="3.72364"/>
<path clip-path="url(#clip950)" d="M1889.75 1313.91 Q1884.65 1313.91 1881.64 1317.7 Q1878.66 1321.5 1878.66 1328.05 Q1878.66 1334.58 1881.64 1338.37 Q1884.65 1342.17 1889.75 1342.17 Q1894.84 1342.17 1897.8 1338.37 Q1900.79 1334.58 1900.79 1328.05 Q1900.79 1321.5 1897.8 1317.7 Q1894.84 1313.91 1889.75 1313.91 M1889.75 1310.11 Q1897.01 1310.11 1901.37 1315 Q1905.72 1319.86 1905.72 1328.05 Q1905.72 1336.22 1901.37 1341.11 Q1897.01 1345.97 1889.75 1345.97 Q1882.45 1345.97 1878.08 1341.11 Q1873.73 1336.25 1873.73 1328.05 Q1873.73 1319.86 1878.08 1315 Q1882.45 1310.11 1889.75 1310.11 Z" fill="#000000" fill-rule="nonzero" fill-opacity="1" /><path clip-path="url(#clip950)" d="M1931.46 1332.36 Q1931.46 1327.66 1929.51 1325 Q1927.59 1322.31 1924.21 1322.31 Q1920.83 1322.31 1918.89 1325 Q1916.97 1327.66 1916.97 1332.36 Q1916.97 1337.06 1918.89 1339.74 Q1920.83 1342.4 1924.21 1342.4 Q1927.59 1342.4 1929.51 1339.74 Q1931.46 1337.06 1931.46 1332.36 M1916.97 1323.31 Q1918.31 1320.99 1920.35 1319.88 Q1922.41 1318.75 1925.25 1318.75 Q1929.98 1318.75 1932.92 1322.5 Q1935.88 1326.25 1935.88 1332.36 Q1935.88 1338.47 1932.92 1342.22 Q1929.98 1345.97 1925.25 1345.97 Q1922.41 1345.97 1920.35 1344.86 Q1918.31 1343.72 1916.97 1341.41 L1916.97 1345.3 L1912.68 1345.3 L1912.68 1309.28 L1916.97 1309.28 L1916.97 1323.31 Z" fill="#000000" fill-rule="nonzero" fill-opacity="1" /><path clip-path="url(#clip950)" d="M1959.47 1320.13 L1959.47 1324.16 Q1957.66 1323.24 1955.72 1322.77 Q1953.77 1322.31 1951.69 1322.31 Q1948.52 1322.31 1946.92 1323.28 Q1945.35 1324.25 1945.35 1326.2 Q1945.35 1327.68 1946.48 1328.54 Q1947.62 1329.37 1951.04 1330.13 L1952.5 1330.46 Q1957.04 1331.43 1958.93 1333.21 Q1960.86 1334.97 1960.86 1338.14 Q1960.86 1341.75 1957.99 1343.86 Q1955.14 1345.97 1950.14 1345.97 Q1948.06 1345.97 1945.79 1345.55 Q1943.54 1345.16 1941.04 1344.35 L1941.04 1339.95 Q1943.4 1341.18 1945.69 1341.8 Q1947.99 1342.4 1950.23 1342.4 Q1953.24 1342.4 1954.86 1341.38 Q1956.48 1340.34 1956.48 1338.47 Q1956.48 1336.73 1955.3 1335.81 Q1954.14 1334.88 1950.18 1334.02 L1948.7 1333.68 Q1944.74 1332.84 1942.99 1331.13 Q1941.23 1329.39 1941.23 1326.38 Q1941.23 1322.73 1943.82 1320.74 Q1946.41 1318.75 1951.18 1318.75 Q1953.54 1318.75 1955.62 1319.09 Q1957.71 1319.44 1959.47 1320.13 Z" fill="#000000" fill-rule="nonzero" fill-opacity="1" /><path clip-path="url(#clip950)" d="M1989.81 1331.27 L1989.81 1333.35 L1970.23 1333.35 Q1970.51 1337.75 1972.87 1340.06 Q1975.25 1342.36 1979.49 1342.36 Q1981.94 1342.36 1984.24 1341.75 Q1986.55 1341.15 1988.82 1339.95 L1988.82 1343.98 Q1986.53 1344.95 1984.12 1345.46 Q1981.71 1345.97 1979.24 1345.97 Q1973.03 1345.97 1969.4 1342.36 Q1965.79 1338.75 1965.79 1332.59 Q1965.79 1326.22 1969.21 1322.5 Q1972.66 1318.75 1978.49 1318.75 Q1983.73 1318.75 1986.76 1322.13 Q1989.81 1325.48 1989.81 1331.27 M1985.55 1330.02 Q1985.51 1326.52 1983.59 1324.44 Q1981.69 1322.36 1978.54 1322.36 Q1974.98 1322.36 1972.82 1324.37 Q1970.69 1326.38 1970.37 1330.04 L1985.55 1330.02 Z" fill="#000000" fill-rule="nonzero" fill-opacity="1" /><path clip-path="url(#clip950)" d="M2011.83 1323.35 Q2011.11 1322.94 2010.25 1322.75 Q2009.42 1322.54 2008.4 1322.54 Q2004.79 1322.54 2002.85 1324.9 Q2000.93 1327.24 2000.93 1331.64 L2000.93 1345.3 L1996.64 1345.3 L1996.64 1319.37 L2000.93 1319.37 L2000.93 1323.4 Q2002.27 1321.04 2004.42 1319.9 Q2006.57 1318.75 2009.65 1318.75 Q2010.09 1318.75 2010.62 1318.81 Q2011.16 1318.86 2011.8 1318.98 L2011.83 1323.35 Z" fill="#000000" fill-rule="nonzero" fill-opacity="1" /><path clip-path="url(#clip950)" d="M2013.24 1319.37 L2017.75 1319.37 L2025.86 1341.13 L2033.96 1319.37 L2038.47 1319.37 L2028.75 1345.3 L2022.96 1345.3 L2013.24 1319.37 Z" fill="#000000" fill-rule="nonzero" fill-opacity="1" /><path clip-path="url(#clip950)" d="M2066.53 1331.27 L2066.53 1333.35 L2046.94 1333.35 Q2047.22 1337.75 2049.58 1340.06 Q2051.97 1342.36 2056.2 1342.36 Q2058.66 1342.36 2060.95 1341.75 Q2063.26 1341.15 2065.53 1339.95 L2065.53 1343.98 Q2063.24 1344.95 2060.83 1345.46 Q2058.42 1345.97 2055.95 1345.97 Q2049.74 1345.97 2046.11 1342.36 Q2042.5 1338.75 2042.5 1332.59 Q2042.5 1326.22 2045.92 1322.5 Q2049.37 1318.75 2055.21 1318.75 Q2060.44 1318.75 2063.47 1322.13 Q2066.53 1325.48 2066.53 1331.27 M2062.27 1330.02 Q2062.22 1326.52 2060.3 1324.44 Q2058.4 1322.36 2055.25 1322.36 Q2051.69 1322.36 2049.54 1324.37 Q2047.41 1326.38 2047.08 1330.04 L2062.27 1330.02 Z" fill="#000000" fill-rule="nonzero" fill-opacity="1" /><path clip-path="url(#clip950)" d="M2090.58 1323.31 L2090.58 1309.28 L2094.84 1309.28 L2094.84 1345.3 L2090.58 1345.3 L2090.58 1341.41 Q2089.23 1343.72 2087.17 1344.86 Q2085.14 1345.97 2082.27 1345.97 Q2077.57 1345.97 2074.61 1342.22 Q2071.67 1338.47 2071.67 1332.36 Q2071.67 1326.25 2074.61 1322.5 Q2077.57 1318.75 2082.27 1318.75 Q2085.14 1318.75 2087.17 1319.88 Q2089.23 1320.99 2090.58 1323.31 M2076.06 1332.36 Q2076.06 1337.06 2077.98 1339.74 Q2079.93 1342.4 2083.31 1342.4 Q2086.69 1342.4 2088.63 1339.74 Q2090.58 1337.06 2090.58 1332.36 Q2090.58 1327.66 2088.63 1325 Q2086.69 1322.31 2083.31 1322.31 Q2079.93 1322.31 2077.98 1325 Q2076.06 1327.66 2076.06 1332.36 Z" fill="#000000" fill-rule="nonzero" fill-opacity="1" /><path clip-path="url(#clip950)" d="M2123.54 1314.58 L2123.54 1341.45 L2129.19 1341.45 Q2136.34 1341.45 2139.65 1338.21 Q2142.98 1334.97 2142.98 1327.98 Q2142.98 1321.04 2139.65 1317.82 Q2136.34 1314.58 2129.19 1314.58 L2123.54 1314.58 M2118.86 1310.74 L2128.47 1310.74 Q2138.52 1310.74 2143.22 1314.93 Q2147.92 1319.09 2147.92 1327.98 Q2147.92 1336.92 2143.19 1341.11 Q2138.47 1345.3 2128.47 1345.3 L2118.86 1345.3 L2118.86 1310.74 Z" fill="#000000" fill-rule="nonzero" fill-opacity="1" /><path clip-path="url(#clip950)" d="M2166.97 1332.26 Q2161.8 1332.26 2159.81 1333.44 Q2157.82 1334.63 2157.82 1337.47 Q2157.82 1339.74 2159.3 1341.08 Q2160.81 1342.4 2163.38 1342.4 Q2166.92 1342.4 2169.05 1339.9 Q2171.2 1337.38 2171.2 1333.21 L2171.2 1332.26 L2166.97 1332.26 M2175.46 1330.5 L2175.46 1345.3 L2171.2 1345.3 L2171.2 1341.36 Q2169.74 1343.72 2167.57 1344.86 Q2165.39 1345.97 2162.24 1345.97 Q2158.26 1345.97 2155.9 1343.75 Q2153.56 1341.5 2153.56 1337.75 Q2153.56 1333.38 2156.48 1331.15 Q2159.42 1328.93 2165.23 1328.93 L2171.2 1328.93 L2171.2 1328.51 Q2171.2 1325.57 2169.26 1323.98 Q2167.34 1322.36 2163.84 1322.36 Q2161.62 1322.36 2159.51 1322.89 Q2157.41 1323.42 2155.46 1324.49 L2155.46 1320.55 Q2157.8 1319.65 2160 1319.21 Q2162.2 1318.75 2164.28 1318.75 Q2169.91 1318.75 2172.68 1321.66 Q2175.46 1324.58 2175.46 1330.5 Z" fill="#000000" fill-rule="nonzero" fill-opacity="1" /><path clip-path="url(#clip950)" d="M2188.45 1312.01 L2188.45 1319.37 L2197.22 1319.37 L2197.22 1322.68 L2188.45 1322.68 L2188.45 1336.75 Q2188.45 1339.93 2189.3 1340.83 Q2190.18 1341.73 2192.85 1341.73 L2197.22 1341.73 L2197.22 1345.3 L2192.85 1345.3 Q2187.91 1345.3 2186.04 1343.47 Q2184.16 1341.62 2184.16 1336.75 L2184.16 1322.68 L2181.04 1322.68 L2181.04 1319.37 L2184.16 1319.37 L2184.16 1312.01 L2188.45 1312.01 Z" fill="#000000" fill-rule="nonzero" fill-opacity="1" /><path clip-path="url(#clip950)" d="M2214.6 1332.26 Q2209.44 1332.26 2207.45 1333.44 Q2205.46 1334.63 2205.46 1337.47 Q2205.46 1339.74 2206.94 1341.08 Q2208.45 1342.4 2211.02 1342.4 Q2214.56 1342.4 2216.69 1339.9 Q2218.84 1337.38 2218.84 1333.21 L2218.84 1332.26 L2214.6 1332.26 M2223.1 1330.5 L2223.1 1345.3 L2218.84 1345.3 L2218.84 1341.36 Q2217.38 1343.72 2215.21 1344.86 Q2213.03 1345.97 2209.88 1345.97 Q2205.9 1345.97 2203.54 1343.75 Q2201.2 1341.5 2201.2 1337.75 Q2201.2 1333.38 2204.12 1331.15 Q2207.06 1328.93 2212.87 1328.93 L2218.84 1328.93 L2218.84 1328.51 Q2218.84 1325.57 2216.9 1323.98 Q2214.97 1322.36 2211.48 1322.36 Q2209.26 1322.36 2207.15 1322.89 Q2205.04 1323.42 2203.1 1324.49 L2203.1 1320.55 Q2205.44 1319.65 2207.64 1319.21 Q2209.84 1318.75 2211.92 1318.75 Q2217.54 1318.75 2220.32 1321.66 Q2223.1 1324.58 2223.1 1330.5 Z" fill="#000000" fill-rule="nonzero" fill-opacity="1" /></svg>
