<?xml version="1.0" encoding="utf-8"?>
<svg xmlns="http://www.w3.org/2000/svg" xmlns:xlink="http://www.w3.org/1999/xlink" width="600" height="400" viewBox="0 0 2400 1600">
<defs>
  <clipPath id="clip390">
    <rect x="0" y="0" width="2400" height="1600"/>
  </clipPath>
</defs>
<path clip-path="url(#clip390)" d="M0 1600 L2400 1600 L2400 0 L0 0  Z" fill="#ffffff" fill-rule="evenodd" fill-opacity="1"/>
<defs>
  <clipPath id="clip391">
    <rect x="480" y="0" width="1681" height="1600"/>
  </clipPath>
</defs>
<path clip-path="url(#clip390)" d="M250.028 1423.18 L2352.76 1423.18 L2352.76 123.472 L250.028 123.472  Z" fill="#ffffff" fill-rule="evenodd" fill-opacity="1"/>
<defs>
  <clipPath id="clip392">
    <rect x="250" y="123" width="2104" height="1301"/>
  </clipPath>
</defs>
<polyline clip-path="url(#clip392)" style="stroke:#000000; stroke-linecap:round; stroke-linejoin:round; stroke-width:2; stroke-opacity:0.1; fill:none" points="303.789,1423.18 303.789,123.472 "/>
<polyline clip-path="url(#clip392)" style="stroke:#000000; stroke-linecap:round; stroke-linejoin:round; stroke-width:2; stroke-opacity:0.1; fill:none" points="878.777,1423.18 878.777,123.472 "/>
<polyline clip-path="url(#clip392)" style="stroke:#000000; stroke-linecap:round; stroke-linejoin:round; stroke-width:2; stroke-opacity:0.1; fill:none" points="1453.76,1423.18 1453.76,123.472 "/>
<polyline clip-path="url(#clip392)" style="stroke:#000000; stroke-linecap:round; stroke-linejoin:round; stroke-width:2; stroke-opacity:0.1; fill:none" points="2028.75,1423.18 2028.75,123.472 "/>
<polyline clip-path="url(#clip392)" style="stroke:#000000; stroke-linecap:round; stroke-linejoin:round; stroke-width:2; stroke-opacity:0.1; fill:none" points="250.028,1386.4 2352.76,1386.4 "/>
<polyline clip-path="url(#clip392)" style="stroke:#000000; stroke-linecap:round; stroke-linejoin:round; stroke-width:2; stroke-opacity:0.1; fill:none" points="250.028,1079.86 2352.76,1079.86 "/>
<polyline clip-path="url(#clip392)" style="stroke:#000000; stroke-linecap:round; stroke-linejoin:round; stroke-width:2; stroke-opacity:0.1; fill:none" points="250.028,773.326 2352.76,773.326 "/>
<polyline clip-path="url(#clip392)" style="stroke:#000000; stroke-linecap:round; stroke-linejoin:round; stroke-width:2; stroke-opacity:0.1; fill:none" points="250.028,466.791 2352.76,466.791 "/>
<polyline clip-path="url(#clip392)" style="stroke:#000000; stroke-linecap:round; stroke-linejoin:round; stroke-width:2; stroke-opacity:0.1; fill:none" points="250.028,160.256 2352.76,160.256 "/>
<polyline clip-path="url(#clip390)" style="stroke:#000000; stroke-linecap:round; stroke-linejoin:round; stroke-width:4; stroke-opacity:1; fill:none" points="250.028,1423.18 2352.76,1423.18 "/>
<polyline clip-path="url(#clip390)" style="stroke:#000000; stroke-linecap:round; stroke-linejoin:round; stroke-width:4; stroke-opacity:1; fill:none" points="303.789,1423.18 303.789,1404.28 "/>
<polyline clip-path="url(#clip390)" style="stroke:#000000; stroke-linecap:round; stroke-linejoin:round; stroke-width:4; stroke-opacity:1; fill:none" points="878.777,1423.18 878.777,1404.28 "/>
<polyline clip-path="url(#clip390)" style="stroke:#000000; stroke-linecap:round; stroke-linejoin:round; stroke-width:4; stroke-opacity:1; fill:none" points="1453.76,1423.18 1453.76,1404.28 "/>
<polyline clip-path="url(#clip390)" style="stroke:#000000; stroke-linecap:round; stroke-linejoin:round; stroke-width:4; stroke-opacity:1; fill:none" points="2028.75,1423.18 2028.75,1404.28 "/>
<path clip-path="url(#clip390)" d="M303.789 1454.1 Q300.178 1454.1 298.35 1457.66 Q296.544 1461.2 296.544 1468.33 Q296.544 1475.44 298.35 1479.01 Q300.178 1482.55 303.789 1482.55 Q307.424 1482.55 309.229 1479.01 Q311.058 1475.44 311.058 1468.33 Q311.058 1461.2 309.229 1457.66 Q307.424 1454.1 303.789 1454.1 M303.789 1450.39 Q309.6 1450.39 312.655 1455 Q315.734 1459.58 315.734 1468.33 Q315.734 1477.06 312.655 1481.67 Q309.6 1486.25 303.789 1486.25 Q297.979 1486.25 294.901 1481.67 Q291.845 1477.06 291.845 1468.33 Q291.845 1459.58 294.901 1455 Q297.979 1450.39 303.789 1450.39 Z" fill="#000000" fill-rule="nonzero" fill-opacity="1" /><path clip-path="url(#clip390)" d="M838.383 1481.64 L846.022 1481.64 L846.022 1455.28 L837.712 1456.95 L837.712 1452.69 L845.976 1451.02 L850.652 1451.02 L850.652 1481.64 L858.291 1481.64 L858.291 1485.58 L838.383 1485.58 L838.383 1481.64 Z" fill="#000000" fill-rule="nonzero" fill-opacity="1" /><path clip-path="url(#clip390)" d="M877.735 1454.1 Q874.124 1454.1 872.295 1457.66 Q870.49 1461.2 870.49 1468.33 Q870.49 1475.44 872.295 1479.01 Q874.124 1482.55 877.735 1482.55 Q881.369 1482.55 883.175 1479.01 Q885.003 1475.44 885.003 1468.33 Q885.003 1461.2 883.175 1457.66 Q881.369 1454.1 877.735 1454.1 M877.735 1450.39 Q883.545 1450.39 886.601 1455 Q889.679 1459.58 889.679 1468.33 Q889.679 1477.06 886.601 1481.67 Q883.545 1486.25 877.735 1486.25 Q871.925 1486.25 868.846 1481.67 Q865.79 1477.06 865.79 1468.33 Q865.79 1459.58 868.846 1455 Q871.925 1450.39 877.735 1450.39 Z" fill="#000000" fill-rule="nonzero" fill-opacity="1" /><path clip-path="url(#clip390)" d="M907.897 1454.1 Q904.286 1454.1 902.457 1457.66 Q900.651 1461.2 900.651 1468.33 Q900.651 1475.44 902.457 1479.01 Q904.286 1482.55 907.897 1482.55 Q911.531 1482.55 913.337 1479.01 Q915.165 1475.44 915.165 1468.33 Q915.165 1461.2 913.337 1457.66 Q911.531 1454.1 907.897 1454.1 M907.897 1450.39 Q913.707 1450.39 916.762 1455 Q919.841 1459.58 919.841 1468.33 Q919.841 1477.06 916.762 1481.67 Q913.707 1486.25 907.897 1486.25 Q902.087 1486.25 899.008 1481.67 Q895.952 1477.06 895.952 1468.33 Q895.952 1459.58 899.008 1455 Q902.087 1450.39 907.897 1450.39 Z" fill="#000000" fill-rule="nonzero" fill-opacity="1" /><path clip-path="url(#clip390)" d="M1417.46 1481.64 L1433.78 1481.64 L1433.78 1485.58 L1411.83 1485.58 L1411.83 1481.64 Q1414.49 1478.89 1419.08 1474.26 Q1423.68 1469.61 1424.86 1468.27 Q1427.11 1465.74 1427.99 1464.01 Q1428.89 1462.25 1428.89 1460.56 Q1428.89 1457.8 1426.95 1456.07 Q1425.03 1454.33 1421.92 1454.33 Q1419.72 1454.33 1417.27 1455.09 Q1414.84 1455.86 1412.06 1457.41 L1412.06 1452.69 Q1414.89 1451.55 1417.34 1450.97 Q1419.79 1450.39 1421.83 1450.39 Q1427.2 1450.39 1430.4 1453.08 Q1433.59 1455.77 1433.59 1460.26 Q1433.59 1462.39 1432.78 1464.31 Q1431.99 1466.2 1429.89 1468.8 Q1429.31 1469.47 1426.21 1472.69 Q1423.1 1475.88 1417.46 1481.64 Z" fill="#000000" fill-rule="nonzero" fill-opacity="1" /><path clip-path="url(#clip390)" d="M1453.59 1454.1 Q1449.98 1454.1 1448.15 1457.66 Q1446.34 1461.2 1446.34 1468.33 Q1446.34 1475.44 1448.15 1479.01 Q1449.98 1482.55 1453.59 1482.55 Q1457.22 1482.55 1459.03 1479.01 Q1460.86 1475.44 1460.86 1468.33 Q1460.86 1461.2 1459.03 1457.66 Q1457.22 1454.1 1453.59 1454.1 M1453.59 1450.39 Q1459.4 1450.39 1462.46 1455 Q1465.53 1459.58 1465.53 1468.33 Q1465.53 1477.06 1462.46 1481.67 Q1459.4 1486.25 1453.59 1486.25 Q1447.78 1486.25 1444.7 1481.67 Q1441.65 1477.06 1441.65 1468.33 Q1441.65 1459.58 1444.7 1455 Q1447.78 1450.39 1453.59 1450.39 Z" fill="#000000" fill-rule="nonzero" fill-opacity="1" /><path clip-path="url(#clip390)" d="M1483.75 1454.1 Q1480.14 1454.1 1478.31 1457.66 Q1476.51 1461.2 1476.51 1468.33 Q1476.51 1475.44 1478.31 1479.01 Q1480.14 1482.55 1483.75 1482.55 Q1487.39 1482.55 1489.19 1479.01 Q1491.02 1475.44 1491.02 1468.33 Q1491.02 1461.2 1489.19 1457.66 Q1487.39 1454.1 1483.75 1454.1 M1483.75 1450.39 Q1489.56 1450.39 1492.62 1455 Q1495.7 1459.58 1495.7 1468.33 Q1495.7 1477.06 1492.62 1481.67 Q1489.56 1486.25 1483.75 1486.25 Q1477.94 1486.25 1474.86 1481.67 Q1471.81 1477.06 1471.81 1468.33 Q1471.81 1459.58 1474.86 1455 Q1477.94 1450.39 1483.75 1450.39 Z" fill="#000000" fill-rule="nonzero" fill-opacity="1" /><path clip-path="url(#clip390)" d="M2002.51 1466.95 Q2005.87 1467.66 2007.74 1469.93 Q2009.64 1472.2 2009.64 1475.53 Q2009.64 1480.65 2006.12 1483.45 Q2002.6 1486.25 1996.12 1486.25 Q1993.95 1486.25 1991.63 1485.81 Q1989.34 1485.39 1986.89 1484.54 L1986.89 1480.02 Q1988.83 1481.16 1991.15 1481.74 Q1993.46 1482.32 1995.98 1482.32 Q2000.38 1482.32 2002.67 1480.58 Q2004.99 1478.84 2004.99 1475.53 Q2004.99 1472.48 2002.84 1470.77 Q2000.71 1469.03 1996.89 1469.03 L1992.86 1469.03 L1992.86 1465.19 L1997.07 1465.19 Q2000.52 1465.19 2002.35 1463.82 Q2004.18 1462.43 2004.18 1459.84 Q2004.18 1457.18 2002.28 1455.77 Q2000.41 1454.33 1996.89 1454.33 Q1994.97 1454.33 1992.77 1454.75 Q1990.57 1455.16 1987.93 1456.04 L1987.93 1451.88 Q1990.59 1451.14 1992.91 1450.77 Q1995.24 1450.39 1997.3 1450.39 Q2002.63 1450.39 2005.73 1452.83 Q2008.83 1455.23 2008.83 1459.35 Q2008.83 1462.22 2007.19 1464.21 Q2005.54 1466.18 2002.51 1466.95 Z" fill="#000000" fill-rule="nonzero" fill-opacity="1" /><path clip-path="url(#clip390)" d="M2028.51 1454.1 Q2024.9 1454.1 2023.07 1457.66 Q2021.26 1461.2 2021.26 1468.33 Q2021.26 1475.44 2023.07 1479.01 Q2024.9 1482.55 2028.51 1482.55 Q2032.14 1482.55 2033.95 1479.01 Q2035.78 1475.44 2035.78 1468.33 Q2035.78 1461.2 2033.95 1457.66 Q2032.14 1454.1 2028.51 1454.1 M2028.51 1450.39 Q2034.32 1450.39 2037.37 1455 Q2040.45 1459.58 2040.45 1468.33 Q2040.45 1477.06 2037.37 1481.67 Q2034.32 1486.25 2028.51 1486.25 Q2022.7 1486.25 2019.62 1481.67 Q2016.56 1477.06 2016.56 1468.33 Q2016.56 1459.58 2019.62 1455 Q2022.7 1450.39 2028.51 1450.39 Z" fill="#000000" fill-rule="nonzero" fill-opacity="1" /><path clip-path="url(#clip390)" d="M2058.67 1454.1 Q2055.06 1454.1 2053.23 1457.66 Q2051.42 1461.2 2051.42 1468.33 Q2051.42 1475.44 2053.23 1479.01 Q2055.06 1482.55 2058.67 1482.55 Q2062.3 1482.55 2064.11 1479.01 Q2065.94 1475.44 2065.94 1468.33 Q2065.94 1461.2 2064.11 1457.66 Q2062.3 1454.1 2058.67 1454.1 M2058.67 1450.39 Q2064.48 1450.39 2067.54 1455 Q2070.61 1459.58 2070.61 1468.33 Q2070.61 1477.06 2067.54 1481.67 Q2064.48 1486.25 2058.67 1486.25 Q2052.86 1486.25 2049.78 1481.67 Q2046.73 1477.06 2046.73 1468.33 Q2046.73 1459.58 2049.78 1455 Q2052.86 1450.39 2058.67 1450.39 Z" fill="#000000" fill-rule="nonzero" fill-opacity="1" /><path clip-path="url(#clip390)" d="M1223.27 1520.52 L1263.47 1520.52 L1263.47 1525.93 L1246.6 1525.93 L1246.6 1568.04 L1240.14 1568.04 L1240.14 1525.93 L1223.27 1525.93 L1223.27 1520.52 Z" fill="#000000" fill-rule="nonzero" fill-opacity="1" /><path clip-path="url(#clip390)" d="M1267.42 1532.4 L1273.27 1532.4 L1273.27 1568.04 L1267.42 1568.04 L1267.42 1532.4 M1267.42 1518.52 L1273.27 1518.52 L1273.27 1525.93 L1267.42 1525.93 L1267.42 1518.52 Z" fill="#000000" fill-rule="nonzero" fill-opacity="1" /><path clip-path="url(#clip390)" d="M1313.28 1539.24 Q1315.48 1535.29 1318.53 1533.41 Q1321.59 1531.54 1325.72 1531.54 Q1331.29 1531.54 1334.32 1535.45 Q1337.34 1539.33 1337.34 1546.53 L1337.34 1568.04 L1331.45 1568.04 L1331.45 1546.72 Q1331.45 1541.59 1329.64 1539.11 Q1327.83 1536.63 1324.1 1536.63 Q1319.55 1536.63 1316.91 1539.65 Q1314.27 1542.68 1314.27 1547.9 L1314.27 1568.04 L1308.38 1568.04 L1308.38 1546.72 Q1308.38 1541.56 1306.56 1539.11 Q1304.75 1536.63 1300.96 1536.63 Q1296.47 1536.63 1293.83 1539.68 Q1291.19 1542.71 1291.19 1547.9 L1291.19 1568.04 L1285.3 1568.04 L1285.3 1532.4 L1291.19 1532.4 L1291.19 1537.93 Q1293.2 1534.66 1296 1533.1 Q1298.8 1531.54 1302.65 1531.54 Q1306.53 1531.54 1309.24 1533.51 Q1311.98 1535.48 1313.28 1539.24 Z" fill="#000000" fill-rule="nonzero" fill-opacity="1" /><path clip-path="url(#clip390)" d="M1379.52 1548.76 L1379.52 1551.62 L1352.59 1551.62 Q1352.97 1557.67 1356.22 1560.85 Q1359.5 1564 1365.32 1564 Q1368.69 1564 1371.84 1563.17 Q1375.03 1562.35 1378.15 1560.69 L1378.15 1566.23 Q1375 1567.57 1371.69 1568.27 Q1368.38 1568.97 1364.97 1568.97 Q1356.44 1568.97 1351.44 1564 Q1346.48 1559.04 1346.48 1550.57 Q1346.48 1541.82 1351.19 1536.69 Q1355.93 1531.54 1363.95 1531.54 Q1371.14 1531.54 1375.31 1536.18 Q1379.52 1540.8 1379.52 1548.76 M1373.66 1547.04 Q1373.6 1542.23 1370.95 1539.37 Q1368.34 1536.5 1364.01 1536.5 Q1359.11 1536.5 1356.15 1539.27 Q1353.22 1542.04 1352.78 1547.07 L1373.66 1547.04 Z" fill="#000000" fill-rule="nonzero" fill-opacity="1" /><polyline clip-path="url(#clip390)" style="stroke:#000000; stroke-linecap:round; stroke-linejoin:round; stroke-width:4; stroke-opacity:1; fill:none" points="250.028,1423.18 250.028,123.472 "/>
<polyline clip-path="url(#clip390)" style="stroke:#000000; stroke-linecap:round; stroke-linejoin:round; stroke-width:4; stroke-opacity:1; fill:none" points="250.028,1386.4 268.926,1386.4 "/>
<polyline clip-path="url(#clip390)" style="stroke:#000000; stroke-linecap:round; stroke-linejoin:round; stroke-width:4; stroke-opacity:1; fill:none" points="250.028,1079.86 268.926,1079.86 "/>
<polyline clip-path="url(#clip390)" style="stroke:#000000; stroke-linecap:round; stroke-linejoin:round; stroke-width:4; stroke-opacity:1; fill:none" points="250.028,773.326 268.926,773.326 "/>
<polyline clip-path="url(#clip390)" style="stroke:#000000; stroke-linecap:round; stroke-linejoin:round; stroke-width:4; stroke-opacity:1; fill:none" points="250.028,466.791 268.926,466.791 "/>
<polyline clip-path="url(#clip390)" style="stroke:#000000; stroke-linecap:round; stroke-linejoin:round; stroke-width:4; stroke-opacity:1; fill:none" points="250.028,160.256 268.926,160.256 "/>
<path clip-path="url(#clip390)" d="M126.691 1372.19 Q123.08 1372.19 121.251 1375.76 Q119.445 1379.3 119.445 1386.43 Q119.445 1393.54 121.251 1397.1 Q123.08 1400.64 126.691 1400.64 Q130.325 1400.64 132.13 1397.1 Q133.959 1393.54 133.959 1386.43 Q133.959 1379.3 132.13 1375.76 Q130.325 1372.19 126.691 1372.19 M126.691 1368.49 Q132.501 1368.49 135.556 1373.1 Q138.635 1377.68 138.635 1386.43 Q138.635 1395.16 135.556 1399.76 Q132.501 1404.35 126.691 1404.35 Q120.88 1404.35 117.802 1399.76 Q114.746 1395.16 114.746 1386.43 Q114.746 1377.68 117.802 1373.1 Q120.88 1368.49 126.691 1368.49 Z" fill="#000000" fill-rule="nonzero" fill-opacity="1" /><path clip-path="url(#clip390)" d="M146.853 1397.8 L151.737 1397.8 L151.737 1403.68 L146.853 1403.68 L146.853 1397.8 Z" fill="#000000" fill-rule="nonzero" fill-opacity="1" /><path clip-path="url(#clip390)" d="M171.922 1372.19 Q168.311 1372.19 166.482 1375.76 Q164.677 1379.3 164.677 1386.43 Q164.677 1393.54 166.482 1397.1 Q168.311 1400.64 171.922 1400.64 Q175.556 1400.64 177.362 1397.1 Q179.19 1393.54 179.19 1386.43 Q179.19 1379.3 177.362 1375.76 Q175.556 1372.19 171.922 1372.19 M171.922 1368.49 Q177.732 1368.49 180.788 1373.1 Q183.866 1377.68 183.866 1386.43 Q183.866 1395.16 180.788 1399.76 Q177.732 1404.35 171.922 1404.35 Q166.112 1404.35 163.033 1399.76 Q159.978 1395.16 159.978 1386.43 Q159.978 1377.68 163.033 1373.1 Q166.112 1368.49 171.922 1368.49 Z" fill="#000000" fill-rule="nonzero" fill-opacity="1" /><path clip-path="url(#clip390)" d="M202.084 1372.19 Q198.473 1372.19 196.644 1375.76 Q194.838 1379.3 194.838 1386.43 Q194.838 1393.54 196.644 1397.1 Q198.473 1400.64 202.084 1400.64 Q205.718 1400.64 207.524 1397.1 Q209.352 1393.54 209.352 1386.43 Q209.352 1379.3 207.524 1375.76 Q205.718 1372.19 202.084 1372.19 M202.084 1368.49 Q207.894 1368.49 210.949 1373.1 Q214.028 1377.68 214.028 1386.43 Q214.028 1395.16 210.949 1399.76 Q207.894 1404.35 202.084 1404.35 Q196.274 1404.35 193.195 1399.76 Q190.139 1395.16 190.139 1386.43 Q190.139 1377.68 193.195 1373.1 Q196.274 1368.49 202.084 1368.49 Z" fill="#000000" fill-rule="nonzero" fill-opacity="1" /><path clip-path="url(#clip390)" d="M128.288 1065.66 Q124.677 1065.66 122.848 1069.22 Q121.043 1072.77 121.043 1079.9 Q121.043 1087 122.848 1090.57 Q124.677 1094.11 128.288 1094.11 Q131.922 1094.11 133.728 1090.57 Q135.556 1087 135.556 1079.9 Q135.556 1072.77 133.728 1069.22 Q131.922 1065.66 128.288 1065.66 M128.288 1061.96 Q134.098 1061.96 137.154 1066.56 Q140.232 1071.15 140.232 1079.9 Q140.232 1088.62 137.154 1093.23 Q134.098 1097.81 128.288 1097.81 Q122.478 1097.81 119.399 1093.23 Q116.343 1088.62 116.343 1079.9 Q116.343 1071.15 119.399 1066.56 Q122.478 1061.96 128.288 1061.96 Z" fill="#000000" fill-rule="nonzero" fill-opacity="1" /><path clip-path="url(#clip390)" d="M148.45 1091.26 L153.334 1091.26 L153.334 1097.14 L148.45 1097.14 L148.45 1091.26 Z" fill="#000000" fill-rule="nonzero" fill-opacity="1" /><path clip-path="url(#clip390)" d="M173.519 1065.66 Q169.908 1065.66 168.079 1069.22 Q166.274 1072.77 166.274 1079.9 Q166.274 1087 168.079 1090.57 Q169.908 1094.11 173.519 1094.11 Q177.153 1094.11 178.959 1090.57 Q180.788 1087 180.788 1079.9 Q180.788 1072.77 178.959 1069.22 Q177.153 1065.66 173.519 1065.66 M173.519 1061.96 Q179.329 1061.96 182.385 1066.56 Q185.463 1071.15 185.463 1079.9 Q185.463 1088.62 182.385 1093.23 Q179.329 1097.81 173.519 1097.81 Q167.709 1097.81 164.63 1093.23 Q161.575 1088.62 161.575 1079.9 Q161.575 1071.15 164.63 1066.56 Q167.709 1061.96 173.519 1061.96 Z" fill="#000000" fill-rule="nonzero" fill-opacity="1" /><path clip-path="url(#clip390)" d="M197.709 1093.21 L214.028 1093.21 L214.028 1097.14 L192.084 1097.14 L192.084 1093.21 Q194.746 1090.45 199.329 1085.82 Q203.936 1081.17 205.116 1079.83 Q207.362 1077.3 208.241 1075.57 Q209.144 1073.81 209.144 1072.12 Q209.144 1069.36 207.199 1067.63 Q205.278 1065.89 202.176 1065.89 Q199.977 1065.89 197.524 1066.65 Q195.093 1067.42 192.315 1068.97 L192.315 1064.25 Q195.139 1063.11 197.593 1062.53 Q200.047 1061.96 202.084 1061.96 Q207.454 1061.96 210.649 1064.64 Q213.843 1067.33 213.843 1071.82 Q213.843 1073.95 213.033 1075.87 Q212.246 1077.77 210.139 1080.36 Q209.561 1081.03 206.459 1084.25 Q203.357 1087.44 197.709 1093.21 Z" fill="#000000" fill-rule="nonzero" fill-opacity="1" /><path clip-path="url(#clip390)" d="M126.205 759.125 Q122.593 759.125 120.765 762.689 Q118.959 766.231 118.959 773.361 Q118.959 780.467 120.765 784.032 Q122.593 787.574 126.205 787.574 Q129.839 787.574 131.644 784.032 Q133.473 780.467 133.473 773.361 Q133.473 766.231 131.644 762.689 Q129.839 759.125 126.205 759.125 M126.205 755.421 Q132.015 755.421 135.07 760.027 Q138.149 764.611 138.149 773.361 Q138.149 782.088 135.07 786.694 Q132.015 791.277 126.205 791.277 Q120.394 791.277 117.316 786.694 Q114.26 782.088 114.26 773.361 Q114.26 764.611 117.316 760.027 Q120.394 755.421 126.205 755.421 Z" fill="#000000" fill-rule="nonzero" fill-opacity="1" /><path clip-path="url(#clip390)" d="M146.366 784.726 L151.251 784.726 L151.251 790.606 L146.366 790.606 L146.366 784.726 Z" fill="#000000" fill-rule="nonzero" fill-opacity="1" /><path clip-path="url(#clip390)" d="M171.436 759.125 Q167.825 759.125 165.996 762.689 Q164.19 766.231 164.19 773.361 Q164.19 780.467 165.996 784.032 Q167.825 787.574 171.436 787.574 Q175.07 787.574 176.876 784.032 Q178.704 780.467 178.704 773.361 Q178.704 766.231 176.876 762.689 Q175.07 759.125 171.436 759.125 M171.436 755.421 Q177.246 755.421 180.301 760.027 Q183.38 764.611 183.38 773.361 Q183.38 782.088 180.301 786.694 Q177.246 791.277 171.436 791.277 Q165.626 791.277 162.547 786.694 Q159.491 782.088 159.491 773.361 Q159.491 764.611 162.547 760.027 Q165.626 755.421 171.436 755.421 Z" fill="#000000" fill-rule="nonzero" fill-opacity="1" /><path clip-path="url(#clip390)" d="M204.445 760.12 L192.639 778.569 L204.445 778.569 L204.445 760.12 M203.218 756.046 L209.098 756.046 L209.098 778.569 L214.028 778.569 L214.028 782.458 L209.098 782.458 L209.098 790.606 L204.445 790.606 L204.445 782.458 L188.843 782.458 L188.843 777.944 L203.218 756.046 Z" fill="#000000" fill-rule="nonzero" fill-opacity="1" /><path clip-path="url(#clip390)" d="M126.529 452.59 Q122.918 452.59 121.089 456.155 Q119.283 459.696 119.283 466.826 Q119.283 473.932 121.089 477.497 Q122.918 481.039 126.529 481.039 Q130.163 481.039 131.968 477.497 Q133.797 473.932 133.797 466.826 Q133.797 459.696 131.968 456.155 Q130.163 452.59 126.529 452.59 M126.529 448.886 Q132.339 448.886 135.394 453.493 Q138.473 458.076 138.473 466.826 Q138.473 475.553 135.394 480.159 Q132.339 484.742 126.529 484.742 Q120.718 484.742 117.64 480.159 Q114.584 475.553 114.584 466.826 Q114.584 458.076 117.64 453.493 Q120.718 448.886 126.529 448.886 Z" fill="#000000" fill-rule="nonzero" fill-opacity="1" /><path clip-path="url(#clip390)" d="M146.691 478.192 L151.575 478.192 L151.575 484.071 L146.691 484.071 L146.691 478.192 Z" fill="#000000" fill-rule="nonzero" fill-opacity="1" /><path clip-path="url(#clip390)" d="M171.76 452.59 Q168.149 452.59 166.32 456.155 Q164.515 459.696 164.515 466.826 Q164.515 473.932 166.32 477.497 Q168.149 481.039 171.76 481.039 Q175.394 481.039 177.2 477.497 Q179.028 473.932 179.028 466.826 Q179.028 459.696 177.2 456.155 Q175.394 452.59 171.76 452.59 M171.76 448.886 Q177.57 448.886 180.626 453.493 Q183.704 458.076 183.704 466.826 Q183.704 475.553 180.626 480.159 Q177.57 484.742 171.76 484.742 Q165.95 484.742 162.871 480.159 Q159.815 475.553 159.815 466.826 Q159.815 458.076 162.871 453.493 Q165.95 448.886 171.76 448.886 Z" fill="#000000" fill-rule="nonzero" fill-opacity="1" /><path clip-path="url(#clip390)" d="M202.5 464.928 Q199.352 464.928 197.5 467.08 Q195.672 469.233 195.672 472.983 Q195.672 476.71 197.5 478.886 Q199.352 481.039 202.5 481.039 Q205.649 481.039 207.477 478.886 Q209.329 476.71 209.329 472.983 Q209.329 469.233 207.477 467.08 Q205.649 464.928 202.5 464.928 M211.783 450.275 L211.783 454.534 Q210.024 453.701 208.218 453.261 Q206.436 452.821 204.676 452.821 Q200.047 452.821 197.593 455.946 Q195.163 459.071 194.815 465.391 Q196.181 463.377 198.241 462.312 Q200.301 461.224 202.778 461.224 Q207.987 461.224 210.996 464.395 Q214.028 467.543 214.028 472.983 Q214.028 478.307 210.88 481.525 Q207.732 484.742 202.5 484.742 Q196.505 484.742 193.334 480.159 Q190.163 475.553 190.163 466.826 Q190.163 458.631 194.051 453.77 Q197.94 448.886 204.491 448.886 Q206.25 448.886 208.033 449.233 Q209.838 449.581 211.783 450.275 Z" fill="#000000" fill-rule="nonzero" fill-opacity="1" /><path clip-path="url(#clip390)" d="M126.783 146.055 Q123.172 146.055 121.343 149.62 Q119.538 153.161 119.538 160.291 Q119.538 167.397 121.343 170.962 Q123.172 174.504 126.783 174.504 Q130.417 174.504 132.223 170.962 Q134.052 167.397 134.052 160.291 Q134.052 153.161 132.223 149.62 Q130.417 146.055 126.783 146.055 M126.783 142.351 Q132.593 142.351 135.649 146.958 Q138.728 151.541 138.728 160.291 Q138.728 169.018 135.649 173.624 Q132.593 178.208 126.783 178.208 Q120.973 178.208 117.894 173.624 Q114.839 169.018 114.839 160.291 Q114.839 151.541 117.894 146.958 Q120.973 142.351 126.783 142.351 Z" fill="#000000" fill-rule="nonzero" fill-opacity="1" /><path clip-path="url(#clip390)" d="M146.945 171.657 L151.829 171.657 L151.829 177.536 L146.945 177.536 L146.945 171.657 Z" fill="#000000" fill-rule="nonzero" fill-opacity="1" /><path clip-path="url(#clip390)" d="M172.014 146.055 Q168.403 146.055 166.575 149.62 Q164.769 153.161 164.769 160.291 Q164.769 167.397 166.575 170.962 Q168.403 174.504 172.014 174.504 Q175.649 174.504 177.454 170.962 Q179.283 167.397 179.283 160.291 Q179.283 153.161 177.454 149.62 Q175.649 146.055 172.014 146.055 M172.014 142.351 Q177.825 142.351 180.88 146.958 Q183.959 151.541 183.959 160.291 Q183.959 169.018 180.88 173.624 Q177.825 178.208 172.014 178.208 Q166.204 178.208 163.126 173.624 Q160.07 169.018 160.07 160.291 Q160.07 151.541 163.126 146.958 Q166.204 142.351 172.014 142.351 Z" fill="#000000" fill-rule="nonzero" fill-opacity="1" /><path clip-path="url(#clip390)" d="M202.176 161.124 Q198.843 161.124 196.922 162.907 Q195.024 164.689 195.024 167.814 Q195.024 170.939 196.922 172.722 Q198.843 174.504 202.176 174.504 Q205.51 174.504 207.431 172.722 Q209.352 170.916 209.352 167.814 Q209.352 164.689 207.431 162.907 Q205.533 161.124 202.176 161.124 M197.5 159.134 Q194.491 158.393 192.801 156.333 Q191.135 154.273 191.135 151.31 Q191.135 147.166 194.075 144.759 Q197.037 142.351 202.176 142.351 Q207.338 142.351 210.278 144.759 Q213.218 147.166 213.218 151.31 Q213.218 154.273 211.528 156.333 Q209.861 158.393 206.875 159.134 Q210.255 159.921 212.13 162.212 Q214.028 164.504 214.028 167.814 Q214.028 172.837 210.949 175.522 Q207.894 178.208 202.176 178.208 Q196.459 178.208 193.38 175.522 Q190.325 172.837 190.325 167.814 Q190.325 164.504 192.223 162.212 Q194.121 159.921 197.5 159.134 M195.787 151.749 Q195.787 154.435 197.454 155.939 Q199.144 157.444 202.176 157.444 Q205.186 157.444 206.875 155.939 Q208.588 154.435 208.588 151.749 Q208.588 149.064 206.875 147.56 Q205.186 146.055 202.176 146.055 Q199.144 146.055 197.454 147.56 Q195.787 149.064 195.787 151.749 Z" fill="#000000" fill-rule="nonzero" fill-opacity="1" /><path clip-path="url(#clip390)" d="M20.1444 820.225 L26.9239 820.225 Q23.9002 823.472 22.4043 827.164 Q20.9083 830.824 20.9083 834.962 Q20.9083 843.11 25.9054 847.439 Q30.8707 851.767 40.2919 851.767 Q49.6813 851.767 54.6784 847.439 Q59.6436 843.11 59.6436 834.962 Q59.6436 830.824 58.1477 827.164 Q56.6518 823.472 53.6281 820.225 L60.3439 820.225 Q62.6355 823.599 63.7814 827.387 Q64.9272 831.143 64.9272 835.344 Q64.9272 846.134 58.3387 852.34 Q51.7183 858.547 40.2919 858.547 Q28.8336 858.547 22.2451 852.34 Q15.6248 846.134 15.6248 835.344 Q15.6248 831.079 16.7706 827.323 Q17.8846 823.535 20.1444 820.225 Z" fill="#000000" fill-rule="nonzero" fill-opacity="1" /><path clip-path="url(#clip390)" d="M16.4842 816.883 L16.4842 776.684 L21.895 776.684 L21.895 793.553 L64.0042 793.553 L64.0042 800.014 L21.895 800.014 L21.895 816.883 L16.4842 816.883 Z" fill="#000000" fill-rule="nonzero" fill-opacity="1" /><path clip-path="url(#clip390)" d="M16.4842 770.477 L16.4842 761.82 L56.238 740.749 L16.4842 740.749 L16.4842 734.511 L64.0042 734.511 L64.0042 743.168 L24.2503 764.239 L64.0042 764.239 L64.0042 770.477 L16.4842 770.477 Z" fill="#000000" fill-rule="nonzero" fill-opacity="1" /><path clip-path="url(#clip390)" d="M16.4842 728.305 L16.4842 688.105 L21.895 688.105 L21.895 704.974 L64.0042 704.974 L64.0042 711.435 L21.895 711.435 L21.895 728.305 L16.4842 728.305 Z" fill="#000000" fill-rule="nonzero" fill-opacity="1" /><path clip-path="url(#clip390)" d="M1080.27 18.8205 L1080.27 41.5461 L1090.56 41.5461 Q1096.27 41.5461 1099.39 38.5889 Q1102.51 35.6318 1102.51 30.163 Q1102.51 24.7348 1099.39 21.7777 Q1096.27 18.8205 1090.56 18.8205 L1080.27 18.8205 M1072.09 12.096 L1090.56 12.096 Q1100.73 12.096 1105.92 16.714 Q1111.14 21.2916 1111.14 30.163 Q1111.14 39.1155 1105.92 43.6931 Q1100.73 48.2706 1090.56 48.2706 L1080.27 48.2706 L1080.27 72.576 L1072.09 72.576 L1072.09 12.096 Z" fill="#000000" fill-rule="nonzero" fill-opacity="1" /><path clip-path="url(#clip390)" d="M1138.69 49.7694 Q1129.65 49.7694 1126.17 51.8354 Q1122.69 53.9013 1122.69 58.8839 Q1122.69 62.8538 1125.28 65.2034 Q1127.91 67.5124 1132.41 67.5124 Q1138.61 67.5124 1142.33 63.1374 Q1146.1 58.7219 1146.1 51.4303 L1146.1 49.7694 L1138.69 49.7694 M1153.55 46.6907 L1153.55 72.576 L1146.1 72.576 L1146.1 65.6895 Q1143.55 69.8214 1139.74 71.8063 Q1135.93 73.7508 1130.42 73.7508 Q1123.46 73.7508 1119.32 69.8619 Q1115.23 65.9325 1115.23 59.3701 Q1115.23 51.7138 1120.34 47.825 Q1125.48 43.9361 1135.65 43.9361 L1146.1 43.9361 L1146.1 43.2069 Q1146.1 38.0623 1142.7 35.2672 Q1139.34 32.4315 1133.22 32.4315 Q1129.33 32.4315 1125.64 33.3632 Q1121.96 34.295 1118.55 36.1584 L1118.55 29.2718 Q1122.65 27.692 1126.49 26.9223 Q1130.34 26.1121 1133.99 26.1121 Q1143.83 26.1121 1148.69 31.2163 Q1153.55 36.3204 1153.55 46.6907 Z" fill="#000000" fill-rule="nonzero" fill-opacity="1" /><path clip-path="url(#clip390)" d="M1176.28 14.324 L1176.28 27.2059 L1191.63 27.2059 L1191.63 32.9987 L1176.28 32.9987 L1176.28 57.6282 Q1176.28 63.1779 1177.78 64.7578 Q1179.32 66.3376 1183.98 66.3376 L1191.63 66.3376 L1191.63 72.576 L1183.98 72.576 Q1175.35 72.576 1172.07 69.3758 Q1168.79 66.1351 1168.79 57.6282 L1168.79 32.9987 L1163.32 32.9987 L1163.32 27.2059 L1168.79 27.2059 L1168.79 14.324 L1176.28 14.324 Z" fill="#000000" fill-rule="nonzero" fill-opacity="1" /><path clip-path="url(#clip390)" d="M1201.44 27.2059 L1208.89 27.2059 L1208.89 72.576 L1201.44 72.576 L1201.44 27.2059 M1201.44 9.54393 L1208.89 9.54393 L1208.89 18.9825 L1201.44 18.9825 L1201.44 9.54393 Z" fill="#000000" fill-rule="nonzero" fill-opacity="1" /><path clip-path="url(#clip390)" d="M1263.29 48.0275 L1263.29 51.6733 L1229.02 51.6733 Q1229.51 59.3701 1233.64 63.421 Q1237.81 67.4314 1245.23 67.4314 Q1249.52 67.4314 1253.53 66.3781 Q1257.58 65.3249 1261.55 63.2184 L1261.55 70.267 Q1257.54 71.9684 1253.33 72.8596 Q1249.12 73.7508 1244.78 73.7508 Q1233.92 73.7508 1227.56 67.4314 Q1221.24 61.1119 1221.24 50.3365 Q1221.24 39.1965 1227.24 32.6746 Q1233.28 26.1121 1243.48 26.1121 Q1252.64 26.1121 1257.95 32.0264 Q1263.29 37.9003 1263.29 48.0275 M1255.84 45.84 Q1255.76 39.7232 1252.4 36.0774 Q1249.07 32.4315 1243.57 32.4315 Q1237.33 32.4315 1233.56 35.9558 Q1229.83 39.4801 1229.27 45.8805 L1255.84 45.84 Z" fill="#000000" fill-rule="nonzero" fill-opacity="1" /><path clip-path="url(#clip390)" d="M1313.24 45.1919 L1313.24 72.576 L1305.79 72.576 L1305.79 45.4349 Q1305.79 38.994 1303.28 35.7938 Q1300.76 32.5936 1295.74 32.5936 Q1289.71 32.5936 1286.22 36.4419 Q1282.74 40.2903 1282.74 46.9338 L1282.74 72.576 L1275.24 72.576 L1275.24 27.2059 L1282.74 27.2059 L1282.74 34.2544 Q1285.41 30.163 1289.02 28.1376 Q1292.66 26.1121 1297.4 26.1121 Q1305.22 26.1121 1309.23 30.9732 Q1313.24 35.7938 1313.24 45.1919 Z" fill="#000000" fill-rule="nonzero" fill-opacity="1" /><path clip-path="url(#clip390)" d="M1335.48 14.324 L1335.48 27.2059 L1350.83 27.2059 L1350.83 32.9987 L1335.48 32.9987 L1335.48 57.6282 Q1335.48 63.1779 1336.98 64.7578 Q1338.52 66.3376 1343.18 66.3376 L1350.83 66.3376 L1350.83 72.576 L1343.18 72.576 Q1334.55 72.576 1331.27 69.3758 Q1327.99 66.1351 1327.99 57.6282 L1327.99 32.9987 L1322.52 32.9987 L1322.52 27.2059 L1327.99 27.2059 L1327.99 14.324 L1335.48 14.324 Z" fill="#000000" fill-rule="nonzero" fill-opacity="1" /><path clip-path="url(#clip390)" d="M1424.72 45.1919 L1424.72 72.576 L1417.27 72.576 L1417.27 45.4349 Q1417.27 38.994 1414.76 35.7938 Q1412.25 32.5936 1407.22 32.5936 Q1401.19 32.5936 1397.7 36.4419 Q1394.22 40.2903 1394.22 46.9338 L1394.22 72.576 L1386.72 72.576 L1386.72 27.2059 L1394.22 27.2059 L1394.22 34.2544 Q1396.89 30.163 1400.5 28.1376 Q1404.14 26.1121 1408.88 26.1121 Q1416.7 26.1121 1420.71 30.9732 Q1424.72 35.7938 1424.72 45.1919 Z" fill="#000000" fill-rule="nonzero" fill-opacity="1" /><path clip-path="url(#clip390)" d="M1440.72 12.096 L1472.85 12.096 L1472.85 18.9825 L1448.22 18.9825 L1448.22 33.8088 Q1450 33.2012 1451.78 32.9176 Q1453.56 32.5936 1455.35 32.5936 Q1465.47 32.5936 1471.39 38.1433 Q1477.3 43.6931 1477.3 53.1722 Q1477.3 62.9348 1471.23 68.3631 Q1465.15 73.7508 1454.09 73.7508 Q1450.28 73.7508 1446.31 73.1026 Q1442.38 72.4545 1438.17 71.1582 L1438.17 62.9348 Q1441.82 64.9198 1445.71 65.892 Q1449.59 66.8642 1453.93 66.8642 Q1460.94 66.8642 1465.03 63.1779 Q1469.12 59.4916 1469.12 53.1722 Q1469.12 46.8528 1465.03 43.1664 Q1460.94 39.4801 1453.93 39.4801 Q1450.65 39.4801 1447.37 40.2093 Q1444.13 40.9384 1440.72 42.4778 L1440.72 12.096 Z" fill="#000000" fill-rule="nonzero" fill-opacity="1" /><path clip-path="url(#clip390)" d="M1518.22 39.9662 Q1524.09 41.222 1527.37 45.1919 Q1530.69 49.1618 1530.69 54.9951 Q1530.69 63.9476 1524.54 68.8492 Q1518.38 73.7508 1507.04 73.7508 Q1503.23 73.7508 1499.18 72.9811 Q1495.17 72.2519 1490.87 70.7531 L1490.87 62.8538 Q1494.28 64.8388 1498.33 65.8515 Q1502.38 66.8642 1506.79 66.8642 Q1514.49 66.8642 1518.5 63.826 Q1522.55 60.7879 1522.55 54.9951 Q1522.55 49.6479 1518.78 46.6502 Q1515.06 43.612 1508.37 43.612 L1501.32 43.612 L1501.32 36.8875 L1508.7 36.8875 Q1514.73 36.8875 1517.93 34.4975 Q1521.13 32.067 1521.13 27.5299 Q1521.13 22.8714 1517.81 20.4004 Q1514.53 17.8888 1508.37 17.8888 Q1505.01 17.8888 1501.16 18.618 Q1497.31 19.3471 1492.7 20.8865 L1492.7 13.5948 Q1497.35 12.2985 1501.41 11.6504 Q1505.5 11.0023 1509.1 11.0023 Q1518.42 11.0023 1523.85 15.2557 Q1529.28 19.4686 1529.28 26.6793 Q1529.28 31.7024 1526.4 35.1862 Q1523.52 38.6294 1518.22 39.9662 Z" fill="#000000" fill-rule="nonzero" fill-opacity="1" /><polyline clip-path="url(#clip392)" style="stroke:#009af9; stroke-linecap:round; stroke-linejoin:round; stroke-width:8; stroke-opacity:1; fill:none" points="309.539,1386.4 315.289,1361.09 321.039,1341.87 326.789,1327.22 332.539,1316.04 338.289,1307.52 344.039,1301.02 349.788,1296.08 355.538,1292.32 361.288,1289.47 367.038,1287.3 372.788,1285.67 378.538,1284.42 384.288,1283.51 390.037,1282.81 395.787,1282.29 401.537,1281.92 407.287,1281.63 413.037,1281.44 418.787,1281.31 424.537,1281.21 430.287,1281.15 436.036,1281.13 441.786,1281.12 447.536,1281.13 453.286,1281.14 459.036,1281.17 464.786,1281.2 470.536,1281.24 476.286,1281.28 482.035,1281.33 487.785,1281.37 493.535,1281.42 499.285,1281.47 505.035,1281.52 510.785,1281.57 516.535,1281.62 522.285,1281.67 528.034,1281.72 533.784,1281.77 539.534,1281.82 545.284,1281.88 551.034,1281.93 556.784,1281.98 562.534,1282.03 568.283,1282.08 574.033,1282.14 579.783,1282.19 585.533,1282.24 591.283,1282.29 597.033,1282.34 602.783,1282.4 608.533,1282.45 614.282,1282.5 620.032,1282.55 625.782,1282.6 631.532,1282.65 637.282,1282.71 643.032,1282.76 648.782,1282.81 654.532,1282.86 660.281,1282.91 666.031,1282.96 671.781,1283.01 677.531,1283.07 683.281,1283.12 689.031,1283.17 694.781,1283.22 700.531,1283.27 706.28,1283.32 712.03,1283.37 717.78,1283.43 723.53,1283.48 729.28,1283.53 735.03,1283.58 740.78,1283.63 746.529,1283.68 752.279,1283.73 758.029,1283.78 763.779,1283.84 769.529,1283.89 775.279,1283.94 781.029,1283.99 786.779,1284.04 792.528,1284.09 798.278,1284.14 804.028,1284.19 809.778,1284.24 815.528,1284.29 821.278,1284.34 827.028,1284.4 832.778,1284.45 838.527,1284.5 844.277,1284.55 850.027,1284.6 855.777,1284.65 861.527,1284.7 867.277,1284.75 873.027,1284.8 878.777,1284.85 884.526,1284.9 890.276,1284.95 896.026,1285 901.776,1285.05 907.526,1285.1 913.276,1285.15 919.026,1285.2 924.775,1285.26 930.525,1285.31 936.275,1285.36 942.025,1285.41 947.775,1285.46 953.525,1285.51 959.275,1285.56 965.025,1285.61 970.774,1285.66 976.524,1285.71 982.274,1285.76 988.024,1285.81 993.774,1285.86 999.524,1285.91 1005.27,1285.96 1011.02,1286.01 1016.77,1286.06 1022.52,1286.11 1028.27,1286.16 1034.02,1286.21 1039.77,1286.26 1045.52,1286.31 1051.27,1286.36 1057.02,1286.41 1062.77,1286.46 1068.52,1286.51 1074.27,1286.56 1080.02,1286.61 1085.77,1286.66 1091.52,1286.71 1097.27,1286.75 1103.02,1286.8 1108.77,1286.85 1114.52,1286.9 1120.27,1286.95 1126.02,1287 1131.77,1287.05 1137.52,1287.1 1143.27,1287.15 1149.02,1287.2 1154.77,1287.25 1160.52,1287.3 1166.27,1287.35 1172.02,1287.4 1177.77,1287.45 1183.52,1287.5 1189.27,1287.55 1195.02,1287.59 1200.77,1287.64 1206.52,1287.69 1212.27,1287.74 1218.02,1287.79 1223.77,1287.84 1229.52,1287.89 1235.27,1287.94 1241.02,1287.99 1246.77,1288.04 1252.52,1288.09 1258.27,1288.13 1264.02,1288.18 1269.77,1288.23 1275.52,1288.28 1281.27,1288.33 1287.02,1288.38 1292.77,1288.43 1298.52,1288.48 1304.27,1288.53 1310.02,1288.57 1315.77,1288.62 1321.52,1288.67 1327.27,1288.72 1333.02,1288.77 1338.77,1288.82 1344.52,1288.87 1350.27,1288.91 1356.02,1288.96 1361.77,1289.01 1367.52,1289.06 1373.27,1289.11 1379.02,1289.16 1384.77,1289.21 1390.52,1289.25 1396.26,1289.3 1402.01,1289.35 1407.76,1289.4 1413.51,1289.45 1419.26,1289.5 1425.01,1289.54 1430.76,1289.59 1436.51,1289.64 1442.26,1289.69 1448.01,1289.74 1453.76,1289.79 1459.51,1289.83 1465.26,1289.88 1471.01,1289.93 1476.76,1289.98 1482.51,1290.03 1488.26,1290.07 1494.01,1290.12 1499.76,1290.17 1505.51,1290.22 1511.26,1290.27 1517.01,1290.31 1522.76,1290.36 1528.51,1290.41 1534.26,1290.46 1540.01,1290.5 1545.76,1290.55 1551.51,1290.6 1557.26,1290.65 1563.01,1290.7 1568.76,1290.74 1574.51,1290.79 1580.26,1290.84 1586.01,1290.89 1591.76,1290.93 1597.51,1290.98 1603.26,1291.03 1609.01,1291.08 1614.76,1291.12 1620.51,1291.17 1626.26,1291.22 1632.01,1291.27 1637.76,1291.31 1643.51,1291.36 1649.26,1291.41 1655.01,1291.45 1660.76,1291.5 1666.51,1291.55 1672.26,1291.6 1678.01,1291.64 1683.76,1291.69 1689.51,1291.74 1695.26,1291.79 1701.01,1291.83 1706.76,1291.88 1712.51,1291.93 1718.26,1291.97 1724.01,1292.02 1729.76,1292.07 1735.51,1292.11 1741.26,1292.16 1747.01,1292.21 1752.76,1292.26 1758.51,1292.3 1764.26,1292.35 1770.01,1292.4 1775.76,1292.44 1781.51,1292.49 1787.26,1292.54 1793.01,1292.58 1798.76,1292.63 1804.51,1292.68 1810.26,1292.72 1816.01,1292.77 1821.76,1292.82 1827.51,1292.86 1833.26,1292.91 1839,1292.96 1844.75,1293 1850.5,1293.05 1856.25,1293.1 1862,1293.14 1867.75,1293.19 1873.5,1293.23 1879.25,1293.28 1885,1293.33 1890.75,1293.37 1896.5,1293.42 1902.25,1293.47 1908,1293.51 1913.75,1293.56 1919.5,1293.61 1925.25,1293.65 1931,1293.7 1936.75,1293.74 1942.5,1293.79 1948.25,1293.84 1954,1293.88 1959.75,1293.93 1965.5,1293.97 1971.25,1294.02 1977,1294.07 1982.75,1294.11 1988.5,1294.16 1994.25,1294.2 2000,1294.25 2005.75,1294.3 2011.5,1294.34 2017.25,1294.39 2023,1294.43 2028.75,1294.48 2034.5,1294.53 2040.25,1294.57 2046,1294.62 2051.75,1294.66 2057.5,1294.71 2063.25,1294.75 2069,1294.8 2074.75,1294.85 2080.5,1294.89 2086.25,1294.94 2092,1294.98 2097.75,1295.03 2103.5,1295.07 2109.25,1295.12 2115,1295.16 2120.75,1295.21 2126.5,1295.25 2132.25,1295.3 2138,1295.35 2143.75,1295.39 2149.5,1295.44 2155.25,1295.48 2161,1295.53 2166.75,1295.57 2172.5,1295.62 2178.25,1295.66 2184,1295.71 2189.75,1295.75 2195.5,1295.8 2201.25,1295.84 2207,1295.89 2212.75,1295.93 2218.5,1295.98 2224.25,1296.02 2230,1296.07 2235.75,1296.11 2241.5,1296.16 2247.25,1296.2 2253,1296.25 2258.75,1296.29 2264.5,1296.34 2270.25,1296.38 2276,1296.43 2281.75,1296.47 2287.49,1296.52 2293.24,1296.56 "/>
<circle clip-path="url(#clip392)" cx="1554.77" cy="696.692" r="18" fill="#e26f46" fill-rule="evenodd" fill-opacity="1" stroke="#000000" stroke-opacity="1" stroke-width="3.2"/>
<circle clip-path="url(#clip392)" cx="1581.31" cy="696.692" r="18" fill="#e26f46" fill-rule="evenodd" fill-opacity="1" stroke="#000000" stroke-opacity="1" stroke-width="3.2"/>
<circle clip-path="url(#clip392)" cx="1672.26" cy="160.256" r="18" fill="#e26f46" fill-rule="evenodd" fill-opacity="1" stroke="#000000" stroke-opacity="1" stroke-width="3.2"/>
<circle clip-path="url(#clip392)" cx="1812.08" cy="482.118" r="18" fill="#e26f46" fill-rule="evenodd" fill-opacity="1" stroke="#000000" stroke-opacity="1" stroke-width="3.2"/>
<circle clip-path="url(#clip392)" cx="1944.42" cy="543.425" r="18" fill="#e26f46" fill-rule="evenodd" fill-opacity="1" stroke="#000000" stroke-opacity="1" stroke-width="3.2"/>
<circle clip-path="url(#clip392)" cx="2018.02" cy="543.425" r="18" fill="#e26f46" fill-rule="evenodd" fill-opacity="1" stroke="#000000" stroke-opacity="1" stroke-width="3.2"/>
<circle clip-path="url(#clip392)" cx="2083.47" cy="374.831" r="18" fill="#e26f46" fill-rule="evenodd" fill-opacity="1" stroke="#000000" stroke-opacity="1" stroke-width="3.2"/>
<circle clip-path="url(#clip392)" cx="2229.8" cy="543.425" r="18" fill="#e26f46" fill-rule="evenodd" fill-opacity="1" stroke="#000000" stroke-opacity="1" stroke-width="3.2"/>
<path clip-path="url(#clip390)" d="M320.119 322.316 L914.626 322.316 L914.626 166.796 L320.119 166.796  Z" fill="#ffffff" fill-rule="evenodd" fill-opacity="1"/>
<polyline clip-path="url(#clip390)" style="stroke:#000000; stroke-linecap:round; stroke-linejoin:round; stroke-width:4; stroke-opacity:1; fill:none" points="320.119,322.316 914.626,322.316 914.626,166.796 320.119,166.796 320.119,322.316 "/>
<polyline clip-path="url(#clip390)" style="stroke:#009af9; stroke-linecap:round; stroke-linejoin:round; stroke-width:8; stroke-opacity:1; fill:none" points="343.483,218.636 483.665,218.636 "/>
<path clip-path="url(#clip390)" d="M507.028 201.356 L513.996 201.356 L522.815 224.874 L531.681 201.356 L538.648 201.356 L538.648 235.916 L534.088 235.916 L534.088 205.569 L525.176 229.272 L520.477 229.272 L511.565 205.569 L511.565 235.916 L507.028 235.916 L507.028 201.356 Z" fill="#000000" fill-rule="nonzero" fill-opacity="1" /><path clip-path="url(#clip390)" d="M557.792 212.976 Q554.366 212.976 552.375 215.661 Q550.384 218.323 550.384 222.976 Q550.384 227.629 552.352 230.314 Q554.343 232.976 557.792 232.976 Q561.195 232.976 563.185 230.291 Q565.176 227.606 565.176 222.976 Q565.176 218.37 563.185 215.684 Q561.195 212.976 557.792 212.976 M557.792 209.365 Q563.347 209.365 566.519 212.976 Q569.69 216.587 569.69 222.976 Q569.69 229.342 566.519 232.976 Q563.347 236.587 557.792 236.587 Q552.213 236.587 549.042 232.976 Q545.894 229.342 545.894 222.976 Q545.894 216.587 549.042 212.976 Q552.213 209.365 557.792 209.365 Z" fill="#000000" fill-rule="nonzero" fill-opacity="1" /><path clip-path="url(#clip390)" d="M593.81 213.925 L593.81 199.897 L598.069 199.897 L598.069 235.916 L593.81 235.916 L593.81 232.027 Q592.468 234.342 590.407 235.476 Q588.37 236.587 585.5 236.587 Q580.801 236.587 577.838 232.837 Q574.898 229.087 574.898 222.976 Q574.898 216.865 577.838 213.115 Q580.801 209.365 585.5 209.365 Q588.37 209.365 590.407 210.499 Q592.468 211.61 593.81 213.925 M579.296 222.976 Q579.296 227.675 581.218 230.36 Q583.162 233.022 586.542 233.022 Q589.921 233.022 591.866 230.36 Q593.81 227.675 593.81 222.976 Q593.81 218.277 591.866 215.615 Q589.921 212.93 586.542 212.93 Q583.162 212.93 581.218 215.615 Q579.296 218.277 579.296 222.976 Z" fill="#000000" fill-rule="nonzero" fill-opacity="1" /><path clip-path="url(#clip390)" d="M629.018 221.888 L629.018 223.971 L609.435 223.971 Q609.713 228.369 612.074 230.684 Q614.458 232.976 618.694 232.976 Q621.148 232.976 623.44 232.374 Q625.754 231.772 628.023 230.569 L628.023 234.596 Q625.731 235.568 623.324 236.078 Q620.916 236.587 618.44 236.587 Q612.236 236.587 608.602 232.976 Q604.991 229.365 604.991 223.207 Q604.991 216.842 608.417 213.115 Q611.866 209.365 617.699 209.365 Q622.93 209.365 625.963 212.745 Q629.018 216.101 629.018 221.888 M624.759 220.638 Q624.713 217.143 622.791 215.059 Q620.893 212.976 617.745 212.976 Q614.18 212.976 612.028 214.99 Q609.898 217.004 609.574 220.661 L624.759 220.638 Z" fill="#000000" fill-rule="nonzero" fill-opacity="1" /><path clip-path="url(#clip390)" d="M636.009 199.897 L640.268 199.897 L640.268 235.916 L636.009 235.916 L636.009 199.897 Z" fill="#000000" fill-rule="nonzero" fill-opacity="1" /><path clip-path="url(#clip390)" d="M669.111 205.198 L669.111 218.184 L674.99 218.184 Q678.254 218.184 680.037 216.495 Q681.819 214.805 681.819 211.68 Q681.819 208.578 680.037 206.888 Q678.254 205.198 674.99 205.198 L669.111 205.198 M664.435 201.356 L674.99 201.356 Q680.8 201.356 683.763 203.995 Q686.749 206.61 686.749 211.68 Q686.749 216.795 683.763 219.411 Q680.8 222.027 674.99 222.027 L669.111 222.027 L669.111 235.916 L664.435 235.916 L664.435 201.356 Z" fill="#000000" fill-rule="nonzero" fill-opacity="1" /><path clip-path="url(#clip390)" d="M707.027 213.971 Q706.31 213.555 705.453 213.37 Q704.62 213.161 703.601 213.161 Q699.99 213.161 698.046 215.522 Q696.124 217.86 696.124 222.258 L696.124 235.916 L691.842 235.916 L691.842 209.99 L696.124 209.99 L696.124 214.018 Q697.467 211.657 699.62 210.522 Q701.773 209.365 704.851 209.365 Q705.291 209.365 705.823 209.434 Q706.356 209.481 707.004 209.596 L707.027 213.971 Z" fill="#000000" fill-rule="nonzero" fill-opacity="1" /><path clip-path="url(#clip390)" d="M732.629 221.888 L732.629 223.971 L713.046 223.971 Q713.323 228.369 715.684 230.684 Q718.069 232.976 722.305 232.976 Q724.759 232.976 727.05 232.374 Q729.365 231.772 731.633 230.569 L731.633 234.596 Q729.342 235.568 726.934 236.078 Q724.527 236.587 722.05 236.587 Q715.847 236.587 712.212 232.976 Q708.601 229.365 708.601 223.207 Q708.601 216.842 712.027 213.115 Q715.476 209.365 721.309 209.365 Q726.541 209.365 729.573 212.745 Q732.629 216.101 732.629 221.888 M728.37 220.638 Q728.323 217.143 726.402 215.059 Q724.504 212.976 721.356 212.976 Q717.791 212.976 715.638 214.99 Q713.509 217.004 713.185 220.661 L728.37 220.638 Z" fill="#000000" fill-rule="nonzero" fill-opacity="1" /><path clip-path="url(#clip390)" d="M756.68 213.925 L756.68 199.897 L760.939 199.897 L760.939 235.916 L756.68 235.916 L756.68 232.027 Q755.337 234.342 753.277 235.476 Q751.24 236.587 748.37 236.587 Q743.67 236.587 740.708 232.837 Q737.768 229.087 737.768 222.976 Q737.768 216.865 740.708 213.115 Q743.67 209.365 748.37 209.365 Q751.24 209.365 753.277 210.499 Q755.337 211.61 756.68 213.925 M742.166 222.976 Q742.166 227.675 744.087 230.36 Q746.032 233.022 749.411 233.022 Q752.791 233.022 754.735 230.36 Q756.68 227.675 756.68 222.976 Q756.68 218.277 754.735 215.615 Q752.791 212.93 749.411 212.93 Q746.032 212.93 744.087 215.615 Q742.166 218.277 742.166 222.976 Z" fill="#000000" fill-rule="nonzero" fill-opacity="1" /><path clip-path="url(#clip390)" d="M769.712 209.99 L773.971 209.99 L773.971 235.916 L769.712 235.916 L769.712 209.99 M769.712 199.897 L773.971 199.897 L773.971 205.291 L769.712 205.291 L769.712 199.897 Z" fill="#000000" fill-rule="nonzero" fill-opacity="1" /><path clip-path="url(#clip390)" d="M801.541 210.985 L801.541 214.967 Q799.735 213.971 797.906 213.485 Q796.101 212.976 794.249 212.976 Q790.105 212.976 787.814 215.615 Q785.522 218.231 785.522 222.976 Q785.522 227.721 787.814 230.36 Q790.105 232.976 794.249 232.976 Q796.101 232.976 797.906 232.49 Q799.735 231.981 801.541 230.985 L801.541 234.92 Q799.758 235.754 797.837 236.17 Q795.939 236.587 793.786 236.587 Q787.929 236.587 784.48 232.906 Q781.031 229.226 781.031 222.976 Q781.031 216.633 784.504 212.999 Q787.999 209.365 794.064 209.365 Q796.031 209.365 797.906 209.782 Q799.781 210.175 801.541 210.985 Z" fill="#000000" fill-rule="nonzero" fill-opacity="1" /><path clip-path="url(#clip390)" d="M813.161 202.629 L813.161 209.99 L821.934 209.99 L821.934 213.3 L813.161 213.3 L813.161 227.374 Q813.161 230.545 814.017 231.448 Q814.897 232.351 817.559 232.351 L821.934 232.351 L821.934 235.916 L817.559 235.916 Q812.628 235.916 810.753 234.087 Q808.878 232.235 808.878 227.374 L808.878 213.3 L805.753 213.3 L805.753 209.99 L808.878 209.99 L808.878 202.629 L813.161 202.629 Z" fill="#000000" fill-rule="nonzero" fill-opacity="1" /><path clip-path="url(#clip390)" d="M827.536 209.99 L831.795 209.99 L831.795 235.916 L827.536 235.916 L827.536 209.99 M827.536 199.897 L831.795 199.897 L831.795 205.291 L827.536 205.291 L827.536 199.897 Z" fill="#000000" fill-rule="nonzero" fill-opacity="1" /><path clip-path="url(#clip390)" d="M850.753 212.976 Q847.327 212.976 845.337 215.661 Q843.346 218.323 843.346 222.976 Q843.346 227.629 845.313 230.314 Q847.304 232.976 850.753 232.976 Q854.156 232.976 856.147 230.291 Q858.137 227.606 858.137 222.976 Q858.137 218.37 856.147 215.684 Q854.156 212.976 850.753 212.976 M850.753 209.365 Q856.309 209.365 859.48 212.976 Q862.651 216.587 862.651 222.976 Q862.651 229.342 859.48 232.976 Q856.309 236.587 850.753 236.587 Q845.175 236.587 842.003 232.976 Q838.855 229.342 838.855 222.976 Q838.855 216.587 842.003 212.976 Q845.175 209.365 850.753 209.365 Z" fill="#000000" fill-rule="nonzero" fill-opacity="1" /><path clip-path="url(#clip390)" d="M891.262 220.268 L891.262 235.916 L887.003 235.916 L887.003 220.407 Q887.003 216.726 885.568 214.897 Q884.133 213.069 881.262 213.069 Q877.813 213.069 875.823 215.268 Q873.832 217.467 873.832 221.263 L873.832 235.916 L869.549 235.916 L869.549 209.99 L873.832 209.99 L873.832 214.018 Q875.36 211.68 877.42 210.522 Q879.503 209.365 882.211 209.365 Q886.679 209.365 888.971 212.143 Q891.262 214.897 891.262 220.268 Z" fill="#000000" fill-rule="nonzero" fill-opacity="1" /><circle clip-path="url(#clip390)" cx="413.574" cy="270.476" r="20.9455" fill="#e26f46" fill-rule="evenodd" fill-opacity="1" stroke="#000000" stroke-opacity="1" stroke-width="3.72364"/>
<path clip-path="url(#clip390)" d="M523.047 256.367 Q517.954 256.367 514.945 260.163 Q511.959 263.96 511.959 270.51 Q511.959 277.038 514.945 280.834 Q517.954 284.631 523.047 284.631 Q528.139 284.631 531.102 280.834 Q534.088 277.038 534.088 270.51 Q534.088 263.96 531.102 260.163 Q528.139 256.367 523.047 256.367 M523.047 252.571 Q530.315 252.571 534.667 257.455 Q539.019 262.316 539.019 270.51 Q539.019 278.682 534.667 283.566 Q530.315 288.427 523.047 288.427 Q515.755 288.427 511.38 283.566 Q507.028 278.705 507.028 270.51 Q507.028 262.316 511.38 257.455 Q515.755 252.571 523.047 252.571 Z" fill="#000000" fill-rule="nonzero" fill-opacity="1" /><path clip-path="url(#clip390)" d="M564.759 274.816 Q564.759 270.117 562.815 267.455 Q560.894 264.77 557.514 264.77 Q554.134 264.77 552.19 267.455 Q550.269 270.117 550.269 274.816 Q550.269 279.515 552.19 282.2 Q554.134 284.862 557.514 284.862 Q560.894 284.862 562.815 282.2 Q564.759 279.515 564.759 274.816 M550.269 265.765 Q551.611 263.45 553.648 262.339 Q555.708 261.205 558.556 261.205 Q563.278 261.205 566.218 264.955 Q569.181 268.705 569.181 274.816 Q569.181 280.927 566.218 284.677 Q563.278 288.427 558.556 288.427 Q555.708 288.427 553.648 287.316 Q551.611 286.182 550.269 283.867 L550.269 287.756 L545.986 287.756 L545.986 251.737 L550.269 251.737 L550.269 265.765 Z" fill="#000000" fill-rule="nonzero" fill-opacity="1" /><path clip-path="url(#clip390)" d="M592.768 262.594 L592.768 266.622 Q590.963 265.696 589.019 265.233 Q587.074 264.77 584.991 264.77 Q581.819 264.77 580.222 265.742 Q578.648 266.714 578.648 268.659 Q578.648 270.14 579.782 270.997 Q580.917 271.83 584.343 272.594 L585.801 272.918 Q590.338 273.89 592.236 275.672 Q594.157 277.432 594.157 280.603 Q594.157 284.214 591.287 286.321 Q588.44 288.427 583.44 288.427 Q581.357 288.427 579.088 288.01 Q576.843 287.617 574.343 286.807 L574.343 282.409 Q576.704 283.635 578.995 284.26 Q581.287 284.862 583.532 284.862 Q586.542 284.862 588.162 283.844 Q589.782 282.802 589.782 280.927 Q589.782 279.191 588.602 278.265 Q587.444 277.339 583.486 276.483 L582.005 276.135 Q578.046 275.302 576.287 273.589 Q574.528 271.853 574.528 268.844 Q574.528 265.186 577.12 263.196 Q579.713 261.205 584.481 261.205 Q586.843 261.205 588.926 261.552 Q591.009 261.899 592.768 262.594 Z" fill="#000000" fill-rule="nonzero" fill-opacity="1" /><path clip-path="url(#clip390)" d="M623.116 273.728 L623.116 275.811 L603.532 275.811 Q603.81 280.209 606.171 282.524 Q608.555 284.816 612.792 284.816 Q615.245 284.816 617.537 284.214 Q619.852 283.612 622.12 282.409 L622.12 286.436 Q619.829 287.408 617.421 287.918 Q615.014 288.427 612.537 288.427 Q606.333 288.427 602.699 284.816 Q599.088 281.205 599.088 275.047 Q599.088 268.682 602.514 264.955 Q605.963 261.205 611.796 261.205 Q617.028 261.205 620.06 264.585 Q623.116 267.941 623.116 273.728 M618.856 272.478 Q618.81 268.983 616.889 266.899 Q614.991 264.816 611.842 264.816 Q608.278 264.816 606.125 266.83 Q603.995 268.844 603.671 272.501 L618.856 272.478 Z" fill="#000000" fill-rule="nonzero" fill-opacity="1" /><path clip-path="url(#clip390)" d="M645.129 265.811 Q644.412 265.395 643.555 265.21 Q642.722 265.001 641.703 265.001 Q638.092 265.001 636.148 267.362 Q634.227 269.7 634.227 274.098 L634.227 287.756 L629.944 287.756 L629.944 261.83 L634.227 261.83 L634.227 265.858 Q635.569 263.497 637.722 262.362 Q639.875 261.205 642.953 261.205 Q643.393 261.205 643.926 261.274 Q644.458 261.321 645.106 261.436 L645.129 265.811 Z" fill="#000000" fill-rule="nonzero" fill-opacity="1" /><path clip-path="url(#clip390)" d="M646.541 261.83 L651.055 261.83 L659.157 283.589 L667.259 261.83 L671.773 261.83 L662.051 287.756 L656.264 287.756 L646.541 261.83 Z" fill="#000000" fill-rule="nonzero" fill-opacity="1" /><path clip-path="url(#clip390)" d="M699.828 273.728 L699.828 275.811 L680.245 275.811 Q680.523 280.209 682.884 282.524 Q685.268 284.816 689.504 284.816 Q691.958 284.816 694.249 284.214 Q696.564 283.612 698.833 282.409 L698.833 286.436 Q696.541 287.408 694.134 287.918 Q691.726 288.427 689.249 288.427 Q683.046 288.427 679.412 284.816 Q675.8 281.205 675.8 275.047 Q675.8 268.682 679.226 264.955 Q682.675 261.205 688.509 261.205 Q693.74 261.205 696.773 264.585 Q699.828 267.941 699.828 273.728 M695.569 272.478 Q695.523 268.983 693.601 266.899 Q691.703 264.816 688.555 264.816 Q684.99 264.816 682.837 266.83 Q680.708 268.844 680.384 272.501 L695.569 272.478 Z" fill="#000000" fill-rule="nonzero" fill-opacity="1" /><path clip-path="url(#clip390)" d="M723.879 265.765 L723.879 251.737 L728.138 251.737 L728.138 287.756 L723.879 287.756 L723.879 283.867 Q722.536 286.182 720.476 287.316 Q718.439 288.427 715.569 288.427 Q710.87 288.427 707.907 284.677 Q704.967 280.927 704.967 274.816 Q704.967 268.705 707.907 264.955 Q710.87 261.205 715.569 261.205 Q718.439 261.205 720.476 262.339 Q722.536 263.45 723.879 265.765 M709.365 274.816 Q709.365 279.515 711.286 282.2 Q713.231 284.862 716.61 284.862 Q719.99 284.862 721.934 282.2 Q723.879 279.515 723.879 274.816 Q723.879 270.117 721.934 267.455 Q719.99 264.77 716.61 264.77 Q713.231 264.77 711.286 267.455 Q709.365 270.117 709.365 274.816 Z" fill="#000000" fill-rule="nonzero" fill-opacity="1" /><path clip-path="url(#clip390)" d="M756.842 257.038 L756.842 283.913 L762.49 283.913 Q769.643 283.913 772.953 280.672 Q776.286 277.432 776.286 270.441 Q776.286 263.497 772.953 260.279 Q769.643 257.038 762.49 257.038 L756.842 257.038 M752.166 253.196 L761.772 253.196 Q771.818 253.196 776.517 257.386 Q781.217 261.552 781.217 270.441 Q781.217 279.376 776.494 283.566 Q771.772 287.756 761.772 287.756 L752.166 287.756 L752.166 253.196 Z" fill="#000000" fill-rule="nonzero" fill-opacity="1" /><path clip-path="url(#clip390)" d="M800.267 274.723 Q795.105 274.723 793.115 275.904 Q791.124 277.084 791.124 279.932 Q791.124 282.2 792.605 283.543 Q794.11 284.862 796.679 284.862 Q800.221 284.862 802.351 282.362 Q804.503 279.839 804.503 275.672 L804.503 274.723 L800.267 274.723 M808.763 272.964 L808.763 287.756 L804.503 287.756 L804.503 283.821 Q803.045 286.182 800.869 287.316 Q798.693 288.427 795.545 288.427 Q791.564 288.427 789.203 286.205 Q786.865 283.959 786.865 280.209 Q786.865 275.834 789.781 273.612 Q792.721 271.39 798.531 271.39 L804.503 271.39 L804.503 270.973 Q804.503 268.034 802.559 266.436 Q800.638 264.816 797.142 264.816 Q794.92 264.816 792.814 265.348 Q790.707 265.881 788.763 266.946 L788.763 263.01 Q791.101 262.108 793.3 261.668 Q795.499 261.205 797.582 261.205 Q803.207 261.205 805.985 264.122 Q808.763 267.038 808.763 272.964 Z" fill="#000000" fill-rule="nonzero" fill-opacity="1" /><path clip-path="url(#clip390)" d="M821.749 254.469 L821.749 261.83 L830.522 261.83 L830.522 265.14 L821.749 265.14 L821.749 279.214 Q821.749 282.385 822.605 283.288 Q823.485 284.191 826.147 284.191 L830.522 284.191 L830.522 287.756 L826.147 287.756 Q821.216 287.756 819.341 285.927 Q817.466 284.075 817.466 279.214 L817.466 265.14 L814.341 265.14 L814.341 261.83 L817.466 261.83 L817.466 254.469 L821.749 254.469 Z" fill="#000000" fill-rule="nonzero" fill-opacity="1" /><path clip-path="url(#clip390)" d="M847.906 274.723 Q842.744 274.723 840.753 275.904 Q838.763 277.084 838.763 279.932 Q838.763 282.2 840.244 283.543 Q841.749 284.862 844.318 284.862 Q847.86 284.862 849.989 282.362 Q852.142 279.839 852.142 275.672 L852.142 274.723 L847.906 274.723 M856.401 272.964 L856.401 287.756 L852.142 287.756 L852.142 283.821 Q850.684 286.182 848.508 287.316 Q846.332 288.427 843.184 288.427 Q839.202 288.427 836.841 286.205 Q834.503 283.959 834.503 280.209 Q834.503 275.834 837.42 273.612 Q840.36 271.39 846.17 271.39 L852.142 271.39 L852.142 270.973 Q852.142 268.034 850.198 266.436 Q848.276 264.816 844.781 264.816 Q842.559 264.816 840.452 265.348 Q838.346 265.881 836.401 266.946 L836.401 263.01 Q838.739 262.108 840.938 261.668 Q843.138 261.205 845.221 261.205 Q850.846 261.205 853.624 264.122 Q856.401 267.038 856.401 272.964 Z" fill="#000000" fill-rule="nonzero" fill-opacity="1" /></svg>
