<?xml version="1.0" encoding="utf-8"?>
<svg xmlns="http://www.w3.org/2000/svg" xmlns:xlink="http://www.w3.org/1999/xlink" width="600" height="400" viewBox="0 0 2400 1600">
<defs>
  <clipPath id="clip490">
    <rect x="0" y="0" width="2400" height="1600"/>
  </clipPath>
</defs>
<path clip-path="url(#clip490)" d="M0 1600 L2400 1600 L2400 0 L0 0  Z" fill="#ffffff" fill-rule="evenodd" fill-opacity="1"/>
<defs>
  <clipPath id="clip491">
    <rect x="158" y="47" width="2195" height="1428"/>
  </clipPath>
</defs>
<path clip-path="url(#clip490)" d="M158.369 1474.16 L2352.76 1474.16 L2352.76 47.2441 L158.369 47.2441  Z" fill="#ffffff" fill-rule="evenodd" fill-opacity="1"/>
<polyline clip-path="url(#clip491)" style="stroke:#000000; stroke-linecap:round; stroke-linejoin:round; stroke-width:2; stroke-opacity:0.1; fill:none" points="220.474,1474.16 220.474,47.2441 "/>
<polyline clip-path="url(#clip491)" style="stroke:#000000; stroke-linecap:round; stroke-linejoin:round; stroke-width:2; stroke-opacity:0.1; fill:none" points="1621.51,1474.16 1621.51,47.2441 "/>
<polyline clip-path="url(#clip491)" style="stroke:#000000; stroke-linecap:round; stroke-linejoin:round; stroke-width:2; stroke-opacity:0.1; fill:none" points="158.369,901.804 2352.76,901.804 "/>
<polyline clip-path="url(#clip491)" style="stroke:#000000; stroke-linecap:round; stroke-linejoin:round; stroke-width:2; stroke-opacity:0.1; fill:none" points="158.369,242.358 2352.76,242.358 "/>
<polyline clip-path="url(#clip490)" style="stroke:#000000; stroke-linecap:round; stroke-linejoin:round; stroke-width:4; stroke-opacity:1; fill:none" points="158.369,1474.16 2352.76,1474.16 "/>
<polyline clip-path="url(#clip490)" style="stroke:#000000; stroke-linecap:round; stroke-linejoin:round; stroke-width:4; stroke-opacity:1; fill:none" points="220.474,1474.16 220.474,1455.27 "/>
<polyline clip-path="url(#clip490)" style="stroke:#000000; stroke-linecap:round; stroke-linejoin:round; stroke-width:4; stroke-opacity:1; fill:none" points="1621.51,1474.16 1621.51,1455.27 "/>
<path clip-path="url(#clip490)" d="M185.457 1548.29 L193.096 1548.29 L193.096 1521.92 L184.786 1523.59 L184.786 1519.33 L193.05 1517.66 L197.726 1517.66 L197.726 1548.29 L205.364 1548.29 L205.364 1552.22 L185.457 1552.22 L185.457 1548.29 Z" fill="#000000" fill-rule="nonzero" fill-opacity="1" /><path clip-path="url(#clip490)" d="M224.809 1520.74 Q221.198 1520.74 219.369 1524.31 Q217.563 1527.85 217.563 1534.98 Q217.563 1542.09 219.369 1545.65 Q221.198 1549.19 224.809 1549.19 Q228.443 1549.19 230.249 1545.65 Q232.077 1542.09 232.077 1534.98 Q232.077 1527.85 230.249 1524.31 Q228.443 1520.74 224.809 1520.74 M224.809 1517.04 Q230.619 1517.04 233.675 1521.65 Q236.753 1526.23 236.753 1534.98 Q236.753 1543.71 233.675 1548.31 Q230.619 1552.9 224.809 1552.9 Q218.999 1552.9 215.92 1548.31 Q212.864 1543.71 212.864 1534.98 Q212.864 1526.23 215.92 1521.65 Q218.999 1517.04 224.809 1517.04 Z" fill="#000000" fill-rule="nonzero" fill-opacity="1" /><path clip-path="url(#clip490)" d="M246.458 1499.24 Q243.524 1499.24 242.038 1502.13 Q240.571 1505.01 240.571 1510.8 Q240.571 1516.58 242.038 1519.47 Q243.524 1522.35 246.458 1522.35 Q249.411 1522.35 250.878 1519.47 Q252.364 1516.58 252.364 1510.8 Q252.364 1505.01 250.878 1502.13 Q249.411 1499.24 246.458 1499.24 M246.458 1496.23 Q251.179 1496.23 253.661 1499.97 Q256.163 1503.69 256.163 1510.8 Q256.163 1517.89 253.661 1521.64 Q251.179 1525.36 246.458 1525.36 Q241.737 1525.36 239.236 1521.64 Q236.753 1517.89 236.753 1510.8 Q236.753 1503.69 239.236 1499.97 Q241.737 1496.23 246.458 1496.23 Z" fill="#000000" fill-rule="nonzero" fill-opacity="1" /><path clip-path="url(#clip490)" d="M1587.28 1548.29 L1594.92 1548.29 L1594.92 1521.92 L1586.61 1523.59 L1586.61 1519.33 L1594.88 1517.66 L1599.55 1517.66 L1599.55 1548.29 L1607.19 1548.29 L1607.19 1552.22 L1587.28 1552.22 L1587.28 1548.29 Z" fill="#000000" fill-rule="nonzero" fill-opacity="1" /><path clip-path="url(#clip490)" d="M1626.64 1520.74 Q1623.02 1520.74 1621.2 1524.31 Q1619.39 1527.85 1619.39 1534.98 Q1619.39 1542.09 1621.2 1545.65 Q1623.02 1549.19 1626.64 1549.19 Q1630.27 1549.19 1632.08 1545.65 Q1633.9 1542.09 1633.9 1534.98 Q1633.9 1527.85 1632.08 1524.31 Q1630.27 1520.74 1626.64 1520.74 M1626.64 1517.04 Q1632.45 1517.04 1635.5 1521.65 Q1638.58 1526.23 1638.58 1534.98 Q1638.58 1543.71 1635.5 1548.31 Q1632.45 1552.9 1626.64 1552.9 Q1620.83 1552.9 1617.75 1548.31 Q1614.69 1543.71 1614.69 1534.98 Q1614.69 1526.23 1617.75 1521.65 Q1620.83 1517.04 1626.64 1517.04 Z" fill="#000000" fill-rule="nonzero" fill-opacity="1" /><path clip-path="url(#clip490)" d="M1643.15 1521.62 L1656.41 1521.62 L1656.41 1524.81 L1638.58 1524.81 L1638.58 1521.62 Q1640.74 1519.38 1644.47 1515.62 Q1648.21 1511.84 1649.17 1510.75 Q1650.99 1508.7 1651.71 1507.29 Q1652.44 1505.86 1652.44 1504.48 Q1652.44 1502.24 1650.86 1500.83 Q1649.3 1499.42 1646.78 1499.42 Q1644.99 1499.42 1643 1500.04 Q1641.02 1500.67 1638.77 1501.93 L1638.77 1498.09 Q1641.06 1497.17 1643.06 1496.7 Q1645.05 1496.23 1646.7 1496.23 Q1651.07 1496.23 1653.66 1498.41 Q1656.26 1500.59 1656.26 1504.24 Q1656.26 1505.97 1655.6 1507.53 Q1654.96 1509.07 1653.25 1511.18 Q1652.78 1511.72 1650.26 1514.34 Q1647.74 1516.93 1643.15 1521.62 Z" fill="#000000" fill-rule="nonzero" fill-opacity="1" /><polyline clip-path="url(#clip490)" style="stroke:#000000; stroke-linecap:round; stroke-linejoin:round; stroke-width:4; stroke-opacity:1; fill:none" points="158.369,1474.16 158.369,47.2441 "/>
<polyline clip-path="url(#clip490)" style="stroke:#000000; stroke-linecap:round; stroke-linejoin:round; stroke-width:4; stroke-opacity:1; fill:none" points="158.369,901.804 177.267,901.804 "/>
<polyline clip-path="url(#clip490)" style="stroke:#000000; stroke-linecap:round; stroke-linejoin:round; stroke-width:4; stroke-opacity:1; fill:none" points="158.369,242.358 177.267,242.358 "/>
<path clip-path="url(#clip490)" d="M51.6634 921.596 L59.3023 921.596 L59.3023 895.231 L50.9921 896.897 L50.9921 892.638 L59.256 890.971 L63.9319 890.971 L63.9319 921.596 L71.5707 921.596 L71.5707 925.531 L51.6634 925.531 L51.6634 921.596 Z" fill="#000000" fill-rule="nonzero" fill-opacity="1" /><path clip-path="url(#clip490)" d="M91.0151 894.05 Q87.404 894.05 85.5753 897.615 Q83.7697 901.157 83.7697 908.286 Q83.7697 915.393 85.5753 918.957 Q87.404 922.499 91.0151 922.499 Q94.6493 922.499 96.4548 918.957 Q98.2835 915.393 98.2835 908.286 Q98.2835 901.157 96.4548 897.615 Q94.6493 894.05 91.0151 894.05 M91.0151 890.346 Q96.8252 890.346 99.8808 894.953 Q102.959 899.536 102.959 908.286 Q102.959 917.013 99.8808 921.619 Q96.8252 926.203 91.0151 926.203 Q85.2049 926.203 82.1262 921.619 Q79.0707 917.013 79.0707 908.286 Q79.0707 899.536 82.1262 894.953 Q85.2049 890.346 91.0151 890.346 Z" fill="#000000" fill-rule="nonzero" fill-opacity="1" /><path clip-path="url(#clip490)" d="M112.664 872.542 Q109.73 872.542 108.244 875.439 Q106.777 878.316 106.777 884.109 Q106.777 889.883 108.244 892.78 Q109.73 895.657 112.664 895.657 Q115.617 895.657 117.084 892.78 Q118.57 889.883 118.57 884.109 Q118.57 878.316 117.084 875.439 Q115.617 872.542 112.664 872.542 M112.664 869.533 Q117.385 869.533 119.868 873.276 Q122.369 877 122.369 884.109 Q122.369 891.2 119.868 894.942 Q117.385 898.666 112.664 898.666 Q107.943 898.666 105.442 894.942 Q102.959 891.2 102.959 884.109 Q102.959 877 105.442 873.276 Q107.943 869.533 112.664 869.533 Z" fill="#000000" fill-rule="nonzero" fill-opacity="1" /><path clip-path="url(#clip490)" d="M54.3529 262.151 L61.9918 262.151 L61.9918 235.785 L53.6816 237.452 L53.6816 233.192 L61.9455 231.526 L66.6214 231.526 L66.6214 262.151 L74.2602 262.151 L74.2602 266.086 L54.3529 266.086 L54.3529 262.151 Z" fill="#000000" fill-rule="nonzero" fill-opacity="1" /><path clip-path="url(#clip490)" d="M93.7046 234.604 Q90.0935 234.604 88.2648 238.169 Q86.4592 241.711 86.4592 248.841 Q86.4592 255.947 88.2648 259.512 Q90.0935 263.053 93.7046 263.053 Q97.3388 263.053 99.1444 259.512 Q100.973 255.947 100.973 248.841 Q100.973 241.711 99.1444 238.169 Q97.3388 234.604 93.7046 234.604 M93.7046 230.901 Q99.5147 230.901 102.57 235.507 Q105.649 240.091 105.649 248.841 Q105.649 257.567 102.57 262.174 Q99.5147 266.757 93.7046 266.757 Q87.8944 266.757 84.8157 262.174 Q81.7602 257.567 81.7602 248.841 Q81.7602 240.091 84.8157 235.507 Q87.8944 230.901 93.7046 230.901 Z" fill="#000000" fill-rule="nonzero" fill-opacity="1" /><path clip-path="url(#clip490)" d="M106.194 235.478 L112.401 235.478 L112.401 214.056 L105.649 215.41 L105.649 211.95 L112.363 210.595 L116.162 210.595 L116.162 235.478 L122.369 235.478 L122.369 238.675 L106.194 238.675 L106.194 235.478 Z" fill="#000000" fill-rule="nonzero" fill-opacity="1" /><polyline clip-path="url(#clip491)" style="stroke:#0000ff; stroke-linecap:round; stroke-linejoin:round; stroke-width:4; stroke-opacity:1; fill:none" points="220.474,87.6286 431.351,90.5249 554.707,93.5849 642.228,96.4865 710.116,99.5888 765.584,102.907 812.481,106.19 853.105,109.634 888.939,113.495 920.993,117.393 949.989,121.471 976.461,126.101 1000.81,131.244 1023.36,136.522 1044.35,142.407 1063.98,148.606 1082.43,155.588 1099.82,163.075 1116.26,171.354 1131.87,180.266 1146.71,189.668 1160.87,199.028 1174.39,207.841 1187.34,216.092 1199.76,223.143 1211.69,229.385 1223.17,234.847 1234.24,239.538 1244.91,243.583 1255.22,247.027 1265.2,249.993 1274.86,252.526 1284.22,254.77 1293.3,256.855 1302.12,258.815 1310.69,260.753 1319.03,262.705 1327.14,264.726 1335.04,266.86 1342.75,269.066 1350.26,271.395 1357.59,273.814 1364.75,276.349 1371.74,278.95 1378.58,281.636 1385.27,284.344 1391.81,287.084 1398.21,289.847 1404.49,292.597 1410.63,295.347 1416.66,298.052 1422.57,300.723 1428.36,303.359 1434.05,305.949 1439.63,308.494 1445.11,310.996 1450.5,313.439 1455.79,315.846 1460.99,318.234 1466.1,320.59 1471.13,322.932 1476.08,325.26 1480.95,327.579 1485.74,329.902 1490.45,332.22 1495.1,334.549 1499.67,336.879 1504.18,339.22 1508.62,341.569 1513,343.941 1517.31,346.298 1521.57,348.665 1525.77,351.037 1529.91,353.397 1533.99,355.764 1538.02,358.141 1542,360.505 1545.92,362.856 1549.8,365.207 1553.62,367.551 1557.4,369.887 1561.14,372.223 1564.82,374.549 1568.47,376.867 1572.07,379.195 1575.63,381.517 1579.14,383.834 1582.62,386.146 1586.06,388.462 1589.46,390.786 1592.82,393.102 1596.14,395.427 1599.43,397.753 1602.69,400.07 1605.91,402.396 1609.09,404.722 1612.24,407.051 1615.36,409.366 1618.45,411.696 1621.51,414.021 1624.54,416.348 1627.54,418.674 1630.5,420.997 1633.44,423.318 1636.35,425.643 1639.24,427.964 1642.09,430.291 1644.92,432.616 1647.73,434.942 1650.51,437.273 1653.26,439.607 1655.99,441.938 1658.69,444.266 1661.37,446.607 1664.03,448.951 1666.66,451.297 1669.28,453.63 1671.87,455.975 1674.43,458.322 1676.98,460.67 1679.5,463.013 1682.01,465.369 1684.49,467.725 1686.95,470.082 1689.4,472.443 1691.82,474.81 1694.23,477.171 1696.61,479.542 1698.98,481.906 1701.33,484.281 1703.66,486.655 1705.98,489.04 1708.27,491.427 1710.55,493.816 1712.81,496.204 1715.06,498.598 1717.29,500.997 1719.5,503.396 1721.7,505.801 1723.88,508.219 1726.04,510.63 1728.19,513.05 1730.33,515.474 1732.45,517.898 1734.55,520.326 1736.64,522.757 1738.72,525.193 1740.78,527.629 1742.83,530.071 1744.87,532.524 1746.89,534.976 1748.9,537.428 1750.89,539.885 1752.87,542.346 1754.84,544.808 1756.8,547.274 1758.74,549.744 1760.67,552.216 1762.59,554.689 1764.5,557.165 1766.4,559.641 1768.28,562.114 1770.15,564.588 1772.01,567.069 1773.86,569.546 1775.7,572.023 1777.53,574.502 1779.34,576.979 1781.15,579.462 1782.94,581.939 1784.73,584.402 1786.5,586.875 1788.27,589.35 1790.02,591.818 1791.76,594.284 1793.5,596.746 1795.22,599.206 1796.93,601.668 1798.64,604.127 1800.33,606.588 1802.02,609.033 1803.7,611.48 1805.36,613.927 1807.02,616.368 1808.67,618.805 1810.31,621.246 1811.94,623.683 1813.56,626.108 1815.18,628.536 1816.78,630.962 1818.38,633.385 1819.97,635.802 1821.55,638.219 1823.12,640.624 1824.69,643.032 1826.24,645.442 1827.79,647.841 1829.33,650.237 1830.86,652.63 1832.39,655.023 1833.91,657.413 1835.42,659.801 1836.92,662.184 1838.41,664.559 1839.9,666.933 1841.38,669.306 1842.85,671.682 1844.32,674.05 1845.78,676.409 1847.23,678.771 1848.68,681.127 1850.12,683.478 1851.55,685.833 1852.97,688.196 1854.39,690.548 1855.8,692.894 1857.21,695.237 1858.61,697.579 1860,699.922 1861.38,702.264 1862.76,704.602 1864.14,706.932 1865.5,709.259 1866.87,711.585 1868.22,713.913 1869.57,716.246 1870.91,718.564 1872.25,720.881 1873.58,723.203 1874.91,725.521 1876.23,727.845 1877.54,730.164 1878.85,732.477 1880.15,734.784 1881.45,737.096 1882.74,739.402 1884.03,741.714 1885.31,744.011 1886.59,746.308 1887.86,748.608 1889.12,750.911 1890.38,753.208 1891.64,755.504 1892.88,757.795 1894.13,760.084 1895.37,762.375 1896.6,764.653 1897.83,766.926 1899.06,769.204 1900.28,771.48 1901.49,773.75 1902.7,776.022 1903.9,778.283 1905.1,780.546 1906.3,782.804 1907.49,785.061 1908.68,787.308 1909.86,789.551 1911.04,791.789 1912.21,794.025 1913.38,796.254 1914.54,798.488 1915.7,800.723 1916.85,802.942 1918,805.156 1919.15,807.365 1920.29,809.58 1921.43,811.778 1922.56,813.981 1923.69,816.175 1924.81,818.361 1925.93,820.55 1927.05,822.732 1928.16,824.907 1929.27,827.071 1930.38,829.232 1931.48,831.391 1932.57,833.545 1933.66,835.689 1934.75,837.825 1935.84,839.958 1936.92,842.084 1938,844.201 1939.07,846.312 1940.14,848.414 1941.2,850.506 1942.27,852.596 1943.32,854.676 1944.38,856.744 1945.43,858.807 1946.48,860.861 1947.52,862.909 1948.56,864.946 1949.6,866.972 1950.63,868.996 1951.66,871.009 1952.69,873.007 1953.71,875.008 1954.73,876.993 1955.74,878.962 1956.76,880.93 1957.76,882.881 1958.77,884.829 1959.77,886.769 1960.77,888.702 1961.77,890.623 1962.76,892.539 1963.75,894.44 1964.74,896.336 1965.72,898.226 1966.7,900.113 1967.68,901.984 1968.65,903.846 1969.62,905.697 1970.59,907.541 1971.55,909.372 1972.51,911.199 1973.47,913.011 1974.43,914.816 1975.38,916.615 1976.33,918.406 1977.27,920.189 1978.22,921.952 1979.16,923.713 1980.09,925.462 1981.03,927.2 1981.96,928.929 1982.89,930.641 1983.82,932.341 1984.74,934.04 1985.66,935.726 1986.58,937.399 1987.49,939.064 1988.4,940.719 1989.31,942.367 1990.22,943.997 1991.13,945.611 1992.03,947.225 1992.93,948.823 1993.82,950.416 1994.72,951.999 1995.61,953.576 1996.49,955.145 1997.38,956.703 1998.26,958.25 1999.14,959.792 2000.02,961.323 2000.9,962.849 2001.77,964.366 2002.64,965.864 2003.51,967.371 2004.37,968.861 2005.24,970.348 2006.1,971.825 2006.96,973.303 2007.81,974.768 2008.67,976.222 2009.52,977.664 2010.36,979.111 2011.21,980.545 2012.05,981.978 2012.9,983.398 2013.74,984.811 2014.57,986.217 2015.41,987.625 2016.24,989.016 2017.07,990.396 2017.9,991.755 2018.72,993.114 2019.55,994.464 2020.37,995.803 2021.19,997.132 2022,998.455 2022.82,999.77 2023.63,1001.07 2024.44,1002.37 2025.25,1003.66 2026.05,1004.94 2026.86,1006.22 2027.66,1007.5 2028.46,1008.75 2029.26,1010.02 2030.05,1011.27 2030.85,1012.52 2031.64,1013.77 2032.43,1015.01 2033.21,1016.23 2034,1017.45 2034.78,1018.66 2035.56,1019.87 2036.34,1021.07 2037.12,1022.26 2037.89,1023.44 2038.67,1024.62 2039.44,1025.8 2040.21,1026.97 2040.97,1028.13 2041.74,1029.29 2042.5,1030.45 2043.26,1031.61 2044.02,1032.76 2044.78,1033.9 2045.54,1035.04 2046.29,1036.17 2047.04,1037.3 2047.79,1038.41 2048.54,1039.53 2049.29,1040.62 2050.03,1041.71 2050.78,1042.79 2051.52,1043.85 2052.26,1044.92 2053,1045.98 2053.73,1047.05 2054.46,1048.11 2055.2,1049.16 2055.93,1050.22 2056.66,1051.26 2057.38,1052.31 2058.11,1053.34 2058.83,1054.38 2059.55,1055.39 2060.27,1056.42 2060.99,1057.43 2061.71,1058.43 2062.42,1059.44 2063.14,1060.44 2063.85,1061.45 2064.56,1062.44 2065.27,1063.45 2065.97,1064.44 2066.68,1065.43 2067.38,1066.41 2068.08,1067.39 2068.78,1068.36 2069.48,1069.33 2070.18,1070.3 2070.88,1071.26 2071.57,1072.23 2072.26,1073.18 2072.95,1074.15 2073.64,1075.1 2074.33,1076.07 2075.01,1077.02 2075.7,1077.98 2076.38,1078.94 2077.06,1079.9 2077.74,1080.85 2078.42,1081.82 2079.1,1082.75 2079.77,1083.69 2080.45,1084.62 2081.12,1085.56 2081.79,1086.47 2082.46,1087.39 2083.13,1088.3 2083.79,1089.21 2084.46,1090.11 2085.12,1091.01 2085.78,1091.91 2086.45,1092.81 2087.1,1093.7 2087.76,1094.59 2088.42,1095.48 2089.07,1096.37 2089.73,1097.26 2090.38,1098.15 2091.03,1099.04 2091.68,1099.92 2092.33,1100.8 2092.97,1101.68 2093.62,1102.57 2094.26,1103.44 2094.91,1104.32 2095.55,1105.19 2096.19,1106.07 2096.83,1106.95 2097.46,1107.82 2098.1,1108.7 2098.73,1109.56 2099.37,1110.44 2100,1111.31 2100.63,1112.18 2101.26,1113.05 2101.89,1113.92 2102.51,1114.78 2103.14,1115.65 2103.76,1116.51 2104.38,1117.38 2105.01,1118.23 2105.63,1119.07 2106.25,1119.92 2106.86,1120.76 2107.48,1121.6 2108.09,1122.43 2108.71,1123.26 2109.32,1124.09 2109.93,1124.91 2110.54,1125.74 2111.15,1126.56 "/>
<polyline clip-path="url(#clip491)" style="stroke:#ff0000; stroke-linecap:round; stroke-linejoin:round; stroke-width:4; stroke-opacity:1; fill:none" points="2111.76,1126.56 2112.37,1126.56 2112.97,1127.33 2113.58,1128.9 2114.18,1131.64 2114.78,1141.68 2115.38,1145.82 2115.98,1153.58 2116.58,1158.31 2117.18,1172.51 2117.77,1182.26 2118.37,1186.3 2118.96,1188.68 2119.55,1189.63 2120.14,1190.66 2120.74,1192.4 2121.32,1196.18 2121.91,1198.96 2122.5,1200.79 2123.08,1201.86 2123.67,1202.18 2124.25,1203.96 2124.83,1207.97 2125.42,1212.18 2126,1216.5 2126.57,1219.06 2127.15,1220.75 2127.73,1221.1 2128.3,1222.71 2128.88,1224.72 2129.45,1226.84 2130.03,1230.31 2130.6,1232.61 2131.17,1233.59 2131.74,1234.55 2132.3,1238.46 2132.87,1240.56 2133.44,1241.66 2134,1244.4 2134.57,1244.87 2135.13,1245.06 2135.69,1245.76 2136.25,1247.24 2136.81,1248.1 2137.37,1250.68 2137.93,1252.99 2138.48,1254.73 2139.04,1256.47 2139.59,1259.67 2140.15,1260.43 2140.7,1262.08 2141.25,1263.1 2141.8,1264.27 2142.35,1265.77 2142.9,1268.36 2143.45,1270.19 2144,1271.8 2144.54,1273.27 2145.09,1273.68 2145.63,1274.93 2146.17,1276.68 2146.71,1279.27 2147.26,1281.21 2147.8,1281.85 2148.33,1282.85 2148.87,1284.73 2149.41,1286.11 2149.95,1287.82 2150.48,1288.94 2151.02,1289.99 2151.55,1290.94 2152.08,1292.33 2152.61,1293.78 2153.14,1295.55 2153.67,1295.95 2154.2,1297.7 2154.73,1299.85 2155.26,1301.68 2155.78,1303.3 2156.31,1305.08 2156.83,1307.98 2157.35,1309.47 2157.88,1311.15 2158.4,1313.64 2158.92,1314.6 2159.44,1315.21 2159.96,1316.22 2160.47,1316.93 2160.99,1318.14 2161.51,1319.2 2162.02,1321.26 2162.54,1321.94 2163.05,1323.97 2163.56,1326.32 2164.07,1327.26 2164.59,1328.11 2165.1,1329.08 2165.6,1329.86 2166.11,1331.56 2166.62,1332.79 2167.13,1334 2167.63,1336.07 2168.14,1337.31 2168.64,1339.14 2169.14,1339.75 2169.65,1340.39 2170.15,1340.85 2170.65,1342.34 2171.15,1343.38 2171.65,1344.22 2172.15,1345.62 2172.64,1346.07 2173.14,1347.35 2173.64,1347.59 2174.13,1348.18 2174.63,1349 2175.12,1349.3 2175.61,1350.28 2176.1,1350.8 2176.6,1351.52 2177.09,1351.96 2177.58,1352.71 2178.06,1353.99 2178.55,1354.65 2179.04,1355.49 2179.53,1355.92 2180.01,1356.54 2180.5,1356.98 2180.98,1357.9 2181.46,1358.35 2181.95,1359.44 2182.43,1360.76 2182.91,1361.22 2183.39,1362.39 2183.87,1362.7 2184.35,1363.5 2184.83,1364.25 2185.3,1364.68 2185.78,1365.12 2186.25,1365.74 2186.73,1366.52 2187.2,1366.87 2187.68,1367.4 2188.15,1368.12 2188.62,1369.16 2189.09,1369.65 2189.56,1370.47 2190.03,1371.05 2190.5,1371.44 2190.97,1372.34 2191.44,1373.45 2191.91,1373.75 2192.37,1374 2192.84,1374.51 2193.3,1375.38 2193.77,1375.63 2194.23,1376.25 2194.69,1376.65 2195.16,1377.04 2195.62,1377.8 2196.08,1378.42 2196.54,1379.5 2197,1379.78 2197.45,1380.08 2197.91,1380.27 2198.37,1380.83 2198.83,1381.3 2199.28,1382.05 2199.74,1382.3 2200.19,1382.83 2200.65,1383.45 2201.1,1384.28 2201.55,1385.25 2202,1385.92 2202.45,1386.3 2202.9,1386.69 2203.35,1387.15 2203.8,1387.65 2204.25,1387.99 2204.7,1388.41 2205.15,1388.56 2205.59,1388.93 2206.04,1389.4 2206.48,1389.85 2206.93,1390.42 2207.37,1390.65 2207.81,1391.13 2208.26,1391.31 2208.7,1391.59 2209.14,1391.93 2209.58,1392.43 2210.02,1393.03 2210.46,1393.38 2210.9,1393.66 2211.34,1394 2211.77,1394.37 2212.21,1394.63 2212.65,1394.92 2213.08,1395 2213.52,1395.22 2213.95,1395.9 2214.39,1396.11 2214.82,1396.38 2215.25,1396.61 2215.68,1396.96 2216.11,1397.17 2216.54,1397.42 2216.97,1397.56 2217.4,1397.78 2217.83,1397.78 2218.26,1398.04 2218.69,1398.11 2219.12,1398.24 2219.54,1398.39 2219.97,1398.55 2220.39,1398.62 2220.82,1398.85 2221.24,1398.98 2221.67,1399.15 2222.09,1399.36 2222.51,1399.63 2222.93,1399.67 2223.35,1400 2223.77,1400.09 2224.19,1400.23 2224.61,1400.57 2225.03,1400.72 2225.45,1400.94 2225.87,1401.14 2226.28,1401.48 2226.7,1401.6 2227.12,1401.83 2227.53,1402.05 2227.95,1402.2 2228.36,1402.35 2228.77,1402.45 2229.19,1402.53 2229.6,1402.67 2230.01,1402.84 2230.42,1403.02 2230.83,1403.09 2231.24,1403.18 2231.65,1403.29 2232.06,1403.55 2232.47,1403.9 2232.88,1404.05 2233.29,1404.22 2233.7,1404.42 2234.1,1404.59 2234.51,1404.94 2234.91,1405.35 2235.32,1405.37 2235.72,1405.7 2236.13,1405.8 2236.53,1406.05 2236.93,1406.44 2237.33,1406.54 2237.74,1406.97 2238.14,1407.27 2238.54,1407.46 2238.94,1407.66 2239.34,1408.08 2239.74,1408.39 2240.13,1408.57 2240.53,1408.75 2240.93,1408.97 2241.33,1409.45 2241.72,1409.59 2242.12,1409.78 2242.51,1409.88 2242.91,1410.1 2243.3,1410.4 2243.7,1410.67 2244.09,1410.95 2244.48,1411.13 2244.88,1411.24 2245.27,1411.48 2245.66,1411.66 2246.05,1411.88 2246.44,1411.89 2246.83,1412.16 2247.22,1412.26 2247.61,1412.39 2248,1412.53 2248.38,1412.84 2248.77,1412.94 2249.16,1413.2 2249.54,1413.51 2249.93,1413.84 2250.32,1414.02 2250.7,1414.26 2251.08,1414.57 2251.47,1414.69 2251.85,1414.87 2252.23,1415.17 2252.62,1415.51 2253,1415.95 2253.38,1416.04 2253.76,1416.31 2254.14,1416.38 2254.52,1416.61 2254.9,1416.84 2255.28,1417.11 2255.66,1417.26 2256.04,1417.37 2256.42,1417.47 2256.79,1417.54 2257.17,1417.75 2257.55,1417.86 2257.92,1418.07 2258.3,1418.21 2258.67,1418.32 2259.05,1418.69 2259.42,1418.93 2259.79,1418.97 2260.17,1419.23 2260.54,1419.28 2260.91,1419.52 2261.28,1419.59 2261.65,1419.88 2262.03,1420.23 2262.4,1420.54 2262.77,1420.78 2263.13,1421.01 2263.5,1421.24 2263.87,1421.63 2264.24,1421.77 2264.61,1421.94 2264.98,1422.21 2265.34,1422.41 2265.71,1422.49 2266.07,1422.66 2266.44,1422.71 2266.8,1422.82 2267.17,1423.1 2267.53,1423.2 2267.9,1423.6 2268.26,1423.72 2268.62,1423.81 2268.99,1423.94 2269.35,1424.02 2269.71,1424.23 2270.07,1424.4 2270.43,1424.55 2270.79,1424.67 2271.15,1425.15 2271.51,1425.27 2271.87,1425.5 2272.23,1425.67 2272.59,1425.86 2272.94,1426.11 2273.3,1426.3 2273.66,1426.46 2274.01,1426.6 2274.37,1426.81 2274.73,1426.84 2275.08,1427.17 2275.44,1427.27 2275.79,1427.39 2276.14,1427.56 2276.5,1427.72 2276.85,1427.89 2277.2,1428.02 2277.56,1428.15 2277.91,1428.3 2278.26,1428.41 2278.61,1428.54 2278.96,1428.73 2279.31,1428.84 2279.66,1429.01 2280.01,1429.2 2280.36,1429.4 2280.71,1429.52 2281.06,1429.64 2281.4,1429.82 2281.75,1429.97 2282.1,1430.07 2282.45,1430.39 2282.79,1430.51 2283.14,1430.67 2283.48,1430.85 2283.83,1431.02 2284.17,1431.18 2284.52,1431.29 2284.86,1431.41 2285.21,1431.71 2285.55,1431.86 2285.89,1432.01 2286.23,1432.13 2286.58,1432.27 2286.92,1432.39 2287.26,1432.55 2287.6,1432.67 2287.94,1432.8 2288.28,1432.83 2288.62,1433.04 2288.96,1433.14 2289.3,1433.22 2289.64,1433.33 2289.98,1433.57 2290.31,1433.66 2290.65,1433.78 "/>
<path clip-path="url(#clip490)" d="M1914.43 250.328 L2279.61 250.328 L2279.61 94.8081 L1914.43 94.8081  Z" fill="#ffffff" fill-rule="evenodd" fill-opacity="1"/>
<polyline clip-path="url(#clip490)" style="stroke:#000000; stroke-linecap:round; stroke-linejoin:round; stroke-width:4; stroke-opacity:1; fill:none" points="1914.43,250.328 2279.61,250.328 2279.61,94.8081 1914.43,94.8081 1914.43,250.328 "/>
<polyline clip-path="url(#clip490)" style="stroke:#0000ff; stroke-linecap:round; stroke-linejoin:round; stroke-width:4; stroke-opacity:1; fill:none" points="1938.81,146.648 2085.11,146.648 "/>
<path clip-path="url(#clip490)" d="M2125.32 133.975 L2118.98 151.174 L2131.69 151.174 L2125.32 133.975 M2122.68 129.368 L2127.98 129.368 L2141.15 163.928 L2136.29 163.928 L2133.14 155.062 L2117.57 155.062 L2114.42 163.928 L2109.49 163.928 L2122.68 129.368 Z" fill="#000000" fill-rule="nonzero" fill-opacity="1" /><path clip-path="url(#clip490)" d="M2162.24 141.937 L2162.24 127.91 L2166.5 127.91 L2166.5 163.928 L2162.24 163.928 L2162.24 160.039 Q2160.9 162.354 2158.84 163.488 Q2156.8 164.599 2153.93 164.599 Q2149.23 164.599 2146.27 160.849 Q2143.33 157.099 2143.33 150.988 Q2143.33 144.877 2146.27 141.127 Q2149.23 137.377 2153.93 137.377 Q2156.8 137.377 2158.84 138.512 Q2160.9 139.623 2162.24 141.937 M2147.73 150.988 Q2147.73 155.687 2149.65 158.373 Q2151.59 161.035 2154.97 161.035 Q2158.35 161.035 2160.3 158.373 Q2162.24 155.687 2162.24 150.988 Q2162.24 146.289 2160.3 143.627 Q2158.35 140.942 2154.97 140.942 Q2151.59 140.942 2149.65 143.627 Q2147.73 146.289 2147.73 150.988 Z" fill="#000000" fill-rule="nonzero" fill-opacity="1" /><path clip-path="url(#clip490)" d="M2187.06 150.896 Q2181.89 150.896 2179.9 152.076 Q2177.91 153.257 2177.91 156.104 Q2177.91 158.373 2179.39 159.715 Q2180.9 161.035 2183.47 161.035 Q2187.01 161.035 2189.14 158.535 Q2191.29 156.011 2191.29 151.845 L2191.29 150.896 L2187.06 150.896 M2195.55 149.137 L2195.55 163.928 L2191.29 163.928 L2191.29 159.993 Q2189.83 162.354 2187.66 163.488 Q2185.48 164.599 2182.33 164.599 Q2178.35 164.599 2175.99 162.377 Q2173.65 160.132 2173.65 156.382 Q2173.65 152.007 2176.57 149.785 Q2179.51 147.562 2185.32 147.562 L2191.29 147.562 L2191.29 147.146 Q2191.29 144.206 2189.35 142.609 Q2187.43 140.988 2183.93 140.988 Q2181.71 140.988 2179.6 141.521 Q2177.5 142.053 2175.55 143.118 L2175.55 139.183 Q2177.89 138.28 2180.09 137.84 Q2182.29 137.377 2184.37 137.377 Q2190 137.377 2192.77 140.294 Q2195.55 143.211 2195.55 149.137 Z" fill="#000000" fill-rule="nonzero" fill-opacity="1" /><path clip-path="url(#clip490)" d="M2224.51 142.979 Q2226.11 140.109 2228.33 138.743 Q2230.55 137.377 2233.56 137.377 Q2237.61 137.377 2239.81 140.225 Q2242.01 143.049 2242.01 148.28 L2242.01 163.928 L2237.73 163.928 L2237.73 148.419 Q2237.73 144.692 2236.41 142.887 Q2235.09 141.081 2232.38 141.081 Q2229.07 141.081 2227.15 143.28 Q2225.23 145.479 2225.23 149.275 L2225.23 163.928 L2220.95 163.928 L2220.95 148.419 Q2220.95 144.669 2219.63 142.887 Q2218.31 141.081 2215.55 141.081 Q2212.29 141.081 2210.37 143.303 Q2208.45 145.502 2208.45 149.275 L2208.45 163.928 L2204.16 163.928 L2204.16 138.002 L2208.45 138.002 L2208.45 142.03 Q2209.9 139.646 2211.94 138.512 Q2213.98 137.377 2216.78 137.377 Q2219.6 137.377 2221.57 138.813 Q2223.56 140.248 2224.51 142.979 Z" fill="#000000" fill-rule="nonzero" fill-opacity="1" /><polyline clip-path="url(#clip490)" style="stroke:#ff0000; stroke-linecap:round; stroke-linejoin:round; stroke-width:4; stroke-opacity:1; fill:none" points="1938.81,198.488 2085.11,198.488 "/>
<path clip-path="url(#clip490)" d="M2109.49 181.208 L2114.16 181.208 L2114.16 211.833 L2130.99 211.833 L2130.99 215.768 L2109.49 215.768 L2109.49 181.208 Z" fill="#000000" fill-rule="nonzero" fill-opacity="1" /><path clip-path="url(#clip490)" d="M2140.58 199.264 L2140.58 211.926 L2148.08 211.926 Q2151.85 211.926 2153.65 210.375 Q2155.48 208.801 2155.48 205.583 Q2155.48 202.342 2153.65 200.814 Q2151.85 199.264 2148.08 199.264 L2140.58 199.264 M2140.58 185.051 L2140.58 195.467 L2147.5 195.467 Q2150.92 195.467 2152.59 194.194 Q2154.28 192.898 2154.28 190.259 Q2154.28 187.643 2152.59 186.347 Q2150.92 185.051 2147.5 185.051 L2140.58 185.051 M2135.9 181.208 L2147.84 181.208 Q2153.19 181.208 2156.08 183.43 Q2158.98 185.653 2158.98 189.75 Q2158.98 192.921 2157.5 194.796 Q2156.02 196.671 2153.14 197.134 Q2156.59 197.875 2158.49 200.236 Q2160.41 202.574 2160.41 206.092 Q2160.41 210.722 2157.27 213.245 Q2154.12 215.768 2148.31 215.768 L2135.9 215.768 L2135.9 181.208 Z" fill="#000000" fill-rule="nonzero" fill-opacity="1" /><path clip-path="url(#clip490)" d="M2168.42 181.208 L2188.28 181.208 L2188.28 185.143 L2173.1 185.143 L2173.1 195.328 L2186.8 195.328 L2186.8 199.264 L2173.1 199.264 L2173.1 215.768 L2168.42 215.768 L2168.42 181.208 Z" fill="#000000" fill-rule="nonzero" fill-opacity="1" /><path clip-path="url(#clip490)" d="M2219.26 210.838 L2219.26 201.555 L2211.62 201.555 L2211.62 197.713 L2223.89 197.713 L2223.89 212.551 Q2221.18 214.472 2217.91 215.467 Q2214.65 216.439 2210.95 216.439 Q2202.84 216.439 2198.26 211.717 Q2193.7 206.972 2193.7 198.523 Q2193.7 190.051 2198.26 185.328 Q2202.84 180.583 2210.95 180.583 Q2214.33 180.583 2217.36 181.416 Q2220.41 182.25 2222.98 183.87 L2222.98 188.847 Q2220.39 186.648 2217.47 185.537 Q2214.56 184.426 2211.34 184.426 Q2205 184.426 2201.8 187.967 Q2198.63 191.509 2198.63 198.523 Q2198.63 205.514 2201.8 209.055 Q2205 212.597 2211.34 212.597 Q2213.82 212.597 2215.76 212.18 Q2217.7 211.74 2219.26 210.838 Z" fill="#000000" fill-rule="nonzero" fill-opacity="1" /><path clip-path="url(#clip490)" d="M2253.14 182.342 L2253.14 186.903 Q2250.48 185.629 2248.12 185.004 Q2245.76 184.379 2243.56 184.379 Q2239.74 184.379 2237.66 185.861 Q2235.6 187.342 2235.6 190.074 Q2235.6 192.365 2236.96 193.546 Q2238.35 194.703 2242.2 195.421 L2245.02 196 Q2250.25 196.995 2252.73 199.518 Q2255.23 202.018 2255.23 206.231 Q2255.23 211.254 2251.85 213.847 Q2248.49 216.439 2241.99 216.439 Q2239.53 216.439 2236.76 215.884 Q2234 215.328 2231.04 214.24 L2231.04 209.426 Q2233.89 211.023 2236.62 211.833 Q2239.35 212.643 2241.99 212.643 Q2245.99 212.643 2248.17 211.069 Q2250.34 209.495 2250.34 206.578 Q2250.34 204.032 2248.77 202.597 Q2247.22 201.162 2243.65 200.444 L2240.81 199.889 Q2235.57 198.847 2233.24 196.625 Q2230.9 194.402 2230.9 190.444 Q2230.9 185.861 2234.12 183.222 Q2237.36 180.583 2243.03 180.583 Q2245.46 180.583 2247.98 181.023 Q2250.51 181.463 2253.14 182.342 Z" fill="#000000" fill-rule="nonzero" fill-opacity="1" /></svg>
