<?xml version="1.0" encoding="utf-8"?>
<svg xmlns="http://www.w3.org/2000/svg" xmlns:xlink="http://www.w3.org/1999/xlink" width="800" height="500" viewBox="0 0 3200 2000">
<defs>
  <clipPath id="clip030">
    <rect x="0" y="0" width="3200" height="2000"/>
  </clipPath>
</defs>
<path clip-path="url(#clip030)" d="M0 2000 L3200 2000 L3200 0 L0 0  Z" fill="#ffffff" fill-rule="evenodd" fill-opacity="1"/>
<defs>
  <clipPath id="clip031">
    <rect x="287" y="110" width="2803" height="1652"/>
  </clipPath>
</defs>
<path clip-path="url(#clip030)" d="M287.888 1761.32 L3089.76 1761.32 L3089.76 110.236 L287.888 110.236  Z" fill="#ffffff" fill-rule="evenodd" fill-opacity="1"/>
<polyline clip-path="url(#clip031)" style="stroke:#000000; stroke-linecap:round; stroke-linejoin:round; stroke-width:2; stroke-opacity:0.1; fill:none" points="367.187,1761.32 367.187,110.236 "/>
<polyline clip-path="url(#clip031)" style="stroke:#000000; stroke-linecap:round; stroke-linejoin:round; stroke-width:2; stroke-opacity:0.1; fill:none" points="949.321,1761.32 949.321,110.236 "/>
<polyline clip-path="url(#clip031)" style="stroke:#000000; stroke-linecap:round; stroke-linejoin:round; stroke-width:2; stroke-opacity:0.1; fill:none" points="1531.46,1761.32 1531.46,110.236 "/>
<polyline clip-path="url(#clip031)" style="stroke:#000000; stroke-linecap:round; stroke-linejoin:round; stroke-width:2; stroke-opacity:0.1; fill:none" points="2113.59,1761.32 2113.59,110.236 "/>
<polyline clip-path="url(#clip031)" style="stroke:#000000; stroke-linecap:round; stroke-linejoin:round; stroke-width:2; stroke-opacity:0.1; fill:none" points="2695.72,1761.32 2695.72,110.236 "/>
<polyline clip-path="url(#clip031)" style="stroke:#000000; stroke-linecap:round; stroke-linejoin:round; stroke-width:2; stroke-opacity:0.1; fill:none" points="287.888,1714.59 3089.76,1714.59 "/>
<polyline clip-path="url(#clip031)" style="stroke:#000000; stroke-linecap:round; stroke-linejoin:round; stroke-width:2; stroke-opacity:0.1; fill:none" points="287.888,1463.76 3089.76,1463.76 "/>
<polyline clip-path="url(#clip031)" style="stroke:#000000; stroke-linecap:round; stroke-linejoin:round; stroke-width:2; stroke-opacity:0.1; fill:none" points="287.888,1212.94 3089.76,1212.94 "/>
<polyline clip-path="url(#clip031)" style="stroke:#000000; stroke-linecap:round; stroke-linejoin:round; stroke-width:2; stroke-opacity:0.1; fill:none" points="287.888,962.114 3089.76,962.114 "/>
<polyline clip-path="url(#clip031)" style="stroke:#000000; stroke-linecap:round; stroke-linejoin:round; stroke-width:2; stroke-opacity:0.1; fill:none" points="287.888,711.288 3089.76,711.288 "/>
<polyline clip-path="url(#clip031)" style="stroke:#000000; stroke-linecap:round; stroke-linejoin:round; stroke-width:2; stroke-opacity:0.1; fill:none" points="287.888,460.463 3089.76,460.463 "/>
<polyline clip-path="url(#clip031)" style="stroke:#000000; stroke-linecap:round; stroke-linejoin:round; stroke-width:2; stroke-opacity:0.1; fill:none" points="287.888,209.638 3089.76,209.638 "/>
<polyline clip-path="url(#clip030)" style="stroke:#000000; stroke-linecap:round; stroke-linejoin:round; stroke-width:4; stroke-opacity:1; fill:none" points="287.888,1761.32 3089.76,1761.32 "/>
<polyline clip-path="url(#clip030)" style="stroke:#000000; stroke-linecap:round; stroke-linejoin:round; stroke-width:4; stroke-opacity:1; fill:none" points="367.187,1761.32 367.187,1742.42 "/>
<polyline clip-path="url(#clip030)" style="stroke:#000000; stroke-linecap:round; stroke-linejoin:round; stroke-width:4; stroke-opacity:1; fill:none" points="949.321,1761.32 949.321,1742.42 "/>
<polyline clip-path="url(#clip030)" style="stroke:#000000; stroke-linecap:round; stroke-linejoin:round; stroke-width:4; stroke-opacity:1; fill:none" points="1531.46,1761.32 1531.46,1742.42 "/>
<polyline clip-path="url(#clip030)" style="stroke:#000000; stroke-linecap:round; stroke-linejoin:round; stroke-width:4; stroke-opacity:1; fill:none" points="2113.59,1761.32 2113.59,1742.42 "/>
<polyline clip-path="url(#clip030)" style="stroke:#000000; stroke-linecap:round; stroke-linejoin:round; stroke-width:4; stroke-opacity:1; fill:none" points="2695.72,1761.32 2695.72,1742.42 "/>
<path clip-path="url(#clip030)" d="M367.187 1798.64 Q363.576 1798.64 361.747 1802.2 Q359.941 1805.74 359.941 1812.87 Q359.941 1819.98 361.747 1823.54 Q363.576 1827.09 367.187 1827.09 Q370.821 1827.09 372.627 1823.54 Q374.455 1819.98 374.455 1812.87 Q374.455 1805.74 372.627 1802.2 Q370.821 1798.64 367.187 1798.64 M367.187 1794.93 Q372.997 1794.93 376.052 1799.54 Q379.131 1804.12 379.131 1812.87 Q379.131 1821.6 376.052 1826.21 Q372.997 1830.79 367.187 1830.79 Q361.377 1830.79 358.298 1826.21 Q355.242 1821.6 355.242 1812.87 Q355.242 1804.12 358.298 1799.54 Q361.377 1794.93 367.187 1794.93 Z" fill="#000000" fill-rule="nonzero" fill-opacity="1" /><path clip-path="url(#clip030)" d="M928.592 1826.18 L944.912 1826.18 L944.912 1830.12 L922.967 1830.12 L922.967 1826.18 Q925.629 1823.43 930.213 1818.8 Q934.819 1814.15 936 1812.8 Q938.245 1810.28 939.125 1808.54 Q940.027 1806.78 940.027 1805.09 Q940.027 1802.34 938.083 1800.6 Q936.162 1798.87 933.06 1798.87 Q930.861 1798.87 928.407 1799.63 Q925.976 1800.4 923.199 1801.95 L923.199 1797.22 Q926.023 1796.09 928.476 1795.51 Q930.93 1794.93 932.967 1794.93 Q938.338 1794.93 941.532 1797.62 Q944.726 1800.3 944.726 1804.79 Q944.726 1806.92 943.916 1808.84 Q943.129 1810.74 941.023 1813.34 Q940.444 1814.01 937.342 1817.22 Q934.24 1820.42 928.592 1826.18 Z" fill="#000000" fill-rule="nonzero" fill-opacity="1" /><path clip-path="url(#clip030)" d="M954.773 1795.56 L973.129 1795.56 L973.129 1799.49 L959.055 1799.49 L959.055 1807.97 Q960.073 1807.62 961.092 1807.46 Q962.111 1807.27 963.129 1807.27 Q968.916 1807.27 972.296 1810.44 Q975.675 1813.61 975.675 1819.03 Q975.675 1824.61 972.203 1827.71 Q968.731 1830.79 962.411 1830.79 Q960.236 1830.79 957.967 1830.42 Q955.722 1830.05 953.314 1829.31 L953.314 1824.61 Q955.398 1825.74 957.62 1826.3 Q959.842 1826.85 962.319 1826.85 Q966.323 1826.85 968.661 1824.75 Q970.999 1822.64 970.999 1819.03 Q970.999 1815.42 968.661 1813.31 Q966.323 1811.21 962.319 1811.21 Q960.444 1811.21 958.569 1811.62 Q956.717 1812.04 954.773 1812.92 L954.773 1795.56 Z" fill="#000000" fill-rule="nonzero" fill-opacity="1" /><path clip-path="url(#clip030)" d="M1506.15 1795.56 L1524.51 1795.56 L1524.51 1799.49 L1510.44 1799.49 L1510.44 1807.97 Q1511.46 1807.62 1512.47 1807.46 Q1513.49 1807.27 1514.51 1807.27 Q1520.3 1807.27 1523.68 1810.44 Q1527.06 1813.61 1527.06 1819.03 Q1527.06 1824.61 1523.59 1827.71 Q1520.11 1830.79 1513.79 1830.79 Q1511.62 1830.79 1509.35 1830.42 Q1507.1 1830.05 1504.7 1829.31 L1504.7 1824.61 Q1506.78 1825.74 1509 1826.3 Q1511.22 1826.85 1513.7 1826.85 Q1517.71 1826.85 1520.04 1824.75 Q1522.38 1822.64 1522.38 1819.03 Q1522.38 1815.42 1520.04 1813.31 Q1517.71 1811.21 1513.7 1811.21 Q1511.83 1811.21 1509.95 1811.62 Q1508.1 1812.04 1506.15 1812.92 L1506.15 1795.56 Z" fill="#000000" fill-rule="nonzero" fill-opacity="1" /><path clip-path="url(#clip030)" d="M1546.27 1798.64 Q1542.66 1798.64 1540.83 1802.2 Q1539.03 1805.74 1539.03 1812.87 Q1539.03 1819.98 1540.83 1823.54 Q1542.66 1827.09 1546.27 1827.09 Q1549.9 1827.09 1551.71 1823.54 Q1553.54 1819.98 1553.54 1812.87 Q1553.54 1805.74 1551.71 1802.2 Q1549.9 1798.64 1546.27 1798.64 M1546.27 1794.93 Q1552.08 1794.93 1555.14 1799.54 Q1558.21 1804.12 1558.21 1812.87 Q1558.21 1821.6 1555.14 1826.21 Q1552.08 1830.79 1546.27 1830.79 Q1540.46 1830.79 1537.38 1826.21 Q1534.33 1821.6 1534.33 1812.87 Q1534.33 1804.12 1537.38 1799.54 Q1540.46 1794.93 1546.27 1794.93 Z" fill="#000000" fill-rule="nonzero" fill-opacity="1" /><path clip-path="url(#clip030)" d="M2087.44 1795.56 L2109.67 1795.56 L2109.67 1797.55 L2097.12 1830.12 L2092.24 1830.12 L2104.04 1799.49 L2087.44 1799.49 L2087.44 1795.56 Z" fill="#000000" fill-rule="nonzero" fill-opacity="1" /><path clip-path="url(#clip030)" d="M2118.83 1795.56 L2137.19 1795.56 L2137.19 1799.49 L2123.12 1799.49 L2123.12 1807.97 Q2124.13 1807.62 2125.15 1807.46 Q2126.17 1807.27 2127.19 1807.27 Q2132.98 1807.27 2136.36 1810.44 Q2139.74 1813.61 2139.74 1819.03 Q2139.74 1824.61 2136.26 1827.71 Q2132.79 1830.79 2126.47 1830.79 Q2124.3 1830.79 2122.03 1830.42 Q2119.78 1830.05 2117.37 1829.31 L2117.37 1824.61 Q2119.46 1825.74 2121.68 1826.3 Q2123.9 1826.85 2126.38 1826.85 Q2130.38 1826.85 2132.72 1824.75 Q2135.06 1822.64 2135.06 1819.03 Q2135.06 1815.42 2132.72 1813.31 Q2130.38 1811.21 2126.38 1811.21 Q2124.5 1811.21 2122.63 1811.62 Q2120.78 1812.04 2118.83 1812.92 L2118.83 1795.56 Z" fill="#000000" fill-rule="nonzero" fill-opacity="1" /><path clip-path="url(#clip030)" d="M2655.33 1826.18 L2662.97 1826.18 L2662.97 1799.82 L2654.66 1801.48 L2654.66 1797.22 L2662.92 1795.56 L2667.6 1795.56 L2667.6 1826.18 L2675.24 1826.18 L2675.24 1830.12 L2655.33 1830.12 L2655.33 1826.18 Z" fill="#000000" fill-rule="nonzero" fill-opacity="1" /><path clip-path="url(#clip030)" d="M2694.68 1798.64 Q2691.07 1798.64 2689.24 1802.2 Q2687.44 1805.74 2687.44 1812.87 Q2687.44 1819.98 2689.24 1823.54 Q2691.07 1827.09 2694.68 1827.09 Q2698.32 1827.09 2700.12 1823.54 Q2701.95 1819.98 2701.95 1812.87 Q2701.95 1805.74 2700.12 1802.2 Q2698.32 1798.64 2694.68 1798.64 M2694.68 1794.93 Q2700.49 1794.93 2703.55 1799.54 Q2706.63 1804.12 2706.63 1812.87 Q2706.63 1821.6 2703.55 1826.21 Q2700.49 1830.79 2694.68 1830.79 Q2688.87 1830.79 2685.79 1826.21 Q2682.74 1821.6 2682.74 1812.87 Q2682.74 1804.12 2685.79 1799.54 Q2688.87 1794.93 2694.68 1794.93 Z" fill="#000000" fill-rule="nonzero" fill-opacity="1" /><path clip-path="url(#clip030)" d="M2724.84 1798.64 Q2721.23 1798.64 2719.41 1802.2 Q2717.6 1805.74 2717.6 1812.87 Q2717.6 1819.98 2719.41 1823.54 Q2721.23 1827.09 2724.84 1827.09 Q2728.48 1827.09 2730.28 1823.54 Q2732.11 1819.98 2732.11 1812.87 Q2732.11 1805.74 2730.28 1802.2 Q2728.48 1798.64 2724.84 1798.64 M2724.84 1794.93 Q2730.66 1794.93 2733.71 1799.54 Q2736.79 1804.12 2736.79 1812.87 Q2736.79 1821.6 2733.71 1826.21 Q2730.66 1830.79 2724.84 1830.79 Q2719.03 1830.79 2715.96 1826.21 Q2712.9 1821.6 2712.9 1812.87 Q2712.9 1804.12 2715.96 1799.54 Q2719.03 1794.93 2724.84 1794.93 Z" fill="#000000" fill-rule="nonzero" fill-opacity="1" /><path clip-path="url(#clip030)" d="M1555.32 1870.66 L1595.52 1870.66 L1595.52 1876.07 L1578.65 1876.07 L1578.65 1918.18 L1572.19 1918.18 L1572.19 1876.07 L1555.32 1876.07 L1555.32 1870.66 Z" fill="#000000" fill-rule="nonzero" fill-opacity="1" /><path clip-path="url(#clip030)" d="M1599.47 1882.53 L1605.32 1882.53 L1605.32 1918.18 L1599.47 1918.18 L1599.47 1882.53 M1599.47 1868.66 L1605.32 1868.66 L1605.32 1876.07 L1599.47 1876.07 L1599.47 1868.66 Z" fill="#000000" fill-rule="nonzero" fill-opacity="1" /><path clip-path="url(#clip030)" d="M1645.33 1889.38 Q1647.53 1885.43 1650.58 1883.55 Q1653.64 1881.67 1657.78 1881.67 Q1663.35 1881.67 1666.37 1885.59 Q1669.39 1889.47 1669.39 1896.67 L1669.39 1918.18 L1663.51 1918.18 L1663.51 1896.86 Q1663.51 1891.73 1661.69 1889.25 Q1659.88 1886.77 1656.15 1886.77 Q1651.6 1886.77 1648.96 1889.79 Q1646.32 1892.81 1646.32 1898.03 L1646.32 1918.18 L1640.43 1918.18 L1640.43 1896.86 Q1640.43 1891.7 1638.62 1889.25 Q1636.8 1886.77 1633.01 1886.77 Q1628.53 1886.77 1625.89 1889.82 Q1623.24 1892.85 1623.24 1898.03 L1623.24 1918.18 L1617.36 1918.18 L1617.36 1882.53 L1623.24 1882.53 L1623.24 1888.07 Q1625.25 1884.79 1628.05 1883.23 Q1630.85 1881.67 1634.7 1881.67 Q1638.58 1881.67 1641.29 1883.65 Q1644.03 1885.62 1645.33 1889.38 Z" fill="#000000" fill-rule="nonzero" fill-opacity="1" /><path clip-path="url(#clip030)" d="M1711.57 1898.89 L1711.57 1901.76 L1684.64 1901.76 Q1685.02 1907.81 1688.27 1910.99 Q1691.55 1914.14 1697.37 1914.14 Q1700.75 1914.14 1703.9 1913.31 Q1707.08 1912.48 1710.2 1910.83 L1710.2 1916.37 Q1707.05 1917.7 1703.74 1918.4 Q1700.43 1919.1 1697.02 1919.1 Q1688.49 1919.1 1683.49 1914.14 Q1678.53 1909.17 1678.53 1900.71 Q1678.53 1891.96 1683.24 1886.83 Q1687.98 1881.67 1696 1881.67 Q1703.2 1881.67 1707.37 1886.32 Q1711.57 1890.94 1711.57 1898.89 M1705.71 1897.17 Q1705.65 1892.37 1703.01 1889.5 Q1700.4 1886.64 1696.07 1886.64 Q1691.17 1886.64 1688.21 1889.41 Q1685.28 1892.18 1684.83 1897.21 L1705.71 1897.17 Z" fill="#000000" fill-rule="nonzero" fill-opacity="1" /><path clip-path="url(#clip030)" d="M1755.97 1868.72 Q1751.7 1876.04 1749.63 1883.2 Q1747.57 1890.36 1747.57 1897.72 Q1747.57 1905.07 1749.63 1912.29 Q1751.74 1919.49 1755.97 1926.78 L1750.88 1926.78 Q1746.1 1919.3 1743.71 1912.07 Q1741.36 1904.85 1741.36 1897.72 Q1741.36 1890.62 1743.71 1883.42 Q1746.07 1876.23 1750.88 1868.72 L1755.97 1868.72 Z" fill="#000000" fill-rule="nonzero" fill-opacity="1" /><path clip-path="url(#clip030)" d="M1796.96 1896.67 L1796.96 1918.18 L1791.11 1918.18 L1791.11 1896.86 Q1791.11 1891.8 1789.13 1889.28 Q1787.16 1886.77 1783.21 1886.77 Q1778.47 1886.77 1775.73 1889.79 Q1773 1892.81 1773 1898.03 L1773 1918.18 L1767.11 1918.18 L1767.11 1868.66 L1773 1868.66 L1773 1888.07 Q1775.1 1884.86 1777.93 1883.27 Q1780.79 1881.67 1784.52 1881.67 Q1790.66 1881.67 1793.81 1885.49 Q1796.96 1889.28 1796.96 1896.67 Z" fill="#000000" fill-rule="nonzero" fill-opacity="1" /><path clip-path="url(#clip030)" d="M1807.72 1868.72 L1812.81 1868.72 Q1817.59 1876.23 1819.94 1883.42 Q1822.33 1890.62 1822.33 1897.72 Q1822.33 1904.85 1819.94 1912.07 Q1817.59 1919.3 1812.81 1926.78 L1807.72 1926.78 Q1811.95 1919.49 1814.02 1912.29 Q1816.12 1905.07 1816.12 1897.72 Q1816.12 1890.36 1814.02 1883.2 Q1811.95 1876.04 1807.72 1868.72 Z" fill="#000000" fill-rule="nonzero" fill-opacity="1" /><polyline clip-path="url(#clip030)" style="stroke:#000000; stroke-linecap:round; stroke-linejoin:round; stroke-width:4; stroke-opacity:1; fill:none" points="287.888,1761.32 287.888,110.236 "/>
<polyline clip-path="url(#clip030)" style="stroke:#000000; stroke-linecap:round; stroke-linejoin:round; stroke-width:4; stroke-opacity:1; fill:none" points="287.888,1714.59 306.786,1714.59 "/>
<polyline clip-path="url(#clip030)" style="stroke:#000000; stroke-linecap:round; stroke-linejoin:round; stroke-width:4; stroke-opacity:1; fill:none" points="287.888,1463.76 306.786,1463.76 "/>
<polyline clip-path="url(#clip030)" style="stroke:#000000; stroke-linecap:round; stroke-linejoin:round; stroke-width:4; stroke-opacity:1; fill:none" points="287.888,1212.94 306.786,1212.94 "/>
<polyline clip-path="url(#clip030)" style="stroke:#000000; stroke-linecap:round; stroke-linejoin:round; stroke-width:4; stroke-opacity:1; fill:none" points="287.888,962.114 306.786,962.114 "/>
<polyline clip-path="url(#clip030)" style="stroke:#000000; stroke-linecap:round; stroke-linejoin:round; stroke-width:4; stroke-opacity:1; fill:none" points="287.888,711.288 306.786,711.288 "/>
<polyline clip-path="url(#clip030)" style="stroke:#000000; stroke-linecap:round; stroke-linejoin:round; stroke-width:4; stroke-opacity:1; fill:none" points="287.888,460.463 306.786,460.463 "/>
<polyline clip-path="url(#clip030)" style="stroke:#000000; stroke-linecap:round; stroke-linejoin:round; stroke-width:4; stroke-opacity:1; fill:none" points="287.888,209.638 306.786,209.638 "/>
<path clip-path="url(#clip030)" d="M182.713 1700.39 Q179.102 1700.39 177.273 1703.95 Q175.467 1707.49 175.467 1714.62 Q175.467 1721.73 177.273 1725.29 Q179.102 1728.84 182.713 1728.84 Q186.347 1728.84 188.153 1725.29 Q189.981 1721.73 189.981 1714.62 Q189.981 1707.49 188.153 1703.95 Q186.347 1700.39 182.713 1700.39 M182.713 1696.68 Q188.523 1696.68 191.578 1701.29 Q194.657 1705.87 194.657 1714.62 Q194.657 1723.35 191.578 1727.96 Q188.523 1732.54 182.713 1732.54 Q176.903 1732.54 173.824 1727.96 Q170.768 1723.35 170.768 1714.62 Q170.768 1705.87 173.824 1701.29 Q176.903 1696.68 182.713 1696.68 Z" fill="#000000" fill-rule="nonzero" fill-opacity="1" /><path clip-path="url(#clip030)" d="M202.875 1725.99 L207.759 1725.99 L207.759 1731.87 L202.875 1731.87 L202.875 1725.99 Z" fill="#000000" fill-rule="nonzero" fill-opacity="1" /><path clip-path="url(#clip030)" d="M227.944 1700.39 Q224.333 1700.39 222.504 1703.95 Q220.699 1707.49 220.699 1714.62 Q220.699 1721.73 222.504 1725.29 Q224.333 1728.84 227.944 1728.84 Q231.578 1728.84 233.384 1725.29 Q235.212 1721.73 235.212 1714.62 Q235.212 1707.49 233.384 1703.95 Q231.578 1700.39 227.944 1700.39 M227.944 1696.68 Q233.754 1696.68 236.81 1701.29 Q239.888 1705.87 239.888 1714.62 Q239.888 1723.35 236.81 1727.96 Q233.754 1732.54 227.944 1732.54 Q222.134 1732.54 219.055 1727.96 Q216 1723.35 216 1714.62 Q216 1705.87 219.055 1701.29 Q222.134 1696.68 227.944 1696.68 Z" fill="#000000" fill-rule="nonzero" fill-opacity="1" /><path clip-path="url(#clip030)" d="M183.94 1449.56 Q180.329 1449.56 178.5 1453.13 Q176.694 1456.67 176.694 1463.8 Q176.694 1470.91 178.5 1474.47 Q180.329 1478.01 183.94 1478.01 Q187.574 1478.01 189.379 1474.47 Q191.208 1470.91 191.208 1463.8 Q191.208 1456.67 189.379 1453.13 Q187.574 1449.56 183.94 1449.56 M183.94 1445.86 Q189.75 1445.86 192.805 1450.47 Q195.884 1455.05 195.884 1463.8 Q195.884 1472.53 192.805 1477.13 Q189.75 1481.72 183.94 1481.72 Q178.129 1481.72 175.051 1477.13 Q171.995 1472.53 171.995 1463.8 Q171.995 1455.05 175.051 1450.47 Q178.129 1445.86 183.94 1445.86 Z" fill="#000000" fill-rule="nonzero" fill-opacity="1" /><path clip-path="url(#clip030)" d="M204.102 1475.16 L208.986 1475.16 L208.986 1481.04 L204.102 1481.04 L204.102 1475.16 Z" fill="#000000" fill-rule="nonzero" fill-opacity="1" /><path clip-path="url(#clip030)" d="M219.981 1477.11 L227.62 1477.11 L227.62 1450.74 L219.31 1452.41 L219.31 1448.15 L227.574 1446.48 L232.25 1446.48 L232.25 1477.11 L239.888 1477.11 L239.888 1481.04 L219.981 1481.04 L219.981 1477.11 Z" fill="#000000" fill-rule="nonzero" fill-opacity="1" /><path clip-path="url(#clip030)" d="M184.31 1198.74 Q180.699 1198.74 178.87 1202.3 Q177.065 1205.84 177.065 1212.97 Q177.065 1220.08 178.87 1223.64 Q180.699 1227.19 184.31 1227.19 Q187.944 1227.19 189.75 1223.64 Q191.578 1220.08 191.578 1212.97 Q191.578 1205.84 189.75 1202.3 Q187.944 1198.74 184.31 1198.74 M184.31 1195.03 Q190.12 1195.03 193.176 1199.64 Q196.254 1204.22 196.254 1212.97 Q196.254 1221.7 193.176 1226.31 Q190.12 1230.89 184.31 1230.89 Q178.5 1230.89 175.421 1226.31 Q172.366 1221.7 172.366 1212.97 Q172.366 1204.22 175.421 1199.64 Q178.5 1195.03 184.31 1195.03 Z" fill="#000000" fill-rule="nonzero" fill-opacity="1" /><path clip-path="url(#clip030)" d="M204.472 1224.34 L209.356 1224.34 L209.356 1230.22 L204.472 1230.22 L204.472 1224.34 Z" fill="#000000" fill-rule="nonzero" fill-opacity="1" /><path clip-path="url(#clip030)" d="M223.569 1226.28 L239.888 1226.28 L239.888 1230.22 L217.944 1230.22 L217.944 1226.28 Q220.606 1223.53 225.189 1218.9 Q229.796 1214.25 230.976 1212.9 Q233.222 1210.38 234.101 1208.64 Q235.004 1206.89 235.004 1205.2 Q235.004 1202.44 233.06 1200.71 Q231.138 1198.97 228.037 1198.97 Q225.838 1198.97 223.384 1199.73 Q220.953 1200.5 218.176 1202.05 L218.176 1197.33 Q221 1196.19 223.453 1195.61 Q225.907 1195.03 227.944 1195.03 Q233.314 1195.03 236.509 1197.72 Q239.703 1200.4 239.703 1204.89 Q239.703 1207.02 238.893 1208.95 Q238.106 1210.84 236 1213.44 Q235.421 1214.11 232.319 1217.33 Q229.217 1220.52 223.569 1226.28 Z" fill="#000000" fill-rule="nonzero" fill-opacity="1" /><path clip-path="url(#clip030)" d="M183.361 947.912 Q179.75 947.912 177.921 951.477 Q176.116 955.019 176.116 962.148 Q176.116 969.255 177.921 972.82 Q179.75 976.361 183.361 976.361 Q186.995 976.361 188.801 972.82 Q190.629 969.255 190.629 962.148 Q190.629 955.019 188.801 951.477 Q186.995 947.912 183.361 947.912 M183.361 944.209 Q189.171 944.209 192.227 948.815 Q195.305 953.398 195.305 962.148 Q195.305 970.875 192.227 975.482 Q189.171 980.065 183.361 980.065 Q177.551 980.065 174.472 975.482 Q171.417 970.875 171.417 962.148 Q171.417 953.398 174.472 948.815 Q177.551 944.209 183.361 944.209 Z" fill="#000000" fill-rule="nonzero" fill-opacity="1" /><path clip-path="url(#clip030)" d="M203.523 973.514 L208.407 973.514 L208.407 979.394 L203.523 979.394 L203.523 973.514 Z" fill="#000000" fill-rule="nonzero" fill-opacity="1" /><path clip-path="url(#clip030)" d="M232.759 960.759 Q236.115 961.477 237.99 963.746 Q239.888 966.014 239.888 969.347 Q239.888 974.463 236.37 977.264 Q232.851 980.065 226.37 980.065 Q224.194 980.065 221.879 979.625 Q219.588 979.208 217.134 978.352 L217.134 973.838 Q219.078 974.972 221.393 975.551 Q223.708 976.13 226.231 976.13 Q230.629 976.13 232.921 974.394 Q235.236 972.658 235.236 969.347 Q235.236 966.292 233.083 964.579 Q230.953 962.843 227.134 962.843 L223.106 962.843 L223.106 959 L227.319 959 Q230.768 959 232.597 957.634 Q234.425 956.246 234.425 953.653 Q234.425 950.991 232.527 949.579 Q230.652 948.144 227.134 948.144 Q225.213 948.144 223.013 948.56 Q220.814 948.977 218.176 949.857 L218.176 945.69 Q220.838 944.949 223.152 944.579 Q225.49 944.209 227.55 944.209 Q232.875 944.209 235.976 946.639 Q239.078 949.047 239.078 953.167 Q239.078 956.037 237.435 958.028 Q235.791 959.996 232.759 960.759 Z" fill="#000000" fill-rule="nonzero" fill-opacity="1" /><path clip-path="url(#clip030)" d="M182.227 697.087 Q178.616 697.087 176.787 700.652 Q174.981 704.194 174.981 711.323 Q174.981 718.43 176.787 721.994 Q178.616 725.536 182.227 725.536 Q185.861 725.536 187.666 721.994 Q189.495 718.43 189.495 711.323 Q189.495 704.194 187.666 700.652 Q185.861 697.087 182.227 697.087 M182.227 693.383 Q188.037 693.383 191.092 697.99 Q194.171 702.573 194.171 711.323 Q194.171 720.05 191.092 724.656 Q188.037 729.24 182.227 729.24 Q176.417 729.24 173.338 724.656 Q170.282 720.05 170.282 711.323 Q170.282 702.573 173.338 697.99 Q176.417 693.383 182.227 693.383 Z" fill="#000000" fill-rule="nonzero" fill-opacity="1" /><path clip-path="url(#clip030)" d="M202.389 722.689 L207.273 722.689 L207.273 728.568 L202.389 728.568 L202.389 722.689 Z" fill="#000000" fill-rule="nonzero" fill-opacity="1" /><path clip-path="url(#clip030)" d="M230.305 698.083 L218.5 716.532 L230.305 716.532 L230.305 698.083 M229.078 694.008 L234.958 694.008 L234.958 716.532 L239.888 716.532 L239.888 720.42 L234.958 720.42 L234.958 728.568 L230.305 728.568 L230.305 720.42 L214.703 720.42 L214.703 715.907 L229.078 694.008 Z" fill="#000000" fill-rule="nonzero" fill-opacity="1" /><path clip-path="url(#clip030)" d="M183.708 446.262 Q180.097 446.262 178.268 449.827 Q176.463 453.368 176.463 460.498 Q176.463 467.605 178.268 471.169 Q180.097 474.711 183.708 474.711 Q187.342 474.711 189.148 471.169 Q190.977 467.605 190.977 460.498 Q190.977 453.368 189.148 449.827 Q187.342 446.262 183.708 446.262 M183.708 442.558 Q189.518 442.558 192.574 447.165 Q195.653 451.748 195.653 460.498 Q195.653 469.225 192.574 473.831 Q189.518 478.415 183.708 478.415 Q177.898 478.415 174.819 473.831 Q171.764 469.225 171.764 460.498 Q171.764 451.748 174.819 447.165 Q177.898 442.558 183.708 442.558 Z" fill="#000000" fill-rule="nonzero" fill-opacity="1" /><path clip-path="url(#clip030)" d="M203.87 471.864 L208.754 471.864 L208.754 477.743 L203.87 477.743 L203.87 471.864 Z" fill="#000000" fill-rule="nonzero" fill-opacity="1" /><path clip-path="url(#clip030)" d="M218.986 443.183 L237.342 443.183 L237.342 447.119 L223.268 447.119 L223.268 455.591 Q224.287 455.243 225.305 455.081 Q226.324 454.896 227.342 454.896 Q233.129 454.896 236.509 458.068 Q239.888 461.239 239.888 466.655 Q239.888 472.234 236.416 475.336 Q232.944 478.415 226.625 478.415 Q224.449 478.415 222.18 478.044 Q219.935 477.674 217.527 476.933 L217.527 472.234 Q219.611 473.368 221.833 473.924 Q224.055 474.479 226.532 474.479 Q230.537 474.479 232.875 472.373 Q235.212 470.267 235.212 466.655 Q235.212 463.044 232.875 460.938 Q230.537 458.831 226.532 458.831 Q224.657 458.831 222.782 459.248 Q220.93 459.665 218.986 460.544 L218.986 443.183 Z" fill="#000000" fill-rule="nonzero" fill-opacity="1" /><path clip-path="url(#clip030)" d="M182.551 195.437 Q178.94 195.437 177.111 199.002 Q175.305 202.543 175.305 209.673 Q175.305 216.779 177.111 220.344 Q178.94 223.886 182.551 223.886 Q186.185 223.886 187.991 220.344 Q189.819 216.779 189.819 209.673 Q189.819 202.543 187.991 199.002 Q186.185 195.437 182.551 195.437 M182.551 191.733 Q188.361 191.733 191.416 196.34 Q194.495 200.923 194.495 209.673 Q194.495 218.4 191.416 223.006 Q188.361 227.59 182.551 227.59 Q176.741 227.59 173.662 223.006 Q170.606 218.4 170.606 209.673 Q170.606 200.923 173.662 196.34 Q176.741 191.733 182.551 191.733 Z" fill="#000000" fill-rule="nonzero" fill-opacity="1" /><path clip-path="url(#clip030)" d="M202.713 221.039 L207.597 221.039 L207.597 226.918 L202.713 226.918 L202.713 221.039 Z" fill="#000000" fill-rule="nonzero" fill-opacity="1" /><path clip-path="url(#clip030)" d="M228.361 207.775 Q225.213 207.775 223.361 209.928 Q221.532 212.08 221.532 215.83 Q221.532 219.557 223.361 221.733 Q225.213 223.886 228.361 223.886 Q231.509 223.886 233.338 221.733 Q235.189 219.557 235.189 215.83 Q235.189 212.08 233.338 209.928 Q231.509 207.775 228.361 207.775 M237.643 193.122 L237.643 197.381 Q235.884 196.548 234.078 196.108 Q232.296 195.668 230.537 195.668 Q225.907 195.668 223.453 198.793 Q221.023 201.918 220.676 208.238 Q222.041 206.224 224.101 205.159 Q226.162 204.071 228.638 204.071 Q233.847 204.071 236.856 207.242 Q239.888 210.391 239.888 215.83 Q239.888 221.154 236.74 224.372 Q233.592 227.59 228.361 227.59 Q222.365 227.59 219.194 223.006 Q216.023 218.4 216.023 209.673 Q216.023 201.479 219.912 196.617 Q223.801 191.733 230.351 191.733 Q232.111 191.733 233.893 192.08 Q235.699 192.428 237.643 193.122 Z" fill="#000000" fill-rule="nonzero" fill-opacity="1" /><path clip-path="url(#clip030)" d="M73.747 1119.4 L79.2215 1119.4 Q77.8528 1121.88 77.1844 1124.39 Q76.4842 1126.88 76.4842 1129.42 Q76.4842 1135.12 80.1127 1138.27 Q83.7093 1141.42 90.2341 1141.42 Q96.759 1141.42 100.387 1138.27 Q103.984 1135.12 103.984 1129.42 Q103.984 1126.88 103.316 1124.39 Q102.615 1121.88 101.247 1119.4 L106.658 1119.4 Q107.803 1121.85 108.376 1124.49 Q108.949 1127.1 108.949 1130.06 Q108.949 1138.11 103.889 1142.85 Q98.8278 1147.6 90.2341 1147.6 Q81.5131 1147.6 76.516 1142.82 Q71.519 1138.02 71.519 1129.68 Q71.519 1126.97 72.0919 1124.39 Q72.633 1121.81 73.747 1119.4 Z" fill="#000000" fill-rule="nonzero" fill-opacity="1" /><path clip-path="url(#clip030)" d="M60.5063 1115.54 L60.5063 1075.35 L65.9171 1075.35 L65.9171 1092.21 L108.026 1092.21 L108.026 1098.68 L65.9171 1098.68 L65.9171 1115.54 L60.5063 1115.54 Z" fill="#000000" fill-rule="nonzero" fill-opacity="1" /><path clip-path="url(#clip030)" d="M86.5102 1039.76 L108.026 1039.76 L108.026 1045.62 L86.7012 1045.62 Q81.6404 1045.62 79.126 1047.59 Q76.6115 1049.56 76.6115 1053.51 Q76.6115 1058.25 79.6352 1060.99 Q82.6589 1063.73 87.8788 1063.73 L108.026 1063.73 L108.026 1069.62 L72.3783 1069.62 L72.3783 1063.73 L77.9165 1063.73 Q74.7018 1061.63 73.1104 1058.79 Q71.519 1055.93 71.519 1052.21 Q71.519 1046.06 75.3384 1042.91 Q79.126 1039.76 86.5102 1039.76 Z" fill="#000000" fill-rule="nonzero" fill-opacity="1" /><path clip-path="url(#clip030)" d="M60.5063 1034.41 L60.5063 994.214 L65.9171 994.214 L65.9171 1011.08 L108.026 1011.08 L108.026 1017.54 L65.9171 1017.54 L65.9171 1034.41 L60.5063 1034.41 Z" fill="#000000" fill-rule="nonzero" fill-opacity="1" /><path clip-path="url(#clip030)" d="M58.5011 968.083 L58.5011 954.588 L63.0526 954.588 L63.0526 962.226 L112.069 962.226 L112.069 954.588 L116.62 954.588 L116.62 968.083 L58.5011 968.083 Z" fill="#000000" fill-rule="nonzero" fill-opacity="1" /><path clip-path="url(#clip030)" d="M86.5102 912.478 L108.026 912.478 L108.026 918.335 L86.7012 918.335 Q81.6404 918.335 79.126 920.308 Q76.6115 922.282 76.6115 926.228 Q76.6115 930.971 79.6352 933.708 Q82.6589 936.445 87.8788 936.445 L108.026 936.445 L108.026 942.334 L72.3783 942.334 L72.3783 936.445 L77.9165 936.445 Q74.7018 934.345 73.1104 931.512 Q71.519 928.647 71.519 924.923 Q71.519 918.781 75.3384 915.63 Q79.126 912.478 86.5102 912.478 Z" fill="#000000" fill-rule="nonzero" fill-opacity="1" /><path clip-path="url(#clip030)" d="M89.7885 877.34 Q83.4228 877.34 79.9217 879.982 Q76.4206 882.591 76.4206 887.334 Q76.4206 892.045 79.9217 894.686 Q83.4228 897.296 89.7885 897.296 Q96.1224 897.296 99.6236 894.686 Q103.125 892.045 103.125 887.334 Q103.125 882.591 99.6236 879.982 Q96.1224 877.34 89.7885 877.34 M103.602 871.483 Q112.705 871.483 117.129 875.526 Q121.585 879.568 121.585 887.907 Q121.585 890.994 121.108 893.731 Q120.662 896.469 119.707 899.047 L114.01 899.047 Q115.411 896.469 116.079 893.954 Q116.747 891.44 116.747 888.83 Q116.747 883.069 113.724 880.204 Q110.732 877.34 104.652 877.34 L101.756 877.34 Q104.907 879.154 106.467 881.987 Q108.026 884.819 108.026 888.766 Q108.026 895.323 103.029 899.333 Q98.0321 903.344 89.7885 903.344 Q81.5131 903.344 76.516 899.333 Q71.519 895.323 71.519 888.766 Q71.519 884.819 73.0786 881.987 Q74.6382 879.154 77.7892 877.34 L72.3783 877.34 L72.3783 871.483 L103.602 871.483 Z" fill="#000000" fill-rule="nonzero" fill-opacity="1" /><path clip-path="url(#clip030)" d="M60.5063 849.012 L60.5063 843.602 L114.074 860.152 L114.074 865.563 L60.5063 849.012 Z" fill="#000000" fill-rule="nonzero" fill-opacity="1" /><path clip-path="url(#clip030)" d="M79.2215 809.704 Q75.2747 807.508 73.3968 804.452 Q71.519 801.397 71.519 797.259 Q71.519 791.689 75.4339 788.665 Q79.3169 785.642 86.5102 785.642 L108.026 785.642 L108.026 791.53 L86.7012 791.53 Q81.5768 791.53 79.0941 793.344 Q76.6115 795.159 76.6115 798.882 Q76.6115 803.434 79.6352 806.076 Q82.6589 808.717 87.8788 808.717 L108.026 808.717 L108.026 814.606 L86.7012 814.606 Q81.5449 814.606 79.0941 816.42 Q76.6115 818.234 76.6115 822.022 Q76.6115 826.51 79.6671 829.151 Q82.6908 831.793 87.8788 831.793 L108.026 831.793 L108.026 837.681 L72.3783 837.681 L72.3783 831.793 L77.9165 831.793 Q74.6382 829.788 73.0786 826.987 Q71.519 824.186 71.519 820.335 Q71.519 816.452 73.4923 813.746 Q75.4657 811.009 79.2215 809.704 Z" fill="#000000" fill-rule="nonzero" fill-opacity="1" /><path clip-path="url(#clip030)" d="M60.5063 773.706 L60.5063 767.277 L102.615 767.277 L102.615 744.137 L108.026 744.137 L108.026 773.706 L60.5063 773.706 Z" fill="#000000" fill-rule="nonzero" fill-opacity="1" /><path clip-path="url(#clip030)" d="M58.5011 723.958 L116.62 723.958 L116.62 737.453 L112.069 737.453 L112.069 729.846 L63.0526 729.846 L63.0526 737.453 L58.5011 737.453 L58.5011 723.958 Z" fill="#000000" fill-rule="nonzero" fill-opacity="1" /><circle clip-path="url(#clip031)" cx="434.326" cy="156.965" r="21.6" fill="#ff0000" fill-rule="evenodd" fill-opacity="1" stroke="#000000" stroke-opacity="1" stroke-width="6"/>
<circle clip-path="url(#clip031)" cx="902.362" cy="919.473" r="21.6" fill="#ff0000" fill-rule="evenodd" fill-opacity="1" stroke="#000000" stroke-opacity="1" stroke-width="6"/>
<circle clip-path="url(#clip031)" cx="1165.1" cy="942.048" r="21.6" fill="#ff0000" fill-rule="evenodd" fill-opacity="1" stroke="#000000" stroke-opacity="1" stroke-width="6"/>
<circle clip-path="url(#clip031)" cx="1455.78" cy="763.962" r="21.6" fill="#ff0000" fill-rule="evenodd" fill-opacity="1" stroke="#000000" stroke-opacity="1" stroke-width="6"/>
<circle clip-path="url(#clip031)" cx="2006.48" cy="1054.92" r="21.6" fill="#ff0000" fill-rule="evenodd" fill-opacity="1" stroke="#000000" stroke-opacity="1" stroke-width="6"/>
<circle clip-path="url(#clip031)" cx="2544.76" cy="992.213" r="21.6" fill="#ff0000" fill-rule="evenodd" fill-opacity="1" stroke="#000000" stroke-opacity="1" stroke-width="6"/>
<polyline clip-path="url(#clip031)" style="stroke:#0000ff; stroke-linecap:round; stroke-linejoin:round; stroke-width:8; stroke-opacity:1; fill:none" points="367.187,1714.59 390.472,264.644 413.758,245.085 437.043,282.885 460.328,321.963 483.614,360.047 506.899,397.061 530.184,433.011 553.47,467.905 576.755,501.742 600.041,534.517 623.326,566.22 646.611,596.832 669.897,626.332 693.182,654.689 716.467,681.87 739.753,707.837 763.038,732.545 786.324,755.947 809.609,777.994 832.894,798.631 856.18,817.806 879.465,835.469 902.75,851.566 926.036,866.052 949.321,878.885 972.607,890.032 995.892,899.468 1019.18,907.178 1042.46,913.163 1065.75,917.437 1089.03,920.029 1112.32,920.989 1135.6,920.383 1158.89,918.296 1182.18,914.833 1205.46,910.118 1228.75,904.29 1252.03,897.508 1275.32,889.94 1298.6,881.769 1321.89,873.182 1345.17,864.37 1368.46,855.528 1391.74,846.84 1415.03,838.488 1438.31,830.639 1461.6,823.441 1484.88,817.031 1508.17,811.516 1531.46,806.987 1554.74,803.508 1578.03,801.118 1601.31,799.837 1624.6,799.659 1647.88,800.561 1671.17,802.501 1694.45,805.425 1717.74,809.267 1741.02,813.951 1764.31,819.399 1787.59,825.528 1810.88,832.257 1834.17,839.508 1857.45,847.204 1880.74,855.275 1904.02,863.658 1927.31,872.294 1950.59,881.132 1973.88,890.126 1997.16,899.239 2020.45,908.436 2043.73,917.688 2067.02,926.972 2090.3,936.269 2113.59,945.56 2136.88,954.831 2160.16,964.072 2183.45,973.272 2206.73,982.422 2230.02,991.517 2253.3,1000.55 2276.59,1009.52 2299.87,1018.42 2323.16,1027.24 2346.44,1035.99 2369.73,1044.65 2393.01,1053.24 2416.3,1061.74 2439.59,1070.16 2462.87,1078.5 2486.16,1086.75 2509.44,1094.91 2532.73,1102.98 2556.01,1110.97 2579.3,1118.87 2602.58,1126.68 2625.87,1134.4 2649.15,1142.03 2672.44,1149.57 2695.72,1157.03 2719.01,1164.4 2742.3,1171.68 2765.58,1178.87 2788.87,1185.98 2812.15,1193 2835.44,1199.94 2858.72,1206.79 2882.01,1213.56 2905.29,1220.24 2928.58,1226.84 2951.86,1233.35 2975.15,1239.79 2998.43,1246.14 3010.47,1249.4 "/>
</svg>
