<?xml version="1.0" encoding="utf-8"?>
<svg xmlns="http://www.w3.org/2000/svg" xmlns:xlink="http://www.w3.org/1999/xlink" width="800" height="500" viewBox="0 0 3200 2000">
<defs>
  <clipPath id="clip080">
    <rect x="0" y="0" width="3200" height="2000"/>
  </clipPath>
</defs>
<path clip-path="url(#clip080)" d="M0 2000 L3200 2000 L3200 0 L0 0  Z" fill="#ffffff" fill-rule="evenodd" fill-opacity="1"/>
<defs>
  <clipPath id="clip081">
    <rect x="287" y="110" width="2803" height="1652"/>
  </clipPath>
</defs>
<path clip-path="url(#clip080)" d="M317.564 1761.32 L3089.76 1761.32 L3089.76 110.236 L317.564 110.236  Z" fill="#ffffff" fill-rule="evenodd" fill-opacity="1"/>
<defs>
  <clipPath id="clip082">
    <rect x="317" y="110" width="2773" height="1652"/>
  </clipPath>
</defs>
<polyline clip-path="url(#clip082)" style="stroke:#000000; stroke-linecap:round; stroke-linejoin:round; stroke-width:2; stroke-opacity:0.1; fill:none" points="396.023,1761.32 396.023,110.236 "/>
<polyline clip-path="url(#clip082)" style="stroke:#000000; stroke-linecap:round; stroke-linejoin:round; stroke-width:2; stroke-opacity:0.1; fill:none" points="1045.62,1761.32 1045.62,110.236 "/>
<polyline clip-path="url(#clip082)" style="stroke:#000000; stroke-linecap:round; stroke-linejoin:round; stroke-width:2; stroke-opacity:0.1; fill:none" points="1695.22,1761.32 1695.22,110.236 "/>
<polyline clip-path="url(#clip082)" style="stroke:#000000; stroke-linecap:round; stroke-linejoin:round; stroke-width:2; stroke-opacity:0.1; fill:none" points="2344.82,1761.32 2344.82,110.236 "/>
<polyline clip-path="url(#clip082)" style="stroke:#000000; stroke-linecap:round; stroke-linejoin:round; stroke-width:2; stroke-opacity:0.1; fill:none" points="2994.42,1761.32 2994.42,110.236 "/>
<polyline clip-path="url(#clip082)" style="stroke:#000000; stroke-linecap:round; stroke-linejoin:round; stroke-width:2; stroke-opacity:0.1; fill:none" points="317.564,1714.59 3089.76,1714.59 "/>
<polyline clip-path="url(#clip082)" style="stroke:#000000; stroke-linecap:round; stroke-linejoin:round; stroke-width:2; stroke-opacity:0.1; fill:none" points="317.564,1437.04 3089.76,1437.04 "/>
<polyline clip-path="url(#clip082)" style="stroke:#000000; stroke-linecap:round; stroke-linejoin:round; stroke-width:2; stroke-opacity:0.1; fill:none" points="317.564,1159.49 3089.76,1159.49 "/>
<polyline clip-path="url(#clip082)" style="stroke:#000000; stroke-linecap:round; stroke-linejoin:round; stroke-width:2; stroke-opacity:0.1; fill:none" points="317.564,881.944 3089.76,881.944 "/>
<polyline clip-path="url(#clip082)" style="stroke:#000000; stroke-linecap:round; stroke-linejoin:round; stroke-width:2; stroke-opacity:0.1; fill:none" points="317.564,604.396 3089.76,604.396 "/>
<polyline clip-path="url(#clip082)" style="stroke:#000000; stroke-linecap:round; stroke-linejoin:round; stroke-width:2; stroke-opacity:0.1; fill:none" points="317.564,326.848 3089.76,326.848 "/>
<polyline clip-path="url(#clip080)" style="stroke:#000000; stroke-linecap:round; stroke-linejoin:round; stroke-width:4; stroke-opacity:1; fill:none" points="317.564,1761.32 3089.76,1761.32 "/>
<polyline clip-path="url(#clip080)" style="stroke:#000000; stroke-linecap:round; stroke-linejoin:round; stroke-width:4; stroke-opacity:1; fill:none" points="396.023,1761.32 396.023,1742.42 "/>
<polyline clip-path="url(#clip080)" style="stroke:#000000; stroke-linecap:round; stroke-linejoin:round; stroke-width:4; stroke-opacity:1; fill:none" points="1045.62,1761.32 1045.62,1742.42 "/>
<polyline clip-path="url(#clip080)" style="stroke:#000000; stroke-linecap:round; stroke-linejoin:round; stroke-width:4; stroke-opacity:1; fill:none" points="1695.22,1761.32 1695.22,1742.42 "/>
<polyline clip-path="url(#clip080)" style="stroke:#000000; stroke-linecap:round; stroke-linejoin:round; stroke-width:4; stroke-opacity:1; fill:none" points="2344.82,1761.32 2344.82,1742.42 "/>
<polyline clip-path="url(#clip080)" style="stroke:#000000; stroke-linecap:round; stroke-linejoin:round; stroke-width:4; stroke-opacity:1; fill:none" points="2994.42,1761.32 2994.42,1742.42 "/>
<path clip-path="url(#clip080)" d="M396.023 1798.64 Q392.412 1798.64 390.583 1802.2 Q388.777 1805.74 388.777 1812.87 Q388.777 1819.98 390.583 1823.54 Q392.412 1827.09 396.023 1827.09 Q399.657 1827.09 401.462 1823.54 Q403.291 1819.98 403.291 1812.87 Q403.291 1805.74 401.462 1802.2 Q399.657 1798.64 396.023 1798.64 M396.023 1794.93 Q401.833 1794.93 404.888 1799.54 Q407.967 1804.12 407.967 1812.87 Q407.967 1821.6 404.888 1826.21 Q401.833 1830.79 396.023 1830.79 Q390.212 1830.79 387.134 1826.21 Q384.078 1821.6 384.078 1812.87 Q384.078 1804.12 387.134 1799.54 Q390.212 1794.93 396.023 1794.93 Z" fill="#000000" fill-rule="nonzero" fill-opacity="1" /><path clip-path="url(#clip080)" d="M1020.32 1795.56 L1038.68 1795.56 L1038.68 1799.49 L1024.6 1799.49 L1024.6 1807.97 Q1025.62 1807.62 1026.64 1807.46 Q1027.66 1807.27 1028.68 1807.27 Q1034.46 1807.27 1037.84 1810.44 Q1041.22 1813.61 1041.22 1819.03 Q1041.22 1824.61 1037.75 1827.71 Q1034.28 1830.79 1027.96 1830.79 Q1025.78 1830.79 1023.51 1830.42 Q1021.27 1830.05 1018.86 1829.31 L1018.86 1824.61 Q1020.95 1825.74 1023.17 1826.3 Q1025.39 1826.85 1027.87 1826.85 Q1031.87 1826.85 1034.21 1824.75 Q1036.55 1822.64 1036.55 1819.03 Q1036.55 1815.42 1034.21 1813.31 Q1031.87 1811.21 1027.87 1811.21 Q1025.99 1811.21 1024.12 1811.62 Q1022.26 1812.04 1020.32 1812.92 L1020.32 1795.56 Z" fill="#000000" fill-rule="nonzero" fill-opacity="1" /><path clip-path="url(#clip080)" d="M1060.44 1798.64 Q1056.82 1798.64 1055 1802.2 Q1053.19 1805.74 1053.19 1812.87 Q1053.19 1819.98 1055 1823.54 Q1056.82 1827.09 1060.44 1827.09 Q1064.07 1827.09 1065.88 1823.54 Q1067.7 1819.98 1067.7 1812.87 Q1067.7 1805.74 1065.88 1802.2 Q1064.07 1798.64 1060.44 1798.64 M1060.44 1794.93 Q1066.25 1794.93 1069.3 1799.54 Q1072.38 1804.12 1072.38 1812.87 Q1072.38 1821.6 1069.3 1826.21 Q1066.25 1830.79 1060.44 1830.79 Q1054.63 1830.79 1051.55 1826.21 Q1048.49 1821.6 1048.49 1812.87 Q1048.49 1804.12 1051.55 1799.54 Q1054.63 1794.93 1060.44 1794.93 Z" fill="#000000" fill-rule="nonzero" fill-opacity="1" /><path clip-path="url(#clip080)" d="M1654.83 1826.18 L1662.46 1826.18 L1662.46 1799.82 L1654.15 1801.48 L1654.15 1797.22 L1662.42 1795.56 L1667.09 1795.56 L1667.09 1826.18 L1674.73 1826.18 L1674.73 1830.12 L1654.83 1830.12 L1654.83 1826.18 Z" fill="#000000" fill-rule="nonzero" fill-opacity="1" /><path clip-path="url(#clip080)" d="M1694.18 1798.64 Q1690.57 1798.64 1688.74 1802.2 Q1686.93 1805.74 1686.93 1812.87 Q1686.93 1819.98 1688.74 1823.54 Q1690.57 1827.09 1694.18 1827.09 Q1697.81 1827.09 1699.62 1823.54 Q1701.45 1819.98 1701.45 1812.87 Q1701.45 1805.74 1699.62 1802.2 Q1697.81 1798.64 1694.18 1798.64 M1694.18 1794.93 Q1699.99 1794.93 1703.04 1799.54 Q1706.12 1804.12 1706.12 1812.87 Q1706.12 1821.6 1703.04 1826.21 Q1699.99 1830.79 1694.18 1830.79 Q1688.37 1830.79 1685.29 1826.21 Q1682.23 1821.6 1682.23 1812.87 Q1682.23 1804.12 1685.29 1799.54 Q1688.37 1794.93 1694.18 1794.93 Z" fill="#000000" fill-rule="nonzero" fill-opacity="1" /><path clip-path="url(#clip080)" d="M1724.34 1798.64 Q1720.73 1798.64 1718.9 1802.2 Q1717.09 1805.74 1717.09 1812.87 Q1717.09 1819.98 1718.9 1823.54 Q1720.73 1827.09 1724.34 1827.09 Q1727.97 1827.09 1729.78 1823.54 Q1731.61 1819.98 1731.61 1812.87 Q1731.61 1805.74 1729.78 1802.2 Q1727.97 1798.64 1724.34 1798.64 M1724.34 1794.93 Q1730.15 1794.93 1733.21 1799.54 Q1736.28 1804.12 1736.28 1812.87 Q1736.28 1821.6 1733.21 1826.21 Q1730.15 1830.79 1724.34 1830.79 Q1718.53 1830.79 1715.45 1826.21 Q1712.4 1821.6 1712.4 1812.87 Q1712.4 1804.12 1715.45 1799.54 Q1718.53 1794.93 1724.34 1794.93 Z" fill="#000000" fill-rule="nonzero" fill-opacity="1" /><path clip-path="url(#clip080)" d="M2304.42 1826.18 L2312.06 1826.18 L2312.06 1799.82 L2303.75 1801.48 L2303.75 1797.22 L2312.02 1795.56 L2316.69 1795.56 L2316.69 1826.18 L2324.33 1826.18 L2324.33 1830.12 L2304.42 1830.12 L2304.42 1826.18 Z" fill="#000000" fill-rule="nonzero" fill-opacity="1" /><path clip-path="url(#clip080)" d="M2333.82 1795.56 L2352.18 1795.56 L2352.18 1799.49 L2338.1 1799.49 L2338.1 1807.97 Q2339.12 1807.62 2340.14 1807.46 Q2341.16 1807.27 2342.18 1807.27 Q2347.97 1807.27 2351.35 1810.44 Q2354.72 1813.61 2354.72 1819.03 Q2354.72 1824.61 2351.25 1827.71 Q2347.78 1830.79 2341.46 1830.79 Q2339.29 1830.79 2337.02 1830.42 Q2334.77 1830.05 2332.36 1829.31 L2332.36 1824.61 Q2334.45 1825.74 2336.67 1826.3 Q2338.89 1826.85 2341.37 1826.85 Q2345.37 1826.85 2347.71 1824.75 Q2350.05 1822.64 2350.05 1819.03 Q2350.05 1815.42 2347.71 1813.31 Q2345.37 1811.21 2341.37 1811.21 Q2339.49 1811.21 2337.62 1811.62 Q2335.77 1812.04 2333.82 1812.92 L2333.82 1795.56 Z" fill="#000000" fill-rule="nonzero" fill-opacity="1" /><path clip-path="url(#clip080)" d="M2373.94 1798.64 Q2370.33 1798.64 2368.5 1802.2 Q2366.69 1805.74 2366.69 1812.87 Q2366.69 1819.98 2368.5 1823.54 Q2370.33 1827.09 2373.94 1827.09 Q2377.57 1827.09 2379.38 1823.54 Q2381.21 1819.98 2381.21 1812.87 Q2381.21 1805.74 2379.38 1802.2 Q2377.57 1798.64 2373.94 1798.64 M2373.94 1794.93 Q2379.75 1794.93 2382.8 1799.54 Q2385.88 1804.12 2385.88 1812.87 Q2385.88 1821.6 2382.8 1826.21 Q2379.75 1830.79 2373.94 1830.79 Q2368.13 1830.79 2365.05 1826.21 Q2361.99 1821.6 2361.99 1812.87 Q2361.99 1804.12 2365.05 1799.54 Q2368.13 1794.93 2373.94 1794.93 Z" fill="#000000" fill-rule="nonzero" fill-opacity="1" /><path clip-path="url(#clip080)" d="M2958.11 1826.18 L2974.43 1826.18 L2974.43 1830.12 L2952.48 1830.12 L2952.48 1826.18 Q2955.15 1823.43 2959.73 1818.8 Q2964.33 1814.15 2965.52 1812.8 Q2967.76 1810.28 2968.64 1808.54 Q2969.54 1806.78 2969.54 1805.09 Q2969.54 1802.34 2967.6 1800.6 Q2965.68 1798.87 2962.58 1798.87 Q2960.38 1798.87 2957.92 1799.63 Q2955.49 1800.4 2952.71 1801.95 L2952.71 1797.22 Q2955.54 1796.09 2957.99 1795.51 Q2960.45 1794.93 2962.48 1794.93 Q2967.85 1794.93 2971.05 1797.62 Q2974.24 1800.3 2974.24 1804.79 Q2974.24 1806.92 2973.43 1808.84 Q2972.65 1810.74 2970.54 1813.34 Q2969.96 1814.01 2966.86 1817.22 Q2963.76 1820.42 2958.11 1826.18 Z" fill="#000000" fill-rule="nonzero" fill-opacity="1" /><path clip-path="url(#clip080)" d="M2994.24 1798.64 Q2990.63 1798.64 2988.8 1802.2 Q2987 1805.74 2987 1812.87 Q2987 1819.98 2988.8 1823.54 Q2990.63 1827.09 2994.24 1827.09 Q2997.88 1827.09 2999.68 1823.54 Q3001.51 1819.98 3001.51 1812.87 Q3001.51 1805.74 2999.68 1802.2 Q2997.88 1798.64 2994.24 1798.64 M2994.24 1794.93 Q3000.05 1794.93 3003.11 1799.54 Q3006.19 1804.12 3006.19 1812.87 Q3006.19 1821.6 3003.11 1826.21 Q3000.05 1830.79 2994.24 1830.79 Q2988.43 1830.79 2985.35 1826.21 Q2982.3 1821.6 2982.3 1812.87 Q2982.3 1804.12 2985.35 1799.54 Q2988.43 1794.93 2994.24 1794.93 Z" fill="#000000" fill-rule="nonzero" fill-opacity="1" /><path clip-path="url(#clip080)" d="M3024.4 1798.64 Q3020.79 1798.64 3018.96 1802.2 Q3017.16 1805.74 3017.16 1812.87 Q3017.16 1819.98 3018.96 1823.54 Q3020.79 1827.09 3024.4 1827.09 Q3028.04 1827.09 3029.84 1823.54 Q3031.67 1819.98 3031.67 1812.87 Q3031.67 1805.74 3029.84 1802.2 Q3028.04 1798.64 3024.4 1798.64 M3024.4 1794.93 Q3030.21 1794.93 3033.27 1799.54 Q3036.35 1804.12 3036.35 1812.87 Q3036.35 1821.6 3033.27 1826.21 Q3030.21 1830.79 3024.4 1830.79 Q3018.59 1830.79 3015.52 1826.21 Q3012.46 1821.6 3012.46 1812.87 Q3012.46 1804.12 3015.52 1799.54 Q3018.59 1794.93 3024.4 1794.93 Z" fill="#000000" fill-rule="nonzero" fill-opacity="1" /><path clip-path="url(#clip080)" d="M1570.16 1870.66 L1610.36 1870.66 L1610.36 1876.07 L1593.49 1876.07 L1593.49 1918.18 L1587.03 1918.18 L1587.03 1876.07 L1570.16 1876.07 L1570.16 1870.66 Z" fill="#000000" fill-rule="nonzero" fill-opacity="1" /><path clip-path="url(#clip080)" d="M1614.31 1882.53 L1620.16 1882.53 L1620.16 1918.18 L1614.31 1918.18 L1614.31 1882.53 M1614.31 1868.66 L1620.16 1868.66 L1620.16 1876.07 L1614.31 1876.07 L1614.31 1868.66 Z" fill="#000000" fill-rule="nonzero" fill-opacity="1" /><path clip-path="url(#clip080)" d="M1660.17 1889.38 Q1662.37 1885.43 1665.42 1883.55 Q1668.48 1881.67 1672.62 1881.67 Q1678.19 1881.67 1681.21 1885.59 Q1684.23 1889.47 1684.23 1896.67 L1684.23 1918.18 L1678.34 1918.18 L1678.34 1896.86 Q1678.34 1891.73 1676.53 1889.25 Q1674.72 1886.77 1670.99 1886.77 Q1666.44 1886.77 1663.8 1889.79 Q1661.16 1892.81 1661.16 1898.03 L1661.16 1918.18 L1655.27 1918.18 L1655.27 1896.86 Q1655.27 1891.7 1653.45 1889.25 Q1651.64 1886.77 1647.85 1886.77 Q1643.36 1886.77 1640.72 1889.82 Q1638.08 1892.85 1638.08 1898.03 L1638.08 1918.18 L1632.19 1918.18 L1632.19 1882.53 L1638.08 1882.53 L1638.08 1888.07 Q1640.09 1884.79 1642.89 1883.23 Q1645.69 1881.67 1649.54 1881.67 Q1653.42 1881.67 1656.13 1883.65 Q1658.87 1885.62 1660.17 1889.38 Z" fill="#000000" fill-rule="nonzero" fill-opacity="1" /><path clip-path="url(#clip080)" d="M1726.41 1898.89 L1726.41 1901.76 L1699.48 1901.76 Q1699.86 1907.81 1703.11 1910.99 Q1706.39 1914.14 1712.21 1914.14 Q1715.58 1914.14 1718.73 1913.31 Q1721.92 1912.48 1725.04 1910.83 L1725.04 1916.37 Q1721.89 1917.7 1718.58 1918.4 Q1715.27 1919.1 1711.86 1919.1 Q1703.33 1919.1 1698.33 1914.14 Q1693.37 1909.17 1693.37 1900.71 Q1693.37 1891.96 1698.08 1886.83 Q1702.82 1881.67 1710.84 1881.67 Q1718.03 1881.67 1722.2 1886.32 Q1726.41 1890.94 1726.41 1898.89 M1720.55 1897.17 Q1720.49 1892.37 1717.84 1889.5 Q1715.23 1886.64 1710.9 1886.64 Q1706 1886.64 1703.04 1889.41 Q1700.12 1892.18 1699.67 1897.21 L1720.55 1897.17 Z" fill="#000000" fill-rule="nonzero" fill-opacity="1" /><path clip-path="url(#clip080)" d="M1770.81 1868.72 Q1766.54 1876.04 1764.47 1883.2 Q1762.4 1890.36 1762.4 1897.72 Q1762.4 1905.07 1764.47 1912.29 Q1766.57 1919.49 1770.81 1926.78 L1765.71 1926.78 Q1760.94 1919.3 1758.55 1912.07 Q1756.2 1904.85 1756.2 1897.72 Q1756.2 1890.62 1758.55 1883.42 Q1760.91 1876.23 1765.71 1868.72 L1770.81 1868.72 Z" fill="#000000" fill-rule="nonzero" fill-opacity="1" /><path clip-path="url(#clip080)" d="M1811.8 1896.67 L1811.8 1918.18 L1805.94 1918.18 L1805.94 1896.86 Q1805.94 1891.8 1803.97 1889.28 Q1802 1886.77 1798.05 1886.77 Q1793.31 1886.77 1790.57 1889.79 Q1787.83 1892.81 1787.83 1898.03 L1787.83 1918.18 L1781.95 1918.18 L1781.95 1868.66 L1787.83 1868.66 L1787.83 1888.07 Q1789.94 1884.86 1792.77 1883.27 Q1795.63 1881.67 1799.36 1881.67 Q1805.5 1881.67 1808.65 1885.49 Q1811.8 1889.28 1811.8 1896.67 Z" fill="#000000" fill-rule="nonzero" fill-opacity="1" /><path clip-path="url(#clip080)" d="M1822.56 1868.72 L1827.65 1868.72 Q1832.43 1876.23 1834.78 1883.42 Q1837.17 1890.62 1837.17 1897.72 Q1837.17 1904.85 1834.78 1912.07 Q1832.43 1919.3 1827.65 1926.78 L1822.56 1926.78 Q1826.79 1919.49 1828.86 1912.29 Q1830.96 1905.07 1830.96 1897.72 Q1830.96 1890.36 1828.86 1883.2 Q1826.79 1876.04 1822.56 1868.72 Z" fill="#000000" fill-rule="nonzero" fill-opacity="1" /><polyline clip-path="url(#clip080)" style="stroke:#000000; stroke-linecap:round; stroke-linejoin:round; stroke-width:4; stroke-opacity:1; fill:none" points="317.564,1761.32 317.564,110.236 "/>
<polyline clip-path="url(#clip080)" style="stroke:#000000; stroke-linecap:round; stroke-linejoin:round; stroke-width:4; stroke-opacity:1; fill:none" points="317.564,1714.59 336.462,1714.59 "/>
<polyline clip-path="url(#clip080)" style="stroke:#000000; stroke-linecap:round; stroke-linejoin:round; stroke-width:4; stroke-opacity:1; fill:none" points="317.564,1437.04 336.462,1437.04 "/>
<polyline clip-path="url(#clip080)" style="stroke:#000000; stroke-linecap:round; stroke-linejoin:round; stroke-width:4; stroke-opacity:1; fill:none" points="317.564,1159.49 336.462,1159.49 "/>
<polyline clip-path="url(#clip080)" style="stroke:#000000; stroke-linecap:round; stroke-linejoin:round; stroke-width:4; stroke-opacity:1; fill:none" points="317.564,881.944 336.462,881.944 "/>
<polyline clip-path="url(#clip080)" style="stroke:#000000; stroke-linecap:round; stroke-linejoin:round; stroke-width:4; stroke-opacity:1; fill:none" points="317.564,604.396 336.462,604.396 "/>
<polyline clip-path="url(#clip080)" style="stroke:#000000; stroke-linecap:round; stroke-linejoin:round; stroke-width:4; stroke-opacity:1; fill:none" points="317.564,326.848 336.462,326.848 "/>
<path clip-path="url(#clip080)" d="M182.227 1700.39 Q178.616 1700.39 176.787 1703.95 Q174.981 1707.49 174.981 1714.62 Q174.981 1721.73 176.787 1725.29 Q178.616 1728.84 182.227 1728.84 Q185.861 1728.84 187.666 1725.29 Q189.495 1721.73 189.495 1714.62 Q189.495 1707.49 187.666 1703.95 Q185.861 1700.39 182.227 1700.39 M182.227 1696.68 Q188.037 1696.68 191.092 1701.29 Q194.171 1705.87 194.171 1714.62 Q194.171 1723.35 191.092 1727.96 Q188.037 1732.54 182.227 1732.54 Q176.417 1732.54 173.338 1727.96 Q170.282 1723.35 170.282 1714.62 Q170.282 1705.87 173.338 1701.29 Q176.417 1696.68 182.227 1696.68 Z" fill="#000000" fill-rule="nonzero" fill-opacity="1" /><path clip-path="url(#clip080)" d="M202.389 1725.99 L207.273 1725.99 L207.273 1731.87 L202.389 1731.87 L202.389 1725.99 Z" fill="#000000" fill-rule="nonzero" fill-opacity="1" /><path clip-path="url(#clip080)" d="M227.458 1700.39 Q223.847 1700.39 222.018 1703.95 Q220.213 1707.49 220.213 1714.62 Q220.213 1721.73 222.018 1725.29 Q223.847 1728.84 227.458 1728.84 Q231.092 1728.84 232.898 1725.29 Q234.726 1721.73 234.726 1714.62 Q234.726 1707.49 232.898 1703.95 Q231.092 1700.39 227.458 1700.39 M227.458 1696.68 Q233.268 1696.68 236.324 1701.29 Q239.402 1705.87 239.402 1714.62 Q239.402 1723.35 236.324 1727.96 Q233.268 1732.54 227.458 1732.54 Q221.648 1732.54 218.569 1727.96 Q215.514 1723.35 215.514 1714.62 Q215.514 1705.87 218.569 1701.29 Q221.648 1696.68 227.458 1696.68 Z" fill="#000000" fill-rule="nonzero" fill-opacity="1" /><path clip-path="url(#clip080)" d="M257.62 1700.39 Q254.009 1700.39 252.18 1703.95 Q250.374 1707.49 250.374 1714.62 Q250.374 1721.73 252.18 1725.29 Q254.009 1728.84 257.62 1728.84 Q261.254 1728.84 263.06 1725.29 Q264.888 1721.73 264.888 1714.62 Q264.888 1707.49 263.06 1703.95 Q261.254 1700.39 257.62 1700.39 M257.62 1696.68 Q263.43 1696.68 266.485 1701.29 Q269.564 1705.87 269.564 1714.62 Q269.564 1723.35 266.485 1727.96 Q263.43 1732.54 257.62 1732.54 Q251.81 1732.54 248.731 1727.96 Q245.675 1723.35 245.675 1714.62 Q245.675 1705.87 248.731 1701.29 Q251.81 1696.68 257.62 1696.68 Z" fill="#000000" fill-rule="nonzero" fill-opacity="1" /><path clip-path="url(#clip080)" d="M183.222 1422.84 Q179.611 1422.84 177.782 1426.4 Q175.977 1429.95 175.977 1437.08 Q175.977 1444.18 177.782 1447.75 Q179.611 1451.29 183.222 1451.29 Q186.856 1451.29 188.662 1447.75 Q190.491 1444.18 190.491 1437.08 Q190.491 1429.95 188.662 1426.4 Q186.856 1422.84 183.222 1422.84 M183.222 1419.14 Q189.032 1419.14 192.088 1423.74 Q195.166 1428.33 195.166 1437.08 Q195.166 1445.8 192.088 1450.41 Q189.032 1454.99 183.222 1454.99 Q177.412 1454.99 174.333 1450.41 Q171.278 1445.8 171.278 1437.08 Q171.278 1428.33 174.333 1423.74 Q177.412 1419.14 183.222 1419.14 Z" fill="#000000" fill-rule="nonzero" fill-opacity="1" /><path clip-path="url(#clip080)" d="M203.384 1448.44 L208.268 1448.44 L208.268 1454.32 L203.384 1454.32 L203.384 1448.44 Z" fill="#000000" fill-rule="nonzero" fill-opacity="1" /><path clip-path="url(#clip080)" d="M222.481 1450.39 L238.8 1450.39 L238.8 1454.32 L216.856 1454.32 L216.856 1450.39 Q219.518 1447.63 224.101 1443 Q228.708 1438.35 229.888 1437.01 Q232.134 1434.48 233.013 1432.75 Q233.916 1430.99 233.916 1429.3 Q233.916 1426.54 231.972 1424.81 Q230.05 1423.07 226.949 1423.07 Q224.75 1423.07 222.296 1423.83 Q219.865 1424.6 217.088 1426.15 L217.088 1421.43 Q219.912 1420.29 222.365 1419.71 Q224.819 1419.14 226.856 1419.14 Q232.226 1419.14 235.421 1421.82 Q238.615 1424.51 238.615 1429 Q238.615 1431.13 237.805 1433.05 Q237.018 1434.95 234.912 1437.54 Q234.333 1438.21 231.231 1441.43 Q228.129 1444.62 222.481 1450.39 Z" fill="#000000" fill-rule="nonzero" fill-opacity="1" /><path clip-path="url(#clip080)" d="M248.661 1419.76 L267.018 1419.76 L267.018 1423.7 L252.944 1423.7 L252.944 1432.17 Q253.962 1431.82 254.981 1431.66 Q255.999 1431.47 257.018 1431.47 Q262.805 1431.47 266.185 1434.64 Q269.564 1437.82 269.564 1443.23 Q269.564 1448.81 266.092 1451.91 Q262.62 1454.99 256.3 1454.99 Q254.124 1454.99 251.856 1454.62 Q249.611 1454.25 247.203 1453.51 L247.203 1448.81 Q249.286 1449.95 251.509 1450.5 Q253.731 1451.06 256.208 1451.06 Q260.212 1451.06 262.55 1448.95 Q264.888 1446.84 264.888 1443.23 Q264.888 1439.62 262.55 1437.52 Q260.212 1435.41 256.208 1435.41 Q254.333 1435.41 252.458 1435.83 Q250.606 1436.24 248.661 1437.12 L248.661 1419.76 Z" fill="#000000" fill-rule="nonzero" fill-opacity="1" /><path clip-path="url(#clip080)" d="M182.227 1145.29 Q178.616 1145.29 176.787 1148.86 Q174.981 1152.4 174.981 1159.53 Q174.981 1166.63 176.787 1170.2 Q178.616 1173.74 182.227 1173.74 Q185.861 1173.74 187.666 1170.2 Q189.495 1166.63 189.495 1159.53 Q189.495 1152.4 187.666 1148.86 Q185.861 1145.29 182.227 1145.29 M182.227 1141.59 Q188.037 1141.59 191.092 1146.19 Q194.171 1150.78 194.171 1159.53 Q194.171 1168.25 191.092 1172.86 Q188.037 1177.44 182.227 1177.44 Q176.417 1177.44 173.338 1172.86 Q170.282 1168.25 170.282 1159.53 Q170.282 1150.78 173.338 1146.19 Q176.417 1141.59 182.227 1141.59 Z" fill="#000000" fill-rule="nonzero" fill-opacity="1" /><path clip-path="url(#clip080)" d="M202.389 1170.89 L207.273 1170.89 L207.273 1176.77 L202.389 1176.77 L202.389 1170.89 Z" fill="#000000" fill-rule="nonzero" fill-opacity="1" /><path clip-path="url(#clip080)" d="M217.504 1142.21 L235.861 1142.21 L235.861 1146.15 L221.787 1146.15 L221.787 1154.62 Q222.805 1154.27 223.824 1154.11 Q224.842 1153.93 225.861 1153.93 Q231.648 1153.93 235.027 1157.1 Q238.407 1160.27 238.407 1165.68 Q238.407 1171.26 234.935 1174.37 Q231.463 1177.44 225.143 1177.44 Q222.967 1177.44 220.699 1177.07 Q218.453 1176.7 216.046 1175.96 L216.046 1171.26 Q218.129 1172.4 220.351 1172.95 Q222.574 1173.51 225.051 1173.51 Q229.055 1173.51 231.393 1171.4 Q233.731 1169.3 233.731 1165.68 Q233.731 1162.07 231.393 1159.97 Q229.055 1157.86 225.051 1157.86 Q223.176 1157.86 221.301 1158.28 Q219.449 1158.69 217.504 1159.57 L217.504 1142.21 Z" fill="#000000" fill-rule="nonzero" fill-opacity="1" /><path clip-path="url(#clip080)" d="M257.62 1145.29 Q254.009 1145.29 252.18 1148.86 Q250.374 1152.4 250.374 1159.53 Q250.374 1166.63 252.18 1170.2 Q254.009 1173.74 257.62 1173.74 Q261.254 1173.74 263.06 1170.2 Q264.888 1166.63 264.888 1159.53 Q264.888 1152.4 263.06 1148.86 Q261.254 1145.29 257.62 1145.29 M257.62 1141.59 Q263.43 1141.59 266.485 1146.19 Q269.564 1150.78 269.564 1159.53 Q269.564 1168.25 266.485 1172.86 Q263.43 1177.44 257.62 1177.44 Q251.81 1177.44 248.731 1172.86 Q245.675 1168.25 245.675 1159.53 Q245.675 1150.78 248.731 1146.19 Q251.81 1141.59 257.62 1141.59 Z" fill="#000000" fill-rule="nonzero" fill-opacity="1" /><path clip-path="url(#clip080)" d="M183.222 867.743 Q179.611 867.743 177.782 871.308 Q175.977 874.849 175.977 881.979 Q175.977 889.086 177.782 892.65 Q179.611 896.192 183.222 896.192 Q186.856 896.192 188.662 892.65 Q190.491 889.086 190.491 881.979 Q190.491 874.849 188.662 871.308 Q186.856 867.743 183.222 867.743 M183.222 864.039 Q189.032 864.039 192.088 868.646 Q195.166 873.229 195.166 881.979 Q195.166 890.706 192.088 895.312 Q189.032 899.896 183.222 899.896 Q177.412 899.896 174.333 895.312 Q171.278 890.706 171.278 881.979 Q171.278 873.229 174.333 868.646 Q177.412 864.039 183.222 864.039 Z" fill="#000000" fill-rule="nonzero" fill-opacity="1" /><path clip-path="url(#clip080)" d="M203.384 893.345 L208.268 893.345 L208.268 899.224 L203.384 899.224 L203.384 893.345 Z" fill="#000000" fill-rule="nonzero" fill-opacity="1" /><path clip-path="url(#clip080)" d="M217.273 864.664 L239.495 864.664 L239.495 866.655 L226.949 899.224 L222.064 899.224 L233.87 868.6 L217.273 868.6 L217.273 864.664 Z" fill="#000000" fill-rule="nonzero" fill-opacity="1" /><path clip-path="url(#clip080)" d="M248.661 864.664 L267.018 864.664 L267.018 868.6 L252.944 868.6 L252.944 877.072 Q253.962 876.724 254.981 876.562 Q255.999 876.377 257.018 876.377 Q262.805 876.377 266.185 879.549 Q269.564 882.72 269.564 888.136 Q269.564 893.715 266.092 896.817 Q262.62 899.896 256.3 899.896 Q254.124 899.896 251.856 899.525 Q249.611 899.155 247.203 898.414 L247.203 893.715 Q249.286 894.849 251.509 895.405 Q253.731 895.96 256.208 895.96 Q260.212 895.96 262.55 893.854 Q264.888 891.748 264.888 888.136 Q264.888 884.525 262.55 882.419 Q260.212 880.312 256.208 880.312 Q254.333 880.312 252.458 880.729 Q250.606 881.146 248.661 882.025 L248.661 864.664 Z" fill="#000000" fill-rule="nonzero" fill-opacity="1" /><path clip-path="url(#clip080)" d="M173.037 617.741 L180.676 617.741 L180.676 591.375 L172.366 593.042 L172.366 588.783 L180.629 587.116 L185.305 587.116 L185.305 617.741 L192.944 617.741 L192.944 621.676 L173.037 621.676 L173.037 617.741 Z" fill="#000000" fill-rule="nonzero" fill-opacity="1" /><path clip-path="url(#clip080)" d="M202.389 615.797 L207.273 615.797 L207.273 621.676 L202.389 621.676 L202.389 615.797 Z" fill="#000000" fill-rule="nonzero" fill-opacity="1" /><path clip-path="url(#clip080)" d="M227.458 590.195 Q223.847 590.195 222.018 593.76 Q220.213 597.301 220.213 604.431 Q220.213 611.537 222.018 615.102 Q223.847 618.644 227.458 618.644 Q231.092 618.644 232.898 615.102 Q234.726 611.537 234.726 604.431 Q234.726 597.301 232.898 593.76 Q231.092 590.195 227.458 590.195 M227.458 586.491 Q233.268 586.491 236.324 591.098 Q239.402 595.681 239.402 604.431 Q239.402 613.158 236.324 617.764 Q233.268 622.347 227.458 622.347 Q221.648 622.347 218.569 617.764 Q215.514 613.158 215.514 604.431 Q215.514 595.681 218.569 591.098 Q221.648 586.491 227.458 586.491 Z" fill="#000000" fill-rule="nonzero" fill-opacity="1" /><path clip-path="url(#clip080)" d="M257.62 590.195 Q254.009 590.195 252.18 593.76 Q250.374 597.301 250.374 604.431 Q250.374 611.537 252.18 615.102 Q254.009 618.644 257.62 618.644 Q261.254 618.644 263.06 615.102 Q264.888 611.537 264.888 604.431 Q264.888 597.301 263.06 593.76 Q261.254 590.195 257.62 590.195 M257.62 586.491 Q263.43 586.491 266.485 591.098 Q269.564 595.681 269.564 604.431 Q269.564 613.158 266.485 617.764 Q263.43 622.347 257.62 622.347 Q251.81 622.347 248.731 617.764 Q245.675 613.158 245.675 604.431 Q245.675 595.681 248.731 591.098 Q251.81 586.491 257.62 586.491 Z" fill="#000000" fill-rule="nonzero" fill-opacity="1" /><path clip-path="url(#clip080)" d="M174.032 340.193 L181.671 340.193 L181.671 313.827 L173.361 315.494 L173.361 311.235 L181.625 309.568 L186.301 309.568 L186.301 340.193 L193.94 340.193 L193.94 344.128 L174.032 344.128 L174.032 340.193 Z" fill="#000000" fill-rule="nonzero" fill-opacity="1" /><path clip-path="url(#clip080)" d="M203.384 338.248 L208.268 338.248 L208.268 344.128 L203.384 344.128 L203.384 338.248 Z" fill="#000000" fill-rule="nonzero" fill-opacity="1" /><path clip-path="url(#clip080)" d="M222.481 340.193 L238.8 340.193 L238.8 344.128 L216.856 344.128 L216.856 340.193 Q219.518 337.438 224.101 332.809 Q228.708 328.156 229.888 326.813 Q232.134 324.29 233.013 322.554 Q233.916 320.795 233.916 319.105 Q233.916 316.35 231.972 314.614 Q230.05 312.878 226.949 312.878 Q224.75 312.878 222.296 313.642 Q219.865 314.406 217.088 315.957 L217.088 311.235 Q219.912 310.1 222.365 309.522 Q224.819 308.943 226.856 308.943 Q232.226 308.943 235.421 311.628 Q238.615 314.313 238.615 318.804 Q238.615 320.934 237.805 322.855 Q237.018 324.753 234.912 327.346 Q234.333 328.017 231.231 331.234 Q228.129 334.429 222.481 340.193 Z" fill="#000000" fill-rule="nonzero" fill-opacity="1" /><path clip-path="url(#clip080)" d="M248.661 309.568 L267.018 309.568 L267.018 313.503 L252.944 313.503 L252.944 321.975 Q253.962 321.628 254.981 321.466 Q255.999 321.281 257.018 321.281 Q262.805 321.281 266.185 324.452 Q269.564 327.623 269.564 333.04 Q269.564 338.619 266.092 341.721 Q262.62 344.799 256.3 344.799 Q254.124 344.799 251.856 344.429 Q249.611 344.058 247.203 343.318 L247.203 338.619 Q249.286 339.753 251.509 340.309 Q253.731 340.864 256.208 340.864 Q260.212 340.864 262.55 338.758 Q264.888 336.651 264.888 333.04 Q264.888 329.429 262.55 327.322 Q260.212 325.216 256.208 325.216 Q254.333 325.216 252.458 325.633 Q250.606 326.049 248.661 326.929 L248.661 309.568 Z" fill="#000000" fill-rule="nonzero" fill-opacity="1" /><path clip-path="url(#clip080)" d="M73.747 1119.4 L79.2215 1119.4 Q77.8528 1121.88 77.1844 1124.39 Q76.4842 1126.88 76.4842 1129.42 Q76.4842 1135.12 80.1127 1138.27 Q83.7093 1141.42 90.2341 1141.42 Q96.759 1141.42 100.387 1138.27 Q103.984 1135.12 103.984 1129.42 Q103.984 1126.88 103.316 1124.39 Q102.615 1121.88 101.247 1119.4 L106.658 1119.4 Q107.803 1121.85 108.376 1124.49 Q108.949 1127.1 108.949 1130.06 Q108.949 1138.11 103.889 1142.85 Q98.8278 1147.6 90.2341 1147.6 Q81.5131 1147.6 76.516 1142.82 Q71.519 1138.02 71.519 1129.68 Q71.519 1126.97 72.0919 1124.39 Q72.633 1121.81 73.747 1119.4 Z" fill="#000000" fill-rule="nonzero" fill-opacity="1" /><path clip-path="url(#clip080)" d="M60.5063 1115.54 L60.5063 1075.35 L65.9171 1075.35 L65.9171 1092.21 L108.026 1092.21 L108.026 1098.68 L65.9171 1098.68 L65.9171 1115.54 L60.5063 1115.54 Z" fill="#000000" fill-rule="nonzero" fill-opacity="1" /><path clip-path="url(#clip080)" d="M86.5102 1039.76 L108.026 1039.76 L108.026 1045.62 L86.7012 1045.62 Q81.6404 1045.62 79.126 1047.59 Q76.6115 1049.56 76.6115 1053.51 Q76.6115 1058.25 79.6352 1060.99 Q82.6589 1063.73 87.8788 1063.73 L108.026 1063.73 L108.026 1069.62 L72.3783 1069.62 L72.3783 1063.73 L77.9165 1063.73 Q74.7018 1061.63 73.1104 1058.79 Q71.519 1055.93 71.519 1052.21 Q71.519 1046.06 75.3384 1042.91 Q79.126 1039.76 86.5102 1039.76 Z" fill="#000000" fill-rule="nonzero" fill-opacity="1" /><path clip-path="url(#clip080)" d="M60.5063 1034.41 L60.5063 994.214 L65.9171 994.214 L65.9171 1011.08 L108.026 1011.08 L108.026 1017.54 L65.9171 1017.54 L65.9171 1034.41 L60.5063 1034.41 Z" fill="#000000" fill-rule="nonzero" fill-opacity="1" /><path clip-path="url(#clip080)" d="M58.5011 968.083 L58.5011 954.588 L63.0526 954.588 L63.0526 962.226 L112.069 962.226 L112.069 954.588 L116.62 954.588 L116.62 968.083 L58.5011 968.083 Z" fill="#000000" fill-rule="nonzero" fill-opacity="1" /><path clip-path="url(#clip080)" d="M86.5102 912.478 L108.026 912.478 L108.026 918.335 L86.7012 918.335 Q81.6404 918.335 79.126 920.308 Q76.6115 922.282 76.6115 926.228 Q76.6115 930.971 79.6352 933.708 Q82.6589 936.445 87.8788 936.445 L108.026 936.445 L108.026 942.334 L72.3783 942.334 L72.3783 936.445 L77.9165 936.445 Q74.7018 934.345 73.1104 931.512 Q71.519 928.647 71.519 924.923 Q71.519 918.781 75.3384 915.63 Q79.126 912.478 86.5102 912.478 Z" fill="#000000" fill-rule="nonzero" fill-opacity="1" /><path clip-path="url(#clip080)" d="M89.7885 877.34 Q83.4228 877.34 79.9217 879.982 Q76.4206 882.591 76.4206 887.334 Q76.4206 892.045 79.9217 894.686 Q83.4228 897.296 89.7885 897.296 Q96.1224 897.296 99.6236 894.686 Q103.125 892.045 103.125 887.334 Q103.125 882.591 99.6236 879.982 Q96.1224 877.34 89.7885 877.34 M103.602 871.483 Q112.705 871.483 117.129 875.526 Q121.585 879.568 121.585 887.907 Q121.585 890.994 121.108 893.731 Q120.662 896.469 119.707 899.047 L114.01 899.047 Q115.411 896.469 116.079 893.954 Q116.747 891.44 116.747 888.83 Q116.747 883.069 113.724 880.204 Q110.732 877.34 104.652 877.34 L101.756 877.34 Q104.907 879.154 106.467 881.987 Q108.026 884.819 108.026 888.766 Q108.026 895.323 103.029 899.333 Q98.0321 903.344 89.7885 903.344 Q81.5131 903.344 76.516 899.333 Q71.519 895.323 71.519 888.766 Q71.519 884.819 73.0786 881.987 Q74.6382 879.154 77.7892 877.34 L72.3783 877.34 L72.3783 871.483 L103.602 871.483 Z" fill="#000000" fill-rule="nonzero" fill-opacity="1" /><path clip-path="url(#clip080)" d="M60.5063 849.012 L60.5063 843.602 L114.074 860.152 L114.074 865.563 L60.5063 849.012 Z" fill="#000000" fill-rule="nonzero" fill-opacity="1" /><path clip-path="url(#clip080)" d="M79.2215 809.704 Q75.2747 807.508 73.3968 804.452 Q71.519 801.397 71.519 797.259 Q71.519 791.689 75.4339 788.665 Q79.3169 785.642 86.5102 785.642 L108.026 785.642 L108.026 791.53 L86.7012 791.53 Q81.5768 791.53 79.0941 793.344 Q76.6115 795.159 76.6115 798.882 Q76.6115 803.434 79.6352 806.076 Q82.6589 808.717 87.8788 808.717 L108.026 808.717 L108.026 814.606 L86.7012 814.606 Q81.5449 814.606 79.0941 816.42 Q76.6115 818.234 76.6115 822.022 Q76.6115 826.51 79.6671 829.151 Q82.6908 831.793 87.8788 831.793 L108.026 831.793 L108.026 837.681 L72.3783 837.681 L72.3783 831.793 L77.9165 831.793 Q74.6382 829.788 73.0786 826.987 Q71.519 824.186 71.519 820.335 Q71.519 816.452 73.4923 813.746 Q75.4657 811.009 79.2215 809.704 Z" fill="#000000" fill-rule="nonzero" fill-opacity="1" /><path clip-path="url(#clip080)" d="M60.5063 773.706 L60.5063 767.277 L102.615 767.277 L102.615 744.137 L108.026 744.137 L108.026 773.706 L60.5063 773.706 Z" fill="#000000" fill-rule="nonzero" fill-opacity="1" /><path clip-path="url(#clip080)" d="M58.5011 723.958 L116.62 723.958 L116.62 737.453 L112.069 737.453 L112.069 729.846 L63.0526 729.846 L63.0526 737.453 L58.5011 737.453 L58.5011 723.958 Z" fill="#000000" fill-rule="nonzero" fill-opacity="1" /><circle clip-path="url(#clip082)" cx="398.188" cy="1281.61" r="21.6" fill="#ff0000" fill-rule="evenodd" fill-opacity="1" stroke="#000000" stroke-opacity="1" stroke-width="6"/>
<circle clip-path="url(#clip082)" cx="539.8" cy="315.746" r="21.6" fill="#ff0000" fill-rule="evenodd" fill-opacity="1" stroke="#000000" stroke-opacity="1" stroke-width="6"/>
<circle clip-path="url(#clip082)" cx="574.229" cy="723.187" r="21.6" fill="#ff0000" fill-rule="evenodd" fill-opacity="1" stroke="#000000" stroke-opacity="1" stroke-width="6"/>
<circle clip-path="url(#clip082)" cx="880.19" cy="898.597" r="21.6" fill="#ff0000" fill-rule="evenodd" fill-opacity="1" stroke="#000000" stroke-opacity="1" stroke-width="6"/>
<circle clip-path="url(#clip082)" cx="1201.31" cy="975.201" r="21.6" fill="#ff0000" fill-rule="evenodd" fill-opacity="1" stroke="#000000" stroke-opacity="1" stroke-width="6"/>
<circle clip-path="url(#clip082)" cx="1426.07" cy="1010.73" r="21.6" fill="#ff0000" fill-rule="evenodd" fill-opacity="1" stroke="#000000" stroke-opacity="1" stroke-width="6"/>
<circle clip-path="url(#clip082)" cx="1505.32" cy="1005.18" r="21.6" fill="#ff0000" fill-rule="evenodd" fill-opacity="1" stroke="#000000" stroke-opacity="1" stroke-width="6"/>
<circle clip-path="url(#clip082)" cx="1822.97" cy="1222.77" r="21.6" fill="#ff0000" fill-rule="evenodd" fill-opacity="1" stroke="#000000" stroke-opacity="1" stroke-width="6"/>
<circle clip-path="url(#clip082)" cx="2127.42" cy="1374.87" r="21.6" fill="#ff0000" fill-rule="evenodd" fill-opacity="1" stroke="#000000" stroke-opacity="1" stroke-width="6"/>
<circle clip-path="url(#clip082)" cx="2439.88" cy="1462.58" r="21.6" fill="#ff0000" fill-rule="evenodd" fill-opacity="1" stroke="#000000" stroke-opacity="1" stroke-width="6"/>
<circle clip-path="url(#clip082)" cx="2751.47" cy="1540.29" r="21.6" fill="#ff0000" fill-rule="evenodd" fill-opacity="1" stroke="#000000" stroke-opacity="1" stroke-width="6"/>
<polyline clip-path="url(#clip082)" style="stroke:#0000ff; stroke-linecap:round; stroke-linejoin:round; stroke-width:8; stroke-opacity:1; fill:none" points="396.023,1714.59 409.015,343.991 422.007,156.965 434.999,163.283 447.991,200.327 460.982,241.41 473.974,282.173 486.966,321.918 499.958,360.55 512.95,398.066 525.942,434.476 538.934,469.791 551.926,504.014 564.918,537.148 577.91,569.189 590.902,600.131 603.894,629.963 616.886,658.669 629.878,686.233 642.87,712.631 655.862,737.839 668.854,761.831 681.846,784.577 694.838,806.048 707.83,826.214 720.822,845.044 733.814,862.509 746.806,878.583 759.798,893.244 772.79,906.471 785.782,918.252 798.774,928.581 811.766,937.458 824.758,944.894 837.749,950.908 850.741,955.53 863.733,958.802 876.725,960.777 889.717,961.52 902.709,961.107 915.701,959.628 928.693,957.182 941.685,953.878 954.677,949.837 967.669,945.182 980.661,940.046 993.653,934.564 1006.65,928.873 1019.64,923.108 1032.63,917.403 1045.62,911.883 1058.61,906.668 1071.6,901.867 1084.6,897.579 1097.59,893.888 1110.58,890.864 1123.57,888.564 1136.56,887.028 1149.56,886.283 1162.55,886.339 1175.54,887.195 1188.53,888.837 1201.52,891.239 1214.52,894.366 1227.51,898.177 1240.5,902.623 1253.49,907.655 1266.48,913.216 1279.48,919.252 1292.47,925.71 1305.46,932.535 1318.45,939.677 1331.44,947.09 1344.44,954.729 1357.43,962.554 1370.42,970.529 1383.41,978.622 1396.4,986.805 1409.4,995.053 1422.39,1003.34 1435.38,1011.66 1448.37,1019.98 1461.36,1028.3 1474.36,1036.61 1487.35,1044.88 1500.34,1053.12 1513.33,1061.32 1526.32,1069.47 1539.32,1077.57 1552.31,1085.61 1565.3,1093.59 1578.29,1101.5 1591.28,1109.35 1604.28,1117.13 1617.27,1124.83 1630.26,1132.46 1643.25,1140.02 1656.24,1147.51 1669.24,1154.91 1682.23,1162.24 1695.22,1169.49 1708.21,1176.67 1721.2,1183.76 1734.2,1190.78 1747.19,1197.71 1760.18,1204.57 1773.17,1211.35 1786.16,1218.05 1799.15,1224.67 1812.15,1231.22 1825.14,1237.68 1838.13,1244.07 1851.12,1250.38 1864.11,1256.61 1877.11,1262.77 1890.1,1268.85 1903.09,1274.86 1916.08,1280.79 1929.07,1286.65 1942.07,1292.43 1955.06,1298.14 1968.05,1303.78 1981.04,1309.35 1994.03,1314.84 2007.03,1320.27 2020.02,1325.62 2033.01,1330.91 2046,1336.13 2058.99,1341.28 2071.99,1346.36 2084.98,1351.38 2097.97,1356.33 2110.96,1361.22 2123.95,1366.04 2136.95,1370.8 2149.94,1375.49 2162.93,1380.13 2175.92,1384.7 2188.91,1389.22 2201.91,1393.67 2214.9,1398.06 2227.89,1402.4 2240.88,1406.68 2253.87,1410.9 2266.87,1415.06 2279.86,1419.17 2292.85,1423.22 2305.84,1427.22 2318.83,1431.17 2331.83,1435.06 2344.82,1438.9 2357.81,1442.69 2370.8,1446.43 2383.79,1450.12 2396.79,1453.75 2409.78,1457.34 2422.77,1460.88 2435.76,1464.37 2448.75,1467.82 2461.75,1471.22 2474.74,1474.57 2487.73,1477.88 2500.72,1481.14 2513.71,1484.35 2526.7,1487.53 2539.7,1490.66 2552.69,1493.75 2565.68,1496.79 2578.67,1499.8 2591.66,1502.76 2604.66,1505.68 2617.65,1508.57 2630.64,1511.41 2643.63,1514.21 2656.62,1516.98 2669.62,1519.71 2682.61,1522.4 2695.6,1525.06 2708.59,1527.67 2721.58,1530.26 2734.58,1532.8 2747.57,1535.31 2760.56,1537.79 2773.55,1540.24 2786.54,1542.65 2799.54,1545.02 2812.53,1547.37 2825.52,1549.68 2838.51,1551.96 2851.5,1554.21 2864.5,1556.43 2877.49,1558.62 2890.48,1560.77 2903.47,1562.9 2916.46,1565 2929.46,1567.07 2942.45,1569.11 2955.44,1571.13 2968.43,1573.11 2981.42,1575.07 2994.42,1577 3007.41,1578.91 3011.31,1579.47 "/>
</svg>
