<?xml version="1.0" encoding="utf-8"?>
<svg xmlns="http://www.w3.org/2000/svg" xmlns:xlink="http://www.w3.org/1999/xlink" width="600" height="400" viewBox="0 0 2400 1600">
<defs>
  <clipPath id="clip220">
    <rect x="0" y="0" width="2400" height="1600"/>
  </clipPath>
</defs>
<path clip-path="url(#clip220)" d="M0 1600 L2400 1600 L2400 0 L0 0  Z" fill="#ffffff" fill-rule="evenodd" fill-opacity="1"/>
<defs>
  <clipPath id="clip221">
    <rect x="219" y="123" width="2134" height="1301"/>
  </clipPath>
</defs>
<path clip-path="url(#clip220)" d="M219.38 1423.18 L2352.76 1423.18 L2352.76 123.472 L219.38 123.472  Z" fill="#ffffff" fill-rule="evenodd" fill-opacity="1"/>
<polyline clip-path="url(#clip221)" style="stroke:#000000; stroke-linecap:round; stroke-linejoin:round; stroke-width:2; stroke-opacity:0.1; fill:none" points="279.759,1423.18 279.759,123.472 "/>
<polyline clip-path="url(#clip221)" style="stroke:#000000; stroke-linecap:round; stroke-linejoin:round; stroke-width:2; stroke-opacity:0.1; fill:none" points="716.399,1423.18 716.399,123.472 "/>
<polyline clip-path="url(#clip221)" style="stroke:#000000; stroke-linecap:round; stroke-linejoin:round; stroke-width:2; stroke-opacity:0.1; fill:none" points="1153.04,1423.18 1153.04,123.472 "/>
<polyline clip-path="url(#clip221)" style="stroke:#000000; stroke-linecap:round; stroke-linejoin:round; stroke-width:2; stroke-opacity:0.1; fill:none" points="1589.68,1423.18 1589.68,123.472 "/>
<polyline clip-path="url(#clip221)" style="stroke:#000000; stroke-linecap:round; stroke-linejoin:round; stroke-width:2; stroke-opacity:0.1; fill:none" points="2026.32,1423.18 2026.32,123.472 "/>
<polyline clip-path="url(#clip221)" style="stroke:#000000; stroke-linecap:round; stroke-linejoin:round; stroke-width:2; stroke-opacity:0.1; fill:none" points="219.38,1386.4 2352.76,1386.4 "/>
<polyline clip-path="url(#clip221)" style="stroke:#000000; stroke-linecap:round; stroke-linejoin:round; stroke-width:2; stroke-opacity:0.1; fill:none" points="219.38,1056.23 2352.76,1056.23 "/>
<polyline clip-path="url(#clip221)" style="stroke:#000000; stroke-linecap:round; stroke-linejoin:round; stroke-width:2; stroke-opacity:0.1; fill:none" points="219.38,726.058 2352.76,726.058 "/>
<polyline clip-path="url(#clip221)" style="stroke:#000000; stroke-linecap:round; stroke-linejoin:round; stroke-width:2; stroke-opacity:0.1; fill:none" points="219.38,395.89 2352.76,395.89 "/>
<polyline clip-path="url(#clip220)" style="stroke:#000000; stroke-linecap:round; stroke-linejoin:round; stroke-width:4; stroke-opacity:1; fill:none" points="219.38,1423.18 2352.76,1423.18 "/>
<polyline clip-path="url(#clip220)" style="stroke:#000000; stroke-linecap:round; stroke-linejoin:round; stroke-width:4; stroke-opacity:1; fill:none" points="279.759,1423.18 279.759,1404.28 "/>
<polyline clip-path="url(#clip220)" style="stroke:#000000; stroke-linecap:round; stroke-linejoin:round; stroke-width:4; stroke-opacity:1; fill:none" points="716.399,1423.18 716.399,1404.28 "/>
<polyline clip-path="url(#clip220)" style="stroke:#000000; stroke-linecap:round; stroke-linejoin:round; stroke-width:4; stroke-opacity:1; fill:none" points="1153.04,1423.18 1153.04,1404.28 "/>
<polyline clip-path="url(#clip220)" style="stroke:#000000; stroke-linecap:round; stroke-linejoin:round; stroke-width:4; stroke-opacity:1; fill:none" points="1589.68,1423.18 1589.68,1404.28 "/>
<polyline clip-path="url(#clip220)" style="stroke:#000000; stroke-linecap:round; stroke-linejoin:round; stroke-width:4; stroke-opacity:1; fill:none" points="2026.32,1423.18 2026.32,1404.28 "/>
<path clip-path="url(#clip220)" d="M279.759 1454.1 Q276.148 1454.1 274.319 1457.66 Q272.513 1461.2 272.513 1468.33 Q272.513 1475.44 274.319 1479.01 Q276.148 1482.55 279.759 1482.55 Q283.393 1482.55 285.199 1479.01 Q287.027 1475.44 287.027 1468.33 Q287.027 1461.2 285.199 1457.66 Q283.393 1454.1 279.759 1454.1 M279.759 1450.39 Q285.569 1450.39 288.624 1455 Q291.703 1459.58 291.703 1468.33 Q291.703 1477.06 288.624 1481.67 Q285.569 1486.25 279.759 1486.25 Q273.949 1486.25 270.87 1481.67 Q267.814 1477.06 267.814 1468.33 Q267.814 1459.58 270.87 1455 Q273.949 1450.39 279.759 1450.39 Z" fill="#000000" fill-rule="nonzero" fill-opacity="1" /><path clip-path="url(#clip220)" d="M695.67 1481.64 L711.989 1481.64 L711.989 1485.58 L690.045 1485.58 L690.045 1481.64 Q692.707 1478.89 697.29 1474.26 Q701.896 1469.61 703.077 1468.27 Q705.322 1465.74 706.202 1464.01 Q707.105 1462.25 707.105 1460.56 Q707.105 1457.8 705.16 1456.07 Q703.239 1454.33 700.137 1454.33 Q697.938 1454.33 695.484 1455.09 Q693.054 1455.86 690.276 1457.41 L690.276 1452.69 Q693.1 1451.55 695.554 1450.97 Q698.007 1450.39 700.044 1450.39 Q705.415 1450.39 708.609 1453.08 Q711.804 1455.77 711.804 1460.26 Q711.804 1462.39 710.994 1464.31 Q710.206 1466.2 708.1 1468.8 Q707.521 1469.47 704.419 1472.69 Q701.318 1475.88 695.67 1481.64 Z" fill="#000000" fill-rule="nonzero" fill-opacity="1" /><path clip-path="url(#clip220)" d="M721.85 1451.02 L740.206 1451.02 L740.206 1454.96 L726.132 1454.96 L726.132 1463.43 Q727.151 1463.08 728.169 1462.92 Q729.188 1462.73 730.206 1462.73 Q735.993 1462.73 739.373 1465.9 Q742.753 1469.08 742.753 1474.49 Q742.753 1480.07 739.28 1483.17 Q735.808 1486.25 729.489 1486.25 Q727.313 1486.25 725.044 1485.88 Q722.799 1485.51 720.392 1484.77 L720.392 1480.07 Q722.475 1481.2 724.697 1481.76 Q726.919 1482.32 729.396 1482.32 Q733.401 1482.32 735.739 1480.21 Q738.077 1478.1 738.077 1474.49 Q738.077 1470.88 735.739 1468.77 Q733.401 1466.67 729.396 1466.67 Q727.521 1466.67 725.646 1467.08 Q723.794 1467.5 721.85 1468.38 L721.85 1451.02 Z" fill="#000000" fill-rule="nonzero" fill-opacity="1" /><path clip-path="url(#clip220)" d="M1127.74 1451.02 L1146.09 1451.02 L1146.09 1454.96 L1132.02 1454.96 L1132.02 1463.43 Q1133.04 1463.08 1134.06 1462.92 Q1135.08 1462.73 1136.09 1462.73 Q1141.88 1462.73 1145.26 1465.9 Q1148.64 1469.08 1148.64 1474.49 Q1148.64 1480.07 1145.17 1483.17 Q1141.7 1486.25 1135.38 1486.25 Q1133.2 1486.25 1130.93 1485.88 Q1128.69 1485.51 1126.28 1484.77 L1126.28 1480.07 Q1128.36 1481.2 1130.58 1481.76 Q1132.81 1482.32 1135.28 1482.32 Q1139.29 1482.32 1141.63 1480.21 Q1143.96 1478.1 1143.96 1474.49 Q1143.96 1470.88 1141.63 1468.77 Q1139.29 1466.67 1135.28 1466.67 Q1133.41 1466.67 1131.53 1467.08 Q1129.68 1467.5 1127.74 1468.38 L1127.74 1451.02 Z" fill="#000000" fill-rule="nonzero" fill-opacity="1" /><path clip-path="url(#clip220)" d="M1167.85 1454.1 Q1164.24 1454.1 1162.41 1457.66 Q1160.61 1461.2 1160.61 1468.33 Q1160.61 1475.44 1162.41 1479.01 Q1164.24 1482.55 1167.85 1482.55 Q1171.49 1482.55 1173.29 1479.01 Q1175.12 1475.44 1175.12 1468.33 Q1175.12 1461.2 1173.29 1457.66 Q1171.49 1454.1 1167.85 1454.1 M1167.85 1450.39 Q1173.66 1450.39 1176.72 1455 Q1179.8 1459.58 1179.8 1468.33 Q1179.8 1477.06 1176.72 1481.67 Q1173.66 1486.25 1167.85 1486.25 Q1162.04 1486.25 1158.96 1481.67 Q1155.91 1477.06 1155.91 1468.33 Q1155.91 1459.58 1158.96 1455 Q1162.04 1450.39 1167.85 1450.39 Z" fill="#000000" fill-rule="nonzero" fill-opacity="1" /><path clip-path="url(#clip220)" d="M1563.53 1451.02 L1585.75 1451.02 L1585.75 1453.01 L1573.21 1485.58 L1568.32 1485.58 L1580.13 1454.96 L1563.53 1454.96 L1563.53 1451.02 Z" fill="#000000" fill-rule="nonzero" fill-opacity="1" /><path clip-path="url(#clip220)" d="M1594.92 1451.02 L1613.28 1451.02 L1613.28 1454.96 L1599.2 1454.96 L1599.2 1463.43 Q1600.22 1463.08 1601.24 1462.92 Q1602.26 1462.73 1603.28 1462.73 Q1609.06 1462.73 1612.44 1465.9 Q1615.82 1469.08 1615.82 1474.49 Q1615.82 1480.07 1612.35 1483.17 Q1608.88 1486.25 1602.56 1486.25 Q1600.38 1486.25 1598.12 1485.88 Q1595.87 1485.51 1593.46 1484.77 L1593.46 1480.07 Q1595.55 1481.2 1597.77 1481.76 Q1599.99 1482.32 1602.47 1482.32 Q1606.47 1482.32 1608.81 1480.21 Q1611.15 1478.1 1611.15 1474.49 Q1611.15 1470.88 1608.81 1468.77 Q1606.47 1466.67 1602.47 1466.67 Q1600.59 1466.67 1598.72 1467.08 Q1596.87 1467.5 1594.92 1468.38 L1594.92 1451.02 Z" fill="#000000" fill-rule="nonzero" fill-opacity="1" /><path clip-path="url(#clip220)" d="M1985.92 1481.64 L1993.56 1481.64 L1993.56 1455.28 L1985.25 1456.95 L1985.25 1452.69 L1993.52 1451.02 L1998.19 1451.02 L1998.19 1481.64 L2005.83 1481.64 L2005.83 1485.58 L1985.92 1485.58 L1985.92 1481.64 Z" fill="#000000" fill-rule="nonzero" fill-opacity="1" /><path clip-path="url(#clip220)" d="M2025.28 1454.1 Q2021.67 1454.1 2019.84 1457.66 Q2018.03 1461.2 2018.03 1468.33 Q2018.03 1475.44 2019.84 1479.01 Q2021.67 1482.55 2025.28 1482.55 Q2028.91 1482.55 2030.72 1479.01 Q2032.54 1475.44 2032.54 1468.33 Q2032.54 1461.2 2030.72 1457.66 Q2028.91 1454.1 2025.28 1454.1 M2025.28 1450.39 Q2031.09 1450.39 2034.14 1455 Q2037.22 1459.58 2037.22 1468.33 Q2037.22 1477.06 2034.14 1481.67 Q2031.09 1486.25 2025.28 1486.25 Q2019.47 1486.25 2016.39 1481.67 Q2013.33 1477.06 2013.33 1468.33 Q2013.33 1459.58 2016.39 1455 Q2019.47 1450.39 2025.28 1450.39 Z" fill="#000000" fill-rule="nonzero" fill-opacity="1" /><path clip-path="url(#clip220)" d="M2055.44 1454.1 Q2051.83 1454.1 2050 1457.66 Q2048.19 1461.2 2048.19 1468.33 Q2048.19 1475.44 2050 1479.01 Q2051.83 1482.55 2055.44 1482.55 Q2059.07 1482.55 2060.88 1479.01 Q2062.71 1475.44 2062.71 1468.33 Q2062.71 1461.2 2060.88 1457.66 Q2059.07 1454.1 2055.44 1454.1 M2055.44 1450.39 Q2061.25 1450.39 2064.3 1455 Q2067.38 1459.58 2067.38 1468.33 Q2067.38 1477.06 2064.3 1481.67 Q2061.25 1486.25 2055.44 1486.25 Q2049.63 1486.25 2046.55 1481.67 Q2043.49 1477.06 2043.49 1468.33 Q2043.49 1459.58 2046.55 1455 Q2049.63 1450.39 2055.44 1450.39 Z" fill="#000000" fill-rule="nonzero" fill-opacity="1" /><path clip-path="url(#clip220)" d="M1152.56 1520.52 L1192.76 1520.52 L1192.76 1525.93 L1175.89 1525.93 L1175.89 1568.04 L1169.43 1568.04 L1169.43 1525.93 L1152.56 1525.93 L1152.56 1520.52 Z" fill="#000000" fill-rule="nonzero" fill-opacity="1" /><path clip-path="url(#clip220)" d="M1196.71 1532.4 L1202.57 1532.4 L1202.57 1568.04 L1196.71 1568.04 L1196.71 1532.4 M1196.71 1518.52 L1202.57 1518.52 L1202.57 1525.93 L1196.71 1525.93 L1196.71 1518.52 Z" fill="#000000" fill-rule="nonzero" fill-opacity="1" /><path clip-path="url(#clip220)" d="M1242.57 1539.24 Q1244.77 1535.29 1247.83 1533.41 Q1250.88 1531.54 1255.02 1531.54 Q1260.59 1531.54 1263.61 1535.45 Q1266.64 1539.33 1266.64 1546.53 L1266.64 1568.04 L1260.75 1568.04 L1260.75 1546.72 Q1260.75 1541.59 1258.93 1539.11 Q1257.12 1536.63 1253.4 1536.63 Q1248.84 1536.63 1246.2 1539.65 Q1243.56 1542.68 1243.56 1547.9 L1243.56 1568.04 L1237.67 1568.04 L1237.67 1546.72 Q1237.67 1541.56 1235.86 1539.11 Q1234.04 1536.63 1230.26 1536.63 Q1225.77 1536.63 1223.13 1539.68 Q1220.49 1542.71 1220.49 1547.9 L1220.49 1568.04 L1214.6 1568.04 L1214.6 1532.4 L1220.49 1532.4 L1220.49 1537.93 Q1222.49 1534.66 1225.29 1533.1 Q1228.09 1531.54 1231.94 1531.54 Q1235.83 1531.54 1238.53 1533.51 Q1241.27 1535.48 1242.57 1539.24 Z" fill="#000000" fill-rule="nonzero" fill-opacity="1" /><path clip-path="url(#clip220)" d="M1308.81 1548.76 L1308.81 1551.62 L1281.88 1551.62 Q1282.26 1557.67 1285.51 1560.85 Q1288.79 1564 1294.61 1564 Q1297.99 1564 1301.14 1563.17 Q1304.32 1562.35 1307.44 1560.69 L1307.44 1566.23 Q1304.29 1567.57 1300.98 1568.27 Q1297.67 1568.97 1294.26 1568.97 Q1285.73 1568.97 1280.74 1564 Q1275.77 1559.04 1275.77 1550.57 Q1275.77 1541.82 1280.48 1536.69 Q1285.22 1531.54 1293.25 1531.54 Q1300.44 1531.54 1304.61 1536.18 Q1308.81 1540.8 1308.81 1548.76 M1302.95 1547.04 Q1302.89 1542.23 1300.25 1539.37 Q1297.64 1536.5 1293.31 1536.5 Q1288.41 1536.5 1285.45 1539.27 Q1282.52 1542.04 1282.07 1547.07 L1302.95 1547.04 Z" fill="#000000" fill-rule="nonzero" fill-opacity="1" /><path clip-path="url(#clip220)" d="M1353.21 1518.58 Q1348.95 1525.9 1346.88 1533.06 Q1344.81 1540.23 1344.81 1547.58 Q1344.81 1554.93 1346.88 1562.16 Q1348.98 1569.35 1353.21 1576.64 L1348.12 1576.64 Q1343.34 1569.16 1340.96 1561.93 Q1338.6 1554.71 1338.6 1547.58 Q1338.6 1540.48 1340.96 1533.29 Q1343.31 1526.09 1348.12 1518.58 L1353.21 1518.58 Z" fill="#000000" fill-rule="nonzero" fill-opacity="1" /><path clip-path="url(#clip220)" d="M1394.21 1546.53 L1394.21 1568.04 L1388.35 1568.04 L1388.35 1546.72 Q1388.35 1541.66 1386.38 1539.14 Q1384.4 1536.63 1380.46 1536.63 Q1375.71 1536.63 1372.98 1539.65 Q1370.24 1542.68 1370.24 1547.9 L1370.24 1568.04 L1364.35 1568.04 L1364.35 1518.52 L1370.24 1518.52 L1370.24 1537.93 Q1372.34 1534.72 1375.17 1533.13 Q1378.04 1531.54 1381.76 1531.54 Q1387.9 1531.54 1391.05 1535.36 Q1394.21 1539.14 1394.21 1546.53 Z" fill="#000000" fill-rule="nonzero" fill-opacity="1" /><path clip-path="url(#clip220)" d="M1404.96 1518.58 L1410.06 1518.58 Q1414.83 1526.09 1417.19 1533.29 Q1419.57 1540.48 1419.57 1547.58 Q1419.57 1554.71 1417.19 1561.93 Q1414.83 1569.16 1410.06 1576.64 L1404.96 1576.64 Q1409.2 1569.35 1411.27 1562.16 Q1413.37 1554.93 1413.37 1547.58 Q1413.37 1540.23 1411.27 1533.06 Q1409.2 1525.9 1404.96 1518.58 Z" fill="#000000" fill-rule="nonzero" fill-opacity="1" /><polyline clip-path="url(#clip220)" style="stroke:#000000; stroke-linecap:round; stroke-linejoin:round; stroke-width:4; stroke-opacity:1; fill:none" points="219.38,1423.18 219.38,123.472 "/>
<polyline clip-path="url(#clip220)" style="stroke:#000000; stroke-linecap:round; stroke-linejoin:round; stroke-width:4; stroke-opacity:1; fill:none" points="219.38,1386.4 238.278,1386.4 "/>
<polyline clip-path="url(#clip220)" style="stroke:#000000; stroke-linecap:round; stroke-linejoin:round; stroke-width:4; stroke-opacity:1; fill:none" points="219.38,1056.23 238.278,1056.23 "/>
<polyline clip-path="url(#clip220)" style="stroke:#000000; stroke-linecap:round; stroke-linejoin:round; stroke-width:4; stroke-opacity:1; fill:none" points="219.38,726.058 238.278,726.058 "/>
<polyline clip-path="url(#clip220)" style="stroke:#000000; stroke-linecap:round; stroke-linejoin:round; stroke-width:4; stroke-opacity:1; fill:none" points="219.38,395.89 238.278,395.89 "/>
<path clip-path="url(#clip220)" d="M126.205 1372.19 Q122.593 1372.19 120.765 1375.76 Q118.959 1379.3 118.959 1386.43 Q118.959 1393.54 120.765 1397.1 Q122.593 1400.64 126.205 1400.64 Q129.839 1400.64 131.644 1397.1 Q133.473 1393.54 133.473 1386.43 Q133.473 1379.3 131.644 1375.76 Q129.839 1372.19 126.205 1372.19 M126.205 1368.49 Q132.015 1368.49 135.07 1373.1 Q138.149 1377.68 138.149 1386.43 Q138.149 1395.16 135.07 1399.76 Q132.015 1404.35 126.205 1404.35 Q120.394 1404.35 117.316 1399.76 Q114.26 1395.16 114.26 1386.43 Q114.26 1377.68 117.316 1373.1 Q120.394 1368.49 126.205 1368.49 Z" fill="#000000" fill-rule="nonzero" fill-opacity="1" /><path clip-path="url(#clip220)" d="M146.366 1397.8 L151.251 1397.8 L151.251 1403.68 L146.366 1403.68 L146.366 1397.8 Z" fill="#000000" fill-rule="nonzero" fill-opacity="1" /><path clip-path="url(#clip220)" d="M171.436 1372.19 Q167.825 1372.19 165.996 1375.76 Q164.19 1379.3 164.19 1386.43 Q164.19 1393.54 165.996 1397.1 Q167.825 1400.64 171.436 1400.64 Q175.07 1400.64 176.876 1397.1 Q178.704 1393.54 178.704 1386.43 Q178.704 1379.3 176.876 1375.76 Q175.07 1372.19 171.436 1372.19 M171.436 1368.49 Q177.246 1368.49 180.301 1373.1 Q183.38 1377.68 183.38 1386.43 Q183.38 1395.16 180.301 1399.76 Q177.246 1404.35 171.436 1404.35 Q165.626 1404.35 162.547 1399.76 Q159.491 1395.16 159.491 1386.43 Q159.491 1377.68 162.547 1373.1 Q165.626 1368.49 171.436 1368.49 Z" fill="#000000" fill-rule="nonzero" fill-opacity="1" /><path clip-path="url(#clip220)" d="M127.2 1042.03 Q123.589 1042.03 121.76 1045.59 Q119.955 1049.13 119.955 1056.26 Q119.955 1063.37 121.76 1066.93 Q123.589 1070.47 127.2 1070.47 Q130.834 1070.47 132.64 1066.93 Q134.468 1063.37 134.468 1056.26 Q134.468 1049.13 132.64 1045.59 Q130.834 1042.03 127.2 1042.03 M127.2 1038.32 Q133.01 1038.32 136.066 1042.93 Q139.144 1047.51 139.144 1056.26 Q139.144 1064.99 136.066 1069.59 Q133.01 1074.18 127.2 1074.18 Q121.39 1074.18 118.311 1069.59 Q115.256 1064.99 115.256 1056.26 Q115.256 1047.51 118.311 1042.93 Q121.39 1038.32 127.2 1038.32 Z" fill="#000000" fill-rule="nonzero" fill-opacity="1" /><path clip-path="url(#clip220)" d="M147.362 1067.63 L152.246 1067.63 L152.246 1073.51 L147.362 1073.51 L147.362 1067.63 Z" fill="#000000" fill-rule="nonzero" fill-opacity="1" /><path clip-path="url(#clip220)" d="M162.477 1038.95 L180.834 1038.95 L180.834 1042.88 L166.76 1042.88 L166.76 1051.35 Q167.778 1051.01 168.797 1050.85 Q169.815 1050.66 170.834 1050.66 Q176.621 1050.66 180.001 1053.83 Q183.38 1057 183.38 1062.42 Q183.38 1068 179.908 1071.1 Q176.436 1074.18 170.116 1074.18 Q167.94 1074.18 165.672 1073.81 Q163.427 1073.44 161.019 1072.7 L161.019 1068 Q163.102 1069.13 165.325 1069.69 Q167.547 1070.24 170.024 1070.24 Q174.028 1070.24 176.366 1068.14 Q178.704 1066.03 178.704 1062.42 Q178.704 1058.81 176.366 1056.7 Q174.028 1054.6 170.024 1054.6 Q168.149 1054.6 166.274 1055.01 Q164.422 1055.43 162.477 1056.31 L162.477 1038.95 Z" fill="#000000" fill-rule="nonzero" fill-opacity="1" /><path clip-path="url(#clip220)" d="M117.015 739.403 L124.654 739.403 L124.654 713.037 L116.343 714.704 L116.343 710.445 L124.607 708.778 L129.283 708.778 L129.283 739.403 L136.922 739.403 L136.922 743.338 L117.015 743.338 L117.015 739.403 Z" fill="#000000" fill-rule="nonzero" fill-opacity="1" /><path clip-path="url(#clip220)" d="M146.366 737.459 L151.251 737.459 L151.251 743.338 L146.366 743.338 L146.366 737.459 Z" fill="#000000" fill-rule="nonzero" fill-opacity="1" /><path clip-path="url(#clip220)" d="M171.436 711.857 Q167.825 711.857 165.996 715.422 Q164.19 718.963 164.19 726.093 Q164.19 733.199 165.996 736.764 Q167.825 740.306 171.436 740.306 Q175.07 740.306 176.876 736.764 Q178.704 733.199 178.704 726.093 Q178.704 718.963 176.876 715.422 Q175.07 711.857 171.436 711.857 M171.436 708.153 Q177.246 708.153 180.301 712.76 Q183.38 717.343 183.38 726.093 Q183.38 734.82 180.301 739.426 Q177.246 744.01 171.436 744.01 Q165.626 744.01 162.547 739.426 Q159.491 734.82 159.491 726.093 Q159.491 717.343 162.547 712.76 Q165.626 708.153 171.436 708.153 Z" fill="#000000" fill-rule="nonzero" fill-opacity="1" /><path clip-path="url(#clip220)" d="M118.01 409.234 L125.649 409.234 L125.649 382.869 L117.339 384.535 L117.339 380.276 L125.603 378.61 L130.279 378.61 L130.279 409.234 L137.917 409.234 L137.917 413.17 L118.01 413.17 L118.01 409.234 Z" fill="#000000" fill-rule="nonzero" fill-opacity="1" /><path clip-path="url(#clip220)" d="M147.362 407.29 L152.246 407.29 L152.246 413.17 L147.362 413.17 L147.362 407.29 Z" fill="#000000" fill-rule="nonzero" fill-opacity="1" /><path clip-path="url(#clip220)" d="M162.477 378.61 L180.834 378.61 L180.834 382.545 L166.76 382.545 L166.76 391.017 Q167.778 390.67 168.797 390.508 Q169.815 390.322 170.834 390.322 Q176.621 390.322 180.001 393.494 Q183.38 396.665 183.38 402.082 Q183.38 407.66 179.908 410.762 Q176.436 413.841 170.116 413.841 Q167.94 413.841 165.672 413.47 Q163.427 413.1 161.019 412.359 L161.019 407.66 Q163.102 408.795 165.325 409.35 Q167.547 409.906 170.024 409.906 Q174.028 409.906 176.366 407.799 Q178.704 405.693 178.704 402.082 Q178.704 398.471 176.366 396.364 Q174.028 394.258 170.024 394.258 Q168.149 394.258 166.274 394.674 Q164.422 395.091 162.477 395.971 L162.477 378.61 Z" fill="#000000" fill-rule="nonzero" fill-opacity="1" /><path clip-path="url(#clip220)" d="M29.7248 956.945 L35.1993 956.945 Q33.8307 959.427 33.1623 961.942 Q32.4621 964.424 32.4621 966.971 Q32.4621 972.668 36.0905 975.819 Q39.6872 978.97 46.212 978.97 Q52.7369 978.97 56.3653 975.819 Q59.9619 972.668 59.9619 966.971 Q59.9619 964.424 59.2935 961.942 Q58.5933 959.427 57.2247 956.945 L62.6355 956.945 Q63.7814 959.396 64.3543 962.037 Q64.9272 964.647 64.9272 967.607 Q64.9272 975.66 59.8664 980.402 Q54.8057 985.145 46.212 985.145 Q37.491 985.145 32.4939 980.371 Q27.4968 975.564 27.4968 967.225 Q27.4968 964.52 28.0697 961.942 Q28.6108 959.364 29.7248 956.945 Z" fill="#000000" fill-rule="nonzero" fill-opacity="1" /><path clip-path="url(#clip220)" d="M16.4842 953.094 L16.4842 912.894 L21.895 912.894 L21.895 929.763 L64.0042 929.763 L64.0042 936.224 L21.895 936.224 L21.895 953.094 L16.4842 953.094 Z" fill="#000000" fill-rule="nonzero" fill-opacity="1" /><path clip-path="url(#clip220)" d="M42.4881 877.31 L64.0042 877.31 L64.0042 883.166 L42.679 883.166 Q37.6183 883.166 35.1038 885.14 Q32.5894 887.113 32.5894 891.06 Q32.5894 895.802 35.6131 898.539 Q38.6368 901.277 43.8567 901.277 L64.0042 901.277 L64.0042 907.165 L28.3562 907.165 L28.3562 901.277 L33.8944 901.277 Q30.6797 899.176 29.0883 896.343 Q27.4968 893.479 27.4968 889.755 Q27.4968 883.612 31.3163 880.461 Q35.1038 877.31 42.4881 877.31 Z" fill="#000000" fill-rule="nonzero" fill-opacity="1" /><path clip-path="url(#clip220)" d="M16.4842 871.963 L16.4842 831.763 L21.895 831.763 L21.895 848.632 L64.0042 848.632 L64.0042 855.093 L21.895 855.093 L21.895 871.963 L16.4842 871.963 Z" fill="#000000" fill-rule="nonzero" fill-opacity="1" /><path clip-path="url(#clip220)" d="M14.479 805.632 L14.479 792.137 L19.0304 792.137 L19.0304 799.775 L68.0464 799.775 L68.0464 792.137 L72.5979 792.137 L72.5979 805.632 L14.479 805.632 Z" fill="#000000" fill-rule="nonzero" fill-opacity="1" /><path clip-path="url(#clip220)" d="M42.4881 750.027 L64.0042 750.027 L64.0042 755.884 L42.679 755.884 Q37.6183 755.884 35.1038 757.857 Q32.5894 759.831 32.5894 763.777 Q32.5894 768.52 35.6131 771.257 Q38.6368 773.994 43.8567 773.994 L64.0042 773.994 L64.0042 779.883 L28.3562 779.883 L28.3562 773.994 L33.8944 773.994 Q30.6797 771.894 29.0883 769.061 Q27.4968 766.196 27.4968 762.472 Q27.4968 756.33 31.3163 753.179 Q35.1038 750.027 42.4881 750.027 Z" fill="#000000" fill-rule="nonzero" fill-opacity="1" /><path clip-path="url(#clip220)" d="M45.7664 714.889 Q39.4007 714.889 35.8996 717.531 Q32.3984 720.141 32.3984 724.883 Q32.3984 729.594 35.8996 732.235 Q39.4007 734.845 45.7664 734.845 Q52.1003 734.845 55.6014 732.235 Q59.1026 729.594 59.1026 724.883 Q59.1026 720.141 55.6014 717.531 Q52.1003 714.889 45.7664 714.889 M59.58 709.032 Q68.683 709.032 73.1071 713.075 Q77.5631 717.117 77.5631 725.456 Q77.5631 728.543 77.0857 731.28 Q76.6401 734.018 75.6852 736.596 L69.9879 736.596 Q71.3884 734.018 72.0568 731.503 Q72.7252 728.989 72.7252 726.379 Q72.7252 720.618 69.7015 717.753 Q66.7096 714.889 60.6303 714.889 L57.7339 714.889 Q60.885 716.703 62.4446 719.536 Q64.0042 722.369 64.0042 726.315 Q64.0042 732.872 59.0071 736.882 Q54.01 740.893 45.7664 740.893 Q37.491 740.893 32.4939 736.882 Q27.4968 732.872 27.4968 726.315 Q27.4968 722.369 29.0564 719.536 Q30.616 716.703 33.7671 714.889 L28.3562 714.889 L28.3562 709.032 L59.58 709.032 Z" fill="#000000" fill-rule="nonzero" fill-opacity="1" /><path clip-path="url(#clip220)" d="M16.4842 686.561 L16.4842 681.151 L70.0516 697.701 L70.0516 703.112 L16.4842 686.561 Z" fill="#000000" fill-rule="nonzero" fill-opacity="1" /><path clip-path="url(#clip220)" d="M35.1993 647.253 Q31.2526 645.057 29.3747 642.001 Q27.4968 638.946 27.4968 634.808 Q27.4968 629.238 31.4117 626.215 Q35.2948 623.191 42.4881 623.191 L64.0042 623.191 L64.0042 629.079 L42.679 629.079 Q37.5546 629.079 35.072 630.893 Q32.5894 632.708 32.5894 636.431 Q32.5894 640.983 35.6131 643.625 Q38.6368 646.266 43.8567 646.266 L64.0042 646.266 L64.0042 652.155 L42.679 652.155 Q37.5228 652.155 35.072 653.969 Q32.5894 655.783 32.5894 659.571 Q32.5894 664.059 35.6449 666.7 Q38.6686 669.342 43.8567 669.342 L64.0042 669.342 L64.0042 675.23 L28.3562 675.23 L28.3562 669.342 L33.8944 669.342 Q30.616 667.337 29.0564 664.536 Q27.4968 661.735 27.4968 657.884 Q27.4968 654.001 29.4702 651.295 Q31.4436 648.558 35.1993 647.253 Z" fill="#000000" fill-rule="nonzero" fill-opacity="1" /><path clip-path="url(#clip220)" d="M16.4842 611.255 L16.4842 604.826 L58.5933 604.826 L58.5933 581.686 L64.0042 581.686 L64.0042 611.255 L16.4842 611.255 Z" fill="#000000" fill-rule="nonzero" fill-opacity="1" /><path clip-path="url(#clip220)" d="M14.479 561.507 L72.5979 561.507 L72.5979 575.002 L68.0464 575.002 L68.0464 567.395 L19.0304 567.395 L19.0304 575.002 L14.479 575.002 L14.479 561.507 Z" fill="#000000" fill-rule="nonzero" fill-opacity="1" /><path clip-path="url(#clip220)" d="M421.463 43.6931 L421.463 65.8515 L434.588 65.8515 Q441.191 65.8515 444.351 63.1374 Q447.551 60.3828 447.551 54.752 Q447.551 49.0808 444.351 46.4072 Q441.191 43.6931 434.588 43.6931 L421.463 43.6931 M421.463 18.8205 L421.463 37.0496 L433.575 37.0496 Q439.571 37.0496 442.487 34.8216 Q445.445 32.5531 445.445 27.935 Q445.445 23.3575 442.487 21.089 Q439.571 18.8205 433.575 18.8205 L421.463 18.8205 M413.28 12.096 L434.183 12.096 Q443.541 12.096 448.604 15.9849 Q453.668 19.8737 453.668 27.0438 Q453.668 32.5936 451.075 35.8748 Q448.483 39.156 443.46 39.9662 Q449.496 41.2625 452.817 45.3944 Q456.18 49.4858 456.18 55.6432 Q456.18 63.745 450.67 68.1605 Q445.161 72.576 434.993 72.576 L413.28 72.576 L413.28 12.096 Z" fill="#000000" fill-rule="nonzero" fill-opacity="1" /><path clip-path="url(#clip220)" d="M490.491 49.7694 Q481.457 49.7694 477.973 51.8354 Q474.49 53.9013 474.49 58.8839 Q474.49 62.8538 477.082 65.2034 Q479.715 67.5124 484.212 67.5124 Q490.41 67.5124 494.137 63.1374 Q497.904 58.7219 497.904 51.4303 L497.904 49.7694 L490.491 49.7694 M505.358 46.6907 L505.358 72.576 L497.904 72.576 L497.904 65.6895 Q495.352 69.8214 491.544 71.8063 Q487.736 73.7508 482.227 73.7508 Q475.259 73.7508 471.127 69.8619 Q467.036 65.9325 467.036 59.3701 Q467.036 51.7138 472.14 47.825 Q477.285 43.9361 487.453 43.9361 L497.904 43.9361 L497.904 43.2069 Q497.904 38.0623 494.501 35.2672 Q491.139 32.4315 485.022 32.4315 Q481.133 32.4315 477.447 33.3632 Q473.76 34.295 470.358 36.1584 L470.358 29.2718 Q474.449 27.692 478.297 26.9223 Q482.146 26.1121 485.792 26.1121 Q495.635 26.1121 500.496 31.2163 Q505.358 36.3204 505.358 46.6907 Z" fill="#000000" fill-rule="nonzero" fill-opacity="1" /><path clip-path="url(#clip220)" d="M549.634 28.5427 L549.634 35.5912 Q546.474 33.9709 543.071 33.1607 Q539.669 32.3505 536.023 32.3505 Q530.473 32.3505 527.678 34.0519 Q524.923 35.7533 524.923 39.156 Q524.923 41.7486 526.908 43.2475 Q528.893 44.7058 534.889 46.0426 L537.441 46.6097 Q545.38 48.3111 548.702 51.4303 Q552.064 54.509 552.064 60.0587 Q552.064 66.3781 547.041 70.0644 Q542.059 73.7508 533.309 73.7508 Q529.663 73.7508 525.693 73.0216 Q521.764 72.3329 517.389 70.9151 L517.389 63.2184 Q521.521 65.3654 525.531 66.4591 Q529.541 67.5124 533.471 67.5124 Q538.737 67.5124 541.573 65.73 Q544.408 63.9071 544.408 60.6258 Q544.408 57.5877 542.342 55.9673 Q540.317 54.3469 533.39 52.8481 L530.797 52.2405 Q523.87 50.7821 520.791 47.7845 Q517.713 44.7463 517.713 39.4801 Q517.713 33.0797 522.25 29.5959 Q526.787 26.1121 535.132 26.1121 Q539.264 26.1121 542.909 26.7198 Q546.555 27.3274 549.634 28.5427 Z" fill="#000000" fill-rule="nonzero" fill-opacity="1" /><path clip-path="url(#clip220)" d="M602.741 48.0275 L602.741 51.6733 L568.471 51.6733 Q568.957 59.3701 573.089 63.421 Q577.261 67.4314 584.674 67.4314 Q588.968 67.4314 592.979 66.3781 Q597.029 65.3249 600.999 63.2184 L600.999 70.267 Q596.989 71.9684 592.776 72.8596 Q588.563 73.7508 584.229 73.7508 Q573.372 73.7508 567.012 67.4314 Q560.693 61.1119 560.693 50.3365 Q560.693 39.1965 566.688 32.6746 Q572.724 26.1121 582.932 26.1121 Q592.087 26.1121 597.394 32.0264 Q602.741 37.9003 602.741 48.0275 M595.288 45.84 Q595.207 39.7232 591.844 36.0774 Q588.523 32.4315 583.013 32.4315 Q576.775 32.4315 573.008 35.9558 Q569.281 39.4801 568.714 45.8805 L595.288 45.84 Z" fill="#000000" fill-rule="nonzero" fill-opacity="1" /><path clip-path="url(#clip220)" d="M640.739 12.096 L648.962 12.096 L648.962 48.8377 Q648.962 58.5599 652.486 62.8538 Q656.011 67.1073 663.91 67.1073 Q671.769 67.1073 675.293 62.8538 Q678.817 58.5599 678.817 48.8377 L678.817 12.096 L687.041 12.096 L687.041 49.8504 Q687.041 61.6791 681.167 67.7149 Q675.333 73.7508 663.91 73.7508 Q652.446 73.7508 646.572 67.7149 Q640.739 61.6791 640.739 49.8504 L640.739 12.096 Z" fill="#000000" fill-rule="nonzero" fill-opacity="1" /><path clip-path="url(#clip220)" d="M702.393 12.096 L714.587 12.096 L730.021 53.2532 L745.536 12.096 L757.729 12.096 L757.729 72.576 L749.749 72.576 L749.749 19.4686 L734.153 60.9499 L725.929 60.9499 L710.333 19.4686 L710.333 72.576 L702.393 72.576 L702.393 12.096 Z" fill="#000000" fill-rule="nonzero" fill-opacity="1" /><path clip-path="url(#clip220)" d="M815.211 63.9476 L815.211 47.7034 L801.843 47.7034 L801.843 40.9789 L823.313 40.9789 L823.313 66.9452 Q818.573 70.3075 812.862 72.0494 Q807.15 73.7508 800.668 73.7508 Q786.49 73.7508 778.469 65.4869 Q770.489 57.1826 770.489 42.3968 Q770.489 27.5705 778.469 19.3066 Q786.49 11.0023 800.668 11.0023 Q806.583 11.0023 811.889 12.4606 Q817.237 13.9189 821.733 16.7545 L821.733 25.464 Q817.196 21.6156 812.092 19.6712 Q806.988 17.7268 801.357 17.7268 Q790.258 17.7268 784.667 23.9246 Q779.118 30.1225 779.118 42.3968 Q779.118 54.6305 784.667 60.8284 Q790.258 67.0263 801.357 67.0263 Q805.692 67.0263 809.094 66.2971 Q812.497 65.5274 815.211 63.9476 Z" fill="#000000" fill-rule="nonzero" fill-opacity="1" /><path clip-path="url(#clip220)" d="M872.41 86.3491 L872.41 92.1419 L829.308 92.1419 L829.308 86.3491 L872.41 86.3491 Z" fill="#000000" fill-rule="nonzero" fill-opacity="1" /><path clip-path="url(#clip220)" d="M917.132 45.1919 L917.132 72.576 L909.678 72.576 L909.678 45.4349 Q909.678 38.994 907.167 35.7938 Q904.655 32.5936 899.632 32.5936 Q893.596 32.5936 890.112 36.4419 Q886.629 40.2903 886.629 46.9338 L886.629 72.576 L879.134 72.576 L879.134 27.2059 L886.629 27.2059 L886.629 34.2544 Q889.302 30.163 892.908 28.1376 Q896.553 26.1121 901.293 26.1121 Q909.111 26.1121 913.122 30.9732 Q917.132 35.7938 917.132 45.1919 Z" fill="#000000" fill-rule="nonzero" fill-opacity="1" /><path clip-path="url(#clip220)" d="M934.47 65.6895 L947.838 65.6895 L947.838 19.5497 L933.295 22.4663 L933.295 15.0127 L947.757 12.096 L955.94 12.096 L955.94 65.6895 L969.308 65.6895 L969.308 72.576 L934.47 72.576 L934.47 65.6895 Z" fill="#000000" fill-rule="nonzero" fill-opacity="1" /><path clip-path="url(#clip220)" d="M1003.34 17.4837 Q997.016 17.4837 993.816 23.7221 Q990.656 29.92 990.656 42.3968 Q990.656 54.833 993.816 61.0714 Q997.016 67.2693 1003.34 67.2693 Q1009.7 67.2693 1012.85 61.0714 Q1016.06 54.833 1016.06 42.3968 Q1016.06 29.92 1012.85 23.7221 Q1009.7 17.4837 1003.34 17.4837 M1003.34 11.0023 Q1013.5 11.0023 1018.85 19.0636 Q1024.24 27.0843 1024.24 42.3968 Q1024.24 57.6687 1018.85 65.73 Q1013.5 73.7508 1003.34 73.7508 Q993.167 73.7508 987.78 65.73 Q982.433 57.6687 982.433 42.3968 Q982.433 27.0843 987.78 19.0636 Q993.167 11.0023 1003.34 11.0023 Z" fill="#000000" fill-rule="nonzero" fill-opacity="1" /><path clip-path="url(#clip220)" d="M1036.55 12.096 L1075.44 12.096 L1075.44 15.5798 L1053.49 72.576 L1044.94 72.576 L1065.6 18.9825 L1036.55 18.9825 L1036.55 12.096 Z" fill="#000000" fill-rule="nonzero" fill-opacity="1" /><path clip-path="url(#clip220)" d="M1112.95 46.5287 L1134.79 46.5287 L1134.79 53.1722 L1112.95 53.1722 L1112.95 46.5287 Z" fill="#000000" fill-rule="nonzero" fill-opacity="1" /><path clip-path="url(#clip220)" d="M1172.42 12.096 L1180.64 12.096 L1180.64 48.8377 Q1180.64 58.5599 1184.17 62.8538 Q1187.69 67.1073 1195.59 67.1073 Q1203.45 67.1073 1206.97 62.8538 Q1210.5 58.5599 1210.5 48.8377 L1210.5 12.096 L1218.72 12.096 L1218.72 49.8504 Q1218.72 61.6791 1212.85 67.7149 Q1207.01 73.7508 1195.59 73.7508 Q1184.13 73.7508 1178.25 67.7149 Q1172.42 61.6791 1172.42 49.8504 L1172.42 12.096 Z" fill="#000000" fill-rule="nonzero" fill-opacity="1" /><path clip-path="url(#clip220)" d="M1234.07 12.096 L1246.27 12.096 L1261.7 53.2532 L1277.22 12.096 L1289.41 12.096 L1289.41 72.576 L1281.43 72.576 L1281.43 19.4686 L1265.83 60.9499 L1257.61 60.9499 L1242.01 19.4686 L1242.01 72.576 L1234.07 72.576 L1234.07 12.096 Z" fill="#000000" fill-rule="nonzero" fill-opacity="1" /><path clip-path="url(#clip220)" d="M1346.89 63.9476 L1346.89 47.7034 L1333.52 47.7034 L1333.52 40.9789 L1354.99 40.9789 L1354.99 66.9452 Q1350.25 70.3075 1344.54 72.0494 Q1338.83 73.7508 1332.35 73.7508 Q1318.17 73.7508 1310.15 65.4869 Q1302.17 57.1826 1302.17 42.3968 Q1302.17 27.5705 1310.15 19.3066 Q1318.17 11.0023 1332.35 11.0023 Q1338.26 11.0023 1343.57 12.4606 Q1348.92 13.9189 1353.41 16.7545 L1353.41 25.464 Q1348.88 21.6156 1343.77 19.6712 Q1338.67 17.7268 1333.04 17.7268 Q1321.94 17.7268 1316.35 23.9246 Q1310.8 30.1225 1310.8 42.3968 Q1310.8 54.6305 1316.35 60.8284 Q1321.94 67.0263 1333.04 67.0263 Q1337.37 67.0263 1340.78 66.2971 Q1344.18 65.5274 1346.89 63.9476 Z" fill="#000000" fill-rule="nonzero" fill-opacity="1" /><path clip-path="url(#clip220)" d="M1404.09 86.3491 L1404.09 92.1419 L1360.99 92.1419 L1360.99 86.3491 L1404.09 86.3491 Z" fill="#000000" fill-rule="nonzero" fill-opacity="1" /><path clip-path="url(#clip220)" d="M1448.81 45.1919 L1448.81 72.576 L1441.36 72.576 L1441.36 45.4349 Q1441.36 38.994 1438.85 35.7938 Q1436.34 32.5936 1431.31 32.5936 Q1425.28 32.5936 1421.79 36.4419 Q1418.31 40.2903 1418.31 46.9338 L1418.31 72.576 L1410.82 72.576 L1410.82 27.2059 L1418.31 27.2059 L1418.31 34.2544 Q1420.98 30.163 1424.59 28.1376 Q1428.23 26.1121 1432.97 26.1121 Q1440.79 26.1121 1444.8 30.9732 Q1448.81 35.7938 1448.81 45.1919 Z" fill="#000000" fill-rule="nonzero" fill-opacity="1" /><path clip-path="url(#clip220)" d="M1466.15 65.6895 L1479.52 65.6895 L1479.52 19.5497 L1464.98 22.4663 L1464.98 15.0127 L1479.44 12.096 L1487.62 12.096 L1487.62 65.6895 L1500.99 65.6895 L1500.99 72.576 L1466.15 72.576 L1466.15 65.6895 Z" fill="#000000" fill-rule="nonzero" fill-opacity="1" /><path clip-path="url(#clip220)" d="M1535.02 17.4837 Q1528.7 17.4837 1525.5 23.7221 Q1522.34 29.92 1522.34 42.3968 Q1522.34 54.833 1525.5 61.0714 Q1528.7 67.2693 1535.02 67.2693 Q1541.38 67.2693 1544.54 61.0714 Q1547.74 54.833 1547.74 42.3968 Q1547.74 29.92 1544.54 23.7221 Q1541.38 17.4837 1535.02 17.4837 M1535.02 11.0023 Q1545.18 11.0023 1550.53 19.0636 Q1555.92 27.0843 1555.92 42.3968 Q1555.92 57.6687 1550.53 65.73 Q1545.18 73.7508 1535.02 73.7508 Q1524.85 73.7508 1519.46 65.73 Q1514.11 57.6687 1514.11 42.3968 Q1514.11 27.0843 1519.46 19.0636 Q1524.85 11.0023 1535.02 11.0023 Z" fill="#000000" fill-rule="nonzero" fill-opacity="1" /><path clip-path="url(#clip220)" d="M1568.23 12.096 L1607.12 12.096 L1607.12 15.5798 L1585.17 72.576 L1576.62 72.576 L1597.28 18.9825 L1568.23 18.9825 L1568.23 12.096 Z" fill="#000000" fill-rule="nonzero" fill-opacity="1" /><path clip-path="url(#clip220)" d="M1656.5 86.3491 L1656.5 92.1419 L1613.4 92.1419 L1613.4 86.3491 L1656.5 86.3491 Z" fill="#000000" fill-rule="nonzero" fill-opacity="1" /><path clip-path="url(#clip220)" d="M1663.84 12.096 L1676.03 12.096 L1691.46 53.2532 L1706.98 12.096 L1719.17 12.096 L1719.17 72.576 L1711.19 72.576 L1711.19 19.4686 L1695.59 60.9499 L1687.37 60.9499 L1671.77 19.4686 L1671.77 72.576 L1663.84 72.576 L1663.84 12.096 Z" fill="#000000" fill-rule="nonzero" fill-opacity="1" /><path clip-path="url(#clip220)" d="M1735.41 12.096 L1743.6 12.096 L1743.6 72.576 L1735.41 72.576 L1735.41 12.096 Z" fill="#000000" fill-rule="nonzero" fill-opacity="1" /><path clip-path="url(#clip220)" d="M1768.06 18.8205 L1768.06 65.8515 L1777.95 65.8515 Q1790.47 65.8515 1796.26 60.1802 Q1802.09 54.509 1802.09 42.2752 Q1802.09 30.1225 1796.26 24.4918 Q1790.47 18.8205 1777.95 18.8205 L1768.06 18.8205 M1759.88 12.096 L1776.69 12.096 Q1794.27 12.096 1802.5 19.4281 Q1810.72 26.7198 1810.72 42.2752 Q1810.72 57.9117 1802.46 65.2439 Q1794.19 72.576 1776.69 72.576 L1759.88 72.576 L1759.88 12.096 Z" fill="#000000" fill-rule="nonzero" fill-opacity="1" /><path clip-path="url(#clip220)" d="M1857.91 86.3491 L1857.91 92.1419 L1814.81 92.1419 L1814.81 86.3491 L1857.91 86.3491 Z" fill="#000000" fill-rule="nonzero" fill-opacity="1" /><path clip-path="url(#clip220)" d="M1901.5 14.0809 L1901.5 22.0612 Q1896.84 19.8332 1892.71 18.7395 Q1888.58 17.6457 1884.73 17.6457 Q1878.05 17.6457 1874.4 20.2383 Q1870.8 22.8309 1870.8 27.611 Q1870.8 31.6214 1873.19 33.6873 Q1875.62 35.7128 1882.34 36.9686 L1887.28 37.9813 Q1896.44 39.7232 1900.77 44.1387 Q1905.15 48.5136 1905.15 55.8863 Q1905.15 64.6767 1899.23 69.2137 Q1893.36 73.7508 1881.98 73.7508 Q1877.68 73.7508 1872.82 72.7785 Q1868 71.8063 1862.82 69.9024 L1862.82 61.4765 Q1867.8 64.2716 1872.58 65.6895 Q1877.36 67.1073 1881.98 67.1073 Q1888.98 67.1073 1892.79 64.3527 Q1896.6 61.598 1896.6 56.4939 Q1896.6 52.0379 1893.85 49.5264 Q1891.13 47.0148 1884.89 45.759 L1879.91 44.7868 Q1870.76 42.9639 1866.66 39.075 Q1862.57 35.1862 1862.57 28.2591 Q1862.57 20.2383 1868.2 15.6203 Q1873.87 11.0023 1883.8 11.0023 Q1888.05 11.0023 1892.47 11.7719 Q1896.88 12.5416 1901.5 14.0809 Z" fill="#000000" fill-rule="nonzero" fill-opacity="1" /><path clip-path="url(#clip220)" d="M1920.05 65.6895 L1933.42 65.6895 L1933.42 19.5497 L1918.88 22.4663 L1918.88 15.0127 L1933.34 12.096 L1941.52 12.096 L1941.52 65.6895 L1954.89 65.6895 L1954.89 72.576 L1920.05 72.576 L1920.05 65.6895 Z" fill="#000000" fill-rule="nonzero" fill-opacity="1" /><path clip-path="url(#clip220)" d="M2004.84 86.3491 L2004.84 92.1419 L1961.74 92.1419 L1961.74 86.3491 L2004.84 86.3491 Z" fill="#000000" fill-rule="nonzero" fill-opacity="1" /><path clip-path="url(#clip220)" d="M2020.36 43.6931 L2020.36 65.8515 L2033.48 65.8515 Q2040.08 65.8515 2043.24 63.1374 Q2046.44 60.3828 2046.44 54.752 Q2046.44 49.0808 2043.24 46.4072 Q2040.08 43.6931 2033.48 43.6931 L2020.36 43.6931 M2020.36 18.8205 L2020.36 37.0496 L2032.47 37.0496 Q2038.46 37.0496 2041.38 34.8216 Q2044.34 32.5531 2044.34 27.935 Q2044.34 23.3575 2041.38 21.089 Q2038.46 18.8205 2032.47 18.8205 L2020.36 18.8205 M2012.17 12.096 L2033.08 12.096 Q2042.43 12.096 2047.5 15.9849 Q2052.56 19.8737 2052.56 27.0438 Q2052.56 32.5936 2049.97 35.8748 Q2047.37 39.156 2042.35 39.9662 Q2048.39 41.2625 2051.71 45.3944 Q2055.07 49.4858 2055.07 55.6432 Q2055.07 63.745 2049.56 68.1605 Q2044.05 72.576 2033.89 72.576 L2012.17 72.576 L2012.17 12.096 Z" fill="#000000" fill-rule="nonzero" fill-opacity="1" /><path clip-path="url(#clip220)" d="M2087.32 17.4837 Q2081 17.4837 2077.8 23.7221 Q2074.64 29.92 2074.64 42.3968 Q2074.64 54.833 2077.8 61.0714 Q2081 67.2693 2087.32 67.2693 Q2093.68 67.2693 2096.84 61.0714 Q2100.04 54.833 2100.04 42.3968 Q2100.04 29.92 2096.84 23.7221 Q2093.68 17.4837 2087.32 17.4837 M2087.32 11.0023 Q2097.48 11.0023 2102.83 19.0636 Q2108.22 27.0843 2108.22 42.3968 Q2108.22 57.6687 2102.83 65.73 Q2097.48 73.7508 2087.32 73.7508 Q2077.15 73.7508 2071.76 65.73 Q2066.41 57.6687 2066.41 42.3968 Q2066.41 27.0843 2071.76 19.0636 Q2077.15 11.0023 2087.32 11.0023 Z" fill="#000000" fill-rule="nonzero" fill-opacity="1" /><path clip-path="url(#clip220)" d="M2124.02 65.6895 L2137.39 65.6895 L2137.39 19.5497 L2122.84 22.4663 L2122.84 15.0127 L2137.3 12.096 L2145.49 12.096 L2145.49 65.6895 L2158.86 65.6895 L2158.86 72.576 L2124.02 72.576 L2124.02 65.6895 Z" fill="#000000" fill-rule="nonzero" fill-opacity="1" /><polyline clip-path="url(#clip221)" style="stroke:#009af9; stroke-linecap:round; stroke-linejoin:round; stroke-width:8; stroke-opacity:1; fill:none" points="279.759,1386.4 297.224,389.178 314.69,176.847 332.155,160.256 349.621,191.394 367.087,233.145 384.552,276.24 402.018,318.385 419.483,359.049 436.949,398.178 454.415,435.761 471.88,471.881 489.346,506.545 506.811,539.864 524.277,571.86 541.743,602.487 559.208,632.014 576.674,660.403 594.139,687.261 611.605,713.369 629.071,738.756 646.536,762.08 664.002,785.172 681.467,807.685 698.933,827.88 716.399,848.541 733.864,867.417 751.33,885.527 768.795,903.134 786.261,919.163 803.727,934.98 821.192,949.244 838.658,962.944 856.123,975.533 873.589,986.948 891.055,997.632 908.52,1006.65 925.986,1014.87 943.451,1021.51 960.917,1026.78 978.382,1030.84 995.848,1032.97 1013.31,1034.01 1030.78,1033.19 1048.24,1031.06 1065.71,1027.59 1083.18,1022.7 1100.64,1016.95 1118.11,1010.13 1135.57,1002.68 1153.04,994.778 1170.5,986.923 1187.97,978.541 1205.44,969.782 1222.9,962.455 1240.37,954.97 1257.83,947.111 1275.3,941.339 1292.76,934.863 1310.23,929.823 1327.69,925.082 1345.16,920.925 1362.63,917.668 1380.09,914.58 1397.56,912.575 1415.02,910.725 1432.49,909.6 1449.95,909.01 1467.42,908.566 1484.88,909.019 1502.35,909.483 1519.82,910.407 1537.28,911.895 1554.75,913.187 1572.21,915.29 1589.68,917.36 1607.14,919.492 1624.61,922.325 1642.08,924.733 1659.54,927.742 1677.01,930.782 1694.47,933.628 1711.94,937.145 1729.4,940.193 1746.87,943.649 1764.33,947.147 1781.8,950.351 1799.27,954.134 1816.73,957.455 1834.2,961.043 1851.66,964.691 1869.13,967.969 1886.59,971.772 1904.06,975.129 1921.52,978.631 1938.99,982.245 1956.46,985.421 1973.92,989.082 1991.39,992.336 2008.85,995.625 2026.32,999.085 2043.78,1002.07 2061.25,1005.49 2078.71,1008.56 2096.18,1011.58 2113.65,1014.81 2131.11,1017.57 2148.58,1020.7 2166.04,1023.54 2183.51,1026.26 2200.97,1029.24 2218.44,1031.74 2235.91,1034.57 2253.37,1037.18 2270.84,1039.59 2288.3,1042.18 2292.38,1042.77 "/>
<line clip-path="url(#clip221)" x1="1187.39" y1="966.421" x2="1159.39" y2="938.421" style="stroke:#dc143c; stroke-width:6.4; stroke-opacity:1"/>
<line clip-path="url(#clip221)" x1="1187.39" y1="966.421" x2="1159.39" y2="994.421" style="stroke:#dc143c; stroke-width:6.4; stroke-opacity:1"/>
<line clip-path="url(#clip221)" x1="1187.39" y1="966.421" x2="1215.39" y2="994.421" style="stroke:#dc143c; stroke-width:6.4; stroke-opacity:1"/>
<line clip-path="url(#clip221)" x1="1187.39" y1="966.421" x2="1215.39" y2="938.421" style="stroke:#dc143c; stroke-width:6.4; stroke-opacity:1"/>
<circle clip-path="url(#clip221)" cx="280.05" cy="1355.36" r="18" fill="#1e90ff" fill-rule="evenodd" fill-opacity="1" stroke="#000000" stroke-opacity="1" stroke-width="3.2"/>
<circle clip-path="url(#clip221)" cx="395.032" cy="349.666" r="18" fill="#1e90ff" fill-rule="evenodd" fill-opacity="1" stroke="#000000" stroke-opacity="1" stroke-width="3.2"/>
<circle clip-path="url(#clip221)" cx="456.743" cy="382.683" r="18" fill="#1e90ff" fill-rule="evenodd" fill-opacity="1" stroke="#000000" stroke-opacity="1" stroke-width="3.2"/>
<circle clip-path="url(#clip221)" cx="860.781" cy="984.25" r="18" fill="#1e90ff" fill-rule="evenodd" fill-opacity="1" stroke="#000000" stroke-opacity="1" stroke-width="3.2"/>
<circle clip-path="url(#clip221)" cx="1285.49" cy="934.725" r="18" fill="#1e90ff" fill-rule="evenodd" fill-opacity="1" stroke="#000000" stroke-opacity="1" stroke-width="3.2"/>
<circle clip-path="url(#clip221)" cx="1700.29" cy="957.176" r="18" fill="#1e90ff" fill-rule="evenodd" fill-opacity="1" stroke="#000000" stroke-opacity="1" stroke-width="3.2"/>
<circle clip-path="url(#clip221)" cx="2117.72" cy="998.778" r="18" fill="#1e90ff" fill-rule="evenodd" fill-opacity="1" stroke="#000000" stroke-opacity="1" stroke-width="3.2"/>
<path clip-path="url(#clip220)" d="M1482.29 374.156 L2281.64 374.156 L2281.64 166.796 L1482.29 166.796  Z" fill="#ffffff" fill-rule="evenodd" fill-opacity="1"/>
<polyline clip-path="url(#clip220)" style="stroke:#000000; stroke-linecap:round; stroke-linejoin:round; stroke-width:4; stroke-opacity:1; fill:none" points="1482.29,374.156 2281.64,374.156 2281.64,166.796 1482.29,166.796 1482.29,374.156 "/>
<polyline clip-path="url(#clip220)" style="stroke:#009af9; stroke-linecap:round; stroke-linejoin:round; stroke-width:8; stroke-opacity:1; fill:none" points="1505.99,218.636 1648.22,218.636 "/>
<path clip-path="url(#clip220)" d="M1671.92 201.356 L1678.89 201.356 L1687.71 224.874 L1696.58 201.356 L1703.54 201.356 L1703.54 235.916 L1698.98 235.916 L1698.98 205.569 L1690.07 229.272 L1685.37 229.272 L1676.46 205.569 L1676.46 235.916 L1671.92 235.916 L1671.92 201.356 Z" fill="#000000" fill-rule="nonzero" fill-opacity="1" /><path clip-path="url(#clip220)" d="M1722.69 212.976 Q1719.26 212.976 1717.27 215.661 Q1715.28 218.323 1715.28 222.976 Q1715.28 227.629 1717.25 230.314 Q1719.24 232.976 1722.69 232.976 Q1726.09 232.976 1728.08 230.291 Q1730.07 227.606 1730.07 222.976 Q1730.07 218.37 1728.08 215.684 Q1726.09 212.976 1722.69 212.976 M1722.69 209.365 Q1728.24 209.365 1731.41 212.976 Q1734.59 216.587 1734.59 222.976 Q1734.59 229.342 1731.41 232.976 Q1728.24 236.587 1722.69 236.587 Q1717.11 236.587 1713.94 232.976 Q1710.79 229.342 1710.79 222.976 Q1710.79 216.587 1713.94 212.976 Q1717.11 209.365 1722.69 209.365 Z" fill="#000000" fill-rule="nonzero" fill-opacity="1" /><path clip-path="url(#clip220)" d="M1758.71 213.925 L1758.71 199.897 L1762.97 199.897 L1762.97 235.916 L1758.71 235.916 L1758.71 232.027 Q1757.36 234.342 1755.3 235.476 Q1753.27 236.587 1750.4 236.587 Q1745.7 236.587 1742.73 232.837 Q1739.79 229.087 1739.79 222.976 Q1739.79 216.865 1742.73 213.115 Q1745.7 209.365 1750.4 209.365 Q1753.27 209.365 1755.3 210.499 Q1757.36 211.61 1758.71 213.925 M1744.19 222.976 Q1744.19 227.675 1746.11 230.36 Q1748.06 233.022 1751.44 233.022 Q1754.82 233.022 1756.76 230.36 Q1758.71 227.675 1758.71 222.976 Q1758.71 218.277 1756.76 215.615 Q1754.82 212.93 1751.44 212.93 Q1748.06 212.93 1746.11 215.615 Q1744.19 218.277 1744.19 222.976 Z" fill="#000000" fill-rule="nonzero" fill-opacity="1" /><path clip-path="url(#clip220)" d="M1793.91 221.888 L1793.91 223.971 L1774.33 223.971 Q1774.61 228.369 1776.97 230.684 Q1779.35 232.976 1783.59 232.976 Q1786.04 232.976 1788.34 232.374 Q1790.65 231.772 1792.92 230.569 L1792.92 234.596 Q1790.63 235.568 1788.22 236.078 Q1785.81 236.587 1783.34 236.587 Q1777.13 236.587 1773.5 232.976 Q1769.89 229.365 1769.89 223.207 Q1769.89 216.842 1773.31 213.115 Q1776.76 209.365 1782.59 209.365 Q1787.83 209.365 1790.86 212.745 Q1793.91 216.101 1793.91 221.888 M1789.65 220.638 Q1789.61 217.143 1787.69 215.059 Q1785.79 212.976 1782.64 212.976 Q1779.08 212.976 1776.92 214.99 Q1774.79 217.004 1774.47 220.661 L1789.65 220.638 Z" fill="#000000" fill-rule="nonzero" fill-opacity="1" /><path clip-path="url(#clip220)" d="M1800.9 199.897 L1805.16 199.897 L1805.16 235.916 L1800.9 235.916 L1800.9 199.897 Z" fill="#000000" fill-rule="nonzero" fill-opacity="1" /><path clip-path="url(#clip220)" d="M1847.8 210.985 L1847.8 214.967 Q1846 213.971 1844.17 213.485 Q1842.36 212.976 1840.51 212.976 Q1836.37 212.976 1834.08 215.615 Q1831.78 218.231 1831.78 222.976 Q1831.78 227.721 1834.08 230.36 Q1836.37 232.976 1840.51 232.976 Q1842.36 232.976 1844.17 232.49 Q1846 231.981 1847.8 230.985 L1847.8 234.92 Q1846.02 235.754 1844.1 236.17 Q1842.2 236.587 1840.05 236.587 Q1834.19 236.587 1830.74 232.906 Q1827.29 229.226 1827.29 222.976 Q1827.29 216.633 1830.77 212.999 Q1834.26 209.365 1840.33 209.365 Q1842.29 209.365 1844.17 209.782 Q1846.04 210.175 1847.8 210.985 Z" fill="#000000" fill-rule="nonzero" fill-opacity="1" /><path clip-path="url(#clip220)" d="M1854.77 225.684 L1854.77 209.99 L1859.03 209.99 L1859.03 225.522 Q1859.03 229.203 1860.46 231.055 Q1861.9 232.883 1864.77 232.883 Q1868.22 232.883 1870.21 230.684 Q1872.22 228.485 1872.22 224.689 L1872.22 209.99 L1876.48 209.99 L1876.48 235.916 L1872.22 235.916 L1872.22 231.934 Q1870.67 234.295 1868.61 235.453 Q1866.58 236.587 1863.87 236.587 Q1859.4 236.587 1857.08 233.809 Q1854.77 231.031 1854.77 225.684 M1865.49 209.365 L1865.49 209.365 Z" fill="#000000" fill-rule="nonzero" fill-opacity="1" /><path clip-path="url(#clip220)" d="M1900.28 213.971 Q1899.56 213.555 1898.71 213.37 Q1897.87 213.161 1896.85 213.161 Q1893.24 213.161 1891.3 215.522 Q1889.38 217.86 1889.38 222.258 L1889.38 235.916 L1885.09 235.916 L1885.09 209.99 L1889.38 209.99 L1889.38 214.018 Q1890.72 211.657 1892.87 210.522 Q1895.02 209.365 1898.1 209.365 Q1898.54 209.365 1899.08 209.434 Q1899.61 209.481 1900.26 209.596 L1900.28 213.971 Z" fill="#000000" fill-rule="nonzero" fill-opacity="1" /><path clip-path="url(#clip220)" d="M1901.69 209.99 L1906.2 209.99 L1914.31 231.749 L1922.41 209.99 L1926.92 209.99 L1917.2 235.916 L1911.41 235.916 L1901.69 209.99 Z" fill="#000000" fill-rule="nonzero" fill-opacity="1" /><path clip-path="url(#clip220)" d="M1954.98 221.888 L1954.98 223.971 L1935.39 223.971 Q1935.67 228.369 1938.03 230.684 Q1940.42 232.976 1944.65 232.976 Q1947.11 232.976 1949.4 232.374 Q1951.71 231.772 1953.98 230.569 L1953.98 234.596 Q1951.69 235.568 1949.28 236.078 Q1946.88 236.587 1944.4 236.587 Q1938.2 236.587 1934.56 232.976 Q1930.95 229.365 1930.95 223.207 Q1930.95 216.842 1934.38 213.115 Q1937.83 209.365 1943.66 209.365 Q1948.89 209.365 1951.92 212.745 Q1954.98 216.101 1954.98 221.888 M1950.72 220.638 Q1950.67 217.143 1948.75 215.059 Q1946.85 212.976 1943.7 212.976 Q1940.14 212.976 1937.99 214.99 Q1935.86 217.004 1935.53 220.661 L1950.72 220.638 Z" fill="#000000" fill-rule="nonzero" fill-opacity="1" /><path clip-path="url(#clip220)" d="M1987.27 199.944 Q1984.17 205.268 1982.66 210.476 Q1981.16 215.684 1981.16 221.032 Q1981.16 226.379 1982.66 231.633 Q1984.19 236.865 1987.27 242.166 L1983.57 242.166 Q1980.09 236.726 1978.36 231.471 Q1976.64 226.217 1976.64 221.032 Q1976.64 215.87 1978.36 210.638 Q1980.07 205.407 1983.57 199.944 L1987.27 199.944 Z" fill="#000000" fill-rule="nonzero" fill-opacity="1" /><path clip-path="url(#clip220)" d="M2012.06 210.754 L2012.06 214.782 Q2010.26 213.856 2008.31 213.393 Q2006.37 212.93 2004.28 212.93 Q2001.11 212.93 1999.51 213.902 Q1997.94 214.874 1997.94 216.819 Q1997.94 218.3 1999.07 219.157 Q2000.21 219.99 2003.64 220.754 L2005.09 221.078 Q2009.63 222.05 2011.53 223.832 Q2013.45 225.592 2013.45 228.763 Q2013.45 232.374 2010.58 234.481 Q2007.73 236.587 2002.73 236.587 Q2000.65 236.587 1998.38 236.17 Q1996.14 235.777 1993.64 234.967 L1993.64 230.569 Q1996 231.795 1998.29 232.42 Q2000.58 233.022 2002.82 233.022 Q2005.83 233.022 2007.45 232.004 Q2009.07 230.962 2009.07 229.087 Q2009.07 227.351 2007.89 226.425 Q2006.74 225.499 2002.78 224.643 L2001.3 224.295 Q1997.34 223.462 1995.58 221.749 Q1993.82 220.013 1993.82 217.004 Q1993.82 213.346 1996.41 211.356 Q1999.01 209.365 2003.77 209.365 Q2006.13 209.365 2008.22 209.712 Q2010.3 210.059 2012.06 210.754 Z" fill="#000000" fill-rule="nonzero" fill-opacity="1" /><path clip-path="url(#clip220)" d="M2032.01 222.883 Q2026.85 222.883 2024.86 224.064 Q2022.87 225.244 2022.87 228.092 Q2022.87 230.36 2024.35 231.703 Q2025.86 233.022 2028.43 233.022 Q2031.97 233.022 2034.1 230.522 Q2036.25 227.999 2036.25 223.832 L2036.25 222.883 L2032.01 222.883 M2040.51 221.124 L2040.51 235.916 L2036.25 235.916 L2036.25 231.981 Q2034.79 234.342 2032.62 235.476 Q2030.44 236.587 2027.29 236.587 Q2023.31 236.587 2020.95 234.365 Q2018.61 232.119 2018.61 228.369 Q2018.61 223.994 2021.53 221.772 Q2024.47 219.55 2030.28 219.55 L2036.25 219.55 L2036.25 219.133 Q2036.25 216.194 2034.31 214.596 Q2032.38 212.976 2028.89 212.976 Q2026.67 212.976 2024.56 213.508 Q2022.45 214.041 2020.51 215.106 L2020.51 211.17 Q2022.85 210.268 2025.05 209.828 Q2027.25 209.365 2029.33 209.365 Q2034.95 209.365 2037.73 212.282 Q2040.51 215.198 2040.51 221.124 Z" fill="#000000" fill-rule="nonzero" fill-opacity="1" /><path clip-path="url(#clip220)" d="M2046.23 209.99 L2050.74 209.99 L2058.84 231.749 L2066.94 209.99 L2071.46 209.99 L2061.74 235.916 L2055.95 235.916 L2046.23 209.99 Z" fill="#000000" fill-rule="nonzero" fill-opacity="1" /><path clip-path="url(#clip220)" d="M2099.51 221.888 L2099.51 223.971 L2079.93 223.971 Q2080.21 228.369 2082.57 230.684 Q2084.95 232.976 2089.19 232.976 Q2091.64 232.976 2093.94 232.374 Q2096.25 231.772 2098.52 230.569 L2098.52 234.596 Q2096.23 235.568 2093.82 236.078 Q2091.41 236.587 2088.94 236.587 Q2082.73 236.587 2079.1 232.976 Q2075.49 229.365 2075.49 223.207 Q2075.49 216.842 2078.91 213.115 Q2082.36 209.365 2088.19 209.365 Q2093.43 209.365 2096.46 212.745 Q2099.51 216.101 2099.51 221.888 M2095.25 220.638 Q2095.21 217.143 2093.29 215.059 Q2091.39 212.976 2088.24 212.976 Q2084.68 212.976 2082.52 214.99 Q2080.39 217.004 2080.07 220.661 L2095.25 220.638 Z" fill="#000000" fill-rule="nonzero" fill-opacity="1" /><path clip-path="url(#clip220)" d="M2118.29 222.883 Q2113.13 222.883 2111.13 224.064 Q2109.14 225.244 2109.14 228.092 Q2109.14 230.36 2110.63 231.703 Q2112.13 233.022 2114.7 233.022 Q2118.24 233.022 2120.37 230.522 Q2122.52 227.999 2122.52 223.832 L2122.52 222.883 L2118.29 222.883 M2126.78 221.124 L2126.78 235.916 L2122.52 235.916 L2122.52 231.981 Q2121.06 234.342 2118.89 235.476 Q2116.71 236.587 2113.56 236.587 Q2109.58 236.587 2107.22 234.365 Q2104.88 232.119 2104.88 228.369 Q2104.88 223.994 2107.8 221.772 Q2110.74 219.55 2116.55 219.55 L2122.52 219.55 L2122.52 219.133 Q2122.52 216.194 2120.58 214.596 Q2118.66 212.976 2115.16 212.976 Q2112.94 212.976 2110.83 213.508 Q2108.73 214.041 2106.78 215.106 L2106.78 211.17 Q2109.12 210.268 2111.32 209.828 Q2113.52 209.365 2115.6 209.365 Q2121.23 209.365 2124 212.282 Q2126.78 215.198 2126.78 221.124 Z" fill="#000000" fill-rule="nonzero" fill-opacity="1" /><path clip-path="url(#clip220)" d="M2139.77 202.629 L2139.77 209.99 L2148.54 209.99 L2148.54 213.3 L2139.77 213.3 L2139.77 227.374 Q2139.77 230.545 2140.63 231.448 Q2141.5 232.351 2144.17 232.351 L2148.54 232.351 L2148.54 235.916 L2144.17 235.916 Q2139.24 235.916 2137.36 234.087 Q2135.49 232.235 2135.49 227.374 L2135.49 213.3 L2132.36 213.3 L2132.36 209.99 L2135.49 209.99 L2135.49 202.629 L2139.77 202.629 Z" fill="#000000" fill-rule="nonzero" fill-opacity="1" /><path clip-path="url(#clip220)" d="M2154.7 214.388 L2184.37 214.388 L2184.37 218.277 L2154.7 218.277 L2154.7 214.388 M2154.7 223.832 L2184.37 223.832 L2184.37 227.768 L2154.7 227.768 L2154.7 223.832 Z" fill="#000000" fill-rule="nonzero" fill-opacity="1" /><path clip-path="url(#clip220)" d="M2195.28 231.981 L2202.92 231.981 L2202.92 205.615 L2194.61 207.282 L2194.61 203.022 L2202.87 201.356 L2207.55 201.356 L2207.55 231.981 L2215.18 231.981 L2215.18 235.916 L2195.28 235.916 L2195.28 231.981 Z" fill="#000000" fill-rule="nonzero" fill-opacity="1" /><path clip-path="url(#clip220)" d="M2223.36 199.944 L2227.06 199.944 Q2230.53 205.407 2232.24 210.638 Q2233.98 215.87 2233.98 221.032 Q2233.98 226.217 2232.24 231.471 Q2230.53 236.726 2227.06 242.166 L2223.36 242.166 Q2226.43 236.865 2227.94 231.633 Q2229.47 226.379 2229.47 221.032 Q2229.47 215.684 2227.94 210.476 Q2226.43 205.268 2223.36 199.944 Z" fill="#000000" fill-rule="nonzero" fill-opacity="1" /><line clip-path="url(#clip220)" x1="1577.11" y1="270.476" x2="1554.71" y2="248.076" style="stroke:#dc143c; stroke-width:5.12; stroke-opacity:1"/>
<line clip-path="url(#clip220)" x1="1577.11" y1="270.476" x2="1554.71" y2="292.876" style="stroke:#dc143c; stroke-width:5.12; stroke-opacity:1"/>
<line clip-path="url(#clip220)" x1="1577.11" y1="270.476" x2="1599.51" y2="292.876" style="stroke:#dc143c; stroke-width:5.12; stroke-opacity:1"/>
<line clip-path="url(#clip220)" x1="1577.11" y1="270.476" x2="1599.51" y2="248.076" style="stroke:#dc143c; stroke-width:5.12; stroke-opacity:1"/>
<path clip-path="url(#clip220)" d="M1688.31 271.552 Q1689.82 272.061 1691.23 273.728 Q1692.66 275.395 1694.1 278.311 L1698.84 287.756 L1693.82 287.756 L1689.4 278.89 Q1687.69 275.418 1686.07 274.284 Q1684.47 273.149 1681.69 273.149 L1676.6 273.149 L1676.6 287.756 L1671.92 287.756 L1671.92 253.196 L1682.48 253.196 Q1688.41 253.196 1691.32 255.673 Q1694.24 258.149 1694.24 263.149 Q1694.24 266.413 1692.71 268.566 Q1691.21 270.719 1688.31 271.552 M1676.6 257.038 L1676.6 269.307 L1682.48 269.307 Q1685.86 269.307 1687.57 267.756 Q1689.31 266.182 1689.31 263.149 Q1689.31 260.117 1687.57 258.589 Q1685.86 257.038 1682.48 257.038 L1676.6 257.038 Z" fill="#000000" fill-rule="nonzero" fill-opacity="1" /><path clip-path="url(#clip220)" d="M1724.72 273.728 L1724.72 275.811 L1705.14 275.811 Q1705.42 280.209 1707.78 282.524 Q1710.16 284.816 1714.4 284.816 Q1716.85 284.816 1719.15 284.214 Q1721.46 283.612 1723.73 282.409 L1723.73 286.436 Q1721.44 287.408 1719.03 287.918 Q1716.62 288.427 1714.15 288.427 Q1707.94 288.427 1704.31 284.816 Q1700.7 281.205 1700.7 275.047 Q1700.7 268.682 1704.12 264.955 Q1707.57 261.205 1713.41 261.205 Q1718.64 261.205 1721.67 264.585 Q1724.72 267.941 1724.72 273.728 M1720.47 272.478 Q1720.42 268.983 1718.5 266.899 Q1716.6 264.816 1713.45 264.816 Q1709.89 264.816 1707.73 266.83 Q1705.6 268.844 1705.28 272.501 L1720.47 272.478 Z" fill="#000000" fill-rule="nonzero" fill-opacity="1" /><path clip-path="url(#clip220)" d="M1751.9 266.807 Q1753.5 263.936 1755.72 262.571 Q1757.94 261.205 1760.95 261.205 Q1765 261.205 1767.2 264.052 Q1769.4 266.876 1769.4 272.108 L1769.4 287.756 L1765.12 287.756 L1765.12 272.247 Q1765.12 268.52 1763.8 266.714 Q1762.48 264.909 1759.77 264.909 Q1756.46 264.909 1754.54 267.108 Q1752.62 269.307 1752.62 273.103 L1752.62 287.756 L1748.34 287.756 L1748.34 272.247 Q1748.34 268.497 1747.02 266.714 Q1745.7 264.909 1742.94 264.909 Q1739.68 264.909 1737.76 267.131 Q1735.84 269.33 1735.84 273.103 L1735.84 287.756 L1731.55 287.756 L1731.55 261.83 L1735.84 261.83 L1735.84 265.858 Q1737.29 263.473 1739.33 262.339 Q1741.37 261.205 1744.17 261.205 Q1746.99 261.205 1748.96 262.64 Q1750.95 264.075 1751.9 266.807 Z" fill="#000000" fill-rule="nonzero" fill-opacity="1" /><path clip-path="url(#clip220)" d="M1787.94 264.816 Q1784.52 264.816 1782.53 267.501 Q1780.53 270.163 1780.53 274.816 Q1780.53 279.469 1782.5 282.154 Q1784.49 284.816 1787.94 284.816 Q1791.34 284.816 1793.34 282.131 Q1795.33 279.446 1795.33 274.816 Q1795.33 270.21 1793.34 267.524 Q1791.34 264.816 1787.94 264.816 M1787.94 261.205 Q1793.5 261.205 1796.67 264.816 Q1799.84 268.427 1799.84 274.816 Q1799.84 281.182 1796.67 284.816 Q1793.5 288.427 1787.94 288.427 Q1782.36 288.427 1779.19 284.816 Q1776.04 281.182 1776.04 274.816 Q1776.04 268.427 1779.19 264.816 Q1782.36 261.205 1787.94 261.205 Z" fill="#000000" fill-rule="nonzero" fill-opacity="1" /><path clip-path="url(#clip220)" d="M1803.84 261.83 L1808.36 261.83 L1816.46 283.589 L1824.56 261.83 L1829.08 261.83 L1819.35 287.756 L1813.57 287.756 L1803.84 261.83 Z" fill="#000000" fill-rule="nonzero" fill-opacity="1" /><path clip-path="url(#clip220)" d="M1857.13 273.728 L1857.13 275.811 L1837.55 275.811 Q1837.83 280.209 1840.19 282.524 Q1842.57 284.816 1846.81 284.816 Q1849.26 284.816 1851.55 284.214 Q1853.87 283.612 1856.14 282.409 L1856.14 286.436 Q1853.84 287.408 1851.44 287.918 Q1849.03 288.427 1846.55 288.427 Q1840.35 288.427 1836.71 284.816 Q1833.1 281.205 1833.1 275.047 Q1833.1 268.682 1836.53 264.955 Q1839.98 261.205 1845.81 261.205 Q1851.04 261.205 1854.08 264.585 Q1857.13 267.941 1857.13 273.728 M1852.87 272.478 Q1852.83 268.983 1850.9 266.899 Q1849.01 264.816 1845.86 264.816 Q1842.29 264.816 1840.14 266.83 Q1838.01 268.844 1837.69 272.501 L1852.87 272.478 Z" fill="#000000" fill-rule="nonzero" fill-opacity="1" /><path clip-path="url(#clip220)" d="M1881.18 265.765 L1881.18 251.737 L1885.44 251.737 L1885.44 287.756 L1881.18 287.756 L1881.18 283.867 Q1879.84 286.182 1877.78 287.316 Q1875.74 288.427 1872.87 288.427 Q1868.17 288.427 1865.21 284.677 Q1862.27 280.927 1862.27 274.816 Q1862.27 268.705 1865.21 264.955 Q1868.17 261.205 1872.87 261.205 Q1875.74 261.205 1877.78 262.339 Q1879.84 263.45 1881.18 265.765 M1866.67 274.816 Q1866.67 279.515 1868.59 282.2 Q1870.53 284.862 1873.91 284.862 Q1877.29 284.862 1879.24 282.2 Q1881.18 279.515 1881.18 274.816 Q1881.18 270.117 1879.24 267.455 Q1877.29 264.77 1873.91 264.77 Q1870.53 264.77 1868.59 267.455 Q1866.67 270.117 1866.67 274.816 Z" fill="#000000" fill-rule="nonzero" fill-opacity="1" /><path clip-path="url(#clip220)" d="M1929.47 266.807 Q1931.07 263.936 1933.29 262.571 Q1935.51 261.205 1938.52 261.205 Q1942.57 261.205 1944.77 264.052 Q1946.97 266.876 1946.97 272.108 L1946.97 287.756 L1942.69 287.756 L1942.69 272.247 Q1942.69 268.52 1941.37 266.714 Q1940.05 264.909 1937.34 264.909 Q1934.03 264.909 1932.11 267.108 Q1930.19 269.307 1930.19 273.103 L1930.19 287.756 L1925.9 287.756 L1925.9 272.247 Q1925.9 268.497 1924.58 266.714 Q1923.27 264.909 1920.51 264.909 Q1917.25 264.909 1915.33 267.131 Q1913.4 269.33 1913.4 273.103 L1913.4 287.756 L1909.12 287.756 L1909.12 261.83 L1913.4 261.83 L1913.4 265.858 Q1914.86 263.473 1916.9 262.339 Q1918.94 261.205 1921.74 261.205 Q1924.56 261.205 1926.53 262.64 Q1928.52 264.075 1929.47 266.807 Z" fill="#000000" fill-rule="nonzero" fill-opacity="1" /><path clip-path="url(#clip220)" d="M1977.64 273.728 L1977.64 275.811 L1958.06 275.811 Q1958.33 280.209 1960.7 282.524 Q1963.08 284.816 1967.32 284.816 Q1969.77 284.816 1972.06 284.214 Q1974.38 283.612 1976.64 282.409 L1976.64 286.436 Q1974.35 287.408 1971.95 287.918 Q1969.54 288.427 1967.06 288.427 Q1960.86 288.427 1957.22 284.816 Q1953.61 281.205 1953.61 275.047 Q1953.61 268.682 1957.04 264.955 Q1960.49 261.205 1966.32 261.205 Q1971.55 261.205 1974.58 264.585 Q1977.64 267.941 1977.64 273.728 M1973.38 272.478 Q1973.33 268.983 1971.41 266.899 Q1969.51 264.816 1966.37 264.816 Q1962.8 264.816 1960.65 266.83 Q1958.52 268.844 1958.2 272.501 L1973.38 272.478 Z" fill="#000000" fill-rule="nonzero" fill-opacity="1" /><path clip-path="url(#clip220)" d="M1996.41 274.723 Q1991.25 274.723 1989.26 275.904 Q1987.27 277.084 1987.27 279.932 Q1987.27 282.2 1988.75 283.543 Q1990.26 284.862 1992.82 284.862 Q1996.37 284.862 1998.5 282.362 Q2000.65 279.839 2000.65 275.672 L2000.65 274.723 L1996.41 274.723 M2004.91 272.964 L2004.91 287.756 L2000.65 287.756 L2000.65 283.821 Q1999.19 286.182 1997.01 287.316 Q1994.84 288.427 1991.69 288.427 Q1987.71 288.427 1985.35 286.205 Q1983.01 283.959 1983.01 280.209 Q1983.01 275.834 1985.93 273.612 Q1988.87 271.39 1994.68 271.39 L2000.65 271.39 L2000.65 270.973 Q2000.65 268.034 1998.7 266.436 Q1996.78 264.816 1993.29 264.816 Q1991.07 264.816 1988.96 265.348 Q1986.85 265.881 1984.91 266.946 L1984.91 263.01 Q1987.25 262.108 1989.45 261.668 Q1991.64 261.205 1993.73 261.205 Q1999.35 261.205 2002.13 264.122 Q2004.91 267.038 2004.91 272.964 Z" fill="#000000" fill-rule="nonzero" fill-opacity="1" /><path clip-path="url(#clip220)" d="M2030.21 262.594 L2030.21 266.622 Q2028.4 265.696 2026.46 265.233 Q2024.51 264.77 2022.43 264.77 Q2019.26 264.77 2017.66 265.742 Q2016.09 266.714 2016.09 268.659 Q2016.09 270.14 2017.22 270.997 Q2018.36 271.83 2021.78 272.594 L2023.24 272.918 Q2027.78 273.89 2029.68 275.672 Q2031.6 277.432 2031.6 280.603 Q2031.6 284.214 2028.73 286.321 Q2025.88 288.427 2020.88 288.427 Q2018.8 288.427 2016.53 288.01 Q2014.28 287.617 2011.78 286.807 L2011.78 282.409 Q2014.14 283.635 2016.44 284.26 Q2018.73 284.862 2020.97 284.862 Q2023.98 284.862 2025.6 283.844 Q2027.22 282.802 2027.22 280.927 Q2027.22 279.191 2026.04 278.265 Q2024.88 277.339 2020.93 276.483 L2019.45 276.135 Q2015.49 275.302 2013.73 273.589 Q2011.97 271.853 2011.97 268.844 Q2011.97 265.186 2014.56 263.196 Q2017.15 261.205 2021.92 261.205 Q2024.28 261.205 2026.37 261.552 Q2028.45 261.899 2030.21 262.594 Z" fill="#000000" fill-rule="nonzero" fill-opacity="1" /><path clip-path="url(#clip220)" d="M2037.94 277.524 L2037.94 261.83 L2042.2 261.83 L2042.2 277.362 Q2042.2 281.043 2043.63 282.895 Q2045.07 284.723 2047.94 284.723 Q2051.39 284.723 2053.38 282.524 Q2055.39 280.325 2055.39 276.529 L2055.39 261.83 L2059.65 261.83 L2059.65 287.756 L2055.39 287.756 L2055.39 283.774 Q2053.84 286.135 2051.78 287.293 Q2049.75 288.427 2047.04 288.427 Q2042.57 288.427 2040.26 285.649 Q2037.94 282.871 2037.94 277.524 M2048.66 261.205 L2048.66 261.205 Z" fill="#000000" fill-rule="nonzero" fill-opacity="1" /><path clip-path="url(#clip220)" d="M2083.45 265.811 Q2082.73 265.395 2081.88 265.21 Q2081.04 265.001 2080.02 265.001 Q2076.41 265.001 2074.47 267.362 Q2072.55 269.7 2072.55 274.098 L2072.55 287.756 L2068.26 287.756 L2068.26 261.83 L2072.55 261.83 L2072.55 265.858 Q2073.89 263.497 2076.04 262.362 Q2078.19 261.205 2081.27 261.205 Q2081.71 261.205 2082.25 261.274 Q2082.78 261.321 2083.43 261.436 L2083.45 265.811 Z" fill="#000000" fill-rule="nonzero" fill-opacity="1" /><path clip-path="url(#clip220)" d="M2109.05 273.728 L2109.05 275.811 L2089.47 275.811 Q2089.75 280.209 2092.11 282.524 Q2094.49 284.816 2098.73 284.816 Q2101.18 284.816 2103.47 284.214 Q2105.79 283.612 2108.06 282.409 L2108.06 286.436 Q2105.76 287.408 2103.36 287.918 Q2100.95 288.427 2098.47 288.427 Q2092.27 288.427 2088.63 284.816 Q2085.02 281.205 2085.02 275.047 Q2085.02 268.682 2088.45 264.955 Q2091.9 261.205 2097.73 261.205 Q2102.96 261.205 2106 264.585 Q2109.05 267.941 2109.05 273.728 M2104.79 272.478 Q2104.75 268.983 2102.82 266.899 Q2100.93 264.816 2097.78 264.816 Q2094.21 264.816 2092.06 266.83 Q2089.93 268.844 2089.61 272.501 L2104.79 272.478 Z" fill="#000000" fill-rule="nonzero" fill-opacity="1" /><path clip-path="url(#clip220)" d="M2136.23 266.807 Q2137.82 263.936 2140.05 262.571 Q2142.27 261.205 2145.28 261.205 Q2149.33 261.205 2151.53 264.052 Q2153.73 266.876 2153.73 272.108 L2153.73 287.756 L2149.44 287.756 L2149.44 272.247 Q2149.44 268.52 2148.12 266.714 Q2146.81 264.909 2144.1 264.909 Q2140.79 264.909 2138.87 267.108 Q2136.94 269.307 2136.94 273.103 L2136.94 287.756 L2132.66 287.756 L2132.66 272.247 Q2132.66 268.497 2131.34 266.714 Q2130.02 264.909 2127.27 264.909 Q2124 264.909 2122.08 267.131 Q2120.16 269.33 2120.16 273.103 L2120.16 287.756 L2115.88 287.756 L2115.88 261.83 L2120.16 261.83 L2120.16 265.858 Q2121.62 263.473 2123.66 262.339 Q2125.69 261.205 2128.5 261.205 Q2131.32 261.205 2133.29 262.64 Q2135.28 264.075 2136.23 266.807 Z" fill="#000000" fill-rule="nonzero" fill-opacity="1" /><path clip-path="url(#clip220)" d="M2184.4 273.728 L2184.4 275.811 L2164.81 275.811 Q2165.09 280.209 2167.45 282.524 Q2169.84 284.816 2174.07 284.816 Q2176.53 284.816 2178.82 284.214 Q2181.13 283.612 2183.4 282.409 L2183.4 286.436 Q2181.11 287.408 2178.7 287.918 Q2176.3 288.427 2173.82 288.427 Q2167.62 288.427 2163.98 284.816 Q2160.37 281.205 2160.37 275.047 Q2160.37 268.682 2163.8 264.955 Q2167.25 261.205 2173.08 261.205 Q2178.31 261.205 2181.34 264.585 Q2184.4 267.941 2184.4 273.728 M2180.14 272.478 Q2180.09 268.983 2178.17 266.899 Q2176.27 264.816 2173.12 264.816 Q2169.56 264.816 2167.41 266.83 Q2165.28 268.844 2164.95 272.501 L2180.14 272.478 Z" fill="#000000" fill-rule="nonzero" fill-opacity="1" /><path clip-path="url(#clip220)" d="M2212.94 272.108 L2212.94 287.756 L2208.68 287.756 L2208.68 272.247 Q2208.68 268.566 2207.25 266.737 Q2205.81 264.909 2202.94 264.909 Q2199.49 264.909 2197.5 267.108 Q2195.51 269.307 2195.51 273.103 L2195.51 287.756 L2191.23 287.756 L2191.23 261.83 L2195.51 261.83 L2195.51 265.858 Q2197.04 263.52 2199.1 262.362 Q2201.18 261.205 2203.89 261.205 Q2208.36 261.205 2210.65 263.983 Q2212.94 266.737 2212.94 272.108 Z" fill="#000000" fill-rule="nonzero" fill-opacity="1" /><path clip-path="url(#clip220)" d="M2225.65 254.469 L2225.65 261.83 L2234.42 261.83 L2234.42 265.14 L2225.65 265.14 L2225.65 279.214 Q2225.65 282.385 2226.5 283.288 Q2227.38 284.191 2230.05 284.191 L2234.42 284.191 L2234.42 287.756 L2230.05 287.756 Q2225.12 287.756 2223.24 285.927 Q2221.37 284.075 2221.37 279.214 L2221.37 265.14 L2218.24 265.14 L2218.24 261.83 L2221.37 261.83 L2221.37 254.469 L2225.65 254.469 Z" fill="#000000" fill-rule="nonzero" fill-opacity="1" /><path clip-path="url(#clip220)" d="M2256.55 262.594 L2256.55 266.622 Q2254.74 265.696 2252.8 265.233 Q2250.86 264.77 2248.77 264.77 Q2245.6 264.77 2244 265.742 Q2242.43 266.714 2242.43 268.659 Q2242.43 270.14 2243.56 270.997 Q2244.7 271.83 2248.12 272.594 L2249.58 272.918 Q2254.12 273.89 2256.02 275.672 Q2257.94 277.432 2257.94 280.603 Q2257.94 284.214 2255.07 286.321 Q2252.22 288.427 2247.22 288.427 Q2245.14 288.427 2242.87 288.01 Q2240.62 287.617 2238.12 286.807 L2238.12 282.409 Q2240.49 283.635 2242.78 284.26 Q2245.07 284.862 2247.31 284.862 Q2250.32 284.862 2251.94 283.844 Q2253.56 282.802 2253.56 280.927 Q2253.56 279.191 2252.38 278.265 Q2251.23 277.339 2247.27 276.483 L2245.79 276.135 Q2241.83 275.302 2240.07 273.589 Q2238.31 271.853 2238.31 268.844 Q2238.31 265.186 2240.9 263.196 Q2243.49 261.205 2248.26 261.205 Q2250.62 261.205 2252.71 261.552 Q2254.79 261.899 2256.55 262.594 Z" fill="#000000" fill-rule="nonzero" fill-opacity="1" /><circle clip-path="url(#clip220)" cx="1577.11" cy="322.316" r="20.9455" fill="#1e90ff" fill-rule="evenodd" fill-opacity="1" stroke="#000000" stroke-opacity="1" stroke-width="3.72364"/>
<path clip-path="url(#clip220)" d="M1671.92 305.036 L1676.62 305.036 L1676.62 326.031 Q1676.62 331.587 1678.64 334.04 Q1680.65 336.471 1685.16 336.471 Q1689.66 336.471 1691.67 334.04 Q1693.68 331.587 1693.68 326.031 L1693.68 305.036 L1698.38 305.036 L1698.38 326.61 Q1698.38 333.369 1695.03 336.818 Q1691.69 340.267 1685.16 340.267 Q1678.61 340.267 1675.26 336.818 Q1671.92 333.369 1671.92 326.61 L1671.92 305.036 Z" fill="#000000" fill-rule="nonzero" fill-opacity="1" /><path clip-path="url(#clip220)" d="M1723.5 314.434 L1723.5 318.462 Q1721.69 317.536 1719.75 317.073 Q1717.8 316.61 1715.72 316.61 Q1712.55 316.61 1710.95 317.582 Q1709.38 318.554 1709.38 320.499 Q1709.38 321.98 1710.51 322.837 Q1711.65 323.67 1715.07 324.434 L1716.53 324.758 Q1721.07 325.73 1722.97 327.512 Q1724.89 329.272 1724.89 332.443 Q1724.89 336.054 1722.02 338.161 Q1719.17 340.267 1714.17 340.267 Q1712.09 340.267 1709.82 339.85 Q1707.57 339.457 1705.07 338.647 L1705.07 334.249 Q1707.43 335.475 1709.72 336.1 Q1712.02 336.702 1714.26 336.702 Q1717.27 336.702 1718.89 335.684 Q1720.51 334.642 1720.51 332.767 Q1720.51 331.031 1719.33 330.105 Q1718.17 329.179 1714.22 328.323 L1712.73 327.975 Q1708.78 327.142 1707.02 325.429 Q1705.26 323.693 1705.26 320.684 Q1705.26 317.026 1707.85 315.036 Q1710.44 313.045 1715.21 313.045 Q1717.57 313.045 1719.66 313.392 Q1721.74 313.739 1723.5 314.434 Z" fill="#000000" fill-rule="nonzero" fill-opacity="1" /><path clip-path="url(#clip220)" d="M1753.84 325.568 L1753.84 327.651 L1734.26 327.651 Q1734.54 332.049 1736.9 334.364 Q1739.28 336.656 1743.52 336.656 Q1745.97 336.656 1748.27 336.054 Q1750.58 335.452 1752.85 334.249 L1752.85 338.276 Q1750.56 339.248 1748.15 339.758 Q1745.74 340.267 1743.27 340.267 Q1737.06 340.267 1733.43 336.656 Q1729.82 333.045 1729.82 326.887 Q1729.82 320.522 1733.24 316.795 Q1736.69 313.045 1742.53 313.045 Q1747.76 313.045 1750.79 316.425 Q1753.84 319.781 1753.84 325.568 M1749.59 324.318 Q1749.54 320.823 1747.62 318.739 Q1745.72 316.656 1742.57 316.656 Q1739.01 316.656 1736.85 318.67 Q1734.72 320.684 1734.4 324.341 L1749.59 324.318 Z" fill="#000000" fill-rule="nonzero" fill-opacity="1" /><path clip-path="url(#clip220)" d="M1777.9 317.605 L1777.9 303.577 L1782.15 303.577 L1782.15 339.596 L1777.9 339.596 L1777.9 335.707 Q1776.55 338.022 1774.49 339.156 Q1772.46 340.267 1769.59 340.267 Q1764.89 340.267 1761.92 336.517 Q1758.98 332.767 1758.98 326.656 Q1758.98 320.545 1761.92 316.795 Q1764.89 313.045 1769.59 313.045 Q1772.46 313.045 1774.49 314.179 Q1776.55 315.29 1777.9 317.605 M1763.38 326.656 Q1763.38 331.355 1765.3 334.04 Q1767.25 336.702 1770.63 336.702 Q1774.01 336.702 1775.95 334.04 Q1777.9 331.355 1777.9 326.656 Q1777.9 321.957 1775.95 319.295 Q1774.01 316.61 1770.63 316.61 Q1767.25 316.61 1765.3 319.295 Q1763.38 321.957 1763.38 326.656 Z" fill="#000000" fill-rule="nonzero" fill-opacity="1" /><path clip-path="url(#clip220)" d="M1826.18 318.647 Q1827.78 315.776 1830 314.411 Q1832.22 313.045 1835.23 313.045 Q1839.28 313.045 1841.48 315.892 Q1843.68 318.716 1843.68 323.948 L1843.68 339.596 L1839.4 339.596 L1839.4 324.087 Q1839.4 320.36 1838.08 318.554 Q1836.76 316.749 1834.05 316.749 Q1830.74 316.749 1828.82 318.948 Q1826.9 321.147 1826.9 324.943 L1826.9 339.596 L1822.62 339.596 L1822.62 324.087 Q1822.62 320.337 1821.3 318.554 Q1819.98 316.749 1817.22 316.749 Q1813.96 316.749 1812.04 318.971 Q1810.12 321.17 1810.12 324.943 L1810.12 339.596 L1805.84 339.596 L1805.84 313.67 L1810.12 313.67 L1810.12 317.698 Q1811.58 315.313 1813.61 314.179 Q1815.65 313.045 1818.45 313.045 Q1821.27 313.045 1823.24 314.48 Q1825.23 315.915 1826.18 318.647 Z" fill="#000000" fill-rule="nonzero" fill-opacity="1" /><path clip-path="url(#clip220)" d="M1874.35 325.568 L1874.35 327.651 L1854.77 327.651 Q1855.05 332.049 1857.41 334.364 Q1859.79 336.656 1864.03 336.656 Q1866.48 336.656 1868.77 336.054 Q1871.09 335.452 1873.36 334.249 L1873.36 338.276 Q1871.07 339.248 1868.66 339.758 Q1866.25 340.267 1863.77 340.267 Q1857.57 340.267 1853.94 336.656 Q1850.33 333.045 1850.33 326.887 Q1850.33 320.522 1853.75 316.795 Q1857.2 313.045 1863.03 313.045 Q1868.27 313.045 1871.3 316.425 Q1874.35 319.781 1874.35 325.568 M1870.09 324.318 Q1870.05 320.823 1868.13 318.739 Q1866.23 316.656 1863.08 316.656 Q1859.52 316.656 1857.36 318.67 Q1855.23 320.684 1854.91 324.341 L1870.09 324.318 Z" fill="#000000" fill-rule="nonzero" fill-opacity="1" /><path clip-path="url(#clip220)" d="M1893.13 326.563 Q1887.96 326.563 1885.97 327.744 Q1883.98 328.924 1883.98 331.772 Q1883.98 334.04 1885.46 335.383 Q1886.97 336.702 1889.54 336.702 Q1893.08 336.702 1895.21 334.202 Q1897.36 331.679 1897.36 327.512 L1897.36 326.563 L1893.13 326.563 M1901.62 324.804 L1901.62 339.596 L1897.36 339.596 L1897.36 335.661 Q1895.9 338.022 1893.73 339.156 Q1891.55 340.267 1888.4 340.267 Q1884.42 340.267 1882.06 338.045 Q1879.72 335.799 1879.72 332.049 Q1879.72 327.674 1882.64 325.452 Q1885.58 323.23 1891.39 323.23 L1897.36 323.23 L1897.36 322.813 Q1897.36 319.874 1895.42 318.276 Q1893.5 316.656 1890 316.656 Q1887.78 316.656 1885.67 317.188 Q1883.57 317.721 1881.62 318.786 L1881.62 314.85 Q1883.96 313.948 1886.16 313.508 Q1888.36 313.045 1890.44 313.045 Q1896.07 313.045 1898.84 315.962 Q1901.62 318.878 1901.62 324.804 Z" fill="#000000" fill-rule="nonzero" fill-opacity="1" /><path clip-path="url(#clip220)" d="M1926.92 314.434 L1926.92 318.462 Q1925.12 317.536 1923.17 317.073 Q1921.23 316.61 1919.14 316.61 Q1915.97 316.61 1914.38 317.582 Q1912.8 318.554 1912.8 320.499 Q1912.8 321.98 1913.94 322.837 Q1915.07 323.67 1918.5 324.434 L1919.95 324.758 Q1924.49 325.73 1926.39 327.512 Q1928.31 329.272 1928.31 332.443 Q1928.31 336.054 1925.44 338.161 Q1922.59 340.267 1917.59 340.267 Q1915.51 340.267 1913.24 339.85 Q1911 339.457 1908.5 338.647 L1908.5 334.249 Q1910.86 335.475 1913.15 336.1 Q1915.44 336.702 1917.69 336.702 Q1920.7 336.702 1922.32 335.684 Q1923.94 334.642 1923.94 332.767 Q1923.94 331.031 1922.76 330.105 Q1921.6 329.179 1917.64 328.323 L1916.16 327.975 Q1912.2 327.142 1910.44 325.429 Q1908.68 323.693 1908.68 320.684 Q1908.68 317.026 1911.27 315.036 Q1913.87 313.045 1918.64 313.045 Q1921 313.045 1923.08 313.392 Q1925.16 313.739 1926.92 314.434 Z" fill="#000000" fill-rule="nonzero" fill-opacity="1" /><path clip-path="url(#clip220)" d="M1934.65 329.364 L1934.65 313.67 L1938.91 313.67 L1938.91 329.202 Q1938.91 332.883 1940.35 334.735 Q1941.78 336.563 1944.65 336.563 Q1948.1 336.563 1950.09 334.364 Q1952.11 332.165 1952.11 328.369 L1952.11 313.67 L1956.37 313.67 L1956.37 339.596 L1952.11 339.596 L1952.11 335.614 Q1950.56 337.975 1948.5 339.133 Q1946.46 340.267 1943.75 340.267 Q1939.28 340.267 1936.97 337.489 Q1934.65 334.711 1934.65 329.364 M1945.37 313.045 L1945.37 313.045 Z" fill="#000000" fill-rule="nonzero" fill-opacity="1" /><path clip-path="url(#clip220)" d="M1980.16 317.651 Q1979.45 317.235 1978.59 317.05 Q1977.76 316.841 1976.74 316.841 Q1973.13 316.841 1971.18 319.202 Q1969.26 321.54 1969.26 325.938 L1969.26 339.596 L1964.98 339.596 L1964.98 313.67 L1969.26 313.67 L1969.26 317.698 Q1970.6 315.337 1972.76 314.202 Q1974.91 313.045 1977.99 313.045 Q1978.43 313.045 1978.96 313.114 Q1979.49 313.161 1980.14 313.276 L1980.16 317.651 Z" fill="#000000" fill-rule="nonzero" fill-opacity="1" /><path clip-path="url(#clip220)" d="M2005.76 325.568 L2005.76 327.651 L1986.18 327.651 Q1986.46 332.049 1988.82 334.364 Q1991.2 336.656 1995.44 336.656 Q1997.89 336.656 2000.19 336.054 Q2002.5 335.452 2004.77 334.249 L2004.77 338.276 Q2002.48 339.248 2000.07 339.758 Q1997.66 340.267 1995.19 340.267 Q1988.98 340.267 1985.35 336.656 Q1981.74 333.045 1981.74 326.887 Q1981.74 320.522 1985.16 316.795 Q1988.61 313.045 1994.45 313.045 Q1999.68 313.045 2002.71 316.425 Q2005.76 319.781 2005.76 325.568 M2001.51 324.318 Q2001.46 320.823 1999.54 318.739 Q1997.64 316.656 1994.49 316.656 Q1990.93 316.656 1988.77 318.67 Q1986.64 320.684 1986.32 324.341 L2001.51 324.318 Z" fill="#000000" fill-rule="nonzero" fill-opacity="1" /><path clip-path="url(#clip220)" d="M2032.94 318.647 Q2034.54 315.776 2036.76 314.411 Q2038.98 313.045 2041.99 313.045 Q2046.04 313.045 2048.24 315.892 Q2050.44 318.716 2050.44 323.948 L2050.44 339.596 L2046.16 339.596 L2046.16 324.087 Q2046.16 320.36 2044.84 318.554 Q2043.52 316.749 2040.81 316.749 Q2037.5 316.749 2035.58 318.948 Q2033.66 321.147 2033.66 324.943 L2033.66 339.596 L2029.38 339.596 L2029.38 324.087 Q2029.38 320.337 2028.06 318.554 Q2026.74 316.749 2023.98 316.749 Q2020.72 316.749 2018.8 318.971 Q2016.88 321.17 2016.88 324.943 L2016.88 339.596 L2012.59 339.596 L2012.59 313.67 L2016.88 313.67 L2016.88 317.698 Q2018.33 315.313 2020.37 314.179 Q2022.41 313.045 2025.21 313.045 Q2028.03 313.045 2030 314.48 Q2031.99 315.915 2032.94 318.647 Z" fill="#000000" fill-rule="nonzero" fill-opacity="1" /><path clip-path="url(#clip220)" d="M2081.11 325.568 L2081.11 327.651 L2061.53 327.651 Q2061.81 332.049 2064.17 334.364 Q2066.55 336.656 2070.79 336.656 Q2073.24 336.656 2075.53 336.054 Q2077.85 335.452 2080.12 334.249 L2080.12 338.276 Q2077.82 339.248 2075.42 339.758 Q2073.01 340.267 2070.53 340.267 Q2064.33 340.267 2060.69 336.656 Q2057.08 333.045 2057.08 326.887 Q2057.08 320.522 2060.51 316.795 Q2063.96 313.045 2069.79 313.045 Q2075.02 313.045 2078.06 316.425 Q2081.11 319.781 2081.11 325.568 M2076.85 324.318 Q2076.81 320.823 2074.88 318.739 Q2072.99 316.656 2069.84 316.656 Q2066.27 316.656 2064.12 318.67 Q2061.99 320.684 2061.67 324.341 L2076.85 324.318 Z" fill="#000000" fill-rule="nonzero" fill-opacity="1" /><path clip-path="url(#clip220)" d="M2109.65 323.948 L2109.65 339.596 L2105.39 339.596 L2105.39 324.087 Q2105.39 320.406 2103.96 318.577 Q2102.52 316.749 2099.65 316.749 Q2096.2 316.749 2094.21 318.948 Q2092.22 321.147 2092.22 324.943 L2092.22 339.596 L2087.94 339.596 L2087.94 313.67 L2092.22 313.67 L2092.22 317.698 Q2093.75 315.36 2095.81 314.202 Q2097.89 313.045 2100.6 313.045 Q2105.07 313.045 2107.36 315.823 Q2109.65 318.577 2109.65 323.948 Z" fill="#000000" fill-rule="nonzero" fill-opacity="1" /><path clip-path="url(#clip220)" d="M2122.36 306.309 L2122.36 313.67 L2131.13 313.67 L2131.13 316.98 L2122.36 316.98 L2122.36 331.054 Q2122.36 334.225 2123.22 335.128 Q2124.1 336.031 2126.76 336.031 L2131.13 336.031 L2131.13 339.596 L2126.76 339.596 Q2121.83 339.596 2119.95 337.767 Q2118.08 335.915 2118.08 331.054 L2118.08 316.98 L2114.95 316.98 L2114.95 313.67 L2118.08 313.67 L2118.08 306.309 L2122.36 306.309 Z" fill="#000000" fill-rule="nonzero" fill-opacity="1" /><path clip-path="url(#clip220)" d="M2153.26 314.434 L2153.26 318.462 Q2151.46 317.536 2149.51 317.073 Q2147.57 316.61 2145.49 316.61 Q2142.31 316.61 2140.72 317.582 Q2139.14 318.554 2139.14 320.499 Q2139.14 321.98 2140.28 322.837 Q2141.41 323.67 2144.84 324.434 L2146.3 324.758 Q2150.83 325.73 2152.73 327.512 Q2154.65 329.272 2154.65 332.443 Q2154.65 336.054 2151.78 338.161 Q2148.94 340.267 2143.94 340.267 Q2141.85 340.267 2139.58 339.85 Q2137.34 339.457 2134.84 338.647 L2134.84 334.249 Q2137.2 335.475 2139.49 336.1 Q2141.78 336.702 2144.03 336.702 Q2147.04 336.702 2148.66 335.684 Q2150.28 334.642 2150.28 332.767 Q2150.28 331.031 2149.1 330.105 Q2147.94 329.179 2143.98 328.323 L2142.5 327.975 Q2138.54 327.142 2136.78 325.429 Q2135.02 323.693 2135.02 320.684 Q2135.02 317.026 2137.62 315.036 Q2140.21 313.045 2144.98 313.045 Q2147.34 313.045 2149.42 313.392 Q2151.5 313.739 2153.26 314.434 Z" fill="#000000" fill-rule="nonzero" fill-opacity="1" /></svg>
