<?xml version="1.0" encoding="utf-8"?>
<svg xmlns="http://www.w3.org/2000/svg" xmlns:xlink="http://www.w3.org/1999/xlink" width="900" height="550" viewBox="0 0 3600 2200">
<defs>
  <clipPath id="clip620">
    <rect x="0" y="0" width="3600" height="2200"/>
  </clipPath>
</defs>
<path clip-path="url(#clip620)" d="M0 2200 L3600 2200 L3600 0 L0 0  Z" fill="#ffffff" fill-rule="evenodd" fill-opacity="1"/>
<defs>
  <clipPath id="clip621">
    <rect x="227" y="47" width="3326" height="1978"/>
  </clipPath>
</defs>
<path clip-path="url(#clip620)" d="M227.906 2024.02 L3552.76 2024.02 L3552.76 47.2441 L227.906 47.2441  Z" fill="#ffffff" fill-rule="evenodd" fill-opacity="1"/>
<polyline clip-path="url(#clip621)" style="stroke:#000000; stroke-linecap:round; stroke-linejoin:round; stroke-width:2; stroke-opacity:0.1; fill:none" points="322.006,2024.02 322.006,47.2441 "/>
<polyline clip-path="url(#clip621)" style="stroke:#000000; stroke-linecap:round; stroke-linejoin:round; stroke-width:2; stroke-opacity:0.1; fill:none" points="997.038,2024.02 997.038,47.2441 "/>
<polyline clip-path="url(#clip621)" style="stroke:#000000; stroke-linecap:round; stroke-linejoin:round; stroke-width:2; stroke-opacity:0.1; fill:none" points="1672.07,2024.02 1672.07,47.2441 "/>
<polyline clip-path="url(#clip621)" style="stroke:#000000; stroke-linecap:round; stroke-linejoin:round; stroke-width:2; stroke-opacity:0.1; fill:none" points="2347.1,2024.02 2347.1,47.2441 "/>
<polyline clip-path="url(#clip621)" style="stroke:#000000; stroke-linecap:round; stroke-linejoin:round; stroke-width:2; stroke-opacity:0.1; fill:none" points="3022.14,2024.02 3022.14,47.2441 "/>
<polyline clip-path="url(#clip621)" style="stroke:#000000; stroke-linecap:round; stroke-linejoin:round; stroke-width:2; stroke-opacity:0.1; fill:none" points="227.906,1968.07 3552.76,1968.07 "/>
<polyline clip-path="url(#clip621)" style="stroke:#000000; stroke-linecap:round; stroke-linejoin:round; stroke-width:2; stroke-opacity:0.1; fill:none" points="227.906,1666.96 3552.76,1666.96 "/>
<polyline clip-path="url(#clip621)" style="stroke:#000000; stroke-linecap:round; stroke-linejoin:round; stroke-width:2; stroke-opacity:0.1; fill:none" points="227.906,1365.85 3552.76,1365.85 "/>
<polyline clip-path="url(#clip621)" style="stroke:#000000; stroke-linecap:round; stroke-linejoin:round; stroke-width:2; stroke-opacity:0.1; fill:none" points="227.906,1064.74 3552.76,1064.74 "/>
<polyline clip-path="url(#clip621)" style="stroke:#000000; stroke-linecap:round; stroke-linejoin:round; stroke-width:2; stroke-opacity:0.1; fill:none" points="227.906,763.622 3552.76,763.622 "/>
<polyline clip-path="url(#clip621)" style="stroke:#000000; stroke-linecap:round; stroke-linejoin:round; stroke-width:2; stroke-opacity:0.1; fill:none" points="227.906,462.51 3552.76,462.51 "/>
<polyline clip-path="url(#clip621)" style="stroke:#000000; stroke-linecap:round; stroke-linejoin:round; stroke-width:2; stroke-opacity:0.1; fill:none" points="227.906,161.397 3552.76,161.397 "/>
<polyline clip-path="url(#clip620)" style="stroke:#000000; stroke-linecap:round; stroke-linejoin:round; stroke-width:4; stroke-opacity:1; fill:none" points="227.906,2024.02 3552.76,2024.02 "/>
<polyline clip-path="url(#clip620)" style="stroke:#000000; stroke-linecap:round; stroke-linejoin:round; stroke-width:4; stroke-opacity:1; fill:none" points="322.006,2024.02 322.006,2005.12 "/>
<polyline clip-path="url(#clip620)" style="stroke:#000000; stroke-linecap:round; stroke-linejoin:round; stroke-width:4; stroke-opacity:1; fill:none" points="997.038,2024.02 997.038,2005.12 "/>
<polyline clip-path="url(#clip620)" style="stroke:#000000; stroke-linecap:round; stroke-linejoin:round; stroke-width:4; stroke-opacity:1; fill:none" points="1672.07,2024.02 1672.07,2005.12 "/>
<polyline clip-path="url(#clip620)" style="stroke:#000000; stroke-linecap:round; stroke-linejoin:round; stroke-width:4; stroke-opacity:1; fill:none" points="2347.1,2024.02 2347.1,2005.12 "/>
<polyline clip-path="url(#clip620)" style="stroke:#000000; stroke-linecap:round; stroke-linejoin:round; stroke-width:4; stroke-opacity:1; fill:none" points="3022.14,2024.02 3022.14,2005.12 "/>
<path clip-path="url(#clip620)" d="M322.006 2064.54 Q318.395 2064.54 316.566 2068.1 Q314.76 2071.64 314.76 2078.77 Q314.76 2085.88 316.566 2089.45 Q318.395 2092.99 322.006 2092.99 Q325.64 2092.99 327.446 2089.45 Q329.274 2085.88 329.274 2078.77 Q329.274 2071.64 327.446 2068.1 Q325.64 2064.54 322.006 2064.54 M322.006 2060.83 Q327.816 2060.83 330.871 2065.44 Q333.95 2070.02 333.95 2078.77 Q333.95 2087.5 330.871 2092.11 Q327.816 2096.69 322.006 2096.69 Q316.196 2096.69 313.117 2092.11 Q310.061 2087.5 310.061 2078.77 Q310.061 2070.02 313.117 2065.44 Q316.196 2060.83 322.006 2060.83 Z" fill="#000000" fill-rule="nonzero" fill-opacity="1" /><path clip-path="url(#clip620)" d="M975.811 2092.08 L992.131 2092.08 L992.131 2096.02 L970.186 2096.02 L970.186 2092.08 Q972.849 2089.33 977.432 2084.7 Q982.038 2080.05 983.219 2078.71 Q985.464 2076.18 986.344 2074.45 Q987.247 2072.69 987.247 2071 Q987.247 2068.24 985.302 2066.51 Q983.381 2064.77 980.279 2064.77 Q978.08 2064.77 975.626 2065.53 Q973.196 2066.3 970.418 2067.85 L970.418 2063.13 Q973.242 2061.99 975.696 2061.41 Q978.149 2060.83 980.186 2060.83 Q985.557 2060.83 988.751 2063.52 Q991.946 2066.21 991.946 2070.7 Q991.946 2072.83 991.135 2074.75 Q990.348 2076.64 988.242 2079.24 Q987.663 2079.91 984.561 2083.13 Q981.46 2086.32 975.811 2092.08 Z" fill="#000000" fill-rule="nonzero" fill-opacity="1" /><path clip-path="url(#clip620)" d="M1011.95 2064.54 Q1008.33 2064.54 1006.51 2068.1 Q1004.7 2071.64 1004.7 2078.77 Q1004.7 2085.88 1006.51 2089.45 Q1008.33 2092.99 1011.95 2092.99 Q1015.58 2092.99 1017.39 2089.45 Q1019.21 2085.88 1019.21 2078.77 Q1019.21 2071.64 1017.39 2068.1 Q1015.58 2064.54 1011.95 2064.54 M1011.95 2060.83 Q1017.76 2060.83 1020.81 2065.44 Q1023.89 2070.02 1023.89 2078.77 Q1023.89 2087.5 1020.81 2092.11 Q1017.76 2096.69 1011.95 2096.69 Q1006.14 2096.69 1003.06 2092.11 Q1000 2087.5 1000 2078.77 Q1000 2070.02 1003.06 2065.44 Q1006.14 2060.83 1011.95 2060.83 Z" fill="#000000" fill-rule="nonzero" fill-opacity="1" /><path clip-path="url(#clip620)" d="M1660.24 2065.53 L1648.44 2083.98 L1660.24 2083.98 L1660.24 2065.53 M1659.02 2061.46 L1664.89 2061.46 L1664.89 2083.98 L1669.83 2083.98 L1669.83 2087.87 L1664.89 2087.87 L1664.89 2096.02 L1660.24 2096.02 L1660.24 2087.87 L1644.64 2087.87 L1644.64 2083.36 L1659.02 2061.46 Z" fill="#000000" fill-rule="nonzero" fill-opacity="1" /><path clip-path="url(#clip620)" d="M1687.56 2064.54 Q1683.95 2064.54 1682.12 2068.1 Q1680.31 2071.64 1680.31 2078.77 Q1680.31 2085.88 1682.12 2089.45 Q1683.95 2092.99 1687.56 2092.99 Q1691.19 2092.99 1693 2089.45 Q1694.83 2085.88 1694.83 2078.77 Q1694.83 2071.64 1693 2068.1 Q1691.19 2064.54 1687.56 2064.54 M1687.56 2060.83 Q1693.37 2060.83 1696.42 2065.44 Q1699.5 2070.02 1699.5 2078.77 Q1699.5 2087.5 1696.42 2092.11 Q1693.37 2096.69 1687.56 2096.69 Q1681.75 2096.69 1678.67 2092.11 Q1675.61 2087.5 1675.61 2078.77 Q1675.61 2070.02 1678.67 2065.44 Q1681.75 2060.83 1687.56 2060.83 Z" fill="#000000" fill-rule="nonzero" fill-opacity="1" /><path clip-path="url(#clip620)" d="M2332.51 2076.88 Q2329.36 2076.88 2327.51 2079.03 Q2325.68 2081.18 2325.68 2084.93 Q2325.68 2088.66 2327.51 2090.83 Q2329.36 2092.99 2332.51 2092.99 Q2335.66 2092.99 2337.49 2090.83 Q2339.34 2088.66 2339.34 2084.93 Q2339.34 2081.18 2337.49 2079.03 Q2335.66 2076.88 2332.51 2076.88 M2341.79 2062.22 L2341.79 2066.48 Q2340.03 2065.65 2338.23 2065.21 Q2336.44 2064.77 2334.68 2064.77 Q2330.05 2064.77 2327.6 2067.89 Q2325.17 2071.02 2324.82 2077.34 Q2326.19 2075.33 2328.25 2074.26 Q2330.31 2073.17 2332.79 2073.17 Q2337.99 2073.17 2341 2076.34 Q2344.04 2079.49 2344.04 2084.93 Q2344.04 2090.26 2340.89 2093.47 Q2337.74 2096.69 2332.51 2096.69 Q2326.51 2096.69 2323.34 2092.11 Q2320.17 2087.5 2320.17 2078.77 Q2320.17 2070.58 2324.06 2065.72 Q2327.95 2060.83 2334.5 2060.83 Q2336.26 2060.83 2338.04 2061.18 Q2339.85 2061.53 2341.79 2062.22 Z" fill="#000000" fill-rule="nonzero" fill-opacity="1" /><path clip-path="url(#clip620)" d="M2362.09 2064.54 Q2358.48 2064.54 2356.65 2068.1 Q2354.85 2071.64 2354.85 2078.77 Q2354.85 2085.88 2356.65 2089.45 Q2358.48 2092.99 2362.09 2092.99 Q2365.73 2092.99 2367.53 2089.45 Q2369.36 2085.88 2369.36 2078.77 Q2369.36 2071.64 2367.53 2068.1 Q2365.73 2064.54 2362.09 2064.54 M2362.09 2060.83 Q2367.9 2060.83 2370.96 2065.44 Q2374.04 2070.02 2374.04 2078.77 Q2374.04 2087.5 2370.96 2092.11 Q2367.9 2096.69 2362.09 2096.69 Q2356.28 2096.69 2353.2 2092.11 Q2350.15 2087.5 2350.15 2078.77 Q2350.15 2070.02 2353.2 2065.44 Q2356.28 2060.83 2362.09 2060.83 Z" fill="#000000" fill-rule="nonzero" fill-opacity="1" /><path clip-path="url(#clip620)" d="M3007.01 2079.61 Q3003.67 2079.61 3001.75 2081.39 Q2999.86 2083.17 2999.86 2086.3 Q2999.86 2089.42 3001.75 2091.21 Q3003.67 2092.99 3007.01 2092.99 Q3010.34 2092.99 3012.26 2091.21 Q3014.18 2089.4 3014.18 2086.3 Q3014.18 2083.17 3012.26 2081.39 Q3010.36 2079.61 3007.01 2079.61 M3002.33 2077.62 Q2999.32 2076.88 2997.63 2074.82 Q2995.97 2072.76 2995.97 2069.79 Q2995.97 2065.65 2998.91 2063.24 Q3001.87 2060.83 3007.01 2060.83 Q3012.17 2060.83 3015.11 2063.24 Q3018.05 2065.65 3018.05 2069.79 Q3018.05 2072.76 3016.36 2074.82 Q3014.69 2076.88 3011.71 2077.62 Q3015.09 2078.4 3016.96 2080.7 Q3018.86 2082.99 3018.86 2086.3 Q3018.86 2091.32 3015.78 2094.01 Q3012.73 2096.69 3007.01 2096.69 Q3001.29 2096.69 2998.21 2094.01 Q2995.16 2091.32 2995.16 2086.3 Q2995.16 2082.99 2997.05 2080.7 Q2998.95 2078.4 3002.33 2077.62 M3000.62 2070.23 Q3000.62 2072.92 3002.29 2074.42 Q3003.98 2075.93 3007.01 2075.93 Q3010.02 2075.93 3011.71 2074.42 Q3013.42 2072.92 3013.42 2070.23 Q3013.42 2067.55 3011.71 2066.04 Q3010.02 2064.54 3007.01 2064.54 Q3003.98 2064.54 3002.29 2066.04 Q3000.62 2067.55 3000.62 2070.23 Z" fill="#000000" fill-rule="nonzero" fill-opacity="1" /><path clip-path="url(#clip620)" d="M3037.17 2064.54 Q3033.56 2064.54 3031.73 2068.1 Q3029.92 2071.64 3029.92 2078.77 Q3029.92 2085.88 3031.73 2089.45 Q3033.56 2092.99 3037.17 2092.99 Q3040.8 2092.99 3042.61 2089.45 Q3044.44 2085.88 3044.44 2078.77 Q3044.44 2071.64 3042.61 2068.1 Q3040.8 2064.54 3037.17 2064.54 M3037.17 2060.83 Q3042.98 2060.83 3046.04 2065.44 Q3049.11 2070.02 3049.11 2078.77 Q3049.11 2087.5 3046.04 2092.11 Q3042.98 2096.69 3037.17 2096.69 Q3031.36 2096.69 3028.28 2092.11 Q3025.23 2087.5 3025.23 2078.77 Q3025.23 2070.02 3028.28 2065.44 Q3031.36 2060.83 3037.17 2060.83 Z" fill="#000000" fill-rule="nonzero" fill-opacity="1" /><path clip-path="url(#clip620)" d="M1756.83 2139.36 L1797.03 2139.36 L1797.03 2144.77 L1780.16 2144.77 L1780.16 2186.88 L1773.7 2186.88 L1773.7 2144.77 L1756.83 2144.77 L1756.83 2139.36 Z" fill="#000000" fill-rule="nonzero" fill-opacity="1" /><path clip-path="url(#clip620)" d="M1800.97 2151.24 L1806.83 2151.24 L1806.83 2186.88 L1800.97 2186.88 L1800.97 2151.24 M1800.97 2137.36 L1806.83 2137.36 L1806.83 2144.77 L1800.97 2144.77 L1800.97 2137.36 Z" fill="#000000" fill-rule="nonzero" fill-opacity="1" /><path clip-path="url(#clip620)" d="M1846.84 2158.08 Q1849.03 2154.13 1852.09 2152.25 Q1855.14 2150.38 1859.28 2150.38 Q1864.85 2150.38 1867.88 2154.29 Q1870.9 2158.17 1870.9 2165.37 L1870.9 2186.88 L1865.01 2186.88 L1865.01 2165.56 Q1865.01 2160.43 1863.2 2157.95 Q1861.38 2155.47 1857.66 2155.47 Q1853.11 2155.47 1850.47 2158.49 Q1847.82 2161.52 1847.82 2166.74 L1847.82 2186.88 L1841.94 2186.88 L1841.94 2165.56 Q1841.94 2160.4 1840.12 2157.95 Q1838.31 2155.47 1834.52 2155.47 Q1830.03 2155.47 1827.39 2158.52 Q1824.75 2161.55 1824.75 2166.74 L1824.75 2186.88 L1818.86 2186.88 L1818.86 2151.24 L1824.75 2151.24 L1824.75 2156.77 Q1826.75 2153.5 1829.55 2151.94 Q1832.36 2150.38 1836.21 2150.38 Q1840.09 2150.38 1842.8 2152.35 Q1845.53 2154.32 1846.84 2158.08 Z" fill="#000000" fill-rule="nonzero" fill-opacity="1" /><path clip-path="url(#clip620)" d="M1913.07 2167.6 L1913.07 2170.46 L1886.15 2170.46 Q1886.53 2176.51 1889.77 2179.69 Q1893.05 2182.84 1898.88 2182.84 Q1902.25 2182.84 1905.4 2182.01 Q1908.58 2181.19 1911.7 2179.53 L1911.7 2185.07 Q1908.55 2186.41 1905.24 2187.11 Q1901.93 2187.81 1898.53 2187.81 Q1890 2187.81 1885 2182.84 Q1880.03 2177.88 1880.03 2169.41 Q1880.03 2160.66 1884.75 2155.53 Q1889.49 2150.38 1897.51 2150.38 Q1904.7 2150.38 1908.87 2155.02 Q1913.07 2159.64 1913.07 2167.6 M1907.22 2165.88 Q1907.15 2161.07 1904.51 2158.21 Q1901.9 2155.34 1897.57 2155.34 Q1892.67 2155.34 1889.71 2158.11 Q1886.78 2160.88 1886.34 2165.91 L1907.22 2165.88 Z" fill="#000000" fill-rule="nonzero" fill-opacity="1" /><path clip-path="url(#clip620)" d="M1957.47 2137.42 Q1953.21 2144.74 1951.14 2151.9 Q1949.07 2159.07 1949.07 2166.42 Q1949.07 2173.77 1951.14 2181 Q1953.24 2188.19 1957.47 2195.48 L1952.38 2195.48 Q1947.61 2188 1945.22 2180.77 Q1942.86 2173.55 1942.86 2166.42 Q1942.86 2159.32 1945.22 2152.13 Q1947.57 2144.93 1952.38 2137.42 L1957.47 2137.42 Z" fill="#000000" fill-rule="nonzero" fill-opacity="1" /><path clip-path="url(#clip620)" d="M1998.47 2165.37 L1998.47 2186.88 L1992.61 2186.88 L1992.61 2165.56 Q1992.61 2160.5 1990.64 2157.98 Q1988.67 2155.47 1984.72 2155.47 Q1979.98 2155.47 1977.24 2158.49 Q1974.5 2161.52 1974.5 2166.74 L1974.5 2186.88 L1968.61 2186.88 L1968.61 2137.36 L1974.5 2137.36 L1974.5 2156.77 Q1976.6 2153.56 1979.44 2151.97 Q1982.3 2150.38 1986.02 2150.38 Q1992.17 2150.38 1995.32 2154.2 Q1998.47 2157.98 1998.47 2165.37 Z" fill="#000000" fill-rule="nonzero" fill-opacity="1" /><path clip-path="url(#clip620)" d="M2009.23 2137.42 L2014.32 2137.42 Q2019.09 2144.93 2021.45 2152.13 Q2023.84 2159.32 2023.84 2166.42 Q2023.84 2173.55 2021.45 2180.77 Q2019.09 2188 2014.32 2195.48 L2009.23 2195.48 Q2013.46 2188.19 2015.53 2181 Q2017.63 2173.77 2017.63 2166.42 Q2017.63 2159.07 2015.53 2151.9 Q2013.46 2144.74 2009.23 2137.42 Z" fill="#000000" fill-rule="nonzero" fill-opacity="1" /><polyline clip-path="url(#clip620)" style="stroke:#000000; stroke-linecap:round; stroke-linejoin:round; stroke-width:4; stroke-opacity:1; fill:none" points="227.906,2024.02 227.906,47.2441 "/>
<polyline clip-path="url(#clip620)" style="stroke:#000000; stroke-linecap:round; stroke-linejoin:round; stroke-width:4; stroke-opacity:1; fill:none" points="227.906,1968.07 246.804,1968.07 "/>
<polyline clip-path="url(#clip620)" style="stroke:#000000; stroke-linecap:round; stroke-linejoin:round; stroke-width:4; stroke-opacity:1; fill:none" points="227.906,1666.96 246.804,1666.96 "/>
<polyline clip-path="url(#clip620)" style="stroke:#000000; stroke-linecap:round; stroke-linejoin:round; stroke-width:4; stroke-opacity:1; fill:none" points="227.906,1365.85 246.804,1365.85 "/>
<polyline clip-path="url(#clip620)" style="stroke:#000000; stroke-linecap:round; stroke-linejoin:round; stroke-width:4; stroke-opacity:1; fill:none" points="227.906,1064.74 246.804,1064.74 "/>
<polyline clip-path="url(#clip620)" style="stroke:#000000; stroke-linecap:round; stroke-linejoin:round; stroke-width:4; stroke-opacity:1; fill:none" points="227.906,763.622 246.804,763.622 "/>
<polyline clip-path="url(#clip620)" style="stroke:#000000; stroke-linecap:round; stroke-linejoin:round; stroke-width:4; stroke-opacity:1; fill:none" points="227.906,462.51 246.804,462.51 "/>
<polyline clip-path="url(#clip620)" style="stroke:#000000; stroke-linecap:round; stroke-linejoin:round; stroke-width:4; stroke-opacity:1; fill:none" points="227.906,161.397 246.804,161.397 "/>
<path clip-path="url(#clip620)" d="M116.731 1953.87 Q113.12 1953.87 111.291 1957.44 Q109.485 1960.98 109.485 1968.11 Q109.485 1975.21 111.291 1978.78 Q113.12 1982.32 116.731 1982.32 Q120.365 1982.32 122.17 1978.78 Q123.999 1975.21 123.999 1968.11 Q123.999 1960.98 122.17 1957.44 Q120.365 1953.87 116.731 1953.87 M116.731 1950.17 Q122.541 1950.17 125.596 1954.77 Q128.675 1959.36 128.675 1968.11 Q128.675 1976.83 125.596 1981.44 Q122.541 1986.02 116.731 1986.02 Q110.92 1986.02 107.842 1981.44 Q104.786 1976.83 104.786 1968.11 Q104.786 1959.36 107.842 1954.77 Q110.92 1950.17 116.731 1950.17 Z" fill="#000000" fill-rule="nonzero" fill-opacity="1" /><path clip-path="url(#clip620)" d="M136.893 1979.47 L141.777 1979.47 L141.777 1985.35 L136.893 1985.35 L136.893 1979.47 Z" fill="#000000" fill-rule="nonzero" fill-opacity="1" /><path clip-path="url(#clip620)" d="M161.962 1953.87 Q158.351 1953.87 156.522 1957.44 Q154.717 1960.98 154.717 1968.11 Q154.717 1975.21 156.522 1978.78 Q158.351 1982.32 161.962 1982.32 Q165.596 1982.32 167.402 1978.78 Q169.23 1975.21 169.23 1968.11 Q169.23 1960.98 167.402 1957.44 Q165.596 1953.87 161.962 1953.87 M161.962 1950.17 Q167.772 1950.17 170.828 1954.77 Q173.906 1959.36 173.906 1968.11 Q173.906 1976.83 170.828 1981.44 Q167.772 1986.02 161.962 1986.02 Q156.152 1986.02 153.073 1981.44 Q150.018 1976.83 150.018 1968.11 Q150.018 1959.36 153.073 1954.77 Q156.152 1950.17 161.962 1950.17 Z" fill="#000000" fill-rule="nonzero" fill-opacity="1" /><path clip-path="url(#clip620)" d="M117.957 1652.76 Q114.346 1652.76 112.518 1656.32 Q110.712 1659.87 110.712 1667 Q110.712 1674.1 112.518 1677.67 Q114.346 1681.21 117.957 1681.21 Q121.592 1681.21 123.397 1677.67 Q125.226 1674.1 125.226 1667 Q125.226 1659.87 123.397 1656.32 Q121.592 1652.76 117.957 1652.76 M117.957 1649.06 Q123.768 1649.06 126.823 1653.66 Q129.902 1658.25 129.902 1667 Q129.902 1675.72 126.823 1680.33 Q123.768 1684.91 117.957 1684.91 Q112.147 1684.91 109.069 1680.33 Q106.013 1675.72 106.013 1667 Q106.013 1658.25 109.069 1653.66 Q112.147 1649.06 117.957 1649.06 Z" fill="#000000" fill-rule="nonzero" fill-opacity="1" /><path clip-path="url(#clip620)" d="M138.119 1678.36 L143.004 1678.36 L143.004 1684.24 L138.119 1684.24 L138.119 1678.36 Z" fill="#000000" fill-rule="nonzero" fill-opacity="1" /><path clip-path="url(#clip620)" d="M153.999 1680.31 L161.638 1680.31 L161.638 1653.94 L153.328 1655.61 L153.328 1651.35 L161.592 1649.68 L166.267 1649.68 L166.267 1680.31 L173.906 1680.31 L173.906 1684.24 L153.999 1684.24 L153.999 1680.31 Z" fill="#000000" fill-rule="nonzero" fill-opacity="1" /><path clip-path="url(#clip620)" d="M118.328 1351.65 Q114.717 1351.65 112.888 1355.21 Q111.083 1358.75 111.083 1365.88 Q111.083 1372.99 112.888 1376.55 Q114.717 1380.1 118.328 1380.1 Q121.962 1380.1 123.768 1376.55 Q125.596 1372.99 125.596 1365.88 Q125.596 1358.75 123.768 1355.21 Q121.962 1351.65 118.328 1351.65 M118.328 1347.94 Q124.138 1347.94 127.194 1352.55 Q130.272 1357.13 130.272 1365.88 Q130.272 1374.61 127.194 1379.22 Q124.138 1383.8 118.328 1383.8 Q112.518 1383.8 109.439 1379.22 Q106.383 1374.61 106.383 1365.88 Q106.383 1357.13 109.439 1352.55 Q112.518 1347.94 118.328 1347.94 Z" fill="#000000" fill-rule="nonzero" fill-opacity="1" /><path clip-path="url(#clip620)" d="M138.49 1377.25 L143.374 1377.25 L143.374 1383.13 L138.49 1383.13 L138.49 1377.25 Z" fill="#000000" fill-rule="nonzero" fill-opacity="1" /><path clip-path="url(#clip620)" d="M157.587 1379.19 L173.906 1379.19 L173.906 1383.13 L151.962 1383.13 L151.962 1379.19 Q154.624 1376.44 159.207 1371.81 Q163.814 1367.16 164.994 1365.81 Q167.24 1363.29 168.119 1361.55 Q169.022 1359.79 169.022 1358.1 Q169.022 1355.35 167.078 1353.61 Q165.156 1351.88 162.054 1351.88 Q159.855 1351.88 157.402 1352.64 Q154.971 1353.41 152.193 1354.96 L152.193 1350.23 Q155.017 1349.1 157.471 1348.52 Q159.925 1347.94 161.962 1347.94 Q167.332 1347.94 170.527 1350.63 Q173.721 1353.31 173.721 1357.8 Q173.721 1359.93 172.911 1361.85 Q172.124 1363.75 170.017 1366.35 Q169.439 1367.02 166.337 1370.23 Q163.235 1373.43 157.587 1379.19 Z" fill="#000000" fill-rule="nonzero" fill-opacity="1" /><path clip-path="url(#clip620)" d="M117.379 1050.53 Q113.768 1050.53 111.939 1054.1 Q110.133 1057.64 110.133 1064.77 Q110.133 1071.88 111.939 1075.44 Q113.768 1078.98 117.379 1078.98 Q121.013 1078.98 122.819 1075.44 Q124.647 1071.88 124.647 1064.77 Q124.647 1057.64 122.819 1054.1 Q121.013 1050.53 117.379 1050.53 M117.379 1046.83 Q123.189 1046.83 126.244 1051.44 Q129.323 1056.02 129.323 1064.77 Q129.323 1073.5 126.244 1078.1 Q123.189 1082.69 117.379 1082.69 Q111.569 1082.69 108.49 1078.1 Q105.434 1073.5 105.434 1064.77 Q105.434 1056.02 108.49 1051.44 Q111.569 1046.83 117.379 1046.83 Z" fill="#000000" fill-rule="nonzero" fill-opacity="1" /><path clip-path="url(#clip620)" d="M137.541 1076.14 L142.425 1076.14 L142.425 1082.02 L137.541 1082.02 L137.541 1076.14 Z" fill="#000000" fill-rule="nonzero" fill-opacity="1" /><path clip-path="url(#clip620)" d="M166.777 1063.38 Q170.133 1064.1 172.008 1066.37 Q173.906 1068.64 173.906 1071.97 Q173.906 1077.08 170.388 1079.89 Q166.869 1082.69 160.388 1082.69 Q158.212 1082.69 155.897 1082.25 Q153.605 1081.83 151.152 1080.97 L151.152 1076.46 Q153.096 1077.59 155.411 1078.17 Q157.726 1078.75 160.249 1078.75 Q164.647 1078.75 166.939 1077.02 Q169.254 1075.28 169.254 1071.97 Q169.254 1068.91 167.101 1067.2 Q164.971 1065.46 161.152 1065.46 L157.124 1065.46 L157.124 1061.62 L161.337 1061.62 Q164.786 1061.62 166.615 1060.26 Q168.443 1058.87 168.443 1056.27 Q168.443 1053.61 166.545 1052.2 Q164.67 1050.77 161.152 1050.77 Q159.23 1050.77 157.031 1051.18 Q154.832 1051.6 152.193 1052.48 L152.193 1048.31 Q154.855 1047.57 157.17 1047.2 Q159.508 1046.83 161.568 1046.83 Q166.892 1046.83 169.994 1049.26 Q173.096 1051.67 173.096 1055.79 Q173.096 1058.66 171.453 1060.65 Q169.809 1062.62 166.777 1063.38 Z" fill="#000000" fill-rule="nonzero" fill-opacity="1" /><path clip-path="url(#clip620)" d="M116.245 749.421 Q112.633 749.421 110.805 752.986 Q108.999 756.528 108.999 763.657 Q108.999 770.764 110.805 774.328 Q112.633 777.87 116.245 777.87 Q119.879 777.87 121.684 774.328 Q123.513 770.764 123.513 763.657 Q123.513 756.528 121.684 752.986 Q119.879 749.421 116.245 749.421 M116.245 745.717 Q122.055 745.717 125.11 750.324 Q128.189 754.907 128.189 763.657 Q128.189 772.384 125.11 776.99 Q122.055 781.574 116.245 781.574 Q110.434 781.574 107.356 776.99 Q104.3 772.384 104.3 763.657 Q104.3 754.907 107.356 750.324 Q110.434 745.717 116.245 745.717 Z" fill="#000000" fill-rule="nonzero" fill-opacity="1" /><path clip-path="url(#clip620)" d="M136.406 775.023 L141.291 775.023 L141.291 780.902 L136.406 780.902 L136.406 775.023 Z" fill="#000000" fill-rule="nonzero" fill-opacity="1" /><path clip-path="url(#clip620)" d="M164.323 750.416 L152.517 768.865 L164.323 768.865 L164.323 750.416 M163.096 746.342 L168.976 746.342 L168.976 768.865 L173.906 768.865 L173.906 772.754 L168.976 772.754 L168.976 780.902 L164.323 780.902 L164.323 772.754 L148.721 772.754 L148.721 768.24 L163.096 746.342 Z" fill="#000000" fill-rule="nonzero" fill-opacity="1" /><path clip-path="url(#clip620)" d="M117.726 448.308 Q114.115 448.308 112.286 451.873 Q110.481 455.415 110.481 462.544 Q110.481 469.651 112.286 473.216 Q114.115 476.757 117.726 476.757 Q121.36 476.757 123.166 473.216 Q124.994 469.651 124.994 462.544 Q124.994 455.415 123.166 451.873 Q121.36 448.308 117.726 448.308 M117.726 444.605 Q123.536 444.605 126.592 449.211 Q129.67 453.794 129.67 462.544 Q129.67 471.271 126.592 475.878 Q123.536 480.461 117.726 480.461 Q111.916 480.461 108.837 475.878 Q105.782 471.271 105.782 462.544 Q105.782 453.794 108.837 449.211 Q111.916 444.605 117.726 444.605 Z" fill="#000000" fill-rule="nonzero" fill-opacity="1" /><path clip-path="url(#clip620)" d="M137.888 473.91 L142.772 473.91 L142.772 479.79 L137.888 479.79 L137.888 473.91 Z" fill="#000000" fill-rule="nonzero" fill-opacity="1" /><path clip-path="url(#clip620)" d="M153.004 445.23 L171.36 445.23 L171.36 449.165 L157.286 449.165 L157.286 457.637 Q158.304 457.29 159.323 457.128 Q160.342 456.943 161.36 456.943 Q167.147 456.943 170.527 460.114 Q173.906 463.285 173.906 468.702 Q173.906 474.28 170.434 477.382 Q166.962 480.461 160.642 480.461 Q158.467 480.461 156.198 480.091 Q153.953 479.72 151.545 478.979 L151.545 474.28 Q153.629 475.415 155.851 475.97 Q158.073 476.526 160.55 476.526 Q164.554 476.526 166.892 474.419 Q169.23 472.313 169.23 468.702 Q169.23 465.091 166.892 462.984 Q164.554 460.878 160.55 460.878 Q158.675 460.878 156.8 461.294 Q154.948 461.711 153.004 462.591 L153.004 445.23 Z" fill="#000000" fill-rule="nonzero" fill-opacity="1" /><path clip-path="url(#clip620)" d="M116.569 147.196 Q112.958 147.196 111.129 150.76 Q109.323 154.302 109.323 161.432 Q109.323 168.538 111.129 172.103 Q112.958 175.644 116.569 175.644 Q120.203 175.644 122.008 172.103 Q123.837 168.538 123.837 161.432 Q123.837 154.302 122.008 150.76 Q120.203 147.196 116.569 147.196 M116.569 143.492 Q122.379 143.492 125.434 148.098 Q128.513 152.682 128.513 161.432 Q128.513 170.158 125.434 174.765 Q122.379 179.348 116.569 179.348 Q110.758 179.348 107.68 174.765 Q104.624 170.158 104.624 161.432 Q104.624 152.682 107.68 148.098 Q110.758 143.492 116.569 143.492 Z" fill="#000000" fill-rule="nonzero" fill-opacity="1" /><path clip-path="url(#clip620)" d="M136.731 172.797 L141.615 172.797 L141.615 178.677 L136.731 178.677 L136.731 172.797 Z" fill="#000000" fill-rule="nonzero" fill-opacity="1" /><path clip-path="url(#clip620)" d="M162.379 159.533 Q159.23 159.533 157.379 161.686 Q155.55 163.839 155.55 167.589 Q155.55 171.316 157.379 173.492 Q159.23 175.644 162.379 175.644 Q165.527 175.644 167.355 173.492 Q169.207 171.316 169.207 167.589 Q169.207 163.839 167.355 161.686 Q165.527 159.533 162.379 159.533 M171.661 144.881 L171.661 149.14 Q169.902 148.307 168.096 147.867 Q166.314 147.427 164.554 147.427 Q159.925 147.427 157.471 150.552 Q155.041 153.677 154.693 159.996 Q156.059 157.983 158.119 156.918 Q160.179 155.83 162.656 155.83 Q167.865 155.83 170.874 159.001 Q173.906 162.149 173.906 167.589 Q173.906 172.913 170.758 176.131 Q167.61 179.348 162.379 179.348 Q156.383 179.348 153.212 174.765 Q150.041 170.158 150.041 161.432 Q150.041 153.237 153.93 148.376 Q157.818 143.492 164.369 143.492 Q166.129 143.492 167.911 143.839 Q169.716 144.186 171.661 144.881 Z" fill="#000000" fill-rule="nonzero" fill-opacity="1" /><path clip-path="url(#clip620)" d="M1.76483 1219.25 L7.23933 1219.25 Q5.87071 1221.73 5.20231 1224.25 Q4.50208 1226.73 4.50208 1229.28 Q4.50208 1234.97 8.13053 1238.13 Q11.7272 1241.28 18.252 1241.28 Q24.7769 1241.28 28.4053 1238.13 Q32.0019 1234.97 32.0019 1229.28 Q32.0019 1226.73 31.3335 1224.25 Q30.6333 1221.73 29.2647 1219.25 L34.6755 1219.25 Q35.8214 1221.7 36.3943 1224.34 Q36.9672 1226.95 36.9672 1229.91 Q36.9672 1237.97 31.9064 1242.71 Q26.8457 1247.45 18.252 1247.45 Q9.53099 1247.45 4.53391 1242.68 Q-0.46317 1237.87 -0.46317 1229.53 Q-0.46317 1226.83 0.109744 1224.25 Q0.650829 1221.67 1.76483 1219.25 Z" fill="#000000" fill-rule="nonzero" fill-opacity="1" /><path clip-path="url(#clip620)" d="M-11.4758 1215.4 L-11.4758 1175.2 L-6.06499 1175.2 L-6.06499 1192.07 L36.0442 1192.07 L36.0442 1198.53 L-6.06499 1198.53 L-6.06499 1215.4 L-11.4758 1215.4 Z" fill="#000000" fill-rule="nonzero" fill-opacity="1" /><path clip-path="url(#clip620)" d="M14.5281 1139.62 L36.0442 1139.62 L36.0442 1145.47 L14.719 1145.47 Q9.6583 1145.47 7.14385 1147.45 Q4.6294 1149.42 4.6294 1153.37 Q4.6294 1158.11 7.65311 1160.85 Q10.6768 1163.58 15.8967 1163.58 L36.0442 1163.58 L36.0442 1169.47 L0.3962 1169.47 L0.3962 1163.58 L5.93437 1163.58 Q2.71968 1161.48 1.12826 1158.65 Q-0.46317 1155.78 -0.46317 1152.06 Q-0.46317 1145.92 3.35625 1142.77 Q7.14385 1139.62 14.5281 1139.62 Z" fill="#000000" fill-rule="nonzero" fill-opacity="1" /><path clip-path="url(#clip620)" d="M-11.4758 1134.27 L-11.4758 1094.07 L-6.06499 1094.07 L-6.06499 1110.94 L36.0442 1110.94 L36.0442 1117.4 L-6.06499 1117.4 L-6.06499 1134.27 L-11.4758 1134.27 Z" fill="#000000" fill-rule="nonzero" fill-opacity="1" /><path clip-path="url(#clip620)" d="M-13.481 1067.94 L-13.481 1054.44 L-8.92956 1054.44 L-8.92956 1062.08 L40.0864 1062.08 L40.0864 1054.44 L44.6379 1054.44 L44.6379 1067.94 L-13.481 1067.94 Z" fill="#000000" fill-rule="nonzero" fill-opacity="1" /><path clip-path="url(#clip620)" d="M14.5281 1012.33 L36.0442 1012.33 L36.0442 1018.19 L14.719 1018.19 Q9.6583 1018.19 7.14385 1020.16 Q4.6294 1022.14 4.6294 1026.08 Q4.6294 1030.83 7.65311 1033.56 Q10.6768 1036.3 15.8967 1036.3 L36.0442 1036.3 L36.0442 1042.19 L0.3962 1042.19 L0.3962 1036.3 L5.93437 1036.3 Q2.71968 1034.2 1.12826 1031.37 Q-0.46317 1028.5 -0.46317 1024.78 Q-0.46317 1018.64 3.35625 1015.48 Q7.14385 1012.33 14.5281 1012.33 Z" fill="#000000" fill-rule="nonzero" fill-opacity="1" /><path clip-path="url(#clip620)" d="M17.8064 977.195 Q11.4407 977.195 7.93956 979.837 Q4.43842 982.446 4.43842 987.189 Q4.43842 991.9 7.93956 994.541 Q11.4407 997.151 17.8064 997.151 Q24.1403 997.151 27.6414 994.541 Q31.1426 991.9 31.1426 987.189 Q31.1426 982.446 27.6414 979.837 Q24.1403 977.195 17.8064 977.195 M31.62 971.338 Q40.723 971.338 45.1471 975.381 Q49.6031 979.423 49.6031 987.762 Q49.6031 990.849 49.1257 993.586 Q48.6801 996.324 47.7252 998.902 L42.0279 998.902 Q43.4284 996.324 44.0968 993.809 Q44.7652 991.295 44.7652 988.685 Q44.7652 982.924 41.7415 980.059 Q38.7496 977.195 32.6703 977.195 L29.7739 977.195 Q32.925 979.009 34.4846 981.842 Q36.0442 984.674 36.0442 988.621 Q36.0442 995.178 31.0471 999.188 Q26.05 1003.2 17.8064 1003.2 Q9.53099 1003.2 4.53391 999.188 Q-0.46317 995.178 -0.46317 988.621 Q-0.46317 984.674 1.09643 981.842 Q2.65603 979.009 5.80705 977.195 L0.3962 977.195 L0.3962 971.338 L31.62 971.338 Z" fill="#000000" fill-rule="nonzero" fill-opacity="1" /><path clip-path="url(#clip620)" d="M-11.4758 948.867 L-11.4758 943.457 L42.0916 960.007 L42.0916 965.418 L-11.4758 948.867 Z" fill="#000000" fill-rule="nonzero" fill-opacity="1" /><path clip-path="url(#clip620)" d="M7.23933 909.559 Q3.2926 907.363 1.41471 904.307 Q-0.46317 901.252 -0.46317 897.114 Q-0.46317 891.544 3.45174 888.52 Q7.33482 885.497 14.5281 885.497 L36.0442 885.497 L36.0442 891.385 L14.719 891.385 Q9.59465 891.385 7.11202 893.199 Q4.6294 895.014 4.6294 898.737 Q4.6294 903.289 7.65311 905.931 Q10.6768 908.572 15.8967 908.572 L36.0442 908.572 L36.0442 914.461 L14.719 914.461 Q9.56282 914.461 7.11202 916.275 Q4.6294 918.089 4.6294 921.877 Q4.6294 926.365 7.68493 929.006 Q10.7086 931.648 15.8967 931.648 L36.0442 931.648 L36.0442 937.536 L0.3962 937.536 L0.3962 931.648 L5.93437 931.648 Q2.65603 929.643 1.09643 926.842 Q-0.46317 924.041 -0.46317 920.19 Q-0.46317 916.307 1.5102 913.601 Q3.48357 910.864 7.23933 909.559 Z" fill="#000000" fill-rule="nonzero" fill-opacity="1" /><path clip-path="url(#clip620)" d="M-11.4758 873.561 L-11.4758 867.132 L30.6333 867.132 L30.6333 843.992 L36.0442 843.992 L36.0442 873.561 L-11.4758 873.561 Z" fill="#000000" fill-rule="nonzero" fill-opacity="1" /><path clip-path="url(#clip620)" d="M-13.481 823.813 L44.6379 823.813 L44.6379 837.308 L40.0864 837.308 L40.0864 829.701 L-8.92956 829.701 L-8.92956 837.308 L-13.481 837.308 L-13.481 823.813 Z" fill="#000000" fill-rule="nonzero" fill-opacity="1" /><polyline clip-path="url(#clip621)" style="stroke:#4169e1; stroke-linecap:round; stroke-linejoin:round; stroke-width:8; stroke-opacity:1; fill:none" points="322.006,1968.07 355.757,1861.54 389.509,1767.3 423.261,1684.12 457.012,1610.88 490.764,1546.57 524.516,1490.29 558.267,1441.22 592.019,1398.6 625.77,1361.76 659.522,1330.1 693.274,1303.05 727.025,1280.12 760.777,1260.83 794.528,1244.79 828.28,1231.59 862.032,1220.89 895.783,1212.36 929.535,1205.71 963.287,1200.67 997.038,1196.97 1030.79,1194.38 1064.54,1192.68 1098.29,1191.67 1132.04,1191.14 1165.8,1190.91 1199.55,1190.82 1233.3,1190.71 1267.05,1190.41 1300.8,1189.79 1334.55,1188.71 1368.31,1187.04 1402.06,1184.66 1435.81,1181.47 1469.56,1177.35 1503.31,1172.22 1537.06,1165.99 1570.82,1158.58 1604.57,1149.93 1638.32,1139.97 1672.07,1128.66 1705.82,1115.98 1739.57,1101.88 1773.33,1086.37 1807.08,1069.45 1840.83,1051.13 1874.58,1031.43 1908.33,1010.4 1942.08,988.093 1975.84,964.574 2009.59,939.924 2043.34,914.233 2077.09,887.605 2110.84,860.152 2144.59,831.996 2178.34,803.27 2212.1,774.109 2245.85,744.657 2279.6,715.062 2313.35,685.47 2347.1,656.031 2380.85,626.893 2414.61,598.2 2448.36,570.092 2482.11,542.701 2515.86,516.155 2549.61,490.567 2583.36,466.045 2617.12,442.684 2650.87,420.566 2684.62,399.761 2718.37,380.327 2752.12,362.308 2785.87,345.737 2819.63,330.634 2853.38,317.006 2887.13,304.851 2920.88,294.155 2954.63,284.896 2988.38,277.043 3022.14,270.556 3055.89,265.394 3089.64,261.505 3123.39,258.837 3157.14,257.332 3190.89,256.932 3224.65,257.577 3258.4,259.205 3292.15,261.757 3325.9,265.172 3359.65,269.392 3393.4,274.359 3427.15,280.019 3458.66,285.879 "/>
<polyline clip-path="url(#clip621)" style="stroke:#ff8c00; stroke-linecap:round; stroke-linejoin:round; stroke-width:8; stroke-opacity:1; fill:none" stroke-dasharray="32, 20" points="322.006,1968.07 355.757,1865.13 389.509,1773.44 423.261,1691.91 457.012,1619.58 490.764,1555.55 524.516,1499.02 558.267,1449.27 592.019,1405.65 625.77,1367.54 659.522,1334.42 693.274,1305.79 727.025,1281.21 760.777,1260.29 794.528,1242.65 828.28,1227.96 862.032,1215.93 895.783,1206.3 929.535,1198.8 963.287,1193.22 997.038,1189.37 1030.79,1187.05 1064.54,1186.09 1098.29,1186.35 1132.04,1187.67 1165.8,1189.93 1199.55,1192.98 1233.3,1196.67 1267.05,1200.84 1300.8,1205.25 1334.55,1209.58 1368.31,1213.41 1402.06,1216.19 1435.81,1217.35 1469.56,1216.36 1503.31,1212.85 1537.06,1206.62 1570.82,1197.62 1604.57,1185.94 1638.32,1171.77 1672.07,1155.33 1705.82,1136.86 1739.57,1116.62 1773.33,1094.85 1807.08,1071.78 1840.83,1047.62 1874.58,1022.57 1908.33,996.813 1942.08,970.501 1975.84,943.779 2009.59,916.776 2043.34,889.606 2077.09,862.371 2110.84,835.161 2144.59,808.055 2178.34,781.123 2212.1,754.426 2245.85,728.018 2279.6,701.945 2313.35,676.248 2347.1,650.961 2380.85,626.114 2414.61,601.732 2448.36,577.836 2482.11,554.444 2515.86,531.568 2549.61,509.221 2583.36,487.41 2617.12,466.143 2650.87,445.422 2684.62,425.251 2718.37,405.63 2752.12,386.558 2785.87,368.033 2819.63,350.051 2853.38,332.609 2887.13,315.701 2920.88,299.322 2954.63,283.464 2988.38,268.121 3022.14,253.284 3055.89,238.947 3089.64,225.101 3123.39,211.736 3157.14,198.845 3190.89,186.418 3224.65,174.446 3258.4,162.919 3292.15,151.829 3325.9,141.166 3359.65,130.921 3393.4,121.084 3427.15,111.647 3458.66,103.191 "/>
<line clip-path="url(#clip621)" x1="2783.62" y1="522.732" x2="2755.62" y2="494.732" style="stroke:#dc143c; stroke-width:8.8; stroke-opacity:1"/>
<line clip-path="url(#clip621)" x1="2783.62" y1="522.732" x2="2755.62" y2="550.732" style="stroke:#dc143c; stroke-width:8.8; stroke-opacity:1"/>
<line clip-path="url(#clip621)" x1="2783.62" y1="522.732" x2="2811.62" y2="550.732" style="stroke:#dc143c; stroke-width:8.8; stroke-opacity:1"/>
<line clip-path="url(#clip621)" x1="2783.62" y1="522.732" x2="2811.62" y2="494.732" style="stroke:#dc143c; stroke-width:8.8; stroke-opacity:1"/>
<circle clip-path="url(#clip621)" cx="636.458" cy="1365.85" r="18" fill="#1e90ff" fill-rule="evenodd" fill-opacity="1" stroke="#000000" stroke-opacity="1" stroke-width="4.4"/>
<circle clip-path="url(#clip621)" cx="989.163" cy="1124.96" r="18" fill="#1e90ff" fill-rule="evenodd" fill-opacity="1" stroke="#000000" stroke-opacity="1" stroke-width="4.4"/>
<circle clip-path="url(#clip621)" cx="1157.92" cy="1245.4" r="18" fill="#1e90ff" fill-rule="evenodd" fill-opacity="1" stroke="#000000" stroke-opacity="1" stroke-width="4.4"/>
<circle clip-path="url(#clip621)" cx="1745.76" cy="1064.74" r="18" fill="#1e90ff" fill-rule="evenodd" fill-opacity="1" stroke="#000000" stroke-opacity="1" stroke-width="4.4"/>
<circle clip-path="url(#clip621)" cx="2066.4" cy="1004.51" r="18" fill="#1e90ff" fill-rule="evenodd" fill-opacity="1" stroke="#000000" stroke-opacity="1" stroke-width="4.4"/>
<circle clip-path="url(#clip621)" cx="2342.04" cy="492.621" r="18" fill="#1e90ff" fill-rule="evenodd" fill-opacity="1" stroke="#000000" stroke-opacity="1" stroke-width="4.4"/>
<circle clip-path="url(#clip621)" cx="2600.8" cy="522.732" r="18" fill="#1e90ff" fill-rule="evenodd" fill-opacity="1" stroke="#000000" stroke-opacity="1" stroke-width="4.4"/>
<path clip-path="url(#clip620)" d="M338.735 372.337 L1586.75 372.337 L1586.75 113.137 L338.735 113.137  Z" fill="#ffffff" fill-rule="evenodd" fill-opacity="1"/>
<polyline clip-path="url(#clip620)" style="stroke:#000000; stroke-linecap:round; stroke-linejoin:round; stroke-width:4; stroke-opacity:1; fill:none" points="338.735,372.337 1586.75,372.337 1586.75,113.137 338.735,113.137 338.735,372.337 "/>
<polyline clip-path="url(#clip620)" style="stroke:#4169e1; stroke-linecap:round; stroke-linejoin:round; stroke-width:8; stroke-opacity:1; fill:none" points="375.677,164.977 597.334,164.977 "/>
<path clip-path="url(#clip620)" d="M650.295 150.868 Q645.203 150.868 642.193 154.664 Q639.207 158.46 639.207 165.011 Q639.207 171.539 642.193 175.335 Q645.203 179.132 650.295 179.132 Q655.388 179.132 658.351 175.335 Q661.337 171.539 661.337 165.011 Q661.337 158.46 658.351 154.664 Q655.388 150.868 650.295 150.868 M650.295 147.072 Q657.564 147.072 661.916 151.956 Q666.267 156.817 666.267 165.011 Q666.267 173.183 661.916 178.067 Q657.564 182.928 650.295 182.928 Q643.004 182.928 638.629 178.067 Q634.277 173.206 634.277 165.011 Q634.277 156.817 638.629 151.956 Q643.004 147.072 650.295 147.072 Z" fill="#000000" fill-rule="nonzero" fill-opacity="1" /><path clip-path="url(#clip620)" d="M678.258 151.539 L678.258 178.414 L683.906 178.414 Q691.059 178.414 694.369 175.173 Q697.702 171.933 697.702 164.942 Q697.702 157.997 694.369 154.78 Q691.059 151.539 683.906 151.539 L678.258 151.539 M673.582 147.697 L683.189 147.697 Q693.235 147.697 697.934 151.886 Q702.633 156.053 702.633 164.942 Q702.633 173.877 697.911 178.067 Q693.188 182.257 683.189 182.257 L673.582 182.257 L673.582 147.697 Z" fill="#000000" fill-rule="nonzero" fill-opacity="1" /><path clip-path="url(#clip620)" d="M710.087 147.697 L731.938 147.697 L731.938 151.632 L714.762 151.632 L714.762 161.863 L731.221 161.863 L731.221 165.798 L714.762 165.798 L714.762 178.321 L732.355 178.321 L732.355 182.257 L710.087 182.257 L710.087 147.697 Z" fill="#000000" fill-rule="nonzero" fill-opacity="1" /><path clip-path="url(#clip620)" d="M780.225 146.285 Q777.123 151.609 775.619 156.817 Q774.114 162.025 774.114 167.372 Q774.114 172.72 775.619 177.974 Q777.146 183.206 780.225 188.507 L776.521 188.507 Q773.049 183.067 771.313 177.812 Q769.6 172.558 769.6 167.372 Q769.6 162.21 771.313 156.979 Q773.026 151.748 776.521 146.285 L780.225 146.285 Z" fill="#000000" fill-rule="nonzero" fill-opacity="1" /><path clip-path="url(#clip620)" d="M805.017 157.095 L805.017 161.122 Q803.211 160.197 801.267 159.734 Q799.322 159.271 797.239 159.271 Q794.068 159.271 792.47 160.243 Q790.896 161.215 790.896 163.159 Q790.896 164.641 792.031 165.497 Q793.165 166.331 796.591 167.095 L798.049 167.419 Q802.586 168.391 804.484 170.173 Q806.405 171.933 806.405 175.104 Q806.405 178.715 803.535 180.821 Q800.688 182.928 795.688 182.928 Q793.605 182.928 791.336 182.511 Q789.091 182.118 786.591 181.308 L786.591 176.909 Q788.952 178.136 791.244 178.761 Q793.535 179.363 795.781 179.363 Q798.79 179.363 800.41 178.345 Q802.031 177.303 802.031 175.428 Q802.031 173.692 800.85 172.766 Q799.693 171.84 795.734 170.984 L794.253 170.636 Q790.294 169.803 788.535 168.09 Q786.776 166.354 786.776 163.345 Q786.776 159.687 789.369 157.697 Q791.961 155.706 796.73 155.706 Q799.091 155.706 801.174 156.053 Q803.257 156.4 805.017 157.095 Z" fill="#000000" fill-rule="nonzero" fill-opacity="1" /><path clip-path="url(#clip620)" d="M813.373 147.697 L820.341 147.697 L829.16 171.215 L838.026 147.697 L844.993 147.697 L844.993 182.257 L840.433 182.257 L840.433 151.91 L831.521 175.613 L826.822 175.613 L817.91 151.91 L817.91 182.257 L813.373 182.257 L813.373 147.697 Z" fill="#000000" fill-rule="nonzero" fill-opacity="1" /><path clip-path="url(#clip620)" d="M865.826 152.303 L859.484 169.502 L872.192 169.502 L865.826 152.303 M863.188 147.697 L868.488 147.697 L881.66 182.257 L876.799 182.257 L873.65 173.391 L858.072 173.391 L854.924 182.257 L849.993 182.257 L863.188 147.697 Z" fill="#000000" fill-rule="nonzero" fill-opacity="1" /><path clip-path="url(#clip620)" d="M891.382 151.539 L891.382 164.525 L897.261 164.525 Q900.525 164.525 902.308 162.835 Q904.09 161.146 904.09 158.021 Q904.09 154.919 902.308 153.229 Q900.525 151.539 897.261 151.539 L891.382 151.539 M886.706 147.697 L897.261 147.697 Q903.072 147.697 906.035 150.335 Q909.021 152.951 909.021 158.021 Q909.021 163.136 906.035 165.752 Q903.072 168.368 897.261 168.368 L891.382 168.368 L891.382 182.257 L886.706 182.257 L886.706 147.697 Z" fill="#000000" fill-rule="nonzero" fill-opacity="1" /><path clip-path="url(#clip620)" d="M915.294 147.697 L937.146 147.697 L937.146 151.632 L919.97 151.632 L919.97 161.863 L936.428 161.863 L936.428 165.798 L919.97 165.798 L919.97 178.321 L937.562 178.321 L937.562 182.257 L915.294 182.257 L915.294 147.697 Z" fill="#000000" fill-rule="nonzero" fill-opacity="1" /><path clip-path="url(#clip620)" d="M945.618 160.729 L975.293 160.729 L975.293 164.618 L945.618 164.618 L945.618 160.729 M945.618 170.173 L975.293 170.173 L975.293 174.109 L945.618 174.109 L945.618 170.173 Z" fill="#000000" fill-rule="nonzero" fill-opacity="1" /><path clip-path="url(#clip620)" d="M984.205 147.697 L1006.43 147.697 L1006.43 149.687 L993.881 182.257 L988.997 182.257 L1000.8 151.632 L984.205 151.632 L984.205 147.697 Z" fill="#000000" fill-rule="nonzero" fill-opacity="1" /><path clip-path="url(#clip620)" d="M1015.55 176.377 L1020.43 176.377 L1020.43 182.257 L1015.55 182.257 L1015.55 176.377 Z" fill="#000000" fill-rule="nonzero" fill-opacity="1" /><path clip-path="url(#clip620)" d="M1041.2 163.113 Q1038.05 163.113 1036.2 165.266 Q1034.37 167.419 1034.37 171.169 Q1034.37 174.896 1036.2 177.071 Q1038.05 179.224 1041.2 179.224 Q1044.34 179.224 1046.17 177.071 Q1048.02 174.896 1048.02 171.169 Q1048.02 167.419 1046.17 165.266 Q1044.34 163.113 1041.2 163.113 M1050.48 148.461 L1050.48 152.72 Q1048.72 151.886 1046.91 151.447 Q1045.13 151.007 1043.37 151.007 Q1038.74 151.007 1036.29 154.132 Q1033.86 157.257 1033.51 163.576 Q1034.88 161.562 1036.94 160.497 Q1039 159.41 1041.47 159.41 Q1046.68 159.41 1049.69 162.581 Q1052.72 165.729 1052.72 171.169 Q1052.72 176.493 1049.58 179.71 Q1046.43 182.928 1041.2 182.928 Q1035.2 182.928 1032.03 178.345 Q1028.86 173.738 1028.86 165.011 Q1028.86 156.817 1032.75 151.956 Q1036.64 147.072 1043.19 147.072 Q1044.95 147.072 1046.73 147.419 Q1048.53 147.766 1050.48 148.461 Z" fill="#000000" fill-rule="nonzero" fill-opacity="1" /><path clip-path="url(#clip620)" d="M1059.6 147.697 L1081.82 147.697 L1081.82 149.687 L1069.27 182.257 L1064.39 182.257 L1076.2 151.632 L1059.6 151.632 L1059.6 147.697 Z" fill="#000000" fill-rule="nonzero" fill-opacity="1" /><path clip-path="url(#clip620)" d="M1120.34 167.048 Q1118.33 167.048 1117.17 168.761 Q1116.03 170.474 1116.03 173.53 Q1116.03 176.539 1117.17 178.275 Q1118.33 179.988 1120.34 179.988 Q1122.31 179.988 1123.44 178.275 Q1124.6 176.539 1124.6 173.53 Q1124.6 170.497 1123.44 168.784 Q1122.31 167.048 1120.34 167.048 M1120.34 164.109 Q1124 164.109 1126.15 166.655 Q1128.3 169.201 1128.3 173.53 Q1128.3 177.858 1126.13 180.405 Q1123.97 182.928 1120.34 182.928 Q1116.64 182.928 1114.48 180.405 Q1112.33 177.858 1112.33 173.53 Q1112.33 169.178 1114.48 166.655 Q1116.66 164.109 1120.34 164.109 M1096.45 150.011 Q1094.46 150.011 1093.3 151.748 Q1092.17 153.46 1092.17 156.47 Q1092.17 159.525 1093.3 161.238 Q1094.44 162.951 1096.45 162.951 Q1098.46 162.951 1099.6 161.238 Q1100.76 159.525 1100.76 156.47 Q1100.76 153.484 1099.6 151.748 Q1098.44 150.011 1096.45 150.011 M1117.35 147.072 L1121.06 147.072 L1099.44 182.928 L1095.73 182.928 L1117.35 147.072 M1096.45 147.072 Q1100.11 147.072 1102.28 149.618 Q1104.46 152.141 1104.46 156.47 Q1104.46 160.845 1102.28 163.368 Q1100.13 165.891 1096.45 165.891 Q1092.77 165.891 1090.62 163.368 Q1088.49 160.822 1088.49 156.47 Q1088.49 152.164 1090.64 149.618 Q1092.79 147.072 1096.45 147.072 Z" fill="#000000" fill-rule="nonzero" fill-opacity="1" /><path clip-path="url(#clip620)" d="M1136.47 176.377 L1141.36 176.377 L1141.36 180.358 L1137.56 187.766 L1134.58 187.766 L1136.47 180.358 L1136.47 176.377 Z" fill="#000000" fill-rule="nonzero" fill-opacity="1" /><path clip-path="url(#clip620)" d="M1182.1 166.053 Q1183.6 166.562 1185.01 168.229 Q1186.45 169.896 1187.88 172.812 L1192.63 182.257 L1187.61 182.257 L1183.19 173.391 Q1181.47 169.919 1179.85 168.784 Q1178.26 167.65 1175.48 167.65 L1170.39 167.65 L1170.39 182.257 L1165.71 182.257 L1165.71 147.697 L1176.26 147.697 Q1182.19 147.697 1185.11 150.173 Q1188.02 152.65 1188.02 157.65 Q1188.02 160.914 1186.5 163.067 Q1184.99 165.22 1182.1 166.053 M1170.39 151.539 L1170.39 163.808 L1176.26 163.808 Q1179.64 163.808 1181.36 162.257 Q1183.09 160.683 1183.09 157.65 Q1183.09 154.618 1181.36 153.09 Q1179.64 151.539 1176.26 151.539 L1170.39 151.539 Z" fill="#000000" fill-rule="nonzero" fill-opacity="1" /><path clip-path="url(#clip620)" d="M1198.65 147.697 L1205.62 147.697 L1214.44 171.215 L1223.3 147.697 L1230.27 147.697 L1230.27 182.257 L1225.71 182.257 L1225.71 151.91 L1216.8 175.613 L1212.1 175.613 L1203.19 151.91 L1203.19 182.257 L1198.65 182.257 L1198.65 147.697 Z" fill="#000000" fill-rule="nonzero" fill-opacity="1" /><path clip-path="url(#clip620)" d="M1260.27 148.831 L1260.27 153.391 Q1257.61 152.118 1255.25 151.493 Q1252.88 150.868 1250.69 150.868 Q1246.87 150.868 1244.78 152.349 Q1242.72 153.831 1242.72 156.562 Q1242.72 158.854 1244.09 160.035 Q1245.48 161.192 1249.32 161.91 L1252.14 162.488 Q1257.38 163.484 1259.85 166.007 Q1262.35 168.507 1262.35 172.72 Q1262.35 177.743 1258.97 180.335 Q1255.62 182.928 1249.11 182.928 Q1246.66 182.928 1243.88 182.372 Q1241.13 181.817 1238.16 180.729 L1238.16 175.914 Q1241.01 177.511 1243.74 178.321 Q1246.47 179.132 1249.11 179.132 Q1253.12 179.132 1255.29 177.558 Q1257.47 175.984 1257.47 173.067 Q1257.47 170.521 1255.89 169.085 Q1254.34 167.65 1250.78 166.933 L1247.93 166.377 Q1242.7 165.335 1240.36 163.113 Q1238.02 160.891 1238.02 156.933 Q1238.02 152.349 1241.24 149.71 Q1244.48 147.072 1250.15 147.072 Q1252.58 147.072 1255.11 147.511 Q1257.63 147.951 1260.27 148.831 Z" fill="#000000" fill-rule="nonzero" fill-opacity="1" /><path clip-path="url(#clip620)" d="M1269.64 147.697 L1274.32 147.697 L1274.32 178.321 L1291.15 178.321 L1291.15 182.257 L1269.64 182.257 L1269.64 147.697 Z" fill="#000000" fill-rule="nonzero" fill-opacity="1" /><path clip-path="url(#clip620)" d="M1296.06 147.697 L1317.91 147.697 L1317.91 151.632 L1300.73 151.632 L1300.73 161.863 L1317.19 161.863 L1317.19 165.798 L1300.73 165.798 L1300.73 178.321 L1318.32 178.321 L1318.32 182.257 L1296.06 182.257 L1296.06 147.697 Z" fill="#000000" fill-rule="nonzero" fill-opacity="1" /><path clip-path="url(#clip620)" d="M1326.38 160.729 L1356.06 160.729 L1356.06 164.618 L1326.38 164.618 L1326.38 160.729 M1326.38 170.173 L1356.06 170.173 L1356.06 174.109 L1326.38 174.109 L1326.38 170.173 Z" fill="#000000" fill-rule="nonzero" fill-opacity="1" /><path clip-path="url(#clip620)" d="M1376.15 150.775 Q1372.54 150.775 1370.71 154.34 Q1368.9 157.882 1368.9 165.011 Q1368.9 172.118 1370.71 175.683 Q1372.54 179.224 1376.15 179.224 Q1379.78 179.224 1381.59 175.683 Q1383.42 172.118 1383.42 165.011 Q1383.42 157.882 1381.59 154.34 Q1379.78 150.775 1376.15 150.775 M1376.15 147.072 Q1381.96 147.072 1385.01 151.678 Q1388.09 156.261 1388.09 165.011 Q1388.09 173.738 1385.01 178.345 Q1381.96 182.928 1376.15 182.928 Q1370.34 182.928 1367.26 178.345 Q1364.2 173.738 1364.2 165.011 Q1364.2 156.261 1367.26 151.678 Q1370.34 147.072 1376.15 147.072 Z" fill="#000000" fill-rule="nonzero" fill-opacity="1" /><path clip-path="url(#clip620)" d="M1396.31 176.377 L1401.19 176.377 L1401.19 182.257 L1396.31 182.257 L1396.31 176.377 Z" fill="#000000" fill-rule="nonzero" fill-opacity="1" /><path clip-path="url(#clip620)" d="M1421.38 150.775 Q1417.77 150.775 1415.94 154.34 Q1414.13 157.882 1414.13 165.011 Q1414.13 172.118 1415.94 175.683 Q1417.77 179.224 1421.38 179.224 Q1425.01 179.224 1426.82 175.683 Q1428.65 172.118 1428.65 165.011 Q1428.65 157.882 1426.82 154.34 Q1425.01 150.775 1421.38 150.775 M1421.38 147.072 Q1427.19 147.072 1430.24 151.678 Q1433.32 156.261 1433.32 165.011 Q1433.32 173.738 1430.24 178.345 Q1427.19 182.928 1421.38 182.928 Q1415.57 182.928 1412.49 178.345 Q1409.43 173.738 1409.43 165.011 Q1409.43 156.261 1412.49 151.678 Q1415.57 147.072 1421.38 147.072 Z" fill="#000000" fill-rule="nonzero" fill-opacity="1" /><path clip-path="url(#clip620)" d="M1445.57 178.321 L1461.89 178.321 L1461.89 182.257 L1439.94 182.257 L1439.94 178.321 Q1442.61 175.567 1447.19 170.937 Q1451.8 166.284 1452.98 164.942 Q1455.22 162.419 1456.1 160.683 Q1457 158.923 1457 157.234 Q1457 154.479 1455.06 152.743 Q1453.14 151.007 1450.04 151.007 Q1447.84 151.007 1445.38 151.771 Q1442.95 152.535 1440.18 154.085 L1440.18 149.363 Q1443 148.229 1445.45 147.65 Q1447.91 147.072 1449.94 147.072 Q1455.31 147.072 1458.51 149.757 Q1461.7 152.442 1461.7 156.933 Q1461.7 159.062 1460.89 160.984 Q1460.11 162.882 1458 165.474 Q1457.42 166.146 1454.32 169.363 Q1451.22 172.558 1445.57 178.321 Z" fill="#000000" fill-rule="nonzero" fill-opacity="1" /><path clip-path="url(#clip620)" d="M1485.87 163.622 Q1489.23 164.34 1491.1 166.609 Q1493 168.877 1493 172.21 Q1493 177.326 1489.48 180.127 Q1485.96 182.928 1479.48 182.928 Q1477.3 182.928 1474.99 182.488 Q1472.7 182.071 1470.24 181.215 L1470.24 176.701 Q1472.19 177.835 1474.5 178.414 Q1476.82 178.993 1479.34 178.993 Q1483.74 178.993 1486.03 177.257 Q1488.35 175.521 1488.35 172.21 Q1488.35 169.155 1486.19 167.442 Q1484.06 165.706 1480.24 165.706 L1476.22 165.706 L1476.22 161.863 L1480.43 161.863 Q1483.88 161.863 1485.71 160.497 Q1487.54 159.109 1487.54 156.516 Q1487.54 153.854 1485.64 152.442 Q1483.76 151.007 1480.24 151.007 Q1478.32 151.007 1476.12 151.423 Q1473.93 151.84 1471.29 152.72 L1471.29 148.553 Q1473.95 147.812 1476.26 147.442 Q1478.6 147.072 1480.66 147.072 Q1485.99 147.072 1489.09 149.502 Q1492.19 151.91 1492.19 156.03 Q1492.19 158.9 1490.55 160.891 Q1488.9 162.859 1485.87 163.622 Z" fill="#000000" fill-rule="nonzero" fill-opacity="1" /><path clip-path="url(#clip620)" d="M1502 181.539 L1502 177.28 Q1503.76 178.113 1505.57 178.553 Q1507.37 178.993 1509.11 178.993 Q1513.74 178.993 1516.17 175.891 Q1518.62 172.766 1518.97 166.423 Q1517.63 168.414 1515.57 169.479 Q1513.51 170.544 1511.01 170.544 Q1505.82 170.544 1502.79 167.419 Q1499.78 164.271 1499.78 158.831 Q1499.78 153.507 1502.93 150.289 Q1506.08 147.072 1511.31 147.072 Q1517.3 147.072 1520.45 151.678 Q1523.62 156.261 1523.62 165.011 Q1523.62 173.183 1519.73 178.067 Q1515.87 182.928 1509.32 182.928 Q1507.56 182.928 1505.75 182.581 Q1503.95 182.233 1502 181.539 M1511.31 166.886 Q1514.46 166.886 1516.29 164.734 Q1518.14 162.581 1518.14 158.831 Q1518.14 155.104 1516.29 152.951 Q1514.46 150.775 1511.31 150.775 Q1508.16 150.775 1506.31 152.951 Q1504.48 155.104 1504.48 158.831 Q1504.48 162.581 1506.31 164.734 Q1508.16 166.886 1511.31 166.886 Z" fill="#000000" fill-rule="nonzero" fill-opacity="1" /><path clip-path="url(#clip620)" d="M1530.75 146.285 L1534.46 146.285 Q1537.93 151.748 1539.64 156.979 Q1541.38 162.21 1541.38 167.372 Q1541.38 172.558 1539.64 177.812 Q1537.93 183.067 1534.46 188.507 L1530.75 188.507 Q1533.83 183.206 1535.34 177.974 Q1536.86 172.72 1536.86 167.372 Q1536.86 162.025 1535.34 156.817 Q1533.83 151.609 1530.75 146.285 Z" fill="#000000" fill-rule="nonzero" fill-opacity="1" /><polyline clip-path="url(#clip620)" style="stroke:#ff8c00; stroke-linecap:round; stroke-linejoin:round; stroke-width:8; stroke-opacity:1; fill:none" stroke-dasharray="32, 20" points="375.677,216.817 597.334,216.817 "/>
<path clip-path="url(#clip620)" d="M654.786 209.166 L654.786 213.148 Q652.98 212.152 651.152 211.666 Q649.346 211.157 647.494 211.157 Q643.351 211.157 641.059 213.796 Q638.767 216.412 638.767 221.157 Q638.767 225.902 641.059 228.541 Q643.351 231.157 647.494 231.157 Q649.346 231.157 651.152 230.671 Q652.98 230.161 654.786 229.166 L654.786 233.101 Q653.004 233.935 651.082 234.351 Q649.184 234.768 647.031 234.768 Q641.175 234.768 637.726 231.087 Q634.277 227.407 634.277 221.157 Q634.277 214.814 637.749 211.18 Q641.244 207.546 647.309 207.546 Q649.277 207.546 651.152 207.963 Q653.027 208.356 654.786 209.166 Z" fill="#000000" fill-rule="nonzero" fill-opacity="1" /><path clip-path="url(#clip620)" d="M661.846 199.537 L666.545 199.537 L666.545 220.532 Q666.545 226.087 668.559 228.541 Q670.573 230.972 675.087 230.972 Q679.577 230.972 681.591 228.541 Q683.605 226.087 683.605 220.532 L683.605 199.537 L688.304 199.537 L688.304 221.111 Q688.304 227.87 684.948 231.319 Q681.614 234.768 675.087 234.768 Q668.536 234.768 665.179 231.319 Q661.846 227.87 661.846 221.111 L661.846 199.537 Z" fill="#000000" fill-rule="nonzero" fill-opacity="1" /><path clip-path="url(#clip620)" d="M701.753 203.379 L701.753 230.254 L707.401 230.254 Q714.554 230.254 717.864 227.013 Q721.198 223.773 721.198 216.782 Q721.198 209.837 717.864 206.62 Q714.554 203.379 707.401 203.379 L701.753 203.379 M697.077 199.537 L706.684 199.537 Q716.73 199.537 721.429 203.726 Q726.128 207.893 726.128 216.782 Q726.128 225.717 721.406 229.907 Q716.684 234.097 706.684 234.097 L697.077 234.097 L697.077 199.537 Z" fill="#000000" fill-rule="nonzero" fill-opacity="1" /><path clip-path="url(#clip620)" d="M733.582 199.537 L755.434 199.537 L755.434 203.472 L738.258 203.472 L738.258 213.703 L754.716 213.703 L754.716 217.638 L738.258 217.638 L738.258 230.161 L755.85 230.161 L755.85 234.097 L733.582 234.097 L733.582 199.537 Z" fill="#000000" fill-rule="nonzero" fill-opacity="1" /><path clip-path="url(#clip620)" d="M788.651 198.125 Q785.549 203.449 784.044 208.657 Q782.54 213.865 782.54 219.212 Q782.54 224.56 784.044 229.814 Q785.572 235.046 788.651 240.347 L784.947 240.347 Q781.475 234.907 779.739 229.652 Q778.026 224.398 778.026 219.212 Q778.026 214.05 779.739 208.819 Q781.452 203.588 784.947 198.125 L788.651 198.125 Z" fill="#000000" fill-rule="nonzero" fill-opacity="1" /><path clip-path="url(#clip620)" d="M813.442 208.935 L813.442 212.962 Q811.637 212.037 809.693 211.574 Q807.748 211.111 805.665 211.111 Q802.493 211.111 800.896 212.083 Q799.322 213.055 799.322 214.999 Q799.322 216.481 800.456 217.337 Q801.591 218.171 805.017 218.935 L806.475 219.259 Q811.012 220.231 812.91 222.013 Q814.831 223.773 814.831 226.944 Q814.831 230.555 811.961 232.661 Q809.114 234.768 804.114 234.768 Q802.031 234.768 799.762 234.351 Q797.517 233.958 795.017 233.148 L795.017 228.749 Q797.378 229.976 799.669 230.601 Q801.961 231.203 804.206 231.203 Q807.216 231.203 808.836 230.185 Q810.456 229.143 810.456 227.268 Q810.456 225.532 809.276 224.606 Q808.118 223.68 804.16 222.824 L802.679 222.476 Q798.72 221.643 796.961 219.93 Q795.202 218.194 795.202 215.185 Q795.202 211.527 797.794 209.537 Q800.387 207.546 805.155 207.546 Q807.517 207.546 809.6 207.893 Q811.683 208.24 813.442 208.935 Z" fill="#000000" fill-rule="nonzero" fill-opacity="1" /><path clip-path="url(#clip620)" d="M821.799 199.537 L828.766 199.537 L837.586 223.055 L846.452 199.537 L853.419 199.537 L853.419 234.097 L848.859 234.097 L848.859 203.75 L839.947 227.453 L835.248 227.453 L826.336 203.75 L826.336 234.097 L821.799 234.097 L821.799 199.537 Z" fill="#000000" fill-rule="nonzero" fill-opacity="1" /><path clip-path="url(#clip620)" d="M874.252 204.143 L867.91 221.342 L880.618 221.342 L874.252 204.143 M871.613 199.537 L876.914 199.537 L890.086 234.097 L885.225 234.097 L882.076 225.231 L866.498 225.231 L863.35 234.097 L858.419 234.097 L871.613 199.537 Z" fill="#000000" fill-rule="nonzero" fill-opacity="1" /><path clip-path="url(#clip620)" d="M899.808 203.379 L899.808 216.365 L905.687 216.365 Q908.951 216.365 910.734 214.675 Q912.516 212.986 912.516 209.861 Q912.516 206.759 910.734 205.069 Q908.951 203.379 905.687 203.379 L899.808 203.379 M895.132 199.537 L905.687 199.537 Q911.498 199.537 914.46 202.175 Q917.447 204.791 917.447 209.861 Q917.447 214.976 914.46 217.592 Q911.498 220.208 905.687 220.208 L899.808 220.208 L899.808 234.097 L895.132 234.097 L895.132 199.537 Z" fill="#000000" fill-rule="nonzero" fill-opacity="1" /><path clip-path="url(#clip620)" d="M923.72 199.537 L945.571 199.537 L945.571 203.472 L928.396 203.472 L928.396 213.703 L944.854 213.703 L944.854 217.638 L928.396 217.638 L928.396 230.161 L945.988 230.161 L945.988 234.097 L923.72 234.097 L923.72 199.537 Z" fill="#000000" fill-rule="nonzero" fill-opacity="1" /><path clip-path="url(#clip620)" d="M954.044 212.569 L983.719 212.569 L983.719 216.458 L954.044 216.458 L954.044 212.569 M954.044 222.013 L983.719 222.013 L983.719 225.949 L954.044 225.949 L954.044 222.013 Z" fill="#000000" fill-rule="nonzero" fill-opacity="1" /><path clip-path="url(#clip620)" d="M992.631 199.537 L1014.85 199.537 L1014.85 201.527 L1002.31 234.097 L997.423 234.097 L1009.23 203.472 L992.631 203.472 L992.631 199.537 Z" fill="#000000" fill-rule="nonzero" fill-opacity="1" /><path clip-path="url(#clip620)" d="M1023.97 228.217 L1028.86 228.217 L1028.86 234.097 L1023.97 234.097 L1023.97 228.217 Z" fill="#000000" fill-rule="nonzero" fill-opacity="1" /><path clip-path="url(#clip620)" d="M1039.09 199.537 L1057.45 199.537 L1057.45 203.472 L1043.37 203.472 L1043.37 211.944 Q1044.39 211.597 1045.41 211.435 Q1046.43 211.25 1047.45 211.25 Q1053.23 211.25 1056.61 214.421 Q1059.99 217.592 1059.99 223.009 Q1059.99 228.587 1056.52 231.689 Q1053.05 234.768 1046.73 234.768 Q1044.55 234.768 1042.28 234.398 Q1040.04 234.027 1037.63 233.286 L1037.63 228.587 Q1039.71 229.722 1041.94 230.277 Q1044.16 230.833 1046.64 230.833 Q1050.64 230.833 1052.98 228.726 Q1055.32 226.62 1055.32 223.009 Q1055.32 219.398 1052.98 217.291 Q1050.64 215.185 1046.64 215.185 Q1044.76 215.185 1042.89 215.601 Q1041.03 216.018 1039.09 216.898 L1039.09 199.537 Z" fill="#000000" fill-rule="nonzero" fill-opacity="1" /><path clip-path="url(#clip620)" d="M1082.05 203.611 L1070.25 222.06 L1082.05 222.06 L1082.05 203.611 M1080.83 199.537 L1086.7 199.537 L1086.7 222.06 L1091.64 222.06 L1091.64 225.949 L1086.7 225.949 L1086.7 234.097 L1082.05 234.097 L1082.05 225.949 L1066.45 225.949 L1066.45 221.435 L1080.83 199.537 Z" fill="#000000" fill-rule="nonzero" fill-opacity="1" /><path clip-path="url(#clip620)" d="M1128.76 218.888 Q1126.75 218.888 1125.59 220.601 Q1124.46 222.314 1124.46 225.37 Q1124.46 228.379 1125.59 230.115 Q1126.75 231.828 1128.76 231.828 Q1130.73 231.828 1131.87 230.115 Q1133.02 228.379 1133.02 225.37 Q1133.02 222.337 1131.87 220.624 Q1130.73 218.888 1128.76 218.888 M1128.76 215.949 Q1132.42 215.949 1134.58 218.495 Q1136.73 221.041 1136.73 225.37 Q1136.73 229.698 1134.55 232.245 Q1132.4 234.768 1128.76 234.768 Q1125.06 234.768 1122.91 232.245 Q1120.76 229.698 1120.76 225.37 Q1120.76 221.018 1122.91 218.495 Q1125.08 215.949 1128.76 215.949 M1104.88 201.851 Q1102.89 201.851 1101.73 203.588 Q1100.59 205.3 1100.59 208.31 Q1100.59 211.365 1101.73 213.078 Q1102.86 214.791 1104.88 214.791 Q1106.89 214.791 1108.02 213.078 Q1109.18 211.365 1109.18 208.31 Q1109.18 205.324 1108.02 203.588 Q1106.87 201.851 1104.88 201.851 M1125.78 198.912 L1129.48 198.912 L1107.86 234.768 L1104.16 234.768 L1125.78 198.912 M1104.88 198.912 Q1108.53 198.912 1110.71 201.458 Q1112.89 203.981 1112.89 208.31 Q1112.89 212.685 1110.71 215.208 Q1108.56 217.731 1104.88 217.731 Q1101.2 217.731 1099.04 215.208 Q1096.91 212.662 1096.91 208.31 Q1096.91 204.004 1099.07 201.458 Q1101.22 198.912 1104.88 198.912 Z" fill="#000000" fill-rule="nonzero" fill-opacity="1" /><path clip-path="url(#clip620)" d="M1144.9 228.217 L1149.78 228.217 L1149.78 232.198 L1145.99 239.606 L1143 239.606 L1144.9 232.198 L1144.9 228.217 Z" fill="#000000" fill-rule="nonzero" fill-opacity="1" /><path clip-path="url(#clip620)" d="M1190.52 217.893 Q1192.03 218.402 1193.44 220.069 Q1194.88 221.736 1196.31 224.652 L1201.06 234.097 L1196.03 234.097 L1191.61 225.231 Q1189.9 221.759 1188.28 220.624 Q1186.68 219.49 1183.9 219.49 L1178.81 219.49 L1178.81 234.097 L1174.13 234.097 L1174.13 199.537 L1184.69 199.537 Q1190.62 199.537 1193.53 202.013 Q1196.45 204.49 1196.45 209.49 Q1196.45 212.754 1194.92 214.907 Q1193.42 217.06 1190.52 217.893 M1178.81 203.379 L1178.81 215.648 L1184.69 215.648 Q1188.07 215.648 1189.78 214.097 Q1191.52 212.523 1191.52 209.49 Q1191.52 206.458 1189.78 204.93 Q1188.07 203.379 1184.69 203.379 L1178.81 203.379 Z" fill="#000000" fill-rule="nonzero" fill-opacity="1" /><path clip-path="url(#clip620)" d="M1207.07 199.537 L1214.04 199.537 L1222.86 223.055 L1231.73 199.537 L1238.69 199.537 L1238.69 234.097 L1234.13 234.097 L1234.13 203.75 L1225.22 227.453 L1220.52 227.453 L1211.61 203.75 L1211.61 234.097 L1207.07 234.097 L1207.07 199.537 Z" fill="#000000" fill-rule="nonzero" fill-opacity="1" /><path clip-path="url(#clip620)" d="M1268.69 200.671 L1268.69 205.231 Q1266.03 203.958 1263.67 203.333 Q1261.31 202.708 1259.11 202.708 Q1255.29 202.708 1253.21 204.189 Q1251.15 205.671 1251.15 208.402 Q1251.15 210.694 1252.51 211.875 Q1253.9 213.032 1257.75 213.75 L1260.57 214.328 Q1265.8 215.324 1268.28 217.847 Q1270.78 220.347 1270.78 224.56 Q1270.78 229.583 1267.4 232.175 Q1264.04 234.768 1257.54 234.768 Q1255.08 234.768 1252.31 234.212 Q1249.55 233.657 1246.59 232.569 L1246.59 227.754 Q1249.44 229.351 1252.17 230.161 Q1254.9 230.972 1257.54 230.972 Q1261.54 230.972 1263.72 229.398 Q1265.89 227.824 1265.89 224.907 Q1265.89 222.361 1264.32 220.925 Q1262.77 219.49 1259.2 218.773 L1256.36 218.217 Q1251.13 217.175 1248.79 214.953 Q1246.45 212.731 1246.45 208.773 Q1246.45 204.189 1249.67 201.55 Q1252.91 198.912 1258.58 198.912 Q1261.01 198.912 1263.53 199.351 Q1266.06 199.791 1268.69 200.671 Z" fill="#000000" fill-rule="nonzero" fill-opacity="1" /><path clip-path="url(#clip620)" d="M1278.07 199.537 L1282.75 199.537 L1282.75 230.161 L1299.57 230.161 L1299.57 234.097 L1278.07 234.097 L1278.07 199.537 Z" fill="#000000" fill-rule="nonzero" fill-opacity="1" /><path clip-path="url(#clip620)" d="M1304.48 199.537 L1326.33 199.537 L1326.33 203.472 L1309.16 203.472 L1309.16 213.703 L1325.62 213.703 L1325.62 217.638 L1309.16 217.638 L1309.16 230.161 L1326.75 230.161 L1326.75 234.097 L1304.48 234.097 L1304.48 199.537 Z" fill="#000000" fill-rule="nonzero" fill-opacity="1" /><path clip-path="url(#clip620)" d="M1334.81 212.569 L1364.48 212.569 L1364.48 216.458 L1334.81 216.458 L1334.81 212.569 M1334.81 222.013 L1364.48 222.013 L1364.48 225.949 L1334.81 225.949 L1334.81 222.013 Z" fill="#000000" fill-rule="nonzero" fill-opacity="1" /><path clip-path="url(#clip620)" d="M1384.57 202.615 Q1380.96 202.615 1379.13 206.18 Q1377.33 209.722 1377.33 216.851 Q1377.33 223.958 1379.13 227.523 Q1380.96 231.064 1384.57 231.064 Q1388.21 231.064 1390.01 227.523 Q1391.84 223.958 1391.84 216.851 Q1391.84 209.722 1390.01 206.18 Q1388.21 202.615 1384.57 202.615 M1384.57 198.912 Q1390.38 198.912 1393.44 203.518 Q1396.52 208.101 1396.52 216.851 Q1396.52 225.578 1393.44 230.185 Q1390.38 234.768 1384.57 234.768 Q1378.76 234.768 1375.68 230.185 Q1372.63 225.578 1372.63 216.851 Q1372.63 208.101 1375.68 203.518 Q1378.76 198.912 1384.57 198.912 Z" fill="#000000" fill-rule="nonzero" fill-opacity="1" /><path clip-path="url(#clip620)" d="M1404.74 228.217 L1409.62 228.217 L1409.62 234.097 L1404.74 234.097 L1404.74 228.217 Z" fill="#000000" fill-rule="nonzero" fill-opacity="1" /><path clip-path="url(#clip620)" d="M1429.8 202.615 Q1426.19 202.615 1424.37 206.18 Q1422.56 209.722 1422.56 216.851 Q1422.56 223.958 1424.37 227.523 Q1426.19 231.064 1429.8 231.064 Q1433.44 231.064 1435.24 227.523 Q1437.07 223.958 1437.07 216.851 Q1437.07 209.722 1435.24 206.18 Q1433.44 202.615 1429.8 202.615 M1429.8 198.912 Q1435.62 198.912 1438.67 203.518 Q1441.75 208.101 1441.75 216.851 Q1441.75 225.578 1438.67 230.185 Q1435.62 234.768 1429.8 234.768 Q1423.99 234.768 1420.92 230.185 Q1417.86 225.578 1417.86 216.851 Q1417.86 208.101 1420.92 203.518 Q1423.99 198.912 1429.8 198.912 Z" fill="#000000" fill-rule="nonzero" fill-opacity="1" /><path clip-path="url(#clip620)" d="M1453.99 230.161 L1470.31 230.161 L1470.31 234.097 L1448.37 234.097 L1448.37 230.161 Q1451.03 227.407 1455.61 222.777 Q1460.22 218.124 1461.4 216.782 Q1463.65 214.259 1464.53 212.523 Q1465.43 210.763 1465.43 209.074 Q1465.43 206.319 1463.49 204.583 Q1461.56 202.847 1458.46 202.847 Q1456.26 202.847 1453.81 203.611 Q1451.38 204.375 1448.6 205.925 L1448.6 201.203 Q1451.43 200.069 1453.88 199.49 Q1456.33 198.912 1458.37 198.912 Q1463.74 198.912 1466.93 201.597 Q1470.13 204.282 1470.13 208.773 Q1470.13 210.902 1469.32 212.824 Q1468.53 214.722 1466.43 217.314 Q1465.85 217.986 1462.74 221.203 Q1459.64 224.398 1453.99 230.161 Z" fill="#000000" fill-rule="nonzero" fill-opacity="1" /><path clip-path="url(#clip620)" d="M1494.3 215.462 Q1497.65 216.18 1499.53 218.449 Q1501.42 220.717 1501.42 224.05 Q1501.42 229.166 1497.91 231.967 Q1494.39 234.768 1487.91 234.768 Q1485.73 234.768 1483.42 234.328 Q1481.12 233.911 1478.67 233.055 L1478.67 228.541 Q1480.61 229.675 1482.93 230.254 Q1485.24 230.833 1487.77 230.833 Q1492.17 230.833 1494.46 229.097 Q1496.77 227.361 1496.77 224.05 Q1496.77 220.995 1494.62 219.282 Q1492.49 217.546 1488.67 217.546 L1484.64 217.546 L1484.64 213.703 L1488.86 213.703 Q1492.3 213.703 1494.13 212.337 Q1495.96 210.949 1495.96 208.356 Q1495.96 205.694 1494.06 204.282 Q1492.19 202.847 1488.67 202.847 Q1486.75 202.847 1484.55 203.263 Q1482.35 203.68 1479.71 204.56 L1479.71 200.393 Q1482.37 199.652 1484.69 199.282 Q1487.03 198.912 1489.09 198.912 Q1494.41 198.912 1497.51 201.342 Q1500.61 203.75 1500.61 207.87 Q1500.61 210.74 1498.97 212.731 Q1497.33 214.699 1494.3 215.462 Z" fill="#000000" fill-rule="nonzero" fill-opacity="1" /><path clip-path="url(#clip620)" d="M1523.14 203.611 L1511.33 222.06 L1523.14 222.06 L1523.14 203.611 M1521.91 199.537 L1527.79 199.537 L1527.79 222.06 L1532.72 222.06 L1532.72 225.949 L1527.79 225.949 L1527.79 234.097 L1523.14 234.097 L1523.14 225.949 L1507.54 225.949 L1507.54 221.435 L1521.91 199.537 Z" fill="#000000" fill-rule="nonzero" fill-opacity="1" /><path clip-path="url(#clip620)" d="M1539.18 198.125 L1542.88 198.125 Q1546.36 203.588 1548.07 208.819 Q1549.8 214.05 1549.8 219.212 Q1549.8 224.398 1548.07 229.652 Q1546.36 234.907 1542.88 240.347 L1539.18 240.347 Q1542.26 235.046 1543.76 229.814 Q1545.29 224.56 1545.29 219.212 Q1545.29 213.865 1543.76 208.657 Q1542.26 203.449 1539.18 198.125 Z" fill="#000000" fill-rule="nonzero" fill-opacity="1" /><line clip-path="url(#clip620)" x1="486.506" y1="268.657" x2="464.106" y2="246.257" style="stroke:#dc143c; stroke-width:7.04; stroke-opacity:1"/>
<line clip-path="url(#clip620)" x1="486.506" y1="268.657" x2="464.106" y2="291.057" style="stroke:#dc143c; stroke-width:7.04; stroke-opacity:1"/>
<line clip-path="url(#clip620)" x1="486.506" y1="268.657" x2="508.906" y2="291.057" style="stroke:#dc143c; stroke-width:7.04; stroke-opacity:1"/>
<line clip-path="url(#clip620)" x1="486.506" y1="268.657" x2="508.906" y2="246.257" style="stroke:#dc143c; stroke-width:7.04; stroke-opacity:1"/>
<path clip-path="url(#clip620)" d="M650.666 269.733 Q652.17 270.242 653.582 271.909 Q655.017 273.576 656.453 276.492 L661.198 285.937 L656.175 285.937 L651.754 277.071 Q650.041 273.599 648.42 272.464 Q646.823 271.33 644.045 271.33 L638.953 271.33 L638.953 285.937 L634.277 285.937 L634.277 251.377 L644.832 251.377 Q650.758 251.377 653.675 253.853 Q656.591 256.33 656.591 261.33 Q656.591 264.594 655.064 266.747 Q653.559 268.9 650.666 269.733 M638.953 255.219 L638.953 267.488 L644.832 267.488 Q648.212 267.488 649.925 265.937 Q651.661 264.363 651.661 261.33 Q651.661 258.298 649.925 256.77 Q648.212 255.219 644.832 255.219 L638.953 255.219 Z" fill="#000000" fill-rule="nonzero" fill-opacity="1" /><path clip-path="url(#clip620)" d="M687.077 271.909 L687.077 273.992 L667.494 273.992 Q667.772 278.39 670.133 280.705 Q672.517 282.997 676.753 282.997 Q679.207 282.997 681.499 282.395 Q683.814 281.793 686.082 280.589 L686.082 284.617 Q683.79 285.589 681.383 286.099 Q678.976 286.608 676.499 286.608 Q670.295 286.608 666.661 282.997 Q663.05 279.386 663.05 273.228 Q663.05 266.863 666.476 263.136 Q669.925 259.386 675.758 259.386 Q680.989 259.386 684.022 262.765 Q687.077 266.122 687.077 271.909 M682.818 270.659 Q682.772 267.164 680.851 265.08 Q678.952 262.997 675.804 262.997 Q672.24 262.997 670.087 265.011 Q667.957 267.025 667.633 270.682 L682.818 270.659 Z" fill="#000000" fill-rule="nonzero" fill-opacity="1" /><path clip-path="url(#clip620)" d="M714.253 264.988 Q715.85 262.117 718.073 260.752 Q720.295 259.386 723.304 259.386 Q727.355 259.386 729.554 262.233 Q731.753 265.057 731.753 270.289 L731.753 285.937 L727.471 285.937 L727.471 270.427 Q727.471 266.701 726.151 264.895 Q724.832 263.09 722.124 263.09 Q718.813 263.09 716.892 265.289 Q714.971 267.488 714.971 271.284 L714.971 285.937 L710.688 285.937 L710.688 270.427 Q710.688 266.677 709.369 264.895 Q708.05 263.09 705.295 263.09 Q702.031 263.09 700.11 265.312 Q698.188 267.511 698.188 271.284 L698.188 285.937 L693.906 285.937 L693.906 260.011 L698.188 260.011 L698.188 264.039 Q699.647 261.654 701.684 260.52 Q703.721 259.386 706.522 259.386 Q709.346 259.386 711.313 260.821 Q713.304 262.256 714.253 264.988 Z" fill="#000000" fill-rule="nonzero" fill-opacity="1" /><path clip-path="url(#clip620)" d="M750.295 262.997 Q746.869 262.997 744.878 265.682 Q742.887 268.344 742.887 272.997 Q742.887 277.65 744.855 280.335 Q746.846 282.997 750.295 282.997 Q753.697 282.997 755.688 280.312 Q757.679 277.626 757.679 272.997 Q757.679 268.39 755.688 265.705 Q753.697 262.997 750.295 262.997 M750.295 259.386 Q755.85 259.386 759.021 262.997 Q762.193 266.608 762.193 272.997 Q762.193 279.363 759.021 282.997 Q755.85 286.608 750.295 286.608 Q744.716 286.608 741.545 282.997 Q738.397 279.363 738.397 272.997 Q738.397 266.608 741.545 262.997 Q744.716 259.386 750.295 259.386 Z" fill="#000000" fill-rule="nonzero" fill-opacity="1" /><path clip-path="url(#clip620)" d="M766.197 260.011 L770.711 260.011 L778.813 281.77 L786.915 260.011 L791.429 260.011 L781.707 285.937 L775.92 285.937 L766.197 260.011 Z" fill="#000000" fill-rule="nonzero" fill-opacity="1" /><path clip-path="url(#clip620)" d="M819.484 271.909 L819.484 273.992 L799.901 273.992 Q800.179 278.39 802.54 280.705 Q804.924 282.997 809.16 282.997 Q811.614 282.997 813.905 282.395 Q816.22 281.793 818.489 280.589 L818.489 284.617 Q816.197 285.589 813.79 286.099 Q811.382 286.608 808.905 286.608 Q802.702 286.608 799.068 282.997 Q795.456 279.386 795.456 273.228 Q795.456 266.863 798.882 263.136 Q802.331 259.386 808.165 259.386 Q813.396 259.386 816.429 262.765 Q819.484 266.122 819.484 271.909 M815.225 270.659 Q815.179 267.164 813.257 265.08 Q811.359 262.997 808.211 262.997 Q804.646 262.997 802.493 265.011 Q800.364 267.025 800.04 270.682 L815.225 270.659 Z" fill="#000000" fill-rule="nonzero" fill-opacity="1" /><path clip-path="url(#clip620)" d="M843.535 263.946 L843.535 249.918 L847.794 249.918 L847.794 285.937 L843.535 285.937 L843.535 282.048 Q842.192 284.363 840.132 285.497 Q838.095 286.608 835.225 286.608 Q830.526 286.608 827.563 282.858 Q824.623 279.108 824.623 272.997 Q824.623 266.886 827.563 263.136 Q830.526 259.386 835.225 259.386 Q838.095 259.386 840.132 260.52 Q842.192 261.631 843.535 263.946 M829.021 272.997 Q829.021 277.696 830.942 280.381 Q832.887 283.043 836.266 283.043 Q839.646 283.043 841.59 280.381 Q843.535 277.696 843.535 272.997 Q843.535 268.298 841.59 265.636 Q839.646 262.951 836.266 262.951 Q832.887 262.951 830.942 265.636 Q829.021 268.298 829.021 272.997 Z" fill="#000000" fill-rule="nonzero" fill-opacity="1" /><path clip-path="url(#clip620)" d="M881.868 249.965 Q878.766 255.289 877.262 260.497 Q875.757 265.705 875.757 271.052 Q875.757 276.4 877.262 281.654 Q878.789 286.886 881.868 292.187 L878.164 292.187 Q874.692 286.747 872.956 281.492 Q871.243 276.238 871.243 271.052 Q871.243 265.89 872.956 260.659 Q874.669 255.428 878.164 249.965 L881.868 249.965 Z" fill="#000000" fill-rule="nonzero" fill-opacity="1" /><path clip-path="url(#clip620)" d="M911.683 270.289 L911.683 285.937 L907.423 285.937 L907.423 270.427 Q907.423 266.747 905.988 264.918 Q904.553 263.09 901.683 263.09 Q898.234 263.09 896.243 265.289 Q894.252 267.488 894.252 271.284 L894.252 285.937 L889.97 285.937 L889.97 260.011 L894.252 260.011 L894.252 264.039 Q895.78 261.701 897.84 260.543 Q899.924 259.386 902.632 259.386 Q907.099 259.386 909.391 262.164 Q911.683 264.918 911.683 270.289 Z" fill="#000000" fill-rule="nonzero" fill-opacity="1" /><path clip-path="url(#clip620)" d="M920.734 264.409 L950.409 264.409 L950.409 268.298 L920.734 268.298 L920.734 264.409 M920.734 273.853 L950.409 273.853 L950.409 277.789 L920.734 277.789 L920.734 273.853 Z" fill="#000000" fill-rule="nonzero" fill-opacity="1" /><path clip-path="url(#clip620)" d="M961.312 282.001 L968.951 282.001 L968.951 255.636 L960.641 257.303 L960.641 253.043 L968.905 251.377 L973.581 251.377 L973.581 282.001 L981.219 282.001 L981.219 285.937 L961.312 285.937 L961.312 282.001 Z" fill="#000000" fill-rule="nonzero" fill-opacity="1" /><path clip-path="url(#clip620)" d="M989.391 249.965 L993.094 249.965 Q996.567 255.428 998.279 260.659 Q1000.02 265.89 1000.02 271.052 Q1000.02 276.238 998.279 281.492 Q996.567 286.747 993.094 292.187 L989.391 292.187 Q992.469 286.886 993.974 281.654 Q995.502 276.4 995.502 271.052 Q995.502 265.705 993.974 260.497 Q992.469 255.289 989.391 249.965 Z" fill="#000000" fill-rule="nonzero" fill-opacity="1" /><circle clip-path="url(#clip620)" cx="486.506" cy="320.497" r="20.9455" fill="#1e90ff" fill-rule="evenodd" fill-opacity="1" stroke="#000000" stroke-opacity="1" stroke-width="5.12"/>
<path clip-path="url(#clip620)" d="M634.277 303.217 L638.953 303.217 L638.953 317.823 L654.462 303.217 L660.48 303.217 L643.328 319.328 L661.707 337.777 L655.55 337.777 L638.953 321.133 L638.953 337.777 L634.277 337.777 L634.277 303.217 Z" fill="#000000" fill-rule="nonzero" fill-opacity="1" /><path clip-path="url(#clip620)" d="M684.994 323.749 L684.994 325.832 L665.411 325.832 Q665.689 330.23 668.05 332.545 Q670.434 334.837 674.67 334.837 Q677.124 334.837 679.415 334.235 Q681.73 333.633 683.999 332.429 L683.999 336.457 Q681.707 337.429 679.3 337.939 Q676.892 338.448 674.415 338.448 Q668.212 338.448 664.578 334.837 Q660.966 331.226 660.966 325.068 Q660.966 318.703 664.392 314.976 Q667.841 311.226 673.675 311.226 Q678.906 311.226 681.939 314.605 Q684.994 317.962 684.994 323.749 M680.735 322.499 Q680.689 319.004 678.767 316.92 Q676.869 314.837 673.721 314.837 Q670.156 314.837 668.003 316.851 Q665.874 318.865 665.55 322.522 L680.735 322.499 Z" fill="#000000" fill-rule="nonzero" fill-opacity="1" /><path clip-path="url(#clip620)" d="M696.105 333.888 L696.105 347.638 L691.823 347.638 L691.823 311.851 L696.105 311.851 L696.105 315.786 Q697.448 313.471 699.485 312.36 Q701.545 311.226 704.392 311.226 Q709.114 311.226 712.054 314.976 Q715.017 318.726 715.017 324.837 Q715.017 330.948 712.054 334.698 Q709.114 338.448 704.392 338.448 Q701.545 338.448 699.485 337.337 Q697.448 336.203 696.105 333.888 M710.596 324.837 Q710.596 320.138 708.651 317.476 Q706.73 314.791 703.35 314.791 Q699.971 314.791 698.026 317.476 Q696.105 320.138 696.105 324.837 Q696.105 329.536 698.026 332.221 Q699.971 334.883 703.35 334.883 Q706.73 334.883 708.651 332.221 Q710.596 329.536 710.596 324.837 Z" fill="#000000" fill-rule="nonzero" fill-opacity="1" /><path clip-path="url(#clip620)" d="M726.29 304.49 L726.29 311.851 L735.063 311.851 L735.063 315.161 L726.29 315.161 L726.29 329.235 Q726.29 332.406 727.147 333.309 Q728.026 334.212 730.688 334.212 L735.063 334.212 L735.063 337.777 L730.688 337.777 Q725.758 337.777 723.883 335.948 Q722.008 334.096 722.008 329.235 L722.008 315.161 L718.883 315.161 L718.883 311.851 L722.008 311.851 L722.008 304.49 L726.29 304.49 Z" fill="#000000" fill-rule="nonzero" fill-opacity="1" /><path clip-path="url(#clip620)" d="M765.966 301.805 Q762.864 307.129 761.359 312.337 Q759.855 317.545 759.855 322.892 Q759.855 328.24 761.359 333.494 Q762.887 338.726 765.966 344.027 L762.262 344.027 Q758.79 338.587 757.054 333.332 Q755.341 328.078 755.341 322.892 Q755.341 317.73 757.054 312.499 Q758.767 307.268 762.262 301.805 L765.966 301.805 Z" fill="#000000" fill-rule="nonzero" fill-opacity="1" /><path clip-path="url(#clip620)" d="M795.781 322.129 L795.781 337.777 L791.521 337.777 L791.521 322.267 Q791.521 318.587 790.086 316.758 Q788.651 314.93 785.781 314.93 Q782.332 314.93 780.341 317.129 Q778.35 319.328 778.35 323.124 L778.35 337.777 L774.068 337.777 L774.068 311.851 L778.35 311.851 L778.35 315.879 Q779.878 313.541 781.938 312.383 Q784.021 311.226 786.73 311.226 Q791.197 311.226 793.489 314.004 Q795.781 316.758 795.781 322.129 Z" fill="#000000" fill-rule="nonzero" fill-opacity="1" /><path clip-path="url(#clip620)" d="M804.831 316.249 L834.507 316.249 L834.507 320.138 L804.831 320.138 L804.831 316.249 M804.831 325.693 L834.507 325.693 L834.507 329.629 L804.831 329.629 L804.831 325.693 Z" fill="#000000" fill-rule="nonzero" fill-opacity="1" /><path clip-path="url(#clip620)" d="M843.419 303.217 L865.641 303.217 L865.641 305.207 L853.095 337.777 L848.211 337.777 L860.016 307.152 L843.419 307.152 L843.419 303.217 Z" fill="#000000" fill-rule="nonzero" fill-opacity="1" /><path clip-path="url(#clip620)" d="M873.488 301.805 L877.192 301.805 Q880.664 307.268 882.377 312.499 Q884.113 317.73 884.113 322.892 Q884.113 328.078 882.377 333.332 Q880.664 338.587 877.192 344.027 L873.488 344.027 Q876.567 338.726 878.072 333.494 Q879.6 328.24 879.6 322.892 Q879.6 317.545 878.072 312.337 Q876.567 307.129 873.488 301.805 Z" fill="#000000" fill-rule="nonzero" fill-opacity="1" /></svg>
