<?xml version="1.0" encoding="utf-8"?>
<svg xmlns="http://www.w3.org/2000/svg" xmlns:xlink="http://www.w3.org/1999/xlink" width="600" height="400" viewBox="0 0 2400 1600">
<defs>
  <clipPath id="clip000">
    <rect x="0" y="0" width="2400" height="1600"/>
  </clipPath>
</defs>
<path clip-path="url(#clip000)" d="M0 1600 L2400 1600 L2400 0 L0 0  Z" fill="#ffffff" fill-rule="evenodd" fill-opacity="1"/>
<defs>
  <clipPath id="clip001">
    <rect x="480" y="0" width="1681" height="1600"/>
  </clipPath>
</defs>
<path clip-path="url(#clip000)" d="M175.445 1423.18 L2352.76 1423.18 L2352.76 123.472 L175.445 123.472  Z" fill="#ffffff" fill-rule="evenodd" fill-opacity="1"/>
<defs>
  <clipPath id="clip002">
    <rect x="175" y="123" width="2178" height="1301"/>
  </clipPath>
</defs>
<polyline clip-path="url(#clip002)" style="stroke:#000000; stroke-linecap:round; stroke-linejoin:round; stroke-width:2; stroke-opacity:0.1; fill:none" points="226.949,1423.18 226.949,123.472 "/>
<polyline clip-path="url(#clip002)" style="stroke:#000000; stroke-linecap:round; stroke-linejoin:round; stroke-width:2; stroke-opacity:0.1; fill:none" points="732.876,1423.18 732.876,123.472 "/>
<polyline clip-path="url(#clip002)" style="stroke:#000000; stroke-linecap:round; stroke-linejoin:round; stroke-width:2; stroke-opacity:0.1; fill:none" points="1238.8,1423.18 1238.8,123.472 "/>
<polyline clip-path="url(#clip002)" style="stroke:#000000; stroke-linecap:round; stroke-linejoin:round; stroke-width:2; stroke-opacity:0.1; fill:none" points="1744.73,1423.18 1744.73,123.472 "/>
<polyline clip-path="url(#clip002)" style="stroke:#000000; stroke-linecap:round; stroke-linejoin:round; stroke-width:2; stroke-opacity:0.1; fill:none" points="2250.66,1423.18 2250.66,123.472 "/>
<polyline clip-path="url(#clip002)" style="stroke:#000000; stroke-linecap:round; stroke-linejoin:round; stroke-width:2; stroke-opacity:0.1; fill:none" points="175.445,1386.4 2352.76,1386.4 "/>
<polyline clip-path="url(#clip002)" style="stroke:#000000; stroke-linecap:round; stroke-linejoin:round; stroke-width:2; stroke-opacity:0.1; fill:none" points="175.445,1200.09 2352.76,1200.09 "/>
<polyline clip-path="url(#clip002)" style="stroke:#000000; stroke-linecap:round; stroke-linejoin:round; stroke-width:2; stroke-opacity:0.1; fill:none" points="175.445,1013.78 2352.76,1013.78 "/>
<polyline clip-path="url(#clip002)" style="stroke:#000000; stroke-linecap:round; stroke-linejoin:round; stroke-width:2; stroke-opacity:0.1; fill:none" points="175.445,827.465 2352.76,827.465 "/>
<polyline clip-path="url(#clip002)" style="stroke:#000000; stroke-linecap:round; stroke-linejoin:round; stroke-width:2; stroke-opacity:0.1; fill:none" points="175.445,641.155 2352.76,641.155 "/>
<polyline clip-path="url(#clip002)" style="stroke:#000000; stroke-linecap:round; stroke-linejoin:round; stroke-width:2; stroke-opacity:0.1; fill:none" points="175.445,454.845 2352.76,454.845 "/>
<polyline clip-path="url(#clip002)" style="stroke:#000000; stroke-linecap:round; stroke-linejoin:round; stroke-width:2; stroke-opacity:0.1; fill:none" points="175.445,268.535 2352.76,268.535 "/>
<polyline clip-path="url(#clip000)" style="stroke:#000000; stroke-linecap:round; stroke-linejoin:round; stroke-width:4; stroke-opacity:1; fill:none" points="175.445,1423.18 2352.76,1423.18 "/>
<polyline clip-path="url(#clip000)" style="stroke:#000000; stroke-linecap:round; stroke-linejoin:round; stroke-width:4; stroke-opacity:1; fill:none" points="226.949,1423.18 226.949,1404.28 "/>
<polyline clip-path="url(#clip000)" style="stroke:#000000; stroke-linecap:round; stroke-linejoin:round; stroke-width:4; stroke-opacity:1; fill:none" points="732.876,1423.18 732.876,1404.28 "/>
<polyline clip-path="url(#clip000)" style="stroke:#000000; stroke-linecap:round; stroke-linejoin:round; stroke-width:4; stroke-opacity:1; fill:none" points="1238.8,1423.18 1238.8,1404.28 "/>
<polyline clip-path="url(#clip000)" style="stroke:#000000; stroke-linecap:round; stroke-linejoin:round; stroke-width:4; stroke-opacity:1; fill:none" points="1744.73,1423.18 1744.73,1404.28 "/>
<polyline clip-path="url(#clip000)" style="stroke:#000000; stroke-linecap:round; stroke-linejoin:round; stroke-width:4; stroke-opacity:1; fill:none" points="2250.66,1423.18 2250.66,1404.28 "/>
<path clip-path="url(#clip000)" d="M226.949 1454.1 Q223.338 1454.1 221.509 1457.66 Q219.703 1461.2 219.703 1468.33 Q219.703 1475.44 221.509 1479.01 Q223.338 1482.55 226.949 1482.55 Q230.583 1482.55 232.388 1479.01 Q234.217 1475.44 234.217 1468.33 Q234.217 1461.2 232.388 1457.66 Q230.583 1454.1 226.949 1454.1 M226.949 1450.39 Q232.759 1450.39 235.814 1455 Q238.893 1459.58 238.893 1468.33 Q238.893 1477.06 235.814 1481.67 Q232.759 1486.25 226.949 1486.25 Q221.138 1486.25 218.06 1481.67 Q215.004 1477.06 215.004 1468.33 Q215.004 1459.58 218.06 1455 Q221.138 1450.39 226.949 1450.39 Z" fill="#000000" fill-rule="nonzero" fill-opacity="1" /><path clip-path="url(#clip000)" d="M707.576 1451.02 L725.932 1451.02 L725.932 1454.96 L711.858 1454.96 L711.858 1463.43 Q712.877 1463.08 713.895 1462.92 Q714.914 1462.73 715.932 1462.73 Q721.719 1462.73 725.099 1465.9 Q728.478 1469.08 728.478 1474.49 Q728.478 1480.07 725.006 1483.17 Q721.534 1486.25 715.214 1486.25 Q713.039 1486.25 710.77 1485.88 Q708.525 1485.51 706.117 1484.77 L706.117 1480.07 Q708.201 1481.2 710.423 1481.76 Q712.645 1482.32 715.122 1482.32 Q719.126 1482.32 721.464 1480.21 Q723.802 1478.1 723.802 1474.49 Q723.802 1470.88 721.464 1468.77 Q719.126 1466.67 715.122 1466.67 Q713.247 1466.67 711.372 1467.08 Q709.52 1467.5 707.576 1468.38 L707.576 1451.02 Z" fill="#000000" fill-rule="nonzero" fill-opacity="1" /><path clip-path="url(#clip000)" d="M747.691 1454.1 Q744.08 1454.1 742.251 1457.66 Q740.446 1461.2 740.446 1468.33 Q740.446 1475.44 742.251 1479.01 Q744.08 1482.55 747.691 1482.55 Q751.325 1482.55 753.131 1479.01 Q754.96 1475.44 754.96 1468.33 Q754.96 1461.2 753.131 1457.66 Q751.325 1454.1 747.691 1454.1 M747.691 1450.39 Q753.501 1450.39 756.557 1455 Q759.636 1459.58 759.636 1468.33 Q759.636 1477.06 756.557 1481.67 Q753.501 1486.25 747.691 1486.25 Q741.881 1486.25 738.802 1481.67 Q735.747 1477.06 735.747 1468.33 Q735.747 1459.58 738.802 1455 Q741.881 1450.39 747.691 1450.39 Z" fill="#000000" fill-rule="nonzero" fill-opacity="1" /><path clip-path="url(#clip000)" d="M1198.41 1481.64 L1206.05 1481.64 L1206.05 1455.28 L1197.74 1456.95 L1197.74 1452.69 L1206 1451.02 L1210.68 1451.02 L1210.68 1481.64 L1218.32 1481.64 L1218.32 1485.58 L1198.41 1485.58 L1198.41 1481.64 Z" fill="#000000" fill-rule="nonzero" fill-opacity="1" /><path clip-path="url(#clip000)" d="M1237.76 1454.1 Q1234.15 1454.1 1232.32 1457.66 Q1230.52 1461.2 1230.52 1468.33 Q1230.52 1475.44 1232.32 1479.01 Q1234.15 1482.55 1237.76 1482.55 Q1241.4 1482.55 1243.2 1479.01 Q1245.03 1475.44 1245.03 1468.33 Q1245.03 1461.2 1243.2 1457.66 Q1241.4 1454.1 1237.76 1454.1 M1237.76 1450.39 Q1243.57 1450.39 1246.63 1455 Q1249.71 1459.58 1249.71 1468.33 Q1249.71 1477.06 1246.63 1481.67 Q1243.57 1486.25 1237.76 1486.25 Q1231.95 1486.25 1228.87 1481.67 Q1225.82 1477.06 1225.82 1468.33 Q1225.82 1459.58 1228.87 1455 Q1231.95 1450.39 1237.76 1450.39 Z" fill="#000000" fill-rule="nonzero" fill-opacity="1" /><path clip-path="url(#clip000)" d="M1267.92 1454.1 Q1264.31 1454.1 1262.48 1457.66 Q1260.68 1461.2 1260.68 1468.33 Q1260.68 1475.44 1262.48 1479.01 Q1264.31 1482.55 1267.92 1482.55 Q1271.56 1482.55 1273.36 1479.01 Q1275.19 1475.44 1275.19 1468.33 Q1275.19 1461.2 1273.36 1457.66 Q1271.56 1454.1 1267.92 1454.1 M1267.92 1450.39 Q1273.73 1450.39 1276.79 1455 Q1279.87 1459.58 1279.87 1468.33 Q1279.87 1477.06 1276.79 1481.67 Q1273.73 1486.25 1267.92 1486.25 Q1262.11 1486.25 1259.04 1481.67 Q1255.98 1477.06 1255.98 1468.33 Q1255.98 1459.58 1259.04 1455 Q1262.11 1450.39 1267.92 1450.39 Z" fill="#000000" fill-rule="nonzero" fill-opacity="1" /><path clip-path="url(#clip000)" d="M1704.34 1481.64 L1711.98 1481.64 L1711.98 1455.28 L1703.67 1456.95 L1703.67 1452.69 L1711.93 1451.02 L1716.61 1451.02 L1716.61 1481.64 L1724.25 1481.64 L1724.25 1485.58 L1704.34 1485.58 L1704.34 1481.64 Z" fill="#000000" fill-rule="nonzero" fill-opacity="1" /><path clip-path="url(#clip000)" d="M1733.74 1451.02 L1752.09 1451.02 L1752.09 1454.96 L1738.02 1454.96 L1738.02 1463.43 Q1739.04 1463.08 1740.06 1462.92 Q1741.07 1462.73 1742.09 1462.73 Q1747.88 1462.73 1751.26 1465.9 Q1754.64 1469.08 1754.64 1474.49 Q1754.64 1480.07 1751.17 1483.17 Q1747.69 1486.25 1741.38 1486.25 Q1739.2 1486.25 1736.93 1485.88 Q1734.69 1485.51 1732.28 1484.77 L1732.28 1480.07 Q1734.36 1481.2 1736.58 1481.76 Q1738.81 1482.32 1741.28 1482.32 Q1745.29 1482.32 1747.63 1480.21 Q1749.96 1478.1 1749.96 1474.49 Q1749.96 1470.88 1747.63 1468.77 Q1745.29 1466.67 1741.28 1466.67 Q1739.41 1466.67 1737.53 1467.08 Q1735.68 1467.5 1733.74 1468.38 L1733.74 1451.02 Z" fill="#000000" fill-rule="nonzero" fill-opacity="1" /><path clip-path="url(#clip000)" d="M1773.85 1454.1 Q1770.24 1454.1 1768.41 1457.66 Q1766.61 1461.2 1766.61 1468.33 Q1766.61 1475.44 1768.41 1479.01 Q1770.24 1482.55 1773.85 1482.55 Q1777.49 1482.55 1779.29 1479.01 Q1781.12 1475.44 1781.12 1468.33 Q1781.12 1461.2 1779.29 1457.66 Q1777.49 1454.1 1773.85 1454.1 M1773.85 1450.39 Q1779.66 1450.39 1782.72 1455 Q1785.8 1459.58 1785.8 1468.33 Q1785.8 1477.06 1782.72 1481.67 Q1779.66 1486.25 1773.85 1486.25 Q1768.04 1486.25 1764.96 1481.67 Q1761.91 1477.06 1761.91 1468.33 Q1761.91 1459.58 1764.96 1455 Q1768.04 1450.39 1773.85 1450.39 Z" fill="#000000" fill-rule="nonzero" fill-opacity="1" /><path clip-path="url(#clip000)" d="M2214.35 1481.64 L2230.67 1481.64 L2230.67 1485.58 L2208.73 1485.58 L2208.73 1481.64 Q2211.39 1478.89 2215.97 1474.26 Q2220.58 1469.61 2221.76 1468.27 Q2224 1465.74 2224.88 1464.01 Q2225.79 1462.25 2225.79 1460.56 Q2225.79 1457.8 2223.84 1456.07 Q2221.92 1454.33 2218.82 1454.33 Q2216.62 1454.33 2214.17 1455.09 Q2211.74 1455.86 2208.96 1457.41 L2208.96 1452.69 Q2211.78 1451.55 2214.24 1450.97 Q2216.69 1450.39 2218.73 1450.39 Q2224.1 1450.39 2227.29 1453.08 Q2230.49 1455.77 2230.49 1460.26 Q2230.49 1462.39 2229.68 1464.31 Q2228.89 1466.2 2226.78 1468.8 Q2226.2 1469.47 2223.1 1472.69 Q2220 1475.88 2214.35 1481.64 Z" fill="#000000" fill-rule="nonzero" fill-opacity="1" /><path clip-path="url(#clip000)" d="M2250.49 1454.1 Q2246.87 1454.1 2245.05 1457.66 Q2243.24 1461.2 2243.24 1468.33 Q2243.24 1475.44 2245.05 1479.01 Q2246.87 1482.55 2250.49 1482.55 Q2254.12 1482.55 2255.93 1479.01 Q2257.75 1475.44 2257.75 1468.33 Q2257.75 1461.2 2255.93 1457.66 Q2254.12 1454.1 2250.49 1454.1 M2250.49 1450.39 Q2256.3 1450.39 2259.35 1455 Q2262.43 1459.58 2262.43 1468.33 Q2262.43 1477.06 2259.35 1481.67 Q2256.3 1486.25 2250.49 1486.25 Q2244.68 1486.25 2241.6 1481.67 Q2238.54 1477.06 2238.54 1468.33 Q2238.54 1459.58 2241.6 1455 Q2244.68 1450.39 2250.49 1450.39 Z" fill="#000000" fill-rule="nonzero" fill-opacity="1" /><path clip-path="url(#clip000)" d="M2280.65 1454.1 Q2277.04 1454.1 2275.21 1457.66 Q2273.4 1461.2 2273.4 1468.33 Q2273.4 1475.44 2275.21 1479.01 Q2277.04 1482.55 2280.65 1482.55 Q2284.28 1482.55 2286.09 1479.01 Q2287.92 1475.44 2287.92 1468.33 Q2287.92 1461.2 2286.09 1457.66 Q2284.28 1454.1 2280.65 1454.1 M2280.65 1450.39 Q2286.46 1450.39 2289.51 1455 Q2292.59 1459.58 2292.59 1468.33 Q2292.59 1477.06 2289.51 1481.67 Q2286.46 1486.25 2280.65 1486.25 Q2274.84 1486.25 2271.76 1481.67 Q2268.7 1477.06 2268.7 1468.33 Q2268.7 1459.58 2271.76 1455 Q2274.84 1450.39 2280.65 1450.39 Z" fill="#000000" fill-rule="nonzero" fill-opacity="1" /><path clip-path="url(#clip000)" d="M1185.98 1520.52 L1226.18 1520.52 L1226.18 1525.93 L1209.31 1525.93 L1209.31 1568.04 L1202.85 1568.04 L1202.85 1525.93 L1185.98 1525.93 L1185.98 1520.52 Z" fill="#000000" fill-rule="nonzero" fill-opacity="1" /><path clip-path="url(#clip000)" d="M1230.12 1532.4 L1235.98 1532.4 L1235.98 1568.04 L1230.12 1568.04 L1230.12 1532.4 M1230.12 1518.52 L1235.98 1518.52 L1235.98 1525.93 L1230.12 1525.93 L1230.12 1518.52 Z" fill="#000000" fill-rule="nonzero" fill-opacity="1" /><path clip-path="url(#clip000)" d="M1275.99 1539.24 Q1278.18 1535.29 1281.24 1533.41 Q1284.3 1531.54 1288.43 1531.54 Q1294 1531.54 1297.03 1535.45 Q1300.05 1539.33 1300.05 1546.53 L1300.05 1568.04 L1294.16 1568.04 L1294.16 1546.72 Q1294.16 1541.59 1292.35 1539.11 Q1290.53 1536.63 1286.81 1536.63 Q1282.26 1536.63 1279.62 1539.65 Q1276.98 1542.68 1276.98 1547.9 L1276.98 1568.04 L1271.09 1568.04 L1271.09 1546.72 Q1271.09 1541.56 1269.27 1539.11 Q1267.46 1536.63 1263.67 1536.63 Q1259.18 1536.63 1256.54 1539.68 Q1253.9 1542.71 1253.9 1547.9 L1253.9 1568.04 L1248.01 1568.04 L1248.01 1532.4 L1253.9 1532.4 L1253.9 1537.93 Q1255.9 1534.66 1258.71 1533.1 Q1261.51 1531.54 1265.36 1531.54 Q1269.24 1531.54 1271.95 1533.51 Q1274.68 1535.48 1275.99 1539.24 Z" fill="#000000" fill-rule="nonzero" fill-opacity="1" /><path clip-path="url(#clip000)" d="M1342.22 1548.76 L1342.22 1551.62 L1315.3 1551.62 Q1315.68 1557.67 1318.93 1560.85 Q1322.2 1564 1328.03 1564 Q1331.4 1564 1334.55 1563.17 Q1337.74 1562.35 1340.86 1560.69 L1340.86 1566.23 Q1337.7 1567.57 1334.39 1568.27 Q1331.08 1568.97 1327.68 1568.97 Q1319.15 1568.97 1314.15 1564 Q1309.19 1559.04 1309.19 1550.57 Q1309.19 1541.82 1313.9 1536.69 Q1318.64 1531.54 1326.66 1531.54 Q1333.85 1531.54 1338.02 1536.18 Q1342.22 1540.8 1342.22 1548.76 M1336.37 1547.04 Q1336.3 1542.23 1333.66 1539.37 Q1331.05 1536.5 1326.72 1536.5 Q1321.82 1536.5 1318.86 1539.27 Q1315.93 1542.04 1315.49 1547.07 L1336.37 1547.04 Z" fill="#000000" fill-rule="nonzero" fill-opacity="1" /><polyline clip-path="url(#clip000)" style="stroke:#000000; stroke-linecap:round; stroke-linejoin:round; stroke-width:4; stroke-opacity:1; fill:none" points="175.445,1423.18 175.445,123.472 "/>
<polyline clip-path="url(#clip000)" style="stroke:#000000; stroke-linecap:round; stroke-linejoin:round; stroke-width:4; stroke-opacity:1; fill:none" points="175.445,1386.4 194.343,1386.4 "/>
<polyline clip-path="url(#clip000)" style="stroke:#000000; stroke-linecap:round; stroke-linejoin:round; stroke-width:4; stroke-opacity:1; fill:none" points="175.445,1200.09 194.343,1200.09 "/>
<polyline clip-path="url(#clip000)" style="stroke:#000000; stroke-linecap:round; stroke-linejoin:round; stroke-width:4; stroke-opacity:1; fill:none" points="175.445,1013.78 194.343,1013.78 "/>
<polyline clip-path="url(#clip000)" style="stroke:#000000; stroke-linecap:round; stroke-linejoin:round; stroke-width:4; stroke-opacity:1; fill:none" points="175.445,827.465 194.343,827.465 "/>
<polyline clip-path="url(#clip000)" style="stroke:#000000; stroke-linecap:round; stroke-linejoin:round; stroke-width:4; stroke-opacity:1; fill:none" points="175.445,641.155 194.343,641.155 "/>
<polyline clip-path="url(#clip000)" style="stroke:#000000; stroke-linecap:round; stroke-linejoin:round; stroke-width:4; stroke-opacity:1; fill:none" points="175.445,454.845 194.343,454.845 "/>
<polyline clip-path="url(#clip000)" style="stroke:#000000; stroke-linecap:round; stroke-linejoin:round; stroke-width:4; stroke-opacity:1; fill:none" points="175.445,268.535 194.343,268.535 "/>
<path clip-path="url(#clip000)" d="M127.501 1372.19 Q123.89 1372.19 122.061 1375.76 Q120.255 1379.3 120.255 1386.43 Q120.255 1393.54 122.061 1397.1 Q123.89 1400.64 127.501 1400.64 Q131.135 1400.64 132.941 1397.1 Q134.769 1393.54 134.769 1386.43 Q134.769 1379.3 132.941 1375.76 Q131.135 1372.19 127.501 1372.19 M127.501 1368.49 Q133.311 1368.49 136.367 1373.1 Q139.445 1377.68 139.445 1386.43 Q139.445 1395.16 136.367 1399.76 Q133.311 1404.35 127.501 1404.35 Q121.691 1404.35 118.612 1399.76 Q115.556 1395.16 115.556 1386.43 Q115.556 1377.68 118.612 1373.1 Q121.691 1368.49 127.501 1368.49 Z" fill="#000000" fill-rule="nonzero" fill-opacity="1" /><path clip-path="url(#clip000)" d="M119.538 1213.43 L127.177 1213.43 L127.177 1187.06 L118.867 1188.73 L118.867 1184.47 L127.13 1182.81 L131.806 1182.81 L131.806 1213.43 L139.445 1213.43 L139.445 1217.37 L119.538 1217.37 L119.538 1213.43 Z" fill="#000000" fill-rule="nonzero" fill-opacity="1" /><path clip-path="url(#clip000)" d="M123.126 1027.12 L139.445 1027.12 L139.445 1031.06 L117.501 1031.06 L117.501 1027.12 Q120.163 1024.37 124.746 1019.74 Q129.353 1015.08 130.533 1013.74 Q132.779 1011.22 133.658 1009.48 Q134.561 1007.72 134.561 1006.03 Q134.561 1003.28 132.617 1001.54 Q130.695 999.806 127.593 999.806 Q125.394 999.806 122.941 1000.57 Q120.51 1001.33 117.732 1002.88 L117.732 998.162 Q120.556 997.028 123.01 996.449 Q125.464 995.871 127.501 995.871 Q132.871 995.871 136.066 998.556 Q139.26 1001.24 139.26 1005.73 Q139.26 1007.86 138.45 1009.78 Q137.663 1011.68 135.556 1014.27 Q134.978 1014.94 131.876 1018.16 Q128.774 1021.36 123.126 1027.12 Z" fill="#000000" fill-rule="nonzero" fill-opacity="1" /><path clip-path="url(#clip000)" d="M132.316 826.111 Q135.672 826.829 137.547 829.097 Q139.445 831.366 139.445 834.699 Q139.445 839.815 135.927 842.616 Q132.408 845.417 125.927 845.417 Q123.751 845.417 121.436 844.977 Q119.144 844.56 116.691 843.704 L116.691 839.19 Q118.635 840.324 120.95 840.903 Q123.265 841.482 125.788 841.482 Q130.186 841.482 132.478 839.746 Q134.792 838.009 134.792 834.699 Q134.792 831.644 132.64 829.931 Q130.51 828.195 126.691 828.195 L122.663 828.195 L122.663 824.352 L126.876 824.352 Q130.325 824.352 132.154 822.986 Q133.982 821.597 133.982 819.005 Q133.982 816.343 132.084 814.931 Q130.209 813.496 126.691 813.496 Q124.769 813.496 122.57 813.912 Q120.371 814.329 117.732 815.209 L117.732 811.042 Q120.394 810.301 122.709 809.931 Q125.047 809.561 127.107 809.561 Q132.431 809.561 135.533 811.991 Q138.635 814.398 138.635 818.519 Q138.635 821.389 136.992 823.38 Q135.348 825.347 132.316 826.111 Z" fill="#000000" fill-rule="nonzero" fill-opacity="1" /><path clip-path="url(#clip000)" d="M129.862 627.949 L118.056 646.398 L129.862 646.398 L129.862 627.949 M128.635 623.875 L134.515 623.875 L134.515 646.398 L139.445 646.398 L139.445 650.287 L134.515 650.287 L134.515 658.435 L129.862 658.435 L129.862 650.287 L114.26 650.287 L114.26 645.773 L128.635 623.875 Z" fill="#000000" fill-rule="nonzero" fill-opacity="1" /><path clip-path="url(#clip000)" d="M118.543 437.565 L136.899 437.565 L136.899 441.501 L122.825 441.501 L122.825 449.973 Q123.843 449.626 124.862 449.463 Q125.88 449.278 126.899 449.278 Q132.686 449.278 136.066 452.45 Q139.445 455.621 139.445 461.037 Q139.445 466.616 135.973 469.718 Q132.501 472.797 126.181 472.797 Q124.005 472.797 121.737 472.426 Q119.492 472.056 117.084 471.315 L117.084 466.616 Q119.168 467.75 121.39 468.306 Q123.612 468.862 126.089 468.862 Q130.093 468.862 132.431 466.755 Q134.769 464.649 134.769 461.037 Q134.769 457.426 132.431 455.32 Q130.093 453.213 126.089 453.213 Q124.214 453.213 122.339 453.63 Q120.487 454.047 118.543 454.926 L118.543 437.565 Z" fill="#000000" fill-rule="nonzero" fill-opacity="1" /><path clip-path="url(#clip000)" d="M127.917 266.672 Q124.769 266.672 122.918 268.825 Q121.089 270.977 121.089 274.727 Q121.089 278.454 122.918 280.63 Q124.769 282.783 127.917 282.783 Q131.066 282.783 132.894 280.63 Q134.746 278.454 134.746 274.727 Q134.746 270.977 132.894 268.825 Q131.066 266.672 127.917 266.672 M137.2 252.019 L137.2 256.278 Q135.441 255.445 133.635 255.005 Q131.853 254.566 130.093 254.566 Q125.464 254.566 123.01 257.69 Q120.58 260.815 120.232 267.135 Q121.598 265.121 123.658 264.056 Q125.718 262.968 128.195 262.968 Q133.404 262.968 136.413 266.14 Q139.445 269.288 139.445 274.727 Q139.445 280.051 136.297 283.269 Q133.149 286.487 127.917 286.487 Q121.922 286.487 118.751 281.903 Q115.58 277.297 115.58 268.57 Q115.58 260.376 119.468 255.515 Q123.357 250.63 129.908 250.63 Q131.667 250.63 133.45 250.978 Q135.255 251.325 137.2 252.019 Z" fill="#000000" fill-rule="nonzero" fill-opacity="1" /><path clip-path="url(#clip000)" d="M20.1444 820.225 L26.9239 820.225 Q23.9002 823.472 22.4043 827.164 Q20.9083 830.824 20.9083 834.962 Q20.9083 843.11 25.9054 847.439 Q30.8707 851.767 40.2919 851.767 Q49.6813 851.767 54.6784 847.439 Q59.6436 843.11 59.6436 834.962 Q59.6436 830.824 58.1477 827.164 Q56.6518 823.472 53.6281 820.225 L60.3439 820.225 Q62.6355 823.599 63.7814 827.387 Q64.9272 831.143 64.9272 835.344 Q64.9272 846.134 58.3387 852.34 Q51.7183 858.547 40.2919 858.547 Q28.8336 858.547 22.2451 852.34 Q15.6248 846.134 15.6248 835.344 Q15.6248 831.079 16.7706 827.323 Q17.8846 823.535 20.1444 820.225 Z" fill="#000000" fill-rule="nonzero" fill-opacity="1" /><path clip-path="url(#clip000)" d="M16.4842 816.883 L16.4842 776.684 L21.895 776.684 L21.895 793.553 L64.0042 793.553 L64.0042 800.014 L21.895 800.014 L21.895 816.883 L16.4842 816.883 Z" fill="#000000" fill-rule="nonzero" fill-opacity="1" /><path clip-path="url(#clip000)" d="M16.4842 770.477 L16.4842 761.82 L56.238 740.749 L16.4842 740.749 L16.4842 734.511 L64.0042 734.511 L64.0042 743.168 L24.2503 764.239 L64.0042 764.239 L64.0042 770.477 L16.4842 770.477 Z" fill="#000000" fill-rule="nonzero" fill-opacity="1" /><path clip-path="url(#clip000)" d="M16.4842 728.305 L16.4842 688.105 L21.895 688.105 L21.895 704.974 L64.0042 704.974 L64.0042 711.435 L21.895 711.435 L21.895 728.305 L16.4842 728.305 Z" fill="#000000" fill-rule="nonzero" fill-opacity="1" /><path clip-path="url(#clip000)" d="M1041.99 18.8205 L1041.99 41.5461 L1052.28 41.5461 Q1057.99 41.5461 1061.11 38.5889 Q1064.23 35.6318 1064.23 30.163 Q1064.23 24.7348 1061.11 21.7777 Q1057.99 18.8205 1052.28 18.8205 L1041.99 18.8205 M1033.81 12.096 L1052.28 12.096 Q1062.45 12.096 1067.63 16.714 Q1072.86 21.2916 1072.86 30.163 Q1072.86 39.1155 1067.63 43.6931 Q1062.45 48.2706 1052.28 48.2706 L1041.99 48.2706 L1041.99 72.576 L1033.81 72.576 L1033.81 12.096 Z" fill="#000000" fill-rule="nonzero" fill-opacity="1" /><path clip-path="url(#clip000)" d="M1100.4 49.7694 Q1091.37 49.7694 1087.89 51.8354 Q1084.4 53.9013 1084.4 58.8839 Q1084.4 62.8538 1087 65.2034 Q1089.63 67.5124 1094.12 67.5124 Q1100.32 67.5124 1104.05 63.1374 Q1107.82 58.7219 1107.82 51.4303 L1107.82 49.7694 L1100.4 49.7694 M1115.27 46.6907 L1115.27 72.576 L1107.82 72.576 L1107.82 65.6895 Q1105.26 69.8214 1101.46 71.8063 Q1097.65 73.7508 1092.14 73.7508 Q1085.17 73.7508 1081.04 69.8619 Q1076.95 65.9325 1076.95 59.3701 Q1076.95 51.7138 1082.05 47.825 Q1087.2 43.9361 1097.37 43.9361 L1107.82 43.9361 L1107.82 43.2069 Q1107.82 38.0623 1104.41 35.2672 Q1101.05 32.4315 1094.93 32.4315 Q1091.05 32.4315 1087.36 33.3632 Q1083.67 34.295 1080.27 36.1584 L1080.27 29.2718 Q1084.36 27.692 1088.21 26.9223 Q1092.06 26.1121 1095.7 26.1121 Q1105.55 26.1121 1110.41 31.2163 Q1115.27 36.3204 1115.27 46.6907 Z" fill="#000000" fill-rule="nonzero" fill-opacity="1" /><path clip-path="url(#clip000)" d="M1138 14.324 L1138 27.2059 L1153.35 27.2059 L1153.35 32.9987 L1138 32.9987 L1138 57.6282 Q1138 63.1779 1139.49 64.7578 Q1141.03 66.3376 1145.69 66.3376 L1153.35 66.3376 L1153.35 72.576 L1145.69 72.576 Q1137.06 72.576 1133.78 69.3758 Q1130.5 66.1351 1130.5 57.6282 L1130.5 32.9987 L1125.03 32.9987 L1125.03 27.2059 L1130.5 27.2059 L1130.5 14.324 L1138 14.324 Z" fill="#000000" fill-rule="nonzero" fill-opacity="1" /><path clip-path="url(#clip000)" d="M1163.15 27.2059 L1170.61 27.2059 L1170.61 72.576 L1163.15 72.576 L1163.15 27.2059 M1163.15 9.54393 L1170.61 9.54393 L1170.61 18.9825 L1163.15 18.9825 L1163.15 9.54393 Z" fill="#000000" fill-rule="nonzero" fill-opacity="1" /><path clip-path="url(#clip000)" d="M1225.01 48.0275 L1225.01 51.6733 L1190.74 51.6733 Q1191.22 59.3701 1195.36 63.421 Q1199.53 67.4314 1206.94 67.4314 Q1211.24 67.4314 1215.25 66.3781 Q1219.3 65.3249 1223.27 63.2184 L1223.27 70.267 Q1219.26 71.9684 1215.04 72.8596 Q1210.83 73.7508 1206.5 73.7508 Q1195.64 73.7508 1189.28 67.4314 Q1182.96 61.1119 1182.96 50.3365 Q1182.96 39.1965 1188.96 32.6746 Q1194.99 26.1121 1205.2 26.1121 Q1214.36 26.1121 1219.66 32.0264 Q1225.01 37.9003 1225.01 48.0275 M1217.56 45.84 Q1217.47 39.7232 1214.11 36.0774 Q1210.79 32.4315 1205.28 32.4315 Q1199.04 32.4315 1195.28 35.9558 Q1191.55 39.4801 1190.98 45.8805 L1217.56 45.84 Z" fill="#000000" fill-rule="nonzero" fill-opacity="1" /><path clip-path="url(#clip000)" d="M1274.96 45.1919 L1274.96 72.576 L1267.5 72.576 L1267.5 45.4349 Q1267.5 38.994 1264.99 35.7938 Q1262.48 32.5936 1257.46 32.5936 Q1251.42 32.5936 1247.94 36.4419 Q1244.45 40.2903 1244.45 46.9338 L1244.45 72.576 L1236.96 72.576 L1236.96 27.2059 L1244.45 27.2059 L1244.45 34.2544 Q1247.13 30.163 1250.73 28.1376 Q1254.38 26.1121 1259.12 26.1121 Q1266.94 26.1121 1270.95 30.9732 Q1274.96 35.7938 1274.96 45.1919 Z" fill="#000000" fill-rule="nonzero" fill-opacity="1" /><path clip-path="url(#clip000)" d="M1297.2 14.324 L1297.2 27.2059 L1312.55 27.2059 L1312.55 32.9987 L1297.2 32.9987 L1297.2 57.6282 Q1297.2 63.1779 1298.7 64.7578 Q1300.23 66.3376 1304.89 66.3376 L1312.55 66.3376 L1312.55 72.576 L1304.89 72.576 Q1296.26 72.576 1292.98 69.3758 Q1289.7 66.1351 1289.7 57.6282 L1289.7 32.9987 L1284.23 32.9987 L1284.23 27.2059 L1289.7 27.2059 L1289.7 14.324 L1297.2 14.324 Z" fill="#000000" fill-rule="nonzero" fill-opacity="1" /><path clip-path="url(#clip000)" d="M1386.44 45.1919 L1386.44 72.576 L1378.98 72.576 L1378.98 45.4349 Q1378.98 38.994 1376.47 35.7938 Q1373.96 32.5936 1368.94 32.5936 Q1362.9 32.5936 1359.42 36.4419 Q1355.93 40.2903 1355.93 46.9338 L1355.93 72.576 L1348.44 72.576 L1348.44 27.2059 L1355.93 27.2059 L1355.93 34.2544 Q1358.61 30.163 1362.21 28.1376 Q1365.86 26.1121 1370.6 26.1121 Q1378.42 26.1121 1382.43 30.9732 Q1386.44 35.7938 1386.44 45.1919 Z" fill="#000000" fill-rule="nonzero" fill-opacity="1" /><path clip-path="url(#clip000)" d="M1427.15 39.9662 Q1433.02 41.222 1436.3 45.1919 Q1439.63 49.1618 1439.63 54.9951 Q1439.63 63.9476 1433.47 68.8492 Q1427.31 73.7508 1415.97 73.7508 Q1412.16 73.7508 1408.11 72.9811 Q1404.1 72.2519 1399.81 70.7531 L1399.81 62.8538 Q1403.21 64.8388 1407.26 65.8515 Q1411.31 66.8642 1415.73 66.8642 Q1423.42 66.8642 1427.43 63.826 Q1431.48 60.7879 1431.48 54.9951 Q1431.48 49.6479 1427.72 46.6502 Q1423.99 43.612 1417.31 43.612 L1410.26 43.612 L1410.26 36.8875 L1417.63 36.8875 Q1423.67 36.8875 1426.87 34.4975 Q1430.07 32.067 1430.07 27.5299 Q1430.07 22.8714 1426.74 20.4004 Q1423.46 17.8888 1417.31 17.8888 Q1413.94 17.8888 1410.1 18.618 Q1406.25 19.3471 1401.63 20.8865 L1401.63 13.5948 Q1406.29 12.2985 1410.34 11.6504 Q1414.43 11.0023 1418.03 11.0023 Q1427.35 11.0023 1432.78 15.2557 Q1438.21 19.4686 1438.21 26.6793 Q1438.21 31.7024 1435.33 35.1862 Q1432.46 38.6294 1427.15 39.9662 Z" fill="#000000" fill-rule="nonzero" fill-opacity="1" /><path clip-path="url(#clip000)" d="M1477.62 19.2256 L1456.96 51.5113 L1477.62 51.5113 L1477.62 19.2256 M1475.48 12.096 L1485.77 12.096 L1485.77 51.5113 L1494.39 51.5113 L1494.39 58.3168 L1485.77 58.3168 L1485.77 72.576 L1477.62 72.576 L1477.62 58.3168 L1450.32 58.3168 L1450.32 50.4176 L1475.48 12.096 Z" fill="#000000" fill-rule="nonzero" fill-opacity="1" /><polyline clip-path="url(#clip002)" style="stroke:#009af9; stroke-linecap:round; stroke-linejoin:round; stroke-width:8; stroke-opacity:1; fill:none" points="237.067,1386.4 247.186,1375.27 257.304,1366.07 267.423,1357.01 277.541,1348 287.66,1339.02 297.779,1330.08 307.897,1321.17 318.016,1312.31 328.134,1303.48 338.253,1294.69 348.371,1285.95 358.49,1277.24 368.608,1268.57 378.727,1259.94 388.846,1251.35 398.964,1242.8 409.083,1234.29 419.201,1225.81 429.32,1217.38 439.438,1208.99 449.557,1200.63 459.675,1192.31 469.794,1184.03 479.913,1175.79 490.031,1167.59 500.15,1159.42 510.268,1151.29 520.387,1143.2 530.505,1135.14 540.624,1127.12 550.742,1119.14 560.861,1111.2 570.98,1103.29 581.098,1095.42 591.217,1087.59 601.335,1079.79 611.454,1072.03 621.572,1064.3 631.691,1056.6 641.809,1048.95 651.928,1041.32 662.047,1033.73 672.165,1026.18 682.284,1018.66 692.402,1011.17 702.521,1003.72 712.639,996.296 722.758,988.908 732.876,981.551 742.995,974.227 753.114,966.934 763.232,959.673 773.351,952.443 783.469,945.243 793.588,938.073 803.706,930.934 813.825,923.824 823.943,916.743 834.062,909.692 844.181,902.668 854.299,895.673 864.418,888.706 874.536,881.768 884.655,874.859 894.773,867.978 904.892,861.127 915.01,854.304 925.129,847.51 935.248,840.744 945.366,834.006 955.485,827.297 965.603,820.616 975.722,813.962 985.84,807.337 995.959,800.74 1006.08,794.17 1016.2,787.628 1026.31,781.114 1036.43,774.627 1046.55,768.167 1056.67,761.735 1066.79,755.33 1076.91,748.951 1087.03,742.6 1097.14,736.274 1107.26,729.975 1117.38,723.702 1127.5,717.454 1137.62,711.233 1147.74,705.038 1157.86,698.868 1167.97,692.724 1178.09,686.606 1188.21,680.514 1198.33,674.447 1208.45,668.406 1218.57,662.391 1228.69,656.4 1238.8,650.436 1248.92,644.496 1259.04,638.582 1269.16,632.693 1279.28,626.83 1289.4,620.991 1299.52,615.178 1309.63,609.389 1319.75,603.626 1329.87,597.887 1339.99,592.173 1350.11,586.484 1360.23,580.82 1370.35,575.18 1380.46,569.565 1390.58,563.975 1400.7,558.409 1410.82,552.867 1420.94,547.35 1431.06,541.857 1441.18,536.388 1451.29,530.944 1461.41,525.524 1471.53,520.127 1481.65,514.755 1491.77,509.407 1501.89,504.083 1512.01,498.782 1522.12,493.506 1532.24,488.253 1542.36,483.023 1552.48,477.818 1562.6,472.636 1572.72,467.477 1582.84,462.342 1592.95,457.23 1603.07,452.142 1613.19,447.077 1623.31,442.035 1633.43,437.016 1643.55,432.02 1653.66,427.047 1663.78,422.097 1673.9,417.17 1684.02,412.266 1694.14,407.385 1704.26,402.527 1714.38,397.691 1724.49,392.878 1734.61,388.087 1744.73,383.319 1754.85,378.573 1764.97,373.849 1775.09,369.148 1785.21,364.469 1795.32,359.813 1805.44,355.178 1815.56,350.565 1825.68,345.975 1835.8,341.406 1845.92,336.86 1856.04,332.335 1866.15,327.832 1876.27,323.35 1886.39,318.89 1896.51,314.452 1906.63,310.035 1916.75,305.64 1926.87,301.266 1936.98,296.914 1947.1,292.582 1957.22,288.272 1967.34,283.983 1977.46,279.716 1987.58,275.469 1997.7,271.243 2007.81,267.038 2017.93,262.854 2028.05,258.691 2038.17,254.548 2048.29,250.425 2058.41,246.321 2068.53,242.236 2078.64,238.17 2088.76,234.123 2098.88,230.094 2109,226.084 2119.12,222.092 2129.24,218.118 2139.36,214.163 2149.47,210.225 2159.59,206.306 2169.71,202.404 2179.83,198.52 2189.95,194.653 2200.07,190.804 2210.19,186.972 2220.3,183.157 2230.42,179.36 2240.54,175.58 2250.66,171.816 2260.78,168.07 2270.9,164.34 2281.02,160.627 2291.13,160.256 "/>
<circle clip-path="url(#clip002)" cx="1107.47" cy="1351.37" r="18" fill="#e26f46" fill-rule="evenodd" fill-opacity="1" stroke="#000000" stroke-opacity="1" stroke-width="3.2"/>
<circle clip-path="url(#clip002)" cx="1176.37" cy="1340.56" r="18" fill="#e26f46" fill-rule="evenodd" fill-opacity="1" stroke="#000000" stroke-opacity="1" stroke-width="3.2"/>
<circle clip-path="url(#clip002)" cx="1292.74" cy="1342.24" r="18" fill="#e26f46" fill-rule="evenodd" fill-opacity="1" stroke="#000000" stroke-opacity="1" stroke-width="3.2"/>
<circle clip-path="url(#clip002)" cx="1537.3" cy="1342.24" r="18" fill="#e26f46" fill-rule="evenodd" fill-opacity="1" stroke="#000000" stroke-opacity="1" stroke-width="3.2"/>
<circle clip-path="url(#clip002)" cx="1621.59" cy="1351" r="18" fill="#e26f46" fill-rule="evenodd" fill-opacity="1" stroke="#000000" stroke-opacity="1" stroke-width="3.2"/>
<circle clip-path="url(#clip002)" cx="1783.99" cy="1321.56" r="18" fill="#e26f46" fill-rule="evenodd" fill-opacity="1" stroke="#000000" stroke-opacity="1" stroke-width="3.2"/>
<circle clip-path="url(#clip002)" cx="2021.68" cy="1319.14" r="18" fill="#e26f46" fill-rule="evenodd" fill-opacity="1" stroke="#000000" stroke-opacity="1" stroke-width="3.2"/>
<circle clip-path="url(#clip002)" cx="2271.91" cy="1323.98" r="18" fill="#e26f46" fill-rule="evenodd" fill-opacity="1" stroke="#000000" stroke-opacity="1" stroke-width="3.2"/>
<path clip-path="url(#clip000)" d="M248.022 322.316 L849.987 322.316 L849.987 166.796 L248.022 166.796  Z" fill="#ffffff" fill-rule="evenodd" fill-opacity="1"/>
<polyline clip-path="url(#clip000)" style="stroke:#000000; stroke-linecap:round; stroke-linejoin:round; stroke-width:4; stroke-opacity:1; fill:none" points="248.022,322.316 849.987,322.316 849.987,166.796 248.022,166.796 248.022,322.316 "/>
<polyline clip-path="url(#clip000)" style="stroke:#009af9; stroke-linecap:round; stroke-linejoin:round; stroke-width:8; stroke-opacity:1; fill:none" points="272.215,218.636 417.369,218.636 "/>
<path clip-path="url(#clip000)" d="M441.561 201.356 L448.529 201.356 L457.348 224.874 L466.214 201.356 L473.181 201.356 L473.181 235.916 L468.621 235.916 L468.621 205.569 L459.709 229.272 L455.01 229.272 L446.098 205.569 L446.098 235.916 L441.561 235.916 L441.561 201.356 Z" fill="#000000" fill-rule="nonzero" fill-opacity="1" /><path clip-path="url(#clip000)" d="M492.325 212.976 Q488.899 212.976 486.908 215.661 Q484.917 218.323 484.917 222.976 Q484.917 227.629 486.885 230.314 Q488.876 232.976 492.325 232.976 Q495.727 232.976 497.718 230.291 Q499.709 227.606 499.709 222.976 Q499.709 218.37 497.718 215.684 Q495.727 212.976 492.325 212.976 M492.325 209.365 Q497.88 209.365 501.051 212.976 Q504.223 216.587 504.223 222.976 Q504.223 229.342 501.051 232.976 Q497.88 236.587 492.325 236.587 Q486.746 236.587 483.575 232.976 Q480.426 229.342 480.426 222.976 Q480.426 216.587 483.575 212.976 Q486.746 209.365 492.325 209.365 Z" fill="#000000" fill-rule="nonzero" fill-opacity="1" /><path clip-path="url(#clip000)" d="M528.343 213.925 L528.343 199.897 L532.602 199.897 L532.602 235.916 L528.343 235.916 L528.343 232.027 Q527 234.342 524.94 235.476 Q522.903 236.587 520.033 236.587 Q515.334 236.587 512.371 232.837 Q509.431 229.087 509.431 222.976 Q509.431 216.865 512.371 213.115 Q515.334 209.365 520.033 209.365 Q522.903 209.365 524.94 210.499 Q527 211.61 528.343 213.925 M513.829 222.976 Q513.829 227.675 515.75 230.36 Q517.695 233.022 521.074 233.022 Q524.454 233.022 526.398 230.36 Q528.343 227.675 528.343 222.976 Q528.343 218.277 526.398 215.615 Q524.454 212.93 521.074 212.93 Q517.695 212.93 515.75 215.615 Q513.829 218.277 513.829 222.976 Z" fill="#000000" fill-rule="nonzero" fill-opacity="1" /><path clip-path="url(#clip000)" d="M563.551 221.888 L563.551 223.971 L543.968 223.971 Q544.246 228.369 546.607 230.684 Q548.991 232.976 553.227 232.976 Q555.681 232.976 557.972 232.374 Q560.287 231.772 562.556 230.569 L562.556 234.596 Q560.264 235.568 557.857 236.078 Q555.449 236.587 552.972 236.587 Q546.769 236.587 543.134 232.976 Q539.523 229.365 539.523 223.207 Q539.523 216.842 542.949 213.115 Q546.398 209.365 552.232 209.365 Q557.463 209.365 560.496 212.745 Q563.551 216.101 563.551 221.888 M559.292 220.638 Q559.246 217.143 557.324 215.059 Q555.426 212.976 552.278 212.976 Q548.713 212.976 546.56 214.99 Q544.431 217.004 544.107 220.661 L559.292 220.638 Z" fill="#000000" fill-rule="nonzero" fill-opacity="1" /><path clip-path="url(#clip000)" d="M570.542 199.897 L574.801 199.897 L574.801 235.916 L570.542 235.916 L570.542 199.897 Z" fill="#000000" fill-rule="nonzero" fill-opacity="1" /><path clip-path="url(#clip000)" d="M603.643 205.198 L603.643 218.184 L609.523 218.184 Q612.787 218.184 614.569 216.495 Q616.352 214.805 616.352 211.68 Q616.352 208.578 614.569 206.888 Q612.787 205.198 609.523 205.198 L603.643 205.198 M598.968 201.356 L609.523 201.356 Q615.333 201.356 618.296 203.995 Q621.282 206.61 621.282 211.68 Q621.282 216.795 618.296 219.411 Q615.333 222.027 609.523 222.027 L603.643 222.027 L603.643 235.916 L598.968 235.916 L598.968 201.356 Z" fill="#000000" fill-rule="nonzero" fill-opacity="1" /><path clip-path="url(#clip000)" d="M641.56 213.971 Q640.842 213.555 639.986 213.37 Q639.152 213.161 638.134 213.161 Q634.523 213.161 632.578 215.522 Q630.657 217.86 630.657 222.258 L630.657 235.916 L626.375 235.916 L626.375 209.99 L630.657 209.99 L630.657 214.018 Q632 211.657 634.153 210.522 Q636.305 209.365 639.384 209.365 Q639.824 209.365 640.356 209.434 Q640.889 209.481 641.537 209.596 L641.56 213.971 Z" fill="#000000" fill-rule="nonzero" fill-opacity="1" /><path clip-path="url(#clip000)" d="M667.162 221.888 L667.162 223.971 L647.578 223.971 Q647.856 228.369 650.217 230.684 Q652.601 232.976 656.838 232.976 Q659.291 232.976 661.583 232.374 Q663.898 231.772 666.166 230.569 L666.166 234.596 Q663.875 235.568 661.467 236.078 Q659.06 236.587 656.583 236.587 Q650.379 236.587 646.745 232.976 Q643.134 229.365 643.134 223.207 Q643.134 216.842 646.56 213.115 Q650.009 209.365 655.842 209.365 Q661.074 209.365 664.106 212.745 Q667.162 216.101 667.162 221.888 M662.902 220.638 Q662.856 217.143 660.935 215.059 Q659.037 212.976 655.889 212.976 Q652.324 212.976 650.171 214.99 Q648.041 217.004 647.717 220.661 L662.902 220.638 Z" fill="#000000" fill-rule="nonzero" fill-opacity="1" /><path clip-path="url(#clip000)" d="M691.212 213.925 L691.212 199.897 L695.472 199.897 L695.472 235.916 L691.212 235.916 L691.212 232.027 Q689.87 234.342 687.81 235.476 Q685.773 236.587 682.902 236.587 Q678.203 236.587 675.24 232.837 Q672.3 229.087 672.3 222.976 Q672.3 216.865 675.24 213.115 Q678.203 209.365 682.902 209.365 Q685.773 209.365 687.81 210.499 Q689.87 211.61 691.212 213.925 M676.699 222.976 Q676.699 227.675 678.62 230.36 Q680.564 233.022 683.944 233.022 Q687.324 233.022 689.268 230.36 Q691.212 227.675 691.212 222.976 Q691.212 218.277 689.268 215.615 Q687.324 212.93 683.944 212.93 Q680.564 212.93 678.62 215.615 Q676.699 218.277 676.699 222.976 Z" fill="#000000" fill-rule="nonzero" fill-opacity="1" /><path clip-path="url(#clip000)" d="M704.245 209.99 L708.504 209.99 L708.504 235.916 L704.245 235.916 L704.245 209.99 M704.245 199.897 L708.504 199.897 L708.504 205.291 L704.245 205.291 L704.245 199.897 Z" fill="#000000" fill-rule="nonzero" fill-opacity="1" /><path clip-path="url(#clip000)" d="M736.073 210.985 L736.073 214.967 Q734.268 213.971 732.439 213.485 Q730.633 212.976 728.782 212.976 Q724.638 212.976 722.346 215.615 Q720.055 218.231 720.055 222.976 Q720.055 227.721 722.346 230.36 Q724.638 232.976 728.782 232.976 Q730.633 232.976 732.439 232.49 Q734.268 231.981 736.073 230.985 L736.073 234.92 Q734.291 235.754 732.37 236.17 Q730.471 236.587 728.319 236.587 Q722.462 236.587 719.013 232.906 Q715.564 229.226 715.564 222.976 Q715.564 216.633 719.036 212.999 Q722.532 209.365 728.596 209.365 Q730.564 209.365 732.439 209.782 Q734.314 210.175 736.073 210.985 Z" fill="#000000" fill-rule="nonzero" fill-opacity="1" /><path clip-path="url(#clip000)" d="M747.694 202.629 L747.694 209.99 L756.467 209.99 L756.467 213.3 L747.694 213.3 L747.694 227.374 Q747.694 230.545 748.55 231.448 Q749.43 232.351 752.092 232.351 L756.467 232.351 L756.467 235.916 L752.092 235.916 Q747.161 235.916 745.286 234.087 Q743.411 232.235 743.411 227.374 L743.411 213.3 L740.286 213.3 L740.286 209.99 L743.411 209.99 L743.411 202.629 L747.694 202.629 Z" fill="#000000" fill-rule="nonzero" fill-opacity="1" /><path clip-path="url(#clip000)" d="M762.069 209.99 L766.328 209.99 L766.328 235.916 L762.069 235.916 L762.069 209.99 M762.069 199.897 L766.328 199.897 L766.328 205.291 L762.069 205.291 L762.069 199.897 Z" fill="#000000" fill-rule="nonzero" fill-opacity="1" /><path clip-path="url(#clip000)" d="M785.286 212.976 Q781.86 212.976 779.869 215.661 Q777.879 218.323 777.879 222.976 Q777.879 227.629 779.846 230.314 Q781.837 232.976 785.286 232.976 Q788.689 232.976 790.679 230.291 Q792.67 227.606 792.67 222.976 Q792.67 218.37 790.679 215.684 Q788.689 212.976 785.286 212.976 M785.286 209.365 Q790.841 209.365 794.013 212.976 Q797.184 216.587 797.184 222.976 Q797.184 229.342 794.013 232.976 Q790.841 236.587 785.286 236.587 Q779.707 236.587 776.536 232.976 Q773.388 229.342 773.388 222.976 Q773.388 216.587 776.536 212.976 Q779.707 209.365 785.286 209.365 Z" fill="#000000" fill-rule="nonzero" fill-opacity="1" /><path clip-path="url(#clip000)" d="M825.795 220.268 L825.795 235.916 L821.536 235.916 L821.536 220.407 Q821.536 216.726 820.101 214.897 Q818.665 213.069 815.795 213.069 Q812.346 213.069 810.355 215.268 Q808.365 217.467 808.365 221.263 L808.365 235.916 L804.082 235.916 L804.082 209.99 L808.365 209.99 L808.365 214.018 Q809.892 211.68 811.952 210.522 Q814.036 209.365 816.744 209.365 Q821.212 209.365 823.503 212.143 Q825.795 214.897 825.795 220.268 Z" fill="#000000" fill-rule="nonzero" fill-opacity="1" /><circle clip-path="url(#clip000)" cx="344.792" cy="270.476" r="20.9455" fill="#e26f46" fill-rule="evenodd" fill-opacity="1" stroke="#000000" stroke-opacity="1" stroke-width="3.72364"/>
<path clip-path="url(#clip000)" d="M457.579 256.367 Q452.487 256.367 449.478 260.163 Q446.491 263.96 446.491 270.51 Q446.491 277.038 449.478 280.834 Q452.487 284.631 457.579 284.631 Q462.672 284.631 465.635 280.834 Q468.621 277.038 468.621 270.51 Q468.621 263.96 465.635 260.163 Q462.672 256.367 457.579 256.367 M457.579 252.571 Q464.848 252.571 469.2 257.455 Q473.552 262.316 473.552 270.51 Q473.552 278.682 469.2 283.566 Q464.848 288.427 457.579 288.427 Q450.288 288.427 445.913 283.566 Q441.561 278.705 441.561 270.51 Q441.561 262.316 445.913 257.455 Q450.288 252.571 457.579 252.571 Z" fill="#000000" fill-rule="nonzero" fill-opacity="1" /><path clip-path="url(#clip000)" d="M499.292 274.816 Q499.292 270.117 497.348 267.455 Q495.426 264.77 492.047 264.77 Q488.667 264.77 486.723 267.455 Q484.801 270.117 484.801 274.816 Q484.801 279.515 486.723 282.2 Q488.667 284.862 492.047 284.862 Q495.426 284.862 497.348 282.2 Q499.292 279.515 499.292 274.816 M484.801 265.765 Q486.144 263.45 488.181 262.339 Q490.241 261.205 493.088 261.205 Q497.811 261.205 500.75 264.955 Q503.713 268.705 503.713 274.816 Q503.713 280.927 500.75 284.677 Q497.811 288.427 493.088 288.427 Q490.241 288.427 488.181 287.316 Q486.144 286.182 484.801 283.867 L484.801 287.756 L480.519 287.756 L480.519 251.737 L484.801 251.737 L484.801 265.765 Z" fill="#000000" fill-rule="nonzero" fill-opacity="1" /><path clip-path="url(#clip000)" d="M527.301 262.594 L527.301 266.622 Q525.496 265.696 523.551 265.233 Q521.607 264.77 519.524 264.77 Q516.352 264.77 514.755 265.742 Q513.181 266.714 513.181 268.659 Q513.181 270.14 514.315 270.997 Q515.449 271.83 518.875 272.594 L520.334 272.918 Q524.871 273.89 526.769 275.672 Q528.69 277.432 528.69 280.603 Q528.69 284.214 525.82 286.321 Q522.973 288.427 517.973 288.427 Q515.889 288.427 513.621 288.01 Q511.375 287.617 508.875 286.807 L508.875 282.409 Q511.237 283.635 513.528 284.26 Q515.82 284.862 518.065 284.862 Q521.074 284.862 522.695 283.844 Q524.315 282.802 524.315 280.927 Q524.315 279.191 523.135 278.265 Q521.977 277.339 518.019 276.483 L516.537 276.135 Q512.579 275.302 510.82 273.589 Q509.061 271.853 509.061 268.844 Q509.061 265.186 511.653 263.196 Q514.246 261.205 519.014 261.205 Q521.375 261.205 523.459 261.552 Q525.542 261.899 527.301 262.594 Z" fill="#000000" fill-rule="nonzero" fill-opacity="1" /><path clip-path="url(#clip000)" d="M557.648 273.728 L557.648 275.811 L538.065 275.811 Q538.343 280.209 540.704 282.524 Q543.088 284.816 547.324 284.816 Q549.778 284.816 552.07 284.214 Q554.384 283.612 556.653 282.409 L556.653 286.436 Q554.361 287.408 551.954 287.918 Q549.546 288.427 547.07 288.427 Q540.866 288.427 537.232 284.816 Q533.621 281.205 533.621 275.047 Q533.621 268.682 537.047 264.955 Q540.496 261.205 546.329 261.205 Q551.56 261.205 554.593 264.585 Q557.648 267.941 557.648 273.728 M553.389 272.478 Q553.343 268.983 551.421 266.899 Q549.523 264.816 546.375 264.816 Q542.81 264.816 540.658 266.83 Q538.528 268.844 538.204 272.501 L553.389 272.478 Z" fill="#000000" fill-rule="nonzero" fill-opacity="1" /><path clip-path="url(#clip000)" d="M579.662 265.811 Q578.944 265.395 578.088 265.21 Q577.255 265.001 576.236 265.001 Q572.625 265.001 570.681 267.362 Q568.759 269.7 568.759 274.098 L568.759 287.756 L564.477 287.756 L564.477 261.83 L568.759 261.83 L568.759 265.858 Q570.102 263.497 572.255 262.362 Q574.407 261.205 577.486 261.205 Q577.926 261.205 578.458 261.274 Q578.991 261.321 579.639 261.436 L579.662 265.811 Z" fill="#000000" fill-rule="nonzero" fill-opacity="1" /><path clip-path="url(#clip000)" d="M581.074 261.83 L585.588 261.83 L593.69 283.589 L601.792 261.83 L606.305 261.83 L596.583 287.756 L590.796 287.756 L581.074 261.83 Z" fill="#000000" fill-rule="nonzero" fill-opacity="1" /><path clip-path="url(#clip000)" d="M634.361 273.728 L634.361 275.811 L614.778 275.811 Q615.055 280.209 617.416 282.524 Q619.801 284.816 624.037 284.816 Q626.491 284.816 628.782 284.214 Q631.097 283.612 633.365 282.409 L633.365 286.436 Q631.074 287.408 628.666 287.918 Q626.259 288.427 623.782 288.427 Q617.579 288.427 613.944 284.816 Q610.333 281.205 610.333 275.047 Q610.333 268.682 613.759 264.955 Q617.208 261.205 623.041 261.205 Q628.273 261.205 631.305 264.585 Q634.361 267.941 634.361 273.728 M630.102 272.478 Q630.055 268.983 628.134 266.899 Q626.236 264.816 623.088 264.816 Q619.523 264.816 617.37 266.83 Q615.241 268.844 614.917 272.501 L630.102 272.478 Z" fill="#000000" fill-rule="nonzero" fill-opacity="1" /><path clip-path="url(#clip000)" d="M658.412 265.765 L658.412 251.737 L662.671 251.737 L662.671 287.756 L658.412 287.756 L658.412 283.867 Q657.069 286.182 655.009 287.316 Q652.972 288.427 650.102 288.427 Q645.402 288.427 642.44 284.677 Q639.5 280.927 639.5 274.816 Q639.5 268.705 642.44 264.955 Q645.402 261.205 650.102 261.205 Q652.972 261.205 655.009 262.339 Q657.069 263.45 658.412 265.765 M643.898 274.816 Q643.898 279.515 645.819 282.2 Q647.764 284.862 651.143 284.862 Q654.523 284.862 656.467 282.2 Q658.412 279.515 658.412 274.816 Q658.412 270.117 656.467 267.455 Q654.523 264.77 651.143 264.77 Q647.764 264.77 645.819 267.455 Q643.898 270.117 643.898 274.816 Z" fill="#000000" fill-rule="nonzero" fill-opacity="1" /><path clip-path="url(#clip000)" d="M691.374 257.038 L691.374 283.913 L697.023 283.913 Q704.175 283.913 707.485 280.672 Q710.819 277.432 710.819 270.441 Q710.819 263.497 707.485 260.279 Q704.175 257.038 697.023 257.038 L691.374 257.038 M686.699 253.196 L696.305 253.196 Q706.351 253.196 711.05 257.386 Q715.749 261.552 715.749 270.441 Q715.749 279.376 711.027 283.566 Q706.305 287.756 696.305 287.756 L686.699 287.756 L686.699 253.196 Z" fill="#000000" fill-rule="nonzero" fill-opacity="1" /><path clip-path="url(#clip000)" d="M734.8 274.723 Q729.638 274.723 727.647 275.904 Q725.657 277.084 725.657 279.932 Q725.657 282.2 727.138 283.543 Q728.643 284.862 731.212 284.862 Q734.754 284.862 736.883 282.362 Q739.036 279.839 739.036 275.672 L739.036 274.723 L734.8 274.723 M743.295 272.964 L743.295 287.756 L739.036 287.756 L739.036 283.821 Q737.578 286.182 735.402 287.316 Q733.226 288.427 730.078 288.427 Q726.096 288.427 723.735 286.205 Q721.397 283.959 721.397 280.209 Q721.397 275.834 724.314 273.612 Q727.254 271.39 733.064 271.39 L739.036 271.39 L739.036 270.973 Q739.036 268.034 737.092 266.436 Q735.17 264.816 731.675 264.816 Q729.453 264.816 727.346 265.348 Q725.24 265.881 723.296 266.946 L723.296 263.01 Q725.634 262.108 727.833 261.668 Q730.032 261.205 732.115 261.205 Q737.74 261.205 740.518 264.122 Q743.295 267.038 743.295 272.964 Z" fill="#000000" fill-rule="nonzero" fill-opacity="1" /><path clip-path="url(#clip000)" d="M756.281 254.469 L756.281 261.83 L765.055 261.83 L765.055 265.14 L756.281 265.14 L756.281 279.214 Q756.281 282.385 757.138 283.288 Q758.018 284.191 760.68 284.191 L765.055 284.191 L765.055 287.756 L760.68 287.756 Q755.749 287.756 753.874 285.927 Q751.999 284.075 751.999 279.214 L751.999 265.14 L748.874 265.14 L748.874 261.83 L751.999 261.83 L751.999 254.469 L756.281 254.469 Z" fill="#000000" fill-rule="nonzero" fill-opacity="1" /><path clip-path="url(#clip000)" d="M782.439 274.723 Q777.277 274.723 775.286 275.904 Q773.295 277.084 773.295 279.932 Q773.295 282.2 774.777 283.543 Q776.281 284.862 778.851 284.862 Q782.392 284.862 784.522 282.362 Q786.675 279.839 786.675 275.672 L786.675 274.723 L782.439 274.723 M790.934 272.964 L790.934 287.756 L786.675 287.756 L786.675 283.821 Q785.217 286.182 783.041 287.316 Q780.865 288.427 777.717 288.427 Q773.735 288.427 771.374 286.205 Q769.036 283.959 769.036 280.209 Q769.036 275.834 771.953 273.612 Q774.893 271.39 780.703 271.39 L786.675 271.39 L786.675 270.973 Q786.675 268.034 784.73 266.436 Q782.809 264.816 779.314 264.816 Q777.092 264.816 774.985 265.348 Q772.879 265.881 770.934 266.946 L770.934 263.01 Q773.272 262.108 775.471 261.668 Q777.67 261.205 779.754 261.205 Q785.379 261.205 788.156 264.122 Q790.934 267.038 790.934 272.964 Z" fill="#000000" fill-rule="nonzero" fill-opacity="1" /></svg>
