<?xml version="1.0" encoding="utf-8"?>
<svg xmlns="http://www.w3.org/2000/svg" xmlns:xlink="http://www.w3.org/1999/xlink" width="600" height="400" viewBox="0 0 2400 1600">
<defs>
  <clipPath id="clip820">
    <rect x="0" y="0" width="2400" height="1600"/>
  </clipPath>
</defs>
<path clip-path="url(#clip820)" d="M0 1600 L2400 1600 L2400 0 L0 0  Z" fill="#ffffff" fill-rule="evenodd" fill-opacity="1"/>
<defs>
  <clipPath id="clip821">
    <rect x="188" y="47" width="2166" height="1428"/>
  </clipPath>
</defs>
<path clip-path="url(#clip820)" d="M188.104 1474.16 L2352.76 1474.16 L2352.76 47.2441 L188.104 47.2441  Z" fill="#ffffff" fill-rule="evenodd" fill-opacity="1"/>
<polyline clip-path="url(#clip821)" style="stroke:#000000; stroke-linecap:round; stroke-linejoin:round; stroke-width:2; stroke-opacity:0.1; fill:none" points="249.368,1474.16 249.368,47.2441 "/>
<polyline clip-path="url(#clip821)" style="stroke:#000000; stroke-linecap:round; stroke-linejoin:round; stroke-width:2; stroke-opacity:0.1; fill:none" points="952.536,1474.16 952.536,47.2441 "/>
<polyline clip-path="url(#clip821)" style="stroke:#000000; stroke-linecap:round; stroke-linejoin:round; stroke-width:2; stroke-opacity:0.1; fill:none" points="1655.71,1474.16 1655.71,47.2441 "/>
<polyline clip-path="url(#clip821)" style="stroke:#000000; stroke-linecap:round; stroke-linejoin:round; stroke-width:2; stroke-opacity:0.1; fill:none" points="188.104,1403.9 2352.76,1403.9 "/>
<polyline clip-path="url(#clip821)" style="stroke:#000000; stroke-linecap:round; stroke-linejoin:round; stroke-width:2; stroke-opacity:0.1; fill:none" points="188.104,862.906 2352.76,862.906 "/>
<polyline clip-path="url(#clip821)" style="stroke:#000000; stroke-linecap:round; stroke-linejoin:round; stroke-width:2; stroke-opacity:0.1; fill:none" points="188.104,321.912 2352.76,321.912 "/>
<polyline clip-path="url(#clip820)" style="stroke:#000000; stroke-linecap:round; stroke-linejoin:round; stroke-width:4; stroke-opacity:1; fill:none" points="188.104,1474.16 2352.76,1474.16 "/>
<polyline clip-path="url(#clip820)" style="stroke:#000000; stroke-linecap:round; stroke-linejoin:round; stroke-width:4; stroke-opacity:1; fill:none" points="249.368,1474.16 249.368,1455.27 "/>
<polyline clip-path="url(#clip820)" style="stroke:#000000; stroke-linecap:round; stroke-linejoin:round; stroke-width:4; stroke-opacity:1; fill:none" points="952.536,1474.16 952.536,1455.27 "/>
<polyline clip-path="url(#clip820)" style="stroke:#000000; stroke-linecap:round; stroke-linejoin:round; stroke-width:4; stroke-opacity:1; fill:none" points="1655.71,1474.16 1655.71,1455.27 "/>
<path clip-path="url(#clip820)" d="M214.351 1548.29 L221.99 1548.29 L221.99 1521.92 L213.679 1523.59 L213.679 1519.33 L221.943 1517.66 L226.619 1517.66 L226.619 1548.29 L234.258 1548.29 L234.258 1552.22 L214.351 1552.22 L214.351 1548.29 Z" fill="#000000" fill-rule="nonzero" fill-opacity="1" /><path clip-path="url(#clip820)" d="M253.702 1520.74 Q250.091 1520.74 248.263 1524.31 Q246.457 1527.85 246.457 1534.98 Q246.457 1542.09 248.263 1545.65 Q250.091 1549.19 253.702 1549.19 Q257.337 1549.19 259.142 1545.65 Q260.971 1542.09 260.971 1534.98 Q260.971 1527.85 259.142 1524.31 Q257.337 1520.74 253.702 1520.74 M253.702 1517.04 Q259.512 1517.04 262.568 1521.65 Q265.647 1526.23 265.647 1534.98 Q265.647 1543.71 262.568 1548.31 Q259.512 1552.9 253.702 1552.9 Q247.892 1552.9 244.813 1548.31 Q241.758 1543.71 241.758 1534.98 Q241.758 1526.23 244.813 1521.65 Q247.892 1517.04 253.702 1517.04 Z" fill="#000000" fill-rule="nonzero" fill-opacity="1" /><path clip-path="url(#clip820)" d="M275.352 1499.24 Q272.418 1499.24 270.932 1502.13 Q269.465 1505.01 269.465 1510.8 Q269.465 1516.58 270.932 1519.47 Q272.418 1522.35 275.352 1522.35 Q278.304 1522.35 279.771 1519.47 Q281.257 1516.58 281.257 1510.8 Q281.257 1505.01 279.771 1502.13 Q278.304 1499.24 275.352 1499.24 M275.352 1496.23 Q280.072 1496.23 282.555 1499.97 Q285.056 1503.69 285.056 1510.8 Q285.056 1517.89 282.555 1521.64 Q280.072 1525.36 275.352 1525.36 Q270.631 1525.36 268.129 1521.64 Q265.647 1517.89 265.647 1510.8 Q265.647 1503.69 268.129 1499.97 Q270.631 1496.23 275.352 1496.23 Z" fill="#000000" fill-rule="nonzero" fill-opacity="1" /><path clip-path="url(#clip820)" d="M918.864 1548.29 L926.503 1548.29 L926.503 1521.92 L918.193 1523.59 L918.193 1519.33 L926.457 1517.66 L931.133 1517.66 L931.133 1548.29 L938.771 1548.29 L938.771 1552.22 L918.864 1552.22 L918.864 1548.29 Z" fill="#000000" fill-rule="nonzero" fill-opacity="1" /><path clip-path="url(#clip820)" d="M958.216 1520.74 Q954.605 1520.74 952.776 1524.31 Q950.97 1527.85 950.97 1534.98 Q950.97 1542.09 952.776 1545.65 Q954.605 1549.19 958.216 1549.19 Q961.85 1549.19 963.656 1545.65 Q965.484 1542.09 965.484 1534.98 Q965.484 1527.85 963.656 1524.31 Q961.85 1520.74 958.216 1520.74 M958.216 1517.04 Q964.026 1517.04 967.081 1521.65 Q970.16 1526.23 970.16 1534.98 Q970.16 1543.71 967.081 1548.31 Q964.026 1552.9 958.216 1552.9 Q952.406 1552.9 949.327 1548.31 Q946.271 1543.71 946.271 1534.98 Q946.271 1526.23 949.327 1521.65 Q952.406 1517.04 958.216 1517.04 Z" fill="#000000" fill-rule="nonzero" fill-opacity="1" /><path clip-path="url(#clip820)" d="M970.706 1521.62 L976.912 1521.62 L976.912 1500.19 L970.16 1501.55 L970.16 1498.09 L976.874 1496.73 L980.674 1496.73 L980.674 1521.62 L986.88 1521.62 L986.88 1524.81 L970.706 1524.81 L970.706 1521.62 Z" fill="#000000" fill-rule="nonzero" fill-opacity="1" /><path clip-path="url(#clip820)" d="M1621.48 1548.29 L1629.12 1548.29 L1629.12 1521.92 L1620.81 1523.59 L1620.81 1519.33 L1629.07 1517.66 L1633.75 1517.66 L1633.75 1548.29 L1641.39 1548.29 L1641.39 1552.22 L1621.48 1552.22 L1621.48 1548.29 Z" fill="#000000" fill-rule="nonzero" fill-opacity="1" /><path clip-path="url(#clip820)" d="M1660.83 1520.74 Q1657.22 1520.74 1655.39 1524.31 Q1653.58 1527.85 1653.58 1534.98 Q1653.58 1542.09 1655.39 1545.65 Q1657.22 1549.19 1660.83 1549.19 Q1664.46 1549.19 1666.27 1545.65 Q1668.1 1542.09 1668.1 1534.98 Q1668.1 1527.85 1666.27 1524.31 Q1664.46 1520.74 1660.83 1520.74 M1660.83 1517.04 Q1666.64 1517.04 1669.7 1521.65 Q1672.77 1526.23 1672.77 1534.98 Q1672.77 1543.71 1669.7 1548.31 Q1666.64 1552.9 1660.83 1552.9 Q1655.02 1552.9 1651.94 1548.31 Q1648.89 1543.71 1648.89 1534.98 Q1648.89 1526.23 1651.94 1521.65 Q1655.02 1517.04 1660.83 1517.04 Z" fill="#000000" fill-rule="nonzero" fill-opacity="1" /><path clip-path="url(#clip820)" d="M1677.34 1521.62 L1690.6 1521.62 L1690.6 1524.81 L1672.77 1524.81 L1672.77 1521.62 Q1674.94 1519.38 1678.66 1515.62 Q1682.4 1511.84 1683.36 1510.75 Q1685.19 1508.7 1685.9 1507.29 Q1686.64 1505.86 1686.64 1504.48 Q1686.64 1502.24 1685.06 1500.83 Q1683.49 1499.42 1680.97 1499.42 Q1679.19 1499.42 1677.19 1500.04 Q1675.22 1500.67 1672.96 1501.93 L1672.96 1498.09 Q1675.26 1497.17 1677.25 1496.7 Q1679.24 1496.23 1680.9 1496.23 Q1685.26 1496.23 1687.86 1498.41 Q1690.45 1500.59 1690.45 1504.24 Q1690.45 1505.97 1689.79 1507.53 Q1689.16 1509.07 1687.44 1511.18 Q1686.97 1511.72 1684.45 1514.34 Q1681.93 1516.93 1677.34 1521.62 Z" fill="#000000" fill-rule="nonzero" fill-opacity="1" /><polyline clip-path="url(#clip820)" style="stroke:#000000; stroke-linecap:round; stroke-linejoin:round; stroke-width:4; stroke-opacity:1; fill:none" points="188.104,1474.16 188.104,47.2441 "/>
<polyline clip-path="url(#clip820)" style="stroke:#000000; stroke-linecap:round; stroke-linejoin:round; stroke-width:4; stroke-opacity:1; fill:none" points="188.104,1403.9 207.002,1403.9 "/>
<polyline clip-path="url(#clip820)" style="stroke:#000000; stroke-linecap:round; stroke-linejoin:round; stroke-width:4; stroke-opacity:1; fill:none" points="188.104,862.906 207.002,862.906 "/>
<polyline clip-path="url(#clip820)" style="stroke:#000000; stroke-linecap:round; stroke-linejoin:round; stroke-width:4; stroke-opacity:1; fill:none" points="188.104,321.912 207.002,321.912 "/>
<path clip-path="url(#clip820)" d="M51.6634 1423.69 L59.3023 1423.69 L59.3023 1397.33 L50.9921 1398.99 L50.9921 1394.74 L59.256 1393.07 L63.9319 1393.07 L63.9319 1423.69 L71.5707 1423.69 L71.5707 1427.63 L51.6634 1427.63 L51.6634 1423.69 Z" fill="#000000" fill-rule="nonzero" fill-opacity="1" /><path clip-path="url(#clip820)" d="M91.0151 1396.15 Q87.404 1396.15 85.5753 1399.71 Q83.7697 1403.25 83.7697 1410.38 Q83.7697 1417.49 85.5753 1421.05 Q87.404 1424.6 91.0151 1424.6 Q94.6493 1424.6 96.4548 1421.05 Q98.2835 1417.49 98.2835 1410.38 Q98.2835 1403.25 96.4548 1399.71 Q94.6493 1396.15 91.0151 1396.15 M91.0151 1392.44 Q96.8252 1392.44 99.8808 1397.05 Q102.959 1401.63 102.959 1410.38 Q102.959 1419.11 99.8808 1423.72 Q96.8252 1428.3 91.0151 1428.3 Q85.2049 1428.3 82.1262 1423.72 Q79.0707 1419.11 79.0707 1410.38 Q79.0707 1401.63 82.1262 1397.05 Q85.2049 1392.44 91.0151 1392.44 Z" fill="#000000" fill-rule="nonzero" fill-opacity="1" /><path clip-path="url(#clip820)" d="M102.959 1386.55 L127.071 1386.55 L127.071 1389.74 L102.959 1389.74 L102.959 1386.55 Z" fill="#000000" fill-rule="nonzero" fill-opacity="1" /><path clip-path="url(#clip820)" d="M135.929 1397.02 L142.136 1397.02 L142.136 1375.6 L135.384 1376.95 L135.384 1373.49 L142.098 1372.14 L145.898 1372.14 L145.898 1397.02 L152.104 1397.02 L152.104 1400.22 L135.929 1400.22 L135.929 1397.02 Z" fill="#000000" fill-rule="nonzero" fill-opacity="1" /><path clip-path="url(#clip820)" d="M81.3985 882.699 L89.0374 882.699 L89.0374 856.333 L80.7272 858 L80.7272 853.741 L88.9911 852.074 L93.667 852.074 L93.667 882.699 L101.306 882.699 L101.306 886.634 L81.3985 886.634 L81.3985 882.699 Z" fill="#000000" fill-rule="nonzero" fill-opacity="1" /><path clip-path="url(#clip820)" d="M120.75 855.153 Q117.139 855.153 115.31 858.718 Q113.505 862.259 113.505 869.389 Q113.505 876.495 115.31 880.06 Q117.139 883.602 120.75 883.602 Q124.384 883.602 126.19 880.06 Q128.019 876.495 128.019 869.389 Q128.019 862.259 126.19 858.718 Q124.384 855.153 120.75 855.153 M120.75 851.449 Q126.56 851.449 129.616 856.056 Q132.695 860.639 132.695 869.389 Q132.695 878.116 129.616 882.722 Q126.56 887.305 120.75 887.305 Q114.94 887.305 111.861 882.722 Q108.806 878.116 108.806 869.389 Q108.806 860.639 111.861 856.056 Q114.94 851.449 120.75 851.449 Z" fill="#000000" fill-rule="nonzero" fill-opacity="1" /><path clip-path="url(#clip820)" d="M142.399 833.645 Q139.465 833.645 137.98 836.542 Q136.513 839.419 136.513 845.212 Q136.513 850.986 137.98 853.882 Q139.465 856.76 142.399 856.76 Q145.352 856.76 146.819 853.882 Q148.305 850.986 148.305 845.212 Q148.305 839.419 146.819 836.542 Q145.352 833.645 142.399 833.645 M142.399 830.636 Q147.12 830.636 149.603 834.379 Q152.104 838.103 152.104 845.212 Q152.104 852.302 149.603 856.045 Q147.12 859.769 142.399 859.769 Q137.679 859.769 135.177 856.045 Q132.695 852.302 132.695 845.212 Q132.695 838.103 135.177 834.379 Q137.679 830.636 142.399 830.636 Z" fill="#000000" fill-rule="nonzero" fill-opacity="1" /><path clip-path="url(#clip820)" d="M84.088 341.704 L91.7269 341.704 L91.7269 315.339 L83.4167 317.005 L83.4167 312.746 L91.6806 311.079 L96.3565 311.079 L96.3565 341.704 L103.995 341.704 L103.995 345.639 L84.088 345.639 L84.088 341.704 Z" fill="#000000" fill-rule="nonzero" fill-opacity="1" /><path clip-path="url(#clip820)" d="M123.44 314.158 Q119.829 314.158 118 317.723 Q116.194 321.265 116.194 328.394 Q116.194 335.501 118 339.065 Q119.829 342.607 123.44 342.607 Q127.074 342.607 128.879 339.065 Q130.708 335.501 130.708 328.394 Q130.708 321.265 128.879 317.723 Q127.074 314.158 123.44 314.158 M123.44 310.454 Q129.25 310.454 132.305 315.061 Q135.384 319.644 135.384 328.394 Q135.384 337.121 132.305 341.727 Q129.25 346.311 123.44 346.311 Q117.63 346.311 114.551 341.727 Q111.495 337.121 111.495 328.394 Q111.495 319.644 114.551 315.061 Q117.63 310.454 123.44 310.454 Z" fill="#000000" fill-rule="nonzero" fill-opacity="1" /><path clip-path="url(#clip820)" d="M135.929 315.032 L142.136 315.032 L142.136 293.61 L135.384 294.964 L135.384 291.503 L142.098 290.149 L145.898 290.149 L145.898 315.032 L152.104 315.032 L152.104 318.229 L135.929 318.229 L135.929 315.032 Z" fill="#000000" fill-rule="nonzero" fill-opacity="1" /><polyline clip-path="url(#clip821)" style="stroke:#0000ff; stroke-linecap:round; stroke-linejoin:round; stroke-width:4; stroke-opacity:1; fill:none" points="249.368,87.6286 461.043,89.7734 584.865,91.9854 672.718,94.2349 740.862,96.5687 796.539,98.9788 843.614,101.457 884.392,104.036 920.361,106.731 952.536,109.563 981.643,112.547 1008.21,115.674 1032.66,118.921 1055.29,122.265 1076.36,125.649 1096.07,129.034 1114.58,132.379 1132.04,135.635 1148.55,138.763 1164.21,141.736 1179.11,144.532 1193.32,147.143 1206.89,149.566 1219.89,151.81 1232.36,153.893 1244.33,155.833 1255.86,157.654 1266.96,159.377 1277.68,161.023 1288.03,162.615 1298.05,164.169 1307.74,165.704 1317.14,167.235 1326.26,168.771 1335.11,170.321 1343.71,171.891 1352.08,173.484 1360.22,175.097 1368.15,176.732 1375.89,178.384 1383.43,180.05 1390.79,181.726 1397.97,183.408 1404.99,185.092 1411.86,186.775 1418.57,188.454 1425.13,190.127 1431.56,191.791 1437.86,193.446 1444.03,195.092 1450.08,196.727 1456.01,198.353 1461.82,199.97 1467.53,201.578 1473.14,203.18 1478.64,204.776 1484.04,206.367 1489.36,207.955 1494.58,209.54 1499.71,211.124 1504.76,212.706 1509.72,214.288 1514.61,215.871 1519.42,217.453 1524.15,219.036 1528.81,220.619 1533.41,222.203 1537.93,223.786 1542.39,225.369 1546.78,226.952 1551.11,228.534 1555.39,230.116 1559.6,231.696 1563.75,233.274 1567.85,234.852 1571.9,236.428 1575.89,238.002 1579.83,239.575 1583.72,241.146 1587.56,242.716 1591.35,244.284 1595.1,245.852 1598.8,247.417 1602.46,248.982 1606.07,250.546 1609.65,252.109 1613.18,253.672 1616.67,255.233 1620.12,256.794 1623.53,258.355 1626.9,259.915 1630.24,261.474 1633.54,263.033 1636.81,264.591 1640.04,266.149 1643.24,267.707 1646.4,269.263 1649.54,270.819 1652.64,272.375 1655.71,273.93 1658.74,275.484 1661.75,277.038 1664.73,278.591 1667.68,280.144 1670.6,281.697 1673.5,283.248 1676.37,284.8 1679.21,286.351 1682.02,287.902 1684.81,289.453 1687.57,291.003 1690.31,292.553 1693.03,294.104 1695.72,295.654 1698.39,297.204 1701.03,298.754 1703.65,300.304 1706.25,301.854 1708.83,303.404 1711.38,304.955 1713.92,306.506 1716.43,308.057 1718.92,309.609 1721.4,311.161 1723.85,312.713 1726.28,314.266 1728.7,315.82 1731.09,317.374 1733.47,318.929 1735.83,320.486 1738.17,322.043 1740.49,323.6 1742.79,325.159 1745.08,326.719 1747.35,328.28 1749.61,329.843 1751.84,331.407 1754.06,332.972 1756.27,334.538 1758.46,336.106 1760.63,337.676 1762.79,339.247 1764.93,340.82 1767.06,342.394 1769.17,343.971 1771.27,345.549 1773.36,347.128 1775.43,348.71 1777.48,350.293 1779.53,351.879 1781.56,353.466 1783.57,355.055 1785.57,356.645 1787.56,358.238 1789.54,359.832 1791.5,361.427 1793.46,363.024 1795.39,364.623 1797.32,366.223 1799.24,367.823 1801.14,369.425 1803.03,371.028 1804.91,372.631 1806.78,374.235 1808.63,375.839 1810.48,377.443 1812.31,379.048 1814.14,380.653 1815.95,382.257 1817.75,383.861 1819.54,385.465 1821.32,387.069 1823.09,388.672 1824.85,390.274 1826.6,391.875 1828.34,393.474 1830.07,395.073 1831.79,396.67 1833.5,398.265 1835.2,399.858 1836.9,401.45 1838.58,403.039 1840.25,404.626 1841.92,406.211 1843.57,407.793 1845.22,409.372 1846.86,410.949 1848.48,412.523 1850.1,414.095 1851.72,415.664 1853.32,417.23 1854.91,418.794 1856.5,420.355 1858.08,421.913 1859.65,423.469 1861.21,425.023 1862.76,426.574 1864.31,428.123 1865.85,429.67 1867.38,431.215 1868.9,432.757 1870.42,434.297 1871.93,435.835 1873.43,437.371 1874.92,438.904 1876.41,440.435 1877.89,441.964 1879.36,443.49 1880.82,445.014 1882.28,446.536 1883.73,448.055 1885.17,449.572 1886.61,451.087 1888.04,452.599 1889.47,454.109 1890.88,455.617 1892.29,457.122 1893.7,458.626 1895.09,460.128 1896.49,461.629 1897.87,463.127 1899.25,464.625 1900.62,466.121 1901.99,467.616 1903.35,469.11 1904.7,470.604 1906.05,472.097 1907.39,473.589 1908.73,475.081 1910.06,476.572 1911.39,478.063 1912.7,479.553 1914.02,481.042 1915.33,482.531 1916.63,484.019 1917.93,485.506 1919.22,486.992 1920.5,488.476 1921.78,489.958 1923.06,491.438 1924.33,492.916 1925.59,494.391 1926.85,495.864 1928.11,497.334 1929.35,498.801 1930.6,500.264 1931.84,501.724 1933.07,503.181 1934.3,504.634 1935.52,506.083 1936.74,507.527 1937.96,508.968 1939.17,510.404 1940.37,511.836 1941.57,513.264 1942.77,514.686 1943.96,516.103 1945.14,517.516 1946.32,518.923 1947.5,520.324 1948.67,521.72 1949.84,523.111 1951,524.496 1952.16,525.875 1953.32,527.249 1954.47,528.618 1955.61,529.981 1956.76,531.339 1957.89,532.693 1959.03,534.042 1960.16,535.387 1961.28,536.729 1962.4,538.068 1963.52,539.404 1964.63,540.737 1965.74,542.068 1966.84,543.397 1967.94,544.725 1969.04,546.05 1970.13,547.373 1971.22,548.695 1972.31,550.014 1973.39,551.332 1974.46,552.648 1975.54,553.961 1976.61,555.273 1977.67,556.583 1978.74,557.891 1979.79,559.197 1980.85,560.502 1981.9,561.804 1982.95,563.105 1983.99,564.405 1985.03,565.703 1986.07,567 1987.1,568.295 1988.13,569.59 1989.16,570.882 1990.18,572.174 1991.2,573.464 1992.22,574.753 1993.23,576.041 1994.24,577.328 1995.25,578.614 1996.25,579.899 1997.25,581.182 1998.25,582.465 1999.24,583.746 2000.23,585.026 2001.22,586.304 2002.2,587.581 2003.18,588.857 2004.16,590.132 2005.13,591.406 2006.1,592.679 2007.07,593.951 2008.03,595.221 2009,596.49 2009.95,597.757 2010.91,599.023 2011.86,600.289 2012.81,601.555 2013.76,602.821 2014.7,604.086 2015.65,605.351 2016.58,606.615 2017.52,607.878 2018.45,609.14 2019.38,610.402 2020.31,611.663 2021.23,612.923 2022.15,614.183 2023.07,615.443 2023.99,616.702 2024.9,617.961 2025.81,619.219 2026.72,620.477 2027.62,621.734 2028.52,622.989 2029.42,624.244 2030.32,625.497 2031.22,626.748 2032.11,627.998 2033,629.247 2033.88,630.495 2034.77,631.742 2035.65,632.988 2036.53,634.233 2037.4,635.478 2038.28,636.723 2039.15,637.968 2040.02,639.212 2040.88,640.455 2041.75,641.698 2042.61,642.94 2043.47,644.181 2044.32,645.421 2045.18,646.66 2046.03,647.897 2046.88,649.134 2047.73,650.371 2048.57,651.606 2049.41,652.842 2050.25,654.076 2051.09,655.311 2051.93,656.545 2052.76,657.779 2053.59,659.013 2054.42,660.248 2055.25,661.483 2056.07,662.717 2056.89,663.952 2057.71,665.187 2058.53,666.421 2059.35,667.654 2060.16,668.885 2060.97,670.114 2061.78,671.339 2062.59,672.559 2063.39,673.775 2064.19,674.986 2064.99,676.194 2065.79,677.401 2066.59,678.609 2067.38,679.82 2068.17,681.031 2068.97,682.244 2069.75,683.457 2070.54,684.669 2071.32,685.879 2072.11,687.087 2072.89,688.292 2073.66,689.496 2074.44,690.698 2075.21,691.899 2075.99,693.099 2076.76,694.298 2077.52,695.496 2078.29,696.694 2079.05,697.892 2079.82,699.088 2080.58,700.284 2081.34,701.479 2082.09,702.674 2082.85,703.867 2083.6,705.058 2084.35,706.249 2085.1,707.438 2085.85,708.626 2086.6,709.813 2087.34,710.999 2088.08,712.184 2088.82,713.369 2089.56,714.552 2090.3,715.734 2091.03,716.916 2091.77,718.097 2092.5,719.276 2093.23,720.455 2093.95,721.632 2094.68,722.809 2095.41,723.984 2096.13,725.159 2096.85,726.332 2097.57,727.504 2098.29,728.676 2099,729.846 2099.72,731.016 2100.43,732.185 2101.14,733.352 2101.85,734.519 2102.56,735.685 2103.26,736.85 2103.97,738.014 2104.67,739.177 2105.37,740.34 2106.07,741.501 2106.77,742.662 2107.47,743.822 2108.16,744.98 2108.85,746.138 2109.55,747.295 2110.24,748.451 2110.92,749.605 2111.61,750.757 2112.3,751.909 2112.98,753.06 2113.66,754.211 2114.34,755.362 2115.02,756.512 2115.7,757.661 2116.38,758.809 2117.05,759.956 2117.73,761.101 2118.4,762.246 2119.07,763.391 2119.74,764.534 2120.4,765.677 2121.07,766.82 2121.74,767.96 2122.4,769.1 2123.06,770.238 2123.72,771.375 2124.38,772.509 2125.04,773.643 2125.69,774.775 2126.35,775.905 2127,777.035 2127.65,778.162 2128.3,779.289 2128.95,780.414 2129.6,781.537 2130.25,782.658 2130.89,783.779 2131.53,784.897 2132.18,786.015 2132.82,787.131 2133.46,788.247 2134.1,789.361 2134.73,790.475 2135.37,791.588 2136,792.699 2136.64,793.81 2137.27,794.92 2137.9,796.029 2138.53,797.137 2139.15,798.244 2139.78,799.35 2140.41,800.454 2141.03,801.558 2141.65,802.66 2142.27,803.761 2142.89,804.861 2143.51,805.96 2144.13,807.058 2144.75,808.155 2145.36,809.25 2145.97,810.345 2146.59,811.439 2147.2,812.532 "/>
<polyline clip-path="url(#clip821)" style="stroke:#ff0000; stroke-linecap:round; stroke-linejoin:round; stroke-width:4; stroke-opacity:1; fill:none" points="2147.81,812.532 2148.42,812.532 2149.03,816.413 2149.63,868.336 2150.24,1012.7 2150.84,1043.36 2151.44,1074.98 2152.05,1082.31 2152.65,1085.75 2153.25,1095.74 2153.84,1110.1 2154.44,1139.71 2155.04,1166.81 2155.63,1183.3 2156.23,1189.23 2156.82,1191.75 2157.41,1197.59 2158,1212.7 2158.59,1218.19 2159.18,1220.53 2159.76,1225.35 2160.35,1228.25 2160.93,1234.38 2161.52,1243.29 2162.1,1246.4 2162.68,1248.24 2163.26,1251.24 2163.84,1252.41 2164.42,1258.38 2164.99,1259.66 2165.57,1261.05 2166.14,1261.67 2166.72,1263.67 2167.29,1267.59 2167.86,1270.7 2168.43,1274.08 2169,1277.78 2169.57,1279.23 2170.14,1283.44 2170.7,1284.88 2171.27,1286.75 2171.83,1289.64 2172.39,1292.73 2172.96,1296.19 2173.52,1299.83 2174.08,1302.38 2174.63,1307.32 2175.19,1308.47 2175.75,1310.09 2176.3,1311.69 2176.86,1312.89 2177.41,1314.36 2177.97,1315.31 2178.52,1318.75 2179.07,1320.21 2179.62,1322.53 2180.17,1325.66 2180.71,1327.25 2181.26,1328.56 2181.81,1330.14 2182.35,1331.35 2182.9,1332.69 2183.44,1334.83 2183.98,1336.11 2184.52,1337.2 2185.06,1338.68 2185.6,1340.15 2186.14,1340.86 2186.68,1342.45 2187.21,1343.45 2187.75,1345.83 2188.28,1346.44 2188.82,1347.59 2189.35,1348.54 2189.88,1349.17 2190.41,1350.42 2190.94,1350.73 2191.47,1351.23 2192,1352.74 2192.52,1354.05 2193.05,1354.73 2193.57,1355.32 2194.1,1356.18 2194.62,1356.61 2195.15,1357.29 2195.67,1357.86 2196.19,1359.22 2196.71,1359.57 2197.23,1360.59 2197.74,1361.6 2198.26,1362.46 2198.78,1363.26 2199.29,1363.83 2199.81,1364.82 2200.32,1365.32 2200.83,1366.02 2201.35,1366.47 2201.86,1366.69 2202.37,1367.6 2202.88,1368.57 2203.39,1369.07 2203.89,1370.56 2204.4,1371.02 2204.91,1372.07 2205.41,1373.07 2205.92,1373.63 2206.42,1374.06 2206.92,1374.54 2207.42,1375.12 2207.92,1376.24 2208.42,1376.71 2208.92,1377.4 2209.42,1378.43 2209.92,1378.94 2210.42,1379.44 2210.91,1379.99 2211.41,1380.46 2211.9,1380.72 2212.4,1381.73 2212.89,1382.11 2213.38,1382.86 2213.87,1383.53 2214.36,1383.92 2214.85,1384.25 2215.34,1384.98 2215.83,1385.76 2216.32,1385.89 2216.81,1386.35 2217.29,1386.68 2217.78,1387.11 2218.26,1387.38 2218.74,1388.04 2219.23,1388.26 2219.71,1388.6 2220.19,1389.05 2220.67,1389.54 2221.15,1390.27 2221.63,1390.54 2222.11,1390.91 2222.59,1391.12 2223.06,1391.48 2223.54,1391.62 2224.01,1391.94 2224.49,1392.05 2224.96,1392.32 2225.44,1392.4 2225.91,1392.77 2226.38,1392.94 2226.85,1393.15 2227.32,1393.34 2227.79,1393.62 2228.26,1394.1 2228.73,1394.36 2229.19,1394.76 2229.66,1395.02 2230.13,1395.25 2230.59,1395.77 2231.06,1395.99 2231.52,1396.27 2231.98,1396.51 2232.45,1396.96 2232.91,1397.62 2233.37,1397.82 2233.83,1398.13 2234.29,1398.29 2234.75,1398.53 2235.2,1398.64 2235.66,1399.16 2236.12,1399.36 2236.58,1399.56 2237.03,1399.82 2237.49,1400.03 2237.94,1400.41 2238.39,1400.56 2238.85,1400.8 2239.3,1400.99 2239.75,1401.33 2240.2,1401.57 2240.65,1401.69 2241.1,1401.9 2241.55,1402.02 2242,1402.34 2242.44,1402.71 2242.89,1402.94 2243.34,1403.08 2243.78,1403.35 2244.23,1403.86 2244.67,1404.08 2245.11,1404.13 2245.56,1404.22 2246,1404.42 2246.44,1404.67 2246.88,1404.89 2247.32,1405 2247.76,1405.25 2248.2,1405.4 2248.64,1405.55 2249.08,1405.75 2249.51,1406.02 2249.95,1406.07 2250.39,1406.37 2250.82,1406.46 2251.26,1406.57 2251.69,1406.73 2252.13,1406.9 2252.56,1407.29 2252.99,1407.47 2253.42,1407.67 2253.85,1407.83 2254.28,1408.24 2254.71,1408.32 2255.14,1408.45 2255.57,1408.64 2256,1408.78 2256.43,1408.87 2256.85,1409.07 2257.28,1409.35 2257.7,1409.46 2258.13,1409.71 2258.55,1409.98 2258.98,1410.25 2259.4,1410.51 2259.82,1410.64 2260.25,1411.09 2260.67,1411.35 2261.09,1411.69 2261.51,1411.88 2261.93,1412.12 2262.35,1412.42 2262.77,1412.67 2263.18,1412.93 2263.6,1413.37 2264.02,1413.73 2264.44,1414.24 2264.85,1414.73 2265.27,1415.56 2265.68,1416.22 2266.1,1416.73 2266.51,1417.53 2266.92,1418.45 2267.33,1419.39 2267.75,1420.24 2268.16,1420.42 2268.57,1421.06 2268.98,1421.68 2269.39,1422.66 2269.8,1423.68 2270.21,1424.46 2270.61,1425.03 2271.02,1425.69 2271.43,1425.94 2271.83,1426.36 2272.24,1426.66 2272.65,1426.97 2273.05,1427.47 2273.45,1427.91 2273.86,1428.52 2274.26,1429.04 2274.66,1429.59 2275.07,1429.98 2275.47,1430.39 2275.87,1430.69 2276.27,1430.75 2276.67,1430.95 2277.07,1430.99 2277.47,1431.08 2277.87,1431.17 2278.26,1431.46 2278.66,1431.58 2279.06,1431.78 2279.45,1431.87 2279.85,1431.95 2280.25,1432.13 2280.64,1432.22 2281.03,1432.3 2281.43,1432.38 2281.82,1432.42 2282.21,1432.47 2282.61,1432.6 2283,1432.66 2283.39,1432.74 2283.78,1432.81 2284.17,1432.9 2284.56,1433.02 2284.95,1433.07 2285.34,1433.17 2285.73,1433.2 2286.11,1433.26 2286.5,1433.28 2286.89,1433.31 2287.27,1433.33 2287.66,1433.36 2288.05,1433.4 2288.43,1433.45 2288.82,1433.53 2289.2,1433.58 2289.58,1433.62 2289.97,1433.64 2290.35,1433.67 2290.73,1433.7 2291.11,1433.75 2291.49,1433.78 "/>
<path clip-path="url(#clip820)" d="M1918.4 250.328 L2280.6 250.328 L2280.6 94.8081 L1918.4 94.8081  Z" fill="#ffffff" fill-rule="evenodd" fill-opacity="1"/>
<polyline clip-path="url(#clip820)" style="stroke:#000000; stroke-linecap:round; stroke-linejoin:round; stroke-width:4; stroke-opacity:1; fill:none" points="1918.4,250.328 2280.6,250.328 2280.6,94.8081 1918.4,94.8081 1918.4,250.328 "/>
<polyline clip-path="url(#clip820)" style="stroke:#0000ff; stroke-linecap:round; stroke-linejoin:round; stroke-width:4; stroke-opacity:1; fill:none" points="1942.45,146.648 2086.76,146.648 "/>
<path clip-path="url(#clip820)" d="M2126.64 133.975 L2120.3 151.174 L2133.01 151.174 L2126.64 133.975 M2124 129.368 L2129.3 129.368 L2142.48 163.928 L2137.61 163.928 L2134.47 155.062 L2118.89 155.062 L2115.74 163.928 L2110.81 163.928 L2124 129.368 Z" fill="#000000" fill-rule="nonzero" fill-opacity="1" /><path clip-path="url(#clip820)" d="M2163.56 141.937 L2163.56 127.91 L2167.82 127.91 L2167.82 163.928 L2163.56 163.928 L2163.56 160.039 Q2162.22 162.354 2160.16 163.488 Q2158.12 164.599 2155.25 164.599 Q2150.55 164.599 2147.59 160.849 Q2144.65 157.099 2144.65 150.988 Q2144.65 144.877 2147.59 141.127 Q2150.55 137.377 2155.25 137.377 Q2158.12 137.377 2160.16 138.512 Q2162.22 139.623 2163.56 141.937 M2149.05 150.988 Q2149.05 155.687 2150.97 158.373 Q2152.92 161.035 2156.3 161.035 Q2159.67 161.035 2161.62 158.373 Q2163.56 155.687 2163.56 150.988 Q2163.56 146.289 2161.62 143.627 Q2159.67 140.942 2156.3 140.942 Q2152.92 140.942 2150.97 143.627 Q2149.05 146.289 2149.05 150.988 Z" fill="#000000" fill-rule="nonzero" fill-opacity="1" /><path clip-path="url(#clip820)" d="M2188.38 150.896 Q2183.22 150.896 2181.23 152.076 Q2179.23 153.257 2179.23 156.104 Q2179.23 158.373 2180.72 159.715 Q2182.22 161.035 2184.79 161.035 Q2188.33 161.035 2190.46 158.535 Q2192.61 156.011 2192.61 151.845 L2192.61 150.896 L2188.38 150.896 M2196.87 149.137 L2196.87 163.928 L2192.61 163.928 L2192.61 159.993 Q2191.16 162.354 2188.98 163.488 Q2186.8 164.599 2183.66 164.599 Q2179.67 164.599 2177.31 162.377 Q2174.98 160.132 2174.98 156.382 Q2174.98 152.007 2177.89 149.785 Q2180.83 147.562 2186.64 147.562 L2192.61 147.562 L2192.61 147.146 Q2192.61 144.206 2190.67 142.609 Q2188.75 140.988 2185.25 140.988 Q2183.03 140.988 2180.92 141.521 Q2178.82 142.053 2176.87 143.118 L2176.87 139.183 Q2179.21 138.28 2181.41 137.84 Q2183.61 137.377 2185.69 137.377 Q2191.32 137.377 2194.1 140.294 Q2196.87 143.211 2196.87 149.137 Z" fill="#000000" fill-rule="nonzero" fill-opacity="1" /><path clip-path="url(#clip820)" d="M2225.83 142.979 Q2227.43 140.109 2229.65 138.743 Q2231.87 137.377 2234.88 137.377 Q2238.93 137.377 2241.13 140.225 Q2243.33 143.049 2243.33 148.28 L2243.33 163.928 L2239.05 163.928 L2239.05 148.419 Q2239.05 144.692 2237.73 142.887 Q2236.41 141.081 2233.7 141.081 Q2230.39 141.081 2228.47 143.28 Q2226.55 145.479 2226.55 149.275 L2226.55 163.928 L2222.27 163.928 L2222.27 148.419 Q2222.27 144.669 2220.95 142.887 Q2219.63 141.081 2216.87 141.081 Q2213.61 141.081 2211.69 143.303 Q2209.77 145.502 2209.77 149.275 L2209.77 163.928 L2205.48 163.928 L2205.48 138.002 L2209.77 138.002 L2209.77 142.03 Q2211.23 139.646 2213.26 138.512 Q2215.3 137.377 2218.1 137.377 Q2220.92 137.377 2222.89 138.813 Q2224.88 140.248 2225.83 142.979 Z" fill="#000000" fill-rule="nonzero" fill-opacity="1" /><polyline clip-path="url(#clip820)" style="stroke:#ff0000; stroke-linecap:round; stroke-linejoin:round; stroke-width:4; stroke-opacity:1; fill:none" points="1942.45,198.488 2086.76,198.488 "/>
<path clip-path="url(#clip820)" d="M2110.81 181.208 L2115.49 181.208 L2115.49 211.833 L2132.31 211.833 L2132.31 215.768 L2110.81 215.768 L2110.81 181.208 Z" fill="#000000" fill-rule="nonzero" fill-opacity="1" /><path clip-path="url(#clip820)" d="M2141.9 199.264 L2141.9 211.926 L2149.4 211.926 Q2153.17 211.926 2154.98 210.375 Q2156.8 208.801 2156.8 205.583 Q2156.8 202.342 2154.98 200.814 Q2153.17 199.264 2149.4 199.264 L2141.9 199.264 M2141.9 185.051 L2141.9 195.467 L2148.82 195.467 Q2152.24 195.467 2153.91 194.194 Q2155.6 192.898 2155.6 190.259 Q2155.6 187.643 2153.91 186.347 Q2152.24 185.051 2148.82 185.051 L2141.9 185.051 M2137.22 181.208 L2149.17 181.208 Q2154.51 181.208 2157.41 183.43 Q2160.3 185.653 2160.3 189.75 Q2160.3 192.921 2158.82 194.796 Q2157.34 196.671 2154.47 197.134 Q2157.92 197.875 2159.81 200.236 Q2161.73 202.574 2161.73 206.092 Q2161.73 210.722 2158.59 213.245 Q2155.44 215.768 2149.63 215.768 L2137.22 215.768 L2137.22 181.208 Z" fill="#000000" fill-rule="nonzero" fill-opacity="1" /><path clip-path="url(#clip820)" d="M2169.74 181.208 L2189.61 181.208 L2189.61 185.143 L2174.42 185.143 L2174.42 195.328 L2188.12 195.328 L2188.12 199.264 L2174.42 199.264 L2174.42 215.768 L2169.74 215.768 L2169.74 181.208 Z" fill="#000000" fill-rule="nonzero" fill-opacity="1" /><path clip-path="url(#clip820)" d="M2220.58 210.838 L2220.58 201.555 L2212.94 201.555 L2212.94 197.713 L2225.21 197.713 L2225.21 212.551 Q2222.5 214.472 2219.23 215.467 Q2215.97 216.439 2212.27 216.439 Q2204.17 216.439 2199.58 211.717 Q2195.02 206.972 2195.02 198.523 Q2195.02 190.051 2199.58 185.328 Q2204.17 180.583 2212.27 180.583 Q2215.65 180.583 2218.68 181.416 Q2221.73 182.25 2224.3 183.87 L2224.3 188.847 Q2221.71 186.648 2218.79 185.537 Q2215.88 184.426 2212.66 184.426 Q2206.32 184.426 2203.12 187.967 Q2199.95 191.509 2199.95 198.523 Q2199.95 205.514 2203.12 209.055 Q2206.32 212.597 2212.66 212.597 Q2215.14 212.597 2217.08 212.18 Q2219.03 211.74 2220.58 210.838 Z" fill="#000000" fill-rule="nonzero" fill-opacity="1" /><path clip-path="url(#clip820)" d="M2254.47 182.342 L2254.47 186.903 Q2251.8 185.629 2249.44 185.004 Q2247.08 184.379 2244.88 184.379 Q2241.06 184.379 2238.98 185.861 Q2236.92 187.342 2236.92 190.074 Q2236.92 192.365 2238.29 193.546 Q2239.67 194.703 2243.52 195.421 L2246.34 196 Q2251.57 196.995 2254.05 199.518 Q2256.55 202.018 2256.55 206.231 Q2256.55 211.254 2253.17 213.847 Q2249.81 216.439 2243.31 216.439 Q2240.85 216.439 2238.08 215.884 Q2235.32 215.328 2232.36 214.24 L2232.36 209.426 Q2235.21 211.023 2237.94 211.833 Q2240.67 212.643 2243.31 212.643 Q2247.31 212.643 2249.49 211.069 Q2251.66 209.495 2251.66 206.578 Q2251.66 204.032 2250.09 202.597 Q2248.54 201.162 2244.98 200.444 L2242.13 199.889 Q2236.9 198.847 2234.56 196.625 Q2232.22 194.402 2232.22 190.444 Q2232.22 185.861 2235.44 183.222 Q2238.68 180.583 2244.35 180.583 Q2246.78 180.583 2249.3 181.023 Q2251.83 181.463 2254.47 182.342 Z" fill="#000000" fill-rule="nonzero" fill-opacity="1" /></svg>
