<?xml version="1.0" encoding="utf-8"?>
<svg xmlns="http://www.w3.org/2000/svg" xmlns:xlink="http://www.w3.org/1999/xlink" width="600" height="400" viewBox="0 0 2400 1600">
<defs>
  <clipPath id="clip190">
    <rect x="0" y="0" width="2400" height="1600"/>
  </clipPath>
</defs>
<path clip-path="url(#clip190)" d="M0 1600 L2400 1600 L2400 0 L0 0  Z" fill="#ffffff" fill-rule="evenodd" fill-opacity="1"/>
<defs>
  <clipPath id="clip191">
    <rect x="219" y="123" width="2134" height="1301"/>
  </clipPath>
</defs>
<path clip-path="url(#clip190)" d="M247.459 1423.18 L2352.76 1423.18 L2352.76 123.472 L247.459 123.472  Z" fill="#ffffff" fill-rule="evenodd" fill-opacity="1"/>
<defs>
  <clipPath id="clip192">
    <rect x="247" y="123" width="2106" height="1301"/>
  </clipPath>
</defs>
<polyline clip-path="url(#clip192)" style="stroke:#000000; stroke-linecap:round; stroke-linejoin:round; stroke-width:2; stroke-opacity:0.1; fill:none" points="287.571,1423.18 287.571,123.472 "/>
<polyline clip-path="url(#clip192)" style="stroke:#000000; stroke-linecap:round; stroke-linejoin:round; stroke-width:2; stroke-opacity:0.1; fill:none" points="774.367,1423.18 774.367,123.472 "/>
<polyline clip-path="url(#clip192)" style="stroke:#000000; stroke-linecap:round; stroke-linejoin:round; stroke-width:2; stroke-opacity:0.1; fill:none" points="1261.16,1423.18 1261.16,123.472 "/>
<polyline clip-path="url(#clip192)" style="stroke:#000000; stroke-linecap:round; stroke-linejoin:round; stroke-width:2; stroke-opacity:0.1; fill:none" points="1747.96,1423.18 1747.96,123.472 "/>
<polyline clip-path="url(#clip192)" style="stroke:#000000; stroke-linecap:round; stroke-linejoin:round; stroke-width:2; stroke-opacity:0.1; fill:none" points="2234.76,1423.18 2234.76,123.472 "/>
<polyline clip-path="url(#clip192)" style="stroke:#000000; stroke-linecap:round; stroke-linejoin:round; stroke-width:2; stroke-opacity:0.1; fill:none" points="247.459,1386.4 2352.76,1386.4 "/>
<polyline clip-path="url(#clip192)" style="stroke:#000000; stroke-linecap:round; stroke-linejoin:round; stroke-width:2; stroke-opacity:0.1; fill:none" points="247.459,1167.6 2352.76,1167.6 "/>
<polyline clip-path="url(#clip192)" style="stroke:#000000; stroke-linecap:round; stroke-linejoin:round; stroke-width:2; stroke-opacity:0.1; fill:none" points="247.459,948.808 2352.76,948.808 "/>
<polyline clip-path="url(#clip192)" style="stroke:#000000; stroke-linecap:round; stroke-linejoin:round; stroke-width:2; stroke-opacity:0.1; fill:none" points="247.459,730.014 2352.76,730.014 "/>
<polyline clip-path="url(#clip192)" style="stroke:#000000; stroke-linecap:round; stroke-linejoin:round; stroke-width:2; stroke-opacity:0.1; fill:none" points="247.459,511.22 2352.76,511.22 "/>
<polyline clip-path="url(#clip192)" style="stroke:#000000; stroke-linecap:round; stroke-linejoin:round; stroke-width:2; stroke-opacity:0.1; fill:none" points="247.459,292.427 2352.76,292.427 "/>
<polyline clip-path="url(#clip190)" style="stroke:#000000; stroke-linecap:round; stroke-linejoin:round; stroke-width:4; stroke-opacity:1; fill:none" points="247.459,1423.18 2352.76,1423.18 "/>
<polyline clip-path="url(#clip190)" style="stroke:#000000; stroke-linecap:round; stroke-linejoin:round; stroke-width:4; stroke-opacity:1; fill:none" points="287.571,1423.18 287.571,1404.28 "/>
<polyline clip-path="url(#clip190)" style="stroke:#000000; stroke-linecap:round; stroke-linejoin:round; stroke-width:4; stroke-opacity:1; fill:none" points="774.367,1423.18 774.367,1404.28 "/>
<polyline clip-path="url(#clip190)" style="stroke:#000000; stroke-linecap:round; stroke-linejoin:round; stroke-width:4; stroke-opacity:1; fill:none" points="1261.16,1423.18 1261.16,1404.28 "/>
<polyline clip-path="url(#clip190)" style="stroke:#000000; stroke-linecap:round; stroke-linejoin:round; stroke-width:4; stroke-opacity:1; fill:none" points="1747.96,1423.18 1747.96,1404.28 "/>
<polyline clip-path="url(#clip190)" style="stroke:#000000; stroke-linecap:round; stroke-linejoin:round; stroke-width:4; stroke-opacity:1; fill:none" points="2234.76,1423.18 2234.76,1404.28 "/>
<path clip-path="url(#clip190)" d="M287.571 1454.1 Q283.96 1454.1 282.131 1457.66 Q280.325 1461.2 280.325 1468.33 Q280.325 1475.44 282.131 1479.01 Q283.96 1482.55 287.571 1482.55 Q291.205 1482.55 293.011 1479.01 Q294.839 1475.44 294.839 1468.33 Q294.839 1461.2 293.011 1457.66 Q291.205 1454.1 287.571 1454.1 M287.571 1450.39 Q293.381 1450.39 296.436 1455 Q299.515 1459.58 299.515 1468.33 Q299.515 1477.06 296.436 1481.67 Q293.381 1486.25 287.571 1486.25 Q281.761 1486.25 278.682 1481.67 Q275.626 1477.06 275.626 1468.33 Q275.626 1459.58 278.682 1455 Q281.761 1450.39 287.571 1450.39 Z" fill="#000000" fill-rule="nonzero" fill-opacity="1" /><path clip-path="url(#clip190)" d="M753.638 1481.64 L769.957 1481.64 L769.957 1485.58 L748.013 1485.58 L748.013 1481.64 Q750.675 1478.89 755.258 1474.26 Q759.865 1469.61 761.045 1468.27 Q763.291 1465.74 764.17 1464.01 Q765.073 1462.25 765.073 1460.56 Q765.073 1457.8 763.129 1456.07 Q761.208 1454.33 758.106 1454.33 Q755.907 1454.33 753.453 1455.09 Q751.022 1455.86 748.245 1457.41 L748.245 1452.69 Q751.069 1451.55 753.522 1450.97 Q755.976 1450.39 758.013 1450.39 Q763.383 1450.39 766.578 1453.08 Q769.772 1455.77 769.772 1460.26 Q769.772 1462.39 768.962 1464.31 Q768.175 1466.2 766.069 1468.8 Q765.49 1469.47 762.388 1472.69 Q759.286 1475.88 753.638 1481.64 Z" fill="#000000" fill-rule="nonzero" fill-opacity="1" /><path clip-path="url(#clip190)" d="M779.819 1451.02 L798.175 1451.02 L798.175 1454.96 L784.101 1454.96 L784.101 1463.43 Q785.119 1463.08 786.138 1462.92 Q787.156 1462.73 788.175 1462.73 Q793.962 1462.73 797.342 1465.9 Q800.721 1469.08 800.721 1474.49 Q800.721 1480.07 797.249 1483.17 Q793.777 1486.25 787.457 1486.25 Q785.281 1486.25 783.013 1485.88 Q780.768 1485.51 778.36 1484.77 L778.36 1480.07 Q780.444 1481.2 782.666 1481.76 Q784.888 1482.32 787.365 1482.32 Q791.369 1482.32 793.707 1480.21 Q796.045 1478.1 796.045 1474.49 Q796.045 1470.88 793.707 1468.77 Q791.369 1466.67 787.365 1466.67 Q785.49 1466.67 783.615 1467.08 Q781.763 1467.5 779.819 1468.38 L779.819 1451.02 Z" fill="#000000" fill-rule="nonzero" fill-opacity="1" /><path clip-path="url(#clip190)" d="M1235.86 1451.02 L1254.22 1451.02 L1254.22 1454.96 L1240.15 1454.96 L1240.15 1463.43 Q1241.16 1463.08 1242.18 1462.92 Q1243.2 1462.73 1244.22 1462.73 Q1250.01 1462.73 1253.39 1465.9 Q1256.77 1469.08 1256.77 1474.49 Q1256.77 1480.07 1253.29 1483.17 Q1249.82 1486.25 1243.5 1486.25 Q1241.33 1486.25 1239.06 1485.88 Q1236.81 1485.51 1234.4 1484.77 L1234.4 1480.07 Q1236.49 1481.2 1238.71 1481.76 Q1240.93 1482.32 1243.41 1482.32 Q1247.41 1482.32 1249.75 1480.21 Q1252.09 1478.1 1252.09 1474.49 Q1252.09 1470.88 1249.75 1468.77 Q1247.41 1466.67 1243.41 1466.67 Q1241.53 1466.67 1239.66 1467.08 Q1237.81 1467.5 1235.86 1468.38 L1235.86 1451.02 Z" fill="#000000" fill-rule="nonzero" fill-opacity="1" /><path clip-path="url(#clip190)" d="M1275.98 1454.1 Q1272.37 1454.1 1270.54 1457.66 Q1268.73 1461.2 1268.73 1468.33 Q1268.73 1475.44 1270.54 1479.01 Q1272.37 1482.55 1275.98 1482.55 Q1279.61 1482.55 1281.42 1479.01 Q1283.25 1475.44 1283.25 1468.33 Q1283.25 1461.2 1281.42 1457.66 Q1279.61 1454.1 1275.98 1454.1 M1275.98 1450.39 Q1281.79 1450.39 1284.84 1455 Q1287.92 1459.58 1287.92 1468.33 Q1287.92 1477.06 1284.84 1481.67 Q1281.79 1486.25 1275.98 1486.25 Q1270.17 1486.25 1267.09 1481.67 Q1264.03 1477.06 1264.03 1468.33 Q1264.03 1459.58 1267.09 1455 Q1270.17 1450.39 1275.98 1450.39 Z" fill="#000000" fill-rule="nonzero" fill-opacity="1" /><path clip-path="url(#clip190)" d="M1721.81 1451.02 L1744.04 1451.02 L1744.04 1453.01 L1731.49 1485.58 L1726.61 1485.58 L1738.41 1454.96 L1721.81 1454.96 L1721.81 1451.02 Z" fill="#000000" fill-rule="nonzero" fill-opacity="1" /><path clip-path="url(#clip190)" d="M1753.2 1451.02 L1771.56 1451.02 L1771.56 1454.96 L1757.49 1454.96 L1757.49 1463.43 Q1758.5 1463.08 1759.52 1462.92 Q1760.54 1462.73 1761.56 1462.73 Q1767.35 1462.73 1770.73 1465.9 Q1774.11 1469.08 1774.11 1474.49 Q1774.11 1480.07 1770.63 1483.17 Q1767.16 1486.25 1760.84 1486.25 Q1758.67 1486.25 1756.4 1485.88 Q1754.15 1485.51 1751.74 1484.77 L1751.74 1480.07 Q1753.83 1481.2 1756.05 1481.76 Q1758.27 1482.32 1760.75 1482.32 Q1764.75 1482.32 1767.09 1480.21 Q1769.43 1478.1 1769.43 1474.49 Q1769.43 1470.88 1767.09 1468.77 Q1764.75 1466.67 1760.75 1466.67 Q1758.87 1466.67 1757 1467.08 Q1755.15 1467.5 1753.2 1468.38 L1753.2 1451.02 Z" fill="#000000" fill-rule="nonzero" fill-opacity="1" /><path clip-path="url(#clip190)" d="M2194.36 1481.64 L2202 1481.64 L2202 1455.28 L2193.69 1456.95 L2193.69 1452.69 L2201.96 1451.02 L2206.63 1451.02 L2206.63 1481.64 L2214.27 1481.64 L2214.27 1485.58 L2194.36 1485.58 L2194.36 1481.64 Z" fill="#000000" fill-rule="nonzero" fill-opacity="1" /><path clip-path="url(#clip190)" d="M2233.71 1454.1 Q2230.1 1454.1 2228.28 1457.66 Q2226.47 1461.2 2226.47 1468.33 Q2226.47 1475.44 2228.28 1479.01 Q2230.1 1482.55 2233.71 1482.55 Q2237.35 1482.55 2239.15 1479.01 Q2240.98 1475.44 2240.98 1468.33 Q2240.98 1461.2 2239.15 1457.66 Q2237.35 1454.1 2233.71 1454.1 M2233.71 1450.39 Q2239.52 1450.39 2242.58 1455 Q2245.66 1459.58 2245.66 1468.33 Q2245.66 1477.06 2242.58 1481.67 Q2239.52 1486.25 2233.71 1486.25 Q2227.9 1486.25 2224.83 1481.67 Q2221.77 1477.06 2221.77 1468.33 Q2221.77 1459.58 2224.83 1455 Q2227.9 1450.39 2233.71 1450.39 Z" fill="#000000" fill-rule="nonzero" fill-opacity="1" /><path clip-path="url(#clip190)" d="M2263.88 1454.1 Q2260.27 1454.1 2258.44 1457.66 Q2256.63 1461.2 2256.63 1468.33 Q2256.63 1475.44 2258.44 1479.01 Q2260.27 1482.55 2263.88 1482.55 Q2267.51 1482.55 2269.32 1479.01 Q2271.15 1475.44 2271.15 1468.33 Q2271.15 1461.2 2269.32 1457.66 Q2267.51 1454.1 2263.88 1454.1 M2263.88 1450.39 Q2269.69 1450.39 2272.74 1455 Q2275.82 1459.58 2275.82 1468.33 Q2275.82 1477.06 2272.74 1481.67 Q2269.69 1486.25 2263.88 1486.25 Q2258.07 1486.25 2254.99 1481.67 Q2251.93 1477.06 2251.93 1468.33 Q2251.93 1459.58 2254.99 1455 Q2258.07 1450.39 2263.88 1450.39 Z" fill="#000000" fill-rule="nonzero" fill-opacity="1" /><path clip-path="url(#clip190)" d="M1221.98 1520.52 L1262.18 1520.52 L1262.18 1525.93 L1245.31 1525.93 L1245.31 1568.04 L1238.85 1568.04 L1238.85 1525.93 L1221.98 1525.93 L1221.98 1520.52 Z" fill="#000000" fill-rule="nonzero" fill-opacity="1" /><path clip-path="url(#clip190)" d="M1266.13 1532.4 L1271.99 1532.4 L1271.99 1568.04 L1266.13 1568.04 L1266.13 1532.4 M1266.13 1518.52 L1271.99 1518.52 L1271.99 1525.93 L1266.13 1525.93 L1266.13 1518.52 Z" fill="#000000" fill-rule="nonzero" fill-opacity="1" /><path clip-path="url(#clip190)" d="M1312 1539.24 Q1314.19 1535.29 1317.25 1533.41 Q1320.3 1531.54 1324.44 1531.54 Q1330.01 1531.54 1333.03 1535.45 Q1336.06 1539.33 1336.06 1546.53 L1336.06 1568.04 L1330.17 1568.04 L1330.17 1546.72 Q1330.17 1541.59 1328.36 1539.11 Q1326.54 1536.63 1322.82 1536.63 Q1318.27 1536.63 1315.62 1539.65 Q1312.98 1542.68 1312.98 1547.9 L1312.98 1568.04 L1307.09 1568.04 L1307.09 1546.72 Q1307.09 1541.56 1305.28 1539.11 Q1303.47 1536.63 1299.68 1536.63 Q1295.19 1536.63 1292.55 1539.68 Q1289.91 1542.71 1289.91 1547.9 L1289.91 1568.04 L1284.02 1568.04 L1284.02 1532.4 L1289.91 1532.4 L1289.91 1537.93 Q1291.91 1534.66 1294.71 1533.1 Q1297.51 1531.54 1301.36 1531.54 Q1305.25 1531.54 1307.95 1533.51 Q1310.69 1535.48 1312 1539.24 Z" fill="#000000" fill-rule="nonzero" fill-opacity="1" /><path clip-path="url(#clip190)" d="M1378.23 1548.76 L1378.23 1551.62 L1351.3 1551.62 Q1351.69 1557.67 1354.93 1560.85 Q1358.21 1564 1364.03 1564 Q1367.41 1564 1370.56 1563.17 Q1373.74 1562.35 1376.86 1560.69 L1376.86 1566.23 Q1373.71 1567.57 1370.4 1568.27 Q1367.09 1568.97 1363.68 1568.97 Q1355.15 1568.97 1350.16 1564 Q1345.19 1559.04 1345.19 1550.57 Q1345.19 1541.82 1349.9 1536.69 Q1354.65 1531.54 1362.67 1531.54 Q1369.86 1531.54 1374.03 1536.18 Q1378.23 1540.8 1378.23 1548.76 M1372.37 1547.04 Q1372.31 1542.23 1369.67 1539.37 Q1367.06 1536.5 1362.73 1536.5 Q1357.83 1536.5 1354.87 1539.27 Q1351.94 1542.04 1351.49 1547.07 L1372.37 1547.04 Z" fill="#000000" fill-rule="nonzero" fill-opacity="1" /><polyline clip-path="url(#clip190)" style="stroke:#000000; stroke-linecap:round; stroke-linejoin:round; stroke-width:4; stroke-opacity:1; fill:none" points="247.459,1423.18 247.459,123.472 "/>
<polyline clip-path="url(#clip190)" style="stroke:#000000; stroke-linecap:round; stroke-linejoin:round; stroke-width:4; stroke-opacity:1; fill:none" points="247.459,1386.4 266.356,1386.4 "/>
<polyline clip-path="url(#clip190)" style="stroke:#000000; stroke-linecap:round; stroke-linejoin:round; stroke-width:4; stroke-opacity:1; fill:none" points="247.459,1167.6 266.356,1167.6 "/>
<polyline clip-path="url(#clip190)" style="stroke:#000000; stroke-linecap:round; stroke-linejoin:round; stroke-width:4; stroke-opacity:1; fill:none" points="247.459,948.808 266.356,948.808 "/>
<polyline clip-path="url(#clip190)" style="stroke:#000000; stroke-linecap:round; stroke-linejoin:round; stroke-width:4; stroke-opacity:1; fill:none" points="247.459,730.014 266.356,730.014 "/>
<polyline clip-path="url(#clip190)" style="stroke:#000000; stroke-linecap:round; stroke-linejoin:round; stroke-width:4; stroke-opacity:1; fill:none" points="247.459,511.22 266.356,511.22 "/>
<polyline clip-path="url(#clip190)" style="stroke:#000000; stroke-linecap:round; stroke-linejoin:round; stroke-width:4; stroke-opacity:1; fill:none" points="247.459,292.427 266.356,292.427 "/>
<path clip-path="url(#clip190)" d="M154.283 1372.19 Q150.672 1372.19 148.843 1375.76 Q147.038 1379.3 147.038 1386.43 Q147.038 1393.54 148.843 1397.1 Q150.672 1400.64 154.283 1400.64 Q157.917 1400.64 159.723 1397.1 Q161.552 1393.54 161.552 1386.43 Q161.552 1379.3 159.723 1375.76 Q157.917 1372.19 154.283 1372.19 M154.283 1368.49 Q160.093 1368.49 163.149 1373.1 Q166.227 1377.68 166.227 1386.43 Q166.227 1395.16 163.149 1399.76 Q160.093 1404.35 154.283 1404.35 Q148.473 1404.35 145.394 1399.76 Q142.339 1395.16 142.339 1386.43 Q142.339 1377.68 145.394 1373.1 Q148.473 1368.49 154.283 1368.49 Z" fill="#000000" fill-rule="nonzero" fill-opacity="1" /><path clip-path="url(#clip190)" d="M174.445 1397.8 L179.329 1397.8 L179.329 1403.68 L174.445 1403.68 L174.445 1397.8 Z" fill="#000000" fill-rule="nonzero" fill-opacity="1" /><path clip-path="url(#clip190)" d="M199.514 1372.19 Q195.903 1372.19 194.075 1375.76 Q192.269 1379.3 192.269 1386.43 Q192.269 1393.54 194.075 1397.1 Q195.903 1400.64 199.514 1400.64 Q203.149 1400.64 204.954 1397.1 Q206.783 1393.54 206.783 1386.43 Q206.783 1379.3 204.954 1375.76 Q203.149 1372.19 199.514 1372.19 M199.514 1368.49 Q205.324 1368.49 208.38 1373.1 Q211.459 1377.68 211.459 1386.43 Q211.459 1395.16 208.38 1399.76 Q205.324 1404.35 199.514 1404.35 Q193.704 1404.35 190.625 1399.76 Q187.57 1395.16 187.57 1386.43 Q187.57 1377.68 190.625 1373.1 Q193.704 1368.49 199.514 1368.49 Z" fill="#000000" fill-rule="nonzero" fill-opacity="1" /><path clip-path="url(#clip190)" d="M149.306 1180.95 L165.626 1180.95 L165.626 1184.88 L143.681 1184.88 L143.681 1180.95 Q146.343 1178.19 150.927 1173.56 Q155.533 1168.91 156.714 1167.57 Q158.959 1165.04 159.839 1163.31 Q160.741 1161.55 160.741 1159.86 Q160.741 1157.1 158.797 1155.37 Q156.876 1153.63 153.774 1153.63 Q151.575 1153.63 149.121 1154.4 Q146.691 1155.16 143.913 1156.71 L143.913 1151.99 Q146.737 1150.85 149.191 1150.28 Q151.644 1149.7 153.681 1149.7 Q159.052 1149.7 162.246 1152.38 Q165.44 1155.07 165.44 1159.56 Q165.44 1161.69 164.63 1163.61 Q163.843 1165.51 161.737 1168.1 Q161.158 1168.77 158.056 1171.99 Q154.954 1175.18 149.306 1180.95 Z" fill="#000000" fill-rule="nonzero" fill-opacity="1" /><path clip-path="url(#clip190)" d="M175.44 1179 L180.325 1179 L180.325 1184.88 L175.44 1184.88 L175.44 1179 Z" fill="#000000" fill-rule="nonzero" fill-opacity="1" /><path clip-path="url(#clip190)" d="M190.556 1150.32 L208.912 1150.32 L208.912 1154.26 L194.838 1154.26 L194.838 1162.73 Q195.857 1162.38 196.875 1162.22 Q197.894 1162.03 198.912 1162.03 Q204.699 1162.03 208.079 1165.21 Q211.459 1168.38 211.459 1173.79 Q211.459 1179.37 207.987 1182.47 Q204.514 1185.55 198.195 1185.55 Q196.019 1185.55 193.75 1185.18 Q191.505 1184.81 189.098 1184.07 L189.098 1179.37 Q191.181 1180.51 193.403 1181.06 Q195.625 1181.62 198.102 1181.62 Q202.107 1181.62 204.445 1179.51 Q206.783 1177.41 206.783 1173.79 Q206.783 1170.18 204.445 1168.08 Q202.107 1165.97 198.102 1165.97 Q196.227 1165.97 194.352 1166.39 Q192.5 1166.8 190.556 1167.68 L190.556 1150.32 Z" fill="#000000" fill-rule="nonzero" fill-opacity="1" /><path clip-path="url(#clip190)" d="M144.329 931.528 L162.686 931.528 L162.686 935.463 L148.612 935.463 L148.612 943.935 Q149.63 943.588 150.649 943.426 Q151.667 943.241 152.686 943.241 Q158.473 943.241 161.852 946.412 Q165.232 949.584 165.232 955 Q165.232 960.579 161.76 963.681 Q158.288 966.759 151.968 966.759 Q149.792 966.759 147.524 966.389 Q145.279 966.019 142.871 965.278 L142.871 960.579 Q144.954 961.713 147.177 962.269 Q149.399 962.824 151.876 962.824 Q155.88 962.824 158.218 960.718 Q160.556 958.611 160.556 955 Q160.556 951.389 158.218 949.283 Q155.88 947.176 151.876 947.176 Q150.001 947.176 148.126 947.593 Q146.274 948.009 144.329 948.889 L144.329 931.528 Z" fill="#000000" fill-rule="nonzero" fill-opacity="1" /><path clip-path="url(#clip190)" d="M174.445 960.208 L179.329 960.208 L179.329 966.088 L174.445 966.088 L174.445 960.208 Z" fill="#000000" fill-rule="nonzero" fill-opacity="1" /><path clip-path="url(#clip190)" d="M199.514 934.607 Q195.903 934.607 194.075 938.172 Q192.269 941.713 192.269 948.843 Q192.269 955.949 194.075 959.514 Q195.903 963.056 199.514 963.056 Q203.149 963.056 204.954 959.514 Q206.783 955.949 206.783 948.843 Q206.783 941.713 204.954 938.172 Q203.149 934.607 199.514 934.607 M199.514 930.903 Q205.324 930.903 208.38 935.51 Q211.459 940.093 211.459 948.843 Q211.459 957.57 208.38 962.176 Q205.324 966.759 199.514 966.759 Q193.704 966.759 190.625 962.176 Q187.57 957.57 187.57 948.843 Q187.57 940.093 190.625 935.51 Q193.704 930.903 199.514 930.903 Z" fill="#000000" fill-rule="nonzero" fill-opacity="1" /><path clip-path="url(#clip190)" d="M144.098 712.734 L166.32 712.734 L166.32 714.725 L153.774 747.294 L148.89 747.294 L160.695 716.669 L144.098 716.669 L144.098 712.734 Z" fill="#000000" fill-rule="nonzero" fill-opacity="1" /><path clip-path="url(#clip190)" d="M175.44 741.415 L180.325 741.415 L180.325 747.294 L175.44 747.294 L175.44 741.415 Z" fill="#000000" fill-rule="nonzero" fill-opacity="1" /><path clip-path="url(#clip190)" d="M190.556 712.734 L208.912 712.734 L208.912 716.669 L194.838 716.669 L194.838 725.142 Q195.857 724.794 196.875 724.632 Q197.894 724.447 198.912 724.447 Q204.699 724.447 208.079 727.618 Q211.459 730.79 211.459 736.206 Q211.459 741.785 207.987 744.887 Q204.514 747.966 198.195 747.966 Q196.019 747.966 193.75 747.595 Q191.505 747.225 189.098 746.484 L189.098 741.785 Q191.181 742.919 193.403 743.475 Q195.625 744.03 198.102 744.03 Q202.107 744.03 204.445 741.924 Q206.783 739.817 206.783 736.206 Q206.783 732.595 204.445 730.489 Q202.107 728.382 198.102 728.382 Q196.227 728.382 194.352 728.799 Q192.5 729.216 190.556 730.095 L190.556 712.734 Z" fill="#000000" fill-rule="nonzero" fill-opacity="1" /><path clip-path="url(#clip190)" d="M114.931 524.565 L122.57 524.565 L122.57 498.2 L114.26 499.866 L114.26 495.607 L122.524 493.94 L127.2 493.94 L127.2 524.565 L134.839 524.565 L134.839 528.5 L114.931 528.5 L114.931 524.565 Z" fill="#000000" fill-rule="nonzero" fill-opacity="1" /><path clip-path="url(#clip190)" d="M154.283 497.019 Q150.672 497.019 148.843 500.584 Q147.038 504.126 147.038 511.255 Q147.038 518.362 148.843 521.926 Q150.672 525.468 154.283 525.468 Q157.917 525.468 159.723 521.926 Q161.552 518.362 161.552 511.255 Q161.552 504.126 159.723 500.584 Q157.917 497.019 154.283 497.019 M154.283 493.315 Q160.093 493.315 163.149 497.922 Q166.227 502.505 166.227 511.255 Q166.227 519.982 163.149 524.588 Q160.093 529.172 154.283 529.172 Q148.473 529.172 145.394 524.588 Q142.339 519.982 142.339 511.255 Q142.339 502.505 145.394 497.922 Q148.473 493.315 154.283 493.315 Z" fill="#000000" fill-rule="nonzero" fill-opacity="1" /><path clip-path="url(#clip190)" d="M174.445 522.621 L179.329 522.621 L179.329 528.5 L174.445 528.5 L174.445 522.621 Z" fill="#000000" fill-rule="nonzero" fill-opacity="1" /><path clip-path="url(#clip190)" d="M199.514 497.019 Q195.903 497.019 194.075 500.584 Q192.269 504.126 192.269 511.255 Q192.269 518.362 194.075 521.926 Q195.903 525.468 199.514 525.468 Q203.149 525.468 204.954 521.926 Q206.783 518.362 206.783 511.255 Q206.783 504.126 204.954 500.584 Q203.149 497.019 199.514 497.019 M199.514 493.315 Q205.324 493.315 208.38 497.922 Q211.459 502.505 211.459 511.255 Q211.459 519.982 208.38 524.588 Q205.324 529.172 199.514 529.172 Q193.704 529.172 190.625 524.588 Q187.57 519.982 187.57 511.255 Q187.57 502.505 190.625 497.922 Q193.704 493.315 199.514 493.315 Z" fill="#000000" fill-rule="nonzero" fill-opacity="1" /><path clip-path="url(#clip190)" d="M115.927 305.771 L123.566 305.771 L123.566 279.406 L115.256 281.073 L115.256 276.813 L123.519 275.147 L128.195 275.147 L128.195 305.771 L135.834 305.771 L135.834 309.707 L115.927 309.707 L115.927 305.771 Z" fill="#000000" fill-rule="nonzero" fill-opacity="1" /><path clip-path="url(#clip190)" d="M149.306 305.771 L165.626 305.771 L165.626 309.707 L143.681 309.707 L143.681 305.771 Q146.343 303.017 150.927 298.387 Q155.533 293.735 156.714 292.392 Q158.959 289.869 159.839 288.133 Q160.741 286.373 160.741 284.684 Q160.741 281.929 158.797 280.193 Q156.876 278.457 153.774 278.457 Q151.575 278.457 149.121 279.221 Q146.691 279.985 143.913 281.536 L143.913 276.813 Q146.737 275.679 149.191 275.1 Q151.644 274.522 153.681 274.522 Q159.052 274.522 162.246 277.207 Q165.44 279.892 165.44 284.383 Q165.44 286.512 164.63 288.434 Q163.843 290.332 161.737 292.924 Q161.158 293.596 158.056 296.813 Q154.954 300.008 149.306 305.771 Z" fill="#000000" fill-rule="nonzero" fill-opacity="1" /><path clip-path="url(#clip190)" d="M175.44 303.827 L180.325 303.827 L180.325 309.707 L175.44 309.707 L175.44 303.827 Z" fill="#000000" fill-rule="nonzero" fill-opacity="1" /><path clip-path="url(#clip190)" d="M190.556 275.147 L208.912 275.147 L208.912 279.082 L194.838 279.082 L194.838 287.554 Q195.857 287.207 196.875 287.045 Q197.894 286.86 198.912 286.86 Q204.699 286.86 208.079 290.031 Q211.459 293.202 211.459 298.619 Q211.459 304.197 207.987 307.299 Q204.514 310.378 198.195 310.378 Q196.019 310.378 193.75 310.008 Q191.505 309.637 189.098 308.896 L189.098 304.197 Q191.181 305.332 193.403 305.887 Q195.625 306.443 198.102 306.443 Q202.107 306.443 204.445 304.336 Q206.783 302.23 206.783 298.619 Q206.783 295.008 204.445 292.901 Q202.107 290.795 198.102 290.795 Q196.227 290.795 194.352 291.211 Q192.5 291.628 190.556 292.508 L190.556 275.147 Z" fill="#000000" fill-rule="nonzero" fill-opacity="1" /><path clip-path="url(#clip190)" d="M29.7248 956.945 L35.1993 956.945 Q33.8307 959.427 33.1623 961.942 Q32.4621 964.424 32.4621 966.971 Q32.4621 972.668 36.0905 975.819 Q39.6872 978.97 46.212 978.97 Q52.7369 978.97 56.3653 975.819 Q59.9619 972.668 59.9619 966.971 Q59.9619 964.424 59.2935 961.942 Q58.5933 959.427 57.2247 956.945 L62.6355 956.945 Q63.7814 959.396 64.3543 962.037 Q64.9272 964.647 64.9272 967.607 Q64.9272 975.66 59.8664 980.402 Q54.8057 985.145 46.212 985.145 Q37.491 985.145 32.4939 980.371 Q27.4968 975.564 27.4968 967.225 Q27.4968 964.52 28.0697 961.942 Q28.6108 959.364 29.7248 956.945 Z" fill="#000000" fill-rule="nonzero" fill-opacity="1" /><path clip-path="url(#clip190)" d="M16.4842 953.094 L16.4842 912.894 L21.895 912.894 L21.895 929.763 L64.0042 929.763 L64.0042 936.224 L21.895 936.224 L21.895 953.094 L16.4842 953.094 Z" fill="#000000" fill-rule="nonzero" fill-opacity="1" /><path clip-path="url(#clip190)" d="M42.4881 877.31 L64.0042 877.31 L64.0042 883.166 L42.679 883.166 Q37.6183 883.166 35.1038 885.14 Q32.5894 887.113 32.5894 891.06 Q32.5894 895.802 35.6131 898.539 Q38.6368 901.277 43.8567 901.277 L64.0042 901.277 L64.0042 907.165 L28.3562 907.165 L28.3562 901.277 L33.8944 901.277 Q30.6797 899.176 29.0883 896.343 Q27.4968 893.479 27.4968 889.755 Q27.4968 883.612 31.3163 880.461 Q35.1038 877.31 42.4881 877.31 Z" fill="#000000" fill-rule="nonzero" fill-opacity="1" /><path clip-path="url(#clip190)" d="M16.4842 871.963 L16.4842 831.763 L21.895 831.763 L21.895 848.632 L64.0042 848.632 L64.0042 855.093 L21.895 855.093 L21.895 871.963 L16.4842 871.963 Z" fill="#000000" fill-rule="nonzero" fill-opacity="1" /><path clip-path="url(#clip190)" d="M14.479 805.632 L14.479 792.137 L19.0304 792.137 L19.0304 799.775 L68.0464 799.775 L68.0464 792.137 L72.5979 792.137 L72.5979 805.632 L14.479 805.632 Z" fill="#000000" fill-rule="nonzero" fill-opacity="1" /><path clip-path="url(#clip190)" d="M42.4881 750.027 L64.0042 750.027 L64.0042 755.884 L42.679 755.884 Q37.6183 755.884 35.1038 757.857 Q32.5894 759.831 32.5894 763.777 Q32.5894 768.52 35.6131 771.257 Q38.6368 773.994 43.8567 773.994 L64.0042 773.994 L64.0042 779.883 L28.3562 779.883 L28.3562 773.994 L33.8944 773.994 Q30.6797 771.894 29.0883 769.061 Q27.4968 766.196 27.4968 762.472 Q27.4968 756.33 31.3163 753.179 Q35.1038 750.027 42.4881 750.027 Z" fill="#000000" fill-rule="nonzero" fill-opacity="1" /><path clip-path="url(#clip190)" d="M45.7664 714.889 Q39.4007 714.889 35.8996 717.531 Q32.3984 720.141 32.3984 724.883 Q32.3984 729.594 35.8996 732.235 Q39.4007 734.845 45.7664 734.845 Q52.1003 734.845 55.6014 732.235 Q59.1026 729.594 59.1026 724.883 Q59.1026 720.141 55.6014 717.531 Q52.1003 714.889 45.7664 714.889 M59.58 709.032 Q68.683 709.032 73.1071 713.075 Q77.5631 717.117 77.5631 725.456 Q77.5631 728.543 77.0857 731.28 Q76.6401 734.018 75.6852 736.596 L69.9879 736.596 Q71.3884 734.018 72.0568 731.503 Q72.7252 728.989 72.7252 726.379 Q72.7252 720.618 69.7015 717.753 Q66.7096 714.889 60.6303 714.889 L57.7339 714.889 Q60.885 716.703 62.4446 719.536 Q64.0042 722.369 64.0042 726.315 Q64.0042 732.872 59.0071 736.882 Q54.01 740.893 45.7664 740.893 Q37.491 740.893 32.4939 736.882 Q27.4968 732.872 27.4968 726.315 Q27.4968 722.369 29.0564 719.536 Q30.616 716.703 33.7671 714.889 L28.3562 714.889 L28.3562 709.032 L59.58 709.032 Z" fill="#000000" fill-rule="nonzero" fill-opacity="1" /><path clip-path="url(#clip190)" d="M16.4842 686.561 L16.4842 681.151 L70.0516 697.701 L70.0516 703.112 L16.4842 686.561 Z" fill="#000000" fill-rule="nonzero" fill-opacity="1" /><path clip-path="url(#clip190)" d="M35.1993 647.253 Q31.2526 645.057 29.3747 642.001 Q27.4968 638.946 27.4968 634.808 Q27.4968 629.238 31.4117 626.215 Q35.2948 623.191 42.4881 623.191 L64.0042 623.191 L64.0042 629.079 L42.679 629.079 Q37.5546 629.079 35.072 630.893 Q32.5894 632.708 32.5894 636.431 Q32.5894 640.983 35.6131 643.625 Q38.6368 646.266 43.8567 646.266 L64.0042 646.266 L64.0042 652.155 L42.679 652.155 Q37.5228 652.155 35.072 653.969 Q32.5894 655.783 32.5894 659.571 Q32.5894 664.059 35.6449 666.7 Q38.6686 669.342 43.8567 669.342 L64.0042 669.342 L64.0042 675.23 L28.3562 675.23 L28.3562 669.342 L33.8944 669.342 Q30.616 667.337 29.0564 664.536 Q27.4968 661.735 27.4968 657.884 Q27.4968 654.001 29.4702 651.295 Q31.4436 648.558 35.1993 647.253 Z" fill="#000000" fill-rule="nonzero" fill-opacity="1" /><path clip-path="url(#clip190)" d="M16.4842 611.255 L16.4842 604.826 L58.5933 604.826 L58.5933 581.686 L64.0042 581.686 L64.0042 611.255 L16.4842 611.255 Z" fill="#000000" fill-rule="nonzero" fill-opacity="1" /><path clip-path="url(#clip190)" d="M14.479 561.507 L72.5979 561.507 L72.5979 575.002 L68.0464 575.002 L68.0464 567.395 L19.0304 567.395 L19.0304 575.002 L14.479 575.002 L14.479 561.507 Z" fill="#000000" fill-rule="nonzero" fill-opacity="1" /><path clip-path="url(#clip190)" d="M1052.19 18.8205 L1052.19 41.5461 L1062.48 41.5461 Q1068.19 41.5461 1071.31 38.5889 Q1074.43 35.6318 1074.43 30.163 Q1074.43 24.7348 1071.31 21.7777 Q1068.19 18.8205 1062.48 18.8205 L1052.19 18.8205 M1044.01 12.096 L1062.48 12.096 Q1072.65 12.096 1077.83 16.714 Q1083.06 21.2916 1083.06 30.163 Q1083.06 39.1155 1077.83 43.6931 Q1072.65 48.2706 1062.48 48.2706 L1052.19 48.2706 L1052.19 72.576 L1044.01 72.576 L1044.01 12.096 Z" fill="#000000" fill-rule="nonzero" fill-opacity="1" /><path clip-path="url(#clip190)" d="M1110.61 49.7694 Q1101.57 49.7694 1098.09 51.8354 Q1094.6 53.9013 1094.6 58.8839 Q1094.6 62.8538 1097.2 65.2034 Q1099.83 67.5124 1104.33 67.5124 Q1110.52 67.5124 1114.25 63.1374 Q1118.02 58.7219 1118.02 51.4303 L1118.02 49.7694 L1110.61 49.7694 M1125.47 46.6907 L1125.47 72.576 L1118.02 72.576 L1118.02 65.6895 Q1115.47 69.8214 1111.66 71.8063 Q1107.85 73.7508 1102.34 73.7508 Q1095.37 73.7508 1091.24 69.8619 Q1087.15 65.9325 1087.15 59.3701 Q1087.15 51.7138 1092.26 47.825 Q1097.4 43.9361 1107.57 43.9361 L1118.02 43.9361 L1118.02 43.2069 Q1118.02 38.0623 1114.62 35.2672 Q1111.25 32.4315 1105.14 32.4315 Q1101.25 32.4315 1097.56 33.3632 Q1093.88 34.295 1090.47 36.1584 L1090.47 29.2718 Q1094.56 27.692 1098.41 26.9223 Q1102.26 26.1121 1105.91 26.1121 Q1115.75 26.1121 1120.61 31.2163 Q1125.47 36.3204 1125.47 46.6907 Z" fill="#000000" fill-rule="nonzero" fill-opacity="1" /><path clip-path="url(#clip190)" d="M1148.2 14.324 L1148.2 27.2059 L1163.55 27.2059 L1163.55 32.9987 L1148.2 32.9987 L1148.2 57.6282 Q1148.2 63.1779 1149.7 64.7578 Q1151.24 66.3376 1155.9 66.3376 L1163.55 66.3376 L1163.55 72.576 L1155.9 72.576 Q1147.27 72.576 1143.99 69.3758 Q1140.7 66.1351 1140.7 57.6282 L1140.7 32.9987 L1135.24 32.9987 L1135.24 27.2059 L1140.7 27.2059 L1140.7 14.324 L1148.2 14.324 Z" fill="#000000" fill-rule="nonzero" fill-opacity="1" /><path clip-path="url(#clip190)" d="M1173.35 27.2059 L1180.81 27.2059 L1180.81 72.576 L1173.35 72.576 L1173.35 27.2059 M1173.35 9.54393 L1180.81 9.54393 L1180.81 18.9825 L1173.35 18.9825 L1173.35 9.54393 Z" fill="#000000" fill-rule="nonzero" fill-opacity="1" /><path clip-path="url(#clip190)" d="M1235.21 48.0275 L1235.21 51.6733 L1200.94 51.6733 Q1201.43 59.3701 1205.56 63.421 Q1209.73 67.4314 1217.14 67.4314 Q1221.44 67.4314 1225.45 66.3781 Q1229.5 65.3249 1233.47 63.2184 L1233.47 70.267 Q1229.46 71.9684 1225.25 72.8596 Q1221.03 73.7508 1216.7 73.7508 Q1205.84 73.7508 1199.48 67.4314 Q1193.16 61.1119 1193.16 50.3365 Q1193.16 39.1965 1199.16 32.6746 Q1205.19 26.1121 1215.4 26.1121 Q1224.56 26.1121 1229.86 32.0264 Q1235.21 37.9003 1235.21 48.0275 M1227.76 45.84 Q1227.68 39.7232 1224.31 36.0774 Q1220.99 32.4315 1215.48 32.4315 Q1209.25 32.4315 1205.48 35.9558 Q1201.75 39.4801 1201.18 45.8805 L1227.76 45.84 Z" fill="#000000" fill-rule="nonzero" fill-opacity="1" /><path clip-path="url(#clip190)" d="M1285.16 45.1919 L1285.16 72.576 L1277.71 72.576 L1277.71 45.4349 Q1277.71 38.994 1275.19 35.7938 Q1272.68 32.5936 1267.66 32.5936 Q1261.62 32.5936 1258.14 36.4419 Q1254.66 40.2903 1254.66 46.9338 L1254.66 72.576 L1247.16 72.576 L1247.16 27.2059 L1254.66 27.2059 L1254.66 34.2544 Q1257.33 30.163 1260.94 28.1376 Q1264.58 26.1121 1269.32 26.1121 Q1277.14 26.1121 1281.15 30.9732 Q1285.16 35.7938 1285.16 45.1919 Z" fill="#000000" fill-rule="nonzero" fill-opacity="1" /><path clip-path="url(#clip190)" d="M1307.4 14.324 L1307.4 27.2059 L1322.75 27.2059 L1322.75 32.9987 L1307.4 32.9987 L1307.4 57.6282 Q1307.4 63.1779 1308.9 64.7578 Q1310.44 66.3376 1315.1 66.3376 L1322.75 66.3376 L1322.75 72.576 L1315.1 72.576 Q1306.47 72.576 1303.19 69.3758 Q1299.9 66.1351 1299.9 57.6282 L1299.9 32.9987 L1294.44 32.9987 L1294.44 27.2059 L1299.9 27.2059 L1299.9 14.324 L1307.4 14.324 Z" fill="#000000" fill-rule="nonzero" fill-opacity="1" /><path clip-path="url(#clip190)" d="M1396.64 45.1919 L1396.64 72.576 L1389.19 72.576 L1389.19 45.4349 Q1389.19 38.994 1386.68 35.7938 Q1384.16 32.5936 1379.14 32.5936 Q1373.1 32.5936 1369.62 36.4419 Q1366.14 40.2903 1366.14 46.9338 L1366.14 72.576 L1358.64 72.576 L1358.64 27.2059 L1366.14 27.2059 L1366.14 34.2544 Q1368.81 30.163 1372.42 28.1376 Q1376.06 26.1121 1380.8 26.1121 Q1388.62 26.1121 1392.63 30.9732 Q1396.64 35.7938 1396.64 45.1919 Z" fill="#000000" fill-rule="nonzero" fill-opacity="1" /><path clip-path="url(#clip190)" d="M1431.07 39.075 Q1425.56 39.075 1422.32 42.8424 Q1419.12 46.6097 1419.12 53.1722 Q1419.12 59.6941 1422.32 63.502 Q1425.56 67.2693 1431.07 67.2693 Q1436.58 67.2693 1439.78 63.502 Q1443.02 59.6941 1443.02 53.1722 Q1443.02 46.6097 1439.78 42.8424 Q1436.58 39.075 1431.07 39.075 M1447.32 13.4328 L1447.32 20.8865 Q1444.24 19.4281 1441.08 18.6585 Q1437.96 17.8888 1434.88 17.8888 Q1426.78 17.8888 1422.49 23.3575 Q1418.23 28.8262 1417.62 39.8852 Q1420.01 36.3609 1423.62 34.4975 Q1427.22 32.5936 1431.56 32.5936 Q1440.67 32.5936 1445.94 38.1433 Q1451.25 43.6525 1451.25 53.1722 Q1451.25 62.4892 1445.74 68.12 Q1440.23 73.7508 1431.07 73.7508 Q1420.58 73.7508 1415.03 65.73 Q1409.48 57.6687 1409.48 42.3968 Q1409.48 28.0566 1416.29 19.5497 Q1423.09 11.0023 1434.56 11.0023 Q1437.64 11.0023 1440.75 11.6099 Q1443.91 12.2175 1447.32 13.4328 Z" fill="#000000" fill-rule="nonzero" fill-opacity="1" /><path clip-path="url(#clip190)" d="M1482.84 43.8551 Q1477.01 43.8551 1473.65 46.9743 Q1470.33 50.0935 1470.33 55.5622 Q1470.33 61.0309 1473.65 64.1501 Q1477.01 67.2693 1482.84 67.2693 Q1488.68 67.2693 1492.04 64.1501 Q1495.4 60.9904 1495.4 55.5622 Q1495.4 50.0935 1492.04 46.9743 Q1488.72 43.8551 1482.84 43.8551 M1474.66 40.3713 Q1469.39 39.075 1466.44 35.4697 Q1463.52 31.8644 1463.52 26.6793 Q1463.52 19.4281 1468.67 15.2152 Q1473.85 11.0023 1482.84 11.0023 Q1491.88 11.0023 1497.02 15.2152 Q1502.17 19.4281 1502.17 26.6793 Q1502.17 31.8644 1499.21 35.4697 Q1496.29 39.075 1491.07 40.3713 Q1496.98 41.7486 1500.26 45.759 Q1503.58 49.7694 1503.58 55.5622 Q1503.58 64.3527 1498.2 69.0517 Q1492.85 73.7508 1482.84 73.7508 Q1472.84 73.7508 1467.45 69.0517 Q1462.1 64.3527 1462.1 55.5622 Q1462.1 49.7694 1465.42 45.759 Q1468.75 41.7486 1474.66 40.3713 M1471.66 27.4489 Q1471.66 32.148 1474.58 34.7811 Q1477.54 37.4142 1482.84 37.4142 Q1488.11 37.4142 1491.07 34.7811 Q1494.06 32.148 1494.06 27.4489 Q1494.06 22.7499 1491.07 20.1168 Q1488.11 17.4837 1482.84 17.4837 Q1477.54 17.4837 1474.58 20.1168 Q1471.66 22.7499 1471.66 27.4489 Z" fill="#000000" fill-rule="nonzero" fill-opacity="1" /><path clip-path="url(#clip190)" d="M1518.37 71.3202 L1518.37 63.8666 Q1521.45 65.3249 1524.61 66.0946 Q1527.77 66.8642 1530.81 66.8642 Q1538.91 66.8642 1543.16 61.436 Q1547.46 55.9673 1548.06 44.8678 Q1545.71 48.3516 1542.11 50.215 Q1538.5 52.0784 1534.13 52.0784 Q1525.05 52.0784 1519.75 46.6097 Q1514.48 41.1005 1514.48 31.5808 Q1514.48 22.2638 1519.99 16.633 Q1525.5 11.0023 1534.65 11.0023 Q1545.15 11.0023 1550.66 19.0636 Q1556.21 27.0843 1556.21 42.3968 Q1556.21 56.6965 1549.4 65.2439 Q1542.63 73.7508 1531.17 73.7508 Q1528.09 73.7508 1524.93 73.1431 Q1521.77 72.5355 1518.37 71.3202 M1534.65 45.678 Q1540.16 45.678 1543.36 41.9107 Q1546.6 38.1433 1546.6 31.5808 Q1546.6 25.0589 1543.36 21.2916 Q1540.16 17.4837 1534.65 17.4837 Q1529.15 17.4837 1525.9 21.2916 Q1522.7 25.0589 1522.7 31.5808 Q1522.7 38.1433 1525.9 41.9107 Q1529.15 45.678 1534.65 45.678 Z" fill="#000000" fill-rule="nonzero" fill-opacity="1" /><polyline clip-path="url(#clip192)" style="stroke:#009af9; stroke-linecap:round; stroke-linejoin:round; stroke-width:8; stroke-opacity:1; fill:none" points="307.043,160.256 326.514,160.882 345.986,161.682 365.458,162.733 384.93,164.133 404.402,166 423.874,168.45 443.346,171.587 462.817,175.477 482.289,180.134 501.761,185.522 521.233,191.565 540.705,198.168 560.177,205.226 579.649,212.644 599.12,220.337 618.592,228.239 638.064,236.3 657.536,244.481 677.008,252.759 696.48,261.117 715.952,269.547 735.423,278.043 754.895,286.606 774.367,295.239 793.839,303.947 813.311,312.735 832.783,321.609 852.255,330.573 871.726,339.633 891.198,348.795 910.67,358.062 930.142,367.438 949.614,376.925 969.086,386.525 988.558,396.236 1008.03,406.058 1027.5,415.986 1046.97,426.017 1066.45,436.144 1085.92,446.36 1105.39,456.655 1124.86,467.019 1144.33,477.442 1163.8,487.907 1183.28,498.401 1202.75,508.906 1222.22,519.407 1241.69,529.886 1261.16,540.326 1280.64,550.707 1300.11,561.011 1319.58,571.219 1339.05,581.31 1358.52,591.264 1377.99,601.063 1397.47,610.691 1416.94,620.129 1436.41,629.362 1455.88,638.375 1475.35,647.155 1494.83,655.691 1514.3,663.973 1533.77,671.992 1553.24,679.741 1572.71,687.215 1592.19,694.41 1611.66,701.323 1631.13,707.952 1650.6,714.31 1670.07,720.427 1689.54,726.293 1709.02,731.9 1728.49,737.239 1747.96,742.307 1767.43,747.102 1786.9,751.626 1806.38,755.884 1825.85,759.884 1845.32,763.635 1864.79,767.154 1884.26,770.455 1903.73,773.558 1923.21,776.487 1942.68,779.267 1962.15,781.927 1981.62,784.498 2001.09,786.982 2020.57,789.342 2040.04,791.582 2059.51,793.705 2078.98,795.719 2098.45,797.629 2117.93,799.443 2137.4,801.168 2156.87,802.812 2176.34,804.386 2195.81,805.899 2215.28,807.361 2234.76,808.774 2254.23,810.136 2273.7,811.453 2293.17,812.307 "/>
<polyline clip-path="url(#clip192)" style="stroke:#e26f46; stroke-linecap:round; stroke-linejoin:round; stroke-width:8; stroke-opacity:1; fill:none" points="307.043,1373.91 326.514,1373.33 345.986,1372.57 365.458,1371.57 384.93,1370.22 404.402,1368.41 423.874,1366.03 443.346,1362.97 462.817,1359.16 482.289,1354.61 501.761,1349.33 521.233,1343.43 540.705,1336.98 560.177,1330.1 579.649,1322.89 599.12,1315.42 618.592,1307.77 638.064,1299.99 657.536,1292.11 677.008,1284.17 696.48,1276.17 715.952,1268.12 735.423,1260.04 754.895,1251.91 774.367,1243.74 793.839,1235.53 813.311,1227.26 832.783,1218.93 852.255,1210.54 871.726,1202.08 891.198,1193.55 910.67,1184.94 930.142,1176.25 949.614,1167.47 969.086,1158.62 988.558,1149.68 1008.03,1140.65 1027.5,1131.55 1046.97,1122.38 1066.45,1113.14 1085.92,1103.84 1105.39,1094.5 1124.86,1085.11 1144.33,1075.7 1163.8,1066.27 1183.28,1056.84 1202.75,1047.44 1222.22,1038.06 1241.69,1028.74 1261.16,1019.49 1280.64,1010.32 1300.11,1001.26 1319.58,992.33 1339.05,983.54 1358.52,974.914 1377.99,966.47 1397.47,958.224 1416.94,950.192 1436.41,942.39 1455.88,934.831 1475.35,927.527 1494.83,920.49 1514.3,913.727 1533.77,907.248 1553.24,901.057 1572.71,895.159 1592.19,889.557 1611.66,884.254 1631.13,879.248 1650.6,874.527 1670.07,870.06 1689.54,865.853 1709.02,861.917 1728.49,858.258 1747.96,854.88 1767.43,851.784 1786.9,848.967 1806.38,846.424 1825.85,844.146 1845.32,842.121 1864.79,840.335 1884.26,838.771 1903.73,837.408 1923.21,836.221 1942.68,835.185 1962.15,834.268 1981.62,833.44 2001.09,832.697 2020.57,832.079 2040.04,831.581 2059.51,831.198 2078.98,830.924 2098.45,830.753 2117.93,830.677 2137.4,830.688 2156.87,830.777 2176.34,830.935 2195.81,831.151 2215.28,831.416 2234.76,831.726 2254.23,832.085 2273.7,832.486 2293.17,832.775 "/>
<polyline clip-path="url(#clip192)" style="stroke:#3da44d; stroke-linecap:round; stroke-linejoin:round; stroke-width:8; stroke-opacity:1; fill:none" points="307.043,1386.4 326.514,1386.35 345.986,1386.31 365.458,1386.26 384.93,1386.21 404.402,1386.16 423.874,1386.1 443.346,1386.03 462.817,1385.96 482.289,1385.87 501.761,1385.76 521.233,1385.64 540.705,1385.5 560.177,1385.35 579.649,1385.17 599.12,1384.97 618.592,1384.75 638.064,1384.51 657.536,1384.25 677.008,1383.97 696.48,1383.67 715.952,1383.35 735.423,1383.01 754.895,1382.65 774.367,1382.28 793.839,1381.88 813.311,1381.47 832.783,1381.04 852.255,1380.59 871.726,1380.12 891.198,1379.64 910.67,1379.14 930.142,1378.62 949.614,1378.09 969.086,1377.54 988.558,1376.97 1008.03,1376.39 1027.5,1375.79 1046.97,1375.18 1066.45,1374.55 1085.92,1373.9 1105.39,1373.24 1124.86,1372.56 1144.33,1371.87 1163.8,1371.17 1183.28,1370.45 1202.75,1369.72 1222.22,1368.97 1241.69,1368.21 1261.16,1367.44 1280.64,1366.65 1300.11,1365.86 1319.58,1365.06 1339.05,1364.24 1358.52,1363.42 1377.99,1362.58 1397.47,1361.75 1416.94,1360.9 1436.41,1360.05 1455.88,1359.19 1475.35,1358.34 1494.83,1357.47 1514.3,1356.61 1533.77,1355.75 1553.24,1354.88 1572.71,1354.02 1592.19,1353.16 1611.66,1352.31 1631.13,1351.46 1650.6,1350.61 1670.07,1349.77 1689.54,1348.94 1709.02,1348.12 1728.49,1347.3 1747.96,1346.5 1767.43,1345.7 1786.9,1344.91 1806.38,1344.13 1825.85,1343.37 1845.32,1342.61 1864.79,1341.87 1884.26,1341.13 1903.73,1340.41 1923.21,1339.7 1942.68,1339.01 1962.15,1338.34 1981.62,1337.67 2001.09,1337.03 2020.57,1336.4 2040.04,1335.78 2059.51,1335.18 2078.98,1334.59 2098.45,1334.02 2117.93,1333.46 2137.4,1332.92 2156.87,1332.38 2176.34,1331.87 2195.81,1331.36 2215.28,1330.87 2234.76,1330.39 2254.23,1329.93 2273.7,1329.48 2293.17,1329.19 "/>
<circle clip-path="url(#clip192)" cx="518.637" cy="1385.52" r="18" fill="#c271d2" fill-rule="evenodd" fill-opacity="1" stroke="#000000" stroke-opacity="1" stroke-width="3.2"/>
<circle clip-path="url(#clip192)" cx="1494.83" cy="1370.64" r="18" fill="#c271d2" fill-rule="evenodd" fill-opacity="1" stroke="#000000" stroke-opacity="1" stroke-width="3.2"/>
<circle clip-path="url(#clip192)" cx="1608.41" cy="1307.63" r="18" fill="#c271d2" fill-rule="evenodd" fill-opacity="1" stroke="#000000" stroke-opacity="1" stroke-width="3.2"/>
<circle clip-path="url(#clip192)" cx="1825.85" cy="1346.14" r="18" fill="#c271d2" fill-rule="evenodd" fill-opacity="1" stroke="#000000" stroke-opacity="1" stroke-width="3.2"/>
<circle clip-path="url(#clip192)" cx="2072.49" cy="1339.14" r="18" fill="#c271d2" fill-rule="evenodd" fill-opacity="1" stroke="#000000" stroke-opacity="1" stroke-width="3.2"/>
<path clip-path="url(#clip190)" d="M1722.68 425.996 L2282.58 425.996 L2282.58 166.796 L1722.68 166.796  Z" fill="#ffffff" fill-rule="evenodd" fill-opacity="1"/>
<polyline clip-path="url(#clip190)" style="stroke:#000000; stroke-linecap:round; stroke-linejoin:round; stroke-width:4; stroke-opacity:1; fill:none" points="1722.68,425.996 2282.58,425.996 2282.58,166.796 1722.68,166.796 1722.68,425.996 "/>
<polyline clip-path="url(#clip190)" style="stroke:#009af9; stroke-linecap:round; stroke-linejoin:round; stroke-width:8; stroke-opacity:1; fill:none" points="1746.07,218.636 1886.42,218.636 "/>
<path clip-path="url(#clip190)" d="M1932.06 202.49 L1932.06 207.05 Q1929.4 205.777 1927.04 205.152 Q1924.68 204.527 1922.48 204.527 Q1918.66 204.527 1916.57 206.008 Q1914.51 207.49 1914.51 210.221 Q1914.51 212.513 1915.88 213.694 Q1917.27 214.851 1921.11 215.569 L1923.93 216.147 Q1929.17 217.143 1931.64 219.666 Q1934.14 222.166 1934.14 226.379 Q1934.14 231.402 1930.76 233.994 Q1927.41 236.587 1920.9 236.587 Q1918.45 236.587 1915.67 236.031 Q1912.92 235.476 1909.95 234.388 L1909.95 229.573 Q1912.8 231.17 1915.53 231.981 Q1918.26 232.791 1920.9 232.791 Q1924.91 232.791 1927.08 231.217 Q1929.26 229.643 1929.26 226.726 Q1929.26 224.18 1927.68 222.744 Q1926.13 221.309 1922.57 220.592 L1919.72 220.036 Q1914.49 218.995 1912.15 216.772 Q1909.81 214.55 1909.81 210.592 Q1909.81 206.008 1913.03 203.37 Q1916.27 200.731 1921.94 200.731 Q1924.37 200.731 1926.9 201.171 Q1929.42 201.61 1932.06 202.49 Z" fill="#000000" fill-rule="nonzero" fill-opacity="1" /><path clip-path="url(#clip190)" d="M1953.03 222.883 Q1947.87 222.883 1945.88 224.064 Q1943.89 225.244 1943.89 228.092 Q1943.89 230.36 1945.37 231.703 Q1946.87 233.022 1949.44 233.022 Q1952.99 233.022 1955.11 230.522 Q1957.27 227.999 1957.27 223.832 L1957.27 222.883 L1953.03 222.883 M1961.53 221.124 L1961.53 235.916 L1957.27 235.916 L1957.27 231.981 Q1955.81 234.342 1953.63 235.476 Q1951.46 236.587 1948.31 236.587 Q1944.33 236.587 1941.97 234.365 Q1939.63 232.119 1939.63 228.369 Q1939.63 223.994 1942.55 221.772 Q1945.49 219.55 1951.3 219.55 L1957.27 219.55 L1957.27 219.133 Q1957.27 216.194 1955.32 214.596 Q1953.4 212.976 1949.91 212.976 Q1947.68 212.976 1945.58 213.508 Q1943.47 214.041 1941.53 215.106 L1941.53 211.17 Q1943.86 210.268 1946.06 209.828 Q1948.26 209.365 1950.35 209.365 Q1955.97 209.365 1958.75 212.282 Q1961.53 215.198 1961.53 221.124 Z" fill="#000000" fill-rule="nonzero" fill-opacity="1" /><path clip-path="url(#clip190)" d="M1985.32 213.971 Q1984.61 213.555 1983.75 213.37 Q1982.92 213.161 1981.9 213.161 Q1978.29 213.161 1976.34 215.522 Q1974.42 217.86 1974.42 222.258 L1974.42 235.916 L1970.14 235.916 L1970.14 209.99 L1974.42 209.99 L1974.42 214.018 Q1975.76 211.657 1977.92 210.522 Q1980.07 209.365 1983.15 209.365 Q1983.59 209.365 1984.12 209.434 Q1984.65 209.481 1985.3 209.596 L1985.32 213.971 Z" fill="#000000" fill-rule="nonzero" fill-opacity="1" /><path clip-path="url(#clip190)" d="M2007.41 210.985 L2007.41 214.967 Q2005.6 213.971 2003.77 213.485 Q2001.97 212.976 2000.11 212.976 Q1995.97 212.976 1993.68 215.615 Q1991.39 218.231 1991.39 222.976 Q1991.39 227.721 1993.68 230.36 Q1995.97 232.976 2000.11 232.976 Q2001.97 232.976 2003.77 232.49 Q2005.6 231.981 2007.41 230.985 L2007.41 234.92 Q2005.62 235.754 2003.7 236.17 Q2001.8 236.587 1999.65 236.587 Q1993.8 236.587 1990.35 232.906 Q1986.9 229.226 1986.9 222.976 Q1986.9 216.633 1990.37 212.999 Q1993.86 209.365 1999.93 209.365 Q2001.9 209.365 2003.77 209.782 Q2005.65 210.175 2007.41 210.985 Z" fill="#000000" fill-rule="nonzero" fill-opacity="1" /><path clip-path="url(#clip190)" d="M2024.86 212.976 Q2021.43 212.976 2019.44 215.661 Q2017.45 218.323 2017.45 222.976 Q2017.45 227.629 2019.42 230.314 Q2021.41 232.976 2024.86 232.976 Q2028.26 232.976 2030.25 230.291 Q2032.24 227.606 2032.24 222.976 Q2032.24 218.37 2030.25 215.684 Q2028.26 212.976 2024.86 212.976 M2024.86 209.365 Q2030.42 209.365 2033.59 212.976 Q2036.76 216.587 2036.76 222.976 Q2036.76 229.342 2033.59 232.976 Q2030.42 236.587 2024.86 236.587 Q2019.28 236.587 2016.11 232.976 Q2012.96 229.342 2012.96 222.976 Q2012.96 216.587 2016.11 212.976 Q2019.28 209.365 2024.86 209.365 Z" fill="#000000" fill-rule="nonzero" fill-opacity="1" /><path clip-path="url(#clip190)" d="M2064 214.967 Q2065.6 212.096 2067.82 210.731 Q2070.04 209.365 2073.05 209.365 Q2077.1 209.365 2079.3 212.212 Q2081.5 215.036 2081.5 220.268 L2081.5 235.916 L2077.22 235.916 L2077.22 220.407 Q2077.22 216.68 2075.9 214.874 Q2074.58 213.069 2071.87 213.069 Q2068.56 213.069 2066.64 215.268 Q2064.72 217.467 2064.72 221.263 L2064.72 235.916 L2060.44 235.916 L2060.44 220.407 Q2060.44 216.657 2059.12 214.874 Q2057.8 213.069 2055.04 213.069 Q2051.78 213.069 2049.86 215.291 Q2047.94 217.49 2047.94 221.263 L2047.94 235.916 L2043.66 235.916 L2043.66 209.99 L2047.94 209.99 L2047.94 214.018 Q2049.4 211.633 2051.43 210.499 Q2053.47 209.365 2056.27 209.365 Q2059.1 209.365 2061.06 210.8 Q2063.05 212.235 2064 214.967 Z" fill="#000000" fill-rule="nonzero" fill-opacity="1" /><path clip-path="url(#clip190)" d="M2112.17 221.888 L2112.17 223.971 L2092.59 223.971 Q2092.87 228.369 2095.23 230.684 Q2097.61 232.976 2101.85 232.976 Q2104.3 232.976 2106.6 232.374 Q2108.91 231.772 2111.18 230.569 L2111.18 234.596 Q2108.89 235.568 2106.48 236.078 Q2104.07 236.587 2101.6 236.587 Q2095.39 236.587 2091.76 232.976 Q2088.15 229.365 2088.15 223.207 Q2088.15 216.842 2091.57 213.115 Q2095.02 209.365 2100.85 209.365 Q2106.09 209.365 2109.12 212.745 Q2112.17 216.101 2112.17 221.888 M2107.91 220.638 Q2107.87 217.143 2105.95 215.059 Q2104.05 212.976 2100.9 212.976 Q2097.34 212.976 2095.18 214.99 Q2093.05 217.004 2092.73 220.661 L2107.91 220.638 Z" fill="#000000" fill-rule="nonzero" fill-opacity="1" /><path clip-path="url(#clip190)" d="M2134.19 213.971 Q2133.47 213.555 2132.61 213.37 Q2131.78 213.161 2130.76 213.161 Q2127.15 213.161 2125.21 215.522 Q2123.29 217.86 2123.29 222.258 L2123.29 235.916 L2119 235.916 L2119 209.99 L2123.29 209.99 L2123.29 214.018 Q2124.63 211.657 2126.78 210.522 Q2128.93 209.365 2132.01 209.365 Q2132.45 209.365 2132.98 209.434 Q2133.52 209.481 2134.16 209.596 L2134.19 213.971 Z" fill="#000000" fill-rule="nonzero" fill-opacity="1" /><path clip-path="url(#clip190)" d="M2159.79 221.888 L2159.79 223.971 L2140.21 223.971 Q2140.48 228.369 2142.85 230.684 Q2145.23 232.976 2149.47 232.976 Q2151.92 232.976 2154.21 232.374 Q2156.53 231.772 2158.79 230.569 L2158.79 234.596 Q2156.5 235.568 2154.1 236.078 Q2151.69 236.587 2149.21 236.587 Q2143.01 236.587 2139.37 232.976 Q2135.76 229.365 2135.76 223.207 Q2135.76 216.842 2139.19 213.115 Q2142.64 209.365 2148.47 209.365 Q2153.7 209.365 2156.73 212.745 Q2159.79 216.101 2159.79 221.888 M2155.53 220.638 Q2155.48 217.143 2153.56 215.059 Q2151.66 212.976 2148.52 212.976 Q2144.95 212.976 2142.8 214.99 Q2140.67 217.004 2140.35 220.661 L2155.53 220.638 Z" fill="#000000" fill-rule="nonzero" fill-opacity="1" /><polyline clip-path="url(#clip190)" style="stroke:#e26f46; stroke-linecap:round; stroke-linejoin:round; stroke-width:8; stroke-opacity:1; fill:none" points="1746.07,270.476 1886.42,270.476 "/>
<path clip-path="url(#clip190)" d="M1937.68 255.858 L1937.68 260.788 Q1935.32 258.589 1932.64 257.501 Q1929.98 256.413 1926.97 256.413 Q1921.04 256.413 1917.89 260.048 Q1914.74 263.659 1914.74 270.51 Q1914.74 277.339 1917.89 280.973 Q1921.04 284.584 1926.97 284.584 Q1929.98 284.584 1932.64 283.496 Q1935.32 282.409 1937.68 280.209 L1937.68 285.094 Q1935.23 286.76 1932.48 287.594 Q1929.74 288.427 1926.69 288.427 Q1918.84 288.427 1914.33 283.635 Q1909.81 278.821 1909.81 270.51 Q1909.81 262.177 1914.33 257.386 Q1918.84 252.571 1926.69 252.571 Q1929.79 252.571 1932.52 253.404 Q1935.28 254.214 1937.68 255.858 Z" fill="#000000" fill-rule="nonzero" fill-opacity="1" /><path clip-path="url(#clip190)" d="M1955.51 290.163 Q1953.7 294.793 1951.99 296.205 Q1950.28 297.617 1947.41 297.617 L1944 297.617 L1944 294.052 L1946.5 294.052 Q1948.26 294.052 1949.24 293.219 Q1950.21 292.385 1951.39 289.283 L1952.15 287.339 L1941.67 261.83 L1946.18 261.83 L1954.28 282.108 L1962.38 261.83 L1966.9 261.83 L1955.51 290.163 Z" fill="#000000" fill-rule="nonzero" fill-opacity="1" /><path clip-path="url(#clip190)" d="M1976.99 254.469 L1976.99 261.83 L1985.76 261.83 L1985.76 265.14 L1976.99 265.14 L1976.99 279.214 Q1976.99 282.385 1977.85 283.288 Q1978.73 284.191 1981.39 284.191 L1985.76 284.191 L1985.76 287.756 L1981.39 287.756 Q1976.46 287.756 1974.58 285.927 Q1972.71 284.075 1972.71 279.214 L1972.71 265.14 L1969.58 265.14 L1969.58 261.83 L1972.71 261.83 L1972.71 254.469 L1976.99 254.469 Z" fill="#000000" fill-rule="nonzero" fill-opacity="1" /><path clip-path="url(#clip190)" d="M2001.41 264.816 Q1997.98 264.816 1995.99 267.501 Q1994 270.163 1994 274.816 Q1994 279.469 1995.97 282.154 Q1997.96 284.816 2001.41 284.816 Q2004.81 284.816 2006.8 282.131 Q2008.79 279.446 2008.79 274.816 Q2008.79 270.21 2006.8 267.524 Q2004.81 264.816 2001.41 264.816 M2001.41 261.205 Q2006.97 261.205 2010.14 264.816 Q2013.31 268.427 2013.31 274.816 Q2013.31 281.182 2010.14 284.816 Q2006.97 288.427 2001.41 288.427 Q1995.83 288.427 1992.66 284.816 Q1989.51 281.182 1989.51 274.816 Q1989.51 268.427 1992.66 264.816 Q1995.83 261.205 2001.41 261.205 Z" fill="#000000" fill-rule="nonzero" fill-opacity="1" /><path clip-path="url(#clip190)" d="M2036.9 262.594 L2036.9 266.622 Q2035.09 265.696 2033.15 265.233 Q2031.2 264.77 2029.12 264.77 Q2025.95 264.77 2024.35 265.742 Q2022.78 266.714 2022.78 268.659 Q2022.78 270.14 2023.91 270.997 Q2025.04 271.83 2028.47 272.594 L2029.93 272.918 Q2034.47 273.89 2036.36 275.672 Q2038.29 277.432 2038.29 280.603 Q2038.29 284.214 2035.42 286.321 Q2032.57 288.427 2027.57 288.427 Q2025.48 288.427 2023.22 288.01 Q2020.97 287.617 2018.47 286.807 L2018.47 282.409 Q2020.83 283.635 2023.12 284.26 Q2025.42 284.862 2027.66 284.862 Q2030.67 284.862 2032.29 283.844 Q2033.91 282.802 2033.91 280.927 Q2033.91 279.191 2032.73 278.265 Q2031.57 277.339 2027.61 276.483 L2026.13 276.135 Q2022.17 275.302 2020.42 273.589 Q2018.66 271.853 2018.66 268.844 Q2018.66 265.186 2021.25 263.196 Q2023.84 261.205 2028.61 261.205 Q2030.97 261.205 2033.05 261.552 Q2035.14 261.899 2036.9 262.594 Z" fill="#000000" fill-rule="nonzero" fill-opacity="1" /><path clip-path="url(#clip190)" d="M2055.11 264.816 Q2051.69 264.816 2049.7 267.501 Q2047.71 270.163 2047.71 274.816 Q2047.71 279.469 2049.67 282.154 Q2051.67 284.816 2055.11 284.816 Q2058.52 284.816 2060.51 282.131 Q2062.5 279.446 2062.5 274.816 Q2062.5 270.21 2060.51 267.524 Q2058.52 264.816 2055.11 264.816 M2055.11 261.205 Q2060.67 261.205 2063.84 264.816 Q2067.01 268.427 2067.01 274.816 Q2067.01 281.182 2063.84 284.816 Q2060.67 288.427 2055.11 288.427 Q2049.54 288.427 2046.36 284.816 Q2043.22 281.182 2043.22 274.816 Q2043.22 268.427 2046.36 264.816 Q2049.54 261.205 2055.11 261.205 Z" fill="#000000" fill-rule="nonzero" fill-opacity="1" /><path clip-path="url(#clip190)" d="M2074.07 251.737 L2078.33 251.737 L2078.33 287.756 L2074.07 287.756 L2074.07 251.737 Z" fill="#000000" fill-rule="nonzero" fill-opacity="1" /><polyline clip-path="url(#clip190)" style="stroke:#3da44d; stroke-linecap:round; stroke-linejoin:round; stroke-width:8; stroke-opacity:1; fill:none" points="1746.07,322.316 1886.42,322.316 "/>
<path clip-path="url(#clip190)" d="M1914.49 323.091 L1914.49 335.753 L1921.99 335.753 Q1925.76 335.753 1927.57 334.202 Q1929.4 332.628 1929.4 329.411 Q1929.4 326.17 1927.57 324.642 Q1925.76 323.091 1921.99 323.091 L1914.49 323.091 M1914.49 308.878 L1914.49 319.295 L1921.41 319.295 Q1924.84 319.295 1926.5 318.022 Q1928.19 316.725 1928.19 314.087 Q1928.19 311.471 1926.5 310.175 Q1924.84 308.878 1921.41 308.878 L1914.49 308.878 M1909.81 305.036 L1921.76 305.036 Q1927.11 305.036 1930 307.258 Q1932.89 309.48 1932.89 313.577 Q1932.89 316.749 1931.41 318.624 Q1929.93 320.499 1927.06 320.962 Q1930.51 321.702 1932.41 324.063 Q1934.33 326.401 1934.33 329.92 Q1934.33 334.549 1931.18 337.073 Q1928.03 339.596 1922.22 339.596 L1909.81 339.596 L1909.81 305.036 Z" fill="#000000" fill-rule="nonzero" fill-opacity="1" /><path clip-path="url(#clip190)" d="M1942.15 303.577 L1946.41 303.577 L1946.41 339.596 L1942.15 339.596 L1942.15 303.577 Z" fill="#000000" fill-rule="nonzero" fill-opacity="1" /><path clip-path="url(#clip190)" d="M1965.37 316.656 Q1961.94 316.656 1959.95 319.341 Q1957.96 322.003 1957.96 326.656 Q1957.96 331.309 1959.93 333.994 Q1961.92 336.656 1965.37 336.656 Q1968.77 336.656 1970.76 333.971 Q1972.75 331.286 1972.75 326.656 Q1972.75 322.05 1970.76 319.364 Q1968.77 316.656 1965.37 316.656 M1965.37 313.045 Q1970.92 313.045 1974.1 316.656 Q1977.27 320.267 1977.27 326.656 Q1977.27 333.022 1974.1 336.656 Q1970.92 340.267 1965.37 340.267 Q1959.79 340.267 1956.62 336.656 Q1953.47 333.022 1953.47 326.656 Q1953.47 320.267 1956.62 316.656 Q1959.79 313.045 1965.37 313.045 Z" fill="#000000" fill-rule="nonzero" fill-opacity="1" /><path clip-path="url(#clip190)" d="M1994.37 316.656 Q1990.95 316.656 1988.96 319.341 Q1986.97 322.003 1986.97 326.656 Q1986.97 331.309 1988.93 333.994 Q1990.92 336.656 1994.37 336.656 Q1997.78 336.656 1999.77 333.971 Q2001.76 331.286 2001.76 326.656 Q2001.76 322.05 1999.77 319.364 Q1997.78 316.656 1994.37 316.656 M1994.37 313.045 Q1999.93 313.045 2003.1 316.656 Q2006.27 320.267 2006.27 326.656 Q2006.27 333.022 2003.1 336.656 Q1999.93 340.267 1994.37 340.267 Q1988.8 340.267 1985.62 336.656 Q1982.48 333.022 1982.48 326.656 Q1982.48 320.267 1985.62 316.656 Q1988.8 313.045 1994.37 313.045 Z" fill="#000000" fill-rule="nonzero" fill-opacity="1" /><path clip-path="url(#clip190)" d="M2030.39 317.605 L2030.39 303.577 L2034.65 303.577 L2034.65 339.596 L2030.39 339.596 L2030.39 335.707 Q2029.05 338.022 2026.99 339.156 Q2024.95 340.267 2022.08 340.267 Q2017.38 340.267 2014.42 336.517 Q2011.48 332.767 2011.48 326.656 Q2011.48 320.545 2014.42 316.795 Q2017.38 313.045 2022.08 313.045 Q2024.95 313.045 2026.99 314.179 Q2029.05 315.29 2030.39 317.605 M2015.88 326.656 Q2015.88 331.355 2017.8 334.04 Q2019.74 336.702 2023.12 336.702 Q2026.5 336.702 2028.45 334.04 Q2030.39 331.355 2030.39 326.656 Q2030.39 321.957 2028.45 319.295 Q2026.5 316.61 2023.12 316.61 Q2019.74 316.61 2017.8 319.295 Q2015.88 321.957 2015.88 326.656 Z" fill="#000000" fill-rule="nonzero" fill-opacity="1" /><circle clip-path="url(#clip190)" cx="1816.25" cy="374.156" r="20.9455" fill="#c271d2" fill-rule="evenodd" fill-opacity="1" stroke="#000000" stroke-opacity="1" stroke-width="3.72364"/>
<path clip-path="url(#clip190)" d="M1925.83 360.047 Q1920.74 360.047 1917.73 363.843 Q1914.74 367.64 1914.74 374.19 Q1914.74 380.718 1917.73 384.514 Q1920.74 388.311 1925.83 388.311 Q1930.93 388.311 1933.89 384.514 Q1936.87 380.718 1936.87 374.19 Q1936.87 367.64 1933.89 363.843 Q1930.93 360.047 1925.83 360.047 M1925.83 356.251 Q1933.1 356.251 1937.45 361.135 Q1941.8 365.996 1941.8 374.19 Q1941.8 382.362 1937.45 387.246 Q1933.1 392.107 1925.83 392.107 Q1918.54 392.107 1914.17 387.246 Q1909.81 382.385 1909.81 374.19 Q1909.81 365.996 1914.17 361.135 Q1918.54 356.251 1925.83 356.251 Z" fill="#000000" fill-rule="nonzero" fill-opacity="1" /><path clip-path="url(#clip190)" d="M1967.55 378.496 Q1967.55 373.797 1965.6 371.135 Q1963.68 368.45 1960.3 368.45 Q1956.92 368.45 1954.98 371.135 Q1953.05 373.797 1953.05 378.496 Q1953.05 383.195 1954.98 385.88 Q1956.92 388.542 1960.3 388.542 Q1963.68 388.542 1965.6 385.88 Q1967.55 383.195 1967.55 378.496 M1953.05 369.445 Q1954.4 367.13 1956.43 366.019 Q1958.49 364.885 1961.34 364.885 Q1966.06 364.885 1969 368.635 Q1971.97 372.385 1971.97 378.496 Q1971.97 384.607 1969 388.357 Q1966.06 392.107 1961.34 392.107 Q1958.49 392.107 1956.43 390.996 Q1954.4 389.862 1953.05 387.547 L1953.05 391.436 L1948.77 391.436 L1948.77 355.417 L1953.05 355.417 L1953.05 369.445 Z" fill="#000000" fill-rule="nonzero" fill-opacity="1" /><path clip-path="url(#clip190)" d="M1995.55 366.274 L1995.55 370.302 Q1993.75 369.376 1991.8 368.913 Q1989.86 368.45 1987.78 368.45 Q1984.61 368.45 1983.01 369.422 Q1981.43 370.394 1981.43 372.339 Q1981.43 373.82 1982.57 374.677 Q1983.7 375.51 1987.13 376.274 L1988.59 376.598 Q1993.12 377.57 1995.02 379.352 Q1996.94 381.112 1996.94 384.283 Q1996.94 387.894 1994.07 390.001 Q1991.23 392.107 1986.23 392.107 Q1984.14 392.107 1981.87 391.69 Q1979.63 391.297 1977.13 390.487 L1977.13 386.089 Q1979.49 387.315 1981.78 387.94 Q1984.07 388.542 1986.32 388.542 Q1989.33 388.542 1990.95 387.524 Q1992.57 386.482 1992.57 384.607 Q1992.57 382.871 1991.39 381.945 Q1990.23 381.019 1986.27 380.163 L1984.79 379.815 Q1980.83 378.982 1979.07 377.269 Q1977.31 375.533 1977.31 372.524 Q1977.31 368.866 1979.91 366.876 Q1982.5 364.885 1987.27 364.885 Q1989.63 364.885 1991.71 365.232 Q1993.8 365.579 1995.55 366.274 Z" fill="#000000" fill-rule="nonzero" fill-opacity="1" /><path clip-path="url(#clip190)" d="M2025.9 377.408 L2025.9 379.491 L2006.32 379.491 Q2006.6 383.889 2008.96 386.204 Q2011.34 388.496 2015.58 388.496 Q2018.03 388.496 2020.32 387.894 Q2022.64 387.292 2024.91 386.089 L2024.91 390.116 Q2022.61 391.088 2020.21 391.598 Q2017.8 392.107 2015.32 392.107 Q2009.12 392.107 2005.48 388.496 Q2001.87 384.885 2001.87 378.727 Q2001.87 372.362 2005.3 368.635 Q2008.75 364.885 2014.58 364.885 Q2019.81 364.885 2022.85 368.265 Q2025.9 371.621 2025.9 377.408 M2021.64 376.158 Q2021.6 372.663 2019.67 370.579 Q2017.78 368.496 2014.63 368.496 Q2011.06 368.496 2008.91 370.51 Q2006.78 372.524 2006.46 376.181 L2021.64 376.158 Z" fill="#000000" fill-rule="nonzero" fill-opacity="1" /><path clip-path="url(#clip190)" d="M2047.92 369.491 Q2047.2 369.075 2046.34 368.89 Q2045.51 368.681 2044.49 368.681 Q2040.88 368.681 2038.93 371.042 Q2037.01 373.38 2037.01 377.778 L2037.01 391.436 L2032.73 391.436 L2032.73 365.51 L2037.01 365.51 L2037.01 369.538 Q2038.35 367.177 2040.51 366.042 Q2042.66 364.885 2045.74 364.885 Q2046.18 364.885 2046.71 364.954 Q2047.24 365.001 2047.89 365.116 L2047.92 369.491 Z" fill="#000000" fill-rule="nonzero" fill-opacity="1" /><path clip-path="url(#clip190)" d="M2049.33 365.51 L2053.84 365.51 L2061.94 387.269 L2070.04 365.51 L2074.56 365.51 L2064.84 391.436 L2059.05 391.436 L2049.33 365.51 Z" fill="#000000" fill-rule="nonzero" fill-opacity="1" /><path clip-path="url(#clip190)" d="M2102.61 377.408 L2102.61 379.491 L2083.03 379.491 Q2083.31 383.889 2085.67 386.204 Q2088.05 388.496 2092.29 388.496 Q2094.74 388.496 2097.04 387.894 Q2099.35 387.292 2101.62 386.089 L2101.62 390.116 Q2099.33 391.088 2096.92 391.598 Q2094.51 392.107 2092.04 392.107 Q2085.83 392.107 2082.2 388.496 Q2078.59 384.885 2078.59 378.727 Q2078.59 372.362 2082.01 368.635 Q2085.46 364.885 2091.29 364.885 Q2096.53 364.885 2099.56 368.265 Q2102.61 371.621 2102.61 377.408 M2098.35 376.158 Q2098.31 372.663 2096.39 370.579 Q2094.49 368.496 2091.34 368.496 Q2087.78 368.496 2085.62 370.51 Q2083.49 372.524 2083.17 376.181 L2098.35 376.158 Z" fill="#000000" fill-rule="nonzero" fill-opacity="1" /><path clip-path="url(#clip190)" d="M2126.66 369.445 L2126.66 355.417 L2130.92 355.417 L2130.92 391.436 L2126.66 391.436 L2126.66 387.547 Q2125.32 389.862 2123.26 390.996 Q2121.22 392.107 2118.35 392.107 Q2113.66 392.107 2110.69 388.357 Q2107.75 384.607 2107.75 378.496 Q2107.75 372.385 2110.69 368.635 Q2113.66 364.885 2118.35 364.885 Q2121.22 364.885 2123.26 366.019 Q2125.32 367.13 2126.66 369.445 M2112.15 378.496 Q2112.15 383.195 2114.07 385.88 Q2116.02 388.542 2119.4 388.542 Q2122.78 388.542 2124.72 385.88 Q2126.66 383.195 2126.66 378.496 Q2126.66 373.797 2124.72 371.135 Q2122.78 368.45 2119.4 368.45 Q2116.02 368.45 2114.07 371.135 Q2112.15 373.797 2112.15 378.496 Z" fill="#000000" fill-rule="nonzero" fill-opacity="1" /><path clip-path="url(#clip190)" d="M2159.63 360.718 L2159.63 387.593 L2165.28 387.593 Q2172.43 387.593 2175.74 384.352 Q2179.07 381.112 2179.07 374.121 Q2179.07 367.177 2175.74 363.959 Q2172.43 360.718 2165.28 360.718 L2159.63 360.718 M2154.95 356.876 L2164.56 356.876 Q2174.6 356.876 2179.3 361.066 Q2184 365.232 2184 374.121 Q2184 383.056 2179.28 387.246 Q2174.56 391.436 2164.56 391.436 L2154.95 391.436 L2154.95 356.876 Z" fill="#000000" fill-rule="nonzero" fill-opacity="1" /><path clip-path="url(#clip190)" d="M2203.05 378.403 Q2197.89 378.403 2195.9 379.584 Q2193.91 380.764 2193.91 383.612 Q2193.91 385.88 2195.39 387.223 Q2196.9 388.542 2199.47 388.542 Q2203.01 388.542 2205.14 386.042 Q2207.29 383.519 2207.29 379.352 L2207.29 378.403 L2203.05 378.403 M2211.55 376.644 L2211.55 391.436 L2207.29 391.436 L2207.29 387.501 Q2205.83 389.862 2203.66 390.996 Q2201.48 392.107 2198.33 392.107 Q2194.35 392.107 2191.99 389.885 Q2189.65 387.639 2189.65 383.889 Q2189.65 379.514 2192.57 377.292 Q2195.51 375.07 2201.32 375.07 L2207.29 375.07 L2207.29 374.653 Q2207.29 371.714 2205.34 370.116 Q2203.42 368.496 2199.93 368.496 Q2197.71 368.496 2195.6 369.028 Q2193.49 369.561 2191.55 370.626 L2191.55 366.69 Q2193.89 365.788 2196.09 365.348 Q2198.28 364.885 2200.37 364.885 Q2205.99 364.885 2208.77 367.802 Q2211.55 370.718 2211.55 376.644 Z" fill="#000000" fill-rule="nonzero" fill-opacity="1" /><path clip-path="url(#clip190)" d="M2224.53 358.149 L2224.53 365.51 L2233.31 365.51 L2233.31 368.82 L2224.53 368.82 L2224.53 382.894 Q2224.53 386.065 2225.39 386.968 Q2226.27 387.871 2228.93 387.871 L2233.31 387.871 L2233.31 391.436 L2228.93 391.436 Q2224 391.436 2222.13 389.607 Q2220.25 387.755 2220.25 382.894 L2220.25 368.82 L2217.13 368.82 L2217.13 365.51 L2220.25 365.51 L2220.25 358.149 L2224.53 358.149 Z" fill="#000000" fill-rule="nonzero" fill-opacity="1" /><path clip-path="url(#clip190)" d="M2250.69 378.403 Q2245.53 378.403 2243.54 379.584 Q2241.55 380.764 2241.55 383.612 Q2241.55 385.88 2243.03 387.223 Q2244.53 388.542 2247.1 388.542 Q2250.65 388.542 2252.78 386.042 Q2254.93 383.519 2254.93 379.352 L2254.93 378.403 L2250.69 378.403 M2259.19 376.644 L2259.19 391.436 L2254.93 391.436 L2254.93 387.501 Q2253.47 389.862 2251.29 390.996 Q2249.12 392.107 2245.97 392.107 Q2241.99 392.107 2239.63 389.885 Q2237.29 387.639 2237.29 383.889 Q2237.29 379.514 2240.21 377.292 Q2243.15 375.07 2248.96 375.07 L2254.93 375.07 L2254.93 374.653 Q2254.93 371.714 2252.98 370.116 Q2251.06 368.496 2247.57 368.496 Q2245.34 368.496 2243.24 369.028 Q2241.13 369.561 2239.19 370.626 L2239.19 366.69 Q2241.53 365.788 2243.72 365.348 Q2245.92 364.885 2248.01 364.885 Q2253.63 364.885 2256.41 367.802 Q2259.19 370.718 2259.19 376.644 Z" fill="#000000" fill-rule="nonzero" fill-opacity="1" /></svg>
