<?xml version="1.0" encoding="utf-8"?>
<svg xmlns="http://www.w3.org/2000/svg" xmlns:xlink="http://www.w3.org/1999/xlink" width="600" height="400" viewBox="0 0 2400 1600">
<defs>
  <clipPath id="clip510">
    <rect x="0" y="0" width="2400" height="1600"/>
  </clipPath>
</defs>
<path clip-path="url(#clip510)" d="M0 1600 L2400 1600 L2400 0 L0 0  Z" fill="#ffffff" fill-rule="evenodd" fill-opacity="1"/>
<defs>
  <clipPath id="clip511">
    <rect x="250" y="123" width="2104" height="1301"/>
  </clipPath>
</defs>
<path clip-path="url(#clip510)" d="M219.866 1423.18 L2352.76 1423.18 L2352.76 123.472 L219.866 123.472  Z" fill="#ffffff" fill-rule="evenodd" fill-opacity="1"/>
<defs>
  <clipPath id="clip512">
    <rect x="219" y="123" width="2134" height="1301"/>
  </clipPath>
</defs>
<polyline clip-path="url(#clip512)" style="stroke:#000000; stroke-linecap:round; stroke-linejoin:round; stroke-width:2; stroke-opacity:0.1; fill:none" points="269.751,1423.18 269.751,123.472 "/>
<polyline clip-path="url(#clip512)" style="stroke:#000000; stroke-linecap:round; stroke-linejoin:round; stroke-width:2; stroke-opacity:0.1; fill:none" points="793.751,1423.18 793.751,123.472 "/>
<polyline clip-path="url(#clip512)" style="stroke:#000000; stroke-linecap:round; stroke-linejoin:round; stroke-width:2; stroke-opacity:0.1; fill:none" points="1317.75,1423.18 1317.75,123.472 "/>
<polyline clip-path="url(#clip512)" style="stroke:#000000; stroke-linecap:round; stroke-linejoin:round; stroke-width:2; stroke-opacity:0.1; fill:none" points="1841.75,1423.18 1841.75,123.472 "/>
<polyline clip-path="url(#clip512)" style="stroke:#000000; stroke-linecap:round; stroke-linejoin:round; stroke-width:2; stroke-opacity:0.1; fill:none" points="219.866,1386.4 2352.76,1386.4 "/>
<polyline clip-path="url(#clip512)" style="stroke:#000000; stroke-linecap:round; stroke-linejoin:round; stroke-width:2; stroke-opacity:0.1; fill:none" points="219.866,1177.16 2352.76,1177.16 "/>
<polyline clip-path="url(#clip512)" style="stroke:#000000; stroke-linecap:round; stroke-linejoin:round; stroke-width:2; stroke-opacity:0.1; fill:none" points="219.866,967.922 2352.76,967.922 "/>
<polyline clip-path="url(#clip512)" style="stroke:#000000; stroke-linecap:round; stroke-linejoin:round; stroke-width:2; stroke-opacity:0.1; fill:none" points="219.866,758.686 2352.76,758.686 "/>
<polyline clip-path="url(#clip512)" style="stroke:#000000; stroke-linecap:round; stroke-linejoin:round; stroke-width:2; stroke-opacity:0.1; fill:none" points="219.866,549.449 2352.76,549.449 "/>
<polyline clip-path="url(#clip512)" style="stroke:#000000; stroke-linecap:round; stroke-linejoin:round; stroke-width:2; stroke-opacity:0.1; fill:none" points="219.866,340.213 2352.76,340.213 "/>
<polyline clip-path="url(#clip512)" style="stroke:#000000; stroke-linecap:round; stroke-linejoin:round; stroke-width:2; stroke-opacity:0.1; fill:none" points="219.866,130.976 2352.76,130.976 "/>
<polyline clip-path="url(#clip510)" style="stroke:#000000; stroke-linecap:round; stroke-linejoin:round; stroke-width:4; stroke-opacity:1; fill:none" points="219.866,1423.18 2352.76,1423.18 "/>
<polyline clip-path="url(#clip510)" style="stroke:#000000; stroke-linecap:round; stroke-linejoin:round; stroke-width:4; stroke-opacity:1; fill:none" points="269.751,1423.18 269.751,1404.28 "/>
<polyline clip-path="url(#clip510)" style="stroke:#000000; stroke-linecap:round; stroke-linejoin:round; stroke-width:4; stroke-opacity:1; fill:none" points="793.751,1423.18 793.751,1404.28 "/>
<polyline clip-path="url(#clip510)" style="stroke:#000000; stroke-linecap:round; stroke-linejoin:round; stroke-width:4; stroke-opacity:1; fill:none" points="1317.75,1423.18 1317.75,1404.28 "/>
<polyline clip-path="url(#clip510)" style="stroke:#000000; stroke-linecap:round; stroke-linejoin:round; stroke-width:4; stroke-opacity:1; fill:none" points="1841.75,1423.18 1841.75,1404.28 "/>
<path clip-path="url(#clip510)" d="M269.751 1454.1 Q266.14 1454.1 264.311 1457.66 Q262.506 1461.2 262.506 1468.33 Q262.506 1475.44 264.311 1479.01 Q266.14 1482.55 269.751 1482.55 Q273.385 1482.55 275.191 1479.01 Q277.02 1475.44 277.02 1468.33 Q277.02 1461.2 275.191 1457.66 Q273.385 1454.1 269.751 1454.1 M269.751 1450.39 Q275.561 1450.39 278.617 1455 Q281.695 1459.58 281.695 1468.33 Q281.695 1477.06 278.617 1481.67 Q275.561 1486.25 269.751 1486.25 Q263.941 1486.25 260.862 1481.67 Q257.807 1477.06 257.807 1468.33 Q257.807 1459.58 260.862 1455 Q263.941 1450.39 269.751 1450.39 Z" fill="#000000" fill-rule="nonzero" fill-opacity="1" /><path clip-path="url(#clip510)" d="M768.45 1451.02 L786.807 1451.02 L786.807 1454.96 L772.733 1454.96 L772.733 1463.43 Q773.751 1463.08 774.77 1462.92 Q775.788 1462.73 776.807 1462.73 Q782.594 1462.73 785.973 1465.9 Q789.353 1469.08 789.353 1474.49 Q789.353 1480.07 785.881 1483.17 Q782.409 1486.25 776.089 1486.25 Q773.913 1486.25 771.645 1485.88 Q769.399 1485.51 766.992 1484.77 L766.992 1480.07 Q769.075 1481.2 771.297 1481.76 Q773.52 1482.32 775.997 1482.32 Q780.001 1482.32 782.339 1480.21 Q784.677 1478.1 784.677 1474.49 Q784.677 1470.88 782.339 1468.77 Q780.001 1466.67 775.997 1466.67 Q774.122 1466.67 772.247 1467.08 Q770.395 1467.5 768.45 1468.38 L768.45 1451.02 Z" fill="#000000" fill-rule="nonzero" fill-opacity="1" /><path clip-path="url(#clip510)" d="M808.566 1454.1 Q804.955 1454.1 803.126 1457.66 Q801.32 1461.2 801.32 1468.33 Q801.32 1475.44 803.126 1479.01 Q804.955 1482.55 808.566 1482.55 Q812.2 1482.55 814.006 1479.01 Q815.834 1475.44 815.834 1468.33 Q815.834 1461.2 814.006 1457.66 Q812.2 1454.1 808.566 1454.1 M808.566 1450.39 Q814.376 1450.39 817.432 1455 Q820.51 1459.58 820.51 1468.33 Q820.51 1477.06 817.432 1481.67 Q814.376 1486.25 808.566 1486.25 Q802.756 1486.25 799.677 1481.67 Q796.621 1477.06 796.621 1468.33 Q796.621 1459.58 799.677 1455 Q802.756 1450.39 808.566 1450.39 Z" fill="#000000" fill-rule="nonzero" fill-opacity="1" /><path clip-path="url(#clip510)" d="M1277.36 1481.64 L1285 1481.64 L1285 1455.28 L1276.69 1456.95 L1276.69 1452.69 L1284.95 1451.02 L1289.63 1451.02 L1289.63 1481.64 L1297.27 1481.64 L1297.27 1485.58 L1277.36 1485.58 L1277.36 1481.64 Z" fill="#000000" fill-rule="nonzero" fill-opacity="1" /><path clip-path="url(#clip510)" d="M1316.71 1454.1 Q1313.1 1454.1 1311.27 1457.66 Q1309.46 1461.2 1309.46 1468.33 Q1309.46 1475.44 1311.27 1479.01 Q1313.1 1482.55 1316.71 1482.55 Q1320.34 1482.55 1322.15 1479.01 Q1323.98 1475.44 1323.98 1468.33 Q1323.98 1461.2 1322.15 1457.66 Q1320.34 1454.1 1316.71 1454.1 M1316.71 1450.39 Q1322.52 1450.39 1325.58 1455 Q1328.65 1459.58 1328.65 1468.33 Q1328.65 1477.06 1325.58 1481.67 Q1322.52 1486.25 1316.71 1486.25 Q1310.9 1486.25 1307.82 1481.67 Q1304.77 1477.06 1304.77 1468.33 Q1304.77 1459.58 1307.82 1455 Q1310.9 1450.39 1316.71 1450.39 Z" fill="#000000" fill-rule="nonzero" fill-opacity="1" /><path clip-path="url(#clip510)" d="M1346.87 1454.1 Q1343.26 1454.1 1341.43 1457.66 Q1339.63 1461.2 1339.63 1468.33 Q1339.63 1475.44 1341.43 1479.01 Q1343.26 1482.55 1346.87 1482.55 Q1350.51 1482.55 1352.31 1479.01 Q1354.14 1475.44 1354.14 1468.33 Q1354.14 1461.2 1352.31 1457.66 Q1350.51 1454.1 1346.87 1454.1 M1346.87 1450.39 Q1352.68 1450.39 1355.74 1455 Q1358.82 1459.58 1358.82 1468.33 Q1358.82 1477.06 1355.74 1481.67 Q1352.68 1486.25 1346.87 1486.25 Q1341.06 1486.25 1337.98 1481.67 Q1334.93 1477.06 1334.93 1468.33 Q1334.93 1459.58 1337.98 1455 Q1341.06 1450.39 1346.87 1450.39 Z" fill="#000000" fill-rule="nonzero" fill-opacity="1" /><path clip-path="url(#clip510)" d="M1801.36 1481.64 L1809 1481.64 L1809 1455.28 L1800.69 1456.95 L1800.69 1452.69 L1808.95 1451.02 L1813.63 1451.02 L1813.63 1481.64 L1821.27 1481.64 L1821.27 1485.58 L1801.36 1485.58 L1801.36 1481.64 Z" fill="#000000" fill-rule="nonzero" fill-opacity="1" /><path clip-path="url(#clip510)" d="M1830.76 1451.02 L1849.11 1451.02 L1849.11 1454.96 L1835.04 1454.96 L1835.04 1463.43 Q1836.06 1463.08 1837.08 1462.92 Q1838.09 1462.73 1839.11 1462.73 Q1844.9 1462.73 1848.28 1465.9 Q1851.66 1469.08 1851.66 1474.49 Q1851.66 1480.07 1848.19 1483.17 Q1844.71 1486.25 1838.39 1486.25 Q1836.22 1486.25 1833.95 1485.88 Q1831.7 1485.51 1829.3 1484.77 L1829.3 1480.07 Q1831.38 1481.2 1833.6 1481.76 Q1835.83 1482.32 1838.3 1482.32 Q1842.31 1482.32 1844.64 1480.21 Q1846.98 1478.1 1846.98 1474.49 Q1846.98 1470.88 1844.64 1468.77 Q1842.31 1466.67 1838.3 1466.67 Q1836.43 1466.67 1834.55 1467.08 Q1832.7 1467.5 1830.76 1468.38 L1830.76 1451.02 Z" fill="#000000" fill-rule="nonzero" fill-opacity="1" /><path clip-path="url(#clip510)" d="M1870.87 1454.1 Q1867.26 1454.1 1865.43 1457.66 Q1863.63 1461.2 1863.63 1468.33 Q1863.63 1475.44 1865.43 1479.01 Q1867.26 1482.55 1870.87 1482.55 Q1874.51 1482.55 1876.31 1479.01 Q1878.14 1475.44 1878.14 1468.33 Q1878.14 1461.2 1876.31 1457.66 Q1874.51 1454.1 1870.87 1454.1 M1870.87 1450.39 Q1876.68 1450.39 1879.74 1455 Q1882.82 1459.58 1882.82 1468.33 Q1882.82 1477.06 1879.74 1481.67 Q1876.68 1486.25 1870.87 1486.25 Q1865.06 1486.25 1861.98 1481.67 Q1858.93 1477.06 1858.93 1468.33 Q1858.93 1459.58 1861.98 1455 Q1865.06 1450.39 1870.87 1450.39 Z" fill="#000000" fill-rule="nonzero" fill-opacity="1" /><path clip-path="url(#clip510)" d="M1208.19 1520.52 L1248.39 1520.52 L1248.39 1525.93 L1231.52 1525.93 L1231.52 1568.04 L1225.06 1568.04 L1225.06 1525.93 L1208.19 1525.93 L1208.19 1520.52 Z" fill="#000000" fill-rule="nonzero" fill-opacity="1" /><path clip-path="url(#clip510)" d="M1252.33 1532.4 L1258.19 1532.4 L1258.19 1568.04 L1252.33 1568.04 L1252.33 1532.4 M1252.33 1518.52 L1258.19 1518.52 L1258.19 1525.93 L1252.33 1525.93 L1252.33 1518.52 Z" fill="#000000" fill-rule="nonzero" fill-opacity="1" /><path clip-path="url(#clip510)" d="M1298.2 1539.24 Q1300.4 1535.29 1303.45 1533.41 Q1306.51 1531.54 1310.64 1531.54 Q1316.21 1531.54 1319.24 1535.45 Q1322.26 1539.33 1322.26 1546.53 L1322.26 1568.04 L1316.37 1568.04 L1316.37 1546.72 Q1316.37 1541.59 1314.56 1539.11 Q1312.74 1536.63 1309.02 1536.63 Q1304.47 1536.63 1301.83 1539.65 Q1299.19 1542.68 1299.19 1547.9 L1299.19 1568.04 L1293.3 1568.04 L1293.3 1546.72 Q1293.3 1541.56 1291.48 1539.11 Q1289.67 1536.63 1285.88 1536.63 Q1281.39 1536.63 1278.75 1539.68 Q1276.11 1542.71 1276.11 1547.9 L1276.11 1568.04 L1270.22 1568.04 L1270.22 1532.4 L1276.11 1532.4 L1276.11 1537.93 Q1278.12 1534.66 1280.92 1533.1 Q1283.72 1531.54 1287.57 1531.54 Q1291.45 1531.54 1294.16 1533.51 Q1296.89 1535.48 1298.2 1539.24 Z" fill="#000000" fill-rule="nonzero" fill-opacity="1" /><path clip-path="url(#clip510)" d="M1364.43 1548.76 L1364.43 1551.62 L1337.51 1551.62 Q1337.89 1557.67 1341.14 1560.85 Q1344.41 1564 1350.24 1564 Q1353.61 1564 1356.76 1563.17 Q1359.95 1562.35 1363.07 1560.69 L1363.07 1566.23 Q1359.91 1567.57 1356.6 1568.27 Q1353.29 1568.97 1349.89 1568.97 Q1341.36 1568.97 1336.36 1564 Q1331.4 1559.04 1331.4 1550.57 Q1331.4 1541.82 1336.11 1536.69 Q1340.85 1531.54 1348.87 1531.54 Q1356.06 1531.54 1360.23 1536.18 Q1364.43 1540.8 1364.43 1548.76 M1358.58 1547.04 Q1358.51 1542.23 1355.87 1539.37 Q1353.26 1536.5 1348.93 1536.5 Q1344.03 1536.5 1341.07 1539.27 Q1338.14 1542.04 1337.7 1547.07 L1358.58 1547.04 Z" fill="#000000" fill-rule="nonzero" fill-opacity="1" /><polyline clip-path="url(#clip510)" style="stroke:#000000; stroke-linecap:round; stroke-linejoin:round; stroke-width:4; stroke-opacity:1; fill:none" points="219.866,1423.18 219.866,123.472 "/>
<polyline clip-path="url(#clip510)" style="stroke:#000000; stroke-linecap:round; stroke-linejoin:round; stroke-width:4; stroke-opacity:1; fill:none" points="219.866,1386.4 238.764,1386.4 "/>
<polyline clip-path="url(#clip510)" style="stroke:#000000; stroke-linecap:round; stroke-linejoin:round; stroke-width:4; stroke-opacity:1; fill:none" points="219.866,1177.16 238.764,1177.16 "/>
<polyline clip-path="url(#clip510)" style="stroke:#000000; stroke-linecap:round; stroke-linejoin:round; stroke-width:4; stroke-opacity:1; fill:none" points="219.866,967.922 238.764,967.922 "/>
<polyline clip-path="url(#clip510)" style="stroke:#000000; stroke-linecap:round; stroke-linejoin:round; stroke-width:4; stroke-opacity:1; fill:none" points="219.866,758.686 238.764,758.686 "/>
<polyline clip-path="url(#clip510)" style="stroke:#000000; stroke-linecap:round; stroke-linejoin:round; stroke-width:4; stroke-opacity:1; fill:none" points="219.866,549.449 238.764,549.449 "/>
<polyline clip-path="url(#clip510)" style="stroke:#000000; stroke-linecap:round; stroke-linejoin:round; stroke-width:4; stroke-opacity:1; fill:none" points="219.866,340.213 238.764,340.213 "/>
<polyline clip-path="url(#clip510)" style="stroke:#000000; stroke-linecap:round; stroke-linejoin:round; stroke-width:4; stroke-opacity:1; fill:none" points="219.866,130.976 238.764,130.976 "/>
<path clip-path="url(#clip510)" d="M126.691 1372.19 Q123.08 1372.19 121.251 1375.76 Q119.445 1379.3 119.445 1386.43 Q119.445 1393.54 121.251 1397.1 Q123.08 1400.64 126.691 1400.64 Q130.325 1400.64 132.13 1397.1 Q133.959 1393.54 133.959 1386.43 Q133.959 1379.3 132.13 1375.76 Q130.325 1372.19 126.691 1372.19 M126.691 1368.49 Q132.501 1368.49 135.556 1373.1 Q138.635 1377.68 138.635 1386.43 Q138.635 1395.16 135.556 1399.76 Q132.501 1404.35 126.691 1404.35 Q120.88 1404.35 117.802 1399.76 Q114.746 1395.16 114.746 1386.43 Q114.746 1377.68 117.802 1373.1 Q120.88 1368.49 126.691 1368.49 Z" fill="#000000" fill-rule="nonzero" fill-opacity="1" /><path clip-path="url(#clip510)" d="M146.853 1397.8 L151.737 1397.8 L151.737 1403.68 L146.853 1403.68 L146.853 1397.8 Z" fill="#000000" fill-rule="nonzero" fill-opacity="1" /><path clip-path="url(#clip510)" d="M171.922 1372.19 Q168.311 1372.19 166.482 1375.76 Q164.677 1379.3 164.677 1386.43 Q164.677 1393.54 166.482 1397.1 Q168.311 1400.64 171.922 1400.64 Q175.556 1400.64 177.362 1397.1 Q179.19 1393.54 179.19 1386.43 Q179.19 1379.3 177.362 1375.76 Q175.556 1372.19 171.922 1372.19 M171.922 1368.49 Q177.732 1368.49 180.788 1373.1 Q183.866 1377.68 183.866 1386.43 Q183.866 1395.16 180.788 1399.76 Q177.732 1404.35 171.922 1404.35 Q166.112 1404.35 163.033 1399.76 Q159.978 1395.16 159.978 1386.43 Q159.978 1377.68 163.033 1373.1 Q166.112 1368.49 171.922 1368.49 Z" fill="#000000" fill-rule="nonzero" fill-opacity="1" /><path clip-path="url(#clip510)" d="M127.917 1162.96 Q124.306 1162.96 122.478 1166.52 Q120.672 1170.06 120.672 1177.19 Q120.672 1184.3 122.478 1187.87 Q124.306 1191.41 127.917 1191.41 Q131.552 1191.41 133.357 1187.87 Q135.186 1184.3 135.186 1177.19 Q135.186 1170.06 133.357 1166.52 Q131.552 1162.96 127.917 1162.96 M127.917 1159.25 Q133.728 1159.25 136.783 1163.86 Q139.862 1168.44 139.862 1177.19 Q139.862 1185.92 136.783 1190.53 Q133.728 1195.11 127.917 1195.11 Q122.107 1195.11 119.029 1190.53 Q115.973 1185.92 115.973 1177.19 Q115.973 1168.44 119.029 1163.86 Q122.107 1159.25 127.917 1159.25 Z" fill="#000000" fill-rule="nonzero" fill-opacity="1" /><path clip-path="url(#clip510)" d="M148.079 1188.56 L152.964 1188.56 L152.964 1194.44 L148.079 1194.44 L148.079 1188.56 Z" fill="#000000" fill-rule="nonzero" fill-opacity="1" /><path clip-path="url(#clip510)" d="M163.959 1190.5 L171.598 1190.5 L171.598 1164.14 L163.288 1165.8 L163.288 1161.55 L171.552 1159.88 L176.227 1159.88 L176.227 1190.5 L183.866 1190.5 L183.866 1194.44 L163.959 1194.44 L163.959 1190.5 Z" fill="#000000" fill-rule="nonzero" fill-opacity="1" /><path clip-path="url(#clip510)" d="M128.288 953.721 Q124.677 953.721 122.848 957.286 Q121.043 960.828 121.043 967.957 Q121.043 975.064 122.848 978.628 Q124.677 982.17 128.288 982.17 Q131.922 982.17 133.728 978.628 Q135.556 975.064 135.556 967.957 Q135.556 960.828 133.728 957.286 Q131.922 953.721 128.288 953.721 M128.288 950.017 Q134.098 950.017 137.154 954.624 Q140.232 959.207 140.232 967.957 Q140.232 976.684 137.154 981.29 Q134.098 985.874 128.288 985.874 Q122.478 985.874 119.399 981.29 Q116.343 976.684 116.343 967.957 Q116.343 959.207 119.399 954.624 Q122.478 950.017 128.288 950.017 Z" fill="#000000" fill-rule="nonzero" fill-opacity="1" /><path clip-path="url(#clip510)" d="M148.45 979.323 L153.334 979.323 L153.334 985.202 L148.45 985.202 L148.45 979.323 Z" fill="#000000" fill-rule="nonzero" fill-opacity="1" /><path clip-path="url(#clip510)" d="M167.547 981.267 L183.866 981.267 L183.866 985.202 L161.922 985.202 L161.922 981.267 Q164.584 978.513 169.167 973.883 Q173.774 969.23 174.954 967.888 Q177.2 965.365 178.079 963.629 Q178.982 961.869 178.982 960.179 Q178.982 957.425 177.038 955.689 Q175.116 953.953 172.014 953.953 Q169.815 953.953 167.362 954.717 Q164.931 955.48 162.153 957.031 L162.153 952.309 Q164.977 951.175 167.431 950.596 Q169.885 950.017 171.922 950.017 Q177.292 950.017 180.487 952.703 Q183.681 955.388 183.681 959.879 Q183.681 962.008 182.871 963.929 Q182.084 965.828 179.977 968.42 Q179.399 969.091 176.297 972.309 Q173.195 975.503 167.547 981.267 Z" fill="#000000" fill-rule="nonzero" fill-opacity="1" /><path clip-path="url(#clip510)" d="M127.339 744.485 Q123.728 744.485 121.899 748.049 Q120.093 751.591 120.093 758.721 Q120.093 765.827 121.899 769.392 Q123.728 772.934 127.339 772.934 Q130.973 772.934 132.779 769.392 Q134.607 765.827 134.607 758.721 Q134.607 751.591 132.779 748.049 Q130.973 744.485 127.339 744.485 M127.339 740.781 Q133.149 740.781 136.204 745.387 Q139.283 749.971 139.283 758.721 Q139.283 767.447 136.204 772.054 Q133.149 776.637 127.339 776.637 Q121.529 776.637 118.45 772.054 Q115.394 767.447 115.394 758.721 Q115.394 749.971 118.45 745.387 Q121.529 740.781 127.339 740.781 Z" fill="#000000" fill-rule="nonzero" fill-opacity="1" /><path clip-path="url(#clip510)" d="M147.501 770.086 L152.385 770.086 L152.385 775.966 L147.501 775.966 L147.501 770.086 Z" fill="#000000" fill-rule="nonzero" fill-opacity="1" /><path clip-path="url(#clip510)" d="M176.737 757.332 Q180.093 758.049 181.968 760.318 Q183.866 762.586 183.866 765.92 Q183.866 771.035 180.348 773.836 Q176.829 776.637 170.348 776.637 Q168.172 776.637 165.857 776.197 Q163.565 775.781 161.112 774.924 L161.112 770.41 Q163.056 771.545 165.371 772.123 Q167.686 772.702 170.209 772.702 Q174.607 772.702 176.899 770.966 Q179.214 769.23 179.214 765.92 Q179.214 762.864 177.061 761.151 Q174.931 759.415 171.112 759.415 L167.084 759.415 L167.084 755.572 L171.297 755.572 Q174.746 755.572 176.575 754.207 Q178.403 752.818 178.403 750.225 Q178.403 747.563 176.505 746.151 Q174.63 744.716 171.112 744.716 Q169.19 744.716 166.991 745.133 Q164.792 745.549 162.153 746.429 L162.153 742.262 Q164.815 741.522 167.13 741.151 Q169.468 740.781 171.528 740.781 Q176.852 740.781 179.954 743.211 Q183.056 745.619 183.056 749.739 Q183.056 752.61 181.413 754.6 Q179.769 756.568 176.737 757.332 Z" fill="#000000" fill-rule="nonzero" fill-opacity="1" /><path clip-path="url(#clip510)" d="M126.205 535.248 Q122.593 535.248 120.765 538.813 Q118.959 542.354 118.959 549.484 Q118.959 556.59 120.765 560.155 Q122.593 563.697 126.205 563.697 Q129.839 563.697 131.644 560.155 Q133.473 556.59 133.473 549.484 Q133.473 542.354 131.644 538.813 Q129.839 535.248 126.205 535.248 M126.205 531.544 Q132.015 531.544 135.07 536.151 Q138.149 540.734 138.149 549.484 Q138.149 558.211 135.07 562.817 Q132.015 567.401 126.205 567.401 Q120.394 567.401 117.316 562.817 Q114.26 558.211 114.26 549.484 Q114.26 540.734 117.316 536.151 Q120.394 531.544 126.205 531.544 Z" fill="#000000" fill-rule="nonzero" fill-opacity="1" /><path clip-path="url(#clip510)" d="M146.366 560.85 L151.251 560.85 L151.251 566.729 L146.366 566.729 L146.366 560.85 Z" fill="#000000" fill-rule="nonzero" fill-opacity="1" /><path clip-path="url(#clip510)" d="M174.283 536.243 L162.477 554.692 L174.283 554.692 L174.283 536.243 M173.056 532.169 L178.936 532.169 L178.936 554.692 L183.866 554.692 L183.866 558.581 L178.936 558.581 L178.936 566.729 L174.283 566.729 L174.283 558.581 L158.681 558.581 L158.681 554.067 L173.056 532.169 Z" fill="#000000" fill-rule="nonzero" fill-opacity="1" /><path clip-path="url(#clip510)" d="M127.686 326.011 Q124.075 326.011 122.246 329.576 Q120.441 333.118 120.441 340.247 Q120.441 347.354 122.246 350.919 Q124.075 354.46 127.686 354.46 Q131.32 354.46 133.126 350.919 Q134.954 347.354 134.954 340.247 Q134.954 333.118 133.126 329.576 Q131.32 326.011 127.686 326.011 M127.686 322.308 Q133.496 322.308 136.552 326.914 Q139.63 331.497 139.63 340.247 Q139.63 348.974 136.552 353.581 Q133.496 358.164 127.686 358.164 Q121.876 358.164 118.797 353.581 Q115.742 348.974 115.742 340.247 Q115.742 331.497 118.797 326.914 Q121.876 322.308 127.686 322.308 Z" fill="#000000" fill-rule="nonzero" fill-opacity="1" /><path clip-path="url(#clip510)" d="M147.848 351.613 L152.732 351.613 L152.732 357.493 L147.848 357.493 L147.848 351.613 Z" fill="#000000" fill-rule="nonzero" fill-opacity="1" /><path clip-path="url(#clip510)" d="M162.964 322.933 L181.32 322.933 L181.32 326.868 L167.246 326.868 L167.246 335.34 Q168.264 334.993 169.283 334.831 Q170.302 334.646 171.32 334.646 Q177.107 334.646 180.487 337.817 Q183.866 340.988 183.866 346.405 Q183.866 351.983 180.394 355.085 Q176.922 358.164 170.602 358.164 Q168.427 358.164 166.158 357.794 Q163.913 357.423 161.505 356.683 L161.505 351.983 Q163.589 353.118 165.811 353.673 Q168.033 354.229 170.51 354.229 Q174.514 354.229 176.852 352.122 Q179.19 350.016 179.19 346.405 Q179.19 342.794 176.852 340.687 Q174.514 338.581 170.51 338.581 Q168.635 338.581 166.76 338.997 Q164.908 339.414 162.964 340.294 L162.964 322.933 Z" fill="#000000" fill-rule="nonzero" fill-opacity="1" /><path clip-path="url(#clip510)" d="M126.529 116.775 Q122.918 116.775 121.089 120.34 Q119.283 123.881 119.283 131.011 Q119.283 138.117 121.089 141.682 Q122.918 145.224 126.529 145.224 Q130.163 145.224 131.968 141.682 Q133.797 138.117 133.797 131.011 Q133.797 123.881 131.968 120.34 Q130.163 116.775 126.529 116.775 M126.529 113.071 Q132.339 113.071 135.394 117.678 Q138.473 122.261 138.473 131.011 Q138.473 139.738 135.394 144.344 Q132.339 148.927 126.529 148.927 Q120.718 148.927 117.64 144.344 Q114.584 139.738 114.584 131.011 Q114.584 122.261 117.64 117.678 Q120.718 113.071 126.529 113.071 Z" fill="#000000" fill-rule="nonzero" fill-opacity="1" /><path clip-path="url(#clip510)" d="M146.691 142.377 L151.575 142.377 L151.575 148.256 L146.691 148.256 L146.691 142.377 Z" fill="#000000" fill-rule="nonzero" fill-opacity="1" /><path clip-path="url(#clip510)" d="M172.339 129.113 Q169.19 129.113 167.339 131.265 Q165.51 133.418 165.51 137.168 Q165.51 140.895 167.339 143.071 Q169.19 145.224 172.339 145.224 Q175.487 145.224 177.315 143.071 Q179.167 140.895 179.167 137.168 Q179.167 133.418 177.315 131.265 Q175.487 129.113 172.339 129.113 M181.621 114.46 L181.621 118.719 Q179.862 117.886 178.056 117.446 Q176.274 117.006 174.514 117.006 Q169.885 117.006 167.431 120.131 Q165.001 123.256 164.653 129.576 Q166.019 127.562 168.079 126.497 Q170.139 125.409 172.616 125.409 Q177.825 125.409 180.834 128.58 Q183.866 131.728 183.866 137.168 Q183.866 142.492 180.718 145.71 Q177.57 148.927 172.339 148.927 Q166.343 148.927 163.172 144.344 Q160.001 139.738 160.001 131.011 Q160.001 122.816 163.89 117.955 Q167.778 113.071 174.329 113.071 Q176.089 113.071 177.871 113.418 Q179.676 113.766 181.621 114.46 Z" fill="#000000" fill-rule="nonzero" fill-opacity="1" /><path clip-path="url(#clip510)" d="M29.7248 956.945 L35.1993 956.945 Q33.8307 959.427 33.1623 961.942 Q32.4621 964.424 32.4621 966.971 Q32.4621 972.668 36.0905 975.819 Q39.6872 978.97 46.212 978.97 Q52.7369 978.97 56.3653 975.819 Q59.9619 972.668 59.9619 966.971 Q59.9619 964.424 59.2935 961.942 Q58.5933 959.427 57.2247 956.945 L62.6355 956.945 Q63.7814 959.396 64.3543 962.037 Q64.9272 964.647 64.9272 967.607 Q64.9272 975.66 59.8664 980.402 Q54.8057 985.145 46.212 985.145 Q37.491 985.145 32.4939 980.371 Q27.4968 975.564 27.4968 967.225 Q27.4968 964.52 28.0697 961.942 Q28.6108 959.364 29.7248 956.945 Z" fill="#000000" fill-rule="nonzero" fill-opacity="1" /><path clip-path="url(#clip510)" d="M16.4842 953.094 L16.4842 912.894 L21.895 912.894 L21.895 929.763 L64.0042 929.763 L64.0042 936.224 L21.895 936.224 L21.895 953.094 L16.4842 953.094 Z" fill="#000000" fill-rule="nonzero" fill-opacity="1" /><path clip-path="url(#clip510)" d="M42.4881 877.31 L64.0042 877.31 L64.0042 883.166 L42.679 883.166 Q37.6183 883.166 35.1038 885.14 Q32.5894 887.113 32.5894 891.06 Q32.5894 895.802 35.6131 898.539 Q38.6368 901.277 43.8567 901.277 L64.0042 901.277 L64.0042 907.165 L28.3562 907.165 L28.3562 901.277 L33.8944 901.277 Q30.6797 899.176 29.0883 896.343 Q27.4968 893.479 27.4968 889.755 Q27.4968 883.612 31.3163 880.461 Q35.1038 877.31 42.4881 877.31 Z" fill="#000000" fill-rule="nonzero" fill-opacity="1" /><path clip-path="url(#clip510)" d="M16.4842 871.963 L16.4842 831.763 L21.895 831.763 L21.895 848.632 L64.0042 848.632 L64.0042 855.093 L21.895 855.093 L21.895 871.963 L16.4842 871.963 Z" fill="#000000" fill-rule="nonzero" fill-opacity="1" /><path clip-path="url(#clip510)" d="M14.479 805.632 L14.479 792.137 L19.0304 792.137 L19.0304 799.775 L68.0464 799.775 L68.0464 792.137 L72.5979 792.137 L72.5979 805.632 L14.479 805.632 Z" fill="#000000" fill-rule="nonzero" fill-opacity="1" /><path clip-path="url(#clip510)" d="M42.4881 750.027 L64.0042 750.027 L64.0042 755.884 L42.679 755.884 Q37.6183 755.884 35.1038 757.857 Q32.5894 759.831 32.5894 763.777 Q32.5894 768.52 35.6131 771.257 Q38.6368 773.994 43.8567 773.994 L64.0042 773.994 L64.0042 779.883 L28.3562 779.883 L28.3562 773.994 L33.8944 773.994 Q30.6797 771.894 29.0883 769.061 Q27.4968 766.196 27.4968 762.472 Q27.4968 756.33 31.3163 753.179 Q35.1038 750.027 42.4881 750.027 Z" fill="#000000" fill-rule="nonzero" fill-opacity="1" /><path clip-path="url(#clip510)" d="M45.7664 714.889 Q39.4007 714.889 35.8996 717.531 Q32.3984 720.141 32.3984 724.883 Q32.3984 729.594 35.8996 732.235 Q39.4007 734.845 45.7664 734.845 Q52.1003 734.845 55.6014 732.235 Q59.1026 729.594 59.1026 724.883 Q59.1026 720.141 55.6014 717.531 Q52.1003 714.889 45.7664 714.889 M59.58 709.032 Q68.683 709.032 73.1071 713.075 Q77.5631 717.117 77.5631 725.456 Q77.5631 728.543 77.0857 731.28 Q76.6401 734.018 75.6852 736.596 L69.9879 736.596 Q71.3884 734.018 72.0568 731.503 Q72.7252 728.989 72.7252 726.379 Q72.7252 720.618 69.7015 717.753 Q66.7096 714.889 60.6303 714.889 L57.7339 714.889 Q60.885 716.703 62.4446 719.536 Q64.0042 722.369 64.0042 726.315 Q64.0042 732.872 59.0071 736.882 Q54.01 740.893 45.7664 740.893 Q37.491 740.893 32.4939 736.882 Q27.4968 732.872 27.4968 726.315 Q27.4968 722.369 29.0564 719.536 Q30.616 716.703 33.7671 714.889 L28.3562 714.889 L28.3562 709.032 L59.58 709.032 Z" fill="#000000" fill-rule="nonzero" fill-opacity="1" /><path clip-path="url(#clip510)" d="M16.4842 686.561 L16.4842 681.151 L70.0516 697.701 L70.0516 703.112 L16.4842 686.561 Z" fill="#000000" fill-rule="nonzero" fill-opacity="1" /><path clip-path="url(#clip510)" d="M35.1993 647.253 Q31.2526 645.057 29.3747 642.001 Q27.4968 638.946 27.4968 634.808 Q27.4968 629.238 31.4117 626.215 Q35.2948 623.191 42.4881 623.191 L64.0042 623.191 L64.0042 629.079 L42.679 629.079 Q37.5546 629.079 35.072 630.893 Q32.5894 632.708 32.5894 636.431 Q32.5894 640.983 35.6131 643.625 Q38.6368 646.266 43.8567 646.266 L64.0042 646.266 L64.0042 652.155 L42.679 652.155 Q37.5228 652.155 35.072 653.969 Q32.5894 655.783 32.5894 659.571 Q32.5894 664.059 35.6449 666.7 Q38.6686 669.342 43.8567 669.342 L64.0042 669.342 L64.0042 675.23 L28.3562 675.23 L28.3562 669.342 L33.8944 669.342 Q30.616 667.337 29.0564 664.536 Q27.4968 661.735 27.4968 657.884 Q27.4968 654.001 29.4702 651.295 Q31.4436 648.558 35.1993 647.253 Z" fill="#000000" fill-rule="nonzero" fill-opacity="1" /><path clip-path="url(#clip510)" d="M16.4842 611.255 L16.4842 604.826 L58.5933 604.826 L58.5933 581.686 L64.0042 581.686 L64.0042 611.255 L16.4842 611.255 Z" fill="#000000" fill-rule="nonzero" fill-opacity="1" /><path clip-path="url(#clip510)" d="M14.479 561.507 L72.5979 561.507 L72.5979 575.002 L68.0464 575.002 L68.0464 567.395 L19.0304 567.395 L19.0304 575.002 L14.479 575.002 L14.479 561.507 Z" fill="#000000" fill-rule="nonzero" fill-opacity="1" /><path clip-path="url(#clip510)" d="M1012.63 18.8205 L1012.63 41.5461 L1022.92 41.5461 Q1028.63 41.5461 1031.75 38.5889 Q1034.87 35.6318 1034.87 30.163 Q1034.87 24.7348 1031.75 21.7777 Q1028.63 18.8205 1022.92 18.8205 L1012.63 18.8205 M1004.45 12.096 L1022.92 12.096 Q1033.09 12.096 1038.27 16.714 Q1043.5 21.2916 1043.5 30.163 Q1043.5 39.1155 1038.27 43.6931 Q1033.09 48.2706 1022.92 48.2706 L1012.63 48.2706 L1012.63 72.576 L1004.45 72.576 L1004.45 12.096 Z" fill="#000000" fill-rule="nonzero" fill-opacity="1" /><path clip-path="url(#clip510)" d="M1071.05 49.7694 Q1062.01 49.7694 1058.53 51.8354 Q1055.04 53.9013 1055.04 58.8839 Q1055.04 62.8538 1057.64 65.2034 Q1060.27 67.5124 1064.77 67.5124 Q1070.97 67.5124 1074.69 63.1374 Q1078.46 58.7219 1078.46 51.4303 L1078.46 49.7694 L1071.05 49.7694 M1085.91 46.6907 L1085.91 72.576 L1078.46 72.576 L1078.46 65.6895 Q1075.91 69.8214 1072.1 71.8063 Q1068.29 73.7508 1062.78 73.7508 Q1055.81 73.7508 1051.68 69.8619 Q1047.59 65.9325 1047.59 59.3701 Q1047.59 51.7138 1052.7 47.825 Q1057.84 43.9361 1068.01 43.9361 L1078.46 43.9361 L1078.46 43.2069 Q1078.46 38.0623 1075.06 35.2672 Q1071.69 32.4315 1065.58 32.4315 Q1061.69 32.4315 1058 33.3632 Q1054.32 34.295 1050.91 36.1584 L1050.91 29.2718 Q1055 27.692 1058.85 26.9223 Q1062.7 26.1121 1066.35 26.1121 Q1076.19 26.1121 1081.05 31.2163 Q1085.91 36.3204 1085.91 46.6907 Z" fill="#000000" fill-rule="nonzero" fill-opacity="1" /><path clip-path="url(#clip510)" d="M1108.64 14.324 L1108.64 27.2059 L1123.99 27.2059 L1123.99 32.9987 L1108.64 32.9987 L1108.64 57.6282 Q1108.64 63.1779 1110.14 64.7578 Q1111.68 66.3376 1116.34 66.3376 L1123.99 66.3376 L1123.99 72.576 L1116.34 72.576 Q1107.71 72.576 1104.43 69.3758 Q1101.14 66.1351 1101.14 57.6282 L1101.14 32.9987 L1095.68 32.9987 L1095.68 27.2059 L1101.14 27.2059 L1101.14 14.324 L1108.64 14.324 Z" fill="#000000" fill-rule="nonzero" fill-opacity="1" /><path clip-path="url(#clip510)" d="M1133.79 27.2059 L1141.25 27.2059 L1141.25 72.576 L1133.79 72.576 L1133.79 27.2059 M1133.79 9.54393 L1141.25 9.54393 L1141.25 18.9825 L1133.79 18.9825 L1133.79 9.54393 Z" fill="#000000" fill-rule="nonzero" fill-opacity="1" /><path clip-path="url(#clip510)" d="M1195.65 48.0275 L1195.65 51.6733 L1161.38 51.6733 Q1161.87 59.3701 1166 63.421 Q1170.17 67.4314 1177.58 67.4314 Q1181.88 67.4314 1185.89 66.3781 Q1189.94 65.3249 1193.91 63.2184 L1193.91 70.267 Q1189.9 71.9684 1185.69 72.8596 Q1181.47 73.7508 1177.14 73.7508 Q1166.28 73.7508 1159.92 67.4314 Q1153.6 61.1119 1153.6 50.3365 Q1153.6 39.1965 1159.6 32.6746 Q1165.63 26.1121 1175.84 26.1121 Q1185 26.1121 1190.3 32.0264 Q1195.65 37.9003 1195.65 48.0275 M1188.2 45.84 Q1188.12 39.7232 1184.75 36.0774 Q1181.43 32.4315 1175.92 32.4315 Q1169.69 32.4315 1165.92 35.9558 Q1162.19 39.4801 1161.62 45.8805 L1188.2 45.84 Z" fill="#000000" fill-rule="nonzero" fill-opacity="1" /><path clip-path="url(#clip510)" d="M1245.6 45.1919 L1245.6 72.576 L1238.15 72.576 L1238.15 45.4349 Q1238.15 38.994 1235.63 35.7938 Q1233.12 32.5936 1228.1 32.5936 Q1222.06 32.5936 1218.58 36.4419 Q1215.1 40.2903 1215.1 46.9338 L1215.1 72.576 L1207.6 72.576 L1207.6 27.2059 L1215.1 27.2059 L1215.1 34.2544 Q1217.77 30.163 1221.38 28.1376 Q1225.02 26.1121 1229.76 26.1121 Q1237.58 26.1121 1241.59 30.9732 Q1245.6 35.7938 1245.6 45.1919 Z" fill="#000000" fill-rule="nonzero" fill-opacity="1" /><path clip-path="url(#clip510)" d="M1267.84 14.324 L1267.84 27.2059 L1283.19 27.2059 L1283.19 32.9987 L1267.84 32.9987 L1267.84 57.6282 Q1267.84 63.1779 1269.34 64.7578 Q1270.88 66.3376 1275.54 66.3376 L1283.19 66.3376 L1283.19 72.576 L1275.54 72.576 Q1266.91 72.576 1263.63 69.3758 Q1260.34 66.1351 1260.34 57.6282 L1260.34 32.9987 L1254.88 32.9987 L1254.88 27.2059 L1260.34 27.2059 L1260.34 14.324 L1267.84 14.324 Z" fill="#000000" fill-rule="nonzero" fill-opacity="1" /><path clip-path="url(#clip510)" d="M1357.08 45.1919 L1357.08 72.576 L1349.63 72.576 L1349.63 45.4349 Q1349.63 38.994 1347.12 35.7938 Q1344.6 32.5936 1339.58 32.5936 Q1333.54 32.5936 1330.06 36.4419 Q1326.58 40.2903 1326.58 46.9338 L1326.58 72.576 L1319.08 72.576 L1319.08 27.2059 L1326.58 27.2059 L1326.58 34.2544 Q1329.25 30.163 1332.86 28.1376 Q1336.5 26.1121 1341.24 26.1121 Q1349.06 26.1121 1353.07 30.9732 Q1357.08 35.7938 1357.08 45.1919 Z" fill="#000000" fill-rule="nonzero" fill-opacity="1" /><path clip-path="url(#clip510)" d="M1374.42 65.6895 L1387.79 65.6895 L1387.79 19.5497 L1373.24 22.4663 L1373.24 15.0127 L1387.71 12.096 L1395.89 12.096 L1395.89 65.6895 L1409.26 65.6895 L1409.26 72.576 L1374.42 72.576 L1374.42 65.6895 Z" fill="#000000" fill-rule="nonzero" fill-opacity="1" /><path clip-path="url(#clip510)" d="M1448.27 19.2256 L1427.61 51.5113 L1448.27 51.5113 L1448.27 19.2256 M1446.12 12.096 L1456.41 12.096 L1456.41 51.5113 L1465.04 51.5113 L1465.04 58.3168 L1456.41 58.3168 L1456.41 72.576 L1448.27 72.576 L1448.27 58.3168 L1420.96 58.3168 L1420.96 50.4176 L1446.12 12.096 Z" fill="#000000" fill-rule="nonzero" fill-opacity="1" /><path clip-path="url(#clip510)" d="M1503.36 39.9662 Q1509.23 41.222 1512.51 45.1919 Q1515.84 49.1618 1515.84 54.9951 Q1515.84 63.9476 1509.68 68.8492 Q1503.52 73.7508 1492.18 73.7508 Q1488.37 73.7508 1484.32 72.9811 Q1480.31 72.2519 1476.01 70.7531 L1476.01 62.8538 Q1479.42 64.8388 1483.47 65.8515 Q1487.52 66.8642 1491.93 66.8642 Q1499.63 66.8642 1503.64 63.826 Q1507.69 60.7879 1507.69 54.9951 Q1507.69 49.6479 1503.93 46.6502 Q1500.2 43.612 1493.51 43.612 L1486.47 43.612 L1486.47 36.8875 L1493.84 36.8875 Q1499.87 36.8875 1503.07 34.4975 Q1506.28 32.067 1506.28 27.5299 Q1506.28 22.8714 1502.95 20.4004 Q1499.67 17.8888 1493.51 17.8888 Q1490.15 17.8888 1486.3 18.618 Q1482.46 19.3471 1477.84 20.8865 L1477.84 13.5948 Q1482.5 12.2985 1486.55 11.6504 Q1490.64 11.0023 1494.24 11.0023 Q1503.56 11.0023 1508.99 15.2557 Q1514.42 19.4686 1514.42 26.6793 Q1514.42 31.7024 1511.54 35.1862 Q1508.67 38.6294 1503.36 39.9662 Z" fill="#000000" fill-rule="nonzero" fill-opacity="1" /><path clip-path="url(#clip510)" d="M1529.28 12.096 L1568.17 12.096 L1568.17 15.5798 L1546.22 72.576 L1537.67 72.576 L1558.33 18.9825 L1529.28 18.9825 L1529.28 12.096 Z" fill="#000000" fill-rule="nonzero" fill-opacity="1" /><polyline clip-path="url(#clip512)" style="stroke:#009af9; stroke-linecap:round; stroke-linejoin:round; stroke-width:8; stroke-opacity:1; fill:none" points="280.231,160.256 290.711,160.678 301.191,161.13 311.671,161.609 322.151,162.112 332.631,162.638 343.111,163.19 353.591,163.77 364.071,164.384 374.551,165.039 385.031,165.744 395.511,166.51 405.991,167.352 416.471,168.289 426.951,169.344 437.431,170.544 447.911,171.924 458.391,173.524 468.871,175.389 479.351,177.568 489.831,180.114 500.311,183.08 510.791,186.512 521.271,190.449 531.751,194.919 542.231,199.934 552.711,205.492 563.191,211.576 573.671,218.156 584.151,225.192 594.631,232.635 605.111,240.434 615.591,248.537 626.071,256.894 636.551,265.457 647.031,274.181 657.511,283.026 667.991,291.952 678.471,300.927 688.951,309.924 699.431,318.921 709.911,327.9 720.391,336.85 730.871,345.759 741.351,354.609 751.831,363.391 762.311,372.096 772.791,380.72 783.271,389.259 793.751,397.707 804.231,406.063 814.711,414.323 825.191,422.487 835.671,430.553 846.151,438.522 856.631,446.393 867.111,454.166 877.591,461.841 888.071,469.419 898.551,476.9 909.031,484.286 919.511,491.577 929.991,498.775 940.471,505.88 950.951,512.894 961.431,519.817 971.911,526.651 982.391,533.398 992.871,540.058 1003.35,546.634 1013.83,553.126 1024.31,559.535 1034.79,565.864 1045.27,572.112 1055.75,578.282 1066.23,584.374 1076.71,590.391 1087.19,596.333 1097.67,602.202 1108.15,607.999 1118.63,613.725 1129.11,619.381 1139.59,624.969 1150.07,630.488 1160.55,635.941 1171.03,641.329 1181.51,646.653 1191.99,651.915 1202.47,657.115 1212.95,662.256 1223.43,667.336 1233.91,672.356 1244.39,677.319 1254.87,682.223 1265.35,687.072 1275.83,691.866 1286.31,696.607 1296.79,701.297 1307.27,705.935 1317.75,710.522 1328.23,715.057 1338.71,719.542 1349.19,723.976 1359.67,728.363 1370.15,732.702 1380.63,736.996 1391.11,741.248 1401.59,745.454 1412.07,749.617 1422.55,753.734 1433.03,757.808 1443.51,761.839 1453.99,765.827 1464.47,769.776 1474.95,773.687 1485.43,777.56 1495.91,781.395 1506.39,785.191 1516.87,788.948 1527.35,792.667 1537.83,796.348 1548.31,799.994 1558.79,803.606 1569.27,807.186 1579.75,810.732 1590.23,814.244 1600.71,817.722 1611.19,821.166 1621.67,824.577 1632.15,827.956 1642.63,831.305 1653.11,834.626 1663.59,837.917 1674.07,841.178 1684.55,844.409 1695.03,847.61 1705.51,850.782 1715.99,853.925 1726.47,857.042 1736.95,860.132 1747.43,863.197 1757.91,866.235 1768.39,869.247 1778.87,872.233 1789.35,875.192 1799.83,878.126 1810.31,881.035 1820.79,883.921 1831.27,886.784 1841.75,889.624 1852.23,892.441 1862.71,895.234 1873.19,898.004 1883.67,900.75 1894.15,903.475 1904.63,906.177 1915.11,908.86 1925.59,911.523 1936.07,914.165 1946.55,916.786 1957.03,919.385 1967.51,921.964 1977.99,924.522 1988.47,927.061 1998.95,929.581 2009.43,932.084 2019.91,934.569 2030.39,937.035 2040.87,939.481 2051.35,941.909 2061.83,944.318 2072.31,946.709 2082.79,949.083 2093.27,951.441 2103.75,953.783 2114.23,956.109 2124.71,958.417 2135.19,960.708 2145.67,962.982 2156.15,965.239 2166.63,967.481 2177.11,969.707 2187.59,971.92 2198.07,974.118 2208.55,976.3 2219.03,978.467 2229.51,980.618 2239.99,982.754 2250.47,984.875 2260.95,986.982 2271.43,989.076 2281.91,991.157 2292.39,992.708 "/>
<polyline clip-path="url(#clip512)" style="stroke:#e26f46; stroke-linecap:round; stroke-linejoin:round; stroke-width:8; stroke-opacity:1; fill:none" points="280.231,1016.34 290.711,1076.45 301.191,1117.01 311.671,1144.52 322.151,1163.32 332.631,1176.3 343.111,1185.4 353.591,1191.9 364.071,1196.65 374.551,1200.21 385.031,1202.96 395.511,1205.16 405.991,1206.95 416.471,1208.44 426.951,1209.69 437.431,1210.73 447.911,1211.56 458.391,1212.2 468.871,1212.62 479.351,1212.81 489.831,1212.73 500.311,1212.38 510.791,1211.71 521.271,1210.73 531.751,1209.43 542.231,1207.82 552.711,1205.9 563.191,1203.72 573.671,1201.29 584.151,1198.67 594.631,1195.89 605.111,1192.98 615.591,1189.98 626.071,1186.93 636.551,1183.8 647.031,1180.55 657.511,1177.32 667.991,1174.21 678.471,1171.28 688.951,1168.52 699.431,1165.89 709.911,1163.32 720.391,1160.66 730.871,1157.85 741.351,1155.15 751.831,1152.56 762.311,1150.08 772.791,1147.69 783.271,1145.36 793.751,1143.11 804.231,1140.95 814.711,1138.89 825.191,1136.91 835.671,1135 846.151,1133.15 856.631,1131.35 867.111,1129.63 877.591,1127.99 888.071,1126.41 898.551,1124.91 909.031,1123.47 919.511,1122.08 929.991,1120.75 940.471,1119.48 950.951,1118.27 961.431,1117.13 971.911,1116.05 982.391,1115.03 992.871,1114.05 1003.35,1113.12 1013.83,1112.23 1024.31,1111.39 1034.79,1110.61 1045.27,1109.88 1055.75,1109.21 1066.23,1108.59 1076.71,1108.01 1087.19,1107.47 1097.67,1106.96 1108.15,1106.47 1118.63,1106.03 1129.11,1105.63 1139.59,1105.29 1150.07,1104.99 1160.55,1104.75 1171.03,1104.54 1181.51,1104.36 1191.99,1104.19 1202.47,1104.02 1212.95,1103.87 1223.43,1103.77 1233.91,1103.73 1244.39,1103.74 1254.87,1103.8 1265.35,1103.9 1275.83,1104.02 1286.31,1104.13 1296.79,1104.21 1307.27,1104.3 1317.75,1104.43 1328.23,1104.61 1338.71,1104.85 1349.19,1105.16 1359.67,1105.5 1370.15,1105.86 1380.63,1106.19 1391.11,1106.47 1401.59,1106.74 1412.07,1107.05 1422.55,1107.42 1433.03,1107.86 1443.51,1108.36 1453.99,1108.89 1464.47,1109.41 1474.95,1109.88 1485.43,1110.3 1495.91,1110.73 1506.39,1111.21 1516.87,1111.75 1527.35,1112.35 1537.83,1112.99 1548.31,1113.64 1558.79,1114.26 1569.27,1114.81 1579.75,1115.36 1590.23,1115.93 1600.71,1116.56 1611.19,1117.23 1621.67,1117.95 1632.15,1118.69 1642.63,1119.41 1653.11,1120.07 1663.59,1120.72 1674.07,1121.37 1684.55,1122.06 1695.03,1122.8 1705.51,1123.57 1715.99,1124.37 1726.47,1125.17 1736.95,1125.93 1747.43,1126.64 1757.91,1127.36 1768.39,1128.1 1778.87,1128.88 1789.35,1129.7 1799.83,1130.54 1810.31,1131.39 1820.79,1132.22 1831.27,1133 1841.75,1133.76 1852.23,1134.54 1862.71,1135.35 1873.19,1136.19 1883.67,1137.06 1894.15,1137.95 1904.63,1138.83 1915.11,1139.67 1925.59,1140.47 1936.07,1141.27 1946.55,1142.09 1957.03,1142.94 1967.51,1143.82 1977.99,1144.73 1988.47,1145.65 1998.95,1146.53 2009.43,1147.37 2019.91,1148.19 2030.39,1149.01 2040.87,1149.87 2051.35,1150.75 2061.83,1151.66 2072.31,1152.59 2082.79,1153.51 2093.27,1154.39 2103.75,1155.22 2114.23,1156.05 2124.71,1156.9 2135.19,1157.77 2145.67,1158.68 2156.15,1159.61 2166.63,1160.54 2177.11,1161.44 2187.59,1162.3 2198.07,1163.13 2208.55,1163.97 2219.03,1164.83 2229.51,1165.72 2239.99,1166.64 2250.47,1167.57 2260.95,1168.49 2271.43,1169.36 2281.91,1170.22 2292.39,1170.87 "/>
<polyline clip-path="url(#clip512)" style="stroke:#3da44d; stroke-linecap:round; stroke-linejoin:round; stroke-width:8; stroke-opacity:1; fill:none" points="280.231,1386.4 290.711,1326.46 301.191,1286.96 311.671,1261.09 322.151,1244.29 332.631,1233.53 343.111,1226.8 353.591,1222.75 364.071,1220.46 374.551,1219.35 385.031,1219.01 395.511,1219.17 405.991,1219.66 416.471,1220.34 426.951,1221.12 437.431,1221.96 447.911,1222.8 458.391,1223.61 468.871,1224.35 479.351,1225.01 489.831,1225.54 500.311,1225.93 510.791,1226.15 521.271,1226.19 531.751,1226.01 542.231,1225.6 552.711,1224.96 563.191,1224.09 573.671,1222.97 584.151,1221.62 594.631,1220.04 605.111,1218.27 615.591,1216.32 626.071,1214.21 636.551,1212.01 647.031,1209.82 657.511,1207.53 667.991,1205.09 678.471,1202.46 688.951,1199.68 699.431,1196.8 709.911,1193.95 720.391,1191.26 730.871,1188.82 741.351,1186.39 751.831,1183.95 762.311,1181.52 772.791,1179.13 783.271,1176.81 793.751,1174.54 804.231,1172.32 814.711,1170.14 825.191,1168.01 835.671,1165.94 846.151,1163.96 856.631,1162.05 867.111,1160.2 877.591,1158.41 888.071,1156.67 898.551,1155 909.031,1153.38 919.511,1151.84 929.991,1150.37 940.471,1148.95 950.951,1147.59 961.431,1146.27 971.911,1145.01 982.391,1143.8 992.871,1142.65 1003.35,1141.57 1013.83,1140.54 1024.31,1139.57 1034.79,1138.64 1045.27,1137.74 1055.75,1136.89 1066.23,1136.09 1076.71,1135.32 1087.19,1134.61 1097.67,1133.96 1108.15,1133.37 1118.63,1132.81 1129.11,1132.29 1139.59,1131.79 1150.07,1131.32 1160.55,1130.87 1171.03,1130.46 1181.51,1130.1 1191.99,1129.79 1202.47,1129.55 1212.95,1129.35 1223.43,1129.17 1233.91,1129 1244.39,1128.83 1254.87,1128.67 1265.35,1128.53 1275.83,1128.43 1286.31,1128.39 1296.79,1128.43 1307.27,1128.52 1317.75,1128.62 1328.23,1128.71 1338.71,1128.79 1349.19,1128.86 1359.67,1128.92 1370.15,1129.02 1380.63,1129.2 1391.11,1129.47 1401.59,1129.78 1412.07,1130.1 1422.55,1130.39 1433.03,1130.65 1443.51,1130.89 1453.99,1131.14 1464.47,1131.42 1474.95,1131.79 1485.43,1132.25 1495.91,1132.72 1506.39,1133.17 1516.87,1133.6 1527.35,1134 1537.83,1134.38 1548.31,1134.78 1558.79,1135.23 1569.27,1135.78 1579.75,1136.36 1590.23,1136.94 1600.71,1137.49 1611.19,1138.01 1621.67,1138.51 1632.15,1139 1642.63,1139.54 1653.11,1140.16 1663.59,1140.81 1674.07,1141.48 1684.55,1142.12 1695.03,1142.73 1705.51,1143.33 1715.99,1143.91 1726.47,1144.51 1736.95,1145.17 1747.43,1145.89 1757.91,1146.61 1768.39,1147.33 1778.87,1148.02 1789.35,1148.68 1799.83,1149.33 1810.31,1149.99 1820.79,1150.67 1831.27,1151.42 1841.75,1152.2 1852.23,1152.97 1862.71,1153.72 1873.19,1154.45 1883.67,1155.15 1894.15,1155.84 1904.63,1156.55 1915.11,1157.31 1925.59,1158.11 1936.07,1158.93 1946.55,1159.72 1957.03,1160.49 1967.51,1161.24 1977.99,1161.96 1988.47,1162.69 1998.95,1163.45 2009.43,1164.26 2019.91,1165.1 2030.39,1165.93 2040.87,1166.73 2051.35,1167.51 2061.83,1168.27 2072.31,1169.01 2082.79,1169.76 2093.27,1170.56 2103.75,1171.41 2114.23,1172.26 2124.71,1173.09 2135.19,1173.9 2145.67,1174.67 2156.15,1175.43 2166.63,1176.18 2177.11,1176.96 2187.59,1177.8 2198.07,1178.65 2208.55,1179.5 2219.03,1180.33 2229.51,1181.12 2239.99,1181.89 2250.47,1182.65 2260.95,1183.41 2271.43,1184.22 2281.91,1185.05 2292.39,1185.66 "/>
<circle clip-path="url(#clip512)" cx="376.472" cy="1219.01" r="18" fill="#c271d2" fill-rule="evenodd" fill-opacity="1" stroke="#000000" stroke-opacity="1" stroke-width="3.2"/>
<circle clip-path="url(#clip512)" cx="898.9" cy="1156.24" r="18" fill="#c271d2" fill-rule="evenodd" fill-opacity="1" stroke="#000000" stroke-opacity="1" stroke-width="3.2"/>
<circle clip-path="url(#clip512)" cx="1005.1" cy="1135.31" r="18" fill="#c271d2" fill-rule="evenodd" fill-opacity="1" stroke="#000000" stroke-opacity="1" stroke-width="3.2"/>
<circle clip-path="url(#clip512)" cx="1451.37" cy="1135.31" r="18" fill="#c271d2" fill-rule="evenodd" fill-opacity="1" stroke="#000000" stroke-opacity="1" stroke-width="3.2"/>
<circle clip-path="url(#clip512)" cx="1573.64" cy="1135.31" r="18" fill="#c271d2" fill-rule="evenodd" fill-opacity="1" stroke="#000000" stroke-opacity="1" stroke-width="3.2"/>
<circle clip-path="url(#clip512)" cx="2174.49" cy="1177.16" r="18" fill="#c271d2" fill-rule="evenodd" fill-opacity="1" stroke="#000000" stroke-opacity="1" stroke-width="3.2"/>
<path clip-path="url(#clip510)" d="M1719 425.996 L2281.66 425.996 L2281.66 166.796 L1719 166.796  Z" fill="#ffffff" fill-rule="evenodd" fill-opacity="1"/>
<polyline clip-path="url(#clip510)" style="stroke:#000000; stroke-linecap:round; stroke-linejoin:round; stroke-width:4; stroke-opacity:1; fill:none" points="1719,425.996 2281.66,425.996 2281.66,166.796 1719,166.796 1719,425.996 "/>
<polyline clip-path="url(#clip510)" style="stroke:#009af9; stroke-linecap:round; stroke-linejoin:round; stroke-width:8; stroke-opacity:1; fill:none" points="1742.7,218.636 1884.89,218.636 "/>
<path clip-path="url(#clip510)" d="M1930.83 202.49 L1930.83 207.05 Q1928.17 205.777 1925.81 205.152 Q1923.45 204.527 1921.25 204.527 Q1917.43 204.527 1915.35 206.008 Q1913.29 207.49 1913.29 210.221 Q1913.29 212.513 1914.65 213.694 Q1916.04 214.851 1919.88 215.569 L1922.71 216.147 Q1927.94 217.143 1930.42 219.666 Q1932.92 222.166 1932.92 226.379 Q1932.92 231.402 1929.54 233.994 Q1926.18 236.587 1919.68 236.587 Q1917.22 236.587 1914.44 236.031 Q1911.69 235.476 1908.73 234.388 L1908.73 229.573 Q1911.57 231.17 1914.31 231.981 Q1917.04 232.791 1919.68 232.791 Q1923.68 232.791 1925.86 231.217 Q1928.03 229.643 1928.03 226.726 Q1928.03 224.18 1926.46 222.744 Q1924.91 221.309 1921.34 220.592 L1918.5 220.036 Q1913.26 218.995 1910.93 216.772 Q1908.59 214.55 1908.59 210.592 Q1908.59 206.008 1911.81 203.37 Q1915.05 200.731 1920.72 200.731 Q1923.15 200.731 1925.67 201.171 Q1928.19 201.61 1930.83 202.49 Z" fill="#000000" fill-rule="nonzero" fill-opacity="1" /><path clip-path="url(#clip510)" d="M1951.81 222.883 Q1946.64 222.883 1944.65 224.064 Q1942.66 225.244 1942.66 228.092 Q1942.66 230.36 1944.14 231.703 Q1945.65 233.022 1948.22 233.022 Q1951.76 233.022 1953.89 230.522 Q1956.04 227.999 1956.04 223.832 L1956.04 222.883 L1951.81 222.883 M1960.3 221.124 L1960.3 235.916 L1956.04 235.916 L1956.04 231.981 Q1954.58 234.342 1952.41 235.476 Q1950.23 236.587 1947.08 236.587 Q1943.1 236.587 1940.74 234.365 Q1938.4 232.119 1938.4 228.369 Q1938.4 223.994 1941.32 221.772 Q1944.26 219.55 1950.07 219.55 L1956.04 219.55 L1956.04 219.133 Q1956.04 216.194 1954.1 214.596 Q1952.18 212.976 1948.68 212.976 Q1946.46 212.976 1944.35 213.508 Q1942.24 214.041 1940.3 215.106 L1940.3 211.17 Q1942.64 210.268 1944.84 209.828 Q1947.04 209.365 1949.12 209.365 Q1954.74 209.365 1957.52 212.282 Q1960.3 215.198 1960.3 221.124 Z" fill="#000000" fill-rule="nonzero" fill-opacity="1" /><path clip-path="url(#clip510)" d="M1984.1 213.971 Q1983.38 213.555 1982.52 213.37 Q1981.69 213.161 1980.67 213.161 Q1977.06 213.161 1975.12 215.522 Q1973.19 217.86 1973.19 222.258 L1973.19 235.916 L1968.91 235.916 L1968.91 209.99 L1973.19 209.99 L1973.19 214.018 Q1974.54 211.657 1976.69 210.522 Q1978.84 209.365 1981.92 209.365 Q1982.36 209.365 1982.89 209.434 Q1983.43 209.481 1984.07 209.596 L1984.1 213.971 Z" fill="#000000" fill-rule="nonzero" fill-opacity="1" /><path clip-path="url(#clip510)" d="M2006.18 210.985 L2006.18 214.967 Q2004.37 213.971 2002.55 213.485 Q2000.74 212.976 1998.89 212.976 Q1994.74 212.976 1992.45 215.615 Q1990.16 218.231 1990.16 222.976 Q1990.16 227.721 1992.45 230.36 Q1994.74 232.976 1998.89 232.976 Q2000.74 232.976 2002.55 232.49 Q2004.37 231.981 2006.18 230.985 L2006.18 234.92 Q2004.4 235.754 2002.48 236.17 Q2000.58 236.587 1998.43 236.587 Q1992.57 236.587 1989.12 232.906 Q1985.67 229.226 1985.67 222.976 Q1985.67 216.633 1989.14 212.999 Q1992.64 209.365 1998.7 209.365 Q2000.67 209.365 2002.55 209.782 Q2004.42 210.175 2006.18 210.985 Z" fill="#000000" fill-rule="nonzero" fill-opacity="1" /><path clip-path="url(#clip510)" d="M2023.63 212.976 Q2020.21 212.976 2018.22 215.661 Q2016.23 218.323 2016.23 222.976 Q2016.23 227.629 2018.19 230.314 Q2020.18 232.976 2023.63 232.976 Q2027.04 232.976 2029.03 230.291 Q2031.02 227.606 2031.02 222.976 Q2031.02 218.37 2029.03 215.684 Q2027.04 212.976 2023.63 212.976 M2023.63 209.365 Q2029.19 209.365 2032.36 212.976 Q2035.53 216.587 2035.53 222.976 Q2035.53 229.342 2032.36 232.976 Q2029.19 236.587 2023.63 236.587 Q2018.05 236.587 2014.88 232.976 Q2011.74 229.342 2011.74 222.976 Q2011.74 216.587 2014.88 212.976 Q2018.05 209.365 2023.63 209.365 Z" fill="#000000" fill-rule="nonzero" fill-opacity="1" /><path clip-path="url(#clip510)" d="M2062.78 214.967 Q2064.37 212.096 2066.6 210.731 Q2068.82 209.365 2071.83 209.365 Q2075.88 209.365 2078.08 212.212 Q2080.28 215.036 2080.28 220.268 L2080.28 235.916 L2075.99 235.916 L2075.99 220.407 Q2075.99 216.68 2074.67 214.874 Q2073.36 213.069 2070.65 213.069 Q2067.34 213.069 2065.42 215.268 Q2063.49 217.467 2063.49 221.263 L2063.49 235.916 L2059.21 235.916 L2059.21 220.407 Q2059.21 216.657 2057.89 214.874 Q2056.57 213.069 2053.82 213.069 Q2050.55 213.069 2048.63 215.291 Q2046.71 217.49 2046.71 221.263 L2046.71 235.916 L2042.43 235.916 L2042.43 209.99 L2046.71 209.99 L2046.71 214.018 Q2048.17 211.633 2050.21 210.499 Q2052.24 209.365 2055.05 209.365 Q2057.87 209.365 2059.84 210.8 Q2061.83 212.235 2062.78 214.967 Z" fill="#000000" fill-rule="nonzero" fill-opacity="1" /><path clip-path="url(#clip510)" d="M2110.95 221.888 L2110.95 223.971 L2091.36 223.971 Q2091.64 228.369 2094 230.684 Q2096.39 232.976 2100.62 232.976 Q2103.08 232.976 2105.37 232.374 Q2107.68 231.772 2109.95 230.569 L2109.95 234.596 Q2107.66 235.568 2105.25 236.078 Q2102.85 236.587 2100.37 236.587 Q2094.17 236.587 2090.53 232.976 Q2086.92 229.365 2086.92 223.207 Q2086.92 216.842 2090.35 213.115 Q2093.8 209.365 2099.63 209.365 Q2104.86 209.365 2107.89 212.745 Q2110.95 216.101 2110.95 221.888 M2106.69 220.638 Q2106.64 217.143 2104.72 215.059 Q2102.82 212.976 2099.67 212.976 Q2096.11 212.976 2093.96 214.99 Q2091.83 217.004 2091.5 220.661 L2106.69 220.638 Z" fill="#000000" fill-rule="nonzero" fill-opacity="1" /><path clip-path="url(#clip510)" d="M2132.96 213.971 Q2132.24 213.555 2131.39 213.37 Q2130.55 213.161 2129.54 213.161 Q2125.92 213.161 2123.98 215.522 Q2122.06 217.86 2122.06 222.258 L2122.06 235.916 L2117.78 235.916 L2117.78 209.99 L2122.06 209.99 L2122.06 214.018 Q2123.4 211.657 2125.55 210.522 Q2127.71 209.365 2130.79 209.365 Q2131.23 209.365 2131.76 209.434 Q2132.29 209.481 2132.94 209.596 L2132.96 213.971 Z" fill="#000000" fill-rule="nonzero" fill-opacity="1" /><path clip-path="url(#clip510)" d="M2158.56 221.888 L2158.56 223.971 L2138.98 223.971 Q2139.26 228.369 2141.62 230.684 Q2144 232.976 2148.24 232.976 Q2150.69 232.976 2152.98 232.374 Q2155.3 231.772 2157.57 230.569 L2157.57 234.596 Q2155.28 235.568 2152.87 236.078 Q2150.46 236.587 2147.98 236.587 Q2141.78 236.587 2138.15 232.976 Q2134.54 229.365 2134.54 223.207 Q2134.54 216.842 2137.96 213.115 Q2141.41 209.365 2147.24 209.365 Q2152.48 209.365 2155.51 212.745 Q2158.56 216.101 2158.56 221.888 M2154.3 220.638 Q2154.26 217.143 2152.34 215.059 Q2150.44 212.976 2147.29 212.976 Q2143.73 212.976 2141.57 214.99 Q2139.44 217.004 2139.12 220.661 L2154.3 220.638 Z" fill="#000000" fill-rule="nonzero" fill-opacity="1" /><polyline clip-path="url(#clip510)" style="stroke:#e26f46; stroke-linecap:round; stroke-linejoin:round; stroke-width:8; stroke-opacity:1; fill:none" points="1742.7,270.476 1884.89,270.476 "/>
<path clip-path="url(#clip510)" d="M1936.46 255.858 L1936.46 260.788 Q1934.1 258.589 1931.41 257.501 Q1928.75 256.413 1925.74 256.413 Q1919.81 256.413 1916.67 260.048 Q1913.52 263.659 1913.52 270.51 Q1913.52 277.339 1916.67 280.973 Q1919.81 284.584 1925.74 284.584 Q1928.75 284.584 1931.41 283.496 Q1934.1 282.409 1936.46 280.209 L1936.46 285.094 Q1934 286.76 1931.25 287.594 Q1928.52 288.427 1925.46 288.427 Q1917.62 288.427 1913.1 283.635 Q1908.59 278.821 1908.59 270.51 Q1908.59 262.177 1913.1 257.386 Q1917.62 252.571 1925.46 252.571 Q1928.56 252.571 1931.3 253.404 Q1934.05 254.214 1936.46 255.858 Z" fill="#000000" fill-rule="nonzero" fill-opacity="1" /><path clip-path="url(#clip510)" d="M1954.28 290.163 Q1952.48 294.793 1950.76 296.205 Q1949.05 297.617 1946.18 297.617 L1942.78 297.617 L1942.78 294.052 L1945.28 294.052 Q1947.04 294.052 1948.01 293.219 Q1948.98 292.385 1950.16 289.283 L1950.93 287.339 L1940.44 261.83 L1944.95 261.83 L1953.06 282.108 L1961.16 261.83 L1965.67 261.83 L1954.28 290.163 Z" fill="#000000" fill-rule="nonzero" fill-opacity="1" /><path clip-path="url(#clip510)" d="M1975.76 254.469 L1975.76 261.83 L1984.54 261.83 L1984.54 265.14 L1975.76 265.14 L1975.76 279.214 Q1975.76 282.385 1976.62 283.288 Q1977.5 284.191 1980.16 284.191 L1984.54 284.191 L1984.54 287.756 L1980.16 287.756 Q1975.23 287.756 1973.36 285.927 Q1971.48 284.075 1971.48 279.214 L1971.48 265.14 L1968.36 265.14 L1968.36 261.83 L1971.48 261.83 L1971.48 254.469 L1975.76 254.469 Z" fill="#000000" fill-rule="nonzero" fill-opacity="1" /><path clip-path="url(#clip510)" d="M2000.18 264.816 Q1996.76 264.816 1994.77 267.501 Q1992.78 270.163 1992.78 274.816 Q1992.78 279.469 1994.74 282.154 Q1996.74 284.816 2000.18 284.816 Q2003.59 284.816 2005.58 282.131 Q2007.57 279.446 2007.57 274.816 Q2007.57 270.21 2005.58 267.524 Q2003.59 264.816 2000.18 264.816 M2000.18 261.205 Q2005.74 261.205 2008.91 264.816 Q2012.08 268.427 2012.08 274.816 Q2012.08 281.182 2008.91 284.816 Q2005.74 288.427 2000.18 288.427 Q1994.61 288.427 1991.43 284.816 Q1988.29 281.182 1988.29 274.816 Q1988.29 268.427 1991.43 264.816 Q1994.61 261.205 2000.18 261.205 Z" fill="#000000" fill-rule="nonzero" fill-opacity="1" /><path clip-path="url(#clip510)" d="M2035.67 262.594 L2035.67 266.622 Q2033.86 265.696 2031.92 265.233 Q2029.98 264.77 2027.89 264.77 Q2024.72 264.77 2023.12 265.742 Q2021.55 266.714 2021.55 268.659 Q2021.55 270.14 2022.68 270.997 Q2023.82 271.83 2027.24 272.594 L2028.7 272.918 Q2033.24 273.89 2035.14 275.672 Q2037.06 277.432 2037.06 280.603 Q2037.06 284.214 2034.19 286.321 Q2031.34 288.427 2026.34 288.427 Q2024.26 288.427 2021.99 288.01 Q2019.74 287.617 2017.24 286.807 L2017.24 282.409 Q2019.61 283.635 2021.9 284.26 Q2024.19 284.862 2026.43 284.862 Q2029.44 284.862 2031.06 283.844 Q2032.68 282.802 2032.68 280.927 Q2032.68 279.191 2031.5 278.265 Q2030.35 277.339 2026.39 276.483 L2024.91 276.135 Q2020.95 275.302 2019.19 273.589 Q2017.43 271.853 2017.43 268.844 Q2017.43 265.186 2020.02 263.196 Q2022.61 261.205 2027.38 261.205 Q2029.74 261.205 2031.83 261.552 Q2033.91 261.899 2035.67 262.594 Z" fill="#000000" fill-rule="nonzero" fill-opacity="1" /><path clip-path="url(#clip510)" d="M2053.89 264.816 Q2050.46 264.816 2048.47 267.501 Q2046.48 270.163 2046.48 274.816 Q2046.48 279.469 2048.45 282.154 Q2050.44 284.816 2053.89 284.816 Q2057.29 284.816 2059.28 282.131 Q2061.27 279.446 2061.27 274.816 Q2061.27 270.21 2059.28 267.524 Q2057.29 264.816 2053.89 264.816 M2053.89 261.205 Q2059.44 261.205 2062.61 264.816 Q2065.79 268.427 2065.79 274.816 Q2065.79 281.182 2062.61 284.816 Q2059.44 288.427 2053.89 288.427 Q2048.31 288.427 2045.14 284.816 Q2041.99 281.182 2041.99 274.816 Q2041.99 268.427 2045.14 264.816 Q2048.31 261.205 2053.89 261.205 Z" fill="#000000" fill-rule="nonzero" fill-opacity="1" /><path clip-path="url(#clip510)" d="M2072.85 251.737 L2077.11 251.737 L2077.11 287.756 L2072.85 287.756 L2072.85 251.737 Z" fill="#000000" fill-rule="nonzero" fill-opacity="1" /><polyline clip-path="url(#clip510)" style="stroke:#3da44d; stroke-linecap:round; stroke-linejoin:round; stroke-width:8; stroke-opacity:1; fill:none" points="1742.7,322.316 1884.89,322.316 "/>
<path clip-path="url(#clip510)" d="M1913.26 323.091 L1913.26 335.753 L1920.76 335.753 Q1924.54 335.753 1926.34 334.202 Q1928.17 332.628 1928.17 329.411 Q1928.17 326.17 1926.34 324.642 Q1924.54 323.091 1920.76 323.091 L1913.26 323.091 M1913.26 308.878 L1913.26 319.295 L1920.18 319.295 Q1923.61 319.295 1925.28 318.022 Q1926.97 316.725 1926.97 314.087 Q1926.97 311.471 1925.28 310.175 Q1923.61 308.878 1920.18 308.878 L1913.26 308.878 M1908.59 305.036 L1920.53 305.036 Q1925.88 305.036 1928.77 307.258 Q1931.67 309.48 1931.67 313.577 Q1931.67 316.749 1930.18 318.624 Q1928.7 320.499 1925.83 320.962 Q1929.28 321.702 1931.18 324.063 Q1933.1 326.401 1933.1 329.92 Q1933.1 334.549 1929.95 337.073 Q1926.81 339.596 1921 339.596 L1908.59 339.596 L1908.59 305.036 Z" fill="#000000" fill-rule="nonzero" fill-opacity="1" /><path clip-path="url(#clip510)" d="M1940.93 303.577 L1945.18 303.577 L1945.18 339.596 L1940.93 339.596 L1940.93 303.577 Z" fill="#000000" fill-rule="nonzero" fill-opacity="1" /><path clip-path="url(#clip510)" d="M1964.14 316.656 Q1960.72 316.656 1958.73 319.341 Q1956.74 322.003 1956.74 326.656 Q1956.74 331.309 1958.7 333.994 Q1960.69 336.656 1964.14 336.656 Q1967.55 336.656 1969.54 333.971 Q1971.53 331.286 1971.53 326.656 Q1971.53 322.05 1969.54 319.364 Q1967.55 316.656 1964.14 316.656 M1964.14 313.045 Q1969.7 313.045 1972.87 316.656 Q1976.04 320.267 1976.04 326.656 Q1976.04 333.022 1972.87 336.656 Q1969.7 340.267 1964.14 340.267 Q1958.56 340.267 1955.39 336.656 Q1952.24 333.022 1952.24 326.656 Q1952.24 320.267 1955.39 316.656 Q1958.56 313.045 1964.14 313.045 Z" fill="#000000" fill-rule="nonzero" fill-opacity="1" /><path clip-path="url(#clip510)" d="M1993.15 316.656 Q1989.72 316.656 1987.73 319.341 Q1985.74 322.003 1985.74 326.656 Q1985.74 331.309 1987.71 333.994 Q1989.7 336.656 1993.15 336.656 Q1996.55 336.656 1998.54 333.971 Q2000.53 331.286 2000.53 326.656 Q2000.53 322.05 1998.54 319.364 Q1996.55 316.656 1993.15 316.656 M1993.15 313.045 Q1998.7 313.045 2001.87 316.656 Q2005.05 320.267 2005.05 326.656 Q2005.05 333.022 2001.87 336.656 Q1998.7 340.267 1993.15 340.267 Q1987.57 340.267 1984.4 336.656 Q1981.25 333.022 1981.25 326.656 Q1981.25 320.267 1984.4 316.656 Q1987.57 313.045 1993.15 313.045 Z" fill="#000000" fill-rule="nonzero" fill-opacity="1" /><path clip-path="url(#clip510)" d="M2029.17 317.605 L2029.17 303.577 L2033.42 303.577 L2033.42 339.596 L2029.17 339.596 L2029.17 335.707 Q2027.82 338.022 2025.76 339.156 Q2023.73 340.267 2020.86 340.267 Q2016.16 340.267 2013.19 336.517 Q2010.25 332.767 2010.25 326.656 Q2010.25 320.545 2013.19 316.795 Q2016.16 313.045 2020.86 313.045 Q2023.73 313.045 2025.76 314.179 Q2027.82 315.29 2029.17 317.605 M2014.65 326.656 Q2014.65 331.355 2016.57 334.04 Q2018.52 336.702 2021.9 336.702 Q2025.28 336.702 2027.22 334.04 Q2029.17 331.355 2029.17 326.656 Q2029.17 321.957 2027.22 319.295 Q2025.28 316.61 2021.9 316.61 Q2018.52 316.61 2016.57 319.295 Q2014.65 321.957 2014.65 326.656 Z" fill="#000000" fill-rule="nonzero" fill-opacity="1" /><circle clip-path="url(#clip510)" cx="1813.79" cy="374.156" r="20.9455" fill="#c271d2" fill-rule="evenodd" fill-opacity="1" stroke="#000000" stroke-opacity="1" stroke-width="3.72364"/>
<path clip-path="url(#clip510)" d="M1924.61 360.047 Q1919.51 360.047 1916.5 363.843 Q1913.52 367.64 1913.52 374.19 Q1913.52 380.718 1916.5 384.514 Q1919.51 388.311 1924.61 388.311 Q1929.7 388.311 1932.66 384.514 Q1935.65 380.718 1935.65 374.19 Q1935.65 367.64 1932.66 363.843 Q1929.7 360.047 1924.61 360.047 M1924.61 356.251 Q1931.87 356.251 1936.23 361.135 Q1940.58 365.996 1940.58 374.19 Q1940.58 382.362 1936.23 387.246 Q1931.87 392.107 1924.61 392.107 Q1917.31 392.107 1912.94 387.246 Q1908.59 382.385 1908.59 374.19 Q1908.59 365.996 1912.94 361.135 Q1917.31 356.251 1924.61 356.251 Z" fill="#000000" fill-rule="nonzero" fill-opacity="1" /><path clip-path="url(#clip510)" d="M1966.32 378.496 Q1966.32 373.797 1964.37 371.135 Q1962.45 368.45 1959.07 368.45 Q1955.69 368.45 1953.75 371.135 Q1951.83 373.797 1951.83 378.496 Q1951.83 383.195 1953.75 385.88 Q1955.69 388.542 1959.07 388.542 Q1962.45 388.542 1964.37 385.88 Q1966.32 383.195 1966.32 378.496 M1951.83 369.445 Q1953.17 367.13 1955.21 366.019 Q1957.27 364.885 1960.12 364.885 Q1964.84 364.885 1967.78 368.635 Q1970.74 372.385 1970.74 378.496 Q1970.74 384.607 1967.78 388.357 Q1964.84 392.107 1960.12 392.107 Q1957.27 392.107 1955.21 390.996 Q1953.17 389.862 1951.83 387.547 L1951.83 391.436 L1947.55 391.436 L1947.55 355.417 L1951.83 355.417 L1951.83 369.445 Z" fill="#000000" fill-rule="nonzero" fill-opacity="1" /><path clip-path="url(#clip510)" d="M1994.33 366.274 L1994.33 370.302 Q1992.52 369.376 1990.58 368.913 Q1988.63 368.45 1986.55 368.45 Q1983.38 368.45 1981.78 369.422 Q1980.21 370.394 1980.21 372.339 Q1980.21 373.82 1981.34 374.677 Q1982.48 375.51 1985.9 376.274 L1987.36 376.598 Q1991.9 377.57 1993.8 379.352 Q1995.72 381.112 1995.72 384.283 Q1995.72 387.894 1992.85 390.001 Q1990 392.107 1985 392.107 Q1982.92 392.107 1980.65 391.69 Q1978.4 391.297 1975.9 390.487 L1975.9 386.089 Q1978.26 387.315 1980.55 387.94 Q1982.85 388.542 1985.09 388.542 Q1988.1 388.542 1989.72 387.524 Q1991.34 386.482 1991.34 384.607 Q1991.34 382.871 1990.16 381.945 Q1989 381.019 1985.05 380.163 L1983.56 379.815 Q1979.61 378.982 1977.85 377.269 Q1976.09 375.533 1976.09 372.524 Q1976.09 368.866 1978.68 366.876 Q1981.27 364.885 1986.04 364.885 Q1988.4 364.885 1990.49 365.232 Q1992.57 365.579 1994.33 366.274 Z" fill="#000000" fill-rule="nonzero" fill-opacity="1" /><path clip-path="url(#clip510)" d="M2024.68 377.408 L2024.68 379.491 L2005.09 379.491 Q2005.37 383.889 2007.73 386.204 Q2010.11 388.496 2014.35 388.496 Q2016.8 388.496 2019.1 387.894 Q2021.41 387.292 2023.68 386.089 L2023.68 390.116 Q2021.39 391.088 2018.98 391.598 Q2016.57 392.107 2014.1 392.107 Q2007.89 392.107 2004.26 388.496 Q2000.65 384.885 2000.65 378.727 Q2000.65 372.362 2004.07 368.635 Q2007.52 364.885 2013.36 364.885 Q2018.59 364.885 2021.62 368.265 Q2024.68 371.621 2024.68 377.408 M2020.42 376.158 Q2020.37 372.663 2018.45 370.579 Q2016.55 368.496 2013.4 368.496 Q2009.84 368.496 2007.68 370.51 Q2005.55 372.524 2005.23 376.181 L2020.42 376.158 Z" fill="#000000" fill-rule="nonzero" fill-opacity="1" /><path clip-path="url(#clip510)" d="M2046.69 369.491 Q2045.97 369.075 2045.11 368.89 Q2044.28 368.681 2043.26 368.681 Q2039.65 368.681 2037.71 371.042 Q2035.79 373.38 2035.79 377.778 L2035.79 391.436 L2031.5 391.436 L2031.5 365.51 L2035.79 365.51 L2035.79 369.538 Q2037.13 367.177 2039.28 366.042 Q2041.43 364.885 2044.51 364.885 Q2044.95 364.885 2045.49 364.954 Q2046.02 365.001 2046.67 365.116 L2046.69 369.491 Z" fill="#000000" fill-rule="nonzero" fill-opacity="1" /><path clip-path="url(#clip510)" d="M2048.1 365.51 L2052.61 365.51 L2060.72 387.269 L2068.82 365.51 L2073.33 365.51 L2063.61 391.436 L2057.82 391.436 L2048.1 365.51 Z" fill="#000000" fill-rule="nonzero" fill-opacity="1" /><path clip-path="url(#clip510)" d="M2101.39 377.408 L2101.39 379.491 L2081.8 379.491 Q2082.08 383.889 2084.44 386.204 Q2086.83 388.496 2091.06 388.496 Q2093.52 388.496 2095.81 387.894 Q2098.12 387.292 2100.39 386.089 L2100.39 390.116 Q2098.1 391.088 2095.69 391.598 Q2093.29 392.107 2090.81 392.107 Q2084.61 392.107 2080.97 388.496 Q2077.36 384.885 2077.36 378.727 Q2077.36 372.362 2080.79 368.635 Q2084.23 364.885 2090.07 364.885 Q2095.3 364.885 2098.33 368.265 Q2101.39 371.621 2101.39 377.408 M2097.13 376.158 Q2097.08 372.663 2095.16 370.579 Q2093.26 368.496 2090.11 368.496 Q2086.55 368.496 2084.4 370.51 Q2082.27 372.524 2081.94 376.181 L2097.13 376.158 Z" fill="#000000" fill-rule="nonzero" fill-opacity="1" /><path clip-path="url(#clip510)" d="M2125.44 369.445 L2125.44 355.417 L2129.7 355.417 L2129.7 391.436 L2125.44 391.436 L2125.44 387.547 Q2124.1 389.862 2122.04 390.996 Q2120 392.107 2117.13 392.107 Q2112.43 392.107 2109.47 388.357 Q2106.53 384.607 2106.53 378.496 Q2106.53 372.385 2109.47 368.635 Q2112.43 364.885 2117.13 364.885 Q2120 364.885 2122.04 366.019 Q2124.1 367.13 2125.44 369.445 M2110.92 378.496 Q2110.92 383.195 2112.85 385.88 Q2114.79 388.542 2118.17 388.542 Q2121.55 388.542 2123.49 385.88 Q2125.44 383.195 2125.44 378.496 Q2125.44 373.797 2123.49 371.135 Q2121.55 368.45 2118.17 368.45 Q2114.79 368.45 2112.85 371.135 Q2110.92 373.797 2110.92 378.496 Z" fill="#000000" fill-rule="nonzero" fill-opacity="1" /><path clip-path="url(#clip510)" d="M2158.4 360.718 L2158.4 387.593 L2164.05 387.593 Q2171.2 387.593 2174.51 384.352 Q2177.85 381.112 2177.85 374.121 Q2177.85 367.177 2174.51 363.959 Q2171.2 360.718 2164.05 360.718 L2158.4 360.718 M2153.73 356.876 L2163.33 356.876 Q2173.38 356.876 2178.08 361.066 Q2182.78 365.232 2182.78 374.121 Q2182.78 383.056 2178.05 387.246 Q2173.33 391.436 2163.33 391.436 L2153.73 391.436 L2153.73 356.876 Z" fill="#000000" fill-rule="nonzero" fill-opacity="1" /><path clip-path="url(#clip510)" d="M2201.83 378.403 Q2196.66 378.403 2194.67 379.584 Q2192.68 380.764 2192.68 383.612 Q2192.68 385.88 2194.16 387.223 Q2195.67 388.542 2198.24 388.542 Q2201.78 388.542 2203.91 386.042 Q2206.06 383.519 2206.06 379.352 L2206.06 378.403 L2201.83 378.403 M2210.32 376.644 L2210.32 391.436 L2206.06 391.436 L2206.06 387.501 Q2204.6 389.862 2202.43 390.996 Q2200.25 392.107 2197.1 392.107 Q2193.12 392.107 2190.76 389.885 Q2188.42 387.639 2188.42 383.889 Q2188.42 379.514 2191.34 377.292 Q2194.28 375.07 2200.09 375.07 L2206.06 375.07 L2206.06 374.653 Q2206.06 371.714 2204.12 370.116 Q2202.2 368.496 2198.7 368.496 Q2196.48 368.496 2194.37 369.028 Q2192.27 369.561 2190.32 370.626 L2190.32 366.69 Q2192.66 365.788 2194.86 365.348 Q2197.06 364.885 2199.14 364.885 Q2204.77 364.885 2207.54 367.802 Q2210.32 370.718 2210.32 376.644 Z" fill="#000000" fill-rule="nonzero" fill-opacity="1" /><path clip-path="url(#clip510)" d="M2223.31 358.149 L2223.31 365.51 L2232.08 365.51 L2232.08 368.82 L2223.31 368.82 L2223.31 382.894 Q2223.31 386.065 2224.16 386.968 Q2225.04 387.871 2227.71 387.871 L2232.08 387.871 L2232.08 391.436 L2227.71 391.436 Q2222.78 391.436 2220.9 389.607 Q2219.03 387.755 2219.03 382.894 L2219.03 368.82 L2215.9 368.82 L2215.9 365.51 L2219.03 365.51 L2219.03 358.149 L2223.31 358.149 Z" fill="#000000" fill-rule="nonzero" fill-opacity="1" /><path clip-path="url(#clip510)" d="M2249.47 378.403 Q2244.3 378.403 2242.31 379.584 Q2240.32 380.764 2240.32 383.612 Q2240.32 385.88 2241.8 387.223 Q2243.31 388.542 2245.88 388.542 Q2249.42 388.542 2251.55 386.042 Q2253.7 383.519 2253.7 379.352 L2253.7 378.403 L2249.47 378.403 M2257.96 376.644 L2257.96 391.436 L2253.7 391.436 L2253.7 387.501 Q2252.24 389.862 2250.07 390.996 Q2247.89 392.107 2244.74 392.107 Q2240.76 392.107 2238.4 389.885 Q2236.06 387.639 2236.06 383.889 Q2236.06 379.514 2238.98 377.292 Q2241.92 375.07 2247.73 375.07 L2253.7 375.07 L2253.7 374.653 Q2253.7 371.714 2251.76 370.116 Q2249.84 368.496 2246.34 368.496 Q2244.12 368.496 2242.01 369.028 Q2239.91 369.561 2237.96 370.626 L2237.96 366.69 Q2240.3 365.788 2242.5 365.348 Q2244.7 364.885 2246.78 364.885 Q2252.41 364.885 2255.18 367.802 Q2257.96 370.718 2257.96 376.644 Z" fill="#000000" fill-rule="nonzero" fill-opacity="1" /></svg>
