<?xml version="1.0" encoding="utf-8"?>
<svg xmlns="http://www.w3.org/2000/svg" xmlns:xlink="http://www.w3.org/1999/xlink" width="600" height="400" viewBox="0 0 2400 1600">
<defs>
  <clipPath id="clip770">
    <rect x="0" y="0" width="2400" height="1600"/>
  </clipPath>
</defs>
<path clip-path="url(#clip770)" d="M0 1600 L2400 1600 L2400 0 L0 0  Z" fill="#ffffff" fill-rule="evenodd" fill-opacity="1"/>
<defs>
  <clipPath id="clip771">
    <rect x="219" y="123" width="2134" height="1301"/>
  </clipPath>
</defs>
<path clip-path="url(#clip770)" d="M203.964 1423.18 L2352.76 1423.18 L2352.76 123.472 L203.964 123.472  Z" fill="#ffffff" fill-rule="evenodd" fill-opacity="1"/>
<defs>
  <clipPath id="clip772">
    <rect x="203" y="123" width="2150" height="1301"/>
  </clipPath>
</defs>
<polyline clip-path="url(#clip772)" style="stroke:#000000; stroke-linecap:round; stroke-linejoin:round; stroke-width:2; stroke-opacity:0.1; fill:none" points="246.181,1423.18 246.181,123.472 "/>
<polyline clip-path="url(#clip772)" style="stroke:#000000; stroke-linecap:round; stroke-linejoin:round; stroke-width:2; stroke-opacity:0.1; fill:none" points="711.126,1423.18 711.126,123.472 "/>
<polyline clip-path="url(#clip772)" style="stroke:#000000; stroke-linecap:round; stroke-linejoin:round; stroke-width:2; stroke-opacity:0.1; fill:none" points="1176.07,1423.18 1176.07,123.472 "/>
<polyline clip-path="url(#clip772)" style="stroke:#000000; stroke-linecap:round; stroke-linejoin:round; stroke-width:2; stroke-opacity:0.1; fill:none" points="1641.02,1423.18 1641.02,123.472 "/>
<polyline clip-path="url(#clip772)" style="stroke:#000000; stroke-linecap:round; stroke-linejoin:round; stroke-width:2; stroke-opacity:0.1; fill:none" points="2105.96,1423.18 2105.96,123.472 "/>
<polyline clip-path="url(#clip772)" style="stroke:#000000; stroke-linecap:round; stroke-linejoin:round; stroke-width:2; stroke-opacity:0.1; fill:none" points="203.964,1386.4 2352.76,1386.4 "/>
<polyline clip-path="url(#clip772)" style="stroke:#000000; stroke-linecap:round; stroke-linejoin:round; stroke-width:2; stroke-opacity:0.1; fill:none" points="203.964,1098.76 2352.76,1098.76 "/>
<polyline clip-path="url(#clip772)" style="stroke:#000000; stroke-linecap:round; stroke-linejoin:round; stroke-width:2; stroke-opacity:0.1; fill:none" points="203.964,811.133 2352.76,811.133 "/>
<polyline clip-path="url(#clip772)" style="stroke:#000000; stroke-linecap:round; stroke-linejoin:round; stroke-width:2; stroke-opacity:0.1; fill:none" points="203.964,523.501 2352.76,523.501 "/>
<polyline clip-path="url(#clip772)" style="stroke:#000000; stroke-linecap:round; stroke-linejoin:round; stroke-width:2; stroke-opacity:0.1; fill:none" points="203.964,235.87 2352.76,235.87 "/>
<polyline clip-path="url(#clip770)" style="stroke:#000000; stroke-linecap:round; stroke-linejoin:round; stroke-width:4; stroke-opacity:1; fill:none" points="203.964,1423.18 2352.76,1423.18 "/>
<polyline clip-path="url(#clip770)" style="stroke:#000000; stroke-linecap:round; stroke-linejoin:round; stroke-width:4; stroke-opacity:1; fill:none" points="246.181,1423.18 246.181,1404.28 "/>
<polyline clip-path="url(#clip770)" style="stroke:#000000; stroke-linecap:round; stroke-linejoin:round; stroke-width:4; stroke-opacity:1; fill:none" points="711.126,1423.18 711.126,1404.28 "/>
<polyline clip-path="url(#clip770)" style="stroke:#000000; stroke-linecap:round; stroke-linejoin:round; stroke-width:4; stroke-opacity:1; fill:none" points="1176.07,1423.18 1176.07,1404.28 "/>
<polyline clip-path="url(#clip770)" style="stroke:#000000; stroke-linecap:round; stroke-linejoin:round; stroke-width:4; stroke-opacity:1; fill:none" points="1641.02,1423.18 1641.02,1404.28 "/>
<polyline clip-path="url(#clip770)" style="stroke:#000000; stroke-linecap:round; stroke-linejoin:round; stroke-width:4; stroke-opacity:1; fill:none" points="2105.96,1423.18 2105.96,1404.28 "/>
<path clip-path="url(#clip770)" d="M246.181 1454.1 Q242.57 1454.1 240.741 1457.66 Q238.935 1461.2 238.935 1468.33 Q238.935 1475.44 240.741 1479.01 Q242.57 1482.55 246.181 1482.55 Q249.815 1482.55 251.62 1479.01 Q253.449 1475.44 253.449 1468.33 Q253.449 1461.2 251.62 1457.66 Q249.815 1454.1 246.181 1454.1 M246.181 1450.39 Q251.991 1450.39 255.046 1455 Q258.125 1459.58 258.125 1468.33 Q258.125 1477.06 255.046 1481.67 Q251.991 1486.25 246.181 1486.25 Q240.37 1486.25 237.292 1481.67 Q234.236 1477.06 234.236 1468.33 Q234.236 1459.58 237.292 1455 Q240.37 1450.39 246.181 1450.39 Z" fill="#000000" fill-rule="nonzero" fill-opacity="1" /><path clip-path="url(#clip770)" d="M690.397 1481.64 L706.716 1481.64 L706.716 1485.58 L684.772 1485.58 L684.772 1481.64 Q687.434 1478.89 692.017 1474.26 Q696.624 1469.61 697.804 1468.27 Q700.05 1465.74 700.929 1464.01 Q701.832 1462.25 701.832 1460.56 Q701.832 1457.8 699.888 1456.07 Q697.967 1454.33 694.865 1454.33 Q692.666 1454.33 690.212 1455.09 Q687.781 1455.86 685.004 1457.41 L685.004 1452.69 Q687.828 1451.55 690.281 1450.97 Q692.735 1450.39 694.772 1450.39 Q700.142 1450.39 703.337 1453.08 Q706.531 1455.77 706.531 1460.26 Q706.531 1462.39 705.721 1464.31 Q704.934 1466.2 702.828 1468.8 Q702.249 1469.47 699.147 1472.69 Q696.045 1475.88 690.397 1481.64 Z" fill="#000000" fill-rule="nonzero" fill-opacity="1" /><path clip-path="url(#clip770)" d="M716.578 1451.02 L734.934 1451.02 L734.934 1454.96 L720.86 1454.96 L720.86 1463.43 Q721.878 1463.08 722.897 1462.92 Q723.915 1462.73 724.934 1462.73 Q730.721 1462.73 734.101 1465.9 Q737.48 1469.08 737.48 1474.49 Q737.48 1480.07 734.008 1483.17 Q730.536 1486.25 724.216 1486.25 Q722.04 1486.25 719.772 1485.88 Q717.527 1485.51 715.119 1484.77 L715.119 1480.07 Q717.203 1481.2 719.425 1481.76 Q721.647 1482.32 724.124 1482.32 Q728.128 1482.32 730.466 1480.21 Q732.804 1478.1 732.804 1474.49 Q732.804 1470.88 730.466 1468.77 Q728.128 1466.67 724.124 1466.67 Q722.249 1466.67 720.374 1467.08 Q718.522 1467.5 716.578 1468.38 L716.578 1451.02 Z" fill="#000000" fill-rule="nonzero" fill-opacity="1" /><path clip-path="url(#clip770)" d="M1150.77 1451.02 L1169.13 1451.02 L1169.13 1454.96 L1155.05 1454.96 L1155.05 1463.43 Q1156.07 1463.08 1157.09 1462.92 Q1158.11 1462.73 1159.13 1462.73 Q1164.91 1462.73 1168.29 1465.9 Q1171.67 1469.08 1171.67 1474.49 Q1171.67 1480.07 1168.2 1483.17 Q1164.73 1486.25 1158.41 1486.25 Q1156.23 1486.25 1153.97 1485.88 Q1151.72 1485.51 1149.31 1484.77 L1149.31 1480.07 Q1151.4 1481.2 1153.62 1481.76 Q1155.84 1482.32 1158.32 1482.32 Q1162.32 1482.32 1164.66 1480.21 Q1167 1478.1 1167 1474.49 Q1167 1470.88 1164.66 1468.77 Q1162.32 1466.67 1158.32 1466.67 Q1156.44 1466.67 1154.57 1467.08 Q1152.72 1467.5 1150.77 1468.38 L1150.77 1451.02 Z" fill="#000000" fill-rule="nonzero" fill-opacity="1" /><path clip-path="url(#clip770)" d="M1190.89 1454.1 Q1187.28 1454.1 1185.45 1457.66 Q1183.64 1461.2 1183.64 1468.33 Q1183.64 1475.44 1185.45 1479.01 Q1187.28 1482.55 1190.89 1482.55 Q1194.52 1482.55 1196.33 1479.01 Q1198.15 1475.44 1198.15 1468.33 Q1198.15 1461.2 1196.33 1457.66 Q1194.52 1454.1 1190.89 1454.1 M1190.89 1450.39 Q1196.7 1450.39 1199.75 1455 Q1202.83 1459.58 1202.83 1468.33 Q1202.83 1477.06 1199.75 1481.67 Q1196.7 1486.25 1190.89 1486.25 Q1185.08 1486.25 1182 1481.67 Q1178.94 1477.06 1178.94 1468.33 Q1178.94 1459.58 1182 1455 Q1185.08 1450.39 1190.89 1450.39 Z" fill="#000000" fill-rule="nonzero" fill-opacity="1" /><path clip-path="url(#clip770)" d="M1614.87 1451.02 L1637.09 1451.02 L1637.09 1453.01 L1624.55 1485.58 L1619.66 1485.58 L1631.47 1454.96 L1614.87 1454.96 L1614.87 1451.02 Z" fill="#000000" fill-rule="nonzero" fill-opacity="1" /><path clip-path="url(#clip770)" d="M1646.26 1451.02 L1664.62 1451.02 L1664.62 1454.96 L1650.54 1454.96 L1650.54 1463.43 Q1651.56 1463.08 1652.58 1462.92 Q1653.6 1462.73 1654.62 1462.73 Q1660.4 1462.73 1663.78 1465.9 Q1667.16 1469.08 1667.16 1474.49 Q1667.16 1480.07 1663.69 1483.17 Q1660.22 1486.25 1653.9 1486.25 Q1651.72 1486.25 1649.45 1485.88 Q1647.21 1485.51 1644.8 1484.77 L1644.8 1480.07 Q1646.89 1481.2 1649.11 1481.76 Q1651.33 1482.32 1653.81 1482.32 Q1657.81 1482.32 1660.15 1480.21 Q1662.49 1478.1 1662.49 1474.49 Q1662.49 1470.88 1660.15 1468.77 Q1657.81 1466.67 1653.81 1466.67 Q1651.93 1466.67 1650.06 1467.08 Q1648.2 1467.5 1646.26 1468.38 L1646.26 1451.02 Z" fill="#000000" fill-rule="nonzero" fill-opacity="1" /><path clip-path="url(#clip770)" d="M2065.57 1481.64 L2073.21 1481.64 L2073.21 1455.28 L2064.9 1456.95 L2064.9 1452.69 L2073.16 1451.02 L2077.84 1451.02 L2077.84 1481.64 L2085.48 1481.64 L2085.48 1485.58 L2065.57 1485.58 L2065.57 1481.64 Z" fill="#000000" fill-rule="nonzero" fill-opacity="1" /><path clip-path="url(#clip770)" d="M2104.92 1454.1 Q2101.31 1454.1 2099.48 1457.66 Q2097.68 1461.2 2097.68 1468.33 Q2097.68 1475.44 2099.48 1479.01 Q2101.31 1482.55 2104.92 1482.55 Q2108.56 1482.55 2110.36 1479.01 Q2112.19 1475.44 2112.19 1468.33 Q2112.19 1461.2 2110.36 1457.66 Q2108.56 1454.1 2104.92 1454.1 M2104.92 1450.39 Q2110.73 1450.39 2113.79 1455 Q2116.87 1459.58 2116.87 1468.33 Q2116.87 1477.06 2113.79 1481.67 Q2110.73 1486.25 2104.92 1486.25 Q2099.11 1486.25 2096.03 1481.67 Q2092.98 1477.06 2092.98 1468.33 Q2092.98 1459.58 2096.03 1455 Q2099.11 1450.39 2104.92 1450.39 Z" fill="#000000" fill-rule="nonzero" fill-opacity="1" /><path clip-path="url(#clip770)" d="M2135.08 1454.1 Q2131.47 1454.1 2129.64 1457.66 Q2127.84 1461.2 2127.84 1468.33 Q2127.84 1475.44 2129.64 1479.01 Q2131.47 1482.55 2135.08 1482.55 Q2138.72 1482.55 2140.52 1479.01 Q2142.35 1475.44 2142.35 1468.33 Q2142.35 1461.2 2140.52 1457.66 Q2138.72 1454.1 2135.08 1454.1 M2135.08 1450.39 Q2140.89 1450.39 2143.95 1455 Q2147.03 1459.58 2147.03 1468.33 Q2147.03 1477.06 2143.95 1481.67 Q2140.89 1486.25 2135.08 1486.25 Q2129.27 1486.25 2126.19 1481.67 Q2123.14 1477.06 2123.14 1468.33 Q2123.14 1459.58 2126.19 1455 Q2129.27 1450.39 2135.08 1450.39 Z" fill="#000000" fill-rule="nonzero" fill-opacity="1" /><path clip-path="url(#clip770)" d="M1200.24 1520.52 L1240.44 1520.52 L1240.44 1525.93 L1223.57 1525.93 L1223.57 1568.04 L1217.11 1568.04 L1217.11 1525.93 L1200.24 1525.93 L1200.24 1520.52 Z" fill="#000000" fill-rule="nonzero" fill-opacity="1" /><path clip-path="url(#clip770)" d="M1244.38 1532.4 L1250.24 1532.4 L1250.24 1568.04 L1244.38 1568.04 L1244.38 1532.4 M1244.38 1518.52 L1250.24 1518.52 L1250.24 1525.93 L1244.38 1525.93 L1244.38 1518.52 Z" fill="#000000" fill-rule="nonzero" fill-opacity="1" /><path clip-path="url(#clip770)" d="M1290.25 1539.24 Q1292.44 1535.29 1295.5 1533.41 Q1298.55 1531.54 1302.69 1531.54 Q1308.26 1531.54 1311.29 1535.45 Q1314.31 1539.33 1314.31 1546.53 L1314.31 1568.04 L1308.42 1568.04 L1308.42 1546.72 Q1308.42 1541.59 1306.61 1539.11 Q1304.79 1536.63 1301.07 1536.63 Q1296.52 1536.63 1293.88 1539.65 Q1291.23 1542.68 1291.23 1547.9 L1291.23 1568.04 L1285.35 1568.04 L1285.35 1546.72 Q1285.35 1541.56 1283.53 1539.11 Q1281.72 1536.63 1277.93 1536.63 Q1273.44 1536.63 1270.8 1539.68 Q1268.16 1542.71 1268.16 1547.9 L1268.16 1568.04 L1262.27 1568.04 L1262.27 1532.4 L1268.16 1532.4 L1268.16 1537.93 Q1270.16 1534.66 1272.96 1533.1 Q1275.77 1531.54 1279.62 1531.54 Q1283.5 1531.54 1286.21 1533.51 Q1288.94 1535.48 1290.25 1539.24 Z" fill="#000000" fill-rule="nonzero" fill-opacity="1" /><path clip-path="url(#clip770)" d="M1356.48 1548.76 L1356.48 1551.62 L1329.56 1551.62 Q1329.94 1557.67 1333.18 1560.85 Q1336.46 1564 1342.29 1564 Q1345.66 1564 1348.81 1563.17 Q1352 1562.35 1355.11 1560.69 L1355.11 1566.23 Q1351.96 1567.57 1348.65 1568.27 Q1345.34 1568.97 1341.94 1568.97 Q1333.41 1568.97 1328.41 1564 Q1323.44 1559.04 1323.44 1550.57 Q1323.44 1541.82 1328.16 1536.69 Q1332.9 1531.54 1340.92 1531.54 Q1348.11 1531.54 1352.28 1536.18 Q1356.48 1540.8 1356.48 1548.76 M1350.63 1547.04 Q1350.56 1542.23 1347.92 1539.37 Q1345.31 1536.5 1340.98 1536.5 Q1336.08 1536.5 1333.12 1539.27 Q1330.19 1542.04 1329.75 1547.07 L1350.63 1547.04 Z" fill="#000000" fill-rule="nonzero" fill-opacity="1" /><polyline clip-path="url(#clip770)" style="stroke:#000000; stroke-linecap:round; stroke-linejoin:round; stroke-width:4; stroke-opacity:1; fill:none" points="203.964,1423.18 203.964,123.472 "/>
<polyline clip-path="url(#clip770)" style="stroke:#000000; stroke-linecap:round; stroke-linejoin:round; stroke-width:4; stroke-opacity:1; fill:none" points="203.964,1386.4 222.861,1386.4 "/>
<polyline clip-path="url(#clip770)" style="stroke:#000000; stroke-linecap:round; stroke-linejoin:round; stroke-width:4; stroke-opacity:1; fill:none" points="203.964,1098.76 222.861,1098.76 "/>
<polyline clip-path="url(#clip770)" style="stroke:#000000; stroke-linecap:round; stroke-linejoin:round; stroke-width:4; stroke-opacity:1; fill:none" points="203.964,811.133 222.861,811.133 "/>
<polyline clip-path="url(#clip770)" style="stroke:#000000; stroke-linecap:round; stroke-linejoin:round; stroke-width:4; stroke-opacity:1; fill:none" points="203.964,523.501 222.861,523.501 "/>
<polyline clip-path="url(#clip770)" style="stroke:#000000; stroke-linecap:round; stroke-linejoin:round; stroke-width:4; stroke-opacity:1; fill:none" points="203.964,235.87 222.861,235.87 "/>
<path clip-path="url(#clip770)" d="M156.019 1372.19 Q152.408 1372.19 150.579 1375.76 Q148.774 1379.3 148.774 1386.43 Q148.774 1393.54 150.579 1397.1 Q152.408 1400.64 156.019 1400.64 Q159.653 1400.64 161.459 1397.1 Q163.288 1393.54 163.288 1386.43 Q163.288 1379.3 161.459 1375.76 Q159.653 1372.19 156.019 1372.19 M156.019 1368.49 Q161.829 1368.49 164.885 1373.1 Q167.964 1377.68 167.964 1386.43 Q167.964 1395.16 164.885 1399.76 Q161.829 1404.35 156.019 1404.35 Q150.209 1404.35 147.13 1399.76 Q144.075 1395.16 144.075 1386.43 Q144.075 1377.68 147.13 1373.1 Q150.209 1368.49 156.019 1368.49 Z" fill="#000000" fill-rule="nonzero" fill-opacity="1" /><path clip-path="url(#clip770)" d="M147.061 1081.48 L165.417 1081.48 L165.417 1085.42 L151.343 1085.42 L151.343 1093.89 Q152.362 1093.54 153.38 1093.38 Q154.399 1093.2 155.417 1093.2 Q161.204 1093.2 164.584 1096.37 Q167.964 1099.54 167.964 1104.96 Q167.964 1110.53 164.491 1113.64 Q161.019 1116.72 154.7 1116.72 Q152.524 1116.72 150.255 1116.35 Q148.01 1115.97 145.603 1115.23 L145.603 1110.53 Q147.686 1111.67 149.908 1112.22 Q152.13 1112.78 154.607 1112.78 Q158.612 1112.78 160.95 1110.67 Q163.288 1108.57 163.288 1104.96 Q163.288 1101.35 160.95 1099.24 Q158.612 1097.13 154.607 1097.13 Q152.732 1097.13 150.857 1097.55 Q149.005 1097.97 147.061 1098.85 L147.061 1081.48 Z" fill="#000000" fill-rule="nonzero" fill-opacity="1" /><path clip-path="url(#clip770)" d="M116.668 824.477 L124.306 824.477 L124.306 798.112 L115.996 799.778 L115.996 795.519 L124.26 793.853 L128.936 793.853 L128.936 824.477 L136.575 824.477 L136.575 828.413 L116.668 828.413 L116.668 824.477 Z" fill="#000000" fill-rule="nonzero" fill-opacity="1" /><path clip-path="url(#clip770)" d="M156.019 796.931 Q152.408 796.931 150.579 800.496 Q148.774 804.038 148.774 811.167 Q148.774 818.274 150.579 821.839 Q152.408 825.38 156.019 825.38 Q159.653 825.38 161.459 821.839 Q163.288 818.274 163.288 811.167 Q163.288 804.038 161.459 800.496 Q159.653 796.931 156.019 796.931 M156.019 793.228 Q161.829 793.228 164.885 797.834 Q167.964 802.417 167.964 811.167 Q167.964 819.894 164.885 824.501 Q161.829 829.084 156.019 829.084 Q150.209 829.084 147.13 824.501 Q144.075 819.894 144.075 811.167 Q144.075 802.417 147.13 797.834 Q150.209 793.228 156.019 793.228 Z" fill="#000000" fill-rule="nonzero" fill-opacity="1" /><path clip-path="url(#clip770)" d="M117.663 536.846 L125.302 536.846 L125.302 510.48 L116.992 512.147 L116.992 507.888 L125.255 506.221 L129.931 506.221 L129.931 536.846 L137.57 536.846 L137.57 540.781 L117.663 540.781 L117.663 536.846 Z" fill="#000000" fill-rule="nonzero" fill-opacity="1" /><path clip-path="url(#clip770)" d="M147.061 506.221 L165.417 506.221 L165.417 510.156 L151.343 510.156 L151.343 518.628 Q152.362 518.281 153.38 518.119 Q154.399 517.934 155.417 517.934 Q161.204 517.934 164.584 521.105 Q167.964 524.277 167.964 529.693 Q167.964 535.272 164.491 538.374 Q161.019 541.452 154.7 541.452 Q152.524 541.452 150.255 541.082 Q148.01 540.712 145.603 539.971 L145.603 535.272 Q147.686 536.406 149.908 536.962 Q152.13 537.517 154.607 537.517 Q158.612 537.517 160.95 535.411 Q163.288 533.304 163.288 529.693 Q163.288 526.082 160.95 523.976 Q158.612 521.869 154.607 521.869 Q152.732 521.869 150.857 522.286 Q149.005 522.702 147.061 523.582 L147.061 506.221 Z" fill="#000000" fill-rule="nonzero" fill-opacity="1" /><path clip-path="url(#clip770)" d="M119.885 249.214 L136.204 249.214 L136.204 253.15 L114.26 253.15 L114.26 249.214 Q116.922 246.46 121.505 241.83 Q126.112 237.177 127.292 235.835 Q129.538 233.312 130.417 231.576 Q131.32 229.816 131.32 228.126 Q131.32 225.372 129.376 223.636 Q127.455 221.9 124.353 221.9 Q122.154 221.9 119.7 222.664 Q117.269 223.427 114.492 224.978 L114.492 220.256 Q117.316 219.122 119.769 218.543 Q122.223 217.965 124.26 217.965 Q129.63 217.965 132.825 220.65 Q136.019 223.335 136.019 227.826 Q136.019 229.955 135.209 231.876 Q134.422 233.775 132.316 236.367 Q131.737 237.038 128.635 240.256 Q125.533 243.45 119.885 249.214 Z" fill="#000000" fill-rule="nonzero" fill-opacity="1" /><path clip-path="url(#clip770)" d="M156.019 221.668 Q152.408 221.668 150.579 225.233 Q148.774 228.775 148.774 235.904 Q148.774 243.011 150.579 246.575 Q152.408 250.117 156.019 250.117 Q159.653 250.117 161.459 246.575 Q163.288 243.011 163.288 235.904 Q163.288 228.775 161.459 225.233 Q159.653 221.668 156.019 221.668 M156.019 217.965 Q161.829 217.965 164.885 222.571 Q167.964 227.154 167.964 235.904 Q167.964 244.631 164.885 249.237 Q161.829 253.821 156.019 253.821 Q150.209 253.821 147.13 249.237 Q144.075 244.631 144.075 235.904 Q144.075 227.154 147.13 222.571 Q150.209 217.965 156.019 217.965 Z" fill="#000000" fill-rule="nonzero" fill-opacity="1" /><path clip-path="url(#clip770)" d="M29.7248 956.945 L35.1993 956.945 Q33.8307 959.427 33.1623 961.942 Q32.4621 964.424 32.4621 966.971 Q32.4621 972.668 36.0905 975.819 Q39.6872 978.97 46.212 978.97 Q52.7369 978.97 56.3653 975.819 Q59.9619 972.668 59.9619 966.971 Q59.9619 964.424 59.2935 961.942 Q58.5933 959.427 57.2247 956.945 L62.6355 956.945 Q63.7814 959.396 64.3543 962.037 Q64.9272 964.647 64.9272 967.607 Q64.9272 975.66 59.8664 980.402 Q54.8057 985.145 46.212 985.145 Q37.491 985.145 32.4939 980.371 Q27.4968 975.564 27.4968 967.225 Q27.4968 964.52 28.0697 961.942 Q28.6108 959.364 29.7248 956.945 Z" fill="#000000" fill-rule="nonzero" fill-opacity="1" /><path clip-path="url(#clip770)" d="M16.4842 953.094 L16.4842 912.894 L21.895 912.894 L21.895 929.763 L64.0042 929.763 L64.0042 936.224 L21.895 936.224 L21.895 953.094 L16.4842 953.094 Z" fill="#000000" fill-rule="nonzero" fill-opacity="1" /><path clip-path="url(#clip770)" d="M42.4881 877.31 L64.0042 877.31 L64.0042 883.166 L42.679 883.166 Q37.6183 883.166 35.1038 885.14 Q32.5894 887.113 32.5894 891.06 Q32.5894 895.802 35.6131 898.539 Q38.6368 901.277 43.8567 901.277 L64.0042 901.277 L64.0042 907.165 L28.3562 907.165 L28.3562 901.277 L33.8944 901.277 Q30.6797 899.176 29.0883 896.343 Q27.4968 893.479 27.4968 889.755 Q27.4968 883.612 31.3163 880.461 Q35.1038 877.31 42.4881 877.31 Z" fill="#000000" fill-rule="nonzero" fill-opacity="1" /><path clip-path="url(#clip770)" d="M16.4842 871.963 L16.4842 831.763 L21.895 831.763 L21.895 848.632 L64.0042 848.632 L64.0042 855.093 L21.895 855.093 L21.895 871.963 L16.4842 871.963 Z" fill="#000000" fill-rule="nonzero" fill-opacity="1" /><path clip-path="url(#clip770)" d="M14.479 805.632 L14.479 792.137 L19.0304 792.137 L19.0304 799.775 L68.0464 799.775 L68.0464 792.137 L72.5979 792.137 L72.5979 805.632 L14.479 805.632 Z" fill="#000000" fill-rule="nonzero" fill-opacity="1" /><path clip-path="url(#clip770)" d="M42.4881 750.027 L64.0042 750.027 L64.0042 755.884 L42.679 755.884 Q37.6183 755.884 35.1038 757.857 Q32.5894 759.831 32.5894 763.777 Q32.5894 768.52 35.6131 771.257 Q38.6368 773.994 43.8567 773.994 L64.0042 773.994 L64.0042 779.883 L28.3562 779.883 L28.3562 773.994 L33.8944 773.994 Q30.6797 771.894 29.0883 769.061 Q27.4968 766.196 27.4968 762.472 Q27.4968 756.33 31.3163 753.179 Q35.1038 750.027 42.4881 750.027 Z" fill="#000000" fill-rule="nonzero" fill-opacity="1" /><path clip-path="url(#clip770)" d="M45.7664 714.889 Q39.4007 714.889 35.8996 717.531 Q32.3984 720.141 32.3984 724.883 Q32.3984 729.594 35.8996 732.235 Q39.4007 734.845 45.7664 734.845 Q52.1003 734.845 55.6014 732.235 Q59.1026 729.594 59.1026 724.883 Q59.1026 720.141 55.6014 717.531 Q52.1003 714.889 45.7664 714.889 M59.58 709.032 Q68.683 709.032 73.1071 713.075 Q77.5631 717.117 77.5631 725.456 Q77.5631 728.543 77.0857 731.28 Q76.6401 734.018 75.6852 736.596 L69.9879 736.596 Q71.3884 734.018 72.0568 731.503 Q72.7252 728.989 72.7252 726.379 Q72.7252 720.618 69.7015 717.753 Q66.7096 714.889 60.6303 714.889 L57.7339 714.889 Q60.885 716.703 62.4446 719.536 Q64.0042 722.369 64.0042 726.315 Q64.0042 732.872 59.0071 736.882 Q54.01 740.893 45.7664 740.893 Q37.491 740.893 32.4939 736.882 Q27.4968 732.872 27.4968 726.315 Q27.4968 722.369 29.0564 719.536 Q30.616 716.703 33.7671 714.889 L28.3562 714.889 L28.3562 709.032 L59.58 709.032 Z" fill="#000000" fill-rule="nonzero" fill-opacity="1" /><path clip-path="url(#clip770)" d="M16.4842 686.561 L16.4842 681.151 L70.0516 697.701 L70.0516 703.112 L16.4842 686.561 Z" fill="#000000" fill-rule="nonzero" fill-opacity="1" /><path clip-path="url(#clip770)" d="M35.1993 647.253 Q31.2526 645.057 29.3747 642.001 Q27.4968 638.946 27.4968 634.808 Q27.4968 629.238 31.4117 626.215 Q35.2948 623.191 42.4881 623.191 L64.0042 623.191 L64.0042 629.079 L42.679 629.079 Q37.5546 629.079 35.072 630.893 Q32.5894 632.708 32.5894 636.431 Q32.5894 640.983 35.6131 643.625 Q38.6368 646.266 43.8567 646.266 L64.0042 646.266 L64.0042 652.155 L42.679 652.155 Q37.5228 652.155 35.072 653.969 Q32.5894 655.783 32.5894 659.571 Q32.5894 664.059 35.6449 666.7 Q38.6686 669.342 43.8567 669.342 L64.0042 669.342 L64.0042 675.23 L28.3562 675.23 L28.3562 669.342 L33.8944 669.342 Q30.616 667.337 29.0564 664.536 Q27.4968 661.735 27.4968 657.884 Q27.4968 654.001 29.4702 651.295 Q31.4436 648.558 35.1993 647.253 Z" fill="#000000" fill-rule="nonzero" fill-opacity="1" /><path clip-path="url(#clip770)" d="M16.4842 611.255 L16.4842 604.826 L58.5933 604.826 L58.5933 581.686 L64.0042 581.686 L64.0042 611.255 L16.4842 611.255 Z" fill="#000000" fill-rule="nonzero" fill-opacity="1" /><path clip-path="url(#clip770)" d="M14.479 561.507 L72.5979 561.507 L72.5979 575.002 L68.0464 575.002 L68.0464 567.395 L19.0304 567.395 L19.0304 575.002 L14.479 575.002 L14.479 561.507 Z" fill="#000000" fill-rule="nonzero" fill-opacity="1" /><path clip-path="url(#clip770)" d="M1030.28 18.8205 L1030.28 41.5461 L1040.57 41.5461 Q1046.28 41.5461 1049.4 38.5889 Q1052.52 35.6318 1052.52 30.163 Q1052.52 24.7348 1049.4 21.7777 Q1046.28 18.8205 1040.57 18.8205 L1030.28 18.8205 M1022.1 12.096 L1040.57 12.096 Q1050.74 12.096 1055.92 16.714 Q1061.15 21.2916 1061.15 30.163 Q1061.15 39.1155 1055.92 43.6931 Q1050.74 48.2706 1040.57 48.2706 L1030.28 48.2706 L1030.28 72.576 L1022.1 72.576 L1022.1 12.096 Z" fill="#000000" fill-rule="nonzero" fill-opacity="1" /><path clip-path="url(#clip770)" d="M1088.7 49.7694 Q1079.66 49.7694 1076.18 51.8354 Q1072.7 53.9013 1072.7 58.8839 Q1072.7 62.8538 1075.29 65.2034 Q1077.92 67.5124 1082.42 67.5124 Q1088.62 67.5124 1092.34 63.1374 Q1096.11 58.7219 1096.11 51.4303 L1096.11 49.7694 L1088.7 49.7694 M1103.56 46.6907 L1103.56 72.576 L1096.11 72.576 L1096.11 65.6895 Q1093.56 69.8214 1089.75 71.8063 Q1085.94 73.7508 1080.43 73.7508 Q1073.47 73.7508 1069.33 69.8619 Q1065.24 65.9325 1065.24 59.3701 Q1065.24 51.7138 1070.35 47.825 Q1075.49 43.9361 1085.66 43.9361 L1096.11 43.9361 L1096.11 43.2069 Q1096.11 38.0623 1092.71 35.2672 Q1089.34 32.4315 1083.23 32.4315 Q1079.34 32.4315 1075.65 33.3632 Q1071.97 34.295 1068.56 36.1584 L1068.56 29.2718 Q1072.65 27.692 1076.5 26.9223 Q1080.35 26.1121 1084 26.1121 Q1093.84 26.1121 1098.7 31.2163 Q1103.56 36.3204 1103.56 46.6907 Z" fill="#000000" fill-rule="nonzero" fill-opacity="1" /><path clip-path="url(#clip770)" d="M1126.29 14.324 L1126.29 27.2059 L1141.64 27.2059 L1141.64 32.9987 L1126.29 32.9987 L1126.29 57.6282 Q1126.29 63.1779 1127.79 64.7578 Q1129.33 66.3376 1133.99 66.3376 L1141.64 66.3376 L1141.64 72.576 L1133.99 72.576 Q1125.36 72.576 1122.08 69.3758 Q1118.79 66.1351 1118.79 57.6282 L1118.79 32.9987 L1113.33 32.9987 L1113.33 27.2059 L1118.79 27.2059 L1118.79 14.324 L1126.29 14.324 Z" fill="#000000" fill-rule="nonzero" fill-opacity="1" /><path clip-path="url(#clip770)" d="M1151.44 27.2059 L1158.9 27.2059 L1158.9 72.576 L1151.44 72.576 L1151.44 27.2059 M1151.44 9.54393 L1158.9 9.54393 L1158.9 18.9825 L1151.44 18.9825 L1151.44 9.54393 Z" fill="#000000" fill-rule="nonzero" fill-opacity="1" /><path clip-path="url(#clip770)" d="M1213.3 48.0275 L1213.3 51.6733 L1179.03 51.6733 Q1179.52 59.3701 1183.65 63.421 Q1187.82 67.4314 1195.24 67.4314 Q1199.53 67.4314 1203.54 66.3781 Q1207.59 65.3249 1211.56 63.2184 L1211.56 70.267 Q1207.55 71.9684 1203.34 72.8596 Q1199.12 73.7508 1194.79 73.7508 Q1183.93 73.7508 1177.57 67.4314 Q1171.25 61.1119 1171.25 50.3365 Q1171.25 39.1965 1177.25 32.6746 Q1183.29 26.1121 1193.49 26.1121 Q1202.65 26.1121 1207.96 32.0264 Q1213.3 37.9003 1213.3 48.0275 M1205.85 45.84 Q1205.77 39.7232 1202.41 36.0774 Q1199.08 32.4315 1193.57 32.4315 Q1187.34 32.4315 1183.57 35.9558 Q1179.84 39.4801 1179.27 45.8805 L1205.85 45.84 Z" fill="#000000" fill-rule="nonzero" fill-opacity="1" /><path clip-path="url(#clip770)" d="M1263.25 45.1919 L1263.25 72.576 L1255.8 72.576 L1255.8 45.4349 Q1255.8 38.994 1253.28 35.7938 Q1250.77 32.5936 1245.75 32.5936 Q1239.71 32.5936 1236.23 36.4419 Q1232.75 40.2903 1232.75 46.9338 L1232.75 72.576 L1225.25 72.576 L1225.25 27.2059 L1232.75 27.2059 L1232.75 34.2544 Q1235.42 30.163 1239.03 28.1376 Q1242.67 26.1121 1247.41 26.1121 Q1255.23 26.1121 1259.24 30.9732 Q1263.25 35.7938 1263.25 45.1919 Z" fill="#000000" fill-rule="nonzero" fill-opacity="1" /><path clip-path="url(#clip770)" d="M1285.49 14.324 L1285.49 27.2059 L1300.84 27.2059 L1300.84 32.9987 L1285.49 32.9987 L1285.49 57.6282 Q1285.49 63.1779 1286.99 64.7578 Q1288.53 66.3376 1293.19 66.3376 L1300.84 66.3376 L1300.84 72.576 L1293.19 72.576 Q1284.56 72.576 1281.28 69.3758 Q1278 66.1351 1278 57.6282 L1278 32.9987 L1272.53 32.9987 L1272.53 27.2059 L1278 27.2059 L1278 14.324 L1285.49 14.324 Z" fill="#000000" fill-rule="nonzero" fill-opacity="1" /><path clip-path="url(#clip770)" d="M1374.73 45.1919 L1374.73 72.576 L1367.28 72.576 L1367.28 45.4349 Q1367.28 38.994 1364.77 35.7938 Q1362.25 32.5936 1357.23 32.5936 Q1351.19 32.5936 1347.71 36.4419 Q1344.23 40.2903 1344.23 46.9338 L1344.23 72.576 L1336.73 72.576 L1336.73 27.2059 L1344.23 27.2059 L1344.23 34.2544 Q1346.9 30.163 1350.51 28.1376 Q1354.15 26.1121 1358.89 26.1121 Q1366.71 26.1121 1370.72 30.9732 Q1374.73 35.7938 1374.73 45.1919 Z" fill="#000000" fill-rule="nonzero" fill-opacity="1" /><path clip-path="url(#clip770)" d="M1413.13 19.2256 L1392.47 51.5113 L1413.13 51.5113 L1413.13 19.2256 M1410.99 12.096 L1421.28 12.096 L1421.28 51.5113 L1429.9 51.5113 L1429.9 58.3168 L1421.28 58.3168 L1421.28 72.576 L1413.13 72.576 L1413.13 58.3168 L1385.83 58.3168 L1385.83 50.4176 L1410.99 12.096 Z" fill="#000000" fill-rule="nonzero" fill-opacity="1" /><path clip-path="url(#clip770)" d="M1461.95 39.075 Q1456.44 39.075 1453.2 42.8424 Q1450 46.6097 1450 53.1722 Q1450 59.6941 1453.2 63.502 Q1456.44 67.2693 1461.95 67.2693 Q1467.46 67.2693 1470.66 63.502 Q1473.9 59.6941 1473.9 53.1722 Q1473.9 46.6097 1470.66 42.8424 Q1467.46 39.075 1461.95 39.075 M1478.19 13.4328 L1478.19 20.8865 Q1475.11 19.4281 1471.95 18.6585 Q1468.83 17.8888 1465.75 17.8888 Q1457.65 17.8888 1453.36 23.3575 Q1449.11 28.8262 1448.5 39.8852 Q1450.89 36.3609 1454.49 34.4975 Q1458.1 32.5936 1462.43 32.5936 Q1471.55 32.5936 1476.81 38.1433 Q1482.12 43.6525 1482.12 53.1722 Q1482.12 62.4892 1476.61 68.12 Q1471.1 73.7508 1461.95 73.7508 Q1451.45 73.7508 1445.91 65.73 Q1440.36 57.6687 1440.36 42.3968 Q1440.36 28.0566 1447.16 19.5497 Q1453.97 11.0023 1465.43 11.0023 Q1468.51 11.0023 1471.63 11.6099 Q1474.79 12.2175 1478.19 13.4328 Z" fill="#000000" fill-rule="nonzero" fill-opacity="1" /><path clip-path="url(#clip770)" d="M1513.72 17.4837 Q1507.4 17.4837 1504.2 23.7221 Q1501.04 29.92 1501.04 42.3968 Q1501.04 54.833 1504.2 61.0714 Q1507.4 67.2693 1513.72 67.2693 Q1520.08 67.2693 1523.24 61.0714 Q1526.44 54.833 1526.44 42.3968 Q1526.44 29.92 1523.24 23.7221 Q1520.08 17.4837 1513.72 17.4837 M1513.72 11.0023 Q1523.89 11.0023 1529.23 19.0636 Q1534.62 27.0843 1534.62 42.3968 Q1534.62 57.6687 1529.23 65.73 Q1523.89 73.7508 1513.72 73.7508 Q1503.55 73.7508 1498.16 65.73 Q1492.81 57.6687 1492.81 42.3968 Q1492.81 27.0843 1498.16 19.0636 Q1503.55 11.0023 1513.72 11.0023 Z" fill="#000000" fill-rule="nonzero" fill-opacity="1" /><polyline clip-path="url(#clip772)" style="stroke:#009af9; stroke-linecap:round; stroke-linejoin:round; stroke-width:8; stroke-opacity:1; fill:none" points="264.778,160.256 283.376,161.604 301.974,162.976 320.572,164.358 339.17,165.745 357.768,167.136 376.365,168.53 394.963,169.926 413.561,171.323 432.159,172.723 450.757,174.123 469.354,175.524 487.952,176.925 506.55,178.327 525.148,179.729 543.746,181.13 562.344,182.532 580.941,183.933 599.539,185.333 618.137,186.732 636.735,188.131 655.333,189.529 673.931,190.926 692.528,192.322 711.126,193.716 729.724,195.11 748.322,196.502 766.92,197.893 785.517,199.283 804.115,200.671 822.713,202.058 841.311,203.444 859.909,204.828 878.507,206.211 897.104,207.592 915.702,208.972 934.3,210.35 952.898,211.727 971.496,213.102 990.094,214.476 1008.69,215.848 1027.29,217.219 1045.89,218.588 1064.48,219.956 1083.08,221.322 1101.68,222.686 1120.28,224.049 1138.88,225.41 1157.47,226.77 1176.07,228.128 1194.67,229.485 1213.27,230.84 1231.87,232.194 1250.46,233.546 1269.06,234.896 1287.66,236.245 1306.26,237.592 1324.85,238.938 1343.45,240.282 1362.05,241.624 1380.65,242.965 1399.25,244.305 1417.84,245.643 1436.44,246.979 1455.04,248.314 1473.64,249.647 1492.23,250.978 1510.83,252.308 1529.43,253.637 1548.03,254.964 1566.63,256.289 1585.22,257.613 1603.82,258.935 1622.42,260.256 1641.02,261.575 1659.62,262.893 1678.21,264.209 1696.81,265.524 1715.41,266.837 1734.01,268.149 1752.6,269.459 1771.2,270.767 1789.8,272.074 1808.4,273.379 1827,274.683 1845.59,275.986 1864.19,277.287 1882.79,278.586 1901.39,279.884 1919.98,281.18 1938.58,282.475 1957.18,283.768 1975.78,285.06 1994.38,286.35 2012.97,287.639 2031.57,288.926 2050.17,290.212 2068.77,291.496 2087.36,292.779 2105.96,294.06 2124.56,295.34 2143.16,296.618 2161.76,297.895 2180.35,299.17 2198.95,300.444 2217.55,301.717 2236.15,302.988 2254.75,304.257 2273.34,305.525 2291.94,306.243 "/>
<polyline clip-path="url(#clip772)" style="stroke:#e26f46; stroke-linecap:round; stroke-linejoin:round; stroke-width:8; stroke-opacity:1; fill:none" points="264.778,1281.9 283.376,1317.52 301.974,1331.04 320.572,1338.15 339.17,1343.13 357.768,1347.21 376.365,1350.73 394.963,1353.83 413.561,1356.59 432.159,1359.03 450.757,1361.21 469.354,1363.14 487.952,1364.86 506.55,1366.39 525.148,1367.75 543.746,1368.96 562.344,1370.03 580.941,1370.99 599.539,1371.84 618.137,1372.6 636.735,1373.27 655.333,1373.88 673.931,1374.41 692.528,1374.88 711.126,1375.31 729.724,1375.69 748.322,1376.02 766.92,1376.33 785.517,1376.59 804.115,1376.83 822.713,1377.04 841.311,1377.23 859.909,1377.41 878.507,1377.56 897.104,1377.69 915.702,1377.82 934.3,1377.92 952.898,1378.02 971.496,1378.11 990.094,1378.19 1008.69,1378.26 1027.29,1378.33 1045.89,1378.39 1064.48,1378.44 1083.08,1378.49 1101.68,1378.53 1120.28,1378.57 1138.88,1378.61 1157.47,1378.64 1176.07,1378.67 1194.67,1378.7 1213.27,1378.73 1231.87,1378.75 1250.46,1378.77 1269.06,1378.79 1287.66,1378.81 1306.26,1378.83 1324.85,1378.85 1343.45,1378.86 1362.05,1378.88 1380.65,1378.89 1399.25,1378.91 1417.84,1378.92 1436.44,1378.93 1455.04,1378.95 1473.64,1378.96 1492.23,1378.97 1510.83,1378.98 1529.43,1378.99 1548.03,1379 1566.63,1379.01 1585.22,1379.02 1603.82,1379.04 1622.42,1379.04 1641.02,1379.05 1659.62,1379.06 1678.21,1379.07 1696.81,1379.08 1715.41,1379.09 1734.01,1379.1 1752.6,1379.11 1771.2,1379.12 1789.8,1379.13 1808.4,1379.14 1827,1379.14 1845.59,1379.15 1864.19,1379.16 1882.79,1379.17 1901.39,1379.18 1919.98,1379.19 1938.58,1379.2 1957.18,1379.21 1975.78,1379.21 1994.38,1379.22 2012.97,1379.23 2031.57,1379.24 2050.17,1379.25 2068.77,1379.26 2087.36,1379.26 2105.96,1379.27 2124.56,1379.28 2143.16,1379.29 2161.76,1379.3 2180.35,1379.3 2198.95,1379.32 2217.55,1379.32 2236.15,1379.33 2254.75,1379.34 2273.34,1379.35 2291.94,1379.35 "/>
<polyline clip-path="url(#clip772)" style="stroke:#3da44d; stroke-linecap:round; stroke-linejoin:round; stroke-width:8; stroke-opacity:1; fill:none" points="264.778,1386.4 283.376,1354.65 301.974,1349.14 320.572,1350.4 339.17,1353.18 357.768,1356.11 376.365,1358.83 394.963,1361.29 413.561,1363.48 432.159,1365.43 450.757,1367.16 469.354,1368.71 487.952,1370.08 506.55,1371.3 525.148,1372.38 543.746,1373.34 562.344,1374.2 580.941,1374.96 599.539,1375.64 618.137,1376.25 636.735,1376.79 655.333,1377.26 673.931,1377.69 692.528,1378.07 711.126,1378.4 729.724,1378.7 748.322,1378.98 766.92,1379.21 785.517,1379.43 804.115,1379.61 822.713,1379.78 841.311,1379.94 859.909,1380.07 878.507,1380.19 897.104,1380.3 915.702,1380.39 934.3,1380.48 952.898,1380.56 971.496,1380.63 990.094,1380.69 1008.69,1380.75 1027.29,1380.8 1045.89,1380.84 1064.48,1380.88 1083.08,1380.93 1101.68,1380.96 1120.28,1380.99 1138.88,1381.02 1157.47,1381.04 1176.07,1381.07 1194.67,1381.09 1213.27,1381.1 1231.87,1381.13 1250.46,1381.14 1269.06,1381.16 1287.66,1381.17 1306.26,1381.18 1324.85,1381.2 1343.45,1381.21 1362.05,1381.22 1380.65,1381.23 1399.25,1381.24 1417.84,1381.25 1436.44,1381.26 1455.04,1381.27 1473.64,1381.28 1492.23,1381.29 1510.83,1381.29 1529.43,1381.3 1548.03,1381.31 1566.63,1381.32 1585.22,1381.33 1603.82,1381.33 1622.42,1381.34 1641.02,1381.35 1659.62,1381.35 1678.21,1381.36 1696.81,1381.36 1715.41,1381.37 1734.01,1381.38 1752.6,1381.38 1771.2,1381.39 1789.8,1381.4 1808.4,1381.4 1827,1381.41 1845.59,1381.42 1864.19,1381.42 1882.79,1381.43 1901.39,1381.43 1919.98,1381.44 1938.58,1381.45 1957.18,1381.45 1975.78,1381.46 1994.38,1381.46 2012.97,1381.47 2031.57,1381.48 2050.17,1381.48 2068.77,1381.49 2087.36,1381.49 2105.96,1381.5 2124.56,1381.51 2143.16,1381.51 2161.76,1381.51 2180.35,1381.52 2198.95,1381.53 2217.55,1381.53 2236.15,1381.54 2254.75,1381.54 2273.34,1381.55 2291.94,1381.55 "/>
<circle clip-path="url(#clip772)" cx="417.281" cy="1365.69" r="18" fill="#c271d2" fill-rule="evenodd" fill-opacity="1" stroke="#000000" stroke-opacity="1" stroke-width="3.2"/>
<circle clip-path="url(#clip772)" cx="530.727" cy="1373.74" r="18" fill="#c271d2" fill-rule="evenodd" fill-opacity="1" stroke="#000000" stroke-opacity="1" stroke-width="3.2"/>
<circle clip-path="url(#clip772)" cx="691.598" cy="1378.34" r="18" fill="#c271d2" fill-rule="evenodd" fill-opacity="1" stroke="#000000" stroke-opacity="1" stroke-width="3.2"/>
<circle clip-path="url(#clip772)" cx="1551.75" cy="1381.22" r="18" fill="#c271d2" fill-rule="evenodd" fill-opacity="1" stroke="#000000" stroke-opacity="1" stroke-width="3.2"/>
<circle clip-path="url(#clip772)" cx="1697.12" cy="1381.22" r="18" fill="#c271d2" fill-rule="evenodd" fill-opacity="1" stroke="#000000" stroke-opacity="1" stroke-width="3.2"/>
<circle clip-path="url(#clip772)" cx="1846.52" cy="1380.64" r="18" fill="#c271d2" fill-rule="evenodd" fill-opacity="1" stroke="#000000" stroke-opacity="1" stroke-width="3.2"/>
<circle clip-path="url(#clip772)" cx="2079.31" cy="1382.37" r="18" fill="#c271d2" fill-rule="evenodd" fill-opacity="1" stroke="#000000" stroke-opacity="1" stroke-width="3.2"/>
<path clip-path="url(#clip770)" d="M1716.88 425.996 L2281.13 425.996 L2281.13 166.796 L1716.88 166.796  Z" fill="#ffffff" fill-rule="evenodd" fill-opacity="1"/>
<polyline clip-path="url(#clip770)" style="stroke:#000000; stroke-linecap:round; stroke-linejoin:round; stroke-width:4; stroke-opacity:1; fill:none" points="1716.88,425.996 2281.13,425.996 2281.13,166.796 1716.88,166.796 1716.88,425.996 "/>
<polyline clip-path="url(#clip770)" style="stroke:#009af9; stroke-linecap:round; stroke-linejoin:round; stroke-width:8; stroke-opacity:1; fill:none" points="1740.75,218.636 1884.01,218.636 "/>
<path clip-path="url(#clip770)" d="M1930.13 202.49 L1930.13 207.05 Q1927.46 205.777 1925.1 205.152 Q1922.74 204.527 1920.54 204.527 Q1916.72 204.527 1914.64 206.008 Q1912.58 207.49 1912.58 210.221 Q1912.58 212.513 1913.95 213.694 Q1915.33 214.851 1919.18 215.569 L1922 216.147 Q1927.23 217.143 1929.71 219.666 Q1932.21 222.166 1932.21 226.379 Q1932.21 231.402 1928.83 233.994 Q1925.47 236.587 1918.97 236.587 Q1916.52 236.587 1913.74 236.031 Q1910.98 235.476 1908.02 234.388 L1908.02 229.573 Q1910.87 231.17 1913.6 231.981 Q1916.33 232.791 1918.97 232.791 Q1922.97 232.791 1925.15 231.217 Q1927.33 229.643 1927.33 226.726 Q1927.33 224.18 1925.75 222.744 Q1924.2 221.309 1920.64 220.592 L1917.79 220.036 Q1912.56 218.995 1910.22 216.772 Q1907.88 214.55 1907.88 210.592 Q1907.88 206.008 1911.1 203.37 Q1914.34 200.731 1920.01 200.731 Q1922.44 200.731 1924.96 201.171 Q1927.49 201.61 1930.13 202.49 Z" fill="#000000" fill-rule="nonzero" fill-opacity="1" /><path clip-path="url(#clip770)" d="M1951.1 222.883 Q1945.94 222.883 1943.95 224.064 Q1941.95 225.244 1941.95 228.092 Q1941.95 230.36 1943.44 231.703 Q1944.94 233.022 1947.51 233.022 Q1951.05 233.022 1953.18 230.522 Q1955.33 227.999 1955.33 223.832 L1955.33 222.883 L1951.1 222.883 M1959.59 221.124 L1959.59 235.916 L1955.33 235.916 L1955.33 231.981 Q1953.88 234.342 1951.7 235.476 Q1949.52 236.587 1946.38 236.587 Q1942.39 236.587 1940.03 234.365 Q1937.7 232.119 1937.7 228.369 Q1937.7 223.994 1940.61 221.772 Q1943.55 219.55 1949.36 219.55 L1955.33 219.55 L1955.33 219.133 Q1955.33 216.194 1953.39 214.596 Q1951.47 212.976 1947.97 212.976 Q1945.75 212.976 1943.64 213.508 Q1941.54 214.041 1939.59 215.106 L1939.59 211.17 Q1941.93 210.268 1944.13 209.828 Q1946.33 209.365 1948.41 209.365 Q1954.04 209.365 1956.82 212.282 Q1959.59 215.198 1959.59 221.124 Z" fill="#000000" fill-rule="nonzero" fill-opacity="1" /><path clip-path="url(#clip770)" d="M1983.39 213.971 Q1982.67 213.555 1981.82 213.37 Q1980.98 213.161 1979.96 213.161 Q1976.35 213.161 1974.41 215.522 Q1972.49 217.86 1972.49 222.258 L1972.49 235.916 L1968.2 235.916 L1968.2 209.99 L1972.49 209.99 L1972.49 214.018 Q1973.83 211.657 1975.98 210.522 Q1978.14 209.365 1981.21 209.365 Q1981.65 209.365 1982.19 209.434 Q1982.72 209.481 1983.37 209.596 L1983.39 213.971 Z" fill="#000000" fill-rule="nonzero" fill-opacity="1" /><path clip-path="url(#clip770)" d="M2005.47 210.985 L2005.47 214.967 Q2003.67 213.971 2001.84 213.485 Q2000.03 212.976 1998.18 212.976 Q1994.04 212.976 1991.75 215.615 Q1989.45 218.231 1989.45 222.976 Q1989.45 227.721 1991.75 230.36 Q1994.04 232.976 1998.18 232.976 Q2000.03 232.976 2001.84 232.49 Q2003.67 231.981 2005.47 230.985 L2005.47 234.92 Q2003.69 235.754 2001.77 236.17 Q1999.87 236.587 1997.72 236.587 Q1991.86 236.587 1988.41 232.906 Q1984.96 229.226 1984.96 222.976 Q1984.96 216.633 1988.44 212.999 Q1991.93 209.365 1998 209.365 Q1999.96 209.365 2001.84 209.782 Q2003.71 210.175 2005.47 210.985 Z" fill="#000000" fill-rule="nonzero" fill-opacity="1" /><path clip-path="url(#clip770)" d="M2022.93 212.976 Q2019.5 212.976 2017.51 215.661 Q2015.52 218.323 2015.52 222.976 Q2015.52 227.629 2017.49 230.314 Q2019.48 232.976 2022.93 232.976 Q2026.33 232.976 2028.32 230.291 Q2030.31 227.606 2030.31 222.976 Q2030.31 218.37 2028.32 215.684 Q2026.33 212.976 2022.93 212.976 M2022.93 209.365 Q2028.48 209.365 2031.65 212.976 Q2034.82 216.587 2034.82 222.976 Q2034.82 229.342 2031.65 232.976 Q2028.48 236.587 2022.93 236.587 Q2017.35 236.587 2014.18 232.976 Q2011.03 229.342 2011.03 222.976 Q2011.03 216.587 2014.18 212.976 Q2017.35 209.365 2022.93 209.365 Z" fill="#000000" fill-rule="nonzero" fill-opacity="1" /><path clip-path="url(#clip770)" d="M2062.07 214.967 Q2063.67 212.096 2065.89 210.731 Q2068.11 209.365 2071.12 209.365 Q2075.17 209.365 2077.37 212.212 Q2079.57 215.036 2079.57 220.268 L2079.57 235.916 L2075.29 235.916 L2075.29 220.407 Q2075.29 216.68 2073.97 214.874 Q2072.65 213.069 2069.94 213.069 Q2066.63 213.069 2064.71 215.268 Q2062.79 217.467 2062.79 221.263 L2062.79 235.916 L2058.51 235.916 L2058.51 220.407 Q2058.51 216.657 2057.19 214.874 Q2055.87 213.069 2053.11 213.069 Q2049.85 213.069 2047.93 215.291 Q2046.01 217.49 2046.01 221.263 L2046.01 235.916 L2041.72 235.916 L2041.72 209.99 L2046.01 209.99 L2046.01 214.018 Q2047.46 211.633 2049.5 210.499 Q2051.54 209.365 2054.34 209.365 Q2057.16 209.365 2059.13 210.8 Q2061.12 212.235 2062.07 214.967 Z" fill="#000000" fill-rule="nonzero" fill-opacity="1" /><path clip-path="url(#clip770)" d="M2110.24 221.888 L2110.24 223.971 L2090.66 223.971 Q2090.94 228.369 2093.3 230.684 Q2095.68 232.976 2099.92 232.976 Q2102.37 232.976 2104.66 232.374 Q2106.98 231.772 2109.25 230.569 L2109.25 234.596 Q2106.95 235.568 2104.55 236.078 Q2102.14 236.587 2099.66 236.587 Q2093.46 236.587 2089.82 232.976 Q2086.21 229.365 2086.21 223.207 Q2086.21 216.842 2089.64 213.115 Q2093.09 209.365 2098.92 209.365 Q2104.15 209.365 2107.19 212.745 Q2110.24 216.101 2110.24 221.888 M2105.98 220.638 Q2105.94 217.143 2104.01 215.059 Q2102.12 212.976 2098.97 212.976 Q2095.4 212.976 2093.25 214.99 Q2091.12 217.004 2090.8 220.661 L2105.98 220.638 Z" fill="#000000" fill-rule="nonzero" fill-opacity="1" /><path clip-path="url(#clip770)" d="M2132.25 213.971 Q2131.54 213.555 2130.68 213.37 Q2129.85 213.161 2128.83 213.161 Q2125.22 213.161 2123.27 215.522 Q2121.35 217.86 2121.35 222.258 L2121.35 235.916 L2117.07 235.916 L2117.07 209.99 L2121.35 209.99 L2121.35 214.018 Q2122.69 211.657 2124.85 210.522 Q2127 209.365 2130.08 209.365 Q2130.52 209.365 2131.05 209.434 Q2131.58 209.481 2132.23 209.596 L2132.25 213.971 Z" fill="#000000" fill-rule="nonzero" fill-opacity="1" /><path clip-path="url(#clip770)" d="M2157.86 221.888 L2157.86 223.971 L2138.27 223.971 Q2138.55 228.369 2140.91 230.684 Q2143.3 232.976 2147.53 232.976 Q2149.99 232.976 2152.28 232.374 Q2154.59 231.772 2156.86 230.569 L2156.86 234.596 Q2154.57 235.568 2152.16 236.078 Q2149.75 236.587 2147.28 236.587 Q2141.07 236.587 2137.44 232.976 Q2133.83 229.365 2133.83 223.207 Q2133.83 216.842 2137.25 213.115 Q2140.7 209.365 2146.54 209.365 Q2151.77 209.365 2154.8 212.745 Q2157.86 216.101 2157.86 221.888 M2153.6 220.638 Q2153.55 217.143 2151.63 215.059 Q2149.73 212.976 2146.58 212.976 Q2143.02 212.976 2140.87 214.99 Q2138.74 217.004 2138.41 220.661 L2153.6 220.638 Z" fill="#000000" fill-rule="nonzero" fill-opacity="1" /><polyline clip-path="url(#clip770)" style="stroke:#e26f46; stroke-linecap:round; stroke-linejoin:round; stroke-width:8; stroke-opacity:1; fill:none" points="1740.75,270.476 1884.01,270.476 "/>
<path clip-path="url(#clip770)" d="M1935.75 255.858 L1935.75 260.788 Q1933.39 258.589 1930.7 257.501 Q1928.04 256.413 1925.03 256.413 Q1919.11 256.413 1915.96 260.048 Q1912.81 263.659 1912.81 270.51 Q1912.81 277.339 1915.96 280.973 Q1919.11 284.584 1925.03 284.584 Q1928.04 284.584 1930.7 283.496 Q1933.39 282.409 1935.75 280.209 L1935.75 285.094 Q1933.3 286.76 1930.54 287.594 Q1927.81 288.427 1924.76 288.427 Q1916.91 288.427 1912.39 283.635 Q1907.88 278.821 1907.88 270.51 Q1907.88 262.177 1912.39 257.386 Q1916.91 252.571 1924.76 252.571 Q1927.86 252.571 1930.59 253.404 Q1933.34 254.214 1935.75 255.858 Z" fill="#000000" fill-rule="nonzero" fill-opacity="1" /><path clip-path="url(#clip770)" d="M1953.58 290.163 Q1951.77 294.793 1950.06 296.205 Q1948.34 297.617 1945.47 297.617 L1942.07 297.617 L1942.07 294.052 L1944.57 294.052 Q1946.33 294.052 1947.3 293.219 Q1948.27 292.385 1949.45 289.283 L1950.22 287.339 L1939.73 261.83 L1944.25 261.83 L1952.35 282.108 L1960.45 261.83 L1964.96 261.83 L1953.58 290.163 Z" fill="#000000" fill-rule="nonzero" fill-opacity="1" /><path clip-path="url(#clip770)" d="M1975.06 254.469 L1975.06 261.83 L1983.83 261.83 L1983.83 265.14 L1975.06 265.14 L1975.06 279.214 Q1975.06 282.385 1975.91 283.288 Q1976.79 284.191 1979.45 284.191 L1983.83 284.191 L1983.83 287.756 L1979.45 287.756 Q1974.52 287.756 1972.65 285.927 Q1970.77 284.075 1970.77 279.214 L1970.77 265.14 L1967.65 265.14 L1967.65 261.83 L1970.77 261.83 L1970.77 254.469 L1975.06 254.469 Z" fill="#000000" fill-rule="nonzero" fill-opacity="1" /><path clip-path="url(#clip770)" d="M1999.48 264.816 Q1996.05 264.816 1994.06 267.501 Q1992.07 270.163 1992.07 274.816 Q1992.07 279.469 1994.04 282.154 Q1996.03 284.816 1999.48 284.816 Q2002.88 284.816 2004.87 282.131 Q2006.86 279.446 2006.86 274.816 Q2006.86 270.21 2004.87 267.524 Q2002.88 264.816 1999.48 264.816 M1999.48 261.205 Q2005.03 261.205 2008.2 264.816 Q2011.38 268.427 2011.38 274.816 Q2011.38 281.182 2008.2 284.816 Q2005.03 288.427 1999.48 288.427 Q1993.9 288.427 1990.73 284.816 Q1987.58 281.182 1987.58 274.816 Q1987.58 268.427 1990.73 264.816 Q1993.9 261.205 1999.48 261.205 Z" fill="#000000" fill-rule="nonzero" fill-opacity="1" /><path clip-path="url(#clip770)" d="M2034.96 262.594 L2034.96 266.622 Q2033.16 265.696 2031.21 265.233 Q2029.27 264.77 2027.19 264.77 Q2024.01 264.77 2022.42 265.742 Q2020.84 266.714 2020.84 268.659 Q2020.84 270.14 2021.98 270.997 Q2023.11 271.83 2026.54 272.594 L2028 272.918 Q2032.53 273.89 2034.43 275.672 Q2036.35 277.432 2036.35 280.603 Q2036.35 284.214 2033.48 286.321 Q2030.63 288.427 2025.63 288.427 Q2023.55 288.427 2021.28 288.01 Q2019.04 287.617 2016.54 286.807 L2016.54 282.409 Q2018.9 283.635 2021.19 284.26 Q2023.48 284.862 2025.73 284.862 Q2028.74 284.862 2030.36 283.844 Q2031.98 282.802 2031.98 280.927 Q2031.98 279.191 2030.8 278.265 Q2029.64 277.339 2025.68 276.483 L2024.2 276.135 Q2020.24 275.302 2018.48 273.589 Q2016.72 271.853 2016.72 268.844 Q2016.72 265.186 2019.32 263.196 Q2021.91 261.205 2026.68 261.205 Q2029.04 261.205 2031.12 261.552 Q2033.2 261.899 2034.96 262.594 Z" fill="#000000" fill-rule="nonzero" fill-opacity="1" /><path clip-path="url(#clip770)" d="M2053.18 264.816 Q2049.76 264.816 2047.76 267.501 Q2045.77 270.163 2045.77 274.816 Q2045.77 279.469 2047.74 282.154 Q2049.73 284.816 2053.18 284.816 Q2056.58 284.816 2058.57 282.131 Q2060.57 279.446 2060.57 274.816 Q2060.57 270.21 2058.57 267.524 Q2056.58 264.816 2053.18 264.816 M2053.18 261.205 Q2058.74 261.205 2061.91 264.816 Q2065.08 268.427 2065.08 274.816 Q2065.08 281.182 2061.91 284.816 Q2058.74 288.427 2053.18 288.427 Q2047.6 288.427 2044.43 284.816 Q2041.28 281.182 2041.28 274.816 Q2041.28 268.427 2044.43 264.816 Q2047.6 261.205 2053.18 261.205 Z" fill="#000000" fill-rule="nonzero" fill-opacity="1" /><path clip-path="url(#clip770)" d="M2072.14 251.737 L2076.4 251.737 L2076.4 287.756 L2072.14 287.756 L2072.14 251.737 Z" fill="#000000" fill-rule="nonzero" fill-opacity="1" /><polyline clip-path="url(#clip770)" style="stroke:#3da44d; stroke-linecap:round; stroke-linejoin:round; stroke-width:8; stroke-opacity:1; fill:none" points="1740.75,322.316 1884.01,322.316 "/>
<path clip-path="url(#clip770)" d="M1912.56 323.091 L1912.56 335.753 L1920.06 335.753 Q1923.83 335.753 1925.64 334.202 Q1927.46 332.628 1927.46 329.411 Q1927.46 326.17 1925.64 324.642 Q1923.83 323.091 1920.06 323.091 L1912.56 323.091 M1912.56 308.878 L1912.56 319.295 L1919.48 319.295 Q1922.9 319.295 1924.57 318.022 Q1926.26 316.725 1926.26 314.087 Q1926.26 311.471 1924.57 310.175 Q1922.9 308.878 1919.48 308.878 L1912.56 308.878 M1907.88 305.036 L1919.83 305.036 Q1925.17 305.036 1928.07 307.258 Q1930.96 309.48 1930.96 313.577 Q1930.96 316.749 1929.48 318.624 Q1928 320.499 1925.13 320.962 Q1928.58 321.702 1930.47 324.063 Q1932.39 326.401 1932.39 329.92 Q1932.39 334.549 1929.25 337.073 Q1926.1 339.596 1920.29 339.596 L1907.88 339.596 L1907.88 305.036 Z" fill="#000000" fill-rule="nonzero" fill-opacity="1" /><path clip-path="url(#clip770)" d="M1940.22 303.577 L1944.48 303.577 L1944.48 339.596 L1940.22 339.596 L1940.22 303.577 Z" fill="#000000" fill-rule="nonzero" fill-opacity="1" /><path clip-path="url(#clip770)" d="M1963.44 316.656 Q1960.01 316.656 1958.02 319.341 Q1956.03 322.003 1956.03 326.656 Q1956.03 331.309 1958 333.994 Q1959.99 336.656 1963.44 336.656 Q1966.84 336.656 1968.83 333.971 Q1970.82 331.286 1970.82 326.656 Q1970.82 322.05 1968.83 319.364 Q1966.84 316.656 1963.44 316.656 M1963.44 313.045 Q1968.99 313.045 1972.16 316.656 Q1975.33 320.267 1975.33 326.656 Q1975.33 333.022 1972.16 336.656 Q1968.99 340.267 1963.44 340.267 Q1957.86 340.267 1954.69 336.656 Q1951.54 333.022 1951.54 326.656 Q1951.54 320.267 1954.69 316.656 Q1957.86 313.045 1963.44 313.045 Z" fill="#000000" fill-rule="nonzero" fill-opacity="1" /><path clip-path="url(#clip770)" d="M1992.44 316.656 Q1989.01 316.656 1987.02 319.341 Q1985.03 322.003 1985.03 326.656 Q1985.03 331.309 1987 333.994 Q1988.99 336.656 1992.44 336.656 Q1995.84 336.656 1997.83 333.971 Q1999.82 331.286 1999.82 326.656 Q1999.82 322.05 1997.83 319.364 Q1995.84 316.656 1992.44 316.656 M1992.44 313.045 Q1998 313.045 2001.17 316.656 Q2004.34 320.267 2004.34 326.656 Q2004.34 333.022 2001.17 336.656 Q1998 340.267 1992.44 340.267 Q1986.86 340.267 1983.69 336.656 Q1980.54 333.022 1980.54 326.656 Q1980.54 320.267 1983.69 316.656 Q1986.86 313.045 1992.44 313.045 Z" fill="#000000" fill-rule="nonzero" fill-opacity="1" /><path clip-path="url(#clip770)" d="M2028.46 317.605 L2028.46 303.577 L2032.72 303.577 L2032.72 339.596 L2028.46 339.596 L2028.46 335.707 Q2027.12 338.022 2025.06 339.156 Q2023.02 340.267 2020.15 340.267 Q2015.45 340.267 2012.49 336.517 Q2009.55 332.767 2009.55 326.656 Q2009.55 320.545 2012.49 316.795 Q2015.45 313.045 2020.15 313.045 Q2023.02 313.045 2025.06 314.179 Q2027.12 315.29 2028.46 317.605 M2013.95 326.656 Q2013.95 331.355 2015.87 334.04 Q2017.81 336.702 2021.19 336.702 Q2024.57 336.702 2026.51 334.04 Q2028.46 331.355 2028.46 326.656 Q2028.46 321.957 2026.51 319.295 Q2024.57 316.61 2021.19 316.61 Q2017.81 316.61 2015.87 319.295 Q2013.95 321.957 2013.95 326.656 Z" fill="#000000" fill-rule="nonzero" fill-opacity="1" /><circle clip-path="url(#clip770)" cx="1812.38" cy="374.156" r="20.9455" fill="#c271d2" fill-rule="evenodd" fill-opacity="1" stroke="#000000" stroke-opacity="1" stroke-width="3.72364"/>
<path clip-path="url(#clip770)" d="M1923.9 360.047 Q1918.81 360.047 1915.8 363.843 Q1912.81 367.64 1912.81 374.19 Q1912.81 380.718 1915.8 384.514 Q1918.81 388.311 1923.9 388.311 Q1928.99 388.311 1931.95 384.514 Q1934.94 380.718 1934.94 374.19 Q1934.94 367.64 1931.95 363.843 Q1928.99 360.047 1923.9 360.047 M1923.9 356.251 Q1931.17 356.251 1935.52 361.135 Q1939.87 365.996 1939.87 374.19 Q1939.87 382.362 1935.52 387.246 Q1931.17 392.107 1923.9 392.107 Q1916.61 392.107 1912.23 387.246 Q1907.88 382.385 1907.88 374.19 Q1907.88 365.996 1912.23 361.135 Q1916.61 356.251 1923.9 356.251 Z" fill="#000000" fill-rule="nonzero" fill-opacity="1" /><path clip-path="url(#clip770)" d="M1965.61 378.496 Q1965.61 373.797 1963.67 371.135 Q1961.75 368.45 1958.37 368.45 Q1954.99 368.45 1953.04 371.135 Q1951.12 373.797 1951.12 378.496 Q1951.12 383.195 1953.04 385.88 Q1954.99 388.542 1958.37 388.542 Q1961.75 388.542 1963.67 385.88 Q1965.61 383.195 1965.61 378.496 M1951.12 369.445 Q1952.46 367.13 1954.5 366.019 Q1956.56 364.885 1959.41 364.885 Q1964.13 364.885 1967.07 368.635 Q1970.03 372.385 1970.03 378.496 Q1970.03 384.607 1967.07 388.357 Q1964.13 392.107 1959.41 392.107 Q1956.56 392.107 1954.5 390.996 Q1952.46 389.862 1951.12 387.547 L1951.12 391.436 L1946.84 391.436 L1946.84 355.417 L1951.12 355.417 L1951.12 369.445 Z" fill="#000000" fill-rule="nonzero" fill-opacity="1" /><path clip-path="url(#clip770)" d="M1993.62 366.274 L1993.62 370.302 Q1991.82 369.376 1989.87 368.913 Q1987.93 368.45 1985.84 368.45 Q1982.67 368.45 1981.07 369.422 Q1979.5 370.394 1979.5 372.339 Q1979.5 373.82 1980.64 374.677 Q1981.77 375.51 1985.2 376.274 L1986.65 376.598 Q1991.19 377.57 1993.09 379.352 Q1995.01 381.112 1995.01 384.283 Q1995.01 387.894 1992.14 390.001 Q1989.29 392.107 1984.29 392.107 Q1982.21 392.107 1979.94 391.69 Q1977.7 391.297 1975.2 390.487 L1975.2 386.089 Q1977.56 387.315 1979.85 387.94 Q1982.14 388.542 1984.39 388.542 Q1987.39 388.542 1989.01 387.524 Q1990.64 386.482 1990.64 384.607 Q1990.64 382.871 1989.45 381.945 Q1988.3 381.019 1984.34 380.163 L1982.86 379.815 Q1978.9 378.982 1977.14 377.269 Q1975.38 375.533 1975.38 372.524 Q1975.38 368.866 1977.97 366.876 Q1980.57 364.885 1985.33 364.885 Q1987.7 364.885 1989.78 365.232 Q1991.86 365.579 1993.62 366.274 Z" fill="#000000" fill-rule="nonzero" fill-opacity="1" /><path clip-path="url(#clip770)" d="M2023.97 377.408 L2023.97 379.491 L2004.39 379.491 Q2004.66 383.889 2007.02 386.204 Q2009.41 388.496 2013.64 388.496 Q2016.1 388.496 2018.39 387.894 Q2020.7 387.292 2022.97 386.089 L2022.97 390.116 Q2020.68 391.088 2018.27 391.598 Q2015.87 392.107 2013.39 392.107 Q2007.19 392.107 2003.55 388.496 Q1999.94 384.885 1999.94 378.727 Q1999.94 372.362 2003.37 368.635 Q2006.82 364.885 2012.65 364.885 Q2017.88 364.885 2020.91 368.265 Q2023.97 371.621 2023.97 377.408 M2019.71 376.158 Q2019.66 372.663 2017.74 370.579 Q2015.84 368.496 2012.7 368.496 Q2009.13 368.496 2006.98 370.51 Q2004.85 372.524 2004.52 376.181 L2019.71 376.158 Z" fill="#000000" fill-rule="nonzero" fill-opacity="1" /><path clip-path="url(#clip770)" d="M2045.98 369.491 Q2045.26 369.075 2044.41 368.89 Q2043.57 368.681 2042.56 368.681 Q2038.95 368.681 2037 371.042 Q2035.08 373.38 2035.08 377.778 L2035.08 391.436 L2030.8 391.436 L2030.8 365.51 L2035.08 365.51 L2035.08 369.538 Q2036.42 367.177 2038.57 366.042 Q2040.73 364.885 2043.81 364.885 Q2044.25 364.885 2044.78 364.954 Q2045.31 365.001 2045.96 365.116 L2045.98 369.491 Z" fill="#000000" fill-rule="nonzero" fill-opacity="1" /><path clip-path="url(#clip770)" d="M2047.39 365.51 L2051.91 365.51 L2060.01 387.269 L2068.11 365.51 L2072.63 365.51 L2062.9 391.436 L2057.12 391.436 L2047.39 365.51 Z" fill="#000000" fill-rule="nonzero" fill-opacity="1" /><path clip-path="url(#clip770)" d="M2100.68 377.408 L2100.68 379.491 L2081.1 379.491 Q2081.38 383.889 2083.74 386.204 Q2086.12 388.496 2090.36 388.496 Q2092.81 388.496 2095.1 387.894 Q2097.42 387.292 2099.69 386.089 L2099.69 390.116 Q2097.39 391.088 2094.99 391.598 Q2092.58 392.107 2090.1 392.107 Q2083.9 392.107 2080.26 388.496 Q2076.65 384.885 2076.65 378.727 Q2076.65 372.362 2080.08 368.635 Q2083.53 364.885 2089.36 364.885 Q2094.59 364.885 2097.63 368.265 Q2100.68 371.621 2100.68 377.408 M2096.42 376.158 Q2096.38 372.663 2094.45 370.579 Q2092.56 368.496 2089.41 368.496 Q2085.84 368.496 2083.69 370.51 Q2081.56 372.524 2081.24 376.181 L2096.42 376.158 Z" fill="#000000" fill-rule="nonzero" fill-opacity="1" /><path clip-path="url(#clip770)" d="M2124.73 369.445 L2124.73 355.417 L2128.99 355.417 L2128.99 391.436 L2124.73 391.436 L2124.73 387.547 Q2123.39 389.862 2121.33 390.996 Q2119.29 392.107 2116.42 392.107 Q2111.72 392.107 2108.76 388.357 Q2105.82 384.607 2105.82 378.496 Q2105.82 372.385 2108.76 368.635 Q2111.72 364.885 2116.42 364.885 Q2119.29 364.885 2121.33 366.019 Q2123.39 367.13 2124.73 369.445 M2110.22 378.496 Q2110.22 383.195 2112.14 385.88 Q2114.08 388.542 2117.46 388.542 Q2120.84 388.542 2122.79 385.88 Q2124.73 383.195 2124.73 378.496 Q2124.73 373.797 2122.79 371.135 Q2120.84 368.45 2117.46 368.45 Q2114.08 368.45 2112.14 371.135 Q2110.22 373.797 2110.22 378.496 Z" fill="#000000" fill-rule="nonzero" fill-opacity="1" /><path clip-path="url(#clip770)" d="M2157.69 360.718 L2157.69 387.593 L2163.34 387.593 Q2170.5 387.593 2173.81 384.352 Q2177.14 381.112 2177.14 374.121 Q2177.14 367.177 2173.81 363.959 Q2170.5 360.718 2163.34 360.718 L2157.69 360.718 M2153.02 356.876 L2162.62 356.876 Q2172.67 356.876 2177.37 361.066 Q2182.07 365.232 2182.07 374.121 Q2182.07 383.056 2177.35 387.246 Q2172.62 391.436 2162.62 391.436 L2153.02 391.436 L2153.02 356.876 Z" fill="#000000" fill-rule="nonzero" fill-opacity="1" /><path clip-path="url(#clip770)" d="M2201.12 378.403 Q2195.96 378.403 2193.97 379.584 Q2191.98 380.764 2191.98 383.612 Q2191.98 385.88 2193.46 387.223 Q2194.96 388.542 2197.53 388.542 Q2201.07 388.542 2203.2 386.042 Q2205.36 383.519 2205.36 379.352 L2205.36 378.403 L2201.12 378.403 M2209.62 376.644 L2209.62 391.436 L2205.36 391.436 L2205.36 387.501 Q2203.9 389.862 2201.72 390.996 Q2199.55 392.107 2196.4 392.107 Q2192.42 392.107 2190.06 389.885 Q2187.72 387.639 2187.72 383.889 Q2187.72 379.514 2190.63 377.292 Q2193.57 375.07 2199.38 375.07 L2205.36 375.07 L2205.36 374.653 Q2205.36 371.714 2203.41 370.116 Q2201.49 368.496 2198 368.496 Q2195.77 368.496 2193.67 369.028 Q2191.56 369.561 2189.62 370.626 L2189.62 366.69 Q2191.95 365.788 2194.15 365.348 Q2196.35 364.885 2198.43 364.885 Q2204.06 364.885 2206.84 367.802 Q2209.62 370.718 2209.62 376.644 Z" fill="#000000" fill-rule="nonzero" fill-opacity="1" /><path clip-path="url(#clip770)" d="M2222.6 358.149 L2222.6 365.51 L2231.37 365.51 L2231.37 368.82 L2222.6 368.82 L2222.6 382.894 Q2222.6 386.065 2223.46 386.968 Q2224.34 387.871 2227 387.871 L2231.37 387.871 L2231.37 391.436 L2227 391.436 Q2222.07 391.436 2220.19 389.607 Q2218.32 387.755 2218.32 382.894 L2218.32 368.82 L2215.19 368.82 L2215.19 365.51 L2218.32 365.51 L2218.32 358.149 L2222.6 358.149 Z" fill="#000000" fill-rule="nonzero" fill-opacity="1" /><path clip-path="url(#clip770)" d="M2248.76 378.403 Q2243.6 378.403 2241.61 379.584 Q2239.62 380.764 2239.62 383.612 Q2239.62 385.88 2241.1 387.223 Q2242.6 388.542 2245.17 388.542 Q2248.71 388.542 2250.84 386.042 Q2252.99 383.519 2252.99 379.352 L2252.99 378.403 L2248.76 378.403 M2257.25 376.644 L2257.25 391.436 L2252.99 391.436 L2252.99 387.501 Q2251.54 389.862 2249.36 390.996 Q2247.18 392.107 2244.04 392.107 Q2240.06 392.107 2237.69 389.885 Q2235.36 387.639 2235.36 383.889 Q2235.36 379.514 2238.27 377.292 Q2241.21 375.07 2247.02 375.07 L2252.99 375.07 L2252.99 374.653 Q2252.99 371.714 2251.05 370.116 Q2249.13 368.496 2245.63 368.496 Q2243.41 368.496 2241.31 369.028 Q2239.2 369.561 2237.25 370.626 L2237.25 366.69 Q2239.59 365.788 2241.79 365.348 Q2243.99 364.885 2246.07 364.885 Q2251.7 364.885 2254.48 367.802 Q2257.25 370.718 2257.25 376.644 Z" fill="#000000" fill-rule="nonzero" fill-opacity="1" /></svg>
