<?xml version="1.0" encoding="utf-8"?>
<svg xmlns="http://www.w3.org/2000/svg" xmlns:xlink="http://www.w3.org/1999/xlink" width="600" height="400" viewBox="0 0 2400 1600">
<defs>
  <clipPath id="clip340">
    <rect x="0" y="0" width="2400" height="1600"/>
  </clipPath>
</defs>
<path clip-path="url(#clip340)" d="M0 1600 L2400 1600 L2400 0 L0 0  Z" fill="#ffffff" fill-rule="evenodd" fill-opacity="1"/>
<defs>
  <clipPath id="clip341">
    <rect x="480" y="0" width="1681" height="1600"/>
  </clipPath>
</defs>
<path clip-path="url(#clip340)" d="M157.447 1474.16 L2352.76 1474.16 L2352.76 47.2441 L157.447 47.2441  Z" fill="#ffffff" fill-rule="evenodd" fill-opacity="1"/>
<defs>
  <clipPath id="clip342">
    <rect x="157" y="47" width="2196" height="1428"/>
  </clipPath>
</defs>
<polyline clip-path="url(#clip342)" style="stroke:#000000; stroke-linecap:round; stroke-linejoin:round; stroke-width:2; stroke-opacity:0.1; fill:none" points="219.579,1474.16 219.579,47.2441 "/>
<polyline clip-path="url(#clip342)" style="stroke:#000000; stroke-linecap:round; stroke-linejoin:round; stroke-width:2; stroke-opacity:0.1; fill:none" points="1621.2,1474.16 1621.2,47.2441 "/>
<polyline clip-path="url(#clip342)" style="stroke:#000000; stroke-linecap:round; stroke-linejoin:round; stroke-width:2; stroke-opacity:0.1; fill:none" points="157.447,1063.1 2352.76,1063.1 "/>
<polyline clip-path="url(#clip342)" style="stroke:#000000; stroke-linecap:round; stroke-linejoin:round; stroke-width:2; stroke-opacity:0.1; fill:none" points="157.447,637.369 2352.76,637.369 "/>
<polyline clip-path="url(#clip342)" style="stroke:#000000; stroke-linecap:round; stroke-linejoin:round; stroke-width:2; stroke-opacity:0.1; fill:none" points="157.447,211.637 2352.76,211.637 "/>
<polyline clip-path="url(#clip340)" style="stroke:#000000; stroke-linecap:round; stroke-linejoin:round; stroke-width:4; stroke-opacity:1; fill:none" points="157.447,1474.16 2352.76,1474.16 "/>
<polyline clip-path="url(#clip340)" style="stroke:#000000; stroke-linecap:round; stroke-linejoin:round; stroke-width:4; stroke-opacity:1; fill:none" points="219.579,1474.16 219.579,1455.27 "/>
<polyline clip-path="url(#clip340)" style="stroke:#000000; stroke-linecap:round; stroke-linejoin:round; stroke-width:4; stroke-opacity:1; fill:none" points="1621.2,1474.16 1621.2,1455.27 "/>
<path clip-path="url(#clip340)" d="M184.562 1548.29 L192.201 1548.29 L192.201 1521.92 L183.89 1523.59 L183.89 1519.33 L192.154 1517.66 L196.83 1517.66 L196.83 1548.29 L204.469 1548.29 L204.469 1552.22 L184.562 1552.22 L184.562 1548.29 Z" fill="#000000" fill-rule="nonzero" fill-opacity="1" /><path clip-path="url(#clip340)" d="M223.913 1520.74 Q220.302 1520.74 218.474 1524.31 Q216.668 1527.85 216.668 1534.98 Q216.668 1542.09 218.474 1545.65 Q220.302 1549.19 223.913 1549.19 Q227.548 1549.19 229.353 1545.65 Q231.182 1542.09 231.182 1534.98 Q231.182 1527.85 229.353 1524.31 Q227.548 1520.74 223.913 1520.74 M223.913 1517.04 Q229.723 1517.04 232.779 1521.65 Q235.858 1526.23 235.858 1534.98 Q235.858 1543.71 232.779 1548.31 Q229.723 1552.9 223.913 1552.9 Q218.103 1552.9 215.024 1548.31 Q211.969 1543.71 211.969 1534.98 Q211.969 1526.23 215.024 1521.65 Q218.103 1517.04 223.913 1517.04 Z" fill="#000000" fill-rule="nonzero" fill-opacity="1" /><path clip-path="url(#clip340)" d="M245.563 1499.24 Q242.628 1499.24 241.143 1502.13 Q239.676 1505.01 239.676 1510.8 Q239.676 1516.58 241.143 1519.47 Q242.628 1522.35 245.563 1522.35 Q248.515 1522.35 249.982 1519.47 Q251.468 1516.58 251.468 1510.8 Q251.468 1505.01 249.982 1502.13 Q248.515 1499.24 245.563 1499.24 M245.563 1496.23 Q250.283 1496.23 252.766 1499.97 Q255.267 1503.69 255.267 1510.8 Q255.267 1517.89 252.766 1521.64 Q250.283 1525.36 245.563 1525.36 Q240.842 1525.36 238.34 1521.64 Q235.858 1517.89 235.858 1510.8 Q235.858 1503.69 238.34 1499.97 Q240.842 1496.23 245.563 1496.23 Z" fill="#000000" fill-rule="nonzero" fill-opacity="1" /><path clip-path="url(#clip340)" d="M1586.98 1548.29 L1594.62 1548.29 L1594.62 1521.92 L1586.31 1523.59 L1586.31 1519.33 L1594.57 1517.66 L1599.25 1517.66 L1599.25 1548.29 L1606.88 1548.29 L1606.88 1552.22 L1586.98 1552.22 L1586.98 1548.29 Z" fill="#000000" fill-rule="nonzero" fill-opacity="1" /><path clip-path="url(#clip340)" d="M1626.33 1520.74 Q1622.72 1520.74 1620.89 1524.31 Q1619.08 1527.85 1619.08 1534.98 Q1619.08 1542.09 1620.89 1545.65 Q1622.72 1549.19 1626.33 1549.19 Q1629.96 1549.19 1631.77 1545.65 Q1633.6 1542.09 1633.6 1534.98 Q1633.6 1527.85 1631.77 1524.31 Q1629.96 1520.74 1626.33 1520.74 M1626.33 1517.04 Q1632.14 1517.04 1635.19 1521.65 Q1638.27 1526.23 1638.27 1534.98 Q1638.27 1543.71 1635.19 1548.31 Q1632.14 1552.9 1626.33 1552.9 Q1620.52 1552.9 1617.44 1548.31 Q1614.38 1543.71 1614.38 1534.98 Q1614.38 1526.23 1617.44 1521.65 Q1620.52 1517.04 1626.33 1517.04 Z" fill="#000000" fill-rule="nonzero" fill-opacity="1" /><path clip-path="url(#clip340)" d="M1642.84 1521.62 L1656.1 1521.62 L1656.1 1524.81 L1638.27 1524.81 L1638.27 1521.62 Q1640.44 1519.38 1644.16 1515.62 Q1647.9 1511.84 1648.86 1510.75 Q1650.69 1508.7 1651.4 1507.29 Q1652.13 1505.86 1652.13 1504.48 Q1652.13 1502.24 1650.55 1500.83 Q1648.99 1499.42 1646.47 1499.42 Q1644.69 1499.42 1642.69 1500.04 Q1640.72 1500.67 1638.46 1501.93 L1638.46 1498.09 Q1640.76 1497.17 1642.75 1496.7 Q1644.74 1496.23 1646.4 1496.23 Q1650.76 1496.23 1653.36 1498.41 Q1655.95 1500.59 1655.95 1504.24 Q1655.95 1505.97 1655.29 1507.53 Q1654.65 1509.07 1652.94 1511.18 Q1652.47 1511.72 1649.95 1514.34 Q1647.43 1516.93 1642.84 1521.62 Z" fill="#000000" fill-rule="nonzero" fill-opacity="1" /><polyline clip-path="url(#clip340)" style="stroke:#000000; stroke-linecap:round; stroke-linejoin:round; stroke-width:4; stroke-opacity:1; fill:none" points="157.447,1474.16 157.447,47.2441 "/>
<polyline clip-path="url(#clip340)" style="stroke:#000000; stroke-linecap:round; stroke-linejoin:round; stroke-width:4; stroke-opacity:1; fill:none" points="157.447,1063.1 176.345,1063.1 "/>
<polyline clip-path="url(#clip340)" style="stroke:#000000; stroke-linecap:round; stroke-linejoin:round; stroke-width:4; stroke-opacity:1; fill:none" points="157.447,637.369 176.345,637.369 "/>
<polyline clip-path="url(#clip340)" style="stroke:#000000; stroke-linecap:round; stroke-linejoin:round; stroke-width:4; stroke-opacity:1; fill:none" points="157.447,211.637 176.345,211.637 "/>
<path clip-path="url(#clip340)" d="M53.4313 1082.89 L61.0702 1082.89 L61.0702 1056.53 L52.7601 1058.2 L52.7601 1053.94 L61.0239 1052.27 L65.6998 1052.27 L65.6998 1082.89 L73.3386 1082.89 L73.3386 1086.83 L53.4313 1086.83 L53.4313 1082.89 Z" fill="#000000" fill-rule="nonzero" fill-opacity="1" /><path clip-path="url(#clip340)" d="M92.783 1055.35 Q89.1719 1055.35 87.3432 1058.91 Q85.5377 1062.45 85.5377 1069.58 Q85.5377 1076.69 87.3432 1080.26 Q89.1719 1083.8 92.783 1083.8 Q96.4172 1083.8 98.2228 1080.26 Q100.051 1076.69 100.051 1069.58 Q100.051 1062.45 98.2228 1058.91 Q96.4172 1055.35 92.783 1055.35 M92.783 1051.64 Q98.5931 1051.64 101.649 1056.25 Q104.727 1060.83 104.727 1069.58 Q104.727 1078.31 101.649 1082.92 Q98.5931 1087.5 92.783 1087.5 Q86.9728 1087.5 83.8941 1082.92 Q80.8386 1078.31 80.8386 1069.58 Q80.8386 1060.83 83.8941 1056.25 Q86.9728 1051.64 92.783 1051.64 Z" fill="#000000" fill-rule="nonzero" fill-opacity="1" /><path clip-path="url(#clip340)" d="M105.273 1056.22 L111.479 1056.22 L111.479 1034.8 L104.727 1036.15 L104.727 1032.69 L111.442 1031.34 L115.241 1031.34 L115.241 1056.22 L121.447 1056.22 L121.447 1059.42 L105.273 1059.42 L105.273 1056.22 Z" fill="#000000" fill-rule="nonzero" fill-opacity="1" /><path clip-path="url(#clip340)" d="M52.3217 657.162 L59.9605 657.162 L59.9605 630.796 L51.6504 632.463 L51.6504 628.204 L59.9142 626.537 L64.5901 626.537 L64.5901 657.162 L72.229 657.162 L72.229 661.097 L52.3217 661.097 L52.3217 657.162 Z" fill="#000000" fill-rule="nonzero" fill-opacity="1" /><path clip-path="url(#clip340)" d="M91.6733 629.616 Q88.0622 629.616 86.2335 633.181 Q84.428 636.722 84.428 643.852 Q84.428 650.958 86.2335 654.523 Q88.0622 658.065 91.6733 658.065 Q95.3076 658.065 97.1131 654.523 Q98.9418 650.958 98.9418 643.852 Q98.9418 636.722 97.1131 633.181 Q95.3076 629.616 91.6733 629.616 M91.6733 625.912 Q97.4835 625.912 100.539 630.518 Q103.618 635.102 103.618 643.852 Q103.618 652.579 100.539 657.185 Q97.4835 661.768 91.6733 661.768 Q85.8632 661.768 82.7845 657.185 Q79.729 652.579 79.729 643.852 Q79.729 635.102 82.7845 630.518 Q85.8632 625.912 91.6733 625.912 Z" fill="#000000" fill-rule="nonzero" fill-opacity="1" /><path clip-path="url(#clip340)" d="M108.188 630.489 L121.447 630.489 L121.447 633.687 L103.618 633.687 L103.618 630.489 Q105.781 628.251 109.505 624.49 Q113.247 620.709 114.206 619.618 Q116.031 617.568 116.746 616.158 Q117.479 614.728 117.479 613.355 Q117.479 611.117 115.899 609.707 Q114.338 608.296 111.818 608.296 Q110.031 608.296 108.038 608.917 Q106.063 609.537 103.806 610.798 L103.806 606.961 Q106.1 606.039 108.094 605.569 Q110.088 605.099 111.743 605.099 Q116.106 605.099 118.702 607.281 Q121.297 609.462 121.297 613.111 Q121.297 614.841 120.639 616.402 Q119.999 617.945 118.288 620.051 Q117.818 620.596 115.297 623.211 Q112.777 625.806 108.188 630.489 Z" fill="#000000" fill-rule="nonzero" fill-opacity="1" /><path clip-path="url(#clip340)" d="M51.6634 231.429 L59.3023 231.429 L59.3023 205.064 L50.9921 206.73 L50.9921 202.471 L59.256 200.805 L63.9319 200.805 L63.9319 231.429 L71.5707 231.429 L71.5707 235.365 L51.6634 235.365 L51.6634 231.429 Z" fill="#000000" fill-rule="nonzero" fill-opacity="1" /><path clip-path="url(#clip340)" d="M91.0151 203.883 Q87.404 203.883 85.5753 207.448 Q83.7697 210.99 83.7697 218.119 Q83.7697 225.226 85.5753 228.79 Q87.404 232.332 91.0151 232.332 Q94.6493 232.332 96.4548 228.79 Q98.2835 225.226 98.2835 218.119 Q98.2835 210.99 96.4548 207.448 Q94.6493 203.883 91.0151 203.883 M91.0151 200.18 Q96.8252 200.18 99.8808 204.786 Q102.959 209.369 102.959 218.119 Q102.959 226.846 99.8808 231.453 Q96.8252 236.036 91.0151 236.036 Q85.2049 236.036 82.1262 231.453 Q79.0707 226.846 79.0707 218.119 Q79.0707 209.369 82.1262 204.786 Q85.2049 200.18 91.0151 200.18 Z" fill="#000000" fill-rule="nonzero" fill-opacity="1" /><path clip-path="url(#clip340)" d="M115.655 192.814 Q118.382 193.397 119.905 195.24 Q121.447 197.083 121.447 199.792 Q121.447 203.948 118.589 206.224 Q115.73 208.5 110.464 208.5 Q108.696 208.5 106.815 208.142 Q104.953 207.804 102.959 207.108 L102.959 203.44 Q104.539 204.362 106.42 204.832 Q108.301 205.302 110.351 205.302 Q113.924 205.302 115.786 203.892 Q117.667 202.481 117.667 199.792 Q117.667 197.309 115.918 195.917 Q114.188 194.507 111.084 194.507 L107.812 194.507 L107.812 191.384 L111.235 191.384 Q114.037 191.384 115.523 190.275 Q117.009 189.146 117.009 187.04 Q117.009 184.877 115.467 183.73 Q113.943 182.564 111.084 182.564 Q109.523 182.564 107.737 182.902 Q105.95 183.241 103.806 183.955 L103.806 180.57 Q105.969 179.968 107.849 179.667 Q109.749 179.366 111.423 179.366 Q115.749 179.366 118.269 181.341 Q120.789 183.297 120.789 186.645 Q120.789 188.977 119.454 190.595 Q118.119 192.193 115.655 192.814 Z" fill="#000000" fill-rule="nonzero" fill-opacity="1" /><polyline clip-path="url(#clip342)" style="stroke:#0000ff; stroke-linecap:round; stroke-linejoin:round; stroke-width:4; stroke-opacity:1; fill:none" points="219.579,87.6286 430.544,92.4643 553.951,97.2699 641.51,101.812 709.426,106.807 764.917,110.854 811.834,115.554 852.476,120.421 888.324,124.947 920.391,129.143 949.4,134.275 975.883,139.027 1000.24,143.895 1022.8,149.718 1043.8,155.532 1063.44,160.592 1081.89,166.506 1099.29,173.11 1115.75,179.658 1131.36,187.365 1146.21,194.617 1160.37,201.877 1173.89,209.291 1186.85,217.785 1199.27,225.716 1211.21,233.77 1222.7,242.033 1233.77,250.529 1244.45,259.267 1254.76,268.206 1264.74,277.238 1274.41,286.23 1283.77,294.998 1292.86,303.37 1301.68,311.211 1310.26,318.407 1318.59,324.937 1326.71,330.833 1334.62,336.17 1342.32,341.044 1349.84,345.54 1357.17,349.743 1364.33,353.726 1371.33,357.542 1378.17,361.232 1384.86,364.833 1391.41,368.373 1397.81,371.874 1404.09,375.355 1410.24,378.823 1416.27,382.282 1422.18,385.728 1427.97,389.16 1433.66,392.58 1439.25,395.988 1444.73,399.378 1450.12,402.744 1455.41,406.082 1460.61,409.391 1465.73,412.673 1470.76,415.931 1475.71,419.163 1480.58,422.365 1485.37,425.534 1490.09,428.662 1494.74,431.75 1499.31,434.803 1503.82,437.82 1508.27,440.8 1512.65,443.741 1516.96,446.644 1521.22,449.508 1525.42,452.327 1529.56,455.109 1533.65,457.858 1537.68,460.573 1541.66,463.26 1545.58,465.918 1549.46,468.545 1553.29,471.134 1557.07,473.685 1560.8,476.203 1564.49,478.692 1568.14,481.157 1571.74,483.599 1575.3,486.016 1578.82,488.409 1582.3,490.776 1585.74,493.122 1589.14,495.445 1592.5,497.748 1595.83,500.031 1599.12,502.292 1602.37,504.532 1605.59,506.749 1608.78,508.95 1611.93,511.135 1615.05,513.308 1618.14,515.467 1621.2,517.611 1624.23,519.74 1627.23,521.853 1630.2,523.95 1633.14,526.03 1636.05,528.1 1638.94,530.153 1641.8,532.196 1644.63,534.228 1647.43,536.247 1650.21,538.256 1652.97,540.249 1655.7,542.221 1658.4,544.178 1661.08,546.123 1663.74,548.058 1666.38,549.985 1668.99,551.903 1671.58,553.811 1674.15,555.707 1676.7,557.591 1679.22,559.461 1681.73,561.319 1684.21,563.166 1686.67,565.003 1689.12,566.831 1691.54,568.649 1693.95,570.455 1696.34,572.251 1698.71,574.035 1701.06,575.808 1703.39,577.573 1705.7,579.331 1708,581.083 1710.28,582.828 1712.54,584.565 1714.79,586.291 1717.02,588.009 1719.23,589.718 1721.43,591.416 1723.61,593.104 1725.78,594.785 1727.93,596.458 1730.07,598.125 1732.19,599.785 1734.29,601.439 1736.38,603.084 1738.46,604.722 1740.53,606.353 1742.57,607.977 1744.61,609.594 1746.63,611.203 1748.64,612.805 1750.64,614.399 1752.62,615.987 1754.59,617.569 1756.55,619.144 1758.49,620.714 1760.43,622.278 1762.35,623.836 1764.25,625.389 1766.15,626.936 1768.03,628.477 1769.91,630.012 1771.77,631.542 1773.62,633.067 1775.46,634.587 1777.29,636.1 1779.1,637.608 1780.91,639.11 1782.71,640.607 1784.49,642.099 1786.27,643.586 1788.03,645.068 1789.78,646.546 1791.53,648.019 1793.26,649.487 1794.99,650.952 1796.7,652.412 1798.41,653.869 1800.1,655.32 1801.79,656.768 1803.47,658.21 1805.13,659.648 1806.79,661.082 1808.44,662.51 1810.08,663.935 1811.71,665.356 1813.34,666.773 1814.95,668.186 1816.56,669.596 1818.16,671.001 1819.74,672.403 1821.33,673.801 1822.9,675.196 1824.46,676.587 1826.02,677.975 1827.57,679.36 1829.11,680.739 1830.64,682.114 1832.17,683.485 1833.69,684.853 1835.2,686.217 1836.7,687.579 1838.2,688.939 1839.68,690.294 1841.17,691.645 1842.64,692.991 1844.11,694.335 1845.57,695.676 1847.02,697.016 1848.47,698.351 1849.9,699.681 1851.34,701.006 1852.76,702.327 1854.18,703.646 1855.59,704.964 1857,706.277 1858.4,707.589 1859.79,708.895 1861.18,710.197 1862.56,711.495 1863.93,712.79 1865.3,714.083 1866.66,715.374 1868.02,716.663 1869.37,717.946 1870.71,719.223 1872.05,720.496 1873.38,721.767 1874.71,723.037 1876.03,724.303 1877.34,725.562 1878.65,726.817 1879.95,728.071 1881.25,729.323 1882.55,730.572 1883.83,731.815 1885.11,733.055 1886.39,734.292 1887.66,735.528 1888.93,736.758 1890.19,737.985 1891.44,739.209 1892.69,740.431 1893.94,741.65 1895.18,742.865 1896.41,744.077 1897.64,745.284 1898.87,746.488 1900.09,747.689 1901.3,748.889 1902.51,750.085 1903.72,751.277 1904.92,752.466 1906.11,753.652 1907.3,754.835 1908.49,756.015 1909.67,757.191 1910.85,758.364 1912.02,759.533 1913.19,760.7 1914.35,761.864 1915.51,763.026 1916.67,764.184 1917.82,765.336 1918.97,766.486 1920.11,767.632 1921.25,768.777 1922.38,769.918 1923.51,771.055 1924.63,772.188 1925.76,773.316 1926.87,774.441 1927.98,775.562 1929.09,776.679 1930.2,777.792 1931.3,778.901 1932.4,780.004 1933.49,781.105 1934.58,782.201 1935.66,783.294 1936.74,784.384 1937.82,785.471 1938.9,786.554 1939.96,787.634 1941.03,788.711 1942.09,789.785 1943.15,790.856 1944.21,791.924 1945.26,792.989 1946.31,794.051 1947.35,795.11 1948.39,796.167 1949.43,797.22 1950.46,798.271 1951.49,799.319 1952.52,800.364 1953.54,801.407 1954.56,802.447 1955.58,803.483 1956.59,804.517 1957.6,805.548 1958.6,806.576 1959.61,807.601 1960.61,808.623 1961.6,809.642 1962.6,810.658 1963.59,811.669 1964.57,812.678 1965.56,813.682 1966.54,814.683 1967.51,815.68 1968.49,816.673 1969.46,817.662 1970.43,818.648 1971.39,819.631 1972.35,820.612 1973.31,821.59 1974.27,822.566 1975.22,823.539 1976.17,824.51 1977.12,825.479 1978.06,826.446 1979,827.412 1979.94,828.375 1980.87,829.337 1981.81,830.297 1982.73,831.255 1983.66,832.211 1984.58,833.165 1985.51,834.117 1986.42,835.068 1987.34,836.016 1988.25,836.963 1989.16,837.907 1990.07,838.85 1990.97,839.79 1991.88,840.729 1992.77,841.665 1993.67,842.599 1994.56,843.531 1995.46,844.461 1996.34,845.388 1997.23,846.313 1998.11,847.235 1999,848.153 1999.87,849.069 2000.75,849.982 2001.62,850.893 2002.49,851.801 2003.36,852.706 2004.23,853.609 2005.09,854.509 2005.95,855.406 2006.81,856.301 2007.67,857.192 2008.52,858.08 2009.37,858.966 2010.22,859.848 2011.07,860.727 2011.91,861.604 2012.75,862.478 2013.59,863.35 2014.43,864.221 2015.27,865.089 2016.1,865.956 2016.93,866.821 2017.76,867.685 2018.58,868.547 2019.41,869.408 2020.23,870.267 2021.05,871.124 2021.86,871.98 2022.68,872.834 2023.49,873.686 2024.3,874.536 2025.11,875.384 2025.92,876.231 2026.72,877.077 2027.52,877.921 2028.32,878.764 2029.12,879.605 2029.92,880.446 2030.71,881.285 2031.5,882.123 2032.29,882.959 2033.08,883.794 2033.86,884.627 2034.65,885.459 2035.43,886.289 2036.21,887.117 2036.99,887.943 2037.76,888.768 2038.54,889.59 2039.31,890.409 2040.08,891.226 2040.84,892.04 2041.61,892.851 2042.37,893.659 2043.14,894.465 2043.89,895.268 2044.65,896.068 2045.41,896.866 2046.16,897.662 2046.92,898.455 2047.67,899.245 2048.42,900.033 2049.16,900.819 2049.91,901.602 2050.65,902.384 2051.39,903.164 2052.13,903.943 2052.87,904.72 2053.61,905.495 2054.34,906.269 2055.07,907.042 2055.8,907.814 2056.53,908.585 2057.26,909.354 2057.98,910.122 2058.71,910.89 2059.43,911.656 2060.15,912.421 2060.87,913.185 2061.59,913.947 2062.3,914.708 2063.02,915.467 2063.73,916.225 2064.44,916.981 2065.15,917.737 2065.85,918.491 2066.56,919.244 2067.26,919.997 2067.96,920.747 2068.67,921.491 2069.36,922.238 2070.06,922.979 2070.76,923.721 2071.45,924.464 2072.14,925.204 2072.83,925.943 2073.52,926.68 2074.21,927.415 2074.9,928.15 2075.58,928.884 2076.27,929.616 2076.95,930.348 2077.63,931.079 2078.31,931.808 2078.98,932.535 2079.66,933.261 2080.33,933.986 2081.01,934.71 2081.68,935.432 2082.35,936.153 2083.01,936.872 2083.68,937.59 2084.35,938.305 2085.01,939.02 2085.67,939.731 2086.33,940.44 2086.99,941.146 2087.65,941.851 2088.31,942.553 2088.96,943.253 2089.62,943.95 2090.27,944.644 2090.92,945.338 2091.57,946.028 2092.22,946.717 2092.87,947.406 2093.51,948.093 2094.15,948.779 2094.8,949.464 2095.44,950.148 2096.08,950.832 2096.72,951.515 2097.36,952.197 2097.99,952.88 2098.63,953.561 2099.26,954.243 2099.89,954.924 2100.52,955.604 2101.15,956.284 2101.78,956.966 2102.41,957.646 2103.03,958.325 2103.66,959.004 2104.28,959.683 2104.9,960.363 2105.52,961.037 2106.14,961.712 2106.76,962.386 2107.38,963.059 2107.99,963.732 2108.61,964.404 2109.22,965.074 2109.83,965.743 2110.44,966.41 2111.05,967.075 "/>
<polyline clip-path="url(#clip342)" style="stroke:#ff0000; stroke-linecap:round; stroke-linejoin:round; stroke-width:4; stroke-opacity:1; fill:none" points="2111.66,967.075 2112.27,967.038 2112.87,968.01 2113.48,1034.01 2114.08,1062.84 2114.68,1085.37 2115.28,1089.05 2115.88,1090.34 2116.48,1092.03 2117.08,1097.41 2117.67,1104.4 2118.27,1160.86 2118.86,1227.93 2119.46,1252.28 2120.05,1260.34 2120.64,1270.64 2121.23,1289.49 2121.82,1296.5 2122.4,1299.28 2122.99,1300.92 2123.57,1301.48 2124.16,1305.77 2124.74,1309.54 2125.32,1320.92 2125.9,1324.12 2126.48,1326.61 2127.06,1331.66 2127.63,1337.4 2128.21,1346.44 2128.79,1346.5 2129.36,1348.37 2129.93,1349.18 2130.5,1349.28 2131.07,1349.94 2131.64,1351.23 2132.21,1353.88 2132.78,1354.27 2133.35,1354.76 2133.91,1355.42 2134.47,1356.55 2135.04,1357.95 2135.6,1358.5 2136.16,1359.23 2136.72,1359.91 2137.28,1360.84 2137.84,1361.7 2138.39,1363.65 2138.95,1365.42 2139.51,1365.76 2140.06,1366.03 2140.61,1369.15 2141.16,1369.48 2141.71,1369.73 2142.26,1369.94 2142.81,1369.99 2143.36,1370.11 2143.91,1370.42 2144.45,1370.53 2145,1371.16 2145.54,1372 2146.09,1372.34 2146.63,1372.93 2147.17,1373.27 2147.71,1375.06 2148.25,1375.44 2148.79,1375.59 2149.32,1376.29 2149.86,1376.84 2150.4,1376.91 2150.93,1377.47 2151.46,1377.78 2152,1378.01 2152.53,1378.21 2153.06,1378.61 2153.59,1378.7 2154.12,1379.21 2154.65,1379.4 2155.17,1379.49 2155.7,1379.55 2156.22,1379.69 2156.75,1379.81 2157.27,1380.14 2157.79,1380.27 2158.32,1380.82 2158.84,1381.39 2159.36,1382.3 2159.88,1382.43 2160.39,1383 2160.91,1383.29 2161.43,1383.43 2161.94,1383.62 2162.46,1384.02 2162.97,1384.56 2163.48,1384.64 2164,1385.32 2164.51,1385.73 2165.02,1385.87 2165.53,1386.06 2166.03,1386.15 2166.54,1386.38 2167.05,1386.58 2167.55,1386.66 2168.06,1386.77 2168.56,1386.92 2169.07,1388.06 2169.57,1388.63 2170.07,1388.67 2170.57,1388.99 2171.07,1389.22 2171.57,1389.88 2172.07,1390.39 2172.57,1390.83 2173.07,1390.97 2173.56,1391.04 2174.06,1392.13 2174.55,1393.22 2175.05,1393.87 2175.54,1394.86 2176.03,1395 2176.52,1395.22 2177.01,1395.39 2177.5,1395.72 2177.99,1396.08 2178.48,1396.85 2178.97,1397.23 2179.45,1397.6 2179.94,1397.89 2180.42,1398.12 2180.91,1398.36 2181.39,1398.69 2181.87,1398.8 2182.36,1398.89 2182.84,1398.95 2183.32,1399.46 2183.8,1400.01 2184.28,1400.41 2184.75,1400.73 2185.23,1400.85 2185.71,1401.05 2186.18,1401.22 2186.66,1401.38 2187.13,1401.43 2187.61,1401.58 2188.08,1402.29 2188.55,1402.92 2189.02,1403.12 2189.5,1403.22 2189.97,1403.39 2190.44,1403.64 2190.9,1403.98 2191.37,1404.12 2191.84,1404.35 2192.31,1404.46 2192.77,1404.55 2193.24,1404.76 2193.7,1405.01 2194.16,1405.57 2194.63,1405.62 2195.09,1405.98 2195.55,1406.04 2196.01,1406.15 2196.47,1406.28 2196.93,1406.53 2197.39,1406.87 2197.85,1407.47 2198.3,1408.13 2198.76,1408.47 2199.22,1409 2199.67,1409.41 2200.13,1409.61 2200.58,1409.71 2201.03,1409.86 2201.49,1410.22 2201.94,1410.42 2202.39,1410.73 2202.84,1410.81 2203.29,1411.77 2203.74,1411.97 2204.19,1412.06 2204.64,1412.14 2205.08,1412.19 2205.53,1412.29 2205.98,1412.6 2206.42,1412.93 2206.87,1413.28 2207.31,1413.64 2207.75,1414.02 2208.2,1414.41 2208.64,1414.56 2209.08,1414.7 2209.52,1414.8 2209.96,1414.86 2210.4,1414.96 2210.84,1415.09 2211.28,1415.24 2211.71,1415.64 2212.15,1415.74 2212.59,1416.3 2213.02,1416.65 2213.46,1416.77 2213.89,1416.88 2214.33,1416.99 2214.76,1417.15 2215.19,1417.35 2215.63,1417.69 2216.06,1417.9 2216.49,1418.32 2216.92,1418.7 2217.35,1418.97 2217.78,1419.08 2218.2,1419.22 2218.63,1419.38 2219.06,1419.42 2219.49,1419.65 2219.91,1419.9 2220.34,1420 2220.76,1420.23 2221.19,1420.32 2221.61,1420.44 2222.03,1420.55 2222.46,1420.74 2222.88,1421.02 2223.3,1421.21 2223.72,1421.45 2224.14,1421.64 2224.56,1421.79 2224.98,1421.87 2225.4,1421.94 2225.81,1422.08 2226.23,1422.19 2226.65,1422.38 2227.06,1422.58 2227.48,1422.65 2227.89,1422.83 2228.31,1422.96 2228.72,1423.04 2229.14,1423.21 2229.55,1423.25 2229.96,1423.3 2230.37,1423.32 2230.78,1423.36 2231.19,1423.38 2231.6,1423.43 2232.01,1423.46 2232.42,1423.5 2232.83,1423.56 2233.24,1423.68 2233.65,1423.76 2234.05,1423.8 2234.46,1423.85 2234.86,1423.87 2235.27,1423.9 2235.67,1423.93 2236.08,1423.99 2236.48,1424.04 2236.88,1424.09 2237.29,1424.15 2237.69,1424.17 2238.09,1424.21 2238.49,1424.25 2238.89,1424.28 2239.29,1424.32 2239.69,1424.37 2240.09,1424.45 2240.48,1424.49 2240.88,1424.52 2241.28,1424.55 2241.68,1424.6 2242.07,1424.66 2242.47,1424.73 2242.86,1424.77 2243.26,1424.81 2243.65,1424.85 2244.04,1424.92 2244.44,1425.03 2244.83,1425.05 2245.22,1425.12 2245.61,1425.15 2246,1425.17 2246.39,1425.19 2246.78,1425.24 2247.17,1425.27 2247.56,1425.31 2247.95,1425.35 2248.34,1425.38 2248.73,1425.44 2249.11,1425.52 2249.5,1425.59 2249.89,1425.65 2250.27,1425.71 2250.66,1425.76 2251.04,1425.86 2251.43,1425.92 2251.81,1425.98 2252.19,1426.05 2252.57,1426.09 2252.96,1426.14 2253.34,1426.22 2253.72,1426.33 2254.1,1426.4 2254.48,1426.45 2254.86,1426.49 2255.24,1426.56 2255.62,1426.61 2256,1426.67 2256.37,1426.73 2256.75,1426.78 2257.13,1426.85 2257.51,1426.97 2257.88,1427.02 2258.26,1427.08 2258.63,1427.17 2259.01,1427.21 2259.38,1427.3 2259.75,1427.34 2260.13,1427.37 2260.5,1427.44 2260.87,1427.55 2261.24,1427.62 2261.62,1427.69 2261.99,1427.72 2262.36,1427.84 2262.73,1427.85 2263.1,1427.88 2263.47,1427.94 2263.83,1428.02 2264.2,1428.11 2264.57,1428.16 2264.94,1428.2 2265.31,1428.27 2265.67,1428.3 2266.04,1428.35 2266.4,1428.51 2266.77,1428.6 2267.13,1428.73 2267.5,1428.92 2267.86,1428.97 2268.22,1429 2268.59,1429.06 2268.95,1429.11 2269.31,1429.18 2269.67,1429.23 2270.04,1429.28 2270.4,1429.34 2270.76,1429.42 2271.12,1429.48 2271.48,1429.53 2271.84,1429.58 2272.19,1429.6 2272.55,1429.64 2272.91,1429.7 2273.27,1429.81 2273.62,1429.82 2273.98,1429.96 2274.34,1430.01 2274.69,1430.08 2275.05,1430.2 2275.4,1430.25 2275.76,1430.32 2276.11,1430.35 2276.47,1430.38 2276.82,1430.43 2277.17,1430.48 2277.52,1430.55 2277.88,1430.6 2278.23,1430.62 2278.58,1430.64 2278.93,1430.69 2279.28,1430.8 2279.63,1430.92 2279.98,1430.97 2280.33,1431.08 2280.68,1431.13 2281.03,1431.18 2281.37,1431.33 2281.72,1431.39 2282.07,1431.5 2282.42,1431.59 2282.76,1431.64 2283.11,1431.7 2283.45,1431.76 2283.8,1431.84 2284.14,1431.91 2284.49,1431.96 2284.83,1432.02 2285.18,1432.14 2285.52,1432.24 2285.86,1432.35 2286.21,1432.4 2286.55,1432.48 2286.89,1432.57 2287.23,1432.65 2287.57,1432.8 2287.91,1433 2288.25,1433.11 2288.59,1433.24 2288.93,1433.33 2289.27,1433.43 2289.61,1433.55 2289.95,1433.65 2290.29,1433.72 2290.62,1433.78 "/>
<path clip-path="url(#clip340)" d="M1914.31 250.328 L2279.58 250.328 L2279.58 94.8081 L1914.31 94.8081  Z" fill="#ffffff" fill-rule="evenodd" fill-opacity="1"/>
<polyline clip-path="url(#clip340)" style="stroke:#000000; stroke-linecap:round; stroke-linejoin:round; stroke-width:4; stroke-opacity:1; fill:none" points="1914.31,250.328 2279.58,250.328 2279.58,94.8081 1914.31,94.8081 1914.31,250.328 "/>
<polyline clip-path="url(#clip340)" style="stroke:#0000ff; stroke-linecap:round; stroke-linejoin:round; stroke-width:4; stroke-opacity:1; fill:none" points="1938.7,146.648 2085.05,146.648 "/>
<path clip-path="url(#clip340)" d="M2125.28 133.975 L2118.94 151.174 L2131.65 151.174 L2125.28 133.975 M2122.64 129.368 L2127.94 129.368 L2141.11 163.928 L2136.25 163.928 L2133.1 155.062 L2117.53 155.062 L2114.38 163.928 L2109.45 163.928 L2122.64 129.368 Z" fill="#000000" fill-rule="nonzero" fill-opacity="1" /><path clip-path="url(#clip340)" d="M2162.2 141.937 L2162.2 127.91 L2166.46 127.91 L2166.46 163.928 L2162.2 163.928 L2162.2 160.039 Q2160.86 162.354 2158.8 163.488 Q2156.76 164.599 2153.89 164.599 Q2149.19 164.599 2146.23 160.849 Q2143.29 157.099 2143.29 150.988 Q2143.29 144.877 2146.23 141.127 Q2149.19 137.377 2153.89 137.377 Q2156.76 137.377 2158.8 138.512 Q2160.86 139.623 2162.2 141.937 M2147.69 150.988 Q2147.69 155.687 2149.61 158.373 Q2151.55 161.035 2154.93 161.035 Q2158.31 161.035 2160.26 158.373 Q2162.2 155.687 2162.2 150.988 Q2162.2 146.289 2160.26 143.627 Q2158.31 140.942 2154.93 140.942 Q2151.55 140.942 2149.61 143.627 Q2147.69 146.289 2147.69 150.988 Z" fill="#000000" fill-rule="nonzero" fill-opacity="1" /><path clip-path="url(#clip340)" d="M2187.02 150.896 Q2181.85 150.896 2179.86 152.076 Q2177.87 153.257 2177.87 156.104 Q2177.87 158.373 2179.35 159.715 Q2180.86 161.035 2183.43 161.035 Q2186.97 161.035 2189.1 158.535 Q2191.25 156.011 2191.25 151.845 L2191.25 150.896 L2187.02 150.896 M2195.51 149.137 L2195.51 163.928 L2191.25 163.928 L2191.25 159.993 Q2189.79 162.354 2187.62 163.488 Q2185.44 164.599 2182.29 164.599 Q2178.31 164.599 2175.95 162.377 Q2173.61 160.132 2173.61 156.382 Q2173.61 152.007 2176.53 149.785 Q2179.47 147.562 2185.28 147.562 L2191.25 147.562 L2191.25 147.146 Q2191.25 144.206 2189.31 142.609 Q2187.39 140.988 2183.89 140.988 Q2181.67 140.988 2179.56 141.521 Q2177.46 142.053 2175.51 143.118 L2175.51 139.183 Q2177.85 138.28 2180.05 137.84 Q2182.25 137.377 2184.33 137.377 Q2189.96 137.377 2192.73 140.294 Q2195.51 143.211 2195.51 149.137 Z" fill="#000000" fill-rule="nonzero" fill-opacity="1" /><path clip-path="url(#clip340)" d="M2224.47 142.979 Q2226.07 140.109 2228.29 138.743 Q2230.51 137.377 2233.52 137.377 Q2237.57 137.377 2239.77 140.225 Q2241.97 143.049 2241.97 148.28 L2241.97 163.928 L2237.69 163.928 L2237.69 148.419 Q2237.69 144.692 2236.37 142.887 Q2235.05 141.081 2232.34 141.081 Q2229.03 141.081 2227.11 143.28 Q2225.19 145.479 2225.19 149.275 L2225.19 163.928 L2220.9 163.928 L2220.9 148.419 Q2220.9 144.669 2219.58 142.887 Q2218.27 141.081 2215.51 141.081 Q2212.25 141.081 2210.33 143.303 Q2208.4 145.502 2208.4 149.275 L2208.4 163.928 L2204.12 163.928 L2204.12 138.002 L2208.4 138.002 L2208.4 142.03 Q2209.86 139.646 2211.9 138.512 Q2213.94 137.377 2216.74 137.377 Q2219.56 137.377 2221.53 138.813 Q2223.52 140.248 2224.47 142.979 Z" fill="#000000" fill-rule="nonzero" fill-opacity="1" /><polyline clip-path="url(#clip340)" style="stroke:#ff0000; stroke-linecap:round; stroke-linejoin:round; stroke-width:4; stroke-opacity:1; fill:none" points="1938.7,198.488 2085.05,198.488 "/>
<path clip-path="url(#clip340)" d="M2109.45 181.208 L2114.12 181.208 L2114.12 211.833 L2130.95 211.833 L2130.95 215.768 L2109.45 215.768 L2109.45 181.208 Z" fill="#000000" fill-rule="nonzero" fill-opacity="1" /><path clip-path="url(#clip340)" d="M2140.53 199.264 L2140.53 211.926 L2148.03 211.926 Q2151.81 211.926 2153.61 210.375 Q2155.44 208.801 2155.44 205.583 Q2155.44 202.342 2153.61 200.814 Q2151.81 199.264 2148.03 199.264 L2140.53 199.264 M2140.53 185.051 L2140.53 195.467 L2147.46 195.467 Q2150.88 195.467 2152.55 194.194 Q2154.24 192.898 2154.24 190.259 Q2154.24 187.643 2152.55 186.347 Q2150.88 185.051 2147.46 185.051 L2140.53 185.051 M2135.86 181.208 L2147.8 181.208 Q2153.15 181.208 2156.04 183.43 Q2158.94 185.653 2158.94 189.75 Q2158.94 192.921 2157.46 194.796 Q2155.97 196.671 2153.1 197.134 Q2156.55 197.875 2158.45 200.236 Q2160.37 202.574 2160.37 206.092 Q2160.37 210.722 2157.22 213.245 Q2154.08 215.768 2148.27 215.768 L2135.86 215.768 L2135.86 181.208 Z" fill="#000000" fill-rule="nonzero" fill-opacity="1" /><path clip-path="url(#clip340)" d="M2168.38 181.208 L2188.24 181.208 L2188.24 185.143 L2173.06 185.143 L2173.06 195.328 L2186.76 195.328 L2186.76 199.264 L2173.06 199.264 L2173.06 215.768 L2168.38 215.768 L2168.38 181.208 Z" fill="#000000" fill-rule="nonzero" fill-opacity="1" /><path clip-path="url(#clip340)" d="M2219.21 210.838 L2219.21 201.555 L2211.58 201.555 L2211.58 197.713 L2223.84 197.713 L2223.84 212.551 Q2221.14 214.472 2217.87 215.467 Q2214.61 216.439 2210.9 216.439 Q2202.8 216.439 2198.22 211.717 Q2193.66 206.972 2193.66 198.523 Q2193.66 190.051 2198.22 185.328 Q2202.8 180.583 2210.9 180.583 Q2214.28 180.583 2217.32 181.416 Q2220.37 182.25 2222.94 183.87 L2222.94 188.847 Q2220.35 186.648 2217.43 185.537 Q2214.52 184.426 2211.3 184.426 Q2204.96 184.426 2201.76 187.967 Q2198.59 191.509 2198.59 198.523 Q2198.59 205.514 2201.76 209.055 Q2204.96 212.597 2211.3 212.597 Q2213.77 212.597 2215.72 212.18 Q2217.66 211.74 2219.21 210.838 Z" fill="#000000" fill-rule="nonzero" fill-opacity="1" /><path clip-path="url(#clip340)" d="M2253.1 182.342 L2253.1 186.903 Q2250.44 185.629 2248.08 185.004 Q2245.72 184.379 2243.52 184.379 Q2239.7 184.379 2237.62 185.861 Q2235.56 187.342 2235.56 190.074 Q2235.56 192.365 2236.92 193.546 Q2238.31 194.703 2242.15 195.421 L2244.98 196 Q2250.21 196.995 2252.69 199.518 Q2255.19 202.018 2255.19 206.231 Q2255.19 211.254 2251.81 213.847 Q2248.45 216.439 2241.95 216.439 Q2239.49 216.439 2236.71 215.884 Q2233.96 215.328 2231 214.24 L2231 209.426 Q2233.84 211.023 2236.58 211.833 Q2239.31 212.643 2241.95 212.643 Q2245.95 212.643 2248.13 211.069 Q2250.3 209.495 2250.3 206.578 Q2250.3 204.032 2248.73 202.597 Q2247.18 201.162 2243.61 200.444 L2240.77 199.889 Q2235.53 198.847 2233.2 196.625 Q2230.86 194.402 2230.86 190.444 Q2230.86 185.861 2234.08 183.222 Q2237.32 180.583 2242.99 180.583 Q2245.42 180.583 2247.94 181.023 Q2250.46 181.463 2253.1 182.342 Z" fill="#000000" fill-rule="nonzero" fill-opacity="1" /></svg>
