<?xml version="1.0" encoding="utf-8"?>
<svg xmlns="http://www.w3.org/2000/svg" xmlns:xlink="http://www.w3.org/1999/xlink" width="600" height="400" viewBox="0 0 2400 1600">
<defs>
  <clipPath id="clip460">
    <rect x="0" y="0" width="2400" height="1600"/>
  </clipPath>
</defs>
<path clip-path="url(#clip460)" d="M0 1600 L2400 1600 L2400 0 L0 0  Z" fill="#ffffff" fill-rule="evenodd" fill-opacity="1"/>
<defs>
  <clipPath id="clip461">
    <rect x="480" y="0" width="1681" height="1600"/>
  </clipPath>
</defs>
<path clip-path="url(#clip460)" d="M219.38 1423.18 L2352.76 1423.18 L2352.76 123.472 L219.38 123.472  Z" fill="#ffffff" fill-rule="evenodd" fill-opacity="1"/>
<defs>
  <clipPath id="clip462">
    <rect x="219" y="123" width="2134" height="1301"/>
  </clipPath>
</defs>
<polyline clip-path="url(#clip462)" style="stroke:#000000; stroke-linecap:round; stroke-linejoin:round; stroke-width:2; stroke-opacity:0.1; fill:none" points="269.331,1423.18 269.331,123.472 "/>
<polyline clip-path="url(#clip462)" style="stroke:#000000; stroke-linecap:round; stroke-linejoin:round; stroke-width:2; stroke-opacity:0.1; fill:none" points="790.734,1423.18 790.734,123.472 "/>
<polyline clip-path="url(#clip462)" style="stroke:#000000; stroke-linecap:round; stroke-linejoin:round; stroke-width:2; stroke-opacity:0.1; fill:none" points="1312.14,1423.18 1312.14,123.472 "/>
<polyline clip-path="url(#clip462)" style="stroke:#000000; stroke-linecap:round; stroke-linejoin:round; stroke-width:2; stroke-opacity:0.1; fill:none" points="1833.54,1423.18 1833.54,123.472 "/>
<polyline clip-path="url(#clip462)" style="stroke:#000000; stroke-linecap:round; stroke-linejoin:round; stroke-width:2; stroke-opacity:0.1; fill:none" points="219.38,1386.4 2352.76,1386.4 "/>
<polyline clip-path="url(#clip462)" style="stroke:#000000; stroke-linecap:round; stroke-linejoin:round; stroke-width:2; stroke-opacity:0.1; fill:none" points="219.38,1047.68 2352.76,1047.68 "/>
<polyline clip-path="url(#clip462)" style="stroke:#000000; stroke-linecap:round; stroke-linejoin:round; stroke-width:2; stroke-opacity:0.1; fill:none" points="219.38,708.971 2352.76,708.971 "/>
<polyline clip-path="url(#clip462)" style="stroke:#000000; stroke-linecap:round; stroke-linejoin:round; stroke-width:2; stroke-opacity:0.1; fill:none" points="219.38,370.258 2352.76,370.258 "/>
<polyline clip-path="url(#clip460)" style="stroke:#000000; stroke-linecap:round; stroke-linejoin:round; stroke-width:4; stroke-opacity:1; fill:none" points="219.38,1423.18 2352.76,1423.18 "/>
<polyline clip-path="url(#clip460)" style="stroke:#000000; stroke-linecap:round; stroke-linejoin:round; stroke-width:4; stroke-opacity:1; fill:none" points="269.331,1423.18 269.331,1404.28 "/>
<polyline clip-path="url(#clip460)" style="stroke:#000000; stroke-linecap:round; stroke-linejoin:round; stroke-width:4; stroke-opacity:1; fill:none" points="790.734,1423.18 790.734,1404.28 "/>
<polyline clip-path="url(#clip460)" style="stroke:#000000; stroke-linecap:round; stroke-linejoin:round; stroke-width:4; stroke-opacity:1; fill:none" points="1312.14,1423.18 1312.14,1404.28 "/>
<polyline clip-path="url(#clip460)" style="stroke:#000000; stroke-linecap:round; stroke-linejoin:round; stroke-width:4; stroke-opacity:1; fill:none" points="1833.54,1423.18 1833.54,1404.28 "/>
<path clip-path="url(#clip460)" d="M269.331 1454.1 Q265.72 1454.1 263.891 1457.66 Q262.085 1461.2 262.085 1468.33 Q262.085 1475.44 263.891 1479.01 Q265.72 1482.55 269.331 1482.55 Q272.965 1482.55 274.77 1479.01 Q276.599 1475.44 276.599 1468.33 Q276.599 1461.2 274.77 1457.66 Q272.965 1454.1 269.331 1454.1 M269.331 1450.39 Q275.141 1450.39 278.196 1455 Q281.275 1459.58 281.275 1468.33 Q281.275 1477.06 278.196 1481.67 Q275.141 1486.25 269.331 1486.25 Q263.52 1486.25 260.442 1481.67 Q257.386 1477.06 257.386 1468.33 Q257.386 1459.58 260.442 1455 Q263.52 1450.39 269.331 1450.39 Z" fill="#000000" fill-rule="nonzero" fill-opacity="1" /><path clip-path="url(#clip460)" d="M765.434 1451.02 L783.79 1451.02 L783.79 1454.96 L769.716 1454.96 L769.716 1463.43 Q770.735 1463.08 771.753 1462.92 Q772.772 1462.73 773.79 1462.73 Q779.577 1462.73 782.957 1465.9 Q786.336 1469.08 786.336 1474.49 Q786.336 1480.07 782.864 1483.17 Q779.392 1486.25 773.072 1486.25 Q770.897 1486.25 768.628 1485.88 Q766.383 1485.51 763.975 1484.77 L763.975 1480.07 Q766.059 1481.2 768.281 1481.76 Q770.503 1482.32 772.98 1482.32 Q776.985 1482.32 779.322 1480.21 Q781.66 1478.1 781.66 1474.49 Q781.66 1470.88 779.322 1468.77 Q776.985 1466.67 772.98 1466.67 Q771.105 1466.67 769.23 1467.08 Q767.378 1467.5 765.434 1468.38 L765.434 1451.02 Z" fill="#000000" fill-rule="nonzero" fill-opacity="1" /><path clip-path="url(#clip460)" d="M805.549 1454.1 Q801.938 1454.1 800.109 1457.66 Q798.304 1461.2 798.304 1468.33 Q798.304 1475.44 800.109 1479.01 Q801.938 1482.55 805.549 1482.55 Q809.183 1482.55 810.989 1479.01 Q812.818 1475.44 812.818 1468.33 Q812.818 1461.2 810.989 1457.66 Q809.183 1454.1 805.549 1454.1 M805.549 1450.39 Q811.359 1450.39 814.415 1455 Q817.494 1459.58 817.494 1468.33 Q817.494 1477.06 814.415 1481.67 Q811.359 1486.25 805.549 1486.25 Q799.739 1486.25 796.66 1481.67 Q793.605 1477.06 793.605 1468.33 Q793.605 1459.58 796.66 1455 Q799.739 1450.39 805.549 1450.39 Z" fill="#000000" fill-rule="nonzero" fill-opacity="1" /><path clip-path="url(#clip460)" d="M1271.74 1481.64 L1279.38 1481.64 L1279.38 1455.28 L1271.07 1456.95 L1271.07 1452.69 L1279.34 1451.02 L1284.01 1451.02 L1284.01 1481.64 L1291.65 1481.64 L1291.65 1485.58 L1271.74 1485.58 L1271.74 1481.64 Z" fill="#000000" fill-rule="nonzero" fill-opacity="1" /><path clip-path="url(#clip460)" d="M1311.1 1454.1 Q1307.49 1454.1 1305.66 1457.66 Q1303.85 1461.2 1303.85 1468.33 Q1303.85 1475.44 1305.66 1479.01 Q1307.49 1482.55 1311.1 1482.55 Q1314.73 1482.55 1316.54 1479.01 Q1318.37 1475.44 1318.37 1468.33 Q1318.37 1461.2 1316.54 1457.66 Q1314.73 1454.1 1311.1 1454.1 M1311.1 1450.39 Q1316.91 1450.39 1319.96 1455 Q1323.04 1459.58 1323.04 1468.33 Q1323.04 1477.06 1319.96 1481.67 Q1316.91 1486.25 1311.1 1486.25 Q1305.29 1486.25 1302.21 1481.67 Q1299.15 1477.06 1299.15 1468.33 Q1299.15 1459.58 1302.21 1455 Q1305.29 1450.39 1311.1 1450.39 Z" fill="#000000" fill-rule="nonzero" fill-opacity="1" /><path clip-path="url(#clip460)" d="M1341.26 1454.1 Q1337.65 1454.1 1335.82 1457.66 Q1334.01 1461.2 1334.01 1468.33 Q1334.01 1475.44 1335.82 1479.01 Q1337.65 1482.55 1341.26 1482.55 Q1344.89 1482.55 1346.7 1479.01 Q1348.53 1475.44 1348.53 1468.33 Q1348.53 1461.2 1346.7 1457.66 Q1344.89 1454.1 1341.26 1454.1 M1341.26 1450.39 Q1347.07 1450.39 1350.12 1455 Q1353.2 1459.58 1353.2 1468.33 Q1353.2 1477.06 1350.12 1481.67 Q1347.07 1486.25 1341.26 1486.25 Q1335.45 1486.25 1332.37 1481.67 Q1329.31 1477.06 1329.31 1468.33 Q1329.31 1459.58 1332.37 1455 Q1335.45 1450.39 1341.26 1450.39 Z" fill="#000000" fill-rule="nonzero" fill-opacity="1" /><path clip-path="url(#clip460)" d="M1793.15 1481.64 L1800.79 1481.64 L1800.79 1455.28 L1792.48 1456.95 L1792.48 1452.69 L1800.74 1451.02 L1805.42 1451.02 L1805.42 1481.64 L1813.06 1481.64 L1813.06 1485.58 L1793.15 1485.58 L1793.15 1481.64 Z" fill="#000000" fill-rule="nonzero" fill-opacity="1" /><path clip-path="url(#clip460)" d="M1822.55 1451.02 L1840.9 1451.02 L1840.9 1454.96 L1826.83 1454.96 L1826.83 1463.43 Q1827.85 1463.08 1828.87 1462.92 Q1829.88 1462.73 1830.9 1462.73 Q1836.69 1462.73 1840.07 1465.9 Q1843.45 1469.08 1843.45 1474.49 Q1843.45 1480.07 1839.98 1483.17 Q1836.5 1486.25 1830.19 1486.25 Q1828.01 1486.25 1825.74 1485.88 Q1823.5 1485.51 1821.09 1484.77 L1821.09 1480.07 Q1823.17 1481.2 1825.39 1481.76 Q1827.62 1482.32 1830.09 1482.32 Q1834.1 1482.32 1836.44 1480.21 Q1838.77 1478.1 1838.77 1474.49 Q1838.77 1470.88 1836.44 1468.77 Q1834.1 1466.67 1830.09 1466.67 Q1828.22 1466.67 1826.34 1467.08 Q1824.49 1467.5 1822.55 1468.38 L1822.55 1451.02 Z" fill="#000000" fill-rule="nonzero" fill-opacity="1" /><path clip-path="url(#clip460)" d="M1862.66 1454.1 Q1859.05 1454.1 1857.22 1457.66 Q1855.42 1461.2 1855.42 1468.33 Q1855.42 1475.44 1857.22 1479.01 Q1859.05 1482.55 1862.66 1482.55 Q1866.3 1482.55 1868.1 1479.01 Q1869.93 1475.44 1869.93 1468.33 Q1869.93 1461.2 1868.1 1457.66 Q1866.3 1454.1 1862.66 1454.1 M1862.66 1450.39 Q1868.47 1450.39 1871.53 1455 Q1874.61 1459.58 1874.61 1468.33 Q1874.61 1477.06 1871.53 1481.67 Q1868.47 1486.25 1862.66 1486.25 Q1856.85 1486.25 1853.77 1481.67 Q1850.72 1477.06 1850.72 1468.33 Q1850.72 1459.58 1853.77 1455 Q1856.85 1450.39 1862.66 1450.39 Z" fill="#000000" fill-rule="nonzero" fill-opacity="1" /><path clip-path="url(#clip460)" d="M1207.94 1520.52 L1248.14 1520.52 L1248.14 1525.93 L1231.28 1525.93 L1231.28 1568.04 L1224.81 1568.04 L1224.81 1525.93 L1207.94 1525.93 L1207.94 1520.52 Z" fill="#000000" fill-rule="nonzero" fill-opacity="1" /><path clip-path="url(#clip460)" d="M1252.09 1532.4 L1257.95 1532.4 L1257.95 1568.04 L1252.09 1568.04 L1252.09 1532.4 M1252.09 1518.52 L1257.95 1518.52 L1257.95 1525.93 L1252.09 1525.93 L1252.09 1518.52 Z" fill="#000000" fill-rule="nonzero" fill-opacity="1" /><path clip-path="url(#clip460)" d="M1297.96 1539.24 Q1300.15 1535.29 1303.21 1533.41 Q1306.26 1531.54 1310.4 1531.54 Q1315.97 1531.54 1318.99 1535.45 Q1322.02 1539.33 1322.02 1546.53 L1322.02 1568.04 L1316.13 1568.04 L1316.13 1546.72 Q1316.13 1541.59 1314.32 1539.11 Q1312.5 1536.63 1308.78 1536.63 Q1304.23 1536.63 1301.58 1539.65 Q1298.94 1542.68 1298.94 1547.9 L1298.94 1568.04 L1293.05 1568.04 L1293.05 1546.72 Q1293.05 1541.56 1291.24 1539.11 Q1289.43 1536.63 1285.64 1536.63 Q1281.15 1536.63 1278.51 1539.68 Q1275.87 1542.71 1275.87 1547.9 L1275.87 1568.04 L1269.98 1568.04 L1269.98 1532.4 L1275.87 1532.4 L1275.87 1537.93 Q1277.87 1534.66 1280.67 1533.1 Q1283.47 1531.54 1287.33 1531.54 Q1291.21 1531.54 1293.91 1533.51 Q1296.65 1535.48 1297.96 1539.24 Z" fill="#000000" fill-rule="nonzero" fill-opacity="1" /><path clip-path="url(#clip460)" d="M1364.19 1548.76 L1364.19 1551.62 L1337.26 1551.62 Q1337.65 1557.67 1340.89 1560.85 Q1344.17 1564 1350 1564 Q1353.37 1564 1356.52 1563.17 Q1359.7 1562.35 1362.82 1560.69 L1362.82 1566.23 Q1359.67 1567.57 1356.36 1568.27 Q1353.05 1568.97 1349.65 1568.97 Q1341.12 1568.97 1336.12 1564 Q1331.15 1559.04 1331.15 1550.57 Q1331.15 1541.82 1335.86 1536.69 Q1340.61 1531.54 1348.63 1531.54 Q1355.82 1531.54 1359.99 1536.18 Q1364.19 1540.8 1364.19 1548.76 M1358.33 1547.04 Q1358.27 1542.23 1355.63 1539.37 Q1353.02 1536.5 1348.69 1536.5 Q1343.79 1536.5 1340.83 1539.27 Q1337.9 1542.04 1337.46 1547.07 L1358.33 1547.04 Z" fill="#000000" fill-rule="nonzero" fill-opacity="1" /><polyline clip-path="url(#clip460)" style="stroke:#000000; stroke-linecap:round; stroke-linejoin:round; stroke-width:4; stroke-opacity:1; fill:none" points="219.38,1423.18 219.38,123.472 "/>
<polyline clip-path="url(#clip460)" style="stroke:#000000; stroke-linecap:round; stroke-linejoin:round; stroke-width:4; stroke-opacity:1; fill:none" points="219.38,1386.4 238.278,1386.4 "/>
<polyline clip-path="url(#clip460)" style="stroke:#000000; stroke-linecap:round; stroke-linejoin:round; stroke-width:4; stroke-opacity:1; fill:none" points="219.38,1047.68 238.278,1047.68 "/>
<polyline clip-path="url(#clip460)" style="stroke:#000000; stroke-linecap:round; stroke-linejoin:round; stroke-width:4; stroke-opacity:1; fill:none" points="219.38,708.971 238.278,708.971 "/>
<polyline clip-path="url(#clip460)" style="stroke:#000000; stroke-linecap:round; stroke-linejoin:round; stroke-width:4; stroke-opacity:1; fill:none" points="219.38,370.258 238.278,370.258 "/>
<path clip-path="url(#clip460)" d="M126.205 1372.19 Q122.593 1372.19 120.765 1375.76 Q118.959 1379.3 118.959 1386.43 Q118.959 1393.54 120.765 1397.1 Q122.593 1400.64 126.205 1400.64 Q129.839 1400.64 131.644 1397.1 Q133.473 1393.54 133.473 1386.43 Q133.473 1379.3 131.644 1375.76 Q129.839 1372.19 126.205 1372.19 M126.205 1368.49 Q132.015 1368.49 135.07 1373.1 Q138.149 1377.68 138.149 1386.43 Q138.149 1395.16 135.07 1399.76 Q132.015 1404.35 126.205 1404.35 Q120.394 1404.35 117.316 1399.76 Q114.26 1395.16 114.26 1386.43 Q114.26 1377.68 117.316 1373.1 Q120.394 1368.49 126.205 1368.49 Z" fill="#000000" fill-rule="nonzero" fill-opacity="1" /><path clip-path="url(#clip460)" d="M146.366 1397.8 L151.251 1397.8 L151.251 1403.68 L146.366 1403.68 L146.366 1397.8 Z" fill="#000000" fill-rule="nonzero" fill-opacity="1" /><path clip-path="url(#clip460)" d="M171.436 1372.19 Q167.825 1372.19 165.996 1375.76 Q164.19 1379.3 164.19 1386.43 Q164.19 1393.54 165.996 1397.1 Q167.825 1400.64 171.436 1400.64 Q175.07 1400.64 176.876 1397.1 Q178.704 1393.54 178.704 1386.43 Q178.704 1379.3 176.876 1375.76 Q175.07 1372.19 171.436 1372.19 M171.436 1368.49 Q177.246 1368.49 180.301 1373.1 Q183.38 1377.68 183.38 1386.43 Q183.38 1395.16 180.301 1399.76 Q177.246 1404.35 171.436 1404.35 Q165.626 1404.35 162.547 1399.76 Q159.491 1395.16 159.491 1386.43 Q159.491 1377.68 162.547 1373.1 Q165.626 1368.49 171.436 1368.49 Z" fill="#000000" fill-rule="nonzero" fill-opacity="1" /><path clip-path="url(#clip460)" d="M127.2 1033.48 Q123.589 1033.48 121.76 1037.05 Q119.955 1040.59 119.955 1047.72 Q119.955 1054.82 121.76 1058.39 Q123.589 1061.93 127.2 1061.93 Q130.834 1061.93 132.64 1058.39 Q134.468 1054.82 134.468 1047.72 Q134.468 1040.59 132.64 1037.05 Q130.834 1033.48 127.2 1033.48 M127.2 1029.78 Q133.01 1029.78 136.066 1034.38 Q139.144 1038.97 139.144 1047.72 Q139.144 1056.44 136.066 1061.05 Q133.01 1065.63 127.2 1065.63 Q121.39 1065.63 118.311 1061.05 Q115.256 1056.44 115.256 1047.72 Q115.256 1038.97 118.311 1034.38 Q121.39 1029.78 127.2 1029.78 Z" fill="#000000" fill-rule="nonzero" fill-opacity="1" /><path clip-path="url(#clip460)" d="M147.362 1059.08 L152.246 1059.08 L152.246 1064.96 L147.362 1064.96 L147.362 1059.08 Z" fill="#000000" fill-rule="nonzero" fill-opacity="1" /><path clip-path="url(#clip460)" d="M162.477 1030.4 L180.834 1030.4 L180.834 1034.34 L166.76 1034.34 L166.76 1042.81 Q167.778 1042.46 168.797 1042.3 Q169.815 1042.12 170.834 1042.12 Q176.621 1042.12 180.001 1045.29 Q183.38 1048.46 183.38 1053.88 Q183.38 1059.45 179.908 1062.56 Q176.436 1065.63 170.116 1065.63 Q167.94 1065.63 165.672 1065.26 Q163.427 1064.89 161.019 1064.15 L161.019 1059.45 Q163.102 1060.59 165.325 1061.14 Q167.547 1061.7 170.024 1061.7 Q174.028 1061.7 176.366 1059.59 Q178.704 1057.49 178.704 1053.88 Q178.704 1050.26 176.366 1048.16 Q174.028 1046.05 170.024 1046.05 Q168.149 1046.05 166.274 1046.47 Q164.422 1046.88 162.477 1047.76 L162.477 1030.4 Z" fill="#000000" fill-rule="nonzero" fill-opacity="1" /><path clip-path="url(#clip460)" d="M117.015 722.315 L124.654 722.315 L124.654 695.95 L116.343 697.616 L116.343 693.357 L124.607 691.691 L129.283 691.691 L129.283 722.315 L136.922 722.315 L136.922 726.251 L117.015 726.251 L117.015 722.315 Z" fill="#000000" fill-rule="nonzero" fill-opacity="1" /><path clip-path="url(#clip460)" d="M146.366 720.371 L151.251 720.371 L151.251 726.251 L146.366 726.251 L146.366 720.371 Z" fill="#000000" fill-rule="nonzero" fill-opacity="1" /><path clip-path="url(#clip460)" d="M171.436 694.769 Q167.825 694.769 165.996 698.334 Q164.19 701.876 164.19 709.005 Q164.19 716.112 165.996 719.677 Q167.825 723.218 171.436 723.218 Q175.07 723.218 176.876 719.677 Q178.704 716.112 178.704 709.005 Q178.704 701.876 176.876 698.334 Q175.07 694.769 171.436 694.769 M171.436 691.066 Q177.246 691.066 180.301 695.672 Q183.38 700.255 183.38 709.005 Q183.38 717.732 180.301 722.339 Q177.246 726.922 171.436 726.922 Q165.626 726.922 162.547 722.339 Q159.491 717.732 159.491 709.005 Q159.491 700.255 162.547 695.672 Q165.626 691.066 171.436 691.066 Z" fill="#000000" fill-rule="nonzero" fill-opacity="1" /><path clip-path="url(#clip460)" d="M118.01 383.603 L125.649 383.603 L125.649 357.237 L117.339 358.904 L117.339 354.645 L125.603 352.978 L130.279 352.978 L130.279 383.603 L137.917 383.603 L137.917 387.538 L118.01 387.538 L118.01 383.603 Z" fill="#000000" fill-rule="nonzero" fill-opacity="1" /><path clip-path="url(#clip460)" d="M147.362 381.658 L152.246 381.658 L152.246 387.538 L147.362 387.538 L147.362 381.658 Z" fill="#000000" fill-rule="nonzero" fill-opacity="1" /><path clip-path="url(#clip460)" d="M162.477 352.978 L180.834 352.978 L180.834 356.913 L166.76 356.913 L166.76 365.385 Q167.778 365.038 168.797 364.876 Q169.815 364.691 170.834 364.691 Q176.621 364.691 180.001 367.862 Q183.38 371.034 183.38 376.45 Q183.38 382.029 179.908 385.131 Q176.436 388.209 170.116 388.209 Q167.94 388.209 165.672 387.839 Q163.427 387.469 161.019 386.728 L161.019 382.029 Q163.102 383.163 165.325 383.719 Q167.547 384.274 170.024 384.274 Q174.028 384.274 176.366 382.168 Q178.704 380.061 178.704 376.45 Q178.704 372.839 176.366 370.733 Q174.028 368.626 170.024 368.626 Q168.149 368.626 166.274 369.043 Q164.422 369.459 162.477 370.339 L162.477 352.978 Z" fill="#000000" fill-rule="nonzero" fill-opacity="1" /><path clip-path="url(#clip460)" d="M20.1444 820.225 L26.9239 820.225 Q23.9002 823.472 22.4043 827.164 Q20.9083 830.824 20.9083 834.962 Q20.9083 843.11 25.9054 847.439 Q30.8707 851.767 40.2919 851.767 Q49.6813 851.767 54.6784 847.439 Q59.6436 843.11 59.6436 834.962 Q59.6436 830.824 58.1477 827.164 Q56.6518 823.472 53.6281 820.225 L60.3439 820.225 Q62.6355 823.599 63.7814 827.387 Q64.9272 831.143 64.9272 835.344 Q64.9272 846.134 58.3387 852.34 Q51.7183 858.547 40.2919 858.547 Q28.8336 858.547 22.2451 852.34 Q15.6248 846.134 15.6248 835.344 Q15.6248 831.079 16.7706 827.323 Q17.8846 823.535 20.1444 820.225 Z" fill="#000000" fill-rule="nonzero" fill-opacity="1" /><path clip-path="url(#clip460)" d="M16.4842 816.883 L16.4842 776.684 L21.895 776.684 L21.895 793.553 L64.0042 793.553 L64.0042 800.014 L21.895 800.014 L21.895 816.883 L16.4842 816.883 Z" fill="#000000" fill-rule="nonzero" fill-opacity="1" /><path clip-path="url(#clip460)" d="M16.4842 770.477 L16.4842 761.82 L56.238 740.749 L16.4842 740.749 L16.4842 734.511 L64.0042 734.511 L64.0042 743.168 L24.2503 764.239 L64.0042 764.239 L64.0042 770.477 L16.4842 770.477 Z" fill="#000000" fill-rule="nonzero" fill-opacity="1" /><path clip-path="url(#clip460)" d="M16.4842 728.305 L16.4842 688.105 L21.895 688.105 L21.895 704.974 L64.0042 704.974 L64.0042 711.435 L21.895 711.435 L21.895 728.305 L16.4842 728.305 Z" fill="#000000" fill-rule="nonzero" fill-opacity="1" /><path clip-path="url(#clip460)" d="M1039.06 18.8205 L1039.06 41.5461 L1049.35 41.5461 Q1055.07 41.5461 1058.18 38.5889 Q1061.3 35.6318 1061.3 30.163 Q1061.3 24.7348 1058.18 21.7777 Q1055.07 18.8205 1049.35 18.8205 L1039.06 18.8205 M1030.88 12.096 L1049.35 12.096 Q1059.52 12.096 1064.71 16.714 Q1069.93 21.2916 1069.93 30.163 Q1069.93 39.1155 1064.71 43.6931 Q1059.52 48.2706 1049.35 48.2706 L1039.06 48.2706 L1039.06 72.576 L1030.88 72.576 L1030.88 12.096 Z" fill="#000000" fill-rule="nonzero" fill-opacity="1" /><path clip-path="url(#clip460)" d="M1097.48 49.7694 Q1088.44 49.7694 1084.96 51.8354 Q1081.48 53.9013 1081.48 58.8839 Q1081.48 62.8538 1084.07 65.2034 Q1086.7 67.5124 1091.2 67.5124 Q1097.4 67.5124 1101.12 63.1374 Q1104.89 58.7219 1104.89 51.4303 L1104.89 49.7694 L1097.48 49.7694 M1112.35 46.6907 L1112.35 72.576 L1104.89 72.576 L1104.89 65.6895 Q1102.34 69.8214 1098.53 71.8063 Q1094.72 73.7508 1089.21 73.7508 Q1082.25 73.7508 1078.11 69.8619 Q1074.02 65.9325 1074.02 59.3701 Q1074.02 51.7138 1079.13 47.825 Q1084.27 43.9361 1094.44 43.9361 L1104.89 43.9361 L1104.89 43.2069 Q1104.89 38.0623 1101.49 35.2672 Q1098.13 32.4315 1092.01 32.4315 Q1088.12 32.4315 1084.43 33.3632 Q1080.75 34.295 1077.35 36.1584 L1077.35 29.2718 Q1081.44 27.692 1085.28 26.9223 Q1089.13 26.1121 1092.78 26.1121 Q1102.62 26.1121 1107.48 31.2163 Q1112.35 36.3204 1112.35 46.6907 Z" fill="#000000" fill-rule="nonzero" fill-opacity="1" /><path clip-path="url(#clip460)" d="M1135.07 14.324 L1135.07 27.2059 L1150.42 27.2059 L1150.42 32.9987 L1135.07 32.9987 L1135.07 57.6282 Q1135.07 63.1779 1136.57 64.7578 Q1138.11 66.3376 1142.77 66.3376 L1150.42 66.3376 L1150.42 72.576 L1142.77 72.576 Q1134.14 72.576 1130.86 69.3758 Q1127.58 66.1351 1127.58 57.6282 L1127.58 32.9987 L1122.11 32.9987 L1122.11 27.2059 L1127.58 27.2059 L1127.58 14.324 L1135.07 14.324 Z" fill="#000000" fill-rule="nonzero" fill-opacity="1" /><path clip-path="url(#clip460)" d="M1160.23 27.2059 L1167.68 27.2059 L1167.68 72.576 L1160.23 72.576 L1160.23 27.2059 M1160.23 9.54393 L1167.68 9.54393 L1167.68 18.9825 L1160.23 18.9825 L1160.23 9.54393 Z" fill="#000000" fill-rule="nonzero" fill-opacity="1" /><path clip-path="url(#clip460)" d="M1222.08 48.0275 L1222.08 51.6733 L1187.81 51.6733 Q1188.3 59.3701 1192.43 63.421 Q1196.6 67.4314 1204.02 67.4314 Q1208.31 67.4314 1212.32 66.3781 Q1216.37 65.3249 1220.34 63.2184 L1220.34 70.267 Q1216.33 71.9684 1212.12 72.8596 Q1207.91 73.7508 1203.57 73.7508 Q1192.71 73.7508 1186.36 67.4314 Q1180.04 61.1119 1180.04 50.3365 Q1180.04 39.1965 1186.03 32.6746 Q1192.07 26.1121 1202.28 26.1121 Q1211.43 26.1121 1216.74 32.0264 Q1222.08 37.9003 1222.08 48.0275 M1214.63 45.84 Q1214.55 39.7232 1211.19 36.0774 Q1207.87 32.4315 1202.36 32.4315 Q1196.12 32.4315 1192.35 35.9558 Q1188.62 39.4801 1188.06 45.8805 L1214.63 45.84 Z" fill="#000000" fill-rule="nonzero" fill-opacity="1" /><path clip-path="url(#clip460)" d="M1272.03 45.1919 L1272.03 72.576 L1264.58 72.576 L1264.58 45.4349 Q1264.58 38.994 1262.07 35.7938 Q1259.55 32.5936 1254.53 32.5936 Q1248.5 32.5936 1245.01 36.4419 Q1241.53 40.2903 1241.53 46.9338 L1241.53 72.576 L1234.03 72.576 L1234.03 27.2059 L1241.53 27.2059 L1241.53 34.2544 Q1244.2 30.163 1247.81 28.1376 Q1251.45 26.1121 1256.19 26.1121 Q1264.01 26.1121 1268.02 30.9732 Q1272.03 35.7938 1272.03 45.1919 Z" fill="#000000" fill-rule="nonzero" fill-opacity="1" /><path clip-path="url(#clip460)" d="M1294.27 14.324 L1294.27 27.2059 L1309.62 27.2059 L1309.62 32.9987 L1294.27 32.9987 L1294.27 57.6282 Q1294.27 63.1779 1295.77 64.7578 Q1297.31 66.3376 1301.97 66.3376 L1309.62 66.3376 L1309.62 72.576 L1301.97 72.576 Q1293.34 72.576 1290.06 69.3758 Q1286.78 66.1351 1286.78 57.6282 L1286.78 32.9987 L1281.31 32.9987 L1281.31 27.2059 L1286.78 27.2059 L1286.78 14.324 L1294.27 14.324 Z" fill="#000000" fill-rule="nonzero" fill-opacity="1" /><path clip-path="url(#clip460)" d="M1383.51 45.1919 L1383.51 72.576 L1376.06 72.576 L1376.06 45.4349 Q1376.06 38.994 1373.55 35.7938 Q1371.04 32.5936 1366.01 32.5936 Q1359.98 32.5936 1356.49 36.4419 Q1353.01 40.2903 1353.01 46.9338 L1353.01 72.576 L1345.52 72.576 L1345.52 27.2059 L1353.01 27.2059 L1353.01 34.2544 Q1355.68 30.163 1359.29 28.1376 Q1362.93 26.1121 1367.67 26.1121 Q1375.49 26.1121 1379.5 30.9732 Q1383.51 35.7938 1383.51 45.1919 Z" fill="#000000" fill-rule="nonzero" fill-opacity="1" /><path clip-path="url(#clip460)" d="M1406.48 65.6895 L1435.04 65.6895 L1435.04 72.576 L1396.64 72.576 L1396.64 65.6895 Q1401.3 60.8689 1409.32 52.7671 Q1417.38 44.6248 1419.44 42.2752 Q1423.37 37.8598 1424.91 34.8216 Q1426.49 31.7429 1426.49 28.7857 Q1426.49 23.9651 1423.09 20.927 Q1419.73 17.8888 1414.3 17.8888 Q1410.45 17.8888 1406.16 19.2256 Q1401.9 20.5624 1397.04 23.2765 L1397.04 15.0127 Q1401.98 13.0277 1406.28 12.015 Q1410.57 11.0023 1414.14 11.0023 Q1423.54 11.0023 1429.13 15.7013 Q1434.72 20.4004 1434.72 28.2591 Q1434.72 31.9859 1433.3 35.3482 Q1431.92 38.6699 1428.23 43.2069 Q1427.22 44.3817 1421.79 50.0125 Q1416.37 55.6027 1406.48 65.6895 Z" fill="#000000" fill-rule="nonzero" fill-opacity="1" /><path clip-path="url(#clip460)" d="M1469.72 43.8551 Q1463.88 43.8551 1460.52 46.9743 Q1457.2 50.0935 1457.2 55.5622 Q1457.2 61.0309 1460.52 64.1501 Q1463.88 67.2693 1469.72 67.2693 Q1475.55 67.2693 1478.91 64.1501 Q1482.27 60.9904 1482.27 55.5622 Q1482.27 50.0935 1478.91 46.9743 Q1475.59 43.8551 1469.72 43.8551 M1461.53 40.3713 Q1456.27 39.075 1453.31 35.4697 Q1450.39 31.8644 1450.39 26.6793 Q1450.39 19.4281 1455.54 15.2152 Q1460.72 11.0023 1469.72 11.0023 Q1478.75 11.0023 1483.89 15.2152 Q1489.04 19.4281 1489.04 26.6793 Q1489.04 31.8644 1486.08 35.4697 Q1483.16 39.075 1477.94 40.3713 Q1483.85 41.7486 1487.13 45.759 Q1490.46 49.7694 1490.46 55.5622 Q1490.46 64.3527 1485.07 69.0517 Q1479.72 73.7508 1469.72 73.7508 Q1459.71 73.7508 1454.32 69.0517 Q1448.98 64.3527 1448.98 55.5622 Q1448.98 49.7694 1452.3 45.759 Q1455.62 41.7486 1461.53 40.3713 M1458.54 27.4489 Q1458.54 32.148 1461.45 34.7811 Q1464.41 37.4142 1469.72 37.4142 Q1474.98 37.4142 1477.94 34.7811 Q1480.94 32.148 1480.94 27.4489 Q1480.94 22.7499 1477.94 20.1168 Q1474.98 17.4837 1469.72 17.4837 Q1464.41 17.4837 1461.45 20.1168 Q1458.54 22.7499 1458.54 27.4489 Z" fill="#000000" fill-rule="nonzero" fill-opacity="1" /><path clip-path="url(#clip460)" d="M1506.42 65.6895 L1519.78 65.6895 L1519.78 19.5497 L1505.24 22.4663 L1505.24 15.0127 L1519.7 12.096 L1527.89 12.096 L1527.89 65.6895 L1541.25 65.6895 L1541.25 72.576 L1506.42 72.576 L1506.42 65.6895 Z" fill="#000000" fill-rule="nonzero" fill-opacity="1" /><polyline clip-path="url(#clip462)" style="stroke:#009af9; stroke-linecap:round; stroke-linejoin:round; stroke-width:8; stroke-opacity:1; fill:none" points="279.759,1386.4 290.187,1129.8 300.615,925.623 311.043,764.264 321.471,637.799 331.899,539.685 342.327,464.517 352.755,407.821 363.183,365.902 373.611,335.679 384.039,314.64 394.468,300.696 404.896,292.135 415.324,287.618 425.752,286.06 436.18,286.598 446.608,288.609 457.036,291.641 467.464,295.339 477.892,299.449 488.32,303.822 498.748,308.364 509.176,312.999 519.604,317.677 530.033,322.369 540.461,327.065 550.889,331.755 561.317,336.429 571.745,341.074 582.173,345.676 592.601,350.224 603.029,354.705 613.457,359.105 623.885,363.408 634.313,367.597 644.741,371.651 655.169,375.55 665.598,379.269 676.026,382.775 686.454,386.065 696.882,389.133 707.31,391.97 717.738,394.563 728.166,396.898 738.594,398.953 749.022,400.706 759.45,402.129 769.878,403.201 780.306,403.935 790.734,404.335 801.163,404.407 811.591,404.15 822.019,403.565 832.447,402.649 842.875,401.396 853.303,399.801 863.731,397.86 874.159,395.588 884.587,393.005 895.015,390.128 905.443,386.973 915.871,383.555 926.299,379.887 936.727,375.981 947.156,371.848 957.584,367.497 968.012,362.936 978.44,358.203 988.868,353.327 999.296,348.318 1009.72,343.19 1020.15,337.958 1030.58,332.64 1041.01,327.255 1051.44,321.827 1061.86,316.38 1072.29,310.942 1082.72,305.544 1093.15,300.218 1103.58,295.016 1114,289.933 1124.43,284.95 1134.86,280.06 1145.29,275.26 1155.72,270.555 1166.15,265.957 1176.57,261.486 1187,257.168 1197.43,253.037 1207.86,249.135 1218.29,245.51 1228.71,242.205 1239.14,239.174 1249.57,236.386 1260,233.826 1270.43,231.484 1280.85,229.353 1291.28,227.436 1301.71,225.738 1312.14,224.27 1322.57,223.052 1332.99,222.104 1343.42,221.456 1353.85,221.124 1364.28,221.073 1374.71,221.277 1385.13,221.715 1395.56,222.371 1405.99,223.233 1416.42,224.294 1426.85,225.551 1437.28,227.008 1447.7,228.671 1458.13,230.552 1468.56,232.669 1478.99,235.041 1489.42,237.662 1499.84,240.488 1510.27,243.499 1520.7,246.681 1531.13,250.021 1541.56,253.507 1551.98,257.133 1562.41,260.892 1572.84,264.784 1583.27,268.807 1593.7,272.966 1604.12,277.265 1614.55,281.713 1624.98,286.315 1635.41,291.04 1645.84,295.874 1656.26,300.807 1666.69,305.829 1677.12,310.932 1687.55,316.109 1697.98,321.354 1708.41,326.663 1718.83,332.032 1729.26,337.459 1739.69,342.943 1750.12,348.483 1760.55,354.081 1770.97,359.739 1781.4,365.455 1791.83,371.207 1802.26,376.987 1812.69,382.795 1823.11,388.629 1833.54,394.486 1843.97,400.364 1854.4,406.262 1864.83,412.175 1875.25,418.102 1885.68,424.039 1896.11,429.984 1906.54,435.932 1916.97,441.881 1927.39,447.826 1937.82,453.763 1948.25,459.689 1958.68,465.598 1969.11,471.462 1979.54,477.265 1989.96,483.024 2000.39,488.754 2010.82,494.469 2021.25,500.18 2031.68,505.894 2042.1,511.617 2052.53,517.355 2062.96,523.107 2073.39,528.873 2083.82,534.65 2094.24,540.432 2104.67,546.212 2115.1,551.979 2125.53,557.72 2135.96,563.422 2146.38,569.067 2156.81,574.635 2167.24,580.104 2177.67,585.451 2188.1,590.688 2198.52,595.899 2208.95,601.091 2219.38,606.263 2229.81,611.414 2240.24,616.544 2250.67,621.649 2261.09,626.726 2271.52,631.769 2281.95,636.775 2292.38,639.509 "/>
<circle clip-path="url(#clip462)" cx="367.181" cy="390.581" r="18" fill="#e26f46" fill-rule="evenodd" fill-opacity="1" stroke="#000000" stroke-opacity="1" stroke-width="3.2"/>
<circle clip-path="url(#clip462)" cx="454.255" cy="234.773" r="18" fill="#e26f46" fill-rule="evenodd" fill-opacity="1" stroke="#000000" stroke-opacity="1" stroke-width="3.2"/>
<circle clip-path="url(#clip462)" cx="512.479" cy="173.805" r="18" fill="#e26f46" fill-rule="evenodd" fill-opacity="1" stroke="#000000" stroke-opacity="1" stroke-width="3.2"/>
<circle clip-path="url(#clip462)" cx="610.329" cy="465.098" r="18" fill="#e26f46" fill-rule="evenodd" fill-opacity="1" stroke="#000000" stroke-opacity="1" stroke-width="3.2"/>
<circle clip-path="url(#clip462)" cx="757.017" cy="471.872" r="18" fill="#e26f46" fill-rule="evenodd" fill-opacity="1" stroke="#000000" stroke-opacity="1" stroke-width="3.2"/>
<circle clip-path="url(#clip462)" cx="1021.89" cy="316.064" r="18" fill="#e26f46" fill-rule="evenodd" fill-opacity="1" stroke="#000000" stroke-opacity="1" stroke-width="3.2"/>
<circle clip-path="url(#clip462)" cx="1556.85" cy="160.256" r="18" fill="#e26f46" fill-rule="evenodd" fill-opacity="1" stroke="#000000" stroke-opacity="1" stroke-width="3.2"/>
<circle clip-path="url(#clip462)" cx="2277.26" cy="675.099" r="18" fill="#e26f46" fill-rule="evenodd" fill-opacity="1" stroke="#000000" stroke-opacity="1" stroke-width="3.2"/>
<path clip-path="url(#clip460)" d="M1684.07 1379.86 L2281.64 1379.86 L2281.64 1224.34 L1684.07 1224.34  Z" fill="#ffffff" fill-rule="evenodd" fill-opacity="1"/>
<polyline clip-path="url(#clip460)" style="stroke:#000000; stroke-linecap:round; stroke-linejoin:round; stroke-width:4; stroke-opacity:1; fill:none" points="1684.07,1379.86 2281.64,1379.86 2281.64,1224.34 1684.07,1224.34 1684.07,1379.86 "/>
<polyline clip-path="url(#clip460)" style="stroke:#009af9; stroke-linecap:round; stroke-linejoin:round; stroke-width:8; stroke-opacity:1; fill:none" points="1707.78,1276.18 1850,1276.18 "/>
<path clip-path="url(#clip460)" d="M1873.71 1258.9 L1880.67 1258.9 L1889.49 1282.41 L1898.36 1258.9 L1905.33 1258.9 L1905.33 1293.46 L1900.77 1293.46 L1900.77 1263.11 L1891.85 1286.81 L1887.15 1286.81 L1878.24 1263.11 L1878.24 1293.46 L1873.71 1293.46 L1873.71 1258.9 Z" fill="#000000" fill-rule="nonzero" fill-opacity="1" /><path clip-path="url(#clip460)" d="M1924.47 1270.52 Q1921.04 1270.52 1919.05 1273.2 Q1917.06 1275.86 1917.06 1280.52 Q1917.06 1285.17 1919.03 1287.85 Q1921.02 1290.52 1924.47 1290.52 Q1927.87 1290.52 1929.86 1287.83 Q1931.85 1285.15 1931.85 1280.52 Q1931.85 1275.91 1929.86 1273.22 Q1927.87 1270.52 1924.47 1270.52 M1924.47 1266.91 Q1930.02 1266.91 1933.2 1270.52 Q1936.37 1274.13 1936.37 1280.52 Q1936.37 1286.88 1933.2 1290.52 Q1930.02 1294.13 1924.47 1294.13 Q1918.89 1294.13 1915.72 1290.52 Q1912.57 1286.88 1912.57 1280.52 Q1912.57 1274.13 1915.72 1270.52 Q1918.89 1266.91 1924.47 1266.91 Z" fill="#000000" fill-rule="nonzero" fill-opacity="1" /><path clip-path="url(#clip460)" d="M1960.49 1271.47 L1960.49 1257.44 L1964.75 1257.44 L1964.75 1293.46 L1960.49 1293.46 L1960.49 1289.57 Q1959.14 1291.88 1957.08 1293.02 Q1955.05 1294.13 1952.18 1294.13 Q1947.48 1294.13 1944.51 1290.38 Q1941.58 1286.63 1941.58 1280.52 Q1941.58 1274.41 1944.51 1270.66 Q1947.48 1266.91 1952.18 1266.91 Q1955.05 1266.91 1957.08 1268.04 Q1959.14 1269.15 1960.49 1271.47 M1945.97 1280.52 Q1945.97 1285.22 1947.89 1287.9 Q1949.84 1290.56 1953.22 1290.56 Q1956.6 1290.56 1958.54 1287.9 Q1960.49 1285.22 1960.49 1280.52 Q1960.49 1275.82 1958.54 1273.16 Q1956.6 1270.47 1953.22 1270.47 Q1949.84 1270.47 1947.89 1273.16 Q1945.97 1275.82 1945.97 1280.52 Z" fill="#000000" fill-rule="nonzero" fill-opacity="1" /><path clip-path="url(#clip460)" d="M1995.7 1279.43 L1995.7 1281.51 L1976.11 1281.51 Q1976.39 1285.91 1978.75 1288.22 Q1981.14 1290.52 1985.37 1290.52 Q1987.82 1290.52 1990.12 1289.91 Q1992.43 1289.31 1994.7 1288.11 L1994.7 1292.14 Q1992.41 1293.11 1990 1293.62 Q1987.59 1294.13 1985.12 1294.13 Q1978.91 1294.13 1975.28 1290.52 Q1971.67 1286.91 1971.67 1280.75 Q1971.67 1274.38 1975.09 1270.66 Q1978.54 1266.91 1984.38 1266.91 Q1989.61 1266.91 1992.64 1270.29 Q1995.7 1273.64 1995.7 1279.43 M1991.44 1278.18 Q1991.39 1274.68 1989.47 1272.6 Q1987.57 1270.52 1984.42 1270.52 Q1980.86 1270.52 1978.7 1272.53 Q1976.57 1274.54 1976.25 1278.2 L1991.44 1278.18 Z" fill="#000000" fill-rule="nonzero" fill-opacity="1" /><path clip-path="url(#clip460)" d="M2002.69 1257.44 L2006.95 1257.44 L2006.95 1293.46 L2002.69 1293.46 L2002.69 1257.44 Z" fill="#000000" fill-rule="nonzero" fill-opacity="1" /><path clip-path="url(#clip460)" d="M2035.79 1262.74 L2035.79 1275.72 L2041.67 1275.72 Q2044.93 1275.72 2046.71 1274.04 Q2048.5 1272.35 2048.5 1269.22 Q2048.5 1266.12 2046.71 1264.43 Q2044.93 1262.74 2041.67 1262.74 L2035.79 1262.74 M2031.11 1258.9 L2041.67 1258.9 Q2047.48 1258.9 2050.44 1261.54 Q2053.43 1264.15 2053.43 1269.22 Q2053.43 1274.34 2050.44 1276.95 Q2047.48 1279.57 2041.67 1279.57 L2035.79 1279.57 L2035.79 1293.46 L2031.11 1293.46 L2031.11 1258.9 Z" fill="#000000" fill-rule="nonzero" fill-opacity="1" /><path clip-path="url(#clip460)" d="M2073.7 1271.51 Q2072.99 1271.1 2072.13 1270.91 Q2071.3 1270.7 2070.28 1270.7 Q2066.67 1270.7 2064.72 1273.06 Q2062.8 1275.4 2062.8 1279.8 L2062.8 1293.46 L2058.52 1293.46 L2058.52 1267.53 L2062.8 1267.53 L2062.8 1271.56 Q2064.14 1269.2 2066.3 1268.06 Q2068.45 1266.91 2071.53 1266.91 Q2071.97 1266.91 2072.5 1266.97 Q2073.03 1267.02 2073.68 1267.14 L2073.7 1271.51 Z" fill="#000000" fill-rule="nonzero" fill-opacity="1" /><path clip-path="url(#clip460)" d="M2099.31 1279.43 L2099.31 1281.51 L2079.72 1281.51 Q2080 1285.91 2082.36 1288.22 Q2084.75 1290.52 2088.98 1290.52 Q2091.44 1290.52 2093.73 1289.91 Q2096.04 1289.31 2098.31 1288.11 L2098.31 1292.14 Q2096.02 1293.11 2093.61 1293.62 Q2091.2 1294.13 2088.73 1294.13 Q2082.52 1294.13 2078.89 1290.52 Q2075.28 1286.91 2075.28 1280.75 Q2075.28 1274.38 2078.7 1270.66 Q2082.15 1266.91 2087.99 1266.91 Q2093.22 1266.91 2096.25 1270.29 Q2099.31 1273.64 2099.31 1279.43 M2095.05 1278.18 Q2095 1274.68 2093.08 1272.6 Q2091.18 1270.52 2088.03 1270.52 Q2084.47 1270.52 2082.32 1272.53 Q2080.19 1274.54 2079.86 1278.2 L2095.05 1278.18 Z" fill="#000000" fill-rule="nonzero" fill-opacity="1" /><path clip-path="url(#clip460)" d="M2123.36 1271.47 L2123.36 1257.44 L2127.62 1257.44 L2127.62 1293.46 L2123.36 1293.46 L2123.36 1289.57 Q2122.01 1291.88 2119.95 1293.02 Q2117.92 1294.13 2115.05 1294.13 Q2110.35 1294.13 2107.38 1290.38 Q2104.44 1286.63 2104.44 1280.52 Q2104.44 1274.41 2107.38 1270.66 Q2110.35 1266.91 2115.05 1266.91 Q2117.92 1266.91 2119.95 1268.04 Q2122.01 1269.15 2123.36 1271.47 M2108.84 1280.52 Q2108.84 1285.22 2110.76 1287.9 Q2112.71 1290.56 2116.09 1290.56 Q2119.47 1290.56 2121.41 1287.9 Q2123.36 1285.22 2123.36 1280.52 Q2123.36 1275.82 2121.41 1273.16 Q2119.47 1270.47 2116.09 1270.47 Q2112.71 1270.47 2110.76 1273.16 Q2108.84 1275.82 2108.84 1280.52 Z" fill="#000000" fill-rule="nonzero" fill-opacity="1" /><path clip-path="url(#clip460)" d="M2136.39 1267.53 L2140.65 1267.53 L2140.65 1293.46 L2136.39 1293.46 L2136.39 1267.53 M2136.39 1257.44 L2140.65 1257.44 L2140.65 1262.83 L2136.39 1262.83 L2136.39 1257.44 Z" fill="#000000" fill-rule="nonzero" fill-opacity="1" /><path clip-path="url(#clip460)" d="M2168.22 1268.53 L2168.22 1272.51 Q2166.41 1271.51 2164.58 1271.03 Q2162.78 1270.52 2160.93 1270.52 Q2156.78 1270.52 2154.49 1273.16 Q2152.2 1275.77 2152.2 1280.52 Q2152.2 1285.26 2154.49 1287.9 Q2156.78 1290.52 2160.93 1290.52 Q2162.78 1290.52 2164.58 1290.03 Q2166.41 1289.52 2168.22 1288.53 L2168.22 1292.46 Q2166.44 1293.29 2164.51 1293.71 Q2162.62 1294.13 2160.46 1294.13 Q2154.61 1294.13 2151.16 1290.45 Q2147.71 1286.77 2147.71 1280.52 Q2147.71 1274.17 2151.18 1270.54 Q2154.68 1266.91 2160.74 1266.91 Q2162.71 1266.91 2164.58 1267.32 Q2166.46 1267.72 2168.22 1268.53 Z" fill="#000000" fill-rule="nonzero" fill-opacity="1" /><path clip-path="url(#clip460)" d="M2179.84 1260.17 L2179.84 1267.53 L2188.61 1267.53 L2188.61 1270.84 L2179.84 1270.84 L2179.84 1284.91 Q2179.84 1288.09 2180.69 1288.99 Q2181.57 1289.89 2184.24 1289.89 L2188.61 1289.89 L2188.61 1293.46 L2184.24 1293.46 Q2179.31 1293.46 2177.43 1291.63 Q2175.56 1289.78 2175.56 1284.91 L2175.56 1270.84 L2172.43 1270.84 L2172.43 1267.53 L2175.56 1267.53 L2175.56 1260.17 L2179.84 1260.17 Z" fill="#000000" fill-rule="nonzero" fill-opacity="1" /><path clip-path="url(#clip460)" d="M2194.21 1267.53 L2198.47 1267.53 L2198.47 1293.46 L2194.21 1293.46 L2194.21 1267.53 M2194.21 1257.44 L2198.47 1257.44 L2198.47 1262.83 L2194.21 1262.83 L2194.21 1257.44 Z" fill="#000000" fill-rule="nonzero" fill-opacity="1" /><path clip-path="url(#clip460)" d="M2217.43 1270.52 Q2214 1270.52 2212.01 1273.2 Q2210.02 1275.86 2210.02 1280.52 Q2210.02 1285.17 2211.99 1287.85 Q2213.98 1290.52 2217.43 1290.52 Q2220.83 1290.52 2222.82 1287.83 Q2224.81 1285.15 2224.81 1280.52 Q2224.81 1275.91 2222.82 1273.22 Q2220.83 1270.52 2217.43 1270.52 M2217.43 1266.91 Q2222.99 1266.91 2226.16 1270.52 Q2229.33 1274.13 2229.33 1280.52 Q2229.33 1286.88 2226.16 1290.52 Q2222.99 1294.13 2217.43 1294.13 Q2211.85 1294.13 2208.68 1290.52 Q2205.53 1286.88 2205.53 1280.52 Q2205.53 1274.13 2208.68 1270.52 Q2211.85 1266.91 2217.43 1266.91 Z" fill="#000000" fill-rule="nonzero" fill-opacity="1" /><path clip-path="url(#clip460)" d="M2257.94 1277.81 L2257.94 1293.46 L2253.68 1293.46 L2253.68 1277.95 Q2253.68 1274.27 2252.24 1272.44 Q2250.81 1270.61 2247.94 1270.61 Q2244.49 1270.61 2242.5 1272.81 Q2240.51 1275.01 2240.51 1278.8 L2240.51 1293.46 L2236.23 1293.46 L2236.23 1267.53 L2240.51 1267.53 L2240.51 1271.56 Q2242.04 1269.22 2244.1 1268.06 Q2246.18 1266.91 2248.89 1266.91 Q2253.36 1266.91 2255.65 1269.68 Q2257.94 1272.44 2257.94 1277.81 Z" fill="#000000" fill-rule="nonzero" fill-opacity="1" /><circle clip-path="url(#clip460)" cx="1778.89" cy="1328.02" r="20.9455" fill="#e26f46" fill-rule="evenodd" fill-opacity="1" stroke="#000000" stroke-opacity="1" stroke-width="3.72364"/>
<path clip-path="url(#clip460)" d="M1889.72 1313.91 Q1884.63 1313.91 1881.62 1317.7 Q1878.64 1321.5 1878.64 1328.05 Q1878.64 1334.58 1881.62 1338.37 Q1884.63 1342.17 1889.72 1342.17 Q1894.82 1342.17 1897.78 1338.37 Q1900.77 1334.58 1900.77 1328.05 Q1900.77 1321.5 1897.78 1317.7 Q1894.82 1313.91 1889.72 1313.91 M1889.72 1310.11 Q1896.99 1310.11 1901.34 1315 Q1905.7 1319.86 1905.7 1328.05 Q1905.7 1336.22 1901.34 1341.11 Q1896.99 1345.97 1889.72 1345.97 Q1882.43 1345.97 1878.06 1341.11 Q1873.71 1336.25 1873.71 1328.05 Q1873.71 1319.86 1878.06 1315 Q1882.43 1310.11 1889.72 1310.11 Z" fill="#000000" fill-rule="nonzero" fill-opacity="1" /><path clip-path="url(#clip460)" d="M1931.44 1332.36 Q1931.44 1327.66 1929.49 1325 Q1927.57 1322.31 1924.19 1322.31 Q1920.81 1322.31 1918.87 1325 Q1916.95 1327.66 1916.95 1332.36 Q1916.95 1337.06 1918.87 1339.74 Q1920.81 1342.4 1924.19 1342.4 Q1927.57 1342.4 1929.49 1339.74 Q1931.44 1337.06 1931.44 1332.36 M1916.95 1323.31 Q1918.29 1320.99 1920.33 1319.88 Q1922.39 1318.75 1925.23 1318.75 Q1929.95 1318.75 1932.89 1322.5 Q1935.86 1326.25 1935.86 1332.36 Q1935.86 1338.47 1932.89 1342.22 Q1929.95 1345.97 1925.23 1345.97 Q1922.39 1345.97 1920.33 1344.86 Q1918.29 1343.72 1916.95 1341.41 L1916.95 1345.3 L1912.66 1345.3 L1912.66 1309.28 L1916.95 1309.28 L1916.95 1323.31 Z" fill="#000000" fill-rule="nonzero" fill-opacity="1" /><path clip-path="url(#clip460)" d="M1959.45 1320.13 L1959.45 1324.16 Q1957.64 1323.24 1955.7 1322.77 Q1953.75 1322.31 1951.67 1322.31 Q1948.5 1322.31 1946.9 1323.28 Q1945.33 1324.25 1945.33 1326.2 Q1945.33 1327.68 1946.46 1328.54 Q1947.59 1329.37 1951.02 1330.13 L1952.48 1330.46 Q1957.01 1331.43 1958.91 1333.21 Q1960.83 1334.97 1960.83 1338.14 Q1960.83 1341.75 1957.96 1343.86 Q1955.12 1345.97 1950.12 1345.97 Q1948.03 1345.97 1945.76 1345.55 Q1943.52 1345.16 1941.02 1344.35 L1941.02 1339.95 Q1943.38 1341.18 1945.67 1341.8 Q1947.96 1342.4 1950.21 1342.4 Q1953.22 1342.4 1954.84 1341.38 Q1956.46 1340.34 1956.46 1338.47 Q1956.46 1336.73 1955.28 1335.81 Q1954.12 1334.88 1950.16 1334.02 L1948.68 1333.68 Q1944.72 1332.84 1942.96 1331.13 Q1941.2 1329.39 1941.2 1326.38 Q1941.2 1322.73 1943.8 1320.74 Q1946.39 1318.75 1951.16 1318.75 Q1953.52 1318.75 1955.6 1319.09 Q1957.69 1319.44 1959.45 1320.13 Z" fill="#000000" fill-rule="nonzero" fill-opacity="1" /><path clip-path="url(#clip460)" d="M1989.79 1331.27 L1989.79 1333.35 L1970.21 1333.35 Q1970.49 1337.75 1972.85 1340.06 Q1975.23 1342.36 1979.47 1342.36 Q1981.92 1342.36 1984.21 1341.75 Q1986.53 1341.15 1988.8 1339.95 L1988.8 1343.98 Q1986.51 1344.95 1984.1 1345.46 Q1981.69 1345.97 1979.21 1345.97 Q1973.01 1345.97 1969.38 1342.36 Q1965.76 1338.75 1965.76 1332.59 Q1965.76 1326.22 1969.19 1322.5 Q1972.64 1318.75 1978.47 1318.75 Q1983.7 1318.75 1986.74 1322.13 Q1989.79 1325.48 1989.79 1331.27 M1985.53 1330.02 Q1985.49 1326.52 1983.57 1324.44 Q1981.67 1322.36 1978.52 1322.36 Q1974.95 1322.36 1972.8 1324.37 Q1970.67 1326.38 1970.35 1330.04 L1985.53 1330.02 Z" fill="#000000" fill-rule="nonzero" fill-opacity="1" /><path clip-path="url(#clip460)" d="M2011.81 1323.35 Q2011.09 1322.94 2010.23 1322.75 Q2009.4 1322.54 2008.38 1322.54 Q2004.77 1322.54 2002.82 1324.9 Q2000.9 1327.24 2000.9 1331.64 L2000.9 1345.3 L1996.62 1345.3 L1996.62 1319.37 L2000.9 1319.37 L2000.9 1323.4 Q2002.25 1321.04 2004.4 1319.9 Q2006.55 1318.75 2009.63 1318.75 Q2010.07 1318.75 2010.6 1318.81 Q2011.13 1318.86 2011.78 1318.98 L2011.81 1323.35 Z" fill="#000000" fill-rule="nonzero" fill-opacity="1" /><path clip-path="url(#clip460)" d="M2013.22 1319.37 L2017.73 1319.37 L2025.83 1341.13 L2033.94 1319.37 L2038.45 1319.37 L2028.73 1345.3 L2022.94 1345.3 L2013.22 1319.37 Z" fill="#000000" fill-rule="nonzero" fill-opacity="1" /><path clip-path="url(#clip460)" d="M2066.51 1331.27 L2066.51 1333.35 L2046.92 1333.35 Q2047.2 1337.75 2049.56 1340.06 Q2051.94 1342.36 2056.18 1342.36 Q2058.63 1342.36 2060.93 1341.75 Q2063.24 1341.15 2065.51 1339.95 L2065.51 1343.98 Q2063.22 1344.95 2060.81 1345.46 Q2058.4 1345.97 2055.93 1345.97 Q2049.72 1345.97 2046.09 1342.36 Q2042.48 1338.75 2042.48 1332.59 Q2042.48 1326.22 2045.9 1322.5 Q2049.35 1318.75 2055.19 1318.75 Q2060.42 1318.75 2063.45 1322.13 Q2066.51 1325.48 2066.51 1331.27 M2062.25 1330.02 Q2062.2 1326.52 2060.28 1324.44 Q2058.38 1322.36 2055.23 1322.36 Q2051.67 1322.36 2049.51 1324.37 Q2047.38 1326.38 2047.06 1330.04 L2062.25 1330.02 Z" fill="#000000" fill-rule="nonzero" fill-opacity="1" /><path clip-path="url(#clip460)" d="M2090.56 1323.31 L2090.56 1309.28 L2094.82 1309.28 L2094.82 1345.3 L2090.56 1345.3 L2090.56 1341.41 Q2089.21 1343.72 2087.15 1344.86 Q2085.12 1345.97 2082.25 1345.97 Q2077.55 1345.97 2074.58 1342.22 Q2071.64 1338.47 2071.64 1332.36 Q2071.64 1326.25 2074.58 1322.5 Q2077.55 1318.75 2082.25 1318.75 Q2085.12 1318.75 2087.15 1319.88 Q2089.21 1320.99 2090.56 1323.31 M2076.04 1332.36 Q2076.04 1337.06 2077.96 1339.74 Q2079.91 1342.4 2083.29 1342.4 Q2086.67 1342.4 2088.61 1339.74 Q2090.56 1337.06 2090.56 1332.36 Q2090.56 1327.66 2088.61 1325 Q2086.67 1322.31 2083.29 1322.31 Q2079.91 1322.31 2077.96 1325 Q2076.04 1327.66 2076.04 1332.36 Z" fill="#000000" fill-rule="nonzero" fill-opacity="1" /><path clip-path="url(#clip460)" d="M2123.52 1314.58 L2123.52 1341.45 L2129.17 1341.45 Q2136.32 1341.45 2139.63 1338.21 Q2142.96 1334.97 2142.96 1327.98 Q2142.96 1321.04 2139.63 1317.82 Q2136.32 1314.58 2129.17 1314.58 L2123.52 1314.58 M2118.84 1310.74 L2128.45 1310.74 Q2138.5 1310.74 2143.19 1314.93 Q2147.89 1319.09 2147.89 1327.98 Q2147.89 1336.92 2143.17 1341.11 Q2138.45 1345.3 2128.45 1345.3 L2118.84 1345.3 L2118.84 1310.74 Z" fill="#000000" fill-rule="nonzero" fill-opacity="1" /><path clip-path="url(#clip460)" d="M2166.94 1332.26 Q2161.78 1332.26 2159.79 1333.44 Q2157.8 1334.63 2157.8 1337.47 Q2157.8 1339.74 2159.28 1341.08 Q2160.79 1342.4 2163.36 1342.4 Q2166.9 1342.4 2169.03 1339.9 Q2171.18 1337.38 2171.18 1333.21 L2171.18 1332.26 L2166.94 1332.26 M2175.44 1330.5 L2175.44 1345.3 L2171.18 1345.3 L2171.18 1341.36 Q2169.72 1343.72 2167.55 1344.86 Q2165.37 1345.97 2162.22 1345.97 Q2158.24 1345.97 2155.88 1343.75 Q2153.54 1341.5 2153.54 1337.75 Q2153.54 1333.38 2156.46 1331.15 Q2159.4 1328.93 2165.21 1328.93 L2171.18 1328.93 L2171.18 1328.51 Q2171.18 1325.57 2169.24 1323.98 Q2167.31 1322.36 2163.82 1322.36 Q2161.6 1322.36 2159.49 1322.89 Q2157.38 1323.42 2155.44 1324.49 L2155.44 1320.55 Q2157.78 1319.65 2159.98 1319.21 Q2162.18 1318.75 2164.26 1318.75 Q2169.88 1318.75 2172.66 1321.66 Q2175.44 1324.58 2175.44 1330.5 Z" fill="#000000" fill-rule="nonzero" fill-opacity="1" /><path clip-path="url(#clip460)" d="M2188.43 1312.01 L2188.43 1319.37 L2197.2 1319.37 L2197.2 1322.68 L2188.43 1322.68 L2188.43 1336.75 Q2188.43 1339.93 2189.28 1340.83 Q2190.16 1341.73 2192.82 1341.73 L2197.2 1341.73 L2197.2 1345.3 L2192.82 1345.3 Q2187.89 1345.3 2186.02 1343.47 Q2184.14 1341.62 2184.14 1336.75 L2184.14 1322.68 L2181.02 1322.68 L2181.02 1319.37 L2184.14 1319.37 L2184.14 1312.01 L2188.43 1312.01 Z" fill="#000000" fill-rule="nonzero" fill-opacity="1" /><path clip-path="url(#clip460)" d="M2214.58 1332.26 Q2209.42 1332.26 2207.43 1333.44 Q2205.44 1334.63 2205.44 1337.47 Q2205.44 1339.74 2206.92 1341.08 Q2208.43 1342.4 2211 1342.4 Q2214.54 1342.4 2216.67 1339.9 Q2218.82 1337.38 2218.82 1333.21 L2218.82 1332.26 L2214.58 1332.26 M2223.08 1330.5 L2223.08 1345.3 L2218.82 1345.3 L2218.82 1341.36 Q2217.36 1343.72 2215.18 1344.86 Q2213.01 1345.97 2209.86 1345.97 Q2205.88 1345.97 2203.52 1343.75 Q2201.18 1341.5 2201.18 1337.75 Q2201.18 1333.38 2204.1 1331.15 Q2207.04 1328.93 2212.85 1328.93 L2218.82 1328.93 L2218.82 1328.51 Q2218.82 1325.57 2216.87 1323.98 Q2214.95 1322.36 2211.46 1322.36 Q2209.24 1322.36 2207.13 1322.89 Q2205.02 1323.42 2203.08 1324.49 L2203.08 1320.55 Q2205.42 1319.65 2207.62 1319.21 Q2209.81 1318.75 2211.9 1318.75 Q2217.52 1318.75 2220.3 1321.66 Q2223.08 1324.58 2223.08 1330.5 Z" fill="#000000" fill-rule="nonzero" fill-opacity="1" /></svg>
