<?xml version="1.0" encoding="utf-8"?>
<svg xmlns="http://www.w3.org/2000/svg" xmlns:xlink="http://www.w3.org/1999/xlink" width="600" height="400" viewBox="0 0 2400 1600">
<defs>
  <clipPath id="clip110">
    <rect x="0" y="0" width="2400" height="1600"/>
  </clipPath>
</defs>
<path clip-path="url(#clip110)" d="M0 1600 L2400 1600 L2400 0 L0 0  Z" fill="#ffffff" fill-rule="evenodd" fill-opacity="1"/>
<defs>
  <clipPath id="clip111">
    <rect x="480" y="0" width="1681" height="1600"/>
  </clipPath>
</defs>
<path clip-path="url(#clip110)" d="M219.866 1423.18 L2352.76 1423.18 L2352.76 123.472 L219.866 123.472  Z" fill="#ffffff" fill-rule="evenodd" fill-opacity="1"/>
<defs>
  <clipPath id="clip112">
    <rect x="219" y="123" width="2134" height="1301"/>
  </clipPath>
</defs>
<polyline clip-path="url(#clip112)" style="stroke:#000000; stroke-linecap:round; stroke-linejoin:round; stroke-width:2; stroke-opacity:0.1; fill:none" points="262.424,1423.18 262.424,123.472 "/>
<polyline clip-path="url(#clip112)" style="stroke:#000000; stroke-linecap:round; stroke-linejoin:round; stroke-width:2; stroke-opacity:0.1; fill:none" points="707.592,1423.18 707.592,123.472 "/>
<polyline clip-path="url(#clip112)" style="stroke:#000000; stroke-linecap:round; stroke-linejoin:round; stroke-width:2; stroke-opacity:0.1; fill:none" points="1152.76,1423.18 1152.76,123.472 "/>
<polyline clip-path="url(#clip112)" style="stroke:#000000; stroke-linecap:round; stroke-linejoin:round; stroke-width:2; stroke-opacity:0.1; fill:none" points="1597.93,1423.18 1597.93,123.472 "/>
<polyline clip-path="url(#clip112)" style="stroke:#000000; stroke-linecap:round; stroke-linejoin:round; stroke-width:2; stroke-opacity:0.1; fill:none" points="2043.1,1423.18 2043.1,123.472 "/>
<polyline clip-path="url(#clip112)" style="stroke:#000000; stroke-linecap:round; stroke-linejoin:round; stroke-width:2; stroke-opacity:0.1; fill:none" points="219.866,1386.4 2352.76,1386.4 "/>
<polyline clip-path="url(#clip112)" style="stroke:#000000; stroke-linecap:round; stroke-linejoin:round; stroke-width:2; stroke-opacity:0.1; fill:none" points="219.866,1130.95 2352.76,1130.95 "/>
<polyline clip-path="url(#clip112)" style="stroke:#000000; stroke-linecap:round; stroke-linejoin:round; stroke-width:2; stroke-opacity:0.1; fill:none" points="219.866,875.504 2352.76,875.504 "/>
<polyline clip-path="url(#clip112)" style="stroke:#000000; stroke-linecap:round; stroke-linejoin:round; stroke-width:2; stroke-opacity:0.1; fill:none" points="219.866,620.059 2352.76,620.059 "/>
<polyline clip-path="url(#clip112)" style="stroke:#000000; stroke-linecap:round; stroke-linejoin:round; stroke-width:2; stroke-opacity:0.1; fill:none" points="219.866,364.613 2352.76,364.613 "/>
<polyline clip-path="url(#clip110)" style="stroke:#000000; stroke-linecap:round; stroke-linejoin:round; stroke-width:4; stroke-opacity:1; fill:none" points="219.866,1423.18 2352.76,1423.18 "/>
<polyline clip-path="url(#clip110)" style="stroke:#000000; stroke-linecap:round; stroke-linejoin:round; stroke-width:4; stroke-opacity:1; fill:none" points="262.424,1423.18 262.424,1404.28 "/>
<polyline clip-path="url(#clip110)" style="stroke:#000000; stroke-linecap:round; stroke-linejoin:round; stroke-width:4; stroke-opacity:1; fill:none" points="707.592,1423.18 707.592,1404.28 "/>
<polyline clip-path="url(#clip110)" style="stroke:#000000; stroke-linecap:round; stroke-linejoin:round; stroke-width:4; stroke-opacity:1; fill:none" points="1152.76,1423.18 1152.76,1404.28 "/>
<polyline clip-path="url(#clip110)" style="stroke:#000000; stroke-linecap:round; stroke-linejoin:round; stroke-width:4; stroke-opacity:1; fill:none" points="1597.93,1423.18 1597.93,1404.28 "/>
<polyline clip-path="url(#clip110)" style="stroke:#000000; stroke-linecap:round; stroke-linejoin:round; stroke-width:4; stroke-opacity:1; fill:none" points="2043.1,1423.18 2043.1,1404.28 "/>
<path clip-path="url(#clip110)" d="M262.424 1454.1 Q258.813 1454.1 256.985 1457.66 Q255.179 1461.2 255.179 1468.33 Q255.179 1475.44 256.985 1479.01 Q258.813 1482.55 262.424 1482.55 Q266.059 1482.55 267.864 1479.01 Q269.693 1475.44 269.693 1468.33 Q269.693 1461.2 267.864 1457.66 Q266.059 1454.1 262.424 1454.1 M262.424 1450.39 Q268.234 1450.39 271.29 1455 Q274.369 1459.58 274.369 1468.33 Q274.369 1477.06 271.29 1481.67 Q268.234 1486.25 262.424 1486.25 Q256.614 1486.25 253.535 1481.67 Q250.48 1477.06 250.48 1468.33 Q250.48 1459.58 253.535 1455 Q256.614 1450.39 262.424 1450.39 Z" fill="#000000" fill-rule="nonzero" fill-opacity="1" /><path clip-path="url(#clip110)" d="M686.863 1481.64 L703.183 1481.64 L703.183 1485.58 L681.238 1485.58 L681.238 1481.64 Q683.9 1478.89 688.484 1474.26 Q693.09 1469.61 694.271 1468.27 Q696.516 1465.74 697.396 1464.01 Q698.299 1462.25 698.299 1460.56 Q698.299 1457.8 696.354 1456.07 Q694.433 1454.33 691.331 1454.33 Q689.132 1454.33 686.678 1455.09 Q684.248 1455.86 681.47 1457.41 L681.47 1452.69 Q684.294 1451.55 686.748 1450.97 Q689.201 1450.39 691.238 1450.39 Q696.609 1450.39 699.803 1453.08 Q702.998 1455.77 702.998 1460.26 Q702.998 1462.39 702.187 1464.31 Q701.4 1466.2 699.294 1468.8 Q698.715 1469.47 695.613 1472.69 Q692.512 1475.88 686.863 1481.64 Z" fill="#000000" fill-rule="nonzero" fill-opacity="1" /><path clip-path="url(#clip110)" d="M713.044 1451.02 L731.4 1451.02 L731.4 1454.96 L717.326 1454.96 L717.326 1463.43 Q718.345 1463.08 719.363 1462.92 Q720.382 1462.73 721.4 1462.73 Q727.187 1462.73 730.567 1465.9 Q733.947 1469.08 733.947 1474.49 Q733.947 1480.07 730.474 1483.17 Q727.002 1486.25 720.683 1486.25 Q718.507 1486.25 716.238 1485.88 Q713.993 1485.51 711.586 1484.77 L711.586 1480.07 Q713.669 1481.2 715.891 1481.76 Q718.113 1482.32 720.59 1482.32 Q724.595 1482.32 726.933 1480.21 Q729.271 1478.1 729.271 1474.49 Q729.271 1470.88 726.933 1468.77 Q724.595 1466.67 720.59 1466.67 Q718.715 1466.67 716.84 1467.08 Q714.988 1467.5 713.044 1468.38 L713.044 1451.02 Z" fill="#000000" fill-rule="nonzero" fill-opacity="1" /><path clip-path="url(#clip110)" d="M1127.46 1451.02 L1145.82 1451.02 L1145.82 1454.96 L1131.74 1454.96 L1131.74 1463.43 Q1132.76 1463.08 1133.78 1462.92 Q1134.8 1462.73 1135.82 1462.73 Q1141.6 1462.73 1144.98 1465.9 Q1148.36 1469.08 1148.36 1474.49 Q1148.36 1480.07 1144.89 1483.17 Q1141.42 1486.25 1135.1 1486.25 Q1132.92 1486.25 1130.65 1485.88 Q1128.41 1485.51 1126 1484.77 L1126 1480.07 Q1128.08 1481.2 1130.31 1481.76 Q1132.53 1482.32 1135.01 1482.32 Q1139.01 1482.32 1141.35 1480.21 Q1143.69 1478.1 1143.69 1474.49 Q1143.69 1470.88 1141.35 1468.77 Q1139.01 1466.67 1135.01 1466.67 Q1133.13 1466.67 1131.26 1467.08 Q1129.4 1467.5 1127.46 1468.38 L1127.46 1451.02 Z" fill="#000000" fill-rule="nonzero" fill-opacity="1" /><path clip-path="url(#clip110)" d="M1167.58 1454.1 Q1163.96 1454.1 1162.14 1457.66 Q1160.33 1461.2 1160.33 1468.33 Q1160.33 1475.44 1162.14 1479.01 Q1163.96 1482.55 1167.58 1482.55 Q1171.21 1482.55 1173.02 1479.01 Q1174.84 1475.44 1174.84 1468.33 Q1174.84 1461.2 1173.02 1457.66 Q1171.21 1454.1 1167.58 1454.1 M1167.58 1450.39 Q1173.39 1450.39 1176.44 1455 Q1179.52 1459.58 1179.52 1468.33 Q1179.52 1477.06 1176.44 1481.67 Q1173.39 1486.25 1167.58 1486.25 Q1161.77 1486.25 1158.69 1481.67 Q1155.63 1477.06 1155.63 1468.33 Q1155.63 1459.58 1158.69 1455 Q1161.77 1450.39 1167.58 1450.39 Z" fill="#000000" fill-rule="nonzero" fill-opacity="1" /><path clip-path="url(#clip110)" d="M1571.78 1451.02 L1594.01 1451.02 L1594.01 1453.01 L1581.46 1485.58 L1576.57 1485.58 L1588.38 1454.96 L1571.78 1454.96 L1571.78 1451.02 Z" fill="#000000" fill-rule="nonzero" fill-opacity="1" /><path clip-path="url(#clip110)" d="M1603.17 1451.02 L1621.53 1451.02 L1621.53 1454.96 L1607.45 1454.96 L1607.45 1463.43 Q1608.47 1463.08 1609.49 1462.92 Q1610.51 1462.73 1611.53 1462.73 Q1617.32 1462.73 1620.69 1465.9 Q1624.07 1469.08 1624.07 1474.49 Q1624.07 1480.07 1620.6 1483.17 Q1617.13 1486.25 1610.81 1486.25 Q1608.63 1486.25 1606.37 1485.88 Q1604.12 1485.51 1601.71 1484.77 L1601.71 1480.07 Q1603.8 1481.2 1606.02 1481.76 Q1608.24 1482.32 1610.72 1482.32 Q1614.72 1482.32 1617.06 1480.21 Q1619.4 1478.1 1619.4 1474.49 Q1619.4 1470.88 1617.06 1468.77 Q1614.72 1466.67 1610.72 1466.67 Q1608.84 1466.67 1606.97 1467.08 Q1605.12 1467.5 1603.17 1468.38 L1603.17 1451.02 Z" fill="#000000" fill-rule="nonzero" fill-opacity="1" /><path clip-path="url(#clip110)" d="M2002.7 1481.64 L2010.34 1481.64 L2010.34 1455.28 L2002.03 1456.95 L2002.03 1452.69 L2010.3 1451.02 L2014.97 1451.02 L2014.97 1481.64 L2022.61 1481.64 L2022.61 1485.58 L2002.7 1485.58 L2002.7 1481.64 Z" fill="#000000" fill-rule="nonzero" fill-opacity="1" /><path clip-path="url(#clip110)" d="M2042.06 1454.1 Q2038.44 1454.1 2036.62 1457.66 Q2034.81 1461.2 2034.81 1468.33 Q2034.81 1475.44 2036.62 1479.01 Q2038.44 1482.55 2042.06 1482.55 Q2045.69 1482.55 2047.5 1479.01 Q2049.32 1475.44 2049.32 1468.33 Q2049.32 1461.2 2047.5 1457.66 Q2045.69 1454.1 2042.06 1454.1 M2042.06 1450.39 Q2047.87 1450.39 2050.92 1455 Q2054 1459.58 2054 1468.33 Q2054 1477.06 2050.92 1481.67 Q2047.87 1486.25 2042.06 1486.25 Q2036.25 1486.25 2033.17 1481.67 Q2030.11 1477.06 2030.11 1468.33 Q2030.11 1459.58 2033.17 1455 Q2036.25 1450.39 2042.06 1450.39 Z" fill="#000000" fill-rule="nonzero" fill-opacity="1" /><path clip-path="url(#clip110)" d="M2072.22 1454.1 Q2068.61 1454.1 2066.78 1457.66 Q2064.97 1461.2 2064.97 1468.33 Q2064.97 1475.44 2066.78 1479.01 Q2068.61 1482.55 2072.22 1482.55 Q2075.85 1482.55 2077.66 1479.01 Q2079.49 1475.44 2079.49 1468.33 Q2079.49 1461.2 2077.66 1457.66 Q2075.85 1454.1 2072.22 1454.1 M2072.22 1450.39 Q2078.03 1450.39 2081.08 1455 Q2084.16 1459.58 2084.16 1468.33 Q2084.16 1477.06 2081.08 1481.67 Q2078.03 1486.25 2072.22 1486.25 Q2066.41 1486.25 2063.33 1481.67 Q2060.27 1477.06 2060.27 1468.33 Q2060.27 1459.58 2063.33 1455 Q2066.41 1450.39 2072.22 1450.39 Z" fill="#000000" fill-rule="nonzero" fill-opacity="1" /><path clip-path="url(#clip110)" d="M1208.19 1520.52 L1248.39 1520.52 L1248.39 1525.93 L1231.52 1525.93 L1231.52 1568.04 L1225.06 1568.04 L1225.06 1525.93 L1208.19 1525.93 L1208.19 1520.52 Z" fill="#000000" fill-rule="nonzero" fill-opacity="1" /><path clip-path="url(#clip110)" d="M1252.33 1532.4 L1258.19 1532.4 L1258.19 1568.04 L1252.33 1568.04 L1252.33 1532.4 M1252.33 1518.52 L1258.19 1518.52 L1258.19 1525.93 L1252.33 1525.93 L1252.33 1518.52 Z" fill="#000000" fill-rule="nonzero" fill-opacity="1" /><path clip-path="url(#clip110)" d="M1298.2 1539.24 Q1300.4 1535.29 1303.45 1533.41 Q1306.51 1531.54 1310.64 1531.54 Q1316.21 1531.54 1319.24 1535.45 Q1322.26 1539.33 1322.26 1546.53 L1322.26 1568.04 L1316.37 1568.04 L1316.37 1546.72 Q1316.37 1541.59 1314.56 1539.11 Q1312.74 1536.63 1309.02 1536.63 Q1304.47 1536.63 1301.83 1539.65 Q1299.19 1542.68 1299.19 1547.9 L1299.19 1568.04 L1293.3 1568.04 L1293.3 1546.72 Q1293.3 1541.56 1291.48 1539.11 Q1289.67 1536.63 1285.88 1536.63 Q1281.39 1536.63 1278.75 1539.68 Q1276.11 1542.71 1276.11 1547.9 L1276.11 1568.04 L1270.22 1568.04 L1270.22 1532.4 L1276.11 1532.4 L1276.11 1537.93 Q1278.12 1534.66 1280.92 1533.1 Q1283.72 1531.54 1287.57 1531.54 Q1291.45 1531.54 1294.16 1533.51 Q1296.89 1535.48 1298.2 1539.24 Z" fill="#000000" fill-rule="nonzero" fill-opacity="1" /><path clip-path="url(#clip110)" d="M1364.43 1548.76 L1364.43 1551.62 L1337.51 1551.62 Q1337.89 1557.67 1341.14 1560.85 Q1344.41 1564 1350.24 1564 Q1353.61 1564 1356.76 1563.17 Q1359.95 1562.35 1363.07 1560.69 L1363.07 1566.23 Q1359.91 1567.57 1356.6 1568.27 Q1353.29 1568.97 1349.89 1568.97 Q1341.36 1568.97 1336.36 1564 Q1331.4 1559.04 1331.4 1550.57 Q1331.4 1541.82 1336.11 1536.69 Q1340.85 1531.54 1348.87 1531.54 Q1356.06 1531.54 1360.23 1536.18 Q1364.43 1540.8 1364.43 1548.76 M1358.58 1547.04 Q1358.51 1542.23 1355.87 1539.37 Q1353.26 1536.5 1348.93 1536.5 Q1344.03 1536.5 1341.07 1539.27 Q1338.14 1542.04 1337.7 1547.07 L1358.58 1547.04 Z" fill="#000000" fill-rule="nonzero" fill-opacity="1" /><polyline clip-path="url(#clip110)" style="stroke:#000000; stroke-linecap:round; stroke-linejoin:round; stroke-width:4; stroke-opacity:1; fill:none" points="219.866,1423.18 219.866,123.472 "/>
<polyline clip-path="url(#clip110)" style="stroke:#000000; stroke-linecap:round; stroke-linejoin:round; stroke-width:4; stroke-opacity:1; fill:none" points="219.866,1386.4 238.764,1386.4 "/>
<polyline clip-path="url(#clip110)" style="stroke:#000000; stroke-linecap:round; stroke-linejoin:round; stroke-width:4; stroke-opacity:1; fill:none" points="219.866,1130.95 238.764,1130.95 "/>
<polyline clip-path="url(#clip110)" style="stroke:#000000; stroke-linecap:round; stroke-linejoin:round; stroke-width:4; stroke-opacity:1; fill:none" points="219.866,875.504 238.764,875.504 "/>
<polyline clip-path="url(#clip110)" style="stroke:#000000; stroke-linecap:round; stroke-linejoin:round; stroke-width:4; stroke-opacity:1; fill:none" points="219.866,620.059 238.764,620.059 "/>
<polyline clip-path="url(#clip110)" style="stroke:#000000; stroke-linecap:round; stroke-linejoin:round; stroke-width:4; stroke-opacity:1; fill:none" points="219.866,364.613 238.764,364.613 "/>
<path clip-path="url(#clip110)" d="M126.691 1372.19 Q123.08 1372.19 121.251 1375.76 Q119.445 1379.3 119.445 1386.43 Q119.445 1393.54 121.251 1397.1 Q123.08 1400.64 126.691 1400.64 Q130.325 1400.64 132.13 1397.1 Q133.959 1393.54 133.959 1386.43 Q133.959 1379.3 132.13 1375.76 Q130.325 1372.19 126.691 1372.19 M126.691 1368.49 Q132.501 1368.49 135.556 1373.1 Q138.635 1377.68 138.635 1386.43 Q138.635 1395.16 135.556 1399.76 Q132.501 1404.35 126.691 1404.35 Q120.88 1404.35 117.802 1399.76 Q114.746 1395.16 114.746 1386.43 Q114.746 1377.68 117.802 1373.1 Q120.88 1368.49 126.691 1368.49 Z" fill="#000000" fill-rule="nonzero" fill-opacity="1" /><path clip-path="url(#clip110)" d="M146.853 1397.8 L151.737 1397.8 L151.737 1403.68 L146.853 1403.68 L146.853 1397.8 Z" fill="#000000" fill-rule="nonzero" fill-opacity="1" /><path clip-path="url(#clip110)" d="M171.922 1372.19 Q168.311 1372.19 166.482 1375.76 Q164.677 1379.3 164.677 1386.43 Q164.677 1393.54 166.482 1397.1 Q168.311 1400.64 171.922 1400.64 Q175.556 1400.64 177.362 1397.1 Q179.19 1393.54 179.19 1386.43 Q179.19 1379.3 177.362 1375.76 Q175.556 1372.19 171.922 1372.19 M171.922 1368.49 Q177.732 1368.49 180.788 1373.1 Q183.866 1377.68 183.866 1386.43 Q183.866 1395.16 180.788 1399.76 Q177.732 1404.35 171.922 1404.35 Q166.112 1404.35 163.033 1399.76 Q159.978 1395.16 159.978 1386.43 Q159.978 1377.68 163.033 1373.1 Q166.112 1368.49 171.922 1368.49 Z" fill="#000000" fill-rule="nonzero" fill-opacity="1" /><path clip-path="url(#clip110)" d="M128.288 1116.75 Q124.677 1116.75 122.848 1120.31 Q121.043 1123.86 121.043 1130.98 Q121.043 1138.09 122.848 1141.66 Q124.677 1145.2 128.288 1145.2 Q131.922 1145.2 133.728 1141.66 Q135.556 1138.09 135.556 1130.98 Q135.556 1123.86 133.728 1120.31 Q131.922 1116.75 128.288 1116.75 M128.288 1113.04 Q134.098 1113.04 137.154 1117.65 Q140.232 1122.23 140.232 1130.98 Q140.232 1139.71 137.154 1144.32 Q134.098 1148.9 128.288 1148.9 Q122.478 1148.9 119.399 1144.32 Q116.343 1139.71 116.343 1130.98 Q116.343 1122.23 119.399 1117.65 Q122.478 1113.04 128.288 1113.04 Z" fill="#000000" fill-rule="nonzero" fill-opacity="1" /><path clip-path="url(#clip110)" d="M148.45 1142.35 L153.334 1142.35 L153.334 1148.23 L148.45 1148.23 L148.45 1142.35 Z" fill="#000000" fill-rule="nonzero" fill-opacity="1" /><path clip-path="url(#clip110)" d="M167.547 1144.29 L183.866 1144.29 L183.866 1148.23 L161.922 1148.23 L161.922 1144.29 Q164.584 1141.54 169.167 1136.91 Q173.774 1132.26 174.954 1130.92 Q177.2 1128.39 178.079 1126.66 Q178.982 1124.9 178.982 1123.21 Q178.982 1120.45 177.038 1118.72 Q175.116 1116.98 172.014 1116.98 Q169.815 1116.98 167.362 1117.74 Q164.931 1118.51 162.153 1120.06 L162.153 1115.34 Q164.977 1114.2 167.431 1113.62 Q169.885 1113.04 171.922 1113.04 Q177.292 1113.04 180.487 1115.73 Q183.681 1118.42 183.681 1122.91 Q183.681 1125.04 182.871 1126.96 Q182.084 1128.86 179.977 1131.45 Q179.399 1132.12 176.297 1135.34 Q173.195 1138.53 167.547 1144.29 Z" fill="#000000" fill-rule="nonzero" fill-opacity="1" /><path clip-path="url(#clip110)" d="M126.205 861.303 Q122.593 861.303 120.765 864.868 Q118.959 868.409 118.959 875.539 Q118.959 882.645 120.765 886.21 Q122.593 889.752 126.205 889.752 Q129.839 889.752 131.644 886.21 Q133.473 882.645 133.473 875.539 Q133.473 868.409 131.644 864.868 Q129.839 861.303 126.205 861.303 M126.205 857.599 Q132.015 857.599 135.07 862.206 Q138.149 866.789 138.149 875.539 Q138.149 884.266 135.07 888.872 Q132.015 893.456 126.205 893.456 Q120.394 893.456 117.316 888.872 Q114.26 884.266 114.26 875.539 Q114.26 866.789 117.316 862.206 Q120.394 857.599 126.205 857.599 Z" fill="#000000" fill-rule="nonzero" fill-opacity="1" /><path clip-path="url(#clip110)" d="M146.366 886.905 L151.251 886.905 L151.251 892.784 L146.366 892.784 L146.366 886.905 Z" fill="#000000" fill-rule="nonzero" fill-opacity="1" /><path clip-path="url(#clip110)" d="M174.283 862.298 L162.477 880.747 L174.283 880.747 L174.283 862.298 M173.056 858.224 L178.936 858.224 L178.936 880.747 L183.866 880.747 L183.866 884.636 L178.936 884.636 L178.936 892.784 L174.283 892.784 L174.283 884.636 L158.681 884.636 L158.681 880.122 L173.056 858.224 Z" fill="#000000" fill-rule="nonzero" fill-opacity="1" /><path clip-path="url(#clip110)" d="M126.529 605.857 Q122.918 605.857 121.089 609.422 Q119.283 612.964 119.283 620.093 Q119.283 627.2 121.089 630.765 Q122.918 634.306 126.529 634.306 Q130.163 634.306 131.968 630.765 Q133.797 627.2 133.797 620.093 Q133.797 612.964 131.968 609.422 Q130.163 605.857 126.529 605.857 M126.529 602.154 Q132.339 602.154 135.394 606.76 Q138.473 611.343 138.473 620.093 Q138.473 628.82 135.394 633.427 Q132.339 638.01 126.529 638.01 Q120.718 638.01 117.64 633.427 Q114.584 628.82 114.584 620.093 Q114.584 611.343 117.64 606.76 Q120.718 602.154 126.529 602.154 Z" fill="#000000" fill-rule="nonzero" fill-opacity="1" /><path clip-path="url(#clip110)" d="M146.691 631.459 L151.575 631.459 L151.575 637.339 L146.691 637.339 L146.691 631.459 Z" fill="#000000" fill-rule="nonzero" fill-opacity="1" /><path clip-path="url(#clip110)" d="M172.339 618.195 Q169.19 618.195 167.339 620.348 Q165.51 622.501 165.51 626.251 Q165.51 629.977 167.339 632.153 Q169.19 634.306 172.339 634.306 Q175.487 634.306 177.315 632.153 Q179.167 629.977 179.167 626.251 Q179.167 622.501 177.315 620.348 Q175.487 618.195 172.339 618.195 M181.621 603.542 L181.621 607.802 Q179.862 606.968 178.056 606.529 Q176.274 606.089 174.514 606.089 Q169.885 606.089 167.431 609.214 Q165.001 612.339 164.653 618.658 Q166.019 616.644 168.079 615.579 Q170.139 614.491 172.616 614.491 Q177.825 614.491 180.834 617.663 Q183.866 620.811 183.866 626.251 Q183.866 631.575 180.718 634.792 Q177.57 638.01 172.339 638.01 Q166.343 638.01 163.172 633.427 Q160.001 628.82 160.001 620.093 Q160.001 611.899 163.89 607.038 Q167.778 602.154 174.329 602.154 Q176.089 602.154 177.871 602.501 Q179.676 602.848 181.621 603.542 Z" fill="#000000" fill-rule="nonzero" fill-opacity="1" /><path clip-path="url(#clip110)" d="M126.783 350.412 Q123.172 350.412 121.343 353.976 Q119.538 357.518 119.538 364.648 Q119.538 371.754 121.343 375.319 Q123.172 378.86 126.783 378.86 Q130.417 378.86 132.223 375.319 Q134.052 371.754 134.052 364.648 Q134.052 357.518 132.223 353.976 Q130.417 350.412 126.783 350.412 M126.783 346.708 Q132.593 346.708 135.649 351.314 Q138.728 355.898 138.728 364.648 Q138.728 373.374 135.649 377.981 Q132.593 382.564 126.783 382.564 Q120.973 382.564 117.894 377.981 Q114.839 373.374 114.839 364.648 Q114.839 355.898 117.894 351.314 Q120.973 346.708 126.783 346.708 Z" fill="#000000" fill-rule="nonzero" fill-opacity="1" /><path clip-path="url(#clip110)" d="M146.945 376.013 L151.829 376.013 L151.829 381.893 L146.945 381.893 L146.945 376.013 Z" fill="#000000" fill-rule="nonzero" fill-opacity="1" /><path clip-path="url(#clip110)" d="M172.014 365.481 Q168.681 365.481 166.76 367.263 Q164.862 369.046 164.862 372.171 Q164.862 375.296 166.76 377.078 Q168.681 378.86 172.014 378.86 Q175.348 378.86 177.269 377.078 Q179.19 375.273 179.19 372.171 Q179.19 369.046 177.269 367.263 Q175.371 365.481 172.014 365.481 M167.339 363.49 Q164.329 362.749 162.64 360.689 Q160.973 358.629 160.973 355.666 Q160.973 351.523 163.913 349.115 Q166.876 346.708 172.014 346.708 Q177.176 346.708 180.116 349.115 Q183.056 351.523 183.056 355.666 Q183.056 358.629 181.366 360.689 Q179.7 362.749 176.714 363.49 Q180.093 364.277 181.968 366.569 Q183.866 368.861 183.866 372.171 Q183.866 377.194 180.788 379.879 Q177.732 382.564 172.014 382.564 Q166.297 382.564 163.218 379.879 Q160.163 377.194 160.163 372.171 Q160.163 368.861 162.061 366.569 Q163.959 364.277 167.339 363.49 M165.626 356.106 Q165.626 358.791 167.292 360.296 Q168.982 361.8 172.014 361.8 Q175.024 361.8 176.714 360.296 Q178.426 358.791 178.426 356.106 Q178.426 353.421 176.714 351.916 Q175.024 350.412 172.014 350.412 Q168.982 350.412 167.292 351.916 Q165.626 353.421 165.626 356.106 Z" fill="#000000" fill-rule="nonzero" fill-opacity="1" /><path clip-path="url(#clip110)" d="M20.1444 820.225 L26.9239 820.225 Q23.9002 823.472 22.4043 827.164 Q20.9083 830.824 20.9083 834.962 Q20.9083 843.11 25.9054 847.439 Q30.8707 851.767 40.2919 851.767 Q49.6813 851.767 54.6784 847.439 Q59.6436 843.11 59.6436 834.962 Q59.6436 830.824 58.1477 827.164 Q56.6518 823.472 53.6281 820.225 L60.3439 820.225 Q62.6355 823.599 63.7814 827.387 Q64.9272 831.143 64.9272 835.344 Q64.9272 846.134 58.3387 852.34 Q51.7183 858.547 40.2919 858.547 Q28.8336 858.547 22.2451 852.34 Q15.6248 846.134 15.6248 835.344 Q15.6248 831.079 16.7706 827.323 Q17.8846 823.535 20.1444 820.225 Z" fill="#000000" fill-rule="nonzero" fill-opacity="1" /><path clip-path="url(#clip110)" d="M16.4842 816.883 L16.4842 776.684 L21.895 776.684 L21.895 793.553 L64.0042 793.553 L64.0042 800.014 L21.895 800.014 L21.895 816.883 L16.4842 816.883 Z" fill="#000000" fill-rule="nonzero" fill-opacity="1" /><path clip-path="url(#clip110)" d="M16.4842 770.477 L16.4842 761.82 L56.238 740.749 L16.4842 740.749 L16.4842 734.511 L64.0042 734.511 L64.0042 743.168 L24.2503 764.239 L64.0042 764.239 L64.0042 770.477 L16.4842 770.477 Z" fill="#000000" fill-rule="nonzero" fill-opacity="1" /><path clip-path="url(#clip110)" d="M16.4842 728.305 L16.4842 688.105 L21.895 688.105 L21.895 704.974 L64.0042 704.974 L64.0042 711.435 L21.895 711.435 L21.895 728.305 L16.4842 728.305 Z" fill="#000000" fill-rule="nonzero" fill-opacity="1" /><path clip-path="url(#clip110)" d="M1038.31 18.8205 L1038.31 41.5461 L1048.6 41.5461 Q1054.32 41.5461 1057.43 38.5889 Q1060.55 35.6318 1060.55 30.163 Q1060.55 24.7348 1057.43 21.7777 Q1054.32 18.8205 1048.6 18.8205 L1038.31 18.8205 M1030.13 12.096 L1048.6 12.096 Q1058.77 12.096 1063.96 16.714 Q1069.18 21.2916 1069.18 30.163 Q1069.18 39.1155 1063.96 43.6931 Q1058.77 48.2706 1048.6 48.2706 L1038.31 48.2706 L1038.31 72.576 L1030.13 72.576 L1030.13 12.096 Z" fill="#000000" fill-rule="nonzero" fill-opacity="1" /><path clip-path="url(#clip110)" d="M1096.73 49.7694 Q1087.7 49.7694 1084.21 51.8354 Q1080.73 53.9013 1080.73 58.8839 Q1080.73 62.8538 1083.32 65.2034 Q1085.95 67.5124 1090.45 67.5124 Q1096.65 67.5124 1100.37 63.1374 Q1104.14 58.7219 1104.14 51.4303 L1104.14 49.7694 L1096.73 49.7694 M1111.6 46.6907 L1111.6 72.576 L1104.14 72.576 L1104.14 65.6895 Q1101.59 69.8214 1097.78 71.8063 Q1093.97 73.7508 1088.46 73.7508 Q1081.5 73.7508 1077.37 69.8619 Q1073.27 65.9325 1073.27 59.3701 Q1073.27 51.7138 1078.38 47.825 Q1083.52 43.9361 1093.69 43.9361 L1104.14 43.9361 L1104.14 43.2069 Q1104.14 38.0623 1100.74 35.2672 Q1097.38 32.4315 1091.26 32.4315 Q1087.37 32.4315 1083.68 33.3632 Q1080 34.295 1076.6 36.1584 L1076.6 29.2718 Q1080.69 27.692 1084.54 26.9223 Q1088.38 26.1121 1092.03 26.1121 Q1101.87 26.1121 1106.73 31.2163 Q1111.6 36.3204 1111.6 46.6907 Z" fill="#000000" fill-rule="nonzero" fill-opacity="1" /><path clip-path="url(#clip110)" d="M1134.32 14.324 L1134.32 27.2059 L1149.67 27.2059 L1149.67 32.9987 L1134.32 32.9987 L1134.32 57.6282 Q1134.32 63.1779 1135.82 64.7578 Q1137.36 66.3376 1142.02 66.3376 L1149.67 66.3376 L1149.67 72.576 L1142.02 72.576 Q1133.39 72.576 1130.11 69.3758 Q1126.83 66.1351 1126.83 57.6282 L1126.83 32.9987 L1121.36 32.9987 L1121.36 27.2059 L1126.83 27.2059 L1126.83 14.324 L1134.32 14.324 Z" fill="#000000" fill-rule="nonzero" fill-opacity="1" /><path clip-path="url(#clip110)" d="M1159.48 27.2059 L1166.93 27.2059 L1166.93 72.576 L1159.48 72.576 L1159.48 27.2059 M1159.48 9.54393 L1166.93 9.54393 L1166.93 18.9825 L1159.48 18.9825 L1159.48 9.54393 Z" fill="#000000" fill-rule="nonzero" fill-opacity="1" /><path clip-path="url(#clip110)" d="M1221.33 48.0275 L1221.33 51.6733 L1187.06 51.6733 Q1187.55 59.3701 1191.68 63.421 Q1195.85 67.4314 1203.27 67.4314 Q1207.56 67.4314 1211.57 66.3781 Q1215.62 65.3249 1219.59 63.2184 L1219.59 70.267 Q1215.58 71.9684 1211.37 72.8596 Q1207.16 73.7508 1202.82 73.7508 Q1191.97 73.7508 1185.61 67.4314 Q1179.29 61.1119 1179.29 50.3365 Q1179.29 39.1965 1185.28 32.6746 Q1191.32 26.1121 1201.53 26.1121 Q1210.68 26.1121 1215.99 32.0264 Q1221.33 37.9003 1221.33 48.0275 M1213.88 45.84 Q1213.8 39.7232 1210.44 36.0774 Q1207.12 32.4315 1201.61 32.4315 Q1195.37 32.4315 1191.6 35.9558 Q1187.87 39.4801 1187.31 45.8805 L1213.88 45.84 Z" fill="#000000" fill-rule="nonzero" fill-opacity="1" /><path clip-path="url(#clip110)" d="M1271.28 45.1919 L1271.28 72.576 L1263.83 72.576 L1263.83 45.4349 Q1263.83 38.994 1261.32 35.7938 Q1258.81 32.5936 1253.78 32.5936 Q1247.75 32.5936 1244.26 36.4419 Q1240.78 40.2903 1240.78 46.9338 L1240.78 72.576 L1233.28 72.576 L1233.28 27.2059 L1240.78 27.2059 L1240.78 34.2544 Q1243.45 30.163 1247.06 28.1376 Q1250.7 26.1121 1255.44 26.1121 Q1263.26 26.1121 1267.27 30.9732 Q1271.28 35.7938 1271.28 45.1919 Z" fill="#000000" fill-rule="nonzero" fill-opacity="1" /><path clip-path="url(#clip110)" d="M1293.52 14.324 L1293.52 27.2059 L1308.87 27.2059 L1308.87 32.9987 L1293.52 32.9987 L1293.52 57.6282 Q1293.52 63.1779 1295.02 64.7578 Q1296.56 66.3376 1301.22 66.3376 L1308.87 66.3376 L1308.87 72.576 L1301.22 72.576 Q1292.59 72.576 1289.31 69.3758 Q1286.03 66.1351 1286.03 57.6282 L1286.03 32.9987 L1280.56 32.9987 L1280.56 27.2059 L1286.03 27.2059 L1286.03 14.324 L1293.52 14.324 Z" fill="#000000" fill-rule="nonzero" fill-opacity="1" /><path clip-path="url(#clip110)" d="M1382.76 45.1919 L1382.76 72.576 L1375.31 72.576 L1375.31 45.4349 Q1375.31 38.994 1372.8 35.7938 Q1370.29 32.5936 1365.26 32.5936 Q1359.23 32.5936 1355.74 36.4419 Q1352.26 40.2903 1352.26 46.9338 L1352.26 72.576 L1344.77 72.576 L1344.77 27.2059 L1352.26 27.2059 L1352.26 34.2544 Q1354.93 30.163 1358.54 28.1376 Q1362.18 26.1121 1366.92 26.1121 Q1374.74 26.1121 1378.75 30.9732 Q1382.76 35.7938 1382.76 45.1919 Z" fill="#000000" fill-rule="nonzero" fill-opacity="1" /><path clip-path="url(#clip110)" d="M1398.76 12.096 L1430.89 12.096 L1430.89 18.9825 L1406.26 18.9825 L1406.26 33.8088 Q1408.04 33.2012 1409.82 32.9176 Q1411.61 32.5936 1413.39 32.5936 Q1423.52 32.5936 1429.43 38.1433 Q1435.34 43.6931 1435.34 53.1722 Q1435.34 62.9348 1429.27 68.3631 Q1423.19 73.7508 1412.13 73.7508 Q1408.32 73.7508 1404.35 73.1026 Q1400.43 72.4545 1396.21 71.1582 L1396.21 62.9348 Q1399.86 64.9198 1403.75 65.892 Q1407.64 66.8642 1411.97 66.8642 Q1418.98 66.8642 1423.07 63.1779 Q1427.16 59.4916 1427.16 53.1722 Q1427.16 46.8528 1423.07 43.1664 Q1418.98 39.4801 1411.97 39.4801 Q1408.69 39.4801 1405.41 40.2093 Q1402.17 40.9384 1398.76 42.4778 L1398.76 12.096 Z" fill="#000000" fill-rule="nonzero" fill-opacity="1" /><path clip-path="url(#clip110)" d="M1451.55 12.096 L1483.67 12.096 L1483.67 18.9825 L1459.04 18.9825 L1459.04 33.8088 Q1460.82 33.2012 1462.61 32.9176 Q1464.39 32.5936 1466.17 32.5936 Q1476.3 32.5936 1482.21 38.1433 Q1488.13 43.6931 1488.13 53.1722 Q1488.13 62.9348 1482.05 68.3631 Q1475.97 73.7508 1464.92 73.7508 Q1461.11 73.7508 1457.14 73.1026 Q1453.21 72.4545 1449 71.1582 L1449 62.9348 Q1452.64 64.9198 1456.53 65.892 Q1460.42 66.8642 1464.75 66.8642 Q1471.76 66.8642 1475.85 63.1779 Q1479.94 59.4916 1479.94 53.1722 Q1479.94 46.8528 1475.85 43.1664 Q1471.76 39.4801 1464.75 39.4801 Q1461.47 39.4801 1458.19 40.2093 Q1454.95 40.9384 1451.55 42.4778 L1451.55 12.096 Z" fill="#000000" fill-rule="nonzero" fill-opacity="1" /><path clip-path="url(#clip110)" d="M1521.75 43.8551 Q1515.92 43.8551 1512.55 46.9743 Q1509.23 50.0935 1509.23 55.5622 Q1509.23 61.0309 1512.55 64.1501 Q1515.92 67.2693 1521.75 67.2693 Q1527.58 67.2693 1530.95 64.1501 Q1534.31 60.9904 1534.31 55.5622 Q1534.31 50.0935 1530.95 46.9743 Q1527.62 43.8551 1521.75 43.8551 M1513.57 40.3713 Q1508.3 39.075 1505.34 35.4697 Q1502.43 31.8644 1502.43 26.6793 Q1502.43 19.4281 1507.57 15.2152 Q1512.76 11.0023 1521.75 11.0023 Q1530.78 11.0023 1535.93 15.2152 Q1541.07 19.4281 1541.07 26.6793 Q1541.07 31.8644 1538.12 35.4697 Q1535.2 39.075 1529.97 40.3713 Q1535.89 41.7486 1539.17 45.759 Q1542.49 49.7694 1542.49 55.5622 Q1542.49 64.3527 1537.1 69.0517 Q1531.76 73.7508 1521.75 73.7508 Q1511.74 73.7508 1506.36 69.0517 Q1501.01 64.3527 1501.01 55.5622 Q1501.01 49.7694 1504.33 45.759 Q1507.65 41.7486 1513.57 40.3713 M1510.57 27.4489 Q1510.57 32.148 1513.49 34.7811 Q1516.44 37.4142 1521.75 37.4142 Q1527.02 37.4142 1529.97 34.7811 Q1532.97 32.148 1532.97 27.4489 Q1532.97 22.7499 1529.97 20.1168 Q1527.02 17.4837 1521.75 17.4837 Q1516.44 17.4837 1513.49 20.1168 Q1510.57 22.7499 1510.57 27.4489 Z" fill="#000000" fill-rule="nonzero" fill-opacity="1" /><polyline clip-path="url(#clip112)" style="stroke:#009af9; stroke-linecap:round; stroke-linejoin:round; stroke-width:8; stroke-opacity:1; fill:none" points="280.231,1386.4 298.038,761.363 315.845,483.237 333.651,361.902 351.458,310.999 369.265,291.364 387.071,285.285 404.878,284.826 422.685,286.508 440.492,288.803 458.298,291.176 476.105,293.414 493.912,295.53 511.719,297.554 529.525,299.537 547.332,301.528 565.139,303.61 582.945,305.761 600.752,307.968 618.559,310.291 636.366,312.742 654.172,315.263 671.979,317.839 689.786,320.482 707.592,323.154 725.399,325.855 743.206,328.607 761.013,331.387 778.819,334.128 796.626,336.679 814.433,339.124 832.24,341.718 850.046,344.484 867.853,347.212 885.66,349.462 903.466,351.219 921.273,353.255 939.08,355.794 956.887,358.365 974.693,359.96 992.5,361.1 1010.31,362.804 1028.11,365.076 1045.92,366.908 1063.73,367.67 1081.53,368.674 1099.34,370.322 1117.15,372.036 1134.95,372.761 1152.76,373.394 1170.57,374.547 1188.37,375.992 1206.18,376.812 1223.99,377.285 1241.79,378.142 1259.6,379.395 1277.41,380.415 1295.21,380.903 1313.02,381.624 1330.83,382.801 1348.63,384.09 1366.44,384.952 1384.25,385.854 1402.05,386.854 1419.86,387.951 1437.67,389.146 1455.47,390.438 1473.28,391.828 1491.09,393.315 1508.9,394.9 1526.7,396.574 1544.51,398.353 1562.32,400.244 1580.12,402.247 1597.93,404.361 1615.74,406.588 1633.54,408.926 1651.35,411.359 1669.16,413.9 1686.96,416.556 1704.77,419.325 1722.58,422.209 1740.38,425.207 1758.19,428.319 1776,431.545 1793.8,434.886 1811.61,438.34 1829.42,441.909 1847.22,445.592 1865.03,449.39 1882.84,453.301 1900.64,457.334 1918.45,461.458 1936.26,465.671 1954.06,469.972 1971.87,474.363 1989.68,478.841 2007.48,483.412 2025.29,488.066 2043.1,492.78 2060.9,497.554 2078.71,502.388 2096.52,507.281 2114.32,512.235 2132.13,517.248 2149.94,522.32 2167.74,527.456 2185.55,532.635 2203.36,537.85 2221.16,543.101 2238.97,548.386 2256.78,553.706 2274.58,559.061 2292.39,560.495 "/>
<circle clip-path="url(#clip112)" cx="404.285" cy="224.118" r="18" fill="#e26f46" fill-rule="evenodd" fill-opacity="1" stroke="#000000" stroke-opacity="1" stroke-width="3.2"/>
<circle clip-path="url(#clip112)" cx="503.112" cy="364.613" r="18" fill="#e26f46" fill-rule="evenodd" fill-opacity="1" stroke="#000000" stroke-opacity="1" stroke-width="3.2"/>
<circle clip-path="url(#clip112)" cx="706.405" cy="351.841" r="18" fill="#e26f46" fill-rule="evenodd" fill-opacity="1" stroke="#000000" stroke-opacity="1" stroke-width="3.2"/>
<circle clip-path="url(#clip112)" cx="800.484" cy="351.841" r="18" fill="#e26f46" fill-rule="evenodd" fill-opacity="1" stroke="#000000" stroke-opacity="1" stroke-width="3.2"/>
<circle clip-path="url(#clip112)" cx="904.06" cy="415.702" r="18" fill="#e26f46" fill-rule="evenodd" fill-opacity="1" stroke="#000000" stroke-opacity="1" stroke-width="3.2"/>
<circle clip-path="url(#clip112)" cx="1073.82" cy="160.256" r="18" fill="#e26f46" fill-rule="evenodd" fill-opacity="1" stroke="#000000" stroke-opacity="1" stroke-width="3.2"/>
<circle clip-path="url(#clip112)" cx="1481" cy="517.88" r="18" fill="#e26f46" fill-rule="evenodd" fill-opacity="1" stroke="#000000" stroke-opacity="1" stroke-width="3.2"/>
<circle clip-path="url(#clip112)" cx="1777.78" cy="377.385" r="18" fill="#e26f46" fill-rule="evenodd" fill-opacity="1" stroke="#000000" stroke-opacity="1" stroke-width="3.2"/>
<circle clip-path="url(#clip112)" cx="2261.53" cy="568.969" r="18" fill="#e26f46" fill-rule="evenodd" fill-opacity="1" stroke="#000000" stroke-opacity="1" stroke-width="3.2"/>
<path clip-path="url(#clip110)" d="M1684.14 1379.86 L2281.66 1379.86 L2281.66 1224.34 L1684.14 1224.34  Z" fill="#ffffff" fill-rule="evenodd" fill-opacity="1"/>
<polyline clip-path="url(#clip110)" style="stroke:#000000; stroke-linecap:round; stroke-linejoin:round; stroke-width:4; stroke-opacity:1; fill:none" points="1684.14,1379.86 2281.66,1379.86 2281.66,1224.34 1684.14,1224.34 1684.14,1379.86 "/>
<polyline clip-path="url(#clip110)" style="stroke:#009af9; stroke-linecap:round; stroke-linejoin:round; stroke-width:8; stroke-opacity:1; fill:none" points="1707.84,1276.18 1850.03,1276.18 "/>
<path clip-path="url(#clip110)" d="M1873.73 1258.9 L1880.69 1258.9 L1889.51 1282.41 L1898.38 1258.9 L1905.35 1258.9 L1905.35 1293.46 L1900.79 1293.46 L1900.79 1263.11 L1891.87 1286.81 L1887.18 1286.81 L1878.26 1263.11 L1878.26 1293.46 L1873.73 1293.46 L1873.73 1258.9 Z" fill="#000000" fill-rule="nonzero" fill-opacity="1" /><path clip-path="url(#clip110)" d="M1924.49 1270.52 Q1921.06 1270.52 1919.07 1273.2 Q1917.08 1275.86 1917.08 1280.52 Q1917.08 1285.17 1919.05 1287.85 Q1921.04 1290.52 1924.49 1290.52 Q1927.89 1290.52 1929.88 1287.83 Q1931.87 1285.15 1931.87 1280.52 Q1931.87 1275.91 1929.88 1273.22 Q1927.89 1270.52 1924.49 1270.52 M1924.49 1266.91 Q1930.05 1266.91 1933.22 1270.52 Q1936.39 1274.13 1936.39 1280.52 Q1936.39 1286.88 1933.22 1290.52 Q1930.05 1294.13 1924.49 1294.13 Q1918.91 1294.13 1915.74 1290.52 Q1912.59 1286.88 1912.59 1280.52 Q1912.59 1274.13 1915.74 1270.52 Q1918.91 1266.91 1924.49 1266.91 Z" fill="#000000" fill-rule="nonzero" fill-opacity="1" /><path clip-path="url(#clip110)" d="M1960.51 1271.47 L1960.51 1257.44 L1964.77 1257.44 L1964.77 1293.46 L1960.51 1293.46 L1960.51 1289.57 Q1959.17 1291.88 1957.11 1293.02 Q1955.07 1294.13 1952.2 1294.13 Q1947.5 1294.13 1944.54 1290.38 Q1941.6 1286.63 1941.6 1280.52 Q1941.6 1274.41 1944.54 1270.66 Q1947.5 1266.91 1952.2 1266.91 Q1955.07 1266.91 1957.11 1268.04 Q1959.17 1269.15 1960.51 1271.47 M1945.99 1280.52 Q1945.99 1285.22 1947.92 1287.9 Q1949.86 1290.56 1953.24 1290.56 Q1956.62 1290.56 1958.56 1287.9 Q1960.51 1285.22 1960.51 1280.52 Q1960.51 1275.82 1958.56 1273.16 Q1956.62 1270.47 1953.24 1270.47 Q1949.86 1270.47 1947.92 1273.16 Q1945.99 1275.82 1945.99 1280.52 Z" fill="#000000" fill-rule="nonzero" fill-opacity="1" /><path clip-path="url(#clip110)" d="M1995.72 1279.43 L1995.72 1281.51 L1976.13 1281.51 Q1976.41 1285.91 1978.77 1288.22 Q1981.16 1290.52 1985.39 1290.52 Q1987.85 1290.52 1990.14 1289.91 Q1992.45 1289.31 1994.72 1288.11 L1994.72 1292.14 Q1992.43 1293.11 1990.02 1293.62 Q1987.62 1294.13 1985.14 1294.13 Q1978.93 1294.13 1975.3 1290.52 Q1971.69 1286.91 1971.69 1280.75 Q1971.69 1274.38 1975.12 1270.66 Q1978.56 1266.91 1984.4 1266.91 Q1989.63 1266.91 1992.66 1270.29 Q1995.72 1273.64 1995.72 1279.43 M1991.46 1278.18 Q1991.41 1274.68 1989.49 1272.6 Q1987.59 1270.52 1984.44 1270.52 Q1980.88 1270.52 1978.73 1272.53 Q1976.6 1274.54 1976.27 1278.2 L1991.46 1278.18 Z" fill="#000000" fill-rule="nonzero" fill-opacity="1" /><path clip-path="url(#clip110)" d="M2002.71 1257.44 L2006.97 1257.44 L2006.97 1293.46 L2002.71 1293.46 L2002.71 1257.44 Z" fill="#000000" fill-rule="nonzero" fill-opacity="1" /><path clip-path="url(#clip110)" d="M2035.81 1262.74 L2035.81 1275.72 L2041.69 1275.72 Q2044.95 1275.72 2046.74 1274.04 Q2048.52 1272.35 2048.52 1269.22 Q2048.52 1266.12 2046.74 1264.43 Q2044.95 1262.74 2041.69 1262.74 L2035.81 1262.74 M2031.13 1258.9 L2041.69 1258.9 Q2047.5 1258.9 2050.46 1261.54 Q2053.45 1264.15 2053.45 1269.22 Q2053.45 1274.34 2050.46 1276.95 Q2047.5 1279.57 2041.69 1279.57 L2035.81 1279.57 L2035.81 1293.46 L2031.13 1293.46 L2031.13 1258.9 Z" fill="#000000" fill-rule="nonzero" fill-opacity="1" /><path clip-path="url(#clip110)" d="M2073.73 1271.51 Q2073.01 1271.1 2072.15 1270.91 Q2071.32 1270.7 2070.3 1270.7 Q2066.69 1270.7 2064.74 1273.06 Q2062.82 1275.4 2062.82 1279.8 L2062.82 1293.46 L2058.54 1293.46 L2058.54 1267.53 L2062.82 1267.53 L2062.82 1271.56 Q2064.17 1269.2 2066.32 1268.06 Q2068.47 1266.91 2071.55 1266.91 Q2071.99 1266.91 2072.52 1266.97 Q2073.05 1267.02 2073.7 1267.14 L2073.73 1271.51 Z" fill="#000000" fill-rule="nonzero" fill-opacity="1" /><path clip-path="url(#clip110)" d="M2099.33 1279.43 L2099.33 1281.51 L2079.74 1281.51 Q2080.02 1285.91 2082.38 1288.22 Q2084.77 1290.52 2089 1290.52 Q2091.46 1290.52 2093.75 1289.91 Q2096.06 1289.31 2098.33 1288.11 L2098.33 1292.14 Q2096.04 1293.11 2093.63 1293.62 Q2091.23 1294.13 2088.75 1294.13 Q2082.55 1294.13 2078.91 1290.52 Q2075.3 1286.91 2075.3 1280.75 Q2075.3 1274.38 2078.73 1270.66 Q2082.17 1266.91 2088.01 1266.91 Q2093.24 1266.91 2096.27 1270.29 Q2099.33 1273.64 2099.33 1279.43 M2095.07 1278.18 Q2095.02 1274.68 2093.1 1272.6 Q2091.2 1270.52 2088.05 1270.52 Q2084.49 1270.52 2082.34 1272.53 Q2080.21 1274.54 2079.88 1278.2 L2095.07 1278.18 Z" fill="#000000" fill-rule="nonzero" fill-opacity="1" /><path clip-path="url(#clip110)" d="M2123.38 1271.47 L2123.38 1257.44 L2127.64 1257.44 L2127.64 1293.46 L2123.38 1293.46 L2123.38 1289.57 Q2122.04 1291.88 2119.98 1293.02 Q2117.94 1294.13 2115.07 1294.13 Q2110.37 1294.13 2107.41 1290.38 Q2104.47 1286.63 2104.47 1280.52 Q2104.47 1274.41 2107.41 1270.66 Q2110.37 1266.91 2115.07 1266.91 Q2117.94 1266.91 2119.98 1268.04 Q2122.04 1269.15 2123.38 1271.47 M2108.86 1280.52 Q2108.86 1285.22 2110.79 1287.9 Q2112.73 1290.56 2116.11 1290.56 Q2119.49 1290.56 2121.43 1287.9 Q2123.38 1285.22 2123.38 1280.52 Q2123.38 1275.82 2121.43 1273.16 Q2119.49 1270.47 2116.11 1270.47 Q2112.73 1270.47 2110.79 1273.16 Q2108.86 1275.82 2108.86 1280.52 Z" fill="#000000" fill-rule="nonzero" fill-opacity="1" /><path clip-path="url(#clip110)" d="M2136.41 1267.53 L2140.67 1267.53 L2140.67 1293.46 L2136.41 1293.46 L2136.41 1267.53 M2136.41 1257.44 L2140.67 1257.44 L2140.67 1262.83 L2136.41 1262.83 L2136.41 1257.44 Z" fill="#000000" fill-rule="nonzero" fill-opacity="1" /><path clip-path="url(#clip110)" d="M2168.24 1268.53 L2168.24 1272.51 Q2166.43 1271.51 2164.6 1271.03 Q2162.8 1270.52 2160.95 1270.52 Q2156.8 1270.52 2154.51 1273.16 Q2152.22 1275.77 2152.22 1280.52 Q2152.22 1285.26 2154.51 1287.9 Q2156.8 1290.52 2160.95 1290.52 Q2162.8 1290.52 2164.6 1290.03 Q2166.43 1289.52 2168.24 1288.53 L2168.24 1292.46 Q2166.46 1293.29 2164.54 1293.71 Q2162.64 1294.13 2160.48 1294.13 Q2154.63 1294.13 2151.18 1290.45 Q2147.73 1286.77 2147.73 1280.52 Q2147.73 1274.17 2151.2 1270.54 Q2154.7 1266.91 2160.76 1266.91 Q2162.73 1266.91 2164.6 1267.32 Q2166.48 1267.72 2168.24 1268.53 Z" fill="#000000" fill-rule="nonzero" fill-opacity="1" /><path clip-path="url(#clip110)" d="M2179.86 1260.17 L2179.86 1267.53 L2188.63 1267.53 L2188.63 1270.84 L2179.86 1270.84 L2179.86 1284.91 Q2179.86 1288.09 2180.72 1288.99 Q2181.6 1289.89 2184.26 1289.89 L2188.63 1289.89 L2188.63 1293.46 L2184.26 1293.46 Q2179.33 1293.46 2177.45 1291.63 Q2175.58 1289.78 2175.58 1284.91 L2175.58 1270.84 L2172.45 1270.84 L2172.45 1267.53 L2175.58 1267.53 L2175.58 1260.17 L2179.86 1260.17 Z" fill="#000000" fill-rule="nonzero" fill-opacity="1" /><path clip-path="url(#clip110)" d="M2194.23 1267.53 L2198.49 1267.53 L2198.49 1293.46 L2194.23 1293.46 L2194.23 1267.53 M2194.23 1257.44 L2198.49 1257.44 L2198.49 1262.83 L2194.23 1262.83 L2194.23 1257.44 Z" fill="#000000" fill-rule="nonzero" fill-opacity="1" /><path clip-path="url(#clip110)" d="M2217.45 1270.52 Q2214.03 1270.52 2212.04 1273.2 Q2210.04 1275.86 2210.04 1280.52 Q2210.04 1285.17 2212.01 1287.85 Q2214 1290.52 2217.45 1290.52 Q2220.85 1290.52 2222.85 1287.83 Q2224.84 1285.15 2224.84 1280.52 Q2224.84 1275.91 2222.85 1273.22 Q2220.85 1270.52 2217.45 1270.52 M2217.45 1266.91 Q2223.01 1266.91 2226.18 1270.52 Q2229.35 1274.13 2229.35 1280.52 Q2229.35 1286.88 2226.18 1290.52 Q2223.01 1294.13 2217.45 1294.13 Q2211.87 1294.13 2208.7 1290.52 Q2205.55 1286.88 2205.55 1280.52 Q2205.55 1274.13 2208.7 1270.52 Q2211.87 1266.91 2217.45 1266.91 Z" fill="#000000" fill-rule="nonzero" fill-opacity="1" /><path clip-path="url(#clip110)" d="M2257.96 1277.81 L2257.96 1293.46 L2253.7 1293.46 L2253.7 1277.95 Q2253.7 1274.27 2252.27 1272.44 Q2250.83 1270.61 2247.96 1270.61 Q2244.51 1270.61 2242.52 1272.81 Q2240.53 1275.01 2240.53 1278.8 L2240.53 1293.46 L2236.25 1293.46 L2236.25 1267.53 L2240.53 1267.53 L2240.53 1271.56 Q2242.06 1269.22 2244.12 1268.06 Q2246.2 1266.91 2248.91 1266.91 Q2253.38 1266.91 2255.67 1269.68 Q2257.96 1272.44 2257.96 1277.81 Z" fill="#000000" fill-rule="nonzero" fill-opacity="1" /><circle clip-path="url(#clip110)" cx="1778.93" cy="1328.02" r="20.9455" fill="#e26f46" fill-rule="evenodd" fill-opacity="1" stroke="#000000" stroke-opacity="1" stroke-width="3.72364"/>
<path clip-path="url(#clip110)" d="M1889.75 1313.91 Q1884.65 1313.91 1881.64 1317.7 Q1878.66 1321.5 1878.66 1328.05 Q1878.66 1334.58 1881.64 1338.37 Q1884.65 1342.17 1889.75 1342.17 Q1894.84 1342.17 1897.8 1338.37 Q1900.79 1334.58 1900.79 1328.05 Q1900.79 1321.5 1897.8 1317.7 Q1894.84 1313.91 1889.75 1313.91 M1889.75 1310.11 Q1897.01 1310.11 1901.37 1315 Q1905.72 1319.86 1905.72 1328.05 Q1905.72 1336.22 1901.37 1341.11 Q1897.01 1345.97 1889.75 1345.97 Q1882.45 1345.97 1878.08 1341.11 Q1873.73 1336.25 1873.73 1328.05 Q1873.73 1319.86 1878.08 1315 Q1882.45 1310.11 1889.75 1310.11 Z" fill="#000000" fill-rule="nonzero" fill-opacity="1" /><path clip-path="url(#clip110)" d="M1931.46 1332.36 Q1931.46 1327.66 1929.51 1325 Q1927.59 1322.31 1924.21 1322.31 Q1920.83 1322.31 1918.89 1325 Q1916.97 1327.66 1916.97 1332.36 Q1916.97 1337.06 1918.89 1339.74 Q1920.83 1342.4 1924.21 1342.4 Q1927.59 1342.4 1929.51 1339.74 Q1931.46 1337.06 1931.46 1332.36 M1916.97 1323.31 Q1918.31 1320.99 1920.35 1319.88 Q1922.41 1318.75 1925.25 1318.75 Q1929.98 1318.75 1932.92 1322.5 Q1935.88 1326.25 1935.88 1332.36 Q1935.88 1338.47 1932.92 1342.22 Q1929.98 1345.97 1925.25 1345.97 Q1922.41 1345.97 1920.35 1344.86 Q1918.31 1343.72 1916.97 1341.41 L1916.97 1345.3 L1912.68 1345.3 L1912.68 1309.28 L1916.97 1309.28 L1916.97 1323.31 Z" fill="#000000" fill-rule="nonzero" fill-opacity="1" /><path clip-path="url(#clip110)" d="M1959.47 1320.13 L1959.47 1324.16 Q1957.66 1323.24 1955.72 1322.77 Q1953.77 1322.31 1951.69 1322.31 Q1948.52 1322.31 1946.92 1323.28 Q1945.35 1324.25 1945.35 1326.2 Q1945.35 1327.68 1946.48 1328.54 Q1947.62 1329.37 1951.04 1330.13 L1952.5 1330.46 Q1957.04 1331.43 1958.93 1333.21 Q1960.86 1334.97 1960.86 1338.14 Q1960.86 1341.75 1957.99 1343.86 Q1955.14 1345.97 1950.14 1345.97 Q1948.06 1345.97 1945.79 1345.55 Q1943.54 1345.16 1941.04 1344.35 L1941.04 1339.95 Q1943.4 1341.18 1945.69 1341.8 Q1947.99 1342.4 1950.23 1342.4 Q1953.24 1342.4 1954.86 1341.38 Q1956.48 1340.34 1956.48 1338.47 Q1956.48 1336.73 1955.3 1335.81 Q1954.14 1334.88 1950.18 1334.02 L1948.7 1333.68 Q1944.74 1332.84 1942.99 1331.13 Q1941.23 1329.39 1941.23 1326.38 Q1941.23 1322.73 1943.82 1320.74 Q1946.41 1318.75 1951.18 1318.75 Q1953.54 1318.75 1955.62 1319.09 Q1957.71 1319.44 1959.47 1320.13 Z" fill="#000000" fill-rule="nonzero" fill-opacity="1" /><path clip-path="url(#clip110)" d="M1989.81 1331.27 L1989.81 1333.35 L1970.23 1333.35 Q1970.51 1337.75 1972.87 1340.06 Q1975.25 1342.36 1979.49 1342.36 Q1981.94 1342.36 1984.24 1341.75 Q1986.55 1341.15 1988.82 1339.95 L1988.82 1343.98 Q1986.53 1344.95 1984.12 1345.46 Q1981.71 1345.97 1979.24 1345.97 Q1973.03 1345.97 1969.4 1342.36 Q1965.79 1338.75 1965.79 1332.59 Q1965.79 1326.22 1969.21 1322.5 Q1972.66 1318.75 1978.49 1318.75 Q1983.73 1318.75 1986.76 1322.13 Q1989.81 1325.48 1989.81 1331.27 M1985.55 1330.02 Q1985.51 1326.52 1983.59 1324.44 Q1981.69 1322.36 1978.54 1322.36 Q1974.98 1322.36 1972.82 1324.37 Q1970.69 1326.38 1970.37 1330.04 L1985.55 1330.02 Z" fill="#000000" fill-rule="nonzero" fill-opacity="1" /><path clip-path="url(#clip110)" d="M2011.83 1323.35 Q2011.11 1322.94 2010.25 1322.75 Q2009.42 1322.54 2008.4 1322.54 Q2004.79 1322.54 2002.85 1324.9 Q2000.93 1327.24 2000.93 1331.64 L2000.93 1345.3 L1996.64 1345.3 L1996.64 1319.37 L2000.93 1319.37 L2000.93 1323.4 Q2002.27 1321.04 2004.42 1319.9 Q2006.57 1318.75 2009.65 1318.75 Q2010.09 1318.75 2010.62 1318.81 Q2011.16 1318.86 2011.8 1318.98 L2011.83 1323.35 Z" fill="#000000" fill-rule="nonzero" fill-opacity="1" /><path clip-path="url(#clip110)" d="M2013.24 1319.37 L2017.75 1319.37 L2025.86 1341.13 L2033.96 1319.37 L2038.47 1319.37 L2028.75 1345.3 L2022.96 1345.3 L2013.24 1319.37 Z" fill="#000000" fill-rule="nonzero" fill-opacity="1" /><path clip-path="url(#clip110)" d="M2066.53 1331.27 L2066.53 1333.35 L2046.94 1333.35 Q2047.22 1337.75 2049.58 1340.06 Q2051.97 1342.36 2056.2 1342.36 Q2058.66 1342.36 2060.95 1341.75 Q2063.26 1341.15 2065.53 1339.95 L2065.53 1343.98 Q2063.24 1344.95 2060.83 1345.46 Q2058.42 1345.97 2055.95 1345.97 Q2049.74 1345.97 2046.11 1342.36 Q2042.5 1338.75 2042.5 1332.59 Q2042.5 1326.22 2045.92 1322.5 Q2049.37 1318.75 2055.21 1318.75 Q2060.44 1318.75 2063.47 1322.13 Q2066.53 1325.48 2066.53 1331.27 M2062.27 1330.02 Q2062.22 1326.52 2060.3 1324.44 Q2058.4 1322.36 2055.25 1322.36 Q2051.69 1322.36 2049.54 1324.37 Q2047.41 1326.38 2047.08 1330.04 L2062.27 1330.02 Z" fill="#000000" fill-rule="nonzero" fill-opacity="1" /><path clip-path="url(#clip110)" d="M2090.58 1323.31 L2090.58 1309.28 L2094.84 1309.28 L2094.84 1345.3 L2090.58 1345.3 L2090.58 1341.41 Q2089.23 1343.72 2087.17 1344.86 Q2085.14 1345.97 2082.27 1345.97 Q2077.57 1345.97 2074.61 1342.22 Q2071.67 1338.47 2071.67 1332.36 Q2071.67 1326.25 2074.61 1322.5 Q2077.57 1318.75 2082.27 1318.75 Q2085.14 1318.75 2087.17 1319.88 Q2089.23 1320.99 2090.58 1323.31 M2076.06 1332.36 Q2076.06 1337.06 2077.98 1339.74 Q2079.93 1342.4 2083.31 1342.4 Q2086.69 1342.4 2088.63 1339.74 Q2090.58 1337.06 2090.58 1332.36 Q2090.58 1327.66 2088.63 1325 Q2086.69 1322.31 2083.31 1322.31 Q2079.93 1322.31 2077.98 1325 Q2076.06 1327.66 2076.06 1332.36 Z" fill="#000000" fill-rule="nonzero" fill-opacity="1" /><path clip-path="url(#clip110)" d="M2123.54 1314.58 L2123.54 1341.45 L2129.19 1341.45 Q2136.34 1341.45 2139.65 1338.21 Q2142.98 1334.97 2142.98 1327.98 Q2142.98 1321.04 2139.65 1317.82 Q2136.34 1314.58 2129.19 1314.58 L2123.54 1314.58 M2118.86 1310.74 L2128.47 1310.74 Q2138.52 1310.74 2143.22 1314.93 Q2147.92 1319.09 2147.92 1327.98 Q2147.92 1336.92 2143.19 1341.11 Q2138.47 1345.3 2128.47 1345.3 L2118.86 1345.3 L2118.86 1310.74 Z" fill="#000000" fill-rule="nonzero" fill-opacity="1" /><path clip-path="url(#clip110)" d="M2166.97 1332.26 Q2161.8 1332.26 2159.81 1333.44 Q2157.82 1334.63 2157.82 1337.47 Q2157.82 1339.74 2159.3 1341.08 Q2160.81 1342.4 2163.38 1342.4 Q2166.92 1342.4 2169.05 1339.9 Q2171.2 1337.38 2171.2 1333.21 L2171.2 1332.26 L2166.97 1332.26 M2175.46 1330.5 L2175.46 1345.3 L2171.2 1345.3 L2171.2 1341.36 Q2169.74 1343.72 2167.57 1344.86 Q2165.39 1345.97 2162.24 1345.97 Q2158.26 1345.97 2155.9 1343.75 Q2153.56 1341.5 2153.56 1337.75 Q2153.56 1333.38 2156.48 1331.15 Q2159.42 1328.93 2165.23 1328.93 L2171.2 1328.93 L2171.2 1328.51 Q2171.2 1325.57 2169.26 1323.98 Q2167.34 1322.36 2163.84 1322.36 Q2161.62 1322.36 2159.51 1322.89 Q2157.41 1323.42 2155.46 1324.49 L2155.46 1320.55 Q2157.8 1319.65 2160 1319.21 Q2162.2 1318.75 2164.28 1318.75 Q2169.91 1318.75 2172.68 1321.66 Q2175.46 1324.58 2175.46 1330.5 Z" fill="#000000" fill-rule="nonzero" fill-opacity="1" /><path clip-path="url(#clip110)" d="M2188.45 1312.01 L2188.45 1319.37 L2197.22 1319.37 L2197.22 1322.68 L2188.45 1322.68 L2188.45 1336.75 Q2188.45 1339.93 2189.3 1340.83 Q2190.18 1341.73 2192.85 1341.73 L2197.22 1341.73 L2197.22 1345.3 L2192.85 1345.3 Q2187.91 1345.3 2186.04 1343.47 Q2184.16 1341.62 2184.16 1336.75 L2184.16 1322.68 L2181.04 1322.68 L2181.04 1319.37 L2184.16 1319.37 L2184.16 1312.01 L2188.45 1312.01 Z" fill="#000000" fill-rule="nonzero" fill-opacity="1" /><path clip-path="url(#clip110)" d="M2214.6 1332.26 Q2209.44 1332.26 2207.45 1333.44 Q2205.46 1334.63 2205.46 1337.47 Q2205.46 1339.74 2206.94 1341.08 Q2208.45 1342.4 2211.02 1342.4 Q2214.56 1342.4 2216.69 1339.9 Q2218.84 1337.38 2218.84 1333.21 L2218.84 1332.26 L2214.6 1332.26 M2223.1 1330.5 L2223.1 1345.3 L2218.84 1345.3 L2218.84 1341.36 Q2217.38 1343.72 2215.21 1344.86 Q2213.03 1345.97 2209.88 1345.97 Q2205.9 1345.97 2203.54 1343.75 Q2201.2 1341.5 2201.2 1337.75 Q2201.2 1333.38 2204.12 1331.15 Q2207.06 1328.93 2212.87 1328.93 L2218.84 1328.93 L2218.84 1328.51 Q2218.84 1325.57 2216.9 1323.98 Q2214.97 1322.36 2211.48 1322.36 Q2209.26 1322.36 2207.15 1322.89 Q2205.04 1323.42 2203.1 1324.49 L2203.1 1320.55 Q2205.44 1319.65 2207.64 1319.21 Q2209.84 1318.75 2211.92 1318.75 Q2217.54 1318.75 2220.32 1321.66 Q2223.1 1324.58 2223.1 1330.5 Z" fill="#000000" fill-rule="nonzero" fill-opacity="1" /></svg>
